<svg xmlns="http://www.w3.org/2000/svg" width="125.732" height="82.613" viewBox="0 0 125.732 82.613"><g transform="translate(-449.268 -679.315)"><path d="M56.593,59.848q-2.489,0-4.978,0H17.99a18.864,18.864,0,0,1-9.78-3.064,18.868,18.868,0,0,1-6.371-7.237A17.979,17.979,0,0,1,.082,43.4,22.712,22.712,0,0,1,0,40.6,18.3,18.3,0,0,1,10.268,25.1c.152-.091.425-.157.374-.39a22.383,22.383,0,0,1,.225-7.15A21.782,21.782,0,0,1,15.416,8,22.052,22.052,0,0,1,33.53.02,22.278,22.278,0,0,1,43.9,3.181a22.005,22.005,0,0,1,7.449,7.45c.381.6.67,1.258,1.036,1.868a12.605,12.605,0,0,1,5.772-2.083,12.474,12.474,0,0,1,9.472,3.164,12.208,12.208,0,0,1,3.9,8.048,11.991,11.991,0,0,1-1.195,6.146c-.107.2-.21.411-.3.624a24.283,24.283,0,0,1,2.813,1.223A16.317,16.317,0,0,1,80,37.365a16.017,16.017,0,0,1,.782,10.56A15.747,15.747,0,0,1,76.8,54.913a16.263,16.263,0,0,1-11.21,4.949C62.593,59.844,59.594,59.846,56.593,59.848ZM64.518,45.43a6.514,6.514,0,0,1,.4.887,4.739,4.739,0,0,0,8.423.13,4.636,4.636,0,0,0,.114-4.144,4.76,4.76,0,0,0-3.56-2.667,5.354,5.354,0,0,0-2.841.391c-.137-1.169-.078-2.358-.156-3.536-.308.274-.563.6-.851.894a4.724,4.724,0,0,1-.412-.8q-2.227-4.761-4.288-9.6c-.125-.2.1-.334.242-.431a4.6,4.6,0,0,0,1.976-2.76,4.88,4.88,0,0,0-.424-3.351,4.74,4.74,0,0,0-3.4-2.4,4.855,4.855,0,0,0-3.491.782,5.775,5.775,0,0,0-1.54,1.754c-.83-.872-1.587-1.808-2.4-2.7-.128.389-.055.808-.149,1.2a2.277,2.277,0,0,1-.35-.09q-9.581-3.659-19.243-7.111c-.168-.043-.334-.167-.25-.359a4.7,4.7,0,0,0-2.069-4.7,4.757,4.757,0,0,0-6.665,1.53,4.728,4.728,0,0,0-.107,4.605,5.639,5.639,0,0,0,1.767,1.85c-.941.787-1.974,1.466-2.894,2.275a10.487,10.487,0,0,1,1.3.2Q18.188,27.673,12.625,38c-.064.2-.27.161-.427.107a4.749,4.749,0,0,0-5.207,1.962,4.637,4.637,0,0,0-.309,4.569,4.741,4.741,0,0,0,8.981-1.561c.952.7,1.817,1.514,2.743,2.249-.026-.439-.106-.875-.1-1.316a10.019,10.019,0,0,1,1.056.172,145.57,145.57,0,0,0,44.29,1.327c.243-.022.487-.088.733-.088A1.221,1.221,0,0,1,64.518,45.43Zm-55.426.406a3.669,3.669,0,0,1-1.839-3.8,3.7,3.7,0,0,1,7.08-.745,3.653,3.653,0,0,1-.6,3.712,3.727,3.727,0,0,1-2.858,1.3A3.542,3.542,0,0,1,9.091,45.836Zm1.115-5.473a2.374,2.374,0,0,0-1.7,2.475,2.409,2.409,0,0,0,4.772.2,2.378,2.378,0,0,0-1.032-2.368,2.408,2.408,0,0,0-1.35-.406A2.449,2.449,0,0,0,10.206,40.364ZM38.532,45.47a141.751,141.751,0,0,1-19.971-2.415,11.737,11.737,0,0,1,.687-1.1c-1.175.159-2.324.488-3.494.672-.152-.162-.07-.464-.133-.677-.015-.388-.236-.749-.244-1.124,3.276-1.853,6.639-3.551,10.046-5.155a164.856,164.856,0,0,1,24.135-9.1c.85-.231,1.687-.513,2.55-.693.025.383-.032.765-.009,1.149.863-.772,1.7-1.572,2.557-2.345A5.6,5.6,0,0,0,56.6,26.736a5.016,5.016,0,0,0,3.616.466c.157-.076.222.128.278.229.9,2.078,1.79,4.161,2.731,6.224.624,1.422,1.324,2.814,1.93,4.245-.446.086-.9.134-1.345.209a4.416,4.416,0,0,0,.7.555c.717.537,1.469,1.028,2.16,1.6A4.82,4.82,0,0,0,64.561,43.2c-.122.4-.054.839-.171,1.234-3.586.512-7.207.8-10.824,1.005-2.676.138-5.356.216-8.036.216C43.2,45.66,40.863,45.6,38.532,45.47ZM14.75,39.839a6.538,6.538,0,0,0-1.333-1.256c2.809-5.26,5.644-10.507,8.423-15.784.9-1.69,1.776-3.4,2.7-5.075.329.271.636.568.959.848.008-1.2-.012-2.4.022-3.6a5.484,5.484,0,0,0,2.531.448,4.817,4.817,0,0,0,3.913-2.7,7.012,7.012,0,0,1,.94.3c4.605,1.64,9.19,3.334,13.766,5.05,1.712.661,3.441,1.279,5.141,1.97-.286.358-.626.669-.914,1.027,1.221-.028,2.438-.148,3.659-.16a6.037,6.037,0,0,0-.3,1.66,6.484,6.484,0,0,0,.217,1.63c-1.145-.145-2.279-.365-3.422-.517q.428.582.866,1.16a1.532,1.532,0,0,1-.551.218,165.654,165.654,0,0,0-36.2,14.773.675.675,0,0,1-.267.1A.153.153,0,0,1,14.75,39.839Z" transform="translate(449.268 679.315)" fill="#0c7ff2"></path><g transform="translate(-46 15.928)"><circle cx="25.5" cy="25.5" r="25.5" transform="translate(570 695)" fill="#fff"></circle><g transform="translate(566 693.308)"><g transform="translate(3.319 2.447)"><path d="M16.462,25.694,7.8,28.849a26.2,26.2,0,0,0,.688,4.109l8.235-3a16.088,16.088,0,0,1-.252-4.266M54.78,16.105a24.825,24.825,0,0,0-2.115-3.589L44,15.671A16.225,16.225,0,0,1,46.543,19.1Z" transform="translate(-4.099 -3.454)" fill="#db212f"></path><path d="M35.291,12.643a16.011,16.011,0,0,1,4.684,3.336l8.67-3.155A24.782,24.782,0,0,0,3.766,29.156L12.437,26A16.066,16.066,0,0,1,35.291,12.644" transform="translate(-3.688 -2.447)" fill="#db212f"></path></g><path d="M8.238,35.01,0,38.009a25.1,25.1,0,0,0,3.874,8.4l8.651-3.15a16.191,16.191,0,0,1-4.287-8.248" transform="translate(0 -3.256)" fill="#ea2227"></path><path d="M45.051,31.03A15.876,15.876,0,0,1,43.6,36.6a16.128,16.128,0,0,1-21.411,7.791,15.939,15.939,0,0,1-4.694-3.33l-8.651,3.15A24.768,24.768,0,0,0,51.47,40.271,24.552,24.552,0,0,0,53.7,27.883l-8.649,3.148Z" transform="translate(-0.884 -2.544)" fill="#db212f"></path><path d="M50.53,19.618l-8.238,3a16.171,16.171,0,0,1,2.016,9.072l8.651-3.147a24.979,24.979,0,0,0-2.43-8.923" transform="translate(-4.229 -1.717)" fill="#ea2227"></path></g></g></g></svg>