<svg xmlns="http://www.w3.org/2000/svg" width="501.621" height="284.798" viewBox="0 0 501.621 284.798"><g transform="translate(156.631)"><g transform="translate(-156.631)"><rect width="501.621" height="284.798" fill="none"></rect><g transform="translate(312.705 45.212)"><path d="M850.024,254.83a8.125,8.125,0,0,1,8.113,8.136L857.924,409.7a8.123,8.123,0,0,1-8.136,8.11l-97.275-.142a8.125,8.125,0,0,1-8.112-8.136l.174-100.6" transform="translate(-742.262 -245.882)" fill="#455666" stroke="#000" stroke-miterlimit="10" stroke-width="2" opacity="0.33"></path><path d="M841.055,242.54a8.125,8.125,0,0,1,8.112,8.138l-.213,146.732a8.125,8.125,0,0,1-8.136,8.112l-97.269-.145a8.125,8.125,0,0,1-8.11-8.138l.172-96.451" transform="translate(-735.206 -236.204)" fill="#d9d9d9" stroke="#000" stroke-miterlimit="10" stroke-width="2"></path><path d="M768.83,271.085a7.683,7.683,0,0,1-7.7,7.673l-26.567,19.711-.187,96.408a8.125,8.125,0,0,0,8.112,8.136l98.519.147a4.774,4.774,0,0,0,4.778-4.765l.227-153.436a4.774,4.774,0,0,0-4.765-4.78l-47.682-.108" transform="translate(-734.372 -234.259)" fill="#ebf0f5" stroke="#24313e" stroke-miterlimit="10" stroke-width="2"></path><path d="M736.6,302.16h59.17a2.1,2.1,0,0,0,2.1-2.1V243.022a2.1,2.1,0,0,0-2.1-2.1h-1.524a2.1,2.1,0,0,0-1.488.608l-57.635,57.036a2.1,2.1,0,0,0-.623,1.4h0a2.1,2.1,0,0,0,2.1,2.191Z" transform="translate(-734.467 -234.928)" fill="#455666" opacity="0.33"></path><path d="M734.564,297.593l43.974.066a15,15,0,0,0,15.026-14.982l.066-43.971a.213.213,0,0,0-.37-.155l-58.849,58.673a.213.213,0,0,0,.153.37Z" transform="translate(-734.341 -233.007)" fill="#fdfdfd" stroke="#000" stroke-miterlimit="10" stroke-width="2"></path><path d="M962.613,350.26a8.121,8.121,0,0,1,8.11,8.136l-.213,146.732a8.125,8.125,0,0,1-8.136,8.112l-97.269-.145A8.125,8.125,0,0,1,857,504.96l.172-100.6" transform="translate(-830.931 -321.029)" fill="#455666" opacity="0.33"></path><path d="M953.613,338a8.125,8.125,0,0,1,8.113,8.136l-.213,146.735a8.121,8.121,0,0,1-8.136,8.11l-97.269-.145A8.125,8.125,0,0,1,848,492.694l.164-96.459" transform="translate(-823.844 -311.375)" fill="#d9d9d9" stroke="#000" stroke-miterlimit="10" stroke-width="2"></path><path d="M880.06,366.514a7.683,7.683,0,0,1-7.7,7.673L845.8,393.9l-.187,96.408a8.125,8.125,0,0,0,8.112,8.136l98.519.147a4.774,4.774,0,0,0,4.78-4.765l.227-153.438a4.769,4.769,0,0,0-4.767-4.786l-47.68-.108" transform="translate(-821.961 -309.398)" fill="#ebf0f5" stroke="#24313e" stroke-miterlimit="10" stroke-width="2"></path><path d="M848.561,404.986h42.4c8.123,0,14.707-7.065,14.707-15.779V345.85c0-1.16.568-.1-.514-.1h-1.42a1.889,1.889,0,0,0-1.377.608l-55.174,55.032a2.175,2.175,0,0,0-.58,1.4h0A2.041,2.041,0,0,0,848.561,404.986Z" transform="translate(-822.742 -317.13)" fill="#455666" opacity="0.33"></path><path d="M1325.163,777.339l11.876-16.71,4.268-62.46-16.7,45.674Z" transform="translate(-1199.157 -594.996)" fill="#455666" opacity="0.33"></path><path d="M847.148,392.984l43.974.066a15,15,0,0,0,15.026-14.982l.066-43.974a.212.212,0,0,0-.37-.153l-58.849,58.681a.213.213,0,0,0,.153.361Z" transform="translate(-823.004 -308.124)" fill="#fdfdfd" stroke="#000" stroke-miterlimit="10" stroke-width="2"></path><rect width="89.063" height="29.528" rx="14.764" transform="matrix(1, 0.003, -0.003, 1, 31.218, 156.248)" fill="#d9d9d9" stroke="#000" stroke-miterlimit="10" stroke-width="2"></rect><rect width="89.146" height="29.525" rx="14.763" transform="matrix(1, 0.003, -0.003, 1, 28.518, 156.291)" fill="#fdfdfd" stroke="#000" stroke-miterlimit="10" stroke-width="2"></rect><g transform="translate(33.026 159.213)"><text transform="translate(0.249 9) rotate(1.146)" fill="#24313e" font-size="10" font-family="Rubik-Bold, Rubik" font-weight="700"><tspan x="0" y="0">API </tspan></text><text transform="translate(0.06 18.449) rotate(1.146)" fill="#24313e" font-size="10" font-family="Rubik-Regular, Rubik"><tspan x="0" y="0">SP</tspan></text><text transform="translate(13.482 18.718) rotate(1.146)" fill="#24313e" font-size="10" font-family="Rubik-Regular, Rubik"><tspan x="0" y="0">E</tspan></text><text transform="translate(19.843 18.845) rotate(1.146)" fill="#24313e" font-size="10" font-family="Rubik-Regular, Rubik"><tspan x="0" y="0">CIFI</tspan></text><text transform="translate(38.916 19.226) rotate(1.146)" fill="#24313e" font-size="10" font-family="Rubik-Regular, Rubik"><tspan x="0" y="0">C</tspan></text><text transform="translate(45.912 19.366) rotate(1.146)" fill="#24313e" font-size="10" font-family="Rubik-Regular, Rubik"><tspan x="0" y="0">A</tspan></text><text transform="translate(52.242 19.493) rotate(1.146)" fill="#24313e" font-size="10" font-family="Rubik-Regular, Rubik"><tspan x="0" y="0">TION</tspan></text></g><path d="M1373.474,341.348,1343.4,462.516a.925.925,0,0,1-1.137.672l-16.62-4.419a.927.927,0,0,1-.661-1.12l30.076-121.173a.927.927,0,0,1,1.137-.672l16.62,4.419a.929.929,0,0,1,.663,1.124Z" transform="translate(-1199.424 -309.622)" fill="#0c7ff2" stroke="#24313e" stroke-miterlimit="10" stroke-width="2"></path><path d="M1332.349,1019.089l-5.832,9.562-.187-11.341Z" transform="translate(-1200.511 -846.308)" fill="#24313e" stroke="#031439" stroke-miterlimit="10" stroke-width="2"></path><path d="M1342.68,917.852,1330.995,937l-6.019-1.779-.366-22.155Z" transform="translate(-1199.157 -764.222)" fill="#fdfdfd" stroke="#000" stroke-miterlimit="10" stroke-width="2"></path><path d="M4.922,0h21.8v19.03H4.922A4.922,4.922,0,0,1,0,14.11V4.922A4.922,4.922,0,0,1,4.922,0Z" transform="matrix(-0.241, 0.971, -0.971, -0.241, 180.761, 4.585)" fill="#24313e" stroke="#031439" stroke-miterlimit="10" stroke-width="2"></path><path d="M1334.428,460.067,1330.06,459l29.993-119.913,4.368,1.067Z" transform="translate(-1203.449 -312.233)" fill="#ebf0f5" opacity="0.21"></path><path d="M1479.307,255.669h0a2.251,2.251,0,0,1-1.651-2.714l4.062-16.71a2.249,2.249,0,0,1,2.718-1.654h0a2.244,2.244,0,0,1,1.649,2.712l-4.051,16.716a2.251,2.251,0,0,1-2.727,1.649Z" transform="translate(-1319.625 -229.895)" fill="#ebf0f5" opacity="0.21"></path><path d="M1377.192,228.74,1340.2,377.768,1327.21,407.68l17.517-28.714L1380.784,234.7A4.489,4.489,0,0,0,1377.192,228.74Z" transform="translate(-1201.204 -225.337)" opacity="0.21"></path></g></g></g></svg>