<svg xmlns="http://www.w3.org/2000/svg" width="153.117" height="44.112" viewBox="0 0 153.117 44.112"><g transform="translate(677.93 -313.854)"><g transform="translate(-677.93 313.854)"><path d="M6.932,38.249c7.317-1.293,13.36-2.362,13.43-2.377l.126-.027L13.58,27.628c-3.8-4.519-6.908-8.234-6.908-8.256C6.672,19.332,13.8-.31,13.845-.38c.013-.023,4.868,8.357,11.767,20.315L37.446,40.447l.09.157-21.954,0-21.954,0,13.3-2.35Zm84.19-1.987c-3.342-.214-5.285-2.117-5.8-5.679-.137-.947-.138-.972-.152-7.123l-.014-5.953h2.958l.012,5.758c.01,5.19.017,5.8.067,6.163a5.46,5.46,0,0,0,1.285,3.193,3.686,3.686,0,0,0,2.071,1.085,7.876,7.876,0,0,0,1.986,0,4.39,4.39,0,0,0,2.251-1.222A5.95,5.95,0,0,0,97.3,29.576l.087-.391.01-5.807.01-5.807h3.02V35.829H97.44V34.38a10.974,10.974,0,0,0-.034-1.437,1.19,1.19,0,0,0-.171.261,6.075,6.075,0,0,1-2.313,2.316,6.493,6.493,0,0,1-3.8.742Zm33.919-.015a7.835,7.835,0,0,1-3.437-1.122,8.376,8.376,0,0,1-3.777-6.508,15.731,15.731,0,0,1-.037-3.317,10.778,10.778,0,0,1,2.118-5.292,10.818,10.818,0,0,1,1.279-1.279,7.97,7.97,0,0,1,3.265-1.558,10.611,10.611,0,0,1,2.648-.154,6.963,6.963,0,0,1,4.693,2.411,9.215,9.215,0,0,1,1.895,5.73c.013.375.016,1.033.007,1.462l-.016.78-6.473.008-6.473.008V27.7a7.158,7.158,0,0,0,.583,2.733,6.01,6.01,0,0,0,1.317,1.926,5.787,5.787,0,0,0,3.282,1.387,12.8,12.8,0,0,0,2.144-.082A9.088,9.088,0,0,0,132.1,32c.134-.1.263-.195.286-.209a5.46,5.46,0,0,1,.04,1.348v1.374l-.306.189a10.714,10.714,0,0,1-4.338,1.5,24.906,24.906,0,0,1-2.742.041Zm5.633-11.59a5.882,5.882,0,0,0-1.5-3.952A4.119,4.119,0,0,0,126.89,19.6a6.753,6.753,0,0,0-1.774.05,4.637,4.637,0,0,0-2.421,1.287,6.6,6.6,0,0,0-1.6,2.565,8.232,8.232,0,0,0-.31,1.261l-.021.154h9.913ZM42.869,35.788c.008-.022,2.206-5.8,4.885-12.832l4.871-12.792h3.13l.13.333c.4,1.018,9.751,25.3,9.751,25.317s-.749.015-1.665.015H62.306l-1.348-3.589-1.348-3.589H48.752l-.047.122c-.026.067-.6,1.682-1.28,3.589l-1.233,3.467H44.524a9,9,0,0,1-1.655-.04ZM58.618,25.91c0-.006-.907-2.465-2.016-5.466-2.075-5.614-2.191-5.951-2.355-6.853-.077-.423-.116-.434-.161-.049a8.961,8.961,0,0,1-.283,1.235c-.054.17-.988,2.734-2.076,5.7s-1.978,5.4-1.978,5.417,2,.028,4.434.028,4.434,0,4.434-.01Zm8.024,9.451v-.467l5.408-7.435,5.408-7.435-4.9-.016-4.9-.016-.009-1.243-.009-1.243H81.814v.839L76.4,25.821C73.43,29.933,71,33.3,71,33.312s2.4.015,5.344.015h5.344v2.5H66.643Zm39.688.446c-.012-.012-.022-4.135-.022-9.161v-9.14h2.956V19.39c0,1.036.013,1.884.028,1.884a1.677,1.677,0,0,0,.16-.377,6.513,6.513,0,0,1,1.651-2.543,4.28,4.28,0,0,1,2.335-1.161,4.839,4.839,0,0,1,.975-.035,4.317,4.317,0,0,1,1.356.19l.122.04v3.069l-.349-.175a3.73,3.73,0,0,0-1.957-.393,3.544,3.544,0,0,0-1.17.229,3.7,3.7,0,0,0-1.863,1.521,8.838,8.838,0,0,0-1.236,3.555c-.024.217-.039,1.988-.044,5.479l-.008,5.157h-1.456c-.8,0-1.466-.01-1.478-.022Zm-125.746-.064c0-.012,3.255-5.662,7.233-12.556l7.233-12.535L3.481,3.577C8.117-.313,11.922-3.5,11.938-3.507a1.482,1.482,0,0,1-.136.341L2.649,16.467l-8.99,19.281-6.537.008c-3.6,0-6.537,0-6.537-.013Z" transform="translate(19.415 3.507)" fill="#0089d6"></path></g></g></svg>