<svg xmlns:inkscape="http://www.inkscape.org/namespaces/inkscape" xmlns:sodipodi="http://sodipodi.sourceforge.net/DTD/sodipodi-0.dtd" xmlns:xlink="http://www.w3.org/1999/xlink" xmlns="http://www.w3.org/2000/svg" xmlns:svg="http://www.w3.org/2000/svg" id="Layer_1" x="0px" y="0px" viewBox="0 0 1024 594" xml:space="preserve" sodipodi:docname="CGaaS_CodeGen.svg" inkscape:version="1.1.2 (0a00cf5339, 2022-02-04, custom)" width="1024" height="594"><defs id="defs358"></defs><style type="text/css" id="style2">	.st0{fill:#6B7E8F;stroke:#24313E;stroke-width:2;stroke-miterlimit:10;}	.st1{fill:#9CAAB8;stroke:#031439;stroke-width:2;stroke-miterlimit:10;}	.st2{opacity:0.14;enable-background:new    ;}	.st3{fill:#CCCFD4;stroke:#031439;stroke-width:2;stroke-miterlimit:10;}	.st4{fill:none;stroke:#24313E;stroke-width:2;stroke-miterlimit:10;}	.st5{opacity:0.38;enable-background:new    ;}	.st6{fill:#EBF0F5;stroke:#031439;stroke-width:2;stroke-miterlimit:10;}	.st7{fill:#3AB2D0;stroke:#24313E;stroke-width:2;stroke-miterlimit:10;}	.st8{fill:#455666;stroke:#24313E;stroke-width:2;stroke-miterlimit:10;}	.st9{fill:#0C7FF2;stroke:#24313E;stroke-width:2;stroke-miterlimit:10;}	.st10{fill:#0062FF;stroke:#031439;stroke-width:2;stroke-miterlimit:10;}	.st11{fill:none;stroke:#24313E;stroke-width:2;stroke-miterlimit:10;stroke-dasharray:6.36,6.36;}	.st12{fill:none;stroke:#24313E;stroke-width:2;stroke-miterlimit:10;stroke-dasharray:6.41,6.41;}	.st13{fill:none;stroke:#24313E;stroke-width:2;stroke-miterlimit:10;stroke-dasharray:6.43;}	.st14{fill:#EBF0F5;stroke:#24313E;stroke-width:2;stroke-miterlimit:10;}	.st15{fill:#0062FF;stroke:#24313E;stroke-width:2;stroke-miterlimit:10;}	.st16{opacity:0.21;enable-background:new    ;}	.st17{opacity:0.21;fill:#EBF0F5;enable-background:new    ;}	.st18{opacity:0.34;enable-background:new    ;}	.st19{fill:#EBF0F5;}	.st20{opacity:0.18;fill:#EBF0F5;enable-background:new    ;}	.st21{opacity:0.49;fill:#EBF0F5;enable-background:new    ;}	.st22{enable-background:new    ;}	.st23{fill:#FFFFFF;}	.st24{clip-path:url(#SVGID_2_);}	.st25{fill:#B8AF50;stroke:#031439;stroke-width:2;stroke-linecap:round;stroke-linejoin:round;}	.st26{fill:#F4E969;stroke:#031439;stroke-width:2;stroke-linecap:round;stroke-linejoin:round;}	.st27{opacity:0.41;fill:#24313E;enable-background:new    ;}	.st28{fill:#9CAAB8;}	.st29{opacity:0.1;enable-background:new    ;}	.st30{fill-rule:evenodd;clip-rule:evenodd;fill:#9CAAB8;}</style><g id="g353" transform="matrix(0.90704256,0,0,0.90704256,49.416266,-193.31295)">	<g id="Layer_1_1_">		<path class="st0" d="M 988.5,793.9 H 61.7 c -7.5,0 -13.5,-6.1 -13.5,-13.5 v -1.7 c 0,-7.5 6.1,-13.5 13.5,-13.5 h 926.8 c 7.5,0 13.5,6.1 13.5,13.5 v 1.7 c 0,7.4 -6,13.5 -13.5,13.5 z" id="path4"></path>		<path class="st1" d="M 811.4,793.9 H 32.8 c -7.5,0 -13.5,-6.1 -13.5,-13.5 v -1.7 c 0,-7.5 6.1,-13.5 13.5,-13.5 h 778.6 c 7.5,0 13.5,6.1 13.5,13.5 v 1.7 c 0.1,7.4 -6,13.5 -13.5,13.5 z" id="path6"></path>		<path class="st2" d="M 728.5,767.4 H 56 c -0.9,0 -1.6,-0.7 -1.6,-1.6 v -2.3 c 0,-0.9 0.7,-1.6 1.6,-1.6 h 672.5 c 0.9,0 1.6,0.7 1.6,1.6 v 2.3 c 0,0.9 -0.7,1.6 -1.6,1.6 z" id="path8"></path>		<path class="st3" d="m 567.2,343.5 h -63.6 c -9.6,0 -17.4,-7.8 -17.4,-17.4 v -19.9 c 0,-9.6 7.8,-17.4 17.4,-17.4 h 63.6 c 9.6,0 17.4,7.8 17.4,17.4 v 19.9 c 0,9.6 -7.7,17.4 -17.4,17.4 z" id="path10"></path>		<line class="st4" x1="578" y1="343.60001" x2="507.79999" y2="343.60001" id="line12"></line>		<rect x="153.10001" y="457.79999" class="st5" width="557.09998" height="306.29999" id="rect14"></rect>		<rect x="57.5" y="457.79999" class="st6" width="579" height="306.29999" id="rect16"></rect>		<path class="st7" d="m 109.8,392.4 c -0.4,10.5 4.4,20.6 12.7,27.1 4.8,3.7 7.6,9.5 7.5,15.6 v 10 h 25.4 v -10 c 0,-6 2.7,-11.7 7.4,-15.4 14.4,-11.1 17.1,-31.8 6,-46.2 -11.1,-14.4 -31.8,-17.1 -46.2,-6 -7.8,5.9 -12.5,15.1 -12.8,24.9 z" id="path18"></path>		<path class="st7" d="m 139.8,444.5 h 5.5 c 0.2,0 0.4,-0.7 0.4,-1.6 l 8.8,-32.6 c 0,-0.9 -0.7,-1.6 -1.6,-1.6 -0.4,0 -0.9,0.2 -1.2,0.5 l -1.6,1.7 c -0.6,0.6 -1.6,0.7 -2.3,0.1 l -3.8,-3.6 c -0.6,-0.6 -1.6,-0.6 -2.3,0 l -3.8,3.8 c -0.6,0.6 -1.7,0.6 -2.3,0 l -2.3,-2.2 c -0.6,-0.6 -1.7,-0.6 -2.3,0 -0.3,0.3 -0.5,0.7 -0.5,1.1 l 8.8,32.7 c 0,0.9 0.2,1.7 0.5,1.7 z" id="path20"></path>		<rect x="129.60001" y="446.29999" class="st0" width="44.700001" height="10.8" id="rect22"></rect>		<rect x="116.4" y="446.29999" class="st0" width="44.700001" height="10.8" id="rect24"></rect>		<path class="st8" d="M 371.5,704.9 H 112.2 c -10.2,0 -18.5,-8.3 -18.5,-18.5 V 509.9 c 0,-10.2 8.3,-18.5 18.5,-18.5 h 259.3 c 10.2,0 18.5,8.3 18.5,18.5 v 176.5 c -0.1,10.2 -8.3,18.5 -18.5,18.5 z" id="path26"></path>		<path class="st9" d="M 377.6,704.9 H 118.3 c -10.2,0 -18.5,-8.3 -18.5,-18.5 V 509.9 c 0,-10.2 8.3,-18.5 18.5,-18.5 h 259.3 c 10.2,0 18.5,8.3 18.5,18.5 v 176.5 c -0.1,10.2 -8.3,18.5 -18.5,18.5 z" id="path28"></path>		<path d="m 559.4,647.3 h -99.2 c -6.8,0 -12.3,-5.5 -12.3,-12.3 v -63 c 0,-6.8 5.5,-12.3 12.3,-12.3 h 99.2 c 6.8,0 12.4,5.5 12.4,12.3 v 62.9 c 0,6.8 -5.6,12.4 -12.4,12.4 z" id="path30"></path>		<path class="st8" d="m 555.2,643.3 h -89.4 c -6.8,0 -12.3,-5.5 -12.3,-12.3 v -63 c 0,-6.8 5.5,-12.3 12.3,-12.3 h 89.4 c 6.8,0 12.3,5.5 12.3,12.3 v 62.9 c 0,6.9 -5.5,12.4 -12.3,12.4 z" id="path32"></path>		<path class="st6" d="m 549.7,643.3 h -89.4 c -6.8,0 -12.3,-5.5 -12.3,-12.3 v -63 c 0,-6.8 5.5,-12.3 12.3,-12.3 h 89.4 c 6.8,0 12.4,5.5 12.4,12.3 v 62.9 c -0.1,6.9 -5.6,12.4 -12.4,12.4 z" id="path34"></path>		<path class="st8" d="m 721.8,764.5 h -85.3 v 0 -17 0 h 100.8 v 0 1.6 c 0,8.5 -6.9,15.4 -15.5,15.4 0.1,0 0,0 0,0 z" id="path36"></path>		<path class="st6" d="M 636.6,764.1 H 65.7 c -8.5,0 -15.4,-6.9 -15.4,-15.4 v -1 0 h 586.3 v 0 z" id="path38"></path>		<path class="st3" d="m 718.4,472.8 h -81.8 v 0 -16.4 0 H 703 c 8.5,0 15.4,6.9 15.4,15.4 z" id="path40"></path>		<path class="st6" d="M 636.6,472.8 H 50.3 v 0 -1 c 0,-8.5 6.9,-15.4 15.4,-15.4 h 570.9 v 0 z" id="path42"></path>		<path class="st9" d="m 510.8,592.1 h -50.3 c -2.6,0 -4.7,-2.1 -4.7,-4.7 v -21 c 0,-2.6 2.1,-4.7 4.7,-4.7 h 50.3 c 2.6,0 4.7,2.1 4.7,4.7 v 21 c 0,2.6 -2.1,4.7 -4.7,4.7 z" id="path44"></path>		<path class="st10" d="m 550.5,613 h -5.3 c -3.5,0 -6.3,-2.8 -6.3,-6.3 v -0.8 c 0,-3.5 2.8,-6.3 6.3,-6.3 h 5.3 c 3.5,0 6.3,2.8 6.3,6.3 v 0.8 c 0.1,3.5 -2.8,6.3 -6.3,6.3 z" id="path46"></path>		<path class="st10" d="m 528.1,613 h -5.3 c -3.5,0 -6.3,-2.8 -6.3,-6.3 v -0.8 c 0,-3.5 2.8,-6.3 6.3,-6.3 h 5.3 c 3.5,0 6.3,2.8 6.3,6.3 v 0.8 c 0,3.5 -2.8,6.3 -6.3,6.3 z" id="path48"></path>		<path class="st10" d="m 505.9,613 h -5.3 c -3.5,0 -6.3,-2.8 -6.3,-6.3 v -0.8 c 0,-3.5 2.8,-6.3 6.3,-6.3 h 5.3 c 3.5,0 6.3,2.8 6.3,6.3 v 0.8 c 0.1,3.5 -2.8,6.3 -6.3,6.3 z" id="path50"></path>		<path class="st10" d="m 550.5,631.5 h -5.3 c -3.5,0 -6.3,-2.8 -6.3,-6.3 v -0.8 c 0,-3.5 2.8,-6.3 6.3,-6.3 h 5.3 c 3.5,0 6.3,2.8 6.3,6.3 v 0.8 c 0.1,3.5 -2.8,6.3 -6.3,6.3 z" id="path52"></path>		<path class="st10" d="m 528.1,631.5 h -5.3 c -3.5,0 -6.3,-2.8 -6.3,-6.3 v -0.8 c 0,-3.5 2.8,-6.3 6.3,-6.3 h 5.3 c 3.5,0 6.3,2.8 6.3,6.3 v 0.8 c 0,3.5 -2.8,6.3 -6.3,6.3 z" id="path54"></path>		<path class="st10" d="m 505.9,631.5 h -5.3 c -3.5,0 -6.3,-2.8 -6.3,-6.3 v -0.8 c 0,-3.5 2.8,-6.3 6.3,-6.3 h 5.3 c 3.5,0 6.3,2.8 6.3,6.3 v 0.8 c 0.1,3.5 -2.8,6.3 -6.3,6.3 z" id="path56"></path>		<path class="st10" d="m 481.1,634.3 h -18 c -3.7,0 -6.8,-3 -6.8,-6.8 v -21.1 c 0,-3.7 3,-6.8 6.8,-6.8 h 18 c 3.7,0 6.8,3 6.8,6.8 v 21.1 c 0,3.7 -3.1,6.8 -6.8,6.8 z" id="path58"></path>		<polyline class="st4" points="65.7,735.7 65.7,738.9 68.9,738.9   " id="polyline60"></polyline>		<line class="st11" x1="75.199997" y1="738.90002" x2="619.29999" y2="738.90002" id="line62"></line>		<polyline class="st4" points="622.5,738.9 625.7,738.9 625.7,735.7   " id="polyline64"></polyline>		<line class="st12" x1="625.70001" y1="729.29999" x2="625.70001" y2="488.89999" id="line66"></line>		<polyline class="st4" points="625.7,485.7 625.7,482.5 622.5,482.5   " id="polyline68"></polyline>		<line class="st11" x1="616.09998" y1="482.5" x2="72.099998" y2="482.5" id="line70"></line>		<polyline class="st4" points="68.9,482.5 65.7,482.5 65.7,485.7   " id="polyline72"></polyline>		<line class="st12" x1="65.699997" y1="492.10001" x2="65.699997" y2="732.5" id="line74"></line>		<polyline class="st13" points="704,698.3 704,480.3 643,480.3 643,739.2 704,739.2 704,727.5   " id="polyline76"></polyline>		<path class="st3" d="m 576.6,343.6 c 17.1,0 27.1,-12.6 27.1,-29.8 0.1,-17.1 -13.7,-31.1 -30.8,-31.2 -12.5,-0.1 -23.9,7.4 -28.7,18.9" id="path78"></path>		<path class="st14" d="m 410.8,314.1 c 0,0.1 0,0.3 0,0.4 V 456.8 H 542.7 V 314.2 l 0.1,-0.1 c 0,-0.1 0,-0.2 0,-0.4 0,-17.1 13.9,-31 31,-31 H 441.9 v 0.3 h -0.1 c -17.1,0.1 -31,13.9 -31,31.1 0,0 0,0 0,0 z" id="path80"></path>		<path class="st3" d="m 577.7,301.3 c -11.7,0 -21.2,9.5 -21.2,21.1 0,0 0,0 0,0 v 0.2 c 0.1,11.6 9.6,20.9 21.2,20.9" id="path82"></path>		<path class="st4" d="m 558,328.8 h 19.2 c 7.6,-0.2 13.6,-6.5 13.4,-14.1 -0.2,-7.3 -6.1,-13.2 -13.4,-13.4 h -32.3" id="path84"></path>		<rect x="395.70001" y="443.10001" class="st8" width="176.39999" height="13.7" id="rect86"></rect>		<rect x="372.79999" y="443.10001" class="st0" width="176.39999" height="13.7" id="rect88"></rect>		<path class="st0" d="m 493.1,364 h -62.5 c -2.3,0 -4.1,-1.8 -4.1,-4.1 v -0.5 c 0,-2.3 1.8,-4.1 4.1,-4.1 h 62.5 c 2.3,0 4.1,1.8 4.1,4.1 v 0.5 c 0.1,2.3 -1.8,4.1 -4.1,4.1 z" id="path90"></path>		<path class="st14" d="m 119.1,565.3 h 71.1 c 5.1,0 9.1,-4.1 9.1,-9.2 v 0 -39 c 0,-5.1 -4.1,-9.2 -9.1,-9.2 h -71.1 c -5.1,0 -9.2,4.1 -9.2,9.1 0,0 0,0 0,0 v 39 c 0,5.2 4.1,9.3 9.2,9.3 0,0 0,0 0,0 z" id="path92"></path>		<path class="st0" d="m 524.8,379.9 h -94.2 c -2.3,0 -4.1,-1.8 -4.1,-4.1 v -0.5 c 0,-2.3 1.8,-4.1 4.1,-4.1 h 94.2 c 2.3,0 4.1,1.8 4.1,4.1 v 0.5 c 0.1,2.2 -1.8,4.1 -4.1,4.1 z" id="path94"></path>		<path class="st0" d="m 493.1,397.8 h -62.5 c -2.3,0 -4.1,-1.8 -4.1,-4.1 v -0.5 c 0,-2.3 1.8,-4.1 4.1,-4.1 h 62.5 c 2.3,0 4.1,1.8 4.1,4.1 v 0.5 c 0.1,2.3 -1.8,4.1 -4.1,4.1 z" id="path96"></path>		<path class="st0" d="m 524.8,413.7 h -94.2 c -2.3,0 -4.1,-1.8 -4.1,-4.1 v -0.5 c 0,-2.3 1.8,-4.1 4.1,-4.1 h 94.2 c 2.3,0 4.1,1.8 4.1,4.1 v 0.5 c 0.1,2.3 -1.8,4.1 -4.1,4.1 z" id="path98"></path>		<path class="st0" d="m 524.8,428.4 h -94.2 c -2.3,0 -4.1,-1.8 -4.1,-4.1 v -0.5 c 0,-2.3 1.8,-4.1 4.1,-4.1 h 94.2 c 2.3,0 4.1,1.8 4.1,4.1 v 0.5 c 0.1,2.3 -1.8,4.1 -4.1,4.1 z" id="path100"></path>		<path class="st0" d="m 466.8,340.4 c -0.1,-0.1 -0.2,-0.3 -0.2,-0.5 v -3.7 c 0,-0.3 0.1,-0.6 0.3,-0.8 0.2,-0.2 0.4,-0.4 0.6,-0.5 l 7.5,-4.9 -7.5,-4.9 c -0.2,-0.2 -0.4,-0.3 -0.6,-0.5 -0.2,-0.2 -0.3,-0.5 -0.3,-0.8 V 320 c 0,-0.2 0.1,-0.4 0.2,-0.5 0.1,-0.1 0.3,-0.2 0.5,-0.2 0.1,0 0.2,0 0.3,0.1 l 0.3,0.2 12.4,8.4 c 0.3,0.2 0.5,0.4 0.7,0.7 0.2,0.2 0.3,0.5 0.3,0.8 v 1.1 c 0,0.3 -0.1,0.6 -0.3,0.8 -0.2,0.3 -0.5,0.5 -0.7,0.7 l -12.4,8.4 -0.3,0.1 c -0.1,0 -0.2,0.1 -0.3,0.1 -0.2,-0.1 -0.4,-0.2 -0.5,-0.3 z" id="path102"></path>		<path class="st0" d="m 459.9,343.7 c -0.3,0 -0.6,-0.1 -0.8,-0.3 -0.2,-0.2 -0.3,-0.3 -0.4,-0.5 l -11.7,-28 c 0,-0.1 -0.1,-0.2 -0.1,-0.3 0,-0.2 0.1,-0.4 0.2,-0.5 0.1,-0.1 0.3,-0.2 0.5,-0.2 h 3.1 c 0.3,0 0.6,0.1 0.8,0.3 0.2,0.2 0.3,0.3 0.4,0.5 l 11.6,28 c 0.1,0.1 0.1,0.2 0.1,0.4 0,0.2 -0.1,0.4 -0.2,0.5 -0.1,0.1 -0.3,0.2 -0.5,0.2 z" id="path104"></path>		<path class="st0" d="m 443.1,340.5 -0.3,-0.1 -12.4,-8.4 c -0.3,-0.2 -0.5,-0.4 -0.8,-0.7 -0.2,-0.2 -0.3,-0.5 -0.2,-0.8 v -1 c 0,-0.3 0.1,-0.6 0.2,-0.9 0.2,-0.3 0.5,-0.5 0.8,-0.7 l 12.4,-8.4 0.3,-0.2 c 0.1,0 0.2,-0.1 0.3,-0.1 0.2,0 0.4,0.1 0.5,0.2 0.1,0.1 0.2,0.3 0.2,0.5 v 3.7 c 0,0.3 -0.1,0.6 -0.3,0.8 -0.2,0.2 -0.4,0.4 -0.6,0.5 l -7.5,4.9 7.5,5 c 0.2,0.1 0.4,0.3 0.6,0.5 0.2,0.2 0.3,0.5 0.3,0.8 v 3.7 c 0,0.2 -0.1,0.4 -0.2,0.5 -0.1,0.1 -0.3,0.2 -0.5,0.2 -0.1,0.1 -0.2,0.1 -0.3,0 z" id="path106"></path>		<path class="st0" d="m 187.8,527.3 h -62 c -1.7,0 -3,-1.4 -3,-3 v -0.4 c 0,-1.7 1.4,-3 3,-3 h 62 c 1.7,0 3,1.4 3,3 v 0.4 c 0,1.6 -1.3,3 -3,3 z" id="path108"></path>		<path class="st0" d="m 187.8,539.6 h -62 c -1.7,0 -3,-1.4 -3,-3 v -0.4 c 0,-1.7 1.4,-3 3,-3 h 62 c 1.7,0 3,1.4 3,3 v 0.4 c 0,1.6 -1.3,3 -3,3 z" id="path110"></path>		<path class="st0" d="m 187.8,551.9 h -30.3 c -1.7,0 -3,-1.4 -3,-3 v -0.4 c 0,-1.7 1.4,-3 3,-3 h 30.3 c 1.7,0 3,1.4 3,3 v 0.4 c 0,1.7 -1.3,3 -3,3 z" id="path112"></path>		<path class="st14" d="m 119.1,683.7 h 71.1 c 5.1,0 9.1,-4.1 9.1,-9.2 v 0 -59.4 c 0,-5.1 -4.1,-9.2 -9.1,-9.2 v 0 h -71.1 c -5.1,0 -9.2,4.1 -9.2,9.2 v 0 59.4 c 0,5.1 4.1,9.2 9.2,9.2 0,0 0,0 0,0 z" id="path114"></path>		<path class="st0" d="m 186.5,621.8 h -62 c -1.7,0 -3,-1.4 -3,-3 v -0.4 c 0,-1.7 1.4,-3 3,-3 h 62 c 1.7,0 3,1.4 3,3 v 0.4 c 0,1.7 -1.4,3 -3,3 z" id="path116"></path>		<path class="st0" d="m 186.5,634.1 h -62 c -1.7,0 -3,-1.4 -3,-3 v -0.4 c 0,-1.7 1.4,-3 3,-3 h 62 c 1.7,0 3,1.4 3,3 v 0.4 c 0,1.7 -1.4,3 -3,3 z" id="path118"></path>		<path class="st0" d="m 186.5,646.4 h -62 c -1.7,0 -3,-1.4 -3,-3 V 643 c 0,-1.7 1.4,-3 3,-3 h 62 c 1.7,0 3,1.4 3,3 v 0.4 c 0,1.7 -1.4,3 -3,3 z" id="path120"></path>		<path class="st0" d="m 186.5,658.8 h -62 c -1.7,0 -3,-1.4 -3,-3 v -0.4 c 0,-1.7 1.4,-3 3,-3 h 62 c 1.7,0 3,1.4 3,3 v 0.4 c 0,1.6 -1.4,3 -3,3 z" id="path122"></path>		<path class="st0" d="m 186.5,671.1 h -35.9 c -1.7,0 -3,-1.4 -3,-3 v -0.4 c 0,-1.7 1.4,-3 3,-3 h 35.9 c 1.7,0 3,1.4 3,3 v 0.4 c 0,1.6 -1.4,3 -3,3 z" id="path124"></path>		<path class="st4" d="m 155.5,683.7 v 7.6 c 0,2.8 2.2,5 5,5 0,0 0,0 0.1,0 h 80 c 2.8,0 5,-2.2 5,-4.9 0,0 0,0 0,-0.1" id="path126"></path>		<polyline class="st4" points="314.1,518 314.1,498.8 175.6,498.8 175.6,508   " id="polyline128"></polyline>		<path class="st14" d="m 355.9,567.1 v 105.2 c -0.1,9.4 -7.9,16.9 -17.3,16.8 H 237.4 c -9.4,0.1 -17.2,-7.4 -17.3,-16.8 0,0 0,0 0,0 V 533.5 c 0.1,-9.4 7.9,-17 17.3,-16.8 h 69.5 c 2.1,0 4.2,0.9 5.7,2.4 l 19.8,20.4 21.4,22.5 c 1.3,1.3 2,3.2 2.1,5.1 z" id="path130"></path>		<path class="st14" d="m 351.4,567.1 v 105.2 c -0.1,9.4 -7.9,16.9 -17.3,16.8 H 233 c -9.4,0.1 -17.2,-7.4 -17.3,-16.8 0,0 0,0 0,0 V 533.5 c 0.1,-9.4 7.9,-17 17.3,-16.8 h 69.5 c 2.1,0 4.2,0.9 5.7,2.4 l 19.8,20.4 21.4,22.5 c 1.2,1.3 2,3.2 2,5.1 z" id="path132"></path>		<path class="st14" d="m 354.8,568.4 h -45.6 c -1.5,0 -2.8,-1.2 -2.8,-2.7 0,0 0,0 0,0 v -47.6 c 0,-1.6 1.3,-2.8 2.9,-2.8 0.8,0 1.5,0.3 2,0.9 l 21.8,22.5 23.9,25.1 c 1,1.1 1,2.8 -0.1,3.9 -0.7,0.4 -1.4,0.7 -2.1,0.7 z" id="path134"></path>		<path class="st15" d="M 215.7,593.7 H 328 c 3.5,0 6.3,2.8 6.3,6.3 v 56 c 0,3.5 -2.8,6.3 -6.3,6.3 H 215.7 c -3.5,0 -6.3,-2.8 -6.3,-6.3 v -56 c 0,-3.5 2.8,-6.3 6.3,-6.3 z" id="path136"></path>		<ellipse class="st16" cx="278.5" cy="662.20001" rx="58.400002" ry="5.5999999" id="ellipse138"></ellipse>		<ellipse class="st16" cx="285.79999" cy="689.29999" rx="80.099998" ry="2.8" id="ellipse140"></ellipse>		<ellipse class="st17" cx="276.10001" cy="598.70001" rx="55.900002" ry="2.8" id="ellipse142"></ellipse>		<rect x="54.700001" y="456.79999" class="st17" width="653.79999" height="3" id="rect144"></rect>		<rect x="64.599998" y="747.70001" class="st17" width="653.79999" height="3" id="rect146"></rect>		<rect x="56.5" y="755.79999" class="st18" width="653.79999" height="7.5999999" id="rect148"></rect>		<rect x="54.700001" y="470.10001" class="st5" width="663.70001" height="3" id="rect150"></rect>		<path class="st17" d="m 551.4,604.1 h -6.8 c -1,0 -1.8,-0.8 -1.8,-1.8 v -0.2 c 0,-1 0.8,-1.8 1.8,-1.8 h 6.8 c 1,0 1.8,0.8 1.8,1.8 v 0.2 c 0,1 -0.8,1.8 -1.8,1.8 z" id="path152"></path>		<path class="st5" d="M 381.6,495.2 H 110.1 c -1,0 -1.8,-0.8 -1.8,-1.8 v -0.2 c 0,-1 0.8,-1.8 1.8,-1.8 h 271.5 c 1,0 1.8,0.8 1.8,1.8 v 0.2 c 0,1 -0.8,1.8 -1.8,1.8 z" id="path154"></path>		<path class="st5" d="M 381.6,705.1 H 110.1 c -1,0 -1.8,-0.8 -1.8,-1.8 v -0.2 c 0,-1 0.8,-1.8 1.8,-1.8 h 271.5 c 1,0 1.8,0.8 1.8,1.8 v 0.2 c 0,1 -0.8,1.8 -1.8,1.8 z" id="path156"></path>		<path class="st17" d="m 551.4,621.8 h -6.8 c -1,0 -1.8,-0.8 -1.8,-1.8 v -0.2 c 0,-1 0.8,-1.8 1.8,-1.8 h 6.8 c 1,0 1.8,0.8 1.8,1.8 v 0.2 c 0,1 -0.8,1.8 -1.8,1.8 z" id="path158"></path>		<path class="st17" d="M 528.8,604.1 H 522 c -1,0 -1.8,-0.8 -1.8,-1.8 v -0.2 c 0,-1 0.8,-1.8 1.8,-1.8 h 6.8 c 1,0 1.8,0.8 1.8,1.8 v 0.2 c 0,1 -0.8,1.8 -1.8,1.8 z" id="path160"></path>		<path class="st17" d="M 528.8,621.8 H 522 c -1,0 -1.8,-0.8 -1.8,-1.8 v -0.2 c 0,-1 0.8,-1.8 1.8,-1.8 h 6.8 c 1,0 1.8,0.8 1.8,1.8 v 0.2 c 0,1 -0.8,1.8 -1.8,1.8 z" id="path162"></path>		<path class="st17" d="m 506.7,604.1 h -6.8 c -1,0 -1.8,-0.8 -1.8,-1.8 v -0.2 c 0,-1 0.8,-1.8 1.8,-1.8 h 6.8 c 1,0 1.8,0.8 1.8,1.8 v 0.2 c -0.1,1 -0.9,1.8 -1.8,1.8 z" id="path164"></path>		<path class="st17" d="m 479.9,604.1 h -14.5 c -1,0 -1.8,-0.8 -1.8,-1.8 v -0.2 c 0,-1 0.8,-1.8 1.8,-1.8 h 14.5 c 1,0 1.8,0.8 1.8,1.8 v 0.2 c 0,1 -0.8,1.8 -1.8,1.8 z" id="path166"></path>		<path class="st17" d="m 506.7,621.8 h -6.8 c -1,0 -1.8,-0.8 -1.8,-1.8 v -0.2 c 0,-1 0.8,-1.8 1.8,-1.8 h 6.8 c 1,0 1.8,0.8 1.8,1.8 v 0.2 c -0.1,1 -0.9,1.8 -1.8,1.8 z" id="path168"></path>		<path class="st5" d="m 551.4,612.9 h -6.8 c -1,0 -1.8,-0.8 -1.8,-1.8 V 611 c 0,-1 0.8,-1.8 1.8,-1.8 h 6.8 c 1,0 1.8,0.8 1.8,1.8 v 0.2 c 0,0.9 -0.8,1.7 -1.8,1.7 z" id="path170"></path>		<path class="st5" d="m 551.4,630.7 h -6.8 c -1,0 -1.8,-0.8 -1.8,-1.8 v -0.2 c 0,-1 0.8,-1.8 1.8,-1.8 h 6.8 c 1,0 1.8,0.8 1.8,1.8 v 0.2 c 0,1 -0.8,1.8 -1.8,1.8 z" id="path172"></path>		<path class="st5" d="M 528.8,612.9 H 522 c -1,0 -1.8,-0.8 -1.8,-1.8 V 611 c 0,-1 0.8,-1.8 1.8,-1.8 h 6.8 c 1,0 1.8,0.8 1.8,1.8 v 0.2 c 0,0.9 -0.8,1.7 -1.8,1.7 z" id="path174"></path>		<path class="st5" d="M 528.8,630.7 H 522 c -1,0 -1.8,-0.8 -1.8,-1.8 v -0.2 c 0,-1 0.8,-1.8 1.8,-1.8 h 6.8 c 1,0 1.8,0.8 1.8,1.8 v 0.2 c 0,1 -0.8,1.8 -1.8,1.8 z" id="path176"></path>		<path class="st5" d="m 506.7,612.9 h -6.8 c -1,0 -1.8,-0.8 -1.8,-1.8 V 611 c 0,-1 0.8,-1.8 1.8,-1.8 h 6.8 c 1,0 1.8,0.8 1.8,1.8 v 0.2 c -0.1,0.9 -0.9,1.7 -1.8,1.7 z" id="path178"></path>		<path class="st5" d="m 482.6,634.5 h -21.1 c -1,0 -1.8,-0.8 -1.8,-1.8 v -0.2 c 0,-1 0.8,-1.8 1.8,-1.8 h 21.1 c 1,0 1.8,0.8 1.8,1.8 v 0.2 c 0,1 -0.8,1.8 -1.8,1.8 z" id="path180"></path>		<path class="st5" d="m 506.7,630.7 h -6.8 c -1,0 -1.8,-0.8 -1.8,-1.8 v -0.2 c 0,-1 0.8,-1.8 1.8,-1.8 h 6.8 c 1,0 1.8,0.8 1.8,1.8 v 0.2 c -0.1,1 -0.9,1.8 -1.8,1.8 z" id="path182"></path>		<rect x="116.4" y="450.39999" class="st5" width="57.900002" height="6.5" id="rect184"></rect>		<rect x="373.79999" y="452.20001" class="st5" width="198.3" height="4.0999999" id="rect186"></rect>		<polygon class="st19" points="553.5,288.7 562.7,283.7 436.4,283.7 423.9,288.7 " id="polygon188"></polygon>		<rect x="372.79999" y="443.10001" class="st20" width="199.3" height="3.2" id="rect190"></rect>		<path class="st17" d="M 559.7,559.1 H 455.8 c -0.7,0 -1.3,-0.6 -1.3,-1.3 v -0.2 c 0,-0.7 0.6,-1.3 1.3,-1.3 h 103.9 c 0.7,0 1.4,0.6 1.4,1.3 v 0.2 c -0.1,0.7 -0.7,1.3 -1.4,1.3 z" id="path192"></path>					<ellipse transform="matrix(0.9601,-0.2797,0.2797,0.9601,-101.7592,59.787)" class="st21" cx="158.60001" cy="386.5" rx="9.6000004" ry="17.200001" id="ellipse194"></ellipse>		<g class="st22" id="g200">			<path class="st23" d="m 243.1,642.7 c -2,0 -3.7,-0.3 -5.1,-0.9 -1.4,-0.6 -2.4,-1.4 -3.2,-2.4 -0.7,-1 -1.1,-2 -1.2,-3.1 0,-0.2 0.1,-0.4 0.2,-0.5 0.2,-0.2 0.3,-0.2 0.5,-0.2 h 1.8 c 0.3,0 0.5,0.1 0.6,0.2 0.1,0.1 0.2,0.3 0.3,0.5 0.1,0.6 0.4,1.1 0.9,1.7 0.4,0.5 1.1,1 1.9,1.4 0.8,0.4 1.9,0.5 3.2,0.5 2,0 3.5,-0.4 4.4,-1.1 0.9,-0.7 1.4,-1.7 1.4,-2.8 0,-0.8 -0.2,-1.5 -0.7,-2 -0.5,-0.5 -1.3,-0.9 -2.3,-1.3 -1,-0.4 -2.3,-0.8 -4,-1.3 -1.7,-0.5 -3.1,-1 -4.2,-1.6 -1.1,-0.6 -1.9,-1.3 -2.5,-2.2 -0.5,-0.9 -0.8,-2 -0.8,-3.3 0,-1.3 0.3,-2.4 1,-3.4 0.7,-1 1.6,-1.8 2.9,-2.4 1.3,-0.6 2.8,-0.9 4.6,-0.9 1.4,0 2.7,0.2 3.8,0.6 1.1,0.4 2,0.9 2.7,1.5 0.7,0.6 1.3,1.3 1.6,2.1 0.4,0.7 0.6,1.4 0.6,2.1 0,0.2 -0.1,0.3 -0.2,0.5 -0.1,0.2 -0.3,0.2 -0.6,0.2 H 249 c -0.2,0 -0.3,0 -0.5,-0.1 -0.2,-0.1 -0.3,-0.3 -0.4,-0.5 -0.1,-1 -0.7,-1.8 -1.6,-2.4 -0.9,-0.7 -2.1,-1 -3.6,-1 -1.5,0 -2.7,0.3 -3.7,0.9 -0.9,0.6 -1.4,1.5 -1.4,2.7 0,0.8 0.2,1.4 0.7,2 0.4,0.5 1.1,1 2.1,1.4 1,0.4 2.2,0.8 3.7,1.3 1.9,0.5 3.4,1.1 4.6,1.6 1.2,0.6 2.1,1.3 2.6,2.1 0.6,0.8 0.9,1.9 0.9,3.3 0,1.5 -0.4,2.7 -1.2,3.7 -0.8,1 -1.8,1.8 -3.2,2.4 -1.4,0.6 -3,0.7 -4.9,0.7 z" id="path196"></path>			<path class="st23" d="m 257.7,642.3 c -0.3,0 -0.5,-0.1 -0.6,-0.2 -0.1,-0.2 -0.2,-0.3 -0.2,-0.6 v -22.8 c 0,-0.3 0.1,-0.5 0.2,-0.6 0.1,-0.2 0.3,-0.2 0.6,-0.2 h 7.9 c 2.4,0 4.3,0.4 5.8,1.1 1.5,0.7 2.5,1.8 3.2,3.2 0.7,1.4 1,3.1 1,5.2 0,1 0,2 0,2.8 0,0.8 0,1.7 0,2.7 0,2.1 -0.4,3.9 -1.1,5.3 -0.7,1.4 -1.7,2.5 -3.1,3.1 -1.4,0.6 -3.3,1 -5.7,1 z m 2.6,-3 h 5.3 c 1.6,0 2.9,-0.2 3.8,-0.7 1,-0.4 1.6,-1.2 2.1,-2.1 0.4,-1 0.7,-2.3 0.7,-3.9 0,-0.7 0.1,-1.3 0.1,-1.8 0,-0.5 0,-1 0,-1.6 0,-0.5 0,-1.1 -0.1,-1.8 0,-2.3 -0.6,-3.9 -1.6,-5 -1,-1.1 -2.7,-1.6 -5.2,-1.6 h -5.1 z" id="path198"></path>		</g>		<g class="st22" id="g204">			<path class="st23" d="m 281.7,642.3 c -0.3,0 -0.5,-0.1 -0.6,-0.2 -0.1,-0.2 -0.2,-0.3 -0.2,-0.6 v -22.8 c 0,-0.3 0.1,-0.5 0.2,-0.6 0.1,-0.2 0.3,-0.2 0.6,-0.2 h 1.7 c 0.3,0 0.5,0.1 0.6,0.2 0.2,0.2 0.2,0.4 0.2,0.6 v 8.6 l 9.3,-8.9 c 0.1,-0.1 0.2,-0.2 0.5,-0.3 0.2,-0.1 0.5,-0.2 0.9,-0.2 h 1.9 c 0.2,0 0.3,0.1 0.5,0.2 0.1,0.1 0.2,0.3 0.2,0.5 0,0.2 0,0.3 -0.1,0.5 l -10.8,10.5 11.5,11.5 c 0.1,0.1 0.2,0.3 0.2,0.5 0,0.2 -0.1,0.3 -0.2,0.5 -0.1,0.1 -0.3,0.2 -0.5,0.2 h -2 c -0.4,0 -0.7,-0.1 -0.9,-0.2 -0.2,-0.1 -0.4,-0.3 -0.5,-0.4 l -10,-9.8 v 9.6 c 0,0.2 -0.1,0.4 -0.2,0.6 -0.2,0.2 -0.4,0.2 -0.6,0.2 z" id="path202"></path>		</g>		<path class="st17" d="m 31.9,765.4 h 961.3 c 1.9,0 3.4,1.5 3.4,3.4 v 0.4 c 0,1.9 -1.5,3.4 -3.4,3.4 H 31.9 c -1.9,0 -3.4,-1.5 -3.4,-3.4 v -0.4 c 0,-1.9 1.5,-3.4 3.4,-3.4 z" id="path206"></path>		<path class="st5" d="m 31.9,787.4 h 961.3 c 1.9,0 3.4,1.5 3.4,3.4 v 0.4 c 0,1.9 -1.5,3.4 -3.4,3.4 H 31.9 c -1.9,0 -3.4,-1.5 -3.4,-3.4 v -0.4 c 0,-1.8 1.5,-3.4 3.4,-3.4 z" id="path208"></path>		<path class="st8" d="m 654.5,487.1 h 37.8 c 3.5,0 6.4,2.9 6.4,6.4 v 264.4 c 0,3.5 -2.9,6.4 -6.4,6.4 h -37.8 c -3.5,0 -6.4,-2.9 -6.4,-6.4 V 493.4 c 0.1,-3.5 2.9,-6.3 6.4,-6.3 z" id="path210"></path>		<g id="g304">			<defs id="defs213">				<rect id="SVGID_1_" x="650.79999" y="502.20001" width="312.70001" height="263.20001"></rect>			</defs>			<clipPath id="SVGID_2_">				<use xlink:href="#SVGID_1_" style="overflow:visible" id="use215" x="0" y="0" width="100%" height="100%"></use>			</clipPath>			<g class="st24" clip-path="url(#SVGID_2_)" id="g302">				<rect x="651.90002" y="651.5" class="st8" width="119.3" height="112.2" id="rect218"></rect>				<rect x="765" y="651.5" class="st25" width="12.4" height="112.2" id="rect220"></rect>				<rect x="765.20001" y="651.5" class="st26" width="5.4000001" height="112.2" id="rect222"></rect>				<rect x="654" y="651.5" class="st8" width="125" height="14.3" id="rect224"></rect>				<rect x="629.29999" y="651.5" class="st6" width="119.3" height="112.2" id="rect226"></rect>				<rect x="631.79999" y="651.5" class="st8" width="12.4" height="112.2" id="rect228"></rect>				<rect x="625.5" y="651.5" class="st6" width="12.4" height="112.2" id="rect230"></rect>				<rect x="736.20001" y="651.5" class="st8" width="12.4" height="112.2" id="rect232"></rect>				<rect x="730.5" y="651.5" class="st3" width="12.4" height="112.2" id="rect234"></rect>				<rect x="623.59998" y="651.5" class="st3" width="125" height="14.3" id="rect236"></rect>				<rect x="654" y="751.20001" class="st8" width="125" height="14.3" id="rect238"></rect>				<rect x="623.59998" y="751.20001" class="st3" width="125" height="14.3" id="rect240"></rect>				<circle class="st0" cx="686" cy="707.40002" r="29.299999" id="circle242"></circle>				<circle class="st14" cx="680" cy="707.5" r="29.299999" id="circle244"></circle>				<rect x="788.90002" y="651.29999" class="st8" width="119.3" height="112.2" id="rect246"></rect>				<rect x="902" y="651.29999" class="st8" width="12.4" height="112.2" id="rect248"></rect>				<rect x="902.20001" y="651.29999" class="st6" width="5.4000001" height="112.2" id="rect250"></rect>				<rect x="790.90002" y="651.29999" class="st8" width="125" height="14.3" id="rect252"></rect>				<rect x="766.20001" y="651.29999" class="st6" width="119.3" height="112.2" id="rect254"></rect>				<rect x="768.70001" y="651.29999" class="st8" width="12.4" height="112.2" id="rect256"></rect>				<rect x="762.5" y="651.29999" class="st3" width="12.4" height="112.2" id="rect258"></rect>				<rect x="873.20001" y="651.29999" class="st8" width="12.4" height="112.2" id="rect260"></rect>				<rect x="867.5" y="651.29999" class="st3" width="12.4" height="112.2" id="rect262"></rect>				<rect x="760.59998" y="651.29999" class="st3" width="125" height="14.3" id="rect264"></rect>				<rect x="790.90002" y="751" class="st8" width="125" height="14.3" id="rect266"></rect>				<rect x="760.59998" y="751" class="st3" width="125" height="14.3" id="rect268"></rect>				<circle class="st0" cx="823" cy="707.20001" r="29.299999" id="circle270"></circle>				<circle class="st14" cx="817" cy="707.29999" r="29.299999" id="circle272"></circle>				<rect x="703" y="536" class="st8" width="119.3" height="112.2" id="rect274"></rect>				<rect x="816.20001" y="536" class="st8" width="12.4" height="112.2" id="rect276"></rect>				<rect x="816.29999" y="536" class="st6" width="5.4000001" height="112.2" id="rect278"></rect>				<rect x="705.09998" y="536" class="st8" width="125" height="14.3" id="rect280"></rect>				<rect x="680.40002" y="536" class="st6" width="119.3" height="112.2" id="rect282"></rect>				<rect x="682.90002" y="536" class="st8" width="12.4" height="112.2" id="rect284"></rect>				<rect x="676.70001" y="536" class="st3" width="12.4" height="112.2" id="rect286"></rect>				<rect x="787.29999" y="536" class="st8" width="12.4" height="112.2" id="rect288"></rect>				<rect x="781.59998" y="536" class="st3" width="12.4" height="112.2" id="rect290"></rect>				<rect x="674.79999" y="536" class="st3" width="125" height="14.3" id="rect292"></rect>				<rect x="705.09998" y="635.70001" class="st8" width="125" height="14.3" id="rect294"></rect>				<rect x="674.79999" y="635.70001" class="st3" width="125" height="14.3" id="rect296"></rect>				<circle class="st0" cx="741.70001" cy="591.90002" r="29.299999" id="circle298"></circle>				<circle class="st6" cx="735.70001" cy="592.09998" r="29.299999" id="circle300"></circle>			</g>		</g>		<rect x="648.09998" y="650.79999" class="st27" width="4.0999999" height="114.5" id="rect306"></rect>		<rect x="654" y="759.59998" class="st5" width="264.39999" height="5" id="rect308"></rect>		<rect x="676.70001" y="645" class="st5" width="153.39999" height="5" id="rect310"></rect>		<rect x="676.70001" y="634.79999" class="st17" width="153.39999" height="5" id="rect312"></rect>		<rect x="676.70001" y="546.40002" class="st5" width="153.39999" height="5" id="rect314"></rect>		<rect x="676.70001" y="551.29999" class="st5" width="153.39999" height="5" id="rect316"></rect>		<rect x="676.70001" y="536.20001" class="st17" width="153.39999" height="5" id="rect318"></rect>		<rect x="650.5" y="652.59998" class="st17" width="265.39999" height="4.3000002" id="rect320"></rect>		<rect x="650.5" y="751.5" class="st17" width="265.39999" height="4.3000002" id="rect322"></rect>		<rect x="650.5" y="660.20001" class="st5" width="265.39999" height="9.1999998" id="rect324"></rect>		<rect x="801.20001" y="693.70001" class="st28" width="13.1" height="13.1" id="rect326"></rect>		<rect x="816.79999" y="693.70001" class="st28" width="13.1" height="13.1" id="rect328"></rect>		<rect x="801.20001" y="708.79999" class="st28" width="13.1" height="13.1" id="rect330"></rect>		<rect x="816.79999" y="708.79999" class="st28" width="13.1" height="13.1" id="rect332"></rect>		<rect x="57.5" y="473" class="st29" width="652.79999" height="7.3000002" id="rect334"></rect>		<path class="st30" d="m 729.8,591.8 c 0,0 -1.1,0.6 0.8,0.9 2,0.3 4,0.2 5.9,-0.2 0.5,0.3 1,0.6 1.6,0.8 -5.7,2.3 -12.7,-0.3 -8.3,-1.5 z m -0.7,-3.1 c 0,0 -1.2,0.9 0.6,1.1 2.5,0.3 5.1,0.2 7.6,-0.3 0.3,0.3 0.7,0.6 1.2,0.7 -6.7,1.9 -14.2,0 -9.4,-1.5 z" id="path336"></path>		<path class="st30" d="m 734.9,583.5 c 0.7,0.9 0.6,2.2 -0.3,2.9 0,0 -0.1,0 -0.1,0.1 0,0 3.5,-1.8 1.9,-4 -1.6,-2.2 -2.6,-3.2 3.7,-6.7 0,0 -9.8,2.3 -5.2,7.7 z" id="path338"></path>		<path class="st30" d="m 742.2,594.3 c 0,0 0.8,0.7 -0.9,1.2 -3.2,0.9 -13.4,1.1 -16.2,-0.2 -1,-0.5 0.9,-1 1.5,-1.2 0.3,-0.1 0.7,-0.1 1,-0.1 -1.1,-0.8 -7.3,1.5 -3.2,2.2 11.3,2 20.7,-0.5 17.8,-1.9 z m -11.8,-8.8 c 0,0 -5.2,1.2 -1.9,1.7 2.3,0.2 4.6,0.2 6.8,0 2.1,-0.2 4.3,-0.5 4.3,-0.5 -0.5,0.2 -0.9,0.4 -1.3,0.7 -5.3,1.3 -15.4,0.5 -12.5,-0.8 1.5,-0.8 3,-1.2 4.6,-1.1 z m 9.2,5.3 c 5.4,-2.7 2.9,-5.4 1.2,-5.1 -0.2,0 -0.4,0.1 -0.6,0.2 0.1,-0.2 0.3,-0.3 0.5,-0.3 3.4,-1.2 6,3.6 -1.2,5.4 0,-0.1 0,-0.2 0.1,-0.2 z" id="path340"></path>		<path class="st30" d="m 736.6,569.9 c 0,0 2.9,3 -2.9,7.5 -4.7,3.6 -1.1,5.7 -0.1,8.1 -2.7,-2.5 -4.6,-4.6 -3.3,-6.6 2,-3 7.5,-4.3 6.3,-9 z" id="path342"></path>		<path class="st30" d="m 730.7,598.2 c 5.1,0.4 13,0 13.2,-2.4 0,0 -0.4,0.9 -4.2,1.6 -4.3,0.7 -8.7,0.7 -13,0 0,-0.1 0.6,0.5 4,0.8 z" id="path344"></path>		<path class="st30" d="m 743.6,602.7 h -0.2 v -0.1 h 0.4 v 0.1 h -0.2 v 0.4 h -0.1 z m 0.8,0 v 0 l -0.2,0.4 h -0.1 l -0.2,-0.4 v 0 0.4 h 0.1 v -0.5 h 0.2 l 0.1,0.4 0.2,-0.4 h 0.2 v 0.5 h -0.1 z m -14.6,4.7 c -0.4,0.4 -0.9,0.6 -1.5,0.6 -0.5,0 -1,-0.3 -1,-0.9 0,0 0,-0.1 0,-0.1 0,-0.7 0.4,-1.2 1.9,-1.2 h 0.6 z m 1.3,1.5 0.1,-4.7 c 0,-1.2 -0.7,-2 -2.3,-2 -0.9,0 -1.7,0.2 -2.5,0.5 l 0.2,0.8 c 0.6,-0.2 1.3,-0.3 1.9,-0.3 1,0 1.3,0.4 1.3,1.2 v 0.6 h -0.5 c -2.3,0 -3.3,0.8 -3.3,2.2 0,1.2 0.7,1.8 1.9,1.8 0.7,0 1.5,-0.3 2,-0.8 l 0.1,0.7 z m 4.4,0.1 h -1.7 l -1.9,-6.5 h 1.5 l 1.2,4 0.3,1.2 c 0.6,-1.7 1.1,-3.4 1.4,-5.2 h 1.4 c -0.5,2.2 -1.2,4.4 -2.2,6.5 z m 6.4,-1.4 c -0.4,0.4 -0.9,0.6 -1.5,0.6 -0.5,0 -1,-0.3 -1,-0.8 0,-0.1 0,-0.1 0,-0.2 0,-0.7 0.4,-1.2 1.9,-1.2 h 0.6 z m 1.3,1.5 0.1,-4.7 c 0,-1.2 -0.7,-2 -2.3,-2 -0.9,0 -1.7,0.2 -2.5,0.5 l 0.2,0.8 c 0.6,-0.2 1.3,-0.4 1.9,-0.4 0.9,0 1.3,0.4 1.3,1.2 v 0.6 h -0.5 c -2.3,0 -3.3,0.8 -3.4,2.2 0,1.2 0.7,1.8 1.9,1.8 0.7,0 1.5,-0.3 2,-0.8 l 0.1,0.7 z m -18.7,0.8 c -0.4,0.6 -1,1 -1.7,1.2 l -0.6,-0.8 c 0.5,-0.2 0.9,-0.6 1.2,-1.1 0.2,-0.6 0.3,-1.2 0.3,-1.9 l 0.1,-7.4 h 1.4 l -0.1,7.3 c 0,1.1 -0.2,2 -0.6,2.7 z" id="path346"></path>		<g id="layer1">			<g id="g1894">				<path id="path8615" class="st28" d="m 679.9,685.9 c -11,0 -10.3,4.8 -10.3,4.8 v 5 H 680 v 1.5 h -14.7 c 0,0 -7,-0.8 -7,10.3 0,11.1 6.2,10.7 6.2,10.7 h 3.7 V 713 c 0,0 -0.2,-6.2 6.1,-6.2 h 10.4 c 0,0 5.9,0.1 5.9,-5.7 v -9.5 c -0.1,0.1 0.8,-5.7 -10.7,-5.7 z m -5.8,3.4 c 1,0 1.9,0.8 1.9,1.9 0,1 -0.8,1.9 -1.9,1.9 -1,0 -1.9,-0.8 -1.9,-1.9 0,-1.1 0.8,-1.9 1.9,-1.9 z"></path>				<path id="path8620" class="st28" d="m 680.2,729.1 c 11,0 10.3,-4.8 10.3,-4.8 v -4.9 H 680 v -1.5 h 14.7 c 0,0 7,0.8 7,-10.3 0,-11.1 -6.2,-10.7 -6.2,-10.7 h -3.7 v 5.1 c 0,0 0.2,6.2 -6,6.2 h -10.5 c 0,0 -5.8,-0.1 -5.8,5.7 v 9.5 c 0.1,-0.1 -0.8,5.7 10.7,5.7 z m 5.8,-3.3 c -1,0 -1.9,-0.8 -1.9,-1.9 0,-1 0.8,-1.9 1.9,-1.9 1,0 1.9,0.8 1.9,1.9 0,1 -0.9,1.8 -1.9,1.9 z"></path>			</g>		</g>	</g></g></svg>