<svg xmlns:inkscape="http://www.inkscape.org/namespaces/inkscape" xmlns:sodipodi="http://sodipodi.sourceforge.net/DTD/sodipodi-0.dtd" xmlns="http://www.w3.org/2000/svg" xmlns:svg="http://www.w3.org/2000/svg" id="Layer_1" x="0px" y="0px" viewBox="0 0 1024 594" xml:space="preserve" sodipodi:docname="CGaaS_CodeGen.svg" inkscape:version="1.1.2 (0a00cf5339, 2022-02-04, custom)" width="1024" height="594"><defs id="defs358"><style id="style1896">.cls-1{isolation:isolate;}.cls-2{opacity:0.1;}.cls-14,.cls-2,.cls-7{mix-blend-mode:overlay;}.cls-3{fill:#9caab8;}.cls-3,.cls-8{stroke:#031439;}.cls-10,.cls-11,.cls-12,.cls-3,.cls-4,.cls-5,.cls-6,.cls-8,.cls-9{stroke-miterlimit:10;stroke-width:2px;}.cls-13,.cls-4,.cls-8{fill:#24313e;}.cls-4{stroke:#f5f7f9;}.cls-5{fill:#455666;}.cls-11,.cls-12,.cls-5,.cls-6,.cls-9{stroke:#24313e;}.cls-14,.cls-6,.cls-7{fill:#ebf0f5;}.cls-7{opacity:0.21;}.cls-9{fill:#0c7ff2;}.cls-10{fill:#fff;stroke:#000;}.cls-11{fill:#3ab2d0;}.cls-12{fill:#f5f7f9;}.cls-13{opacity:0.24;mix-blend-mode:multiply;}</style></defs><style type="text/css" id="style2">	.st0{fill:#6B7E8F;stroke:#24313E;stroke-width:2;stroke-miterlimit:10;}	.st1{fill:#9CAAB8;stroke:#031439;stroke-width:2;stroke-miterlimit:10;}	.st2{opacity:0.14;enable-background:new    ;}	.st3{fill:#CCCFD4;stroke:#031439;stroke-width:2;stroke-miterlimit:10;}	.st4{fill:none;stroke:#24313E;stroke-width:2;stroke-miterlimit:10;}	.st5{opacity:0.38;enable-background:new    ;}	.st6{fill:#EBF0F5;stroke:#031439;stroke-width:2;stroke-miterlimit:10;}	.st7{fill:#3AB2D0;stroke:#24313E;stroke-width:2;stroke-miterlimit:10;}	.st8{fill:#455666;stroke:#24313E;stroke-width:2;stroke-miterlimit:10;}	.st9{fill:#0C7FF2;stroke:#24313E;stroke-width:2;stroke-miterlimit:10;}	.st10{fill:#0062FF;stroke:#031439;stroke-width:2;stroke-miterlimit:10;}	.st11{fill:none;stroke:#24313E;stroke-width:2;stroke-miterlimit:10;stroke-dasharray:6.36,6.36;}	.st12{fill:none;stroke:#24313E;stroke-width:2;stroke-miterlimit:10;stroke-dasharray:6.41,6.41;}	.st13{fill:none;stroke:#24313E;stroke-width:2;stroke-miterlimit:10;stroke-dasharray:6.43;}	.st14{fill:#EBF0F5;stroke:#24313E;stroke-width:2;stroke-miterlimit:10;}	.st15{fill:#0062FF;stroke:#24313E;stroke-width:2;stroke-miterlimit:10;}	.st16{opacity:0.21;enable-background:new    ;}	.st17{opacity:0.21;fill:#EBF0F5;enable-background:new    ;}	.st18{opacity:0.34;enable-background:new    ;}	.st19{fill:#EBF0F5;}	.st20{opacity:0.18;fill:#EBF0F5;enable-background:new    ;}	.st21{opacity:0.49;fill:#EBF0F5;enable-background:new    ;}	.st22{enable-background:new    ;}	.st23{fill:#FFFFFF;}	.st24{clip-path:url(#SVGID_2_);}	.st25{fill:#B8AF50;stroke:#031439;stroke-width:2;stroke-linecap:round;stroke-linejoin:round;}	.st26{fill:#F4E969;stroke:#031439;stroke-width:2;stroke-linecap:round;stroke-linejoin:round;}	.st27{opacity:0.41;fill:#24313E;enable-background:new    ;}	.st28{fill:#9CAAB8;}	.st29{opacity:0.1;enable-background:new    ;}	.st30{fill-rule:evenodd;clip-rule:evenodd;fill:#9CAAB8;}</style><g id="Layer_1-8" data-name="Layer 1" style="isolation:isolate" transform="matrix(0.60626794,0,0,0.60626794,202.39466,18.721395)"><rect class="cls-2" x="570.39001" y="796.82001" width="312.89001" height="10.61" rx="5.2399998" id="rect1900"></rect><path class="cls-3" d="m 585.54,802.92 a 14.88,14.88 0 0 1 14.88,14.87 v 11.87 c 0,5.07 -129.68,9.19 -289.64,9.19 -159.96,0 -289.64,-4.12 -289.64,-9.19 V 817.79 A 14.87,14.87 0 0 1 36,802.92 Z" id="path1902"></path><path class="cls-4" d="m 583.44,805.62 c 0,5.08 -111.43,9.2 -269.6,9.2 -158.17,0 -286.38,-4.12 -286.38,-9.2 0,-5.08 128.22,-9.19 286.38,-9.19 158.16,0 269.6,4.12 269.6,9.19 z" id="path1904"></path><rect class="cls-3" x="823.04999" y="248.72" width="173.34" height="4.1999998" transform="rotate(180,909.72,250.82)" id="rect1906"></rect><rect class="cls-3" x="823.04999" y="227.05" width="173.34" height="4.1999998" transform="rotate(180,909.72,229.15)" id="rect1908"></rect><rect class="cls-3" x="991.34998" y="227.05" width="5.04" height="35.709999" transform="rotate(180,993.87,244.905)" id="rect1910"></rect><rect class="cls-3" x="944.48999" y="227.05" width="5.04" height="35.709999" transform="rotate(180,947.005,244.905)" id="rect1912"></rect><rect class="cls-3" x="897.62" y="227.05" width="5.04" height="35.709999" transform="rotate(180,900.145,244.905)" id="rect1914"></rect><rect class="cls-5" x="868.76001" y="259.20999" width="40.959999" height="76" rx="3.1500001" transform="rotate(180,889.24,297.205)" id="rect1916"></rect><path class="cls-5" d="m 172.36,250.2 h 41.5 a 14.5,14.5 0 0 1 14.5,14.5 v 2.07 h -70.51 v -2.07 a 14.5,14.5 0 0 1 14.5,-14.5 z" transform="rotate(180,193.105,258.49)" id="path1918"></path><path class="cls-3" d="m 738.43,74.71 2,7.18 a 1.4,1.4 0 0 0 0.13,0.34 l 51.57,112.25 a 2.21,2.21 0 0 0 2,1.29 v 0 a 2.22,2.22 0 0 0 2,-3.13 L 743.2,74.21 a 1.75,1.75 0 0 1 -0.12,-0.32 l -0.21,-0.77 a 2.22,2.22 0 0 0 -4.25,-0.13 l -0.15,0.42 a 2.3,2.3 0 0 0 -0.04,1.3 z" id="path1920"></path><rect class="cls-3" x="548.84998" y="221.42" width="52.25" height="5.3099999" transform="rotate(-90,574.975,224.075)" id="rect1922"></rect><rect class="cls-3" x="491.14001" y="221.42" width="52.25" height="5.3099999" transform="rotate(-90,517.27,224.08)" id="rect1924"></rect><rect class="cls-3" x="433.44" y="221.42" width="52.25" height="5.3099999" transform="rotate(-90,459.565,224.075)" id="rect1926"></rect><rect class="cls-3" x="375.73001" y="221.42" width="52.25" height="5.3099999" transform="rotate(-90,401.855,224.075)" id="rect1928"></rect><rect class="cls-3" x="606.56" y="221.42" width="52.25" height="5.3099999" transform="rotate(-90,632.685,224.075)" id="rect1930"></rect><polygon class="cls-3" points="683.98,201.49 637.35,246.96 633.95,244.71 680.58,199.24 " id="polygon1932"></polygon><polygon class="cls-3" points="630.03,201.49 583.4,246.96 580,244.71 626.63,199.24 " id="polygon1934"></polygon><polygon class="cls-3" points="572.32,201.49 525.69,246.96 522.29,244.71 568.92,199.24 " id="polygon1936"></polygon><polygon class="cls-3" points="514.62,201.49 467.99,246.96 464.58,244.71 511.21,199.24 " id="polygon1938"></polygon><polygon class="cls-3" points="459.11,201.49 412.48,246.96 409.08,244.71 455.71,199.24 " id="polygon1940"></polygon><polygon class="cls-3" points="403.6,201.49 356.97,246.96 353.57,244.71 400.2,199.24 " id="polygon1942"></polygon><polygon class="cls-3" points="683.98,244.71 637.35,199.24 633.95,201.49 680.58,246.96 " id="polygon1944"></polygon><polygon class="cls-3" points="630.03,244.71 583.4,199.24 580,201.49 626.63,246.96 " id="polygon1946"></polygon><polygon class="cls-3" points="572.32,244.71 525.69,199.24 522.29,201.49 568.92,246.96 " id="polygon1948"></polygon><polygon class="cls-3" points="514.62,244.71 467.99,199.24 464.58,201.49 511.21,246.96 " id="polygon1950"></polygon><polygon class="cls-3" points="459.11,244.71 412.48,199.24 409.08,201.49 455.71,246.96 " id="polygon1952"></polygon><polygon class="cls-3" points="403.6,244.71 356.97,199.24 353.57,201.49 400.2,246.96 " id="polygon1954"></polygon><rect class="cls-3" x="324.79001" y="221.42" width="52.25" height="5.3099999" transform="rotate(-90,350.915,224.075)" id="rect1956"></rect><polygon class="cls-3" points="352.66,201.49 306.03,246.96 302.63,244.71 349.26,199.24 " id="polygon1958"></polygon><polygon class="cls-3" points="352.66,244.71 306.03,199.24 302.63,201.49 349.26,246.96 " id="polygon1960"></polygon><rect class="cls-3" x="273.85001" y="221.42" width="52.25" height="5.3099999" transform="rotate(-90,299.975,224.075)" id="rect1962"></rect><polygon class="cls-3" points="301.72,201.49 255.09,246.96 251.69,244.71 298.32,199.24 " id="polygon1964"></polygon><polygon class="cls-3" points="301.72,244.71 255.09,199.24 251.69,201.49 298.32,246.96 " id="polygon1966"></polygon><rect class="cls-3" x="222.91" y="221.42" width="52.25" height="5.3099999" transform="rotate(-90,249.035,224.075)" id="rect1968"></rect><polygon class="cls-3" points="250.78,201.49 204.15,246.96 200.74,244.71 247.37,199.24 " id="polygon1970"></polygon><polygon class="cls-3" points="203.72,201.49 157.09,246.96 153.69,244.71 200.32,199.24 " id="polygon1972"></polygon><polygon class="cls-3" points="250.78,244.71 204.15,199.24 200.74,201.49 247.37,246.96 " id="polygon1974"></polygon><rect class="cls-3" x="437.60001" y="-40.759998" width="4.6300001" height="480" transform="rotate(-90,439.915,199.235)" id="rect1976"></rect><rect class="cls-3" x="415.31" y="-18.34" width="4.6300001" height="532.46002" transform="rotate(-90,417.62,247.89)" id="rect1978"></rect><rect class="cls-6" x="670.34998" y="413.32999" width="83.370003" height="6.8200002" transform="rotate(180,712.035,416.74)" id="rect1980"></rect><rect class="cls-6" x="670.34998" y="487.5" width="83.370003" height="6.8200002" transform="rotate(180,712.035,490.91)" id="rect1982"></rect><rect class="cls-6" x="670.34998" y="561.65997" width="83.370003" height="6.8200002" transform="rotate(180,712.035,565.075)" id="rect1984"></rect><rect class="cls-6" x="670.34998" y="635.83002" width="83.370003" height="6.8200002" transform="rotate(180,712.035,639.24)" id="rect1986"></rect><rect class="cls-6" x="670.34998" y="339.16" width="83.370003" height="6.8200002" transform="rotate(180,712.035,342.575)" id="rect1988"></rect><polygon class="cls-6" points="675.99,276.64 748.55,336.57 744.96,340.94 672.4,281.01 " id="polygon1990"></polygon><polygon class="cls-6" points="675.99,345.99 748.55,405.92 744.96,410.29 672.4,350.36 " id="polygon1992"></polygon><polygon class="cls-6" points="675.99,420.15 748.55,480.08 744.96,484.46 672.4,424.53 " id="polygon1994"></polygon><polygon class="cls-6" points="675.99,494.32 748.55,554.25 744.96,558.62 672.4,498.69 " id="polygon1996"></polygon><polygon class="cls-6" points="675.99,565.66 748.55,625.59 744.96,629.96 672.4,570.03 " id="polygon1998"></polygon><polygon class="cls-6" points="675.99,637 748.55,696.93 744.96,701.3 672.4,641.37 " id="polygon2000"></polygon><polygon class="cls-6" points="744.96,276.64 672.4,336.57 675.99,340.94 748.55,281.01 " id="polygon2002"></polygon><polygon class="cls-6" points="744.96,345.99 672.4,405.92 675.99,410.29 748.55,350.36 " id="polygon2004"></polygon><polygon class="cls-6" points="744.96,420.15 672.4,480.08 675.99,484.46 748.55,424.53 " id="polygon2006"></polygon><polygon class="cls-6" points="744.96,494.32 672.4,554.25 675.99,558.62 748.55,498.69 " id="polygon2008"></polygon><polygon class="cls-6" points="744.96,565.66 672.4,625.59 675.99,629.96 748.55,570.03 " id="polygon2010"></polygon><polygon class="cls-6" points="744.96,637 672.4,696.93 675.99,701.3 748.55,641.37 " id="polygon2012"></polygon><rect class="cls-3" x="670.34998" y="276.81" width="7.3899999" height="428.45999" transform="rotate(180,674.04,491.04)" id="rect2014"></rect><rect class="cls-6" x="673.84003" y="280.29999" width="7.3899999" height="428.45999" transform="rotate(180,677.53,494.53)" id="rect2016"></rect><rect class="cls-3" x="748.54999" y="339.16" width="51.25" height="6.8200002" transform="rotate(180,774.175,342.575)" id="rect2018"></rect><rect class="cls-3" x="748.54999" y="413.32999" width="51.25" height="6.8200002" transform="rotate(180,774.175,416.74)" id="rect2020"></rect><rect class="cls-3" x="748.54999" y="487.5" width="51.25" height="6.8200002" transform="rotate(180,774.175,490.91)" id="rect2022"></rect><rect class="cls-3" x="748.54999" y="561.65997" width="51.25" height="6.8200002" transform="rotate(180,774.175,565.075)" id="rect2024"></rect><rect class="cls-3" x="748.54999" y="635.83002" width="51.25" height="6.8200002" transform="rotate(180,774.175,639.24)" id="rect2026"></rect><polygon class="cls-3" points="752.02,276.64 796.63,336.57 794.42,340.94 749.81,281.01 " id="polygon2028"></polygon><polygon class="cls-3" points="752.02,345.99 796.63,405.92 794.42,410.29 749.81,350.36 " id="polygon2030"></polygon><polygon class="cls-3" points="752.02,420.15 796.63,480.08 794.42,484.46 749.81,424.53 " id="polygon2032"></polygon><polygon class="cls-3" points="752.02,494.32 796.63,554.25 794.42,558.62 749.81,498.69 " id="polygon2034"></polygon><polygon class="cls-3" points="752.02,565.66 796.63,625.59 794.42,629.96 749.81,570.03 " id="polygon2036"></polygon><polygon class="cls-3" points="752.02,637 796.63,696.93 794.42,701.3 749.81,641.37 " id="polygon2038"></polygon><polygon class="cls-3" points="794.42,276.64 749.81,336.57 752.02,340.94 796.63,281.01 " id="polygon2040"></polygon><polygon class="cls-3" points="794.42,345.99 749.81,405.92 752.02,410.29 796.63,350.36 " id="polygon2042"></polygon><polygon class="cls-3" points="794.42,420.15 749.81,480.08 752.02,484.46 796.63,424.53 " id="polygon2044"></polygon><polygon class="cls-3" points="794.42,494.32 749.81,554.25 752.02,558.62 796.63,498.69 " id="polygon2046"></polygon><polygon class="cls-3" points="794.42,565.66 749.81,625.59 752.02,629.96 796.63,570.03 " id="polygon2048"></polygon><polygon class="cls-3" points="794.42,637 749.81,696.93 752.02,701.3 796.63,641.37 " id="polygon2050"></polygon><rect class="cls-3" x="794.26001" y="276.81" width="4.54" height="428.45999" transform="rotate(180,796.525,491.04)" id="rect2052"></rect><rect class="cls-6" x="797.53003" y="276.81" width="4.54" height="428.45999" transform="rotate(180,799.805,491.04)" id="rect2054"></rect><path class="cls-5" d="M 688.4,265.21 H 795.79 A 5.22,5.22 0 0 0 801,260 v -59 a 5.22,5.22 0 0 0 -5.22,-5.21 H 724 a 5.27,5.27 0 0 0 -3.47,1.31 l -43.4,38.57 a 5.21,5.21 0 0 0 -1.41,5.76 l 7.79,20.44 a 5.21,5.21 0 0 0 4.89,3.34 z" id="path2056"></path><path class="cls-3" d="m 653,265.21 h 108.14 a 4.75,4.75 0 0 0 4.76,-4.75 v -59.93 a 4.76,4.76 0 0 0 -4.76,-4.75 h -72.42 a 4.73,4.73 0 0 0 -3.16,1.2 l -43.77,38.89 a 4.77,4.77 0 0 0 -1.29,5.25 l 8,21 a 4.74,4.74 0 0 0 4.5,3.09 z" id="path2058"></path><path class="cls-7" d="M 765.83,199.8 H 696.16 A 4.76,4.76 0 0 0 693,201 l -43.77,38.9 a 4.72,4.72 0 0 0 -1.28,5.24 l 7.65,20.08 H 653 a 4.75,4.75 0 0 1 -4.44,-3.07 l -8,-21 a 4.76,4.76 0 0 1 1.29,-5.25 L 685.57,197 a 4.72,4.72 0 0 1 3.15,-1.21 h 72.42 a 4.74,4.74 0 0 1 4.69,4.01 z" id="path2060"></path><rect class="cls-3" x="773" y="203.82001" width="21.280001" height="61.400002" transform="rotate(180,783.64,234.515)" id="rect2062"></rect><rect class="cls-8" x="722.01001" y="205.11" width="36.099998" height="54.099998" rx="3.73" transform="rotate(180,740.065,232.155)" id="rect2064"></rect><path class="cls-8" d="m 717.18,208 v 48.25 a 2.93,2.93 0 0 1 -2.93,2.93 H 684 a 2.93,2.93 0 0 1 -2.92,-2.93 V 208 a 2.92,2.92 0 0 1 2.92,-2.92 h 30.26 a 2.9,2.9 0 0 1 2.52,1.44 2.86,2.86 0 0 1 0.4,1.48 z" id="path2066"></path><rect class="cls-3" x="743.79999" y="276.81" width="9.9200001" height="428.45999" transform="rotate(180,748.765,491.04)" id="rect2068"></rect><rect class="cls-6" x="749.32001" y="276.81" width="4.54" height="428.45999" transform="rotate(180,751.585,491.04)" id="rect2070"></rect><rect class="cls-5" x="637.02002" y="265.20999" width="169.99001" height="15.84" rx="5.54" transform="rotate(180,722.015,273.13)" id="rect2072"></rect><rect class="cls-3" x="637.02002" y="265.20999" width="137.37" height="15.84" rx="5.54" transform="rotate(180,705.705,273.13)" id="rect2074"></rect><path class="cls-3" d="m 691.59,195.77 h 0.08 a 2.22,2.22 0 0 0 2.06,-1.38 l 46,-113.55 c 0,0 0,-0.09 0,-0.13 l 2.46,-7.31 a 2.19,2.19 0 0 0 0,-1.29 l -0.07,-0.29 A 2.23,2.23 0 0 0 738,71.7 l -0.34,1 v 0.12 l -48.09,119.9 a 2.23,2.23 0 0 0 2.02,3.05 z" id="path2076"></path><polygon class="cls-3" points="744.83,69.42 738.36,68.01 740.73,72.83 352.66,196.92 366.26,196.92 742.13,77.43 " id="polygon2078"></polygon><polyline class="cls-3" points="734.27 72.75 232.77 196.92 246.38 196.92 734.27 78.09" id="polyline2080"></polyline><path class="cls-3" d="m 737.81,73.41 2,7.23 a 2.56,2.56 0 0 1 0.05,0.27 l 15.91,113 a 2.21,2.21 0 0 0 2.2,1.91 h 0.34 a 2.23,2.23 0 0 0 2.21,-2.55 l -18,-120.33 a 1.84,1.84 0 0 0 0,-0.25 L 742.3,71.87 A 2.23,2.23 0 0 0 738,71.7 l -0.14,0.42 a 2.19,2.19 0 0 0 -0.05,1.29 z" id="path2082"></path><circle class="cls-8" cx="740.65997" cy="72.470001" r="10.45" id="circle2084"></circle><rect class="cls-5" x="176.28" y="252.82001" width="3.49" height="118.31" transform="rotate(180,178.02,311.975)" id="rect2086"></rect><rect class="cls-5" x="191.36" y="252.82001" width="3.49" height="118.31" transform="rotate(180,193.105,311.975)" id="rect2088"></rect><path class="cls-9" d="m 164.75,250.2 h 41.5 a 14.5,14.5 0 0 1 14.5,14.5 v 2.07 h -70.5 v -2.07 a 14.5,14.5 0 0 1 14.5,-14.5 z" transform="rotate(180,185.505,258.49)" id="path2090"></path><rect class="cls-3" x="800.60999" y="248.72" width="173.34" height="4.1999998" transform="rotate(180,887.28,250.82)" id="rect2092"></rect><rect class="cls-3" x="800.60999" y="227.05" width="173.34" height="4.1999998" transform="rotate(180,887.28,229.15)" id="rect2094"></rect><rect class="cls-3" x="968.90997" y="227.05" width="5.04" height="35.709999" transform="rotate(180,971.43,244.905)" id="rect2096"></rect><rect class="cls-3" x="922.04999" y="227.05" width="5.04" height="35.709999" transform="rotate(180,924.57,244.905)" id="rect2098"></rect><rect class="cls-3" x="875.19" y="227.05" width="5.04" height="35.709999" transform="rotate(180,877.705,244.905)" id="rect2100"></rect><rect class="cls-3" x="859.85999" y="259.20999" width="40.959999" height="76" rx="3.1500001" transform="rotate(180,880.345,297.205)" id="rect2102"></rect><rect class="cls-5" x="918.83002" y="259.20999" width="40.959999" height="76" rx="3.1500001" transform="rotate(180,939.315,297.205)" id="rect2104"></rect><rect class="cls-3" x="909.94" y="259.20999" width="40.959999" height="76" rx="3.1500001" transform="rotate(180,930.42,297.205)" id="rect2106"></rect><rect class="cls-5" x="968.69" y="259.20999" width="40.959999" height="76" rx="3.1500001" transform="rotate(180,989.17,297.205)" id="rect2108"></rect><rect class="cls-3" x="959.79999" y="259.20999" width="40.959999" height="76" rx="3.1500001" transform="rotate(180,980.275,297.205)" id="rect2110"></rect><rect class="cls-5" x="725.67999" y="701.29999" width="89.540001" height="63.029999" rx="7.8699999" transform="rotate(180,770.445,732.82)" id="rect2112"></rect><rect class="cls-3" x="661.84998" y="701.29999" width="89.540001" height="63.029999" rx="7.8699999" transform="rotate(180,706.62,732.82)" id="rect2114"></rect><path class="cls-5" d="M 609.83,787 H 627 a 12,12 0 0 1 12,12 v 1.72 H 597.83 V 799 a 12,12 0 0 1 12,-12 z" id="path2116"></path><path class="cls-5" d="m 705.94,752.53 v 2.6 c 0,5.08 -2.9,9.2 -6.46,9.2 h -76.75 v 7.87 c 0,5.08 -2.89,9.2 -6.46,9.2 -3.57,0 -6.45,-4.12 -6.45,-9.2 v -19.67 c 0,-5.09 2.88,-9.2 6.45,-9.2 h 83.21 c 3.52,0 6.46,4.11 6.46,9.2 z" id="path2118"></path><rect class="cls-10" x="618.90997" y="762.35999" width="4.5300002" height="31.51" id="rect2120"></rect><path class="cls-3" d="m 615.31,787 h 17.21 a 12,12 0 0 1 12,12 v 1.72 H 603.31 V 799 a 12,12 0 0 1 12,-12 z" id="path2122"></path><path class="cls-3" d="m 710.27,752.53 v 2.6 c 0,5.08 -2.9,9.2 -6.46,9.2 h -76.75 v 7.87 c 0,5.08 -2.89,9.2 -6.46,9.2 -3.57,0 -6.45,-4.12 -6.45,-9.2 v -19.67 c 0,-5.09 2.88,-9.2 6.45,-9.2 h 83.21 c 3.56,0 6.46,4.11 6.46,9.2 z" id="path2124"></path><ellipse class="cls-2" cx="316.19" cy="805.71002" rx="281.63" ry="9.2600002" id="ellipse2126"></ellipse><path class="cls-5" d="m 600.18,487.81 -0.31,67.2 -1,222.41 a 28.32,28.32 0 0 1 -28.46,28.2 L 392.08,804.8 78.51,803.36 A 37.28,37.28 0 0 1 41.39,765.91 l 1.28,-278.1 z" id="path2128"></path><path class="cls-11" d="m 600.42,437.69 -0.24,52.47 H 42.67 l 0.25,-55 a 17.67,17.67 0 0 1 17.9,-17.45 l 521.86,2.36 a 17.67,17.67 0 0 1 17.74,17.62 z" id="path2130"></path><path class="cls-12" d="m 593.49,465.78 -1.43,311.4 a 28.65,28.65 0 0 1 -28.79,28.53 L 63.09,803.42 A 28.67,28.67 0 0 1 34.56,774.62 L 36,463.22 a 46.69,46.69 0 0 1 46.9,-46.48 l 464.1,2.13" id="path2132"></path><path class="cls-13" d="m 593.49,488.43 c 0,1.12 -124.82,3.28 -278.8,3.28 -153.98,0 -278.81,-2.16 -278.81,-3.28 0,-1.12 124.83,-0.79 278.81,-0.79 153.98,0 278.8,-0.34 278.8,0.79 z" id="path2134"></path><path class="cls-9" d="m 63.47,418.2 h 502.64 a 27.44,27.44 0 0 1 27.44,27.44 V 489 H 36 V 445.64 A 27.44,27.44 0 0 1 63.47,418.2 Z" transform="rotate(0.26,318.37493,459.84913)" id="path2136"></path><rect class="cls-9" x="58.169998" y="504.79001" width="63.709999" height="23.200001" rx="4.54" transform="rotate(0.26,91.535882,522.06717)" id="rect2138"></rect><rect class="cls-6" x="430.60999" y="439.69" width="82.239998" height="28.9" rx="14.28" transform="rotate(0.26,477.03989,459.48913)" id="rect2140"></rect><rect class="cls-6" x="532.71997" y="440.03" width="29.120001" height="28.9" rx="14.28" transform="rotate(0.26,554.16869,459.31413)" id="rect2142"></rect><rect class="cls-3" x="57.959999" y="551.23999" width="132.49001" height="22.299999" rx="4.3600001" transform="rotate(0.26,124.70108,570.47313)" id="rect2144"></rect><rect class="cls-6" x="57.810001" y="586.81" width="132.49001" height="16.34" rx="4.3600001" transform="rotate(0.26,124.77608,603.52833)" id="rect2146"></rect><rect class="cls-6" x="57.68" y="614.70001" width="86.330002" height="14.2" rx="3.79" transform="rotate(0.26,102.79928,630.02249)" id="rect2148"></rect><rect class="cls-6" x="57.580002" y="638.03998" width="139.34" height="14.2" rx="3.79" transform="rotate(0.26,129.29844,654.20297)" id="rect2150"></rect><rect class="cls-6" x="57.459999" y="663.02002" width="86.330002" height="14.2" rx="3.79" transform="rotate(0.26,102.90928,678.50345)" id="rect2152"></rect><rect class="cls-6" x="57.349998" y="686.37" width="139.34" height="14.2" rx="3.79" transform="rotate(0.26,129.40844,702.68393)" id="rect2154"></rect><rect class="cls-9" x="137.55" y="505.16" width="63.709999" height="23.200001" rx="4.54" transform="rotate(0.26,170.87336,524.09085)" id="rect2156"></rect><rect class="cls-6" x="236.53999" y="505.70999" width="105.81" height="23.200001" rx="4.54" transform="rotate(0.26,292.07577,523.81585)" id="rect2158"></rect><rect class="cls-9" x="482.57999" y="504.63" width="88.110001" height="23.200001" rx="4.54" transform="rotate(0.26,532.27689,523.27085)" id="rect2160"></rect><rect class="cls-3" x="233.73" y="544.84003" width="335.32001" height="260.85001" rx="9.0200005" transform="rotate(0.26,407.03213,684.42449)" id="rect2162"></rect><rect class="cls-6" x="252.41" y="568.17999" width="105.81" height="23.200001" rx="4.54" transform="rotate(0.26,309.85021,587.68257)" id="rect2164"></rect><rect class="cls-6" x="252.06" y="609.45001" width="299.31" height="93.07" rx="5.3499999" transform="rotate(0.26,406.98713,664.59137)" id="rect2166"></rect><path class="cls-7" d="m 572.62,420 c 0,5 -115.54,5.42 -258,5.42 -142.46,0 -258,-0.89 -258,-5.92 0,-5.03 114.69,0.31 257.21,0.31 142.52,0 258.79,-4.81 258.79,0.19 z" id="path2168"></path><rect class="cls-7" x="60.259998" y="505.10001" width="58.349998" height="2.04" rx="1.01" id="rect2170"></rect><rect class="cls-13" x="60.259998" y="525.23999" width="60.060001" height="2.04" rx="1.01" id="rect2172"></rect><rect class="cls-7" x="140.09" y="505.94" width="58.349998" height="2.04" rx="1.01" id="rect2174"></rect><rect class="cls-13" x="140.09" y="526.08002" width="60.060001" height="2.04" rx="1.01" id="rect2176"></rect><rect class="cls-7" x="60.259998" y="551.29999" width="125.38" height="2.04" rx="1.01" id="rect2178"></rect><rect class="cls-13" x="60.259998" y="571.42999" width="129.05" height="2.04" rx="1.01" id="rect2180"></rect><path class="cls-13" d="m 135.59,463.67 c 36.42,9.73 65.78,-8 66.53,-13.27 0.75,-5.27 -3.72,-16.69 -6.15,-16.95 -2.43,-0.26 -42.9,5.19 -52,11.16 -9.1,5.97 -8.38,19.06 -8.38,19.06 z" id="path2182"></path><rect class="cls-11" x="124.06" y="424.23001" width="82.239998" height="28.9" rx="14.28" transform="rotate(-24.64,165.21185,438.75399)" id="rect2184"></rect><ellipse class="cls-7" cx="159.73" cy="427.29999" rx="29.65" ry="1.61" transform="rotate(-24.91,159.69569,427.2529)" id="ellipse2186"></ellipse><ellipse class="cls-13" cx="170.46001" cy="450.39999" rx="29.65" ry="1.61" transform="rotate(-24.91,170.43001,450.35058)" id="ellipse2188"></ellipse><path d="m 186.66,421.66 a 7.06,7.06 0 0 0 5.1,-2 l 1.5,-1.55 a 5,5 0 0 0 1.48,-3.49 v -1.82 a 5.18,5.18 0 0 0 -2.06,-4 l -2.81,-2.23 a 2.09,2.09 0 0 1 -0.89,-1.61 v -4.86 a 1.54,1.54 0 0 0 -1.54,-1.55 v 0 a 1.54,1.54 0 0 0 -1.54,1.55 v 4.86 a 5.17,5.17 0 0 0 2.06,4 l 2.8,2.22 a 2.09,2.09 0 0 1 0.89,1.61 v 1.82 a 2,2 0 0 1 -0.6,1.35 l -1.5,1.55 a 4.07,4.07 0 0 1 -2.89,1.09 4,4 0 0 1 -3.06,-1.29 l -1.2,-1.53 c -0.52,-0.67 -2.71,-1.06 -3.38,-0.53 l 0.24,0.32 c -0.67,0.53 0.19,1.44 0.72,2.11 l 1,2.51 c 1.17,1.53 3.46,1.47 5.68,1.47 z" id="path2190"></path><path class="cls-3" d="m 184.92,421.66 a 7.09,7.09 0 0 0 5.1,-2 l 1.5,-1.55 a 5,5 0 0 0 1.47,-3.49 v -1.82 a 5.15,5.15 0 0 0 -2.06,-4 l -2.8,-2.23 a 2.06,2.06 0 0 1 -0.89,-1.61 v -4.86 a 1.54,1.54 0 0 0 -1.54,-1.55 v 0 a 1.54,1.54 0 0 0 -1.55,1.55 v 4.86 a 5.17,5.17 0 0 0 2.06,4 l 2.81,2.22 a 2.12,2.12 0 0 1 0.89,1.61 v 1.82 a 2,2 0 0 1 -0.61,1.35 l -1.49,1.55 a 4.11,4.11 0 0 1 -2.89,1.09 3.93,3.93 0 0 1 -3.06,-1.29 l -1.2,-1.53 a 1.53,1.53 0 0 0 -2.16,-0.26 v 0 a 1.54,1.54 0 0 0 -0.27,2.16 l 1.2,1.53 a 7,7 0 0 0 5.49,2.45 z" id="path2192"></path><path class="cls-5" d="m 177.94,386.87 2.87,14.13 c 1.11,1.94 8.94,1.57 10.06,-0.37 l 7.89,-13.71 a 2.92,2.92 0 0 0 0.38,-1.44 V 372.1 a 2.9,2.9 0 0 0 -2.9,-2.91 h -15.78 a 2.91,2.91 0 0 0 -2.91,2.91 v 13.33 a 2.94,2.94 0 0 0 0.39,1.44 z" id="path2194"></path><path class="cls-10" d="m 172.26,386.87 7.89,13.71 a 2.9,2.9 0 0 0 5,0 l 7.89,-13.71 a 2.94,2.94 0 0 0 0.39,-1.44 V 372.1 a 2.91,2.91 0 0 0 -2.91,-2.91 h -15.75 a 2.9,2.9 0 0 0 -2.9,2.91 v 13.33 a 2.83,2.83 0 0 0 0.39,1.44 z" id="path2196"></path><path class="cls-3" d="m 172.26,386.87 7.89,13.71 a 2.9,2.9 0 0 0 5,0 l 7.89,-13.71 a 2.94,2.94 0 0 0 0.39,-1.44 V 372.1 a 2.91,2.91 0 0 0 -2.91,-2.91 h -15.75 a 2.9,2.9 0 0 0 -2.9,2.91 v 13.33 a 2.83,2.83 0 0 0 0.39,1.44 z" id="path2198"></path><rect class="cls-7" x="664.10999" y="702.70001" width="147.92999" height="3.9200001" id="rect2200"></rect><rect class="cls-7" x="618.42999" y="743.33002" width="88.190002" height="3.9200001" id="rect2202"></rect><rect class="cls-7" x="763.35999" y="196.33" width="35.68" height="3.5999999" rx="1.78" id="rect2204"></rect><polygon class="cls-14" points="699.75,205.11 712.15,205.11 681.07,235.66 681.07,223.8 " id="polygon2206"></polygon><path class="cls-14" d="m 717.18,208 v 2.53 l -36.11,35.49 v -3.8 l 35.7,-35.7 a 2.86,2.86 0 0 1 0.41,1.48 z" id="path2208"></path><polygon class="cls-14" points="740.7,205.11 753.1,205.11 722.01,235.66 722.01,223.8 " id="polygon2210"></polygon><path class="cls-14" d="m 758.12,208 v 2.53 L 722,246.05 v -3.8 l 35.7,-35.7 a 2.86,2.86 0 0 1 0.42,1.45 z" id="path2212"></path><ellipse class="cls-14" cx="742.40002" cy="67.059998" rx="5.6999998" ry="3.8599999" id="ellipse2214"></ellipse><rect class="cls-7" x="860.51001" y="260.01001" width="149.14" height="4.0799999" id="rect2216"></rect><rect class="cls-2" x="860.51001" y="329.38" width="149.14" height="4.0799999" id="rect2218"></rect><ellipse class="cls-2" cx="774.06" cy="753.46997" rx="8.5699997" ry="10.86" id="ellipse2220"></ellipse><path class="cls-5" d="m 841,787 h 41.21 v 1.72 a 12,12 0 0 1 -12,12 H 853 a 12,12 0 0 1 -12,-12 z" transform="rotate(180,861.565,793.875)" id="path2222"></path><path class="cls-5" d="m 774.06,752.53 v 2.6 c 0,5.08 2.89,9.2 6.45,9.2 h 76.76 v 7.87 c 0,5.08 2.88,9.2 6.45,9.2 3.57,0 6.46,-4.12 6.46,-9.2 v -19.67 c 0,-5.09 -2.89,-9.2 -6.46,-9.2 h -83.21 c -3.51,0 -6.45,4.11 -6.45,9.2 z" id="path2224"></path><rect class="cls-5" x="859.29999" y="762.35999" width="4.5300002" height="31.51" transform="rotate(180,861.565,778.12)" id="rect2226"></rect><path class="cls-3" d="m 835.47,787 h 41.21 v 1.72 a 12,12 0 0 1 -12,12 h -17.2 a 12,12 0 0 1 -12,-12 V 787 Z" transform="rotate(180,856.08,793.875)" id="path2228"></path><path class="cls-3" d="m 769.73,752.53 v 2.6 c 0,5.08 2.89,9.2 6.45,9.2 h 76.76 v 7.87 c 0,5.08 2.88,9.2 6.45,9.2 3.57,0 6.46,-4.12 6.46,-9.2 v -19.67 c 0,-5.09 -2.89,-9.2 -6.46,-9.2 h -83.21 c -3.56,0 -6.45,4.11 -6.45,9.2 z" id="path2230"></path><rect class="cls-7" x="774.17999" y="743.33002" width="92.040001" height="3.9200001" id="rect2232"></rect><rect class="cls-2" x="626.95001" y="759.81" width="228.27" height="4.52" rx="2.24" id="rect2234"></rect><path class="cls-7" d="m 603.31,808.27 c 0,1.72 -129.67,13.6 -289.62,13.6 -159.95,0 -289.61,-11.87 -289.61,-13.6 0,-1.73 129.67,8.49 289.61,8.49 159.94,0 289.62,-10.21 289.62,-8.49 z" id="path2236"></path><path class="cls-2" d="m 600.39,829.46 c 0,2.19 -129.66,17.27 -289.61,17.27 -159.95,0 -289.62,-15.08 -289.62,-17.27 0,-2.19 129.67,10.78 289.62,10.78 159.95,0 289.61,-12.97 289.61,-10.78 z" id="path2238"></path><rect class="cls-7" x="640.31" y="266.35999" width="163.49001" height="3.1300001" id="rect2240"></rect><rect class="cls-2" x="638.34998" y="276.64001" width="167.39999" height="3.1300001" rx="1.5700001" id="rect2242"></rect></g></svg>