<svg xmlns:inkscape="http://www.inkscape.org/namespaces/inkscape" xmlns:sodipodi="http://sodipodi.sourceforge.net/DTD/sodipodi-0.dtd" xmlns="http://www.w3.org/2000/svg" xmlns:svg="http://www.w3.org/2000/svg" id="Layer_1" x="0px" y="0px" viewBox="0 0 1024 594" xml:space="preserve" sodipodi:docname="CGaaS_CodeGen.svg" inkscape:version="1.1.2 (0a00cf5339, 2022-02-04, custom)" width="1024" height="594"><defs id="defs358"><style id="style1896">.cls-1{isolation:isolate;}.cls-2{opacity:0.1;}.cls-14,.cls-2,.cls-7{mix-blend-mode:overlay;}.cls-3{fill:#9caab8;}.cls-3,.cls-8{stroke:#031439;}.cls-10,.cls-11,.cls-12,.cls-3,.cls-4,.cls-5,.cls-6,.cls-8,.cls-9{stroke-miterlimit:10;stroke-width:2px;}.cls-13,.cls-4,.cls-8{fill:#24313e;}.cls-4{stroke:#f5f7f9;}.cls-5{fill:#455666;}.cls-11,.cls-12,.cls-5,.cls-6,.cls-9{stroke:#24313e;}.cls-14,.cls-6,.cls-7{fill:#ebf0f5;}.cls-7{opacity:0.21;}.cls-9{fill:#0c7ff2;}.cls-10{fill:#fff;stroke:#000;}.cls-11{fill:#3ab2d0;}.cls-12{fill:#f5f7f9;}.cls-13{opacity:0.24;mix-blend-mode:multiply;}</style><style id="style3923">.cls-1{isolation:isolate;}.cls-2{opacity:0.09;}.cls-14,.cls-2,.cls-5,.cls-6,.cls-8{mix-blend-mode:overlay;}.cls-13,.cls-3{fill:#6b7e8f;}.cls-10,.cls-11,.cls-12,.cls-13,.cls-15,.cls-3,.cls-4,.cls-7,.cls-9{stroke:#24313e;stroke-miterlimit:10;stroke-width:2.31px;}.cls-15,.cls-3,.cls-4,.cls-5,.cls-6,.cls-7{fill-rule:evenodd;}.cls-4{fill:#d9dee5;}.cls-5,.cls-8{opacity:0.38;}.cls-14,.cls-6{fill:#ebf0f5;opacity:0.21;}.cls-7{fill:#9caab8;}.cls-9{fill:#455666;}.cls-10{fill:#24313e;}.cls-11{fill:#0c7ff2;}.cls-12{fill:#3ab2d0;}.cls-15{fill:#f5f7f9;}</style></defs><style type="text/css" id="style2">	.st0{fill:#6B7E8F;stroke:#24313E;stroke-width:2;stroke-miterlimit:10;}	.st1{fill:#9CAAB8;stroke:#031439;stroke-width:2;stroke-miterlimit:10;}	.st2{opacity:0.14;enable-background:new    ;}	.st3{fill:#CCCFD4;stroke:#031439;stroke-width:2;stroke-miterlimit:10;}	.st4{fill:none;stroke:#24313E;stroke-width:2;stroke-miterlimit:10;}	.st5{opacity:0.38;enable-background:new    ;}	.st6{fill:#EBF0F5;stroke:#031439;stroke-width:2;stroke-miterlimit:10;}	.st7{fill:#3AB2D0;stroke:#24313E;stroke-width:2;stroke-miterlimit:10;}	.st8{fill:#455666;stroke:#24313E;stroke-width:2;stroke-miterlimit:10;}	.st9{fill:#0C7FF2;stroke:#24313E;stroke-width:2;stroke-miterlimit:10;}	.st10{fill:#0062FF;stroke:#031439;stroke-width:2;stroke-miterlimit:10;}	.st11{fill:none;stroke:#24313E;stroke-width:2;stroke-miterlimit:10;stroke-dasharray:6.36,6.36;}	.st12{fill:none;stroke:#24313E;stroke-width:2;stroke-miterlimit:10;stroke-dasharray:6.41,6.41;}	.st13{fill:none;stroke:#24313E;stroke-width:2;stroke-miterlimit:10;stroke-dasharray:6.43;}	.st14{fill:#EBF0F5;stroke:#24313E;stroke-width:2;stroke-miterlimit:10;}	.st15{fill:#0062FF;stroke:#24313E;stroke-width:2;stroke-miterlimit:10;}	.st16{opacity:0.21;enable-background:new    ;}	.st17{opacity:0.21;fill:#EBF0F5;enable-background:new    ;}	.st18{opacity:0.34;enable-background:new    ;}	.st19{fill:#EBF0F5;}	.st20{opacity:0.18;fill:#EBF0F5;enable-background:new    ;}	.st21{opacity:0.49;fill:#EBF0F5;enable-background:new    ;}	.st22{enable-background:new    ;}	.st23{fill:#FFFFFF;}	.st24{clip-path:url(#SVGID_2_);}	.st25{fill:#B8AF50;stroke:#031439;stroke-width:2;stroke-linecap:round;stroke-linejoin:round;}	.st26{fill:#F4E969;stroke:#031439;stroke-width:2;stroke-linecap:round;stroke-linejoin:round;}	.st27{opacity:0.41;fill:#24313E;enable-background:new    ;}	.st28{fill:#9CAAB8;}	.st29{opacity:0.1;enable-background:new    ;}	.st30{fill-rule:evenodd;clip-rule:evenodd;fill:#9CAAB8;}</style><g id="Layer_1-2" data-name="Layer 1" style="isolation:isolate" transform="matrix(0.68849331,0,0,0.68849331,143.14201,-84.774199)"><ellipse class="cls-2" cx="340.45999" cy="818.34003" rx="64.139999" ry="6.9299998" id="ellipse3927"></ellipse><path class="cls-3" d="m 540.48,804.49 -1.29,82.93 a 2.41,2.41 0 0 0 4.36,1.46 L 749.24,607.54 a 2.41,2.41 0 0 0 -3.63,-3.16 L 541.21,802.8 a 2.39,2.39 0 0 0 -0.73,1.69 z" id="path3929"></path><path class="cls-4" d="m 767.82,593.21 -140.77,185.59 -55.19,72.77 -28.31,37.32 a 2.41,2.41 0 0 1 -4.36,-1.47 l 20.42,-63.8 a 0.68,0.68 0 0 1 0,-0.2 2.38,2.38 0 0 1 0.71,-1.48 l 24,-27.26 179.87,-204.63 a 2.42,2.42 0 0 1 3.63,3.16 z" id="path3931"></path><path class="cls-5" d="m 627.05,778.8 -55.19,72.77 -12.23,-28.15 -0.67,-1.53 c 0,0 12.12,-12.95 25.34,-27.21 15.77,-17 33.12,-35.89 33.28,-36.87 0.16,-0.98 5.32,9.54 9.47,20.99 z" id="path3933"></path><path class="cls-6" d="m 583.64,585.47 c -9.26,-3.49 -18.34,-10.51 -25.8,-23.3 a 56.43,56.43 0 0 0 -11.75,-13.9 c 16.74,6.32 25.48,22.2 25.48,22.2 a 59.88,59.88 0 0 0 12.07,15 z" id="path3935"></path><path class="cls-6" d="m 626.84,624.24 c 0,1.88 0,3.72 0,5.49 -25.34,2.66 -41.57,-4.44 -51.7,-12.86 12.05,5.09 28.73,7.31 51.63,2.34 0.05,1.71 0.06,3.39 0.07,5.03 z" id="path3937"></path><path class="cls-6" d="m 627,328.38 -0.43,0.12 q -2,-1.33 -3.87,-2.58 c 1.36,0.78 2.8,1.6 4.3,2.46 z" id="path3939"></path><path class="cls-6" d="m 587.12,535.31 c 17.09,8.54 36.55,12.57 55.66,14.74 a 36.73,36.73 0 0 0 -5,5.47 C 619.6,552 601.94,546.05 587.12,535.31 Z" id="path3941"></path><path class="cls-7" d="m 926.1,444.18 c 0,104 -66.24,192.47 -158.82,225.61 q -2.44,0.88 -4.89,1.69 c -12.16,2.35 -16.47,-5.11 -16.47,-11.52 0,-7.85 0.29,-33.7 0.29,-65.72 A 81.87,81.87 0 0 0 744.42,576.7 C 741.67,564 736,555.12 730,549.87 c 53.37,-5.93 109.39,-26.2 109.39,-118.23 0,-26.16 -9.28,-47.55 -24.63,-64.29 2.46,-6.07 10.69,-30.43 -2.38,-63.41 0,0 -20.08,-6.44 -65.82,24.56 a 227,227 0 0 0 -120,0 c -45.77,-31 -65.89,-24.56 -65.89,-24.56 -13,33 -4.81,57.34 -2.34,63.41 -15.34,16.74 -24.67,38.13 -24.67,64.29 0,91.82 55.93,112.37 109.14,118.41 -6.84,6 -13,16.55 -15.21,32 -13.65,6.12 -48.36,16.69 -69.73,-19.92 0,0 -12.66,-23 -36.7,-24.68 0,0 -23.4,-0.3 -1.65,14.56 0,0 15.71,7.36 26.61,35.05 0,0 14.06,46.59 80.71,32.11 0,1.71 0,3.39 0,5 0.12,17.48 0.29,30.52 0.29,35.72 0,6.35 -4.37,13.75 -16.35,11.55 a 238.07,238.07 0 0 1 -47.2,-21.69 q -9.55,-5.7 -18.52,-12.29 a 239.57,239.57 0 0 1 141.43,-433 c 132.33,0.11 239.62,107.37 239.62,239.72 z" id="path3943"></path><path class="cls-6" d="M 817,243.17 A 239.61,239.61 0 0 0 558.79,645.83 q 5.33,3.9 10.86,7.5 -3.06,-1.71 -6.07,-3.51 -9.55,-5.7 -18.52,-12.29 A 239.6,239.6 0 0 1 817,243.17 Z" id="path3945"></path><path class="cls-6" d="m 743.68,558.17 c 6.09,5.25 11.72,14.12 14.47,26.83 a 81.87,81.87 0 0 1 1.79,17.54 c 0,32 -0.29,57.87 -0.29,65.71 a 14.1,14.1 0 0 0 0.46,3.57 c -10.42,1 -14.19,-5.86 -14.19,-11.86 0,-7.85 0.29,-33.7 0.29,-65.72 A 81.87,81.87 0 0 0 744.42,576.7 C 741.67,564 736,555.12 730,549.87 c 53.37,-5.93 109.39,-26.2 109.39,-118.23 0,-26.16 -9.28,-47.55 -24.63,-64.29 2.26,-5.56 4.75,-34.92 -4.14,-63.75 4.27,-3.37 15.75,5.72 15.49,8.64 13.07,33 4.85,57.34 2.38,63.41 15.36,16.74 24.63,38.12 24.63,64.28 -0.05,92.07 -56.07,112.3 -109.44,118.24 z" id="path3947"></path><path class="cls-6" d="m 640.57,632.54 c 0.12,17.48 0.29,30.52 0.29,35.71 0,6.36 -4.37,13.76 -16.35,11.55 a 237.65,237.65 0 0 1 -47.19,-21.68 q -3.89,-2.32 -7.67,-4.79 a 237.41,237.41 0 0 0 41.13,18.18 c 12,2.2 16.35,-5.2 16.35,-11.55 0,-4.64 -0.14,-15.51 -0.25,-30.23 a 126.22,126.22 0 0 0 13.66,-2.22 c 0.01,1.7 0.02,3.39 0.03,5.03 z" id="path3949"></path><path class="cls-8" d="m 626.84,624.24 c 0.12,17.48 0.29,30.52 0.29,35.72 0,6.35 -4.37,13.75 -16.35,11.55 a 238.07,238.07 0 0 1 -47.2,-21.69 z" id="path3951"></path><path class="cls-8" d="m 781.81,570.35 -14.53,99.44 q -2.44,0.88 -4.89,1.69 c -12.16,2.35 -16.47,-5.11 -16.47,-11.52 0,-7.85 0.29,-33.7 0.29,-65.72 a 81.87,81.87 0 0 0 -1.79,-17.54 l 31.07,-12.57 z" id="path3953"></path><path class="cls-8" d="m 545.06,637.53 a 239.68,239.68 0 0 1 -63.85,-317 l 5.45,7.4 a 17,17 0 0 1 2,16.49 l -21.55,52.81 c 0,0 37,51.63 31.81,65.65 -5.19,14.02 17.42,22.42 15.09,33.84 -5.43,26.56 -20.71,24.76 -21.75,32 -1.04,7.24 -1.76,24.2 -1.76,24.2 0,0 52.31,52.43 53,53.87 0.69,1.44 5.08,27.8 1.56,30.74 z" id="path3955"></path><path id="Path_9328" data-name="Path 9328" class="cls-9" d="m 487.2,513.77 c 0,71.73 -66.33,130.08 -148.11,130.08 -81.78,0 -148.34,-58 -148.34,-130.08"></path><path id="Path_9329" data-name="Path 9329" class="cls-10" d="m 208.58,578.27 124.08,122.51 a 12.52,12.52 0 0 0 17.54,0 L 471.33,578.27 a 12.38,12.38 0 0 0 0,-17.52 v 0 a 12.68,12.68 0 0 0 -8.79,-3.54 H 217.33 a 12.5,12.5 0 0 0 -12.33,12.5 12.24,12.24 0 0 0 3.58,8.56 z"></path><path id="Path_9330" data-name="Path 9330" class="cls-9" d="M 382.82,785 322.67,724.85 476.41,571.5 a 11.67,11.67 0 0 1 16.22,0 v 0 l 43.66,43.65 a 11.73,11.73 0 0 1 0,16.28 v 0 z"></path><path id="Path_9345" data-name="Path 9345" class="cls-9" d="m 360.15,723.15 -59.1,61.1 -156.15,-151 a 11.77,11.77 0 0 1 0,-16.27 v 0 l 42.94,-44.4 a 11.58,11.58 0 0 1 16.28,0 v 0 z"></path><path id="Path_9331" data-name="Path 9331" class="cls-11" d="m 184.71,501.62 v 0 c 0,-62.5 51.22,-149 113.82,-149 h 80 c 62.59,0 113.82,86.49 113.82,149 v 0"></path><circle id="Ellipse_703" data-name="Ellipse 703" class="cls-11" cx="277.38" cy="538.92999" r="57.419998"></circle><circle id="Ellipse_704" data-name="Ellipse 704" class="cls-12" cx="277.38" cy="538.92999" r="29.33"></circle><circle id="Ellipse_703-2" data-name="Ellipse 703" class="cls-11" cx="403.23001" cy="538.92999" r="57.419998"></circle><ellipse class="cls-8" cx="338.51001" cy="519.78003" rx="137.39999" ry="9" id="ellipse3965"></ellipse><circle id="Ellipse_704-2" data-name="Ellipse 704" class="cls-12" cx="403.23001" cy="538.92999" r="29.33"></circle><path id="Rectangle_1314" data-name="Rectangle 1314" class="cls-11" d="m 195.06,473.75 h 287 a 22.94,22.94 0 0 1 23,22.85 v 0.2 0 a 23,23 0 0 1 -23,23 h -287 a 23,23 0 0 1 -23,-22.94 v 0 0 a 23,23 0 0 1 23,-23 h 0.07 z"></path><path id="Rectangle_1315" data-name="Rectangle 1315" class="cls-13" d="m 232.61,407 3.36,-5.26 a 27.27,27.27 0 0 1 37.67,-8.31 v 0 a 27.29,27.29 0 0 1 8.36,37.68 l -3.36,5.26 a 27.27,27.27 0 0 1 -37.67,8.31 v 0 A 27.27,27.27 0 0 1 232.61,407 Z"></path><path id="Rectangle_1316" data-name="Rectangle 1316" class="cls-13" d="m 405.05,393.37 v 0 a 27.16,27.16 0 0 1 37.54,8.13 1.64,1.64 0 0 1 0.14,0.22 l 3.4,5.19 a 27.16,27.16 0 0 1 -8,37.56 l -0.25,0.16 v 0 a 27.33,27.33 0 0 1 -37.68,-8.35 l -3.39,-5.19 a 27.15,27.15 0 0 1 8,-37.56 z"></path><path id="Rectangle_1317" data-name="Rectangle 1317" class="cls-9" d="m 204.91,319.58 v 0 a 21.79,21.79 0 0 1 28.75,11.11 l 31.4,71 A 21.8,21.8 0 0 1 254,430.4 v 0 a 21.8,21.8 0 0 1 -28.75,-11.11 l -31.4,-71 a 21.78,21.78 0 0 1 11.06,-28.71 z"></path><circle id="Ellipse_705" data-name="Ellipse 705" class="cls-13" cx="246.09" cy="402.29001" r="26.82"></circle><path id="Rectangle_1318" data-name="Rectangle 1318" class="cls-9" d="m 407.4,401.75 31.43,-71 a 21.77,21.77 0 0 1 28.7,-11.11 v 0 a 21.76,21.76 0 0 1 11.11,28.7 v 0 l -31.4,71 a 21.79,21.79 0 0 1 -28.73,11.14 v 0 A 21.84,21.84 0 0 1 407.4,401.73 Z"></path><circle id="Ellipse_706" data-name="Ellipse 706" class="cls-13" cx="426.41" cy="409.45999" r="26.82"></circle><path id="Path_9340" data-name="Path 9340" class="cls-11" d="m 494.78,611.19 a 15.49,15.49 0 0 1 0,21.8 L 346.91,780.76 a 15.46498,15.46498 0 0 1 -23,-20.68 l 0.71,-0.7 H 325 l 147.8,-147.8 a 15.57,15.57 0 0 1 21.94,-0.41 z"></path><path id="Rectangle_1325" data-name="Rectangle 1325" class="cls-11" d="m 357.69,785.82 v 0 a 15.51,15.51 0 0 1 -21.86,0 L 188.13,638.06 a 15.38,15.38 0 0 1 0,-21.75 v 0 a 15.49,15.49 0 0 1 21.8,0 L 357.69,764.1 a 15.4,15.4 0 0 1 0.1,21.79 l -0.1,0.1 c 0,0 0.11,-0.1 0,-0.17 z"></path><circle id="Ellipse_700" data-name="Ellipse 700" class="cls-11" cx="341.95001" cy="745.48999" r="74.889999"></circle><circle id="Ellipse_700-2" data-name="Ellipse 700" class="cls-11" cx="341.95001" cy="745.48999" r="38.290001"></circle><ellipse class="cls-14" cx="295.53" cy="538.92999" rx="5.4699998" ry="16.93" id="ellipse3979"></ellipse><ellipse class="cls-14" cx="421.45001" cy="540.25" rx="5.4699998" ry="16.93" id="ellipse3981"></ellipse><path class="cls-8" d="m 482.87,684.88 c -31.25,29.75 -57.78,60.06 -59.57,59.61 -1.79,-0.45 21.79,-32.07 53.05,-61.82 31.26,-29.75 55.51,-50.27 57.29,-49.81 1.78,0.46 -19.52,22.27 -50.77,52.02 z" id="path3983"></path><path class="cls-14" d="m 432.35,625.61 c -30.61,29.75 -57.05,53.32 -59.06,52.65 -2.01,-0.67 21.19,-25.34 51.8,-55.09 30.61,-29.75 51.39,-52.45 53.39,-51.77 2,0.68 -15.48,24.47 -46.13,54.21 z" id="path3985"></path><path class="cls-14" d="m 442.37,653.2 c -23,22.27 -43.07,39.64 -44.9,38.8 -1.83,-0.84 15.3,-19.6 38.27,-41.87 22.97,-22.27 38.26,-39.59 40.06,-38.74 1.8,0.85 -10.46,19.54 -33.43,41.81 z" id="path3987"></path><path class="cls-8" d="m 461.55,666.63 c -25.17,24.41 -47.22,49.44 -49.11,48.64 -1.89,-0.8 17.13,-27.12 42.29,-51.53 25.16,-24.41 42.19,-38.71 44.08,-37.91 1.89,0.8 -12.09,16.39 -37.26,40.8 z" id="path3989"></path><path class="cls-14" d="m 260.2,627.76 c 25.36,26.64 51.47,49 51,50.63 -0.47,1.63 -27.94,-18 -53.3,-44.64 -25.36,-26.64 -57.3,-61.75 -56.79,-63.34 0.51,-1.59 33.73,30.71 59.09,57.35 z" id="path3991"></path><path class="cls-8" d="m 203.47,681.75 c 28.41,29.23 50.92,54.48 50.28,56.4 -0.64,1.92 -24.2,-20.24 -52.61,-49.47 -28.41,-29.23 -50.09,-49.07 -49.44,-51 0.65,-1.93 23.36,14.83 51.77,44.07 z" id="path3993"></path><path class="cls-8" d="m 229.82,668.86 c 21.27,21.93 42.9,48.35 42.09,50.1 -0.81,1.75 -23.75,-21.83 -45,-43.76 -21.25,-21.93 -37.81,-36.51 -37,-38.26 0.81,-1.75 18.64,9.99 39.91,31.92 z" id="path3995"></path><path class="cls-14" d="m 242.64,650.55 c 23.31,24 45.83,41.52 45.07,43.32 -0.76,1.8 -24.52,-12.78 -47.83,-36.82 -23.31,-24.04 -37,-40.29 -36.2,-42.08 0.8,-1.79 15.65,11.54 38.96,35.58 z" id="path3997"></path><path class="cls-14" d="m 309.69,745.49 c 0,16.15 13.47,29.24 19.31,29.24 5.84,0 -11.22,-13.09 -11.22,-29.24 0,-16.15 17.07,-29.23 11.22,-29.23 -5.85,0 -19.31,13.09 -19.31,29.23 z" id="path3999"></path><path class="cls-14" d="m 271.5,743.91 c 0,31.35 24.65,60.31 30.5,60.39 7.69,0.11 -26,-27.13 -25.05,-59.48 0.79,-26.58 32.13,-55.59 26.29,-55.59 -5.84,0 -31.74,28.08 -31.74,54.68 z" id="path4001"></path><path class="cls-15" d="M 773.62,573.91 543.56,804 a 1.47,1.47 0 0 1 -1.75,0.24 L 402.17,726.86 a 1.46,1.46 0 0 1 0.15,-2.63 L 772,571.52 a 1.46,1.46 0 0 1 1.62,2.39 z" id="path4003"></path><path class="cls-4" d="M 773.7,572.27 559.22,818.68 a 1,1 0 0 0 0.34,1.62 l 156.63,72.43 a 1,1 0 0 0 1.44,-0.73 l 57.84,-318.84 a 1,1 0 0 0 -1.77,-0.89 z" id="path4005"></path><ellipse class="cls-14" cx="336.22" cy="481.62" rx="144.3" ry="3.5999999" id="ellipse4007"></ellipse><ellipse class="cls-14" cx="421.79001" cy="397.26999" rx="9.3400002" ry="8.1199999" id="ellipse4009"></ellipse><ellipse class="cls-14" cx="250.89" cy="392.67999" rx="9.3400002" ry="8.1199999" id="ellipse4011"></ellipse><ellipse class="cls-14" cx="340.45999" cy="359.76001" rx="59.130001" ry="3.8299999" id="ellipse4013"></ellipse><path class="cls-6" d="m 773.63,573.91 -5.73,5.72 0.12,-0.82 -344.81,149 123.72,69.47 1.53,1.85 -4.9,4.89 a 1.48,1.48 0 0 1 -1.75,0.24 l -139.64,-77.4 a 1.46,1.46 0 0 1 0.15,-2.63 L 772,571.52 a 1.47,1.47 0 0 1 1.63,2.39 z" id="path4015"></path><path class="cls-6" d="m 775.47,573.17 -0.1,0.54 C 745.87,610.28 573.89,815 573.89,815 l 145.43,67.6 -1.7,9.36 a 1,1 0 0 1 -1.44,0.74 L 559.56,820.3 a 1,1 0 0 1 -0.34,-1.62 l 214.49,-246.4 a 1,1 0 0 1 1.76,0.89 z" id="path4017"></path></g></svg>