<svg xmlns="http://www.w3.org/2000/svg" xmlns:xlink="http://www.w3.org/1999/xlink" width="197.969" height="64" viewBox="0 0 197.969 64"><defs><clipPath id="clip-Cohesity"><rect width="197.969" height="64"></rect></clipPath></defs><g id="Cohesity" clip-path="url(#clip-Cohesity)"><rect width="197.969" height="64" fill="rgba(255,255,255,0)"></rect><g id="Layer-1" transform="translate(-32.221 -130.928)"><g id="Group_1076" data-name="Group 1076" transform="translate(32.221 149.928)"><path id="Path_35052" data-name="Path 35052" d="M0,.941V.868A12.855,12.855,0,0,1,12.894-12.337,13.177,13.177,0,0,1,22-9.018a1.58,1.58,0,0,1,.584,1.167,1.48,1.48,0,0,1-1.457,1.423,1.722,1.722,0,0,1-.947-.328,10.433,10.433,0,0,0-7.322-2.918C7.212-9.674,2.987-5.078,2.987.8V.868c0,5.91,4.262,10.542,9.871,10.542a10.441,10.441,0,0,0,7.577-3.1,1.321,1.321,0,0,1,.91-.4,1.434,1.434,0,0,1,1.384,1.386,1.362,1.362,0,0,1-.474,1.021,13.047,13.047,0,0,1-9.471,3.757C5.427,14.073,0,8.273,0,.941" transform="translate(0 12.337)" fill="#59595c"></path></g><g id="Group_1077" data-name="Group 1077" transform="translate(59.101 149.928)"><path id="Path_35053" data-name="Path 35053" d="M1.393.941V.868c0-5.8-4.226-10.542-10.054-10.542S-18.641-5-18.641.8V.868c0,5.8,4.226,10.542,10.054,10.542S1.393,6.741,1.393.941m-23.021,0V.868A12.929,12.929,0,0,1-8.588-12.337,12.807,12.807,0,0,1,4.38.8V.868A12.928,12.928,0,0,1-8.661,14.073,12.806,12.806,0,0,1-21.628.941" transform="translate(21.628 12.337)" fill="#59595c"></path></g><g id="Group_1078" data-name="Group 1078" transform="translate(91.916 150.183)"><path id="Path_35054" data-name="Path 35054" d="M0-21.5a1.455,1.455,0,0,1,1.421-1.46A1.463,1.463,0,0,1,2.878-21.5v10.068H17.594V-21.5a1.463,1.463,0,0,1,1.457-1.46,1.456,1.456,0,0,1,1.42,1.46V1.48a1.439,1.439,0,1,1-2.877,0V-8.735H2.878V1.48A1.462,1.462,0,0,1,1.421,2.939,1.455,1.455,0,0,1,0,1.48Z" transform="translate(0 22.961)" fill="#59595c"></path></g><g id="Group_1079" data-name="Group 1079" transform="translate(120.326 150.366)"><path id="Path_35055" data-name="Path 35055" d="M0,22.7V.087A1.455,1.455,0,0,1,1.421-1.371H17.266A1.307,1.307,0,0,1,18.578-.058a1.307,1.307,0,0,1-1.312,1.313H2.878V9.974H15.627a1.331,1.331,0,0,1,1.312,1.313A1.307,1.307,0,0,1,15.627,12.6H2.878v8.937h14.57a1.314,1.314,0,0,1,0,2.627H1.421A1.455,1.455,0,0,1,0,22.7" transform="translate(0 1.371)" fill="#59595c"></path></g><g id="Group_1080" data-name="Group 1080" transform="translate(173.849 150.183)"><path id="Path_35056" data-name="Path 35056" d="M0-21.5a1.456,1.456,0,0,1,1.421-1.46A1.463,1.463,0,0,1,2.878-21.5V1.48A1.462,1.462,0,0,1,1.421,2.939,1.455,1.455,0,0,1,0,1.48Z" transform="translate(0 22.961)" fill="#59595c"></path></g><g id="Group_1081" data-name="Group 1081" transform="translate(182.917 150.366)"><path id="Path_35057" data-name="Path 35057" d="M.529-19H-6.865A1.339,1.339,0,0,1-8.214-20.31a1.37,1.37,0,0,1,1.349-1.349h17.7a1.369,1.369,0,0,1,1.347,1.349A1.338,1.338,0,0,1,10.838-19h-7.4V2.6a1.457,1.457,0,1,1-2.914,0Z" transform="translate(8.214 21.659)" fill="#59595c"></path></g><g id="Group_1082" data-name="Group 1082" transform="translate(207.284 150.183)"><path id="Path_35058" data-name="Path 35058" d="M.593,6.09-8.877-7.188a1.87,1.87,0,0,1-.328-.985A1.488,1.488,0,0,1-7.712-9.6a1.681,1.681,0,0,1,1.384.876L2.087,3.428,10.574-8.72A1.623,1.623,0,0,1,11.922-9.6a1.423,1.423,0,0,1,1.419,1.423,2.214,2.214,0,0,1-.4,1.058L3.507,6.018v8.828a1.457,1.457,0,1,1-2.915,0Z" transform="translate(9.205 9.596)" fill="#59595c"></path></g><g id="Group_1083" data-name="Group 1083" transform="translate(145.728 157.919)"><path id="Path_35059" data-name="Path 35059" d="M.785,18.253H-10.807a1.381,1.381,0,0,1-1.38-1.383,1.381,1.381,0,0,1,1.38-1.382H.785a6.362,6.362,0,0,0,0-12.724H-4.364A1.381,1.381,0,0,1-5.745,1.382,1.381,1.381,0,0,1-4.364,0H.785a9.126,9.126,0,0,1,0,18.253" transform="translate(12.187)" fill="#96c93d"></path></g><g id="Group_1084" data-name="Group 1084" transform="translate(143.339 150.267)"><path id="Path_35060" data-name="Path 35060" d="M.863,18.253H-4.286A9.13,9.13,0,0,1-13.4,9.126,9.13,9.13,0,0,1-4.286,0H7.305a1.382,1.382,0,0,1,0,2.765H-4.286a6.364,6.364,0,0,0-6.352,6.362,6.365,6.365,0,0,0,6.352,6.362H.863a1.382,1.382,0,0,1,0,2.765" transform="translate(13.4)" fill="#96c93d"></path></g></g></g></svg>