<svg xmlns="http://www.w3.org/2000/svg" width="619.823" height="510.939" viewBox="0 0 619.823 510.939"><g transform="translate(0.5 -1.315)"><rect width="618.823" height="509.939" transform="translate(0 1.815)" fill="#fff" stroke="#fff" stroke-width="1"></rect><g transform="translate(-84.677 -149.924)"><g transform="translate(255.512 280.801)"><path d="M518.509,390.2l.155,4.661a56.711,56.711,0,0,0-11.134-.673,53.728,53.728,0,0,0-8.13.621V390.2Z" transform="translate(-373.1 -333.547)" fill="#ebf0f5" stroke="#24313e" stroke-miterlimit="10" stroke-width="1.14"></path><path d="M516.331,390.2v5.075a40.5,40.5,0,0,0-9.684-1.036,41.637,41.637,0,0,0-7.146.621v-4.609h16.831Z" transform="translate(-373.149 -333.547)" fill="#ebf0f5" stroke="#24313e" stroke-miterlimit="10" stroke-width="1.14"></path><path d="M359.091,478.986c.621-42.568,34.593-78.3,77.058-80.941A82.346,82.346,0,0,1,451.115,562a67.508,67.508,0,0,1-9.684.57,86.071,86.071,0,0,1-13.154-1.036A82.238,82.238,0,0,1,359.091,478.986Z" transform="translate(-305.447 -337.248)" fill="#24313e" stroke="#031439" stroke-miterlimit="10" stroke-width="1.14"></path><circle cx="64.836" cy="64.836" r="64.836" transform="translate(71.199 78.196)" fill="#e7e9f2" stroke="#031439" stroke-miterlimit="10" stroke-width="1.14"></circle><path d="M522.588,473.546,515.545,508.4l-11.445.052,6.732-36.3c.259-1.4-1.036-2.848.518-2.848l8.13.829A2.988,2.988,0,0,1,522.588,473.546Z" transform="translate(-375.367 -371.684)" fill="#0c7ff2" stroke="#031439" stroke-miterlimit="10" stroke-width="1.14"></path><path d="M553,551.28l-28.948,50.077a4.416,4.416,0,0,1-3.884,2.227h-6.059a1.613,1.613,0,0,1-1.605-1.605,1.639,1.639,0,0,1,.207-.829l32.677-56.55h3.677a4.465,4.465,0,0,1,4.505,4.454A4.743,4.743,0,0,1,553,551.28Z" transform="translate(-379.417 -407.989)" fill="#fff" stroke="#031439" stroke-linecap="round" stroke-linejoin="round" stroke-width="1.14"></path><path d="M516.748,508.318l-.052.052-32.729,56.706a.5.5,0,0,1-.621.207.526.526,0,0,1-.259-.518l7.3-39.357-25.893.155-11.5.1,7.768-13.413,24.495-42.361a.728.728,0,0,1,.932-.259.623.623,0,0,1,.311.673l-7.095,38.27,11.445-.052Z" transform="translate(-350.729 -371.81)" fill="#fff" stroke="#031439" stroke-linecap="round" stroke-linejoin="round" stroke-width="1.14"></path><path d="M516.8,508.139l-.052.052L484.43,564.12a.39.39,0,0,1-.362.259.692.692,0,0,1-.466-.052.5.5,0,0,1-.259-.621l.414-2.123,6.732-36.354-25.893.155-11.5.1,7.768-13.413,24.08-41.688.518-.88a.551.551,0,0,1,.829-.207.591.591,0,0,1,.311.621L479.459,508.4l11.445-.052Z" transform="translate(-350.777 -371.632)" fill="#0c7ff2" stroke="#031439" stroke-miterlimit="10" stroke-width="1.14"></path><path d="M553.3,550.814l-29.311,50.7a4.132,4.132,0,0,1-3.625,2.071h-5.955a1.825,1.825,0,0,1-1.812-1.761,1.747,1.747,0,0,1,.259-.88L545.432,544.6h4.246a4.2,4.2,0,0,1,4.195,4.143A4.152,4.152,0,0,1,553.3,550.814Z" transform="translate(-379.465 -407.989)" fill="#3392f2" stroke="#24313e" stroke-miterlimit="10" stroke-width="1.14"></path><path d="M520.641,378.87H448.97a.575.575,0,0,1-.57-.57V367.27a.575.575,0,0,1,.57-.57h71.672a.575.575,0,0,1,.57.57V378.3A.657.657,0,0,1,520.641,378.87Z" transform="translate(-348.511 -322.216)" fill="#24313e" stroke="#031439" stroke-miterlimit="10" stroke-width="1.14"></path><path d="M461.355,368.5h2.693a.137.137,0,0,1,.155.155V378.7a.137.137,0,0,1-.155.155h-2.693a.137.137,0,0,1-.155-.155V368.655A.137.137,0,0,1,461.355,368.5Z" transform="translate(-354.683 -323.084)" fill="#fff" stroke="#031439" stroke-linecap="round" stroke-linejoin="round" stroke-width="1.14"></path><path d="M462.255,368.5h2.382a.165.165,0,0,1,.155.155v10.1a.165.165,0,0,1-.155.155h-2.382a.165.165,0,0,1-.155-.155v-10.1Q462.178,368.5,462.255,368.5Z" transform="translate(-355.117 -323.084)" fill="#fff" stroke="#031439" stroke-linecap="round" stroke-linejoin="round" stroke-width="1.14"></path><path d="M475.255,368.5h2.693a.137.137,0,0,1,.155.155V378.7a.137.137,0,0,1-.155.155h-2.693a.137.137,0,0,1-.155-.155V368.655A.137.137,0,0,1,475.255,368.5Z" transform="translate(-361.384 -323.084)" fill="#fff" stroke="#031439" stroke-linecap="round" stroke-linejoin="round" stroke-width="1.14"></path><path d="M476.155,368.5h2.382a.165.165,0,0,1,.155.155v10.1a.165.165,0,0,1-.155.155h-2.382a.165.165,0,0,1-.155-.155v-10.1Q476.078,368.5,476.155,368.5Z" transform="translate(-361.818 -323.084)" fill="#fff" stroke="#031439" stroke-linecap="round" stroke-linejoin="round" stroke-width="1.14"></path><path d="M489.055,368.5h2.693a.137.137,0,0,1,.155.155V378.7a.137.137,0,0,1-.155.155h-2.693a.137.137,0,0,1-.155-.155V368.655Q488.978,368.5,489.055,368.5Z" transform="translate(-368.038 -323.084)" fill="#fff" stroke="#031439" stroke-linecap="round" stroke-linejoin="round" stroke-width="1.14"></path><path d="M490.055,368.5h2.382a.165.165,0,0,1,.155.155v10.1a.165.165,0,0,1-.155.155h-2.382a.165.165,0,0,1-.155-.155v-10.1A.165.165,0,0,1,490.055,368.5Z" transform="translate(-368.52 -323.084)" fill="#fff" stroke="#031439" stroke-linecap="round" stroke-linejoin="round" stroke-width="1.14"></path><path d="M502.955,368.5h2.693a.137.137,0,0,1,.155.155V378.7a.137.137,0,0,1-.155.155h-2.693a.137.137,0,0,1-.155-.155V368.655A.165.165,0,0,1,502.955,368.5Z" transform="translate(-374.74 -323.084)" fill="#fff" stroke="#031439" stroke-linecap="round" stroke-linejoin="round" stroke-width="1.14"></path><path d="M503.955,368.5h2.382a.165.165,0,0,1,.155.155v10.1a.165.165,0,0,1-.155.155h-2.382a.165.165,0,0,1-.155-.155v-10.1A.137.137,0,0,1,503.955,368.5Z" transform="translate(-375.222 -323.084)" fill="#fff" stroke="#031439" stroke-linecap="round" stroke-linejoin="round" stroke-width="1.14"></path><path d="M516.855,368.5h2.693a.137.137,0,0,1,.155.155V378.7a.137.137,0,0,1-.155.155h-2.693a.137.137,0,0,1-.155-.155V368.655A.137.137,0,0,1,516.855,368.5Z" transform="translate(-381.442 -323.084)" fill="#fff" stroke="#031439" stroke-linecap="round" stroke-linejoin="round" stroke-width="1.14"></path><path d="M517.855,368.5h2.382a.165.165,0,0,1,.155.155v10.1a.165.165,0,0,1-.155.155h-2.382a.165.165,0,0,1-.155-.155v-10.1A.137.137,0,0,1,517.855,368.5Z" transform="translate(-381.924 -323.084)" fill="#fff" stroke="#031439" stroke-linecap="round" stroke-linejoin="round" stroke-width="1.14"></path><path d="M530.755,368.5h2.693a.137.137,0,0,1,.155.155V378.7a.137.137,0,0,1-.155.155h-2.693a.137.137,0,0,1-.155-.155V368.655A.137.137,0,0,1,530.755,368.5Z" transform="translate(-388.143 -323.084)" fill="#fff" stroke="#031439" stroke-linecap="round" stroke-linejoin="round" stroke-width="1.14"></path><path d="M531.655,368.5h2.382a.165.165,0,0,1,.155.155v10.1a.165.165,0,0,1-.155.155h-2.382a.165.165,0,0,1-.155-.155v-10.1Q531.578,368.5,531.655,368.5Z" transform="translate(-388.577 -323.084)" fill="#fff" stroke="#031439" stroke-linecap="round" stroke-linejoin="round" stroke-width="1.14"></path><path d="M544.655,368.5h2.693a.137.137,0,0,1,.155.155V378.7a.137.137,0,0,1-.155.155h-2.693a.137.137,0,0,1-.155-.155V368.655A.137.137,0,0,1,544.655,368.5Z" transform="translate(-394.845 -323.084)" fill="#fff" stroke="#031439" stroke-linecap="round" stroke-linejoin="round" stroke-width="1.14"></path><path d="M545.555,368.5h2.382a.165.165,0,0,1,.155.155v10.1a.165.165,0,0,1-.155.155h-2.382a.165.165,0,0,1-.155-.155v-10.1Q545.478,368.5,545.555,368.5Z" transform="translate(-395.279 -323.084)" fill="#fff" stroke="#031439" stroke-linecap="round" stroke-linejoin="round" stroke-width="1.14"></path><path d="M558.455,368.5h2.693a.137.137,0,0,1,.155.155V378.7a.137.137,0,0,1-.155.155h-2.693a.137.137,0,0,1-.155-.155V368.655A.165.165,0,0,1,558.455,368.5Z" transform="translate(-401.499 -323.084)" fill="#fff" stroke="#031439" stroke-linecap="round" stroke-linejoin="round" stroke-width="1.14"></path><path d="M559.455,368.5h2.382a.165.165,0,0,1,.155.155v10.1a.165.165,0,0,1-.155.155h-2.382a.165.165,0,0,1-.155-.155v-10.1A.137.137,0,0,1,559.455,368.5Z" transform="translate(-401.981 -323.084)" fill="#fff" stroke="#031439" stroke-linecap="round" stroke-linejoin="round" stroke-width="1.14"></path><path d="M572.355,368.5h2.693a.137.137,0,0,1,.155.155V378.7a.137.137,0,0,1-.155.155h-2.693a.137.137,0,0,1-.155-.155V368.655A.165.165,0,0,1,572.355,368.5Z" transform="translate(-408.2 -323.084)" fill="#fff" stroke="#031439" stroke-linecap="round" stroke-linejoin="round" stroke-width="1.14"></path><path d="M573.355,368.5h2.382a.165.165,0,0,1,.155.155v10.1a.165.165,0,0,1-.155.155h-2.382a.165.165,0,0,1-.155-.155v-10.1A.137.137,0,0,1,573.355,368.5Z" transform="translate(-408.682 -323.084)" fill="#fff" stroke="#031439" stroke-linecap="round" stroke-linejoin="round" stroke-width="1.14"></path><rect width="73.018" height="1.45" transform="translate(99.578 54.841)" fill="#24313e" opacity="0.47"></rect><rect width="73.018" height="1.45" transform="translate(99.682 44.484)" fill="#ebf0f5" opacity="0.5"></rect><path d="M492.975,524.474l-8.855,41.118-.621,2.8.1-2.848.1-2.745,6.784-36.354-25.893.207-11.5.052,7.768-13.413,24.08-41.688v1.864l-27.291,49.87Z" transform="translate(-350.777 -372.793)" fill="#ebf0f5" opacity="0.3"></path><path d="M542.586,544.755,511.1,602.807,544.709,544.6Z" transform="translate(-378.742 -407.989)" fill="#ebf0f5" opacity="0.3"></path><path d="M523.783,480.286v1.295a82.4,82.4,0,0,0-87.674-80.786c-42.465,2.641-76.384,38.27-77.109,80.838v-2.641c.621-42.568,34.593-78.3,77.057-80.941A82.452,82.452,0,0,1,523.783,480.286Z" transform="translate(-305.408 -337.254)" fill="#ebf0f5" opacity="0.98"></path><path d="M537.679,367.531l-1.864,2.848-18.177,27.55-1.554-1.036h0L487.343,377.94l-.1-.1,13.309-2.745,5.438-1.139c-16.52-50.44-64.525-83.116-118.176-79.8a109.6,109.6,0,0,0-20.093,3.107.311.311,0,0,1-.207.052,117.545,117.545,0,0,0-87.363,95.441A126.613,126.613,0,0,0,278.8,408.7a113.916,113.916,0,0,0,.518,13.309,116.39,116.39,0,0,0,97.409,103.572,114.167,114.167,0,0,0,32.263.673c2.848-.363,5.748-.777,8.545-1.346A116.277,116.277,0,0,0,476.312,494.3c1.087-1.087,2.175-2.123,3.262-3.263l9.27,8.855a129.651,129.651,0,0,1-67.995,37.441c-3.418.673-6.887,1.243-10.357,1.605a127.548,127.548,0,0,1-35.888-.725A129.2,129.2,0,0,1,266.528,423.253a131.5,131.5,0,0,1,.88-32.522,130.636,130.636,0,0,1,80.838-100.724,116.886,116.886,0,0,1,16.779-5.282,125.7,125.7,0,0,1,21.957-3.366c60.02-3.729,113.774,33.195,131.692,90.108Z" transform="translate(-260.527 -280.945)" fill="#0c7ff2" stroke="#031439" stroke-miterlimit="10" stroke-width="1.91"></path><path d="M600.72,385.939l-5.438,1.139c-16.52-50.491-64.525-83.116-118.176-79.75a117.7,117.7,0,0,0-14.707,1.864,120.677,120.677,0,0,1,20.145-3.107C536.2,302.771,584.2,335.448,600.72,385.939Z" transform="translate(-355.261 -292.88)" fill="#3392f2" stroke="#24313e" stroke-miterlimit="10" stroke-width="1.91"></path><path d="M718.684,488.089l-1.864,2.848-33.92-21.7,5.489-1.139Z" transform="translate(-461.573 -371.105)" fill="#3392f2" stroke="#24313e" stroke-miterlimit="10" stroke-width="1.91"></path><path d="M415.835,540.612a129.1,129.1,0,0,1-51.631,2.123A129.147,129.147,0,0,1,256.127,427.77,129.4,129.4,0,0,1,360.01,288c-49.973,12.118-89.486,53.857-97.617,106.058a129.419,129.419,0,0,0,107.2,147.486,120.031,120.031,0,0,0,20.663,1.657,124.527,124.527,0,0,0,15.225-.932C408.948,541.855,412.417,541.337,415.835,540.612Z" transform="translate(-255.512 -284.272)" fill="#3392f2" stroke="#24313e" stroke-miterlimit="10" stroke-width="1.91"></path><path d="M488.845,521.785a129.651,129.651,0,0,1-67.995,37.441c-3.418.673-6.887,1.243-10.357,1.605a127.554,127.554,0,0,1-35.888-.725A129.2,129.2,0,0,1,266.528,445.142a131.5,131.5,0,0,1,.88-32.522,129.937,129.937,0,0,1,53.806-86.12c-54.531,39.772-69.031,123.872-26.722,180.733C357.257,591.644,460.621,550.578,488.845,521.785Z" transform="translate(-260.527 -302.834)" fill="#ebf0f5" opacity="0.3"></path><path d="M614.333,367.387l-1.864,2.848-18.177,27.55-1.554-1.036h0l14.6-25.686-15.95,3.884s-17.607-73.381-88.4-89.072c-29.777-6.629-56.032-4.4-78.093,3.884a123.987,123.987,0,0,1,16.779-5.334,125.705,125.705,0,0,1,21.957-3.366c60.02-3.729,113.774,33.195,131.692,90.108Z" transform="translate(-337.181 -280.801)" fill="#ebf0f5" opacity="0.3"></path></g></g></g></svg>