<svg xmlns:inkscape="http://www.inkscape.org/namespaces/inkscape" xmlns:sodipodi="http://sodipodi.sourceforge.net/DTD/sodipodi-0.dtd" xmlns="http://www.w3.org/2000/svg" xmlns:svg="http://www.w3.org/2000/svg" id="Layer_1" x="0px" y="0px" viewBox="0 0 621.19874 514.58893" xml:space="preserve" sodipodi:docname="Transformer-_Advance-with-automation-1.svg" width="621.19873" height="514.58893" inkscape:version="1.1.2 (0a00cf5339, 2022-02-04, custom)"><defs id="defs38"></defs><style type="text/css" id="style2">	.st0{fill:#24313E;stroke:#031439;stroke-width:2;stroke-miterlimit:10;}	.st1{fill:#0062FF;stroke:#24313E;stroke-width:2;stroke-miterlimit:10;}	.st2{fill:#EBF0F5;stroke:#24313E;stroke-width:2;stroke-miterlimit:10;}	.st3{opacity:0.57;fill:#455666;enable-background:new    ;}	.st4{opacity:0.57;fill:#606060;enable-background:new    ;}	.st5{opacity:0.2;fill:#EBF0F5;enable-background:new    ;}</style><g inkscape:groupmode="layer" id="layer1" inkscape:label="Layer 1"><rect style="fill:#ffffff;stroke:#0c7ff2" id="rect906" width="618.823" height="509.93918" x="0" y="1.8147302"></rect></g><style type="text/css" id="style1185">	.st0{fill:none;}	.st1{fill:#24313E;stroke:#000000;stroke-width:2;stroke-miterlimit:10;}	.st2{fill:#EBF0F5;stroke:#000000;stroke-width:2;stroke-miterlimit:10;}</style><g id="Layer_2_1_" transform="matrix(0.54387844,0,0,0.54387844,21.702336,-17.50251)">	<g id="Layer_1-2">		<rect x="206.3" y="206.3" class="st0" width="611.29999" height="611.29999" id="rect1187"></rect>		<path class="st1" d="m 298.3,534.7 c 0.2,9.2 7,17 16.1,18.4 l 31,4.7 c 5.6,0.8 10.5,4.1 13.4,9 l 43.6,72.5 c 2.9,4.9 3.5,10.8 1.6,16.2 l -4.1,11.4 h 2 v 54.7 c 0,0 43.1,3 48.9,-4.2 l 19.5,-24.1 c 3.5,-4.4 8.8,-6.9 14.4,-7 l 99.1,-1 v 38 l 33.3,-0.7 c 4.1,0.5 8.2,-0.4 11.8,-2.5 l 24.5,-14.4 c 8,-4.7 11.4,-14.4 8.2,-23.1 L 650.7,654 c -2,-5.2 -1.5,-11 1.2,-15.9 L 695,560.5 c 2.7,-4.9 7.5,-8.4 13,-9.4 l 30.7,-5.8 c 9.1,-1.7 15.6,-9.7 15.4,-19 l -0.5,-28.4 c -0.2,-9.2 -7,-17 -16.1,-18.4 l -31,-4.7 c -5.6,-0.8 -10.5,-4.1 -13.4,-9 l -43.6,-72.5 c -2.9,-4.9 -3.5,-10.8 -1.6,-16.2 l 10.6,-29.6 c 3.1,-8.7 -0.5,-18.4 -8.6,-22.9 l -24.8,-13.9 c -4.8,-2.7 -41.3,-1.4 -41.3,-1.4 V 347 l -101.4,1 c -5.7,0.1 -11.2,-2.4 -14.9,-6.8 L 447,316.8 c -4.5,-5.4 -11.6,-7.8 -18.5,-6.3 h -29 V 365 H 396 l 5.1,13.5 c 2,5.2 1.6,11 -1.1,15.9 L 356.9,472 c -2.7,4.9 -7.5,8.4 -13.1,9.4 l -30.7,5.8 c -9.1,1.7 -15.6,9.7 -15.4,19 z m 227.8,-96.5 c 41.7,0 76.3,33.5 77.8,75.2 1.6,43.1 -32.1,79.3 -75.2,80.8 -1,0 -1.9,0.1 -2.9,0.1 -41.7,-0.1 -76.3,-33.5 -77.8,-75.2 -1.5,-43.1 32.1,-79.2 75.2,-80.8 1,0 2,-0.1 2.9,-0.1 z" id="path1189"></path>		<path class="st2" d="m 262.7,534.7 c 0.2,9.2 7,17 16.1,18.4 l 31,4.7 c 5.6,0.8 10.5,4.1 13.4,9 l 43.6,72.6 c 2.9,4.9 3.5,10.8 1.6,16.2 L 357.9,685 c -3.1,8.7 0.5,18.4 8.6,22.9 l 24.8,13.9 c 8.1,4.5 18.2,2.6 24,-4.6 l 19.5,-24.1 c 3.5,-4.4 8.8,-6.9 14.4,-7 l 84.8,-1.5 c 5.7,-0.1 11.2,2.4 14.8,6.8 l 20.5,24.4 c 5.9,7.1 16.1,8.8 24.1,4.2 L 618,705.6 c 8,-4.7 11.4,-14.4 8.2,-23.1 l -10.9,-28.6 c -2,-5.2 -1.5,-11 1.2,-15.9 l 43.1,-77.6 c 2.7,-4.9 7.5,-8.4 13,-9.4 l 30.7,-5.8 c 9.1,-1.7 15.6,-9.7 15.4,-19 l -0.5,-28.4 c -0.2,-9.2 -7,-17 -16.1,-18.4 l -31,-4.7 c -5.6,-0.8 -10.5,-4.1 -13.4,-9 L 614,393.3 c -2.9,-4.9 -3.5,-10.8 -1.6,-16.2 L 623,347.5 c 3.1,-8.7 -0.5,-18.4 -8.6,-22.9 l -24.8,-13.9 c -8,-4.5 -18.2,-2.6 -24,4.6 l -19.5,24.1 c -3.5,4.4 -8.8,7 -14.4,7 l -84.8,1.5 c -5.7,0.1 -11.2,-2.4 -14.9,-6.8 l -20.5,-24.4 c -5.9,-7.1 -16.1,-8.8 -24.1,-4.2 L 363,326.9 c -8,4.7 -11.4,14.4 -8.2,23.1 l 10.8,28.6 c 2,5.2 1.6,11 -1.1,15.9 l -43.1,77.6 c -2.7,4.9 -7.5,8.4 -13,9.4 l -30.7,5.8 c -9.1,1.7 -15.6,9.7 -15.4,19 z m 227.9,-96.5 c 41.7,0 76.3,33.5 77.8,75.2 1.6,43.1 -32.1,79.3 -75.2,80.8 -1,0 -1.9,0.1 -2.9,0.1 -41.7,-0.1 -76.3,-33.5 -77.8,-75.2 -1.5,-43.1 32.1,-79.2 75.2,-80.8 1,0 1.9,-0.1 2.9,-0.1 z" id="path1191"></path>	</g></g></svg>