<svg xmlns="http://www.w3.org/2000/svg" width="619.823" height="510.939" viewBox="0 0 619.823 510.939"><g transform="translate(0.5 -1.315)"><rect width="618.823" height="509.939" transform="translate(0 1.815)" fill="#fff" stroke="#fff" stroke-width="1"></rect><g transform="translate(21.702 -17.503)"><rect width="332.474" height="332.474" transform="translate(112.202 112.202)" fill="none"></rect><path d="M162.239,290.813A10.364,10.364,0,0,0,171,300.82l16.86,2.556a10.123,10.123,0,0,1,7.288,4.895L218.857,347.7a10.447,10.447,0,0,1,.87,8.811l-2.23,6.2h1.088v29.75s23.441,1.632,26.6-2.284l10.606-13.107a10.2,10.2,0,0,1,7.832-3.807l53.9-.544v20.667l18.111-.381a10.234,10.234,0,0,0,6.418-1.36l13.325-7.832a10.372,10.372,0,0,0,4.46-12.564L353.9,355.7a10.268,10.268,0,0,1,.653-8.648L378,304.845a10.208,10.208,0,0,1,7.07-5.112l16.7-3.154a10.254,10.254,0,0,0,8.376-10.334l-.272-15.446a10.364,10.364,0,0,0-8.756-10.007l-16.86-2.556a10.123,10.123,0,0,1-7.288-4.895L353.25,213.908a10.447,10.447,0,0,1-.87-8.811l5.765-16.1a10.289,10.289,0,0,0-4.677-12.455l-13.488-7.56c-2.611-1.468-22.462-.761-22.462-.761v20.5l-55.149.544a10.378,10.378,0,0,1-8.1-3.7L243.114,172.3a10.223,10.223,0,0,0-10.062-3.426H217.28v29.641h-1.9l2.774,7.342a10.259,10.259,0,0,1-.6,8.648l-23.441,42.205a10.194,10.194,0,0,1-7.125,5.112l-16.7,3.155a10.254,10.254,0,0,0-8.376,10.334Zm123.9-52.484a42.436,42.436,0,0,1,1.414,84.845c-.544,0-1.033.054-1.577.054a42.436,42.436,0,0,1-1.414-84.845c.544,0,1.088-.054,1.577-.054Z" fill="#24313e" stroke="#000" stroke-miterlimit="10" stroke-width="1.088"></path><path d="M142.877,290.813a10.364,10.364,0,0,0,8.756,10.007l16.86,2.556a10.123,10.123,0,0,1,7.288,4.895L199.5,347.757a10.447,10.447,0,0,1,.87,8.811l-5.711,15.99a10.289,10.289,0,0,0,4.677,12.455l13.488,7.56a10.3,10.3,0,0,0,13.053-2.5l10.606-13.108a10.2,10.2,0,0,1,7.832-3.807l46.121-.816a10.191,10.191,0,0,1,8.049,3.7l11.15,13.271a10.34,10.34,0,0,0,13.108,2.284l13.379-7.832a10.372,10.372,0,0,0,4.46-12.564l-5.928-15.555A10.268,10.268,0,0,1,335.3,347l23.441-42.205a10.208,10.208,0,0,1,7.07-5.112l16.7-3.155a10.254,10.254,0,0,0,8.376-10.334l-.272-15.446a10.364,10.364,0,0,0-8.756-10.007L365,258.18a10.123,10.123,0,0,1-7.288-4.895l-23.768-39.377a10.447,10.447,0,0,1-.87-8.811l5.765-16.1a10.289,10.289,0,0,0-4.677-12.455l-13.488-7.56a10.308,10.308,0,0,0-13.053,2.5l-10.606,13.108a10.03,10.03,0,0,1-7.832,3.807l-46.121.816a10.378,10.378,0,0,1-8.1-3.7l-11.15-13.271a10.34,10.34,0,0,0-13.107-2.284l-13.271,7.832a10.372,10.372,0,0,0-4.46,12.564l5.874,15.555a10.259,10.259,0,0,1-.6,8.648L174.8,256.766a10.208,10.208,0,0,1-7.07,5.112l-16.7,3.155a10.254,10.254,0,0,0-8.376,10.334Zm123.95-52.484a42.436,42.436,0,0,1,1.414,84.845c-.544,0-1.033.054-1.577.054a42.436,42.436,0,0,1-1.414-84.845c.544,0,1.033-.054,1.577-.054Z" fill="#ebf0f5" stroke="#000" stroke-miterlimit="10" stroke-width="1.088"></path></g></g></svg>