<svg xmlns="http://www.w3.org/2000/svg" xmlns:xlink="http://www.w3.org/1999/xlink" width="155" height="48" viewBox="0 0 155 48"><defs><clipPath id="clip-iPhone_X_XS_11_Pro_1"><rect width="155" height="48"></rect></clipPath></defs><g id="iPhone_X_XS_11_Pro_1" data-name="iPhone X/XS/11 Pro &#x2013; 1" clip-path="url(#clip-iPhone_X_XS_11_Pro_1)"><g id="Group_39" data-name="Group 39" transform="translate(-12605.487 -5120.687)"><path id="path3024" d="M28.819,21.309H20.608a.384.384,0,0,0-.384.384v4.014a.384.384,0,0,0,.384.384h3.2v4.987a9.7,9.7,0,0,1-2.708.245c-2.346,0-5.623-.857-5.623-8.063s3.412-8.156,6.616-8.156a12.989,12.989,0,0,1,4.728.723.386.386,0,0,0,.46-.377l.916-3.879a.358.358,0,0,0-.147-.3C27.745,11.054,25.862,10,21.1,10,15.623,10,10,12.332,10,23.542s6.437,12.881,11.862,12.881A13.355,13.355,0,0,0,29.078,34.5a.33.33,0,0,0,.124-.291V21.693a.384.384,0,0,0-.383-.384" transform="translate(12652 5121)" fill="#161312"></path><path id="path3026" d="M293.116,16.267a.382.382,0,0,0-.381-.386h-4.623a.384.384,0,0,0-.383.386s0,8.934,0,8.934h-7.206V16.267a.383.383,0,0,0-.381-.386H275.52a.384.384,0,0,0-.382.386V40.458a.385.385,0,0,0,.382.387h4.623a.384.384,0,0,0,.381-.387V30.111h7.206l-.013,10.347a.385.385,0,0,0,.383.387h4.634a.384.384,0,0,0,.381-.387V16.267" transform="translate(12430.017 5116.076)" fill="#161312"></path><path id="path3030" d="M149.455,76.106V64.939a.384.384,0,0,0-.382-.385h-4.608a.441.441,0,0,0-.4.43v16c0,.47.293.61.672.61h4.152c.456,0,.567-.224.567-.617V76.106" transform="translate(12539.757 5075.325)" fill="#161312"></path><path id="path3032" d="M414.828,64.777H410.24a.385.385,0,0,0-.382.387V77.026a5.183,5.183,0,0,1-2.82.853c-1.654,0-2.093-.751-2.093-2.37V65.164a.384.384,0,0,0-.382-.387h-4.656a.385.385,0,0,0-.382.387V76.292c0,4.811,2.681,5.988,6.37,5.988a10.751,10.751,0,0,0,5.466-1.672,9.715,9.715,0,0,0,.169.985.4.4,0,0,0,.338.209l2.962-.013a.385.385,0,0,0,.382-.386V65.164a.385.385,0,0,0-.383-.387" transform="translate(12325.874 5075.138)" fill="#161312"></path><path id="path3034" d="M518.472,36.926a5.5,5.5,0,0,1-2.67-.77V28.495a6.115,6.115,0,0,1,2.371-.769c1.652-.148,3.244.351,3.244,4.292,0,4.156-.718,4.976-2.945,4.909Zm1.81-13.63a8.626,8.626,0,0,0-4.378,1.163V16.267a.383.383,0,0,0-.382-.386h-4.636a.384.384,0,0,0-.382.386V40.458a.385.385,0,0,0,.383.387H514.1a.383.383,0,0,0,.336-.205,7.544,7.544,0,0,0,.2-1.115,8.3,8.3,0,0,0,5.484,1.8c4.213,0,6.629-2.137,6.629-9.594s-3.859-8.431-6.466-8.431" transform="translate(12232.959 5116.076)" fill="#161312"></path><path id="path3036" d="M199.275,39.636h-3.468s-.005-4.58-.005-4.581c0-.173-.089-.26-.29-.26h-4.726c-.184,0-.282.081-.282.257v4.734s-2.368.572-2.528.618a.384.384,0,0,0-.277.369v2.975a.384.384,0,0,0,.382.386H190.5v7.157c0,5.316,3.729,5.838,6.245,5.838a10.547,10.547,0,0,0,2.752-.453.357.357,0,0,0,.217-.347l0-3.273a.39.39,0,0,0-.383-.386c-.2,0-.719.082-1.251.082-1.7,0-2.28-.792-2.28-1.817s0-6.8,0-6.8h3.468a.384.384,0,0,0,.382-.386V40.022a.383.383,0,0,0-.382-.385" transform="translate(12503.224 5100.241)" fill="#161312"></path><path id="path3028" d="M148.553,22.274a2.981,2.981,0,1,0-2.981,3.012,2.994,2.994,0,0,0,2.981-3.012" transform="translate(12540.989 5113.244)" fill="#161312"></path></g><g id="github-logo" transform="translate(0 -5.365)"><path id="Path_146" data-name="Path 146" d="M45.9,17.618a24.5,24.5,0,0,0-8.953-8.953A24.063,24.063,0,0,0,24.6,5.365a24.066,24.066,0,0,0-12.349,3.3A24.492,24.492,0,0,0,3.3,17.618,24.065,24.065,0,0,0,0,29.966,23.909,23.909,0,0,0,4.693,44.429a24.1,24.1,0,0,0,12.124,8.889,1.434,1.434,0,0,0,1.281-.224,1.253,1.253,0,0,0,.416-.961q0-.1-.016-1.73t-.016-2.85l-.737.127a9.4,9.4,0,0,1-1.778.112,13.546,13.546,0,0,1-2.226-.224,4.975,4.975,0,0,1-2.146-.96,4.064,4.064,0,0,1-1.409-1.97l-.32-.737a8,8,0,0,0-1.009-1.633,3.865,3.865,0,0,0-1.393-1.217l-.224-.161a2.352,2.352,0,0,1-.416-.385,1.757,1.757,0,0,1-.288-.448q-.1-.225.16-.369a2.077,2.077,0,0,1,.929-.143l.64.1a4.676,4.676,0,0,1,1.586.769A5.17,5.17,0,0,1,11.4,42.075a5.647,5.647,0,0,0,1.778,2,3.771,3.771,0,0,0,2.1.688,9.11,9.11,0,0,0,1.826-.16,6.371,6.371,0,0,0,1.441-.481,5.19,5.19,0,0,1,1.569-3.3,21.934,21.934,0,0,1-3.283-.577A13.073,13.073,0,0,1,13.822,39a8.624,8.624,0,0,1-2.579-2.146,10.314,10.314,0,0,1-1.682-3.364,16,16,0,0,1-.657-4.8,9.343,9.343,0,0,1,2.531-6.6,8.611,8.611,0,0,1,.224-6.534,4.489,4.489,0,0,1,2.755.432,19.26,19.26,0,0,1,2.675,1.234q.849.512,1.362.865a23.135,23.135,0,0,1,12.3,0l1.217-.768a17.239,17.239,0,0,1,2.947-1.41,4.2,4.2,0,0,1,2.6-.352,8.528,8.528,0,0,1,.256,6.534,9.345,9.345,0,0,1,2.531,6.6,16.174,16.174,0,0,1-.657,4.821,9.913,9.913,0,0,1-1.7,3.364A8.955,8.955,0,0,1,35.35,39a13.1,13.1,0,0,1-3.011,1.249,21.911,21.911,0,0,1-3.283.577,5.705,5.705,0,0,1,1.665,4.548v6.758a1.276,1.276,0,0,0,.4.961,1.391,1.391,0,0,0,1.265.224,24.091,24.091,0,0,0,12.125-8.889A23.914,23.914,0,0,0,49.2,29.965,24.084,24.084,0,0,0,45.9,17.618Z" transform="translate(0)" fill="#161312"></path></g></g></svg>