<svg xmlns="http://www.w3.org/2000/svg" xmlns:xlink="http://www.w3.org/1999/xlink" width="223.969" height="64" viewBox="0 0 223.969 64"><defs><clipPath id="clip-Greenbytee"><rect width="223.969" height="64"></rect></clipPath></defs><g id="Greenbytee" clip-path="url(#clip-Greenbytee)"><rect width="223.969" height="64" fill="rgba(255,255,255,0)"></rect><g id="greenbyte" transform="translate(0 12)"><path id="Path_35128" data-name="Path 35128" d="M135.994,22.421,126.2,8.4h-4.472V28.827h4.11v-13.9l9.67,13.9H140.1V8.4h-4.11ZM174.793,20,166.7,8.4h-5.077l9.065,12.933v7.494h4.11ZM68.67,18.674V12.51h5.076a3.022,3.022,0,0,1,0,6.043v0H68.67l7.252,10.153h4.956l-4.593-6.527A7.222,7.222,0,0,0,81,15.531,7.068,7.068,0,0,0,73.868,8.4H64.682V28.827h4.11V18.674ZM73.747,18.674ZM215.526,12.51V8.4H201.264V28.827h14.263v-4.11H205.373V20.729h8.1v-4.11h-8.1V12.51ZM103.36,28.827h14.263v-4.11H107.469V20.729h8.1v-4.11h-8.1V12.51h10.153V8.4H103.36Zm-18.372,0H99.25v-4.11H89.1V20.729h8.219v-4.11H89.1V12.51H99.25V8.4H84.988ZM60.572,16.619H52.353v4.11h4.11v2.538A6.18,6.18,0,0,1,48,23.025a6.128,6.128,0,0,1,0-8.7,6.128,6.128,0,0,1,8.7,0l2.9-2.9a10.213,10.213,0,0,0-14.383,14.5,10.213,10.213,0,0,0,14.5,0c.363-.363.6-.725.967-1.088V16.619ZM189.056,8.4h-5.318l-2.9,4.11H187V28.827h4.11V12.51h6.043V8.4h-8.1Zm-29.734,9.67a5.758,5.758,0,0,0,1.088-3.505A6.19,6.19,0,0,0,154.246,8.4H144.093V28.827h11.241a6.19,6.19,0,0,0,6.164-6.164,5.977,5.977,0,0,0-2.176-4.593ZM148.2,12.51h6.164a2.055,2.055,0,0,1,0,4.11H148.2Zm7.131,12.208H148.2v-4.11h7.131a2.118,2.118,0,0,1,2.055,2.055,2.037,2.037,0,0,1-2.055,2.055Z" transform="translate(8.807 1.753)" fill="#161640"></path><g id="Group_1148" data-name="Group 1148" transform="translate(0 0)"><path id="Path_35129" data-name="Path 35129" d="M11.724,29.009A12.222,12.222,0,0,1,29.009,11.724l5.8-5.8A20.613,20.613,0,0,0,20.427,0a20.9,20.9,0,0,0-14.5,5.923A20.9,20.9,0,0,0,0,20.427,20.613,20.613,0,0,0,5.923,34.81a20.1,20.1,0,0,0,14.383,5.923A20.613,20.613,0,0,0,34.689,34.81l-5.681-5.8A12.111,12.111,0,0,1,11.724,29.009Z" transform="translate(0 0)" fill="#39e6ba"></path><path id="Path_35130" data-name="Path 35130" d="M16.9,13.5H33.217v8.219H16.9Z" transform="translate(3.527 2.817)" fill="#39e6ba"></path></g></g></g></svg>