<svg xmlns="http://www.w3.org/2000/svg" width="400" height="400" viewBox="0 0 400 400"><g transform="translate(-72 -390)"><rect width="400" height="400" transform="translate(72 390)" fill="#fff"></rect><g transform="translate(152 470)"><g transform="translate(0)"><path d="M594.87,431.1,513.7,436.227a1.686,1.686,0,0,1-1.811-1.579,1.619,1.619,0,0,1,.424-1.233l52.777-60.328a1.7,1.7,0,0,1,2.389-.154l.038.039c15.448,14.061,26.966,33.978,28.931,56.321a1.686,1.686,0,0,1-1.579,1.811Z" transform="translate(-392.237 -306.557)" fill="#24313e" stroke="#000" stroke-miterlimit="10" stroke-width="2"></path><path d="M423.855,428.97a79.618,79.618,0,1,1-26.35-66.723.732.732,0,0,1,.039,1.04l-.039.039-60.1,61.522a.769.769,0,0,0,0,1.04.732.732,0,0,0,.5.193l85.214,2.157a.7.7,0,0,1,.693.732Z" transform="translate(-240.445 -287.859)" fill="#24313e" stroke="#000" stroke-miterlimit="10" stroke-width="2"></path><path d="M719.162,573.383l-.424.27a2.363,2.363,0,0,1-3.236-.732l-13.175-21.188a2.363,2.363,0,0,1,.732-3.236l.424-.27a2.363,2.363,0,0,1,3.236.732l13.175,21.188A2.283,2.283,0,0,1,719.162,573.383Z" transform="translate(-509.093 -414.358)" fill="#0062ff" stroke="#000" stroke-miterlimit="10" stroke-width="2"></path><path d="M702.168,548.812a2.239,2.239,0,0,1,.693-.655l.424-.27a2.445,2.445,0,0,1,3.39.77h0l13.175,21.188a2.479,2.479,0,0,1-.77,3.39l-.424.27a2.479,2.479,0,0,1-3.39-.771l-13.175-21.188A2.442,2.442,0,0,1,702.168,548.812Zm17.413,23.653a2.211,2.211,0,0,0,.077-2.465l-13.175-21.188a2.194,2.194,0,0,0-3.043-.693l-.424.27a2.194,2.194,0,0,0-.693,3.043L715.5,572.62a2.194,2.194,0,0,0,3.043.693l.424-.27A2.2,2.2,0,0,0,719.581,572.465Z" transform="translate(-508.935 -414.134)" fill="#24313e" stroke="#000" stroke-miterlimit="10" stroke-width="2"></path><g transform="translate(192.964 133.548)" opacity="0.59"><path d="M720.036,572.751a2.147,2.147,0,0,0-.308-1.618l-13.175-21.188a2.355,2.355,0,0,0-3.236-.732l-.424.27a2.378,2.378,0,0,0-.693.693,2.3,2.3,0,0,1,1.079-1.579l.424-.27a2.363,2.363,0,0,1,3.236.732l13.175,21.188A2.354,2.354,0,0,1,720.036,572.751Z" transform="translate(-702.2 -547.968)" fill="#ebf0f5" stroke="#000" stroke-miterlimit="10" stroke-width="2"></path></g><path d="M742.3,544.26h0a2.206,2.206,0,0,1-2.966,1.04l-18.953-9.053a2.206,2.206,0,0,1-1.04-2.966h0a2.206,2.206,0,0,1,2.966-1.04l18.953,9.053A2.286,2.286,0,0,1,742.3,544.26Z" transform="translate(-519.635 -404.613)" fill="#0062ff" stroke="#000" stroke-miterlimit="10" stroke-width="2"></path><path d="M718.7,533.972a2.07,2.07,0,0,1,.193-.809l.193-.385a2.114,2.114,0,0,1,2.812-1h0l19.339,9.246a2.126,2.126,0,0,1,1,2.812h0l-.193.385a2.125,2.125,0,0,1-2.812,1h0l-19.339-9.246A2.084,2.084,0,0,1,718.7,533.972Zm23.5,9.092a1.873,1.873,0,0,0-1.079-1.811l-19.339-9.246a1.883,1.883,0,0,0-2.542.886h0l-.193.385a1.915,1.915,0,0,0,.886,2.543l19.339,9.246a1.915,1.915,0,0,0,2.542-.886L742,543.8a1.883,1.883,0,0,0,.193-.732Z" transform="translate(-519.376 -404.341)" fill="#24313e" stroke="#000" stroke-miterlimit="10" stroke-width="2"></path><g transform="translate(199.396 127.379)" opacity="0.59"><path d="M742.436,543.22a2.112,2.112,0,0,0-.963-1.04l-19.339-9.246a2.041,2.041,0,0,0-2.7.925l-.193.385a2.1,2.1,0,0,0-.193.848,1.972,1.972,0,0,1,.039-1.618l.193-.385a2.008,2.008,0,0,1,2.7-.925l19.339,9.246A1.968,1.968,0,0,1,742.436,543.22Z" transform="translate(-718.897 -531.952)" fill="#ebf0f5" stroke="#000" stroke-miterlimit="10" stroke-width="2"></path></g><path d="M623.562,262.984l.5.039a2.361,2.361,0,0,1,2.119,2.543l-2.234,24.848a2.361,2.361,0,0,1-2.542,2.119l-.5-.039a2.361,2.361,0,0,1-2.119-2.543l2.234-24.848A2.356,2.356,0,0,1,623.562,262.984Z" transform="translate(-457.95 -239.215)" fill="#0062ff" stroke="#000" stroke-miterlimit="10" stroke-width="2"></path><path d="M622.245,292.448a3.8,3.8,0,0,1-.925.116l-.5-.039a2.459,2.459,0,0,1-2.234-2.658l2.234-24.848a2.459,2.459,0,0,1,2.658-2.234l.5.039a2.459,2.459,0,0,1,2.234,2.658h0l-2.234,24.848A2.6,2.6,0,0,1,622.245,292.448Zm.347-29.393a2.172,2.172,0,0,0-.77.424,2.131,2.131,0,0,0-.77,1.5l-2.234,24.848a2.157,2.157,0,0,0,2,2.388l.5.039a2.178,2.178,0,0,0,2.388-2l2.234-24.848a2.157,2.157,0,0,0-2-2.388l-.5-.039A3.16,3.16,0,0,0,622.592,263.055Z" transform="translate(-457.827 -239.094)" fill="#24313e" stroke="#000" stroke-miterlimit="10" stroke-width="2"></path><g transform="translate(160.864 23.885)" opacity="0.59"><path d="M622.66,263.3a2.242,2.242,0,0,0-.732,1.5l-2.234,24.848a2.361,2.361,0,0,0,2.119,2.543h0l.5.039a2.243,2.243,0,0,0,1-.116,2.282,2.282,0,0,1-1.811.616l-.5-.039a2.338,2.338,0,0,1-2.119-2.543h0l2.234-24.848A2.229,2.229,0,0,1,622.66,263.3Z" transform="translate(-618.876 -263.3)" fill="#ebf0f5" stroke="#000" stroke-miterlimit="10" stroke-width="2"></path></g><path d="M657.965,298.7h0a2.194,2.194,0,0,1,.616,3.082l-11.6,17.49a2.194,2.194,0,0,1-3.082.616h0a2.194,2.194,0,0,1-.616-3.082l11.6-17.49A2.227,2.227,0,0,1,657.965,298.7Z" transform="translate(-472.783 -260.95)" fill="#0062ff" stroke="#000" stroke-miterlimit="10" stroke-width="2"></path><path d="M644.507,320.131a1.91,1.91,0,0,1-.771-.308l-.347-.231a2.148,2.148,0,0,1-.616-2.928h0L654.6,298.789a2.148,2.148,0,0,1,2.928-.616h0l.347.231a2.149,2.149,0,0,1,.616,2.928h0l-11.827,17.875A2.082,2.082,0,0,1,644.507,320.131Zm12.25-22.035a1.94,1.94,0,0,0-1.965.809L642.966,316.78a1.874,1.874,0,0,0,.539,2.62h0l.347.231a1.927,1.927,0,0,0,2.658-.539l11.827-17.875a1.874,1.874,0,0,0-.539-2.62h0l-.347-.231A1.866,1.866,0,0,0,656.757,298.1Z" transform="translate(-472.499 -260.651)" fill="#24313e" stroke="#000" stroke-miterlimit="10" stroke-width="2"></path><g transform="translate(170.096 37.305)" opacity="0.59"><path d="M656.961,298.162a1.957,1.957,0,0,0-1.156.848l-11.827,17.875a2,2,0,0,0,.578,2.774h0l.347.231a1.87,1.87,0,0,0,.809.308,2,2,0,0,1-1.618-.27l-.347-.231a2,2,0,0,1-.578-2.774L655,299.048A1.9,1.9,0,0,1,656.961,298.162Z" transform="translate(-642.838 -298.138)" fill="#ebf0f5" stroke="#000" stroke-miterlimit="10" stroke-width="2"></path></g><path d="M597.076,426.911,517.1,432.227a1.686,1.686,0,0,1-1.811-1.579,1.618,1.618,0,0,1,.424-1.233l52.777-60.328a1.7,1.7,0,0,1,2.388-.154l.039.039a85.662,85.662,0,0,1,27.737,56.09,1.721,1.721,0,0,1-1.579,1.849Z" transform="translate(-394.327 -304.098)" fill="#ebf0f5" stroke="#000" stroke-miterlimit="10" stroke-width="2"></path><path d="M431.355,421.47a79.618,79.618,0,1,1-26.35-66.723.732.732,0,0,1,.039,1.04l-.039.039-60.1,61.522a.769.769,0,0,0,0,1.04.732.732,0,0,0,.5.193l85.214,2.157a.7.7,0,0,1,.693.732C431.394,421.432,431.394,421.432,431.355,421.47Z" transform="translate(-245.056 -283.248)" fill="#9caab8" stroke="#000" stroke-miterlimit="10" stroke-width="2"></path><path d="M327.324,489.865a79.673,79.673,0,1,1,57.207-148.508,79.7,79.7,0,0,0-57.207,148.508Z" transform="translate(-245.115 -283.187)" fill="#ebf0f5" opacity="0.2"></path><path d="M543.294,559.026l-78.125-2.08a4.376,4.376,0,0,1-4.238-4.353l-.231-.193,85.946,2.273.231.886a3.453,3.453,0,0,1-3.467,3.467Z" transform="translate(-360.77 -417.144)" fill="#ebf0f5" opacity="0.2"></path><path d="M598.125,507.1,515.3,516.808v1.5l82.825-4.97C598.125,513.3,599.127,509.758,598.125,507.1Z" transform="translate(-394.336 -389.295)" fill="#455666" stroke="#000" stroke-miterlimit="10" stroke-width="2" opacity="0.43"></path><rect width="239.385" height="239.385" fill="none"></rect></g></g></g></svg>