<svg xmlns="http://www.w3.org/2000/svg" width="400" height="400" viewBox="0 0 400 400"><g transform="translate(-554 -390)"><rect width="400" height="400" transform="translate(554 390)" fill="#fff"></rect><g transform="translate(639.539 462)"><g transform="translate(0)"><path d="M566.728,279.768l1.532,1.283a2.578,2.578,0,0,1,.373,3.643l-33.117,40.155a2.578,2.578,0,0,1-3.643.373l-1.532-1.283a2.578,2.578,0,0,1-.373-3.643l33.117-40.155A2.575,2.575,0,0,1,566.728,279.768Z" transform="translate(-402.839 -257.93)" fill="#0062ff" stroke="#24313e" stroke-miterlimit="10" stroke-width="2"></path><path d="M418.233,240.613l1.863-.787a2.605,2.605,0,0,1,3.395,1.407l14.779,35.311a2.605,2.605,0,0,1-1.407,3.395l-1.863.786a2.605,2.605,0,0,1-3.395-1.407l-14.779-35.311A2.634,2.634,0,0,1,418.233,240.613Z" transform="translate(-336.765 -234.753)" fill="#0062ff" stroke="#24313e" stroke-miterlimit="10" stroke-width="2"></path><path d="M526.223,228.034l1.863.745a2.605,2.605,0,0,1,1.407,3.395l-13.7,33.283a2.605,2.605,0,0,1-3.394,1.408l-1.863-.745a2.605,2.605,0,0,1-1.407-3.395l13.7-33.283A2.641,2.641,0,0,1,526.223,228.034Z" transform="translate(-390.856 -227.846)" fill="#0062ff" stroke="#24313e" stroke-miterlimit="10" stroke-width="2"></path><path d="M348.212,291.574l1.449-1.366a2.613,2.613,0,0,1,3.684.124l35.56,38a2.613,2.613,0,0,1-.124,3.684l-1.449,1.366a2.613,2.613,0,0,1-3.684-.124l-35.56-38A2.575,2.575,0,0,1,348.212,291.574Z" transform="translate(-296.176 -263.982)" fill="#0062ff" stroke="#24313e" stroke-miterlimit="10" stroke-width="2"></path><path d="M444.583,614.187h0a13.353,13.353,0,0,1-2.9-2.815c-10.432-10.142-45.619-44-53.65-47.9-9.438-4.554-13.826,3.063-13.826,3.063-14.944,18.835-27.612,11.715-28.936,9.438-1.283-2.277,1.283-11.384,5.216-14.282,2.028-1.532,2.732-4.14,2.939-6.375a16.715,16.715,0,0,1,4.843-10.266,19.157,19.157,0,0,1,1.863-1.739L316.212,538.1s-3.767,38.416-20.326,62.55l-.787,1.118a70.506,70.506,0,0,1,18.463,8.238l1.573.952,7.327,4.471c1.366.828,2.732,1.656,4.14,2.484l11.177,6.706,3.229,1.9,12.874,7.534c1.449.828,2.815,1.615,4.222,2.4l12.171,6.623,1.283.662a38.714,38.714,0,0,0,8.2,3.353,73.709,73.709,0,0,0,11.384,1.946c1.076.124,6.541-1.407,7.162-3.519.29-.952.331-1.7-.041-2.028l-18.835-14.613h0l.041.041c8.031,5.3,24.383,18.835,27.2,17.8a14.469,14.469,0,0,0,3.395-1.7h0c6.913-4.8-.331-12.295-.331-12.295l-32.5-27.446,39.2,32.372a9.914,9.914,0,0,0,7.369,2.277,8.73,8.73,0,0,0,6.085-3.436c4.471-5.754,2.939-8.238,0-11.094-1.656-1.615-12.916-11.218-22.6-19.622,2.939,2.567,6.127,5.257,9.356,7.907l.166.124c4.015,3.312,8.072,6.541,11.757,9.19l.29.207c4.264,3.1,7.99,5.423,10.391,6.21h.041a4.442,4.442,0,0,0,1.946.248,9.8,9.8,0,0,0,2.649-1.035C449.137,625.778,451.041,618.658,444.583,614.187Zm-47.027-16.931.455.414C397.846,597.5,397.681,597.38,397.557,597.256Zm.952.828c.166.124.331.29.538.455A6.175,6.175,0,0,1,398.509,598.084Zm.538.5,4.388,3.809C401.9,601.064,400.289,599.657,399.047,598.58Zm4.388,3.809c.455.414.911.786,1.325,1.159Z" transform="translate(-265.543 -409.665)" fill="#9caab8" stroke="#24313e" stroke-miterlimit="10" stroke-width="2"></path><path d="M342.642,542.5s5.382-.083,13.826,2.856,16.393-.5,22.313.911a43.8,43.8,0,0,0,7.907,1.366s-1.118,4.885-4.926,5.216-12.171,0-12.171,0a105.756,105.756,0,0,1-13.744-2.608c-5.506-1.615-11.384-1.615-12.005-1.283-.662.331-3.643-1.2-3.643-1.2Z" transform="translate(-291.973 -412.244)" fill="#ebf0f5" opacity="0.22"></path><path d="M541.525,588.152l-8.776,5.837-13.868,8.983-3.684,2.4h0c-.124-.083-1.159-1.118-2.9-2.815-10.432-10.142-45.619-44-53.65-47.9-9.438-4.554-13.826,3.063-13.826,3.063-12.005,15.11-22.52,13.5-26.866,11.094a5.216,5.216,0,0,1-2.028-1.7c-1.283-2.277,1.283-11.384,5.216-14.282,2.028-1.532,2.732-4.14,2.939-6.375a16.94,16.94,0,0,1,4.843-10.266c.538-.58,1.159-1.118,1.863-1.739,4.015-3.477,10.142-7.327,19.291-9.935,20.822-5.878,38.664,7.824,38.664,7.824l20.491-1.283,11.715,20.657.041.041h0Z" transform="translate(-336.157 -400.851)" fill="#ebf0f5" stroke="#24313e" stroke-miterlimit="10" stroke-width="2"></path><path d="M400.113,735.786h0a.488.488,0,0,1-.248.621.706.706,0,0,1-.414,0l-.248-.124-12.171-6.623c-1.366-.786-2.774-1.573-4.222-2.4l-12.874-7.576-3.229-1.9-11.177-6.706c-1.407-.828-2.774-1.7-4.14-2.484l-6.706-4.1a.467.467,0,0,1-.166-.621c.041-.041.083-.124.166-.166,2.774-1.7,5.506-3.229,6.789-4.057,2.318-1.532,7.534-1.614,10.059-2.691a.488.488,0,0,1,.621.248.575.575,0,0,1,0,.373c-1.408,3.229-4.471,10.225-2.856,11.839,4.554,4.554,14.737-4.429,15.317-5.133a11.637,11.637,0,0,1,2.525-1.615.467.467,0,0,1,.621.166.448.448,0,0,1,0,.455c-1.78,3.146-4.719,8.238-3.188,12.295,1.614,4.347,13.206-2.194,17.262-5.34a.466.466,0,0,1,.662.083.51.51,0,0,1,.083.414c-1.242,3.477-3.1,9.356-2.07,12.916s11.591-3.312,16.352-7.369a.462.462,0,0,1,.662.041.438.438,0,0,1,.041.538C404.584,722.208,398.706,732.764,400.113,735.786Z" transform="translate(-294.469 -502.742)" fill="#455666" opacity="0.6"></path><path d="M433.458,711.679,422.612,725.3l-2.774,3.767a6.028,6.028,0,0,1-8.445,1.283h0l-1.283-.952a6.028,6.028,0,0,1-1.283-8.445h0l1.656-2.235,13.909-13.7a4.97,4.97,0,0,1,6.955-1.076l1.076.787a4.957,4.957,0,0,1,1.035,6.955Z" transform="translate(-331.498 -506.288)" fill="#ebf0f5" stroke="#24313e" stroke-miterlimit="10" stroke-width="2"></path><path d="M398.765,694.379l-9.894,13-2.732,3.726a6.028,6.028,0,0,1-8.445,1.283h0l-1.283-.952a6.028,6.028,0,0,1-1.283-8.445h0l1.656-2.235,12.957-13.04a4.97,4.97,0,0,1,6.955-1.076h0l1.076.787A5.025,5.025,0,0,1,398.765,694.379Z" transform="translate(-311.749 -496.149)" fill="#ebf0f5" stroke="#24313e" stroke-miterlimit="10" stroke-width="2"></path><path d="M361.736,684.237l-6.623,8.445-2.774,3.767a6.028,6.028,0,0,1-8.445,1.283l-1.283-.952a6.028,6.028,0,0,1-1.283-8.445h0l1.656-2.235,9.687-8.486a4.97,4.97,0,0,1,6.955-1.076l1.076.787a4.939,4.939,0,0,1,1.035,6.913Z" transform="translate(-291.941 -490.23)" fill="#ebf0f5" stroke="#24313e" stroke-miterlimit="10" stroke-width="2"></path><path d="M274.369,521.908s-.414,4.305-1.614,10.929c-1.78,9.935-5.257,25.045-11.55,38.789-.414.911-.828,1.78-1.283,2.691a85.028,85.028,0,0,1-5.878,10.142l-.787,1.118-4.222,6.5L223.7,583.3l9.231-25.459,14.53-40.031,2.691-7.41Z" transform="translate(-223.7 -393.432)" fill="#24313e" stroke="#031439" stroke-miterlimit="10" stroke-width="2"></path><path d="M468.014,724.979l-12.5,15.9-2.774,3.767a6.028,6.028,0,0,1-8.445,1.283h0l-1.283-.952a6.028,6.028,0,0,1-1.283-8.445h0l1.656-2.235,15.565-15.979a4.97,4.97,0,0,1,6.955-1.076h0l1.076.786a4.957,4.957,0,0,1,1.035,6.955Z" transform="translate(-350.779 -514.082)" fill="#ebf0f5" stroke="#24313e" stroke-miterlimit="10" stroke-width="2"></path><path d="M589.516,712.286a10.363,10.363,0,0,1-2.649,1.035,3.445,3.445,0,0,1-1.946-.248h-.041c-2.691-.994-6.334-3.27-10.391-6.209l-.29-.207c-3.767-2.691-7.824-5.961-11.757-9.19l-.166-.124c-9.852-8.155-18.628-16.393-18.877-16.641l34.4,26a31.375,31.375,0,0,0,10.308,5.175Z" transform="translate(-411.055 -493.234)" fill="#455666" opacity="0.6"></path><path d="M545.575,735.545a17.693,17.693,0,0,1-3.395.828,3.8,3.8,0,0,1-2.111.166,28,28,0,0,1-3.56-1.283c-2.277-1.739-4.305-3.395-8.321-6.292a1.257,1.257,0,0,0-.29-.207c-3.767-2.691-7.824-5.961-11.757-9.19l-.166-.124c-9.852-8.155-18.628-16.393-18.877-16.641l34.442,26a42.291,42.291,0,0,0,11.922,6.127Z" transform="translate(-383.922 -506.185)" fill="#455666" opacity="0.6"></path><path d="M517.694,772.213c.373.331.29,1.076.041,2.028-7.244-6.375-18.339-16.186-18.835-16.641Z" transform="translate(-384.977 -538.3)" fill="#455666" opacity="0.6"></path><path d="M529.692,773.8a15.312,15.312,0,0,1-3.394,1.7c-2.856,1.035-19.167-12.5-27.2-17.8,1.366.828,18.628,11.757,22.975,14.24C526.5,774.507,529.568,773.845,529.692,773.8Z" transform="translate(-385.094 -538.359)" fill="#455666" opacity="0.6"></path><path d="M549.392,628.924l-1.242.58-16.476,10.68-3.726,2.4h0l-.041-.041c-.207-.207-1.242-1.2-2.9-2.815-10.349-10.059-45.578-43.922-53.567-47.813-9.438-4.554-13.826,3.063-13.826,3.063-12.005,15.11-22.271,12.129-19.829,11.384,10.722-3.395,10.722-3.56,17.552-13.661s16.559-4.554,16.559-4.554,25,18.173,42.349,33.2c13.785,6.913,32.165,6.044,32.165,6.044Z" transform="translate(-348.95 -438.105)" fill="#24313e" opacity="0.36"></path><path d="M659.884,716h0l-3.684,2.4h0Z" transform="translate(-477.16 -513.921)" fill="#455666" opacity="0.36"></path><path d="M612.75,542.5l11.715,20.657a44.451,44.451,0,0,0-11.053-11.881c-7.162-5.216-21.112-7.493-21.112-7.493Z" transform="translate(-439.712 -412.244)" fill="#ebf0f5" opacity="0.4"></path><path d="M670.041,592.483h0c0-.041-.041-.041-.041-.083Z" transform="translate(-485.247 -441.487)" fill="#455666"></path><path d="M365.956,698.091,361.9,703.6l-2.774,3.767a5.936,5.936,0,0,1-4.347,2.443c-1.407-.207-2.608-.414-2.939-1.366s1.283-5.506,4.222-7.162c2.939-1.615,2.939,0,5.961-1.2,3.063-1.2,3.85-5.216,3.85-5.216a7.788,7.788,0,0,1,.952-.662A4.843,4.843,0,0,1,365.956,698.091Z" transform="translate(-298.769 -501.145)" fill="#455666" opacity="0.21"></path><path d="M403.1,701.4l-6.251,8.983-3.933,5.671c-1.532,2.194-3.395,3.477-5.133,3.684-1.366-.331-2.484-.621-2.484-2.07,0-1.49,1.987-1.7,5.423-4.14,3.436-2.484,2.691-1.366,6.416-5.3,2.9-3.063,7-11.632,7-11.632a13.335,13.335,0,0,1,1.159-.994A12.891,12.891,0,0,1,403.1,701.4Z" transform="translate(-318.403 -501.966)" fill="#455666" opacity="0.21"></path><path d="M436.656,720.089l-6.5,8.735-4.1,5.506c-1.614,2.153-3.519,3.395-5.216,3.6-1.366-.331-2.442-.621-2.442-1.987.041-1.449,2.028-1.656,5.506-4.015,3.519-2.4,2.732-1.325,6.541-5.175,2.981-2.98,7.286-11.3,7.286-11.3a12.877,12.877,0,0,1,1.159-.952A12.18,12.18,0,0,1,436.656,720.089Z" transform="translate(-337.801 -513.042)" fill="#455666" opacity="0.21"></path><path d="M469.558,733.985l-8.2,12.792-3.022,2.939c-1.656,2.318-3.6,3.643-5.34,3.85-1.325-.373-2.442-.662-2.4-2.153.041-1.532,2.07-1.78,5.63-4.347s3.063-1.863,6.955-5.961c3.022-3.188,7.576-12.171,7.576-12.171a14.348,14.348,0,0,1,1.2-1.035A13.458,13.458,0,0,1,469.558,733.985Z" transform="translate(-356.67 -520.895)" fill="#455666" opacity="0.21"></path><path d="M259.922,641.476a85.038,85.038,0,0,1-5.878,10.142l-.787,1.118-4.222,6.5L223.7,650.459,232.931,625s-6.748,23.43,7.907,26.411C251.643,653.6,257.562,645.781,259.922,641.476Z" transform="translate(-223.7 -460.592)" fill="#455666" opacity="0.21"></path><path d="M307.949,521.85s-.414,4.305-1.615,10.929a21.32,21.32,0,0,0-4.429-5.92c-10.059-9.728-10.059,0-17.552-7.162A8.406,8.406,0,0,0,281,517.71l2.691-7.41Z" transform="translate(-257.28 -393.374)" fill="#ebf0f5" opacity="0.22"></path><path d="M697.585,576.576l-26.328,11.715c-3.767-3.353-7.286-8.279-10.515-13.909h0C649.069,553.849,641.7,523.63,641.7,523.63l19.167-13.33c3.436,10.018,12.833,26.908,21.236,41.107C690.3,565.275,697.585,576.576,697.585,576.576Z" transform="translate(-468.662 -393.374)" fill="#24313e" stroke="#031439" stroke-miterlimit="10" stroke-width="2"></path><path d="M724.543,634.769l-26.328,11.715c-3.767-3.353-7.286-8.279-10.515-13.909.166.248,4.388,6.168,14.24.745,10.059-5.506,7.079-23.72,7.079-23.72C717.257,623.468,724.543,634.769,724.543,634.769Z" transform="translate(-495.62 -451.567)" fill="#24313e" opacity="0.36"></path><path d="M665.089,520.377c-1.615.083-8.321,2.774-15.524,4.347s-7.865-.373-7.865-.373L660.867,510.4Z" transform="translate(-468.662 -393.432)" fill="#ebf0f5" opacity="0.22"></path><path d="M565.529,279.8a3.122,3.122,0,0,0-1.076.869L532.164,319.83a3.191,3.191,0,0,0,.455,4.554h0l.538.455a3.285,3.285,0,0,0,2.194.745,3.141,3.141,0,0,1-3.477-.414l-.538-.414a3.268,3.268,0,0,1-.455-4.554h0l32.289-39.161A2.941,2.941,0,0,1,565.529,279.8Z" transform="translate(-403.296 -258.293)" fill="#ebf0f5" opacity="0.59"></path><path d="M436.146,280.827l-.166.083a3.255,3.255,0,0,1-4.264-1.739l-14.282-34.111a3.255,3.255,0,0,1,1.739-4.264l.662-.248a2.733,2.733,0,0,1,1.118-.248l-.455.207a3.255,3.255,0,0,0-1.739,4.264l14.282,34.111A3.239,3.239,0,0,0,436.146,280.827Z" transform="translate(-337.084 -235.144)" fill="#ebf0f5" opacity="0.59"></path><path d="M525.83,228.4a3.161,3.161,0,0,0-1.573,1.7l-13.206,32.041a3.214,3.214,0,0,0,1.78,4.222l.662.248a3.805,3.805,0,0,0,1.366.248,3.127,3.127,0,0,1-2.649.083l-.662-.248a3.248,3.248,0,0,1-1.78-4.222h0l13.206-32.041A3.139,3.139,0,0,1,525.83,228.4Z" transform="translate(-391.208 -228.171)" fill="#ebf0f5" opacity="0.59"></path><path d="M387.35,333.815a3.29,3.29,0,0,1-3.808-.7l-34.69-37.05a3.226,3.226,0,0,1,.166-4.6h0l.538-.5a3.33,3.33,0,0,1,2.111-.869,3.318,3.318,0,0,0-.787.538l-.538.5a3.263,3.263,0,0,0-.166,4.6h0l34.69,37.05A3.113,3.113,0,0,0,387.35,333.815Z" transform="translate(-296.526 -264.329)" fill="#ebf0f5" opacity="0.59"></path></g></g></g></svg>