<svg xmlns="http://www.w3.org/2000/svg" width="400" height="400" viewBox="0 0 400 400"><g transform="translate(-536 -440)"><rect width="400" height="400" transform="translate(536 440)" fill="#fff"></rect><g transform="translate(613 520)"><g transform="translate(0)"><path d="M478.707,355.031a33.18,33.18,0,0,0-2.2-17.177,39.81,39.81,0,0,0-24.916-22.669,32.735,32.735,0,0,0-17.277-.549,16.949,16.949,0,0,1-5.492.449,19.378,19.378,0,0,1-5.293-1.2,17.905,17.905,0,0,1-4.744-2.7,19.431,19.431,0,0,1-3.895-3.945,57.233,57.233,0,0,0-32.506-21.221,71.307,71.307,0,0,0-38.4,1.7,69.276,69.276,0,0,0-31.957,21.121,56.725,56.725,0,0,0-13.182,37.15,21.156,21.156,0,0,1-.549,4.694,19.935,19.935,0,0,1-1.648,4.344,18.177,18.177,0,0,1-2.646,3.845,19.263,19.263,0,0,1-3.5,3.2,48.713,48.713,0,0,0-18.725,27.313,60.082,60.082,0,0,0,.8,32.805,55.7,55.7,0,0,0,18.026,27.263,48.859,48.859,0,0,0,32.955,10.685H458.484v-.1c12.133.749,22.22-2.8,29.959-8.888a48.1,48.1,0,0,0,15.928-24.317,53.357,53.357,0,0,0,.3-29.36,42.649,42.649,0,0,0-16.927-23.967,22.144,22.144,0,0,1-4.144-3.645,20.647,20.647,0,0,1-3.046-4.444,18.213,18.213,0,0,1-1.7-5.043A15.934,15.934,0,0,1,478.707,355.031Z" transform="translate(-259.837 -282.669)" fill="#24313e"></path><path d="M467.257,355.031a33.18,33.18,0,0,0-2.2-17.177,39.811,39.811,0,0,0-24.916-22.669,32.735,32.735,0,0,0-17.277-.549,16.949,16.949,0,0,1-5.493.449,19.376,19.376,0,0,1-5.293-1.2,17.9,17.9,0,0,1-4.744-2.7,19.432,19.432,0,0,1-3.895-3.945,57.233,57.233,0,0,0-32.506-21.221,71.1,71.1,0,0,0-38.348,1.7,69.276,69.276,0,0,0-31.957,21.121,56.724,56.724,0,0,0-13.182,37.15,21.155,21.155,0,0,1-.549,4.694,19.932,19.932,0,0,1-1.648,4.344,18.178,18.178,0,0,1-2.646,3.845,21.259,21.259,0,0,1-3.5,3.2,48.713,48.713,0,0,0-18.725,27.313,60.082,60.082,0,0,0,.8,32.805,55.7,55.7,0,0,0,18.026,27.263,48.859,48.859,0,0,0,32.955,10.685H447.084v-.1c12.134.749,22.22-2.8,29.959-8.888a48.1,48.1,0,0,0,15.928-24.317,53.361,53.361,0,0,0,.3-29.36,42.414,42.414,0,0,0-16.927-23.967,22.145,22.145,0,0,1-4.144-3.645,20.642,20.642,0,0,1-3.046-4.444,18.214,18.214,0,0,1-1.7-5.043A12.807,12.807,0,0,1,467.257,355.031Z" transform="translate(-254.129 -282.669)" fill="#0062ff" stroke="#24313e" stroke-miterlimit="10" stroke-width="2"></path><g opacity="0.33"><rect width="145.546" height="179.591" fill="none"></rect></g><path d="M507.037,405.643v51.43H495.9V407.241a30.534,30.534,0,0,0-61.067,0v49.832H423.7v-51.43a41.668,41.668,0,0,1,83.337,0Z" transform="translate(-336.851 -322.646)" fill="#455666" opacity="0.33"></path><path d="M402.041,548.8H503.853a6.713,6.713,0,0,1,6.741,6.741v92.025a6.713,6.713,0,0,1-6.741,6.741H402.041a6.713,6.713,0,0,1-6.741-6.741V555.541A6.745,6.745,0,0,1,402.041,548.8Z" transform="translate(-322.632 -415.172)" fill="#455666" opacity="0.33"></path><path d="M497.185,405.291v51.43H486.05V406.889a30.509,30.509,0,1,0-61.017,0v49.832H413.9v-51.43a41.645,41.645,0,0,1,83.287-.7Z" transform="translate(-331.943 -322.294)" fill="#9caab8" stroke="#24313e" stroke-miterlimit="10" stroke-width="2"></path><path d="M486.285,405.291v51.43H475.15V406.889a30.509,30.509,0,1,0-61.017,0v49.832H403v-51.43a41.645,41.645,0,0,1,83.287-.7Z" transform="translate(-326.485 -322.294)" fill="#d9dee5" stroke="#24313e" stroke-miterlimit="10" stroke-width="2"></path><path d="M392.141,548.8H493.953a6.713,6.713,0,0,1,6.741,6.741v92.025a6.713,6.713,0,0,1-6.741,6.741H392.141a6.713,6.713,0,0,1-6.741-6.741V555.541A6.745,6.745,0,0,1,392.141,548.8Z" transform="translate(-317.675 -415.172)" fill="#9caab8" stroke="#24313e" stroke-miterlimit="10" stroke-width="2"></path><path d="M372.541,549.3H474.353a6.713,6.713,0,0,1,6.741,6.741v92.025a6.713,6.713,0,0,1-6.741,6.741H372.541a6.713,6.713,0,0,1-6.741-6.741V556.041A6.745,6.745,0,0,1,372.541,549.3Z" transform="translate(-307.862 -415.422)" fill="#ebf0f5" stroke="#24313e" stroke-miterlimit="10" stroke-width="2"></path><path d="M478.059,574.652a2.331,2.331,0,0,0-1.548-1.947l-.15-.05a2.064,2.064,0,0,0-.949-.1c-19.673,1.248-28.062-2.6-31.457-5.343l-.2-.15a1.3,1.3,0,0,0-1.748,0c-.05.05-.15.1-.2.2-3.545,2.846-12.383,6.841-33.7,5.193,0,0-11.434,59.369,33.7,81.389a10.682,10.682,0,0,0,1.1.5c.35-.15.749-.35,1.1-.5C483.851,634.321,479.606,585.737,478.059,574.652Zm-32.805,30.209v23.368H440.01V604.861A6.9,6.9,0,1,1,449,601.066a6.668,6.668,0,0,1-3.745,3.795Z" transform="translate(-328.395 -424.146)" fill="#0062ff" stroke="#24313e" stroke-miterlimit="10" stroke-width="2"></path><path d="M477.807,572.5c-20.223,5.792-33.6-4.094-33.6-4.094-20.322,11.934-34.8,3.745-34.8,3.745,21.321,1.7,30.159-2.347,33.7-5.193a.39.39,0,0,0,.2-.2,1.3,1.3,0,0,1,1.748,0l.2.15c3.4,2.746,11.784,6.591,31.457,5.343a3.071,3.071,0,0,1,.949.1Z" transform="translate(-329.691 -423.996)" fill="#fff" opacity="0.5"></path><path d="M486.287,405.643v3.695a41.643,41.643,0,0,0-83.287,0v-3.695a41.643,41.643,0,0,1,83.287,0Z" transform="translate(-326.487 -322.646)" fill="#fff" opacity="0.5"></path><path d="M486.475,756.947l-110.7.4a.3.3,0,0,1-.2-.05l-3-2.3a.26.26,0,0,1-.05-.4.382.382,0,0,1,.25-.1H488.373a.654.654,0,0,1,.649.6.626.626,0,0,1-.3.549l-2.1,1.248A.183.183,0,0,1,486.475,756.947Z" transform="translate(-311.196 -518.161)" fill="#455666" opacity="0.33"></path><path d="M418.658,547.248H403.429c-.5-1.248,0,.05,0,0l-.35-1.148a.863.863,0,0,1,.05-.5h16.378c.1,0,.1.849.05,1.148l-.05.5C419.707,546.449,418.658,547.248,418.658,547.248Z" transform="translate(-326.516 -413.57)" fill="#455666" opacity="0.33"></path><path d="M563.008,547.248H547.729c-.5-1.248,0,.05,0,0l-.35-1.148a.863.863,0,0,1,.05-.5h16.478c.1,0,.1.849.05,1.148l-.05.5C564.057,546.449,563.008,547.248,563.008,547.248Z" transform="translate(-398.764 -413.57)" fill="#455666" opacity="0.33"></path><g transform="translate(58.488 134.527)" opacity="0.39"><path d="M366.9,643.823h0V558.639a7.843,7.843,0,0,1,7.939-7.839l98.516-.2a.722.722,0,0,1,.35.1l1.748.8a.859.859,0,0,1,.449,1.148.874.874,0,0,1-.749.5l-100.314,2.2a3.346,3.346,0,0,0-3.345,3.345l-2.9,84.985a.854.854,0,0,1-.9.849A.9.9,0,0,1,366.9,643.823Z" transform="translate(-366.9 -550.6)" fill="#ebf0f5"></path></g></g></g></g></svg>