<svg xmlns="http://www.w3.org/2000/svg" width="400" height="400" viewBox="0 0 400 400"><g transform="translate(-1154 -431)"><rect width="400" height="400" transform="translate(1154 431)" fill="#fff"></rect><g transform="translate(1246 511)"><g transform="translate(0)"><path d="M309.291,357.922,298.9,353.776a5.087,5.087,0,0,1-2.847-6.543c.05-.05.05-.15.1-.2a118.417,118.417,0,0,1,195.939-30.467L476.311,330.8a97.114,97.114,0,0,0-160.477,24.474A5.116,5.116,0,0,1,309.291,357.922Z" transform="translate(-295.712 -274.769)" fill="#24313e" stroke="#031439" stroke-miterlimit="10" stroke-width="2"></path><path d="M630.132,363.615,665.494,380.8a2.736,2.736,0,0,0,3.646-1.249,2.69,2.69,0,0,0,.25-1.4l-2.8-39.208a2.734,2.734,0,0,0-2.9-2.547,3.087,3.087,0,0,0-1.349.45L629.783,358.87a2.737,2.737,0,0,0-.749,3.8A3.364,3.364,0,0,0,630.132,363.615Z" transform="translate(-462.319 -304.336)" fill="#24313e" stroke="#031439" stroke-miterlimit="10" stroke-width="2"></path><path d="M422.553,672.76A118.252,118.252,0,0,1,332.6,631.3l16.183-13.835a97.152,97.152,0,0,0,136.952,10.688,95.773,95.773,0,0,0,24.074-31.116,5.061,5.061,0,0,1,6.543-2.447l10.239,4.445a5.063,5.063,0,0,1,2.647,6.643c-.05.05-.05.15-.1.2A118.052,118.052,0,0,1,422.553,672.76Z" transform="translate(-314.176 -433.375)" fill="#24313e" stroke="#031439" stroke-miterlimit="10" stroke-width="2"></path><path d="M351.7,616.724l-34.912-18.031a2.771,2.771,0,0,0-3.7,1.149,2.725,2.725,0,0,0-.3,1.4l1.8,39.258a2.7,2.7,0,0,0,2.847,2.6,2.647,2.647,0,0,0,1.349-.4L351.9,621.469a2.743,2.743,0,0,0,.849-3.8A3.191,3.191,0,0,0,351.7,616.724Z" transform="translate(-304.256 -435.477)" fill="#24313e" stroke="#031439" stroke-miterlimit="10" stroke-width="2"></path><path d="M397,453.051a5.673,5.673,0,0,0,4.845,5.494l9.29,1.4a5.647,5.647,0,0,1,4,2.7l13.036,21.677a5.7,5.7,0,0,1,.5,4.845l-1.2,3.4h.6v16.332s12.886.9,14.634-1.249l5.844-7.192a5.6,5.6,0,0,1,4.3-2.1l29.618-.3V509.39l9.939-.2a5.539,5.539,0,0,0,3.546-.749l7.342-4.3a5.683,5.683,0,0,0,2.447-6.893l-3.246-8.541a5.645,5.645,0,0,1,.35-4.745l12.886-23.225a5.5,5.5,0,0,1,3.9-2.8l9.14-1.8a5.655,5.655,0,0,0,4.6-5.694l-.15-8.491a5.673,5.673,0,0,0-4.845-5.494l-9.29-1.4a5.55,5.55,0,0,1-4-2.7L502.036,410.7a5.7,5.7,0,0,1-.5-4.845l3.2-8.89a5.613,5.613,0,0,0-2.6-6.843l-7.442-4.146c-1.448-.8-12.337-.45-12.337-.45v11.288l-30.317.3a5.641,5.641,0,0,1-4.445-2l-6.143-7.292a5.7,5.7,0,0,0-5.544-1.9h-8.691v16.332h-1.049l1.548,4.046a5.645,5.645,0,0,1-.35,4.745L414.48,434.271a5.635,5.635,0,0,1-3.9,2.8l-9.19,1.748a5.655,5.655,0,0,0-4.6,5.694Zm68.177-28.869a23.332,23.332,0,0,1,.8,46.65h-.849a23.332,23.332,0,0,1-.8-46.65Z" transform="translate(-346.31 -328.892)" fill="#24313e" stroke="#031439" stroke-miterlimit="10" stroke-width="2"></path><path d="M375.7,452.9a5.673,5.673,0,0,0,4.845,5.494l9.29,1.4a5.647,5.647,0,0,1,4,2.7l13.036,21.677a5.7,5.7,0,0,1,.5,4.845l-3.2,8.89a5.645,5.645,0,0,0,2.547,6.843l7.442,4.146a5.7,5.7,0,0,0,7.192-1.4l5.844-7.192a5.6,5.6,0,0,1,4.3-2.1l25.373-.45a5.851,5.851,0,0,1,4.445,2.048l6.143,7.292a5.673,5.673,0,0,0,7.192,1.249l7.342-4.345a5.626,5.626,0,0,0,2.447-6.893l-3.247-8.541a5.645,5.645,0,0,1,.35-4.745l12.886-23.225a5.5,5.5,0,0,1,3.9-2.8l9.19-1.748a5.609,5.609,0,0,0,4.6-5.694l-.15-8.491a5.673,5.673,0,0,0-4.845-5.494l-9.29-1.4a5.648,5.648,0,0,1-4-2.7l-13.036-21.677a5.7,5.7,0,0,1-.5-4.845l3.2-8.89a5.613,5.613,0,0,0-2.6-6.843l-7.442-4.146a5.64,5.64,0,0,0-7.192,1.4l-5.844,7.192a5.6,5.6,0,0,1-4.3,2.1l-25.373.45a5.641,5.641,0,0,1-4.445-2l-6.143-7.292a5.673,5.673,0,0,0-7.192-1.249l-7.342,4.3a5.626,5.626,0,0,0-2.447,6.893l3.246,8.541a5.645,5.645,0,0,1-.35,4.745L393.18,434.166a5.635,5.635,0,0,1-3.9,2.8l-9.19,1.748a5.655,5.655,0,0,0-4.6,5.694Zm68.177-28.869a23.332,23.332,0,0,1,.8,46.65h-.9a23.332,23.332,0,0,1-.8-46.65Z" transform="translate(-335.648 -328.737)" fill="#ebf0f5" stroke="#24313e" stroke-miterlimit="10" stroke-width="2"></path><path d="M375.7,452.9a5.673,5.673,0,0,0,4.845,5.494l9.29,1.4a5.647,5.647,0,0,1,4,2.7l13.036,21.677a5.7,5.7,0,0,1,.5,4.845l-3.2,8.89a5.645,5.645,0,0,0,2.547,6.843l7.442,4.146a5.7,5.7,0,0,0,7.192-1.4l5.844-7.192a5.6,5.6,0,0,1,4.3-2.1l25.373-.45a5.851,5.851,0,0,1,4.445,2.048l6.143,7.292a5.673,5.673,0,0,0,7.192,1.249l7.342-4.345a5.626,5.626,0,0,0,2.447-6.893l-3.247-8.541a5.645,5.645,0,0,1,.35-4.745l12.886-23.225a5.5,5.5,0,0,1,3.9-2.8l9.19-1.748a5.609,5.609,0,0,0,4.6-5.694l-.15-8.491a5.673,5.673,0,0,0-4.845-5.494l-9.29-1.4a5.648,5.648,0,0,1-4-2.7l-13.036-21.677a5.7,5.7,0,0,1-.5-4.845l3.2-8.89a5.613,5.613,0,0,0-2.6-6.843l-7.442-4.146a5.64,5.64,0,0,0-7.192,1.4l-5.844,7.192a5.6,5.6,0,0,1-4.3,2.1l-25.373.45a5.641,5.641,0,0,1-4.445-2l-6.143-7.292a5.673,5.673,0,0,0-7.192-1.249l-7.342,4.3a5.626,5.626,0,0,0-2.447,6.893l3.246,8.541a5.645,5.645,0,0,1-.35,4.745L393.18,434.166a5.635,5.635,0,0,1-3.9,2.8l-9.19,1.748a5.655,5.655,0,0,0-4.6,5.694Zm68.177-28.869a23.332,23.332,0,0,1,.8,46.65h-.9a23.332,23.332,0,0,1-.8-46.65Z" transform="translate(-335.648 -328.737)" fill="none" stroke="#24313e" stroke-miterlimit="10" stroke-width="2"></path><path d="M492.145,311.465,476.362,325.7c-1.948-2.2-4-4.245-6.143-6.243a97.118,97.118,0,0,0-154.334,30.717,5.062,5.062,0,0,1-6.493,2.6L299,348.625a5.069,5.069,0,0,1-2.847-6.543c.05-.05.05-.15.1-.2A118.383,118.383,0,0,1,488.2,307.27h0C489.547,308.618,490.846,310.017,492.145,311.465Z" transform="translate(-295.762 -272.215)" fill="#0062ff" stroke="#24313e" stroke-miterlimit="10" stroke-width="2"></path><path d="M630.132,358.415,665.494,375.6a2.736,2.736,0,0,0,3.646-1.249,2.69,2.69,0,0,0,.25-1.4l-2.8-39.208a2.749,2.749,0,0,0-2.947-2.547,3.087,3.087,0,0,0-1.349.449L629.783,353.72a2.669,2.669,0,0,0,.35,4.7Z" transform="translate(-462.319 -301.733)" fill="#0062ff" stroke="#24313e" stroke-miterlimit="10" stroke-width="2"></path><path d="M422.553,667.66A118.252,118.252,0,0,1,332.6,626.2l16.183-13.835a97.157,97.157,0,0,0,161.076-20.428,5.061,5.061,0,0,1,6.543-2.447l10.239,4.445a5.063,5.063,0,0,1,2.647,6.643c-.05.05-.05.15-.1.2A118.267,118.267,0,0,1,422.553,667.66Z" transform="translate(-314.176 -430.823)" fill="#0062ff" stroke="#24313e" stroke-miterlimit="10" stroke-width="2"></path><g transform="translate(18.474 158.266)" opacity="0.25"><path d="M529.238,600.782a.174.174,0,0,1-.05.1,4.969,4.969,0,0,0-2.5-2.347l-10.239-4.445a5.061,5.061,0,0,0-6.543,2.447,97.129,97.129,0,0,1-161.026,20.428L335.047,628.8c-.8-.849-1.548-1.748-2.347-2.647l16.133-13.835a97.152,97.152,0,0,0,136.952,10.689,96.113,96.113,0,0,0,24.074-31.067,5.061,5.061,0,0,1,6.543-2.447l10.239,4.445a5.063,5.063,0,0,1,2.647,6.643C529.288,600.682,529.288,600.732,529.238,600.782Z" transform="translate(-332.7 -589.089)" fill="#ebf0f5"></path></g><path d="M351.7,611.574l-34.912-18.081a2.771,2.771,0,0,0-3.7,1.149,2.726,2.726,0,0,0-.3,1.4l1.8,39.258a2.7,2.7,0,0,0,2.847,2.6,2.647,2.647,0,0,0,1.349-.4L351.9,616.269a2.743,2.743,0,0,0,.849-3.8A3.051,3.051,0,0,0,351.7,611.574Z" transform="translate(-304.256 -432.874)" fill="#0062ff" stroke="#24313e" stroke-miterlimit="10" stroke-width="2"></path><path d="M654.772,342.4,628.6,350.391l6.543,5.294Z" transform="translate(-462.335 -307.345)" fill="#455666"></path><path d="M359.081,648.6,341.1,660.437l5.144,5.144Z" transform="translate(-318.43 -460.61)" fill="#455666"></path><path d="M488.2,307.27h0c-.649-.6-51.095-47.1-124.066-24.673,0,0-49.1,17.581-65.13,66.029a5.069,5.069,0,0,1-2.847-6.543c.05-.05.05-.15.1-.2A118.428,118.428,0,0,1,488.2,307.27Z" transform="translate(-295.762 -272.215)" fill="#ebf0f5" opacity="0.25"></path><g transform="translate(200.028 29.245)" opacity="0.25"><path d="M699.646,375.186l-.7-.35a2.614,2.614,0,0,0,1-2.3l-2.8-39.208a2.792,2.792,0,0,0-.949-1.9l.3-.2a2.737,2.737,0,0,1,3.8.749,2.559,2.559,0,0,1,.449,1.349l2.8,39.208a2.811,2.811,0,0,1-2.547,2.947A3.13,3.13,0,0,1,699.646,375.186Z" transform="translate(-696.2 -330.768)" fill="#ebf0f5"></path></g><g transform="translate(8.733 160.37)" opacity="0.25"><path d="M352.306,616.425l-.649.4a2.763,2.763,0,0,0-1.448-2.1L315.3,596.646a2.564,2.564,0,0,0-2.1-.15v-.35a2.732,2.732,0,0,1,2.6-2.847,3.353,3.353,0,0,1,1.4.3l34.912,18.081a2.727,2.727,0,0,1,1.149,3.7A3.137,3.137,0,0,1,352.306,616.425Z" transform="translate(-313.197 -593.3)" fill="#ebf0f5"></path></g></g></g></g></svg>