<svg xmlns="http://www.w3.org/2000/svg" width="474" height="284" viewBox="0 0 474 284"><g transform="translate(0.259 0.104)"><rect width="474" height="284" transform="translate(-0.259 -0.104)" fill="none"></rect><g transform="translate(36.153 11.162)"><path d="M793.615,183.087a72.387,72.387,0,0,0-51.537-34.245,1.81,1.81,0,0,1-1.541-2.015l2.021-17.174a1.81,1.81,0,0,1,2.066-1.589,93.075,93.075,0,0,1,67.136,44.581,1.825,1.825,0,0,1-.661,2.524l-15.026,8.554a1.81,1.81,0,0,1-2.458-.636Z" transform="translate(-514.018 -87.239)" fill="#24313e"></path><path d="M869.722,271.39l31.669,27.13a1.81,1.81,0,0,0,2.974-1.047l7.676-40.98a1.81,1.81,0,0,0-2.413-2.054L870.3,268.287a1.81,1.81,0,0,0-.576,3.1Z" transform="translate(-603.794 -175.43)" fill="#24313e"></path><path d="M424.42,235.842,407.228,234a1.81,1.81,0,0,1-1.614-2.036,93.072,93.072,0,0,1,47.86-69.887,1.81,1.81,0,0,1,2.482.763l7.975,15.346a1.828,1.828,0,0,1-.748,2.44,71.9,71.9,0,0,0-36.761,53.636,1.825,1.825,0,0,1-2,1.583Z" transform="translate(-280.111 -110.848)" fill="#24313e"></path><path d="M559.318,169.983,587.67,139.42a1.81,1.81,0,0,0-.935-3.019L546.1,127.123a1.81,1.81,0,0,0-2.148,2.31l12.291,39.843a1.81,1.81,0,0,0,3.076.706Z" transform="translate(-376.674 -86.561)" fill="#24313e"></path><path d="M512.454,607.093a92.963,92.963,0,0,1-69.567-46.355,1.81,1.81,0,0,1,.718-2.494l15.192-8.261a1.825,1.825,0,0,1,2.452.7,72.034,72.034,0,0,0,53.386,35.59,1.81,1.81,0,0,1,1.589,1.988l-1.743,17.207a1.81,1.81,0,0,1-2.027,1.623Z" transform="translate(-305.986 -381.762)" fill="#24313e"></path><path d="M450.85,487.964l-31.111-27.748a1.81,1.81,0,0,0-3,.986l-8.487,40.814a1.81,1.81,0,0,0,2.353,2.111l39.6-13.066a1.81,1.81,0,0,0,.642-3.1Z" transform="translate(-281.935 -318.893)" fill="#24313e"></path><path d="M837.127,529.481l-8.321-15.159a1.828,1.828,0,0,1,.691-2.455,71.986,71.986,0,0,0,35.406-53.91,1.828,1.828,0,0,1,1.979-1.614l17.219,1.58a1.81,1.81,0,0,1,1.644,2.009,93.057,93.057,0,0,1-46.12,70.255,1.81,1.81,0,0,1-2.5-.706Z" transform="translate(-575.517 -316.514)" fill="#24313e"></path><path d="M766.867,593.741l-27.631,31.223a1.81,1.81,0,0,0,1,2.992l40.853,8.325a1.81,1.81,0,0,0,2.09-2.365l-13.223-39.544a1.81,1.81,0,0,0-3.092-.63Z" transform="translate(-512.791 -412.039)" fill="#24313e"></path><path d="M787.938,183.086a72.387,72.387,0,0,0-51.546-34.245,1.81,1.81,0,0,1-1.544-2.015l2.021-17.174a1.81,1.81,0,0,1,2.069-1.59,93.06,93.06,0,0,1,67.142,44.581,1.81,1.81,0,0,1-.658,2.525l-15.041,8.554a1.81,1.81,0,0,1-2.443-.636Z" transform="translate(-510.044 -87.238)" fill="#ebf0f5" stroke="#24313e" stroke-miterlimit="10" stroke-width="2"></path><path d="M864.074,271.407l31.654,27.13a1.81,1.81,0,0,0,2.977-1.047l7.673-40.98a1.81,1.81,0,0,0-2.395-2.054L864.653,268.3a1.81,1.81,0,0,0-.579,3.1Z" transform="translate(-599.85 -175.447)" fill="#ebf0f5" stroke="#24313e" stroke-miterlimit="10" stroke-width="2"></path><path d="M418.77,235.842,401.578,234a1.81,1.81,0,0,1-1.614-2.036,93.066,93.066,0,0,1,47.86-69.887,1.81,1.81,0,0,1,2.482.763l7.96,15.346a1.81,1.81,0,0,1-.748,2.44,71.9,71.9,0,0,0-36.743,53.636,1.828,1.828,0,0,1-2.006,1.583Z" transform="translate(-276.165 -110.848)" fill="#ebf0f5" stroke="#24313e" stroke-miterlimit="10" stroke-width="2"></path><path d="M553.665,169.983l28.352-30.562a1.81,1.81,0,0,0-.929-3.016l-40.639-9.281a1.81,1.81,0,0,0-2.147,2.31l12.288,39.843a1.81,1.81,0,0,0,3.076.706Z" transform="translate(-372.728 -86.561)" fill="#ebf0f5" stroke="#24313e" stroke-miterlimit="10" stroke-width="2"></path><path d="M506.8,607.095a92.957,92.957,0,0,1-69.567-46.355,1.81,1.81,0,0,1,.715-2.494l15.192-8.261a1.831,1.831,0,0,1,2.455.7,72.028,72.028,0,0,0,53.386,35.59,1.81,1.81,0,0,1,1.589,1.988l-1.743,17.207a1.81,1.81,0,0,1-2.027,1.623Z" transform="translate(-302.038 -381.764)" fill="#ebf0f5" stroke="#24313e" stroke-miterlimit="10" stroke-width="2"></path><path d="M445.2,487.964l-31.111-27.748a1.81,1.81,0,0,0-2.995.986l-8.487,40.814a1.81,1.81,0,0,0,2.353,2.111l39.6-13.075a1.81,1.81,0,0,0,.642-3.089Z" transform="translate(-277.99 -318.893)" fill="#ebf0f5" stroke="#24313e" stroke-miterlimit="10" stroke-width="2"></path><path d="M831.462,529.481l-8.321-15.159a1.81,1.81,0,0,1,.691-2.455,71.986,71.986,0,0,0,35.412-53.91,1.825,1.825,0,0,1,1.976-1.614l17.216,1.58a1.81,1.81,0,0,1,1.647,2.009,93.057,93.057,0,0,1-46.123,70.255,1.81,1.81,0,0,1-2.5-.706Z" transform="translate(-571.557 -316.514)" fill="#ebf0f5" stroke="#24313e" stroke-miterlimit="10" stroke-width="2"></path><path d="M761.213,593.741l-27.628,31.223a1.81,1.81,0,0,0,1,2.992l40.854,8.324a1.81,1.81,0,0,0,2.093-2.365L764.3,594.371a1.81,1.81,0,0,0-3.092-.63Z" transform="translate(-508.845 -412.039)" fill="#ebf0f5" stroke="#24313e" stroke-miterlimit="10" stroke-width="2"></path><rect width="112.966" height="42.935" rx="15.03" transform="translate(43.736 29.273)" fill="#24313e"></rect><rect width="112.966" height="42.935" rx="15.03" transform="translate(38.588 29.273)" fill="#0062ff" stroke="#24313e" stroke-miterlimit="10" stroke-width="2"></rect><g transform="translate(43.329 34.06)"><text transform="translate(0 10)" fill="#fff" font-size="10" font-family="Montserrat-Bold, Montserrat" font-weight="700"><tspan x="0" y="0">P</tspan></text><text transform="translate(9.567 10)" fill="#fff" font-size="10" font-family="Montserrat-Bold, Montserrat" font-weight="700"><tspan x="0" y="0">R</tspan></text><text transform="translate(19.309 10)" fill="#fff" font-size="10" font-family="Montserrat-Bold, Montserrat" font-weight="700"><tspan x="0" y="0">O</tspan></text><text transform="translate(30.559 10)" fill="#fff" font-size="10" font-family="Montserrat-Bold, Montserrat" font-weight="700"><tspan x="0" y="0">P</tspan></text><text transform="translate(40.249 10)" fill="#fff" font-size="10" font-family="Montserrat-Bold, Montserrat" font-weight="700"><tspan x="0" y="0">O</tspan></text><text transform="translate(51.527 11)" fill="#fff" font-size="11" font-family="Montserrat-Bold, Montserrat" font-weight="700"><tspan x="0" y="0">G</tspan></text><text transform="translate(61.745 10)" fill="#fff" font-size="10" font-family="Montserrat-Bold, Montserrat" font-weight="700"><tspan x="0" y="0">A</tspan></text><text transform="translate(70.957 10)" fill="#fff" font-size="10" font-family="Montserrat-Bold, Montserrat" font-weight="700"><tspan x="0" y="0">T</tspan></text><text transform="translate(79.117 10)" fill="#fff" font-size="10" font-family="Montserrat-Bold, Montserrat" font-weight="700"><tspan x="0" y="0">I</tspan></text><text transform="translate(83.47 10)" fill="#fff" font-size="10" font-family="Montserrat-Bold, Montserrat" font-weight="700"><tspan x="0" y="0">N</tspan></text><text transform="translate(94.241 11)" fill="#fff" font-size="11" font-family="Montserrat-Bold, Montserrat" font-weight="700"><tspan x="0" y="0">G </tspan></text><text transform="translate(23.865 26.809)" fill="#fff" font-size="10" font-family="Montserrat-Bold, Montserrat" font-weight="700"><tspan x="0" y="0">C</tspan></text><text transform="translate(33.527 27.809)" fill="#fff" font-size="11" font-family="Montserrat-Bold, Montserrat" font-weight="700"><tspan x="0" y="0">HA</tspan></text><text transform="translate(54.553 27.809)" fill="#fff" font-size="11" font-family="Montserrat-Bold, Montserrat" font-weight="700"><tspan x="0" y="0">NG</tspan></text><text transform="translate(75.604 27.809)" fill="#fff" font-size="11" font-family="Montserrat-Bold, Montserrat" font-weight="700"><tspan x="0" y="0">E</tspan></text></g><rect width="65.676" height="32.758" rx="15.03" transform="translate(291.952 26.734)" fill="#24313e"></rect><rect width="65.676" height="32.758" rx="15.03" transform="translate(288.96 26.734)" fill="#0062ff" stroke="#24313e" stroke-miterlimit="10" stroke-width="2"></rect><text transform="translate(299.8 45.036)" fill="#fff" font-size="11" font-family="Montserrat-Bold, Montserrat" font-weight="700"><tspan x="0" y="0">BUI</tspan><tspan y="0">L</tspan><tspan y="0">D</tspan></text><rect width="72.773" height="30.146" rx="10.17" transform="translate(289.518 205.587)" fill="#24313e"></rect><rect width="72.773" height="30.146" rx="10.17" transform="translate(286.2 205.587)" fill="#0062ff" stroke="#24313e" stroke-miterlimit="10" stroke-width="2"></rect><text transform="translate(306.212 223.316)" fill="#fff" font-size="11" font-family="Montserrat-Bold, Montserrat" font-weight="700"><tspan x="0" y="0">T</tspan><tspan y="0">EST</tspan></text><rect width="80.694" height="29.443" rx="10.17" transform="translate(78.793 205.089)" fill="#24313e"></rect><rect width="80.694" height="29.443" rx="10.17" transform="translate(75.116 205.089)" fill="#0062ff" stroke="#24313e" stroke-miterlimit="10" stroke-width="2"></rect><text transform="translate(87.22 222.582)" fill="#fff" font-size="10" font-family="Montserrat-Bold, Montserrat" font-weight="700"><tspan x="0" y="0">D</tspan><tspan y="0">E</tspan><tspan y="0">P</tspan><tspan y="0">L</tspan><tspan y="0">O</tspan><tspan y="0">Y</tspan></text></g></g></svg>