<svg xmlns="http://www.w3.org/2000/svg" xmlns:xlink="http://www.w3.org/1999/xlink" width="159" height="48" viewBox="0 0 159 48"><defs><clipPath id="clip-path"><path id="Path_91" data-name="Path 91" d="M.473.38H163.135v48H.473Z" transform="translate(-0.473 -0.38)"></path></clipPath><clipPath id="clip-iPhone_X_XS_11_Pro_2"><rect width="159" height="48"></rect></clipPath></defs><g id="iPhone_X_XS_11_Pro_2" data-name="iPhone X/XS/11 Pro &#x2013; 2" clip-path="url(#clip-iPhone_X_XS_11_Pro_2)"><g id="mulesoft" transform="translate(-5 -13.391)"><g id="Group_37" data-name="Group 37" transform="translate(5 13.391)" clip-path="url(#clip-path)"><path id="Path_90" data-name="Path 90" d="M24.574,46.524a22,22,0,1,1,21.988-22A21.987,21.987,0,0,1,24.574,46.524ZM24.559.38A24,24,0,1,0,48.67,24.388,24.072,24.072,0,0,0,24.559.38Z" transform="translate(-0.477 -0.38)" fill="#00a1df"></path></g><path id="Path_92" data-name="Path 92" d="M21.109,45.5a11.019,11.019,0,0,1-6.161-10.037,11.27,11.27,0,0,1,1.9-6.325l7.928,11.82h4.8L37.5,29.139a11.308,11.308,0,0,1,1.9,6.325,11.157,11.157,0,0,1-5.433,9.681L35.5,50.994a18.049,18.049,0,0,0,.949-31.564l-9.2,14.208-9.1-14.267a18.046,18.046,0,0,0,1.485,31.935ZM78.387,24.612H75.314l-5.8,12.617L63.587,24.61H60.495V44.89h3.088V31.337l4.78,9.888h2.286l4.661-9.888V44.89h3.073Zm11.564,14.64a2.875,2.875,0,0,1-2.984,3.222c-1.618,0-2.91-.965-2.91-3.222v-8.8h-2.91V39.7A5.308,5.308,0,0,0,82.6,43.779a5.06,5.06,0,0,0,3.563,1.306,5.141,5.141,0,0,0,3.844-1.618v1.455h2.852V30.477h-2.91Zm8.6,1.483V24.612H95.636V40.9A3.688,3.688,0,0,0,99.6,44.89h1.8v-2.48h-1.277c-1.173,0-1.589-.578-1.589-1.676Zm6.589-4.245a4.609,4.609,0,0,1,.371-1.959,3.03,3.03,0,0,1,2.88-1.826,2.988,2.988,0,0,1,2.851,1.826,4.6,4.6,0,0,1,.4,1.959Zm3.251-6.206c-3.7,0-6.117,2.7-6.117,7.378,0,5.494,2.88,7.408,6.5,7.408a6.731,6.731,0,0,0,5.4-2.257l-1.871-1.737a4.347,4.347,0,0,1-3.5,1.484c-2.361,0-3.682-1.561-3.682-4.039h9.368V37.244c.014-4.112-2.225-6.965-6.1-6.965Zm20.458,4.663a6.71,6.71,0,0,0-3.786-1.514l-2.3-.341a4.656,4.656,0,0,1-2.271-.935,2.475,2.475,0,0,1-.772-1.886c0-1.8,1.306-3.162,3.7-3.162a5.963,5.963,0,0,1,4.41,1.561l1.959-1.93a8.561,8.561,0,0,0-6.294-2.3c-4.216,0-6.784,2.42-6.784,5.953a5.067,5.067,0,0,0,1.484,3.875,6.855,6.855,0,0,0,3.844,1.618l2.39.341a3.456,3.456,0,0,1,2.225.861,2.756,2.756,0,0,1,.8,2.11c0,1.959-1.546,3.1-4.186,3.1a6.737,6.737,0,0,1-5.182-1.93l-2.048,2.02c1.93,1.959,4.127,2.673,7.186,2.673,4.248,0,7.29-2.225,7.29-5.953a5.388,5.388,0,0,0-1.662-4.157Zm11.461,6.68a2.969,2.969,0,0,1-2.139.847,2.877,2.877,0,0,1-2.11-.847c-.89-.876-.994-2.39-.994-3.964s.118-3.073.994-3.964a2.887,2.887,0,0,1,2.11-.831,2.946,2.946,0,0,1,2.139.831c.876.876.994,2.39.994,3.964S141.184,40.736,140.308,41.626Zm-2.139-11.343a5.828,5.828,0,0,0-4.306,1.708c-1.365,1.425-1.708,3.251-1.708,5.671,0,2.449.341,4.277,1.708,5.7a5.775,5.775,0,0,0,4.306,1.708,5.9,5.9,0,0,0,4.335-1.708c1.365-1.425,1.708-3.251,1.708-5.7,0-2.42-.341-4.248-1.708-5.671a5.9,5.9,0,0,0-4.335-1.708Zm8.969-1.8v2.225h-1.647v2.225h1.647V44.9h2.91V32.938h2.88V30.712h-2.88V28.635a1.46,1.46,0,0,1,1.589-1.676h1.277V24.464h-1.826a3.767,3.767,0,0,0-3.949,4.023Zm12.145-2.167h-2.91V30.7h-1.647v2.225h1.647v7.943a3.762,3.762,0,0,0,3.964,4.023h1.738v-2.48h-1.2a1.461,1.461,0,0,1-1.589-1.676v-7.81h2.792v-2.24h-2.792Z" transform="translate(1.87 2.661)" fill="#00a1df"></path></g></g></svg>