<svg xmlns="http://www.w3.org/2000/svg" width="207.416" height="26" viewBox="0 0 207.416 26"><g transform="translate(-715.06 -719.668)"><g transform="translate(715.06 719.668)"><path d="M801.4,736.583h13.214l-6.987-11.242L794.8,745.668h-5.837l15.6-24.417a3.687,3.687,0,0,1,3.063-1.583,3.621,3.621,0,0,1,3,1.542l15.66,24.458h-5.835l-2.753-4.542H804.319Zm60.632,4.542V719.915h-4.954V743.2a2.432,2.432,0,0,0,.718,1.727,2.539,2.539,0,0,0,1.811.74h22.587l2.919-4.542Zm-81.945-3.8a8.7,8.7,0,1,0,0-17.408H758.418v25.753h4.951V724.457h16.389a4.172,4.172,0,0,1,0,8.345l-13.964-.021,14.785,12.887h7.194l-9.948-8.345Zm-52.149,8.345a12.876,12.876,0,1,1,0-25.753h14.969a12.876,12.876,0,1,1,0,25.753Zm14.636-4.542a8.334,8.334,0,1,0,0-16.669h-14.3a8.334,8.334,0,1,0,0,16.669Zm94.053,4.542a12.876,12.876,0,1,1,0-25.753h17.779l-2.9,4.542H836.958a8.334,8.334,0,1,0,0,16.669h17.86l-2.919,4.542Zm60.57-4.542a8.325,8.325,0,0,1-8.017-6.063h21.17l2.919-4.542H889.181a8.349,8.349,0,0,1,8.017-6.063h14.531l2.939-4.542h-17.8a12.876,12.876,0,1,0,0,25.753h15.269l2.919-4.542H897.2" transform="translate(-715.06 -719.668)" fill="#f80000"></path><path d="M1335.948,722.862a2.271,2.271,0,1,1,2.259,2.281A2.252,2.252,0,0,1,1335.948,722.862Zm2.259,2.918a2.9,2.9,0,1,0-2.877-2.9A2.894,2.894,0,0,0,1338.207,725.78Zm-.267-4.624a2.079,2.079,0,0,1,.842.1.906.906,0,0,1,.637.9.8.8,0,0,1-.042.267.823.823,0,0,1-.39.555c-.039.02-.062.041-.143.082l.741,1.336h-.722l-.657-1.233h-.452V724.4h-.637v-3.247Zm.224,1.48c.208-.02.413-.02.536-.206a.434.434,0,0,0,.081-.288.462.462,0,0,0-.247-.39,1.474,1.474,0,0,0-.595-.062h-.185v.945h.41" transform="translate(-1133.687 -719.881)" fill="#f80000"></path></g></g></svg>