<svg xmlns="http://www.w3.org/2000/svg" width="714.344" height="309.187" viewBox="0 0 714.344 309.187"><g transform="translate(134.271)"><g transform="translate(-134.271)"><g transform="translate(356.271 42.765)"><path d="M389.44,906.3c0-1.438,80.091-2.758,184.246-2.758s126.227,2.252,126.227,3.687-22.32,4.282-126.477,4.282S389.44,907.73,389.44,906.3Z" transform="translate(-389.44 -686.454)" fill-rule="evenodd" opacity="0.21"></path><path d="M770.95,170.907v11.555H486.76V170.907a17.517,17.517,0,0,1,17.523-17.517H753.427A17.517,17.517,0,0,1,770.95,170.907Z" transform="translate(-458.772 -152.042)" fill="#003994" stroke="#24313e" stroke-miterlimit="10" stroke-width="2"></path><path d="M770.95,254.48V425.914a17.517,17.517,0,0,1-17.523,17.517H504.283a17.521,17.521,0,0,1-17.523-17.52V254.48Z" transform="translate(-458.772 -224.059)" fill="#9caab8" stroke="#24313e" stroke-miterlimit="10" stroke-width="2"></path><path d="M746.76,170.907v11.555H462.57V170.907a17.517,17.517,0,0,1,17.523-17.517H729.237a17.517,17.517,0,0,1,17.523,17.517Z" transform="translate(-441.538 -152.042)" fill="#0c7ff2" stroke="#24313e" stroke-miterlimit="10" stroke-width="2"></path><path d="M746.76,254.48V434.087a9.353,9.353,0,0,1-9.355,9.355H471.928a9.358,9.358,0,0,1-9.358-9.355V254.48Z" transform="translate(-441.538 -224.059)" fill="#ebf0f5" stroke="#24313e" stroke-miterlimit="10" stroke-width="2"></path><rect width="176.277" height="145.246" rx="7.48" transform="translate(115.661 51.461)" fill="#d9dee5" stroke="#24313e" stroke-miterlimit="10" stroke-width="2"></rect><path d="M1362.2,490.34l-45.509,120.5,28.144-29.3,17.365-48.894Z" transform="translate(-1050.02 -392.088)" opacity="0.21"></path><path d="M475.785,899.26H748.612a.975.975,0,0,1,.975.975V901.8a.975.975,0,0,1-.975.975H477.352a2.542,2.542,0,0,1-2.542-2.542h0a.975.975,0,0,1,.975-.975Z" transform="translate(-450.258 -683.406)" opacity="0.21"></path><rect width="65.988" height="10.448" rx="2.66" transform="translate(33.634 51.461)" fill="#3ab2d0"></rect><rect width="65.988" height="10.448" rx="2.58" transform="translate(33.634 112.773)" fill="#3ab2d0"></rect><rect width="65.988" height="10.903" rx="1.37" transform="translate(33.634 130.299)" fill="#fff"></rect><rect width="65.988" height="10.903" rx="1.37" transform="translate(33.634 149.973)" fill="#fff"></rect><rect width="65.988" height="10.903" rx="1.37" transform="translate(33.634 70.882)" fill="#fff"></rect><rect width="65.988" height="10.903" rx="1.37" transform="translate(33.634 90.556)" fill="#fff"></rect><rect width="65.37" height="15.452" rx="6.16" transform="translate(34.212 181.257)" fill="#0c7ff2"></rect><path d="M767.877,149.728c0,1.875-6.819,6.189-96.585,6.189s-158.363-2.948-158.363-4.829,68.6-1.967,158.363-1.967S767.877,147.853,767.877,149.728Z" transform="translate(-477.415 -148.702)" fill="#ebf0f5" fill-rule="evenodd" opacity="0.21"></path><path d="M1389.449,272.215,1344.643,416.17a1.122,1.122,0,0,1-1.406.73l-19.723-6.5a1.122,1.122,0,0,1-.719-1.4l44.793-143.951a1.121,1.121,0,0,1,1.421-.73l19.723,6.5A1.119,1.119,0,0,1,1389.449,272.215Z" transform="translate(-1054.333 -231.03)" fill="#6b7e8f" stroke="#24313e" stroke-miterlimit="10" stroke-width="2"></path><path d="M1324.064,866.481l-7.7,11.115.573-13.687Z" transform="translate(-1049.785 -658.222)" fill="#24313e" stroke="#031439" stroke-miterlimit="10" stroke-width="2"></path><path d="M1340.917,778l-15.435,22.265-7.132-2.571,1.122-26.732Z" transform="translate(-1051.203 -592.003)" fill="#fdfdfd" stroke="#000" stroke-miterlimit="10" stroke-width="2"></path><path d="M4.889,0H32.274V22.984H4.889A4.889,4.889,0,0,1,0,18.1V4.889A4.889,4.889,0,0,1,4.889,0Z" transform="matrix(-0.297, 0.955, -0.955, -0.297, 345.12, 8.944)" fill="#24313e" stroke="#031439" stroke-miterlimit="10" stroke-width="2"></path><path d="M1333.141,409.112l-5.191-1.59,44.62-142.441,5.188,1.593Z" transform="translate(-1058.042 -231.611)" fill="#ebf0f5" opacity="0.21"></path><path d="M1491.506,198.969h0a2.715,2.715,0,0,1-1.8-3.388l6.065-19.864a2.715,2.715,0,0,1,3.394-1.8h0a2.715,2.715,0,0,1,1.8,3.388l-6.065,19.864a2.712,2.712,0,0,1-3.391,1.8Z" transform="translate(-1173.193 -166.578)" fill="#ebf0f5" opacity="0.21"></path><path d="M580.683,548.354c0,.63-13.727,1.593-30.1,1.593s-29.191-.963-29.191-1.593,12.818-.685,29.191-.685S580.683,547.727,580.683,548.354Z" transform="translate(-483.442 -432.93)" fill="#ebf0f5" opacity="0.21"></path><path d="M580.683,333.064c0,.63-13.727,1.593-30.1,1.593s-29.191-.963-29.191-1.593,12.818-.684,29.191-.684S580.683,332.438,580.683,333.064Z" transform="translate(-483.442 -279.556)" fill="#ebf0f5" opacity="0.21"></path><path d="M580.683,781.075c0,.627-13.727,1.59-30.1,1.59s-29.191-.964-29.191-1.59,12.818-.685,29.191-.685S580.683,780.445,580.683,781.075Z" transform="translate(-483.442 -598.721)" fill="#ebf0f5" opacity="0.21"></path><path d="M1332.831,351.2l-16.471,35.429,23.14-33.378,53.961-172.377s1.151-4.754-3.215-6.117S1332.831,351.2,1332.831,351.2Z" transform="translate(-1049.785 -167.261)" opacity="0.21"></path></g><rect width="714.344" height="309.187" fill="none"></rect></g></g></svg>