<svg xmlns="http://www.w3.org/2000/svg" width="714.344" height="286.71" viewBox="0 0 714.344 286.71"><g transform="translate(134.271 -29.339)"><g transform="translate(-134.271 29.339)"><g transform="translate(473.039 71.031)"><path d="M389.44,905.313c0-.924,51.476-1.773,118.418-1.773s81.129,1.447,81.129,2.37-14.345,2.752-81.289,2.752S389.44,906.233,389.44,905.313Z" transform="translate(-389.44 -764.015)" fill-rule="evenodd" opacity="0.21"></path><path d="M669.414,164.649v7.427H486.76v-7.427a11.259,11.259,0,0,1,11.262-11.259h160.13A11.259,11.259,0,0,1,669.414,164.649Z" transform="translate(-468.771 -152.523)" fill="#003994" stroke="#24313e" stroke-miterlimit="10" stroke-width="2"></path><path d="M669.414,254.48V364.664a11.259,11.259,0,0,1-11.262,11.259H498.022a11.261,11.261,0,0,1-11.262-11.26V254.48Z" transform="translate(-468.771 -234.928)" fill="#9caab8" stroke="#24313e" stroke-miterlimit="10" stroke-width="2"></path><path d="M645.224,164.649v7.427H462.57v-7.427a11.259,11.259,0,0,1,11.262-11.259h160.13a11.259,11.259,0,0,1,11.262,11.259Z" transform="translate(-449.053 -152.523)" fill="#0c7ff2" stroke="#24313e" stroke-miterlimit="10" stroke-width="2"></path><path d="M645.224,254.48V369.917a6.011,6.011,0,0,1-6.013,6.013H468.585a6.015,6.015,0,0,1-6.015-6.013V254.48Z" transform="translate(-449.053 -234.928)" fill="#ebf0f5" stroke="#24313e" stroke-miterlimit="10" stroke-width="2"></path><rect width="113.296" height="93.352" rx="7.48" transform="translate(74.337 33.075)" fill="#d9dee5" stroke="#24313e" stroke-miterlimit="10" stroke-width="2"></rect><path d="M1345.939,490.34l-29.249,77.447,18.088-18.832,11.161-31.425Z" transform="translate(-1145.296 -427.191)" opacity="0.21"></path><path d="M475.437,899.26H650.788a.626.626,0,0,1,.626.627v1.007a.626.626,0,0,1-.627.627H476.444a1.634,1.634,0,0,1-1.634-1.634h0a.627.627,0,0,1,.627-.627Z" transform="translate(-459.03 -760.526)" opacity="0.21"></path><rect width="42.412" height="6.715" rx="2.66" transform="translate(21.617 33.075)" fill="#3ab2d0"></rect><rect width="42.412" height="6.715" rx="2.58" transform="translate(21.617 72.481)" fill="#3ab2d0"></rect><rect width="42.412" height="7.007" rx="1.37" transform="translate(21.617 83.746)" fill="#fff"></rect><rect width="42.412" height="7.007" rx="1.37" transform="translate(21.617 96.39)" fill="#fff"></rect><rect width="42.412" height="7.007" rx="1.37" transform="translate(21.617 45.557)" fill="#fff"></rect><rect width="42.412" height="7.007" rx="1.37" transform="translate(21.617 58.202)" fill="#fff"></rect><rect width="42.014" height="9.932" rx="4.966" transform="translate(21.989 116.498)" fill="#0c7ff2"></rect><path d="M676.789,149.362c0,1.205-4.383,3.978-62.077,3.978s-101.783-1.895-101.783-3.1,44.088-1.264,101.783-1.264S676.789,148.156,676.789,149.362Z" transform="translate(-490.104 -148.702)" fill="#ebf0f5" fill-rule="evenodd" opacity="0.21"></path><path d="M1365.617,269.375l-28.8,92.522a.721.721,0,0,1-.9.469l-12.676-4.177a.721.721,0,0,1-.462-.9l28.789-92.52a.721.721,0,0,1,.913-.47l12.676,4.177A.719.719,0,0,1,1365.617,269.375Z" transform="translate(-1150.231 -242.904)" fill="#6b7e8f" stroke="#24313e" stroke-miterlimit="10" stroke-width="2"></path><path d="M1321.312,865.562l-4.952,7.144.368-8.8Z" transform="translate(-1145.027 -731.71)" fill="#24313e" stroke="#031439" stroke-miterlimit="10" stroke-width="2"></path><path d="M1332.854,775.483l-9.92,14.31-4.584-1.653.721-17.181Z" transform="translate(-1146.649 -655.941)" fill="#fdfdfd" stroke="#000" stroke-miterlimit="10" stroke-width="2"></path><path d="M3.142,0h17.6V14.772H3.142A3.142,3.142,0,0,1,0,11.63V3.142A3.142,3.142,0,0,1,3.142,0Z" transform="matrix(-0.297, 0.955, -0.955, -0.297, 221.815, 5.749)" fill="#24313e" stroke="#031439" stroke-miterlimit="10" stroke-width="2"></path><path d="M1331.286,357.652l-3.336-1.022,28.678-91.55,3.334,1.024Z" transform="translate(-1154.475 -243.569)" fill="#ebf0f5" opacity="0.21"></path><path d="M1490.82,189.974h0a1.745,1.745,0,0,1-1.157-2.177l3.9-12.767a1.745,1.745,0,0,1,2.181-1.159h0a1.745,1.745,0,0,1,1.155,2.177l-3.9,12.767a1.743,1.743,0,0,1-2.179,1.159Z" transform="translate(-1286.234 -169.156)" fill="#ebf0f5" opacity="0.21"></path><path d="M559.5,548.11c0,.4-8.822,1.024-19.347,1.024s-18.761-.619-18.761-1.024,8.238-.44,18.761-.44S559.5,547.707,559.5,548.11Z" transform="translate(-497 -473.924)" fill="#ebf0f5" opacity="0.21"></path><path d="M559.5,332.82c0,.4-8.822,1.024-19.347,1.024s-18.761-.619-18.761-1.024,8.238-.44,18.761-.44S559.5,332.417,559.5,332.82Z" transform="translate(-497 -298.429)" fill="#ebf0f5" opacity="0.21"></path><path d="M559.5,780.83c0,.4-8.822,1.022-19.347,1.022s-18.761-.619-18.761-1.022,8.238-.44,18.761-.44S559.5,780.425,559.5,780.83Z" transform="translate(-497 -663.628)" fill="#ebf0f5" opacity="0.21"></path><path d="M1326.946,288.161l-10.586,22.771,14.872-21.453,34.682-110.79s.74-3.055-2.066-3.932S1326.946,288.161,1326.946,288.161Z" transform="translate(-1145.027 -169.938)" opacity="0.21"></path></g><rect width="714.344" height="286.71" fill="none"></rect></g></g></svg>