<svg xmlns="http://www.w3.org/2000/svg" xmlns:xlink="http://www.w3.org/1999/xlink" width="157" height="48" viewBox="0 0 157 48"><defs><clipPath id="clip-iPhone_X_XS_11_Pro_3"><rect width="157" height="48"></rect></clipPath></defs><g id="iPhone_X_XS_11_Pro_3" data-name="iPhone X/XS/11 Pro &#x2013; 3" clip-path="url(#clip-iPhone_X_XS_11_Pro_3)"><g id="postman" transform="translate(-0.331 0.325)"><g id="Group_38" data-name="Group 38" transform="translate(55.419 16.223)"><path id="Path_93" data-name="Path 93" d="M232.5,82.586v-13.8a.6.6,0,0,1,.191-.429.644.644,0,0,1,.5-.167h3.886a4.659,4.659,0,0,1,3.171,1.073,4.336,4.336,0,0,1,1.192,3.362v.191a4.315,4.315,0,0,1-1.216,3.386,4.663,4.663,0,0,1-3.219,1.073H234.24v5.317a.511.511,0,0,1-.262.453,1.229,1.229,0,0,1-1.216,0A.511.511,0,0,1,232.5,82.586Zm1.717-6.747h2.789a2.6,2.6,0,0,0,2-.739,2.921,2.921,0,0,0,.715-2.193v-.238a2.985,2.985,0,0,0-.715-2.193,2.705,2.705,0,0,0-2-.715H234.24Z" transform="translate(-232.5 -68.162)" fill="#ff6c37"></path><path id="Path_94" data-name="Path 94" d="M295.2,78.934V72.758a4.358,4.358,0,0,1,1.192-3.386,5.365,5.365,0,0,1,6.437,0,4.315,4.315,0,0,1,1.216,3.386v6.175a4.281,4.281,0,0,1-1.216,3.386,5.294,5.294,0,0,1-6.437,0A4.358,4.358,0,0,1,295.2,78.934Zm1.74,0c0,1.931.882,2.909,2.694,2.909a2.705,2.705,0,0,0,2-.715,3.02,3.02,0,0,0,.715-2.193v-6.2a2.985,2.985,0,0,0-.715-2.193,2.705,2.705,0,0,0-2-.715c-1.788,0-2.67.954-2.67,2.909Z" transform="translate(-280.251 -68.252)" fill="#ff6c37"></path><path id="Path_95" data-name="Path 95" d="M357.9,81.022a1.071,1.071,0,0,1,.238-.644.7.7,0,0,1,.5-.31.737.737,0,0,1,.477.262c.191.167.382.358.6.572a2.709,2.709,0,0,0,.978.572,4.072,4.072,0,0,0,1.5.262,3.142,3.142,0,0,0,2.1-.644,2.386,2.386,0,0,0,.763-1.907,2.5,2.5,0,0,0-.691-1.836,4.659,4.659,0,0,0-1.693-1.073c-.668-.238-1.311-.5-2-.787a4.283,4.283,0,0,1-1.693-1.287,3.435,3.435,0,0,1-.691-2.241,4.011,4.011,0,0,1,.405-1.884,2.787,2.787,0,0,1,1.1-1.192,6.259,6.259,0,0,1,1.431-.6,7.1,7.1,0,0,1,1.574-.191,8.34,8.34,0,0,1,2.432.358c.763.262,1.168.6,1.168,1a1.029,1.029,0,0,1-.215.62.615.615,0,0,1-.525.334,7.439,7.439,0,0,1-.93-.358,4.337,4.337,0,0,0-1.907-.381,3.686,3.686,0,0,0-2,.5,1.793,1.793,0,0,0-.763,1.621,1.913,1.913,0,0,0,.668,1.55,5.111,5.111,0,0,0,1.693.93c.668.238,1.335.5,2,.811a4.457,4.457,0,0,1,1.669,1.454,4.57,4.57,0,0,1,.691,2.551,3.981,3.981,0,0,1-1.24,3.195,4.632,4.632,0,0,1-3.266,1.073,6.013,6.013,0,0,1-3.076-.763C358.329,82.024,357.9,81.523,357.9,81.022Z" transform="translate(-328.002 -68.1)" fill="#ff6c37"></path><path id="Path_96" data-name="Path 96" d="M416.6,68.963a.813.813,0,0,1,.167-.525.491.491,0,0,1,.453-.238h8.345a.491.491,0,0,1,.453.238.813.813,0,0,1,.167.525,1,1,0,0,1-.167.572.491.491,0,0,1-.453.238H422.3V82.6a.511.511,0,0,1-.262.453,1.229,1.229,0,0,1-1.216,0,.511.511,0,0,1-.262-.453V69.774h-3.314a.491.491,0,0,1-.453-.238A.97.97,0,0,1,416.6,68.963Z" transform="translate(-372.707 -68.176)" fill="#ff6c37"></path><path id="Path_97" data-name="Path 97" d="M481.365,82.62V69.1a.751.751,0,0,1,.62-.858.488.488,0,0,1,.262,0c.548,0,1,.358,1.383,1.1l3.219,6.175,3.242-6.175c.405-.715.858-1.1,1.383-1.1a.751.751,0,0,1,.858.62h0a.33.33,0,0,1,0,.215V82.6a.511.511,0,0,1-.262.453,1.229,1.229,0,0,1-1.216,0,.511.511,0,0,1-.262-.453V71.843l-3.1,5.817a.716.716,0,0,1-.668.5.745.745,0,0,1-.644-.5l-3.1-5.937V82.6a.511.511,0,0,1-.262.453,1.043,1.043,0,0,1-1.168.024A.436.436,0,0,1,481.365,82.62Z" transform="translate(-422.022 -68.195)" fill="#ff6c37"></path><path id="Path_98" data-name="Path 98" d="M552.1,82.581a.442.442,0,0,1,.048-.167l4.2-13.518c.119-.405.477-.6,1.049-.6s.93.191,1.049.6l4.22,13.59v.119a.579.579,0,0,1-.334.5,1.183,1.183,0,0,1-.763.191.6.6,0,0,1-.62-.381l-.906-3h-5.388l-.906,3a.6.6,0,0,1-.62.405,1.242,1.242,0,0,1-.691-.215A.548.548,0,0,1,552.1,82.581Zm2.98-4.1h4.6L557.393,70.8Z" transform="translate(-475.901 -68.252)" fill="#ff6c37"></path><path id="Path_99" data-name="Path 99" d="M621.3,82.6V68.8c0-.405.286-.6.858-.6a1.216,1.216,0,0,1,.739.262,2.486,2.486,0,0,1,.572.834L628.6,79.31V68.8a.45.45,0,0,1,.262-.429,1.229,1.229,0,0,1,1.216,0,.5.5,0,0,1,.262.429V82.6a.511.511,0,0,1-.262.453,1.076,1.076,0,0,1-.6.167,1.214,1.214,0,0,1-1.073-.787L623.017,72.11V82.6a.543.543,0,0,1-.238.453,1.229,1.229,0,0,1-1.216,0A.511.511,0,0,1,621.3,82.6Z" transform="translate(-528.602 -68.176)" fill="#ff6c37"></path></g><path id="Path_100" data-name="Path 100" d="M47.48,26.856a23.846,23.846,0,1,0-26.7,20.623h0A23.877,23.877,0,0,0,47.48,26.856Z" transform="translate(0 0)" fill="#ff6c37"></path><path id="Path_101" data-name="Path 101" d="M94.9,60.582,84.837,70.644,82,67.807C91.894,57.912,92.872,58.77,94.9,60.582Z" transform="translate(-62.463 -45.29)" fill="#fff"></path><path id="Path_102" data-name="Path 102" d="M84,70.143h0a.216.216,0,0,1-.167-.072l-2.861-2.837a.23.23,0,0,1,0-.334h0c10.061-10.061,11.11-9.108,13.232-7.2a.23.23,0,0,1,0,.334L84.143,70.071A.17.17,0,0,1,84,70.143Zm-2.5-3.076,2.5,2.5,9.7-9.7C91.939,58.293,90.747,57.817,81.5,67.067Z" transform="translate(-61.625 -44.55)" fill="#ff6c37"></path><path id="Path_103" data-name="Path 103" d="M97.242,77.6,94.5,74.861,104.561,64.8C107.256,67.518,103.226,71.929,97.242,77.6Z" transform="translate(-71.983 -49.364)" fill="#fff"></path><path id="Path_104" data-name="Path 104" d="M96.556,77.08h0a.216.216,0,0,1-.167-.072l-2.742-2.742A.2.2,0,0,1,93.6,74.1a.216.216,0,0,1,.072-.167l10.061-10.061a.23.23,0,0,1,.334,0,2.9,2.9,0,0,1,.93,2.217c-.048,2.646-3.052,6.008-8.249,10.92A.38.38,0,0,1,96.556,77.08ZM94.148,74.1c1.526,1.55,2.17,2.17,2.408,2.408,4.005-3.815,7.892-7.725,7.916-10.419a2.54,2.54,0,0,0-.62-1.717Z" transform="translate(-71.297 -48.602)" fill="#ff6c37"></path><path id="Path_105" data-name="Path 105" d="M73.651,94.717l2.027,2.027a.089.089,0,0,1,0,.143c-.024.024-.024.024-.048.024l-4.2.906a.417.417,0,0,1-.453-.334.353.353,0,0,1,.1-.31l2.432-2.432C73.555,94.693,73.627,94.669,73.651,94.717Z" transform="translate(-54.066 -72.128)" fill="#fff"></path><path id="Path_106" data-name="Path 106" d="M70.62,97.243A.621.621,0,0,1,70,96.6a.651.651,0,0,1,.191-.453l2.432-2.432a.363.363,0,0,1,.477,0l2.027,2.027a.318.318,0,0,1,0,.477.384.384,0,0,1-.167.1l-4.2.906C70.715,97.219,70.668,97.243,70.62,97.243Zm2.217-3.076L70.5,96.5a.144.144,0,0,0-.024.191.123.123,0,0,0,.167.072l3.934-.858Z" transform="translate(-53.324 -71.317)" fill="#ff6c37"></path><path id="Path_107" data-name="Path 107" d="M137.52,37.361a3.862,3.862,0,1,0-.668,6.1l-2.718-2.718Z" transform="translate(-99.768 -27.647)" fill="#fff"></path><path id="Path_108" data-name="Path 108" d="M134.1,43.5a4.1,4.1,0,1,1,2.837-7.057.23.23,0,0,1,0,.334L133.719,40l2.527,2.527a.23.23,0,0,1,0,.334l-.048.048A4.044,4.044,0,0,1,134.1,43.5Zm0-7.7a3.612,3.612,0,1,0,.024,7.224,3.428,3.428,0,0,0,1.6-.381l-2.5-2.48a.23.23,0,0,1,0-.334l3.195-3.195A3.533,3.533,0,0,0,134.1,35.8Z" transform="translate(-99.019 -26.897)" fill="#ff6c37"></path><path id="Path_109" data-name="Path 109" d="M147.657,40.948l-.048-.048L144.2,44.262l2.694,2.694a4.366,4.366,0,0,0,.739-.572A3.821,3.821,0,0,0,147.657,40.948Z" transform="translate(-109.833 -31.162)" fill="#fff"></path><path id="Path_110" data-name="Path 110" d="M146.156,46.38a.216.216,0,0,1-.167-.072l-2.718-2.718a.231.231,0,0,1,0-.334l3.386-3.386a.23.23,0,0,1,.334,0l.072.048a4.123,4.123,0,0,1,.024,5.794,3.92,3.92,0,0,1-.787.62A.938.938,0,0,1,146.156,46.38Zm-2.384-2.956,2.408,2.408a3.155,3.155,0,0,0,.525-.429,3.631,3.631,0,0,0,.119-5.007Z" transform="translate(-109.072 -30.325)" fill="#ff6c37"></path><path id="Path_111" data-name="Path 111" d="M102.463,64.629h0a1.468,1.468,0,0,0-2.074,0L91.4,73.618l1.5,1.5,9.513-8.345a1.47,1.47,0,0,0,.143-2.074A.329.329,0,0,1,102.463,64.629Z" transform="translate(-69.622 -48.907)" fill="#fff"></path><path id="Path_112" data-name="Path 112" d="M92.04,74.6a.216.216,0,0,1-.167-.072l-1.5-1.5a.23.23,0,0,1,0-.334h0L99.36,63.7a1.7,1.7,0,0,1,2.408,0h0a1.7,1.7,0,0,1,0,2.408l-.072.072-9.513,8.345A.144.144,0,0,1,92.04,74.6ZM90.9,72.856l1.168,1.168,9.346-8.2a1.235,1.235,0,0,0-1.6-1.884.329.329,0,0,1-.1.072Z" transform="translate(-68.784 -48.145)" fill="#ff6c37"></path><path id="Path_113" data-name="Path 113" d="M52.371,118.65a.209.209,0,0,0-.119.238l.405,1.717a.455.455,0,0,1-.31.6.479.479,0,0,1-.525-.143l-2.623-2.6,8.559-8.559,2.956.048,2,2C62.242,112.356,59.357,115.145,52.371,118.65Z" transform="translate(-37.483 -83.711)" fill="#fff"></path><path id="Path_114" data-name="Path 114" d="M51.571,120.678a.649.649,0,0,1-.5-.215l-2.6-2.6a.23.23,0,0,1,0-.334l8.559-8.559a.258.258,0,0,1,.167-.072l2.956.048a.216.216,0,0,1,.167.072l2,2a.271.271,0,0,1,.072.191.18.18,0,0,1-.1.167l-.167.143A48.085,48.085,0,0,1,51.9,118.079l.405,1.693a.752.752,0,0,1-.358.811A.818.818,0,0,1,51.571,120.678Zm-2.623-2.98L51.4,120.13a.245.245,0,0,0,.429-.238l-.405-1.717a.435.435,0,0,1,.238-.5h0A49.76,49.76,0,0,0,61.8,111.189l-1.764-1.764-2.742-.048Z" transform="translate(-36.874 -82.95)" fill="#ff6c37"></path><path id="Path_115" data-name="Path 115" d="M40.387,147.85l2.05-2.05,3.052,3.052-4.864-.334a.38.38,0,0,1-.334-.429A.276.276,0,0,1,40.387,147.85Z" transform="translate(-30.697 -111.052)" fill="#fff"></path><path id="Path_116" data-name="Path 116" d="M44.655,148.229h0l-4.888-.334a.625.625,0,0,1-.572-.691.589.589,0,0,1,.191-.381l2.05-2.05a.23.23,0,0,1,.334,0h0l3.052,3.052a.218.218,0,0,1,.048.262A.229.229,0,0,1,44.655,148.229ZM41.6,145.3l-1.884,1.884a.134.134,0,0,0,0,.215.124.124,0,0,0,.1.048l4.22.286Z" transform="translate(-29.862 -110.214)" fill="#ff6c37"></path><path id="Path_117" data-name="Path 117" d="M80.838,105.59a.239.239,0,0,1-.238-.238.216.216,0,0,1,.072-.167l2.313-2.313a.23.23,0,0,1,.334,0l1.5,1.5a.229.229,0,0,1,.072.238.273.273,0,0,1-.191.167l-3.815.811Zm2.313-2.217-1.574,1.574,2.575-.548Z" transform="translate(-61.397 -78.304)" fill="#ff6c37"></path><path id="Path_118" data-name="Path 118" d="M87.724,105.378l-2.623.572a.354.354,0,0,1-.334-.6l1.454-1.454Z" transform="translate(-64.492 -79.142)" fill="#fff"></path><path id="Path_119" data-name="Path 119" d="M84.4,105.351a.59.59,0,0,1-.6-.6.685.685,0,0,1,.167-.429l1.454-1.454a.231.231,0,0,1,.334,0l1.5,1.5a.229.229,0,0,1,.072.238.273.273,0,0,1-.191.167l-2.623.572Zm1.192-1.979L84.3,104.66a.112.112,0,0,0-.024.143.144.144,0,0,0,.143.072l2.193-.477Z" transform="translate(-63.834 -78.304)" fill="#ff6c37"></path><path id="Path_120" data-name="Path 120" d="M156.7,50.12a.279.279,0,0,0-.525.191c0,.024.024.048.024.072a.89.89,0,0,1-.1.906.29.29,0,0,0,.024.381.269.269,0,0,0,.381-.048A1.4,1.4,0,0,0,156.7,50.12Z" transform="translate(-118.855 -38.046)" fill="#ff6c37"></path></g></g></svg>