<svg xmlns="http://www.w3.org/2000/svg" xmlns:xlink="http://www.w3.org/1999/xlink" width="187" height="48" viewBox="0 0 187 48"><defs><clipPath id="clip-iPhone_X_XS_11_Pro_4"><rect width="187" height="48"></rect></clipPath></defs><g id="iPhone_X_XS_11_Pro_4" data-name="iPhone X/XS/11 Pro &#x2013; 4" clip-path="url(#clip-iPhone_X_XS_11_Pro_4)"><g id="redhat" transform="translate(-20.673 -244.744)"><path id="Path_121" data-name="Path 121" d="M50.8,313.9l-8.4,3.05a28.729,28.729,0,0,0,.654,3.984l7.967-2.894A16.737,16.737,0,0,1,50.8,313.9" transform="translate(-15.015 -47.686)" fill="#aa1017"></path><path id="Path_122" data-name="Path 122" d="M165.457,276.386A24.382,24.382,0,0,0,163.4,272.9l-8.4,3.05a15.108,15.108,0,0,1,2.459,3.33Z" transform="translate(-92.571 -19.447)" fill="#aa1017"></path><path id="Path_123" data-name="Path 123" d="M61.57,254.542a16.141,16.141,0,0,1,4.544,3.237l8.4-3.05a24.009,24.009,0,0,0-43.479,15.842l8.372-3.081a15.579,15.579,0,0,1,16.682-14.379,16.775,16.775,0,0,1,5.478,1.432" transform="translate(-7.139)" fill="#ce0e19"></path><path id="Path_124" data-name="Path 124" d="M28.568,335.9,20.6,338.794a25.065,25.065,0,0,0,3.735,8.123l8.372-3.05a15.764,15.764,0,0,1-4.139-7.968" transform="translate(0 -62.839)" fill="#ce0e19"></path><path id="Path_125" data-name="Path 125" d="M80.476,319.119a15.31,15.31,0,0,1-1.4,5.384A15.554,15.554,0,0,1,53.8,328.829l-8.4,3.081A23.97,23.97,0,0,0,88.817,316.1Z" transform="translate(-17.081 -49.202)" fill="#ce0e19"></path><path id="Path_126" data-name="Path 126" d="M147.068,292.8l-7.968,2.894a15.716,15.716,0,0,1,1.961,8.777l8.372-3.05a23.9,23.9,0,0,0-2.365-8.621" transform="translate(-81.619 -33.153)" fill="#ce0e19"></path><path id="Path_127" data-name="Path 127" d="M50.772,315.681A15.146,15.146,0,0,1,50.8,314l-8.4,3.05c.031.529.124,1.058.187,1.587Z" transform="translate(-15.015 -47.755)" fill="#8b070f"></path><path id="Path_128" data-name="Path 128" d="M164.244,274.176c-.28-.436-.529-.84-.84-1.276l-8.4,3.05a12.143,12.143,0,0,1,1.027,1.183Z" transform="translate(-92.571 -19.447)" fill="#8b070f"></path><path id="Path_129" data-name="Path 129" d="M45.4,331.81a24.236,24.236,0,0,0,2.147,2.583l9.119-3.33a15.955,15.955,0,0,1-2.894-2.3ZM88.817,316l-8.372,3.05a15.534,15.534,0,0,1-.716,3.579l9.119-3.33a23.252,23.252,0,0,0-.031-3.3" transform="translate(-17.081 -49.133)" fill="#aa1017"></path><path id="Path_130" data-name="Path 130" d="M225.713,282.7l-1.774-3.641h-1.214V282.7H219.8V271.9h4.855a7.8,7.8,0,0,1,1.712.187,3.519,3.519,0,0,1,1.338.622,2.408,2.408,0,0,1,.84,1.089,4.16,4.16,0,0,1,.311,1.618,3.426,3.426,0,0,1-.529,1.992,3.391,3.391,0,0,1-1.463,1.183l2.179,4.139-3.33-.031Zm-.156-8.061a1.243,1.243,0,0,0-1.027-.311h-1.805v2.365H224.5a1.47,1.47,0,0,0,1.058-.311,1.193,1.193,0,0,0,.311-.9,1.057,1.057,0,0,0-.311-.84" transform="translate(-137.203 -18.758)" fill="#050000"></path><path id="Path_131" data-name="Path 131" d="M256.8,282.631V271.8h8.279v2.521h-5.322v1.463h3.206v2.459h-3.206v1.867h5.415v2.521Z" transform="translate(-162.687 -18.689)" fill="#050000"></path><path id="Path_132" data-name="Path 132" d="M300.295,279.805a3.818,3.818,0,0,1-1.12,1.681,4.477,4.477,0,0,1-1.836.934,8.594,8.594,0,0,1-2.521.28H291.3V271.9h3.8a9.521,9.521,0,0,1,2.3.28,4.068,4.068,0,0,1,1.743.9,4.321,4.321,0,0,1,1.12,1.65,7.825,7.825,0,0,1,.4,2.552,7.193,7.193,0,0,1-.374,2.521m-2.832-3.828a2.033,2.033,0,0,0-.436-.9,1.6,1.6,0,0,0-.778-.5,3.024,3.024,0,0,0-1.183-.156h-.747v5.7h.654a3.744,3.744,0,0,0,1.183-.156,1.911,1.911,0,0,0,.809-.467,1.886,1.886,0,0,0,.436-.9,4.883,4.883,0,0,0,.125-1.338,2.952,2.952,0,0,0-.062-1.276" transform="translate(-186.45 -18.758)" fill="#050000"></path><path id="Path_133" data-name="Path 133" d="M353.011,282.631v-4.264H349.65v4.264H346.6V271.8h3.05v3.953h3.361V271.8h3.05v10.831Z" transform="translate(-224.539 -18.689)" fill="#050000"></path><path id="Path_134" data-name="Path 134" d="M391.125,282.7l-.591-1.867H387.3l-.591,1.867H383.5l3.922-10.8h3.019l3.922,10.8Zm-1.494-5.011c-.093-.342-.187-.654-.249-.9l-.187-.685c-.062-.218-.093-.4-.156-.56-.031-.156-.062-.373-.093-.56-.031.187-.062.373-.093.529a3.759,3.759,0,0,1-.156.56l-.187.685-.249.9-.218.716h1.805Z" transform="translate(-249.954 -18.758)" fill="#050000"></path><path id="Path_135" data-name="Path 135" d="M424.738,274.414v8.216h-3.019v-8.216H418.7V271.8h9.057v2.614Z" transform="translate(-274.199 -18.689)" fill="#050000"></path><path id="Path_136" data-name="Path 136" d="M454.777,273.478a1.354,1.354,0,0,1-.747.747,1.636,1.636,0,0,1-1.089,0,1.353,1.353,0,0,1-.747-.747,1.635,1.635,0,0,1,0-1.089,1.354,1.354,0,0,1,.747-.747,1.329,1.329,0,0,1,1.089,0,1.353,1.353,0,0,1,.747.747,1.329,1.329,0,0,1,0,1.089m-.187-1a1.185,1.185,0,1,0,0,.934,1.59,1.59,0,0,0,0-.934m-.56.436a.678.678,0,0,1-.249.156l.311.622h-.311l-.28-.591h-.28v.591h-.249V272.14h.654a.4.4,0,0,1,.187.031c.062.031.125.031.156.093a.264.264,0,0,1,.093.156.461.461,0,0,1,.031.218.336.336,0,0,1-.062.28Zm-.218-.436a.443.443,0,0,0-.187-.062h-.4v.436h.4a.442.442,0,0,0,.187-.062c.093-.062.093-.187,0-.311h0" transform="translate(-297.204 -18.5)" fill="#050000"></path><path id="Path_137" data-name="Path 137" d="M230.54,327.316a7.658,7.658,0,0,1-1.369,2.645,6.473,6.473,0,0,1-2.147,1.743,6.554,6.554,0,0,1-5.509,0,5.747,5.747,0,0,1-2.116-1.743,8.16,8.16,0,0,1-1.338-2.645,11.952,11.952,0,0,1,.031-6.723,8.162,8.162,0,0,1,1.338-2.646,6.76,6.76,0,0,1,2.116-1.743,6.334,6.334,0,0,1,5.509,0,5.984,5.984,0,0,1,2.116,1.712,8.485,8.485,0,0,1,1.338,2.645,11.132,11.132,0,0,1,.5,3.361,10.4,10.4,0,0,1-.467,3.392m-1.681-6.1A6.44,6.44,0,0,0,227.8,319.1a4.406,4.406,0,0,0-1.587-1.338,4.329,4.329,0,0,0-1.961-.467,4.11,4.11,0,0,0-1.93.467,5.316,5.316,0,0,0-1.556,1.338,6.372,6.372,0,0,0-1.027,2.116,10.458,10.458,0,0,0,0,5.54,6.439,6.439,0,0,0,1.058,2.116,4.309,4.309,0,0,0,3.517,1.805,4.11,4.11,0,0,0,1.93-.467,4.307,4.307,0,0,0,1.556-1.338,6.372,6.372,0,0,0,1.027-2.116,10.424,10.424,0,0,0,.373-2.77,9.022,9.022,0,0,0-.342-2.77" transform="translate(-135.68 -48.84)" fill="#050000"></path><path id="Path_138" data-name="Path 138" d="M285.331,323.471a4.347,4.347,0,0,1-1.12,1.587,4.567,4.567,0,0,1-1.743.965,6.845,6.845,0,0,1-2.241.311h-3.921v6.38H274.5V316.5h6.069a7.607,7.607,0,0,1,2.054.28,4.61,4.61,0,0,1,1.618.9,4.15,4.15,0,0,1,1.089,1.525,5.768,5.768,0,0,1,0,4.264m-2.272-4.482a3.623,3.623,0,0,0-2.552-.84h-4.2v6.536h3.953c2.428,0,3.673-1.089,3.673-3.3a3.411,3.411,0,0,0-.871-2.4Z" transform="translate(-174.879 -49.477)" fill="#050000"></path><path id="Path_139" data-name="Path 139" d="M322.7,332.715V316.5h9.8v1.649h-8v5.1h4.637V324.9h-4.637v6.162h8.341v1.649Z" transform="translate(-208.077 -49.477)" fill="#050000"></path><path id="Path_140" data-name="Path 140" d="M378.622,332.646l-7.1-11.111c-.093-.124-.187-.311-.311-.5l-.311-.591c-.125-.187-.218-.373-.311-.529a2.574,2.574,0,0,1-.218-.4v13.134H368.6V316.431h1.774l7,11.3c.093.156.187.311.311.5l.311.591c.093.187.218.373.311.529a2.564,2.564,0,0,1,.218.4V316.4H380.3v16.215l-1.681.031Z" transform="translate(-239.692 -49.408)" fill="#050000"></path><path id="Path_141" data-name="Path 141" d="M429.757,329.6a3.744,3.744,0,0,1-1.058,1.432,5.632,5.632,0,0,1-1.681.965,6.3,6.3,0,0,1-2.272.342,8.013,8.013,0,0,1-3.081-.622,7.626,7.626,0,0,1-2.365-1.618l1.214-1.338a8.851,8.851,0,0,0,1.992,1.4,5.034,5.034,0,0,0,2.334.529,3.971,3.971,0,0,0,2.552-.747,2.48,2.48,0,0,0,.934-2.054,2.989,2.989,0,0,0-.187-1.027,2.471,2.471,0,0,0-.622-.84,7.039,7.039,0,0,0-1.183-.778,12.405,12.405,0,0,0-1.867-.778,15.157,15.157,0,0,1-2.21-.934,5.989,5.989,0,0,1-1.432-1.027,3.129,3.129,0,0,1-.778-1.214,4.409,4.409,0,0,1-.249-1.556,4.283,4.283,0,0,1,.374-1.743,3.835,3.835,0,0,1,1.027-1.307,4.518,4.518,0,0,1,1.587-.809,7.835,7.835,0,0,1,2.085-.28,7.7,7.7,0,0,1,2.77.436,8.517,8.517,0,0,1,2.179,1.276l-1.152,1.4a6.75,6.75,0,0,0-1.805-1.12,4.994,4.994,0,0,0-2.116-.374,5.473,5.473,0,0,0-1.432.187,2.574,2.574,0,0,0-1,.529,1.9,1.9,0,0,0-.56.747,2.233,2.233,0,0,0-.187.9,2.879,2.879,0,0,0,.124.9,2,2,0,0,0,.56.778,6.121,6.121,0,0,0,1.183.809,15.711,15.711,0,0,0,1.992.809,17.99,17.99,0,0,1,2.241.965A5.343,5.343,0,0,1,429.1,324.9a3.617,3.617,0,0,1,.778,1.276,5.627,5.627,0,0,1,.249,1.587,4.4,4.4,0,0,1-.374,1.836" transform="translate(-274.612 -48.849)" fill="#050000"></path><path id="Path_142" data-name="Path 142" d="M478.266,332.715V325.09h-8.061v7.625H468.4V316.5h1.805v6.909h8.061V316.5h1.805v16.215Z" transform="translate(-308.431 -49.477)" fill="#050000"></path><path id="Path_143" data-name="Path 143" d="M522.2,332.715V316.5h1.805v16.215Z" transform="translate(-345.487 -49.477)" fill="#050000"></path><path id="Path_144" data-name="Path 144" d="M546.205,318.149v5.384h4.451v1.649h-4.451v7.532H544.4V316.5h9.524v1.649Z" transform="translate(-360.777 -49.477)" fill="#050000"></path><path id="Path_145" data-name="Path 145" d="M590.767,318.149v14.566h-1.774V318.149H584.2V316.5h11.329v1.649Z" transform="translate(-388.19 -49.477)" fill="#050000"></path></g></g></svg>