<svg xmlns:inkscape="http://www.inkscape.org/namespaces/inkscape" xmlns:sodipodi="http://sodipodi.sourceforge.net/DTD/sodipodi-0.dtd" xmlns="http://www.w3.org/2000/svg" xmlns:svg="http://www.w3.org/2000/svg" id="Layer_1" x="0px" y="0px" viewBox="0 0 621.19874 514.58893" xml:space="preserve" sodipodi:docname="Transformer-_Advance-with-automation-1.svg" width="621.19873" height="514.58893" inkscape:version="1.1.2 (0a00cf5339, 2022-02-04, custom)"><defs id="defs38"></defs><style type="text/css" id="style2">	.st0{fill:#24313E;stroke:#031439;stroke-width:2;stroke-miterlimit:10;}	.st1{fill:#0062FF;stroke:#24313E;stroke-width:2;stroke-miterlimit:10;}	.st2{fill:#EBF0F5;stroke:#24313E;stroke-width:2;stroke-miterlimit:10;}	.st3{opacity:0.57;fill:#455666;enable-background:new    ;}	.st4{opacity:0.57;fill:#606060;enable-background:new    ;}	.st5{opacity:0.2;fill:#EBF0F5;enable-background:new    ;}</style><g inkscape:groupmode="layer" id="layer1" inkscape:label="Layer 1"><rect style="fill:#ffffff;stroke:#0c7ff2" id="rect906" width="618.823" height="509.93918" x="0" y="1.8147302"></rect></g><g id="g33" transform="matrix(0.65840276,0,0,0.65840276,-13.948671,-63.32925)">	<g id="Layer_1_1_">		<polyline class="st0" points="603.5,396.5 712,288 712,348.7 622.5,438.1   " id="polyline4"></polyline>		<path class="st0" d="m 741.7,384 v -94.2 c 0,-3.5 -2.8,-6.3 -6.3,-6.3 h -94.2 c -3.5,0 -6.3,2.8 -6.4,6.3 0,1.7 0.7,3.4 1.9,4.6 l 94.2,94.2 c 2.5,2.5 6.5,2.5 8.9,0 1.3,-1.3 1.9,-2.9 1.9,-4.6 z" id="path6"></path>		<polygon class="st1" points="598.9,391.8 707.3,283.3 707.3,344 617.8,433.4 601.5,397.6 " id="polygon8"></polygon>		<path class="st0" d="m 681.3,475.3 c -0.1,-7.9 -6,-14.5 -13.7,-15.7 l -26.4,-4 c -4.8,-0.7 -9,-3.5 -11.4,-7.7 l -5.4,-8.9 -27.3,-45.4 -4.5,-7.5 c -2.5,-4.2 -3,-9.2 -1.4,-13.8 l 9.1,-25.3 c 2.7,-7.4 -0.4,-15.7 -7.3,-19.5 l -21.2,-11.8 c -4.1,-2.3 -35.4,-1.2 -35.4,-1.2 v 31.8 l -86.5,0.8 c -4.9,0.1 -9.5,-2 -12.7,-5.8 l -17.5,-20.9 c -3.8,-4.6 -9.9,-6.7 -15.8,-5.4 h -24.8 v 46.9 h -3 l 4.4,11.5 c 1.7,4.4 1.3,9.4 -1,13.6 l -36.8,66.2 c -2.3,4.2 -6.4,7.1 -11.1,8 l -26.2,4.9 c -7.8,1.5 -13.3,8.3 -13.2,16.2 l 0.4,24.2 c 0.1,7.9 6,14.5 13.8,15.7 l 26.5,4 c 4.8,0.7 8.9,3.5 11.4,7.7 l 37.2,61.9 c 2.5,4.2 3,9.2 1.4,13.8 l -3.5,9.8 h 2 v 46.5 c 0,0 36.7,2.6 41.7,-3.6 l 16.6,-20.5 c 3,-3.7 7.5,-6 12.3,-6.1 h 84.4 v 31.4 l 28.6,-0.6 c 3.5,0.4 7,-0.3 10,-2.1 l 21,-12.3 c 6.8,-4 9.7,-12.3 6.9,-19.7 L 593.6,608 c -1.7,-4.4 -1.3,-9.4 1,-13.6 l 36.7,-66.1 c 2.3,-4.2 6.4,-7.2 11.1,-8 l 26.2,-4.9 c 7.7,-1.4 13.3,-8.3 13.2,-16.2 z m -202,114.8 C 424.3,590 378.5,545.9 376.6,490.8 374.5,432.4 421.3,384 479.7,384.1 c 55.1,0 100.8,44.2 102.7,99.2 2,56.9 -42.4,104.6 -99.3,106.7 -1.3,0.1 -2.5,0.1 -3.8,0.1 z" id="path10"></path>		<path class="st2" d="m 264.5,506.8 c 0.1,7.9 6,14.5 13.7,15.7 l 26.4,4 c 4.8,0.7 8.9,3.5 11.4,7.7 l 37.2,61.8 c 2.5,4.2 3,9.2 1.4,13.8 l -9.1,25.3 c -2.7,7.4 0.4,15.7 7.3,19.5 l 21.2,11.9 c 6.9,3.8 15.5,2.2 20.5,-4 L 411.1,642 c 3,-3.7 7.5,-5.9 12.3,-6 l 72.2,-1.3 c 4.9,-0.1 9.5,2.1 12.6,5.8 l 17.5,20.8 c 5.1,6 13.7,7.5 20.5,3.6 l 20.9,-12.2 c 6.8,-4 9.7,-12.3 7,-19.7 l -9.3,-24.4 c -1.7,-4.4 -1.3,-9.4 1,-13.6 l 36.8,-66.1 c 2.3,-4.2 6.4,-7.2 11.1,-8 l 26.1,-4.9 c 7.7,-1.4 13.3,-8.3 13.2,-16.2 l -0.5,-24.2 c -0.1,-7.9 -6,-14.5 -13.7,-15.7 l -26.4,-4 c -4.8,-0.7 -9,-3.5 -11.4,-7.7 l -37.2,-61.8 c -2.5,-4.2 -3,-9.2 -1.4,-13.8 l 9.1,-25.3 c 2.7,-7.4 -0.4,-15.7 -7.3,-19.5 L 543.1,316 c -6.8,-3.9 -15.5,-2.2 -20.4,3.9 L 506,340.4 c -3,3.7 -7.5,5.9 -12.3,6 l -72.2,1.3 c -4.9,0.1 -9.5,-2 -12.6,-5.7 l -17.5,-20.8 c -5.1,-6 -13.7,-7.5 -20.5,-3.5 L 350,330 c -6.8,4 -9.7,12.3 -6.9,19.6 l 9.2,24.4 c 1.7,4.4 1.3,9.4 -1,13.6 l -36.8,66.2 c -2.3,4.2 -6.4,7.1 -11.1,8 l -26.2,4.9 c -7.7,1.5 -13.3,8.3 -13.2,16.2 z M 461.9,372.5 c 62.6,0.1 114.4,50.2 116.7,112.7 C 581,551.6 527.9,606.5 461.5,606.4 399,606.3 347.1,556.2 344.8,493.7 342.5,427.4 395.6,372.4 461.9,372.5 Z" id="path12"></path>		<path class="st0" d="M 576.2,481.8 567,491 465.3,592.7 c -2.4,2.4 -6.3,2.4 -8.8,0 0,0 0,0 0,0 l -4.2,-4.2 -33,-33.4 c -0.2,-0.2 -0.3,-0.3 -0.5,-0.5 -2.5,-2 -6,-1.8 -8.3,0.4 L 273.7,691.8 c -2.4,2.4 -6.3,2.4 -8.7,0 l -17.9,-17.6 c -0.2,-0.2 -0.4,-0.4 -0.6,-0.7 -1.9,-2.5 -1.6,-5.9 0.6,-8.1 L 411.5,501 c 2.4,-2.4 6.3,-2.4 8.8,0 l 34.1,34.1 c 2.4,2.4 6.3,2.4 8.8,0 l 95.2,-95.2 c 1.5,-1.5 3.8,-2.2 5.9,-1.6 1.8,0.4 3.4,1.7 4.1,3.4 5,11.1 8.2,22.9 9.6,35 0.2,1.9 -0.5,3.8 -1.8,5.1 z" id="path14"></path>		<path class="st1" d="m 577.4,470.4 c 0.2,1.9 -4.6,5.4 -5.9,6.7 l -7.7,7.7 L 460.6,588 c -2.2,2.2 -5.8,2.4 -8.3,0.4 -0.2,-0.1 -0.4,-0.3 -0.5,-0.5 l -33,-33.4 -4.1,-4.2 c -2.4,-2.4 -6.3,-2.5 -8.8,-0.1 0,0 0,0 0,0 L 269,687.1 c -2.4,2.4 -6.3,2.4 -8.7,0 l -13.8,-13.5 -3.8,-3.7 -0.3,-0.3 c -2.4,-2.4 -2.5,-6.3 -0.1,-8.8 0,0 0,0 0,0 L 406.7,496.3 c 2.4,-2.4 6.3,-2.4 8.8,0 l 34.1,34.1 c 2.4,2.4 6.3,2.4 8.8,0 l 95.2,-95.2 c 0.4,-0.4 6,-5.2 6.5,-5.5 2.8,-1.5 3.8,2.1 5.1,5.3 0.1,0.3 0.3,0.6 0.4,0.9 0.3,0.5 10.5,22.7 11.8,34.5 z" id="path16"></path>		<path class="st3" d="M 576.2,481.8 567,491 c -1,-1.7 -2,-3.8 -3.2,-6.2 -0.9,-1.9 -1.8,-4.1 -2.8,-6.6 -5.5,-13.8 -6.9,-25.4 -6.8,-34.2 0,-3.3 0.4,-6.7 0.9,-9.9 3,-1.7 6.3,-7.4 7.8,-4 0.2,0.4 2.2,7.4 2.3,7.8 1.7,0.4 2.3,1.9 3.1,3.8 5,11.1 8.2,22.9 9.6,35 0.3,1.9 -0.4,3.8 -1.7,5.1 z" id="path18"></path>		<path class="st3" d="m 625.3,438.3 c -0.3,0.3 -0.6,0.5 -0.9,0.9 l -27.3,-45.4 6.5,-9.4 c 1.3,1.5 2.7,3.3 4.2,5.6 1.2,1.7 2.5,3.7 3.9,6 7.8,12.6 11.2,23.8 12.6,32.4 0.6,3.2 0.9,6.5 1,9.9 z" id="path20"></path>		<path class="st1" d="m 730.7,278.8 c 3.5,0 6.3,2.8 6.3,6.3 v 94.2 c 0,3.5 -2.8,6.3 -6.3,6.4 -1.7,0 -3.4,-0.7 -4.6,-1.9 l -84.3,-84.3 -9.9,-9.9 c -2.5,-2.4 -2.5,-6.4 -0.1,-8.9 1.2,-1.2 2.8,-1.9 4.6,-1.9 z" id="path22"></path>		<polygon class="st4" points="665.7,324 665.4,323.7 694.9,365.6 702.3,359.9 " id="polygon24"></polygon>		<path class="st5" d="M 736.6,284.7 V 301 c 0,0 0,-20.3 -9.4,-18.8 -9.4,1.5 -87.6,-2.3 -90.8,-0.8 -3.1,1.6 22.6,20.3 5,17.6 l -9.9,-9.9 c -2.5,-2.4 -2.5,-6.4 -0.1,-8.9 1.2,-1.2 2.9,-1.9 4.6,-1.9 h 94.2 c 3.6,0 6.4,2.9 6.4,6.4 0,0 0,0 0,0 z" id="path26"></path>		<path class="st5" d="M 562.5,438 460.2,544.4 c -2.3,2.4 -6.1,2.5 -8.5,0.2 -0.1,-0.1 -0.2,-0.2 -0.3,-0.3 l -35.7,-38.7 c -2.3,-2.4 -6.1,-2.6 -8.5,-0.3 -0.1,0.1 -0.1,0.1 -0.2,0.2 l -164.3,164.4 -0.3,-0.3 c -2.4,-2.4 -2.5,-6.3 -0.1,-8.8 0,0 0,0 0,0 L 406.7,496.3 c 2.4,-2.4 6.3,-2.4 8.8,0 l 34.1,34.1 c 2.4,2.4 6.3,2.4 8.8,0 l 95.2,-95.2 c 0.4,-0.4 6,-5.2 6.5,-5.5 1.4,-0.8 2.3,-0.2 3.1,0.9 1.6,2.4 1.3,5.4 -0.7,7.4 z" id="path28"></path>		<path class="st5" d="m 670.9,323.8 -1.3,2.6 c -0.1,0.2 -0.2,0.3 -0.3,0.4 l -66.5,69.1 c -0.6,0.6 -1.6,0.6 -2.2,0.1 -0.1,-0.1 -0.3,-0.3 -0.3,-0.5 l -1.3,-2.8 c -0.3,-0.6 -0.1,-1.3 0.3,-1.7 l 69,-69 c 0.4,-0.4 1,-0.6 1.6,-0.4 v 0 c 0.8,0.3 1.3,1.1 1,1.9 0.1,0.2 0.1,0.2 0,0.3 z" id="path30"></path>	</g></g></svg>