<svg xmlns="http://www.w3.org/2000/svg" width="618.823" height="509.939" viewBox="0 0 618.823 509.939"><g transform="translate(0 -1.815)"><rect width="618.823" height="509.939" transform="translate(0 1.815)" fill="#fff"></rect><g transform="translate(-13.949 -63.329)"><path d="M397.344,261.056l71.436-71.436v39.965l-58.927,58.861" fill="#24313e" stroke="#031439" stroke-miterlimit="10" stroke-width="1.317"></path><path d="M488.335,252.826V190.8a4.131,4.131,0,0,0-4.148-4.148H422.166a4.23,4.23,0,0,0-4.214,4.148,4.342,4.342,0,0,0,1.251,3.029l62.021,62.021a4.094,4.094,0,0,0,5.86,0,4.18,4.18,0,0,0,1.251-3.029Z" fill="#24313e" stroke="#031439" stroke-miterlimit="10" stroke-width="1.317"></path><path d="M394.316,257.961l71.371-71.436V226.49L406.76,285.351,396.028,261.78Z" fill="#0062ff" stroke="#24313e" stroke-miterlimit="10" stroke-width="1.317"></path><path d="M448.568,312.938a10.656,10.656,0,0,0-9.02-10.337l-17.382-2.634a10.311,10.311,0,0,1-7.506-5.07l-3.555-5.86-17.974-29.891-2.963-4.938a10.759,10.759,0,0,1-.922-9.086l5.991-16.658a10.546,10.546,0,0,0-4.806-12.839l-13.958-7.769c-2.7-1.514-23.307-.79-23.307-.79V228l-56.952.527a10.582,10.582,0,0,1-8.362-3.819L276.33,210.951a10.544,10.544,0,0,0-10.4-3.555H249.6v30.879h-1.975l2.9,7.572a10.687,10.687,0,0,1-.658,8.954l-24.229,43.586a10.573,10.573,0,0,1-7.308,5.267l-17.25,3.226a10.681,10.681,0,0,0-8.691,10.666l.263,15.933a10.655,10.655,0,0,0,9.086,10.337l17.448,2.634a10.435,10.435,0,0,1,7.506,5.07l24.492,40.755a10.759,10.759,0,0,1,.922,9.086l-2.3,6.452h1.317v30.616s24.163,1.712,27.455-2.37l10.929-13.5a10.775,10.775,0,0,1,8.1-4.016h55.569v20.674l18.83-.4a10.436,10.436,0,0,0,6.584-1.383l13.826-8.1a10.646,10.646,0,0,0,4.543-12.97l-6.123-16.065a10.687,10.687,0,0,1,.658-8.954l24.163-43.52a10.387,10.387,0,0,1,7.308-5.267l17.25-3.226a10.693,10.693,0,0,0,8.691-10.666Zm-133,75.584a68.456,68.456,0,1,1,2.5-.066c-.856.066-1.646.066-2.5.066Z" fill="#24313e" stroke="#031439" stroke-miterlimit="10" stroke-width="1.317"></path><path d="M174.147,333.677a10.656,10.656,0,0,0,9.02,10.337l17.382,2.634a10.435,10.435,0,0,1,7.506,5.07l24.492,40.689a10.759,10.759,0,0,1,.922,9.086l-5.991,16.658a10.546,10.546,0,0,0,4.806,12.839l13.958,7.835a10.663,10.663,0,0,0,13.5-2.634l10.929-13.5a10.71,10.71,0,0,1,8.1-3.95l47.536-.856a10.562,10.562,0,0,1,8.3,3.819L346.121,435.4a10.705,10.705,0,0,0,13.5,2.37l13.761-8.033a10.753,10.753,0,0,0,4.609-12.97L371.864,400.7a10.687,10.687,0,0,1,.658-8.954l24.229-43.52a10.387,10.387,0,0,1,7.308-5.267l17.184-3.226a10.693,10.693,0,0,0,8.691-10.666l-.329-15.933a10.656,10.656,0,0,0-9.02-10.337L403.2,300.164a10.311,10.311,0,0,1-7.506-5.07l-24.492-40.689a10.759,10.759,0,0,1-.922-9.086l5.991-16.658a10.546,10.546,0,0,0-4.806-12.839l-13.892-7.769a10.557,10.557,0,0,0-13.431,2.568l-11,13.5a10.71,10.71,0,0,1-8.1,3.95l-47.536.856a10.5,10.5,0,0,1-8.3-3.753L257.7,211.478a10.61,10.61,0,0,0-13.5-2.3l-13.761,8.1a10.588,10.588,0,0,0-4.543,12.9l6.057,16.065a10.687,10.687,0,0,1-.658,8.954l-24.229,43.586a10.573,10.573,0,0,1-7.308,5.267l-17.25,3.226a10.744,10.744,0,0,0-8.691,10.666Zm129.968-88.423a77,77,0,1,1-77.1,79.8A77.28,77.28,0,0,1,304.115,245.254Z" fill="#ebf0f5" stroke="#24313e" stroke-miterlimit="10" stroke-width="1.317"></path><path d="M379.37,317.217l-6.057,6.057-66.959,66.959a4.133,4.133,0,0,1-5.794,0h0l-2.765-2.765-21.727-21.991-.329-.329a4.123,4.123,0,0,0-5.465.263L180.2,455.481a4.053,4.053,0,0,1-5.728,0l-11.785-11.588a2.865,2.865,0,0,1-.4-.461,4.029,4.029,0,0,1,.4-5.333L270.932,329.858a4.133,4.133,0,0,1,5.794,0l22.451,22.451a4.133,4.133,0,0,0,5.794,0l62.68-62.68a4.025,4.025,0,0,1,3.885-1.053,3.867,3.867,0,0,1,2.7,2.239,77.828,77.828,0,0,1,6.321,23.044,4.176,4.176,0,0,1-1.185,3.358Z" fill="#24313e" stroke="#031439" stroke-miterlimit="10" stroke-width="1.317"></path><path d="M380.16,309.711c.132,1.251-3.029,3.555-3.885,4.411l-5.07,5.07-67.947,67.947a4.119,4.119,0,0,1-5.465.263.793.793,0,0,1-.329-.329l-21.727-21.991-2.7-2.765a4.133,4.133,0,0,0-5.794-.066h0L177.11,452.387a4.053,4.053,0,0,1-5.728,0L162.3,443.5l-2.5-2.436-.2-.2a4.133,4.133,0,0,1-.066-5.794h0L267.771,326.764a4.133,4.133,0,0,1,5.794,0l22.451,22.451a4.133,4.133,0,0,0,5.794,0l62.68-62.68c.263-.263,3.95-3.424,4.28-3.621,1.844-.988,2.5,1.383,3.358,3.49.066.2.2.4.263.593.2.329,6.913,14.946,7.769,22.715Z" fill="#0062ff" stroke="#24313e" stroke-miterlimit="10" stroke-width="1.317"></path><path d="M379.37,317.217l-6.057,6.057c-.658-1.119-1.317-2.5-2.107-4.082-.593-1.251-1.185-2.7-1.844-4.345a58.664,58.664,0,0,1-4.477-22.517,42.835,42.835,0,0,1,.593-6.518c1.975-1.119,4.148-4.872,5.135-2.634.132.263,1.448,4.872,1.514,5.135,1.119.263,1.514,1.251,2.041,2.5a77.829,77.829,0,0,1,6.321,23.044,3.925,3.925,0,0,1-1.119,3.358Z" fill="#455666" opacity="0.57"></path><path d="M411.7,288.577a5.029,5.029,0,0,0-.593.593l-17.974-29.891,4.28-6.189a33.422,33.422,0,0,1,2.765,3.687q1.185,1.679,2.568,3.95a58.32,58.32,0,0,1,8.3,21.332A42.043,42.043,0,0,1,411.7,288.577Z" fill="#455666" opacity="0.57"></path><path d="M481.093,183.562a4.131,4.131,0,0,1,4.148,4.148v62.021a4.23,4.23,0,0,1-4.148,4.214,4.342,4.342,0,0,1-3.029-1.251l-55.5-55.5-6.518-6.518a4.153,4.153,0,0,1-.066-5.86,4.227,4.227,0,0,1,3.029-1.251Z" fill="#0062ff" stroke="#24313e" stroke-miterlimit="10" stroke-width="1.317"></path><path d="M438.3,213.322l-.2-.2,19.423,27.587,4.872-3.753Z" fill="#606060" opacity="0.57"></path><path d="M484.977,187.446v10.732s0-13.366-6.189-12.378-57.676-1.514-59.783-.527c-2.041,1.053,14.88,13.366,3.292,11.588l-6.518-6.518a4.153,4.153,0,0,1-.066-5.86,4.342,4.342,0,0,1,3.029-1.251h62.021a4.2,4.2,0,0,1,4.214,4.214h0Z" fill="#ebf0f5" opacity="0.2"></path><path d="M370.35,288.379,303,358.433a3.955,3.955,0,0,1-5.6.132l-.2-.2-23.5-25.48a3.958,3.958,0,0,0-5.6-.2l-.132.132L159.794,441.062l-.2-.2a4.133,4.133,0,0,1-.066-5.794h0L267.771,326.764a4.133,4.133,0,0,1,5.794,0l22.451,22.451a4.133,4.133,0,0,0,5.794,0l62.68-62.68c.263-.263,3.95-3.424,4.28-3.621.922-.527,1.514-.132,2.041.593a3.8,3.8,0,0,1-.461,4.872Z" fill="#ebf0f5" opacity="0.2"></path><path d="M441.721,213.19l-.856,1.712a.909.909,0,0,1-.2.263l-43.784,45.5a1.1,1.1,0,0,1-1.448.066.56.56,0,0,1-.2-.329l-.856-1.844a.992.992,0,0,1,.2-1.119L440.009,212a1.024,1.024,0,0,1,1.053-.263h0a.987.987,0,0,1,.658,1.251C441.786,213.124,441.786,213.124,441.721,213.19Z" fill="#ebf0f5" opacity="0.2"></path></g></g></svg>