<svg xmlns="http://www.w3.org/2000/svg" xmlns:xlink="http://www.w3.org/1999/xlink" width="753" height="471" viewBox="0 0 753 471"><defs><clipPath id="clip-Unifonic"><rect width="753" height="471"></rect></clipPath></defs><g id="Unifonic" clip-path="url(#clip-Unifonic)"><rect width="753" height="471" fill="#fff"></rect><g id="Group_1156" data-name="Group 1156"><path id="Rounded_Rectangle_16_copy_17" data-name="Rounded Rectangle 16 copy 17" d="M0,0H259a0,0,0,0,1,0,0V427a6,6,0,0,1-6,6H0a0,0,0,0,1,0,0V0A0,0,0,0,1,0,0Z" transform="translate(494 38)" fill="#282d44"></path><path id="Rounded_Rectangle_7_copy" data-name="Rounded Rectangle 7 copy" d="M-1.991,129.967l146,.013V561.959H.023a1.875,1.875,0,0,1-2.012-1.7Z" transform="translate(1.991 -90.967)" fill="#f5f7f9"></path><rect id="Rectangle_1" data-name="Rectangle 1" width="753" height="38" fill="#fff"></rect><rect id="Rectangle_1-2" data-name="Rectangle 1" width="753" height="2" transform="translate(0 38)" fill="#1aaf9b"></rect><rect id="Rounded_Rectangle_16_copy_16" data-name="Rounded Rectangle 16 copy 16" width="187.542" height="6" rx="3" transform="translate(190 92)" fill="#d9dee5"></rect><rect id="Rounded_Rectangle_16_copy_16-2" data-name="Rounded Rectangle 16 copy 16" width="39.483" height="6" rx="3" transform="translate(11 302)" fill="#d9dee5"></rect><rect id="Rounded_Rectangle_16_copy_16-3" data-name="Rounded Rectangle 16 copy 16" width="55" height="15" rx="3" transform="translate(679 440)" fill="#fff" opacity="0.2"></rect><rect id="Rounded_Rectangle_16_copy_16-4" data-name="Rounded Rectangle 16 copy 16" width="15" height="15" rx="3" transform="translate(654 440)" fill="#fff" opacity="0.2"></rect><rect id="Rounded_Rectangle_16_copy_16-5" data-name="Rounded Rectangle 16 copy 16" width="20" height="20" rx="10" transform="translate(714 9)" fill="#d9dee5"></rect><rect id="Rounded_Rectangle_16_copy_17-2" data-name="Rounded Rectangle 16 copy 17" width="31" height="4" rx="2" transform="translate(512 64)" fill="#a969e8"></rect><rect id="Rounded_Rectangle_16_copy_17-3" data-name="Rounded Rectangle 16 copy 17" width="61" height="4" rx="2" transform="translate(512 73)" fill="#a969e8"></rect><rect id="Rounded_Rectangle_16_copy_17-4" data-name="Rounded Rectangle 16 copy 17" width="47" height="4" rx="2" transform="translate(512 82)" fill="#a969e8"></rect><rect id="Rounded_Rectangle_16_copy_17-5" data-name="Rounded Rectangle 16 copy 17" width="47" height="4" rx="2" transform="translate(512 202)" fill="#a969e8"></rect><rect id="Rounded_Rectangle_16_copy_17-6" data-name="Rounded Rectangle 16 copy 17" width="47" height="4" rx="2" transform="translate(512 131)" fill="#7c88a2"></rect><rect id="Rounded_Rectangle_16_copy_17-7" data-name="Rounded Rectangle 16 copy 17" width="47" height="4" rx="2" transform="translate(512 235)" fill="#7c88a2"></rect><rect id="Rounded_Rectangle_16_copy_17-8" data-name="Rounded Rectangle 16 copy 17" width="47" height="4" rx="2" transform="translate(512 253)" fill="#7c88a2"></rect><rect id="Rounded_Rectangle_16_copy_17-9" data-name="Rounded Rectangle 16 copy 17" width="31" height="4" rx="2" transform="translate(512 140)" fill="#7c88a2"></rect><rect id="Rounded_Rectangle_16_copy_17-10" data-name="Rounded Rectangle 16 copy 17" width="17" height="4" rx="2" transform="translate(512 91)" fill="#a969e8"></rect><rect id="Rounded_Rectangle_16_copy_17-11" data-name="Rounded Rectangle 16 copy 17" width="17" height="4" rx="2" transform="translate(512 211)" fill="#a969e8"></rect><rect id="Rounded_Rectangle_16_copy_17-12" data-name="Rounded Rectangle 16 copy 17" width="17" height="4" rx="2" transform="translate(512 183)" fill="#a969e8"></rect><rect id="Rounded_Rectangle_16_copy_17-13" data-name="Rounded Rectangle 16 copy 17" width="17" height="4" rx="2" transform="translate(512 192)" fill="#a969e8"></rect><rect id="Rounded_Rectangle_16_copy_17-14" data-name="Rounded Rectangle 16 copy 17" width="17" height="4" rx="2" transform="translate(512 164)" fill="#a969e8"></rect><rect id="Rounded_Rectangle_16_copy_17-15" data-name="Rounded Rectangle 16 copy 17" width="17" height="4" rx="2" transform="translate(512 112)" fill="#a969e8"></rect><rect id="Rounded_Rectangle_16_copy_17-16" data-name="Rounded Rectangle 16 copy 17" width="40" height="4" rx="2" transform="translate(651 91)" fill="#a969e8"></rect><rect id="Rounded_Rectangle_16_copy_17-17" data-name="Rounded Rectangle 16 copy 17" width="93" height="4" rx="2" transform="translate(587 73)" fill="#7c88a2"></rect><rect id="Rounded_Rectangle_16_copy_17-18" data-name="Rounded Rectangle 16 copy 17" width="102" height="4" rx="2" transform="translate(570 82)" fill="#7c88a2"></rect><rect id="Rounded_Rectangle_16_copy_17-19" data-name="Rounded Rectangle 16 copy 17" width="102" height="4" rx="2" transform="translate(570 202)" fill="#7c88a2"></rect><rect id="Rounded_Rectangle_16_copy_17-20" data-name="Rounded Rectangle 16 copy 17" width="102" height="4" rx="2" transform="translate(570 131)" fill="#73c178"></rect><rect id="Rounded_Rectangle_16_copy_17-21" data-name="Rounded Rectangle 16 copy 17" width="102" height="4" rx="2" transform="translate(570 235)" fill="#73c178"></rect><rect id="Rounded_Rectangle_16_copy_17-22" data-name="Rounded Rectangle 16 copy 17" width="48" height="4" rx="2" transform="translate(570 253)" fill="#73c178"></rect><rect id="Rounded_Rectangle_16_copy_17-23" data-name="Rounded Rectangle 16 copy 17" width="80" height="4" rx="2" transform="translate(553 140)" fill="#73c178"></rect><rect id="Rounded_Rectangle_16_copy_17-24" data-name="Rounded Rectangle 16 copy 17" width="80" height="4" rx="2" transform="translate(512 244)" fill="#73c178"></rect><rect id="Rounded_Rectangle_16_copy_17-25" data-name="Rounded Rectangle 16 copy 17" width="102" height="4" rx="2" transform="translate(539 91)" fill="#7c88a2"></rect><rect id="Rounded_Rectangle_16_copy_17-26" data-name="Rounded Rectangle 16 copy 17" width="102" height="4" rx="2" transform="translate(539 211)" fill="#7c88a2"></rect><rect id="Rounded_Rectangle_16_copy_17-27" data-name="Rounded Rectangle 16 copy 17" width="54" height="4" rx="2" transform="translate(539 183)" fill="#7c88a2"></rect><rect id="Rounded_Rectangle_16_copy_17-28" data-name="Rounded Rectangle 16 copy 17" width="43" height="4" rx="2" transform="translate(539 192)" fill="#7c88a2"></rect><rect id="Rounded_Rectangle_16_copy_17-29" data-name="Rounded Rectangle 16 copy 17" width="19" height="4" rx="2" transform="translate(645 192)" fill="#7c88a2"></rect><rect id="Rounded_Rectangle_16_copy_17-30" data-name="Rounded Rectangle 16 copy 17" width="43" height="4" rx="2" transform="translate(592 192)" fill="#7c88a2"></rect><rect id="Rounded_Rectangle_16_copy_17-31" data-name="Rounded Rectangle 16 copy 17" width="102" height="4" rx="2" transform="translate(539 174)" fill="#7c88a2"></rect><rect id="Rounded_Rectangle_16_copy_17-32" data-name="Rounded Rectangle 16 copy 17" width="262.737" height="6" rx="3" transform="translate(190 103)" fill="#d9dee5"></rect><rect id="Rounded_Rectangle_16_copy_17-33" data-name="Rounded Rectangle 16 copy 17" width="265" height="206" rx="3" transform="translate(190 150)" fill="#f5f7f9"></rect><rect id="Rounded_Rectangle_16_copy_17-34" data-name="Rounded Rectangle 16 copy 17" width="37.678" height="6" rx="3" transform="translate(11 319)" fill="#d9dee5"></rect><rect id="Rounded_Rectangle_16_copy_19" data-name="Rounded Rectangle 16 copy 19" width="37.678" height="6" rx="3" transform="translate(11 165)" fill="#d9dee5"></rect><rect id="Rounded_Rectangle_16_copy_19-2" data-name="Rounded Rectangle 16 copy 19" width="37.678" height="6" rx="3" transform="translate(11 353)" fill="#d9dee5"></rect><rect id="Rounded_Rectangle_16_copy_19-3" data-name="Rounded Rectangle 16 copy 19" width="37.678" height="6" rx="3" transform="translate(11 422)" fill="#d9dee5"></rect><rect id="Rounded_Rectangle_16_copy_20" data-name="Rounded Rectangle 16 copy 20" width="37.678" height="6" rx="3" transform="translate(11 183)" fill="#d9dee5"></rect><rect id="Rounded_Rectangle_16_copy_20-2" data-name="Rounded Rectangle 16 copy 20" width="37.678" height="6" rx="3" transform="translate(11 371)" fill="#d9dee5"></rect><rect id="Rounded_Rectangle_16_copy_20-3" data-name="Rounded Rectangle 16 copy 20" width="37.678" height="6" rx="3" transform="translate(11 440)" fill="#d9dee5"></rect><rect id="Rounded_Rectangle_16_copy_21" data-name="Rounded Rectangle 16 copy 21" width="44.358" height="6" rx="3" transform="translate(11 200)" fill="#d9dee5"></rect><rect id="Rounded_Rectangle_16_copy_21-2" data-name="Rounded Rectangle 16 copy 21" width="44.358" height="6" rx="3" transform="translate(11 388)" fill="#1aaf9b"></rect><rect id="Rounded_Rectangle_16_copy_22" data-name="Rounded Rectangle 16 copy 22" width="44.358" height="6" rx="3" transform="translate(11 217)" fill="#d9dee5"></rect><rect id="Rounded_Rectangle_16_copy_22-2" data-name="Rounded Rectangle 16 copy 22" width="44.358" height="6" rx="3" transform="translate(11 405)" fill="#d9dee5"></rect><rect id="Rounded_Rectangle_16_copy_23" data-name="Rounded Rectangle 16 copy 23" width="44.358" height="6" rx="3" transform="translate(11 234)" fill="#d9dee5"></rect><rect id="Rounded_Rectangle_16_copy_24" data-name="Rounded Rectangle 16 copy 24" width="44.358" height="6" rx="3" transform="translate(11 251)" fill="#d9dee5"></rect><rect id="Rounded_Rectangle_16_copy_18" data-name="Rounded Rectangle 16 copy 18" width="46.487" height="6" rx="3" transform="translate(11 336)" fill="#d9dee5"></rect><g id="Rounded_Rectangle_3_copy_5" data-name="Rounded Rectangle 3 copy 5" transform="translate(76.5 82)" fill="#fff" stroke="#d9dee5" stroke-width="1"><rect width="58.741" height="18" rx="3" stroke="none"></rect><rect x="0.5" y="0.5" width="57.741" height="17" rx="2.5" fill="none"></rect></g><rect id="Rounded_Rectangle_3_copy_5-2" data-name="Rounded Rectangle 3 copy 5" width="58.741" height="18" rx="3" transform="translate(11 82)" fill="#1aaf9b"></rect><rect id="Rounded_Rectangle_1" data-name="Rounded Rectangle 1" width="124.284" height="18" rx="3" transform="translate(11.061 108)" fill="#fff"></rect><g id="Rounded_Rectangle_1-2" data-name="Rounded Rectangle 1" transform="translate(11.061 54)" fill="#fff" stroke="#d9dee5" stroke-width="1"><rect width="124.284" height="20" rx="3" stroke="none"></rect><rect x="0.5" y="0.5" width="123.284" height="19" rx="2.5" fill="none"></rect></g><path id="Search" d="M4.047-1.551A1.437,1.437,0,0,1,3.5-.355a2.4,2.4,0,0,1-1.52.434,3.626,3.626,0,0,1-1.586-.3v-.883a4.311,4.311,0,0,0,.83.289,3.52,3.52,0,0,0,.818.105,1.3,1.3,0,0,0,.818-.211.688.688,0,0,0,.264-.566.71.71,0,0,0-.242-.543,3.646,3.646,0,0,0-1-.527,2.645,2.645,0,0,1-1.1-.723,1.529,1.529,0,0,1-.32-.977A1.368,1.368,0,0,1,.965-5.383a2.106,2.106,0,0,1,1.363-.41,4.006,4.006,0,0,1,1.633.359l-.3.762A3.567,3.567,0,0,0,2.3-4.992a1.043,1.043,0,0,0-.687.2.648.648,0,0,0-.234.521.734.734,0,0,0,.094.381.958.958,0,0,0,.309.3,5.22,5.22,0,0,0,.773.371,4.232,4.232,0,0,1,.922.488,1.436,1.436,0,0,1,.43.512A1.539,1.539,0,0,1,4.047-1.551ZM6.941.078A2.09,2.09,0,0,1,5.365-.51,2.232,2.232,0,0,1,4.8-2.129a2.449,2.449,0,0,1,.527-1.664A1.821,1.821,0,0,1,6.773-4.4a1.78,1.78,0,0,1,1.352.52,1.985,1.985,0,0,1,.5,1.43v.5H5.742a1.419,1.419,0,0,0,.34.967,1.184,1.184,0,0,0,.9.338A3.331,3.331,0,0,0,7.7-.721a3.737,3.737,0,0,0,.709-.24v.746a2.818,2.818,0,0,1-.68.227A4.168,4.168,0,0,1,6.941.078ZM6.773-3.7a.922.922,0,0,0-.7.277,1.322,1.322,0,0,0-.314.809H7.719a1.2,1.2,0,0,0-.258-.811A.882.882,0,0,0,6.773-3.7ZM12.367,0l-.184-.6h-.031a1.77,1.77,0,0,1-.629.537,1.989,1.989,0,0,1-.812.143,1.375,1.375,0,0,1-.994-.344,1.286,1.286,0,0,1-.357-.973,1.142,1.142,0,0,1,.5-1.008,2.86,2.86,0,0,1,1.512-.371l.746-.023v-.23a.874.874,0,0,0-.193-.619.789.789,0,0,0-.6-.205,2.073,2.073,0,0,0-.637.1,4.8,4.8,0,0,0-.586.23l-.3-.656a3.2,3.2,0,0,1,.77-.279,3.541,3.541,0,0,1,.789-.1,1.869,1.869,0,0,1,1.244.359,1.407,1.407,0,0,1,.42,1.129V0ZM11-.625A1.137,1.137,0,0,0,11.8-.9a1.012,1.012,0,0,0,.3-.783v-.375l-.555.023a1.9,1.9,0,0,0-.943.217.659.659,0,0,0-.295.592.577.577,0,0,0,.172.447A.738.738,0,0,0,11-.625ZM16.5-4.4a2.21,2.21,0,0,1,.457.039l-.09.855a1.735,1.735,0,0,0-.406-.047,1.176,1.176,0,0,0-.893.359,1.3,1.3,0,0,0-.342.934V0H14.3V-4.32h.719l.121.762h.047a1.712,1.712,0,0,1,.561-.613A1.332,1.332,0,0,1,16.5-4.4ZM19.336.078a1.892,1.892,0,0,1-1.49-.572,2.391,2.391,0,0,1-.51-1.643,2.4,2.4,0,0,1,.533-1.676A1.978,1.978,0,0,1,19.41-4.4a2.888,2.888,0,0,1,1.23.254l-.277.738a2.78,2.78,0,0,0-.961-.227q-1.121,0-1.121,1.488a1.782,1.782,0,0,0,.279,1.092.967.967,0,0,0,.818.365,2.348,2.348,0,0,0,1.16-.3v.8a1.813,1.813,0,0,1-.525.207A3.153,3.153,0,0,1,19.336.078ZM25.355,0h-.922V-2.656a1.163,1.163,0,0,0-.2-.746.778.778,0,0,0-.639-.246,1.014,1.014,0,0,0-.85.346,1.9,1.9,0,0,0-.271,1.158V0h-.918V-6.078h.918v1.543a7.2,7.2,0,0,1-.047.793h.059a1.275,1.275,0,0,1,.521-.484,1.681,1.681,0,0,1,.779-.172,1.393,1.393,0,0,1,1.57,1.582Z" transform="translate(18.003 120)" fill="#b0b5c9"></path><path id="Search-2" data-name="Search" d="M.714-.671a.827.827,0,0,1,.2-.6.788.788,0,0,1,.591-.209.778.778,0,0,1,.6.218.833.833,0,0,1,.2.594.853.853,0,0,1-.207.6.77.77,0,0,1-.594.223.766.766,0,0,1-.591-.22A.858.858,0,0,1,.714-.671ZM10.6,0H9.029L5.167-6.257H5.124l.027.349q.075,1,.075,1.826V0H4.061V-7.853H5.618L9.469-1.627H9.5q-.011-.124-.043-.9T9.426-3.738V-7.853H10.6Zm4.533.107A2.874,2.874,0,0,1,12.969-.7a3.069,3.069,0,0,1-.781-2.226,3.367,3.367,0,0,1,.725-2.288A2.5,2.5,0,0,1,14.9-6.048a2.448,2.448,0,0,1,1.858.714,2.73,2.73,0,0,1,.682,1.966v.682H13.487a1.951,1.951,0,0,0,.467,1.329,1.628,1.628,0,0,0,1.241.465,4.58,4.58,0,0,0,.98-.1,5.138,5.138,0,0,0,.975-.33V-.3a3.875,3.875,0,0,1-.935.312A5.731,5.731,0,0,1,15.136.107Zm-.231-5.2a1.268,1.268,0,0,0-.964.381A1.817,1.817,0,0,0,13.508-3.6h2.7a1.644,1.644,0,0,0-.354-1.115A1.212,1.212,0,0,0,14.9-5.092ZM21.092-.913a3.069,3.069,0,0,0,.924-.145v.951a2.548,2.548,0,0,1-.54.153,3.719,3.719,0,0,1-.685.062Q19,.107,19-1.783v-3.2h-.811v-.559L19.057-6l.43-1.257h.779V-5.94h1.692v.956H20.265V-1.8a.892.892,0,0,0,.228.674A.832.832,0,0,0,21.092-.913Z" transform="translate(16.003 68)" fill="#282b2f"></path><path id="Get_SDK" data-name="Get SDK" d="M3.862-3.872H6.489V-.288a7.6,7.6,0,0,1-1.238.3A8.762,8.762,0,0,1,3.97.1a3.22,3.22,0,0,1-2.5-.959A3.864,3.864,0,0,1,.591-3.569a3.61,3.61,0,0,1,.991-2.7,3.726,3.726,0,0,1,2.729-.974,5.316,5.316,0,0,1,2.119.43l-.41.972a4.124,4.124,0,0,0-1.738-.4,2.341,2.341,0,0,0-1.807.718A2.778,2.778,0,0,0,1.812-3.56a2.93,2.93,0,0,0,.6,1.99,2.168,2.168,0,0,0,1.721.681A5.657,5.657,0,0,0,5.342-1.03V-2.871H3.862ZM10.439.1a2.612,2.612,0,0,1-1.97-.735,2.79,2.79,0,0,1-.71-2.024,3.061,3.061,0,0,1,.659-2.08A2.277,2.277,0,0,1,10.229-5.5a2.225,2.225,0,0,1,1.689.649,2.482,2.482,0,0,1,.62,1.787v.62H8.94a1.774,1.774,0,0,0,.425,1.208,1.48,1.48,0,0,0,1.128.422,4.164,4.164,0,0,0,.891-.09,4.671,4.671,0,0,0,.886-.3v.933a3.523,3.523,0,0,1-.85.283A5.21,5.21,0,0,1,10.439.1Zm-.21-4.727a1.153,1.153,0,0,0-.876.347A1.652,1.652,0,0,0,8.96-3.271h2.451a1.5,1.5,0,0,0-.322-1.013A1.1,1.1,0,0,0,10.229-4.629Zm5.625,3.8a2.79,2.79,0,0,0,.84-.132V-.1A2.316,2.316,0,0,1,16.2.042,3.381,3.381,0,0,1,15.581.1Q13.95.1,13.95-1.621v-2.91h-.737v-.508L14-5.459,14.395-6.6H15.1v1.2h1.538v.869H15.1v2.891a.811.811,0,0,0,.208.613A.757.757,0,0,0,15.854-.83Zm8.755-1.108a1.8,1.8,0,0,1-.688,1.494,3,3,0,0,1-1.9.542,4.532,4.532,0,0,1-1.982-.376v-1.1a5.388,5.388,0,0,0,1.038.361A4.4,4.4,0,0,0,22.1-.889a1.627,1.627,0,0,0,1.023-.264.86.86,0,0,0,.33-.708.887.887,0,0,0-.3-.679A4.558,4.558,0,0,0,21.9-3.2a3.307,3.307,0,0,1-1.377-.9,1.911,1.911,0,0,1-.4-1.221,1.71,1.71,0,0,1,.635-1.406,2.633,2.633,0,0,1,1.7-.513,5.007,5.007,0,0,1,2.041.449l-.371.952a4.459,4.459,0,0,0-1.7-.4,1.3,1.3,0,0,0-.859.247.81.81,0,0,0-.293.652.918.918,0,0,0,.117.476,1.2,1.2,0,0,0,.386.374,6.525,6.525,0,0,0,.967.464,5.29,5.29,0,0,1,1.152.61,1.8,1.8,0,0,1,.537.64A1.924,1.924,0,0,1,24.609-1.938Zm7.188-1.7a3.558,3.558,0,0,1-.981,2.7A3.942,3.942,0,0,1,27.988,0h-2V-7.139H28.2a3.652,3.652,0,0,1,2.651.918A3.43,3.43,0,0,1,31.8-3.638Zm-1.23.039q0-2.563-2.4-2.563H27.158V-.981h.83A2.3,2.3,0,0,0,30.566-3.6ZM38.779,0H37.427L35.186-3.232l-.688.562V0H33.33V-7.139H34.5V-3.73q.479-.586.952-1.128l1.929-2.28h1.328q-1.87,2.2-2.681,3.13Z" transform="translate(21 94.241)" fill="#fff"></path><g id="Group_1073" data-name="Group 1073" transform="translate(-1.008 -14)"><path id="API_Spec" data-name="API Spec" d="M4.3,0l-.57-1.586H1.543L.984,0H0L2.137-5.734H3.152L5.289,0ZM3.48-2.391,2.945-3.945q-.059-.156-.162-.492T2.641-4.93a8.754,8.754,0,0,1-.309,1.051L1.816-2.391ZM9.824-3.984a1.665,1.665,0,0,1-.586,1.371,2.581,2.581,0,0,1-1.668.477H6.977V0H6.043V-5.711H7.688a2.488,2.488,0,0,1,1.6.438A1.571,1.571,0,0,1,9.824-3.984ZM6.977-2.922h.5a1.778,1.778,0,0,0,1.055-.25.91.91,0,0,0,.336-.781.887.887,0,0,0-.3-.734,1.486,1.486,0,0,0-.937-.242H6.977ZM10.965,0V-5.711H11.9V0Zm7.813-1.551a1.437,1.437,0,0,1-.551,1.2,2.4,2.4,0,0,1-1.52.434,3.626,3.626,0,0,1-1.586-.3v-.883a4.311,4.311,0,0,0,.83.289,3.52,3.52,0,0,0,.818.105,1.3,1.3,0,0,0,.818-.211.688.688,0,0,0,.264-.566.71.71,0,0,0-.242-.543,3.646,3.646,0,0,0-1-.527,2.645,2.645,0,0,1-1.1-.723,1.529,1.529,0,0,1-.32-.977A1.368,1.368,0,0,1,15.7-5.383a2.106,2.106,0,0,1,1.363-.41,4.006,4.006,0,0,1,1.633.359l-.3.762a3.567,3.567,0,0,0-1.359-.32,1.043,1.043,0,0,0-.687.2.648.648,0,0,0-.234.521.734.734,0,0,0,.094.381.958.958,0,0,0,.309.3,5.22,5.22,0,0,0,.773.371,4.232,4.232,0,0,1,.922.488,1.436,1.436,0,0,1,.43.512A1.539,1.539,0,0,1,18.777-1.551Zm3.2,1.629A1.513,1.513,0,0,1,20.7-.512h-.055q.055.547.055.664v1.77h-.918V-4.32h.742q.031.121.129.578H20.7A1.438,1.438,0,0,1,21.992-4.4a1.5,1.5,0,0,1,1.26.586A2.642,2.642,0,0,1,23.7-2.168a2.644,2.644,0,0,1-.459,1.652A1.513,1.513,0,0,1,21.977.078Zm-.223-3.727a.954.954,0,0,0-.8.32A1.66,1.66,0,0,0,20.7-2.3v.137a2.021,2.021,0,0,0,.25,1.143.93.93,0,0,0,.816.354.829.829,0,0,0,.734-.391,2.017,2.017,0,0,0,.258-1.113,1.947,1.947,0,0,0-.256-1.1A.853.853,0,0,0,21.754-3.648Zm4.9,3.727A2.09,2.09,0,0,1,25.08-.51a2.232,2.232,0,0,1-.568-1.619,2.449,2.449,0,0,1,.527-1.664A1.821,1.821,0,0,1,26.488-4.4a1.78,1.78,0,0,1,1.352.52,1.985,1.985,0,0,1,.5,1.43v.5H25.457a1.419,1.419,0,0,0,.34.967,1.184,1.184,0,0,0,.9.338,3.331,3.331,0,0,0,.713-.072,3.737,3.737,0,0,0,.709-.24v.746a2.818,2.818,0,0,1-.68.227A4.168,4.168,0,0,1,26.656.078ZM26.488-3.7a.922.922,0,0,0-.7.277,1.322,1.322,0,0,0-.314.809h1.961a1.2,1.2,0,0,0-.258-.811A.882.882,0,0,0,26.488-3.7ZM31.121.078a1.892,1.892,0,0,1-1.49-.572,2.391,2.391,0,0,1-.51-1.643,2.4,2.4,0,0,1,.533-1.676A1.978,1.978,0,0,1,31.2-4.4a2.888,2.888,0,0,1,1.23.254l-.277.738a2.78,2.78,0,0,0-.961-.227q-1.121,0-1.121,1.488a1.782,1.782,0,0,0,.279,1.092.967.967,0,0,0,.818.365,2.348,2.348,0,0,0,1.16-.3v.8A1.813,1.813,0,0,1,31.8.016,3.153,3.153,0,0,1,31.121.078Z" transform="translate(96.836 108)" fill="#282d44"></path><g id="download" transform="translate(86.008 101)"><path id="Path_34488" data-name="Path 34488" d="M9.991,15v1.554a.777.777,0,0,1-.777.777H3.777A.777.777,0,0,1,3,16.554V15" transform="translate(-3 -10.104)" fill="none" stroke="#282d44" stroke-linecap="round" stroke-linejoin="round" stroke-width="1"></path><path id="Path_34489" data-name="Path 34489" d="M7,10l1.944,1.944L10.888,10" transform="translate(-5.446 -7.046)" fill="none" stroke="#282d44" stroke-linecap="round" stroke-linejoin="round" stroke-width="1"></path><line id="Line_205" data-name="Line 205" y1="4.86" transform="translate(3.511 0)" fill="none" stroke="#282d44" stroke-linecap="round" stroke-linejoin="round" stroke-width="1"></line></g></g><path id="Forma_1_copy_8" data-name="Forma 1 copy 8" d="M240.462,615.928l-2.348-2.291a.367.367,0,0,1,0-.528.389.389,0,0,1,.541,0l2.077,2.029,2.077-2.029a.389.389,0,0,1,.541,0,.367.367,0,0,1,0,.528L241,615.928a.389.389,0,0,1-.541,0Z" transform="translate(-114.649 -550.999)" fill="#282d44"></path><g id="Rounded_Rectangle_16_copy_16-6" data-name="Rounded Rectangle 16 copy 16" transform="translate(210 183)" fill="#fff" stroke="#d9dee5" stroke-width="1"><rect width="96.483" height="14" rx="3" stroke="none"></rect><rect x="0.5" y="0.5" width="95.483" height="13" rx="2.5" fill="none"></rect></g><rect id="Rounded_Rectangle_16_copy_16-7" data-name="Rounded Rectangle 16 copy 16" width="96.483" height="14" rx="3" transform="translate(210 248)" fill="#fff" stroke="#d9dee5" stroke-width="1"></rect><g id="Rounded_Rectangle_16_copy_16-8" data-name="Rounded Rectangle 16 copy 16" transform="translate(210 313)" fill="#fff" stroke="#d9dee5" stroke-width="1"><rect width="96.483" height="14" rx="3" stroke="none"></rect><rect x="0.5" y="0.5" width="95.483" height="13" rx="2.5" fill="none"></rect></g><rect id="Rounded_Rectangle_16_copy_17-35" data-name="Rounded Rectangle 16 copy 17" width="39" height="6" rx="3" transform="translate(210 172)" fill="#d9dee5"></rect><rect id="Rounded_Rectangle_16_copy_17-36" data-name="Rounded Rectangle 16 copy 17" width="39" height="6" rx="3" transform="translate(210 237)" fill="#d9dee5"></rect><rect id="Rounded_Rectangle_16_copy_17-37" data-name="Rounded Rectangle 16 copy 17" width="39" height="6" rx="3" transform="translate(210 302)" fill="#d9dee5"></rect><path id="Path_9593" data-name="Path 9593" d="M1886.458,36.275l-2.336-2.353V30.392h-1.557v1.961L1880.229,30,1874,36.275v.392h1.557V40.59h3.893V38.236h1.557V40.59h3.893V36.665h1.557Z" transform="translate(-1156.654 -17)" fill="#7c8395"></path><path id="Path_35079" data-name="Path 35079" d="M3.476-3.485H5.84V-.259A6.842,6.842,0,0,1,4.726.009,7.886,7.886,0,0,1,3.573.088a2.9,2.9,0,0,1-2.25-.864A3.477,3.477,0,0,1,.532-3.212,3.249,3.249,0,0,1,1.424-5.64,3.353,3.353,0,0,1,3.88-6.517a4.784,4.784,0,0,1,1.907.387l-.369.875a3.711,3.711,0,0,0-1.564-.36,2.107,2.107,0,0,0-1.626.646A2.5,2.5,0,0,0,1.63-3.2a2.637,2.637,0,0,0,.538,1.791A1.952,1.952,0,0,0,3.718-.8a5.091,5.091,0,0,0,1.09-.127V-2.584H3.476ZM11.017,0H7.383V-6.425h3.634v.888H8.433v1.749h2.421v.879H8.433V-.892h2.584Zm3.608,0h-1.05V-5.524h-1.89v-.9h4.83v.9h-1.89ZM19.9,0h-1.05V-5.524h-1.89v-.9h4.83v.9H19.9Zm2.874,0V-6.425h1.05V0Zm8.1,0H29.584l-3.16-5.12h-.035l.022.286q.062.817.062,1.494V0h-.954V-6.425h1.274l3.151,5.093h.026q-.009-.1-.035-.736t-.026-.991V-6.425h.962ZM35.2-3.485H37.56V-.259a6.842,6.842,0,0,1-1.114.268,7.886,7.886,0,0,1-1.154.079,2.9,2.9,0,0,1-2.25-.864,3.477,3.477,0,0,1-.791-2.437,3.249,3.249,0,0,1,.892-2.428A3.353,3.353,0,0,1,35.6-6.517a4.784,4.784,0,0,1,1.907.387l-.369.875a3.711,3.711,0,0,0-1.564-.36,2.107,2.107,0,0,0-1.626.646,2.5,2.5,0,0,0-.6,1.767,2.637,2.637,0,0,0,.538,1.791A1.952,1.952,0,0,0,35.438-.8a5.091,5.091,0,0,0,1.09-.127V-2.584H35.2Zm9.949,1.74A1.617,1.617,0,0,1,44.525-.4a2.7,2.7,0,0,1-1.709.488A4.079,4.079,0,0,1,41.032-.25v-.993a4.849,4.849,0,0,0,.934.325,3.959,3.959,0,0,0,.921.119,1.465,1.465,0,0,0,.921-.237.774.774,0,0,0,.3-.637.8.8,0,0,0-.272-.611,4.1,4.1,0,0,0-1.125-.593,2.976,2.976,0,0,1-1.239-.813,1.72,1.72,0,0,1-.36-1.1,1.539,1.539,0,0,1,.571-1.266,2.37,2.37,0,0,1,1.534-.461,4.506,4.506,0,0,1,1.837.4l-.334.857a4.013,4.013,0,0,0-1.529-.36,1.174,1.174,0,0,0-.773.222.729.729,0,0,0-.264.587.826.826,0,0,0,.105.428,1.077,1.077,0,0,0,.347.336,5.872,5.872,0,0,0,.87.417,4.761,4.761,0,0,1,1.037.549,1.616,1.616,0,0,1,.483.576A1.732,1.732,0,0,1,45.145-1.745ZM48.608,0h-1.05V-5.524h-1.89v-.9H50.5v.9h-1.89Zm6.231,0L54.2-1.784H51.741L51.113,0H50.005l2.4-6.451h1.143L55.956,0Zm-.918-2.689-.6-1.749q-.066-.176-.182-.554t-.16-.554a9.849,9.849,0,0,1-.347,1.182l-.58,1.674Zm3.933-.747h.729a1.666,1.666,0,0,0,1.063-.272.989.989,0,0,0,.33-.809.87.87,0,0,0-.356-.782,1.952,1.952,0,0,0-1.072-.237h-.694Zm0,.87V0H56.8V-6.425h1.815a2.982,2.982,0,0,1,1.841.466,1.673,1.673,0,0,1,.6,1.406A1.758,1.758,0,0,1,59.81-2.843L61.625,0h-1.2L58.891-2.566ZM64.775,0h-1.05V-5.524h-1.89v-.9h4.83v.9h-1.89Zm6.508,0H67.649V-6.425h3.634v.888H68.7v1.749h2.421v.879H68.7V-.892h2.584ZM77.9-3.274a3.2,3.2,0,0,1-.883,2.432A3.548,3.548,0,0,1,74.47,0h-1.8V-6.425h1.986a3.286,3.286,0,0,1,2.386.826A3.087,3.087,0,0,1,77.9-3.274Zm-1.107.035q0-2.307-2.158-2.307h-.91V-.883h.747A2.067,2.067,0,0,0,76.79-3.239Z" transform="translate(11 153)" fill="#6b7e8f"></path><text id="Parameters" transform="translate(257 144)" fill="#6b7e8f" font-size="9" font-family="OpenSans-Bold, Open Sans" font-weight="700"><tspan x="0" y="0">PARAMETERS</tspan></text><path id="Path_35080" data-name="Path 35080" d="M2.922,0H1.711V-4.7H.16V-5.711H4.473V-4.7H2.922ZM6.563-3.176h.391A1.494,1.494,0,0,0,7.8-3.367a.683.683,0,0,0,.273-.6.625.625,0,0,0-.279-.578,1.7,1.7,0,0,0-.865-.172H6.563Zm0,.984V0H5.352V-5.711H7.016a2.848,2.848,0,0,1,1.723.424A1.513,1.513,0,0,1,9.3-4a1.515,1.515,0,0,1-.277.9,1.835,1.835,0,0,1-.785.615Q9.523-.562,9.914,0H8.57L7.207-2.191ZM12.41-3.359,13.6-5.711h1.3L13.012-2.223V0h-1.2V-2.184L9.914-5.711h1.313ZM17.7,0V-5.711h1.211V0Zm4.852,0H21.344V-4.7H19.793V-5.711h4.313V-4.7H22.555Zm9.691-2.863a3.1,3.1,0,0,1-.7,2.18,2.607,2.607,0,0,1-2.016.762,2.607,2.607,0,0,1-2.016-.762,3.111,3.111,0,0,1-.7-2.187,3.069,3.069,0,0,1,.705-2.178A2.637,2.637,0,0,1,29.535-5.8a2.6,2.6,0,0,1,2.014.758A3.107,3.107,0,0,1,32.246-2.863Zm-4.168,0a2.386,2.386,0,0,0,.363,1.441,1.271,1.271,0,0,0,1.086.484q1.449,0,1.449-1.926t-1.441-1.93a1.28,1.28,0,0,0-1.09.486A2.376,2.376,0,0,0,28.078-2.863Zm10-2.848v3.7a2.13,2.13,0,0,1-.283,1.109,1.843,1.843,0,0,1-.818.73,2.927,2.927,0,0,1-1.266.254A2.423,2.423,0,0,1,34-.486a2,2,0,0,1-.609-1.545v-3.68H34.6v3.5a1.464,1.464,0,0,0,.266.969,1.1,1.1,0,0,0,.879.309,1.08,1.08,0,0,0,.861-.311,1.472,1.472,0,0,0,.268-.975V-5.711ZM41.68,0H40.469V-4.7H38.918V-5.711H43.23V-4.7H41.68Z" transform="translate(685 451)" fill="#fff"></path><path id="Path_35078" data-name="Path 35078" d="M4.834,0,4.192-1.784H1.736L1.107,0H0L2.4-6.451H3.546L5.95,0ZM3.916-2.689l-.6-1.749q-.066-.176-.182-.554t-.16-.554a9.849,9.849,0,0,1-.347,1.182l-.58,1.674Zm7.137-1.793a1.873,1.873,0,0,1-.659,1.542A2.9,2.9,0,0,1,8.517-2.4H7.849V0H6.8V-6.425h1.85a2.8,2.8,0,0,1,1.8.492A1.767,1.767,0,0,1,11.052-4.482Zm-3.2,1.2h.558a2,2,0,0,0,1.187-.281,1.024,1.024,0,0,0,.378-.879,1,1,0,0,0-.338-.826,1.671,1.671,0,0,0-1.055-.272H7.849ZM12.335,0V-6.425h1.05V0Zm8.719,0H17.42V-6.425h3.634v.888H18.47v1.749h2.421v.879H18.47V-.892h2.584ZM27.8,0H26.508l-3.16-5.12h-.035l.022.286q.062.817.062,1.494V0h-.954V-6.425h1.274l3.151,5.093h.026q-.009-.1-.035-.736t-.026-.991V-6.425H27.8Zm6.921-3.274a3.2,3.2,0,0,1-.883,2.432A3.548,3.548,0,0,1,31.289,0h-1.8V-6.425h1.986a3.286,3.286,0,0,1,2.386.826A3.087,3.087,0,0,1,34.717-3.274Zm-1.107.035q0-2.307-2.158-2.307h-.91V-.883h.747A2.067,2.067,0,0,0,33.609-3.239Zm6.741-1.244a1.873,1.873,0,0,1-.659,1.542,2.9,2.9,0,0,1-1.876.536h-.668V0H36.1V-6.425h1.85a2.8,2.8,0,0,1,1.8.492A1.767,1.767,0,0,1,40.351-4.482Zm-3.2,1.2h.558a2,2,0,0,0,1.187-.281,1.024,1.024,0,0,0,.378-.879,1,1,0,0,0-.338-.826,1.671,1.671,0,0,0-1.055-.272h-.729Zm10.191.066a3.514,3.514,0,0,1-.784,2.439,2.837,2.837,0,0,1-2.221.87A2.857,2.857,0,0,1,42.1-.776a3.536,3.536,0,0,1-.78-2.454A3.482,3.482,0,0,1,42.1-5.673a2.89,2.89,0,0,1,2.239-.853,2.832,2.832,0,0,1,2.215.866A3.511,3.511,0,0,1,47.338-3.221Zm-4.9,0a2.881,2.881,0,0,0,.479,1.8,1.691,1.691,0,0,0,1.419.613,1.688,1.688,0,0,0,1.413-.606,2.886,2.886,0,0,0,.477-1.806,2.892,2.892,0,0,0-.472-1.793,1.67,1.67,0,0,0-1.408-.611,1.705,1.705,0,0,0-1.426.611A2.853,2.853,0,0,0,42.434-3.221ZM48.718,0V-6.425h1.05V0Zm8.1,0H55.529L52.37-5.12h-.035l.022.286q.062.817.062,1.494V0h-.954V-6.425h1.274L55.89-1.332h.026q-.009-.1-.035-.736t-.026-.991V-6.425h.962Zm3.916,0h-1.05V-5.524h-1.89v-.9h4.83v.9h-1.89Zm6.579-1.745A1.617,1.617,0,0,1,66.691-.4a2.7,2.7,0,0,1-1.709.488A4.079,4.079,0,0,1,63.2-.25v-.993a4.849,4.849,0,0,0,.934.325,3.959,3.959,0,0,0,.921.119,1.465,1.465,0,0,0,.921-.237.774.774,0,0,0,.3-.637A.8.8,0,0,0,66-2.285a4.1,4.1,0,0,0-1.125-.593,2.976,2.976,0,0,1-1.239-.813,1.72,1.72,0,0,1-.36-1.1,1.539,1.539,0,0,1,.571-1.266,2.37,2.37,0,0,1,1.534-.461,4.506,4.506,0,0,1,1.837.4l-.334.857a4.013,4.013,0,0,0-1.529-.36,1.174,1.174,0,0,0-.773.222.729.729,0,0,0-.264.587.826.826,0,0,0,.105.428,1.077,1.077,0,0,0,.347.336,5.872,5.872,0,0,0,.87.417,4.761,4.761,0,0,1,1.037.549,1.616,1.616,0,0,1,.483.576A1.732,1.732,0,0,1,67.311-1.745Z" transform="translate(11 290)" fill="#6b7e8f"></path><rect id="Rectangle_2305" data-name="Rectangle 2305" width="59" height="25" rx="3" transform="translate(190 131)" fill="#f5f7f9"></rect><text id="Console" transform="translate(199 144)" fill="#455666" font-size="9" font-family="OpenSans-Bold, Open Sans" font-weight="700"><tspan x="0" y="0">CONSOLE</tspan></text><rect id="Rounded_Rectangle_16_copy_17-38" data-name="Rounded Rectangle 16 copy 17" width="150" height="6" rx="3" transform="translate(190 394)" fill="#d9dee5"></rect><path id="Rounded_Rectangle_16_copy_17-39" data-name="Rounded Rectangle 16 copy 17" d="M3,0H262a3,3,0,0,1,3,3V36a0,0,0,0,1,0,0H0a0,0,0,0,1,0,0V3A3,3,0,0,1,3,0Z" transform="translate(190 435)" fill="#f5f7f9"></path><path id="Path_35076" data-name="Path 35076" d="M2.109-3.818H2.92a1.851,1.851,0,0,0,1.182-.3,1.1,1.1,0,0,0,.366-.9.967.967,0,0,0-.4-.869,2.169,2.169,0,0,0-1.191-.264H2.109Zm0,.967V0H.942V-7.139H2.959A3.313,3.313,0,0,1,5-6.621a1.858,1.858,0,0,1,.664,1.563,1.953,1.953,0,0,1-1.387,1.9L6.3,0H4.971L3.262-2.852ZM9.57.1A2.612,2.612,0,0,1,7.6-.637a2.79,2.79,0,0,1-.71-2.024,3.061,3.061,0,0,1,.659-2.08A2.277,2.277,0,0,1,9.36-5.5a2.225,2.225,0,0,1,1.689.649,2.482,2.482,0,0,1,.62,1.787v.62h-3.6A1.774,1.774,0,0,0,8.5-1.233a1.48,1.48,0,0,0,1.128.422,4.164,4.164,0,0,0,.891-.09,4.671,4.671,0,0,0,.886-.3v.933a3.523,3.523,0,0,1-.85.283A5.21,5.21,0,0,1,9.57.1ZM9.36-4.629a1.153,1.153,0,0,0-.876.347,1.652,1.652,0,0,0-.393,1.011h2.451a1.5,1.5,0,0,0-.322-1.013A1.1,1.1,0,0,0,9.36-4.629ZM16.6-1.538a1.413,1.413,0,0,1-.576,1.213A2.759,2.759,0,0,1,14.375.1a3.9,3.9,0,0,1-1.733-.327v-.991a4.256,4.256,0,0,0,1.772.439q1.06,0,1.06-.64a.507.507,0,0,0-.117-.342,1.387,1.387,0,0,0-.386-.283,6.638,6.638,0,0,0-.747-.332A3.456,3.456,0,0,1,12.961-3.1a1.337,1.337,0,0,1-.33-.937,1.231,1.231,0,0,1,.559-1.077A2.653,2.653,0,0,1,14.712-5.5a4.308,4.308,0,0,1,1.8.386l-.371.864a4.007,4.007,0,0,0-1.47-.361q-.908,0-.908.518a.521.521,0,0,0,.237.43,5.208,5.208,0,0,0,1.033.483,4.721,4.721,0,0,1,.972.474,1.415,1.415,0,0,1,.449.5A1.434,1.434,0,0,1,16.6-1.538ZM20.581.1A1.891,1.891,0,0,1,18.989-.64h-.068q.068.684.068.83V2.4H17.842V-5.4h.928q.039.151.161.723h.059A1.8,1.8,0,0,1,20.6-5.5a1.874,1.874,0,0,1,1.575.732,3.3,3.3,0,0,1,.564,2.056,3.3,3.3,0,0,1-.574,2.065A1.891,1.891,0,0,1,20.581.1ZM20.3-4.561a1.193,1.193,0,0,0-1,.4,2.075,2.075,0,0,0-.315,1.279v.171A2.526,2.526,0,0,0,19.3-1.282a1.162,1.162,0,0,0,1.021.442,1.036,1.036,0,0,0,.918-.488,2.522,2.522,0,0,0,.322-1.392,2.433,2.433,0,0,0-.32-1.375A1.067,1.067,0,0,0,20.3-4.561Zm8.56,1.851a2.948,2.948,0,0,1-.679,2.065A2.432,2.432,0,0,1,26.294.1a2.589,2.589,0,0,1-1.338-.342,2.256,2.256,0,0,1-.894-.981A3.343,3.343,0,0,1,23.75-2.71a2.928,2.928,0,0,1,.674-2.051,2.443,2.443,0,0,1,1.9-.737,2.379,2.379,0,0,1,1.855.754A2.914,2.914,0,0,1,28.862-2.71Zm-3.931,0q0,1.87,1.382,1.87t1.367-1.87q0-1.851-1.377-1.851a1.174,1.174,0,0,0-1.047.479A2.435,2.435,0,0,0,24.932-2.71Zm10,2.71H33.779V-3.32a1.453,1.453,0,0,0-.251-.933.972.972,0,0,0-.8-.308,1.269,1.269,0,0,0-1.064.43,2.372,2.372,0,0,0-.337,1.44V0H30.181V-5.4h.9l.161.708H31.3a1.6,1.6,0,0,1,.693-.6,2.324,2.324,0,0,1,1-.21,1.733,1.733,0,0,1,1.943,1.978Zm5.225-1.538A1.413,1.413,0,0,1,39.58-.325,2.759,2.759,0,0,1,37.93.1,3.9,3.9,0,0,1,36.2-.229v-.991a4.256,4.256,0,0,0,1.772.439q1.06,0,1.06-.64a.507.507,0,0,0-.117-.342,1.387,1.387,0,0,0-.386-.283,6.638,6.638,0,0,0-.747-.332A3.456,3.456,0,0,1,36.516-3.1a1.337,1.337,0,0,1-.33-.937,1.231,1.231,0,0,1,.559-1.077A2.653,2.653,0,0,1,38.267-5.5a4.308,4.308,0,0,1,1.8.386l-.371.864a4.007,4.007,0,0,0-1.47-.361q-.908,0-.908.518a.521.521,0,0,0,.237.43,5.208,5.208,0,0,0,1.033.483,4.721,4.721,0,0,1,.972.474,1.415,1.415,0,0,1,.449.5A1.434,1.434,0,0,1,40.156-1.538ZM43.755.1a2.612,2.612,0,0,1-1.97-.735,2.79,2.79,0,0,1-.71-2.024,3.061,3.061,0,0,1,.659-2.08A2.277,2.277,0,0,1,43.545-5.5a2.225,2.225,0,0,1,1.689.649,2.482,2.482,0,0,1,.62,1.787v.62h-3.6a1.774,1.774,0,0,0,.425,1.208,1.48,1.48,0,0,0,1.128.422A4.164,4.164,0,0,0,44.7-.9a4.671,4.671,0,0,0,.886-.3v.933a3.523,3.523,0,0,1-.85.283A5.21,5.21,0,0,1,43.755.1Zm-.21-4.727a1.153,1.153,0,0,0-.876.347,1.652,1.652,0,0,0-.393,1.011h2.451A1.5,1.5,0,0,0,44.4-4.285,1.1,1.1,0,0,0,43.545-4.629ZM52.344,0H51.177V-6.138h-2.1v-1h5.366v1h-2.1Zm2.051-5.4h1.25l1.1,3.062a5.809,5.809,0,0,1,.332,1.23h.039a5.132,5.132,0,0,1,.161-.652q.117-.383,1.24-3.64h1.24L57.446.718a2.191,2.191,0,0,1-2.1,1.685,3.3,3.3,0,0,1-.742-.083V1.411a2.689,2.689,0,0,0,.591.059A1.21,1.21,0,0,0,56.362.508l.2-.508ZM63.315.1A1.891,1.891,0,0,1,61.724-.64h-.068q.068.684.068.83V2.4H60.576V-5.4H61.5q.039.151.161.723h.059a1.8,1.8,0,0,1,1.611-.82,1.874,1.874,0,0,1,1.575.732,3.3,3.3,0,0,1,.564,2.056A3.3,3.3,0,0,1,64.9-.645,1.891,1.891,0,0,1,63.315.1Zm-.278-4.658a1.193,1.193,0,0,0-1,.4,2.075,2.075,0,0,0-.315,1.279v.171a2.526,2.526,0,0,0,.313,1.428,1.162,1.162,0,0,0,1.021.442,1.036,1.036,0,0,0,.918-.488A2.522,2.522,0,0,0,64.3-2.72a2.433,2.433,0,0,0-.32-1.375A1.067,1.067,0,0,0,63.037-4.561ZM69.165.1a2.612,2.612,0,0,1-1.97-.735,2.79,2.79,0,0,1-.71-2.024,3.061,3.061,0,0,1,.659-2.08A2.277,2.277,0,0,1,68.955-5.5a2.225,2.225,0,0,1,1.689.649,2.482,2.482,0,0,1,.62,1.787v.62h-3.6a1.774,1.774,0,0,0,.425,1.208,1.48,1.48,0,0,0,1.128.422A4.164,4.164,0,0,0,70.11-.9,4.671,4.671,0,0,0,71-1.2v.933a3.523,3.523,0,0,1-.85.283A5.21,5.21,0,0,1,69.165.1Zm-.21-4.727a1.153,1.153,0,0,0-.876.347,1.652,1.652,0,0,0-.393,1.011h2.451a1.5,1.5,0,0,0-.322-1.013A1.1,1.1,0,0,0,68.955-4.629Z" transform="translate(190 385)" fill="#455666"></path><path id="Path_35077" data-name="Path 35077" d="M4.98,0H.942V-7.139H4.98v.986H2.109v1.943H4.8v.977H2.109V-.991H4.98ZM7.6-2.759,5.791-5.4H7.1l1.23,1.89L9.57-5.4h1.3L9.053-2.759,10.962,0h-1.3L8.33-2.021,7,0H5.7ZM15.288,0l-.229-.752H15.02a2.212,2.212,0,0,1-.786.671A2.486,2.486,0,0,1,13.218.1a1.719,1.719,0,0,1-1.243-.43,1.608,1.608,0,0,1-.447-1.216,1.428,1.428,0,0,1,.62-1.26,3.576,3.576,0,0,1,1.89-.464l.933-.029v-.288a1.092,1.092,0,0,0-.242-.774.986.986,0,0,0-.75-.256,2.592,2.592,0,0,0-.8.122,6.006,6.006,0,0,0-.732.288l-.371-.82a3.994,3.994,0,0,1,.962-.349,4.427,4.427,0,0,1,.986-.12,2.336,2.336,0,0,1,1.555.449,1.759,1.759,0,0,1,.525,1.411V0ZM13.579-.781a1.421,1.421,0,0,0,1-.349,1.266,1.266,0,0,0,.378-.979v-.469l-.693.029a2.372,2.372,0,0,0-1.179.271.823.823,0,0,0-.369.74.722.722,0,0,0,.215.559A.923.923,0,0,0,13.579-.781ZM22.261,0H21.108V-3.33a1.51,1.51,0,0,0-.234-.925.865.865,0,0,0-.732-.305,1.117,1.117,0,0,0-.974.432,2.535,2.535,0,0,0-.31,1.438V0H17.71V-5.4h.9l.161.708h.059a1.5,1.5,0,0,1,.652-.6,2.1,2.1,0,0,1,.94-.21,1.642,1.642,0,0,1,1.65.85h.078a1.646,1.646,0,0,1,.674-.625,2.138,2.138,0,0,1,1-.225,1.814,1.814,0,0,1,1.409.488,2.162,2.162,0,0,1,.442,1.489V0H24.521V-3.33a1.5,1.5,0,0,0-.237-.925.872.872,0,0,0-.735-.305,1.139,1.139,0,0,0-.979.417,2.152,2.152,0,0,0-.31,1.282ZM30.01.1A1.891,1.891,0,0,1,28.418-.64H28.35q.068.684.068.83V2.4H27.271V-5.4H28.2q.039.151.161.723h.059a1.8,1.8,0,0,1,1.611-.82,1.874,1.874,0,0,1,1.575.732,3.3,3.3,0,0,1,.564,2.056,3.3,3.3,0,0,1-.574,2.065A1.891,1.891,0,0,1,30.01.1Zm-.278-4.658a1.193,1.193,0,0,0-1,.4,2.075,2.075,0,0,0-.315,1.279v.171a2.526,2.526,0,0,0,.313,1.428,1.162,1.162,0,0,0,1.021.442,1.036,1.036,0,0,0,.918-.488,2.522,2.522,0,0,0,.322-1.392,2.433,2.433,0,0,0-.32-1.375A1.067,1.067,0,0,0,29.731-4.561ZM34.648,0H33.5V-7.6h1.147Zm4,.1a2.612,2.612,0,0,1-1.97-.735,2.79,2.79,0,0,1-.71-2.024,3.061,3.061,0,0,1,.659-2.08A2.277,2.277,0,0,1,38.438-5.5a2.225,2.225,0,0,1,1.689.649,2.482,2.482,0,0,1,.62,1.787v.62h-3.6a1.774,1.774,0,0,0,.425,1.208A1.48,1.48,0,0,0,38.7-.811a4.164,4.164,0,0,0,.891-.09,4.671,4.671,0,0,0,.886-.3v.933a3.523,3.523,0,0,1-.85.283A5.21,5.21,0,0,1,38.647.1Zm-.21-4.727a1.153,1.153,0,0,0-.876.347,1.652,1.652,0,0,0-.393,1.011h2.451A1.5,1.5,0,0,0,39.3-4.285,1.1,1.1,0,0,0,38.438-4.629Zm7.5.811h.811a1.851,1.851,0,0,0,1.182-.3,1.1,1.1,0,0,0,.366-.9.967.967,0,0,0-.4-.869,2.169,2.169,0,0,0-1.191-.264h-.771Zm0,.967V0H44.771V-7.139h2.017a3.313,3.313,0,0,1,2.046.518A1.858,1.858,0,0,1,49.5-5.059a1.953,1.953,0,0,1-1.387,1.9L50.127,0H48.8L47.09-2.852ZM53.4.1a2.612,2.612,0,0,1-1.97-.735,2.79,2.79,0,0,1-.71-2.024,3.061,3.061,0,0,1,.659-2.08A2.277,2.277,0,0,1,53.188-5.5a2.225,2.225,0,0,1,1.689.649,2.482,2.482,0,0,1,.62,1.787v.62H51.9a1.774,1.774,0,0,0,.425,1.208,1.48,1.48,0,0,0,1.128.422,4.164,4.164,0,0,0,.891-.09,4.671,4.671,0,0,0,.886-.3v.933a3.523,3.523,0,0,1-.85.283A5.21,5.21,0,0,1,53.4.1Zm-.21-4.727a1.153,1.153,0,0,0-.876.347,1.652,1.652,0,0,0-.393,1.011H54.37a1.5,1.5,0,0,0-.322-1.013A1.1,1.1,0,0,0,53.188-4.629ZM60.43-1.538a1.413,1.413,0,0,1-.576,1.213A2.759,2.759,0,0,1,58.2.1,3.9,3.9,0,0,1,56.47-.229v-.991a4.256,4.256,0,0,0,1.772.439q1.06,0,1.06-.64a.507.507,0,0,0-.117-.342,1.387,1.387,0,0,0-.386-.283,6.638,6.638,0,0,0-.747-.332A3.456,3.456,0,0,1,56.79-3.1a1.337,1.337,0,0,1-.33-.937,1.231,1.231,0,0,1,.559-1.077A2.653,2.653,0,0,1,58.54-5.5a4.308,4.308,0,0,1,1.8.386l-.371.864a4.007,4.007,0,0,0-1.47-.361q-.908,0-.908.518a.521.521,0,0,0,.237.43,5.208,5.208,0,0,0,1.033.483,4.721,4.721,0,0,1,.972.474,1.415,1.415,0,0,1,.449.5A1.434,1.434,0,0,1,60.43-1.538ZM64.409.1A1.891,1.891,0,0,1,62.817-.64h-.068q.068.684.068.83V2.4H61.67V-5.4H62.6q.039.151.161.723h.059a1.8,1.8,0,0,1,1.611-.82A1.874,1.874,0,0,1,66-4.766a3.3,3.3,0,0,1,.564,2.056,3.3,3.3,0,0,1-.574,2.065A1.891,1.891,0,0,1,64.409.1Zm-.278-4.658a1.193,1.193,0,0,0-1,.4,2.075,2.075,0,0,0-.315,1.279v.171a2.526,2.526,0,0,0,.313,1.428A1.162,1.162,0,0,0,64.15-.84a1.036,1.036,0,0,0,.918-.488,2.522,2.522,0,0,0,.322-1.392,2.433,2.433,0,0,0-.32-1.375A1.067,1.067,0,0,0,64.131-4.561ZM72.69-2.71a2.948,2.948,0,0,1-.679,2.065A2.432,2.432,0,0,1,70.122.1a2.589,2.589,0,0,1-1.338-.342,2.257,2.257,0,0,1-.894-.981,3.343,3.343,0,0,1-.312-1.484,2.928,2.928,0,0,1,.674-2.051,2.443,2.443,0,0,1,1.9-.737,2.379,2.379,0,0,1,1.855.754A2.914,2.914,0,0,1,72.69-2.71Zm-3.931,0q0,1.87,1.382,1.87t1.367-1.87q0-1.851-1.377-1.851a1.174,1.174,0,0,0-1.047.479A2.435,2.435,0,0,0,68.76-2.71ZM78.76,0H77.607V-3.32a1.453,1.453,0,0,0-.251-.933.972.972,0,0,0-.8-.308,1.269,1.269,0,0,0-1.064.43,2.372,2.372,0,0,0-.337,1.44V0H74.009V-5.4h.9l.161.708h.059a1.6,1.6,0,0,1,.693-.6,2.324,2.324,0,0,1,1-.21A1.733,1.733,0,0,1,78.76-3.521Zm5.225-1.538a1.413,1.413,0,0,1-.576,1.213A2.759,2.759,0,0,1,81.758.1a3.9,3.9,0,0,1-1.733-.327v-.991A4.256,4.256,0,0,0,81.8-.781q1.06,0,1.06-.64a.507.507,0,0,0-.117-.342,1.387,1.387,0,0,0-.386-.283,6.639,6.639,0,0,0-.747-.332A3.456,3.456,0,0,1,80.344-3.1a1.337,1.337,0,0,1-.33-.937,1.231,1.231,0,0,1,.559-1.077A2.653,2.653,0,0,1,82.095-5.5a4.308,4.308,0,0,1,1.8.386l-.371.864a4.007,4.007,0,0,0-1.47-.361q-.908,0-.908.518a.521.521,0,0,0,.237.43,5.208,5.208,0,0,0,1.033.483,4.721,4.721,0,0,1,.972.474,1.415,1.415,0,0,1,.449.5A1.434,1.434,0,0,1,83.984-1.538ZM87.583.1a2.612,2.612,0,0,1-1.97-.735,2.79,2.79,0,0,1-.71-2.024,3.061,3.061,0,0,1,.659-2.08A2.277,2.277,0,0,1,87.373-5.5a2.225,2.225,0,0,1,1.689.649,2.482,2.482,0,0,1,.62,1.787v.62h-3.6a1.774,1.774,0,0,0,.425,1.208,1.48,1.48,0,0,0,1.128.422,4.164,4.164,0,0,0,.891-.09,4.671,4.671,0,0,0,.886-.3v.933a3.523,3.523,0,0,1-.85.283A5.21,5.21,0,0,1,87.583.1Zm-.21-4.727a1.153,1.153,0,0,0-.876.347A1.652,1.652,0,0,0,86.1-3.271h2.451a1.5,1.5,0,0,0-.322-1.013A1.1,1.1,0,0,0,87.373-4.629Z" transform="translate(190 429)" fill="#455666"></path><g id="Group_1154" data-name="Group 1154" transform="translate(-18247.889 -1833.525)"><path id="Path_35091" data-name="Path 35091" d="M112.045,10.424a3.137,3.137,0,0,1,3.942-.61.725.725,0,0,1,.187,1.134c-.377.57-1.112.211-1.655.235a.985.985,0,0,0-1.078.8,8.565,8.565,0,0,0-.042,1.63,15.96,15.96,0,0,1,2.488.044.923.923,0,0,1-.01,1.444,13.212,13.212,0,0,1-2.48.058c-.034,2.028.066,4.062-.036,6.086a.979.979,0,0,1-1.877.006c-.092-2.022-.01-4.052-.03-6.076-.554-.056-1.3.187-1.64-.4-.311-.339-.048-.779.161-1.088a5.392,5.392,0,0,1,1.478-.086A4.932,4.932,0,0,1,112.045,10.424Z" transform="translate(18170.076 1834.614)" fill="#58585a"></path><path id="Path_35092" data-name="Path 35092" d="M6.059,30.509c.49-.169,1.235-.165,1.367.466.221,1.4-.062,2.837.126,4.241a2.456,2.456,0,0,0,1.076,1.452,2.181,2.181,0,0,0,3.034-1.249c.177-1.418-.048-2.859.09-4.281a.986.986,0,0,1,1.837-.163,10.563,10.563,0,0,1,.08,2.146,8.443,8.443,0,0,1-.241,2.994,4.163,4.163,0,0,1-1.936,2.293A4.321,4.321,0,0,1,7.023,37.9a4.583,4.583,0,0,1-1.237-1.984,10.683,10.683,0,0,1-.249-3.391C5.561,31.838,5.356,30.937,6.059,30.509Z" transform="translate(18253.475 1817.775)" fill="#58585a"></path><path id="Path_35093" data-name="Path 35093" d="M53.488,30.533a4.159,4.159,0,0,1,3.851.871A4.633,4.633,0,0,1,58.7,35.1c-.036.992.052,1.988-.04,2.978a.981.981,0,0,1-1.883,0c-.11-1.315.03-2.64-.044-3.958a1.843,1.843,0,0,0-1.7-1.741,2.574,2.574,0,0,0-1.661.275,2,2,0,0,0-.839,1.466c-.07,1.319.064,2.644-.046,3.96a.981.981,0,0,1-1.883,0c-.084-1.191-.02-2.391-.032-3.584A4.134,4.134,0,0,1,53.488,30.533Z" transform="translate(18217.412 1817.783)" fill="#58585a"></path><path id="Path_35094" data-name="Path 35094" d="M96.094,30.5a.988.988,0,0,1,1.422.819q.027,3.29,0,6.586a.971.971,0,0,1-1.665.6,1.622,1.622,0,0,1-.279-1.2c.024-1.932,0-3.863.008-5.793A1.091,1.091,0,0,1,96.094,30.5Z" transform="translate(18181.369 1817.778)" fill="#58585a"></path><path id="Path_35095" data-name="Path 35095" d="M191.456,30.526a4.241,4.241,0,0,1,2.978.319,3.791,3.791,0,0,1,2.032,2.857c.028,1.46.034,2.926,0,4.387.008,1-1.642.881-1.735-.008-.1-1.189.008-2.387-.028-3.58a2.35,2.35,0,0,0-1.255-2.02,4.092,4.092,0,0,0-1.759-.044,2.068,2.068,0,0,0-1.177,1.327c-.116,1.432.07,2.879-.07,4.309a.993.993,0,0,1-1.835.175,9.666,9.666,0,0,1-.076-1.95,9.42,9.42,0,0,1,.279-3.343A3.754,3.754,0,0,1,191.456,30.526Z" transform="translate(18106.936 1817.786)" fill="#58585a"></path><path id="Path_35096" data-name="Path 35096" d="M233.881,30.518a1.054,1.054,0,0,1,1.6.769c.028,2.193.032,4.391,0,6.582a.974.974,0,0,1-1.9.185c-.1-1.986.006-3.978-.044-5.967C233.552,31.558,233.448,30.92,233.881,30.518Z" transform="translate(18070.893 1817.812)" fill="#58585a"></path><path id="Path_35097" data-name="Path 35097" d="M250.225,30.514a4.014,4.014,0,0,1,3.279.42.99.99,0,0,1-.357,1.622c-.974-.046-2.12-.554-2.98.128a2.351,2.351,0,0,0-.731,2.185,1.9,1.9,0,0,0,1.279,1.827c.8.321,1.618-.165,2.426-.1a.95.95,0,0,1,.243,1.711,3.962,3.962,0,0,1-4.823-.827C246.613,35.391,247.354,31.358,250.225,30.514Z" transform="translate(18059.727 1817.816)" fill="#58585a"></path><g id="_03a886ff" data-name="#03a886ff" transform="translate(18276.906 1845.243)"><path id="Path_35121" data-name="Path 35121" d="M96.175,15.841c.835-.257,1.757.883,1.2,1.624-.229.556-.928.554-1.414.394A1.109,1.109,0,0,1,96.175,15.841Z" transform="translate(-95.405 -15.769)" fill="#1aaf9b"></path><path id="Path_35122" data-name="Path 35122" d="M233.3,15.7c.881-.371,2,.8,1.406,1.634a1.081,1.081,0,0,1-1.564.494A1.2,1.2,0,0,1,233.3,15.7Z" transform="translate(-205.245 -15.626)" fill="#1aaf9b"></path><path id="Path_35123" data-name="Path 35123" d="M145.258,30.161c.506-.988,1.821-.7,2.671-.408a4.345,4.345,0,0,1,2.355,6.16,4.168,4.168,0,0,1-5.582,1.7,4.255,4.255,0,0,1-1.926-5.391c.1-.261.359-.382.568-.536.205.155.482.263.574.528-.048.693-.444,1.355-.255,2.064a3.035,3.035,0,0,0,3.064,2.614,3.078,3.078,0,0,0,2.546-1.564,3.138,3.138,0,0,0-1.126-4.166c-.749-.568-1.737-.137-2.572-.394C145.461,30.567,145.357,30.366,145.258,30.161Z" transform="translate(-133.067 -26.715)" fill="#1aaf9b"></path><path id="Path_35124" data-name="Path 35124" d="M147.769,35.691c.187-.341.649-.112.95-.135.022.373.185.9-.281,1.064C147.913,36.924,147.295,36.1,147.769,35.691Z" transform="translate(-137.202 -31.542)" fill="#1aaf9b"></path><path id="Path_35125" data-name="Path 35125" d="M151.821,39.787a2.518,2.518,0,0,1,2.08-1.177c.261.143.359.448.516.683-.275.616-1.018.624-1.508.98a1.266,1.266,0,0,0,.821,2.132c.89.143,1.247-.773,1.59-1.4.444-.106.974.147.867.673a2.425,2.425,0,1,1-4.365-1.891Z" transform="translate(-140.248 -34.029)" fill="#1aaf9b"></path><path id="Path_35126" data-name="Path 35126" d="M168.66,43.972a.723.723,0,0,1,1.175-.3.608.608,0,0,1-.518.994C168.913,44.729,168.833,44.225,168.66,43.972Z" transform="translate(-154.066 -37.927)" fill="#1aaf9b"></path></g><path id="Path_35127" data-name="Path 35127" d="M1.664-12.055a.243.243,0,0,0,.244.244.244.244,0,0,0,.248-.244v-.877l.957-1.309a.3.3,0,0,0,.068-.176.234.234,0,0,0-.24-.24.283.283,0,0,0-.236.148L1.913-13.38l-.781-1.125a.284.284,0,0,0-.24-.148.24.24,0,0,0-.248.236.3.3,0,0,0,.056.172l.965,1.325Zm2.631.272a1.105,1.105,0,0,0,1.133-1.1v-.008a1.1,1.1,0,0,0-1.125-1.1,1.105,1.105,0,0,0-1.129,1.105v.008A1.093,1.093,0,0,0,4.3-11.782Zm.008-.424a.652.652,0,0,1-.645-.677v-.008a.635.635,0,0,1,.637-.673.653.653,0,0,1,.649.681v.008A.634.634,0,0,1,4.3-12.207Zm3.5-1.518a.245.245,0,0,0-.244-.244.243.243,0,0,0-.244.244v.973a.467.467,0,0,1-.477.521c-.288,0-.452-.184-.452-.513v-.981a.243.243,0,0,0-.244-.244.242.242,0,0,0-.24.244V-12.6a.726.726,0,0,0,.753.813.761.761,0,0,0,.661-.372v.108a.242.242,0,0,0,.244.24.242.242,0,0,0,.244-.24Zm.6,1.674a.238.238,0,0,0,.24.24.242.242,0,0,0,.244-.24v-.625c0-.5.236-.765.581-.825a.227.227,0,0,0,.192-.232.225.225,0,0,0-.24-.24.672.672,0,0,0-.533.464v-.216a.243.243,0,0,0-.244-.244.239.239,0,0,0-.24.244Zm4.212.268a1.432,1.432,0,0,0,1.017-.376.237.237,0,0,0,.08-.176.234.234,0,0,0-.232-.228.224.224,0,0,0-.148.056,1,1,0,0,1-.7.268.944.944,0,0,1-.925-.993v-.008a.943.943,0,0,1,.925-.989,1.017,1.017,0,0,1,.669.252.241.241,0,0,0,.148.048.239.239,0,0,0,.244-.24.246.246,0,0,0-.1-.2,1.47,1.47,0,0,0-.961-.316,1.418,1.418,0,0,0-1.446,1.45v.008A1.41,1.41,0,0,0,12.616-11.782Zm2.563,0a1.105,1.105,0,0,0,1.133-1.1v-.008a1.1,1.1,0,0,0-1.125-1.1,1.105,1.105,0,0,0-1.129,1.105v.008A1.093,1.093,0,0,0,15.179-11.782Zm.008-.424a.652.652,0,0,1-.645-.677v-.008a.635.635,0,0,1,.637-.673.653.653,0,0,1,.649.681v.008A.634.634,0,0,1,15.187-12.207Zm1.618.156a.238.238,0,0,0,.24.24.239.239,0,0,0,.244-.24v-.973a.462.462,0,0,1,.452-.525c.268,0,.428.184.428.513v.985a.239.239,0,0,0,.244.24.238.238,0,0,0,.24-.24v-.973c0-.34.188-.525.452-.525s.428.18.428.517v.981a.239.239,0,0,0,.244.24.236.236,0,0,0,.24-.24V-13.18a.711.711,0,0,0-.741-.809.851.851,0,0,0-.713.372.671.671,0,0,0-.633-.372.758.758,0,0,0-.645.364v-.1a.243.243,0,0,0-.244-.244.239.239,0,0,0-.24.244Zm3.8,0a.238.238,0,0,0,.24.24.239.239,0,0,0,.244-.24v-.973a.462.462,0,0,1,.452-.525c.268,0,.428.184.428.513v.985a.239.239,0,0,0,.244.24.238.238,0,0,0,.24-.24v-.973c0-.34.188-.525.452-.525s.428.18.428.517v.981a.239.239,0,0,0,.244.24.236.236,0,0,0,.24-.24V-13.18a.711.711,0,0,0-.741-.809.851.851,0,0,0-.713.372.671.671,0,0,0-.633-.372.758.758,0,0,0-.645.364v-.1a.243.243,0,0,0-.244-.244.239.239,0,0,0-.24.244Zm5.682-1.674a.245.245,0,0,0-.244-.244.243.243,0,0,0-.244.244v.973a.467.467,0,0,1-.477.521c-.288,0-.452-.184-.452-.513v-.981a.243.243,0,0,0-.244-.244.242.242,0,0,0-.24.244V-12.6a.726.726,0,0,0,.753.813.761.761,0,0,0,.661-.372v.108a.242.242,0,0,0,.244.24.242.242,0,0,0,.244-.24Zm.6,1.674a.238.238,0,0,0,.24.24.239.239,0,0,0,.244-.24v-.973a.47.47,0,0,1,.477-.525c.288,0,.452.188.452.517v.981a.239.239,0,0,0,.244.24.236.236,0,0,0,.24-.24V-13.18a.725.725,0,0,0-.753-.809.766.766,0,0,0-.661.368v-.1a.243.243,0,0,0-.244-.244.239.239,0,0,0-.24.244Zm2.475-2.439a.251.251,0,0,0,.276.24.251.251,0,0,0,.276-.24v-.024a.248.248,0,0,0-.276-.236.248.248,0,0,0-.276.236Zm.036,2.439a.238.238,0,0,0,.24.24.239.239,0,0,0,.244-.24v-1.674a.243.243,0,0,0-.244-.244.239.239,0,0,0-.24.244Zm2.094.268a1.035,1.035,0,0,0,.769-.3.189.189,0,0,0,.068-.152.21.21,0,0,0-.208-.212.211.211,0,0,0-.132.052.706.706,0,0,1-.473.188.64.64,0,0,1-.633-.677v-.008a.638.638,0,0,1,.613-.673.671.671,0,0,1,.452.18.247.247,0,0,0,.144.048.22.22,0,0,0,.224-.22.23.23,0,0,0-.076-.168,1.07,1.07,0,0,0-.741-.264,1.091,1.091,0,0,0-1.1,1.105v.008A1.079,1.079,0,0,0,31.5-11.782Zm1.918,0a.859.859,0,0,0,.689-.308v.08a.219.219,0,0,0,.236.2.231.231,0,0,0,.236-.232v-1.041a.877.877,0,0,0-.228-.653.947.947,0,0,0-.7-.236,1.812,1.812,0,0,0-.681.124.212.212,0,0,0-.132.192.2.2,0,0,0,.2.2.272.272,0,0,0,.076-.012,1.256,1.256,0,0,1,.468-.084c.34,0,.525.16.525.46v.052a1.766,1.766,0,0,0-.569-.088c-.517,0-.873.224-.873.681v.008A.675.675,0,0,0,33.418-11.786Zm.136-.352c-.232,0-.412-.116-.412-.32v-.008c0-.22.184-.352.5-.352a1.343,1.343,0,0,1,.481.084v.144C34.119-12.323,33.874-12.139,33.554-12.139Zm2.294.344a.964.964,0,0,0,.332-.056.208.208,0,0,0,.128-.188.2.2,0,0,0-.2-.2,1.145,1.145,0,0,1-.12.012.231.231,0,0,1-.26-.264v-1.037h.38a.21.21,0,0,0,.212-.208.21.21,0,0,0-.212-.208h-.38v-.36a.241.241,0,0,0-.24-.24.242.242,0,0,0-.244.24v.36h-.08a.207.207,0,0,0-.208.208.207.207,0,0,0,.208.208h.08v1.113A.542.542,0,0,0,35.849-11.794Zm.929-2.695a.251.251,0,0,0,.276.24.251.251,0,0,0,.276-.24v-.024a.248.248,0,0,0-.276-.236.248.248,0,0,0-.276.236Zm.036,2.439a.238.238,0,0,0,.24.24.239.239,0,0,0,.244-.24v-1.674a.243.243,0,0,0-.244-.244.239.239,0,0,0-.24.244Zm2.122.268a1.105,1.105,0,0,0,1.133-1.1v-.008a1.1,1.1,0,0,0-1.125-1.1,1.105,1.105,0,0,0-1.129,1.105v.008A1.093,1.093,0,0,0,38.936-11.782Zm.008-.424a.652.652,0,0,1-.645-.677v-.008a.635.635,0,0,1,.637-.673.653.653,0,0,1,.649.681v.008A.634.634,0,0,1,38.944-12.207Zm1.618.156a.238.238,0,0,0,.24.24.239.239,0,0,0,.244-.24v-.973a.47.47,0,0,1,.477-.525c.288,0,.452.188.452.517v.981a.239.239,0,0,0,.244.24.236.236,0,0,0,.24-.24V-13.18a.725.725,0,0,0-.753-.809.766.766,0,0,0-.661.368v-.1a.243.243,0,0,0-.244-.244.239.239,0,0,0-.24.244Zm5.041.268a1.432,1.432,0,0,0,1.017-.376.237.237,0,0,0,.08-.176.234.234,0,0,0-.232-.228.224.224,0,0,0-.148.056,1,1,0,0,1-.7.268.944.944,0,0,1-.925-.993v-.008a.943.943,0,0,1,.925-.989,1.017,1.017,0,0,1,.669.252.241.241,0,0,0,.148.048.239.239,0,0,0,.244-.24.246.246,0,0,0-.1-.2,1.47,1.47,0,0,0-.961-.316,1.418,1.418,0,0,0-1.446,1.45v.008A1.41,1.41,0,0,0,45.6-11.782Zm2.563,0a1.105,1.105,0,0,0,1.133-1.1v-.008a1.1,1.1,0,0,0-1.125-1.1,1.105,1.105,0,0,0-1.129,1.105v.008A1.093,1.093,0,0,0,48.166-11.782Zm.008-.424a.652.652,0,0,1-.645-.677v-.008a.635.635,0,0,1,.637-.673.653.653,0,0,1,.649.681v.008A.634.634,0,0,1,48.174-12.207Zm3.7-2.326a.239.239,0,0,0-.244-.24.238.238,0,0,0-.24.24v.917a.865.865,0,0,0-.721-.372,1.009,1.009,0,0,0-.981,1.1v.008a1.014,1.014,0,0,0,.981,1.1.846.846,0,0,0,.721-.4v.132a.239.239,0,0,0,.244.24.238.238,0,0,0,.24-.24Zm-1.089.965a.634.634,0,0,1,.613.677v.008a.637.637,0,0,1-.613.677.629.629,0,0,1-.609-.677v-.008A.62.62,0,0,1,50.78-13.568Zm2.062.533a.572.572,0,0,1,.549-.557.549.549,0,0,1,.537.557Zm1.365.973a.212.212,0,0,0,.064-.148.191.191,0,0,0-.192-.2.18.18,0,0,0-.124.044.76.76,0,0,1-.5.184.59.59,0,0,1-.609-.537h1.325a.227.227,0,0,0,.228-.232A1,1,0,0,0,53.4-13.989a1.049,1.049,0,0,0-1.033,1.1v.008a1.055,1.055,0,0,0,1.085,1.1A1.086,1.086,0,0,0,54.208-12.063Z" transform="translate(18258.883 1873.76)" fill="#58585a"></path></g><path id="Path_35455" data-name="Path 35455" d="M4.377-6.864a2.116,2.116,0,0,0-1.74.784A3.352,3.352,0,0,0,2-3.916a3.375,3.375,0,0,0,.61,2.186,2.153,2.153,0,0,0,1.764.741,4.636,4.636,0,0,0,.967-.1q.467-.1.972-.255v1.1A5.894,5.894,0,0,1,4.222.107,3.348,3.348,0,0,1,1.574-.937,4.37,4.37,0,0,1,.65-3.926,4.83,4.83,0,0,1,1.1-6.069,3.2,3.2,0,0,1,2.4-7.477a3.923,3.923,0,0,1,1.993-.489,4.945,4.945,0,0,1,2.224.5L6.15-6.392a6.9,6.9,0,0,0-.841-.33A3.028,3.028,0,0,0,4.377-6.864Zm8.766,3.883A3.242,3.242,0,0,1,12.4-.709a2.675,2.675,0,0,1-2.079.816A2.848,2.848,0,0,1,8.846-.269a2.482,2.482,0,0,1-.983-1.08A3.677,3.677,0,0,1,7.52-2.981a3.22,3.22,0,0,1,.741-2.256,2.687,2.687,0,0,1,2.089-.811,2.617,2.617,0,0,1,2.041.83A3.205,3.205,0,0,1,13.143-2.981Zm-4.324,0q0,2.057,1.52,2.057,1.5,0,1.5-2.057,0-2.036-1.515-2.036a1.291,1.291,0,0,0-1.152.526A2.679,2.679,0,0,0,8.819-2.981ZM19.819,0H18.552V-3.652a1.6,1.6,0,0,0-.277-1.026,1.069,1.069,0,0,0-.878-.338,1.4,1.4,0,0,0-1.171.473,2.61,2.61,0,0,0-.371,1.584V0H14.593V-5.94h.988l.177.779h.064a1.757,1.757,0,0,1,.763-.655,2.556,2.556,0,0,1,1.1-.231,1.906,1.906,0,0,1,2.138,2.175Zm3.11,0L20.673-5.94h1.332l1.208,3.454A6.843,6.843,0,0,1,23.59-1.08h.043a9.449,9.449,0,0,1,.376-1.407L25.217-5.94H26.56L24.293,0Zm7.127.107A2.874,2.874,0,0,1,27.889-.7a3.069,3.069,0,0,1-.781-2.226,3.367,3.367,0,0,1,.725-2.288,2.5,2.5,0,0,1,1.993-.833,2.448,2.448,0,0,1,1.858.714,2.73,2.73,0,0,1,.682,1.966v.682H28.408a1.951,1.951,0,0,0,.467,1.329,1.628,1.628,0,0,0,1.241.465,4.58,4.58,0,0,0,.98-.1,5.138,5.138,0,0,0,.975-.33V-.3a3.875,3.875,0,0,1-.935.312A5.731,5.731,0,0,1,30.057.107Zm-.231-5.2a1.268,1.268,0,0,0-.964.381A1.817,1.817,0,0,0,28.429-3.6h2.7a1.644,1.644,0,0,0-.354-1.115A1.212,1.212,0,0,0,29.826-5.092Zm6.988-.956a3.038,3.038,0,0,1,.628.054l-.124,1.176a2.386,2.386,0,0,0-.559-.064,1.616,1.616,0,0,0-1.227.494,1.786,1.786,0,0,0-.47,1.284V0H33.8V-5.94h.988l.167,1.047h.064a2.354,2.354,0,0,1,.771-.843A1.832,1.832,0,0,1,36.813-6.048Zm5.72,4.356A1.554,1.554,0,0,1,41.9-.357a3.035,3.035,0,0,1-1.815.465,4.288,4.288,0,0,1-1.907-.36v-1.09a4.681,4.681,0,0,0,1.95.483q1.166,0,1.166-.7a.557.557,0,0,0-.129-.376,1.526,1.526,0,0,0-.424-.312,7.3,7.3,0,0,0-.822-.365,3.8,3.8,0,0,1-1.388-.795,1.471,1.471,0,0,1-.363-1.031,1.354,1.354,0,0,1,.615-1.184,2.918,2.918,0,0,1,1.673-.422,4.739,4.739,0,0,1,1.982.424l-.408.951a4.408,4.408,0,0,0-1.617-.4q-1,0-1,.569a.573.573,0,0,0,.26.473A5.729,5.729,0,0,0,40.81-3.5a5.193,5.193,0,0,1,1.069.521,1.557,1.557,0,0,1,.494.545A1.578,1.578,0,0,1,42.534-1.692ZM47.615,0l-.252-.827h-.043a2.434,2.434,0,0,1-.865.739,2.735,2.735,0,0,1-1.117.2A1.891,1.891,0,0,1,43.97-.365,1.769,1.769,0,0,1,43.479-1.7a1.57,1.57,0,0,1,.682-1.386A3.933,3.933,0,0,1,46.24-3.6l1.026-.032v-.317A1.2,1.2,0,0,0,47-4.8a1.084,1.084,0,0,0-.824-.282,2.851,2.851,0,0,0-.875.134,6.607,6.607,0,0,0-.806.317l-.408-.9a4.393,4.393,0,0,1,1.058-.384,4.869,4.869,0,0,1,1.085-.132,2.57,2.57,0,0,1,1.711.494A1.935,1.935,0,0,1,48.517-4V0Zm-1.88-.859a1.563,1.563,0,0,0,1.1-.384,1.392,1.392,0,0,0,.416-1.077v-.516l-.763.032a2.61,2.61,0,0,0-1.3.3.906.906,0,0,0-.406.814.794.794,0,0,0,.236.615A1.015,1.015,0,0,0,45.735-.859Zm6.757-.054a3.069,3.069,0,0,0,.924-.145v.951a2.548,2.548,0,0,1-.54.153,3.719,3.719,0,0,1-.685.062Q50.4.107,50.4-1.783v-3.2h-.811v-.559L50.456-6l.43-1.257h.779V-5.94h1.692v.956H51.665V-1.8a.892.892,0,0,0,.228.674A.832.832,0,0,0,52.492-.913ZM55.865,0H54.6V-5.94h1.262ZM54.527-7.514a.7.7,0,0,1,.185-.521.722.722,0,0,1,.529-.183.707.707,0,0,1,.518.183.7.7,0,0,1,.185.521.686.686,0,0,1-.185.508.7.7,0,0,1-.518.185.716.716,0,0,1-.529-.185A.686.686,0,0,1,54.527-7.514Zm8.411,4.533a3.242,3.242,0,0,1-.747,2.272,2.675,2.675,0,0,1-2.079.816,2.848,2.848,0,0,1-1.472-.376,2.482,2.482,0,0,1-.983-1.08,3.677,3.677,0,0,1-.344-1.633,3.22,3.22,0,0,1,.741-2.256,2.687,2.687,0,0,1,2.089-.811,2.617,2.617,0,0,1,2.041.83A3.205,3.205,0,0,1,62.938-2.981Zm-4.324,0q0,2.057,1.52,2.057,1.5,0,1.5-2.057,0-2.036-1.515-2.036a1.291,1.291,0,0,0-1.152.526A2.679,2.679,0,0,0,58.615-2.981ZM69.615,0H68.347V-3.652a1.6,1.6,0,0,0-.277-1.026,1.069,1.069,0,0,0-.878-.338,1.4,1.4,0,0,0-1.171.473,2.61,2.61,0,0,0-.371,1.584V0H64.389V-5.94h.988l.177.779h.064a1.757,1.757,0,0,1,.763-.655,2.556,2.556,0,0,1,1.1-.231,1.906,1.906,0,0,1,2.138,2.175Zm5.747-1.692a1.554,1.554,0,0,1-.634,1.335,3.035,3.035,0,0,1-1.815.465,4.288,4.288,0,0,1-1.907-.36v-1.09a4.681,4.681,0,0,0,1.95.483q1.166,0,1.166-.7a.557.557,0,0,0-.129-.376,1.526,1.526,0,0,0-.424-.312,7.3,7.3,0,0,0-.822-.365,3.8,3.8,0,0,1-1.388-.795A1.471,1.471,0,0,1,71-4.442a1.354,1.354,0,0,1,.615-1.184,2.918,2.918,0,0,1,1.673-.422,4.739,4.739,0,0,1,1.982.424l-.408.951a4.408,4.408,0,0,0-1.617-.4q-1,0-1,.569a.573.573,0,0,0,.26.473,5.729,5.729,0,0,0,1.136.532,5.193,5.193,0,0,1,1.069.521,1.557,1.557,0,0,1,.494.545A1.578,1.578,0,0,1,75.362-1.692ZM84.589,0l-.784-2.181h-3L80.035,0H78.681l2.938-7.885h1.4L85.954,0ZM83.467-3.287l-.736-2.138q-.081-.215-.223-.677t-.2-.677a12.038,12.038,0,0,1-.424,1.445l-.709,2.046Zm8.723-2.191a2.29,2.29,0,0,1-.806,1.885,3.549,3.549,0,0,1-2.293.655h-.816V0H86.99V-7.853h2.261a3.421,3.421,0,0,1,2.2.6A2.159,2.159,0,0,1,92.189-5.479ZM88.274-4.018h.682a2.444,2.444,0,0,0,1.45-.344,1.251,1.251,0,0,0,.462-1.074,1.219,1.219,0,0,0-.414-1.01,2.043,2.043,0,0,0-1.289-.333h-.892ZM93.758,0V-7.853h1.284V0Z" transform="translate(86 24)" fill="#282b2f"></path><path id="Path_35454" data-name="Path 35454" d="M7.157-2.775A2.583,2.583,0,0,1,6.183-.643a4.232,4.232,0,0,1-2.71.779,6.366,6.366,0,0,1-2.83-.6V-2.434A11.663,11.663,0,0,0,2.355-1.8a5.067,5.067,0,0,0,1.282.185,1.822,1.822,0,0,0,1.07-.267.912.912,0,0,0,.373-.793A.875.875,0,0,0,4.915-3.2a1.836,1.836,0,0,0-.482-.441,12.4,12.4,0,0,0-1.3-.677,6.14,6.14,0,0,1-1.374-.827,3.105,3.105,0,0,1-.731-.923,2.634,2.634,0,0,1-.273-1.23,2.583,2.583,0,0,1,.9-2.085,3.735,3.735,0,0,1,2.485-.759,5.868,5.868,0,0,1,1.487.185,10.22,10.22,0,0,1,1.48.52L6.426-7.786A10,10,0,0,0,5.1-8.244a4.258,4.258,0,0,0-1.029-.13,1.362,1.362,0,0,0-.923.28.925.925,0,0,0-.321.731.905.905,0,0,0,.13.489,1.428,1.428,0,0,0,.414.4,12.787,12.787,0,0,0,1.343.7A5.345,5.345,0,0,1,6.638-4.426,2.622,2.622,0,0,1,7.157-2.775ZM11.97-6.3a1.322,1.322,0,0,0-1.039.42A1.946,1.946,0,0,0,10.5-4.689h2.926a1.738,1.738,0,0,0-.4-1.193A1.366,1.366,0,0,0,11.97-6.3ZM12.264.137A3.945,3.945,0,0,1,9.379-.882,3.857,3.857,0,0,1,8.34-3.767a4.242,4.242,0,0,1,.96-2.97,3.42,3.42,0,0,1,2.656-1.049,3.366,3.366,0,0,1,2.522.923,3.491,3.491,0,0,1,.9,2.55V-3.3H10.452a2.007,2.007,0,0,0,.526,1.388,1.852,1.852,0,0,0,1.381.5,5.732,5.732,0,0,0,1.306-.144,6.533,6.533,0,0,0,1.285-.458V-.4A4.9,4.9,0,0,1,13.781,0,7.37,7.37,0,0,1,12.264.137ZM24.131,0H22.046V-4.464A2.144,2.144,0,0,0,21.752-5.7a1.069,1.069,0,0,0-.937-.414,1.408,1.408,0,0,0-1.265.584,3.625,3.625,0,0,0-.39,1.938V0H17.076V-7.643h1.593l.28.978h.116a2.2,2.2,0,0,1,.96-.837,3.271,3.271,0,0,1,1.391-.284,2.673,2.673,0,0,1,2.023.721,2.894,2.894,0,0,1,.69,2.082ZM28.7.137A2.482,2.482,0,0,1,26.582-.909a4.808,4.808,0,0,1-.769-2.9A4.813,4.813,0,0,1,26.6-6.737a2.542,2.542,0,0,1,2.157-1.049,2.493,2.493,0,0,1,2.2,1.121h.068a8.524,8.524,0,0,1-.157-1.524v-2.447h2.092V0h-1.6l-.4-.991h-.089A2.386,2.386,0,0,1,28.7.137Zm.731-1.661A1.413,1.413,0,0,0,30.6-1.989a2.7,2.7,0,0,0,.407-1.579v-.226a3.125,3.125,0,0,0-.379-1.764,1.409,1.409,0,0,0-1.234-.533,1.224,1.224,0,0,0-1.083.591,3.155,3.155,0,0,0-.386,1.719,2.99,2.99,0,0,0,.39,1.692A1.273,1.273,0,0,0,29.429-1.524ZM43.169,0,40.763-7.841H40.7q.13,2.393.13,3.192V0H38.938V-9.994h2.885l2.365,7.643h.041l2.509-7.643h2.885V0H47.646V-4.73q0-.335.01-.772t.092-2.324h-.062L45.11,0Zm11.97-6.3a1.322,1.322,0,0,0-1.039.42,1.946,1.946,0,0,0-.431,1.193h2.926a1.738,1.738,0,0,0-.4-1.193A1.366,1.366,0,0,0,55.139-6.3ZM55.433.137A3.945,3.945,0,0,1,52.548-.882a3.857,3.857,0,0,1-1.039-2.885,4.242,4.242,0,0,1,.96-2.97,3.42,3.42,0,0,1,2.656-1.049,3.366,3.366,0,0,1,2.522.923,3.491,3.491,0,0,1,.9,2.55V-3.3H53.621a2.007,2.007,0,0,0,.526,1.388,1.852,1.852,0,0,0,1.381.5,5.732,5.732,0,0,0,1.306-.144,6.533,6.533,0,0,0,1.285-.458V-.4A4.9,4.9,0,0,1,56.95,0,7.37,7.37,0,0,1,55.433.137ZM65.577-2.27A2.1,2.1,0,0,1,64.76-.479a4.036,4.036,0,0,1-2.444.615A7.676,7.676,0,0,1,60.895.024a5.378,5.378,0,0,1-1.1-.332V-2.03a7.268,7.268,0,0,0,1.309.458,5.3,5.3,0,0,0,1.282.185q1.135,0,1.135-.656a.548.548,0,0,0-.15-.4,2.18,2.18,0,0,0-.52-.349q-.369-.195-.984-.455a6.184,6.184,0,0,1-1.3-.684,1.924,1.924,0,0,1-.6-.721,2.381,2.381,0,0,1-.188-1,1.815,1.815,0,0,1,.79-1.576,3.846,3.846,0,0,1,2.239-.557,6.355,6.355,0,0,1,2.687.6l-.629,1.5q-.574-.246-1.073-.4a3.37,3.37,0,0,0-1.019-.157q-.923,0-.923.5a.587.587,0,0,0,.3.485,8.087,8.087,0,0,0,1.3.608,6.05,6.05,0,0,1,1.313.677,2,2,0,0,1,.615.725A2.227,2.227,0,0,1,65.577-2.27Zm6.959,0a2.1,2.1,0,0,1-.817,1.791,4.036,4.036,0,0,1-2.444.615A7.676,7.676,0,0,1,67.854.024a5.378,5.378,0,0,1-1.1-.332V-2.03a7.268,7.268,0,0,0,1.309.458,5.3,5.3,0,0,0,1.282.185q1.135,0,1.135-.656a.548.548,0,0,0-.15-.4,2.18,2.18,0,0,0-.52-.349q-.369-.195-.984-.455a6.184,6.184,0,0,1-1.3-.684,1.924,1.924,0,0,1-.6-.721,2.381,2.381,0,0,1-.188-1,1.815,1.815,0,0,1,.79-1.576,3.846,3.846,0,0,1,2.239-.557,6.355,6.355,0,0,1,2.687.6l-.629,1.5q-.574-.246-1.073-.4a3.37,3.37,0,0,0-1.019-.157q-.923,0-.923.5a.587.587,0,0,0,.3.485,8.087,8.087,0,0,0,1.3.608,6.05,6.05,0,0,1,1.313.677,2,2,0,0,1,.615.725A2.227,2.227,0,0,1,72.536-2.27ZM79.017,0l-.4-1.039h-.055a3.079,3.079,0,0,1-1.083.919,3.5,3.5,0,0,1-1.453.256A2.349,2.349,0,0,1,74.29-.492a2.415,2.415,0,0,1-.632-1.791,2.017,2.017,0,0,1,.851-1.794,4.931,4.931,0,0,1,2.567-.639L78.4-4.758v-.335a1.039,1.039,0,0,0-1.189-1.162,5.42,5.42,0,0,0-2.153.554l-.69-1.408a6.213,6.213,0,0,1,2.926-.69,3.644,3.644,0,0,1,2.358.67,2.476,2.476,0,0,1,.82,2.037V0ZM78.4-3.541l-.807.027a2.583,2.583,0,0,0-1.354.328,1.031,1.031,0,0,0-.444.916q0,.882,1.012.882A1.6,1.6,0,0,0,77.967-1.8,1.465,1.465,0,0,0,78.4-2.912Zm10.869-4.1v1.06l-1.2.308A2.085,2.085,0,0,1,88.4-5.127a2.319,2.319,0,0,1-.858,1.917,3.716,3.716,0,0,1-2.382.687l-.376-.021-.308-.034a.693.693,0,0,0-.321.547q0,.451,1.148.451h1.3a2.963,2.963,0,0,1,1.917.54,1.93,1.93,0,0,1,.66,1.586,2.352,2.352,0,0,1-1.118,2.078,5.821,5.821,0,0,1-3.209.738,4.443,4.443,0,0,1-2.444-.557,1.769,1.769,0,0,1-.844-1.562A1.635,1.635,0,0,1,82,.089a2.445,2.445,0,0,1,1.265-.663,1.4,1.4,0,0,1-.561-.448,1.064,1.064,0,0,1-.239-.66,1.069,1.069,0,0,1,.253-.728,2.924,2.924,0,0,1,.731-.571,2.051,2.051,0,0,1-.954-.834,2.538,2.538,0,0,1-.352-1.354A2.387,2.387,0,0,1,82.954-7.1a3.518,3.518,0,0,1,2.324-.684,5.949,5.949,0,0,1,.762.058q.441.058.564.085Zm-5.9,8.723a.756.756,0,0,0,.414.677A2.276,2.276,0,0,0,84.943,2,4.1,4.1,0,0,0,86.7,1.7a.938.938,0,0,0,.636-.841A.6.6,0,0,0,86.96.26,3.079,3.079,0,0,0,85.8.1h-1.08a1.636,1.636,0,0,0-.96.27A.833.833,0,0,0,83.371,1.08Zm.759-6.221a1.556,1.556,0,0,0,.284.984,1.03,1.03,0,0,0,.865.362,1.009,1.009,0,0,0,.861-.362,1.6,1.6,0,0,0,.273-.984q0-1.381-1.135-1.381T84.13-5.141ZM93.693-6.3a1.322,1.322,0,0,0-1.039.42,1.946,1.946,0,0,0-.431,1.193h2.926a1.738,1.738,0,0,0-.4-1.193A1.366,1.366,0,0,0,93.693-6.3ZM93.987.137A3.945,3.945,0,0,1,91.1-.882a3.857,3.857,0,0,1-1.039-2.885,4.242,4.242,0,0,1,.96-2.97A3.42,3.42,0,0,1,93.68-7.786a3.366,3.366,0,0,1,2.522.923,3.491,3.491,0,0,1,.9,2.55V-3.3H92.176A2.007,2.007,0,0,0,92.7-1.914a1.852,1.852,0,0,0,1.381.5,5.732,5.732,0,0,0,1.306-.144,6.533,6.533,0,0,0,1.285-.458V-.4A4.9,4.9,0,0,1,95.5,0,7.37,7.37,0,0,1,93.987.137Z" transform="translate(190 78)" fill="#455666"></path><rect id="Shape_26_copy_2" data-name="Shape 26 copy 2" width="1" height="20" transform="translate(75.492 9)" fill="#d9dee5"></rect></g></g></svg>