<svg xmlns="http://www.w3.org/2000/svg" xmlns:xlink="http://www.w3.org/1999/xlink" width="120.969" height="48" viewBox="0 0 120.969 48"><defs><clipPath id="clip-unifonic-logo"><rect width="120.969" height="48"></rect></clipPath></defs><g id="unifonic-logo" clip-path="url(#clip-unifonic-logo)"><rect width="120.969" height="48" fill="rgba(255,255,255,0)"></rect><g id="Group_1158" data-name="Group 1158" transform="translate(-18258.889 -1836.823)"><path id="Path_35091" data-name="Path 35091" d="M114.035,11.3c1.678-2.154,4.971-2.425,7.25-1.121a1.332,1.332,0,0,1,.344,2.084c-.692,1.048-2.044.388-3.044.432a1.812,1.812,0,0,0-1.982,1.473,15.75,15.75,0,0,0-.077,3,29.35,29.35,0,0,1,4.576.081,1.7,1.7,0,0,1-.018,2.656,24.3,24.3,0,0,1-4.561.106c-.062,3.729.121,7.47-.066,11.192-.355,1.7-3.136,1.747-3.451.011-.169-3.718-.018-7.451-.055-11.173-1.018-.1-2.4.344-3.015-.733-.571-.623-.088-1.432.3-2a9.916,9.916,0,0,1,2.718-.158C112.889,15.153,112.793,12.988,114.035,11.3Z" transform="translate(18187.484 1834.614)" fill="#58585a"></path><path id="Path_35092" data-name="Path 35092" d="M6.506,30.589c.9-.311,2.271-.3,2.513.857.407,2.575-.114,5.217.231,7.8a4.517,4.517,0,0,0,1.978,2.671c2.037.9,5.063.121,5.579-2.3.326-2.608-.088-5.257.165-7.873a1.813,1.813,0,0,1,3.378-.3,19.425,19.425,0,0,1,.147,3.945c-.059,1.835.271,3.755-.443,5.506a7.655,7.655,0,0,1-3.561,4.217,7.946,7.946,0,0,1-8.213-.934A8.427,8.427,0,0,1,6,40.531c-.78-1.989-.341-4.162-.458-6.235C5.59,33.032,5.212,31.376,6.506,30.589Z" transform="translate(18253.475 1821.289)" fill="#58585a"></path><path id="Path_35093" data-name="Path 35093" d="M55.945,30.641c2.418-.531,5.261-.238,7.081,1.6a8.519,8.519,0,0,1,2.5,6.8c-.066,1.824.1,3.656-.073,5.477-.352,1.711-3.151,1.744-3.462,0-.2-2.418.055-4.854-.081-7.279a3.39,3.39,0,0,0-3.129-3.2c-1.022,0-2.191-.169-3.055.506a3.673,3.673,0,0,0-1.542,2.7c-.128,2.425.117,4.861-.084,7.283-.293,1.74-3.114,1.711-3.462,0-.154-2.191-.037-4.4-.059-6.59C50.637,34.722,52.725,31.432,55.945,30.641Z" transform="translate(18224.939 1821.296)" fill="#58585a"></path><path id="Path_35094" data-name="Path 35094" d="M96.533,30.575a1.817,1.817,0,0,1,2.616,1.506q.049,6.05,0,12.111a1.785,1.785,0,0,1-3.063,1.1,2.983,2.983,0,0,1-.513-2.2c.044-3.554,0-7.1.015-10.653A2.006,2.006,0,0,1,96.533,30.575Z" transform="translate(18196.418 1821.292)" fill="#58585a"></path><path id="Path_35095" data-name="Path 35095" d="M193.919,30.632a7.8,7.8,0,0,1,5.477.586,6.971,6.971,0,0,1,3.737,5.253c.051,2.685.062,5.382,0,8.067.015,1.832-3.019,1.619-3.191-.015-.18-2.187.015-4.389-.051-6.583a4.322,4.322,0,0,0-2.308-3.715,7.525,7.525,0,0,0-3.235-.081,3.8,3.8,0,0,0-2.165,2.44c-.212,2.634.128,5.294-.128,7.924a1.827,1.827,0,0,1-3.374.322,17.774,17.774,0,0,1-.139-3.586c.062-2.052-.282-4.191.513-6.147A6.9,6.9,0,0,1,193.919,30.632Z" transform="translate(18137.518 1821.298)" fill="#58585a"></path><path id="Path_35096" data-name="Path 35096" d="M234.175,30.644a1.937,1.937,0,0,1,2.938,1.414c.051,4.033.059,8.074,0,12.1-.007,1.931-3.173,2.26-3.5.341-.176-3.652.011-7.316-.081-10.972C233.57,32.556,233.38,31.384,234.175,30.644Z" transform="translate(18108.998 1821.318)" fill="#58585a"></path><path id="Path_35097" data-name="Path 35097" d="M252.532,30.64c1.971-.37,4.363-.579,6.03.773,1.055.835.465,2.542-.656,2.982-1.791-.084-3.9-1.018-5.481.234-1.286.9-1.44,2.583-1.344,4.019a3.488,3.488,0,0,0,2.352,3.359c1.473.59,2.975-.3,4.462-.19a1.747,1.747,0,0,1,.447,3.147,7.286,7.286,0,0,1-8.869-1.52C245.89,39.608,247.253,32.194,252.532,30.64Z" transform="translate(18100.162 1821.322)" fill="#58585a"></path><g id="_03a886ff" data-name="#03a886ff" transform="translate(18291.93 1846.286)"><path id="Path_35121" data-name="Path 35121" d="M96.821,15.872c1.535-.473,3.231,1.623,2.205,2.986-.421,1.022-1.707,1.018-2.6.725C94.927,18.829,95.1,16.235,96.821,15.872Z" transform="translate(-95.405 -15.739)" fill="#1aaf9b"></path><path id="Path_35122" data-name="Path 35122" d="M233.918,15.756c1.619-.681,3.685,1.469,2.586,3a1.988,1.988,0,0,1-2.876.909A2.2,2.2,0,0,1,233.918,15.756Z" transform="translate(-182.321 -15.626)" fill="#1aaf9b"></path><path id="Path_35123" data-name="Path 35123" d="M147.625,30.737c.93-1.817,3.348-1.293,4.913-.751a7.99,7.99,0,0,1,4.33,11.327A7.664,7.664,0,0,1,146.6,44.434a7.824,7.824,0,0,1-3.542-9.913c.179-.48.659-.7,1.044-.985.377.286.887.484,1.055.971-.088,1.275-.817,2.491-.469,3.8a5.581,5.581,0,0,0,5.634,4.806,5.66,5.66,0,0,0,4.682-2.876,5.771,5.771,0,0,0-2.07-7.66c-1.377-1.044-3.194-.253-4.729-.725C148,31.484,147.808,31.114,147.625,30.737Z" transform="translate(-125.207 -24.401)" fill="#1aaf9b"></path><path id="Path_35124" data-name="Path 35124" d="M147.911,35.849c.344-.626,1.194-.205,1.747-.249.04.685.341,1.649-.517,1.956C148.175,38.117,147.039,36.608,147.911,35.849Z" transform="translate(-128.479 -28.221)" fill="#1aaf9b"></path><path id="Path_35125" data-name="Path 35125" d="M152.172,40.777A4.63,4.63,0,0,1,156,38.612c.48.264.659.824.949,1.257-.506,1.132-1.872,1.147-2.773,1.8-1.293,1.286-.454,3.993,1.509,3.92,1.638.264,2.293-1.421,2.923-2.575.817-.194,1.791.271,1.594,1.238a4.459,4.459,0,1,1-8.026-3.477Z" transform="translate(-130.889 -30.188)" fill="#1aaf9b"></path><path id="Path_35126" data-name="Path 35126" d="M168.66,44.389a1.33,1.33,0,0,1,2.161-.553,1.119,1.119,0,0,1-.952,1.828C169.125,45.781,168.979,44.854,168.66,44.389Z" transform="translate(-141.824 -33.273)" fill="#1aaf9b"></path></g><path id="Path_35127" data-name="Path 35127" d="M2.521-9.774a.446.446,0,0,0,.449.449.448.448,0,0,0,.457-.449v-1.613l1.76-2.408a.549.549,0,0,0,.125-.324.429.429,0,0,0-.442-.442.52.52,0,0,0-.434.272L2.977-12.211,1.542-14.28a.522.522,0,0,0-.442-.272.44.44,0,0,0-.457.434.56.56,0,0,0,.1.317l1.775,2.437Zm4.838.5A2.033,2.033,0,0,0,9.443-11.3v-.015A2.014,2.014,0,0,0,7.373-13.33,2.032,2.032,0,0,0,5.3-11.3v.015A2.011,2.011,0,0,0,7.359-9.273Zm.015-.781A1.2,1.2,0,0,1,6.188-11.3v-.015A1.167,1.167,0,0,1,7.359-12.55,1.2,1.2,0,0,1,8.552-11.3v.015A1.166,1.166,0,0,1,7.373-10.054ZM13.8-12.844a.451.451,0,0,0-.449-.449.446.446,0,0,0-.449.449v1.789a.859.859,0,0,1-.876.957c-.53,0-.832-.339-.832-.943v-1.8a.446.446,0,0,0-.449-.449.445.445,0,0,0-.442.449v2.069A1.335,1.335,0,0,0,11.688-9.28,1.4,1.4,0,0,0,12.9-9.965v.2a.445.445,0,0,0,.449.442.445.445,0,0,0,.449-.442Zm1.112,3.078a.438.438,0,0,0,.442.442.445.445,0,0,0,.449-.442v-1.149c0-.92.434-1.406,1.068-1.517a.418.418,0,0,0,.353-.427.414.414,0,0,0-.442-.442,1.236,1.236,0,0,0-.979.854v-.4a.446.446,0,0,0-.449-.449.44.44,0,0,0-.442.449Zm7.746.493a2.634,2.634,0,0,0,1.87-.692.435.435,0,0,0,.147-.324.431.431,0,0,0-.427-.42.412.412,0,0,0-.272.1,1.847,1.847,0,0,1-1.289.493,1.737,1.737,0,0,1-1.7-1.826v-.015a1.735,1.735,0,0,1,1.7-1.819,1.869,1.869,0,0,1,1.23.464.443.443,0,0,0,.272.088.44.44,0,0,0,.449-.442.453.453,0,0,0-.177-.361A2.7,2.7,0,0,0,22.7-14.6a2.608,2.608,0,0,0-2.658,2.666v.015A2.592,2.592,0,0,0,22.66-9.273Zm4.713,0A2.033,2.033,0,0,0,29.456-11.3v-.015a2.014,2.014,0,0,0-2.069-2.018A2.032,2.032,0,0,0,25.311-11.3v.015A2.011,2.011,0,0,0,27.373-9.273Zm.015-.781A1.2,1.2,0,0,1,26.2-11.3v-.015a1.167,1.167,0,0,1,1.171-1.237A1.2,1.2,0,0,1,28.565-11.3v.015A1.166,1.166,0,0,1,27.387-10.054Zm2.975.287a.438.438,0,0,0,.442.442.44.44,0,0,0,.449-.442v-1.789a.849.849,0,0,1,.832-.965c.493,0,.788.339.788.943v1.811a.44.44,0,0,0,.449.442.438.438,0,0,0,.442-.442v-1.789c0-.626.346-.965.832-.965s.788.331.788.95v1.8a.44.44,0,0,0,.449.442.434.434,0,0,0,.442-.442v-2.076a1.307,1.307,0,0,0-1.362-1.487,1.564,1.564,0,0,0-1.311.685,1.234,1.234,0,0,0-1.163-.685,1.393,1.393,0,0,0-1.186.67v-.184a.446.446,0,0,0-.449-.449.44.44,0,0,0-.442.449Zm7,0a.438.438,0,0,0,.442.442.44.44,0,0,0,.449-.442v-1.789a.849.849,0,0,1,.832-.965c.493,0,.788.339.788.943v1.811a.44.44,0,0,0,.449.442.438.438,0,0,0,.442-.442v-1.789c0-.626.346-.965.832-.965s.788.331.788.95v1.8a.44.44,0,0,0,.449.442.434.434,0,0,0,.442-.442v-2.076a1.307,1.307,0,0,0-1.362-1.487,1.564,1.564,0,0,0-1.311.685,1.234,1.234,0,0,0-1.163-.685,1.393,1.393,0,0,0-1.186.67v-.184a.446.446,0,0,0-.449-.449.44.44,0,0,0-.442.449Zm10.449-3.078a.451.451,0,0,0-.449-.449.446.446,0,0,0-.449.449v1.789a.859.859,0,0,1-.876.957c-.53,0-.832-.339-.832-.943v-1.8a.446.446,0,0,0-.449-.449.445.445,0,0,0-.442.449v2.069A1.335,1.335,0,0,0,45.693-9.28a1.4,1.4,0,0,0,1.215-.685v.2a.445.445,0,0,0,.449.442.445.445,0,0,0,.449-.442Zm1.112,3.078a.438.438,0,0,0,.442.442.44.44,0,0,0,.449-.442v-1.789a.865.865,0,0,1,.876-.965c.53,0,.832.346.832.95v1.8a.44.44,0,0,0,.449.442.434.434,0,0,0,.442-.442v-2.076a1.333,1.333,0,0,0-1.384-1.487,1.409,1.409,0,0,0-1.215.677v-.191a.446.446,0,0,0-.449-.449.44.44,0,0,0-.442.449Zm4.551-4.484a.461.461,0,0,0,.508.442.461.461,0,0,0,.508-.442v-.044a.456.456,0,0,0-.508-.434.456.456,0,0,0-.508.434Zm.066,4.484a.438.438,0,0,0,.442.442.44.44,0,0,0,.449-.442v-3.078a.446.446,0,0,0-.449-.449.44.44,0,0,0-.442.449Zm3.851.493A1.9,1.9,0,0,0,58.8-9.825a.347.347,0,0,0,.125-.28.387.387,0,0,0-.383-.39.387.387,0,0,0-.243.1,1.3,1.3,0,0,1-.869.346A1.177,1.177,0,0,1,56.267-11.3v-.015a1.173,1.173,0,0,1,1.127-1.237,1.233,1.233,0,0,1,.832.331.454.454,0,0,0,.265.088.405.405,0,0,0,.412-.4.423.423,0,0,0-.14-.309A1.968,1.968,0,0,0,57.4-13.33,2.007,2.007,0,0,0,55.376-11.3v.015A1.985,1.985,0,0,0,57.386-9.273Zm3.527-.007a1.58,1.58,0,0,0,1.267-.567V-9.7a.4.4,0,0,0,.434.376.424.424,0,0,0,.434-.427v-1.914a1.613,1.613,0,0,0-.42-1.2A1.742,1.742,0,0,0,61.34-13.3a3.333,3.333,0,0,0-1.252.228.389.389,0,0,0-.243.353.371.371,0,0,0,.376.368.5.5,0,0,0,.14-.022,2.309,2.309,0,0,1,.862-.155c.626,0,.965.295.965.847v.1a3.248,3.248,0,0,0-1.046-.162c-.95,0-1.605.412-1.605,1.252v.015A1.242,1.242,0,0,0,60.913-9.28Zm.25-.648c-.427,0-.758-.214-.758-.589v-.015c0-.4.339-.648.913-.648a2.47,2.47,0,0,1,.884.155v.265C62.2-10.267,61.752-9.928,61.163-9.928Zm4.219.633a1.772,1.772,0,0,0,.611-.1.383.383,0,0,0,.236-.346.376.376,0,0,0-.376-.368,2.107,2.107,0,0,1-.221.022.424.424,0,0,1-.479-.486v-1.907h.7a.387.387,0,0,0,.39-.383.387.387,0,0,0-.39-.383h-.7v-.663a.443.443,0,0,0-.442-.442.445.445,0,0,0-.449.442v.663h-.147a.38.38,0,0,0-.383.383.38.38,0,0,0,.383.383h.147v2.047A1,1,0,0,0,65.383-9.3Zm1.708-4.956a.461.461,0,0,0,.508.442.461.461,0,0,0,.508-.442v-.044a.456.456,0,0,0-.508-.434.456.456,0,0,0-.508.434Zm.066,4.484a.438.438,0,0,0,.442.442.44.44,0,0,0,.449-.442v-3.078a.446.446,0,0,0-.449-.449.44.44,0,0,0-.442.449Zm3.9.493A2.033,2.033,0,0,0,73.144-11.3v-.015a2.014,2.014,0,0,0-2.069-2.018A2.032,2.032,0,0,0,69-11.3v.015A2.011,2.011,0,0,0,71.06-9.273Zm.015-.781A1.2,1.2,0,0,1,69.889-11.3v-.015A1.167,1.167,0,0,1,71.06-12.55,1.2,1.2,0,0,1,72.253-11.3v.015A1.166,1.166,0,0,1,71.075-10.054Zm2.975.287a.438.438,0,0,0,.442.442.44.44,0,0,0,.449-.442v-1.789a.865.865,0,0,1,.876-.965c.53,0,.832.346.832.95v1.8a.44.44,0,0,0,.449.442.434.434,0,0,0,.442-.442v-2.076a1.333,1.333,0,0,0-1.384-1.487,1.409,1.409,0,0,0-1.215.677v-.191a.446.446,0,0,0-.449-.449.44.44,0,0,0-.442.449Zm9.271.493a2.634,2.634,0,0,0,1.87-.692.435.435,0,0,0,.147-.324.431.431,0,0,0-.427-.42.412.412,0,0,0-.272.1,1.847,1.847,0,0,1-1.289.493,1.737,1.737,0,0,1-1.7-1.826v-.015a1.735,1.735,0,0,1,1.7-1.819,1.869,1.869,0,0,1,1.23.464.443.443,0,0,0,.272.088.44.44,0,0,0,.449-.442.453.453,0,0,0-.177-.361,2.7,2.7,0,0,0-1.767-.582A2.608,2.608,0,0,0,80.7-11.939v.015A2.592,2.592,0,0,0,83.32-9.273Zm4.713,0A2.033,2.033,0,0,0,90.116-11.3v-.015a2.014,2.014,0,0,0-2.069-2.018A2.032,2.032,0,0,0,85.971-11.3v.015A2.011,2.011,0,0,0,88.033-9.273Zm.015-.781A1.2,1.2,0,0,1,86.862-11.3v-.015a1.167,1.167,0,0,1,1.171-1.237A1.2,1.2,0,0,1,89.225-11.3v.015A1.166,1.166,0,0,1,88.047-10.054Zm6.8-4.278a.44.44,0,0,0-.449-.442.438.438,0,0,0-.442.442v1.686a1.59,1.59,0,0,0-1.325-.685,1.856,1.856,0,0,0-1.8,2.018v.015a1.864,1.864,0,0,0,1.8,2.018,1.556,1.556,0,0,0,1.325-.729v.243a.44.44,0,0,0,.449.442.438.438,0,0,0,.442-.442Zm-2,1.775a1.167,1.167,0,0,1,1.127,1.244v.015a1.171,1.171,0,0,1-1.127,1.244A1.157,1.157,0,0,1,91.722-11.3v-.015A1.14,1.14,0,0,1,92.841-12.557Zm3.792.979A1.052,1.052,0,0,1,97.642-12.6a1.009,1.009,0,0,1,.987,1.024Zm2.511,1.789a.389.389,0,0,0,.118-.272.351.351,0,0,0-.353-.361.332.332,0,0,0-.228.081,1.4,1.4,0,0,1-.92.339,1.085,1.085,0,0,1-1.119-.987h2.437a.417.417,0,0,0,.42-.427,1.839,1.839,0,0,0-1.848-1.914,1.93,1.93,0,0,0-1.9,2.025v.015a1.94,1.94,0,0,0,2,2.018A2,2,0,0,0,99.144-9.788Z" transform="translate(18259.324 1886.332)" fill="#58585a"></path></g></g></svg>