<svg xmlns="http://www.w3.org/2000/svg" width="100.313" height="33.057" viewBox="0 0 100.313 33.057"><g transform="translate(-0.108 -7.181)"><g transform="translate(-18258.889 -1836.823)"><path d="M114.035,11.3c1.678-2.154,4.971-2.425,7.25-1.121a1.332,1.332,0,0,1,.344,2.084c-.692,1.048-2.044.388-3.044.432a1.812,1.812,0,0,0-1.982,1.473,15.75,15.75,0,0,0-.077,3,29.349,29.349,0,0,1,4.576.081,1.7,1.7,0,0,1-.018,2.656,24.3,24.3,0,0,1-4.561.106c-.062,3.729.121,7.47-.066,11.192-.355,1.7-3.136,1.747-3.451.011-.169-3.718-.018-7.451-.055-11.173-1.018-.1-2.4.344-3.015-.733-.571-.623-.088-1.432.3-2a9.916,9.916,0,0,1,2.718-.158C112.889,15.153,112.793,12.988,114.035,11.3Z" transform="translate(18187.484 1834.614)" fill="#58585a"></path><path d="M6.506,30.589c.9-.311,2.271-.3,2.513.857.407,2.575-.114,5.217.231,7.8a4.517,4.517,0,0,0,1.978,2.671c2.037.9,5.063.121,5.579-2.3.326-2.608-.088-5.257.165-7.873a1.813,1.813,0,0,1,3.378-.3,19.425,19.425,0,0,1,.147,3.945c-.059,1.835.271,3.755-.443,5.506a7.655,7.655,0,0,1-3.561,4.217,7.946,7.946,0,0,1-8.213-.934A8.427,8.427,0,0,1,6,40.531c-.78-1.989-.341-4.162-.458-6.235C5.59,33.032,5.212,31.376,6.506,30.589Z" transform="translate(18253.475 1821.289)" fill="#58585a"></path><path d="M55.945,30.641c2.418-.531,5.261-.238,7.081,1.6a8.519,8.519,0,0,1,2.5,6.8c-.066,1.824.1,3.656-.073,5.477-.352,1.711-3.151,1.744-3.462,0-.2-2.418.055-4.854-.081-7.279a3.39,3.39,0,0,0-3.129-3.2c-1.022,0-2.191-.169-3.055.506a3.673,3.673,0,0,0-1.542,2.7c-.128,2.425.117,4.861-.084,7.283-.293,1.74-3.114,1.711-3.462,0-.154-2.191-.037-4.4-.059-6.59C50.637,34.722,52.725,31.432,55.945,30.641Z" transform="translate(18224.939 1821.296)" fill="#58585a"></path><path d="M96.533,30.575a1.817,1.817,0,0,1,2.616,1.506q.049,6.05,0,12.111a1.785,1.785,0,0,1-3.063,1.1,2.983,2.983,0,0,1-.513-2.2c.044-3.554,0-7.1.015-10.653a2.006,2.006,0,0,1,.945-1.864Z" transform="translate(18196.418 1821.292)" fill="#58585a"></path><path d="M193.919,30.632a7.8,7.8,0,0,1,5.477.586,6.971,6.971,0,0,1,3.737,5.253c.051,2.685.062,5.382,0,8.067.015,1.832-3.019,1.619-3.191-.015-.18-2.187.015-4.389-.051-6.583a4.322,4.322,0,0,0-2.308-3.715,7.525,7.525,0,0,0-3.235-.081,3.8,3.8,0,0,0-2.165,2.44c-.212,2.634.128,5.294-.128,7.924a1.827,1.827,0,0,1-3.374.322,17.774,17.774,0,0,1-.139-3.586c.062-2.052-.282-4.191.513-6.147A6.9,6.9,0,0,1,193.919,30.632Z" transform="translate(18137.518 1821.298)" fill="#58585a"></path><path d="M234.175,30.644a1.937,1.937,0,0,1,2.938,1.414c.051,4.033.059,8.074,0,12.1-.007,1.931-3.173,2.26-3.5.341-.176-3.652.011-7.316-.081-10.972C233.57,32.556,233.38,31.384,234.175,30.644Z" transform="translate(18108.998 1821.318)" fill="#58585a"></path><path d="M252.532,30.64c1.971-.37,4.363-.579,6.03.773,1.055.835.465,2.542-.656,2.982-1.791-.084-3.9-1.018-5.481.234-1.286.9-1.44,2.583-1.344,4.019a3.488,3.488,0,0,0,2.352,3.359c1.473.59,2.975-.3,4.462-.19a1.747,1.747,0,0,1,.447,3.147,7.286,7.286,0,0,1-8.869-1.52C245.89,39.608,247.253,32.194,252.532,30.64Z" transform="translate(18100.162 1821.322)" fill="#58585a"></path><g transform="translate(18291.93 1846.286)"><path d="M96.821,15.872c1.535-.473,3.231,1.623,2.205,2.986-.421,1.022-1.707,1.018-2.6.725C94.927,18.829,95.1,16.235,96.821,15.872Z" transform="translate(-95.405 -15.739)" fill="#1aaf9b"></path><path d="M233.918,15.756c1.619-.681,3.685,1.469,2.586,3a1.988,1.988,0,0,1-2.876.909,2.2,2.2,0,0,1,.29-3.909Z" transform="translate(-182.321 -15.626)" fill="#1aaf9b"></path><path d="M147.625,30.737c.93-1.817,3.348-1.293,4.913-.751a7.99,7.99,0,0,1,4.33,11.327A7.664,7.664,0,0,1,146.6,44.434a7.824,7.824,0,0,1-3.542-9.913c.179-.48.659-.7,1.044-.985.377.286.887.484,1.055.971-.088,1.275-.817,2.491-.469,3.8a5.581,5.581,0,0,0,5.634,4.806A5.66,5.66,0,0,0,155,40.237a5.771,5.771,0,0,0-2.07-7.66c-1.377-1.044-3.194-.253-4.729-.725C148,31.484,147.808,31.114,147.625,30.737Z" transform="translate(-125.207 -24.401)" fill="#1aaf9b"></path><path d="M147.911,35.849c.344-.626,1.194-.205,1.747-.249.04.685.341,1.649-.517,1.956C148.175,38.117,147.039,36.608,147.911,35.849Z" transform="translate(-128.479 -28.221)" fill="#1aaf9b"></path><path d="M152.172,40.777A4.63,4.63,0,0,1,156,38.612c.48.264.659.824.949,1.257-.506,1.132-1.872,1.147-2.773,1.8-1.293,1.286-.454,3.993,1.509,3.92,1.638.264,2.293-1.421,2.923-2.575.817-.194,1.791.271,1.594,1.238a4.459,4.459,0,1,1-8.026-3.477Z" transform="translate(-130.889 -30.188)" fill="#1aaf9b"></path><path d="M168.66,44.389a1.33,1.33,0,0,1,2.161-.553,1.119,1.119,0,0,1-.952,1.828C169.125,45.781,168.979,44.854,168.66,44.389Z" transform="translate(-141.824 -33.273)" fill="#1aaf9b"></path></g><path d="M2.521-9.774a.446.446,0,0,0,.131.318.446.446,0,0,0,.318.131.448.448,0,0,0,.323-.128.448.448,0,0,0,.134-.321v-1.613L5.187-13.8a.549.549,0,0,0,.125-.324.429.429,0,0,0-.125-.317.429.429,0,0,0-.317-.125.52.52,0,0,0-.434.272L2.977-12.211,1.542-14.28a.522.522,0,0,0-.442-.272.44.44,0,0,0-.32.121.44.44,0,0,0-.137.313.56.56,0,0,0,.1.317l1.775,2.437Zm4.838.5a2.033,2.033,0,0,0,1.468-.575A2.033,2.033,0,0,0,9.443-11.3v-.015a2.014,2.014,0,0,0-.609-1.445,2.014,2.014,0,0,0-1.461-.57,2.032,2.032,0,0,0-1.463.58A2.032,2.032,0,0,0,5.3-11.3v.015a2.011,2.011,0,0,0,.606,1.44,2.011,2.011,0,0,0,1.453.572Zm.015-.781a1.2,1.2,0,0,1-.856-.372,1.2,1.2,0,0,1-.33-.873v-.015a1.167,1.167,0,0,1,.318-.871,1.167,1.167,0,0,1,.853-.364,1.2,1.2,0,0,1,.862.371,1.2,1.2,0,0,1,.331.879v.015a1.166,1.166,0,0,1-.322.872,1.166,1.166,0,0,1-.857.359ZM13.8-12.844a.451.451,0,0,0-.449-.449.446.446,0,0,0-.318.131.446.446,0,0,0-.131.318v1.789a.859.859,0,0,1-.22.678.859.859,0,0,1-.656.279c-.53,0-.832-.339-.832-.943v-1.8a.446.446,0,0,0-.131-.318.446.446,0,0,0-.318-.131.445.445,0,0,0-.314.133.445.445,0,0,0-.128.316v2.069a1.335,1.335,0,0,0,.347,1.067,1.335,1.335,0,0,0,1.038.425A1.4,1.4,0,0,0,12.9-9.965v.2a.445.445,0,0,0,.133.314.445.445,0,0,0,.316.128.445.445,0,0,0,.316-.128.445.445,0,0,0,.133-.314Zm1.112,3.078a.438.438,0,0,0,.128.314.438.438,0,0,0,.314.128.445.445,0,0,0,.316-.128.445.445,0,0,0,.133-.314v-1.149c0-.92.434-1.406,1.068-1.517a.418.418,0,0,0,.353-.427.414.414,0,0,0-.12-.322.414.414,0,0,0-.322-.12,1.236,1.236,0,0,0-.979.854v-.4a.446.446,0,0,0-.131-.318.446.446,0,0,0-.318-.131.44.44,0,0,0-.316.131.44.44,0,0,0-.126.318Zm7.746.493a2.634,2.634,0,0,0,1.87-.692.435.435,0,0,0,.147-.324.431.431,0,0,0-.427-.42.412.412,0,0,0-.272.1,1.847,1.847,0,0,1-1.289.493,1.737,1.737,0,0,1-1.237-.553,1.737,1.737,0,0,1-.463-1.273v-.015a1.735,1.735,0,0,1,.465-1.269,1.735,1.735,0,0,1,1.235-.55,1.869,1.869,0,0,1,1.23.464.443.443,0,0,0,.272.088.44.44,0,0,0,.318-.126.44.44,0,0,0,.131-.316.453.453,0,0,0-.177-.361A2.7,2.7,0,0,0,22.7-14.6a2.608,2.608,0,0,0-1.9.766,2.608,2.608,0,0,0-.76,1.9v.015a2.592,2.592,0,0,0,.749,1.877,2.592,2.592,0,0,0,1.869.769Zm4.713,0a2.033,2.033,0,0,0,1.469-.575,2.033,2.033,0,0,0,.616-1.452v-.015a2.014,2.014,0,0,0-.608-1.447,2.014,2.014,0,0,0-1.461-.571,2.032,2.032,0,0,0-1.466.58,2.032,2.032,0,0,0-.61,1.453v.015a2.011,2.011,0,0,0,.607,1.441,2.011,2.011,0,0,0,1.455.571Zm.015-.781a1.2,1.2,0,0,1-.856-.373,1.2,1.2,0,0,1-.33-.873v-.015a1.167,1.167,0,0,1,.317-.872,1.167,1.167,0,0,1,.854-.365,1.2,1.2,0,0,1,.864.372,1.2,1.2,0,0,1,.33.88v.015a1.166,1.166,0,0,1-.322.871,1.166,1.166,0,0,1-.856.36Zm2.975.287a.438.438,0,0,0,.128.314.438.438,0,0,0,.314.128.44.44,0,0,0,.318-.126.44.44,0,0,0,.131-.316v-1.789a.849.849,0,0,1,.2-.67.849.849,0,0,1,.634-.295c.493,0,.788.339.788.943v1.811A.44.44,0,0,0,33-9.451a.44.44,0,0,0,.318.126.438.438,0,0,0,.314-.128.438.438,0,0,0,.128-.314v-1.789c0-.626.346-.965.832-.965s.788.331.788.95v1.8a.44.44,0,0,0,.131.316.44.44,0,0,0,.318.126.434.434,0,0,0,.315-.127.434.434,0,0,0,.127-.315v-2.076a1.307,1.307,0,0,0-.33-1.065,1.307,1.307,0,0,0-1.032-.422,1.564,1.564,0,0,0-1.311.685,1.234,1.234,0,0,0-1.163-.685,1.393,1.393,0,0,0-1.186.67v-.184a.446.446,0,0,0-.131-.318A.446.446,0,0,0,30.8-13.3a.44.44,0,0,0-.316.131.44.44,0,0,0-.126.318Zm7,0a.438.438,0,0,0,.128.314.438.438,0,0,0,.314.128.44.44,0,0,0,.318-.126.44.44,0,0,0,.131-.316v-1.789a.849.849,0,0,1,.2-.67.849.849,0,0,1,.634-.295c.493,0,.788.339.788.943v1.811A.44.44,0,0,0,40-9.451a.44.44,0,0,0,.318.126.438.438,0,0,0,.314-.128.438.438,0,0,0,.128-.314v-1.789c0-.626.346-.965.832-.965s.788.331.788.95v1.8a.44.44,0,0,0,.131.316.44.44,0,0,0,.318.126.434.434,0,0,0,.315-.127.434.434,0,0,0,.127-.315v-2.076a1.307,1.307,0,0,0-.33-1.065,1.307,1.307,0,0,0-1.032-.422,1.564,1.564,0,0,0-1.311.685,1.234,1.234,0,0,0-1.163-.685,1.393,1.393,0,0,0-1.186.67v-.184a.446.446,0,0,0-.131-.318A.446.446,0,0,0,37.8-13.3a.44.44,0,0,0-.316.131.44.44,0,0,0-.126.318ZM47.81-12.845a.451.451,0,0,0-.449-.449.446.446,0,0,0-.318.131.446.446,0,0,0-.131.318v1.789a.859.859,0,0,1-.22.678.859.859,0,0,1-.656.279c-.53,0-.832-.339-.832-.943v-1.8a.446.446,0,0,0-.131-.318.446.446,0,0,0-.318-.131.445.445,0,0,0-.314.133.445.445,0,0,0-.128.316v2.069a1.335,1.335,0,0,0,.345,1.065,1.335,1.335,0,0,0,1.035.428,1.4,1.4,0,0,0,1.215-.685v.2a.445.445,0,0,0,.133.314.445.445,0,0,0,.316.128.445.445,0,0,0,.316-.128.445.445,0,0,0,.133-.314Zm1.112,3.078a.438.438,0,0,0,.128.314.438.438,0,0,0,.314.128.44.44,0,0,0,.318-.126.44.44,0,0,0,.131-.316v-1.789a.865.865,0,0,1,.219-.682.865.865,0,0,1,.657-.283c.53,0,.832.346.832.95v1.8a.44.44,0,0,0,.131.316.44.44,0,0,0,.318.126.434.434,0,0,0,.315-.127.434.434,0,0,0,.127-.315v-2.076a1.333,1.333,0,0,0-.348-1.064,1.333,1.333,0,0,0-1.036-.423,1.409,1.409,0,0,0-1.215.677v-.191a.446.446,0,0,0-.131-.318.446.446,0,0,0-.318-.131.44.44,0,0,0-.316.131.44.44,0,0,0-.126.318Zm4.551-4.484a.461.461,0,0,0,.158.331.461.461,0,0,0,.35.111.461.461,0,0,0,.35-.111.461.461,0,0,0,.158-.331V-14.3a.456.456,0,0,0-.159-.328.456.456,0,0,0-.349-.106.456.456,0,0,0-.349.106.456.456,0,0,0-.159.328Zm.066,4.484a.438.438,0,0,0,.128.314.438.438,0,0,0,.314.128.44.44,0,0,0,.318-.126.44.44,0,0,0,.131-.316v-3.078a.446.446,0,0,0-.131-.318.446.446,0,0,0-.318-.131.44.44,0,0,0-.316.131.44.44,0,0,0-.126.318Zm3.851.493a1.9,1.9,0,0,0,1.41-.551.347.347,0,0,0,.125-.28.387.387,0,0,0-.383-.39.387.387,0,0,0-.243.1,1.3,1.3,0,0,1-.869.346,1.177,1.177,0,0,1-.85-.376,1.177,1.177,0,0,1-.313-.875v-.015a1.173,1.173,0,0,1,.3-.855,1.173,1.173,0,0,1,.823-.382,1.233,1.233,0,0,1,.832.331.454.454,0,0,0,.265.088.4.4,0,0,0,.289-.114.4.4,0,0,0,.123-.286.423.423,0,0,0-.14-.309A1.968,1.968,0,0,0,57.4-13.33a2.007,2.007,0,0,0-1.438.59,2.007,2.007,0,0,0-.586,1.44v.015a1.985,1.985,0,0,0,.581,1.43,1.985,1.985,0,0,0,1.429.582Zm3.527-.007a1.58,1.58,0,0,0,1.267-.567V-9.7a.4.4,0,0,0,.137.28.4.4,0,0,0,.3.1.424.424,0,0,0,.307-.122.424.424,0,0,0,.127-.305v-1.914a1.613,1.613,0,0,0-.42-1.2A1.742,1.742,0,0,0,61.34-13.3a3.333,3.333,0,0,0-1.252.228.389.389,0,0,0-.243.353.371.371,0,0,0,.111.262.371.371,0,0,0,.265.106.5.5,0,0,0,.14-.022,2.309,2.309,0,0,1,.862-.155c.626,0,.965.295.965.847v.1a3.248,3.248,0,0,0-1.046-.162c-.95,0-1.6.412-1.6,1.252v.015a1.242,1.242,0,0,0,.427.9,1.242,1.242,0,0,0,.949.3Zm.25-.648c-.427,0-.758-.214-.758-.589v-.015c0-.4.339-.648.913-.648a2.47,2.47,0,0,1,.884.155v.265a.929.929,0,0,1-1.043.833Zm4.219.633A1.772,1.772,0,0,0,66-9.4a.383.383,0,0,0,.236-.346.376.376,0,0,0-.376-.368,2.107,2.107,0,0,1-.221.022.424.424,0,0,1-.362-.122.424.424,0,0,1-.117-.364v-1.907h.7a.387.387,0,0,0,.39-.383.387.387,0,0,0-.39-.383h-.7v-.663a.443.443,0,0,0-.442-.442.445.445,0,0,0-.316.128.445.445,0,0,0-.133.314v.663h-.147a.38.38,0,0,0-.272.111.38.38,0,0,0-.111.272.38.38,0,0,0,.111.272.38.38,0,0,0,.272.111h.147v2.047a1,1,0,0,0,.277.844,1,1,0,0,0,.84.29Zm1.708-4.956a.461.461,0,0,0,.158.331.461.461,0,0,0,.35.111.461.461,0,0,0,.35-.111.461.461,0,0,0,.158-.331V-14.3a.456.456,0,0,0-.159-.328.456.456,0,0,0-.349-.106.456.456,0,0,0-.349.106.456.456,0,0,0-.159.328Zm.066,4.484a.438.438,0,0,0,.128.314.438.438,0,0,0,.314.128.44.44,0,0,0,.318-.126.44.44,0,0,0,.131-.316v-3.078a.446.446,0,0,0-.131-.318.446.446,0,0,0-.318-.131.44.44,0,0,0-.316.131.44.44,0,0,0-.126.318Zm3.9.493a2.033,2.033,0,0,0,1.468-.574,2.033,2.033,0,0,0,.616-1.451v-.015a2.014,2.014,0,0,0-.608-1.447,2.014,2.014,0,0,0-1.461-.571,2.032,2.032,0,0,0-1.465.58A2.032,2.032,0,0,0,69-11.3v.015a2.011,2.011,0,0,0,.606,1.44,2.011,2.011,0,0,0,1.454.572Zm.015-.781a1.2,1.2,0,0,1-.855-.372,1.2,1.2,0,0,1-.331-.872v-.015a1.167,1.167,0,0,1,.318-.871,1.167,1.167,0,0,1,.853-.364,1.2,1.2,0,0,1,.862.371,1.2,1.2,0,0,1,.331.879v.015a1.166,1.166,0,0,1-.322.871,1.166,1.166,0,0,1-.856.36Zm2.975.287a.438.438,0,0,0,.128.314.438.438,0,0,0,.314.128.44.44,0,0,0,.318-.126.44.44,0,0,0,.131-.316v-1.789a.865.865,0,0,1,.219-.682.865.865,0,0,1,.657-.283c.53,0,.832.346.832.95v1.8a.44.44,0,0,0,.131.316.44.44,0,0,0,.318.126.434.434,0,0,0,.315-.127.434.434,0,0,0,.127-.315v-2.076a1.333,1.333,0,0,0-.348-1.064,1.333,1.333,0,0,0-1.036-.423,1.409,1.409,0,0,0-1.215.677v-.191a.446.446,0,0,0-.131-.318.446.446,0,0,0-.318-.131.44.44,0,0,0-.316.131.44.44,0,0,0-.126.318Zm9.271.493a2.634,2.634,0,0,0,1.87-.692.435.435,0,0,0,.147-.324.431.431,0,0,0-.427-.42.412.412,0,0,0-.272.1,1.847,1.847,0,0,1-1.289.493,1.737,1.737,0,0,1-1.237-.553,1.737,1.737,0,0,1-.463-1.273v-.015a1.735,1.735,0,0,1,.465-1.269,1.735,1.735,0,0,1,1.235-.55,1.869,1.869,0,0,1,1.23.464.443.443,0,0,0,.272.088.44.44,0,0,0,.318-.126.44.44,0,0,0,.131-.316.453.453,0,0,0-.177-.361,2.7,2.7,0,0,0-1.767-.582,2.608,2.608,0,0,0-1.9.769,2.608,2.608,0,0,0-.758,1.9v.015a2.592,2.592,0,0,0,.748,1.881,2.592,2.592,0,0,0,1.872.77Zm4.713,0A2.033,2.033,0,0,0,89.5-9.851a2.033,2.033,0,0,0,.616-1.449v-.015a2.014,2.014,0,0,0-.608-1.447,2.014,2.014,0,0,0-1.461-.571,2.032,2.032,0,0,0-1.466.58,2.032,2.032,0,0,0-.61,1.453v.015a2.011,2.011,0,0,0,.607,1.441,2.011,2.011,0,0,0,1.455.571Zm.015-.781a1.2,1.2,0,0,1-.856-.371,1.2,1.2,0,0,1-.331-.872v-.015a1.167,1.167,0,0,1,.317-.872,1.167,1.167,0,0,1,.854-.365,1.2,1.2,0,0,1,.862.373,1.2,1.2,0,0,1,.33.879v.015a1.166,1.166,0,0,1-.322.871,1.166,1.166,0,0,1-.856.36Zm6.8-4.278a.44.44,0,0,0-.131-.316.44.44,0,0,0-.318-.126.438.438,0,0,0-.314.128.438.438,0,0,0-.128.314v1.686a1.59,1.59,0,0,0-1.325-.685,1.856,1.856,0,0,0-1.336.62,1.856,1.856,0,0,0-.464,1.4v.015a1.864,1.864,0,0,0,.467,1.4,1.864,1.864,0,0,0,1.333.622,1.556,1.556,0,0,0,1.325-.729v.243a.44.44,0,0,0,.131.316.44.44,0,0,0,.318.126.438.438,0,0,0,.314-.128.438.438,0,0,0,.128-.314Zm-2,1.775a1.167,1.167,0,0,1,.827.383,1.167,1.167,0,0,1,.3.861v.015a1.171,1.171,0,0,1-.3.86,1.171,1.171,0,0,1-.826.384,1.157,1.157,0,0,1-.83-.38,1.157,1.157,0,0,1-.3-.863v-.015a1.14,1.14,0,0,1,.288-.865,1.14,1.14,0,0,1,.831-.377Zm3.792.979a1.052,1.052,0,0,1,1-1.019,1.009,1.009,0,0,1,.987,1.024Zm2.511,1.789a.389.389,0,0,0,.118-.272.351.351,0,0,0-.1-.255.351.351,0,0,0-.253-.106.332.332,0,0,0-.228.081,1.4,1.4,0,0,1-.92.339,1.085,1.085,0,0,1-1.119-.987h2.437a.417.417,0,0,0,.3-.125.417.417,0,0,0,.12-.3,1.839,1.839,0,0,0-.514-1.352,1.839,1.839,0,0,0-1.334-.562,1.93,1.93,0,0,0-1.38.609,1.93,1.93,0,0,0-.52,1.416v.015a1.94,1.94,0,0,0,.56,1.445,1.94,1.94,0,0,0,1.44.573,2,2,0,0,0,1.385-.513Z" transform="translate(18259.324 1886.332)" fill="#58585a"></path></g></g></svg>