<svg xmlns="http://www.w3.org/2000/svg" xmlns:xlink="http://www.w3.org/1999/xlink" width="210.969" height="64" viewBox="0 0 210.969 64"><defs><clipPath id="clip-path"><path id="path10273" d="M1845.868-494.009c-.045,3.57,3.182,5.562,5.612,6.747,2.5,1.215,3.337,1.995,3.327,3.081-.019,1.663-1.992,2.4-3.839,2.426a13.4,13.4,0,0,1-6.585-1.566l-1.161,5.431a19.309,19.309,0,0,0,7.131,1.316c6.735,0,11.141-3.325,11.165-8.479.026-6.542-9.049-6.9-8.987-9.828.021-.887.868-1.833,2.722-2.073a12.071,12.071,0,0,1,6.323,1.108l1.127-5.255a17.187,17.187,0,0,0-6-1.1c-6.339,0-10.8,3.37-10.834,8.193m27.667-7.741a2.923,2.923,0,0,0-2.729,1.818l-9.621,22.972h6.73l1.339-3.7h8.224l.777,3.7h5.932l-5.176-24.79h-5.477m.942,6.7,1.942,9.309H1871.1l3.377-9.309m-36.768-6.7-5.305,24.79h6.413l5.3-24.79h-6.411m-9.487,0-6.675,16.873-2.7-14.347a2.99,2.99,0,0,0-2.958-2.526h-10.913l-.153.72a26.7,26.7,0,0,1,6.327,2.109,2.714,2.714,0,0,1,1.523,2.178l5.114,19.783h6.778l10.391-24.79h-6.735" transform="translate(-1804.822 502.203)"></path></clipPath><linearGradient id="linear-gradient" y1="0.373" x2="0.008" y2="0.373" gradientUnits="objectBoundingBox"><stop offset="0" stop-color="#222357"></stop><stop offset="1" stop-color="#254aa5"></stop></linearGradient><clipPath id="clip-Earthport"><rect width="210.969" height="64"></rect></clipPath></defs><g id="Earthport" clip-path="url(#clip-Earthport)"><rect width="210.969" height="64" fill="rgba(255,255,255,0)"></rect><g id="Group_1075" data-name="Group 1075" transform="translate(9479.925 1562.4)"><g id="layer1" transform="translate(-9479.925 -1553.632)"><g id="g10267" transform="translate(0 0)"><g id="g10269" clip-path="url(#clip-path)"><g id="g10275" transform="translate(-8.311 -25.738)"><path id="path10283" d="M0-151.906l78.2-28.8L95.988-132.4l-78.2,28.8" transform="translate(0 180.705)" fill="url(#linear-gradient)"></path></g></g></g></g><g id="Group_1074" data-name="Group 1074" transform="translate(-9387.005 -1562.4)"><path id="Path_35024" data-name="Path 35024" d="M492.972,251.108c.027,0,.055,0,.055-.027V250.2h0c0-.055,0-.082-.027-.11s-.027-.082-.082-.11a.143.143,0,0,0-.11-.055.206.206,0,0,0-.137-.027h-.055a.206.206,0,0,0-.137.027c-.027.027-.082.055-.11.082l-.055.11h-.055a.274.274,0,0,0-.11-.137.4.4,0,0,0-.192-.055h-.027a.248.248,0,0,0-.137.027c-.027.027-.082.055-.11.082l-.055.082H491.6l.027-.082v-.11c0-.027-.027-.027-.055-.027h-.082c-.027,0-.027,0-.027.027v1.153c0,.027,0,.027.027.027h.082c.027,0,.055,0,.055-.027v-.769c.027-.055.055-.082.082-.137l.082-.082c.027-.027.055-.027.082-.055h.082c.055,0,.082,0,.11.055a.143.143,0,0,1,.055.11v.906h0v.027h.137v-.8c.027-.055.055-.082.082-.137l.082-.082c.027-.027.055-.027.082-.055h.11c.055,0,.082,0,.11.055a.143.143,0,0,1,.055.11v.906c0,.027.027.027.055.027h.137Zm-1.648-1.071a.1.1,0,0,0,.055-.027v-.082c0-.027-.027-.027-.055-.027h-.769c-.027,0-.055,0-.055.027v.055c0,.027,0,.027.055.027h.275v1.044c0,.027.027.027.055.027h.082c.027,0,.055,0,.055-.027V250.01h.3Z" transform="translate(-384.987 -239.794)" fill="#004e6d"></path><path id="Path_35025" data-name="Path 35025" d="M274.78,262.74c-.357,0-.522-.137-.522-.439V247.031a1.667,1.667,0,0,0-.549-1.236,1.851,1.851,0,0,0-1.291-.494h-1.071a2.967,2.967,0,0,0-.687.137,2.813,2.813,0,0,0-.934.494,5.367,5.367,0,0,0-.989.961,6.367,6.367,0,0,0-.851,1.483V262.3c0,.3-.165.439-.522.439h-1.044c-.357,0-.522-.137-.522-.439V235.139c0-.3.165-.439.522-.439h1.044c.357,0,.522.137.522.439v9.585l-.275,1.126.357.082.549-1.044a4.463,4.463,0,0,1,1.263-.906,3.6,3.6,0,0,1,1.538-.33h1.071a3.985,3.985,0,0,1,1.51.275,3.775,3.775,0,0,1,2.115,1.922,3.439,3.439,0,0,1,.3,1.373V262.3c0,.3-.165.439-.522.439Zm14.775-3.57V247.223a3.34,3.34,0,0,0-.3-1.373,3.5,3.5,0,0,0-.851-1.153,4.212,4.212,0,0,0-1.263-.769,4.084,4.084,0,0,0-1.51-.275h-1.1a3.6,3.6,0,0,0-1.538.33,4.463,4.463,0,0,0-1.263.906l-.577,1.044-.357-.11.275-1.126v-.6c0-.3-.165-.439-.522-.439H279.5c-.357,0-.522.137-.522.439v27.161c0,.3.165.439.522.439h1.044c.357,0,.522-.137.522-.439v-9.585l-.275-1.126.357-.082.577.989a5.19,5.19,0,0,0,1.263.934,3.251,3.251,0,0,0,1.538.357h1.1a3.985,3.985,0,0,0,1.51-.275,3.775,3.775,0,0,0,2.115-1.922,3.03,3.03,0,0,0,.3-1.373m-2.087.165a1.667,1.667,0,0,1-.549,1.236,1.761,1.761,0,0,1-1.291.522h-1.1a2.965,2.965,0,0,1-.687-.137,3.437,3.437,0,0,1-.934-.494,5.366,5.366,0,0,1-.989-.961,6.044,6.044,0,0,1-.851-1.51V248.4a6.366,6.366,0,0,1,.851-1.483,5.365,5.365,0,0,1,.989-.961,3.1,3.1,0,0,1,.934-.494,2.965,2.965,0,0,1,.687-.137h1.1a1.852,1.852,0,0,1,1.291.494,1.624,1.624,0,0,1,.549,1.236Z" transform="translate(-221.997 -228.768)" fill="#004e6d"></path><path id="Path_35026" data-name="Path 35026" d="M472.387,256.281v14.034a1.667,1.667,0,0,0,.549,1.236,1.892,1.892,0,0,0,1.346.494c.357,0,.522.165.522.467v.714c0,.3-.165.439-.522.439a4.271,4.271,0,0,1-1.565-.275,3.775,3.775,0,0,1-2.115-1.922,3.439,3.439,0,0,1-.3-1.373V250.239c0-.3.165-.439.522-.439h1.071c.33,0,.494.137.494.439v4.367h2.966c.357,0,.522.137.522.439v.714c0,.33-.165.494-.522.494h-2.966Z" transform="translate(-370.335 -239.721)" fill="#004e6d"></path><path id="Path_35027" data-name="Path 35027" d="M240.887,256.281v14.034a1.667,1.667,0,0,0,.549,1.236,1.892,1.892,0,0,0,1.346.494c.357,0,.522.165.522.467v.714c0,.3-.165.439-.522.439a4.271,4.271,0,0,1-1.565-.275,4.213,4.213,0,0,1-1.263-.769,3.933,3.933,0,0,1-.851-1.153,3.439,3.439,0,0,1-.3-1.373V250.239c0-.3.165-.439.522-.439h1.071c.33,0,.494.137.494.439v4.367h2.966c.357,0,.522.137.522.439v.714c0,.33-.165.494-.522.494h-2.966Z" transform="translate(-202.412 -239.721)" fill="#004e6d"></path><path id="Path_35028" data-name="Path 35028" d="M129.7,285.947V270.87a3.439,3.439,0,0,0-.3-1.373,3.5,3.5,0,0,0-.851-1.153,3.9,3.9,0,0,0-1.263-.769,4.172,4.172,0,0,0-1.565-.275h-1.977a4.271,4.271,0,0,0-1.565.275,4.212,4.212,0,0,0-1.263.769,3.931,3.931,0,0,0-.851,1.153,3.439,3.439,0,0,0-.3,1.373c0,.3.165.439.522.439h1.044c.357,0,.522-.137.522-.439v-.192a1.667,1.667,0,0,1,.549-1.236,1.892,1.892,0,0,1,1.346-.494h1.977a1.939,1.939,0,0,1,1.346.494,1.624,1.624,0,0,1,.549,1.236v3.213a18.468,18.468,0,0,0-3.048.934,17.928,17.928,0,0,0-2.719,1.373,8.379,8.379,0,0,0-1.95,1.62,2.663,2.663,0,0,0-.741,1.7v3.3a3.339,3.339,0,0,0,.3,1.373,3.5,3.5,0,0,0,.851,1.153,4.212,4.212,0,0,0,1.263.769,4.127,4.127,0,0,0,1.538.275h1.071a3.6,3.6,0,0,0,1.538-.33,4.462,4.462,0,0,0,1.263-.906l.549-1.044.357.11-.275,1.1v.632c0,.3.165.439.522.439h1.044c.357,0,.522-.165.522-.439m-2.087-4.312a5.844,5.844,0,0,1-.851,1.483,5.366,5.366,0,0,1-.989.961,3.1,3.1,0,0,1-.934.494,2.965,2.965,0,0,1-.687.137H123.08a1.8,1.8,0,0,1-1.291-.494,1.609,1.609,0,0,1-.549-1.208v-3.488a1.65,1.65,0,0,1,.494-.906,8.734,8.734,0,0,1,1.346-1.236,11.706,11.706,0,0,1,2.032-1.236,13.775,13.775,0,0,1,2.527-.961v6.454Zm10.3-12.66a2.967,2.967,0,0,0-.687.137,2.813,2.813,0,0,0-.934.494,5.366,5.366,0,0,0-.989.961,6.366,6.366,0,0,0-.851,1.483V285.92c0,.3-.165.439-.522.439h-1.044c-.357,0-.522-.137-.522-.439V267.767c0-.3.165-.439.522-.439h1.044c.357,0,.522.137.522.439v.6l-.275,1.126.357.11.549-1.044a4.462,4.462,0,0,1,1.263-.906,3.6,3.6,0,0,1,1.538-.33h2.279c.357,0,.522.137.522.439v.714a.391.391,0,0,1-.165.33.578.578,0,0,1-.357.137H137.91Zm-21.037,7.058V270.87a3.439,3.439,0,0,0-.3-1.373,3.156,3.156,0,0,0-.851-1.153,3.9,3.9,0,0,0-1.263-.769,4.127,4.127,0,0,0-1.538-.275h-2.636a4.172,4.172,0,0,0-1.565.275A3.775,3.775,0,0,0,106.6,269.5a3.439,3.439,0,0,0-.3,1.373v11.946a3.339,3.339,0,0,0,.3,1.373,3.156,3.156,0,0,0,.851,1.153,3.9,3.9,0,0,0,1.263.769,4.172,4.172,0,0,0,1.565.275h2.636a4.127,4.127,0,0,0,1.538-.275,4.212,4.212,0,0,0,1.263-.769,3.932,3.932,0,0,0,.851-1.153,3.439,3.439,0,0,0,.3-1.373c0-.3-.165-.439-.522-.439h-1.044c-.357,0-.522.137-.522.439v.192a1.609,1.609,0,0,1-.549,1.208,1.871,1.871,0,0,1-1.318.494h-2.636a1.939,1.939,0,0,1-1.346-.494,1.609,1.609,0,0,1-.549-1.208v-5.383h6.371c1.291,0,2.115-.494,2.115-1.593m-2.087-.055h-6.371V270.65a1.667,1.667,0,0,1,.549-1.236,1.892,1.892,0,0,1,1.346-.494h2.636a1.919,1.919,0,0,1,1.318.494,1.624,1.624,0,0,1,.549,1.236v5.328Z" transform="translate(-106.3 -252.415)" fill="#004e6d"></path><path id="Path_35029" data-name="Path 35029" d="M440.6,269.048a.579.579,0,0,0,.357-.137.429.429,0,0,0,.165-.33v-.741c0-.3-.165-.439-.522-.439H438.32a3.6,3.6,0,0,0-1.538.33,4.463,4.463,0,0,0-1.263.906l-.549,1.044-.357-.11.275-1.126v-.6c0-.3-.165-.439-.522-.439h-1.044c-.357,0-.522.137-.522.439v18.18c0,.3.165.439.522.439h1.044c.357,0,.522-.137.522-.439V272.151a6.364,6.364,0,0,1,.851-1.483,5.363,5.363,0,0,1,.989-.961,3.1,3.1,0,0,1,.934-.494,2.965,2.965,0,0,1,.687-.137H440.6Z" transform="translate(-343.133 -252.488)" fill="#004e6d"></path><path id="Path_35030" data-name="Path 35030" d="M277.482,262.2H277.4a39.442,39.442,0,0,0,61.737-49.1h-.055a39.443,39.443,0,0,1-61.6,49.1" transform="translate(-230.411 -213.1)" fill="#ffde00"></path><path id="Path_35031" data-name="Path 35031" d="M366.83,284.327a7.5,7.5,0,1,1,7.5-7.5,7.489,7.489,0,0,1-7.5,7.5m0-17.027a9.53,9.53,0,1,0,9.53,9.53,9.517,9.517,0,0,0-9.53-9.53" transform="translate(-288.368 -252.415)" fill="#ffde00"></path></g></g></g></svg>