<svg xmlns="http://www.w3.org/2000/svg" viewBox="0 0 584 393.66"><defs><style>.cls-1{opacity:0.12;}.cls-2{fill:#031439;}.cls-3{fill:#08c9d6;}.cls-4{fill:#1885f2;}.cls-5{fill:#fff;}.cls-6{fill:#f2f7ff;}.cls-7,.cls-9{fill:#282d44;}.cls-8{fill:#d9dee5;}.cls-9{fill-rule:evenodd;}.cls-10{fill:#59d883;}.cls-11{fill:#24313e;}.cls-12{fill:#f4e969;}.cls-13{fill:#01c7d4;}.cls-14{fill:#f766a1;}</style></defs><g id="Layer_2" data-name="Layer 2"><g id="shadow"><g class="cls-1"><ellipse class="cls-2" cx="311.08" cy="388.38" rx="104.38" ry="5.28"></ellipse></g></g><g id="halo"><g id="Ellipse_970" data-name="Ellipse 970"><circle class="cls-3" cx="311.08" cy="171.05" r="66.5"></circle></g><path class="cls-2" d="M387.81,171.36A76,76,0,0,1,378.43,208h1.14a77.26,77.26,0,0,0-4.21-80.2h-1.22A76.06,76.06,0,0,1,387.81,171.36Z"></path><path class="cls-2" d="M234.94,171.36a76.06,76.06,0,0,1,13.67-43.55h-1.22a77.26,77.26,0,0,0-4.21,80.2h1.14A76,76,0,0,1,234.94,171.36Z"></path><path class="cls-2" d="M253.53,119.74a.59.59,0,0,1-.4.2.55.55,0,0,1-.42-.15l-5.64-5a.52.52,0,0,1-.19-.42.68.68,0,0,1,.18-.45c.5-.55,1-1.1,1.51-1.64a5.2,5.2,0,0,1,1.55-1.16,4.15,4.15,0,0,1,1.69-.41,3.73,3.73,0,0,1,1.64.32,4.4,4.4,0,0,1,1.44,1,4.56,4.56,0,0,1,1,1.48,4.18,4.18,0,0,1,.32,1.62,4.23,4.23,0,0,1-.32,1.6,4.93,4.93,0,0,1-1,1.46C254.43,118.75,254,119.24,253.53,119.74Zm-.37-1.12,1-1.06a3.39,3.39,0,0,0,.85-1.5,3.26,3.26,0,0,0,0-1.64,3.48,3.48,0,0,0-.9-1.52,3.31,3.31,0,0,0-1.52-.93,3.1,3.1,0,0,0-1.68,0,3.62,3.62,0,0,0-1.55,1c-.36.38-.71.77-1.06,1.15Z"></path><path class="cls-2" d="M253.09,120.24a.91.91,0,0,1-.58-.22l-5.64-5a.84.84,0,0,1-.29-.64,1,1,0,0,1,.26-.65c.5-.55,1-1.1,1.51-1.64a5.43,5.43,0,0,1,1.65-1.23,4.3,4.3,0,0,1,1.8-.44,4,4,0,0,1,1.77.35,4.53,4.53,0,0,1,1.53,1.1,5,5,0,0,1,1,1.58,4.52,4.52,0,0,1,.34,1.73,4.4,4.4,0,0,1-.35,1.71,5.15,5.15,0,0,1-1,1.56q-.67.72-1.35,1.47h0a.89.89,0,0,1-.6.3ZM251.9,111h-.08a3.85,3.85,0,0,0-1.57.38,5,5,0,0,0-1.46,1.1c-.51.53-1,1.08-1.51,1.64a.36.36,0,0,0-.1.25.22.22,0,0,0,.08.18l5.65,5a.25.25,0,0,0,.2.07.27.27,0,0,0,.19-.1h0c.45-.5.91-1,1.37-1.48a4.52,4.52,0,0,0,.91-1.38,3.81,3.81,0,0,0,.3-1.49,4.07,4.07,0,0,0-.29-1.49,4.59,4.59,0,0,0-.92-1.4,4.12,4.12,0,0,0-1.34-1A3.56,3.56,0,0,0,251.9,111Zm1.28,8-5.36-4.86.2-.23,1.07-1.15a3.84,3.84,0,0,1,1.68-1.09,3.33,3.33,0,0,1,1.85,0,3.51,3.51,0,0,1,1.65,1,3.86,3.86,0,0,1,1,1.65,3.52,3.52,0,0,1-.89,3.43c-.33.35-.66.7-1,1.06Zm-4.51-4.9,4.47,4,.78-.85a2.93,2.93,0,0,0,.77-1.36,2.79,2.79,0,0,0,0-1.49,3.25,3.25,0,0,0-.83-1.39,3,3,0,0,0-1.38-.84,2.59,2.59,0,0,0-1.51,0,3.19,3.19,0,0,0-1.42.92C249.24,113.52,249,113.83,248.67,114.15Z"></path><path class="cls-2" d="M262.53,111.29a4.69,4.69,0,0,1-1.55.86,4,4,0,0,1-1.63.2,4.32,4.32,0,0,1-1.62-.45,5,5,0,0,1-1.45-1.11,4.78,4.78,0,0,1-.95-1.55,4.06,4.06,0,0,1-.21-1.69,4.21,4.21,0,0,1,.52-1.68,5.34,5.34,0,0,1,1.27-1.49,5.2,5.2,0,0,1,1.7-.93,4.17,4.17,0,0,1,1.74-.17,4,4,0,0,1,1.6.56,4.73,4.73,0,0,1,1.32,1.25,5,5,0,0,1,.8,1.65,4.48,4.48,0,0,1,.12,1.66,4.17,4.17,0,0,1-.52,1.56A4.9,4.9,0,0,1,262.53,111.29Zm-.66-.81a3.41,3.41,0,0,0,.85-1,3.22,3.22,0,0,0,.37-1.2A3.3,3.3,0,0,0,263,107a3.81,3.81,0,0,0-.62-1.22,3.67,3.67,0,0,0-1-.93,3.13,3.13,0,0,0-1.22-.43,3.09,3.09,0,0,0-1.31.11,3.7,3.7,0,0,0-1.26.68,3.65,3.65,0,0,0-.92,1.1,3.11,3.11,0,0,0-.38,1.27,3.2,3.2,0,0,0,.17,1.29,3.42,3.42,0,0,0,.7,1.18,3.56,3.56,0,0,0,2.3,1.21,3.19,3.19,0,0,0,1.26-.13A3.35,3.35,0,0,0,261.87,110.48Z"></path><path class="cls-2" d="M259.66,112.66h-.34a4.73,4.73,0,0,1-1.72-.48,5.2,5.2,0,0,1-1.54-1.18,5,5,0,0,1-1-1.65,4.2,4.2,0,0,1-.23-1.82,4.49,4.49,0,0,1,.56-1.8,5.47,5.47,0,0,1,1.34-1.57,5.39,5.39,0,0,1,1.81-1,4.51,4.51,0,0,1,1.85-.18,4.38,4.38,0,0,1,1.73.61,5,5,0,0,1,1.4,1.33,5.21,5.21,0,0,1,.85,1.74,4.69,4.69,0,0,1,.12,1.78,4.45,4.45,0,0,1-.55,1.67,4.88,4.88,0,0,1-1.22,1.41,5.12,5.12,0,0,1-1.63.92A4.67,4.67,0,0,1,259.66,112.66Zm.21-9.11a4,4,0,0,0-1.17.18,5.18,5.18,0,0,0-2.79,2.28,4,4,0,0,0-.5,1.56,3.83,3.83,0,0,0,.21,1.57,4.13,4.13,0,0,0,.89,1.45,4.41,4.41,0,0,0,1.35,1,4.17,4.17,0,0,0,1.51.42,4,4,0,0,0,1.52-.18,4.77,4.77,0,0,0,1.45-.81h0a4.46,4.46,0,0,0,1.07-1.25,4,4,0,0,0,.48-1.44,4.37,4.37,0,0,0-.11-1.56,5,5,0,0,0-.75-1.54,4.28,4.28,0,0,0-1.24-1.17,3.65,3.65,0,0,0-1.48-.52A3.15,3.15,0,0,0,259.87,103.55Zm-.12,8a2,2,0,0,1-.34,0,3.7,3.7,0,0,1-1.33-.39,3.81,3.81,0,0,1-1.17-.92,3.77,3.77,0,0,1-.75-1.27,3.44,3.44,0,0,1-.19-1.41,3.65,3.65,0,0,1,.41-1.39,4.15,4.15,0,0,1,1-1.19,4.08,4.08,0,0,1,1.37-.74,3.5,3.5,0,0,1,1.43-.12,3.33,3.33,0,0,1,1.34.48,3.93,3.93,0,0,1,1.08,1,4.22,4.22,0,0,1,.67,1.32,3.65,3.65,0,0,1,.12,1.39,3.64,3.64,0,0,1-1.33,2.42h0a3.56,3.56,0,0,1-1.28.69A3.62,3.62,0,0,1,259.75,111.55Zm0-6.87a3,3,0,0,0-.83.12,3.22,3.22,0,0,0-1.16.63,3.34,3.34,0,0,0-.85,1,2.87,2.87,0,0,0-.34,1.15,2.93,2.93,0,0,0,.15,1.17,3.25,3.25,0,0,0,.64,1.08,3.31,3.31,0,0,0,1,.77,3.09,3.09,0,0,0,1.12.34,2.76,2.76,0,0,0,1.14-.12,3.12,3.12,0,0,0,1.84-1.5,2.83,2.83,0,0,0,.34-1.09,3,3,0,0,0-.1-1.16,3.26,3.26,0,0,0-.57-1.13,3.32,3.32,0,0,0-.91-.85,2.84,2.84,0,0,0-1.11-.39A2,2,0,0,0,259.75,104.68Z"></path><path class="cls-2" d="M268,107.07a.47.47,0,0,1-.41.08.57.57,0,0,1-.36-.25L263,100.69a.51.51,0,0,1-.09-.44.57.57,0,0,1,.26-.37.59.59,0,0,1,.51-.09c2.61.84,5.14,1.8,7.57,2.86q-1.53-2.62-3.07-5.25a.59.59,0,0,1-.06-.45.61.61,0,0,1,.3-.35.57.57,0,0,1,.45-.08.58.58,0,0,1,.35.29l3.7,6.54a.62.62,0,0,1,.08.43.49.49,0,0,1-.26.34.48.48,0,0,1-.22.07.5.5,0,0,1-.24,0,76.93,76.93,0,0,0-7.48-2.93l3.36,5a.61.61,0,0,1,.1.43A.49.49,0,0,1,268,107.07Z"></path><path class="cls-2" d="M267.72,107.47l-.19,0a.92.92,0,0,1-.54-.37l-4.25-6.21a.86.86,0,0,1-.14-.67.92.92,0,0,1,.39-.56.91.91,0,0,1,.75-.13c2.31.74,4.58,1.58,6.78,2.51l-2.6-4.46a.82.82,0,0,1-.09-.68.89.89,0,0,1,1.64-.21l3.71,6.55a.88.88,0,0,1,.1.63.76.76,0,0,1-.4.54.84.84,0,0,1-.73.06c-2.14-1-4.36-1.86-6.62-2.64l2.87,4.32a.93.93,0,0,1,.15.64.82.82,0,0,1-.37.56h0A.79.79,0,0,1,267.72,107.47Zm-4.22-7.4a.3.3,0,0,0-.17.05.33.33,0,0,0-.14.19.23.23,0,0,0,.05.21l4.25,6.21a.29.29,0,0,0,.18.13.2.2,0,0,0,.18,0,.18.18,0,0,0,.1-.15.25.25,0,0,0-.05-.22l-3.84-5.78.83.27a78.9,78.9,0,0,1,7.5,3,.11.11,0,0,0,.08,0,.16.16,0,0,0,.11,0,.18.18,0,0,0,.12-.14.31.31,0,0,0-.05-.22L269,97a.29.29,0,0,0-.17-.14.26.26,0,0,0-.22,0,.28.28,0,0,0-.16.18.27.27,0,0,0,0,.21l3.53,6-.84-.37c-2.44-1.06-5-2-7.54-2.85Z"></path><path class="cls-2" d="M272.5,97.88a.31.31,0,0,1-.32,0,.35.35,0,0,1-.17-.29,3.11,3.11,0,0,0-.13-.77,1.46,1.46,0,0,0-.23-.45,4.12,4.12,0,0,0-.28-.31,1.64,1.64,0,0,1-.25-.36.6.6,0,0,1,0-.52.69.69,0,0,1,.35-.4.64.64,0,0,1,.63,0,1.29,1.29,0,0,1,.5.55,2.17,2.17,0,0,1,.19.65,4.36,4.36,0,0,1,.07.81,3,3,0,0,1-.08.71A.58.58,0,0,1,272.5,97.88Z"></path><path class="cls-2" d="M272.36,98.22a.64.64,0,0,1-.33-.1.65.65,0,0,1-.32-.52,3.21,3.21,0,0,0-.11-.71,1.6,1.6,0,0,0-.18-.35c-.09-.1-.17-.2-.26-.29a1.83,1.83,0,0,1-.31-.43.92.92,0,0,1-.06-.76,1.07,1.07,0,0,1,.5-.57,1,1,0,0,1,.91,0,1.55,1.55,0,0,1,.63.68,2.6,2.6,0,0,1,.22.74,6.09,6.09,0,0,1,.07.85,3.18,3.18,0,0,1-.09.79.85.85,0,0,1-.39.58h0A.6.6,0,0,1,272.36,98.22ZM271.75,95a.31.31,0,0,0-.18,0,.39.39,0,0,0-.21.23.31.31,0,0,0,0,.28,1.14,1.14,0,0,0,.21.29c.1.1.2.22.29.33a1.62,1.62,0,0,1,.28.54,3.26,3.26,0,0,1,.15.85l.05.07h0s0,0,.09-.2a3,3,0,0,0,.07-.64,4.87,4.87,0,0,0-.06-.76,2.1,2.1,0,0,0-.16-.56,1.08,1.08,0,0,0-.38-.43A.38.38,0,0,0,271.75,95Z"></path><path class="cls-2" d="M274.5,94.59a.56.56,0,0,1-.42,0,.54.54,0,0,1-.33-.69.49.49,0,0,1,.29-.31q2.79-1.35,5.65-2.47a.51.51,0,0,1,.42,0,.53.53,0,0,1,.29.3.53.53,0,0,1,0,.41.5.5,0,0,1-.31.29C278.2,92.89,276.34,93.71,274.5,94.59Zm5.83,5.7a.49.49,0,0,1-.41,0,.56.56,0,0,1-.31-.31c-1.1-2.47-2.21-4.94-3.31-7.4l1.1-.48q1.61,3.72,3.2,7.44a.56.56,0,0,1,0,.44A.52.52,0,0,1,280.33,100.29Z"></path><path class="cls-2" d="M280.12,100.63a.71.71,0,0,1-.32-.07.85.85,0,0,1-.47-.46L276.59,94l-2,.91a.84.84,0,0,1-.64,0,.83.83,0,0,1-.49-.43.86.86,0,0,1,0-.65.83.83,0,0,1,.45-.47c.66-.32,1.33-.63,2-.93h0l.27-.13,1.1-.48.28-.12h0c.67-.29,1.35-.57,2-.83a.86.86,0,0,1,.65,0,.83.83,0,0,1,.45.47.82.82,0,0,1-.49,1.09c-.66.26-1.32.53-2,.81l2.66,6.18a.89.89,0,0,1,0,.66.8.8,0,0,1-.44.48h0A.83.83,0,0,1,280.12,100.63Zm-3-6.92,2.74,6.15a.28.28,0,0,0,.15.15.19.19,0,0,0,.18,0h0a.2.2,0,0,0,.12-.13.34.34,0,0,0,0-.22l-2.66-6.19Zm-1-.73c-.66.29-1.33.6-2,.92A.21.21,0,0,0,274,94a.19.19,0,0,0,0,.18.21.21,0,0,0,.13.12.3.3,0,0,0,.2,0h0l2-.92Zm.55-.25.19.43.54-.24-.18-.43Zm1.1-.47.18.43c.66-.29,1.33-.56,2-.82a.25.25,0,0,0,.15-.13.22.22,0,0,0,0-.18c0-.09-.08-.12-.12-.13a.23.23,0,0,0-.2,0C279.13,91.7,278.46,92,277.8,92.26Z"></path><path class="cls-2" d="M288.32,97.31a.52.52,0,0,1-.42,0,.55.55,0,0,1-.27-.34l-2.3-7.16a.54.54,0,0,1,0-.45.55.55,0,0,1,.35-.28.59.59,0,0,1,.6.14c1.81,1.87,3.55,3.8,5.19,5.77l-.32.09q.65-3.78,1.57-7.56a.54.54,0,0,1,.44-.41.54.54,0,0,1,.45.07.52.52,0,0,1,.25.37c.52,2.45,1,4.91,1.55,7.36a.6.6,0,0,1-.07.44.5.5,0,0,1-.33.24.51.51,0,0,1-.41-.09.58.58,0,0,1-.24-.36l-1.3-5.78.21-.1q-.78,3.21-1.35,6.42a.53.53,0,0,1-.95.19q-2-2.43-4.28-4.77l.2-.12c.58,1.89,1.15,3.78,1.73,5.67a.56.56,0,0,1,0,.44A.52.52,0,0,1,288.32,97.31Z"></path><path class="cls-2" d="M288.16,97.63a.79.79,0,0,1-.4-.1.91.91,0,0,1-.42-.52l-2.29-7.16a.83.83,0,0,1,.06-.69.9.9,0,0,1,1.41-.21c1.58,1.62,3.1,3.3,4.55,5,.4-2.18.87-4.38,1.4-6.55a.87.87,0,0,1,.67-.64.91.91,0,0,1,.67.11.83.83,0,0,1,.38.57l1.55,7.36a.82.82,0,0,1-.11.65.8.8,0,0,1-1.16.25.88.88,0,0,1-.36-.55l-.92-4.1c-.35,1.54-.66,3.09-.94,4.63a.83.83,0,0,1-1.47.33c-1-1.16-2-2.32-3-3.45l1.21,4a.88.88,0,0,1-.05.66.8.8,0,0,1-.49.43Zm-2.25-8.33h-.1a.32.32,0,0,0-.18.14.24.24,0,0,0,0,.21l2.3,7.17a.26.26,0,0,0,.13.17.19.19,0,0,0,.18,0,.2.2,0,0,0,.13-.11.26.26,0,0,0,0-.22l-1.56-5.12-.3-.31-.26-.27.85-.51.24.78c1.21,1.27,2.39,2.59,3.52,3.91l0-.19.05-.26c-1.54-1.82-3.17-3.62-4.84-5.34A.25.25,0,0,0,285.91,89.3ZM291,95.38l.21.25a.23.23,0,0,0,.27.1c.06,0,.12,0,.16-.19l.06-.35Zm2.47-5.68L294.69,95a.33.33,0,0,0,.12.19.22.22,0,0,0,.31-.07.28.28,0,0,0,0-.22l-1.55-7.36a.26.26,0,0,0-.12-.18.28.28,0,0,0-.22,0,.28.28,0,0,0-.22.21c-.57,2.3-1.07,4.65-1.48,7,.06.07.12.13.17.2l.06.07c.31-1.69.68-3.41,1.08-5.13l-.12-.54,1-.5-.15.63C293.56,89.42,293.53,89.56,293.5,89.7Z"></path><path class="cls-2" d="M297.69,95a.48.48,0,0,1-.49-.18.6.6,0,0,1-.13-.55q.74-3.93,1.76-7.85a.57.57,0,0,1,.49-.47.56.56,0,0,1,.61.31c1.39,2.33,2.69,4.68,3.9,7.07a.62.62,0,0,1,0,.56.5.5,0,0,1-.42.3.48.48,0,0,1-.3-.07.52.52,0,0,1-.22-.24q-1.65-3.26-3.51-6.45l.31,0c-.61,2.39-1.15,4.78-1.6,7.18a.62.62,0,0,1-.16.3A.49.49,0,0,1,297.69,95Zm.2-2c.08-.34.17-.68.25-1,1.37-.23,2.74-.42,4.12-.58l.53.9C301.15,92.52,299.52,92.75,297.89,93Z"></path><path class="cls-2" d="M297.58,95.32A.77.77,0,0,1,297,95a.92.92,0,0,1-.21-.81c.5-2.61,1.09-5.26,1.77-7.87a.88.88,0,0,1,.74-.69.85.85,0,0,1,.91.47c1.37,2.29,2.69,4.68,3.91,7.07a.93.93,0,0,1,0,.83.76.76,0,0,1-.66.46.78.78,0,0,1-.47-.09.84.84,0,0,1-.35-.37L302,92.74c-1.1.13-2.2.29-3.3.47-.09.47-.19,1-.28,1.42a.83.83,0,0,1-.25.47.85.85,0,0,1-.41.21Zm0-1.92-.18.94a.35.35,0,0,0,.07.3.2.2,0,0,0,.2.08h0a.24.24,0,0,0,.11-.06.24.24,0,0,0,.07-.15l.24-1.2-.11,0Zm5.07-.74c.19.37.38.73.56,1.1a.36.36,0,0,0,.1.11l.13,0a.21.21,0,0,0,.18-.13.32.32,0,0,0,0-.3c-.14-.29-.29-.58-.44-.86l-.3,0Zm-3.72-.45c0,.12-.05.24-.08.37,1-.15,1.91-.29,2.87-.41l-.18-.34C300.63,91.94,299.76,92.07,298.89,92.21Zm0-5c-.43,1.68-.81,3.38-1.16,5.06,0-.11.05-.23.08-.34l0-.19.19,0,.3,0c.28-1.28.58-2.56.9-3.83l-.15-.26Zm.79,1.37c-.24,1-.48,2-.69,3,.72-.11,1.44-.22,2.17-.31C300.72,90.37,300.22,89.48,299.72,88.6Zm.21-.84c.65,1.13,1.29,2.27,1.91,3.43l.38,0h.12c-.73-1.35-1.48-2.69-2.25-4l-.09.34C300,87.57,300,87.66,299.93,87.76Zm-.5-1.51h-.07c-.11,0-.19.06-.24.24l-.18.71,1.1-.16-.37-.63C299.6,86.3,299.53,86.25,299.43,86.25Z"></path><path class="cls-2" d="M306.09,94a.47.47,0,0,1-.38-.14.57.57,0,0,1-.19-.4c-.2-2.49-.39-5-.59-7.49a.56.56,0,0,1,.15-.43.56.56,0,0,1,.4-.19.6.6,0,0,1,.43.13.56.56,0,0,1,.19.4c.07,1.11.15,2.22.22,3.33q1.67-2,3.5-3.83a1,1,0,0,1,.25-.19.6.6,0,0,1,.24-.05.5.5,0,0,1,.41.16.52.52,0,0,1,.09.39.7.7,0,0,1-.21.42c-.94,1-1.85,1.94-2.73,2.93,1,1.26,1.95,2.55,2.86,3.85a.6.6,0,0,1,.11.4.64.64,0,0,1-.14.37.43.43,0,0,1-.32.16.52.52,0,0,1-.45-.24q-1.33-1.87-2.79-3.71c-.25.28-.49.57-.73.85l.18,2.67a.62.62,0,0,1-.13.42A.5.5,0,0,1,306.09,94Z"></path><path class="cls-2" d="M306.06,94.26a.77.77,0,0,1-.55-.22.86.86,0,0,1-.29-.59l-.58-7.5a.86.86,0,0,1,.21-.65.9.9,0,0,1,.61-.29.86.86,0,0,1,.64.21.82.82,0,0,1,.3.6l.17,2.6c1-1.12,2-2.22,3-3.29a1,1,0,0,1,.33-.25.94.94,0,0,1,.36-.08.78.78,0,0,1,.65.28.79.79,0,0,1,.16.62,1.1,1.1,0,0,1-.29.58c-.88.89-1.74,1.81-2.56,2.73.94,1.19,1.85,2.43,2.72,3.67a.86.86,0,0,1,.16.6,1,1,0,0,1-.2.53.74.74,0,0,1-.56.27h0a.8.8,0,0,1-.69-.37c-.8-1.14-1.67-2.28-2.55-3.41l-.41.48.17,2.55a.93.93,0,0,1-.2.63.76.76,0,0,1-.57.3Zm-.53-8.65h0a.27.27,0,0,0-.2.09.29.29,0,0,0-.07.2l.59,7.5a.27.27,0,0,0,.09.2c.07.06.12.07.16.06h0a.21.21,0,0,0,.16-.08.33.33,0,0,0,.06-.21l-.18-2.79.08-.09c.23-.29.48-.57.72-.85l.24-.28.22.29c1,1.22,1.92,2.47,2.81,3.72a.21.21,0,0,0,.19.11.13.13,0,0,0,.1,0,.38.38,0,0,0,.07-.21.3.3,0,0,0-.05-.21c-.91-1.3-1.87-2.59-2.85-3.84l-.16-.2.17-.18c.88-1,1.8-2,2.74-2.94a.42.42,0,0,0,.12-.25.2.2,0,0,0,0-.17.29.29,0,0,0-.17,0,.2.2,0,0,0-.11,0,.47.47,0,0,0-.16.12c-1.21,1.24-2.38,2.52-3.5,3.81l-.47.56-.27-4.06a.23.23,0,0,0-.09-.19A.28.28,0,0,0,305.53,85.61Z"></path><path class="cls-2" d="M313.19,93.78a.5.5,0,0,1-.38-.17.59.59,0,0,1-.15-.41q.06-3.77.1-7.53a.52.52,0,0,1,.18-.41.56.56,0,0,1,.42-.15c1.71,0,3.42.12,5.12.25a.58.58,0,0,1,.41.18A.57.57,0,0,1,319,86a.48.48,0,0,1-.19.36.54.54,0,0,1-.42.11c-1.49-.11-3-.19-4.48-.23,0,.9-.05,1.8-.07,2.7,1,0,2.07.07,3.11.14a.57.57,0,0,1,.39.17.55.55,0,0,1,.12.4.56.56,0,0,1-.17.37.57.57,0,0,1-.41.12c-1-.06-2.05-.11-3.07-.14l-.08,2.78c1.38,0,2.76.11,4.14.22a.52.52,0,0,1,.37.17.51.51,0,0,1,.11.39.51.51,0,0,1-.57.5C316.26,93.89,314.72,93.81,313.19,93.78Z"></path><path class="cls-2" d="M317.85,94.31h-.08c-1.52-.12-3.06-.2-4.59-.23a.78.78,0,0,1-.59-.27.91.91,0,0,1-.23-.62l.1-7.52a.86.86,0,0,1,.91-.86c1.7,0,3.43.12,5.13.25a.92.92,0,0,1,.61.28.84.84,0,0,1,.2.64.8.8,0,0,1-.31.57.84.84,0,0,1-.63.17c-1.38-.11-2.78-.18-4.16-.22l0,2.09c.94,0,1.88.08,2.82.14a.82.82,0,0,1,.59.27.81.81,0,0,1,.2.62.77.77,0,0,1-.28.57.83.83,0,0,1-.62.2c-.91-.06-1.84-.1-2.76-.13l-.06,2.18c1.28,0,2.57.11,3.85.21a.81.81,0,0,1,.58.28.8.8,0,0,1,.18.61.89.89,0,0,1-.28.58A.82.82,0,0,1,317.85,94.31Zm-4.51-8.9a.29.29,0,0,0-.2.07.24.24,0,0,0-.08.2l-.1,7.47a.35.35,0,0,0,.07.26.2.2,0,0,0,.16.07h0c1.54,0,3.09.11,4.63.23a.21.21,0,0,0,.16,0,.28.28,0,0,0,.08-.19.19.19,0,0,0,0-.16.2.2,0,0,0-.17-.08c-1.37-.1-2.75-.18-4.11-.21h-.3l.09-3.38h.3c1,0,2.06.08,3.08.14a.23.23,0,0,0,.19-.05.2.2,0,0,0,.07-.16.2.2,0,0,0-.05-.18.2.2,0,0,0-.18-.07c-1-.07-2.07-.12-3.1-.14h-.3l.09-3.3h.3c1.49,0,3,.12,4.49.23a.29.29,0,0,0,.21,0,.25.25,0,0,0,0-.34s-.06-.07-.2-.08c-1.69-.13-3.41-.22-5.11-.25Z"></path><path class="cls-2" d="M323.79,94.71a.48.48,0,0,1-.35-.22.63.63,0,0,1-.09-.43q.57-3.72,1.12-7.44a.6.6,0,0,1,.23-.38.62.62,0,0,1,.44-.1.59.59,0,0,1,.47.39q1.18,3.72,2.08,7.47l-.33-.07q2.25-3.11,4.76-6.08a.61.61,0,0,1,.59-.18.62.62,0,0,1,.37.26.58.58,0,0,1,.06.45c-.63,2.43-1.26,4.85-1.88,7.28A.57.57,0,0,1,331,96a.48.48,0,0,1-.4.07.47.47,0,0,1-.33-.25.6.6,0,0,1-.06-.44l1.41-5.75h.22q-2.11,2.53-4,5.16a.53.53,0,0,1-.52.19.5.5,0,0,1-.41-.43q-.76-3.09-1.71-6.17l.22,0-1,5.85a.59.59,0,0,1-.22.38A.48.48,0,0,1,323.79,94.71Z"></path><path class="cls-2" d="M330.72,96.41a.69.69,0,0,1-.2,0A.8.8,0,0,1,330,96a1,1,0,0,1-.08-.65l1-4.09c-1,1.24-2,2.49-2.89,3.75a.83.83,0,0,1-.82.3.82.82,0,0,1-.65-.66c-.35-1.46-.75-2.94-1.18-4.42l-.67,4.07a1,1,0,0,1-.33.57.82.82,0,0,1-.64.16h0a.82.82,0,0,1-.55-.35,1,1,0,0,1-.14-.64l1.13-7.44a.85.85,0,0,1,.35-.59.91.91,0,0,1,.66-.14.86.86,0,0,1,.7.57c.69,2.16,1.3,4.33,1.85,6.5,1.32-1.79,2.72-3.56,4.15-5.26a.88.88,0,0,1,.89-.28,1,1,0,0,1,.55.39.85.85,0,0,1,.1.68l-1.88,7.29a.87.87,0,0,1-.83.67Zm1.08-6.24-1.29,5.3a.29.29,0,0,0,0,.22.2.2,0,0,0,.14.11.19.19,0,0,0,.17,0,.27.27,0,0,0,.13-.18l1.88-7.29a.23.23,0,0,0,0-.21.29.29,0,0,0-.19-.12.26.26,0,0,0-.29.09c-1.53,1.81-3,3.7-4.42,5.61l.06.26,0,.09c1-1.38,2.12-2.77,3.25-4.12l.13-.55h1.11l-.42.5Zm-4.73,4c0,.1.05.21.08.31s.11.2.18.22.13,0,.24-.11l.21-.28Zm-3.23.24a.23.23,0,0,0,.17,0,.26.26,0,0,0,.1-.19L325,88.9c-.05-.14-.09-.27-.13-.41l-.11-.35,1-.09-.13.81c.51,1.68,1,3.38,1.4,5.06l.12-.17.15-.2c-.56-2.32-1.22-4.64-1.95-6.93a.26.26,0,0,0-.22-.18.35.35,0,0,0-.23,0,.33.33,0,0,0-.1.19l-1.12,7.44a.25.25,0,0,0,0,.21.2.2,0,0,0,.15.1Z"></path><path class="cls-2" d="M334,97a.54.54,0,0,1-.32-.27.56.56,0,0,1,0-.44l2.1-7.22a.53.53,0,0,1,.28-.35.54.54,0,0,1,.45,0q2.48.73,4.92,1.62a.62.62,0,0,1,.34.29.53.53,0,0,1,0,.43.55.55,0,0,1-.28.3.64.64,0,0,1-.45,0q-2.13-.78-4.29-1.44l-.79,2.58c1,.31,2,.63,3,1a.54.54,0,0,1,.33.27.55.55,0,0,1,0,.42.57.57,0,0,1-.28.31.55.55,0,0,1-.42,0c-1-.34-2-.66-2.95-1-.28.89-.55,1.77-.82,2.66,1.33.41,2.65.85,4,1.33a.5.5,0,0,1,.32.26.49.49,0,0,1,0,.41.54.54,0,0,1-.27.32.53.53,0,0,1-.41,0C336.94,98,335.46,97.46,334,97Z"></path><path class="cls-2" d="M338.6,98.82a.8.8,0,0,1-.3-.06c-1.45-.53-2.93-1-4.41-1.46h0a.8.8,0,0,1-.5-.42.86.86,0,0,1-.05-.65l2.1-7.23a.83.83,0,0,1,.44-.53.86.86,0,0,1,.67-.06c1.65.49,3.31,1,4.93,1.63a.9.9,0,0,1,.51.44.84.84,0,0,1,0,.66.78.78,0,0,1-.45.47.89.89,0,0,1-.66,0c-1.31-.48-2.65-.93-4-1.34l-.62,2c.91.28,1.82.58,2.72.89a.86.86,0,0,1,.5.43.81.81,0,0,1,0,.65.82.82,0,0,1-1.08.5c-.87-.3-1.76-.59-2.66-.87L335.18,96c1.23.38,2.47.8,3.69,1.24a.85.85,0,0,1,.48.43.77.77,0,0,1,0,.63.83.83,0,0,1-.42.49A.81.81,0,0,1,338.6,98.82ZM336.28,89a.28.28,0,0,0-.13,0,.27.27,0,0,0-.13.17l-2.11,7.22a.3.3,0,0,0,0,.23.2.2,0,0,0,.13.11h0c1.49.44,3,.93,4.44,1.47a.27.27,0,0,0,.18,0,.28.28,0,0,0,.12-.16.2.2,0,0,0,0-.17.24.24,0,0,0-.15-.11c-1.3-.48-2.63-.92-4-1.32l-.28-.09,1-3.23.28.09c1,.3,2,.63,3,1a.3.3,0,0,0,.21,0A.28.28,0,0,0,339,94a.22.22,0,0,0,0-.18.25.25,0,0,0-.16-.13c-1-.34-2-.67-3-1l-.29-.09,1-3.15.29.08c1.44.45,2.89.93,4.3,1.44a.31.31,0,0,0,.23,0,.22.22,0,0,0,.12-.13.21.21,0,0,0,0-.18.28.28,0,0,0-.19-.14C339.66,90,338,89.48,336.38,89Z"></path><path class="cls-2" d="M346.81,102.24a3.92,3.92,0,0,1-1.27-1,4.4,4.4,0,0,1-.77-1.41,4.74,4.74,0,0,1-.2-1.65,4.53,4.53,0,0,1,.42-1.73A4.34,4.34,0,0,1,346,95a4.18,4.18,0,0,1,1.42-.9,4.2,4.2,0,0,1,3.41.21,4.53,4.53,0,0,1,1.26.9,4.11,4.11,0,0,1,.79,1.26.82.82,0,0,1,.06.19.81.81,0,0,1,0,.16.71.71,0,0,1-.07.16.46.46,0,0,1-.3.23.62.62,0,0,1-.71-.36,3.11,3.11,0,0,0-.52-.89,2.78,2.78,0,0,0-1-.72,3.19,3.19,0,0,0-1.26-.33,3.41,3.41,0,0,0-1.26.21A3.46,3.46,0,0,0,346,96.9a3.68,3.68,0,0,0-.34,1.31,3.52,3.52,0,0,0,.14,1.26,3.13,3.13,0,0,0,.56,1.07,2.76,2.76,0,0,0,.93.76,2.79,2.79,0,0,0,1,.29,4,4,0,0,0,1.08,0,.55.55,0,0,1,.39.07.46.46,0,0,1,.2.29.55.55,0,0,1-.07.4.75.75,0,0,1-.14.17.68.68,0,0,1-.21.1,4.2,4.2,0,0,1-1.41.06A3.9,3.9,0,0,1,346.81,102.24Z"></path><path class="cls-2" d="M348.62,103a4.9,4.9,0,0,1-.54,0,4.26,4.26,0,0,1-1.41-.43h0a4.36,4.36,0,0,1-1.36-1.08,4.48,4.48,0,0,1-.82-1.5,4.93,4.93,0,0,1-.22-1.76,5.27,5.27,0,0,1,.44-1.84,4.88,4.88,0,0,1,1.08-1.56,4.55,4.55,0,0,1,1.53-1,4.34,4.34,0,0,1,1.79-.28A4.61,4.61,0,0,1,351,94a4.78,4.78,0,0,1,1.35,1,4.53,4.53,0,0,1,.85,1.34,1.38,1.38,0,0,1,.08.27.84.84,0,0,1,0,.28.88.88,0,0,1-.1.22.72.72,0,0,1-.49.38.88.88,0,0,1-.6-.06.87.87,0,0,1-.45-.47,3,3,0,0,0-.48-.82,2.7,2.7,0,0,0-.88-.64,2.54,2.54,0,0,0-1.13-.3,3,3,0,0,0-1.14.2,2.91,2.91,0,0,0-1,.62,3.3,3.3,0,0,0-.71,1,3.55,3.55,0,0,0-.31,1.2,3.21,3.21,0,0,0,.13,1.16,3.13,3.13,0,0,0,.5,1,2.62,2.62,0,0,0,.84.67,2.39,2.39,0,0,0,.89.26,3.76,3.76,0,0,0,1,0,.84.84,0,0,1,.61.11.75.75,0,0,1,.32.47.8.8,0,0,1-.1.61.86.86,0,0,1-.21.26,1.08,1.08,0,0,1-.3.16A5.19,5.19,0,0,1,348.62,103Zm-1.68-1a3.84,3.84,0,0,0,1.22.38,4.24,4.24,0,0,0,1.32-.06l.07-.05a.27.27,0,0,0,.07-.08.23.23,0,0,0,0-.18.15.15,0,0,0-.08-.11.25.25,0,0,0-.18,0,4.46,4.46,0,0,1-1.15,0,3.31,3.31,0,0,1-1.1-.32,3,3,0,0,1-1-.84,3.34,3.34,0,0,1-.62-1.18,3.85,3.85,0,0,1-.15-1.36,4,4,0,0,1,.36-1.42,3.94,3.94,0,0,1,.84-1.18,3.66,3.66,0,0,1,1.19-.76,3.79,3.79,0,0,1,1.37-.23,3.37,3.37,0,0,1,1.38.36,3.43,3.43,0,0,1,1.08.79,3.86,3.86,0,0,1,.56,1,.26.26,0,0,0,.15.15.26.26,0,0,0,.21,0,.16.16,0,0,0,.11-.09.42.42,0,0,0,0-.1.29.29,0,0,0,0-.14,3.67,3.67,0,0,0-1.92-2,3.77,3.77,0,0,0-1.61-.44,3.85,3.85,0,0,0-1.55.24,4.05,4.05,0,0,0-1.33.84,4.34,4.34,0,0,0-.94,1.36,4.57,4.57,0,0,0-.39,1.63,4.41,4.41,0,0,0,.19,1.54,3.88,3.88,0,0,0,.71,1.31,3.54,3.54,0,0,0,1.17.92Z"></path><path class="cls-2" d="M353.94,106.34a4.47,4.47,0,0,1-1.26-1.18,4.18,4.18,0,0,1-.66-1.48,4.4,4.4,0,0,1,0-1.66,4.9,4.9,0,0,1,.62-1.72,4.71,4.71,0,0,1,1.17-1.39,4.22,4.22,0,0,1,1.52-.74,4.14,4.14,0,0,1,1.72,0,4.79,4.79,0,0,1,1.77.73,5,5,0,0,1,1.39,1.32,4.13,4.13,0,0,1,.68,1.59,3.9,3.9,0,0,1,0,1.7,4.66,4.66,0,0,1-.78,1.64,5.11,5.11,0,0,1-1.32,1.27,4.56,4.56,0,0,1-1.54.63,4.26,4.26,0,0,1-1.63,0A4.52,4.52,0,0,1,353.94,106.34Zm.57-.87a3.39,3.39,0,0,0,1.21.49,3.28,3.28,0,0,0,1.25,0,3.14,3.14,0,0,0,1.18-.5,4,4,0,0,0,1-1,3.75,3.75,0,0,0,.57-1.24,3.17,3.17,0,0,0,0-1.3,3.23,3.23,0,0,0-.5-1.2,3.54,3.54,0,0,0-1-1,3.44,3.44,0,0,0-1.3-.53,3.15,3.15,0,0,0-1.3,0,3.31,3.31,0,0,0-1.16.57,3.75,3.75,0,0,0-1.37,2.31,3.38,3.38,0,0,0,0,1.27,3.06,3.06,0,0,0,.48,1.15A3.41,3.41,0,0,0,354.51,105.47Z"></path><path class="cls-2" d="M356.38,107.39a4.56,4.56,0,0,1-.9-.08,5.09,5.09,0,0,1-1.7-.71,5,5,0,0,1-1.34-1.27,4.21,4.21,0,0,1-.71-1.59,4.56,4.56,0,0,1-.05-1.77,5.34,5.34,0,0,1,.66-1.82,4.76,4.76,0,0,1,1.25-1.47,4.17,4.17,0,0,1,1.62-.8,4.31,4.31,0,0,1,1.86,0,5.19,5.19,0,0,1,1.87.78,5.1,5.1,0,0,1,1.48,1.4,4.46,4.46,0,0,1,.73,1.71,4.3,4.3,0,0,1,0,1.82,4.83,4.83,0,0,1-.83,1.75,5.34,5.34,0,0,1-1.39,1.34,4.6,4.6,0,0,1-1.65.67A4.08,4.08,0,0,1,356.38,107.39Zm-.17-9a4,4,0,0,0-.85.1,3.75,3.75,0,0,0-1.4.69,4.27,4.27,0,0,0-1.1,1.3,4.92,4.92,0,0,0-.59,1.61,4.22,4.22,0,0,0,0,1.55,3.77,3.77,0,0,0,.62,1.37,3.94,3.94,0,0,0,1.18,1.11h0a4.18,4.18,0,0,0,1.49.63,3.84,3.84,0,0,0,1.51,0,4,4,0,0,0,1.44-.58,4.62,4.62,0,0,0,1.23-1.19,4.36,4.36,0,0,0,.74-1.54,3.78,3.78,0,0,0,0-1.57,3.73,3.73,0,0,0-.64-1.48,4.55,4.55,0,0,0-1.3-1.24,4.9,4.9,0,0,0-1.66-.69A5,5,0,0,0,356.21,98.36Zm.09,8a3.36,3.36,0,0,1-.63-.06,3.56,3.56,0,0,1-1.32-.53h0a3.61,3.61,0,0,1-1-1,3.47,3.47,0,0,1-.52-1.26,3.76,3.76,0,0,1,0-1.38,4.08,4.08,0,0,1,.52-1.38,3.78,3.78,0,0,1,1-1.12,3.66,3.66,0,0,1,1.27-.62,3.56,3.56,0,0,1,1.42,0,4.13,4.13,0,0,1,2.52,1.64,3.45,3.45,0,0,1,.54,1.32,3.25,3.25,0,0,1,0,1.42,3.79,3.79,0,0,1-.62,1.34,4,4,0,0,1-1.05,1,3.58,3.58,0,0,1-1.27.55A3.81,3.81,0,0,1,356.3,106.31Zm-1.63-1.1a2.91,2.91,0,0,0,2.24.43,3,3,0,0,0,1.07-.46,3.42,3.42,0,0,0,.89-.89,3.32,3.32,0,0,0,.53-1.13,2.89,2.89,0,0,0,0-1.17,2.85,2.85,0,0,0-.45-1.1,3.3,3.3,0,0,0-.93-.89,3.46,3.46,0,0,0-1.19-.49,2.75,2.75,0,0,0-2.22.56,3.3,3.3,0,0,0-.83.94,3.61,3.61,0,0,0-.44,1.18,3.22,3.22,0,0,0,0,1.16,2.82,2.82,0,0,0,.44,1,3,3,0,0,0,.85.82Z"></path><path class="cls-2" d="M359.63,110.27a.56.56,0,0,1-.21-.38.55.55,0,0,1,.12-.42l4.59-6a.53.53,0,0,1,.4-.22.56.56,0,0,1,.44.14c.57.44,1.13.89,1.69,1.35a5,5,0,0,1,1.22,1.45,4.17,4.17,0,0,1,.51,1.64,3.76,3.76,0,0,1-.22,1.66,4.49,4.49,0,0,1-.93,1.51,4.62,4.62,0,0,1-1.42,1.07,4.05,4.05,0,0,1-1.58.43,4.17,4.17,0,0,1-1.6-.2,4.77,4.77,0,0,1-1.49-.85C360.65,111.07,360.14,110.67,359.63,110.27Zm1.07-.46,1.1.89a3.14,3.14,0,0,0,1.52.72,3.22,3.22,0,0,0,1.62-.15,3.49,3.49,0,0,0,1.45-1,3.35,3.35,0,0,0,.82-1.58,3,3,0,0,0-.13-1.66,3.4,3.4,0,0,0-1.07-1.46l-1.19-1Q362.77,107.22,360.7,109.81Z"></path><path class="cls-2" d="M364,112.85a4.57,4.57,0,0,1-1.41-.23,4.8,4.8,0,0,1-1.59-.9c-.5-.41-1-.82-1.51-1.21h0a.85.85,0,0,1-.14-1.22l4.58-6a.85.85,0,0,1,.61-.33.93.93,0,0,1,.66.2l1.69,1.36a5.5,5.5,0,0,1,1.3,1.54,4.34,4.34,0,0,1,.54,1.76,4.29,4.29,0,0,1-.23,1.78,4.85,4.85,0,0,1-1,1.61,5.06,5.06,0,0,1-1.5,1.14,4.44,4.44,0,0,1-1.7.46ZM359.82,110c.51.4,1,.81,1.52,1.23a4.37,4.37,0,0,0,1.4.79,3.73,3.73,0,0,0,1.48.19,3.67,3.67,0,0,0,1.47-.4,4.35,4.35,0,0,0,1.33-1,4.12,4.12,0,0,0,.87-1.4,3.48,3.48,0,0,0,.2-1.53,3.73,3.73,0,0,0-.47-1.52,4.75,4.75,0,0,0-1.15-1.37l-1.68-1.34a.33.33,0,0,0-.24-.09.25.25,0,0,0-.18.11l-4.59,6a.29.29,0,0,0-.06.21.23.23,0,0,0,.1.17Zm4,1.73a3.29,3.29,0,0,1-2.24-.83l-1.08-.88-.24-.19,4.5-5.67.23.19,1.19,1a3.73,3.73,0,0,1,1.16,1.58,3.36,3.36,0,0,1,.15,1.83,4,4,0,0,1-2.47,2.8A3.53,3.53,0,0,1,363.84,111.76Zm-2.72-2,.87.7a2.87,2.87,0,0,0,2.85.52,3.37,3.37,0,0,0,1.33-.92,3.09,3.09,0,0,0,.75-1.44,2.75,2.75,0,0,0-.12-1.5,3.34,3.34,0,0,0-1-1.33l-.95-.76Z"></path><path class="cls-2" d="M366.3,116.14a.55.55,0,0,1-.18-.41.6.6,0,0,1,.17-.41l5.23-5.4a.53.53,0,0,1,.42-.17.64.64,0,0,1,.44.2q2,1.93,3.82,4a.68.68,0,0,1,.2.45.51.51,0,0,1-.18.39.49.49,0,0,1-.4.12.65.65,0,0,1-.41-.24c-1.09-1.22-2.2-2.39-3.33-3.53l-1.91,1.91c.79.79,1.57,1.6,2.33,2.43a.67.67,0,0,1,.19.42.55.55,0,0,1-.57.52.65.65,0,0,1-.4-.22c-.76-.82-1.53-1.61-2.3-2.39l-2,2q1.57,1.57,3.08,3.26a.58.58,0,0,1,.17.41.49.49,0,0,1-.18.37.53.53,0,0,1-.78-.07Q368.06,117.88,366.3,116.14Z"></path><path class="cls-2" d="M370.17,120.26h-.07a.93.93,0,0,1-.59-.31c-1.1-1.23-2.25-2.44-3.42-3.6h0a.86.86,0,0,1,0-1.24l5.23-5.4a.85.85,0,0,1,.65-.26,1,1,0,0,1,.63.28c1.31,1.3,2.6,2.65,3.84,4a1,1,0,0,1,.27.64.8.8,0,0,1-.29.62.75.75,0,0,1-.64.19,1,1,0,0,1-.58-.33c-1-1.13-2.06-2.24-3.11-3.31l-1.49,1.49c.72.73,1.44,1.47,2.13,2.22a1,1,0,0,1,.26.63.75.75,0,0,1-.27.6.78.78,0,0,1-.62.22.93.93,0,0,1-.59-.31c-.68-.74-1.38-1.47-2.08-2.18l-1.54,1.54c1,1,1.95,2,2.88,3.06a.88.88,0,0,1,.24.61.77.77,0,0,1-.28.59A.83.83,0,0,1,370.17,120.26Zm1.75-10.21a.22.22,0,0,0-.18.08l-5.23,5.4a.27.27,0,0,0-.09.2.25.25,0,0,0,.09.19h0c1.18,1.17,2.34,2.39,3.45,3.63a.27.27,0,0,0,.19.11.18.18,0,0,0,.17-.07.19.19,0,0,0,.08-.15.29.29,0,0,0-.09-.2c-1-1.11-2-2.2-3.07-3.25l-.21-.21,2.39-2.39.21.21c.78.78,1.56,1.59,2.31,2.41a.35.35,0,0,0,.21.12.22.22,0,0,0,.16-.06.2.2,0,0,0,.07-.16.33.33,0,0,0-.1-.22c-.75-.82-1.54-1.63-2.32-2.42l-.21-.21,2.33-2.34.21.22c1.14,1.14,2.26,2.33,3.34,3.54a.45.45,0,0,0,.23.14.17.17,0,0,0,.16-.05.19.19,0,0,0,.08-.16.39.39,0,0,0-.12-.25c-1.23-1.37-2.51-2.71-3.81-4a.35.35,0,0,0-.24-.11Z"></path></g><g id="pelvis"><path class="cls-4" d="M306.72,336.42c-30.38-.3-63.15-12.89-73.56-24-2.46-2.62-3.64-5.1-3.51-7.37.19-3.48,3.51-7.28,6.6-9a10,10,0,0,1,5-1.2c2.85,0,6.55.81,13.27,2.53,5,1.29,15.4,4.37,17.8,5.09l2.62-10.69a.49.49,0,0,1,.48-.38h71.07a.5.5,0,0,1,.48.36l3.45,12.36c3.8-1.2,27-8.36,37.38-8.36,2.76,0,4.41.52,5,1.58,1.2,2.06-.21,4.81-.82,6-7.11,13.86-40.19,33.05-83.8,33.05Z"></path><path class="cls-2" d="M346.48,291.94l3.59,12.85s26.61-8.49,37.72-8.49c2.38,0,4,.39,4.59,1.33,1.05,1.79-.2,4.3-.82,5.51-6.44,12.56-38.31,32.78-83.37,32.78h-1.47c-36.49-.36-77.25-18.71-76.57-30.85.17-3.12,3.13-6.81,6.33-8.54a9.47,9.47,0,0,1,4.76-1.14c2.91,0,6.81.89,13.15,2.52,5.75,1.47,18.28,5.23,18.28,5.23l2.74-11.2h71.07m0-1H275.41a1,1,0,0,0-1,.76L272,301.88c-3.1-.92-12.56-3.73-17.32-4.94-6.75-1.73-10.48-2.55-13.39-2.55a10.46,10.46,0,0,0-5.23,1.26c-3.73,2-6.67,6-6.86,9.36-.13,2.41,1.09,5,3.65,7.74,10.48,11.19,43.41,23.87,73.91,24.17h1.48c25.61,0,44.91-6.4,56.58-11.77,13.42-6.17,24-14.43,27.68-21.55.64-1.25,2.14-4.17.8-6.47-.73-1.25-2.46-1.83-5.46-1.83-10.05,0-32,6.67-37,8.23l-3.31-11.86a1,1,0,0,0-1-.73Z"></path><path class="cls-2" d="M307.69,302.92a.53.53,0,0,1-.24-.06.51.51,0,0,1-.21-.68l3.12-5.84a.54.54,0,0,1,.44-.27h0a.51.51,0,0,1,.44.26l3.23,5.85a.5.5,0,0,1-.88.48l-2.78-5-2.68,5A.51.51,0,0,1,307.69,302.92Z"></path></g><g id="legr"><path class="cls-5" d="M375.28,352.59c-36.24,0-83.5-1.2-84-1.21a334.31,334.31,0,0,1-46.56-5.06c-25.5-4.51-36.46-9.3-43.43-19-3.22-4.46-8.18-13-5.23-20.37,2-4.9,8.35-10.84,27.46-11.31l.63,0,1.67,0c10,0,16.88,3.49,28.32,9.27,4.49,2.27,9.57,4.84,15.82,7.7.14.06,13.91,6.33,35.14,13.94,18.72,6.71,38.76,12.91,58.56,12.91a85.29,85.29,0,0,0,11.92-.81l.57-.09a75.86,75.86,0,0,1,12.07-1c2.3,0,4.61.11,6.86.32s22.63,2.33,23.46,9.44a5.22,5.22,0,0,1-.82,3.07C417.35,351.06,416.41,352.59,375.28,352.59Z"></path><path class="cls-2" d="M225.86,296.13c13.73,0,21.78,6.81,43.93,16.92,0,0,13.67,6.25,35.17,14C323.63,333.7,343.9,340,363.69,340a84.16,84.16,0,0,0,12-.82,77.25,77.25,0,0,1,12.58-1.05c2.1,0,4.38.09,6.81.32,8.27.77,22.36,3.53,23,9a4.68,4.68,0,0,1-.75,2.75c-.91,1.48-19.46,1.94-42.05,1.94-36.64,0-83.95-1.21-83.95-1.21a332.19,332.19,0,0,1-46.48-5.05c-25.66-4.54-36.39-9.45-43.12-18.76-1.35-1.87-8.46-11.73-5.16-19.89,4.46-11.07,24.81-10.91,27.64-11l1.66,0m0-1-1.7,0-.63,0c-19.38.47-25.87,6.58-27.9,11.62-3,7.55,2,16.31,5.28,20.85,7.06,9.79,18.1,14.62,43.75,19.17a338.13,338.13,0,0,0,46.64,5.06c.47,0,47.78,1.21,84,1.21,41.41,0,42.35-1.51,42.9-2.42a5.59,5.59,0,0,0,.89-3.39c-.85-7.35-20.06-9.52-23.9-9.88-2.27-.21-4.59-.32-6.9-.32a76.81,76.81,0,0,0-12.15,1l-.57.09a84.39,84.39,0,0,1-11.85.81C344,339,324,332.76,305.3,326.07c-21.22-7.61-35-13.86-35.1-13.92-6.24-2.86-11.32-5.43-15.81-7.7-11.5-5.81-18.44-9.32-28.53-9.32Z"></path><path class="cls-4" d="M344.86,352.34c-27.26-.35-51.74-.95-52-1a350.75,350.75,0,0,1-47.63-5.05c-26.08-4.52-37.29-9.3-44.43-19-3.29-4.46-8.37-13-5.34-20.37,2-4.9,8.53-10.84,28.07-11.31l.65,0,1.71,0c10.2,0,17.26,3.49,29,9.27,4.59,2.27,9.8,4.84,16.19,7.7.14.06,14.23,6.33,36,13.94,12.68,4.44,27.7,9.29,42.87,11.57a.5.5,0,0,1,.3.83,17.44,17.44,0,0,0-3.57,6.3,36,36,0,0,0-1.25,6.66.5.5,0,0,1-.49.44Z"></path><path class="cls-2" d="M225.91,296.13c14.05,0,22.29,6.81,44.94,16.92,0,0,14,6.25,36,14,13.74,4.81,28.33,9.4,43,11.59a18,18,0,0,0-3.67,6.48,35.65,35.65,0,0,0-1.27,6.76c-27.58-.35-52-1-52-1a347.46,347.46,0,0,1-47.56-5.05c-26.26-4.54-37.24-9.45-44.11-18.76-1.38-1.87-8.66-11.73-5.29-19.89,4.57-11.07,25.39-10.91,28.28-11l1.7,0m0-1-1.74,0-.64,0c-19.81.47-26.45,6.58-28.52,11.62-3.12,7.55,2,16.31,5.4,20.86,7.22,9.78,18.51,14.62,44.75,19.16a351.58,351.58,0,0,0,47.7,5.06c1,0,24.77.62,52,1h0a1,1,0,0,0,1-.89,35,35,0,0,1,1.23-6.56,17,17,0,0,1,3.46-6.12,1,1,0,0,0,.2-1,1,1,0,0,0-.79-.65c-15.13-2.27-30.12-7.12-42.79-11.55-21.73-7.62-35.77-13.87-35.91-13.93-6.39-2.85-11.59-5.42-16.18-7.69-11.76-5.81-18.86-9.32-29.17-9.32Z"></path><path class="cls-5" d="M418.29,348.12c-.57.83-5.19.62-8.39,0"></path><path class="cls-2" d="M415.47,349.17a34.7,34.7,0,0,1-5.67-.56.5.5,0,0,1-.39-.59.5.5,0,0,1,.59-.39c3.69.72,7.47.63,7.89.2a.5.5,0,0,1,.69-.13.51.51,0,0,1,.13.7C418.31,349,417,349.17,415.47,349.17Z"></path></g><g id="legl"><path class="cls-5" d="M244.06,352.59c-42.07,0-43-1.53-43.44-2.18a5.14,5.14,0,0,1-.84-3.07c.85-7.11,21.62-9.22,24-9.44s4.66-.32,7-.32a79.27,79.27,0,0,1,12.35,1l.58.09a89.42,89.42,0,0,0,12.21.81c20.25,0,40.76-6.2,59.91-12.91,21.73-7.61,35.81-13.88,35.95-13.94,6.4-2.86,11.6-5.43,16.2-7.7,11.69-5.78,18.75-9.27,28.95-9.27l1.72,0,.64,0c19.54.47,26.06,6.41,28.08,11.31,3,7.33-2.05,15.91-5.35,20.37-7.13,9.67-18.34,14.45-44.43,19A350.45,350.45,0,0,1,330,351.38c-.48,0-48.83,1.21-85.9,1.21Z"></path><path class="cls-2" d="M396.93,296.13l1.7,0c2.89.11,23.71-.05,28.28,11,3.37,8.16-3.91,18-5.29,19.89-6.88,9.31-17.86,14.22-44.11,18.76A347.46,347.46,0,0,1,330,350.88s-48.4,1.21-85.89,1.21c-23.11,0-42.08-.46-43-1.94a4.56,4.56,0,0,1-.76-2.75c.65-5.47,15.06-8.23,23.53-9,2.48-.23,4.82-.32,7-.32a80.94,80.94,0,0,1,12.87,1.05,88,88,0,0,0,12.27.82c20.24,0,41-6.25,60.07-12.94,22-7.71,36-14,36-14,22.65-10.11,30.89-16.92,44.94-16.92m0-1c-10.32,0-17.41,3.51-29.18,9.32-4.59,2.27-9.79,4.84-16.17,7.69-.14.06-14.18,6.31-35.92,13.93-19.1,6.69-39.57,12.88-59.74,12.88a88.39,88.39,0,0,1-12.14-.81l-.58-.09a80.2,80.2,0,0,0-12.42-1c-2.37,0-4.74.11-7.06.32-3.93.36-23.56,2.53-24.43,9.88a5.48,5.48,0,0,0,.91,3.4c.57.9,1.52,2.41,43.86,2.41,37,0,85.43-1.2,85.92-1.21a353.45,353.45,0,0,0,47.7-5.06c26.23-4.54,37.52-9.38,44.74-19.16,3.36-4.55,8.53-13.31,5.41-20.86-2.08-5-8.72-11.15-28.53-11.62l-.64,0-1.73,0Z"></path><path class="cls-4" d="M278,352.34a.51.51,0,0,1-.5-.44,34.2,34.2,0,0,0-1.25-6.66,17.44,17.44,0,0,0-3.57-6.3.48.48,0,0,1-.09-.5.49.49,0,0,1,.39-.33c15.18-2.28,30.19-7.13,42.88-11.57,21.73-7.61,35.81-13.88,35.95-13.94,6.4-2.86,11.6-5.43,16.2-7.7,11.69-5.78,18.75-9.27,28.95-9.27l1.72,0,.64,0c19.54.47,26.06,6.41,28.08,11.31,3,7.33-2.05,15.91-5.35,20.37-7.13,9.67-18.34,14.45-44.43,19A350.45,350.45,0,0,1,330,351.38c-.24,0-24.72.61-52,1Z"></path><path class="cls-2" d="M396.93,296.13l1.7,0c2.89.11,23.71-.05,28.28,11,3.37,8.16-3.91,18-5.29,19.89-6.88,9.31-17.86,14.22-44.11,18.76A347.46,347.46,0,0,1,330,350.88s-24.4.61-52,1a36.45,36.45,0,0,0-1.27-6.76A18,18,0,0,0,273,338.6c14.64-2.19,29.22-6.78,43-11.59,22-7.71,36-14,36-14,22.65-10.11,30.89-16.92,44.94-16.92m0-1v0h0c-10.32,0-17.42,3.51-29.18,9.32-4.59,2.27-9.79,4.84-16.17,7.69-.14.06-14.19,6.31-35.92,13.93C303,330.5,288,335.35,272.88,337.62a1,1,0,0,0-.8.65,1,1,0,0,0,.2,1,17.07,17.07,0,0,1,3.47,6.12A35.88,35.88,0,0,1,277,352a1,1,0,0,0,1,.89h0c27.21-.34,51-.93,52-1a351.66,351.66,0,0,0,47.71-5.06c26.23-4.54,37.52-9.38,44.74-19.16,3.36-4.55,8.53-13.31,5.41-20.86-2.08-5-8.72-11.15-28.53-11.62l-.64,0-1.73,0Z"></path><path class="cls-5" d="M199.9,348.12c.58.83,5.19.62,8.39,0"></path><path class="cls-2" d="M202.73,349.17c-1.52,0-2.84-.19-3.24-.77a.49.49,0,0,1,.13-.69.5.5,0,0,1,.69.12c.43.43,4.2.52,7.89-.2a.5.5,0,1,1,.19,1A34.55,34.55,0,0,1,202.73,349.17Z"></path></g><g id="armr1"><path class="cls-5" d="M256.77,273.67c-.18.55-2.26,7.14,1.78,12.32,3.41,4.37,9.81,6,15.66,3.76l1.28-.55c-1.07-20-3.2-60.06-3.2-60.06l-21.12-.29s3.48,15.72,4.5,25.54C256.38,261.25,256.71,267.7,256.77,273.67Z"></path><path class="cls-2" d="M268.85,291.24a13.43,13.43,0,0,1-10.69-4.94c-4.05-5.18-2.23-11.65-1.89-12.71-.07-6.37-.44-12.82-1.1-19.15-1-9.67-4.45-25.32-4.48-25.48a.45.45,0,0,1,.1-.42.56.56,0,0,1,.39-.19l21.12.29a.49.49,0,0,1,.49.47l3.2,60.06a.52.52,0,0,1-.3.49l-.91.39-.37.16A15.57,15.57,0,0,1,268.85,291.24ZM251.8,229.36c.65,3,3.47,16.34,4.37,25,.66,6.4,1,12.9,1.1,19.33a.78.78,0,0,1,0,.16c-.23.7-2.15,6.93,1.69,11.86,3.31,4.25,9.52,5.72,15.09,3.6l.36-.15.58-.25-3.15-59.25Z"></path></g><g id="armr2"><path class="cls-5" d="M256.77,273.67l-43,14A6,6,0,0,0,215,299.58,217.68,217.68,0,0,0,244.38,298a111.68,111.68,0,0,0,31.11-8.84"></path><path class="cls-2" d="M218.67,300.13c-1.25,0-2.47,0-3.64-.05h-.1a6.48,6.48,0,0,1-1.22-12.86l42.91-14a.5.5,0,1,1,.31.95l-43,14.05a5.48,5.48,0,0,0,1,10.89H215a218.92,218.92,0,0,0,29.28-1.53,112.55,112.55,0,0,0,31-8.81.51.51,0,0,1,.66.26.5.5,0,0,1-.26.66,113.59,113.59,0,0,1-31.25,8.88A225.2,225.2,0,0,1,218.67,300.13Z"></path></g><g id="armr3"><path class="cls-5" d="M213.8,287.71a11.11,11.11,0,0,0-7-1.28c-4.87.18-5.68,2.32-7.9,1.15a4.27,4.27,0,0,1-1.52-1.38c-.95-1.93-1-3.53-1.79-3.86-.33-.13-.93-.08-2.06,1,.15-1.51-.76-2.39-1.55-2.3a1.66,1.66,0,0,0-1.62,1.06l-.27,2.06-1.79-.27c-.12-1.41-.21-2.44-.69-2.76a2.07,2.07,0,0,0-2.07,0v3.65l-2.48,1.86c0,.88,0,2.22,0,3.86-.09,3.36-.36,4.21.28,5.09.8,1.11,1.74.52,4.13,1.66,2.68,1.28,2.74,2.92,4.82,3.3a14.07,14.07,0,0,0,5.09-.55c4.47-1.66,8.83-.68,16.81-.41l.82,0"></path><path class="cls-2" d="M193.24,301.09a5.82,5.82,0,0,1-1-.08,4.38,4.38,0,0,1-2.54-1.54,7.82,7.82,0,0,0-2.41-1.8,9.26,9.26,0,0,0-2.37-.77,2.69,2.69,0,0,1-1.95-1c-.58-.81-.54-1.55-.45-3.33,0-.56.06-1.24.08-2.08,0-1.28,0-2.56,0-3.82a.52.52,0,0,1,.2-.42l2.28-1.71v-3.4a.5.5,0,0,1,.27-.44,2.54,2.54,0,0,1,2.57,0c.63.42.76,1.39.88,2.74l.9.14.21-1.56a.31.31,0,0,1,0-.13,2.17,2.17,0,0,1,2-1.36,1.73,1.73,0,0,1,1.38.53,2.4,2.4,0,0,1,.66,1.26,2,2,0,0,1,1.81-.42c.71.28.95,1.05,1.26,2a15,15,0,0,0,.79,2.07,3.85,3.85,0,0,0,1.3,1.15c1,.51,1.55.29,2.71-.15a14.29,14.29,0,0,1,4.94-1.05l.58,0a10.81,10.81,0,0,1,6.66,1.38.5.5,0,1,1-.49.87,9.89,9.89,0,0,0-6.11-1.25l-.61,0a13.11,13.11,0,0,0-4.62,1c-1.21.46-2.16.82-3.52.1a4.68,4.68,0,0,1-1.73-1.6,15,15,0,0,1-.85-2.21c-.22-.69-.41-1.3-.68-1.4s-.72.1-1.54.86a.5.5,0,0,1-.84-.41,1.87,1.87,0,0,0-.42-1.51.69.69,0,0,0-.57-.24c-.66.07-1,.19-1.19.7l-.27,2a.53.53,0,0,1-.19.33.52.52,0,0,1-.38.1l-1.79-.28a.49.49,0,0,1-.42-.45c-.08-1-.18-2.19-.47-2.38a1.51,1.51,0,0,0-1.29-.09v3.32a.48.48,0,0,1-.2.4l-2.27,1.71c0,1.19,0,2.41,0,3.62,0,.85-.06,1.53-.09,2.1-.08,1.72-.09,2.19.27,2.69s.64.51,1.34.65a10.24,10.24,0,0,1,2.6.85,9,9,0,0,1,2.7,2,3.46,3.46,0,0,0,2,1.26,13.65,13.65,0,0,0,4.83-.53c3.4-1.26,6.76-1,11.41-.74,1.64.11,3.5.23,5.58.3l.82,0a.5.5,0,1,1,0,1l-.82,0c-2.1-.07-4-.19-5.61-.3-4.7-.31-7.81-.51-11,.68A16,16,0,0,1,193.24,301.09Z"></path><path class="cls-2" d="M188.08,298a.51.51,0,0,1-.35-.13c-2.32-2.21-2.44-6-2.58-10.89,0-.72-.05-1.46-.08-2.23a.51.51,0,0,1,.48-.52.54.54,0,0,1,.52.48c0,.77.05,1.52.08,2.24.13,4.62.24,8.27,2.27,10.19a.5.5,0,0,1-.34.86Z"></path><path class="cls-2" d="M193.33,296.2a.54.54,0,0,1-.32-.11c-4.19-3.51-4.82-5-5.18-12.21a.5.5,0,1,1,1-.05c.37,7.2,1.07,8.34,4.83,11.49a.49.49,0,0,1,.06.7A.48.48,0,0,1,193.33,296.2Z"></path><path class="cls-2" d="M193.33,296.2a.54.54,0,0,1-.32-.11c-3.26-2.73-3.27-4-3.3-8,0-1.05,0-2.37-.09-4a.5.5,0,0,1,.47-.53.5.5,0,0,1,.53.48c.08,1.61.09,2.94.09,4,0,3.76,0,4.77,2.94,7.2a.49.49,0,0,1,.06.7A.48.48,0,0,1,193.33,296.2Z"></path><path class="cls-2" d="M199.38,295a.59.59,0,0,1-.22-.05c-5.79-2.89-5.85-4.91-6-8.94,0-.79-.06-1.67-.13-2.66a.5.5,0,0,1,1-.07c.07,1,.1,1.9.13,2.7.12,4,.16,5.45,5.42,8.07a.5.5,0,0,1,.22.67A.49.49,0,0,1,199.38,295Z"></path><path class="cls-2" d="M201.58,289.82c-1.22,0-2.6-.86-4.56-3.31a.5.5,0,0,1,.08-.7.49.49,0,0,1,.7.08c3.18,4,4.26,3.16,6.06,1.84a7.82,7.82,0,0,1,4.41-1.87.48.48,0,0,1,.52.47.5.5,0,0,1-.47.53,6.73,6.73,0,0,0-3.86,1.67A5.1,5.1,0,0,1,201.58,289.82Z"></path><path class="cls-2" d="M214.82,289.82a.51.51,0,0,1-.43-.23l-.78-1.24a.49.49,0,0,1,.16-.69.5.5,0,0,1,.69.15l.78,1.24a.51.51,0,0,1-.42.77Z"></path></g><g id="arml1"><path class="cls-5" d="M363.61,286c4.05-5.18,2-11.77,1.78-12.32.08-6,.4-12.42,1.1-19.28.83-8.12,3.45-22.32,3.45-22.32l-19.24.56s-2.69,37.71-4,56.57l1.28.55C353.81,292,360.21,290.36,363.61,286Z"></path><path class="cls-2" d="M353.31,291.24a15.54,15.54,0,0,1-5.53-1l-.4-.17-.91-.39a.52.52,0,0,1-.3-.49l4-56.58a.49.49,0,0,1,.49-.46l19.23-.56a.5.5,0,0,1,.4.18.52.52,0,0,1,.11.42c0,.14-2.63,14.26-3.44,22.27-.65,6.34-1,12.78-1.1,19.15.34,1.06,2.16,7.52-1.88,12.71h0A13.48,13.48,0,0,1,353.31,291.24Zm-6.11-2.36.57.25.38.16c5.56,2.12,11.76.64,15.07-3.61h0c3.85-4.93,1.93-11.16,1.7-11.86a.41.41,0,0,1,0-.16c.08-6.42.45-12.93,1.11-19.33.72-7.09,2.83-18.93,3.33-21.74l-18.16.52Z"></path></g><g id="arml2"><path class="cls-5" d="M365.39,273.67l43,14a6,6,0,0,1-1.24,11.87A217.43,217.43,0,0,1,377.79,298a111.73,111.73,0,0,1-31.12-8.84"></path><path class="cls-2" d="M403.48,300.13a225.17,225.17,0,0,1-25.76-1.59,113.69,113.69,0,0,1-31.25-8.88.5.5,0,1,1,.4-.92,112.55,112.55,0,0,0,31,8.81,218.89,218.89,0,0,0,29.26,1.53,5.48,5.48,0,0,0,1.15-10.88l-43-14.06a.49.49,0,0,1-.32-.63.5.5,0,0,1,.63-.32l43,14.05a6.47,6.47,0,0,1-1.39,12.84C406,300.11,404.73,300.13,403.48,300.13Z"></path></g><g id="arml3"><path class="cls-5" d="M408.36,287.71a11.13,11.13,0,0,1,7-1.28c4.86.18,5.68,2.32,7.89,1.15a4.18,4.18,0,0,0,1.52-1.38c1-1.93,1-3.53,1.79-3.86.33-.13.93-.08,2.06,1-.14-1.51.76-2.39,1.55-2.3a1.66,1.66,0,0,1,1.62,1.06c.09.69.19,1.37.28,2.06l1.79-.27c.11-1.41.21-2.44.69-2.76a2,2,0,0,1,2.06,0v3.65l2.48,1.86c0,.88,0,2.22,0,3.86.1,3.36.37,4.21-.27,5.09-.8,1.11-1.75.52-4.14,1.66-2.68,1.28-2.74,2.92-4.82,3.3a14.07,14.07,0,0,1-5.09-.55c-4.47-1.66-8.83-.68-16.8-.41l-.83,0"></path><path class="cls-2" d="M428.92,301.09a15.85,15.85,0,0,1-4.34-.65c-3.2-1.19-6.3-1-11-.68-1.65.11-3.52.23-5.62.3l-.82,0a.5.5,0,0,1-.52-.49.51.51,0,0,1,.49-.51l.82,0c2.08-.07,3.94-.19,5.58-.3,4.66-.3,8-.52,11.41.74a13.68,13.68,0,0,0,4.83.53,3.46,3.46,0,0,0,2-1.26,8.83,8.83,0,0,1,2.69-2,10.24,10.24,0,0,1,2.6-.85c.7-.14,1-.21,1.34-.65s.36-1,.27-2.69c0-.57-.06-1.25-.09-2.1,0-1.2,0-2.42,0-3.62l-2.27-1.71a.51.51,0,0,1-.2-.4v-3.32a1.48,1.48,0,0,0-1.29.09c-.28.19-.38,1.4-.46,2.38a.5.5,0,0,1-.43.45l-1.79.28a.52.52,0,0,1-.57-.43l-.26-2c-.24-.51-.53-.63-1.2-.7a.68.68,0,0,0-.56.24,1.84,1.84,0,0,0-.43,1.51.51.51,0,0,1-.27.5.52.52,0,0,1-.57-.09c-.82-.76-1.33-.94-1.54-.86s-.46.71-.68,1.41a15.15,15.15,0,0,1-.84,2.2,4.77,4.77,0,0,1-1.73,1.6c-1.37.72-2.32.36-3.53-.1a13.06,13.06,0,0,0-4.62-1l-.6,0a9.85,9.85,0,0,0-6.12,1.25.5.5,0,0,1-.49-.87,10.83,10.83,0,0,1,6.67-1.38l.58,0A14.4,14.4,0,0,1,420.3,287c1.16.44,1.74.66,2.7.15a3.64,3.64,0,0,0,1.3-1.15,15,15,0,0,0,.79-2.07c.31-1,.55-1.75,1.27-2a1.93,1.93,0,0,1,1.8.42,2.47,2.47,0,0,1,.66-1.26,1.73,1.73,0,0,1,1.38-.53,2.16,2.16,0,0,1,2,1.36.65.65,0,0,1,0,.13l.21,1.56.89-.14c.12-1.35.25-2.32.88-2.74a2.56,2.56,0,0,1,2.58,0,.51.51,0,0,1,.26.44v3.4l2.28,1.71a.49.49,0,0,1,.2.42c0,1.27,0,2.56,0,3.82,0,.84.06,1.52.09,2.08.09,1.78.13,2.52-.46,3.33a2.69,2.69,0,0,1-1.95,1,9.26,9.26,0,0,0-2.37.77,8,8,0,0,0-2.41,1.8,4.32,4.32,0,0,1-2.54,1.54A5.74,5.74,0,0,1,428.92,301.09Z"></path><path class="cls-2" d="M434.09,298a.51.51,0,0,1-.37-.15.5.5,0,0,1,0-.71c2-1.92,2.14-5.57,2.28-10.19,0-.72,0-1.47.07-2.24a.48.48,0,0,1,.52-.48.51.51,0,0,1,.48.52c0,.77,0,1.51-.07,2.23-.15,4.85-.26,8.68-2.59,10.89A.5.5,0,0,1,434.09,298Z"></path><path class="cls-2" d="M428.83,296.2a.5.5,0,0,1-.32-.88c3.76-3.15,4.46-4.29,4.83-11.49a.47.47,0,0,1,.52-.47.5.5,0,0,1,.48.52c-.37,7.22-1,8.7-5.19,12.21A.52.52,0,0,1,428.83,296.2Z"></path><path class="cls-2" d="M428.83,296.2a.5.5,0,0,1-.32-.88c2.9-2.43,2.91-3.44,2.94-7.2,0-1.07,0-2.4.1-4a.47.47,0,0,1,.52-.48.51.51,0,0,1,.48.53c-.08,1.59-.09,2.91-.1,4,0,3.91,0,5.23-3.3,8A.52.52,0,0,1,428.83,296.2Z"></path><path class="cls-2" d="M422.78,295a.49.49,0,0,1-.45-.28.51.51,0,0,1,.22-.67c5.26-2.62,5.31-4.1,5.43-8.07,0-.8,0-1.69.13-2.7a.49.49,0,0,1,.53-.46.49.49,0,0,1,.46.53c-.07,1-.1,1.87-.12,2.66-.13,4-.19,6.05-6,8.94A.59.59,0,0,1,422.78,295Z"></path><path class="cls-2" d="M420.58,289.82a5.08,5.08,0,0,1-2.87-1.29,6.79,6.79,0,0,0-3.87-1.67.51.51,0,0,1-.47-.53.46.46,0,0,1,.52-.47,7.79,7.79,0,0,1,4.41,1.87c1.8,1.32,2.89,2.12,6.06-1.84a.5.5,0,0,1,.78.62C423.18,289,421.81,289.82,420.58,289.82Z"></path><path class="cls-2" d="M407.35,289.82a.53.53,0,0,1-.27-.08.51.51,0,0,1-.16-.69l.79-1.24a.5.5,0,1,1,.84.54l-.78,1.24A.49.49,0,0,1,407.35,289.82Z"></path></g><g id="torso"><path class="cls-6" d="M369.94,232.07c1-5.73,2.62-21.32-6.39-33.42-9.87-13.26-27-15.31-40.21-16.89a92.75,92.75,0,0,0-23.87.37c-16.46,2-30.59,3.8-39.85,14.5-8.92,10.32-9.05,25-8.45,32.22,7,.43,21.12.29,21.12.29l3.12,62.8h71.07q2.11-29.65,4.22-59.31C357.07,232.26,363.57,232.44,369.94,232.07Z"></path><path class="cls-2" d="M313.11,181.15a84.91,84.91,0,0,1,10.23.61c13.2,1.58,30.34,3.63,40.21,16.89,9,12.1,7.39,27.69,6.39,33.42-6.37.37-12.87.19-19.24.56q-2.11,29.66-4.22,59.31H275.41l-3.12-62.8s-2.26,0-5.41,0c-4.73,0-11.49,0-15.71-.31-.6-7.22-.47-21.9,8.45-32.22,9.26-10.7,23.39-12.46,39.85-14.5a104.81,104.81,0,0,1,13.64-1m0-1a105.8,105.8,0,0,0-13.77,1c-16.61,2.06-31,3.85-40.48,14.84-9.08,10.5-9.34,25.15-8.68,33a1,1,0,0,0,.93.92c4.21.26,10.9.31,15.77.31l4.46,0L274.41,292a1,1,0,0,0,1,.95h71.07a1,1,0,0,0,1-.93L350,257.13l1.68-23.55c2.88-.15,5.83-.19,8.69-.23,3.18,0,6.46-.09,9.66-.28a1,1,0,0,0,.93-.82c1.08-6.18,2.6-21.89-6.56-34.19-10.14-13.61-27.92-15.74-40.9-17.29a87.76,87.76,0,0,0-10.35-.62Z"></path><path class="cls-2" d="M351.13,233.81h-.05a.51.51,0,0,1-.45-.55l.54-5.45a.53.53,0,0,1,.55-.45.52.52,0,0,1,.45.55l-.54,5.45A.51.51,0,0,1,351.13,233.81Z"></path><path class="cls-2" d="M271.84,230.42a.5.5,0,0,1-.5-.47l-.3-5.35a.51.51,0,0,1,.47-.53.5.5,0,0,1,.53.47l.3,5.35a.49.49,0,0,1-.47.53Z"></path></g><g id="neck"><path class="cls-5" d="M310.51,189.52h-.66a20.83,20.83,0,0,1-14.9-7.24.51.51,0,0,1,0-.63l4.17-5.56V159.5a.5.5,0,0,1,.5-.5h22a.5.5,0,0,1,.5.5v16.79l3.6,5.86a.56.56,0,0,1,0,.63A21.17,21.17,0,0,1,310.51,189.52Z"></path><path class="cls-2" d="M321.58,159.5v16.94l3.69,6A20.58,20.58,0,0,1,310.52,189h-.65a20.42,20.42,0,0,1-14.54-7.07q2.15-2.83,4.28-5.69V159.5h22m0-1h-22a1,1,0,0,0-1,1v16.42l-1.43,1.9-2.64,3.52a1,1,0,0,0,0,1.25A21.34,21.34,0,0,0,309.84,190h.68a21.79,21.79,0,0,0,15.5-6.9,1,1,0,0,0,.11-1.19l-3.55-5.78V159.5a1,1,0,0,0-1-1Z"></path></g><g id="ears"><path class="cls-5" d="M294,155.26a5.16,5.16,0,0,1-1.66-.27,6,6,0,0,1-3.26-3c-.41-.69-2.36-4.23-.65-6.9a4.78,4.78,0,0,1,4-2.13,6,6,0,0,1,1.46.19h.32a4.12,4.12,0,0,1,4.12,3.73l.37,3.71a4.15,4.15,0,0,1-3.71,4.54,5.65,5.65,0,0,1-1,.1Z"></path><path class="cls-2" d="M292.52,143.5a5,5,0,0,1,1.41.2h0l.37,0a3.64,3.64,0,0,1,3.62,3.28l.38,3.71a3.65,3.65,0,0,1-3.27,4h0a4.88,4.88,0,0,1-1,.1,4.81,4.81,0,0,1-1.5-.24,5.64,5.64,0,0,1-3-2.75c-.22-.36-2.25-3.88-.65-6.37a4.34,4.34,0,0,1,1.4-1.32,4.44,4.44,0,0,1,2.23-.58m0-1a5.33,5.33,0,0,0-2.73.72,5.17,5.17,0,0,0-1.74,1.64c-1.87,2.92.2,6.7.63,7.42a6.54,6.54,0,0,0,3.55,3.18,5.54,5.54,0,0,0,1.81.3,6.29,6.29,0,0,0,1.14-.11,4.65,4.65,0,0,0,4.11-5.08l-.37-3.71a4.64,4.64,0,0,0-4.62-4.18H294a6.29,6.29,0,0,0-1.5-.19Z"></path><path class="cls-5" d="M327.15,155.26a5.74,5.74,0,0,1-1.08-.11,4.05,4.05,0,0,1-2.75-1.5,4.1,4.1,0,0,1-.92-3l.38-3.71a4.12,4.12,0,0,1,4.12-3.73h.32a6,6,0,0,1,1.45-.19,4.78,4.78,0,0,1,4.06,2.13c1.75,2.73-.4,6.48-.65,6.9a6,6,0,0,1-3.27,3A5.07,5.07,0,0,1,327.15,155.26Z"></path><path class="cls-2" d="M328.67,143.5a4.45,4.45,0,0,1,2.24.58,4.34,4.34,0,0,1,1.4,1.32c1.6,2.49-.44,6-.66,6.37a5.62,5.62,0,0,1-3,2.75,4.82,4.82,0,0,1-1.51.24,5,5,0,0,1-1-.1h0a3.65,3.65,0,0,1-3.26-4l.37-3.71a3.65,3.65,0,0,1,3.63-3.28l.37,0h0a5,5,0,0,1,1.4-.2m0-1h0a6.21,6.21,0,0,0-1.49.19h-.28a4.63,4.63,0,0,0-4.62,4.18l-.37,3.71a4.64,4.64,0,0,0,4.11,5.08,6.27,6.27,0,0,0,1.13.11,5.56,5.56,0,0,0,1.82-.3,6.54,6.54,0,0,0,3.54-3.17c.44-.73,2.51-4.51.64-7.43a5.28,5.28,0,0,0-1.74-1.64,5.34,5.34,0,0,0-2.74-.72Z"></path></g><g id="head"><path class="cls-5" d="M310.6,171.8a17.54,17.54,0,0,1-17.52-17.52V133.87a17.52,17.52,0,1,1,35,0v20.41A17.54,17.54,0,0,1,310.6,171.8Z"></path><path class="cls-2" d="M310.6,116.85a17,17,0,0,1,17,17v20.41a17,17,0,0,1-17,17h0a17,17,0,0,1-17-17V133.87a17,17,0,0,1,17-17h0m0-1a18,18,0,0,0-18,18v20.41a18,18,0,1,0,36,0V133.87a18,18,0,0,0-18-18Z"></path><path class="cls-2" d="M291.62,142.85a.51.51,0,0,1-.3-.1.48.48,0,0,1-.2-.4v-8.63a17.39,17.39,0,0,1,17.37-17.37h4.22a17.39,17.39,0,0,1,17.37,17.37v8.63a.51.51,0,0,1-.21.41.52.52,0,0,1-.29.09.51.51,0,0,1-.17,0,10.41,10.41,0,0,1-2.94-1.64c-4.93-4-4.5-11.58-4.08-14.68a18.18,18.18,0,0,1-8.55,3.26,18.39,18.39,0,0,1-2,.11,18.58,18.58,0,0,1-6.12-1.06,5.29,5.29,0,0,1-3.43,5.54.57.57,0,0,1-.18,0,.47.47,0,0,1-.28-.09.48.48,0,0,1-.22-.41,6.16,6.16,0,0,0-1.33-3.82,6,6,0,0,0-1.74-1.46c.31,2.57.64,9.33-3.91,12.77a9,9,0,0,1-2.91,1.46Z"></path><path class="cls-2" d="M312.71,116.85a16.87,16.87,0,0,1,16.87,16.87v8.63a9.79,9.79,0,0,1-2.79-1.56c-5.75-4.64-3.9-14.48-3.7-15.45a17.9,17.9,0,0,1-9.3,3.93,18.13,18.13,0,0,1-1.91.1,17.85,17.85,0,0,1-6.77-1.34,4.81,4.81,0,0,1-3,5.85,6.66,6.66,0,0,0-1.44-4.13,6.58,6.58,0,0,0-2.76-2c.13.68,1.58,9.31-3.58,13.22a8.38,8.38,0,0,1-2.75,1.38v-8.63a16.87,16.87,0,0,1,16.87-16.87h4.22m0-1h-4.22a17.89,17.89,0,0,0-17.87,17.87v8.63a1,1,0,0,0,.4.8,1,1,0,0,0,.6.2.9.9,0,0,0,.28,0,9.53,9.53,0,0,0,3.07-1.54c4.2-3.18,4.43-9,4.21-12.15a4.92,4.92,0,0,1,.75.76,5.61,5.61,0,0,1,1.22,3.5,1,1,0,0,0,1,1,1,1,0,0,0,.35-.06,5.88,5.88,0,0,0,3-2.5,5.71,5.71,0,0,0,.79-2.81,18.75,18.75,0,0,0,5.6.86,19.53,19.53,0,0,0,2-.11,18.49,18.49,0,0,0,7.87-2.75c-.33,3.62-.23,10.33,4.39,14a10.8,10.8,0,0,0,3.08,1.73,1,1,0,0,0,.34.06,1,1,0,0,0,1-1v-8.63a17.89,17.89,0,0,0-17.87-17.87Z"></path></g><g id="nose"><path class="cls-2" d="M310.47,155.22a4.85,4.85,0,0,1-3-1,.5.5,0,1,1,.61-.79,3.87,3.87,0,0,0,2.35.81h0a4,4,0,0,0,2.43-.89.49.49,0,0,1,.7.06.51.51,0,0,1-.06.71,4.9,4.9,0,0,1-3.07,1.12Z"></path></g><g id="eyes"><path class="cls-2" d="M318,147.2a8.07,8.07,0,0,1-3.89-1,.5.5,0,1,1,.48-.87,7.21,7.21,0,0,0,4,.86,7,7,0,0,0,3.43-1.29.5.5,0,0,1,.58.81,8,8,0,0,1-3.92,1.47C318.46,147.18,318.22,147.2,318,147.2Z"></path><path class="cls-2" d="M303.21,147.2c-.23,0-.47,0-.71,0a7.92,7.92,0,0,1-3.92-1.47.49.49,0,0,1-.12-.69.5.5,0,0,1,.7-.12,6.91,6.91,0,0,0,7.45.43.5.5,0,0,1,.68.19.49.49,0,0,1-.19.68A8.11,8.11,0,0,1,303.21,147.2Z"></path></g><g id="mouth"><path class="cls-2" d="M311,161.86h-.48a28.36,28.36,0,0,1-5.21-.57.48.48,0,0,1-.39-.58.5.5,0,0,1,.58-.4,27.37,27.37,0,0,0,5,.55,28.13,28.13,0,0,0,5.26-.41.5.5,0,0,1,.17,1A28.48,28.48,0,0,1,311,161.86Z"></path></g><g id="brows"><path class="cls-2" d="M322.88,140.43h-.06a41.41,41.41,0,0,0-4.72-.31,42.17,42.17,0,0,0-4.35.17.5.5,0,0,1-.55-.45.5.5,0,0,1,.46-.54,41.18,41.18,0,0,1,4.45-.18,43.2,43.2,0,0,1,4.83.32.5.5,0,0,1-.06,1Z"></path><path class="cls-2" d="M298.31,140.43a.5.5,0,0,1-.06-1,43.54,43.54,0,0,1,4.84-.32,41.18,41.18,0,0,1,4.45.18.48.48,0,0,1,.45.54.49.49,0,0,1-.54.45,42,42,0,0,0-4.35-.17,41.26,41.26,0,0,0-4.72.31Z"></path></g><g id="logos"><g id="Layer_1-2" data-name="Layer_1"><g id="_26257872464" data-name=" 26257872464"><g id="path5"><path class="cls-7" d="M328.9,217c2-.33,4.08-.61,6.09-.9v5.35c-2,0-4.07,0-6.09,0V217Z"></path><path class="cls-8" d="M328.9,221.56h-.1v-4.67l.09,0c1.76-.28,3.58-.54,5.33-.79l.87-.13v5.57H335l-3,0Zm.1-4.5v4.3l2.95,0,2.94,0v-5.14l-.64.09C332.52,216.52,330.74,216.77,329,217.06Z"></path></g><g id="path7"><path class="cls-7" d="M323.76,217.67c1.52-.24,3.05-.45,4.61-.62v4.41c-1.56,0-3.09,0-4.61,0v-3.83Z"></path><path class="cls-8" d="M323.76,221.6h-.1v-4l.09,0c1.56-.25,3.07-.45,4.61-.61l.11,0v4.62h-.1l-2.33,0Zm.1-3.84v3.64l2.17,0,2.24,0v-4.19C326.8,217.32,325.36,217.52,323.86,217.76Z"></path></g><g id="path29"><path class="cls-7" d="M323.76,222c1.52,0,3.05,0,4.61,0v4.44l-4.61-.61Z"></path><path class="cls-8" d="M328.47,226.51l-.11,0c-1.57-.2-3.09-.41-4.61-.62h-.09v-4h1.62c1,0,2.05,0,3.09,0h.1Zm-4.61-.82,4.41.59v-4.23c-1,0-2,0-3,0h-1.42Z"></path></g><g id="path31"><path class="cls-7" d="M328.9,222H335v5.35c-2-.33-4.07-.58-6.09-.86V222Z"></path><path class="cls-8" d="M335.09,227.46l-.12,0c-1.31-.22-2.66-.4-4-.58l-2.11-.29h-.09v-4.67h6.29ZM329,226.39l2,.28c1.27.17,2.58.35,3.86.55v-5.13H329Z"></path></g></g></g><path class="cls-9" d="M331.15,239.66h-.5l-.27,1.41h.44a1.07,1.07,0,0,0,.66-.17.91.91,0,0,0,.3-.56.66.66,0,0,0-.07-.53A.77.77,0,0,0,331.15,239.66Z"></path><path class="cls-8" d="M330.82,241.17h-.57l.32-1.61h.58a.8.8,0,0,1,.63.19.66.66,0,0,1,.09.61.93.93,0,0,1-.33.62A1.13,1.13,0,0,1,330.82,241.17Zm-.32-.2h.32a1,1,0,0,0,.6-.15.82.82,0,0,0,.26-.5.53.53,0,0,0-.05-.44c-.05,0-.17-.12-.48-.12h-.42Z"></path><path class="cls-9" d="M325.43,239.66h-.5l-.27,1.41h.44a1.07,1.07,0,0,0,.66-.17.86.86,0,0,0,.29-.56.62.62,0,0,0-.06-.53A.77.77,0,0,0,325.43,239.66Z"></path><path class="cls-8" d="M325.1,241.17h-.57l.32-1.61h.58a.8.8,0,0,1,.63.19.66.66,0,0,1,.09.61.93.93,0,0,1-.33.62A1.13,1.13,0,0,1,325.1,241.17Zm-.32-.2h.32a1,1,0,0,0,.6-.15.82.82,0,0,0,.26-.5.53.53,0,0,0,0-.44c-.05,0-.17-.12-.48-.12H325Z"></path><path class="cls-9" d="M328.09,237.26c-3.53,0-6.39,1.5-6.39,3.35s2.86,3.36,6.39,3.36,6.38-1.5,6.38-3.36S331.61,237.26,328.09,237.26Zm-1.74,4a1.23,1.23,0,0,1-.49.29,2.15,2.15,0,0,1-.68.09h-.63l-.17.89h-.73l.65-3.36h1.41a1.2,1.2,0,0,1,.93.33,1.08,1.08,0,0,1,.17.94,1.42,1.42,0,0,1-.16.45A1.74,1.74,0,0,1,326.35,241.22Zm2.19.38.28-1.49a.39.39,0,0,0,0-.35.53.53,0,0,0-.37-.09h-.58l-.37,1.93h-.73l.65-3.37h.73l-.17.9h.65a1.29,1.29,0,0,1,.84.21.72.72,0,0,1,.14.69l-.31,1.57Zm4-1.2a1.42,1.42,0,0,1-.16.45,1.48,1.48,0,0,1-.3.37,1.23,1.23,0,0,1-.49.29,2.11,2.11,0,0,1-.68.09h-.63l-.17.89h-.73l.65-3.36h1.41a1.2,1.2,0,0,1,.93.33A1.08,1.08,0,0,1,332.53,240.4Z"></path><path class="cls-8" d="M328.08,244.07c-3.57,0-6.48-1.55-6.48-3.46s2.91-3.45,6.48-3.45,6.49,1.55,6.49,3.45S331.66,244.07,328.08,244.07Zm0-6.71c-3.46,0-6.28,1.46-6.28,3.25s2.82,3.26,6.28,3.26,6.29-1.46,6.29-3.26S331.55,237.36,328.08,237.36Zm2.1,5.23h-.93l0-.11.67-3.45h1.49a1.24,1.24,0,0,1,1,.37,1.13,1.13,0,0,1,.2,1h0a1.58,1.58,0,0,1-.17.49,1.66,1.66,0,0,1-.32.39,1.29,1.29,0,0,1-.52.32,2.43,2.43,0,0,1-.72.09h-.54Zm-.69-.19H330l.17-.9h.71a2.25,2.25,0,0,0,.65-.08,1.29,1.29,0,0,0,.45-.27,1.48,1.48,0,0,0,.28-.35,1.24,1.24,0,0,0,.15-.42h0a.91.91,0,0,0-.15-.85,1.07,1.07,0,0,0-.85-.3H330.1Zm-5,.19h-.94l0-.11.67-3.45h1.49a1.24,1.24,0,0,1,1,.37.9.9,0,0,1,.23.63l.37-1.89h.93l-.17.89h.53a1.36,1.36,0,0,1,.91.24.8.8,0,0,1,.17.78l-.32,1.65h-.95l.32-1.61c0-.19,0-.24,0-.26s-.07-.06-.29-.06h-.5l-.37,1.93h-.93l.18-.93-.06.13a1.66,1.66,0,0,1-.32.39,1.33,1.33,0,0,1-.53.32,2.32,2.32,0,0,1-.71.09h-.55Zm-.69-.19h.53l.17-.9h.71a2.35,2.35,0,0,0,.65-.08,1.29,1.29,0,0,0,.45-.27h0a1.48,1.48,0,0,0,.28-.35,1.5,1.5,0,0,0,.15-.42.94.94,0,0,0-.15-.85,1.07,1.07,0,0,0-.85-.3h-1.33Zm4.89-.9h.53l.29-1.48c.06-.29,0-.49-.11-.6a1.14,1.14,0,0,0-.77-.19h-.77l.17-.9h-.52l-.62,3.17h.53l.37-1.93h.66a.56.56,0,0,1,.44.13.48.48,0,0,1,.06.43Z"></path><path class="cls-7" d="M314.06,209a2.82,2.82,0,0,0,1.71,2.58,6.9,6.9,0,0,1-.88,1.81c-.53.78-1.08,1.55-1.95,1.56s-1.12-.5-2.1-.5-1.28.49-2.08.52-1.48-.84-2-1.61c-1.1-1.58-1.93-4.47-.81-6.41a3.12,3.12,0,0,1,2.63-1.6c.83,0,1.6.55,2.1.55s1.45-.68,2.44-.58a3,3,0,0,1,2.33,1.26,2.89,2.89,0,0,0-1.38,2.42m-1.6-4.72a2.76,2.76,0,0,0,.66-2,2.86,2.86,0,0,0-1.87,1,2.7,2.7,0,0,0-.68,2,2.39,2.39,0,0,0,1.89-.9"></path><path class="cls-7" d="M305.8,249.56a.21.21,0,0,0-.11-.18l-1.72-1a.17.17,0,0,0-.1,0h0a.17.17,0,0,0-.1,0l-1.72,1a.21.21,0,0,0-.11.18v2.67a.11.11,0,0,0,.05.09.09.09,0,0,0,.1,0l1-.59a.19.19,0,0,0,.1-.17v-1.25a.19.19,0,0,1,.11-.18l.43-.26a.22.22,0,0,1,.11,0,.16.16,0,0,1,.1,0l.44.26a.2.2,0,0,1,.1.18v1.25a.18.18,0,0,0,.11.17l1,.59a.11.11,0,0,0,.11,0,.11.11,0,0,0,.05-.09v-2.67Z"></path><path class="cls-8" d="M302,252.44a.19.19,0,0,1-.11,0,.19.19,0,0,1-.1-.17v-2.67a.32.32,0,0,1,.16-.27l1.72-1a.28.28,0,0,1,.15,0h0a.4.4,0,0,1,.13,0l1.73,1a.32.32,0,0,1,.16.27v2.67a.19.19,0,0,1-.11.18.18.18,0,0,1-.2,0l-1-.58a.3.3,0,0,1-.16-.26v-1.25a.12.12,0,0,0-.05-.1l-.44-.25a.09.09,0,0,0-.1,0l-.44.25a.11.11,0,0,0-.06.1v1.25a.31.31,0,0,1-.15.26l-1,.59A.17.17,0,0,1,302,252.44Zm1.83-2.69a.27.27,0,0,1,.16,0l.43.25a.33.33,0,0,1,.15.27v1.25a.11.11,0,0,0,.06.09l1,.58v-2.67a.1.1,0,0,0-.06-.09l-1.72-1-.06,0-.05,0-1.72,1a.1.1,0,0,0-.06.09v2.67l1-.58a.12.12,0,0,0,.05-.09v-1.25a.32.32,0,0,1,.16-.27l.43-.25A.29.29,0,0,1,303.87,249.75Z"></path><path class="cls-7" d="M314.09,245.89a.09.09,0,0,0-.1,0,.1.1,0,0,0-.05.08v2.65a.08.08,0,0,1,0,.07h-.07l-.43-.25a.2.2,0,0,0-.21,0l-1.73,1a.22.22,0,0,0-.1.18v2a.2.2,0,0,0,.1.18l1.73,1a.2.2,0,0,0,.21,0l1.72-1a.19.19,0,0,0,.11-.18v-5a.21.21,0,0,0-.11-.18l-1-.57Zm-.16,5.06s0,0,0,0l-.59.35h-.05l-.59-.35s0,0,0,0v-.68a0,0,0,0,1,0-.05l.59-.34h.05l.59.34s0,0,0,.05V251Z"></path><path class="cls-8" d="M313.29,252.91a.42.42,0,0,1-.15,0l-1.73-1a.33.33,0,0,1-.15-.27v-2a.29.29,0,0,1,.16-.26l1.72-1a.34.34,0,0,1,.31,0l.4.23V246a.21.21,0,0,1,.1-.18.18.18,0,0,1,.2,0h0l1,.57a.32.32,0,0,1,.16.27v5a.3.3,0,0,1-.16.27l-1.72,1A.42.42,0,0,1,313.29,252.91Zm0-4.4h-.05l-1.73,1a.12.12,0,0,0-.05.09v2a.12.12,0,0,0,.05.1l1.73,1a.11.11,0,0,0,.11,0l1.72-1a.11.11,0,0,0,.06-.1v-5a.1.1,0,0,0-.06-.09l-1-.58h0v2.65a.19.19,0,0,1-.08.15.21.21,0,0,1-.17,0l-.44-.26Zm0,2.93h-.07l-.59-.35a.13.13,0,0,1-.08-.13v-.68a.16.16,0,0,1,.08-.14l.59-.34a.17.17,0,0,1,.14,0l.6.34a.16.16,0,0,1,.07.14V251a.13.13,0,0,1-.08.13l-.58.34A.12.12,0,0,1,313.29,251.44Zm-.54-.52.54.32.54-.32v-.63l-.54-.31-.54.31Zm1.11,0h0Zm-1.14,0h0Zm1.14-.59h0Zm-1.13,0h0Z"></path><path class="cls-9" d="M309.78,249l-.44-.25a1.47,1.47,0,0,0-1.49,0l-.43.25a1.48,1.48,0,0,0-.75,1.29v.5a1.49,1.49,0,0,0,.75,1.3l.43.25a1.47,1.47,0,0,0,1.49,0l.44-.25a1.51,1.51,0,0,0,.75-1.3v-.5A1.5,1.5,0,0,0,309.78,249Z"></path><path class="cls-8" d="M308.6,252.67a1.59,1.59,0,0,1-.8-.21l-.43-.25a1.6,1.6,0,0,1-.8-1.39v-.5a1.6,1.6,0,0,1,.8-1.38l.43-.25a1.61,1.61,0,0,1,1.59,0l.44.25a1.61,1.61,0,0,1,.79,1.38v.5a1.62,1.62,0,0,1-.79,1.39l-.44.25A1.58,1.58,0,0,1,308.6,252.67Zm0-4a1.34,1.34,0,0,0-.7.19l-.44.25a1.38,1.38,0,0,0-.69,1.2v.5a1.39,1.39,0,0,0,.69,1.21l.44.25a1.38,1.38,0,0,0,1.39,0l.44-.25a1.4,1.4,0,0,0,.7-1.21v-.5a1.39,1.39,0,0,0-.7-1.2l-.44-.25A1.31,1.31,0,0,0,308.6,248.68Z"></path><path class="cls-7" d="M319.84,250.25a.22.22,0,0,0,.1-.18v-.48a.2.2,0,0,0-.1-.18l-1.72-1a.23.23,0,0,0-.2,0l-1.73,1a.21.21,0,0,0-.11.18v2a.21.21,0,0,0,.11.18l1.71,1a.26.26,0,0,0,.21,0l1-.58a.12.12,0,0,0,.05-.09.09.09,0,0,0-.05-.09l-1.74-1a.11.11,0,0,1-.05-.09v-.62a.11.11,0,0,1,.05-.09l.54-.31a.11.11,0,0,1,.11,0l.54.31a.11.11,0,0,1,0,.09v.49a.11.11,0,0,0,.06.09.09.09,0,0,0,.1,0l1-.6Z"></path><path class="cls-8" d="M318,252.86a.26.26,0,0,1-.15,0l-1.72-1a.32.32,0,0,1-.16-.27v-2a.32.32,0,0,1,.16-.27l1.73-1a.27.27,0,0,1,.3,0l1.72,1a.33.33,0,0,1,.15.27v.48a.33.33,0,0,1-.15.27l-1,.59a.2.2,0,0,1-.21,0,.19.19,0,0,1-.1-.17v-.49L318,250l-.55.31v.62l1.74,1a.22.22,0,0,1,.1.18.21.21,0,0,1-.11.18l-1,.57A.28.28,0,0,1,318,252.86Zm0-4.37H318l-1.72,1a.11.11,0,0,0-.06.09v2a.11.11,0,0,0,.06.09l1.71,1a.11.11,0,0,0,.11,0l1-.58-1.74-1a.22.22,0,0,1-.1-.18v-.62a.19.19,0,0,1,.11-.18l.53-.31a.2.2,0,0,1,.21,0l.54.3a.22.22,0,0,1,.1.18v.49l1-.6a.11.11,0,0,0,0-.09v-.48a.12.12,0,0,0,0-.1l-1.72-1Z"></path><path class="cls-7" d="M318,250.16h0l.33.19s0,0,0,0v.39s0,0,0,0L318,251h0l-.33-.19,0,0v-.39s0,0,0,0l.33-.19Z"></path><path class="cls-8" d="M318,251.1l-.07,0-.33-.19a.17.17,0,0,1-.07-.12v-.39a.14.14,0,0,1,.06-.11l.34-.2a.14.14,0,0,1,.15,0l.32.19a.13.13,0,0,1,.07.12v.39a.14.14,0,0,1-.06.12l-.34.19Zm0-.19Zm.06,0h0Zm-.3-.17.27.16.27-.16v-.31l-.27-.16-.27.16Zm.24-.49h0Z"></path><g id="path80319"><path class="cls-7" d="M296.29,220.39l1.11-1.93a.24.24,0,0,0-.08-.31.23.23,0,0,0-.31.09l-1.13,1.95a7.06,7.06,0,0,0-5.74,0L289,218.24a.23.23,0,0,0-.31-.09.22.22,0,0,0-.08.31l1.11,1.93a6.66,6.66,0,0,0-3.44,5.26h13.42A6.63,6.63,0,0,0,296.29,220.39Zm-6.36,3.37a.56.56,0,0,1,0-1.12.56.56,0,1,1,0,1.12Zm6.16,0a.56.56,0,0,1,0-1.12.56.56,0,1,1,0,1.12Z"></path></g><g id="path1948"><path class="cls-7" d="M293.28,235.78a7.24,7.24,0,0,0-1.1.1c-1,.17-1.15.53-1.15,1.2V238h2.3v.29h-3.17a1.45,1.45,0,0,0-1.44,1.17,4.32,4.32,0,0,0,0,2.34c.17.68.56,1.17,1.23,1.17h.79v-1a1.46,1.46,0,0,1,1.44-1.43h2.3a1.16,1.16,0,0,0,1.15-1.17v-2.19a1.28,1.28,0,0,0-1.15-1.2A7,7,0,0,0,293.28,235.78Zm-1.25.71a.44.44,0,1,1-.43.44A.44.44,0,0,1,292,236.49Z"></path><path class="cls-8" d="M290.84,243H290c-.66,0-1.13-.44-1.32-1.25a4.37,4.37,0,0,1,0-2.38,1.52,1.52,0,0,1,1.53-1.24h3.07v-.1h-2.3v-1c0-.69.19-1.11,1.23-1.29a6.6,6.6,0,0,1,1.12-.09,7,7,0,0,1,1.21.09,1.38,1.38,0,0,1,1.24,1.29v2.2a1.26,1.26,0,0,1-1.25,1.27h-2.3a1.36,1.36,0,0,0-1.34,1.33Zm-.68-4.68a1.35,1.35,0,0,0-1.34,1.1,4.24,4.24,0,0,0,0,2.29c.12.5.41,1.09,1.13,1.09h.69v-.95a1.55,1.55,0,0,1,1.54-1.53h2.3a1.06,1.06,0,0,0,1-1.07v-2.2a1.2,1.2,0,0,0-1.07-1.09,5.82,5.82,0,0,0-1.18-.1,7.09,7.09,0,0,0-1.08.1c-.92.16-1.07.47-1.07,1.09v.78h2.3v.49Zm1.87-.87a.54.54,0,0,1,0-1.08.54.54,0,0,1,0,1.08Zm0-.88a.34.34,0,0,0,0,.68.34.34,0,0,0,0-.68Z"></path></g><g id="path1950"><path class="cls-7" d="M295.92,238.24v1a1.48,1.48,0,0,1-1.44,1.46h-2.3A1.17,1.17,0,0,0,291,241.9v2.19c0,.62.54,1,1.15,1.17a3.91,3.91,0,0,0,2.3,0c.58-.17,1.15-.51,1.15-1.17v-.88h-2.3v-.29h3.45c.67,0,.92-.47,1.15-1.17a4,4,0,0,0,0-2.34c-.17-.66-.48-1.17-1.15-1.17Zm-1.3,5.56a.44.44,0,1,1-.43.43A.43.43,0,0,1,294.62,243.8Z"></path><path class="cls-8" d="M293.32,245.53a4.06,4.06,0,0,1-1.17-.18c-.79-.23-1.22-.68-1.22-1.26V241.9a1.27,1.27,0,0,1,1.25-1.27h2.3a1.38,1.38,0,0,0,1.33-1.36v-1.12h1c.63,0,1,.4,1.25,1.24a4,4,0,0,1,0,2.39c-.21.65-.47,1.24-1.24,1.24h-3.35v.09h2.3v1c0,.6-.42,1-1.23,1.26A4.08,4.08,0,0,1,293.32,245.53Zm-1.14-4.7a1.07,1.07,0,0,0-1.05,1.07v2.19c0,.66.67.95,1.08,1.07a3.72,3.72,0,0,0,2.24,0c.72-.21,1.08-.57,1.08-1.07v-.78h-2.3v-.49h3.55c.58,0,.81-.37,1.06-1.1a3.84,3.84,0,0,0,0-2.28c-.18-.75-.52-1.1-1.05-1.1H296v.93a1.58,1.58,0,0,1-1.54,1.56Zm2.44,3.94a.54.54,0,0,1,0-1.07.54.54,0,0,1,0,1.07Zm0-.87a.34.34,0,0,0,0,.67.34.34,0,0,0,0-.67Z"></path></g><path class="cls-7" d="M312.75,220.46a2.06,2.06,0,0,1,.42,1.71,4,4,0,0,1-.93,1.77,8.78,8.78,0,0,1-1.17,1.11,4.61,4.61,0,0,0-1.27,1.37,1.79,1.79,0,0,0-.15,1.48c.29.84,1,1.46,1.33,2.25-.4-.36-.8-.73-1.17-1.12a5.54,5.54,0,0,1-1-1.37,1.7,1.7,0,0,1-.11-1.17,2.76,2.76,0,0,1,.69-1c.78-.78,1.74-1.36,2.5-2.15a3.18,3.18,0,0,0,.89-1.56,3.09,3.09,0,0,0,0-1.32Z"></path><path class="cls-7" d="M312.11,225.37a8.73,8.73,0,0,1,2.8-1.3,15.06,15.06,0,0,0-2.28,1.6,2.12,2.12,0,0,0-.58.84,1,1,0,0,0,.05.75,9.41,9.41,0,0,0,.72,1.13,1.2,1.2,0,0,1,.08,1.09,3,3,0,0,1-1.14,1.19c-.06,0-.11.1-.19.1a1.53,1.53,0,0,0,.55-1.1,1.33,1.33,0,0,0-.4-.83A2.58,2.58,0,0,1,311,227a2.51,2.51,0,0,1,1.1-1.63Z"></path><path class="cls-7" d="M315.07,230.35a1.11,1.11,0,0,1,.74-.31,1.64,1.64,0,0,1,1.29.37,1.19,1.19,0,0,1,.38,1,1.84,1.84,0,0,1-.7,1.09,5.47,5.47,0,0,1-2.11,1,.88.88,0,0,1,.15-.12,5.24,5.24,0,0,0,1.55-1.17,1.38,1.38,0,0,0,.37-1.12,1.1,1.1,0,0,0-1-.85,2.46,2.46,0,0,0-.65.11Z"></path><path class="cls-7" d="M306.41,230.74a6.07,6.07,0,0,1,2.52-.54,9.74,9.74,0,0,0-1.5.49.64.64,0,0,0-.3.24c0,.09.06.15.13.18a3.18,3.18,0,0,0,.93.16,26.12,26.12,0,0,0,3.31,0c1.09-.07,2.16-.22,3.24-.39a5.77,5.77,0,0,0-.7.36,1,1,0,0,1-.38.13,19.38,19.38,0,0,1-4,.41c-.52,0-1,0-1.55,0a9.22,9.22,0,0,1-1.73-.23,1.15,1.15,0,0,1-.46-.22.14.14,0,0,1,0-.21,1.71,1.71,0,0,1,.52-.31Z"></path><path class="cls-7" d="M307.42,232.59a2.85,2.85,0,0,1,.76-.38c-.08.11-.2.21-.21.35s.07.16.14.2a1.21,1.21,0,0,0,.46.12,13.94,13.94,0,0,0,2.5.08,17.57,17.57,0,0,0,2.28-.3,2.51,2.51,0,0,0,.71.45,13.94,13.94,0,0,1-2.79.49,12,12,0,0,1-2.67-.08,3.55,3.55,0,0,1-1-.31.52.52,0,0,1-.32-.31.33.33,0,0,1,.16-.31Z"></path><path class="cls-7" d="M307.92,234.46a2.15,2.15,0,0,1,.69-.31c-.08.08-.22.17-.16.29a.86.86,0,0,0,.51.21,11.52,11.52,0,0,0,2.19.1c.56,0,1.1-.14,1.64-.23a8.52,8.52,0,0,0,1,.47,6.72,6.72,0,0,1-1.6.48,8.77,8.77,0,0,1-2.8,0,3.89,3.89,0,0,1-1.2-.37.72.72,0,0,1-.35-.34.33.33,0,0,1,.12-.34Z"></path><path class="cls-7" d="M305.53,235.69a4,4,0,0,1,1.23-.26,1,1,0,0,1,.48.09,3.68,3.68,0,0,0-1.45.39.51.51,0,0,0-.25.23c0,.14.16.18.25.22a8.21,8.21,0,0,0,1.95.38,34,34,0,0,0,5.88-.06,12.69,12.69,0,0,0,2.19-.37,1.19,1.19,0,0,0,.64-.35.31.31,0,0,0-.06-.38c.14.08.35.19.32.39s-.27.31-.44.41a7.2,7.2,0,0,1-1.76.55,24.49,24.49,0,0,1-5.34.37,30.26,30.26,0,0,1-4-.41,1.2,1.2,0,0,1-.67-.29c-.12-.13,0-.31.09-.4a2.7,2.7,0,0,1,1-.51Z"></path><path class="cls-7" d="M316.28,237.16a2.85,2.85,0,0,0,1.22-.66,1.21,1.21,0,0,1-.7.81,6.74,6.74,0,0,1-2,.58,24.44,24.44,0,0,1-4.36.26,17.47,17.47,0,0,1-3-.27,2.49,2.49,0,0,1-.69-.25,19.62,19.62,0,0,0,2.64.24,28.87,28.87,0,0,0,4.36-.19,15.31,15.31,0,0,0,2.49-.52Z"></path></g><g id="aa"><circle class="cls-10" cx="162.35" cy="212.61" r="29"></circle><path class="cls-11" d="M162.35,242.11a29.5,29.5,0,1,1,29.5-29.5A29.53,29.53,0,0,1,162.35,242.11Zm0-58a28.5,28.5,0,1,0,28.5,28.5A28.53,28.53,0,0,0,162.35,184.11Z"></path><path class="cls-5" d="M161.22,198.62a2.07,2.07,0,0,1,2.06,2.07v19.7a2.06,2.06,0,0,1-2.06,2.06H146.36a2.07,2.07,0,0,1-2.07-2.06V208.3l9.68-9.68Z"></path><path class="cls-2" d="M161.22,223H146.36a2.57,2.57,0,0,1-2.57-2.56V208.3a.47.47,0,0,1,.15-.35l9.68-9.68a.47.47,0,0,1,.35-.15h7.25a2.57,2.57,0,0,1,2.56,2.57v19.7A2.56,2.56,0,0,1,161.22,223Zm-16.43-14.44v11.88a1.56,1.56,0,0,0,1.57,1.56h14.86a1.56,1.56,0,0,0,1.56-1.56v-19.7a1.56,1.56,0,0,0-1.56-1.57h-7Z"></path><path class="cls-5" d="M154,198.62v6.94a2.74,2.74,0,0,1-2.74,2.74h-6.94Z"></path><path class="cls-2" d="M151.23,208.8h-6.94a.5.5,0,0,1-.46-.31.48.48,0,0,1,.11-.54l9.68-9.68a.48.48,0,0,1,.54-.11.5.5,0,0,1,.31.46v6.94A3.24,3.24,0,0,1,151.23,208.8Zm-5.73-1h5.73a2.24,2.24,0,0,0,2.24-2.24v-5.73Z"></path><path class="cls-2" d="M175.2,220.2a.57.57,0,0,1-.25-.06l-11.9-6.87a.52.52,0,0,1-.25-.44.5.5,0,0,1,.25-.43l11.9-6.87a.49.49,0,0,1,.68.18.51.51,0,0,1-.18.69l-11.15,6.43,11.15,6.44a.5.5,0,0,1-.25.93Z"></path><circle class="cls-5" cx="175.23" cy="219.77" r="2.67"></circle><path class="cls-2" d="M175.23,223a3.18,3.18,0,1,1,3.17-3.18A3.19,3.19,0,0,1,175.23,223Zm0-5.35a2.18,2.18,0,1,0,2.17,2.17A2.18,2.18,0,0,0,175.23,217.6Z"></path><circle class="cls-5" cx="175.23" cy="205.96" r="2.67"></circle><path class="cls-2" d="M175.23,209.14A3.18,3.18,0,1,1,178.4,206,3.19,3.19,0,0,1,175.23,209.14Zm0-5.35A2.18,2.18,0,1,0,177.4,206,2.18,2.18,0,0,0,175.23,203.79Z"></path><circle class="cls-5" cx="163.3" cy="212.87" r="2.67"></circle><path class="cls-2" d="M163.3,216a3.18,3.18,0,1,1,3.18-3.17A3.17,3.17,0,0,1,163.3,216Zm0-5.35a2.18,2.18,0,1,0,2.18,2.18A2.18,2.18,0,0,0,163.3,210.69Z"></path><path class="cls-2" d="M60.94,210.55H55.69l-1,2.43h-2l4.72-10.5h1.92L64,213H62ZM60.3,209l-2-4.59-2,4.59Z"></path><path class="cls-2" d="M64.24,212.19l.72-1.43a5.37,5.37,0,0,0,2.79.8c1.19,0,1.68-.33,1.68-.89,0-1.53-5-.09-5-3.28,0-1.52,1.37-2.51,3.53-2.51a6.45,6.45,0,0,1,3,.69L70.29,207a4.4,4.4,0,0,0-2.3-.6c-1.14,0-1.68.37-1.68.9,0,1.62,5,.18,5,3.31,0,1.5-1.38,2.48-3.63,2.48A6.38,6.38,0,0,1,64.24,212.19Z"></path><path class="cls-2" d="M72,212.19l.72-1.43a5.37,5.37,0,0,0,2.79.8c1.19,0,1.68-.33,1.68-.89,0-1.53-5-.09-5-3.28,0-1.52,1.37-2.51,3.53-2.51a6.45,6.45,0,0,1,3,.69L78.06,207a4.4,4.4,0,0,0-2.3-.6c-1.14,0-1.68.37-1.68.9,0,1.62,5,.18,5,3.31,0,1.5-1.38,2.48-3.63,2.48A6.38,6.38,0,0,1,72,212.19Z"></path><path class="cls-2" d="M80.44,202.53a1.15,1.15,0,0,1,1.2-1.13,1.12,1.12,0,0,1,1.2,1.08,1.2,1.2,0,0,1-2.4.05ZM80.7,205h1.87v8H80.7Z"></path><path class="cls-2" d="M84.16,212.19l.72-1.43a5.37,5.37,0,0,0,2.79.8c1.19,0,1.68-.33,1.68-.89,0-1.53-4.95-.09-4.95-3.28,0-1.52,1.37-2.51,3.53-2.51a6.45,6.45,0,0,1,3,.69L90.21,207a4.4,4.4,0,0,0-2.3-.6c-1.14,0-1.68.37-1.68.9,0,1.62,5,.18,5,3.31,0,1.5-1.38,2.48-3.63,2.48A6.38,6.38,0,0,1,84.16,212.19Z"></path><path class="cls-2" d="M97.66,212.55a2.94,2.94,0,0,1-1.8.54,2.46,2.46,0,0,1-2.76-2.7v-3.86H91.78V205H93.1V203.2H95V205h2.14v1.5H95v3.81c0,.78.39,1.2,1.11,1.2a1.67,1.67,0,0,0,1-.33Z"></path><path class="cls-2" d="M106.48,209.58H100.2a2.42,2.42,0,0,0,2.59,1.92,2.9,2.9,0,0,0,2.18-.87l1,1.15a4,4,0,0,1-3.22,1.31c-2.69,0-4.43-1.73-4.43-4.11a4,4,0,0,1,4.14-4.1,3.91,3.91,0,0,1,4.05,4.14C106.51,209.17,106.5,209.4,106.48,209.58Zm-6.3-1.25h4.55a2.19,2.19,0,0,0-2.27-2A2.22,2.22,0,0,0,100.18,208.33Z"></path><path class="cls-2" d="M116.2,201.85V213h-1.8v-1a3.31,3.31,0,0,1-2.65,1.14,4.11,4.11,0,0,1,0-8.21,3.3,3.3,0,0,1,2.58,1.08v-4.11ZM114.36,209a2.39,2.39,0,1,0-2.39,2.5A2.35,2.35,0,0,0,114.36,209Z"></path><path class="cls-2" d="M8.29,227.55H3L2,230H0l4.72-10.5H6.64L11.38,230h-2ZM7.65,226l-2-4.59-2,4.59Z"></path><path class="cls-2" d="M20.19,222v8H18.41v-1a3.28,3.28,0,0,1-2.58,1.13c-2.06,0-3.45-1.13-3.45-3.54V222h1.87v4.32c0,1.46.69,2.15,1.87,2.15s2.19-.81,2.19-2.42V222Z"></path><path class="cls-2" d="M27.51,229.55a3,3,0,0,1-1.8.54,2.46,2.46,0,0,1-2.76-2.7v-3.86H21.63V222H23V220.2h1.88V222H27v1.5H24.83v3.81c0,.78.38,1.2,1.1,1.2a1.65,1.65,0,0,0,1.05-.33Z"></path><path class="cls-2" d="M37,225.39V230H35.12v-4.35c0-1.42-.71-2.11-1.91-2.11A2.13,2.13,0,0,0,31,225.93v4H29.1V218.85H31v4.05a3.59,3.59,0,0,1,2.67-1C35.56,221.88,37,223,37,225.39Z"></path><path class="cls-2" d="M47,226.58H40.71a2.43,2.43,0,0,0,2.6,1.92,2.88,2.88,0,0,0,2.17-.87l1,1.15a4.06,4.06,0,0,1-3.23,1.31c-2.68,0-4.42-1.73-4.42-4.11a4,4,0,0,1,4.14-4.1A3.91,3.91,0,0,1,47,226C47,226.17,47,226.4,47,226.58Zm-6.3-1.25h4.54a2.18,2.18,0,0,0-2.26-2A2.21,2.21,0,0,0,40.7,225.33Z"></path><path class="cls-2" d="M56.76,225.39V230H54.89v-4.35c0-1.42-.71-2.11-1.91-2.11a2.12,2.12,0,0,0-2.23,2.41v4H48.87v-8h1.79v1a3.46,3.46,0,0,1,2.76-1.13C55.33,221.88,56.76,223,56.76,225.39Z"></path><path class="cls-2" d="M64,229.55a3,3,0,0,1-1.8.54,2.46,2.46,0,0,1-2.76-2.7v-3.86H58.13V222h1.32V220.2h1.87V222h2.15v1.5H61.32v3.81c0,.78.39,1.2,1.11,1.2a1.65,1.65,0,0,0,1-.33Z"></path><path class="cls-2" d="M65.34,219.53a1.15,1.15,0,0,1,1.2-1.13,1.12,1.12,0,0,1,1.2,1.08,1.2,1.2,0,0,1-2.4.05ZM65.6,222h1.87v8H65.6Z"></path><path class="cls-2" d="M69.32,226a4.06,4.06,0,0,1,4.33-4.1,3.61,3.61,0,0,1,3.42,1.86l-1.44.84a2.28,2.28,0,0,0-2-1.11,2.51,2.51,0,0,0,0,5,2.25,2.25,0,0,0,2-1.11l1.44.84a3.64,3.64,0,0,1-3.42,1.88A4.06,4.06,0,0,1,69.32,226Z"></path><path class="cls-2" d="M85.44,225.29V230H83.67v-1a2.84,2.84,0,0,1-2.52,1.08c-1.83,0-3-1-3-2.4s.9-2.39,3.33-2.39h2.07v-.12c0-1.09-.66-1.74-2-1.74a3.94,3.94,0,0,0-2.43.8l-.73-1.37a5.62,5.62,0,0,1,3.39-1C84.11,221.88,85.44,223,85.44,225.29Zm-1.87,2.19v-.93H81.63c-1.27,0-1.62.48-1.62,1.06s.57,1.11,1.53,1.11A2.05,2.05,0,0,0,83.57,227.48Z"></path><path class="cls-2" d="M92.7,229.55a2.94,2.94,0,0,1-1.8.54,2.46,2.46,0,0,1-2.76-2.7v-3.86H86.82V222h1.32V220.2H90V222h2.14v1.5H90v3.81c0,.78.39,1.2,1.11,1.2a1.67,1.67,0,0,0,1.05-.33Z"></path><path class="cls-2" d="M94,219.53a1.15,1.15,0,0,1,1.2-1.13,1.12,1.12,0,0,1,1.2,1.08,1.15,1.15,0,0,1-1.2,1.17A1.14,1.14,0,0,1,94,219.53Zm.25,2.44h1.88v8H94.29Z"></path><path class="cls-2" d="M98,226a4.27,4.27,0,1,1,4.26,4.11A4,4,0,0,1,98,226Zm6.65,0a2.38,2.38,0,1,0-2.39,2.5A2.34,2.34,0,0,0,104.66,226Z"></path><path class="cls-2" d="M116.28,225.39V230h-1.87v-4.35c0-1.42-.71-2.11-1.91-2.11a2.12,2.12,0,0,0-2.23,2.41v4h-1.88v-8h1.79v1a3.46,3.46,0,0,1,2.76-1.13C114.86,221.88,116.28,223,116.28,225.39Z"></path></g><g id="cs"><circle class="cls-12" cx="456.97" cy="212.61" r="29"></circle><path class="cls-2" d="M457,242.11a29.5,29.5,0,1,1,29.5-29.5A29.53,29.53,0,0,1,457,242.11Zm0-58a28.5,28.5,0,1,0,28.5,28.5A28.53,28.53,0,0,0,457,184.11Z"></path><rect class="cls-5" x="443.51" y="199.14" width="26.93" height="26.93" rx="11.14"></rect><path class="cls-2" d="M459.29,226.57h-4.64A11.65,11.65,0,0,1,443,214.93v-4.64a11.65,11.65,0,0,1,11.64-11.64h4.64a11.65,11.65,0,0,1,11.64,11.64v4.64A11.65,11.65,0,0,1,459.29,226.57Zm-4.64-26.92A10.65,10.65,0,0,0,444,210.29v4.64a10.65,10.65,0,0,0,10.64,10.64h4.64a10.65,10.65,0,0,0,10.64-10.64v-4.64a10.65,10.65,0,0,0-10.64-10.64Z"></path><path class="cls-2" d="M454.9,218.29a.43.43,0,0,1-.19,0,.51.51,0,0,1-.28-.65l4.15-10.36a.5.5,0,1,1,.92.38L455.36,218A.49.49,0,0,1,454.9,218.29Z"></path><path class="cls-2" d="M461.63,216.22a.5.5,0,0,1-.32-.88l3.18-2.73-3.18-2.73a.49.49,0,0,1-.06-.7.51.51,0,0,1,.71-.06l3.62,3.11a.49.49,0,0,1,.18.38.53.53,0,0,1-.18.38L462,216.1A.52.52,0,0,1,461.63,216.22Z"></path><path class="cls-2" d="M452.31,216.22a.52.52,0,0,1-.33-.12L448.36,213a.53.53,0,0,1-.18-.38.49.49,0,0,1,.18-.38l3.62-3.11a.51.51,0,0,1,.71.06.49.49,0,0,1-.06.7l-3.18,2.73,3.18,2.73a.5.5,0,0,1-.32.88Z"></path><path class="cls-2" d="M495.68,205.29a5.68,5.68,0,0,1,9.78-3.65l-1.26,1.19a3.66,3.66,0,0,0-2.8-1.23,3.69,3.69,0,1,0,0,7.38,3.65,3.65,0,0,0,2.8-1.25l1.26,1.2a5.68,5.68,0,0,1-9.78-3.64Z"></path><path class="cls-2" d="M506.25,206.53a4.27,4.27,0,1,1,4.25,4.11A4,4,0,0,1,506.25,206.53Zm6.64,0A2.38,2.38,0,1,0,510.5,209,2.33,2.33,0,0,0,512.89,206.53Z"></path><path class="cls-2" d="M524.47,199.41v11.13h-1.8v-1a3.29,3.29,0,0,1-2.66,1.14,4.1,4.1,0,0,1,0-8.2,3.26,3.26,0,0,1,2.58,1.08v-4.11Zm-1.85,7.12a2.39,2.39,0,1,0-2.38,2.51A2.33,2.33,0,0,0,522.62,206.53Z"></path><path class="cls-2" d="M534.47,207.13h-6.28a2.42,2.42,0,0,0,2.59,1.92,2.86,2.86,0,0,0,2.18-.87l1,1.16a4.06,4.06,0,0,1-3.22,1.3c-2.69,0-4.43-1.72-4.43-4.11a4,4,0,0,1,4.14-4.09,3.9,3.9,0,0,1,4,4.14C534.5,206.73,534.49,207,534.47,207.13Zm-6.3-1.24h4.55a2.18,2.18,0,0,0-2.27-1.95A2.22,2.22,0,0,0,528.17,205.89Z"></path><path class="cls-2" d="M495.55,226.43l.67-1.52a5.8,5.8,0,0,0,3.47,1.16c1.63,0,2.32-.59,2.32-1.37,0-2.26-6.24-.78-6.24-4.68,0-1.69,1.35-3.13,4.23-3.13a6.67,6.67,0,0,1,3.5.93l-.62,1.51a5.86,5.86,0,0,0-2.89-.82c-1.62,0-2.28.63-2.28,1.42,0,2.24,6.22.78,6.22,4.64,0,1.68-1.36,3.12-4.24,3.12A6.75,6.75,0,0,1,495.55,226.43Z"></path><path class="cls-2" d="M512.44,222.84v4.7h-1.77v-1a2.84,2.84,0,0,1-2.52,1.08c-1.83,0-3-1-3-2.4s.9-2.38,3.33-2.38h2.07v-.12c0-1.1-.66-1.74-2-1.74a4,4,0,0,0-2.43.79l-.74-1.36a5.64,5.64,0,0,1,3.39-1C511.1,219.44,512.44,220.53,512.44,222.84ZM510.56,225v-.93h-1.93c-1.28,0-1.62.48-1.62,1.07s.57,1.11,1.53,1.11A2,2,0,0,0,510.56,225Z"></path><path class="cls-2" d="M528.28,223v4.59H526.4v-4.35c0-1.43-.66-2.12-1.8-2.12s-2.08.81-2.08,2.4v4.07h-1.88v-4.35c0-1.43-.66-2.12-1.8-2.12s-2.08.81-2.08,2.4v4.07h-1.88v-8h1.79v1a3.31,3.31,0,0,1,2.62-1.11,3,3,0,0,1,2.7,1.33,3.76,3.76,0,0,1,3-1.33C526.93,219.44,528.28,220.53,528.28,223Z"></path><path class="cls-2" d="M539.23,223.53a3.91,3.91,0,0,1-4.07,4.11,3.26,3.26,0,0,1-2.56-1.08v3.89h-1.88V219.53h1.79v1.05a3.28,3.28,0,0,1,2.65-1.14A3.9,3.9,0,0,1,539.23,223.53Zm-1.91,0A2.38,2.38,0,1,0,535,226,2.33,2.33,0,0,0,537.32,223.53Z"></path><path class="cls-2" d="M541.06,216.41h1.87v11.13h-1.87Z"></path><path class="cls-2" d="M552.94,224.13h-6.29a2.43,2.43,0,0,0,2.6,1.92,2.84,2.84,0,0,0,2.17-.87l1,1.16a4.08,4.08,0,0,1-3.23,1.3c-2.68,0-4.42-1.72-4.42-4.11a4,4,0,0,1,4.14-4.09,3.9,3.9,0,0,1,4.05,4.14C553,223.73,553,224,552.94,224.13Zm-6.3-1.24h4.54a2.17,2.17,0,0,0-2.26-1.95A2.21,2.21,0,0,0,546.64,222.89Z"></path><path class="cls-2" d="M553.9,226.74l.72-1.42a5.41,5.41,0,0,0,2.79.79c1.18,0,1.68-.33,1.68-.88,0-1.53-5-.09-5-3.29,0-1.51,1.36-2.5,3.52-2.5a6.3,6.3,0,0,1,3,.69l-.72,1.42a4.37,4.37,0,0,0-2.29-.6c-1.14,0-1.68.38-1.68.9,0,1.62,4.95.18,4.95,3.32,0,1.5-1.38,2.47-3.63,2.47A6.35,6.35,0,0,1,553.9,226.74Z"></path></g><g id="gpd"><circle class="cls-13" cx="169.52" cy="113.98" r="29"></circle><path class="cls-2" d="M169.52,143.48A29.5,29.5,0,1,1,199,114,29.54,29.54,0,0,1,169.52,143.48Zm0-58A28.5,28.5,0,1,0,198,114,28.53,28.53,0,0,0,169.52,85.48Z"></path><path class="cls-5" d="M181.15,102.26l-9.24-5.34a4.77,4.77,0,0,0-4.79,0l-9.24,5.34a4.76,4.76,0,0,0-2.4,4.14v10.68a4.79,4.79,0,0,0,2.4,4.15l9.24,5.34a4.82,4.82,0,0,0,4.79,0l9.24-5.34a4.79,4.79,0,0,0,2.4-4.15V106.4A4.76,4.76,0,0,0,181.15,102.26Z"></path><path class="cls-2" d="M169.52,127.7a5.31,5.31,0,0,1-2.65-.7l-9.24-5.34a5.29,5.29,0,0,1-2.65-4.58V106.4a5.3,5.3,0,0,1,2.65-4.58l9.24-5.33a5.27,5.27,0,0,1,5.29,0l9.24,5.33a5.3,5.3,0,0,1,2.65,4.58v10.68a5.29,5.29,0,0,1-2.65,4.58L172.16,127A5.3,5.3,0,0,1,169.52,127.7Zm0-30.92a4.3,4.3,0,0,0-2.15.57l-9.24,5.34A4.29,4.29,0,0,0,156,106.4v10.68a4.28,4.28,0,0,0,2.15,3.71l9.24,5.34a4.27,4.27,0,0,0,4.29,0l9.24-5.34a4.28,4.28,0,0,0,2.15-3.71V106.4a4.29,4.29,0,0,0-2.15-3.71h0l-9.24-5.34A4.29,4.29,0,0,0,169.52,96.78Z"></path><path class="cls-5" d="M156.35,103.6a4.6,4.6,0,0,0,1.42,1.28l9.45,5.46a4.59,4.59,0,0,0,4.59,0l9.45-5.46a4.6,4.6,0,0,0,1.42-1.28"></path><path class="cls-2" d="M169.52,111.45a5.15,5.15,0,0,1-2.55-.68l-9.45-5.46a5,5,0,0,1-1.57-1.42.51.51,0,0,1,.11-.7.5.5,0,0,1,.7.12,4.17,4.17,0,0,0,1.26,1.14l9.45,5.45a4.09,4.09,0,0,0,4.09,0l9.45-5.45a4.05,4.05,0,0,0,1.26-1.14.49.49,0,0,1,.7-.11.48.48,0,0,1,.11.69,5,5,0,0,1-1.57,1.42l-9.45,5.46A5.15,5.15,0,0,1,169.52,111.45Z"></path><line class="cls-5" x1="164.4" y1="98.81" x2="173.59" y2="104.12"></line><path class="cls-2" d="M173.59,104.62a.45.45,0,0,1-.25-.07l-9.19-5.31a.5.5,0,0,1-.19-.68.51.51,0,0,1,.69-.18l9.19,5.3a.51.51,0,0,1,.18.69A.5.5,0,0,1,173.59,104.62Z"></path><line class="cls-5" x1="169.52" y1="102.08" x2="169.52" y2="106.16"></line><path class="cls-2" d="M169.52,106.66a.5.5,0,0,1-.5-.5v-4.08a.5.5,0,0,1,.5-.5.51.51,0,0,1,.5.5v4.08A.51.51,0,0,1,169.52,106.66Z"></path><ellipse class="cls-2" cx="169.52" cy="101.83" rx="1.78" ry="0.89"></ellipse><ellipse class="cls-2" cx="173.7" cy="104.27" rx="1.78" ry="0.89"></ellipse><ellipse class="cls-2" cx="169.52" cy="106.41" rx="1.78" ry="0.89"></ellipse><path class="cls-2" d="M169.52,127.52a.5.5,0,0,1-.5-.5V111a.5.5,0,0,1,.5-.5.5.5,0,0,1,.5.5V127A.5.5,0,0,1,169.52,127.52Z"></path><circle class="cls-5" cx="169.52" cy="126.08" r="6.38"></circle><path class="cls-2" d="M169.52,133a6.88,6.88,0,1,1,6.87-6.88A6.89,6.89,0,0,1,169.52,133Zm0-12.76a5.88,5.88,0,1,0,5.87,5.88A5.88,5.88,0,0,0,169.52,120.2Z"></path><path class="cls-2" d="M168.75,128.44a1.52,1.52,0,0,1-1.08-.45l-.94-.94a.5.5,0,0,1,0-.71.5.5,0,0,1,.7,0l.94,1a.56.56,0,0,0,.76,0l5-5a.48.48,0,0,1,.7,0,.5.5,0,0,1,0,.71l-5,5A1.55,1.55,0,0,1,168.75,128.44Z"></path><path class="cls-2" d="M30.87,109.48h1.85v4.19A6.7,6.7,0,0,1,28.61,115a5.41,5.41,0,1,1,0-10.8,5.44,5.44,0,0,1,4.21,1.71l-1.23,1.2a3.9,3.9,0,0,0-2.89-1.2,3.69,3.69,0,1,0,0,7.38,4.23,4.23,0,0,0,2.16-.54Z"></path><path class="cls-2" d="M34.89,104.4a1.15,1.15,0,0,1,1.2-1.13,1.12,1.12,0,0,1,1.2,1.08,1.2,1.2,0,0,1-2.4.05Zm.26,2.44H37v8H35.15Z"></path><path class="cls-2" d="M44.34,114.42a2.94,2.94,0,0,1-1.8.54,2.46,2.46,0,0,1-2.76-2.7V108.4H38.46v-1.5h1.32v-1.83h1.88v1.83H43.8v1.5H41.66v3.81c0,.78.39,1.2,1.11,1.2a1.67,1.67,0,0,0,1-.33Z"></path><path class="cls-2" d="M49.2,102.22h1.68l-5,14.13H44.25Z"></path><path class="cls-2" d="M60.51,108.09c0,2.31-1.71,3.73-4.47,3.73H53.67v3h-2v-10.5H56C58.8,104.35,60.51,105.76,60.51,108.09Zm-2,0c0-1.32-.88-2.09-2.59-2.09H53.67v4.17H56C57.66,110.17,58.54,109.41,58.54,108.09Z"></path><path class="cls-2" d="M69,110.16v4.69H67.19v-1A2.84,2.84,0,0,1,64.67,115c-1.84,0-3-1-3-2.4s.9-2.39,3.33-2.39h2.07v-.12c0-1.09-.66-1.74-2-1.74a3.93,3.93,0,0,0-2.42.8l-.74-1.37a5.64,5.64,0,0,1,3.39-1C67.62,106.75,69,107.85,69,110.16Zm-1.88,2.19v-.93H65.15c-1.28,0-1.62.48-1.62,1.06s.57,1.11,1.53,1.11A2,2,0,0,0,67.08,112.35Z"></path><path class="cls-2" d="M70.81,110.85a4.06,4.06,0,0,1,4.34-4.1,3.62,3.62,0,0,1,3.42,1.86l-1.44.84a2.28,2.28,0,0,0-2-1.11,2.51,2.51,0,0,0,0,5,2.26,2.26,0,0,0,2-1.11l1.44.84A3.65,3.65,0,0,1,75.15,115,4.07,4.07,0,0,1,70.81,110.85Z"></path><path class="cls-2" d="M83.43,111.42,82,112.74v2.11H80.16V103.72H82v6.72l3.88-3.6h2.25l-3.34,3.36,3.66,4.65H86.21Z"></path><path class="cls-2" d="M96.3,110.16v4.69H94.53v-1A2.84,2.84,0,0,1,92,115c-1.83,0-3-1-3-2.4s.89-2.39,3.33-2.39h2.06v-.12c0-1.09-.66-1.74-2-1.74a3.94,3.94,0,0,0-2.43.8l-.73-1.37a5.62,5.62,0,0,1,3.39-1C95,106.75,96.3,107.85,96.3,110.16Zm-1.88,2.19v-.93H92.49c-1.28,0-1.62.48-1.62,1.06s.57,1.11,1.53,1.11A2,2,0,0,0,94.42,112.35Z"></path><path class="cls-2" d="M106.77,106.84v6.8c0,2.91-1.52,4.23-4.32,4.23a6.36,6.36,0,0,1-3.9-1.14l.84-1.41a4.84,4.84,0,0,0,3,1c1.77,0,2.55-.81,2.55-2.43v-.42a3.51,3.51,0,0,1-2.68,1.06,3.87,3.87,0,1,1,0-7.74,3.45,3.45,0,0,1,2.77,1.16v-1.07Zm-1.85,3.77a2.44,2.44,0,1,0-2.42,2.29A2.25,2.25,0,0,0,104.92,110.61Z"></path><path class="cls-2" d="M116.77,111.45h-6.28a2.42,2.42,0,0,0,2.59,1.92,2.9,2.9,0,0,0,2.18-.87l1,1.15A4,4,0,0,1,113,115c-2.69,0-4.42-1.73-4.42-4.11a4,4,0,0,1,4.13-4.1,3.91,3.91,0,0,1,4,4.14C116.8,111,116.79,111.27,116.77,111.45Zm-6.3-1.25H115a2.19,2.19,0,0,0-2.27-2A2.22,2.22,0,0,0,110.47,110.2Z"></path><path class="cls-2" d="M64.09,121.35h4.59c3.41,0,5.73,2.1,5.73,5.25s-2.32,5.25-5.73,5.25H64.09Zm4.5,8.85c2.34,0,3.86-1.42,3.86-3.6s-1.52-3.6-3.86-3.6H66v7.2Z"></path><path class="cls-2" d="M83.85,128.45H77.56a2.43,2.43,0,0,0,2.6,1.92,2.88,2.88,0,0,0,2.17-.87l1,1.15A4.06,4.06,0,0,1,80.11,132c-2.68,0-4.42-1.73-4.42-4.11a4,4,0,0,1,4.14-4.1,3.91,3.91,0,0,1,4,4.14C83.88,128,83.86,128.27,83.85,128.45Zm-6.3-1.25h4.54a2.18,2.18,0,0,0-2.26-2A2.21,2.21,0,0,0,77.55,127.2Z"></path><path class="cls-2" d="M94.23,127.85A3.91,3.91,0,0,1,90.16,132a3.29,3.29,0,0,1-2.56-1.08v3.88H85.72V123.84h1.79v1a3.31,3.31,0,0,1,2.65-1.14A3.9,3.9,0,0,1,94.23,127.85Zm-1.91,0a2.38,2.38,0,1,0-2.37,2.5A2.33,2.33,0,0,0,92.32,127.85Z"></path><path class="cls-2" d="M96.06,120.72h1.87v11.13H96.06Z"></path><path class="cls-2" d="M99.78,127.85A4.27,4.27,0,1,1,104,132,4,4,0,0,1,99.78,127.85Zm6.64,0a2.38,2.38,0,1,0-2.38,2.5A2.34,2.34,0,0,0,106.42,127.85Z"></path><path class="cls-2" d="M117.43,123.84l-3.75,8.66c-.73,1.81-1.75,2.37-3.09,2.37a3.29,3.29,0,0,1-2.14-.74l.75-1.38a2,2,0,0,0,1.38.56c.66,0,1-.32,1.41-1.11l.13-.32-3.49-8h2l2.52,5.93,2.53-5.93Z"></path></g><g id="aex"><circle class="cls-14" cx="448.84" cy="113.98" r="29"></circle><path class="cls-11" d="M448.84,143.48a29.5,29.5,0,1,1,29.5-29.5A29.54,29.54,0,0,1,448.84,143.48Zm0-58a28.5,28.5,0,1,0,28.5,28.5A28.53,28.53,0,0,0,448.84,85.48Z"></path><path class="cls-5" d="M431.1,112.5a6.91,6.91,0,0,0,6.91,6.91h21.85a5.78,5.78,0,0,0,.65-11.53,10.67,10.67,0,0,0-20.87-2.09,7.2,7.2,0,0,0-1.63-.19A6.91,6.91,0,0,0,431.1,112.5Z"></path><path class="cls-2" d="M459.86,119.91H438a7.41,7.41,0,1,1,0-14.81,7.93,7.93,0,0,1,1.29.11A11.16,11.16,0,0,1,461,107.44a6.28,6.28,0,0,1-1.11,12.47ZM438,106.1a6.41,6.41,0,1,0,0,12.81h21.85a5.28,5.28,0,0,0,.59-10.53.51.51,0,0,1-.44-.46,10.16,10.16,0,0,0-19.89-2,.5.5,0,0,1-.6.35A6.37,6.37,0,0,0,438,106.1Z"></path><path class="cls-2" d="M462.26,128.46a.49.49,0,0,1-.3-.1l-13.25-10a.5.5,0,0,1-.1-.7.51.51,0,0,1,.7-.1l13.25,10a.5.5,0,0,1,.1.7A.51.51,0,0,1,462.26,128.46Z"></path><circle class="cls-5" cx="449.01" cy="117.93" r="10.22"></circle><path class="cls-2" d="M449,128.65a10.74,10.74,0,0,1-10.61-9.25h0a10.72,10.72,0,1,1,12.09,9.15A10.62,10.62,0,0,1,449,128.65Zm-9.62-9.39a9.72,9.72,0,1,0,8.3-11,9.74,9.74,0,0,0-8.3,11Z"></path><polyline class="cls-5" points="447.26 119.78 445.27 115.54 443.28 119.78"></polyline><path class="cls-2" d="M447.26,120.28a.51.51,0,0,1-.45-.29l-1.54-3.27L443.73,120a.5.5,0,0,1-.9-.42l2-4.24a.53.53,0,0,1,.91,0l2,4.24a.5.5,0,0,1-.24.66A.42.42,0,0,1,447.26,120.28Z"></path><line class="cls-5" x1="449.21" y1="115.54" x2="449.21" y2="119.78"></line><path class="cls-2" d="M449.21,120.28a.5.5,0,0,1-.5-.5v-4.24a.5.5,0,0,1,.5-.5.5.5,0,0,1,.5.5v4.24A.5.5,0,0,1,449.21,120.28Z"></path><line class="cls-5" x1="453.94" y1="115.54" x2="453.94" y2="119.78"></line><path class="cls-2" d="M453.94,120.28a.5.5,0,0,1-.5-.5v-4.24a.5.5,0,0,1,.5-.5.5.5,0,0,1,.5.5v4.24A.5.5,0,0,1,453.94,120.28Z"></path><path class="cls-5" d="M449.21,115.54h1.86a.9.9,0,0,1,.9.9v.38a.9.9,0,0,1-.9.9h-1.86a0,0,0,0,1,0,0v-2.18A0,0,0,0,1,449.21,115.54Z"></path><path class="cls-2" d="M451.07,118.22h-1.86a.5.5,0,0,1-.5-.5v-2.18a.5.5,0,0,1,.5-.5h1.86a1.4,1.4,0,0,1,1.4,1.4v.38A1.4,1.4,0,0,1,451.07,118.22Zm-1.36-1h1.36a.4.4,0,0,0,.4-.4v-.38a.4.4,0,0,0-.4-.4h-1.36Z"></path><path class="cls-2" d="M503.32,108.55h-5.25L497,111h-2l4.73-10.5h1.92l4.74,10.5h-2Zm-.65-1.53-2-4.59-2,4.59Z"></path><path class="cls-2" d="M516.58,104.21c0,2.31-1.71,3.74-4.47,3.74h-2.37v3h-1.95v-10.5h4.32C514.87,100.48,516.58,101.89,516.58,104.21Zm-2,0c0-1.32-.88-2.08-2.59-2.08h-2.28v4.17H512C513.73,106.3,514.61,105.53,514.61,104.21Z"></path><path class="cls-2" d="M518.58,100.48h1.94V111h-1.94Z"></path><path class="cls-2" d="M505.3,121.21c0,2.31-1.71,3.74-4.47,3.74h-2.37v3h-1.95v-10.5h4.32C503.59,117.48,505.3,118.89,505.3,121.21Zm-2,0c0-1.32-.88-2.08-2.59-2.08h-2.28v4.17h2.28C502.45,123.3,503.33,122.53,503.33,121.21Z"></path><path class="cls-2" d="M507.26,116.85h1.88V128h-1.88Z"></path><path class="cls-2" d="M518.35,123.28V128h-1.77v-1a2.84,2.84,0,0,1-2.52,1.08c-1.83,0-3-1-3-2.4s.9-2.38,3.33-2.38h2.07v-.12c0-1.1-.66-1.74-2-1.74a4,4,0,0,0-2.43.79l-.74-1.36a5.64,5.64,0,0,1,3.39-1C517,119.88,518.35,121,518.35,123.28Zm-1.88,2.19v-.93h-1.93c-1.28,0-1.62.48-1.62,1.07s.57,1.11,1.53,1.11A2,2,0,0,0,516.47,125.47Z"></path><path class="cls-2" d="M528.14,120l-3.75,8.65c-.73,1.82-1.75,2.37-3.09,2.37a3.34,3.34,0,0,1-2.14-.73l.75-1.38a2.05,2.05,0,0,0,1.38.55c.66,0,1.05-.31,1.41-1.11l.13-.31-3.49-8h1.95l2.52,5.92,2.53-5.92Z"></path><path class="cls-2" d="M537.08,120v6.79c0,2.91-1.51,4.23-4.32,4.23a6.38,6.38,0,0,1-3.9-1.14l.84-1.41a4.83,4.83,0,0,0,3,1c1.77,0,2.55-.81,2.55-2.43v-.42a3.54,3.54,0,0,1-2.69,1.07,3.87,3.87,0,1,1,0-7.74A3.48,3.48,0,0,1,535.3,121V120Zm-1.84,3.76a2.45,2.45,0,0,0-4.88,0,2.44,2.44,0,0,0,4.88,0Z"></path><path class="cls-2" d="M544.22,119.88v1.78a2.29,2.29,0,0,0-.43,0,2.18,2.18,0,0,0-2.33,2.47V128h-1.87v-8h1.78v1.17A3.16,3.16,0,0,1,544.22,119.88Z"></path><path class="cls-2" d="M545.12,124a4.27,4.27,0,1,1,4.26,4.11A4,4,0,0,1,545.12,124Zm6.65,0a2.38,2.38,0,1,0-2.39,2.51A2.33,2.33,0,0,0,551.77,124Z"></path><path class="cls-2" d="M563.26,120v8h-1.79v-1a3.28,3.28,0,0,1-2.58,1.12c-2,0-3.45-1.12-3.45-3.54V120h1.88v4.32c0,1.45.69,2.14,1.87,2.14a2.11,2.11,0,0,0,2.19-2.41v-4Z"></path><path class="cls-2" d="M573.65,123.39V128h-1.87v-4.35c0-1.43-.71-2.12-1.91-2.12a2.13,2.13,0,0,0-2.23,2.42v4h-1.88v-8h1.79v1a3.49,3.49,0,0,1,2.76-1.12C572.23,119.88,573.65,121,573.65,123.39Z"></path><path class="cls-2" d="M584,116.85V128h-1.8v-1a3.28,3.28,0,0,1-2.65,1.14,4.1,4.1,0,0,1,0-8.2,3.27,3.27,0,0,1,2.58,1.08v-4.11ZM582.16,124a2.39,2.39,0,1,0-2.39,2.51A2.34,2.34,0,0,0,582.16,124Z"></path></g><g id="rd"><circle class="cls-12" cx="249.06" cy="29.5" r="29"></circle><path class="cls-11" d="M249.06,59a29.5,29.5,0,1,1,29.5-29.5A29.54,29.54,0,0,1,249.06,59Zm0-58a28.5,28.5,0,1,0,28.5,28.5A28.54,28.54,0,0,0,249.06,1Z"></path><path class="cls-5" d="M238.4,18.14a2.28,2.28,0,0,0-2.28,2.28V42.17a2.28,2.28,0,0,0,2.28,2.28h16.4a2.28,2.28,0,0,0,2.28-2.28V28.82L246.4,18.14Z"></path><path class="cls-2" d="M254.8,45H238.4a2.79,2.79,0,0,1-2.78-2.78V20.42a2.79,2.79,0,0,1,2.78-2.78h8a.47.47,0,0,1,.35.15l10.68,10.68a.47.47,0,0,1,.15.35V42.17A2.79,2.79,0,0,1,254.8,45ZM238.4,18.64a1.78,1.78,0,0,0-1.78,1.78V42.17A1.78,1.78,0,0,0,238.4,44h16.4a1.78,1.78,0,0,0,1.78-1.78V29L246.19,18.64Z"></path><path class="cls-5" d="M246.4,18.14V25.8a3,3,0,0,0,3,3h7.66Z"></path><path class="cls-2" d="M257.08,29.32h-7.66a3.53,3.53,0,0,1-3.52-3.52V18.14a.49.49,0,0,1,.3-.46.49.49,0,0,1,.55.11l10.68,10.68a.49.49,0,0,1,.11.55A.49.49,0,0,1,257.08,29.32Zm-10.18-10V25.8a2.52,2.52,0,0,0,2.52,2.52h6.45Z"></path><path class="cls-5" d="M243.58,13a2.28,2.28,0,0,0-2.28,2.28V37a2.28,2.28,0,0,0,2.28,2.28H260A2.28,2.28,0,0,0,262.26,37V23.65L251.57,13Z"></path><path class="cls-2" d="M260,39.77h-16.4A2.78,2.78,0,0,1,240.8,37V15.24a2.78,2.78,0,0,1,2.78-2.78h8a.49.49,0,0,1,.36.15l10.68,10.68a.49.49,0,0,1,.15.36V37A2.79,2.79,0,0,1,260,39.77Zm-16.4-26.31a1.78,1.78,0,0,0-1.78,1.78V37a1.78,1.78,0,0,0,1.78,1.78H260A1.78,1.78,0,0,0,261.76,37V23.85L251.37,13.46Z"></path><path class="cls-5" d="M251.57,13v7.66a3,3,0,0,0,3,3h7.66Z"></path><path class="cls-2" d="M262.26,24.15H254.6a3.54,3.54,0,0,1-3.53-3.53V13a.51.51,0,0,1,.31-.46.49.49,0,0,1,.55.11l10.68,10.68a.49.49,0,0,1,.11.55A.51.51,0,0,1,262.26,24.15Zm-10.19-10v6.45a2.54,2.54,0,0,0,2.53,2.53h6.45Z"></path><path class="cls-2" d="M184.92,26.44h-5.25l-1,2.43h-2l4.72-10.5h1.92L188,28.87h-2Zm-.64-1.53-2-4.59-2,4.59Z"></path><path class="cls-2" d="M198.14,22.11c0,2.31-1.71,3.73-4.47,3.73H191.3v3h-2V18.37h4.32C196.43,18.37,198.14,19.78,198.14,22.11Zm-2,0c0-1.32-.88-2.09-2.59-2.09H191.3v4.17h2.28C195.29,24.19,196.17,23.43,196.17,22.11Z"></path><path class="cls-2" d="M200.09,18.37H202v10.5h-1.95Z"></path><path class="cls-2" d="M86.44,35.37H91c3.4,0,5.72,2.1,5.72,5.25S94.43,45.87,91,45.87H86.44Zm4.5,8.85c2.34,0,3.85-1.42,3.85-3.6A3.5,3.5,0,0,0,90.94,37H88.39v7.2Z"></path><path class="cls-2" d="M98,41.87A4.27,4.27,0,1,1,102.25,46,4,4,0,0,1,98,41.87Zm6.64,0a2.38,2.38,0,1,0-2.38,2.5A2.34,2.34,0,0,0,104.63,41.87Z"></path><path class="cls-2" d="M107.66,41.87a4.06,4.06,0,0,1,4.34-4.1,3.6,3.6,0,0,1,3.41,1.86l-1.44.84a2.28,2.28,0,0,0-2-1.11,2.51,2.51,0,0,0,0,5,2.25,2.25,0,0,0,2-1.11l1.44.84A3.63,3.63,0,0,1,112,46,4.07,4.07,0,0,1,107.66,41.87Z"></path><path class="cls-2" d="M124.79,37.86v8H123v-1A3.25,3.25,0,0,1,120.42,46,3.17,3.17,0,0,1,117,42.44V37.86h1.88v4.32c0,1.46.69,2.15,1.87,2.15s2.19-.81,2.19-2.42v-4Z"></path><path class="cls-2" d="M140.64,41.28v4.59h-1.87V41.52c0-1.42-.66-2.11-1.8-2.11s-2.09.81-2.09,2.4v4.06H133V41.52c0-1.42-.66-2.11-1.8-2.11s-2.09.81-2.09,2.4v4.06h-1.87v-8H129v1a3.32,3.32,0,0,1,2.63-1.11,3,3,0,0,1,2.7,1.34,3.71,3.71,0,0,1,3-1.34C139.29,37.77,140.64,38.87,140.64,41.28Z"></path><path class="cls-2" d="M150.62,42.47h-6.29a2.43,2.43,0,0,0,2.6,1.92,2.88,2.88,0,0,0,2.17-.87l1,1.15A4.06,4.06,0,0,1,146.88,46c-2.68,0-4.42-1.73-4.42-4.11a4,4,0,0,1,4.14-4.1,3.91,3.91,0,0,1,4.05,4.14C150.65,42.06,150.63,42.29,150.62,42.47Zm-6.3-1.25h4.54a2.18,2.18,0,0,0-2.26-1.95A2.21,2.21,0,0,0,144.32,41.22Z"></path><path class="cls-2" d="M160.34,41.28v4.59h-1.88V41.52c0-1.42-.7-2.11-1.9-2.11a2.13,2.13,0,0,0-2.24,2.41v4h-1.87v-8h1.78v1A3.48,3.48,0,0,1,157,37.77C158.91,37.77,160.34,38.87,160.34,41.28Z"></path><path class="cls-2" d="M167.54,45.44a2.94,2.94,0,0,1-1.8.54,2.46,2.46,0,0,1-2.76-2.7V39.42h-1.32v-1.5H163V36.09h1.87v1.83H167v1.5h-2.15v3.81c0,.78.4,1.2,1.11,1.2a1.65,1.65,0,0,0,1-.33Z"></path><path class="cls-2" d="M175.79,41.18v4.69H174v-1A2.84,2.84,0,0,1,171.5,46c-1.83,0-3-1-3-2.4s.9-2.39,3.33-2.39h2.07v-.12c0-1.09-.67-1.74-2-1.74a3.94,3.94,0,0,0-2.43.8l-.73-1.37a5.62,5.62,0,0,1,3.39-1C174.46,37.77,175.79,38.87,175.79,41.18Zm-1.87,2.19v-.93H172c-1.27,0-1.62.48-1.62,1.06s.57,1.11,1.53,1.11A2.05,2.05,0,0,0,173.92,43.37Z"></path><path class="cls-2" d="M183,45.44a2.93,2.93,0,0,1-1.79.54,2.46,2.46,0,0,1-2.76-2.7V39.42h-1.33v-1.5h1.33V36.09h1.87v1.83h2.14v1.5h-2.14v3.81c0,.78.39,1.2,1.11,1.2a1.67,1.67,0,0,0,1-.33Z"></path><path class="cls-2" d="M184.29,35.42a1.15,1.15,0,0,1,1.21-1.13,1.12,1.12,0,0,1,1.2,1.08,1.21,1.21,0,0,1-2.41.05Zm.26,2.44h1.87v8h-1.87Z"></path><path class="cls-2" d="M188.23,41.87A4.27,4.27,0,1,1,192.49,46,4,4,0,0,1,188.23,41.87Zm6.64,0a2.38,2.38,0,1,0-2.38,2.5A2.34,2.34,0,0,0,194.87,41.87Z"></path><path class="cls-2" d="M206.45,41.28v4.59h-1.87V41.52c0-1.42-.71-2.11-1.91-2.11a2.13,2.13,0,0,0-2.24,2.41v4h-1.87v-8h1.78v1a3.48,3.48,0,0,1,2.76-1.13C205,37.77,206.45,38.87,206.45,41.28Z"></path></g><g id="st"><circle class="cls-13" cx="375.85" cy="29.5" r="29"></circle><path class="cls-2" d="M375.85,59a29.5,29.5,0,1,1,29.5-29.5A29.53,29.53,0,0,1,375.85,59Zm0-58a28.5,28.5,0,1,0,28.5,28.5A28.53,28.53,0,0,0,375.85,1Z"></path><path class="cls-5" d="M388.51,27,376,19.84,363.58,27V37a7.77,7.77,0,0,0,3.88,6.72l4.7,2.72a7.81,7.81,0,0,0,7.77,0l4.7-2.72A7.77,7.77,0,0,0,388.51,37Z"></path><path class="cls-2" d="M376,47.93a8.25,8.25,0,0,1-4.13-1.1l-4.7-2.72A8.27,8.27,0,0,1,363.08,37V27a.48.48,0,0,1,.25-.43l12.46-7.2a.5.5,0,0,1,.5,0l12.47,7.2A.48.48,0,0,1,389,27V37a8.27,8.27,0,0,1-4.13,7.15l-4.7,2.72A8.26,8.26,0,0,1,376,47.93Zm-12-20.6V37a7.3,7.3,0,0,0,3.63,6.29l4.7,2.71a7.26,7.26,0,0,0,7.27,0l4.7-2.71A7.3,7.3,0,0,0,388,37V27.33l-12-6.91Z"></path><path class="cls-5" d="M381.64,39l8.2-4.93a2.3,2.3,0,0,0,.84-3.07l-2.17-4-12.14,7.31,2.07,3.8A2.29,2.29,0,0,0,381.64,39Z"></path><path class="cls-2" d="M380.46,39.85a3.21,3.21,0,0,1-.74-.1A2.81,2.81,0,0,1,378,38.38l-2.07-3.79a.5.5,0,0,1,.18-.67l12.15-7.31a.46.46,0,0,1,.38-.05.48.48,0,0,1,.31.24l2.17,4a2.79,2.79,0,0,1-1,3.74l-8.2,4.93A2.76,2.76,0,0,1,380.46,39.85ZM377,34.53l1.84,3.38a1.8,1.8,0,0,0,2.5.68h0l8.21-4.94a1.79,1.79,0,0,0,.65-2.4l-1.92-3.51Z"></path><line class="cls-5" x1="360.41" y1="28.87" x2="376.04" y2="19.84"></line><path class="cls-2" d="M360.41,29.37a.52.52,0,0,1-.44-.25.51.51,0,0,1,.19-.68l15.63-9a.5.5,0,1,1,.5.87l-15.63,9A.57.57,0,0,1,360.41,29.37Z"></path><polygon class="cls-13" points="376.05 19.84 388.51 27.04 376.37 34.35 363.58 27.04 376.05 19.84"></polygon><path class="cls-2" d="M376.37,34.85a.45.45,0,0,1-.25-.07l-12.79-7.3a.5.5,0,0,1-.25-.44.48.48,0,0,1,.25-.43l12.46-7.2a.5.5,0,0,1,.5,0l12.47,7.2a.5.5,0,0,1,0,.86l-12.15,7.31A.55.55,0,0,1,376.37,34.85ZM364.58,27l11.78,6.73,11.17-6.72L376,20.42Z"></path><path class="cls-5" d="M384,20.67l1.29-.24a.79.79,0,0,0,.65-.8l0-1.19a.8.8,0,0,0-.68-.78l-1.3-.19a.82.82,0,0,1-.57-.38L381.57,14a.77.77,0,0,1-.07-.68l.45-1.24a.81.81,0,0,0-.37-1l-1-.58a.8.8,0,0,0-1,.19l-.82,1a.79.79,0,0,1-.61.29l-3.57.06a.77.77,0,0,1-.62-.28l-.86-1a.8.8,0,0,0-1-.17l-1,.6a.79.79,0,0,0-.34,1l.45,1.21a.76.76,0,0,1-.05.67l-1.81,3.26a.83.83,0,0,1-.55.4l-1.29.24a.8.8,0,0,0-.65.8l0,1.2a.8.8,0,0,0,.68.77l1.3.2a.78.78,0,0,1,.57.37l1.84,3.06a.81.81,0,0,1,.06.68l-.44,1.25a.79.79,0,0,0,.36,1l1,.59a.8.8,0,0,0,1-.2l.82-1a.77.77,0,0,1,.61-.3l3.57-.06a.77.77,0,0,1,.62.28l.87,1a.8.8,0,0,0,1,.18l1-.61a.81.81,0,0,0,.35-1l-.46-1.2a.79.79,0,0,1,.05-.67l1.81-3.27A.83.83,0,0,1,384,20.67Zm-10.95-1.34a3.29,3.29,0,1,1,3.28,3.16A3.29,3.29,0,0,1,373.08,19.33Z"></path><path class="cls-2" d="M372.58,28.47a1.32,1.32,0,0,1-.63-.17l-1.05-.58a1.29,1.29,0,0,1-.58-1.57l.44-1.25a.31.31,0,0,0,0-.25l-1.84-3.06a.29.29,0,0,0-.21-.14l-1.31-.2a1.29,1.29,0,0,1-1.1-1.25l0-1.2a1.3,1.3,0,0,1,1.06-1.3l1.29-.24a.28.28,0,0,0,.2-.15l1.82-3.27a.27.27,0,0,0,0-.25l-.45-1.2a1.29,1.29,0,0,1,.56-1.58l1-.61a1.29,1.29,0,0,1,1.65.29l.86,1a.33.33,0,0,0,.23.1h0l3.56-.06a.3.3,0,0,0,.23-.11l.82-1a1.28,1.28,0,0,1,1.64-.32l1.05.59a1.31,1.31,0,0,1,.59,1.57L382,13.52a.33.33,0,0,0,0,.26l1.84,3A.28.28,0,0,0,384,17l1.31.2a1.28,1.28,0,0,1,1.1,1.26l0,1.19a1.29,1.29,0,0,1-1.05,1.3l-1.3.25a.29.29,0,0,0-.2.14l-1.81,3.27a.28.28,0,0,0,0,.25l.45,1.2a1.29,1.29,0,0,1-.55,1.58l-1,.61a1.29,1.29,0,0,1-1.65-.29l-.86-1a.28.28,0,0,0-.23-.11l-3.57.06a.3.3,0,0,0-.23.11l-.82,1A1.3,1.3,0,0,1,372.58,28.47ZM372.44,11a.24.24,0,0,0-.15,0l-1,.6a.31.31,0,0,0-.13.36l.46,1.21a1.27,1.27,0,0,1-.08,1.09l-1.81,3.26a1.31,1.31,0,0,1-.9.65l-1.29.24a.31.31,0,0,0-.24.3l0,1.2a.31.31,0,0,0,.25.29l1.31.19a1.3,1.3,0,0,1,.92.62l1.83,3.05a1.29,1.29,0,0,1,.11,1.1l-.44,1.25a.29.29,0,0,0,.13.36l1.05.59a.29.29,0,0,0,.37-.07l.82-1a1.33,1.33,0,0,1,1-.48l3.57-.06a1.34,1.34,0,0,1,1,.46l.86,1a.29.29,0,0,0,.38.06l1-.6a.29.29,0,0,0,.13-.36l-.46-1.21a1.32,1.32,0,0,1,.08-1.08L383,20.83a1.31,1.31,0,0,1,.9-.65h0l1.29-.24a.29.29,0,0,0,.24-.3l0-1.19a.29.29,0,0,0-.25-.29l-1.31-.2a1.31,1.31,0,0,1-.92-.61l-1.83-3.06a1.29,1.29,0,0,1-.11-1.1l.44-1.25a.29.29,0,0,0-.13-.36l-1-.59a.28.28,0,0,0-.37.08l-.82,1a1.27,1.27,0,0,1-1,.48l-3.57.06a1.3,1.3,0,0,1-1-.46l-.87-1A.27.27,0,0,0,372.44,11Zm3.93,12h0a3.82,3.82,0,0,1-3.78-3.64h0A3.79,3.79,0,1,1,376.37,23Zm0-6.56a2.76,2.76,0,0,0-2,.85,2.79,2.79,0,0,0-.78,2h0A2.81,2.81,0,0,0,376.36,22h0a2.78,2.78,0,0,0,2.79-2.88,2.81,2.81,0,0,0-2.78-2.68Z"></path><circle class="cls-13" cx="376.37" cy="19.21" r="3.28" transform="translate(101.05 276.55) rotate(-45.99)"></circle><path class="cls-2" d="M376.37,23h0a3.82,3.82,0,0,1-3.78-3.64h0A3.79,3.79,0,1,1,376.37,23Zm0-6.56a2.76,2.76,0,0,0-2,.85,2.79,2.79,0,0,0-.78,2h0A2.81,2.81,0,0,0,376.36,22h0a2.78,2.78,0,0,0,2.79-2.88,2.81,2.81,0,0,0-2.78-2.68Z"></path><path class="cls-2" d="M419.83,30.18l.68-1.51A5.83,5.83,0,0,0,424,29.82c1.64,0,2.33-.58,2.33-1.36,0-2.27-6.24-.78-6.24-4.68,0-1.7,1.35-3.14,4.23-3.14a6.61,6.61,0,0,1,3.49.93l-.61,1.52a5.81,5.81,0,0,0-2.9-.83c-1.62,0-2.28.63-2.28,1.43,0,2.23,6.23.78,6.23,4.63,0,1.68-1.37,3.12-4.25,3.12A6.78,6.78,0,0,1,419.83,30.18Z"></path><path class="cls-2" d="M430.2,20.79h4.59c3.4,0,5.73,2.1,5.73,5.25s-2.33,5.25-5.73,5.25H430.2Zm4.5,8.85c2.34,0,3.85-1.42,3.85-3.6a3.5,3.5,0,0,0-3.85-3.6h-2.55v7.2Z"></path><path class="cls-2" d="M446.25,26.9l-1.67,1.71v2.68h-1.95V20.79h1.95v5.39l5.19-5.39H452l-4.41,4.7,4.68,5.8H450Z"></path><path class="cls-2" d="M452.29,30.5l.72-1.43a5.37,5.37,0,0,0,2.79.8c1.19,0,1.68-.33,1.68-.89,0-1.53-5-.09-5-3.28,0-1.52,1.37-2.51,3.53-2.51a6.45,6.45,0,0,1,3,.69l-.72,1.43a4.4,4.4,0,0,0-2.3-.6c-1.14,0-1.68.37-1.68.9,0,1.62,4.95.18,4.95,3.31,0,1.5-1.38,2.48-3.63,2.48A6.38,6.38,0,0,1,452.29,30.5Z"></path><path class="cls-2" d="M473.22,31.46l-1.32-1.28a5.33,5.33,0,0,1-3.53,1.26c-2.22,0-3.82-1.15-3.82-2.8,0-1.31.72-2.22,2.43-3.18a3.18,3.18,0,0,1-1.17-2.31c0-1.47,1.2-2.48,3-2.48s2.81.89,2.81,2.31c0,1.08-.63,1.86-2.15,2.72l2.27,2.16a6.94,6.94,0,0,0,.58-1.77l1.52.49a7.09,7.09,0,0,1-.95,2.4l1.32,1.26Zm-2.43-2.34L468,26.46c-1.21.68-1.63,1.23-1.63,2s.84,1.47,2.13,1.47A3.55,3.55,0,0,0,470.79,29.12Zm-3.27-6c0,.46.19.81.94,1.56,1.22-.66,1.61-1.1,1.61-1.67s-.44-1-1.22-1S467.52,22.47,467.52,23.12Z"></path><path class="cls-2" d="M422.85,39.44h-3.48V37.79h8.91v1.65H424.8v8.85h-1.95Z"></path><path class="cls-2" d="M437.17,40.28v8h-1.78v-1a3.27,3.27,0,0,1-2.58,1.13c-2.06,0-3.45-1.13-3.45-3.54V40.28h1.87V44.6c0,1.46.69,2.15,1.88,2.15a2.11,2.11,0,0,0,2.19-2.42v-4Z"></path><path class="cls-2" d="M444.49,47.86a2.94,2.94,0,0,1-1.8.54,2.46,2.46,0,0,1-2.76-2.7V41.84h-1.32v-1.5h1.32V38.51h1.88v1.83H444v1.5h-2.14v3.81c0,.78.39,1.2,1.11,1.2a1.67,1.67,0,0,0,1.05-.33Z"></path><path class="cls-2" d="M445.15,44.29a4.27,4.27,0,1,1,4.26,4.11A4,4,0,0,1,445.15,44.29Zm6.65,0a2.38,2.38,0,1,0-2.39,2.5A2.34,2.34,0,0,0,451.8,44.29Z"></path><path class="cls-2" d="M460.17,40.19V42a2.47,2.47,0,0,0-.44,0,2.18,2.18,0,0,0-2.32,2.48v3.88h-1.88v-8h1.79v1.17A3.15,3.15,0,0,1,460.17,40.19Z"></path><path class="cls-2" d="M461.55,37.84a1.15,1.15,0,0,1,1.2-1.13,1.12,1.12,0,0,1,1.2,1.08,1.15,1.15,0,0,1-1.2,1.17A1.14,1.14,0,0,1,461.55,37.84Zm.25,2.44h1.88v8H461.8Z"></path><path class="cls-2" d="M472.89,43.6v4.69h-1.77v-1a2.84,2.84,0,0,1-2.52,1.08c-1.83,0-3-1-3-2.4s.9-2.39,3.33-2.39H471v-.12c0-1.09-.66-1.74-2-1.74a3.94,3.94,0,0,0-2.43.8l-.74-1.37a5.64,5.64,0,0,1,3.39-1C471.55,40.19,472.89,41.29,472.89,43.6ZM471,45.79v-.93h-1.93c-1.28,0-1.62.48-1.62,1.06S468,47,469,47A2,2,0,0,0,471,45.79Z"></path><path class="cls-2" d="M475.33,37.16h1.88V48.29h-1.88Z"></path><path class="cls-2" d="M478.8,47.5l.72-1.43a5.32,5.32,0,0,0,2.79.8c1.18,0,1.68-.33,1.68-.89,0-1.53-4.95-.09-4.95-3.28,0-1.52,1.36-2.51,3.52-2.51a6.42,6.42,0,0,1,3,.69l-.72,1.43a4.37,4.37,0,0,0-2.29-.6c-1.14,0-1.68.37-1.68.9,0,1.62,4.95.18,4.95,3.31,0,1.5-1.38,2.48-3.63,2.48A6.35,6.35,0,0,1,478.8,47.5Z"></path></g></g></svg>