<svg xmlns="http://www.w3.org/2000/svg" width="99.752" height="95.654" viewBox="0 0 99.752 95.654"><defs><style>.a{fill:#0062ff;}.b{fill:#24313e;}.c{fill:#ebf0f5;}.d{fill:#6b7e8f;}.e{fill:#0c7ff2;}.f{fill:#3ab2d0;}.g{fill:#fa6285;}</style></defs><g transform="translate(-1447.3 -1492.712)"><g transform="translate(1447.3 1492.712)"><g transform="translate(0 0)"><path class="a" d="M1529.276,1521.218a12.735,12.735,0,0,0-.854-6.65,15.431,15.431,0,0,0-9.662-8.776,12.755,12.755,0,0,0-6.7-.221,6.752,6.752,0,0,1-2.123.168,7.144,7.144,0,0,1-2.042-.474,7.644,7.644,0,0,1-1.841-1.038,7.908,7.908,0,0,1-1.518-1.526,22.146,22.146,0,0,0-12.6-8.215,27.523,27.523,0,0,0-14.867.65,26.655,26.655,0,0,0-12.373,8.19,22.013,22.013,0,0,0-5.115,14.4,7.38,7.38,0,0,1-.215,1.816,7.488,7.488,0,0,1-.64,1.684,7.687,7.687,0,0,1-1.021,1.489,7.9,7.9,0,0,1-1.359,1.232,18.8,18.8,0,0,0-7.248,10.584,23.2,23.2,0,0,0,.309,12.719,21.688,21.688,0,0,0,6.979,10.569,18.928,18.928,0,0,0,12.76,4.135h52.268v-.03a16.587,16.587,0,0,0,11.612-3.445,18.64,18.64,0,0,0,6.174-9.43,20.743,20.743,0,0,0,.12-11.375,16.478,16.478,0,0,0-6.549-9.28,8.9,8.9,0,0,1-1.609-1.406,8.081,8.081,0,0,1-1.188-1.723,7.074,7.074,0,0,1-.664-1.953A6.519,6.519,0,0,1,1529.276,1521.218Z" transform="translate(-1448.218 -1493.616)"></path><path class="b" d="M1467.514,1561.21a19.074,19.074,0,0,1-12.133-4.179,21.688,21.688,0,0,1-7.027-10.64,23.466,23.466,0,0,1-.311-12.8,18.958,18.958,0,0,1,7.3-10.665,7.759,7.759,0,0,0,1.334-1.209,7.561,7.561,0,0,0,1-1.461,7.348,7.348,0,0,0,.628-1.651,7.252,7.252,0,0,0,.211-1.78,22.24,22.24,0,0,1,5.148-14.5,26.619,26.619,0,0,1,12.44-8.236,27.842,27.842,0,0,1,14.947-.653,22.332,22.332,0,0,1,12.68,8.269,7.751,7.751,0,0,0,1.489,1.5,7.479,7.479,0,0,0,1.805,1.018,6.98,6.98,0,0,0,2,.464,6.615,6.615,0,0,0,2.077-.164,12.978,12.978,0,0,1,6.773.223,15.578,15.578,0,0,1,9.755,8.861,12.959,12.959,0,0,1,.863,6.726,6.387,6.387,0,0,0,.038,2.05,6.939,6.939,0,0,0,.651,1.913,7.945,7.945,0,0,0,1.167,1.692,8.76,8.76,0,0,0,1.583,1.383,16.607,16.607,0,0,1,6.607,9.361,20.962,20.962,0,0,1-.121,11.456,18.651,18.651,0,0,1-6.223,9.5,16.8,16.8,0,0,1-11.556,3.486v.006l-.146.015H1468.82c-.3,0-.479,0-.583-.01v.01Q1467.874,1561.21,1467.514,1561.21ZM1484.875,1493a28.436,28.436,0,0,0-8.674,1.367,26.329,26.329,0,0,0-12.305,8.144,21.95,21.95,0,0,0-5.081,14.309,7.543,7.543,0,0,1-.22,1.852,7.649,7.649,0,0,1-.652,1.717,7.848,7.848,0,0,1-1.04,1.517,8.07,8.07,0,0,1-1.385,1.254,18.668,18.668,0,0,0-7.192,10.5,23.169,23.169,0,0,0,.308,12.638,21.4,21.4,0,0,0,6.93,10.5,18.888,18.888,0,0,0,12.664,4.1h52.126v-.025l.155-.005a16.545,16.545,0,0,0,11.512-3.414,18.361,18.361,0,0,0,6.124-9.357,20.664,20.664,0,0,0,.12-11.294,16.316,16.316,0,0,0-6.49-9.2,9.054,9.054,0,0,1-1.636-1.429,8.233,8.233,0,0,1-1.209-1.754,7.225,7.225,0,0,1-.678-1.994,6.667,6.667,0,0,1-.04-2.143h0a12.664,12.664,0,0,0-.845-6.574,15.287,15.287,0,0,0-9.568-8.691,12.7,12.7,0,0,0-6.62-.219,6.909,6.909,0,0,1-2.169.171,7.29,7.29,0,0,1-2.084-.484,7.782,7.782,0,0,1-1.876-1.058,8.052,8.052,0,0,1-1.545-1.554,22.04,22.04,0,0,0-12.516-8.161A25.735,25.735,0,0,0,1484.875,1493Z" transform="translate(-1447.3 -1492.712)"></path></g></g><g transform="translate(1450.343 1492.712)"><g transform="translate(0 0)"><path class="a" d="M1552.053,1521.218a12.734,12.734,0,0,0-.854-6.65,15.431,15.431,0,0,0-9.662-8.776,12.755,12.755,0,0,0-6.7-.221,6.751,6.751,0,0,1-2.123.168,7.146,7.146,0,0,1-2.042-.474,7.648,7.648,0,0,1-1.84-1.038,7.908,7.908,0,0,1-1.518-1.526,22.147,22.147,0,0,0-12.6-8.215,27.523,27.523,0,0,0-14.867.65,26.655,26.655,0,0,0-12.373,8.19,22.013,22.013,0,0,0-5.115,14.4,7.386,7.386,0,0,1-.215,1.816,7.5,7.5,0,0,1-.64,1.684,7.7,7.7,0,0,1-1.021,1.489,7.909,7.909,0,0,1-1.359,1.232,18.8,18.8,0,0,0-7.249,10.584,23.2,23.2,0,0,0,.309,12.719,21.689,21.689,0,0,0,6.979,10.569,18.928,18.928,0,0,0,12.76,4.135H1544.2v-.03a16.587,16.587,0,0,0,11.612-3.445,18.64,18.64,0,0,0,6.174-9.43,20.745,20.745,0,0,0,.12-11.375,16.481,16.481,0,0,0-6.549-9.28,8.906,8.906,0,0,1-1.609-1.406,8.077,8.077,0,0,1-1.188-1.723,7.078,7.078,0,0,1-.665-1.953A6.522,6.522,0,0,1,1552.053,1521.218Z" transform="translate(-1470.996 -1493.616)"></path><path class="b" d="M1490.291,1561.21a19.074,19.074,0,0,1-12.133-4.179,21.685,21.685,0,0,1-7.026-10.64,23.46,23.46,0,0,1-.311-12.8,18.957,18.957,0,0,1,7.3-10.665,7.783,7.783,0,0,0,1.335-1.208,7.576,7.576,0,0,0,1-1.461,7.355,7.355,0,0,0,.627-1.651,7.242,7.242,0,0,0,.211-1.78,22.239,22.239,0,0,1,5.148-14.5,26.619,26.619,0,0,1,12.44-8.236,27.843,27.843,0,0,1,14.947-.653,22.333,22.333,0,0,1,12.68,8.269,7.745,7.745,0,0,0,1.489,1.5,7.479,7.479,0,0,0,1.805,1.018,6.984,6.984,0,0,0,2,.464,6.616,6.616,0,0,0,2.077-.164,12.978,12.978,0,0,1,6.773.223,15.576,15.576,0,0,1,9.755,8.861,12.96,12.96,0,0,1,.864,6.726,6.39,6.39,0,0,0,.037,2.05,6.932,6.932,0,0,0,.651,1.913,7.922,7.922,0,0,0,1.167,1.692,8.754,8.754,0,0,0,1.583,1.383,16.605,16.605,0,0,1,6.607,9.361,20.965,20.965,0,0,1-.121,11.456,18.652,18.652,0,0,1-6.224,9.5,16.8,16.8,0,0,1-11.556,3.486v.006l-.146.015H1491.6c-.3,0-.479,0-.582-.01v.01Q1490.652,1561.21,1490.291,1561.21ZM1507.652,1493a28.438,28.438,0,0,0-8.674,1.367,26.33,26.33,0,0,0-12.3,8.144,21.952,21.952,0,0,0-5.081,14.309,7.526,7.526,0,0,1-.22,1.852,7.64,7.64,0,0,1-.652,1.717,7.864,7.864,0,0,1-1.041,1.517,8.056,8.056,0,0,1-1.385,1.254,18.665,18.665,0,0,0-7.192,10.5,23.164,23.164,0,0,0,.308,12.638,21.4,21.4,0,0,0,6.93,10.5,18.9,18.9,0,0,0,12.663,4.1h52.127v-.025l.156-.005a16.544,16.544,0,0,0,11.512-3.414,18.361,18.361,0,0,0,6.124-9.357,20.666,20.666,0,0,0,.12-11.294,16.316,16.316,0,0,0-6.49-9.2,9.048,9.048,0,0,1-1.635-1.429,8.232,8.232,0,0,1-1.209-1.754,7.239,7.239,0,0,1-.678-1.994,6.678,6.678,0,0,1-.039-2.143h0a12.667,12.667,0,0,0-.845-6.574,15.287,15.287,0,0,0-9.568-8.691,12.693,12.693,0,0,0-6.62-.219,6.908,6.908,0,0,1-2.169.171,7.289,7.289,0,0,1-2.084-.484,7.781,7.781,0,0,1-1.876-1.058,8.045,8.045,0,0,1-1.545-1.554,22.041,22.041,0,0,0-12.516-8.161A25.733,25.733,0,0,0,1507.652,1493Z" transform="translate(-1470.078 -1492.712)"></path></g></g><g transform="translate(1501.822 1519.352)"><path class="c" d="M1898.615,1754.081h-40.328a1.776,1.776,0,0,1-1.777-1.777v-57.309a1.777,1.777,0,0,1,1.777-1.777h40.328a1.776,1.776,0,0,1,1.777,1.777V1752.3a1.776,1.776,0,0,1-1.777,1.777Z" transform="translate(-1856.364 -1693.072)"></path><path class="b" d="M1897.667,1753.278h-40.328a1.923,1.923,0,0,1-1.923-1.923v-57.309a1.923,1.923,0,0,1,1.923-1.923h40.328a1.923,1.923,0,0,1,1.923,1.923v57.309a1.923,1.923,0,0,1-1.923,1.923Zm-40.328-60.863a1.631,1.631,0,0,0-1.631,1.631v57.309a1.631,1.631,0,0,0,1.631,1.631h40.328a1.631,1.631,0,0,0,1.631-1.631v-57.309a1.63,1.63,0,0,0-1.631-1.631Z" transform="translate(-1855.416 -1692.123)"></path></g><g transform="translate(1502.879 1519.351)"><path class="c" d="M1906.526,1754.075H1866.2a1.777,1.777,0,0,1-1.777-1.777v-57.309a1.776,1.776,0,0,1,1.777-1.777h40.328a1.776,1.776,0,0,1,1.777,1.777V1752.3a1.777,1.777,0,0,1-1.777,1.777Z" transform="translate(-1864.275 -1693.066)"></path><path class="b" d="M1905.577,1753.272h-40.328a1.923,1.923,0,0,1-1.923-1.923V1694.04a1.923,1.923,0,0,1,1.923-1.923h40.328a1.923,1.923,0,0,1,1.923,1.923v57.309a1.923,1.923,0,0,1-1.923,1.923Zm-40.328-60.862a1.631,1.631,0,0,0-1.631,1.631v57.309a1.631,1.631,0,0,0,1.631,1.631h40.328a1.63,1.63,0,0,0,1.63-1.631V1694.04a1.63,1.63,0,0,0-1.63-1.631Z" transform="translate(-1863.326 -1692.117)"></path></g><g transform="translate(1505.449 1522.607)"><path class="d" d="M1920.927,1721.014H1883.66v-3.431h37.268v3.431Z" transform="translate(-1883.514 -1717.436)"></path><path class="b" d="M1920.125,1720.211h-37.56v-3.724h37.56Zm-37.267-.292h36.974v-3.139h-36.974Z" transform="translate(-1882.565 -1716.487)"></path></g><g transform="translate(1505.449 1528.261)"><path class="d" d="M1904.962,1763.341h-21.3v-3.431h21.3v3.431Z" transform="translate(-1883.514 -1759.764)"></path><path class="b" d="M1904.16,1762.538h-21.595v-3.724h21.595Zm-21.3-.292h21.01v-3.139h-21.01Z" transform="translate(-1882.565 -1758.814)"></path></g><g transform="translate(1505.449 1539.961)"><path class="d" d="M1912.762,1850.915h-29.1v-3.432h29.1v3.432Z" transform="translate(-1883.514 -1847.337)"></path><path class="b" d="M1911.959,1850.113h-29.394v-3.724h29.394Zm-29.1-.292h28.809v-3.139h-28.809Z" transform="translate(-1882.565 -1846.389)"></path></g><g transform="translate(1505.449 1551.367)"><path class="d" d="M1912.762,1936.3h-29.1v-3.432h29.1v3.432Z" transform="translate(-1883.514 -1932.721)"></path><path class="b" d="M1911.959,1935.5h-29.394v-3.724h29.394Zm-29.1-.292h28.809v-3.139h-28.809Z" transform="translate(-1882.565 -1931.772)"></path></g><g transform="translate(1505.449 1535.163)"><path class="d" d="M1920.927,1815H1883.66v-3.432h37.268V1815Z" transform="translate(-1883.514 -1811.423)"></path><path class="b" d="M1920.125,1814.2h-37.56v-3.724h37.56Zm-37.267-.293h36.974v-3.139h-36.974Z" transform="translate(-1882.565 -1810.475)"></path></g><g transform="translate(1505.449 1545.363)"><path class="d" d="M1920.927,1891.356H1883.66v-3.432h37.268v3.432Z" transform="translate(-1883.514 -1887.779)"></path><path class="b" d="M1920.125,1890.554h-37.56v-3.724h37.56Zm-37.267-.292h36.974v-3.139h-36.974Z" transform="translate(-1882.565 -1886.83)"></path></g><g transform="translate(1505.472 1557.279)"><path class="d" d="M1919.474,1980.552h-35.641v-3.432h35.641v3.432Z" transform="translate(-1883.687 -1976.975)"></path><path class="b" d="M1918.672,1979.75h-35.933v-3.724h35.933Zm-35.641-.292h35.348v-3.139h-35.348Z" transform="translate(-1882.739 -1976.026)"></path></g><g transform="translate(1505.472 1563.214)"><path class="d" d="M1919.474,2024.974h-35.641v-3.431h35.641v3.431Z" transform="translate(-1883.687 -2021.396)"></path><path class="b" d="M1918.672,2024.171h-35.933v-3.724h35.933Zm-35.641-.292h35.348v-3.139h-35.348Z" transform="translate(-1882.739 -2020.447)"></path></g><g transform="translate(1505.472 1569.148)"><path class="d" d="M1919.474,2069.4h-35.641v-3.431h35.641v3.431Z" transform="translate(-1883.687 -2065.818)"></path><path class="b" d="M1918.672,2068.593h-35.933v-3.724h35.933Zm-35.641-.292h35.348v-3.139h-35.348Z" transform="translate(-1882.739 -2064.869)"></path></g><g transform="translate(1476.625 1526.411)"><g transform="translate(26.682 1.366)"><path class="e" d="M1897.782,1761.46a17.666,17.666,0,1,0,5.174,12.491A17.61,17.61,0,0,0,1897.782,1761.46Zm-22.592,22.592a14.285,14.285,0,1,1,10.1,4.183A14.24,14.24,0,0,1,1875.19,1784.052Z" transform="translate(-1867.479 -1756.14)"></path><path class="b" d="M1884.341,1790.814a17.811,17.811,0,1,1,12.595-5.217A17.695,17.695,0,0,1,1884.341,1790.814Zm0-35.33a17.518,17.518,0,1,0,12.388,5.131A17.4,17.4,0,0,0,1884.341,1755.484Zm0,31.949a14.431,14.431,0,1,1,10.2-4.227A14.336,14.336,0,0,1,1884.341,1787.433Zm-10-4.433a14.138,14.138,0,1,0-4.141-10,14.045,14.045,0,0,0,4.141,10Z" transform="translate(-1866.53 -1755.191)"></path></g><g transform="translate(13.728 27.334)"><path class="f" d="M1774.855,1973.248l-1.872-1.873-1.873-1.872,9.192-9.192,9.191-9.192,1.873,1.872,1.872,1.872-9.191,9.192Z" transform="translate(-1770.904 -1950.913)"></path><path class="b" d="M1773.515,1972.114l-3.952-3.952.1-.1,18.487-18.487,3.952,3.951-.1.1Zm-3.538-3.952,3.538,3.538,18.176-18.177-3.538-3.538Z" transform="translate(-1769.563 -1949.572)"></path></g><g transform="translate(1.684 39.311)"><path class="f" d="M1685.893,2062.374l-2.547-2.547-2.547-2.547a1.019,1.019,0,0,1,0-1.44l7.61-7.61,7.61-7.61a1.019,1.019,0,0,1,1.441,0l2.547,2.547,2.547,2.547a1.019,1.019,0,0,1,0,1.44l-7.61,7.61-7.61,7.61a1.019,1.019,0,0,1-1.441,0Z" transform="translate(-1680.355 -2040.176)"></path><path class="b" d="M1685.664,2061.871a1.157,1.157,0,0,1-.823-.341l-5.094-5.093a1.165,1.165,0,0,1,0-1.647l15.22-15.22a1.166,1.166,0,0,1,1.647,0l5.093,5.094a1.165,1.165,0,0,1,0,1.647l-15.219,15.219A1.158,1.158,0,0,1,1685.664,2061.871Zm10.126-22.35a.868.868,0,0,0-.617.256L1679.954,2055a.872.872,0,0,0,0,1.234l5.093,5.094a.873.873,0,0,0,1.234,0l15.219-15.22a.872.872,0,0,0,0-1.233l-5.094-5.093A.868.868,0,0,0,1695.79,2039.521Z" transform="translate(-1679.406 -2039.228)"></path></g><g transform="translate(12.183 26.017)"><path class="f" d="M1763.292,1963.389l-1.873-1.872-1.872-1.872,9.192-9.192,9.192-9.192,1.872,1.873,1.873,1.872-9.192,9.192Z" transform="translate(-1759.34 -1941.054)"></path><path class="b" d="M1761.951,1962.254,1758,1958.3l.1-.1,18.487-18.487,3.952,3.952-.1.1Zm-3.538-3.951,3.538,3.538,18.177-18.177-3.538-3.538Z" transform="translate(-1757.999 -1939.713)"></path></g><g transform="translate(24.861 0)"><path class="e" d="M1884.148,1751.234a17.666,17.666,0,1,0,5.174,12.491A17.61,17.61,0,0,0,1884.148,1751.234Zm-22.592,22.592a14.285,14.285,0,1,1,10.1,4.184A14.239,14.239,0,0,1,1861.556,1773.826Z" transform="translate(-1853.845 -1745.914)"></path><path class="b" d="M1870.708,1780.589a17.811,17.811,0,1,1,12.594-5.217A17.695,17.695,0,0,1,1870.708,1780.589Zm0-35.331a17.518,17.518,0,1,0,12.388,5.131A17.4,17.4,0,0,0,1870.708,1745.258Zm0,31.95a14.43,14.43,0,1,1,10.2-4.227A14.336,14.336,0,0,1,1870.708,1777.208Zm0-28.569a14.138,14.138,0,1,0,10,4.141A14.046,14.046,0,0,0,1870.708,1748.639Z" transform="translate(-1852.896 -1744.966)"></path></g><g transform="translate(0 37.455)"><path class="f" d="M1673.29,2048.668l-2.547-2.547-2.547-2.547a1.018,1.018,0,0,1,0-1.44l7.7-7.7,7.7-7.7a1.019,1.019,0,0,1,1.441,0l2.547,2.546,2.547,2.547a1.019,1.019,0,0,1,0,1.441l-7.7,7.7-7.7,7.7a1.018,1.018,0,0,1-1.44,0Z" transform="translate(-1667.752 -2026.282)"></path><path class="b" d="M1673.062,2048.164a1.158,1.158,0,0,1-.824-.341l-5.093-5.093a1.165,1.165,0,0,1,0-1.647l15.408-15.408a1.164,1.164,0,0,1,1.647,0l5.094,5.093a1.166,1.166,0,0,1,0,1.647l-15.408,15.408A1.157,1.157,0,0,1,1673.062,2048.164Zm10.315-22.539a.866.866,0,0,0-.617.256l-15.408,15.408a.873.873,0,0,0,0,1.234l5.094,5.093a.872.872,0,0,0,1.234,0l15.408-15.408a.872.872,0,0,0,0-1.234l-5.093-5.093A.866.866,0,0,0,1683.377,2025.625Z" transform="translate(-1666.804 -2025.333)"></path></g></g><g transform="translate(1512.078 1537.022)"><path class="g" d="M1933.65,1833.361a7.507,7.507,0,1,0,2.2-5.308A7.484,7.484,0,0,0,1933.65,1833.361Z" transform="translate(-1933.455 -1825.659)"></path><path class="b" d="M1939.891,1839.8a7.7,7.7,0,1,1,5.446-2.256A7.651,7.651,0,0,1,1939.891,1839.8Zm0-15.014a7.312,7.312,0,1,0,5.17,2.142A7.264,7.264,0,0,0,1939.891,1824.784Z" transform="translate(-1932.189 -1824.394)"></path></g></g></svg>