<svg xmlns="http://www.w3.org/2000/svg" xmlns:xlink="http://www.w3.org/1999/xlink" viewBox="0 0 776 437"><defs><style>.cls-1{fill:#fff;}.cls-2,.cls-3,.cls-5{stroke:#2d3076;}.cls-2,.cls-3,.cls-4,.cls-5{stroke-miterlimit:10;}.cls-2{opacity:0.1;fill:url(#linear-gradient);}.cls-3{fill:#0c7ff2;}.cls-4{fill:#01c7d4;stroke:#2c3177;}.cls-5{font-size:47.34px;fill:#cee0f2;font-family:Rubik-Bold, Rubik;font-weight:700;}</style><linearGradient id="linear-gradient" x1="213.61" y1="222" x2="560.39" y2="222" gradientUnits="userSpaceOnUse"><stop offset="0" stop-color="#6b7e8f"></stop><stop offset="1" stop-color="#b6c6d6"></stop></linearGradient></defs><g id="Layer_2" data-name="Layer 2"><g id="Layer_1-2" data-name="Layer 1"><rect class="cls-1" width="776" height="437"></rect><circle class="cls-2" cx="387" cy="222" r="173.39"></circle><rect class="cls-3" x="476" y="218" width="85" height="11"></rect><rect class="cls-3" x="417" y="124" width="85" height="11" transform="translate(43.01 362.85) rotate(-45)"></rect><rect class="cls-3" x="274" y="121" width="85" height="11" transform="translate(450.85 439.75) rotate(-135)"></rect><rect class="cls-3" x="218.99" y="215.01" width="85.01" height="11" transform="translate(523.05 440.97) rotate(179.99)"></rect><rect class="cls-3" x="268.99" y="325.02" width="85.02" height="11" transform="translate(765.67 331.92) rotate(133.48)"></rect><rect class="cls-3" x="417.99" y="319.02" width="85.02" height="11" transform="translate(571.32 876.86) rotate(-136.52)"></rect><circle class="cls-4" cx="498.5" cy="89.5" r="26.5"></circle><circle class="cls-4" cx="490.5" cy="353.5" r="26.5"></circle><circle class="cls-4" cx="562.5" cy="221.5" r="26.5"></circle><circle class="cls-4" cx="218.5" cy="221.5" r="26.5"></circle><circle class="cls-4" cx="280.5" cy="89.5" r="26.5"></circle><circle class="cls-4" cx="285.5" cy="362.5" r="26.5"></circle><circle class="cls-3" cx="387" cy="222" r="97.5"></circle><text class="cls-5" transform="translate(344.08 240.52)">API</text></g></g></svg>