<svg xmlns="http://www.w3.org/2000/svg" width="182.459" height="135.03" viewBox="0 0 182.459 135.03"><defs><style>.a{fill:#9caab8;}.b{fill:#24313e;}.c{fill:#f5f7f9;}.d{fill:#0c7ff2;}.e{fill:#ebf0f5;}.f{fill:#455666;}.g{fill:#01c7d4;}.h{fill:#031439;}.i{fill:#fff;}.j{fill:#3ab2d0;}</style></defs><g transform="translate(-7727.341 1914.661)"><g transform="translate(7727.341 -1914.661)"><g transform="translate(0 0.023)"><path class="a" d="M7881.3-1798.987l-74.529.33-74.529.329a2.4,2.4,0,0,1-1.709-.7,2.4,2.4,0,0,1-.714-1.7l-.24-54.376-.239-54.376a2.4,2.4,0,0,1,.7-1.709,2.4,2.4,0,0,1,1.7-.714l74.529-.33,74.529-.329a2.4,2.4,0,0,1,1.709.7,2.411,2.411,0,0,1,.715,1.7l.239,54.376.24,54.376a2.4,2.4,0,0,1-.7,1.709A2.4,2.4,0,0,1,7881.3-1798.987Z" transform="translate(-7728.881 1913.023)"></path><path class="b" d="M7730.692-1799.408a2.866,2.866,0,0,1-2.025-.838,2.866,2.866,0,0,1-.847-2.022l-.239-54.376-.24-54.376a2.866,2.866,0,0,1,.833-2.034,2.865,2.865,0,0,1,2.026-.851l74.53-.329,74.529-.329h.013a2.863,2.863,0,0,1,2.025.837,2.863,2.863,0,0,1,.847,2.022l.239,54.376.24,54.376a2.869,2.869,0,0,1-.212,1.1,2.885,2.885,0,0,1-.62.934,2.871,2.871,0,0,1-.929.628,2.865,2.865,0,0,1-1.1.222l-74.529.329-74.53.329h-.013Zm148.58-114.235h-.009l-74.53.329-74.529.329a1.948,1.948,0,0,0-1.377.579,1.944,1.944,0,0,0-.565,1.382l.239,54.376.239,54.376a1.947,1.947,0,0,0,.576,1.374,1.945,1.945,0,0,0,1.376.569h.009l74.53-.329,74.528-.329a1.948,1.948,0,0,0,.747-.151,1.951,1.951,0,0,0,.632-.427,1.945,1.945,0,0,0,.421-.635,1.953,1.953,0,0,0,.145-.748l-.24-54.376-.239-54.376a1.948,1.948,0,0,0-.576-1.374A1.948,1.948,0,0,0,7879.272-1913.643Z" transform="translate(-7727.341 1914.563)"></path></g><g transform="translate(5.116)"><path class="c" d="M7903.539-1799.085l-74.529.329-74.529.329a2.4,2.4,0,0,1-1.709-.7,2.4,2.4,0,0,1-.714-1.7l-.239-54.376-.24-54.376a2.406,2.406,0,0,1,.7-1.709,2.4,2.4,0,0,1,1.7-.714l74.529-.329,74.529-.329a2.4,2.4,0,0,1,1.709.7,2.4,2.4,0,0,1,.715,1.7l.239,54.376.24,54.376a2.4,2.4,0,0,1-.7,1.709A2.4,2.4,0,0,1,7903.539-1799.085Z" transform="translate(-7751.118 1913.121)"></path><path class="b" d="M7752.93-1799.506a2.863,2.863,0,0,1-2.025-.837,2.862,2.862,0,0,1-.847-2.022l-.24-54.376-.24-54.376a2.865,2.865,0,0,1,.833-2.034,2.865,2.865,0,0,1,2.026-.851l74.53-.329,74.53-.329h.013a2.872,2.872,0,0,1,1.093.215,2.874,2.874,0,0,1,.928.618,2.865,2.865,0,0,1,.628.928,2.864,2.864,0,0,1,.222,1.1l.24,54.376.24,54.376a2.869,2.869,0,0,1-.212,1.1,2.872,2.872,0,0,1-.621.934,2.862,2.862,0,0,1-.929.628,2.873,2.873,0,0,1-1.1.222v0l-74.529.329-74.529.329h-.013Zm148.58-114.235h-.008l-74.53.329-74.529.329a1.948,1.948,0,0,0-1.377.578,1.947,1.947,0,0,0-.566,1.382l.24,54.376.24,54.376a1.948,1.948,0,0,0,.576,1.374,1.945,1.945,0,0,0,1.376.569h.009l74.53-.329,74.529-.329a1.949,1.949,0,0,0,.747-.151,1.956,1.956,0,0,0,.631-.427,1.946,1.946,0,0,0,.421-.635,1.935,1.935,0,0,0,.144-.748l-.24-54.376-.239-54.376a1.948,1.948,0,0,0-.576-1.374A1.948,1.948,0,0,0,7901.509-1913.741Z" transform="translate(-7749.578 1914.661)"></path></g><g transform="translate(5.118 0.118)"><path class="d" d="M7902.489-1891.36l-74.058.328-74.058.327a2.7,2.7,0,0,1-1.917-.784,2.7,2.7,0,0,1-.8-1.911l-.034-7.688-.034-7.688a2.7,2.7,0,0,1,.785-1.918,2.7,2.7,0,0,1,1.911-.8l74.058-.327,74.058-.327a2.7,2.7,0,0,1,1.918.784,2.7,2.7,0,0,1,.8,1.911l.034,7.688.034,7.688a2.7,2.7,0,0,1-.785,1.918A2.7,2.7,0,0,1,7902.489-1891.36Z" transform="translate(-7751.126 1912.609)"></path><path class="b" d="M7752.82-1891.785a3.157,3.157,0,0,1-1.205-.237,3.147,3.147,0,0,1-1.023-.681,3.166,3.166,0,0,1-.693-1.024,3.158,3.158,0,0,1-.245-1.212l-.033-7.688-.034-7.688a3.16,3.16,0,0,1,.919-2.243,3.157,3.157,0,0,1,2.234-.939l74.059-.327,74.058-.327h.014a3.157,3.157,0,0,1,2.233.923,3.157,3.157,0,0,1,.934,2.23l.034,7.688.034,7.688a3.16,3.16,0,0,1-.919,2.243,3.159,3.159,0,0,1-2.234.939l-74.059.327-74.057.327h-.016Zm148.049-21.444h-.01l-74.059.327-74.058.327a2.24,2.24,0,0,0-1.585.666,2.243,2.243,0,0,0-.652,1.591l.034,7.688.034,7.688a2.244,2.244,0,0,0,.174.86,2.243,2.243,0,0,0,.491.726,2.234,2.234,0,0,0,.727.483,2.239,2.239,0,0,0,.854.168h.011l74.059-.327,74.057-.327,0,.23v0l0-.23a2.241,2.241,0,0,0,1.586-.666,2.244,2.244,0,0,0,.652-1.591l-.034-7.688-.034-7.688a2.24,2.24,0,0,0-.663-1.582A2.239,2.239,0,0,0,7900.869-1913.229Z" transform="translate(-7749.586 1914.149)"></path></g><g transform="translate(11.411 26.416)"><path class="e" d="M7795.666-1791.028l-7.9.035-7.9.035a.884.884,0,0,1-.628-.257.885.885,0,0,1-.263-.626l-.011-2.52-.011-2.519a.886.886,0,0,1,.257-.629.884.884,0,0,1,.626-.263l7.9-.035,7.9-.035a.883.883,0,0,1,.628.257.883.883,0,0,1,.263.626l.011,2.519.011,2.52a.883.883,0,0,1-.257.628A.884.884,0,0,1,7795.666-1791.028Z" transform="translate(-7778.483 1798.301)"></path><path class="b" d="M7778.312-1792.038a1.344,1.344,0,0,1-.95-.393,1.341,1.341,0,0,1-.4-.948l-.011-2.52-.011-2.52a1.343,1.343,0,0,1,.391-.954,1.343,1.343,0,0,1,.95-.4l7.905-.035,7.9-.035h.006a1.342,1.342,0,0,1,.95.393,1.341,1.341,0,0,1,.4.948l.011,2.52.011,2.52a1.346,1.346,0,0,1-.391.954,1.344,1.344,0,0,1-.951.4l-7.9.035-7.9.035h-.006Zm15.787-6.883h0l-7.9.035-7.905.035a.427.427,0,0,0-.3.127.428.428,0,0,0-.124.3l.012,2.52.011,2.519a.426.426,0,0,0,.126.3.425.425,0,0,0,.3.125h0l7.9-.035,7.905-.035a.427.427,0,0,0,.3-.127.428.428,0,0,0,.124-.3l-.012-2.52-.011-2.519a.427.427,0,0,0-.126-.3A.426.426,0,0,0,7794.1-1798.921Z" transform="translate(-7776.942 1799.841)"></path></g><g transform="translate(11.326 6.759)"><path class="d" d="M7800.2-1874.792l-10.244.045-10.245.045a1.1,1.1,0,0,1-.782-.32,1.1,1.1,0,0,1-.327-.78l-.014-3.139-.015-3.138a1.1,1.1,0,0,1,.321-.783,1.1,1.1,0,0,1,.779-.327l10.245-.045,10.244-.045a1.1,1.1,0,0,1,.783.32,1.107,1.107,0,0,1,.327.78l.014,3.139.014,3.139a1.1,1.1,0,0,1-.32.783A1.1,1.1,0,0,1,7800.2-1874.792Z" transform="translate(-7778.109 1883.74)"></path><path class="b" d="M7778.163-1875.782a1.562,1.562,0,0,1-.6-.117,1.566,1.566,0,0,1-.506-.337,1.559,1.559,0,0,1-.343-.506,1.552,1.552,0,0,1-.121-.6l-.014-3.139-.014-3.138a1.56,1.56,0,0,1,.454-1.108,1.561,1.561,0,0,1,1.1-.464l10.244-.045,10.244-.045h.008a1.558,1.558,0,0,1,.6.117,1.561,1.561,0,0,1,.506.336,1.577,1.577,0,0,1,.343.506,1.551,1.551,0,0,1,.12.6l.015,3.138.014,3.139a1.559,1.559,0,0,1-.454,1.108,1.56,1.56,0,0,1-1.1.464v0l-10.244.045-10.245.045h-.007Zm20.462-8.578h0l-10.245.045-10.244.045a.642.642,0,0,0-.455.191.642.642,0,0,0-.187.457l.014,3.139.014,3.138a.64.64,0,0,0,.051.247.635.635,0,0,0,.141.209.629.629,0,0,0,.208.137.7.7,0,0,0,.249.049l10.245-.045,10.244-.045a.642.642,0,0,0,.455-.191.641.641,0,0,0,.187-.457l-.014-3.138-.014-3.139a.639.639,0,0,0-.05-.247.652.652,0,0,0-.141-.208.642.642,0,0,0-.209-.139A.64.64,0,0,0,7798.625-1884.36Z" transform="translate(-7776.57 1885.28)"></path></g><g transform="translate(114.048 6.306)"><path class="e" d="M8246.694-1876.766l-10.244.045-10.245.045a1.1,1.1,0,0,1-.782-.32,1.1,1.1,0,0,1-.328-.78l-.014-3.139-.014-3.139a1.1,1.1,0,0,1,.32-.783,1.1,1.1,0,0,1,.78-.327l10.244-.045,10.245-.045a1.1,1.1,0,0,1,.782.32,1.1,1.1,0,0,1,.327.78l.014,3.139.014,3.139a1.1,1.1,0,0,1-.32.783A1.1,1.1,0,0,1,8246.694-1876.766Z" transform="translate(-8224.606 1885.713)"></path><path class="b" d="M8224.66-1877.755a1.559,1.559,0,0,1-1.1-.456,1.567,1.567,0,0,1-.463-1.1l-.014-3.139-.014-3.139a1.59,1.59,0,0,1,.115-.6,1.594,1.594,0,0,1,.338-.509,1.568,1.568,0,0,1,.508-.342,1.558,1.558,0,0,1,.6-.121l10.245-.045,10.245-.045h.006a1.554,1.554,0,0,1,.6.117,1.54,1.54,0,0,1,.506.336,1.544,1.544,0,0,1,.343.506,1.554,1.554,0,0,1,.121.6l.013,3.138.015,3.139a1.556,1.556,0,0,1-.454,1.108,1.559,1.559,0,0,1-1.1.464v0l-10.245.045-10.244.045h-.007Zm20.461-8.578h0l-10.245.045-10.245.045a.633.633,0,0,0-.246.05.635.635,0,0,0-.209.141.638.638,0,0,0-.139.21.642.642,0,0,0-.049.247l.015,3.139.014,3.138a.658.658,0,0,0,.05.247.666.666,0,0,0,.141.208.659.659,0,0,0,.209.139.645.645,0,0,0,.246.048h0l10.245-.045,10.243-.045a.646.646,0,0,0,.456-.191.642.642,0,0,0,.186-.457l-.013-3.139-.015-3.139a.624.624,0,0,0-.05-.247.637.637,0,0,0-.141-.208.652.652,0,0,0-.208-.139A.645.645,0,0,0,8245.121-1886.333Z" transform="translate(-8223.066 1887.253)"></path></g><g transform="translate(142.231 6.246)"><path class="e" d="M8354.592-1877.026l-2.972.013-2.972.013a1.045,1.045,0,0,1-.742-.3,1.04,1.04,0,0,1-.309-.739l-.016-3.2-.014-3.2a1.041,1.041,0,0,1,.3-.741,1.042,1.042,0,0,1,.739-.31l2.971-.013,2.973-.013a1.044,1.044,0,0,1,.742.3,1.045,1.045,0,0,1,.31.739l.015,3.2.014,3.2a1.046,1.046,0,0,1-.3.741A1.043,1.043,0,0,1,8354.592-1877.026Z" transform="translate(-8347.108 1885.974)"></path><path class="b" d="M8347.1-1878.08a1.5,1.5,0,0,1-1.062-.439,1.5,1.5,0,0,1-.444-1.061l-.015-3.2-.014-3.2a1.517,1.517,0,0,1,.111-.577,1.507,1.507,0,0,1,.325-.49,1.506,1.506,0,0,1,.487-.33,1.506,1.506,0,0,1,.576-.116l2.973-.013,2.973-.013h.007a1.5,1.5,0,0,1,.573.113,1.493,1.493,0,0,1,.486.324,1.5,1.5,0,0,1,.33.487,1.513,1.513,0,0,1,.116.576l.015,3.2.014,3.2a1.5,1.5,0,0,1-.437,1.067,1.5,1.5,0,0,1-1.062.447l-2.972.013-2.974.013h-.006Zm5.916-8.514h0l-2.972.013-2.973.013a.584.584,0,0,0-.413.174.59.59,0,0,0-.171.416l.015,3.2.014,3.2a.585.585,0,0,0,.174.413.581.581,0,0,0,.413.171h0l2.973-.013,2.972-.013a.584.584,0,0,0,.413-.174.586.586,0,0,0,.171-.415l-.015-3.2-.014-3.2a.581.581,0,0,0-.046-.224.583.583,0,0,0-.128-.189.573.573,0,0,0-.189-.126A.582.582,0,0,0,8353.02-1886.594Z" transform="translate(-8345.568 1887.514)"></path></g><g transform="translate(11.471 39.925)"><path class="a" d="M7814.944-1732.572l-17.432.077-17.432.077a.85.85,0,0,1-.6-.247.853.853,0,0,1-.252-.6l-.01-2.422-.011-2.422a.848.848,0,0,1,.247-.6.851.851,0,0,1,.6-.252l17.432-.077,17.432-.077a.849.849,0,0,1,.6.247.851.851,0,0,1,.253.6l.011,2.422.011,2.422a.852.852,0,0,1-.248.6A.849.849,0,0,1,7814.944-1732.572Z" transform="translate(-7778.743 1739.582)"></path><path class="b" d="M7778.536-1733.5a1.313,1.313,0,0,1-.5-.1,1.306,1.306,0,0,1-.424-.282,1.3,1.3,0,0,1-.287-.424,1.313,1.313,0,0,1-.1-.5l-.011-2.422-.011-2.422a1.309,1.309,0,0,1,.381-.93,1.309,1.309,0,0,1,.927-.389l17.432-.077,17.432-.077h.006a1.311,1.311,0,0,1,.926.383,1.311,1.311,0,0,1,.387.924l.01,2.422.011,2.422a1.317,1.317,0,0,1-.1.5,1.3,1.3,0,0,1-.283.427,1.314,1.314,0,0,1-.424.287,1.309,1.309,0,0,1-.5.1l-17.432.077-17.432.077h-.006Zm34.842-6.7h0l-17.432.077-17.432.077a.389.389,0,0,0-.276.116.387.387,0,0,0-.114.278l.01,2.422.011,2.422a.393.393,0,0,0,.03.151.4.4,0,0,0,.085.127.4.4,0,0,0,.127.085.4.4,0,0,0,.149.029h0l17.432-.077,17.432-.077a.392.392,0,0,0,.15-.03.387.387,0,0,0,.127-.086.394.394,0,0,0,.085-.128.4.4,0,0,0,.029-.151l-.011-2.422-.011-2.422a.393.393,0,0,0-.116-.277A.392.392,0,0,0,7813.378-1740.2Z" transform="translate(-7777.202 1741.122)"></path></g><g transform="translate(11.517 50.37)"><path class="f" d="M7815.145-1687.171l-17.432.077-17.432.077a.851.851,0,0,1-.6-.247.851.851,0,0,1-.252-.6l-.011-2.422-.01-2.422a.848.848,0,0,1,.247-.6.849.849,0,0,1,.6-.252l17.432-.077,17.432-.077a.85.85,0,0,1,.6.247.853.853,0,0,1,.252.6l.01,2.422.011,2.422a.854.854,0,0,1-.247.6A.852.852,0,0,1,7815.145-1687.171Z" transform="translate(-7778.943 1694.181)"></path><path class="b" d="M7778.737-1688.1a1.311,1.311,0,0,1-.5-.1,1.33,1.33,0,0,1-.425-.282,1.312,1.312,0,0,1-.286-.424,1.286,1.286,0,0,1-.1-.5l-.011-2.422-.011-2.422a1.306,1.306,0,0,1,.1-.5,1.32,1.32,0,0,1,.283-.427,1.322,1.322,0,0,1,.425-.287,1.315,1.315,0,0,1,.5-.1l17.432-.077,17.432-.077h.006a1.311,1.311,0,0,1,.926.383,1.307,1.307,0,0,1,.388.924l.011,2.422.011,2.422a1.313,1.313,0,0,1-.381.929,1.311,1.311,0,0,1-.927.389l-17.432.077-17.432.077h-.006Zm34.842-6.7h0l-17.431.077-17.432.077a.39.39,0,0,0-.15.03.386.386,0,0,0-.128.086.407.407,0,0,0-.084.128.392.392,0,0,0-.029.15l.011,2.422.011,2.422a.409.409,0,0,0,.03.15.391.391,0,0,0,.086.127.374.374,0,0,0,.131.084.43.43,0,0,0,.147.03l17.432-.077,17.432-.077a.394.394,0,0,0,.277-.116.391.391,0,0,0,.113-.278l-.01-2.422-.012-2.422a.392.392,0,0,0-.115-.276A.392.392,0,0,0,7813.579-1694.8Z" transform="translate(-7777.403 1695.721)"></path></g><g transform="translate(11.567 61.648)"><path class="a" d="M7802.727-1639.012l-11.174.05-11.174.049a.735.735,0,0,1-.524-.215.734.734,0,0,1-.22-.523l-.01-2.1-.009-2.1a.737.737,0,0,1,.215-.525.74.74,0,0,1,.522-.219l11.175-.049,11.173-.05a.74.74,0,0,1,.525.215.734.734,0,0,1,.219.523l.01,2.1.009,2.1a.74.74,0,0,1-.214.525A.739.739,0,0,1,7802.727-1639.012Z" transform="translate(-7779.156 1645.161)"></path><path class="b" d="M7778.835-1639.993a1.2,1.2,0,0,1-.458-.09,1.193,1.193,0,0,1-.388-.258,1.2,1.2,0,0,1-.263-.388,1.206,1.206,0,0,1-.093-.459l-.009-2.1-.009-2.1a1.2,1.2,0,0,1,.088-.46,1.2,1.2,0,0,1,.259-.39,1.2,1.2,0,0,1,.389-.262,1.2,1.2,0,0,1,.459-.093l11.174-.05,11.174-.049h.005a1.2,1.2,0,0,1,.847.35,1.2,1.2,0,0,1,.354.846l.009,2.1.009,2.1a1.184,1.184,0,0,1-.089.46,1.194,1.194,0,0,1-.259.39,1.206,1.206,0,0,1-.388.263,1.206,1.206,0,0,1-.459.093l-11.174.049-11.174.049h-.005Zm22.33-5.788h0l-11.174.049-11.174.049a.283.283,0,0,0-.107.022.275.275,0,0,0-.09.061.282.282,0,0,0-.061.091.286.286,0,0,0-.021.108l.009,2.1.009,2.1a.3.3,0,0,0,.021.108.3.3,0,0,0,.062.091.278.278,0,0,0,.09.059.327.327,0,0,0,.109.022l11.174-.049,11.174-.049a.276.276,0,0,0,.107-.022.279.279,0,0,0,.091-.061.279.279,0,0,0,.061-.091.276.276,0,0,0,.021-.107l-.009-2.1-.009-2.1a.281.281,0,0,0-.083-.2A.279.279,0,0,0,7801.165-1645.781Z" transform="translate(-7777.616 1646.701)"></path></g><g transform="translate(11.607 70.889)"><path class="e" d="M7817.535-1598.845l-18.489.082-18.489.082a.739.739,0,0,1-.524-.215.738.738,0,0,1-.22-.523l-.01-2.1-.009-2.1a.737.737,0,0,1,.215-.525.738.738,0,0,1,.522-.219l18.49-.082,18.488-.082a.74.74,0,0,1,.525.215.738.738,0,0,1,.219.523l.01,2.1.009,2.1a.741.741,0,0,1-.214.525A.74.74,0,0,1,7817.535-1598.845Z" transform="translate(-7779.334 1604.994)"></path><path class="b" d="M7779.014-1599.761a1.2,1.2,0,0,1-.458-.09,1.2,1.2,0,0,1-.388-.258,1.2,1.2,0,0,1-.262-.388,1.191,1.191,0,0,1-.093-.46l-.01-2.1-.009-2.1a1.2,1.2,0,0,1,.089-.46,1.2,1.2,0,0,1,.259-.391,1.2,1.2,0,0,1,.388-.263,1.194,1.194,0,0,1,.459-.093l18.489-.082,18.489-.082h.005a1.2,1.2,0,0,1,.457.09,1.2,1.2,0,0,1,.389.258,1.189,1.189,0,0,1,.262.388,1.2,1.2,0,0,1,.093.459l.009,2.1.009,2.1a1.182,1.182,0,0,1-.089.46,1.2,1.2,0,0,1-.259.39,1.2,1.2,0,0,1-.388.263,1.2,1.2,0,0,1-.459.093l-18.49.082-18.489.082h-.005Zm36.96-5.853h0l-18.489.082-18.489.082a.278.278,0,0,0-.107.022.288.288,0,0,0-.091.062.282.282,0,0,0-.06.091.277.277,0,0,0-.021.108l.009,2.1.01,2.1a.275.275,0,0,0,.022.107.273.273,0,0,0,.062.091.293.293,0,0,0,.088.063.225.225,0,0,0,.11.019l18.489-.082,18.49-.082a.282.282,0,0,0,.107-.021.281.281,0,0,0,.091-.062.276.276,0,0,0,.061-.091.284.284,0,0,0,.021-.108l-.009-2.1-.009-2.1a.268.268,0,0,0-.022-.107.281.281,0,0,0-.061-.091.287.287,0,0,0-.091-.06A.277.277,0,0,0,7815.974-1605.614Z" transform="translate(-7777.794 1606.534)"></path></g><g transform="translate(11.652 81.013)"><path class="a" d="M7803.1-1554.837l-11.174.049-11.174.049a.737.737,0,0,1-.524-.215.731.731,0,0,1-.22-.523l-.01-2.1-.009-2.1a.74.74,0,0,1,.214-.525.741.741,0,0,1,.523-.219l11.175-.05,11.173-.049a.739.739,0,0,1,.525.215.734.734,0,0,1,.219.523l.01,2.1.009,2.1a.74.74,0,0,1-.214.525A.74.74,0,0,1,7803.1-1554.837Z" transform="translate(-7779.527 1560.986)"></path><path class="b" d="M7779.206-1555.818a1.2,1.2,0,0,1-.457-.09,1.2,1.2,0,0,1-.388-.258,1.2,1.2,0,0,1-.262-.388,1.2,1.2,0,0,1-.093-.459l-.009-2.1-.009-2.1a1.21,1.21,0,0,1,.088-.46,1.212,1.212,0,0,1,.259-.39,1.2,1.2,0,0,1,.388-.263,1.2,1.2,0,0,1,.459-.093l11.174-.049,11.174-.049h.005a1.194,1.194,0,0,1,.457.09,1.2,1.2,0,0,1,.388.258,1.2,1.2,0,0,1,.263.388,1.215,1.215,0,0,1,.093.459l.009,2.1.009,2.1a1.2,1.2,0,0,1-.089.46,1.193,1.193,0,0,1-.259.391,1.2,1.2,0,0,1-.389.263,1.2,1.2,0,0,1-.459.093l-11.174.049-11.174.049h-.006Zm22.33-5.788h0l-11.174.05-11.174.049a.283.283,0,0,0-.107.022.28.28,0,0,0-.09.061.269.269,0,0,0-.06.091.277.277,0,0,0-.021.108l.009,2.1.009,2.1a.274.274,0,0,0,.022.107.28.28,0,0,0,.062.091.272.272,0,0,0,.091.06.277.277,0,0,0,.106.021h0l11.174-.049,11.174-.049a.281.281,0,0,0,.107-.022.281.281,0,0,0,.091-.062.281.281,0,0,0,.061-.091.276.276,0,0,0,.021-.107l-.01-2.1-.009-2.1a.276.276,0,0,0-.022-.107.273.273,0,0,0-.061-.091.289.289,0,0,0-.091-.061A.282.282,0,0,0,7801.536-1561.606Z" transform="translate(-7777.987 1562.526)"></path></g><g transform="translate(11.693 90.254)"><path class="e" d="M7817.906-1514.67l-18.489.082-18.489.082a.739.739,0,0,1-.524-.215.738.738,0,0,1-.22-.523l-.009-2.1-.01-2.1a.737.737,0,0,1,.215-.525.739.739,0,0,1,.522-.219l18.49-.082,18.488-.082a.739.739,0,0,1,.525.215.734.734,0,0,1,.219.523l.01,2.1.009,2.1a.74.74,0,0,1-.214.525A.739.739,0,0,1,7817.906-1514.67Z" transform="translate(-7779.705 1520.819)"></path><path class="b" d="M7779.385-1515.586a1.2,1.2,0,0,1-.458-.09,1.207,1.207,0,0,1-.388-.258,1.207,1.207,0,0,1-.263-.388,1.2,1.2,0,0,1-.092-.459l-.01-2.1-.009-2.1a1.2,1.2,0,0,1,.089-.46,1.209,1.209,0,0,1,.259-.391,1.2,1.2,0,0,1,.388-.262,1.2,1.2,0,0,1,.459-.093l18.489-.082,18.49-.082h.005a1.2,1.2,0,0,1,.457.09,1.2,1.2,0,0,1,.388.258,1.185,1.185,0,0,1,.263.388,1.208,1.208,0,0,1,.093.459l.009,2.1.009,2.1a1.2,1.2,0,0,1-.089.46,1.211,1.211,0,0,1-.259.39,1.205,1.205,0,0,1-.388.263,1.2,1.2,0,0,1-.459.093l-18.49.082-18.489.082h0Zm36.96-5.853h0l-18.489.082-18.489.082a.287.287,0,0,0-.107.022.284.284,0,0,0-.091.061.28.28,0,0,0-.061.091.277.277,0,0,0-.021.108l.009,2.1.01,2.1a.285.285,0,0,0,.021.107.288.288,0,0,0,.062.091.288.288,0,0,0,.091.06.28.28,0,0,0,.107.021h0l18.489-.082,18.489-.082a.276.276,0,0,0,.107-.022.276.276,0,0,0,.091-.061.28.28,0,0,0,.061-.091.3.3,0,0,0,.021-.108l-.009-2.1-.009-2.1a.276.276,0,0,0-.022-.107.28.28,0,0,0-.061-.091.29.29,0,0,0-.091-.06A.282.282,0,0,0,7816.345-1521.439Z" transform="translate(-7778.165 1522.359)"></path></g><g transform="translate(33.324 26.319)"><path class="e" d="M7890.911-1791.449l-7.9.035-7.905.035a.883.883,0,0,1-.628-.257.882.882,0,0,1-.263-.626l-.011-2.519-.011-2.52a.885.885,0,0,1,.257-.628.885.885,0,0,1,.626-.263l7.9-.035,7.9-.035a.884.884,0,0,1,.628.257.884.884,0,0,1,.263.626l.011,2.519.011,2.52a.884.884,0,0,1-.257.628A.885.885,0,0,1,7890.911-1791.449Z" transform="translate(-7873.728 1798.722)"></path><path class="b" d="M7873.558-1792.458a1.342,1.342,0,0,1-.95-.393,1.338,1.338,0,0,1-.4-.948l-.011-2.52-.012-2.52a1.355,1.355,0,0,1,.1-.516,1.358,1.358,0,0,1,.291-.438,1.352,1.352,0,0,1,.436-.295,1.345,1.345,0,0,1,.515-.1l7.905-.035,7.9-.035h.007a1.347,1.347,0,0,1,.513.1,1.346,1.346,0,0,1,.436.29,1.354,1.354,0,0,1,.294.436,1.343,1.343,0,0,1,.1.516l.011,2.52.012,2.519a1.356,1.356,0,0,1-.1.516,1.345,1.345,0,0,1-.291.438,1.34,1.34,0,0,1-.436.295,1.343,1.343,0,0,1-.515.1l-7.905.035-7.9.035h-.006Zm15.788-6.883h0l-7.9.035-7.9.035a.418.418,0,0,0-.163.033.422.422,0,0,0-.138.093.428.428,0,0,0-.092.139.411.411,0,0,0-.032.163l.011,2.52.011,2.52a.422.422,0,0,0,.126.3.425.425,0,0,0,.3.125h0l7.9-.035,7.9-.035a.426.426,0,0,0,.164-.033.42.42,0,0,0,.138-.093.43.43,0,0,0,.092-.139.421.421,0,0,0,.032-.163l-.011-2.52-.011-2.519a.43.43,0,0,0-.033-.163.43.43,0,0,0-.093-.138.435.435,0,0,0-.138-.092A.429.429,0,0,0,7889.345-1799.342Z" transform="translate(-7872.188 1800.262)"></path></g><g transform="translate(60.645 26.147)"><path class="f" d="M8021.288-1792.2l-13.716.061-13.715.061a.884.884,0,0,1-.629-.257.885.885,0,0,1-.263-.626l-.012-2.519-.011-2.52a.884.884,0,0,1,.258-.628.883.883,0,0,1,.626-.263l13.716-.06,13.715-.061a.886.886,0,0,1,.629.257.885.885,0,0,1,.263.626l.011,2.519.012,2.52a.888.888,0,0,1-.257.629A.888.888,0,0,1,8021.288-1792.2Z" transform="translate(-7992.483 1799.471)"></path><path class="b" d="M7992.313-1793.156a1.343,1.343,0,0,1-.95-.393,1.339,1.339,0,0,1-.4-.948l-.011-2.52-.012-2.52a1.344,1.344,0,0,1,.391-.954,1.343,1.343,0,0,1,.95-.4l13.716-.061,13.716-.061h.006a1.342,1.342,0,0,1,.95.393,1.343,1.343,0,0,1,.4.948l.011,2.52.011,2.52a1.343,1.343,0,0,1-.391.954,1.344,1.344,0,0,1-.95.4l-13.716.061-13.716.061h-.005Zm27.409-6.935h0l-13.715.061-13.716.061a.425.425,0,0,0-.3.126.425.425,0,0,0-.124.3l.012,2.52.011,2.52a.423.423,0,0,0,.126.3.425.425,0,0,0,.3.125h0l13.716-.061,13.716-.061a.427.427,0,0,0,.3-.126.429.429,0,0,0,.124-.3l-.011-2.519-.011-2.52a.426.426,0,0,0-.126-.3A.425.425,0,0,0,8019.722-1800.091Z" transform="translate(-7990.943 1801.011)"></path></g><g transform="translate(128.553 25.232)"><path class="f" d="M8311.574-1796.175l-11.273.05-11.273.05a.886.886,0,0,1-.629-.257.884.884,0,0,1-.262-.626l-.012-2.52-.011-2.52a.88.88,0,0,1,.258-.628.884.884,0,0,1,.626-.263l11.272-.05,11.273-.05a.883.883,0,0,1,.628.257.885.885,0,0,1,.263.626l.012,2.52.011,2.52a.887.887,0,0,1-.257.628A.884.884,0,0,1,8311.574-1796.175Z" transform="translate(-8287.654 1803.448)"></path><path class="b" d="M8287.484-1797.155a1.343,1.343,0,0,1-.95-.393,1.339,1.339,0,0,1-.4-.949l-.011-2.519-.012-2.52a1.348,1.348,0,0,1,.391-.954,1.344,1.344,0,0,1,.951-.4l11.273-.05,11.273-.05h0a1.345,1.345,0,0,1,.95.393,1.34,1.34,0,0,1,.4.949l.011,2.519.012,2.52a1.345,1.345,0,0,1-.392.954,1.343,1.343,0,0,1-.95.4l-11.273.05-11.273.05h0Zm22.523-6.913h0l-11.273.05-11.272.05a.421.421,0,0,0-.3.126.42.42,0,0,0-.124.3l.011,2.52.011,2.519a.424.424,0,0,0,.126.3.425.425,0,0,0,.3.125h0l11.273-.05,11.273-.05a.424.424,0,0,0,.3-.127.424.424,0,0,0,.124-.3l-.011-2.519-.011-2.519a.429.429,0,0,0-.126-.3A.428.428,0,0,0,8310.008-1804.068Z" transform="translate(-8286.114 1804.988)"></path></g><g transform="translate(60.125 37.215)"><path class="e" d="M8081.454-1683.18l-44.2.2-44.2.2a2.071,2.071,0,0,1-1.471-.6,2.067,2.067,0,0,1-.615-1.466l-.141-31.784-.14-31.784a2.069,2.069,0,0,1,.6-1.471,2.068,2.068,0,0,1,1.465-.615l44.2-.2,44.2-.2a2.072,2.072,0,0,1,1.471.6,2.071,2.071,0,0,1,.615,1.466l.14,31.784.14,31.784a2.074,2.074,0,0,1-.6,1.471A2.07,2.07,0,0,1,8081.454-1683.18Z" transform="translate(-7990.225 1751.361)"></path><path class="b" d="M7991.5-1683.869a2.53,2.53,0,0,1-1.789-.739,2.532,2.532,0,0,1-.748-1.786l-.14-31.784-.141-31.784a2.531,2.531,0,0,1,.736-1.8,2.529,2.529,0,0,1,1.79-.752l44.2-.2,44.2-.2h.012a2.527,2.527,0,0,1,1.788.739,2.528,2.528,0,0,1,.748,1.786l.141,31.784.14,31.784a2.524,2.524,0,0,1-.187.972,2.533,2.533,0,0,1-.547.825,2.529,2.529,0,0,1-.82.555,2.538,2.538,0,0,1-.97.2v0l-44.2.2-44.2.2h-.011Zm88.123-68.112h-.007l-44.2.2-44.2.2a1.612,1.612,0,0,0-1.14.479,1.611,1.611,0,0,0-.469,1.144l.14,31.784.14,31.784a1.616,1.616,0,0,0,.477,1.138,1.613,1.613,0,0,0,1.14.471h.007l44.2-.2,44.2-.2a1.614,1.614,0,0,0,.618-.125,1.61,1.61,0,0,0,.522-.354,1.609,1.609,0,0,0,.349-.525,1.617,1.617,0,0,0,.12-.619l-.14-31.784-.141-31.784a1.609,1.609,0,0,0-.477-1.138A1.609,1.609,0,0,0,8079.623-1751.981Z" transform="translate(-7988.684 1752.901)"></path></g><g transform="translate(65.187 44.449)"><path class="f" d="M8041.028-1712.645l-13.716.061-13.715.061a.884.884,0,0,1-.628-.257.885.885,0,0,1-.263-.626l-.011-2.52-.011-2.52a.881.881,0,0,1,.257-.629.885.885,0,0,1,.626-.262l13.715-.061,13.716-.06a.883.883,0,0,1,.628.257.887.887,0,0,1,.263.626l.011,2.52.012,2.519a.888.888,0,0,1-.257.629A.885.885,0,0,1,8041.028-1712.645Z" transform="translate(-8012.224 1719.918)"></path><path class="b" d="M8012.053-1713.6a1.339,1.339,0,0,1-.513-.1,1.338,1.338,0,0,1-.435-.29,1.334,1.334,0,0,1-.295-.436,1.345,1.345,0,0,1-.1-.516l-.011-2.519-.011-2.519a1.355,1.355,0,0,1,.1-.516,1.342,1.342,0,0,1,.291-.438,1.348,1.348,0,0,1,.436-.295,1.341,1.341,0,0,1,.516-.1l13.716-.061,13.715-.061h.006a1.341,1.341,0,0,1,.513.1,1.341,1.341,0,0,1,.436.29,1.342,1.342,0,0,1,.294.436,1.345,1.345,0,0,1,.1.516l.011,2.519.011,2.519a1.346,1.346,0,0,1-.1.516,1.35,1.35,0,0,1-.291.438,1.338,1.338,0,0,1-.436.295,1.343,1.343,0,0,1-.516.1l-13.715.061-13.716.061h-.006Zm27.41-6.935h0l-13.716.061-13.715.061a.427.427,0,0,0-.163.033.43.43,0,0,0-.138.094.429.429,0,0,0-.092.139.44.44,0,0,0-.032.164l.012,2.52.011,2.52a.429.429,0,0,0,.033.163.425.425,0,0,0,.093.138.42.42,0,0,0,.138.092.424.424,0,0,0,.163.032h0l13.716-.061,13.715-.061a.426.426,0,0,0,.164-.033.416.416,0,0,0,.138-.094.42.42,0,0,0,.092-.139.44.44,0,0,0,.032-.164l-.011-2.519-.011-2.52a.43.43,0,0,0-.034-.163.417.417,0,0,0-.093-.138.432.432,0,0,0-.138-.092A.428.428,0,0,0,8039.462-1720.538Z" transform="translate(-8010.684 1721.458)"></path></g><g transform="translate(65.324 75.604)"><path class="f" d="M8041.625-1577.226l-13.716.061-13.716.061a.884.884,0,0,1-.628-.257.884.884,0,0,1-.263-.626l-.011-2.52-.012-2.519a.886.886,0,0,1,.257-.629.884.884,0,0,1,.626-.263l13.716-.061,13.716-.061a.883.883,0,0,1,.628.257.885.885,0,0,1,.263.626l.011,2.519.011,2.52a.883.883,0,0,1-.257.628A.884.884,0,0,1,8041.625-1577.226Z" transform="translate(-8012.82 1584.499)"></path><path class="b" d="M8012.649-1578.185a1.344,1.344,0,0,1-.95-.393,1.348,1.348,0,0,1-.4-.948l-.011-2.52-.011-2.519a1.34,1.34,0,0,1,.391-.954,1.343,1.343,0,0,1,.95-.4l13.716-.061,13.716-.061h.006a1.344,1.344,0,0,1,.95.393,1.343,1.343,0,0,1,.4.948l.011,2.52.012,2.52a1.345,1.345,0,0,1-.392.954,1.342,1.342,0,0,1-.95.4l-13.716.061-13.716.061h-.006Zm27.409-6.935h0l-13.716.061-13.715.061a.426.426,0,0,0-.3.126.427.427,0,0,0-.124.3l.011,2.519.012,2.519a.425.425,0,0,0,.126.3.426.426,0,0,0,.3.125h0l13.716-.061,13.716-.061a.426.426,0,0,0,.3-.126.428.428,0,0,0,.124-.3l-.011-2.519-.012-2.52a.42.42,0,0,0-.126-.3A.425.425,0,0,0,8040.059-1585.12Z" transform="translate(-8011.28 1586.04)"></path></g><g transform="translate(65.241 56.203)"><path class="e" d="M8094.362-1653.957l-40.076.177-40.076.177a1.231,1.231,0,0,1-.873-.357,1.23,1.23,0,0,1-.364-.869l-.026-5.973-.026-5.974a1.227,1.227,0,0,1,.357-.872,1.226,1.226,0,0,1,.868-.364l40.077-.177,40.077-.177a1.226,1.226,0,0,1,.872.357,1.23,1.23,0,0,1,.364.869l.026,5.974.026,5.973a1.23,1.23,0,0,1-.356.872A1.229,1.229,0,0,1,8094.362-1653.957Z" transform="translate(-8012.46 1668.826)"></path><path class="b" d="M8012.664-1654.682a1.685,1.685,0,0,1-1.193-.493,1.685,1.685,0,0,1-.5-1.191l-.026-5.974-.026-5.974a1.685,1.685,0,0,1,.491-1.2,1.686,1.686,0,0,1,1.193-.5l40.077-.177,40.076-.177h.008a1.688,1.688,0,0,1,.644.126,1.69,1.69,0,0,1,.547.364,1.716,1.716,0,0,1,.37.547,1.7,1.7,0,0,1,.13.647l.026,5.973.026,5.973a1.692,1.692,0,0,1-.125.648,1.7,1.7,0,0,1-.365.55,1.7,1.7,0,0,1-.547.37,1.691,1.691,0,0,1-.647.131l-40.076.177-40.077.177h-.007Zm80.1-14.764h0l-40.077.177-40.076.177a.771.771,0,0,0-.544.229.767.767,0,0,0-.223.546l.026,5.973.026,5.974a.769.769,0,0,0,.228.543.769.769,0,0,0,.544.225h0l40.077-.177,40.077-.177a.77.77,0,0,0,.3-.06.777.777,0,0,0,.25-.169.776.776,0,0,0,.166-.251.765.765,0,0,0,.057-.3l-.026-5.973-.026-5.974a.77.77,0,0,0-.06-.295.772.772,0,0,0-.168-.249.774.774,0,0,0-.249-.166A.774.774,0,0,0,8092.765-1669.446Z" transform="translate(-8010.92 1670.366)"></path></g><g transform="translate(65.376 86.798)"><path class="e" d="M8094.943-1522.32l-40.077.177-40.077.177a1.226,1.226,0,0,1-.872-.357,1.226,1.226,0,0,1-.365-.869l-.023-5.3-.023-5.3a1.228,1.228,0,0,1,.357-.872,1.228,1.228,0,0,1,.869-.365l40.077-.177,40.077-.177a1.23,1.23,0,0,1,.873.357,1.231,1.231,0,0,1,.364.869l.023,5.3.023,5.3a1.226,1.226,0,0,1-.356.872A1.228,1.228,0,0,1,8094.943-1522.32Z" transform="translate(-8013.046 1535.843)"></path><path class="b" d="M8013.244-1523.046a1.684,1.684,0,0,1-1.192-.493,1.683,1.683,0,0,1-.5-1.191l-.023-5.3-.023-5.3a1.684,1.684,0,0,1,.491-1.2,1.685,1.685,0,0,1,1.192-.5l40.077-.177,40.077-.177h.007a1.688,1.688,0,0,1,1.193.493,1.687,1.687,0,0,1,.5,1.191l.023,5.3.023,5.3a1.689,1.689,0,0,1-.125.648,1.685,1.685,0,0,1-.365.55,1.7,1.7,0,0,1-.547.37,1.686,1.686,0,0,1-.646.131l-40.077.177-40.076.177h-.008Zm80.106-13.417h0l-40.077.177-40.076.177a.768.768,0,0,0-.544.229.767.767,0,0,0-.225.546l.023,5.3.023,5.3a.769.769,0,0,0,.228.543.77.77,0,0,0,.544.225h0l40.077-.177,40.076-.177a.772.772,0,0,0,.3-.06.769.769,0,0,0,.249-.169.762.762,0,0,0,.166-.251.775.775,0,0,0,.058-.3l-.023-5.3-.023-5.3a.769.769,0,0,0-.228-.543A.769.769,0,0,0,8093.351-1536.463Z" transform="translate(-8011.506 1537.383)"></path></g></g><g transform="translate(7820.077 -1866.085)"><g transform="translate(0 0)"><path class="g" d="M8217.965-1658.753a42.633,42.633,0,0,1-12.525,30.241,42.633,42.633,0,0,1-30.241,12.526,42.634,42.634,0,0,1-30.241-12.526,42.633,42.633,0,0,1-12.526-30.241,42.633,42.633,0,0,1,12.526-30.241,42.633,42.633,0,0,1,30.241-12.526,42.633,42.633,0,0,1,30.241,12.526A42.633,42.633,0,0,1,8217.965-1658.753Z" transform="translate(-8131.972 1701.98)"></path><path class="h" d="M8173.659-1617.066a43.092,43.092,0,0,1-30.552-12.675,43.091,43.091,0,0,1-12.675-30.552,43.091,43.091,0,0,1,12.675-30.552,43.092,43.092,0,0,1,30.552-12.675,43.093,43.093,0,0,1,30.552,12.675,43.089,43.089,0,0,1,12.676,30.552,43.09,43.09,0,0,1-12.676,30.552A43.094,43.094,0,0,1,8173.659-1617.066Zm0-85.534a42.175,42.175,0,0,0-29.9,12.406,42.175,42.175,0,0,0-12.405,29.9,42.175,42.175,0,0,0,12.405,29.9,42.175,42.175,0,0,0,29.9,12.406,42.173,42.173,0,0,0,29.9-12.406,42.174,42.174,0,0,0,12.406-29.9,42.174,42.174,0,0,0-12.406-29.9A42.173,42.173,0,0,0,8173.659-1702.6Z" transform="translate(-8130.432 1703.52)"></path></g><g transform="translate(3.269 0)"><path class="g" d="M8232.176-1658.753a42.633,42.633,0,0,1-12.525,30.241,42.634,42.634,0,0,1-30.241,12.526,42.632,42.632,0,0,1-30.24-12.526,42.629,42.629,0,0,1-12.526-30.241,42.63,42.63,0,0,1,12.526-30.241,42.632,42.632,0,0,1,30.24-12.526,42.634,42.634,0,0,1,30.241,12.526A42.633,42.633,0,0,1,8232.176-1658.753Z" transform="translate(-8146.183 1701.98)"></path><path class="h" d="M8187.868-1617.066a43.092,43.092,0,0,1-30.552-12.675,43.093,43.093,0,0,1-12.675-30.552,43.092,43.092,0,0,1,12.675-30.552,43.092,43.092,0,0,1,30.552-12.675,43.1,43.1,0,0,1,30.553,12.675,43.1,43.1,0,0,1,12.675,30.552,43.1,43.1,0,0,1-12.675,30.552A43.1,43.1,0,0,1,8187.868-1617.066Zm0-85.534a42.175,42.175,0,0,0-29.9,12.406,42.173,42.173,0,0,0-12.405,29.9,42.173,42.173,0,0,0,12.405,29.9,42.175,42.175,0,0,0,29.9,12.406,42.172,42.172,0,0,0,29.9-12.406,42.173,42.173,0,0,0,12.405-29.9,42.173,42.173,0,0,0-12.405-29.9A42.172,42.172,0,0,0,8187.868-1702.6Z" transform="translate(-8144.642 1703.52)"></path></g><g transform="translate(15.445 25.357)"><g transform="translate(5.541 0)"><g transform="translate(0.46 0.46)"><path class="i" d="M8267.244-1578.719l-10.9-6.292-10.9-6.292-10.9,6.292-10.9,6.292v24.138a1.785,1.785,0,0,0,.239.893,1.791,1.791,0,0,0,.653.654l10.006,5.777,10.006,5.776a1.779,1.779,0,0,0,.893.239,1.779,1.779,0,0,0,.893-.239l10.006-5.776,10.006-5.777a1.791,1.791,0,0,0,.653-.654,1.8,1.8,0,0,0,.239-.893v-24.138Z" transform="translate(-8223.65 1591.303)"></path></g><path class="h" d="M8243.906-1542.322a2.261,2.261,0,0,1-.577-.075,2.245,2.245,0,0,1-.546-.225l-10-5.776-10.006-5.777a2.245,2.245,0,0,1-.821-.823,2.244,2.244,0,0,1-.3-1.123v-24.138a.457.457,0,0,1,.062-.23.462.462,0,0,1,.169-.168l10.9-6.292,10.9-6.292a.461.461,0,0,1,.229-.062.462.462,0,0,1,.23.062l10.9,6.292,10.9,6.292a.454.454,0,0,1,.169.168.467.467,0,0,1,.062.23v24.138a2.246,2.246,0,0,1-.3,1.123,2.251,2.251,0,0,1-.821.823l-10.006,5.777-10,5.776a2.261,2.261,0,0,1-.546.225A2.263,2.263,0,0,1,8243.906-1542.322Zm-21.336-37.671v23.872a1.329,1.329,0,0,0,.178.663,1.33,1.33,0,0,0,.484.486l10.006,5.777,10,5.776a1.328,1.328,0,0,0,.663.177,1.322,1.322,0,0,0,.663-.177l10.006-5.776,10-5.776a1.321,1.321,0,0,0,.485-.486,1.321,1.321,0,0,0,.179-.663v-23.872l-10.669-6.16-10.669-6.159-10.668,6.159Z" transform="translate(-8221.649 1593.303)"></path></g><g transform="translate(27.899 12.585)"><g transform="translate(0.46 0.46)"><path class="i" d="M8330.058-1515.672l7.168-4.311,7.169-4.311a4.009,4.009,0,0,0,1.809-2.393,4.012,4.012,0,0,0-.351-2.979l-1.892-3.469-1.892-3.468-10.618,6.385-10.618,6.385,1.811,3.32,1.811,3.32a4.009,4.009,0,0,0,2.479,1.956A4.006,4.006,0,0,0,8330.058-1515.672Z" transform="translate(-8320.833 1536.602)"></path></g><path class="h" d="M8326.455-1516.174a4.442,4.442,0,0,1-.592-.04,4.586,4.586,0,0,1-.592-.119,4.476,4.476,0,0,1-1.605-.8,4.466,4.466,0,0,1-1.155-1.374l-1.811-3.32-1.811-3.32a.45.45,0,0,1-.04-.341.453.453,0,0,1,.207-.274l10.617-6.385,10.618-6.385a.459.459,0,0,1,.174-.062.458.458,0,0,1,.184.012.465.465,0,0,1,.165.083.47.47,0,0,1,.118.141l1.893,3.468,1.892,3.468a4.474,4.474,0,0,1,.395,3.321,4.468,4.468,0,0,1-2.02,2.666l-7.168,4.311-7.168,4.311h0a4.565,4.565,0,0,1-1.115.481A4.408,4.408,0,0,1,8326.455-1516.174Zm-6.547-9.031,1.705,3.126,1.705,3.126a3.548,3.548,0,0,0,.919,1.092,3.547,3.547,0,0,0,1.275.64,3.554,3.554,0,0,0,1.423.093,3.558,3.558,0,0,0,1.346-.478l7.168-4.311,7.168-4.31a3.551,3.551,0,0,0,1.605-2.119,3.554,3.554,0,0,0-.314-2.639l-1.775-3.257-1.777-3.258-10.224,6.148Zm8.609,7.993h0Z" transform="translate(-8318.833 1538.603)"></path></g><g transform="translate(0.46 0.46)"><path class="i" d="M8199.566-1575.519l13.67-7.892,13.668-7.892" transform="translate(-8199.566 1591.303)"></path></g><path class="h" d="M8198.027-1576.6a.465.465,0,0,1-.229-.06.466.466,0,0,1-.172-.17.459.459,0,0,1-.045-.349.456.456,0,0,1,.214-.28l13.669-7.892,13.669-7.892a.457.457,0,0,1,.349-.046.458.458,0,0,1,.279.214.461.461,0,0,1,.047.349.465.465,0,0,1-.215.279l-13.669,7.892-13.669,7.892a.46.46,0,0,1-.113.047A.444.444,0,0,1,8198.027-1576.6Z" transform="translate(-8197.565 1593.304)"></path><g transform="translate(5.541 0)"><path class="g" d="M8245.446-1591.3l10.9,6.292,10.9,6.292-10.618,6.385-10.618,6.385-11.18-6.385-11.179-6.385,10.9-6.292Z" transform="translate(-8223.189 1591.763)"></path><path class="h" d="M8244.468-1567.028a.446.446,0,0,1-.116-.015.455.455,0,0,1-.111-.045l-11.18-6.385-11.18-6.385a.46.46,0,0,1-.169-.168.458.458,0,0,1-.062-.23.459.459,0,0,1,.062-.231.456.456,0,0,1,.169-.169l10.9-6.292,10.9-6.292a.461.461,0,0,1,.229-.062.462.462,0,0,1,.23.062l10.9,6.292,10.9,6.292a.457.457,0,0,1,.168.167.459.459,0,0,1,.063.228.452.452,0,0,1-.059.229.469.469,0,0,1-.164.17l-10.618,6.385-10.618,6.385a.456.456,0,0,1-.115.049A.456.456,0,0,1,8244.468-1567.028Zm-21.434-13.232,10.714,6.119,10.714,6.12,10.168-6.114,10.168-6.114-10.446-6.031-10.445-6.031-10.436,6.026Z" transform="translate(-8221.649 1593.303)"></path></g></g><g transform="translate(33.488 11.734)"><path class="g" d="M8296.621-1641.2a9.284,9.284,0,0,1-2.729,6.586,9.283,9.283,0,0,1-6.586,2.728,9.283,9.283,0,0,1-6.586-2.728,9.283,9.283,0,0,1-2.728-6.586,9.284,9.284,0,0,1,2.728-6.586,9.284,9.284,0,0,1,6.586-2.728,9.284,9.284,0,0,1,6.586,2.728A9.285,9.285,0,0,1,8296.621-1641.2Z" transform="translate(-8277.533 1650.975)"></path><path class="h" d="M8285.767-1632.967a9.745,9.745,0,0,1-6.908-2.866,9.745,9.745,0,0,1-2.865-6.908,9.745,9.745,0,0,1,2.865-6.908,9.745,9.745,0,0,1,6.908-2.866,9.743,9.743,0,0,1,6.908,2.866,9.741,9.741,0,0,1,2.866,6.908,9.741,9.741,0,0,1-2.866,6.908A9.744,9.744,0,0,1,8285.767-1632.967Zm0-18.628a8.828,8.828,0,0,0-6.258,2.6,8.825,8.825,0,0,0-2.6,6.258,8.824,8.824,0,0,0,2.6,6.257,8.828,8.828,0,0,0,6.258,2.6,8.825,8.825,0,0,0,6.258-2.6,8.824,8.824,0,0,0,2.6-6.257,8.826,8.826,0,0,0-2.6-6.258A8.825,8.825,0,0,0,8285.767-1651.595Z" transform="translate(-8275.993 1652.515)"></path></g><g transform="translate(26.223 5.698)"><path class="j" d="M8246.453-1659.383a1.448,1.448,0,0,0,.361.934,1.454,1.454,0,0,0,.877.479l1.193.18,1.193.18a1.454,1.454,0,0,1,.592.23,1.46,1.46,0,0,1,.438.461l1.679,2.789,1.677,2.789a1.458,1.458,0,0,1,.2.607,1.487,1.487,0,0,1-.078.635l-.158.438-.156.438h1.081v4.2a12.335,12.335,0,0,0,1.247.046c.652-.011,1.36-.092,1.584-.37l.749-.927.749-.927a1.465,1.465,0,0,1,.494-.393,1.456,1.456,0,0,1,.615-.148l4.064-.037,4.065-.037v2.92l1.024-.025,1.023-.025a1.442,1.442,0,0,0,.461-.019,1.434,1.434,0,0,0,.444-.17l.945-.553.946-.553a1.455,1.455,0,0,0,.638-.773,1.449,1.449,0,0,0-.011-1l-.418-1.1-.417-1.1a1.433,1.433,0,0,1-.091-.622,1.474,1.474,0,0,1,.18-.6l1.657-2.983,1.656-2.983a1.461,1.461,0,0,1,.421-.476,1.445,1.445,0,0,1,.582-.249l1.182-.223,1.18-.223a1.452,1.452,0,0,0,.86-.511,1.456,1.456,0,0,0,.326-.946l-.021-1.092-.021-1.092a1.458,1.458,0,0,0-.36-.933,1.447,1.447,0,0,0-.878-.48l-1.193-.18-1.192-.18a1.436,1.436,0,0,1-.593-.229,1.456,1.456,0,0,1-.438-.461l-1.677-2.789-1.677-2.788a1.49,1.49,0,0,1-.2-.607,1.486,1.486,0,0,1,.078-.635l.408-1.14.408-1.139a1.449,1.449,0,0,0-.007-1,1.451,1.451,0,0,0-.653-.76l-.955-.534-.955-.534a6.013,6.013,0,0,0-1.648-.133c-.709,0-1.373.023-1.373.023v2.9l-3.973.038-3.974.038a1.451,1.451,0,0,1-.629-.131,1.458,1.458,0,0,1-.513-.389l-.789-.938-.787-.939a1.444,1.444,0,0,0-.65-.444,1.455,1.455,0,0,0-.772-.042l-1.821.716-1.822.716v4.2l.569-.716.569-.716.2.52.2.52a1.468,1.468,0,0,1,.092.623,1.445,1.445,0,0,1-.179.6l-1.656,2.984-1.657,2.984a1.457,1.457,0,0,1-.421.474,1.466,1.466,0,0,1-.582.251l-1.18.222-1.182.222a1.451,1.451,0,0,0-.859.512,1.452,1.452,0,0,0-.327.945l.02,1.092Zm17.52-7.413a5.974,5.974,0,0,1,4.151,1.69,5.983,5.983,0,0,1,1.833,4.09,5.985,5.985,0,0,1-1.682,4.386,5.984,5.984,0,0,1-4.324,1.832,5.984,5.984,0,0,1-4.151-1.691,5.985,5.985,0,0,1-1.833-4.092,5.98,5.98,0,0,1,1.682-4.385A5.975,5.975,0,0,1,8263.973-1666.8Z" transform="translate(-8245.952 1677.203)"></path><path class="b" d="M8266.922-1645.975v-2.927l-3.832.035-3.834.035a.981.981,0,0,0-.416.1.991.991,0,0,0-.338.27l-.75.927-.75.927a2.244,2.244,0,0,1-1.523.527,10.48,10.48,0,0,1-1.709-.036l-.209-.02-.207-.02v-4.159h-1.275l.268-.746.268-.746a1,1,0,0,0,.055-.434,1.018,1.018,0,0,0-.139-.415l-1.678-2.789-1.678-2.789a.994.994,0,0,0-.3-.315,1.009,1.009,0,0,0-.406-.158l-1.193-.18-1.192-.18a1.912,1.912,0,0,1-1.157-.63,1.921,1.921,0,0,1-.475-1.229h0l-.02-1.092-.02-1.092a1.916,1.916,0,0,1,.43-1.246,1.909,1.909,0,0,1,1.133-.672l1.18-.222,1.181-.222a1.011,1.011,0,0,0,.4-.172,1,1,0,0,0,.288-.324l1.656-2.984,1.656-2.984a.966.966,0,0,0,.123-.411.991.991,0,0,0-.064-.427l-.053-.141-.053-.141-.729.915-.727.915v-5.833l2-.784,2-.784a1.908,1.908,0,0,1,1.026.058,1.907,1.907,0,0,1,.848.582l.787.938.789.939a.984.984,0,0,0,.352.267,1,1,0,0,0,.429.089l3.747-.036,3.748-.036v-2.884l.221-.008.222-.008c.636-.023,1.351-.037,1.959-.017a3.754,3.754,0,0,1,1.3.186l.954.535.955.534a1.907,1.907,0,0,1,.861,1,1.921,1.921,0,0,1,.01,1.32l-.409,1.14-.408,1.14a1.018,1.018,0,0,0-.054.434.988.988,0,0,0,.139.415l1.676,2.789,1.678,2.789a.986.986,0,0,0,.3.316.979.979,0,0,0,.4.156l1.193.18,1.193.18a1.906,1.906,0,0,1,1.156.629,1.912,1.912,0,0,1,.475,1.23l.021,1.092.021,1.092a1.9,1.9,0,0,1-.428,1.246,1.911,1.911,0,0,1-1.133.672l-1.18.223-1.181.223a.986.986,0,0,0-.4.17,1,1,0,0,0-.287.325l-1.656,2.983-1.658,2.983a1.01,1.01,0,0,0-.123.413,1,1,0,0,0,.063.424l.417,1.1.418,1.1a1.916,1.916,0,0,1,.017,1.319,1.916,1.916,0,0,1-.842,1.016l-.945.553-.945.553a1.919,1.919,0,0,1-.559.218,1.9,1.9,0,0,1-.6.035l-1.244.03Zm.922-3.855v2.913l.8-.02.806-.02.017,0,.016,0a.993.993,0,0,0,.319-.014.974.974,0,0,0,.3-.115l.946-.553.946-.553a1,1,0,0,0,.438-.529,1,1,0,0,0-.008-.686l-.418-1.1-.417-1.1a1.9,1.9,0,0,1-.12-.816,1.957,1.957,0,0,1,.236-.793l1.657-2.983,1.657-2.984a1.921,1.921,0,0,1,.553-.626,1.91,1.91,0,0,1,.77-.328l1.179-.223,1.18-.223a.991.991,0,0,0,.589-.349.989.989,0,0,0,.223-.647l-.021-1.092-.02-1.092a.993.993,0,0,0-.247-.639.986.986,0,0,0-.6-.327l-1.192-.18-1.192-.18a1.89,1.89,0,0,1-.779-.3,1.923,1.923,0,0,1-.579-.609l-1.677-2.788-1.676-2.788a1.914,1.914,0,0,1-.266-.8,1.915,1.915,0,0,1,.1-.835l.408-1.14.408-1.14a.992.992,0,0,0,0-.686.987.987,0,0,0-.448-.519l-.946-.531-.948-.53a4.5,4.5,0,0,0-.881-.075c-.43-.011-.957-.01-1.471,0v2.906l-4.2.04-4.2.04a1.874,1.874,0,0,1-.827-.17,1.931,1.931,0,0,1-.671-.513l-.788-.939-.788-.939a.99.99,0,0,0-.424-.3,1,1,0,0,0-.517-.042l-1.657.652-1.656.651v2.569l.411-.517.411-.517.34.9.34.9a1.925,1.925,0,0,1,.121.819,1.907,1.907,0,0,1-.235.791l-1.657,2.984-1.657,2.984a1.908,1.908,0,0,1-.552.623,1.93,1.93,0,0,1-.768.33l-1.18.222-1.182.222a1,1,0,0,0-.59.349.993.993,0,0,0-.222.647l.02,1.093.02,1.093a1,1,0,0,0,.247.639.991.991,0,0,0,.6.327l1.194.18,1.194.18a1.93,1.93,0,0,1,.78.3,1.9,1.9,0,0,1,.574.606l1.679,2.788,1.678,2.788a1.927,1.927,0,0,1,.266.8,1.929,1.929,0,0,1-.1.835l-.048.131-.046.131h.887V-1647a9.319,9.319,0,0,0,1.3-.014,1.521,1.521,0,0,0,.719-.175l.749-.925.748-.925a1.913,1.913,0,0,1,.65-.518,1.92,1.92,0,0,1,.808-.194l4.3-.039Zm1.976-27.927h0Zm-7.4,21.866h-.006a6.439,6.439,0,0,1-4.461-1.83,6.44,6.44,0,0,1-1.982-4.4,6.464,6.464,0,0,1,.42-2.548,6.451,6.451,0,0,1,1.392-2.174,6.448,6.448,0,0,1,2.119-1.461,6.453,6.453,0,0,1,2.524-.509h.011a6.438,6.438,0,0,1,4.461,1.827,6.442,6.442,0,0,1,1.982,4.4,6.446,6.446,0,0,1-.421,2.548,6.427,6.427,0,0,1-1.389,2.174,6.46,6.46,0,0,1-2.123,1.464A6.455,6.455,0,0,1,8262.416-1655.891Zm.006-12a5.527,5.527,0,0,0-2.165.436,5.538,5.538,0,0,0-1.817,1.253,5.55,5.55,0,0,0-1.193,1.865,5.558,5.558,0,0,0-.359,2.186,5.525,5.525,0,0,0,1.7,3.769,5.524,5.524,0,0,0,3.826,1.569h0a5.531,5.531,0,0,0,2.168-.437,5.532,5.532,0,0,0,1.82-1.255,5.527,5.527,0,0,0,1.191-1.865,5.539,5.539,0,0,0,.36-2.185,5.52,5.52,0,0,0-1.7-3.77,5.517,5.517,0,0,0-3.824-1.566h-.01Z" transform="translate(-8244.412 1678.755)"></path></g><g transform="translate(24.016 5.646)"><g transform="translate(0.46 0.461)"><path class="i" d="M8236.862-1659.564a1.449,1.449,0,0,0,.362.934,1.448,1.448,0,0,0,.877.479l1.193.18,1.193.18a1.464,1.464,0,0,1,.592.23,1.46,1.46,0,0,1,.438.461l1.677,2.788,1.679,2.789a1.47,1.47,0,0,1,.2.607,1.457,1.457,0,0,1-.078.635l-.408,1.14-.408,1.14a1.454,1.454,0,0,0,.007,1,1.452,1.452,0,0,0,.652.76l.954.536.955.536a1.454,1.454,0,0,0,.987.159,1.453,1.453,0,0,0,.858-.516l.75-.927.749-.927a1.477,1.477,0,0,1,.493-.393,1.467,1.467,0,0,1,.615-.148l3.259-.056,3.258-.056a1.477,1.477,0,0,1,.63.132,1.455,1.455,0,0,1,.511.39l.787.937.788.938a1.452,1.452,0,0,0,.867.5,1.455,1.455,0,0,0,.984-.177l.944-.553.945-.553a1.456,1.456,0,0,0,.64-.774,1.455,1.455,0,0,0-.012-1l-.418-1.1-.417-1.1a1.464,1.464,0,0,1-.091-.622,1.476,1.476,0,0,1,.181-.6l1.657-2.983,1.656-2.983a1.451,1.451,0,0,1,.421-.476,1.443,1.443,0,0,1,.582-.249l1.181-.223,1.18-.223a1.457,1.457,0,0,0,.861-.511,1.455,1.455,0,0,0,.325-.946l-.021-1.093-.021-1.092a1.454,1.454,0,0,0-.361-.933,1.453,1.453,0,0,0-.878-.48l-1.193-.18-1.191-.18a1.441,1.441,0,0,1-.594-.229,1.461,1.461,0,0,1-.438-.461l-1.677-2.789-1.677-2.789a1.47,1.47,0,0,1-.2-.607,1.457,1.457,0,0,1,.078-.635l.408-1.14.408-1.14a1.454,1.454,0,0,0-.007-1,1.457,1.457,0,0,0-.654-.76l-.955-.534-.954-.534a1.445,1.445,0,0,0-.986-.161,1.458,1.458,0,0,0-.857.515l-.75.927-.749.927a1.448,1.448,0,0,1-.494.393,1.462,1.462,0,0,1-.614.147l-3.259.056-3.258.057a1.458,1.458,0,0,1-.63-.131,1.478,1.478,0,0,1-.514-.389l-.787-.939-.787-.939a1.46,1.46,0,0,0-.867-.5,1.452,1.452,0,0,0-.984.179l-.944.553-.943.553a1.447,1.447,0,0,0-.64.771,1.46,1.46,0,0,0,.011,1l.417,1.1.417,1.1a1.467,1.467,0,0,1,.091.623,1.431,1.431,0,0,1-.179.6l-1.656,2.984-1.657,2.984a1.445,1.445,0,0,1-.421.474,1.458,1.458,0,0,1-.582.251l-1.181.222-1.18.222a1.453,1.453,0,0,0-.86.512,1.457,1.457,0,0,0-.327.945l.021,1.092Zm17.52-7.413a5.979,5.979,0,0,1,4.152,1.689,5.983,5.983,0,0,1,1.832,4.09,5.981,5.981,0,0,1-1.682,4.386,5.984,5.984,0,0,1-4.324,1.832,5.98,5.98,0,0,1-4.15-1.691,5.98,5.98,0,0,1-1.833-4.091,5.975,5.975,0,0,1,1.681-4.385A5.978,5.978,0,0,1,8254.382-1666.977Z" transform="translate(-8236.822 1676.974)"></path></g><path class="h" d="M8245.921-1646.065a1.911,1.911,0,0,1-.478-.061,1.933,1.933,0,0,1-.459-.185l-.956-.536-.954-.536a1.909,1.909,0,0,1-.859-1,1.914,1.914,0,0,1-.008-1.319l.408-1.14.408-1.14a.974.974,0,0,0,.053-.434.988.988,0,0,0-.138-.415l-1.677-2.789-1.679-2.789a.981.981,0,0,0-.3-.315.988.988,0,0,0-.4-.157l-1.193-.18-1.193-.18a1.91,1.91,0,0,1-1.156-.63,1.916,1.916,0,0,1-.475-1.229h0l-.02-1.092-.02-1.092a1.92,1.92,0,0,1,.428-1.246,1.918,1.918,0,0,1,1.135-.672l1.18-.222,1.181-.222a1,1,0,0,0,.4-.172.985.985,0,0,0,.287-.324l1.658-2.984,1.656-2.984a.965.965,0,0,0,.122-.411.988.988,0,0,0-.063-.427l-.416-1.1-.416-1.1a1.917,1.917,0,0,1-.017-1.319,1.906,1.906,0,0,1,.844-1.014l.943-.552.943-.552a1.911,1.911,0,0,1,1.295-.236,1.92,1.92,0,0,1,1.142.657l.787.939.787.939a1,1,0,0,0,.352.267.985.985,0,0,0,.431.089l3.259-.056,3.258-.056a1.006,1.006,0,0,0,.422-.1.987.987,0,0,0,.337-.269l.749-.927.75-.927a1.922,1.922,0,0,1,1.129-.679,1.906,1.906,0,0,1,1.3.213l.954.534.954.534a1.91,1.91,0,0,1,.861,1,1.915,1.915,0,0,1,.009,1.32l-.408,1.14-.409,1.14a.988.988,0,0,0-.053.434.975.975,0,0,0,.139.415l1.676,2.788,1.676,2.789a1.011,1.011,0,0,0,.3.317.975.975,0,0,0,.4.155l1.193.18,1.192.18a1.908,1.908,0,0,1,1.157.63,1.921,1.921,0,0,1,.475,1.23l.021,1.092.021,1.092a1.909,1.909,0,0,1-.428,1.246,1.912,1.912,0,0,1-1.134.672l-1.181.223-1.18.223a.982.982,0,0,0-.4.17.99.99,0,0,0-.287.325l-1.657,2.983-1.657,2.984a1.008,1.008,0,0,0-.123.413,1.006,1.006,0,0,0,.062.425l.417,1.1.418,1.1a1.911,1.911,0,0,1,.018,1.319,1.916,1.916,0,0,1-.843,1.017l-.944.553-.945.553a1.917,1.917,0,0,1-1.3.234,1.913,1.913,0,0,1-1.141-.659l-.787-.937-.787-.937a1,1,0,0,0-.344-.265,1.006,1.006,0,0,0-.426-.093h-.012l-3.258.057-3.258.056a1,1,0,0,0-.421.1,1.013,1.013,0,0,0-.339.27l-.748.927-.75.927a1.916,1.916,0,0,1-.675.532A1.912,1.912,0,0,1,8245.921-1646.065Zm-10.139-15.05a1,1,0,0,0,.245.639,1,1,0,0,0,.6.327l1.193.18,1.194.18a1.916,1.916,0,0,1,.78.3,1.9,1.9,0,0,1,.575.606l1.678,2.788,1.679,2.788a1.912,1.912,0,0,1,.265.8,1.915,1.915,0,0,1-.1.835l-.409,1.14-.408,1.14a.992.992,0,0,0,0,.686.989.989,0,0,0,.445.519l.955.536.955.536a.993.993,0,0,0,.676.109.991.991,0,0,0,.586-.354l.751-.927.749-.927a1.932,1.932,0,0,1,.65-.518,1.914,1.914,0,0,1,.808-.194l3.259-.057,3.259-.057a1.9,1.9,0,0,1,.829.173,1.915,1.915,0,0,1,.673.516l.787.936.787.936a.989.989,0,0,0,.593.343,1,1,0,0,0,.674-.122l.945-.553.945-.553a1,1,0,0,0,.438-.529,1,1,0,0,0-.008-.686l-.418-1.1-.417-1.1a1.909,1.909,0,0,1-.12-.817,1.924,1.924,0,0,1,.236-.793l1.657-2.983,1.657-2.983a1.9,1.9,0,0,1,.553-.626,1.9,1.9,0,0,1,.768-.328l1.181-.223,1.179-.223a1,1,0,0,0,.59-.349.989.989,0,0,0,.223-.647l-.021-1.092-.02-1.092a1,1,0,0,0-.247-.639.988.988,0,0,0-.6-.327l-1.193-.18-1.191-.18a1.9,1.9,0,0,1-.781-.3,1.923,1.923,0,0,1-.578-.609l-1.676-2.788-1.676-2.788a1.9,1.9,0,0,1-.266-.8,1.916,1.916,0,0,1,.1-.836l.409-1.14.408-1.14a1,1,0,0,0-.006-.686.987.987,0,0,0-.447-.519l-.955-.535-.954-.535a.991.991,0,0,0-.675-.11.993.993,0,0,0-.587.353l-.749.927-.75.927a1.893,1.893,0,0,1-.648.517,1.917,1.917,0,0,1-.809.194l-3.26.056-3.258.056a1.944,1.944,0,0,1-.825-.172,1.918,1.918,0,0,1-.677-.511l-.789-.939-.788-.939a.993.993,0,0,0-.593-.342.992.992,0,0,0-.673.123l-.944.553-.943.553a.991.991,0,0,0-.439.527.992.992,0,0,0,.009.685l.417,1.1.416,1.1a1.923,1.923,0,0,1,.12.819,1.908,1.908,0,0,1-.235.791l-1.656,2.984-1.657,2.984a1.909,1.909,0,0,1-.553.623,1.926,1.926,0,0,1-.767.33l-1.181.222-1.181.222a1,1,0,0,0-.59.349,1,1,0,0,0-.223.647l.02,1.092Zm17.043,5.053h0a6.438,6.438,0,0,1-4.461-1.829,6.441,6.441,0,0,1-1.983-4.4,6.482,6.482,0,0,1,.421-2.548,6.447,6.447,0,0,1,1.391-2.174,6.423,6.423,0,0,1,2.125-1.461,6.509,6.509,0,0,1,2.529-.509,6.432,6.432,0,0,1,4.461,1.827,6.439,6.439,0,0,1,1.983,4.4,6.482,6.482,0,0,1-.421,2.548,6.457,6.457,0,0,1-1.389,2.174,6.464,6.464,0,0,1-2.123,1.463A6.458,6.458,0,0,1,8252.825-1656.062Zm.007-12a5.536,5.536,0,0,0-2.165.436,5.513,5.513,0,0,0-1.817,1.253,5.531,5.531,0,0,0-1.193,1.865,5.52,5.52,0,0,0-.359,2.185,5.528,5.528,0,0,0,1.7,3.769,5.526,5.526,0,0,0,3.826,1.569h0a5.538,5.538,0,0,0,2.168-.437,5.53,5.53,0,0,0,1.82-1.255,5.539,5.539,0,0,0,1.191-1.865,5.557,5.557,0,0,0,.36-2.185,5.519,5.519,0,0,0-1.7-3.769,5.516,5.516,0,0,0-3.825-1.567h-.009Z" transform="translate(-8234.822 1678.978)"></path></g></g></g></svg>