<svg xmlns="http://www.w3.org/2000/svg" viewBox="0 0 1623.21 1340"><defs><style>.cls-1{isolation:isolate;}.cls-2{fill:none;}.cls-3,.cls-6{fill:#455666;opacity:0.33;}.cls-3,.cls-4,.cls-7{stroke:#000;}.cls-12,.cls-13,.cls-3,.cls-4,.cls-5,.cls-7{stroke-miterlimit:10;stroke-width:2px;}.cls-15,.cls-3,.cls-6{mix-blend-mode:multiply;}.cls-4{fill:#d9d9d9;}.cls-14,.cls-5{fill:#ebf0f5;}.cls-12,.cls-5{stroke:#24313e;}.cls-7{fill:#fdfdfd;}.cls-8{font-size:49.96px;font-family:Rubik-Bold, Rubik;font-weight:700;}.cls-13,.cls-8{fill:#24313e;}.cls-9{font-family:Rubik-Regular, Rubik;font-weight:400;}.cls-10{letter-spacing:-0.01em;}.cls-11{letter-spacing:-0.07em;}.cls-12{fill:#0c7ff2;}.cls-13{stroke:#031439;}.cls-14{mix-blend-mode:overlay;}.cls-14,.cls-15{opacity:0.21;}</style></defs><g class="cls-1"><g id="Layer_2" data-name="Layer 2"><g id="Layer_1-2" data-name="Layer 1"><rect class="cls-2" width="1623.21" height="1340"></rect><path class="cls-3" d="M1241.37,254.83a38.23,38.23,0,0,1,38.17,38.28l-1,690.4a38.22,38.22,0,0,1-38.28,38.16L782.57,1021a38.23,38.23,0,0,1-38.17-38.28l.82-473.31"></path><path class="cls-4" d="M1232.37,242.54a38.23,38.23,0,0,1,38.17,38.29l-1,690.39a38.23,38.23,0,0,1-38.28,38.17l-457.66-.68a38.23,38.23,0,0,1-38.16-38.29l.81-453.81"></path><path class="cls-5" d="M896.47,386a36.15,36.15,0,0,1-36.21,36.1l-125,92.74-.88,453.61a38.23,38.23,0,0,0,38.17,38.28l463.54.69A22.46,22.46,0,0,0,1258.57,985l1.07-721.93a22.46,22.46,0,0,0-22.42-22.49l-224.35-.51"></path><path class="cls-6" d="M744.39,529.06h278.4a9.89,9.89,0,0,0,9.89-9.89V250.81a9.89,9.89,0,0,0-9.89-9.89h-7.17a9.89,9.89,0,0,0-7,2.86L737.44,512.14a9.9,9.9,0,0,0-2.93,6.61h0A9.89,9.89,0,0,0,744.39,529.06Z"></path><path class="cls-7" d="M735.39,516.61l206.9.31a70.59,70.59,0,0,0,70.7-70.49l.31-206.89a1,1,0,0,0-1.74-.73L734.67,514.87A1,1,0,0,0,735.39,516.61Z"></path><path class="cls-6" d="M1353.92,350.26a38.21,38.21,0,0,1,38.16,38.28l-1,690.39a38.23,38.23,0,0,1-38.28,38.17l-457.66-.68A38.23,38.23,0,0,1,857,1078.14l.81-473.31"></path><path class="cls-4" d="M1344.92,338a38.23,38.23,0,0,1,38.17,38.28l-1,690.4a38.21,38.21,0,0,1-38.28,38.16l-457.66-.68A38.23,38.23,0,0,1,848,1065.85L848.77,612"></path><path class="cls-5" d="M1007.7,481.46a36.15,36.15,0,0,1-36.21,36.1l-125,92.74-.88,453.61a38.23,38.23,0,0,0,38.17,38.28l463.54.69a22.46,22.46,0,0,0,22.49-22.42l1.07-721.94A22.44,22.44,0,0,0,1348.45,336l-224.34-.51"></path><path class="cls-6" d="M855.82,626.1h199.5c38.22,0,69.2-33.24,69.2-74.24v-204c0-5.46,2.67-.46-2.42-.46h-6.68a8.89,8.89,0,0,0-6.48,2.86L849.34,609.19a10.23,10.23,0,0,0-2.73,6.61h0C846.39,621.42,850.58,626.1,855.82,626.1Z"></path><polygon class="cls-6" points="1327.21 1070.67 1383.09 992.05 1403.17 698.17 1324.61 913.07 1327.21 1070.67"></polygon><path class="cls-7" d="M847.94,612l206.9.31a70.59,70.59,0,0,0,70.7-70.49l.31-206.9a1,1,0,0,0-1.74-.72L847.22,610.3A1,1,0,0,0,847.94,612Z"></path><rect class="cls-4" x="881.08" y="948.41" width="419.05" height="138.93" rx="24.01" transform="translate(2.79 -2.98) rotate(0.16)"></rect><rect class="cls-7" x="868.38" y="948.62" width="419.44" height="138.92" rx="24.01" transform="translate(2.79 -2.95) rotate(0.16)"></rect><text class="cls-8" transform="matrix(1, 0.02, -0.02, 1, 890.81, 1008.84)">API <tspan class="cls-9"><tspan x="0" y="44.46">SP</tspan><tspan class="cls-10" x="63.15" y="44.46">E</tspan><tspan x="93.08" y="44.46">CIFI</tspan><tspan class="cls-10" x="182.82" y="44.46">C</tspan><tspan class="cls-11" x="215.74" y="44.46">A</tspan><tspan x="245.52" y="44.46">TION</tspan></tspan></text><path class="cls-12" d="M1553.26,362,1411.74,932.11a4.35,4.35,0,0,1-5.35,3.16l-78.2-20.79a4.36,4.36,0,0,1-3.11-5.27l141.51-570.13a4.36,4.36,0,0,1,5.35-3.16l78.2,20.79A4.37,4.37,0,0,1,1553.26,362Z"></path><polygon class="cls-13" points="1354.65 1025.68 1327.21 1070.67 1326.33 1017.31 1354.65 1025.68"></polygon><polygon class="cls-7" points="1409.63 935.57 1354.65 1025.68 1326.33 1017.31 1324.61 913.07 1409.63 935.57"></polygon><path class="cls-13" d="M1486.54,239.78h102.58a0,0,0,0,1,0,0v89.54a0,0,0,0,1,0,0H1486.54a23.16,23.16,0,0,1-23.16-23.16V262.93a23.16,23.16,0,0,1,23.16-23.16Z" transform="translate(2170.09 -1128.22) rotate(103.94)"></path><polygon class="cls-14" points="1350.61 908.3 1330.06 903.29 1471.18 339.09 1491.73 344.11 1350.61 908.3"></polygon><path class="cls-14" d="M1485.66,334h0a10.59,10.59,0,0,1-7.77-12.77L1497,242.61a10.58,10.58,0,0,1,12.79-7.78h0a10.56,10.56,0,0,1,7.76,12.76l-19.06,78.65A10.59,10.59,0,0,1,1485.66,334Z"></path><path class="cls-15" d="M1562.38,228.74,1388.32,929.93l-61.11,140.74,82.42-135.1,169.65-678.78S1586.87,234.81,1562.38,228.74Z"></path></g></g></g></svg>