<svg xmlns="http://www.w3.org/2000/svg" viewBox="0 0 1443 864"><defs><style>.cls-1,.cls-5{fill:none;}.cls-2{fill:#24313e;}.cls-2,.cls-4,.cls-5,.cls-6{stroke:#031439;}.cls-2,.cls-3,.cls-4,.cls-5,.cls-6{stroke-miterlimit:10;}.cls-2,.cls-3{stroke-width:2px;}.cls-3{fill:#0c7ff2;stroke:#24313e;}.cls-4,.cls-6{fill:#fff;}.cls-4,.cls-5{stroke-width:4px;}.cls-6{stroke-linecap:round;stroke-width:10px;}</style></defs><g id="Layer_2" data-name="Layer 2"><g id="Layer_1-2" data-name="Layer 1"><rect class="cls-1" width="1443" height="864"></rect><circle class="cls-2" cx="723.45" cy="446.47" r="324.04"></circle><circle class="cls-3" cx="703.88" cy="446.47" r="324.04"></circle><path class="cls-4" d="M505.74,430a77.2,77.2,0,0,0,77.2,77.2H827.07a64.63,64.63,0,0,0,7.24-128.85,119.14,119.14,0,0,0-233.17-23.33,77.19,77.19,0,0,0-95.4,75Z"></path><line class="cls-5" x1="705.82" y1="490.68" x2="853.9" y2="602.74"></line><circle class="cls-4" cx="705.82" cy="490.68" r="114.16"></circle><path class="cls-6" d="M686.32,511.33,665.73,467.5a1.83,1.83,0,0,0-3.32,0l-20.59,43.83"></path><line class="cls-6" x1="708.01" y1="463.96" x2="708.01" y2="511.33"></line><line class="cls-6" x1="760.96" y1="463.96" x2="760.96" y2="511.33"></line><path class="cls-6" d="M713.52,464h18.13a7.25,7.25,0,0,1,7.25,7.25v9.89a7.25,7.25,0,0,1-7.25,7.25H713.52a5.51,5.51,0,0,1-5.51-5.51V469.46a5.51,5.51,0,0,1,5.51-5.51Z"></path></g></g></svg>