<svg xmlns="http://www.w3.org/2000/svg" xmlns:xlink="http://www.w3.org/1999/xlink" id="Layer_1" x="0px" y="0px" viewBox="0 0 1024 1024" style="enable-background:new 0 0 1024 1024;" xml:space="preserve"><style type="text/css">	.st0{fill:#6B7E8F;stroke:#24313E;stroke-width:2;stroke-miterlimit:10;}	.st1{fill:#9CAAB8;stroke:#031439;stroke-width:2;stroke-miterlimit:10;}	.st2{opacity:0.14;enable-background:new    ;}	.st3{fill:#CCCFD4;stroke:#031439;stroke-width:2;stroke-miterlimit:10;}	.st4{fill:none;stroke:#24313E;stroke-width:2;stroke-miterlimit:10;}	.st5{opacity:0.38;enable-background:new    ;}	.st6{fill:#EBF0F5;stroke:#031439;stroke-width:2;stroke-miterlimit:10;}	.st7{fill:#3AB2D0;stroke:#24313E;stroke-width:2;stroke-miterlimit:10;}	.st8{fill:#455666;stroke:#24313E;stroke-width:2;stroke-miterlimit:10;}	.st9{fill:#0C7FF2;stroke:#24313E;stroke-width:2;stroke-miterlimit:10;}	.st10{fill:#0062FF;stroke:#031439;stroke-width:2;stroke-miterlimit:10;}	.st11{fill:none;stroke:#24313E;stroke-width:2;stroke-miterlimit:10;stroke-dasharray:6.36,6.36;}	.st12{fill:none;stroke:#24313E;stroke-width:2;stroke-miterlimit:10;stroke-dasharray:6.41,6.41;}	.st13{fill:none;stroke:#24313E;stroke-width:2;stroke-miterlimit:10;stroke-dasharray:6.43;}	.st14{fill:#EBF0F5;stroke:#24313E;stroke-width:2;stroke-miterlimit:10;}	.st15{fill:#0062FF;stroke:#24313E;stroke-width:2;stroke-miterlimit:10;}	.st16{opacity:0.21;enable-background:new    ;}	.st17{opacity:0.21;fill:#EBF0F5;enable-background:new    ;}	.st18{opacity:0.34;enable-background:new    ;}	.st19{fill:#EBF0F5;}	.st20{opacity:0.18;fill:#EBF0F5;enable-background:new    ;}	.st21{opacity:0.49;fill:#EBF0F5;enable-background:new    ;}	.st22{enable-background:new    ;}	.st23{fill:#FFFFFF;}	.st24{clip-path:url(#SVGID_2_);}	.st25{fill:#B8AF50;stroke:#031439;stroke-width:2;stroke-linecap:round;stroke-linejoin:round;}	.st26{fill:#F4E969;stroke:#031439;stroke-width:2;stroke-linecap:round;stroke-linejoin:round;}	.st27{opacity:0.41;fill:#24313E;enable-background:new    ;}	.st28{fill:#9CAAB8;}	.st29{opacity:0.1;enable-background:new    ;}	.st30{fill-rule:evenodd;clip-rule:evenodd;fill:#9CAAB8;}</style><g>	<g id="Layer_1_1_">		<path class="st0" d="M988.5,793.9H61.7c-7.5,0-13.5-6.1-13.5-13.5v-1.7c0-7.5,6.1-13.5,13.5-13.5h926.8c7.5,0,13.5,6.1,13.5,13.5   v1.7C1002,787.8,996,793.9,988.5,793.9z"></path>		<path class="st1" d="M811.4,793.9H32.8c-7.5,0-13.5-6.1-13.5-13.5v-1.7c0-7.5,6.1-13.5,13.5-13.5h778.6c7.5,0,13.5,6.1,13.5,13.5   v1.7C825,787.8,818.9,793.9,811.4,793.9z"></path>		<path class="st2" d="M728.5,767.4H56c-0.9,0-1.6-0.7-1.6-1.6v-2.3c0-0.9,0.7-1.6,1.6-1.6h672.5c0.9,0,1.6,0.7,1.6,1.6v2.3   C730.1,766.7,729.4,767.4,728.5,767.4z"></path>		<path class="st3" d="M567.2,343.5h-63.6c-9.6,0-17.4-7.8-17.4-17.4v-19.9c0-9.6,7.8-17.4,17.4-17.4h63.6c9.6,0,17.4,7.8,17.4,17.4   v19.9C584.6,335.7,576.9,343.5,567.2,343.5z"></path>		<line class="st4" x1="578" y1="343.6" x2="507.8" y2="343.6"></line>		<rect x="153.1" y="457.8" class="st5" width="557.1" height="306.3"></rect>		<rect x="57.5" y="457.8" class="st6" width="579" height="306.3"></rect>		<path class="st7" d="M109.8,392.4c-0.4,10.5,4.4,20.6,12.7,27.1c4.8,3.7,7.6,9.5,7.5,15.6v10h25.4v-10c0-6,2.7-11.7,7.4-15.4   c14.4-11.1,17.1-31.8,6-46.2c-11.1-14.4-31.8-17.1-46.2-6C114.8,373.4,110.1,382.6,109.8,392.4L109.8,392.4z"></path>		<path class="st7" d="M139.8,444.5h5.5c0.2,0,0.4-0.7,0.4-1.6l8.8-32.6c0-0.9-0.7-1.6-1.6-1.6c-0.4,0-0.9,0.2-1.2,0.5l-1.6,1.7   c-0.6,0.6-1.6,0.7-2.3,0.1l-3.8-3.6c-0.6-0.6-1.6-0.6-2.3,0l-3.8,3.8c-0.6,0.6-1.7,0.6-2.3,0l-2.3-2.2c-0.6-0.6-1.7-0.6-2.3,0   c-0.3,0.3-0.5,0.7-0.5,1.1l8.8,32.7C139.3,443.7,139.5,444.5,139.8,444.5z"></path>		<rect x="129.6" y="446.3" class="st0" width="44.7" height="10.8"></rect>		<rect x="116.4" y="446.3" class="st0" width="44.7" height="10.8"></rect>		<path class="st8" d="M371.5,704.9H112.2c-10.2,0-18.5-8.3-18.5-18.5V509.9c0-10.2,8.3-18.5,18.5-18.5h259.3   c10.2,0,18.5,8.3,18.5,18.5v176.5C389.9,696.6,381.7,704.9,371.5,704.9z"></path>		<path class="st9" d="M377.6,704.9H118.3c-10.2,0-18.5-8.3-18.5-18.5V509.9c0-10.2,8.3-18.5,18.5-18.5h259.3   c10.2,0,18.5,8.3,18.5,18.5v176.5C396,696.6,387.8,704.9,377.6,704.9z"></path>		<path d="M559.4,647.3h-99.2c-6.8,0-12.3-5.5-12.3-12.3V572c0-6.8,5.5-12.3,12.3-12.3h99.2c6.8,0,12.4,5.5,12.4,12.3v62.9   C571.8,641.7,566.2,647.3,559.4,647.3z"></path>		<path class="st8" d="M555.2,643.3h-89.4c-6.8,0-12.3-5.5-12.3-12.3V568c0-6.8,5.5-12.3,12.3-12.3h89.4c6.8,0,12.3,5.5,12.3,12.3   v62.9C567.5,637.8,562,643.3,555.2,643.3z"></path>		<path class="st6" d="M549.7,643.3h-89.4c-6.8,0-12.3-5.5-12.3-12.3V568c0-6.8,5.5-12.3,12.3-12.3h89.4c6.8,0,12.4,5.5,12.4,12.3   v62.9C562,637.8,556.5,643.3,549.7,643.3z"></path>		<path class="st8" d="M721.8,764.5h-85.3l0,0v-17l0,0h100.8l0,0v1.6C737.3,757.6,730.4,764.5,721.8,764.5   C721.9,764.5,721.8,764.5,721.8,764.5z"></path>		<path class="st6" d="M636.6,764.1H65.7c-8.5,0-15.4-6.9-15.4-15.4v-1l0,0h586.3l0,0V764.1L636.6,764.1L636.6,764.1z"></path>		<path class="st3" d="M718.4,472.8h-81.8l0,0v-16.4l0,0h66.4c8.5,0,15.4,6.9,15.4,15.4L718.4,472.8L718.4,472.8z"></path>		<path class="st6" d="M636.6,472.8H50.3l0,0v-1c0-8.5,6.9-15.4,15.4-15.4h570.9l0,0V472.8L636.6,472.8z"></path>		<path class="st9" d="M510.8,592.1h-50.3c-2.6,0-4.7-2.1-4.7-4.7v-21c0-2.6,2.1-4.7,4.7-4.7h50.3c2.6,0,4.7,2.1,4.7,4.7v21   C515.5,590,513.4,592.1,510.8,592.1z"></path>		<path class="st10" d="M550.5,613h-5.3c-3.5,0-6.3-2.8-6.3-6.3v-0.8c0-3.5,2.8-6.3,6.3-6.3h5.3c3.5,0,6.3,2.8,6.3,6.3v0.8   C556.9,610.2,554,613,550.5,613z"></path>		<path class="st10" d="M528.1,613h-5.3c-3.5,0-6.3-2.8-6.3-6.3v-0.8c0-3.5,2.8-6.3,6.3-6.3h5.3c3.5,0,6.3,2.8,6.3,6.3v0.8   C534.4,610.2,531.6,613,528.1,613z"></path>		<path class="st10" d="M505.9,613h-5.3c-3.5,0-6.3-2.8-6.3-6.3v-0.8c0-3.5,2.8-6.3,6.3-6.3h5.3c3.5,0,6.3,2.8,6.3,6.3v0.8   C512.3,610.2,509.4,613,505.9,613z"></path>		<path class="st10" d="M550.5,631.5h-5.3c-3.5,0-6.3-2.8-6.3-6.3v-0.8c0-3.5,2.8-6.3,6.3-6.3h5.3c3.5,0,6.3,2.8,6.3,6.3v0.8   C556.9,628.7,554,631.5,550.5,631.5z"></path>		<path class="st10" d="M528.1,631.5h-5.3c-3.5,0-6.3-2.8-6.3-6.3v-0.8c0-3.5,2.8-6.3,6.3-6.3h5.3c3.5,0,6.3,2.8,6.3,6.3v0.8   C534.4,628.7,531.6,631.5,528.1,631.5z"></path>		<path class="st10" d="M505.9,631.5h-5.3c-3.5,0-6.3-2.8-6.3-6.3v-0.8c0-3.5,2.8-6.3,6.3-6.3h5.3c3.5,0,6.3,2.8,6.3,6.3v0.8   C512.3,628.7,509.4,631.5,505.9,631.5z"></path>		<path class="st10" d="M481.1,634.3h-18c-3.7,0-6.8-3-6.8-6.8v-21.1c0-3.7,3-6.8,6.8-6.8h18c3.7,0,6.8,3,6.8,6.8v21.1   C487.9,631.2,484.8,634.3,481.1,634.3z"></path>		<polyline class="st4" points="65.7,735.7 65.7,738.9 68.9,738.9   "></polyline>		<line class="st11" x1="75.2" y1="738.9" x2="619.3" y2="738.9"></line>		<polyline class="st4" points="622.5,738.9 625.7,738.9 625.7,735.7   "></polyline>		<line class="st12" x1="625.7" y1="729.3" x2="625.7" y2="488.9"></line>		<polyline class="st4" points="625.7,485.7 625.7,482.5 622.5,482.5   "></polyline>		<line class="st11" x1="616.1" y1="482.5" x2="72.1" y2="482.5"></line>		<polyline class="st4" points="68.9,482.5 65.7,482.5 65.7,485.7   "></polyline>		<line class="st12" x1="65.7" y1="492.1" x2="65.7" y2="732.5"></line>		<polyline class="st13" points="704,698.3 704,480.3 643,480.3 643,739.2 704,739.2 704,727.5   "></polyline>		<path class="st3" d="M576.6,343.6c17.1,0,27.1-12.6,27.1-29.8c0.1-17.1-13.7-31.1-30.8-31.2c-12.5-0.1-23.9,7.4-28.7,18.9"></path>		<path class="st14" d="M410.8,314.1c0,0.1,0,0.3,0,0.4v142.3h131.9V314.2l0.1-0.1c0-0.1,0-0.2,0-0.4c0-17.1,13.9-31,31-31H441.9   v0.3h-0.1C424.7,283.1,410.8,296.9,410.8,314.1C410.8,314.1,410.8,314.1,410.8,314.1z"></path>		<path class="st3" d="M577.7,301.3c-11.7,0-21.2,9.5-21.2,21.1c0,0,0,0,0,0v0.2c0.1,11.6,9.6,20.9,21.2,20.9"></path>		<path class="st4" d="M558,328.8h19.2c7.6-0.2,13.6-6.5,13.4-14.1c-0.2-7.3-6.1-13.2-13.4-13.4h-32.3"></path>		<rect x="395.7" y="443.1" class="st8" width="176.4" height="13.7"></rect>		<rect x="372.8" y="443.1" class="st0" width="176.4" height="13.7"></rect>		<path class="st0" d="M493.1,364h-62.5c-2.3,0-4.1-1.8-4.1-4.1v-0.5c0-2.3,1.8-4.1,4.1-4.1h62.5c2.3,0,4.1,1.8,4.1,4.1v0.5   C497.3,362.2,495.4,364,493.1,364z"></path>		<path class="st14" d="M119.1,565.3h71.1c5.1,0,9.1-4.1,9.1-9.2l0,0v-39c0-5.1-4.1-9.2-9.1-9.2h-71.1c-5.1,0-9.2,4.1-9.2,9.1   c0,0,0,0,0,0v39C109.9,561.2,114,565.3,119.1,565.3C119.1,565.3,119.1,565.3,119.1,565.3z"></path>		<path class="st0" d="M524.8,379.9h-94.2c-2.3,0-4.1-1.8-4.1-4.1v-0.5c0-2.3,1.8-4.1,4.1-4.1h94.2c2.3,0,4.1,1.8,4.1,4.1v0.5   C529,378,527.1,379.9,524.8,379.9z"></path>		<path class="st0" d="M493.1,397.8h-62.5c-2.3,0-4.1-1.8-4.1-4.1v-0.5c0-2.3,1.8-4.1,4.1-4.1h62.5c2.3,0,4.1,1.8,4.1,4.1v0.5   C497.3,396,495.4,397.8,493.1,397.8z"></path>		<path class="st0" d="M524.8,413.7h-94.2c-2.3,0-4.1-1.8-4.1-4.1v-0.5c0-2.3,1.8-4.1,4.1-4.1h94.2c2.3,0,4.1,1.8,4.1,4.1v0.5   C529,411.9,527.1,413.7,524.8,413.7z"></path>		<path class="st0" d="M524.8,428.4h-94.2c-2.3,0-4.1-1.8-4.1-4.1v-0.5c0-2.3,1.8-4.1,4.1-4.1h94.2c2.3,0,4.1,1.8,4.1,4.1v0.5   C529,426.6,527.1,428.4,524.8,428.4z"></path>		<path class="st0" d="M466.8,340.4c-0.1-0.1-0.2-0.3-0.2-0.5v-3.7c0-0.3,0.1-0.6,0.3-0.8c0.2-0.2,0.4-0.4,0.6-0.5l7.5-4.9l-7.5-4.9   c-0.2-0.2-0.4-0.3-0.6-0.5c-0.2-0.2-0.3-0.5-0.3-0.8V320c0-0.2,0.1-0.4,0.2-0.5c0.1-0.1,0.3-0.2,0.5-0.2c0.1,0,0.2,0,0.3,0.1   l0.3,0.2l12.4,8.4c0.3,0.2,0.5,0.4,0.7,0.7c0.2,0.2,0.3,0.5,0.3,0.8v1.1c0,0.3-0.1,0.6-0.3,0.8c-0.2,0.3-0.5,0.5-0.7,0.7   l-12.4,8.4l-0.3,0.1c-0.1,0-0.2,0.1-0.3,0.1C467.1,340.6,466.9,340.5,466.8,340.4z"></path>		<path class="st0" d="M459.9,343.7c-0.3,0-0.6-0.1-0.8-0.3c-0.2-0.2-0.3-0.3-0.4-0.5l-11.7-28c0-0.1-0.1-0.2-0.1-0.3   c0-0.2,0.1-0.4,0.2-0.5c0.1-0.1,0.3-0.2,0.5-0.2h3.1c0.3,0,0.6,0.1,0.8,0.3c0.2,0.2,0.3,0.3,0.4,0.5l11.6,28   c0.1,0.1,0.1,0.2,0.1,0.4c0,0.2-0.1,0.4-0.2,0.5c-0.1,0.1-0.3,0.2-0.5,0.2L459.9,343.7z"></path>		<path class="st0" d="M443.1,340.5l-0.3-0.1l-12.4-8.4c-0.3-0.2-0.5-0.4-0.8-0.7c-0.2-0.2-0.3-0.5-0.2-0.8v-1   c0-0.3,0.1-0.6,0.2-0.9c0.2-0.3,0.5-0.5,0.8-0.7l12.4-8.4l0.3-0.2c0.1,0,0.2-0.1,0.3-0.1c0.2,0,0.4,0.1,0.5,0.2   c0.1,0.1,0.2,0.3,0.2,0.5v3.7c0,0.3-0.1,0.6-0.3,0.8c-0.2,0.2-0.4,0.4-0.6,0.5l-7.5,4.9l7.5,5c0.2,0.1,0.4,0.3,0.6,0.5   c0.2,0.2,0.3,0.5,0.3,0.8v3.7c0,0.2-0.1,0.4-0.2,0.5c-0.1,0.1-0.3,0.2-0.5,0.2C443.3,340.6,443.2,340.6,443.1,340.5z"></path>		<path class="st0" d="M187.8,527.3h-62c-1.7,0-3-1.4-3-3v-0.4c0-1.7,1.4-3,3-3h62c1.7,0,3,1.4,3,3v0.4   C190.8,525.9,189.5,527.3,187.8,527.3z"></path>		<path class="st0" d="M187.8,539.6h-62c-1.7,0-3-1.4-3-3v-0.4c0-1.7,1.4-3,3-3h62c1.7,0,3,1.4,3,3v0.4   C190.8,538.2,189.5,539.6,187.8,539.6z"></path>		<path class="st0" d="M187.8,551.9h-30.3c-1.7,0-3-1.4-3-3v-0.4c0-1.7,1.4-3,3-3h30.3c1.7,0,3,1.4,3,3v0.4   C190.8,550.6,189.5,551.9,187.8,551.9z"></path>		<path class="st14" d="M119.1,683.7h71.1c5.1,0,9.1-4.1,9.1-9.2l0,0v-59.4c0-5.1-4.1-9.2-9.1-9.2h0h-71.1c-5.1,0-9.2,4.1-9.2,9.2   l0,0v59.4C109.9,679.6,114,683.7,119.1,683.7C119.1,683.7,119.1,683.7,119.1,683.7z"></path>		<path class="st0" d="M186.5,621.8h-62c-1.7,0-3-1.4-3-3v-0.4c0-1.7,1.4-3,3-3h62c1.7,0,3,1.4,3,3v0.4   C189.5,620.5,188.1,621.8,186.5,621.8z"></path>		<path class="st0" d="M186.5,634.1h-62c-1.7,0-3-1.4-3-3v-0.4c0-1.7,1.4-3,3-3h62c1.7,0,3,1.4,3,3v0.4   C189.5,632.8,188.1,634.1,186.5,634.1z"></path>		<path class="st0" d="M186.5,646.4h-62c-1.7,0-3-1.4-3-3V643c0-1.7,1.4-3,3-3h62c1.7,0,3,1.4,3,3v0.4   C189.5,645.1,188.1,646.4,186.5,646.4z"></path>		<path class="st0" d="M186.5,658.8h-62c-1.7,0-3-1.4-3-3v-0.4c0-1.7,1.4-3,3-3h62c1.7,0,3,1.4,3,3v0.4   C189.5,657.4,188.1,658.8,186.5,658.8z"></path>		<path class="st0" d="M186.5,671.1h-35.9c-1.7,0-3-1.4-3-3v-0.4c0-1.7,1.4-3,3-3h35.9c1.7,0,3,1.4,3,3v0.4   C189.5,669.7,188.1,671.1,186.5,671.1z"></path>		<path class="st4" d="M155.5,683.7v7.6c0,2.8,2.2,5,5,5c0,0,0,0,0.1,0h80c2.8,0,5-2.2,5-4.9c0,0,0,0,0-0.1"></path>		<polyline class="st4" points="314.1,518 314.1,498.8 175.6,498.8 175.6,508   "></polyline>		<path class="st14" d="M355.9,567.1v105.2c-0.1,9.4-7.9,16.9-17.3,16.8H237.4c-9.4,0.1-17.2-7.4-17.3-16.8c0,0,0,0,0,0V533.5   c0.1-9.4,7.9-17,17.3-16.8h69.5c2.1,0,4.2,0.9,5.7,2.4l19.8,20.4l21.4,22.5C355.1,563.3,355.8,565.2,355.9,567.1z"></path>		<path class="st14" d="M351.4,567.1v105.2c-0.1,9.4-7.9,16.9-17.3,16.8H233c-9.4,0.1-17.2-7.4-17.3-16.8c0,0,0,0,0,0V533.5   c0.1-9.4,7.9-17,17.3-16.8h69.5c2.1,0,4.2,0.9,5.7,2.4l19.8,20.4l21.4,22.5C350.6,563.3,351.4,565.2,351.4,567.1z"></path>		<path class="st14" d="M354.8,568.4h-45.6c-1.5,0-2.8-1.2-2.8-2.7c0,0,0,0,0,0v-47.6c0-1.6,1.3-2.8,2.9-2.8c0.8,0,1.5,0.3,2,0.9   l21.8,22.5l23.9,25.1c1,1.1,1,2.8-0.1,3.9C356.2,568.1,355.5,568.4,354.8,568.4z"></path>		<path class="st15" d="M215.7,593.7H328c3.5,0,6.3,2.8,6.3,6.3v56c0,3.5-2.8,6.3-6.3,6.3H215.7c-3.5,0-6.3-2.8-6.3-6.3v-56   C209.4,596.5,212.2,593.7,215.7,593.7z"></path>		<ellipse class="st16" cx="278.5" cy="662.2" rx="58.4" ry="5.6"></ellipse>		<ellipse class="st16" cx="285.8" cy="689.3" rx="80.1" ry="2.8"></ellipse>		<ellipse class="st17" cx="276.1" cy="598.7" rx="55.9" ry="2.8"></ellipse>		<rect x="54.7" y="456.8" class="st17" width="653.8" height="3"></rect>		<rect x="64.6" y="747.7" class="st17" width="653.8" height="3"></rect>		<rect x="56.5" y="755.8" class="st18" width="653.8" height="7.6"></rect>		<rect x="54.7" y="470.1" class="st5" width="663.7" height="3"></rect>		<path class="st17" d="M551.4,604.1h-6.8c-1,0-1.8-0.8-1.8-1.8v-0.2c0-1,0.8-1.8,1.8-1.8h6.8c1,0,1.8,0.8,1.8,1.8v0.2   C553.2,603.3,552.4,604.1,551.4,604.1z"></path>		<path class="st5" d="M381.6,495.2H110.1c-1,0-1.8-0.8-1.8-1.8v-0.2c0-1,0.8-1.8,1.8-1.8h271.5c1,0,1.8,0.8,1.8,1.8v0.2   C383.4,494.4,382.6,495.2,381.6,495.2z"></path>		<path class="st5" d="M381.6,705.1H110.1c-1,0-1.8-0.8-1.8-1.8v-0.2c0-1,0.8-1.8,1.8-1.8h271.5c1,0,1.8,0.8,1.8,1.8v0.2   C383.4,704.3,382.6,705.1,381.6,705.1z"></path>		<path class="st17" d="M551.4,621.8h-6.8c-1,0-1.8-0.8-1.8-1.8v-0.2c0-1,0.8-1.8,1.8-1.8h6.8c1,0,1.8,0.8,1.8,1.8v0.2   C553.2,621,552.4,621.8,551.4,621.8z"></path>		<path class="st17" d="M528.8,604.1H522c-1,0-1.8-0.8-1.8-1.8v-0.2c0-1,0.8-1.8,1.8-1.8h6.8c1,0,1.8,0.8,1.8,1.8v0.2   C530.6,603.3,529.8,604.1,528.8,604.1z"></path>		<path class="st17" d="M528.8,621.8H522c-1,0-1.8-0.8-1.8-1.8v-0.2c0-1,0.8-1.8,1.8-1.8h6.8c1,0,1.8,0.8,1.8,1.8v0.2   C530.6,621,529.8,621.8,528.8,621.8z"></path>		<path class="st17" d="M506.7,604.1h-6.8c-1,0-1.8-0.8-1.8-1.8v-0.2c0-1,0.8-1.8,1.8-1.8h6.8c1,0,1.8,0.8,1.8,1.8v0.2   C508.4,603.3,507.6,604.1,506.7,604.1z"></path>		<path class="st17" d="M479.9,604.1h-14.5c-1,0-1.8-0.8-1.8-1.8v-0.2c0-1,0.8-1.8,1.8-1.8h14.5c1,0,1.8,0.8,1.8,1.8v0.2   C481.7,603.3,480.9,604.1,479.9,604.1z"></path>		<path class="st17" d="M506.7,621.8h-6.8c-1,0-1.8-0.8-1.8-1.8v-0.2c0-1,0.8-1.8,1.8-1.8h6.8c1,0,1.8,0.8,1.8,1.8v0.2   C508.4,621,507.6,621.8,506.7,621.8z"></path>		<path class="st5" d="M551.4,612.9h-6.8c-1,0-1.8-0.8-1.8-1.8V611c0-1,0.8-1.8,1.8-1.8h6.8c1,0,1.8,0.8,1.8,1.8v0.2   C553.2,612.1,552.4,612.9,551.4,612.9z"></path>		<path class="st5" d="M551.4,630.7h-6.8c-1,0-1.8-0.8-1.8-1.8v-0.2c0-1,0.8-1.8,1.8-1.8h6.8c1,0,1.8,0.8,1.8,1.8v0.2   C553.2,629.9,552.4,630.7,551.4,630.7z"></path>		<path class="st5" d="M528.8,612.9H522c-1,0-1.8-0.8-1.8-1.8V611c0-1,0.8-1.8,1.8-1.8h6.8c1,0,1.8,0.8,1.8,1.8v0.2   C530.6,612.1,529.8,612.9,528.8,612.9z"></path>		<path class="st5" d="M528.8,630.7H522c-1,0-1.8-0.8-1.8-1.8v-0.2c0-1,0.8-1.8,1.8-1.8h6.8c1,0,1.8,0.8,1.8,1.8v0.2   C530.6,629.9,529.8,630.7,528.8,630.7z"></path>		<path class="st5" d="M506.7,612.9h-6.8c-1,0-1.8-0.8-1.8-1.8V611c0-1,0.8-1.8,1.8-1.8h6.8c1,0,1.8,0.8,1.8,1.8v0.2   C508.4,612.1,507.6,612.9,506.7,612.9z"></path>		<path class="st5" d="M482.6,634.5h-21.1c-1,0-1.8-0.8-1.8-1.8v-0.2c0-1,0.8-1.8,1.8-1.8h21.1c1,0,1.8,0.8,1.8,1.8v0.2   C484.4,633.7,483.6,634.5,482.6,634.5z"></path>		<path class="st5" d="M506.7,630.7h-6.8c-1,0-1.8-0.8-1.8-1.8v-0.2c0-1,0.8-1.8,1.8-1.8h6.8c1,0,1.8,0.8,1.8,1.8v0.2   C508.4,629.9,507.6,630.7,506.7,630.7z"></path>		<rect x="116.4" y="450.4" class="st5" width="57.9" height="6.5"></rect>		<rect x="373.8" y="452.2" class="st5" width="198.3" height="4.1"></rect>		<polygon class="st19" points="423.9,288.7 553.5,288.7 562.7,283.7 436.4,283.7   "></polygon>		<rect x="372.8" y="443.1" class="st20" width="199.3" height="3.2"></rect>		<path class="st17" d="M559.7,559.1H455.8c-0.7,0-1.3-0.6-1.3-1.3v-0.2c0-0.7,0.6-1.3,1.3-1.3h103.9c0.7,0,1.4,0.6,1.4,1.3v0.2   C561,558.5,560.4,559.1,559.7,559.1z"></path>					<ellipse transform="matrix(0.9601 -0.2797 0.2797 0.9601 -101.7592 59.787)" class="st21" cx="158.6" cy="386.5" rx="9.6" ry="17.2"></ellipse>		<g class="st22">			<path class="st23" d="M243.1,642.7c-2,0-3.7-0.3-5.1-0.9c-1.4-0.6-2.4-1.4-3.2-2.4c-0.7-1-1.1-2-1.2-3.1c0-0.2,0.1-0.4,0.2-0.5    c0.2-0.2,0.3-0.2,0.5-0.2h1.8c0.3,0,0.5,0.1,0.6,0.2c0.1,0.1,0.2,0.3,0.3,0.5c0.1,0.6,0.4,1.1,0.9,1.7c0.4,0.5,1.1,1,1.9,1.4    c0.8,0.4,1.9,0.5,3.2,0.5c2,0,3.5-0.4,4.4-1.1s1.4-1.7,1.4-2.8c0-0.8-0.2-1.5-0.7-2c-0.5-0.5-1.3-0.9-2.3-1.3    c-1-0.4-2.3-0.8-4-1.3c-1.7-0.5-3.1-1-4.2-1.6c-1.1-0.6-1.9-1.3-2.5-2.2c-0.5-0.9-0.8-2-0.8-3.3c0-1.3,0.3-2.4,1-3.4    c0.7-1,1.6-1.8,2.9-2.4c1.3-0.6,2.8-0.9,4.6-0.9c1.4,0,2.7,0.2,3.8,0.6c1.1,0.4,2,0.9,2.7,1.5c0.7,0.6,1.3,1.3,1.6,2.1    c0.4,0.7,0.6,1.4,0.6,2.1c0,0.2-0.1,0.3-0.2,0.5c-0.1,0.2-0.3,0.2-0.6,0.2H249c-0.2,0-0.3,0-0.5-0.1s-0.3-0.3-0.4-0.5    c-0.1-1-0.7-1.8-1.6-2.4c-0.9-0.7-2.1-1-3.6-1c-1.5,0-2.7,0.3-3.7,0.9c-0.9,0.6-1.4,1.5-1.4,2.7c0,0.8,0.2,1.4,0.7,2    c0.4,0.5,1.1,1,2.1,1.4c1,0.4,2.2,0.8,3.7,1.3c1.9,0.5,3.4,1.1,4.6,1.6c1.2,0.6,2.1,1.3,2.6,2.1c0.6,0.8,0.9,1.9,0.9,3.3    c0,1.5-0.4,2.7-1.2,3.7c-0.8,1-1.8,1.8-3.2,2.4S245,642.7,243.1,642.7z"></path>			<path class="st23" d="M257.7,642.3c-0.3,0-0.5-0.1-0.6-0.2c-0.1-0.2-0.2-0.3-0.2-0.6v-22.8c0-0.3,0.1-0.5,0.2-0.6    c0.1-0.2,0.3-0.2,0.6-0.2h7.9c2.4,0,4.3,0.4,5.8,1.1c1.5,0.7,2.5,1.8,3.2,3.2c0.7,1.4,1,3.1,1,5.2c0,1,0,2,0,2.8s0,1.7,0,2.7    c0,2.1-0.4,3.9-1.1,5.3c-0.7,1.4-1.7,2.5-3.1,3.1s-3.3,1-5.7,1H257.7z M260.3,639.3h5.3c1.6,0,2.9-0.2,3.8-0.7    c1-0.4,1.6-1.2,2.1-2.1c0.4-1,0.7-2.3,0.7-3.9c0-0.7,0.1-1.3,0.1-1.8c0-0.5,0-1,0-1.6c0-0.5,0-1.1-0.1-1.8c0-2.3-0.6-3.9-1.6-5    c-1-1.1-2.7-1.6-5.2-1.6h-5.1V639.3z"></path>		</g>		<g class="st22">			<path class="st23" d="M281.7,642.3c-0.3,0-0.5-0.1-0.6-0.2c-0.1-0.2-0.2-0.3-0.2-0.6v-22.8c0-0.3,0.1-0.5,0.2-0.6    c0.1-0.2,0.3-0.2,0.6-0.2h1.7c0.3,0,0.5,0.1,0.6,0.2c0.2,0.2,0.2,0.4,0.2,0.6v8.6l9.3-8.9c0.1-0.1,0.2-0.2,0.5-0.3    c0.2-0.1,0.5-0.2,0.9-0.2h1.9c0.2,0,0.3,0.1,0.5,0.2c0.1,0.1,0.2,0.3,0.2,0.5c0,0.2,0,0.3-0.1,0.5l-10.8,10.5l11.5,11.5    c0.1,0.1,0.2,0.3,0.2,0.5c0,0.2-0.1,0.3-0.2,0.5c-0.1,0.1-0.3,0.2-0.5,0.2h-2c-0.4,0-0.7-0.1-0.9-0.2s-0.4-0.3-0.5-0.4l-10-9.8    v9.6c0,0.2-0.1,0.4-0.2,0.6c-0.2,0.2-0.4,0.2-0.6,0.2H281.7z"></path>		</g>		<path class="st17" d="M31.9,765.4h961.3c1.9,0,3.4,1.5,3.4,3.4v0.4c0,1.9-1.5,3.4-3.4,3.4H31.9c-1.9,0-3.4-1.5-3.4-3.4v-0.4   C28.5,766.9,30,765.4,31.9,765.4z"></path>		<path class="st5" d="M31.9,787.4h961.3c1.9,0,3.4,1.5,3.4,3.4v0.4c0,1.9-1.5,3.4-3.4,3.4H31.9c-1.9,0-3.4-1.5-3.4-3.4v-0.4   C28.5,789,30,787.4,31.9,787.4z"></path>		<path class="st8" d="M654.5,487.1h37.8c3.5,0,6.4,2.9,6.4,6.4v264.4c0,3.5-2.9,6.4-6.4,6.4h-37.8c-3.5,0-6.4-2.9-6.4-6.4V493.4   C648.2,489.9,651,487.1,654.5,487.1z"></path>		<g>			<defs>				<rect id="SVGID_1_" x="650.8" y="502.2" width="312.7" height="263.2"></rect>			</defs>			<clipPath id="SVGID_2_">				<use xlink:href="#SVGID_1_" style="overflow:visible;"></use>			</clipPath>			<g class="st24">				<rect x="651.9" y="651.5" class="st8" width="119.3" height="112.2"></rect>				<rect x="765" y="651.5" class="st25" width="12.4" height="112.2"></rect>				<rect x="765.2" y="651.5" class="st26" width="5.4" height="112.2"></rect>				<rect x="654" y="651.5" class="st8" width="125" height="14.3"></rect>				<rect x="629.3" y="651.5" class="st6" width="119.3" height="112.2"></rect>				<rect x="631.8" y="651.5" class="st8" width="12.4" height="112.2"></rect>				<rect x="625.5" y="651.5" class="st6" width="12.4" height="112.2"></rect>				<rect x="736.2" y="651.5" class="st8" width="12.4" height="112.2"></rect>				<rect x="730.5" y="651.5" class="st3" width="12.4" height="112.2"></rect>				<rect x="623.6" y="651.5" class="st3" width="125" height="14.3"></rect>				<rect x="654" y="751.2" class="st8" width="125" height="14.3"></rect>				<rect x="623.6" y="751.2" class="st3" width="125" height="14.3"></rect>				<circle class="st0" cx="686" cy="707.4" r="29.3"></circle>				<circle class="st14" cx="680" cy="707.5" r="29.3"></circle>				<rect x="788.9" y="651.3" class="st8" width="119.3" height="112.2"></rect>				<rect x="902" y="651.3" class="st8" width="12.4" height="112.2"></rect>				<rect x="902.2" y="651.3" class="st6" width="5.4" height="112.2"></rect>				<rect x="790.9" y="651.3" class="st8" width="125" height="14.3"></rect>				<rect x="766.2" y="651.3" class="st6" width="119.3" height="112.2"></rect>				<rect x="768.7" y="651.3" class="st8" width="12.4" height="112.2"></rect>				<rect x="762.5" y="651.3" class="st3" width="12.4" height="112.2"></rect>				<rect x="873.2" y="651.3" class="st8" width="12.4" height="112.2"></rect>				<rect x="867.5" y="651.3" class="st3" width="12.4" height="112.2"></rect>				<rect x="760.6" y="651.3" class="st3" width="125" height="14.3"></rect>				<rect x="790.9" y="751" class="st8" width="125" height="14.3"></rect>				<rect x="760.6" y="751" class="st3" width="125" height="14.3"></rect>				<circle class="st0" cx="823" cy="707.2" r="29.3"></circle>				<circle class="st14" cx="817" cy="707.3" r="29.3"></circle>				<rect x="703" y="536" class="st8" width="119.3" height="112.2"></rect>				<rect x="816.2" y="536" class="st8" width="12.4" height="112.2"></rect>				<rect x="816.3" y="536" class="st6" width="5.4" height="112.2"></rect>				<rect x="705.1" y="536" class="st8" width="125" height="14.3"></rect>				<rect x="680.4" y="536" class="st6" width="119.3" height="112.2"></rect>				<rect x="682.9" y="536" class="st8" width="12.4" height="112.2"></rect>				<rect x="676.7" y="536" class="st3" width="12.4" height="112.2"></rect>				<rect x="787.3" y="536" class="st8" width="12.4" height="112.2"></rect>				<rect x="781.6" y="536" class="st3" width="12.4" height="112.2"></rect>				<rect x="674.8" y="536" class="st3" width="125" height="14.3"></rect>				<rect x="705.1" y="635.7" class="st8" width="125" height="14.3"></rect>				<rect x="674.8" y="635.7" class="st3" width="125" height="14.3"></rect>				<circle class="st0" cx="741.7" cy="591.9" r="29.3"></circle>				<circle class="st6" cx="735.7" cy="592.1" r="29.3"></circle>			</g>		</g>		<rect x="648.1" y="650.8" class="st27" width="4.1" height="114.5"></rect>		<rect x="654" y="759.6" class="st5" width="264.4" height="5"></rect>		<rect x="676.7" y="645" class="st5" width="153.4" height="5"></rect>		<rect x="676.7" y="634.8" class="st17" width="153.4" height="5"></rect>		<rect x="676.7" y="546.4" class="st5" width="153.4" height="5"></rect>		<rect x="676.7" y="551.3" class="st5" width="153.4" height="5"></rect>		<rect x="676.7" y="536.2" class="st17" width="153.4" height="5"></rect>		<rect x="650.5" y="652.6" class="st17" width="265.4" height="4.3"></rect>		<rect x="650.5" y="751.5" class="st17" width="265.4" height="4.3"></rect>		<rect x="650.5" y="660.2" class="st5" width="265.4" height="9.2"></rect>		<rect x="801.2" y="693.7" class="st28" width="13.1" height="13.1"></rect>		<rect x="816.8" y="693.7" class="st28" width="13.1" height="13.1"></rect>		<rect x="801.2" y="708.8" class="st28" width="13.1" height="13.1"></rect>		<rect x="816.8" y="708.8" class="st28" width="13.1" height="13.1"></rect>		<rect x="57.5" y="473" class="st29" width="652.8" height="7.3"></rect>		<path class="st30" d="M729.8,591.8c0,0-1.1,0.6,0.8,0.9c2,0.3,4,0.2,5.9-0.2c0.5,0.3,1,0.6,1.6,0.8   C732.4,595.6,725.4,593,729.8,591.8z M729.1,588.7c0,0-1.2,0.9,0.6,1.1c2.5,0.3,5.1,0.2,7.6-0.3c0.3,0.3,0.7,0.6,1.2,0.7   C731.8,592.1,724.3,590.2,729.1,588.7z"></path>		<path class="st30" d="M734.9,583.5c0.7,0.9,0.6,2.2-0.3,2.9c0,0-0.1,0-0.1,0.1c0,0,3.5-1.8,1.9-4s-2.6-3.2,3.7-6.7   C740.1,575.8,730.3,578.1,734.9,583.5z"></path>		<path class="st30" d="M742.2,594.3c0,0,0.8,0.7-0.9,1.2c-3.2,0.9-13.4,1.1-16.2-0.2c-1-0.5,0.9-1,1.5-1.2c0.3-0.1,0.7-0.1,1-0.1   c-1.1-0.8-7.3,1.5-3.2,2.2C735.7,598.2,745.1,595.7,742.2,594.3L742.2,594.3z M730.4,585.5c0,0-5.2,1.2-1.9,1.7   c2.3,0.2,4.6,0.2,6.8,0c2.1-0.2,4.3-0.5,4.3-0.5c-0.5,0.2-0.9,0.4-1.3,0.7c-5.3,1.3-15.4,0.5-12.5-0.8   C727.3,585.8,728.8,585.4,730.4,585.5L730.4,585.5z M739.6,590.8c5.4-2.7,2.9-5.4,1.2-5.1c-0.2,0-0.4,0.1-0.6,0.2   c0.1-0.2,0.3-0.3,0.5-0.3c3.4-1.2,6,3.6-1.2,5.4C739.5,590.9,739.5,590.8,739.6,590.8L739.6,590.8z"></path>		<path class="st30" d="M736.6,569.9c0,0,2.9,3-2.9,7.5c-4.7,3.6-1.1,5.7-0.1,8.1c-2.7-2.5-4.6-4.6-3.3-6.6   C732.3,575.9,737.8,574.6,736.6,569.9L736.6,569.9z"></path>		<path class="st30" d="M730.7,598.2c5.1,0.4,13,0,13.2-2.4c0,0-0.4,0.9-4.2,1.6c-4.3,0.7-8.7,0.7-13,0   C726.7,597.3,727.3,597.9,730.7,598.2z"></path>		<path class="st30" d="M743.6,602.7h-0.2v-0.1h0.4v0.1h-0.2v0.4h-0.1L743.6,602.7z M744.4,602.7L744.4,602.7l-0.2,0.4h-0.1   l-0.2-0.4l0,0v0.4H744v-0.5h0.2l0.1,0.4l0.2-0.4h0.2v0.5h-0.1L744.4,602.7L744.4,602.7z M729.8,607.4c-0.4,0.4-0.9,0.6-1.5,0.6   c-0.5,0-1-0.3-1-0.9c0,0,0-0.1,0-0.1c0-0.7,0.4-1.2,1.9-1.2h0.6L729.8,607.4L729.8,607.4z M731.1,608.9l0.1-4.7c0-1.2-0.7-2-2.3-2   c-0.9,0-1.7,0.2-2.5,0.5l0.2,0.8c0.6-0.2,1.3-0.3,1.9-0.3c1,0,1.3,0.4,1.3,1.2v0.6h-0.5c-2.3,0-3.3,0.8-3.3,2.2   c0,1.2,0.7,1.8,1.9,1.8c0.7,0,1.5-0.3,2-0.8l0.1,0.7L731.1,608.9z M735.5,609h-1.7l-1.9-6.5h1.5l1.2,4l0.3,1.2   c0.6-1.7,1.1-3.4,1.4-5.2h1.4C737.2,604.7,736.5,606.9,735.5,609L735.5,609z M741.9,607.6c-0.4,0.4-0.9,0.6-1.5,0.6   c-0.5,0-1-0.3-1-0.8c0-0.1,0-0.1,0-0.2c0-0.7,0.4-1.2,1.9-1.2h0.6L741.9,607.6z M743.2,609.1l0.1-4.7c0-1.2-0.7-2-2.3-2   c-0.9,0-1.7,0.2-2.5,0.5l0.2,0.8c0.6-0.2,1.3-0.4,1.9-0.4c0.9,0,1.3,0.4,1.3,1.2v0.6h-0.5c-2.3,0-3.3,0.8-3.4,2.2   c0,1.2,0.7,1.8,1.9,1.8c0.7,0,1.5-0.3,2-0.8l0.1,0.7L743.2,609.1z M724.5,609.9c-0.4,0.6-1,1-1.7,1.2l-0.6-0.8   c0.5-0.2,0.9-0.6,1.2-1.1c0.2-0.6,0.3-1.2,0.3-1.9l0.1-7.4h1.4l-0.1,7.3C725.1,608.3,724.9,609.2,724.5,609.9L724.5,609.9z"></path>		<g id="layer1">			<g id="g1894">				<path id="path8615" class="st28" d="M679.9,685.9c-11,0-10.3,4.8-10.3,4.8v5H680v1.5h-14.7c0,0-7-0.8-7,10.3s6.2,10.7,6.2,10.7     h3.7V713c0,0-0.2-6.2,6.1-6.2h10.4c0,0,5.9,0.1,5.9-5.7v-9.5C690.5,691.7,691.4,685.9,679.9,685.9z M674.1,689.3     c1,0,1.9,0.8,1.9,1.9c0,1-0.8,1.9-1.9,1.9c-1,0-1.9-0.8-1.9-1.9S673,689.3,674.1,689.3L674.1,689.3z"></path>				<path id="path8620" class="st28" d="M680.2,729.1c11,0,10.3-4.8,10.3-4.8v-4.9H680v-1.5h14.7c0,0,7,0.8,7-10.3     s-6.2-10.7-6.2-10.7h-3.7v5.1c0,0,0.2,6.2-6,6.2h-10.5c0,0-5.8-0.1-5.8,5.7v9.5C669.6,723.3,668.7,729.1,680.2,729.1z      M686,725.8c-1,0-1.9-0.8-1.9-1.9c0-1,0.8-1.9,1.9-1.9c1,0,1.9,0.8,1.9,1.9C687.9,724.9,687,725.7,686,725.8L686,725.8z"></path>			</g>		</g>	</g></g></svg>