<svg xmlns="http://www.w3.org/2000/svg" viewBox="0 0 1024 1024"><defs><style>.cls-1{isolation:isolate;}.cls-2{opacity:0.09;}.cls-14,.cls-2,.cls-5,.cls-6,.cls-8{mix-blend-mode:overlay;}.cls-13,.cls-3{fill:#6b7e8f;}.cls-10,.cls-11,.cls-12,.cls-13,.cls-15,.cls-3,.cls-4,.cls-7,.cls-9{stroke:#24313e;stroke-miterlimit:10;stroke-width:2.31px;}.cls-15,.cls-3,.cls-4,.cls-5,.cls-6,.cls-7{fill-rule:evenodd;}.cls-4{fill:#d9dee5;}.cls-5,.cls-8{opacity:0.38;}.cls-14,.cls-6{fill:#ebf0f5;opacity:0.21;}.cls-7{fill:#9caab8;}.cls-9{fill:#455666;}.cls-10{fill:#24313e;}.cls-11{fill:#0c7ff2;}.cls-12{fill:#3ab2d0;}.cls-15{fill:#f5f7f9;}</style></defs><g class="cls-1"><g id="Layer_1" data-name="Layer 1"><ellipse class="cls-2" cx="340.46" cy="818.34" rx="64.14" ry="6.93"></ellipse><path class="cls-3" d="M540.48,804.49l-1.29,82.93a2.41,2.41,0,0,0,4.36,1.46L749.24,607.54a2.41,2.41,0,0,0-3.63-3.16L541.21,802.8A2.39,2.39,0,0,0,540.48,804.49Z"></path><path class="cls-4" d="M767.82,593.21,627.05,778.8l-55.19,72.77-28.31,37.32a2.41,2.41,0,0,1-4.36-1.47l20.42-63.8a.68.68,0,0,1,0-.2,2.38,2.38,0,0,1,.71-1.48l24-27.26L764.19,590.05A2.42,2.42,0,0,1,767.82,593.21Z"></path><path class="cls-5" d="M627.05,778.8l-55.19,72.77-12.23-28.15-.67-1.53s12.12-12.95,25.34-27.21c15.77-17,33.12-35.89,33.28-36.87S622.9,767.35,627.05,778.8Z"></path><path class="cls-6" d="M583.64,585.47c-9.26-3.49-18.34-10.51-25.8-23.3a56.43,56.43,0,0,0-11.75-13.9c16.74,6.32,25.48,22.2,25.48,22.2A59.88,59.88,0,0,0,583.64,585.47Z"></path><path class="cls-6" d="M626.84,624.24c0,1.88,0,3.72,0,5.49-25.34,2.66-41.57-4.44-51.7-12.86,12.05,5.09,28.73,7.31,51.63,2.34C626.82,620.92,626.83,622.6,626.84,624.24Z"></path><path class="cls-6" d="M627,328.38l-.43.12q-2-1.33-3.87-2.58C624.06,326.7,625.5,327.52,627,328.38Z"></path><path class="cls-6" d="M587.12,535.31c17.09,8.54,36.55,12.57,55.66,14.74a36.73,36.73,0,0,0-5,5.47C619.6,552,601.94,546.05,587.12,535.31Z"></path><path class="cls-7" d="M926.1,444.18c0,104-66.24,192.47-158.82,225.61q-2.44.88-4.89,1.69c-12.16,2.35-16.47-5.11-16.47-11.52,0-7.85.29-33.7.29-65.72a81.87,81.87,0,0,0-1.79-17.54C741.67,564,736,555.12,730,549.87c53.37-5.93,109.39-26.2,109.39-118.23,0-26.16-9.28-47.55-24.63-64.29,2.46-6.07,10.69-30.43-2.38-63.41,0,0-20.08-6.44-65.82,24.56a227,227,0,0,0-120,0c-45.77-31-65.89-24.56-65.89-24.56-13,33-4.81,57.34-2.34,63.41-15.34,16.74-24.67,38.13-24.67,64.29,0,91.82,55.93,112.37,109.14,118.41-6.84,6-13,16.55-15.21,32-13.65,6.12-48.36,16.69-69.73-19.92,0,0-12.66-23-36.7-24.68,0,0-23.4-.3-1.65,14.56,0,0,15.71,7.36,26.61,35.05,0,0,14.06,46.59,80.71,32.11,0,1.71,0,3.39,0,5,.12,17.48.29,30.52.29,35.72,0,6.35-4.37,13.75-16.35,11.55a238.07,238.07,0,0,1-47.2-21.69q-9.55-5.7-18.52-12.29a239.57,239.57,0,0,1,141.43-433C818.81,204.57,926.1,311.83,926.1,444.18Z"></path><path class="cls-6" d="M817,243.17A239.61,239.61,0,0,0,558.79,645.83q5.33,3.9,10.86,7.5-3.06-1.71-6.07-3.51-9.55-5.7-18.52-12.29A239.6,239.6,0,0,1,817,243.17Z"></path><path class="cls-6" d="M743.68,558.17c6.09,5.25,11.72,14.12,14.47,26.83a81.87,81.87,0,0,1,1.79,17.54c0,32-.29,57.87-.29,65.71a14.1,14.1,0,0,0,.46,3.57c-10.42,1-14.19-5.86-14.19-11.86,0-7.85.29-33.7.29-65.72a81.87,81.87,0,0,0-1.79-17.54C741.67,564,736,555.12,730,549.87c53.37-5.93,109.39-26.2,109.39-118.23,0-26.16-9.28-47.55-24.63-64.29,2.26-5.56,4.75-34.92-4.14-63.75,4.27-3.37,15.75,5.72,15.49,8.64,13.07,33,4.85,57.34,2.38,63.41,15.36,16.74,24.63,38.12,24.63,64.28C853.07,532,797.05,552.23,743.68,558.17Z"></path><path class="cls-6" d="M640.57,632.54c.12,17.48.29,30.52.29,35.71,0,6.36-4.37,13.76-16.35,11.55a237.65,237.65,0,0,1-47.19-21.68q-3.89-2.32-7.67-4.79a237.41,237.41,0,0,0,41.13,18.18c12,2.2,16.35-5.2,16.35-11.55,0-4.64-.14-15.51-.25-30.23a126.22,126.22,0,0,0,13.66-2.22C640.55,629.21,640.56,630.9,640.57,632.54Z"></path><path class="cls-8" d="M626.84,624.24c.12,17.48.29,30.52.29,35.72,0,6.35-4.37,13.75-16.35,11.55a238.07,238.07,0,0,1-47.2-21.69Z"></path><path class="cls-8" d="M781.81,570.35l-14.53,99.44q-2.44.88-4.89,1.69c-12.16,2.35-16.47-5.11-16.47-11.52,0-7.85.29-33.7.29-65.72a81.87,81.87,0,0,0-1.79-17.54l31.07-12.57Z"></path><path class="cls-8" d="M545.06,637.53a239.68,239.68,0,0,1-63.85-317l5.45,7.4a17,17,0,0,1,2,16.49l-21.55,52.81s37,51.63,31.81,65.65,17.42,22.42,15.09,33.84c-5.43,26.56-20.71,24.76-21.75,32s-1.76,24.2-1.76,24.2,52.31,52.43,53,53.87S548.58,634.59,545.06,637.53Z"></path><path id="Path_9328" data-name="Path 9328" class="cls-9" d="M487.2,513.77c0,71.73-66.33,130.08-148.11,130.08s-148.34-58-148.34-130.08"></path><path id="Path_9329" data-name="Path 9329" class="cls-10" d="M208.58,578.27,332.66,700.78a12.52,12.52,0,0,0,17.54,0L471.33,578.27a12.38,12.38,0,0,0,0-17.52l0,0a12.68,12.68,0,0,0-8.79-3.54H217.33A12.5,12.5,0,0,0,205,569.71,12.24,12.24,0,0,0,208.58,578.27Z"></path><path id="Path_9330" data-name="Path 9330" class="cls-9" d="M382.82,785l-60.15-60.15L476.41,571.5a11.67,11.67,0,0,1,16.22,0h0l43.66,43.65a11.73,11.73,0,0,1,0,16.28h0Z"></path><path id="Path_9345" data-name="Path 9345" class="cls-9" d="M360.15,723.15l-59.1,61.1-156.15-151a11.77,11.77,0,0,1,0-16.27h0l42.94-44.4a11.58,11.58,0,0,1,16.28,0h0Z"></path><path id="Path_9331" data-name="Path 9331" class="cls-11" d="M184.71,501.62h0c0-62.5,51.22-149,113.82-149h80c62.59,0,113.82,86.49,113.82,149h0"></path><circle id="Ellipse_703" data-name="Ellipse 703" class="cls-11" cx="277.38" cy="538.93" r="57.42"></circle><circle id="Ellipse_704" data-name="Ellipse 704" class="cls-12" cx="277.38" cy="538.93" r="29.33"></circle><circle id="Ellipse_703-2" data-name="Ellipse 703" class="cls-11" cx="403.23" cy="538.93" r="57.42"></circle><ellipse class="cls-8" cx="338.51" cy="519.78" rx="137.4" ry="9"></ellipse><circle id="Ellipse_704-2" data-name="Ellipse 704" class="cls-12" cx="403.23" cy="538.93" r="29.33"></circle><path id="Rectangle_1314" data-name="Rectangle 1314" class="cls-11" d="M195.06,473.75h287a22.94,22.94,0,0,1,23,22.85v.2h0a23,23,0,0,1-23,23h-287a23,23,0,0,1-23-22.94v0h0a23,23,0,0,1,23-23h.07Z"></path><path id="Rectangle_1315" data-name="Rectangle 1315" class="cls-13" d="M232.61,407l3.36-5.26a27.27,27.27,0,0,1,37.67-8.31h0A27.29,27.29,0,0,1,282,431.11l-3.36,5.26a27.27,27.27,0,0,1-37.67,8.31h0A27.27,27.27,0,0,1,232.61,407Z"></path><path id="Rectangle_1316" data-name="Rectangle 1316" class="cls-13" d="M405.05,393.37h0a27.16,27.16,0,0,1,37.54,8.13,1.64,1.64,0,0,1,.14.22l3.4,5.19a27.16,27.16,0,0,1-8,37.56l-.25.16h0a27.33,27.33,0,0,1-37.68-8.35l-3.39-5.19a27.15,27.15,0,0,1,8-37.56Z"></path><path id="Rectangle_1317" data-name="Rectangle 1317" class="cls-9" d="M204.91,319.58h0a21.79,21.79,0,0,1,28.75,11.11l31.4,71A21.8,21.8,0,0,1,254,430.4h0a21.8,21.8,0,0,1-28.75-11.11l-31.4-71A21.78,21.78,0,0,1,204.91,319.58Z"></path><circle id="Ellipse_705" data-name="Ellipse 705" class="cls-13" cx="246.09" cy="402.29" r="26.82"></circle><path id="Rectangle_1318" data-name="Rectangle 1318" class="cls-9" d="M407.4,401.75l31.43-71a21.77,21.77,0,0,1,28.7-11.11h0a21.76,21.76,0,0,1,11.11,28.7v0l-31.4,71a21.79,21.79,0,0,1-28.73,11.14h0a21.84,21.84,0,0,1-11.11-28.75Z"></path><circle id="Ellipse_706" data-name="Ellipse 706" class="cls-13" cx="426.41" cy="409.46" r="26.82"></circle><path id="Path_9340" data-name="Path 9340" class="cls-11" d="M494.78,611.19a15.49,15.49,0,0,1,0,21.8L346.91,780.76a15.46,15.46,0,0,1-23-20.68l.71-.7H325l147.8-147.8a15.57,15.57,0,0,1,21.94-.41Z"></path><path id="Rectangle_1325" data-name="Rectangle 1325" class="cls-11" d="M357.69,785.82h0a15.51,15.51,0,0,1-21.86,0L188.13,638.06a15.38,15.38,0,0,1,0-21.75h0a15.49,15.49,0,0,1,21.8,0L357.69,764.1a15.4,15.4,0,0,1,.1,21.79l-.1.1S357.8,785.89,357.69,785.82Z"></path><circle id="Ellipse_700" data-name="Ellipse 700" class="cls-11" cx="341.95" cy="745.49" r="74.89"></circle><circle id="Ellipse_700-2" data-name="Ellipse 700" class="cls-11" cx="341.95" cy="745.49" r="38.29"></circle><ellipse class="cls-14" cx="295.53" cy="538.93" rx="5.47" ry="16.93"></ellipse><ellipse class="cls-14" cx="421.45" cy="540.25" rx="5.47" ry="16.93"></ellipse><path class="cls-8" d="M482.87,684.88c-31.25,29.75-57.78,60.06-59.57,59.61s21.79-32.07,53.05-61.82,55.51-50.27,57.29-49.81S514.12,655.13,482.87,684.88Z"></path><path class="cls-14" d="M432.35,625.61c-30.61,29.75-57.05,53.32-59.06,52.65s21.19-25.34,51.8-55.09,51.39-52.45,53.39-51.77S463,595.87,432.35,625.61Z"></path><path class="cls-14" d="M442.37,653.2c-23,22.27-43.07,39.64-44.9,38.8s15.3-19.6,38.27-41.87S474,610.54,475.8,611.39,465.34,630.93,442.37,653.2Z"></path><path class="cls-8" d="M461.55,666.63c-25.17,24.41-47.22,49.44-49.11,48.64s17.13-27.12,42.29-51.53,42.19-38.71,44.08-37.91S486.72,642.22,461.55,666.63Z"></path><path class="cls-14" d="M260.2,627.76c25.36,26.64,51.47,49,51,50.63s-27.94-18-53.3-44.64S200.6,572,201.11,570.41,234.84,601.12,260.2,627.76Z"></path><path class="cls-8" d="M203.47,681.75c28.41,29.23,50.92,54.48,50.28,56.4s-24.2-20.24-52.61-49.47-50.09-49.07-49.44-51S175.06,652.51,203.47,681.75Z"></path><path class="cls-8" d="M229.82,668.86c21.27,21.93,42.9,48.35,42.09,50.1s-23.75-21.83-45-43.76-37.81-36.51-37-38.26S208.55,646.93,229.82,668.86Z"></path><path class="cls-14" d="M242.64,650.55c23.31,24,45.83,41.52,45.07,43.32s-24.52-12.78-47.83-36.82-37-40.29-36.2-42.08S219.33,626.51,242.64,650.55Z"></path><path class="cls-14" d="M309.69,745.49c0,16.15,13.47,29.24,19.31,29.24s-11.22-13.09-11.22-29.24,17.07-29.23,11.22-29.23S309.69,729.35,309.69,745.49Z"></path><path class="cls-14" d="M271.5,743.91c0,31.35,24.65,60.31,30.5,60.39,7.69.11-26-27.13-25.05-59.48.79-26.58,32.13-55.59,26.29-55.59S271.5,717.31,271.5,743.91Z"></path><path class="cls-15" d="M773.62,573.91,543.56,804a1.47,1.47,0,0,1-1.75.24L402.17,726.86a1.46,1.46,0,0,1,.15-2.63L772,571.52A1.46,1.46,0,0,1,773.62,573.91Z"></path><path class="cls-4" d="M773.7,572.27,559.22,818.68a1,1,0,0,0,.34,1.62l156.63,72.43a1,1,0,0,0,1.44-.73l57.84-318.84A1,1,0,0,0,773.7,572.27Z"></path><ellipse class="cls-14" cx="336.22" cy="481.62" rx="144.3" ry="3.6"></ellipse><ellipse class="cls-14" cx="421.79" cy="397.27" rx="9.34" ry="8.12"></ellipse><ellipse class="cls-14" cx="250.89" cy="392.68" rx="9.34" ry="8.12"></ellipse><ellipse class="cls-14" cx="340.46" cy="359.76" rx="59.13" ry="3.83"></ellipse><path class="cls-6" d="M773.63,573.91l-5.73,5.72.12-.82-344.81,149,123.72,69.47,1.53,1.85-4.9,4.89a1.48,1.48,0,0,1-1.75.24L402.17,726.86a1.46,1.46,0,0,1,.15-2.63L772,571.52A1.47,1.47,0,0,1,773.63,573.91Z"></path><path class="cls-6" d="M775.47,573.17l-.1.54C745.87,610.28,573.89,815,573.89,815l145.43,67.6-1.7,9.36a1,1,0,0,1-1.44.74L559.56,820.3a1,1,0,0,1-.34-1.62l214.49-246.4A1,1,0,0,1,775.47,573.17Z"></path></g></g></svg>