<svg xmlns="http://www.w3.org/2000/svg" viewBox="0 0 1443 864"><defs><style>.cls-1{fill:none;}.cls-2{fill:#24313e;}.cls-3{fill:#ebf0f5;}.cls-3,.cls-4{stroke:#24313e;stroke-miterlimit:10;stroke-width:2px;}.cls-4{fill:#0062ff;}.cls-17,.cls-19,.cls-22,.cls-5{font-size:46.44px;fill:#fff;font-family:Montserrat-Bold, Montserrat;font-weight:700;}.cls-24,.cls-5{letter-spacing:-0.01em;}.cls-17,.cls-6{letter-spacing:0em;}.cls-22,.cls-7{letter-spacing:0em;}.cls-8{letter-spacing:0em;}.cls-9{letter-spacing:0em;}.cls-10{letter-spacing:0em;}.cls-11{letter-spacing:-0.07em;}.cls-12{letter-spacing:0em;}.cls-13{letter-spacing:0em;}.cls-14{letter-spacing:0.01em;}.cls-15{letter-spacing:-0.01em;}.cls-16{letter-spacing:0em;}.cls-18{letter-spacing:0em;}.cls-19{letter-spacing:0em;}.cls-20{letter-spacing:0.01em;}.cls-21{letter-spacing:0.01em;}.cls-23{letter-spacing:0.01em;}.cls-25{letter-spacing:-0.02em;}.cls-26{letter-spacing:-0.04em;}</style></defs><g id="Layer_2" data-name="Layer 2"><g id="Layer_1-2" data-name="Layer 1"><rect class="cls-1" width="1443" height="864"></rect><path class="cls-2" d="M916.55,310.54A240,240,0,0,0,745.68,197a6,6,0,0,1-5.11-6.68l6.7-56.94a6,6,0,0,1,6.85-5.27A308.59,308.59,0,0,1,976.71,275.92a6.05,6.05,0,0,1-2.19,8.37L924.7,312.65A6,6,0,0,1,916.55,310.54Z"></path><path class="cls-2" d="M871.23,310.91l105,89.95a6,6,0,0,0,9.86-3.47l25.45-135.87a6,6,0,0,0-8-6.81l-130.4,45.91A6,6,0,0,0,871.23,310.91Z"></path><path class="cls-2" d="M468,407.17l-57-6.12a6,6,0,0,1-5.35-6.75A308.58,308.58,0,0,1,564.33,162.59a6,6,0,0,1,8.23,2.53L599,216a6.06,6.06,0,0,1-2.48,8.09A238.38,238.38,0,0,0,474.64,401.92,6.05,6.05,0,0,1,468,407.17Z"></path><path class="cls-2" d="M595.1,269.34l94-101.33A6,6,0,0,0,686,158L551.27,127.24a6,6,0,0,0-7.12,7.66L584.9,267A6,6,0,0,0,595.1,269.34Z"></path><path class="cls-2" d="M674.09,739.84A308.22,308.22,0,0,1,443.44,586.15a6,6,0,0,1,2.38-8.27l50.37-27.39a6.05,6.05,0,0,1,8.13,2.33,238.83,238.83,0,0,0,177,118,6,6,0,0,1,5.27,6.59l-5.78,57.05A6,6,0,0,1,674.09,739.84Z"></path><path class="cls-2" d="M549.58,553.31l-103.15-92a6,6,0,0,0-9.93,3.27L408.36,599.9a6,6,0,0,0,7.8,7l131.29-43.32A6,6,0,0,0,549.58,553.31Z"></path><path class="cls-2" d="M856.91,698.85l-27.59-50.26a6.06,6.06,0,0,1,2.29-8.14A238.67,238.67,0,0,0,949,461.71a6.06,6.06,0,0,1,6.56-5.35l57.09,5.24a6,6,0,0,1,5.45,6.66A308.53,308.53,0,0,1,865.19,701.19,6,6,0,0,1,856.91,698.85Z"></path><path class="cls-2" d="M831.93,595.19,740.32,698.71a6,6,0,0,0,3.32,9.92l135.45,27.6a6,6,0,0,0,6.93-7.84L842.18,597.28A6,6,0,0,0,831.93,595.19Z"></path><path class="cls-3" d="M910.9,310.54A240,240,0,0,0,740,197a6,6,0,0,1-5.12-6.68l6.7-56.94a6,6,0,0,1,6.86-5.27A308.54,308.54,0,0,1,971.05,275.92a6,6,0,0,1-2.18,8.37L919,312.65A6,6,0,0,1,910.9,310.54Z"></path><path class="cls-3" d="M865.58,310.91l104.95,89.95a6,6,0,0,0,9.87-3.47l25.44-135.87a6,6,0,0,0-7.94-6.81L867.5,300.62A6,6,0,0,0,865.58,310.91Z"></path><path class="cls-3" d="M462.35,407.17l-57-6.12A6,6,0,0,1,400,394.3,308.56,308.56,0,0,1,558.68,162.59a6,6,0,0,1,8.23,2.53L593.3,216a6,6,0,0,1-2.48,8.09A238.37,238.37,0,0,0,469,401.92,6.06,6.06,0,0,1,462.35,407.17Z"></path><path class="cls-3" d="M589.44,269.34l94-101.33a6,6,0,0,0-3.08-10L545.62,127.24a6,6,0,0,0-7.12,7.66L579.24,267A6,6,0,0,0,589.44,269.34Z"></path><path class="cls-3" d="M668.44,739.84A308.2,308.2,0,0,1,437.79,586.15a6,6,0,0,1,2.37-8.27l50.37-27.39a6.07,6.07,0,0,1,8.14,2.33,238.81,238.81,0,0,0,177,118,6,6,0,0,1,5.27,6.59l-5.78,57.05A6,6,0,0,1,668.44,739.84Z"></path><path class="cls-3" d="M543.93,553.31l-103.15-92a6,6,0,0,0-9.93,3.27L402.71,599.9a6,6,0,0,0,7.8,7L541.8,563.55A6,6,0,0,0,543.93,553.31Z"></path><path class="cls-3" d="M851.26,698.85l-27.59-50.26a6,6,0,0,1,2.29-8.14A238.67,238.67,0,0,0,943.37,461.71a6.05,6.05,0,0,1,6.55-5.35L1007,461.6a6,6,0,0,1,5.46,6.66A308.53,308.53,0,0,1,859.54,701.19,6,6,0,0,1,851.26,698.85Z"></path><path class="cls-3" d="M826.27,595.19l-91.6,103.52a6,6,0,0,0,3.31,9.92l135.45,27.6a6,6,0,0,0,6.94-7.84L836.52,597.28A6,6,0,0,0,826.27,595.19Z"></path><rect class="cls-2" x="134.55" y="89.81" width="374.54" height="142.35" rx="15.03"></rect><rect class="cls-4" x="117.48" y="89.81" width="374.54" height="142.35" rx="15.03"></rect><text class="cls-5" transform="translate(133.2 148.68) scale(0.95 1)">P<tspan class="cls-6" x="33.39" y="0">R</tspan><tspan class="cls-7" x="67.39" y="0">O</tspan><tspan class="cls-8" x="106.65" y="0">P</tspan><tspan class="cls-9" x="140.47" y="0">O</tspan><tspan class="cls-10" x="179.83" y="0">G</tspan><tspan class="cls-11" x="215.49" y="0">A</tspan><tspan class="cls-12" x="247.64" y="0">T</tspan><tspan class="cls-13" x="276.12" y="0">I</tspan><tspan class="cls-7" x="291.31" y="0">N</tspan><tspan class="cls-14" x="328.9" y="0">G</tspan><tspan class="cls-14"><tspan x="69.68" y="55.73"> </tspan><tspan class="cls-15" x="83.29" y="55.73">C</tspan><tspan class="cls-16" x="117.01" y="55.73">HA</tspan><tspan class="cls-7" x="190.39" y="55.73">NG</tspan><tspan x="263.86" y="55.73">E</tspan></tspan></text><rect class="cls-2" x="957.51" y="81.39" width="217.75" height="108.61" rx="15.03"></rect><rect class="cls-4" x="947.59" y="81.39" width="217.75" height="108.61" rx="15.03"></rect><text class="cls-17" transform="translate(983.53 148.6) scale(0.95 1)">B<tspan class="cls-18" x="35.39" y="0">U</tspan><tspan class="cls-13" x="72.09" y="0">I</tspan><tspan class="cls-15" x="87.28" y="0">L</tspan><tspan class="cls-14" x="115.01" y="0">D</tspan></text><rect class="cls-2" x="949.44" y="674.38" width="241.28" height="99.95" rx="10.17"></rect><rect class="cls-4" x="938.44" y="674.38" width="241.28" height="99.95" rx="10.17"></rect><text class="cls-19" transform="translate(1004.79 739.69) scale(0.95 1)">T<tspan class="cls-20" x="28.48" y="0">E</tspan><tspan class="cls-21" x="60.02" y="0">S</tspan><tspan class="cls-14" x="90.04" y="0">T</tspan></text><rect class="cls-2" x="250.78" y="672.73" width="267.54" height="97.62" rx="10.17"></rect><rect class="cls-4" x="238.59" y="672.73" width="267.54" height="97.62" rx="10.17"></rect><text class="cls-22" transform="translate(278.72 740.57) scale(0.95 1)">D<tspan class="cls-23" x="38.43" y="0">E</tspan><tspan class="cls-24" x="69.92" y="0">P</tspan><tspan class="cls-25" x="103.31" y="0">L</tspan><tspan class="cls-26" x="130.65" y="0">O</tspan><tspan class="cls-14" x="167.81" y="0">Y</tspan></text></g></g></svg>