<svg xmlns="http://www.w3.org/2000/svg" viewBox="0 0 1024 1024"><defs><style>.cls-1{isolation:isolate;}.cls-2{opacity:0.1;}.cls-14,.cls-2,.cls-7{mix-blend-mode:overlay;}.cls-3{fill:#9caab8;}.cls-3,.cls-8{stroke:#031439;}.cls-10,.cls-11,.cls-12,.cls-3,.cls-4,.cls-5,.cls-6,.cls-8,.cls-9{stroke-miterlimit:10;stroke-width:2px;}.cls-13,.cls-4,.cls-8{fill:#24313e;}.cls-4{stroke:#f5f7f9;}.cls-5{fill:#455666;}.cls-11,.cls-12,.cls-5,.cls-6,.cls-9{stroke:#24313e;}.cls-14,.cls-6,.cls-7{fill:#ebf0f5;}.cls-7{opacity:0.21;}.cls-9{fill:#0c7ff2;}.cls-10{fill:#fff;stroke:#000;}.cls-11{fill:#3ab2d0;}.cls-12{fill:#f5f7f9;}.cls-13{opacity:0.24;mix-blend-mode:multiply;}</style></defs><g class="cls-1"><g id="Layer_1" data-name="Layer 1"><rect class="cls-2" x="570.39" y="796.82" width="312.89" height="10.61" rx="5.24"></rect><path class="cls-3" d="M585.54,802.92a14.88,14.88,0,0,1,14.88,14.87v11.87c0,5.07-129.68,9.19-289.64,9.19s-289.64-4.12-289.64-9.19V817.79A14.87,14.87,0,0,1,36,802.92Z"></path><path class="cls-4" d="M583.44,805.62c0,5.08-111.43,9.2-269.6,9.2s-286.38-4.12-286.38-9.2,128.22-9.19,286.38-9.19S583.44,800.55,583.44,805.62Z"></path><rect class="cls-3" x="823.05" y="248.72" width="173.34" height="4.2" transform="translate(1819.44 501.64) rotate(-180)"></rect><rect class="cls-3" x="823.05" y="227.05" width="173.34" height="4.2" transform="translate(1819.44 458.3) rotate(-180)"></rect><rect class="cls-3" x="991.35" y="227.05" width="5.04" height="35.71" transform="translate(1987.74 489.81) rotate(-180)"></rect><rect class="cls-3" x="944.49" y="227.05" width="5.04" height="35.71" transform="translate(1894.01 489.81) rotate(-180)"></rect><rect class="cls-3" x="897.62" y="227.05" width="5.04" height="35.71" transform="translate(1800.29 489.81) rotate(-180)"></rect><rect class="cls-5" x="868.76" y="259.21" width="40.96" height="76" rx="3.15" transform="translate(1778.48 594.41) rotate(-180)"></rect><path class="cls-5" d="M172.36,250.2h41.5a14.5,14.5,0,0,1,14.5,14.5v2.07a0,0,0,0,1,0,0H157.85a0,0,0,0,1,0,0v-2.07a14.5,14.5,0,0,1,14.5-14.5Z" transform="translate(386.21 516.98) rotate(-180)"></path><path class="cls-3" d="M738.43,74.71l2,7.18a1.4,1.4,0,0,0,.13.34l51.57,112.25a2.21,2.21,0,0,0,2,1.29h0a2.22,2.22,0,0,0,2-3.13L743.2,74.21a1.75,1.75,0,0,1-.12-.32l-.21-.77a2.22,2.22,0,0,0-4.25-.13l-.15.42A2.3,2.3,0,0,0,738.43,74.71Z"></path><rect class="cls-3" x="548.85" y="221.42" width="52.25" height="5.31" transform="translate(350.9 799.05) rotate(-90)"></rect><rect class="cls-3" x="491.14" y="221.42" width="52.25" height="5.31" transform="translate(293.19 741.35) rotate(-90)"></rect><rect class="cls-3" x="433.44" y="221.42" width="52.25" height="5.31" transform="translate(235.49 683.64) rotate(-90)"></rect><rect class="cls-3" x="375.73" y="221.42" width="52.25" height="5.31" transform="translate(177.78 625.93) rotate(-90)"></rect><rect class="cls-3" x="606.56" y="221.42" width="52.25" height="5.31" transform="translate(408.61 856.76) rotate(-90)"></rect><polygon class="cls-3" points="637.35 246.96 633.95 244.71 680.58 199.24 683.98 201.49 637.35 246.96"></polygon><polygon class="cls-3" points="583.4 246.96 580 244.71 626.63 199.24 630.03 201.49 583.4 246.96"></polygon><polygon class="cls-3" points="525.69 246.96 522.29 244.71 568.92 199.24 572.32 201.49 525.69 246.96"></polygon><polygon class="cls-3" points="467.99 246.96 464.58 244.71 511.21 199.24 514.62 201.49 467.99 246.96"></polygon><polygon class="cls-3" points="412.48 246.96 409.08 244.71 455.71 199.24 459.11 201.49 412.48 246.96"></polygon><polygon class="cls-3" points="356.97 246.96 353.57 244.71 400.2 199.24 403.6 201.49 356.97 246.96"></polygon><polygon class="cls-3" points="637.35 199.24 633.95 201.49 680.58 246.96 683.98 244.71 637.35 199.24"></polygon><polygon class="cls-3" points="583.4 199.24 580 201.49 626.63 246.96 630.03 244.71 583.4 199.24"></polygon><polygon class="cls-3" points="525.69 199.24 522.29 201.49 568.92 246.96 572.32 244.71 525.69 199.24"></polygon><polygon class="cls-3" points="467.99 199.24 464.58 201.49 511.21 246.96 514.62 244.71 467.99 199.24"></polygon><polygon class="cls-3" points="412.48 199.24 409.08 201.49 455.71 246.96 459.11 244.71 412.48 199.24"></polygon><polygon class="cls-3" points="356.97 199.24 353.57 201.49 400.2 246.96 403.6 244.71 356.97 199.24"></polygon><rect class="cls-3" x="324.79" y="221.42" width="52.25" height="5.31" transform="translate(126.84 574.99) rotate(-90)"></rect><polygon class="cls-3" points="306.03 246.96 302.63 244.71 349.26 199.24 352.66 201.49 306.03 246.96"></polygon><polygon class="cls-3" points="306.03 199.24 302.63 201.49 349.26 246.96 352.66 244.71 306.03 199.24"></polygon><rect class="cls-3" x="273.85" y="221.42" width="52.25" height="5.31" transform="translate(75.9 524.05) rotate(-90)"></rect><polygon class="cls-3" points="255.09 246.96 251.69 244.71 298.32 199.24 301.72 201.49 255.09 246.96"></polygon><polygon class="cls-3" points="255.09 199.24 251.69 201.49 298.32 246.96 301.72 244.71 255.09 199.24"></polygon><rect class="cls-3" x="222.91" y="221.42" width="52.25" height="5.31" transform="translate(24.96 473.11) rotate(-90)"></rect><polygon class="cls-3" points="204.15 246.96 200.74 244.71 247.37 199.24 250.78 201.49 204.15 246.96"></polygon><polygon class="cls-3" points="157.09 246.96 153.69 244.71 200.32 199.24 203.72 201.49 157.09 246.96"></polygon><polygon class="cls-3" points="204.15 199.24 200.74 201.49 247.37 246.96 250.78 244.71 204.15 199.24"></polygon><rect class="cls-3" x="437.6" y="-40.76" width="4.63" height="480" transform="translate(240.68 639.15) rotate(-90)"></rect><rect class="cls-3" x="415.31" y="-18.34" width="4.63" height="532.46" transform="translate(169.73 665.51) rotate(-90)"></rect><rect class="cls-6" x="670.35" y="413.33" width="83.37" height="6.82" transform="translate(1424.07 833.48) rotate(-180)"></rect><rect class="cls-6" x="670.35" y="487.5" width="83.37" height="6.82" transform="translate(1424.07 981.82) rotate(-180)"></rect><rect class="cls-6" x="670.35" y="561.66" width="83.37" height="6.82" transform="translate(1424.07 1130.15) rotate(-180)"></rect><rect class="cls-6" x="670.35" y="635.83" width="83.37" height="6.82" transform="translate(1424.07 1278.48) rotate(-180)"></rect><rect class="cls-6" x="670.35" y="339.16" width="83.37" height="6.82" transform="translate(1424.07 685.15) rotate(-180)"></rect><polygon class="cls-6" points="748.55 336.57 744.96 340.94 672.4 281.01 675.99 276.64 748.55 336.57"></polygon><polygon class="cls-6" points="748.55 405.92 744.96 410.29 672.4 350.36 675.99 345.99 748.55 405.92"></polygon><polygon class="cls-6" points="748.55 480.08 744.96 484.46 672.4 424.53 675.99 420.15 748.55 480.08"></polygon><polygon class="cls-6" points="748.55 554.25 744.96 558.62 672.4 498.69 675.99 494.32 748.55 554.25"></polygon><polygon class="cls-6" points="748.55 625.59 744.96 629.96 672.4 570.03 675.99 565.66 748.55 625.59"></polygon><polygon class="cls-6" points="748.55 696.93 744.96 701.3 672.4 641.37 675.99 637 748.55 696.93"></polygon><polygon class="cls-6" points="672.4 336.57 675.99 340.94 748.55 281.01 744.96 276.64 672.4 336.57"></polygon><polygon class="cls-6" points="672.4 405.92 675.99 410.29 748.55 350.36 744.96 345.99 672.4 405.92"></polygon><polygon class="cls-6" points="672.4 480.08 675.99 484.46 748.55 424.53 744.96 420.15 672.4 480.08"></polygon><polygon class="cls-6" points="672.4 554.25 675.99 558.62 748.55 498.69 744.96 494.32 672.4 554.25"></polygon><polygon class="cls-6" points="672.4 625.59 675.99 629.96 748.55 570.03 744.96 565.66 672.4 625.59"></polygon><polygon class="cls-6" points="672.4 696.93 675.99 701.3 748.55 641.37 744.96 637 672.4 696.93"></polygon><rect class="cls-3" x="670.35" y="276.81" width="7.39" height="428.46" transform="translate(1348.08 982.08) rotate(-180)"></rect><rect class="cls-6" x="673.84" y="280.3" width="7.39" height="428.46" transform="translate(1355.06 989.06) rotate(-180)"></rect><rect class="cls-3" x="748.55" y="339.16" width="51.25" height="6.82" transform="translate(1548.35 685.15) rotate(-180)"></rect><rect class="cls-3" x="748.55" y="413.33" width="51.25" height="6.82" transform="translate(1548.35 833.48) rotate(-180)"></rect><rect class="cls-3" x="748.55" y="487.5" width="51.25" height="6.82" transform="translate(1548.35 981.82) rotate(-180)"></rect><rect class="cls-3" x="748.55" y="561.66" width="51.25" height="6.82" transform="translate(1548.35 1130.15) rotate(-180)"></rect><rect class="cls-3" x="748.55" y="635.83" width="51.25" height="6.82" transform="translate(1548.35 1278.48) rotate(-180)"></rect><polygon class="cls-3" points="796.63 336.57 794.42 340.94 749.81 281.01 752.02 276.64 796.63 336.57"></polygon><polygon class="cls-3" points="796.63 405.92 794.42 410.29 749.81 350.36 752.02 345.99 796.63 405.92"></polygon><polygon class="cls-3" points="796.63 480.08 794.42 484.46 749.81 424.53 752.02 420.15 796.63 480.08"></polygon><polygon class="cls-3" points="796.63 554.25 794.42 558.62 749.81 498.69 752.02 494.32 796.63 554.25"></polygon><polygon class="cls-3" points="796.63 625.59 794.42 629.96 749.81 570.03 752.02 565.66 796.63 625.59"></polygon><polygon class="cls-3" points="796.63 696.93 794.42 701.3 749.81 641.37 752.02 637 796.63 696.93"></polygon><polygon class="cls-3" points="749.81 336.57 752.02 340.94 796.63 281.01 794.42 276.64 749.81 336.57"></polygon><polygon class="cls-3" points="749.81 405.92 752.02 410.29 796.63 350.36 794.42 345.99 749.81 405.92"></polygon><polygon class="cls-3" points="749.81 480.08 752.02 484.46 796.63 424.53 794.42 420.15 749.81 480.08"></polygon><polygon class="cls-3" points="749.81 554.25 752.02 558.62 796.63 498.69 794.42 494.32 749.81 554.25"></polygon><polygon class="cls-3" points="749.81 625.59 752.02 629.96 796.63 570.03 794.42 565.66 749.81 625.59"></polygon><polygon class="cls-3" points="749.81 696.93 752.02 701.3 796.63 641.37 794.42 637 749.81 696.93"></polygon><rect class="cls-3" x="794.26" y="276.81" width="4.54" height="428.46" transform="translate(1593.05 982.08) rotate(-180)"></rect><rect class="cls-6" x="797.53" y="276.81" width="4.54" height="428.46" transform="translate(1599.61 982.08) rotate(-180)"></rect><path class="cls-5" d="M688.4,265.21H795.79A5.22,5.22,0,0,0,801,260V201a5.22,5.22,0,0,0-5.22-5.21H724a5.27,5.27,0,0,0-3.47,1.31l-43.4,38.57a5.21,5.21,0,0,0-1.41,5.76l7.79,20.44A5.21,5.21,0,0,0,688.4,265.21Z"></path><path class="cls-3" d="M653,265.21H761.14a4.75,4.75,0,0,0,4.76-4.75V200.53a4.76,4.76,0,0,0-4.76-4.75H688.72a4.73,4.73,0,0,0-3.16,1.2l-43.77,38.89a4.77,4.77,0,0,0-1.29,5.25l8,21A4.74,4.74,0,0,0,653,265.21Z"></path><path class="cls-7" d="M765.83,199.8H696.16A4.76,4.76,0,0,0,693,201l-43.77,38.9a4.72,4.72,0,0,0-1.28,5.24l7.65,20.08H653a4.75,4.75,0,0,1-4.44-3.07l-8-21a4.76,4.76,0,0,1,1.29-5.25L685.57,197a4.72,4.72,0,0,1,3.15-1.21h72.42A4.74,4.74,0,0,1,765.83,199.8Z"></path><rect class="cls-3" x="773" y="203.82" width="21.28" height="61.4" transform="translate(1567.28 469.03) rotate(-180)"></rect><rect class="cls-8" x="722.01" y="205.11" width="36.1" height="54.1" rx="3.73" transform="translate(1480.13 464.31) rotate(-180)"></rect><path class="cls-8" d="M717.18,208v48.25a2.93,2.93,0,0,1-2.93,2.93H684a2.93,2.93,0,0,1-2.92-2.93V208a2.92,2.92,0,0,1,2.92-2.92h30.26a2.9,2.9,0,0,1,2.52,1.44A2.86,2.86,0,0,1,717.18,208Z"></path><rect class="cls-3" x="743.8" y="276.81" width="9.92" height="428.46" transform="translate(1497.53 982.08) rotate(-180)"></rect><rect class="cls-6" x="749.32" y="276.81" width="4.54" height="428.46" transform="translate(1503.17 982.08) rotate(-180)"></rect><rect class="cls-5" x="637.02" y="265.21" width="169.99" height="15.84" rx="5.54" transform="translate(1444.03 546.26) rotate(-180)"></rect><rect class="cls-3" x="637.02" y="265.21" width="137.37" height="15.84" rx="5.54" transform="translate(1411.41 546.26) rotate(-180)"></rect><path class="cls-3" d="M691.59,195.77h.08a2.22,2.22,0,0,0,2.06-1.38l46-113.55s0-.09,0-.13l2.46-7.31a2.19,2.19,0,0,0,0-1.29l-.07-.29A2.23,2.23,0,0,0,738,71.7l-.34,1,0,.12-48.09,119.9A2.23,2.23,0,0,0,691.59,195.77Z"></path><polygon class="cls-3" points="352.66 196.92 366.26 196.92 742.13 77.43 744.83 69.42 738.36 68.01 740.73 72.83 352.66 196.92"></polygon><polyline class="cls-3" points="734.27 72.75 232.77 196.92 246.38 196.92 734.27 78.09"></polyline><path class="cls-3" d="M737.81,73.41l2,7.23a2.56,2.56,0,0,1,.05.27l15.91,113a2.21,2.21,0,0,0,2.2,1.91h.34a2.23,2.23,0,0,0,2.21-2.55l-18-120.33a1.84,1.84,0,0,0,0-.25l-.22-.82A2.23,2.23,0,0,0,738,71.7l-.14.42A2.19,2.19,0,0,0,737.81,73.41Z"></path><circle class="cls-8" cx="740.66" cy="72.47" r="10.45"></circle><rect class="cls-5" x="176.28" y="252.82" width="3.49" height="118.31" transform="translate(356.04 623.95) rotate(-180)"></rect><rect class="cls-5" x="191.36" y="252.82" width="3.49" height="118.31" transform="translate(386.21 623.95) rotate(-180)"></rect><path class="cls-9" d="M164.75,250.2h41.5a14.5,14.5,0,0,1,14.5,14.5v2.07a0,0,0,0,1,0,0H150.25a0,0,0,0,1,0,0v-2.07a14.5,14.5,0,0,1,14.5-14.5Z" transform="translate(371.01 516.98) rotate(-180)"></path><rect class="cls-3" x="800.61" y="248.72" width="173.34" height="4.2" transform="translate(1774.56 501.64) rotate(-180)"></rect><rect class="cls-3" x="800.61" y="227.05" width="173.34" height="4.2" transform="translate(1774.56 458.3) rotate(-180)"></rect><rect class="cls-3" x="968.91" y="227.05" width="5.04" height="35.71" transform="translate(1942.86 489.81) rotate(-180)"></rect><rect class="cls-3" x="922.05" y="227.05" width="5.04" height="35.71" transform="translate(1849.14 489.81) rotate(-180)"></rect><rect class="cls-3" x="875.19" y="227.05" width="5.04" height="35.71" transform="translate(1755.41 489.81) rotate(-180)"></rect><rect class="cls-3" x="859.86" y="259.21" width="40.96" height="76" rx="3.15" transform="translate(1760.69 594.41) rotate(-180)"></rect><rect class="cls-5" x="918.83" y="259.21" width="40.96" height="76" rx="3.15" transform="translate(1878.63 594.41) rotate(-180)"></rect><rect class="cls-3" x="909.94" y="259.21" width="40.96" height="76" rx="3.15" transform="translate(1860.84 594.41) rotate(-180)"></rect><rect class="cls-5" x="968.69" y="259.21" width="40.96" height="76" rx="3.15" transform="translate(1978.34 594.41) rotate(-180)"></rect><rect class="cls-3" x="959.8" y="259.21" width="40.96" height="76" rx="3.15" transform="translate(1960.55 594.41) rotate(-180)"></rect><rect class="cls-5" x="725.68" y="701.3" width="89.54" height="63.03" rx="7.87" transform="translate(1540.89 1465.64) rotate(-180)"></rect><rect class="cls-3" x="661.85" y="701.3" width="89.54" height="63.03" rx="7.87" transform="translate(1413.24 1465.64) rotate(-180)"></rect><path class="cls-5" d="M609.83,787H627a12,12,0,0,1,12,12v1.72a0,0,0,0,1,0,0H597.83a0,0,0,0,1,0,0V799A12,12,0,0,1,609.83,787Z"></path><path class="cls-5" d="M705.94,752.53v2.6c0,5.08-2.9,9.2-6.46,9.2H622.73v7.87c0,5.08-2.89,9.2-6.46,9.2s-6.45-4.12-6.45-9.2V752.53c0-5.09,2.88-9.2,6.45-9.2h83.21C703,743.33,705.94,747.44,705.94,752.53Z"></path><rect class="cls-10" x="618.91" y="762.36" width="4.53" height="31.51"></rect><path class="cls-3" d="M615.31,787h17.21a12,12,0,0,1,12,12v1.72a0,0,0,0,1,0,0H603.31a0,0,0,0,1,0,0V799a12,12,0,0,1,12-12Z"></path><path class="cls-3" d="M710.27,752.53v2.6c0,5.08-2.9,9.2-6.46,9.2H627.06v7.87c0,5.08-2.89,9.2-6.46,9.2s-6.45-4.12-6.45-9.2V752.53c0-5.09,2.88-9.2,6.45-9.2h83.21C707.37,743.33,710.27,747.44,710.27,752.53Z"></path><ellipse class="cls-2" cx="316.19" cy="805.71" rx="281.63" ry="9.26"></ellipse><path class="cls-5" d="M600.18,487.81l-.31,67.2-1,222.41a28.32,28.32,0,0,1-28.46,28.2l-178.33-.82L78.51,803.36a37.28,37.28,0,0,1-37.12-37.45l1.28-278.1Z"></path><path class="cls-11" d="M600.42,437.69l-.24,52.47H42.67l.25-55a17.67,17.67,0,0,1,17.9-17.45l521.86,2.36A17.67,17.67,0,0,1,600.42,437.69Z"></path><path class="cls-12" d="M593.49,465.78l-1.43,311.4a28.65,28.65,0,0,1-28.79,28.53L63.09,803.42a28.67,28.67,0,0,1-28.53-28.8L36,463.22a46.69,46.69,0,0,1,46.9-46.48L547,418.87"></path><path class="cls-13" d="M593.49,488.43c0,1.12-124.82,3.28-278.8,3.28s-278.81-2.16-278.81-3.28,124.83-.79,278.81-.79S593.49,487.3,593.49,488.43Z"></path><path class="cls-9" d="M63.47,418.2H566.11a27.44,27.44,0,0,1,27.44,27.44V489a0,0,0,0,1,0,0H36a0,0,0,0,1,0,0V445.64A27.44,27.44,0,0,1,63.47,418.2Z" transform="translate(2.09 -1.44) rotate(0.26)"></path><rect class="cls-9" x="58.17" y="504.79" width="63.71" height="23.2" rx="4.54" transform="translate(2.37 -0.41) rotate(0.26)"></rect><rect class="cls-6" x="430.61" y="439.69" width="82.24" height="28.9" rx="14.28" transform="translate(2.09 -2.16) rotate(0.26)"></rect><rect class="cls-6" x="532.72" y="440.03" width="29.12" height="28.9" rx="14.28" transform="translate(2.09 -2.51) rotate(0.26)"></rect><rect class="cls-3" x="57.96" y="551.24" width="132.49" height="22.3" rx="4.36" transform="translate(2.59 -0.56) rotate(0.26)"></rect><rect class="cls-6" x="57.81" y="586.81" width="132.49" height="16.34" rx="4.36" transform="translate(2.74 -0.56) rotate(0.26)"></rect><rect class="cls-6" x="57.68" y="614.7" width="86.33" height="14.2" rx="3.79" transform="translate(2.86 -0.46) rotate(0.26)"></rect><rect class="cls-6" x="57.58" y="638.04" width="139.34" height="14.2" rx="3.79" transform="translate(2.97 -0.58) rotate(0.26)"></rect><rect class="cls-6" x="57.46" y="663.02" width="86.33" height="14.2" rx="3.79" transform="translate(3.08 -0.46) rotate(0.26)"></rect><rect class="cls-6" x="57.35" y="686.37" width="139.34" height="14.2" rx="3.79" transform="translate(3.19 -0.58) rotate(0.26)"></rect><rect class="cls-9" x="137.55" y="505.16" width="63.71" height="23.2" rx="4.54" transform="translate(2.38 -0.77) rotate(0.26)"></rect><rect class="cls-6" x="236.54" y="505.71" width="105.81" height="23.2" rx="4.54" transform="translate(2.38 -1.32) rotate(0.26)"></rect><rect class="cls-9" x="482.58" y="504.63" width="88.11" height="23.2" rx="4.54" transform="translate(2.38 -2.41) rotate(0.26)"></rect><rect class="cls-3" x="233.73" y="544.84" width="335.32" height="260.85" rx="9.02" transform="translate(3.11 -1.84) rotate(0.26)"></rect><rect class="cls-6" x="252.41" y="568.18" width="105.81" height="23.2" rx="4.54" transform="translate(2.67 -1.4) rotate(0.26)"></rect><rect class="cls-6" x="252.06" y="609.45" width="299.31" height="93.07" rx="5.35" transform="translate(3.02 -1.84) rotate(0.26)"></rect><path class="cls-7" d="M572.62,420c0,5-115.54,5.42-258,5.42s-258-.89-258-5.92,114.69.31,257.21.31S572.62,415,572.62,420Z"></path><rect class="cls-7" x="60.26" y="505.1" width="58.35" height="2.04" rx="1.01"></rect><rect class="cls-13" x="60.26" y="525.24" width="60.06" height="2.04" rx="1.01"></rect><rect class="cls-7" x="140.09" y="505.94" width="58.35" height="2.04" rx="1.01"></rect><rect class="cls-13" x="140.09" y="526.08" width="60.06" height="2.04" rx="1.01"></rect><rect class="cls-7" x="60.26" y="551.3" width="125.38" height="2.04" rx="1.01"></rect><rect class="cls-13" x="60.26" y="571.43" width="129.05" height="2.04" rx="1.01"></rect><path class="cls-13" d="M135.59,463.67c36.42,9.73,65.78-8,66.53-13.27s-3.72-16.69-6.15-16.95-42.9,5.19-52,11.16S135.59,463.67,135.59,463.67Z"></path><rect class="cls-11" x="124.06" y="424.23" width="82.24" height="28.9" rx="14.28" transform="translate(-167.88 108.83) rotate(-24.64)"></rect><ellipse class="cls-7" cx="159.73" cy="427.3" rx="29.65" ry="1.61" transform="translate(-165.1 107.01) rotate(-24.91)"></ellipse><ellipse class="cls-13" cx="170.46" cy="450.4" rx="29.65" ry="1.61" transform="translate(-173.83 113.68) rotate(-24.91)"></ellipse><path d="M186.66,421.66a7.06,7.06,0,0,0,5.1-2l1.5-1.55a5,5,0,0,0,1.48-3.49v-1.82a5.18,5.18,0,0,0-2.06-4l-2.81-2.23a2.09,2.09,0,0,1-.89-1.61v-4.86a1.54,1.54,0,0,0-1.54-1.55h0a1.54,1.54,0,0,0-1.54,1.55v4.86a5.17,5.17,0,0,0,2.06,4l2.8,2.22a2.09,2.09,0,0,1,.89,1.61v1.82a2,2,0,0,1-.6,1.35l-1.5,1.55a4.07,4.07,0,0,1-2.89,1.09,4,4,0,0,1-3.06-1.29l-1.2-1.53c-.52-.67-2.71-1.06-3.38-.53l.24.32c-.67.53.19,1.44.72,2.11l1,2.51C182.15,421.72,184.44,421.66,186.66,421.66Z"></path><path class="cls-3" d="M184.92,421.66a7.09,7.09,0,0,0,5.1-2l1.5-1.55a5,5,0,0,0,1.47-3.49v-1.82a5.15,5.15,0,0,0-2.06-4l-2.8-2.23a2.06,2.06,0,0,1-.89-1.61v-4.86a1.54,1.54,0,0,0-1.54-1.55h0a1.54,1.54,0,0,0-1.55,1.55v4.86a5.17,5.17,0,0,0,2.06,4l2.81,2.22a2.12,2.12,0,0,1,.89,1.61v1.82a2,2,0,0,1-.61,1.35l-1.49,1.55a4.11,4.11,0,0,1-2.89,1.09,3.93,3.93,0,0,1-3.06-1.29l-1.2-1.53a1.53,1.53,0,0,0-2.16-.26h0a1.54,1.54,0,0,0-.27,2.16l1.2,1.53A7,7,0,0,0,184.92,421.66Z"></path><path class="cls-5" d="M177.94,386.87,180.81,401c1.11,1.94,8.94,1.57,10.06-.37l7.89-13.71a2.92,2.92,0,0,0,.38-1.44V372.1a2.9,2.9,0,0,0-2.9-2.91H180.46a2.91,2.91,0,0,0-2.91,2.91v13.33A2.94,2.94,0,0,0,177.94,386.87Z"></path><path class="cls-10" d="M172.26,386.87l7.89,13.71a2.9,2.9,0,0,0,5,0l7.89-13.71a2.94,2.94,0,0,0,.39-1.44V372.1a2.91,2.91,0,0,0-2.91-2.91H174.77a2.9,2.9,0,0,0-2.9,2.91v13.33A2.83,2.83,0,0,0,172.26,386.87Z"></path><path class="cls-3" d="M172.26,386.87l7.89,13.71a2.9,2.9,0,0,0,5,0l7.89-13.71a2.94,2.94,0,0,0,.39-1.44V372.1a2.91,2.91,0,0,0-2.91-2.91H174.77a2.9,2.9,0,0,0-2.9,2.91v13.33A2.83,2.83,0,0,0,172.26,386.87Z"></path><rect class="cls-7" x="664.11" y="702.7" width="147.93" height="3.92"></rect><rect class="cls-7" x="618.43" y="743.33" width="88.19" height="3.92"></rect><rect class="cls-7" x="763.36" y="196.33" width="35.68" height="3.6" rx="1.78"></rect><polygon class="cls-14" points="712.15 205.11 681.07 235.66 681.07 223.8 699.75 205.11 712.15 205.11"></polygon><path class="cls-14" d="M717.18,208v2.53l-36.11,35.49v-3.8l35.7-35.7A2.86,2.86,0,0,1,717.18,208Z"></path><polygon class="cls-14" points="753.1 205.11 722.01 235.66 722.01 223.8 740.7 205.11 753.1 205.11"></polygon><path class="cls-14" d="M758.12,208v2.53L722,246.05v-3.8l35.7-35.7A2.86,2.86,0,0,1,758.12,208Z"></path><ellipse class="cls-14" cx="742.4" cy="67.06" rx="5.7" ry="3.86"></ellipse><rect class="cls-7" x="860.51" y="260.01" width="149.14" height="4.08"></rect><rect class="cls-2" x="860.51" y="329.38" width="149.14" height="4.08"></rect><ellipse class="cls-2" cx="774.06" cy="753.47" rx="8.57" ry="10.86"></ellipse><path class="cls-5" d="M841,787h41.21a0,0,0,0,1,0,0v1.72a12,12,0,0,1-12,12H853a12,12,0,0,1-12-12V787A0,0,0,0,1,841,787Z" transform="translate(1723.13 1587.75) rotate(-180)"></path><path class="cls-5" d="M774.06,752.53v2.6c0,5.08,2.89,9.2,6.45,9.2h76.76v7.87c0,5.08,2.88,9.2,6.45,9.2s6.46-4.12,6.46-9.2V752.53c0-5.09-2.89-9.2-6.46-9.2H780.51C777,743.33,774.06,747.44,774.06,752.53Z"></path><rect class="cls-5" x="859.3" y="762.36" width="4.53" height="31.51" transform="translate(1723.13 1556.24) rotate(-180)"></rect><path class="cls-3" d="M835.47,787h41.21a0,0,0,0,1,0,0v1.72a12,12,0,0,1-12,12H847.48a12,12,0,0,1-12-12V787A0,0,0,0,1,835.47,787Z" transform="translate(1712.16 1587.75) rotate(-180)"></path><path class="cls-3" d="M769.73,752.53v2.6c0,5.08,2.89,9.2,6.45,9.2h76.76v7.87c0,5.08,2.88,9.2,6.45,9.2s6.46-4.12,6.46-9.2V752.53c0-5.09-2.89-9.2-6.46-9.2H776.18C772.62,743.33,769.73,747.44,769.73,752.53Z"></path><rect class="cls-7" x="774.18" y="743.33" width="92.04" height="3.92"></rect><rect class="cls-2" x="626.95" y="759.81" width="228.27" height="4.52" rx="2.24"></rect><path class="cls-7" d="M603.31,808.27c0,1.72-129.67,13.6-289.62,13.6S24.08,810,24.08,808.27s129.67,8.49,289.61,8.49S603.31,806.55,603.31,808.27Z"></path><path class="cls-2" d="M600.39,829.46c0,2.19-129.66,17.27-289.61,17.27S21.16,831.65,21.16,829.46s129.67,10.78,289.62,10.78S600.39,827.27,600.39,829.46Z"></path><rect class="cls-7" x="640.31" y="266.36" width="163.49" height="3.13"></rect><rect class="cls-2" x="638.35" y="276.64" width="167.4" height="3.13" rx="1.57"></rect></g></g></svg>