<svg xmlns="http://www.w3.org/2000/svg" xmlns:xlink="http://www.w3.org/1999/xlink" id="Layer_1" x="0px" y="0px" viewBox="0 0 1024 1024" style="enable-background:new 0 0 1024 1024;" xml:space="preserve"><style type="text/css">	.st0{fill:#24313E;stroke:#000000;stroke-width:2;stroke-miterlimit:10;}	.st1{fill:#0062FF;stroke:#000000;stroke-width:2;stroke-miterlimit:10;}	.st2{opacity:0.59;}	.st3{fill:#EBF0F5;stroke:#000000;stroke-width:2;stroke-miterlimit:10;}	.st4{fill:#9CAAB8;stroke:#000000;stroke-width:2;stroke-miterlimit:10;}	.st5{opacity:0.2;fill:#EBF0F5;enable-background:new    ;}	.st6{opacity:0.43;fill:#455666;stroke:#000000;stroke-width:2;stroke-miterlimit:10;enable-background:new    ;}	.st7{fill:none;}</style><g>	<g id="Layer_2_1_">		<g id="Layer_1-2">			<path class="st0" d="M727.3,524.6l-210.7,13.3c-2.4,0.2-4.5-1.6-4.7-4.1c-0.1-1.2,0.3-2.3,1.1-3.2l137-156.6    c1.6-1.8,4.4-2,6.2-0.4c0,0,0,0,0.1,0.1c40.1,36.5,70,88.2,75.1,146.2C731.6,522.3,729.8,524.4,727.3,524.6    C727.4,524.6,727.4,524.6,727.3,524.6z"></path>			<path class="st0" d="M677.4,567.6c-9.3,102.7-93.8,183.7-198.1,187.6c-121.1,4.4-218.3-92.6-214.2-213.6    c3.8-110.8,94.8-199.5,206.5-199.5c50.7-0.1,99.6,18.6,137.4,52.3c0.8,0.7,0.8,1.9,0.1,2.7c0,0,0,0-0.1,0.1l-156,159.7    c-0.7,0.7-0.7,1.9,0,2.7c0.3,0.3,0.8,0.5,1.3,0.5l221.2,5.6c1,0,1.9,0.9,1.8,1.9C677.4,567.6,677.4,567.6,677.4,567.6z"></path>			<path class="st1" d="M746.6,614.1l-1.1,0.7c-2.8,1.8-6.6,0.9-8.4-1.9l-34.2-55c-1.8-2.8-0.9-6.6,1.9-8.4l1.1-0.7    c2.8-1.8,6.6-0.9,8.4,1.9l34.2,55C750.4,608.6,749.5,612.4,746.6,614.1z"></path>			<path class="st0" d="M702.9,550.9c0.5-0.7,1.1-1.3,1.8-1.7l1.1-0.7c3-1.9,6.9-1,8.8,2c0,0,0,0,0,0l34.2,55c1.9,3,0.9,6.9-2,8.8    l-1.1,0.7c-3,1.9-6.9,0.9-8.8-2l-34.2-55C701.3,555.8,701.4,553,702.9,550.9z M748.1,612.3c1.4-1.9,1.4-4.4,0.2-6.4l-34.2-55    c-1.7-2.7-5.2-3.5-7.9-1.8l-1.1,0.7c-2.7,1.7-3.5,5.2-1.8,7.9l34.2,55c1.7,2.7,5.2,3.5,7.9,1.8l1.1-0.7    C747.1,613.4,747.7,612.9,748.1,612.3z"></path>			<g class="st2">				<path class="st3" d="M748.5,612.3c0.3-1.5,0-3-0.8-4.2l-34.2-55c-1.8-2.8-5.5-3.7-8.4-1.9l-1.1,0.7c-0.7,0.5-1.4,1.1-1.8,1.8     c0.3-1.7,1.3-3.2,2.8-4.1l1.1-0.7c2.8-1.8,6.6-0.9,8.4,1.9l34.2,55C749.9,607.8,749.8,610.3,748.5,612.3z"></path>			</g>			<path class="st1" d="M779.3,563.8L779.3,563.8c-1.4,2.9-4.8,4.1-7.7,2.7L722.4,543c-2.9-1.4-4.1-4.8-2.7-7.7h0    c1.4-2.9,4.8-4.1,7.7-2.7l49.2,23.5C779.4,557.5,780.6,561,779.3,563.8z"></path>			<path class="st0" d="M718.7,537.8c0-0.7,0.2-1.4,0.5-2.1l0.5-1c1.3-2.7,4.5-3.9,7.3-2.6c0,0,0,0,0,0l50.2,24    c2.7,1.3,3.9,4.6,2.6,7.3c0,0,0,0,0,0l-0.5,1c-1.3,2.7-4.6,3.9-7.3,2.6c0,0,0,0,0,0l-50.2-24C719.8,542.1,718.6,540,718.7,537.8z     M779.7,561.4c0.1-2-1-3.9-2.8-4.7l-50.2-24c-2.5-1.2-5.4-0.2-6.6,2.3c0,0,0,0,0,0l-0.5,1c-1.2,2.5-0.1,5.4,2.3,6.6l50.2,24    c2.5,1.2,5.4,0.1,6.6-2.3l0.5-1C779.5,562.6,779.7,562,779.7,561.4L779.7,561.4z"></path>			<g class="st2">				<path class="st3" d="M780,561.2c-0.5-1.2-1.4-2.1-2.5-2.7l-50.2-24c-2.6-1.2-5.7-0.2-7,2.4l-0.5,1c-0.3,0.7-0.5,1.4-0.5,2.2     c-0.6-1.4-0.5-2.9,0.1-4.2l0.5-1c1.3-2.6,4.4-3.7,7-2.4l50.2,24C778.9,557.3,780,559.2,780,561.2z"></path>			</g>			<path class="st1" d="M631.2,263l1.3,0.1c3.3,0.3,5.8,3.3,5.5,6.6l-5.8,64.5c-0.3,3.3-3.3,5.8-6.6,5.5l-1.3-0.1    c-3.3-0.3-5.8-3.3-5.5-6.6l5.8-64.5C625,265.1,627.9,262.7,631.2,263z"></path>			<path class="st0" d="M628.1,339.8c-0.8,0.2-1.6,0.3-2.4,0.3l-1.3-0.1c-3.5-0.3-6.1-3.4-5.8-6.9l5.8-64.5c0.3-3.5,3.4-6.1,6.9-5.8    l1.3,0.1c3.5,0.3,6.1,3.4,5.8,6.9c0,0,0,0,0,0l-5.8,64.5C632.3,336.8,630.5,339,628.1,339.8z M629,263.5c-0.7,0.2-1.4,0.6-2,1.1    c-1.2,1-1.9,2.4-2,3.9l-5.8,64.5c-0.3,3.2,2,6,5.2,6.2l1.3,0.1c3.2,0.3,5.9-2,6.2-5.2l5.8-64.5c0.3-3.2-2-6-5.2-6.2l-1.3-0.1    C630.5,263.3,629.7,263.3,629,263.5z"></path>			<g class="st2">				<path class="st3" d="M628.7,263.3c-1.1,1-1.8,2.4-1.9,3.9l-5.8,64.5c-0.3,3.3,2.2,6.3,5.5,6.6c0,0,0,0,0,0l1.3,0.1     c0.9,0.1,1.7,0,2.6-0.3c-1.3,1.2-3,1.8-4.7,1.6l-1.3-0.1c-3.3-0.3-5.8-3.2-5.5-6.6c0,0,0,0,0,0l5.8-64.5     C624.8,266.1,626.4,264.1,628.7,263.3z"></path>			</g>			<path class="st1" d="M682,299.3L682,299.3c2.7,1.8,3.4,5.3,1.6,8l-30.1,45.4c-1.8,2.7-5.3,3.4-8,1.6l0,0c-2.7-1.8-3.4-5.3-1.6-8    l30.1-45.4C675.8,298.3,679.3,297.5,682,299.3z"></path>			<path class="st0" d="M647.8,355.7c-0.7-0.1-1.4-0.4-2-0.8l-0.9-0.6c-2.5-1.7-3.2-5-1.6-7.6c0,0,0,0,0,0l30.7-46.4    c1.7-2.5,5-3.2,7.6-1.6c0,0,0,0,0,0l0.9,0.6c2.5,1.7,3.2,5,1.6,7.6c0,0,0,0,0,0l-30.7,46.4C652.2,355.2,650,356.1,647.8,355.7z     M679.6,298.5c-2-0.4-4,0.5-5.1,2.1L643.8,347c-1.5,2.3-0.9,5.3,1.4,6.8c0,0,0,0,0,0l0.9,0.6c2.3,1.5,5.3,0.9,6.9-1.4l30.7-46.4    c1.5-2.3,0.9-5.3-1.4-6.8c0,0,0,0,0,0l-0.9-0.6C680.9,298.9,680.3,298.6,679.6,298.5z"></path>			<g class="st2">				<path class="st3" d="M679.5,298.2c-1.2,0.3-2.3,1.1-3,2.2l-30.7,46.4c-1.6,2.4-0.9,5.6,1.5,7.2c0,0,0,0,0,0l0.9,0.6     c0.6,0.4,1.3,0.7,2.1,0.8c-1.4,0.4-3,0.1-4.2-0.7l-0.9-0.6c-2.4-1.6-3.1-4.8-1.5-7.2l30.7-46.4     C675.4,298.7,677.5,297.9,679.5,298.2z"></path>			</g>			<path class="st3" d="M727.6,520.1L520,533.9c-2.4,0.2-4.5-1.6-4.7-4.1c-0.1-1.2,0.3-2.3,1.1-3.2l137-156.6c1.6-1.8,4.4-2,6.2-0.4    c0,0,0,0,0.1,0.1c41.5,37.7,67.2,89.7,72,145.6C731.9,517.7,730.1,519.9,727.6,520.1C727.7,520.1,727.7,520.1,727.6,520.1z"></path>			<path class="st4" d="M684.9,560.1c-9.3,102.7-93.8,183.8-198.1,187.6c-121.1,4.4-218.3-92.6-214.2-213.6    c3.8-110.8,94.8-199.5,206.5-199.5c50.7-0.1,99.6,18.6,137.4,52.3c0.8,0.7,0.8,1.9,0.1,2.7c0,0,0,0-0.1,0.1l-156,159.7    c-0.7,0.7-0.7,1.9,0,2.7c0.3,0.3,0.8,0.5,1.3,0.5l221.2,5.6c1,0,1.9,0.9,1.8,1.9C685,560,685,560,684.9,560.1z"></path>			<path class="st5" d="M414.7,737.8c-85.2-27.4-145.3-108.1-142-203.8c3.8-110.8,94.8-199.5,206.5-199.5c28.9,0,57.6,6,84,17.8    c-20.5-6.6-41.8-9.9-63.4-9.9c-111.7,0-202.7,88.7-206.5,199.5C290.3,629.7,340.6,704.8,414.7,737.8z"></path>			<path class="st5" d="M675.1,569.6l-202.8-5.4c-6.1-0.2-11-5.2-11-11.3l-0.6-0.5l223.1,5.9l0.6,2.3c0,5-4,9-9,9    C675.2,569.6,675.1,569.6,675.1,569.6z"></path>			<path class="st6" d="M730.3,507.1l-215,25.2v3.9l215-12.9C730.3,523.2,732.9,514,730.3,507.1z"></path>			<rect x="201.3" y="201.3" class="st7" width="621.4" height="621.4"></rect>		</g>	</g></g></svg>