<svg xmlns="http://www.w3.org/2000/svg" viewBox="0 0 1024 1024"><defs><style>.cls-1{isolation:isolate;}.cls-2{fill:#24313e;}.cls-2,.cls-3,.cls-5,.cls-6,.cls-8{stroke:#000;stroke-miterlimit:10;stroke-width:2px;}.cls-3{fill:#0062ff;}.cls-4,.cls-7{mix-blend-mode:overlay;}.cls-4{opacity:0.59;}.cls-5,.cls-7{fill:#ebf0f5;}.cls-6{fill:#9caab8;}.cls-7{opacity:0.2;}.cls-8{fill:#455666;mix-blend-mode:multiply;opacity:0.43;}.cls-9{fill:none;}</style></defs><g class="cls-1"><g id="Layer_2" data-name="Layer 2"><g id="Layer_1-2" data-name="Layer 1"><path class="cls-2" d="M866.86,532.8,519.72,554.66a7.22,7.22,0,0,1-5.92-12L739.58,284.61a7.22,7.22,0,0,1,10.3-.59C816,344.18,865.3,429.35,873.58,525A7.23,7.23,0,0,1,866.86,532.8Z"></path><path class="cls-2" d="M784.49,603.7C769.11,773,629.85,906.46,458.11,912.77c-199.49,7.32-359.79-152.53-353-352C111.3,378.13,261.29,232,445.4,232a339.17,339.17,0,0,1,226.44,86.21,3.1,3.1,0,0,1,.14,4.47L414.86,585.92a3.1,3.1,0,0,0,2.14,5.26l364.48,9.16A3.1,3.1,0,0,1,784.49,603.7Z"></path><rect class="cls-3" x="853.19" y="563.66" width="22.16" height="126.71" rx="10" transform="translate(1929.35 702.68) rotate(148.1)"></rect><path class="cls-2" d="M826.64,576.13a10.28,10.28,0,0,1,3-2.78l1.83-1.14a10.52,10.52,0,0,1,14.5,3.37l56.37,90.6a10.54,10.54,0,0,1-3.37,14.49l-1.84,1.14a10.54,10.54,0,0,1-14.49-3.37l-56.37-90.6A10.52,10.52,0,0,1,826.64,576.13Zm74.44,101.14a9.5,9.5,0,0,0,.35-10.54l-56.38-90.6a9.49,9.49,0,0,0-13.06-3l-1.83,1.14a9.49,9.49,0,0,0-3,13.06l56.38,90.6a9.48,9.48,0,0,0,13,3l1.84-1.14A9.52,9.52,0,0,0,901.08,677.27Z"></path><g class="cls-4"><path class="cls-5" d="M901.7,677.26a9.89,9.89,0,0,0-1.36-7L844,579.69a10,10,0,0,0-13.77-3.21l-1.84,1.14a9.62,9.62,0,0,0-3,3,9.94,9.94,0,0,1,4.57-6.81l1.83-1.14a10,10,0,0,1,13.77,3.21l56.37,90.6A10,10,0,0,1,901.7,677.26Z"></path></g><rect class="cls-3" x="893.81" y="519.53" width="19.04" height="108.86" rx="9.52" transform="translate(1810.85 6.66) rotate(115.56)"></rect><path class="cls-2" d="M852.55,554.5a9.24,9.24,0,0,1,.87-3.39l.8-1.67a9,9,0,0,1,12.06-4.25L949,584.75a9,9,0,0,1,4.25,12l-.8,1.67a9,9,0,0,1-12,4.26l-82.7-39.56A9.08,9.08,0,0,1,852.55,554.5Zm100.66,38.85a8.14,8.14,0,0,0-4.62-7.8L865.89,546A8.15,8.15,0,0,0,855,549.83l-.8,1.67a8.15,8.15,0,0,0,3.83,10.86l82.7,39.56a8.15,8.15,0,0,0,10.86-3.83l.8-1.67A8,8,0,0,0,953.21,593.35Z"></path><g class="cls-4"><path class="cls-5" d="M953.65,593.06a8.46,8.46,0,0,0-4.2-4.43l-82.7-39.56a8.6,8.6,0,0,0-11.46,4l-.79,1.68a8.26,8.26,0,0,0-.84,3.56,8.53,8.53,0,0,1,.17-7l.8-1.68a8.59,8.59,0,0,1,11.46-4l82.69,39.56A8.57,8.57,0,0,1,953.65,593.06Z"></path></g><rect class="cls-3" x="692.79" y="101.52" width="22.16" height="126.71" rx="10" transform="translate(17.66 -62.57) rotate(5.15)"></rect><path class="cls-2" d="M703.25,228.16a10.53,10.53,0,0,1-4,.42l-2.15-.19A10.54,10.54,0,0,1,687.51,217l9.6-106.28a10.52,10.52,0,0,1,11.42-9.53l2.15.19a10.52,10.52,0,0,1,9.54,11.43l-9.6,106.27A10.54,10.54,0,0,1,703.25,228.16Zm1.53-125.58a9.21,9.21,0,0,0-3.26,1.78,9.39,9.39,0,0,0-3.37,6.42l-9.6,106.28a9.48,9.48,0,0,0,8.59,10.29l2.15.2A9.5,9.5,0,0,0,709.58,219l9.6-106.28a9.48,9.48,0,0,0-8.59-10.29l-2.15-.19A9.38,9.38,0,0,0,704.78,102.58Z"></path><g class="cls-4"><path class="cls-5" d="M704.28,102.22a9.78,9.78,0,0,0-3.12,6.38l-9.6,106.27a10,10,0,0,0,9.06,10.86l2.15.19a9.74,9.74,0,0,0,4.22-.53,9.9,9.9,0,0,1-7.74,2.67l-2.16-.19A10,10,0,0,1,688,217l9.59-106.27A10,10,0,0,1,704.28,102.22Z"></path></g><rect class="cls-3" x="752.58" y="152.43" width="19.04" height="108.86" rx="9.52" transform="translate(240.86 -386.35) rotate(33.51)"></rect><path class="cls-2" d="M735.8,254.45a9,9,0,0,1-3.23-1.33l-1.55-1a9,9,0,0,1-2.54-12.53l50.61-76.43a9,9,0,0,1,12.53-2.55l1.54,1a9,9,0,0,1,2.55,12.52l-50.62,76.44A9,9,0,0,1,735.8,254.45Zm52.4-94.32a8.19,8.19,0,0,0-8.36,3.5l-50.62,76.44a8.14,8.14,0,0,0,2.3,11.29l1.54,1a8.15,8.15,0,0,0,11.29-2.3L795,173.65a8.13,8.13,0,0,0-2.29-11.29l-1.55-1A8.2,8.2,0,0,0,788.2,160.13Z"></path><g class="cls-4"><path class="cls-5" d="M788,159.66a8.39,8.39,0,0,0-5,3.55l-50.62,76.43a8.59,8.59,0,0,0,2.42,11.91l1.55,1a8.21,8.21,0,0,0,3.4,1.32,8.5,8.5,0,0,1-6.94-1.14l-1.55-1a8.6,8.6,0,0,1-2.42-11.91l50.62-76.43A8.55,8.55,0,0,1,788,159.66Z"></path></g><path class="cls-5" d="M867.36,525.3,525.22,548.16a7.22,7.22,0,0,1-5.92-12L745.08,278.11a7.22,7.22,0,0,1,10.3-.59,366.35,366.35,0,0,1,118.7,239.94A7.23,7.23,0,0,1,867.36,525.3Z"></path><path class="cls-6" d="M797,591.2C781.61,760.47,642.35,894,470.61,900.27c-199.49,7.32-359.79-152.53-353-352,6.2-182.6,156.19-328.73,340.3-328.73a339.17,339.17,0,0,1,226.44,86.21,3.1,3.1,0,0,1,.14,4.47L427.36,573.42a3.1,3.1,0,0,0,2.14,5.26L794,587.84A3.1,3.1,0,0,1,797,591.2Z"></path><path class="cls-7" d="M351.65,884.06C211.33,838.92,112.24,706,117.6,548.23c6.2-182.6,156.19-328.73,340.3-328.73a339.2,339.2,0,0,1,138.4,29.31A339.81,339.81,0,0,0,491.9,232.5c-184.11,0-334.1,146.13-340.3,328.73C146.68,705.9,229.62,829.72,351.65,884.06Z"></path><path class="cls-7" d="M780.69,606.87,446.56,598a18.66,18.66,0,0,1-18.16-18.65l-1-.83L795,588.28l1,3.73A14.87,14.87,0,0,1,780.69,606.87Z"></path><path class="cls-8" d="M871.72,503.89,517.5,545.42v6.36l354.22-21.33S876,515.27,871.72,503.89Z"></path><rect class="cls-9" width="1024" height="1024"></rect></g></g></g></svg>