<svg xmlns="http://www.w3.org/2000/svg" xmlns:xlink="http://www.w3.org/1999/xlink" viewBox="0 0 776 437"><defs><style>.cls-1{fill:none;}.cls-2{fill:#fff;}.cls-3{opacity:0.31;}.cls-4{fill:url(#radial-gradient);}.cls-5{clip-path:url(#clip-path);}.cls-6{fill:url(#radial-gradient-2);}.cls-7{fill:url(#radial-gradient-4);}.cls-8{fill:#ff603d;}.cls-9{fill:#24313e;}.cls-10{fill:#455666;}.cls-11{fill:#9caab8;}.cls-12{fill:#f4e969;}.cls-13{fill:#031439;}.cls-14{fill:#e7e9f2;}</style><radialGradient id="radial-gradient" cx="-1661.89" cy="-620.08" r="0.84" gradientTransform="matrix(111.61, 0, 0, -111.61, 185982.95, -69098.86)" gradientUnits="userSpaceOnUse"><stop offset="0" stop-color="#fff"></stop><stop offset="1" stop-color="#fff" stop-opacity="0"></stop></radialGradient><clipPath id="clip-path"><circle class="cls-1" cx="492.7" cy="111.24" r="93.41"></circle></clipPath><radialGradient id="radial-gradient-2" cx="-1661.89" cy="-620.08" r="0.84" gradientTransform="matrix(111.61, 0, 0, -111.61, 185984.63, -69099.46)" xlink:href="#radial-gradient"></radialGradient><radialGradient id="radial-gradient-4" cx="-1644.28" cy="-635.67" r="0.84" gradientTransform="matrix(55.81, 0, 0, -55.81, 92256.77, -35364.13)" xlink:href="#radial-gradient"></radialGradient></defs><g id="Layer_2" data-name="Layer 2"><g id="Layer_1-2" data-name="Layer 1"><rect class="cls-2" width="776" height="437"></rect><g class="cls-3"><circle class="cls-4" cx="492.7" cy="111.24" r="93.41"></circle><g class="cls-5"><rect class="cls-6" x="399.29" y="17.82" width="186.83" height="186.83"></rect><circle class="cls-4" cx="492.7" cy="111.24" r="93.41"></circle><circle class="cls-7" cx="492.71" cy="111.24" r="46.71"></circle></g></g><path class="cls-8" d="M155.67,334.12l67.42-75.75,8.07.26,36.29,36.28,37.21-45.78h8.57l28.49,28.49L431.34,188l20,20L343.91,315.37l-8.86-.67-20.6-28.79-48,48h-8.57l-29.18-37.74L171.5,349.51l-9.23-.43Z"></path><path class="cls-9" d="M171.84,350.43,161.66,350l-7-16,68.08-76.49,8.86.28,35.82,35.83,36.86-45.34h9.37l28.12,28.12,89.62-89.62L452.58,208,344.26,316.3l-9.7-.74-20.23-28.27-47.48,47.49h-9.39l-28.84-37.31Zm-9-2.23,8.3.39,57.68-53.8L258.35,333h7.75l48.46-48.46,21,29.32,8,.61L450,208l-18.7-18.69L341.71,278.9,312.85,250h-7.77l-37.57,46.22-36.74-36.74-7.3-.24-66.75,75Z"></path><path class="cls-8" d="M462.05,242.92l-64.39-64.39h64.39Z"></path><path class="cls-9" d="M463,245.1l-67.46-67.47H463Zm-63.11-65.67,61.31,61.31V179.43Z"></path><path class="cls-8" d="M147.1,334.12l75.5-75.49,36.28,36.28,45.78-45.78,28.5,28.49L422.77,188l20,20L335.35,315.37l-29.46-29.46-48,48-37.74-37.74-57.23,53.37Z"></path><path class="cls-9" d="M162.92,350.75l-17.1-16.62,76.77-76.78,36.29,36.29,45.78-45.79,28.49,28.49,89.61-89.61L444,208,335.34,316.64l-29.46-29.46-48,48-37.77-37.76Zm-14.53-16.64L163,348.26l57.24-53.39,37.72,37.73,48-48,29.46,29.46L441.47,208l-18.69-18.69-89.62,89.61-28.49-28.49-45.78,45.79L222.6,259.89Z"></path><path class="cls-8" d="M453.48,242.92,389.1,178.53h64.38Z"></path><path class="cls-9" d="M454.39,245.1l-67.47-67.47h67.47Zm-63.12-65.67,61.31,61.31V179.43Z"></path><rect class="cls-10" x="470.81" y="231.85" width="79.28" height="188.25"></rect><path class="cls-9" d="M470.81,421h-.9V230.94H551V421Zm.91-188.25V419.19h77.47V232.75Z"></path><rect class="cls-11" x="450.91" y="231.85" width="79.28" height="188.25"></rect><path class="cls-9" d="M450.91,421H450V230.94h81.08V421Zm.9-188.25V419.19h77.48V232.75Z"></path><rect class="cls-10" x="366.49" y="291.06" width="79.28" height="129.04"></rect><path class="cls-9" d="M365.59,421V290.16h81.08V421Zm1.8-129V419.2h77.47V292Z"></path><rect class="cls-11" x="346.58" y="291.06" width="79.28" height="129.04"></rect><path class="cls-9" d="M346.58,421h-.9V290.16h81.08V421Zm.91-129V419.2H425V292Z"></path><rect class="cls-10" x="262.16" y="346.65" width="79.28" height="73.44"></rect><path class="cls-9" d="M261.26,421V345.75h81.08V421Zm1.8-73.44V419.2h77.48V347.56Z"></path><rect class="cls-11" x="242.26" y="346.66" width="79.28" height="73.44"></rect><path class="cls-9" d="M241.35,421V345.75h81.09V421Zm1.81-73.44V419.2h77.48V347.56Z"></path><path class="cls-12" d="M540.9,108a47.26,47.26,0,0,1-18.23,38.9,28.27,28.27,0,0,0-10.84,22.29v14.4H475.35V169.2A28,28,0,0,0,464.66,147a47.32,47.32,0,0,1,28.93-84.78h1.13A47.49,47.49,0,0,1,540.9,108Z"></path><path class="cls-13" d="M511.83,184.5H475.35a.9.9,0,0,1-.9-.9V169.2a27.24,27.24,0,0,0-10.35-21.48A48.2,48.2,0,1,1,541.8,108h0a48.48,48.48,0,0,1-18.58,39.65,27.53,27.53,0,0,0-10.49,21.59v14.39A.91.91,0,0,1,511.83,184.5Zm-35.58-1.8h34.68V169.2a29.36,29.36,0,0,1,11.19-23,46.43,46.43,0,0,0-27.42-83,46.43,46.43,0,0,0-29.49,83.16,29.05,29.05,0,0,1,11.05,22.91Z"></path><path class="cls-12" d="M497.77,182.9h-7.88c-.34,0-.62-1.05-.62-2.35l-12.6-46.86a2.33,2.33,0,0,1,2.35-2.33,2.29,2.29,0,0,1,1.66.7L483,134.5a2.35,2.35,0,0,0,3.28.08l5.45-5.12a2.35,2.35,0,0,1,3.27.06l5.39,5.48a2.35,2.35,0,0,0,3.31,0l3.27-3.22a2.34,2.34,0,0,1,4,1.67l-12.6,47.08C498.39,181.85,498.11,182.9,497.77,182.9Z"></path><path class="cls-13" d="M497.77,183.8h-7.88c-1.28,0-1.5-1.9-1.52-3.12L475.8,133.92a.59.59,0,0,1,0-.23,3.25,3.25,0,0,1,5.58-2.26l2.35,2.44a1.45,1.45,0,0,0,2,0l5.45-5.12a3.21,3.21,0,0,1,4.53.09l5.39,5.47a1.44,1.44,0,0,0,2,0l3.27-3.22a3.25,3.25,0,0,1,5.52,2.32.85.85,0,0,1,0,.23l-12.58,47C499.28,181.9,499.05,183.8,497.77,183.8ZM490.33,182h7a5.76,5.76,0,0,0,.16-1.43,1,1,0,0,1,0-.24l12.57-46.95a1.39,1.39,0,0,0-.88-1.22,1.41,1.41,0,0,0-1.56.3l-3.28,3.22a3.25,3.25,0,0,1-4.58,0l-5.39-5.48a1.43,1.43,0,0,0-2,0l-5.45,5.12a3.25,3.25,0,0,1-4.55-.11L480,132.69a1.44,1.44,0,0,0-2.47.89l12.57,46.74a1,1,0,0,1,0,.24A5.76,5.76,0,0,0,490.33,182Z"></path><rect class="cls-14" x="464.93" y="183.04" width="60.19" height="15.46" rx="7.73"></rect><path class="cls-9" d="M517.38,199.41H472.66a8.64,8.64,0,1,1,0-17.27h44.72a8.64,8.64,0,0,1,0,17.27Zm-44.72-15.47a6.83,6.83,0,0,0,0,13.66h44.72a6.83,6.83,0,1,0,0-13.66Z"></path><rect class="cls-14" x="464.93" y="198.97" width="60.19" height="15.46" rx="7.73"></rect><path class="cls-9" d="M517.38,215.34H472.66a8.64,8.64,0,1,1,0-17.27h44.72a8.64,8.64,0,0,1,0,17.27Zm-44.72-15.46a6.83,6.83,0,1,0,0,13.66h44.72a6.83,6.83,0,1,0,0-13.66Z"></path><rect class="cls-10" x="475.99" y="214.51" width="37.34" height="15.46" rx="7.73"></rect><path class="cls-9" d="M505.6,230.88H483.72a8.64,8.64,0,0,1,0-17.27H505.6a8.64,8.64,0,0,1,0,17.27Zm-21.88-15.46a6.83,6.83,0,0,0,0,13.66H505.6a6.83,6.83,0,0,0,0-13.66Z"></path></g></g></svg>