<svg xmlns="http://www.w3.org/2000/svg" width="129.214" height="141.649" viewBox="0 0 129.214 141.649"><defs><style>.a{fill:#3ab2d0;}.b{fill:#24313e;}.c{fill:#28c397;}.d{fill:#0062ff;}.e{fill:#0c7ff2;}</style></defs><g transform="translate(-8704.78 1202.845)"><g transform="translate(8775.824 -1202.845)"><path class="a" d="M9125.536-1125.015a9.537,9.537,0,0,1,1.731,5.495,9.579,9.579,0,0,1-10.1,9.565,9.606,9.606,0,0,1-9.052-9.3,9.547,9.547,0,0,1,1.735-5.767,1.513,1.513,0,0,0-1.24-2.382h-15.489v-23.078a1.511,1.511,0,0,1,2.222-.354,9.534,9.534,0,0,0,6.051,2.154,9.58,9.58,0,0,0,9.577-9.812,9.617,9.617,0,0,0-9.543-9.345,9.532,9.532,0,0,0-6.086,2.154,1.511,1.511,0,0,1-2.221-.353v-16.711h15.966a1.512,1.512,0,0,0,1.179-2.462,9.528,9.528,0,0,1-2.152-6.087,9.615,9.615,0,0,1,9.344-9.543,9.58,9.58,0,0,1,9.813,9.577,9.535,9.535,0,0,1-2.154,6.051,1.513,1.513,0,0,0,1.179,2.463h22.173v55.344h-21.708A1.51,1.51,0,0,0,9125.536-1125.015Z" transform="translate(-9092.752 1201.213)"></path><path class="b" d="M9116.063-1111.206c-.183,0-.366,0-.55-.015a9.988,9.988,0,0,1-9.4-9.659,9.874,9.874,0,0,1,1.8-5.989,1.123,1.123,0,0,0,.078-1.184,1.129,1.129,0,0,0-1.018-.619h-15.857v-23.555l.061-.091a1.9,1.9,0,0,1,1.3-.839,1.838,1.838,0,0,1,1.461.4,9.225,9.225,0,0,0,5.819,2.071,9.142,9.142,0,0,0,6.592-2.777,9.143,9.143,0,0,0,2.617-6.659,9.275,9.275,0,0,0-9.177-8.986,9.258,9.258,0,0,0-5.853,2.071,1.834,1.834,0,0,1-1.459.4,1.9,1.9,0,0,1-1.3-.838l-.061-.092v-17.188h16.334a1.13,1.13,0,0,0,1.039-.658,1.112,1.112,0,0,0-.145-1.2,9.955,9.955,0,0,1-2.237-6.321,10.014,10.014,0,0,1,9.7-9.909,9.872,9.872,0,0,1,7.189,2.827,9.873,9.873,0,0,1,3,7.118,9.959,9.959,0,0,1-2.237,6.284,1.112,1.112,0,0,0-.144,1.2,1.127,1.127,0,0,0,1.038.658H9147.2v56.08h-22.076a1.111,1.111,0,0,0-1,.607,1.143,1.143,0,0,0,.084,1.205,9.884,9.884,0,0,1,1.8,5.706,9.859,9.859,0,0,1-3.1,7.22A9.855,9.855,0,0,1,9116.063-1111.206Zm-24.209-18.2h15.122a1.874,1.874,0,0,1,1.67,1.015,1.869,1.869,0,0,1-.129,1.946,9.143,9.143,0,0,0-1.669,5.546,9.249,9.249,0,0,0,8.7,8.944,9.137,9.137,0,0,0,6.84-2.511,9.131,9.131,0,0,0,2.875-6.686,9.15,9.15,0,0,0-1.665-5.283h0a1.891,1.891,0,0,1-.133-1.967,1.835,1.835,0,0,1,1.656-1h21.34v-54.609h-21.8a1.871,1.871,0,0,1-1.7-1.078,1.858,1.858,0,0,1,.238-1.985,9.221,9.221,0,0,0,2.072-5.819,9.141,9.141,0,0,0-2.777-6.592,9.142,9.142,0,0,0-6.658-2.617,9.274,9.274,0,0,0-8.986,9.177,9.224,9.224,0,0,0,2.071,5.853,1.853,1.853,0,0,1,.238,1.984,1.869,1.869,0,0,1-1.7,1.079h-15.6v16.225a1.193,1.193,0,0,0,.739.43,1.107,1.107,0,0,0,.881-.244,9.96,9.96,0,0,1,6.285-2.237h.035a10.016,10.016,0,0,1,9.91,9.7,9.881,9.881,0,0,1-2.827,7.19,9.87,9.87,0,0,1-7.118,3,9.964,9.964,0,0,1-6.284-2.237,1.111,1.111,0,0,0-.883-.244,1.17,1.17,0,0,0-.738.43Z" transform="translate(-9091.119 1202.845)"></path></g><g transform="translate(8704.78 -1184.158)"><path class="c" d="M8794-1075.874a9.19,9.19,0,0,1-9.189,9.415,9.153,9.153,0,0,1-5.807-2.067,1.447,1.447,0,0,0-2.13.339,1.432,1.432,0,0,0-.232.792v21.274h-15.825a1.44,1.44,0,0,1-.065-1.753,9.161,9.161,0,0,0,1.665-5.533,9.217,9.217,0,0,0-8.686-8.925,9.19,9.19,0,0,0-9.692,9.178,9.145,9.145,0,0,0,1.661,5.272,1.458,1.458,0,0,1-.052,1.761h-22.108v-20.828a1.449,1.449,0,0,0-2.295-1.172,9.14,9.14,0,0,1-5.271,1.661,9.19,9.19,0,0,1-9.178-9.693,9.217,9.217,0,0,1,8.926-8.685,9.15,9.15,0,0,1,5.533,1.665,1.452,1.452,0,0,0,2.285-1.19v-14.862h53.1v15.319a1.432,1.432,0,0,0,.232.792,1.449,1.449,0,0,0,2.13.339,9.15,9.15,0,0,1,5.84-2.067A9.228,9.228,0,0,1,8794-1075.874Z" transform="translate(-8706.413 1099.592)"></path><path class="b" d="M8775.376-1047.385h-16.369l-.109-.136a1.8,1.8,0,0,1-.081-2.2,8.772,8.772,0,0,0,1.6-5.312,8.862,8.862,0,0,0-8.337-8.568,8.754,8.754,0,0,0-6.553,2.406,8.746,8.746,0,0,0-2.753,6.4,8.765,8.765,0,0,0,1.595,5.061,1.822,1.822,0,0,1-.065,2.2l-.111.138h-22.651v-21.2a1.052,1.052,0,0,0-.575-.951,1.084,1.084,0,0,0-1.141.08,9.5,9.5,0,0,1-5.483,1.728,9.472,9.472,0,0,1-6.938-2.983,9.485,9.485,0,0,1-2.606-7.1,9.6,9.6,0,0,1,9.282-9.033,9.493,9.493,0,0,1,5.755,1.732,1.064,1.064,0,0,0,1.12.074,1.069,1.069,0,0,0,.587-.964v-15.229h53.837v15.686a1.049,1.049,0,0,0,.173.591,1.118,1.118,0,0,0,.756.487,1.049,1.049,0,0,0,.833-.23,9.57,9.57,0,0,1,6.04-2.15h.034a9.624,9.624,0,0,1,9.522,9.326h0a9.491,9.491,0,0,1-2.716,6.91,9.491,9.491,0,0,1-6.842,2.881,9.57,9.57,0,0,1-6.037-2.15,1.057,1.057,0,0,0-.837-.231,1.1,1.1,0,0,0-.754.485,1.057,1.057,0,0,0-.173.592Zm-16-.736h15.268v-20.906a1.8,1.8,0,0,1,.293-.994,1.836,1.836,0,0,1,1.257-.81,1.779,1.779,0,0,1,1.413.388,8.839,8.839,0,0,0,5.573,1.984,8.757,8.757,0,0,0,6.315-2.66A8.764,8.764,0,0,0,8792-1077.5h0a8.884,8.884,0,0,0-8.79-8.608h-.031a8.837,8.837,0,0,0-5.575,1.984,1.775,1.775,0,0,1-1.41.388,1.842,1.842,0,0,1-1.26-.811,1.8,1.8,0,0,1-.292-.993v-14.951h-52.367v14.494a1.815,1.815,0,0,1-.982,1.617,1.81,1.81,0,0,1-1.882-.126,8.759,8.759,0,0,0-5.312-1.6,8.861,8.861,0,0,0-8.568,8.337,8.757,8.757,0,0,0,2.406,6.552,8.744,8.744,0,0,0,6.405,2.754,8.764,8.764,0,0,0,5.061-1.595,1.831,1.831,0,0,1,1.9-.13,1.778,1.778,0,0,1,.97,1.6v20.461h21.548a1.089,1.089,0,0,0-.056-1.182,9.493,9.493,0,0,1-1.729-5.483,9.477,9.477,0,0,1,2.982-6.939,9.484,9.484,0,0,1,7.1-2.606,9.6,9.6,0,0,1,9.034,9.282,9.49,9.49,0,0,1-1.732,5.755A1.069,1.069,0,0,0,8759.373-1048.121Z" transform="translate(-8704.781 1101.224)"></path></g><g transform="translate(8777.912 -1202.845)"><path class="a" d="M9136.888-1125.015a9.536,9.536,0,0,1,1.73,5.495,9.577,9.577,0,0,1-10.1,9.565,9.6,9.6,0,0,1-9.051-9.3,9.533,9.533,0,0,1,1.734-5.767,1.514,1.514,0,0,0-1.24-2.382h-15.489v-23.078a1.51,1.51,0,0,1,2.221-.354,9.534,9.534,0,0,0,6.052,2.154,9.58,9.58,0,0,0,9.577-9.812,9.617,9.617,0,0,0-9.543-9.345,9.532,9.532,0,0,0-6.086,2.154,1.511,1.511,0,0,1-2.221-.353v-16.711h15.966a1.512,1.512,0,0,0,1.179-2.462,9.534,9.534,0,0,1-2.153-6.087,9.616,9.616,0,0,1,9.345-9.543,9.579,9.579,0,0,1,9.812,9.577,9.529,9.529,0,0,1-2.153,6.051,1.513,1.513,0,0,0,1.179,2.463h22.174v55.344h-21.708A1.51,1.51,0,0,0,9136.888-1125.015Z" transform="translate(-9104.104 1201.213)"></path><path class="b" d="M9127.416-1111.206c-.184,0-.367,0-.552-.015a9.988,9.988,0,0,1-9.4-9.659,9.874,9.874,0,0,1,1.8-5.989,1.123,1.123,0,0,0,.078-1.184,1.129,1.129,0,0,0-1.018-.619h-15.857v-23.555l.059-.091a1.9,1.9,0,0,1,1.3-.839,1.84,1.84,0,0,1,1.462.4,9.223,9.223,0,0,0,5.819,2.071,9.142,9.142,0,0,0,6.592-2.777,9.151,9.151,0,0,0,2.617-6.659,9.275,9.275,0,0,0-9.178-8.986h-.031a9.225,9.225,0,0,0-5.821,2.072,1.833,1.833,0,0,1-1.458.4,1.91,1.91,0,0,1-1.3-.838l-.059-.092v-17.188H9118.8a1.126,1.126,0,0,0,1.037-.658,1.11,1.11,0,0,0-.144-1.2,9.966,9.966,0,0,1-2.237-6.321,10.015,10.015,0,0,1,9.705-9.909,9.872,9.872,0,0,1,7.189,2.827,9.873,9.873,0,0,1,3,7.118,9.959,9.959,0,0,1-2.237,6.284,1.112,1.112,0,0,0-.145,1.2,1.127,1.127,0,0,0,1.039.658h22.541v56.08h-22.076a1.114,1.114,0,0,0-1,.607,1.145,1.145,0,0,0,.084,1.205,9.878,9.878,0,0,1,1.8,5.706,9.859,9.859,0,0,1-3.1,7.22A9.854,9.854,0,0,1,9127.416-1111.206Zm-24.21-18.2h15.122a1.878,1.878,0,0,1,1.671,1.016,1.871,1.871,0,0,1-.131,1.946,9.149,9.149,0,0,0-1.669,5.546,9.25,9.25,0,0,0,8.705,8.944,9.137,9.137,0,0,0,6.839-2.511,9.128,9.128,0,0,0,2.876-6.686,9.144,9.144,0,0,0-1.666-5.283h0a1.9,1.9,0,0,1-.135-1.967,1.839,1.839,0,0,1,1.658-1h21.34v-54.609h-21.8a1.87,1.87,0,0,1-1.7-1.078,1.856,1.856,0,0,1,.238-1.985,9.226,9.226,0,0,0,2.072-5.819,9.141,9.141,0,0,0-2.777-6.592,9.146,9.146,0,0,0-6.659-2.617,9.273,9.273,0,0,0-8.985,9.177,9.213,9.213,0,0,0,2.071,5.853,1.853,1.853,0,0,1,.238,1.984,1.869,1.869,0,0,1-1.7,1.079h-15.6v16.225a1.188,1.188,0,0,0,.739.43,1.111,1.111,0,0,0,.881-.244,9.958,9.958,0,0,1,6.285-2.237h.035a10.013,10.013,0,0,1,9.908,9.7,9.864,9.864,0,0,1-2.826,7.19,9.868,9.868,0,0,1-7.117,3,9.968,9.968,0,0,1-6.285-2.237,1.111,1.111,0,0,0-.883-.244,1.17,1.17,0,0,0-.737.43Z" transform="translate(-9102.471 1202.845)"></path></g><g transform="translate(8707.031 -1184.158)"><path class="c" d="M8806.24-1075.874a9.19,9.19,0,0,1-9.188,9.415,9.147,9.147,0,0,1-5.806-2.067,1.448,1.448,0,0,0-2.131.339,1.424,1.424,0,0,0-.232.792v21.274h-15.826a1.443,1.443,0,0,1-.065-1.753,9.148,9.148,0,0,0,1.665-5.533,9.216,9.216,0,0,0-8.684-8.925,9.19,9.19,0,0,0-9.693,9.178,9.151,9.151,0,0,0,1.66,5.272,1.455,1.455,0,0,1-.051,1.761h-22.109v-20.828a1.448,1.448,0,0,0-2.294-1.172,9.143,9.143,0,0,1-5.272,1.661,9.191,9.191,0,0,1-9.177-9.693,9.217,9.217,0,0,1,8.925-8.685,9.15,9.15,0,0,1,5.533,1.665,1.452,1.452,0,0,0,2.285-1.19v-14.862h53.1v15.319a1.424,1.424,0,0,0,.232.792,1.447,1.447,0,0,0,2.129.339,9.154,9.154,0,0,1,5.84-2.067A9.227,9.227,0,0,1,8806.24-1075.874Z" transform="translate(-8718.655 1099.592)"></path><path class="b" d="M8787.618-1047.385h-16.369l-.109-.136a1.8,1.8,0,0,1-.081-2.2,8.766,8.766,0,0,0,1.6-5.312,8.86,8.86,0,0,0-8.336-8.568,8.752,8.752,0,0,0-6.552,2.406,8.743,8.743,0,0,0-2.754,6.4,8.763,8.763,0,0,0,1.595,5.061,1.821,1.821,0,0,1-.066,2.2l-.11.138H8733.78v-21.2a1.051,1.051,0,0,0-.575-.951,1.084,1.084,0,0,0-1.141.08,9.494,9.494,0,0,1-5.482,1.728,9.472,9.472,0,0,1-6.938-2.983,9.485,9.485,0,0,1-2.606-7.1,9.6,9.6,0,0,1,9.281-9.033,9.493,9.493,0,0,1,5.756,1.732,1.064,1.064,0,0,0,1.12.074,1.068,1.068,0,0,0,.586-.964v-15.229h53.838v15.686a1.056,1.056,0,0,0,.172.591,1.122,1.122,0,0,0,.758.487,1.045,1.045,0,0,0,.832-.23,9.55,9.55,0,0,1,6.074-2.15,9.623,9.623,0,0,1,9.521,9.326h0a9.486,9.486,0,0,1-2.715,6.91,9.489,9.489,0,0,1-6.841,2.881,9.571,9.571,0,0,1-6.038-2.15,1.055,1.055,0,0,0-.836-.231,1.1,1.1,0,0,0-.755.486,1.056,1.056,0,0,0-.173.592Zm-16-.736h15.267v-20.906a1.8,1.8,0,0,1,.294-.994,1.836,1.836,0,0,1,1.256-.81,1.78,1.78,0,0,1,1.414.388,8.837,8.837,0,0,0,5.574,1.984,8.753,8.753,0,0,0,6.313-2.66,8.761,8.761,0,0,0,2.508-6.378h0a8.884,8.884,0,0,0-8.791-8.608h-.03a8.837,8.837,0,0,0-5.575,1.984,1.772,1.772,0,0,1-1.41.388,1.839,1.839,0,0,1-1.26-.811,1.8,1.8,0,0,1-.293-.993v-14.951h-52.366v14.494a1.815,1.815,0,0,1-.982,1.617,1.809,1.809,0,0,1-1.882-.126,8.757,8.757,0,0,0-5.312-1.6,8.861,8.861,0,0,0-8.568,8.337,8.757,8.757,0,0,0,2.406,6.552,8.744,8.744,0,0,0,6.405,2.754,8.759,8.759,0,0,0,5.06-1.595,1.832,1.832,0,0,1,1.9-.13,1.777,1.777,0,0,1,.971,1.6v20.461h21.548a1.091,1.091,0,0,0-.056-1.182,9.492,9.492,0,0,1-1.729-5.483,9.477,9.477,0,0,1,2.982-6.939,9.487,9.487,0,0,1,7.1-2.606,9.6,9.6,0,0,1,9.033,9.282,9.483,9.483,0,0,1-1.731,5.755A1.067,1.067,0,0,0,8771.615-1048.121Z" transform="translate(-8717.023 1101.224)"></path></g><g transform="translate(8725.364 -1146.168)"><path class="d" d="M8854.118-822.883a8.838,8.838,0,0,1,2,5.64,8.911,8.911,0,0,1-8.658,8.843,8.876,8.876,0,0,1-9.093-8.874,8.839,8.839,0,0,1,2-5.608,1.4,1.4,0,0,0-.326-2.058,1.383,1.383,0,0,0-.766-.224h-20.547v-51.285h20.116a1.363,1.363,0,0,0,1.082-.515,1.41,1.41,0,0,0,.05-1.7,8.835,8.835,0,0,1-1.6-5.091,8.876,8.876,0,0,1,9.361-8.864,8.9,8.9,0,0,1,8.386,8.62,8.825,8.825,0,0,1-1.606,5.344,1.394,1.394,0,0,0,.062,1.693,1.384,1.384,0,0,0,1.088.515h14.354v51.285h-14.795a1.378,1.378,0,0,0-.766.224A1.4,1.4,0,0,0,8854.118-822.883Z" transform="translate(-8818.352 893.001)"></path><path class="b" d="M8845.6-809.662a9.171,9.171,0,0,1-6.454-2.629,9.172,9.172,0,0,1-2.787-6.616,9.259,9.259,0,0,1,2.079-5.84,1,1,0,0,0,.22-.8,1.052,1.052,0,0,0-.462-.72,1.014,1.014,0,0,0-.566-.165h-20.913v-52.02H8837.2a1,1,0,0,0,.795-.376,1.044,1.044,0,0,0,.036-1.261,9.181,9.181,0,0,1-1.672-5.3,9.159,9.159,0,0,1,2.886-6.71,9.172,9.172,0,0,1,6.863-2.521,9.284,9.284,0,0,1,8.735,8.977,9.178,9.178,0,0,1-1.675,5.566,1.028,1.028,0,0,0,.048,1.249,1.01,1.01,0,0,0,.8.379h14.72v52.02h-15.161a1.009,1.009,0,0,0-.563.164,1.07,1.07,0,0,0-.465.722,1,1,0,0,0,.221.794h0a9.259,9.259,0,0,1,2.078,5.874,9.307,9.307,0,0,1-9.019,9.209Zm-28.148-17.5h20.178a1.753,1.753,0,0,1,.968.285,1.785,1.785,0,0,1,.788,1.222,1.73,1.73,0,0,1-.377,1.375,8.525,8.525,0,0,0-1.913,5.375,8.443,8.443,0,0,0,2.564,6.089,8.437,8.437,0,0,0,6.151,2.417,8.565,8.565,0,0,0,8.3-8.476,8.523,8.523,0,0,0-1.912-5.406h0a1.727,1.727,0,0,1-.378-1.373,1.794,1.794,0,0,1,.789-1.225,1.754,1.754,0,0,1,.966-.284H8868v-50.549H8854.02a1.755,1.755,0,0,1-1.372-.651,1.755,1.755,0,0,1-.078-2.136,8.439,8.439,0,0,0,1.54-5.123,8.543,8.543,0,0,0-8.038-8.262,8.449,8.449,0,0,0-6.318,2.32,8.431,8.431,0,0,0-2.655,6.176,8.458,8.458,0,0,0,1.537,4.88,1.77,1.77,0,0,1-.063,2.142,1.738,1.738,0,0,1-1.369.653h-19.747Z" transform="translate(-8816.719 894.633)"></path></g><g transform="translate(8727.626 -1146.168)"><path class="e" d="M8866.416-822.883a8.833,8.833,0,0,1,2,5.64,8.911,8.911,0,0,1-8.66,8.843,8.877,8.877,0,0,1-9.092-8.874,8.835,8.835,0,0,1,2-5.608,1.4,1.4,0,0,0-.327-2.058,1.38,1.38,0,0,0-.766-.224h-20.546v-51.285h20.116a1.36,1.36,0,0,0,1.081-.515,1.408,1.408,0,0,0,.051-1.7,8.829,8.829,0,0,1-1.605-5.091,8.876,8.876,0,0,1,9.361-8.864,8.9,8.9,0,0,1,8.388,8.62,8.839,8.839,0,0,1-1.607,5.344,1.391,1.391,0,0,0,.063,1.693,1.381,1.381,0,0,0,1.086.515H8882.3v51.285H8867.51a1.378,1.378,0,0,0-.766.224A1.4,1.4,0,0,0,8866.416-822.883Z" transform="translate(-8830.649 893.001)"></path><path class="b" d="M8857.9-809.662a9.171,9.171,0,0,1-6.454-2.629,9.175,9.175,0,0,1-2.786-6.616,9.259,9.259,0,0,1,2.079-5.84,1,1,0,0,0,.22-.8,1.05,1.05,0,0,0-.463-.72,1.011,1.011,0,0,0-.565-.165h-20.914v-52.02H8849.5a.992.992,0,0,0,.794-.376,1.04,1.04,0,0,0,.037-1.261,9.18,9.18,0,0,1-1.671-5.3,9.162,9.162,0,0,1,2.885-6.71,9.171,9.171,0,0,1,6.863-2.52,9.283,9.283,0,0,1,8.735,8.977,9.166,9.166,0,0,1-1.675,5.566,1.029,1.029,0,0,0,.048,1.249,1.013,1.013,0,0,0,.8.379h14.721v52.02h-15.163a1,1,0,0,0-.562.164,1.074,1.074,0,0,0-.466.722,1,1,0,0,0,.221.794h0a9.247,9.247,0,0,1,2.078,5.874,9.306,9.306,0,0,1-9.018,9.209Zm-28.147-17.5h20.178a1.757,1.757,0,0,1,.968.285,1.791,1.791,0,0,1,.788,1.222,1.735,1.735,0,0,1-.378,1.375,8.525,8.525,0,0,0-1.913,5.375,8.443,8.443,0,0,0,2.564,6.089,8.442,8.442,0,0,0,6.151,2.417,8.565,8.565,0,0,0,8.3-8.476,8.512,8.512,0,0,0-1.913-5.406h0a1.726,1.726,0,0,1-.376-1.373,1.789,1.789,0,0,1,.788-1.225,1.756,1.756,0,0,1,.966-.284H8880.3v-50.549h-13.984a1.759,1.759,0,0,1-1.373-.651,1.755,1.755,0,0,1-.078-2.136,8.448,8.448,0,0,0,1.542-5.123,8.545,8.545,0,0,0-8.04-8.262,8.441,8.441,0,0,0-6.317,2.32,8.432,8.432,0,0,0-2.656,6.177,8.445,8.445,0,0,0,1.538,4.88,1.77,1.77,0,0,1-.064,2.142,1.736,1.736,0,0,1-1.369.653h-19.747Z" transform="translate(-8829.017 894.633)"></path></g></g></svg>