<svg xmlns="http://www.w3.org/2000/svg" xmlns:xlink="http://www.w3.org/1999/xlink" width="263.044" height="240.865" viewBox="0 0 263.044 240.865"><defs><style>.a{fill:url(#a);}.b{opacity:0.312;}.c{clip-path:url(#c);}.d{fill:url(#f);}.e{fill:#ff603d;}.f{fill:#24313e;}.g{fill:#455666;}.h{fill:#9caab8;}.i{fill:#f4e969;}.j{fill:#031439;}.k{fill:#e7e9f2;}</style><radialGradient id="a" cx="0.5" cy="0.5" r="0.5" gradientTransform="translate(0)" gradientUnits="objectBoundingBox"><stop offset="0" stop-color="#fff"></stop><stop offset="1" stop-color="#fff" stop-opacity="0"></stop></radialGradient><clipPath id="c"><circle class="a" cx="55.807" cy="55.807" r="55.807"></circle></clipPath><radialGradient id="f" cx="0.5" cy="0.5" r="0.5" gradientTransform="matrix(1, 0, 0, 1, 0, 0)" xlink:href="#a"></radialGradient></defs><g transform="translate(-9461.336 4421.876)"><g class="b" transform="translate(9612.765 -4421.876)"><g transform="translate(0 0)"><circle class="a" cx="55.807" cy="55.807" r="55.807"></circle><g class="c"><rect class="a" width="111.615" height="111.615"></rect><circle class="a" cx="55.807" cy="55.807" r="55.807"></circle><circle class="d" cx="27.904" cy="27.904" r="27.904" transform="translate(27.904 27.904)"></circle></g></g></g><g transform="translate(9466.589 -4320.968)"><path class="e" d="M9483.176-3957.371l40.274-45.257,4.826.157,21.677,21.677,22.232-27.351h5.119l17.021,17.022,53.538-53.538,11.93,11.93-64.158,64.158-5.294-.4-12.311-17.2-28.659,28.66h-5.119l-17.432-22.55-34.188,31.89-5.518-.257Z" transform="translate(-9482.543 4045.424)"></path><path class="f" d="M9491.119-3949.694l-6.078-.283-4.213-9.56,40.672-45.7,5.292.172,21.4,21.4,22.019-27.086h5.6l16.8,16.8,53.539-53.538,12.692,12.692-64.715,64.715-5.792-.44-12.087-16.889-28.368,28.369h-5.606l-17.232-22.291Zm-5.361-1.329,4.958.23,34.455-32.138,17.631,22.809h4.632l28.951-28.952,12.534,17.513,4.795.365,63.6-63.6-11.168-11.167-53.539,53.538-17.243-17.245h-4.641l-22.447,27.616-21.949-21.949-4.359-.142-39.877,44.81Z" transform="translate(-9480.828 4047.49)"></path></g><g transform="translate(9610.491 -4326.406)"><path class="e" d="M10058.019-4027.2l-38.467-38.467h38.467Z" transform="translate(-10018.251 4066.207)"></path><path class="f" d="M10055.031-4027.361l-40.307-40.307h40.307Zm-37.705-39.229,36.625,36.626v-36.626Z" transform="translate(-10014.725 4067.668)"></path></g><g transform="translate(9461.336 -4320.968)"><path class="e" d="M9464.185-3957.371l45.1-45.1,21.678,21.677,27.351-27.351,17.022,17.022,53.538-53.538,11.929,11.93-64.157,64.158-17.6-17.6-28.661,28.66-22.549-22.55-34.189,31.89Z" transform="translate(-9463.417 4045.424)"></path><path class="f" d="M9471.553-3949.5l-10.217-9.933L9507.2-4005.3l21.678,21.677,27.351-27.351,17.022,17.021,53.537-53.538,12.692,12.692-64.921,64.921-17.6-17.6-28.661,28.66-22.562-22.563Zm-8.682-9.944,8.7,8.455,34.193-31.895,22.537,22.537,28.661-28.66,17.6,17.6,63.4-63.4-11.168-11.167-53.537,53.538-17.022-17.021-27.351,27.351-21.678-21.677Z" transform="translate(-9461.336 4047.49)"></path></g><g transform="translate(9605.373 -4326.406)"><path class="e" d="M10039.026-4027.2l-38.466-38.467h38.466Z" transform="translate(-9999.26 4066.207)"></path><path class="f" d="M10036.04-4027.361l-40.307-40.307h40.307Zm-37.705-39.229,36.627,36.626v-36.626Z" transform="translate(-9995.733 4067.668)"></path></g><g transform="translate(9654.955 -4294.554)"><rect class="g" width="112.464" height="47.362" transform="translate(0.539 113.003) rotate(-90)"></rect><path class="f" d="M10180.23-3835.95h-.539v-113.542h48.44v113.542Zm.54-112.464v111.386h46.283v-111.386Z" transform="translate(-10179.691 3949.492)"></path></g><g transform="translate(9643.063 -4294.554)"><rect class="h" width="112.464" height="47.362" transform="translate(0.539 113.003) rotate(-90)"></rect><path class="f" d="M10136.111-3835.95h-.539v-113.542h48.439v113.542Zm.54-112.464v111.386h46.284v-111.386Z" transform="translate(-10135.572 3949.492)"></path></g><g transform="translate(9592.629 -4259.179)"><rect class="g" width="77.089" height="47.362" transform="translate(0.539 77.628) rotate(-90)"></rect><path class="f" d="M9948.451-3740.078v-78.167h48.44v78.167Zm1.077-77.088v76.011h46.284v-76.011Z" transform="translate(-9948.451 3818.245)"></path></g><g transform="translate(9580.737 -4259.179)"><rect class="h" width="77.089" height="47.362" transform="translate(0.539 77.628) rotate(-90)"></rect><path class="f" d="M9904.871-3740.078h-.539v-78.167h48.44v78.167Zm.539-77.088v76.011h46.284v-76.011Z" transform="translate(-9904.332 3818.245)"></path></g><g transform="translate(9530.302 -4225.966)"><rect class="g" width="43.875" height="47.363" transform="translate(0.539 44.414) rotate(-90)"></rect><path class="f" d="M9717.21-3650.065v-44.953h48.441v44.953Zm1.078-43.875v42.8h46.284v-42.8Z" transform="translate(-9717.21 3695.019)"></path></g><g transform="translate(9518.41 -4225.965)"><rect class="h" width="43.875" height="47.363" transform="translate(0.539 44.414) rotate(-90)"></rect><path class="f" d="M9673.09-3650.064v-44.953h48.441v44.953Zm1.079-43.875v42.8h46.285v-42.8Z" transform="translate(-9673.09 3695.018)"></path></g><g transform="translate(9640.286 -4395.887)"><path class="i" d="M10183.808-4296.1a28.231,28.231,0,0,1-10.891,23.239,16.882,16.882,0,0,0-6.476,13.322v8.6h-21.793v-8.6a16.731,16.731,0,0,0-6.391-13.257,28.228,28.228,0,0,1-10.99-22.377,28.276,28.276,0,0,1,28.95-28.27A28.376,28.376,0,0,1,10183.808-4296.1Z" transform="translate(-10126.729 4323.989)"></path><path class="j" d="M10164.981-4251.862h-21.793a.54.54,0,0,1-.54-.539v-8.6a16.276,16.276,0,0,0-6.181-12.832,28.643,28.643,0,0,1-11.2-22.8,28.6,28.6,0,0,1,8.679-20.614,28.612,28.612,0,0,1,20.823-8.195,28.671,28.671,0,0,1,19.573,8.367,28.654,28.654,0,0,1,8.542,19.5h0a28.949,28.949,0,0,1-11.1,23.682,16.454,16.454,0,0,0-6.268,12.9v8.6A.539.539,0,0,1,10164.981-4251.862Zm-21.255-1.078h20.715V-4261a17.541,17.541,0,0,1,6.684-13.747,27.867,27.867,0,0,0,10.683-22.8,27.725,27.725,0,0,0-27.062-26.82,27.543,27.543,0,0,0-20.045,7.889,27.531,27.531,0,0,0-8.354,19.842,27.571,27.571,0,0,0,10.781,21.951,17.361,17.361,0,0,1,6.6,13.685Z" transform="translate(-10125.269 4325.449)"></path></g><g transform="translate(9658.451 -4356.102)"><path class="i" d="M10207.271-4143.525h-4.705c-.205,0-.372-.625-.372-1.4l-7.53-28a1.4,1.4,0,0,1,2.4-.971l1.406,1.456a1.4,1.4,0,0,0,1.961.048l3.258-3.058a1.4,1.4,0,0,1,1.952.039l3.219,3.27a1.4,1.4,0,0,0,1.976.017l1.957-1.924a1.4,1.4,0,0,1,2.377,1l-7.53,28.126C10207.643-4144.151,10207.477-4143.525,10207.271-4143.525Z" transform="translate(-10194.125 4176.369)"></path><path class="j" d="M10205.811-4144.459h-4.706c-.766,0-.9-1.135-.909-1.864l-7.513-27.933a.521.521,0,0,1-.019-.14,1.9,1.9,0,0,1,1.211-1.8,1.9,1.9,0,0,1,2.118.45l1.406,1.456a.862.862,0,0,0,1.205.03l3.257-3.058a1.927,1.927,0,0,1,2.706.053l3.219,3.271a.86.86,0,0,0,1.214.01l1.957-1.924a1.908,1.908,0,0,1,2.106-.4,1.908,1.908,0,0,1,1.188,1.786.515.515,0,0,1-.019.14l-7.512,28.059C10206.712-4145.594,10206.576-4144.459,10205.811-4144.459Zm-4.444-1.078h4.184a3.445,3.445,0,0,0,.093-.858.518.518,0,0,1,.019-.14l7.509-28.049a.83.83,0,0,0-.523-.729.835.835,0,0,0-.934.179l-1.958,1.924a1.939,1.939,0,0,1-2.737-.023l-3.219-3.27a.853.853,0,0,0-1.2-.023l-3.257,3.058a1.946,1.946,0,0,1-2.719-.066l-1.406-1.456a.834.834,0,0,0-.939-.2.833.833,0,0,0-.534.732l7.511,27.923a.565.565,0,0,1,.018.14A3.433,3.433,0,0,0,10201.366-4145.537Z" transform="translate(-10192.664 4177.842)"></path></g><g transform="translate(9651.438 -4323.711)"><rect class="k" width="35.958" height="9.239" rx="4.619" transform="translate(0.539 0.539)"></rect><path class="f" d="M10198.521-4047.354H10171.8a5.164,5.164,0,0,1-5.158-5.158,5.164,5.164,0,0,1,5.158-5.158h26.719a5.164,5.164,0,0,1,5.158,5.158A5.164,5.164,0,0,1,10198.521-4047.354Zm-26.719-9.239a4.086,4.086,0,0,0-4.081,4.08,4.086,4.086,0,0,0,4.081,4.081h26.719a4.085,4.085,0,0,0,4.08-4.081,4.085,4.085,0,0,0-4.08-4.08Z" transform="translate(-10166.645 4057.67)"></path></g><g transform="translate(9651.438 -4314.193)"><rect class="k" width="35.958" height="9.239" rx="4.619" transform="translate(0.539 0.539)"></rect><path class="f" d="M10198.521-4012.037H10171.8a5.164,5.164,0,0,1-5.158-5.159,5.164,5.164,0,0,1,5.158-5.158h26.719a5.164,5.164,0,0,1,5.158,5.158A5.164,5.164,0,0,1,10198.521-4012.037Zm-26.719-9.239a4.085,4.085,0,0,0-4.081,4.08,4.086,4.086,0,0,0,4.081,4.081h26.719a4.085,4.085,0,0,0,4.08-4.081,4.084,4.084,0,0,0-4.08-4.08Z" transform="translate(-10166.645 4022.354)"></path></g><g transform="translate(9658.047 -4304.912)"><rect class="g" width="22.309" height="9.239" rx="4.619" transform="translate(0.539 0.539)"></rect><path class="f" d="M10209.39-3977.6h-13.07a5.164,5.164,0,0,1-5.158-5.158,5.165,5.165,0,0,1,5.158-5.159h13.07a5.165,5.165,0,0,1,5.158,5.159A5.164,5.164,0,0,1,10209.39-3977.6Zm-13.07-9.239a4.085,4.085,0,0,0-4.08,4.08,4.085,4.085,0,0,0,4.08,4.08h13.07a4.085,4.085,0,0,0,4.08-4.08,4.085,4.085,0,0,0-4.08-4.08Z" transform="translate(-10191.161 3987.921)"></path></g></g></svg>