<svg xmlns="http://www.w3.org/2000/svg" viewBox="0 0 1435 859"><defs><style>.cls-1{isolation:isolate;}.cls-2{fill:#f5f7f9;}.cls-2,.cls-3,.cls-4{stroke:#24313e;stroke-width:2px;}.cls-11,.cls-2,.cls-3,.cls-4{stroke-miterlimit:10;}.cls-3{fill:#0c7ff2;}.cls-4{fill:#455666;}.cls-5{font-size:81.85px;font-family:Rubik-Medium, Rubik;font-weight:500;}.cls-5,.cls-6,.cls-8{fill:#ebf0f5;}.cls-7{fill:#fff;}.cls-8{mix-blend-mode:overlay;opacity:0.21;}.cls-9{fill:#9caab8;mix-blend-mode:multiply;opacity:0.48;}.cls-10{fill:#22a882;}.cls-11,.cls-13{fill:none;}.cls-11{stroke:#000;}.cls-12{fill:#2edeac;}</style></defs><g class="cls-1"><g id="Layer_2" data-name="Layer 2"><g id="Layer_1-2" data-name="Layer 1"><path class="cls-2" d="M1043.84,265.68V581.13a36.33,36.33,0,0,1-36.33,36.34H591a63.78,63.78,0,0,1-63.75-63.75v-288Z"></path><path class="cls-3" d="M553,211.39h465a25.79,25.79,0,0,1,25.79,25.79v28.49a0,0,0,0,1,0,0H527.21a0,0,0,0,1,0,0V237.18A25.79,25.79,0,0,1,553,211.39Z"></path><path class="cls-4" d="M598.64,306.31H970.4a4.49,4.49,0,0,1,4.49,4.49V617.46a0,0,0,0,1,0,0H594.15a0,0,0,0,1,0,0V310.8A4.49,4.49,0,0,1,598.64,306.31Z"></path><text class="cls-5" transform="translate(618.71 405.38) scale(1.01 1)"><tspan xml:space="preserve">&lt;             &gt;</tspan></text><rect class="cls-6" x="666.32" y="451.03" width="238.9" height="13.46" rx="1.34"></rect><rect class="cls-6" x="666.32" y="494.43" width="238.9" height="13.46" rx="1.34"></rect><rect class="cls-6" x="666.32" y="536.16" width="238.9" height="13.46" rx="1.34"></rect><rect class="cls-6" x="687.09" y="373.33" width="192.18" height="13.46" rx="1.34"></rect><circle class="cls-7" cx="511.51" cy="557.18" r="48.2"></circle><rect class="cls-8" x="549.89" y="212.06" width="476.97" height="6.54" rx="2.92"></rect><rect class="cls-9" x="527.21" y="265.68" width="516.63" height="6.54" rx="2.92"></rect><path class="cls-10" d="M366.57,565.42a9.39,9.39,0,0,0,8,9.12L390,576.86a9.42,9.42,0,0,1,6.65,4.46l21.66,36a9.4,9.4,0,0,1,.8,8l-5.27,14.72a9.4,9.4,0,0,0,4.25,11.37l12.33,6.92c4,2.24,31.75,4.28,34.63.7l-13-15a9.41,9.41,0,0,1,7.15-3.5l42.08-.73a9.41,9.41,0,0,1,7.36,3.38l10.17,12.1c3,3.53,34.32,5,38.27,2.72l-14.11-7.77A9.42,9.42,0,0,0,547,638.83l-5.39-14.19a9.39,9.39,0,0,1,.57-7.9l21.4-38.52a9.32,9.32,0,0,1,6.48-4.68l15.24-2.88a9.39,9.39,0,0,0,7.66-9.41l-.27-14.11a9.4,9.4,0,0,0-8-9.12l-15.4-2.32a9.35,9.35,0,0,1-6.66-4.46l-21.65-36a9.4,9.4,0,0,1-.8-8l5.27-14.72a9.38,9.38,0,0,0-4.27-11.37L554,455.06c-4-2.26-34.21-2.12-37.1,1.44l-9.68,12a9.39,9.39,0,0,1-7.15,3.5l-42.08.72a9.42,9.42,0,0,1-7.38-3.35L465,455.06c-2.95-3.51-32.55-2.24-36.51.09l-12.19,7.13a9.41,9.41,0,0,0-4.06,11.45l5.38,14.19a9.42,9.42,0,0,1-.56,7.9l-21.4,38.54a9.44,9.44,0,0,1-6.47,4.68L374,541.9a9.41,9.41,0,0,0-7.66,9.41Zm113.12-47.86a38.73,38.73,0,1,1-38.78,40.13A38.84,38.84,0,0,1,479.69,517.56Z"></path><path class="cls-11" d="M366.57,565.42a9.39,9.39,0,0,0,8,9.12L390,576.86a9.42,9.42,0,0,1,6.65,4.46l21.66,36a9.4,9.4,0,0,1,.8,8l-5.27,14.72a9.4,9.4,0,0,0,4.25,11.37l12.33,6.92c4,2.24,31.75,4.28,34.63.7l-13-15a9.41,9.41,0,0,1,7.15-3.5l42.08-.73a9.41,9.41,0,0,1,7.36,3.38l10.17,12.1c3,3.53,34.32,5,38.27,2.72l-14.11-7.77A9.42,9.42,0,0,0,547,638.83l-5.39-14.19a9.39,9.39,0,0,1,.57-7.9l21.4-38.52a9.32,9.32,0,0,1,6.48-4.68l15.24-2.88a9.39,9.39,0,0,0,7.66-9.41l-.27-14.11a9.4,9.4,0,0,0-8-9.12l-15.4-2.32a9.35,9.35,0,0,1-6.66-4.46l-21.65-36a9.4,9.4,0,0,1-.8-8l5.27-14.72a9.38,9.38,0,0,0-4.27-11.37L554,455.06c-4-2.26-34.21-2.12-37.1,1.44l-9.68,12a9.39,9.39,0,0,1-7.15,3.5l-42.08.72a9.42,9.42,0,0,1-7.38-3.35L465,455.06c-2.95-3.51-32.55-2.24-36.51.09l-12.19,7.13a9.41,9.41,0,0,0-4.06,11.45l5.38,14.19a9.42,9.42,0,0,1-.56,7.9l-21.4,38.54a9.44,9.44,0,0,1-6.47,4.68L374,541.9a9.41,9.41,0,0,0-7.66,9.41Zm113.12-47.86a38.73,38.73,0,1,1-38.78,40.13A38.84,38.84,0,0,1,479.69,517.56Z"></path><path class="cls-12" d="M394.57,565.42a9.39,9.39,0,0,0,8,9.12L418,576.86a9.42,9.42,0,0,1,6.65,4.46l21.66,36a9.4,9.4,0,0,1,.8,8l-5.27,14.72a9.4,9.4,0,0,0,4.25,11.37l12.33,6.92a9.4,9.4,0,0,0,11.92-2.31l9.68-12a9.41,9.41,0,0,1,7.15-3.5l42.08-.73a9.41,9.41,0,0,1,7.36,3.38l10.17,12.1a9.42,9.42,0,0,0,12,2.09l12.2-7.14A9.42,9.42,0,0,0,575,638.83l-5.39-14.19a9.39,9.39,0,0,1,.57-7.9l21.4-38.52a9.32,9.32,0,0,1,6.48-4.68l15.24-2.88a9.39,9.39,0,0,0,7.66-9.41l-.27-14.11a9.4,9.4,0,0,0-8-9.12l-15.4-2.32a9.35,9.35,0,0,1-6.66-4.46l-21.65-36a9.4,9.4,0,0,1-.8-8l5.27-14.72a9.38,9.38,0,0,0-4.27-11.37l-12.32-6.9a9.38,9.38,0,0,0-11.91,2.28l-9.68,12a9.39,9.39,0,0,1-7.15,3.5l-42.08.72a9.42,9.42,0,0,1-7.38-3.35l-10.17-12.12a9.38,9.38,0,0,0-12-2.07l-12.19,7.13a9.41,9.41,0,0,0-4.06,11.45l5.38,14.19a9.42,9.42,0,0,1-.56,7.9l-21.4,38.54a9.44,9.44,0,0,1-6.47,4.68L402,541.9a9.41,9.41,0,0,0-7.66,9.41Zm113.12-47.86a38.73,38.73,0,1,1-38.78,40.13A38.84,38.84,0,0,1,507.69,517.56Z"></path><path class="cls-11" d="M394.57,565.42a9.39,9.39,0,0,0,8,9.12L418,576.86a9.42,9.42,0,0,1,6.65,4.46l21.66,36a9.4,9.4,0,0,1,.8,8l-5.27,14.72a9.4,9.4,0,0,0,4.25,11.37l12.33,6.92a9.4,9.4,0,0,0,11.92-2.31l9.68-12a9.41,9.41,0,0,1,7.15-3.5l42.08-.73a9.41,9.41,0,0,1,7.36,3.38l10.17,12.1a9.42,9.42,0,0,0,12,2.09l12.2-7.14A9.42,9.42,0,0,0,575,638.83l-5.39-14.19a9.39,9.39,0,0,1,.57-7.9l21.4-38.52a9.32,9.32,0,0,1,6.48-4.68l15.24-2.88a9.39,9.39,0,0,0,7.66-9.41l-.27-14.11a9.4,9.4,0,0,0-8-9.12l-15.4-2.32a9.35,9.35,0,0,1-6.66-4.46l-21.65-36a9.4,9.4,0,0,1-.8-8l5.27-14.72a9.38,9.38,0,0,0-4.27-11.37l-12.32-6.9a9.38,9.38,0,0,0-11.91,2.28l-9.68,12a9.39,9.39,0,0,1-7.15,3.5l-42.08.72a9.42,9.42,0,0,1-7.38-3.35l-10.17-12.12a9.38,9.38,0,0,0-12-2.07l-12.19,7.13a9.41,9.41,0,0,0-4.06,11.45l5.38,14.19a9.42,9.42,0,0,1-.56,7.9l-21.4,38.54a9.44,9.44,0,0,1-6.47,4.68L402,541.9a9.41,9.41,0,0,0-7.66,9.41Zm113.12-47.86a38.73,38.73,0,1,1-38.78,40.13A38.84,38.84,0,0,1,507.69,517.56Z"></path><rect class="cls-13" width="1435" height="859"></rect></g></g></g></svg>