<svg xmlns="http://www.w3.org/2000/svg" viewBox="0 0 1623.21 1340"><defs><style>.cls-1{isolation:isolate;}.cls-2{fill:none;}.cls-3{fill:#24313e;stroke:#031439;}.cls-11,.cls-12,.cls-13,.cls-3,.cls-5,.cls-6,.cls-7,.cls-8{stroke-miterlimit:10;}.cls-11,.cls-12,.cls-13,.cls-3,.cls-5,.cls-6{stroke-width:2px;}.cls-4,.cls-9{mix-blend-mode:multiply;}.cls-10,.cls-4{opacity:0.21;}.cls-5{fill:#455666;}.cls-12,.cls-13,.cls-5{stroke:#24313e;}.cls-6{fill:#fdfdfd;}.cls-11,.cls-6,.cls-7,.cls-8{stroke:#000;}.cls-7{fill:#22a882;}.cls-8{fill:#28c397;}.cls-9{opacity:0.1;}.cls-10{fill:#ebf0f5;mix-blend-mode:overlay;}.cls-12{fill:#e7e9f2;}.cls-13{fill:#9caab8;}</style></defs><g class="cls-1"><g id="Layer_2" data-name="Layer 2"><g id="Layer_1-2" data-name="Layer 1"><rect class="cls-2" width="1623.21" height="1340"></rect><ellipse class="cls-3" cx="1088.21" cy="697.8" rx="457.12" ry="426.45" transform="translate(332.91 1746.92) rotate(-86.92)"></ellipse><path class="cls-4" d="M1514.74,697.8c-1.74,249.74-190.08,452.69-422.22,457,219.13-19.28,392.62-215.84,394.29-455.48,1.76-252.41-187.78-457-423.34-457-2.5,0-5,0-7.49.08q17.52-1.56,35.42-1.56C1327,240.76,1516.5,445.39,1514.74,697.8Z"></path><path class="cls-5" d="M1344.16,705.14a6.53,6.53,0,0,0,5.55,6.33l10.69,1.61a6.5,6.5,0,0,1,4.61,3.09l15,25a6.52,6.52,0,0,1,.55,5.56l-1.41,3.93h-14.69v18.82s30.21,1,32.21-1.45l6.72-8.3a6.54,6.54,0,0,1,5-2.43l18.76-.32V770l26.83-.22a6.49,6.49,0,0,0,4-.85l8.47-5a6.53,6.53,0,0,0,2.81-8l-3.74-9.84a6.54,6.54,0,0,1,.4-5.48L1480.8,714a6.46,6.46,0,0,1,4.5-3.25l10.57-2a6.51,6.51,0,0,0,5.31-6.53l-.18-9.78a6.52,6.52,0,0,0-5.55-6.33l-10.68-1.61a6.45,6.45,0,0,1-4.62-3.09l-15-25a6.55,6.55,0,0,1-.56-5.56l3.66-10.21a6.51,6.51,0,0,0-3-7.89l-8.55-4.79c-1.66-.93-29.58-.49-29.58-.49v13l-19.55.34a6.55,6.55,0,0,1-5.11-2.33l-7.06-8.41a6.5,6.5,0,0,0-6.37-2.17h-25.36v18.81h14.14l1.76,4.66a6.53,6.53,0,0,1-.39,5.48l-14.84,26.73a6.53,6.53,0,0,1-4.49,3.25l-10.57,2a6.51,6.51,0,0,0-5.32,6.52Zm78.46-33.2a26.87,26.87,0,1,1-26.89,27.84A27,27,0,0,1,1422.62,671.94Z"></path><path class="cls-6" d="M1324.11,704.14a6.53,6.53,0,0,0,5.55,6.33l10.69,1.61a6.5,6.5,0,0,1,4.61,3.09l15,25a6.52,6.52,0,0,1,.55,5.56l-3.66,10.21a6.53,6.53,0,0,0,3,7.89l8.55,4.8a6.52,6.52,0,0,0,8.26-1.6l6.72-8.3a6.54,6.54,0,0,1,5-2.43l29.19-.5a6.53,6.53,0,0,1,5.11,2.34l7,8.4A6.53,6.53,0,0,0,1438,768l8.47-5a6.53,6.53,0,0,0,2.81-8l-3.74-9.84a6.54,6.54,0,0,1,.4-5.48L1460.75,713a6.46,6.46,0,0,1,4.5-3.25l10.57-2a6.51,6.51,0,0,0,5.31-6.53l-.18-9.78a6.52,6.52,0,0,0-5.55-6.33l-10.68-1.61a6.49,6.49,0,0,1-4.63-3.09l-15-25a6.55,6.55,0,0,1-.56-5.56l3.66-10.21a6.51,6.51,0,0,0-3-7.89l-8.55-4.79a6.52,6.52,0,0,0-8.26,1.59l-6.71,8.3a6.5,6.5,0,0,1-5,2.42l-29.19.51a6.55,6.55,0,0,1-5.11-2.33l-7.06-8.41a6.52,6.52,0,0,0-8.29-1.43l-8.46,5a6.53,6.53,0,0,0-2.81,7.94l3.73,9.84a6.53,6.53,0,0,1-.39,5.48l-14.84,26.73a6.53,6.53,0,0,1-4.49,3.25l-10.57,2a6.51,6.51,0,0,0-5.32,6.52Zm78.46-33.2a26.87,26.87,0,1,1-26.89,27.84A27,27,0,0,1,1402.57,670.94Z"></path><path class="cls-5" d="M1366.36,547.14a8.94,8.94,0,0,0,7.61,8.68l14.66,2.21a8.93,8.93,0,0,1,6.32,4.24l20.62,34.26a9,9,0,0,1,.76,7.63l-1.94,5.38h-20.15v25.8s41.44,1.42,44.18-2l9.21-11.39a9,9,0,0,1,6.81-3.32l25.72-.45h0A17.79,17.79,0,0,0,1498.1,636l18.85-.16a8.85,8.85,0,0,0,5.57-1.16l11.61-6.79A9,9,0,0,0,1538,617l-5.13-13.5a8.93,8.93,0,0,1,.55-7.52l20.35-36.64a8.87,8.87,0,0,1,6.16-4.45l14.5-2.74a9,9,0,0,0,7.29-9l-.26-13.42a8.93,8.93,0,0,0-7.61-8.67l-14.64-2.21a8.89,8.89,0,0,1-6.34-4.24l-20.6-34.26a9,9,0,0,1-.76-7.63l5-14a8.93,8.93,0,0,0-4.07-10.82l-11.72-6.57c-2.28-1.27-40.57-.67-40.57-.67v17.79l-26.8.46a9,9,0,0,1-7-3.19l-9.68-11.53a8.91,8.91,0,0,0-8.74-3h-34.77V467h19.38l2.42,6.39a8.9,8.9,0,0,1-.53,7.51l-20.35,36.66a9,9,0,0,1-6.16,4.46l-14.5,2.72a9,9,0,0,0-7.29,9ZM1474,501.61a36.85,36.85,0,1,1-36.89,38.18A37,37,0,0,1,1474,501.61Z"></path><path class="cls-6" d="M1337.37,546.14a8.94,8.94,0,0,0,7.62,8.68l14.66,2.21a8.93,8.93,0,0,1,6.32,4.24l20.61,34.26a8.92,8.92,0,0,1,.76,7.63l-5,14a9,9,0,0,0,4,10.82l11.73,6.58a9,9,0,0,0,11.34-2.19l9.21-11.39a9,9,0,0,1,6.8-3.32l40-.7a9,9,0,0,1,7,3.21l9.67,11.52a8.94,8.94,0,0,0,11.37,2l11.62-6.79A9,9,0,0,0,1509,616l-5.13-13.5a9,9,0,0,1,.55-7.52l20.36-36.64a8.85,8.85,0,0,1,6.16-4.45l14.5-2.74a8.94,8.94,0,0,0,7.29-9l-.26-13.42a8.93,8.93,0,0,0-7.61-8.67l-14.65-2.21a8.91,8.91,0,0,1-6.34-4.24l-20.59-34.26a8.92,8.92,0,0,1-.76-7.63l5-14a8.94,8.94,0,0,0-4.06-10.82l-11.73-6.57a8.92,8.92,0,0,0-11.32,2.18l-9.21,11.39a9,9,0,0,1-6.8,3.32l-40,.69a9,9,0,0,1-7-3.19l-9.68-11.53a8.94,8.94,0,0,0-11.37-2l-11.6,6.79a8.94,8.94,0,0,0-3.85,10.89l5.11,13.5a8.94,8.94,0,0,1-.53,7.51l-20.36,36.66a9,9,0,0,1-6.16,4.46l-14.5,2.72a9,9,0,0,0-7.29,9ZM1445,500.61a36.85,36.85,0,1,1-36.89,38.18A37,37,0,0,1,1445,500.61Z"></path><path class="cls-5" d="M1326.57,375.18a7.33,7.33,0,0,0,6.24,7.11l12,1.81a7.34,7.34,0,0,1,5.18,3.47l16.88,28.06a7.32,7.32,0,0,1,.62,6.25l-1.58,4.42h-16.5v21.13s33.94,1.17,36.18-1.62l7.55-9.33a7.33,7.33,0,0,1,5.57-2.72l21.08-.37v14.69l30.13-.25a7.26,7.26,0,0,0,4.56-.95l9.51-5.56a7.34,7.34,0,0,0,3.16-8.93l-4.2-11.06a7.31,7.31,0,0,1,.45-6.16l16.67-30a7.29,7.29,0,0,1,5.05-3.65l11.87-2.25a7.32,7.32,0,0,0,6-7.33l-.21-11a7.33,7.33,0,0,0-6.24-7.11l-12-1.81a7.31,7.31,0,0,1-5.19-3.47l-16.87-28.07a7.31,7.31,0,0,1-.62-6.25l4.11-11.46a7.34,7.34,0,0,0-3.33-8.87l-9.61-5.38c-1.86-1-33.22-.55-33.22-.55v14.57l-22,.39a7.37,7.37,0,0,1-5.75-2.62l-7.93-9.45a7.31,7.31,0,0,0-7.16-2.44h-28.48v21.14h15.88l2,5.23A7.34,7.34,0,0,1,1366,321l-16.68,30a7.32,7.32,0,0,1-5,3.64l-11.87,2.24a7.31,7.31,0,0,0-6,7.33Zm88.15-37.3a30.19,30.19,0,1,1-30.21,31.28A30.28,30.28,0,0,1,1414.72,337.88Z"></path><path class="cls-6" d="M1303.56,374.18a7.31,7.31,0,0,0,6.23,7.11l12,1.81a7.32,7.32,0,0,1,5.18,3.47l16.89,28.06a7.35,7.35,0,0,1,.62,6.25l-4.11,11.47a7.35,7.35,0,0,0,3.31,8.87l9.61,5.39a7.34,7.34,0,0,0,9.29-1.8l7.54-9.33a7.35,7.35,0,0,1,5.58-2.72l32.79-.57a7.36,7.36,0,0,1,5.73,2.63l7.93,9.43a7.32,7.32,0,0,0,9.31,1.63l9.51-5.56a7.33,7.33,0,0,0,3.16-8.93l-4.2-11.06a7.35,7.35,0,0,1,.45-6.16l16.67-30a7.29,7.29,0,0,1,5-3.65l11.88-2.25a7.32,7.32,0,0,0,6-7.33l-.21-11a7.33,7.33,0,0,0-6.24-7.11l-12-1.81a7.33,7.33,0,0,1-5.2-3.47l-16.87-28.07a7.35,7.35,0,0,1-.62-6.25l4.11-11.46a7.34,7.34,0,0,0-3.33-8.87l-9.6-5.38a7.32,7.32,0,0,0-9.28,1.79l-7.54,9.33a7.33,7.33,0,0,1-5.58,2.72l-32.79.57a7.37,7.37,0,0,1-5.75-2.62l-7.92-9.45a7.33,7.33,0,0,0-9.32-1.61l-9.5,5.56a7.32,7.32,0,0,0-3.15,8.92l4.18,11.06a7.34,7.34,0,0,1-.43,6.16l-16.68,30a7.33,7.33,0,0,1-5,3.64l-11.88,2.24a7.32,7.32,0,0,0-6,7.33Zm88.14-37.3a30.19,30.19,0,1,1-30.21,31.28A30.28,30.28,0,0,1,1391.7,336.88Z"></path><path class="cls-5" d="M1250.81,968.34a8,8,0,0,0,6.77,7.72l13.05,2a8,8,0,0,1,5.63,3.77l18.35,30.5a8,8,0,0,1,.68,6.79l-1.73,4.79h-17.93v23s36.88,1.26,39.33-1.77l8.19-10.14a8,8,0,0,1,6.06-3l22.9-.41v16l32.75-.27a7.86,7.86,0,0,0,5-1l10.34-6a8,8,0,0,0,3.43-9.71l-4.56-12a8,8,0,0,1,.49-6.7l18.12-32.62a7.87,7.87,0,0,1,5.48-4l12.91-2.44a8,8,0,0,0,6.49-8l-.23-11.94a8,8,0,0,0-6.78-7.73l-13-2a7.94,7.94,0,0,1-5.64-3.78l-18.33-30.49a8,8,0,0,1-.68-6.8l4.47-12.46a8,8,0,0,0-3.62-9.63l-10.44-5.84c-2-1.14-36.11-.61-36.11-.61V889.4l-23.86.42A8,8,0,0,1,1322,887l-8.61-10.26a7.94,7.94,0,0,0-7.78-2.66h-31v23h17.26l2.16,5.69a8,8,0,0,1-.48,6.69L1275.47,942a8,8,0,0,1-5.48,4l-12.91,2.42a8,8,0,0,0-6.49,8Zm95.79-40.54a32.8,32.8,0,1,1-32.84,34A32.91,32.91,0,0,1,1346.6,927.8Z"></path><path class="cls-6" d="M1225.45,967.34a8,8,0,0,0,6.77,7.72l13,2a8,8,0,0,1,5.63,3.77l18.35,30.5a8,8,0,0,1,.68,6.79l-4.47,12.46a8,8,0,0,0,3.6,9.63l10.44,5.86a8,8,0,0,0,10.09-2l8.2-10.14a8,8,0,0,1,6.06-3l35.64-.62a8,8,0,0,1,6.23,2.86l8.61,10.25a8,8,0,0,0,10.12,1.76l10.34-6a8,8,0,0,0,3.43-9.71l-4.56-12a8,8,0,0,1,.49-6.7l18.11-32.61a7.89,7.89,0,0,1,5.49-4l12.91-2.44a8,8,0,0,0,6.49-8l-.23-11.94a8,8,0,0,0-6.78-7.73l-13-2a7.94,7.94,0,0,1-5.64-3.78l-18.33-30.49a8,8,0,0,1-.68-6.79l4.47-12.47a8,8,0,0,0-3.62-9.63l-10.44-5.84a8,8,0,0,0-10.08,1.93l-8.2,10.14a7.94,7.94,0,0,1-6.06,3l-35.63.62a8,8,0,0,1-6.25-2.85L1288,875.71a8,8,0,0,0-10.12-1.75l-10.33,6a8,8,0,0,0-3.43,9.69l4.55,12a8,8,0,0,1-.47,6.69L1250.11,941a8,8,0,0,1-5.48,4l-12.91,2.42a8,8,0,0,0-6.49,8Zm95.79-40.54a32.8,32.8,0,1,1-32.84,34A32.91,32.91,0,0,1,1321.24,926.8Z"></path><path class="cls-5" d="M1373.87,852.61a6.52,6.52,0,0,0,5.55,6.33l10.69,1.61a6.5,6.5,0,0,1,4.61,3.09l15,25a6.52,6.52,0,0,1,.55,5.56l-1.41,3.93H1394.2v18.82s30.22,1,32.22-1.45l6.71-8.3a6.53,6.53,0,0,1,5-2.42l18.76-.33V917.5l26.83-.22a6.4,6.4,0,0,0,4.06-.85l8.46-4.95a6.52,6.52,0,0,0,2.81-8l-3.74-9.84a6.57,6.57,0,0,1,.4-5.48l14.85-26.72a6.47,6.47,0,0,1,4.49-3.25l10.57-2a6.51,6.51,0,0,0,5.32-6.52l-.19-9.79a6.53,6.53,0,0,0-5.55-6.33L1514.48,832a6.47,6.47,0,0,1-4.62-3.09l-15-25a6.52,6.52,0,0,1-.55-5.56l3.65-10.21a6.51,6.51,0,0,0-3-7.89l-8.55-4.79c-1.66-.93-29.58-.49-29.58-.49v13l-19.54.34a6.52,6.52,0,0,1-5.12-2.33l-7.06-8.41a6.48,6.48,0,0,0-6.37-2.17H1393.4V794.2h14.14l1.77,4.65a6.53,6.53,0,0,1-.39,5.48l-14.84,26.73a6.54,6.54,0,0,1-4.5,3.25l-10.57,2a6.53,6.53,0,0,0-5.32,6.52Zm78.47-33.2a26.87,26.87,0,1,1-26.9,27.84A27,27,0,0,1,1452.34,819.41Z"></path><path class="cls-6" d="M1353.82,851.61a6.52,6.52,0,0,0,5.55,6.33l10.69,1.61a6.5,6.5,0,0,1,4.61,3.09l15,25a6.52,6.52,0,0,1,.55,5.56l-3.65,10.21a6.52,6.52,0,0,0,3,7.89l8.55,4.8a6.53,6.53,0,0,0,8.27-1.6l6.71-8.3a6.53,6.53,0,0,1,5-2.42l29.19-.51a6.53,6.53,0,0,1,5.11,2.34l7.05,8.4a6.54,6.54,0,0,0,8.3,1.44l8.46-4.95a6.52,6.52,0,0,0,2.81-8l-3.74-9.84a6.54,6.54,0,0,1,.4-5.48l14.85-26.72a6.47,6.47,0,0,1,4.49-3.25l10.57-2a6.51,6.51,0,0,0,5.32-6.52l-.19-9.79a6.53,6.53,0,0,0-5.55-6.33L1494.43,831a6.47,6.47,0,0,1-4.62-3.09l-15-25a6.52,6.52,0,0,1-.55-5.56l3.65-10.21a6.51,6.51,0,0,0-3-7.89l-8.55-4.79a6.52,6.52,0,0,0-8.26,1.59l-6.71,8.3a6.54,6.54,0,0,1-5,2.43l-29.19.5a6.52,6.52,0,0,1-5.12-2.33l-7.06-8.41a6.52,6.52,0,0,0-8.29-1.43l-8.45,5a6.51,6.51,0,0,0-2.81,7.94l3.72,9.84a6.49,6.49,0,0,1-.38,5.48L1374,830.06a6.5,6.5,0,0,1-4.49,3.25l-10.57,2a6.52,6.52,0,0,0-5.32,6.52Zm78.47-33.2a26.87,26.87,0,1,1-26.9,27.84A27,27,0,0,1,1432.29,818.41Z"></path><ellipse class="cls-4" cx="1106.84" cy="698.8" rx="346.76" ry="453.59"></ellipse><ellipse class="cls-7" cx="1024.13" cy="701.25" rx="346.76" ry="453.59"></ellipse><ellipse class="cls-8" cx="999.37" cy="696.46" rx="346.76" ry="453.59"></ellipse><rect class="cls-9" x="652.64" y="628.01" width="51.34" height="78.91"></rect><polygon class="cls-9" points="703.98 756.68 652.64 756.68 668.08 835.6 703.98 835.6 703.98 756.68"></polygon><path class="cls-10" d="M691.74,712.8c0,206.93,105.93,381.49,250.73,436C778,1113.25,652.61,926.41,652.61,701.25c0-250.51,155.25-453.59,346.76-453.59a271.64,271.64,0,0,1,96,17.62,269.58,269.58,0,0,0-56.89-6.07C847,259.21,691.74,462.29,691.74,712.8Z"></path><line class="cls-11" x1="999.37" y1="598.86" x2="924.42" y2="799.71"></line><polygon class="cls-11" points="930.92 820.04 922.43 820.04 984.39 578.52 1016.35 591.09 930.92 820.04"></polygon><path class="cls-11" d="M1043.84,781.13H1036c-.24,0-.37-.34-.23-.57l51.1-77.75c1.82-1.66,2.3-3,2.3-3.53s-.48-1.86-2.3-3.52l-50.28-76.52c-.48-.73,0-1.8.73-1.8h6.57l58.64,53.89a37.79,37.79,0,0,1,0,55.91Z"></path><path class="cls-11" d="M870.53,780.26l-49.22-53a37.79,37.79,0,0,1,0-55.91l50.16-53.89,19.4,19.64a6.75,6.75,0,0,1-.18,9.31L837,695.76c-1.81,1.66-2.29,3-2.29,3.52s.48,1.87,2.29,3.53l55.84,48.76a3.76,3.76,0,0,1,.19,5.2Z"></path><line class="cls-12" x1="990.89" y1="598.86" x2="915.94" y2="799.71"></line><path class="cls-12" d="M919.16,818.29l-17.7-9.47a3.23,3.23,0,0,1-1.51-4L983.09,582a3.25,3.25,0,0,1,4.58-1.73l17.7,9.46a3.26,3.26,0,0,1,1.51,4L923.73,816.56A3.24,3.24,0,0,1,919.16,818.29Z"></path><path class="cls-12" d="M1031.33,774.85l-8.79-13.72a6.27,6.27,0,0,1,1-8l54.76-50.32c1.82-1.66,2.29-3,2.29-3.53s-.47-1.86-2.29-3.52l-54.76-50.32a6.27,6.27,0,0,1-1-8l8.79-13.72a6.26,6.26,0,0,1,9.52-1.23L1094,671.33a37.81,37.81,0,0,1,0,55.91l-53.15,48.84A6.28,6.28,0,0,1,1031.33,774.85Z"></path><path class="cls-12" d="M874,777.23a3.89,3.89,0,0,1-5.91.76l-55.23-50.75a37.79,37.79,0,0,1,0-55.91l55.23-50.75a3.89,3.89,0,0,1,5.91.76l10.12,15.79a6.79,6.79,0,0,1-.92,8.38l-54.69,50.25c-1.81,1.66-2.29,3-2.29,3.52s.48,1.87,2.29,3.53l56.24,51.67a3.9,3.9,0,0,1,.65,5Z"></path><rect class="cls-5" x="676.12" y="628.01" width="20.25" height="71.27" rx="3.47"></rect><path class="cls-9" d="M1319.64,794.3l-47.3-5.89a13.91,13.91,0,0,1-12.19-13.8V619.94A13.91,13.91,0,0,1,1274.06,606h47.3a13.91,13.91,0,0,1,13.91,13.91V780.5A13.91,13.91,0,0,1,1319.64,794.3Z"></path><rect class="cls-5" x="1286.78" y="606.03" width="23.31" height="180.86"></rect><rect class="cls-13" x="1258.75" y="606.03" width="37.31" height="180.86"></rect><rect class="cls-10" x="1258.75" y="606.03" width="10.04" height="180.86"></rect><rect class="cls-13" x="633.82" y="628.01" width="42.3" height="71.27" rx="3.47"></rect><rect class="cls-5" x="676.12" y="756.69" width="20.25" height="71.27" rx="3.99"></rect><rect class="cls-13" x="633.82" y="756.69" width="42.3" height="71.27" rx="3.99"></rect><path class="cls-13" d="M1212.9,651.52h62c1.39,0,2.52,3.58,2.52,8s-1.13,8-2.52,8h-62Z"></path><path class="cls-13" d="M1212.9,719.11h62c1.39,0,2.52,3.58,2.52,8s-1.13,8-2.52,8h-62Z"></path><path class="cls-13" d="M1236.2,611.64V781.26c0,3.8-6.27,6.89-14,6.89a26.66,26.66,0,0,1-4.57-.38c-5.5-.93-9.45-3.5-9.45-6.51V611.64c0-3.79,6.28-6.87,14-6.87S1236.2,607.85,1236.2,611.64Z"></path><path class="cls-10" d="M1217,606V789c-5.5-.93-9.45-3.5-9.45-6.51v-167A9.45,9.45,0,0,1,1217,606Z"></path><path class="cls-10" d="M647.41,699.28H637.29a3.47,3.47,0,0,1-3.47-3.47V631.49a3.47,3.47,0,0,1,3.47-3.48h10.12a3.48,3.48,0,0,0-3.47,3.48v64.32A3.47,3.47,0,0,0,647.41,699.28Z"></path><path class="cls-10" d="M647.93,828H637.81a4,4,0,0,1-4-4V760.68a4,4,0,0,1,4-4h10.12a4,4,0,0,0-4,4V824A4,4,0,0,0,647.93,828Z"></path><rect class="cls-4" x="1235.61" y="650.93" width="8.34" height="16.6"></rect><rect class="cls-4" x="1235.61" y="718.52" width="8.34" height="16.6"></rect><path class="cls-9" d="M1274.89,667.53l35.2,33.72V682.52l-35.2-31S1277.56,660,1274.89,667.53Z"></path><path class="cls-9" d="M1274.89,734.53l35.2,33.72V749.52l-35.2-31S1277.56,727,1274.89,734.53Z"></path></g></g></g></svg>