<svg xmlns="http://www.w3.org/2000/svg" xmlns:xlink="http://www.w3.org/1999/xlink" width="470.745" height="263.048" viewBox="0 0 470.745 263.048"><defs><style>.a{fill:none;}.b{fill:#6b7e8f;}.c{fill:#24313e;}.d{fill:#9caab8;}.e{fill:#455666;}.f{fill:#d9dee5;}.g{fill:#0c7ff2;}.h{fill:#3ab2d0;}.i{fill:#ff603d;}.j{fill:#ebf0f5;}.k{fill:#28c397;}.l{fill:#fff;}.m{fill:#ff6c37;}.n{clip-path:url(#a);}.o{fill:#f4e969;}.p{fill:#031439;}.q{fill:#e7e9f2;}</style><clipPath id="a"><path class="a" d="M4050.2,6101.794h-76.729v-90.711H4050.2v90.711Z" transform="translate(-3973.468 -6011.083)"></path></clipPath></defs><g transform="translate(-372.741 -2865.349)"><g transform="translate(-2688.402 -2516.124)"><g transform="translate(3213.791 5408.736)"><path class="b" d="M3801.832,5569.282a53.879,53.879,0,1,1,15.781,38.1A53.711,53.711,0,0,1,3801.832,5569.282Z" transform="translate(-3801.419 -5514.989)"></path><path class="c" d="M3854.124,5621.988a53.938,53.938,0,1,1,20.788-4.106A54.209,54.209,0,0,1,3854.124,5621.988Zm0-107.759a53.527,53.527,0,1,0,37.789,15.678A53.3,53.3,0,0,0,3854.124,5514.229Z" transform="translate(-3799.832 -5513.402)"></path></g><g transform="translate(3219.961 5408.736)"><path class="d" d="M3831.693,5569.282a53.879,53.879,0,1,1,15.78,38.1A53.711,53.711,0,0,1,3831.693,5569.282Z" transform="translate(-3831.28 -5514.989)"></path><path class="c" d="M3883.985,5621.988a53.938,53.938,0,1,1,20.788-4.106A54.208,54.208,0,0,1,3883.985,5621.988Zm0-107.759a53.527,53.527,0,1,0,37.788,15.678A53.3,53.3,0,0,0,3883.985,5514.229Z" transform="translate(-3829.693 -5513.402)"></path></g><g transform="translate(3061.143 5608.465)"><path class="e" d="M3281.4,6485.372v-3.442h-11.517v3.442h-7.067v-3.442h-11.513v3.442h-7.066v-3.442h-11.517v3.442h-7.066v-3.442h-11.513v3.442h-7.066v-3.442h-11.517v3.442H3188.5v-3.442h-11.517v3.442h-7.066v-3.442H3158.4v3.442h-7.066v-3.442h-11.517v3.442h-7.067v-3.442H3121.24v3.442h-7.066v-3.442h-11.517v3.442h-24.037a15.893,15.893,0,0,0-15.02,10.683l-.222,4.455-.222,4.454h0a15.9,15.9,0,0,0,15.464,12.2h434.651a15.893,15.893,0,0,0,0-31.787h-9.057v-3.443H3492.7v3.443h-7.066v-3.443h-11.513v3.443h-7.067v-3.443h-11.513v3.443h-7.067v-3.443h-11.517v3.443h-7.066v-3.443h-11.513v3.442h-7.066v-3.442h-11.517v3.442h-7.066v-3.442h-11.513v3.442h-7.066v-3.442h-11.513v3.442h-7.066v-3.442h-11.517v3.442h-7.067v-3.442h-11.513v3.442H3318.4v-3.442h-11.517v3.442h-7.066v-3.442h-11.513v3.442h-6.9Z" transform="translate(-3062.739 -6481.516)"></path><path class="c" d="M3511.673,6515.986h-434.65a16.244,16.244,0,0,1-15.866-12.512l-.007-.029-.007-.029v-.059l.224-4.484.223-4.484.01-.028.01-.028a16.154,16.154,0,0,1,1.585-3.3,16.245,16.245,0,0,1,13.826-7.657h23.624v-3.442h12.343v3.442h6.24v-3.442h12.34v3.442h6.24v-3.442h12.344v3.442h6.24v-3.442h12.34v3.442h6.24v-3.442h12.344v3.442h6.236v-3.442H3205.9v3.442h6.24v-3.442h12.34v3.441h6.24v-3.441h12.344v3.441h6.24v-3.441h12.34v3.441h6.24v-3.441h12.344v3.441h6.075v-3.441h12.34v3.441h6.24v-3.441h12.344v3.441h6.24v-3.441h12.34v3.441h6.239v-3.441h12.344v3.441h6.24v-3.441h12.339v3.441h6.24v-3.441h12.34v3.441h6.24v-3.441h12.344v3.441h6.24v-3.441H3428.7v3.441h6.24v-3.441h12.344v3.441h6.24v-3.441h12.34v3.441h6.24v-3.441h12.34v3.441h6.24v-3.441h12.344v3.441h8.643a16.307,16.307,0,1,1,0,32.614Zm-449.7-12.647a15.418,15.418,0,0,0,15.048,11.821h434.65a15.48,15.48,0,0,0,0-30.96h-9.47v-3.443h-10.69v3.443h-7.893v-3.443h-10.687v3.443h-7.893v-3.443h-10.687v3.443h-7.893v-3.443h-10.69v3.443h-7.893v-3.443h-10.686v3.443H3409.3v-3.443h-10.691v3.443h-7.893v-3.443h-10.687v3.443h-7.893v-3.443h-10.686v3.443h-7.893v-3.443h-10.691v3.443h-7.893v-3.443h-10.687v3.443h-7.893v-3.443H3305.7v3.443h-7.893v-3.443h-10.687v3.443h-7.728v-3.443H3268.7v3.443h-7.893v-3.443h-10.687v3.443h-7.893v-3.443h-10.69v3.443h-7.893v-3.443h-10.687v3.443h-7.893v-3.443h-10.691v3.443h-7.889v-3.443H3175.8v3.443h-7.893v-3.443h-10.686v3.443h-7.893v-3.443h-10.691v3.443h-7.893v-3.443h-10.687v3.443h-7.893v-3.443h-10.69v3.443h-24.451a15.5,15.5,0,0,0-14.61,10.349l-.219,4.4Z" transform="translate(-3061.143 -6479.93)"></path></g><g transform="translate(3081.188 5608.465)"><path class="d" d="M3362.264,6485.372v-3.442h-11.517v3.442h-7.066v-3.442h-11.513v3.442H3325.1v-3.442h-11.517v3.442h-7.067v-3.442H3295v3.442h-7.066v-3.442h-11.517v3.442h-7.063v-3.442h-11.516v3.442h-7.067v-3.442h-11.513v3.442H3232.2v-3.442h-11.517v3.442h-7.066v-3.442H3202.1v3.442h-7.067v-3.442h-11.517v3.442h-7.9a15.9,15.9,0,0,0-15.02,10.683h-.221l-.111,4.455-.111,4.454h0a15.9,15.9,0,0,0,15.463,12.2h418.517a15.893,15.893,0,0,0,0-31.787h-9.057v-3.443h-11.517v3.443h-7.067v-3.443h-11.513v3.443h-7.066v-3.443H3536.4v3.443h-7.066v-3.443h-11.517v3.443h-7.066v-3.443h-11.513v3.443h-7.066v-3.442H3480.65v3.442h-7.066v-3.442h-11.513v3.442H3455v-3.442h-11.514v3.442h-7.066v-3.442h-11.517v3.442h-7.067v-3.442h-11.513v3.442h-7.066v-3.442h-11.517v3.442h-7.067v-3.442h-11.513v3.442h-6.9Z" transform="translate(-3159.734 -6481.516)"></path><path class="c" d="M3592.538,6515.986H3174.02a16.243,16.243,0,0,1-15.865-12.512l-.007-.027-.006-.026v-.054l.116-4.656.116-4.655h.333a16.222,16.222,0,0,1,1.565-3.152,16.245,16.245,0,0,1,13.746-7.531h7.491v-3.442h12.344v3.442h6.239v-3.442h12.34v3.442h6.24v-3.442h12.344v3.442h6.24v-3.442h12.34v3.442h6.24v-3.442h12.344v3.442h6.236v-3.442h12.344v3.442H3293v-3.441h12.34v3.441h6.24v-3.441h12.344v3.441h6.24v-3.441h12.34v3.441h6.24v-3.441h12.344v3.441h6.075v-3.441h12.34v3.441h6.24v-3.441h12.344v3.441h6.24v-3.441h12.34v3.441h6.24v-3.441h12.343v3.441h6.24v-3.441h12.34v3.441h6.24v-3.441h12.34v3.441h6.24v-3.441h12.344v3.441h6.24v-3.441h12.34v3.441h6.24v-3.441h12.344v3.441h6.24v-3.441h12.34v3.441h6.24v-3.441h12.34v3.441h6.24v-3.441h12.344v3.441h8.644a16.307,16.307,0,1,1,0,32.614Zm-433.566-12.652a15.421,15.421,0,0,0,15.049,11.826h418.518a15.48,15.48,0,0,0,0-30.96h-9.47v-3.443h-10.69v3.443h-7.893v-3.443H3553.8v3.443h-7.893v-3.443h-10.687v3.443h-7.893v-3.443h-10.69v3.443h-7.893v-3.443h-10.687v3.443h-7.893v-3.443h-10.69v3.443h-7.893v-3.443h-10.687v3.443H3453v-3.443h-10.687v3.443h-7.893v-3.443h-10.69v3.443h-7.893v-3.443H3405.15v3.443h-7.893v-3.443h-10.691v3.443h-7.893v-3.443h-10.687v3.443h-7.728v-3.443h-10.69v3.443h-7.893v-3.443H3330.99v3.443H3323.1v-3.443h-10.691v3.443h-7.893v-3.443h-10.686v3.443h-7.893v-3.443h-10.691v3.443h-7.889v-3.443h-10.69v3.443h-7.893v-3.443h-10.687v3.443h-7.893v-3.443H3219.5v3.443h-7.893v-3.443h-10.687v3.443h-7.893v-3.443h-10.691v3.443h-8.318a15.476,15.476,0,0,0-13.124,7.269,15.311,15.311,0,0,0-1.5,3.135l-.048.139-.048.14h-.112l-.106,4.226Z" transform="translate(-3158.143 -6479.93)"></path></g><g transform="translate(3102.134 5623.702)"><path class="f" d="M3264.109,6566.083h413.485a2.6,2.6,0,0,0,2.6-2.6v-5.214a2.6,2.6,0,0,0-2.6-2.6H3264.109a2.6,2.6,0,0,0-2.6,2.6v5.213a2.6,2.6,0,0,0,2.6,2.6Z" transform="translate(-3261.092 -6555.249)"></path><path class="c" d="M3676.007,6564.909H3262.522a3.02,3.02,0,0,1-3.017-3.018v-5.212a3.019,3.019,0,0,1,3.017-3.017h413.485a3.021,3.021,0,0,1,3.017,3.017v5.214a3.02,3.02,0,0,1-3.017,3.016Zm-413.485-10.421a2.194,2.194,0,0,0-2.19,2.191v5.212a2.193,2.193,0,0,0,2.19,2.191h413.485a2.192,2.192,0,0,0,2.191-2.189v-5.214a2.195,2.195,0,0,0-2.191-2.191H3262.522Z" transform="translate(-3259.505 -6553.662)"></path></g><g transform="translate(3245.735 5381.473)"><g transform="translate(6.757 27.39)"><path class="e" d="M4029.906,5514.018a16.833,16.833,0,0,1-5.969,12.649,22.453,22.453,0,0,1-28.832.018,16.809,16.809,0,0,1-5.986-12.667" transform="translate(-3988.706 -5514.018)"></path><path class="c" d="M4007.942,5532.328a22.273,22.273,0,0,1-14.717-5.369,17.228,17.228,0,0,1-6.106-12.941h.827a16.41,16.41,0,0,0,5.864,12.356,22.01,22.01,0,0,0,28.243,0,16.421,16.421,0,0,0,5.854-12.356h.827a17.24,17.24,0,0,1-6.1,12.941A22.217,22.217,0,0,1,4007.942,5532.328Z" transform="translate(-3987.118 -5514.018)"></path></g><g transform="translate(8.714 32.949)"><path class="c" d="M3999.085,5545.823l8.535,8.428,8.536,8.427a1.723,1.723,0,0,0,2.415,0l8.332-8.427,8.333-8.428a1.7,1.7,0,0,0,0-2.41l0,0,0,0a1.731,1.731,0,0,0-1.209-.486h-33.738a1.719,1.719,0,0,0-1.7,1.723,1.68,1.68,0,0,0,.5,1.178Z" transform="translate(-3998.176 -5542.508)"></path><path class="c" d="M4015.775,5561.993a2.147,2.147,0,0,1-.8-.151,2.1,2.1,0,0,1-.7-.455l-8.536-8.428-8.537-8.43a2.081,2.081,0,0,1-.619-1.467,2.139,2.139,0,0,1,2.109-2.141h33.746a2.094,2.094,0,0,1,1.96,1.3,2.1,2.1,0,0,1,.16.812,2.092,2.092,0,0,1-.622,1.5l-8.332,8.428-8.332,8.427a2.126,2.126,0,0,1-.7.458A2.168,2.168,0,0,1,4015.775,5561.993Zm-17.985-18.05,8.535,8.427,8.535,8.427a1.315,1.315,0,0,0,1.835,0l8.33-8.426,8.33-8.426a1.275,1.275,0,0,0-.417-2.1,1.328,1.328,0,0,0-.5-.1H3998.7a1.309,1.309,0,0,0-1.287,1.309,1.264,1.264,0,0,0,.375.887Z" transform="translate(-3996.589 -5540.922)"></path></g><g transform="translate(24.736 34.466)"><path class="e" d="M4085.229,5580.1l-4.138-4.138-4.138-4.138,10.576-10.55,10.576-10.55a1.607,1.607,0,0,1,2.232,0h0l3,3,3,3a1.611,1.611,0,0,1,0,2.239h0l-10.557,10.565Z" transform="translate(-4076.368 -5549.854)"></path><path class="c" d="M4082.983,5579.085l-4.43-4.43-4.431-4.43,10.722-10.7,10.723-10.7a2.014,2.014,0,0,1,2.812,0l3.005,3,3.006,3.005a2.019,2.019,0,0,1,0,2.819l-10.706,10.714Zm-7.691-8.859,3.845,3.845,3.845,3.845,10.412-10.418,10.412-10.419a1.182,1.182,0,0,0,.333-.828,1.2,1.2,0,0,0-.339-.833l-3-3-3-3a1.18,1.18,0,0,0-.825-.333,1.2,1.2,0,0,0-.828.338l-10.427,10.4Z" transform="translate(-4074.123 -5548.259)"></path></g><g transform="translate(0 34.607)"><path class="e" d="M3986.482,5572.1l-4.066,4.2-4.066,4.2-10.742-10.39-10.742-10.389a1.621,1.621,0,0,1,0-2.24h0l2.954-3.054,2.955-3.055a1.593,1.593,0,0,1,2.239,0h0l10.733,10.36Z" transform="translate(-3956.005 -5550.515)"></path><path class="c" d="M3976.775,5579.523l-10.891-10.533-10.89-10.533a2.035,2.035,0,0,1-.012-2.822l2.955-3.055,2.956-3.055a2.014,2.014,0,0,1,2.827-.007l10.881,10.5,10.881,10.5-4.353,4.5Zm-14.467-29.756a1.172,1.172,0,0,0-.441.085,1.148,1.148,0,0,0-.387.254l-2.951,3.05-2.951,3.051a1.206,1.206,0,0,0,0,1.667l10.588,10.24,10.588,10.241,3.778-3.906,3.778-3.906-10.585-10.217-10.585-10.217a1.188,1.188,0,0,0-.834-.342Z" transform="translate(-3954.419 -5548.942)"></path></g><g transform="translate(5.926 4.806)"><path class="g" d="M3985.1,5427.229h0a24.91,24.91,0,0,1,4.6-13.474c2.839-4.05,6.754-7.024,11.06-7.024h11c4.306,0,8.221,2.975,11.06,7.024a24.91,24.91,0,0,1,4.6,13.474h0" transform="translate(-3984.683 -5406.317)"></path><path class="c" d="M4026.244,5425.644h-.827a24.147,24.147,0,0,0-4.6-13.363c-2.8-3.915-6.615-6.723-10.649-6.723h-11c-4.034,0-7.846,2.808-10.649,6.723a24.144,24.144,0,0,0-4.6,13.363h-.827a21.95,21.95,0,0,1,1.256-6.941,27.258,27.258,0,0,1,3.419-6.77,19.379,19.379,0,0,1,5.383-5.342,11.229,11.229,0,0,1,6.015-1.859h11a11.232,11.232,0,0,1,6.015,1.859,19.381,19.381,0,0,1,5.383,5.342,27.224,27.224,0,0,1,3.419,6.77A21.949,21.949,0,0,1,4026.244,5425.644Z" transform="translate(-3983.096 -5404.732)"></path></g><g transform="translate(10.777 22.538)"><path class="g" d="M4016.469,5492.536a7.9,7.9,0,1,1-5.586,2.314A7.876,7.876,0,0,1,4016.469,5492.536Z" transform="translate(-4008.156 -5492.123)"></path><path class="c" d="M4014.883,5507.163a8.321,8.321,0,1,1,5.876-2.437A8.288,8.288,0,0,1,4014.883,5507.163Zm0-15.8a7.494,7.494,0,1,0,5.292,2.195A7.465,7.465,0,0,0,4014.883,5491.363Z" transform="translate(-4006.569 -5490.536)"></path></g><g transform="translate(14.641 26.402)"><path class="h" d="M4031.307,5511.238a4.034,4.034,0,1,1-2.853,1.182A4.027,4.027,0,0,1,4031.307,5511.238Z" transform="translate(-4026.859 -5510.824)"></path><path class="c" d="M4029.72,5518.135a4.454,4.454,0,1,1,3.145-1.3A4.436,4.436,0,0,1,4029.72,5518.135Zm0-8.07a3.625,3.625,0,1,0,2.56,1.062A3.611,3.611,0,0,0,4029.72,5510.065Z" transform="translate(-4025.271 -5509.238)"></path></g><g transform="translate(28.091 22.538)"><path class="g" d="M4100.257,5492.536a7.9,7.9,0,1,1-5.586,2.314A7.878,7.878,0,0,1,4100.257,5492.536Z" transform="translate(-4091.943 -5492.123)"></path><path class="c" d="M4098.67,5507.163a8.323,8.323,0,1,1,5.875-2.437A8.29,8.29,0,0,1,4098.67,5507.163Zm0-15.8a7.494,7.494,0,1,0,5.292,2.195A7.463,7.463,0,0,0,4098.67,5491.363Z" transform="translate(-4090.357 -5490.536)"></path></g><g transform="translate(31.956 26.402)"><path class="h" d="M4115.094,5511.238a4.034,4.034,0,1,1-2.854,1.182A4.028,4.028,0,0,1,4115.094,5511.238Z" transform="translate(-4110.646 -5510.824)"></path><path class="c" d="M4113.508,5518.135a4.454,4.454,0,1,1,3.145-1.3A4.435,4.435,0,0,1,4113.508,5518.135Zm0-8.07a3.626,3.626,0,1,0,2.56,1.062A3.61,3.61,0,0,0,4113.508,5510.065Z" transform="translate(-4109.059 -5509.238)"></path></g><g transform="translate(4.183 21.47)"><path class="g" d="M3979.829,5487.371h39.486a3.158,3.158,0,0,1,3.167,3.144v.028h0a3.167,3.167,0,0,1-3.167,3.162h-39.486a3.162,3.162,0,0,1-3.167-3.157v0h0a3.162,3.162,0,0,1,3.157-3.167h.01v0Z" transform="translate(-3976.249 -5486.957)"></path><path class="c" d="M3978.237,5492.532a3.578,3.578,0,0,1-.408-7.133v-.023l.207,0,.207,0h39.5a3.575,3.575,0,0,1,3.57,3.556v.03a3.586,3.586,0,0,1-3.58,3.575h-39.493Zm.005-6.33a2.751,2.751,0,0,0,0,5.5h39.492a2.757,2.757,0,0,0,2.753-2.75v-.028a2.748,2.748,0,0,0-2.744-2.73h-39.083v0h-.413Z" transform="translate(-3974.662 -5485.371)"></path></g><g transform="translate(11.928 9.832)"><path class="b" d="M4014.723,5433.5l.23-.362.231-.361a3.753,3.753,0,0,1,5.183-1.144h0a3.752,3.752,0,0,1,1.143,5.183l-.231.362-.231.362a3.753,3.753,0,0,1-5.183,1.144h0a3.752,3.752,0,0,1-1.143-5.183Z" transform="translate(-4013.721 -5430.633)"></path><path class="c" d="M4016.3,5438.108a4.1,4.1,0,0,1-1.158-.165,4.171,4.171,0,0,1-2.345-6.245l.231-.362.23-.362a4.166,4.166,0,1,1,7.022,4.484l-.231.362-.231.362a4.135,4.135,0,0,1-2.614,1.826,4.242,4.242,0,0,1-.454.075A4.139,4.139,0,0,1,4016.3,5438.108Zm.476-8.23a3.366,3.366,0,0,0-1.585.4,3.326,3.326,0,0,0-1.235,1.145l-.231.362-.231.362a3.339,3.339,0,1,0,5.629,3.594l.231-.362.231-.362a3.335,3.335,0,0,0-2.809-5.136Z" transform="translate(-4012.141 -5429.052)"></path></g><g transform="translate(34.501 9.814)"><path class="b" d="M4125.121,5431.568h0a3.736,3.736,0,0,1,5.165,1.118l.01.015.01.015.233.358.233.357a3.738,3.738,0,0,1-1.105,5.167l-.017.011-.017.011h0a3.759,3.759,0,0,1-5.185-1.149l-.234-.357-.233-.357a3.737,3.737,0,0,1,1.106-5.167l.017-.011Z" transform="translate(-4122.966 -5430.557)"></path><path class="c" d="M4126.034,5438.026a4.2,4.2,0,0,1-1.981-.5,4.137,4.137,0,0,1-1.543-1.428l-.232-.355-.233-.355a4.142,4.142,0,0,1,1.228-5.741l.018-.011.017-.011a4.143,4.143,0,0,1,5.736,1.241l.011.018.011.018.232.354.231.354a4.142,4.142,0,0,1-1.227,5.74l-.019.013-.019.012a4.155,4.155,0,0,1-2.229.648Zm-.487-8.233a3.283,3.283,0,0,0-.93.134,3.324,3.324,0,0,0-.863.4l-.013.007-.012.008a3.35,3.35,0,0,0-.939.908,3.316,3.316,0,0,0-.053,3.694l.233.357.232.356a3.354,3.354,0,0,0,4.617,1.026l.016-.01.015-.009a3.318,3.318,0,0,0,.984-4.6l-.244-.373-.243-.373a3.3,3.3,0,0,0-2.091-1.45,3.375,3.375,0,0,0-.71-.076Z" transform="translate(-4121.375 -5428.966)"></path></g><g transform="translate(6.918)"><path class="e" d="M3991.688,5383.735h0a3,3,0,0,1,3.956,1.528l2.16,4.882,2.16,4.881a3,3,0,0,1-1.528,3.956h0a3,3,0,0,1-3.956-1.529l-2.16-4.881-2.16-4.882a3,3,0,0,1,1.529-3.956Z" transform="translate(-3989.488 -5383.064)"></path><path class="c" d="M3995.632,5398.063a3.4,3.4,0,0,1-3.121-2.034l-2.16-4.881-2.16-4.882a3.407,3.407,0,0,1,1.739-4.5h0a3.406,3.406,0,0,1,4.5,1.74l2.16,4.881,2.161,4.882a3.417,3.417,0,0,1-1.74,4.5,3.471,3.471,0,0,1-.68.22A3.41,3.41,0,0,1,3995.632,5398.063Zm-4.325-15.763a2.554,2.554,0,0,0-.525.055,2.594,2.594,0,0,0-.518.167h0a2.581,2.581,0,0,0-1.318,3.41l2.16,4.882,2.16,4.881A2.585,2.585,0,0,0,3998,5393.6l-2.16-4.882-2.16-4.881a2.568,2.568,0,0,0-.972-1.131A2.6,2.6,0,0,0,3991.307,5382.3Z" transform="translate(-3987.897 -5381.473)"></path></g><g transform="translate(10.681 7.949)"><path class="b" d="M4011.8,5421.94a3.689,3.689,0,1,1-2.609,1.081A3.679,3.679,0,0,1,4011.8,5421.94Z" transform="translate(-4007.693 -5421.526)"></path><path class="c" d="M4010.209,5428.146a4.109,4.109,0,1,1,2.9-1.2A4.094,4.094,0,0,1,4010.209,5428.146Zm0-7.38a3.281,3.281,0,1,0,2.316.961A3.266,3.266,0,0,0,4010.209,5420.767Z" transform="translate(-4006.106 -5419.94)"></path></g><g transform="translate(36.307 0.013)"><path class="e" d="M4132.369,5395.092l2.162-4.883,2.163-4.882a2.994,2.994,0,0,1,3.949-1.529h0a2.994,2.994,0,0,1,1.529,3.948h0l-2.16,4.886-2.16,4.885a3,3,0,0,1-3.953,1.533h-.006a3,3,0,0,1-1.527-3.956h0Z" transform="translate(-4131.698 -5383.127)"></path><path class="c" d="M4133.527,5398.133a3.368,3.368,0,0,1-.7-.073,3.45,3.45,0,0,1-.678-.219,3.426,3.426,0,0,1-1.745-4.5l.024-.052.025-.052,2.14-4.833,2.14-4.833a3.4,3.4,0,0,1,4.476-1.748l.019.009.019.009a3.334,3.334,0,0,1,1.074.755,3.4,3.4,0,0,1,.648,3.729l-.005.01,0,.011-2.156,4.876-2.155,4.877a3.425,3.425,0,0,1-2.5,1.978A3.348,3.348,0,0,1,4133.527,5398.133Zm-2.406-4.364a2.586,2.586,0,0,0,4.772,1.994l2.165-4.9,2.165-4.9a2.529,2.529,0,0,0,.214-.967,2.577,2.577,0,0,0-1.523-2.411l-.018-.008-.019-.009a2.52,2.52,0,0,0-.967-.212,2.574,2.574,0,0,0-2.418,1.539l-2.185,4.934Z" transform="translate(-4130.116 -5381.538)"></path></g><g transform="translate(35.491 8.935)"><path class="b" d="M4131.855,5426.712a3.688,3.688,0,1,1-2.609,1.08A3.681,3.681,0,0,1,4131.855,5426.712Z" transform="translate(-4127.751 -5426.298)"></path><path class="c" d="M4130.268,5432.918a4.109,4.109,0,1,1,2.9-1.2A4.093,4.093,0,0,1,4130.268,5432.918Zm0-7.38a3.279,3.279,0,1,0,2.316.96A3.269,3.269,0,0,0,4130.268,5425.538Z" transform="translate(-4126.165 -5424.711)"></path></g><g transform="translate(24.534 39.785)"><path class="g" d="M4099.2,5576.588a2.131,2.131,0,0,1,0,3l-10.173,10.166-10.172,10.166a2.127,2.127,0,1,1-3.162-2.845l.048-.049.049-.048h.057l10.167-10.168,10.167-10.167a2.143,2.143,0,0,1,3.018-.057v0Z" transform="translate(-4074.733 -5575.579)"></path><path class="c" d="M4075.685,5599.455a2.565,2.565,0,0,1-.895-.161,2.539,2.539,0,0,1-.993-4.077l.117-.117.117-.117h.057l10.107-10.106,10.107-10.107a2.559,2.559,0,0,1,3.6-.063l.06.057.06.057v.018a2.551,2.551,0,0,1-.111,3.46l-10.169,10.163-10.169,10.163a2.521,2.521,0,0,1-.869.622A2.546,2.546,0,0,1,4075.685,5599.455Zm-1.308-3.645a1.714,1.714,0,0,0,2.583,2.252l.007-.009.008-.007,10.172-10.166,10.172-10.166a1.721,1.721,0,0,0,0-2.415l-.02-.02-.019-.02a1.732,1.732,0,0,0-2.389.089l-10.23,10.23-10.23,10.231h-.053Z" transform="translate(-4073.146 -5573.999)"></path></g><g transform="translate(5.778 40.47)"><path class="g" d="M4008.322,5603.236h0a2.133,2.133,0,0,1-3.007,0l-10.161-10.166-10.161-10.165a2.115,2.115,0,0,1,0-2.991h0a2.13,2.13,0,0,1,3,0l10.165,10.167,10.165,10.167a2.12,2.12,0,0,1,.014,3l-.007.007-.007.006a.024.024,0,0,0,.006-.008A.012.012,0,0,0,4008.322,5603.236Z" transform="translate(-3983.961 -5578.885)"></path><path class="c" d="M4005.237,5602.694a2.558,2.558,0,0,1-.956-.184,2.525,2.525,0,0,1-.839-.553l-10.161-10.165-10.161-10.167a2.531,2.531,0,0,1,0-3.576,2.554,2.554,0,0,1,3.584,0l10.166,10.168,10.166,10.169a2.528,2.528,0,0,1,.141,3.445v.011l-.062.061-.062.061,0,0v0l-.013.012-.013.012-.005-.005-.006-.006a2.521,2.521,0,0,1-.831.537A2.562,2.562,0,0,1,4005.237,5602.694Zm-20.325-24.556a1.716,1.716,0,0,0-1.209.5,1.705,1.705,0,0,0,0,2.408l10.161,10.165,10.161,10.165a1.726,1.726,0,0,0,2.424,0l.074-.074.075-.075a1.721,1.721,0,0,0,.351-1.153,1.7,1.7,0,0,0-.5-1.1l-10.166-10.167-10.165-10.169a1.717,1.717,0,0,0-1.207-.494Z" transform="translate(-3982.379 -5577.313)"></path></g><g transform="translate(17.258 48.555)"><path class="g" d="M4050.234,5618.44a10.3,10.3,0,1,1-7.286,3.018A10.274,10.274,0,0,1,4050.234,5618.44Z" transform="translate(-4039.517 -5618.026)"></path><path class="c" d="M4048.648,5637.874a10.729,10.729,0,1,1,7.574-3.143A10.686,10.686,0,0,1,4048.648,5637.874Zm0-20.606a9.9,9.9,0,1,0,6.99,2.9A9.859,9.859,0,0,0,4048.648,5617.267Z" transform="translate(-4037.931 -5616.44)"></path></g><g transform="translate(22.293 53.591)"><path class="g" d="M4069.567,5642.809a5.268,5.268,0,1,1-3.725,1.543A5.252,5.252,0,0,1,4069.567,5642.809Z" transform="translate(-4063.886 -5642.396)"></path><path class="c" d="M4067.981,5652.17A5.686,5.686,0,1,1,4072,5650.5,5.666,5.666,0,0,1,4067.981,5652.17Zm0-10.535a4.86,4.86,0,1,0,3.431,1.423A4.843,4.843,0,0,0,4067.981,5641.635Z" transform="translate(-4062.3 -5640.809)"></path></g></g><g transform="translate(3343.287 5562.069)"><path class="i" d="M4462.994,6270.606v27.476a4.394,4.394,0,0,1-4.4,4.4h-25.71a4.394,4.394,0,0,1-4.4-4.4v-36.27a4.4,4.4,0,0,1,4.4-4.4h17.66a1.987,1.987,0,0,1,1.447.624l2.515,2.671,2.516,2.67,2.719,2.939,2.719,2.94a1.993,1.993,0,0,1,.529,1.349Z" transform="translate(-4428.076 -6256.999)"></path><path class="c" d="M4457.01,6301.305H4431.3a4.815,4.815,0,0,1-4.81-4.81v-36.27a4.817,4.817,0,0,1,4.813-4.813h17.661a2.41,2.41,0,0,1,1.748.754l2.515,2.67,2.515,2.671,2.719,2.941,2.721,2.94a2.394,2.394,0,0,1,.639,1.631V6296.5a4.816,4.816,0,0,1-4.81,4.81Zm-25.707-45.067a3.993,3.993,0,0,0-3.987,3.987v36.27a3.989,3.989,0,0,0,3.983,3.984h25.71a3.99,3.99,0,0,0,3.983-3.984v-27.475a1.57,1.57,0,0,0-.418-1.07l-2.719-2.939-2.72-2.94-2.514-2.669-2.513-2.669a1.58,1.58,0,0,0-1.146-.5H4431.3Z" transform="translate(-4426.49 -6255.412)"></path></g><g transform="translate(3340.311 5562.069)"><path class="i" d="M4448.592,6270.606v27.476a4.394,4.394,0,0,1-4.4,4.4h-25.71a4.394,4.394,0,0,1-4.4-4.4v-36.27a4.4,4.4,0,0,1,4.4-4.4h17.66a1.987,1.987,0,0,1,1.447.624l2.515,2.671,2.515,2.67,2.719,2.939,2.719,2.94a1.988,1.988,0,0,1,.392.625A1.967,1.967,0,0,1,4448.592,6270.606Z" transform="translate(-4413.675 -6256.999)"></path><path class="c" d="M4442.609,6301.305H4416.9a4.815,4.815,0,0,1-4.81-4.81v-36.27a4.817,4.817,0,0,1,4.813-4.813h17.661a2.41,2.41,0,0,1,1.748.754l2.515,2.67,2.515,2.671,2.72,2.941,2.72,2.94a2.394,2.394,0,0,1,.639,1.631V6296.5a4.816,4.816,0,0,1-4.81,4.81Zm-25.707-45.067a3.993,3.993,0,0,0-3.987,3.987v36.27a3.989,3.989,0,0,0,3.983,3.984h25.71a3.988,3.988,0,0,0,3.983-3.984v-27.475a1.56,1.56,0,0,0-.418-1.07l-2.719-2.939-2.718-2.94-2.514-2.669-2.514-2.669a1.58,1.58,0,0,0-1.146-.5H4416.9Z" transform="translate(-4412.089 -6255.412)"></path></g><g transform="translate(3364.885 5562.505)"><path class="j" d="M4544.622,6272.6h-10.937a.678.678,0,0,1-.677-.678v-11.723a.678.678,0,0,1,1.171-.465l2.607,2.768,2.606,2.769,2.864,3.1,2.864,3.1a.678.678,0,0,1-.5,1.139Z" transform="translate(-4532.594 -6259.102)"></path><path class="c" d="M4543.036,6271.424H4532.1a1.092,1.092,0,0,1-1.091-1.091V6258.61a1.09,1.09,0,0,1,1.885-.749l2.607,2.769,2.607,2.768,2.865,3.1,2.865,3.1a1.089,1.089,0,0,1-.8,1.832Zm-10.931-13.081a.283.283,0,0,0-.061.007.342.342,0,0,0-.043.013.292.292,0,0,0-.1.07.252.252,0,0,0-.064.176v11.723a.266.266,0,0,0,.265.265h10.937a.249.249,0,0,0,.171-.062.275.275,0,0,0,.071-.1.289.289,0,0,0,.023-.118.25.25,0,0,0-.071-.168l-2.864-3.1-2.863-3.1-2.605-2.767-2.606-2.767a.27.27,0,0,0-.1-.067A.245.245,0,0,0,4532.1,6258.344Z" transform="translate(-4531.008 -6257.518)"></path></g><g transform="translate(3391.371 5562.069)"><path class="h" d="M4695.683,6270.606v27.476a4.394,4.394,0,0,1-4.4,4.4h-25.711a4.394,4.394,0,0,1-4.4-4.4v-36.27a4.4,4.4,0,0,1,4.4-4.4h17.66a1.987,1.987,0,0,1,1.447.624l2.515,2.671,2.515,2.67,2.719,2.939,2.719,2.94a2.005,2.005,0,0,1,.392.625A1.976,1.976,0,0,1,4695.683,6270.606Z" transform="translate(-4660.766 -6256.999)"></path><path class="c" d="M4689.7,6301.305h-25.711a4.816,4.816,0,0,1-4.81-4.81v-36.27a4.817,4.817,0,0,1,4.813-4.813h17.661a2.41,2.41,0,0,1,1.747.754l2.515,2.67,2.515,2.671,2.721,2.941,2.72,2.94a2.39,2.39,0,0,1,.638,1.631V6296.5a4.815,4.815,0,0,1-4.81,4.81Zm-25.708-45.067a3.991,3.991,0,0,0-3.986,3.987v36.27a3.989,3.989,0,0,0,3.983,3.984H4689.7a3.99,3.99,0,0,0,3.983-3.984v-27.475a1.576,1.576,0,0,0-.418-1.07l-2.719-2.939-2.719-2.94-2.514-2.669-2.514-2.669a1.576,1.576,0,0,0-1.145-.5h-17.661Z" transform="translate(-4659.179 -6255.412)"></path></g><g transform="translate(3388.395 5562.069)"><path class="h" d="M4681.281,6270.606v27.476a4.394,4.394,0,0,1-4.4,4.4h-25.711a4.4,4.4,0,0,1-4.4-4.4v-36.27a4.4,4.4,0,0,1,4.4-4.4h17.66a1.989,1.989,0,0,1,1.447.624l2.515,2.671,2.515,2.67,2.72,2.939,2.719,2.94a2.014,2.014,0,0,1,.392.625A1.986,1.986,0,0,1,4681.281,6270.606Z" transform="translate(-4646.364 -6256.999)"></path><path class="c" d="M4675.3,6301.305h-25.711a4.815,4.815,0,0,1-4.81-4.81v-36.27a4.818,4.818,0,0,1,4.813-4.813h17.66a2.408,2.408,0,0,1,1.747.754l2.516,2.67,2.515,2.671,2.72,2.941,2.72,2.94a2.437,2.437,0,0,1,.474.754,2.413,2.413,0,0,1,.164.876V6296.5a4.815,4.815,0,0,1-4.81,4.81Zm-25.707-45.067a3.991,3.991,0,0,0-3.987,3.987v36.27a3.989,3.989,0,0,0,3.983,3.984H4675.3a3.99,3.99,0,0,0,3.983-3.984v-27.475a1.577,1.577,0,0,0-.108-.575,1.6,1.6,0,0,0-.31-.5l-2.719-2.939-2.719-2.94-2.514-2.669-2.514-2.669a1.578,1.578,0,0,0-1.146-.5h-17.66Z" transform="translate(-4644.778 -6255.412)"></path></g><g transform="translate(3412.969 5562.505)"><path class="j" d="M4777.31,6272.6h-10.937a.679.679,0,0,1-.678-.678v-11.723a.678.678,0,0,1,1.172-.465l2.606,2.768,2.606,2.769,2.864,3.1,2.863,3.1a.678.678,0,0,1-.5,1.139Z" transform="translate(-4765.282 -6259.102)"></path><path class="c" d="M4775.723,6271.424h-10.936a1.093,1.093,0,0,1-1.092-1.091V6258.61a1.09,1.09,0,0,1,1.886-.749l2.606,2.769,2.607,2.768,2.865,3.1,2.865,3.1a1.089,1.089,0,0,1-.8,1.832Zm-10.93-13.081a.275.275,0,0,0-.06.007.426.426,0,0,0-.044.013.31.31,0,0,0-.1.07.253.253,0,0,0-.064.176v11.723a.266.266,0,0,0,.265.265h10.936a.254.254,0,0,0,.172-.062.276.276,0,0,0,.07-.1.273.273,0,0,0,.023-.118.247.247,0,0,0-.071-.168l-2.864-3.1-2.864-3.1-2.605-2.767-2.6-2.767a.292.292,0,0,0-.1-.067A.244.244,0,0,0,4764.793,6258.344Z" transform="translate(-4763.696 -6257.518)"></path></g><g transform="translate(3442.921 5562.069)"><path class="k" d="M4945.142,6270.606v27.476a4.4,4.4,0,0,1-4.4,4.4h-25.71a4.4,4.4,0,0,1-4.4-4.4v-36.27a4.4,4.4,0,0,1,4.4-4.4h17.66a1.987,1.987,0,0,1,1.446.624l2.515,2.671,2.516,2.67,2.719,2.939,2.719,2.94a2,2,0,0,1,.529,1.349Z" transform="translate(-4910.224 -6256.999)"></path><path class="c" d="M4939.157,6301.305h-25.711a4.816,4.816,0,0,1-4.81-4.81v-36.27a4.818,4.818,0,0,1,4.813-4.813h17.661a2.408,2.408,0,0,1,1.747.754l2.516,2.67,2.515,2.671,2.72,2.941,2.72,2.94a2.388,2.388,0,0,1,.639,1.631V6296.5a4.815,4.815,0,0,1-4.81,4.81Zm-25.707-45.067a3.992,3.992,0,0,0-3.987,3.987v36.27a3.989,3.989,0,0,0,3.983,3.984h25.711a3.99,3.99,0,0,0,3.983-3.984v-27.475a1.567,1.567,0,0,0-.108-.575,1.586,1.586,0,0,0-.31-.5l-2.719-2.939-2.72-2.94-2.514-2.669-2.514-2.669a1.578,1.578,0,0,0-1.146-.5H4913.45Z" transform="translate(-4908.637 -6255.412)"></path></g><g transform="translate(3439.945 5562.069)"><path class="k" d="M4930.74,6270.606v27.476a4.4,4.4,0,0,1-4.4,4.4h-25.711a4.4,4.4,0,0,1-4.4-4.4v-36.27a4.4,4.4,0,0,1,4.4-4.4H4918.3a1.985,1.985,0,0,1,1.446.624l2.516,2.671,2.515,2.67,2.719,2.939,2.719,2.94a1.987,1.987,0,0,1,.529,1.349Z" transform="translate(-4895.822 -6256.999)"></path><path class="c" d="M4924.755,6301.305h-25.711a4.815,4.815,0,0,1-4.81-4.81v-36.27a4.818,4.818,0,0,1,4.813-4.813h17.66a2.408,2.408,0,0,1,1.748.754l2.516,2.67,2.515,2.671,2.72,2.941,2.72,2.94a2.388,2.388,0,0,1,.639,1.631V6296.5a4.816,4.816,0,0,1-4.81,4.81Zm-25.707-45.067a3.992,3.992,0,0,0-3.987,3.987v36.27a3.989,3.989,0,0,0,3.983,3.984h25.711a3.989,3.989,0,0,0,3.983-3.984v-27.475a1.572,1.572,0,0,0-.418-1.07l-2.719-2.939-2.719-2.94-2.514-2.669-2.514-2.669a1.578,1.578,0,0,0-1.146-.5h-17.66Z" transform="translate(-4894.234 -6255.412)"></path></g><g transform="translate(3464.519 5562.505)"><path class="j" d="M5026.769,6272.6h-10.937a.679.679,0,0,1-.678-.678v-11.723a.679.679,0,0,1,1.172-.465l2.607,2.768,2.606,2.769,2.864,3.1,2.863,3.1a.678.678,0,0,1-.5,1.139Z" transform="translate(-5014.74 -6259.102)"></path><path class="c" d="M5025.181,6271.424h-10.936a1.094,1.094,0,0,1-1.091-1.091V6258.61a1.09,1.09,0,0,1,1.886-.749l2.607,2.769,2.606,2.768,2.865,3.1,2.865,3.1a1.089,1.089,0,0,1-.8,1.832Zm-10.93-13.081a.279.279,0,0,0-.061.007.426.426,0,0,0-.044.013.31.31,0,0,0-.1.07.253.253,0,0,0-.064.176v11.723a.267.267,0,0,0,.265.265h10.936a.255.255,0,0,0,.173-.062.28.28,0,0,0,.07-.1.271.271,0,0,0,.024-.118.251.251,0,0,0-.072-.168l-2.863-3.1-2.864-3.1-2.605-2.767-2.6-2.767a.285.285,0,0,0-.1-.067A.247.247,0,0,0,5014.251,6258.344Z" transform="translate(-5013.153 -6257.518)"></path></g><g transform="translate(3354.644 5584.535)"><path class="l" d="M4488.346,6364.734l-2.69,2.69-2.69,2.69-.759-.759-.758-.759c2.646-2.645,4.1-3.854,5.026-4.279S4487.8,6364.25,4488.346,6364.734Z" transform="translate(-4481.449 -6364.128)"></path></g><g transform="translate(3354.504 5584.412)"><path class="m" d="M4482.427,6369.767a.116.116,0,0,1-.05-.01.136.136,0,0,1-.04-.027l-.765-.759-.765-.759a.124.124,0,0,1,0-.178c2.69-2.69,4.176-3.908,5.131-4.326s1.378-.035,1.946.476a.123.123,0,0,1,.029.04.119.119,0,0,1,.009.049.121.121,0,0,1-.009.05.134.134,0,0,1-.029.04l-2.69,2.684-2.69,2.685a.062.062,0,0,1-.033.027.106.106,0,0,1-.043.01Zm-1.338-1.645.669.669.669.67,2.595-2.595,2.595-2.595a1.307,1.307,0,0,0-1.763-.245C4484.958,6364.476,4483.562,6365.648,4481.089,6368.122Z" transform="translate(-4480.77 -6363.529)"></path></g><g transform="translate(3356.238 5585.217)"><path class="l" d="M4490.627,6374.275l-.733-.732-.732-.733,2.689-2.69,2.691-2.69c.72.727.542,1.68-.216,2.831A26.56,26.56,0,0,1,4490.627,6374.275Z" transform="translate(-4489.161 -6367.429)"></path></g><g transform="translate(3356.123 5585.09)"><path class="m" d="M4490.187,6373.915a.128.128,0,0,1-.049-.01.143.143,0,0,1-.04-.029l-.733-.733-.733-.733a.076.076,0,0,1-.022-.04.213.213,0,0,1,0-.049.122.122,0,0,1,.01-.05.147.147,0,0,1,.028-.04l2.69-2.69,2.691-2.69a.122.122,0,0,1,.178,0,1.547,1.547,0,0,1,.378.54,1.579,1.579,0,0,1,.119.646,4.437,4.437,0,0,1-1.173,2.466,34.147,34.147,0,0,1-3.239,3.374.24.24,0,0,1-.055.029.16.16,0,0,1-.047.01Zm-1.287-1.594c.407.414.7.7.9.907s.322.317.385.381a36.552,36.552,0,0,0,2.915-3.011,4.72,4.72,0,0,0,1.319-2.561,1.285,1.285,0,0,0-.08-.487,1.426,1.426,0,0,0-.252-.431l-2.6,2.6Z" transform="translate(-4488.606 -6366.813)"></path></g><g transform="translate(3353.238 5589.028)"><path class="l" d="M4476.077,6385.887l.542.542.542.542a.053.053,0,0,1,.02.038.055.055,0,0,1-.02.039l-.013.011a.022.022,0,0,1-.012,0l-1.123.242-1.122.243a.219.219,0,0,1-.154-.042.231.231,0,0,1-.088-.137.192.192,0,0,1,.006-.093.2.2,0,0,1,.045-.073l.65-.65.65-.65a.091.091,0,0,1,.043-.025.027.027,0,0,1,.034.013Z" transform="translate(-4474.645 -6385.873)"></path></g><g transform="translate(3353.114 5588.893)"><path class="m" d="M4474.376,6387.149a.324.324,0,0,1-.237-.1.353.353,0,0,1-.094-.244.338.338,0,0,1,.027-.131.355.355,0,0,1,.075-.111l.65-.651.65-.65a.194.194,0,0,1,.255,0l.542.542.542.542a.158.158,0,0,1,.057.123.187.187,0,0,1-.057.132.155.155,0,0,1-.04.03.246.246,0,0,1-.049.021l-1.122.242-1.122.242a.149.149,0,0,0-.038.007.154.154,0,0,1-.038.006Zm1.186-1.645-.625.625-.625.625a.092.092,0,0,0-.025.047.073.073,0,0,0,.013.055.06.06,0,0,0,.035.038.073.073,0,0,0,.054,0l1.052-.229,1.052-.23-.465-.465Z" transform="translate(-4474.045 -6385.214)"></path></g><g transform="translate(3360.889 5581.582)"><path class="l" d="M4515.168,6350.41a2.06,2.06,0,0,0-2.92.064,2.068,2.068,0,0,0,2.563,3.2l-.727-.727-.726-.727.905-.9Z" transform="translate(-4511.672 -6349.834)"></path></g><g transform="translate(3360.764 5581.457)"><path class="m" d="M4513.258,6353.614a2.194,2.194,0,1,1,1.517-3.774.128.128,0,0,1,.028.04.124.124,0,0,1,0,.1.134.134,0,0,1-.028.04l-.861.86-.86.861.676.676.675.676a.124.124,0,0,1,.039.089.126.126,0,0,1-.039.09l-.012.012-.013.013a2.175,2.175,0,0,1-.537.236A2.131,2.131,0,0,1,4513.258,6353.614Zm0-4.118a1.927,1.927,0,0,0-1.37.567,1.9,1.9,0,0,0-.556,1.371,1.925,1.925,0,0,0,.567,1.369,1.9,1.9,0,0,0,1.371.556,1.968,1.968,0,0,0,.437-.049,1.8,1.8,0,0,0,.417-.155l-.669-.663-.669-.663a.14.14,0,0,1-.029-.041.128.128,0,0,1,0-.1.136.136,0,0,1,.029-.04l.854-.854.855-.854a1.858,1.858,0,0,0-.576-.333,1.944,1.944,0,0,0-.661-.113Z" transform="translate(-4511.065 -6349.228)"></path></g><g transform="translate(3362.575 5582.169)"><path class="l" d="M4521.676,6352.708l-.013-.013-.012-.013-.912.9-.912.9.72.72.72.72c.07-.044.141-.092.208-.143a1.842,1.842,0,0,0,.188-.163,2.044,2.044,0,0,0,.013-2.907Z" transform="translate(-4519.827 -6352.683)"></path></g><g transform="translate(3362.447 5582.03)"><path class="m" d="M4520.791,6355.522a.124.124,0,0,1-.05-.009.14.14,0,0,1-.04-.029l-.727-.726-.727-.727a.13.13,0,0,1-.029-.04.124.124,0,0,1-.009-.049.131.131,0,0,1,.009-.05.15.15,0,0,1,.029-.04l.905-.9.905-.9a.123.123,0,0,1,.179,0l.019.012.02.013a2.185,2.185,0,0,1,.642,1.544,2.218,2.218,0,0,1-.629,1.554,2.4,2.4,0,0,1-.2.18,1.841,1.841,0,0,1-.22.152c-.019.006-.035.012-.048.018A.089.089,0,0,1,4520.791,6355.522Zm-1.275-1.581.644.644.643.644a1.281,1.281,0,0,0,.15-.109c.048-.04.093-.082.131-.12a1.944,1.944,0,0,0,.567-1.324,1.922,1.922,0,0,0-.5-1.354l-.816.809Z" transform="translate(-4519.21 -6352.003)"></path></g><g transform="translate(3355.842 5585.141)"><path class="l" d="M4493.165,6367.289a.786.786,0,0,0-1.11,0l-2.4,2.4-2.4,2.4.4.4.4.4,2.544-2.232,2.543-2.23a.759.759,0,0,0,.268-.535.809.809,0,0,0-.191-.574.273.273,0,0,1-.031-.019.269.269,0,0,1-.021-.02Z" transform="translate(-4487.249 -6367.059)"></path></g><g transform="translate(3355.702 5585.013)"><path class="m" d="M4487.5,6372.537a.13.13,0,0,1-.05-.009.168.168,0,0,1-.04-.03l-.4-.4-.4-.4a.124.124,0,0,1,0-.178l2.4-2.4,2.4-2.4A.911.911,0,1,1,4492.7,6368l-.02.019-.019.02-2.543,2.231-2.544,2.231a.074.074,0,0,1-.029.03.115.115,0,0,1-.048.009Zm-.613-.931.313.312.313.313,2.5-2.193,2.5-2.193a.634.634,0,0,0,.229-.446.688.688,0,0,0-.153-.485.631.631,0,0,0-.446-.229.689.689,0,0,0-.485.152.172.172,0,0,1-.051.039l-2.359,2.365Z" transform="translate(-4486.57 -6366.443)"></path></g><g transform="translate(3350.462 5590.968)"><path class="l" d="M4462.907,6399.936a.12.12,0,0,0-.056.054.109.109,0,0,0-.008.073l.109.459.108.459a.23.23,0,0,1-.011.192.249.249,0,0,1-.155.126.246.246,0,0,1-.154,0,.255.255,0,0,1-.126-.081l-.7-.695-.7-.694,2.288-2.29,2.289-2.289.791.012.79.013.536.536.535.536a15.954,15.954,0,0,1-1.46,1.17,30.484,30.484,0,0,1-4.072,2.413Z" transform="translate(-4461.211 -6395.257)"></path></g><g transform="translate(3350.36 5590.84)"><path class="m" d="M4462.413,6400.938a.4.4,0,0,1-.148-.028.309.309,0,0,1-.119-.087l-.7-.694-.7-.695a.139.139,0,0,1-.028-.041.112.112,0,0,1-.01-.05.117.117,0,0,1,.01-.049.128.128,0,0,1,.028-.039l2.289-2.289,2.289-2.289a.11.11,0,0,1,.044-.028.12.12,0,0,1,.044-.011l.791.014.791.013a.111.111,0,0,1,.049.01.108.108,0,0,1,.04.029l.535.535.536.536a.128.128,0,0,1,.029.047.153.153,0,0,1,.009.055.1.1,0,0,1-.011.05.123.123,0,0,1-.04.039l-.044.039-.045.038a20.026,20.026,0,0,1-2.386,1.772,32.374,32.374,0,0,1-3.084,1.733l.108.453.108.453a.4.4,0,0,1-.024.246.411.411,0,0,1-.168.188.455.455,0,0,1-.106.04A.394.394,0,0,1,4462.413,6400.938Zm-1.4-1.595.657.65.656.651a.145.145,0,0,0,.08.064.127.127,0,0,0,.1-.013.146.146,0,0,0,.064-.081.122.122,0,0,0-.013-.1l-.108-.459-.109-.458a.233.233,0,0,1,.128-.268,33.831,33.831,0,0,0,3.053-1.725,20.445,20.445,0,0,0,2.365-1.744l-.471-.472-.472-.471-.733-.013-.733-.013-2.231,2.225Z" transform="translate(-4460.717 -6394.639)"></path></g><g transform="translate(3349.325 5595.545)"><path class="l" d="M4455.764,6418.5l.548-.548.549-.548.816.815.815.816-1.3-.09-1.3-.089a.2.2,0,0,1-.137-.077.211.211,0,0,1-.042-.152.222.222,0,0,1,.011-.073A.111.111,0,0,1,4455.764,6418.5Z" transform="translate(-4455.712 -6417.408)"></path></g><g transform="translate(3349.186 5595.405)"><path class="m" d="M4457.957,6418.615l-1.307-.089-1.307-.089a.321.321,0,0,1-.23-.118.359.359,0,0,1-.077-.251.46.46,0,0,1,.032-.112.248.248,0,0,1,.07-.092l.548-.548.548-.548a.127.127,0,0,1,.09-.039.123.123,0,0,1,.089.039l.816.816.816.816a.122.122,0,0,1,.037.065.113.113,0,0,1-.012.075.136.136,0,0,1-.047.057.113.113,0,0,1-.067.019Zm-1.632-1.568-.5.5-.5.5a.067.067,0,0,0-.029.057.068.068,0,0,0,.029.058.218.218,0,0,0,.021.017.053.053,0,0,0,.031.008l1.128.076,1.128.077-.65-.651Z" transform="translate(-4455.036 -6416.728)"></path></g><g transform="translate(3354.465 5590.063)"><path class="m" d="M4480.712,6392.368a.126.126,0,0,1-.092-.04.131.131,0,0,1-.035-.087.118.118,0,0,1,.01-.049.126.126,0,0,1,.028-.04l.619-.619.618-.619a.123.123,0,0,1,.179,0l.4.4.4.4a.154.154,0,0,1,.039.059.114.114,0,0,1-.037.123.16.16,0,0,1-.065.035l-1.02.217-1.02.216h-.026Zm1.237-1.186-.421.42-.42.421.688-.146.688-.147-.267-.274Z" transform="translate(-4480.585 -6390.875)"></path></g><g transform="translate(3354.984 5590.203)"><path class="l" d="M4484.729,6392.346l-.7.152-.7.153a.188.188,0,0,1-.144-.023.2.2,0,0,1-.085-.118.219.219,0,0,1,0-.094.2.2,0,0,1,.05-.084l.389-.389.389-.389.4.4Z" transform="translate(-4483.092 -6391.555)"></path></g><g transform="translate(3354.873 5590.063)"><path class="m" d="M4482.877,6392.24a.318.318,0,0,1-.293-.443.42.42,0,0,1,.064-.1l.388-.389.389-.389a.129.129,0,0,1,.09-.039.126.126,0,0,1,.089.039l.4.4.4.4a.149.149,0,0,1,.039.059.128.128,0,0,1,0,.069.132.132,0,0,1-.037.054.158.158,0,0,1-.065.035l-.7.153-.7.153h-.063Zm.638-1.059-.344.344-.344.345a.064.064,0,0,0-.021.038.078.078,0,0,0,.008.038.063.063,0,0,0,.029.029.106.106,0,0,0,.048.009l.586-.127.586-.127-.273-.274Z" transform="translate(-4482.559 -6390.875)"></path></g><g transform="translate(3364.085 5583.322)"><path class="m" d="M4527.486,6358.357a.138.138,0,0,0-.076-.083.16.16,0,0,0-.115-.006.141.141,0,0,0-.083.076.16.16,0,0,0-.007.115.039.039,0,0,0,.007.02.052.052,0,0,1,.006.019.445.445,0,0,1,.042.247.5.5,0,0,1-.093.237.151.151,0,0,0-.032.107.153.153,0,0,0,.045.1.137.137,0,0,0,.106.03.149.149,0,0,0,.1-.056.805.805,0,0,0,.171-.4.7.7,0,0,0-.069-.406h0Z" transform="translate(-4527.136 -6358.26)"></path></g><g transform="translate(3393.143 5585.523)"><path class="f" d="M4671.7,6369h-3.947l.2.316.2.316h3.531a1.564,1.564,0,0,1,.619.125,1.63,1.63,0,0,1,.525.361,1.663,1.663,0,0,1,.473,1.162,1.59,1.59,0,0,1-.118.606,1.567,1.567,0,0,1-.347.51,1.815,1.815,0,0,1-.51.353,2.058,2.058,0,0,1-.626.18h-.431l-.6,0-.6-.005.171.3.173.3h.522l.014.023.015.022h0l.773,1.305.772,1.3.005.005,0,0a.322.322,0,0,0,.114.075.388.388,0,0,0,.143.025.332.332,0,0,0,.235-.1.354.354,0,0,0,.1-.243.206.206,0,0,0-.016-.086.212.212,0,0,0-.038-.055.217.217,0,0,1-.021-.025.357.357,0,0,1-.029-.043l-.636-1.083-.635-1.083a2.259,2.259,0,0,0,2.05-1.406,2.3,2.3,0,0,0-.492-2.488,2.247,2.247,0,0,0-1.6-.668Zm5.312.064a.28.28,0,0,0-.115-.116.359.359,0,0,0-.337,0,.321.321,0,0,0-.12.112l-.017.029-.017.03a.212.212,0,0,0-.021.136.378.378,0,0,0,.047.135l.27.467.271.467,1.034,1.8,1.034,1.8h-.09v0h-2.662l.192.336.192.336h2.754l.416.72.416.72h0v0a.6.6,0,0,0,.11.141.3.3,0,0,0,.207.079.335.335,0,0,0,.322-.423.308.308,0,0,0-.038-.081l-1.927-3.346-1.926-3.346Zm16.19,6.527h-3.552v-6.352a.334.334,0,0,0-.668,0v6.686a.334.334,0,0,0,.334.334h4.271l-.193-.333Zm-6.971-6.36a.334.334,0,0,0-.333-.326h-.05a.355.355,0,0,0-.172.042.287.287,0,0,0-.115.116l-1.1,1.938-1.1,1.938-1.1-1.937-1.1-1.938a.28.28,0,0,0-.115-.116.359.359,0,0,0-.337,0,.314.314,0,0,0-.12.112l-.017.029-.018.03a.211.211,0,0,0-.021.135.359.359,0,0,0,.045.134l1.229,2.158,1.229,2.157v0a.648.648,0,0,0,.11.141.3.3,0,0,0,.207.079h.019a.3.3,0,0,0,.207-.079.63.63,0,0,0,.11-.141l.941-1.651.941-1.651v5.52a.334.334,0,0,0,.668,0v-6.691h0Z" transform="translate(-4667.753 -6368.907)"></path></g><g transform="translate(3447.5 5579.735)"><g transform="translate(0.008 11.562)"><path class="l" d="M4936.142,6396.851h-5.306c0,.013,0,.026,0,.039s0,.026,0,.039,0,.05,0,.075,0,.049,0,.075,0,.021,0,.032,0,.021,0,.032c0,.029,0,.057.006.086s.005.058.008.086c0,.007,0,.013,0,.02a.112.112,0,0,0,0,.019c0,.032.006.064.009.1s.007.063.011.1v.018c0,.034.008.068.013.1s.01.068.014.1h0q.046.318.115.632c.045.209.1.417.16.622v0c.009.033.02.065.029.1s.02.065.03.1l0,.006,0,.005v.006l0,.005.029.086c.01.029.02.058.029.087l.008.022.007.021c.01.025.018.05.027.076s.019.049.028.075c0,.011.009.022.013.033s.009.022.013.034.017.041.024.062.016.041.025.062.012.032.018.047.013.031.019.047.014.032.021.048.013.033.021.049.017.04.026.06.017.04.026.059l.016.035.016.035c.01.024.021.047.032.072l.033.07.011.023.011.022.04.081.04.08.006.013.006.013.046.088c.015.03.031.059.046.088l0,0,0,0a.132.132,0,0,0,.01.018l.011.018,2.266-1.365,2.266-1.364.008-.005.009-.005a3.5,3.5,0,0,1-.217-.581,3.546,3.546,0,0,1-.115-.6Z" transform="translate(-4930.836 -6396.851)"></path></g><g transform="translate(2.868 13.998)"><path class="l" d="M4948.427,6408.639l-.007.006-.006.006-1.869,1.869-1.869,1.869.028.026.03.026.053.048c.017.016.035.031.053.046l.027.024.027.024.064.055.063.054.018.015.017.014c.027.022.054.045.082.066l.082.065.08.063.081.061,0,0,0,0c.113.084.227.166.344.245s.234.154.355.228a.068.068,0,0,0,.012.007l.012.008.069.041.069.04.042.025.042.024.04.022.04.022.073.04.074.039.01.006.01.005c.068.036.136.07.205.1s.138.066.208.1l.066-.161.066-.161.94-2.282.94-2.283,0-.008,0-.009a3.272,3.272,0,0,1-.3-.18c-.1-.065-.193-.136-.285-.211Z" transform="translate(-4944.676 -6408.639)"></path></g><g transform="translate(1.278 13.065)"><path class="l" d="M4941.931,6404.685c-.02-.022-.04-.045-.06-.068l-.057-.069-.05-.062-.047-.063-.053-.073c-.017-.024-.034-.048-.05-.074l-.05-.075c-.016-.026-.032-.051-.048-.076l-2.269,1.366-2.268,1.367c.034.058.07.115.106.171l.11.168,0,.005,0,.006v0l0,0,0,.006h0l.009.014.008.014h0c.04.058.079.115.12.173s.082.114.124.17l0,0,0,0,0,0,0,0,.055.072c.019.023.037.048.056.072l.007.009.007.009.058.073.059.072.015.018.014.017.053.064.055.063.024.027.024.027.047.053.047.053.026.03.026.028.012.013.012.013.035.038.035.038.014.015a.1.1,0,0,1,.014.015l.063.065.063.063,1.872-1.872,1.872-1.871-.062-.065-.06-.066Z" transform="translate(-4936.979 -6404.125)"></path></g><g transform="translate(11.066 13.996)"><path class="l" d="M4984.473,6408.629l-.062.05-.063.047,0,.008,0,.008,1.365,2.264,1.365,2.266.188-.125.185-.132c.132-.1.262-.2.39-.3s.253-.216.376-.33l-1.869-1.869-1.87-1.868-.007-.008Z" transform="translate(-4984.348 -6408.629)"></path></g><g transform="translate(2.868 3.768)"><path class="l" d="M4955.215,6374.041l-.046-.077-.046-.077-1.274-2.114-1.273-2.114-.078.044-.079.043-.081.042-.081.039a3.623,3.623,0,0,1-1.55.352,3.569,3.569,0,0,1-.52-.039,3.463,3.463,0,0,1-.51-.113c-.029-.008-.057-.019-.086-.029l-.084-.031-.085-.029c-.028-.01-.057-.02-.084-.031l-.939,2.281-.939,2.281-.037.089-.037.09-.032.077-.032.077h0l.007,0,.007,0,.008,0,.007,0h0c.022.01.045.018.067.026l.067.025.084.033.083.032.043.016.043.016h0a8.849,8.849,0,0,0,1.817.435l.036.005.036,0,.038,0,.038,0,.072.008.071.007h.035l.089.008.087.007h.031l.029,0,.077,0,.077,0,.047,0h.048l.061,0,.061,0h.219q.371,0,.741-.031c.247-.021.492-.052.737-.093h.012l.012,0,.078-.014.078-.015.044-.008.044-.009.045-.009.046-.01.075-.016.076-.017.014,0,.014,0a8.774,8.774,0,0,0,1.093-.329,9.049,9.049,0,0,0,1.042-.466h0c.022-.011.044-.024.065-.037l.066-.037.078-.043.079-.045.055-.03.054-.031h0l0-.005,0-.005,0,.005,0,.005h0l0,0,0,0,.018-.01.018-.01-.046-.077Zm-6.788-10.265.063-.05.063-.047,0-.008,0-.007-1.364-2.266-1.365-2.265c-.063.041-.126.083-.188.126s-.125.087-.186.132c-.131.1-.262.2-.389.3s-.253.215-.376.329l1.869,1.868,1.869,1.869.008.008Z" transform="translate(-4944.675 -6359.133)"></path></g><g transform="translate(0 2.307)"><path class="l" d="M4933.405,6354.661l-.062.064-.062.065c-.021.022-.041.043-.062.064l-.061.065c-.137.147-.268.3-.394.456s-.247.317-.363.481l-.016.023-.016.023-.039.057-.037.056c-.014.019-.026.039-.039.059l-.039.059c0,.007-.009.015-.014.021l-.014.022a8.88,8.88,0,0,0-1.382,4.421c0,.029,0,.06,0,.089s0,.06,0,.09,0,.06,0,.09,0,.06,0,.089h5.294q0-.045,0-.089c0-.03,0-.06.006-.09l0-.09c0-.03,0-.06.006-.089a3.595,3.595,0,0,1,.8-1.928c.019-.022.039-.045.059-.067l.062-.066.059-.067c.02-.023.04-.045.062-.066l-1.872-1.871Zm10.923-1.314-.01-.007-.011-.006-.07-.043-.071-.041-.04-.023-.041-.023-.042-.023-.042-.023-.071-.039-.072-.039-.011-.005-.012-.006c-.155-.081-.312-.158-.471-.229s-.32-.139-.483-.2l-.013-.005-.013,0-.106-.039-.107-.039q-.434-.15-.881-.257a8.768,8.768,0,0,0-.9-.166l-.037,0-.038-.005-.038,0-.037,0-.072-.008-.071-.008-.02,0h-.021l-.086-.007-.085-.007-.034,0-.033,0-.073,0-.074,0-.039,0h-.039v5.306a3.981,3.981,0,0,1,.407.065,3.652,3.652,0,0,1,.4.11l1.953-1.952,1.953-1.953c-.073-.051-.146-.1-.219-.148s-.147-.1-.224-.142Z" transform="translate(-4930.797 -6352.061)"></path></g><g transform="translate(4.311 2.299)"><path class="l" d="M4956.073,6352.025h-.09l-.089,0c-.187.007-.375.021-.561.04s-.373.044-.558.076l-.013,0-.012,0-.078.014-.078.014-.044.009-.044.008-.046.009-.045.009-.075.017-.075.017-.014,0-.014,0a9.041,9.041,0,0,0-2.136.8l-.065.037-.066.038-.078.043-.078.044-.058.034-.058.033h0l0,0,0,0-.015.009-.015.008h0l.046.077.046.076,1.321,2.192,1.319,2.191.078-.044.079-.043.08-.042c.027-.014.054-.027.081-.039a3.494,3.494,0,0,1,.578-.217,3.55,3.55,0,0,1,.607-.115l.089-.008c.03,0,.06-.005.09-.006l.09,0h.09v-5.293h-.089l-.09,0Z" transform="translate(-4951.658 -6352.021)"></path></g><g transform="translate(12.322 6.134)"><path class="l" d="M4995.9,6375.215c0-.024,0-.047,0-.071l0-.072c0-.012,0-.023,0-.035s0-.023,0-.036c0-.028,0-.056-.006-.083l-.007-.084c0-.007,0-.014,0-.022v-.022c0-.03-.007-.062-.01-.093s-.007-.063-.01-.094v-.022c0-.034-.009-.068-.013-.1s-.009-.068-.015-.1v-.007c-.03-.211-.068-.422-.114-.63s-.1-.416-.159-.621l0,0v0c-.009-.032-.02-.064-.029-.1s-.019-.063-.029-.095a.1.1,0,0,0,0-.013l0-.013c-.009-.029-.019-.057-.028-.085s-.02-.057-.03-.085l-.008-.023-.008-.023c-.009-.025-.018-.049-.026-.074s-.018-.049-.027-.074l-.013-.035-.014-.035c-.007-.02-.015-.041-.023-.062s-.016-.04-.024-.061l-.019-.048-.02-.048-.02-.047c-.006-.016-.013-.031-.02-.047s-.017-.041-.026-.06-.017-.041-.027-.06l-.015-.034-.015-.034c-.011-.024-.022-.048-.034-.072l-.033-.071c0-.007-.007-.014-.01-.021l-.011-.022-.04-.082-.041-.081-.005-.011-.006-.011c-.015-.03-.031-.059-.046-.089s-.031-.059-.047-.088l0,0,0,0q-.115-.212-.242-.417t-.265-.4l-1.953,1.954-1.954,1.953a3.7,3.7,0,0,1,.174.8h5.308c0-.013,0-.026,0-.039s0-.026,0-.04Z" transform="translate(-4990.425 -6370.583)"></path></g><g transform="translate(11.46 11.203)"><path class="l" d="M4987.31,6395.113c0,.03,0,.06,0,.089s0,.06,0,.09,0,.06,0,.089,0,.06-.007.09a3.59,3.59,0,0,1-.8,1.928c-.019.023-.039.046-.059.067l-.062.066c-.021.022-.04.044-.06.067s-.04.045-.061.066l1.872,1.872,1.872,1.871c.021-.021.042-.043.062-.064l.062-.064.063-.065c.021-.021.041-.043.062-.066q.207-.224.4-.459c.126-.157.247-.317.36-.48.005-.006.01-.013.014-.02l.013-.019c.014-.02.027-.04.041-.06s.027-.04.042-.061l.036-.055.035-.054.018-.027.017-.026a8.84,8.84,0,0,0,.989-2.136,8.957,8.957,0,0,0,.391-2.281c0-.03,0-.06,0-.09v-.089c0-.03,0-.06,0-.09s0-.06,0-.089h-5.293Z" transform="translate(-4986.251 -6395.113)"></path></g><g transform="translate(6.426)"><path class="l" d="M4974.85,6341.625a2.478,2.478,0,0,0-3.974,2.854l-2.7,2.7-2.7,2.7a2.5,2.5,0,0,0-1.485-.229,2.482,2.482,0,1,0,2.6,1.348l2.7-2.7,2.7-2.7a2.5,2.5,0,0,0,1.486.229,2.479,2.479,0,0,0,1.369-4.2Z" transform="translate(-4961.892 -6340.899)"></path></g></g><g transform="translate(3210.332 5459.587)"><path class="b" d="M3823.331,5807.342h-38.238v-44.419a1.441,1.441,0,0,1,1.441-1.44h35.357a1.441,1.441,0,0,1,1.44,1.44v44.419Z" transform="translate(-3784.68 -5761.069)"></path><path class="c" d="M3822.158,5806.169h-39.064v-44.833a1.855,1.855,0,0,1,1.853-1.854H3820.3a1.856,1.856,0,0,1,1.854,1.854v44.833Zm-38.238-.827h37.411v-44.006a1.028,1.028,0,0,0-1.027-1.027h-35.357a1.028,1.028,0,0,0-1.027,1.027v44.006Z" transform="translate(-3783.094 -5759.483)"></path></g><g transform="translate(3240.438 5459.587)"><path class="d" d="M4020.034,5807.342h-89.248v-44.419a1.44,1.44,0,0,1,1.44-1.44h83.953a3.854,3.854,0,0,1,3.855,3.855v42Z" transform="translate(-3930.373 -5761.069)"></path><path class="c" d="M4018.861,5806.169h-90.075v-44.833a1.855,1.855,0,0,1,1.854-1.854h83.953a4.273,4.273,0,0,1,4.269,4.269v42.418Zm-89.249-.827h88.422v-41.591a3.447,3.447,0,0,0-3.442-3.442h-83.953a1.028,1.028,0,0,0-1.027,1.027v44.006Z" transform="translate(-3928.785 -5759.483)"></path></g><g transform="translate(3191.131 5499.89)"><path class="b" d="M3853.756,6068.017H3692.176v-111.5h161.579v111.5Z" transform="translate(-3691.763 -5956.099)"></path><path class="c" d="M3852.583,6066.843H3690.177V5954.513h162.406v112.331ZM3691,6066.017h160.752V5955.339H3691v110.678Z" transform="translate(-3690.177 -5954.513)"></path></g><g transform="translate(3237.855 5499.89)"><path class="d" d="M4033.511,6068.017H3918.284v-111.5h115.226v111.5Z" transform="translate(-3917.871 -5956.099)"></path><path class="c" d="M4032.338,6066.843H3916.284V5954.513h116.053v112.331Zm-115.227-.826h114.4V5955.339h-114.4v110.678Z" transform="translate(-3916.284 -5954.513)"></path></g><g transform="translate(3249.051 5510.855)"><path class="e" d="M4066.453,6101.24h-93.991v-91.663h93.991v91.663Z" transform="translate(-3972.049 -6009.164)"></path><path class="c" d="M4065.279,6100.067h-94.817v-92.489h94.817v92.489Zm-93.991-.826h93.164v-90.836h-93.164v90.836Z" transform="translate(-3970.462 -6007.578)"></path></g><g transform="translate(3249.672 5511.58)"><g class="n" transform="translate(0 0)"><g transform="translate(-25.115 -18.824)"><g transform="translate(9.797 79.864)"><g transform="translate(0.413 0.416)"><path class="k" d="M3947.861,6309.5a2.619,2.619,0,0,0-3.347.5l-1.428,1.623-1.429,1.623a2.631,2.631,0,0,1-2.044.887l-6.142-.18-6.143-.179a2.606,2.606,0,0,1-1.094-.277,2.642,2.642,0,0,1-.88-.714l-1.318-1.655-1.318-1.655a2.618,2.618,0,0,0-3.321-.659l-1.723.953-1.724.953a2.62,2.62,0,0,0-1.206,3.161l.729,2.083.729,2.083a2.632,2.632,0,0,1-.245,2.247l-3.083,4.993-3.083,4.993a2.62,2.62,0,0,1-1.856,1.218l-2.124.309-2.124.308a2.616,2.616,0,0,0-2.243,2.528l-.051,1.968-.05,1.97a2.621,2.621,0,0,0,2.119,2.645l2.139.416,2.139.417a2.619,2.619,0,0,1,1.809,1.333l2.775,5.16,2.775,5.16a2.621,2.621,0,0,1,.311,1.1,2.588,2.588,0,0,1-.191,1.129l-.818,2.011-.818,2.011a2.62,2.62,0,0,0,1.047,3.218l1.671,1.037,1.671,1.037a2.618,2.618,0,0,0,3.347-.5l1.431-1.622,1.43-1.622a2.608,2.608,0,0,1,2.044-.886l6.141.178,6.141.178a2.658,2.658,0,0,1,1.1.276,2.6,2.6,0,0,1,.879.712l1.317,1.657,1.317,1.657a2.625,2.625,0,0,0,3.325.661l1.725-.955,1.725-.956a2.622,2.622,0,0,0,1.2-3.163l-.727-2.082-.727-2.081a2.6,2.6,0,0,1-.134-1.15,2.655,2.655,0,0,1,.373-1.1l3.083-4.992,3.083-4.993a2.629,2.629,0,0,1,1.857-1.217l2.124-.309,2.124-.308a2.623,2.623,0,0,0,2.25-2.529l.048-1.97.049-1.97a2.627,2.627,0,0,0-2.121-2.641l-2.139-.416-2.14-.415a2.622,2.622,0,0,1-1.809-1.333l-2.773-5.162-2.773-5.162a2.62,2.62,0,0,1-.123-2.229l.819-2.013.819-2.013a2.619,2.619,0,0,0-1.047-3.217l-1.673-1.036Zm-9.095,18.793a10.8,10.8,0,1,1-8.333-1.43A10.771,10.771,0,0,1,3938.767,6328.3Z" transform="translate(-3901.339 -6308.483)"></path></g><path class="c" d="M3943.578,6365.09a3.025,3.025,0,0,1-2.374-1.147l-1.316-1.658-1.317-1.657a2.2,2.2,0,0,0-.739-.6,2.231,2.231,0,0,0-.927-.233l-6.14-.178-6.14-.178a2.168,2.168,0,0,0-.948.178,2.191,2.191,0,0,0-.774.567l-1.431,1.623-1.431,1.623a3.026,3.026,0,0,1-3.875.575l-1.671-1.037-1.671-1.037a3.025,3.025,0,0,1-1.212-3.726l.818-2.01.817-2.01a2.19,2.19,0,0,0-.1-1.88l-2.775-5.161-2.775-5.161a2.211,2.211,0,0,0-1.525-1.123l-2.139-.416-2.139-.417a3.023,3.023,0,0,1-2.453-3.061l.051-1.969.05-1.969a3.023,3.023,0,0,1,2.6-2.925l2.125-.309,2.124-.308a2.191,2.191,0,0,0,.894-.337,2.218,2.218,0,0,0,.669-.689l3.084-4.992,3.083-4.992a2.2,2.2,0,0,0,.318-.922,2.228,2.228,0,0,0-.111-.972l-.728-2.083-.729-2.083a3.029,3.029,0,0,1,1.4-3.658l1.724-.953,1.724-.953a3.02,3.02,0,0,1,3.844.763l1.318,1.655,1.318,1.655a2.224,2.224,0,0,0,.741.6,2.169,2.169,0,0,0,.921.232l6.143.18,6.143.179a2.164,2.164,0,0,0,.945-.18,2.227,2.227,0,0,0,.777-.568l1.428-1.622,1.429-1.623a3.025,3.025,0,0,1,3.874-.576l1.673,1.036,1.672,1.035a3.025,3.025,0,0,1,1.212,3.725l-.818,2.013-.819,2.013a2.2,2.2,0,0,0,.1,1.876l2.774,5.163,2.773,5.163a2.21,2.21,0,0,0,1.525,1.123l2.139.416,2.139.416a3.029,3.029,0,0,1,2.456,3.058l-.049,1.969-.048,1.97a3.029,3.029,0,0,1-2.6,2.928l-2.124.309-2.124.308a2.217,2.217,0,0,0-1.564,1.026l-3.083,4.993-3.083,4.993a2.226,2.226,0,0,0-.316.925,2.172,2.172,0,0,0,.115.963l.727,2.083.727,2.083a3.025,3.025,0,0,1-1.392,3.66l-1.725.956-1.725.955a3.044,3.044,0,0,1-1.475.383Zm-19.026-6.477h.1l6.14.178,6.14.179a3.041,3.041,0,0,1,2.288,1.142l1.317,1.657,1.317,1.657a2.205,2.205,0,0,0,2.8.556l1.725-.955,1.724-.955a2.2,2.2,0,0,0,1.013-2.664l-.727-2.083-.727-2.082a3,3,0,0,1-.157-1.324,3.062,3.062,0,0,1,.434-1.272l3.084-4.994,3.084-4.994a3.036,3.036,0,0,1,2.148-1.41l2.124-.309,2.124-.308a2.2,2.2,0,0,0,1.9-2.131l.049-1.97.048-1.97a2.2,2.2,0,0,0-1.787-2.225l-2.139-.416-2.139-.416a3.03,3.03,0,0,1-2.094-1.543l-2.774-5.163-2.773-5.162a3.028,3.028,0,0,1-.142-2.579l.819-2.014.819-2.013a2.2,2.2,0,0,0-.882-2.711l-1.673-1.035-1.673-1.035a2.2,2.2,0,0,0-2.819.419l-1.429,1.623-1.428,1.623a3.029,3.029,0,0,1-1.071.776,3.067,3.067,0,0,1-1.3.25l-6.143-.18-6.142-.179a3.027,3.027,0,0,1-2.285-1.148l-1.318-1.654-1.318-1.655a2.195,2.195,0,0,0-2.8-.555l-1.724.953-1.724.954a2.2,2.2,0,0,0-1.016,2.663l.728,2.083.729,2.083a3.031,3.031,0,0,1-.284,2.6l-3.084,4.992-3.084,4.993a3.022,3.022,0,0,1-2.149,1.41l-2.124.308-2.124.308a2.2,2.2,0,0,0-1.89,2.128l-.051,1.97-.051,1.97a2.2,2.2,0,0,0,1.785,2.229l2.139.416,2.139.416a3.032,3.032,0,0,1,2.094,1.543l2.775,5.16,2.775,5.161a3.014,3.014,0,0,1,.139,2.586l-.818,2.01-.817,2.01a2.2,2.2,0,0,0,.882,2.711l1.672,1.037,1.672,1.037a2.2,2.2,0,0,0,2.819-.419l1.431-1.622,1.43-1.623a3.01,3.01,0,0,1,2.27-1.027Zm6.754-11.617a11.054,11.054,0,0,1-3.131-.452,11.314,11.314,0,0,1-2.917-1.339,11.11,11.11,0,0,1-3.074-2.947,11.366,11.366,0,0,1-1.933-8.18,11.2,11.2,0,0,1,17.153-7.729h0a11.121,11.121,0,0,1,3.075,2.947,11.368,11.368,0,0,1,1.934,8.181,11.088,11.088,0,0,1-1.429,4.011,11.129,11.129,0,0,1-7.073,5.2,11.488,11.488,0,0,1-1.3.229A11.217,11.217,0,0,1,3931.305,6347Zm.052-21.611a10.468,10.468,0,0,0-1.209.071,10.615,10.615,0,0,0-1.209.214,10.323,10.323,0,1,0,8.017,1.374,10.482,10.482,0,0,0-2.7-1.24A10.208,10.208,0,0,0,3931.357,6325.386Z" transform="translate(-3899.339 -6306.469)"></path></g><g transform="translate(0 22.128)"><g transform="translate(0.413 0.417)"><path class="k" d="M3900.451,6030.11a2.622,2.622,0,0,0-3.347.5l-1.428,1.624-1.429,1.624a2.634,2.634,0,0,1-2.043.886l-6.143-.18-6.143-.179a2.608,2.608,0,0,1-1.094-.277,2.65,2.65,0,0,1-.879-.714l-1.318-1.655-1.318-1.655a2.618,2.618,0,0,0-3.321-.658l-1.723.953-1.724.953a2.62,2.62,0,0,0-1.206,3.16l.729,2.083.729,2.083a2.634,2.634,0,0,1-.246,2.246l-3.083,4.993-3.084,4.993a2.622,2.622,0,0,1-1.856,1.218l-2.124.308-2.125.308a2.614,2.614,0,0,0-2.243,2.527l-.051,1.969-.051,1.969a2.621,2.621,0,0,0,2.119,2.645l2.139.416,2.139.416a2.619,2.619,0,0,1,1.809,1.333l2.776,5.16,2.774,5.16a2.61,2.61,0,0,1,.12,2.233l-.818,2.011-.818,2.011a2.621,2.621,0,0,0,1.047,3.218l1.672,1.037,1.671,1.037a2.62,2.62,0,0,0,3.347-.5l1.43-1.622,1.431-1.623a2.607,2.607,0,0,1,2.044-.886l6.141.179,6.14.178a2.648,2.648,0,0,1,1.1.276,2.613,2.613,0,0,1,.879.711l1.318,1.657,1.316,1.657a2.627,2.627,0,0,0,3.324.662l1.725-.956,1.725-.955a2.624,2.624,0,0,0,1.2-3.164l-.726-2.081-.727-2.082a2.59,2.59,0,0,1-.135-1.149,2.658,2.658,0,0,1,.373-1.1l3.084-4.992,3.083-4.993a2.632,2.632,0,0,1,1.856-1.217l2.124-.309,2.124-.308a2.622,2.622,0,0,0,2.25-2.53l.049-1.97.048-1.97a2.625,2.625,0,0,0-2.121-2.641l-2.139-.416-2.14-.416a2.623,2.623,0,0,1-1.809-1.333l-2.773-5.162-2.774-5.162a2.619,2.619,0,0,1-.122-2.229l.819-2.013.818-2.013a2.62,2.62,0,0,0-1.047-3.218l-1.672-1.035Zm-9.095,18.794a10.8,10.8,0,1,1-8.333-1.43A10.77,10.77,0,0,1,3891.356,6048.9Z" transform="translate(-3853.929 -6029.091)"></path></g><path class="c" d="M3896.168,6085.7a3.029,3.029,0,0,1-2.373-1.147l-1.317-1.657-1.317-1.658a2.213,2.213,0,0,0-1.666-.83l-6.14-.179-6.14-.178a2.178,2.178,0,0,0-1.721.746l-1.432,1.622-1.431,1.624a3.029,3.029,0,0,1-3.875.575l-1.672-1.038-1.672-1.036a3.027,3.027,0,0,1-1.212-3.726l.818-2.011.817-2.01a2.187,2.187,0,0,0-.1-1.881l-2.775-5.159-2.775-5.161a2.2,2.2,0,0,0-1.524-1.123l-2.139-.417-2.139-.417a3.025,3.025,0,0,1-2.453-3.061l.05-1.969.051-1.968a3.02,3.02,0,0,1,2.6-2.925l2.124-.31,2.125-.307a2.2,2.2,0,0,0,1.563-1.027l3.084-4.992,3.083-4.992a2.208,2.208,0,0,0,.207-1.894l-.729-2.083-.729-2.082a3.031,3.031,0,0,1,1.4-3.659l1.724-.953,1.724-.953a3.02,3.02,0,0,1,3.844.763l1.318,1.655,1.318,1.655a2.231,2.231,0,0,0,.741.6,2.188,2.188,0,0,0,.921.232l6.143.18,6.143.178a2.172,2.172,0,0,0,.947-.18,2.214,2.214,0,0,0,.775-.566l1.429-1.623,1.428-1.623a3.024,3.024,0,0,1,3.875-.576l1.672,1.035,1.673,1.035a3.026,3.026,0,0,1,1.212,3.725l-.819,2.013-.819,2.013a2.2,2.2,0,0,0,.1,1.876l2.774,5.164,2.774,5.162a2.2,2.2,0,0,0,1.525,1.124l2.139.416,2.139.416a3.03,3.03,0,0,1,2.456,3.057l-.049,1.97-.049,1.97a3.028,3.028,0,0,1-2.6,2.928l-2.123.308-2.124.308a2.213,2.213,0,0,0-1.564,1.027l-3.083,4.992-3.083,4.992a2.233,2.233,0,0,0-.316.925,2.175,2.175,0,0,0,.114.964l.727,2.082.728,2.083a3.028,3.028,0,0,1-1.392,3.661l-1.725.955-1.725.955a3.038,3.038,0,0,1-1.475.382Zm-19.026-6.477h.1l6.14.179,6.14.178a3.053,3.053,0,0,1,1.272.321,3,3,0,0,1,1.015.823l1.317,1.657,1.317,1.657a2.2,2.2,0,0,0,2.8.557l1.725-.955,1.724-.955a2.2,2.2,0,0,0,1.013-2.665l-.727-2.081-.727-2.083a3,3,0,0,1-.157-1.324,3.066,3.066,0,0,1,.434-1.272l3.084-4.994,3.084-4.993a3.028,3.028,0,0,1,2.148-1.41l2.124-.308,2.125-.309a2.2,2.2,0,0,0,1.9-2.131l.048-1.97.049-1.97a2.205,2.205,0,0,0-1.788-2.225l-2.139-.416-2.139-.416a3.036,3.036,0,0,1-2.094-1.543l-2.774-5.162-2.773-5.163a3.03,3.03,0,0,1-.142-2.58l.819-2.012.819-2.014a2.2,2.2,0,0,0-.882-2.711l-1.673-1.035-1.672-1.035a2.2,2.2,0,0,0-2.819.419l-1.428,1.623-1.429,1.624a3.052,3.052,0,0,1-2.366,1.025l-6.143-.178-6.143-.18a3.022,3.022,0,0,1-2.285-1.146l-1.318-1.655-1.319-1.656a2.195,2.195,0,0,0-2.8-.555l-1.725.953-1.724.954a2.206,2.206,0,0,0-1.016,2.663l.729,2.083.729,2.083a3.033,3.033,0,0,1-.284,2.6l-3.083,4.992-3.083,4.992a3.027,3.027,0,0,1-2.149,1.411l-2.124.307-2.124.31a2.2,2.2,0,0,0-1.89,2.127l-.05,1.969-.051,1.97a2.2,2.2,0,0,0,1.785,2.228l2.139.417,2.139.416a3.036,3.036,0,0,1,2.094,1.543l2.774,5.161,2.775,5.16a3.009,3.009,0,0,1,.139,2.585l-.817,2.01-.818,2.01a2.2,2.2,0,0,0,.882,2.71l1.671,1.038,1.672,1.037a2.2,2.2,0,0,0,2.819-.419l1.431-1.622,1.431-1.622a3,3,0,0,1,2.269-1.028Zm6.754-11.617a11.033,11.033,0,0,1-3.131-.452,11.3,11.3,0,0,1-2.917-1.34,11.123,11.123,0,0,1-3.075-2.946,11.371,11.371,0,0,1-1.933-8.18,11.236,11.236,0,0,1,12.978-9.362,11.219,11.219,0,0,1,4.176,1.632h0a11.128,11.128,0,0,1,3.075,2.947,11.369,11.369,0,0,1,1.934,8.182,11.164,11.164,0,0,1-8.5,9.212,11.505,11.505,0,0,1-1.3.23A11.119,11.119,0,0,1,3883.9,6067.6Zm.052-21.611a10.36,10.36,0,0,0-1.208.071,10.6,10.6,0,0,0-1.209.214,10.314,10.314,0,1,0,5.316.134A10.209,10.209,0,0,0,3883.947,6045.992Z" transform="translate(-3851.929 -6027.075)"></path></g><g transform="translate(57.315 42.155)"><g transform="translate(0.413 0.416)"><path class="k" d="M4163.429,6126.7a1.812,1.812,0,0,0-2.312.343l-.987,1.122-.987,1.122a1.815,1.815,0,0,1-1.412.612l-4.244-.124-4.244-.124a1.808,1.808,0,0,1-1.363-.685l-.911-1.143-.911-1.143a1.806,1.806,0,0,0-2.294-.456l-1.19.659-1.191.658a1.811,1.811,0,0,0-.833,2.183l.5,1.439.5,1.438a1.818,1.818,0,0,1-.169,1.552l-2.131,3.449-2.129,3.449a1.837,1.837,0,0,1-.548.564,1.8,1.8,0,0,1-.735.278l-1.467.212-1.468.214a1.8,1.8,0,0,0-1.549,1.746l-.035,1.36-.035,1.361a1.811,1.811,0,0,0,1.464,1.827l1.478.288,1.478.287a1.811,1.811,0,0,1,1.25.921l1.917,3.565,1.917,3.565a1.8,1.8,0,0,1,.083,1.542l-.565,1.39-.564,1.389a1.81,1.81,0,0,0,.723,2.223l1.154.717,1.155.716a1.81,1.81,0,0,0,2.313-.344l.989-1.121.988-1.12a1.8,1.8,0,0,1,1.413-.612l4.242.123,4.242.124a1.811,1.811,0,0,1,1.366.682l.91,1.144.91,1.146a1.815,1.815,0,0,0,2.3.456l1.191-.66,1.191-.66a1.811,1.811,0,0,0,.831-2.185l-.5-1.438-.5-1.438a1.791,1.791,0,0,1-.093-.794,1.831,1.831,0,0,1,.258-.757l2.13-3.449,2.13-3.45a1.816,1.816,0,0,1,1.283-.841l1.467-.213,1.468-.212a1.812,1.812,0,0,0,1.554-1.748l.033-1.361.034-1.361a1.814,1.814,0,0,0-1.465-1.824l-1.478-.287-1.478-.288a1.809,1.809,0,0,1-1.25-.921l-1.916-3.566-1.917-3.566a1.812,1.812,0,0,1-.084-1.54l.566-1.391.565-1.39a1.81,1.81,0,0,0-.724-2.223l-1.155-.715Zm-6.283,12.984a7.461,7.461,0,1,1-5.756-.988A7.441,7.441,0,0,1,4157.146,6139.687Z" transform="translate(-4131.289 -6125.999)"></path></g><path class="c" d="M4159.979,6164.742a2.218,2.218,0,0,1-1.74-.841l-.91-1.145-.91-1.145a1.375,1.375,0,0,0-.468-.378,1.407,1.407,0,0,0-.586-.147l-4.242-.123-4.242-.124a1.369,1.369,0,0,0-1.089.472l-.989,1.121-.989,1.121a2.217,2.217,0,0,1-2.84.421l-1.154-.716-1.155-.716a2.219,2.219,0,0,1-.888-2.731l.565-1.39.564-1.388a1.385,1.385,0,0,0-.063-1.191l-1.917-3.564-1.917-3.566a1.4,1.4,0,0,0-.965-.711l-1.478-.288-1.478-.287a2.217,2.217,0,0,1-1.8-2.244l.034-1.36.035-1.36a2.217,2.217,0,0,1,1.9-2.144l1.468-.213,1.467-.212a1.386,1.386,0,0,0,.989-.65l2.131-3.448,2.13-3.45a1.392,1.392,0,0,0,.13-1.2l-.5-1.438-.5-1.438a2.221,2.221,0,0,1,1.023-2.682l1.191-.659,1.19-.659a2.213,2.213,0,0,1,2.818.56l.91,1.144.911,1.143a1.391,1.391,0,0,0,1.052.53l4.244.124,4.244.125a1.429,1.429,0,0,0,.6-.116,1.394,1.394,0,0,0,.495-.357l.986-1.121.987-1.12a2.216,2.216,0,0,1,2.84-.422l1.155.715,1.156.715a2.217,2.217,0,0,1,.888,2.731l-.565,1.391-.565,1.391a1.4,1.4,0,0,0-.1.6,1.376,1.376,0,0,0,.166.585l1.916,3.567,1.917,3.567a1.394,1.394,0,0,0,.964.711l1.478.288,1.479.287a2.222,2.222,0,0,1,1.8,2.241l-.034,1.362-.034,1.36a2.221,2.221,0,0,1-1.909,2.146l-1.467.212-1.466.213a1.4,1.4,0,0,0-.991.65l-2.131,3.449-2.129,3.449a1.418,1.418,0,0,0-.2.585,1.379,1.379,0,0,0,.072.61l.5,1.438.5,1.44a2.217,2.217,0,0,1-1.02,2.683l-1.191.66-1.192.66a2.224,2.224,0,0,1-.531.211A2.2,2.2,0,0,1,4159.979,6164.742Zm-13.144-4.731h.071l4.242.123,4.242.124a2.24,2.24,0,0,1,.933.235,2.2,2.2,0,0,1,.744.6l.91,1.145.91,1.145a1.4,1.4,0,0,0,1.773.352l1.192-.66,1.19-.66a1.394,1.394,0,0,0,.642-1.687l-.5-1.438-.5-1.438a2.183,2.183,0,0,1-.116-.97,2.248,2.248,0,0,1,.318-.933l2.131-3.45,2.13-3.45a2.224,2.224,0,0,1,1.575-1.033l1.467-.213,1.468-.213a1.394,1.394,0,0,0,1.2-1.348l.034-1.361.033-1.361a1.395,1.395,0,0,0-1.131-1.408l-1.478-.288-1.478-.287a2.225,2.225,0,0,1-1.535-1.132l-1.916-3.565-1.916-3.566a2.214,2.214,0,0,1-.1-1.89l.567-1.392.565-1.391a1.392,1.392,0,0,0-.558-1.716l-1.156-.715-1.156-.715a1.392,1.392,0,0,0-1.784.265l-.987,1.121-.986,1.122a2.23,2.23,0,0,1-1.734.751l-4.244-.123-4.244-.125a2.2,2.2,0,0,1-.929-.234,2.227,2.227,0,0,1-.746-.606l-.911-1.143-.911-1.144a1.389,1.389,0,0,0-1.77-.351l-1.191.659-1.192.659a1.394,1.394,0,0,0-.643,1.685l.5,1.439.5,1.438a2.223,2.223,0,0,1-.208,1.906l-2.13,3.449-2.13,3.449a2.219,2.219,0,0,1-1.576,1.034l-1.466.212-1.467.214a1.391,1.391,0,0,0-1.2,1.346l-.035,1.361-.035,1.361a1.391,1.391,0,0,0,1.13,1.41l1.478.288,1.478.287a2.218,2.218,0,0,1,1.535,1.131l1.917,3.565,1.917,3.564a2.2,2.2,0,0,1,.1,1.9l-.565,1.389-.564,1.388a1.393,1.393,0,0,0,.559,1.716l1.155.716,1.154.717a1.393,1.393,0,0,0,1.784-.265l.989-1.121.988-1.121a2.21,2.21,0,0,1,1.665-.753Zm4.665-7.77a7.75,7.75,0,0,1-2.2-.317,7.935,7.935,0,0,1-2.048-.941,7.875,7.875,0,1,1,8.529-13.24h0a7.868,7.868,0,0,1-2.453,14.285,8.019,8.019,0,0,1-.914.161A7.8,7.8,0,0,1,4151.5,6152.242Zm.035-14.93a7.007,7.007,0,1,0,3.8,1.126,7.1,7.1,0,0,0-1.833-.842A6.941,6.941,0,0,0,4151.535,6137.312Z" transform="translate(-4129.289 -6123.987)"></path></g><g transform="translate(48.884)"><g transform="translate(0.413 0.416)"><path class="d" d="M4122.629,5922.708a1.811,1.811,0,0,0-2.312.343l-.987,1.121-.987,1.122a1.821,1.821,0,0,1-1.412.612l-4.244-.124-4.244-.124a1.813,1.813,0,0,1-1.363-.686l-.911-1.143-.911-1.143a1.807,1.807,0,0,0-2.294-.456l-1.191.659-1.19.658a1.809,1.809,0,0,0-.833,2.183l.5,1.439.5,1.438a1.841,1.841,0,0,1,.09.8,1.8,1.8,0,0,1-.26.756l-2.13,3.45-2.13,3.449a1.819,1.819,0,0,1-.547.563,1.8,1.8,0,0,1-.735.279l-1.467.213-1.467.213a1.8,1.8,0,0,0-1.55,1.746l-.035,1.36-.035,1.36a1.812,1.812,0,0,0,1.464,1.827l1.478.287,1.478.288a1.815,1.815,0,0,1,1.25.92l1.917,3.565,1.917,3.565a1.8,1.8,0,0,1,.215.762,1.767,1.767,0,0,1-.132.78l-.565,1.389-.564,1.39a1.812,1.812,0,0,0,.723,2.223l1.155.716,1.155.717a1.809,1.809,0,0,0,2.313-.344l.988-1.121.988-1.12a1.8,1.8,0,0,1,1.413-.612l4.242.123,4.242.123a1.834,1.834,0,0,1,.758.19,1.812,1.812,0,0,1,.607.491l.91,1.145.909,1.145a1.815,1.815,0,0,0,2.3.457l1.191-.659,1.192-.66a1.812,1.812,0,0,0,.831-2.186l-.5-1.438-.5-1.438a1.788,1.788,0,0,1-.092-.794,1.815,1.815,0,0,1,.258-.756l2.129-3.449,2.131-3.449a1.813,1.813,0,0,1,1.282-.841l1.468-.213,1.468-.213a1.81,1.81,0,0,0,1.554-1.747l.034-1.362.033-1.361a1.813,1.813,0,0,0-1.465-1.824l-1.478-.288-1.478-.287a1.81,1.81,0,0,1-1.25-.921l-1.917-3.566-1.917-3.566a1.813,1.813,0,0,1-.084-1.54l.566-1.391.565-1.391a1.811,1.811,0,0,0-.724-2.223l-1.155-.715Zm-6.283,12.983a7.462,7.462,0,1,1-5.757-.987A7.447,7.447,0,0,1,4116.347,5935.692Z" transform="translate(-4090.489 -5922.004)"></path></g><path class="c" d="M4119.18,5960.748a2.22,2.22,0,0,1-1.739-.841l-.909-1.145-.911-1.145a1.384,1.384,0,0,0-.468-.378,1.407,1.407,0,0,0-.587-.147l-4.241-.123-4.242-.123a1.407,1.407,0,0,0-.6.114,1.369,1.369,0,0,0-.491.357l-.988,1.122-.989,1.121a2.219,2.219,0,0,1-2.84.421l-1.154-.717-1.156-.716a2.217,2.217,0,0,1-.888-2.73l.565-1.389.564-1.389a1.385,1.385,0,0,0-.064-1.19l-1.917-3.565-1.918-3.565a1.39,1.39,0,0,0-.965-.71l-1.478-.288-1.478-.288a2.219,2.219,0,0,1-1.8-2.245l.035-1.359.035-1.36a2.215,2.215,0,0,1,1.9-2.145l1.467-.212,1.467-.214a1.37,1.37,0,0,0,.567-.214,1.4,1.4,0,0,0,.424-.436l2.131-3.449,2.129-3.449a1.378,1.378,0,0,0,.2-.583,1.4,1.4,0,0,0-.07-.616l-.5-1.439-.5-1.438a2.221,2.221,0,0,1,1.024-2.681l1.19-.659,1.191-.658a2.211,2.211,0,0,1,2.817.559l.911,1.143.911,1.144a1.4,1.4,0,0,0,.468.382,1.381,1.381,0,0,0,.583.146l4.245.124,4.244.125a1.4,1.4,0,0,0,1.091-.473l.986-1.121.987-1.121a2.218,2.218,0,0,1,2.84-.422l1.155.715,1.155.715a2.219,2.219,0,0,1,.889,2.731l-.566,1.39-.565,1.391a1.416,1.416,0,0,0-.1.6,1.4,1.4,0,0,0,.166.586l1.917,3.567,1.916,3.566a1.4,1.4,0,0,0,.965.71l1.478.288,1.478.288a2.22,2.22,0,0,1,1.8,2.24l-.033,1.361-.034,1.361a2.217,2.217,0,0,1-1.909,2.146l-1.466.213-1.467.213a1.4,1.4,0,0,0-.991.65l-2.13,3.449-2.13,3.449a1.427,1.427,0,0,0-.2.585,1.371,1.371,0,0,0,.072.61l.5,1.439.5,1.439a2.22,2.22,0,0,1-1.02,2.684l-1.192.66-1.191.66a2.266,2.266,0,0,1-.531.211A2.2,2.2,0,0,1,4119.18,5960.748Zm-13.144-4.73h.072l4.242.123,4.241.123a2.258,2.258,0,0,1,.933.234,2.215,2.215,0,0,1,.744.6l.911,1.145.91,1.145a1.4,1.4,0,0,0,1.773.352l1.191-.66,1.191-.66a1.394,1.394,0,0,0,.641-1.687l-.5-1.439-.5-1.438a2.195,2.195,0,0,1-.115-.97,2.261,2.261,0,0,1,.318-.932l2.131-3.451,2.13-3.45a2.231,2.231,0,0,1,1.574-1.033l1.468-.213,1.468-.213a1.4,1.4,0,0,0,1.2-1.348l.033-1.361.034-1.361a1.395,1.395,0,0,0-1.132-1.408l-1.478-.288-1.478-.287a2.232,2.232,0,0,1-1.536-1.131l-1.915-3.567-1.917-3.566a2.218,2.218,0,0,1-.1-1.89l.566-1.391.566-1.392a1.392,1.392,0,0,0-.558-1.715l-1.156-.716-1.156-.714a1.4,1.4,0,0,0-1.785.265l-.987,1.122-.986,1.121a2.236,2.236,0,0,1-1.735.752l-4.244-.124-4.244-.124a2.219,2.219,0,0,1-.929-.233,2.243,2.243,0,0,1-.747-.607l-.91-1.144-.911-1.143a1.389,1.389,0,0,0-1.769-.352l-1.191.659-1.192.659a1.4,1.4,0,0,0-.643,1.686l.5,1.438.5,1.439a2.219,2.219,0,0,1-.207,1.906l-2.131,3.449-2.131,3.449a2.224,2.224,0,0,1-.674.693,2.2,2.2,0,0,1-.9.34l-1.466.213-1.467.213a1.391,1.391,0,0,0-1.2,1.346l-.035,1.361-.035,1.361a1.394,1.394,0,0,0,1.13,1.411l1.478.287,1.478.288a2.229,2.229,0,0,1,1.535,1.132l1.917,3.564,1.917,3.565a2.2,2.2,0,0,1,.1,1.9l-.565,1.389-.564,1.388a1.393,1.393,0,0,0,.559,1.716l1.154.717,1.155.716a1.394,1.394,0,0,0,1.784-.265l.989-1.121.988-1.122a2.2,2.2,0,0,1,1.664-.752Zm4.665-7.77a7.749,7.749,0,0,1-2.2-.318,7.879,7.879,0,1,1,6.481-14.182h0a7.869,7.869,0,0,1-2.453,14.285,8.036,8.036,0,0,1-.915.161A7.884,7.884,0,0,1,4110.7,5948.247Zm.036-14.93a7.013,7.013,0,0,0-.82.048,7.155,7.155,0,0,0-.821.145,7.005,7.005,0,1,0,5.44.932,7.127,7.127,0,0,0-1.832-.841A6.947,6.947,0,0,0,4110.737,5933.317Z" transform="translate(-4088.489 -5919.992)"></path></g></g></g></g><g transform="translate(3197.809 5539.783)"><path class="e" d="M3756.537,6217.276h-32.042v-67.714h32.042v67.714Z" transform="translate(-3724.082 -6149.148)"></path><path class="c" d="M3755.364,6216.1h-32.869v-68.541h32.869V6216.1Zm-32.042-.826h31.216v-66.888h-31.216v66.888Z" transform="translate(-3722.495 -6147.563)"></path></g><g transform="translate(3239.914 5502.913)"><g transform="translate(0 102.71)"><path class="c" d="M3927.074,6467.414h-.827v-1.24h.827v1.24Z" transform="translate(-3926.247 -6466.174)"></path></g><g transform="translate(0 4.421)"><path class="c" d="M3927.074,6086.367h-.827v-2.458h.827v2.458Zm0-4.916h-.827V6079h.827v2.457Zm0-4.914h-.827v-2.457h.827v2.457Zm0-4.915h-.827v-2.457h.827v2.457Zm0-4.915h-.827v-2.458h.827v2.458Zm0-4.914h-.827v-2.457h.827v2.457Zm0-4.915h-.827v-2.457h.827v2.457Zm0-4.914h-.827v-2.458h.827v2.458Zm0-4.915h-.827v-2.457h.827v2.457Zm0-4.914h-.827v-2.458h.827v2.458Zm0-4.915h-.827v-2.457h.827v2.457Zm0-4.915h-.827v-2.457h.827v2.457Zm0-4.914h-.827v-2.457h.827v2.457Zm0-4.914h-.827v-2.458h.827v2.458Zm0-4.915h-.827v-2.457h.827v2.457Zm0-4.915h-.827v-2.457h.827v2.457Zm0-4.914h-.827v-2.458h.827v2.458Zm0-4.915h-.827v-2.457h.827v2.457Zm0-4.914h-.827v-2.457h.827v2.457Zm0-4.915h-.827v-2.457h.827v2.457Z" transform="translate(-3926.248 -5990.535)"></path></g><g transform="translate(0 0.307)"><path class="c" d="M3927.074,5972.283h-.827v-1.652l.826,0,.826,0v.827h-.828v.828Z" transform="translate(-3926.247 -5970.626)"></path></g><g transform="translate(4.168 0.012)"><path class="c" d="M3946.418,5970.313v-.826l1.258,0,1.258,0v.827l-1.258,0Zm5.031-.014v-.827l1.257,0,1.258,0v.826l-1.258,0Zm5.031-.014v-.414l0-.414,1.258,0,1.259,0v.827l-1.258,0Zm5.031-.015v-.827l1.258,0,1.258,0v.827l-1.258,0Zm5.032-.014v-.826l1.257,0,1.258,0v.414l0,.413-1.259,0Zm5.031-.014v-.826l1.257,0,1.258,0v.826l-1.258,0Zm5.031-.014v-.827l1.258,0,1.258,0v.826l-1.258,0Zm5.031-.014v-.827l1.258,0,1.258,0v.827l-1.258,0Zm5.031-.015v-.826l1.258,0,1.258,0v.826l-1.258,0Zm5.032-.014v-.827l1.258,0,1.258,0v.826l-1.258,0Zm5.031-.014,0-.414v-.413l1.258,0,1.258,0v.827l-1.258,0Zm5.031-.015,0-.413v-.414l1.258,0,1.257,0,0,.413v.414l-1.258,0Zm5.031-.014v-.827l1.258,0,1.257,0v.826l-1.258,0Zm5.031-.014v-.827l1.258,0,1.258,0v.827l-1.258,0Zm5.031-.014v-.826l1.258,0,1.258,0v.827l-1.258,0Zm5.031-.014v-.827l1.258,0,1.258,0v.826l-1.258,0Zm5.031-.014v-.827l1.258,0,1.258,0v.414l0,.413-1.259,0Zm5.032-.014v-.827l1.258,0,1.258,0v.827l-1.258,0Zm5.031-.014v-.826l1.257,0,1.258,0v.827l-1.258,0Zm5.031-.014v-.827l1.258,0,1.258,0v.826l-1.258,0Zm5.031-.014v-.827l1.258,0,1.258,0v.827l-1.258,0Z" transform="translate(-3946.416 -5969.198)"></path></g><g transform="translate(109.826 0)"><path class="c" d="M4459.37,5970.8h-.827v-.826l-.412,0h-.413v-.827l.827,0,.827,0v1.655Z" transform="translate(-4457.716 -5969.141)"></path></g><g transform="translate(110.654 4.112)"><path class="c" d="M4462.548,6084.871h-.826v-2.457h.826v2.457Zm0-4.914h-.826V6077.5h.826v2.458Zm0-4.915h-.826v-2.458h.826v2.458Zm0-4.915h-.826v-2.458h.826v2.458Zm0-4.914h-.826v-2.458h.826v2.458Zm0-4.916h-.826v-2.457h.826v2.457Zm0-4.914h-.826v-2.457h.826v2.457Zm0-4.914h-.826v-2.457h.826v2.457Zm0-4.915h-.826V6043.1h.826v2.458Zm0-4.915h-.826v-2.457h.826v2.457Zm0-4.915h-.826v-2.457h.826v2.457Zm0-4.915h-.826v-2.458h.826v2.458Zm0-4.915h-.826v-2.457h.826v2.457Zm0-4.914h-.826v-2.457h.826v2.457Zm0-4.915h-.826v-2.457h.826v2.457Zm0-4.914h-.826V6008.7h.826v2.458Zm0-4.915h-.826v-2.457h.826v2.457Zm0-4.915h-.826v-2.458h.826v2.458Zm0-4.915h-.826v-2.457h.826v2.457Zm0-4.914h-.826v-2.457h.826v2.457Z" transform="translate(-4461.722 -5989.039)"></path></g><g transform="translate(110.654 102.401)"><path class="c" d="M4462.548,6465.919h-.826v-1.24h.826v1.24Z" transform="translate(-4461.722 -6464.679)"></path></g></g><g transform="translate(3193.977 5504.127)"><g transform="translate(0 101.496)"><path class="c" d="M3704.779,6467.414h-.827v-1.24h.827v1.24Z" transform="translate(-3703.952 -6466.174)"></path></g><g transform="translate(0 4.389)"><path class="c" d="M3704.779,6090.935h-.827v-2.429h.827v2.429Zm0-4.856h-.827v-2.428h.827v2.428Zm0-4.855h-.827V6078.8h.827v2.427Zm0-4.855h-.827v-2.428h.827v2.428Zm0-4.855h-.827v-2.428h.827v2.428Zm0-4.856h-.827v-2.428h.827v2.428Zm0-4.854h-.827v-2.429h.827v2.429Zm0-4.856h-.827v-2.426h.827v2.426Zm0-4.855h-.827v-2.428h.827v2.428Zm0-4.856h-.827v-2.427h.827v2.427Zm0-4.855h-.827v-2.427h.827v2.427Zm0-4.854h-.827V6035.1h.827v2.428Zm0-4.855h-.827v-2.429h.827v2.429Zm0-4.856h-.827v-2.427h.827v2.427Zm0-4.855h-.827v-2.428h.827v2.428Zm0-4.855h-.827v-2.428h.827v2.428Zm0-4.855h-.827v-2.428h.827v2.428Zm0-4.856h-.827v-2.428h.827v2.428Zm0-4.855h-.827v-2.427h.827v2.427Zm0-4.855h-.827v-2.428h.827v2.428Z" transform="translate(-3703.952 -5996.255)"></path></g><g transform="translate(0 0.299)"><path class="c" d="M3704.779,5978.126h-.827v-1.65l.825-.006.825-.007,0,.415,0,.413-.415,0-.414,0v.83Z" transform="translate(-3703.952 -5976.463)"></path></g><g transform="translate(4.222 0.031)"><path class="c" d="M3724.389,5976.243l0-.414,0-.414,1.285-.009,1.286-.01,0,.413,0,.414-1.286.009Zm5.144-.039,0-.413,0-.414,1.286-.009,1.286-.01,0,.414,0,.414-1.286.009Zm5.143-.039,0-.413,0-.414,1.286-.009,1.286-.009,0,.413,0,.413-1.286.01Zm5.144-.038,0-.414,0-.413,1.286-.01,1.286-.009,0,.413,0,.413-1.286.01Zm5.144-.039,0-.413,0-.413,1.286-.01,1.286-.009,0,.413,0,.414-1.285.009Zm5.143-.038,0-.414,0-.413,1.286-.01,1.285-.009,0,.413,0,.413-1.286.01Zm5.144-.038,0-.414,0-.413,1.286-.01,1.286-.009,0,.413,0,.413-1.286.01Z" transform="translate(-3724.383 -5975.167)"></path></g><g transform="translate(40.227)"><path class="c" d="M3900.272,5976.672h-.827v-.824l-.412,0-.412,0,0-.413,0-.413.828-.006.828-.006v1.657Z" transform="translate(-3898.616 -5975.016)"></path></g><g transform="translate(41.056 4.084)"><path class="c" d="M3903.458,6089.458h-.826v-2.428h.826v2.428Zm0-4.855h-.826v-2.428h.826v2.428Zm0-4.856h-.826v-2.428h.826v2.428Zm0-4.855h-.826v-2.428h.826v2.428Zm0-4.855h-.826v-2.428h.826v2.428Zm0-4.855h-.826v-2.427h.826v2.427Zm0-4.855h-.826V6057.9h.826v2.428Zm0-4.854h-.826v-2.428h.826v2.428Zm0-4.856h-.826v-2.427h.826v2.427Zm0-4.854h-.826v-2.428h.826v2.428Zm0-4.856h-.826v-2.427h.826v2.427Zm0-4.855h-.826v-2.428h.826v2.428Zm0-4.855h-.826v-2.428h.826v2.428Zm0-4.855h-.826v-2.427h.826v2.427Zm0-4.855h-.826v-2.428h.826v2.428Zm0-4.855h-.826V6014.2h.826v2.427Zm0-4.855h-.826v-2.428h.826v2.428Zm0-4.855h-.826v-2.427h.826v2.427Zm0-4.855h-.826v-2.428h.826v2.428Zm0-4.855h-.826v-2.428h.826v2.428Z" transform="translate(-3902.631 -5994.778)"></path></g><g transform="translate(41.056 101.19)"><path class="c" d="M3903.457,6465.936h-.826v-1.24h.826v1.24Z" transform="translate(-3902.63 -6464.695)"></path></g></g><g transform="translate(3272.988 5465.301)"><g transform="translate(0 0)"><path class="k" d="M4133.754,5820.429h-42.9a2.551,2.551,0,0,1-2.552-2.553v-26.189a2.551,2.551,0,0,1,2.552-2.553h42.9a2.551,2.551,0,0,1,2.552,2.553v26.189a2.551,2.551,0,0,1-2.552,2.553Z" transform="translate(-4087.885 -5788.72)"></path><path class="c" d="M4132.167,5819.255h-42.9a2.97,2.97,0,0,1-2.966-2.966V5790.1a2.969,2.969,0,0,1,2.966-2.966h42.9a2.969,2.969,0,0,1,2.966,2.966v26.19a2.97,2.97,0,0,1-2.966,2.966Zm-42.9-31.3a2.143,2.143,0,0,0-2.14,2.14v26.19a2.142,2.142,0,0,0,2.14,2.14h42.9a2.142,2.142,0,0,0,2.14-2.14V5790.1a2.143,2.143,0,0,0-2.14-2.14h-42.9Z" transform="translate(-4086.298 -5787.133)"></path></g><g transform="translate(2.211 0)"><path class="k" d="M4144.452,5820.429h-42.9a2.551,2.551,0,0,1-2.553-2.553v-26.189a2.552,2.552,0,0,1,2.553-2.553h42.9a2.551,2.551,0,0,1,2.553,2.553v26.189a2.551,2.551,0,0,1-2.553,2.553Z" transform="translate(-4098.583 -5788.72)"></path><path class="c" d="M4142.866,5819.255h-42.9a2.97,2.97,0,0,1-2.966-2.966V5790.1a2.969,2.969,0,0,1,2.966-2.966h42.9a2.97,2.97,0,0,1,2.966,2.966v26.19a2.971,2.971,0,0,1-2.966,2.966Zm-42.9-31.3a2.143,2.143,0,0,0-2.139,2.14v26.19a2.142,2.142,0,0,0,2.139,2.14h42.9a2.142,2.142,0,0,0,2.14-2.14V5790.1a2.143,2.143,0,0,0-2.14-2.14h-42.9Z" transform="translate(-4096.997 -5787.133)"></path></g><g transform="translate(6.678 4.223)"><path class="h" d="M4157.355,5819.654h-34.189a2.553,2.553,0,0,1-2.553-2.553v-4.979a2.553,2.553,0,0,1,2.553-2.553h34.189a2.553,2.553,0,0,1,2.553,2.553v4.979a2.553,2.553,0,0,1-2.553,2.553Z" transform="translate(-4120.2 -5809.155)"></path><path class="c" d="M4155.769,5818.482H4121.58a2.969,2.969,0,0,1-2.966-2.966v-4.979a2.968,2.968,0,0,1,2.966-2.966h34.188a2.969,2.969,0,0,1,2.966,2.966v4.979a2.97,2.97,0,0,1-2.966,2.966ZM4121.58,5808.4a2.142,2.142,0,0,0-2.14,2.14v4.979a2.141,2.141,0,0,0,2.14,2.139h34.188a2.14,2.14,0,0,0,2.14-2.139v-4.979a2.141,2.141,0,0,0-2.14-2.14H4121.58Z" transform="translate(-4118.614 -5807.571)"></path></g><g transform="translate(6.678 16.796)"><path class="o" d="M4123.283,5874.871h-1.111a1.559,1.559,0,0,1-1.558-1.559v-1.345a1.559,1.559,0,0,1,1.558-1.558h1.111a1.557,1.557,0,0,1,1.558,1.558v1.345a1.557,1.557,0,0,1-1.558,1.559Z" transform="translate(-4120.2 -5869.996)"></path><path class="p" d="M4121.7,5873.7h-1.111a1.975,1.975,0,0,1-1.971-1.972v-1.345a1.974,1.974,0,0,1,1.971-1.971h1.111a1.974,1.974,0,0,1,1.972,1.971v1.345a1.975,1.975,0,0,1-1.972,1.972Zm-1.111-4.46a1.146,1.146,0,0,0-1.145,1.144v1.345a1.146,1.146,0,0,0,1.145,1.145h1.111a1.145,1.145,0,0,0,1.145-1.145v-1.345a1.145,1.145,0,0,0-1.145-1.144h-1.111Z" transform="translate(-4118.614 -5868.411)"></path></g><g transform="translate(11.962 16.796)"><path class="o" d="M4148.853,5874.871h-1.111a1.558,1.558,0,0,1-1.558-1.559v-1.345a1.558,1.558,0,0,1,1.558-1.558h1.111a1.559,1.559,0,0,1,1.558,1.558v1.345a1.559,1.559,0,0,1-1.558,1.559Z" transform="translate(-4145.77 -5869.996)"></path><path class="p" d="M4147.267,5873.7h-1.111a1.976,1.976,0,0,1-1.972-1.972v-1.345a1.975,1.975,0,0,1,1.972-1.971h1.111a1.973,1.973,0,0,1,1.971,1.971v1.345a1.974,1.974,0,0,1-1.971,1.972Zm-1.111-4.46a1.145,1.145,0,0,0-1.145,1.144v1.345a1.145,1.145,0,0,0,1.145,1.145h1.111a1.145,1.145,0,0,0,1.145-1.145v-1.345a1.145,1.145,0,0,0-1.145-1.144h-1.111Z" transform="translate(-4144.184 -5868.411)"></path></g><g transform="translate(17.164 16.796)"><path class="o" d="M4174.026,5874.871h-1.111a1.559,1.559,0,0,1-1.558-1.559v-1.345a1.559,1.559,0,0,1,1.558-1.558h1.111a1.559,1.559,0,0,1,1.558,1.558v1.345a1.559,1.559,0,0,1-1.558,1.559Z" transform="translate(-4170.943 -5869.996)"></path><path class="p" d="M4172.44,5873.7h-1.112a1.973,1.973,0,0,1-1.971-1.972v-1.345a1.972,1.972,0,0,1,1.971-1.971h1.112a1.974,1.974,0,0,1,1.971,1.971v1.345a1.975,1.975,0,0,1-1.971,1.972Zm-1.112-4.46a1.144,1.144,0,0,0-1.145,1.144v1.345a1.144,1.144,0,0,0,1.145,1.145h1.112a1.144,1.144,0,0,0,1.144-1.145v-1.345a1.144,1.144,0,0,0-1.144-1.144h-1.112Z" transform="translate(-4169.357 -5868.411)"></path></g><g transform="translate(6.678 22.923)"><path class="o" d="M4123.283,5904.521h-1.111a1.557,1.557,0,0,1-1.558-1.558v-1.344a1.559,1.559,0,0,1,1.558-1.558h1.111a1.557,1.557,0,0,1,1.558,1.558v1.344a1.555,1.555,0,0,1-1.558,1.558Z" transform="translate(-4120.2 -5899.648)"></path><path class="p" d="M4121.7,5903.349h-1.111a1.973,1.973,0,0,1-1.971-1.971v-1.344a1.975,1.975,0,0,1,1.971-1.972h1.111a1.975,1.975,0,0,1,1.972,1.972v1.344a1.973,1.973,0,0,1-1.972,1.971Zm-1.111-4.46a1.145,1.145,0,0,0-1.145,1.145v1.344a1.146,1.146,0,0,0,1.145,1.145h1.111a1.145,1.145,0,0,0,1.145-1.145v-1.344a1.144,1.144,0,0,0-1.145-1.145h-1.111Z" transform="translate(-4118.614 -5898.062)"></path></g><g transform="translate(11.962 22.923)"><path class="o" d="M4148.853,5904.521h-1.111a1.556,1.556,0,0,1-1.558-1.558v-1.344a1.558,1.558,0,0,1,1.558-1.558h1.111a1.559,1.559,0,0,1,1.558,1.558v1.344a1.557,1.557,0,0,1-1.558,1.558Z" transform="translate(-4145.77 -5899.648)"></path><path class="p" d="M4147.267,5903.349h-1.111a1.974,1.974,0,0,1-1.972-1.971v-1.344a1.976,1.976,0,0,1,1.972-1.972h1.111a1.974,1.974,0,0,1,1.971,1.972v1.344a1.972,1.972,0,0,1-1.971,1.971Zm-1.111-4.46a1.144,1.144,0,0,0-1.145,1.145v1.344a1.145,1.145,0,0,0,1.145,1.145h1.111a1.145,1.145,0,0,0,1.145-1.145v-1.344a1.144,1.144,0,0,0-1.145-1.145h-1.111Z" transform="translate(-4144.184 -5898.062)"></path></g><g transform="translate(17.164 22.923)"><path class="o" d="M4174.026,5904.521h-1.111a1.557,1.557,0,0,1-1.558-1.558v-1.344a1.559,1.559,0,0,1,1.558-1.558h1.111a1.559,1.559,0,0,1,1.558,1.558v1.344a1.557,1.557,0,0,1-1.558,1.558Z" transform="translate(-4170.943 -5899.648)"></path><path class="p" d="M4172.44,5903.349h-1.112a1.971,1.971,0,0,1-1.971-1.971v-1.344a1.973,1.973,0,0,1,1.971-1.972h1.112a1.975,1.975,0,0,1,1.971,1.972v1.344a1.973,1.973,0,0,1-1.971,1.971Zm-1.112-4.46a1.144,1.144,0,0,0-1.145,1.145v1.344a1.144,1.144,0,0,0,1.145,1.145h1.112a1.144,1.144,0,0,0,1.144-1.145v-1.344a1.144,1.144,0,0,0-1.144-1.145h-1.112Z" transform="translate(-4169.357 -5898.062)"></path></g><g transform="translate(22.76 16.796)"><path class="o" d="M4201.108,5874.871H4200a1.558,1.558,0,0,1-1.558-1.559v-1.345a1.558,1.558,0,0,1,1.558-1.558h1.112a1.558,1.558,0,0,1,1.558,1.558v1.345a1.558,1.558,0,0,1-1.558,1.559Z" transform="translate(-4198.025 -5869.996)"></path><path class="p" d="M4199.521,5873.7h-1.112a1.974,1.974,0,0,1-1.971-1.972v-1.345a1.973,1.973,0,0,1,1.971-1.971h1.112a1.973,1.973,0,0,1,1.971,1.971v1.345a1.974,1.974,0,0,1-1.971,1.972Zm-1.112-4.46a1.146,1.146,0,0,0-1.145,1.144v1.345a1.146,1.146,0,0,0,1.145,1.145h1.112a1.145,1.145,0,0,0,1.144-1.145v-1.345a1.145,1.145,0,0,0-1.144-1.144h-1.112Z" transform="translate(-4196.438 -5868.411)"></path></g><g transform="translate(22.76 22.923)"><path class="o" d="M4201.108,5904.521H4200a1.556,1.556,0,0,1-1.558-1.558v-1.344a1.558,1.558,0,0,1,1.558-1.558h1.112a1.558,1.558,0,0,1,1.558,1.558v1.344a1.556,1.556,0,0,1-1.558,1.558Z" transform="translate(-4198.025 -5899.648)"></path><path class="p" d="M4199.521,5903.349h-1.112a1.972,1.972,0,0,1-1.971-1.971v-1.344a1.974,1.974,0,0,1,1.971-1.972h1.112a1.974,1.974,0,0,1,1.971,1.972v1.344a1.972,1.972,0,0,1-1.971,1.971Zm-1.112-4.46a1.145,1.145,0,0,0-1.145,1.145v1.344a1.146,1.146,0,0,0,1.145,1.145h1.112a1.145,1.145,0,0,0,1.144-1.145v-1.344a1.144,1.144,0,0,0-1.144-1.145h-1.112Z" transform="translate(-4196.438 -5898.062)"></path></g><g transform="translate(28.195 16.796)"><path class="o" d="M4227.407,5874.871H4226.3a1.557,1.557,0,0,1-1.558-1.559v-1.345a1.557,1.557,0,0,1,1.558-1.558h1.111a1.558,1.558,0,0,1,1.558,1.558v1.345a1.558,1.558,0,0,1-1.558,1.559Z" transform="translate(-4224.324 -5869.996)"></path><path class="p" d="M4225.82,5873.7h-1.112a1.973,1.973,0,0,1-1.971-1.972v-1.345a1.972,1.972,0,0,1,1.971-1.971h1.112a1.973,1.973,0,0,1,1.971,1.971v1.345a1.974,1.974,0,0,1-1.971,1.972Zm-1.112-4.46a1.145,1.145,0,0,0-1.145,1.144v1.345a1.145,1.145,0,0,0,1.145,1.145h1.112a1.145,1.145,0,0,0,1.144-1.145v-1.345a1.145,1.145,0,0,0-1.144-1.144h-1.112Z" transform="translate(-4222.737 -5868.411)"></path></g><g transform="translate(28.195 22.923)"><path class="o" d="M4227.407,5904.521H4226.3a1.555,1.555,0,0,1-1.558-1.558v-1.344a1.557,1.557,0,0,1,1.558-1.558h1.111a1.558,1.558,0,0,1,1.558,1.558v1.344a1.556,1.556,0,0,1-1.558,1.558Z" transform="translate(-4224.324 -5899.648)"></path><path class="p" d="M4225.82,5903.349h-1.112a1.971,1.971,0,0,1-1.971-1.971v-1.344a1.973,1.973,0,0,1,1.971-1.972h1.112a1.974,1.974,0,0,1,1.971,1.972v1.344a1.972,1.972,0,0,1-1.971,1.971Zm-1.112-4.46a1.144,1.144,0,0,0-1.145,1.145v1.344a1.145,1.145,0,0,0,1.145,1.145h1.112a1.145,1.145,0,0,0,1.144-1.145v-1.344a1.144,1.144,0,0,0-1.144-1.145h-1.112Z" transform="translate(-4222.737 -5898.062)"></path></g><g transform="translate(38.643 16.393)"><path class="h" d="M4280.167,5879.976h-2.317a2.552,2.552,0,0,1-2.553-2.552v-6.408a2.553,2.553,0,0,1,2.553-2.553h2.317a2.553,2.553,0,0,1,2.553,2.553v6.408a2.552,2.552,0,0,1-2.553,2.552Z" transform="translate(-4274.883 -5868.05)"></path><path class="c" d="M4278.58,5878.8h-2.316a2.968,2.968,0,0,1-2.966-2.966v-6.407a2.968,2.968,0,0,1,2.966-2.966h2.316a2.968,2.968,0,0,1,2.966,2.966v6.407a2.968,2.968,0,0,1-2.966,2.966Zm-2.316-11.513a2.143,2.143,0,0,0-2.14,2.14v6.407a2.142,2.142,0,0,0,2.14,2.14h2.316a2.142,2.142,0,0,0,2.14-2.14v-6.407a2.143,2.143,0,0,0-2.14-2.14h-2.316Z" transform="translate(-4273.298 -5866.464)"></path></g></g><g transform="translate(3146.74 5548.957)"><g transform="translate(0 0)"><path class="d" d="M3543.943,6203.03h-66.582v-5.373a3.7,3.7,0,0,1,3.7-3.7h59.188a3.7,3.7,0,0,1,3.7,3.7v5.373Z" transform="translate(-3476.949 -6193.545)"></path><path class="c" d="M3542.77,6201.857h-67.407v-5.787a4.115,4.115,0,0,1,4.11-4.11h59.188a4.115,4.115,0,0,1,4.11,4.11v5.787Zm-66.581-.827h65.755v-4.96a3.287,3.287,0,0,0-3.284-3.284h-59.187a3.287,3.287,0,0,0-3.284,3.284v4.96Z" transform="translate(-3475.362 -6191.959)"></path></g><g transform="translate(14.948 0)"><path class="q" d="M3614.589,6203.03H3549.7v-5.373a3.7,3.7,0,0,1,3.7-3.7h57.5a3.7,3.7,0,0,1,3.7,3.7v5.373Z" transform="translate(-3549.286 -6193.545)"></path><path class="c" d="M3613.416,6201.857H3547.7v-5.787a4.116,4.116,0,0,1,4.11-4.11h57.5a4.116,4.116,0,0,1,4.11,4.11v5.787Zm-64.89-.827h64.063v-4.96a3.286,3.286,0,0,0-3.283-3.284h-57.5a3.286,3.286,0,0,0-3.283,3.284v4.96Z" transform="translate(-3547.698 -6191.959)"></path></g><g transform="translate(4.518 9.261)"><path class="d" d="M3557,6287.827h-54.544a3.227,3.227,0,0,1-3.226-3.226v-45.826h61V6284.6a3.228,3.228,0,0,1-3.226,3.226Z" transform="translate(-3498.813 -6238.361)"></path><path class="c" d="M3555.409,6286.651h-54.544a3.642,3.642,0,0,1-3.639-3.638v-46.239h61.821v46.239a3.642,3.642,0,0,1-3.639,3.638Zm-57.356-49.05v45.412a2.815,2.815,0,0,0,2.812,2.812h54.544a2.814,2.814,0,0,0,2.812-2.812V6237.6h-60.168Z" transform="translate(-3497.226 -6236.774)"></path><g transform="translate(10.542)"><path class="q" d="M3608.011,6287.827h-54.544a3.228,3.228,0,0,1-3.226-3.226v-45.826h60.995V6284.6a3.227,3.227,0,0,1-3.225,3.226Z" transform="translate(-3549.829 -6238.361)"></path><path class="c" d="M3606.424,6286.651H3551.88a3.643,3.643,0,0,1-3.639-3.638v-46.239h61.822v46.239a3.642,3.642,0,0,1-3.639,3.638Zm-57.356-49.05v45.412a2.816,2.816,0,0,0,2.813,2.812h54.544a2.815,2.815,0,0,0,2.813-2.812V6237.6h-60.169Z" transform="translate(-3548.242 -6236.774)"></path></g></g><g transform="translate(20.424 14.348)"><path class="q" d="M3623.263,6275.919l-22.752,2.5-22.752,2.5-.677-6.161-.677-6.16,22.752-2.5,22.752-2.5.677,6.16Z" transform="translate(-3575.95 -6263.144)"></path><path class="c" d="M3575.643,6279.618l-.721-6.571-.722-6.571.206-.022.206-.022,22.957-2.519,22.958-2.518.721,6.571.721,6.571-.205.022-.205.023L3598.6,6277.1Zm-.531-12.411.631,5.75.632,5.749,22.341-2.451,22.342-2.451-.632-5.75-.632-5.749-22.341,2.45Z" transform="translate(-3574.199 -6261.394)"></path></g><g transform="translate(22.289 14.144)"><path class="q" d="M3632.287,6274.93l-22.752,2.5-22.751,2.5-.677-6.16-.676-6.16,22.751-2.5,22.752-2.5.677,6.16Z" transform="translate(-3584.975 -6262.154)"></path><path class="c" d="M3584.668,6278.627l-.722-6.571-.721-6.571.206-.023.205-.022,22.957-2.519,22.957-2.519.721,6.571.722,6.571-.206.022-.205.023-22.957,2.519Zm-.531-12.41.632,5.749.631,5.749,22.341-2.451,22.341-2.452-.631-5.749-.632-5.749-22.341,2.451Z" transform="translate(-3583.225 -6260.403)"></path></g></g></g></g></svg>