<svg xmlns="http://www.w3.org/2000/svg" viewBox="0 0 1435 859"><defs><style>.cls-1{isolation:isolate;}.cls-13,.cls-2,.cls-21{fill-rule:evenodd;}.cls-2,.cls-9{mix-blend-mode:multiply;}.cls-13,.cls-2,.cls-8,.cls-9{opacity:0.21;}.cls-3{fill:#003994;}.cls-14,.cls-3,.cls-4,.cls-5,.cls-6,.cls-7{stroke:#24313e;stroke-width:2px;}.cls-14,.cls-15,.cls-16,.cls-17,.cls-18,.cls-19,.cls-3,.cls-4,.cls-5,.cls-6,.cls-7{stroke-miterlimit:10;}.cls-10,.cls-4{fill:#9caab8;}.cls-12,.cls-17,.cls-5{fill:#0c7ff2;}.cls-13,.cls-6,.cls-8{fill:#ebf0f5;}.cls-7{fill:#d9dee5;}.cls-13,.cls-8{mix-blend-mode:overlay;}.cls-11{fill:#f9f9f9;}.cls-14{fill:#6b7e8f;}.cls-15{fill:#ff603d;}.cls-15,.cls-16,.cls-17,.cls-18,.cls-19{stroke:#000;}.cls-16{fill:#28c397;}.cls-18{fill:#5c6ac3;}.cls-19{fill:#ff4451;}.cls-20,.cls-21{fill:#fff;}.cls-22{fill:none;}</style></defs><g class="cls-1"><g id="Layer_2" data-name="Layer 2"><g id="Layer_1-2" data-name="Layer 1"><path class="cls-2" d="M380.53,626.43c0-2.19,122.18-4.2,281.08-4.2s280.32,3.43,280.32,5.62-121.8,6.53-280.7,6.53S380.53,628.61,380.53,626.43Z"></path><path class="cls-3" d="M944.54,319.82v17.63H423.23V319.82A26.72,26.72,0,0,1,450,293.1H917.8A26.73,26.73,0,0,1,944.54,319.82Z"></path><path class="cls-4" d="M944.54,337.45V599a26.73,26.73,0,0,1-26.74,26.72H450A26.72,26.72,0,0,1,423.23,599V337.45Z"></path><path class="cls-5" d="M933.92,319.82v17.63H412.61V319.82a26.72,26.72,0,0,1,26.73-26.72H907.19A26.71,26.71,0,0,1,933.92,319.82Z"></path><path class="cls-6" d="M933.92,337.45v274a14.27,14.27,0,0,1-14.27,14.28H426.89a14.28,14.28,0,0,1-14.28-14.29v-274Z"></path><rect class="cls-7" x="556.98" y="369.55" width="356.68" height="240.55" rx="7.48"></rect><rect class="cls-8" x="562.4" y="374.18" width="346.71" height="6.08" rx="3"></rect><rect class="cls-9" x="562.4" y="606.65" width="346.71" height="6.08" rx="3"></rect><path class="cls-9" d="M933.92,319.82V611.44a14.27,14.27,0,0,1-14.27,14.28H718c-34.16-12-74.34-51.5-79.18-98.56-7.93-77,40.92-145.5,78-182.32,32.33-32,60.28-51.74,60.28-51.74h130A26.71,26.71,0,0,1,933.92,319.82Z"></path><rect class="cls-10" x="431.84" y="369.55" width="100.67" height="15.94" rx="2.66"></rect><rect class="cls-10" x="431.84" y="463.09" width="100.67" height="15.94" rx="2.58"></rect><rect class="cls-11" x="431.84" y="492.18" width="100.67" height="9.01" rx="4.51"></rect><rect class="cls-11" x="431.84" y="512.95" width="100.67" height="9.01" rx="4.51"></rect><rect class="cls-11" x="431.84" y="395.52" width="100.67" height="9.01" rx="4.51"></rect><rect class="cls-11" x="431.84" y="416.28" width="100.67" height="9.01" rx="4.51"></rect><rect class="cls-11" x="431.84" y="534.61" width="100.67" height="9.01" rx="4.51"></rect><rect class="cls-12" x="432.72" y="586.12" width="99.73" height="23.57" rx="6.16"></rect><path class="cls-13" d="M911.4,293.43c0,4.37-98.15,14.43-235.09,14.43s-241.6-6.87-241.6-11.24S539.36,292,676.31,292,911.4,289.06,911.4,293.43Z"></path><path class="cls-14" d="M962.57,480h0c13,2.62,20.87,17.9,17.6,34.13L923.42,747.4c-3.26,16.23-12.23,28.12-20,26.55h0c-7.8-1.56-11.46-16-8.2-32.23l37.94-237.06C936.4,488.43,949.58,477.39,962.57,480Z"></path><path class="cls-4" d="M1028.42,499.83c-.23-.15-.47-.31-.69-.48-22-15-23.54-47.12-2.81-63.79,17.48-14,36-35.46,26.6-58.47-13.18-32.12-61.14-126.43-200.11-98C764.79,296.75,692.85,358,664.29,441.63c-22.17,65-18,139.33,91,172.83,62.38,19.18,129.4,15.12,190-9.23,35.13-14.13,71.54-35,91.48-65A29.25,29.25,0,0,0,1028.42,499.83Zm-83,39.43a36,36,0,1,1,42.37-28.17A36,36,0,0,1,945.47,539.26Z"></path><path class="cls-6" d="M1031.73,487l-.69-.48c-22-14.95-23.53-47.12-2.8-63.79,17.48-14,36-35.46,26.6-58.47-13.18-32.12-61.15-126.43-200.11-98-86.62,17.69-158.57,78.9-187.13,162.57-22.17,65-18,139.33,91,172.83C821,620.82,888,616.76,948.54,592.41c35.13-14.13,71.55-35,91.49-65A29.26,29.26,0,0,0,1031.73,487Zm-83,39.43a36,36,0,1,1,42.38-28.17A36,36,0,0,1,948.78,526.44Z"></path><polygon class="cls-9" points="984.62 280.55 932.55 463.79 932.55 471.06 974.41 475.38 984.62 280.55"></polygon><path class="cls-4" d="M1027.21,220.91l-27.41-5.52c4.1-12.54,11.57-20.94,18.2-19.61,3.9.79,6.76,4.79,8.24,10.62A45.45,45.45,0,0,1,1027.21,220.91Z"></path><polyline class="cls-14" points="933.68 502.52 982.46 289.96 1015.14 296.54 980.71 509.81"></polyline><path class="cls-7" d="M1015.14,296.53,982.46,290,998,222.34a61.31,61.31,0,0,1,1.82-7l27.41,5.52a61.71,61.71,0,0,1-1,7.11Z"></path><path class="cls-14" d="M1012.05,221.15c-11.25-2.29-19.91-8.26-24.27-17.94-3.77-8.32-4.36-19.37-.69-33.17,5.54-20.86,34.88-43.62,50.8-54.68a2.09,2.09,0,0,1,2.89,2.92c-20.9,29.8-9,39.28.65,51.26,4.11,5.1,7.82,10.66,8.4,18.44C1051.08,204.77,1037.5,226.34,1012.05,221.15Z"></path><ellipse class="cls-15" cx="921.85" cy="310.41" rx="41.56" ry="53" transform="translate(435.51 1152.81) rotate(-78.61)"></ellipse><ellipse class="cls-16" cx="816.43" cy="336" rx="40.84" ry="52.08" transform="translate(325.91 1070.07) rotate(-78.62)"></ellipse><ellipse class="cls-17" cx="756.03" cy="414.3" rx="44.14" ry="56.29" transform="translate(200.64 1073.67) rotate(-78.62)"></ellipse><ellipse class="cls-18" cx="733.59" cy="503.78" rx="39.12" ry="49.89" transform="translate(95.05 1123.63) rotate(-78.63)"></ellipse><ellipse class="cls-19" cx="838.43" cy="557.25" rx="38.16" ry="56.2" transform="translate(126.64 1269.18) rotate(-78.61)"></ellipse><path class="cls-20" d="M760.62,495.86a4.57,4.57,0,0,0-1.35-2q-8.16-7.18-16.32-14.36a4.64,4.64,0,0,0-4.92-.94c-2.75,1-16.43,5.51-20.5,6.9a4.35,4.35,0,0,0-3,3.49q-2.16,10.69-4.31,21.39a4.37,4.37,0,0,0,1.44,4.4c3.23,2.85,14.08,12.34,16.23,14.27a4.66,4.66,0,0,0,4.91,1.05q10.31-3.48,20.6-6.92a4.36,4.36,0,0,0,3-3.5s2.88-14.26,4.31-21.39A4.67,4.67,0,0,0,760.62,495.86ZM732.3,521.57l-.19,0A17.51,17.51,0,0,1,719,509.9l0,0a17.53,17.53,0,0,1,33.23-11.16l-8.34,2.8a8.72,8.72,0,0,0-6.43-5.68l-.09,0A8.74,8.74,0,0,0,727,502.63a8.89,8.89,0,0,0,.26,4.42l0,.05a8.72,8.72,0,0,0,14.84,3h0l6.59,5.82h0A17.57,17.57,0,0,1,732.3,521.57ZM755.21,507l-2.44-.49-.49,2.43,2.43.5-.24,1.22-2.44-.49-.49,2.43-1.22-.24.49-2.44-2.43-.49-.5,2.43-1.21-.24.48-2.43-2.43-.5.24-1.22,2.45.5.48-2.44-2.44-.49.25-1.22,2.44.49.49-2.44,1.22.25-.5,2.44,2.44.48.49-2.43,1.22.25-.49,2.44,2.44.48Zm-6.59,1.21,2.43.49.5-2.43-2.44-.5Z"></path><path class="cls-20" d="M727.29,507.1l0-.05,8.26-2.78,6.6,5.83a8.72,8.72,0,0,1-14.84-3Z"></path><path class="cls-20" d="M755.41,521.83a4.62,4.62,0,0,1-2,1.34q-10.3,3.45-20.6,6.92a4.66,4.66,0,0,1-4.91-1.05c-2.15-1.93-13-11.42-16.23-14.27a4.62,4.62,0,0,1-1.36-2l8.66-2.9,0,0a17.51,17.51,0,0,0,13.16,11.63l.19,0a17.57,17.57,0,0,0,16.43-5.64Z"></path><polygon class="cls-20" points="749.11 505.73 751.55 506.23 751.05 508.66 748.62 508.17 749.11 505.73"></polygon><path class="cls-20" d="M760.62,495.86l-8.46,2.83-8.34,2.8-8.29,2.78,6.6,5.83h0l6.59,5.82h0l6.68,5.9a4.59,4.59,0,0,0,1-2.16s2.88-14.26,4.31-21.39A4.67,4.67,0,0,0,760.62,495.86ZM755.21,507l-2.44-.49-.49,2.43,2.43.5-.24,1.22-2.44-.49-.49,2.43-1.22-.24.49-2.44-2.43-.49-.5,2.43-1.21-.24.48-2.43-2.43-.5.24-1.22,2.45.5.48-2.44-2.44-.49.25-1.22,2.44.49.49-2.44,1.22.25-.5,2.44,2.44.48.49-2.43,1.22.25-.49,2.44,2.44.48Z"></path><g id="layer1"><g id="g1894"><path id="path8615" class="cls-20" d="M754.9,383.71c-13.66-2.75-14,3.34-14,3.34l-1.22,6.14,13,2.63-.37,1.84L734.14,394s-8.54-2.75-11.31,11,4.95,14.82,4.95,14.82l4.55.92,1.28-6.39s1.29-7.68,9-6.12l12.93,2.6s7.24,1.58,8.67-5.55l2.38-11.8S769.17,386.58,754.9,383.71Zm-8,2.68a2.39,2.39,0,1,1-2.82,1.87A2.39,2.39,0,0,1,746.88,386.39Z"></path><path id="path8620" class="cls-20" d="M744.51,437.3c13.66,2.74,14-3.35,14-3.35l1.22-6.14-13-2.62.37-1.84,18.2,3.66s8.54,2.75,11.31-11-5-14.83-5-14.83l-4.55-.91-1.29,6.39s-1.29,7.67-9,6.11l-12.92-2.6s-7.24-1.58-8.67,5.56l-2.38,11.8S730.24,434.42,744.51,437.3Zm8-2.68a2.39,2.39,0,1,1,2.81-1.88A2.38,2.38,0,0,1,752.53,434.62Z"></path></g></g><g id="g4"><g id="g6"><path id="path8" class="cls-20" d="M891.72,290.85l12.17,2.45q5.36,1.13,7.15,4.64t-.08,8.59a16.12,16.12,0,0,1-2.35,4.42,14.19,14.19,0,0,1-3.75,3.57,10.35,10.35,0,0,1-5.46,2,23.19,23.19,0,0,1-5.48-.45l-5.45-1.1L885,323.22,878.7,322l13-31.1m4.27,6.23-5.45,13a3.21,3.21,0,0,0,.53.15l.64.13a24.07,24.07,0,0,0,7.44.6c2.07-.24,3.81-2.18,5.24-5.81,1.18-3.05,1-5-.54-5.8a21.21,21.21,0,0,0-5.9-1.89c-.37,0-.72-.1-1.06-.17l-.95-.19,0,0"></path><path id="path10" class="cls-20" d="M922.18,288l6.26,1.26-3.5,8.27,5.63,1.14c3.07.68,5.25,1.78,6.52,3.29s1.29,3.89,0,7.14L931,323.55l-6.36-1.28,5.8-13.79c.6-1.44.73-2.53.37-3.26s-1.34-1.26-2.94-1.58l-5-1.06-7.47,17.82-6.27-1.26L922.18,288"></path><path id="path12" class="cls-20" d="M945.57,301.7l12.17,2.45q5.35,1.13,7.15,4.63t-.08,8.6a16.21,16.21,0,0,1-2.35,4.41,14.38,14.38,0,0,1-3.75,3.58,10.33,10.33,0,0,1-5.46,2,22.18,22.18,0,0,1-5.48-.45l-5.45-1.09-3.46,8.24-6.31-1.27,13-31.1m4.27,6.22-5.45,13a2.46,2.46,0,0,0,.53.15l.64.13a24.43,24.43,0,0,0,7.44.61c2.07-.25,3.81-2.18,5.24-5.82q1.77-4.58-.54-5.79a20.76,20.76,0,0,0-5.9-1.9c-.37,0-.72-.1-1.06-.16l-1-.2.05,0"></path></g></g><path class="cls-21" d="M802.48,331.23s-1.78.61.88,1.47a24.52,24.52,0,0,0,8.7,1.37,15.77,15.77,0,0,0,2.07,1.58C805.27,337.5,795.72,331.73,802.48,331.23Zm-.08-4.76s-2,1,.62,1.79A34.08,34.08,0,0,0,814.26,330a5,5,0,0,0,1.5,1.39C805.32,332.26,794.88,327.39,802.4,326.47Z"></path><path class="cls-21" d="M812.36,320.42c1.54,2.72-1.41,4.29-1.41,4.29s5.63-1.6,3.95-5.37c-1.57-3.52-2.94-5.39,7.21-8.82C822.11,310.51,807.13,311.2,812.36,320.42Z"></path><path class="cls-21" d="M820,338.26s1,1.21-1.64,1.47c-5,.47-20-2.09-23.74-4.72-1.35-.95,1.61-1.29,2.53-1.3a6,6,0,0,1,1.47.13c-1.42-1.5-11.15.13-5.25,2.35,16.08,6,30.55,4.89,26.63,2.07ZM805.12,322.1s-7.94.27-3.18,1.91a58.18,58.18,0,0,0,10,1.91c3.18.37,6.44.44,6.44.44a13.86,13.86,0,0,0-2.11.63c-8.09.48-22.75-3.45-18.06-4.66a14.62,14.62,0,0,1,6.87-.23Zm12,10.32c8.63-2.48,5.8-7.11,3.17-7.1a7.13,7.13,0,0,0-.94.06,1.52,1.52,0,0,1,.77-.38c5.35-.75,7.79,6.95-3.2,7.6A.83.83,0,0,0,817.17,332.42Z"></path><path class="cls-21" d="M818.6,301s3.46,5.2-6.32,10.16c-7.83,4-3.23,8.07-2.39,11.86-3.23-4.36-5.49-8.07-3-10.6,3.71-3.71,12-4.2,11.67-11.42Z"></path><path class="cls-21" d="M802.14,340.85c7.4,2,19.08,3.56,20.06.07,0,0-.79,1.24-6.68,1.16a62.55,62.55,0,0,1-19-3.53S797.27,339.54,802.14,340.85Z"></path><path class="cls-21" d="M819.81,351l-.23,0,0-.12.62.12,0,.13-.22-.05-.13.64-.16,0Zm1.22.28h0l-.35.56-.11,0-.1-.65h0l-.13.6-.15,0,.16-.77.22.05.1.58.32-.5.22.05-.16.76-.14,0,.12-.6Zm-22.85,2.85a3.45,3.45,0,0,1-2.32.53,1.38,1.38,0,0,1-1.17-1.79c.2-1,.9-1.61,3.12-1.16l.83.16-.46,2.26Zm1.51,2.6,1.37-6.82c.35-1.74-.41-3.09-2.8-3.57a9,9,0,0,0-3.78.05l0,1.27a8.37,8.37,0,0,1,2.91,0c1.38.27,1.86.95,1.63,2.1l-.17.86-.69-.14c-3.36-.67-5.13.32-5.52,2.28-.34,1.68.46,2.84,2.34,3.22a4.41,4.41,0,0,0,3.19-.63l-.05,1.06Zm6.52,1.31-2.44-.49-1-10.13,2.13.43.64,6.23.05,1.84a37.76,37.76,0,0,0,3.43-7.24l2.06.42A39.23,39.23,0,0,1,806.21,358.07Zm9.78-.32a3.51,3.51,0,0,1-2.32.53,1.38,1.38,0,0,1-1.17-1.79c.2-1,.9-1.61,3.12-1.17l.83.17Zm1.51,2.59,1.37-6.81c.36-1.75-.41-3.1-2.8-3.58a9.14,9.14,0,0,0-3.78.06l0,1.26a8.62,8.62,0,0,1,2.91,0c1.38.28,1.86,1,1.63,2.1l-.17.87-.69-.14c-3.36-.68-5.13.32-5.52,2.27-.34,1.69.46,2.85,2.34,3.22A4.41,4.41,0,0,0,816,359L816,360Zm-27.78-3.9a5.27,5.27,0,0,1-2.81,1.33l-.74-1.33a4.13,4.13,0,0,0,2-1.25,6.11,6.11,0,0,0,.92-2.68l2.2-10.89,2.07.41-2.16,10.74C790.78,354.89,790.44,355.72,789.72,356.44Z"></path><path class="cls-20" d="M842.69,551.75l-18.33,7.18,23.83,8.28C846.33,562,844.52,556.88,842.69,551.75Zm13.7-13.24-2.83,2.82L843.85,551c-.18.18-.39.31-.26.67q2.4,6.66,4.77,13.33a15.55,15.55,0,0,0,.87,2.1l7.26-28.58Zm-35.21,5.75a.62.62,0,0,0,.5.21c2.53-.67,5.07-1.31,7.56-2.08a11.25,11.25,0,0,0,2.27-1.3l7.43-4.51a1.35,1.35,0,0,0,.43-.31c1-1.31,2.08-2.64,3.15-4-.84-.52-1.64-1-2.45-1.51-.11-.07-.31,0-.46,0-2.24.73-4.52,1.38-6.72,2.22a19.65,19.65,0,0,0-3.11,1.78q-2.49,1.49-4.95,3a7,7,0,0,0-1.21,1c-1.22,1.18-2.42,2.38-3.66,3.62C820.38,543,820.76,543.66,821.18,544.26Zm8.78-.19c-2.11,4.6-4.22,9.18-6.39,13.9l18.34-7.19Zm10.75-6.27,2.39,12.33L855,538.27Zm-10.36,5.32,11.71,6.59L839.7,537.5Zm-9.56,4-6.49,9.59,8.39,1.44C822.06,554.46,821.44,550.85,820.79,547.11Zm2.49,8.62h.11c1.84-4,3.69-7.9,5.59-12l-7.4,2.13C822.12,549,822.71,552.41,823.28,555.73Zm30.14-18.48-3.78-1.86c-1.82-.89-3.64-1.77-5.45-2.67-.23-.11-.39-.19-.59.07q-1.44,1.88-2.9,3.73a.73.73,0,0,0-.07.2l12.77.62Zm-7.1-4.71,10.27,5.19-.77-5.47-9.46.18ZM843,566.32l-8.67-3c-3.6-1.25-7.19-2.55-10.81-3.73a33,33,0,0,0-4.1-.81c-1.12-.21-2.25-.39-3.38-.58a.46.46,0,0,0-.38.08l27.29,8.17Zm-27.83-12.78,5.26-7.59a.52.52,0,0,0,0-.71c-.4-.58-.76-1.19-1.2-1.87l-4.36,10.35.07.06A1.65,1.65,0,0,0,815.12,553.54Zm29-22.21c2.12-.11,4.25-.11,6.37-.15l.41,0V531l-9-.58A3.35,3.35,0,0,0,844.09,531.33Zm-27.52,38.94-.71,3.57-2-.4,1.88-9.3,2.71.55a4.69,4.69,0,0,1,2.66,1.25,2.8,2.8,0,0,1-.26,3.65,3.05,3.05,0,0,1-1.48.74l1.92,4.6-2.19-.44-1.5-4-1-.21Zm.33-1.6.63.12a2.46,2.46,0,0,0,1.45,0,1.15,1.15,0,0,0,.64-.89,1,1,0,0,0-.27-1,2.75,2.75,0,0,0-1.35-.57l-.6-.12-.5,2.52Zm10.47,7.48-.08-1-.1,0a2.08,2.08,0,0,1-1,.59,3.27,3.27,0,0,1-1.36,0,2.54,2.54,0,0,1-1.75-1,2.73,2.73,0,0,1-.25-2.06l.93-4.64,1.94.39-.83,4.16a2,2,0,0,0,0,1.2,1,1,0,0,0,.79.56A1.36,1.36,0,0,0,827,574a3.52,3.52,0,0,0,.72-1.73l.68-3.35,1.93.39-1.43,7.11-1.48-.3Zm8.93-5.73a2.35,2.35,0,0,1,1.78,1.38,4.6,4.6,0,0,1,.17,2.83,4.5,4.5,0,0,1-1.29,2.58,2.41,2.41,0,0,1-2.19.56,2.37,2.37,0,0,1-1.78-1.3l-.14,0-.48.72-1.48-.3,2-9.89,1.94.39-.46,2.3c-.06.29-.18.76-.36,1.39l.07,0a2.28,2.28,0,0,1,2.23-.65Zm-.93,1.42a1.27,1.27,0,0,0-1.14.23,2.65,2.65,0,0,0-.64,1.39l0,.21a3.09,3.09,0,0,0,0,1.71,1.23,1.23,0,0,0,1,.72,1.1,1.1,0,0,0,1.06-.36,3,3,0,0,0,.67-1.53,2.87,2.87,0,0,0,0-1.65A1.15,1.15,0,0,0,835.37,571.84Zm4-.66,2.12.43.54,4.27a5.55,5.55,0,0,1,0,1.28h0a6,6,0,0,1,.52-1.18l2.12-3.74,2.08.42-4.62,7.42a3.51,3.51,0,0,1-1.51,1.42,3.06,3.06,0,0,1-1.9.2,4.57,4.57,0,0,1-1-.31l.31-1.54a3.67,3.67,0,0,0,.75.24,1.39,1.39,0,0,0,1-.14,2,2,0,0,0,.79-.82l.19-.33Z"></path><path class="cls-5" d="M1041.43,169.54c-6.57,8.35-14.55,13.78-23,8.89-15.89-9.23-26.41,13-30.69,24.78-3.77-8.32-4.36-19.37-.69-33.17,5.54-20.86,34.88-43.62,50.8-54.68a2.09,2.09,0,0,1,2.89,2.92C1019.88,148.08,1031.78,157.56,1041.43,169.54Z"></path><path class="cls-8" d="M921.77,613.63l7.16-2c-13.85,74.67-23.07,126.7-24.53,126.45S909.46,686.82,921.77,613.63Z"></path><path class="cls-8" d="M946.75,517.3c-.49,2.49-1,5-1.44,7.46l-6.92-3.37q.52-2.67,1-5.38c23.44-121.34,44.09-219.42,46.11-219.07S970.19,396,946.75,517.3Z"></path><rect class="cls-22" width="1435" height="859"></rect></g></g></g></svg>