<svg xmlns="http://www.w3.org/2000/svg" viewBox="0 0 1435 859"><defs><style>.cls-1{isolation:isolate;}.cls-2{fill:#d9dee5;}.cls-2,.cls-4,.cls-5{stroke:#24313e;stroke-width:2px;}.cls-10,.cls-2,.cls-4,.cls-5{stroke-miterlimit:10;}.cls-3{fill:#9caab8;mix-blend-mode:multiply;opacity:0.48;}.cls-4{fill:#0c7ff2;}.cls-5{fill:#79b5f2;}.cls-6{fill:#6db0f2;}.cls-7{fill:#9dc7f2;mix-blend-mode:soft-light;opacity:0.59;}.cls-8{fill:#fff;}.cls-9{fill:#22a882;}.cls-10,.cls-12{fill:none;}.cls-10{stroke:#000;}.cls-11{fill:#2edeac;}</style></defs><g class="cls-1"><g id="Layer_2" data-name="Layer 2"><g id="Layer_1-2" data-name="Layer 1"><path class="cls-2" d="M830.06,196.07v393c0,11.21-9.68,20.27-21.63,20.27H512.29c-11.95,0-21.63-9.06-21.63-20.27V277.9a19.55,19.55,0,0,1,5.22-13.21L571,182.86a22.32,22.32,0,0,1,16.39-7h221C820.38,175.82,830.06,184.88,830.06,196.07Z"></path><path class="cls-3" d="M830.06,239.27V609.35c0,11.2-9.68,20.26-21.63,20.26h-264V341.37a19.51,19.51,0,0,1,5.23-13.21l75.09-81.83a22.29,22.29,0,0,1,16.41-7.06Z"></path><path class="cls-4" d="M877.55,672.36H581.42c-11.95,0-21.63-9.07-21.63-20.26V340.91A19.48,19.48,0,0,1,565,327.7l75.09-81.83a22.26,22.26,0,0,1,16.4-7.05h221c12,0,21.63,9.07,21.63,20.26v393C899.18,663.29,889.5,672.36,877.55,672.36Z"></path><path class="cls-5" d="M646,242.71V331.5a1.84,1.84,0,0,1-1.86,1.83L564.66,332a1.83,1.83,0,0,1-1.32-3.06l79.44-87.45A1.83,1.83,0,0,1,646,242.71Z"></path><rect class="cls-6" x="607.34" y="382.62" width="252.13" height="19.93" rx="1.74"></rect><rect class="cls-6" x="607.34" y="424.48" width="252.13" height="19.93" rx="1.74"></rect><rect class="cls-6" x="607.34" y="466.33" width="252.13" height="19.93" rx="1.74"></rect><rect class="cls-6" x="607.34" y="508.19" width="252.13" height="19.93" rx="1.74"></rect><rect class="cls-6" x="607.34" y="550.04" width="252.13" height="19.93" rx="1.74"></rect><rect class="cls-7" x="650.29" y="238.82" width="231.49" height="9.39" rx="3.65"></rect><rect class="cls-7" x="586.64" y="175.17" width="231.49" height="9.39" rx="3.65"></rect><rect class="cls-3" x="588.24" y="661.9" width="300.84" height="9.39" rx="3.65" transform="translate(-4.89 5.46) rotate(-0.42)"></rect><circle class="cls-8" cx="493.5" cy="583.5" r="46"></circle><path class="cls-9" d="M375,591.86a9.41,9.41,0,0,0,8,9.12l15.42,2.32a9.41,9.41,0,0,1,6.64,4.46l21.67,36a9.4,9.4,0,0,1,.8,8l-5.28,14.72a9.41,9.41,0,0,0,4.26,11.37l12.32,6.92c4,2.24,31.76,4.28,34.64.7l-13-15a9.43,9.43,0,0,1,7.16-3.5l42.08-.73a9.42,9.42,0,0,1,7.36,3.38l10.17,12.1c2.95,3.53,34.32,5,38.27,2.72l-14.11-7.77a9.41,9.41,0,0,0,4.05-11.46l-5.39-14.19a9.43,9.43,0,0,1,.58-7.9L572,604.66A9.32,9.32,0,0,1,578.5,600l15.24-2.88a9.41,9.41,0,0,0,7.67-9.41l-.27-14.11a9.41,9.41,0,0,0-8-9.12l-15.39-2.32a9.35,9.35,0,0,1-6.66-4.46l-21.65-36a9.4,9.4,0,0,1-.8-8l5.27-14.72a9.39,9.39,0,0,0-4.27-11.37l12.87-6.06c-4-2.25-34.22-2.12-37.1,1.44l-9.68,12a9.4,9.4,0,0,1-7.15,3.5l-42.09.73a9.44,9.44,0,0,1-7.37-3.36L473.5,481.5c-2.95-3.51-32.55-2.24-36.52.09l-12.19,7.14a9.39,9.39,0,0,0-4.05,11.44l5.38,14.19a9.42,9.42,0,0,1-.56,7.9l-21.4,38.54a9.46,9.46,0,0,1-6.48,4.68l-15.24,2.86a9.4,9.4,0,0,0-7.66,9.41ZM488.15,544a38.73,38.73,0,1,1-38.77,40.13A38.85,38.85,0,0,1,488.15,544Z"></path><path class="cls-10" d="M375,591.86a9.41,9.41,0,0,0,8,9.12l15.42,2.32a9.41,9.41,0,0,1,6.64,4.46l21.67,36a9.4,9.4,0,0,1,.8,8l-5.28,14.72a9.41,9.41,0,0,0,4.26,11.37l12.32,6.92c4,2.24,31.76,4.28,34.64.7l-13-15a9.43,9.43,0,0,1,7.16-3.5l42.08-.73a9.42,9.42,0,0,1,7.36,3.38l10.17,12.1c2.95,3.53,34.32,5,38.27,2.72l-14.11-7.77a9.41,9.41,0,0,0,4.05-11.46l-5.39-14.19a9.43,9.43,0,0,1,.58-7.9L572,604.66A9.32,9.32,0,0,1,578.5,600l15.24-2.88a9.41,9.41,0,0,0,7.67-9.41l-.27-14.11a9.41,9.41,0,0,0-8-9.12l-15.39-2.32a9.35,9.35,0,0,1-6.66-4.46l-21.65-36a9.4,9.4,0,0,1-.8-8l5.27-14.72a9.39,9.39,0,0,0-4.27-11.37l12.87-6.06c-4-2.25-34.22-2.12-37.1,1.44l-9.68,12a9.4,9.4,0,0,1-7.15,3.5l-42.09.73a9.44,9.44,0,0,1-7.37-3.36L473.5,481.5c-2.95-3.51-32.55-2.24-36.52.09l-12.19,7.14a9.39,9.39,0,0,0-4.05,11.44l5.38,14.19a9.42,9.42,0,0,1-.56,7.9l-21.4,38.54a9.46,9.46,0,0,1-6.48,4.68l-15.24,2.86a9.4,9.4,0,0,0-7.66,9.41ZM488.15,544a38.73,38.73,0,1,1-38.77,40.13A38.85,38.85,0,0,1,488.15,544Z"></path><path class="cls-11" d="M403,591.86a9.41,9.41,0,0,0,8,9.12l15.42,2.32a9.41,9.41,0,0,1,6.64,4.46l21.67,36a9.4,9.4,0,0,1,.8,8l-5.28,14.72a9.41,9.41,0,0,0,4.26,11.37l12.32,6.92a9.41,9.41,0,0,0,11.92-2.3l9.68-12a9.43,9.43,0,0,1,7.16-3.5l42.08-.73a9.42,9.42,0,0,1,7.36,3.38l10.17,12.1a9.39,9.39,0,0,0,11.95,2.09l12.21-7.14a9.41,9.41,0,0,0,4.05-11.46l-5.39-14.19a9.43,9.43,0,0,1,.58-7.9L600,604.66A9.32,9.32,0,0,1,606.5,600l15.24-2.88a9.41,9.41,0,0,0,7.67-9.41l-.27-14.11a9.41,9.41,0,0,0-8-9.12l-15.39-2.32a9.35,9.35,0,0,1-6.66-4.46l-21.65-36a9.4,9.4,0,0,1-.8-8l5.27-14.72a9.39,9.39,0,0,0-4.27-11.37l-12.33-6.9a9.37,9.37,0,0,0-11.9,2.28l-9.68,12a9.4,9.4,0,0,1-7.15,3.5l-42.09.73a9.44,9.44,0,0,1-7.37-3.36l-10.17-12.12a9.4,9.4,0,0,0-12-2.07l-12.19,7.14a9.39,9.39,0,0,0-4.05,11.44l5.38,14.19a9.42,9.42,0,0,1-.56,7.9l-21.4,38.54a9.46,9.46,0,0,1-6.48,4.68l-15.24,2.86a9.4,9.4,0,0,0-7.66,9.41ZM516.15,544a38.73,38.73,0,1,1-38.77,40.13A38.85,38.85,0,0,1,516.15,544Z"></path><path class="cls-10" d="M403,591.86a9.41,9.41,0,0,0,8,9.12l15.42,2.32a9.41,9.41,0,0,1,6.64,4.46l21.67,36a9.4,9.4,0,0,1,.8,8l-5.28,14.72a9.41,9.41,0,0,0,4.26,11.37l12.32,6.92a9.41,9.41,0,0,0,11.92-2.3l9.68-12a9.43,9.43,0,0,1,7.16-3.5l42.08-.73a9.42,9.42,0,0,1,7.36,3.38l10.17,12.1a9.39,9.39,0,0,0,11.95,2.09l12.21-7.14a9.41,9.41,0,0,0,4.05-11.46l-5.39-14.19a9.43,9.43,0,0,1,.58-7.9L600,604.66A9.32,9.32,0,0,1,606.5,600l15.24-2.88a9.41,9.41,0,0,0,7.67-9.41l-.27-14.11a9.41,9.41,0,0,0-8-9.12l-15.39-2.32a9.35,9.35,0,0,1-6.66-4.46l-21.65-36a9.4,9.4,0,0,1-.8-8l5.27-14.72a9.39,9.39,0,0,0-4.27-11.37l-12.33-6.9a9.37,9.37,0,0,0-11.9,2.28l-9.68,12a9.4,9.4,0,0,1-7.15,3.5l-42.09.73a9.44,9.44,0,0,1-7.37-3.36l-10.17-12.12a9.4,9.4,0,0,0-12-2.07l-12.19,7.14a9.39,9.39,0,0,0-4.05,11.44l5.38,14.19a9.42,9.42,0,0,1-.56,7.9l-21.4,38.54a9.46,9.46,0,0,1-6.48,4.68l-15.24,2.86a9.4,9.4,0,0,0-7.66,9.41ZM516.15,544a38.73,38.73,0,1,1-38.77,40.13A38.85,38.85,0,0,1,516.15,544Z"></path><rect class="cls-12" width="1435" height="859"></rect></g></g></g></svg>