<svg xmlns="http://www.w3.org/2000/svg" xmlns:xlink="http://www.w3.org/1999/xlink" width="431.209" height="134.64" viewBox="0 0 431.209 134.64"><defs><clipPath id="clip-path"><rect id="Rectangle_2317" data-name="Rectangle 2317" width="112.089" height="90.072" opacity="0.2"></rect></clipPath><linearGradient id="linear-gradient" x1="0.364" y1="0.251" x2="1.034" y2="0.807" gradientUnits="objectBoundingBox"><stop offset="0" stop-color="#01c7d4"></stop><stop offset="1" stop-color="#01c7d4" stop-opacity="0"></stop></linearGradient></defs><g id="cicdillustration001_Artboard_4" data-name="cicdillustration001_Artboard 4" transform="translate(-56.342 -101.153)"><g id="main" transform="translate(49.342 101.153)"><rect id="Rectangle_2316" data-name="Rectangle 2316" width="97.16" height="20.769" transform="translate(96.394 86.236)" fill="#0c7ff2"></rect><g id="Group_1103" data-name="Group 1103" transform="translate(297.833 44.444)"><g id="Group_1096" data-name="Group 1096" transform="translate(14.17)"><path id="Path_35096" data-name="Path 35096" d="M1000.277,423.573H895.252a3.531,3.531,0,0,1-3.532-3.532V333.5h112.089v86.54A3.533,3.533,0,0,1,1000.277,423.573Z" transform="translate(-891.72 -333.5)" fill="#6b7e8f"></path></g><g id="Group_1097" data-name="Group 1097" transform="translate(14.17)"><path id="Path_35097" data-name="Path 35097" d="M952.786,423.573H895.252a3.531,3.531,0,0,1-3.532-3.532V333.5h64.6v86.54A3.535,3.535,0,0,1,952.786,423.573Z" transform="translate(-891.72 -333.5)" fill="#455666"></path></g><g id="Group_1100" data-name="Group 1100" transform="translate(14.17)" opacity="0.2"><g id="Group_1098" data-name="Group 1098" clip-path="url(#clip-path)"><path id="Path_35098" data-name="Path 35098" d="M1159.125,333.5H1111.82l14.661,38.116a1.426,1.426,0,0,0,1.331.912h44.25a1.425,1.425,0,0,0,1.33-1.937Z" transform="translate(-1047.037 -333.5)"></path></g><g id="Group_1099" data-name="Group 1099" clip-path="url(#clip-path)"><path id="Path_35099" data-name="Path 35099" d="M857.105,333.5h64.415L906.86,371.616a1.426,1.426,0,0,1-1.33.912h-61.36a1.425,1.425,0,0,1-1.331-1.937Z" transform="translate(-857.158 -333.5)"></path></g></g><g id="Group_1101" data-name="Group 1101" transform="translate(78.953)"><path id="Path_35100" data-name="Path 35100" d="M1159.125,333.5H1111.82l14.617,28.745a1.429,1.429,0,0,0,1.271.78h44.106a1.427,1.427,0,0,0,1.271-2.072Z" transform="translate(-1111.82 -333.5)" fill="#9caab8"></path></g><g id="Group_1102" data-name="Group 1102"><path id="Path_35101" data-name="Path 35101" d="M857.695,333.5H922.11l-14.617,28.745a1.429,1.429,0,0,1-1.272.78H845.006a1.427,1.427,0,0,1-1.271-2.072Z" transform="translate(-843.578 -333.5)" fill="#9caab8"></path></g></g><g id="Group_1104" data-name="Group 1104" transform="translate(140.373)"><path id="Path_35102" data-name="Path 35102" d="M559.039,265.48a53.506,53.506,0,0,0-53.1,46.93h-5.487a2.535,2.535,0,0,0-2.016,4.073l15.153,19.855a2.535,2.535,0,0,0,4,.034l15.675-19.855a2.535,2.535,0,0,0-1.989-4.107h-4.313a32.739,32.739,0,1,1,32.074,39.314H553v20.769h6.039a53.506,53.506,0,0,0,0-107.013Z" transform="translate(-497.914 -265.48)" fill="url(#linear-gradient)"></path></g><g id="Group_1105" data-name="Group 1105" transform="translate(7 44.444)"><path id="Path_35103" data-name="Path 35103" d="M214.23,397.432l11.7-1.994-.015-12.774-11.737-1.973-10.852-18.772,4.219-11.172.109-6.443H196.5l-7.579,9.054h-21.7l3.578-9.347H159.644L148.5,350.275l3.962,11.021L141.2,380.781l-11.7,1.995.015,12.774,11.737,1.973L152.1,416.3l-4.219,11.172,11.045,6.443h11.151l-3.575-9.054h21.7l7.573,9.347h11.151l-.006-6.265-3.962-11.021Zm-59.146-8.326a22.631,22.631,0,1,1,22.631,22.631A22.632,22.632,0,0,1,155.084,389.107Z" transform="translate(-129.5 -344.007)" fill="#6b7e8f"></path><path id="Path_35104" data-name="Path 35104" d="M251.13,397.425l11.7-1.995-.015-12.774-11.737-1.973-10.852-18.772,4.219-11.172L233.4,344.3l-7.579,9.054h-21.7l-7.57-9.35L185.4,350.265l3.962,11.021L178.1,380.771l-11.7,1.995.015,12.774,11.737,1.973L189,416.285l-4.219,11.172,11.045,6.443,7.579-9.054h21.7l7.573,9.347,11.145-6.265-3.962-11.021ZM191.984,389.1a22.631,22.631,0,1,1,22.631,22.631A22.632,22.632,0,0,1,191.984,389.1Z" transform="translate(-155.249 -344)" fill="#9caab8"></path></g><g id="Group_1107" data-name="Group 1107" transform="translate(192.495 78.632)"><g id="Group_1106" data-name="Group 1106"><rect id="Rectangle_2319" data-name="Rectangle 2319" width="110.675" height="20.769" transform="translate(0 7.604)" fill="#0c7ff2"></rect><path id="Path_35105" data-name="Path 35105" d="M911.713,507.237l19.855-15.153a2.535,2.535,0,0,0,.034-4L911.747,472.4a2.535,2.535,0,0,0-4.107,1.989v30.824A2.535,2.535,0,0,0,911.713,507.237Z" transform="translate(-803.649 -471.853)" fill="#0c7ff2"></path></g></g></g></g></svg>