<svg xmlns="http://www.w3.org/2000/svg" width="318" height="235.147" viewBox="0 0 318 235.147"><g id="automatedeveloperexperience001-01" transform="translate(-0.112 0.101)"><g id="bg"><rect id="Rectangle_2320" data-name="Rectangle 2320" width="318" height="235" transform="translate(0.112 -0.101)" fill="#fff"></rect></g><g id="Layer_3" transform="translate(29.663)"><g id="Group_1109" data-name="Group 1109" transform="translate(112.029 100.531)"><g id="Group_1108" data-name="Group 1108"><path id="Path_35106" data-name="Path 35106" d="M106.6,83.047h16.124c9.841-9.355,12.1-16.124,10.749-17.472s-6.863.815-12.1,4.027c0,0-4.027-6.722-6.722-6.722s-6.722,6.722-6.722,6.722c-6.331-4.341-10.749-5.375-12.1-4.027C94.5,66.923,95.492,72.674,106.6,83.047Z" transform="translate(-87.615 -62.88)" fill="#0d7ff2"></path><path id="Path_35107" data-name="Path 35107" d="M109.41,75.75h16.124s17.472,22.847,18.819,30.916-4.027,18.819-26.889,18.819-28.049-10.718-26.889-18.819C91.938,97.265,109.41,75.75,109.41,75.75Z" transform="translate(-90.424 -55.583)" fill="#0d7ff2"></path></g><path id="Path_35108" data-name="Path 35108" d="M123.026,77.58H101.088a1.124,1.124,0,0,1-1.128-1.128v-.423a1.124,1.124,0,0,1,1.128-1.128h21.938a1.124,1.124,0,0,1,1.128,1.128v.423A1.114,1.114,0,0,1,123.026,77.58Z" transform="translate(-85.017 -56.065)" fill="#0b1c3e"></path></g><g id="Group_1117" data-name="Group 1117" transform="translate(184.658 100.531)"><g id="Group_1110" data-name="Group 1110" transform="translate(4.909 3.86)" opacity="0.3"><path id="Path_35109" data-name="Path 35109" d="M157.29,87.838h-5.183c0-3.887-11.648-7.774-14.894-14.894a28.694,28.694,0,0,1-1.937-14.894h38.845a28.856,28.856,0,0,1-1.937,14.894C168.951,80.064,157.29,83.951,157.29,87.838Z" transform="translate(-135.015 -58.05)" fill="#9caab8"></path><path id="Path_35110" data-name="Path 35110" d="M157.289,80.35h-5.183c0,3.887-11.648,7.774-14.894,14.894a28.856,28.856,0,0,0-1.937,14.894H174.12a28.856,28.856,0,0,0-1.937-14.894C168.937,88.124,157.289,84.237,157.289,80.35Z" transform="translate(-135.014 -50.562)" fill="#9caab8"></path></g><g id="Group_1113" data-name="Group 1113" transform="translate(4.913 3.86)" opacity="0"><g id="Group_1111" data-name="Group 1111"><path id="Path_35111" data-name="Path 35111" d="M142.074,72.944a38.412,38.412,0,0,1-1.429-14.894h-5.37a28.856,28.856,0,0,0,1.937,14.894c3.233,7.12,14.894,11.007,14.894,14.894h.948C153.067,83.951,144.465,80.077,142.074,72.944Z" transform="translate(-135.018 -58.05)" fill="#fff"></path></g><g id="Group_1112" data-name="Group 1112" transform="translate(0 29.788)"><path id="Path_35112" data-name="Path 35112" d="M142.074,95.244c2.391-7.12,10.98-11.007,10.98-14.894h-.948c0,3.887-11.648,7.774-14.894,14.894a28.856,28.856,0,0,0-1.937,14.894h5.37A38.411,38.411,0,0,1,142.074,95.244Z" transform="translate(-135.018 -80.35)" fill="#fff"></path></g></g><g id="Group_1114" data-name="Group 1114" transform="translate(11.644 14.039)"><path id="Path_35113" data-name="Path 35113" d="M154.715,82.688h-3.406c0-2.217-7.668-4.435-9.8-8.509a14.528,14.528,0,0,1-1.282-8.509h25.554a14.409,14.409,0,0,1-1.282,8.509C162.356,78.253,154.715,80.471,154.715,82.688Z" transform="translate(-140.057 -65.67)" fill="#01c7d4"></path><path id="Path_35114" data-name="Path 35114" d="M153.181,94.89h-1.71c0,2.591-9.391,10.353-9.391,10.353h20.478C162.571,105.256,153.181,97.481,153.181,94.89Z" transform="translate(-139.377 -55.858)" fill="#01c7d4"></path><path id="Path_35115" data-name="Path 35115" d="M151.031,100.424h-1.71L148.48,78.41h3.406Z" transform="translate(-137.228 -61.392)" fill="#01c7d4"></path></g><path id="Path_35116" data-name="Path 35116" d="M177.305,61.625H134.573a3.227,3.227,0,0,1-3.233-3.233h0a3.227,3.227,0,0,1,3.233-3.233h42.732a3.227,3.227,0,0,1,3.233,3.233h0A3.244,3.244,0,0,1,177.305,61.625Z" transform="translate(-131.34 -55.16)" fill="#0b1c3e"></path><path id="Path_35117" data-name="Path 35117" d="M177.305,109.115H134.573a3.227,3.227,0,0,1-3.233-3.233h0a3.227,3.227,0,0,1,3.233-3.233h42.732a3.227,3.227,0,0,1,3.233,3.233h0A3.235,3.235,0,0,1,177.305,109.115Z" transform="translate(-131.34 -39.213)" fill="#0b1c3e"></path><g id="Group_1115" data-name="Group 1115" transform="translate(2.578 2.591)" opacity="0.2"><path id="Path_35118" data-name="Path 35118" d="M140.39,58.382h-6.479a.641.641,0,0,1-.641-.641h0a.641.641,0,0,1,.641-.641h6.479a.641.641,0,0,1,.641.641h0A.633.633,0,0,1,140.39,58.382Z" transform="translate(-133.27 -57.1)" fill="#fff"></path><path id="Path_35119" data-name="Path 35119" d="M142,58.382h-1.3a.641.641,0,0,1-.641-.641h0a.641.641,0,0,1,.641-.641H142a.641.641,0,0,1,.641.641h0A.633.633,0,0,1,142,58.382Z" transform="translate(-130.99 -57.1)" fill="#fff"></path></g><g id="Group_1116" data-name="Group 1116" transform="translate(2.578 66.029)" opacity="0.2"><path id="Path_35120" data-name="Path 35120" d="M140.39,105.872h-6.479a.641.641,0,0,1-.641-.641h0a.641.641,0,0,1,.641-.641h6.479a.641.641,0,0,1,.641.641h0A.625.625,0,0,1,140.39,105.872Z" transform="translate(-133.27 -104.59)" fill="#fff"></path><path id="Path_35121" data-name="Path 35121" d="M142,105.872h-1.3a.641.641,0,0,1-.641-.641h0a.641.641,0,0,1,.641-.641H142a.641.641,0,0,1,.641.641h0A.625.625,0,0,1,142,105.872Z" transform="translate(-130.99 -104.59)" fill="#fff"></path></g></g><rect id="Rectangle_2321" data-name="Rectangle 2321" width="9.12" height="36.448" transform="translate(62.695 198.599)" fill="#0b1c3e"></rect><rect id="Rectangle_2322" data-name="Rectangle 2322" width="9.12" height="36.448" transform="translate(239.074 198.599)" fill="#0b1c3e"></rect><path id="Path_35122" data-name="Path 35122" d="M48.325,139.359H299.2V109.43H48.325A14.973,14.973,0,0,0,33.36,124.395h0A14.973,14.973,0,0,0,48.325,139.359Z" transform="translate(-10.749 62.044)" fill="#0d7ff2"></path><g id="Group_1118" data-name="Group 1118" transform="translate(27.281 175.658)"><circle id="Ellipse_954" data-name="Ellipse 954" cx="10.781" cy="10.781" r="10.781" fill="#fff" opacity="0.2"></circle><circle id="Ellipse_955" data-name="Ellipse 955" cx="6.738" cy="6.738" r="6.738" transform="translate(4.043 4.043)" fill="#0b1c3e"></circle><circle id="Ellipse_956" data-name="Ellipse 956" cx="10.781" cy="10.781" r="10.781" transform="translate(230.424)" fill="#fff" opacity="0.2"></circle><circle id="Ellipse_957" data-name="Ellipse 957" cx="6.738" cy="6.738" r="6.738" transform="translate(234.467 4.043)" fill="#0b1c3e"></circle><circle id="Ellipse_958" data-name="Ellipse 958" cx="10.781" cy="10.781" r="10.781" transform="translate(172.822)" fill="#fff" opacity="0.2"></circle><circle id="Ellipse_959" data-name="Ellipse 959" cx="6.738" cy="6.738" r="6.738" transform="translate(176.865 4.043)" fill="#0b1c3e"></circle><circle id="Ellipse_960" data-name="Ellipse 960" cx="10.781" cy="10.781" r="10.781" transform="translate(115.204)" fill="#fff" opacity="0.2"></circle><circle id="Ellipse_961" data-name="Ellipse 961" cx="6.738" cy="6.738" r="6.738" transform="translate(119.247 4.043)" fill="#0b1c3e"></circle><circle id="Ellipse_962" data-name="Ellipse 962" cx="10.781" cy="10.781" r="10.781" transform="translate(57.602)" fill="#fff" opacity="0.2"></circle><circle id="Ellipse_963" data-name="Ellipse 963" cx="6.738" cy="6.738" r="6.738" transform="translate(61.645 4.043)" fill="#0b1c3e"></circle></g><g id="Group_1120" data-name="Group 1120"><g id="Group_1119" data-name="Group 1119" transform="translate(72.833 79.242)" opacity="0.5"><path id="Path_35123" data-name="Path 35123" d="M70.957,57.33l7.286,2.852s-2.178,4.967,2.789,7.145,7.145-2.789,7.145-2.789l4.967,2.178c-1.1,2.492-5.766,6.362-12.52,4.873a9.538,9.538,0,0,1-7.757-9.339L65.41,58.975Z" transform="translate(-65.41 -46.737)" fill="#0d7ff2"></path><path id="Path_35124" data-name="Path 35124" d="M71.363,55.788,78.4,59.235s2.178-4.967,7.145-2.789,2.789,7.145,2.789,7.145L93.3,65.77c1.1-2.491.783-8.54-4.873-12.52a9.544,9.544,0,0,0-12.128.6L68.84,50.57Z" transform="translate(-63.465 -50.57)" fill="#0d7ff2"></path></g><rect id="Rectangle_2323" data-name="Rectangle 2323" width="23.019" height="47.965" transform="translate(30.703 47.97) rotate(180)" fill="#0d7ff2" opacity="0.5"></rect><rect id="Rectangle_2324" data-name="Rectangle 2324" width="23.019" height="47.965" transform="matrix(-0.565, 0.825, -0.825, -0.565, 73.008, 70.352)" fill="#0d7ff2" opacity="0.5"></rect><path id="Path_35125" data-name="Path 35125" d="M22.064,3.839H54.171A3.143,3.143,0,0,0,57.305.705V0H18.93V.705A3.133,3.133,0,0,0,22.064,3.839Z" transform="translate(-18.93)" fill="#0b1c3e"></path><circle id="Ellipse_964" data-name="Ellipse 964" cx="15.356" cy="15.356" r="15.356" transform="translate(3.823 32.609)" fill="#0d7ff2"></circle><circle id="Ellipse_965" data-name="Ellipse 965" cx="9.59" cy="9.59" r="9.59" transform="translate(9.59 38.375)" fill="#fff" opacity="0.2"></circle><circle id="Ellipse_966" data-name="Ellipse 966" cx="5.751" cy="5.751" r="5.751" transform="translate(13.429 42.214)" fill="#0b1c3e"></circle><circle id="Ellipse_967" data-name="Ellipse 967" cx="15.356" cy="15.356" r="15.356" transform="translate(51.146 64.481)" fill="#0d7ff2"></circle><circle id="Ellipse_968" data-name="Ellipse 968" cx="9.59" cy="9.59" r="9.59" transform="translate(56.913 70.248)" fill="#fff" opacity="0.2"></circle><circle id="Ellipse_969" data-name="Ellipse 969" cx="5.751" cy="5.751" r="5.751" transform="translate(60.752 74.087)" fill="#0b1c3e"></circle></g></g></g></svg>