<svg xmlns="http://www.w3.org/2000/svg" width="599" height="195" viewBox="0 0 599 195"><g id="DX" transform="translate(-959.524 -887.075)"><path id="Path_34215" data-name="Path 34215" d="M470.856,94.733v-.988h99.667v.988Z" transform="translate(829.524 815.075)" fill="#c4d0e6" fill-rule="evenodd"></path><path id="Path_34216" data-name="Path 34216" d="M200.856,94.733v-.988h99.663v.988Z" transform="translate(869.524 815.075)" fill="#c4d0e6" fill-rule="evenodd"></path><rect id="Rectangle_2126" data-name="Rectangle 2126" width="140" height="47" rx="6" transform="translate(1188.524 887.075)" fill="#e7eefa"></rect><rect id="Rectangle_2127" data-name="Rectangle 2127" width="140" height="47" rx="6" transform="translate(959.524 887.075)" fill="#e7eefa"></rect><path id="Path_34217" data-name="Path 34217" d="M159,221.381h1V135.007h-1Z" transform="translate(868.524 815.075)" fill="#c4d0e6" fill-rule="evenodd"></path><path id="Path_34218" data-name="Path 34218" d="M159.68,120.379l7.229,13.378a.827.827,0,0,1-.669,1.236H151.769a.827.827,0,0,1-.669-1.236l7.229-13.378A.759.759,0,0,1,159.68,120.379Z" transform="translate(869.524 815.075)" fill="#66b5fb" fill-rule="evenodd"></path><path id="Path_34219" data-name="Path 34219" d="M218.012,212.005v-1.461H710.993v1.461Z" transform="translate(789.524 847.075)" fill="#c4d0e6" fill-rule="evenodd"></path><path id="Path_34220" data-name="Path 34220" d="M700.426,98.986H698.99V202.444h1.436Z" transform="translate(788.524 815.075)" fill="#c4d0e6" fill-rule="evenodd"></path><path id="Path_34221" data-name="Path 34221" d="M698.32,186.621l-7.229-13.382A.827.827,0,0,1,691.76,172h14.471a.827.827,0,0,1,.669,1.237l-7.229,13.382A.759.759,0,0,1,698.32,186.621Z" transform="translate(789.524 843.075)" fill="#66b5fb" fill-rule="evenodd"></path><rect id="Rectangle_2128" data-name="Rectangle 2128" width="140" height="47" rx="6" transform="translate(959.524 1035.075)" fill="#e7eefa"></rect><path id="Path_34222" data-name="Path 34222" d="M188.253,101V95.261q0-2.127-1.582-2.127a1.8,1.8,0,0,0-1.626.764,4.671,4.671,0,0,0-.5,2.479V101h-2.681V87.324h2.681V90.11q0,.326-.062,1.53l-.061.791h.141a3.1,3.1,0,0,1,2.847-1.442,3.483,3.483,0,0,1,2.628.932,3.7,3.7,0,0,1,.9,2.672V101Zm-11.215-5.977a7.783,7.783,0,0,1,1.688.871,2.577,2.577,0,0,1,.791.931,2.879,2.879,0,0,1,.254,1.257,2.707,2.707,0,0,1-1.05,2.3,5.19,5.19,0,0,1-3.142.791,9.926,9.926,0,0,1-1.828-.145,6.893,6.893,0,0,1-1.415-.427V98.39a9.434,9.434,0,0,0,1.683.589,6.821,6.821,0,0,0,1.648.237q1.459,0,1.459-.844a.707.707,0,0,0-.193-.514,2.81,2.81,0,0,0-.668-.448q-.476-.251-1.266-.585a7.924,7.924,0,0,1-1.666-.879,2.469,2.469,0,0,1-.773-.927,3.062,3.062,0,0,1-.242-1.288,2.334,2.334,0,0,1,1.015-2.025,4.944,4.944,0,0,1,2.879-.717,8.166,8.166,0,0,1,3.454.774l-.809,1.933q-.738-.316-1.379-.518a4.331,4.331,0,0,0-1.31-.2q-1.187,0-1.187.641a.754.754,0,0,0,.383.624A10.332,10.332,0,0,0,177.038,95.023Zm-8.27-5.071q-1.46,0-1.459-1.318t1.459-1.31q1.458,0,1.459,1.31a1.276,1.276,0,0,1-.365.971A1.53,1.53,0,0,1,168.768,89.952Zm-6.838-2.628h2.68V101h-2.68Zm-5.994,13.852a3.258,3.258,0,0,1-2.716-1.257h-.185L152.587,101h-2.048V87.324h2.681v3.182q0,.606-.106,1.942h.106a3.1,3.1,0,0,1,2.786-1.459,3.178,3.178,0,0,1,2.724,1.358,6.225,6.225,0,0,1,.985,3.722A6.129,6.129,0,0,1,158.7,99.84,3.286,3.286,0,0,1,155.936,101.176Zm.553-7.317a1.541,1.541,0,0,0-1.344-.725,1.692,1.692,0,0,0-1.451.611,3.505,3.505,0,0,0-.474,2.017v.29a4.135,4.135,0,0,0,.47,2.267,1.678,1.678,0,0,0,1.49.686,1.5,1.5,0,0,0,1.314-.76,4.12,4.12,0,0,0,.487-2.211A3.9,3.9,0,0,0,156.489,93.859ZM145.31,99.743h-.141a2.825,2.825,0,0,1-1.222,1.059,4.17,4.17,0,0,1-1.8.374,3.432,3.432,0,0,1-2.611-.927,3.734,3.734,0,0,1-.879-2.668V91.174h2.681v5.739a2.754,2.754,0,0,0,.378,1.6,1.374,1.374,0,0,0,1.2.532,1.81,1.81,0,0,0,1.626-.751,4.662,4.662,0,0,0,.5-2.492V91.174h2.681V101H145.67Zm-13.8-3.313h-1.169V101h-2.725V88.15h4.105a5.46,5.46,0,0,1,3.555,1.007,3.67,3.67,0,0,1,1.217,3,3.927,3.927,0,0,1-1.3,3.173A5.544,5.544,0,0,1,131.511,96.43Zm1.709-5.59a2.447,2.447,0,0,0-1.639-.457h-1.239V94.2h.9a2.986,2.986,0,0,0,1.881-.5,1.738,1.738,0,0,0,.624-1.446A1.781,1.781,0,0,0,133.22,90.84ZM170.1,101h-2.681V91.174H170.1Z" transform="translate(869.524 815.075)" fill="#3d3d3d" fill-rule="evenodd"></path><path id="Path_34223" data-name="Path 34223" d="M481.13,93.178a4.326,4.326,0,0,0-1.31-.2q-1.187,0-1.186.641a.753.753,0,0,0,.382.624,10.333,10.333,0,0,0,1.674.782,7.783,7.783,0,0,1,1.688.871,2.577,2.577,0,0,1,.791.931,2.865,2.865,0,0,1,.255,1.257,2.707,2.707,0,0,1-1.05,2.3,5.2,5.2,0,0,1-3.143.791,9.934,9.934,0,0,1-1.828-.145,6.912,6.912,0,0,1-1.415-.427V98.39a9.434,9.434,0,0,0,1.683.589,6.828,6.828,0,0,0,1.648.237q1.459,0,1.459-.844a.7.7,0,0,0-.193-.514,2.81,2.81,0,0,0-.668-.448q-.474-.251-1.266-.585a7.911,7.911,0,0,1-1.665-.879,2.462,2.462,0,0,1-.774-.927,3.062,3.062,0,0,1-.241-1.288,2.331,2.331,0,0,1,1.015-2.025,4.941,4.941,0,0,1,2.878-.717,8.163,8.163,0,0,1,3.454.774L482.51,93.7Q481.772,93.38,481.13,93.178Zm-12.4,5.361a2.378,2.378,0,0,0,1.775.642A7.378,7.378,0,0,0,472.183,99a8.368,8.368,0,0,0,1.652-.589v2.074a6.263,6.263,0,0,1-1.5.523,9.42,9.42,0,0,1-1.951.172,5.071,5.071,0,0,1-3.709-1.31,4.956,4.956,0,0,1-1.336-3.709,5.457,5.457,0,0,1,1.235-3.819,4.4,4.4,0,0,1,3.414-1.349,4.331,4.331,0,0,1,3.244,1.187,4.491,4.491,0,0,1,1.16,3.278v1.3h-6.337A2.578,2.578,0,0,0,468.729,98.539Zm3.146-3.568a2.236,2.236,0,0,0-.519-1.534A1.757,1.757,0,0,0,470,92.9a1.7,1.7,0,0,0-1.336.541,2.5,2.5,0,0,0-.554,1.534Zm-8.675-.563a2.983,2.983,0,0,1-1.1,2.466,4.781,4.781,0,0,1-3.063.883l-.483-.027-.4-.043a.891.891,0,0,0-.413.7q0,.579,1.477.58h1.67a3.809,3.809,0,0,1,2.465.694,2.484,2.484,0,0,1,.848,2.039,3.025,3.025,0,0,1-1.437,2.672,7.481,7.481,0,0,1-4.126.949,5.716,5.716,0,0,1-3.142-.716,2.275,2.275,0,0,1-1.086-2.008,2.105,2.105,0,0,1,.554-1.486,3.146,3.146,0,0,1,1.626-.852,1.786,1.786,0,0,1-.721-.576,1.416,1.416,0,0,1,.018-1.784,3.74,3.74,0,0,1,.94-.734A2.639,2.639,0,0,1,455.6,96.1a3.263,3.263,0,0,1-.453-1.741,3.07,3.07,0,0,1,1.046-2.487,4.525,4.525,0,0,1,2.989-.879,7.624,7.624,0,0,1,.98.075c.378.05.619.086.725.11h3.427v1.362l-1.538.4A2.672,2.672,0,0,1,463.2,94.408Zm-6.469,7.981a.973.973,0,0,0,.532.87,2.927,2.927,0,0,0,1.49.316,5.289,5.289,0,0,0,2.259-.395,1.205,1.205,0,0,0,.817-1.081.765.765,0,0,0-.483-.765,3.956,3.956,0,0,0-1.494-.211h-1.389a2.107,2.107,0,0,0-1.235.347A1.073,1.073,0,0,0,456.731,102.389Zm2.453-9.774q-1.477,0-1.477,1.776a2,2,0,0,0,.365,1.265,1.324,1.324,0,0,0,1.112.466,1.3,1.3,0,0,0,1.107-.466,2.054,2.054,0,0,0,.352-1.265Q460.643,92.615,459.184,92.615Zm-8.86,2.646a2.755,2.755,0,0,0-.378-1.6,1.374,1.374,0,0,0-1.2-.532,1.81,1.81,0,0,0-1.626.751,4.662,4.662,0,0,0-.5,2.492V101h-2.68V91.174h2.047l.361,1.257h.149a2.834,2.834,0,0,1,1.235-1.077,4.208,4.208,0,0,1,1.789-.365,3.433,3.433,0,0,1,2.6.928,3.719,3.719,0,0,1,.888,2.676V101h-2.681Zm-11.54,4.4h-.07a3.968,3.968,0,0,1-1.393,1.182,4.5,4.5,0,0,1-1.868.33,3.021,3.021,0,0,1-2.228-.809,3.1,3.1,0,0,1-.813-2.3,2.6,2.6,0,0,1,1.094-2.307,6.338,6.338,0,0,1,3.3-.821l1.7-.053v-.431a1.337,1.337,0,0,0-1.53-1.494,6.959,6.959,0,0,0-2.768.712l-.888-1.811a8,8,0,0,1,3.762-.887,4.687,4.687,0,0,1,3.032.861,3.183,3.183,0,0,1,1.055,2.619V101H439.3Zm-.272-3.217-1.037.035a3.336,3.336,0,0,0-1.741.422,1.326,1.326,0,0,0-.571,1.178q0,1.134,1.3,1.134a2.064,2.064,0,0,0,1.49-.536,1.884,1.884,0,0,0,.558-1.424Zm-10.89-1.186q0-2.127-1.582-2.127a1.8,1.8,0,0,0-1.626.764,4.671,4.671,0,0,0-.5,2.479V101h-2.681V87.324h2.681V90.11q0,.326-.061,1.53l-.062.791h.141a3.1,3.1,0,0,1,2.847-1.442,3.48,3.48,0,0,1,2.628.932,3.7,3.7,0,0,1,.9,2.672V101h-2.681Zm-10.758-4.773a4.323,4.323,0,0,0-1.432-.255,2.777,2.777,0,0,0-2.382,1.156,5.374,5.374,0,0,0-.844,3.221q0,4.3,3.226,4.3a10.174,10.174,0,0,0,3.278-.677v2.286a9.112,9.112,0,0,1-3.533.659,5.388,5.388,0,0,1-4.289-1.7,7.2,7.2,0,0,1-1.486-4.882,7.962,7.962,0,0,1,.73-3.511,5.271,5.271,0,0,1,2.1-2.312,6.2,6.2,0,0,1,3.2-.8,8.648,8.648,0,0,1,3.761.9l-.879,2.215A14.341,14.341,0,0,0,416.864,90.488ZM399.339,88.15h2.724V101h-2.724Zm-7.409,8.28h-1.169V101h-2.725V88.15h4.1a5.46,5.46,0,0,1,3.555,1.007,3.67,3.67,0,0,1,1.217,3,3.927,3.927,0,0,1-1.3,3.173A5.544,5.544,0,0,1,391.93,96.43Zm1.709-5.59A2.449,2.449,0,0,0,392,90.383h-1.239V94.2h.9a2.986,2.986,0,0,0,1.881-.5,1.738,1.738,0,0,0,.624-1.446A1.781,1.781,0,0,0,393.639,90.84Zm-11.087,7.1h-4.685L376.936,101H374l4.535-12.9h3.331l4.553,12.9h-2.936Zm-2.105-6.987c-.109-.363-.186-.65-.233-.861q-.289,1.125-1.661,5.563H381.9Q380.61,91.5,380.447,90.954Z" transform="translate(829.524 815.075)" fill="#3d3d3d" fill-rule="evenodd"></path><path id="Path_34224" data-name="Path 34224" d="M208.966,209.178a4.331,4.331,0,0,0-1.31-.2q-1.187,0-1.186.641a.753.753,0,0,0,.382.624,10.33,10.33,0,0,0,1.674.782,7.783,7.783,0,0,1,1.688.871,2.577,2.577,0,0,1,.791.931,2.865,2.865,0,0,1,.255,1.257,2.7,2.7,0,0,1-1.051,2.3,5.19,5.19,0,0,1-3.142.791,9.927,9.927,0,0,1-1.828-.145,6.913,6.913,0,0,1-1.415-.427V214.39a9.434,9.434,0,0,0,1.683.589,6.828,6.828,0,0,0,1.648.237q1.46,0,1.459-.844a.7.7,0,0,0-.193-.514,2.81,2.81,0,0,0-.668-.448q-.474-.251-1.266-.585a7.885,7.885,0,0,1-1.665-.879,2.462,2.462,0,0,1-.774-.927,3.062,3.062,0,0,1-.241-1.288,2.331,2.331,0,0,1,1.015-2.025,4.941,4.941,0,0,1,2.878-.717,8.163,8.163,0,0,1,3.454.774l-.808,1.933Q209.608,209.38,208.966,209.178Zm-8.5.136a3.815,3.815,0,0,0-1.09-.163q-2.093,0-2.092,2.971,0,2.883,2.092,2.883a4.768,4.768,0,0,0,1.433-.207,5.163,5.163,0,0,0,1.318-.646v2.294a4.33,4.33,0,0,1-1.314.572,7.424,7.424,0,0,1-1.674.158q-4.589,0-4.588-5.036a5.373,5.373,0,0,1,1.248-3.828,4.681,4.681,0,0,1,3.577-1.323,6.827,6.827,0,0,1,3.059.668l-.791,2.074C201.223,209.562,200.83,209.422,200.467,209.314Zm-12.322,7.862a4.934,4.934,0,0,1-2.5-.62,4.125,4.125,0,0,1-1.661-1.78,5.986,5.986,0,0,1-.58-2.707,5.252,5.252,0,0,1,1.257-3.744,4.618,4.618,0,0,1,3.533-1.336,4.956,4.956,0,0,1,2.5.615,4.109,4.109,0,0,1,1.661,1.767,5.923,5.923,0,0,1,.581,2.7,5.278,5.278,0,0,1-1.266,3.753A4.588,4.588,0,0,1,188.145,217.176Zm1.573-7.295a2.018,2.018,0,0,0-3.1,0,4.062,4.062,0,0,0-.474,2.193,4.117,4.117,0,0,0,.479,2.206,1.712,1.712,0,0,0,1.56.747,1.685,1.685,0,0,0,1.542-.742,4.179,4.179,0,0,0,.47-2.211A4.062,4.062,0,0,0,189.718,209.881ZM174.53,217h-3.638V204.15h4.034a6.794,6.794,0,0,1,4.887,1.662,6.109,6.109,0,0,1,1.74,4.64,6.327,6.327,0,0,1-1.806,4.86A7.363,7.363,0,0,1,174.53,217Zm.536-10.617h-1.45v8.367h1.169q3.938,0,3.938-4.228Q178.723,206.383,175.066,206.383Zm-16.9,8.156a2.381,2.381,0,0,0,1.775.642,7.372,7.372,0,0,0,1.679-.185,8.367,8.367,0,0,0,1.652-.589v2.074a6.241,6.241,0,0,1-1.5.523,9.431,9.431,0,0,1-1.952.172,5.073,5.073,0,0,1-3.709-1.31,4.96,4.96,0,0,1-1.336-3.709,5.457,5.457,0,0,1,1.235-3.819,4.4,4.4,0,0,1,3.415-1.349,4.327,4.327,0,0,1,3.243,1.187,4.491,4.491,0,0,1,1.16,3.278v1.3h-6.337A2.583,2.583,0,0,0,158.165,214.539Zm3.147-3.568a2.236,2.236,0,0,0-.519-1.534,1.757,1.757,0,0,0-1.354-.541,1.7,1.7,0,0,0-1.335.541,2.5,2.5,0,0,0-.554,1.534Zm-10.389,6.205a3.011,3.011,0,0,1-2.342-.813,3.535,3.535,0,0,1-.734-2.439v-4.737h-1.284v-1.134l1.477-.9.773-2.074h1.714v2.092h2.751v2.013h-2.751v4.737a1.047,1.047,0,0,0,.321.844,1.27,1.27,0,0,0,.848.272,5.788,5.788,0,0,0,1.688-.308v2A6.033,6.033,0,0,1,150.923,217.176Zm-8.517-1.512h-.07a3.968,3.968,0,0,1-1.393,1.182,4.5,4.5,0,0,1-1.868.33,3.021,3.021,0,0,1-2.228-.809,3.1,3.1,0,0,1-.813-2.3,2.6,2.6,0,0,1,1.094-2.307,6.338,6.338,0,0,1,3.3-.821l1.705-.053v-.431a1.337,1.337,0,0,0-1.53-1.494,6.959,6.959,0,0,0-2.768.712l-.888-1.811a8,8,0,0,1,3.762-.887,4.687,4.687,0,0,1,3.032.861,3.183,3.183,0,0,1,1.055,2.619V217h-1.872Zm-.272-3.217-1.037.035a3.336,3.336,0,0,0-1.741.422,1.326,1.326,0,0,0-.571,1.178q0,1.134,1.3,1.134a2.062,2.062,0,0,0,1.49-.536,1.884,1.884,0,0,0,.558-1.424Zm-13.289,2.092a2.379,2.379,0,0,0,1.775.642A7.378,7.378,0,0,0,132.3,215a8.367,8.367,0,0,0,1.652-.589v2.074a6.264,6.264,0,0,1-1.5.523,9.414,9.414,0,0,1-1.951.172,5.073,5.073,0,0,1-3.709-1.31,4.956,4.956,0,0,1-1.336-3.709,5.457,5.457,0,0,1,1.235-3.819,4.4,4.4,0,0,1,3.415-1.349,4.33,4.33,0,0,1,3.243,1.187,4.491,4.491,0,0,1,1.16,3.278v1.3h-6.337A2.578,2.578,0,0,0,128.845,214.539Zm3.146-3.568a2.236,2.236,0,0,0-.518-1.534,1.759,1.759,0,0,0-1.354-.541,1.7,1.7,0,0,0-1.336.541,2.5,2.5,0,0,0-.554,1.534Zm-8.719-1.477a2.843,2.843,0,0,0-2,.659,2.383,2.383,0,0,0-.716,1.846v5h-2.681v-9.826h2.03l.4,1.652h.132a3.688,3.688,0,0,1,1.234-1.331,3.047,3.047,0,0,1,1.692-.506,4.383,4.383,0,0,1,.906.079l-.2,2.514A3.09,3.09,0,0,0,123.272,209.494Zm-9.764-3.006a4.328,4.328,0,0,0-1.433-.255,2.779,2.779,0,0,0-2.382,1.156,5.381,5.381,0,0,0-.843,3.221q0,4.3,3.225,4.3a10.185,10.185,0,0,0,3.279-.677v2.286a9.117,9.117,0,0,1-3.534.659,5.388,5.388,0,0,1-4.289-1.7,7.2,7.2,0,0,1-1.485-4.882,7.976,7.976,0,0,1,.729-3.511,5.273,5.273,0,0,1,2.1-2.312,6.2,6.2,0,0,1,3.2-.8,8.655,8.655,0,0,1,3.762.9l-.879,2.215A14.535,14.535,0,0,0,113.508,206.488Z" transform="translate(869.524 847.075)" fill="#3d3d3d" fill-rule="evenodd"></path><rect id="Rectangle_2129" data-name="Rectangle 2129" width="140" height="47" rx="6" transform="translate(1418.524 1035.075)" fill="#e7eefa"></rect><rect id="Rectangle_2130" data-name="Rectangle 2130" width="140" height="47" rx="6" transform="translate(1418.524 887.075)" fill="#e7eefa"></rect><path id="Path_34225" data-name="Path 34225" d="M737.687,217h-3.094l-3.366-5.414-1.152.826V217h-2.724V204.15h2.724v5.88l1.072-1.511,3.481-4.369h3.023l-4.482,5.687Zm-20.022,0h-3.639V204.15h4.035a6.79,6.79,0,0,1,4.886,1.662,6.109,6.109,0,0,1,1.74,4.64,6.327,6.327,0,0,1-1.806,4.86A7.361,7.361,0,0,1,717.665,217Zm.536-10.617h-1.45v8.367h1.169q3.938,0,3.937-4.228Q721.857,206.383,718.2,206.383Zm-11.368,2.3a16.4,16.4,0,0,0,1.727.9,6.866,6.866,0,0,1,2.469,1.727,3.367,3.367,0,0,1,.668,2.123,3.321,3.321,0,0,1-1.252,2.742,5.441,5.441,0,0,1-3.485,1,8.182,8.182,0,0,1-3.639-.774v-2.531a14.909,14.909,0,0,0,2.2.817,6.479,6.479,0,0,0,1.648.238,2.336,2.336,0,0,0,1.375-.343,1.171,1.171,0,0,0,.479-1.02,1.123,1.123,0,0,0-.211-.672,2.366,2.366,0,0,0-.619-.567,16.262,16.262,0,0,0-1.666-.87,7.869,7.869,0,0,1-1.766-1.063,4,4,0,0,1-.941-1.187,3.388,3.388,0,0,1-.351-1.582,3.323,3.323,0,0,1,1.155-2.681,4.807,4.807,0,0,1,3.2-.975,7.559,7.559,0,0,1,1.912.237,13.142,13.142,0,0,1,1.9.668l-.879,2.118a13.038,13.038,0,0,0-1.7-.589,5.49,5.49,0,0,0-1.323-.167,1.752,1.752,0,0,0-1.186.361,1.185,1.185,0,0,0-.413.94,1.159,1.159,0,0,0,.167.629A1.83,1.83,0,0,0,706.833,208.681Zm-12.055,8.495a3.011,3.011,0,0,1-2.342-.813,3.54,3.54,0,0,1-.734-2.439v-4.737h-1.283v-1.134l1.477-.9.773-2.074h1.714v2.092h2.751v2.013h-2.751v4.737a1.047,1.047,0,0,0,.321.844,1.266,1.266,0,0,0,.848.272,5.782,5.782,0,0,0,1.687-.308v2A6.03,6.03,0,0,1,694.778,217.176Zm-8.191-6.153a7.77,7.77,0,0,1,1.687.871,2.567,2.567,0,0,1,.791.931,2.865,2.865,0,0,1,.255,1.257,2.707,2.707,0,0,1-1.05,2.3,5.192,5.192,0,0,1-3.142.791,9.928,9.928,0,0,1-1.828-.145,6.893,6.893,0,0,1-1.415-.427V214.39a9.433,9.433,0,0,0,1.683.589,6.822,6.822,0,0,0,1.648.237q1.458,0,1.459-.844a.7.7,0,0,0-.194-.514,2.789,2.789,0,0,0-.668-.448q-.474-.251-1.265-.585a7.923,7.923,0,0,1-1.666-.879,2.469,2.469,0,0,1-.773-.927,3.062,3.062,0,0,1-.242-1.288,2.334,2.334,0,0,1,1.015-2.025,4.942,4.942,0,0,1,2.879-.717,8.167,8.167,0,0,1,3.454.774l-.809,1.933q-.738-.316-1.38-.518a4.32,4.32,0,0,0-1.309-.2q-1.186,0-1.187.641a.754.754,0,0,0,.383.624A10.286,10.286,0,0,0,686.587,211.023Zm-11.962,3.516a2.381,2.381,0,0,0,1.775.642,7.371,7.371,0,0,0,1.679-.185,8.368,8.368,0,0,0,1.652-.589v2.074a6.241,6.241,0,0,1-1.5.523,9.431,9.431,0,0,1-1.952.172,5.073,5.073,0,0,1-3.709-1.31,4.96,4.96,0,0,1-1.336-3.709,5.457,5.457,0,0,1,1.235-3.819,4.4,4.4,0,0,1,3.415-1.349,4.327,4.327,0,0,1,3.243,1.187,4.491,4.491,0,0,1,1.16,3.278v1.3h-6.337A2.578,2.578,0,0,0,674.625,214.539Zm3.146-3.568a2.231,2.231,0,0,0-.518-1.534,1.757,1.757,0,0,0-1.354-.541,1.7,1.7,0,0,0-1.336.541,2.5,2.5,0,0,0-.553,1.534ZM666.574,217H663.85V206.418h-3.49V204.15h9.7v2.268h-3.489Z" transform="translate(789.524 847.075)" fill="#3d3d3d" fill-rule="evenodd"></path><path id="Path_34226" data-name="Path 34226" d="M754.729,101h-3.094l-3.366-5.414-1.152.826V101h-2.724V88.15h2.724v5.88l1.072-1.511,3.481-4.369h3.023l-4.482,5.687Zm-20.022,0h-3.639V88.15H735.1a6.79,6.79,0,0,1,4.886,1.662,6.109,6.109,0,0,1,1.74,4.64,6.33,6.33,0,0,1-1.806,4.861A7.365,7.365,0,0,1,734.707,101Zm.536-10.617h-1.45V98.75h1.169q3.938,0,3.937-4.228Q738.9,90.383,735.243,90.383Zm-11.368,2.3a16.4,16.4,0,0,0,1.727.9,6.866,6.866,0,0,1,2.469,1.727,3.367,3.367,0,0,1,.668,2.123,3.321,3.321,0,0,1-1.252,2.742,5.441,5.441,0,0,1-3.485,1,8.182,8.182,0,0,1-3.639-.774V97.871a14.908,14.908,0,0,0,2.2.817,6.479,6.479,0,0,0,1.648.238,2.336,2.336,0,0,0,1.375-.343,1.171,1.171,0,0,0,.479-1.02,1.123,1.123,0,0,0-.211-.672,2.366,2.366,0,0,0-.619-.567,16.261,16.261,0,0,0-1.666-.87,7.869,7.869,0,0,1-1.766-1.063,4,4,0,0,1-.941-1.187,3.388,3.388,0,0,1-.351-1.582,3.323,3.323,0,0,1,1.155-2.681,4.806,4.806,0,0,1,3.195-.975,7.559,7.559,0,0,1,1.912.237,13.145,13.145,0,0,1,1.9.668l-.879,2.118a13.038,13.038,0,0,0-1.7-.589,5.489,5.489,0,0,0-1.323-.167,1.752,1.752,0,0,0-1.186.361,1.185,1.185,0,0,0-.413.94,1.159,1.159,0,0,0,.167.629A1.83,1.83,0,0,0,723.875,92.681Zm-11.6,7.888a3.361,3.361,0,0,1-2,.607,3.257,3.257,0,0,1-2.715-1.257h-.141q.141,1.23.141,1.424v3.981h-2.681V91.174h2.18l.378,1.274h.123a3.1,3.1,0,0,1,2.786-1.459,3.189,3.189,0,0,1,2.724,1.345,6.214,6.214,0,0,1,.985,3.735,7.373,7.373,0,0,1-.462,2.734A3.824,3.824,0,0,1,712.277,100.569Zm-1.4-6.71a1.512,1.512,0,0,0-1.393-.725,1.691,1.691,0,0,0-1.45.611,3.5,3.5,0,0,0-.474,2.017v.29a4.134,4.134,0,0,0,.47,2.267,1.678,1.678,0,0,0,1.49.686q1.8,0,1.8-2.971A4.238,4.238,0,0,0,710.875,93.859Zm-13,7.317a4.933,4.933,0,0,1-2.5-.62,4.12,4.12,0,0,1-1.661-1.78,5.973,5.973,0,0,1-.58-2.707,5.252,5.252,0,0,1,1.257-3.744,4.615,4.615,0,0,1,3.533-1.336,4.961,4.961,0,0,1,2.5.615,4.115,4.115,0,0,1,1.661,1.767,5.922,5.922,0,0,1,.58,2.7,5.278,5.278,0,0,1-1.266,3.753A4.585,4.585,0,0,1,697.872,101.176Zm1.573-7.3a2.017,2.017,0,0,0-3.1,0,4.052,4.052,0,0,0-.475,2.193,4.126,4.126,0,0,0,.479,2.206,1.713,1.713,0,0,0,1.56.747,1.687,1.687,0,0,0,1.543-.742,4.189,4.189,0,0,0,.47-2.211A4.052,4.052,0,0,0,699.445,93.881Zm-11.206-6.557h2.681V101h-2.681ZM680.4,98.539a2.382,2.382,0,0,0,1.776.642A7.378,7.378,0,0,0,683.854,99a8.367,8.367,0,0,0,1.652-.589v2.074A6.263,6.263,0,0,1,684,101a9.421,9.421,0,0,1-1.951.172,5.071,5.071,0,0,1-3.709-1.31,4.956,4.956,0,0,1-1.336-3.709,5.452,5.452,0,0,1,1.235-3.819,4.4,4.4,0,0,1,3.414-1.349,4.327,4.327,0,0,1,3.243,1.187,4.487,4.487,0,0,1,1.161,3.278v1.3h-6.337A2.582,2.582,0,0,0,680.4,98.539Zm3.147-3.568a2.236,2.236,0,0,0-.519-1.534,1.757,1.757,0,0,0-1.353-.541,1.7,1.7,0,0,0-1.336.541,2.5,2.5,0,0,0-.554,1.534ZM669.7,101l-3.744-9.826h2.8l1.9,5.6a10.006,10.006,0,0,1,.4,2.013h.052a8.774,8.774,0,0,1,.4-2.013l1.89-5.6h2.8L672.454,101Zm-10.178-2.461a2.382,2.382,0,0,0,1.776.642A7.363,7.363,0,0,0,662.979,99a8.353,8.353,0,0,0,1.653-.589v2.074a6.264,6.264,0,0,1-1.5.523,9.421,9.421,0,0,1-1.951.172,5.071,5.071,0,0,1-3.709-1.31,4.956,4.956,0,0,1-1.336-3.709,5.452,5.452,0,0,1,1.235-3.819,4.4,4.4,0,0,1,3.414-1.349,4.327,4.327,0,0,1,3.243,1.187,4.487,4.487,0,0,1,1.161,3.278v1.3h-6.337A2.582,2.582,0,0,0,659.525,98.539Zm3.147-3.568a2.237,2.237,0,0,0-.519-1.534A1.757,1.757,0,0,0,660.8,92.9a1.7,1.7,0,0,0-1.336.541,2.5,2.5,0,0,0-.554,1.534ZM647.256,101h-3.639V88.15h4.034a6.791,6.791,0,0,1,4.887,1.662,6.109,6.109,0,0,1,1.74,4.64,6.33,6.33,0,0,1-1.806,4.861A7.365,7.365,0,0,1,647.256,101Zm.536-10.617h-1.45V98.75h1.169q3.938,0,3.937-4.228Q651.448,90.383,647.792,90.383Z" transform="translate(789.524 815.075)" fill="#3d3d3d" fill-rule="evenodd"></path><path id="Path_34227" data-name="Path 34227" d="M421.41,210.32l13.342-7.229a.825.825,0,0,1,1.233.669v14.471a.825.825,0,0,1-1.233.669l-13.342-7.229A.761.761,0,0,1,421.41,210.32Z" transform="translate(829.524 847.075)" fill="#66b5fb" fill-rule="evenodd"></path><path id="Path_34228" data-name="Path 34228" d="M357.62,93.32l-13.369-7.229a.827.827,0,0,0-1.236.669v14.471a.827.827,0,0,0,1.236.669l13.369-7.229A.76.76,0,0,0,357.62,93.32Z" transform="translate(819.524 815.075)" fill="#66b5fb" fill-rule="evenodd"></path><path id="Path_34229" data-name="Path 34229" d="M627.62,93.32l-13.369-7.229a.827.827,0,0,0-1.236.669v14.471a.827.827,0,0,0,1.236.669l13.369-7.229A.76.76,0,0,0,627.62,93.32Z" transform="translate(779.524 815.075)" fill="#66b5fb" fill-rule="evenodd"></path></g></svg>