<svg xmlns="http://www.w3.org/2000/svg" viewBox="0 0 1443 864"><defs><style>.cls-1{isolation:isolate;}.cls-18,.cls-2{fill:none;}.cls-14,.cls-19,.cls-3{mix-blend-mode:overlay;}.cls-3{opacity:0.1;}.cls-4{fill:#455666;}.cls-10,.cls-4,.cls-5,.cls-6,.cls-8{stroke:#24313e;}.cls-10,.cls-13,.cls-16,.cls-4,.cls-5,.cls-6,.cls-8{stroke-miterlimit:10;}.cls-10,.cls-13,.cls-15,.cls-16,.cls-18,.cls-4,.cls-5,.cls-6,.cls-8{stroke-width:2px;}.cls-5{fill:#3ab2d0;}.cls-6{fill:#f5f7f9;}.cls-16,.cls-7{fill:#24313e;}.cls-7{mix-blend-mode:multiply;opacity:0.24;}.cls-8,.cls-9{fill:#0c7ff2;}.cls-10,.cls-12,.cls-19{fill:#ebf0f5;}.cls-11,.cls-13{fill:#9caab8;}.cls-13,.cls-15,.cls-16,.cls-18{stroke:#031439;}.cls-14{opacity:0.38;}.cls-15,.cls-17{fill:#fff;}.cls-15,.cls-18{stroke-linecap:round;stroke-linejoin:round;}.cls-19{opacity:0.21;}</style></defs><g class="cls-1"><g id="Layer_2" data-name="Layer 2"><g id="Layer_1-2" data-name="Layer 1"><rect class="cls-2" width="1443" height="864"></rect><ellipse class="cls-3" cx="689.84" cy="638.77" rx="367.15" ry="10.58"></ellipse><path class="cls-4" d="M1001.17,275.62l-.36,76.77L999.5,638.82l-236.07-1.09-358.19-1.64a42.59,42.59,0,0,1-42.39-42.79l1.46-317.68Z"></path><path class="cls-5" d="M1001.44,218.37l-.27,59.94H364.31l.28-62.81A20.19,20.19,0,0,1,385,195.56l596.14,2.69A20.19,20.19,0,0,1,1001.44,218.37Z"></path><path class="cls-6" d="M993.53,250.46l-1.64,355.72A32.74,32.74,0,0,1,959,638.77l-571.36-2.62a32.75,32.75,0,0,1-32.6-32.9l1.64-355.72a53.33,53.33,0,0,1,53.58-53.09l530.18,2.44"></path><path class="cls-7" d="M993.53,276.33c0,1.28-142.59,3.74-318.49,3.74s-318.49-2.46-318.49-3.74,142.59-.91,318.49-.91S993.53,275,993.53,276.33Z"></path><path class="cls-8" d="M384.17,196.11h582a27.44,27.44,0,0,1,27.44,27.44V277a0,0,0,0,1,0,0H356.73a0,0,0,0,1,0,0V223.54A27.44,27.44,0,0,1,384.17,196.11Z" transform="translate(1.09 -3.1) rotate(0.26)"></path><rect class="cls-9" x="382.01" y="295.03" width="72.77" height="26.5" rx="4.54" transform="matrix(1, 0, 0, 1, 1.42, -1.92)"></rect><rect class="cls-5" x="382.35" y="218.7" width="93.94" height="33.02" rx="16.51" transform="translate(1.09 -1.97) rotate(0.26)"></rect><rect class="cls-10" x="807.47" y="220.65" width="93.94" height="33.02" rx="16.51" transform="translate(1.1 -3.92) rotate(0.26)"></rect><rect class="cls-10" x="924.1" y="221.05" width="33.27" height="33.02" rx="16.51" transform="translate(1.1 -4.32) rotate(0.26)"></rect><rect class="cls-11" x="381.77" y="348.08" width="151.34" height="25.48" rx="4.36" transform="translate(1.66 -2.1) rotate(0.26)"></rect><rect class="cls-12" x="381.6" y="388.71" width="151.34" height="18.67" rx="4.36" transform="translate(1.83 -2.1) rotate(0.26)"></rect><rect class="cls-12" x="381.46" y="420.58" width="98.62" height="16.22" rx="3.79" transform="translate(1.97 -1.98) rotate(0.26)"></rect><rect class="cls-12" x="381.34" y="447.24" width="159.17" height="16.22" rx="3.79" transform="translate(2.1 -2.11) rotate(0.26)"></rect><rect class="cls-12" x="381.2" y="475.78" width="98.62" height="16.22" rx="3.79" transform="translate(2.23 -1.97) rotate(0.26)"></rect><rect class="cls-12" x="381.08" y="502.44" width="159.17" height="16.22" rx="3.79" transform="translate(2.35 -2.11) rotate(0.26)"></rect><rect class="cls-9" x="472.7" y="295.44" width="72.77" height="26.5" rx="4.54" transform="translate(1.42 -2.34) rotate(0.26)"></rect><rect class="cls-12" x="585.77" y="296.07" width="120.87" height="26.5" rx="4.54" transform="translate(1.43 -2.97) rotate(0.26)"></rect><rect class="cls-9" x="866.83" y="294.84" width="100.65" height="26.5" rx="4.54" transform="translate(1.43 -4.21) rotate(0.26)"></rect><rect class="cls-13" x="582.56" y="340.78" width="383.05" height="297.98" rx="9.02" transform="matrix(1, 0, 0, 1, 2.26, -3.55)"></rect><rect class="cls-12" x="603.9" y="367.43" width="120.87" height="26.5" rx="4.54" transform="translate(1.76 -3.05) rotate(0.26)"></rect><rect class="cls-12" x="603.5" y="414.57" width="341.91" height="106.32" rx="13.65" transform="translate(2.16 -3.56) rotate(0.26)"></rect><path class="cls-14" d="M1002.27,321.47,1001,638.68l-183.19-1.09C765.1,609.86,747,540,747,500.91c0-107.28,87-194.25,194.25-194.25C967.6,306.66,979.32,311.93,1002.27,321.47Z"></path><ellipse class="cls-3" cx="945.08" cy="659.27" rx="94.44" ry="10.58"></ellipse><circle class="cls-8" cx="948.04" cy="493.87" r="172.2"></circle><circle class="cls-5" cx="933.43" cy="493.87" r="172.2"></circle><path class="cls-15" d="M986,485.13l-61.65-35.59-61.66,35.59v66.71a7.77,7.77,0,0,0,3.89,6.73l53.88,31.11a7.81,7.81,0,0,0,7.77,0l53.89-31.11a7.79,7.79,0,0,0,3.88-6.73Z"></path><path class="cls-15" d="M952,544.33,992.58,520a11.38,11.38,0,0,0,4.12-15.2L986,485.13l-60.07,36.12L936.18,540A11.37,11.37,0,0,0,952,544.33Z"></path><line class="cls-15" x1="847.02" y1="494.18" x2="924.35" y2="449.54"></line><polygon class="cls-16" points="924.35 449.54 986 485.13 925.93 521.25 862.69 485.13 924.35 449.54"></polygon><path class="cls-17" d="M963.84,453.64l6.39-1.2a3.94,3.94,0,0,0,3.21-3.95l-.11-5.91a3.94,3.94,0,0,0-3.36-3.83l-6.45-1a3.91,3.91,0,0,1-2.79-1.87l-9.08-15.1a4,4,0,0,1-.34-3.36l2.21-6.17a3.94,3.94,0,0,0-1.78-4.77l-5.17-2.89a3.94,3.94,0,0,0-5,1l-4.05,5a4,4,0,0,1-3,1.46l-17.64.31a4,4,0,0,1-3.09-1.41l-4.27-5.08a3.93,3.93,0,0,0-5-.87l-5.11,3a3.94,3.94,0,0,0-1.7,4.8l2.26,5.95a4,4,0,0,1-.24,3.32l-9,16.15a4,4,0,0,1-2.72,2l-6.39,1.2a4,4,0,0,0-3.21,3.95l.11,5.91a3.94,3.94,0,0,0,3.35,3.83l6.46,1a3.91,3.91,0,0,1,2.79,1.87l9.08,15.1a4,4,0,0,1,.34,3.36l-2.21,6.17a3.94,3.94,0,0,0,1.78,4.77l5.17,2.89a3.94,3.94,0,0,0,5-1l4.05-5a4,4,0,0,1,3-1.46l17.64-.3a3.94,3.94,0,0,1,3.09,1.4l4.27,5.09a3.94,3.94,0,0,0,5,.86l5.11-3a3.94,3.94,0,0,0,1.7-4.8l-2.26-5.95a4,4,0,0,1,.24-3.31l9-16.16A4,4,0,0,1,963.84,453.64ZM909.71,447a16.24,16.24,0,1,1,16.2,15.65A16.24,16.24,0,0,1,909.71,447Z"></path><path class="cls-18" d="M963.84,453.64l6.39-1.2a3.94,3.94,0,0,0,3.21-3.95l-.11-5.91a3.94,3.94,0,0,0-3.36-3.83l-6.45-1a3.91,3.91,0,0,1-2.79-1.87l-9.08-15.1a4,4,0,0,1-.34-3.36l2.21-6.17a3.94,3.94,0,0,0-1.78-4.77l-5.17-2.89a3.94,3.94,0,0,0-5,1l-4.05,5a4,4,0,0,1-3,1.46l-17.64.31a4,4,0,0,1-3.09-1.41l-4.27-5.08a3.93,3.93,0,0,0-5-.87l-5.11,3a3.94,3.94,0,0,0-1.7,4.8l2.26,5.95a4,4,0,0,1-.24,3.32l-9,16.15a4,4,0,0,1-2.72,2l-6.39,1.2a4,4,0,0,0-3.21,3.95l.11,5.91a3.94,3.94,0,0,0,3.35,3.83l6.46,1a3.91,3.91,0,0,1,2.79,1.87l9.08,15.1a4,4,0,0,1,.34,3.36l-2.21,6.17a3.94,3.94,0,0,0,1.78,4.77l5.17,2.89a3.94,3.94,0,0,0,5-1l4.05-5a4,4,0,0,1,3-1.46l17.64-.3a3.94,3.94,0,0,1,3.09,1.4l4.27,5.09a3.94,3.94,0,0,0,5,.86l5.11-3a3.94,3.94,0,0,0,1.7-4.8l-2.26-5.95a4,4,0,0,1,.24-3.31l9-16.16A4,4,0,0,1,963.84,453.64ZM909.71,447a16.24,16.24,0,1,1,16.2,15.65A16.24,16.24,0,0,1,909.71,447Z"></path><ellipse class="cls-5" cx="925.94" cy="446.41" rx="16.24" ry="16.23" transform="translate(-37.49 804.81) rotate(-46.15)"></ellipse><path class="cls-19" d="M1074.41,395A172.21,172.21,0,0,0,801.19,604.17,172.21,172.21,0,1,1,1074.41,395Z"></path><path class="cls-19" d="M969.68,198.2c0,5.75-132,6.19-294.78,6.19s-294.77-1-294.77-6.77,131,.36,293.81.36S969.68,192.45,969.68,198.2Z"></path><rect class="cls-19" x="384.4" y="295.37" width="66.65" height="2.33" rx="1.17"></rect><rect class="cls-7" x="384.4" y="318.38" width="68.61" height="2.33" rx="1.17"></rect><rect class="cls-19" x="475.59" y="296.34" width="66.65" height="2.33" rx="1.17"></rect><rect class="cls-7" x="475.59" y="319.34" width="68.61" height="2.33" rx="1.17"></rect><rect class="cls-19" x="384.4" y="348.15" width="143.22" height="2.33" rx="1.17"></rect><rect class="cls-7" x="384.4" y="371.15" width="147.42" height="2.33" rx="1.17"></rect><ellipse class="cls-19" cx="429.15" cy="220.79" rx="33.87" ry="1.84"></ellipse><ellipse class="cls-7" cx="429.15" cy="249.88" rx="33.87" ry="1.84"></ellipse></g></g></g></svg>