<svg xmlns="http://www.w3.org/2000/svg" width="128.997" height="83.824" viewBox="0 0 128.997 83.824"><defs><style>.a{fill:#455666;}.b{fill:#24313e;}.c{fill:#ebf0f5;}.d{fill:#0062ff;}.e{fill:#0c7ff2;}.f{fill:#f4e969;}</style></defs><g transform="translate(-3866.581 2350.746)"><g transform="translate(3866.581 -2350.746)"><path class="a" d="M3980.761-2311.741l-.763.668-.763.668-.763.668-.763.668h0l-.013,0-.023,0-.033,0c-.125-.02-.407-.061-.836-.115s-1.006-.124-1.721-.2-1.57-.155-2.555-.235-2.1-.157-3.337-.225c-3.767-.2-8.664-.321-14.446-.126a184.878,184.878,0,0,0-19.762,1.742,184.7,184.7,0,0,0-23.613,4.946,177.338,177.338,0,0,0-26,9.483,14.992,14.992,0,0,1-2.309.358,16.764,16.764,0,0,1-5.279-.358,11.74,11.74,0,0,1-5.779-3.22,15.2,15.2,0,0,1-3.81-8.23s1.873-2.027,5.288-5.217a181.83,181.83,0,0,1,14.546-12.192,164.882,164.882,0,0,1,21.826-13.981,119,119,0,0,1,27.128-10.582c9.707-2.386,17.654-2.481,24.115-1.283a36.289,36.289,0,0,1,15.2,6.48,33.942,33.942,0,0,1,7.918,8.27,23.892,23.892,0,0,1,2.276,4.084,14.738,14.738,0,0,1,.823,2,16.608,16.608,0,0,1,.9,4.823,11.213,11.213,0,0,1-1.394,5.9A12.959,12.959,0,0,1,3980.761-2311.741Z" transform="translate(-3867.947 2349.485)"></path><path class="b" d="M3880.15-2294.416a17.248,17.248,0,0,1-1.818-.095,15.449,15.449,0,0,1-1.976-.339,12.023,12.023,0,0,1-5.733-3.145,15.274,15.274,0,0,1-4.023-8.485l-.01-.054-.01-.054.038-.041.037-.041c.037-.041,1.949-2.1,5.378-5.3a182.413,182.413,0,0,1,14.485-12.14q5.382-4.055,10.871-7.572t10.984-6.428a130.846,130.846,0,0,1,13.7-6.3,108.214,108.214,0,0,1,13.482-4.3,68.855,68.855,0,0,1,12.746-1.961,48.7,48.7,0,0,1,11.464.675,38.763,38.763,0,0,1,8.153,2.438,34.961,34.961,0,0,1,7.138,4.083,34.206,34.206,0,0,1,7.833,8.136,25.25,25.25,0,0,1,2.431,4.3,15.111,15.111,0,0,1,.88,2.153,16.736,16.736,0,0,1,.859,4.757,11.5,11.5,0,0,1-1.339,5.838,13.05,13.05,0,0,1-6.2,5.471l-1.556,1.362-1.556,1.362-.054-.011-.054-.011-.023,0-.027,0c-.171-.027-.482-.071-.915-.125s-.988-.12-1.645-.188c-.9-.094-1.852-.18-2.834-.257s-2-.144-3.047-.2c-3.765-.2-8.658-.32-14.434-.125a184.6,184.6,0,0,0-19.731,1.74,184.069,184.069,0,0,0-25.459,5.472,176.9,176.9,0,0,0-24.1,8.94l-.018.006-.018.006c-.05.013-.472.122-1.159.227A18.278,18.278,0,0,1,3880.15-2294.416Zm-13.091-12.03a15.6,15.6,0,0,0,3.192,7.432,11.355,11.355,0,0,0,6.21,3.731,16.466,16.466,0,0,0,5.02.365,15.664,15.664,0,0,0,2.44-.359,177.32,177.32,0,0,1,24.147-8.956,184.478,184.478,0,0,1,25.512-5.482,185.074,185.074,0,0,1,19.78-1.744c5.791-.2,10.7-.08,14.471.126,1.051.058,2.072.126,3.058.2s1.937.163,2.845.258c.642.067,1.187.131,1.616.185s.743.1.921.125l1.5-1.313,1.5-1.313.014-.007.014-.007a13.263,13.263,0,0,0,5.568-4.49,10.751,10.751,0,0,0,1.742-6.418,16.392,16.392,0,0,0-.875-4.727,14.832,14.832,0,0,0-.817-1.995l-.005-.011-.005-.011a24.31,24.31,0,0,0-2.3-4.1,33.76,33.76,0,0,0-7.818-8.156,36.013,36.013,0,0,0-14.634-6.319c-6.432-1.271-14.508-1.295-24.494,1.159a119.681,119.681,0,0,0-27.727,10.929,165.559,165.559,0,0,0-21.146,13.6c-5.767,4.346-10.5,8.454-13.884,11.584S3867.467-2306.881,3867.059-2306.447Z" transform="translate(-3866.581 2350.746)"></path></g><g transform="translate(3883.704 -2311.561)"><path class="c" d="M4094.9-2049.538s-4.208,1.452-11.134,3.119a179.277,179.277,0,0,1-27.446,4.407,125.96,125.96,0,0,1-34.823-1.73c-11.845-2.425-23.43-7.109-33.266-15.292l-1.135-2.607-1.135-2.607-1.135-2.607-1.135-2.607a177.33,177.33,0,0,1,26-9.483,184.736,184.736,0,0,1,23.613-4.946,184.88,184.88,0,0,1,19.761-1.743c5.783-.2,10.679-.079,14.446.126l2.112.194,2.113.193,2.112.193,2.112.194.018,0,.019,0,.019,0,.019,0v11.784l4.716,5.851,4.715,5.85,4.715,5.85Z" transform="translate(-3983.403 2085.956)"></path><path class="b" d="M4042.955-2042.592q-6.176,0-11.981-.552a105.845,105.845,0,0,1-11.191-1.655,83.772,83.772,0,0,1-18.232-5.869,67.913,67.913,0,0,1-15.132-9.47l-.021-.017-.02-.017-.01-.024-.011-.024-2.313-5.314-2.314-5.314.1-.046.1-.045a177.38,177.38,0,0,1,24.155-8.962,184.453,184.453,0,0,1,25.522-5.485,185.016,185.016,0,0,1,19.78-1.744c5.79-.2,10.7-.08,14.471.125l4.269.392,4.27.392.1.012.1.012v11.9l9.506,11.793,9.506,11.794-.15.052-.15.052c-.084.029-4.361,1.488-11.308,3.153a179.719,179.719,0,0,1-27.328,4.385q-3,.237-5.929.355T4042.955-2042.592Zm-56.21-17.855c10.132,8.414,22.157,13.039,34.122,15.365a126.9,126.9,0,0,0,33.766,1.572,178.526,178.526,0,0,0,25.683-4c6.773-1.559,11.355-3.02,12.54-3.41l-9.355-11.606-9.355-11.607V-2085.8l-4.16-.381-4.16-.381c-3.761-.2-8.652-.32-14.427-.125a184.661,184.661,0,0,0-19.729,1.74,184.018,184.018,0,0,0-25.353,5.441,176.968,176.968,0,0,0-24,8.879l2.215,5.089Z" transform="translate(-3981.73 2087.231)"></path></g><g transform="translate(3953.578 -2343.167)"><path class="d" d="M4474.042-2295.868a.706.706,0,0,0-.088-.259.72.72,0,0,0-.171-.2.728.728,0,0,0-.233-.127.722.722,0,0,0-.271-.035,29.617,29.617,0,0,1-3.719.021,16.532,16.532,0,0,1-2.654-.366,9.057,9.057,0,0,1-1.764-.583,5.024,5.024,0,0,1-1.047-.632l-.034-.027-.033-.027-.032-.027-.031-.027a.488.488,0,0,0-.088-.062.5.5,0,0,0-.1-.041.453.453,0,0,0-.106-.017.475.475,0,0,0-.108.008c-.057.011-.121.022-.186.032l-.192.033c-.062.012-.119.024-.166.038a.329.329,0,0,0-.107.047,6,6,0,0,1-1.013.666,7.664,7.664,0,0,1-1.69.621,14.3,14.3,0,0,1-2.663.373,29.329,29.329,0,0,1-3.931-.076,24.868,24.868,0,0,0-.384,2.834,31.067,31.067,0,0,0,.144,6.717,21.2,21.2,0,0,0,2.616,7.921,16.242,16.242,0,0,0,7.033,6.447.409.409,0,0,0,.129.027,1.911,1.911,0,0,0,.2.007c.073,0,.149,0,.223-.01s.143-.014.2-.023l.08-.037.08-.038.079-.038.079-.038a16.729,16.729,0,0,0,6.529-5.545,20.055,20.055,0,0,0,2.979-6.913,28.788,28.788,0,0,0,.712-6.459A30.746,30.746,0,0,0,4474.042-2295.868Z" transform="translate(-4452.894 2298.503)"></path><path class="b" d="M4462.056-2273.638a1.462,1.462,0,0,1-.288-.022.393.393,0,0,1-.1-.034,16.48,16.48,0,0,1-7.23-6.739,21.584,21.584,0,0,1-2.542-7.8,31.283,31.283,0,0,1-.145-6.731,25.344,25.344,0,0,1,.388-2.9l.02-.1.021-.1.1.008.1.008a30,30,0,0,0,3.663.087,14.627,14.627,0,0,0,2.859-.378,7.4,7.4,0,0,0,1.637-.6,5.778,5.778,0,0,0,.98-.643.457.457,0,0,1,.139-.073,1.581,1.581,0,0,1,.232-.058l.1-.017.1-.016.1-.016.089-.016a.682.682,0,0,1,.159-.012.677.677,0,0,1,.158.025.74.74,0,0,1,.146.06.737.737,0,0,1,.129.091l.029.025.029.025.03.025.032.026a4.791,4.791,0,0,0,.975.59,8.821,8.821,0,0,0,1.747.582,16.732,16.732,0,0,0,2.833.373,30.029,30.029,0,0,0,3.477-.033.949.949,0,0,1,.349.043.948.948,0,0,1,.31.168.935.935,0,0,1,.227.269.925.925,0,0,1,.113.334h0a30.888,30.888,0,0,1,.275,4.228,28.984,28.984,0,0,1-.718,6.493,19.8,19.8,0,0,1-3.457,7.613,17.015,17.015,0,0,1-6.171,4.995l-.08.039-.081.039-.095.044-.095.044-.016,0-.015,0c-.064.01-.139.019-.218.025s-.161.01-.239.011h-.035Zm-.2-.458s.019,0,.055.007a1.731,1.731,0,0,0,.173,0c.061,0,.125,0,.187-.008s.122-.011.174-.018l.065-.031.065-.031.078-.037.078-.038a16.572,16.572,0,0,0,6.017-4.874,19.344,19.344,0,0,0,3.373-7.435,28.56,28.56,0,0,0,.708-6.394,30.512,30.512,0,0,0-.271-4.165h0a.494.494,0,0,0-.06-.176.492.492,0,0,0-.12-.142.493.493,0,0,0-.164-.089.516.516,0,0,0-.186-.023,30.533,30.533,0,0,1-3.541.033,17.13,17.13,0,0,1-2.9-.384,9.639,9.639,0,0,1-1.659-.531,5.448,5.448,0,0,1-1.241-.728l-.036-.029-.035-.029-.034-.029-.032-.028a.249.249,0,0,0-.048-.034.244.244,0,0,0-.054-.022.256.256,0,0,0-.055-.009.243.243,0,0,0-.055,0l-.1.017-.1.017-.092.016-.09.016c-.071.014-.116.025-.144.033a.265.265,0,0,0-.042.015,6.116,6.116,0,0,1-1.039.682,7.851,7.851,0,0,1-1.74.64,14.882,14.882,0,0,1-2.85.386,29.627,29.627,0,0,1-3.617-.067,28.325,28.325,0,0,0-.39,3.3,30.449,30.449,0,0,0,.191,5.985,21.129,21.129,0,0,0,2.48,7.621,16.051,16.051,0,0,0,7.044,6.576Z" transform="translate(-4451.63 2299.78)"></path></g><g transform="translate(3886.079 -2303.67)"><path class="e" d="M3999.663-2018.841s2.271-1.057,6.516-2.586a174.378,174.378,0,0,1,18.358-5.422,212.016,212.016,0,0,1,28.414-4.754,222.731,222.731,0,0,1,36.684-.582s.172.273.387.684a9.518,9.518,0,0,1,.646,1.507,2.7,2.7,0,0,1,.129,1.514c-.129.415-.473.7-1.162.705-9.186.127-17.751.593-25.811,1.337s-15.614,1.767-22.778,3.007-13.937,2.7-20.436,4.311-12.721,3.384-18.783,5.25l-.541-1.243-.541-1.243-.542-1.243Z" transform="translate(-3999.372 2032.898)"></path><path class="b" d="M4000.035-2014.863l-1.166-2.678-1.166-2.678.1-.046.1-.046c.045-.021,2.367-1.091,6.631-2.623a174.92,174.92,0,0,1,18.286-5.4c4.588-1.1,9.275-2.048,14.027-2.843s9.568-1.435,14.417-1.915c6.06-.6,12.179-.949,18.313-1.046s12.284.057,18.406.463l.057,0,.057,0,.03.048.03.048c.014.023.191.305.408.721a9.688,9.688,0,0,1,.649,1.522,3.723,3.723,0,0,1,.2,1.174,1.424,1.424,0,0,1-.244.823,1.125,1.125,0,0,1-.482.378,1.888,1.888,0,0,1-.718.134c-8.583.119-16.844.533-24.9,1.253s-15.9,1.746-23.654,3.088c-6.35,1.1-12.639,2.408-19.094,3.982s-13.078,3.413-20.1,5.573l-.1.029Zm-1.748-5.132,1,2.294,1,2.294c6.989-2.147,13.587-3.977,20.021-5.543s12.7-2.87,19.034-3.966c7.765-1.344,15.624-2.372,23.689-3.093s16.339-1.136,24.934-1.255a1.5,1.5,0,0,0,.518-.086.708.708,0,0,0,.327-.242,1.046,1.046,0,0,0,.16-.635,3.474,3.474,0,0,0-.181-.966,8.763,8.763,0,0,0-.514-1.242c-.182-.366-.352-.658-.437-.8a222.737,222.737,0,0,0-37.427.7,211.8,211.8,0,0,0-27.487,4.642,176.583,176.583,0,0,0-17.158,5C4001.572-2021.429,3998.994-2020.31,3998.287-2019.995Z" transform="translate(-3997.703 2034.165)"></path></g><g transform="translate(3954.536 -2342.977)"><path class="d" d="M4480.365-2294.675a.712.712,0,0,0-.088-.259.718.718,0,0,0-.172-.2.728.728,0,0,0-.232-.127.726.726,0,0,0-.272-.035,29.617,29.617,0,0,1-3.719.021,16.524,16.524,0,0,1-2.654-.366,9.062,9.062,0,0,1-1.764-.583,5.024,5.024,0,0,1-1.047-.631l-.016-.013-.016-.013-.016-.013-.015-.013a.4.4,0,0,0-.122-.07.4.4,0,0,0-.134-.023.4.4,0,0,0-.134.023.4.4,0,0,0-.122.07l-.016.013-.016.013-.016.013-.017.013a5.091,5.091,0,0,1-1.1.655,9.354,9.354,0,0,1-1.877.6,17.462,17.462,0,0,1-2.85.349,31.828,31.828,0,0,1-4.016-.087,24.407,24.407,0,0,0-.316,2.811,30.912,30.912,0,0,0,.292,6.664,21.587,21.587,0,0,0,2.765,7.869,16.707,16.707,0,0,0,7.1,6.423l.079.039.08.038.08.038.08.038.081-.038.08-.038.08-.038.079-.039a16.723,16.723,0,0,0,6.528-5.545,20.046,20.046,0,0,0,2.98-6.914,28.757,28.757,0,0,0,.712-6.459A30.856,30.856,0,0,0,4480.365-2294.675Z" transform="translate(-4459.338 2297.226)"></path><path class="b" d="M4468.837-2272.456l-.128-.06-.128-.06-.081-.039-.08-.039a16.956,16.956,0,0,1-7.3-6.711,21.978,21.978,0,0,1-2.688-7.747,31.221,31.221,0,0,1-.294-6.679,25.176,25.176,0,0,1,.319-2.873l.019-.1.019-.1.1.008.1.008a32.439,32.439,0,0,0,3.754.1,17.686,17.686,0,0,0,3.047-.355,9.084,9.084,0,0,0,1.856-.594,4.843,4.843,0,0,0,1.026-.614l.03-.024.03-.024a.632.632,0,0,1,.188-.108.62.62,0,0,1,.212-.037h0a.622.622,0,0,1,.212.038.625.625,0,0,1,.187.108l.029.024.03.024a4.782,4.782,0,0,0,.974.589,8.8,8.8,0,0,0,1.747.582,16.726,16.726,0,0,0,2.833.373,30.029,30.029,0,0,0,3.477-.033.961.961,0,0,1,.35.043.946.946,0,0,1,.31.168.933.933,0,0,1,.227.27.934.934,0,0,1,.113.334h0a30.95,30.95,0,0,1,.275,4.228,28.963,28.963,0,0,1-.718,6.493,19.8,19.8,0,0,1-3.457,7.613,17.015,17.015,0,0,1-6.171,4.995l-.08.039-.08.038-.128.06Zm-9.976-23.927a28.04,28.04,0,0,0-.312,3.277,30.443,30.443,0,0,0,.323,5.925,21.511,21.511,0,0,0,2.625,7.574,16.519,16.519,0,0,0,7.118,6.553l.079.038.078.037.033.015.033.015.032-.015.033-.015.078-.037.078-.038a16.564,16.564,0,0,0,6.016-4.874,19.351,19.351,0,0,0,3.373-7.435,28.572,28.572,0,0,0,.708-6.394,30.579,30.579,0,0,0-.271-4.164.493.493,0,0,0-.06-.176.493.493,0,0,0-.12-.142.5.5,0,0,0-.165-.089.5.5,0,0,0-.185-.023,30.53,30.53,0,0,1-3.541.032,17.13,17.13,0,0,1-2.9-.384,9.632,9.632,0,0,1-1.66-.531,5.436,5.436,0,0,1-1.24-.728l-.028-.023-.028-.023a.216.216,0,0,0-.069-.041.16.16,0,0,0-.053-.009h0a.171.171,0,0,0-.06.01.181.181,0,0,0-.053.031l-.033.027-.034.028a5.483,5.483,0,0,1-1.307.756,9.953,9.953,0,0,1-1.761.54,17.945,17.945,0,0,1-3.027.36A32.043,32.043,0,0,1,4458.862-2296.382Z" transform="translate(-4458.077 2298.502)"></path></g><g transform="translate(3959.436 -2337.568)"><path class="f" d="M4497.617-2260.007l.137.516.137.516.137.516.137.517a.985.985,0,0,0,.1.248.832.832,0,0,0,.157.193.7.7,0,0,0,.2.126.608.608,0,0,0,.224.048l.443.007.443.007.443.007.443.007a.638.638,0,0,1,.438.184.926.926,0,0,1,.244.431,1.063,1.063,0,0,1,.008.521.851.851,0,0,1-.269.453l-.358.312-.359.312-.358.312-.359.312a.793.793,0,0,0-.16.194.944.944,0,0,0-.1.24,1.031,1.031,0,0,0-.035.267,1.075,1.075,0,0,0,.035.274l.137.517.137.516.137.516.137.517a1.04,1.04,0,0,1,0,.563.873.873,0,0,1-.257.411.641.641,0,0,1-.4.164.631.631,0,0,1-.439-.178l-.359-.323-.358-.323-.359-.323-.358-.323a.7.7,0,0,0-.2-.128.61.61,0,0,0-.219-.045.592.592,0,0,0-.22.038.663.663,0,0,0-.2.122l-.358.312-.358.312-.359.312-.358.312a.613.613,0,0,1-.44.164.657.657,0,0,1-.4-.177.907.907,0,0,1-.258-.419,1.042,1.042,0,0,1,0-.563l.137-.512.137-.512.137-.512.137-.512a1.04,1.04,0,0,0,.035-.273,1.064,1.064,0,0,0-.035-.268.969.969,0,0,0-.1-.243.831.831,0,0,0-.161-.2l-.358-.323-.358-.323-.358-.323-.359-.324a.9.9,0,0,1-.27-.462,1.079,1.079,0,0,1,.009-.521.893.893,0,0,1,.244-.423.617.617,0,0,1,.438-.17l.443.007.443.007.443.007.443.007a.592.592,0,0,0,.224-.04.674.674,0,0,0,.2-.12.8.8,0,0,0,.157-.189.962.962,0,0,0,.1-.245l.137-.512.137-.512.137-.512.137-.512a.85.85,0,0,1,.273-.449.629.629,0,0,1,.409-.145.646.646,0,0,1,.408.158A.884.884,0,0,1,4497.617-2260.007Z" transform="translate(-4492.306 2260.846)"></path><path class="b" d="M4497.944-2251.337a.812.812,0,0,1-.3-.059.934.934,0,0,1-.279-.176l-.717-.647-.718-.647a.455.455,0,0,0-.132-.086.387.387,0,0,0-.144-.031.352.352,0,0,0-.139.025.452.452,0,0,0-.132.081l-.717.624-.717.624a.847.847,0,0,1-.57.218.868.868,0,0,1-.569-.234,1.122,1.122,0,0,1-.327-.543,1.276,1.276,0,0,1,0-.663l.274-1.024.274-1.024a.842.842,0,0,0,.028-.212.855.855,0,0,0-.028-.213.735.735,0,0,0-.077-.187.61.61,0,0,0-.118-.147l-.717-.647-.717-.647a1.127,1.127,0,0,1-.327-.543,1.28,1.28,0,0,1,0-.662,1.092,1.092,0,0,1,.338-.558.841.841,0,0,1,.563-.2l.887.014.887.014a.345.345,0,0,0,.144-.025.452.452,0,0,0,.128-.081.585.585,0,0,0,.116-.141.731.731,0,0,0,.076-.182l.274-1.024.274-1.024a1.086,1.086,0,0,1,.334-.553.843.843,0,0,1,.554-.206h.014a.86.86,0,0,1,.558.218,1.121,1.121,0,0,1,.337.563l.274,1.033.273,1.032a.753.753,0,0,0,.077.187.611.611,0,0,0,.118.147.465.465,0,0,0,.132.085.389.389,0,0,0,.144.031l.887.014.887.014a.863.863,0,0,1,.558.217,1.123,1.123,0,0,1,.336.564,1.278,1.278,0,0,1,0,.665,1.091,1.091,0,0,1-.33.535l-.717.624-.717.624a.571.571,0,0,0-.116.141.711.711,0,0,0-.075.182.819.819,0,0,0-.028.212.832.832,0,0,0,.028.213l.274,1.033.274,1.033a1.277,1.277,0,0,1,0,.664,1.09,1.09,0,0,1-.33.535.9.9,0,0,1-.269.164A.8.8,0,0,1,4497.944-2251.337Zm-2.3-2.091h.013a.837.837,0,0,1,.3.063.908.908,0,0,1,.268.169l.717.647.717.647a.39.39,0,0,0,.336.116.445.445,0,0,0,.211-.105.65.65,0,0,0,.186-.291.8.8,0,0,0,.006-.458l-.274-1.033-.274-1.032a1.311,1.311,0,0,1-.042-.328,1.279,1.279,0,0,1,.043-.327,1.152,1.152,0,0,1,.128-.3,1.02,1.02,0,0,1,.2-.241l.717-.624.717-.624a.638.638,0,0,0,.205-.369.876.876,0,0,0-.014-.38.737.737,0,0,0-.159-.3.424.424,0,0,0-.311-.146l-.886-.014-.887-.014a.827.827,0,0,1-.3-.062.908.908,0,0,1-.268-.169,1.039,1.039,0,0,1-.2-.245,1.18,1.18,0,0,1-.127-.3l-.274-1.032-.274-1.033a.659.659,0,0,0-.2-.346.433.433,0,0,0-.267-.1.4.4,0,0,0-.264.093.624.624,0,0,0-.2.336l-.274,1.024-.274,1.024a1.162,1.162,0,0,1-.128.3,1.012,1.012,0,0,1-.2.241.89.89,0,0,1-.271.162.8.8,0,0,1-.3.053l-.887-.014-.887-.014a.4.4,0,0,0-.308.134.693.693,0,0,0-.155.295.865.865,0,0,0-.013.381.671.671,0,0,0,.208.378l.717.647.717.647a1.043,1.043,0,0,1,.2.245,1.179,1.179,0,0,1,.127.3,1.268,1.268,0,0,1,.043.328,1.256,1.256,0,0,1-.043.327l-.274,1.024-.274,1.024a.805.805,0,0,0,.007.46.687.687,0,0,0,.188.3.469.469,0,0,0,.212.114.376.376,0,0,0,.335-.1l.717-.624.717-.624a.891.891,0,0,1,.264-.16A.819.819,0,0,1,4495.648-2253.428Z" transform="translate(-4491.029 2262.123)"></path></g><g transform="translate(3960.234 -2337.568)"><path class="f" d="M4502.98-2260.007l.137.516.137.516.137.516.137.517a1,1,0,0,0,.1.248.836.836,0,0,0,.158.193.693.693,0,0,0,.2.126.608.608,0,0,0,.224.048l.443.007.443.007.443.007.443.007a.64.64,0,0,1,.438.184.93.93,0,0,1,.244.431,1.075,1.075,0,0,1,.008.521.857.857,0,0,1-.269.453l-.359.312-.358.312-.359.312-.358.312a.784.784,0,0,0-.16.194.944.944,0,0,0-.1.24,1.075,1.075,0,0,0-.035.267,1.075,1.075,0,0,0,.035.274l.137.517.137.516.137.516.137.517a1.036,1.036,0,0,1,0,.563.873.873,0,0,1-.258.411.64.64,0,0,1-.4.164.632.632,0,0,1-.44-.178l-.358-.323-.359-.323-.358-.323-.359-.323a.7.7,0,0,0-.2-.128.605.605,0,0,0-.219-.045.594.594,0,0,0-.22.038.667.667,0,0,0-.2.122l-.358.312-.359.312-.358.312-.359.312a.611.611,0,0,1-.44.164.659.659,0,0,1-.4-.177.91.91,0,0,1-.257-.419,1.042,1.042,0,0,1,0-.563l.137-.512.137-.512.137-.512.137-.512a1.02,1.02,0,0,0,.035-.273,1.043,1.043,0,0,0-.035-.268.969.969,0,0,0-.1-.243.829.829,0,0,0-.16-.2l-.358-.323-.358-.323-.359-.323-.358-.324a.891.891,0,0,1-.27-.462,1.073,1.073,0,0,1,.008-.521.89.89,0,0,1,.245-.423.615.615,0,0,1,.438-.17l.443.007.443.007.443.007.443.007a.594.594,0,0,0,.224-.04.66.66,0,0,0,.2-.12.784.784,0,0,0,.157-.189.928.928,0,0,0,.1-.245l.137-.512.137-.512.137-.512.137-.512a.847.847,0,0,1,.274-.449.628.628,0,0,1,.409-.145.648.648,0,0,1,.409.158A.89.89,0,0,1,4502.98-2260.007Z" transform="translate(-4497.669 2260.846)"></path><path class="b" d="M4503.309-2251.338a.806.806,0,0,1-.3-.059.928.928,0,0,1-.279-.176l-.717-.647-.717-.647a.473.473,0,0,0-.132-.086.384.384,0,0,0-.144-.031.35.35,0,0,0-.139.025.454.454,0,0,0-.133.081l-.717.624-.717.624a.848.848,0,0,1-.57.218.866.866,0,0,1-.569-.234,1.124,1.124,0,0,1-.328-.543,1.286,1.286,0,0,1,0-.663l.274-1.024.274-1.024a.819.819,0,0,0,.028-.212.812.812,0,0,0-.028-.213.753.753,0,0,0-.077-.187.615.615,0,0,0-.117-.147l-.717-.647-.717-.647a1.126,1.126,0,0,1-.328-.543,1.281,1.281,0,0,1,0-.663,1.088,1.088,0,0,1,.341-.558.838.838,0,0,1,.561-.2l.886.014.887.014h.006a.369.369,0,0,0,.138-.027.434.434,0,0,0,.127-.079.567.567,0,0,0,.117-.141.749.749,0,0,0,.075-.182l.274-1.024.274-1.024a1.093,1.093,0,0,1,.339-.558.835.835,0,0,1,.563-.2.86.86,0,0,1,.558.218,1.121,1.121,0,0,1,.337.563l.274,1.033.273,1.032a.748.748,0,0,0,.077.186.606.606,0,0,0,.117.147.493.493,0,0,0,.132.085.386.386,0,0,0,.144.031l.887.014.887.014a.862.862,0,0,1,.558.218,1.121,1.121,0,0,1,.336.563,1.273,1.273,0,0,1,0,.665,1.088,1.088,0,0,1-.33.535l-.717.624-.717.624a.58.58,0,0,0-.116.141.732.732,0,0,0-.075.182.821.821,0,0,0-.028.212.811.811,0,0,0,.028.213l.273,1.033.274,1.033a1.282,1.282,0,0,1,0,.664,1.088,1.088,0,0,1-.33.535.9.9,0,0,1-.269.164A.8.8,0,0,1,4503.309-2251.338Zm-2.3-2.091h.012a.832.832,0,0,1,.3.062.923.923,0,0,1,.268.169l.717.647.717.647a.391.391,0,0,0,.336.116.447.447,0,0,0,.211-.105.658.658,0,0,0,.186-.291.805.805,0,0,0,.006-.458l-.274-1.033-.274-1.033a1.287,1.287,0,0,1-.043-.328,1.256,1.256,0,0,1,.043-.327,1.133,1.133,0,0,1,.127-.3,1.032,1.032,0,0,1,.2-.241l.717-.624.717-.624a.643.643,0,0,0,.206-.369.884.884,0,0,0-.014-.38.73.73,0,0,0-.159-.3.421.421,0,0,0-.311-.146l-.887-.014-.886-.014a.827.827,0,0,1-.3-.062.918.918,0,0,1-.268-.169,1.059,1.059,0,0,1-.2-.246,1.2,1.2,0,0,1-.126-.3l-.273-1.033-.274-1.033a.66.66,0,0,0-.2-.346.432.432,0,0,0-.267-.1.4.4,0,0,0-.284.112.662.662,0,0,0-.18.317l-.274,1.024-.274,1.024a1.141,1.141,0,0,1-.127.3,1.031,1.031,0,0,1-.2.241.9.9,0,0,1-.271.163.809.809,0,0,1-.3.053l-.887-.014-.887-.014a.4.4,0,0,0-.309.134.7.7,0,0,0-.154.295.88.88,0,0,0-.013.381.674.674,0,0,0,.208.378l.717.647.717.647a1.045,1.045,0,0,1,.2.245,1.191,1.191,0,0,1,.126.3,1.268,1.268,0,0,1,.043.328,1.258,1.258,0,0,1-.043.327l-.274,1.024-.274,1.024a.808.808,0,0,0,.007.46.686.686,0,0,0,.188.3.476.476,0,0,0,.212.114.376.376,0,0,0,.335-.1l.717-.624.717-.624a.882.882,0,0,1,.264-.16A.817.817,0,0,1,4501.013-2253.428Z" transform="translate(-4496.394 2262.124)"></path></g></g></svg>