<svg xmlns="http://www.w3.org/2000/svg" viewBox="0 0 1024 1024"><defs><style>.cls-1{fill:none;}.cls-2{fill:#24313e;}.cls-2,.cls-3{stroke:#000;stroke-miterlimit:10;stroke-width:2px;}.cls-3{fill:#ebf0f5;}</style></defs><g id="Layer_2" data-name="Layer 2"><g id="Layer_1-2" data-name="Layer 1"><rect class="cls-1" width="1024" height="1024"></rect><path class="cls-2" d="M154,549.94a31.72,31.72,0,0,0,27,30.78l52,7.84a31.72,31.72,0,0,1,22.42,15l73.11,121.5a31.7,31.7,0,0,1,2.69,27.06l-6.86,19.11h3.29V862.8s72.22,5,81.94-7l32.67-40.39a31.82,31.82,0,0,1,24.14-11.78l166-1.6V865.6l55.75-1.09a31.52,31.52,0,0,0,19.73-4.12L749,836.31a31.79,31.79,0,0,0,13.67-38.67l-18.19-47.88a31.77,31.77,0,0,1,1.94-26.66l72.2-130a31.47,31.47,0,0,1,21.85-15.79l51.42-9.72a31.69,31.69,0,0,0,25.86-31.75l-.91-47.6a31.7,31.7,0,0,0-27-30.77l-52-7.84a31.54,31.54,0,0,1-22.48-15L742.39,313.11a31.74,31.74,0,0,1-2.69-27.06l17.79-49.65A31.71,31.71,0,0,0,743.07,198l-41.58-23.29c-8.07-4.52-69.14-2.4-69.14-2.4v63.1l-169.82,1.66a31.86,31.86,0,0,1-24.88-11.33l-34.32-40.9a31.64,31.64,0,0,0-31-10.58h-48.6v91.53h-6l8.58,22.65a31.79,31.79,0,0,1-1.89,26.66l-72.19,130a31.83,31.83,0,0,1-21.86,15.79L179,470.6a31.73,31.73,0,0,0-25.86,31.75ZM535.65,388.45c69.91.06,127.85,56.12,130.37,125.91A130.74,130.74,0,0,1,535.2,649.82c-69.85-.11-127.86-56.12-130.38-126A130.71,130.71,0,0,1,535.65,388.45Z"></path><path class="cls-3" d="M94.49,549.94a31.7,31.7,0,0,0,27,30.78l52,7.84a31.72,31.72,0,0,1,22.42,15L269,725.1a31.74,31.74,0,0,1,2.69,27.06l-17.79,49.66a31.75,31.75,0,0,0,14.36,38.38l41.59,23.34a31.73,31.73,0,0,0,40.21-7.78l32.66-40.39a31.86,31.86,0,0,1,24.15-11.78l142-2.46a31.68,31.68,0,0,1,24.82,11.38L608,853.36a31.73,31.73,0,0,0,40.33,7l41.19-24.08a31.79,31.79,0,0,0,13.67-38.67L685,749.76A31.77,31.77,0,0,1,687,723.1l72.19-130A31.54,31.54,0,0,1,781,577.34l51.43-9.72a31.7,31.7,0,0,0,25.86-31.75l-.92-47.6a31.69,31.69,0,0,0-27-30.77l-51.94-7.84a31.54,31.54,0,0,1-22.48-15L682.9,313.11a31.7,31.7,0,0,1-2.69-27.06L698,236.4A31.72,31.72,0,0,0,683.58,198L642,174.73a31.64,31.64,0,0,0-40.15,7.73l-32.67,40.38A31.7,31.7,0,0,1,545,234.63l-142,2.46a31.84,31.84,0,0,1-24.88-11.33l-34.33-40.9a31.71,31.71,0,0,0-40.33-7L262.38,202a31.68,31.68,0,0,0-13.67,38.61l18.13,47.88A31.75,31.75,0,0,1,265,315.12l-72.2,130a31.79,31.79,0,0,1-21.85,15.79l-51.43,9.67a31.73,31.73,0,0,0-25.85,31.75ZM476.16,388.45c69.9.06,127.85,56.12,130.37,125.91A130.75,130.75,0,0,1,475.7,649.82c-69.85-.11-127.85-56.12-130.37-126A130.71,130.71,0,0,1,476.16,388.45Z"></path></g></g></svg>