<svg xmlns="http://www.w3.org/2000/svg" xmlns:xlink="http://www.w3.org/1999/xlink" id="Layer_1" x="0px" y="0px" viewBox="0 0 1024 1024" style="enable-background:new 0 0 1024 1024;" xml:space="preserve"><style type="text/css">	.st0{fill:none;}	.st1{fill:#24313E;stroke:#000000;stroke-width:2;stroke-miterlimit:10;}	.st2{fill:#EBF0F5;stroke:#000000;stroke-width:2;stroke-miterlimit:10;}</style><g id="Layer_2_1_">	<g id="Layer_1-2">		<rect x="206.3" y="206.3" class="st0" width="611.3" height="611.3"></rect>		<path class="st1" d="M298.3,534.7c0.2,9.2,7,17,16.1,18.4l31,4.7c5.6,0.8,10.5,4.1,13.4,9l43.6,72.5c2.9,4.9,3.5,10.8,1.6,16.2   l-4.1,11.4h2v54.7c0,0,43.1,3,48.9-4.2l19.5-24.1c3.5-4.4,8.8-6.9,14.4-7l99.1-1v38l33.3-0.7c4.1,0.5,8.2-0.4,11.8-2.5l24.5-14.4   c8-4.7,11.4-14.4,8.2-23.1l-10.9-28.6c-2-5.2-1.5-11,1.2-15.9l43.1-77.6c2.7-4.9,7.5-8.4,13-9.4l30.7-5.8   c9.1-1.7,15.6-9.7,15.4-19l-0.5-28.4c-0.2-9.2-7-17-16.1-18.4l-31-4.7c-5.6-0.8-10.5-4.1-13.4-9l-43.6-72.5   c-2.9-4.9-3.5-10.8-1.6-16.2l10.6-29.6c3.1-8.7-0.5-18.4-8.6-22.9l-24.8-13.9c-4.8-2.7-41.3-1.4-41.3-1.4v37.7l-101.4,1   c-5.7,0.1-11.2-2.4-14.9-6.8l-20.5-24.4c-4.5-5.4-11.6-7.8-18.5-6.3h-29V365H396l5.1,13.5c2,5.2,1.6,11-1.1,15.9l-43.1,77.6   c-2.7,4.9-7.5,8.4-13.1,9.4l-30.7,5.8c-9.1,1.7-15.6,9.7-15.4,19L298.3,534.7z M526.1,438.2c41.7,0,76.3,33.5,77.8,75.2   c1.6,43.1-32.1,79.3-75.2,80.8c-1,0-1.9,0.1-2.9,0.1c-41.7-0.1-76.3-33.5-77.8-75.2c-1.5-43.1,32.1-79.2,75.2-80.8   C524.2,438.3,525.2,438.2,526.1,438.2z"></path>		<path class="st2" d="M262.7,534.7c0.2,9.2,7,17,16.1,18.4l31,4.7c5.6,0.8,10.5,4.1,13.4,9l43.6,72.6c2.9,4.9,3.5,10.8,1.6,16.2   L357.9,685c-3.1,8.7,0.5,18.4,8.6,22.9l24.8,13.9c8.1,4.5,18.2,2.6,24-4.6l19.5-24.1c3.5-4.4,8.8-6.9,14.4-7l84.8-1.5   c5.7-0.1,11.2,2.4,14.8,6.8l20.5,24.4c5.9,7.1,16.1,8.8,24.1,4.2l24.6-14.4c8-4.7,11.4-14.4,8.2-23.1l-10.9-28.6   c-2-5.2-1.5-11,1.2-15.9l43.1-77.6c2.7-4.9,7.5-8.4,13-9.4l30.7-5.8c9.1-1.7,15.6-9.7,15.4-19l-0.5-28.4c-0.2-9.2-7-17-16.1-18.4   l-31-4.7c-5.6-0.8-10.5-4.1-13.4-9L614,393.3c-2.9-4.9-3.5-10.8-1.6-16.2l10.6-29.6c3.1-8.7-0.5-18.4-8.6-22.9l-24.8-13.9   c-8-4.5-18.2-2.6-24,4.6l-19.5,24.1c-3.5,4.4-8.8,7-14.4,7l-84.8,1.5c-5.7,0.1-11.2-2.4-14.9-6.8l-20.5-24.4   c-5.9-7.1-16.1-8.8-24.1-4.2L363,326.9c-8,4.7-11.4,14.4-8.2,23.1l10.8,28.6c2,5.2,1.6,11-1.1,15.9l-43.1,77.6   c-2.7,4.9-7.5,8.4-13,9.4l-30.7,5.8c-9.1,1.7-15.6,9.7-15.4,19L262.7,534.7z M490.6,438.2c41.7,0,76.3,33.5,77.8,75.2   c1.6,43.1-32.1,79.3-75.2,80.8c-1,0-1.9,0.1-2.9,0.1c-41.7-0.1-76.3-33.5-77.8-75.2c-1.5-43.1,32.1-79.2,75.2-80.8   C488.7,438.3,489.6,438.2,490.6,438.2z"></path>	</g></g></svg>