<svg xmlns="http://www.w3.org/2000/svg" xmlns:xlink="http://www.w3.org/1999/xlink" viewBox="0 0 1443 864"><defs><style>.cls-1{isolation:isolate;}.cls-2{fill:none;}.cls-3{fill:#455666;}.cls-11,.cls-17,.cls-20,.cls-21,.cls-23,.cls-3,.cls-4,.cls-5,.cls-7{stroke:#24313e;}.cls-10,.cls-11,.cls-17,.cls-20,.cls-21,.cls-23,.cls-3,.cls-4,.cls-5,.cls-7{stroke-miterlimit:10;stroke-width:2.02px;}.cls-4,.cls-8{fill:#3ab2d0;}.cls-23,.cls-5{fill:#f5f7f9;}.cls-6{fill:#24313e;opacity:0.24;}.cls-16,.cls-19,.cls-6,.cls-9{mix-blend-mode:multiply;}.cls-13,.cls-7{fill:#0c7ff2;}.cls-12,.cls-21,.cls-9{fill:#d9dee5;}.cls-10,.cls-17{fill:#9caab8;}.cls-10{stroke:#031439;}.cls-11,.cls-18{fill:#ebf0f5;}.cls-14{fill:url(#linear-gradient);}.cls-15{fill:url(#linear-gradient-2);}.cls-16,.cls-19{opacity:0.1;}.cls-17,.cls-18,.cls-19,.cls-20,.cls-21,.cls-22,.cls-23{fill-rule:evenodd;}.cls-18,.cls-22{mix-blend-mode:overlay;}.cls-18{opacity:0.21;}.cls-20{fill:#6b7e8f;}.cls-22{opacity:0.38;}</style><linearGradient id="linear-gradient" x1="640.18" y1="340.36" x2="787.09" y2="340.36" gradientTransform="translate(-1.56 3.28) rotate(-0.26)" gradientUnits="userSpaceOnUse"><stop offset="0" stop-color="#fff"></stop><stop offset="1" stop-color="#fff" stop-opacity="0"></stop></linearGradient><linearGradient id="linear-gradient-2" x1="639.48" y1="446.09" x2="1055.28" y2="446.09" gradientTransform="translate(-2.04 3.9) rotate(-0.26)" xlink:href="#linear-gradient"></linearGradient></defs><g class="cls-1"><g id="Layer_2" data-name="Layer 2"><g id="Layer_1-2" data-name="Layer 1"><rect class="cls-2" width="1443" height="864"></rect><path class="cls-3" d="M1122.73,212.76,1122.3,306l-1.43,311.49a36.39,36.39,0,0,1-36.55,36.22L834,652.56l-435-2a51.72,51.72,0,0,1-51.49-52l1.78-385.83Z"></path><path class="cls-4" d="M1123.06,143.23l-.33,72.79H349.25l.34-76.28a24.52,24.52,0,0,1,24.84-24.22l724,3.27A24.53,24.53,0,0,1,1123.06,143.23Z"></path><path class="cls-5" d="M1113.45,182.19l-.14,30.57v3.42l-1.83,398.06a39.76,39.76,0,0,1-36.35,39.43h0q-.87.09-1.77.12c-.61,0-1.2,0-1.81,0l-59.08-.27L619,651.75l-4.06,0-103.34-.48-108.49-.49-25.51-.12A39.78,39.78,0,0,1,342,628.22a39.38,39.38,0,0,1-4-17.54l1.83-397.06v-1l.12-26.74,0-7.25a64.74,64.74,0,0,1,51.17-63c1.81-.39,3.66-.71,5.52-.93h0a62.46,62.46,0,0,1,8.36-.5l643.93,3,.54.55.9.91Z"></path><path class="cls-6" d="M1113.45,213.62c0,1.56-173.18,4.55-386.81,4.55s-386.82-3-386.82-4.55,173.18-1.1,386.82-1.1S1113.45,212.06,1113.45,213.62Z"></path><path class="cls-7" d="M1113.61,147.78l-.16,34.41-.14,30.57v3.42l-35.48-.16-36.57-.16-422.8-2-246.38-1.13-3.87,0-18.94-.09-9.44,0,.12-26.74,0-7.25.15-34.41a29.81,29.81,0,0,1,30-29.68l26.58.12h0l652.83,3,34.41.16a29.79,29.79,0,0,1,29.68,30Z"></path><rect class="cls-7" x="370.74" y="236.33" width="88.38" height="32.19" rx="4.54" transform="translate(1.16 -1.9) rotate(0.26)"></rect><rect class="cls-8" x="371.15" y="143.62" width="114.1" height="40.1" rx="17.17" transform="translate(0.76 -1.97) rotate(0.26)"></rect><rect class="cls-9" x="887.47" y="146" width="114.1" height="40.1" rx="17.17" transform="translate(0.77 -4.34) rotate(0.26)"></rect><rect class="cls-9" x="1029.13" y="146.48" width="40.4" height="40.1" rx="17.17" transform="translate(0.78 -4.82) rotate(0.26)"></rect><rect class="cls-10" x="370.45" y="300.77" width="183.81" height="30.94" rx="4.36" transform="translate(1.46 -2.12) rotate(0.26)"></rect><rect class="cls-11" x="370.24" y="350.11" width="183.81" height="22.67" rx="4.36" transform="matrix(1, 0, 0, 1, 1.67, -2.12)"></rect><rect class="cls-11" x="370.07" y="388.82" width="119.78" height="19.7" rx="3.79" transform="translate(1.84 -1.97) rotate(0.26)"></rect><rect class="cls-11" x="369.92" y="421.2" width="193.32" height="19.7" rx="3.79" transform="translate(1.99 -2.14) rotate(0.26)"></rect><rect class="cls-11" x="369.76" y="455.86" width="119.78" height="19.7" rx="3.79" transform="translate(2.14 -1.97) rotate(0.26)"></rect><rect class="cls-11" x="369.61" y="488.24" width="193.32" height="19.7" rx="3.79" transform="translate(2.29 -2.14) rotate(0.26)"></rect><rect class="cls-7" x="480.88" y="236.83" width="88.38" height="32.19" rx="4.54" transform="matrix(1, 0, 0, 1, 1.17, -2.41)"></rect><rect class="cls-12" x="618.21" y="237.6" width="146.8" height="32.19" rx="4.54" transform="translate(1.17 -3.18) rotate(0.26)"></rect><rect class="cls-13" x="959.57" y="236.1" width="122.25" height="32.19" rx="4.54" transform="translate(1.17 -4.69) rotate(0.26)"></rect><path class="cls-10" d="M1080.32,302.78l-1.57,342.28a9.79,9.79,0,0,1-5.18,8.6l-.24.13a9.79,9.79,0,0,1-4.43,1l-56.54-.26L623.3,652.78a9.86,9.86,0,0,1-4.33-1l-.33-.18a9.81,9.81,0,0,1-5.11-8.65l.22-46.57,1.35-295.72a9.81,9.81,0,0,1,9.86-9.76l445.6,2.05A9.81,9.81,0,0,1,1080.32,302.78Z"></path><rect class="cls-14" x="640.23" y="324.26" width="146.8" height="32.19" rx="4.54" transform="matrix(1, 0, 0, 1, 1.57, -3.28)"></rect><rect class="cls-15" x="639.75" y="381.52" width="415.26" height="129.13" rx="5.35" transform="translate(2.06 -3.89) rotate(0.26)"></rect><path class="cls-16" d="M679.52,409.13a230.86,230.86,0,0,1-181.08,225.4l-.72.15a232.72,232.72,0,0,1-100-.45l-.74-.17a228.53,228.53,0,0,1-31.67-9.71,231.63,231.63,0,0,1-23.92-10.89,36.48,36.48,0,0,1-3.67-16.16l1.7-365.94v-.91l.11-24.65q4.29-2.33,8.71-4.46a227.41,227.41,0,0,1,21.1-9,230.27,230.27,0,0,1,79.39-14,233.43,233.43,0,0,1,24.08,1.24,229.68,229.68,0,0,1,121.8,50.71l.31.25,1.28,1.06c.77.64,1.55,1.29,2.31,1.94s1.37,1.17,2.05,1.77a234.82,234.82,0,0,1,18.34,17.91A231.74,231.74,0,0,1,642,283a230.91,230.91,0,0,1,24.7,50.23A228.69,228.69,0,0,1,674.9,363q2.25,11.1,3.42,22.56A233.46,233.46,0,0,1,679.52,409.13Z"></path><circle class="cls-5" cx="451.53" cy="408.61" r="215.25"></circle><path class="cls-17" d="M653.45,410.68A202,202,0,0,1,519.6,600.82c-1.37.49-2.74,1-4.12,1.43-10.24,2-13.88-4.31-13.88-9.72,0-6.61.24-28.4.24-55.38a69.19,69.19,0,0,0-1.5-14.79c-2.32-10.7-7.06-18.18-12.2-22.61,45-5,92.2-22.07,92.2-99.64,0-22.05-7.82-40.07-20.77-54.18,2.08-5.11,9-25.64-2-53.44,0,0-16.92-5.43-55.47,20.7a191.33,191.33,0,0,0-101.11,0c-38.58-26.13-55.53-20.7-55.53-20.7-11,27.8-4,48.33-2,53.44C330.56,360,322.7,378.06,322.7,400.11c0,77.38,47.13,94.7,92,99.8-5.77,5-11,13.95-12.82,27-11.51,5.16-40.76,14.07-58.77-16.79,0,0-10.67-19.38-30.93-20.8,0,0-19.72-.25-1.39,12.27,0,0,13.24,6.21,22.43,29.54,0,0,11.84,39.27,68,27.06,0,1.44,0,2.86,0,4.24.09,14.74.24,25.73.24,30.1,0,5.36-3.69,11.59-13.78,9.74A200.52,200.52,0,0,1,347.93,584q-8.06-4.82-15.61-10.35a201.9,201.9,0,0,1,119.2-364.89C563,208.75,653.45,299.14,653.45,410.68Z"></path><path class="cls-18" d="M561.47,241.28A201.93,201.93,0,0,0,343.9,580.63c3,2.19,6,4.3,9.15,6.32-1.72-1-3.42-2-5.12-3q-8.06-4.82-15.61-10.35A201.93,201.93,0,0,1,561.47,241.28Z"></path><path class="cls-18" d="M499.71,506.75c5.14,4.42,9.88,11.9,12.2,22.61a69,69,0,0,1,1.51,14.78c0,27-.25,48.77-.25,55.38a11.9,11.9,0,0,0,.39,3c-8.78.87-12-4.94-12-10,0-6.61.24-28.4.24-55.38a69.19,69.19,0,0,0-1.5-14.79c-2.32-10.7-7.06-18.18-12.2-22.61,45-5,92.2-22.07,92.2-99.64,0-22.05-7.82-40.07-20.77-54.18,1.91-4.69,4-29.43-3.48-53.73,3.6-2.84,13.27,4.83,13,7.28,11,27.8,4.09,48.33,2,53.44,12.94,14.11,20.76,32.14,20.76,54.18C591.91,484.67,544.69,501.75,499.71,506.75Z"></path><path class="cls-19" d="M1113.85,465.84a6.73,6.73,0,0,1,8.86,6.91l-3.52,44.36-35.77,132.45.9,4.15-365.55,4.72a9.81,9.81,0,0,1-3.39-.63,6.47,6.47,0,0,0-2.27-.41l-2.73,0-.18-.17-35.57-33.08a6.73,6.73,0,0,1,2.44-11.31L709.22,602l254.39-85.6Z"></path><path class="cls-20" d="M855.24,724.8l-1.4,90.14a2.63,2.63,0,0,0,4.75,1.59l223.56-305.8a2.63,2.63,0,0,0-4-3.43L856,723A2.66,2.66,0,0,0,855.24,724.8Z"></path><path class="cls-21" d="M1102.34,495.16l-153,201.72-60,79.09-30.77,40.56a2.62,2.62,0,0,1-4.74-1.59L876,745.59a.75.75,0,0,1,0-.21,2.6,2.6,0,0,1,.77-1.62l26-29.62,195.52-222.42A2.63,2.63,0,0,1,1102.34,495.16Z"></path><path class="cls-22" d="M949.34,696.88l-60,79.09-13.29-30.59-.73-1.67s13.18-14.07,27.54-29.57c17.15-18.49,36-39,36.17-40.08S944.82,684.44,949.34,696.88Z"></path><path class="cls-23" d="M1108.65,474.18,858.59,724.24a1.59,1.59,0,0,1-1.89.27L704.91,640.43a1.6,1.6,0,0,1,.17-2.87l401.84-166A1.59,1.59,0,0,1,1108.65,474.18Z"></path><path class="cls-21" d="M1108.73,472.4,875.62,740.22A1.12,1.12,0,0,0,876,742l170.24,78.72a1.13,1.13,0,0,0,1.57-.8l62.87-346.54A1.12,1.12,0,0,0,1108.73,472.4Z"></path><path class="cls-18" d="M1108.65,474.18l-6.22,6.22c.09-.59.13-.89.13-.89L727.78,641.42l134.48,75.5,1.65,2-5.31,5.32a1.62,1.62,0,0,1-1.91.26L704.92,640.43a1.59,1.59,0,0,1,.16-2.86l401.84-166A1.59,1.59,0,0,1,1108.65,474.18Z"></path><path class="cls-18" d="M1110.66,473.37l-.11.59c-32.06,39.75-219,262.3-219,262.3l158.07,73.47-1.85,10.18a1.11,1.11,0,0,1-1.56.8L876,742a1.11,1.11,0,0,1-.36-1.76l233.12-267.81A1.11,1.11,0,0,1,1110.66,473.37Z"></path></g></g></g></svg>