<svg xmlns="http://www.w3.org/2000/svg" width="228.155" height="154.432" viewBox="0 0 228.155 154.432"><defs><style>.a{fill:#0062ff;}.b{fill:#24313e;}.c{fill:#e7e9f2;}.d{fill:#6b7e8f;}.d,.e,.f,.g{fill-rule:evenodd;}.e{fill:#d9dee5;}.f{fill:#9caab8;}.g{fill:#f5f7f9;}</style></defs><g transform="translate(-5107.66 1775.552)"><g transform="translate(2398.561 -7205.524)"><g transform="translate(2715.193 5459.111)"><path class="a" d="M2866,5505.706a20.7,20.7,0,0,0-1.388-10.809,25.086,25.086,0,0,0-15.7-14.265,20.741,20.741,0,0,0-10.885-.359,10.962,10.962,0,0,1-3.451.272,11.614,11.614,0,0,1-3.319-.77,12.445,12.445,0,0,1-2.992-1.687,12.864,12.864,0,0,1-2.466-2.48,35.994,35.994,0,0,0-20.477-13.353,44.724,44.724,0,0,0-24.165,1.057,43.322,43.322,0,0,0-20.111,13.311,35.781,35.781,0,0,0-8.313,23.412,12,12,0,0,1-.35,2.951,12.162,12.162,0,0,1-1.039,2.737,12.53,12.53,0,0,1-1.66,2.42,12.854,12.854,0,0,1-2.21,2,30.567,30.567,0,0,0-11.781,17.2,37.715,37.715,0,0,0,.5,20.673,35.249,35.249,0,0,0,11.343,17.178,30.767,30.767,0,0,0,20.74,6.721h84.956v-.048a26.962,26.962,0,0,0,18.874-5.6,30.3,30.3,0,0,0,10.034-15.328,33.718,33.718,0,0,0,.2-18.489,26.786,26.786,0,0,0-10.644-15.083,14.5,14.5,0,0,1-2.615-2.285,13.154,13.154,0,0,1-1.931-2.8,11.513,11.513,0,0,1-1.08-3.174A10.607,10.607,0,0,1,2866,5505.706Z" transform="translate(-2733.971 -5460.559)"></path><path class="b" d="M2765.65,5571.013a32.608,32.608,0,0,1-10.65-1.741,30.578,30.578,0,0,1-9.248-5.114,33.566,33.566,0,0,1-6.95-7.674,37.771,37.771,0,0,1-4.564-9.757,39.381,39.381,0,0,1-1.714-10.57,36.751,36.751,0,0,1,1.207-10.391,32.209,32.209,0,0,1,4.509-9.878,30.564,30.564,0,0,1,7.474-7.614,12.372,12.372,0,0,0,2.112-1.913,12.019,12.019,0,0,0,1.6-2.327,11.679,11.679,0,0,0,1-2.647,11.5,11.5,0,0,0,.33-2.8,37.028,37.028,0,0,1,2.108-12.654,36.516,36.516,0,0,1,6.325-11.092,41.209,41.209,0,0,1,9.018-8.063,46.088,46.088,0,0,1,11.334-5.412,47.053,47.053,0,0,1,12.333-2.215,43.135,43.135,0,0,1,12.115,1.147,37.648,37.648,0,0,1,11.64,5.006,36.153,36.153,0,0,1,9.128,8.538,12.3,12.3,0,0,0,2.355,2.373,11.887,11.887,0,0,0,2.877,1.624,11.054,11.054,0,0,0,3.223.74,10.436,10.436,0,0,0,3.234-.264,21.317,21.317,0,0,1,10.826.27,25.558,25.558,0,0,1,16.5,14.987,21.284,21.284,0,0,1,1.293,10.756,10.1,10.1,0,0,0,.05,3.176,10.971,10.971,0,0,0,1.041,3.1,12.608,12.608,0,0,0,1.844,2.678,13.933,13.933,0,0,0,2.532,2.213,27.129,27.129,0,0,1,11.016,15.94,34.815,34.815,0,0,1-.361,18.208,32.845,32.845,0,0,1-4.009,8.772,28.692,28.692,0,0,1-6.2,6.817,26.331,26.331,0,0,1-8.724,4.556,29.529,29.529,0,0,1-10.157,1.176l-.157.015-.158.015h-84.823c-.038,0-.077,0-.116-.006v.007q-.3.01-.594.015T2765.65,5571.013Zm28.233-110.907a44.257,44.257,0,0,0-6.964.558,47.387,47.387,0,0,0-7.062,1.7,41.916,41.916,0,0,0-20.5,14,35.683,35.683,0,0,0-7.564,22.224,12.533,12.533,0,0,1-.36,3.049,12.708,12.708,0,0,1-1.09,2.885,13.049,13.049,0,0,1-1.736,2.527,13.389,13.389,0,0,1-2.291,2.077,29.911,29.911,0,0,0-11.709,17.571,37.789,37.789,0,0,0,.625,19.729,35.441,35.441,0,0,0,10.48,16.4,29.921,29.921,0,0,0,21.088,7.131l.238-.008.238-.008v.015h83.974v-.033l.277-.007.277-.006c8.089.513,14.405-1.974,19.088-5.915a30.351,30.351,0,0,0,9.288-14.641,33.76,33.76,0,0,0,.365-17.607,26.118,26.118,0,0,0-10.608-15.388,14.961,14.961,0,0,1-2.727-2.386,13.632,13.632,0,0,1-1.99-2.894,12,12,0,0,1-1.141-3.4,11.134,11.134,0,0,1-.054-3.494h0a20.249,20.249,0,0,0-1.243-10.255,24.522,24.522,0,0,0-15.773-14.33,20.276,20.276,0,0,0-10.324-.267,11.5,11.5,0,0,1-3.551.29,12.064,12.064,0,0,1-3.532-.81,12.928,12.928,0,0,1-3.127-1.763,13.4,13.4,0,0,1-2.557-2.576,35.3,35.3,0,0,0-13.147-10.673A39.409,39.409,0,0,0,2793.884,5460.106Z" transform="translate(-2732.513 -5459.111)"></path></g><g transform="translate(2709.098 5459.113)"><g transform="translate(0 0)"><path class="a" d="M2842.589,5505.716a20.7,20.7,0,0,0-1.388-10.809,25.083,25.083,0,0,0-15.7-14.265,20.747,20.747,0,0,0-10.885-.359,10.959,10.959,0,0,1-3.45.273,11.634,11.634,0,0,1-3.32-.77,12.433,12.433,0,0,1-2.992-1.688,12.862,12.862,0,0,1-2.466-2.479,36,36,0,0,0-20.477-13.353,44.734,44.734,0,0,0-24.165,1.057,43.321,43.321,0,0,0-20.11,13.312,35.779,35.779,0,0,0-8.313,23.412,12,12,0,0,1-.35,2.951,12.185,12.185,0,0,1-1.04,2.737,12.5,12.5,0,0,1-1.66,2.42,12.842,12.842,0,0,1-2.21,2,30.563,30.563,0,0,0-11.781,17.2,37.714,37.714,0,0,0,.5,20.673,35.258,35.258,0,0,0,11.343,17.179,30.767,30.767,0,0,0,20.74,6.721h84.956v-.048a26.961,26.961,0,0,0,18.874-5.6,30.3,30.3,0,0,0,10.035-15.329,33.714,33.714,0,0,0,.2-18.488,26.781,26.781,0,0,0-10.644-15.083,14.491,14.491,0,0,1-2.615-2.285,13.127,13.127,0,0,1-1.931-2.8,11.512,11.512,0,0,1-1.08-3.174A10.593,10.593,0,0,1,2842.589,5505.716Z" transform="translate(-2710.556 -5460.569)"></path><path class="b" d="M2742.235,5571.023a32.617,32.617,0,0,1-10.649-1.741,30.554,30.554,0,0,1-9.248-5.114,33.59,33.59,0,0,1-6.95-7.674,37.794,37.794,0,0,1-4.564-9.757,39.407,39.407,0,0,1-1.714-10.571,36.74,36.74,0,0,1,1.207-10.39,32.191,32.191,0,0,1,4.508-9.878,30.553,30.553,0,0,1,7.473-7.613,12.358,12.358,0,0,0,2.112-1.914,12.032,12.032,0,0,0,1.6-2.327,11.663,11.663,0,0,0,1-2.647,11.5,11.5,0,0,0,.33-2.8,37.026,37.026,0,0,1,2.108-12.654,36.522,36.522,0,0,1,6.325-11.092,41.214,41.214,0,0,1,9.018-8.062,46.1,46.1,0,0,1,11.334-5.413,47.074,47.074,0,0,1,12.333-2.214,43.138,43.138,0,0,1,12.115,1.148,37.636,37.636,0,0,1,11.64,5.006,36.144,36.144,0,0,1,9.128,8.538,12.3,12.3,0,0,0,2.355,2.373,11.9,11.9,0,0,0,2.877,1.623,11.059,11.059,0,0,0,3.223.741,10.468,10.468,0,0,0,3.235-.264,21.321,21.321,0,0,1,10.826.271,25.558,25.558,0,0,1,16.5,14.986,21.282,21.282,0,0,1,1.294,10.756,10.082,10.082,0,0,0,.051,3.176,10.955,10.955,0,0,0,1.041,3.1,12.585,12.585,0,0,0,1.844,2.678,13.918,13.918,0,0,0,2.532,2.213,27.127,27.127,0,0,1,11.016,15.94,34.813,34.813,0,0,1-.361,18.209,32.859,32.859,0,0,1-4.009,8.772,28.721,28.721,0,0,1-6.2,6.817,26.343,26.343,0,0,1-8.723,4.556,29.508,29.508,0,0,1-10.158,1.175l-.157.015-.158.014h-84.825l-.114,0V5571q-.3.01-.595.015C2742.629,5571.021,2742.432,5571.023,2742.235,5571.023Zm28.233-110.907a44.26,44.26,0,0,0-6.964.558,47.369,47.369,0,0,0-7.062,1.7,41.918,41.918,0,0,0-20.5,14,35.681,35.681,0,0,0-7.564,22.224,12.544,12.544,0,0,1-.36,3.048,12.728,12.728,0,0,1-1.089,2.885,13.051,13.051,0,0,1-1.737,2.527,13.363,13.363,0,0,1-2.292,2.077,29.908,29.908,0,0,0-11.709,17.571,37.787,37.787,0,0,0,.625,19.729,35.418,35.418,0,0,0,10.477,16.4,29.952,29.952,0,0,0,21.091,7.135l.213-.007.213-.007,0,.007,0,.007h84.022v-.034l.277-.007.276-.006c8.09.512,14.406-1.975,19.089-5.916a30.345,30.345,0,0,0,9.287-14.64,33.758,33.758,0,0,0,.365-17.607,26.12,26.12,0,0,0-10.608-15.388,15.005,15.005,0,0,1-2.727-2.385,13.675,13.675,0,0,1-1.99-2.894,11.993,11.993,0,0,1-1.141-3.4,11.137,11.137,0,0,1-.053-3.495h0a20.25,20.25,0,0,0-1.243-10.255,24.523,24.523,0,0,0-15.773-14.33,20.281,20.281,0,0,0-10.324-.268,11.481,11.481,0,0,1-3.55.291,12.1,12.1,0,0,1-3.532-.81,12.954,12.954,0,0,1-3.127-1.763,13.379,13.379,0,0,1-2.557-2.575,35.293,35.293,0,0,0-13.147-10.673A39.41,39.41,0,0,0,2770.468,5460.117Z" transform="translate(-2709.098 -5459.121)"></path></g></g><g transform="translate(2726.23 5479.516)"><path class="c" d="M2890.988,5596.175a9.868,9.868,0,0,0-7-2.9q-.417,0-.826.035t-.807.1l-2.094-5.432-2.093-5.431-2.079-5.393-2.079-5.392a9.924,9.924,0,0,0,2.55-1.842,9.9,9.9,0,1,0-16.311-10.364l-9.038-1.428-9.038-1.428-7.2-1.137-7.2-1.137q.036-.346.054-.7t.019-.707a13.526,13.526,0,1,0-23.084,9.562q.381.381.792.729t.848.665l-2.9,5.751-2.9,5.751-3.058,6.058-3.058,6.057a12.775,12.775,0,1,0,7.469,15.4q2.768.214,5.538.4t5.541.354q5.914.35,11.832.588t11.837.361q2.96.059,5.919.1t5.919.034q2.959,0,5.917-.058t5.916-.181l5.91-.179,5.911-.178.973-.029.973-.029a9.9,9.9,0,1,0,16.848-8.009Zm-87.573-19.2,3.136-5.625,3.136-5.624a13.529,13.529,0,0,0,17.744-9.35l7.143,1.433,7.143,1.433,8.973,1.8,8.973,1.8c0,.013,0,.026,0,.039s0,.026,0,.04a9.966,9.966,0,0,0,.153,1.744,9.835,9.835,0,0,0,.442,1.644q-7.343,4.327-14.886,8.312t-15.263,7.615q-7.048,3.314-14.235,6.327t-14.5,5.721a12.8,12.8,0,0,0-2.657-3.883q-.438-.438-.918-.833t-1-.742l3.3-5.926Zm68.754,25.4-5.9-.043-5.9-.044q-2.946.015-5.891-.042t-5.889-.163q-2.944-.108-5.886-.256t-5.881-.318q-5.88-.344-11.75-.8t-11.728-1.025q-2.734-.264-5.465-.556t-5.459-.6q-.038-.54-.12-1.067t-.206-1.039q7.419-2.569,14.73-5.45t14.492-6.073q7.871-3.5,15.577-7.36t15.225-8.081q.106.121.215.239c.073.079.147.156.223.232a9.867,9.867,0,0,0,7,2.9,9.755,9.755,0,0,0,1.107-.063,10.045,10.045,0,0,0,1.072-.181l1.82,5.484,1.82,5.485,1.833,5.524,1.833,5.524a10.137,10.137,0,0,0-1.083.723,9.734,9.734,0,0,0-.976.855,9.868,9.868,0,0,0-2.866,6.215l-.977-.007Z" transform="translate(-2776.393 -5538.981)"></path><path class="b" d="M2882.509,5612.114a10.427,10.427,0,0,1-10.306-8.875l-6.647.2-6.647.2c-1.828.078-3.711.137-5.677.176s-4.014.061-6.172.063c-1.723,0-3.5-.006-5.436-.028s-4.038-.057-6.413-.1c-3.931-.083-7.89-.2-11.847-.362s-7.914-.354-11.843-.587c-1.712-.1-3.465-.213-5.248-.334s-3.595-.252-5.425-.393a13.3,13.3,0,1,1-8.1-16.609l5.757-11.4,5.757-11.4q-.36-.278-.7-.574c-.225-.2-.442-.4-.649-.607a14.051,14.051,0,1,1,23.973-9.931q0,.24-.008.482c-.005.161-.014.322-.025.483l15.788,2.495,15.788,2.495a10.423,10.423,0,1,1,17.014,11.312,10.392,10.392,0,0,1-2.266,1.716l4.014,10.415,4.014,10.414a10.325,10.325,0,0,1,8.665,2.97h0a10.413,10.413,0,0,1-7.368,17.787Zm-9.379-9.945.025.242.024.241a9.383,9.383,0,1,0,15.962-7.589h0a9.314,9.314,0,0,0-8.18-2.618l-.209.035-.209.035-4.333-11.242-4.333-11.241.21-.106.211-.106a9.411,9.411,0,0,0,1.279-.777,9.365,9.365,0,0,0,1.136-14.231,9.386,9.386,0,0,0-15.453,3.444l-.073.2-.073.2-16.691-2.637-16.691-2.637.025-.246.025-.245c.023-.225.041-.451.052-.676s.018-.452.018-.675a13.009,13.009,0,1,0-22.2,9.194q.359.358.755.7t.823.646l.18.13.18.13-6.169,12.221-6.169,12.22-.222-.09-.222-.09a12.252,12.252,0,1,0,7.164,14.776l.059-.2.059-.2.211.017.211.016c1.9.146,3.779.283,5.628.41s3.667.243,5.441.348c3.922.232,7.872.428,11.823.587s7.9.278,11.827.361c2.37.047,4.468.082,6.4.1s3.706.031,5.425.028c2.15,0,4.191-.023,6.151-.062s3.837-.1,5.661-.176l7.13-.215Zm0-.735-7.117-.053-7.116-.053c-1.821.01-3.7,0-5.654-.036s-4-.089-6.141-.168c-1.711-.062-3.474-.138-5.4-.231s-4.016-.207-6.378-.343c-3.9-.229-7.829-.5-11.755-.8s-7.849-.648-11.744-1.026c-1.752-.169-3.549-.353-5.375-.546s-3.684-.4-5.56-.615l-.214-.025-.215-.024-.015-.216-.015-.215q-.037-.513-.115-1.021c-.052-.337-.118-.671-.2-1l-.056-.23-.055-.23.223-.077.224-.077c4.927-1.706,9.845-3.526,14.72-5.448s9.707-3.946,14.461-6.059q7.824-3.476,15.55-7.349,7.708-3.864,15.208-8.07l.184-.1.184-.1.139.158.139.159c.078.088.149.168.218.242s.133.141.2.2a9.362,9.362,0,0,0,7.667,2.689,9.543,9.543,0,0,0,1.031-.173l.23-.052.23-.051,3.794,11.434,3.795,11.435-.184.106-.184.106a9.538,9.538,0,0,0-1.029.686,9.367,9.367,0,0,0-3.637,6.7l-.019.242Zm-2.432-1.059.74.006.741,0a10.4,10.4,0,0,1,3.826-6.827,10.6,10.6,0,0,1,.944-.672l-3.516-10.593-3.515-10.594q-.456.081-.915.122c-.305.027-.612.041-.916.041a10.354,10.354,0,0,1-7.368-3.052l-.088-.089-.089-.094q-7.421,4.151-15.076,7.984-7.638,3.823-15.408,7.276-7.046,3.13-14.285,5.99-7.223,2.853-14.54,5.4.065.32.115.645c.033.216.061.434.083.652q2.7.308,5.334.588c1.752.186,3.477.361,5.16.524,3.888.377,7.8.719,11.724,1.024s7.84.573,11.734.8c2.359.136,4.444.248,6.367.342s3.682.169,5.389.231c2.138.078,4.169.134,6.12.167s3.821.046,5.639.037l5.9.043Zm-71.074-6.909-.1-.224-.1-.224a12.208,12.208,0,0,0-2.549-3.725q-.419-.42-.88-.8t-.956-.712l-.2-.133-.2-.133,6.666-11.954,6.665-11.953.208.076.209.076a12.925,12.925,0,0,0,2.192.589,13.011,13.011,0,0,0,14.87-9.579l.061-.239.061-.239,16.57,3.324,16.569,3.324,0,.241,0,.241a9.587,9.587,0,0,0,.141,1.653,9.277,9.277,0,0,0,.422,1.58l.074.2.074.2-.187.11-.186.11q-7.334,4.321-14.917,8.327-7.566,4-15.275,7.623-7.021,3.3-14.248,6.332-7.21,3.023-14.523,5.733l-.23.085Zm-3.608-6.273q.426.309.827.651t.771.712a13.254,13.254,0,0,1,2.56,3.6q7.162-2.664,14.254-5.643,7.076-2.973,13.986-6.22,7.574-3.562,15.043-7.5,7.452-3.931,14.7-8.188a10.323,10.323,0,0,1-.337-1.384,10.453,10.453,0,0,1-.144-1.422L2842,5558.65l-15.671-3.144a14.011,14.011,0,0,1-13.476,10.083,14.172,14.172,0,0,1-2.234-.176,13.976,13.976,0,0,1-2.166-.527l-3.03,5.433-3.03,5.433-.227-.126-.227-.127.227.127.227.126-3.19,5.721Z" transform="translate(-2774.913 -5537.502)"></path></g></g><g transform="translate(5243.82 -1682.627)"><path class="d" d="M5552.9-1296.371l-.135,8.705-.136,8.705a.5.5,0,0,0,.346.489.5.5,0,0,0,.57-.182l21.591-29.532,21.591-29.532a.491.491,0,0,0-.077-.682.491.491,0,0,0-.686.019l-21.456,20.827-21.455,20.827a.512.512,0,0,0-.113.163A.51.51,0,0,0,5552.9-1296.371Z" transform="translate(-5552.228 1338.932)"></path><path class="b" d="M5551.548-1279.637a.9.9,0,0,1-.148-.012.983.983,0,0,1-.148-.037.9.9,0,0,1-.455-.335.9.9,0,0,1-.165-.541l.136-8.705.135-8.7a.889.889,0,0,1,.075-.347.9.9,0,0,1,.2-.292l21.455-20.827,21.456-20.827a.9.9,0,0,1,.607-.262.907.907,0,0,1,.622.229.9.9,0,0,1,.313.584.9.9,0,0,1-.176.638l-21.59,29.532-21.591,29.532a.916.916,0,0,1-.324.278A.879.879,0,0,1,5551.548-1279.637Zm43.172-60.087a.077.077,0,0,0-.043.013.2.2,0,0,0-.028.023l-21.455,20.827-21.455,20.827a.09.09,0,0,0-.023.034.11.11,0,0,0-.01.04h0l-.135,8.705-.135,8.7a.1.1,0,0,0,.017.064.1.1,0,0,0,.055.038.1.1,0,0,0,.065,0,.1.1,0,0,0,.053-.041l21.591-29.532,21.591-29.532a.126.126,0,0,0,.026-.056.1.1,0,0,0-.042-.085.162.162,0,0,0-.039-.025A.083.083,0,0,0,5594.72-1339.724Z" transform="translate(-5550.631 1340.528)"></path></g><g transform="translate(5243.82 -1685.635)"><path class="e" d="M5556.918-1304.31l-2.144,6.7-2.144,6.7a.5.5,0,0,0,.346.489.5.5,0,0,0,.57-.181l23.541-31.036,23.54-31.036a.49.49,0,0,0-.077-.682.49.49,0,0,0-.686.019l-21.4,24.339-21.4,24.339a.51.51,0,0,0-.112.163A.519.519,0,0,0,5556.918-1304.31Z" transform="translate(-5552.228 1353.896)"></path><path class="b" d="M5551.549-1291.594a.917.917,0,0,1-.148-.012.941.941,0,0,1-.149-.037.9.9,0,0,1-.455-.335.905.905,0,0,1-.165-.541v-.059l.01-.028.009-.028,2.136-6.672,2.136-6.672a.911.911,0,0,1,.081-.3.907.907,0,0,1,.179-.256l21.4-24.34,21.4-24.34.006-.006.006-.006a.907.907,0,0,1,.608-.262.9.9,0,0,1,.621.229.906.906,0,0,1,.313.584.906.906,0,0,1-.175.638L5575.812-1323l-23.542,31.039a.9.9,0,0,1-.319.273A.887.887,0,0,1,5551.549-1291.594Zm-.108-.873a.091.091,0,0,0,.023.037.124.124,0,0,0,.043.024.1.1,0,0,0,.065,0,.1.1,0,0,0,.053-.041l23.542-31.039,23.542-31.039a.1.1,0,0,0,.023-.052.1.1,0,0,0-.043-.084.1.1,0,0,0-.08-.032.092.092,0,0,0-.052.026l-21.4,24.339-21.395,24.339-.006.005-.006.005a.121.121,0,0,0-.023.034.094.094,0,0,0-.009.04v.06l-2.141,6.687Z" transform="translate(-5550.631 1355.492)"></path></g><g transform="translate(5234.413 -1775.552)"><path class="f" d="M5506.542-1755.413a50.138,50.138,0,0,0-35.563,14.732,50.146,50.146,0,0,0-14.732,35.57,50.06,50.06,0,0,0,9.7,29.7,50.4,50.4,0,0,0,24.7,18.025,2.971,2.971,0,0,0,2.66-.539,2.545,2.545,0,0,0,.773-1.885c0-.6-.011-1.687-.025-3.151s-.031-3.3-.043-5.4c-7,1.52-11.231-.166-13.719-2.231a10.466,10.466,0,0,1-3.225-4.511,16.966,16.966,0,0,0-3.65-5.858,7.79,7.79,0,0,0-1.935-1.5c-2.283-1.56-2.2-2.325-1.54-2.7a4.674,4.674,0,0,1,1.886-.358,9.237,9.237,0,0,1,5.745,2.725,11.639,11.639,0,0,1,1.959,2.458c2.244,3.843,5.187,5.21,7.927,5.455a13.929,13.929,0,0,0,6.711-1.276,13.216,13.216,0,0,1,1.229-4.11,8.543,8.543,0,0,1,1.964-2.615c-5.585-.635-11.313-2.031-15.645-5.678s-7.267-9.544-7.267-19.182a20.144,20.144,0,0,1,1.382-7.489,19.539,19.539,0,0,1,3.8-6.008,14.884,14.884,0,0,1-.974-4.536,20.116,20.116,0,0,1,1.466-8.776,7.184,7.184,0,0,1,3.313.137c2.257.476,5.715,1.765,10.519,5.019a45.714,45.714,0,0,1,6.2-1.258,50.283,50.283,0,0,1,6.4-.436,50.265,50.265,0,0,1,6.392.436,45.862,45.862,0,0,1,6.2,1.258c4.8-3.254,8.255-4.543,10.51-5.019a7.162,7.162,0,0,1,3.308-.137,20.087,20.087,0,0,1,1.474,8.776,14.873,14.873,0,0,1-.973,4.536,19.446,19.446,0,0,1,3.794,6.008,20.2,20.2,0,0,1,1.376,7.489c0,9.662-2.94,15.555-7.281,19.189s-10.083,5.009-15.685,5.631a9.005,9.005,0,0,1,2.384,3.48,15.486,15.486,0,0,1,1.03,5.835c0,3.362-.016,6.4-.031,8.8s-.031,4.172-.031,5a2.557,2.557,0,0,0,.772,1.9,2.971,2.971,0,0,0,2.687.521,50.423,50.423,0,0,0,24.673-18.028,50.06,50.06,0,0,0,9.7-29.692,50.145,50.145,0,0,0-14.734-35.57A50.146,50.146,0,0,0,5506.542-1755.413Z" transform="translate(-5455.844 1755.815)"></path><path class="b" d="M5519.979-1658.5a3.434,3.434,0,0,1-1.2-.2,2.618,2.618,0,0,1-.764-.435,2.654,2.654,0,0,1-.736-.989,3.212,3.212,0,0,1-.261-1.288c0-.273,0-.651,0-1.12s.006-1.031.011-1.674c.009-1.3.021-2.923.029-4.788s.016-3.969.016-6.216a14.357,14.357,0,0,0-1.268-6.284,8.313,8.313,0,0,0-2.006-2.726l-.35-.3-.351-.3.459-.051.459-.051c5.263-.585,10.915-1.836,15.25-5.367s7.357-9.344,7.357-19.054a19.855,19.855,0,0,0-1.272-7.154,19.01,19.01,0,0,0-3.792-6.071l-.086-.094-.085-.094.048-.118.048-.118a14.521,14.521,0,0,0,.947-4.439,19.631,19.631,0,0,0-1.371-8.374,9.441,9.441,0,0,0-3.9.43,32.914,32.914,0,0,0-9.4,4.712l-.077.052-.077.052-.089-.025-.09-.025a45.544,45.544,0,0,0-6.093-1.236,49.9,49.9,0,0,0-6.394-.442,49.7,49.7,0,0,0-6.4.436,45.191,45.191,0,0,0-6.086,1.242l-.09.025-.089.025-.077-.052-.077-.052a32.955,32.955,0,0,0-9.4-4.711,9.478,9.478,0,0,0-3.907-.431,19.661,19.661,0,0,0-1.365,8.374,14.55,14.55,0,0,0,.948,4.439l.048.118.048.118-.086.094-.086.094a19.092,19.092,0,0,0-3.8,6.08,19.812,19.812,0,0,0-1.274,7.145c0,9.7,3.013,15.521,7.339,19.06s9.965,4.8,15.215,5.4l.452.052.452.051-.343.3-.342.3a7.939,7.939,0,0,0-1.674,2.125,12.4,12.4,0,0,0-1.386,4.352l-.015.11-.016.11-.1.046-.1.045a16.261,16.261,0,0,1-2.869.977,12.7,12.7,0,0,1-4.043.332,9.615,9.615,0,0,1-4.662-1.651,12.2,12.2,0,0,1-3.576-4,11.5,11.5,0,0,0-1.916-2.384,8.85,8.85,0,0,0-5.458-2.6,4.989,4.989,0,0,0-1.2.133c-.353.088-.616.214-.662.359-.008.026-.036.163.17.453a6.33,6.33,0,0,0,1.567,1.363,8.61,8.61,0,0,1,2.184,1.729,17.608,17.608,0,0,1,3.572,5.83l0,.016.006.016a7.956,7.956,0,0,0,.675,1.446,10.706,10.706,0,0,0,2.456,2.9,11.829,11.829,0,0,0,5.764,2.489,20.636,20.636,0,0,0,7.579-.368l.243-.053.242-.052v.5c.007,1.133.015,2.191.022,3.155s.017,1.834.024,2.592c.006.656.012,1.22.016,1.69s.006.844.006,1.12a3.163,3.163,0,0,1-.26,1.274,2.674,2.674,0,0,1-.733.985,2.724,2.724,0,0,1-1.073.538,4.249,4.249,0,0,1-1.843.023l-.027-.007-.027-.007a50.5,50.5,0,0,1-13.851-7.127,50.887,50.887,0,0,1-11.042-11.042,50.426,50.426,0,0,1-7.291-14.171,50.68,50.68,0,0,1-2.491-15.768,50.637,50.637,0,0,1,3.833-19.414,50.617,50.617,0,0,1,11.017-16.439,50.628,50.628,0,0,1,16.437-11.016,50.615,50.615,0,0,1,19.411-3.834,50.625,50.625,0,0,1,19.414,3.834,50.628,50.628,0,0,1,16.439,11.016,50.628,50.628,0,0,1,11.017,16.439,50.624,50.624,0,0,1,3.834,19.415,50.656,50.656,0,0,1-9.551,29.653A50.606,50.606,0,0,1,5521-1658.608l-.025.007-.026.006c-.178.034-.349.059-.511.075S5520.125-1658.5,5519.979-1658.5Zm-5.025-25.725a10.344,10.344,0,0,1,2.166,3.851,16.766,16.766,0,0,1,.762,5.163c0,2.249-.007,4.353-.016,6.219s-.021,3.494-.03,4.79c0,.642-.009,1.2-.011,1.671s0,.845,0,1.118a2.42,2.42,0,0,0,.185.946,1.855,1.855,0,0,0,.521.711,1.975,1.975,0,0,0,.956.416,3.754,3.754,0,0,0,1.294-.043,49.81,49.81,0,0,0,24.676-18.158,49.85,49.85,0,0,0,9.393-29.173,49.747,49.747,0,0,0-14.632-35.268,49.746,49.746,0,0,0-35.269-14.632,49.736,49.736,0,0,0-35.264,14.632,49.747,49.747,0,0,0-14.63,35.268,49.848,49.848,0,0,0,9.4,29.186,49.785,49.785,0,0,0,24.7,18.149,3.7,3.7,0,0,0,1.28.03,1.993,1.993,0,0,0,.949-.423,1.873,1.873,0,0,0,.519-.709,2.364,2.364,0,0,0,.185-.932c0-.274,0-.652-.006-1.123s-.01-1.034-.015-1.679c-.007-.7-.015-1.5-.022-2.384s-.015-1.845-.021-2.875a19.712,19.712,0,0,1-8.591.035,12.273,12.273,0,0,1-4.986-2.451,11.513,11.513,0,0,1-2.571-3.02,8.608,8.608,0,0,1-.776-1.667,16.644,16.644,0,0,0-3.5-5.641,7.764,7.764,0,0,0-1.878-1.486l-.027-.016-.027-.016a7.547,7.547,0,0,1-1.744-1.514,1.334,1.334,0,0,1-.331-1.224,1.642,1.642,0,0,1,1.3-.914,6.057,6.057,0,0,1,1.349-.139h.023a9.576,9.576,0,0,1,5.924,2.756,11.92,11.92,0,0,1,2.1,2.635c2.11,3.615,4.859,4.955,7.445,5.233a13.256,13.256,0,0,0,6.477-1.138,14.013,14.013,0,0,1,.979-3.463,9.747,9.747,0,0,1,1.7-2.684,38.348,38.348,0,0,1-8.675-2.028,21.5,21.5,0,0,1-6.351-3.641,19.027,19.027,0,0,1-5.575-7.975,32.323,32.323,0,0,1-1.836-11.514,20.627,20.627,0,0,1,1.285-7.326,19.8,19.8,0,0,1,3.829-6.257,15.9,15.9,0,0,1-.931-4.84,20.659,20.659,0,0,1,1.515-8.534l.036-.089.035-.088.091-.029.09-.029a7.436,7.436,0,0,1,3.5.12c2.291.479,5.752,1.769,10.528,4.983a46.1,46.1,0,0,1,6.108-1.227,50.6,50.6,0,0,1,6.412-.431,50.587,50.587,0,0,1,6.411.432,46.21,46.21,0,0,1,6.111,1.227c4.773-3.213,8.232-4.5,10.519-4.983a7.419,7.419,0,0,1,3.495-.12l.09.029.091.029.035.088.035.088a20.629,20.629,0,0,1,1.521,8.533,15.878,15.878,0,0,1-.93,4.841,19.706,19.706,0,0,1,3.825,6.248,20.683,20.683,0,0,1,1.283,7.335,32.354,32.354,0,0,1-1.838,11.532,18.951,18.951,0,0,1-5.586,7.966,22.612,22.612,0,0,1-7.584,4.045A40.164,40.164,0,0,1,5514.955-1684.22Z" transform="translate(-5454.246 1757.413)"></path></g><g transform="translate(5214.895 -1689.401)"><path class="g" d="M5486.854-1371.708l-24.149,24.15-24.149,24.15a.306.306,0,0,1-.175.087.306.306,0,0,1-.191-.035l-14.658-8.12-14.659-8.12a.305.305,0,0,1-.158-.286.306.306,0,0,1,.19-.267l38.808-16.03,38.808-16.029a.3.3,0,0,1,.373.113A.3.3,0,0,1,5486.854-1371.708Z" transform="translate(-5408.311 1372.635)"></path><path class="b" d="M5436.739-1324.514a.719.719,0,0,1-.176-.022.705.705,0,0,1-.167-.066l-14.659-8.12-14.658-8.12a.707.707,0,0,1-.279-.277.708.708,0,0,1-.085-.383.708.708,0,0,1,.129-.371.706.706,0,0,1,.308-.244l38.808-16.029,38.808-16.03a.706.706,0,0,1,.478-.025.7.7,0,0,1,.383.287.7.7,0,0,1,.118.464.708.708,0,0,1-.206.432l-24.149,24.149-24.149,24.15a.706.706,0,0,1-.233.155A.719.719,0,0,1,5436.739-1324.514Zm-29.1-16.936,14.542,8.055,14.541,8.055,23.957-23.957,23.957-23.957-38.5,15.9Z" transform="translate(-5406.714 1374.232)"></path></g><g transform="translate(5247.97 -1689.291)"><path class="e" d="M5618.363-1371.61l-22.513,25.865-22.513,25.865a.212.212,0,0,0-.051.188.217.217,0,0,0,.121.153l16.441,7.6,16.441,7.6a.215.215,0,0,0,.188,0,.217.217,0,0,0,.114-.15l6.072-33.467,6.073-33.467a.211.211,0,0,0-.115-.235A.211.211,0,0,0,5618.363-1371.61Z" transform="translate(-5572.879 1372.085)"></path><path class="b" d="M5604.782-1305.513a.621.621,0,0,1-.132-.014.612.612,0,0,1-.128-.043l-16.44-7.6-16.441-7.6a.619.619,0,0,1-.225-.177.616.616,0,0,1-.121-.259.628.628,0,0,1,.009-.286.621.621,0,0,1,.137-.251l22.514-25.865,22.513-25.865a.62.62,0,0,1,.345-.2.616.616,0,0,1,.392.056.617.617,0,0,1,.28.28.618.618,0,0,1,.05.393l-6.072,33.464-6.071,33.464a.639.639,0,0,1-.114.259.614.614,0,0,1-.213.178.617.617,0,0,1-.138.05A.612.612,0,0,1,5604.782-1305.513ZM5572.2-1321.4l16.22,7.5,16.219,7.5,5.991-33.016,5.99-33.016-22.211,25.516Zm-.157.181,0,0v0Zm44.7-51.875v0Z" transform="translate(-5571.283 1373.685)"></path></g></g></svg>