<svg xmlns="http://www.w3.org/2000/svg" width="527.686" height="396" viewBox="0 0 527.686 396"><defs><style>.a{fill:#f5f7f9;}.b,.d{fill:#6b7e8f;}.b{fill-rule:evenodd;}.c{fill:#24313e;}.e{fill:#9caab8;}.f{fill:#0062ff;}.g{fill:#e7e9f2;}.h{fill:#3ab2d0;}.i{fill:#28c397;}.j{fill:#ff603d;}.k{fill:#0c7ff2;}.l{fill:#ebf0f5;}</style></defs><g transform="translate(-364 -5012)"><circle class="a" cx="198" cy="198" r="198" transform="translate(430 5012)"></circle><g transform="translate(3899.091 6550.301)"><g transform="translate(-3144.974 -1396.862)"><path class="b" d="M-1448.071-1371.829a42.761,42.761,0,0,0-16.7,3.372,42.976,42.976,0,0,0-13.638,9.2,42.974,42.974,0,0,0-9.2,13.639,42.775,42.775,0,0,0-3.372,16.7,42.859,42.859,0,0,0,2.187,13.56,42.767,42.767,0,0,0,6.091,11.776,43.147,43.147,0,0,0,9.288,9.286,42.781,42.781,0,0,0,11.779,6.09,3.357,3.357,0,0,0,1.363,0,1.979,1.979,0,0,0,.906-.463,1.96,1.96,0,0,0,.5-.75,2.407,2.407,0,0,0,.156-.858c0-.255,0-.614-.006-1.066s-.009-1-.015-1.622-.013-1.329-.019-2.1-.013-1.612-.018-2.508a17.1,17.1,0,0,1-7.294.2,10.19,10.19,0,0,1-4.409-2.1,9.469,9.469,0,0,1-2.171-2.585,6.839,6.839,0,0,1-.58-1.263,16.813,16.813,0,0,0-1.568-3.072,12.144,12.144,0,0,0-1.546-1.925,8.331,8.331,0,0,0-1.18-1,3.811,3.811,0,0,0-.47-.284,4.367,4.367,0,0,1-1.6-1.531.558.558,0,0,1,.284-.772,2.8,2.8,0,0,1,1.014-.273,5.4,5.4,0,0,1,.594-.033,7.172,7.172,0,0,1,2.844.819,9,9,0,0,1,2.057,1.506,10.686,10.686,0,0,1,1.25,1.449,7.286,7.286,0,0,1,.421.648,9.831,9.831,0,0,0,3.222,3.478,7.906,7.906,0,0,0,3.54,1.176,10.447,10.447,0,0,0,3.281-.26,13.5,13.5,0,0,0,2.444-.828,12.588,12.588,0,0,1,.418-1.915,10.074,10.074,0,0,1,.631-1.59,8.133,8.133,0,0,1,.788-1.272,6.485,6.485,0,0,1,.888-.959,35.234,35.234,0,0,1-7.073-1.458,18.778,18.778,0,0,1-6.272-3.385,15.8,15.8,0,0,1-4.485-6.265,26.667,26.667,0,0,1-1.714-10.1,18.168,18.168,0,0,1,.3-3.353,16.4,16.4,0,0,1,.875-3.035,16.207,16.207,0,0,1,1.389-2.719,17.35,17.35,0,0,1,1.848-2.406,10.572,10.572,0,0,1-.449-1.4,14.05,14.05,0,0,1-.382-2.468,15.961,15.961,0,0,1,.138-3.372,18.418,18.418,0,0,1,1.113-4.114,2.967,2.967,0,0,1,.691-.094,8.552,8.552,0,0,1,2.135.211,18.055,18.055,0,0,1,3.672,1.252,35.826,35.826,0,0,1,5.3,3.03q1.284-.357,2.609-.625t2.677-.448q1.351-.18,2.719-.273t2.737-.1q1.366.007,2.734.1t2.718.273q1.351.18,2.678.448t2.612.625a35.819,35.819,0,0,1,5.3-3.03,18.025,18.025,0,0,1,3.668-1.252,8.53,8.53,0,0,1,2.132-.211,2.958,2.958,0,0,1,.69.094,18.4,18.4,0,0,1,1.116,4.114,15.941,15.941,0,0,1,.14,3.372,14.022,14.022,0,0,1-.381,2.468,10.557,10.557,0,0,1-.449,1.4,17.237,17.237,0,0,1,1.849,2.406,16.152,16.152,0,0,1,1.387,2.719,16.416,16.416,0,0,1,.872,3.035,18.244,18.244,0,0,1,.3,3.353,26.668,26.668,0,0,1-1.717,10.113,15.722,15.722,0,0,1-4.494,6.257,18.743,18.743,0,0,1-6.286,3.365,35.547,35.547,0,0,1-7.094,1.438,6.652,6.652,0,0,1,1.105,1.237,8.8,8.8,0,0,1,.929,1.731,11.46,11.46,0,0,1,.64,2.233,15.157,15.157,0,0,1,.238,2.744c0,1.434,0,2.8-.008,4.061s-.012,2.423-.018,3.448-.013,1.915-.018,2.636-.008,1.274-.008,1.626a2.446,2.446,0,0,0,.155.865,1.95,1.95,0,0,0,.5.754,1.96,1.96,0,0,0,.912.46,3.4,3.4,0,0,0,1.38-.016,42.8,42.8,0,0,0,11.768-6.094,43.15,43.15,0,0,0,9.28-9.285,42.768,42.768,0,0,0,6.086-11.772,42.859,42.859,0,0,0,2.185-13.556,42.775,42.775,0,0,0-3.372-16.7,42.973,42.973,0,0,0-9.2-13.639,42.976,42.976,0,0,0-13.64-9.2A42.774,42.774,0,0,0-1448.071-1371.829Z" transform="translate(1491.358 1372.211)"></path><path class="c" d="M-1436.865-1289.368a2.921,2.921,0,0,1-1.1-.2,2.246,2.246,0,0,1-.684-.426,2.331,2.331,0,0,1-.578-.838,2.794,2.794,0,0,1-.205-1.063c0-.232,0-.551,0-.948s.006-.872.01-1.416l.006-.95.006-.95c.006-.88.012-1.993.017-3.267s.009-2.712.009-4.239a14.861,14.861,0,0,0-.214-2.576,11.125,11.125,0,0,0-.637-2.258,8.473,8.473,0,0,0-.847-1.6,6.3,6.3,0,0,0-1.082-1.227l-.333-.286-.333-.286.436-.048.437-.049a33.889,33.889,0,0,0,7.668-1.646,17.755,17.755,0,0,0,5.509-3.071,15.47,15.47,0,0,0,4.57-6.548,26.927,26.927,0,0,0,1.5-9.529,17.9,17.9,0,0,0-.288-3.236,16.056,16.056,0,0,0-.859-3.012,15.768,15.768,0,0,0-1.334-2.622,16.851,16.851,0,0,0-1.829-2.386l-.082-.089-.082-.089.046-.112.045-.112a10.226,10.226,0,0,0,.448-1.41,13.679,13.679,0,0,0,.355-2.341,15.6,15.6,0,0,0-.174-3.54,18.062,18.062,0,0,0-.982-3.59,4.661,4.661,0,0,0-.855-.044,9.073,9.073,0,0,0-1.607.205,17.5,17.5,0,0,0-3.493,1.185,35.152,35.152,0,0,0-5.338,3.038l-.073.05-.073.05-.085-.024-.085-.024c-.837-.232-1.7-.438-2.571-.615s-1.766-.327-2.667-.447c-.886-.118-1.783-.208-2.686-.27s-1.811-.094-2.718-.1-1.815.037-2.717.1-1.8.151-2.686.27c-.9.12-1.792.269-2.666.447s-1.732.383-2.568.615l-.085.024-.085.024-.073-.05-.073-.05a35.157,35.157,0,0,0-5.342-3.038,17.528,17.528,0,0,0-3.5-1.185,9.107,9.107,0,0,0-1.608-.205,4.643,4.643,0,0,0-.858.045,18.073,18.073,0,0,0-.979,3.59,15.615,15.615,0,0,0-.172,3.54,13.7,13.7,0,0,0,.355,2.341,10.242,10.242,0,0,0,.448,1.41l.046.112.046.112-.082.089-.081.089a16.96,16.96,0,0,0-1.829,2.388,15.842,15.842,0,0,0-1.335,2.62,16.046,16.046,0,0,0-.863,3.014,17.8,17.8,0,0,0-.289,3.234,26.918,26.918,0,0,0,1.5,9.514,15.546,15.546,0,0,0,4.562,6.556,17.79,17.79,0,0,0,5.5,3.091,33.637,33.637,0,0,0,7.641,1.665l.43.049.43.049-.325.285-.325.285a6.119,6.119,0,0,0-.863.938,7.78,7.78,0,0,0-.723,1.177,9.753,9.753,0,0,0-.624,1.587,12.253,12.253,0,0,0-.388,1.8l-.015.1-.015.1-.1.043-.1.043a13.959,13.959,0,0,1-2.455.836,10.878,10.878,0,0,1-3.461.284,8.244,8.244,0,0,1-3.995-1.415,10.447,10.447,0,0,1-3.063-3.427,7.253,7.253,0,0,0-.415-.635,10.305,10.305,0,0,0-1.192-1.38,8.41,8.41,0,0,0-2.216-1.569,6.748,6.748,0,0,0-2.435-.648,4.708,4.708,0,0,0-.665.045,2.217,2.217,0,0,0-.739.211.473.473,0,0,0-.112.083.129.129,0,0,0-.04.079c0,.038.012.165.2.4a5.935,5.935,0,0,0,1.267,1.075,4.879,4.879,0,0,1,.59.367,8.927,8.927,0,0,1,1.137.973,12.478,12.478,0,0,1,1.546,1.915,17.11,17.11,0,0,1,1.653,3.212l.005.015.005.015a6.722,6.722,0,0,0,.567,1.217,9.1,9.1,0,0,0,2.062,2.448,10.036,10.036,0,0,0,4.909,2.135,17.552,17.552,0,0,0,6.468-.311l.23-.05.23-.05v.471c.005.895.011,1.735.018,2.507s.013,1.477.019,2.1v.166l0,.166c.005.542.01,1.017.013,1.413s.005.715.005.947a2.753,2.753,0,0,1-.205,1.054,2.348,2.348,0,0,1-.579.836,2.328,2.328,0,0,1-.945.518,3.6,3.6,0,0,1-1.651.036l-.026-.007-.026-.007a43.124,43.124,0,0,1-11.826-6.085,43.436,43.436,0,0,1-9.428-9.428,43.055,43.055,0,0,1-6.225-12.1,43.27,43.27,0,0,1-2.127-13.463,43.23,43.23,0,0,1,3.274-16.577,43.227,43.227,0,0,1,9.406-14.036,43.221,43.221,0,0,1,14.034-9.406,43.213,43.213,0,0,1,16.573-3.274,43.225,43.225,0,0,1,16.576,3.274,43.225,43.225,0,0,1,14.036,9.406,43.225,43.225,0,0,1,9.407,14.036,43.229,43.229,0,0,1,3.274,16.577,43.277,43.277,0,0,1-2.125,13.458,43.063,43.063,0,0,1-6.22,12.1,43.453,43.453,0,0,1-9.419,9.426,43.134,43.134,0,0,1-11.816,6.09l-.024.006-.024.007c-.154.03-.3.051-.441.065S-1436.739-1289.369-1436.865-1289.368Zm-4.206-21.955a7.831,7.831,0,0,1,.86,1.159,9.5,9.5,0,0,1,.692,1.38,11.9,11.9,0,0,1,.679,2.4,15.633,15.633,0,0,1,.228,2.722c0,1.528,0,2.966-.009,4.242s-.012,2.389-.017,3.269l-.006.951-.007.951c0,.542-.007,1.016-.01,1.412s0,.714,0,.946a2.035,2.035,0,0,0,.14.755,1.573,1.573,0,0,0,.394.582,1.616,1.616,0,0,0,.814.383,3.109,3.109,0,0,0,1.124-.027,42.376,42.376,0,0,0,11.593-5.982,42.7,42.7,0,0,0,9.243-9.253,42.294,42.294,0,0,0,6.109-11.882,42.516,42.516,0,0,0,2.087-13.22,42.462,42.462,0,0,0-3.216-16.284,42.464,42.464,0,0,0-9.241-13.789,42.462,42.462,0,0,0-13.788-9.24,42.465,42.465,0,0,0-16.283-3.216,42.452,42.452,0,0,0-16.281,3.216,42.46,42.46,0,0,0-13.787,9.24,42.469,42.469,0,0,0-9.24,13.789,42.466,42.466,0,0,0-3.216,16.284,42.507,42.507,0,0,0,2.089,13.225,42.3,42.3,0,0,0,6.115,11.886,42.684,42.684,0,0,0,9.251,9.254,42.36,42.36,0,0,0,11.6,5.977,3.061,3.061,0,0,0,1.109.016,1.634,1.634,0,0,0,.807-.387,1.585,1.585,0,0,0,.4-.58,2,2,0,0,0,.14-.746c0-.231,0-.549-.005-.944s-.008-.868-.013-1.409l0-.166v-.166c-.006-.57-.011-1.207-.017-1.9s-.012-1.445-.017-2.244a16.8,16.8,0,0,1-7.316.016,10.5,10.5,0,0,1-4.252-2.095,9.846,9.846,0,0,1-2.2-2.582,7.458,7.458,0,0,1-.669-1.433,16.371,16.371,0,0,0-1.566-3.047,11.719,11.719,0,0,0-1.457-1.807,8.005,8.005,0,0,0-1.1-.931,3.677,3.677,0,0,0-.445-.273l-.026-.015-.026-.015a7.08,7.08,0,0,1-1.4-1.176,1.461,1.461,0,0,1-.427-.978.859.859,0,0,1,.112-.392,1.094,1.094,0,0,1,.425-.4,3.064,3.064,0,0,1,1.093-.314,5.582,5.582,0,0,1,.709-.042h.022a7.528,7.528,0,0,1,2.7.717,9.176,9.176,0,0,1,2.442,1.714,11.065,11.065,0,0,1,1.286,1.488,7.583,7.583,0,0,1,.454.7,9.672,9.672,0,0,0,2.812,3.155,7.5,7.5,0,0,0,3.65,1.3,10.006,10.006,0,0,0,3.068-.231,13.142,13.142,0,0,0,2.276-.741,12.8,12.8,0,0,1,.412-1.805,10.423,10.423,0,0,1,.642-1.607,8.808,8.808,0,0,1,.552-.951,7.493,7.493,0,0,1,.637-.824,32.579,32.579,0,0,1-7.363-1.734,18.347,18.347,0,0,1-5.4-3.1,16.276,16.276,0,0,1-4.766-6.817,27.624,27.624,0,0,1-1.569-9.839,18.573,18.573,0,0,1,.3-3.377,16.8,16.8,0,0,1,.9-3.152,16.565,16.565,0,0,1,1.336-2.645,17.62,17.62,0,0,1,1.815-2.42,11.683,11.683,0,0,1-.442-1.492,14.573,14.573,0,0,1-.328-2.27,16.407,16.407,0,0,1,.195-3.8,18.965,18.965,0,0,1,1.082-3.849l.033-.084.033-.084.086-.028.086-.028a3.284,3.284,0,0,1,.775-.109,8.891,8.891,0,0,1,2.246.216,19.107,19.107,0,0,1,4.176,1.471,37.181,37.181,0,0,1,4.787,2.77q1.241-.338,2.538-.6c.863-.173,1.741-.32,2.629-.438s1.816-.212,2.735-.274,1.845-.1,2.769-.1,1.85.038,2.77.1,1.833.154,2.735.274,1.767.265,2.63.438,1.713.373,2.541.6a37.182,37.182,0,0,1,4.783-2.77,19.082,19.082,0,0,1,4.172-1.471,8.872,8.872,0,0,1,2.243-.216,3.259,3.259,0,0,1,.774.109l.086.027.086.028.033.084.033.084a18.932,18.932,0,0,1,1.086,3.849,16.377,16.377,0,0,1,.2,3.8,14.538,14.538,0,0,1-.328,2.27,11.715,11.715,0,0,1-.442,1.493,17.5,17.5,0,0,1,1.815,2.418,16.515,16.515,0,0,1,1.335,2.648,16.8,16.8,0,0,1,.9,3.15,18.672,18.672,0,0,1,.3,3.379,27.631,27.631,0,0,1-1.572,9.854,16.2,16.2,0,0,1-4.776,6.808,19.3,19.3,0,0,1-6.437,3.443A34.1,34.1,0,0,1-1441.071-1311.323Z" transform="translate(1492.977 1373.829)"></path></g><g transform="translate(-3377 -1368.087)"><g transform="translate(0 17.172)"><path class="d" d="M-2507.2-1115.818h-198.349v-15.494H-2507.2v15.494Z" transform="translate(2705.928 1131.694)"></path><path class="c" d="M-2508.433-1117.054h-199.113v-16.258h199.113v16.258Zm-198.349-.764H-2509.2v-14.729h-197.585v14.729Z" transform="translate(2707.546 1133.312)"></path></g><g transform="translate(183.369 0)"><path class="d" d="M-1745.681-1170.727l21.407-12.361,21.407-12.361v-6.446l-21.407-9.138-21.407-9.138v49.445Z" transform="translate(1746.063 1220.75)"></path><path class="c" d="M-1747.681-1172.515V-1223.2l21.789,9.3,21.789,9.3v6.919l-.1.055-.1.055-21.693,12.527Zm.764-49.528v48.2l21.025-12.141,21.025-12.141v-5.973l-21.025-8.975Z" transform="translate(1747.681 1223.2)"></path></g></g><g transform="translate(-3377 -1374.167)"><g transform="translate(0 17.255)"><path class="e" d="M-2507.2-1147.213h-198.349v-15.494H-2507.2v15.494Z" transform="translate(2705.928 1163.089)"></path><path class="c" d="M-2508.433-1148.449h-199.113v-16.258h199.113v16.258Zm-198.349-.764H-2509.2v-14.729h-197.585v14.729Z" transform="translate(2707.546 1164.707)"></path></g><g transform="translate(183.369)"><path class="e" d="M-1745.681-1202.122l21.407-12.361,21.407-12.361-21.407-12.361-21.407-12.361v49.445Z" transform="translate(1746.063 1252.229)"></path><path class="c" d="M-1747.681-1204.263v-50.768l21.98,12.692,21.98,12.692-21.98,12.692Zm.764-49.445v48.121l20.834-12.03,20.834-12.03-20.834-12.03Z" transform="translate(1747.681 1255.031)"></path></g></g><g transform="translate(-3529.473 -1402.301)"><g transform="translate(0)"><path class="f" d="M-3382.494-1359.211a19.075,19.075,0,0,0-1.28-9.963,22.721,22.721,0,0,0-5.778-8.179,22.761,22.761,0,0,0-8.7-4.968,19.114,19.114,0,0,0-10.033-.331,10.107,10.107,0,0,1-3.18.251,10.693,10.693,0,0,1-3.06-.71,11.455,11.455,0,0,1-2.758-1.556,11.847,11.847,0,0,1-2.273-2.286,33.178,33.178,0,0,0-18.874-12.307,41.231,41.231,0,0,0-22.274.974,39.932,39.932,0,0,0-18.536,12.27,32.979,32.979,0,0,0-7.663,21.579,11.061,11.061,0,0,1-.323,2.72,11.232,11.232,0,0,1-.958,2.523,11.541,11.541,0,0,1-1.53,2.231,11.854,11.854,0,0,1-2.037,1.845,28.174,28.174,0,0,0-10.86,15.857,34.765,34.765,0,0,0,.463,19.055,32.494,32.494,0,0,0,10.455,15.834,28.359,28.359,0,0,0,19.117,6.195h78.306v-.045a24.853,24.853,0,0,0,17.4-5.162,27.926,27.926,0,0,0,9.25-14.128,31.079,31.079,0,0,0,.18-17.042,24.69,24.69,0,0,0-9.811-13.9,13.341,13.341,0,0,1-2.411-2.106,12.113,12.113,0,0,1-1.78-2.581,10.6,10.6,0,0,1-1-2.926A9.774,9.774,0,0,1-3382.494-1359.211Z" transform="translate(3504.095 1400.727)"></path><path class="c" d="M-3475.237-1299.353a29.954,29.954,0,0,1-9.784-1.6,28.069,28.069,0,0,1-8.5-4.7,30.851,30.851,0,0,1-6.387-7.052,34.727,34.727,0,0,1-4.194-8.967,36.211,36.211,0,0,1-1.576-9.716,33.768,33.768,0,0,1,1.109-9.55,29.572,29.572,0,0,1,4.141-9.075,28.052,28.052,0,0,1,6.865-6.994,11.494,11.494,0,0,0,1.963-1.779,11.167,11.167,0,0,0,1.487-2.164,10.847,10.847,0,0,0,.93-2.462,10.7,10.7,0,0,0,.307-2.6,34.038,34.038,0,0,1,1.938-11.631,33.561,33.561,0,0,1,5.813-10.194,37.9,37.9,0,0,1,8.292-7.413,42.391,42.391,0,0,1,10.422-4.977,43.279,43.279,0,0,1,11.342-2.036,39.679,39.679,0,0,1,11.14,1.054,34.6,34.6,0,0,1,10.7,4.6,33.218,33.218,0,0,1,8.39,7.847,11.457,11.457,0,0,0,2.19,2.206,11.06,11.06,0,0,0,2.676,1.509,10.285,10.285,0,0,0,3,.689,9.734,9.734,0,0,0,3.011-.246,19.552,19.552,0,0,1,9.932.249,22.932,22.932,0,0,1,9.145,5.139,22.893,22.893,0,0,1,5.992,8.613,19.528,19.528,0,0,1,1.188,9.867,9.4,9.4,0,0,0,.046,2.957,10.212,10.212,0,0,0,.969,2.882,11.733,11.733,0,0,0,1.713,2.489,12.938,12.938,0,0,0,2.352,2.056,24.279,24.279,0,0,1,6.168,6.072,26.3,26.3,0,0,1,3.8,8.042,30.331,30.331,0,0,1,1.112,8.551,32.213,32.213,0,0,1-1.293,8.7,30.188,30.188,0,0,1-3.683,8.059,26.356,26.356,0,0,1-5.7,6.262,24.174,24.174,0,0,1-7.971,4.171,27.057,27.057,0,0,1-9.28,1.1v.022h-78.572l-.1,0v.005q-.274.009-.546.013T-3475.237-1299.353Zm26.024-102.226a40.873,40.873,0,0,0-6.434.515,43.77,43.77,0,0,0-6.524,1.567,38.731,38.731,0,0,0-18.943,12.94,32.987,32.987,0,0,0-6.991,20.542,11.459,11.459,0,0,1-.329,2.786,11.615,11.615,0,0,1-1,2.636,11.937,11.937,0,0,1-1.588,2.311,12.24,12.24,0,0,1-2.1,1.9,27.665,27.665,0,0,0-10.83,16.248,34.926,34.926,0,0,0,.577,18.241,32.758,32.758,0,0,0,9.686,15.163,27.682,27.682,0,0,0,19.508,6.6l.171-.006.171-.006v.011h77.594v-.07l.2.013.2.013q.49.031.971.046t.952.015a23.772,23.772,0,0,0,16.3-6.019,28.268,28.268,0,0,0,8.036-13.059,31.219,31.219,0,0,0,.336-16.286,24.167,24.167,0,0,0-9.816-14.236,13.711,13.711,0,0,1-2.495-2.183,12.483,12.483,0,0,1-1.821-2.647,10.97,10.97,0,0,1-1.042-3.1,10.162,10.162,0,0,1-.049-3.191h0a18.765,18.765,0,0,0-1.151-9.5,22.133,22.133,0,0,0-5.787-8.306,22.176,22.176,0,0,0-8.82-4.964,18.79,18.79,0,0,0-9.563-.247,10.492,10.492,0,0,1-3.242.266,11.058,11.058,0,0,1-3.227-.74,11.832,11.832,0,0,1-2.858-1.612,12.208,12.208,0,0,1-2.338-2.355,32.634,32.634,0,0,0-12.153-9.867A36.42,36.42,0,0,0-3449.213-1401.579Z" transform="translate(3505.683 1402.301)"></path></g></g><g transform="translate(-3535.091 -1402.299)"><g transform="translate(0 0)"><path class="f" d="M-3411.9-1359.2a19.08,19.08,0,0,0-1.28-9.963,22.72,22.72,0,0,0-5.779-8.179,22.754,22.754,0,0,0-8.7-4.969,19.11,19.11,0,0,0-10.033-.331,10.1,10.1,0,0,1-3.181.251,10.7,10.7,0,0,1-3.06-.71,11.43,11.43,0,0,1-2.758-1.556,11.831,11.831,0,0,1-2.273-2.285,33.18,33.18,0,0,0-18.875-12.307,41.231,41.231,0,0,0-22.274.974,39.932,39.932,0,0,0-18.536,12.27,32.978,32.978,0,0,0-7.663,21.579,11.071,11.071,0,0,1-.323,2.72,11.252,11.252,0,0,1-.958,2.523,11.54,11.54,0,0,1-1.53,2.231,11.843,11.843,0,0,1-2.037,1.845,28.173,28.173,0,0,0-10.859,15.857,34.763,34.763,0,0,0,.463,19.055,32.5,32.5,0,0,0,10.455,15.834,28.36,28.36,0,0,0,19.117,6.195h78.306v-.045a24.851,24.851,0,0,0,17.4-5.162,27.926,27.926,0,0,0,9.249-14.128,31.079,31.079,0,0,0,.18-17.042,24.69,24.69,0,0,0-9.811-13.9,13.336,13.336,0,0,1-2.411-2.106,12.111,12.111,0,0,1-1.78-2.581,10.605,10.605,0,0,1-1-2.926A9.76,9.76,0,0,1-3411.9-1359.2Z" transform="translate(3533.503 1400.714)"></path><path class="c" d="M-3504.645-1299.34a29.967,29.967,0,0,1-9.784-1.6,28.089,28.089,0,0,1-8.5-4.7,30.863,30.863,0,0,1-6.386-7.052,34.732,34.732,0,0,1-4.194-8.967,36.231,36.231,0,0,1-1.575-9.716,33.77,33.77,0,0,1,1.109-9.55,29.575,29.575,0,0,1,4.142-9.075,28.057,28.057,0,0,1,6.865-6.994,11.475,11.475,0,0,0,1.964-1.779,11.154,11.154,0,0,0,1.487-2.163,10.843,10.843,0,0,0,.93-2.462,10.688,10.688,0,0,0,.307-2.6,34.036,34.036,0,0,1,1.937-11.63,33.559,33.559,0,0,1,5.813-10.194,37.9,37.9,0,0,1,8.292-7.413,42.391,42.391,0,0,1,10.422-4.976,43.291,43.291,0,0,1,11.342-2.036,39.671,39.671,0,0,1,11.14,1.055,34.591,34.591,0,0,1,10.7,4.6,33.222,33.222,0,0,1,8.39,7.847,11.446,11.446,0,0,0,2.19,2.206,11.054,11.054,0,0,0,2.676,1.509,10.287,10.287,0,0,0,3,.689,9.734,9.734,0,0,0,3.011-.245,19.553,19.553,0,0,1,9.932.249,22.93,22.93,0,0,1,9.144,5.139,22.89,22.89,0,0,1,5.992,8.613,19.522,19.522,0,0,1,1.188,9.867l-.189-.027-.189-.027.189.027.189.027a9.391,9.391,0,0,0,.046,2.957,10.209,10.209,0,0,0,.969,2.882,11.724,11.724,0,0,0,1.713,2.489,12.949,12.949,0,0,0,2.352,2.056,24.266,24.266,0,0,1,6.168,6.073,26.292,26.292,0,0,1,3.8,8.042,30.332,30.332,0,0,1,1.112,8.551,32.227,32.227,0,0,1-1.293,8.7,30.189,30.189,0,0,1-3.683,8.059,26.362,26.362,0,0,1-5.7,6.262,24.174,24.174,0,0,1-7.971,4.171,27.064,27.064,0,0,1-9.28,1.1v.023h-78.573l-.1,0v.005q-.274.009-.546.013T-3504.645-1299.34Zm26.024-102.226a40.867,40.867,0,0,0-6.434.515,43.759,43.759,0,0,0-6.524,1.567,38.734,38.734,0,0,0-18.944,12.94,32.988,32.988,0,0,0-6.99,20.542,11.45,11.45,0,0,1-.329,2.786,11.614,11.614,0,0,1-1,2.636,11.947,11.947,0,0,1-1.588,2.311,12.247,12.247,0,0,1-2.1,1.9,27.663,27.663,0,0,0-10.83,16.248,34.931,34.931,0,0,0,.576,18.241,32.77,32.77,0,0,0,9.686,15.164,27.679,27.679,0,0,0,19.508,6.595l.165-.006.165-.005v.011h77.605v-.07l.2.013.2.013q.49.031.971.046t.952.015a23.773,23.773,0,0,0,16.3-6.019,28.271,28.271,0,0,0,8.036-13.059,31.22,31.22,0,0,0,.336-16.286,24.168,24.168,0,0,0-9.816-14.236,13.715,13.715,0,0,1-2.495-2.183,12.474,12.474,0,0,1-1.821-2.647,10.969,10.969,0,0,1-1.042-3.1,10.156,10.156,0,0,1-.049-3.191,18.762,18.762,0,0,0-1.15-9.5,22.132,22.132,0,0,0-5.787-8.306,22.171,22.171,0,0,0-8.82-4.964,18.792,18.792,0,0,0-9.563-.247,10.489,10.489,0,0,1-3.243.265,11.047,11.047,0,0,1-3.227-.74,11.816,11.816,0,0,1-2.859-1.612,12.207,12.207,0,0,1-2.338-2.355,32.634,32.634,0,0,0-12.153-9.867A36.418,36.418,0,0,0-3478.621-1401.566Z" transform="translate(3535.091 1402.288)"></path></g></g><g transform="translate(-3519.3 -1383.494)"><path class="g" d="M-3345.287-1249.612a9.142,9.142,0,0,0-2.9-1.955,9.094,9.094,0,0,0-3.551-.717c-.257,0-.511.011-.762.032s-.5.053-.744.093l-1.93-5.006-1.929-5.006-1.916-4.97-1.916-4.97a9.218,9.218,0,0,0,1.246-.758,9.051,9.051,0,0,0,1.1-.94,9.141,9.141,0,0,0,1.956-2.9,9.094,9.094,0,0,0,.717-3.552,9.091,9.091,0,0,0-.717-3.552,9.139,9.139,0,0,0-1.956-2.9,9.135,9.135,0,0,0-2.9-1.956,9.1,9.1,0,0,0-3.552-.717,9.094,9.094,0,0,0-3.551.717,9.137,9.137,0,0,0-2.9,1.956,9.145,9.145,0,0,0-1.245,1.55,9.117,9.117,0,0,0-.886,1.8l-8.331-1.316-8.331-1.316-6.634-1.048-6.634-1.048q.033-.319.05-.643t.017-.651a12.423,12.423,0,0,0-.979-4.852,12.483,12.483,0,0,0-2.671-3.962,12.486,12.486,0,0,0-3.962-2.671,12.423,12.423,0,0,0-4.852-.979,12.426,12.426,0,0,0-4.852.979,12.491,12.491,0,0,0-3.962,2.671,12.491,12.491,0,0,0-2.671,3.962,12.423,12.423,0,0,0-.979,4.852,12.423,12.423,0,0,0,.979,4.852,12.49,12.49,0,0,0,2.671,3.962q.352.351.73.672t.782.613l-2.676,5.3-2.676,5.3-2.818,5.583-2.819,5.583a11.715,11.715,0,0,0-2.137-.639,11.759,11.759,0,0,0-2.286-.223,11.736,11.736,0,0,0-4.583.925,11.8,11.8,0,0,0-3.743,2.523,11.791,11.791,0,0,0-2.523,3.743,11.739,11.739,0,0,0-.925,4.583,11.738,11.738,0,0,0,.925,4.583,11.791,11.791,0,0,0,2.523,3.743,11.791,11.791,0,0,0,3.743,2.523,11.733,11.733,0,0,0,4.583.925,11.735,11.735,0,0,0,4.583-.925,11.789,11.789,0,0,0,3.742-2.523,11.753,11.753,0,0,0,1.8-2.315,11.729,11.729,0,0,0,1.182-2.725q2.552.2,5.1.372t5.107.326q5.451.323,10.906.541t10.91.333q2.728.055,5.456.089t5.456.032q2.727,0,5.454-.054t5.453-.167l5.448-.165,5.448-.164.9-.027.9-.027a9.061,9.061,0,0,0,.852,3.024,9.15,9.15,0,0,0,1.773,2.5,9.134,9.134,0,0,0,2.9,1.955,9.092,9.092,0,0,0,3.551.717,9.092,9.092,0,0,0,3.551-.717,9.134,9.134,0,0,0,2.9-1.955,9.141,9.141,0,0,0,1.956-2.9,9.1,9.1,0,0,0,.717-3.552,9.1,9.1,0,0,0-.717-3.552A9.143,9.143,0,0,0-3345.287-1249.612Zm-80.719-17.694,2.891-5.184,2.891-5.184a12.4,12.4,0,0,0,2.076.56,12.529,12.529,0,0,0,2.2.194,12.43,12.43,0,0,0,4.852-.979,12.486,12.486,0,0,0,3.962-2.671,12.516,12.516,0,0,0,2-2.619,12.392,12.392,0,0,0,1.259-3.1l6.584,1.321,6.583,1.321,8.271,1.659,8.271,1.659c0,.012,0,.024,0,.036s0,.024,0,.036a9.179,9.179,0,0,0,.141,1.608,9.077,9.077,0,0,0,.408,1.516q-6.768,3.989-13.721,7.661t-14.069,7.019q-6.5,3.055-13.121,5.832t-13.362,5.273a11.818,11.818,0,0,0-1.063-1.909,11.728,11.728,0,0,0-1.387-1.67q-.4-.4-.846-.768t-.917-.684l3.045-5.462Zm63.373,23.41-5.435-.04-5.436-.041q-2.715.014-5.43-.038t-5.428-.151q-2.713-.1-5.425-.236t-5.421-.293q-5.42-.318-10.83-.739t-10.811-.945q-2.52-.245-5.038-.513t-5.032-.558q-.035-.5-.111-.984t-.19-.957q6.839-2.367,13.577-5.023t13.358-5.6q7.255-3.223,14.358-6.784t14.033-7.448c.065.074.131.148.2.22s.135.144.205.214a9.138,9.138,0,0,0,2.9,1.955,9.092,9.092,0,0,0,3.551.717,9.117,9.117,0,0,0,1.021-.058,9.222,9.222,0,0,0,.988-.167l1.678,5.055,1.678,5.056,1.689,5.092,1.69,5.092a9.176,9.176,0,0,0-1,.666,9.028,9.028,0,0,0-.9.788,9.125,9.125,0,0,0-1.814,2.587,9.09,9.09,0,0,0-.827,3.142l-.9-.007Z" transform="translate(3450.815 1302.231)"></path><path class="c" d="M-3353.356-1235.273a9.491,9.491,0,0,1-3.64-.719,9.5,9.5,0,0,1-3.082-2.066,9.516,9.516,0,0,1-1.787-2.484,9.475,9.475,0,0,1-.906-2.914l-6.171.186-6.171.186c-1.685.072-3.421.126-5.232.163s-3.7.056-5.687.058c-1.585,0-3.22-.007-5.005-.027s-3.723-.051-5.914-.095c-3.622-.076-7.269-.187-10.916-.333s-7.294-.327-10.916-.541c-1.594-.094-3.224-.2-4.879-.311s-3.337-.235-5.033-.365a12.164,12.164,0,0,1-1.2,2.63,12.164,12.164,0,0,1-1.787,2.276,12.139,12.139,0,0,1-3.941,2.641,12.136,12.136,0,0,1-4.655.919,12.137,12.137,0,0,1-4.654-.919,12.137,12.137,0,0,1-3.941-2.641,12.137,12.137,0,0,1-2.641-3.941,12.14,12.14,0,0,1-.919-4.654,12.14,12.14,0,0,1,.919-4.655,12.139,12.139,0,0,1,2.641-3.941,12.139,12.139,0,0,1,3.941-2.641,12.138,12.138,0,0,1,4.654-.919,12.179,12.179,0,0,1,2.156.191,12.093,12.093,0,0,1,2.082.571l5.344-10.586,5.344-10.586q-.348-.265-.673-.548t-.624-.582a12.826,12.826,0,0,1-2.791-4.165,12.828,12.828,0,0,1-.971-4.918,12.83,12.83,0,0,1,.971-4.919,12.826,12.826,0,0,1,2.791-4.165,12.825,12.825,0,0,1,4.165-2.791,12.827,12.827,0,0,1,4.919-.972,12.828,12.828,0,0,1,4.919.972,12.827,12.827,0,0,1,4.165,2.791,12.827,12.827,0,0,1,2.791,4.165,12.83,12.83,0,0,1,.971,4.919q0,.242-.009.485t-.028.487l14.635,2.312,14.635,2.312a9.56,9.56,0,0,1,.892-1.7,9.558,9.558,0,0,1,1.215-1.492,9.491,9.491,0,0,1,3.082-2.065,9.491,9.491,0,0,1,3.64-.719,9.491,9.491,0,0,1,3.64.719,9.488,9.488,0,0,1,3.082,2.065,9.488,9.488,0,0,1,2.066,3.082,9.493,9.493,0,0,1,.719,3.64,9.492,9.492,0,0,1-.719,3.64,9.485,9.485,0,0,1-2.066,3.082,9.419,9.419,0,0,1-1.012.879,9.555,9.555,0,0,1-1.129.729l3.729,9.675,3.729,9.675q.316-.042.632-.063t.627-.021a9.491,9.491,0,0,1,3.64.719,9.491,9.491,0,0,1,3.082,2.065,9.49,9.49,0,0,1,2.065,3.082,9.5,9.5,0,0,1,.719,3.64,9.5,9.5,0,0,1-.719,3.64,9.489,9.489,0,0,1-2.065,3.082,9.494,9.494,0,0,1-3.082,2.066A9.49,9.49,0,0,1-3353.356-1235.273Zm-8.733-8.968.018.177.018.177a8.7,8.7,0,0,0,.8,2.858,8.749,8.749,0,0,0,1.715,2.431,8.732,8.732,0,0,0,2.834,1.9,8.727,8.727,0,0,0,3.347.661,8.727,8.727,0,0,0,3.347-.661,8.732,8.732,0,0,0,2.834-1.9,8.727,8.727,0,0,0,1.9-2.834,8.726,8.726,0,0,0,.661-3.347,8.727,8.727,0,0,0-.661-3.347,8.727,8.727,0,0,0-1.9-2.834,8.729,8.729,0,0,0-2.834-1.9,8.73,8.73,0,0,0-3.347-.661c-.238,0-.478.01-.719.03s-.483.05-.725.09l-.153.026-.154.025-3.963-10.283-3.963-10.283.154-.078.155-.078a8.808,8.808,0,0,0,1.193-.725,8.685,8.685,0,0,0,1.059-.9,8.72,8.72,0,0,0,1.9-2.834,8.729,8.729,0,0,0,.661-3.347,8.728,8.728,0,0,0-.661-3.347,8.721,8.721,0,0,0-1.9-2.834,8.726,8.726,0,0,0-2.834-1.9,8.732,8.732,0,0,0-3.347-.661,8.733,8.733,0,0,0-3.347.661,8.727,8.727,0,0,0-2.834,1.9,8.776,8.776,0,0,0-1.2,1.495,8.747,8.747,0,0,0-.844,1.715l-.054.148-.053.148-15.3-2.417-15.3-2.417.019-.18.019-.18c.021-.208.038-.418.049-.628s.016-.419.016-.627a12.069,12.069,0,0,0-.914-4.626,12.062,12.062,0,0,0-2.625-3.917,12.067,12.067,0,0,0-3.917-2.625,12.065,12.065,0,0,0-4.626-.914,12.065,12.065,0,0,0-4.626.914,12.061,12.061,0,0,0-3.917,2.625,12.062,12.062,0,0,0-2.625,3.917,12.065,12.065,0,0,0-.914,4.626,12.066,12.066,0,0,0,.914,4.626,12.07,12.07,0,0,0,2.625,3.917q.333.333.7.646t.765.6l.132.1.132.1-5.647,11.186-5.647,11.187-.163-.066-.163-.066a11.351,11.351,0,0,0-2.1-.624,11.371,11.371,0,0,0-2.181-.21,11.374,11.374,0,0,0-4.362.862,11.37,11.37,0,0,0-3.693,2.475,11.374,11.374,0,0,0-2.475,3.693,11.375,11.375,0,0,0-.861,4.362,11.376,11.376,0,0,0,.861,4.362,11.374,11.374,0,0,0,2.475,3.693,11.379,11.379,0,0,0,3.693,2.475,11.374,11.374,0,0,0,4.362.861,11.373,11.373,0,0,0,4.362-.861,11.377,11.377,0,0,0,3.694-2.475,11.405,11.405,0,0,0,1.75-2.257,11.381,11.381,0,0,0,1.134-2.62l.043-.149.043-.149.155.012.155.012c1.746.135,3.478.261,5.183.377s3.383.224,5.022.321c3.617.214,7.259.395,10.9.541s7.284.257,10.9.333c2.188.044,4.122.075,5.905.1s3.415.028,5,.026c1.982,0,3.864-.021,5.671-.058s3.539-.09,5.22-.162l6.525-.2Zm-.007-.877-6.513-.048-6.514-.049c-1.678.008-3.406,0-5.209-.034s-3.682-.082-5.66-.154c-1.576-.058-3.2-.127-4.976-.214s-3.7-.19-5.879-.316c-3.595-.211-7.214-.458-10.831-.739s-7.234-.6-10.824-.946c-1.617-.157-3.274-.326-4.957-.5s-3.394-.368-5.12-.567l-.157-.018-.158-.018-.011-.158-.011-.158c-.022-.318-.058-.635-.107-.948s-.11-.624-.184-.929l-.041-.169-.041-.169.164-.057.164-.057c4.543-1.572,9.077-3.251,13.572-5.023s8.949-3.638,13.333-5.586q7.214-3.205,14.338-6.776,7.107-3.562,14.021-7.44l.135-.076.135-.076.1.116.1.116c.073.083.14.157.2.226s.124.131.183.191a8.727,8.727,0,0,0,2.834,1.9,8.733,8.733,0,0,0,3.347.661,8.653,8.653,0,0,0,.965-.054,8.844,8.844,0,0,0,.96-.161l.169-.038.169-.038,3.471,10.459,3.471,10.46-.135.078-.135.078a8.913,8.913,0,0,0-.958.639,8.683,8.683,0,0,0-.861.753,8.743,8.743,0,0,0-1.755,2.519,8.728,8.728,0,0,0-.775,2.969l-.014.177Zm-13.027-.861,6.164.046,6.164.046a9.5,9.5,0,0,1,.884-3.034,9.5,9.5,0,0,1,1.834-2.58,9.439,9.439,0,0,1,.813-.724,9.62,9.62,0,0,1,.9-.63l-3.266-9.841-3.266-9.841q-.436.081-.876.123c-.293.027-.586.041-.878.041a9.491,9.491,0,0,1-3.64-.719,9.5,9.5,0,0,1-3.082-2.065l-.1-.107-.108-.115q-6.853,3.835-13.924,7.376-7.055,3.533-14.232,6.723-6.513,2.893-13.2,5.536-6.676,2.636-13.439,4.985.07.332.122.67t.085.678c1.67.191,3.324.374,4.954.546s3.232.336,4.8.488c3.585.348,7.2.663,10.81.944s7.227.528,10.816.738c2.175.125,4.1.229,5.87.315s3.395.156,4.968.213c1.973.072,3.846.123,5.645.154S-3376.8-1245.97-3375.123-1245.979Zm-54.583-6.509-.073-.165-.073-.164a11.446,11.446,0,0,0-1.025-1.844,11.377,11.377,0,0,0-1.345-1.62q-.39-.39-.819-.743t-.888-.662l-.146-.1-.146-.1,6.1-10.942,6.1-10.942.153.056.153.056a12.016,12.016,0,0,0,2.037.547,12.155,12.155,0,0,0,2.111.184,12.068,12.068,0,0,0,4.626-.914,12.064,12.064,0,0,0,3.917-2.625,12.119,12.119,0,0,0,1.958-2.564,12.017,12.017,0,0,0,1.206-2.982l.045-.176.045-.176,15.187,3.047,15.187,3.047,0,.192,0,.192a8.788,8.788,0,0,0,.132,1.523,8.684,8.684,0,0,0,.394,1.47l.054.149.054.149-.137.081-.137.081q-6.757,3.982-13.744,7.673-6.972,3.683-14.076,7.024-6.471,3.042-13.13,5.835-6.644,2.786-13.382,5.283l-.169.063Zm-3.507-5.63q.409.292.793.618t.738.68a12.135,12.135,0,0,1,1.334,1.582,12.142,12.142,0,0,1,1.045,1.786q6.624-2.462,13.184-5.216t12.936-5.753q7-3.292,13.906-6.935,6.888-3.635,13.583-7.57a9.449,9.449,0,0,1-.331-1.336,9.489,9.489,0,0,1-.134-1.375l-14.527-2.914-14.526-2.914a12.8,12.8,0,0,1-1.279,2.977,12.882,12.882,0,0,1-1.99,2.57,12.826,12.826,0,0,1-4.165,2.791,12.83,12.83,0,0,1-4.919.971,12.933,12.933,0,0,1-2.083-.168,12.754,12.754,0,0,1-2.018-.5l-2.812,5.043-2.812,5.043-.167-.093-.167-.093.167.093.167.093-2.961,5.311Z" transform="translate(3452.433 1303.85)"></path></g><g transform="translate(-3439.993 -1338.182)"><g transform="translate(5.426 0.163)"><path class="h" d="M-3006.885-1032.588a2.714,2.714,0,0,0,.61,1.767,2.717,2.717,0,0,0,1.608.957l2.206.415,2.207.415a2.735,2.735,0,0,1,1.088.469,2.721,2.721,0,0,1,.786.885l3.1,5.578,3.1,5.578a2.7,2.7,0,0,1,.333,1.123,2.74,2.74,0,0,1-.171,1.164l-.368.972-.368.972h1.425v7.854h3.258a2.724,2.724,0,0,0,1.445-.079,2.708,2.708,0,0,0,1.216-.83l1.472-1.755,1.473-1.755a2.74,2.74,0,0,1,.959-.727,2.721,2.721,0,0,1,1.176-.245l7.741.071,7.741.071v5.414s1.082.045,2.25.042a9.375,9.375,0,0,0,2.77-.249l1.784-1,1.784-1a2.711,2.711,0,0,0,1.222-1.42,2.722,2.722,0,0,0,.015-1.873l-.763-2.13-.763-2.13a2.728,2.728,0,0,1-.146-1.187,2.724,2.724,0,0,1,.376-1.135l3.135-5.213,3.134-5.213a2.72,2.72,0,0,1,.819-.863,2.7,2.7,0,0,1,1.11-.428l2.229-.336,2.229-.336a2.713,2.713,0,0,0,1.643-.9,2.721,2.721,0,0,0,.674-1.744l.039-2.042.039-2.042a2.716,2.716,0,0,0-.61-1.769,2.72,2.72,0,0,0-1.608-.955l-2.207-.417-2.206-.417a2.7,2.7,0,0,1-1.088-.466,2.711,2.711,0,0,1-.787-.889l-3.1-5.576-3.1-5.576a2.746,2.746,0,0,1-.335-1.125,2.711,2.711,0,0,1,.168-1.162l.781-2.054.78-2.054a2.716,2.716,0,0,0,.021-1.873,2.724,2.724,0,0,0-1.194-1.446l-1.767-1.033-1.767-1.033a2.7,2.7,0,0,0-.83-.318,2.711,2.711,0,0,0-.863-.035l-1.936-.047-1.936-.047v5.458l-7.577-.069-7.577-.069a2.725,2.725,0,0,1-1.15-.277,2.735,2.735,0,0,1-.922-.734l-1.4-1.733-1.4-1.733c-.417-.518-1.947-.669-3.373-.69s-2.747.086-2.747.086v7.854h-1.194l.294.82.294.82a2.729,2.729,0,0,1,.146,1.187,2.725,2.725,0,0,1-.377,1.135l-3.137,5.213-3.136,5.213a2.7,2.7,0,0,1-.818.861,2.731,2.731,0,0,1-1.106.43l-2.231.336-2.231.336a2.715,2.715,0,0,0-1.641.9,2.713,2.713,0,0,0-.676,1.746l-.037,2.042Zm21.6-1.846a11.18,11.18,0,0,1,3.427-7.648,11.182,11.182,0,0,1,7.76-3.16,11.187,11.187,0,0,1,8.083,3.424,11.187,11.187,0,0,1,3.142,8.2,11.179,11.179,0,0,1-3.425,7.645,11.169,11.169,0,0,1-7.761,3.158,11.175,11.175,0,0,1-8.083-3.422A11.184,11.184,0,0,1-2985.288-1034.434Z" transform="translate(3007.268 1064.148)"></path><path class="c" d="M-2964.344-1005.5c-.442,0-.871-.007-1.243-.017s-.687-.021-.9-.03l-.183-.008-.183-.008v-5.4l-7.552-.069-7.552-.07a2.312,2.312,0,0,0-1.015.208,2.362,2.362,0,0,0-.825.628l-1.472,1.755-1.472,1.754a3.092,3.092,0,0,1-1.353.935,3.1,3.1,0,0,1-1.64.109h-3.6v-7.854h-1.6l.466-1.231.466-1.231a2.359,2.359,0,0,0,.148-1,2.322,2.322,0,0,0-.287-.965l-3.1-5.579-3.1-5.579a2.338,2.338,0,0,0-.676-.761,2.36,2.36,0,0,0-.937-.4l-2.206-.415-2.206-.415a3.1,3.1,0,0,1-1.836-1.089,3.1,3.1,0,0,1-.694-2.018l.037-2.042.037-2.042a3.1,3.1,0,0,1,.768-1.991,3.1,3.1,0,0,1,1.874-1.02l2.231-.336,2.231-.336a2.344,2.344,0,0,0,.952-.37,2.334,2.334,0,0,0,.7-.739l3.137-5.213,3.137-5.213a2.341,2.341,0,0,0,.324-.975,2.351,2.351,0,0,0-.126-1.021l-.386-1.075-.386-1.075H-2993v-7.824l.176-.014.176-.014a28.908,28.908,0,0,1,3.225-.082c1.383.053,2.766.258,3.224.826l1.4,1.732,1.4,1.733a2.348,2.348,0,0,0,.794.632,2.345,2.345,0,0,0,.987.237l7.382.067,7.383.067v-5.464l2.118.051,2.118.051a3.1,3.1,0,0,1,.985.05,3.081,3.081,0,0,1,.919.357l1.766,1.033,1.767,1.033a3.1,3.1,0,0,1,1.364,1.647,3.1,3.1,0,0,1-.027,2.136l-.78,2.054-.781,2.054a2.325,2.325,0,0,0-.145,1,2.362,2.362,0,0,0,.289.97l3.1,5.576,3.1,5.576a2.329,2.329,0,0,0,.675.765,2.31,2.31,0,0,0,.935.4l2.207.417,2.207.418a3.1,3.1,0,0,1,1.836,1.089,3.1,3.1,0,0,1,.694,2.018l-.039,2.042-.039,2.042a3.1,3.1,0,0,1-.768,1.992,3.094,3.094,0,0,1-1.875,1.02l-2.228.336-2.229.336a2.313,2.313,0,0,0-.953.366,2.333,2.333,0,0,0-.705.743l-3.134,5.213-3.134,5.213a2.341,2.341,0,0,0-.324.975,2.343,2.343,0,0,0,.126,1.021l.763,2.13.763,2.13a3.1,3.1,0,0,1-.015,2.139,3.093,3.093,0,0,1-1.4,1.617l-1.784,1-1.784,1a3.592,3.592,0,0,1-1.224.241C-2963.046-1005.515-2963.708-1005.5-2964.344-1005.5Zm-1.745-.8c.972.033,2,.039,2.824.012a5.74,5.74,0,0,0,1.626-.183l1.784-1,1.784-1a2.335,2.335,0,0,0,1.053-1.22,2.337,2.337,0,0,0,.01-1.612l-.763-2.13-.763-2.13a3.108,3.108,0,0,1-.167-1.354,3.1,3.1,0,0,1,.43-1.293l3.134-5.213,3.134-5.213a3.1,3.1,0,0,1,.935-.986,3.076,3.076,0,0,1,1.266-.486l2.228-.336,2.228-.336a2.33,2.33,0,0,0,1.413-.769,2.334,2.334,0,0,0,.579-1.5l.039-2.042.039-2.042a2.332,2.332,0,0,0-.523-1.521,2.336,2.336,0,0,0-1.384-.821l-2.207-.417-2.207-.417a3.072,3.072,0,0,1-1.242-.531,3.09,3.09,0,0,1-.9-1.015l-3.1-5.575-3.1-5.576a3.128,3.128,0,0,1-.383-1.286,3.091,3.091,0,0,1,.193-1.323l.781-2.054.781-2.054a2.333,2.333,0,0,0,.02-1.611,2.34,2.34,0,0,0-1.029-1.242l-1.767-1.033-1.767-1.033a2.326,2.326,0,0,0-.7-.271,2.324,2.324,0,0,0-.752-.033l-.013,0-.014,0-1.754-.042-1.754-.042v5.452l-7.77-.071-7.77-.071a3.115,3.115,0,0,1-1.311-.314,3.113,3.113,0,0,1-1.054-.839l-1.4-1.733-1.4-1.733a3.721,3.721,0,0,0-2.107-.513,26.7,26.7,0,0,0-3.333.023v7.881h-1.033l.2.564.2.564a3.119,3.119,0,0,1,.167,1.354,3.1,3.1,0,0,1-.43,1.293l-3.136,5.213-3.137,5.213a3.09,3.09,0,0,1-.93.981,3.113,3.113,0,0,1-1.263.491l-2.231.336-2.231.336a2.334,2.334,0,0,0-1.413.769,2.336,2.336,0,0,0-.579,1.5l-.037,2.042-.037,2.042a2.332,2.332,0,0,0,.523,1.521,2.336,2.336,0,0,0,1.384.821l2.206.415,2.206.415a3.121,3.121,0,0,1,1.243.535,3.105,3.105,0,0,1,.9,1.01l3.1,5.578,3.1,5.578a3.079,3.079,0,0,1,.381,1.28,3.123,3.123,0,0,1-.2,1.328l-.271.713-.27.713h1.254v7.854l1.479,0,1.479,0a2.331,2.331,0,0,0,1.253-.07,2.331,2.331,0,0,0,1.034-.71l1.473-1.755,1.472-1.755a3.12,3.12,0,0,1,1.093-.831,3.1,3.1,0,0,1,1.342-.277l7.929.073,7.929.073v5.425Zm-9.61-17.794a11.574,11.574,0,0,1-4.531-.913,11.57,11.57,0,0,1-3.806-2.623,11.582,11.582,0,0,1-2.5-3.9,11.6,11.6,0,0,1-.755-4.574h0a11.49,11.49,0,0,1,1-4.29,11.656,11.656,0,0,1,2.547-3.619,11.665,11.665,0,0,1,3.7-2.42,11.491,11.491,0,0,1,4.321-.847h.009a11.6,11.6,0,0,1,4.54.914,11.57,11.57,0,0,1,3.81,2.627,11.57,11.57,0,0,1,2.5,3.9,11.6,11.6,0,0,1,.754,4.574,11.489,11.489,0,0,1-1,4.289,11.649,11.649,0,0,1-2.546,3.618,11.64,11.64,0,0,1-3.7,2.42,11.472,11.472,0,0,1-4.322.845h-.019Zm-10.826-11.987a10.832,10.832,0,0,0,.705,4.273,10.817,10.817,0,0,0,2.333,3.647,10.8,10.8,0,0,0,3.555,2.45,10.811,10.811,0,0,0,4.233.853h.018a10.79,10.79,0,0,0,7.481-3.063,10.8,10.8,0,0,0,3.324-7.372,10.839,10.839,0,0,0-.7-4.273,10.8,10.8,0,0,0-2.331-3.646,10.816,10.816,0,0,0-3.559-2.454,10.832,10.832,0,0,0-4.241-.854h-.009a10.8,10.8,0,0,0-7.482,3.068,10.8,10.8,0,0,0-3.323,7.372Z" transform="translate(3008.886 1065.805)"></path></g><g transform="translate(0 0)"><g transform="translate(0.382 0.384)"><path class="i" d="M-3035.288-1033.309a2.712,2.712,0,0,0,.611,1.767,2.715,2.715,0,0,0,1.608.957l2.207.415,2.207.415a2.735,2.735,0,0,1,1.088.469,2.719,2.719,0,0,1,.786.885l3.1,5.578,3.1,5.578a2.7,2.7,0,0,1,.333,1.123,2.745,2.745,0,0,1-.171,1.164l-.778,2.054-.778,2.054a2.714,2.714,0,0,0-.021,1.872,2.706,2.706,0,0,0,1.194,1.441l1.765,1.033,1.765,1.033a2.715,2.715,0,0,0,1.841.334,2.721,2.721,0,0,0,1.62-.932l1.472-1.755,1.472-1.755a2.748,2.748,0,0,1,.959-.727,2.72,2.72,0,0,1,1.176-.245l6.091.105,6.092.106a2.732,2.732,0,0,1,1.148.275,2.7,2.7,0,0,1,.924.736l1.4,1.733,1.4,1.733a2.723,2.723,0,0,0,1.6.963,2.7,2.7,0,0,0,1.844-.3l1.784-1,1.784-1a2.712,2.712,0,0,0,1.222-1.42,2.722,2.722,0,0,0,.015-1.873l-.763-2.13-.763-2.13a2.729,2.729,0,0,1-.146-1.187,2.72,2.72,0,0,1,.376-1.135l3.134-5.213,3.134-5.213a2.725,2.725,0,0,1,.819-.863,2.7,2.7,0,0,1,1.11-.428l2.229-.336,2.229-.336a2.713,2.713,0,0,0,1.643-.9,2.718,2.718,0,0,0,.674-1.744l.039-2.042.039-2.042a2.714,2.714,0,0,0-.611-1.769,2.719,2.719,0,0,0-1.608-.955l-2.207-.417-2.206-.417a2.7,2.7,0,0,1-1.088-.466,2.711,2.711,0,0,1-.787-.889l-3.1-5.576-3.1-5.576a2.745,2.745,0,0,1-.335-1.125,2.708,2.708,0,0,1,.169-1.162l.78-2.054.78-2.054a2.716,2.716,0,0,0,.021-1.873,2.725,2.725,0,0,0-1.194-1.446l-1.767-1.033-1.767-1.033a2.719,2.719,0,0,0-1.839-.331,2.715,2.715,0,0,0-1.622.935l-1.473,1.752-1.472,1.752a2.69,2.69,0,0,1-.955.73,2.754,2.754,0,0,1-1.176.247l-6.092-.105-6.091-.106a2.726,2.726,0,0,1-1.15-.277,2.739,2.739,0,0,1-.922-.734l-1.4-1.733-1.4-1.733a2.716,2.716,0,0,0-1.6-.965,2.721,2.721,0,0,0-1.847.3l-1.784,1-1.784,1a2.711,2.711,0,0,0-1.218,1.42,2.726,2.726,0,0,0-.014,1.873l.763,2.13.763,2.13a2.732,2.732,0,0,1,.146,1.187,2.721,2.721,0,0,1-.377,1.135l-3.136,5.213-3.136,5.213a2.708,2.708,0,0,1-.819.861,2.731,2.731,0,0,1-1.106.43l-2.231.336-2.231.336a2.715,2.715,0,0,0-1.641.9,2.714,2.714,0,0,0-.676,1.745l-.037,2.042Zm21.6-1.845a11.181,11.181,0,0,1,3.427-7.648,11.181,11.181,0,0,1,7.76-3.16,11.186,11.186,0,0,1,8.083,3.424,11.187,11.187,0,0,1,3.143,8.2,11.18,11.18,0,0,1-3.425,7.645,11.169,11.169,0,0,1-7.762,3.158,11.174,11.174,0,0,1-8.083-3.422A11.184,11.184,0,0,1-3013.691-1035.155Z" transform="translate(3035.288 1064.648)"></path></g><path class="c" d="M-2991.185-1006.092a3.093,3.093,0,0,1-1.318-.3,3.11,3.11,0,0,1-1.094-.86l-1.4-1.733-1.4-1.733a2.322,2.322,0,0,0-.792-.632,2.352,2.352,0,0,0-.989-.237l-6.091-.105-6.091-.105a2.345,2.345,0,0,0-1.011.21,2.36,2.36,0,0,0-.825.627l-1.472,1.754-1.472,1.754a3.1,3.1,0,0,1-1.848,1.065,3.1,3.1,0,0,1-2.1-.382l-1.765-1.033-1.765-1.033a3.086,3.086,0,0,1-1.364-1.642,3.1,3.1,0,0,1,.027-2.137l.778-2.054.778-2.054a2.358,2.358,0,0,0,.148-1,2.32,2.32,0,0,0-.287-.965l-3.1-5.579-3.1-5.579a2.341,2.341,0,0,0-.676-.761,2.355,2.355,0,0,0-.937-.4l-2.206-.415-2.206-.415a3.1,3.1,0,0,1-1.836-1.089,3.093,3.093,0,0,1-.694-2.018l.037-2.042.037-2.042a3.1,3.1,0,0,1,.768-1.991,3.1,3.1,0,0,1,1.874-1.02l2.23-.336,2.231-.336a2.341,2.341,0,0,0,.952-.37,2.331,2.331,0,0,0,.7-.74l3.137-5.213,3.137-5.213a2.344,2.344,0,0,0,.324-.975,2.346,2.346,0,0,0-.126-1.021l-.763-2.13-.763-2.13a3.106,3.106,0,0,1,.013-2.138,3.09,3.09,0,0,1,1.392-1.618l1.784-1,1.784-1a3.1,3.1,0,0,1,2.108-.342,3.1,3.1,0,0,1,1.827,1.1l1.4,1.732,1.4,1.733a2.346,2.346,0,0,0,.795.632,2.344,2.344,0,0,0,.987.237l6.091.105,6.092.106a2.385,2.385,0,0,0,1.011-.214,2.3,2.3,0,0,0,.818-.625l1.473-1.753,1.473-1.753a3.1,3.1,0,0,1,1.846-1.068,3.1,3.1,0,0,1,2.1.38l1.767,1.033,1.767,1.033a3.1,3.1,0,0,1,1.364,1.647,3.1,3.1,0,0,1-.027,2.136l-.78,2.054-.78,2.054a2.332,2.332,0,0,0-.145,1,2.362,2.362,0,0,0,.289.97l3.1,5.576,3.1,5.575a2.327,2.327,0,0,0,.676.765,2.311,2.311,0,0,0,.935.4l2.207.417,2.207.417a3.1,3.1,0,0,1,1.836,1.089,3.1,3.1,0,0,1,.694,2.018l-.04,2.042-.039,2.042a3.1,3.1,0,0,1-.768,1.992,3.093,3.093,0,0,1-1.874,1.02l-2.228.336-2.228.336a2.314,2.314,0,0,0-.954.366,2.332,2.332,0,0,0-.7.743l-3.134,5.213-3.134,5.213a2.337,2.337,0,0,0-.324.975,2.347,2.347,0,0,0,.126,1.021l.763,2.13.763,2.13a3.1,3.1,0,0,1-.014,2.139,3.093,3.093,0,0,1-1.4,1.617l-1.784,1-1.784,1a3.107,3.107,0,0,1-.744.3A3.071,3.071,0,0,1-2991.185-1006.092Zm-19.221-6.466h.056l6.091.106,6.091.105a3.117,3.117,0,0,1,1.312.314,3.087,3.087,0,0,1,1.051.839l1.4,1.732,1.4,1.732a2.338,2.338,0,0,0,1.378.829,2.322,2.322,0,0,0,1.583-.259l1.785-1,1.785-1a2.331,2.331,0,0,0,1.053-1.219,2.338,2.338,0,0,0,.011-1.612l-.763-2.13-.763-2.13a3.115,3.115,0,0,1-.167-1.354,3.1,3.1,0,0,1,.43-1.293l3.134-5.213,3.134-5.213a3.1,3.1,0,0,1,.935-.986,3.075,3.075,0,0,1,1.266-.486l2.227-.336,2.228-.336a2.329,2.329,0,0,0,1.413-.768,2.337,2.337,0,0,0,.579-1.5l.039-2.042.039-2.042a2.331,2.331,0,0,0-.523-1.521,2.335,2.335,0,0,0-1.384-.821l-2.207-.417L-2978-1041a3.073,3.073,0,0,1-1.242-.531,3.09,3.09,0,0,1-.9-1.015l-3.1-5.576-3.1-5.575a3.129,3.129,0,0,1-.383-1.286,3.092,3.092,0,0,1,.193-1.323l.78-2.054.781-2.054a2.333,2.333,0,0,0,.02-1.611,2.343,2.343,0,0,0-1.029-1.242l-1.767-1.033-1.767-1.033a2.335,2.335,0,0,0-1.583-.286,2.333,2.333,0,0,0-1.392.805l-1.473,1.753-1.473,1.753a3.047,3.047,0,0,1-1.084.828,3.186,3.186,0,0,1-1.344.285l-6.092-.106-6.092-.105a3.11,3.11,0,0,1-1.308-.314,3.114,3.114,0,0,1-1.053-.839l-1.4-1.733-1.4-1.733a2.337,2.337,0,0,0-1.378-.832,2.336,2.336,0,0,0-1.589.258l-1.784,1-1.784,1a2.328,2.328,0,0,0-1.049,1.22,2.341,2.341,0,0,0-.01,1.612l.763,2.13.763,2.13a3.112,3.112,0,0,1,.167,1.354,3.109,3.109,0,0,1-.43,1.294l-3.136,5.213-3.136,5.213a3.091,3.091,0,0,1-.931.981,3.11,3.11,0,0,1-1.263.491l-2.231.336-2.232.336a2.334,2.334,0,0,0-1.413.769,2.334,2.334,0,0,0-.578,1.5l-.037,2.042-.037,2.042a2.333,2.333,0,0,0,.523,1.521,2.336,2.336,0,0,0,1.384.821l2.206.415,2.207.415a3.118,3.118,0,0,1,1.242.535,3.1,3.1,0,0,1,.9,1.01l3.1,5.578,3.1,5.578a3.085,3.085,0,0,1,.381,1.281,3.12,3.12,0,0,1-.2,1.327l-.778,2.054-.778,2.054a2.335,2.335,0,0,0-.021,1.61,2.325,2.325,0,0,0,1.029,1.237l1.765,1.034,1.765,1.033a2.333,2.333,0,0,0,1.581.288,2.336,2.336,0,0,0,1.394-.8l1.472-1.755,1.472-1.755a3.123,3.123,0,0,1,1.069-.82A3.094,3.094,0,0,1-3010.406-1012.558Zm6.3-12.223a11.577,11.577,0,0,1-4.531-.913,11.576,11.576,0,0,1-3.806-2.623,11.575,11.575,0,0,1-2.5-3.9,11.59,11.59,0,0,1-.755-4.574h0a11.489,11.489,0,0,1,1-4.29,11.66,11.66,0,0,1,2.547-3.619,11.663,11.663,0,0,1,3.7-2.42,11.488,11.488,0,0,1,4.32-.847h.009a11.6,11.6,0,0,1,4.54.914,11.573,11.573,0,0,1,3.81,2.627,11.57,11.57,0,0,1,2.5,3.9,11.6,11.6,0,0,1,.754,4.574,11.493,11.493,0,0,1-1,4.289,11.655,11.655,0,0,1-2.546,3.618,11.645,11.645,0,0,1-3.7,2.42,11.475,11.475,0,0,1-4.322.845h-.019Zm-10.825-11.987a10.828,10.828,0,0,0,.705,4.273,10.808,10.808,0,0,0,2.333,3.647,10.8,10.8,0,0,0,3.555,2.45,10.816,10.816,0,0,0,4.233.853h.017a10.791,10.791,0,0,0,7.481-3.063,10.8,10.8,0,0,0,3.324-7.372,10.83,10.83,0,0,0-.7-4.273,10.8,10.8,0,0,0-2.331-3.646,10.813,10.813,0,0,0-3.559-2.454,10.833,10.833,0,0,0-4.241-.854h-.009a10.8,10.8,0,0,0-7.481,3.068,10.8,10.8,0,0,0-3.323,7.372Z" transform="translate(3037.289 1066.659)"></path></g></g><g transform="translate(-3076.097 -1306.158)"><path class="j" d="M-1121.9-891.1l-.008.016-.024.047c-.017.033-.041.077-.072.132s-.07.121-.115.2l0,0,0,.005a11.164,11.164,0,0,1-2.145,2.479,14.809,14.809,0,0,1-5.043,2.854,9.71,9.71,0,0,1-.906-2.774,10.541,10.541,0,0,1,.879-6.5l.024-.051.025-.052a4.106,4.106,0,0,1,2.368-2.08,4.106,4.106,0,0,1,3.146.2,4.106,4.106,0,0,1,2.08,2.368A4.105,4.105,0,0,1-1121.9-891.1Z" transform="translate(1130.779 897.416)"></path><path class="c" d="M-1131.142-886.509l-.078-.139-.078-.139a10.027,10.027,0,0,1-.971-2.974,10.9,10.9,0,0,1,.934-6.647l.024-.051.028-.056a4.487,4.487,0,0,1,2.589-2.271,4.487,4.487,0,0,1,3.437.221,4.5,4.5,0,0,1,1.4,1.066,4.5,4.5,0,0,1,.877,1.522,4.5,4.5,0,0,1,.233,1.741,4.493,4.493,0,0,1-.456,1.7h0l-.018.035-.018.035c-.013.025-.035.066-.067.124s-.076.134-.133.227l-.013.02-.012.02a11.593,11.593,0,0,1-2.252,2.586,15.21,15.21,0,0,1-5.12,2.881l-.151.051Zm3.9-11.754a3.762,3.762,0,0,0-1.953.548,3.714,3.714,0,0,0-1.406,1.538l-.023.047-.022.047a10.135,10.135,0,0,0-.957,5.438,10.475,10.475,0,0,0,.831,3.2,14.3,14.3,0,0,0,4.626-2.689,10.747,10.747,0,0,0,2.033-2.357l.017-.027.016-.027c.047-.078.083-.14.108-.185s.04-.074.046-.087l.015-.029.015-.029.171.084.171.084-.171-.084-.171-.084a3.73,3.73,0,0,0,.378-1.409,3.727,3.727,0,0,0-.193-1.445,3.728,3.728,0,0,0-.728-1.263,3.731,3.731,0,0,0-1.159-.885,3.729,3.729,0,0,0-.813-.29A3.716,3.716,0,0,0-1127.239-898.263Z" transform="translate(1132.431 899.028)"></path></g><g transform="translate(-3058.635 -1297.563)"><path class="j" d="M-1030.494-846.105l-.008.016-.024.047c-.017.033-.041.077-.072.132s-.07.121-.116.2l0,0,0,.005a11.149,11.149,0,0,1-2.145,2.479,14.8,14.8,0,0,1-5.043,2.854,9.706,9.706,0,0,1-.906-2.774,10.543,10.543,0,0,1,.879-6.495l.024-.052.025-.052a4.106,4.106,0,0,1,2.369-2.08,4.105,4.105,0,0,1,3.146.2,4.107,4.107,0,0,1,2.08,2.368A4.106,4.106,0,0,1-1030.494-846.105Z" transform="translate(1039.375 852.425)"></path><path class="c" d="M-1039.737-841.518l-.078-.139-.077-.139a10.02,10.02,0,0,1-.972-2.974,10.9,10.9,0,0,1,.934-6.647l.024-.051.027-.056a4.486,4.486,0,0,1,2.588-2.271,4.487,4.487,0,0,1,3.437.221,4.486,4.486,0,0,1,2.271,2.589,4.487,4.487,0,0,1-.221,3.437l-.018.035-.018.035c-.012.024-.034.065-.067.124s-.076.133-.133.227l-.012.02-.012.02a11.6,11.6,0,0,1-2.252,2.586,15.209,15.209,0,0,1-5.12,2.881l-.151.051Zm3.9-11.754a3.761,3.761,0,0,0-1.953.548,3.712,3.712,0,0,0-1.405,1.538l-.023.047-.022.047a10.135,10.135,0,0,0-.957,5.438,10.479,10.479,0,0,0,.831,3.2,14.293,14.293,0,0,0,4.626-2.689,10.748,10.748,0,0,0,2.033-2.357l.016-.027.017-.027c.047-.079.083-.14.108-.185s.04-.074.046-.086l.015-.03.015-.03a3.725,3.725,0,0,0,.183-2.853,3.724,3.724,0,0,0-1.885-2.149,3.735,3.735,0,0,0-.813-.29A3.707,3.707,0,0,0-1035.835-853.273Z" transform="translate(1041.027 854.037)"></path></g><g transform="translate(-3093.311 -1341.906)"><path class="k" d="M-1198.194-1064.281h0a16.534,16.534,0,0,0-8.636-3.487,16.536,16.536,0,0,0-9.152,1.728l-1.621.827-1.621.827a.883.883,0,0,1-1.054-.174.885.885,0,0,1-.145-1.06c5.588-10.255,11.722-14.874,16.472-16.927a16.139,16.139,0,0,1,8.17-1.531,94.04,94.04,0,0,0-1.779,10.513C-1197.939-1070.222-1198.125-1067.086-1198.194-1064.281Z" transform="translate(1220.922 1084.524)"></path><path class="c" d="M-1199.67-1065.308l-.191-.151-.191-.151a16.161,16.161,0,0,0-8.437-3.4,16.159,16.159,0,0,0-8.94,1.68l-1.621.827-1.621.827a1.277,1.277,0,0,1-.792.129,1.279,1.279,0,0,1-.709-.376,1.28,1.28,0,0,1-.357-.72,1.28,1.28,0,0,1,.15-.79,46.389,46.389,0,0,1,8.871-11.85,27.371,27.371,0,0,1,7.785-5.245,19.386,19.386,0,0,1,5.951-1.571,10.716,10.716,0,0,1,2.431.013l.2.032.2.032-.046.2-.046.2a92.874,92.874,0,0,0-1.671,9.592c-.4,3.294-.646,6.677-.732,10.127v.078l-.117.258Zm1.175-20.077a15.192,15.192,0,0,0-2.811.281,19.6,19.6,0,0,0-4.143,1.291,26.672,26.672,0,0,0-7.585,5.132,45.711,45.711,0,0,0-8.676,11.615.5.5,0,0,0-.057.349.539.539,0,0,0,.141.262.535.535,0,0,0,.258.148.5.5,0,0,0,.349-.047l1.621-.828,1.622-.827a16.915,16.915,0,0,1,9-1.792,16.944,16.944,0,0,1,8.6,3.14c.1-3.263.347-6.467.732-9.591s.91-6.169,1.572-9.115c-.081,0-.174-.009-.278-.013S-1198.369-1085.385-1198.495-1085.385Z" transform="translate(1222.542 1086.155)"></path></g><g transform="translate(-3071 -1387.963)"><path class="k" d="M-1055.871-1256.644a94.041,94.041,0,0,1-7.246,7.822c-2.418,2.337-4.789,4.4-6.97,6.163h0c-1.53,1.239-2.965,2.333-4.255,3.276s-2.436,1.736-3.387,2.371a6,6,0,0,1-2.944,1,6.012,6.012,0,0,1-3.05-.606l-8.233-4.053-8.233-4.053a6.013,6.013,0,0,1-2.34-2.047,6,6,0,0,1-1-2.942c-.077-1.141-.147-2.533-.187-4.13s-.048-3.4,0-5.37h0c.069-2.805.256-5.941.633-9.282a94.015,94.015,0,0,1,1.779-10.513,70.125,70.125,0,0,1,7.856-20.174,51.043,51.043,0,0,1,16.2-16.989,53.749,53.749,0,0,1,11.871-5.711,68.624,68.624,0,0,1,14.908-3.213l.041,0,.04,0,.021.035.021.035a68.611,68.611,0,0,1,6.546,13.773,53.744,53.744,0,0,1,2.715,12.891,51.041,51.041,0,0,1-3.584,23.2A70.126,70.126,0,0,1-1055.871-1256.644Z" transform="translate(1104.135 1325.514)"></path><path class="c" d="M-1082.686-1237.352a6.423,6.423,0,0,1-1.439-.163,6.355,6.355,0,0,1-1.384-.492l-8.233-4.053-8.233-4.053a6.4,6.4,0,0,1-2.487-2.18,6.387,6.387,0,0,1-1.07-3.127c-.071-1.052-.143-2.419-.184-4.031s-.053-3.47,0-5.5v-.079c.088-3.461.336-6.856.74-10.163a93.752,93.752,0,0,1,1.68-9.631,68.689,68.689,0,0,1,9.007-22.1,51.006,51.006,0,0,1,15.211-15.3,54.368,54.368,0,0,1,12.385-5.89,69.437,69.437,0,0,1,14.561-3.093l.161-.019.161-.019.085.141.085.142a69.4,69.4,0,0,1,6.428,13.422,54.378,54.378,0,0,1,2.886,13.407,51.009,51.009,0,0,1-2.845,21.384,68.69,68.69,0,0,1-12.02,20.617h0a93.771,93.771,0,0,1-6.609,7.206q-3.561,3.506-7.6,6.785h0l-.03.024-.03.024c-1.582,1.282-3.061,2.406-4.364,3.356s-2.43,1.726-3.306,2.312a6.36,6.36,0,0,1-1.708.8A6.439,6.439,0,0,1-1082.686-1237.352Zm-22.271-23.506c-.048,2-.036,3.831.005,5.418s.113,2.932.182,3.97a5.623,5.623,0,0,0,.942,2.753,5.635,5.635,0,0,0,2.19,1.919l8.233,4.052,8.233,4.053a5.631,5.631,0,0,0,2.857.565,5.624,5.624,0,0,0,2.756-.933c.864-.578,1.975-1.342,3.258-2.278s2.741-2.042,4.3-3.3l.028-.023.028-.023q4.022-3.257,7.578-6.756a92.942,92.942,0,0,0,6.583-7.175,67.946,67.946,0,0,0,11.879-20.36,50.255,50.255,0,0,0,2.815-21.093,53.6,53.6,0,0,0-2.828-13.164,68.514,68.514,0,0,0-6.3-13.2,68.519,68.519,0,0,0-14.3,3.06,53.585,53.585,0,0,0-12.155,5.788,50.261,50.261,0,0,0-15,15.1,67.948,67.948,0,0,0-8.889,21.832,92.962,92.962,0,0,0-1.671,9.592c-.4,3.294-.646,6.677-.732,10.127v.079Z" transform="translate(1105.752 1327.247)"></path></g><g transform="translate(-3037.489 -1319.652)"><path class="k" d="M-927.521-952.751h0a16.535,16.535,0,0,1,8.031,4.716,16.536,16.536,0,0,1,4.213,8.306l.333,1.789.333,1.79a.883.883,0,0,0,.782.729.884.884,0,0,0,.928-.531c4.718-10.683,4.637-18.361,3.367-23.377a16.137,16.137,0,0,0-3.77-7.409,94.053,94.053,0,0,1-7.246,7.822C-922.969-956.577-925.341-954.517-927.521-952.751Z" transform="translate(928.059 967.295)"></path><path class="c" d="M-915.993-937.4l-.078,0-.079-.007a1.279,1.279,0,0,1-.731-.332,1.278,1.278,0,0,1-.382-.706l-.333-1.79-.333-1.789a16.16,16.16,0,0,0-4.121-8.109,16.159,16.159,0,0,0-7.84-4.613l-.222-.056-.222-.056.113-.25.114-.25.035-.029.035-.029q4.022-3.257,7.578-6.756a92.97,92.97,0,0,0,6.583-7.175l.13-.158.13-.158.149.141.149.141a10.734,10.734,0,0,1,1.494,1.92,19.4,19.4,0,0,1,2.384,5.673,27.379,27.379,0,0,1,.591,9.368,46.376,46.376,0,0,1-3.979,14.258,1.288,1.288,0,0,1-.471.562A1.26,1.26,0,0,1-915.993-937.4Zm-12.989-17.892a16.943,16.943,0,0,1,7.733,4.9,16.917,16.917,0,0,1,4.07,8.225l.333,1.79.333,1.79a.5.5,0,0,0,.175.305.535.535,0,0,0,.274.114.53.53,0,0,0,.294-.048.5.5,0,0,0,.241-.258,45.7,45.7,0,0,0,3.913-13.962,26.671,26.671,0,0,0-.561-9.143,19.251,19.251,0,0,0-1.81-4.647,13.522,13.522,0,0,0-1.578-2.3q-2.9,3.483-6.265,6.805T-928.983-955.289Z" transform="translate(930.335 969.662)"></path></g><g transform="translate(-3043.619 -1356.785)"><path class="l" d="M-959.7-1158.063a7.075,7.075,0,0,0-.351,5.421,7.076,7.076,0,0,0,3.585,4.082,7.074,7.074,0,0,0,5.421.351,7.076,7.076,0,0,0,4.082-3.585,7.076,7.076,0,0,0,.351-5.421,7.076,7.076,0,0,0-3.585-4.082,7.076,7.076,0,0,0-5.421-.351A7.076,7.076,0,0,0-959.7-1158.063Z" transform="translate(960.815 1162.412)"></path><path class="c" d="M-954.956-1149.076a7.427,7.427,0,0,1-1.664-.189,7.477,7.477,0,0,1-1.627-.58,7.457,7.457,0,0,1-3.775-4.3,7.458,7.458,0,0,1,.367-5.712h0a7.465,7.465,0,0,1,1.772-2.32,7.469,7.469,0,0,1,2.529-1.458,7.469,7.469,0,0,1,2.894-.387,7.475,7.475,0,0,1,2.819.757,7.457,7.457,0,0,1,3.775,4.3,7.457,7.457,0,0,1-.367,5.712,7.437,7.437,0,0,1-2.813,3.078A7.538,7.538,0,0,1-954.956-1149.076Zm.018-14.2a6.652,6.652,0,0,0-1.092.09,6.811,6.811,0,0,0-1.078.271,6.706,6.706,0,0,0-2.271,1.309,6.7,6.7,0,0,0-1.591,2.083h0a6.71,6.71,0,0,0-.68,2.531,6.707,6.707,0,0,0,.348,2.6,6.7,6.7,0,0,0,1.309,2.271,6.7,6.7,0,0,0,2.083,1.591,6.694,6.694,0,0,0,5.128.33,6.7,6.7,0,0,0,3.863-3.389,6.7,6.7,0,0,0,.329-5.128,6.7,6.7,0,0,0-3.389-3.863,6.776,6.776,0,0,0-1.451-.52A6.633,6.633,0,0,0-954.939-1163.275Z" transform="translate(962.424 1164.04)"></path></g><g transform="translate(-3044.893 -1387.963)"><path class="e" d="M-928.878-1298.371l-18.082-8.9-18.082-8.9a53.745,53.745,0,0,1,11.872-5.711,68.621,68.621,0,0,1,14.907-3.213l.041,0,.04,0,.021.035.021.035a68.611,68.611,0,0,1,6.546,13.773A53.744,53.744,0,0,1-928.878-1298.371Z" transform="translate(965.815 1325.514)"></path><path class="c" d="M-931.717-1299.464l-18.686-9.2-18.686-9.2.283-.183.283-.183a54.368,54.368,0,0,1,12.385-5.89,69.436,69.436,0,0,1,14.561-3.093l.161-.019.161-.019.085.141.085.142a69.405,69.405,0,0,1,6.428,13.422,54.375,54.375,0,0,1,2.886,13.407l.028.336Zm-35.821-18.484,17.472,8.6,17.473,8.6a54,54,0,0,0-2.887-12.83,68.758,68.758,0,0,0-6.176-12.855,68.77,68.77,0,0,0-13.955,2.947A53.992,53.992,0,0,0-967.539-1317.948Z" transform="translate(969.09 1327.247)"></path></g><g transform="translate(-3056.8 -1291.617)"><path class="j" d="M-1029.563-821.994l-.045.085-.058.106.052-.095C-1029.6-821.93-1029.58-821.962-1029.563-821.994Z" transform="translate(1030.001 822.169)"></path><path class="c" d="M-1030.752-822.358l-.335-.185-.334-.185.012-.021.012-.021.038-.069.037-.07.34.174.34.174c-.013.026-.029.056-.047.09Z" transform="translate(1031.421 822.909)"></path></g><g transform="translate(-3057.023 -1291.438)"><path class="j" d="M-1030.879-820.6c.048-.079.091-.151.129-.217s.073-.126.1-.179c-.037.068-.074.135-.113.2S-1030.838-820.666-1030.879-820.6Z" transform="translate(1031.206 821.184)"></path><path class="c" d="M-1031.939-821.186l-.324-.2-.325-.2q.07-.115.125-.211c.037-.064.07-.122.1-.174l.334.185.334.185c-.045.082-.087.156-.127.225S-1031.9-821.246-1031.939-821.186Z" transform="translate(1032.588 821.973)"></path></g><g transform="translate(-3071.832 -1302.541)"><path class="j" d="M-1093.023-867.481l-.014.028-.043.084c-.03.058-.072.137-.128.236s-.125.216-.207.351l-.006.008-.005.01a19.926,19.926,0,0,1-3.829,4.427,26.441,26.441,0,0,1-9,5.1,17.341,17.341,0,0,1-1.618-4.953,18.823,18.823,0,0,1,1.57-11.6l.043-.092.045-.093a7.33,7.33,0,0,1,4.229-3.714,7.329,7.329,0,0,1,5.616.364,7.33,7.33,0,0,1,3.714,4.228A7.33,7.33,0,0,1-1093.023-867.481Z" transform="translate(1108.551 878.468)"></path><path class="c" d="M-1107.993-858.405l-.078-.139-.078-.139a18.079,18.079,0,0,1-1.653-5.13,19.218,19.218,0,0,1,1.594-11.771c.013-.029.028-.06.043-.092l.047-.1a7.723,7.723,0,0,1,1.833-2.4,7.718,7.718,0,0,1,2.615-1.508,7.719,7.719,0,0,1,2.992-.4,7.727,7.727,0,0,1,2.916.783,7.727,7.727,0,0,1,2.4,1.833,7.72,7.72,0,0,1,1.508,2.615,7.728,7.728,0,0,1,.4,2.992,7.726,7.726,0,0,1-.783,2.916l-.171-.084-.171-.084.171.084.171.084-.015.03-.046.09c-.038.074-.089.167-.148.271s-.127.219-.2.337l-.012.02-.012.02a20.348,20.348,0,0,1-3.957,4.558,26.846,26.846,0,0,1-9.066,5.106l-.151.051Zm6.828-20.921a7.021,7.021,0,0,0-3.644,1.023,6.931,6.931,0,0,0-2.622,2.869l-.043.088-.041.087a18.4,18.4,0,0,0-1.69,10.277,18.647,18.647,0,0,0,1.581,5.643,25.936,25.936,0,0,0,8.568-4.91,19.516,19.516,0,0,0,3.742-4.329l.011-.02.015-.024c.093-.153.162-.274.213-.364s.082-.151.1-.182l.04-.078.015-.03h0a6.96,6.96,0,0,0,.706-2.628,6.958,6.958,0,0,0-.36-2.7,6.957,6.957,0,0,0-1.359-2.357,6.963,6.963,0,0,0-2.162-1.652,6.963,6.963,0,0,0-1.517-.54A6.919,6.919,0,0,0-1101.165-879.327Z" transform="translate(1110.106 880.096)"></path></g></g></g></svg>