<svg xmlns="http://www.w3.org/2000/svg" width="481" height="452" viewBox="0 0 481 452"><defs><style>.a,.c,.d,.e,.h{fill:#6b7e8f;}.a{font-size:16px;font-family:Rubik-Bold, Rubik;font-weight:700;}.b{fill:#01c7d4;}.c,.e,.g,.h{font-size:14px;}.c{font-family:Rubik-Regular, Rubik;}.d{opacity:0.05;}.e,.g{font-family:Consolas;}.f{fill:#ff4451;}.g{fill:#fff;}.h{font-family:OpenSans, Open Sans;}</style></defs><g transform="translate(-399 -1585.261)"><text class="a" transform="translate(678 1924.261)"><tspan x="0" y="0">OpenAPI/Swagger</tspan></text><text class="a" transform="translate(425 1600.261)"><tspan x="0" y="0">RAML</tspan></text><text class="a" transform="translate(425 2005.261)"><tspan x="0" y="0">WSDL - W3C</tspan></text><text class="a" transform="translate(425 1681.261)"><tspan x="0" y="0">Postman Collection</tspan></text><text class="a" transform="translate(425 1762.261)"><tspan x="0" y="0">Insomnia Export Format</tspan></text><text class="a" transform="translate(425 1843.261)"><tspan x="0" y="0">HAR</tspan></text><text class="a" transform="translate(425 1924.261)"><tspan x="0" y="0">API Blueprint</tspan></text><circle class="b" cx="8.586" cy="8.586" r="8.586" transform="translate(652 1910.261)"></circle><circle class="b" cx="8.586" cy="8.586" r="8.586" transform="translate(399 1586.261)"></circle><circle class="b" cx="8.586" cy="8.586" r="8.586" transform="translate(399 1991.261)"></circle><circle class="b" cx="8.586" cy="8.586" r="8.586" transform="translate(399 1667.261)"></circle><circle class="b" cx="8.586" cy="8.586" r="8.586" transform="translate(399 1748.261)"></circle><circle class="b" cx="8.586" cy="8.586" r="8.586" transform="translate(399 1829.261)"></circle><circle class="b" cx="8.586" cy="8.586" r="8.586" transform="translate(399 1910.261)"></circle><text class="c" transform="translate(678 1936.261)"><tspan x="0" y="13" xml:space="preserve">          (JSON/YAML),</tspan></text><text class="c" transform="translate(678 1963.261)"><tspan x="0" y="13" xml:space="preserve">          (JSON/YAML),</tspan></text><text class="c" transform="translate(678 1990.261)"><tspan x="0" y="13" xml:space="preserve">          (JSON/YAML),</tspan></text><text class="c" transform="translate(678 2017.261)"><tspan x="0" y="13" xml:space="preserve">          (JSON)</tspan></text><text class="c" transform="translate(462 1627.361)"><tspan x="0" y="0" xml:space="preserve">(YAML),           (YAML)</tspan></text><text class="c" transform="translate(462 2032.361)"><tspan x="0" y="0">(XML)</tspan></text><text class="c" transform="translate(462 1708.361)"><tspan x="0" y="0" xml:space="preserve">(JSON),            (JSON)</tspan></text><text class="c" transform="translate(462 1870.361)"><tspan x="0" y="0">(JSON)</tspan></text><text class="c" transform="translate(454 1951.361)"><tspan x="0" y="0">(Markdown)</tspan></text><text class="c" transform="translate(447 1789.361)"><tspan x="0" y="0">(JSON/YAML)</tspan></text><g transform="translate(31 1353.261)"><rect class="d" width="31" height="21" rx="3" transform="translate(647 581)"></rect><text class="e" transform="translate(651 596)"><tspan x="0" y="0">3.1</tspan></text></g><g transform="translate(163.608 1353.261)"><path class="f" d="M3.065,0H28.611a3.033,3.033,0,0,1,3.065,3V18a3.033,3.033,0,0,1-3.065,3H3.065A3.033,3.033,0,0,1,0,18V3A3.033,3.033,0,0,1,3.065,0Z" transform="translate(647 581)"></path><text class="g" transform="translate(651.392 596)"><tspan x="0" y="0">New</tspan></text></g><g transform="translate(-222 1030.261)"><rect class="d" width="31" height="21" rx="3" transform="translate(647 581)"></rect><text class="e" transform="translate(651 596)"><tspan x="0" y="0">1.0</tspan></text></g><g transform="translate(-222 1435.261)"><rect class="d" width="31" height="21" rx="3" transform="translate(647 581)"></rect><text class="e" transform="translate(651 596)"><tspan x="0" y="0">1.1</tspan></text></g><g transform="translate(-222 1111.261)"><rect class="d" width="31" height="21" rx="3" transform="translate(647 581)"></rect><text class="e" transform="translate(651 596)"><tspan x="0" y="0">2.x</tspan></text></g><g transform="translate(-222 1273.261)"><rect class="d" width="31" height="21" rx="3" transform="translate(647 581)"></rect><text class="e" transform="translate(651 596)"><tspan x="0" y="0">1.2</tspan></text></g><g transform="translate(-222 1354.261)"><rect class="d" width="23" height="21" rx="3" transform="translate(647 581)"></rect><text class="e" transform="translate(651 596)"><tspan x="0" y="0">1A</tspan></text></g><g transform="translate(-222 1192.261)"><rect class="d" width="16" height="21" rx="3" transform="translate(647 581)"></rect><text class="e" transform="translate(651 596)"><tspan x="0" y="0">3</tspan></text></g><g transform="translate(-132 1111.261)"><rect class="d" width="31" height="21" rx="3" transform="translate(647 581)"></rect><text class="e" transform="translate(651 596)"><tspan x="0" y="0">1.0</tspan></text></g><g transform="translate(-132 1030.261)"><rect class="d" width="31" height="21" rx="3" transform="translate(647 581)"></rect><text class="e" transform="translate(651 596)"><tspan x="0" y="0">0.8</tspan></text></g><g transform="translate(31 1380.261)"><rect class="d" width="31" height="21" rx="3" transform="translate(647 581)"></rect><text class="e" transform="translate(651 596)"><tspan x="0" y="0">3.0</tspan></text></g><g transform="translate(31 1407.261)"><rect class="d" width="31" height="21" rx="3" transform="translate(647 581)"></rect><text class="e" transform="translate(651 596)"><tspan x="0" y="0">2.0</tspan></text></g><g transform="translate(31 1434.261)"><rect class="d" width="31" height="21" rx="3" transform="translate(647 581)"></rect><text class="e" transform="translate(651 596)"><tspan x="0" y="0">1.x</tspan></text></g><text class="a" transform="translate(678 1600.261)"><tspan x="0" y="0">WADL - W3C</tspan></text><text class="a" transform="translate(678 1681.261)"><tspan x="0" y="0">Google Discovery</tspan></text><text class="a" transform="translate(678 1762.261)"><tspan x="0" y="0">I/O Docs - Mashery</tspan></text><text class="a" transform="translate(678 1843.261)"><tspan x="0" y="0">APIMATIC Format</tspan></text><circle class="b" cx="8.586" cy="8.586" r="8.586" transform="translate(652 1586.261)"></circle><circle class="b" cx="8.586" cy="8.586" r="8.586" transform="translate(652 1667.261)"></circle><circle class="b" cx="8.586" cy="8.586" r="8.586" transform="translate(652 1748.261)"></circle><circle class="b" cx="8.586" cy="8.586" r="8.586" transform="translate(652 1829.261)"></circle><text class="h" transform="translate(723 1627.361)"><tspan x="0" y="0">(XML)</tspan></text><text class="c" transform="translate(678 1708.361)"><tspan x="0" y="0">(JSON)</tspan></text><text class="c" transform="translate(678 1789.361)"><tspan x="0" y="0">(JSON)</tspan></text><text class="c" transform="translate(678 1870.361)"><tspan x="0" y="0">(JSON)</tspan></text><g transform="translate(31 1030.261)"><rect class="d" width="39" height="21" rx="3" transform="translate(647 581)"></rect><text class="e" transform="translate(651 596)"><tspan x="0" y="0">2009</tspan></text></g></g></svg>