<svg xmlns="http://www.w3.org/2000/svg" xmlns:xlink="http://www.w3.org/1999/xlink" xmlns:serif="http://www.serif.com/" width="100%" height="100%" viewBox="0 0 170 54" xml:space="preserve" style="fill-rule:evenodd;clip-rule:evenodd;stroke-linejoin:round;stroke-miterlimit:2;">    <g transform="matrix(0.553746,0,0,0.553746,0,0)">        <g>            <path d="M72.77,38.047C65.174,38.047 58.91,40.67 54.686,46.132C51.584,40.886 45.27,38.047 36.386,38.047C29.325,38.047 23.434,40.67 19.422,45.492L19.422,39.12L0,39.12L0,95.835L19.422,95.835L19.422,66.865C19.422,56.049 24.452,53.475 29.265,53.475C33.548,53.475 37.025,55.778 37.025,61.295L37.025,95.835L56.77,95.835L56.77,65.792C56.77,56.043 61.691,53.475 66.613,53.475C70.679,53.475 74.318,55.778 74.318,61.295L74.318,95.835L93.794,95.835L93.794,55.56C93.8,44.046 85.83,38.047 72.77,38.047ZM112.426,33.657C118.229,33.557 122.866,28.793 122.813,22.985C122.761,17.176 118.04,12.496 112.236,12.5C106.433,12.504 101.717,17.19 101.673,22.998C101.662,25.845 102.795,28.58 104.816,30.584C106.837,32.587 109.581,33.696 112.426,33.657Z" style="fill:rgb(101,37,128);fill-rule:nonzero;"></path>            <path d="M194.13,21.232L176.674,21.232L176.674,27.068C176.674,36.92 172.608,39.12 166.614,39.12L152.807,39.12L152.807,21.232L135.362,21.232L135.362,27.068C135.362,36.92 131.295,39.12 125.302,39.12L102.469,39.12L102.469,95.835L122.107,95.835L122.107,53.957L132.957,53.957L132.957,76.77C132.957,88.925 139.542,95.834 151.577,95.834L163.62,95.834L163.62,81.269L158.59,81.269C154.734,81.269 152.812,79.394 152.812,74.576L152.812,53.956L174.275,53.956L174.275,76.771C174.275,88.926 180.859,95.835 192.895,95.835L204.937,95.835L204.937,81.269L199.907,81.269C196.052,81.269 194.13,79.394 194.13,74.576L194.13,53.956L204.937,53.956L204.937,39.12L194.13,39.12L194.13,21.232ZM239.227,38.047C219.963,38.047 206.692,48.755 206.692,67.445C206.692,86.189 220.071,96.897 239.227,96.897C258.546,96.897 271.92,86.184 271.92,67.445C271.92,48.76 258.649,38.047 239.227,38.047ZM239.011,81.697C231.143,81.697 226.113,75.861 226.113,67.45C226.113,58.991 231.143,53.15 239.011,53.15C247.36,53.15 252.493,58.986 252.493,67.45C252.498,75.86 247.36,81.697 239.011,81.697Z" style="fill:rgb(101,37,128);fill-rule:nonzero;"></path>        </g>        <path d="M305.18,19.07L289.317,2.091C288.071,0.758 286.325,0 284.501,0C282.827,0 281.215,0.637 279.994,1.781C277.351,4.257 277.212,8.468 279.685,11.113L291.413,23.663L280.438,35.835C278.035,38.527 278.26,42.716 280.938,45.135C283.615,47.553 287.805,47.347 290.232,44.679L305.263,28.004C307.548,25.47 307.512,21.561 305.182,19.068L305.18,19.07Z" style="fill:rgb(231,38,121);fill-rule:nonzero;"></path>        <g transform="matrix(1,0,0,1,252.855,12.464)">            <ellipse cx="10.796" cy="11.011" rx="10.704" ry="10.713" style="fill:rgb(101,37,128);"></ellipse>        </g>    </g></svg>