<svg xmlns="http://www.w3.org/2000/svg" viewBox="0 0 1623.21 1340"><defs><style>.cls-1{isolation:isolate;}.cls-2{fill:none;}.cls-3{fill:#2edeac;}.cls-3,.cls-5,.cls-7{stroke:#000;}.cls-3,.cls-5,.cls-6,.cls-7{stroke-miterlimit:10;}.cls-4{fill:#455666;mix-blend-mode:multiply;opacity:0.33;}.cls-5{fill:#d9d9d9;}.cls-5,.cls-6,.cls-7{stroke-width:2px;}.cls-6{fill:#ebf0f5;stroke:#24313e;}.cls-7{fill:#fdfdfd;}.cls-8{font-size:68.77px;fill:#24313e;font-family:Rubik-Bold, Rubik;font-weight:700;}.cls-9{font-family:Rubik-Regular, Rubik;font-weight:400;}.cls-10{letter-spacing:-0.01em;}.cls-11{fill:#0062ff;}.cls-12{fill:#9caab8;}</style></defs><g class="cls-1"><g id="Layer_2" data-name="Layer 2"><g id="Layer_1-2" data-name="Layer 1"><rect class="cls-2" width="1623.21" height="1340" transform="translate(1623.21 1340) rotate(-180)"></rect><path class="cls-3" d="M623.35,420.84V614.69a28,28,0,0,1-28,28H359.1V617.9H598.57V420.84Z"></path><path class="cls-3" d="M623.35,943.16V749.31a28,28,0,0,0-28-28H359.1v24.77H598.57V943.16Z"></path><path class="cls-4" d="M727.33,50.49a18.17,18.17,0,0,1,18.15,18.2L745,397a18.18,18.18,0,0,1-18.2,18.15l-217.6-.32A18.18,18.18,0,0,1,491,396.58l.38-225"></path><path class="cls-5" d="M723.05,44.65a18.17,18.17,0,0,1,18.15,18.2l-.49,328.26a18.17,18.17,0,0,1-18.2,18.15l-217.6-.32a18.18,18.18,0,0,1-18.15-18.2L487.15,175"></path><path class="cls-6" d="M562.71,112.87A17.19,17.19,0,0,1,545.5,130l-59.44,44.09-.42,215.68A18.17,18.17,0,0,0,503.79,408l220.4.33a10.67,10.67,0,0,0,10.69-10.66l.51-343.26a10.67,10.67,0,0,0-10.66-10.69l-106.67-.24"></path><path class="cls-4" d="M618.45,44.56v112.8a21.22,21.22,0,0,1-21.22,21.22H493a4.76,4.76,0,0,1-4.72-5.42h0Z"></path><path class="cls-7" d="M486.75,175l98.38.15a33.57,33.57,0,0,0,33.61-33.52l.15-98.37a.49.49,0,0,0-.83-.35L486.41,174.13A.49.49,0,0,0,486.75,175Z"></path><path class="cls-4" d="M406,447.47a27,27,0,0,1,26.94,27l-.73,487.33a27,27,0,0,1-27,26.94l-323-.48a27,27,0,0,1-26.94-27l.57-334.1"></path><path class="cls-5" d="M399.65,438.8a27,27,0,0,1,26.94,27l-.73,487.32a27,27,0,0,1-27,27l-323-.49a27,27,0,0,1-26.94-27l.57-320.33"></path><path class="cls-6" d="M161.61,540.08a25.51,25.51,0,0,1-25.55,25.48L47.82,631,47.2,951.21a27,27,0,0,0,26.94,27l327.2.49a15.85,15.85,0,0,0,15.87-15.83L418,453.31a15.86,15.86,0,0,0-15.83-15.88l-158.36-.36"></path><path class="cls-4" d="M245,436.67V607.14a32.08,32.08,0,0,1-32.08,32.08H55.47A7.2,7.2,0,0,1,48.34,631h0Z"></path><path class="cls-7" d="M48.85,632.25l146,.22a49.82,49.82,0,0,0,49.9-49.75l.22-146a.72.72,0,0,0-1.23-.51L48.34,631A.72.72,0,0,0,48.85,632.25Z"></path><rect class="cls-5" x="72.35" y="804.08" width="295.79" height="163.55" rx="24.01" transform="translate(2.42 -0.6) rotate(0.16)"></rect><rect class="cls-7" x="63.39" y="804.34" width="296.07" height="163.55" rx="24.01" transform="translate(2.42 -0.57) rotate(0.16)"></rect><text class="cls-8" transform="matrix(1, 0.01, -0.01, 1, 84.68, 874.97)">API <tspan class="cls-9"><tspan x="0" y="68.77">SP</tspan><tspan class="cls-10" x="86.93" y="68.77">E</tspan><tspan x="128.12" y="68.77">C</tspan></tspan></text><rect class="cls-11" x="541.34" y="198.86" width="55.14" height="15.24"></rect><rect class="cls-12" x="541.34" y="225.17" width="153.84" height="15.24"></rect><rect class="cls-12" x="541.34" y="251.49" width="153.84" height="15.24"></rect><rect class="cls-12" x="541.34" y="277.81" width="153.84" height="15.24"></rect><rect class="cls-12" x="541.34" y="304.13" width="153.84" height="15.24"></rect><rect class="cls-12" x="541.34" y="330.44" width="153.84" height="15.24"></rect><rect class="cls-12" x="541.34" y="356.76" width="153.84" height="15.24"></rect><path class="cls-4" d="M727.33,932.39a18.17,18.17,0,0,1,18.15,18.2L745,1278.85a18.18,18.18,0,0,1-18.2,18.15l-217.6-.32A18.18,18.18,0,0,1,491,1278.47l.38-225"></path><path class="cls-5" d="M723.05,926.55a18.17,18.17,0,0,1,18.15,18.2L740.71,1273a18.17,18.17,0,0,1-18.2,18.15l-217.6-.32a18.18,18.18,0,0,1-18.15-18.21l.39-215.77"></path><path class="cls-6" d="M562.71,994.77a17.19,17.19,0,0,1-17.21,17.17L486.06,1056l-.42,215.68a18.17,18.17,0,0,0,18.15,18.2l220.4.33a10.68,10.68,0,0,0,10.69-10.66l.51-343.26a10.66,10.66,0,0,0-10.66-10.69l-106.67-.25"></path><path class="cls-4" d="M618.45,926.46v112.79a21.22,21.22,0,0,1-21.22,21.23H493a4.77,4.77,0,0,1-4.72-5.42h0Z"></path><path class="cls-7" d="M486.75,1056.86l98.38.15a33.57,33.57,0,0,0,33.61-33.52l.15-98.37a.49.49,0,0,0-.83-.35L486.41,1056A.49.49,0,0,0,486.75,1056.86Z"></path><rect class="cls-11" x="541.34" y="1080.75" width="55.14" height="15.24"></rect><rect class="cls-12" x="541.34" y="1107.07" width="153.84" height="15.24"></rect><rect class="cls-12" x="541.34" y="1133.39" width="153.84" height="15.24"></rect><rect class="cls-12" x="541.34" y="1159.71" width="153.84" height="15.24"></rect><rect class="cls-12" x="541.34" y="1186.02" width="153.84" height="15.24"></rect><rect class="cls-12" x="541.34" y="1212.34" width="153.84" height="15.24"></rect><rect class="cls-12" x="541.34" y="1238.66" width="153.84" height="15.24"></rect></g></g></g></svg>