<svg xmlns="http://www.w3.org/2000/svg" width="176.396" height="127.192" viewBox="0 0 176.396 127.192"><defs><style>.a{fill:#455666;}.b{fill:#24313e;}.c{fill:#6b7e8f;}.d{fill:#ff4451;}.e{fill:#f4e969;}.f{fill:#031439;}.g{fill:#28c397;}.h{fill:#3ab2d0;}.i{fill:#d9dee5;}</style></defs><g transform="translate(-4491.682 -5203.891)"><g transform="translate(4491.682 5203.891)"><path class="a" d="M4619.31,5248.116H4500.329a6.642,6.642,0,0,1-6.647-6.647v-28.93a6.641,6.641,0,0,1,6.647-6.647H4619.31a6.642,6.642,0,0,1,6.647,6.647v28.93a6.642,6.642,0,0,1-6.647,6.647Z" transform="translate(-4493.409 -5205.619)"></path><path class="b" d="M4617.583,5246.661H4498.6a6.919,6.919,0,0,1-6.92-6.92v-28.93a6.889,6.889,0,0,1,.544-2.691,6.958,6.958,0,0,1,3.685-3.685,6.882,6.882,0,0,1,2.691-.544h118.981a6.921,6.921,0,0,1,6.92,6.92v28.93a6.9,6.9,0,0,1-2.029,4.891,6.9,6.9,0,0,1-4.891,2.029ZM4498.6,5204.436a6.376,6.376,0,0,0-6.375,6.375v28.93a6.335,6.335,0,0,0,.5,2.479,6.373,6.373,0,0,0,5.874,3.9h118.981a6.376,6.376,0,0,0,6.375-6.375v-28.93a6.376,6.376,0,0,0-6.375-6.375H4498.6Z" transform="translate(-4491.682 -5203.891)"></path></g><g transform="translate(4535.257 5203.891)"><path class="c" d="M4939.327,5248.116H4820.346a6.642,6.642,0,0,1-6.647-6.647v-28.93a6.641,6.641,0,0,1,6.647-6.647h118.981a6.644,6.644,0,0,1,6.648,6.647v28.93a6.643,6.643,0,0,1-6.648,6.647Z" transform="translate(-4813.426 -5205.619)"></path><path class="b" d="M4937.6,5246.661H4818.617a6.919,6.919,0,0,1-6.92-6.92v-28.93a6.919,6.919,0,0,1,6.92-6.92H4937.6a6.921,6.921,0,0,1,6.92,6.92v28.93a6.9,6.9,0,0,1-2.029,4.891,6.9,6.9,0,0,1-4.891,2.029Zm-118.981-42.226a6.376,6.376,0,0,0-6.375,6.375v28.93a6.375,6.375,0,0,0,6.375,6.375H4937.6a6.374,6.374,0,0,0,6.375-6.375v-28.93a6.376,6.376,0,0,0-6.375-6.375H4818.617Z" transform="translate(-4811.697 -5203.891)"></path></g><g transform="translate(4654.246 5211.194)"><path class="d" d="M5687.559,5261.2a1.682,1.682,0,0,0,2.335,1.548,1.685,1.685,0,0,0,.895-.895,1.69,1.69,0,0,0,0-1.309,1.678,1.678,0,0,0-1.549-1.026,1.674,1.674,0,0,0-.654.132,1.678,1.678,0,0,0-1.027,1.549Z" transform="translate(-5687.287 -5259.25)"></path><path class="b" d="M5687.512,5261.428a1.948,1.948,0,0,1-.76-.154,1.963,1.963,0,0,1-1.04-1.04,1.953,1.953,0,1,1,3.6,0,1.965,1.965,0,0,1-1.04,1.04A1.952,1.952,0,0,1,5687.512,5261.428Zm0-3.362a1.408,1.408,0,0,0-1,2.4,1.418,1.418,0,0,0,.448.3,1.409,1.409,0,0,0,1.846-1.846,1.418,1.418,0,0,0-.75-.75A1.4,1.4,0,0,0,5687.512,5258.066Z" transform="translate(-5685.559 -5257.521)"></path></g><g transform="translate(4649.07 5211.194)"><path class="e" d="M5649.547,5261.2a1.682,1.682,0,0,0,2.335,1.548,1.685,1.685,0,0,0,.895-.895,1.677,1.677,0,0,0-.36-1.842,1.671,1.671,0,0,0-1.189-.493,1.68,1.68,0,0,0-1.681,1.681Z" transform="translate(-5649.274 -5259.25)"></path><path class="f" d="M5649.5,5261.428a1.949,1.949,0,0,1-1.381-.573,1.972,1.972,0,0,1-.419-.621,1.953,1.953,0,1,1,1.8,1.194Zm0-3.362a1.406,1.406,0,0,0-1,.413,1.425,1.425,0,0,0-.3.448,1.4,1.4,0,0,0,0,1.1,1.414,1.414,0,0,0,.75.75,1.409,1.409,0,0,0,1.845-1.846,1.414,1.414,0,0,0-.75-.75A1.4,1.4,0,0,0,5649.5,5258.066Z" transform="translate(-5647.547 -5257.521)"></path></g><g transform="translate(4643.894 5211.194)"><path class="g" d="M5611.535,5261.2a1.681,1.681,0,0,0,2.869,1.188,1.691,1.691,0,0,0,.361-.535,1.682,1.682,0,1,0-3.23-.654Z" transform="translate(-5611.263 -5259.25)"></path><path class="b" d="M5611.488,5261.428a1.952,1.952,0,1,1,1.8-1.194,1.963,1.963,0,0,1-1.04,1.04A1.948,1.948,0,0,1,5611.488,5261.428Zm0-3.362a1.409,1.409,0,1,0,1.3.861,1.418,1.418,0,0,0-.3-.448,1.4,1.4,0,0,0-1-.413Z" transform="translate(-5609.535 -5257.521)"></path></g><g transform="translate(4548.916 5233.934)"><path class="h" d="M4987.778,5429.442H4915.47a1.455,1.455,0,0,1-1.458-1.457h0a1.455,1.455,0,0,1,1.458-1.458h72.309a1.134,1.134,0,0,1,.5.114,1.288,1.288,0,0,1,.406.313,1.5,1.5,0,0,1,.273.463,1.648,1.648,0,0,1,.1.568h0a1.647,1.647,0,0,1-.1.567,1.5,1.5,0,0,1-.273.463,1.28,1.28,0,0,1-.406.313A1.134,1.134,0,0,1,4987.778,5429.442Z" transform="translate(-4913.74 -5426.255)"></path><path class="b" d="M4986.051,5427.987h-72.309a1.73,1.73,0,1,1,0-3.46h72.309a1.4,1.4,0,0,1,.6.136,1.556,1.556,0,0,1,.492.371,1.752,1.752,0,0,1,.332.55,1.914,1.914,0,0,1,0,1.345,1.747,1.747,0,0,1-.332.55,1.542,1.542,0,0,1-.492.371A1.4,1.4,0,0,1,4986.051,5427.987Zm-72.309-2.916a1.179,1.179,0,0,0-.461.093,1.193,1.193,0,0,0-.631.631,1.181,1.181,0,0,0,.254,1.3,1.192,1.192,0,0,0,.377.254,1.18,1.18,0,0,0,.461.094h72.309a.866.866,0,0,0,.39-.094,1.013,1.013,0,0,0,.319-.254,1.22,1.22,0,0,0,.215-.376,1.383,1.383,0,0,0,0-.922,1.222,1.222,0,0,0-.215-.377,1.013,1.013,0,0,0-.319-.254.865.865,0,0,0-.39-.093h-72.309Z" transform="translate(-4912.012 -5424.527)"></path></g><g transform="translate(4548.813 5212.632)"><path class="i" d="M4914.583,5284.751l-.034,0-.034-.008-.035-.013-.035-.019-.034-.021-.031-.019-.028-.017-.025-.015-.7-.484-.7-.484-.7-.484-.7-.484c-.025-.017-.049-.035-.07-.052s-.042-.035-.059-.052a.581.581,0,0,1-.048-.052.346.346,0,0,1-.036-.052.422.422,0,0,1-.027-.053.442.442,0,0,1-.02-.056.469.469,0,0,1-.011-.058.5.5,0,0,1,0-.061v-.114a.557.557,0,0,1,0-.064.483.483,0,0,1,.011-.06.423.423,0,0,1,.02-.056.349.349,0,0,1,.027-.052.359.359,0,0,1,.036-.05.571.571,0,0,1,.048-.051c.018-.017.038-.034.059-.051s.045-.034.07-.052l.7-.484.7-.484.7-.484.7-.485.025-.015.028-.017.031-.019.034-.02.035-.019.035-.013a.181.181,0,0,1,.034-.008l.034,0a.223.223,0,0,1,.037,0,.2.2,0,0,1,.035.009.211.211,0,0,1,.032.015.246.246,0,0,1,.029.021.129.129,0,0,1,.025.027.152.152,0,0,1,.018.033.186.186,0,0,1,.011.039.322.322,0,0,1,0,.044v.162a.343.343,0,0,1,0,.045.277.277,0,0,1-.008.041.239.239,0,0,1-.013.037.252.252,0,0,1-.019.033.34.34,0,0,1-.025.031.39.39,0,0,1-.035.034c-.013.011-.027.023-.043.035l-.053.037-.686.475-.686.475-.686.475-.686.475.686.475.686.475.686.475.686.475.053.037.043.035a.473.473,0,0,1,.035.034.285.285,0,0,1,.025.031.22.22,0,0,1,.019.033.245.245,0,0,1,.013.038.277.277,0,0,1,.008.041.343.343,0,0,1,0,.045v.161a.323.323,0,0,1,0,.045.2.2,0,0,1-.011.039.152.152,0,0,1-.018.033.127.127,0,0,1-.025.026.2.2,0,0,1-.029.021.173.173,0,0,1-.032.015.164.164,0,0,1-.035.009A.222.222,0,0,1,4914.583,5284.751Z" transform="translate(-4911.25 -5278.084)"></path><path class="i" d="M4944.146,5276.346a.222.222,0,0,1-.037,0,.205.205,0,0,1-.035-.011.173.173,0,0,1-.032-.018.2.2,0,0,1-.029-.025.235.235,0,0,1-.025-.03.206.206,0,0,1-.018-.032.164.164,0,0,1-.011-.034.233.233,0,0,1,0-.037.15.15,0,0,1,0-.025c0-.009,0-.018,0-.027s.006-.019.009-.03.008-.021.012-.032l.817-1.954.816-1.954.817-1.954.816-1.954.011-.02.015-.022.019-.023.022-.025a.149.149,0,0,1,.027-.023.157.157,0,0,1,.033-.016.186.186,0,0,1,.039-.01.256.256,0,0,1,.044,0h.161a.152.152,0,0,1,.037,0,.211.211,0,0,1,.034.01.175.175,0,0,1,.032.018.2.2,0,0,1,.03.025.278.278,0,0,1,.025.03.185.185,0,0,1,.018.032.143.143,0,0,1,.011.035.149.149,0,0,1,0,.058l-.005.026c0,.009-.005.02-.009.031s-.007.023-.012.035l-.816,1.954-.817,1.954-.816,1.954-.817,1.954a.113.113,0,0,1-.007.02.175.175,0,0,1-.013.021l-.018.023-.023.025a.143.143,0,0,1-.029.022.2.2,0,0,1-.034.017.234.234,0,0,1-.04.01.316.316,0,0,1-.044,0h-.162Z" transform="translate(-4939.502 -5268.084)"></path><path class="i" d="M4979.223,5284.751a.227.227,0,0,1-.037,0,.172.172,0,0,1-.035-.009.144.144,0,0,1-.032-.015.241.241,0,0,1-.03-.021.139.139,0,0,1-.024-.026.132.132,0,0,1-.018-.033.146.146,0,0,1-.011-.039.22.22,0,0,1,0-.045v-.161a.343.343,0,0,1,0-.045.226.226,0,0,1,.008-.041.311.311,0,0,1,.013-.038.22.22,0,0,1,.019-.033.209.209,0,0,1,.026-.031l.034-.034.044-.035.052-.037.687-.475.686-.475.687-.475.686-.475-.686-.475-.687-.475-.686-.475-.687-.475-.052-.037c-.016-.012-.031-.024-.044-.035a.448.448,0,0,1-.034-.034.236.236,0,0,1-.026-.031.252.252,0,0,1-.019-.033.3.3,0,0,1-.013-.037.226.226,0,0,1-.008-.041.343.343,0,0,1,0-.045v-.162a.218.218,0,0,1,0-.044.141.141,0,0,1,.011-.039.132.132,0,0,1,.018-.033.141.141,0,0,1,.024-.027.306.306,0,0,1,.03-.021.171.171,0,0,1,.032-.015.212.212,0,0,1,.035-.009.227.227,0,0,1,.037,0l.034,0a.182.182,0,0,1,.035.008l.036.013a.389.389,0,0,1,.038.019l.036.02.031.019.026.017.021.015.7.485.7.484.7.484.7.484c.026.018.049.035.071.052s.042.034.059.051a.652.652,0,0,1,.048.051.467.467,0,0,1,.037.05.4.4,0,0,1,.027.052.507.507,0,0,1,.02.056.483.483,0,0,1,.011.06.557.557,0,0,1,0,.064v.114a.5.5,0,0,1,0,.061.469.469,0,0,1-.011.058.536.536,0,0,1-.02.056.494.494,0,0,1-.027.053.441.441,0,0,1-.037.052.664.664,0,0,1-.048.052c-.018.018-.038.035-.059.052s-.045.035-.071.052l-.7.484-.7.484-.7.484-.7.484-.021.015-.026.017-.031.019-.036.021a.389.389,0,0,1-.038.019l-.036.013-.035.008Z" transform="translate(-4969.804 -5278.084)"></path></g><g transform="translate(4523.061 5229.491)"><path class="h" d="M4728.093,5396.521a3.366,3.366,0,0,1-.156,1.021,2.8,2.8,0,0,1-.424.834,2.061,2.061,0,0,1-.629.562,1.546,1.546,0,0,1-1.542,0,2.061,2.061,0,0,1-.629-.562,2.8,2.8,0,0,1-.424-.834,3.426,3.426,0,0,1,0-2.042,2.791,2.791,0,0,1,.424-.834,2.055,2.055,0,0,1,.629-.562,1.543,1.543,0,0,1,1.542,0,2.055,2.055,0,0,1,.629.562,2.791,2.791,0,0,1,.424.834A3.367,3.367,0,0,1,4728.093,5396.521Z" transform="translate(-4723.859 -5393.625)"></path><path class="b" d="M4724.385,5397.689a1.826,1.826,0,0,1-.876-.228,2.323,2.323,0,0,1-.716-.621,3.072,3.072,0,0,1-.483-.921,3.667,3.667,0,0,1,0-2.252,3.072,3.072,0,0,1,.483-.921,2.323,2.323,0,0,1,.716-.621,1.8,1.8,0,0,1,1.752,0,2.316,2.316,0,0,1,.716.621,3.061,3.061,0,0,1,.483.921,3.657,3.657,0,0,1,0,2.252,3.061,3.061,0,0,1-.483.921,2.316,2.316,0,0,1-.716.621A1.826,1.826,0,0,1,4724.385,5397.689Zm0-5.248a1.31,1.31,0,0,0-.664.186,1.81,1.81,0,0,0-.543.5,2.553,2.553,0,0,0-.366.748,3.169,3.169,0,0,0,0,1.829,2.562,2.562,0,0,0,.366.748,1.808,1.808,0,0,0,.543.5,1.282,1.282,0,0,0,1.329,0,1.8,1.8,0,0,0,.543-.5,2.549,2.549,0,0,0,.366-.748,3.169,3.169,0,0,0,0-1.829,2.541,2.541,0,0,0-.366-.748,1.8,1.8,0,0,0-.543-.5A1.312,1.312,0,0,0,4724.385,5392.441Z" transform="translate(-4722.132 -5391.897)"></path></g><g transform="translate(4521.992 5229.491)"><path class="h" d="M4720.244,5396.521a3.366,3.366,0,0,1-.156,1.021,2.8,2.8,0,0,1-.424.834,2.063,2.063,0,0,1-.63.562,1.545,1.545,0,0,1-1.542,0,2.061,2.061,0,0,1-.629-.562,2.8,2.8,0,0,1-.424-.834,3.426,3.426,0,0,1,0-2.042,2.791,2.791,0,0,1,.424-.834,2.055,2.055,0,0,1,.629-.562,1.542,1.542,0,0,1,1.542,0,2.056,2.056,0,0,1,.63.562,2.791,2.791,0,0,1,.424.834A3.367,3.367,0,0,1,4720.244,5396.521Z" transform="translate(-4716.01 -5393.625)"></path><path class="b" d="M4716.534,5397.689a1.826,1.826,0,0,1-.876-.228,2.329,2.329,0,0,1-.716-.621,3.06,3.06,0,0,1-.483-.921,3.657,3.657,0,0,1,0-2.252,3.06,3.06,0,0,1,.483-.921,2.329,2.329,0,0,1,.716-.621,1.8,1.8,0,0,1,1.752,0,2.323,2.323,0,0,1,.716.621,3.072,3.072,0,0,1,.483.921,3.667,3.667,0,0,1,0,2.252,3.072,3.072,0,0,1-.483.921,2.323,2.323,0,0,1-.716.621A1.826,1.826,0,0,1,4716.534,5397.689Zm0-5.248a1.311,1.311,0,0,0-.664.186,1.81,1.81,0,0,0-.543.5,2.54,2.54,0,0,0-.366.748,3.169,3.169,0,0,0,0,1.829,2.549,2.549,0,0,0,.366.748,1.808,1.808,0,0,0,.543.5,1.282,1.282,0,0,0,1.329,0,1.8,1.8,0,0,0,.543-.5,2.549,2.549,0,0,0,.366-.748,3.18,3.18,0,0,0,0-1.829,2.541,2.541,0,0,0-.366-.748,1.8,1.8,0,0,0-.543-.5A1.31,1.31,0,0,0,4716.534,5392.441Z" transform="translate(-4714.281 -5391.897)"></path></g><g transform="translate(4510.005 5229.491)"><path class="h" d="M4632.208,5396.521a3.366,3.366,0,0,1-.156,1.021,2.8,2.8,0,0,1-.424.834,2.067,2.067,0,0,1-.629.562,1.546,1.546,0,0,1-1.542,0,2.061,2.061,0,0,1-.629-.562,2.8,2.8,0,0,1-.424-.834,3.426,3.426,0,0,1,0-2.042,2.791,2.791,0,0,1,.424-.834,2.055,2.055,0,0,1,.629-.562,1.543,1.543,0,0,1,1.542,0,2.06,2.06,0,0,1,.629.562,2.791,2.791,0,0,1,.424.834A3.367,3.367,0,0,1,4632.208,5396.521Z" transform="translate(-4627.975 -5393.625)"></path><path class="b" d="M4628.5,5397.689a1.823,1.823,0,0,1-.876-.228,2.317,2.317,0,0,1-.716-.621,3.061,3.061,0,0,1-.483-.921,3.667,3.667,0,0,1,0-2.252,3.061,3.061,0,0,1,.483-.921,2.317,2.317,0,0,1,.716-.621,1.8,1.8,0,0,1,1.752,0,2.323,2.323,0,0,1,.716.621,3.06,3.06,0,0,1,.483.921,3.657,3.657,0,0,1,0,2.252,3.06,3.06,0,0,1-.483.921,2.323,2.323,0,0,1-.716.621A1.826,1.826,0,0,1,4628.5,5397.689Zm0-5.248a1.31,1.31,0,0,0-.664.186,1.8,1.8,0,0,0-.543.5,2.541,2.541,0,0,0-.366.748,3.169,3.169,0,0,0,0,1.829,2.549,2.549,0,0,0,.366.748,1.8,1.8,0,0,0,.543.5,1.281,1.281,0,0,0,1.328,0,1.8,1.8,0,0,0,.543-.5,2.562,2.562,0,0,0,.367-.748,3.18,3.18,0,0,0,0-1.829,2.554,2.554,0,0,0-.367-.748,1.8,1.8,0,0,0-.543-.5A1.308,1.308,0,0,0,4628.5,5392.441Z" transform="translate(-4626.247 -5391.897)"></path></g><g transform="translate(4508.936 5229.491)"><path class="h" d="M4624.358,5396.521a3.381,3.381,0,0,1-.155,1.021,2.823,2.823,0,0,1-.425.834,2.061,2.061,0,0,1-.629.562,1.546,1.546,0,0,1-1.542,0,2.054,2.054,0,0,1-.629-.562,2.777,2.777,0,0,1-.425-.834,3.426,3.426,0,0,1,0-2.042,2.769,2.769,0,0,1,.425-.834,2.048,2.048,0,0,1,.629-.562,1.543,1.543,0,0,1,1.542,0,2.055,2.055,0,0,1,.629.562,2.814,2.814,0,0,1,.425.834A3.382,3.382,0,0,1,4624.358,5396.521Z" transform="translate(-4620.125 -5393.625)"></path><path class="b" d="M4620.65,5397.689a1.828,1.828,0,0,1-.876-.228,2.327,2.327,0,0,1-.716-.621,3.061,3.061,0,0,1-.483-.921,3.667,3.667,0,0,1,0-2.252,3.061,3.061,0,0,1,.483-.921,2.327,2.327,0,0,1,.716-.621,1.8,1.8,0,0,1,1.753,0,2.334,2.334,0,0,1,.716.621,3.071,3.071,0,0,1,.483.921,3.657,3.657,0,0,1,0,2.252,3.071,3.071,0,0,1-.483.921,2.334,2.334,0,0,1-.716.621A1.825,1.825,0,0,1,4620.65,5397.689Zm0-5.248a1.313,1.313,0,0,0-.665.186,1.814,1.814,0,0,0-.543.5,2.553,2.553,0,0,0-.366.748,3.169,3.169,0,0,0,0,1.829,2.562,2.562,0,0,0,.366.748,1.812,1.812,0,0,0,.543.5,1.283,1.283,0,0,0,1.329,0,1.8,1.8,0,0,0,.543-.5,2.55,2.55,0,0,0,.367-.748,3.18,3.18,0,0,0,0-1.829,2.541,2.541,0,0,0-.367-.748,1.8,1.8,0,0,0-.543-.5A1.31,1.31,0,0,0,4620.65,5392.441Z" transform="translate(-4618.397 -5391.897)"></path></g><g transform="translate(4498.782 5228.883)"><path class="h" d="M4549.781,5392.059a3.366,3.366,0,0,1-.156,1.021,2.793,2.793,0,0,1-.424.834,2.061,2.061,0,0,1-.629.562,1.546,1.546,0,0,1-1.542,0,2.061,2.061,0,0,1-.629-.562,2.793,2.793,0,0,1-.424-.834,3.426,3.426,0,0,1,0-2.042,2.791,2.791,0,0,1,.424-.834,2.055,2.055,0,0,1,.629-.562,1.543,1.543,0,0,1,1.542,0,2.055,2.055,0,0,1,.629.562,2.791,2.791,0,0,1,.424.834A3.367,3.367,0,0,1,4549.781,5392.059Z" transform="translate(-4545.547 -5389.163)"></path><path class="b" d="M4546.073,5393.229a1.824,1.824,0,0,1-.876-.228,2.325,2.325,0,0,1-.716-.622,3.064,3.064,0,0,1-.483-.92,3.667,3.667,0,0,1,0-2.252,3.072,3.072,0,0,1,.483-.921,2.323,2.323,0,0,1,.716-.621,1.8,1.8,0,0,1,1.752,0,2.321,2.321,0,0,1,.716.621,3.061,3.061,0,0,1,.483.921,3.667,3.667,0,0,1,0,2.252,3.053,3.053,0,0,1-.483.92,2.323,2.323,0,0,1-.716.622A1.826,1.826,0,0,1,4546.073,5393.229Zm0-5.248a1.31,1.31,0,0,0-.664.186,1.8,1.8,0,0,0-.543.5,2.544,2.544,0,0,0-.367.748,3.169,3.169,0,0,0,0,1.829,2.536,2.536,0,0,0,.367.748,1.8,1.8,0,0,0,.543.5,1.285,1.285,0,0,0,1.329,0,1.8,1.8,0,0,0,.543-.5,2.523,2.523,0,0,0,.366-.748,3.169,3.169,0,0,0,0-1.829,2.532,2.532,0,0,0-.366-.748,1.807,1.807,0,0,0-.543-.5A1.312,1.312,0,0,0,4546.073,5387.98Z" transform="translate(-4543.82 -5387.436)"></path></g><g transform="translate(4497.712 5228.883)"><path class="h" d="M4541.932,5392.059a3.366,3.366,0,0,1-.156,1.021,2.793,2.793,0,0,1-.424.834,2.067,2.067,0,0,1-.629.562,1.546,1.546,0,0,1-1.542,0,2.061,2.061,0,0,1-.629-.562,2.793,2.793,0,0,1-.424-.834,3.426,3.426,0,0,1,0-2.042,2.791,2.791,0,0,1,.424-.834,2.055,2.055,0,0,1,.629-.562,1.543,1.543,0,0,1,1.542,0,2.06,2.06,0,0,1,.629.562,2.791,2.791,0,0,1,.424.834A3.367,3.367,0,0,1,4541.932,5392.059Z" transform="translate(-4537.698 -5389.163)"></path><path class="b" d="M4538.223,5393.229a1.824,1.824,0,0,1-.876-.228,2.325,2.325,0,0,1-.716-.622,3.053,3.053,0,0,1-.483-.92,3.667,3.667,0,0,1,0-2.252,3.061,3.061,0,0,1,.483-.921,2.323,2.323,0,0,1,.716-.621,1.8,1.8,0,0,1,1.752,0,2.323,2.323,0,0,1,.716.621,3.071,3.071,0,0,1,.483.921,3.667,3.667,0,0,1,0,2.252,3.063,3.063,0,0,1-.483.92,2.325,2.325,0,0,1-.716.622A1.826,1.826,0,0,1,4538.223,5393.229Zm0-5.248a1.31,1.31,0,0,0-.664.186,1.808,1.808,0,0,0-.543.5,2.544,2.544,0,0,0-.366.748,3.169,3.169,0,0,0,0,1.829,2.535,2.535,0,0,0,.366.748,1.8,1.8,0,0,0,.543.5,1.285,1.285,0,0,0,1.329,0,1.8,1.8,0,0,0,.543-.5,2.536,2.536,0,0,0,.367-.748,3.18,3.18,0,0,0,0-1.829,2.544,2.544,0,0,0-.367-.748,1.807,1.807,0,0,0-.543-.5A1.312,1.312,0,0,0,4538.223,5387.98Z" transform="translate(-4535.97 -5387.436)"></path></g><g transform="translate(4491.682 5246.102)"><path class="a" d="M4619.31,5558.117H4500.329a6.642,6.642,0,0,1-6.647-6.647v-28.931a6.641,6.641,0,0,1,6.647-6.647H4619.31a6.642,6.642,0,0,1,6.647,6.647v28.931a6.642,6.642,0,0,1-6.647,6.647Z" transform="translate(-4493.409 -5515.619)"></path><path class="b" d="M4617.583,5556.661H4498.6a6.919,6.919,0,0,1-6.92-6.92v-28.93a6.919,6.919,0,0,1,6.92-6.919h118.981a6.92,6.92,0,0,1,6.92,6.919v28.93a6.9,6.9,0,0,1-2.029,4.891,6.9,6.9,0,0,1-4.891,2.029ZM4498.6,5514.436a6.376,6.376,0,0,0-6.375,6.375v28.93a6.337,6.337,0,0,0,.5,2.479,6.376,6.376,0,0,0,5.874,3.9h118.981a6.376,6.376,0,0,0,6.375-6.375v-28.93a6.376,6.376,0,0,0-6.375-6.375H4498.6Z" transform="translate(-4491.682 -5513.892)"></path></g><g transform="translate(4535.257 5246.102)"><path class="c" d="M4939.327,5558.117H4820.346a6.642,6.642,0,0,1-6.647-6.647v-28.931a6.641,6.641,0,0,1,6.647-6.647h118.981a6.643,6.643,0,0,1,6.648,6.647v28.931a6.643,6.643,0,0,1-6.648,6.647Z" transform="translate(-4813.426 -5515.619)"></path><path class="b" d="M4937.6,5556.661H4818.617a6.919,6.919,0,0,1-6.92-6.92v-28.93a6.919,6.919,0,0,1,6.92-6.919H4937.6a6.92,6.92,0,0,1,6.92,6.919v28.93a6.9,6.9,0,0,1-2.029,4.891,6.9,6.9,0,0,1-4.891,2.029Zm-118.981-42.225a6.357,6.357,0,0,0-4.506,1.87,6.354,6.354,0,0,0-1.87,4.505v28.93a6.376,6.376,0,0,0,6.375,6.375H4937.6a6.357,6.357,0,0,0,4.506-1.87,6.351,6.351,0,0,0,1.869-4.506v-28.93a6.376,6.376,0,0,0-6.375-6.375H4818.617Z" transform="translate(-4811.697 -5513.892)"></path></g><g transform="translate(4654.246 5253.404)"><path class="d" d="M5687.559,5571.2a1.68,1.68,0,0,0,2.87,1.188,1.7,1.7,0,0,0,.36-.534,1.682,1.682,0,1,0-3.23-.654Z" transform="translate(-5687.287 -5569.25)"></path><path class="b" d="M5687.512,5571.428a1.948,1.948,0,0,1-.76-.154,1.963,1.963,0,0,1-1.04-1.04,1.95,1.95,0,0,1,.419-2.14,1.972,1.972,0,0,1,.621-.419,1.953,1.953,0,0,1,1.52,0,1.965,1.965,0,0,1,1.04,1.04,1.952,1.952,0,0,1,0,1.519,1.953,1.953,0,0,1-1.8,1.194Zm0-3.362a1.4,1.4,0,0,0-.548.111,1.415,1.415,0,0,0-.75.75,1.407,1.407,0,0,0,.3,1.544,1.425,1.425,0,0,0,.448.3,1.409,1.409,0,0,0,1.1,0,1.414,1.414,0,0,0,.75-.75,1.409,1.409,0,0,0,0-1.1,1.411,1.411,0,0,0-1.3-.861Z" transform="translate(-5685.559 -5567.521)"></path></g><g transform="translate(4649.07 5253.404)"><path class="e" d="M5649.547,5571.2a1.678,1.678,0,1,0,.132-.654A1.677,1.677,0,0,0,5649.547,5571.2Z" transform="translate(-5649.274 -5569.25)"></path><path class="f" d="M5649.5,5571.428a1.946,1.946,0,1,1,.759-.154A1.948,1.948,0,0,1,5649.5,5571.428Zm0-3.362a1.4,1.4,0,0,0-.548.111,1.411,1.411,0,0,0-.75.75,1.4,1.4,0,0,0,0,1.1,1.409,1.409,0,0,0,.75.75,1.408,1.408,0,0,0,1.1,0,1.409,1.409,0,0,0,.75-.75,1.409,1.409,0,0,0,0-1.1,1.411,1.411,0,0,0-.75-.75A1.4,1.4,0,0,0,5649.5,5568.065Z" transform="translate(-5647.547 -5567.521)"></path></g><g transform="translate(4643.894 5253.404)"><path class="g" d="M5611.535,5571.2a1.673,1.673,0,1,0,.132-.654A1.676,1.676,0,0,0,5611.535,5571.2Z" transform="translate(-5611.263 -5569.25)"></path><path class="b" d="M5611.488,5571.428a1.949,1.949,0,1,1,.76-.154A1.947,1.947,0,0,1,5611.488,5571.428Zm0-3.362a1.409,1.409,0,1,0,1,2.4,1.421,1.421,0,0,0,.3-.448,1.409,1.409,0,0,0,0-1.1,1.415,1.415,0,0,0-.75-.75A1.4,1.4,0,0,0,5611.488,5568.065Z" transform="translate(-5609.535 -5567.521)"></path></g><g transform="translate(4548.916 5276.145)"><path class="h" d="M4987.778,5739.442H4915.47a1.456,1.456,0,0,1-1.458-1.458h0a1.459,1.459,0,0,1,.89-1.343,1.447,1.447,0,0,1,.567-.115h72.309a1.127,1.127,0,0,1,.5.115,1.28,1.28,0,0,1,.406.313,1.491,1.491,0,0,1,.273.463,1.65,1.65,0,0,1,.1.567h0a1.647,1.647,0,0,1-.1.567,1.5,1.5,0,0,1-.273.464,1.288,1.288,0,0,1-.406.313A1.14,1.14,0,0,1,4987.778,5739.442Z" transform="translate(-4913.74 -5736.254)"></path><path class="b" d="M4986.051,5737.987h-72.309a1.729,1.729,0,0,1-1.223-2.953,1.74,1.74,0,0,1,.55-.371,1.718,1.718,0,0,1,.673-.136h72.309a1.393,1.393,0,0,1,.6.136,1.556,1.556,0,0,1,.492.371,1.744,1.744,0,0,1,.332.55,1.915,1.915,0,0,1,0,1.346,1.739,1.739,0,0,1-.332.55,1.527,1.527,0,0,1-.492.371A1.393,1.393,0,0,1,4986.051,5737.987Zm-72.309-2.916a1.171,1.171,0,0,0-.461.094,1.19,1.19,0,0,0-.631.631,1.186,1.186,0,0,0,1.092,1.646h72.309a.865.865,0,0,0,.39-.093,1.013,1.013,0,0,0,.319-.254,1.234,1.234,0,0,0,.215-.377,1.383,1.383,0,0,0,0-.922,1.234,1.234,0,0,0-.215-.377,1.019,1.019,0,0,0-.319-.254.859.859,0,0,0-.39-.094h-72.309Z" transform="translate(-4912.012 -5734.527)"></path></g><g transform="translate(4548.916 5270.29)"><path class="h" d="M4987.778,5696.442H4915.47a1.456,1.456,0,0,1-1.458-1.458h0a1.457,1.457,0,0,1,1.458-1.458h72.309a1.134,1.134,0,0,1,.5.115,1.279,1.279,0,0,1,.406.312,1.5,1.5,0,0,1,.273.464,1.647,1.647,0,0,1,.1.567h0a1.647,1.647,0,0,1-.1.567,1.493,1.493,0,0,1-.273.463,1.273,1.273,0,0,1-.406.313A1.134,1.134,0,0,1,4987.778,5696.442Z" transform="translate(-4913.74 -5693.254)"></path><path class="b" d="M4986.051,5694.987h-72.309a1.73,1.73,0,1,1,0-3.46h72.309a1.4,1.4,0,0,1,.6.136,1.55,1.55,0,0,1,.492.372,1.744,1.744,0,0,1,.332.55,1.915,1.915,0,0,1,0,1.346,1.739,1.739,0,0,1-.332.55,1.55,1.55,0,0,1-.492.372A1.4,1.4,0,0,1,4986.051,5694.987Zm-72.309-2.916a1.179,1.179,0,0,0-.461.093,1.193,1.193,0,0,0-.631.631,1.183,1.183,0,0,0,.254,1.3,1.2,1.2,0,0,0,.377.254,1.18,1.18,0,0,0,.461.094h72.309a.866.866,0,0,0,.39-.094,1.019,1.019,0,0,0,.319-.254,1.228,1.228,0,0,0,.215-.377,1.383,1.383,0,0,0,0-.922,1.228,1.228,0,0,0-.215-.377,1.013,1.013,0,0,0-.319-.254.865.865,0,0,0-.39-.093h-72.309Z" transform="translate(-4912.012 -5691.527)"></path></g><g transform="translate(4548.916 5264.435)"><path class="h" d="M4987.778,5653.442H4915.47a1.456,1.456,0,0,1-1.458-1.458h0a1.459,1.459,0,0,1,.89-1.343,1.447,1.447,0,0,1,.567-.115h72.309a1.127,1.127,0,0,1,.5.115,1.28,1.28,0,0,1,.406.313,1.491,1.491,0,0,1,.273.463,1.65,1.65,0,0,1,.1.567h0a1.647,1.647,0,0,1-.1.567,1.5,1.5,0,0,1-.273.464,1.288,1.288,0,0,1-.406.313A1.14,1.14,0,0,1,4987.778,5653.442Z" transform="translate(-4913.74 -5650.254)"></path><path class="b" d="M4986.051,5651.987h-72.309a1.729,1.729,0,0,1-1.223-2.953,1.74,1.74,0,0,1,.55-.371,1.718,1.718,0,0,1,.673-.136h72.309a1.393,1.393,0,0,1,.6.136,1.556,1.556,0,0,1,.492.371,1.744,1.744,0,0,1,.332.55,1.915,1.915,0,0,1,0,1.346,1.739,1.739,0,0,1-.332.55,1.527,1.527,0,0,1-.492.371A1.393,1.393,0,0,1,4986.051,5651.987Zm-72.309-2.916a1.18,1.18,0,0,0-.461.094,1.19,1.19,0,0,0-.631.631,1.186,1.186,0,0,0,1.092,1.646h72.309a.865.865,0,0,0,.39-.093,1.013,1.013,0,0,0,.319-.254,1.234,1.234,0,0,0,.215-.377,1.383,1.383,0,0,0,0-.922,1.234,1.234,0,0,0-.215-.377,1.019,1.019,0,0,0-.319-.254.866.866,0,0,0-.39-.094h-72.309Z" transform="translate(-4912.012 -5648.527)"></path></g><g transform="translate(4548.916 5258.58)"><path class="h" d="M4987.778,5610.442H4915.47a1.456,1.456,0,0,1-1.458-1.458h0a1.455,1.455,0,0,1,1.458-1.458h72.309a1.14,1.14,0,0,1,.5.114,1.28,1.28,0,0,1,.406.313,1.5,1.5,0,0,1,.273.463,1.647,1.647,0,0,1,.1.567h0a1.647,1.647,0,0,1-.1.567,1.493,1.493,0,0,1-.273.463,1.273,1.273,0,0,1-.406.313A1.134,1.134,0,0,1,4987.778,5610.442Z" transform="translate(-4913.74 -5607.254)"></path><path class="b" d="M4986.051,5608.987h-72.309a1.73,1.73,0,1,1,0-3.46h72.309a1.4,1.4,0,0,1,.6.136,1.55,1.55,0,0,1,.492.372,1.744,1.744,0,0,1,.332.55,1.915,1.915,0,0,1,0,1.346,1.739,1.739,0,0,1-.332.55,1.55,1.55,0,0,1-.492.372A1.4,1.4,0,0,1,4986.051,5608.987Zm-72.309-2.916a1.179,1.179,0,0,0-.461.093,1.193,1.193,0,0,0-.631.631,1.183,1.183,0,0,0,.254,1.3,1.2,1.2,0,0,0,.377.254,1.18,1.18,0,0,0,.461.094h72.309a.866.866,0,0,0,.39-.094,1.019,1.019,0,0,0,.319-.254,1.228,1.228,0,0,0,.215-.377,1.383,1.383,0,0,0,0-.922,1.228,1.228,0,0,0-.215-.377,1.013,1.013,0,0,0-.319-.254.865.865,0,0,0-.39-.093h-72.309Z" transform="translate(-4912.012 -5605.527)"></path></g><g transform="translate(4548.916 5252.725)"><path class="h" d="M4987.778,5567.442H4915.47a1.456,1.456,0,0,1-1.458-1.458h0a1.459,1.459,0,0,1,.89-1.343,1.447,1.447,0,0,1,.567-.115h72.309a1.127,1.127,0,0,1,.5.115,1.28,1.28,0,0,1,.406.313,1.491,1.491,0,0,1,.273.463,1.65,1.65,0,0,1,.1.568h0a1.647,1.647,0,0,1-.1.567,1.5,1.5,0,0,1-.273.464,1.288,1.288,0,0,1-.406.313A1.14,1.14,0,0,1,4987.778,5567.442Z" transform="translate(-4913.74 -5564.254)"></path><path class="b" d="M4986.051,5565.987h-72.309a1.729,1.729,0,0,1-1.223-2.953,1.724,1.724,0,0,1,1.223-.507h72.309a1.4,1.4,0,0,1,.6.136,1.556,1.556,0,0,1,.492.371,1.744,1.744,0,0,1,.332.55,1.915,1.915,0,0,1,0,1.346,1.739,1.739,0,0,1-.332.55,1.527,1.527,0,0,1-.492.371A1.393,1.393,0,0,1,4986.051,5565.987Zm-72.309-2.916a1.18,1.18,0,0,0-.461.094,1.19,1.19,0,0,0-.631.631,1.186,1.186,0,0,0,1.092,1.646h72.309a.865.865,0,0,0,.39-.093,1.013,1.013,0,0,0,.319-.254,1.234,1.234,0,0,0,.215-.377,1.383,1.383,0,0,0,0-.922,1.234,1.234,0,0,0-.215-.377,1.019,1.019,0,0,0-.319-.254.866.866,0,0,0-.39-.094h-72.309Z" transform="translate(-4912.012 -5562.527)"></path></g><g transform="translate(4523.061 5271.702)"><path class="h" d="M4728.093,5706.521a3.366,3.366,0,0,1-.156,1.021,2.8,2.8,0,0,1-.424.834,2.067,2.067,0,0,1-.629.562,1.546,1.546,0,0,1-1.542,0,2.067,2.067,0,0,1-.629-.562,2.8,2.8,0,0,1-.424-.834,3.426,3.426,0,0,1,0-2.042,2.791,2.791,0,0,1,.424-.834,2.057,2.057,0,0,1,.629-.562,1.546,1.546,0,0,1,1.542,0,2.057,2.057,0,0,1,.629.563,2.791,2.791,0,0,1,.424.834A3.365,3.365,0,0,1,4728.093,5706.521Z" transform="translate(-4723.859 -5703.625)"></path><path class="b" d="M4724.385,5707.689a1.821,1.821,0,0,1-.876-.229,2.323,2.323,0,0,1-.716-.621,3.066,3.066,0,0,1-.483-.921,3.667,3.667,0,0,1,0-2.252,3.07,3.07,0,0,1,.483-.92,2.317,2.317,0,0,1,.716-.621,1.794,1.794,0,0,1,1.752,0,2.309,2.309,0,0,1,.716.621,3.059,3.059,0,0,1,.483.92,3.657,3.657,0,0,1,0,2.252,3.055,3.055,0,0,1-.483.921,2.316,2.316,0,0,1-.716.621A1.821,1.821,0,0,1,4724.385,5707.689Zm0-5.248a1.31,1.31,0,0,0-.664.186,1.808,1.808,0,0,0-.543.5,2.556,2.556,0,0,0-.366.747,3.172,3.172,0,0,0,0,1.83,2.553,2.553,0,0,0,.366.748,1.81,1.81,0,0,0,.543.5,1.285,1.285,0,0,0,1.329,0,1.8,1.8,0,0,0,.543-.5,2.541,2.541,0,0,0,.366-.748,3.172,3.172,0,0,0,0-1.83,2.544,2.544,0,0,0-.366-.747,1.8,1.8,0,0,0-.543-.5A1.312,1.312,0,0,0,4724.385,5702.441Z" transform="translate(-4722.132 -5701.896)"></path></g><g transform="translate(4521.992 5271.702)"><path class="h" d="M4720.244,5706.521a3.366,3.366,0,0,1-.156,1.021,2.8,2.8,0,0,1-.424.834,2.069,2.069,0,0,1-.63.562,1.545,1.545,0,0,1-1.542,0,2.067,2.067,0,0,1-.629-.562,2.8,2.8,0,0,1-.424-.834,3.426,3.426,0,0,1,0-2.042,2.791,2.791,0,0,1,.424-.834,2.057,2.057,0,0,1,.629-.562,1.545,1.545,0,0,1,1.542,0,2.058,2.058,0,0,1,.63.563,2.791,2.791,0,0,1,.424.834A3.365,3.365,0,0,1,4720.244,5706.521Z" transform="translate(-4716.01 -5703.625)"></path><path class="b" d="M4716.534,5707.689a1.821,1.821,0,0,1-.876-.229,2.329,2.329,0,0,1-.716-.621,3.054,3.054,0,0,1-.483-.921,3.657,3.657,0,0,1,0-2.252,3.058,3.058,0,0,1,.483-.92,2.322,2.322,0,0,1,.716-.621,1.794,1.794,0,0,1,1.752,0,2.317,2.317,0,0,1,.716.621,3.07,3.07,0,0,1,.483.92,3.667,3.667,0,0,1,0,2.252,3.066,3.066,0,0,1-.483.921,2.323,2.323,0,0,1-.716.621A1.821,1.821,0,0,1,4716.534,5707.689Zm0-5.248a1.311,1.311,0,0,0-.664.186,1.808,1.808,0,0,0-.543.5,2.543,2.543,0,0,0-.366.747,3.172,3.172,0,0,0,0,1.83,2.54,2.54,0,0,0,.366.748,1.81,1.81,0,0,0,.543.5,1.285,1.285,0,0,0,1.329,0,1.8,1.8,0,0,0,.543-.5,2.541,2.541,0,0,0,.366-.748,3.183,3.183,0,0,0,0-1.83,2.544,2.544,0,0,0-.366-.747,1.8,1.8,0,0,0-.543-.5A1.31,1.31,0,0,0,4716.534,5702.441Z" transform="translate(-4714.281 -5701.896)"></path></g><g transform="translate(4510.005 5271.702)"><path class="h" d="M4632.208,5706.521a3.366,3.366,0,0,1-.156,1.021,2.8,2.8,0,0,1-.424.834,2.073,2.073,0,0,1-.629.562,1.546,1.546,0,0,1-1.542,0,2.067,2.067,0,0,1-.629-.562,2.8,2.8,0,0,1-.424-.834,3.426,3.426,0,0,1,0-2.042,2.791,2.791,0,0,1,.424-.834,2.057,2.057,0,0,1,.629-.562,1.546,1.546,0,0,1,1.542,0,2.062,2.062,0,0,1,.629.563,2.791,2.791,0,0,1,.424.834A3.365,3.365,0,0,1,4632.208,5706.521Z" transform="translate(-4627.975 -5703.625)"></path><path class="b" d="M4628.5,5707.689a1.818,1.818,0,0,1-.876-.229,2.317,2.317,0,0,1-.716-.621,3.055,3.055,0,0,1-.483-.921,3.667,3.667,0,0,1,0-2.252,3.059,3.059,0,0,1,.483-.92,2.311,2.311,0,0,1,.716-.621,1.794,1.794,0,0,1,1.752,0,2.317,2.317,0,0,1,.716.621,3.058,3.058,0,0,1,.483.92,3.657,3.657,0,0,1,0,2.252,3.054,3.054,0,0,1-.483.921,2.323,2.323,0,0,1-.716.621A1.821,1.821,0,0,1,4628.5,5707.689Zm0-5.248a1.31,1.31,0,0,0-.664.186,1.8,1.8,0,0,0-.543.5,2.544,2.544,0,0,0-.366.747,3.172,3.172,0,0,0,0,1.83,2.541,2.541,0,0,0,.366.748,1.8,1.8,0,0,0,.543.5,1.284,1.284,0,0,0,1.328,0,1.8,1.8,0,0,0,.543-.5,2.554,2.554,0,0,0,.367-.748,3.183,3.183,0,0,0,0-1.83,2.557,2.557,0,0,0-.367-.747,1.8,1.8,0,0,0-.543-.5A1.308,1.308,0,0,0,4628.5,5702.441Z" transform="translate(-4626.247 -5701.896)"></path></g><g transform="translate(4508.936 5271.702)"><path class="h" d="M4624.358,5706.521a3.381,3.381,0,0,1-.155,1.021,2.823,2.823,0,0,1-.425.834,2.067,2.067,0,0,1-.629.562,1.546,1.546,0,0,1-1.542,0,2.06,2.06,0,0,1-.629-.562,2.777,2.777,0,0,1-.425-.834,3.426,3.426,0,0,1,0-2.042,2.769,2.769,0,0,1,.425-.834,2.049,2.049,0,0,1,.629-.562,1.546,1.546,0,0,1,1.542,0,2.057,2.057,0,0,1,.629.563,2.814,2.814,0,0,1,.425.834A3.38,3.38,0,0,1,4624.358,5706.521Z" transform="translate(-4620.125 -5703.625)"></path><path class="b" d="M4620.65,5707.689a1.822,1.822,0,0,1-.876-.229,2.327,2.327,0,0,1-.716-.621,3.055,3.055,0,0,1-.483-.921,3.667,3.667,0,0,1,0-2.252,3.059,3.059,0,0,1,.483-.92,2.32,2.32,0,0,1,.716-.621,1.8,1.8,0,0,1,1.753,0,2.328,2.328,0,0,1,.716.621,3.069,3.069,0,0,1,.483.92,3.657,3.657,0,0,1,0,2.252,3.065,3.065,0,0,1-.483.921,2.334,2.334,0,0,1-.716.621A1.82,1.82,0,0,1,4620.65,5707.689Zm0-5.248a1.313,1.313,0,0,0-.665.186,1.812,1.812,0,0,0-.543.5,2.556,2.556,0,0,0-.366.747,3.172,3.172,0,0,0,0,1.83,2.553,2.553,0,0,0,.366.748,1.814,1.814,0,0,0,.543.5,1.286,1.286,0,0,0,1.329,0,1.8,1.8,0,0,0,.543-.5,2.541,2.541,0,0,0,.367-.748,3.183,3.183,0,0,0,0-1.83,2.545,2.545,0,0,0-.367-.747,1.8,1.8,0,0,0-.543-.5A1.31,1.31,0,0,0,4620.65,5702.441Z" transform="translate(-4618.397 -5701.896)"></path></g><g transform="translate(4498.782 5271.094)"><path class="h" d="M4549.781,5702.059a3.368,3.368,0,0,1-.156,1.021,2.791,2.791,0,0,1-.424.834,2.055,2.055,0,0,1-.629.562,1.543,1.543,0,0,1-1.542,0,2.055,2.055,0,0,1-.629-.562,2.791,2.791,0,0,1-.424-.834,3.426,3.426,0,0,1,0-2.042,2.793,2.793,0,0,1,.424-.834,2.061,2.061,0,0,1,.629-.562,1.546,1.546,0,0,1,1.542,0,2.061,2.061,0,0,1,.629.562,2.793,2.793,0,0,1,.424.834A3.365,3.365,0,0,1,4549.781,5702.059Z" transform="translate(-4545.547 -5699.163)"></path><path class="b" d="M4546.073,5703.229a1.819,1.819,0,0,1-.876-.229,2.323,2.323,0,0,1-.716-.621,3.066,3.066,0,0,1-.483-.921,3.665,3.665,0,0,1,0-2.252,3.061,3.061,0,0,1,.483-.921,2.323,2.323,0,0,1,.716-.621,1.8,1.8,0,0,1,1.752,0,2.321,2.321,0,0,1,.716.621,3.05,3.05,0,0,1,.483.921,3.665,3.665,0,0,1,0,2.252,3.055,3.055,0,0,1-.483.921,2.321,2.321,0,0,1-.716.621A1.821,1.821,0,0,1,4546.073,5703.229Zm0-5.248a1.314,1.314,0,0,0-.664.185,1.8,1.8,0,0,0-.543.5,2.541,2.541,0,0,0-.367.748,3.171,3.171,0,0,0,0,1.829,2.547,2.547,0,0,0,.367.748,1.8,1.8,0,0,0,.543.5,1.285,1.285,0,0,0,1.329,0,1.8,1.8,0,0,0,.543-.5,2.535,2.535,0,0,0,.366-.748,3.171,3.171,0,0,0,0-1.829,2.529,2.529,0,0,0-.366-.748,1.809,1.809,0,0,0-.543-.5A1.316,1.316,0,0,0,4546.073,5697.98Z" transform="translate(-4543.82 -5697.436)"></path></g><g transform="translate(4497.712 5271.094)"><path class="h" d="M4541.932,5702.059a3.368,3.368,0,0,1-.156,1.021,2.791,2.791,0,0,1-.424.834,2.06,2.06,0,0,1-.629.562,1.543,1.543,0,0,1-1.542,0,2.055,2.055,0,0,1-.629-.562,2.791,2.791,0,0,1-.424-.834,3.426,3.426,0,0,1,0-2.042,2.793,2.793,0,0,1,.424-.834,2.061,2.061,0,0,1,.629-.562,1.546,1.546,0,0,1,1.542,0,2.067,2.067,0,0,1,.629.562,2.793,2.793,0,0,1,.424.834A3.365,3.365,0,0,1,4541.932,5702.059Z" transform="translate(-4537.698 -5699.163)"></path><path class="b" d="M4538.223,5703.229a1.819,1.819,0,0,1-.876-.229,2.323,2.323,0,0,1-.716-.621,3.055,3.055,0,0,1-.483-.921,3.665,3.665,0,0,1,0-2.252,3.05,3.05,0,0,1,.483-.921,2.323,2.323,0,0,1,.716-.621,1.8,1.8,0,0,1,1.752,0,2.323,2.323,0,0,1,.716.621,3.06,3.06,0,0,1,.483.921,3.665,3.665,0,0,1,0,2.252,3.065,3.065,0,0,1-.483.921,2.323,2.323,0,0,1-.716.621A1.821,1.821,0,0,1,4538.223,5703.229Zm0-5.248a1.314,1.314,0,0,0-.664.185,1.81,1.81,0,0,0-.543.5,2.541,2.541,0,0,0-.366.748,3.171,3.171,0,0,0,0,1.829,2.547,2.547,0,0,0,.366.748,1.8,1.8,0,0,0,.543.5,1.285,1.285,0,0,0,1.329,0,1.8,1.8,0,0,0,.543-.5,2.547,2.547,0,0,0,.367-.748,3.182,3.182,0,0,0,0-1.829,2.541,2.541,0,0,0-.367-.748,1.809,1.809,0,0,0-.543-.5A1.316,1.316,0,0,0,4538.223,5697.98Z" transform="translate(-4535.97 -5697.436)"></path></g><g transform="translate(4491.682 5288.313)"><path class="a" d="M4619.31,5868.116H4500.329a6.642,6.642,0,0,1-6.647-6.647v-28.93a6.642,6.642,0,0,1,6.647-6.647H4619.31a6.642,6.642,0,0,1,6.647,6.647v28.93a6.642,6.642,0,0,1-6.647,6.647Z" transform="translate(-4493.409 -5825.619)"></path><path class="b" d="M4617.583,5866.661H4498.6a6.9,6.9,0,0,1-4.891-2.029,6.9,6.9,0,0,1-2.029-4.891v-28.93a6.889,6.889,0,0,1,.544-2.691,6.958,6.958,0,0,1,3.685-3.685,6.882,6.882,0,0,1,2.691-.544h118.981a6.921,6.921,0,0,1,6.92,6.92v28.93a6.874,6.874,0,0,1-.545,2.691,6.921,6.921,0,0,1-6.375,4.229ZM4498.6,5824.436a6.339,6.339,0,0,0-2.479.5,6.415,6.415,0,0,0-3.394,3.395,6.337,6.337,0,0,0-.5,2.479v28.93a6.335,6.335,0,0,0,.5,2.479,6.373,6.373,0,0,0,5.874,3.9h118.981a6.376,6.376,0,0,0,6.375-6.375v-28.93a6.376,6.376,0,0,0-6.375-6.375H4498.6Z" transform="translate(-4491.682 -5823.891)"></path></g><g transform="translate(4535.257 5288.313)"><path class="c" d="M4939.327,5868.116H4820.346a6.642,6.642,0,0,1-6.647-6.647v-28.93a6.642,6.642,0,0,1,6.647-6.647h118.981a6.644,6.644,0,0,1,6.648,6.647v28.93a6.643,6.643,0,0,1-6.648,6.647Z" transform="translate(-4813.426 -5825.619)"></path><path class="b" d="M4937.6,5866.661H4818.617a6.919,6.919,0,0,1-6.92-6.92v-28.93a6.919,6.919,0,0,1,6.92-6.92H4937.6a6.921,6.921,0,0,1,6.92,6.92v28.93a6.874,6.874,0,0,1-.545,2.691,6.921,6.921,0,0,1-6.375,4.229Zm-118.981-42.226a6.376,6.376,0,0,0-6.375,6.375v28.93a6.375,6.375,0,0,0,6.375,6.375H4937.6a6.374,6.374,0,0,0,6.375-6.375v-28.93a6.376,6.376,0,0,0-6.375-6.375H4818.617Z" transform="translate(-4811.697 -5823.891)"></path></g><g transform="translate(4654.246 5295.616)"><path class="d" d="M5687.559,5881.2a1.68,1.68,0,0,0,2.87,1.188,1.7,1.7,0,0,0,.36-.534,1.682,1.682,0,1,0-3.23-.654Z" transform="translate(-5687.287 -5879.25)"></path><path class="b" d="M5687.512,5881.428a1.931,1.931,0,0,1-.76-.154,1.949,1.949,0,1,1,1.52,0A1.934,1.934,0,0,1,5687.512,5881.428Zm0-3.362a1.394,1.394,0,0,0-.548.111,1.414,1.414,0,0,0-.75.75,1.408,1.408,0,0,0,2.293,1.543,1.4,1.4,0,0,0,.413-1,1.4,1.4,0,0,0-.111-.548,1.414,1.414,0,0,0-.75-.75A1.4,1.4,0,0,0,5687.512,5878.065Z" transform="translate(-5685.559 -5877.521)"></path></g><g transform="translate(4649.07 5295.616)"><path class="e" d="M5649.547,5881.2a1.676,1.676,0,1,0,.132-.655A1.678,1.678,0,0,0,5649.547,5881.2Z" transform="translate(-5649.274 -5879.25)"></path><path class="f" d="M5649.5,5881.428a1.952,1.952,0,0,1-1.381-.573,1.954,1.954,0,0,1,.621-3.18,1.948,1.948,0,0,1,2.14.419,1.959,1.959,0,0,1,.419.621,1.954,1.954,0,0,1-1.8,2.713Zm0-3.362a1.394,1.394,0,0,0-.548.111,1.409,1.409,0,0,0-.75.75,1.4,1.4,0,0,0,0,1.1,1.415,1.415,0,0,0,.75.75,1.407,1.407,0,0,0,1.543-.3,1.4,1.4,0,0,0,.413-1,1.4,1.4,0,0,0-.111-.548,1.409,1.409,0,0,0-.75-.75A1.391,1.391,0,0,0,5649.5,5878.065Z" transform="translate(-5647.547 -5877.521)"></path></g><g transform="translate(4643.894 5295.616)"><path class="g" d="M5611.535,5881.2a1.671,1.671,0,1,0,.132-.655A1.678,1.678,0,0,0,5611.535,5881.2Z" transform="translate(-5611.263 -5879.25)"></path><path class="b" d="M5611.488,5881.428a1.93,1.93,0,0,1-.759-.154,1.947,1.947,0,1,1,.759.154Zm0-3.362a1.407,1.407,0,0,0-1,.413,1.4,1.4,0,0,0,0,1.991,1.405,1.405,0,0,0,1.991,0,1.4,1.4,0,0,0,.413-1,1.4,1.4,0,0,0-.111-.548,1.421,1.421,0,0,0-.3-.448,1.409,1.409,0,0,0-1-.413Z" transform="translate(-5609.535 -5877.521)"></path></g><g transform="translate(4548.916 5318.356)"><path class="h" d="M4987.778,6049.442H4915.47a1.456,1.456,0,0,1-1.031-.427,1.453,1.453,0,0,1-.427-1.031h0a1.455,1.455,0,0,1,1.458-1.458h72.309a1.134,1.134,0,0,1,.5.114,1.273,1.273,0,0,1,.406.313,1.493,1.493,0,0,1,.273.463,1.65,1.65,0,0,1,.1.567h0a1.647,1.647,0,0,1-.1.567,1.5,1.5,0,0,1-.273.464,1.27,1.27,0,0,1-.406.312A1.128,1.128,0,0,1,4987.778,6049.442Z" transform="translate(-4913.74 -6046.254)"></path><path class="b" d="M4986.051,6047.987h-72.309a1.718,1.718,0,0,1-.673-.136,1.741,1.741,0,0,1-.921-.921,1.73,1.73,0,0,1,1.594-2.4h72.309a1.393,1.393,0,0,1,.6.136,1.542,1.542,0,0,1,.492.371,1.739,1.739,0,0,1,.332.55,1.915,1.915,0,0,1,0,1.346,1.744,1.744,0,0,1-.332.55,1.556,1.556,0,0,1-.492.371A1.393,1.393,0,0,1,4986.051,6047.987Zm-72.309-2.916a1.171,1.171,0,0,0-.461.094,1.186,1.186,0,0,0,.461,2.277h72.309a.866.866,0,0,0,.39-.094,1.019,1.019,0,0,0,.319-.254,1.234,1.234,0,0,0,.215-.377,1.383,1.383,0,0,0,0-.922,1.234,1.234,0,0,0-.215-.377,1.012,1.012,0,0,0-.319-.254.859.859,0,0,0-.39-.094h-72.309Z" transform="translate(-4912.012 -6044.527)"></path></g><g transform="translate(4548.916 5312.5)"><path class="h" d="M4987.778,6006.442H4915.47a1.456,1.456,0,0,1-1.458-1.458h0a1.457,1.457,0,0,1,1.458-1.458h72.309a1.134,1.134,0,0,1,.5.115,1.28,1.28,0,0,1,.406.313,1.5,1.5,0,0,1,.273.463,1.645,1.645,0,0,1,.1.567h0a1.643,1.643,0,0,1-.1.567,1.5,1.5,0,0,1-.273.464,1.28,1.28,0,0,1-.406.313A1.14,1.14,0,0,1,4987.778,6006.442Z" transform="translate(-4913.74 -6003.254)"></path><path class="b" d="M4986.051,6004.987h-72.309a1.73,1.73,0,0,1,0-3.46h72.309a1.4,1.4,0,0,1,.6.136,1.556,1.556,0,0,1,.492.371,1.747,1.747,0,0,1,.332.55,1.914,1.914,0,0,1,0,1.345,1.739,1.739,0,0,1-.332.55,1.543,1.543,0,0,1-.492.372A1.4,1.4,0,0,1,4986.051,6004.987Zm-72.309-2.916a1.18,1.18,0,0,0-.461.094,1.19,1.19,0,0,0-.631.631,1.186,1.186,0,0,0,1.092,1.646h72.309a.865.865,0,0,0,.39-.093,1.013,1.013,0,0,0,.319-.254,1.226,1.226,0,0,0,.215-.376,1.384,1.384,0,0,0,0-.922,1.234,1.234,0,0,0-.215-.377,1.019,1.019,0,0,0-.319-.254.866.866,0,0,0-.39-.094h-72.309Z" transform="translate(-4912.012 -6001.527)"></path></g><g transform="translate(4548.916 5306.646)"><path class="h" d="M4987.778,5963.442H4915.47a1.456,1.456,0,0,1-1.031-.427,1.453,1.453,0,0,1-.427-1.031h0a1.455,1.455,0,0,1,1.458-1.458h72.309a1.134,1.134,0,0,1,.5.114,1.273,1.273,0,0,1,.406.313,1.493,1.493,0,0,1,.273.463,1.647,1.647,0,0,1,.1.567h0a1.647,1.647,0,0,1-.1.567,1.5,1.5,0,0,1-.273.464,1.279,1.279,0,0,1-.406.312A1.134,1.134,0,0,1,4987.778,5963.442Z" transform="translate(-4913.74 -5960.254)"></path><path class="b" d="M4986.051,5961.987h-72.309a1.718,1.718,0,0,1-.673-.136,1.741,1.741,0,0,1-.921-.921,1.726,1.726,0,0,1,.371-1.9,1.74,1.74,0,0,1,.55-.371,1.718,1.718,0,0,1,.673-.136h72.309a1.393,1.393,0,0,1,.6.136,1.542,1.542,0,0,1,.492.371,1.739,1.739,0,0,1,.332.55,1.915,1.915,0,0,1,0,1.346,1.744,1.744,0,0,1-.332.55,1.556,1.556,0,0,1-.492.371A1.393,1.393,0,0,1,4986.051,5961.987Zm-72.309-2.916a1.171,1.171,0,0,0-.461.094,1.184,1.184,0,0,0-.725,1.092,1.178,1.178,0,0,0,.093.461,1.19,1.19,0,0,0,.631.631,1.18,1.18,0,0,0,.461.094h72.309a.866.866,0,0,0,.39-.094,1.019,1.019,0,0,0,.319-.254,1.234,1.234,0,0,0,.215-.377,1.383,1.383,0,0,0,0-.922,1.234,1.234,0,0,0-.215-.377,1.012,1.012,0,0,0-.319-.254.859.859,0,0,0-.39-.094h-72.309Z" transform="translate(-4912.012 -5958.527)"></path></g><g transform="translate(4548.916 5300.791)"><path class="h" d="M4987.778,5920.442H4915.47a1.456,1.456,0,0,1-1.458-1.458h0a1.457,1.457,0,0,1,1.458-1.458h72.309a1.134,1.134,0,0,1,.5.115,1.28,1.28,0,0,1,.406.313,1.5,1.5,0,0,1,.273.463,1.645,1.645,0,0,1,.1.567h0a1.643,1.643,0,0,1-.1.567,1.5,1.5,0,0,1-.273.464,1.28,1.28,0,0,1-.406.313A1.14,1.14,0,0,1,4987.778,5920.442Z" transform="translate(-4913.74 -5917.254)"></path><path class="b" d="M4986.051,5918.987h-72.309a1.73,1.73,0,0,1,0-3.46h72.309a1.4,1.4,0,0,1,.6.136,1.556,1.556,0,0,1,.492.371,1.747,1.747,0,0,1,.332.55,1.914,1.914,0,0,1,0,1.345,1.739,1.739,0,0,1-.332.55,1.543,1.543,0,0,1-.492.372A1.4,1.4,0,0,1,4986.051,5918.987Zm-72.309-2.916a1.18,1.18,0,0,0-.461.094,1.19,1.19,0,0,0-.631.631,1.186,1.186,0,0,0,1.092,1.646h72.309a.865.865,0,0,0,.39-.093,1.013,1.013,0,0,0,.319-.254,1.226,1.226,0,0,0,.215-.376,1.384,1.384,0,0,0,0-.922,1.234,1.234,0,0,0-.215-.377,1.019,1.019,0,0,0-.319-.254.866.866,0,0,0-.39-.094h-72.309Z" transform="translate(-4912.012 -5915.527)"></path></g><g transform="translate(4548.916 5294.936)"><path class="h" d="M4987.778,5877.442H4915.47a1.456,1.456,0,0,1-1.031-.427,1.453,1.453,0,0,1-.427-1.031h0a1.455,1.455,0,0,1,1.458-1.458h72.309a1.134,1.134,0,0,1,.5.114,1.273,1.273,0,0,1,.406.313,1.5,1.5,0,0,1,.273.463,1.647,1.647,0,0,1,.1.567h0a1.647,1.647,0,0,1-.1.567,1.5,1.5,0,0,1-.273.464,1.279,1.279,0,0,1-.406.312A1.134,1.134,0,0,1,4987.778,5877.442Z" transform="translate(-4913.74 -5874.254)"></path><path class="b" d="M4986.051,5875.987h-72.309a1.718,1.718,0,0,1-.673-.136,1.741,1.741,0,0,1-.921-.921,1.726,1.726,0,0,1,.371-1.9,1.74,1.74,0,0,1,.55-.371,1.718,1.718,0,0,1,.673-.136h72.309a1.393,1.393,0,0,1,.6.136,1.542,1.542,0,0,1,.492.371,1.739,1.739,0,0,1,.332.55,1.915,1.915,0,0,1,0,1.346,1.739,1.739,0,0,1-.332.55,1.556,1.556,0,0,1-.492.371A1.393,1.393,0,0,1,4986.051,5875.987Zm-72.309-2.916a1.171,1.171,0,0,0-.461.094,1.19,1.19,0,0,0-.631.631,1.186,1.186,0,0,0,0,.922,1.19,1.19,0,0,0,.631.631,1.18,1.18,0,0,0,.461.094h72.309a.866.866,0,0,0,.39-.094,1.012,1.012,0,0,0,.319-.254,1.234,1.234,0,0,0,.215-.377,1.383,1.383,0,0,0,0-.922,1.234,1.234,0,0,0-.215-.377,1.019,1.019,0,0,0-.319-.254.859.859,0,0,0-.39-.094h-72.309Z" transform="translate(-4912.012 -5872.527)"></path></g><g transform="translate(4523.061 5313.913)"><path class="h" d="M4728.093,6016.521a3.363,3.363,0,0,1-.156,1.021,2.785,2.785,0,0,1-.424.834,2.063,2.063,0,0,1-.629.563,1.546,1.546,0,0,1-1.542,0,2.063,2.063,0,0,1-.629-.562,2.785,2.785,0,0,1-.424-.834,3.426,3.426,0,0,1,0-2.042,2.793,2.793,0,0,1,.424-.834,2.059,2.059,0,0,1,.629-.562,1.54,1.54,0,0,1,1.542,0,2.059,2.059,0,0,1,.629.562,2.793,2.793,0,0,1,.424.834A3.365,3.365,0,0,1,4728.093,6016.521Z" transform="translate(-4723.859 -6013.624)"></path><path class="b" d="M4724.385,6017.689a1.825,1.825,0,0,1-.876-.228,2.333,2.333,0,0,1-.716-.622,3.064,3.064,0,0,1-.483-.92,3.667,3.667,0,0,1,0-2.252,3.066,3.066,0,0,1,.483-.921,2.317,2.317,0,0,1,.716-.621,1.794,1.794,0,0,1,1.752,0,2.309,2.309,0,0,1,.716.621,3.055,3.055,0,0,1,.483.921,3.657,3.657,0,0,1,0,2.252,3.053,3.053,0,0,1-.483.92,2.326,2.326,0,0,1-.716.622A1.826,1.826,0,0,1,4724.385,6017.689Zm0-5.248a1.31,1.31,0,0,0-.664.186,1.814,1.814,0,0,0-.543.5,2.562,2.562,0,0,0-.366.748,3.169,3.169,0,0,0,0,1.829,2.553,2.553,0,0,0,.366.748,1.812,1.812,0,0,0,.543.5,1.288,1.288,0,0,0,1.329,0,1.8,1.8,0,0,0,.543-.5,2.541,2.541,0,0,0,.366-.748,3.169,3.169,0,0,0,0-1.829,2.549,2.549,0,0,0-.366-.748,1.807,1.807,0,0,0-.543-.5A1.312,1.312,0,0,0,4724.385,6012.441Z" transform="translate(-4722.132 -6011.896)"></path></g><g transform="translate(4521.992 5313.913)"><path class="h" d="M4720.244,6016.521a3.363,3.363,0,0,1-.156,1.021,2.785,2.785,0,0,1-.424.834,2.064,2.064,0,0,1-.63.563,1.545,1.545,0,0,1-1.542,0,2.063,2.063,0,0,1-.629-.562,2.785,2.785,0,0,1-.424-.834,3.426,3.426,0,0,1,0-2.042,2.793,2.793,0,0,1,.424-.834,2.059,2.059,0,0,1,.629-.562,1.539,1.539,0,0,1,1.542,0,2.061,2.061,0,0,1,.63.562,2.793,2.793,0,0,1,.424.834A3.365,3.365,0,0,1,4720.244,6016.521Z" transform="translate(-4716.01 -6013.624)"></path><path class="b" d="M4716.534,6017.689a1.825,1.825,0,0,1-.876-.228,2.339,2.339,0,0,1-.716-.622,3.052,3.052,0,0,1-.483-.92,3.657,3.657,0,0,1,0-2.252,3.054,3.054,0,0,1,.483-.921,2.322,2.322,0,0,1,.716-.621,1.794,1.794,0,0,1,1.752,0,2.317,2.317,0,0,1,.716.621,3.066,3.066,0,0,1,.483.921,3.667,3.667,0,0,1,0,2.252,3.064,3.064,0,0,1-.483.92,2.333,2.333,0,0,1-.716.622A1.826,1.826,0,0,1,4716.534,6017.689Zm0-5.248a1.311,1.311,0,0,0-.664.186,1.814,1.814,0,0,0-.543.5,2.549,2.549,0,0,0-.366.748,3.169,3.169,0,0,0,0,1.829,2.54,2.54,0,0,0,.366.748,1.812,1.812,0,0,0,.543.5,1.288,1.288,0,0,0,1.329,0,1.806,1.806,0,0,0,.543-.5,2.541,2.541,0,0,0,.366-.748,3.18,3.18,0,0,0,0-1.829,2.549,2.549,0,0,0-.366-.748,1.808,1.808,0,0,0-.543-.5A1.31,1.31,0,0,0,4716.534,6012.441Z" transform="translate(-4714.281 -6011.896)"></path></g><g transform="translate(4510.005 5313.913)"><path class="h" d="M4632.208,6016.521a3.363,3.363,0,0,1-.156,1.021,2.785,2.785,0,0,1-.424.834,2.068,2.068,0,0,1-.629.563,1.546,1.546,0,0,1-1.542,0,2.063,2.063,0,0,1-.629-.562,2.785,2.785,0,0,1-.424-.834,3.426,3.426,0,0,1,0-2.042,2.793,2.793,0,0,1,.424-.834,2.059,2.059,0,0,1,.629-.562,1.54,1.54,0,0,1,1.542,0,2.065,2.065,0,0,1,.629.562,2.793,2.793,0,0,1,.424.834A3.365,3.365,0,0,1,4632.208,6016.521Z" transform="translate(-4627.975 -6013.624)"></path><path class="b" d="M4628.5,6017.689a1.822,1.822,0,0,1-.876-.228,2.327,2.327,0,0,1-.716-.622,3.053,3.053,0,0,1-.483-.92,3.667,3.667,0,0,1,0-2.252,3.055,3.055,0,0,1,.483-.921,2.311,2.311,0,0,1,.716-.621,1.794,1.794,0,0,1,1.752,0,2.317,2.317,0,0,1,.716.621,3.054,3.054,0,0,1,.483.921,3.657,3.657,0,0,1,0,2.252,3.052,3.052,0,0,1-.483.92,2.333,2.333,0,0,1-.716.622A1.826,1.826,0,0,1,4628.5,6017.689Zm0-5.248a1.31,1.31,0,0,0-.664.186,1.808,1.808,0,0,0-.543.5,2.549,2.549,0,0,0-.366.748,3.169,3.169,0,0,0,0,1.829,2.541,2.541,0,0,0,.366.748,1.806,1.806,0,0,0,.543.5,1.287,1.287,0,0,0,1.328,0,1.806,1.806,0,0,0,.543-.5,2.554,2.554,0,0,0,.367-.748,3.18,3.18,0,0,0,0-1.829,2.562,2.562,0,0,0-.367-.748,1.808,1.808,0,0,0-.543-.5A1.308,1.308,0,0,0,4628.5,6012.441Z" transform="translate(-4626.247 -6011.896)"></path></g><g transform="translate(4508.936 5313.913)"><path class="h" d="M4624.358,6016.521a3.378,3.378,0,0,1-.155,1.021,2.808,2.808,0,0,1-.425.834,2.063,2.063,0,0,1-.629.563,1.546,1.546,0,0,1-1.542,0,2.056,2.056,0,0,1-.629-.562,2.763,2.763,0,0,1-.425-.834,3.426,3.426,0,0,1,0-2.042,2.772,2.772,0,0,1,.425-.834,2.052,2.052,0,0,1,.629-.562,1.54,1.54,0,0,1,1.542,0,2.059,2.059,0,0,1,.629.562,2.817,2.817,0,0,1,.425.834A3.38,3.38,0,0,1,4624.358,6016.521Z" transform="translate(-4620.125 -6013.624)"></path><path class="b" d="M4620.65,6017.689a1.827,1.827,0,0,1-.876-.228,2.337,2.337,0,0,1-.716-.622,3.053,3.053,0,0,1-.483-.92,3.667,3.667,0,0,1,0-2.252,3.055,3.055,0,0,1,.483-.921,2.32,2.32,0,0,1,.716-.621,1.8,1.8,0,0,1,1.753,0,2.328,2.328,0,0,1,.716.621,3.065,3.065,0,0,1,.483.921,3.657,3.657,0,0,1,0,2.252,3.063,3.063,0,0,1-.483.92,2.344,2.344,0,0,1-.716.622A1.824,1.824,0,0,1,4620.65,6017.689Zm0-5.248a1.313,1.313,0,0,0-.665.186,1.818,1.818,0,0,0-.543.5,2.562,2.562,0,0,0-.366.748,3.169,3.169,0,0,0,0,1.829,2.553,2.553,0,0,0,.366.748,1.816,1.816,0,0,0,.543.5,1.289,1.289,0,0,0,1.329,0,1.8,1.8,0,0,0,.543-.5,2.541,2.541,0,0,0,.367-.748,3.18,3.18,0,0,0,0-1.829,2.55,2.55,0,0,0-.367-.748,1.807,1.807,0,0,0-.543-.5A1.31,1.31,0,0,0,4620.65,6012.441Z" transform="translate(-4618.397 -6011.896)"></path></g><g transform="translate(4498.782 5313.305)"><path class="h" d="M4549.781,6012.059a3.362,3.362,0,0,1-.156,1.021,2.787,2.787,0,0,1-.424.834,2.061,2.061,0,0,1-.629.562,1.543,1.543,0,0,1-1.542,0,2.061,2.061,0,0,1-.629-.562,2.787,2.787,0,0,1-.424-.834,3.424,3.424,0,0,1,0-2.042,2.787,2.787,0,0,1,.424-.834,2.055,2.055,0,0,1,.629-.562,1.543,1.543,0,0,1,1.542,0,2.055,2.055,0,0,1,.629.562,2.787,2.787,0,0,1,.424.834A3.362,3.362,0,0,1,4549.781,6012.059Z" transform="translate(-4545.547 -6009.163)"></path><path class="b" d="M4546.073,6013.228a1.824,1.824,0,0,1-.876-.228,2.329,2.329,0,0,1-.716-.621,3.078,3.078,0,0,1-.483-.921,3.667,3.667,0,0,1,0-2.252,3.072,3.072,0,0,1,.483-.921,2.323,2.323,0,0,1,.716-.621,1.8,1.8,0,0,1,1.752,0,2.321,2.321,0,0,1,.716.621,3.061,3.061,0,0,1,.483.921,3.667,3.667,0,0,1,0,2.252,3.067,3.067,0,0,1-.483.921,2.328,2.328,0,0,1-.716.621A1.826,1.826,0,0,1,4546.073,6013.228Zm0-5.248a1.309,1.309,0,0,0-.664.185,1.8,1.8,0,0,0-.543.5,2.547,2.547,0,0,0-.367.748,3.171,3.171,0,0,0,0,1.829,2.536,2.536,0,0,0,.367.748,1.8,1.8,0,0,0,.543.5,1.282,1.282,0,0,0,1.329,0,1.8,1.8,0,0,0,.543-.5,2.523,2.523,0,0,0,.366-.748,3.171,3.171,0,0,0,0-1.829,2.535,2.535,0,0,0-.366-.748,1.809,1.809,0,0,0-.543-.5A1.311,1.311,0,0,0,4546.073,6007.98Z" transform="translate(-4543.82 -6007.436)"></path></g><g transform="translate(4497.712 5313.305)"><path class="h" d="M4541.932,6012.059a3.362,3.362,0,0,1-.156,1.021,2.787,2.787,0,0,1-.424.834,2.067,2.067,0,0,1-.629.562,1.543,1.543,0,0,1-1.542,0,2.061,2.061,0,0,1-.629-.562,2.787,2.787,0,0,1-.424-.834,3.424,3.424,0,0,1,0-2.042,2.787,2.787,0,0,1,.424-.834,2.055,2.055,0,0,1,.629-.562,1.543,1.543,0,0,1,1.542,0,2.06,2.06,0,0,1,.629.562,2.787,2.787,0,0,1,.424.834A3.362,3.362,0,0,1,4541.932,6012.059Z" transform="translate(-4537.698 -6009.163)"></path><path class="b" d="M4538.223,6013.228a1.824,1.824,0,0,1-.876-.228,2.329,2.329,0,0,1-.716-.621,3.067,3.067,0,0,1-.483-.921,3.667,3.667,0,0,1,0-2.252,3.061,3.061,0,0,1,.483-.921,2.323,2.323,0,0,1,.716-.621,1.8,1.8,0,0,1,1.752,0,2.323,2.323,0,0,1,.716.621,3.071,3.071,0,0,1,.483.921,3.667,3.667,0,0,1,0,2.252,3.077,3.077,0,0,1-.483.921,2.329,2.329,0,0,1-.716.621A1.826,1.826,0,0,1,4538.223,6013.228Zm0-5.248a1.309,1.309,0,0,0-.664.185,1.81,1.81,0,0,0-.543.5,2.547,2.547,0,0,0-.366.748,3.171,3.171,0,0,0,0,1.829,2.535,2.535,0,0,0,.366.748,1.8,1.8,0,0,0,.543.5,1.282,1.282,0,0,0,1.329,0,1.8,1.8,0,0,0,.543-.5,2.536,2.536,0,0,0,.367-.748,3.182,3.182,0,0,0,0-1.829,2.547,2.547,0,0,0-.367-.748,1.809,1.809,0,0,0-.543-.5A1.311,1.311,0,0,0,4538.223,6007.98Z" transform="translate(-4535.97 -6007.436)"></path></g></g></svg>