<svg xmlns="http://www.w3.org/2000/svg" width="120.314" height="86.769" viewBox="0 0 120.314 86.769"><defs><style>.a{fill:#455666;}.b{fill:#24313e;}.c{fill:#6b7e8f;}.d{fill:#ff4451;}.e{fill:#f4e969;}.f{fill:#28c397;}.g{fill:#3ab2d0;}.h{fill:#d9dee5;}</style></defs><g transform="translate(-5292.932 32.717)"><g transform="translate(5292.932 -32.717)"><path class="a" d="M5377.653-2.43H5301.39a6.936,6.936,0,0,1-4.92-2.038,6.936,6.936,0,0,1-2.038-4.92V-24.259a6.936,6.936,0,0,1,2.038-4.92,6.935,6.935,0,0,1,4.92-2.038h76.263a6.936,6.936,0,0,1,4.92,2.038,6.936,6.936,0,0,1,2.038,4.92V-9.388a6.936,6.936,0,0,1-2.038,4.92A6.937,6.937,0,0,1,5377.653-2.43Z" transform="translate(-5294.218 31.431)"></path><path class="b" d="M5376.368-3.5H5300.1a7.151,7.151,0,0,1-5.069-2.1,7.151,7.151,0,0,1-2.1-5.069V-25.545a7.151,7.151,0,0,1,2.1-5.069,7.15,7.15,0,0,1,5.069-2.1h76.264a7.15,7.15,0,0,1,5.069,2.1,7.15,7.15,0,0,1,2.1,5.069v14.872a7.15,7.15,0,0,1-2.1,5.069A7.151,7.151,0,0,1,5376.368-3.5ZM5300.1-32.289a6.723,6.723,0,0,0-4.767,1.977,6.723,6.723,0,0,0-1.978,4.767v14.872a6.723,6.723,0,0,0,1.978,4.766A6.723,6.723,0,0,0,5300.1-3.93h76.264a6.723,6.723,0,0,0,4.767-1.978,6.723,6.723,0,0,0,1.978-4.766V-25.545a6.723,6.723,0,0,0-1.978-4.767,6.723,6.723,0,0,0-4.767-1.977H5300.1Z" transform="translate(-5292.932 32.717)"></path></g><g transform="translate(5322.639 -32.717)"><path class="c" d="M5586.1-2.43h-76.264a6.935,6.935,0,0,1-4.92-2.038,6.938,6.938,0,0,1-2.038-4.92V-24.259a6.938,6.938,0,0,1,2.038-4.92,6.934,6.934,0,0,1,4.92-2.038H5586.1a6.936,6.936,0,0,1,4.92,2.038,6.937,6.937,0,0,1,2.038,4.92V-9.388a6.937,6.937,0,0,1-2.038,4.92A6.937,6.937,0,0,1,5586.1-2.43Z" transform="translate(-5502.66 31.431)"></path><path class="b" d="M5584.81-3.5h-76.264a7.147,7.147,0,0,1-5.068-2.1,7.149,7.149,0,0,1-2.1-5.069V-25.545a7.149,7.149,0,0,1,2.1-5.069,7.146,7.146,0,0,1,5.068-2.1h76.264a7.15,7.15,0,0,1,5.069,2.1,7.15,7.15,0,0,1,2.1,5.069v14.872a7.15,7.15,0,0,1-2.1,5.069A7.151,7.151,0,0,1,5584.81-3.5Zm-76.264-28.787a6.723,6.723,0,0,0-4.767,1.977,6.725,6.725,0,0,0-1.978,4.767v14.872a6.725,6.725,0,0,0,1.978,4.766,6.723,6.723,0,0,0,4.767,1.978h76.264a6.724,6.724,0,0,0,4.767-1.978,6.725,6.725,0,0,0,1.978-4.766V-25.545a6.725,6.725,0,0,0-1.978-4.767,6.724,6.724,0,0,0-4.767-1.977h-76.264Z" transform="translate(-5501.374 32.717)"></path></g><g transform="translate(5403.76 -27.738)"><path class="d" d="M6072.061,4.861a1.145,1.145,0,1,0,.335-.81A1.143,1.143,0,0,0,6072.061,4.861Z" transform="translate(-6071.847 -3.501)"></path><path class="b" d="M6071.92,4.935a1.361,1.361,0,1,1,.961-.4A1.355,1.355,0,0,1,6071.92,4.935Zm0-2.292a.934.934,0,1,0,.659.273A.931.931,0,0,0,6071.92,2.643Z" transform="translate(-6070.56 -2.215)"></path></g><g transform="translate(5400.231 -27.738)"><path class="e" d="M6047.3,4.861a1.146,1.146,0,1,0,.336-.81A1.142,1.142,0,0,0,6047.3,4.861Z" transform="translate(-6047.087 -3.501)"></path><path class="b" d="M6047.161,4.935a1.361,1.361,0,1,1,.961-.4A1.356,1.356,0,0,1,6047.161,4.935Zm0-2.292a.934.934,0,1,0,.658.273A.93.93,0,0,0,6047.161,2.643Z" transform="translate(-6045.801 -2.215)"></path></g><g transform="translate(5396.703 -27.738)"><path class="f" d="M6022.542,4.861a1.146,1.146,0,1,0,.336-.81A1.14,1.14,0,0,0,6022.542,4.861Z" transform="translate(-6022.328 -3.501)"></path><path class="b" d="M6022.4,4.935a1.362,1.362,0,1,1,.961-.4A1.358,1.358,0,0,1,6022.4,4.935Zm0-2.292a.933.933,0,1,0,.659.273A.929.929,0,0,0,6022.4,2.643Z" transform="translate(-6021.042 -2.215)"></path></g><g transform="translate(5331.951 -12.235)"><path class="g" d="M5618.5,114.482h-49.3a.994.994,0,0,1-.994-.994h0a.994.994,0,0,1,.994-.994h49.3a.816.816,0,0,1,.615.291,1.067,1.067,0,0,1,.255.7h0a1.067,1.067,0,0,1-.255.7A.816.816,0,0,1,5618.5,114.482Z" transform="translate(-5567.999 -112.28)"></path><path class="b" d="M5617.217,113.409h-49.3a1.208,1.208,0,0,1,0-2.415h49.3a1.027,1.027,0,0,1,.766.354,1.3,1.3,0,0,1,0,1.707A1.027,1.027,0,0,1,5617.217,113.409Zm-49.3-1.988a.78.78,0,0,0,0,1.56h49.3a.608.608,0,0,0,.464-.229.886.886,0,0,0,0-1.1.608.608,0,0,0-.464-.229h-49.3Z" transform="translate(-5566.713 -110.994)"></path></g><g transform="translate(5331.909 -26.73)"><path class="h" d="M5568.687,20.3a.149.149,0,0,1-.046-.007.22.22,0,0,1-.048-.022l-.044-.027-.037-.022-.955-.66-.955-.66a.66.66,0,0,1-.088-.071.356.356,0,0,1-.058-.071.29.29,0,0,1-.032-.075.314.314,0,0,1-.011-.081v-.078a.338.338,0,0,1,.011-.085.263.263,0,0,1,.032-.074.358.358,0,0,1,.058-.069.708.708,0,0,1,.088-.07l.955-.66.955-.66.037-.022.044-.027a.22.22,0,0,1,.048-.022.154.154,0,0,1,.046-.007.149.149,0,0,1,.049.008.146.146,0,0,1,.042.024.105.105,0,0,1,.029.04.154.154,0,0,1,.009.057v.11a.2.2,0,0,1-.007.059.166.166,0,0,1-.021.048.27.27,0,0,1-.042.044.6.6,0,0,1-.065.049l-.936.647-.936.647.936.647.936.647a.614.614,0,0,1,.065.049.27.27,0,0,1,.042.044.167.167,0,0,1,.021.048.2.2,0,0,1,.007.059v.11a.155.155,0,0,1-.009.057.108.108,0,0,1-.029.04.137.137,0,0,1-.091.032Z" transform="translate(-5566.414 -15.758)"></path><path class="h" d="M5587.847,14.925a.119.119,0,0,1-.049-.01.129.129,0,0,1-.042-.029.137.137,0,0,1-.029-.042.125.125,0,0,1-.01-.049.165.165,0,0,1,0-.036.221.221,0,0,1,.015-.042l1.113-2.664,1.114-2.664a.222.222,0,0,1,.018-.028l.028-.033a.1.1,0,0,1,.04-.027.165.165,0,0,1,.057-.009h.11a.123.123,0,0,1,.048.01.14.14,0,0,1,.042.029.135.135,0,0,1,.029.042.125.125,0,0,1,.01.049.134.134,0,0,1-.005.032c0,.013-.008.028-.014.045l-1.114,2.664-1.114,2.664a.089.089,0,0,1-.014.028.234.234,0,0,1-.028.033.114.114,0,0,1-.043.027.171.171,0,0,1-.058.009h-.109Z" transform="translate(-5584.681 -9.293)"></path><path class="h" d="M5610.694,20.3a.138.138,0,0,1-.048-.008.142.142,0,0,1-.042-.024.1.1,0,0,1-.029-.04.145.145,0,0,1-.01-.057v-.11a.224.224,0,0,1,.007-.059.157.157,0,0,1,.022-.048.246.246,0,0,1,.041-.044.614.614,0,0,1,.065-.049l.936-.647.936-.647-.936-.647-.936-.647a.6.6,0,0,1-.065-.049.246.246,0,0,1-.041-.044.156.156,0,0,1-.022-.048.224.224,0,0,1-.007-.059v-.11a.145.145,0,0,1,.01-.057.1.1,0,0,1,.029-.04.139.139,0,0,1,.091-.032.157.157,0,0,1,.046.007.251.251,0,0,1,.051.022l.045.027.033.022.955.66.955.66a.708.708,0,0,1,.088.07.341.341,0,0,1,.058.069.261.261,0,0,1,.031.074.317.317,0,0,1,.011.085v.078a.294.294,0,0,1-.011.081.289.289,0,0,1-.031.075.339.339,0,0,1-.058.071.66.66,0,0,1-.088.071l-.955.66-.955.66-.033.022-.045.027a.251.251,0,0,1-.051.022A.153.153,0,0,1,5610.694,20.3Z" transform="translate(-5604.272 -15.758)"></path></g><g transform="translate(5314.325 -15.264)"><path class="g" d="M5447.236,93.029a2.107,2.107,0,0,1-.4,1.265,1.132,1.132,0,0,1-1.909,0,2.218,2.218,0,0,1,0-2.53,1.131,1.131,0,0,1,1.909,0A2.108,2.108,0,0,1,5447.236,93.029Z" transform="translate(-5444.321 -91.026)"></path><path class="b" d="M5444.6,93.745a1.412,1.412,0,0,1-1.105-.587,2.412,2.412,0,0,1,0-2.831,1.334,1.334,0,0,1,2.211,0,2.414,2.414,0,0,1,0,2.831A1.413,1.413,0,0,1,5444.6,93.745Zm0-3.578a1.007,1.007,0,0,0-.8.462,2.027,2.027,0,0,0,0,2.226.93.93,0,0,0,1.607,0,2.027,2.027,0,0,0,0-2.226A1.007,1.007,0,0,0,5444.6,90.168Z" transform="translate(-5443.035 -89.74)"></path></g><g transform="translate(5313.596 -15.264)"><path class="g" d="M5442.123,93.029a2.11,2.11,0,0,1-.4,1.265,1.132,1.132,0,0,1-1.91,0,2.218,2.218,0,0,1,0-2.53,1.132,1.132,0,0,1,1.91,0A2.111,2.111,0,0,1,5442.123,93.029Z" transform="translate(-5439.208 -91.026)"></path><path class="b" d="M5439.486,93.745a1.412,1.412,0,0,1-1.105-.587,2.412,2.412,0,0,1,0-2.831,1.334,1.334,0,0,1,2.211,0,2.414,2.414,0,0,1,0,2.831A1.414,1.414,0,0,1,5439.486,93.745Zm0-3.578a1.007,1.007,0,0,0-.8.462,2.027,2.027,0,0,0,0,2.226.93.93,0,0,0,1.607,0,2.027,2.027,0,0,0,0-2.226A1.007,1.007,0,0,0,5439.486,90.168Z" transform="translate(-5437.922 -89.74)"></path></g><g transform="translate(5305.424 -15.264)"><path class="g" d="M5384.782,93.029a2.11,2.11,0,0,1-.4,1.265,1.132,1.132,0,0,1-1.91,0,2.22,2.22,0,0,1,0-2.53,1.132,1.132,0,0,1,1.91,0A2.111,2.111,0,0,1,5384.782,93.029Z" transform="translate(-5381.867 -91.026)"></path><path class="b" d="M5382.146,93.745a1.415,1.415,0,0,1-1.106-.587,2.414,2.414,0,0,1,0-2.831,1.334,1.334,0,0,1,2.211,0,2.414,2.414,0,0,1,0,2.831A1.413,1.413,0,0,1,5382.146,93.745Zm0-3.578a1.007,1.007,0,0,0-.8.462,2.027,2.027,0,0,0,0,2.226.93.93,0,0,0,1.607,0,2.027,2.027,0,0,0,0-2.226A1.007,1.007,0,0,0,5382.146,90.168Z" transform="translate(-5380.581 -89.74)"></path></g><g transform="translate(5304.695 -15.264)"><path class="g" d="M5379.668,93.029a2.11,2.11,0,0,1-.4,1.265,1.132,1.132,0,0,1-1.91,0,2.22,2.22,0,0,1,0-2.53,1.132,1.132,0,0,1,1.91,0A2.111,2.111,0,0,1,5379.668,93.029Z" transform="translate(-5376.754 -91.026)"></path><path class="b" d="M5377.032,93.745a1.413,1.413,0,0,1-1.105-.587,2.412,2.412,0,0,1,0-2.831,1.334,1.334,0,0,1,2.211,0,2.414,2.414,0,0,1,0,2.831A1.413,1.413,0,0,1,5377.032,93.745Zm0-3.578a1.006,1.006,0,0,0-.8.462,2.025,2.025,0,0,0,0,2.226.929.929,0,0,0,1.606,0,2.027,2.027,0,0,0,0-2.226A1.006,1.006,0,0,0,5377.032,90.168Z" transform="translate(-5375.468 -89.74)"></path></g><g transform="translate(5297.772 -15.679)"><path class="g" d="M5331.094,90.123a2.111,2.111,0,0,1-.4,1.265,1.132,1.132,0,0,1-1.91,0,2.218,2.218,0,0,1,0-2.53,1.132,1.132,0,0,1,1.91,0A2.111,2.111,0,0,1,5331.094,90.123Z" transform="translate(-5328.179 -88.12)"></path><path class="b" d="M5328.457,90.839a1.414,1.414,0,0,1-1.105-.587,2.416,2.416,0,0,1,0-2.831,1.334,1.334,0,0,1,2.211,0,2.412,2.412,0,0,1,0,2.831A1.411,1.411,0,0,1,5328.457,90.839Zm0-3.578a1,1,0,0,0-.8.462,2.025,2.025,0,0,0,0,2.226.929.929,0,0,0,1.606,0,2.025,2.025,0,0,0,0-2.226A1.006,1.006,0,0,0,5328.457,87.262Z" transform="translate(-5326.894 -86.834)"></path></g><g transform="translate(5297.043 -15.679)"><path class="g" d="M5325.979,90.123a2.111,2.111,0,0,1-.4,1.265,1.132,1.132,0,0,1-1.909,0,2.221,2.221,0,0,1,0-2.53,1.132,1.132,0,0,1,1.909,0A2.111,2.111,0,0,1,5325.979,90.123Z" transform="translate(-5323.065 -88.12)"></path><path class="b" d="M5323.343,90.839a1.413,1.413,0,0,1-1.105-.587,2.412,2.412,0,0,1,0-2.831,1.334,1.334,0,0,1,2.211,0,2.414,2.414,0,0,1,0,2.831A1.413,1.413,0,0,1,5323.343,90.839Zm0-3.578a1,1,0,0,0-.8.462,2.022,2.022,0,0,0,0,2.226.929.929,0,0,0,1.606,0,2.027,2.027,0,0,0,0-2.226A1.006,1.006,0,0,0,5323.343,87.262Z" transform="translate(-5321.779 -86.834)"></path></g><g transform="translate(5292.932 -3.94)"><path class="a" d="M5377.653,199.487H5301.39a6.958,6.958,0,0,1-6.958-6.958V177.658a6.958,6.958,0,0,1,6.958-6.958h76.263a6.958,6.958,0,0,1,6.958,6.958v14.872a6.958,6.958,0,0,1-6.958,6.958Z" transform="translate(-5294.218 -170.486)"></path><path class="b" d="M5376.368,198.415H5300.1a7.18,7.18,0,0,1-7.172-7.172V176.372a7.18,7.18,0,0,1,7.172-7.172h76.264a7.179,7.179,0,0,1,7.171,7.172v14.872a7.179,7.179,0,0,1-7.171,7.172ZM5300.1,169.628a6.752,6.752,0,0,0-6.744,6.744v14.872a6.752,6.752,0,0,0,6.744,6.744h76.264a6.752,6.752,0,0,0,6.744-6.744V176.372a6.752,6.752,0,0,0-6.744-6.744H5300.1Z" transform="translate(-5292.932 -169.2)"></path></g><g transform="translate(5322.639 -3.94)"><path class="c" d="M5586.1,199.487h-76.264a6.958,6.958,0,0,1-6.958-6.958V177.658a6.958,6.958,0,0,1,6.958-6.958H5586.1a6.957,6.957,0,0,1,6.958,6.958v14.872a6.957,6.957,0,0,1-6.958,6.958Z" transform="translate(-5502.66 -170.486)"></path><path class="b" d="M5584.81,198.415h-76.264a7.181,7.181,0,0,1-7.172-7.172V176.372a7.181,7.181,0,0,1,7.172-7.172h76.264a7.179,7.179,0,0,1,7.171,7.172v14.872a7.179,7.179,0,0,1-7.171,7.172Zm-76.264-28.787a6.752,6.752,0,0,0-6.744,6.744v14.872a6.752,6.752,0,0,0,6.744,6.744h76.264a6.752,6.752,0,0,0,6.744-6.744V176.372a6.752,6.752,0,0,0-6.744-6.744h-76.264Z" transform="translate(-5501.374 -169.2)"></path></g><g transform="translate(5403.76 1.039)"><path class="d" d="M6072.061,206.779a1.145,1.145,0,1,0,.335-.81A1.144,1.144,0,0,0,6072.061,206.779Z" transform="translate(-6071.847 -205.419)"></path><path class="b" d="M6071.92,206.853a1.361,1.361,0,1,1,.961-.4A1.355,1.355,0,0,1,6071.92,206.853Zm0-2.292a.934.934,0,1,0,.659.273A.93.93,0,0,0,6071.92,204.561Z" transform="translate(-6070.56 -204.133)"></path></g><g transform="translate(5400.231 1.039)"><path class="e" d="M6047.3,206.779a1.146,1.146,0,1,0,.336-.81A1.143,1.143,0,0,0,6047.3,206.779Z" transform="translate(-6047.087 -205.419)"></path><path class="b" d="M6047.161,206.853a1.361,1.361,0,1,1,.961-.4A1.356,1.356,0,0,1,6047.161,206.853Zm0-2.292a.934.934,0,1,0,.658.273A.929.929,0,0,0,6047.161,204.561Z" transform="translate(-6045.801 -204.133)"></path></g><g transform="translate(5396.703 1.039)"><path class="f" d="M6022.542,206.779a1.146,1.146,0,1,0,.336-.81A1.141,1.141,0,0,0,6022.542,206.779Z" transform="translate(-6022.328 -205.419)"></path><path class="b" d="M6022.4,206.853a1.362,1.362,0,1,1,.961-.4A1.357,1.357,0,0,1,6022.4,206.853Zm0-2.292a.933.933,0,1,0,.659.273A.928.928,0,0,0,6022.4,204.561Z" transform="translate(-6021.042 -204.133)"></path></g><g transform="translate(5331.951 16.542)"><path class="g" d="M5618.5,316.4h-49.3a.994.994,0,0,1-.994-.994h0a.994.994,0,0,1,.994-.994h49.3a.816.816,0,0,1,.615.291,1.067,1.067,0,0,1,.255.7h0a1.067,1.067,0,0,1-.255.7A.816.816,0,0,1,5618.5,316.4Z" transform="translate(-5567.999 -314.197)"></path><path class="b" d="M5617.217,315.326h-49.3a1.208,1.208,0,0,1,0-2.415h49.3a1.027,1.027,0,0,1,.766.354,1.3,1.3,0,0,1,0,1.707A1.027,1.027,0,0,1,5617.217,315.326Zm-49.3-1.988a.78.78,0,0,0,0,1.56h49.3a.608.608,0,0,0,.464-.229.886.886,0,0,0,0-1.1.608.608,0,0,0-.464-.229h-49.3Z" transform="translate(-5566.713 -312.911)"></path></g><g transform="translate(5331.951 12.55)"><path class="g" d="M5618.5,288.391h-49.3a.994.994,0,0,1-.994-.994h0a.994.994,0,0,1,.994-.994h49.3a.817.817,0,0,1,.615.291,1.067,1.067,0,0,1,.255.7h0a1.067,1.067,0,0,1-.255.7A.816.816,0,0,1,5618.5,288.391Z" transform="translate(-5567.999 -286.189)"></path><path class="b" d="M5617.217,287.318h-49.3a1.208,1.208,0,0,1,0-2.415h49.3a1.027,1.027,0,0,1,.766.354,1.3,1.3,0,0,1,0,1.707A1.028,1.028,0,0,1,5617.217,287.318Zm-49.3-1.988a.78.78,0,0,0,0,1.56h49.3a.608.608,0,0,0,.464-.229.886.886,0,0,0,0-1.1.608.608,0,0,0-.464-.229h-49.3Z" transform="translate(-5566.713 -284.903)"></path></g><g transform="translate(5331.951 8.559)"><path class="g" d="M5618.5,260.383h-49.3a.994.994,0,0,1-.994-.994h0a.994.994,0,0,1,.994-.994h49.3a.817.817,0,0,1,.615.291,1.067,1.067,0,0,1,.255.7h0a1.067,1.067,0,0,1-.255.7A.817.817,0,0,1,5618.5,260.383Z" transform="translate(-5567.999 -258.181)"></path><path class="b" d="M5617.217,259.31h-49.3a1.208,1.208,0,0,1,0-2.415h49.3a1.027,1.027,0,0,1,.766.354,1.3,1.3,0,0,1,0,1.707A1.028,1.028,0,0,1,5617.217,259.31Zm-49.3-1.988a.78.78,0,0,0,0,1.56h49.3a.608.608,0,0,0,.464-.229.886.886,0,0,0,0-1.1.608.608,0,0,0-.464-.229h-49.3Z" transform="translate(-5566.713 -256.895)"></path></g><g transform="translate(5331.951 4.567)"><path class="g" d="M5618.5,232.375h-49.3a.994.994,0,0,1-.994-.994h0a.994.994,0,0,1,.994-.994h49.3a.817.817,0,0,1,.615.291,1.067,1.067,0,0,1,.255.7h0a1.067,1.067,0,0,1-.255.7A.817.817,0,0,1,5618.5,232.375Z" transform="translate(-5567.999 -230.173)"></path><path class="b" d="M5617.217,231.3h-49.3a1.208,1.208,0,0,1,0-2.415h49.3a1.028,1.028,0,0,1,.766.354,1.3,1.3,0,0,1,0,1.707A1.027,1.027,0,0,1,5617.217,231.3Zm-49.3-1.988a.78.78,0,0,0,0,1.56h49.3a.608.608,0,0,0,.464-.229.886.886,0,0,0,0-1.1.608.608,0,0,0-.464-.229h-49.3Z" transform="translate(-5566.713 -228.887)"></path></g><g transform="translate(5331.951 0.575)"><path class="g" d="M5618.5,204.367h-49.3a.994.994,0,0,1-.994-.994h0a.994.994,0,0,1,.994-.994h49.3a.817.817,0,0,1,.615.291,1.067,1.067,0,0,1,.255.7h0a1.067,1.067,0,0,1-.255.7A.817.817,0,0,1,5618.5,204.367Z" transform="translate(-5567.999 -202.165)"></path><path class="b" d="M5617.217,203.294h-49.3a1.208,1.208,0,0,1,0-2.415h49.3a1.028,1.028,0,0,1,.766.354,1.3,1.3,0,0,1,0,1.707A1.028,1.028,0,0,1,5617.217,203.294Zm-49.3-1.988a.78.78,0,0,0,0,1.56h49.3a.608.608,0,0,0,.464-.229.886.886,0,0,0,0-1.1.608.608,0,0,0-.464-.229h-49.3Z" transform="translate(-5566.713 -200.879)"></path></g><g transform="translate(5314.325 13.513)"><path class="g" d="M5447.236,294.947a2.108,2.108,0,0,1-.4,1.265,1.132,1.132,0,0,1-1.909,0,2.218,2.218,0,0,1,0-2.53,1.132,1.132,0,0,1,1.909,0A2.107,2.107,0,0,1,5447.236,294.947Z" transform="translate(-5444.321 -292.944)"></path><path class="b" d="M5444.6,295.663a1.412,1.412,0,0,1-1.105-.587,2.412,2.412,0,0,1,0-2.831,1.334,1.334,0,0,1,2.211,0,2.414,2.414,0,0,1,0,2.831A1.413,1.413,0,0,1,5444.6,295.663Zm0-3.578a1.007,1.007,0,0,0-.8.462,2.027,2.027,0,0,0,0,2.226.93.93,0,0,0,1.607,0,2.027,2.027,0,0,0,0-2.226A1.006,1.006,0,0,0,5444.6,292.086Z" transform="translate(-5443.035 -291.658)"></path></g><g transform="translate(5313.596 13.513)"><path class="g" d="M5442.123,294.947a2.111,2.111,0,0,1-.4,1.265,1.132,1.132,0,0,1-1.91,0,2.218,2.218,0,0,1,0-2.53,1.132,1.132,0,0,1,1.91,0A2.11,2.11,0,0,1,5442.123,294.947Z" transform="translate(-5439.208 -292.944)"></path><path class="b" d="M5439.486,295.663a1.412,1.412,0,0,1-1.105-.587,2.412,2.412,0,0,1,0-2.831,1.334,1.334,0,0,1,2.211,0,2.414,2.414,0,0,1,0,2.831A1.414,1.414,0,0,1,5439.486,295.663Zm0-3.578a1.007,1.007,0,0,0-.8.462,2.027,2.027,0,0,0,0,2.226.93.93,0,0,0,1.607,0,2.027,2.027,0,0,0,0-2.226A1.006,1.006,0,0,0,5439.486,292.086Z" transform="translate(-5437.922 -291.658)"></path></g><g transform="translate(5305.424 13.513)"><path class="g" d="M5384.782,294.947a2.111,2.111,0,0,1-.4,1.265,1.133,1.133,0,0,1-1.91,0,2.221,2.221,0,0,1,0-2.53,1.133,1.133,0,0,1,1.91,0A2.11,2.11,0,0,1,5384.782,294.947Z" transform="translate(-5381.867 -292.944)"></path><path class="b" d="M5382.146,295.663a1.415,1.415,0,0,1-1.106-.587,2.414,2.414,0,0,1,0-2.831,1.335,1.335,0,0,1,2.211,0,2.414,2.414,0,0,1,0,2.831A1.413,1.413,0,0,1,5382.146,295.663Zm0-3.578a1.007,1.007,0,0,0-.8.462,2.027,2.027,0,0,0,0,2.226.93.93,0,0,0,1.607,0,2.027,2.027,0,0,0,0-2.226A1.006,1.006,0,0,0,5382.146,292.086Z" transform="translate(-5380.581 -291.658)"></path></g><g transform="translate(5304.695 13.513)"><path class="g" d="M5379.668,294.947a2.111,2.111,0,0,1-.4,1.265,1.133,1.133,0,0,1-1.91,0,2.221,2.221,0,0,1,0-2.53,1.133,1.133,0,0,1,1.91,0A2.11,2.11,0,0,1,5379.668,294.947Z" transform="translate(-5376.754 -292.944)"></path><path class="b" d="M5377.032,295.663a1.413,1.413,0,0,1-1.105-.587,2.412,2.412,0,0,1,0-2.831,1.334,1.334,0,0,1,2.211,0,2.414,2.414,0,0,1,0,2.831A1.413,1.413,0,0,1,5377.032,295.663Zm0-3.578a1.006,1.006,0,0,0-.8.462,2.025,2.025,0,0,0,0,2.226.929.929,0,0,0,1.606,0,2.027,2.027,0,0,0,0-2.226A1.006,1.006,0,0,0,5377.032,292.086Z" transform="translate(-5375.468 -291.658)"></path></g><g transform="translate(5297.772 13.099)"><path class="g" d="M5331.094,292.04a2.11,2.11,0,0,1-.4,1.265,1.132,1.132,0,0,1-1.91,0,2.218,2.218,0,0,1,0-2.53,1.132,1.132,0,0,1,1.91,0A2.111,2.111,0,0,1,5331.094,292.04Z" transform="translate(-5328.179 -290.037)"></path><path class="b" d="M5328.457,292.756a1.413,1.413,0,0,1-1.105-.587,2.416,2.416,0,0,1,0-2.831,1.334,1.334,0,0,1,2.211,0,2.412,2.412,0,0,1,0,2.831A1.411,1.411,0,0,1,5328.457,292.756Zm0-3.578a1.006,1.006,0,0,0-.8.462,2.025,2.025,0,0,0,0,2.226.929.929,0,0,0,1.606,0,2.025,2.025,0,0,0,0-2.226A1.007,1.007,0,0,0,5328.457,289.179Z" transform="translate(-5326.894 -288.751)"></path></g><g transform="translate(5297.043 13.099)"><path class="g" d="M5325.979,292.04a2.111,2.111,0,0,1-.4,1.265,1.131,1.131,0,0,1-1.909,0,2.22,2.22,0,0,1,0-2.53,1.131,1.131,0,0,1,1.909,0A2.111,2.111,0,0,1,5325.979,292.04Z" transform="translate(-5323.065 -290.037)"></path><path class="b" d="M5323.343,292.756a1.412,1.412,0,0,1-1.105-.587,2.412,2.412,0,0,1,0-2.831,1.334,1.334,0,0,1,2.211,0,2.414,2.414,0,0,1,0,2.831A1.412,1.412,0,0,1,5323.343,292.756Zm0-3.578a1.006,1.006,0,0,0-.8.462,2.022,2.022,0,0,0,0,2.226.929.929,0,0,0,1.606,0,2.027,2.027,0,0,0,0-2.226A1.006,1.006,0,0,0,5323.343,289.179Z" transform="translate(-5321.779 -288.751)"></path></g><g transform="translate(5292.932 24.838)"><path class="a" d="M5377.653,401.405H5301.39a6.958,6.958,0,0,1-6.958-6.958V379.576a6.958,6.958,0,0,1,6.958-6.958h76.263a6.958,6.958,0,0,1,6.958,6.958v14.871a6.958,6.958,0,0,1-6.958,6.958Z" transform="translate(-5294.218 -372.404)"></path><path class="b" d="M5376.368,400.333H5300.1a7.18,7.18,0,0,1-7.172-7.172V378.29a7.18,7.18,0,0,1,7.172-7.172h76.264a7.179,7.179,0,0,1,7.171,7.172v14.872a7.179,7.179,0,0,1-7.171,7.172ZM5300.1,371.546a6.752,6.752,0,0,0-6.744,6.744v14.872a6.752,6.752,0,0,0,6.744,6.744h76.264a6.752,6.752,0,0,0,6.744-6.744V378.29a6.752,6.752,0,0,0-6.744-6.744H5300.1Z" transform="translate(-5292.932 -371.118)"></path></g><g transform="translate(5322.639 24.838)"><path class="c" d="M5586.1,401.405h-76.264a6.958,6.958,0,0,1-6.958-6.958V379.576a6.958,6.958,0,0,1,6.958-6.958H5586.1a6.957,6.957,0,0,1,6.958,6.958v14.871a6.958,6.958,0,0,1-6.958,6.958Z" transform="translate(-5502.66 -372.404)"></path><path class="b" d="M5584.81,400.333h-76.264a7.181,7.181,0,0,1-7.172-7.172V378.29a7.181,7.181,0,0,1,7.172-7.172h76.264a7.179,7.179,0,0,1,7.171,7.172v14.872a7.179,7.179,0,0,1-7.171,7.172Zm-76.264-28.787a6.752,6.752,0,0,0-6.744,6.744v14.872a6.752,6.752,0,0,0,6.744,6.744h76.264a6.752,6.752,0,0,0,6.744-6.744V378.29a6.752,6.752,0,0,0-6.744-6.744h-76.264Z" transform="translate(-5501.374 -371.118)"></path></g><g transform="translate(5403.76 29.816)"><path class="d" d="M6072.061,408.7a1.145,1.145,0,1,0,.335-.81A1.143,1.143,0,0,0,6072.061,408.7Z" transform="translate(-6071.847 -407.336)"></path><path class="b" d="M6071.92,408.77a1.361,1.361,0,1,1,.961-.4A1.355,1.355,0,0,1,6071.92,408.77Zm0-2.292a.934.934,0,1,0,.659.273A.931.931,0,0,0,6071.92,406.478Z" transform="translate(-6070.56 -406.05)"></path></g><g transform="translate(5400.231 29.816)"><path class="e" d="M6047.3,408.7a1.146,1.146,0,1,0,.336-.81A1.142,1.142,0,0,0,6047.3,408.7Z" transform="translate(-6047.087 -407.336)"></path><path class="b" d="M6047.161,408.77a1.361,1.361,0,1,1,.961-.4A1.356,1.356,0,0,1,6047.161,408.77Zm0-2.292a.934.934,0,1,0,.658.273A.93.93,0,0,0,6047.161,406.478Z" transform="translate(-6045.801 -406.05)"></path></g><g transform="translate(5396.703 29.816)"><path class="f" d="M6022.542,408.7a1.146,1.146,0,1,0,.336-.81A1.14,1.14,0,0,0,6022.542,408.7Z" transform="translate(-6022.328 -407.336)"></path><path class="b" d="M6022.4,408.77a1.361,1.361,0,1,1,.961-.4A1.358,1.358,0,0,1,6022.4,408.77Zm0-2.292a.933.933,0,1,0,.659.273A.929.929,0,0,0,6022.4,406.478Z" transform="translate(-6021.042 -406.05)"></path></g><g transform="translate(5331.951 45.319)"><path class="g" d="M5618.5,518.316h-49.3a.994.994,0,0,1-.994-.994h0a.994.994,0,0,1,.994-.994h49.3a.817.817,0,0,1,.615.291,1.067,1.067,0,0,1,.255.7h0a1.067,1.067,0,0,1-.255.7A.816.816,0,0,1,5618.5,518.316Z" transform="translate(-5567.999 -516.114)"></path><path class="b" d="M5617.217,517.243h-49.3a1.208,1.208,0,0,1,0-2.415h49.3a1.027,1.027,0,0,1,.766.354,1.3,1.3,0,0,1,0,1.707A1.027,1.027,0,0,1,5617.217,517.243Zm-49.3-1.988a.78.78,0,0,0,0,1.56h49.3a.608.608,0,0,0,.464-.229.886.886,0,0,0,0-1.1.608.608,0,0,0-.464-.229h-49.3Z" transform="translate(-5566.713 -514.828)"></path></g><g transform="translate(5331.951 41.328)"><path class="g" d="M5618.5,490.308h-49.3a.994.994,0,0,1-.994-.994h0a.994.994,0,0,1,.994-.994h49.3a.817.817,0,0,1,.615.291,1.067,1.067,0,0,1,.255.7h0a1.067,1.067,0,0,1-.255.7A.817.817,0,0,1,5618.5,490.308Z" transform="translate(-5567.999 -488.106)"></path><path class="b" d="M5617.217,489.235h-49.3a1.208,1.208,0,0,1,0-2.415h49.3a1.028,1.028,0,0,1,.766.354,1.3,1.3,0,0,1,0,1.707A1.027,1.027,0,0,1,5617.217,489.235Zm-49.3-1.988a.78.78,0,0,0,0,1.56h49.3a.608.608,0,0,0,.464-.229.886.886,0,0,0,0-1.1.608.608,0,0,0-.464-.229h-49.3Z" transform="translate(-5566.713 -486.82)"></path></g><g transform="translate(5331.951 37.336)"><path class="g" d="M5618.5,462.3h-49.3a.994.994,0,0,1-.994-.994h0a.994.994,0,0,1,.994-.994h49.3a.816.816,0,0,1,.615.291,1.067,1.067,0,0,1,.255.7h0a1.067,1.067,0,0,1-.255.7A.816.816,0,0,1,5618.5,462.3Z" transform="translate(-5567.999 -460.099)"></path><path class="b" d="M5617.217,461.228h-49.3a1.208,1.208,0,0,1,0-2.415h49.3a1.027,1.027,0,0,1,.766.354,1.3,1.3,0,0,1,0,1.707A1.027,1.027,0,0,1,5617.217,461.228Zm-49.3-1.988a.78.78,0,0,0,0,1.56h49.3a.608.608,0,0,0,.464-.229.886.886,0,0,0,0-1.1.608.608,0,0,0-.464-.229h-49.3Z" transform="translate(-5566.713 -458.813)"></path></g><g transform="translate(5331.951 33.344)"><path class="g" d="M5618.5,434.293h-49.3a.994.994,0,0,1-.994-.994h0a.994.994,0,0,1,.994-.994h49.3a.816.816,0,0,1,.615.291,1.067,1.067,0,0,1,.255.7h0a1.067,1.067,0,0,1-.255.7A.816.816,0,0,1,5618.5,434.293Z" transform="translate(-5567.999 -432.091)"></path><path class="b" d="M5617.217,433.22h-49.3a1.208,1.208,0,0,1,0-2.415h49.3a1.028,1.028,0,0,1,.766.354,1.3,1.3,0,0,1,0,1.707A1.027,1.027,0,0,1,5617.217,433.22Zm-49.3-1.988a.78.78,0,0,0,0,1.56h49.3a.608.608,0,0,0,.464-.229.886.886,0,0,0,0-1.1.608.608,0,0,0-.464-.229h-49.3Z" transform="translate(-5566.713 -430.805)"></path></g><g transform="translate(5331.951 29.353)"><path class="g" d="M5618.5,406.285h-49.3a.994.994,0,0,1-.994-.994h0a.994.994,0,0,1,.994-.994h49.3a.816.816,0,0,1,.615.291,1.067,1.067,0,0,1,.255.7h0a1.067,1.067,0,0,1-.255.7A.816.816,0,0,1,5618.5,406.285Z" transform="translate(-5567.999 -404.083)"></path><path class="b" d="M5617.217,405.212h-49.3a1.208,1.208,0,0,1,0-2.415h49.3a1.027,1.027,0,0,1,.766.354,1.3,1.3,0,0,1,0,1.707A1.027,1.027,0,0,1,5617.217,405.212Zm-49.3-1.988a.78.78,0,0,0,0,1.56h49.3a.608.608,0,0,0,.464-.229.886.886,0,0,0,0-1.1.608.608,0,0,0-.464-.229h-49.3Z" transform="translate(-5566.713 -402.797)"></path></g><g transform="translate(5314.325 42.29)"><path class="g" d="M5447.236,496.864a2.107,2.107,0,0,1-.4,1.265,1.132,1.132,0,0,1-1.909,0,2.218,2.218,0,0,1,0-2.53,1.132,1.132,0,0,1,1.909,0A2.108,2.108,0,0,1,5447.236,496.864Z" transform="translate(-5444.321 -494.861)"></path><path class="b" d="M5444.6,497.58a1.412,1.412,0,0,1-1.105-.587,2.412,2.412,0,0,1,0-2.831,1.334,1.334,0,0,1,2.211,0,2.414,2.414,0,0,1,0,2.831A1.413,1.413,0,0,1,5444.6,497.58Zm0-3.578a1.007,1.007,0,0,0-.8.462,2.027,2.027,0,0,0,0,2.226.93.93,0,0,0,1.607,0,2.027,2.027,0,0,0,0-2.226A1.007,1.007,0,0,0,5444.6,494Z" transform="translate(-5443.035 -493.575)"></path></g><g transform="translate(5313.596 42.29)"><path class="g" d="M5442.123,496.864a2.11,2.11,0,0,1-.4,1.265,1.132,1.132,0,0,1-1.91,0,2.218,2.218,0,0,1,0-2.53,1.132,1.132,0,0,1,1.91,0A2.111,2.111,0,0,1,5442.123,496.864Z" transform="translate(-5439.208 -494.861)"></path><path class="b" d="M5439.486,497.58a1.412,1.412,0,0,1-1.105-.587,2.412,2.412,0,0,1,0-2.831,1.334,1.334,0,0,1,2.211,0,2.414,2.414,0,0,1,0,2.831A1.414,1.414,0,0,1,5439.486,497.58Zm0-3.578a1.007,1.007,0,0,0-.8.462,2.027,2.027,0,0,0,0,2.226.93.93,0,0,0,1.607,0,2.027,2.027,0,0,0,0-2.226A1.007,1.007,0,0,0,5439.486,494Z" transform="translate(-5437.922 -493.575)"></path></g><g transform="translate(5305.424 42.29)"><path class="g" d="M5384.782,496.864a2.11,2.11,0,0,1-.4,1.265,1.133,1.133,0,0,1-1.91,0,2.221,2.221,0,0,1,0-2.53,1.132,1.132,0,0,1,1.91,0A2.111,2.111,0,0,1,5384.782,496.864Z" transform="translate(-5381.867 -494.861)"></path><path class="b" d="M5382.146,497.58a1.415,1.415,0,0,1-1.106-.587,2.414,2.414,0,0,1,0-2.831,1.335,1.335,0,0,1,2.211,0,2.414,2.414,0,0,1,0,2.831A1.413,1.413,0,0,1,5382.146,497.58Zm0-3.578a1.007,1.007,0,0,0-.8.462,2.027,2.027,0,0,0,0,2.226.93.93,0,0,0,1.607,0,2.027,2.027,0,0,0,0-2.226A1.007,1.007,0,0,0,5382.146,494Z" transform="translate(-5380.581 -493.575)"></path></g><g transform="translate(5304.695 42.29)"><path class="g" d="M5379.668,496.864a2.11,2.11,0,0,1-.4,1.265,1.133,1.133,0,0,1-1.91,0,2.221,2.221,0,0,1,0-2.53,1.132,1.132,0,0,1,1.91,0A2.111,2.111,0,0,1,5379.668,496.864Z" transform="translate(-5376.754 -494.861)"></path><path class="b" d="M5377.032,497.58a1.413,1.413,0,0,1-1.105-.587,2.412,2.412,0,0,1,0-2.831,1.334,1.334,0,0,1,2.211,0,2.414,2.414,0,0,1,0,2.831A1.413,1.413,0,0,1,5377.032,497.58Zm0-3.578a1.006,1.006,0,0,0-.8.462,2.025,2.025,0,0,0,0,2.226.929.929,0,0,0,1.606,0,2.027,2.027,0,0,0,0-2.226A1.006,1.006,0,0,0,5377.032,494Z" transform="translate(-5375.468 -493.575)"></path></g><g transform="translate(5297.772 41.876)"><path class="g" d="M5331.094,493.958a2.111,2.111,0,0,1-.4,1.265,1.132,1.132,0,0,1-1.91,0,2.218,2.218,0,0,1,0-2.53,1.132,1.132,0,0,1,1.91,0A2.11,2.11,0,0,1,5331.094,493.958Z" transform="translate(-5328.179 -491.955)"></path><path class="b" d="M5328.457,494.674a1.414,1.414,0,0,1-1.105-.587,2.416,2.416,0,0,1,0-2.831,1.334,1.334,0,0,1,2.211,0,2.412,2.412,0,0,1,0,2.831A1.411,1.411,0,0,1,5328.457,494.674Zm0-3.578a1.006,1.006,0,0,0-.8.462,2.025,2.025,0,0,0,0,2.226.929.929,0,0,0,1.606,0,2.025,2.025,0,0,0,0-2.226A1.006,1.006,0,0,0,5328.457,491.1Z" transform="translate(-5326.894 -490.669)"></path></g><g transform="translate(5297.043 41.876)"><path class="g" d="M5325.979,493.958a2.111,2.111,0,0,1-.4,1.265,1.132,1.132,0,0,1-1.909,0,2.221,2.221,0,0,1,0-2.53,1.132,1.132,0,0,1,1.909,0A2.111,2.111,0,0,1,5325.979,493.958Z" transform="translate(-5323.065 -491.955)"></path><path class="b" d="M5323.343,494.674a1.413,1.413,0,0,1-1.105-.587,2.412,2.412,0,0,1,0-2.831,1.334,1.334,0,0,1,2.211,0,2.414,2.414,0,0,1,0,2.831A1.413,1.413,0,0,1,5323.343,494.674Zm0-3.578a1.006,1.006,0,0,0-.8.462,2.022,2.022,0,0,0,0,2.226.929.929,0,0,0,1.606,0,2.027,2.027,0,0,0,0-2.226A1.006,1.006,0,0,0,5323.343,491.1Z" transform="translate(-5321.779 -490.669)"></path></g></g></svg>