<svg xmlns="http://www.w3.org/2000/svg" width="365.017" height="187.292" viewBox="0 0 365.017 187.292"><defs><style>.a{fill:#0c7ff2;}.b{fill:#24313e;}.c{fill:#ebf0f5;}.d{fill:#d9dee5;}.e{fill:#455666;}.f{fill:#6b7e8f;}.g{fill:#f5f7f9;}.h{fill:#f4e969;}.i{fill:#031439;}.j{fill:#ff603d;}</style></defs><g transform="translate(-8270.346 -4138.288)"><g transform="translate(8373.813 4138.288)"><path class="a" d="M8935.356,4153.349l-.616,4.307-.615,4.306H8679.389l.616-4.306.616-4.307a15.278,15.278,0,0,1,5.146-9.236,15.01,15.01,0,0,1,9.783-3.825h228.611a11.242,11.242,0,0,1,8.689,3.825A11.488,11.488,0,0,1,8935.356,4153.349Z" transform="translate(-8678.802 -4139.779)"></path><path class="b" d="M8932.846,4160.979H8677.082l.657-4.6.657-4.6a15.8,15.8,0,0,1,5.323-9.539,15.521,15.521,0,0,1,10.11-3.958h228.61a12.537,12.537,0,0,1,5.044,1.021,11.213,11.213,0,0,1,3.991,2.934,11.328,11.328,0,0,1,2.368,4.44,12.837,12.837,0,0,1,.295,5.247l-.251-.036-.252-.036.252.036.251.036-.646,4.525Zm-254.59-1.018h253.707l.585-4.088.585-4.088a11.878,11.878,0,0,0-.266-4.815,10.313,10.313,0,0,0-2.161-4.061,10.189,10.189,0,0,0-3.645-2.673,11.532,11.532,0,0,0-4.621-.931H8693.83a14.5,14.5,0,0,0-9.449,3.7,14.777,14.777,0,0,0-4.978,8.922l-.573,4.016Z" transform="translate(-8677.082 -4138.288)"></path></g><g transform="translate(8355.483 4159.961)"><path class="c" d="M8880.178,4225.488l-9.136,63.9-9.136,63.9a15.287,15.287,0,0,1-5.146,9.234,15.007,15.007,0,0,1-9.783,3.825h-228.61a11.239,11.239,0,0,1-8.689-3.825,11.487,11.487,0,0,1-2.506-9.234l9.135-63.9,9.136-63.9h254.736Z" transform="translate(-8606.525 -4224.979)"></path><path class="b" d="M8845.48,4365.364H8616.87a12.532,12.532,0,0,1-5.043-1.021,11.269,11.269,0,0,1-6.36-7.373,12.871,12.871,0,0,1-.295-5.247l9.166-64.118,9.167-64.118h255.764l-.042.291-.041.29-9.136,63.9-9.136,63.9a15.791,15.791,0,0,1-5.323,9.539A15.519,15.519,0,0,1,8845.48,4365.364Zm-221.094-140.859-9.1,63.681-9.1,63.681a11.842,11.842,0,0,0,.266,4.815,10.316,10.316,0,0,0,2.161,4.061,10.194,10.194,0,0,0,3.646,2.673,11.516,11.516,0,0,0,4.619.93h228.61a14.5,14.5,0,0,0,9.45-3.7,14.781,14.781,0,0,0,4.977-8.922l9.094-63.609,9.094-63.609H8624.387Z" transform="translate(-8605.031 -4223.488)"></path></g><g transform="translate(8378.164 4138.288)"><path class="a" d="M8952.465,4153.349l-.616,4.307-.616,4.306H8696.5l.616-4.306.615-4.307a15.289,15.289,0,0,1,5.146-9.236,15.008,15.008,0,0,1,9.783-3.825H8941.27a11.242,11.242,0,0,1,8.689,3.825A11.492,11.492,0,0,1,8952.465,4153.349Z" transform="translate(-8695.91 -4139.779)"></path><path class="b" d="M8949.954,4160.979H8694.19l.657-4.6.657-4.6a15.8,15.8,0,0,1,5.323-9.539,15.518,15.518,0,0,1,10.109-3.958h228.611a12.534,12.534,0,0,1,5.044,1.021,11.213,11.213,0,0,1,3.991,2.934,11.331,11.331,0,0,1,2.369,4.439,12.874,12.874,0,0,1,.295,5.247l-.252-.036-.252-.036.252.036.252.036-.647,4.525Zm-254.59-1.018h253.707l.585-4.088.584-4.088a11.861,11.861,0,0,0-.266-4.815,10.3,10.3,0,0,0-2.16-4.061,10.192,10.192,0,0,0-3.646-2.673,11.517,11.517,0,0,0-4.62-.931H8710.938a14.5,14.5,0,0,0-9.449,3.7,14.781,14.781,0,0,0-4.977,8.922l-.574,4.016Z" transform="translate(-8694.19 -4138.288)"></path></g><g transform="translate(8359.836 4159.961)"><path class="c" d="M8897.284,4225.488l-9.136,63.9-9.136,63.9a15.286,15.286,0,0,1-5.146,9.234,15.011,15.011,0,0,1-9.784,3.825h-228.61a11.241,11.241,0,0,1-8.689-3.825,11.487,11.487,0,0,1-2.506-9.234l9.136-63.9,9.136-63.9h254.735Z" transform="translate(-8623.633 -4224.979)"></path><path class="b" d="M8862.589,4365.364h-228.61a12.526,12.526,0,0,1-5.043-1.021,11.208,11.208,0,0,1-3.992-2.934,11.335,11.335,0,0,1-2.369-4.439,12.871,12.871,0,0,1-.295-5.247l9.166-64.118,9.168-64.118h255.763l-.041.291-.042.29-9.136,63.9-9.136,63.9a15.8,15.8,0,0,1-5.322,9.539A15.523,15.523,0,0,1,8862.589,4365.364ZM8641.5,4224.505l-9.1,63.681-9.1,63.681a11.842,11.842,0,0,0,.267,4.815,10.241,10.241,0,0,0,5.806,6.734,11.52,11.52,0,0,0,4.62.93h228.61a14.5,14.5,0,0,0,9.449-3.7,14.776,14.776,0,0,0,4.977-8.922l9.095-63.609,9.094-63.609H8641.5Z" transform="translate(-8622.139 -4223.488)"></path></g><g transform="translate(8430.484 4166.166)"><path class="d" d="M9061.631,4376.9H8906.745a4.84,4.84,0,0,1-3.741-1.647,4.952,4.952,0,0,1-1.08-3.978l8.276-57.887,8.276-57.888a6.586,6.586,0,0,1,2.217-3.978,6.462,6.462,0,0,1,4.212-1.647h163.04a4.84,4.84,0,0,1,3.741,1.647,4.952,4.952,0,0,1,1.079,3.978l-7.693,53.811-7.693,53.811a16.127,16.127,0,0,1-5.428,9.742A15.828,15.828,0,0,1,9061.631,4376.9Z" transform="translate(-8901.357 -4249.37)"></path><path class="b" d="M9060.14,4375.921H8905.253a5.69,5.69,0,0,1-2.292-.465,5.116,5.116,0,0,1-1.816-1.337,5.169,5.169,0,0,1-1.08-2.02,5.839,5.839,0,0,1-.136-2.383l8.276-57.888,8.275-57.887a7.1,7.1,0,0,1,2.392-4.285,6.971,6.971,0,0,1,4.541-1.777h163.04a5.682,5.682,0,0,1,2.291.465,5.142,5.142,0,0,1,2.9,3.358,5.8,5.8,0,0,1,.136,2.383l-7.692,53.811-7.693,53.811a16.641,16.641,0,0,1-5.605,10.046A16.343,16.343,0,0,1,9060.14,4375.921ZM8923.413,4248.9a5.955,5.955,0,0,0-3.881,1.521,6.072,6.072,0,0,0-2.044,3.667l-8.276,57.887-8.276,57.887a4.846,4.846,0,0,0,.106,1.952,4.146,4.146,0,0,0,.871,1.641,4.1,4.1,0,0,0,1.472,1.077,4.674,4.674,0,0,0,1.868.375H9060.14a15.325,15.325,0,0,0,9.985-3.912,15.621,15.621,0,0,0,5.258-9.429l7.693-53.811,7.693-53.811a4.829,4.829,0,0,0-.105-1.952,4.165,4.165,0,0,0-.871-1.641,4.1,4.1,0,0,0-1.472-1.077,4.669,4.669,0,0,0-1.868-.375h-163.04Z" transform="translate(-8899.865 -4247.879)"></path></g><g transform="translate(8384.797 4175.646)"><path class="e" d="M8767.046,4294.937h-41.4a3.348,3.348,0,0,1-2.59-1.141,3.421,3.421,0,0,1-.747-2.753h0a4.557,4.557,0,0,1,1.534-2.754,4.473,4.473,0,0,1,2.916-1.14h41.4a3.351,3.351,0,0,1,2.591,1.14,3.426,3.426,0,0,1,.746,2.754h0a4.557,4.557,0,0,1-1.533,2.753A4.474,4.474,0,0,1,8767.046,4294.937Z" transform="translate(-8721.756 -4286.64)"></path><path class="b" d="M8765.553,4293.954h-41.4a4.09,4.09,0,0,1-1.652-.336,3.706,3.706,0,0,1-1.312-.965,3.764,3.764,0,0,1-.779-1.457,4.192,4.192,0,0,1-.1-1.716,5.062,5.062,0,0,1,1.709-3.061,4.981,4.981,0,0,1,3.245-1.27h41.4a4.088,4.088,0,0,1,1.651.336,3.7,3.7,0,0,1,1.312.966,3.741,3.741,0,0,1,.779,1.457,4.187,4.187,0,0,1,.1,1.715,5.072,5.072,0,0,1-1.709,3.061A4.986,4.986,0,0,1,8765.553,4293.954Zm-40.29-7.788a3.962,3.962,0,0,0-2.585,1.014,4.046,4.046,0,0,0-1.362,2.443,3.162,3.162,0,0,0,.069,1.285,2.69,2.69,0,0,0,1.535,1.783,3.084,3.084,0,0,0,1.229.246h41.4a3.965,3.965,0,0,0,2.586-1.014,4.045,4.045,0,0,0,1.361-2.444,3.178,3.178,0,0,0-.068-1.284,2.726,2.726,0,0,0-.57-1.077,2.683,2.683,0,0,0-.966-.706,3.08,3.08,0,0,0-1.229-.246h-41.4Z" transform="translate(-8720.263 -4285.148)"></path></g><g transform="translate(8378.262 4221.353)"><path class="f" d="M8741.358,4474.612h-41.4a3.349,3.349,0,0,1-2.59-1.141,3.426,3.426,0,0,1-.747-2.753h0a4.554,4.554,0,0,1,1.534-2.753,4.472,4.472,0,0,1,2.917-1.141h41.4a3.349,3.349,0,0,1,2.59,1.141,3.428,3.428,0,0,1,.747,2.753h0a4.566,4.566,0,0,1-1.534,2.753A4.476,4.476,0,0,1,8741.358,4474.612Z" transform="translate(-8696.067 -4466.315)"></path><path class="b" d="M8739.865,4473.63h-41.4a4.1,4.1,0,0,1-1.652-.336,3.682,3.682,0,0,1-1.311-.966,3.72,3.72,0,0,1-.779-1.457,4.173,4.173,0,0,1-.1-1.716,5.07,5.07,0,0,1,1.708-3.061,4.986,4.986,0,0,1,3.246-1.27h41.4a4.09,4.09,0,0,1,1.652.336,3.694,3.694,0,0,1,1.311.965,3.742,3.742,0,0,1,.779,1.457,4.207,4.207,0,0,1,.1,1.716,5.068,5.068,0,0,1-1.709,3.062A4.985,4.985,0,0,1,8739.865,4473.63Zm-40.291-7.788a3.963,3.963,0,0,0-2.585,1.014,4.052,4.052,0,0,0-1.362,2.443,3.178,3.178,0,0,0,.069,1.285,2.722,2.722,0,0,0,.57,1.078,2.687,2.687,0,0,0,.966.706,3.076,3.076,0,0,0,1.229.246h41.4a3.966,3.966,0,0,0,2.585-1.014,4.052,4.052,0,0,0,1.362-2.443,3.2,3.2,0,0,0-.069-1.285,2.722,2.722,0,0,0-.57-1.078,2.687,2.687,0,0,0-.966-.706,3.076,3.076,0,0,0-1.229-.246h-41.4Z" transform="translate(-8694.574 -4464.824)"></path></g><g transform="translate(8376.489 4235.57)"><path class="g" d="M8736.3,4527.114h-44.788a1.894,1.894,0,0,1-1.465-.645,1.932,1.932,0,0,1-.422-1.557h0a2.573,2.573,0,0,1,.867-1.557,2.529,2.529,0,0,1,1.648-.645h44.789a1.9,1.9,0,0,1,1.465.645,1.939,1.939,0,0,1,.422,1.557h0a2.58,2.58,0,0,1-.867,1.557A2.529,2.529,0,0,1,8736.3,4527.114Z" transform="translate(-8689.097 -4522.202)"></path><path class="b" d="M8734.812,4526.132h-44.788a2.534,2.534,0,0,1-1.026-.209,2.331,2.331,0,0,1-1.3-1.509,2.6,2.6,0,0,1-.062-1.064,3.086,3.086,0,0,1,1.041-1.865,3.04,3.04,0,0,1,1.979-.773h44.789a2.527,2.527,0,0,1,1.025.21,2.328,2.328,0,0,1,1.3,1.509,2.579,2.579,0,0,1,.063,1.064,3.085,3.085,0,0,1-1.042,1.865A3.038,3.038,0,0,1,8734.812,4526.132Zm-44.159-4.4a2.019,2.019,0,0,0-1.317.518,2.07,2.07,0,0,0-.7,1.248,1.566,1.566,0,0,0,.032.632,1.332,1.332,0,0,0,.277.527,1.305,1.305,0,0,0,.471.343,1.535,1.535,0,0,0,.6.119h44.788a2.022,2.022,0,0,0,1.318-.517,2.065,2.065,0,0,0,.694-1.248,1.566,1.566,0,0,0-.032-.632,1.32,1.32,0,0,0-.276-.527,1.291,1.291,0,0,0-.472-.342,1.522,1.522,0,0,0-.6-.119h-44.789Z" transform="translate(-8687.604 -4520.711)"></path></g><g transform="translate(8375.038 4245.718)"><path class="g" d="M8730.6,4567.008h-44.788a1.893,1.893,0,0,1-1.465-.645,1.941,1.941,0,0,1-.423-1.557h0a2.575,2.575,0,0,1,.868-1.557,2.527,2.527,0,0,1,1.648-.645h44.789a1.9,1.9,0,0,1,1.465.645,1.939,1.939,0,0,1,.422,1.557h0a2.581,2.581,0,0,1-.867,1.557A2.531,2.531,0,0,1,8730.6,4567.008Z" transform="translate(-8683.395 -4562.095)"></path><path class="b" d="M8729.109,4566.025H8684.32a2.527,2.527,0,0,1-1.025-.21,2.328,2.328,0,0,1-1.3-1.509,2.579,2.579,0,0,1-.062-1.064,3.079,3.079,0,0,1,1.042-1.865,3.037,3.037,0,0,1,1.979-.774h44.788a2.535,2.535,0,0,1,1.026.21,2.331,2.331,0,0,1,1.3,1.509,2.6,2.6,0,0,1,.062,1.064,3.084,3.084,0,0,1-1.041,1.865A3.038,3.038,0,0,1,8729.109,4566.025Zm-44.159-4.4a2.022,2.022,0,0,0-1.318.518,2.069,2.069,0,0,0-.694,1.248,1.566,1.566,0,0,0,.032.632,1.31,1.31,0,0,0,.277.527,1.3,1.3,0,0,0,.471.342,1.522,1.522,0,0,0,.6.119h44.789a2.026,2.026,0,0,0,1.318-.518,2.069,2.069,0,0,0,.694-1.248,1.6,1.6,0,0,0-.032-.632,1.325,1.325,0,0,0-.277-.527,1.294,1.294,0,0,0-.471-.342,1.523,1.523,0,0,0-.6-.12H8684.95Z" transform="translate(-8681.901 -4560.604)"></path></g><g transform="translate(8383.242 4188.335)"><path class="g" d="M8762.852,4341.432h-44.789a1.9,1.9,0,0,1-1.465-.645,1.936,1.936,0,0,1-.422-1.557h0a2.578,2.578,0,0,1,.867-1.557,2.531,2.531,0,0,1,1.649-.645h44.788a1.893,1.893,0,0,1,1.465.645,1.936,1.936,0,0,1,.423,1.557h0a2.574,2.574,0,0,1-.868,1.557A2.529,2.529,0,0,1,8762.852,4341.432Z" transform="translate(-8715.645 -4336.519)"></path><path class="b" d="M8761.358,4340.449H8716.57a2.531,2.531,0,0,1-1.026-.21,2.335,2.335,0,0,1-1.3-1.509,2.6,2.6,0,0,1-.062-1.064,3.082,3.082,0,0,1,1.041-1.865,3.041,3.041,0,0,1,1.979-.774h44.789a2.535,2.535,0,0,1,1.026.21,2.338,2.338,0,0,1,1.3,1.509,2.6,2.6,0,0,1,.062,1.064,3.084,3.084,0,0,1-1.041,1.865A3.039,3.039,0,0,1,8761.358,4340.449Zm-44.159-4.4a2.021,2.021,0,0,0-1.318.518,2.07,2.07,0,0,0-.694,1.248,1.6,1.6,0,0,0,.032.632,1.326,1.326,0,0,0,.277.527,1.305,1.305,0,0,0,.471.343,1.526,1.526,0,0,0,.6.119h44.788a2.026,2.026,0,0,0,1.319-.518,2.067,2.067,0,0,0,.693-1.248,1.584,1.584,0,0,0-.031-.632,1.334,1.334,0,0,0-.277-.527,1.308,1.308,0,0,0-.471-.342,1.521,1.521,0,0,0-.6-.12H8717.2Z" transform="translate(-8714.151 -4335.028)"></path></g><g transform="translate(8381.791 4198.483)"><path class="g" d="M8757.148,4381.325h-44.789a1.894,1.894,0,0,1-1.465-.645,1.936,1.936,0,0,1-.423-1.557h0a2.574,2.574,0,0,1,.868-1.557,2.529,2.529,0,0,1,1.648-.645h44.789a1.9,1.9,0,0,1,1.465.645,1.939,1.939,0,0,1,.422,1.557h0a2.58,2.58,0,0,1-.867,1.557A2.528,2.528,0,0,1,8757.148,4381.325Z" transform="translate(-8709.94 -4376.413)"></path><path class="b" d="M8755.655,4380.343h-44.789a2.542,2.542,0,0,1-1.026-.209,2.331,2.331,0,0,1-1.3-1.509,2.6,2.6,0,0,1-.062-1.064,3.091,3.091,0,0,1,1.042-1.865,3.04,3.04,0,0,1,1.979-.773h44.789a2.541,2.541,0,0,1,1.025.209,2.317,2.317,0,0,1,.816.6,2.344,2.344,0,0,1,.486.906,2.579,2.579,0,0,1,.062,1.064,3.085,3.085,0,0,1-1.041,1.865A3.04,3.04,0,0,1,8755.655,4380.343Zm-44.159-4.4a2.018,2.018,0,0,0-1.318.518,2.074,2.074,0,0,0-.7,1.247,1.586,1.586,0,0,0,.033.633,1.32,1.32,0,0,0,.277.527,1.3,1.3,0,0,0,.471.342,1.518,1.518,0,0,0,.6.119h44.789a2.019,2.019,0,0,0,1.318-.518,2.067,2.067,0,0,0,.694-1.247,1.586,1.586,0,0,0-.033-.633,1.292,1.292,0,0,0-.748-.869,1.517,1.517,0,0,0-.6-.119H8711.5Z" transform="translate(-8708.447 -4374.922)"></path></g><g transform="translate(8373.525 4256.301)"><path class="g" d="M8724.653,4608.613h-44.788a1.9,1.9,0,0,1-1.465-.645,1.933,1.933,0,0,1-.422-1.557h0a2.568,2.568,0,0,1,.867-1.557,2.529,2.529,0,0,1,1.648-.645h44.789a1.9,1.9,0,0,1,1.465.645,1.935,1.935,0,0,1,.422,1.557h0a2.579,2.579,0,0,1-.867,1.557A2.529,2.529,0,0,1,8724.653,4608.613Z" transform="translate(-8677.446 -4603.7)"></path><path class="b" d="M8723.161,4607.63h-44.788a2.535,2.535,0,0,1-1.026-.21,2.331,2.331,0,0,1-1.3-1.509,2.6,2.6,0,0,1-.062-1.064,3.085,3.085,0,0,1,1.041-1.865,3.04,3.04,0,0,1,1.979-.773h44.789a2.527,2.527,0,0,1,1.025.21,2.328,2.328,0,0,1,1.3,1.509,2.576,2.576,0,0,1,.063,1.063,3.085,3.085,0,0,1-1.042,1.865A3.041,3.041,0,0,1,8723.161,4607.63Zm-44.159-4.4a2.021,2.021,0,0,0-1.318.518,2.067,2.067,0,0,0-.694,1.247,1.6,1.6,0,0,0,.032.633,1.332,1.332,0,0,0,.277.527,1.3,1.3,0,0,0,.471.342,1.527,1.527,0,0,0,.6.12h44.788a2.02,2.02,0,0,0,1.318-.518,2.067,2.067,0,0,0,.694-1.247,1.584,1.584,0,0,0-.031-.632,1.321,1.321,0,0,0-.278-.527,1.287,1.287,0,0,0-.471-.342,1.522,1.522,0,0,0-.6-.119H8679Z" transform="translate(-8675.954 -4602.209)"></path></g><g transform="translate(8369.432 4281.474)"><path class="a" d="M8707.331,4714.686h-42.973a2.477,2.477,0,0,1-1.915-.843,2.533,2.533,0,0,1-.553-2.037l.412-2.879.411-2.879a3.371,3.371,0,0,1,1.135-2.036,3.3,3.3,0,0,1,2.157-.844h42.973a2.475,2.475,0,0,1,1.915.844,2.535,2.535,0,0,1,.553,2.036l-.412,2.879-.411,2.879a3.374,3.374,0,0,1-1.135,2.037A3.309,3.309,0,0,1,8707.331,4714.686Z" transform="translate(-8661.353 -4702.658)"></path><path class="b" d="M8705.84,4713.7h-42.973a3.161,3.161,0,0,1-1.277-.26,2.859,2.859,0,0,1-1.014-.748,2.9,2.9,0,0,1-.6-1.126,3.228,3.228,0,0,1-.076-1.326l.411-2.879.412-2.88a3.88,3.88,0,0,1,1.309-2.344,3.818,3.818,0,0,1,2.486-.973h42.973a3.153,3.153,0,0,1,1.276.261,2.856,2.856,0,0,1,1.015.748,2.9,2.9,0,0,1,.6,1.126,3.244,3.244,0,0,1,.077,1.326l-.411,2.879-.412,2.88a3.88,3.88,0,0,1-1.31,2.344A3.816,3.816,0,0,1,8705.84,4713.7Zm-41.326-11.519a2.8,2.8,0,0,0-1.826.716,2.864,2.864,0,0,0-.962,1.727l-.411,2.879-.412,2.88a2.23,2.23,0,0,0,.047.894,1.88,1.88,0,0,0,.4.748,1.837,1.837,0,0,0,.669.488,2.144,2.144,0,0,0,.854.17h42.973a2.8,2.8,0,0,0,1.826-.716,2.86,2.86,0,0,0,.961-1.727l.412-2.879.412-2.88a2.213,2.213,0,0,0-.048-.894,1.854,1.854,0,0,0-1.063-1.235,2.148,2.148,0,0,0-.854-.17h-42.973Z" transform="translate(-8659.86 -4701.167)"></path></g><g transform="translate(8577.314 4205.08)"><path class="h" d="M9495.579,4402.852a20.432,20.432,0,0,0-11.674,3.407c-2.987,2.105-4.835,5.014-4.835,8.227s1.848,6.121,4.835,8.226a21.7,21.7,0,0,0,23.348,0c2.987-2.1,4.835-5.014,4.835-8.226s-1.848-6.122-4.835-8.227A20.432,20.432,0,0,0,9495.579,4402.852Zm0,20.631a15.8,15.8,0,0,1-9.028-2.635,7.282,7.282,0,0,1,0-12.724,16.78,16.78,0,0,1,18.057,0,7.281,7.281,0,0,1,0,12.724A15.8,15.8,0,0,1,9495.579,4423.483Z" transform="translate(-9478.562 -4402.343)"></path><path class="i" d="M9494.088,4425.137a20.865,20.865,0,0,1-12.027-3.561c-3.082-2.2-4.99-5.234-4.99-8.582s1.908-6.383,4.99-8.583a22.1,22.1,0,0,1,24.055,0c3.082,2.2,4.99,5.234,4.99,8.583s-1.908,6.383-4.99,8.582A20.865,20.865,0,0,1,9494.088,4425.137Zm0-23.268a19.986,19.986,0,0,0-11.309,3.262c-2.9,2.015-4.691,4.8-4.691,7.863s1.795,5.848,4.691,7.863a21.232,21.232,0,0,0,22.617,0c2.9-2.015,4.691-4.8,4.691-7.863s-1.795-5.848-4.691-7.863A19.986,19.986,0,0,0,9494.088,4401.87Zm0,20.631a16.236,16.236,0,0,1-9.383-2.787,7.744,7.744,0,0,1,0-13.437,17.19,17.19,0,0,1,18.768,0,7.745,7.745,0,0,1,0,13.438A16.243,16.243,0,0,1,9494.088,4422.5Zm0-17.995a15.357,15.357,0,0,0-8.664,2.489,6.8,6.8,0,0,0,0,12,16.324,16.324,0,0,0,17.329,0,6.8,6.8,0,0,0,0-12A15.361,15.361,0,0,0,9494.088,4404.506Z" transform="translate(-9477.07 -4400.852)"></path></g><g transform="translate(8577.314 4206.732)"><path class="h" d="M9495.579,4409.348a20.428,20.428,0,0,0-11.674,3.408c-2.987,2.1-4.835,5.014-4.835,8.226s1.848,6.122,4.835,8.227a21.7,21.7,0,0,0,23.348,0c2.987-2.105,4.835-5.014,4.835-8.227s-1.848-6.121-4.835-8.226A20.428,20.428,0,0,0,9495.579,4409.348Zm0,20.631a15.8,15.8,0,0,1-9.028-2.635,7.282,7.282,0,0,1,0-12.724,16.783,16.783,0,0,1,18.057,0,7.281,7.281,0,0,1,0,12.724A15.8,15.8,0,0,1,9495.579,4429.979Z" transform="translate(-9478.562 -4408.84)"></path><path class="i" d="M9494.088,4431.634a20.865,20.865,0,0,1-12.027-3.561c-3.082-2.2-4.99-5.234-4.99-8.582s1.908-6.383,4.99-8.582a22.094,22.094,0,0,1,24.055,0c3.082,2.2,4.99,5.234,4.99,8.582s-1.908,6.383-4.99,8.582A20.865,20.865,0,0,1,9494.088,4431.634Zm0-23.268a19.986,19.986,0,0,0-11.309,3.262c-2.9,2.015-4.691,4.8-4.691,7.863s1.795,5.849,4.691,7.863a21.232,21.232,0,0,0,22.617,0c2.9-2.014,4.691-4.8,4.691-7.863s-1.795-5.848-4.691-7.863A19.986,19.986,0,0,0,9494.088,4408.367Zm0,20.631a16.236,16.236,0,0,1-9.383-2.787,7.744,7.744,0,0,1,0-13.437,17.188,17.188,0,0,1,18.768,0,7.745,7.745,0,0,1,0,13.438A16.243,16.243,0,0,1,9494.088,4429Zm0-17.995a15.357,15.357,0,0,0-8.664,2.489,6.8,6.8,0,0,0,0,12,16.327,16.327,0,0,0,17.329,0,6.8,6.8,0,0,0,0-12A15.361,15.361,0,0,0,9494.088,4411Z" transform="translate(-9477.07 -4407.349)"></path></g><g transform="translate(8557.582 4246.262)"><path class="h" d="M9473.933,4600.958a36.216,36.216,0,1,1-10.607-25.609A36.1,36.1,0,0,1,9473.933,4600.958Z" transform="translate(-9400.991 -4564.233)"></path><path class="i" d="M9436.226,4636.192a36.766,36.766,0,1,1,25.956-10.769A36.608,36.608,0,0,1,9436.226,4636.192Zm0-72.433a35.747,35.747,0,1,0,25.237,10.47A35.6,35.6,0,0,0,9436.226,4563.76Z" transform="translate(-9399.5 -4562.742)"></path></g><g transform="translate(8557.582 4252.13)"><path class="h" d="M9473.933,4624.027a36.216,36.216,0,1,1-10.607-25.609A36.105,36.105,0,0,1,9473.933,4624.027Z" transform="translate(-9400.991 -4587.303)"></path><path class="i" d="M9436.226,4659.262a36.766,36.766,0,1,1,25.956-10.769A36.61,36.61,0,0,1,9436.226,4659.262Zm0-72.433a35.747,35.747,0,1,0,25.237,10.47A35.594,35.594,0,0,0,9436.226,4586.83Z" transform="translate(-9399.5 -4585.812)"></path></g><g transform="translate(8583.983 4243.294)"><path class="h" d="M9526.025,4553.077v3.905c0,.758-1.16,1.444-3.037,1.94a33.875,33.875,0,0,1-14.666,0c-1.876-.5-3.037-1.182-3.037-1.94v-3.905h20.74Z" transform="translate(-9504.776 -4552.568)"></path><path class="i" d="M9514.164,4558.743a30.6,30.6,0,0,1-7.467-.825c-2.044-.546-3.412-1.359-3.412-2.427v-3.905a.51.51,0,0,1,.509-.509h20.74a.508.508,0,0,1,.509.509v3.905c0,1.067-1.368,1.88-3.412,2.427A30.6,30.6,0,0,1,9514.164,4558.743Zm-9.861-6.648v3.4c0,.39.847.948,2.5,1.41a33.24,33.24,0,0,0,14.717,0c1.656-.461,2.5-1.02,2.5-1.41v-3.4H9504.3Z" transform="translate(-9503.285 -4551.077)"></path></g><g transform="translate(8583.983 4241.68)"><path class="h" d="M9526.025,4548.347c0,.445-1.16.849-3.037,1.141a57.12,57.12,0,0,1-14.666,0c-1.876-.292-3.037-.7-3.037-1.141s1.161-.849,3.037-1.141a57.12,57.12,0,0,1,14.666,0C9524.865,4547.5,9526.025,4547.9,9526.025,4548.347Z" transform="translate(-9504.776 -4546.224)"></path><path class="i" d="M9514.164,4548.978c-1.4,0-2.754-.042-4.01-.124s-2.409-.2-3.4-.355a8.748,8.748,0,0,1-2.881-.795c-.484-.284-.588-.576-.588-.849s.1-.565.588-.848a8.758,8.758,0,0,1,2.881-.8c.991-.155,2.145-.274,3.4-.355s2.612-.124,4.01-.124,2.755.042,4.01.124,2.41.2,3.4.355a8.741,8.741,0,0,1,2.88.8c.485.283.588.575.588.848s-.1.565-.588.849a8.732,8.732,0,0,1-2.88.795c-.991.154-2.146.274-3.4.355S9515.562,4548.978,9514.164,4548.978Zm-9.746-2.123a10.675,10.675,0,0,0,3.189.735,58.337,58.337,0,0,0,13.113,0,1.68,1.68,0,1,0,0-1.471,58.337,58.337,0,0,0-13.113,0A10.707,10.707,0,0,0,9504.418,4546.855Zm19.64.117h0Z" transform="translate(-9503.285 -4544.733)"></path></g><g transform="translate(8579.985 4237.406)"><path class="h" d="M9517.2,4529.93v5.2c0,1.01-1.546,1.923-4.046,2.584a45.1,45.1,0,0,1-19.534,0c-2.5-.661-4.046-1.574-4.046-2.584v-5.2H9517.2Z" transform="translate(-9489.062 -4529.422)"></path><path class="i" d="M9501.892,4537.8a41.34,41.34,0,0,1-9.829-1.057c-2.69-.7-4.492-1.74-4.492-3.106v-5.2a.509.509,0,0,1,.509-.509h27.626a.509.509,0,0,1,.509.509v5.2c0,1.366-1.8,2.407-4.492,3.106A41.355,41.355,0,0,1,9501.892,4537.8Zm-13.3-8.855v4.693c0,.657,1.266,1.443,3.561,2.065a44.486,44.486,0,0,0,19.486,0c2.3-.622,3.562-1.408,3.562-2.065v-4.693h-26.608Z" transform="translate(-9487.57 -4527.931)"></path></g><g transform="translate(8579.985 4235.256)"><path class="h" d="M9517.2,4523.629c0,.594-1.546,1.131-4.046,1.52a76.1,76.1,0,0,1-19.534,0c-2.5-.389-4.046-.926-4.046-1.52s1.547-1.131,4.046-1.52a76.1,76.1,0,0,1,19.534,0C9515.65,4522.5,9517.2,4523.036,9517.2,4523.629Z" transform="translate(-9489.062 -4520.971)"></path><path class="i" d="M9501.893,4524.8c-1.857,0-3.661-.057-5.328-.164s-3.2-.267-4.518-.471a11.792,11.792,0,0,1-3.727-1.012c-.623-.352-.75-.7-.75-1.011s.127-.66.75-1.011a11.8,11.8,0,0,1,3.727-1.011c1.316-.2,2.85-.364,4.518-.471s3.471-.165,5.328-.165,3.66.057,5.328.165,3.2.267,4.517.471a11.778,11.778,0,0,1,3.726,1.011c.624.351.751.7.751,1.011s-.127.66-.751,1.011a11.775,11.775,0,0,1-3.726,1.012c-1.316.2-2.849.363-4.517.471S9503.75,4524.8,9501.893,4524.8Zm-13.271-2.658c.318.346,1.705.756,3.979,1.08a77.245,77.245,0,0,0,18.586,0c2.272-.324,3.66-.734,3.979-1.08-.318-.346-1.706-.756-3.979-1.08a77.245,77.245,0,0,0-18.586,0C9490.326,4521.382,9488.939,4521.792,9488.621,4522.138Zm26.588.06h0Z" transform="translate(-9487.57 -4519.48)"></path></g><g transform="translate(8589.738 4228.109)"><path class="h" d="M9536.03,4493.385v9.031c0,.146-.454.279-1.189.375a26.53,26.53,0,0,1-5.741,0c-.734-.1-1.189-.229-1.189-.375v-9.031h8.12Z" transform="translate(-9527.401 -4492.876)"></path><path class="i" d="M9530.479,4501.964a12.7,12.7,0,0,1-4-.393c-.571-.218-.571-.478-.571-.646v-9.031a.51.51,0,0,1,.509-.509h8.12a.51.51,0,0,1,.509.509v9.031c0,.168,0,.428-.571.646A12.7,12.7,0,0,1,9530.479,4501.964Zm-3.551-1.306a7.943,7.943,0,0,0,1.234.19c.6.057,1.374.1,2.316.1s1.721-.042,2.317-.1a7.965,7.965,0,0,0,1.234-.19V4492.4h-7.1v8.256Z" transform="translate(-9525.91 -4491.385)"></path></g><g transform="translate(8589.738 4226.227)"><path class="h" d="M9536.03,4487.868c0,.52-.454.99-1.189,1.331a7.75,7.75,0,0,1-5.741,0c-.734-.341-1.189-.811-1.189-1.331s.455-.99,1.189-1.331a7.75,7.75,0,0,1,5.741,0C9535.576,4486.878,9536.03,4487.348,9536.03,4487.868Z" transform="translate(-9527.401 -4485.477)"></path><path class="i" d="M9530.479,4488.767a7.192,7.192,0,0,1-3.262-.684,1.767,1.767,0,0,1,0-3.413,8.11,8.11,0,0,1,6.522,0,1.767,1.767,0,0,1,0,3.413A7.19,7.19,0,0,1,9530.479,4488.767Zm0-3.764a6.514,6.514,0,0,0-2.589.477c-.617.273-.963.617-.963.9s.346.623.963.9a7.267,7.267,0,0,0,5.177,0c.617-.273.963-.617.963-.9s-.346-.624-.963-.9A6.508,6.508,0,0,0,9530.479,4485Z" transform="translate(-9525.91 -4483.985)"></path></g><g transform="translate(8585.679 4222.682)"><path class="h" d="M9528.19,4472.049v5.2c0,1.009-.909,1.923-2.378,2.583a15.943,15.943,0,0,1-11.483,0c-1.469-.661-2.378-1.574-2.378-2.583v-5.2h16.239Z" transform="translate(-9511.442 -4471.541)"></path><path class="i" d="M9518.579,4479.923a14.48,14.48,0,0,1-6.128-1.206c-1.553-.749-2.5-1.79-2.5-2.957v-5.2a.51.51,0,0,1,.509-.509H9526.7a.51.51,0,0,1,.509.509v5.2c0,1.167-.947,2.208-2.5,2.957A14.481,14.481,0,0,1,9518.579,4479.923Zm-7.61-8.855v4.693c0,.744.781,1.53,2.123,2.13a15.348,15.348,0,0,0,10.976,0c1.342-.6,2.123-1.387,2.123-2.13v-4.693h-15.222Z" transform="translate(-9509.951 -4470.05)"></path></g><g transform="translate(8585.679 4220.533)"><path class="h" d="M9528.19,4465.749c0,.593-.909,1.131-2.378,1.52a26.5,26.5,0,0,1-11.483,0c-1.469-.389-2.378-.927-2.378-1.52s.909-1.131,2.378-1.52a26.5,26.5,0,0,1,11.483,0C9527.281,4464.618,9528.19,4465.155,9528.19,4465.749Z" transform="translate(-9511.442 -4463.091)"></path><path class="i" d="M9518.58,4466.916a24.176,24.176,0,0,1-5.873-.644c-1.638-.436-2.756-1.1-2.756-2.014s1.118-1.577,2.756-2.014a27.1,27.1,0,0,1,11.745,0c1.638.437,2.756,1.1,2.756,2.014s-1.118,1.578-2.756,2.014A24.173,24.173,0,0,1,9518.58,4466.916Zm0-4.3a22.125,22.125,0,0,0-5.689.636c-1.274.349-1.922.759-1.922,1s.647.656,1.922,1a25.772,25.772,0,0,0,11.378,0c1.274-.349,1.922-.759,1.922-1s-.647-.655-1.922-1A22.122,22.122,0,0,0,9518.58,4462.618Z" transform="translate(-9509.951 -4461.6)"></path></g><g transform="translate(8562.638 4257.186)"><path class="g" d="M9483.7,4638.845a31.161,31.161,0,1,1-9.127-22.034A31.065,31.065,0,0,1,9483.7,4638.845Z" transform="translate(-9420.864 -4607.176)"></path><path class="b" d="M9451.043,4669.025a31.706,31.706,0,1,1,22.384-9.287A31.571,31.571,0,0,1,9451.043,4669.025Zm0-62.322a30.687,30.687,0,1,0,21.664,8.988A30.557,30.557,0,0,0,9451.043,4606.7Z" transform="translate(-9419.373 -4605.685)"></path></g><g transform="translate(8591.669 4264.89)"><path class="j" d="M9536.4,4637.969h0a.906.906,0,0,0-.905.9v21.317a.906.906,0,0,0,.905.9h0a.9.9,0,0,0,.9-.9v-21.317a.9.9,0,0,0-.9-.9Z" transform="translate(-9534.987 -4637.461)"></path><path class="b" d="M9534.91,4660.113a1.416,1.416,0,0,1-1.414-1.413v-21.317a1.414,1.414,0,0,1,2.827,0V4658.7a1.415,1.415,0,0,1-1.413,1.413Zm0-23.125a.4.4,0,0,0-.4.4V4658.7a.4.4,0,0,0,.4.4.4.4,0,0,0,.4-.4v-21.317a.4.4,0,0,0-.4-.4Z" transform="translate(-9533.496 -4635.97)"></path></g><g transform="translate(8594.064 4287.657)"><path class="j" d="M9568.04,4728.376h0a.9.9,0,0,0-.905-.9h-21.316a.9.9,0,0,0-.9.9h0a.9.9,0,0,0,.9.9h21.316a.9.9,0,0,0,.905-.9Z" transform="translate(-9544.405 -4726.962)"></path><path class="b" d="M9565.644,4728.3h-21.315a1.413,1.413,0,1,1,0-2.827h21.315a1.413,1.413,0,1,1,0,2.827Zm-21.315-1.809a.4.4,0,1,0,0,.792h21.315a.4.4,0,1,0,0-.792h-21.315Z" transform="translate(-9542.914 -4725.471)"></path></g><g transform="translate(8588.431 4284.419)"><path class="j" d="M9531.053,4718.886a4.142,4.142,0,1,1-1.213-2.929A4.13,4.13,0,0,1,9531.053,4718.886Z" transform="translate(-9522.259 -4714.234)"></path><path class="b" d="M9525.419,4722.046a4.657,4.657,0,1,1,3.287-1.364A4.637,4.637,0,0,1,9525.419,4722.046Zm0-8.285a3.638,3.638,0,1,0,2.568,1.065A3.622,3.622,0,0,0,9525.419,4713.761Z" transform="translate(-9520.768 -4712.743)"></path></g><g transform="translate(8275.153 4161.753)"><path class="g" d="M8363.564,4239.345h-68.913a3.407,3.407,0,0,1-3.405-3.406h0a3.407,3.407,0,0,1,3.405-3.406h68.913a3.407,3.407,0,0,1,3.406,3.406h0a3.407,3.407,0,0,1-3.406,3.406Z" transform="translate(-8290.737 -4232.024)"></path><path class="b" d="M8362.074,4238.362H8293.16a3.915,3.915,0,0,1,0-7.829h68.914a3.915,3.915,0,0,1,0,7.829Zm-68.914-6.812a2.9,2.9,0,0,0,0,5.794h68.914a2.9,2.9,0,0,0,0-5.794H8293.16Z" transform="translate(-8289.246 -4230.533)"></path></g><g transform="translate(8307.607 4182.187)"><path class="g" d="M8465.9,4319.671h-43.672a3.406,3.406,0,0,1-3.405-3.405h0a3.407,3.407,0,0,1,3.405-3.406H8465.9a3.407,3.407,0,0,1,3.406,3.406h0a3.406,3.406,0,0,1-3.406,3.405Z" transform="translate(-8418.314 -4312.351)"></path><path class="b" d="M8464.409,4318.688h-43.671a3.915,3.915,0,0,1,0-7.829h43.671a3.915,3.915,0,0,1,0,7.829Zm-43.671-6.812a2.9,2.9,0,0,0,0,5.794h43.671a2.9,2.9,0,0,0,0-5.794h-43.671Z" transform="translate(-8416.823 -4310.859)"></path></g><g transform="translate(8270.346 4199.816)"><path class="g" d="M8339.455,4388.972H8275.75a3.405,3.405,0,0,1-3.405-3.406h0a3.4,3.4,0,0,1,3.405-3.405h63.705a3.406,3.406,0,0,1,3.406,3.405h0a3.407,3.407,0,0,1-3.406,3.406Z" transform="translate(-8271.836 -4381.652)"></path><path class="b" d="M8337.965,4387.989H8274.26a3.915,3.915,0,0,1,0-7.829h63.705a3.915,3.915,0,0,1,0,7.829Zm-63.705-6.812a2.9,2.9,0,0,0,0,5.794h63.705a2.9,2.9,0,0,0,0-5.794H8274.26Z" transform="translate(-8270.346 -4380.16)"></path></g></g></svg>