<svg xmlns="http://www.w3.org/2000/svg" width="479" height="452" viewBox="0 0 479 452"><defs><style>.a,.c,.d,.e{fill:#6b7e8f;}.a{font-size:16px;font-family:Rubik-Bold, Rubik;font-weight:700;}.b{fill:#01c7d4;}.c,.e,.g{font-size:14px;}.c{font-family:Rubik-Regular, Rubik;}.d{opacity:0.05;}.e,.g{font-family:Consolas;}.f{fill:#ff4451;}.g{fill:#fff;}</style></defs><g transform="translate(-1037 -1584)"><g transform="translate(0 1.739)"><text class="a" transform="translate(1316 1759.261)"><tspan x="0" y="0">OpenAPI/Swagger</tspan></text><text class="a" transform="translate(1063 1597.261)"><tspan x="0" y="0">RAML</tspan></text><text class="a" transform="translate(1063 1921.261)"><tspan x="0" y="0">WSDL - W3C</tspan></text><text class="a" transform="translate(1063 1678.261)"><tspan x="0" y="0">Postman Collection</tspan></text><text class="a" transform="translate(1063 1759.261)"><tspan x="0" y="0">Insomnia Export Format</tspan></text><text class="a" transform="translate(1063 1840.261)"><tspan x="0" y="0">API Blueprint</tspan></text><circle class="b" cx="8.586" cy="8.586" r="8.586" transform="translate(1290 1745.261)"></circle><circle class="b" cx="8.586" cy="8.586" r="8.586" transform="translate(1037 1583.261)"></circle><circle class="b" cx="8.586" cy="8.586" r="8.586" transform="translate(1037 1907.261)"></circle><circle class="b" cx="8.586" cy="8.586" r="8.586" transform="translate(1037 1664.261)"></circle><circle class="b" cx="8.586" cy="8.586" r="8.586" transform="translate(1037 1745.261)"></circle><circle class="b" cx="8.586" cy="8.586" r="8.586" transform="translate(1037 1826.261)"></circle><text class="c" transform="translate(1100 1624.361)"><tspan x="0" y="0" xml:space="preserve">(YAML),           (YAML)</tspan></text><text class="c" transform="translate(1100 1948.361)"><tspan x="0" y="0">(XML)</tspan></text><text class="c" transform="translate(1100 1705.361)"><tspan x="0" y="0" xml:space="preserve">(JSON),            (JSON)</tspan></text><text class="c" transform="translate(1092 1867.361)"><tspan x="0" y="0">(Markdown)</tspan></text><text class="c" transform="translate(1085 1786.361)"><tspan x="0" y="0">(JSON/YAML)</tspan></text><g transform="translate(416 1027.261)"><rect class="d" width="31" height="21" rx="3" transform="translate(647 581)"></rect><text class="e" transform="translate(651 596)"><tspan x="0" y="0">1.0</tspan></text></g><g transform="translate(416 1351.261)"><rect class="d" width="31" height="21" rx="3" transform="translate(647 581)"></rect><text class="e" transform="translate(651 596)"><tspan x="0" y="0">1.1</tspan></text></g><g transform="translate(416 1108.261)"><rect class="d" width="31" height="21" rx="3" transform="translate(647 581)"></rect><text class="e" transform="translate(651 596)"><tspan x="0" y="0">2.0</tspan></text></g><g transform="translate(416 1270.261)"><rect class="d" width="23" height="21" rx="3" transform="translate(647 581)"></rect><text class="e" transform="translate(651 596)"><tspan x="0" y="0">1A</tspan></text></g><g transform="translate(416 1189.261)"><rect class="d" width="16" height="21" rx="3" transform="translate(647 581)"></rect><text class="e" transform="translate(651 596)"><tspan x="0" y="0">3</tspan></text></g><g transform="translate(506 1108.261)"><rect class="d" width="31" height="21" rx="3" transform="translate(647 581)"></rect><text class="e" transform="translate(651 596)"><tspan x="0" y="0">1.0</tspan></text></g><g transform="translate(506 1027.261)"><rect class="d" width="31" height="21" rx="3" transform="translate(647 581)"></rect><text class="e" transform="translate(651 596)"><tspan x="0" y="0">0.8</tspan></text></g><text class="a" transform="translate(1063 2002.261)"><tspan x="0" y="0">WADL - W3C</tspan></text><text class="a" transform="translate(1316 1597.261)"><tspan x="0" y="0">GraphQL Schema</tspan></text><text class="a" transform="translate(1316 1678.261)"><tspan x="0" y="0">APIMATIC Format</tspan></text><circle class="b" cx="8.586" cy="8.586" r="8.586" transform="translate(1037 1988.261)"></circle><circle class="b" cx="8.586" cy="8.586" r="8.586" transform="translate(1290 1583.261)"></circle><circle class="b" cx="8.586" cy="8.586" r="8.586" transform="translate(1290 1664.261)"></circle><text class="c" transform="translate(1108 2029.361)"><tspan x="0" y="0">(XML)</tspan></text><text class="c" transform="translate(1316 1624.361)"><tspan x="0" y="0">(GraphQL)</tspan></text><text class="c" transform="translate(1316 1705.361)"><tspan x="0" y="0">(JSON)</tspan></text><g transform="translate(416 1432.261)"><rect class="d" width="39" height="21" rx="3" transform="translate(647 581)"></rect><text class="e" transform="translate(651 596)"><tspan x="0" y="0">2009</tspan></text></g></g><text class="c" transform="translate(1314 1777)"><tspan x="0" y="13" xml:space="preserve">          (JSON/YAML),</tspan></text><text class="c" transform="translate(1314 1804)"><tspan x="0" y="13" xml:space="preserve">          (JSON/YAML),</tspan></text><text class="c" transform="translate(1314 1831)"><tspan x="0" y="13" xml:space="preserve">          (JSON/YAML),</tspan></text><text class="c" transform="translate(1314 1858)"><tspan x="0" y="13" xml:space="preserve">          (JSON)</tspan></text><g transform="translate(667 1194)"><rect class="d" width="31" height="21" rx="3" transform="translate(647 581)"></rect><text class="e" transform="translate(651 596)"><tspan x="0" y="0">3.1</tspan></text></g><g transform="translate(799.608 1194)"><path class="f" d="M3.065,0H28.611a3.033,3.033,0,0,1,3.065,3V18a3.033,3.033,0,0,1-3.065,3H3.065A3.033,3.033,0,0,1,0,18V3A3.033,3.033,0,0,1,3.065,0Z" transform="translate(647 581)"></path><text class="g" transform="translate(651.392 596)"><tspan x="0" y="0">New</tspan></text></g><g transform="translate(667 1221)"><rect class="d" width="31" height="21" rx="3" transform="translate(647 581)"></rect><text class="e" transform="translate(651 596)"><tspan x="0" y="0">3.0</tspan></text></g><g transform="translate(667 1248)"><rect class="d" width="31" height="21" rx="3" transform="translate(647 581)"></rect><text class="e" transform="translate(651 596)"><tspan x="0" y="0">2.0</tspan></text></g><g transform="translate(667 1275)"><rect class="d" width="31" height="21" rx="3" transform="translate(647 581)"></rect><text class="e" transform="translate(651 596)"><tspan x="0" y="0">1.x</tspan></text></g></g></svg>