<svg xmlns="http://www.w3.org/2000/svg" viewBox="0 0 2017 1075.09"><defs><style>.cls-1{isolation:isolate;}.cls-12,.cls-2{fill-rule:evenodd;}.cls-2,.cls-8{mix-blend-mode:multiply;}.cls-12,.cls-16,.cls-2,.cls-8{opacity:0.21;}.cls-3{fill:#003994;}.cls-13,.cls-3,.cls-4,.cls-5,.cls-6,.cls-7{stroke:#24313e;}.cls-13,.cls-14,.cls-15,.cls-3,.cls-4,.cls-5,.cls-6,.cls-7{stroke-miterlimit:10;stroke-width:2px;}.cls-4{fill:#9caab8;}.cls-11,.cls-5{fill:#0c7ff2;}.cls-12,.cls-16,.cls-6{fill:#ebf0f5;}.cls-7{fill:#d9dee5;}.cls-9{fill:#3ab2d0;}.cls-10{fill:#fff;}.cls-12,.cls-16{mix-blend-mode:overlay;}.cls-13{fill:#6b7e8f;}.cls-14{fill:#24313e;stroke:#031439;}.cls-15{fill:#fdfdfd;stroke:#000;}.cls-17{fill:none;}</style></defs><g class="cls-1"><g id="Layer_2" data-name="Layer 2"><g id="Layer_1-2" data-name="Layer 1"><path class="cls-2" d="M389.44,913.13c0-5,278.49-9.59,640.65-9.59S1469,911.37,1469,916.36s-77.61,14.89-439.78,14.89S389.44,918.11,389.44,913.13Z"></path><path class="cls-3" d="M1474.93,214.3v40.18H486.76V214.3a60.91,60.91,0,0,1,60.93-60.91H1414A60.91,60.91,0,0,1,1474.93,214.3Z"></path><path class="cls-4" d="M1474.93,254.48v596.1A60.91,60.91,0,0,1,1414,911.49H547.69a60.92,60.92,0,0,1-60.93-60.91V254.48Z"></path><path class="cls-5" d="M1450.74,214.3v40.18H462.57V214.3a60.91,60.91,0,0,1,60.93-60.91h866.31A60.91,60.91,0,0,1,1450.74,214.3Z"></path><path class="cls-6" d="M1450.74,254.48V879a32.52,32.52,0,0,1-32.53,32.53H495.11A32.54,32.54,0,0,1,462.57,879V254.48Z"></path><rect class="cls-7" x="791.61" y="327.64" width="612.94" height="505.04" rx="7.48"></rect><polygon class="cls-8" points="1474.93 490.34 1316.69 909.33 1414.55 807.45 1474.93 637.44 1474.93 490.34"></polygon><path class="cls-8" d="M478.2,899.26h948.66a3.39,3.39,0,0,1,3.39,3.39v5.45a3.39,3.39,0,0,1-3.39,3.39H483.65a8.84,8.84,0,0,1-8.84-8.84v0A3.39,3.39,0,0,1,478.2,899.26Z"></path><rect class="cls-9" x="506.39" y="327.64" width="229.45" height="36.33" rx="2.66"></rect><rect class="cls-9" x="506.39" y="540.83" width="229.45" height="36.33" rx="2.58"></rect><rect class="cls-10" x="506.39" y="601.77" width="229.45" height="37.91" rx="1.37"></rect><rect class="cls-10" x="506.39" y="670.18" width="229.45" height="37.91" rx="1.37"></rect><rect class="cls-10" x="506.39" y="395.17" width="229.45" height="37.91" rx="1.37"></rect><rect class="cls-10" x="506.39" y="463.58" width="229.45" height="37.91" rx="1.37"></rect><rect class="cls-11" x="508.4" y="778.96" width="227.3" height="53.73" rx="6.16"></rect><path class="cls-12" d="M1399.42,152.27c0,6.52-23.71,21.52-335.84,21.52S512.93,163.54,512.93,157s238.52-6.84,550.65-6.84S1399.42,145.75,1399.42,152.27Z"></path><path class="cls-13" d="M1554.69,291.91l-155.8,500.55A3.9,3.9,0,0,1,1394,795l-68.58-22.6a3.9,3.9,0,0,1-2.5-4.86L1478.67,267a3.9,3.9,0,0,1,4.94-2.54l68.58,22.6A3.89,3.89,0,0,1,1554.69,291.91Z"></path><polygon class="cls-14" points="1343.15 872.85 1316.36 911.5 1318.35 863.91 1343.15 872.85"></polygon><polygon class="cls-15" points="1396.82 795.43 1343.15 872.85 1318.35 863.91 1322.25 770.96 1396.82 795.43"></polygon><path class="cls-14" d="M1495.56,181.57h95.22a0,0,0,0,1,0,0v79.91a0,0,0,0,1,0,0h-95.22a17,17,0,0,1-17-17V198.56a17,17,0,0,1,17-17Z" transform="translate(2202.27 -1177.98) rotate(107.29)"></path><polygon class="cls-16" points="1346 765.9 1327.95 760.37 1483.1 265.08 1501.14 270.62 1346 765.9"></polygon><path class="cls-16" d="M1496.26,261.33h0a9.44,9.44,0,0,1-6.26-11.78l21.09-69.07a9.44,9.44,0,0,1,11.8-6.27h0a9.44,9.44,0,0,1,6.25,11.78l-21.09,69.07A9.43,9.43,0,0,1,1496.26,261.33Z"></path><path class="cls-16" d="M727.56,550.05c0,2.19-47.73,5.54-104.67,5.54s-101.5-3.35-101.5-5.54,44.57-2.38,101.5-2.38S727.56,547.87,727.56,550.05Z"></path><path class="cls-16" d="M727.56,334.76c0,2.19-47.73,5.54-104.67,5.54s-101.5-3.35-101.5-5.54,44.57-2.38,101.5-2.38S727.56,332.58,727.56,334.76Z"></path><path class="cls-16" d="M727.56,782.77c0,2.18-47.73,5.53-104.67,5.53s-101.5-3.35-101.5-5.53,44.57-2.38,101.5-2.38S727.56,780.58,727.56,782.77Z"></path><path class="cls-8" d="M1373.63,788.3l-57.27,123.19,80.46-116.06,187.63-599.38s4-16.53-11.18-21.27S1373.63,788.3,1373.63,788.3Z"></path><rect class="cls-17" width="2017" height="1075.09"></rect></g></g></g></svg>