<svg xmlns="http://www.w3.org/2000/svg" viewBox="0 0 776 437"><defs><style>.cls-1{isolation:isolate;}.cls-2{fill:#fff;}.cls-3{mix-blend-mode:multiply;opacity:0.1;}.cls-4{fill:#f5f7f9;}.cls-5{fill:#24313e;}.cls-6{fill:#6b7e8f;}.cls-7{mix-blend-mode:overlay;opacity:0.21;}.cls-8{fill:#ebf0f5;}.cls-9{fill:#e7e9f2;}.cls-10{fill:#455666;}.cls-11{fill:#f4e969;}.cls-12{fill:#031439;}.cls-13{fill:#0c7ff2;}</style></defs><g class="cls-1"><g id="Layer_2" data-name="Layer 2"><g id="Layer_1-2" data-name="Layer 1"><rect class="cls-2" width="776" height="437"></rect><g class="cls-3"><path d="M310.22,373.56s62.07,35.92,191.11,43.83S467.49,372,467.49,372Z"></path></g><rect class="cls-4" x="305.97" y="122.34" width="161.52" height="252.98" rx="15.38"></rect><path class="cls-5" d="M461.31,375.72H312.15a6.59,6.59,0,0,1-6.58-6.58V128.52a6.59,6.59,0,0,1,6.58-6.58H461.31a6.59,6.59,0,0,1,6.59,6.58V369.14A6.59,6.59,0,0,1,461.31,375.72Zm-149.16-253a5.78,5.78,0,0,0-5.77,5.78V369.14a5.78,5.78,0,0,0,5.77,5.78H461.31a5.78,5.78,0,0,0,5.78-5.78V128.52a5.78,5.78,0,0,0-5.78-5.78Z"></path><ellipse class="cls-4" cx="386.53" cy="373.56" rx="76.31" ry="7.01"></ellipse><path class="cls-5" d="M386.53,381c-20.39,0-39.57-.73-54-2.06-22.72-2.08-22.72-4.54-22.72-5.35s0-3.27,22.72-5.36c14.42-1.32,33.6-2.05,54-2.05s39.58.73,54,2.05c22.72,2.09,22.72,4.55,22.72,5.36s0,3.27-22.72,5.35C426.11,380.24,406.93,381,386.53,381Zm0-14c-20.37,0-39.52.73-53.92,2.05-21.37,2-22,4.3-22,4.56s.62,2.59,22,4.55c14.4,1.32,33.55,2.05,53.92,2.05s39.53-.73,53.93-2.05c21.37-2,22-4.29,22-4.55s-.61-2.59-22-4.56C426.06,367.68,406.91,367,386.53,367Z"></path><path class="cls-6" d="M467,105v16c0,9.47-35.9,17.14-80.18,17.14s-80.18-7.67-80.18-17.14V105h51.74c8.84-.72,18.42-1.11,28.44-1.11s19.6.39,28.43,1.11Z"></path><path class="cls-5" d="M386.81,138.62c-21.44,0-41.6-1.78-56.77-5-15.35-3.28-23.8-7.73-23.8-12.52V104.63h52.14c9.07-.73,18.65-1.1,28.43-1.1s19.37.37,28.47,1.11H467.4v16.44c0,4.8-8.45,9.24-23.8,12.52C428.43,136.84,408.26,138.62,386.81,138.62ZM307,105.44v15.63c0,4.31,8.44,8.59,23.17,11.74,15.11,3.23,35.22,5,56.6,5s41.5-1.78,56.62-5c14.72-3.15,23.16-7.43,23.16-11.74V105.44H415.25c-9.11-.74-18.67-1.11-28.44-1.11s-19.32.37-28.4,1.11Z"></path><g class="cls-7"><path class="cls-8" d="M467,105v2.64c0,9.47-35.9,17.15-80.18,17.15s-80.18-7.68-80.18-17.15V105h51.74c8.84-.72,18.42-1.11,28.44-1.11s19.6.39,28.43,1.11Z"></path></g><ellipse class="cls-9" cx="386.82" cy="105.04" rx="80.18" ry="17.15"></ellipse><path class="cls-5" d="M386.82,122.59c-21.45,0-41.61-1.79-56.78-5-15.35-3.28-23.8-7.72-23.8-12.51s8.45-9.24,23.8-12.52c15.17-3.25,35.33-5,56.78-5s41.61,1.78,56.78,5C459,95.8,467.4,100.25,467.4,105s-8.45,9.23-23.8,12.51C428.43,120.8,408.26,122.59,386.82,122.59Zm0-34.3c-21.39,0-41.5,1.78-56.61,5C315.48,96.45,307,100.73,307,105s8.44,8.58,23.17,11.73c15.11,3.23,35.22,5,56.61,5s41.49-1.78,56.61-5c14.72-3.15,23.17-7.43,23.17-11.73s-8.45-8.59-23.17-11.74C428.31,90.07,408.21,88.29,386.82,88.29Z"></path><polygon class="cls-10" points="423.95 105.07 347.8 105.07 352.43 101.28 419.32 101.28 423.95 105.07"></polygon><path class="cls-5" d="M425.07,105.47h-78.4l5.62-4.59h67.17Zm-76.14-.8h73.89l-3.65-3H352.58Z"></path><path class="cls-11" d="M370.82,369.8c0,2.45-13.4,4.43-29.92,4.43s-29.92-2-29.92-4.43a.73.73,0,0,1,.09-.35v-6.54h59.64v6.51A.79.79,0,0,1,370.82,369.8Z"></path><path class="cls-12" d="M340.9,374.63c-12.19,0-30.33-1.29-30.33-4.83a1,1,0,0,1,.1-.44v-6.45a.4.4,0,0,1,.4-.4h59.64a.4.4,0,0,1,.4.4v6.41a1.2,1.2,0,0,1,.11.48C371.22,373.34,353.09,374.63,340.9,374.63Zm-29.43-11.32v6.14a.41.41,0,0,1-.05.18.38.38,0,0,0,0,.17c0,1.68,11.23,4,29.52,4s29.52-2.35,29.52-4a.32.32,0,0,0-.06-.18.46.46,0,0,1-.05-.2v-6.11Z"></path><ellipse class="cls-11" cx="340.9" cy="363.19" rx="29.92" ry="4.43"></ellipse><path class="cls-12" d="M340.9,368c-12.19,0-30.33-1.29-30.33-4.84s18.14-4.83,30.33-4.83,30.32,1.29,30.32,4.83S353.09,368,340.9,368Zm0-8.87c-18.29,0-29.52,2.35-29.52,4s11.23,4,29.52,4,29.52-2.34,29.52-4S359.19,359.16,340.9,359.16Z"></path><path class="cls-11" d="M369.46,360c0,2.45-13.4,4.43-29.93,4.43s-29.92-2-29.92-4.43a.73.73,0,0,1,.09-.35V353.1h59.65v6.51A.76.76,0,0,1,369.46,360Z"></path><path class="cls-12" d="M339.53,364.82c-12.19,0-30.32-1.29-30.32-4.83a1.12,1.12,0,0,1,.09-.44V353.1a.4.4,0,0,1,.41-.4h59.64a.4.4,0,0,1,.4.4v6.41a1.2,1.2,0,0,1,.11.48C369.86,363.53,351.72,364.82,339.53,364.82ZM310.11,353.5v6.14a.41.41,0,0,1-.05.18.38.38,0,0,0,0,.17c0,1.68,11.22,4,29.51,4s29.52-2.35,29.52-4a.31.31,0,0,0-.05-.18.35.35,0,0,1-.05-.2V353.5Z"></path><ellipse class="cls-11" cx="339.53" cy="353.38" rx="29.92" ry="4.43"></ellipse><path class="cls-12" d="M339.53,358.22c-12.19,0-30.32-1.29-30.32-4.84s18.13-4.83,30.32-4.83,30.33,1.29,30.33,4.83S351.72,358.22,339.53,358.22Zm0-8.87c-18.29,0-29.52,2.35-29.52,4s11.23,4,29.52,4,29.52-2.35,29.52-4S357.82,349.35,339.53,349.35Z"></path><path class="cls-11" d="M431.87,371.16c0,2.45-13.4,4.43-29.93,4.43s-29.92-2-29.92-4.43a.78.78,0,0,1,.1-.35v-6.54h59.64v6.51A.79.79,0,0,1,431.87,371.16Z"></path><path class="cls-12" d="M401.94,376c-12.18,0-30.32-1.28-30.32-4.83a1.15,1.15,0,0,1,.09-.44v-6.45a.4.4,0,0,1,.41-.4h59.64a.4.4,0,0,1,.4.4v6.41a1.2,1.2,0,0,1,.11.48C432.27,374.71,414.13,376,401.94,376Zm-29.42-11.32v6.14a.37.37,0,0,1,0,.18.38.38,0,0,0,0,.17c0,1.68,11.23,4,29.51,4s29.53-2.35,29.53-4a.38.38,0,0,0-.06-.18.35.35,0,0,1-.05-.2v-6.11Z"></path><ellipse class="cls-11" cx="401.94" cy="364.56" rx="29.92" ry="4.43"></ellipse><path class="cls-12" d="M401.94,369.39c-12.18,0-30.32-1.29-30.32-4.83s18.14-4.84,30.32-4.84,30.33,1.29,30.33,4.84S414.13,369.39,401.94,369.39Zm0-8.86c-18.28,0-29.51,2.34-29.51,4s11.23,4,29.51,4,29.52-2.35,29.52-4S420.23,360.53,401.94,360.53Z"></path><path class="cls-11" d="M455.93,370.05c-.33,2.42-13.87,2.55-30.24.29s-29.37-6.06-29-8.48a.91.91,0,0,1,.14-.34l.9-6.48,59.08,8.17-.89,6.45A.76.76,0,0,1,455.93,370.05Z"></path><path class="cls-12" d="M446.3,372.37a165.13,165.13,0,0,1-20.67-1.63c-12.07-1.67-29.86-5.43-29.37-8.94a1.06,1.06,0,0,1,.15-.42l.88-6.39a.42.42,0,0,1,.16-.27.38.38,0,0,1,.29-.07l59.08,8.16a.4.4,0,0,1,.27.16.43.43,0,0,1,.08.29l-.88,6.36a1.13,1.13,0,0,1,0,.48h0C456.1,371.76,451.92,372.37,446.3,372.37ZM398,355.5l-.84,6.07a.36.36,0,0,1-.07.18.43.43,0,0,0-.07.16c-.23,1.67,10.58,5.53,28.69,8s29.57,1.72,29.8.05a.45.45,0,0,0,0-.18.5.5,0,0,1,0-.21l.84-6.05Zm57.9,14.55h0Z"></path><ellipse class="cls-11" cx="427.2" cy="359.41" rx="4.43" ry="29.92" transform="translate(12.69 733.38) rotate(-82.13)"></ellipse><path class="cls-12" d="M447,365.82a156,156,0,0,1-20.42-1.62c-12.08-1.67-29.87-5.43-29.38-8.94s18.63-2.31,30.7-.64,29.86,5.43,29.38,8.94h0c-.08.54-.3,2.16-9.51,2.25Zm-39.43-12c-6,0-9.45.64-9.57,1.55-.23,1.66,10.57,5.53,28.69,8A152.77,152.77,0,0,0,447.72,365c6.72-.07,8.64-1,8.72-1.56.23-1.67-10.57-5.53-28.69-8A151.55,151.55,0,0,0,407.53,353.82Zm49.31,9.69Z"></path><path class="cls-11" d="M454,353.34c-.34,2.43-13.88,2.56-30.25.29s-29.37-6.06-29-8.48a.75.75,0,0,1,.13-.34l.9-6.47,59.08,8.16-.89,6.45A.93.93,0,0,1,454,353.34Z"></path><path class="cls-12" d="M444.35,355.66A165.13,165.13,0,0,1,423.68,354a151.53,151.53,0,0,1-20.84-4.19c-8.83-2.58-8.61-4.21-8.53-4.75a1.12,1.12,0,0,1,.15-.42l.88-6.39a.4.4,0,0,1,.16-.26.34.34,0,0,1,.29-.08l59.09,8.16a.4.4,0,0,1,.26.16.39.39,0,0,1,.08.3l-.88,6.35a1,1,0,0,1,0,.49h0C454.15,355.06,450,355.66,444.35,355.66Zm-48.27-16.87-.84,6.08a.36.36,0,0,1-.07.17.43.43,0,0,0-.07.16c-.07.55,1.52,2,8,3.87a154,154,0,0,0,20.72,4.17c18.12,2.5,29.57,1.71,29.8.05a.68.68,0,0,0,0-.19.36.36,0,0,1,0-.2l.84-6.06ZM454,353.34Z"></path><ellipse class="cls-11" cx="425.25" cy="342.7" rx="4.43" ry="29.92" transform="translate(27.55 717.03) rotate(-82.13)"></ellipse><path class="cls-12" d="M445,349.11a156,156,0,0,1-20.42-1.62c-12.08-1.67-29.86-5.43-29.38-8.94s18.63-2.3,30.7-.64,29.86,5.43,29.38,8.94h0c-.08.54-.3,2.17-9.51,2.25Zm-39.43-12c-6,0-9.45.65-9.57,1.55-.23,1.67,10.57,5.53,28.69,8a152.89,152.89,0,0,0,21.07,1.61c6.72-.06,8.65-1,8.72-1.56h0c.23-1.66-10.57-5.52-28.69-8A153.26,153.26,0,0,0,405.58,337.11Z"></path><path class="cls-11" d="M445.07,338.3c-.33,2.43-13.87,2.56-30.24.3s-29.37-6.06-29-8.49a.81.81,0,0,1,.14-.33l.9-6.48,59.08,8.16-.89,6.45A.78.78,0,0,1,445.07,338.3Z"></path><path class="cls-12" d="M435.2,340.61A156.29,156.29,0,0,1,414.77,339a151.22,151.22,0,0,1-20.84-4.19c-8.83-2.58-8.61-4.21-8.53-4.74a1.16,1.16,0,0,1,.15-.43l.88-6.39a.4.4,0,0,1,.16-.26.38.38,0,0,1,.29-.08L446,331.07a.39.39,0,0,1,.27.15.46.46,0,0,1,.08.3l-.88,6.35a1.18,1.18,0,0,1,0,.49h0c-.07.53-.3,2.16-9.5,2.25Zm-48-16.86-.84,6.08a.45.45,0,0,1-.07.18.37.37,0,0,0-.07.16c-.07.54,1.52,2,8,3.86a150.91,150.91,0,0,0,20.72,4.17A152.91,152.91,0,0,0,436,339.81c6.72-.07,8.64-1,8.72-1.56a.5.5,0,0,0,0-.19.44.44,0,0,1,0-.2l.84-6.05Zm57.9,14.55h0Z"></path><ellipse class="cls-11" cx="416.34" cy="327.67" rx="4.43" ry="29.92" transform="matrix(0.14, -0.99, 0.99, 0.14, 34.76, 695.22)"></ellipse><path class="cls-12" d="M436.1,334.07a156,156,0,0,1-20.42-1.62c-12.08-1.67-29.87-5.42-29.38-8.94s18.63-2.3,30.7-.63a151.22,151.22,0,0,1,20.84,4.19c8.84,2.59,8.61,4.21,8.54,4.75s-.3,2.16-9.51,2.25Zm-39.43-12c-6,0-9.45.65-9.57,1.55-.23,1.67,10.57,5.53,28.69,8a151,151,0,0,0,21.07,1.6c6.72-.06,8.64-1,8.72-1.55h0c.08-.55-1.52-2-8-3.87a173.21,173.21,0,0,0-40.94-5.77Z"></path><path class="cls-11" d="M457.67,363.17c-1.79,1.66-12.33-6.83-23.54-19s-18.83-23.31-17-25a.66.66,0,0,1,.32-.17l4.8-4.44,40.44,43.78-4.78,4.42A.79.79,0,0,1,457.67,363.17Z"></path><path class="cls-12" d="M457.07,363.8c-1,0-3.15-.8-7.89-4.62a153.21,153.21,0,0,1-15.35-14.69c-8.26-8.95-19.61-23.14-17-25.54a1.28,1.28,0,0,1,.39-.24l4.74-4.37a.34.34,0,0,1,.28-.11.37.37,0,0,1,.28.13L463,358.14a.4.4,0,0,1,0,.57l-4.71,4.35a1.16,1.16,0,0,1-1.15.74ZM422.2,315.2l-4.51,4.16a.37.37,0,0,1-.17.1.36.36,0,0,0-.15.08c-1.24,1.14,4.65,11,17.06,24.4a151.62,151.62,0,0,0,15.25,14.61c5.23,4.21,7.31,4.7,7.72,4.33h0a.55.55,0,0,0,.1-.17.34.34,0,0,1,.11-.17l4.48-4.15Z"></path><ellipse class="cls-11" cx="442.24" cy="336.72" rx="4.43" ry="29.9" transform="translate(-111.09 389.43) rotate(-42.73)"></ellipse><path class="cls-12" d="M461.92,359.31c-1,0-3.15-.8-7.89-4.62A152.16,152.16,0,0,1,438.69,340c-8.27-8.95-19.62-23.13-17-25.54.4-.37,1.61-1.48,8.77,4.29a153.21,153.21,0,0,1,15.35,14.69c8.26,8.95,19.61,23.13,17,25.54h0A1.14,1.14,0,0,1,461.92,359.31Zm.6-.62h0ZM422.58,315a.55.55,0,0,0-.36.1c-1.24,1.14,4.66,11,17.06,24.41a151.62,151.62,0,0,0,15.25,14.61c5.23,4.21,7.32,4.7,7.72,4.32h0c1.24-1.14-4.65-11-17.06-24.4a150.72,150.72,0,0,0-15.25-14.62C425.6,315.88,423.42,315,422.58,315Z"></path><path class="cls-11" d="M442.7,342.06c-2.44.2-5.48-13-6.8-29.45s-.41-30,2-30.16a.74.74,0,0,1,.35.06l6.52-.52,4.75,59.41-6.49.52A.77.77,0,0,1,442.7,342.06Z"></path><path class="cls-12" d="M442.59,342.47c-.66,0-2.2-.54-4.1-8.8a152.45,152.45,0,0,1-3-21c-1-12.14-1.13-30.31,2.4-30.59a1.17,1.17,0,0,1,.45.06l6.43-.52a.38.38,0,0,1,.29.09.42.42,0,0,1,.14.28L450,341.37a.4.4,0,0,1-.37.43l-6.39.52a1.16,1.16,0,0,1-.47.14ZM438,282.85h0c-1.68.13-3.13,11.51-1.67,29.73a152.28,152.28,0,0,0,3,20.91c1.51,6.54,2.83,8.22,3.4,8.17h0a.41.41,0,0,0,.18-.07.4.4,0,0,1,.19-.07l6.09-.49-4.69-58.61-6.11.49a.31.31,0,0,1-.19,0Z"></path><ellipse class="cls-11" cx="446.9" cy="311.73" rx="4.43" ry="29.9" transform="translate(-23.42 36.61) rotate(-4.57)"></ellipse><path class="cls-12" d="M449.17,341.94c-.65,0-2.19-.54-4.1-8.8a151.07,151.07,0,0,1-3-21c-1-12.14-1.14-30.31,2.4-30.59.54,0,2.17-.18,4.25,8.79a152.59,152.59,0,0,1,3,21c1,12.14,1.13,30.31-2.4,30.59h-.15Zm.12-.41Zm-4.71-59.21h0c-1.67.14-3.12,11.51-1.66,29.73a150.74,150.74,0,0,0,3,20.91c1.49,6.46,2.81,8.17,3.37,8.17h0c1.67-.13,3.12-11.51,1.66-29.73a150.74,150.74,0,0,0-3-20.91C446.46,284,445.14,282.32,444.58,282.32Z"></path><path class="cls-11" d="M441,298.62c-2.44.2-5.48-13-6.8-29.45s-.41-30,2-30.16a.76.76,0,0,1,.36.06l6.52-.52L447.89,298l-6.49.52A.77.77,0,0,1,441,298.62Z"></path><path class="cls-12" d="M440.92,299c-.66,0-2.2-.54-4.1-8.8a152.45,152.45,0,0,1-3-21c-1-12.14-1.13-30.31,2.4-30.59a1.17,1.17,0,0,1,.45.06l6.43-.52a.39.39,0,0,1,.43.37l4.75,59.41a.39.39,0,0,1-.37.43l-6.39.52a1.16,1.16,0,0,1-.47.14h-.14Zm-4.6-59.62h0c-1.68.14-3.13,11.51-1.67,29.73a152.28,152.28,0,0,0,3,20.91c1.51,6.54,2.84,8.23,3.4,8.17h0a.41.41,0,0,0,.18-.07.4.4,0,0,1,.19-.07l6.09-.49L442.77,239l-6.11.49a.31.31,0,0,1-.19,0Z"></path><ellipse class="cls-11" cx="445.23" cy="268.29" rx="4.43" ry="29.9" transform="translate(-19.96 36.33) rotate(-4.57)"></ellipse><path class="cls-12" d="M447.5,298.5c-.65,0-2.19-.54-4.1-8.8a152.45,152.45,0,0,1-3-21c-1-12.14-1.13-30.31,2.41-30.59.53,0,2.17-.18,4.24,8.79a152.45,152.45,0,0,1,3,21c1,12.14,1.13,30.31-2.4,30.59h-.15Zm.12-.41Zm-4.72-59.21h0c-1.67.14-3.12,11.51-1.66,29.73a150.74,150.74,0,0,0,3,20.91c1.49,6.46,2.81,8.17,3.37,8.17h0c1.68-.13,3.13-11.51,1.67-29.73a150.74,150.74,0,0,0-3-20.91C444.79,240.59,443.47,238.88,442.9,238.88Z"></path><path class="cls-11" d="M456,345.86c-2.45.17-5.33-13.05-6.45-29.53s0-30,2.39-30.13a.66.66,0,0,1,.36.07l6.52-.45,4,59.46-6.49.45A.79.79,0,0,1,456,345.86Z"></path><path class="cls-12" d="M455.87,346.27c-.64,0-2.18-.5-4-8.85a152.13,152.13,0,0,1-2.73-21.06c-.83-12.15-.78-30.32,2.76-30.56a1.17,1.17,0,0,1,.45.06l6.43-.44a.43.43,0,0,1,.29.1.38.38,0,0,1,.14.27l4.05,59.47a.42.42,0,0,1-.38.43l-6.4.43a1,1,0,0,1-.47.14h-.13ZM452,286.6h0c-1.68.11-3.26,11.47-2,29.71a150.31,150.31,0,0,0,2.72,20.94c1.42,6.49,2.72,8.21,3.28,8.21h0a.32.32,0,0,0,.18-.07.42.42,0,0,1,.19-.06l6.1-.42-4-58.66-6.13.42a.39.39,0,0,1-.18,0Z"></path><ellipse class="cls-11" cx="460.54" cy="315.58" rx="4.43" ry="29.9" transform="translate(-20.35 31.97) rotate(-3.89)"></ellipse><path class="cls-12" d="M462.46,345.82c-.64,0-2.18-.51-4-8.85a152.13,152.13,0,0,1-2.73-21.06c-.83-12.15-.78-30.32,2.76-30.57.54,0,2.18-.14,4.14,8.84a150.84,150.84,0,0,1,2.74,21.07c.83,12.15.77,30.32-2.76,30.56Zm-3.9-59.67h0c-1.68.11-3.26,11.47-2,29.7a152.21,152.21,0,0,0,2.72,20.95c1.43,6.56,2.75,8.23,3.3,8.21,1.68-.11,3.26-11.47,2-29.71a151.83,151.83,0,0,0-2.72-20.94C460.42,287.87,459.12,286.15,458.56,286.15Z"></path><path class="cls-11" d="M456.26,298c-2.45.17-5.33-13.06-6.45-29.53s-.06-30,2.39-30.14a.92.92,0,0,1,.36.07l6.52-.45,4,59.47-6.49.44A.81.81,0,0,1,456.26,298Z"></path><path class="cls-12" d="M456.15,298.38c-.64,0-2.19-.51-4-8.85a153.9,153.9,0,0,1-2.74-21.07c-.82-12.15-.77-30.32,2.77-30.56a1.17,1.17,0,0,1,.45.06l6.43-.44a.43.43,0,0,1,.29.1.42.42,0,0,1,.14.28l4,59.46a.4.4,0,0,1-.37.43l-6.4.44a1.16,1.16,0,0,1-.47.14h-.13Zm-3.91-59.68h0c-1.67.12-3.25,11.48-2,29.71a150.68,150.68,0,0,0,2.72,20.95c1.41,6.49,2.72,8.21,3.28,8.21h0a.6.6,0,0,0,.18-.07.4.4,0,0,1,.19-.07l6.1-.41-4-58.67-6.13.42a.28.28,0,0,1-.18,0A.53.53,0,0,0,452.24,238.7Z"></path><ellipse class="cls-11" cx="460.82" cy="267.68" rx="4.43" ry="29.9" transform="translate(-17.1 31.88) rotate(-3.89)"></ellipse><path class="cls-12" d="M462.74,297.92c-.64,0-2.19-.5-4-8.84A152.5,152.5,0,0,1,456,268c-.83-12.15-.78-30.32,2.76-30.56.54,0,2.18-.15,4.14,8.84a152.4,152.4,0,0,1,2.74,21.06c.83,12.16.77,30.33-2.77,30.57Zm-3.91-59.67h0c-1.68.12-3.26,11.47-2,29.71a150.68,150.68,0,0,0,2.72,21c1.43,6.56,2.76,8.25,3.3,8.21,1.68-.12,3.26-11.48,2-29.71a152.21,152.21,0,0,0-2.72-21C460.7,240,459.4,238.25,458.83,238.25Z"></path><path class="cls-11" d="M428.31,344c.7,2.35-11.58,8.07-27.42,12.78S371.64,363.37,371,361a.72.72,0,0,1,0-.36l-1.86-6.27,57.17-17,1.86,6.24A.84.84,0,0,1,428.31,344Z"></path><path class="cls-12" d="M374.61,362.44c-2.28,0-3.78-.39-4.05-1.31a1.08,1.08,0,0,1,0-.44l-1.84-6.18a.41.41,0,0,1,0-.31A.45.45,0,0,1,369,354l57.18-17a.41.41,0,0,1,.5.28l1.83,6.14a1.22,1.22,0,0,1,.24.43h0c.15.52.62,2.09-7.73,6a151.54,151.54,0,0,1-20,7.29C392.48,359.66,380.73,362.44,374.61,362.44Zm-5-7.78,1.75,5.88a.41.41,0,0,1,0,.19.36.36,0,0,0,0,.18c.48,1.61,11.91.66,29.45-4.56a152.18,152.18,0,0,0,19.85-7.25c6.09-2.84,7.45-4.49,7.29-5a.31.31,0,0,0-.1-.16.42.42,0,0,1-.11-.18L426,337.89Z"></path><ellipse class="cls-11" cx="397.74" cy="346.16" rx="29.92" ry="4.43" transform="translate(-82.16 127.72) rotate(-16.56)"></ellipse><path class="cls-12" d="M372.72,356.11c-2.27,0-3.77-.39-4-1.31-.16-.51-.63-2.09,7.72-6a152.07,152.07,0,0,1,20-7.29c11.68-3.47,29.43-7.41,30.44-4h0c.16.51.62,2.09-7.72,6a152.61,152.61,0,0,1-20,7.29C390.6,353.33,378.85,356.11,372.72,356.11ZM423,337c-4.54,0-13.94,1.55-26.44,5.27a152.18,152.18,0,0,0-19.85,7.25c-6.09,2.84-7.45,4.5-7.29,5,.48,1.61,11.91.66,29.44-4.56a151.83,151.83,0,0,0,19.86-7.25c6.09-2.84,7.45-4.49,7.29-5h0C425.9,337.28,424.86,337,423,337Z"></path><path class="cls-11" d="M395.59,343.16c.57,2.38-12,7.41-28.08,11.24s-29.57,5-30.14,2.61a.74.74,0,0,1,0-.36l-1.52-6.36,58-13.81,1.51,6.33A.81.81,0,0,1,395.59,343.16Z"></path><path class="cls-12" d="M342.34,358.67c-3,0-5.1-.45-5.36-1.56a1,1,0,0,1,0-.45l-1.5-6.28a.4.4,0,0,1,0-.3.36.36,0,0,1,.25-.18l58-13.81a.4.4,0,0,1,.48.3l1.49,6.24a1.06,1.06,0,0,1,.21.44h0c.13.52.51,2.12-8,5.54a153.46,153.46,0,0,1-20.34,6.18C359.57,356.7,348.75,358.67,342.34,358.67Zm-6-8.08,1.43,6a.61.61,0,0,1,0,.19.33.33,0,0,0,0,.17c.39,1.64,11.86,1.32,29.65-2.91a151.3,151.3,0,0,0,20.23-6.15c6.24-2.49,7.69-4.07,7.56-4.61a.28.28,0,0,0-.1-.16.44.44,0,0,1-.09-.18L393.59,337Z"></path><ellipse class="cls-11" cx="364.95" cy="343.66" rx="29.92" ry="4.43" transform="translate(-69.64 93.82) rotate(-13.39)"></ellipse><path class="cls-12" d="M340.81,352.24c-3.05,0-5.1-.44-5.36-1.56-.13-.52-.51-2.12,8-5.54A151.52,151.52,0,0,1,363.83,339c11.86-2.82,29.8-5.77,30.62-2.32h0c.13.52.51,2.12-8,5.54a152,152,0,0,1-20.34,6.18C358,350.27,347.22,352.24,340.81,352.24Zm48.46-16.33c-4.94,0-13.79,1.1-25.26,3.83a153.18,153.18,0,0,0-20.22,6.14c-6.24,2.5-7.69,4.08-7.56,4.62.39,1.63,11.86,1.31,29.65-2.92a153.37,153.37,0,0,0,20.23-6.14c6.24-2.5,7.69-4.08,7.56-4.61h0C393.53,336.24,392,335.91,389.27,335.91Z"></path><path class="cls-11" d="M415.87,337.84c.05,2.44-13.3,4.71-29.83,5.05s-30-1.35-30-3.8a.89.89,0,0,1,.08-.35L356,332.2,415.62,331l.14,6.51A.76.76,0,0,1,415.87,337.84Z"></path><path class="cls-12" d="M382.11,343.34c-11.81,0-26.41-1.06-26.48-4.24a1,1,0,0,1,.08-.44l-.14-6.45a.44.44,0,0,1,.11-.29.45.45,0,0,1,.29-.12l59.64-1.25a.41.41,0,0,1,.41.39l.13,6.41a1.07,1.07,0,0,1,.12.48h0c0,.54.05,2.18-9,3.72a152.57,152.57,0,0,1-21.19,1.75C384.79,343.32,383.47,343.34,382.11,343.34ZM356.38,332.6l.14,6.13a.45.45,0,0,1,0,.19.34.34,0,0,0,0,.16c0,1.69,11.32,3.8,29.61,3.41a151.27,151.27,0,0,0,21.07-1.73c6.62-1.13,8.37-2.36,8.36-2.92h0a.38.38,0,0,0-.06-.18.33.33,0,0,1-.06-.19l-.13-6.11Z"></path><ellipse class="cls-11" cx="385.81" cy="331.86" rx="29.93" ry="4.43" transform="translate(-6.88 8.17) rotate(-1.2)"></ellipse><path class="cls-12" d="M382,336.73c-11.81,0-26.42-1.05-26.48-4.23,0-.54-.05-2.18,9-3.72A152.57,152.57,0,0,1,385.71,327c12.18-.25,30.35.65,30.42,4.19,0,.54.05,2.19-9,3.73a154.43,154.43,0,0,1-21.19,1.74C384.65,336.72,383.33,336.73,382,336.73Zm8-8.94c-1.39,0-2.82,0-4.3,0a152.66,152.66,0,0,0-21.07,1.74c-6.63,1.12-8.37,2.36-8.36,2.91,0,1.68,11.31,3.79,29.61,3.41A152.66,152.66,0,0,0,407,334.15c6.62-1.12,8.37-2.36,8.36-2.91C415.3,329.69,405.76,327.79,390,327.79Z"></path><path class="cls-11" d="M367.74,329c.91,2.28-10.79,9.1-26.13,15.25s-28.52,9.29-29.43,7a.72.72,0,0,1-.05-.36l-2.43-6.07,55.37-22.19,2.43,6A.87.87,0,0,1,367.74,329Z"></path><path class="cls-12" d="M314.57,352.42c-1.5,0-2.49-.31-2.77-1a1.1,1.1,0,0,1-.07-.44l-2.41-6a.42.42,0,0,1,0-.31.41.41,0,0,1,.22-.21l55.37-22.19a.39.39,0,0,1,.52.22l2.39,5.95a1.17,1.17,0,0,1,.28.4h0c.2.51.81,2-7.14,6.67a152.82,152.82,0,0,1-19.21,9.1C332.83,348.2,320.16,352.42,314.57,352.42Zm-4.35-7.35,2.28,5.69a.31.31,0,0,1,0,.19.44.44,0,0,0,0,.17c.63,1.56,11.93-.44,28.91-7.24a151.77,151.77,0,0,0,19.1-9.05c5.81-3.39,7-5.16,6.8-5.68a.31.31,0,0,0-.12-.14.52.52,0,0,1-.12-.17l-2.27-5.67Z"></path><ellipse class="cls-11" cx="337.5" cy="334.01" rx="29.93" ry="4.43" transform="translate(-100.03 149.52) rotate(-21.84)"></ellipse><path class="cls-12" d="M312.11,346.28c-1.5,0-2.49-.3-2.77-1-.2-.5-.81-2,7.14-6.67a154.44,154.44,0,0,1,19.22-9.1c11.31-4.53,28.63-10.09,29.95-6.8.2.51.81,2-7.14,6.67a152.15,152.15,0,0,1-19.21,9.1C330.37,342.07,317.7,346.28,312.11,346.28Zm51-23.76c-3.87,0-13.73,2.38-27.12,7.75a150.58,150.58,0,0,0-19.11,9.05c-5.81,3.39-7,5.16-6.8,5.67.63,1.56,11.93-.44,28.91-7.24a152.65,152.65,0,0,0,19.11-9.05c5.8-3.39,7-5.16,6.79-5.68C364.77,322.69,364.16,322.52,363.12,322.52Z"></path><path class="cls-11" d="M418.66,330.19c-.49,2.4-14,1.66-30.21-1.64s-28.93-7.93-28.44-10.33a.84.84,0,0,1,.16-.33l1.31-6.4,58.45,11.93-1.3,6.38A.88.88,0,0,1,418.66,330.19Z"></path><path class="cls-12" d="M412.62,332c-.93,0-2,0-3.2-.1a151.41,151.41,0,0,1-21.05-3c-11.95-2.44-29.46-7.33-28.75-10.8a1.12,1.12,0,0,1,.18-.42l1.28-6.31a.44.44,0,0,1,.18-.26.39.39,0,0,1,.3-.06L420,323a.39.39,0,0,1,.31.47L419,329.79a1.11,1.11,0,0,1,0,.48h0C419,330.73,418.7,332,412.62,332ZM361.79,312l-1.22,6a.45.45,0,0,1-.08.17.34.34,0,0,0-.08.16c-.34,1.65,10.2,6.19,28.12,9.85a151.23,151.23,0,0,0,20.94,3c6.71.36,8.68-.45,8.79-1h0a.32.32,0,0,0,0-.19.34.34,0,0,1,0-.2l1.22-6Z"></path><ellipse class="cls-11" cx="390.65" cy="317.73" rx="4.43" ry="29.93" transform="translate(1.18 636.92) rotate(-78.46)"></ellipse><path class="cls-12" d="M413.93,325.53c-.92,0-2,0-3.19-.09a152.93,152.93,0,0,1-21.05-3c-11.95-2.44-29.46-7.33-28.75-10.8.1-.53.43-2.14,9.63-1.64a151.41,151.41,0,0,1,21.05,3c11.94,2.44,29.46,7.33,28.75,10.8C420.28,324.26,420,325.53,413.93,325.53Zm-46.48-14.79c-4.27,0-5.63.64-5.73,1.09-.33,1.64,10.21,6.19,28.13,9.85a151.32,151.32,0,0,0,20.93,3c6.71.36,8.69-.46,8.8-1h0c.34-1.65-10.2-6.19-28.12-9.85a151.43,151.43,0,0,0-20.94-3C369.36,310.77,368.35,310.74,367.45,310.74Z"></path><path class="cls-11" d="M399.72,312.93c-.49,2.4-14,1.66-30.21-1.65s-28.92-7.93-28.43-10.33a.74.74,0,0,1,.16-.32l1.3-6.41L401,306.16l-1.3,6.38A.66.66,0,0,1,399.72,312.93Z"></path><path class="cls-12" d="M393.68,314.74c-.92,0-2,0-3.19-.09a153.05,153.05,0,0,1-21.06-3c-11.94-2.44-29.45-7.33-28.75-10.81a1.14,1.14,0,0,1,.18-.41l1.29-6.32a.37.37,0,0,1,.17-.25.4.4,0,0,1,.3-.06l58.45,11.93a.42.42,0,0,1,.32.48l-1.28,6.28a1.35,1.35,0,0,1,0,.49h0C400,313.47,399.76,314.74,393.68,314.74Zm-50.82-20.05-1.23,6a.38.38,0,0,1-.08.17.37.37,0,0,0-.08.15c-.33,1.65,10.2,6.2,28.12,9.86a151.25,151.25,0,0,0,20.94,2.95c6.71.37,8.69-.45,8.8-1a.44.44,0,0,0,0-.19.35.35,0,0,1,0-.2l1.22-6Zm56.86,18.24h0Z"></path><ellipse class="cls-11" cx="371.72" cy="300.47" rx="4.43" ry="29.93" transform="translate(2.95 604.55) rotate(-78.46)"></ellipse><path class="cls-12" d="M395,308.27c-.93,0-2,0-3.19-.1a151.32,151.32,0,0,1-21.06-3c-11.94-2.43-29.46-7.32-28.75-10.8.11-.53.44-2.14,9.63-1.64a154.28,154.28,0,0,1,21.05,3c11.95,2.44,29.46,7.33,28.76,10.81C401.34,307,401.08,308.27,395,308.27Zm-46.48-14.8c-4.27,0-5.64.64-5.73,1.09-.34,1.65,10.2,6.2,28.12,9.86a152.79,152.79,0,0,0,20.94,2.95c6.71.37,8.69-.45,8.8-1h0c.33-1.65-10.2-6.2-28.13-9.86a152.67,152.67,0,0,0-20.93-2.95C350.43,293.5,349.41,293.47,348.52,293.47Z"></path><path class="cls-11" d="M434.42,316.28c-.23,2.44-13.76,3.12-30.21,1.51s-29.6-4.87-29.36-7.31a.73.73,0,0,1,.12-.34l.63-6.51L435,309.42l-.63,6.48A.66.66,0,0,1,434.42,316.28Z"></path><path class="cls-12" d="M420.61,319.07c-4.87,0-10.54-.3-16.44-.88C392,317,374.1,314,374.45,310.44a1.18,1.18,0,0,1,.13-.43l.62-6.42a.39.39,0,0,1,.15-.27.38.38,0,0,1,.29-.09L435,309a.39.39,0,0,1,.36.43l-.62,6.39a1,1,0,0,1,.06.48h0c-.05.54-.21,2.18-9.4,2.64C423.93,319,422.31,319.07,420.61,319.07Zm-44.65-15-.59,6.11a.43.43,0,0,1-.06.18.29.29,0,0,0-.06.16c-.17,1.68,10.79,5.1,29,6.87a149.91,149.91,0,0,0,21.13.76c6.71-.33,8.59-1.35,8.64-1.9h0a.34.34,0,0,0,0-.19.44.44,0,0,1,0-.2l.59-6.08Zm58.46,12.21h0Z"></path><ellipse class="cls-11" cx="405.27" cy="306.81" rx="4.43" ry="29.93" transform="translate(60.62 680.42) rotate(-84.44)"></ellipse><path class="cls-12" d="M421.24,312.49c-4.87,0-10.53-.3-16.44-.87-12.13-1.18-30.06-4.22-29.72-7.75.05-.54.21-2.17,9.41-2.63a151.65,151.65,0,0,1,21.25.76c12.13,1.18,30.06,4.22,29.72,7.75,0,.54-.21,2.17-9.41,2.63C424.56,312.45,423,312.49,421.24,312.49Zm-31.93-10.56c-1.7,0-3.3,0-4.78.11-6.71.33-8.59,1.36-8.65,1.91-.16,1.67,10.79,5.1,29,6.87a153,153,0,0,0,21.13.76c6.71-.34,8.6-1.36,8.65-1.91h0c.16-1.67-10.79-5.1-29-6.87C399.78,302.22,394.15,301.93,389.31,301.93Z"></path><path class="cls-11" d="M421.61,296c-.23,2.43-13.76,3.11-30.21,1.51s-29.6-4.88-29.36-7.32a.78.78,0,0,1,.12-.34l.63-6.51,59.38,5.79-.63,6.48A.68.68,0,0,1,421.61,296Z"></path><path class="cls-12" d="M407.8,298.74c-4.87,0-10.54-.3-16.44-.87-12.14-1.18-30.06-4.22-29.72-7.75a1.08,1.08,0,0,1,.13-.43l.62-6.42a.43.43,0,0,1,.15-.28.42.42,0,0,1,.29-.09l59.38,5.79a.4.4,0,0,1,.36.44l-.62,6.38a1,1,0,0,1,.06.49h0c-.05.53-.21,2.17-9.4,2.63C411.12,298.7,409.51,298.74,407.8,298.74Zm-44.65-15-.59,6.11a.28.28,0,0,1-.06.18.29.29,0,0,0-.06.16c-.16,1.68,10.79,5.1,29,6.88a153,153,0,0,0,21.13.76c6.71-.34,8.59-1.36,8.64-1.91h0a.28.28,0,0,0,0-.19.44.44,0,0,1,0-.2l.59-6.08Z"></path><ellipse class="cls-11" cx="392.46" cy="286.48" rx="4.43" ry="29.93" transform="translate(69.28 649.32) rotate(-84.44)"></ellipse><path class="cls-12" d="M408.43,292.16c-4.87,0-10.53-.29-16.43-.87-12.14-1.18-30.07-4.22-29.73-7.75.06-.54.21-2.17,9.41-2.63a151.6,151.6,0,0,1,21.25.76c12.13,1.18,30.06,4.22,29.72,7.75,0,.54-.21,2.17-9.41,2.63C411.75,292.13,410.14,292.16,408.43,292.16ZM376.5,281.6c-1.7,0-3.3,0-4.78.11-6.71.34-8.59,1.36-8.65,1.91-.16,1.67,10.8,5.1,29,6.87a153.09,153.09,0,0,0,21.13.76c6.72-.34,8.6-1.36,8.65-1.91.16-1.67-10.79-5.1-29-6.87C387,281.9,381.34,281.6,376.5,281.6Z"></path><path class="cls-11" d="M364.41,312.64c1.06,2.2-10.15,9.8-25.05,17s-27.83,11.19-28.89,9a.83.83,0,0,1-.07-.36l-2.84-5.89,53.76-25.85,2.83,5.86A.68.68,0,0,1,364.41,312.64Z"></path><path class="cls-12" d="M312.31,339.58c-1.15,0-1.93-.25-2.2-.82a1.1,1.1,0,0,1-.11-.44l-2.8-5.81a.42.42,0,0,1,0-.31.43.43,0,0,1,.21-.23l53.76-25.86a.4.4,0,0,1,.53.19l2.79,5.78a1.2,1.2,0,0,1,.3.38h0c.24.49,1,2-6.67,7.13A151.93,151.93,0,0,1,339.54,330C330.53,334.3,317.54,339.58,312.31,339.58Zm-4.21-7.06,2.66,5.53a.41.41,0,0,1,0,.19.47.47,0,0,0,0,.17c.73,1.51,11.87-1.24,28.36-9.17a153,153,0,0,0,18.46-10.31c5.56-3.77,6.64-5.62,6.4-6.12h0a.42.42,0,0,0-.13-.14.37.37,0,0,1-.13-.15L361.14,307Z"></path><ellipse class="cls-11" cx="334.57" cy="319.66" rx="29.93" ry="4.43" transform="translate(-105.49 176.6) rotate(-25.69)"></ellipse><path class="cls-12" d="M309.44,333.63c-1.15,0-1.92-.25-2.2-.82s-.95-2,6.68-7.13a151.68,151.68,0,0,1,18.56-10.38c11-5.28,27.89-12,29.43-8.79.23.49.94,2-6.68,7.13A151.93,151.93,0,0,1,336.67,324C327.66,328.35,314.67,333.63,309.44,333.63Zm50.44-27.17c-3.47,0-13.44,3-27.06,9.57a152.8,152.8,0,0,0-18.45,10.31c-5.57,3.77-6.65,5.62-6.41,6.12.73,1.51,11.88-1.24,28.36-9.17A151.58,151.58,0,0,0,354.78,313c5.56-3.76,6.64-5.61,6.4-6.11h0C361.06,306.6,360.61,306.46,359.88,306.46Z"></path><path class="cls-11" d="M431.93,303.86c-.24,2.43-13.77,3.11-30.22,1.51s-29.59-4.88-29.36-7.32a.8.8,0,0,1,.13-.34l.63-6.51L432.48,297l-.62,6.48A.77.77,0,0,1,431.93,303.86Z"></path><path class="cls-12" d="M418.11,306.64c-4.87,0-10.53-.3-16.44-.87-12.13-1.19-30.06-4.23-29.72-7.75a1.09,1.09,0,0,1,.14-.43l.62-6.42a.42.42,0,0,1,.14-.28.51.51,0,0,1,.3-.09l59.37,5.79a.39.39,0,0,1,.36.44l-.61,6.38a1.35,1.35,0,0,1,.06.48h0c-.05.53-.21,2.17-9.41,2.63C421.43,306.6,419.82,306.64,418.11,306.64Zm-44.64-15-.59,6.11a.36.36,0,0,1-.07.18.64.64,0,0,0-.06.16c-.16,1.68,10.79,5.1,29,6.88a151.31,151.31,0,0,0,21.13.75c6.71-.33,8.59-1.35,8.65-1.9a.46.46,0,0,0,0-.19.34.34,0,0,1,0-.2l.58-6.08Zm58.46,12.22Z"></path><ellipse class="cls-11" cx="402.78" cy="294.38" rx="4.43" ry="29.93" transform="translate(70.73 666.72) rotate(-84.44)"></ellipse><path class="cls-12" d="M418.74,300.06c-4.86,0-10.53-.29-16.43-.87-12.13-1.18-30.06-4.22-29.72-7.75.05-.54.21-2.17,9.4-2.63a151.56,151.56,0,0,1,21.25.76c12.14,1.18,30.07,4.22,29.72,7.75,0,.54-.21,2.17-9.4,2.63C422.07,300,420.46,300.06,418.74,300.06ZM386.81,289.5c-1.7,0-3.3,0-4.78.11-6.71.34-8.59,1.36-8.64,1.91-.16,1.67,10.79,5.1,29,6.87a153,153,0,0,0,21.13.76c6.71-.34,8.59-1.36,8.64-1.91.17-1.67-10.79-5.1-29-6.87C397.29,289.8,391.65,289.5,386.81,289.5Z"></path><path class="cls-11" d="M372.86,299c1.06,2.21-10.15,9.8-25.05,17s-27.83,11.19-28.89,9a.67.67,0,0,1-.07-.35L316,318.71l53.76-25.86,2.83,5.86A.81.81,0,0,1,372.86,299Z"></path><path class="cls-12" d="M320.75,326c-1.14,0-1.92-.26-2.19-.83a.93.93,0,0,1-.11-.44l-2.8-5.81a.37.37,0,0,1,0-.31.38.38,0,0,1,.21-.22l53.76-25.86a.39.39,0,0,1,.53.18l2.79,5.78a1.2,1.2,0,0,1,.3.38h0c.24.49.95,2-6.67,7.14A154.65,154.65,0,0,1,348,316.34C339,320.67,326,326,320.75,326Zm-4.2-7.06,2.66,5.52a.41.41,0,0,1,0,.19.43.43,0,0,0,0,.17c.73,1.51,11.87-1.24,28.36-9.17a152,152,0,0,0,18.45-10.31c5.57-3.77,6.65-5.62,6.41-6.12h0a.55.55,0,0,0-.13-.14.32.32,0,0,1-.13-.15l-2.66-5.5Z"></path><ellipse class="cls-11" cx="343.02" cy="306.03" rx="29.93" ry="4.43" transform="translate(-98.75 178.92) rotate(-25.69)"></ellipse><path class="cls-12" d="M317.89,320c-1.15,0-1.93-.26-2.2-.83s-.95-2,6.67-7.13a151.93,151.93,0,0,1,18.56-10.37c11-5.29,27.9-12,29.44-8.8.23.49.94,2-6.68,7.13a153.2,153.2,0,0,1-18.56,10.38C336.11,314.72,323.12,320,317.89,320Zm50.44-27.18c-3.47,0-13.44,3-27.06,9.57a153,153,0,0,0-18.46,10.31c-5.56,3.77-6.64,5.62-6.4,6.12.73,1.51,11.87-1.24,28.36-9.17a153,153,0,0,0,18.46-10.31c5.56-3.77,6.64-5.62,6.4-6.12C369.5,293,369.06,292.83,368.33,292.83Z"></path><path class="cls-11" d="M366.61,296.88c.41,2.41-12.46,6.62-28.76,9.39s-29.83,3.08-30.25.67a.79.79,0,0,1,0-.37l-1.1-6.44,58.81-10,1.1,6.42A.75.75,0,0,1,366.61,296.88Z"></path><path class="cls-12" d="M315.2,309c-4.53,0-7.75-.55-8-2a1.14,1.14,0,0,1,0-.45l-1.08-6.35a.39.39,0,0,1,.06-.3.44.44,0,0,1,.26-.17l58.81-10a.41.41,0,0,1,.47.32l1.08,6.33a1.11,1.11,0,0,1,.19.45h0c.09.53.36,2.15-8.39,5a153.31,153.31,0,0,1-20.7,4.85A152.13,152.13,0,0,1,315.2,309Zm-8.2-8.53,1,6.05a.41.41,0,0,1,0,.19.35.35,0,0,0,0,.17c.28,1.66,11.75,2.08,29.79-1a153.07,153.07,0,0,0,20.58-4.82c6.39-2.09,7.94-3.57,7.84-4.12a.37.37,0,0,0-.08-.17.31.31,0,0,1-.09-.18l-1-6Z"></path><ellipse class="cls-11" cx="335.99" cy="295.4" rx="29.93" ry="4.43" transform="translate(-44.87 60.68) rotate(-9.68)"></ellipse><path class="cls-12" d="M314.08,302.48c-4.53,0-7.74-.55-8-2-.09-.53-.37-2.15,8.39-5a153.31,153.31,0,0,1,20.7-4.85c12-2.05,30.11-3.83,30.71-.33.09.53.37,2.15-8.38,5a171.84,171.84,0,0,1-43.43,7.17Zm43.7-13.33a141,141,0,0,0-22.47,2.27,152.94,152.94,0,0,0-20.58,4.83c-6.39,2.09-7.94,3.56-7.85,4.11.29,1.66,11.76,2.08,29.79-1a152,152,0,0,0,20.59-4.83c6.39-2.08,7.93-3.56,7.84-4.11h0C365,289.65,362.37,289.15,357.78,289.15Z"></path><path class="cls-11" d="M438.51,295.57c-.24,2.44-13.76,3.11-30.22,1.51s-29.59-4.87-29.36-7.31a.89.89,0,0,1,.13-.34l.63-6.51,59.38,5.78-.63,6.48A.81.81,0,0,1,438.51,295.57Z"></path><path class="cls-12" d="M424.69,298.35c-4.87,0-10.53-.29-16.43-.87-12.14-1.18-30.07-4.22-29.73-7.75a1.14,1.14,0,0,1,.14-.43l.62-6.42a.4.4,0,0,1,.14-.27.41.41,0,0,1,.3-.09l59.38,5.78a.4.4,0,0,1,.36.44l-.62,6.39a1,1,0,0,1,.06.48h0c-.05.54-.21,2.17-9.41,2.63C428,298.32,426.4,298.35,424.69,298.35Zm-44.64-15-.59,6.11a.64.64,0,0,1-.06.18.37.37,0,0,0-.07.16c-.16,1.67,10.8,5.1,29,6.87a153.09,153.09,0,0,0,21.13.76c6.72-.34,8.6-1.36,8.65-1.91h0a.33.33,0,0,0,0-.18.39.39,0,0,1,0-.21l.59-6.08Zm58.46,12.21Z"></path><ellipse class="cls-11" cx="409.36" cy="286.1" rx="4.43" ry="29.93" transform="translate(84.92 665.79) rotate(-84.44)"></ellipse><path class="cls-12" d="M425.33,291.78c-4.87,0-10.54-.3-16.44-.87-12.13-1.19-30.06-4.22-29.72-7.75.05-.54.21-2.18,9.41-2.64a154.77,154.77,0,0,1,21.25.76c12.13,1.19,30.06,4.23,29.72,7.76-.05.53-.21,2.17-9.41,2.63C428.65,291.74,427,291.78,425.33,291.78Zm-31.94-10.56c-1.7,0-3.29,0-4.77.11-6.72.33-8.6,1.35-8.65,1.9-.16,1.68,10.79,5.1,29,6.88a151.31,151.31,0,0,0,21.13.75c6.71-.33,8.59-1.35,8.65-1.9l.4,0-.4,0c.16-1.68-10.79-5.1-29-6.88C403.87,281.51,398.23,281.22,393.39,281.22Z"></path><path class="cls-11" d="M373.15,286c.41,2.42-12.46,6.62-28.76,9.4s-29.83,3.08-30.25.67a.8.8,0,0,1,0-.37l-1.11-6.44,58.81-10,1.1,6.42A.76.76,0,0,1,373.15,286Z"></path><path class="cls-12" d="M321.74,298.09c-4.53,0-7.75-.55-8-2a1.14,1.14,0,0,1,0-.45l-1.08-6.35a.39.39,0,0,1,.06-.3.44.44,0,0,1,.27-.17l58.8-10a.4.4,0,0,1,.47.32l1.08,6.32a1.22,1.22,0,0,1,.19.46h0c.09.53.37,2.15-8.39,5a171.86,171.86,0,0,1-43.42,7.17Zm-8.2-8.53,1,6.05a.37.37,0,0,1,0,.18.4.4,0,0,0,0,.18c.28,1.66,11.75,2.08,29.79-1a151.42,151.42,0,0,0,20.58-4.83c6.39-2.08,7.94-3.56,7.84-4.11h0a.29.29,0,0,0-.08-.17.34.34,0,0,1-.09-.18l-1-6Z"></path><ellipse class="cls-11" cx="342.53" cy="284.49" rx="29.93" ry="4.43" transform="translate(-42.94 61.62) rotate(-9.68)"></ellipse><path class="cls-12" d="M320.62,291.58c-4.53,0-7.74-.55-8-2-.09-.53-.37-2.15,8.39-5a153.31,153.31,0,0,1,20.7-4.85c12-2.05,30.11-3.83,30.71-.33h0c.09.53.37,2.15-8.38,5a171.84,171.84,0,0,1-43.43,7.17Zm43.7-13.33a141,141,0,0,0-22.47,2.27,151.42,151.42,0,0,0-20.58,4.83c-6.39,2.08-7.94,3.56-7.84,4.11.28,1.66,11.75,2.08,29.78-1a153.12,153.12,0,0,0,20.59-4.83c6.39-2.08,7.93-3.56,7.84-4.11h0C371.51,278.75,368.91,278.25,364.32,278.25Z"></path><path class="cls-11" d="M404.91,280.43c-.16,2.44-13.66,3.56-30.16,2.5S345,279,345.17,276.59a.85.85,0,0,1,.11-.34l.42-6.53,59.53,3.83-.41,6.49A1,1,0,0,1,404.91,280.43Z"></path><path class="cls-12" d="M386.67,283.74c-3.73,0-7.77-.14-11.94-.4-12.17-.79-30.19-3.23-30-6.77a1.16,1.16,0,0,1,.12-.44l.41-6.43a.37.37,0,0,1,.13-.28.45.45,0,0,1,.29-.1l59.54,3.83a.4.4,0,0,1,.38.42l-.41,6.4a1.2,1.2,0,0,1,.08.49c0,.54-.14,2.18-9.32,2.94C393.26,283.62,390.1,283.74,386.67,283.74Zm-40.6-13.59-.39,6.12a.35.35,0,0,1-.05.18.32.32,0,0,0-.06.17c-.11,1.68,10.95,4.74,29.21,5.91a152.37,152.37,0,0,0,21.14.07c6.7-.56,8.55-1.64,8.58-2.19h0a.34.34,0,0,0,0-.19.45.45,0,0,1,0-.2l.39-6.1Z"></path><ellipse class="cls-11" cx="375.46" cy="271.92" rx="4.43" ry="29.93" transform="translate(80.02 629.17) rotate(-86.32)"></ellipse><path class="cls-12" d="M387.09,277.14c-3.73,0-7.77-.13-11.94-.4C363,276,345,273.51,345.19,270c0-.54.13-2.18,9.31-2.94a150.85,150.85,0,0,1,21.26.06c12.17.78,30.19,3.23,30,6.76,0,.54-.14,2.18-9.32,2.94C393.67,277,390.51,277.14,387.09,277.14Zm-23.27-9.64c-3.4,0-6.54.11-9.25.34-6.7.55-8.55,1.64-8.58,2.19-.11,1.68,10.95,4.74,29.21,5.91a152.2,152.2,0,0,0,21.14.06c6.7-.55,8.55-1.64,8.58-2.19.11-1.68-10.95-4.74-29.21-5.91C371.56,267.63,367.53,267.5,363.82,267.5Z"></path><path class="cls-11" d="M383.38,264.24c.41,2.41-12.46,6.62-28.76,9.4s-29.83,3.07-30.25.66a.74.74,0,0,1,0-.36l-1.1-6.45,58.81-10,1.1,6.41A.79.79,0,0,1,383.38,264.24Z"></path><path class="cls-12" d="M332,276.35c-4.54,0-7.75-.54-8-2a1.14,1.14,0,0,1,0-.45l-1.09-6.36a.46.46,0,0,1,.07-.3.4.4,0,0,1,.26-.16l58.81-10a.41.41,0,0,1,.47.33l1.08,6.32a1.11,1.11,0,0,1,.19.45h0c.09.53.36,2.15-8.39,5A171.86,171.86,0,0,1,332,276.35Zm-8.21-8.53,1,6.05a.41.41,0,0,1,0,.19.36.36,0,0,0,0,.17c.28,1.66,11.75,2.09,29.78-1a151.37,151.37,0,0,0,20.59-4.82c6.39-2.09,7.94-3.57,7.84-4.11h0a.33.33,0,0,0-.08-.17.37.37,0,0,1-.09-.19l-1-6Z"></path><ellipse class="cls-11" cx="352.76" cy="262.76" rx="29.93" ry="4.43" transform="translate(-39.15 63.03) rotate(-9.68)"></ellipse><path class="cls-12" d="M330.85,269.84c-4.53,0-7.74-.54-8-2-.09-.53-.37-2.15,8.39-5A151.45,151.45,0,0,1,352,258c12-2.05,30.11-3.83,30.71-.34h0c.09.53.37,2.15-8.38,5a171.84,171.84,0,0,1-43.43,7.17Zm43.7-13.33a141.24,141.24,0,0,0-22.47,2.28,151.55,151.55,0,0,0-20.58,4.82c-6.39,2.09-7.94,3.57-7.85,4.11.29,1.66,11.76,2.09,29.79-1A152.1,152.1,0,0,0,374,261.91c6.38-2.09,7.93-3.57,7.84-4.11h0C381.73,257,379.13,256.51,374.55,256.51Z"></path><path class="cls-11" d="M379.17,247.86c.32,2.43-12.7,6.16-29.09,8.33s-29.93,2-30.25-.45a.74.74,0,0,1,0-.36L319,248.9l59.14-7.85.86,6.45A.82.82,0,0,1,379.17,247.86Z"></path><path class="cls-12" d="M329.88,258.11c-5.83,0-10.22-.61-10.45-2.32a1.17,1.17,0,0,1,0-.45l-.85-6.39a.47.47,0,0,1,.08-.3.41.41,0,0,1,.27-.15l59.14-7.85a.41.41,0,0,1,.45.35l.85,6.35a1.17,1.17,0,0,1,.17.46h0c.07.54.29,2.17-8.57,4.7a151.84,151.84,0,0,1-20.86,4.08A166.85,166.85,0,0,1,329.88,258.11Zm-10.42-8.87.81,6.09a.43.43,0,0,1,0,.19.35.35,0,0,0,0,.17c.22,1.66,11.67,2.51,29.8.11a151.41,151.41,0,0,0,20.75-4.06c6.46-1.85,8.06-3.27,8-3.82h0a.4.4,0,0,0-.08-.18.42.42,0,0,1-.08-.18l-.81-6.06Z"></path><ellipse class="cls-11" cx="348.63" cy="245.26" rx="29.93" ry="4.43" transform="translate(-29.23 47.99) rotate(-7.56)"></ellipse><path class="cls-12" d="M329,251.57c-5.84,0-10.23-.62-10.45-2.32-.07-.54-.29-2.17,8.56-4.7A153.09,153.09,0,0,1,348,240.46c12.08-1.6,30.23-2.71,30.7.8h0c.07.54.29,2.17-8.56,4.7a153.09,153.09,0,0,1-20.87,4.09A168.56,168.56,0,0,1,329,251.57Zm38.86-11.8a156,156,0,0,0-19.78,1.49,152,152,0,0,0-20.75,4.06c-6.46,1.85-8.06,3.27-8,3.82.23,1.67,11.67,2.52,29.81.11a152,152,0,0,0,20.75-4.06c6.46-1.85,8.06-3.27,8-3.82h0C377.77,240.44,374.17,239.77,367.87,239.77Z"></path><path class="cls-11" d="M332.58,230.59c2.34.72.31,14.1-4.52,29.9s-10.66,28-13,27.32a.79.79,0,0,1-.31-.19l-6.25-1.9,17.46-57,6.23,1.9A.86.86,0,0,1,332.58,230.59Z"></path><path class="cls-12" d="M315.25,288.24a1.14,1.14,0,0,1-.7-.26l-6.17-1.88a.39.39,0,0,1-.23-.19.42.42,0,0,1,0-.31l17.46-57a.4.4,0,0,1,.5-.27l6.13,1.87a1,1,0,0,1,.49,0,1.36,1.36,0,0,1,.77.7c1.49,2.81-.62,15.3-5,29.7C325,271.92,318.71,288.24,315.25,288.24ZM309,285.45l5.87,1.78a.44.44,0,0,1,.16.1.44.44,0,0,0,.15.1h.12c1.74,0,7.14-10,12.37-27.06,4.88-15.94,6.26-26.89,5.09-29.1a.54.54,0,0,0-.3-.3h0a.3.3,0,0,0-.19,0,.34.34,0,0,1-.2,0l-5.84-1.78Z"></path><ellipse class="cls-11" cx="317.51" cy="257.28" rx="29.92" ry="4.43" transform="translate(-21.47 485.54) rotate(-72.97)"></ellipse><path class="cls-12" d="M308.93,286.32a1,1,0,0,1-.3-.05,1.32,1.32,0,0,1-.77-.69c-1.5-2.82.62-15.31,5-29.71,3.56-11.65,10.11-28.6,13.49-27.58h0a1.29,1.29,0,0,1,.77.69c1.5,2.82-.61,15.31-5,29.71C318.66,270,312.4,286.32,308.93,286.32ZM326,229c-1.75,0-7.15,10-12.38,27.07-4.87,15.93-6.26,26.88-5.08,29.09a.56.56,0,0,0,.29.3c1.61.49,7.14-9.56,12.5-27.05,4.88-15.93,6.26-26.88,5.08-29.09a.56.56,0,0,0-.29-.3Z"></path><path class="cls-11" d="M409.59,253.58c-.15,2.45-13.65,3.56-30.15,2.5s-29.74-3.89-29.58-6.34a.65.65,0,0,1,.11-.34l.42-6.53,59.53,3.83-.41,6.5A.77.77,0,0,1,409.59,253.58Z"></path><path class="cls-12" d="M391.36,256.89c-3.73,0-7.77-.14-11.94-.4-12.17-.79-30.19-3.23-30-6.77a1.21,1.21,0,0,1,.12-.44l.41-6.43a.37.37,0,0,1,.13-.28.45.45,0,0,1,.29-.1L410,246.3a.39.39,0,0,1,.37.42l-.4,6.4a1.06,1.06,0,0,1,.07.49h0c0,.54-.13,2.18-9.31,2.94C397.94,256.77,394.79,256.89,391.36,256.89Zm-40.6-13.59-.39,6.12a.35.35,0,0,1-.05.18.32.32,0,0,0-.06.17c-.11,1.68,10.95,4.74,29.21,5.91a152.37,152.37,0,0,0,21.14.07c6.7-.56,8.55-1.64,8.58-2.19h0a.34.34,0,0,0,0-.19.34.34,0,0,1,0-.2l.39-6.1Z"></path><ellipse class="cls-11" cx="380.14" cy="245.07" rx="4.43" ry="29.93" transform="translate(111.2 608.72) rotate(-86.32)"></ellipse><path class="cls-12" d="M391.78,250.3c-3.73,0-7.78-.14-11.94-.41-12.17-.78-30.19-3.22-30-6.76,0-.54.14-2.18,9.32-2.94a150.84,150.84,0,0,1,21.26.06c12.17.78,30.19,3.23,30,6.77h0c0,.53-.13,2.17-9.31,2.94C398.36,250.18,395.2,250.3,391.78,250.3Zm-23.27-9.65c-3.4,0-6.54.11-9.25.34-6.7.55-8.55,1.64-8.58,2.19-.11,1.68,10.95,4.74,29.21,5.91a152.2,152.2,0,0,0,21.14.06c6.7-.55,8.55-1.63,8.58-2.19.11-1.67-10.95-4.74-29.21-5.91C376.25,240.78,372.22,240.65,368.51,240.65ZM410,247h0Z"></path><path class="cls-11" d="M395.11,242.16c-.15,2.45-13.65,3.57-30.15,2.51s-29.74-3.9-29.58-6.34a.76.76,0,0,1,.11-.35l.42-6.52,59.53,3.82-.41,6.5A.77.77,0,0,1,395.11,242.16Z"></path><path class="cls-12" d="M376.88,245.47c-3.73,0-7.77-.13-11.94-.4-12.17-.78-30.19-3.23-30-6.77a1.11,1.11,0,0,1,.12-.43l.41-6.44a.37.37,0,0,1,.13-.27.4.4,0,0,1,.29-.1l59.54,3.82a.4.4,0,0,1,.37.43l-.4,6.4a1,1,0,0,1,.07.48c0,.54-.13,2.18-9.31,2.94C383.46,245.36,380.31,245.47,376.88,245.47Zm-40.6-13.59-.39,6.13a.41.41,0,0,1-.05.18.29.29,0,0,0-.06.16c-.11,1.68,11,4.74,29.21,5.92a152.2,152.2,0,0,0,21.14.06c6.7-.56,8.55-1.64,8.58-2.19h0a.34.34,0,0,0,0-.19.34.34,0,0,1,0-.2l.39-6.09Z"></path><ellipse class="cls-11" cx="365.66" cy="233.65" rx="4.43" ry="29.93" transform="translate(109.04 583.58) rotate(-86.32)"></ellipse><path class="cls-12" d="M377.3,238.88c-3.73,0-7.78-.14-11.94-.4-12.17-.78-30.19-3.23-30-6.77,0-.54.14-2.18,9.32-2.94a153.93,153.93,0,0,1,21.26.06c12.17.78,30.19,3.23,30,6.77,0,.54-.13,2.18-9.31,2.94C383.88,238.77,380.72,238.88,377.3,238.88ZM354,229.23c-3.4,0-6.54.12-9.25.34-6.7.56-8.55,1.64-8.58,2.19-.11,1.68,10.95,4.74,29.21,5.91a150.82,150.82,0,0,0,21.14.07c6.7-.56,8.55-1.64,8.58-2.19.11-1.68-10.95-4.74-29.21-5.92C361.77,229.37,357.74,229.23,354,229.23Z"></path><path class="cls-11" d="M418.14,232.7c-.15,2.44-13.65,3.56-30.15,2.5s-29.74-3.89-29.58-6.34a.62.62,0,0,1,.11-.34l.42-6.53,59.53,3.83-.41,6.49A.8.8,0,0,1,418.14,232.7Z"></path><path class="cls-12" d="M399.91,236c-3.73,0-7.78-.14-11.94-.4-12.17-.79-30.19-3.23-30-6.77a1,1,0,0,1,.11-.44l.41-6.43a.42.42,0,0,1,.14-.28.43.43,0,0,1,.29-.1l59.54,3.83a.39.39,0,0,1,.37.42l-.4,6.4a1.21,1.21,0,0,1,.07.49c0,.54-.14,2.18-9.31,2.94C406.49,235.89,403.33,236,399.91,236Zm-40.6-13.59-.39,6.12a.33.33,0,0,1-.06.19.33.33,0,0,0-.05.16c-.11,1.68,10.95,4.74,29.21,5.91a152.37,152.37,0,0,0,21.14.07c6.7-.56,8.55-1.64,8.58-2.19h0a.46.46,0,0,0,0-.19.34.34,0,0,1,0-.2l.38-6.1Z"></path><ellipse class="cls-11" cx="388.69" cy="224.19" rx="4.43" ry="29.93" transform="translate(140.04 597.71) rotate(-86.32)"></ellipse><path class="cls-12" d="M400.32,229.42c-3.72,0-7.77-.14-11.93-.41-12.17-.78-30.19-3.23-30-6.76,0-.54.14-2.18,9.32-2.94a150.84,150.84,0,0,1,21.26.06c12.17.78,30.19,3.23,30,6.76,0,.54-.14,2.18-9.31,2.94C406.91,229.3,403.75,229.42,400.32,229.42Zm-23.26-9.65c-3.4,0-6.54.11-9.26.34-6.69.55-8.54,1.64-8.57,2.19-.11,1.68,10.95,4.74,29.21,5.91a152.2,152.2,0,0,0,21.14.06c6.7-.55,8.54-1.63,8.58-2.19.11-1.68-11-4.74-29.21-5.91C384.8,219.9,380.77,219.77,377.06,219.77Zm41.5,6.34h0Z"></path><path class="cls-11" d="M439.59,226.39c-.15,2.45-13.65,3.56-30.15,2.5s-29.74-3.89-29.58-6.34a.76.76,0,0,1,.11-.34l.42-6.53,59.53,3.83-.41,6.5A.77.77,0,0,1,439.59,226.39Z"></path><path class="cls-12" d="M421.36,229.7c-3.73,0-7.78-.14-11.94-.4-12.17-.79-30.19-3.23-30-6.77a1.21,1.21,0,0,1,.12-.44l.41-6.43a.37.37,0,0,1,.13-.28.45.45,0,0,1,.29-.1L440,219.11a.39.39,0,0,1,.37.42l-.4,6.4a1.06,1.06,0,0,1,.07.49c0,.54-.13,2.18-9.31,2.94C427.94,229.58,424.78,229.7,421.36,229.7Zm-40.6-13.59-.39,6.12a.41.41,0,0,1-.05.19.27.27,0,0,0-.06.16c-.11,1.68,10.95,4.74,29.21,5.91a150.82,150.82,0,0,0,21.14.07c6.7-.56,8.55-1.64,8.58-2.19h0a.34.34,0,0,0,0-.19.34.34,0,0,1,0-.2l.39-6.1Z"></path><ellipse class="cls-11" cx="410.14" cy="217.88" rx="4.43" ry="29.93" transform="matrix(0.06, -1, 1, 0.06, 166.41, 613.21)"></ellipse><path class="cls-12" d="M421.78,223.11c-3.73,0-7.78-.14-11.94-.41-12.17-.78-30.19-3.22-30-6.76,0-.54.14-2.18,9.32-2.94a150.84,150.84,0,0,1,21.26.06c12.17.78,30.19,3.23,30,6.77h0c0,.53-.13,2.17-9.31,2.94C428.36,223,425.2,223.11,421.78,223.11Zm-23.27-9.65c-3.4,0-6.54.11-9.25.34-6.7.55-8.55,1.64-8.58,2.19-.11,1.68,10.95,4.74,29.21,5.91A152.2,152.2,0,0,0,431,222c6.7-.55,8.55-1.63,8.58-2.19.11-1.67-10.95-4.74-29.21-5.91C406.25,213.59,402.22,213.46,398.51,213.46ZM440,219.8h0Z"></path><path class="cls-11" d="M393.15,207.15c.83,2.3-11.09,8.73-26.63,14.36s-28.82,8.32-29.66,6a.72.72,0,0,1,0-.36L334.6,221l56.1-20.31,2.22,6.12A.77.77,0,0,1,393.15,207.15Z"></path><path class="cls-12" d="M339.63,228.76c-1.73,0-2.86-.33-3.14-1.09a1.33,1.33,0,0,1-.07-.45l-2.2-6.06a.42.42,0,0,1,0-.31.36.36,0,0,1,.22-.2l56.1-20.32a.41.41,0,0,1,.51.24l2.19,6a1.33,1.33,0,0,1,.27.41c.18.51.74,2.06-7.37,6.43a152.25,152.25,0,0,1-19.51,8.45C357.83,225.08,345.42,228.76,339.63,228.76Zm-4.51-7.5,2.09,5.77a.41.41,0,0,1,0,.19.44.44,0,0,0,0,.17c.58,1.59,11.94,0,29.14-6.26a152.59,152.59,0,0,0,19.4-8.4c5.92-3.19,7.18-4.92,7-5.44h0a.48.48,0,0,0-.11-.15.38.38,0,0,1-.12-.17l-2.09-5.74Z"></path><ellipse class="cls-11" cx="362.75" cy="211.13" rx="29.93" ry="4.43" transform="translate(-50.21 136.11) rotate(-19.9)"></ellipse><path class="cls-12" d="M337.38,222.55c-1.73,0-2.87-.32-3.15-1.09-.18-.51-.74-2.05,7.36-6.42a153.5,153.5,0,0,1,19.51-8.45c11.47-4.15,29-9.12,30.17-5.78.19.5.75,2.05-7.36,6.42a152.25,152.25,0,0,1-19.51,8.45C355.57,218.87,343.17,222.55,337.38,222.55Zm51-22c-4.11,0-13.85,2.07-27,6.84a149.77,149.77,0,0,0-19.4,8.4c-5.92,3.19-7.18,4.92-7,5.44.57,1.58,11.94,0,29.14-6.27a152.59,152.59,0,0,0,19.4-8.4c5.92-3.19,7.18-4.92,7-5.44S389.65,200.51,388.39,200.51Z"></path><path class="cls-11" d="M458.76,284.62c-.24,2.43-13.77,3.11-30.22,1.51s-29.59-4.88-29.36-7.32a.8.8,0,0,1,.13-.34l.63-6.51,59.37,5.79-.62,6.48A.77.77,0,0,1,458.76,284.62Z"></path><path class="cls-12" d="M444.94,287.4c-4.87,0-10.53-.3-16.44-.87-12.13-1.19-30.06-4.22-29.72-7.75a1.09,1.09,0,0,1,.14-.43l.62-6.42a.42.42,0,0,1,.14-.28.45.45,0,0,1,.3-.09l59.37,5.79a.4.4,0,0,1,.36.44l-.61,6.38a1.38,1.38,0,0,1,.06.49c-.05.53-.22,2.17-9.41,2.63C448.26,287.36,446.65,287.4,444.94,287.4Zm-44.64-15-.59,6.11a.36.36,0,0,1-.07.18.64.64,0,0,0-.06.16c-.16,1.68,10.79,5.1,29,6.88a153,153,0,0,0,21.13.76c6.71-.34,8.59-1.36,8.65-1.91h0a.46.46,0,0,0,0-.19.34.34,0,0,1,0-.2l.58-6.08Z"></path><ellipse class="cls-11" cx="429.61" cy="275.14" rx="4.43" ry="29.93" transform="translate(114.11 676.05) rotate(-84.44)"></ellipse><path class="cls-12" d="M445.57,280.82c-4.86,0-10.53-.29-16.43-.87-12.13-1.18-30.06-4.22-29.72-7.75.05-.54.21-2.17,9.4-2.63a151.56,151.56,0,0,1,21.25.76c12.14,1.18,30.07,4.22,29.72,7.75-.05.54-.21,2.17-9.4,2.63C448.9,280.79,447.28,280.82,445.57,280.82Zm-31.93-10.56c-1.7,0-3.3,0-4.78.11-6.71.34-8.59,1.36-8.64,1.91-.16,1.67,10.79,5.1,29,6.87a153,153,0,0,0,21.13.76c6.71-.34,8.59-1.36,8.64-1.91.17-1.67-10.79-5.1-29-6.87C424.12,270.56,418.48,270.26,413.64,270.26Z"></path><path class="cls-11" d="M425.15,269.48C425,271.92,411.5,273,395,272s-29.74-3.9-29.58-6.34a.68.68,0,0,1,.11-.35l.42-6.52,59.53,3.82-.41,6.5A.78.78,0,0,1,425.15,269.48Z"></path><path class="cls-12" d="M406.92,272.78c-3.73,0-7.78-.13-11.94-.4-12.17-.78-30.19-3.23-30-6.77a1,1,0,0,1,.12-.43l.4-6.44a.42.42,0,0,1,.14-.27.43.43,0,0,1,.29-.1l59.54,3.82a.4.4,0,0,1,.37.43l-.4,6.4a1.15,1.15,0,0,1,.07.48c0,.54-.13,2.18-9.31,2.94C413.5,272.67,410.34,272.78,406.92,272.78Zm-40.6-13.58-.39,6.12a.41.41,0,0,1-.05.18.29.29,0,0,0-.06.16c-.11,1.68,10.95,4.75,29.21,5.92a152.2,152.2,0,0,0,21.14.06c6.7-.56,8.55-1.64,8.58-2.19h0a.33.33,0,0,0,0-.18.39.39,0,0,1,0-.21l.38-6.09Z"></path><ellipse class="cls-11" cx="395.7" cy="260.97" rx="4.43" ry="29.93" transform="translate(109.9 639.12) rotate(-86.32)"></ellipse><path class="cls-12" d="M407.34,266.19c-3.73,0-7.78-.13-11.94-.4-12.17-.78-30.19-3.23-30-6.77,0-.54.14-2.18,9.32-2.94a153.93,153.93,0,0,1,21.26.06c12.17.78,30.19,3.23,30,6.77h0c0,.54-.14,2.18-9.31,2.94C413.92,266.08,410.76,266.19,407.34,266.19Zm-23.27-9.65c-3.4,0-6.54.12-9.25.34-6.7.56-8.55,1.64-8.58,2.19-.11,1.68,10.95,4.74,29.21,5.92a152.2,152.2,0,0,0,21.14.06c6.7-.56,8.55-1.64,8.58-2.19.11-1.68-10.95-4.74-29.21-5.92C391.81,256.68,387.78,256.54,384.07,256.54Zm41.5,6.34h0Z"></path><path class="cls-11" d="M445.73,251.73c-.26,2.43-13.8,3-30.23,1.2s-29.54-5.19-29.28-7.62a.65.65,0,0,1,.13-.34l.69-6.51,59.31,6.4-.69,6.48A.77.77,0,0,1,445.73,251.73Z"></path><path class="cls-12" d="M433.07,254.37a168.62,168.62,0,0,1-17.61-1.05c-12.13-1.3-30-4.53-29.64-8.06a1,1,0,0,1,.14-.42l.68-6.42a.43.43,0,0,1,.15-.27.39.39,0,0,1,.29-.09l59.31,6.4a.42.42,0,0,1,.36.45l-.68,6.38a1.32,1.32,0,0,1,.06.48c-.06.54-.24,2.17-9.44,2.54C435.55,254.35,434.34,254.37,433.07,254.37ZM387.4,238.91l-.65,6.1a.4.4,0,0,1-.07.18.29.29,0,0,0-.06.16c-.18,1.67,10.73,5.21,28.92,7.18a151.83,151.83,0,0,0,21.12,1c6.72-.26,8.61-1.26,8.67-1.81h0a.46.46,0,0,0,0-.19.35.35,0,0,1,0-.2l.65-6.08Z"></path><ellipse class="cls-11" cx="416.67" cy="241.95" rx="4.43" ry="29.93" transform="translate(131.41 630.25) rotate(-83.84)"></ellipse><path class="cls-12" d="M433.77,247.8a168.62,168.62,0,0,1-17.61-1.05c-12.12-1.3-30-4.53-29.64-8.06.06-.53.23-2.17,9.43-2.53a152.09,152.09,0,0,1,21.24,1c12.12,1.31,30,4.54,29.64,8.06h0c-.06.54-.23,2.17-9.43,2.54Q435.68,247.8,433.77,247.8Zm-34.19-10.9q-1.89,0-3.6.06c-6.71.27-8.6,1.27-8.66,1.82-.18,1.67,10.74,5.21,28.93,7.18a151.63,151.63,0,0,0,21.11,1c6.72-.26,8.61-1.26,8.67-1.81h0c.18-1.68-10.74-5.22-28.93-7.18A169.55,169.55,0,0,0,399.58,236.9Zm46.85,8.26Z"></path><path class="cls-11" d="M463.83,243.65c-.26,2.44-13.8,3-30.23,1.2s-29.54-5.18-29.28-7.62a.65.65,0,0,1,.13-.34l.69-6.5,59.31,6.4-.69,6.47A.81.81,0,0,1,463.83,243.65Z"></path><path class="cls-12" d="M451.17,246.3a168.46,168.46,0,0,1-17.61-1.05c-12.13-1.31-30-4.53-29.64-8.06a1,1,0,0,1,.14-.43l.68-6.41a.41.41,0,0,1,.44-.36l59.31,6.4a.4.4,0,0,1,.36.44l-.68,6.38a1.38,1.38,0,0,1,.06.49h0c-.06.53-.24,2.17-9.44,2.53C453.65,246.28,452.44,246.3,451.17,246.3ZM405.5,230.83l-.66,6.1a.28.28,0,0,1-.06.18.29.29,0,0,0-.06.16c-.18,1.68,10.73,5.22,28.92,7.18a152,152,0,0,0,21.12,1c6.72-.27,8.61-1.27,8.67-1.82h0a.5.5,0,0,0,0-.19.34.34,0,0,1,0-.2l.65-6.07Z"></path><ellipse class="cls-11" cx="434.77" cy="233.87" rx="4.43" ry="29.93" transform="translate(155.6 641.04) rotate(-83.84)"></ellipse><path class="cls-12" d="M451.87,239.73a168.62,168.62,0,0,1-17.61-1c-12.12-1.31-30-4.53-29.64-8.06.06-.54.23-2.17,9.43-2.54a153.82,153.82,0,0,1,21.24,1c12.12,1.3,30,4.53,29.64,8.06h0c-.06.53-.23,2.17-9.43,2.53C454.35,239.71,453.14,239.73,451.87,239.73Zm-34.19-10.91c-1.26,0-2.47,0-3.6.07-6.71.26-8.6,1.26-8.66,1.81-.18,1.68,10.74,5.22,28.93,7.18a151.8,151.8,0,0,0,21.11,1c6.72-.27,8.61-1.27,8.67-1.82.18-1.67-10.74-5.21-28.93-7.17A167,167,0,0,0,417.68,228.82Zm46.85,8.26Z"></path><path class="cls-11" d="M456.8,275.56c-.67,2.35-14.1.54-30-4S398.61,261.33,399.29,259a.76.76,0,0,1,.18-.31l1.81-6.28L458.6,268.9l-1.8,6.26A.68.68,0,0,1,456.8,275.56Z"></path><path class="cls-12" d="M453.09,277a43,43,0,0,1-5.63-.45,153.66,153.66,0,0,1-20.75-4.63c-11.72-3.38-28.79-9.64-27.81-13.05a1.19,1.19,0,0,1,.21-.4l1.78-6.19a.44.44,0,0,1,.19-.25.42.42,0,0,1,.31,0l57.32,16.53a.39.39,0,0,1,.28.49l-1.77,6.17a1.34,1.34,0,0,1,0,.49h0C457.08,276.05,456.81,277,453.09,277Zm-51.54-24.12-1.69,5.9a.42.42,0,0,1-.1.17.8.8,0,0,0-.09.14c-.46,1.62,9.68,7,27.26,12.06a151.59,151.59,0,0,0,20.64,4.6c6.66.9,8.69.24,8.85-.29h0a.46.46,0,0,0,0-.2.46.46,0,0,1,0-.2l1.68-5.87Zm55.25,22.69h0Z"></path><ellipse class="cls-11" cx="429.87" cy="260.92" rx="4.43" ry="29.93" transform="translate(60.07 601.67) rotate(-73.92)"></ellipse><path class="cls-12" d="M454.92,270.65a43.5,43.5,0,0,1-5.64-.46,153.66,153.66,0,0,1-20.75-4.63c-11.71-3.38-28.79-9.64-27.81-13.05.15-.52.61-2.1,9.73-.87a153.66,153.66,0,0,1,20.75,4.63c11.72,3.38,28.79,9.64,27.81,13.05C458.9,269.7,458.63,270.65,454.92,270.65ZM404.86,252c-2.39,0-3.26.39-3.36.74-.47,1.61,9.68,7,27.26,12.05a151.82,151.82,0,0,0,20.63,4.6c6.66.9,8.7.24,8.85-.29.47-1.62-9.68-7-27.26-12.06a151.82,151.82,0,0,0-20.63-4.6A42.26,42.26,0,0,0,404.86,252Z"></path><rect class="cls-4" x="320.99" y="216.35" width="135.84" height="35.24" transform="matrix(1, 0.09, -0.09, 1, 22.33, -33.64)"></rect><path class="cls-5" d="M455.37,258,319.26,245.85l3.2-35.9,136.11,12.14ZM320.13,245.12l134.51,12,3.06-34.3-134.51-12Z"></path><rect class="cls-4" x="324.44" y="216.54" width="135.84" height="35.24" transform="translate(22.36 -33.95) rotate(5.1)"></rect><path class="cls-5" d="M458.81,258.18,322.71,246l3.2-35.9L462,222.28ZM323.58,245.31l134.5,12,3.07-34.3L326.64,211Z"></path><path class="cls-12" d="M349.81,237.53a9.14,9.14,0,0,1-3.51-1,5.15,5.15,0,0,1-2-1.81,3.72,3.72,0,0,1-.56-2.18.39.39,0,0,1,.17-.3.43.43,0,0,1,.34-.11l2.71.26a.85.85,0,0,1,.45.16,1.12,1.12,0,0,1,.27.3,2.51,2.51,0,0,0,.42.68,2.24,2.24,0,0,0,.78.56,3.47,3.47,0,0,0,1.23.3,3.58,3.58,0,0,0,1.92-.2,1.19,1.19,0,0,0,.74-1,1,1,0,0,0-.27-.83,3.4,3.4,0,0,0-1.05-.66,19.49,19.49,0,0,0-2-.7,12.84,12.84,0,0,1-2.69-1.16,4.26,4.26,0,0,1-1.62-1.62,3.89,3.89,0,0,1-.38-2.28,3.83,3.83,0,0,1,1-2.27A4.88,4.88,0,0,1,348,222.3a7.92,7.92,0,0,1,3.22-.27,8.13,8.13,0,0,1,2.57.64,6.05,6.05,0,0,1,1.81,1.22,5,5,0,0,1,1,1.48,3.12,3.12,0,0,1,.28,1.45.48.48,0,0,1-.15.3.42.42,0,0,1-.35.11l-2.84-.28a1,1,0,0,1-.4-.12.82.82,0,0,1-.27-.31,1.46,1.46,0,0,0-.6-.9,2.64,2.64,0,0,0-1.39-.49,2.77,2.77,0,0,0-1.51.19,1.15,1.15,0,0,0-.63,1,1.14,1.14,0,0,0,.22.78,2.34,2.34,0,0,0,.92.65,14.94,14.94,0,0,0,1.81.68,14.26,14.26,0,0,1,3.07,1.22,4.12,4.12,0,0,1,1.64,1.59,4,4,0,0,1,.36,2.24,4,4,0,0,1-1.09,2.44,5.33,5.33,0,0,1-2.45,1.4A9,9,0,0,1,349.81,237.53Z"></path><path class="cls-12" d="M357.38,238.05a.46.46,0,0,1-.3-.17.4.4,0,0,1-.1-.32.59.59,0,0,1,0-.2L363.41,224a1,1,0,0,1,.31-.39.85.85,0,0,1,.59-.13l3.19.31a.91.91,0,0,1,.55.24,1,1,0,0,1,.23.45l3.69,14.3a.43.43,0,0,1,0,.2.42.42,0,0,1-.17.29.45.45,0,0,1-.35.11l-2.64-.26a.69.69,0,0,1-.47-.2.86.86,0,0,1-.18-.31l-.62-2.28-5.75-.56-1,2.12a.81.81,0,0,1-.22.27.69.69,0,0,1-.53.11ZM363,232.8l4,.39-1.45-5.88Z"></path><path class="cls-12" d="M376.77,239.94a.89.89,0,0,1-.57-.25,1.09,1.09,0,0,1-.25-.49L372.9,225a.49.49,0,0,1,0-.2.46.46,0,0,1,.17-.3.44.44,0,0,1,.35-.1l2.67.26a.73.73,0,0,1,.52.24.91.91,0,0,1,.2.39l2.09,10.24,4-9.65a1,1,0,0,1,.28-.34.67.67,0,0,1,.54-.14l2.69.26a.42.42,0,0,1,.3.17.42.42,0,0,1,.11.33.48.48,0,0,1-.06.18L381,239.7a.93.93,0,0,1-.32.42.87.87,0,0,1-.62.14Z"></path><path class="cls-12" d="M387.91,241a.51.51,0,0,1-.37-.2.57.57,0,0,1-.12-.39l1.36-14a.56.56,0,0,1,.19-.38.51.51,0,0,1,.4-.11l2.89.28a.6.6,0,0,1,.38.19.48.48,0,0,1,.12.4l-1.36,14a.54.54,0,0,1-.19.36.61.61,0,0,1-.42.12Z"></path><path class="cls-12" d="M394.88,241.7a.54.54,0,0,1-.37-.2.57.57,0,0,1-.12-.39l1.36-14a.56.56,0,0,1,.19-.37.51.51,0,0,1,.4-.11l2.28.22a.72.72,0,0,1,.52.21,2,2,0,0,1,.18.27l4.44,8.77.79-8.13a.54.54,0,0,1,.19-.37.55.55,0,0,1,.4-.12l2.58.25a.52.52,0,0,1,.49.59l-1.36,14a.56.56,0,0,1-.19.38.47.47,0,0,1-.4.12l-2.3-.22a.69.69,0,0,1-.49-.22,1.54,1.54,0,0,1-.18-.26l-4.48-8.47-.76,7.83a.5.5,0,0,1-.19.36.51.51,0,0,1-.4.13Z"></path><path class="cls-12" d="M416,244a8.49,8.49,0,0,1-3.45-1,5.18,5.18,0,0,1-2.08-2.2,6.5,6.5,0,0,1-.59-3.26c.05-.62.1-1.28.17-2s.14-1.36.22-2a6.1,6.1,0,0,1,1.2-3,5.27,5.27,0,0,1,2.49-1.71,8.45,8.45,0,0,1,3.55-.33,9.12,9.12,0,0,1,2.82.68,6.58,6.58,0,0,1,2,1.26,5.13,5.13,0,0,1,1.16,1.59,3.45,3.45,0,0,1,.32,1.62.46.46,0,0,1-.17.31.5.5,0,0,1-.35.1l-3.14-.31a.72.72,0,0,1-.35-.11.7.7,0,0,1-.18-.25,3.62,3.62,0,0,0-.38-.72,2.56,2.56,0,0,0-.73-.69,3,3,0,0,0-1.3-.38,2.73,2.73,0,0,0-2,.46,2.84,2.84,0,0,0-1,2c-.17,1.23-.29,2.47-.37,3.74a3,3,0,0,0,.59,2.25,2.8,2.8,0,0,0,1.89.86,3.66,3.66,0,0,0,1.46-.14,2.23,2.23,0,0,0,1.08-.78,2.78,2.78,0,0,0,.52-1.48l0-.41-2-.19a.57.57,0,0,1-.37-.2.61.61,0,0,1-.11-.42l.16-1.59a.5.5,0,0,1,.19-.38.51.51,0,0,1,.4-.13l5.42.53a.51.51,0,0,1,.37.2.55.55,0,0,1,.11.41l-.24,2.46a5.81,5.81,0,0,1-1.14,3.08,5.46,5.46,0,0,1-2.57,1.78A8.82,8.82,0,0,1,416,244Z"></path><path class="cls-12" d="M430.89,245.42a9.14,9.14,0,0,1-3.51-1,5.24,5.24,0,0,1-2-1.82,3.7,3.7,0,0,1-.56-2.18.43.43,0,0,1,.17-.3.47.47,0,0,1,.34-.11l2.71.27a.92.92,0,0,1,.46.15,1.34,1.34,0,0,1,.26.31,2.47,2.47,0,0,0,.42.67,2.24,2.24,0,0,0,.78.56,4.52,4.52,0,0,0,3.15.1,1.17,1.17,0,0,0,.74-1,1,1,0,0,0-.27-.83,3.23,3.23,0,0,0-1.05-.65,19.17,19.17,0,0,0-2-.71,12.34,12.34,0,0,1-2.69-1.16,4.31,4.31,0,0,1-1.62-1.61,4.27,4.27,0,0,1,.59-4.56,4.87,4.87,0,0,1,2.23-1.41,7.91,7.91,0,0,1,3.22-.28,8.13,8.13,0,0,1,2.57.64,6.24,6.24,0,0,1,1.81,1.22,5.07,5.07,0,0,1,1,1.48,3.12,3.12,0,0,1,.28,1.45.44.44,0,0,1-.15.3.42.42,0,0,1-.35.11l-2.84-.28a.85.85,0,0,1-.4-.12.75.75,0,0,1-.27-.31,1.47,1.47,0,0,0-.6-.89A2.56,2.56,0,0,0,432,233a2.77,2.77,0,0,0-1.51.19,1.15,1.15,0,0,0-.63,1,1.14,1.14,0,0,0,.22.78,2.25,2.25,0,0,0,.92.66,17.17,17.17,0,0,0,1.81.67,14.26,14.26,0,0,1,3.07,1.22,4.14,4.14,0,0,1,1.64,1.6,4.31,4.31,0,0,1-.73,4.67,5.24,5.24,0,0,1-2.45,1.4A9.18,9.18,0,0,1,430.89,245.42Z"></path><ellipse class="cls-11" cx="392.41" cy="58.78" rx="37.82" ry="42.58"></ellipse><path class="cls-12" d="M392.41,101.76c-10.21,0-19.81-4.47-27-12.59A45.58,45.58,0,0,1,354.19,58.8c0-23.7,17.13-43,38.2-43h0c10.22,0,19.81,4.47,27,12.59a45.52,45.52,0,0,1,11.2,30.37c0,23.7-17.13,43-38.21,43Zm0-85.16h0c-20.63,0-37.41,18.94-37.4,42.2a44.78,44.78,0,0,0,11,29.84c7.07,7.94,16.45,12.32,26.43,12.32h0c20.63,0,37.41-18.95,37.4-42.2a44.73,44.73,0,0,0-11-29.84C411.78,21,402.39,16.6,392.41,16.6Z"></path><ellipse class="cls-11" cx="388.31" cy="58.78" rx="37.82" ry="42.58"></ellipse><path class="cls-12" d="M388.31,101.76c-10.21,0-19.81-4.47-27-12.59A45.53,45.53,0,0,1,350.09,58.8c0-23.7,17.12-43,38.2-43h0c10.21,0,19.81,4.47,27,12.59a45.51,45.51,0,0,1,11.19,30.37c0,23.7-17.12,43-38.2,43Zm0-85.16h0c-20.63,0-37.41,18.94-37.4,42.2a44.78,44.78,0,0,0,11,29.84C369,96.58,378.33,101,388.31,101h0c20.63,0,37.41-18.95,37.4-42.2a44.78,44.78,0,0,0-11-29.84C407.67,21,398.29,16.6,388.31,16.6Z"></path><ellipse class="cls-13" cx="388.39" cy="58.95" rx="31.4" ry="35.35"></ellipse><path class="cls-5" d="M388.39,94.7a30,30,0,0,1-22.5-10.47A37.91,37.91,0,0,1,356.58,59c0-19.72,14.25-35.77,31.79-35.77h0a29.93,29.93,0,0,1,22.49,10.47,37.86,37.86,0,0,1,9.31,25.26c0,19.72-14.25,35.76-31.79,35.77Zm0-70.7h0c-17.09,0-31,15.7-31,35a37,37,0,0,0,9.11,24.72A29.14,29.14,0,0,0,388.39,93.9h0c17.1,0,31-15.7,31-35a37.09,37.09,0,0,0-9.11-24.72A29.12,29.12,0,0,0,388.39,24Z"></path><ellipse class="cls-11" cx="388.39" cy="58.95" rx="23.54" ry="26.5"></ellipse><path class="cls-12" d="M388.39,85.85A22.56,22.56,0,0,1,371.45,78a28.52,28.52,0,0,1-7-19c0-14.83,10.73-26.91,23.93-26.92h0a22.51,22.51,0,0,1,16.93,7.89,28.47,28.47,0,0,1,7,19c0,14.84-10.73,26.92-23.93,26.92Zm0-53h0c-12.75,0-23.13,11.72-23.12,26.11a27.7,27.7,0,0,0,6.8,18.47,21.77,21.77,0,0,0,16.34,7.62h0c12.76,0,23.13-11.72,23.13-26.12a27.7,27.7,0,0,0-6.81-18.47A21.73,21.73,0,0,0,388.39,32.85Z"></path><g class="cls-3"><path d="M445.44,115.92c-10.67,2.86-24.91,7.8-43.41,5.62s-23.61-6.76-23.61-13.51,15-10.46,33.51-8.28S452,114.18,445.44,115.92Z"></path></g></g></g></g></svg>