<svg xmlns="http://www.w3.org/2000/svg" width="408.571" height="235.208" viewBox="0 0 408.571 235.208"><g id="Group_943" data-name="Group 943" transform="translate(-1120.672 -1466.251)"><path id="Rectangle_1384" data-name="Rectangle 1384" d="M6,0H208.605a6,6,0,0,1,6,6V17.659a0,0,0,0,1,0,0H0a0,0,0,0,1,0,0V6A6,6,0,0,1,6,0Z" transform="translate(1120.672 1466.251)" fill="#0c7ff2"></path><path id="Rectangle_1330" data-name="Rectangle 1330" d="M0,0H214.605a0,0,0,0,1,0,0V154.873a6,6,0,0,1-6,6H6a6,6,0,0,1-6-6V0A0,0,0,0,1,0,0Z" transform="translate(1120.672 1483.883)" fill="#10244c"></path><rect id="Rectangle_1380" data-name="Rectangle 1380" width="11.001" height="2.589" rx="1" transform="translate(1138.219 1502.948)" fill="#f5d4d4"></rect><rect id="Rectangle_1381" data-name="Rectangle 1381" width="11.001" height="2.589" rx="1" transform="translate(1166.878 1549.168)" fill="#f5d4d4"></rect><rect id="Rectangle_2194" data-name="Rectangle 2194" width="11.001" height="2.589" rx="1" transform="translate(1166.878 1568.32)" fill="#f5d4d4"></rect><rect id="Rectangle_2203" data-name="Rectangle 2203" width="11.001" height="2.589" rx="1" transform="translate(1166.878 1581.087)" fill="#f5d4d4"></rect><rect id="Rectangle_2181" data-name="Rectangle 2181" width="11.001" height="2.589" rx="1" transform="translate(1138.219 1614.424)" fill="#f5d4d4"></rect><rect id="Rectangle_1382" data-name="Rectangle 1382" width="11.001" height="2.589" rx="1" transform="translate(1150.564 1530.004)" fill="#f5d4d4"></rect><rect id="Rectangle_1354" data-name="Rectangle 1354" width="11.001" height="2.589" rx="1" transform="translate(1201.9 1538.939) rotate(180)" fill="#f5d4d4"></rect><rect id="Rectangle_2192" data-name="Rectangle 2192" width="11.001" height="2.589" rx="1" transform="translate(1201.191 1604.195) rotate(180)" fill="#f5d4d4"></rect><rect id="Rectangle_1364" data-name="Rectangle 1364" width="7.118" height="2.589" rx="1" transform="translate(1166.681 1555.552)" fill="#f5d4d4"></rect><rect id="Rectangle_2196" data-name="Rectangle 2196" width="7.118" height="2.589" rx="1" transform="translate(1166.681 1574.703)" fill="#f5d4d4"></rect><rect id="Rectangle_2202" data-name="Rectangle 2202" width="7.118" height="2.589" rx="1" transform="translate(1166.681 1587.471)" fill="#f5d4d4"></rect><rect id="Rectangle_1366" data-name="Rectangle 1366" width="7.118" height="2.589" rx="1" transform="translate(1180.107 1530.004)" fill="#f5d4d4"></rect><rect id="Rectangle_1365" data-name="Rectangle 1365" width="7.118" height="2.589" rx="1" transform="translate(1181.576 1523.532)" fill="#f5d4d4"></rect><rect id="Rectangle_1367" data-name="Rectangle 1367" width="7.118" height="2.589" rx="1" transform="translate(1177.693 1513.303) rotate(180)" fill="#f5d4d4"></rect><rect id="Rectangle_1368" data-name="Rectangle 1368" width="7.118" height="2.589" rx="1" transform="translate(1190.461 1597.825) rotate(180)" fill="#f5d4d4"></rect><rect id="Rectangle_2184" data-name="Rectangle 2184" width="7.118" height="2.589" rx="1" transform="translate(1177.693 1623.36) rotate(180)" fill="#f5d4d4"></rect><rect id="Rectangle_1369" data-name="Rectangle 1369" width="7.118" height="2.589" rx="1" transform="translate(1157.682 1538.939) rotate(180)" fill="#f5d4d4"></rect><rect id="Rectangle_2183" data-name="Rectangle 2183" width="7.118" height="2.589" rx="1" transform="translate(1157.682 1604.195) rotate(180)" fill="#f5d4d4"></rect><rect id="Rectangle_1361" data-name="Rectangle 1361" width="13.59" height="2.589" rx="1" transform="translate(1177.035 1555.552)" fill="#0c7ff2"></rect><rect id="Rectangle_2197" data-name="Rectangle 2197" width="13.59" height="2.589" rx="1" transform="translate(1177.035 1574.703)" fill="#0c7ff2"></rect><rect id="Rectangle_2200" data-name="Rectangle 2200" width="13.59" height="2.589" rx="1" transform="translate(1177.035 1587.471)" fill="#0c7ff2"></rect><rect id="Rectangle_1373" data-name="Rectangle 1373" width="13.59" height="2.589" rx="1" transform="translate(1163.928 1530.004)" fill="#0c7ff2"></rect><rect id="Rectangle_1356" data-name="Rectangle 1356" width="13.59" height="2.589" rx="1" transform="translate(1191.93 1523.532)" fill="#0c7ff2"></rect><rect id="Rectangle_1374" data-name="Rectangle 1374" width="13.59" height="2.589" rx="1" transform="translate(1167.339 1513.303) rotate(180)" fill="#0c7ff2"></rect><rect id="Rectangle_1375" data-name="Rectangle 1375" width="13.59" height="2.589" rx="1" transform="translate(1180.107 1597.825) rotate(180)" fill="#0c7ff2"></rect><rect id="Rectangle_2185" data-name="Rectangle 2185" width="13.59" height="2.589" rx="1" transform="translate(1167.339 1623.36) rotate(180)" fill="#0c7ff2"></rect><rect id="Rectangle_1362" data-name="Rectangle 1362" width="13.59" height="2.589" rx="1" transform="translate(1192.566 1555.552)" fill="#01c7d4"></rect><rect id="Rectangle_2198" data-name="Rectangle 2198" width="13.59" height="2.589" rx="1" transform="translate(1192.566 1574.703)" fill="#01c7d4"></rect><rect id="Rectangle_2201" data-name="Rectangle 2201" width="13.59" height="2.589" rx="1" transform="translate(1192.566 1587.471)" fill="#01c7d4"></rect><rect id="Rectangle_1378" data-name="Rectangle 1378" width="13.59" height="2.589" rx="1" transform="translate(1151.808 1513.303) rotate(180)" fill="#01c7d4"></rect><rect id="Rectangle_1379" data-name="Rectangle 1379" width="13.59" height="2.589" rx="1" transform="translate(1164.154 1597.825) rotate(180)" fill="#01c7d4"></rect><rect id="Rectangle_2186" data-name="Rectangle 2186" width="13.59" height="2.589" rx="1" transform="translate(1151.808 1623.36) rotate(180)" fill="#01c7d4"></rect><rect id="Rectangle_1376" data-name="Rectangle 1376" width="31.709" height="2.589" rx="1" transform="translate(1169.928 1519.774) rotate(180)" fill="#455c8a"></rect><rect id="Rectangle_1377" data-name="Rectangle 1377" width="31.709" height="2.589" rx="1" transform="translate(1198.587 1545.41) rotate(180)" fill="#455c8a"></rect><rect id="Rectangle_2193" data-name="Rectangle 2193" width="31.709" height="2.589" rx="1" transform="translate(1198.587 1564.561) rotate(180)" fill="#455c8a"></rect><rect id="Rectangle_2180" data-name="Rectangle 2180" width="31.709" height="2.589" rx="1" transform="translate(1181.986 1610.666) rotate(180)" fill="#455c8a"></rect><rect id="Rectangle_1359" data-name="Rectangle 1359" width="22.002" height="2.589" rx="1" transform="translate(1195.166 1519.774) rotate(180)" fill="#455c8a"></rect><rect id="Rectangle_1360" data-name="Rectangle 1360" width="6.398" height="2.589" rx="1" transform="translate(1207.933 1545.41) rotate(180)" fill="#455c8a"></rect><rect id="Rectangle_2199" data-name="Rectangle 2199" width="6.398" height="2.589" rx="1" transform="translate(1207.933 1564.561) rotate(180)" fill="#455c8a"></rect><rect id="Rectangle_2187" data-name="Rectangle 2187" width="7.107" height="2.589" rx="1" transform="translate(1192.329 1610.666) rotate(180)" fill="#455c8a"></rect><rect id="Rectangle_1352" data-name="Rectangle 1352" width="9.944" height="2.589" rx="1" transform="translate(1208.346 1519.774) rotate(180)" fill="#455c8a"></rect><rect id="Rectangle_1370" data-name="Rectangle 1370" width="28.474" height="2.589" rx="1" transform="translate(1151.161 1502.948)" fill="#01c7d4"></rect><rect id="Rectangle_1371" data-name="Rectangle 1371" width="28.474" height="2.589" rx="1" transform="translate(1179.533 1549.168)" fill="#01c7d4"></rect><rect id="Rectangle_2195" data-name="Rectangle 2195" width="28.474" height="2.589" rx="1" transform="translate(1179.533 1568.32)" fill="#01c7d4"></rect><rect id="Rectangle_2204" data-name="Rectangle 2204" width="28.474" height="2.589" rx="1" transform="translate(1179.533 1581.087)" fill="#01c7d4"></rect><rect id="Rectangle_2182" data-name="Rectangle 2182" width="28.474" height="2.589" rx="1" transform="translate(1151.161 1614.424)" fill="#01c7d4"></rect><rect id="Rectangle_1372" data-name="Rectangle 1372" width="28.474" height="2.589" rx="1" transform="translate(1150.564 1523.532)" fill="#01c7d4"></rect><rect id="Rectangle_1358" data-name="Rectangle 1358" width="28.474" height="2.589" rx="1" transform="translate(1188.957 1538.939) rotate(180)" fill="#01c7d4"></rect><rect id="Rectangle_2188" data-name="Rectangle 2188" width="28.474" height="2.589" rx="1" transform="translate(1188.248 1604.195) rotate(180)" fill="#01c7d4"></rect><rect id="Rectangle_2205" data-name="Rectangle 2205" width="193" height="119" transform="translate(1288 1580)" fill="#0c7ff2"></rect><rect id="Rectangle_2207" data-name="Rectangle 2207" width="47.233" height="62.978" transform="translate(1257.642 1517.412)" fill="#18e0ed"></rect><rect id="Rectangle_2210" data-name="Rectangle 2210" width="104.963" height="49.857" transform="translate(1328.492 1530.532)" fill="#f5d4d4"></rect><rect id="Rectangle_2211" data-name="Rectangle 2211" width="39.361" height="28.865" transform="translate(1388.845 1501.667)" fill="#73b9ff"></rect><rect id="Rectangle_2214" data-name="Rectangle 2214" width="38.901" height="41.459" transform="translate(1471.497 1660)" fill="#18e0ed"></rect><path id="Path_34469" data-name="Path 34469" d="M1.2-.166l190.5.146,26.241,55.105-190.5-.146Z" transform="translate(1289.455 1580.166)" fill="#409fff"></path><path id="Path_34470" data-name="Path 34470" d="M56.478,0H9.112L0,21.387H49.989Z" transform="translate(1248.205 1517.412)" fill="#01c7d4"></path><rect id="Rectangle_2206" data-name="Rectangle 2206" width="54" height="119" transform="translate(1237 1580)" fill="#73b9ff"></rect><rect id="Rectangle_2208" data-name="Rectangle 2208" width="20.11" height="62.978" transform="translate(1304.694 1517.412)" fill="#01c7d4"></rect><rect id="Rectangle_2209" data-name="Rectangle 2209" width="20.993" height="49.857" transform="translate(1433.454 1530.532)" fill="#dba9a9"></rect><rect id="Rectangle_2212" data-name="Rectangle 2212" width="13.12" height="28.865" transform="translate(1428.206 1501.667)" fill="#0c7ff2"></rect><rect id="Rectangle_2213" data-name="Rectangle 2213" width="18.845" height="41.459" transform="translate(1510.398 1660)" fill="#01c7d4"></rect><path id="Path_34473" data-name="Path 34473" d="M0,0H13.12l7.872,11.909H7.872Z" transform="translate(1428.206 1501.667)" fill="#409fff"></path><path id="Path_34468" data-name="Path 34468" d="M16.241,0H70.448L44.208,55.105H-10Z" transform="translate(1220.251 1580)" fill="#0c7ff2"></path><path id="Path_34471" data-name="Path 34471" d="M10.369,0H-10L.184,21.387H20.553Z" transform="translate(1314.694 1517.412)" fill="#17d9e6"></path><path id="Path_34474" data-name="Path 34474" d="M381.87,156.209a6.781,6.781,0,0,0,4.11,6.2,16.818,16.818,0,0,1-2.12,4.365c-1.275,1.87-2.6,3.731-4.684,3.772s-2.711-1.22-5.054-1.22-3.074,1.181-5.015,1.257c-2.012.078-3.547-2.022-4.824-3.885-2.628-3.811-4.638-10.77-1.941-15.466a7.494,7.494,0,0,1,6.336-3.848c1.976-.037,3.844,1.332,5.054,1.332s3.476-1.647,5.861-1.406a7.145,7.145,0,0,1,5.578,3.053,6.945,6.945,0,0,0-3.308,5.842M378.008,144.8a6.765,6.765,0,0,0,1.592-4.9,6.858,6.858,0,0,0-4.5,2.32,6.433,6.433,0,0,0-1.624,4.749,5.675,5.675,0,0,0,4.54-2.173" transform="translate(937.165 1519.08)" fill="#fff"></path><path id="Path_34475" data-name="Path 34475" d="M1081.762,153.89l-11.24,1.65V163.9l11.24-.1ZM1060.9,164.8v7.122l8.518,1.171V164.87Zm9.538.115.016,8.3,11.305,1.59v-9.873Zm-9.538-8.067v7.11l8.518-.048v-8.223Z" transform="translate(272.75 1400.866)" fill="#fff"></path><g id="Group_851" data-name="Group 851" transform="translate(1263.242 1556.522)"><path id="Path_34102" data-name="Path 34102" d="M1291.138,442.064h4.713a2.38,2.38,0,0,0,2.345-2.4v-4.453a2.611,2.611,0,0,0-2.354-2.428,14.7,14.7,0,0,0-2.452-.191,13.3,13.3,0,0,0-2.231.191c-2,.348-2.335,1.079-2.335,2.428v1.74h4.692v.639h-6.5a2.941,2.941,0,0,0-2.946,2.37,8.548,8.548,0,0,0,0,4.724c.33,1.381,1.136,2.345,2.507,2.345h1.608v-2.095A2.971,2.971,0,0,1,1291.138,442.064Z" transform="translate(-1283.733 -432.589)" fill="#fff"></path><path id="Path_34103" data-name="Path 34103" d="M1322.274,443.049a.89.89,0,1,1,.885-.895v.008a.885.885,0,0,1-.885.886Z" transform="translate(-1315.167 -439.837)" fill="#18e0ed"></path><path id="Path_34104" data-name="Path 34104" d="M1328.669,465.189c-.33-1.352-.99-2.369-2.359-2.369h-1.726v2.08a2.982,2.982,0,0,1-2.992,2.882h-4.712a2.426,2.426,0,0,0-2.311,2.451v4.448c0,1.264,1.089,2.01,2.337,2.373a7.935,7.935,0,0,0,4.7,0c1.186-.342,2.34-1.027,2.34-2.373V472.9h-4.681v-.644h7.059c1.372,0,1.882-.924,2.359-2.345a7.869,7.869,0,0,0,0-4.724Z" transform="translate(-1309.479 -457.83)" fill="#fff"></path><path id="Path_34105" data-name="Path 34105" d="M1354.516,531.07a.89.89,0,1,1-.886.893h0a.883.883,0,0,1,.883-.886Z" transform="translate(-1342.093 -514.815)" fill="#18e0ed"></path></g><g id="Group_852" data-name="Group 852" transform="translate(1475.771 1677.07)"><path id="Path_34114" data-name="Path 34114" d="M234.121,1110.56h0l-9.731,3.468,1.486,12.867,8.246,4.566h0l8.246-4.566,1.484-12.867Z" transform="translate(-224.39 -1110.56)" fill="#fff"></path><path id="Path_34116" data-name="Path 34116" d="M248.913,1122.23l-6.083,13.639H245.1l1.223-3.051h5.161l1.225,3.051h2.267l-6.062-13.639Zm1.78,8.7h-3.561l1.78-4.275Z" transform="translate(-239.182 -1119.921)" fill="#18e0ed"></path></g><path id="Path_34476" data-name="Path 34476" d="M1204.029,1113.4a1.036,1.036,0,0,0-1.023,1.05h0v4.4a1.023,1.023,0,0,0,2.044.078.59.59,0,0,0,0-.078v-4.4a1.038,1.038,0,0,0-1.023-1.052m8.241-3.952.713-1.34a.154.154,0,0,0-.055-.2.141.141,0,0,0-.191.055h0l-.722,1.352a4.848,4.848,0,0,0-3.992,0l-.721-1.352a.139.139,0,0,0-.187-.06h0a.153.153,0,0,0-.057.2l.71,1.339a4.3,4.3,0,0,0-2.348,3.784h9.2a4.311,4.311,0,0,0-2.346-3.783m-4.357,2.076a.4.4,0,1,1,.386-.407v.01a.393.393,0,0,1-.386.4h0m4.19,0a.4.4,0,1,1,.385-.41v.014a.392.392,0,0,1-.385.4m-6.659,2.082v6.819a1.1,1.1,0,0,0,1.087,1.12h.747v2.334a1.023,1.023,0,1,0,2.044.042v-2.368h1.382v2.326a1.023,1.023,0,1,0,2.044.063.389.389,0,0,0,0-.063v-2.329h.745a1.1,1.1,0,0,0,1.091-1.12v-6.819h-9.134Zm11.571.854a1.021,1.021,0,1,0-2.042-.044.225.225,0,0,0,0,.044v4.4a1.022,1.022,0,0,0,2.042.064Z" transform="translate(187.569 402.915)" fill="#fff"></path><path id="Path_34472" data-name="Path 34472" d="M4.872,0H44.233L36.361,11.909H-3Z" transform="translate(1383.973 1501.667)" fill="#0c7ff2"></path></g></svg>