<svg xmlns="http://www.w3.org/2000/svg" viewBox="0 0 1443 864"><defs><style>.cls-1{isolation:isolate;}.cls-2{fill:none;}.cls-3{fill:#455666;stroke:#24313e;}.cls-10,.cls-11,.cls-12,.cls-16,.cls-3,.cls-6,.cls-7,.cls-8,.cls-9{stroke-miterlimit:10;}.cls-16,.cls-3,.cls-4,.cls-5,.cls-7{stroke-width:2px;}.cls-4{fill:#b8af50;}.cls-16,.cls-4,.cls-5,.cls-7{stroke:#031439;}.cls-4,.cls-5{stroke-linecap:round;stroke-linejoin:round;}.cls-5{fill:#f4e969;}.cls-6{fill:#28c397;}.cls-10,.cls-11,.cls-12,.cls-6,.cls-8,.cls-9{stroke:#000;}.cls-13,.cls-17,.cls-20,.cls-7{fill:#ebf0f5;}.cls-8{fill:#187359;}.cls-9{fill:#0c7ff2;}.cls-10{fill:#06407a;}.cls-11{fill:#2d335e;}.cls-12{fill:#5c6ac3;}.cls-13,.cls-17{mix-blend-mode:overlay;}.cls-13{opacity:0.21;}.cls-14,.cls-15{fill:#fff;}.cls-15{fill-rule:evenodd;}.cls-16{fill:#9caab8;}.cls-18,.cls-19{mix-blend-mode:multiply;}.cls-18{opacity:0.2;}.cls-19{opacity:0.17;}.cls-20{mix-blend-mode:screen;opacity:0.28;}</style></defs><g class="cls-1"><g id="Layer_2" data-name="Layer 2"><g id="Layer_1-2" data-name="Layer 1"><rect class="cls-2" width="1443" height="864"></rect><rect class="cls-3" x="405.42" y="412.15" width="346.55" height="325.66"></rect><rect class="cls-4" x="733.93" y="412.15" width="36.09" height="325.66"></rect><rect class="cls-5" x="734.31" y="412.15" width="15.62" height="325.66"></rect><rect class="cls-3" x="411.32" y="412.15" width="362.92" height="41.46"></rect><rect class="cls-6" x="339.67" y="412.15" width="346.55" height="325.66"></rect><rect class="cls-3" x="346.88" y="412.15" width="36.09" height="325.66"></rect><rect class="cls-7" x="328.83" y="412.15" width="36.09" height="325.66"></rect><rect class="cls-3" x="650.14" y="412.15" width="36.09" height="325.66"></rect><rect class="cls-7" x="633.59" y="412.15" width="36.09" height="325.66"></rect><rect class="cls-7" x="323.31" y="412.15" width="362.92" height="41.46"></rect><rect class="cls-3" x="411.32" y="701.75" width="362.92" height="41.46"></rect><rect class="cls-7" x="323.31" y="701.75" width="362.92" height="41.46"></rect><circle class="cls-8" cx="504.35" cy="574.56" r="84.95"></circle><circle class="cls-6" cx="487" cy="574.98" r="84.95"></circle><rect class="cls-3" x="803.14" y="411.61" width="346.55" height="325.66"></rect><rect class="cls-3" x="1131.65" y="411.61" width="36.09" height="325.66"></rect><rect class="cls-7" x="1132.03" y="411.61" width="15.62" height="325.66"></rect><rect class="cls-3" x="809.04" y="411.61" width="362.92" height="41.46"></rect><rect class="cls-9" x="737.39" y="411.61" width="346.55" height="325.66"></rect><rect class="cls-3" x="744.6" y="411.61" width="36.09" height="325.66"></rect><rect class="cls-7" x="726.55" y="411.61" width="36.09" height="325.66"></rect><rect class="cls-3" x="1047.86" y="411.61" width="36.09" height="325.66"></rect><rect class="cls-7" x="1031.31" y="411.61" width="36.09" height="325.66"></rect><rect class="cls-7" x="721.03" y="411.61" width="362.92" height="41.46"></rect><rect class="cls-3" x="809.04" y="701.21" width="362.92" height="41.46"></rect><rect class="cls-7" x="721.03" y="701.21" width="362.92" height="41.46"></rect><circle class="cls-10" cx="902.07" cy="574.02" r="84.95"></circle><circle class="cls-9" cx="884.72" cy="574.44" r="84.95"></circle><rect class="cls-3" x="553.91" y="76.9" width="346.55" height="325.66"></rect><rect class="cls-3" x="882.42" y="76.9" width="36.09" height="325.66"></rect><rect class="cls-7" x="882.8" y="76.9" width="15.62" height="325.66"></rect><rect class="cls-3" x="559.8" y="76.9" width="362.92" height="41.46"></rect><rect class="cls-11" x="488.16" y="76.9" width="346.55" height="325.66"></rect><rect class="cls-3" x="495.36" y="76.9" width="36.09" height="325.66"></rect><rect class="cls-7" x="477.32" y="76.9" width="36.09" height="325.66"></rect><rect class="cls-3" x="798.62" y="76.9" width="36.09" height="325.66"></rect><rect class="cls-7" x="782.08" y="76.9" width="36.09" height="325.66"></rect><rect class="cls-7" x="471.8" y="76.9" width="362.92" height="41.46"></rect><rect class="cls-3" x="559.8" y="366.5" width="362.92" height="41.46"></rect><rect class="cls-7" x="471.8" y="366.5" width="362.92" height="41.46"></rect><circle class="cls-11" cx="666.03" cy="239.31" r="84.95"></circle><circle class="cls-12" cx="648.68" cy="239.73" r="84.95"></circle><rect class="cls-13" x="477.32" y="363.95" width="445.4" height="14.38"></rect><rect class="cls-14" x="838.88" y="534.9" width="38.03" height="38.03"></rect><rect class="cls-14" x="884.19" y="534.9" width="38.03" height="38.03"></rect><rect class="cls-14" x="838.88" y="578.54" width="38.03" height="38.03"></rect><rect class="cls-14" x="884.19" y="578.54" width="38.03" height="38.03"></rect><path class="cls-15" d="M631.44,239s-3.18,1.8,2.21,2.49c6.54.83,9.89.77,17.12-.5a30.23,30.23,0,0,0,4.52,2.27C639,250,618.69,242.37,631.44,239Zm-1.86-9.07s-3.58,2.58,1.82,3.21a66.8,66.8,0,0,0,22.1-.78,9.73,9.73,0,0,0,3.37,2.12C637.24,239.93,615.52,234.37,629.58,229.91Z"></path><path class="cls-15" d="M646.44,214.78c3.93,4.64-1.16,8.71-1.16,8.71s10.19-5.1,5.63-11.7c-4.27-6.16-7.56-9.23,10.6-19.45C661.51,192.34,633.13,199,646.44,214.78Z"></path><path class="cls-15" d="M667.43,246.14s2.31,2-2.62,3.38c-9.37,2.71-38.9,3.18-47.06-.49-2.93-1.32,2.62-3,4.36-3.38a11.51,11.51,0,0,1,2.86-.29c-3.25-2.35-21.25,4.26-9.18,6.38,32.91,5.78,60.15-1.63,51.64-5.6Zm-34.24-25.56s-15.06,3.38-5.38,4.8c4.09.6,12.26.58,19.87,0,6.23-.44,12.48-1.48,12.48-1.48a26,26,0,0,0-3.8,2c-15.31,3.81-44.75,1.56-36.21-2.43a28.36,28.36,0,0,1,13-2.91ZM659.94,236c15.61-7.85,8.54-15.69,3.52-14.71a12.6,12.6,0,0,0-1.78.45,2.89,2.89,0,0,1,1.34-1c9.94-3.35,17.38,10.49-3.39,15.66A1.3,1.3,0,0,0,659.94,236Z"></path><path class="cls-15" d="M651.38,175.33S659.85,184,643,197c-13.55,10.42-3.27,16.59-.31,23.54-7.74-7.17-13.4-13.47-9.47-19.2,5.76-8.43,21.49-12.34,18.21-26Z"></path><path class="cls-15" d="M634.24,257.49c14.87,1.15,37.74,0,38.37-7.07,0,0-1.07,2.65-12.36,4.62a122.28,122.28,0,0,1-37.66.1S624.47,256.74,634.24,257.49Z"></path><path class="cls-15" d="M671.67,270.61h-.46v-.25h1.22v.26H672l0,1.27h-.31Zm2.43.09h0l-.46,1.2h-.21l-.43-1.21h0l0,1.2h-.3l0-1.52h.44l.4,1.08.43-1.07h.44l0,1.52h-.29v-1.2Zm-42.64,13.66a6.76,6.76,0,0,1-4.25,1.85,2.7,2.7,0,0,1-2.89-3c0-2,1.15-3.41,5.56-3.35l1.63,0-.06,4.48Zm3.81,4.42.18-13.52c0-3.46-1.9-5.77-6.65-5.83a17.73,17.73,0,0,0-7.2,1.47l.54,2.4a16.56,16.56,0,0,1,5.55-1c2.74,0,3.91,1.15,3.88,3.43l0,1.71h-1.36c-6.65-.09-9.69,2.45-9.74,6.33,0,3.34,1.91,5.27,5.63,5.32a8.64,8.64,0,0,0,5.89-2.36l.27,2.05Zm12.93.17-4.83-.06-5.57-19L642,270l3.46,11.67.75,3.5a72.71,72.71,0,0,0,4-15.07l4.1.06A76.65,76.65,0,0,1,648.2,289Zm18.59-4.13a6.84,6.84,0,0,1-4.25,1.85,2.69,2.69,0,0,1-2.88-3c0-2,1.14-3.4,5.55-3.34l1.64,0Zm3.82,4.42.17-13.53c.05-3.45-1.9-5.76-6.65-5.82a17.77,17.77,0,0,0-7.2,1.46l.54,2.41a16.57,16.57,0,0,1,5.56-1c2.73,0,3.9,1.15,3.87,3.43l0,1.71-1.37,0c-6.65-.08-9.68,2.46-9.73,6.34,0,3.34,1.9,5.26,5.62,5.31a8.59,8.59,0,0,0,5.89-2.36l.28,2.06Zm-54.52,2.51a10.19,10.19,0,0,1-4.89,3.55L609.32,293a7.93,7.93,0,0,0,3.39-3.1c.53-1,.76-2.32.8-5.47l.28-21.6,4.11.06-.27,21.3C617.57,288.41,617.22,290.11,616.09,291.75Z"></path><g id="layer1"><g id="g1894"><path id="path8615" class="cls-14" d="M486.55,512.32c-32,0-30,13.87-30,13.87l0,14.36h30.52v4.32H444.48S424,542.55,424,574.81s17.86,31.13,17.86,31.13h10.66V591S452,573.1,470.11,573.1h30.27s17,.28,17-16.43V529S520,512.32,486.55,512.32ZM469.72,522a5.49,5.49,0,1,1-5.49,5.49A5.48,5.48,0,0,1,469.72,522Z"></path><path id="path8620" class="cls-14" d="M487.46,637.64c32,0,30-13.87,30-13.87l0-14.37H486.89v-4.31h42.64s20.46,2.32,20.46-30S532.13,544,532.13,544H521.47v15s.57,17.86-17.58,17.86H473.62s-17-.28-17,16.44v27.63S454,637.64,487.46,637.64ZM504.29,628a5.49,5.49,0,1,1,5.49-5.49A5.49,5.49,0,0,1,504.29,628Z"></path></g></g><rect class="cls-16" x="405.26" y="743.21" width="856.12" height="35.16" rx="8.53"></rect><rect class="cls-7" x="263.9" y="743.21" width="851.38" height="35.16" rx="8.53"></rect><path class="cls-17" d="M1111.19,747.26c0,2.24-184,3.45-413.68,3.45s-418-1.21-418-3.45,186.18-4,415.84-4S1111.19,745,1111.19,747.26Z"></path><path class="cls-18" d="M279.51,774.32c0-2.24,186.06-1.89,415.84-1.88s416.3,3.69,416.3,5.93-186.28,0-416.07,0S279.51,776.56,279.51,774.32Z"></path><rect class="cls-19" x="474.29" y="396.93" width="445.4" height="7.19"></rect><rect class="cls-19" x="329.05" y="453.69" width="839.95" height="13.42"></rect><rect class="cls-19" x="325.96" y="445.33" width="839.95" height="6.71"></rect><rect class="cls-20" x="325.96" y="415.51" width="848.78" height="6.25"></rect><rect class="cls-19" x="323.31" y="734.29" width="848.64" height="8.91"></rect><rect class="cls-20" x="323.34" y="701.89" width="395.74" height="6.44" transform="translate(6.17 -4.52) rotate(0.5)"></rect><rect class="cls-20" x="719" y="701.75" width="452.95" height="6.56"></rect></g></g></g></svg>