<svg xmlns="http://www.w3.org/2000/svg" viewBox="0 0 2017 1075.09"><defs><style>.cls-1{isolation:isolate;}.cls-2{fill:none;}.cls-3{fill:#455666;opacity:0.33;}.cls-3,.cls-7{mix-blend-mode:multiply;}.cls-4{fill:#24313e;stroke:#031439;}.cls-10,.cls-11,.cls-12,.cls-4,.cls-5,.cls-8,.cls-9{stroke-miterlimit:10;}.cls-10,.cls-11,.cls-12,.cls-4,.cls-8,.cls-9{stroke-width:2px;}.cls-5{fill:#2edeac;stroke:#000;}.cls-6{fill:#fff;opacity:0.5;}.cls-13,.cls-6{mix-blend-mode:overlay;}.cls-7{opacity:0.21;}.cls-8{fill:#e7e9f2;}.cls-10,.cls-11,.cls-12,.cls-8,.cls-9{stroke:#24313e;}.cls-9{fill:#9caab8;}.cls-10{fill:#d9dee5;}.cls-11,.cls-14{fill:#ebf0f5;}.cls-12{fill:#0062ff;}.cls-13{opacity:0.39;}</style></defs><g class="cls-1"><g id="Layer_2" data-name="Layer 2"><g id="Layer_1-2" data-name="Layer 1"><rect class="cls-2" width="2017" height="1075.09"></rect><rect class="cls-3" x="500.92" y="224.53" width="1033.03" height="224.96" rx="21.49"></rect><rect class="cls-4" x="500.96" y="205.09" width="1033.03" height="232.18" rx="21.49"></rect><rect class="cls-5" x="483.2" y="205.09" width="1033.03" height="232.18" rx="21.49"></rect><rect class="cls-6" x="496.41" y="205.13" width="1011.41" height="13.31" rx="6.66"></rect><rect class="cls-7" x="496.41" y="426.21" width="1011.41" height="13.31" rx="6.66"></rect><path class="cls-4" d="M557.41,358.28a6,6,0,0,1-2.68-5.36,6.38,6.38,0,0,1,1.19-3.58,8.35,8.35,0,0,1,1.79-2.08l21.45-19.67L550,324.31l-2.38-.59a5.28,5.28,0,0,1-3.58-3.28,6.22,6.22,0,0,1-.89-3.28,5.59,5.59,0,0,1,.29-1.79l5.37-15.79a5.26,5.26,0,0,1,3.28-3.57,6.19,6.19,0,0,1,3.27-.9,4.83,4.83,0,0,1,1.49.3l2.39,1.19,25.62,14.6-6-28.9-.3-2.39a6.53,6.53,0,0,1,1.94-4.47,6.12,6.12,0,0,1,4.62-2.08h16.39a6.13,6.13,0,0,1,4.62,2.08,6.51,6.51,0,0,1,1.93,4.47l-.29,2.39-6,28.9,25.92-14.6,2.38-1.19a3.32,3.32,0,0,1,1.49-.3,8.11,8.11,0,0,1,4.32,1.19,4.49,4.49,0,0,1,2.24,3.28l5.36,15.79.3,1.79a7,7,0,0,1-1.34,4,6.14,6.14,0,0,1-3.43,2.54l-2.08.59-29.5,3.28,21.75,19.67a8.35,8.35,0,0,1,1.79,2.08,6.45,6.45,0,0,1,1.19,3.58,6,6,0,0,1-2.68,5.36l-13.11,9.83a8.52,8.52,0,0,1-3.88.9c-2.58,0-4.37-.79-5.36-2.39a.86.86,0,0,0-.3-.59,6.74,6.74,0,0,1-.89-1.49l-12.52-27.12L581,364.54a7.06,7.06,0,0,1-.9,1.49.85.85,0,0,0-.29.59c-1,1.6-2.79,2.39-5.37,2.39a8.47,8.47,0,0,1-3.87-.9Z"></path><path class="cls-4" d="M690.3,358.28a6,6,0,0,1-2.68-5.36,6.45,6.45,0,0,1,1.19-3.58,8.35,8.35,0,0,1,1.79-2.08l21.45-19.67-29.2-3.28-2.38-.59a5.29,5.29,0,0,1-3.57-3.28,6.22,6.22,0,0,1-.9-3.28,5.6,5.6,0,0,1,.3-1.79l5.36-15.79a5.29,5.29,0,0,1,3.28-3.57,6.22,6.22,0,0,1,3.28-.9,4.94,4.94,0,0,1,1.49.3l2.38,1.19,25.63,14.6-6-28.9-.3-2.39a6.48,6.48,0,0,1,1.94-4.47,6.1,6.1,0,0,1,4.61-2.08H734.4a6.12,6.12,0,0,1,4.62,2.08,6.53,6.53,0,0,1,1.94,4.47l-.3,2.39-6,28.9,25.92-14.6,2.39-1.19a3.27,3.27,0,0,1,1.49-.3,8.14,8.14,0,0,1,4.32,1.19,4.48,4.48,0,0,1,2.23,3.28l5.37,15.79.3,1.79a6.93,6.93,0,0,1-1.35,4,6.15,6.15,0,0,1-3.42,2.54l-2.09.59-29.5,3.28,21.75,19.67a8.1,8.1,0,0,1,1.79,2.08,6.45,6.45,0,0,1,1.19,3.58,6,6,0,0,1-2.68,5.36l-13.11,9.83a8.47,8.47,0,0,1-3.87.9c-2.59,0-4.37-.79-5.37-2.39a.89.89,0,0,0-.29-.59,7.06,7.06,0,0,1-.9-1.49l-12.51-27.12-12.52,27.12A7.66,7.66,0,0,1,713,366a.86.86,0,0,0-.3.59c-1,1.6-2.78,2.39-5.36,2.39a8.55,8.55,0,0,1-3.88-.9Z"></path><path class="cls-4" d="M823.2,358.28a6,6,0,0,1-2.68-5.36,6.38,6.38,0,0,1,1.19-3.58,8.35,8.35,0,0,1,1.79-2.08L845,327.59l-29.2-3.28-2.38-.59a5.28,5.28,0,0,1-3.58-3.28,6.22,6.22,0,0,1-.89-3.28,5.59,5.59,0,0,1,.29-1.79l5.37-15.79a5.26,5.26,0,0,1,3.28-3.57,6.19,6.19,0,0,1,3.27-.9,4.83,4.83,0,0,1,1.49.3L825,296.6l25.62,14.6-6-28.9-.29-2.39a6.51,6.51,0,0,1,1.93-4.47,6.12,6.12,0,0,1,4.62-2.08H867.3a6.13,6.13,0,0,1,4.62,2.08,6.53,6.53,0,0,1,1.94,4.47l-.3,2.39-6,28.9,25.92-14.6,2.38-1.19a3.32,3.32,0,0,1,1.49-.3,8.11,8.11,0,0,1,4.32,1.19,4.47,4.47,0,0,1,2.24,3.28l5.36,15.79.3,1.79a7,7,0,0,1-1.34,4,6.14,6.14,0,0,1-3.43,2.54l-2.08.59-29.5,3.28L895,347.26a8.35,8.35,0,0,1,1.79,2.08,6.45,6.45,0,0,1,1.19,3.58,6,6,0,0,1-2.68,5.36l-13.11,9.83a8.5,8.5,0,0,1-3.87.9c-2.59,0-4.38-.79-5.37-2.39a.86.86,0,0,0-.3-.59,6.74,6.74,0,0,1-.89-1.49l-12.52-27.12-12.51,27.12a7.66,7.66,0,0,1-.89,1.49.86.86,0,0,0-.3.59c-1,1.6-2.79,2.39-5.37,2.39a8.47,8.47,0,0,1-3.87-.9Z"></path><path class="cls-4" d="M956.09,358.28a6,6,0,0,1-2.68-5.36,6.39,6.39,0,0,1,1.2-3.58,8.17,8.17,0,0,1,1.78-2.08l21.46-19.67-29.2-3.28-2.39-.59a5.29,5.29,0,0,1-3.57-3.28,6.22,6.22,0,0,1-.9-3.28,5.6,5.6,0,0,1,.3-1.79l5.36-15.79a5.29,5.29,0,0,1,3.28-3.57,6.22,6.22,0,0,1,3.28-.9,4.94,4.94,0,0,1,1.49.3l2.38,1.19,25.63,14.6-6-28.9-.3-2.39a6.48,6.48,0,0,1,1.94-4.47,6.11,6.11,0,0,1,4.61-2.08h16.39a6.12,6.12,0,0,1,4.62,2.08,6.53,6.53,0,0,1,1.94,4.47l-.3,2.39-6,28.9,25.93-14.6,2.38-1.19a3.29,3.29,0,0,1,1.49-.3,8.11,8.11,0,0,1,4.32,1.19,4.48,4.48,0,0,1,2.23,3.28l5.37,15.79.3,1.79a6.93,6.93,0,0,1-1.35,4,6.12,6.12,0,0,1-3.42,2.54l-2.09.59-29.5,3.28,21.76,19.67a8.17,8.17,0,0,1,1.78,2.08,6.38,6.38,0,0,1,1.19,3.58,6,6,0,0,1-2.68,5.36l-13.11,9.83a8.47,8.47,0,0,1-3.87.9c-2.58,0-4.37-.79-5.36-2.39a.91.91,0,0,0-.3-.59,7.06,7.06,0,0,1-.9-1.49l-12.51-27.12-12.52,27.12a7.17,7.17,0,0,1-.89,1.49.86.86,0,0,0-.3.59c-1,1.6-2.78,2.39-5.36,2.39a8.55,8.55,0,0,1-3.88-.9Z"></path><path class="cls-4" d="M1089,358.28a6,6,0,0,1-2.68-5.36,6.38,6.38,0,0,1,1.19-3.58,8.35,8.35,0,0,1,1.79-2.08l21.45-19.67-29.2-3.28-2.38-.59a5.3,5.3,0,0,1-3.58-3.28,6.31,6.31,0,0,1-.89-3.28,5.6,5.6,0,0,1,.3-1.79l5.36-15.79a5.26,5.26,0,0,1,3.28-3.57,6.19,6.19,0,0,1,3.27-.9,4.83,4.83,0,0,1,1.49.3l2.39,1.19,25.62,14.6-6-28.9-.3-2.39a6.51,6.51,0,0,1,1.93-4.47,6.12,6.12,0,0,1,4.62-2.08h16.39a6.13,6.13,0,0,1,4.62,2.08,6.53,6.53,0,0,1,1.94,4.47l-.3,2.39-6,28.9,25.92-14.6,2.39-1.19a3.27,3.27,0,0,1,1.49-.3,8.16,8.16,0,0,1,4.32,1.19,4.48,4.48,0,0,1,2.23,3.28l5.36,15.79.3,1.79a6.92,6.92,0,0,1-1.34,4,6.15,6.15,0,0,1-3.42,2.54l-2.09.59-29.5,3.28,21.75,19.67a8.35,8.35,0,0,1,1.79,2.08,6.45,6.45,0,0,1,1.19,3.58,6,6,0,0,1-2.68,5.36L1148,368.11a8.5,8.5,0,0,1-3.87.9c-2.59,0-4.38-.79-5.37-2.39a.86.86,0,0,0-.3-.59,7.17,7.17,0,0,1-.89-1.49L1125,337.42l-12.51,27.12a7.66,7.66,0,0,1-.89,1.49.86.86,0,0,0-.3.59c-1,1.6-2.79,2.39-5.36,2.39a8.49,8.49,0,0,1-3.88-.9Z"></path><path class="cls-4" d="M1221.89,358.28a6,6,0,0,1-2.69-5.36,6.39,6.39,0,0,1,1.2-3.58,8.17,8.17,0,0,1,1.78-2.08l21.46-19.67-29.2-3.28-2.39-.59a5.29,5.29,0,0,1-3.57-3.28,6.22,6.22,0,0,1-.9-3.28,5.6,5.6,0,0,1,.3-1.79l5.36-15.79a5.29,5.29,0,0,1,3.28-3.57,6.22,6.22,0,0,1,3.28-.9,4.94,4.94,0,0,1,1.49.3l2.38,1.19,25.63,14.6-6-28.9-.3-2.39a6.48,6.48,0,0,1,1.94-4.47,6.12,6.12,0,0,1,4.62-2.08H1266a6.12,6.12,0,0,1,4.62,2.08,6.53,6.53,0,0,1,1.94,4.47l-.3,2.39-6,28.9,25.93-14.6,2.38-1.19a3.29,3.29,0,0,1,1.49-.3,8.11,8.11,0,0,1,4.32,1.19,4.49,4.49,0,0,1,2.24,3.28l5.36,15.79.3,1.79a7,7,0,0,1-1.34,4,6.17,6.17,0,0,1-3.43,2.54l-2.09.59-29.5,3.28,21.76,19.67a8.17,8.17,0,0,1,1.78,2.08,6.39,6.39,0,0,1,1.2,3.58,6,6,0,0,1-2.69,5.36l-13.11,9.83a8.47,8.47,0,0,1-3.87.9c-2.58,0-4.37-.79-5.36-2.39a.91.91,0,0,0-.3-.59,7.06,7.06,0,0,1-.9-1.49l-12.51-27.12-12.51,27.12a7.06,7.06,0,0,1-.9,1.49.86.86,0,0,0-.3.59c-1,1.6-2.78,2.39-5.36,2.39a8.47,8.47,0,0,1-3.87-.9Z"></path><path class="cls-4" d="M1354.78,358.28a6,6,0,0,1-2.68-5.36,6.45,6.45,0,0,1,1.19-3.58,8.35,8.35,0,0,1,1.79-2.08l21.45-19.67-29.2-3.28-2.38-.59a5.32,5.32,0,0,1-3.58-3.28,6.31,6.31,0,0,1-.89-3.28,5.6,5.6,0,0,1,.3-1.79l5.36-15.79a5.29,5.29,0,0,1,3.28-3.57,6.2,6.2,0,0,1,3.28-.9,4.94,4.94,0,0,1,1.49.3l2.38,1.19,25.63,14.6-6-28.9-.3-2.39a6.48,6.48,0,0,1,1.94-4.47,6.1,6.1,0,0,1,4.61-2.08h16.39a6.12,6.12,0,0,1,4.62,2.08,6.53,6.53,0,0,1,1.94,4.47l-.3,2.39-6,28.9,25.92-14.6,2.39-1.19a3.27,3.27,0,0,1,1.49-.3,8.16,8.16,0,0,1,4.32,1.19,4.48,4.48,0,0,1,2.23,3.28l5.37,15.79.29,1.79a6.92,6.92,0,0,1-1.34,4,6.15,6.15,0,0,1-3.42,2.54l-2.09.59-29.5,3.28,21.75,19.67a8.1,8.1,0,0,1,1.79,2.08,6.45,6.45,0,0,1,1.19,3.58,6,6,0,0,1-2.68,5.36l-13.11,9.83a8.5,8.5,0,0,1-3.87.9c-2.59,0-4.38-.79-5.37-2.39a.86.86,0,0,0-.3-.59,7.17,7.17,0,0,1-.89-1.49l-12.51-27.12-12.52,27.12a7.66,7.66,0,0,1-.89,1.49.86.86,0,0,0-.3.59c-1,1.6-2.79,2.39-5.36,2.39a8.49,8.49,0,0,1-3.88-.9Z"></path><path class="cls-8" d="M549.27,358.28a6,6,0,0,1-2.68-5.36,6.38,6.38,0,0,1,1.19-3.58,8.1,8.1,0,0,1,1.79-2.08L571,327.59l-29.2-3.28-2.38-.59a5.28,5.28,0,0,1-3.58-3.28,6.22,6.22,0,0,1-.89-3.28,5.59,5.59,0,0,1,.29-1.79l5.37-15.79a5.26,5.26,0,0,1,3.28-3.57,6.19,6.19,0,0,1,3.27-.9,4.83,4.83,0,0,1,1.49.3l2.39,1.19,25.62,14.6-6-28.9-.3-2.39a6.53,6.53,0,0,1,1.94-4.47,6.12,6.12,0,0,1,4.62-2.08h16.39a6.13,6.13,0,0,1,4.62,2.08,6.51,6.51,0,0,1,1.93,4.47l-.29,2.39-6,28.9,25.92-14.6,2.38-1.19a3.32,3.32,0,0,1,1.49-.3,8.11,8.11,0,0,1,4.32,1.19,4.49,4.49,0,0,1,2.24,3.28l5.36,15.79.3,1.79a7,7,0,0,1-1.34,4,6.14,6.14,0,0,1-3.43,2.54l-2.08.59-29.5,3.28,21.75,19.67a8.35,8.35,0,0,1,1.79,2.08,6.45,6.45,0,0,1,1.19,3.58,6,6,0,0,1-2.68,5.36l-13.11,9.83a8.55,8.55,0,0,1-3.88.9c-2.58,0-4.37-.79-5.36-2.39a.86.86,0,0,0-.3-.59,6.74,6.74,0,0,1-.89-1.49l-12.52-27.12-12.51,27.12a7.06,7.06,0,0,1-.9,1.49.85.85,0,0,0-.29.59c-1,1.6-2.79,2.39-5.37,2.39a8.47,8.47,0,0,1-3.87-.9Z"></path><path class="cls-8" d="M682.16,358.28a6,6,0,0,1-2.68-5.36,6.45,6.45,0,0,1,1.19-3.58,8.35,8.35,0,0,1,1.79-2.08l21.45-19.67-29.2-3.28-2.38-.59a5.32,5.32,0,0,1-3.58-3.28,6.31,6.31,0,0,1-.89-3.28,5.6,5.6,0,0,1,.3-1.79l5.36-15.79A5.29,5.29,0,0,1,676.8,296a6.22,6.22,0,0,1,3.28-.9,4.94,4.94,0,0,1,1.49.3L684,296.6l25.63,14.6-6-28.9-.3-2.39a6.48,6.48,0,0,1,1.94-4.47,6.1,6.1,0,0,1,4.61-2.08h16.39a6.12,6.12,0,0,1,4.62,2.08,6.53,6.53,0,0,1,1.94,4.47l-.3,2.39-6,28.9,25.92-14.6,2.39-1.19a3.27,3.27,0,0,1,1.49-.3,8.16,8.16,0,0,1,4.32,1.19,4.48,4.48,0,0,1,2.23,3.28l5.37,15.79.3,1.79a6.93,6.93,0,0,1-1.35,4,6.15,6.15,0,0,1-3.42,2.54l-2.09.59-29.5,3.28L754,347.26a8.1,8.1,0,0,1,1.79,2.08,6.45,6.45,0,0,1,1.19,3.58,6,6,0,0,1-2.68,5.36l-13.11,9.83a8.47,8.47,0,0,1-3.87.9c-2.59,0-4.37-.79-5.37-2.39a.89.89,0,0,0-.29-.59,7.06,7.06,0,0,1-.9-1.49l-12.51-27.12L705.7,364.54a7.66,7.66,0,0,1-.89,1.49.86.86,0,0,0-.3.59c-1,1.6-2.78,2.39-5.36,2.39a8.49,8.49,0,0,1-3.88-.9Z"></path><path class="cls-8" d="M815.06,358.28a6,6,0,0,1-2.68-5.36,6.38,6.38,0,0,1,1.19-3.58,8.35,8.35,0,0,1,1.79-2.08l21.45-19.67-29.2-3.28-2.38-.59a5.28,5.28,0,0,1-3.58-3.28,6.22,6.22,0,0,1-.89-3.28,5.59,5.59,0,0,1,.29-1.79l5.37-15.79A5.26,5.26,0,0,1,809.7,296a6.19,6.19,0,0,1,3.27-.9,4.83,4.83,0,0,1,1.49.3l2.39,1.19,25.62,14.6-6-28.9-.3-2.39a6.53,6.53,0,0,1,1.94-4.47,6.12,6.12,0,0,1,4.62-2.08h16.39a6.13,6.13,0,0,1,4.62,2.08,6.53,6.53,0,0,1,1.94,4.47l-.3,2.39-6,28.9,25.92-14.6,2.38-1.19a3.32,3.32,0,0,1,1.49-.3,8.11,8.11,0,0,1,4.32,1.19,4.49,4.49,0,0,1,2.24,3.28l5.36,15.79.3,1.79a7,7,0,0,1-1.34,4,6.14,6.14,0,0,1-3.43,2.54l-2.08.59-29.5,3.28,21.75,19.67a8.35,8.35,0,0,1,1.79,2.08,6.45,6.45,0,0,1,1.19,3.58,6,6,0,0,1-2.68,5.36l-13.11,9.83a8.52,8.52,0,0,1-3.88.9c-2.58,0-4.37-.79-5.36-2.39a.86.86,0,0,0-.3-.59,6.74,6.74,0,0,1-.89-1.49l-12.52-27.12L838.6,364.54a7.06,7.06,0,0,1-.9,1.49.89.89,0,0,0-.29.59c-1,1.6-2.79,2.39-5.37,2.39a8.47,8.47,0,0,1-3.87-.9Z"></path><path class="cls-8" d="M948,358.28a6,6,0,0,1-2.68-5.36,6.45,6.45,0,0,1,1.19-3.58,8.35,8.35,0,0,1,1.79-2.08l21.46-19.67-29.2-3.28-2.39-.59a5.29,5.29,0,0,1-3.57-3.28,6.22,6.22,0,0,1-.9-3.28,5.6,5.6,0,0,1,.3-1.79l5.36-15.79a5.29,5.29,0,0,1,3.28-3.57,6.22,6.22,0,0,1,3.28-.9,4.94,4.94,0,0,1,1.49.3l2.38,1.19,25.63,14.6-6-28.9-.3-2.39a6.48,6.48,0,0,1,1.94-4.47,6.11,6.11,0,0,1,4.61-2.08h16.39a6.12,6.12,0,0,1,4.62,2.08,6.53,6.53,0,0,1,1.94,4.47l-.3,2.39-6,28.9,25.92-14.6,2.39-1.19a3.27,3.27,0,0,1,1.49-.3,8.11,8.11,0,0,1,4.32,1.19,4.48,4.48,0,0,1,2.23,3.28l5.37,15.79.3,1.79a6.93,6.93,0,0,1-1.35,4,6.12,6.12,0,0,1-3.42,2.54l-2.09.59L998,327.59l21.75,19.67a8.1,8.1,0,0,1,1.79,2.08,6.45,6.45,0,0,1,1.19,3.58,6,6,0,0,1-2.68,5.36L1007,368.11a8.47,8.47,0,0,1-3.87.9c-2.58,0-4.37-.79-5.36-2.39a.91.91,0,0,0-.3-.59,7.06,7.06,0,0,1-.9-1.49L984,337.42l-12.52,27.12a7.17,7.17,0,0,1-.89,1.49.86.86,0,0,0-.3.59c-1,1.6-2.78,2.39-5.36,2.39a8.55,8.55,0,0,1-3.88-.9Z"></path><path class="cls-8" d="M1080.85,358.28a6,6,0,0,1-2.68-5.36,6.38,6.38,0,0,1,1.19-3.58,8.35,8.35,0,0,1,1.79-2.08l21.45-19.67-29.2-3.28-2.38-.59a5.28,5.28,0,0,1-3.58-3.28,6.22,6.22,0,0,1-.89-3.28,5.88,5.88,0,0,1,.29-1.79l5.37-15.79a5.26,5.26,0,0,1,3.28-3.57,6.19,6.19,0,0,1,3.27-.9,4.83,4.83,0,0,1,1.49.3l2.39,1.19,25.62,14.6-6-28.9-.29-2.39a6.51,6.51,0,0,1,1.93-4.47,6.12,6.12,0,0,1,4.62-2.08H1125a6.13,6.13,0,0,1,4.62,2.08,6.53,6.53,0,0,1,1.94,4.47l-.3,2.39-6,28.9,25.92-14.6,2.39-1.19a3.27,3.27,0,0,1,1.49-.3,8.16,8.16,0,0,1,4.32,1.19,4.48,4.48,0,0,1,2.23,3.28l5.36,15.79.3,1.79a6.92,6.92,0,0,1-1.34,4,6.14,6.14,0,0,1-3.43,2.54l-2.08.59-29.5,3.28,21.75,19.67a8.35,8.35,0,0,1,1.79,2.08,6.45,6.45,0,0,1,1.19,3.58,6,6,0,0,1-2.68,5.36l-13.11,9.83a8.5,8.5,0,0,1-3.87.9c-2.59,0-4.38-.79-5.37-2.39a.86.86,0,0,0-.3-.59,6.74,6.74,0,0,1-.89-1.49l-12.52-27.12-12.51,27.12a7.66,7.66,0,0,1-.89,1.49.86.86,0,0,0-.3.59c-1,1.6-2.79,2.39-5.36,2.39a8.49,8.49,0,0,1-3.88-.9Z"></path><path class="cls-8" d="M1213.75,358.28a6,6,0,0,1-2.69-5.36,6.39,6.39,0,0,1,1.2-3.58,8.17,8.17,0,0,1,1.78-2.08l21.46-19.67-29.2-3.28-2.39-.59a5.29,5.29,0,0,1-3.57-3.28,6.22,6.22,0,0,1-.9-3.28,5.6,5.6,0,0,1,.3-1.79l5.36-15.79a5.29,5.29,0,0,1,3.28-3.57,6.22,6.22,0,0,1,3.28-.9,4.94,4.94,0,0,1,1.49.3l2.38,1.19,25.63,14.6-6-28.9-.3-2.39a6.48,6.48,0,0,1,1.94-4.47,6.12,6.12,0,0,1,4.62-2.08h16.38a6.12,6.12,0,0,1,4.62,2.08,6.53,6.53,0,0,1,1.94,4.47l-.3,2.39-6,28.9,25.93-14.6,2.38-1.19a3.29,3.29,0,0,1,1.49-.3,8.11,8.11,0,0,1,4.32,1.19,4.49,4.49,0,0,1,2.24,3.28l5.36,15.79.3,1.79a7,7,0,0,1-1.34,4,6.17,6.17,0,0,1-3.43,2.54l-2.09.59-29.5,3.28,21.76,19.67a8.17,8.17,0,0,1,1.78,2.08,6.39,6.39,0,0,1,1.2,3.58,6,6,0,0,1-2.69,5.36l-13.11,9.83a8.47,8.47,0,0,1-3.87.9c-2.58,0-4.37-.79-5.36-2.39a.91.91,0,0,0-.3-.59,7.06,7.06,0,0,1-.9-1.49l-12.51-27.12-12.52,27.12a6.74,6.74,0,0,1-.89,1.49.86.86,0,0,0-.3.59c-1,1.6-2.78,2.39-5.36,2.39a8.47,8.47,0,0,1-3.87-.9Z"></path><path class="cls-8" d="M1346.64,358.28a6,6,0,0,1-2.68-5.36,6.38,6.38,0,0,1,1.19-3.58,8.35,8.35,0,0,1,1.79-2.08l21.45-19.67-29.2-3.28-2.38-.59a5.3,5.3,0,0,1-3.58-3.28,6.31,6.31,0,0,1-.89-3.28,5.6,5.6,0,0,1,.3-1.79l5.36-15.79a5.29,5.29,0,0,1,3.28-3.57,6.19,6.19,0,0,1,3.27-.9,4.83,4.83,0,0,1,1.49.3l2.39,1.19,25.63,14.6-6-28.9-.3-2.39a6.48,6.48,0,0,1,1.94-4.47,6.1,6.1,0,0,1,4.61-2.08h16.39a6.12,6.12,0,0,1,4.62,2.08,6.53,6.53,0,0,1,1.94,4.47l-.3,2.39-6,28.9L1417,296.6l2.39-1.19a3.27,3.27,0,0,1,1.49-.3,8.16,8.16,0,0,1,4.32,1.19,4.48,4.48,0,0,1,2.23,3.28l5.37,15.79.29,1.79a6.92,6.92,0,0,1-1.34,4,6.15,6.15,0,0,1-3.42,2.54l-2.09.59-29.5,3.28,21.75,19.67a8.1,8.1,0,0,1,1.79,2.08,6.45,6.45,0,0,1,1.19,3.58,6,6,0,0,1-2.68,5.36l-13.11,9.83a8.5,8.5,0,0,1-3.87.9c-2.59,0-4.38-.79-5.37-2.39a.86.86,0,0,0-.3-.59,7.17,7.17,0,0,1-.89-1.49l-12.51-27.12-12.52,27.12a7.66,7.66,0,0,1-.89,1.49.86.86,0,0,0-.3.59c-1,1.6-2.79,2.39-5.36,2.39a8.49,8.49,0,0,1-3.88-.9Z"></path><path class="cls-3" d="M1219.11,277.72V500.29h-48.23V284.51a132,132,0,1,0-264.09,0V500.29H858.56V277.72c0-99.56,80.72-180.27,180.28-180.27a180.27,180.27,0,0,1,180.27,180.27Z"></path><rect class="cls-3" x="797.12" y="496.84" width="498.94" height="456.58" rx="23.75"></rect><path class="cls-9" d="M1197.71,277.72V500.29h-48.24V284.51a132,132,0,1,0-264.08,0V500.29H837.15V277.72c0-99.56,80.72-180.27,180.29-180.27a180.27,180.27,0,0,1,180.27,180.27Z"></path><path class="cls-10" d="M1174.22,277.72V500.29H1126V284.51a132,132,0,1,0-264.08,0V500.29H813.67V277.72c0-99.56,80.72-180.27,180.28-180.27a180.25,180.25,0,0,1,180.27,180.27Z"></path><rect class="cls-9" x="775.72" y="496.84" width="498.94" height="456.58" rx="23.75"></rect><rect class="cls-11" x="733.46" y="497.81" width="498.94" height="456.58" rx="23.75"></rect><path class="cls-12" d="M1130.4,569.73a10.64,10.64,0,0,0-6.65-8.48l-.57-.21a10.73,10.73,0,0,0-4.09-.54C1034,565.84,997.72,549.21,983,537.37c-.32-.25-.62-.5-.92-.75a5.87,5.87,0,0,0-7.58,0l-1,.77c-15.29,12.29-53.67,29.72-145.85,22.44,0,0-49.55,257,145.85,352.22,1.57.76,3.14,1.5,4.73,2.24,1.6-.74,3.17-1.48,4.73-2.24C1155.5,828,1137.09,617.84,1130.4,569.73Zm-142,130.86V801.71H965.77V700.59a29.9,29.9,0,1,1,22.62,0Z"></path><path class="cls-6" d="M1123.75,561.25c-87.59,25-145.49-17.75-145.49-17.75-88,51.61-150.58,16.31-150.58,16.31,92.18,7.28,130.56-10.15,145.85-22.44l1-.77a5.87,5.87,0,0,1,7.58,0c.3.25.6.5.92.75,14.74,11.84,51,28.47,136.11,23.13a10.73,10.73,0,0,1,4.09.54Z"></path><path class="cls-6" d="M1174.23,277.71v16.06A180.24,180.24,0,0,0,994,113.51c-99.55,0-180.29,80.7-180.29,180.26V277.71c0-99.55,80.74-180.26,180.29-180.26a180.25,180.25,0,0,1,180.28,180.26Z"></path><path class="cls-3" d="M1241.32,951.88l-479.09,1.78a1.25,1.25,0,0,1-.76-.26l-12.88-10a1.23,1.23,0,0,1,.76-2.21h500.33a2.73,2.73,0,0,1,1.4,5.06L1242,951.7A1.18,1.18,0,0,1,1241.32,951.88Z"></path><path class="cls-3" d="M881.32,497h-66c-2.13-5.35,0,.17,0,0l-1.59-4.93a4.66,4.66,0,0,1,.11-2.21H885c.39,0,.54,3.63.2,5.05l-.31,2.09C885.88,493.61,881.36,497,881.32,497Z"></path><path class="cls-3" d="M1193.5,497h-66c-2.13-5.35,0,.17,0,0l-1.59-4.93a4.66,4.66,0,0,1,.11-2.21h71.16c.39,0,.54,3.63.2,5.05l-.31,2.09C1198.05,493.61,1193.53,497,1193.5,497Z"></path><g class="cls-13"><path class="cls-14" d="M735.77,904.1h0a3.44,3.44,0,0,1-.08-.78V535.47a34.14,34.14,0,0,1,34.2-34l426.34-.89a4,4,0,0,1,1.59.34l7.66,3.54a3.76,3.76,0,0,1-1.49,7.17l-434.1,9.46a14.44,14.44,0,0,0-14.47,14.39l-12.22,368A3.76,3.76,0,0,1,735.77,904.1Z"></path></g></g></g></g></svg>