<svg xmlns="http://www.w3.org/2000/svg" width="137.564" height="86.445" viewBox="0 0 137.564 86.445"><defs><style>.a{fill:#9caab8;}.b{fill:#24313e;}.c{fill:#f5f7f9;}.d{fill:#6b7e8f;}.e{fill:#d9dee5;}.f{fill:#ff603d;}.g{fill:#0062ff;}</style></defs><g transform="translate(1262.956 -644.816)"><g transform="translate(-1262.956 645.601)"><path class="a" d="M-1174.37,727.824l-27.136,5.111-27.136,5.111a2.872,2.872,0,0,1-1.851-.308,2.766,2.766,0,0,1-1.274-1.345l-14.76-35.417-14.761-35.417a1.8,1.8,0,0,1,.049-1.594,1.892,1.892,0,0,1,1.344-.909l27.136-5.111,27.136-5.111a2.871,2.871,0,0,1,1.851.308,2.765,2.765,0,0,1,1.274,1.345l14.761,35.417,14.761,35.417a1.8,1.8,0,0,1-.05,1.594A1.891,1.891,0,0,1-1174.37,727.824Z" transform="translate(1261.632 -652.61)"></path><path class="b" d="M-1230.433,736.956a3.2,3.2,0,0,1-1.689-.5,2.89,2.89,0,0,1-1.137-1.3l-14.761-35.417-14.761-35.417a2.176,2.176,0,0,1-.175-.9,1.856,1.856,0,0,1,.222-.835,1.9,1.9,0,0,1,.6-.663,2.294,2.294,0,0,1,.883-.358l27.136-5.111,27.136-5.111a3.053,3.053,0,0,1,1.97.329,2.948,2.948,0,0,1,1.357,1.432l14.761,35.417,14.761,35.417a2.176,2.176,0,0,1,.175.9,1.854,1.854,0,0,1-.222.836,1.894,1.894,0,0,1-.6.663,2.292,2.292,0,0,1-.883.358l-.017-.089-.017-.089.017.089.017.089L-1202.8,731.8l-27.136,5.111q-.124.023-.25.035C-1230.265,736.952-1230.349,736.956-1230.433,736.956Zm23.961-85.3c-.074,0-.148,0-.222.01s-.147.017-.22.031l-27.136,5.111-27.136,5.111a1.937,1.937,0,0,0-.735.295,1.536,1.536,0,0,0-.493.542,1.493,1.493,0,0,0-.178.681,1.814,1.814,0,0,0,.147.738l14.761,35.417,14.761,35.417a2.583,2.583,0,0,0,1.192,1.256,2.689,2.689,0,0,0,1.732.288l27.136-5.111,27.136-5.111a1.935,1.935,0,0,0,.735-.295,1.536,1.536,0,0,0,.493-.541,1.492,1.492,0,0,0,.178-.681,1.815,1.815,0,0,0-.147-.738l-14.761-35.417-14.761-35.417a2.533,2.533,0,0,0-1-1.143A2.814,2.814,0,0,0-1206.472,651.658Z" transform="translate(1262.956 -651.296)"></path></g><g transform="translate(-1261.713 644.816)"><path class="c" d="M-1164.113,721.343l-27.136,5.111-27.136,5.111a2.872,2.872,0,0,1-1.851-.308,2.765,2.765,0,0,1-1.274-1.345l-14.761-35.417-14.761-35.417a1.8,1.8,0,0,1,.049-1.594,1.892,1.892,0,0,1,1.344-.91l27.136-5.111,27.136-5.111a2.871,2.871,0,0,1,1.851.308,2.766,2.766,0,0,1,1.274,1.345l14.761,35.417,14.761,35.417a1.8,1.8,0,0,1-.049,1.594A1.892,1.892,0,0,1-1164.113,721.343Z" transform="translate(1251.375 -646.129)"></path><path class="b" d="M-1220.175,730.476a3.2,3.2,0,0,1-1.689-.5,2.889,2.889,0,0,1-1.137-1.3l-14.761-35.417-14.761-35.417a2.171,2.171,0,0,1-.175-.9,1.851,1.851,0,0,1,.222-.836,1.9,1.9,0,0,1,.6-.663,2.293,2.293,0,0,1,.883-.358l27.136-5.111,27.136-5.111a3.055,3.055,0,0,1,1.97.329,2.946,2.946,0,0,1,1.357,1.432l14.761,35.417,14.761,35.417a2.174,2.174,0,0,1,.175.9,1.853,1.853,0,0,1-.222.835,1.9,1.9,0,0,1-.6.663,2.3,2.3,0,0,1-.883.358l-.017-.089-.017-.089.017.089.017.089-27.136,5.111-27.136,5.111q-.124.023-.25.035T-1220.175,730.476Zm23.961-85.3q-.111,0-.222.01t-.22.031l-27.136,5.111-27.136,5.111a1.938,1.938,0,0,0-.735.295,1.534,1.534,0,0,0-.493.541,1.492,1.492,0,0,0-.178.681,1.811,1.811,0,0,0,.147.738l14.761,35.417,14.761,35.417a2.582,2.582,0,0,0,1.192,1.256,2.687,2.687,0,0,0,1.732.288l27.136-5.111,27.136-5.111a1.936,1.936,0,0,0,.735-.295,1.536,1.536,0,0,0,.493-.541,1.493,1.493,0,0,0,.178-.681,1.81,1.81,0,0,0-.147-.738l-14.761-35.417-14.76-35.417a2.532,2.532,0,0,0-1-1.143A2.814,2.814,0,0,0-1196.214,645.179Z" transform="translate(1252.698 -644.816)"></path></g><g transform="translate(-1254.731 653.111)"><path class="d" d="M-1152.687,720.676l-18.959,3.571-18.959,3.571-1.189-2.852-1.189-2.852,18.959-3.571,18.959-3.571,1.189,2.852Z" transform="translate(1193.236 -714.767)"></path><path class="b" d="M-1192.558,726.53l-1.26-3.023-1.26-3.023.11-.021.11-.021,19.031-3.584,19.031-3.584,1.26,3.023,1.26,3.023-.11.021-.11.021-19.031,3.584Zm-2.012-5.772,1.117,2.68,1.117,2.68,18.776-3.536,18.776-3.536-1.117-2.68-1.117-2.68-18.776,3.536Z" transform="translate(1195.078 -713.273)"></path></g><g transform="translate(-1251.381 661.148)"><path class="d" d="M-1125.043,787-1144,790.576l-18.959,3.571-1.189-2.852-1.189-2.852,18.959-3.571,18.959-3.571,1.188,2.852Z" transform="translate(1165.592 -781.095)"></path><path class="b" d="M-1164.915,792.859l-1.26-3.023-1.26-3.023.11-.021.11-.021,19.031-3.584,19.031-3.584,1.26,3.023,1.26,3.023-.11.021-.11.021-19.031,3.584Zm-2.012-5.773,1.117,2.68,1.117,2.68,18.776-3.536,18.776-3.536-1.117-2.68-1.117-2.68-18.776,3.536Z" transform="translate(1167.435 -779.602)"></path></g><g transform="translate(-1248.032 669.185)"><path class="d" d="M-1097.4,853.333l-18.959,3.571-18.959,3.571-1.189-2.852-1.189-2.852,18.959-3.571,18.959-3.571,1.189,2.852Z" transform="translate(1137.948 -847.424)"></path><path class="b" d="M-1137.271,859.188l-1.26-3.023-1.26-3.023.11-.021.11-.021,19.031-3.584,19.031-3.584,1.26,3.023,1.26,3.023-.11.021-.11.021-19.031,3.584Zm-2.012-5.773,1.117,2.68,1.117,2.68,18.776-3.536,18.776-3.536-1.117-2.68-1.117-2.68-18.776,3.536Z" transform="translate(1139.791 -845.931)"></path></g><g transform="translate(-1244.157 678.483)"><path class="d" d="M-1065.42,930.065l-18.959,3.571-18.959,3.571-1.189-2.852-1.189-2.852,18.959-3.571,18.959-3.571,1.188,2.852Z" transform="translate(1105.968 -924.155)"></path><path class="b" d="M-1105.291,935.919l-1.26-3.023-1.26-3.023.11-.021.11-.021,19.031-3.584,19.031-3.584,1.26,3.023,1.26,3.023-.11.021-.11.021-19.031,3.584Zm-2.012-5.772,1.117,2.68,1.117,2.68,18.776-3.536,18.776-3.536-1.117-2.68-1.117-2.68-18.776,3.536Z" transform="translate(1107.811 -922.662)"></path></g><g transform="translate(-1240.807 686.547)"><path class="d" d="M-1037.922,996.62l-18.886,3.557-18.886,3.557-1.189-2.852-1.189-2.852,18.886-3.557,18.886-3.557,1.189,2.852Z" transform="translate(1078.324 -990.71)"></path><path class="b" d="M-1077.647,1002.446l-1.26-3.023-1.26-3.023.11-.021.11-.021,18.958-3.571,18.958-3.571,1.26,3.023,1.26,3.023-.11.021-.11.021-18.958,3.57Zm-2.012-5.772,1.117,2.68,1.117,2.68,18.7-3.523,18.7-3.523-1.117-2.68-1.117-2.68-18.7,3.523Z" transform="translate(1080.167 -989.217)"></path></g><g transform="translate(-1237.458 696.242)"><path class="d" d="M-1019.075,1076.622l-14.487,2.729-14.487,2.729-1.189-2.852-1.189-2.852,14.487-2.729,14.487-2.729,1.189,2.852Z" transform="translate(1050.68 -1070.713)"></path><path class="b" d="M-1050,1080.793l-1.26-3.024-1.26-3.023.11-.021.11-.021,14.559-2.742,14.559-2.742,1.26,3.023,1.26,3.023-.11.021-.11.021-14.559,2.742Zm-2.012-5.773,1.117,2.68,1.117,2.68,14.3-2.694,14.3-2.694-1.117-2.68-1.117-2.68-14.3,2.694Z" transform="translate(1052.523 -1069.22)"></path></g><g transform="translate(-1199.978 709.882)"><path class="e" d="M-721.616,1188.5l-8.821,1.578-8.821,1.578a.813.813,0,0,1-.533-.087.813.813,0,0,1-.361-.4l-.747-1.793-.748-1.793a.81.81,0,0,1,.037-.7.809.809,0,0,1,.571-.411l8.821-1.578,8.821-1.578a.813.813,0,0,1,.533.087.813.813,0,0,1,.361.4l.747,1.793.748,1.793a.81.81,0,0,1-.037.7A.809.809,0,0,1-721.616,1188.5Z" transform="translate(741.893 -1183.113)"></path><path class="b" d="M-740.725,1190.528a.988.988,0,0,1-.547-.165,1,1,0,0,1-.368-.448l-.747-1.793-.747-1.793a1,1,0,0,1-.076-.435,1,1,0,0,1,.121-.425,1,1,0,0,1,.292-.332,1,1,0,0,1,.407-.172l8.821-1.579,8.821-1.578a.994.994,0,0,1,.653.1.992.992,0,0,1,.441.492l.747,1.793.747,1.793a.994.994,0,0,1,.076.435,1,1,0,0,1-.121.425.994.994,0,0,1-.292.331,1,1,0,0,1-.407.172l-8.821,1.578-8.821,1.578c-.03.005-.06.009-.09.012S-740.7,1190.528-740.725,1190.528Zm16.154-8.372-.057,0-.057.008-8.821,1.578-8.821,1.579a.63.63,0,0,0-.258.109.632.632,0,0,0-.185.21.631.631,0,0,0-.077.27.63.63,0,0,0,.048.276l.748,1.793.747,1.793a.631.631,0,0,0,.28.313.632.632,0,0,0,.415.066l8.821-1.579,8.821-1.578a.627.627,0,0,0,.258-.109.627.627,0,0,0,.185-.21.631.631,0,0,0,.077-.27.633.633,0,0,0-.048-.276l-.747-1.793-.747-1.793a.632.632,0,0,0-.234-.285A.627.627,0,0,0-724.571,1182.156Z" transform="translate(743.212 -1181.792)"></path></g><g transform="translate(-1184.917 704.684)"><path class="f" d="M-612.658,1143.484l2.925-1.312,2.924-1.312,1.209,2.561,1.209,2.561-2.939,1.388-2.939,1.388-1.428-.084-1.428-.084-1.508-.088-1.508-.088.879-1.245.879-1.245.863-1.221Z" transform="translate(616.478 -1140.622)"></path><path class="b" d="M-612.678,1147.212l-3.123-.183-3.122-.183,1.85-2.62,1.85-2.62,3.029-1.358,3.029-1.358,1.286,2.724,1.286,2.724-3.042,1.437Zm-5.571-.69,2.75.161,2.75.161,2.836-1.339,2.836-1.339-1.133-2.4-1.132-2.4-2.821,1.265-2.82,1.265-1.633,2.312Z" transform="translate(618.923 -1138.891)"></path></g><g transform="translate(-1177.888 685.656)"><path class="g" d="M-557.231,1001.485l18.793-8.875,18.793-8.875a3.8,3.8,0,0,1,2.912-.141,3.8,3.8,0,0,1,2.159,1.959,3.792,3.792,0,0,1,.141,2.91,3.8,3.8,0,0,1-1.959,2.158l-18.793,8.875-18.793,8.875a3.8,3.8,0,0,1-1.468.362,3.834,3.834,0,0,1-1.444-.22,3.852,3.852,0,0,1-.557-.251,3.727,3.727,0,0,1-.512-.34,3.787,3.787,0,0,1-.614-.608,3.81,3.81,0,0,1-.474-.759,3.813,3.813,0,0,1-.31-.977,3.79,3.79,0,0,1-.041-.988,3.842,3.842,0,0,1,.654-1.817A3.788,3.788,0,0,1-557.231,1001.485Z" transform="translate(559.596 -983.186)"></path><path class="b" d="M-556.922,1007.592a3.971,3.971,0,0,1-.679-.059,4.069,4.069,0,0,1-.669-.176,4.006,4.006,0,0,1-.588-.266,3.905,3.905,0,0,1-.533-.354,3.964,3.964,0,0,1-.653-.648,4,4,0,0,1-.487-.784,4.011,4.011,0,0,1-.321-1.006,3.984,3.984,0,0,1-.047-1.052,4.014,4.014,0,0,1,.707-1.93,3.989,3.989,0,0,1,1.565-1.325l18.793-8.875,18.793-8.875a3.983,3.983,0,0,1,1.51-.379,3.986,3.986,0,0,1,1.54.232,3.984,3.984,0,0,1,1.337.8,3.986,3.986,0,0,1,.925,1.253,3.982,3.982,0,0,1,.379,1.51,3.978,3.978,0,0,1-.232,1.539,3.982,3.982,0,0,1-.8,1.336,3.988,3.988,0,0,1-1.253.925l-18.793,8.875-18.793,8.875a4.024,4.024,0,0,1-.836.288A3.955,3.955,0,0,1-556.922,1007.592Zm-1.627-7.434.039.082.039.082a3.625,3.625,0,0,0-1.423,1.2,3.649,3.649,0,0,0-.643,1.754,3.613,3.613,0,0,0,.043.956,3.645,3.645,0,0,0,.292.914,3.634,3.634,0,0,0,.442.713,3.588,3.588,0,0,0,.594.589,3.533,3.533,0,0,0,.484.322,3.649,3.649,0,0,0,.534.241,3.636,3.636,0,0,0,1.4.209,3.626,3.626,0,0,0,1.372-.345L-536.581,998l18.793-8.875a3.628,3.628,0,0,0,1.139-.841,3.622,3.622,0,0,0,.727-1.214,3.619,3.619,0,0,0,.211-1.4,3.621,3.621,0,0,0-.345-1.372,3.623,3.623,0,0,0-.841-1.139,3.62,3.62,0,0,0-1.215-.727,3.619,3.619,0,0,0-1.4-.211,3.623,3.623,0,0,0-1.373.345l-18.793,8.875-18.793,8.875-.039-.082Z" transform="translate(560.914 -981.86)"></path></g><g transform="translate(-1161.515 685.978)"><path class="g" d="M-422.1,996.053l10.281-4.84,10.281-4.84a3.8,3.8,0,0,1,2.912-.141,3.8,3.8,0,0,1,2.159,1.959,3.793,3.793,0,0,1,.141,2.91,3.8,3.8,0,0,1-1.959,2.158l-10.281,4.84-10.281,4.84a3.8,3.8,0,0,1-1.468.362,3.832,3.832,0,0,1-1.444-.22,3.848,3.848,0,0,1-.557-.251,3.718,3.718,0,0,1-.512-.34,3.786,3.786,0,0,1-.614-.608,3.815,3.815,0,0,1-.474-.759,3.82,3.82,0,0,1-.31-.976,3.793,3.793,0,0,1-.041-.988,3.842,3.842,0,0,1,.654-1.817A3.789,3.789,0,0,1-422.1,996.053Z" transform="translate(424.467 -985.827)"></path><path class="b" d="M-421.793,1002.176a3.972,3.972,0,0,1-.679-.059,4.058,4.058,0,0,1-.669-.176,3.991,3.991,0,0,1-.589-.266,3.889,3.889,0,0,1-.532-.354,3.964,3.964,0,0,1-.653-.648,3.988,3.988,0,0,1-.487-.784,4,4,0,0,1-.321-1.006,3.984,3.984,0,0,1-.047-1.052,4.013,4.013,0,0,1,.707-1.93,3.988,3.988,0,0,1,1.565-1.325h0l10.281-4.84,10.281-4.84a3.978,3.978,0,0,1,3.05-.146,3.979,3.979,0,0,1,2.263,2.051,3.974,3.974,0,0,1,.145,3.048,3.979,3.979,0,0,1-2.051,2.262l-10.281,4.84-10.281,4.84a4.023,4.023,0,0,1-.836.288A3.948,3.948,0,0,1-421.793,1002.176Zm-1.55-7.27a3.625,3.625,0,0,0-1.422,1.2,3.648,3.648,0,0,0-.643,1.754,3.611,3.611,0,0,0,.043.956,3.64,3.64,0,0,0,.292.914,3.628,3.628,0,0,0,.442.713,3.588,3.588,0,0,0,.594.589,3.546,3.546,0,0,0,.484.322,3.656,3.656,0,0,0,.535.241,3.643,3.643,0,0,0,1.4.209,3.622,3.622,0,0,0,1.372-.345l10.281-4.84,10.281-4.84a3.617,3.617,0,0,0,1.864-2.056,3.612,3.612,0,0,0-.132-2.771,3.616,3.616,0,0,0-2.056-1.864,3.617,3.617,0,0,0-2.772.133l-10.281,4.84Z" transform="translate(425.785 -984.515)"></path></g><g transform="translate(-1139.578 682.411)"><path class="d" d="M-229.853,958.77h0a3.8,3.8,0,0,0-2.158-1.958,3.8,3.8,0,0,0-2.911.141l-3.066,1.448-3.067,1.448a3.8,3.8,0,0,0-1.958,2.158,3.8,3.8,0,0,0,.141,2.911h0a3.8,3.8,0,0,0,2.158,1.958,3.8,3.8,0,0,0,2.911-.141l3.067-1.448,3.067-1.448a3.8,3.8,0,0,0,1.958-2.158A3.8,3.8,0,0,0-229.853,958.77Z" transform="translate(243.42 -956.404)"></path><path class="b" d="M-240.753,965.955a3.951,3.951,0,0,1-.68-.059,4.024,4.024,0,0,1-.669-.177,3.979,3.979,0,0,1-1.336-.8,3.982,3.982,0,0,1-.925-1.252,3.982,3.982,0,0,1-.38-1.51,3.983,3.983,0,0,1,.231-1.54,3.985,3.985,0,0,1,.8-1.336,3.984,3.984,0,0,1,1.252-.925l3.067-1.448,3.067-1.448a3.981,3.981,0,0,1,1.51-.38,3.981,3.981,0,0,1,1.54.232,3.984,3.984,0,0,1,1.336.8,3.984,3.984,0,0,1,.925,1.252l-.082.039-.082.039.082-.039.082-.039a3.977,3.977,0,0,1,.146,3.049,3.977,3.977,0,0,1-2.05,2.262l-3.067,1.448-3.067,1.448a4.019,4.019,0,0,1-.835.288A3.943,3.943,0,0,1-240.753,965.955Zm6.128-10.516a3.58,3.58,0,0,0-.787.088,3.655,3.655,0,0,0-.759.262l-3.067,1.448-3.066,1.448a3.621,3.621,0,0,0-1.138.841,3.62,3.62,0,0,0-.727,1.214,3.622,3.622,0,0,0-.21,1.4,3.619,3.619,0,0,0,.345,1.372,3.619,3.619,0,0,0,.841,1.138,3.621,3.621,0,0,0,1.214.727,3.615,3.615,0,0,0,1.4.21,3.619,3.619,0,0,0,1.372-.345l3.067-1.448,3.067-1.448a3.615,3.615,0,0,0,1.863-2.056,3.615,3.615,0,0,0-.133-2.771,3.62,3.62,0,0,0-.841-1.138,3.621,3.621,0,0,0-1.214-.727,3.668,3.668,0,0,0-.608-.161A3.591,3.591,0,0,0-234.625,955.44Z" transform="translate(244.747 -955.076)"></path></g><g transform="translate(-1133.543 682.409)"><path class="d" d="M-191.176,956.933a3.935,3.935,0,0,1,2.977-.166,3.778,3.778,0,0,1,2.191,1.959,3.778,3.778,0,0,1,.121,2.936,3.935,3.935,0,0,1-2.019,2.194,3.936,3.936,0,0,1-2.977.166,3.779,3.779,0,0,1-2.191-1.959,3.778,3.778,0,0,1-.121-2.937A3.935,3.935,0,0,1-191.176,956.933Z" transform="translate(193.618 -956.371)"></path><path class="b" d="M-190.923,963.11a4.092,4.092,0,0,1-2.136-.6,3.931,3.931,0,0,1-1.507-1.678,3.937,3.937,0,0,1-.376-1.521,4,4,0,0,1,.249-1.556,4.089,4.089,0,0,1,.827-1.353,4.152,4.152,0,0,1,1.286-.942,4.116,4.116,0,0,1,3.115-.171,3.96,3.96,0,0,1,2.295,2.051,3.96,3.96,0,0,1,.126,3.075,4.117,4.117,0,0,1-2.111,2.3,4.164,4.164,0,0,1-.876.3A4.1,4.1,0,0,1-190.923,963.11Zm.11-7.685a3.751,3.751,0,0,0-.813.089,3.8,3.8,0,0,0-.8.274,3.787,3.787,0,0,0-1.173.859,3.727,3.727,0,0,0-.754,1.233,3.637,3.637,0,0,0-.226,1.414,3.574,3.574,0,0,0,.341,1.382,3.6,3.6,0,0,0,2.088,1.864,3.754,3.754,0,0,0,2.838-.157,3.755,3.755,0,0,0,1.924-2.091,3.6,3.6,0,0,0-.113-2.8,3.569,3.569,0,0,0-1.37-1.525A3.726,3.726,0,0,0-190.812,955.424Z" transform="translate(194.945 -955.061)"></path></g><g transform="translate(-1184.662 709.656)"><path class="f" d="M-616.141,1183.931l2.655-1.329,2.655-1.329" transform="translate(616.223 -1181.11)"></path><path class="b" d="M-616.65,1182.914l-.081-.163-.081-.163,2.655-1.329,2.655-1.329.081.163.081.163-2.655,1.329Z" transform="translate(616.813 -1179.931)"></path></g><g transform="translate(-1155.982 684.129)"><path class="d" d="M-358.686,973.123l-9.506,4.279-9.506,4.279a.609.609,0,0,1-.723-.227.792.792,0,0,1-.123-.828l.243-.505.242-.505a.558.558,0,0,1,.108-.154.5.5,0,0,1,.148-.1l9.506-4.279,9.506-4.279a.609.609,0,0,1,.724.227.792.792,0,0,1,.123.828l-.243.505-.243.505a.557.557,0,0,1-.108.153A.5.5,0,0,1-358.686,973.123Z" transform="translate(378.796 -970.573)"></path><path class="b" d="M-379.237,980.6a.747.747,0,0,1-.307-.068.913.913,0,0,1-.279-.2,1.081,1.081,0,0,1-.272-.49.893.893,0,0,1,.06-.606l.243-.505.243-.505a.736.736,0,0,1,.144-.205.68.68,0,0,1,.2-.138l9.506-4.279,9.506-4.279a.7.7,0,0,1,.451-.043.87.87,0,0,1,.422.246,1.08,1.08,0,0,1,.272.49.894.894,0,0,1-.06.606l-.243.505-.243.505a.742.742,0,0,1-.144.205.68.68,0,0,1-.2.138l-9.506,4.279-9.506,4.279a.7.7,0,0,1-.142.046A.691.691,0,0,1-379.237,980.6Zm19.332-10.974a.328.328,0,0,0-.068.007.347.347,0,0,0-.07.023l-9.506,4.279-9.506,4.279a.316.316,0,0,0-.1.067.378.378,0,0,0-.071.1l-.243.506-.243.505a.542.542,0,0,0-.029.377.711.711,0,0,0,.174.309.586.586,0,0,0,.169.121.347.347,0,0,0,.294.005l9.506-4.279,9.506-4.279a.316.316,0,0,0,.1-.067.372.372,0,0,0,.071-.1l.243-.505.243-.505a.542.542,0,0,0,.029-.376.713.713,0,0,0-.174-.309.6.6,0,0,0-.119-.094A.407.407,0,0,0-359.9,969.622Z" transform="translate(380.122 -969.259)"></path></g><g transform="translate(-1156.588 683.681)"><path class="d" d="M-363.687,969.425l-9.506,4.279-9.506,4.279a.609.609,0,0,1-.723-.227.792.792,0,0,1-.123-.828l.243-.505.242-.505a.558.558,0,0,1,.108-.154.5.5,0,0,1,.148-.1l9.506-4.279,9.506-4.279a.61.61,0,0,1,.724.227.792.792,0,0,1,.123.828l-.243.505-.243.505a.557.557,0,0,1-.108.154A.5.5,0,0,1-363.687,969.425Z" transform="translate(383.797 -966.875)"></path><path class="b" d="M-384.238,976.9a.747.747,0,0,1-.307-.068.916.916,0,0,1-.279-.2,1.082,1.082,0,0,1-.272-.49.894.894,0,0,1,.059-.606l.243-.505.243-.505a.733.733,0,0,1,.144-.2.678.678,0,0,1,.2-.139l9.506-4.279,9.506-4.279a.7.7,0,0,1,.451-.043.869.869,0,0,1,.422.246,1.079,1.079,0,0,1,.272.49.893.893,0,0,1-.059.606l-.242.505-.243.505a.741.741,0,0,1-.144.2.68.68,0,0,1-.2.139h0l-9.506,4.279-9.506,4.279a.7.7,0,0,1-.142.047A.687.687,0,0,1-384.238,976.9Zm19.332-10.974a.325.325,0,0,0-.068.007.339.339,0,0,0-.07.023l-9.506,4.279-9.506,4.279a.318.318,0,0,0-.1.067.378.378,0,0,0-.071.1l-.243.505-.243.505a.541.541,0,0,0-.029.376.713.713,0,0,0,.174.309.585.585,0,0,0,.169.121.346.346,0,0,0,.294.005l9.506-4.279,9.506-4.279h0a.318.318,0,0,0,.1-.067.376.376,0,0,0,.071-.1l.243-.505.243-.505a.542.542,0,0,0,.029-.377.712.712,0,0,0-.174-.308.6.6,0,0,0-.119-.094A.405.405,0,0,0-364.906,965.925Z" transform="translate(385.123 -965.562)"></path></g><g transform="translate(-1195.264 712.269)"><path class="b" d="M-703.953,1205.4l-.178-.035-.178-.035a3.293,3.293,0,0,1,.256-.733,2.047,2.047,0,0,1,.948-1.007,1.563,1.563,0,0,1,.878-.113,2.817,2.817,0,0,1,1.013.384,9.431,9.431,0,0,0,1.975.925,2.58,2.58,0,0,0,1.4.1,1.574,1.574,0,0,0,.622-.327,2.327,2.327,0,0,0,.5-.627,6.83,6.83,0,0,1,1.624-2.063,1.4,1.4,0,0,1,1.482-.258l-.074.166-.074.166a1.128,1.128,0,0,0-1.216.288,6.958,6.958,0,0,0-1.427,1.883,2.68,2.68,0,0,1-.6.735,1.923,1.923,0,0,1-.751.389,2.86,2.86,0,0,1-1.544-.079,9.6,9.6,0,0,1-2.114-.979,2.5,2.5,0,0,0-.848-.332,1.22,1.22,0,0,0-.709.079,1.715,1.715,0,0,0-.784.864A3.029,3.029,0,0,0-703.953,1205.4Z" transform="translate(704.31 -1201.493)"></path></g></g></svg>