<svg xmlns="http://www.w3.org/2000/svg" viewBox="0 0 1623.21 1340"><defs><style>.cls-1{isolation:isolate;}.cls-2{fill:none;}.cls-3{fill:#455666;opacity:0.33;}.cls-10,.cls-3{mix-blend-mode:multiply;}.cls-4{fill:#d9d9d9;}.cls-4,.cls-6{stroke:#000;}.cls-12,.cls-13,.cls-4,.cls-5,.cls-6{stroke-miterlimit:10;stroke-width:2px;}.cls-14,.cls-5{fill:#ebf0f5;}.cls-12,.cls-13,.cls-5{stroke:#24313e;}.cls-6{fill:#fdfdfd;}.cls-7{font-size:53.96px;}.cls-11,.cls-7{fill:#24313e;font-family:Rubik-Bold, Rubik;font-weight:700;}.cls-8{font-family:Rubik-Regular, Rubik;font-weight:400;}.cls-9{letter-spacing:-0.01em;}.cls-10{fill:#d9dee5;}.cls-11{font-size:46.63px;}.cls-12{fill:#9caab8;}.cls-13{fill:#0c7ff2;}.cls-14{mix-blend-mode:overlay;opacity:0.39;}</style></defs><g class="cls-1"><g id="Layer_2" data-name="Layer 2"><g id="Layer_1-2" data-name="Layer 1"><rect class="cls-2" width="1623.21" height="1340"></rect><path class="cls-3" d="M1427.23,52.17a23.17,23.17,0,0,1,23.14,23.2l-.62,418.49A23.17,23.17,0,0,1,1426.54,517l-277.41-.41A23.17,23.17,0,0,1,1126,493.38l.49-286.9"></path><path class="cls-4" d="M1421.78,44.72a23.18,23.18,0,0,1,23.14,23.21l-.63,418.49a23.17,23.17,0,0,1-23.2,23.13l-277.42-.41a23.17,23.17,0,0,1-23.13-23.21l.49-275.08"></path><path class="cls-5" d="M1217.37,131.7a21.92,21.92,0,0,1-21.95,21.88l-75.78,56.22-.53,275a23.17,23.17,0,0,0,23.14,23.2l281,.42a13.61,13.61,0,0,0,13.63-13.59l.65-437.61a13.61,13.61,0,0,0-13.59-13.63l-136-.31"></path><path class="cls-3" d="M1289,42.9V189.28a27.54,27.54,0,0,1-27.54,27.55H1126.21a6.19,6.19,0,0,1-6.12-7h0Z"></path><path class="cls-6" d="M1120.53,210.85l125.41.19a42.8,42.8,0,0,0,42.86-42.73L1289,42.9a.61.61,0,0,0-1-.44L1120.09,209.8A.62.62,0,0,0,1120.53,210.85Z"></path><rect class="cls-4" x="1140.71" y="358.4" width="254.01" height="140.45" rx="24.01" transform="translate(1.18 -3.46) rotate(0.16)"></rect><rect class="cls-6" x="1133.02" y="358.63" width="254.25" height="140.45" rx="24.01" transform="translate(1.18 -3.44) rotate(0.16)"></rect><text class="cls-7" transform="matrix(1, 0.01, -0.01, 1, 1146.64, 424.76)">API <tspan class="cls-8"><tspan x="0" y="48.01">SP</tspan><tspan class="cls-9" x="68.21" y="48.01">E</tspan><tspan x="100.53" y="48.01">C</tspan></tspan></text><path class="cls-3" d="M1392.61,813.27a21.09,21.09,0,0,1,21.06,21.12l-.57,380.81a21.08,21.08,0,0,1-21.12,21l-252.43-.37a21.09,21.09,0,0,1-21.06-21.12l.45-261.07"></path><path class="cls-4" d="M1387.65,806.5a21.08,21.08,0,0,1,21,21.11l-.56,380.81a21.09,21.09,0,0,1-21.12,21.06l-252.44-.38a21.08,21.08,0,0,1-21-21.12l.45-250.31"></path><path class="cls-5" d="M1201.64,885.64a19.92,19.92,0,0,1-20,19.91l-69,51.16-.48,250.2a21.08,21.08,0,0,0,21,21.12l255.68.38a12.39,12.39,0,0,0,12.4-12.37l.6-398.21a12.39,12.39,0,0,0-12.37-12.4l-123.75-.28"></path><path class="cls-3" d="M1266.81,804.84V938a25.06,25.06,0,0,1-25.06,25.07h-123a5.62,5.62,0,0,1-5.57-6.4h0Z"></path><path class="cls-6" d="M1113.52,957.67l114.13.17a38.94,38.94,0,0,0,39-38.88l.17-114.12a.56.56,0,0,0-1-.4L1113.13,956.71A.56.56,0,0,0,1113.52,957.67Z"></path><rect class="cls-10" x="1150.83" y="1107.77" width="212.54" height="23.68"></rect><rect class="cls-10" x="1150.83" y="1145.92" width="212.54" height="23.68"></rect><rect class="cls-10" x="1150.83" y="1030.57" width="212.54" height="23.68"></rect><rect class="cls-10" x="1150.83" y="1068.71" width="212.54" height="23.68"></rect><path class="cls-3" d="M1484,873.78a21.08,21.08,0,0,1,21,21.11l-.57,380.81a21.07,21.07,0,0,1-21.11,21l-252.44-.37a21.08,21.08,0,0,1-21.05-21.12l.45-261.07"></path><path class="cls-4" d="M1479,867A21.09,21.09,0,0,1,1500,888.11l-.57,380.82a21.08,21.08,0,0,1-21.11,21l-252.44-.38a21.08,21.08,0,0,1-21.05-21.11l.44-250.32"></path><path class="cls-5" d="M1293,946.15a20,20,0,0,1-20,19.91l-69,51.15-.48,250.2a21.08,21.08,0,0,0,21,21.12l255.68.38a12.39,12.39,0,0,0,12.41-12.37l.59-398.2a12.39,12.39,0,0,0-12.37-12.41l-123.74-.28"></path><path class="cls-3" d="M1358.15,865.34V998.55a25.07,25.07,0,0,1-25.07,25.06H1210a5.63,5.63,0,0,1-5.57-6.4h0Z"></path><path class="cls-6" d="M1204.86,1018.17l114.12.17a38.94,38.94,0,0,0,39-38.88l.17-114.12a.56.56,0,0,0-1-.4l-152.73,152.27A.56.56,0,0,0,1204.86,1018.17Z"></path><rect class="cls-4" x="1220.67" y="1185.5" width="146.26" height="71.67" rx="24.01" transform="translate(3.33 -3.52) rotate(0.16)"></rect><rect class="cls-6" x="1216.24" y="1185.61" width="146.4" height="71.67" rx="24.01" transform="translate(3.33 -3.51) rotate(0.16)"></rect><text class="cls-11" transform="matrix(1, 0.01, -0.01, 1, 1228.23, 1241.7)">Docs</text><rect class="cls-12" x="838.88" y="307.61" width="198.17" height="80.87" rx="16.45"></rect><rect class="cls-4" x="839.22" y="315.47" width="198.17" height="73.47" rx="16.45"></rect><rect class="cls-12" x="845.88" y="991" width="198.17" height="73.47" rx="16.45"></rect><rect class="cls-4" x="844.22" y="996.47" width="198.17" height="73.47" rx="16.45"></rect><path class="cls-12" d="M1010.39,1113.59l81.91-81.91a6.66,6.66,0,0,0,0-9.43l-81.91-81.91A6.66,6.66,0,0,0,999,945.05v163.83A6.66,6.66,0,0,0,1010.39,1113.59Z"></path><path class="cls-13" d="M912.24,405.36V983.79a12.68,12.68,0,0,0,12.68,12.68h95.22a16.44,16.44,0,0,1,16.45,16.45v40.58a16.44,16.44,0,0,1-16.44,16.44H854.86a15.69,15.69,0,0,1-2.49-.19l-.47-.08a16.46,16.46,0,0,1-13.13-16.12v-721a17.61,17.61,0,0,1,17.09-17.1h165.28a16.44,16.44,0,0,1,16.45,16.45V372.5a16.44,16.44,0,0,1-16.44,16.44H928.66A16.42,16.42,0,0,0,912.24,405.36Z"></path><path class="cls-13" d="M851.9,1069.67a16.44,16.44,0,0,1-13.48-16.18v-40.58a16.45,16.45,0,0,1,.35-3.39v44A16.46,16.46,0,0,0,851.9,1069.67Z"></path><path class="cls-13" d="M1008.84,1115.77l80.66-80.66a6.55,6.55,0,0,0,0-9.28l-80.66-80.66a6.56,6.56,0,0,0-11.19,4.64v161.32A6.56,6.56,0,0,0,1008.84,1115.77Z"></path><rect class="cls-14" x="910.75" y="999.34" width="86.9" height="6.62" rx="3.31"></rect><path class="cls-14" d="M1089.5,1035.11l-.13.13L1014.11,960a6.57,6.57,0,0,0-11.2,4.65v152.93a6.49,6.49,0,0,1-5.26-6.43V949.81a6.56,6.56,0,0,1,11.19-4.64l80.66,80.66A6.57,6.57,0,0,1,1089.5,1035.11Z"></path><path class="cls-13" d="M897.2,1069.94c-.46,0-.93.06-1.4.06H855.21a15.63,15.63,0,0,1-2.84-.25,15.69,15.69,0,0,0,2.49.19Z"></path><rect class="cls-14" x="839.92" y="318.34" width="189.75" height="6.62" rx="3.31"></rect><rect class="cls-10" x="1211.7" y="222.38" width="195.52" height="21.79"></rect><rect class="cls-10" x="1211.7" y="257.47" width="195.52" height="21.79"></rect></g></g></g></svg>