<svg xmlns="http://www.w3.org/2000/svg" width="404.075" height="284.992" viewBox="0 0 404.075 284.992"><defs><style>.a{fill:#3ab2d0;}.b{fill:#24313e;}.c{fill:#f4e969;}.d{fill:#031439;}.e{fill:#d9dee5;}.f{fill:#455666;}.g{fill:#f5f7f9;}.h{fill:#0c7ff2;}.i{fill:#ffb792;}.j{fill:#ff603d;}.k{fill:#6b7e8f;}.l{fill:#e7e9f2;}.m{fill:#282d44;}.n{fill:#fff;stroke:#000;stroke-miterlimit:10;stroke-width:4px;}.o{fill:#9caab8;}.p{fill:#28c397;}.q{fill:#ebf0f5;}</style></defs><g transform="translate(-5143.388 4185.18)"><g transform="translate(5169.043 -4159.055)"><g transform="translate(0.47 0.471)"><path class="a" d="M5354.828-3965.482l-2.806,2.806-2.806,2.806v1.258a12.384,12.384,0,0,1-3.638,8.783,12.383,12.383,0,0,1-8.784,3.638h-69.949a12.381,12.381,0,0,1-8.783-3.638,12.383,12.383,0,0,1-3.639-8.783v-101.112a12.383,12.383,0,0,1,3.639-8.784,12.382,12.382,0,0,1,8.783-3.638h69.949a12.384,12.384,0,0,1,8.784,3.638,12.385,12.385,0,0,1,3.638,8.784v88.63l2.806,2.806Z" transform="translate(-5254.423 4072.146)"></path></g><g transform="translate(0 0)"><path class="b" d="M5335.266-3947.249h-69.949a12.852,12.852,0,0,1-9.112-3.781,12.853,12.853,0,0,1-3.781-9.112v-101.112a12.853,12.853,0,0,1,3.781-9.112,12.851,12.851,0,0,1,9.112-3.78h69.949a12.851,12.851,0,0,1,9.112,3.78,12.853,12.853,0,0,1,3.781,9.112v88.435l2.9,2.9,2.9,2.9-2.9,2.9-2.9,2.9v1.063a12.853,12.853,0,0,1-3.781,9.112A12.852,12.852,0,0,1,5335.266-3947.249ZM5265.316-4073.2a11.915,11.915,0,0,0-8.447,3.5,11.915,11.915,0,0,0-3.5,8.447v101.112a11.916,11.916,0,0,0,3.5,8.447,11.916,11.916,0,0,0,8.447,3.5h69.949a11.914,11.914,0,0,0,8.447-3.5,11.914,11.914,0,0,0,3.5-8.447v-1.453l2.708-2.708,2.708-2.708-2.708-2.708-2.708-2.708v-88.825a11.913,11.913,0,0,0-3.5-8.447,11.913,11.913,0,0,0-8.447-3.5h-69.949Z" transform="translate(-5252.424 4074.146)"></path></g></g><g transform="translate(5396.593 -4185.18)"><g transform="translate(0.471 0.471)"><path class="c" d="M6301.244-4177.465v39.546a5.7,5.7,0,0,1-1.674,4.042,5.7,5.7,0,0,1-4.041,1.674h-51.3l-8.505,8.5-8.506,8.5h-4.644c.229.015,2.2-5.263,3-10.745s.413-11.172-4.068-11.979v-39.546a5.7,5.7,0,0,1,1.674-4.041,5.7,5.7,0,0,1,4.041-1.674h68.309a5.7,5.7,0,0,1,4.041,1.674A5.7,5.7,0,0,1,6301.244-4177.465Z" transform="translate(-6221.506 4183.18)"></path></g><g transform="translate(0 0)"><path class="d" d="M6221.083-4116.251h-.065a.467.467,0,0,1-.318-.154.467.467,0,0,1-.122-.331.464.464,0,0,1,.049-.195.47.47,0,0,1,.12-.152,40.169,40.169,0,0,0,2.341-7.725c.829-3.9,1.285-8.41.108-11.331a4.888,4.888,0,0,0-1.311-1.927,4.1,4.1,0,0,0-1.993-.916.469.469,0,0,1-.277-.161.47.47,0,0,1-.11-.3v-39.546a6.168,6.168,0,0,1,1.813-4.372,6.168,6.168,0,0,1,4.372-1.814H6294a6.167,6.167,0,0,1,4.372,1.814,6.168,6.168,0,0,1,1.813,4.372v39.546a6.168,6.168,0,0,1-1.813,4.372,6.167,6.167,0,0,1-4.372,1.814h-51.1l-8.437,8.436-8.437,8.436a.464.464,0,0,1-.153.1.471.471,0,0,1-.18.036h-4.608Zm-.035-.943h0Zm-.6-22.634a5.251,5.251,0,0,1,3.726,3.614,17.847,17.847,0,0,1,.449,7.98,44.7,44.7,0,0,1-.845,4.669c-.326,1.4-.66,2.574-.9,3.362-.227.748-.423,1.355-.6,1.848s-.318.871-.445,1.161h3.659l8.437-8.436,8.437-8.436a.463.463,0,0,1,.152-.1.48.48,0,0,1,.18-.036H6294a5.23,5.23,0,0,0,3.707-1.538,5.228,5.228,0,0,0,1.538-3.707v-39.546a5.228,5.228,0,0,0-1.538-3.707,5.228,5.228,0,0,0-3.707-1.538h-68.309a5.228,5.228,0,0,0-3.707,1.538,5.228,5.228,0,0,0-1.538,3.707v39.167Z" transform="translate(-6219.506 4185.18)"></path></g></g><g transform="translate(5303.648 -4099.513)"><g transform="translate(0.469 0.472)"><path class="e" d="M5826.6-3803.447a13.292,13.292,0,0,0,2.91,7.6,4.38,4.38,0,0,0,5.278,1.29c1.92-.875,3.52-3.018,4.554-5.774a21.321,21.321,0,0,0,1.163-9.456,13.29,13.29,0,0,0-2.91-7.6,4.38,4.38,0,0,0-5.278-1.29c-1.92.876-3.52,3.018-4.554,5.774A21.327,21.327,0,0,0,5826.6-3803.447Z" transform="translate(-5826.487 3819.09)"></path></g><g transform="translate(0 0)"><path class="b" d="M5831.444-3795.208a4.4,4.4,0,0,1-1.173-.159,4.9,4.9,0,0,1-1.137-.479,7.931,7.931,0,0,1-3-3.439,16.518,16.518,0,0,1-1.532-5.648,21.7,21.7,0,0,1,1.231-9.731c1.084-2.844,2.757-5.062,4.759-5.975a4.782,4.782,0,0,1,2.195-.453,4.644,4.644,0,0,1,2.126.635,7.927,7.927,0,0,1,3,3.439,16.509,16.509,0,0,1,1.533,5.647,21.712,21.712,0,0,1-1.231,9.731c-1.085,2.844-2.757,5.062-4.759,5.975a5.181,5.181,0,0,1-1.005.342A4.536,4.536,0,0,1,5831.444-3795.208Zm1.157-24.941a3.648,3.648,0,0,0-.807.092,4.2,4.2,0,0,0-.809.276c-1.832.835-3.359,2.908-4.345,5.58a20.95,20.95,0,0,0-1.1,9.174,15.753,15.753,0,0,0,1.4,5.215,7.114,7.114,0,0,0,2.667,3.15,3.707,3.707,0,0,0,1.7.506,3.84,3.84,0,0,0,1.76-.365c1.832-.836,3.359-2.908,4.345-5.579a20.944,20.944,0,0,0,1.1-9.174,15.74,15.74,0,0,0-1.4-5.215,7.109,7.109,0,0,0-2.667-3.15,3.893,3.893,0,0,0-.908-.382A3.52,3.52,0,0,0,5832.6-3820.15Z" transform="translate(-5824.493 3821.095)"></path></g></g><g transform="translate(5305.847 -4117.689)"><g transform="translate(0.471 0.471)"><path class="f" d="M5835.838-3881.019a27.867,27.867,0,0,0,1.965,10.836c1.214,2.773,2.892,4.489,4.745,4.489s3.53-1.715,4.744-4.489a27.867,27.867,0,0,0,1.965-10.836,27.868,27.868,0,0,0-1.965-10.836c-1.214-2.773-2.892-4.489-4.744-4.489s-3.53,1.715-4.745,4.489A27.868,27.868,0,0,0,5835.838-3881.019Z" transform="translate(-5835.838 3896.343)"></path></g><g transform="translate(0 0)"><path class="b" d="M5841.019-3866.753c-2.014,0-3.809-1.735-5.1-4.576a27.911,27.911,0,0,1-2.081-11.219,27.912,27.912,0,0,1,2.081-11.219c1.292-2.842,3.086-4.576,5.1-4.576s3.808,1.735,5.1,4.576a27.912,27.912,0,0,1,2.08,11.219,27.912,27.912,0,0,1-2.08,11.219C5844.827-3868.488,5843.031-3866.753,5841.019-3866.753Zm0-30.649c-1.691,0-3.251,1.7-4.388,4.407a27.893,27.893,0,0,0-1.851,10.447,27.891,27.891,0,0,0,1.851,10.446c1.137,2.707,2.7,4.407,4.388,4.407s3.25-1.7,4.388-4.407a27.891,27.891,0,0,0,1.851-10.446,27.893,27.893,0,0,0-1.851-10.447C5844.269-3895.7,5842.709-3897.4,5841.019-3897.4Z" transform="translate(-5833.838 3898.343)"></path></g></g><g transform="translate(5289.136 -4062.875)"><g transform="translate(0.576 0.471)"><path class="g" d="M5795.232-3653.738v-9.643h37.135l1.106,4.822,1.106,4.821a62.622,62.622,0,0,1,7.225,1.633c3.613,1.073,7.225,2.657,7.225,4.706s-1.688,8.3-4.9,14.189-7.937,11.422-14.018,12.037-22.293-.41-36.986-1.588-27.866-2.51-27.866-2.51a37.864,37.864,0,0,1,5.619-11.847A41.162,41.162,0,0,1,5795.232-3653.738Z" transform="translate(-5765.263 3663.381)"></path></g><g transform="translate(0 0)"><path class="b" d="M5823.219-3622.047c-8.629,0-23.117-1.023-35.688-2.07s-23.226-2.119-24.187-2.216l-.264-.027-.264-.027.058-.26.059-.259a27.132,27.132,0,0,1,1.225-3.72,42.088,42.088,0,0,1,4.465-8.291,41.163,41.163,0,0,1,8.823-9.262,43.209,43.209,0,0,1,15.444-7.455v-9.749h37.98l1.113,4.849,1.113,4.849a56.558,56.558,0,0,1,8.208,1.973c3.319,1.117,6.325,2.7,6.325,4.78,0,2.013-1.683,8.368-4.941,14.379s-8.093,11.678-14.4,12.315c-.643.065-1.4.112-2.246.143S5824.249-3622.047,5823.219-3622.047Zm-59.233-5.168c2.821.28,16.045,1.577,29.979,2.661s28.576,1.954,34.231,1.383a13.794,13.794,0,0,0,8.169-4.251,32.438,32.438,0,0,0,5.482-7.543,50.791,50.791,0,0,0,3.589-8.349,22.086,22.086,0,0,0,1.251-5.615c0-1.345-2.154-2.6-4.988-3.63a52.035,52.035,0,0,0-9.063-2.243l-.157-.024-.158-.025-1.1-4.794-1.1-4.794h-36.29v9.538l-.177.045-.177.045a42.407,42.407,0,0,0-15.329,7.284,40.214,40.214,0,0,0-8.728,9.115,41.407,41.407,0,0,0-3.876,6.938A33.573,33.573,0,0,0,5763.986-3627.215Z" transform="translate(-5762.815 3665.381)"></path></g></g><g transform="translate(5236.339 -3993.782)"><g transform="translate(0.631 0.522)"><path class="g" d="M5589.4-3369.518l.491,16.436.491,16.436-24.633,1.785-24.633,1.785,3.759,11.732,3.759,11.732,27.889-4.409,27.889-4.409,5.064-24.273,5.063-24.273-12.57-1.272Z" transform="translate(-5541.111 3369.518)"></path></g><g transform="translate(0)"><path class="b" d="M5546.255-3310.781l-3.912-12.209-3.912-12.209,24.707-1.791,24.706-1.791-.493-16.479-.493-16.479,13.1,1.325,13.1,1.325-.053.256-.053.256-5.1,24.432-5.1,24.432-28.249,4.466Zm-6.562-23.567,3.606,11.256,3.606,11.255,27.529-4.352,27.529-4.352,4.978-23.858,4.977-23.858-12.043-1.219-12.043-1.218.49,16.393.49,16.393-24.56,1.78Z" transform="translate(-5538.431 3371.738)"></path></g></g><g transform="translate(5278.17 -4053.531)"><g transform="translate(0.554 0.77)"><path class="h" d="M5836.252-3560.807l.762,45.254.761,45.255H5737.248l.549-33.839.549-33.839.256-11.013.256-11.013h-20.294s.542-3.321,1.06-7.762a113.684,113.684,0,0,0,.91-14.48c-.032-1.422-.008-2.887.055-4.346s.164-2.909.288-4.3c.342-3.859.386-7.51,1.1-10.671a11.42,11.42,0,0,1,5.106-7.728,99.569,99.569,0,0,1,17.632-8.488,131.375,131.375,0,0,1,14.808-4.618c-.957,1.266-3.017,2.615-4.838,4.026s-3.4,2.884-3.4,4.4c0,5.16,3.124,9.832,8.174,13.213s12.027,5.472,19.733,5.472,14.683-2.091,19.732-5.472,8.173-8.052,8.173-13.213c0-1.4-1.643-2.911-3.493-4.368s-3.9-2.863-4.731-4.057l15.332,3.938,15.333,3.938a29.825,29.825,0,0,1,6.913,2.738c3.663,2,7.738,5.268,9.389,10.33s2.633,14.892,3.2,23.457.722,15.865.722,15.865l-6.753.664Z" transform="translate(-5718.564 3622.4)"></path></g><g transform="translate(0)"><path class="b" d="M5836.454-3472.328H5734.97l.553-34.078.553-34.078.251-10.773.25-10.774h-20.367l.044-.273.045-.273c.011-.066.551-3.4,1.063-7.824a113.058,113.058,0,0,0,.9-14.333c-.029-1.274-.014-2.643.043-4.1s.158-2.993.3-4.606c.049-.553.092-1.1.132-1.649s.076-1.085.111-1.615a39.827,39.827,0,0,1,1.243-8.917,11.316,11.316,0,0,1,4.936-6.574,99.286,99.286,0,0,1,16.8-8.177,130.408,130.408,0,0,1,15.778-4.989l.64-.154.639-.154-.4.525-.4.524a9.69,9.69,0,0,1-1.529,1.523c-.616.513-1.318,1.034-2.04,1.57a30.977,30.977,0,0,0-3.093,2.5,3.992,3.992,0,0,0-1.484,2.545c0,5.022,3.077,9.575,8.045,12.873a35.454,35.454,0,0,0,19.392,5.341,35.449,35.449,0,0,0,19.39-5.341c4.968-3.3,8.045-7.852,8.045-12.873a3.964,3.964,0,0,0-1.479-2.426,35.117,35.117,0,0,0-3.084-2.538c-.744-.567-1.467-1.119-2.09-1.652a8.731,8.731,0,0,1-1.486-1.542l-.359-.519-.359-.519,15.943,4.094,15.943,4.095a29.93,29.93,0,0,1,7.26,2.886c3.674,2.047,7.7,5.362,9.373,10.491,1.645,5.037,2.625,14.6,3.2,23.058s.737,15.8.75,16.4l0,.218,0,.218-6.754.665-6.754.664.762,45.277Zm-100.527-.941h99.57l-.761-45.232-.761-45.232,6.751-.664,6.751-.664c-.047-1.837-.263-9.208-.845-17.277s-1.531-16.838-3.044-21.473c-1.589-4.873-5.547-8.055-9.124-10.021a29.811,29.811,0,0,0-6.834-2.733l-14.562-3.74-14.562-3.74c.326.292.694.594,1.088.905s.811.629,1.235.953a31.9,31.9,0,0,1,3.377,2.819,4.458,4.458,0,0,1,1.558,2.892c0,5.281-3.183,10.07-8.321,13.539s-12.232,5.617-20.056,5.617-14.918-2.148-20.057-5.617-8.321-8.257-8.321-13.539a4.536,4.536,0,0,1,1.565-3.02,28.863,28.863,0,0,1,3.393-2.784c.41-.3.813-.6,1.195-.9s.744-.583,1.069-.865a133.079,133.079,0,0,0-15.077,4.948,96.407,96.407,0,0,0-15.622,7.7,10.524,10.524,0,0,0-4.572,6.208,39.455,39.455,0,0,0-1.169,8.551q-.054.8-.112,1.623t-.133,1.66c-.142,1.6-.241,3.118-.3,4.554s-.072,2.788-.043,4.045a106.658,106.658,0,0,1-.729,12.867c-.444,4.137-.961,7.615-1.162,8.915h20.226l-.262,11.254-.262,11.253-.545,33.6Z" transform="translate(-5716.211 3625.671)"></path></g></g><g transform="translate(5260.685 -3992.722)"><g transform="translate(0.667 0.488)"><path class="g" d="M5766.664-3364.3l.629,17.2.629,17.2-40.29,9.649-40.29,9.648a16.226,16.226,0,0,0-5.379-3.808c-3.568-1.632-8.894-2.719-15.924-.544a65.142,65.142,0,0,0-14.22,5.983,16.867,16.867,0,0,0-3.675,2.72l-1.7,4.786-1.7,4.786h64.336l40.9-8.05,40.9-8.05-.75-26.194-.75-26.194-11.356.43Z" transform="translate(-5644.735 3365.157)"></path></g><g transform="translate(0 0)"><path class="b" d="M5706.949-3297.784H5641.9l1.832-5.143,1.831-5.143.03-.034.029-.034a17.217,17.217,0,0,1,3.855-2.861,65.958,65.958,0,0,1,14.254-5.98,25.105,25.105,0,0,1,9.658-1.147,20.007,20.007,0,0,1,6.6,1.713,18.767,18.767,0,0,1,3.584,2.141,14.4,14.4,0,0,1,1.763,1.571l39.966-9.571,39.966-9.571-.631-17.245-.63-17.245,11.828-.449,11.828-.448.763,26.631.763,26.631-41.12,8.093Zm-63.715-.941h63.624l40.685-8.007,40.684-8.007-.738-25.758-.737-25.758-10.884.413-10.883.412.627,17.161.628,17.161-40.62,9.728-40.62,9.727-.094-.112-.094-.113a11.337,11.337,0,0,0-1.343-1.271,17.656,17.656,0,0,0-3.914-2.429,19.089,19.089,0,0,0-6.3-1.615,24.21,24.21,0,0,0-9.244,1.113,67.263,67.263,0,0,0-13.424,5.541,20.186,20.186,0,0,0-4.2,2.965l-1.576,4.425Z" transform="translate(-5641.899 3367.232)"></path></g></g><g transform="translate(5310.04 -4121.455)"><g transform="translate(0.479 0.49)"><path class="g" d="M5907.182-3872.894a31.088,31.088,0,0,1-7.736,20.8,25.058,25.058,0,0,1-18.677,8.617,25.062,25.062,0,0,1-18.678-8.617,31.086,31.086,0,0,1-7.737-20.8c0-.022,0-.048,0-.077s0-.062,0-.1c-.028-1.719-.193-10.968-.352-19.788s-.31-17.21-.31-17.21l25.711-1.1,25.711-1.1,1.034,19.686Z" transform="translate(-5853.692 3912.266)"></path></g><g transform="translate(0 0)"><path class="b" d="M5879.211-3844.6a25.53,25.53,0,0,1-19-8.764,31.549,31.549,0,0,1-7.883-21.125c0-.029,0-.055,0-.081s0-.052,0-.082c-.027-1.7-.191-10.868-.349-19.651s-.31-17.183-.312-17.351l0-.229,0-.23,26.174-1.118,26.173-1.119,1.046,19.931,1.046,19.931a31.549,31.549,0,0,1-7.883,21.125A25.527,25.527,0,0,1,5879.211-3844.6Zm-26.6-66.613c.037,2.022.187,10.362.335,18.594s.292,16.356.318,17.946c0,.041,0,.079,0,.113s0,.065,0,.092a30.586,30.586,0,0,0,7.608,20.441,24.6,24.6,0,0,0,18.337,8.486,24.6,24.6,0,0,0,18.333-8.484,30.618,30.618,0,0,0,7.61-20.452l-1.021-19.447-1.021-19.447-25.25,1.079Z" transform="translate(-5851.656 3914.348)"></path></g></g><g transform="translate(5310.592 -4081.786)"><g transform="translate(0.588 0.017)"><path class="i" d="M5856.5-3745.685c0,.036,0,.069,0,.1s0,.055,0,.078v-.176Z" transform="translate(-5856.502 3745.685)"></path></g><g transform="translate(0 0)"><path class="b" d="M5855.178-3745.536l-.588-.013-.588-.014v-.176l.588-.009.588-.008c0,.045,0,.087,0,.123S5855.179-3745.563,5855.178-3745.536Z" transform="translate(-5854.002 3745.756)"></path></g></g><g transform="translate(5298.016 -4142.068)"><g transform="translate(0.46 0.967)"><path class="f" d="M5847.417-3992.473a35.678,35.678,0,0,0-10.128-1.924,33.853,33.853,0,0,0-21.347,5.862,5.765,5.765,0,0,1-2.417-1.834c-1.088-1.387-1.934-3.714-.97-7.473a16.505,16.505,0,0,0-3.978,3.446c-1.808,2.192-3.254,5.325-1.808,9.083a8.347,8.347,0,0,1,.073,2.55c-.221.85-.958.85-3.021-2.55a7.478,7.478,0,0,0-1.1,2.55,7.7,7.7,0,0,0,1.1,6.041c1.474,2.327,4.5,4.459,7.165,6.01a48.588,48.588,0,0,0,4.955,2.52,58.508,58.508,0,0,0,13.792,3.254c8.063.937,18.459.492,27.794-5.031a47.71,47.71,0,0,0,1.569,10.1c1.446,5.308,4.216,11.13,9.512,13.187s7.043-10.423,3.944-22.9S5861.508-3994.536,5847.417-3992.473Z" transform="translate(-5802.513 3997.843)"></path></g><g transform="translate(0 0)"><path class="b" d="M5868.226-3949.129a3.194,3.194,0,0,1-.63-.064,3.9,3.9,0,0,1-.653-.193,13.194,13.194,0,0,1-5.851-4.741,26.958,26.958,0,0,1-3.945-8.76,46.967,46.967,0,0,1-1.149-5.642c-.236-1.654-.347-3-.4-3.792a39.91,39.91,0,0,1-14.58,4.692,53.4,53.4,0,0,1-12.837.014,63.629,63.629,0,0,1-9.948-1.984c-2.467-.7-3.937-1.29-3.966-1.3a48.321,48.321,0,0,1-5.193-2.646c-2.663-1.568-5.651-3.705-7.147-6.067a8.155,8.155,0,0,1-1.159-6.374,8.122,8.122,0,0,1,1.179-2.751l.209-.279.208-.279.181.3.181.3a17.5,17.5,0,0,0,1.5,2.181,2.379,2.379,0,0,0,.636.591,2.77,2.77,0,0,0,.092-.944,10.343,10.343,0,0,0-.14-1.459c-1.476-3.889,0-7.141,1.863-9.428a17.2,17.2,0,0,1,4.144-3.633l.485-.28.485-.28-.139.542-.139.542c-.8,3.109-.312,5.17.488,6.505a5.443,5.443,0,0,0,2.384,2.154,33.159,33.159,0,0,1,11.569-5,36.767,36.767,0,0,1,9.861-.8,39.769,39.769,0,0,1,6.874.962,28.265,28.265,0,0,1,3.283.949,18.278,18.278,0,0,1,13.612,3.17,27.214,27.214,0,0,1,7.832,9.289,50.6,50.6,0,0,1,5.5,19.372c.5,6.289-.294,11.677-2.3,13.959a3.656,3.656,0,0,1-1.12.883A2.851,2.851,0,0,1,5868.226-3949.129Zm-11.745-24.8.01.4.01.4a47.9,47.9,0,0,0,1.577,10.02c1.423,5.2,4.116,10.866,9.2,12.842a2.3,2.3,0,0,0,1.418.133,2.421,2.421,0,0,0,1.209-.8,10.284,10.284,0,0,0,1.873-5.04,36,36,0,0,0,.2-8.158,52.075,52.075,0,0,0-1.8-10.06,44.36,44.36,0,0,0-3.588-9,26.219,26.219,0,0,0-7.535-8.946,17.412,17.412,0,0,0-13.066-3.013l-.062.009-.062.009-.058-.022-.058-.023a25.594,25.594,0,0,0-2.824-.84,38.734,38.734,0,0,0-7.191-1.054,35.786,35.786,0,0,0-9.68.807,32.212,32.212,0,0,0-11.34,4.973l-.1.068-.1.067-.112-.038-.112-.038a6.33,6.33,0,0,1-2.444-1.781c-1.129-1.317-2.1-3.494-1.5-6.946a14.631,14.631,0,0,0-3.93,4.108,7.921,7.921,0,0,0-.713,7.225l.012.044.012.044a9.186,9.186,0,0,1,.159,2.172c-.053.661-.248,1.186-.69,1.352-.354.132-.744.012-1.209-.4a10.511,10.511,0,0,1-1.667-2.148,7.357,7.357,0,0,0-.834,2.934,7.4,7.4,0,0,0,1.23,4.51c1.417,2.237,4.371,4.314,6.981,5.837a48.909,48.909,0,0,0,4.923,2.51c.025.01,1.469.587,3.9,1.276a62.706,62.706,0,0,0,9.793,1.947,52.275,52.275,0,0,0,12.895-.057,38.613,38.613,0,0,0,14.579-4.915l.345-.2Z" transform="translate(-5800.556 4001.953)"></path></g></g><g transform="translate(5341.345 -4136.776)"><g transform="translate(2.036 1.045)"><path class="e" d="M5993.353-3975.022a59.6,59.6,0,0,1,9.682,10.73c4.907,6.859,9.947,16.7,10.477,28.652h4.935a65.05,65.05,0,0,0-3.75-17.285C6011.354-3961.968,6005.081-3971.814,5993.353-3975.022Z" transform="translate(-5993.353 3975.022)"></path></g><g transform="translate(0 0)"><path class="b" d="M6012.326-3938.564h-5.88l-.01-.225-.01-.225a48.883,48.883,0,0,0-3.732-16.458,59.845,59.845,0,0,0-6.656-11.941,65.394,65.394,0,0,0-6.585-7.828c-1.792-1.814-2.987-2.792-3.01-2.811l-.87-.705-.87-.705,1.08.3,1.08.3a27.44,27.44,0,0,1,7.61,3.379,29.726,29.726,0,0,1,6.438,5.628,37.766,37.766,0,0,1,4.23,6.043,49.63,49.63,0,0,1,3.382,7.339,66.305,66.305,0,0,1,3.136,12.059c.528,3.22.641,5.325.643,5.366l.013.247Zm-4.981-.941h3.983a61.553,61.553,0,0,0-.846-6.19,64.4,64.4,0,0,0-2.85-10.483,43.667,43.667,0,0,0-6.575-12,27.981,27.981,0,0,0-12.371-9.131c.919.867,2.16,2.1,3.566,3.671a66.54,66.54,0,0,1,4.551,5.674,60.85,60.85,0,0,1,6.695,11.97A50.009,50.009,0,0,1,6007.344-3939.505Z" transform="translate(-5984.702 3979.462)"></path></g></g><g transform="translate(5359.305 -4099.513)"><g transform="translate(0.469 0.472)"><path class="e" d="M6063.136-3803.447a13.292,13.292,0,0,0,2.91,7.6,4.38,4.38,0,0,0,5.278,1.29c1.919-.875,3.52-3.018,4.554-5.774a21.321,21.321,0,0,0,1.163-9.456,13.286,13.286,0,0,0-2.91-7.6,4.38,4.38,0,0,0-5.278-1.29c-1.92.876-3.52,3.018-4.554,5.774A21.327,21.327,0,0,0,6063.136-3803.447Z" transform="translate(-6063.026 3819.09)"></path></g><g transform="translate(0 0)"><path class="b" d="M6067.984-3795.208a4.4,4.4,0,0,1-1.173-.159,4.9,4.9,0,0,1-1.137-.479,7.925,7.925,0,0,1-3-3.439,16.529,16.529,0,0,1-1.533-5.648,21.7,21.7,0,0,1,1.231-9.731c1.084-2.844,2.757-5.062,4.758-5.975a4.785,4.785,0,0,1,2.2-.453,4.644,4.644,0,0,1,2.126.635,7.929,7.929,0,0,1,3,3.438,16.534,16.534,0,0,1,1.533,5.648,21.7,21.7,0,0,1-1.231,9.731c-1.084,2.844-2.757,5.062-4.758,5.975a5.186,5.186,0,0,1-1.006.342A4.535,4.535,0,0,1,6067.984-3795.208Zm1.157-24.941a3.663,3.663,0,0,0-.808.092,4.21,4.21,0,0,0-.809.276c-1.832.835-3.358,2.908-4.344,5.58a20.943,20.943,0,0,0-1.1,9.174,15.756,15.756,0,0,0,1.4,5.216,7.112,7.112,0,0,0,2.666,3.15,3.708,3.708,0,0,0,1.7.506,3.842,3.842,0,0,0,1.76-.365c1.832-.836,3.358-2.908,4.344-5.58a20.943,20.943,0,0,0,1.1-9.174,15.752,15.752,0,0,0-1.4-5.215,7.114,7.114,0,0,0-2.666-3.151,3.911,3.911,0,0,0-.908-.382A3.523,3.523,0,0,0,6069.141-3820.15Z" transform="translate(-6061.033 3821.095)"></path></g></g><g transform="translate(5332.042 -4084.173)"><g transform="translate(0.575 1.067)"><path class="e" d="M5980.187-3751.365l-2.647,4.063-2.647,4.063a17.809,17.809,0,0,1-4.684,4.881,15.935,15.935,0,0,1-5.979,2.588l-8.308,1.681-8.308,1.681.333,1.343.333,1.342,8.441-1.844,8.441-1.843a15.966,15.966,0,0,0,5.854-2.614,17.818,17.818,0,0,0,4.587-4.821l2.681-4.122,2.681-4.122-.388-1.139Z" transform="translate(-5947.613 3751.365)"></path></g><g transform="translate(0 0)"><path class="b" d="M5946.063-3732.631l-.447-1.8-.447-1.8,8.549-1.73,8.548-1.73a15.439,15.439,0,0,0,5.811-2.51,17.332,17.332,0,0,0,4.551-4.754l2.912-4.468,2.912-4.468.581,1.7.581,1.7-2.743,4.218-2.743,4.219a18.274,18.274,0,0,1-4.712,4.955,16.423,16.423,0,0,1-6.024,2.682l-8.664,1.892Zm.256-2.879.218.882.219.882,8.217-1.794,8.217-1.795a15.487,15.487,0,0,0,5.689-2.537,17.359,17.359,0,0,0,4.458-4.694l2.618-4.026,2.619-4.026-.2-.573-.2-.573-2.384,3.658-2.384,3.659a18.266,18.266,0,0,1-4.81,5.019,16.383,16.383,0,0,1-6.153,2.654l-8.067,1.633Z" transform="translate(-5945.169 3755.899)"></path></g></g><g transform="translate(5330.333 -4068.206)"><g transform="translate(0.471 0.471)"><path class="f" d="M5948.462-3681.274a5.035,5.035,0,0,1-1.253,3.37,4.06,4.06,0,0,1-3.026,1.4,4.06,4.06,0,0,1-3.026-1.4,5.037,5.037,0,0,1-1.253-3.37,5.037,5.037,0,0,1,1.253-3.37,4.06,4.06,0,0,1,3.026-1.4,4.06,4.06,0,0,1,3.026,1.4A5.035,5.035,0,0,1,5948.462-3681.274Z" transform="translate(-5939.904 3686.04)"></path></g><g transform="translate(0 0)"><path class="b" d="M5942.653-3677.568a4.526,4.526,0,0,1-3.357-1.535,5.5,5.5,0,0,1-1.393-3.7,5.5,5.5,0,0,1,1.393-3.7,4.526,4.526,0,0,1,3.357-1.535,4.525,4.525,0,0,1,3.357,1.535,5.5,5.5,0,0,1,1.393,3.7,5.5,5.5,0,0,1-1.393,3.7A4.525,4.525,0,0,1,5942.653-3677.568Zm0-9.531a3.6,3.6,0,0,0-2.691,1.259,4.573,4.573,0,0,0-1.117,3.036,4.572,4.572,0,0,0,1.117,3.035,3.6,3.6,0,0,0,2.691,1.259,3.6,3.6,0,0,0,2.692-1.259,4.572,4.572,0,0,0,1.117-3.035,4.573,4.573,0,0,0-1.117-3.036A3.6,3.6,0,0,0,5942.653-3687.1Z" transform="translate(-5937.904 3688.04)"></path></g></g><g transform="translate(5361.739 -4095.51)"><g transform="translate(0.471 0.471)"><path class="j" d="M6073.379-3793.541a12.98,12.98,0,0,0,1.352,6.039c.835,1.545,1.99,2.5,3.265,2.5s2.429-.956,3.265-2.5a12.974,12.974,0,0,0,1.352-6.039,12.975,12.975,0,0,0-1.352-6.039c-.835-1.545-1.99-2.5-3.265-2.5s-2.429.956-3.265,2.5A12.981,12.981,0,0,0,6073.379-3793.541Z" transform="translate(-6073.379 3802.081)"></path></g><g transform="translate(0 0)"><path class="b" d="M6076.466-3786.06c-1.426,0-2.7-.99-3.613-2.611a13.256,13.256,0,0,1-1.474-6.4,13.256,13.256,0,0,1,1.474-6.4c.915-1.621,2.187-2.61,3.613-2.61s2.7.989,3.613,2.61a13.256,13.256,0,0,1,1.474,6.4,13.256,13.256,0,0,1-1.474,6.4C6079.165-3787.049,6077.893-3786.06,6076.466-3786.06Zm0-17.08c-1.124,0-2.16.924-2.916,2.395a12.729,12.729,0,0,0-1.23,5.675,12.73,12.73,0,0,0,1.23,5.675c.755,1.471,1.792,2.395,2.916,2.395s2.16-.924,2.916-2.395a12.736,12.736,0,0,0,1.23-5.675,12.736,12.736,0,0,0-1.23-5.675C6078.626-3802.216,6077.59-3803.14,6076.466-3803.14Z" transform="translate(-6071.379 3804.081)"></path></g></g><g transform="translate(5375.65 -4044.505)"><g transform="translate(0.476 0.466)"><path class="h" d="M6148.819-3585.331c-12.712,1.692-16.087,15-16.284,27.882a116.481,116.481,0,0,0,2.785,25.344l3.784-.485,3.784-.484" transform="translate(-6132.526 3585.331)"></path></g><g transform="translate(0 0)"><path class="b" d="M6133.412-3533.1l-.049-.206-.049-.205c-.009-.04-.491-2.071-1.051-5.3a123.4,123.4,0,0,1-1.53-12.528,72.889,72.889,0,0,1,.585-17.084,29.651,29.651,0,0,1,4.393-11.841,16.418,16.418,0,0,1,4.962-4.789,16.546,16.546,0,0,1,6.537-2.254l.062.466.062.466a15.614,15.614,0,0,0-6.166,2.127,15.481,15.481,0,0,0-4.68,4.516c-4.558,6.636-5.355,17.092-4.908,26.361a122.462,122.462,0,0,0,2.557,19.235l3.572-.458,3.572-.457.06.467.06.467-3.994.511Z" transform="translate(-6130.501 3587.313)"></path></g></g><g transform="translate(5175.772 -4004.171)"><g transform="translate(0.469 0.471)"><path class="k" d="M5399.578-3332.57h-81.324l-17.507-38.876-17.507-38.876a2.513,2.513,0,0,1,.183-2.414,2.512,2.512,0,0,1,2.126-1.158h75.77a2.533,2.533,0,0,1,1.375.406,2.527,2.527,0,0,1,.934,1.087l17.976,39.916Z" transform="translate(-5283.013 3413.894)"></path></g><g transform="translate(0 0)"><path class="b" d="M5316.729-3333.629h-.3l-.062-.138-.062-.139-17.507-38.876-17.507-38.876a3.008,3.008,0,0,1-.258-1.459,3,3,0,0,1,.474-1.4,3,3,0,0,1,1.085-1.009,3,3,0,0,1,1.436-.364h75.771a3,3,0,0,1,1.629.482,3,3,0,0,1,1.108,1.288l18.125,40.248,18.125,40.248h-82.052Zm43.065-81.324h-75.771a2.061,2.061,0,0,0-.986.25,2.058,2.058,0,0,0-.745.693,2.056,2.056,0,0,0-.326.964,2.058,2.058,0,0,0,.177,1l17.445,38.738,17.444,38.737h80.292l-17.826-39.584-17.826-39.584a2.061,2.061,0,0,0-.761-.884A2.061,2.061,0,0,0,5359.794-3414.953Z" transform="translate(-5281.02 3415.894)"></path></g></g><g transform="translate(5172.368 -4004.171)"><g transform="translate(0.469 0.471)"><path class="l" d="M5385.109-3332.57h-81.324l-17.507-38.876-17.507-38.876a2.513,2.513,0,0,1,.183-2.414,2.512,2.512,0,0,1,2.126-1.158h75.77a2.53,2.53,0,0,1,1.375.406,2.529,2.529,0,0,1,.935,1.087l17.975,39.916Z" transform="translate(-5268.545 3413.894)"></path></g><g transform="translate(0 0)"><path class="b" d="M5302.26-3333.629h-.3l-.062-.138-.062-.139-17.507-38.876-17.507-38.876a3,3,0,0,1-.258-1.459,3,3,0,0,1,.474-1.4,3,3,0,0,1,1.085-1.009,3,3,0,0,1,1.437-.364h75.77a3,3,0,0,1,1.629.482,3.005,3.005,0,0,1,1.109,1.288l18.125,40.248,18.125,40.248H5302.26Zm43.064-81.324h-75.77a2.062,2.062,0,0,0-.986.25,2.062,2.062,0,0,0-.745.693,2.06,2.06,0,0,0-.325.964,2.058,2.058,0,0,0,.177,1l17.445,38.738,17.444,38.737h80.292l-17.826-39.584-17.826-39.584a2.062,2.062,0,0,0-.761-.884A2.06,2.06,0,0,0,5345.325-3414.953Z" transform="translate(-5266.55 3415.894)"></path></g></g><g transform="translate(5217.45 -3968.482)"><g transform="translate(0 2.568)"><path class="m" d="M5469.976-3241.3l-5.1-2.352-5.1-2.352q-.211-.1-.38-.19a3.04,3.04,0,0,1-.3-.186,1.593,1.593,0,0,1-.234-.206,1.6,1.6,0,0,1-.19-.251l-.187-.3-.187-.3a1.146,1.146,0,0,1-.122-.254.534.534,0,0,1-.027-.216.558.558,0,0,1,.06-.2.911.911,0,0,1,.14-.2l2.136-2.432,2.135-2.432a.92.92,0,0,1,.152-.09.3.3,0,0,1,.117-.031.649.649,0,0,1,.183.025.858.858,0,0,1,.185.079.845.845,0,0,1,.167.124.78.78,0,0,1,.128.158l.653,1.054.653,1.054a.957.957,0,0,1,.115.247.358.358,0,0,1,.007.194.621.621,0,0,1-.077.166.944.944,0,0,1-.136.161l-1.325,1.42-1.325,1.42,3.06,1.382,3.06,1.382c.126.051.241.1.343.154a2.775,2.775,0,0,1,.272.154,1.248,1.248,0,0,1,.221.185,1.471,1.471,0,0,1,.186.243l.653,1.055.653,1.054a.515.515,0,0,1,.07.162.231.231,0,0,1-.009.133.171.171,0,0,1-.081.089.324.324,0,0,1-.148.031.586.586,0,0,1-.167-.032A2.64,2.64,0,0,1,5469.976-3241.3Z" transform="translate(-5458.152 3253.298)"></path></g><g transform="translate(12.457 0)"><path class="m" d="M5514.529-3247.248a1.1,1.1,0,0,1-.182-.133.721.721,0,0,1-.124-.148.323.323,0,0,1-.028-.069c-.01-.032-.021-.075-.033-.127l-1.531-8-1.531-8a.439.439,0,0,1,.084-.355.457.457,0,0,1,.349-.122l.9-.01.9-.01a.57.57,0,0,1,.185.03.871.871,0,0,1,.194.094,1.1,1.1,0,0,1,.174.133.761.761,0,0,1,.123.148.661.661,0,0,1,.05.1.533.533,0,0,1,.031.1l1.51,8,1.511,8a.394.394,0,0,1-.063.355.488.488,0,0,1-.369.122l-.884.01-.884.01a.589.589,0,0,1-.187-.03A.952.952,0,0,1,5514.529-3247.248Z" transform="translate(-5511.097 3264.213)"></path></g><g transform="translate(18.473 2.413)"><path class="m" d="M5544.049-3241.943a.932.932,0,0,1-.172-.131.818.818,0,0,1-.13-.161l-.653-1.055-.653-1.054a1.014,1.014,0,0,1-.116-.245.341.341,0,0,1-.009-.187.49.49,0,0,1,.079-.158.973.973,0,0,1,.15-.159l1.31-1.43,1.309-1.43-3.044-1.372-3.044-1.372q-.179-.077-.332-.156t-.279-.162a1.309,1.309,0,0,1-.232-.191,1.484,1.484,0,0,1-.19-.247l-.653-1.054-.653-1.055a.492.492,0,0,1-.068-.159.193.193,0,0,1,.013-.126.184.184,0,0,1,.081-.082.3.3,0,0,1,.134-.029.66.66,0,0,1,.174.028,2,2,0,0,1,.24.086l5.107,2.352,5.107,2.352q.211.1.382.193a3.006,3.006,0,0,1,.3.193,1.719,1.719,0,0,1,.238.214,1.686,1.686,0,0,1,.192.253l.187.3.188.3a1.12,1.12,0,0,1,.121.252.478.478,0,0,1,.023.208.562.562,0,0,1-.064.19.969.969,0,0,1-.142.2l-2.146,2.432-2.145,2.432a.328.328,0,0,1-.113.1.3.3,0,0,1-.145.036.533.533,0,0,1-.169-.028A.9.9,0,0,1,5544.049-3241.943Z" transform="translate(-5536.663 3253.956)"></path></g></g><g transform="translate(5333.068 -3924.197)"><path class="n" d="M5949.527-3076" transform="translate(-5949.527 3076.003)"></path></g><g transform="translate(5207.107 -3923.016)"><g transform="translate(0.471 0.471)"><path class="l" d="M5564.341-3063.69H5417.459a1.259,1.259,0,0,1-.894-.37,1.258,1.258,0,0,1-.37-.894v-4.03h148.146a.63.63,0,0,1,.447.185.631.631,0,0,1,.185.447v4.03a.631.631,0,0,1-.185.447A.63.63,0,0,1,5564.341-3063.69Z" transform="translate(-5416.196 3068.984)"></path></g><g transform="translate(0 0)"><path class="b" d="M5562.812-3064.749H5415.93a1.73,1.73,0,0,1-1.226-.508,1.73,1.73,0,0,1-.508-1.226v-4.5h148.616a1.1,1.1,0,0,1,.779.323,1.1,1.1,0,0,1,.323.779v4.03a1.1,1.1,0,0,1-.323.779A1.1,1.1,0,0,1,5562.812-3064.749Zm-147.675-5.294v3.559a.792.792,0,0,0,.233.561.79.79,0,0,0,.561.232h146.882a.161.161,0,0,0,.114-.048.161.161,0,0,0,.047-.114v-4.03a.163.163,0,0,0-.047-.114.162.162,0,0,0-.114-.047H5415.136Z" transform="translate(-5414.195 3070.984)"></path></g></g><g transform="translate(5288.931 -3923.016)"><g transform="translate(0.471 0.471)"><path class="k" d="M5830.267-3063.691h-65.058a1.259,1.259,0,0,1-.894-.37,1.261,1.261,0,0,1-.37-.894v-4.03h66.322a.63.63,0,0,1,.447.185.63.63,0,0,1,.185.447v4.03a.631.631,0,0,1-.185.447A.63.63,0,0,1,5830.267-3063.691Z" transform="translate(-5763.944 3068.985)"></path></g><g transform="translate(0 0)"><path class="b" d="M5828.737-3064.75h-65.058a1.73,1.73,0,0,1-1.227-.509,1.729,1.729,0,0,1-.508-1.226v-4.5h66.793a1.1,1.1,0,0,1,.779.323,1.1,1.1,0,0,1,.323.779v4.03a1.1,1.1,0,0,1-.323.78A1.1,1.1,0,0,1,5828.737-3064.75Zm-65.852-5.294v3.559a.792.792,0,0,0,.233.561.791.791,0,0,0,.561.233h65.058a.159.159,0,0,0,.114-.048.16.16,0,0,0,.048-.114v-4.03a.161.161,0,0,0-.048-.114.16.16,0,0,0-.114-.047h-65.852Z" transform="translate(-5761.944 3070.985)"></path></g></g><g transform="translate(5296.533 -4048.127)"><g transform="translate(0.457 0.234)"><path class="h" d="M5803.427-3601.714s-2.964,5.185-5.1,14.969-3.433,24.167-.1,42.563" transform="translate(-5796.197 3601.714)"></path></g><g transform="translate(0 0)"><path class="b" d="M5796.276-3544.858a121.068,121.068,0,0,1-1.974-25.166,96.233,96.233,0,0,1,2.082-17.581,71.435,71.435,0,0,1,3.324-11.124,33.809,33.809,0,0,1,1.824-3.978l.408.233.408.234a34.669,34.669,0,0,0-1.755,3.855,70.592,70.592,0,0,0-3.3,11.029,95.368,95.368,0,0,0-2.051,17.405,120.139,120.139,0,0,0,1.96,24.925l-.463.084Z" transform="translate(-5794.254 3602.707)"></path></g></g><g transform="translate(5361.739 -3917.891)"><g transform="translate(0.471 0.471)"><path class="k" d="M6243.453-3030.441H6076.682a3.291,3.291,0,0,1-2.335-.967,3.294,3.294,0,0,1-.968-2.336V-3043.9a3.292,3.292,0,0,1,.968-2.335,3.291,3.291,0,0,1,2.335-.968h166.771a3.3,3.3,0,0,1,2.336.968,3.292,3.292,0,0,1,.967,2.335v10.156a3.293,3.293,0,0,1-.967,2.336A3.294,3.294,0,0,1,6243.453-3030.441Z" transform="translate(-6073.379 3047.203)"></path></g><g transform="translate(0)"><path class="b" d="M6241.924-3031.5H6075.152a3.763,3.763,0,0,1-2.667-1.107,3.762,3.762,0,0,1-1.106-2.667v-10.156a3.762,3.762,0,0,1,1.107-2.667,3.761,3.761,0,0,1,2.667-1.107h166.771a3.761,3.761,0,0,1,2.667,1.107,3.761,3.761,0,0,1,1.107,2.667v10.156a3.761,3.761,0,0,1-1.107,2.667A3.76,3.76,0,0,1,6241.924-3031.5Zm-166.771-16.762a2.824,2.824,0,0,0-2,.831,2.824,2.824,0,0,0-.831,2v10.156a2.821,2.821,0,0,0,.831,2,2.822,2.822,0,0,0,2,.831h166.771a2.822,2.822,0,0,0,2-.831,2.824,2.824,0,0,0,.831-2v-10.156a2.825,2.825,0,0,0-.831-2,2.823,2.823,0,0,0-2-.831H6075.153Z" transform="translate(-6071.379 3049.203)"></path></g></g><g transform="translate(5143.388 -3917.891)"><g transform="translate(0.47 0.471)"><path class="o" d="M5369.609-3030.441H5148.69a3.294,3.294,0,0,1-2.336-.967,3.294,3.294,0,0,1-.967-2.336V-3043.9a3.294,3.294,0,0,1,.967-2.336,3.294,3.294,0,0,1,2.336-.967h220.918a3.291,3.291,0,0,1,2.335.968,3.293,3.293,0,0,1,.968,2.335v10.156a3.294,3.294,0,0,1-.968,2.336A3.292,3.292,0,0,1,5369.609-3030.441Z" transform="translate(-5145.387 3047.203)"></path></g><g transform="translate(0)"><path class="b" d="M5368.08-3031.5H5147.162a3.763,3.763,0,0,1-2.667-1.106,3.762,3.762,0,0,1-1.106-2.667v-10.156a3.763,3.763,0,0,1,1.106-2.667,3.764,3.764,0,0,1,2.667-1.106H5368.08a3.761,3.761,0,0,1,2.667,1.107,3.76,3.76,0,0,1,1.106,2.667v10.156a3.761,3.761,0,0,1-1.106,2.667A3.761,3.761,0,0,1,5368.08-3031.5Zm-220.918-16.762a2.825,2.825,0,0,0-2,.83,2.825,2.825,0,0,0-.831,2v10.156a2.824,2.824,0,0,0,.831,2,2.824,2.824,0,0,0,2,.831H5368.08a2.823,2.823,0,0,0,2-.831,2.823,2.823,0,0,0,.831-2v-10.156a2.824,2.824,0,0,0-.831-2,2.823,2.823,0,0,0-2-.831H5147.162Z" transform="translate(-5143.388 3049.203)"></path></g></g><g transform="translate(5421.6 -4069.732)"><g transform="translate(1.333 0.471)"><path class="h" d="M6455.513-3682.213v13.548a10.043,10.043,0,0,1-3.173,7.294,11.08,11.08,0,0,1-7.661,3.021h-89.494a11.081,11.081,0,0,1-7.661-3.021,10.043,10.043,0,0,1-3.173-7.294v-1.586l-6.449-2.5-6.449-2.5,6.449-2.361,6.449-2.361v-2.231a10.039,10.039,0,0,1,3.173-7.293,11.081,11.081,0,0,1,7.661-3.02h89.494a11.08,11.08,0,0,1,7.661,3.02A10.039,10.039,0,0,1,6455.513-3682.213Z" transform="translate(-6331.454 3692.526)"></path></g><g transform="translate(0 0)"><path class="b" d="M6440.346-3659.408h-89.494a11.547,11.547,0,0,1-7.99-3.163,10.511,10.511,0,0,1-3.314-7.623v-1.264l-6.88-2.672-6.88-2.672,6.88-2.519,6.88-2.52v-1.9a10.508,10.508,0,0,1,3.314-7.622,11.549,11.549,0,0,1,7.99-3.162h89.494a11.549,11.549,0,0,1,7.99,3.162,10.509,10.509,0,0,1,3.315,7.622v13.548a10.511,10.511,0,0,1-3.315,7.623A11.547,11.547,0,0,1,6440.346-3659.408Zm-111.892-17.368,6.018,2.337,6.018,2.337v1.908a9.574,9.574,0,0,0,3.039,6.958,10.611,10.611,0,0,0,7.325,2.887h89.494a10.611,10.611,0,0,0,7.325-2.887,9.574,9.574,0,0,0,3.039-6.958v-13.548a9.571,9.571,0,0,0-3.039-6.956,10.613,10.613,0,0,0-7.325-2.886h-89.494a10.613,10.613,0,0,0-7.325,2.886,9.571,9.571,0,0,0-3.039,6.956v2.56l-6.018,2.2Z" transform="translate(-6325.787 3694.526)"></path></g></g><g transform="translate(5417.516 -4069.732)"><g transform="translate(1.333 0.471)"><path class="h" d="M6438.156-3682.213v13.548a10.043,10.043,0,0,1-3.173,7.294,11.08,11.08,0,0,1-7.661,3.021h-89.494a11.079,11.079,0,0,1-7.661-3.021,10.042,10.042,0,0,1-3.173-7.294v-1.586l-6.449-2.5-6.449-2.5,6.449-2.361,6.449-2.361v-2.231a10.038,10.038,0,0,1,3.173-7.293,11.079,11.079,0,0,1,7.661-3.02h89.494a11.08,11.08,0,0,1,7.661,3.02A10.039,10.039,0,0,1,6438.156-3682.213Z" transform="translate(-6314.097 3692.526)"></path></g><g transform="translate(0 0)"><path class="b" d="M6422.99-3659.408H6333.5a11.548,11.548,0,0,1-7.99-3.163,10.511,10.511,0,0,1-3.315-7.623v-1.264l-6.88-2.672-6.88-2.672,6.88-2.519,6.88-2.52v-1.9a10.509,10.509,0,0,1,3.315-7.622,11.551,11.551,0,0,1,7.99-3.162h89.494a11.549,11.549,0,0,1,7.99,3.162,10.509,10.509,0,0,1,3.315,7.622v13.548a10.511,10.511,0,0,1-3.315,7.623A11.547,11.547,0,0,1,6422.99-3659.408ZM6311.1-3676.776l6.018,2.337,6.018,2.337v1.908a9.573,9.573,0,0,0,3.039,6.958,10.607,10.607,0,0,0,7.324,2.887h89.494a10.61,10.61,0,0,0,7.325-2.887,9.574,9.574,0,0,0,3.039-6.958v-13.548a9.571,9.571,0,0,0-3.039-6.956,10.613,10.613,0,0,0-7.325-2.886H6333.5a10.61,10.61,0,0,0-7.324,2.886,9.57,9.57,0,0,0-3.039,6.956v2.56l-6.018,2.2Z" transform="translate(-6308.432 3694.526)"></path></g></g><g transform="translate(5445.386 -4060.037)"><g transform="translate(0.471 0.471)"><path class="c" d="M6436.035-3651.323l1.106,2.24,1.105,2.24,2.472.359,2.473.359-1.789,1.744-1.789,1.744.422,2.462.422,2.462-2.211-1.162-2.211-1.163-2.211,1.163-2.211,1.162.422-2.462.422-2.462-1.789-1.744-1.789-1.744,2.472-.359,2.473-.359,1.105-2.24Z" transform="translate(-6428.88 3651.323)"></path></g><g transform="translate(0 0)"><path class="b" d="M6438.928-3638.771a.48.48,0,0,1-.112-.013.472.472,0,0,1-.107-.041l-2.1-1.1-2.1-1.1-2.1,1.1-2.1,1.1a.469.469,0,0,1-.252.053.475.475,0,0,1-.243-.089.473.473,0,0,1-.159-.2.472.472,0,0,1-.028-.257l.4-2.341.4-2.34-1.7-1.657-1.7-1.657a.47.47,0,0,1-.128-.224.465.465,0,0,1,.009-.258.468.468,0,0,1,.144-.215.47.47,0,0,1,.235-.106l2.35-.342,2.35-.341,1.051-2.129,1.051-2.129a.47.47,0,0,1,.174-.192.469.469,0,0,1,.248-.071.469.469,0,0,1,.249.071.467.467,0,0,1,.174.192l1.051,2.129,1.051,2.129,2.35.341,2.35.342a.469.469,0,0,1,.236.106.468.468,0,0,1,.144.215.465.465,0,0,1,.009.258.467.467,0,0,1-.128.224l-1.7,1.657-1.7,1.657.4,2.34.4,2.341a.467.467,0,0,1-.028.257.469.469,0,0,1-.159.2.477.477,0,0,1-.132.067A.467.467,0,0,1,6438.928-3638.771Zm-4.423-3.266a.459.459,0,0,1,.112.014.459.459,0,0,1,.107.041l1.789.941,1.79.941-.342-1.993-.342-1.992a.467.467,0,0,1,.017-.225.47.47,0,0,1,.119-.191l1.448-1.411,1.447-1.411-2-.291-2-.291a.473.473,0,0,1-.209-.085.479.479,0,0,1-.146-.173l-.895-1.813-.895-1.812-.895,1.813-.895,1.813a.469.469,0,0,1-.146.173.468.468,0,0,1-.208.085l-2,.291-2,.291,1.448,1.411,1.448,1.411a.47.47,0,0,1,.119.191.467.467,0,0,1,.017.225l-.342,1.992-.342,1.993,1.79-.941,1.789-.941a.459.459,0,0,1,.107-.041A.458.458,0,0,1,6434.5-3642.037Z" transform="translate(-6426.878 3653.323)"></path></g></g><g transform="translate(5461.782 -4060.037)"><g transform="translate(0.471 0.471)"><path class="c" d="M6505.719-3651.323l1.105,2.24,1.105,2.24,2.473.359,2.472.359-1.789,1.744-1.789,1.744.422,2.462.422,2.462-2.211-1.162-2.211-1.163-2.211,1.163-2.211,1.162.423-2.462.422-2.462-1.789-1.744-1.789-1.744,2.472-.359,2.472-.359,1.106-2.24Z" transform="translate(-6498.563 3651.323)"></path></g><g transform="translate(0 0)"><path class="b" d="M6499.767-3638.771a.471.471,0,0,1-.145-.023.47.47,0,0,1-.132-.067.47.47,0,0,1-.159-.2.468.468,0,0,1-.028-.257l.4-2.341.4-2.34-1.7-1.657-1.7-1.657a.471.471,0,0,1-.128-.224.47.47,0,0,1,.009-.258.472.472,0,0,1,.144-.215.469.469,0,0,1,.236-.106l2.35-.342,2.35-.341,1.051-2.129,1.051-2.129a.47.47,0,0,1,.174-.192.471.471,0,0,1,.249-.071.472.472,0,0,1,.249.071.472.472,0,0,1,.173.192l1.051,2.129,1.051,2.129,2.35.341,2.35.342a.469.469,0,0,1,.236.106.468.468,0,0,1,.144.215.47.47,0,0,1,.01.258.475.475,0,0,1-.128.224l-1.7,1.657-1.7,1.657.4,2.34.4,2.341a.472.472,0,0,1-.028.257.47.47,0,0,1-.16.2.471.471,0,0,1-.242.089.47.47,0,0,1-.253-.053l-2.1-1.1-2.1-1.1-2.1,1.1-2.1,1.1a.459.459,0,0,1-.107.041A.486.486,0,0,1,6499.767-3638.771Zm4.422-3.266a.461.461,0,0,1,.112.014.459.459,0,0,1,.107.041l1.79.941,1.789.941-.342-1.993-.342-1.992a.473.473,0,0,1,.017-.225.475.475,0,0,1,.119-.191l1.448-1.411,1.448-1.411-2-.291-2-.291a.473.473,0,0,1-.209-.085.468.468,0,0,1-.145-.173l-.9-1.813-.895-1.812-.895,1.813-.895,1.813a.474.474,0,0,1-.146.173.473.473,0,0,1-.209.085l-2,.291-2,.291,1.448,1.411,1.447,1.411a.476.476,0,0,1,.119.191.473.473,0,0,1,.016.225l-.341,1.992-.342,1.993,1.789-.941,1.789-.941a.454.454,0,0,1,.107-.041A.452.452,0,0,1,6504.189-3642.037Z" transform="translate(-6496.563 3653.323)"></path></g></g><g transform="translate(5478.179 -4060.037)"><g transform="translate(0.471 0.471)"><path class="c" d="M6575.4-3651.323l1.106,2.24,1.105,2.24,2.472.359,2.472.359-1.789,1.744-1.789,1.744.422,2.462.422,2.462-2.211-1.162-2.211-1.163-2.211,1.163-2.211,1.162.422-2.462.422-2.462-1.789-1.744-1.789-1.744,2.473-.359,2.472-.359,1.105-2.24Z" transform="translate(-6568.247 3651.323)"></path></g><g transform="translate(0 0)"><path class="b" d="M6578.3-3638.771a.487.487,0,0,1-.112-.013.477.477,0,0,1-.107-.041l-2.1-1.1-2.1-1.1-2.1,1.1-2.1,1.1a.471.471,0,0,1-.253.053.472.472,0,0,1-.243-.089.47.47,0,0,1-.16-.2.472.472,0,0,1-.028-.257l.4-2.341.4-2.34-1.7-1.657-1.7-1.657a.467.467,0,0,1-.128-.224.465.465,0,0,1,.009-.258.472.472,0,0,1,.144-.215.47.47,0,0,1,.235-.106l2.35-.342,2.35-.341,1.051-2.129,1.051-2.129a.473.473,0,0,1,.174-.192.47.47,0,0,1,.248-.071h0a.474.474,0,0,1,.249.071.469.469,0,0,1,.173.192l1.051,2.129,1.051,2.129,2.35.341,2.35.342a.468.468,0,0,1,.235.106.468.468,0,0,1,.145.214.475.475,0,0,1,.009.258.471.471,0,0,1-.128.224l-1.7,1.657-1.7,1.657.4,2.34.4,2.341a.473.473,0,0,1-.028.257.47.47,0,0,1-.159.2.47.47,0,0,1-.132.067A.47.47,0,0,1,6578.3-3638.771Zm-10.567-8.554,1.448,1.411,1.448,1.411a.476.476,0,0,1,.119.191.473.473,0,0,1,.016.225l-.342,1.992-.342,1.993,1.79-.941,1.789-.941a.468.468,0,0,1,.219-.054.47.47,0,0,1,.219.054l1.789.941,1.79.941-.342-1.993-.342-1.992a.473.473,0,0,1,.016-.225.476.476,0,0,1,.119-.191l1.448-1.411,1.447-1.411-2-.291-2-.291a.473.473,0,0,1-.209-.085.473.473,0,0,1-.145-.173l-.9-1.813-.895-1.812-.895,1.813-.895,1.813a.474.474,0,0,1-.146.173.468.468,0,0,1-.209.085l-2,.291Z" transform="translate(-6566.247 3653.323)"></path></g></g><g transform="translate(5494.575 -4060.037)"><g transform="translate(0.471 0.471)"><path class="c" d="M6645.086-3651.323l1.105,2.24,1.106,2.24,2.472.359,2.473.359-1.789,1.744-1.789,1.744.422,2.462.422,2.462-2.211-1.162-2.211-1.163-2.211,1.163-2.211,1.162.422-2.462.422-2.462-1.789-1.744-1.789-1.744,2.472-.359,2.472-.359,1.105-2.24Z" transform="translate(-6637.931 3651.323)"></path></g><g transform="translate(0 0)"><path class="b" d="M6647.979-3638.771a.476.476,0,0,1-.111-.013.455.455,0,0,1-.107-.041l-2.1-1.1-2.1-1.1-2.1,1.1-2.1,1.1a.47.47,0,0,1-.253.053.474.474,0,0,1-.243-.089.473.473,0,0,1-.159-.2.467.467,0,0,1-.028-.257l.4-2.341.4-2.34-1.7-1.657-1.7-1.657a.471.471,0,0,1-.128-.224.47.47,0,0,1,.009-.258.472.472,0,0,1,.144-.215.471.471,0,0,1,.236-.106l2.35-.342,2.35-.341,1.051-2.129,1.051-2.129a.469.469,0,0,1,.173-.192.472.472,0,0,1,.249-.071h0a.472.472,0,0,1,.249.071.473.473,0,0,1,.174.192l1.051,2.129,1.05,2.129,2.35.341,2.35.342a.47.47,0,0,1,.235.106.468.468,0,0,1,.144.215.47.47,0,0,1,.01.258.471.471,0,0,1-.129.224l-1.7,1.657-1.7,1.657.4,2.34.4,2.341a.472.472,0,0,1-.028.257.473.473,0,0,1-.159.2.473.473,0,0,1-.133.067A.465.465,0,0,1,6647.979-3638.771Zm-4.422-3.266a.455.455,0,0,1,.112.014.462.462,0,0,1,.107.041l1.789.941,1.789.941-.342-1.993-.342-1.992a.473.473,0,0,1,.017-.225.475.475,0,0,1,.119-.191l1.448-1.411,1.448-1.411-2-.291-2-.291a.471.471,0,0,1-.208-.085.475.475,0,0,1-.146-.173l-.894-1.813-.895-1.812-.9,1.813-.895,1.813a.469.469,0,0,1-.146.173.468.468,0,0,1-.208.085l-2,.291-2,.291,1.448,1.411,1.447,1.411a.471.471,0,0,1,.119.191.473.473,0,0,1,.017.225l-.342,1.992-.342,1.993,1.79-.941,1.789-.941a.462.462,0,0,1,.107-.041A.455.455,0,0,1,6643.557-3642.037Z" transform="translate(-6635.931 3653.323)"></path></g></g><g transform="translate(5510.971 -4060.037)"><g transform="translate(0.471 0.471)"><path class="c" d="M6714.771-3651.323l1.105,2.24,1.106,2.24,2.472.359,2.472.359-1.789,1.744-1.789,1.744.422,2.462.423,2.462-2.211-1.162-2.211-1.163-2.211,1.163-2.211,1.162.422-2.462.422-2.462-1.789-1.744-1.789-1.744,2.472-.359,2.473-.359,1.105-2.24Z" transform="translate(-6707.615 3651.323)"></path></g><g transform="translate(0 0)"><path class="b" d="M6717.663-3638.771a.479.479,0,0,1-.111-.013.463.463,0,0,1-.107-.041l-2.1-1.1-2.1-1.1-2.1,1.1-2.1,1.1a.47.47,0,0,1-.253.053.475.475,0,0,1-.243-.089.473.473,0,0,1-.159-.2.467.467,0,0,1-.028-.257l.4-2.341.4-2.34-1.7-1.657-1.7-1.657a.471.471,0,0,1-.128-.224.47.47,0,0,1,.009-.258.473.473,0,0,1,.145-.215.47.47,0,0,1,.235-.106l2.35-.342,2.35-.341,1.051-2.129,1.051-2.129a.469.469,0,0,1,.173-.192.472.472,0,0,1,.249-.071.471.471,0,0,1,.249.071.469.469,0,0,1,.173.192l1.051,2.129,1.051,2.129,2.35.341,2.35.342a.471.471,0,0,1,.236.106.476.476,0,0,1,.144.215.47.47,0,0,1,.009.258.467.467,0,0,1-.128.224l-1.7,1.657-1.7,1.657.4,2.34.4,2.341a.467.467,0,0,1-.028.257.466.466,0,0,1-.159.2.477.477,0,0,1-.132.067A.471.471,0,0,1,6717.663-3638.771Zm-4.422-3.266a.455.455,0,0,1,.112.014.454.454,0,0,1,.107.041l1.789.941,1.789.941-.342-1.993-.341-1.992a.473.473,0,0,1,.016-.225.471.471,0,0,1,.119-.191l1.447-1.411,1.448-1.411-2-.291-2-.291a.468.468,0,0,1-.209-.085.469.469,0,0,1-.146-.173l-.895-1.813-.9-1.812-.895,1.813-.895,1.813a.473.473,0,0,1-.145.173.477.477,0,0,1-.209.085l-2,.291-2,.291,1.448,1.411,1.447,1.411a.466.466,0,0,1,.119.191.473.473,0,0,1,.017.225l-.342,1.992-.342,1.993,1.789-.941,1.79-.941a.451.451,0,0,1,.107-.041A.455.455,0,0,1,6713.241-3642.037Z" transform="translate(-6705.614 3653.323)"></path></g></g><g transform="translate(5391.949 -4185.18)"><g transform="translate(0.471 0.471)"><path class="c" d="M6281.509-4177.465v39.546a5.7,5.7,0,0,1-1.674,4.042,5.7,5.7,0,0,1-4.041,1.674h-51.3l-8.506,8.5-8.505,8.5V-4132.2h0a5.7,5.7,0,0,1-4.041-1.674,5.7,5.7,0,0,1-1.674-4.042v-39.546a5.7,5.7,0,0,1,1.674-4.041,5.7,5.7,0,0,1,4.041-1.674h68.309a5.7,5.7,0,0,1,4.041,1.674A5.7,5.7,0,0,1,6281.509-4177.465Z" transform="translate(-6201.771 4183.18)"></path></g><g transform="translate(0 0)"><path class="d" d="M6205.957-4116.253a.473.473,0,0,1-.091-.009.5.5,0,0,1-.089-.027.469.469,0,0,1-.211-.173.468.468,0,0,1-.079-.261v-16.557a6.173,6.173,0,0,1-4.055-1.954,6.165,6.165,0,0,1-1.661-4.214v-39.546a6.166,6.166,0,0,1,1.814-4.372,6.165,6.165,0,0,1,4.372-1.814h68.309a6.167,6.167,0,0,1,4.372,1.814,6.168,6.168,0,0,1,1.813,4.372v39.546a6.168,6.168,0,0,1-1.813,4.372,6.167,6.167,0,0,1-4.372,1.814h-51.1l-8.437,8.436-8.437,8.436a.47.47,0,0,1-.155.1A.475.475,0,0,1,6205.957-4116.253Zm0-67.986a5.227,5.227,0,0,0-3.707,1.538,5.228,5.228,0,0,0-1.538,3.707v39.546a5.228,5.228,0,0,0,1.538,3.707,5.229,5.229,0,0,0,3.707,1.538.469.469,0,0,1,.333.138.469.469,0,0,1,.138.333v15.873l8.1-8.1,8.1-8.1a.47.47,0,0,1,.153-.1.48.48,0,0,1,.18-.036h51.3a5.23,5.23,0,0,0,3.707-1.538,5.228,5.228,0,0,0,1.538-3.707v-39.546a5.228,5.228,0,0,0-1.538-3.707,5.228,5.228,0,0,0-3.707-1.538h-68.309Z" transform="translate(-6199.771 4185.18)"></path></g></g><g transform="translate(5404.738 -4166.223)"><g transform="translate(0.471 0.471)"><path class="g" d="M6270.462-4095.441a7.149,7.149,0,0,1-2.1,5.069,7.147,7.147,0,0,1-5.069,2.1,7.147,7.147,0,0,1-5.069-2.1,7.147,7.147,0,0,1-2.1-5.069,7.146,7.146,0,0,1,2.1-5.069,7.147,7.147,0,0,1,5.069-2.1,7.147,7.147,0,0,1,5.069,2.1A7.148,7.148,0,0,1,6270.462-4095.441Z" transform="translate(-6256.124 4102.61)"></path></g><g transform="translate(0 0)"><path class="b" d="M6261.764-4089.331a7.615,7.615,0,0,1-5.4-2.24,7.615,7.615,0,0,1-2.24-5.4,7.615,7.615,0,0,1,2.24-5.4,7.615,7.615,0,0,1,5.4-2.24,7.617,7.617,0,0,1,5.4,2.24,7.62,7.62,0,0,1,2.24,5.4,7.619,7.619,0,0,1-2.24,5.4A7.617,7.617,0,0,1,6261.764-4089.331Zm0-14.338a6.678,6.678,0,0,0-4.734,1.964,6.677,6.677,0,0,0-1.964,4.734,6.676,6.676,0,0,0,1.964,4.734,6.677,6.677,0,0,0,4.734,1.964,6.676,6.676,0,0,0,4.734-1.964,6.677,6.677,0,0,0,1.964-4.734,6.677,6.677,0,0,0-1.964-4.734A6.677,6.677,0,0,0,6261.764-4103.668Z" transform="translate(-6254.124 4104.61)"></path></g></g><g transform="translate(5422.462 -4166.223)"><g transform="translate(0.471 0.471)"><path class="g" d="M6345.792-4095.441a7.149,7.149,0,0,1-2.1,5.069,7.148,7.148,0,0,1-5.069,2.1,7.146,7.146,0,0,1-5.069-2.1,7.147,7.147,0,0,1-2.1-5.069,7.146,7.146,0,0,1,2.1-5.069,7.146,7.146,0,0,1,5.069-2.1,7.148,7.148,0,0,1,5.069,2.1A7.148,7.148,0,0,1,6345.792-4095.441Z" transform="translate(-6331.454 4102.61)"></path></g><g transform="translate(0 0)"><path class="b" d="M6337.093-4089.331a7.614,7.614,0,0,1-5.4-2.24,7.617,7.617,0,0,1-2.24-5.4,7.618,7.618,0,0,1,2.24-5.4,7.614,7.614,0,0,1,5.4-2.24,7.616,7.616,0,0,1,5.4,2.24,7.618,7.618,0,0,1,2.24,5.4,7.617,7.617,0,0,1-2.24,5.4A7.616,7.616,0,0,1,6337.093-4089.331Zm0-14.338a6.678,6.678,0,0,0-4.734,1.964,6.677,6.677,0,0,0-1.964,4.734,6.677,6.677,0,0,0,1.964,4.734,6.677,6.677,0,0,0,4.734,1.964,6.675,6.675,0,0,0,4.734-1.964,6.677,6.677,0,0,0,1.964-4.734,6.677,6.677,0,0,0-1.964-4.734A6.676,6.676,0,0,0,6337.093-4103.668Z" transform="translate(-6329.453 4104.61)"></path></g></g><g transform="translate(5439.853 -4166.223)"><g transform="translate(0.471 0.471)"><path class="g" d="M6419.7-4095.441a7.147,7.147,0,0,1-2.1,5.069,7.146,7.146,0,0,1-5.069,2.1,7.145,7.145,0,0,1-5.069-2.1,7.145,7.145,0,0,1-2.1-5.069,7.144,7.144,0,0,1,2.1-5.069,7.145,7.145,0,0,1,5.069-2.1,7.146,7.146,0,0,1,5.069,2.1A7.146,7.146,0,0,1,6419.7-4095.441Z" transform="translate(-6405.363 4102.61)"></path></g><g transform="translate(0 0)"><path class="b" d="M6411-4089.331a7.616,7.616,0,0,1-5.4-2.24,7.617,7.617,0,0,1-2.24-5.4,7.618,7.618,0,0,1,2.24-5.4,7.616,7.616,0,0,1,5.4-2.24,7.615,7.615,0,0,1,5.4,2.24,7.615,7.615,0,0,1,2.24,5.4,7.615,7.615,0,0,1-2.24,5.4A7.615,7.615,0,0,1,6411-4089.331Zm0-14.338a6.679,6.679,0,0,0-4.734,1.964,6.677,6.677,0,0,0-1.964,4.734,6.677,6.677,0,0,0,1.964,4.734,6.679,6.679,0,0,0,4.734,1.964,6.678,6.678,0,0,0,4.735-1.964,6.678,6.678,0,0,0,1.964-4.734,6.679,6.679,0,0,0-1.964-4.734A6.679,6.679,0,0,0,6411-4103.668Z" transform="translate(-6403.362 4104.61)"></path></g></g><g transform="translate(5166.09 -4159.055)"><g transform="translate(0.471 0.471)"><path class="p" d="M5342.274-3965.482l-2.806,2.806-2.806,2.806v1.258a12.382,12.382,0,0,1-3.638,8.783,12.382,12.382,0,0,1-8.784,3.638h-69.949a12.381,12.381,0,0,1-8.783-3.638,12.383,12.383,0,0,1-3.639-8.783v-101.112a12.383,12.383,0,0,1,3.639-8.784,12.382,12.382,0,0,1,8.783-3.638h69.949a12.383,12.383,0,0,1,8.784,3.638,12.383,12.383,0,0,1,3.638,8.784v88.63l2.806,2.806Z" transform="translate(-5241.869 4072.146)"></path></g><g transform="translate(0 0)"><path class="b" d="M5322.71-3947.249h-69.949a12.854,12.854,0,0,1-9.112-3.781,12.853,12.853,0,0,1-3.78-9.112v-101.112a12.852,12.852,0,0,1,3.78-9.112,12.853,12.853,0,0,1,9.112-3.78h69.949a12.854,12.854,0,0,1,9.113,3.78,12.854,12.854,0,0,1,3.78,9.112v88.435l2.9,2.9,2.9,2.9-2.9,2.9-2.9,2.9v1.063a12.854,12.854,0,0,1-3.78,9.112A12.855,12.855,0,0,1,5322.71-3947.249ZM5252.762-4073.2a11.914,11.914,0,0,0-8.447,3.5,11.913,11.913,0,0,0-3.5,8.447v101.112a11.914,11.914,0,0,0,3.5,8.447,11.915,11.915,0,0,0,8.447,3.5h69.949a11.915,11.915,0,0,0,8.447-3.5,11.914,11.914,0,0,0,3.5-8.447v-1.453l2.708-2.708,2.708-2.708-2.708-2.708-2.708-2.708v-88.825a11.913,11.913,0,0,0-3.5-8.447,11.913,11.913,0,0,0-8.447-3.5h-69.949Z" transform="translate(-5239.869 4074.146)"></path></g></g><g transform="translate(5177.809 -4130.751)"><g transform="translate(0.471 0.471)"><path class="c" d="M5291.674-3942.543a9.288,9.288,0,0,0,2.729,6.588,9.285,9.285,0,0,0,6.587,2.729,9.287,9.287,0,0,0,6.587-2.729,9.288,9.288,0,0,0,2.729-6.588,9.287,9.287,0,0,0-2.729-6.587,9.287,9.287,0,0,0-6.587-2.729,9.285,9.285,0,0,0-6.587,2.729A9.287,9.287,0,0,0,5291.674-3942.543Z" transform="translate(-5291.674 3951.859)"></path></g><g transform="translate(0 0)"><path class="d" d="M5299.461-3934.286a9.755,9.755,0,0,1-6.917-2.87,9.756,9.756,0,0,1-2.87-6.917,9.756,9.756,0,0,1,2.87-6.917,9.755,9.755,0,0,1,6.917-2.87,9.754,9.754,0,0,1,6.917,2.87,9.754,9.754,0,0,1,2.87,6.917,9.754,9.754,0,0,1-2.87,6.917A9.754,9.754,0,0,1,5299.461-3934.286Zm0-18.632a8.819,8.819,0,0,0-6.252,2.594,8.818,8.818,0,0,0-2.593,6.252,8.818,8.818,0,0,0,2.593,6.252,8.819,8.819,0,0,0,6.252,2.594,8.818,8.818,0,0,0,6.251-2.594,8.819,8.819,0,0,0,2.594-6.252,8.819,8.819,0,0,0-2.594-6.252A8.818,8.818,0,0,0,5299.461-3952.918Z" transform="translate(-5289.674 3953.859)"></path></g></g><g transform="translate(5233.125 -4100.958)"><g transform="translate(0.471 0.471)"><path class="h" d="M5526.769-3815.919a9.288,9.288,0,0,0,2.728,6.588,9.288,9.288,0,0,0,6.587,2.729,9.287,9.287,0,0,0,6.588-2.729,9.287,9.287,0,0,0,2.729-6.588,9.286,9.286,0,0,0-2.729-6.587,9.286,9.286,0,0,0-6.588-2.729,9.287,9.287,0,0,0-6.587,2.729A9.287,9.287,0,0,0,5526.769-3815.919Z" transform="translate(-5526.769 3825.235)"></path></g><g transform="translate(0 0)"><path class="b" d="M5534.555-3807.661a9.756,9.756,0,0,1-6.917-2.87,9.755,9.755,0,0,1-2.87-6.917,9.754,9.754,0,0,1,2.87-6.917,9.756,9.756,0,0,1,6.917-2.87,9.757,9.757,0,0,1,6.917,2.87,9.756,9.756,0,0,1,2.87,6.917,9.757,9.757,0,0,1-2.87,6.917A9.757,9.757,0,0,1,5534.555-3807.661Zm0-18.633a8.819,8.819,0,0,0-6.252,2.594,8.82,8.82,0,0,0-2.594,6.252,8.819,8.819,0,0,0,2.594,6.252,8.818,8.818,0,0,0,6.252,2.594,8.818,8.818,0,0,0,6.252-2.594,8.819,8.819,0,0,0,2.594-6.252,8.82,8.82,0,0,0-2.594-6.252A8.819,8.819,0,0,0,5534.555-3826.294Z" transform="translate(-5524.768 3827.235)"></path></g></g><g transform="translate(5176.774 -4072.724)"><g transform="translate(0.471 0.471)"><path class="c" d="M5287.28-3695.925a9.287,9.287,0,0,0,2.729,6.588,9.286,9.286,0,0,0,6.587,2.729,9.286,9.286,0,0,0,6.587-2.729,9.286,9.286,0,0,0,2.729-6.588,9.286,9.286,0,0,0-2.729-6.587,9.285,9.285,0,0,0-6.587-2.729,9.285,9.285,0,0,0-6.587,2.729A9.286,9.286,0,0,0,5287.28-3695.925Z" transform="translate(-5287.28 3705.241)"></path></g><g transform="translate(0 0)"><path class="d" d="M5295.066-3687.667a9.755,9.755,0,0,1-6.917-2.87,9.755,9.755,0,0,1-2.87-6.917,9.755,9.755,0,0,1,2.87-6.917,9.755,9.755,0,0,1,6.917-2.87,9.755,9.755,0,0,1,6.917,2.87,9.755,9.755,0,0,1,2.87,6.917,9.755,9.755,0,0,1-2.87,6.917A9.755,9.755,0,0,1,5295.066-3687.667Zm0-18.632a8.817,8.817,0,0,0-6.251,2.594,8.817,8.817,0,0,0-2.594,6.252,8.817,8.817,0,0,0,2.594,6.252,8.817,8.817,0,0,0,6.251,2.594,8.817,8.817,0,0,0,6.252-2.594,8.817,8.817,0,0,0,2.594-6.252,8.816,8.816,0,0,0-2.594-6.252A8.817,8.817,0,0,0,5295.066-3706.3Z" transform="translate(-5285.28 3707.241)"></path></g></g><g transform="translate(5180.341 -4096.819)"><g transform="translate(0.471 0.471)"><path class="l" d="M5349.935-3804.3H5304.11a1.668,1.668,0,0,1-1.183-.49,1.669,1.669,0,0,1-.49-1.182h0a1.668,1.668,0,0,1,.49-1.183,1.668,1.668,0,0,1,1.183-.49h45.824a1.666,1.666,0,0,1,1.182.49,1.666,1.666,0,0,1,.49,1.183h0a1.667,1.667,0,0,1-.49,1.182A1.667,1.667,0,0,1,5349.935-3804.3Z" transform="translate(-5302.438 3807.644)"></path></g><g transform="translate(0 0)"><path class="b" d="M5348.4-3805.359h-45.824a2.136,2.136,0,0,1-1.515-.628,2.136,2.136,0,0,1-.628-1.514,2.136,2.136,0,0,1,.628-1.515,2.136,2.136,0,0,1,1.515-.628H5348.4a2.135,2.135,0,0,1,1.514.628,2.136,2.136,0,0,1,.628,1.515,2.136,2.136,0,0,1-.628,1.514A2.135,2.135,0,0,1,5348.4-3805.359Zm-45.824-3.345a1.2,1.2,0,0,0-.85.353,1.2,1.2,0,0,0-.353.849,1.2,1.2,0,0,0,.353.849,1.2,1.2,0,0,0,.85.353H5348.4a1.2,1.2,0,0,0,.849-.353,1.2,1.2,0,0,0,.353-.849,1.2,1.2,0,0,0-.353-.849,1.2,1.2,0,0,0-.849-.353h-45.824Z" transform="translate(-5300.438 3809.645)"></path></g></g><g transform="translate(5180.341 -4090.187)"><g transform="translate(0.471 0.471)"><path class="q" d="M5349.935-3776.116H5304.11a1.668,1.668,0,0,1-1.183-.49,1.669,1.669,0,0,1-.49-1.183h0a1.668,1.668,0,0,1,.49-1.182,1.667,1.667,0,0,1,1.183-.49h45.824a1.666,1.666,0,0,1,1.182.49,1.666,1.666,0,0,1,.49,1.182h0a1.667,1.667,0,0,1-.49,1.183A1.666,1.666,0,0,1,5349.935-3776.116Z" transform="translate(-5302.438 3779.46)"></path></g><g transform="translate(0 0)"><path class="b" d="M5348.4-3777.174h-45.824a2.135,2.135,0,0,1-1.515-.628,2.135,2.135,0,0,1-.628-1.514,2.136,2.136,0,0,1,.628-1.514,2.136,2.136,0,0,1,1.515-.628H5348.4a2.135,2.135,0,0,1,1.514.628,2.136,2.136,0,0,1,.628,1.514,2.135,2.135,0,0,1-.628,1.514A2.134,2.134,0,0,1,5348.4-3777.174Zm-45.824-3.344a1.2,1.2,0,0,0-.85.353,1.2,1.2,0,0,0-.353.849,1.2,1.2,0,0,0,.353.849,1.2,1.2,0,0,0,.85.352H5348.4a1.2,1.2,0,0,0,.849-.352,1.2,1.2,0,0,0,.353-.849,1.2,1.2,0,0,0-.353-.849,1.2,1.2,0,0,0-.849-.353h-45.824Z" transform="translate(-5300.438 3781.46)"></path></g></g><g transform="translate(5201.426 -4126.045)"><g transform="translate(0.471 0.471)"><path class="l" d="M5439.544-3928.513H5393.72a1.668,1.668,0,0,1-1.183-.49,1.667,1.667,0,0,1-.49-1.183h0a1.666,1.666,0,0,1,.49-1.182,1.667,1.667,0,0,1,1.183-.49h45.824a1.667,1.667,0,0,1,1.182.49,1.667,1.667,0,0,1,.49,1.182h0a1.667,1.667,0,0,1-.49,1.183A1.667,1.667,0,0,1,5439.544-3928.513Z" transform="translate(-5392.048 3931.857)"></path></g><g transform="translate(0 0)"><path class="b" d="M5438.015-3929.571h-45.824a2.136,2.136,0,0,1-1.514-.628,2.134,2.134,0,0,1-.629-1.515,2.133,2.133,0,0,1,.629-1.514,2.136,2.136,0,0,1,1.514-.628h45.824a2.137,2.137,0,0,1,1.515.628,2.135,2.135,0,0,1,.628,1.514,2.136,2.136,0,0,1-.628,1.515A2.137,2.137,0,0,1,5438.015-3929.571Zm-45.824-3.344a1.2,1.2,0,0,0-.849.353,1.2,1.2,0,0,0-.353.849,1.2,1.2,0,0,0,.353.849,1.2,1.2,0,0,0,.849.352h45.824a1.2,1.2,0,0,0,.85-.352,1.2,1.2,0,0,0,.353-.849,1.2,1.2,0,0,0-.353-.849,1.2,1.2,0,0,0-.85-.353h-45.824Z" transform="translate(-5390.048 3933.857)"></path></g></g><g transform="translate(5201.426 -4119.414)"><g transform="translate(0.471 0.471)"><path class="q" d="M5439.544-3900.328H5393.72a1.668,1.668,0,0,1-1.183-.49,1.667,1.667,0,0,1-.49-1.182h0a1.667,1.667,0,0,1,.49-1.183,1.667,1.667,0,0,1,1.183-.49h45.824a1.667,1.667,0,0,1,1.182.49,1.667,1.667,0,0,1,.49,1.183h0a1.667,1.667,0,0,1-.49,1.182A1.668,1.668,0,0,1,5439.544-3900.328Z" transform="translate(-5392.048 3903.672)"></path></g><g transform="translate(0 0)"><path class="b" d="M5438.015-3901.387h-45.824a2.137,2.137,0,0,1-1.514-.628,2.135,2.135,0,0,1-.629-1.515,2.134,2.134,0,0,1,.629-1.515,2.136,2.136,0,0,1,1.514-.628h45.824a2.137,2.137,0,0,1,1.515.628,2.136,2.136,0,0,1,.628,1.515,2.136,2.136,0,0,1-.628,1.515A2.138,2.138,0,0,1,5438.015-3901.387Zm-45.824-3.344a1.2,1.2,0,0,0-.849.352,1.2,1.2,0,0,0-.353.85,1.2,1.2,0,0,0,.353.849,1.2,1.2,0,0,0,.849.353h45.824a1.2,1.2,0,0,0,.85-.353,1.2,1.2,0,0,0,.353-.849,1.2,1.2,0,0,0-.353-.85,1.2,1.2,0,0,0-.85-.352h-45.824Z" transform="translate(-5390.048 3905.672)"></path></g></g><g transform="translate(5201.426 -4068.396)"><g transform="translate(0.471 0.471)"><path class="l" d="M5439.544-3683.5H5393.72a1.668,1.668,0,0,1-1.183-.49,1.666,1.666,0,0,1-.49-1.182h0a1.667,1.667,0,0,1,.49-1.183,1.668,1.668,0,0,1,1.183-.49h45.824a1.668,1.668,0,0,1,1.182.49,1.667,1.667,0,0,1,.49,1.183h0a1.667,1.667,0,0,1-.49,1.182A1.668,1.668,0,0,1,5439.544-3683.5Z" transform="translate(-5392.048 3686.846)"></path></g><g transform="translate(0)"><path class="b" d="M5438.015-3684.56h-45.824a2.136,2.136,0,0,1-1.514-.628,2.134,2.134,0,0,1-.629-1.514,2.135,2.135,0,0,1,.629-1.515,2.136,2.136,0,0,1,1.514-.628h45.824a2.137,2.137,0,0,1,1.515.628,2.136,2.136,0,0,1,.628,1.515,2.136,2.136,0,0,1-.628,1.514A2.137,2.137,0,0,1,5438.015-3684.56Zm-45.824-3.344a1.2,1.2,0,0,0-.849.352,1.2,1.2,0,0,0-.353.849,1.2,1.2,0,0,0,.353.849,1.2,1.2,0,0,0,.849.353h45.824a1.2,1.2,0,0,0,.85-.353,1.2,1.2,0,0,0,.353-.849,1.2,1.2,0,0,0-.353-.849,1.2,1.2,0,0,0-.85-.352h-45.824Z" transform="translate(-5390.048 3688.846)"></path></g></g><g transform="translate(5201.426 -4061.764)"><g transform="translate(0.471 0.471)"><path class="q" d="M5439.544-3655.318H5393.72a1.668,1.668,0,0,1-1.183-.49,1.667,1.667,0,0,1-.49-1.183h0a1.666,1.666,0,0,1,.49-1.182,1.668,1.668,0,0,1,1.183-.49h45.824a1.668,1.668,0,0,1,1.182.49,1.667,1.667,0,0,1,.49,1.182h0a1.667,1.667,0,0,1-.49,1.183A1.667,1.667,0,0,1,5439.544-3655.318Z" transform="translate(-5392.048 3658.662)"></path></g><g transform="translate(0 0)"><path class="b" d="M5438.015-3656.376h-45.824a2.136,2.136,0,0,1-1.514-.628,2.135,2.135,0,0,1-.629-1.515,2.133,2.133,0,0,1,.629-1.514,2.135,2.135,0,0,1,1.514-.628h45.824a2.136,2.136,0,0,1,1.515.628,2.135,2.135,0,0,1,.628,1.514,2.136,2.136,0,0,1-.628,1.515A2.137,2.137,0,0,1,5438.015-3656.376Zm-45.824-3.344a1.2,1.2,0,0,0-.849.352,1.2,1.2,0,0,0-.353.849,1.2,1.2,0,0,0,.353.849,1.2,1.2,0,0,0,.849.352h45.824a1.2,1.2,0,0,0,.85-.352,1.2,1.2,0,0,0,.353-.849,1.2,1.2,0,0,0-.353-.849,1.2,1.2,0,0,0-.85-.352h-45.824Z" transform="translate(-5390.048 3660.662)"></path></g></g><g transform="translate(5423.448 -3955.254)"><g transform="translate(0.471 0.471)"><path class="l" d="M6358.015-3169.224h-14.388a7.961,7.961,0,0,1-5.646-2.339,7.96,7.96,0,0,1-2.338-5.646V-3206H6366v28.786a7.959,7.959,0,0,1-2.339,5.646A7.959,7.959,0,0,1,6358.015-3169.224Z" transform="translate(-6335.642 3205.995)"></path></g><g transform="translate(0 0)"><path class="b" d="M6356.486-3170.283H6342.1a8.429,8.429,0,0,1-5.976-2.479,8.429,8.429,0,0,1-2.479-5.976V-3208h31.3v29.256a8.429,8.429,0,0,1-2.479,5.976A8.43,8.43,0,0,1,6356.486-3170.283Zm-21.9-36.771v28.315a7.491,7.491,0,0,0,2.2,5.311,7.492,7.492,0,0,0,5.311,2.2h14.388a7.491,7.491,0,0,0,5.311-2.2,7.493,7.493,0,0,0,2.2-5.311v-28.315h-29.417Z" transform="translate(-6333.642 3207.995)"></path></g></g><g transform="translate(5453.806 -3948.426)"><g transform="translate(0.47 0.471)"><path class="l" d="M6473-3176.975v18.9h-8.337v-4.277h4.168v-10.58h-4.168v-4.042H6473Z" transform="translate(-6464.664 3176.975)"></path></g><g transform="translate(0 0)"><path class="b" d="M6471.942-3159.134h-9.278v-5.218h4.168v-9.639h-4.168v-4.984h9.278v19.841Zm-8.337-.941h7.4v-17.959h-7.4v3.1h4.168v11.521H6463.6v3.336Z" transform="translate(-6462.664 3178.975)"></path></g></g><g transform="translate(5423.718 -3956.954)"><g transform="translate(0.471 0.471)"><path class="l" d="M6366.608-3210.816c0,.663-1.669,1.264-4.367,1.7a69.886,69.886,0,0,1-10.542.7,69.876,69.876,0,0,1-10.542-.7c-2.7-.435-4.367-1.035-4.367-1.7s1.669-1.264,4.367-1.7a69.876,69.876,0,0,1,10.542-.7,69.886,69.886,0,0,1,10.542.7C6364.939-3212.08,6366.608-3211.479,6366.608-3210.816Z" transform="translate(-6336.79 3213.218)"></path></g><g transform="translate(0 0)"><path class="b" d="M6350.169-3209.473c-.314,0-4.159-.008-7.925-.371s-7.454-1.081-7.454-2.5,3.688-2.138,7.454-2.5,7.611-.371,7.925-.371,4.159.008,7.925.371,7.454,1.081,7.454,2.5-3.687,2.138-7.454,2.5S6350.483-3209.473,6350.169-3209.473Zm-14.433-2.873c.168.351,1.512.834,3.946,1.229a67.555,67.555,0,0,0,10.487.7,67.557,67.557,0,0,0,10.487-.7c2.434-.4,3.777-.878,3.946-1.229-.169-.352-1.512-.834-3.946-1.229a67.545,67.545,0,0,0-10.487-.7,67.543,67.543,0,0,0-10.486.7C6337.249-3213.18,6335.905-3212.7,6335.737-3212.345Z" transform="translate(-6334.79 3215.218)"></path></g></g></g></svg>