<svg xmlns="http://www.w3.org/2000/svg" xmlns:xlink="http://www.w3.org/1999/xlink" width="1191" height="169" viewBox="0 0 1191 169"><defs><style>.a{fill:#0062ff;}.b{fill:#fff;}.c{clip-path:url(#a);}.d{fill:#ff4451;}.e{fill:#24313e;}.f{fill:#3ab2d0;}.g{fill:#ff603d;}.h{fill:#455666;}.i{fill:#d9dee5;}.j{fill:#ebf0f5;}.k{fill:#6b7e8f;}.l{fill:#fa6285;}.m{fill:#0c7ff2;}.n{fill:#28c397;}.o{fill:#5c6ac3;}</style><clipPath id="a"><rect class="a" width="1191" height="169" rx="17" transform="translate(366 141)"></rect></clipPath></defs><g transform="translate(-366 -141)"><rect class="a" width="1191" height="169" rx="17" transform="translate(366 141)"></rect><path class="b" d="M3.08,0a.626.626,0,0,1-.462-.182.626.626,0,0,1-.182-.462V-18.928a.662.662,0,0,1,.182-.49A.626.626,0,0,1,3.08-19.6H14.5a.662.662,0,0,1,.49.182.662.662,0,0,1,.182.49v1.12a.626.626,0,0,1-.182.462.662.662,0,0,1-.49.182H5.152v6.524h8.792a.662.662,0,0,1,.49.182.662.662,0,0,1,.182.49v1.12a.6.6,0,0,1-.2.462.674.674,0,0,1-.476.182H5.152v7.56a.6.6,0,0,1-.2.462A.674.674,0,0,1,4.48,0Zm15.6,0a.626.626,0,0,1-.462-.182.626.626,0,0,1-.182-.462V-13.888a.674.674,0,0,1,.182-.476.6.6,0,0,1,.462-.2h1.288a.648.648,0,0,1,.476.2.648.648,0,0,1,.2.476v1.232a4.206,4.206,0,0,1,3.92-1.9h1.092a.626.626,0,0,1,.462.182.626.626,0,0,1,.182.462v1.148a.58.58,0,0,1-.182.448.655.655,0,0,1-.462.168h-1.68a3.187,3.187,0,0,0-2.38.882,3.265,3.265,0,0,0-.868,2.394V-.644a.6.6,0,0,1-.2.462A.674.674,0,0,1,20.048,0Zm15.68.28a6.365,6.365,0,0,1-4.774-1.736,6.726,6.726,0,0,1-1.806-4.62l-.028-1.2.028-1.2A6.711,6.711,0,0,1,29.6-13.09a6.345,6.345,0,0,1,4.76-1.75,6.345,6.345,0,0,1,4.76,1.75,6.711,6.711,0,0,1,1.82,4.606q.028.308.028,1.2t-.028,1.2a6.726,6.726,0,0,1-1.806,4.62A6.365,6.365,0,0,1,34.356.28Zm0-2.156A3.584,3.584,0,0,0,37.142-3a4.921,4.921,0,0,0,1.106-3.22q.028-.28.028-1.064t-.028-1.064a4.921,4.921,0,0,0-1.106-3.22,3.584,3.584,0,0,0-2.786-1.12,3.628,3.628,0,0,0-2.8,1.12,4.771,4.771,0,0,0-1.092,3.22L30.436-7.28l.028,1.064A4.771,4.771,0,0,0,31.556-3,3.628,3.628,0,0,0,34.356-1.876ZM45.108,0a.626.626,0,0,1-.462-.182.626.626,0,0,1-.182-.462V-13.916a.626.626,0,0,1,.182-.462.626.626,0,0,1,.462-.182h1.26a.626.626,0,0,1,.462.182.626.626,0,0,1,.182.462v.98a4.821,4.821,0,0,1,4.06-1.9,4.521,4.521,0,0,1,4.4,2.576,4.97,4.97,0,0,1,1.9-1.876,5.511,5.511,0,0,1,2.772-.7A4.889,4.889,0,0,1,63.9-13.272a6.431,6.431,0,0,1,1.456,4.536V-.644a.626.626,0,0,1-.182.462A.626.626,0,0,1,64.708,0H63.392a.626.626,0,0,1-.462-.182.626.626,0,0,1-.182-.462v-7.84a4.449,4.449,0,0,0-.91-3.136,3.16,3.16,0,0,0-2.394-.952,3.075,3.075,0,0,0-2.268.966,4.324,4.324,0,0,0-.952,3.122v7.84a.626.626,0,0,1-.182.462A.626.626,0,0,1,55.58,0H54.264A.626.626,0,0,1,53.8-.182a.626.626,0,0,1-.182-.462v-7.84a4.359,4.359,0,0,0-.938-3.136,3.183,3.183,0,0,0-2.366-.952,3.075,3.075,0,0,0-2.268.966A4.279,4.279,0,0,0,47.1-8.512V-.644a.626.626,0,0,1-.182.462A.626.626,0,0,1,46.452,0ZM80.276.28a5.85,5.85,0,0,1-2.548-.56,4.715,4.715,0,0,1-1.862-1.526,3.616,3.616,0,0,1-.686-2.142,3.69,3.69,0,0,1,1.526-3.038,8.536,8.536,0,0,1,4.13-1.554l4.172-.588V-9.94q0-2.856-3.276-2.856a3.591,3.591,0,0,0-2.016.518A3.554,3.554,0,0,0,78.54-11.06a.832.832,0,0,1-.21.364.509.509,0,0,1-.35.112h-1.2a.593.593,0,0,1-.434-.182.593.593,0,0,1-.182-.434,2.974,2.974,0,0,1,.63-1.526,4.887,4.887,0,0,1,1.862-1.484,6.906,6.906,0,0,1,3.108-.63q3.136,0,4.508,1.47A5.15,5.15,0,0,1,87.64-9.716V-.644a.626.626,0,0,1-.182.462A.626.626,0,0,1,87,0H85.708a.626.626,0,0,1-.462-.182.626.626,0,0,1-.182-.462v-1.2A4.838,4.838,0,0,1,83.272-.336,6.43,6.43,0,0,1,80.276.28Zm.588-2.1a3.987,3.987,0,0,0,2.982-1.19,4.711,4.711,0,0,0,1.162-3.43v-.784l-3.248.476a7.5,7.5,0,0,0-3,.938,1.942,1.942,0,0,0-1.008,1.666,1.935,1.935,0,0,0,.924,1.722A3.911,3.911,0,0,0,80.864-1.82ZM105.952.28a7.562,7.562,0,0,1-5.7-2.016,8.177,8.177,0,0,1-2.086-5.572q-.028-.756-.028-2.464,0-1.736.028-2.52a8.157,8.157,0,0,1,2.1-5.558,7.54,7.54,0,0,1,5.684-2.03A9.254,9.254,0,0,1,110.18-19a6.469,6.469,0,0,1,2.632,2.31,6.271,6.271,0,0,1,.98,3.052v.056a.477.477,0,0,1-.182.378.613.613,0,0,1-.406.154h-1.54q-.56,0-.7-.644a4.67,4.67,0,0,0-1.708-2.954,5.7,5.7,0,0,0-3.3-.854q-4.816,0-4.984,5.348-.028.756-.028,2.324t.028,2.38q.168,5.348,4.984,5.348a5.771,5.771,0,0,0,3.318-.854,4.541,4.541,0,0,0,1.694-2.954.909.909,0,0,1,.252-.5.677.677,0,0,1,.448-.14h1.54a.65.65,0,0,1,.434.154.437.437,0,0,1,.154.406,6.311,6.311,0,0,1-.98,3.08A6.469,6.469,0,0,1,110.18-.6,9.254,9.254,0,0,1,105.952.28Zm17.192,0a6.365,6.365,0,0,1-4.774-1.736,6.726,6.726,0,0,1-1.806-4.62l-.028-1.2.028-1.2a6.711,6.711,0,0,1,1.82-4.606,6.345,6.345,0,0,1,4.76-1.75,6.345,6.345,0,0,1,4.76,1.75,6.71,6.71,0,0,1,1.82,4.606q.028.308.028,1.2t-.028,1.2a6.726,6.726,0,0,1-1.806,4.62A6.365,6.365,0,0,1,123.144.28Zm0-2.156A3.584,3.584,0,0,0,125.93-3a4.921,4.921,0,0,0,1.106-3.22q.028-.28.028-1.064t-.028-1.064a4.921,4.921,0,0,0-1.106-3.22,3.584,3.584,0,0,0-2.786-1.12,3.628,3.628,0,0,0-2.8,1.12,4.771,4.771,0,0,0-1.092,3.22l-.028,1.064.028,1.064A4.771,4.771,0,0,0,120.344-3,3.628,3.628,0,0,0,123.144-1.876ZM138.292.28A7.661,7.661,0,0,1,135-.35a5.59,5.59,0,0,1-1.988-1.442,2.377,2.377,0,0,1-.658-1.344.507.507,0,0,1,.21-.434A.725.725,0,0,1,133-3.724h1.26a.642.642,0,0,1,.5.28,5.566,5.566,0,0,0,1.456,1.232,4.227,4.227,0,0,0,2.1.448,4.375,4.375,0,0,0,2.366-.574,1.782,1.782,0,0,0,.91-1.582,1.623,1.623,0,0,0-.378-1.106,3.04,3.04,0,0,0-1.288-.756,24.192,24.192,0,0,0-2.7-.714,7.076,7.076,0,0,1-3.458-1.54,3.5,3.5,0,0,1-1.022-2.6,3.659,3.659,0,0,1,.63-2.03,4.537,4.537,0,0,1,1.848-1.568,6.545,6.545,0,0,1,2.926-.6,7.178,7.178,0,0,1,3.052.588,5.1,5.1,0,0,1,1.89,1.386,2.366,2.366,0,0,1,.63,1.33.548.548,0,0,1-.182.42.618.618,0,0,1-.434.168h-1.176a.69.69,0,0,1-.56-.28,8.979,8.979,0,0,0-.77-.826,2.831,2.831,0,0,0-.924-.518,4.428,4.428,0,0,0-1.526-.224,3.279,3.279,0,0,0-2.072.574,1.818,1.818,0,0,0-.728,1.5,1.6,1.6,0,0,0,.308.994,2.686,2.686,0,0,0,1.19.742,18.852,18.852,0,0,0,2.562.7,7.861,7.861,0,0,1,3.766,1.61A3.527,3.527,0,0,1,144.284-4a3.67,3.67,0,0,1-.7,2.184,4.6,4.6,0,0,1-2.058,1.54A8.461,8.461,0,0,1,138.292.28Zm14.9-.28q-4.424,0-4.424-4.928V-12.32H146.58a.626.626,0,0,1-.462-.182.626.626,0,0,1-.182-.462v-.952a.626.626,0,0,1,.182-.462.626.626,0,0,1,.462-.182h2.184v-4.676a.626.626,0,0,1,.182-.462.626.626,0,0,1,.462-.182h1.316a.626.626,0,0,1,.462.182.626.626,0,0,1,.182.462v4.676h3.472a.626.626,0,0,1,.462.182.626.626,0,0,1,.182.462v.952a.626.626,0,0,1-.182.462.626.626,0,0,1-.462.182h-3.472v7.2a3.832,3.832,0,0,0,.476,2.114,1.745,1.745,0,0,0,1.568.714h1.708a.626.626,0,0,1,.462.182.626.626,0,0,1,.182.462V-.644a.626.626,0,0,1-.182.462A.626.626,0,0,1,155.12,0Zm18.788.28a10.129,10.129,0,0,1-4.018-.728,6.224,6.224,0,0,1-2.59-1.918,4.494,4.494,0,0,1-.952-2.562.562.562,0,0,1,.182-.406.592.592,0,0,1,.434-.182h1.428a.73.73,0,0,1,.728.56A3.316,3.316,0,0,0,168.63-2.94a5.738,5.738,0,0,0,3.346.84,6.094,6.094,0,0,0,3.5-.826,2.663,2.663,0,0,0,1.176-2.31,2.111,2.111,0,0,0-.574-1.54,4.88,4.88,0,0,0-1.694-1.036q-1.12-.448-3.36-1.12a17.247,17.247,0,0,1-3.472-1.316,5.032,5.032,0,0,1-1.932-1.736,4.852,4.852,0,0,1-.644-2.6A4.689,4.689,0,0,1,165.8-17.3a5.491,5.491,0,0,1,2.366-1.89,8.965,8.965,0,0,1,3.668-.686,8.435,8.435,0,0,1,3.752.77,6.043,6.043,0,0,1,2.38,1.946,4.508,4.508,0,0,1,.868,2.352.562.562,0,0,1-.154.392.559.559,0,0,1-.434.168h-1.484a.672.672,0,0,1-.728-.532,2.78,2.78,0,0,0-1.316-1.946,5.068,5.068,0,0,0-2.884-.77,5.348,5.348,0,0,0-3,.728,2.423,2.423,0,0,0-1.092,2.156,2.353,2.353,0,0,0,.518,1.568,4.232,4.232,0,0,0,1.582,1.078,27.117,27.117,0,0,0,3.108,1.05,20.81,20.81,0,0,1,3.752,1.33,5.091,5.091,0,0,1,2.044,1.708,4.624,4.624,0,0,1,.672,2.59A4.8,4.8,0,0,1,177.408-1.2,8.97,8.97,0,0,1,171.976.28Zm14.812,0a5.85,5.85,0,0,1-2.548-.56,4.715,4.715,0,0,1-1.862-1.526,3.616,3.616,0,0,1-.686-2.142,3.69,3.69,0,0,1,1.526-3.038,8.536,8.536,0,0,1,4.13-1.554l4.172-.588V-9.94q0-2.856-3.276-2.856a3.591,3.591,0,0,0-2.016.518,3.554,3.554,0,0,0-1.176,1.218.832.832,0,0,1-.21.364.509.509,0,0,1-.35.112h-1.2a.593.593,0,0,1-.434-.182.593.593,0,0,1-.182-.434,2.974,2.974,0,0,1,.63-1.526,4.887,4.887,0,0,1,1.862-1.484,6.906,6.906,0,0,1,3.108-.63q3.136,0,4.508,1.47a5.15,5.15,0,0,1,1.372,3.654V-.644a.626.626,0,0,1-.182.462.626.626,0,0,1-.462.182H192.22a.626.626,0,0,1-.462-.182.626.626,0,0,1-.182-.462v-1.2a4.838,4.838,0,0,1-1.792,1.512A6.43,6.43,0,0,1,186.788.28Zm.588-2.1a3.987,3.987,0,0,0,2.982-1.19,4.711,4.711,0,0,0,1.162-3.43v-.784l-3.248.476a7.5,7.5,0,0,0-3,.938,1.942,1.942,0,0,0-1.008,1.666,1.935,1.935,0,0,0,.924,1.722A3.911,3.911,0,0,0,187.376-1.82ZM202.972,0a1.061,1.061,0,0,1-1.036-.7l-5.18-12.992-.056-.28a.57.57,0,0,1,.168-.42.57.57,0,0,1,.42-.168h1.344a.736.736,0,0,1,.7.476l4.256,11.032,4.256-11.032a.755.755,0,0,1,.672-.476h1.372a.585.585,0,0,1,.406.168.548.548,0,0,1,.182.42l-.056.28L205.212-.7a1.061,1.061,0,0,1-1.036.7Zm15.736.28A6.117,6.117,0,0,1,214.1-1.5a7.289,7.289,0,0,1-1.89-4.858l-.028-.952.028-.924a7.385,7.385,0,0,1,1.918-4.816,6.02,6.02,0,0,1,4.55-1.792,6.026,6.026,0,0,1,4.816,1.974A7.873,7.873,0,0,1,225.2-7.532v.476a.626.626,0,0,1-.182.462.626.626,0,0,1-.462.182h-9.688v.252a5.188,5.188,0,0,0,1.106,3.094,3.293,3.293,0,0,0,2.7,1.274,3.919,3.919,0,0,0,2.114-.518,4.151,4.151,0,0,0,1.218-1.078,1.63,1.63,0,0,1,.378-.406,1.05,1.05,0,0,1,.462-.07h1.372a.634.634,0,0,1,.42.14.482.482,0,0,1,.168.392,2.465,2.465,0,0,1-.77,1.484,6.338,6.338,0,0,1-2.156,1.5A7.6,7.6,0,0,1,218.708.28Zm3.836-8.624v-.084a4.653,4.653,0,0,0-1.05-3.15A3.527,3.527,0,0,0,218.68-12.8a3.445,3.445,0,0,0-2.786,1.218,4.735,4.735,0,0,0-1.022,3.15v.084ZM229.208,0a.626.626,0,0,1-.462-.182.626.626,0,0,1-.182-.462V-13.888a.674.674,0,0,1,.182-.476.6.6,0,0,1,.462-.2H230.5a.648.648,0,0,1,.476.2.648.648,0,0,1,.2.476v1.232a4.206,4.206,0,0,1,3.92-1.9h1.092a.626.626,0,0,1,.462.182.626.626,0,0,1,.182.462v1.148a.58.58,0,0,1-.182.448.655.655,0,0,1-.462.168H234.5a3.187,3.187,0,0,0-2.38.882,3.265,3.265,0,0,0-.868,2.394V-.644a.6.6,0,0,1-.2.462A.674.674,0,0,1,230.58,0Zm21.308,0q-4.424,0-4.424-4.928V-12.32h-2.184a.626.626,0,0,1-.462-.182.626.626,0,0,1-.182-.462v-.952a.626.626,0,0,1,.182-.462.626.626,0,0,1,.462-.182h2.184v-4.676a.626.626,0,0,1,.182-.462.626.626,0,0,1,.462-.182h1.316a.626.626,0,0,1,.462.182.626.626,0,0,1,.182.462v4.676h3.472a.626.626,0,0,1,.462.182.626.626,0,0,1,.182.462v.952a.626.626,0,0,1-.182.462.626.626,0,0,1-.462.182H248.7v7.2a3.832,3.832,0,0,0,.476,2.114,1.745,1.745,0,0,0,1.568.714h1.708a.626.626,0,0,1,.462.182.626.626,0,0,1,.182.462V-.644a.626.626,0,0,1-.182.462.626.626,0,0,1-.462.182Zm11.228.28a6.365,6.365,0,0,1-4.774-1.736,6.726,6.726,0,0,1-1.806-4.62l-.028-1.2.028-1.2a6.71,6.71,0,0,1,1.82-4.606,6.345,6.345,0,0,1,4.76-1.75,6.345,6.345,0,0,1,4.76,1.75,6.711,6.711,0,0,1,1.82,4.606q.028.308.028,1.2t-.028,1.2a6.726,6.726,0,0,1-1.806,4.62A6.365,6.365,0,0,1,261.744.28Zm0-2.156A3.584,3.584,0,0,0,264.53-3a4.921,4.921,0,0,0,1.106-3.22q.028-.28.028-1.064t-.028-1.064a4.921,4.921,0,0,0-1.106-3.22,3.584,3.584,0,0,0-2.786-1.12,3.628,3.628,0,0,0-2.8,1.12,4.771,4.771,0,0,0-1.092,3.22l-.028,1.064.028,1.064A4.771,4.771,0,0,0,258.944-3,3.628,3.628,0,0,0,261.744-1.876ZM3.08,30a.623.623,0,0,1-.644-.644V11.072a.662.662,0,0,1,.182-.49A.626.626,0,0,1,3.08,10.4H9.912a7.66,7.66,0,0,1,5.04,1.512,5.356,5.356,0,0,1,1.82,4.368,5.6,5.6,0,0,1-1.05,3.5,5.423,5.423,0,0,1-2.954,1.9l4.312,7.448a.7.7,0,0,1,.084.308.518.518,0,0,1-.182.392.585.585,0,0,1-.406.168H15.232a1.006,1.006,0,0,1-.658-.2,1.851,1.851,0,0,1-.434-.56l-4.06-7.112H5.18v7.224a.6.6,0,0,1-.2.462A.674.674,0,0,1,4.508,30ZM9.8,19.752q4.172,0,4.172-3.5T9.8,12.752H5.18v7ZM26.068,30.28A6.117,6.117,0,0,1,21.462,28.5a7.289,7.289,0,0,1-1.89-4.858l-.028-.952.028-.924a7.385,7.385,0,0,1,1.918-4.816,6.02,6.02,0,0,1,4.55-1.792,6.026,6.026,0,0,1,4.816,1.974,7.873,7.873,0,0,1,1.708,5.334v.476a.623.623,0,0,1-.644.644H22.232v.252a5.188,5.188,0,0,0,1.106,3.094,3.293,3.293,0,0,0,2.7,1.274,3.919,3.919,0,0,0,2.114-.518,4.152,4.152,0,0,0,1.218-1.078,1.63,1.63,0,0,1,.378-.406,1.05,1.05,0,0,1,.462-.07h1.372a.634.634,0,0,1,.42.14.482.482,0,0,1,.168.392,2.465,2.465,0,0,1-.77,1.484,6.339,6.339,0,0,1-2.156,1.5A7.6,7.6,0,0,1,26.068,30.28ZM29.9,21.656v-.084a4.653,4.653,0,0,0-1.05-3.15A3.527,3.527,0,0,0,26.04,17.2a3.445,3.445,0,0,0-2.786,1.218,4.735,4.735,0,0,0-1.022,3.15v.084ZM40.488,30a1.061,1.061,0,0,1-1.036-.7l-5.18-12.992-.056-.28a.574.574,0,0,1,.588-.588h1.344a.736.736,0,0,1,.7.476L41.1,26.948,45.36,15.916a.755.755,0,0,1,.672-.476H47.4a.585.585,0,0,1,.406.168.548.548,0,0,1,.182.42l-.056.28L42.728,29.3a1.061,1.061,0,0,1-1.036.7Zm15.736.28A6.117,6.117,0,0,1,51.618,28.5a7.289,7.289,0,0,1-1.89-4.858l-.028-.952.028-.924a7.385,7.385,0,0,1,1.918-4.816A6.02,6.02,0,0,1,56.2,15.16a6.026,6.026,0,0,1,4.816,1.974,7.873,7.873,0,0,1,1.708,5.334v.476a.623.623,0,0,1-.644.644H52.388v.252a5.188,5.188,0,0,0,1.106,3.094,3.293,3.293,0,0,0,2.7,1.274,3.919,3.919,0,0,0,2.114-.518,4.152,4.152,0,0,0,1.218-1.078,1.63,1.63,0,0,1,.378-.406,1.05,1.05,0,0,1,.462-.07H61.74a.634.634,0,0,1,.42.14.482.482,0,0,1,.168.392,2.465,2.465,0,0,1-.77,1.484,6.339,6.339,0,0,1-2.156,1.5A7.6,7.6,0,0,1,56.224,30.28Zm3.836-8.624v-.084a4.653,4.653,0,0,0-1.05-3.15A3.527,3.527,0,0,0,56.2,17.2a3.445,3.445,0,0,0-2.786,1.218,4.735,4.735,0,0,0-1.022,3.15v.084ZM66.724,30a.623.623,0,0,1-.644-.644V16.084a.623.623,0,0,1,.644-.644H68.04a.623.623,0,0,1,.644.644v1.232a5.687,5.687,0,0,1,1.918-1.6,6.072,6.072,0,0,1,2.758-.56,5.253,5.253,0,0,1,4.186,1.722,6.728,6.728,0,0,1,1.5,4.578v7.9A.623.623,0,0,1,78.4,30H77a.623.623,0,0,1-.644-.644V21.6a4.5,4.5,0,0,0-.966-3.08A3.523,3.523,0,0,0,72.6,17.428a3.652,3.652,0,0,0-2.8,1.106A4.309,4.309,0,0,0,68.768,21.6v7.756a.623.623,0,0,1-.644.644Zm21.756.28a5.093,5.093,0,0,1-4.116-1.722,6.854,6.854,0,0,1-1.456-4.578v-7.9a.623.623,0,0,1,.644-.644h1.4a.623.623,0,0,1,.644.644V23.84q0,4.172,3.64,4.172a3.652,3.652,0,0,0,2.8-1.106,4.309,4.309,0,0,0,1.036-3.066V16.084a.623.623,0,0,1,.644-.644h1.4a.58.58,0,0,1,.448.182.655.655,0,0,1,.168.462V29.356a.655.655,0,0,1-.168.462.58.58,0,0,1-.448.182H93.8a.623.623,0,0,1-.644-.644V28.124a5.151,5.151,0,0,1-1.9,1.61A6.3,6.3,0,0,1,88.48,30.28Zm17.248,0a6.117,6.117,0,0,1-4.606-1.778,7.289,7.289,0,0,1-1.89-4.858l-.028-.952.028-.924a7.385,7.385,0,0,1,1.918-4.816,6.769,6.769,0,0,1,9.366.182,7.873,7.873,0,0,1,1.708,5.334v.476a.623.623,0,0,1-.644.644h-9.688v.252A5.188,5.188,0,0,0,103,26.934a3.293,3.293,0,0,0,2.7,1.274,3.919,3.919,0,0,0,2.114-.518,4.151,4.151,0,0,0,1.218-1.078,1.63,1.63,0,0,1,.378-.406,1.05,1.05,0,0,1,.462-.07h1.372a.634.634,0,0,1,.42.14.482.482,0,0,1,.168.392,2.465,2.465,0,0,1-.77,1.484,6.339,6.339,0,0,1-2.156,1.5A7.6,7.6,0,0,1,105.728,30.28Zm3.836-8.624v-.084a4.653,4.653,0,0,0-1.05-3.15A3.527,3.527,0,0,0,105.7,17.2a3.445,3.445,0,0,0-2.786,1.218,4.735,4.735,0,0,0-1.022,3.15v.084Zm20.384,8.624a7.767,7.767,0,0,1-5.7-2,7.807,7.807,0,0,1-2.17-5.474q-.028-.84-.028-2.632,0-1.82.028-2.632a7.688,7.688,0,0,1,2.184-5.432,7.809,7.809,0,0,1,5.684-1.988,9.1,9.1,0,0,1,4.186.882,6.839,6.839,0,0,1,2.59,2.142,4.65,4.65,0,0,1,.924,2.352v.056a.451.451,0,0,1-.168.364.634.634,0,0,1-.42.14h-1.652a.666.666,0,0,1-.406-.1.92.92,0,0,1-.238-.406,4.437,4.437,0,0,0-1.61-2.156,5.207,5.207,0,0,0-3.206-.9,5.047,5.047,0,0,0-3.64,1.26,5.546,5.546,0,0,0-1.428,3.92q-.028.812-.028,2.492,0,1.652.028,2.492a5.641,5.641,0,0,0,1.428,3.962,5.014,5.014,0,0,0,3.64,1.274,5.325,5.325,0,0,0,3.752-1.288,5,5,0,0,0,1.4-3.864V21.572h-4.2a.626.626,0,0,1-.462-.182.662.662,0,0,1-.182-.49V20a.674.674,0,0,1,.182-.476.6.6,0,0,1,.462-.2h6.328a.626.626,0,0,1,.462.182.662.662,0,0,1,.182.49v2.688a8.092,8.092,0,0,1-.952,4,6.53,6.53,0,0,1-2.744,2.646A9,9,0,0,1,129.948,30.28Zm17.388,0A6.117,6.117,0,0,1,142.73,28.5a7.289,7.289,0,0,1-1.89-4.858l-.028-.952.028-.924a7.385,7.385,0,0,1,1.918-4.816,6.769,6.769,0,0,1,9.366.182,7.873,7.873,0,0,1,1.708,5.334v.476a.623.623,0,0,1-.644.644H143.5v.252a5.188,5.188,0,0,0,1.106,3.094,3.293,3.293,0,0,0,2.7,1.274,3.919,3.919,0,0,0,2.114-.518,4.151,4.151,0,0,0,1.218-1.078,1.63,1.63,0,0,1,.378-.406,1.05,1.05,0,0,1,.462-.07h1.372a.634.634,0,0,1,.42.14.482.482,0,0,1,.168.392,2.465,2.465,0,0,1-.77,1.484,6.339,6.339,0,0,1-2.156,1.5A7.6,7.6,0,0,1,147.336,30.28Zm3.836-8.624v-.084a4.653,4.653,0,0,0-1.05-3.15,3.527,3.527,0,0,0-2.814-1.218,3.445,3.445,0,0,0-2.786,1.218,4.735,4.735,0,0,0-1.022,3.15v.084ZM157.836,30a.623.623,0,0,1-.644-.644V16.084a.623.623,0,0,1,.644-.644h1.316a.623.623,0,0,1,.644.644v1.232a5.688,5.688,0,0,1,1.918-1.6,6.072,6.072,0,0,1,2.758-.56,5.253,5.253,0,0,1,4.186,1.722,6.728,6.728,0,0,1,1.5,4.578v7.9a.623.623,0,0,1-.644.644h-1.4a.623.623,0,0,1-.644-.644V21.6a4.5,4.5,0,0,0-.966-3.08,3.523,3.523,0,0,0-2.786-1.092,3.652,3.652,0,0,0-2.8,1.106A4.309,4.309,0,0,0,159.88,21.6v7.756a.623.623,0,0,1-.644.644Zm22.148.28a6.117,6.117,0,0,1-4.606-1.778,7.289,7.289,0,0,1-1.89-4.858l-.028-.952.028-.924a7.385,7.385,0,0,1,1.918-4.816,6.769,6.769,0,0,1,9.366.182,7.873,7.873,0,0,1,1.708,5.334v.476a.623.623,0,0,1-.644.644h-9.688v.252a5.188,5.188,0,0,0,1.106,3.094,3.293,3.293,0,0,0,2.7,1.274,3.919,3.919,0,0,0,2.114-.518,4.151,4.151,0,0,0,1.218-1.078,1.63,1.63,0,0,1,.378-.406,1.05,1.05,0,0,1,.462-.07H185.5a.634.634,0,0,1,.42.14.482.482,0,0,1,.168.392,2.465,2.465,0,0,1-.77,1.484,6.338,6.338,0,0,1-2.156,1.5A7.6,7.6,0,0,1,179.984,30.28Zm3.836-8.624v-.084a4.653,4.653,0,0,0-1.05-3.15,3.527,3.527,0,0,0-2.814-1.218,3.445,3.445,0,0,0-2.786,1.218,4.735,4.735,0,0,0-1.022,3.15v.084ZM190.484,30a.623.623,0,0,1-.644-.644V16.112a.674.674,0,0,1,.182-.476.6.6,0,0,1,.462-.2h1.288a.669.669,0,0,1,.672.672v1.232a4.206,4.206,0,0,1,3.92-1.9h1.092a.623.623,0,0,1,.644.644v1.148a.58.58,0,0,1-.182.448.655.655,0,0,1-.462.168h-1.68a3.187,3.187,0,0,0-2.38.882,3.265,3.265,0,0,0-.868,2.394v8.232a.6.6,0,0,1-.2.462.674.674,0,0,1-.476.182Zm13.832.28a5.85,5.85,0,0,1-2.548-.56,4.715,4.715,0,0,1-1.862-1.526,3.616,3.616,0,0,1-.686-2.142,3.69,3.69,0,0,1,1.526-3.038,8.536,8.536,0,0,1,4.13-1.554l4.172-.588V20.06q0-2.856-3.276-2.856a3.591,3.591,0,0,0-2.016.518,3.554,3.554,0,0,0-1.176,1.218.832.832,0,0,1-.21.364.509.509,0,0,1-.35.112h-1.2a.621.621,0,0,1-.616-.616,2.974,2.974,0,0,1,.63-1.526,4.887,4.887,0,0,1,1.862-1.484,6.906,6.906,0,0,1,3.108-.63q3.136,0,4.508,1.47a5.15,5.15,0,0,1,1.372,3.654v9.072a.623.623,0,0,1-.644.644h-1.288a.623.623,0,0,1-.644-.644v-1.2a4.838,4.838,0,0,1-1.792,1.512A6.43,6.43,0,0,1,204.316,30.28Zm.588-2.1a3.987,3.987,0,0,0,2.982-1.19,4.711,4.711,0,0,0,1.162-3.43v-.784l-3.248.476a7.5,7.5,0,0,0-3,.938,1.969,1.969,0,0,0-.084,3.388A3.911,3.911,0,0,0,204.9,28.18ZM221.256,30q-4.424,0-4.424-4.928V17.68h-2.184a.623.623,0,0,1-.644-.644v-.952a.623.623,0,0,1,.644-.644h2.184V10.764a.623.623,0,0,1,.644-.644h1.316a.623.623,0,0,1,.644.644V15.44h3.472a.623.623,0,0,1,.644.644v.952a.623.623,0,0,1-.644.644h-3.472v7.2a3.832,3.832,0,0,0,.476,2.114,1.745,1.745,0,0,0,1.568.714h1.708a.623.623,0,0,1,.644.644v1.008a.623.623,0,0,1-.644.644Zm11.228.28a6.365,6.365,0,0,1-4.774-1.736,6.726,6.726,0,0,1-1.806-4.62l-.028-1.2.028-1.2a6.71,6.71,0,0,1,1.82-4.606,7.349,7.349,0,0,1,9.52,0,6.711,6.711,0,0,1,1.82,4.606q.028.308.028,1.2t-.028,1.2a6.726,6.726,0,0,1-1.806,4.62A6.365,6.365,0,0,1,232.484,30.28Zm0-2.156A3.584,3.584,0,0,0,235.27,27a4.921,4.921,0,0,0,1.106-3.22q.028-.28.028-1.064t-.028-1.064a4.921,4.921,0,0,0-1.106-3.22,3.584,3.584,0,0,0-2.786-1.12,3.628,3.628,0,0,0-2.8,1.12,4.771,4.771,0,0,0-1.092,3.22l-.028,1.064.028,1.064A4.771,4.771,0,0,0,229.684,27,3.628,3.628,0,0,0,232.484,28.124ZM243.236,30a.623.623,0,0,1-.644-.644V16.112a.674.674,0,0,1,.182-.476.6.6,0,0,1,.462-.2h1.288a.669.669,0,0,1,.672.672v1.232a4.206,4.206,0,0,1,3.92-1.9h1.092a.623.623,0,0,1,.644.644v1.148a.58.58,0,0,1-.182.448.655.655,0,0,1-.462.168h-1.68a3.187,3.187,0,0,0-2.38.882,3.265,3.265,0,0,0-.868,2.394v8.232a.6.6,0,0,1-.2.462.674.674,0,0,1-.476.182Z" transform="translate(414 233)"></path><path class="b" d="M-243.558,0a.417.417,0,0,1-.306-.126.417.417,0,0,1-.126-.306V-12.15a.457.457,0,0,1,.117-.324.409.409,0,0,1,.315-.126h7.812a.439.439,0,0,1,.324.126.439.439,0,0,1,.126.324v1.26a.409.409,0,0,1-.126.315.457.457,0,0,1-.324.117h-5.778v3.42h5.418a.439.439,0,0,1,.324.126.439.439,0,0,1,.126.324v1.26a.409.409,0,0,1-.126.315.457.457,0,0,1-.324.117h-5.418V-.432a.409.409,0,0,1-.126.315.457.457,0,0,1-.324.117Zm10.818,0a.417.417,0,0,1-.306-.126.417.417,0,0,1-.126-.306V-12.168a.409.409,0,0,1,.126-.315.433.433,0,0,1,.306-.117h1.692a.426.426,0,0,1,.315.117.426.426,0,0,1,.117.315V-.432a.433.433,0,0,1-.117.306.409.409,0,0,1-.315.126Zm5.382,0a.417.417,0,0,1-.306-.126.417.417,0,0,1-.126-.306V-12.15a.457.457,0,0,1,.117-.324.409.409,0,0,1,.315-.126h1.386a.537.537,0,0,1,.324.081.934.934,0,0,1,.2.207l5.184,8.064v-7.9a.457.457,0,0,1,.117-.324.409.409,0,0,1,.315-.126h1.512a.439.439,0,0,1,.324.126.439.439,0,0,1,.126.324V-.45A.439.439,0,0,1-218-.126.417.417,0,0,1-218.3,0h-1.4a.637.637,0,0,1-.522-.288L-225.4-8.172v7.74a.409.409,0,0,1-.126.315.457.457,0,0,1-.324.117Zm15.5,0a.417.417,0,0,1-.306-.126.417.417,0,0,1-.126-.306v-9.954h-3.33a.417.417,0,0,1-.306-.126.417.417,0,0,1-.126-.306V-12.15a.457.457,0,0,1,.117-.324.409.409,0,0,1,.315-.126h9.18a.439.439,0,0,1,.324.126.439.439,0,0,1,.126.324v1.332a.417.417,0,0,1-.126.306.439.439,0,0,1-.324.126h-3.312V-.432a.417.417,0,0,1-.126.306A.439.439,0,0,1-210.2,0Zm8.118,0a.417.417,0,0,1-.306-.126.417.417,0,0,1-.126-.306V-12.15a.457.457,0,0,1,.117-.324.409.409,0,0,1,.315-.126h7.92a.439.439,0,0,1,.324.126.439.439,0,0,1,.126.324v1.188a.409.409,0,0,1-.126.315.457.457,0,0,1-.324.117h-5.922v3.186h5.526a.457.457,0,0,1,.324.117.409.409,0,0,1,.126.315V-5.8a.409.409,0,0,1-.126.315.457.457,0,0,1-.324.117h-5.526V-2.07h6.066a.439.439,0,0,1,.324.126.439.439,0,0,1,.126.324V-.432a.409.409,0,0,1-.126.315.457.457,0,0,1-.324.117Zm15.516.18A5.4,5.4,0,0,1-192.069-1.1a4.983,4.983,0,0,1-1.449-3.6q-.018-.486-.018-1.584,0-1.116.018-1.62a4.956,4.956,0,0,1,1.467-3.591,5.384,5.384,0,0,1,3.825-1.287,6.6,6.6,0,0,1,2.79.549,4.4,4.4,0,0,1,1.836,1.494,3.9,3.9,0,0,1,.684,2.133v.036a.307.307,0,0,1-.117.243.394.394,0,0,1-.261.1H-185a.5.5,0,0,1-.324-.09.691.691,0,0,1-.18-.342,2.627,2.627,0,0,0-.954-1.593,3.089,3.089,0,0,0-1.782-.459q-2.592,0-2.7,2.9-.018.486-.018,1.494t.018,1.53q.108,2.9,2.7,2.9a3.087,3.087,0,0,0,1.791-.468,2.566,2.566,0,0,0,.945-1.584.571.571,0,0,1,.171-.342.536.536,0,0,1,.333-.09h1.71a.4.4,0,0,1,.279.108.3.3,0,0,1,.1.27,3.9,3.9,0,0,1-.684,2.133,4.4,4.4,0,0,1-1.836,1.494A6.6,6.6,0,0,1-188.226.18Zm7.884-.18a.417.417,0,0,1-.306-.126.417.417,0,0,1-.126-.306V-12.15a.457.457,0,0,1,.117-.324.409.409,0,0,1,.315-.126h1.638a.409.409,0,0,1,.315.126.457.457,0,0,1,.117.324v4.644h5.31V-12.15a.457.457,0,0,1,.117-.324.409.409,0,0,1,.315-.126h1.62a.439.439,0,0,1,.324.126.439.439,0,0,1,.126.324V-.432a.409.409,0,0,1-.126.315A.457.457,0,0,1-170.91,0h-1.62a.417.417,0,0,1-.306-.126.417.417,0,0,1-.126-.306V-5.256h-5.31V-.432a.433.433,0,0,1-.117.306A.409.409,0,0,1-178.7,0Zm21.672.18A5.4,5.4,0,0,1-162.513-1.1a4.983,4.983,0,0,1-1.449-3.6q-.018-.486-.018-1.584,0-1.116.018-1.62a4.956,4.956,0,0,1,1.467-3.591,5.384,5.384,0,0,1,3.825-1.287,6.6,6.6,0,0,1,2.79.549,4.4,4.4,0,0,1,1.836,1.494A3.9,3.9,0,0,1-153.36-8.6v.036a.307.307,0,0,1-.117.243.394.394,0,0,1-.261.1h-1.71a.5.5,0,0,1-.324-.09.691.691,0,0,1-.18-.342,2.627,2.627,0,0,0-.954-1.593,3.089,3.089,0,0,0-1.782-.459q-2.592,0-2.7,2.9-.018.486-.018,1.494t.018,1.53q.108,2.9,2.7,2.9a3.087,3.087,0,0,0,1.791-.468,2.566,2.566,0,0,0,.945-1.584.571.571,0,0,1,.171-.342.536.536,0,0,1,.333-.09h1.71a.4.4,0,0,1,.279.108.3.3,0,0,1,.1.27,3.9,3.9,0,0,1-.684,2.133A4.4,4.4,0,0,1-155.88-.369,6.6,6.6,0,0,1-158.67.18Zm6.534-.18a.376.376,0,0,1-.261-.108.352.352,0,0,1-.117-.27l.036-.162,4.338-11.61a.584.584,0,0,1,.63-.45h1.962a.619.619,0,0,1,.63.45L-140.58-.54a.546.546,0,0,1,.018.162.366.366,0,0,1-.108.27.345.345,0,0,1-.252.108h-1.566a.537.537,0,0,1-.36-.108.489.489,0,0,1-.162-.234l-.846-2.2H-149.2l-.846,2.2A.522.522,0,0,1-150.57,0Zm7.65-4.608-2.052-5.562-2.034,5.562ZM-134.694.18a7.064,7.064,0,0,1-2.754-.486,4.117,4.117,0,0,1-1.746-1.278,3,3,0,0,1-.63-1.71.366.366,0,0,1,.108-.27.366.366,0,0,1,.27-.108h1.6a.581.581,0,0,1,.333.081.832.832,0,0,1,.225.261,1.835,1.835,0,0,0,.828,1.026,3.252,3.252,0,0,0,1.764.414,3.554,3.554,0,0,0,1.926-.423,1.334,1.334,0,0,0,.648-1.179,1.105,1.105,0,0,0-.333-.828,2.719,2.719,0,0,0-.99-.558q-.657-.234-1.953-.576A7.5,7.5,0,0,1-138.5-6.8a2.963,2.963,0,0,1-.981-2.385,3.153,3.153,0,0,1,.567-1.854,3.788,3.788,0,0,1,1.638-1.278,6.181,6.181,0,0,1,2.493-.468,5.818,5.818,0,0,1,2.556.522,4.272,4.272,0,0,1,1.647,1.305,2.886,2.886,0,0,1,.6,1.557.366.366,0,0,1-.108.27.366.366,0,0,1-.27.108h-1.674a.522.522,0,0,1-.522-.342,1.458,1.458,0,0,0-.72-.963,2.776,2.776,0,0,0-1.512-.387,2.864,2.864,0,0,0-1.584.378,1.233,1.233,0,0,0-.576,1.1,1.2,1.2,0,0,0,.288.828,2.422,2.422,0,0,0,.909.576,15.432,15.432,0,0,0,1.791.558,12.45,12.45,0,0,1,2.529.81,3.321,3.321,0,0,1,1.4,1.134,3.118,3.118,0,0,1,.45,1.746,3.259,3.259,0,0,1-.639,2.007,3.969,3.969,0,0,1-1.8,1.305A7.363,7.363,0,0,1-134.694.18ZM-127.08,0a.417.417,0,0,1-.306-.126.417.417,0,0,1-.126-.306V-12.15a.457.457,0,0,1,.117-.324.409.409,0,0,1,.315-.126h7.92a.439.439,0,0,1,.324.126.439.439,0,0,1,.126.324v1.188a.409.409,0,0,1-.126.315.457.457,0,0,1-.324.117h-5.922v3.186h5.526a.457.457,0,0,1,.324.117.409.409,0,0,1,.126.315V-5.8a.409.409,0,0,1-.126.315.457.457,0,0,1-.324.117h-5.526V-2.07h6.066a.439.439,0,0,1,.324.126.439.439,0,0,1,.126.324V-.432a.409.409,0,0,1-.126.315.457.457,0,0,1-.324.117Zm19.26.18a7.064,7.064,0,0,1-2.754-.486,4.117,4.117,0,0,1-1.746-1.278,3,3,0,0,1-.63-1.71.366.366,0,0,1,.108-.27.366.366,0,0,1,.27-.108h1.6a.581.581,0,0,1,.333.081.832.832,0,0,1,.225.261,1.835,1.835,0,0,0,.828,1.026,3.252,3.252,0,0,0,1.764.414,3.554,3.554,0,0,0,1.926-.423,1.334,1.334,0,0,0,.648-1.179,1.105,1.105,0,0,0-.333-.828,2.719,2.719,0,0,0-.99-.558q-.657-.234-1.953-.576A7.5,7.5,0,0,1-111.627-6.8a2.963,2.963,0,0,1-.981-2.385,3.153,3.153,0,0,1,.567-1.854,3.788,3.788,0,0,1,1.638-1.278,6.181,6.181,0,0,1,2.493-.468,5.818,5.818,0,0,1,2.556.522,4.272,4.272,0,0,1,1.647,1.305,2.885,2.885,0,0,1,.6,1.557.366.366,0,0,1-.108.27.366.366,0,0,1-.27.108h-1.674a.522.522,0,0,1-.522-.342,1.458,1.458,0,0,0-.72-.963,2.776,2.776,0,0,0-1.512-.387,2.864,2.864,0,0,0-1.584.378,1.233,1.233,0,0,0-.576,1.1,1.2,1.2,0,0,0,.288.828,2.422,2.422,0,0,0,.909.576,15.434,15.434,0,0,0,1.791.558,12.45,12.45,0,0,1,2.529.81,3.321,3.321,0,0,1,1.4,1.134,3.118,3.118,0,0,1,.45,1.746,3.259,3.259,0,0,1-.639,2.007,3.969,3.969,0,0,1-1.8,1.305A7.363,7.363,0,0,1-107.82.18ZM-97.578,0a.417.417,0,0,1-.306-.126.417.417,0,0,1-.126-.306v-9.954h-3.33a.417.417,0,0,1-.306-.126.417.417,0,0,1-.126-.306V-12.15a.457.457,0,0,1,.117-.324.409.409,0,0,1,.315-.126h9.18a.439.439,0,0,1,.324.126.439.439,0,0,1,.126.324v1.332a.417.417,0,0,1-.126.306.439.439,0,0,1-.324.126h-3.312V-.432a.417.417,0,0,1-.126.306A.439.439,0,0,1-95.922,0ZM-84.87.18a5.376,5.376,0,0,1-3.78-1.242A4.868,4.868,0,0,1-90-4.824V-12.15a.457.457,0,0,1,.117-.324.409.409,0,0,1,.315-.126h1.638a.409.409,0,0,1,.315.126.457.457,0,0,1,.117.324v7.326a3.064,3.064,0,0,0,.684,2.169,2.536,2.536,0,0,0,1.944.729,2.507,2.507,0,0,0,1.935-.729,3.091,3.091,0,0,0,.675-2.169V-12.15a.439.439,0,0,1,.126-.324.439.439,0,0,1,.324-.126h1.62a.409.409,0,0,1,.315.126.457.457,0,0,1,.117.324v7.326A4.886,4.886,0,0,1-81.1-1.062,5.342,5.342,0,0,1-84.87.18ZM-76.626,0a.417.417,0,0,1-.306-.126.417.417,0,0,1-.126-.306V-12.15a.457.457,0,0,1,.117-.324.409.409,0,0,1,.315-.126h4.392q5.292,0,5.4,4.9.036,1.044.036,1.4,0,.342-.036,1.386A5.081,5.081,0,0,1-68.184-1.2,5.633,5.633,0,0,1-72.144,0Zm4.392-2.07a2.968,2.968,0,0,0,2.178-.675,3.2,3.2,0,0,0,.7-2.223q.036-1.08.036-1.35,0-.288-.036-1.332A3.057,3.057,0,0,0-70.1-9.828a3.059,3.059,0,0,0-2.223-.7h-2.232v8.46ZM-61.218,0a.417.417,0,0,1-.306-.126.417.417,0,0,1-.126-.306V-4.5L-65.9-12.024a.378.378,0,0,1-.054-.2.366.366,0,0,1,.108-.27.345.345,0,0,1,.252-.108h1.6a.516.516,0,0,1,.333.108.831.831,0,0,1,.207.234l3.06,5.238,3.042-5.238a.642.642,0,0,1,.558-.342h1.584a.366.366,0,0,1,.27.108.366.366,0,0,1,.108.27.378.378,0,0,1-.054.2L-59.13-4.5V-.432a.417.417,0,0,1-.126.306A.439.439,0,0,1-59.58,0ZM-45.18,2.862A3.844,3.844,0,0,1-48.762.855q-1.152-2.007-1.152-6.417t1.152-6.408a3.848,3.848,0,0,1,3.582-2,.417.417,0,0,1,.306.126.417.417,0,0,1,.126.306v1.08a.433.433,0,0,1-.117.306.368.368,0,0,1-.279.126,1.987,1.987,0,0,0-1.548.72,4.506,4.506,0,0,0-.8,2.07,22.146,22.146,0,0,0-.243,3.672,22.316,22.316,0,0,0,.243,3.681A4.518,4.518,0,0,0-46.692.2a1.987,1.987,0,0,0,1.548.72.368.368,0,0,1,.279.126.433.433,0,0,1,.117.306V2.43a.417.417,0,0,1-.126.306A.417.417,0,0,1-45.18,2.862ZM-42.606,0a.417.417,0,0,1-.306-.126.417.417,0,0,1-.126-.306V-12.15a.457.457,0,0,1,.117-.324.409.409,0,0,1,.315-.126h7.812a.439.439,0,0,1,.324.126.439.439,0,0,1,.126.324v1.26a.409.409,0,0,1-.126.315.457.457,0,0,1-.324.117h-5.778v3.42h5.418a.439.439,0,0,1,.324.126.439.439,0,0,1,.126.324v1.26a.409.409,0,0,1-.126.315.457.457,0,0,1-.324.117h-5.418V-.432a.409.409,0,0,1-.126.315A.457.457,0,0,1-41.022,0Zm10.818,0a.417.417,0,0,1-.306-.126.417.417,0,0,1-.126-.306V-12.15a.457.457,0,0,1,.117-.324.409.409,0,0,1,.315-.126h4.662a5.283,5.283,0,0,1,3.447,1.026,3.557,3.557,0,0,1,1.251,2.916,3.685,3.685,0,0,1-.639,2.205A3.556,3.556,0,0,1-24.84-5.166l2.628,4.59a.448.448,0,0,1,.054.2.352.352,0,0,1-.117.27A.376.376,0,0,1-22.536,0h-1.638a.678.678,0,0,1-.441-.126,1.19,1.19,0,0,1-.279-.36l-2.322-4.266h-2.5v4.32a.433.433,0,0,1-.117.306A.409.409,0,0,1-30.15,0Zm4.608-6.786a2.391,2.391,0,0,0,1.629-.486A1.776,1.776,0,0,0-25-8.676a1.833,1.833,0,0,0-.549-1.422,2.334,2.334,0,0,0-1.629-.5h-2.538v3.816ZM-15.3.18a5.472,5.472,0,0,1-3.816-1.242,4.943,4.943,0,0,1-1.44-3.69q-.018-.522-.018-1.53,0-1.026.018-1.548A4.926,4.926,0,0,1-19.08-11.5,5.4,5.4,0,0,1-15.3-12.78,5.435,5.435,0,0,1-11.511-11.5,4.909,4.909,0,0,1-10.026-7.83q.036,1.044.036,1.548,0,.486-.036,1.53a5,5,0,0,1-1.458,3.69A5.472,5.472,0,0,1-15.3.18Zm0-2.07a2.585,2.585,0,0,0,1.926-.729A3.223,3.223,0,0,0-12.6-4.842q.036-1.08.036-1.458,0-.414-.036-1.458a3.223,3.223,0,0,0-.774-2.223A2.585,2.585,0,0,0-15.3-10.71a2.562,2.562,0,0,0-1.908.729,3.223,3.223,0,0,0-.774,2.223Q-18-7.236-18-6.3q0,.918.018,1.458a3.25,3.25,0,0,0,.765,2.223A2.555,2.555,0,0,0-15.3-1.89ZM-7.182,0a.457.457,0,0,1-.324-.117.409.409,0,0,1-.126-.315V-12.15a.439.439,0,0,1,.126-.324.439.439,0,0,1,.324-.126H-5.76a.556.556,0,0,1,.54.342l3.474,6.48,3.51-6.48A.578.578,0,0,1,2.3-12.6h1.4a.439.439,0,0,1,.324.126.439.439,0,0,1,.126.324V-.432a.409.409,0,0,1-.126.315A.457.457,0,0,1,3.708,0H2.2A.417.417,0,0,1,1.89-.126a.417.417,0,0,1-.126-.306V-8.226L-.756-3.42a.7.7,0,0,1-.612.4h-.738a.7.7,0,0,1-.612-.4l-2.52-4.806V-.432a.433.433,0,0,1-.117.306A.409.409,0,0,1-5.67,0ZM9.846,0a.376.376,0,0,1-.261-.108.352.352,0,0,1-.117-.27L9.5-.54l4.338-11.61a.584.584,0,0,1,.63-.45h1.962a.619.619,0,0,1,.63.45L21.4-.54a.546.546,0,0,1,.018.162.366.366,0,0,1-.108.27A.345.345,0,0,1,21.06,0H19.494a.537.537,0,0,1-.36-.108.489.489,0,0,1-.162-.234l-.846-2.2H12.78l-.846,2.2A.522.522,0,0,1,11.412,0ZM17.5-4.608,15.444-10.17,13.41-4.608ZM27.18,0a.417.417,0,0,1-.306-.126.417.417,0,0,1-.126-.306V-12.15a.457.457,0,0,1,.117-.324.409.409,0,0,1,.315-.126h7.812a.439.439,0,0,1,.324.126.439.439,0,0,1,.126.324v1.26a.409.409,0,0,1-.126.315.457.457,0,0,1-.324.117H29.214v3.42h5.418a.439.439,0,0,1,.324.126.439.439,0,0,1,.126.324v1.26a.409.409,0,0,1-.126.315.457.457,0,0,1-.324.117H29.214V-.432a.409.409,0,0,1-.126.315A.457.457,0,0,1,28.764,0ZM42.318.18A5.472,5.472,0,0,1,38.5-1.062a4.943,4.943,0,0,1-1.44-3.69q-.018-.522-.018-1.53,0-1.026.018-1.548A4.926,4.926,0,0,1,38.538-11.5a5.4,5.4,0,0,1,3.78-1.278A5.435,5.435,0,0,1,46.107-11.5,4.909,4.909,0,0,1,47.592-7.83q.036,1.044.036,1.548,0,.486-.036,1.53a5,5,0,0,1-1.458,3.69A5.472,5.472,0,0,1,42.318.18Zm0-2.07a2.585,2.585,0,0,0,1.926-.729,3.223,3.223,0,0,0,.774-2.223q.036-1.08.036-1.458,0-.414-.036-1.458a3.223,3.223,0,0,0-.774-2.223,2.585,2.585,0,0,0-1.926-.729,2.562,2.562,0,0,0-1.908.729,3.223,3.223,0,0,0-.774,2.223q-.018.522-.018,1.458,0,.918.018,1.458A3.25,3.25,0,0,0,40.4-2.619,2.555,2.555,0,0,0,42.318-1.89ZM50.418,0a.417.417,0,0,1-.306-.126.417.417,0,0,1-.126-.306V-12.15a.457.457,0,0,1,.117-.324.409.409,0,0,1,.315-.126H55.08a5.283,5.283,0,0,1,3.447,1.026,3.557,3.557,0,0,1,1.251,2.916,3.685,3.685,0,0,1-.639,2.205,3.556,3.556,0,0,1-1.773,1.287l2.628,4.59a.448.448,0,0,1,.054.2.352.352,0,0,1-.117.27A.376.376,0,0,1,59.67,0H58.032a.678.678,0,0,1-.441-.126,1.19,1.19,0,0,1-.279-.36L54.99-4.752h-2.5v4.32a.433.433,0,0,1-.117.306A.409.409,0,0,1,52.056,0Zm4.608-6.786a2.391,2.391,0,0,0,1.629-.486,1.776,1.776,0,0,0,.549-1.4,1.833,1.833,0,0,0-.549-1.422,2.334,2.334,0,0,0-1.629-.5H52.488v3.816ZM65.16,0a.417.417,0,0,1-.306-.126.417.417,0,0,1-.126-.306v-9.954H61.4a.417.417,0,0,1-.306-.126.417.417,0,0,1-.126-.306V-12.15a.457.457,0,0,1,.117-.324A.409.409,0,0,1,61.4-12.6h9.18a.439.439,0,0,1,.324.126.439.439,0,0,1,.126.324v1.332a.417.417,0,0,1-.126.306.439.439,0,0,1-.324.126H67.266V-.432a.417.417,0,0,1-.126.306A.439.439,0,0,1,66.816,0ZM77.868.18a5.376,5.376,0,0,1-3.78-1.242,4.868,4.868,0,0,1-1.35-3.762V-12.15a.457.457,0,0,1,.117-.324.409.409,0,0,1,.315-.126h1.638a.409.409,0,0,1,.315.126.457.457,0,0,1,.117.324v7.326a3.064,3.064,0,0,0,.684,2.169,2.536,2.536,0,0,0,1.944.729A2.507,2.507,0,0,0,79.8-2.655a3.091,3.091,0,0,0,.675-2.169V-12.15a.439.439,0,0,1,.126-.324.439.439,0,0,1,.324-.126h1.62a.409.409,0,0,1,.315.126.457.457,0,0,1,.117.324v7.326a4.886,4.886,0,0,1-1.341,3.762A5.342,5.342,0,0,1,77.868.18ZM86.112,0a.417.417,0,0,1-.306-.126.417.417,0,0,1-.126-.306V-12.15a.457.457,0,0,1,.117-.324.409.409,0,0,1,.315-.126H87.5a.537.537,0,0,1,.324.081.935.935,0,0,1,.2.207L93.2-4.248v-7.9a.457.457,0,0,1,.117-.324.409.409,0,0,1,.315-.126h1.512a.439.439,0,0,1,.324.126.439.439,0,0,1,.126.324V-.45a.439.439,0,0,1-.126.324A.417.417,0,0,1,95.166,0h-1.4a.637.637,0,0,1-.522-.288L88.074-8.172v7.74a.409.409,0,0,1-.126.315A.457.457,0,0,1,87.624,0ZM98.838,0a.417.417,0,0,1-.306-.126.417.417,0,0,1-.126-.306V-12.15a.457.457,0,0,1,.117-.324.409.409,0,0,1,.315-.126h7.92a.439.439,0,0,1,.324.126.439.439,0,0,1,.126.324v1.188a.409.409,0,0,1-.126.315.457.457,0,0,1-.324.117h-5.922v3.186h5.526a.457.457,0,0,1,.324.117.409.409,0,0,1,.126.315V-5.8a.409.409,0,0,1-.126.315.457.457,0,0,1-.324.117h-5.526V-2.07H106.9a.439.439,0,0,1,.324.126.439.439,0,0,1,.126.324V-.432a.409.409,0,0,1-.126.315A.457.457,0,0,1,106.9,0Zm18.99.2a5.981,5.981,0,0,1-2.565-.5,3.978,3.978,0,0,1-1.638-1.332,3.324,3.324,0,0,1-.6-1.782v-.036a.29.29,0,0,1,.108-.234.408.408,0,0,1,.27-.09h1.674a.516.516,0,0,1,.54.36,2.081,2.081,0,0,0,.837,1.17,2.481,2.481,0,0,0,1.377.378,2.412,2.412,0,0,0,1.683-.612,2.191,2.191,0,0,0,.675-1.71,2.04,2.04,0,0,0-.675-1.584,2.412,2.412,0,0,0-1.683-.612,2.3,2.3,0,0,0-.882.144,2.953,2.953,0,0,0-.666.4,2.95,2.95,0,0,1-.333.225.581.581,0,0,1-.279.063h-1.656a.381.381,0,0,1-.279-.117.381.381,0,0,1-.117-.279l.63-6.156a.542.542,0,0,1,.153-.351.475.475,0,0,1,.351-.135h6.768a.417.417,0,0,1,.306.126.417.417,0,0,1,.126.306v1.206a.417.417,0,0,1-.126.306.417.417,0,0,1-.306.126h-5.2L116.028-7.6a4.065,4.065,0,0,1,2.358-.612,4.818,4.818,0,0,1,2.169.495,3.925,3.925,0,0,1,1.593,1.422,3.9,3.9,0,0,1,.594,2.151,4.246,4.246,0,0,1-.612,2.295,4.024,4.024,0,0,1-1.719,1.512A5.91,5.91,0,0,1,117.828.2ZM129.384.18a4.525,4.525,0,0,1-3.573-1.332,5.509,5.509,0,0,1-1.287-3.492q-.018-.486-.018-1.656,0-1.188.018-1.692a5.3,5.3,0,0,1,1.3-3.456,4.565,4.565,0,0,1,3.564-1.332,4.589,4.589,0,0,1,3.582,1.332,5.229,5.229,0,0,1,1.278,3.456q.036.5.036,1.692,0,1.17-.036,1.656a5.432,5.432,0,0,1-1.269,3.492A4.549,4.549,0,0,1,129.384.18Zm0-2.07a1.976,1.976,0,0,0,1.692-.747,3.612,3.612,0,0,0,.594-2.1q.036-1.044.036-1.584,0-.594-.036-1.566a3.624,3.624,0,0,0-.594-2.088,1.966,1.966,0,0,0-1.692-.756,1.971,1.971,0,0,0-1.683.756,3.58,3.58,0,0,0-.6,2.088q-.018.486-.018,1.566,0,1.062.018,1.584a3.568,3.568,0,0,0,.6,2.1A1.981,1.981,0,0,0,129.384-1.89ZM141.21.18a4.525,4.525,0,0,1-3.573-1.332,5.509,5.509,0,0,1-1.287-3.492q-.018-.486-.018-1.656,0-1.188.018-1.692a5.3,5.3,0,0,1,1.3-3.456,4.565,4.565,0,0,1,3.564-1.332,4.589,4.589,0,0,1,3.582,1.332,5.229,5.229,0,0,1,1.278,3.456q.036.5.036,1.692,0,1.17-.036,1.656A5.432,5.432,0,0,1,144.8-1.152,4.549,4.549,0,0,1,141.21.18Zm0-2.07a1.976,1.976,0,0,0,1.692-.747,3.612,3.612,0,0,0,.594-2.1q.036-1.044.036-1.584,0-.594-.036-1.566a3.624,3.624,0,0,0-.594-2.088,1.966,1.966,0,0,0-1.692-.756,1.971,1.971,0,0,0-1.683.756,3.58,3.58,0,0,0-.6,2.088q-.018.486-.018,1.566,0,1.062.018,1.584a3.568,3.568,0,0,0,.6,2.1A1.981,1.981,0,0,0,141.21-1.89ZM157.518.18A5.4,5.4,0,0,1,153.675-1.1a4.983,4.983,0,0,1-1.449-3.6q-.018-.486-.018-1.584,0-1.116.018-1.62a4.956,4.956,0,0,1,1.467-3.591,5.384,5.384,0,0,1,3.825-1.287,6.6,6.6,0,0,1,2.79.549,4.4,4.4,0,0,1,1.836,1.494,3.9,3.9,0,0,1,.684,2.133v.036a.307.307,0,0,1-.117.243.394.394,0,0,1-.261.1h-1.71a.5.5,0,0,1-.324-.09.691.691,0,0,1-.18-.342,2.627,2.627,0,0,0-.954-1.593,3.089,3.089,0,0,0-1.782-.459q-2.592,0-2.7,2.9-.018.486-.018,1.494t.018,1.53q.108,2.9,2.7,2.9a3.087,3.087,0,0,0,1.791-.468,2.566,2.566,0,0,0,.945-1.584.571.571,0,0,1,.171-.342.537.537,0,0,1,.333-.09h1.71a.4.4,0,0,1,.279.108.3.3,0,0,1,.1.27,3.9,3.9,0,0,1-.684,2.133,4.4,4.4,0,0,1-1.836,1.494A6.6,6.6,0,0,1,157.518.18Zm12.294,0A5.472,5.472,0,0,1,166-1.062a4.943,4.943,0,0,1-1.44-3.69q-.018-.522-.018-1.53,0-1.026.018-1.548a4.926,4.926,0,0,1,1.476-3.672,5.4,5.4,0,0,1,3.78-1.278A5.435,5.435,0,0,1,173.6-11.5a4.909,4.909,0,0,1,1.485,3.672q.036,1.044.036,1.548,0,.486-.036,1.53a5,5,0,0,1-1.458,3.69A5.472,5.472,0,0,1,169.812.18Zm0-2.07a2.585,2.585,0,0,0,1.926-.729,3.223,3.223,0,0,0,.774-2.223q.036-1.08.036-1.458,0-.414-.036-1.458a3.223,3.223,0,0,0-.774-2.223,2.585,2.585,0,0,0-1.926-.729,2.562,2.562,0,0,0-1.908.729,3.223,3.223,0,0,0-.774,2.223q-.018.522-.018,1.458,0,.918.018,1.458a3.25,3.25,0,0,0,.765,2.223A2.555,2.555,0,0,0,169.812-1.89ZM177.93,0a.457.457,0,0,1-.324-.117.409.409,0,0,1-.126-.315V-12.15a.439.439,0,0,1,.126-.324.439.439,0,0,1,.324-.126h1.422a.556.556,0,0,1,.54.342l3.474,6.48,3.51-6.48a.578.578,0,0,1,.54-.342h1.4a.439.439,0,0,1,.324.126.439.439,0,0,1,.126.324V-.432a.409.409,0,0,1-.126.315A.457.457,0,0,1,188.82,0h-1.512A.417.417,0,0,1,187-.126a.417.417,0,0,1-.126-.306V-8.226l-2.52,4.806a.7.7,0,0,1-.612.4h-.738a.7.7,0,0,1-.612-.4l-2.52-4.806V-.432a.433.433,0,0,1-.117.306.409.409,0,0,1-.315.126Zm14.58,0a.417.417,0,0,1-.306-.126.417.417,0,0,1-.126-.306V-12.15a.457.457,0,0,1,.117-.324.409.409,0,0,1,.315-.126h4.824a5.217,5.217,0,0,1,3.4,1.017A3.627,3.627,0,0,1,201.978-8.6a3.586,3.586,0,0,1-1.233,2.961,5.274,5.274,0,0,1-3.411,1h-2.682V-.432a.433.433,0,0,1-.117.306A.409.409,0,0,1,194.22,0Zm4.734-6.642a2.338,2.338,0,0,0,1.6-.5A1.859,1.859,0,0,0,199.4-8.6a1.964,1.964,0,0,0-.54-1.467,2.223,2.223,0,0,0-1.62-.531h-2.628v3.96ZM202.374,0a.376.376,0,0,1-.261-.108A.352.352,0,0,1,202-.378l.036-.162,4.338-11.61a.584.584,0,0,1,.63-.45h1.962a.619.619,0,0,1,.63.45L213.93-.54a.546.546,0,0,1,.018.162.366.366,0,0,1-.108.27.345.345,0,0,1-.252.108h-1.566a.537.537,0,0,1-.36-.108.489.489,0,0,1-.162-.234l-.846-2.2h-5.346l-.846,2.2A.522.522,0,0,1,203.94,0Zm7.65-4.608-2.052-5.562-2.034,5.562ZM216.054,0a.417.417,0,0,1-.306-.126.417.417,0,0,1-.126-.306V-12.15a.457.457,0,0,1,.117-.324.409.409,0,0,1,.315-.126h1.386a.537.537,0,0,1,.324.081.934.934,0,0,1,.2.207l5.184,8.064v-7.9a.457.457,0,0,1,.117-.324.409.409,0,0,1,.315-.126h1.512a.439.439,0,0,1,.324.126.439.439,0,0,1,.126.324V-.45a.439.439,0,0,1-.126.324.417.417,0,0,1-.306.126h-1.4a.637.637,0,0,1-.522-.288l-5.166-7.884v7.74a.409.409,0,0,1-.126.315.457.457,0,0,1-.324.117Zm16.038,0a.417.417,0,0,1-.306-.126.417.417,0,0,1-.126-.306V-4.5l-4.248-7.524a.378.378,0,0,1-.054-.2.366.366,0,0,1,.108-.27.345.345,0,0,1,.252-.108h1.6a.516.516,0,0,1,.333.108.831.831,0,0,1,.207.234l3.06,5.238,3.042-5.238a.642.642,0,0,1,.558-.342H238.1a.366.366,0,0,1,.27.108.366.366,0,0,1,.108.27.378.378,0,0,1-.054.2L234.18-4.5V-.432a.417.417,0,0,1-.126.306A.439.439,0,0,1,233.73,0Zm7.668,2.862a.43.43,0,0,1-.432-.432V1.35a.417.417,0,0,1,.126-.306.378.378,0,0,1,.27-.126A2.015,2.015,0,0,0,241.281.2a4.451,4.451,0,0,0,.81-2.079,22.316,22.316,0,0,0,.243-3.681,22.146,22.146,0,0,0-.243-3.672,4.438,4.438,0,0,0-.81-2.07,2.015,2.015,0,0,0-1.557-.72.378.378,0,0,1-.27-.126.417.417,0,0,1-.126-.306v-1.08a.417.417,0,0,1,.126-.306.417.417,0,0,1,.306-.126,3.848,3.848,0,0,1,3.582,2q1.152,2,1.152,6.408T243.342.855A3.844,3.844,0,0,1,239.76,2.862Z" transform="translate(658 198)"></path><g class="c"><g transform="translate(880.229 -1186.644)"><g transform="translate(559.864 1381.706)"><path class="d" d="M1156.645,1507.933a18.964,18.964,0,1,1-5.554-13.41A18.907,18.907,0,0,1,1156.645,1507.933Z" transform="translate(-1117.995 -1488.247)"></path><path class="e" d="M1136.4,1526.34a19.709,19.709,0,1,1,13.914-5.773A19.625,19.625,0,0,1,1136.4,1526.34Zm0-37.929a18.264,18.264,0,1,0,12.894,5.349A18.186,18.186,0,0,0,1136.4,1488.411Z" transform="translate(-1116.716 -1486.968)"></path></g><g transform="translate(374.606 1359.053)"><g transform="translate(0 0)"><g transform="translate(0.716 0.741)"><path class="a" d="M649.523,1441.317a8.019,8.019,0,0,0-9.471-8.61,3.8,3.8,0,0,1-2.292-.168,4.286,4.286,0,0,1-1.848-1.411c-3.623-4.8-9.825-5.865-15.113-4.162s-9.66,6.171-9.622,12.432a4.089,4.089,0,0,1-.471,1.926,4.3,4.3,0,0,1-1.31,1.5c-4.154,2.967-5.209,8.289-3.818,12.822s5.228,8.278,10.861,8.091H645.2v-.017c5.182.328,8.594-3.022,9.786-7.085s.163-8.84-3.537-11.365a4.688,4.688,0,0,1-1.539-1.722A3.712,3.712,0,0,1,649.523,1441.317Z" transform="translate(-605 -1426.206)"></path></g><path class="e" d="M614.754,1463.147a10.94,10.94,0,0,1-7.265-2.607,12.84,12.84,0,0,1-3.746-5.618,13.775,13.775,0,0,1-.4-7.382,11,11,0,0,1,4.368-6.621,3.568,3.568,0,0,0,1.092-1.25,3.377,3.377,0,0,0,.387-1.581,12.692,12.692,0,0,1,3.126-8.589,16.142,16.142,0,0,1,15.829-4.856,13.01,13.01,0,0,1,7.077,4.737,3.554,3.554,0,0,0,1.545,1.179,3.1,3.1,0,0,0,1.85.133,7.757,7.757,0,0,1,3.932.094,9.2,9.2,0,0,1,5.959,5.42,7.744,7.744,0,0,1,.463,3.9h0a3.013,3.013,0,0,0,.3,1.778,3.921,3.921,0,0,0,1.314,1.474,9.9,9.9,0,0,1,3.888,5.5,11.987,11.987,0,0,1-.234,7.193,11.032,11.032,0,0,1-3.432,4.982,9.7,9.7,0,0,1-6.672,2.1l-.1,0-.1,0H615.345c-.05,0-.1,0-.15-.006v.007l-.221.005Zm9.594-37.551a14.455,14.455,0,0,0-2.386.2,15.644,15.644,0,0,0-2.422.611,14.18,14.18,0,0,0-6.094,4,11.3,11.3,0,0,0-2.816,7.675,4.812,4.812,0,0,1-.545,2.246,5.008,5.008,0,0,1-1.537,1.768,9.6,9.6,0,0,0-3.814,5.83,12.308,12.308,0,0,0,.377,6.536,11.325,11.325,0,0,0,3.406,5.048,9.6,9.6,0,0,0,6.631,2.191l.3-.01.3-.01,0,.01,0,.01H643.21v-.047l.383.016.383.016a8.363,8.363,0,0,0,5.884-1.751,9.523,9.523,0,0,0,3.015-4.349,10.984,10.984,0,0,0,.336-5.839,8.342,8.342,0,0,0-3.439-5.194,5.349,5.349,0,0,1-1.823-2.083,4.442,4.442,0,0,1-.41-2.565h0a6.312,6.312,0,0,0-.393-3.206,7.763,7.763,0,0,0-4.959-4.51,6.323,6.323,0,0,0-3.236-.09,4.534,4.534,0,0,1-2.675-.177,4.984,4.984,0,0,1-2.21-1.669,11.433,11.433,0,0,0-4.255-3.459A12.733,12.733,0,0,0,624.348,1425.6Z" transform="translate(-603.015 -1424.151)"></path></g><g transform="translate(33.716 12.651)"><path class="b" d="M702.727,1462.341a3.111,3.111,0,1,1-.911-2.2A3.1,3.1,0,0,1,702.727,1462.341Z" transform="translate(-696.505 -1459.23)"></path></g><g transform="translate(38.25 25.3)"><path class="b" d="M715.3,1497.417a3.112,3.112,0,1,1-.911-2.2A3.1,3.1,0,0,1,715.3,1497.417Z" transform="translate(-709.077 -1494.306)"></path></g><g transform="translate(7.71 23.222)"><path class="b" d="M632.423,1492.559a4.014,4.014,0,1,1-1.176-2.839A4,4,0,0,1,632.423,1492.559Z" transform="translate(-624.394 -1488.544)"></path></g><g transform="translate(15.219 8.401)"><path class="b" d="M653.715,1451.7a4.25,4.25,0,1,1-1.245-3A4.236,4.236,0,0,1,653.715,1451.7Z" transform="translate(-645.215 -1447.446)"></path></g><g transform="translate(11.634 26.46)"><path class="b" d="M635.455,1497.522q3.663.5,7.346.854t7.379.574c1.232.071,2.465.135,3.7.18s2.467.07,3.7.064l3.706.027,3.707.027.008.224.008.224-3.715.112-3.715.112c-1.239.053-2.479.074-3.719.075s-2.48-.017-3.72-.041q-3.72-.078-7.438-.3t-7.427-.582l.091-.777Z" transform="translate(-635.274 -1497.522)"></path></g><g transform="translate(11.63 15.244)"><path class="b" d="M635.264,1478.118a115.46,115.46,0,0,0,24.88-11.7l.316.518.316.518a116.349,116.349,0,0,1-25.324,11.253l-.094-.3Z" transform="translate(-635.264 -1466.421)"></path></g><g transform="translate(11.432 12.336)"><path class="b" d="M634.716,1473.1l3.722-7.373,3.722-7.373.592.314.592.314-4.022,7.213-4.022,7.213-.292-.155Z" transform="translate(-634.716 -1458.358)"></path></g><g transform="translate(19.429 12.43)"><path class="b" d="M674.184,1462.529l-8.647-1.735-8.647-1.735.039-.22.04-.22L665.68,1460l8.711,1.376-.1.579Z" transform="translate(-656.89 -1458.619)"></path></g><g transform="translate(36.539 15.658)"><path class="b" d="M704.909,1467.571l2.417,6.271,2.417,6.271-.588.211-.588.211-2.117-6.379-2.117-6.379.288-.1Z" transform="translate(-704.333 -1467.571)"></path></g></g><g transform="translate(315.175 1392.717)"><path class="f" d="M453.4,1538.425l5.843-9.381,5.842-9.382-11.635.51-11.635.51,5.792,8.872Z" transform="translate(-440.517 -1518.882)"></path><path class="e" d="M451.115,1538.383l-6.447-9.875-6.447-9.875,12.951-.568,12.951-.568-6.5,10.443Zm-10.3-18.419,5.137,7.868,5.137,7.868,5.182-8.32,5.182-8.321-10.319.453Z" transform="translate(-438.22 -1517.498)"></path></g><g transform="translate(328.488 1396.609)"><path class="f" d="M475.988,1539.073a206.58,206.58,0,0,1,55.783,39.155l1.087,1.087,1.087,1.087,2.846-2.846,2.846-2.846a123.036,123.036,0,0,0-16.123-16.9,143.2,143.2,0,0,0-45.947-27.635" transform="translate(-475.681 -1529.494)"></path><path class="e" d="M533.4,1580.219l-1.342-1.342-1.342-1.342a206.287,206.287,0,0,0-55.58-39.013l.307-.652.307-.653a207.8,207.8,0,0,1,55.986,39.3l.832.832.832.832,2.368-2.367,2.368-2.368c-.709-.91-2.412-3.029-5.045-5.9a143.95,143.95,0,0,0-10.631-10.426,150.4,150.4,0,0,0-18.773-14.157,135.787,135.787,0,0,0-26.908-13.311l.245-.679.244-.679a137.264,137.264,0,0,1,27.207,13.46,151.794,151.794,0,0,1,18.973,14.314,143.48,143.48,0,0,1,12.022,11.961c2.739,3.083,4.175,5.015,4.2,5.052l.184.25.184.25-3.321,3.32Z" transform="translate(-475.137 -1528.291)"></path></g><g transform="translate(326.102 1394.265)"><path class="f" d="M469.268,1530.62a165.08,165.08,0,0,1,19.5,9.97,203.927,203.927,0,0,1,40.663,31.137l1.087,1.087,1.087,1.087,2.846-2.846,2.846-2.846a123.048,123.048,0,0,0-16.123-16.9,143.215,143.215,0,0,0-45.946-27.635" transform="translate(-468.998 -1522.994)"></path><path class="e" d="M531.123,1573.719l-1.342-1.342-1.342-1.342a203.372,203.372,0,0,0-40.261-30.846,168.372,168.372,0,0,0-19.66-10.1l.27-.669.27-.669a169.761,169.761,0,0,1,19.82,10.181,204.886,204.886,0,0,1,40.581,31.086l.832.832.832.832,2.368-2.367,2.368-2.368c-.709-.91-2.412-3.029-5.045-5.9a143.963,143.963,0,0,0-10.631-10.426,150.393,150.393,0,0,0-18.773-14.157,135.787,135.787,0,0,0-26.908-13.311l.245-.679.244-.679a137.266,137.266,0,0,1,27.207,13.46,151.79,151.79,0,0,1,18.973,14.314,143.489,143.489,0,0,1,12.022,11.961c2.739,3.083,4.175,5.015,4.2,5.052l.184.25.184.25-3.32,3.32Z" transform="translate(-468.519 -1521.791)"></path></g><g transform="translate(573.637 1407.94)"><path class="g" d="M1172.821,1574.023l-3.321,4.744-3.321,4.744-4.249-2.852-4.249-2.852,3.273-4.877,3.273-4.877,2.293-1.193,2.293-1.193,2.421-1.261,2.421-1.261-.209,2.745-.209,2.745-.207,2.693Z" transform="translate(-1156.681 -1561.907)"></path><path class="e" d="M1164.591,1582.308l-4.842-3.25-4.843-3.25,3.525-5.252,3.525-5.252,5.371-2.8,5.37-2.8-.473,6.184-.473,6.184-3.58,5.115Zm-7.683-6.893,3.656,2.453,3.656,2.453,3.061-4.374,3.061-4.374.359-4.693.359-4.693L1167,1564.3l-4.056,2.112-3.02,4.5Z" transform="translate(-1154.906 -1559.71)"></path></g><g transform="translate(583.849 1408.013)"><path class="h" d="M1193.753,1568.457a5.115,5.115,0,0,0-3.952-2.848l2.17-1.13,2.17-1.13-.194,2.554Z" transform="translate(-1187.428 -1562.11)"></path><path class="e" d="M1190.063,1568.987l-.583-1.207-.583-1.207a4.372,4.372,0,0,0-.638-.968,4.419,4.419,0,0,0-1.773-1.235,4.364,4.364,0,0,0-.983-.244l-1.14-.146-1.14-.146,3.765-1.961,3.765-1.961-.344,4.537Zm-2.57-5.751q.18.088.354.188t.344.214c.14.094.275.194.406.3s.256.215.377.331l.071-.939.071-.939-.812.423Z" transform="translate(-1183.222 -1559.913)"></path></g><g transform="translate(251.843 1393.305)"><path class="f" d="M312.393,1524.693l-22.375,18.069-22.376,18.069-1.11-1.375-1.11-1.375,22.376-18.069,22.375-18.069,1.11,1.375Z" transform="translate(-264.407 -1520.928)"></path><path class="e" d="M265.736,1560.047l-1.564-1.936-1.563-1.936,22.936-18.522,22.937-18.522,1.563,1.936,1.564,1.936-22.937,18.522Zm-1.1-3.656.657.814.657.814,21.814-17.616,21.814-17.616-.657-.814-.657-.814-21.814,17.616Z" transform="translate(-262.609 -1519.13)"></path></g><g transform="translate(390.208 1395.659)"><path class="f" d="M651.953,1527.809l1.945,24.6,1.945,24.6-1.762.14-1.762.14-1.945-24.6-1.945-24.6,1.762-.14Z" transform="translate(-647.653 -1527.033)"></path><path class="e" d="M650.282,1576.68l-2-25.314-2-25.314,2.481-.2,2.481-.2,2,25.314,2,25.314-2.481.2Zm-2.453-49.3,1.889,23.876,1.888,23.877,1.043-.083,1.043-.083-1.888-23.876-1.888-23.876-1.043.083Z" transform="translate(-646.278 -1525.658)"></path></g><g transform="translate(295.425 1383.979)"><path class="f" d="M403.737,1495.484l-7.071,28.2-7.071,28.2-1.762.14-1.762.14,7.071-28.2,7.071-28.2,1.762-.14Z" transform="translate(-385.128 -1494.686)"></path><path class="e" d="M383.455,1551.55l7.256-28.94,7.256-28.94,2.52-.2,2.521-.2-7.256,28.94-7.256,28.94-2.52.2Zm15.658-56.524-6.886,27.463-6.885,27.464,1-.079,1-.079,6.886-27.463,6.885-27.464-1,.079Z" transform="translate(-383.455 -1493.271)"></path></g><g transform="translate(382.719 1386.709)"><path class="f" d="M646.894,1512.529a9.691,9.691,0,1,1-2.838-6.852A9.659,9.659,0,0,1,646.894,1512.529Z" transform="translate(-626.792 -1502.118)"></path><path class="e" d="M635.925,1521.662a10.423,10.423,0,1,1,7.359-3.053A10.379,10.379,0,0,1,635.925,1521.662Zm0-19.381a8.979,8.979,0,1,0,6.339,2.63A8.941,8.941,0,0,0,635.925,1502.281Z" transform="translate(-625.513 -1500.839)"></path></g><g transform="translate(393.079 1398.808)"><path class="f" d="M657.05,1585.166l29.7-23.982,29.7-23.982,1.11,1.375,1.11,1.375-29.7,23.982-29.7,23.982-1.11-1.375Z" transform="translate(-656.036 -1536.188)"></path><path class="e" d="M657.365,1587.132,655.8,1585.2l-1.563-1.936.281-.227.281-.226,29.978-24.208,29.979-24.208,1.563,1.936,1.564,1.936-.281.227-.281.226-29.979,24.208Zm-1.1-3.656.657.814.657.814,29.137-23.529,29.137-23.529-.657-.814-.657-.813L685.4,1559.947Z" transform="translate(-654.238 -1534.39)"></path></g><g transform="translate(299.281 1441.72)"><path class="f" d="M396.744,1655.4l46.973.436,46.973.436-.187,1.757-.187,1.757-46.973-.436-46.973-.436.187-1.757Z" transform="translate(-395.569 -1654.668)"></path><path class="e" d="M489.543,1659.219l-47.7-.442-47.7-.443.264-2.478.264-2.478,47.7.442,47.7.443-.264,2.478Zm-93.792-2.312,46.248.429,46.249.429.11-1.037.11-1.037-46.248-.429-46.248-.429-.11,1.037Z" transform="translate(-394.148 -1653.379)"></path></g><g transform="translate(386.431 1436.264)"><path class="f" d="M637.8,1649.94a9.69,9.69,0,1,1,2.838,6.852A9.661,9.661,0,0,1,637.8,1649.94Z" transform="translate(-637.083 -1639.529)"></path><path class="e" d="M646.216,1659.073a10.423,10.423,0,1,1,7.359-3.053A10.379,10.379,0,0,1,646.216,1659.073Zm0-19.38a8.978,8.978,0,1,0,6.339,2.63A8.941,8.941,0,0,0,646.216,1639.693Z" transform="translate(-635.804 -1638.25)"></path></g><g transform="translate(446.516 1390.261)"><path class="f" d="M804.415,1522.379a9.69,9.69,0,1,1,2.838,6.852A9.66,9.66,0,0,1,804.415,1522.379Z" transform="translate(-803.694 -1511.967)"></path><path class="e" d="M812.826,1531.511a10.424,10.424,0,1,1,7.359-3.053A10.38,10.38,0,0,1,812.826,1531.511Zm0-19.381a8.979,8.979,0,1,0,6.339,2.63A8.943,8.943,0,0,0,812.826,1512.13Z" transform="translate(-802.415 -1510.688)"></path></g><g transform="translate(286.993 1432.711)"><path class="f" d="M362.074,1640.088a9.69,9.69,0,1,1,2.838,6.852A9.66,9.66,0,0,1,362.074,1640.088Z" transform="translate(-361.353 -1629.677)"></path><path class="e" d="M370.486,1649.221a10.424,10.424,0,1,1,7.358-3.053A10.379,10.379,0,0,1,370.486,1649.221Zm0-19.381a8.98,8.98,0,1,0,6.339,2.63A8.943,8.943,0,0,0,370.486,1629.84Z" transform="translate(-360.074 -1628.398)"></path></g><g transform="translate(245.771 1418.722)"><path class="f" d="M267.153,1601.3a9.691,9.691,0,1,1-2.838-6.852A9.661,9.661,0,0,1,267.153,1601.3Z" transform="translate(-247.05 -1590.888)"></path><path class="e" d="M256.183,1610.432a10.424,10.424,0,1,1,7.359-3.053A10.38,10.38,0,0,1,256.183,1610.432Zm0-19.38a8.98,8.98,0,1,0,6.339,2.63A8.94,8.94,0,0,0,256.183,1591.052Z" transform="translate(-245.771 -1589.609)"></path></g><g transform="translate(414.83 1323.126)"><path class="i" d="M813.215,1489.844l-46.468-10.661-46.468-10.661a4.8,4.8,0,0,1-3.6-5.748l15.2-66.259,15.2-66.259a4.8,4.8,0,0,1,5.748-3.6l46.468,10.661,46.468,10.661a4.8,4.8,0,0,1,3.6,5.748l-15.2,66.259-15.2,66.259a4.8,4.8,0,0,1-5.748,3.6Z" transform="translate(-715.832 -1325.809)"></path><path class="e" d="M813.019,1489.411a5.437,5.437,0,0,1-.622-.036,5.593,5.593,0,0,1-.622-.106l-46.468-10.662-46.468-10.661a5.509,5.509,0,0,1-4.144-6.612l15.2-66.259,15.2-66.259a5.523,5.523,0,0,1,6.612-4.144l46.468,10.661,46.468,10.661a5.524,5.524,0,0,1,4.144,6.612l-15.2,66.259-15.2,66.259a5.533,5.533,0,0,1-3.857,4.073A5.45,5.45,0,0,1,813.019,1489.411Zm-.922-1.548a4.069,4.069,0,0,0,4.883-3.062l15.2-66.259,15.2-66.259a4.081,4.081,0,0,0-3.061-4.884l-46.468-10.661-46.468-10.661a4.08,4.08,0,0,0-4.884,3.061L731.3,1395.4l-15.2,66.259a4.068,4.068,0,0,0,3.061,4.884l46.468,10.661Z" transform="translate(-714.552 -1324.531)"></path></g><g transform="translate(412.115 1322.333)"><path class="j" d="M805.682,1487.647l-46.468-10.661-46.468-10.661a4.8,4.8,0,0,1-3.6-5.748l15.2-66.259,15.2-66.259a4.8,4.8,0,0,1,5.748-3.6l46.468,10.661,46.468,10.661a4.8,4.8,0,0,1,3.6,5.748l-15.2,66.259-15.2,66.259a4.8,4.8,0,0,1-5.748,3.6Z" transform="translate(-708.301 -1323.613)"></path><path class="e" d="M805.488,1487.213a5.465,5.465,0,0,1-.622-.035,5.533,5.533,0,0,1-.622-.106l-46.468-10.661-46.468-10.661a5.524,5.524,0,0,1-4.144-6.612l15.2-66.259,15.2-66.259a5.521,5.521,0,0,1,6.612-4.144l46.468,10.661,46.468,10.661a5.507,5.507,0,0,1,4.144,6.612l-15.2,66.259-15.2,66.259A5.535,5.535,0,0,1,807,1487,5.451,5.451,0,0,1,805.488,1487.213Zm-.922-1.548a4.068,4.068,0,0,0,4.884-3.061l15.2-66.259,15.2-66.259a4.068,4.068,0,0,0-3.061-4.883l-46.468-10.661-46.468-10.661a4.081,4.081,0,0,0-4.884,3.061l-15.2,66.259-15.2,66.259a4.068,4.068,0,0,0,3.061,4.884L758.1,1475Z" transform="translate(-707.023 -1322.333)"></path></g><g transform="translate(420.016 1338.157)"><path class="i" d="M831.078,1513.766H735.728a4.8,4.8,0,0,1-4.8-4.8V1373.008a4.8,4.8,0,0,1,4.8-4.8h95.351a4.8,4.8,0,0,1,4.8,4.8v135.961a4.8,4.8,0,0,1-4.8,4.8Z" transform="translate(-730.21 -1367.49)"></path><path class="e" d="M829.8,1513.208H734.45a5.524,5.524,0,0,1-5.518-5.518V1371.729a5.524,5.524,0,0,1,5.518-5.518H829.8a5.524,5.524,0,0,1,5.518,5.518V1507.69a5.524,5.524,0,0,1-5.518,5.518ZM734.45,1367.654a4.08,4.08,0,0,0-4.075,4.075V1507.69a4.079,4.079,0,0,0,4.075,4.075H829.8a4.08,4.08,0,0,0,4.076-4.075V1371.729a4.081,4.081,0,0,0-4.076-4.075H734.45Z" transform="translate(-728.932 -1366.211)"></path></g><g transform="translate(417.831 1338.157)"><path class="j" d="M825.02,1513.766H729.67a4.8,4.8,0,0,1-4.8-4.8V1373.008a4.8,4.8,0,0,1,4.8-4.8h95.35a4.8,4.8,0,0,1,4.8,4.8v135.961a4.8,4.8,0,0,1-4.8,4.8Z" transform="translate(-724.152 -1367.49)"></path><path class="e" d="M823.742,1513.208h-95.35a5.524,5.524,0,0,1-5.518-5.518V1371.729a5.525,5.525,0,0,1,5.518-5.518h95.35a5.525,5.525,0,0,1,5.518,5.518V1507.69a5.524,5.524,0,0,1-5.518,5.518Zm-95.35-145.555a4.081,4.081,0,0,0-4.076,4.075V1507.69a4.08,4.08,0,0,0,4.076,4.075h95.35a4.08,4.08,0,0,0,4.076-4.075V1371.729a4.081,4.081,0,0,0-4.076-4.075h-95.35Z" transform="translate(-722.873 -1366.211)"></path></g><g transform="translate(427.381 1349.373)"><path class="k" d="M819.04,1410.382H751.356v-11.071H819.04v11.071Z" transform="translate(-750.635 -1398.59)"></path><path class="e" d="M818.483,1409.825H749.356v-12.513h69.127v12.513Zm-67.684-1.443H817.04v-9.628H750.8v9.628Z" transform="translate(-749.356 -1397.312)"></path></g><g transform="translate(427.381 1364.973)"><path class="k" d="M819.04,1453.64H751.356v-11.071H819.04v11.071Z" transform="translate(-750.635 -1441.847)"></path><path class="e" d="M818.483,1453.082H749.356v-12.514h69.127v12.514Zm-67.684-1.443H817.04v-9.629H750.8v9.629Z" transform="translate(-749.356 -1440.568)"></path></g><g transform="translate(427.381 1380.573)"><path class="k" d="M819.04,1496.9H751.356v-11.071H819.04V1496.9Z" transform="translate(-750.635 -1485.105)"></path><path class="e" d="M818.483,1496.339H749.356v-12.513h69.127v12.513ZM750.8,1494.9H817.04v-9.628H750.8v9.628Z" transform="translate(-749.356 -1483.826)"></path></g><g transform="translate(427.381 1398.62)"><path class="k" d="M819.04,1546.939H751.356v-11.071H819.04v11.071Z" transform="translate(-750.635 -1535.147)"></path><path class="e" d="M818.483,1546.381H749.356v-12.513h69.127v12.513Zm-67.684-1.443H817.04v-9.628H750.8v9.628Z" transform="translate(-749.356 -1533.868)"></path></g><g transform="translate(427.381 1414.22)"><path class="k" d="M818.78,1590.2H751.356v-11.071H818.78V1590.2Z" transform="translate(-750.635 -1578.404)"></path><path class="e" d="M818.222,1589.639H749.356v-12.514h68.866v12.514ZM750.8,1588.2H816.78v-9.629H750.8v9.629Z" transform="translate(-749.356 -1577.125)"></path></g><g transform="translate(427.381 1429.821)"><path class="k" d="M803.076,1633.453h-51.72v-11.071h51.72v11.071Z" transform="translate(-750.635 -1621.661)"></path><path class="e" d="M802.519,1632.9H749.356v-12.513h53.163V1632.9Zm-51.72-1.443h50.278v-9.628H750.8v9.628Z" transform="translate(-749.356 -1620.383)"></path></g><g transform="translate(427.381 1446.832)"><path class="k" d="M803.076,1680.624h-51.72v-11.071h51.72v11.071Z" transform="translate(-750.635 -1668.832)"></path><path class="e" d="M802.519,1680.067H749.356v-12.514h53.163v12.514Zm-51.72-1.443h50.278V1669H750.8v9.629Z" transform="translate(-749.356 -1667.553)"></path></g><g transform="translate(482.832 1428.322)"><path class="l" d="M928.514,1629.926a11.7,11.7,0,1,1-3.427-8.273A11.664,11.664,0,0,1,928.514,1629.926Z" transform="translate(-904.393 -1617.505)"></path><path class="e" d="M915.536,1641.069a12.435,12.435,0,1,1,8.779-3.642A12.383,12.383,0,0,1,915.536,1641.069Zm0-23.4a10.991,10.991,0,1,0,7.76,3.219A10.946,10.946,0,0,0,915.536,1617.669Z" transform="translate(-903.115 -1616.227)"></path></g><g transform="translate(418.763 1402.538)"><g transform="translate(47.102 2.417)"><path class="m" d="M911.743,1562.643a31.443,31.443,0,1,0,9.209,22.234A31.344,31.344,0,0,0,911.743,1562.643Zm-40.211,40.211a25.425,25.425,0,1,1,17.978,7.447A25.344,25.344,0,0,1,871.532,1602.854Z" transform="translate(-857.347 -1552.713)"></path><path class="e" d="M888.232,1615.761a32.181,32.181,0,1,1,22.743-54.907h0a32.143,32.143,0,0,1-22.743,54.907Zm0-62.885a30.7,30.7,0,1,0,21.723,9h0a30.519,30.519,0,0,0-21.723-9Zm0,56.855a26.064,26.064,0,0,1-18.488-7.646h0a26.216,26.216,0,1,1,18.488,7.646Zm-17.468-8.665a24.732,24.732,0,1,0-7.224-17.469,24.624,24.624,0,0,0,7.224,17.469Z" transform="translate(-856.068 -1551.434)"></path></g><g transform="translate(23.853 48.446)"><path class="f" d="M801.1,1721.282l-3.333-3.333-3.333-3.333,16.36-16.36,16.36-16.36,3.333,3.333,3.333,3.333-16.36,16.36Z" transform="translate(-793.411 -1680.877)"></path><path class="e" d="M799.287,1720.494l-3.843-3.843-3.843-3.843,16.87-16.87,16.871-16.871,3.843,3.843,3.843,3.843-16.87,16.87Zm-5.645-7.685,2.822,2.823,2.823,2.823,15.85-15.85,15.85-15.85-2.823-2.823-2.822-2.823-15.85,15.85Z" transform="translate(-791.602 -1679.068)"></path></g><g transform="translate(2.997 70.346)"><path class="f" d="M744.31,1779.988l-3.87-3.871-3.871-3.87a2.75,2.75,0,0,1,0-3.889l12.882-12.882,12.883-12.883a2.75,2.75,0,0,1,3.888,0l3.871,3.871,3.87,3.87a2.75,2.75,0,0,1,0,3.889l-12.882,12.882L748.2,1779.988a2.75,2.75,0,0,1-3.889,0Z" transform="translate(-735.044 -1741.068)"></path><path class="e" d="M744.978,1780.237a3.459,3.459,0,0,1-2.454-1.015l-3.87-3.87-3.871-3.871a3.474,3.474,0,0,1,0-4.909l12.882-12.882,12.882-12.883a3.475,3.475,0,0,1,4.909,0l3.871,3.871,3.87,3.87a3.475,3.475,0,0,1,0,4.909l-12.882,12.882-12.882,12.883a3.458,3.458,0,0,1-2.454,1.015Zm18.024-39a2.014,2.014,0,0,0-1.435.594l-12.882,12.882L735.8,1767.593a2.031,2.031,0,0,0,0,2.869l3.871,3.87,3.87,3.871a2.025,2.025,0,0,0,2.869,0L759.3,1765.32l12.882-12.883a2.031,2.031,0,0,0,0-2.868l-3.871-3.87-3.87-3.87a2.014,2.014,0,0,0-1.434-.594Z" transform="translate(-733.768 -1739.793)"></path></g><g transform="translate(21.104 46.102)"><path class="f" d="M793.472,1714.782l-3.333-3.333-3.333-3.333,16.36-16.36,16.36-16.36,3.333,3.333,3.333,3.333-16.36,16.36Z" transform="translate(-785.787 -1674.376)"></path><path class="e" d="M791.664,1713.994l-3.843-3.843-3.843-3.843,16.87-16.87,16.87-16.87,3.843,3.843,3.843,3.843-16.87,16.87Zm-5.645-7.686,2.822,2.823,2.823,2.823,15.85-15.85,15.85-15.85-2.823-2.823-2.822-2.822-15.85,15.85Z" transform="translate(-783.978 -1672.568)"></path></g><g transform="translate(43.86)"><path class="m" d="M902.754,1555.9a31.444,31.444,0,1,0,9.209,22.233A31.343,31.343,0,0,0,902.754,1555.9Zm-40.212,40.211a25.425,25.425,0,1,1,17.978,7.447A25.344,25.344,0,0,1,862.542,1596.112Z" transform="translate(-848.357 -1545.985)"></path><path class="e" d="M879.242,1609.045a32.156,32.156,0,1,1,22.743-54.907h0a32.143,32.143,0,0,1-22.743,54.907Zm0-62.871a30.632,30.632,0,1,0,11.566,2.246A30.833,30.833,0,0,0,879.242,1546.174Zm0,56.842a26.07,26.07,0,0,1-18.488-7.646h0a26.214,26.214,0,1,1,18.488,7.646Zm-17.468-8.666a24.732,24.732,0,1,0-7.224-17.468,24.628,24.628,0,0,0,7.224,17.468Z" transform="translate(-847.078 -1544.732)"></path></g><g transform="translate(0 67.042)"><path class="f" d="M736,1771.162l-3.87-3.871-3.87-3.87a2.749,2.749,0,0,1,0-3.889l13.05-13.05,13.05-13.051a2.75,2.75,0,0,1,3.889,0l3.87,3.87,3.871,3.871a2.749,2.749,0,0,1,0,3.888l-13.05,13.05-13.05,13.05a2.75,2.75,0,0,1-3.889,0Z" transform="translate(-726.734 -1731.907)"></path><path class="e" d="M736.669,1771.411a3.483,3.483,0,0,1-1.307-.254,3.448,3.448,0,0,1-1.148-.761l-3.87-3.871-3.871-3.87a3.475,3.475,0,0,1,0-4.908l13.05-13.05,13.05-13.05a3.475,3.475,0,0,1,4.909,0l3.871,3.87,3.87,3.87a3.475,3.475,0,0,1,0,4.909l-13.05,13.05-13.05,13.05a3.449,3.449,0,0,1-1.147.761A3.484,3.484,0,0,1,736.669,1771.411Zm18.359-39.338a2.022,2.022,0,0,0-1.435.593l-13.05,13.05-13.05,13.05a2.032,2.032,0,0,0,0,2.869l3.871,3.87,3.87,3.87a2.03,2.03,0,0,0,2.869,0l13.05-13.05,13.05-13.05a2.031,2.031,0,0,0,0-2.869l-3.87-3.87-3.87-3.87a2.023,2.023,0,0,0-1.434-.593Z" transform="translate(-725.459 -1730.632)"></path></g></g><g transform="translate(546.683 1413.66)"><path class="n" d="M1122.617,1585.537l-15.549,23.17-15.549,23.17a5.112,5.112,0,1,1-8.49-5.7l15.55-23.17,15.549-23.17a5.092,5.092,0,0,1,1.443-1.428,5.117,5.117,0,0,1,2.631-.835,4.992,4.992,0,0,1,.824.039,5.114,5.114,0,0,1,3.952,2.848,5.159,5.159,0,0,1,.5,2.544A5.088,5.088,0,0,1,1122.617,1585.537Z" transform="translate(-1081.441 -1576.852)"></path><path class="e" d="M1085.985,1633.585a5.767,5.767,0,0,1-1.685-.251,5.84,5.84,0,0,1-3.145-8.835l15.549-23.17,15.549-23.17a5.839,5.839,0,0,1,4.656-2.583,5.71,5.71,0,0,1,.934.045,5.8,5.8,0,0,1,1.3.323,5.846,5.846,0,0,1,2.792,8.716l-15.549,23.17-15.55,23.17a5.8,5.8,0,0,1-3.718,2.473q-.285.056-.57.084C1086.364,1633.576,1086.174,1633.585,1085.985,1633.585Zm31.116-56.571c-.141,0-.284.007-.425.021s-.284.035-.425.063a4.377,4.377,0,0,0-2.8,1.864l-15.55,23.17-15.549,23.17a4.391,4.391,0,1,0,7.292,4.894l15.55-23.17,15.549-23.171a4.4,4.4,0,0,0-2.1-6.561,4.331,4.331,0,0,0-.982-.243q-.139-.018-.278-.027C1117.288,1577.018,1117.195,1577.015,1117.1,1577.015Z" transform="translate(-1080.167 -1575.572)"></path></g><g transform="translate(539.962 1462.456)"><path class="l" d="M1065.788,1729.8h0a5.112,5.112,0,0,0,7.094-1.4l2.537-3.781,2.538-3.781a5.112,5.112,0,0,0-1.4-7.094h0a5.112,5.112,0,0,0-7.094,1.4l-2.537,3.781-2.537,3.781a5.112,5.112,0,0,0,1.4,7.094Z" transform="translate(-1062.805 -1712.157)"></path><path class="e" d="M1067.353,1730.1a5.8,5.8,0,0,1-3.242-.987h0a5.84,5.84,0,0,1-1.593-8.095l2.537-3.781,2.537-3.781a5.833,5.833,0,1,1,9.687,6.5l-2.537,3.781-2.537,3.781a5.793,5.793,0,0,1-2.143,1.918A5.875,5.875,0,0,1,1067.353,1730.1Zm-2.438-2.185a4.4,4.4,0,0,0,6.093-1.2l2.537-3.781,2.537-3.781a4.391,4.391,0,1,0-7.292-4.894l-2.537,3.781-2.537,3.781a4.4,4.4,0,0,0,1.2,6.093Z" transform="translate(-1061.53 -1710.877)"></path></g><g transform="translate(539.892 1469.871)"><path class="l" d="M1072.78,1741.521a5.284,5.284,0,0,1-3.317,2.241,5.067,5.067,0,0,1-6.036-4.051,5.322,5.322,0,0,1,4.134-6.16,5.067,5.067,0,0,1,6.036,4.051A5.285,5.285,0,0,1,1072.78,1741.521Z" transform="translate(-1062.616 -1732.72)"></path><path class="e" d="M1067.121,1743.312a5.794,5.794,0,0,1-4.83-2.609,5.843,5.843,0,0,1-.855-2.14,5.96,5.96,0,0,1,.023-2.312,6.111,6.111,0,0,1,2.542-3.789,5.971,5.971,0,0,1,2.131-.9,5.84,5.84,0,0,1,2.3-.02,5.809,5.809,0,0,1,3.733,2.5,5.844,5.844,0,0,1,.855,2.14,5.959,5.959,0,0,1-.023,2.313,6.108,6.108,0,0,1-2.542,3.789,5.991,5.991,0,0,1-2.736.991A5.809,5.809,0,0,1,1067.121,1743.312Zm.216-10.43a4.34,4.34,0,0,0-.454.024,4.548,4.548,0,0,0-2.075.753,4.66,4.66,0,0,0-1.935,2.883,4.527,4.527,0,0,0-.018,1.757,4.408,4.408,0,0,0,.643,1.611,4.354,4.354,0,0,0,2.8,1.881,4.409,4.409,0,0,0,1.734-.015,4.534,4.534,0,0,0,1.619-.682,4.66,4.66,0,0,0,1.934-2.883,4.525,4.525,0,0,0,.018-1.757,4.406,4.406,0,0,0-.643-1.611,4.335,4.335,0,0,0-3.627-1.96Z" transform="translate(-1061.335 -1731.439)"></path></g><g transform="translate(548.339 1385.287)"><path class="g" d="M1093.143,1503.044l3.927-1.761,3.927-1.761,1.624,3.438,1.624,3.439-3.946,1.864-3.946,1.864-1.917-.113-1.917-.113-2.025-.118-2.025-.118,1.18-1.672,1.18-1.671,1.158-1.639Z" transform="translate(-1087.129 -1498.575)"></path><path class="e" d="M1094.121,1509.178l-4.682-.274-4.682-.273,2.77-3.922,2.769-3.922,4.339-1.946,4.339-1.946,1.929,4.084,1.929,4.084-4.355,2.057Zm-6.689-1.836,3.2.188,3.2.187,3.537-1.67,3.537-1.67-1.319-2.793-1.319-2.793-3.514,1.576-3.514,1.576-1.907,2.7Z" transform="translate(-1084.757 -1496.896)"></path></g><g transform="translate(558.184 1359.889)"><path class="a" d="M1116.989,1452.8l25.232-11.916,25.232-11.916a5.112,5.112,0,1,1,4.366,9.245l-25.232,11.916-25.232,11.916a5.116,5.116,0,0,1-4.658-.146,4.984,4.984,0,0,1-.688-.456,5.118,5.118,0,0,1-1.932-4.472,5.159,5.159,0,0,1,.878-2.439A5.087,5.087,0,0,1,1116.989,1452.8Z" transform="translate(-1113.336 -1427.752)"></path><path class="e" d="M1117.9,1461.974a5.788,5.788,0,0,1-.993-.086,5.862,5.862,0,0,1-1.839-.646,5.711,5.711,0,0,1-.78-.519,5.777,5.777,0,0,1-.954-.947,5.874,5.874,0,0,1-1.181-2.616,5.8,5.8,0,0,1-.068-1.538,5.871,5.871,0,0,1,3.322-4.76l25.232-11.916,25.232-11.916a5.833,5.833,0,1,1,4.982,10.549l-25.232,11.916-25.232,11.916a5.885,5.885,0,0,1-1.222.421A5.777,5.777,0,0,1,1117.9,1461.974Zm50.46-34.061a4.339,4.339,0,0,0-.953.106,4.4,4.4,0,0,0-.92.317l-25.232,11.916-25.232,11.916a4.389,4.389,0,0,0-.842,7.423,4.293,4.293,0,0,0,.586.389,4.382,4.382,0,0,0,4.005.127L1145,1448.192l25.232-11.916a4.387,4.387,0,0,0-.392-8.1,4.476,4.476,0,0,0-.737-.2A4.361,4.361,0,0,0,1168.355,1427.913Z" transform="translate(-1112.057 -1426.47)"></path></g><g transform="translate(580.168 1360.321)"><path class="a" d="M1177.948,1443.153l13.8-6.5,13.8-6.5a5.112,5.112,0,1,1,4.366,9.245l-13.8,6.5-13.8,6.5a5.119,5.119,0,0,1-4.658-.146,5.114,5.114,0,0,1-1.512-1.272,5.118,5.118,0,0,1-1.108-3.655,5.158,5.158,0,0,1,.878-2.439A5.088,5.088,0,0,1,1177.948,1443.153Z" transform="translate(-1174.294 -1428.945)"></path><path class="e" d="M1178.854,1452.335a5.785,5.785,0,0,1-.992-.085,5.886,5.886,0,0,1-1.839-.646,5.7,5.7,0,0,1-.78-.518,5.791,5.791,0,0,1-.954-.947,5.846,5.846,0,0,1,2.073-8.914h0l13.8-6.5,13.8-6.5a5.833,5.833,0,1,1,4.982,10.55l-13.8,6.5-13.8,6.5a5.856,5.856,0,0,1-1.222.42A5.757,5.757,0,0,1,1178.854,1452.335Zm-1.877-9.806a4.4,4.4,0,0,0-1.56,6.71,4.346,4.346,0,0,0,.719.713,4.283,4.283,0,0,0,.586.39,4.38,4.38,0,0,0,4.005.127l13.8-6.5,13.8-6.5a4.391,4.391,0,0,0-3.751-7.94l-13.8,6.5-13.8,6.5h0Z" transform="translate(-1173.016 -1427.668)"></path></g><g transform="translate(611.32 1354.742)"><path class="k" d="M1279.373,1417.124h0a5.113,5.113,0,0,0-6.806-2.44l-4.117,1.944-4.117,1.945a5.112,5.112,0,0,0-2.44,6.806h0a5.112,5.112,0,0,0,6.806,2.44l4.117-1.944,4.117-1.944a5.112,5.112,0,0,0,2.44-6.806Z" transform="translate(-1260.679 -1413.474)"></path><path class="e" d="M1265.243,1427.754a5.874,5.874,0,0,1-3.09-.881,5.827,5.827,0,0,1,.59-10.227l4.117-1.944,4.117-1.945a5.84,5.84,0,0,1,7.766,2.784h0a5.841,5.841,0,0,1-2.784,7.766l-4.117,1.944-4.117,1.944a5.848,5.848,0,0,1-1.229.421A5.773,5.773,0,0,1,1265.243,1427.754Zm8.218-14.113a4.367,4.367,0,0,0-.943.1,4.415,4.415,0,0,0-.925.317l-4.117,1.945-4.117,1.944a4.391,4.391,0,0,0,3.75,7.941l4.117-1.945,4.117-1.944a4.4,4.4,0,0,0,2.1-5.846h0a4.367,4.367,0,0,0-1.652-1.853A4.423,4.423,0,0,0,1273.461,1413.641Z" transform="translate(-1259.397 -1412.198)"></path></g><g transform="translate(619.422 1354.732)"><path class="k" d="M1286.9,1414.691a5.285,5.285,0,0,1,4-.223,5.067,5.067,0,0,1,3.1,6.573,5.323,5.323,0,0,1-6.708,3.168,5.067,5.067,0,0,1-3.1-6.573A5.284,5.284,0,0,1,1286.9,1414.691Z" transform="translate(-1283.146 -1413.454)"></path><path class="e" d="M1287.737,1423.94a5.9,5.9,0,0,1-.989-.083,6.011,6.011,0,0,1-.972-.249,5.847,5.847,0,0,1-1.988-1.165,5.811,5.811,0,0,1-1.92-4.065,5.84,5.84,0,0,1,.364-2.275,5.967,5.967,0,0,1,1.205-1.974,6.111,6.111,0,0,1,4.126-1.948,5.96,5.96,0,0,1,2.29.323,5.846,5.846,0,0,1,1.988,1.165,5.809,5.809,0,0,1,1.92,4.065,5.848,5.848,0,0,1-.364,2.275,5.968,5.968,0,0,1-1.206,1.974,6.053,6.053,0,0,1-1.874,1.374,6.133,6.133,0,0,1-1.269.437A5.975,5.975,0,0,1,1287.737,1423.94Zm.156-10.325a4.527,4.527,0,0,0-1,.112,4.678,4.678,0,0,0-.967.333,4.614,4.614,0,0,0-1.426,1.045,4.528,4.528,0,0,0-.916,1.5,4.41,4.41,0,0,0-.274,1.712,4.353,4.353,0,0,0,1.442,3.054,4.4,4.4,0,0,0,1.5.876,4.534,4.534,0,0,0,1.74.244,4.658,4.658,0,0,0,3.139-1.482,4.534,4.534,0,0,0,.916-1.5,4.406,4.406,0,0,0,.274-1.712,4.355,4.355,0,0,0-1.442-3.054,4.408,4.408,0,0,0-1.5-.876,4.568,4.568,0,0,0-.737-.189A4.52,4.52,0,0,0,1287.893,1413.615Z" transform="translate(-1281.863 -1412.172)"></path></g><g transform="translate(285.721 1390.735)"><path class="f" d="M375.684,1530.895l-.045-8.446-.045-8.446H360.48l6.138,8.423,6.137,8.422,1.464.023Z" transform="translate(-359.062 -1513.282)"></path><path class="e" d="M373.9,1530.349l-2.013-.032-2.013-.033-6.661-9.141L356.548,1512H373.8l.049,9.173Zm-3.283-1.495.916.014.916.015-.041-7.719-.041-7.719H359.384l5.614,7.7Z" transform="translate(-356.548 -1512.003)"></path></g><g transform="translate(283.962 1390.78)"><path class="f" d="M368.264,1530.956v-16.708a.122.122,0,0,0-.035-.086.12.12,0,0,0-.086-.035h-14.35a.121.121,0,0,0-.088.2l7.175,8.354,7.175,8.354a.121.121,0,0,0,.209-.083Z" transform="translate(-352.95 -1513.406)"></path><path class="e" d="M366.861,1530.521a.835.835,0,0,1-.33-.068.852.852,0,0,1-.282-.2l-7.186-8.367-7.186-8.367a.77.77,0,0,1-.2-.409.863.863,0,0,1,.058-.477.842.842,0,0,1,.774-.51h14.35a.843.843,0,0,1,.842.842v16.708a.837.837,0,0,1-.532.783.857.857,0,0,1-.313.06Zm-13.043-16.951,6.222,7.244,6.222,7.244v-14.489H353.819Zm-.87-1.013.019.023.019.022-.019-.023Z" transform="translate(-351.669 -1512.127)"></path></g><g transform="translate(317.046 1389.79)"><path class="f" d="M458.585,1530.311l5.843-9.381,5.842-9.381-11.635.51-11.635.51,5.792,8.872Z" transform="translate(-445.705 -1510.768)"></path><path class="e" d="M456.3,1530.269l-6.447-9.875-6.447-9.875,12.95-.567,12.951-.567-6.5,10.442ZM446,1511.849l5.138,7.868,5.137,7.868,5.182-8.32,5.182-8.321-10.319.452Z" transform="translate(-443.408 -1509.384)"></path></g><g transform="translate(301.313 1375.943)"><path class="f" d="M421.164,1482.678a9.69,9.69,0,1,1-2.838-6.852A9.661,9.661,0,0,1,421.164,1482.678Z" transform="translate(-401.062 -1472.266)"></path><path class="e" d="M410.195,1491.81a10.424,10.424,0,1,1,7.358-3.053A10.379,10.379,0,0,1,410.195,1491.81Zm0-19.381a8.98,8.98,0,1,0,6.339,2.63A8.94,8.94,0,0,0,410.195,1472.43Z" transform="translate(-399.783 -1470.987)"></path></g><g transform="translate(549.354 1392.164)"><path class="g" d="M1088.466,1521.321l3.565-1.785,3.565-1.784" transform="translate(-1088.144 -1517.108)"></path><path class="e" d="M1088.217,1520.823l-.323-.645-.323-.645,3.565-1.784,3.565-1.784.323.645.323.645-3.565,1.784Z" transform="translate(-1087.572 -1515.965)"></path></g><g transform="translate(587.599 1357.837)"><path class="k" d="M1222.374,1425.966l-12.764,5.745-12.763,5.746a.819.819,0,0,1-.972-.305,1.063,1.063,0,0,1-.166-1.112l.326-.679.326-.678a.754.754,0,0,1,.145-.206.666.666,0,0,1,.2-.138l12.763-5.746,12.764-5.745a.819.819,0,0,1,.972.305,1.065,1.065,0,0,1,.166,1.113l-.326.678-.326.679a.752.752,0,0,1-.145.206A.672.672,0,0,1,1222.374,1425.966Z" transform="translate(-1194.898 -1422.062)"></path><path class="e" d="M1195.28,1436.961a1.465,1.465,0,0,1-.593-.128,1.722,1.722,0,0,1-.532-.374,1.882,1.882,0,0,1-.506-.968,1.691,1.691,0,0,1,.132-1.044l.326-.679.326-.679a1.478,1.478,0,0,1,.291-.41,1.4,1.4,0,0,1,.406-.28l12.764-5.746,12.764-5.746a1.414,1.414,0,0,1,.891-.093,1.636,1.636,0,0,1,.819.469,1.882,1.882,0,0,1,.506.967,1.692,1.692,0,0,1-.132,1.045l-.326.678-.326.679a1.476,1.476,0,0,1-.292.41,1.4,1.4,0,0,1-.407.28l-12.763,5.746-12.763,5.746a1.443,1.443,0,0,1-.29.1A1.382,1.382,0,0,1,1195.28,1436.961Zm25.957-14.736-12.757,5.745-12.757,5.745-.321.678-.321.678a.253.253,0,0,0-.012.164.466.466,0,0,0,.042.112.444.444,0,0,0,.1.129.185.185,0,0,0,.071.042l12.75-5.742,12.75-5.742.327-.681.328-.681a.254.254,0,0,0,.012-.164.476.476,0,0,0-.042-.112.444.444,0,0,0-.1-.129A.185.185,0,0,0,1221.237,1422.225Zm-.437,1.8h0Z" transform="translate(-1193.62 -1420.781)"></path></g><g transform="translate(586.785 1355.989)"><path class="k" d="M1220.118,1420.841l-12.764,5.746-12.763,5.746a.818.818,0,0,1-.972-.305,1.063,1.063,0,0,1-.166-1.112l.326-.679.326-.678a.753.753,0,0,1,.145-.206.666.666,0,0,1,.2-.138l12.763-5.746,12.764-5.746a.818.818,0,0,1,.971.305,1.064,1.064,0,0,1,.166,1.112l-.326.679-.326.678a.748.748,0,0,1-.145.206A.66.66,0,0,1,1220.118,1420.841Z" transform="translate(-1192.642 -1416.938)"></path><path class="e" d="M1193.024,1431.837a1.464,1.464,0,0,1-.593-.128,1.724,1.724,0,0,1-.532-.375,1.879,1.879,0,0,1-.506-.967,1.693,1.693,0,0,1,.132-1.044l.326-.679.326-.679a1.469,1.469,0,0,1,.291-.41,1.4,1.4,0,0,1,.406-.28l12.764-5.746,12.764-5.746a1.414,1.414,0,0,1,.891-.093,1.642,1.642,0,0,1,.819.469,1.881,1.881,0,0,1,.506.967,1.691,1.691,0,0,1-.132,1.045l-.326.678-.326.679a1.474,1.474,0,0,1-.292.41,1.394,1.394,0,0,1-.406.28h0l-12.764,5.746-12.763,5.746a1.446,1.446,0,0,1-.289.095A1.388,1.388,0,0,1,1193.024,1431.837Zm25.957-14.736-12.757,5.745-12.757,5.745-.321.678-.321.678a.253.253,0,0,0-.012.164.47.47,0,0,0,.042.112.437.437,0,0,0,.1.129.189.189,0,0,0,.071.042l12.75-5.742,12.75-5.742.327-.681.328-.681a.254.254,0,0,0,.012-.164.474.474,0,0,0-.042-.111.44.44,0,0,0-.1-.129A.183.183,0,0,0,1218.982,1417.1Z" transform="translate(-1191.364 -1415.657)"></path></g><g transform="translate(598.638 1400.235)"><path class="o" d="M1266.782,1577.839h-40.551v-37.493h40.551v37.493Z" transform="translate(-1225.51 -1539.625)"></path><path class="e" d="M1266.224,1577.282h-41.993v-38.935h41.993v38.935Zm-40.551-1.443h39.108v-36.05h-39.108v36.05Z" transform="translate(-1224.231 -1538.347)"></path></g><g transform="translate(596.835 1400.235)"><path class="o" d="M1261.782,1577.839h-40.551v-37.493h40.551v37.493Z" transform="translate(-1220.51 -1539.625)"></path><path class="e" d="M1261.224,1577.282h-41.993v-38.935h41.993v38.935Zm-40.551-1.443h39.108v-36.05h-39.108v36.05Z" transform="translate(-1219.231 -1538.347)"></path></g><g transform="translate(601.318 1407.503)"><path class="j" d="M1263.937,1563.237h-30.275V1560.5h30.275v2.737Z" transform="translate(-1232.941 -1559.779)"></path><path class="e" d="M1263.379,1562.68h-31.717v-4.18h31.717v4.18Zm-30.275-1.443h28.832v-1.295H1233.1v1.295Z" transform="translate(-1231.662 -1558.5)"></path></g><g transform="translate(601.318 1413.471)"><path class="j" d="M1263.937,1579.786h-30.275v-2.737h30.275v2.737Z" transform="translate(-1232.941 -1576.327)"></path><path class="e" d="M1263.379,1579.229h-31.717v-4.18h31.717v4.18Zm-30.275-1.443h28.832v-1.295H1233.1v1.295Z" transform="translate(-1231.662 -1575.049)"></path></g><g transform="translate(601.318 1419.674)"><path class="j" d="M1263.937,1596.985h-30.275v-2.737h30.275v2.737Z" transform="translate(-1232.941 -1593.526)"></path><path class="e" d="M1263.379,1596.427h-31.717v-4.18h31.717v4.18Zm-30.275-1.443h28.832v-1.3H1233.1v1.3Z" transform="translate(-1231.662 -1592.247)"></path></g></g></g></g></svg>