<svg xmlns="http://www.w3.org/2000/svg" width="135.568" height="75.797" viewBox="0 0 135.568 75.797"><defs><style>.a{fill:#28c397;}.b{fill:#24313e;}.c{fill:#3ab2d0;}.d{fill:#e7e9f2;}.e{fill:#9caab8;}.f{fill:#455666;}.g{fill:#5c6ac3;}</style></defs><g transform="translate(-3141.131 -1884.294)"><g transform="translate(3158.461 1884.294)"><g transform="translate(0.233 0.264)"><path class="a" d="M3296.426,1956.553h108.9a3.488,3.488,0,0,0,1.579-.508,8.783,8.783,0,0,0,1.715-1.272,8.228,8.228,0,0,0,1.378-1.654,3.322,3.322,0,0,0,.564-1.656l-.493-14.467-.493-14.467-.493-14.467-.493-14.467a4.11,4.11,0,0,0-.256-1.438,3.761,3.761,0,0,0-.7-1.174,3.28,3.28,0,0,0-1.037-.792,2.931,2.931,0,0,0-1.27-.29l-26.725-.46-26.725-.46-26.725-.461-26.725-.46a3.237,3.237,0,0,0-1.582.578,9.342,9.342,0,0,0-1.724,1.425,9.459,9.459,0,0,0-1.386,1.807,3.679,3.679,0,0,0-.568,1.726v59.264a4.109,4.109,0,0,0,.256,1.438,3.763,3.763,0,0,0,.7,1.174,3.277,3.277,0,0,0,1.037.792A2.927,2.927,0,0,0,3296.426,1956.553Z" transform="translate(-3292.988 -1887.883)"></path><path class="b" d="M3404,1955.4H3295.1a3.107,3.107,0,0,1-1.322-.295,3.443,3.443,0,0,1-1.117-.847,3.926,3.926,0,0,1-.741-1.252,4.289,4.289,0,0,1-.258-1.477V1892.27a3.938,3.938,0,0,1,.638-1.888,10.2,10.2,0,0,1,3.041-3.168,3.484,3.484,0,0,1,1.756-.655l53.451.921,53.451.921a3.1,3.1,0,0,1,1.319.294,3.445,3.445,0,0,1,1.117.847,3.928,3.928,0,0,1,.741,1.252,4.283,4.283,0,0,1,.258,1.477l.987,28.931.987,28.931a3.411,3.411,0,0,1-.53,1.651,8.11,8.11,0,0,1-1.468,1.793,8.787,8.787,0,0,1-1.818,1.337A3.569,3.569,0,0,1,3404,1955.4Zm-106.9-68.495a3.03,3.03,0,0,0-1.455.531,9.834,9.834,0,0,0-3.116,3.249,3.446,3.446,0,0,0-.512,1.582v59.264a3.941,3.941,0,0,0,.235,1.353,3.579,3.579,0,0,0,.676,1.144,3.094,3.094,0,0,0,1,.759,2.758,2.758,0,0,0,1.177.264H3404a3.291,3.291,0,0,0,1.469-.472,8.546,8.546,0,0,0,1.7-1.261,7.878,7.878,0,0,0,1.38-1.675,3.116,3.116,0,0,0,.507-1.508l-.986-28.931-.987-28.931a3.954,3.954,0,0,0-.236-1.358,3.568,3.568,0,0,0-.677-1.145,3.089,3.089,0,0,0-1-.759,2.756,2.756,0,0,0-1.177-.264l-53.451-.921Z" transform="translate(-3291.663 -1886.559)"></path></g><g transform="translate(0 0)"><path class="b" d="M3292.188,1953.656a4.025,4.025,0,0,1-.75-1.259,4.389,4.389,0,0,1-.275-1.54v-59.264a3.942,3.942,0,0,1,.6-1.866,10.141,10.141,0,0,1,3.26-3.348,3.41,3.41,0,0,1,1.638-.586l26.724.46,26.724.46,26.724.46,26.724.46a3.131,3.131,0,0,1,1.36.312,3.52,3.52,0,0,1,1.112.848,4.028,4.028,0,0,1,.75,1.255,4.361,4.361,0,0,1,.275,1.534l.493,14.469.493,14.469.493,14.47.493,14.469a3.58,3.58,0,0,1-.583,1.768,8.36,8.36,0,0,1-1.427,1.737,8.9,8.9,0,0,1-1.79,1.324,3.7,3.7,0,0,1-1.67.526h-108.9a3.132,3.132,0,0,1-1.36-.312A3.52,3.52,0,0,1,3292.188,1953.656Zm1.3-65.382a9.427,9.427,0,0,0-1.321,1.727,3.416,3.416,0,0,0-.541,1.593v59.264a3.8,3.8,0,0,0,.238,1.334,3.5,3.5,0,0,0,.65,1.091,3.054,3.054,0,0,0,.963.736,2.713,2.713,0,0,0,1.178.27h108.9a3.3,3.3,0,0,0,1.49-.488,8.668,8.668,0,0,0,1.641-1.214,8.042,8.042,0,0,0,1.326-1.567,3.072,3.072,0,0,0,.546-1.547l-.493-14.47-.493-14.469-.493-14.469-.493-14.469a3.808,3.808,0,0,0-.239-1.334,3.5,3.5,0,0,0-.65-1.091,3.052,3.052,0,0,0-.964-.736,2.719,2.719,0,0,0-1.18-.27l-26.724-.46-26.724-.46-26.724-.46-26.724-.461a3.059,3.059,0,0,0-1.519.567A9.136,9.136,0,0,0,3293.492,1888.274Z" transform="translate(-3290.988 -1885.618)"></path><path class="b" d="M3402.232,1953.667h-108.9a3.308,3.308,0,0,1-1.41-.315,3.678,3.678,0,0,1-1.193-.9,4.21,4.21,0,0,1-.793-1.338,4.573,4.573,0,0,1-.276-1.576V1890.27a4,4,0,0,1,.559-1.84,9.38,9.38,0,0,1,1.547-2.036,9.53,9.53,0,0,1,1.909-1.528,3.515,3.515,0,0,1,1.658-.571l53.45.921,53.449.921a3.3,3.3,0,0,1,1.406.315,3.684,3.684,0,0,1,1.193.9,4.2,4.2,0,0,1,.793,1.335,4.545,4.545,0,0,1,.276,1.571l.986,28.936.987,28.936a3.675,3.675,0,0,1-.548,1.758,8.254,8.254,0,0,1-1.518,1.88,8.9,8.9,0,0,1-1.892,1.388A3.784,3.784,0,0,1,3402.232,1953.667Zm-106.9-69.023a3.2,3.2,0,0,0-1.52.543,9.332,9.332,0,0,0-1.794,1.452,9.1,9.1,0,0,0-1.467,1.922,3.719,3.719,0,0,0-.539,1.709v59.264a4.22,4.22,0,0,0,.253,1.452,3.85,3.85,0,0,0,.728,1.23,3.329,3.329,0,0,0,1.075.817,2.961,2.961,0,0,0,1.266.284h108.9a3.5,3.5,0,0,0,1.56-.491,8.635,8.635,0,0,0,1.779-1.312,8.01,8.01,0,0,0,1.437-1.763,3.346,3.346,0,0,0,.519-1.615l-.986-28.936-.987-28.936a4.215,4.215,0,0,0-.253-1.452,3.847,3.847,0,0,0-.728-1.227,3.339,3.339,0,0,0-1.075-.816,2.965,2.965,0,0,0-1.265-.284l-53.449-.921Zm106.9,68.5h-108.9a2.89,2.89,0,0,1-1.231-.275,3.214,3.214,0,0,1-1.042-.79,3.669,3.669,0,0,1-.691-1.166,3.988,3.988,0,0,1-.241-1.374V1890.27a3.664,3.664,0,0,1,.609-1.755,9.842,9.842,0,0,1,1.3-1.686h0a9.573,9.573,0,0,1,1.612-1.367,3.306,3.306,0,0,1,1.681-.64l53.45.921,53.449.921a2.889,2.889,0,0,1,1.23.275,3.215,3.215,0,0,1,1.042.79,3.658,3.658,0,0,1,.692,1.166,3.982,3.982,0,0,1,.241,1.374l.987,28.936.987,28.936a3.151,3.151,0,0,1-.511,1.545,7.918,7.918,0,0,1-1.416,1.7,8.631,8.631,0,0,1-1.741,1.273A3.408,3.408,0,0,1,3402.232,1953.139Zm-106.9-67.967a2.857,2.857,0,0,0-1.385.517,8.828,8.828,0,0,0-1.651,1.382h0a9.088,9.088,0,0,0-1.32,1.737,3.211,3.211,0,0,0-.493,1.462v59.264a3.639,3.639,0,0,0,.218,1.25,3.323,3.323,0,0,0,.626,1.058,2.866,2.866,0,0,0,.924.7,2.54,2.54,0,0,0,1.087.245h108.9a3.1,3.1,0,0,0,1.382-.451,8.4,8.4,0,0,0,1.63-1.2,7.694,7.694,0,0,0,1.328-1.584,2.861,2.861,0,0,0,.488-1.4l-.987-28.936-.986-28.936a3.658,3.658,0,0,0-.218-1.255,3.307,3.307,0,0,0-.627-1.059,2.861,2.861,0,0,0-.925-.7,2.546,2.546,0,0,0-1.089-.245l-53.45-.921Z" transform="translate(-3289.663 -1884.294)"></path></g></g><g transform="translate(3160.458 1884.294)"><g transform="translate(0.233 0.264)"><path class="c" d="M3313.546,1954.711h108.9a2.927,2.927,0,0,0,1.27-.29,3.279,3.279,0,0,0,1.038-.792,3.762,3.762,0,0,0,.7-1.174,4.11,4.11,0,0,0,.256-1.438v-59.264a4.109,4.109,0,0,0-.256-1.438,3.761,3.761,0,0,0-.7-1.175,3.279,3.279,0,0,0-1.038-.792,2.927,2.927,0,0,0-1.27-.29h-108.9a2.926,2.926,0,0,0-1.27.29,3.279,3.279,0,0,0-1.038.792,3.761,3.761,0,0,0-.7,1.175,4.1,4.1,0,0,0-.257,1.438v59.264a4.1,4.1,0,0,0,.257,1.438,3.762,3.762,0,0,0,.7,1.174,3.279,3.279,0,0,0,1.038.792A2.926,2.926,0,0,0,3313.546,1954.711Z" transform="translate(-3310.108 -1887.883)"></path><path class="b" d="M3421.119,1953.562h-108.9a3.105,3.105,0,0,1-1.322-.295,3.44,3.44,0,0,1-1.117-.847,3.933,3.933,0,0,1-.742-1.252,4.29,4.29,0,0,1-.258-1.477v-59.264a4.288,4.288,0,0,1,.258-1.477,3.932,3.932,0,0,1,.742-1.252,3.438,3.438,0,0,1,1.117-.847,3.105,3.105,0,0,1,1.322-.295h108.9a3.1,3.1,0,0,1,1.322.295,3.438,3.438,0,0,1,1.117.847,3.927,3.927,0,0,1,.742,1.252,4.294,4.294,0,0,1,.258,1.477v59.264a4.3,4.3,0,0,1-.258,1.477,3.928,3.928,0,0,1-.742,1.252,3.44,3.44,0,0,1-1.117.847A3.105,3.105,0,0,1,3421.119,1953.562Zm-108.9-66.653a2.756,2.756,0,0,0-1.177.264,3.088,3.088,0,0,0-1,.759,3.584,3.584,0,0,0-.677,1.144,3.941,3.941,0,0,0-.236,1.353v59.264a3.941,3.941,0,0,0,.236,1.353,3.582,3.582,0,0,0,.677,1.144,3.09,3.09,0,0,0,1,.759,2.758,2.758,0,0,0,1.177.264h108.9a2.758,2.758,0,0,0,1.177-.264,3.087,3.087,0,0,0,1-.759,3.582,3.582,0,0,0,.677-1.144,3.947,3.947,0,0,0,.235-1.353v-59.264a3.947,3.947,0,0,0-.235-1.353,3.584,3.584,0,0,0-.677-1.144,3.085,3.085,0,0,0-1-.759,2.756,2.756,0,0,0-1.177-.264h-108.9Z" transform="translate(-3308.783 -1886.559)"></path></g><g transform="translate(0 0)"><path class="b" d="M3309.308,1951.814a4.039,4.039,0,0,1-.75-1.259,4.389,4.389,0,0,1-.275-1.54v-59.264a4.39,4.39,0,0,1,.275-1.54,4.039,4.039,0,0,1,.75-1.259,3.526,3.526,0,0,1,1.112-.849,3.133,3.133,0,0,1,1.36-.312h108.9a3.134,3.134,0,0,1,1.36.312,3.522,3.522,0,0,1,1.111.849,4.038,4.038,0,0,1,.75,1.259,4.39,4.39,0,0,1,.275,1.54v59.264a4.39,4.39,0,0,1-.275,1.54,4.038,4.038,0,0,1-.75,1.259,3.519,3.519,0,0,1-1.111.849,3.132,3.132,0,0,1-1.36.312h-108.9a3.132,3.132,0,0,1-1.36-.312A3.522,3.522,0,0,1,3309.308,1951.814Zm56.92-65.493H3311.78a2.712,2.712,0,0,0-1.178.27,3.049,3.049,0,0,0-.963.736,3.493,3.493,0,0,0-.65,1.091,3.8,3.8,0,0,0-.239,1.334v59.264a3.8,3.8,0,0,0,.239,1.334,3.491,3.491,0,0,0,.65,1.091,3.05,3.05,0,0,0,.963.736,2.713,2.713,0,0,0,1.178.27h108.9a2.714,2.714,0,0,0,1.178-.27,3.049,3.049,0,0,0,.963-.736,3.5,3.5,0,0,0,.65-1.091,3.809,3.809,0,0,0,.238-1.334v-59.264a3.809,3.809,0,0,0-.238-1.334,3.5,3.5,0,0,0-.65-1.091,3.049,3.049,0,0,0-.963-.736,2.713,2.713,0,0,0-1.178-.27h-54.448Z" transform="translate(-3308.108 -1885.618)"></path><path class="b" d="M3419.352,1951.826h-108.9a3.308,3.308,0,0,1-1.41-.315,3.685,3.685,0,0,1-1.193-.9,4.2,4.2,0,0,1-.793-1.338,4.573,4.573,0,0,1-.276-1.576v-59.264a4.575,4.575,0,0,1,.276-1.576,4.2,4.2,0,0,1,.793-1.338,3.685,3.685,0,0,1,1.193-.905,3.308,3.308,0,0,1,1.41-.315h108.9a3.309,3.309,0,0,1,1.41.315,3.676,3.676,0,0,1,1.193.905,4.207,4.207,0,0,1,.793,1.338,4.575,4.575,0,0,1,.276,1.576v59.264a4.573,4.573,0,0,1-.276,1.576,4.207,4.207,0,0,1-.793,1.338,3.676,3.676,0,0,1-1.193.9A3.309,3.309,0,0,1,3419.352,1951.826Zm-108.9-67.182a2.957,2.957,0,0,0-1.266.285,3.334,3.334,0,0,0-1.075.817,3.862,3.862,0,0,0-.728,1.23,4.231,4.231,0,0,0-.253,1.452v59.264a4.231,4.231,0,0,0,.253,1.452,3.862,3.862,0,0,0,.728,1.23,3.337,3.337,0,0,0,1.075.817,2.959,2.959,0,0,0,1.266.284h108.9a2.958,2.958,0,0,0,1.265-.284,3.337,3.337,0,0,0,1.075-.817,3.857,3.857,0,0,0,.728-1.23,4.226,4.226,0,0,0,.253-1.452v-59.264a4.226,4.226,0,0,0-.253-1.452,3.857,3.857,0,0,0-.728-1.23,3.334,3.334,0,0,0-1.075-.817,2.956,2.956,0,0,0-1.265-.285h-108.9Zm108.9,66.653h-108.9a2.89,2.89,0,0,1-1.231-.275,3.21,3.21,0,0,1-1.042-.79,3.667,3.667,0,0,1-.692-1.166,3.993,3.993,0,0,1-.241-1.374v-59.264a3.994,3.994,0,0,1,.241-1.374,3.667,3.667,0,0,1,.692-1.166,3.213,3.213,0,0,1,1.042-.79,2.891,2.891,0,0,1,1.231-.275h108.9a2.889,2.889,0,0,1,1.231.275,3.211,3.211,0,0,1,1.042.79,3.666,3.666,0,0,1,.692,1.166,3.989,3.989,0,0,1,.241,1.374v59.264a3.986,3.986,0,0,1-.241,1.374,3.664,3.664,0,0,1-.692,1.167,3.207,3.207,0,0,1-1.042.79A2.888,2.888,0,0,1,3419.352,1951.3Zm-108.9-66.125a2.542,2.542,0,0,0-1.087.245,2.863,2.863,0,0,0-.923.7,3.312,3.312,0,0,0-.626,1.058,3.639,3.639,0,0,0-.218,1.25v59.264a3.637,3.637,0,0,0,.218,1.25,3.313,3.313,0,0,0,.626,1.059,2.861,2.861,0,0,0,.923.7,2.542,2.542,0,0,0,1.087.245h108.9a2.541,2.541,0,0,0,1.087-.245,2.861,2.861,0,0,0,.923-.7,3.319,3.319,0,0,0,.627-1.059,3.638,3.638,0,0,0,.218-1.25v-59.264a3.638,3.638,0,0,0-.218-1.25,3.319,3.319,0,0,0-.627-1.059,2.863,2.863,0,0,0-.923-.7,2.541,2.541,0,0,0-1.087-.245h-108.9Z" transform="translate(-3306.783 -1884.294)"></path></g></g><g transform="translate(3163.027 1886.136)"><g transform="translate(0.233 0.264)"><path class="d" d="M3335.558,1966.672h104.332a2.926,2.926,0,0,0,1.27-.29,3.279,3.279,0,0,0,1.038-.792,3.764,3.764,0,0,0,.7-1.175,4.109,4.109,0,0,0,.256-1.438v-55.44a4.109,4.109,0,0,0-.256-1.438,3.761,3.761,0,0,0-.7-1.174,3.28,3.28,0,0,0-1.038-.792,2.928,2.928,0,0,0-1.27-.29H3335.558a2.931,2.931,0,0,0-1.271.29,3.278,3.278,0,0,0-1.037.792,3.762,3.762,0,0,0-.7,1.174,4.109,4.109,0,0,0-.256,1.438v55.44a4.109,4.109,0,0,0,.256,1.438,3.765,3.765,0,0,0,.7,1.175,3.277,3.277,0,0,0,1.037.792A2.93,2.93,0,0,0,3335.558,1966.672Z" transform="translate(-3332.119 -1903.668)"></path><path class="b" d="M3438.565,1965.522H3334.233a3.106,3.106,0,0,1-1.322-.295,3.442,3.442,0,0,1-1.117-.847,3.928,3.928,0,0,1-.741-1.252,4.3,4.3,0,0,1-.258-1.477v-55.44a4.294,4.294,0,0,1,.258-1.477,3.925,3.925,0,0,1,.741-1.252,3.44,3.44,0,0,1,1.117-.847,3.105,3.105,0,0,1,1.322-.295h104.332a3.106,3.106,0,0,1,1.322.295,3.438,3.438,0,0,1,1.117.847,3.928,3.928,0,0,1,.741,1.252,4.289,4.289,0,0,1,.258,1.477v55.44a4.288,4.288,0,0,1-.258,1.476,3.928,3.928,0,0,1-.741,1.252,3.44,3.44,0,0,1-1.117.847A3.106,3.106,0,0,1,3438.565,1965.522Zm-104.332-62.829a2.756,2.756,0,0,0-1.178.264,3.092,3.092,0,0,0-1,.759,3.574,3.574,0,0,0-.676,1.144,3.94,3.94,0,0,0-.236,1.353v55.44a3.941,3.941,0,0,0,.236,1.353,3.576,3.576,0,0,0,.676,1.144,3.094,3.094,0,0,0,1,.759,2.759,2.759,0,0,0,1.178.264h104.332a2.758,2.758,0,0,0,1.177-.264,3.089,3.089,0,0,0,1-.759,3.578,3.578,0,0,0,.677-1.144,3.946,3.946,0,0,0,.235-1.353v-55.44a3.947,3.947,0,0,0-.235-1.353,3.581,3.581,0,0,0-.677-1.144,3.087,3.087,0,0,0-1-.759,2.754,2.754,0,0,0-1.177-.264H3334.233Z" transform="translate(-3330.795 -1902.343)"></path></g><g transform="translate(0 0)"><path class="b" d="M3331.319,1963.776a4.038,4.038,0,0,1-.75-1.259,4.389,4.389,0,0,1-.275-1.54v-55.44a4.388,4.388,0,0,1,.275-1.539,4.038,4.038,0,0,1,.75-1.259,3.519,3.519,0,0,1,1.112-.849,3.13,3.13,0,0,1,1.36-.312h104.331a3.128,3.128,0,0,1,1.36.312,3.517,3.517,0,0,1,1.112.849,4.028,4.028,0,0,1,.75,1.259,4.388,4.388,0,0,1,.275,1.539v55.44a4.389,4.389,0,0,1-.275,1.54,4.029,4.029,0,0,1-.75,1.259,3.515,3.515,0,0,1-1.112.849,3.128,3.128,0,0,1-1.36.312H3333.791a3.13,3.13,0,0,1-1.36-.312A3.517,3.517,0,0,1,3331.319,1963.776Zm54.637-61.668h-52.166a2.713,2.713,0,0,0-1.178.27,3.055,3.055,0,0,0-.964.736,3.5,3.5,0,0,0-.65,1.091,3.81,3.81,0,0,0-.238,1.334v55.44a3.808,3.808,0,0,0,.238,1.334,3.5,3.5,0,0,0,.65,1.091,3.059,3.059,0,0,0,.964.736,2.716,2.716,0,0,0,1.178.27h104.331a2.717,2.717,0,0,0,1.179-.27,3.055,3.055,0,0,0,.963-.736,3.506,3.506,0,0,0,.65-1.091,3.808,3.808,0,0,0,.238-1.334v-55.44a3.81,3.81,0,0,0-.238-1.334,3.51,3.51,0,0,0-.65-1.091,3.05,3.05,0,0,0-.963-.736,2.714,2.714,0,0,0-1.179-.27h-52.166Z" transform="translate(-3330.119 -1901.404)"></path><path class="b" d="M3436.8,1963.787H3332.466a3.307,3.307,0,0,1-1.409-.315,3.683,3.683,0,0,1-1.193-.905h0a4.2,4.2,0,0,1-.793-1.338,4.58,4.58,0,0,1-.276-1.576v-55.44a4.579,4.579,0,0,1,.276-1.576,4.207,4.207,0,0,1,.793-1.338,3.677,3.677,0,0,1,1.193-.9,3.305,3.305,0,0,1,1.409-.315H3436.8a3.306,3.306,0,0,1,1.409.315,3.674,3.674,0,0,1,1.193.9,4.207,4.207,0,0,1,.793,1.338,4.573,4.573,0,0,1,.276,1.576v55.44a4.574,4.574,0,0,1-.276,1.576,4.2,4.2,0,0,1-.793,1.338,3.682,3.682,0,0,1-1.193.905A3.308,3.308,0,0,1,3436.8,1963.787Zm-106.672-1.452a3.34,3.34,0,0,0,1.075.817,2.962,2.962,0,0,0,1.266.284H3436.8a2.961,2.961,0,0,0,1.265-.284,3.335,3.335,0,0,0,1.075-.817,3.852,3.852,0,0,0,.728-1.23,4.218,4.218,0,0,0,.253-1.452v-55.44a4.219,4.219,0,0,0-.253-1.452,3.851,3.851,0,0,0-.728-1.23,3.331,3.331,0,0,0-1.075-.817,2.959,2.959,0,0,0-1.265-.284H3332.466a2.96,2.96,0,0,0-1.266.284,3.336,3.336,0,0,0-1.075.817,3.856,3.856,0,0,0-.728,1.23,4.225,4.225,0,0,0-.253,1.452v55.44a4.224,4.224,0,0,0,.253,1.452,3.856,3.856,0,0,0,.728,1.23Zm106.672.923H3332.466a2.888,2.888,0,0,1-1.231-.275,3.217,3.217,0,0,1-1.042-.79,3.674,3.674,0,0,1-.691-1.167,3.981,3.981,0,0,1-.241-1.374v-55.44a3.981,3.981,0,0,1,.241-1.374,3.673,3.673,0,0,1,.691-1.166,3.217,3.217,0,0,1,1.042-.79,2.89,2.89,0,0,1,1.231-.275H3436.8a2.888,2.888,0,0,1,1.231.275,3.212,3.212,0,0,1,1.042.79,3.664,3.664,0,0,1,.691,1.166,3.981,3.981,0,0,1,.241,1.374v55.44a3.981,3.981,0,0,1-.241,1.374,3.665,3.665,0,0,1-.691,1.167,3.212,3.212,0,0,1-1.042.79A2.887,2.887,0,0,1,3436.8,1963.258Zm-104.332-62.3a2.541,2.541,0,0,0-1.087.245,2.865,2.865,0,0,0-.924.7,3.312,3.312,0,0,0-.626,1.058,3.632,3.632,0,0,0-.218,1.25v55.44a3.632,3.632,0,0,0,.218,1.25,3.316,3.316,0,0,0,.626,1.059,2.867,2.867,0,0,0,.924.7,2.541,2.541,0,0,0,1.087.244H3436.8a2.54,2.54,0,0,0,1.087-.244,2.871,2.871,0,0,0,.924-.7,3.325,3.325,0,0,0,.626-1.059,3.637,3.637,0,0,0,.218-1.25v-55.44a3.638,3.638,0,0,0-.218-1.25,3.321,3.321,0,0,0-.626-1.058,2.869,2.869,0,0,0-.924-.7,2.54,2.54,0,0,0-1.087-.245H3332.466Z" transform="translate(-3328.794 -1900.079)"></path></g></g><g transform="translate(3200.562 1943.472)"><path class="e" d="M3669.5,2398.484H3652v-2.506a2.977,2.977,0,0,1,2.978-2.978h11.546a2.977,2.977,0,0,1,2.978,2.978v2.506Z" transform="translate(-3651.825 -2392.825)"></path><path class="b" d="M3668.351,2397.334H3650.5v-2.681a3.156,3.156,0,0,1,3.153-3.153H3665.2a3.156,3.156,0,0,1,3.153,3.153v2.681Zm-17.5-.35H3668v-2.331a2.806,2.806,0,0,0-2.8-2.8h-11.546a2.805,2.805,0,0,0-2.8,2.8v2.331Z" transform="translate(-3650.5 -2391.5)"></path></g><g transform="translate(3172.761 1893.885)"><path class="e" d="M3502.61,1976.093h-87.435a1.452,1.452,0,0,1-1.452-1.452v-5.189a1.452,1.452,0,0,1,1.452-1.452h87.435a1.452,1.452,0,0,1,1.452,1.452v5.189a1.452,1.452,0,0,1-1.452,1.452Z" transform="translate(-3413.548 -1967.825)"></path><path class="b" d="M3501.285,1974.943H3413.85a1.629,1.629,0,0,1-1.627-1.627v-5.189a1.629,1.629,0,0,1,1.627-1.627h87.435a1.629,1.629,0,0,1,1.627,1.627v5.189a1.629,1.629,0,0,1-1.627,1.627Zm-87.435-8.093a1.278,1.278,0,0,0-1.277,1.277v5.189a1.278,1.278,0,0,0,1.277,1.277h87.435a1.278,1.278,0,0,0,1.277-1.277v-5.189a1.278,1.278,0,0,0-1.277-1.277H3413.85Z" transform="translate(-3412.223 -1966.5)"></path></g><g transform="translate(3172.761 1906.833)"><path class="e" d="M3502.61,2087.07h-87.435a1.452,1.452,0,0,1-1.452-1.452v-5.189a1.452,1.452,0,0,1,1.452-1.452h87.435a1.452,1.452,0,0,1,1.452,1.452v5.189a1.452,1.452,0,0,1-1.452,1.452Z" transform="translate(-3413.548 -2078.802)"></path><path class="b" d="M3501.285,2085.92H3413.85a1.629,1.629,0,0,1-1.627-1.627V2079.1a1.629,1.629,0,0,1,1.627-1.627h87.435a1.629,1.629,0,0,1,1.627,1.627v5.189a1.629,1.629,0,0,1-1.627,1.627Zm-87.435-8.093a1.278,1.278,0,0,0-1.277,1.277v5.189a1.278,1.278,0,0,0,1.277,1.277h87.435a1.278,1.278,0,0,0,1.277-1.277V2079.1a1.278,1.278,0,0,0-1.277-1.277H3413.85Z" transform="translate(-3412.223 -2077.477)"></path></g><g transform="translate(3172.761 1919.782)"><path class="e" d="M3502.61,2198.045h-87.435a1.452,1.452,0,0,1-1.452-1.452V2191.4a1.452,1.452,0,0,1,1.452-1.452h87.435a1.452,1.452,0,0,1,1.452,1.452v5.189a1.452,1.452,0,0,1-1.452,1.452Z" transform="translate(-3413.548 -2189.778)"></path><path class="b" d="M3501.285,2196.9H3413.85a1.629,1.629,0,0,1-1.627-1.627v-5.189a1.629,1.629,0,0,1,1.627-1.627h87.435a1.629,1.629,0,0,1,1.627,1.627v5.189a1.629,1.629,0,0,1-1.627,1.627Zm-87.435-8.093a1.278,1.278,0,0,0-1.277,1.277v5.189a1.277,1.277,0,0,0,1.277,1.277h87.435a1.277,1.277,0,0,0,1.277-1.277v-5.189a1.278,1.278,0,0,0-1.277-1.277H3413.85Z" transform="translate(-3412.223 -2188.453)"></path></g><g transform="translate(3172.761 1932.73)"><path class="e" d="M3502.61,2309.022h-87.435a1.452,1.452,0,0,1-1.452-1.452v-5.189a1.452,1.452,0,0,1,1.452-1.452h87.435a1.452,1.452,0,0,1,1.452,1.452v5.189a1.452,1.452,0,0,1-1.452,1.452Z" transform="translate(-3413.548 -2300.755)"></path><path class="b" d="M3501.285,2307.873H3413.85a1.629,1.629,0,0,1-1.627-1.627v-5.189a1.629,1.629,0,0,1,1.627-1.627h87.435a1.629,1.629,0,0,1,1.627,1.627v5.189a1.629,1.629,0,0,1-1.627,1.627Zm-87.435-8.093a1.278,1.278,0,0,0-1.277,1.277v5.189a1.278,1.278,0,0,0,1.277,1.277h87.435a1.278,1.278,0,0,0,1.277-1.277v-5.189a1.278,1.278,0,0,0-1.277-1.277H3413.85Z" transform="translate(-3412.223 -2299.43)"></path></g><g transform="translate(3200.562 1946.972)"><path class="f" d="M3669.5,2424.983H3652V2423h17.5v1.983Z" transform="translate(-3651.825 -2422.825)"></path><path class="b" d="M3668.351,2423.833H3650.5V2421.5h17.851v2.333Zm-17.5-.35H3668v-1.633H3650.85v1.633Z" transform="translate(-3650.5 -2421.5)"></path></g><g transform="translate(3141.131 1912.829)"><g transform="translate(11.256 0)"><path class="c" d="M3239.1,2139.879a9.515,9.515,0,1,0,2.787-6.729A9.485,9.485,0,0,0,3239.1,2139.879Z" transform="translate(-3238.93 -2130.189)"></path><path class="b" d="M3247.294,2148.245a9.7,9.7,0,1,1,6.849-2.842A9.66,9.66,0,0,1,3247.294,2148.245Zm0-19.031a9.351,9.351,0,1,0,6.6,2.739A9.312,9.312,0,0,0,3247.294,2129.214Z" transform="translate(-3237.604 -2128.864)"></path></g><g transform="translate(12.857 0)"><path class="g" d="M3252.827,2139.879a9.515,9.515,0,1,0,2.787-6.729A9.486,9.486,0,0,0,3252.827,2139.879Z" transform="translate(-3252.652 -2130.189)"></path><path class="b" d="M3261.018,2148.245a9.7,9.7,0,1,1,6.849-2.842A9.66,9.66,0,0,1,3261.018,2148.245Zm0-19.031a9.351,9.351,0,1,0,6.6,2.739A9.312,9.312,0,0,0,3261.018,2129.214Z" transform="translate(-3251.327 -2128.864)"></path></g><g transform="translate(0 21.872)"><path class="c" d="M3184.631,2338.824q0,.427-.017.85t-.051.841a37.3,37.3,0,0,1-8.329,1.695,121.141,121.141,0,0,1-25.208,0,36.911,36.911,0,0,1-8.33-1.705q-.033-.414-.05-.833t-.016-.842q0-.408.015-.813t.046-.806a21,21,0,0,1,41.875-.015q.031.405.047.813T3184.631,2338.824Z" transform="translate(-3142.456 -2317.65)"></path><path class="b" d="M3162.324,2341.714a113.848,113.848,0,0,1-12.5-.647,37.487,37.487,0,0,1-8.517-1.73l-.051-.02-.051-.02,0-.055,0-.055c-.022-.275-.039-.555-.05-.837s-.017-.567-.017-.853.005-.548.016-.82.026-.544.047-.812a21.175,21.175,0,0,1,42.224-.015c.021.268.037.541.048.816s.016.553.016.832-.006.569-.017.853-.028.569-.051.851l0,.055,0,.055-.051.02-.052.02a37.913,37.913,0,0,1-8.518,1.719A114.065,114.065,0,0,1,3162.324,2341.714Zm-20.786-2.664a38.232,38.232,0,0,0,8.452,1.685,121.187,121.187,0,0,0,24.629,0,38.637,38.637,0,0,0,8.453-1.674q.029-.39.044-.782c.01-.261.015-.523.015-.784s-.005-.548-.016-.818-.026-.539-.046-.8a20.829,20.829,0,0,0-41.526.014c-.021.264-.036.531-.046.8s-.016.538-.016.807,0,.523.014.782S3141.519,2338.8,3141.538,2339.05Z" transform="translate(-3141.131 -2316.325)"></path></g><g transform="translate(1.372 21.872)"><path class="g" d="M3196.393,2338.824q0,.427-.017.85t-.05.841a37.3,37.3,0,0,1-8.329,1.695,121.144,121.144,0,0,1-25.208,0,36.9,36.9,0,0,1-8.329-1.705q-.034-.414-.05-.833t-.016-.842q0-.408.015-.813t.046-.806a21,21,0,0,1,41.875-.015q.032.405.047.813T3196.393,2338.824Z" transform="translate(-3154.218 -2317.65)"></path><path class="b" d="M3174.087,2341.714a113.849,113.849,0,0,1-12.5-.647,37.485,37.485,0,0,1-8.517-1.73l-.051-.02-.051-.02,0-.055,0-.055c-.022-.274-.039-.554-.05-.836s-.017-.568-.017-.854.005-.548.016-.821.026-.544.047-.812a21.175,21.175,0,0,1,42.224-.015c.021.269.037.542.048.817s.016.553.016.831-.006.568-.017.852-.028.569-.051.852l0,.055,0,.055-.052.02-.052.02a37.916,37.916,0,0,1-8.518,1.719A114.064,114.064,0,0,1,3174.087,2341.714Zm-20.786-2.664a38.229,38.229,0,0,0,8.452,1.685,121.159,121.159,0,0,0,24.629,0,38.648,38.648,0,0,0,8.454-1.674c.019-.26.034-.522.043-.783s.015-.523.015-.783-.005-.546-.016-.817-.026-.539-.046-.8a20.83,20.83,0,0,0-41.527.014q-.03.4-.046.8c-.01.268-.015.538-.015.807s0,.524.014.783S3153.282,2338.8,3153.3,2339.05Z" transform="translate(-3152.894 -2316.325)"></path></g></g></g></svg>