<svg xmlns="http://www.w3.org/2000/svg" width="363.875" height="175.596" viewBox="0 0 363.875 175.596"><defs><style>.a{fill:#455666;}.b{fill:#24313e;}.c{fill:#3ab2d0;}.d{fill:#ebf0f5;}.e{fill:#5c6ac3;}.f{fill:#6b7e8f;}.g{fill:#9caab8;}.h{fill:#0c7ff2;}</style></defs><g transform="translate(-2325.773 4457.41)"><g transform="translate(2622.425 -4359.746)"><path class="a" d="M14.332,0h0A14.332,14.332,0,0,1,28.664,14.332v32.6A14.332,14.332,0,0,1,14.332,61.262h0A14.332,14.332,0,0,1,0,46.93v-32.6A14.332,14.332,0,0,1,14.332,0Z" transform="matrix(0.521, -0.853, 0.853, 0.521, 0, 24.462)"></path><path class="b" d="M3515.82-4022.407a10.591,10.591,0,0,1-5.537-1.56l-34.986-21.368a10.585,10.585,0,0,1-4.8-6.592,10.588,10.588,0,0,1,1.264-8.059l4.376-7.165a10.67,10.67,0,0,1,14.651-3.541l34.985,21.368a10.588,10.588,0,0,1,4.8,6.592,10.59,10.59,0,0,1-1.264,8.059l-.447-.273.447.273-4.376,7.166A10.662,10.662,0,0,1,3515.82-4022.407Zm-30.575-48.8a9.613,9.613,0,0,0-8.217,4.6l-4.376,7.166a9.547,9.547,0,0,0-1.14,7.266,9.548,9.548,0,0,0,4.332,5.944l34.985,21.368a9.621,9.621,0,0,0,13.21-3.192l4.376-7.165a9.546,9.546,0,0,0,1.14-7.266,9.545,9.545,0,0,0-4.332-5.944l-34.985-21.368A9.552,9.552,0,0,0,3485.245-4071.2Z" transform="translate(-3466.922 4075.526)"></path></g><g transform="translate(2371.969 -4442.024)"><path class="c" d="M2667.752-4367.772v93.084c0,4.667-10.311,15.935-14.978,15.944l-131.118-7.222a8.461,8.461,0,0,1-8.477-8.461l-9.134-108.382c0-4.665.486-13.839,13.036-13.839l26.619-.055a8.461,8.461,0,0,1,8.482,8.46v3.735a8.461,8.461,0,0,0,8.477,8.46l98.615-.186A8.461,8.461,0,0,1,2667.752-4367.772Z" transform="translate(-2503.522 4397.227)"></path><path class="b" d="M2651.285-4259.7h-.015l-131.1-7.221h0a8.925,8.925,0,0,1-6.347-2.626,8.923,8.923,0,0,1-2.637-6.337l-9.134-108.383v-.022c0-2.833.224-6.108,1.884-8.934,2.117-3.6,6.045-5.429,11.677-5.429l26.618-.055h.023a8.924,8.924,0,0,1,6.344,2.624,8.926,8.926,0,0,1,2.639,6.361v3.735a7.884,7.884,0,0,0,2.33,5.618,7.884,7.884,0,0,0,5.606,2.319h.015l98.615-.186h.017a8.923,8.923,0,0,1,6.347,2.626,8.922,8.922,0,0,1,2.638,6.359v93.083c0,2.768-3.167,7.157-5.879,10.075-2.869,3.087-6.9,6.388-9.621,6.393Zm-131.09-8.27h.014l131.1,7.221c1.965-.016,5.433-2.391,8.842-6.058,3.349-3.6,5.6-7.366,5.6-9.362v-93.083a7.884,7.884,0,0,0-2.33-5.617,7.883,7.883,0,0,0-5.606-2.319h-.015l-98.615.186h-.017a8.927,8.927,0,0,1-6.347-2.625,8.927,8.927,0,0,1-2.637-6.359v-3.735a7.885,7.885,0,0,0-2.332-5.619,7.911,7.911,0,0,0-5.625-2.317l-26.62.055c-11.079,0-12.51,7.1-12.513,13.293l9.134,108.383v.021a7.884,7.884,0,0,0,2.33,5.618,7.886,7.886,0,0,0,5.606,2.319h.031Z" transform="translate(-2502.046 4398.703)"></path></g><g transform="translate(2406.902 -4429.599)"><path class="d" d="M2637.34-4247.484a8.461,8.461,0,0,0,8.477,8.461l137.651-.262a8.46,8.46,0,0,0,8.445-8.46v-93.084a8.46,8.46,0,0,0-8.477-8.46l-98.615.186h-43Z" transform="translate(-2636.816 4349.814)"></path><path class="b" d="M2644.324-4239.976a8.925,8.925,0,0,1-6.346-2.625,8.924,8.924,0,0,1-2.638-6.359v-.023l4.5-102.121h43.5l98.615-.186a8.927,8.927,0,0,1,6.364,2.625,8.926,8.926,0,0,1,2.638,6.36v93.083a9,9,0,0,1-8.967,8.985l-137.652.261Zm-7.936-8.973a7.885,7.885,0,0,0,2.33,5.606,7.885,7.885,0,0,0,5.606,2.319h.015l137.652-.261a7.948,7.948,0,0,0,7.921-7.937v-93.083a7.884,7.884,0,0,0-2.33-5.618,7.884,7.884,0,0,0-5.606-2.319h-.016l-98.615.186h-42.5Z" transform="translate(-2635.34 4351.29)"></path></g><g transform="translate(2375.024 -4417.43)"><path class="d" d="M2515.7-4201.049a8.461,8.461,0,0,0,8.477,8.461l137.652-.262a8.46,8.46,0,0,0,8.445-8.46v-93.084a8.461,8.461,0,0,0-8.477-8.46l-98.615.186h-43Z" transform="translate(-2515.177 4303.379)"></path><path class="b" d="M2522.685-4193.54a8.928,8.928,0,0,1-6.347-2.625,8.925,8.925,0,0,1-2.637-6.36v-.023l4.5-102.121h43.5l98.615-.186a8.958,8.958,0,0,1,6.364,2.625,8.926,8.926,0,0,1,2.637,6.359v93.084a9,9,0,0,1-8.968,8.984l-137.651.262Zm-7.936-8.974a7.884,7.884,0,0,0,2.33,5.606,7.884,7.884,0,0,0,5.606,2.319h.016l137.651-.261a7.949,7.949,0,0,0,7.921-7.937v-93.084a7.882,7.882,0,0,0-2.33-5.617,7.884,7.884,0,0,0-5.606-2.319h-.015l-98.616.186h-42.5Z" transform="translate(-2513.701 4304.855)"></path></g><g transform="translate(2371.863 -4433.988)"><path class="c" d="M2658.215-4337.1v93.083a8.46,8.46,0,0,1-8.444,8.46l-137.652.261a8.46,8.46,0,0,1-8.477-8.46v-113.761a8.461,8.461,0,0,1,8.44-8.461l22.083-.055a8.461,8.461,0,0,1,8.482,8.461v3.734a8.461,8.461,0,0,0,8.476,8.461l98.616-.186A8.46,8.46,0,0,1,2658.215-4337.1Z" transform="translate(-2503.118 4366.561)"></path><path class="b" d="M2510.626-4236.252a8.926,8.926,0,0,1-6.347-2.625,8.925,8.925,0,0,1-2.638-6.359V-4359a9,9,0,0,1,8.963-8.985l22.083-.055h.023a8.924,8.924,0,0,1,6.345,2.624,8.924,8.924,0,0,1,2.64,6.361v3.735a7.883,7.883,0,0,0,2.33,5.617,7.855,7.855,0,0,0,5.621,2.319l98.616-.186h.018a8.924,8.924,0,0,1,6.347,2.625,8.925,8.925,0,0,1,2.638,6.359v93.083a9,9,0,0,1-8.968,8.985l-137.651.261Zm22.084-130.737h-.02l-22.083.055a7.95,7.95,0,0,0-7.917,7.937v113.761a7.884,7.884,0,0,0,2.33,5.617,7.884,7.884,0,0,0,5.606,2.319h.015l137.651-.262a7.949,7.949,0,0,0,7.922-7.937v-93.083a7.883,7.883,0,0,0-2.33-5.617,7.938,7.938,0,0,0-5.622-2.319l-98.615.186h-.018a8.925,8.925,0,0,1-6.346-2.625,8.925,8.925,0,0,1-2.638-6.359v-3.735a7.884,7.884,0,0,0-2.331-5.619A7.884,7.884,0,0,0,2532.71-4366.989Z" transform="translate(-2501.642 4368.037)"></path></g><g transform="translate(2489.796 -4457.41)"><path class="e" d="M3009.014-4455.41a55.372,55.372,0,0,0-55.373,55.373,55.374,55.374,0,0,0,55.373,55.374,55.375,55.375,0,0,0,55.373-55.374A55.373,55.373,0,0,0,3009.014-4455.41Zm0,98.639a43.266,43.266,0,0,1-43.266-43.266,43.265,43.265,0,0,1,43.266-43.265,43.264,43.264,0,0,1,43.265,43.265A43.266,43.266,0,0,1,3009.014-4356.771Z" transform="translate(-2953.117 4455.934)"></path><path class="b" d="M3007.539-4345.615a55.961,55.961,0,0,1-55.9-55.9,55.534,55.534,0,0,1,16.372-39.526,55.534,55.534,0,0,1,39.525-16.371,55.533,55.533,0,0,1,39.525,16.371,55.532,55.532,0,0,1,16.373,39.526A55.961,55.961,0,0,1,3007.539-4345.615Zm0-110.747a54.911,54.911,0,0,0-54.849,54.849,54.911,54.911,0,0,0,54.849,54.849,54.911,54.911,0,0,0,54.85-54.849A54.912,54.912,0,0,0,3007.539-4456.362Zm0,98.639a43.84,43.84,0,0,1-43.79-43.79,43.839,43.839,0,0,1,43.79-43.79,43.839,43.839,0,0,1,43.79,43.79A43.84,43.84,0,0,1,3007.539-4357.723Zm0-86.531a42.79,42.79,0,0,0-42.742,42.741,42.79,42.79,0,0,0,42.742,42.741,42.79,42.79,0,0,0,42.741-42.741A42.79,42.79,0,0,0,3007.539-4444.254Z" transform="translate(-2951.641 4457.41)"></path></g><g transform="translate(2574.756 -4380.682)"><rect class="f" width="16.357" height="106.81" transform="translate(0.721 14.68) rotate(-58.587)"></rect><path class="b" d="M3367.876-4093.565l-.447-.273-91.6-55.944,9.072-14.854.447.273,91.6,55.944Zm-90.609-56.565,90.261,55.124,7.979-13.065-90.261-55.124Z" transform="translate(-3275.827 4164.636)"></path></g><g transform="translate(2620.074 -4355.879)"><path class="f" d="M14.332,0h0A14.332,14.332,0,0,1,28.664,14.332v32.6A14.332,14.332,0,0,1,14.332,61.262h0A14.332,14.332,0,0,1,0,46.93v-32.6A14.332,14.332,0,0,1,14.332,0Z" transform="matrix(0.521, -0.853, 0.853, 0.521, 0, 24.462)"></path><path class="b" d="M3506.871-4007.651a10.589,10.589,0,0,1-5.538-1.56l-34.985-21.367a10.67,10.67,0,0,1-3.541-14.651l4.376-7.166a10.671,10.671,0,0,1,14.651-3.54l34.985,21.367a10.671,10.671,0,0,1,3.541,14.651l-4.376,7.166A10.663,10.663,0,0,1,3506.871-4007.651Zm-30.576-48.8a9.614,9.614,0,0,0-8.217,4.6l-4.376,7.165a9.621,9.621,0,0,0,3.192,13.21l34.985,21.368a9.621,9.621,0,0,0,13.21-3.193l4.376-7.165a9.621,9.621,0,0,0-3.192-13.21l-34.985-21.368A9.552,9.552,0,0,0,3476.3-4056.447Z" transform="translate(-3457.973 4060.77)"></path></g><g transform="translate(2485.848 -4453.463)"><path class="e" d="M2993.952-4440.348a55.372,55.372,0,0,0-55.373,55.374,55.374,55.374,0,0,0,55.373,55.373,55.374,55.374,0,0,0,55.373-55.373A55.372,55.372,0,0,0,2993.952-4440.348Zm0,98.639a43.267,43.267,0,0,1-43.265-43.266,43.264,43.264,0,0,1,43.265-43.266,43.264,43.264,0,0,1,43.266,43.266A43.267,43.267,0,0,1,2993.952-4341.709Z" transform="translate(-2938.055 4440.872)"></path><path class="b" d="M2992.477-4330.553a55.961,55.961,0,0,1-55.9-55.9,55.532,55.532,0,0,1,16.372-39.526,55.532,55.532,0,0,1,39.525-16.371A55.532,55.532,0,0,1,3032-4425.977a55.53,55.53,0,0,1,16.372,39.526A55.96,55.96,0,0,1,2992.477-4330.553Zm0-110.747a54.911,54.911,0,0,0-54.849,54.849,54.911,54.911,0,0,0,54.849,54.849,54.911,54.911,0,0,0,54.849-54.849A54.911,54.911,0,0,0,2992.477-4441.3Zm0,98.639a43.839,43.839,0,0,1-43.79-43.79,43.839,43.839,0,0,1,43.79-43.79,43.839,43.839,0,0,1,43.79,43.79A43.839,43.839,0,0,1,2992.477-4342.661Zm0-86.531a42.79,42.79,0,0,0-42.741,42.741,42.79,42.79,0,0,0,42.741,42.741,42.79,42.79,0,0,0,42.741-42.741A42.79,42.79,0,0,0,2992.477-4429.192Z" transform="translate(-2936.579 4442.348)"></path></g><g transform="translate(2536.098 -4420.442)"><rect class="g" width="15.479" height="15.479" transform="translate(0.524 0.524)"></rect><path class="b" d="M3144.848-4299.824H3128.32v-16.527h16.528Zm-15.479-1.048H3143.8V-4315.3h-14.431Z" transform="translate(-3128.32 4316.351)"></path></g><g transform="translate(2536.098 -4400.171)"><rect class="g" width="15.479" height="15.479" transform="translate(0.524 0.524)"></rect><path class="b" d="M3144.848-4222.475H3128.32V-4239h16.528Zm-15.479-1.048H3143.8v-14.431h-14.431Z" transform="translate(-3128.32 4239.002)"></path></g><g transform="translate(2536.098 -4378.502)"><rect class="g" width="15.479" height="15.479" transform="translate(0.524 0.524)"></rect><path class="b" d="M3144.848-4139.79H3128.32v-16.528h16.528Zm-15.479-1.048H3143.8v-14.431h-14.431Z" transform="translate(-3128.32 4156.318)"></path></g><g transform="translate(2329.016 -4366.049)"><circle class="h" cx="41.593" cy="41.593" r="41.593" transform="translate(0.524 0.524)"></circle><path class="b" d="M2380.263-4024.564a42.165,42.165,0,0,1-42.117-42.117,42.165,42.165,0,0,1,42.117-42.117,42.165,42.165,0,0,1,42.117,42.117A42.165,42.165,0,0,1,2380.263-4024.564Zm0-83.186a41.115,41.115,0,0,0-41.069,41.069,41.115,41.115,0,0,0,41.069,41.069,41.115,41.115,0,0,0,41.069-41.069A41.115,41.115,0,0,0,2380.263-4107.75Z" transform="translate(-2338.146 4108.799)"></path></g><g transform="translate(2325.773 -4366.049)"><circle class="h" cx="41.593" cy="41.593" r="41.593" transform="translate(0.524 0.524)"></circle><path class="b" d="M2367.89-4024.564a42.165,42.165,0,0,1-42.117-42.117,42.165,42.165,0,0,1,42.117-42.117,42.165,42.165,0,0,1,42.117,42.117A42.165,42.165,0,0,1,2367.89-4024.564Zm0-83.186a41.116,41.116,0,0,0-41.069,41.069,41.115,41.115,0,0,0,41.069,41.069,41.115,41.115,0,0,0,41.069-41.069A41.115,41.115,0,0,0,2367.89-4107.75Z" transform="translate(-2325.773 4108.799)"></path></g><g transform="translate(2337.959 -4354.349)"><circle class="d" cx="29.772" cy="29.772" r="29.772" transform="translate(0.524 0.524)"></circle><path class="b" d="M2402.57-4003.565a30.33,30.33,0,0,1-30.3-30.3,30.33,30.33,0,0,1,30.3-30.3,30.33,30.33,0,0,1,30.3,30.3A30.33,30.33,0,0,1,2402.57-4003.565Zm0-59.543a29.281,29.281,0,0,0-29.248,29.248,29.281,29.281,0,0,0,29.248,29.248,29.281,29.281,0,0,0,29.248-29.248A29.281,29.281,0,0,0,2402.57-4063.109Z" transform="translate(-2372.274 4064.157)"></path></g><g transform="translate(2351.352 -4346.428)"><g transform="translate(12.162 0)"><circle class="h" cx="4.482" cy="4.482" r="4.482" transform="translate(0 1.452) rotate(-9.321)"></circle><path class="b" d="M2475.336-4023.374a5.013,5.013,0,0,1-5.007-5.007,5.013,5.013,0,0,1,5.007-5.007,5.013,5.013,0,0,1,5.007,5.007A5.013,5.013,0,0,1,2475.336-4023.374Zm0-8.965a3.962,3.962,0,0,0-3.958,3.958,3.963,3.963,0,0,0,3.958,3.958,3.963,3.963,0,0,0,3.958-3.958A3.963,3.963,0,0,0,2475.336-4032.338Z" transform="translate(-2470.187 4033.53)"></path></g><g transform="translate(0 7.014)"><path class="h" d="M2459.188-4003.414a2.375,2.375,0,0,0-3.062-1.63l-8.729,2.985a16.838,16.838,0,0,1-5.452.907h0a16.861,16.861,0,0,1-5.159-.809l-8.311-2.673a2.375,2.375,0,0,0-3.031,1.685,2.429,2.429,0,0,0,1.654,2.861l8.122,2.612a1.04,1.04,0,0,1,.708,1.167c-.767,4.452-4.027,24.059-4.027,24.059a2.374,2.374,0,0,0,1.608,3.073,2.428,2.428,0,0,0,2.9-1.582l3.925-11.222a2.692,2.692,0,0,1,2.242-.032l.039.017,2.96,11.8a2.376,2.376,0,0,0,2.3,1.8,2.393,2.393,0,0,0,.579-.072,2.375,2.375,0,0,0,1.726-2.881s-2.029-20.526-2.5-24.933a1.042,1.042,0,0,1,.7-1.1l9.2-3.147A2.429,2.429,0,0,0,2459.188-4003.414Z" transform="translate(-2424.852 4005.695)"></path><path class="b" d="M2446.4-3969.343a2.894,2.894,0,0,1-2.81-2.194l-2.9-11.542a2.161,2.161,0,0,0-1.421.021l-3.848,11a2.946,2.946,0,0,1-3.536,1.913,2.874,2.874,0,0,1-1.8-1.451,2.909,2.909,0,0,1-.183-2.254c.17-1.023,3.28-19.716,4.021-24.02a.513.513,0,0,0-.352-.579l-8.122-2.612a2.948,2.948,0,0,1-2-3.487,2.875,2.875,0,0,1,1.405-1.832,2.913,2.913,0,0,1,2.294-.225l8.311,2.673a16.311,16.311,0,0,0,5,.784,16.287,16.287,0,0,0,5.283-.878l8.729-2.985a2.911,2.911,0,0,1,2.3.183,2.877,2.877,0,0,1,1.439,1.806h0a2.947,2.947,0,0,1-1.938,3.523l-9.2,3.146a.515.515,0,0,0-.348.544c.456,4.271,2.4,23.92,2.5,24.9a2.9,2.9,0,0,1-2.116,3.478A2.912,2.912,0,0,1,2446.4-3969.343Zm-6.384-14.9a3.224,3.224,0,0,1,1.294.274l.274.121,3.023,12.052a1.847,1.847,0,0,0,1.793,1.4,1.871,1.871,0,0,0,.452-.056,1.853,1.853,0,0,0,1.344-2.245l-.013-.076c-.021-.205-2.035-20.574-2.5-24.929a1.557,1.557,0,0,1,1.051-1.647l9.2-3.146a1.9,1.9,0,0,0,1.265-2.257h0a1.837,1.837,0,0,0-.919-1.154,1.83,1.83,0,0,0-1.467-.117l-8.729,2.985a17.338,17.338,0,0,1-5.622.935,17.35,17.35,0,0,1-5.32-.834l-8.311-2.673a1.834,1.834,0,0,0-1.465.144,1.835,1.835,0,0,0-.9,1.17,1.9,1.9,0,0,0,1.307,2.233l8.122,2.612a1.573,1.573,0,0,1,1.065,1.755c-.758,4.4-3.995,23.859-4.027,24.056l-.022.087a1.833,1.833,0,0,0,.107,1.468,1.838,1.838,0,0,0,1.147.927,1.9,1.9,0,0,0,2.266-1.25l4-11.43.2-.094A3.256,3.256,0,0,1,2440.021-3984.239Z" transform="translate(-2423.376 4007.166)"></path></g></g></g></svg>