<svg xmlns="http://www.w3.org/2000/svg" viewBox="0 0 1435 859"><defs><style>.cls-1{isolation:isolate;}.cls-2,.cls-7,.cls-9{mix-blend-mode:overlay;}.cls-2{opacity:0.09;}.cls-3{fill:#455666;}.cls-3,.cls-4,.cls-5,.cls-6,.cls-8{stroke:#24313e;stroke-miterlimit:10;stroke-width:2px;}.cls-4{fill:#24313e;}.cls-5{fill:#0c7ff2;}.cls-6{fill:#3ab2d0;}.cls-7{opacity:0.38;}.cls-8{fill:#6b7e8f;}.cls-9{fill:#ebf0f5;opacity:0.21;}.cls-10{fill:none;}</style></defs><g class="cls-1"><g id="Layer_2" data-name="Layer 2"><g id="Layer_1-2" data-name="Layer 1"><ellipse class="cls-2" cx="711.26" cy="725.88" rx="208.97" ry="22.57"></ellipse><path id="Path_9328" data-name="Path 9328" class="cls-3" d="M892,360.32c0,88.37-81.72,160.26-182.46,160.26S526.83,449.11,526.83,360.32"></path><path id="Path_9329" data-name="Path 9329" class="cls-4" d="M548.8,439.78,701.65,590.71a15.44,15.44,0,0,0,21.62,0L872.49,439.78a15.27,15.27,0,0,0,0-21.59l0,0a15.61,15.61,0,0,0-10.83-4.36H559.57a15.39,15.39,0,0,0-15.22,15.43A15,15,0,0,0,548.8,439.78Z"></path><path id="Path_9330" data-name="Path 9330" class="cls-3" d="M763.45,694.46l-74.1-74.09,189.4-188.93a14.38,14.38,0,0,1,20,0h0l53.78,53.78a14.43,14.43,0,0,1,0,20h0Z"></path><path id="Path_9345" data-name="Path 9345" class="cls-3" d="M735.52,618.26l-72.81,75.28L470.34,507.48a14.51,14.51,0,0,1,0-20.05h0l52.91-54.7a14.26,14.26,0,0,1,20,0h0Z"></path><path id="Path_9331" data-name="Path 9331" class="cls-5" d="M519.38,345.35h0c0-77,63.11-183.54,140.23-183.54h98.5c77.12,0,140.23,106.55,140.23,183.54h0"></path><circle id="Ellipse_703" data-name="Ellipse 703" class="cls-5" cx="633.56" cy="391.31" r="70.74"></circle><circle id="Ellipse_704" data-name="Ellipse 704" class="cls-6" cx="633.56" cy="391.31" r="36.13"></circle><circle id="Ellipse_703-2" data-name="Ellipse 703" class="cls-5" cx="788.59" cy="391.31" r="70.74"></circle><ellipse class="cls-7" cx="708.86" cy="367.73" rx="169.27" ry="11.08"></ellipse><circle id="Ellipse_704-2" data-name="Ellipse 704" class="cls-6" cx="788.59" cy="391.31" r="36.13"></circle><path id="Rectangle_1314" data-name="Rectangle 1314" class="cls-5" d="M532.14,311H885.7a28.27,28.27,0,0,1,28.36,28.15v.26h0a28.35,28.35,0,0,1-28.36,28.31H532.14a28.31,28.31,0,0,1-28.36-28.27v0h0a28.31,28.31,0,0,1,28.27-28.36h.09Z"></path><path id="Rectangle_1315" data-name="Rectangle 1315" class="cls-8" d="M578.4,228.8l4.14-6.48a33.6,33.6,0,0,1,46.4-10.24h0a33.6,33.6,0,0,1,10.24,46.41L635,265a33.62,33.62,0,0,1-46.41,10.24h0A33.61,33.61,0,0,1,578.4,228.8Z"></path><path id="Rectangle_1316" data-name="Rectangle 1316" class="cls-8" d="M790.84,212h0a33.47,33.47,0,0,1,46.25,10,2.61,2.61,0,0,0,.17.28l4.19,6.4A33.47,33.47,0,0,1,831.54,275l-.3.19h0a33.67,33.67,0,0,1-46.42-10.28l-4.19-6.4a33.46,33.46,0,0,1,9.9-46.27Z"></path><path id="Rectangle_1317" data-name="Rectangle 1317" class="cls-3" d="M544.27,121.08h0a26.85,26.85,0,0,1,35.42,13.69l38.68,87.42a26.85,26.85,0,0,1-13.69,35.42h0a26.84,26.84,0,0,1-35.41-13.69L530.58,156.5A26.85,26.85,0,0,1,544.27,121.08Z"></path><circle id="Ellipse_705" data-name="Ellipse 705" class="cls-8" cx="595" cy="222.99" r="33.04"></circle><path id="Rectangle_1318" data-name="Rectangle 1318" class="cls-3" d="M793.73,222.32l38.73-87.44a26.8,26.8,0,0,1,35.35-13.69h0a26.8,26.8,0,0,1,13.69,35.35v0l-38.68,87.49a26.84,26.84,0,0,1-35.4,13.73l0,0h0a26.89,26.89,0,0,1-13.68-35.42Z"></path><circle id="Ellipse_706" data-name="Ellipse 706" class="cls-8" cx="817.15" cy="231.82" r="33.04"></circle><path id="Path_9340" data-name="Path 9340" class="cls-5" d="M901.38,480.34a19.07,19.07,0,0,1,0,26.85L719.21,689.24a19,19,0,0,1-28.32-25.47l.88-.87h.5L874.35,480.82a19.18,19.18,0,0,1,27-.51Z"></path><path id="Rectangle_1325" data-name="Rectangle 1325" class="cls-5" d="M732.49,695.48h0a19.12,19.12,0,0,1-26.92,0l-182-182a18.94,18.94,0,0,1,0-26.79v0h0a19.07,19.07,0,0,1,26.85,0l182,182.08a19,19,0,0,1,.12,26.85l-.12.13S732.62,695.56,732.49,695.48Z"></path><circle id="Ellipse_700" data-name="Ellipse 700" class="cls-5" cx="713.11" cy="645.79" r="92.26"></circle><circle id="Ellipse_700-2" data-name="Ellipse 700" class="cls-5" cx="713.11" cy="645.79" r="47.17"></circle><ellipse class="cls-9" cx="655.92" cy="391.31" rx="6.74" ry="20.86"></ellipse><ellipse class="cls-9" cx="811.04" cy="392.94" rx="6.74" ry="20.86"></ellipse><path class="cls-7" d="M886.71,571.12c-38.5,36.66-71.19,74-73.39,73.44s26.85-39.51,65.35-76.17,68.39-61.92,70.59-61.36S925.21,534.47,886.71,571.12Z"></path><path class="cls-9" d="M824.47,498.11c-37.71,36.65-70.29,65.68-72.76,64.85s26.1-31.22,63.82-67.87,63.3-64.6,65.77-63.77S862.18,461.46,824.47,498.11Z"></path><path class="cls-9" d="M836.82,532.09c-28.3,27.44-53.06,48.84-55.32,47.8s18.85-24.14,47.14-51.58,47.1-48.78,49.36-47.73S865.11,504.65,836.82,532.09Z"></path><path class="cls-7" d="M860.44,548.64c-31,30.07-58.17,60.9-60.49,59.92s21.09-33.42,52.1-63.49,52-47.68,54.29-46.7S891.45,518.57,860.44,548.64Z"></path><path class="cls-9" d="M612.39,500.75c31.24,32.82,63.4,60.37,62.78,62.38s-34.43-22.17-65.67-55-70.53-76-69.91-78.05S581.15,467.93,612.39,500.75Z"></path><path class="cls-7" d="M542.51,567.26c35,36,62.73,67.13,61.93,69.49s-29.81-24.93-64.81-61S477.92,515.34,478.72,513,507.5,531.24,542.51,567.26Z"></path><path class="cls-7" d="M575,551.39c26.2,27,52.85,59.55,51.85,61.71s-29.26-26.89-55.46-53.91-46.58-45-45.59-47.13S548.75,524.37,575,551.39Z"></path><path class="cls-9" d="M590.76,528.82c28.72,29.61,56.45,51.16,55.51,53.37s-30.2-15.74-58.91-45.35S541.82,487.2,542.76,485,562,499.21,590.76,528.82Z"></path><path class="cls-9" d="M673.36,645.79c0,19.89,16.59,36,23.79,36s-13.82-16.13-13.82-36,21-36,13.82-36S673.36,625.91,673.36,645.79Z"></path><path class="cls-9" d="M626.31,643.84c0,38.63,30.37,74.31,37.57,74.4,9.48.13-32-33.43-30.85-73.27,1-32.75,39.58-68.49,32.38-68.49S626.31,611.08,626.31,643.84Z"></path><ellipse class="cls-9" cx="706.05" cy="320.71" rx="177.77" ry="4.43"></ellipse><ellipse class="cls-9" cx="811.46" cy="216.8" rx="11.5" ry="10.01"></ellipse><ellipse class="cls-9" cx="600.92" cy="211.14" rx="11.5" ry="10.01"></ellipse><ellipse class="cls-9" cx="711.26" cy="170.59" rx="72.85" ry="4.72"></ellipse><rect class="cls-10" width="1435" height="859"></rect></g></g></g></svg>