<svg xmlns="http://www.w3.org/2000/svg" viewBox="0 0 1024 1024"><defs><style>.cls-1{isolation:isolate;}.cls-2{fill:#0062ff;}.cls-2,.cls-3,.cls-5{stroke:#24313e;}.cls-2,.cls-3,.cls-5,.cls-7{stroke-miterlimit:10;stroke-width:2px;}.cls-3{fill:#9caab8;}.cls-10,.cls-13,.cls-4,.cls-5{fill:#ebf0f5;}.cls-4{opacity:0.22;}.cls-10,.cls-13,.cls-4{mix-blend-mode:overlay;}.cls-11,.cls-12,.cls-6,.cls-9{fill:#455666;}.cls-6{opacity:0.6;}.cls-12,.cls-6,.cls-8,.cls-9{mix-blend-mode:multiply;}.cls-7,.cls-8{fill:#24313e;}.cls-7{stroke:#031439;}.cls-8,.cls-9{opacity:0.36;}.cls-10{opacity:0.4;}.cls-12{opacity:0.21;}.cls-13{opacity:0.59;}</style></defs><g class="cls-1"><g id="Layer_1" data-name="Layer 1"><rect class="cls-2" x="609.52" y="117.74" width="27.7" height="220.23" rx="10" transform="translate(287.25 -344.46) rotate(39.5)"></rect><rect class="cls-2" x="395.3" y="71" width="27.7" height="167.37" rx="10" transform="translate(-28 170.05) rotate(-22.72)"></rect><rect class="cls-2" x="540.19" y="52.71" width="27.7" height="158.42" rx="10" transform="translate(92.04 -201.12) rotate(22.39)"></rect><rect class="cls-2" x="324.18" y="130.21" width="27.7" height="220.21" rx="10" transform="translate(-72.98 295.89) rotate(-43.11)"></rect><path class="cls-3" d="M748.68,843.27s0,0,0,0a55.07,55.07,0,0,1-11.18-10.89c-40.08-38.9-175.54-169.25-206.33-184.12C494.87,630.71,478,660.1,478,660.1c-57.52,72.52-106.28,45-111.28,36.26s5-43.76,20-55c7.78-5.82,10.52-16,11.36-24.49a65,65,0,0,1,18.59-39.52q3.22-3.26,7.13-6.68l-169-20S240.26,698.51,176.6,791.38l-3.06,4.38s31.58,7.44,71.09,31.65l6,3.68,28.25,17.24q7.8,4.75,15.88,9.63l43.06,25.83,12.38,7.34,49.6,28.94q8.25,4.74,16.19,9.22l46.77,25.51,5,2.55c15.63,7.94,25,11.31,31.49,12.83,26.46,6.11,32.51,6.25,43.76,7.5,4.09.45,25.22-5.38,27.62-13.46,1.07-3.62,1.27-6.57-.11-7.8l-72.44-56.2,0,0,.06,0,.2.13c30.95,20.4,93.78,72.54,104.72,68.56a55.87,55.87,0,0,0,13.11-6.55h0C642.79,943.83,614.9,915,614.9,915l-125-105.53L640.68,934A38.24,38.24,0,0,0,669,942.78a33.33,33.33,0,0,0,23.41-13.24c17.16-22.07,11.25-31.7,0-42.72-6.38-6.27-49.68-43.14-87-75.54,11.34,9.81,23.64,20.26,36.05,30.48l.62.51c15.49,12.76,31.12,25.13,45.19,35.37l1.18.86c16.47,11.9,30.72,20.81,40,23.83l.18.07c3.11,1,5.65,1.32,7.53.88a38.46,38.46,0,0,0,10.24-4C766.27,888,773.52,860.55,748.68,843.27ZM567.75,778.19l1.72,1.52C568.83,779.16,568.26,778.65,567.75,778.19Zm3.61,3.2c.64.55,1.31,1.15,2,1.76C572.67,782.55,572,782,571.36,781.39Zm2.06,1.81,16.85,14.72C584.4,792.83,578.2,787.42,573.42,783.2ZM590.3,798c1.77,1.52,3.49,3,5.14,4.47Z"></path><path class="cls-4" d="M254.81,557.57s20.63-.3,53.13,10.95,63-1.86,85.91,3.45,30.37,5.31,30.37,5.31-4.3,18.83-19,20-46.82,0-46.82,0-31.67-3.79-52.93-10-43.76-6.25-46.26-5-14-4.57-14-4.57Z"></path><path class="cls-5" d="M850,777,816.2,799.51l-53.3,34.54-14.22,9.22s0,0,0,0c-.4-.39-4.44-4.34-11.18-10.89-40.08-38.9-175.54-169.25-206.33-184.12C494.87,630.71,478,660.1,478,660.1c-46.14,58.17-86.65,52-103.44,42.73-4.15-2.27-6.85-4.75-7.84-6.47-5-8.76,5-43.76,20-55,7.77-5.82,10.51-16,11.34-24.48a65.23,65.23,0,0,1,18.62-39.55q3.21-3.24,7.12-6.66c15.39-13.43,39-28.21,74.3-38.15,80.12-22.57,148.69,30.07,148.69,30.07l78.77-5,45.06,79.5.15.23s0,0,0,0l0,0Z"></path><path class="cls-6" d="M466.23,953l0,0a1.77,1.77,0,0,1-2.43,2.29l-1-.53L416,929.29q-7.92-4.47-16.19-9.22l-49.6-28.94-12.38-7.34L294.78,858q-8.07-4.87-15.88-9.63L253.13,832.6a1.77,1.77,0,0,1,0-3c10.62-6.47,21.21-12.46,26.05-15.68,8.88-5.93,29.05-6.26,38.73-10.34a1.77,1.77,0,0,1,2.32,2.34c-5.49,12.42-17.27,39.29-11.05,45.51,17.56,17.55,56.78-17.08,59-19.8,1.26-1.52,5.85-4.19,9.65-6.25a1.77,1.77,0,0,1,2.39,2.43c-6.8,12.05-18.18,31.68-12.29,47.37,6.27,16.71,50.77-8.44,66.48-20.47a1.77,1.77,0,0,1,2.74,2c-4.82,13.35-11.88,36-8,49.71S473.81,893.68,492,878a1.77,1.77,0,0,1,2.73,2.18C483.41,900.89,460.91,941.42,466.23,953Z"></path><path class="cls-5" d="M452.15,846.61l-41.8,52.46-10.6,14.42a23.3,23.3,0,0,1-32.57,5l-5-3.66a23.3,23.3,0,0,1-5-32.59l6.37-8.66,53.56-52.68a19.18,19.18,0,0,1,26.81-4.1l4.1,3A19.17,19.17,0,0,1,452.15,846.61Z"></path><path class="cls-5" d="M394.64,819.1l-38.05,50L346,883.49a23.3,23.3,0,0,1-32.57,5l-5-3.66a23.3,23.3,0,0,1-5-32.58l6.36-8.67,49.82-50.18a19.17,19.17,0,0,1,26.8-4.1l4.11,3A19.19,19.19,0,0,1,394.64,819.1Z"></path><path class="cls-5" d="M328.37,802.85,302.82,835.3l-10.61,14.43a23.34,23.34,0,0,1-32.57,5l-5-3.66a23.3,23.3,0,0,1-5-32.59L256,809.8l37.33-32.69a19.19,19.19,0,0,1,26.8-4.1l4.1,3a19.19,19.19,0,0,1,4.1,26.82Z"></path><path class="cls-7" d="M254.81,550.69s-1.63,16.58-6.19,42.11C241.8,631,228.42,689.23,204.16,742q-2.39,5.21-4.91,10.28a318.32,318.32,0,0,1-22.65,39.06l-3.06,4.38-16.26,25L59.76,787l35.58-98.07,55.89-154,10.36-28.58Z"></path><path class="cls-5" d="M510.92,867.86l-48.06,61.21-10.6,14.43a23.3,23.3,0,0,1-32.57,5l-5-3.67a23.3,23.3,0,0,1-5-32.58l6.37-8.66,59.82-61.43a19.17,19.17,0,0,1,26.8-4.11l4.11,3A19.18,19.18,0,0,1,510.92,867.86Z"></path><path class="cls-6" d="M746.42,899.27a38.46,38.46,0,0,1-10.24,4c-1.88.44-4.42.12-7.53-.88l-.18-.07c-10.31-3.87-24.41-12.65-40-23.83l-1.18-.86c-14.46-10.43-30.12-22.87-45.19-35.37l-.62-.51c-37.83-31.44-71.66-63.08-72.62-64l132.44,100A122.55,122.55,0,0,0,741,897.69Z"></path><path class="cls-6" d="M681.79,938.92c-3.13,1.77-9.45,2.26-13.13,3.12-1.88.44-5,1.63-8.13.63-.06,0-11.68-3.43-13.75-5-8.78-6.67-16.49-13-32.08-24.16-.39-.27-.79-.56-1.19-.86-14.46-10.43-30.12-22.87-45.19-35.37l-.62-.52c-37.83-31.43-71.66-63.07-72.62-64l132.45,100c11.9,9,31.59,19.47,45.92,23.63Z"></path><path class="cls-6" d="M570.51,956.42c1.38,1.23,1.18,4.18.11,7.8-27.85-24.59-70.62-62.29-72.55-64Z"></path><path class="cls-6" d="M616.13,962.37A55.87,55.87,0,0,1,603,968.92c-10.94,4-73.77-48.16-104.72-68.56,5.18,3.26,71.65,45.2,88.46,54.81C603.92,965,615.67,962.49,616.13,962.37Z"></path><path class="cls-8" d="M831,790.55l-4.76,2.29L762.91,834l-14.27,9.26h0a.93.93,0,0,0-.1-.1c-.8-.78-4.75-4.64-11.07-10.78-40.08-38.9-175.54-169.25-206.33-184.12C494.87,630.71,478,660.1,478,660.1c-46.14,58.17-85.62,46.72-76.27,43.76,41.2-13,41.26-13.76,67.51-52.52S533,633.84,533,633.84s96.22,70,162.88,127.67c53,26.62,123.79,23.23,123.79,23.23Z"></path><path class="cls-9" d="M762.91,834s0,.06,0,.08l-14.22,9.22s0,0,0,0Z"></path><path class="cls-10" d="M725.55,557.57l45.06,79.5a171.4,171.4,0,0,0-42.56-45.74c-27.51-20-81.27-28.76-81.27-28.76Z"></path><path class="cls-11" d="M770.76,637.3s0,0,0,0a1.68,1.68,0,0,0-.15-.26Z"></path><path class="cls-12" d="M318.37,814.1l-15.55,21.2-10.61,14.43a23.17,23.17,0,0,1-16.77,9.4c-5.49-.87-10-1.6-11.26-5.23s5-21.26,16.26-27.51,11.25,0,23-4.58,14.76-20,14.76-20a33.14,33.14,0,0,1,3.59-2.53A19.06,19.06,0,0,1,318.37,814.1Z"></path><path class="cls-12" d="M385.76,823.73l-24.13,34.49L346.46,880c-5.93,8.48-13.14,13.34-19.76,14.17-5.21-1.32-9.53-2.41-9.6-7.89-.06-5.66,7.6-6.52,20.83-16s10.35-5.24,24.63-20.4c11.1-11.8,26.9-44.7,26.9-44.7a49.72,49.72,0,0,1,4.39-3.81A47.09,47.09,0,0,1,385.76,823.73Z"></path><path class="cls-12" d="M440.1,853.1l-25,33.58-15.73,21.17c-6.14,8.26-13.48,13-20.13,13.8-5.18-1.28-9.47-2.35-9.39-7.69.09-5.5,7.76-6.34,21.24-15.52s10.49-5.1,25.16-19.86c11.41-11.48,28.07-43.51,28.07-43.51a50.44,50.44,0,0,1,4.49-3.71A46.18,46.18,0,0,1,440.1,853.1Z"></path><path class="cls-12" d="M494.18,876.35l-31.55,49.21-11.69,11.27c-6.34,8.87-13.8,14-20.47,14.83-5.14-1.38-9.41-2.53-9.19-8.26.22-5.92,7.92-6.82,21.62-16.68s11.73-7.13,26.76-23c11.7-12.34,29.15-46.76,29.15-46.76a55,55,0,0,1,4.58-4A53,53,0,0,1,494.18,876.35Z"></path><path class="cls-12" d="M199.25,752.32a318.32,318.32,0,0,1-22.65,39.06l-3.06,4.38-16.26,25L59.76,787l35.58-98.07s-26,90.18,30.46,101.62C167.25,799,190.05,768.92,199.25,752.32Z"></path><path class="cls-4" d="M254.81,550.69s-1.63,16.58-6.19,42.11a84.36,84.36,0,0,0-17-22.73c-38.76-37.51-38.76,0-67.51-27.5a32.26,32.26,0,0,0-12.93-7.68l10.36-28.58Z"></path><path class="cls-7" d="M940.6,761.37l-101.27,45c-14.54-12.92-28.1-31.82-40.41-53.52a.07.07,0,0,0,0,0c-44.87-79-73.34-195.25-73.34-195.25l73.77-51.26C812.61,544.93,848.67,609.82,881,664.5,912.57,717.8,940.6,761.37,940.6,761.37Z"></path><path class="cls-8" d="M940.6,761.37l-101.27,45c-14.54-12.92-28.1-31.82-40.41-53.52.69,1,16.86,23.68,54.79,2.89C892.47,734.49,881,664.5,881,664.5,912.57,717.8,940.6,761.37,940.6,761.37Z"></path><path class="cls-4" d="M815.57,544.78c-6.25.29-32.07,10.66-59.79,16.72S725.55,560,725.55,560l73.77-53.68Z"></path><path class="cls-13" d="M684,139.18a12.27,12.27,0,0,0-4.17,3.29L555.61,293.12a12.49,12.49,0,0,0,1.68,17.59l2.09,1.71a12.38,12.38,0,0,0,8.42,2.85,12.45,12.45,0,0,1-13.42-1.6L552.29,312a12.48,12.48,0,0,1-1.68-17.59L674.77,143.72A12.44,12.44,0,0,1,684,139.18Z"></path><path class="cls-13" d="M440.92,232.11l-.69.29a12.51,12.51,0,0,1-16.36-6.7l-55-131.32A12.52,12.52,0,0,1,375.59,78l2.48-1a12.79,12.79,0,0,1,4.32-1l-1.8.75a12.51,12.51,0,0,0-6.7,16.37l55,131.32A12.53,12.53,0,0,0,440.92,232.11Z"></path><path class="cls-13" d="M577.75,57.26a12.31,12.31,0,0,0-6.09,6.46L520.82,187.07a12.5,12.5,0,0,0,6.79,16.32l2.5,1a12.07,12.07,0,0,0,5.24.92,12.37,12.37,0,0,1-10.24.33l-2.5-1a12.49,12.49,0,0,1-6.79-16.32L566.66,65A12.46,12.46,0,0,1,577.75,57.26Z"></path><path class="cls-13" d="M409.23,323.72a12.48,12.48,0,0,1-14.6-2.68L261.22,178.53a12.5,12.5,0,0,1,.59-17.67l2-1.85a12.51,12.51,0,0,1,8.06-3.37,12.92,12.92,0,0,0-3.06,2.12l-2,1.85a12.5,12.5,0,0,0-.59,17.67L399.63,319.79A12.43,12.43,0,0,0,409.23,323.72Z"></path></g></g></svg>