<svg xmlns="http://www.w3.org/2000/svg" viewBox="0 0 1443 864"><defs><style>.cls-1{isolation:isolate;}.cls-2,.cls-7,.cls-9{mix-blend-mode:overlay;}.cls-2{opacity:0.09;}.cls-3{fill:#455666;}.cls-3,.cls-4,.cls-5,.cls-6,.cls-8{stroke:#24313e;stroke-miterlimit:10;stroke-width:2px;}.cls-4{fill:#24313e;}.cls-5{fill:#0c7ff2;}.cls-6{fill:#3ab2d0;}.cls-7{opacity:0.38;}.cls-8{fill:#6b7e8f;}.cls-9{fill:#ebf0f5;opacity:0.21;}.cls-10{fill:none;}</style></defs><g class="cls-1"><g id="Layer_2" data-name="Layer 2"><g id="Layer_1-2" data-name="Layer 1"><ellipse class="cls-2" cx="721.28" cy="724.41" rx="208.97" ry="22.57"></ellipse><path id="Path_9328" data-name="Path 9328" class="cls-3" d="M902.06,358.85c0,88.37-81.72,160.25-182.46,160.25S536.85,447.64,536.85,358.85"></path><path id="Path_9329" data-name="Path 9329" class="cls-4" d="M558.82,438.31,711.67,589.23a15.42,15.42,0,0,0,21.62,0L882.51,438.31a15.27,15.27,0,0,0,0-21.59l0,0a15.52,15.52,0,0,0-10.83-4.36H569.59a15.39,15.39,0,0,0-15.22,15.43A15.12,15.12,0,0,0,558.82,438.31Z"></path><path id="Path_9330" data-name="Path 9330" class="cls-3" d="M773.47,693l-74.1-74.1L888.77,430a14.4,14.4,0,0,1,20,0h0l53.78,53.78a14.43,14.43,0,0,1,0,20.05h0Z"></path><path id="Path_9345" data-name="Path 9345" class="cls-3" d="M745.54,616.79l-72.81,75.28L480.36,506a14.51,14.51,0,0,1,0-20.05h0l52.91-54.7a14.24,14.24,0,0,1,20.05,0h0Z"></path><path id="Path_9331" data-name="Path 9331" class="cls-5" d="M529.41,343.88h0c0-77,63.1-183.55,140.22-183.55h98.51c77.11,0,140.22,106.56,140.22,183.55h0"></path><circle id="Ellipse_703" data-name="Ellipse 703" class="cls-5" cx="643.58" cy="389.84" r="70.74"></circle><circle id="Ellipse_704" data-name="Ellipse 704" class="cls-6" cx="643.58" cy="389.84" r="36.13"></circle><circle id="Ellipse_703-2" data-name="Ellipse 703" class="cls-5" cx="798.61" cy="389.84" r="70.74"></circle><ellipse class="cls-7" cx="718.88" cy="366.26" rx="169.27" ry="11.08"></ellipse><circle id="Ellipse_704-2" data-name="Ellipse 704" class="cls-6" cx="798.61" cy="389.84" r="36.13"></circle><path id="Rectangle_1314" data-name="Rectangle 1314" class="cls-5" d="M542.16,309.54H895.73a28.26,28.26,0,0,1,28.35,28.15v.25h0a28.35,28.35,0,0,1-28.35,28.32H542.16A28.33,28.33,0,0,1,513.8,338v-.05h0a28.32,28.32,0,0,1,28.27-28.36h.09Z"></path><path id="Rectangle_1315" data-name="Rectangle 1315" class="cls-8" d="M588.42,227.32l4.14-6.48A33.62,33.62,0,0,1,639,210.6h0A33.61,33.61,0,0,1,649.2,257l-4.14,6.48a33.59,33.59,0,0,1-46.4,10.24h0A33.6,33.6,0,0,1,588.42,227.32Z"></path><path id="Rectangle_1316" data-name="Rectangle 1316" class="cls-8" d="M800.86,210.52h0a33.45,33.45,0,0,1,46.25,10l.17.28,4.19,6.39a33.45,33.45,0,0,1-9.91,46.27l-.3.2h0a33.66,33.66,0,0,1-46.42-10.29l-4.19-6.4a33.46,33.46,0,0,1,9.91-46.27Z"></path><path id="Rectangle_1317" data-name="Rectangle 1317" class="cls-3" d="M554.29,119.61h0a26.85,26.85,0,0,1,35.42,13.69l38.68,87.42a26.85,26.85,0,0,1-13.68,35.42h0a26.85,26.85,0,0,1-35.42-13.69L540.6,155A26.85,26.85,0,0,1,554.29,119.61Z"></path><circle id="Ellipse_705" data-name="Ellipse 705" class="cls-8" cx="605.02" cy="221.51" r="33.04"></circle><path id="Rectangle_1318" data-name="Rectangle 1318" class="cls-3" d="M803.76,220.85l38.72-87.45a26.8,26.8,0,0,1,35.35-13.68h0a26.8,26.8,0,0,1,13.69,35.35v0l-38.68,87.49a26.85,26.85,0,0,1-35.4,13.73l-.05,0h0a26.89,26.89,0,0,1-13.68-35.42Z"></path><circle id="Ellipse_706" data-name="Ellipse 706" class="cls-8" cx="827.17" cy="230.34" r="33.04"></circle><path id="Path_9340" data-name="Path 9340" class="cls-5" d="M911.4,478.87a19.07,19.07,0,0,1,0,26.85l-182.17,182a19,19,0,0,1-28.32-25.47l.88-.88h.5L884.38,479.34a19.18,19.18,0,0,1,27-.5Z"></path><path id="Rectangle_1325" data-name="Rectangle 1325" class="cls-5" d="M742.51,694h0a19.1,19.1,0,0,1-26.92,0l-182-182a18.94,18.94,0,0,1,0-26.79h0a19.07,19.07,0,0,1,26.85,0l182,182.08a19,19,0,0,1,.13,26.85l-.13.12S742.65,694.09,742.51,694Z"></path><circle id="Ellipse_700" data-name="Ellipse 700" class="cls-5" cx="723.13" cy="644.32" r="92.26"></circle><circle id="Ellipse_700-2" data-name="Ellipse 700" class="cls-5" cx="723.13" cy="644.32" r="47.17"></circle><ellipse class="cls-9" cx="665.94" cy="389.84" rx="6.74" ry="20.86"></ellipse><ellipse class="cls-9" cx="821.06" cy="391.47" rx="6.74" ry="20.86"></ellipse><path class="cls-7" d="M896.73,569.65c-38.5,36.65-71.19,74-73.39,73.43s26.85-39.51,65.35-76.16,68.39-61.92,70.59-61.36S935.23,533,896.73,569.65Z"></path><path class="cls-9" d="M834.49,496.64c-37.71,36.64-70.29,65.68-72.76,64.85s26.11-31.22,63.82-67.87,63.3-64.61,65.77-63.78S872.21,460,834.49,496.64Z"></path><path class="cls-9" d="M846.84,530.62c-28.3,27.44-53.06,48.84-55.32,47.79s18.85-24.13,47.14-51.57,47.1-48.78,49.36-47.74S875.13,503.18,846.84,530.62Z"></path><path class="cls-7" d="M870.46,547.16c-31,30.07-58.17,60.91-60.49,59.92s21.09-33.41,52.1-63.48,52-47.68,54.29-46.7S901.47,517.09,870.46,547.16Z"></path><path class="cls-9" d="M622.41,499.28c31.24,32.82,63.4,60.36,62.78,62.37s-34.42-22.17-65.66-55-70.54-76-69.92-78S591.17,466.46,622.41,499.28Z"></path><path class="cls-7" d="M552.53,565.79c35,36,62.73,67.12,61.93,69.48s-29.81-24.93-64.81-60.94-61.7-60.46-60.91-62.82S517.53,529.77,552.53,565.79Z"></path><path class="cls-7" d="M585,549.91c26.21,27,52.85,59.56,51.85,61.72s-29.25-26.89-55.46-53.91-46.58-45-45.59-47.14S558.77,522.89,585,549.91Z"></path><path class="cls-9" d="M600.78,527.35c28.72,29.61,56.46,51.16,55.52,53.37S626.09,565,597.38,535.37s-45.54-49.64-44.6-51.85S572.06,497.74,600.78,527.35Z"></path><path class="cls-9" d="M683.38,644.32c0,19.89,16.59,36,23.79,36s-13.82-16.12-13.82-36,21-36,13.82-36S683.38,624.43,683.38,644.32Z"></path><path class="cls-9" d="M636.33,642.37c0,38.63,30.37,74.3,37.57,74.4,9.48.13-32-33.43-30.85-73.28,1-32.74,39.58-68.48,32.38-68.48S636.33,609.6,636.33,642.37Z"></path><ellipse class="cls-9" cx="716.07" cy="319.23" rx="177.77" ry="4.43"></ellipse><ellipse class="cls-9" cx="821.48" cy="215.32" rx="11.5" ry="10.01"></ellipse><ellipse class="cls-9" cx="610.94" cy="209.67" rx="11.5" ry="10.01"></ellipse><ellipse class="cls-9" cx="721.28" cy="169.12" rx="72.85" ry="4.72"></ellipse><rect class="cls-10" width="1443" height="864"></rect></g></g></g></svg>