<svg xmlns="http://www.w3.org/2000/svg" xmlns:xlink="http://www.w3.org/1999/xlink" id="Layer_1" x="0px" y="0px" viewBox="0 0 1024 1024" style="enable-background:new 0 0 1024 1024;" xml:space="preserve"><style type="text/css">	.st0{fill:#24313E;stroke:#031439;stroke-width:2;stroke-miterlimit:10;}	.st1{fill:#EBF0F5;stroke:#24313E;stroke-width:2;stroke-miterlimit:10;}	.st2{fill:none;stroke:#24313E;stroke-width:2;stroke-miterlimit:10;}	.st3{fill:#0062FF;stroke:#24313E;stroke-width:2;stroke-miterlimit:10;}	.st4{opacity:0.25;}	.st5{fill:#EBF0F5;}	.st6{fill:#455666;}	.st7{opacity:0.25;fill:#EBF0F5;enable-background:new    ;}</style><g>	<g id="Layer_1_1_">		<path class="st0" d="M322.9,438.7l-20.8-8.3c-5.2-2.1-7.7-8-5.7-13.1c0.1-0.1,0.1-0.3,0.2-0.4C350.6,297.5,491,244.5,610.2,298.4   c29.9,13.5,56.7,33.1,78.7,57.5l-31.6,28.5c-36.9-40.9-89.4-64.3-144.5-64.4c-76.8,0-145.2,44.2-176.8,113.4   C333.7,438.4,328,440.7,322.9,438.7z"></path>		<path class="st0" d="M631.7,390.9l70.8,34.4c2.7,1.3,6,0.2,7.3-2.5c0.4-0.9,0.6-1.8,0.5-2.8l-5.6-78.5c-0.2-3-2.8-5.3-5.8-5.1   c-1,0.1-1.9,0.4-2.7,0.9L631,381.4c-2.5,1.7-3.2,5.1-1.5,7.6C630.1,389.8,630.8,390.4,631.7,390.9z"></path>		<path class="st0" d="M512.7,751.5c-69.3,0-135.1-30.3-180.1-83l32.4-27.7c69.8,81.6,192.6,91.2,274.2,21.4   c20.2-17.2,36.6-38.4,48.2-62.3c2.4-4.9,8.1-7,13.1-4.9l20.5,8.9c5.1,2.2,7.5,8.1,5.3,13.3c-0.1,0.1-0.1,0.3-0.2,0.4   C686.7,699.6,603.7,751.6,512.7,751.5z"></path>		<path class="st0" d="M390.7,635.1L320.8,599c-2.7-1.4-6-0.3-7.4,2.3c-0.4,0.9-0.7,1.8-0.6,2.8l3.6,78.6c0.1,3,2.7,5.4,5.7,5.2   c0.9,0,1.9-0.3,2.7-0.8l66.3-42.5c2.6-1.6,3.3-5,1.7-7.6C392.3,636.2,391.5,635.6,390.7,635.1z"></path>		<path class="st0" d="M397.2,520.8c0.1,5.5,4.2,10.2,9.7,11l18.6,2.8c3.3,0.5,6.3,2.5,8,5.4l26.1,43.4c1.8,2.9,2.1,6.5,1,9.7   l-2.4,6.8h1.2v32.7c0,0,25.8,1.8,29.3-2.5l11.7-14.4c2.1-2.6,5.3-4.2,8.6-4.2l59.3-0.6v22.7l19.9-0.4c2.5,0.3,4.9-0.2,7.1-1.5   l14.7-8.6c4.8-2.8,6.8-8.6,4.9-13.8l-6.5-17.1c-1.2-3.1-0.9-6.6,0.7-9.5l25.8-46.5c1.6-3,4.5-5,7.8-5.6L661,527   c5.4-1,9.3-5.8,9.2-11.4l-0.3-17c-0.1-5.5-4.2-10.2-9.7-11l-18.6-2.8c-3.4-0.5-6.3-2.5-8-5.4l-26.1-43.4c-1.8-2.9-2.1-6.5-1-9.7   l6.4-17.8c1.9-5.2-0.3-11-5.2-13.7l-14.9-8.3c-2.9-1.6-24.7-0.9-24.7-0.9v22.6l-60.7,0.6c-3.4,0.1-6.7-1.4-8.9-4l-12.3-14.6   c-2.7-3.2-7-4.7-11.1-3.8h-17.4v32.7h-2.1l3.1,8.1c1.2,3.1,0.9,6.6-0.7,9.5l-25.8,46.5c-1.6,2.9-4.5,5-7.8,5.6l-18.4,3.5   c-5.4,1-9.3,5.8-9.2,11.4L397.2,520.8z M533.7,463c25,0,45.7,20.1,46.6,45c0.9,25.8-19.2,47.5-45,48.4c-0.6,0-1.2,0-1.7,0   c-25,0-45.7-20.1-46.6-45c-0.9-25.8,19.2-47.5,45-48.4C532.5,463,533.1,463,533.7,463z"></path>		<path class="st1" d="M375.9,520.8c0.1,5.5,4.2,10.2,9.7,11l18.6,2.8c3.3,0.5,6.3,2.5,8,5.4l26.1,43.4c1.8,2.9,2.1,6.5,1,9.7   l-6.4,17.8c-1.9,5.2,0.3,11,5.1,13.7l14.9,8.3c4.8,2.7,10.9,1.5,14.4-2.8l11.7-14.4c2.1-2.6,5.3-4.2,8.6-4.2l50.8-0.9   c3.4,0,6.7,1.5,8.9,4.1l12.3,14.6c3.6,4.2,9.6,5.3,14.4,2.5l14.7-8.7c4.8-2.8,6.9-8.6,4.9-13.8l-6.5-17.1   c-1.2-3.1-0.9-6.6,0.7-9.5l25.8-46.5c1.6-3,4.5-5,7.8-5.6l18.4-3.5c5.4-1,9.4-5.8,9.2-11.4l-0.3-17c-0.1-5.5-4.2-10.2-9.7-11   l-18.6-2.8c-3.3-0.5-6.3-2.5-8-5.4l-26.1-43.4c-1.8-2.9-2.1-6.5-1-9.7l6.4-17.8c1.9-5.2-0.3-11-5.2-13.7l-14.9-8.3   c-4.8-2.7-10.9-1.6-14.4,2.8l-11.7,14.4c-2.1,2.6-5.3,4.2-8.6,4.2l-50.8,0.9c-3.4,0.1-6.7-1.4-8.9-4l-12.3-14.6   c-3.6-4.2-9.6-5.3-14.4-2.5l-14.7,8.6c-4.8,2.8-6.9,8.6-4.9,13.8l6.5,17.1c1.2,3.1,0.9,6.6-0.7,9.5l-25.8,46.5   c-1.6,2.9-4.5,5-7.8,5.6l-18.4,3.5c-5.4,1-9.3,5.8-9.2,11.4L375.9,520.8z M512.4,463c25,0,45.7,20.1,46.6,45   c0.9,25.8-19.2,47.5-45,48.4c-0.6,0-1.2,0-1.8,0c-25,0-45.7-20.1-46.6-45c-0.9-25.8,19.2-47.5,45-48.4   C511.2,463,511.8,463,512.4,463z"></path>		<path class="st2" d="M375.9,520.8c0.1,5.5,4.2,10.2,9.7,11l18.6,2.8c3.3,0.5,6.3,2.5,8,5.4l26.1,43.4c1.8,2.9,2.1,6.5,1,9.7   l-6.4,17.8c-1.9,5.2,0.3,11,5.1,13.7l14.9,8.3c4.8,2.7,10.9,1.5,14.4-2.8l11.7-14.4c2.1-2.6,5.3-4.2,8.6-4.2l50.8-0.9   c3.4,0,6.7,1.5,8.9,4.1l12.3,14.6c3.6,4.2,9.6,5.3,14.4,2.5l14.7-8.7c4.8-2.8,6.9-8.6,4.9-13.8l-6.5-17.1   c-1.2-3.1-0.9-6.6,0.7-9.5l25.8-46.5c1.6-3,4.5-5,7.8-5.6l18.4-3.5c5.4-1,9.4-5.8,9.2-11.4l-0.3-17c-0.1-5.5-4.2-10.2-9.7-11   l-18.6-2.8c-3.3-0.5-6.3-2.5-8-5.4l-26.1-43.4c-1.8-2.9-2.1-6.5-1-9.7l6.4-17.8c1.9-5.2-0.3-11-5.2-13.7l-14.9-8.3   c-4.8-2.7-10.9-1.6-14.4,2.8l-11.7,14.4c-2.1,2.6-5.3,4.2-8.6,4.2l-50.8,0.9c-3.4,0.1-6.7-1.4-8.9-4l-12.3-14.6   c-3.6-4.2-9.6-5.3-14.4-2.5l-14.7,8.6c-4.8,2.8-6.9,8.6-4.9,13.8l6.5,17.1c1.2,3.1,0.9,6.6-0.7,9.5l-25.8,46.5   c-1.6,2.9-4.5,5-7.8,5.6l-18.4,3.5c-5.4,1-9.3,5.8-9.2,11.4L375.9,520.8z M512.4,463c25,0,45.7,20.1,46.6,45   c0.9,25.8-19.2,47.5-45,48.4c-0.6,0-1.2,0-1.8,0c-25,0-45.7-20.1-46.6-45c-0.9-25.8,19.2-47.5,45-48.4   C511.2,463,511.8,463,512.4,463z"></path>		<path class="st3" d="M688.9,350.8l-31.6,28.5c-3.9-4.4-8-8.5-12.3-12.5c-36-33.3-83.2-51.8-132.2-51.9   c-76.8,0-145.2,44.2-176.8,113.4c-2.2,4.9-7.9,7.2-13,5.2l-20.8-8.3c-5.2-2.1-7.7-7.9-5.7-13.1c0.1-0.1,0.1-0.3,0.2-0.4   C350.6,292.4,491,239.4,610.3,293.3c26.4,11.9,50.3,28.6,70.7,49.1l0,0l0,0C683.7,345.1,686.3,347.9,688.9,350.8z"></path>		<path class="st3" d="M631.7,385.7l70.8,34.4c2.7,1.3,6,0.2,7.3-2.5c0.4-0.9,0.6-1.8,0.5-2.8l-5.6-78.5c-0.2-3-2.8-5.3-5.9-5.1   c-1,0.1-1.9,0.4-2.7,0.9L631,376.3c-2.5,1.7-3.2,5.1-1.5,7.6C630.1,384.7,630.8,385.3,631.7,385.7z"></path>		<path class="st3" d="M512.7,746.4c-69.3,0-135.1-30.3-180.1-83l32.4-27.7c69.8,81.6,192.6,91.2,274.2,21.4   c20.2-17.2,36.6-38.4,48.3-62.3c2.4-4.9,8.1-7,13.1-4.9l20.5,8.9c5.1,2.2,7.5,8.1,5.3,13.3c-0.1,0.1-0.1,0.3-0.2,0.4   C686.7,694.4,603.7,746.5,512.7,746.4z"></path>		<g class="st4">			<path class="st5" d="M726.2,612.5c0,0.1-0.1,0.2-0.1,0.2c-1.1-2.1-2.8-3.8-5-4.7l-20.5-8.9c-5-2.1-10.7,0-13.1,4.9    c-47.3,96.5-163.8,136.4-260.2,89.1c-23.8-11.7-45-28.1-62.2-48.2l-27.7,23.7c-1.6-1.7-3.1-3.5-4.7-5.3l32.3-27.7    c69.8,81.6,192.6,91.2,274.2,21.4c20.2-17.2,36.6-38.4,48.2-62.2c2.4-4.9,8.1-7,13.1-4.9l20.5,8.9c5.1,2.2,7.5,8.1,5.3,13.3    C726.3,612.3,726.3,612.4,726.2,612.5z"></path>		</g>		<path class="st3" d="M390.7,630l-69.9-36.2c-2.7-1.4-6-0.3-7.4,2.3c-0.4,0.9-0.7,1.8-0.6,2.8l3.6,78.6c0.1,3,2.7,5.4,5.7,5.2   c0.9,0,1.9-0.3,2.7-0.8l66.3-42.5c2.6-1.6,3.3-5,1.7-7.6C392.3,631.1,391.5,630.4,390.7,630z"></path>		<polygon class="st6" points="681,342.4 628.6,358.4 641.7,369   "></polygon>		<polygon class="st6" points="377.1,648.6 341.1,672.3 351.4,682.6   "></polygon>		<path class="st7" d="M681,342.4L681,342.4c-1.3-1.2-102.3-94.3-248.4-49.4c0,0-98.3,35.2-130.4,132.2c-5.2-2.1-7.7-7.9-5.7-13.1   c0.1-0.1,0.1-0.3,0.2-0.4C350.6,292.4,491,239.4,610.2,293.3C636.6,305.2,660.6,321.8,681,342.4z"></path>		<g class="st4">			<path class="st5" d="M703.1,419.7l-1.4-0.7c1.4-1.1,2.2-2.9,2-4.6l-5.6-78.5c-0.1-1.5-0.8-2.8-1.9-3.8l0.6-0.4    c2.5-1.7,5.9-1,7.6,1.5c0.5,0.8,0.9,1.7,0.9,2.7l5.6,78.5c0.2,3-2.1,5.6-5.1,5.9C704.9,420.3,703.9,420.1,703.1,419.7z"></path>		</g>		<g class="st4">			<path class="st5" d="M391.5,639.6l-1.3,0.8c-0.2-1.8-1.3-3.3-2.9-4.2L317.4,600c-1.3-0.7-2.8-0.8-4.2-0.3V599    c-0.1-3,2.2-5.6,5.2-5.7c1,0,1.9,0.2,2.8,0.6l69.9,36.2c2.7,1.4,3.7,4.7,2.3,7.4C393,638.3,392.3,639,391.5,639.6z"></path>		</g>	</g></g></svg>