<svg xmlns="http://www.w3.org/2000/svg" width="430" height="496" viewBox="0 0 430 496"><defs><style>.a,.c,.d,.e,.h{fill:#6b7e8f;}.a{font-size:16px;font-family:Rubik-Bold, Rubik;font-weight:700;}.b{fill:#01c7d4;}.c,.e,.g,.h{font-size:14px;}.c{font-family:Rubik-Regular, Rubik;}.d{opacity:0.05;}.e,.g{font-family:Consolas;}.f{fill:#ff4451;}.g{fill:#fff;}.h{font-family:OpenSans, Open Sans;}</style></defs><g transform="translate(-399 -1588)"><text class="a" transform="translate(425 1603)"><tspan x="0" y="0">OpenAPI/Swagger</tspan></text><text class="a" transform="translate(425 1762)"><tspan x="0" y="0">RAML</tspan></text><text class="a" transform="translate(677 1682.84)"><tspan x="0" y="0">WSDL - W3C</tspan></text><text class="a" transform="translate(425 1868)"><tspan x="0" y="0">Postman Collection</tspan></text><text class="a" transform="translate(425 1974)"><tspan x="0" y="0">Insomnia Export Format</tspan></text><text class="a" transform="translate(425 2052)"><tspan x="0" y="0">HAR</tspan></text><text class="a" transform="translate(677 1603)"><tspan x="0" y="0">API Blueprint</tspan></text><circle class="b" cx="8.586" cy="8.586" r="8.586" transform="translate(399 1589)"></circle><circle class="b" cx="8.586" cy="8.586" r="8.586" transform="translate(399 1748)"></circle><circle class="b" cx="8.586" cy="8.586" r="8.586" transform="translate(651 1668.84)"></circle><circle class="b" cx="8.586" cy="8.586" r="8.586" transform="translate(399 1854)"></circle><circle class="b" cx="8.586" cy="8.586" r="8.586" transform="translate(399 1960)"></circle><circle class="b" cx="8.586" cy="8.586" r="8.586" transform="translate(399 2038)"></circle><circle class="b" cx="8.586" cy="8.586" r="8.586" transform="translate(651 1589)"></circle><text class="c" transform="translate(425 1615)"><tspan x="0" y="13" xml:space="preserve">          (JSON/YAML),</tspan></text><text class="c" transform="translate(425 1642)"><tspan x="0" y="13" xml:space="preserve">          (JSON/YAML),</tspan></text><text class="c" transform="translate(425 1669)"><tspan x="0" y="13" xml:space="preserve">          (JSON/YAML),</tspan></text><text class="c" transform="translate(425 1696)"><tspan x="0" y="13" xml:space="preserve">          (JSON)</tspan></text><text class="c" transform="translate(462 1789.101)"><tspan x="0" y="0">(YAML),</tspan><tspan x="0" y="26">(YAML)</tspan></text><text class="c" transform="translate(714 1709.94)"><tspan x="0" y="0">(XML)</tspan></text><text class="c" transform="translate(462 1895.101)"><tspan x="0" y="0">(JSON),</tspan></text><text class="c" transform="translate(462 1923)"><tspan x="0" y="0">(JSON)</tspan></text><text class="c" transform="translate(462 2079.101)"><tspan x="0" y="0">(JSON)</tspan></text><text class="c" transform="translate(706 1630.101)"><tspan x="0" y="0">(Markdown)</tspan></text><text class="c" transform="translate(447 2001.101)"><tspan x="0" y="0">(JSON/YAML)</tspan></text><g transform="translate(-222 1032)"><rect class="d" width="31" height="21" rx="3" transform="translate(647 581)"></rect><text class="e" transform="translate(651 596)"><tspan x="0" y="0">3.1</tspan></text></g><g transform="translate(-89.392 1032)"><path class="f" d="M3.065,0H28.611a3.033,3.033,0,0,1,3.065,3V18a3.033,3.033,0,0,1-3.065,3H3.065A3.033,3.033,0,0,1,0,18V3A3.033,3.033,0,0,1,3.065,0Z" transform="translate(647 581)"></path><text class="g" transform="translate(651.392 596)"><tspan x="0" y="0">New</tspan></text></g><g transform="translate(-222 1192)"><rect class="d" width="31" height="21" rx="3" transform="translate(647 581)"></rect><text class="e" transform="translate(651 596)"><tspan x="0" y="0">1.0</tspan></text></g><g transform="translate(30 1112.84)"><rect class="d" width="31" height="21" rx="3" transform="translate(647 581)"></rect><text class="e" transform="translate(651 596)"><tspan x="0" y="0">1.1</tspan></text></g><g transform="translate(-222 1298)"><rect class="d" width="31" height="21" rx="3" transform="translate(647 581)"></rect><text class="e" transform="translate(651 596)"><tspan x="0" y="0">2.x</tspan></text></g><g transform="translate(-222 1482)"><rect class="d" width="31" height="21" rx="3" transform="translate(647 581)"></rect><text class="e" transform="translate(651 596)"><tspan x="0" y="0">1.2</tspan></text></g><g transform="translate(30 1033)"><rect class="d" width="23" height="21" rx="3" transform="translate(647 581)"></rect><text class="e" transform="translate(651 596)"><tspan x="0" y="0">1A</tspan></text></g><g transform="translate(-222 1404)"><rect class="d" width="16" height="21" rx="3" transform="translate(647 581)"></rect><text class="e" transform="translate(651 596)"><tspan x="0" y="0">3</tspan></text></g><g transform="translate(-222 1325)"><rect class="d" width="31" height="21" rx="3" transform="translate(647 581)"></rect><text class="e" transform="translate(651 596)"><tspan x="0" y="0">1.0</tspan></text></g><g transform="translate(-222 1219)"><rect class="d" width="31" height="21" rx="3" transform="translate(647 581)"></rect><text class="e" transform="translate(651 596)"><tspan x="0" y="0">0.8</tspan></text></g><g transform="translate(-222 1059)"><rect class="d" width="31" height="21" rx="3" transform="translate(647 581)"></rect><text class="e" transform="translate(651 596)"><tspan x="0" y="0">3.0</tspan></text></g><g transform="translate(-222 1086)"><rect class="d" width="31" height="21" rx="3" transform="translate(647 581)"></rect><text class="e" transform="translate(651 596)"><tspan x="0" y="0">2.0</tspan></text></g><g transform="translate(-222 1113)"><rect class="d" width="31" height="21" rx="3" transform="translate(647 581)"></rect><text class="e" transform="translate(651 596)"><tspan x="0" y="0">1.x</tspan></text></g><text class="a" transform="translate(678 1761.68)"><tspan x="0" y="0">WADL - W3C</tspan></text><text class="a" transform="translate(678 1840.52)"><tspan x="0" y="0">Google Discovery</tspan></text><text class="a" transform="translate(678 1919.361)"><tspan x="0" y="0">I/O Docs - Mashery</tspan></text><text class="a" transform="translate(678 1998.199)"><tspan x="0" y="0">APIMATIC Format</tspan></text><circle class="b" cx="8.586" cy="8.586" r="8.586" transform="translate(652 1747.68)"></circle><circle class="b" cx="8.586" cy="8.586" r="8.586" transform="translate(652 1826.52)"></circle><circle class="b" cx="8.586" cy="8.586" r="8.586" transform="translate(652 1905.361)"></circle><circle class="b" cx="8.586" cy="8.586" r="8.586" transform="translate(652 1984.199)"></circle><text class="h" transform="translate(723 1788.78)"><tspan x="0" y="0">(XML)</tspan></text><text class="c" transform="translate(678 1867.621)"><tspan x="0" y="0">(JSON)</tspan></text><text class="c" transform="translate(678 1946.461)"><tspan x="0" y="0">(JSON)</tspan></text><text class="c" transform="translate(678 2025.301)"><tspan x="0" y="0">(JSON)</tspan></text><g transform="translate(31 1191.68)"><rect class="d" width="39" height="21" rx="3" transform="translate(647 581)"></rect><text class="e" transform="translate(651 596)"><tspan x="0" y="0">2009</tspan></text></g></g></svg>