<svg xmlns="http://www.w3.org/2000/svg" viewBox="0 0 2167.12 2167.12"><defs><style>.cls-1,.cls-20{isolation:isolate;}.cls-2{fill:#ebf0f5;}.cls-13,.cls-16,.cls-2,.cls-21,.cls-22,.cls-3,.cls-4,.cls-5,.cls-6{stroke:#24313e;}.cls-13,.cls-16,.cls-19,.cls-2,.cls-21,.cls-22,.cls-3,.cls-4,.cls-5,.cls-6{stroke-miterlimit:10;stroke-width:2.13px;}.cls-3{fill:#d9dee5;}.cls-4{fill:#ff4451;}.cls-5{fill:#ff603d;}.cls-17,.cls-20,.cls-6{fill:#0c7ff2;}.cls-7{fill:#2e2141;}.cls-8{fill:#787184;}.cls-12,.cls-14,.cls-25,.cls-9{fill:#fff;}.cls-10{fill:#031439;}.cls-11,.cls-19{fill:#22416d;}.cls-12,.cls-14,.cls-15,.cls-23,.cls-24{opacity:0.37;}.cls-13,.cls-16{fill:#24313e;}.cls-13{opacity:0.33;mix-blend-mode:multiply;}.cls-14,.cls-23,.cls-25{mix-blend-mode:overlay;}.cls-18{fill:#10244c;}.cls-19{stroke:#1a1a1a;}.cls-20{opacity:0.67;}.cls-21{fill:#3ab2d0;}.cls-22{fill:#6b7e8f;}.cls-24{mix-blend-mode:screen;}.cls-26{fill:#fbb03b;opacity:0.21;}</style></defs><g class="cls-1"><g id="Layer_1" data-name="Layer 1"><path class="cls-2" d="M202.61,1635.19c-3.14.57-6.32,1-9.56,1.31a105.62,105.62,0,1,1,82-157.83c3.14-.57,6.35-1,9.58-1.31a105.61,105.61,0,1,1-82,157.83Z"></path><path class="cls-3" d="M589.65,1919.77S152.46,1927.51,82.53,1898c-68-28.72-93.15-112.28-59.16-157.33,11.29-14.94,24.23-25.88,37.77-33a91.9,91.9,0,1,1,112.15,51c8.38,43.29-37.49,65.22,42.64,74,90.63,9.91,153.56-1.4,200.14,21.25S589.65,1919.77,589.65,1919.77Z"></path><path class="cls-3" d="M1667.17,1924.87s110.54-53.79,204-85.74c137.82-47.12,180-49.84,231.18-47,86.87,4.73,70.41,124.38,6.25,129.88s-61.46-54.24-121.75-33.5-40,49.18-84.6,59.49C1843.88,1961.46,1839.11,1894.41,1667.17,1924.87Z"></path><path class="cls-2" d="M2078.27,1562.32a118.51,118.51,0,0,1-99.64,80.06q-1.25,5.22-3,10.41a118.47,118.47,0,1,1-127.89-155.19c1-.14,2-.25,3-.36.83-3.48,1.82-7,3-10.43a118.46,118.46,0,1,1,224.56,75.51Z"></path><path class="cls-4" d="M1594.69,1754.64a60.34,60.34,0,0,1-.32,6.34,2.43,2.43,0,0,1-.08.61,296.9,296.9,0,0,0-33.27,49.94c-11.61,22.16-21.42,48.9-20,74.44,3.2,58.22-59.31,85-61.21,85.77,1.75-1.62,48.22-44.61,14.4-100.73-2.81-4.66-5.38-9.32-7.74-13.93-.82,1.28-1.65,2.51-2.49,3.75-27.83,40.05-56.89,40.12-56.89,40.12,30.39-27.38,25-39.61,27.06-85.82s-24.57-55.93,8.58-106.19c20.63-31.3,33.06-27.31,40.89-13.65a64.89,64.89,0,0,1,91.08,59.35Z"></path><path class="cls-5" d="M1553.66,1909.1s27.71-8.81,42.18-55.38.63-115.79-12.58-138.45-36.88-57.9-53.37,0,11.8,59.16,23.77,103.84S1574.41,1873.86,1553.66,1909.1Z"></path><path class="cls-4" d="M792.63,1916.68c-1.33-.54-44.59-19.08-42.37-59.38a2.55,2.55,0,0,1,0-.39c-6.53,16.76-10.82,34.78-9.85,52.25,3.2,58.22-59.31,85-61.21,85.78,1.75-1.63,48.22-44.62,14.4-100.74-34.46-57.21-33.65-112.69-28-129.06a64.87,64.87,0,0,1,96-43.5,44.92,44.92,0,0,1,40.4,36c3.89,11.34,4.46,49.74-19.4,89.35C759.26,1885.79,791.42,1915.55,792.63,1916.68Z"></path><path class="cls-5" d="M638,1750.57a41.9,41.9,0,0,0-1,4.28,1.58,1.58,0,0,0-.06.42,205,205,0,0,1,12.72,39.55c3.54,17,5,36.61-.74,53.35-13.14,38.17,23.43,67.8,24.55,68.69-.86-1.42-23.68-38.82,9.45-69.81,33.76-31.58,43.7-68.69,43-80.65a44.91,44.91,0,0,0-88-15.83Z"></path><path class="cls-6" d="M786.7,1781.87l-.39.44a2.45,2.45,0,0,0,.07-.62A1.31,1.31,0,0,1,786.7,1781.87Z"></path><path id="Path_34261" data-name="Path 34261" class="cls-7" d="M1280.33,764.7v23.18h22.32Z"></path><path id="Rectangle_2164" data-name="Rectangle 2164" class="cls-8" d="M1403.39,460.08h44a9.27,9.27,0,0,1,9.27,9.26h0a9.27,9.27,0,0,1-9.27,9.27h-44a9.27,9.27,0,0,1-9.27-9.27h0A9.27,9.27,0,0,1,1403.39,460.08Z"></path><path id="Rectangle_2165" data-name="Rectangle 2165" class="cls-8" d="M1401.42,492h58.14a9.26,9.26,0,0,1,9.27,9.26h0a9.26,9.26,0,0,1-9.27,9.26h-58.14a9.26,9.26,0,0,1-9.26-9.26h0A9.26,9.26,0,0,1,1401.42,492Z"></path><path id="Path_34262" data-name="Path 34262" class="cls-9" d="M1571,430.48h75.14a11.7,11.7,0,0,1,11.7,11.68h0a11.68,11.68,0,0,1-11.7,11.66H1571a11.66,11.66,0,0,1-11.68-11.64v0h0A11.68,11.68,0,0,1,1571,430.48Z"></path><path id="Path_34263" data-name="Path 34263" class="cls-9" d="M1587.74,465.9h75.12a11.68,11.68,0,0,1,11.7,11.67h0a11.68,11.68,0,0,1-11.68,11.68h-75.14a11.67,11.67,0,0,1-11.69-11.66v0h0a11.67,11.67,0,0,1,11.69-11.67Z"></path><path id="Path_9303" data-name="Path 9303" class="cls-10" d="M1140.4,985.21,940.21,1265.4a82.56,82.56,0,0,1-102.39,45.78c-38-13.34-62.85-53.88-11.81-165.11,0,0,97.43-268.17,150.65-278.09S1187.31,877.53,1140.4,985.21Z"></path><path id="Path_9304" data-name="Path 9304" class="cls-10" d="M1094.32,981.71l200,283.69a82.64,82.64,0,0,0,102.42,45.78c38-13.35,64.73-54.11,13.7-165.6,0,0-99.35-267.75-152.53-277.75S1047.26,874.08,1094.32,981.71Z"></path><path id="Path_9307" data-name="Path 9307" class="cls-10" d="M788.87,1251.64l-98.15,348a74.27,74.27,0,0,0,45.8,90.38c35.45,12.49,81.23-1.91,119.7-114L944,1250.82a115.35,115.35,0,0,0-18.32-99.23c-26.09-34.88-69.52-49.94-128.32,76.75a153,153,0,0,0-8.33,23.1Z"></path><path id="Path_9308" data-name="Path 9308" class="cls-10" d="M1455.06,1251.64l98.13,348a74.27,74.27,0,0,1-45.78,90.38c-35.46,12.49-81.24-1.91-119.7-114L1300,1250.82a115.27,115.27,0,0,1,18.32-99.23c26.08-34.88,69.52-49.94,128.3,76.75a148.4,148.4,0,0,1,8.33,23.1Z"></path><path id="Rectangle_1251" data-name="Rectangle 1251" class="cls-11" d="M849.77,1192.58h0a18.22,18.22,0,0,1,13.91,21.67h0l-45.17,207.44a18.31,18.31,0,0,1-21.74,13.91h0a18.3,18.3,0,0,1-13.91-21.74l45.19-207.48A18.27,18.27,0,0,1,849.77,1192.58Z"></path><path id="Rectangle_1252" data-name="Rectangle 1252" class="cls-11" d="M934.87,1222.46h0a18.28,18.28,0,0,1,13.9,21.73l-45.19,207.43a18.23,18.23,0,0,1-21.67,13.91h0A18.29,18.29,0,0,1,868,1443.79l45.19-207.44A18.29,18.29,0,0,1,934.87,1222.46Z"></path><path id="Rectangle_1253" data-name="Rectangle 1253" class="cls-11" d="M1448.4,1433.09h0a18.22,18.22,0,0,1-22.82-11.95h0l-63.09-202.7a18.24,18.24,0,0,1,11.77-23l.18-.06h0a18.28,18.28,0,0,1,22.86,12l0,.12h0l63.13,202.63A18.31,18.31,0,0,1,1448.4,1433.09Z"></path><path id="Path_9336" data-name="Path 9336" class="cls-11" d="M1357,1464.65a18.34,18.34,0,0,1-22.18-13.21h0l-52.4-205.76a18.28,18.28,0,1,1,35-10.68,14.77,14.77,0,0,1,.44,1.74l52.59,205.62a18.25,18.25,0,0,1-13.15,22.2h0Z"></path><path id="Rectangle_1256" data-name="Rectangle 1256" class="cls-6" d="M839.56,1165.86h0A33.73,33.73,0,0,1,859.85,1209h0v.12l-43.29,119.58a33.69,33.69,0,0,1-43.12,20.18h0a33.7,33.7,0,0,1-20.23-43.11h0l43.32-119.51a33.66,33.66,0,0,1,43-20.42Z"></path><path id="Rectangle_1257" data-name="Rectangle 1257" class="cls-6" d="M948.19,1205.34h0a33.7,33.7,0,0,1,20.3,43.11v0h0L925,1368.1a33.66,33.66,0,0,1-43,20.08h0A33.73,33.73,0,0,1,861.71,1345h0L905,1225.41a33.66,33.66,0,0,1,43.17-20.08l.06,0Z"></path><path id="Rectangle_1280" data-name="Rectangle 1280" class="cls-10" d="M916.83,1294.09h0a10,10,0,0,1,5.95,12.74l-21.57,59.27a10,10,0,0,1-12.74,6h0a9.92,9.92,0,0,1-6-12.71v0l21.57-59.24A10,10,0,0,1,916.83,1294.09Z"></path><rect class="cls-12" x="779.85" y="1174.26" width="11.01" height="140.35" rx="2.23" transform="translate(464.14 -191.61) rotate(19.65)"></rect><rect class="cls-12" x="886.84" y="1212.65" width="11.01" height="146.45" rx="2.23" transform="translate(484.32 -225.18) rotate(19.65)"></rect><path id="Rectangle_1255" data-name="Rectangle 1255" class="cls-13" d="M936.42,1085.47h0c45.25,15.19,32.34,140.78,32.34,140.78-16.37,42.08-54.63,71.7-99.84,56.51l-4.82.42c-45.25-15.18-65.31-49.67-55.43-98.45l10.1-22.15c16.21-42.17,72.16-92.24,117.46-77.16Z"></path><path id="Rectangle_1255-2" data-name="Rectangle 1255" class="cls-6" d="M935.7,1075.12h0a81.1,81.1,0,0,1,48.79,103.8l0,0v.21l-15.34,42.32a81.1,81.1,0,0,1-103.78,48.67h0a81.08,81.08,0,0,1-48.79-103.77h0l15.28-42.24a81.13,81.13,0,0,1,103.69-49.06Z"></path><path id="Path_9312" data-name="Path 9312" class="cls-11" d="M676.67,1611.84c-10-6.35-24.57-26.16,27.74-82.62a92,92,0,0,0,15.5-22.68c7.08-15,25.06-40.41,65.33-40.48a96.92,96.92,0,0,1,88.14,58.81c14,31.75,21.09,79.19-8,140.56-.88,1.83-1.71,3.72-2.52,5.6-3.8,8.86-22.06,43.9-73.11,38.85l-95.49-85a125.39,125.39,0,0,0-17.6-13Z"></path><path class="cls-14" d="M673.16,1594.26h0c3.28,2.4,9.45-14.67,14.62-21.64L733,1522.28l14.68-30.21c5.17-7,17.07-14.41,13.79-16.81h0c-3.29-2.39-17,6.91-22.18,13.87l-15.17,27.59-45.78,51.86C673.17,1575.54,669.88,1591.87,673.16,1594.26Z"></path><path class="cls-13" d="M793.5,1627.58c25.22,41.05,34.23,81.76,9.47,94.33s-65.28-10.5-90.5-51.55-11.21-91.22,14.43-102.21C765.7,1551.53,768.29,1586.53,793.5,1627.58Z"></path><path id="Path_9341" data-name="Path 9341" class="cls-11" d="M893.38,1130.13A52.87,52.87,0,1,1,840.51,1183h0A52.89,52.89,0,0,1,893.38,1130.13Z"></path><path id="Path_9342" data-name="Path 9342" class="cls-10" d="M871,1162.77,923.81,1178a10.55,10.55,0,1,1-5.09,20.48c-.25-.06-.49-.13-.73-.21l-52.85-15.19a10.57,10.57,0,0,1,5.85-20.27Z"></path><circle id="Ellipse_686" data-name="Ellipse 686" class="cls-10" cx="923.38" cy="1095.55" r="11.1"></circle><circle id="Ellipse_687" data-name="Ellipse 687" class="cls-10" cx="785.36" cy="1316.82" r="23.31"></circle><path id="Path_9305" data-name="Path 9305" class="cls-10" d="M975.33,742.19l25,85.06,249,19.61,22.83-104.67S1141.53,592.8,975.33,742.19Z"></path><path id="Rectangle_1243" data-name="Rectangle 1243" class="cls-10" d="M963.72,305.51h0A47.5,47.5,0,0,1,1017,346.39L1039.37,517a47.49,47.49,0,0,1-40.9,53.26h0a47.49,47.49,0,0,1-53.26-40.9h0L922.82,358.75A47.49,47.49,0,0,1,963.72,305.51Z"></path><rect class="cls-12" x="999.9" y="326.25" width="12.83" height="100.64" rx="2.6" transform="translate(-53.44 199.36) rotate(-11.02)"></rect><path id="Rectangle_1244" data-name="Rectangle 1244" class="cls-10" d="M1245.81,518.65l22.32-170.74a47.57,47.57,0,0,1,53.26-41h0a47.58,47.58,0,0,1,41,53.34L1340.06,531a47.55,47.55,0,0,1-53.3,41h0a47.55,47.55,0,0,1-40.94-53.32Z"></path><rect class="cls-12" x="1268.95" y="336.52" width="12.83" height="100.64" rx="2.6" transform="translate(2477.43 962.36) rotate(-171.29)"></rect><path id="Path_9309" data-name="Path 9309" class="cls-10" d="M928.3,331.29S829,351.82,836.48,267.62c0,0-82.21-7.91-73.77,97.14l-.57,40.17H938.53v-57H928.39Z"></path><g class="cls-15"><path class="cls-9" d="M765.19,361.9c-1.43-2.74-.56-2.19-.7-3.45-.08-.68-9.19-71.7,51.09-87.25,2.58-.66,15.16-2.47,17.15-.71a7.87,7.87,0,0,1,2.6,6.93c-1.2,9.09,0,27,12.7,40.41,14.8,15.63,42.52,22,82.38,19a2.46,2.46,0,0,1,.37,4.91c-41.41,3.17-70.45-3.72-86.33-20.48-14.1-14.88-15.32-34.49-14-44.44a2.91,2.91,0,0,0-1-2.6c-.77-.68-11.67,1.47-12.65,1.8-58,19.24-48.14,83.45-47.84,86,.15,1.35-2.14-.3-3.49-.14Z"></path></g><path id="Path_9310" data-name="Path 9310" class="cls-10" d="M1357.24,331.29s99.32,20.44,91.91-63.67c0,0,82.16-7.91,73.71,97.14l.63,40.17H1347v-57h10.24Z"></path><g class="cls-15"><path class="cls-9" d="M1520.62,366c1.43-2.75.56-2.2.71-3.45.08-.68,10.2-75.82-50.08-91.37-2.58-.66-15.16-2.47-17.15-.71a7.89,7.89,0,0,0-2.59,6.93c1.19,9.09-2.48,27-15.17,40.41-14.8,15.63-42.52,22-82.38,19a2.46,2.46,0,1,0-.38,4.91c41.42,3.17,70.46-3.72,86.34-20.48,14.1-14.88,17.78-34.49,16.48-44.44a2.91,2.91,0,0,1,1-2.6c.77-.68,11.67,1.47,12.65,1.8,58,19.24,47.12,87.56,46.83,90.16-.16,1.35,2.13-.29,3.48-.14Z"></path></g><path class="cls-6" d="M1423.06,441.87a496.33,496.33,0,0,1-4.56,65.61c-15.63,117-69.88,240.62-137.17,307.54a47.63,47.63,0,0,1-18.07,10h0a20.52,20.52,0,0,1-5.2.74h-4.71a5.72,5.72,0,0,1-1.6-.22.09.09,0,0,1-.08,0,5.22,5.22,0,0,1-3.5-6.48l19.72-73.48a.13.13,0,0,0,0-.07,5.23,5.23,0,0,0-1.31-5c-16.88-17.6-136.16-131.58-285,0a5.25,5.25,0,0,0-1.58,5.47l21.37,73a4.36,4.36,0,0,1,0,.79,4.57,4.57,0,0,1,0,.82v.09a5.21,5.21,0,0,1-5.23,5.11H996a30.27,30.27,0,0,1-5.42-.5c-9.56-1.7-17.7-7.79-24.33-15.33-38.79-46.34-70.56-109-92.6-174.8s-34.43-134.63-34.43-193.25v0A35.94,35.94,0,0,1,863.05,408a36.5,36.5,0,0,1,12.12-2.07H1387.1l0,0a36,36,0,0,1,35.92,35.92Z"></path><path class="cls-13" d="M1001.4,819.7a4.57,4.57,0,0,1,0,.82v.09a5.21,5.21,0,0,1-5.23,5.11H996a30.27,30.27,0,0,1-5.42-.5c-9.56-1.7-17.7-7.79-24.33-15.33-38.79-46.34-70.56-109-92.6-174.8s-34.43-134.63-34.43-193.25v0c0-15.58,15.88-74.81,29.75-79.79L981.56,740.46a5.25,5.25,0,0,0-1.58,5.47l21.37,73A4.36,4.36,0,0,1,1001.4,819.7Z"></path><path class="cls-13" d="M1247.45,823.18a3.69,3.69,0,0,0,.06.81v.1c0,2.86-.55,1.95,2.58,1.95h.11a36.77,36.77,0,0,0,6-.5c10.56-1.7,19.23-3.9,26.56-11.45,42.85-46.33,77.94-109,102.28-174.8s38-134.63,38-193.25v0c0-15.58-11-28.84-26.3-33.82L1266.59,740.46a3.62,3.62,0,0,1,1.4,4.6l-20.48,77.33A3.6,3.6,0,0,0,1247.45,823.18Z"></path><rect class="cls-12" x="868.99" y="408.09" width="525.13" height="7.62" rx="1.55"></rect><path id="Rectangle_1258" data-name="Rectangle 1258" class="cls-16" d="M933,485.66h154a9.91,9.91,0,0,1,9.9,9.88h0a10,10,0,0,1-9.9,9.9H933a9.92,9.92,0,0,1-9.88-9.9h0A9.88,9.88,0,0,1,933,485.66Z"></path><path id="Rectangle_1259" data-name="Rectangle 1259" class="cls-16" d="M933,517.56h154a9.94,9.94,0,0,1,9.9,9.9h0a9.91,9.91,0,0,1-9.9,9.86H933a9.86,9.86,0,0,1-9.88-9.84v0h0A9.9,9.9,0,0,1,933,517.56Z"></path><path class="cls-16" d="M1096.91,559.34a9.94,9.94,0,0,1-9.91,9.91H933a10.17,10.17,0,0,1-2.49-.32l-4.83-16.19a9.9,9.9,0,0,1,7.3-3.28h154A9.91,9.91,0,0,1,1096.91,559.34Z"></path><path class="cls-16" d="M1096.91,591.26a9.92,9.92,0,0,1-9.91,9.86H940.1l-5.87-19.77H1087A10,10,0,0,1,1096.91,591.26Z"></path><path class="cls-16" d="M1096.91,623.16A9.88,9.88,0,0,1,1087,633H949.61l-5.89-19.77H1087A9.9,9.9,0,0,1,1096.91,623.16Z"></path><path id="Rectangle_1263" data-name="Rectangle 1263" class="cls-16" d="M1177.65,517.56h154a9.94,9.94,0,0,1,9.9,9.91h0a9.91,9.91,0,0,1-9.9,9.85h-154a9.85,9.85,0,0,1-9.86-9.85h0A9.89,9.89,0,0,1,1177.65,517.56Z"></path><path class="cls-16" d="M1341.57,559.34a10,10,0,0,1-6.75,9.39,9.44,9.44,0,0,1-3.16.52h-154a9.85,9.85,0,0,1-9.83-9.86v-.07a9.87,9.87,0,0,1,9.78-9.86h154.08a10,10,0,0,1,8.65,5.12l.08.13c.07.17.24.52.47,1A9.36,9.36,0,0,1,1341.57,559.34Z"></path><path class="cls-16" d="M1341.57,591.26a9.92,9.92,0,0,1-9.91,9.86h-154a9.85,9.85,0,0,1-9.83-9.86v0a9.89,9.89,0,0,1,9.83-9.86h154A10,10,0,0,1,1341.57,591.26Z"></path><path class="cls-16" d="M1341.57,623.16a9.88,9.88,0,0,1-9.91,9.88h-154a9.84,9.84,0,0,1-9.83-9.83v-.08a9.86,9.86,0,0,1,9.78-9.86h154.08A9.92,9.92,0,0,1,1341.57,623.16Z"></path><path id="Rectangle_1267" data-name="Rectangle 1267" class="cls-16" d="M1178.74,485.66h154a9.9,9.9,0,0,1,9.91,9.82h0a9.91,9.91,0,0,1-9.91,9.91h-154a9.91,9.91,0,0,1-9.9-9.91h0a9.85,9.85,0,0,1,9.83-9.87h0Z"></path><path id="Rectangle_1269" data-name="Rectangle 1269" class="cls-10" d="M644.57,567.37l28.52-44.18a65.33,65.33,0,0,1,90.3-19.59l.09,0h0A65.36,65.36,0,0,1,783,594l0,0-28.5,44.17a65.34,65.34,0,0,1-90.31,19.53l-.07-.05h0A65.33,65.33,0,0,1,644.57,567.37Z"></path><path id="Rectangle_1270" data-name="Rectangle 1270" class="cls-6" d="M717.31,609.86l10.78-22.26A51.16,51.16,0,0,1,796.36,564h0A51.16,51.16,0,0,1,820,632.27L809.17,654.5A51,51,0,0,1,741,678.16h0A51.06,51.06,0,0,1,717.35,610Z"></path><rect class="cls-12" x="726.85" y="571.79" width="18.09" height="68.96" rx="3.67" transform="translate(293.32 -238.26) rotate(22.86)"></rect><path id="Path_9315" data-name="Path 9315" class="cls-11" d="M1585.41,1635.23c10-6.28,24.49-26.07-27.61-82.33a90.16,90.16,0,0,1-15.55-22.6c-7-15-25-40.28-65.07-40.35a96.56,96.56,0,0,0-87.84,58.62c-14,31.64-21,78.9,7.92,140.07.88,1.88,1.71,3.72,2.51,5.59,3.79,8.83,22,43.78,72.89,38.74l95.16-84.79a126.59,126.59,0,0,1,17.59-12.94Z"></path><path class="cls-13" d="M1463,1629.07c-29.74,47.52-43.15,94.72-19.61,109.46s66.74-11.83,96.48-59.34,21-105.84-3.57-118.73C1499.09,1541,1492.75,1581.56,1463,1629.07Z"></path><path id="Path_9316" data-name="Path 9316" class="cls-6" d="M1576,1597.37l46.29,95.41a49,49,0,0,1-44.08,70.43h-92.61a49.05,49.05,0,0,1-44.13-70.34l46.29-95.37a49,49,0,0,1,88.24,0Z"></path><path class="cls-12" d="M1548.67,1580.82h0c-3.54,1.79-3.28,9.55.59,17.32l52,104.65c3.87,7.78,9.87,12.63,13.41,10.83h0c3.54-1.79,3.27-9.55-.59-17.32l-52-104.65C1558.21,1583.87,1552.21,1579,1548.67,1580.82Z"></path><path id="Path_9317" data-name="Path 9317" class="cls-10" d="M1564.4,1669l29.55,61a31.29,31.29,0,0,1-27.81,45h-59.51a31.3,31.3,0,0,1-28-45l29.55-61a31.28,31.28,0,0,1,56.31,0Z"></path><path id="Rectangle_1271" data-name="Rectangle 1271" class="cls-10" d="M812.73,422.87h0a67.3,67.3,0,0,1,67.3,67.3h0v26.62a67.29,67.29,0,0,1-67.24,67.35h-.06a67.29,67.29,0,0,1-67.29-67.29h0V490.17a67.28,67.28,0,0,1,67.26-67.3Z"></path><path class="cls-13" d="M756.7,387.1h180a5.65,5.65,0,0,1,5.65,5.65v59a5.65,5.65,0,0,1-5.65,5.65H761a9.95,9.95,0,0,1-9.95-9.95V392.76A5.65,5.65,0,0,1,756.7,387.1Z"></path><path id="Path_9319" data-name="Path 9319" class="cls-6" d="M925.12,453.75h-180A14.78,14.78,0,0,1,730.3,439h0v-66a14.79,14.79,0,0,1,14.77-14.74l180,24.4a14.81,14.81,0,0,1,14.78,14.77V439A14.83,14.83,0,0,1,925.12,453.75Z"></path><g class="cls-15"><path class="cls-9" d="M742.68,369.38,925.5,393.24a7.18,7.18,0,0,1,6.11,7.08v36.52a7.13,7.13,0,0,1-.57,2.81l7.23,1.75a13.93,13.93,0,0,0,.74-4.56V400.32a14.62,14.62,0,0,0-12.5-14.4L743.64,362.06a3.69,3.69,0,1,0-1,7.32Z"></path></g><path class="cls-13" d="M1340,404.93h181.23a1.38,1.38,0,0,1,1.38,1.38v49.84a1.38,1.38,0,0,1-1.38,1.38H1344.31a5.67,5.67,0,0,1-5.67-5.67V406.31A1.38,1.38,0,0,1,1340,404.93Z"></path><path id="Path_9320" data-name="Path 9320" class="cls-6" d="M629.65,629.06h0c-31.46-1.45-52.74-28.39-51.19-59.86l3.47-145.67A43.69,43.69,0,0,1,627.45,382l22.86,1.09a48.12,48.12,0,0,1,45.78,50.23L679.42,574.82C678.07,606,661.09,630.67,629.65,629.06Z"></path><path id="Path_9334" data-name="Path 9334" class="cls-10" d="M640,707.84h19.26a33.84,33.84,0,0,1,33.87,33.81h0V885.2a33.82,33.82,0,0,1-33.77,33.86H640a33.84,33.84,0,0,1-33.82-33.84V741.77A33.84,33.84,0,0,1,640,707.93Z"></path><path id="Rectangle_1273" data-name="Rectangle 1273" class="cls-11" d="M649.15,635.83l63.21,13.82A50.76,50.76,0,0,1,751.13,710h0a50.78,50.78,0,0,1-60.4,38.69L627.55,735a50.79,50.79,0,0,1-38.79-60.4h0A50.8,50.8,0,0,1,649.15,635.83Z"></path><circle id="Ellipse_679" data-name="Ellipse 679" class="cls-10" cx="662.51" cy="940.83" r="90.24"></circle><circle id="Ellipse_680" data-name="Ellipse 680" class="cls-11" cx="662.04" cy="947.75" r="90.28"></circle><ellipse class="cls-13" cx="726.18" cy="901.4" rx="25.88" ry="34.01" transform="translate(-349.56 474.03) rotate(-29.48)"></ellipse><circle id="Ellipse_681" data-name="Ellipse 681" class="cls-17" cx="740.87" cy="891.02" r="31.93"></circle><path class="cls-13" d="M633.87,1014.74l8.74-2.86a39.37,39.37,0,0,0,25.16-49.66l-40.7-101.8a39.37,39.37,0,0,0-49.65-25.16l-8.75,2.86C548,844.89,544.52,868.34,551.28,889l32.94,100.58A39.36,39.36,0,0,0,633.87,1014.74Z"></path><path id="Path_9321" data-name="Path 9321" class="cls-6" d="M464.53,690.08l71.26-21.69s38.55-13.66,56,72L658,951.9a41.88,41.88,0,0,1-26.09,52h0a41.87,41.87,0,0,1-50.66-19.43l-128-235.53S432.29,714,464.53,690.08Z"></path><rect class="cls-12" x="382.02" y="852.34" width="285.42" height="10.27" rx="1.17" transform="translate(1026.09 -13.87) rotate(61.38)"></rect><path id="Rectangle_1274" data-name="Rectangle 1274" class="cls-10" d="M1518.07,503.81h0a65.31,65.31,0,0,1,90.31,19.38l.07.1,28.5,44.17a65.35,65.35,0,0,1-19.44,90.35l0,0h0a65.32,65.32,0,0,1-90.32-19.39l-.06-.1-28.51-44.16A65.36,65.36,0,0,1,1518,503.83Z"></path><path id="Rectangle_1275" data-name="Rectangle 1275" class="cls-6" d="M1472.22,654.57l-10.78-22.3A51.08,51.08,0,0,1,1485,564h0a51.07,51.07,0,0,1,68.22,23.63l10.83,22.27a51.11,51.11,0,0,1-23.69,68.28h0a51.06,51.06,0,0,1-68.25-23.6v0Z"></path><rect class="cls-12" x="1532.56" y="570.58" width="18.09" height="68.96" rx="3.67" transform="translate(-110.36 721.93) rotate(-25.48)"></rect><path id="Rectangle_1276" data-name="Rectangle 1276" class="cls-10" d="M1468.91,584.14h0a67.3,67.3,0,0,1-67.33-67.26h0V490.17a67.28,67.28,0,0,1,67.26-67.3h0a67.28,67.28,0,0,1,67.32,67.24v.07h0v26.68a67.3,67.3,0,0,1-67.32,67.28Z"></path><path class="cls-13" d="M1340,404.93h181.23a1.38,1.38,0,0,1,1.38,1.38v49.84a1.38,1.38,0,0,1-1.38,1.38H1344.31a5.67,5.67,0,0,1-5.67-5.67V406.31A1.38,1.38,0,0,1,1340,404.93Z"></path><path id="Path_9322" data-name="Path 9322" class="cls-17" d="M1356.41,453.75h180A14.85,14.85,0,0,0,1551.2,439v-66a14.85,14.85,0,0,0-14.79-14.74l-180,24.4a14.81,14.81,0,0,0-14.78,14.77V439A14.79,14.79,0,0,0,1356.41,453.75Z"></path><g class="cls-15"><path class="cls-9" d="M1540.58,367.6l-182.82,23.86a7.18,7.18,0,0,0-6.11,7.08v36.52a7.13,7.13,0,0,0,.57,2.81l-7.22,1.75a13.71,13.71,0,0,1-.74-4.56V398.54a14.61,14.61,0,0,1,12.49-14.4l182.87-23.86a3.69,3.69,0,0,1,1,7.32Z"></path></g><path id="Path_9323" data-name="Path 9323" class="cls-6" d="M1651.85,629.06h0c31.46-1.45,52.73-28.39,51.18-59.86l-3.47-145.67A43.71,43.71,0,0,0,1654,382l-22.89,1.09a48.18,48.18,0,0,0-45.78,50.23L1602,574.82C1603.53,605.94,1620.35,630.67,1651.85,629.06Z"></path><g class="cls-15"><path class="cls-9" d="M1652.24,625.7a2.3,2.3,0,0,0,.45-.05c50.2-9.27,45.91-56.59,45.57-59.66l-3.8-142.94a39.48,39.48,0,0,0-3.39-15.63c-5.72-12.38-24.69-22.34-36.59-22.34l-33.06,1.56a2.47,2.47,0,0,0,.24,4.93L1654.6,390c10.07,0,27.23,9.18,32,19.48a34.8,34.8,0,0,1,3,13.7l3.82,143.3c.24,1.86,5.41,45.65-41.56,54.33a2.47,2.47,0,0,0,.44,4.89Z"></path></g><path id="Rectangle_1277" data-name="Rectangle 1277" class="cls-10" d="M1631.88,707.84h0a43.48,43.48,0,0,1,43.47,43.47V875.57A43.47,43.47,0,0,1,1631.88,919h0a43.47,43.47,0,0,1-43.47-43.47V751.31A43.47,43.47,0,0,1,1631.88,707.84Z"></path><path id="Rectangle_1278" data-name="Rectangle 1278" class="cls-11" d="M1653.88,735l-63.18,13.69A50.72,50.72,0,0,1,1530.32,710h0a50.75,50.75,0,0,1,38.77-60.33l63.17-13.76a50.71,50.71,0,0,1,60.39,38.71v0h0A50.7,50.7,0,0,1,1653.94,735Z"></path><circle id="Ellipse_682" data-name="Ellipse 682" class="cls-10" cx="1618.99" cy="940.71" r="90.24"></circle><path id="Path_9344" data-name="Path 9344" class="cls-11" d="M1631.62,862.57A90.28,90.28,0,1,1,1527,935.78h0a90.22,90.22,0,0,1,104.45-73.19Z"></path><ellipse class="cls-13" cx="1558.45" cy="904" rx="34.01" ry="25.88" transform="translate(-57.92 1699.84) rotate(-56.33)"></ellipse><circle id="Ellipse_684" data-name="Ellipse 684" class="cls-17" cx="1540.63" cy="891.02" r="31.93"></circle><path id="Path_9324" data-name="Path 9324" class="cls-6" d="M1814.46,695.6,1743.2,674s-38.54-13.66-55.94,72L1621,957.47a41.62,41.62,0,0,0,26.09,51.95h0a41.7,41.7,0,0,0,50.61-19.52l128-235.5S1846.67,719.54,1814.46,695.6Z"></path><rect class="cls-12" x="1609.58" y="860.18" width="285.42" height="10.27" rx="1.17" transform="translate(3338.1 -276.81) rotate(117.96)"></rect><circle id="Ellipse_694" data-name="Ellipse 694" class="cls-10" cx="484.69" cy="723" r="23.31"></circle><circle id="Ellipse_695" data-name="Ellipse 695" class="cls-10" cx="1791.24" cy="726.28" r="23.31"></circle><circle id="Ellipse_696" data-name="Ellipse 696" class="cls-10" cx="507.3" cy="771.82" r="14.56"></circle><circle id="Ellipse_697" data-name="Ellipse 697" class="cls-10" cx="1759.27" cy="773.47" r="14.56"></circle><path id="Rectangle_1290" data-name="Rectangle 1290" class="cls-18" d="M516.53,821.55h0a10.93,10.93,0,0,1,6.1-14.21h0l49.24-19.64a11,11,0,0,1,14.23,6.1h0A11,11,0,0,1,580,808h0l-49.24,19.64a10.92,10.92,0,0,1-14.2-6Z"></path><path id="Rectangle_1291" data-name="Rectangle 1291" class="cls-18" d="M1688.14,798.83h0a11,11,0,0,1,14.21-6.13h0l49.24,19.68a10.93,10.93,0,0,1,6.12,14.21h0a10.94,10.94,0,0,1-14.21,6.14h0L1694.26,813a10.91,10.91,0,0,1-6.16-14.15Z"></path><path id="Rectangle_1292" data-name="Rectangle 1292" class="cls-10" d="M1625.74,554.54h0a10.92,10.92,0,0,1-12.27-9.4v0h0l-13.11-100.3a11,11,0,0,1,9.19-12.46h.25a11,11,0,0,1,12.29,9.42h0l13.11,100.3a10.93,10.93,0,0,1-9.18,12.44h-.28Z"></path><path id="Rectangle_1293" data-name="Rectangle 1293" class="cls-10" d="M670.46,425.74h0A11,11,0,0,1,679.88,438L666.74,538.42a10.94,10.94,0,0,1-12.17,9.47h-.26a10.94,10.94,0,0,1-9.48-12.16,1,1,0,0,1,0-.25l13.11-100.3a11,11,0,0,1,12.45-9.25h0Z"></path><path id="Path_9327" data-name="Path 9327" class="cls-19" d="M1134.46,778.27h-22.59a24.44,24.44,0,0,1-24.34-21.35l-3.79-29.63a24.5,24.5,0,0,1,21.15-27.39q1.56-.07,3.12,0h30.19a24.49,24.49,0,0,1,24.52,24.46v0q.08,1.54,0,3.09l-3.79,29.71A24.49,24.49,0,0,1,1134.46,778.27Z"></path><path id="Rectangle_1297" data-name="Rectangle 1297" class="cls-19" d="M1196.8,714h0a11,11,0,0,1,7.49,13.54l-14.66,51a11,11,0,0,1-13.57,7.54h0a11,11,0,0,1-7.49-13.56l14.57-51a11,11,0,0,1,13.53-7.53h0Z"></path><path id="Path_9346" data-name="Path 9346" class="cls-19" d="M1068.93,791.71a11,11,0,0,1-13.59-7.39v0h0l-14.86-50.91a11,11,0,0,1,21.07-6.16l14.79,50.91a11,11,0,0,1-7.46,13.56Z"></path><path id="Rectangle_1299" data-name="Rectangle 1299" class="cls-10" d="M627,660.52h0A11,11,0,0,1,640,652.18l66.05,14.41a11,11,0,0,1,8.33,13h0a11,11,0,0,1-13.07,8.33l-66.05-14.36A11,11,0,0,1,627,660.52Z"></path><path id="Rectangle_1300" data-name="Rectangle 1300" class="cls-10" d="M616.35,700.94h0a10.94,10.94,0,0,1,13-8.33l66,14.39a10.94,10.94,0,0,1,8.3,13h0a10.91,10.91,0,0,1-13,8.33l-66.05-14.44A10.94,10.94,0,0,1,616.35,700.94Z"></path><path id="Rectangle_1301" data-name="Rectangle 1301" class="cls-10" d="M1566.73,675.72h0a10.94,10.94,0,0,1,8.33-13L1641,648.29a10.93,10.93,0,0,1,13,8.34h0a10.94,10.94,0,0,1-8.29,13.07h0l-66,14.36A10.93,10.93,0,0,1,1566.73,675.72Z"></path><path id="Rectangle_1302" data-name="Rectangle 1302" class="cls-10" d="M1585.41,713.46h0a10.94,10.94,0,0,1,8.34-13l66.22-14.2a11,11,0,0,1,13.07,8.34h0a11.05,11.05,0,0,1-8.33,13l-66.26,14.18a10.92,10.92,0,0,1-13-8.31Z"></path><path class="cls-13" d="M655,763.74h38.12a0,0,0,0,1,0,0v23.17a0,0,0,0,1,0,0H655a4.7,4.7,0,0,1-4.7-4.7V768.44A4.7,4.7,0,0,1,655,763.74Z"></path><path id="Rectangle_1303" data-name="Rectangle 1303" class="cls-17" d="M654,772.72h0a10.93,10.93,0,0,1,10.93-10.93h33.22a10.93,10.93,0,0,1,11,10.85v.05h0a11,11,0,0,1-11,10.95H664.82a11,11,0,0,1-10.93-10.95Z"></path><path class="cls-13" d="M655,790.4h38.12a0,0,0,0,1,0,0v23.17a0,0,0,0,1,0,0H655a4.7,4.7,0,0,1-4.7-4.7V795.1A4.7,4.7,0,0,1,655,790.4Z"></path><path id="Rectangle_1304" data-name="Rectangle 1304" class="cls-17" d="M654,800.36h0a10.93,10.93,0,0,1,10.93-10.93h33.22a10.93,10.93,0,0,1,10.94,10.93h0a11,11,0,0,1-10.94,11h-33.3a10.94,10.94,0,0,1-10.93-10.94Z"></path><path class="cls-13" d="M655,817.57h38.12a0,0,0,0,1,0,0v23.17a0,0,0,0,1,0,0H655a4.7,4.7,0,0,1-4.7-4.7V822.27A4.7,4.7,0,0,1,655,817.57Z"></path><path id="Rectangle_1305" data-name="Rectangle 1305" class="cls-17" d="M654,828h0a10.93,10.93,0,0,1,10.93-10.93h33.22A10.94,10.94,0,0,1,709.07,828h0a11,11,0,0,1-10.94,11H664.82a11,11,0,0,1-10.93-11Z"></path><path id="Rectangle_1306" data-name="Rectangle 1306" class="cls-17" d="M1570.23,768.73h0a11,11,0,0,1,11-10.93h33.28a11,11,0,0,1,11,10.93h0a11,11,0,0,1-10.9,11h-33.33a11,11,0,0,1-11-11Z"></path><path id="Rectangle_1307" data-name="Rectangle 1307" class="cls-17" d="M1570.23,796.42h0a11,11,0,0,1,11-11h33.28a11,11,0,0,1,11,11h0a11,11,0,0,1-11,11h-33.28a11,11,0,0,1-11-11Z"></path><path id="Rectangle_1308" data-name="Rectangle 1308" class="cls-17" d="M1570.23,824.05h0a11,11,0,0,1,11-10.95h33.28a11,11,0,0,1,11,10.95h0a11,11,0,0,1-11,11h-33.28A11,11,0,0,1,1570.23,824.05Z"></path><path id="Rectangle_1309" data-name="Rectangle 1309" class="cls-11" d="M850.18,463.07h0a8.69,8.69,0,0,1,8.69,8.69v79.87a8.69,8.69,0,0,1-8.69,8.33h0a8.7,8.7,0,0,1-8.34-8.33V471.72A8.7,8.7,0,0,1,850.18,463.07Z"></path><path id="Rectangle_1310" data-name="Rectangle 1310" class="cls-11" d="M1427.17,559.91h0a8.69,8.69,0,0,1-8.7-8.6V471.72a8.69,8.69,0,0,1,8.7-8.69h0a8.69,8.69,0,0,1,8.69,8.69h0v79.87a8.59,8.59,0,0,1-8.69,8.33Z"></path><circle id="Ellipse_711" data-name="Ellipse 711" class="cls-10" cx="1652.89" cy="592.64" r="14.56"></circle><circle id="Ellipse_712" data-name="Ellipse 712" class="cls-10" cx="631.78" cy="591.27" r="14.56"></circle><circle id="Ellipse_713" data-name="Ellipse 713" class="cls-11" cx="772.76" cy="478.09" r="14.56"></circle><circle id="Ellipse_715" data-name="Ellipse 715" class="cls-11" cx="1504.72" cy="478.09" r="14.56"></circle><circle id="Ellipse_717" data-name="Ellipse 717" class="cls-11" cx="801.02" cy="313.17" r="14.56"></circle><circle id="Ellipse_718" data-name="Ellipse 718" class="cls-11" cx="1486.64" cy="308.94" r="14.56"></circle><path id="Rectangle_1283" data-name="Rectangle 1283" class="cls-6" d="M1351.63,1388.2h0a33.75,33.75,0,0,1-43.16-20.27h0l-43.24-119.62a33.69,33.69,0,0,1,20.23-43.14h0a33.75,33.75,0,0,1,43.25,20.19h0v.19l43.2,119.67A33.77,33.77,0,0,1,1351.63,1388.2Z"></path><rect class="cls-12" x="1333.1" y="1210.56" width="11.01" height="146.46" rx="2.23" transform="matrix(0.94, -0.35, 0.35, 0.94, -365.18, 550.92)"></rect><path id="Rectangle_1282" data-name="Rectangle 1282" class="cls-6" d="M1459.27,1349.47h0a33.7,33.7,0,0,1-43-20.23L1373,1209.59a33.68,33.68,0,0,1,20.21-43.15h0a33.73,33.73,0,0,1,43.16,20.29h0l43.24,119.62a33.72,33.72,0,0,1-20.32,43.14Z"></path><rect class="cls-12" x="1440.37" y="1172.1" width="11.01" height="146.46" rx="2.23" transform="translate(-344.88 586.09) rotate(-20.53)"></rect><path id="Path_9306" data-name="Path 9306" class="cls-19" d="M1019.16,832.34A274.66,274.66,0,0,1,1225.52,830c50.62,19.07,83.84,80.16,83,134.24-.81,31.63-13.91,63.68-55.5,81.91H1006.64s-82.18-20.27-67.18-104.46c8.22-43.85,38.29-92.77,79.71-109.34Z"></path><path id="Rectangle_1255-3" data-name="Rectangle 1255" class="cls-13" d="M1358.32,1078.09h0c47.69,2,70.21,126.24,70.21,126.24-4,45-31.94,86-79.59,84l-5.11-.24c-47.68-2-76.54-29.54-80.62-79.14l3.54-24.08c3.84-45,43.66-108.68,91.38-106.8Z"></path><path id="Rectangle_1281" data-name="Rectangle 1281" class="cls-6" d="M1370.43,1269.57h0a80.77,80.77,0,0,1-103.35-48.49l-15.52-42.94A80.72,80.72,0,0,1,1300,1074.79h0a80.68,80.68,0,0,1,103.33,48.39l0,0h0l15.52,43a80.7,80.7,0,0,1-48.46,103.33h0Z"></path><circle id="Ellipse_688" data-name="Ellipse 688" class="cls-11" cx="1340.52" cy="1183.08" r="52.85"></circle><path id="Rectangle_1285" data-name="Rectangle 1285" class="cls-10" d="M1345.18,1372h0a9.89,9.89,0,0,1-12.68-5.91h0l-24.61-69.38a9.9,9.9,0,0,1,5.95-12.68h0a9.86,9.86,0,0,1,12.49,6l24.63,69.35A9.92,9.92,0,0,1,1345.18,1372Z"></path><path id="Rectangle_1284" data-name="Rectangle 1284" class="cls-10" d="M1310.16,1177.86l52.8-15.18a10.54,10.54,0,0,1,13.06,7.21h0a10.55,10.55,0,0,1-7.25,13h0l-52.8,15.19a10.57,10.57,0,0,1-13.09-7.21h0A10.56,10.56,0,0,1,1310.16,1177.86Z"></path><circle id="Ellipse_689" data-name="Ellipse 689" class="cls-10" cx="1310.47" cy="1095.55" r="11.1"></circle><circle id="Ellipse_690" data-name="Ellipse 690" class="cls-10" cx="1448.52" cy="1316.82" r="23.31"></circle><path id="Rectangle_1286" data-name="Rectangle 1286" class="cls-20" d="M768.62,1554.72h0a11.88,11.88,0,0,1,16.23,4.35l56,97a11.88,11.88,0,0,1-4.35,16.23h0a11.87,11.87,0,0,1-16.23-4.35l-56-97A11.89,11.89,0,0,1,768.62,1554.72Z"></path><path id="Path_9335" data-name="Path 9335" class="cls-20" d="M794.88,1507.67a11.91,11.91,0,0,1,16.24,4.17h0l56,97A11.89,11.89,0,1,1,847,1621.46c-.15-.25-.3-.5-.43-.75h0l-56-97a11.87,11.87,0,0,1,4.17-16.22Z"></path><circle id="Ellipse_693" data-name="Ellipse 693" class="cls-10" cx="1531.93" cy="1605.13" r="23.31"></circle><circle id="Ellipse_698" data-name="Ellipse 698" class="cls-10" cx="1117.93" cy="956.97" r="77.46"></circle><circle id="Ellipse_699" data-name="Ellipse 699" class="cls-11" cx="1119.1" cy="958.12" r="49.48"></circle><path id="Path_9343" data-name="Path 9343" class="cls-10" d="M1093,947.33h55a10.59,10.59,0,0,1,0,21.15h-55a10.59,10.59,0,0,1-1-21.15Z"></path><path id="Path_9339" data-name="Path 9339" class="cls-13" d="M950.85,861.94a41,41,0,0,1,28.09,50.7v0h0l-36.46,123.27a41,41,0,0,1-79.24-21.08c.14-.52.3-1,.46-1.55l36.45-123.13A41,41,0,0,1,950.85,862h0Z"></path><path id="Path_9338" data-name="Path 9338" class="cls-6" d="M897.75,869.26l78.83,22.59-39,135.07-78.84-22.59Z"></path><path id="Path_9333" data-name="Path 9333" class="cls-13" d="M884.8,891.17c3.52,14.91,6,25.24,14.83,31l.12.07c26.63,15.82,54,12.24,71.84-13.06l3.74-20.2"></path><path id="Path_9339-2" data-name="Path 9339" class="cls-10" d="M919.23,942.83a41,41,0,0,1,28.09,50.7v0h0l-10,34.91A41,41,0,1,1,858,1007.37c.14-.52.3-1,.46-1.54l10-34.76a41,41,0,0,1,50.7-28.14h0Z"></path><path id="Path_9332" data-name="Path 9332" class="cls-6" d="M960.68,914h0a59.36,59.36,0,0,1-78.87-16.86L826.05,817.9c-8.53-12.08-1.37-30.8,15.64-41l31.64-18.81c17.06-10.14,36.91-7.54,43.45,5.8l58.38,118.63C979.66,892.6,973.49,906.33,960.68,914Z"></path><g class="cls-15"><path class="cls-9" d="M968.18,891.23a2.47,2.47,0,0,1-1.14-.29,2.4,2.4,0,0,1-1-3.18c.08-.17,1.23-3.18-2-8.9-1.33-2.32-7.53-15-16.12-32.43-11.6-23.6-27.47-55.91-37.92-76.14a19.09,19.09,0,0,0-11.87-9.12,21.29,21.29,0,0,0-16.42,1.69l-35.11,21.77a26,26,0,0,0-7.93,37.53,2.38,2.38,0,1,1-3.88,2.77,30.77,30.77,0,0,1,9.34-44.38l35.11-21.77a25.78,25.78,0,0,1,20.21-2.19,23.8,23.8,0,0,1,14.79,11.51c10.47,20.27,26.36,52.61,38,76.22,8.23,16.75,14.73,30,16,32.18,4.71,8.24,2.4,13,2.12,13.48A2.38,2.38,0,0,1,968.18,891.23Z"></path></g><path id="Path_9339-3" data-name="Path 9339" class="cls-13" d="M1304.28,856.51a41,41,0,0,1,50.8,27.9v0h0L1390,1008.16a41,41,0,1,1-78.28,24.42c-.16-.51-.31-1-.44-1.55l-34.83-123.6a41,41,0,0,1,27.88-50.84h0Z"></path><polygon id="Rectangle_1321" data-name="Rectangle 1321" class="cls-6" points="1281.71 891.79 1360.55 869.13 1372.16 909.49 1399.39 1004.21 1320.55 1026.88 1281.71 891.79"></polygon><path id="Path_9333-2" data-name="Path 9333" class="cls-13" d="M1282.57,892.68c3.51,14.91,6,25.24,14.83,31l.11.07c26.63,15.82,57.14,11.67,75-13.63l-5.59-18.83"></path><path id="Rectangle_1322" data-name="Rectangle 1322" class="cls-10" d="M1371.69,1056.5h0a40.94,40.94,0,0,1-50.72-27.93v0h0l-10-35A41,41,0,0,1,1339,942.86h0a41,41,0,0,1,50.73,28h0l10,34.88a41,41,0,0,1-28,50.79h0Z"></path><path id="Path_9333-3" data-name="Path 9333" class="cls-6" d="M1297.4,914l.11.07a59.37,59.37,0,0,0,78.81-16.8l56-79.28c8.54-12.06,1.34-30.8-15.65-40.94L1385,758.2c-17.11-10.17-36.92-7.55-43.54,5.77l-58.32,118.71C1278.37,892.61,1284.62,906.33,1297.4,914Z"></path><g class="cls-15"><path class="cls-9" d="M1290.6,891.92a2.39,2.39,0,0,0,2.13-3.46c-.08-.18-1.23-3.19,2-8.9,1.33-2.33,7.53-15,16.12-32.44,11.59-23.59,27.47-55.91,37.92-76.14a19,19,0,0,1,11.86-9.11,21.22,21.22,0,0,1,16.43,1.69l35.11,21.76a26,26,0,0,1,7.93,37.53,2.39,2.39,0,0,0,3.88,2.78,30.78,30.78,0,0,0-9.34-44.39l-35.11-21.76a25.78,25.78,0,0,0-20.21-2.2c-6.6,1.9-12,6.09-14.79,11.51-10.47,20.28-26.36,52.61-38,76.23-8.23,16.75-14.73,30-16,32.17-4.71,8.24-2.4,13-2.12,13.49A2.39,2.39,0,0,0,1290.6,891.92Z"></path></g><circle id="Ellipse_707" data-name="Ellipse 707" class="cls-10" cx="1395.88" cy="803.99" r="23.31"></circle><circle id="Ellipse_708" data-name="Ellipse 708" class="cls-10" cx="861.99" cy="803.99" r="23.31"></circle><circle id="Ellipse_709" data-name="Ellipse 709" class="cls-10" cx="946.19" cy="887.47" r="14.56"></circle><circle id="Ellipse_710" data-name="Ellipse 710" class="cls-10" cx="1310.47" cy="887.47" r="14.56"></circle><path id="Rectangle_1288" data-name="Rectangle 1288" class="cls-20" d="M1407.71,1656.74l56-97a11.88,11.88,0,0,1,16.23-4.35h0a11.88,11.88,0,0,1,4.35,16.23l-56,97a11.88,11.88,0,0,1-16.23,4.35h0A11.88,11.88,0,0,1,1407.71,1656.74Z"></path><path id="Rectangle_1289" data-name="Rectangle 1289" class="cls-20" d="M1389.34,1611.25l56-97a11.88,11.88,0,0,1,16.23-4.35h0a11.88,11.88,0,0,1,4.35,16.23l-56,97a11.89,11.89,0,0,1-16.23,4.35h0A11.89,11.89,0,0,1,1389.34,1611.25Z"></path><path id="Path_9328" data-name="Path 9328" class="cls-11" d="M1203.23,311.87c0,35.68-33,64.71-73.67,64.71s-73.79-28.86-73.79-64.71"></path><path id="Path_9329" data-name="Path 9329" class="cls-16" d="M1064.64,344l61.72,60.94a6.23,6.23,0,0,0,8.73,0L1195.34,344a6.16,6.16,0,0,0,0-8.71h0a6.25,6.25,0,0,0-4.38-1.76H1069a6.2,6.2,0,0,0-6.14,6.23A6,6,0,0,0,1064.64,344Z"></path><path id="Path_9330" data-name="Path 9330" class="cls-10" d="M1151.31,446.79l-29.92-29.92,76.47-76.28a5.8,5.8,0,0,1,8.07,0h0l21.72,21.71a5.83,5.83,0,0,1,0,8.1h0Z"></path><path id="Path_9345" data-name="Path 9345" class="cls-10" d="M1140,416l-29.39,30.39L1033,371.29a5.87,5.87,0,0,1,0-8.1h0l21.37-22.08a5.75,5.75,0,0,1,8.09,0h0Z"></path><path id="Path_9331" data-name="Path 9331" class="cls-6" d="M1052.77,305.83h0c0-31.09,25.48-74.11,56.61-74.11h39.78c31.13,0,56.61,43,56.61,74.11h0"></path><circle id="Ellipse_703" data-name="Ellipse 703" class="cls-6" cx="1098.87" cy="324.38" r="28.56"></circle><circle id="Ellipse_704" data-name="Ellipse 704" class="cls-21" cx="1098.87" cy="324.38" r="14.59"></circle><circle id="Ellipse_703-2" data-name="Ellipse 703" class="cls-6" cx="1161.46" cy="324.38" r="28.56"></circle><circle id="Ellipse_704-2" data-name="Ellipse 704" class="cls-21" cx="1161.46" cy="324.38" r="14.59"></circle><rect class="cls-13" x="1056.36" y="309.79" width="146.26" height="10.21" rx="0.67"></rect><path id="Rectangle_1314" data-name="Rectangle 1314" class="cls-6" d="M1057.92,292h142.75a11.42,11.42,0,0,1,11.45,11.37v.1h0a11.44,11.44,0,0,1-11.45,11.43H1057.92a11.43,11.43,0,0,1-11.45-11.41v0h0A11.43,11.43,0,0,1,1057.88,292h0Z"></path><path id="Rectangle_1315" data-name="Rectangle 1315" class="cls-22" d="M1076.59,258.77l1.68-2.62A13.56,13.56,0,0,1,1097,252h0a13.55,13.55,0,0,1,4.13,18.73l-1.67,2.62a13.56,13.56,0,0,1-18.73,4.14h0A13.57,13.57,0,0,1,1076.59,258.77Z"></path><path id="Rectangle_1316" data-name="Rectangle 1316" class="cls-22" d="M1162.37,252h0a13.51,13.51,0,0,1,18.67,4,.75.75,0,0,1,.07.12l1.69,2.58a13.5,13.5,0,0,1-4,18.68l-.12.08h0a13.59,13.59,0,0,1-18.74-4.15l-1.69-2.59a13.5,13.5,0,0,1,4-18.68Z"></path><path id="Rectangle_1317" data-name="Rectangle 1317" class="cls-10" d="M1062.81,215.28h0a10.83,10.83,0,0,1,14.3,5.52l15.62,35.3a10.83,10.83,0,0,1-5.52,14.3h0a10.84,10.84,0,0,1-14.3-5.53l-15.62-35.29A10.83,10.83,0,0,1,1062.81,215.28Z"></path><circle id="Ellipse_705" data-name="Ellipse 705" class="cls-22" cx="1083.3" cy="256.42" r="13.34"></circle><path id="Rectangle_1318" data-name="Rectangle 1318" class="cls-10" d="M1163.54,256.15l15.63-35.3a10.83,10.83,0,0,1,14.28-5.53h0A10.83,10.83,0,0,1,1199,229.6h0l-15.62,35.32a10.83,10.83,0,0,1-14.29,5.54h0a10.86,10.86,0,0,1-5.53-14.3Z"></path><circle id="Ellipse_706" data-name="Ellipse 706" class="cls-22" cx="1172.99" cy="259.99" r="13.34"></circle><path id="Path_9340" data-name="Path 9340" class="cls-6" d="M1207,360.33a7.71,7.71,0,0,1,0,10.84l-73.55,73.51A7.69,7.69,0,0,1,1122,434.39l.36-.35h.2l73.52-73.52a7.75,7.75,0,0,1,10.91-.2Z"></path><path id="Rectangle_1325" data-name="Rectangle 1325" class="cls-6" d="M1138.81,447.19h0a7.71,7.71,0,0,1-10.87,0l-73.47-73.5a7.64,7.64,0,0,1,0-10.81h0a7.71,7.71,0,0,1,10.84,0l73.5,73.52a7.66,7.66,0,0,1,0,10.84l0,0S1138.86,447.23,1138.81,447.19Z"></path><circle id="Ellipse_700" data-name="Ellipse 700" class="cls-6" cx="1130.98" cy="427.13" r="37.25"></circle><circle id="Ellipse_700-2" data-name="Ellipse 700" class="cls-16" cx="1130.98" cy="427.13" r="19.04"></circle><ellipse class="cls-12" cx="1129.67" cy="235.99" rx="26.4" ry="1.49"></ellipse><ellipse class="cls-12" cx="1132.14" cy="296.07" rx="69.29" ry="1.74"></ellipse><ellipse class="cls-12" cx="1089.97" cy="321.6" rx="5.38" ry="2.57" transform="translate(415.23 1236.03) rotate(-70.02)"></ellipse><ellipse class="cls-12" cx="1153.04" cy="321.6" rx="5.38" ry="2.57" transform="translate(456.74 1295.3) rotate(-70.02)"></ellipse><ellipse class="cls-12" cx="1177.69" cy="231.72" rx="13.29" ry="1.28" transform="translate(479.76 1208.21) rotate(-65.58)"></ellipse><ellipse class="cls-12" cx="1075.01" cy="228.74" rx="1.28" ry="13.3" transform="translate(35.22 584.83) rotate(-30.92)"></ellipse><rect class="cls-12" x="1174.98" y="331.12" width="2.52" height="73.6" rx="0.46" transform="translate(609.56 -726.51) rotate(45.26)"></rect><rect class="cls-12" x="1179.28" y="352.64" width="2.52" height="56.57" rx="0.46" transform="translate(620.05 -725.71) rotate(45.26)"></rect><rect class="cls-12" x="1083.01" y="332.6" width="2.52" height="73.6" rx="0.46" transform="translate(2109.91 -140.69) rotate(134.74)"></rect><rect class="cls-12" x="1078.72" y="354.12" width="2.52" height="56.57" rx="0.46" transform="translate(2111.83 -115.45) rotate(134.74)"></rect><ellipse class="cls-12" cx="1130.98" cy="413.92" rx="7.76" ry="2.22"></ellipse><path class="cls-12" d="M1164.72,425.56c0,.5,0,1,0,1.49a33.73,33.73,0,0,0-67.39,0c0-.49,0-1,0-1.49a33.74,33.74,0,1,1,67.48,0Z"></path><path class="cls-12" d="M1176.29,485.61c0,1.73,32.58.45,77.69.45s81.67,1.28,81.67-.45-36.85-3.26-82-3.26S1176.29,483.88,1176.29,485.61Z"></path><path class="cls-12" d="M930.35,485c0,.87,32.59.22,77.69.22s81.67.65,81.67-.22-36.84-1.63-82-1.63S930.35,484.15,930.35,485Z"></path><path class="cls-12" d="M930.35,517.11c0,.86,32.59.22,77.69.22s81.67.64,81.67-.22-36.84-1.63-82-1.63S930.35,516.24,930.35,517.11Z"></path><path class="cls-12" d="M930.35,548.87c0,1.14,32.59.3,77.69.3s81.67.84,81.67-.3-36.84-2.16-82-2.16S930.35,547.72,930.35,548.87Z"></path><path class="cls-12" d="M934.46,580.91c0,.86,31.74.22,75.69.22s79.56.64,79.56-.22-35.89-1.63-79.84-1.63S934.46,580,934.46,580.91Z"></path><path class="cls-12" d="M943.71,612.82c0,.86,25,0,67.46,0s76.92.64,76.92-.23-34.16-1-76.64-1S943.71,612,943.71,612.82Z"></path><path class="cls-12" d="M1177.27,517c0,1.16,31.47.3,75,.3s78.89.86,78.89-.3-35.59-2.19-79.16-2.19S1177.27,515.79,1177.27,517Z"></path><path class="cls-12" d="M1177.27,549c0,.87,31.63.23,75.41.23s79.27.64,79.27-.23-35.76-1.63-79.55-1.63S1177.27,548.15,1177.27,549Z"></path><path class="cls-12" d="M1176.29,580.91c0,.86,31.37.22,74.8.22s78.63.64,78.63-.22-35.48-1.63-78.9-1.63S1176.29,580,1176.29,580.91Z"></path><path class="cls-12" d="M1176.29,612.82c0,.87,28.73.23,68.51.23s72,.64,72-.23-32.5-1.63-72.27-1.63S1176.29,612,1176.29,612.82Z"></path><path class="cls-12" d="M1264.59,730.12c-39.63-34.39-140.86-117.21-277.08-4.94a2.31,2.31,0,0,1-3.59-.82l-33.83-89.7,30.33,102.61a2.32,2.32,0,0,0,3.7,1c147.68-128,265.68-15.26,282.47,2.24,1.31,1.33,1.9-4.32,1.41-2.52l43.13-108.24Z"></path><rect class="cls-13" x="993.72" y="822.49" width="70.82" height="128.14" rx="12.73" transform="translate(-328.68 924.46) rotate(-42.34)"></rect><path id="Path_9325" data-name="Path 9325" class="cls-6" d="M988.44,885.23l44.88,40.46a30.79,30.79,0,0,0,41.61,0h0a30.8,30.8,0,0,0,4.17-40.83l-49.95-68A29.71,29.71,0,0,0,987.7,810h0l-.21.16a30.17,30.17,0,0,0-7.83,8.33l-1,1.74s-.5.82-1.3,2.28A51.39,51.39,0,0,0,988.44,885.23Z"></path><rect class="cls-13" x="1182.59" y="823.4" width="70.82" height="128.14" rx="12.73" transform="translate(903.64 -586.4) rotate(41.88)"></rect><path id="Path_9326" data-name="Path 9326" class="cls-6" d="M1258.06,886l-44.7,40.45a30.81,30.81,0,0,1-41.71,0h0a30.85,30.85,0,0,1-4.16-40.79l49.66-67.78a29.55,29.55,0,0,1,41.25-6.7l0,0h0a29.54,29.54,0,0,1,7.88,8.34c.33.54.66,1.11,1,1.73.5,1,.5.79,1.28,2.25A51.47,51.47,0,0,1,1258.05,886Z"></path><path class="cls-10" d="M1341.57,623.16a9.88,9.88,0,0,1-9.91,9.88H1309.8l7.69-19.77h14.17A9.92,9.92,0,0,1,1341.57,623.16Z"></path><path class="cls-10" d="M1341.57,591.26a9.92,9.92,0,0,1-9.91,9.86h-9.44l7.67-19.77h1.77A10,10,0,0,1,1341.57,591.26Z"></path><path class="cls-10" d="M1338.66,566.34a9.81,9.81,0,0,1-3.84,2.39l5.49-14.15.08.13c.07.17.24.52.47,1a9.36,9.36,0,0,1,.71,3.6A9.85,9.85,0,0,1,1338.66,566.34Z"></path><path class="cls-10" d="M949.61,633H933a9.86,9.86,0,0,1-9.86-9.86v0a9.9,9.9,0,0,1,9.84-9.86h10.72Z"></path><path class="cls-10" d="M940.1,601.12H933a9.84,9.84,0,0,1-9.86-9.83v0a9.9,9.9,0,0,1,9.86-9.91h1.21Z"></path><path class="cls-10" d="M930.53,568.93a9.87,9.87,0,0,1-7.37-9.56v0a9.76,9.76,0,0,1,2.54-6.58Z"></path><g class="cls-15"><path class="cls-9" d="M1167.12,905.2a2.46,2.46,0,0,1-2.46-2.32c-.38-6.86,2.67-10.74,8.74-18.47,2-2.6,4.35-5.54,7.11-9.28,7.45-10.13,13.91-19.47,19.61-27.72,16.76-24.22,26.88-38.85,38-38.85,10.09,0,18.09,3.31,23.77,9.82,12.32,14.12,9.19,38.16,9.06,39.18a2.47,2.47,0,0,1-4.89-.67c0-.23,3-22.87-7.89-35.28-4.71-5.39-11.45-8.12-20.05-8.12s-18.61,14.61-33.91,36.73c-5.72,8.27-12.21,17.64-19.7,27.83-2.8,3.8-5.24,6.91-7.2,9.41-5.81,7.38-8,10.15-7.7,15.14a2.46,2.46,0,0,1-2.32,2.6Z"></path></g><g class="cls-15"><path class="cls-9" d="M1081,905.2a2.48,2.48,0,0,0,2.51-2.32c.39-6.86-2.72-10.74-8.91-18.47-2.08-2.6-4.44-5.54-7.24-9.28-7.6-10.13-14.19-19.47-20-27.72-17.08-24.22-27.4-38.85-38.7-38.85-10.29,0-18.44,3.31-24.24,9.82-12.55,14.12-9.36,38.16-9.22,39.18a2.52,2.52,0,0,0,2.82,2.11,2.49,2.49,0,0,0,2.16-2.78c0-.23-3-22.87,8-35.28,4.8-5.39,11.67-8.12,20.44-8.12s19,14.61,34.57,36.73c5.83,8.27,12.44,17.64,20.08,27.83,2.85,3.8,5.34,6.91,7.34,9.41,5.92,7.38,8.13,10.15,7.84,15.14a2.49,2.49,0,0,0,2.37,2.6Z"></path></g><g class="cls-15"><path class="cls-9" d="M626.7,625.26a3.42,3.42,0,0,1-.45,0c-50.2-9.28-45.9-56.6-45.57-59.67l3.8-142.94a39.52,39.52,0,0,1,3.4-15.63c5.71-12.38,24.69-22.34,36.58-22.34l33.06,1.57a2.46,2.46,0,1,1-.23,4.92l-32.94-1.56c-10.07,0-27.24,9.17-32,19.48a34.71,34.71,0,0,0-2.94,13.69L585.59,566c-.25,1.86-5.41,45.65,41.56,54.33a2.47,2.47,0,0,1-.45,4.89Z"></path></g><g id="Path_9339-4" data-name="Path 9339" class="cls-23"><path class="cls-9" d="M889.44,1052.75a4,4,0,0,1-1-.12,38.69,38.69,0,0,1-27.4-47.28c.14-.51.29-1,.44-1.48L870,974.34a38.63,38.63,0,0,1,47.21-26.67,3.66,3.66,0,0,1,3.25,3.63v4.9l-4.72-1.27a31.25,31.25,0,0,0-38.64,21.45L868.6,1006c-.15.47-.27.87-.38,1.26a31.28,31.28,0,0,0,22.17,38.21,3.7,3.7,0,0,1-.95,7.27Z"></path></g><g id="Path_9339-5" data-name="Path 9339" class="cls-24"><path class="cls-25" d="M1342.67,947.45a3.73,3.73,0,0,1,.91-.29,38.69,38.69,0,0,1,45,31q.14.8.24,1.53l4.93,30.34a38.63,38.63,0,0,1-31.26,44.3,3.65,3.65,0,0,1-4.49-1.89l-2.1-4.43,4.81-.87a31.26,31.26,0,0,0,25.75-35.92l-5-30.44c-.07-.49-.13-.9-.2-1.3a31.28,31.28,0,0,0-36.38-25.05,3.7,3.7,0,0,1-2.25-7Z"></path></g><rect class="cls-12" x="1576.83" y="759.95" width="42.25" height="5.78" rx="1.17"></rect><rect class="cls-12" x="1576.83" y="788.04" width="42.25" height="5.78" rx="1.17"></rect><rect class="cls-12" x="1576.83" y="815.33" width="42.25" height="5.78" rx="1.17"></rect><rect class="cls-12" x="660.38" y="762.19" width="42.25" height="5.78" rx="1.17"></rect><rect class="cls-12" x="660.38" y="790.28" width="42.25" height="5.78" rx="1.17"></rect><rect class="cls-12" x="660.38" y="817.57" width="42.25" height="5.78" rx="1.17"></rect><g id="Ellipse_694-2" data-name="Ellipse 694" class="cls-23"><path class="cls-9" d="M484.69,741.92a18.92,18.92,0,0,1,0-37.84,2.47,2.47,0,1,1,0,4.93,14,14,0,0,0,0,28,2.47,2.47,0,1,1,0,4.93Z"></path></g><g id="Ellipse_694-3" data-name="Ellipse 694" class="cls-15"><path class="cls-25" d="M510.31,784.41a12.44,12.44,0,0,1-7.13-23.84,1.62,1.62,0,0,1,.93,3.11,9.2,9.2,0,0,0,5.27,17.62,1.62,1.62,0,1,1,.93,3.11Z"></path></g><g id="Ellipse_694-4" data-name="Ellipse 694" class="cls-15"><path class="cls-25" d="M631.58,604.13a12.86,12.86,0,0,1,0-25.72,1.68,1.68,0,1,1,0,3.35,9.51,9.51,0,0,0,0,19,1.68,1.68,0,1,1,0,3.35Z"></path></g><g id="Ellipse_694-5" data-name="Ellipse 694" class="cls-23"><path class="cls-9" d="M861.51,824.08a20.09,20.09,0,0,1,0-40.17,2.62,2.62,0,1,1,0,5.23,14.85,14.85,0,0,0,0,29.7,2.62,2.62,0,0,1,0,5.24Z"></path></g><g id="Ellipse_694-6" data-name="Ellipse 694" class="cls-23"><path class="cls-9" d="M946.36,900.67a13.2,13.2,0,1,1,0-26.39,1.72,1.72,0,1,1,0,3.43,9.76,9.76,0,1,0,0,19.52,1.72,1.72,0,1,1,0,3.44Z"></path></g><g id="Ellipse_694-7" data-name="Ellipse 694" class="cls-23"><path class="cls-9" d="M1395,782.22a20.93,20.93,0,1,1,0,41.86c-1.5,0-4.22-2.87-2.72-2.73,15.29,1.48,21.48-10.13,21.48-18.66s-7.25-18.42-21.48-17.74C1390.8,785,1393.53,782.22,1395,782.22Z"></path></g><g id="Ellipse_694-8" data-name="Ellipse 694" class="cls-23"><path class="cls-9" d="M1310.64,874.15a13.41,13.41,0,0,1,0,26.81,1.74,1.74,0,0,1-1.74-1.75c0-1,11.65-.44,11.65-11.65,0-11.78-11.65-10.7-11.65-11.66A1.75,1.75,0,0,1,1310.64,874.15Z"></path></g><g id="Ellipse_694-9" data-name="Ellipse 694" class="cls-23"><path class="cls-9" d="M1791,705.36a20.93,20.93,0,1,1,0,41.85,2.73,2.73,0,0,1,0-5.45,15.48,15.48,0,1,0,0-31,2.73,2.73,0,0,1,0-5.45Z"></path></g><g id="Ellipse_694-10" data-name="Ellipse 694" class="cls-23"><path class="cls-9" d="M1759.4,760.81c7.89,0,14.3,5.76,14.3,12.84s-6.41,12.85-14.3,12.85a1.68,1.68,0,1,1,0-3.35c5.83,0,10.58-4.26,10.58-9.5s-4.75-9.5-10.58-9.5a1.68,1.68,0,1,1,0-3.34Z"></path></g><g id="Ellipse_694-11" data-name="Ellipse 694" class="cls-15"><path class="cls-9" d="M1651.13,579.16c7.87,0,14.28,5.81,14.28,13s-6.41,12.95-14.28,12.95a1.69,1.69,0,1,1,0-3.37c5.82,0,10.56-4.3,10.56-9.58s-4.74-9.58-10.56-9.58a1.69,1.69,0,1,1,0-3.37Z"></path></g><g id="Ellipse_694-12" data-name="Ellipse 694" class="cls-15"><path class="cls-9" d="M1448.61,1295.89a20.93,20.93,0,0,1,0,41.85,2.73,2.73,0,1,1,0-5.45,15.48,15.48,0,0,0,0-31,2.73,2.73,0,1,1,0-5.45Z"></path></g><g id="Ellipse_694-13" data-name="Ellipse 694" class="cls-15"><path class="cls-9" d="M785.31,1337.74a20.93,20.93,0,0,1,0-41.85,2.73,2.73,0,1,1,0,5.45,15.48,15.48,0,0,0,0,31,2.73,2.73,0,1,1,0,5.45Z"></path></g><ellipse class="cls-12" cx="1401.44" cy="1142.13" rx="6.01" ry="44.48" transform="translate(-328.59 617.27) rotate(-22.3)"></ellipse><ellipse class="cls-12" cx="832.67" cy="1144.97" rx="44.48" ry="6.01" transform="translate(-522.85 1553.47) rotate(-70.74)"></ellipse><ellipse class="cls-14" cx="1338.61" cy="1174.26" rx="31.88" ry="2.38" transform="matrix(0.96, -0.27, 0.27, 0.96, -265.07, 400.33)"></ellipse><ellipse class="cls-14" cx="897.59" cy="1174.19" rx="1.69" ry="31.87" transform="matrix(0.28, -0.96, 0.96, 0.28, -479.43, 1711.01)"></ellipse><ellipse class="cls-14" cx="896.59" cy="1329.83" rx="31.86" ry="1.68" transform="translate(-665.48 1693.51) rotate(-69.12)"></ellipse><ellipse class="cls-14" cx="1334.04" cy="1323.44" rx="1.68" ry="31.82" transform="translate(-374.25 540.57) rotate(-20.15)"></ellipse><ellipse class="cls-12" cx="721.45" cy="890.41" rx="8.49" ry="16.13"></ellipse><ellipse class="cls-12" cx="1557.22" cy="893.71" rx="16.13" ry="8.49" transform="translate(307.47 2182.82) rotate(-75.74)"></ellipse><rect class="cls-14" x="632.47" y="661.54" width="77.52" height="6.34" rx="1.29" transform="translate(149.37 -122.72) rotate(11.75)"></rect><rect class="cls-14" x="623.64" y="700.93" width="75.81" height="6.34" rx="1.29" transform="translate(165.57 -125) rotate(12.33)"></rect><g id="Rectangle_1273-2" data-name="Rectangle 1273" class="cls-15"><path class="cls-9" d="M631.47,733.53a47.73,47.73,0,0,1-17.56-7.1,48.44,48.44,0,0,1,19.19-88.09,47.69,47.69,0,0,1,18.93.85,48.81,48.81,0,0,0-49.15,20.17,48.25,48.25,0,0,0-7.71,35.38,48.79,48.79,0,0,0,36.3,38.79Z"></path></g><g id="Rectangle_1273-3" data-name="Rectangle 1273" class="cls-15"><path class="cls-9" d="M1634.9,637.6a53.53,53.53,0,0,1,19.6,1.92,51.09,51.09,0,0,1,17.54,9.24,45.46,45.46,0,0,1,12.4,15.61,46.21,46.21,0,0,1,4.6,19.44,47.45,47.45,0,0,1-4.14,19.54,50.4,50.4,0,0,1-11.52,16.24,54.42,54.42,0,0,1-35.9,14.88,57.52,57.52,0,0,0,18.85-5.05,54,54,0,0,0,15.91-11,51.61,51.61,0,0,0,10.89-15.85,45.5,45.5,0,0,0,3.79-18.74,44,44,0,0,0-4.23-18.62c-.7-1.44-1.53-2.82-2.29-4.24s-1.82-2.65-2.75-4-2.08-2.45-3.16-3.65-2.28-2.28-3.49-3.34a50,50,0,0,0-16.82-9.5A56.07,56.07,0,0,0,1634.9,637.6Z"></path></g><rect class="cls-14" x="1572.56" y="658.26" width="74.86" height="6.94" rx="1.41" transform="translate(-100.57 339.32) rotate(-11.67)"></rect><rect class="cls-14" x="1592.93" y="695.08" width="74.86" height="6.94" rx="1.41" transform="translate(-107.59 344.2) rotate(-11.67)"></rect><path class="cls-14" d="M1495.2,1499.32h0c-3.14,2.57,11.83,12.84,17.28,19.59l37.39,56.44,25.56,21.81c5.45,6.76,9.68,20.14,12.82,17.57h0c3.14-2.58-2.41-18.2-7.86-25l-22.91-21.62-38.7-57.36C1513.33,1504,1498.34,1496.74,1495.2,1499.32Z"></path><path id="Path_9313" data-name="Path 9313" class="cls-6" d="M681.23,1603.29,635,1698.7a49,49,0,0,0,44.13,70.42h92.57a49,49,0,0,0,44.12-70.43l-46.29-95.4a49.06,49.06,0,0,0-88.27,0Z"></path><path class="cls-12" d="M638.18,1723.75h0c3.58,1.71,9.57-3.22,13.37-11l51.19-105c3.81-7.79,4-15.5.41-17.21h0c-3.58-1.71-9.57,3.23-13.37,11l-51.19,104.94C634.78,1714.34,634.6,1722,638.18,1723.75Z"></path><path id="Path_9314" data-name="Path 9314" class="cls-10" d="M692.88,1674.91l-29.55,60.93a31.29,31.29,0,0,0,28.14,45h59.08a31.38,31.38,0,0,0,28.14-45l-29.43-60.93a31.28,31.28,0,0,0-56.4,0Z"></path><path id="Path_9337" data-name="Path 9337" class="cls-10" d="M725.24,1588.22a23.31,23.31,0,1,1-23.31,23.3h0A23.31,23.31,0,0,1,725.24,1588.22Z"></path><path class="cls-2" d="M2108.51,1736.25c0,39.48-21,66.85-61.56,97.35-40.28,28.53-96.5-35.53-169.5,31-108.64,99.07-215.65,62.93-215.65,62.93s160.27-76.08,194.63-206.85c.75-2.85,2.27-5.3,3.53-7.74a118.91,118.91,0,1,1,186-61.45A88.66,88.66,0,0,1,2108.51,1736.25Z"></path><path class="cls-2" d="M1801.38,1824.81a99.71,99.71,0,0,1,130.84-150.49"></path><path class="cls-2" d="M1904.86,1759.32A68.45,68.45,0,1,0,1994.68,1656"></path><path class="cls-2" d="M589.62,1919.77c-2.84-.51-184.62-33.58-257-37.75-55.48-3.18-86.51-9.37-110.21-19.25a145.77,145.77,0,0,1-75.12-72c-13.3-27.94-11-33.61-11-62.52,0-39.86,33.05-73.38,69.28-84.52a119.07,119.07,0,0,1,119.07-152.31A117.32,117.32,0,0,1,376.79,1506h0c35.6,19.64,60.26,57,61.8,99.87a118.76,118.76,0,0,1-47.1,99.27,38.12,38.12,0,0,1,3.52,7.74C429.12,1842.68,587.15,1918.59,589.62,1919.77Z"></path><path class="cls-2" d="M297.47,1676.37A99.7,99.7,0,0,1,428.3,1826.86"></path><path class="cls-2" d="M264.58,1667a42.65,42.65,0,0,1,14.05,84.13"></path><path class="cls-3" d="M56,1709.29a54.82,54.82,0,0,1,48.7,98.24"></path><ellipse class="cls-12" cx="1965.02" cy="1726.48" rx="41.1" ry="23.44" transform="translate(-646.32 1575.15) rotate(-37.99)"></ellipse><ellipse class="cls-12" cx="1911.17" cy="1538.29" rx="57.3" ry="23.44" transform="translate(-288.15 451.14) rotate(-12.53)"></ellipse><ellipse class="cls-12" cx="1971.82" cy="1440.01" rx="23.44" ry="57.3" transform="translate(383.43 3294.4) rotate(-85.56)"></ellipse><ellipse class="cls-12" cx="158.66" cy="1466.06" rx="57.3" ry="23.44" transform="matrix(0.95, -0.3, 0.3, 0.95, -438.7, 117.85)"></ellipse><ellipse class="cls-12" cx="2119.29" cy="1870.55" rx="41.05" ry="30.81" transform="translate(-683.98 2233.95) rotate(-48.82)"></ellipse><ellipse class="cls-12" cx="54.45" cy="1751.13" rx="47.38" ry="22.96" transform="translate(-1299.58 639.37) rotate(-48.83)"></ellipse><path class="cls-12" d="M78.47,1618.84c-17.23,19.7-20.73,49.45-15,54.49s18.62-16.53,35.84-36.23,39.57-34.9,33.8-39.94S95.69,1599.14,78.47,1618.84Z"></path><ellipse class="cls-12" cx="411.46" cy="1717.91" rx="30.81" ry="56.03" transform="translate(-933.8 573.02) rotate(-36.13)"></ellipse><ellipse class="cls-12" cx="380.03" cy="1561.08" rx="30.81" ry="56.03" transform="translate(-847.38 524.32) rotate(-36.13)"></ellipse><path class="cls-26" d="M1667.17,1929.07c96.28-6.4,150.14-104.26,150.14-104.26S1806.7,1800,1792,1757.6s16-88.57,16-88.57-56.78,47.51-35.59,109.74c13.42,39.43,28.49,43.78,28.49,43.78s-31.43,34.24-52,51c-30.82,25.16-87.12,54-87.12,54Z"></path><path class="cls-26" d="M1767.09,1621.79c0,36.6,4.67,59.76,9.29,73.7a118.47,118.47,0,0,1,71.38-197.89C1846.51,1498.4,1767.09,1549.9,1767.09,1621.79Z"></path><path class="cls-26" d="M427.24,1661.24c17-73.93-49.52-154.08-50.44-155.19,35.6,19.64,60.26,57,61.8,99.87a118.87,118.87,0,0,1-11.37,55.39A.17.17,0,0,1,427.24,1661.24Z"></path><path class="cls-26" d="M592.79,1919.77s-110-51.85-147.32-112.24c0,0,46.82-65.29-10.44-124.73,0,0,19.62,55.36,9.47,80.36s-26.41,54.22-26.41,54.22,43.17,78.39,171.53,102.39"></path><rect class="cls-26" x="1456.15" y="1742.6" width="151.55" height="38.28" rx="19.14"></rect><rect class="cls-26" x="1471.61" y="1749.96" width="109.24" height="25.02" rx="12.51"></rect><rect class="cls-26" x="649.46" y="1742.42" width="151.55" height="38.28" rx="19.14"></rect><rect class="cls-26" x="669.88" y="1756.03" width="109.24" height="25.02" rx="12.51"></rect><ellipse class="cls-26" cx="702.63" cy="1994.94" rx="151.62" ry="21.12"></ellipse><ellipse class="cls-26" cx="1510.88" cy="1994.94" rx="151.62" ry="21.12"></ellipse></g></g></svg>