<svg xmlns="http://www.w3.org/2000/svg" viewBox="0 0 1024 1024"><defs><style>.cls-1{isolation:isolate;}.cls-10,.cls-11,.cls-12,.cls-2{fill:#ebf0f5;}.cls-14,.cls-2,.cls-7{stroke:#24313e;}.cls-13,.cls-14,.cls-2,.cls-3,.cls-4,.cls-5,.cls-7{stroke-miterlimit:10;}.cls-2,.cls-3,.cls-4,.cls-5,.cls-6,.cls-7,.cls-8{stroke-width:1.14px;}.cls-3,.cls-9{fill:#24313e;}.cls-13,.cls-3,.cls-4,.cls-5,.cls-6,.cls-8{stroke:#031439;}.cls-4{fill:#e7e9f2;}.cls-13,.cls-5{fill:#0c7ff2;}.cls-6,.cls-8{fill:#fff;stroke-linecap:round;stroke-linejoin:round;}.cls-14,.cls-7{fill:#3392f2;}.cls-8,.cls-9{mix-blend-mode:multiply;}.cls-9{opacity:0.47;}.cls-10{opacity:0.5;}.cls-10,.cls-11,.cls-12{mix-blend-mode:overlay;}.cls-11{opacity:0.3;}.cls-12{opacity:0.98;}.cls-13,.cls-14{stroke-width:1.91px;}</style></defs><g class="cls-1"><g id="Layer_1" data-name="Layer 1"><path class="cls-2" d="M547.38,272.24l.57,16.45c-12.64-2.54-26.2-2.33-39.43-2.33a192.44,192.44,0,0,0-28.68,2.13V272.24Z"></path><path class="cls-2" d="M539.4,272.24v17.87a154.53,154.53,0,0,0-34.27-3.75,150,150,0,0,0-25.29,2.13V272.24Z"></path><path class="cls-3" d="M222.72,573.2C225,422.58,345,296.32,495.34,287c169.45-10.56,310.11,123.69,310.11,290.74,0,149.42-112.29,272.47-257.14,289.3A272.39,272.39,0,0,1,514,869.12a280.29,280.29,0,0,1-46.46-3.75C327.26,842.93,220.51,720.36,222.72,573.2Z"></path><circle class="cls-4" cx="514.1" cy="577.76" r="229.38" transform="translate(-257.96 532.74) rotate(-45)"></circle><path class="cls-5" d="M553.67,432.18l-25,123.18-40.52.21L512,427.19c1-4.89-3.68-10.16,1.75-10.16l28.83,3C549.63,420,555,425.84,553.67,432.18Z"></path><path class="cls-6" d="M646.93,578.65,544.57,755.73a15.84,15.84,0,0,1-13.71,7.92H509.45a5.71,5.71,0,0,1-4.94-8.57L620.09,555l13-.07A15.84,15.84,0,0,1,646.93,578.65Z"></path><path class="cls-6" d="M620.25,554.72l-.16.23L504.24,755.55a1.61,1.61,0,0,1-3-1.1l25.84-139.12-91.58.62-40.59.31,27.4-47.42L508.87,419.1a2.35,2.35,0,0,1,4.34,1.6L488.15,555.57l40.52-.23Z"></path><path class="cls-5" d="M620.25,554.72l-.16.23L505.84,752.78a2.11,2.11,0,0,1-1.26,1,2.21,2.21,0,0,1-1.72-.25,2.06,2.06,0,0,1-1-2.23l1.39-7.45,23.87-128.53-91.58.63-40.59.3,27.4-47.41L507.6,421.3l1.83-3.19a2.16,2.16,0,0,1,4,1.47l-25.26,136,40.51-.24Z"></path><path class="cls-7" d="M647.89,577,544.26,756.28a14.75,14.75,0,0,1-12.77,7.37h-21A6.3,6.3,0,0,1,505,754.2L620.09,555l14.95-.08A14.74,14.74,0,0,1,647.89,577Z"></path><rect class="cls-3" x="386.33" y="229.27" width="257.35" height="42.96" rx="1.93" transform="translate(1030 501.52) rotate(-180)"></rect><rect class="cls-8" x="409.76" y="232.44" width="10.52" height="36.63" rx="0.52"></rect><rect class="cls-6" x="411.56" y="232.44" width="9.29" height="36.63" rx="0.46"></rect><rect class="cls-8" x="435.18" y="232.44" width="10.52" height="36.63" rx="0.52"></rect><rect class="cls-6" x="436.98" y="232.44" width="9.29" height="36.63" rx="0.46"></rect><rect class="cls-8" x="460.6" y="232.44" width="10.52" height="36.63" rx="0.52"></rect><rect class="cls-6" x="462.4" y="232.44" width="9.29" height="36.63" rx="0.46"></rect><rect class="cls-8" x="486.02" y="232.44" width="10.52" height="36.63" rx="0.52"></rect><rect class="cls-6" x="487.82" y="232.44" width="9.29" height="36.63" rx="0.46"></rect><rect class="cls-8" x="511.44" y="232.44" width="10.52" height="36.63" rx="0.52"></rect><rect class="cls-6" x="513.24" y="232.44" width="9.29" height="36.63" rx="0.46"></rect><rect class="cls-8" x="536.86" y="232.44" width="10.52" height="36.63" rx="0.52"></rect><rect class="cls-6" x="538.66" y="232.44" width="9.29" height="36.63" rx="0.46"></rect><rect class="cls-8" x="562.28" y="232.44" width="10.52" height="36.63" rx="0.52"></rect><rect class="cls-6" x="564.08" y="232.44" width="9.29" height="36.63" rx="0.46"></rect><rect class="cls-8" x="587.69" y="232.44" width="10.52" height="36.63" rx="0.52"></rect><rect class="cls-6" x="589.5" y="232.44" width="9.29" height="36.63" rx="0.46"></rect><rect class="cls-8" x="613.11" y="232.44" width="10.52" height="36.63" rx="0.52"></rect><rect class="cls-6" x="614.92" y="232.44" width="9.29" height="36.63" rx="0.46"></rect><rect class="cls-9" x="385.27" y="265.8" width="258.23" height="5.11"></rect><rect class="cls-10" x="385.55" y="229.19" width="258.23" height="5.11"></rect><polygon class="cls-11" points="535.95 608.31 504.58 753.79 502.45 763.65 502.86 753.54 503.24 743.86 527.11 615.33 435.54 615.96 394.94 616.26 422.34 568.85 507.6 421.3 507.6 427.98 411.09 604.33 535.95 608.31"></polygon><polygon class="cls-11" points="612.57 555.52 501.16 760.88 620.09 554.95 612.57 555.52"></polygon><path class="cls-12" d="M805.46,577.69c0,1.56,0,3.11,0,4.65-2.78-164.73-142.33-296.2-310.08-285.74C345.13,306,225.2,432,222.73,582.45q-.09-4.61,0-9.25C225,422.58,345,296.31,495.34,287,664.79,276.39,805.46,410.63,805.46,577.69Z"></path><path class="cls-13" d="M1013.28,378.14l-6.67,10-64.2,97.52L936.85,482h0L835.2,414.93l-.3-.3L882,404.94,901.22,401C842.77,222.32,673,106.78,483.14,118.6A406.39,406.39,0,0,0,412,129.5a1.39,1.39,0,0,1-.76.15C253,169,128.05,301.51,102.15,467.17a415.92,415.92,0,0,0-4.69,56.33,406.93,406.93,0,0,0,1.82,47.09c18.17,186.1,159.9,336.77,344.49,366.3a405.24,405.24,0,0,0,114.17,2.43c10.15-1.22,20.3-2.73,30.29-4.7A411.62,411.62,0,0,0,796.14,826.35c3.93-3.78,7.71-7.57,11.5-11.51l32.86,31.35A457.77,457.77,0,0,1,600,978.53c-12.12,2.43-24.38,4.4-36.64,5.76a419.34,419.34,0,0,1-53.91,3.33,440.5,440.5,0,0,1-73-5.9C231.63,949,74.29,781.68,54.15,575a461.85,461.85,0,0,1,3.18-114.94C77,334.12,148.25,225.39,247.69,155.4a458.9,458.9,0,0,1,95.63-51.63A449.64,449.64,0,0,1,402.58,85a441.51,441.51,0,0,1,77.68-11.82C692.56,60,882.6,190.67,946.05,391.92Z"></path><path class="cls-14" d="M901.22,401,882,404.94C823.54,226.41,653.79,111,464.06,122.83A395.13,395.13,0,0,0,412,129.5a407.49,407.49,0,0,1,71.17-10.91C673,106.78,842.77,222.32,901.22,401Z"></path><polygon class="cls-14" points="942.41 485.65 935.75 495.64 815.82 418.87 835.2 414.93 942.41 485.65"></polygon><path class="cls-14" d="M600,978.53a434.29,434.29,0,0,1-55.73,10,419.07,419.07,0,0,1-53.9,3.33,439.41,439.41,0,0,1-73-5.91c-204.88-32.71-362.21-200-382.35-406.72a461.85,461.85,0,0,1,3.18-114.94C68.08,273.2,216.94,121.62,402.58,85,225.87,127.83,86.1,275.47,57.33,460.06A461.76,461.76,0,0,0,54.15,575C74.29,781.68,231.62,949,436.5,981.71a439.41,439.41,0,0,0,73,5.91,419.07,419.07,0,0,0,53.9-3.33C575.66,982.92,587.93,981,600,978.53Z"></path><path class="cls-11" d="M840.5,846.19A457.77,457.77,0,0,1,600,978.53c-12.12,2.43-24.38,4.4-36.64,5.76a419.34,419.34,0,0,1-53.91,3.33,440.5,440.5,0,0,1-73-5.9C231.63,949,74.29,781.68,54.15,575a461.85,461.85,0,0,1,3.18-114.94C77,334.12,148.25,225.39,247.69,155.4,54.84,296,3.52,593.45,153.15,794.74,375.05,1093.27,740.68,948.15,840.5,846.19Z"></path><path class="cls-11" d="M1013.28,378.14l-6.67,10-64.2,97.52L936.85,482h0l51.71-90.76-56.4,13.72S869.94,145.48,619.56,90c-105.39-23.37-198.2-15.63-276.24,13.79A449.64,449.64,0,0,1,402.58,85a441.51,441.51,0,0,1,77.68-11.82C692.56,60,882.6,190.67,946.05,391.92Z"></path></g></g></svg>