<svg xmlns="http://www.w3.org/2000/svg" xmlns:xlink="http://www.w3.org/1999/xlink" id="Layer_1" x="0px" y="0px" viewBox="0 0 1024 1024" style="enable-background:new 0 0 1024 1024;" xml:space="preserve"><style type="text/css">	.st0{fill:#24313E;}	.st1{fill:#0062FF;stroke:#24313E;stroke-width:2;stroke-miterlimit:10;}	.st2{opacity:0.33;}	.st3{opacity:0.33;fill:#455666;enable-background:new    ;}	.st4{fill:#9CAAB8;stroke:#24313E;stroke-width:2;stroke-miterlimit:10;}	.st5{fill:#D9DEE5;stroke:#24313E;stroke-width:2;stroke-miterlimit:10;}	.st6{fill:#EBF0F5;stroke:#24313E;stroke-width:2;stroke-miterlimit:10;}	.st7{opacity:0.5;fill:#FFFFFF;enable-background:new    ;}	.st8{opacity:0.39;}	.st9{fill:#EBF0F5;}</style><g>	<g id="Layer_1_1_">		<path class="st0" d="M688.1,426.1c1.6-11.6,0.1-23.5-4.4-34.4c-9.1-21.8-27.4-38.4-49.9-45.4c-11.2-3.5-23.2-3.8-34.6-1.1   c-3.6,0.9-7.3,1.2-11,0.9c-3.6-0.3-7.2-1.1-10.6-2.4c-3.4-1.3-6.6-3.1-9.5-5.4c-3-2.3-5.6-4.9-7.8-7.9   c-17-22.6-40.1-36.3-65.1-42.5c-25-6.1-52-4.6-76.9,3.4c-24.8,8-47.5,22.5-64,42.3c-16.4,19.8-26.6,45-26.4,74.4   c0,3.2-0.4,6.3-1.1,9.4c-0.7,3-1.9,5.9-3.3,8.7c-1.4,2.8-3.2,5.3-5.3,7.7c-2.1,2.4-4.4,4.6-7,6.4c-19.5,13.9-31.7,33.4-37.5,54.7   c-5.7,21.3-4.9,44.4,1.6,65.7c6.5,21.3,18.8,40.7,36.1,54.6c17.3,13.9,39.5,22.3,66,21.4h270.2v-0.2c24.3,1.5,44.5-5.6,60-17.8   c15.5-12.2,26.3-29.7,31.9-48.7c5.6-19.1,6-39.8,0.6-58.8c-5.4-19-16.5-36.1-33.9-48c-3.1-2.1-5.8-4.5-8.3-7.3   c-2.4-2.7-4.5-5.7-6.1-8.9c-1.6-3.2-2.8-6.6-3.4-10.1C687.7,433.4,687.6,429.7,688.1,426.1z"></path>		<path class="st1" d="M676.6,426.1c1.6-11.6,0.1-23.5-4.4-34.4c-9.1-21.8-27.4-38.4-49.9-45.4c-11.2-3.5-23.2-3.8-34.6-1.1   c-3.6,0.9-7.3,1.2-11,0.9c-3.6-0.3-7.2-1.1-10.6-2.4c-3.4-1.3-6.6-3.1-9.5-5.4c-3-2.3-5.6-4.9-7.8-7.9   c-17-22.6-40.1-36.3-65.1-42.5c-25-6.1-52-4.6-76.8,3.4s-47.5,22.5-64,42.3c-16.4,19.8-26.6,45-26.4,74.4c0,3.2-0.4,6.3-1.1,9.4   c-0.7,3-1.9,5.9-3.3,8.7c-1.4,2.8-3.2,5.3-5.3,7.7c-2.1,2.4-4.4,4.5-7,6.4c-19.5,13.9-31.7,33.4-37.5,54.7   c-5.7,21.3-4.9,44.4,1.6,65.7c6.5,21.3,18.8,40.7,36.1,54.6s39.5,22.3,66,21.4h270.2v-0.2c24.3,1.5,44.5-5.6,60-17.8   c15.5-12.2,26.3-29.7,31.9-48.7c5.6-19.1,6-39.9,0.6-58.8c-5.3-19-16.5-36.1-33.9-48c-3.1-2.1-5.8-4.5-8.3-7.3   c-2.4-2.7-4.5-5.7-6.1-8.9c-1.6-3.2-2.8-6.6-3.4-10.1C676.1,433.4,676,429.7,676.6,426.1z"></path>		<g class="st2">							<image style="overflow:visible;enable-background:new    ;" width="513" height="633" xlink:href="CE3B7A451A04B0DE.png" transform="matrix(0.5682 0 0 0.5682 249.7659 281.1806)">			</image>		</g>		<path class="st3" d="M590.6,447.4v103h-22.3v-99.8c0-33.7-27.4-61.1-61.1-61.1S446,416.8,446,450.6v99.8h-22.3v-103   c0-46.1,37.3-83.4,83.4-83.4C553.2,364,590.6,401.3,590.6,447.4C590.6,447.4,590.6,447.4,590.6,447.4z"></path>		<path class="st3" d="M408.8,548.8h203.9c7.5,0,13.5,6,13.5,13.5v184.3c0,7.5-6,13.5-13.5,13.5H408.8c-7.5,0-13.5-6-13.5-13.5   V562.3C395.3,554.9,401.3,548.8,408.8,548.8z"></path>		<path class="st4" d="M580.7,447.4v103h-22.3v-99.8c0-33.7-27.4-61.1-61.1-61.1s-61.1,27.4-61.1,61.1v99.8h-22.3v-103   c-0.4-46.1,36.7-83.7,82.7-84.1c46.1-0.4,83.7,36.7,84.1,82.7C580.7,446.5,580.7,447,580.7,447.4z"></path>		<path class="st5" d="M569.8,447.4v103h-22.3v-99.8c0-33.7-27.4-61.1-61.1-61.1s-61.1,27.4-61.1,61.1v99.8H403v-103   c-0.4-46.1,36.7-83.7,82.7-84.1c46.1-0.4,83.7,36.7,84.1,82.7C569.8,446.5,569.8,447,569.8,447.4z"></path>		<path class="st4" d="M398.9,548.8h203.9c7.5,0,13.5,6,13.5,13.5v184.3c0,7.5-6,13.5-13.5,13.5H398.9c-7.5,0-13.5-6-13.5-13.5   V562.3C385.4,554.9,391.4,548.8,398.9,548.8z"></path>		<path class="st6" d="M379.3,549.3h203.9c7.5,0,13.5,6,13.5,13.5v184.3c0,7.5-6,13.5-13.5,13.5H379.3c-7.5,0-13.5-6-13.5-13.5   V562.8C365.8,555.3,371.9,549.3,379.3,549.3z"></path>		<path class="st1" d="M549.5,582.6c-0.2-1.8-1.4-3.3-3.1-3.9l-0.3-0.1c-0.6-0.2-1.3-0.3-1.9-0.2c-39.4,2.5-56.2-5.2-63-10.7   l-0.4-0.3c-1-0.9-2.5-0.9-3.5,0c-0.1,0.1-0.3,0.2-0.4,0.4c-7.1,5.7-24.8,13.7-67.5,10.4c0,0-22.9,118.9,67.5,163   c0.7,0.4,1.5,0.7,2.2,1c0.7-0.3,1.5-0.7,2.2-1C561.1,702.1,552.6,604.8,549.5,582.6z M483.8,643.1v46.8h-10.5v-46.8   c-7.1-2.9-10.5-11-7.6-18c2.9-7.1,11-10.5,18-7.6c7.1,2.9,10.5,11,7.6,18C490,639,487.2,641.7,483.8,643.1L483.8,643.1z"></path>		<path class="st7" d="M546.4,578.6c-40.5,11.6-67.3-8.2-67.3-8.2c-40.7,23.9-69.7,7.5-69.7,7.5c42.7,3.4,60.4-4.7,67.5-10.4   c0.2-0.1,0.3-0.2,0.4-0.4c1-0.9,2.5-0.9,3.5,0l0.4,0.3c6.8,5.5,23.6,13.2,63,10.7c0.6,0,1.3,0,1.9,0.2L546.4,578.6z"></path>		<path class="st7" d="M569.8,447.4v7.4c0-46.1-37.4-83.4-83.4-83.4s-83.4,37.4-83.4,83.4v-7.4c0-46.1,37.4-83.4,83.4-83.4   S569.8,401.4,569.8,447.4z"></path>		<path class="st3" d="M600.8,759.4l-221.7,0.8c-0.1,0-0.3,0-0.4-0.1l-6-4.6c-0.3-0.2-0.3-0.5-0.1-0.8c0.1-0.1,0.3-0.2,0.5-0.2   h231.5c0.7,0,1.3,0.6,1.3,1.2c0,0.4-0.2,0.9-0.6,1.1l-4.2,2.5C601,759.4,600.9,759.4,600.8,759.4z"></path>		<path class="st3" d="M434.3,548.9h-30.5c-1-2.5,0,0.1,0,0l-0.7-2.3c-0.1-0.3,0-0.7,0.1-1H436c0.2,0,0.2,1.7,0.1,2.3l-0.1,1   C436.4,547.3,434.3,548.9,434.3,548.9z"></path>		<path class="st3" d="M578.7,548.9h-30.6c-1-2.5,0,0.1,0,0l-0.7-2.3c-0.1-0.3,0-0.7,0.1-1h33c0.2,0,0.2,1.7,0.1,2.3l-0.1,1   C580.8,547.3,578.7,548.9,578.7,548.9z"></path>		<g class="st8">			<path class="st9" d="M366.9,737.3L366.9,737.3c0-0.1,0-0.2,0-0.4V566.7c0-8.7,7.1-15.8,15.9-15.7l197.3-0.4    c0.3,0,0.5,0.1,0.7,0.2l3.5,1.6c0.9,0.4,1.3,1.4,0.9,2.3c-0.3,0.6-0.9,1-1.5,1l-200.9,4.4c-3.7,0-6.7,3-6.7,6.7L370.3,737    c0,1-0.8,1.7-1.8,1.7C367.7,738.6,367.1,738.1,366.9,737.3z"></path>		</g>	</g></g></svg>