<svg xmlns="http://www.w3.org/2000/svg" xmlns:xlink="http://www.w3.org/1999/xlink" id="Layer_1" x="0px" y="0px" viewBox="0 0 1024 1024" style="enable-background:new 0 0 1024 1024;" xml:space="preserve"><style type="text/css">	.st0{fill:#0062FF;stroke:#24313E;stroke-width:2;stroke-miterlimit:10;}	.st1{fill:#9CAAB8;stroke:#24313E;stroke-width:2;stroke-miterlimit:10;}	.st2{opacity:0.22;fill:#EBF0F5;enable-background:new    ;}	.st3{fill:#EBF0F5;stroke:#24313E;stroke-width:2;stroke-miterlimit:10;}	.st4{opacity:0.6;fill:#455666;enable-background:new    ;}	.st5{fill:#24313E;stroke:#031439;stroke-width:2;stroke-miterlimit:10;}	.st6{opacity:0.36;fill:#24313E;enable-background:new    ;}	.st7{opacity:0.36;fill:#455666;enable-background:new    ;}	.st8{opacity:0.4;fill:#EBF0F5;enable-background:new    ;}	.st9{fill:#455666;}	.st10{opacity:0.21;fill:#455666;enable-background:new    ;}	.st11{opacity:0.59;fill:#EBF0F5;enable-background:new    ;}</style><g>	<g id="Layer_1_1_">		<path class="st0" d="M619.6,280.6l3.7,3.1c2.7,2.2,3.1,6.2,0.9,8.8l-80,97c-2.2,2.7-6.2,3.1-8.8,0.9l-3.7-3.1   c-2.7-2.2-3.1-6.2-0.9-8.8l80-97C613,278.8,616.9,278.4,619.6,280.6z"></path>		<path class="st0" d="M420.5,242l4.5-1.9c3.2-1.3,6.9,0.2,8.2,3.4l35.7,85.3c1.3,3.2-0.2,6.9-3.4,8.2l-4.5,1.9   c-3.2,1.3-6.9-0.2-8.2-3.4l-35.7-85.3C415.8,247.1,417.3,243.4,420.5,242z"></path>		<path class="st0" d="M550.7,228.3l4.5,1.8c3.2,1.3,4.7,5,3.4,8.2l-33.1,80.4c-1.3,3.2-5,4.7-8.2,3.4l-4.5-1.8   c-3.2-1.3-4.7-5-3.4-8.2l33.1-80.4C543.8,228.6,547.5,227,550.7,228.3z"></path>		<path class="st0" d="M349.4,294.5l3.5-3.3c2.5-2.4,6.5-2.2,8.9,0.3l85.9,91.8c2.4,2.5,2.2,6.5-0.3,8.9l-3.5,3.3   c-2.5,2.4-6.5,2.2-8.9-0.3l-85.9-91.8C346.7,300.8,346.8,296.9,349.4,294.5z"></path>		<path class="st1" d="M656.2,721.9L656.2,721.9c-2.7-1.9-5-4.2-7-6.8C624,690.6,539,608.8,519.6,599.4c-22.8-11-33.4,7.4-33.4,7.4   c-36.1,45.5-66.7,28.3-69.9,22.8c-3.1-5.5,3.1-27.5,12.6-34.5c4.9-3.7,6.6-10,7.1-15.4c0.9-9.4,5-18.1,11.7-24.8   c1.3-1.4,2.8-2.8,4.5-4.2l-106.1-12.6c0,0-9.1,92.8-49.1,151.1l-1.9,2.7c0,0,19.8,4.7,44.6,19.9l3.8,2.3l17.7,10.8   c3.3,2,6.6,4,10,6l27,16.2l7.8,4.6l31.1,18.2c3.5,2,6.8,3.9,10.2,5.8l29.4,16l3.1,1.6c9.8,5,15.7,7.1,19.8,8.1   c16.6,3.8,20.4,3.9,27.5,4.7c2.6,0.3,15.8-3.4,17.3-8.5c0.7-2.3,0.8-4.1-0.1-4.9l-45.5-35.3l0,0h0l0.1,0.1   c19.4,12.8,58.9,45.5,65.7,43c2.9-1,5.7-2.4,8.2-4.1l0,0c16.7-11.6-0.8-29.7-0.8-29.7l-78.5-66.3l94.7,78.2   c4.9,4.2,11.4,6.1,17.8,5.5c5.8-0.6,11.2-3.6,14.7-8.3c10.8-13.9,7.1-19.9,0-26.8c-4-3.9-31.2-27.1-54.6-47.4   c7.1,6.2,14.8,12.7,22.6,19.1l0.4,0.3c9.7,8,19.5,15.8,28.4,22.2l0.7,0.5c10.3,7.5,19.3,13.1,25.1,15l0.1,0c2,0.6,3.5,0.8,4.7,0.6   c2.3-0.5,4.4-1.4,6.4-2.5C667.2,749.9,671.8,732.7,656.2,721.9z M542.6,681l1.1,1C543.3,681.6,542.9,681.3,542.6,681z M544.9,683   c0.4,0.3,0.8,0.7,1.3,1.1C545.7,683.7,545.3,683.4,544.9,683z M546.2,684.2l10.6,9.2C553.1,690.2,549.2,686.8,546.2,684.2z    M556.8,693.4c1.1,1,2.2,1.9,3.2,2.8L556.8,693.4z"></path>		<path class="st2" d="M346.1,542.5c0,0,13-0.2,33.4,6.9s39.6-1.2,53.9,2.2c14.4,3.3,19.1,3.3,19.1,3.3s-2.7,11.8-11.9,12.6   s-29.4,0-29.4,0s-19.9-2.4-33.2-6.3s-27.5-3.9-29-3.1c-1.6,0.8-8.8-2.9-8.8-2.9L346.1,542.5z"></path>		<path class="st3" d="M719.8,680.3l-21.2,14.1l-33.5,21.7l-8.9,5.8l0,0c-0.3-0.2-2.8-2.7-7-6.8C624,690.6,539,608.8,519.6,599.4   c-22.8-11-33.4,7.4-33.4,7.4c-29,36.5-54.4,32.6-64.9,26.8c-2.6-1.4-4.3-3-4.9-4.1c-3.1-5.5,3.1-27.5,12.6-34.5   c4.9-3.7,6.6-10,7.1-15.4c0.9-9.4,5.1-18.1,11.7-24.8c1.3-1.4,2.8-2.7,4.5-4.2c9.7-8.4,24.5-17.7,46.6-24   c50.3-14.2,93.4,18.9,93.4,18.9l49.5-3.1l28.3,49.9l0.1,0.1l0,0l0,0L719.8,680.3z"></path>		<path class="st4" d="M478.9,790.8L478.9,790.8c0.2,0.6,0,1.2-0.6,1.5c-0.3,0.1-0.7,0.1-1,0l-0.6-0.3l-29.4-16   c-3.3-1.9-6.7-3.8-10.2-5.8L406,751.9l-7.8-4.6l-27-16.2c-3.4-2-6.7-4.1-10-6l-16.2-9.9c-0.5-0.3-0.7-1-0.4-1.5   c0.1-0.1,0.2-0.3,0.4-0.4c6.7-4.1,13.3-7.8,16.4-9.8c5.6-3.7,18.2-3.9,24.3-6.5c0.6-0.2,1.2,0,1.5,0.6c0.1,0.3,0.1,0.6,0,0.9   c-3.4,7.8-10.8,24.7-6.9,28.6c11,11,35.6-10.7,37-12.4c0.8-1,3.7-2.6,6.1-3.9c0.5-0.3,1.2-0.1,1.5,0.4c0.2,0.3,0.2,0.8,0,1.1   c-4.3,7.6-11.4,19.9-7.7,29.7c3.9,10.5,31.9-5.3,41.7-12.9c0.5-0.4,1.2-0.3,1.6,0.2c0.2,0.3,0.3,0.7,0.2,1c-3,8.4-7.5,22.6-5,31.2   s28-8,39.5-17.8c0.5-0.4,1.2-0.4,1.6,0.1c0.3,0.4,0.4,0.9,0.1,1.3C489.7,758,475.5,783.5,478.9,790.8z"></path>		<path class="st3" d="M470,724l-26.2,32.9l-6.7,9.1c-4.8,6.5-13.9,7.9-20.4,3.1c0,0,0,0,0,0l-3.1-2.3c-6.5-4.8-7.9-13.9-3.1-20.4   c0,0,0,0,0,0l4-5.4l33.6-33.1c3.9-5.4,11.5-6.5,16.8-2.6l2.6,1.9C472.8,711.1,474,718.6,470,724C470,724,470,724,470,724z"></path>		<path class="st3" d="M433.9,706.7L410,738.1l-6.6,9c-4.8,6.5-13.9,7.9-20.4,3.1c0,0,0,0,0,0l-3.1-2.3c-6.5-4.8-7.9-13.9-3.1-20.4   c0,0,0,0,0,0l4-5.4l31.3-31.5c3.9-5.4,11.5-6.5,16.8-2.6c0,0,0,0,0,0l2.6,1.9C436.7,693.8,437.8,701.3,433.9,706.7z"></path>		<path class="st3" d="M392.3,696.5l-16,20.4l-6.7,9.1c-4.8,6.5-13.9,7.9-20.4,3.1l-3.1-2.3c-6.5-4.8-7.9-13.9-3.1-20.4c0,0,0,0,0,0   l4-5.4l23.4-20.5c3.9-5.4,11.5-6.5,16.8-2.6l2.6,1.9C395.1,683.6,396.2,691.1,392.3,696.5L392.3,696.5z"></path>		<path class="st5" d="M346.1,538.2c0,0-1,10.4-3.9,26.4c-4.3,24-12.7,60.5-27.9,93.7c-1,2.2-2,4.3-3.1,6.5   c-4.2,8.5-8.9,16.7-14.2,24.5l-1.9,2.7l-10.2,15.7l-61.2-21.2L246,625l35.1-96.7l6.5-17.9L346.1,538.2z"></path>		<path class="st3" d="M506.9,737.3l-30.2,38.4l-6.7,9.1c-4.8,6.5-13.9,7.9-20.4,3.1c0,0,0,0,0,0l-3.1-2.3   c-6.5-4.8-7.9-13.9-3.1-20.4c0,0,0,0,0,0l4-5.4l37.6-38.6c3.9-5.4,11.5-6.5,16.8-2.6c0,0,0,0,0,0l2.6,1.9   C509.7,724.4,510.9,731.9,506.9,737.3C506.9,737.3,506.9,737.3,506.9,737.3z"></path>		<path class="st4" d="M654.8,757c-2,1.1-4.2,2-6.4,2.5c-1.2,0.3-2.8,0.1-4.7-0.6l-0.1,0c-6.5-2.4-15.3-7.9-25.1-15l-0.7-0.5   c-9.1-6.5-18.9-14.4-28.4-22.2l-0.4-0.3c-23.8-19.7-45-39.6-45.6-40.2l83.1,62.8c7.5,5.7,15.9,9.9,24.9,12.5L654.8,757z"></path>		<path class="st4" d="M614.2,781.9c-2,1.1-5.9,1.4-8.2,2c-1.2,0.3-3.1,1-5.1,0.4c0,0-7.3-2.2-8.6-3.1c-5.5-4.2-10.4-8.2-20.1-15.2   c-0.2-0.2-0.5-0.4-0.7-0.5c-9.1-6.5-18.9-14.4-28.4-22.2l-0.4-0.3c-23.8-19.7-45-39.6-45.6-40.2l83.2,62.8   c7.5,5.7,19.8,12.2,28.8,14.8L614.2,781.9z"></path>		<path class="st4" d="M544.3,792.9c0.9,0.8,0.7,2.6,0.1,4.9c-17.5-15.4-44.3-39.1-45.5-40.2L544.3,792.9z"></path>		<path class="st4" d="M573,796.6c-2.6,1.7-5.3,3.1-8.2,4.1c-6.9,2.5-46.3-30.2-65.7-43c3.3,2,45,28.4,55.5,34.4   C565.3,798.3,572.7,796.7,573,796.6z"></path>		<path class="st6" d="M707.9,688.8l-3,1.4L665.1,716l-9,5.8l0,0c0,0,0,0-0.1-0.1c-0.5-0.5-3-2.9-7-6.8   C624,690.6,538.9,608.8,519.6,599.4c-22.8-11-33.4,7.4-33.4,7.4c-29,36.5-53.8,29.3-47.9,27.5c25.9-8.2,25.9-8.6,42.4-33   s40-11,40-11s60.4,43.9,102.3,80.2c33.3,16.7,77.7,14.6,77.7,14.6L707.9,688.8z"></path>		<path class="st7" d="M665.1,716C665.1,716,665.1,716.1,665.1,716l-8.9,5.8l0,0L665.1,716z"></path>		<path class="st8" d="M641.7,542.5l28.3,49.9c-7.1-11.1-16.1-20.9-26.7-28.7c-17.3-12.6-51-18.1-51-18.1L641.7,542.5z"></path>		<path class="st9" d="M670.1,592.6L670.1,592.6c0-0.1-0.1-0.1-0.1-0.2L670.1,592.6z"></path>		<path class="st10" d="M386,703.6l-9.8,13.3l-6.7,9.1c-2.5,3.4-6.3,5.6-10.5,5.9c-3.4-0.5-6.3-1-7.1-3.3   c-0.8-2.3,3.1-13.3,10.2-17.3c7.1-3.9,7.1,0,14.4-2.9c7.4-2.9,9.3-12.6,9.3-12.6c0.7-0.6,1.5-1.1,2.3-1.6   C388.8,697.5,388,700.9,386,703.6z"></path>		<path class="st10" d="M428.3,709.6l-15.1,21.7l-9.5,13.7c-3.7,5.3-8.2,8.4-12.4,8.9c-3.3-0.8-6-1.5-6-5c0-3.6,4.8-4.1,13.1-10   c8.3-6,6.5-3.3,15.5-12.8c7-7.4,16.9-28.1,16.9-28.1c0.9-0.9,1.8-1.6,2.8-2.4C433,700.6,431.2,705.4,428.3,709.6z"></path>		<path class="st10" d="M462.5,728l-15.7,21.1l-9.9,13.3c-3.9,5.2-8.5,8.2-12.6,8.7c-3.3-0.8-5.9-1.5-5.9-4.8   c0.1-3.5,4.9-4,13.3-9.7c8.5-5.8,6.6-3.2,15.8-12.5c7.2-7.2,17.6-27.3,17.6-27.3c0.9-0.8,1.8-1.6,2.8-2.3   C467.3,719.3,465.4,724,462.5,728z"></path>		<path class="st10" d="M496.4,742.6l-19.8,30.9l-7.3,7.1c-4,5.6-8.7,8.8-12.9,9.3c-3.2-0.9-5.9-1.6-5.8-5.2   c0.1-3.7,5-4.3,13.6-10.5c8.6-6.2,7.4-4.5,16.8-14.4c7.3-7.7,18.3-29.4,18.3-29.4c0.9-0.9,1.9-1.7,2.9-2.5   C501.5,733.2,499.5,738.3,496.4,742.6z"></path>		<path class="st10" d="M311.2,664.8c-4.2,8.5-8.9,16.7-14.2,24.5l-1.9,2.7l-10.2,15.7l-61.2-21.2L246,625c0,0-16.3,56.6,19.1,63.8   C291.2,694.1,305.5,675.2,311.2,664.8z"></path>		<path class="st2" d="M346.1,538.2c0,0-1,10.4-3.9,26.4c-2.7-5.3-6.3-10.2-10.7-14.3c-24.3-23.5-24.3,0-42.4-17.3   c-2.3-2.2-5.1-3.9-8.1-4.8l6.5-17.9L346.1,538.2z"></path>		<path class="st5" d="M776.7,670.4l-63.6,28.3c-9.1-8.1-17.6-20-25.4-33.6l0,0c-28.2-49.6-46-122.6-46-122.6l46.3-32.2   c8.3,24.2,31,65,51.3,99.3C759.1,643.1,776.7,670.4,776.7,670.4z"></path>		<path class="st6" d="M776.7,670.4l-63.6,28.3c-9.1-8.1-17.6-20-25.4-33.6c0.4,0.6,10.6,14.9,34.4,1.8   c24.3-13.3,17.1-57.3,17.1-57.3C759.1,643.1,776.7,670.4,776.7,670.4z"></path>		<path class="st2" d="M698.2,534.5c-3.9,0.2-20.1,6.7-37.5,10.5c-17.4,3.8-19-0.9-19-0.9l46.3-33.7L698.2,534.5z"></path>		<path class="st11" d="M615.6,279.8c-1,0.5-1.9,1.2-2.6,2.1l-78,94.6c-2.8,3.3-2.3,8.3,1.1,11c0,0,0,0,0,0l1.3,1.1   c1.5,1.2,3.4,1.9,5.3,1.8c-2.8,1.4-6.1,1-8.4-1l-1.3-1c-3.3-2.8-3.8-7.7-1.1-11c0,0,0,0,0,0l78-94.6   C611.2,280.9,613.3,279.9,615.6,279.8z"></path>		<path class="st11" d="M463,338.2l-0.4,0.2c-4,1.7-8.6-0.2-10.3-4.2l-34.5-82.4c-1.7-4,0.2-8.6,4.2-10.3l1.6-0.6   c0.9-0.4,1.8-0.6,2.7-0.6l-1.1,0.5c-4,1.7-5.9,6.3-4.2,10.3l34.5,82.4C456.7,336.4,459.7,338.3,463,338.2z"></path>		<path class="st11" d="M548.9,228.4c-1.7,0.8-3.1,2.3-3.8,4.1l-31.9,77.4c-1.7,4,0.3,8.6,4.3,10.2l1.6,0.6c1,0.4,2.2,0.6,3.3,0.6   c-2,1-4.4,1.1-6.4,0.2l-1.6-0.6c-4-1.6-5.9-6.2-4.3-10.2c0,0,0,0,0,0l31.9-77.4C543.1,230.4,545.8,228.5,548.9,228.4z"></path>		<path class="st11" d="M443.1,395.7c-3.1,1.5-6.8,0.8-9.2-1.7l-83.8-89.5c-3-3.2-2.8-8.1,0.4-11.1c0,0,0,0,0,0l1.3-1.2   c1.4-1.3,3.2-2,5.1-2.1c-0.7,0.3-1.3,0.8-1.9,1.3l-1.3,1.2c-3.2,3-3.3,7.9-0.4,11.1c0,0,0,0,0,0l83.8,89.5   C438.6,394.9,440.8,395.8,443.1,395.7z"></path>	</g></g></svg>