<svg xmlns="http://www.w3.org/2000/svg" viewBox="0 0 1024 1024"><defs><style>.cls-1{isolation:isolate;}.cls-2{fill:#24313e;stroke:#031439;}.cls-2,.cls-3,.cls-4,.cls-5{stroke-miterlimit:10;stroke-width:2px;}.cls-3,.cls-7,.cls-9{fill:#ebf0f5;}.cls-3,.cls-4,.cls-5{stroke:#24313e;}.cls-4{fill:none;}.cls-5{fill:#0062ff;}.cls-6,.cls-9{opacity:0.25;mix-blend-mode:overlay;}.cls-8{fill:#455666;mix-blend-mode:color-burn;}</style></defs><g class="cls-1"><g id="Layer_1" data-name="Layer 1"><path class="cls-2" d="M170.62,379.52l-37.53-15A18.3,18.3,0,0,1,123.17,340,428.43,428.43,0,0,1,832.2,230L775,281.49A352.15,352.15,0,0,0,513.7,165.12c-138.79,0-262.41,79.89-319.63,205A18.31,18.31,0,0,1,170.62,379.52Z"></path><path class="cls-2" d="M728.74,293.1l128,62.14a9.91,9.91,0,0,0,14.2-9.62L860.77,203.69a9.89,9.89,0,0,0-15.42-7.48L727.51,276A9.9,9.9,0,0,0,728.74,293.1Z"></path><path class="cls-2" d="M513.7,945.17a428.19,428.19,0,0,1-325.65-150l58.49-50.07a351.63,351.63,0,0,0,583-73.89,18.33,18.33,0,0,1,23.69-8.82l37.14,16a18.29,18.29,0,0,1,9.28,24.74A428.25,428.25,0,0,1,513.7,945.17Z"></path><path class="cls-2" d="M293.07,734.7,166.68,669.34a9.9,9.9,0,0,0-14.44,9.25l6.57,142.14A9.9,9.9,0,0,0,174,828.61l119.82-76.78A9.9,9.9,0,0,0,293.07,734.7Z"></path><path class="cls-2" d="M304.83,527.93a20.5,20.5,0,0,0,17.45,19.9l33.61,5.06a20.53,20.53,0,0,1,14.5,9.73l47.26,78.54a20.51,20.51,0,0,1,1.74,17.49L415,671h2.12v59.17s46.68,3.25,53-4.55l21.11-26.11a20.55,20.55,0,0,1,15.61-7.62l107.29-1V732l36-.71a20.35,20.35,0,0,0,12.76-2.66L689.48,713a20.53,20.53,0,0,0,8.83-25l-11.76-31a20.56,20.56,0,0,1,1.26-17.23l46.67-84a20.37,20.37,0,0,1,14.12-10.21l33.25-6.28a20.49,20.49,0,0,0,16.71-20.53L798,488.07a20.5,20.5,0,0,0-17.45-19.9l-33.58-5.06a20.39,20.39,0,0,1-14.53-9.73l-47.23-78.54a20.51,20.51,0,0,1-1.73-17.49l11.5-32.1a20.51,20.51,0,0,0-9.32-24.81l-26.89-15.05c-5.21-2.92-44.68-1.55-44.68-1.55v40.78L504.29,325.7a20.6,20.6,0,0,1-16.09-7.32L466,291.94a20.43,20.43,0,0,0-20-6.84H414.56v59.16H410.7l5.54,14.64A20.53,20.53,0,0,1,415,376.14l-46.66,84.05a20.58,20.58,0,0,1-14.13,10.2L321,476.64a20.52,20.52,0,0,0-16.72,20.53ZM551.55,423.54c45.18,0,82.64,36.28,84.27,81.39a84.52,84.52,0,0,1-84.57,87.56c-45.15-.07-82.65-36.27-84.27-81.42A84.49,84.49,0,0,1,551.55,423.54Z"></path><path class="cls-3" d="M266.37,527.93a20.5,20.5,0,0,0,17.45,19.9l33.62,5.06a20.53,20.53,0,0,1,14.49,9.73l47.26,78.54a20.51,20.51,0,0,1,1.74,17.49l-11.5,32.1a20.52,20.52,0,0,0,9.28,24.81l26.88,15.09a20.52,20.52,0,0,0,26-5l21.11-26.11a20.57,20.57,0,0,1,15.61-7.62l91.78-1.59a20.53,20.53,0,0,1,16,7.36l22.18,26.4a20.51,20.51,0,0,0,26.07,4.55L651,713a20.54,20.54,0,0,0,8.84-25L648.1,657.1a20.54,20.54,0,0,1,1.25-17.24l46.67-84a20.39,20.39,0,0,1,14.13-10.21l33.24-6.28a20.48,20.48,0,0,0,16.71-20.53l-.59-30.76a20.49,20.49,0,0,0-17.45-19.9l-33.58-5.06A20.41,20.41,0,0,1,694,453.38l-47.22-78.54A20.51,20.51,0,0,1,645,357.35l11.5-32.1a20.51,20.51,0,0,0-9.32-24.81l-26.88-15.05a20.46,20.46,0,0,0-26,5l-21.12,26.11a20.5,20.5,0,0,1-15.6,7.62l-91.78,1.59a20.62,20.62,0,0,1-16.09-7.32l-22.18-26.44a20.5,20.5,0,0,0-26.07-4.52L374.9,303a20.48,20.48,0,0,0-8.84,25l11.72,30.95a20.49,20.49,0,0,1-1.22,17.24L329.9,460.19a20.58,20.58,0,0,1-14.13,10.2l-33.24,6.25a20.52,20.52,0,0,0-16.72,20.53ZM513.09,423.54c45.19,0,82.64,36.28,84.27,81.39a84.51,84.51,0,0,1-84.57,87.56c-45.15-.07-82.64-36.27-84.27-81.42A84.49,84.49,0,0,1,513.09,423.54Z"></path><path class="cls-4" d="M266.37,527.93a20.5,20.5,0,0,0,17.45,19.9l33.62,5.06a20.53,20.53,0,0,1,14.49,9.73l47.26,78.54a20.51,20.51,0,0,1,1.74,17.49l-11.5,32.1a20.52,20.52,0,0,0,9.28,24.81l26.88,15.09a20.52,20.52,0,0,0,26-5l21.11-26.11a20.57,20.57,0,0,1,15.61-7.62l91.78-1.59a20.53,20.53,0,0,1,16,7.36l22.18,26.4a20.51,20.51,0,0,0,26.07,4.55L651,713a20.54,20.54,0,0,0,8.84-25L648.1,657.1a20.54,20.54,0,0,1,1.25-17.24l46.67-84a20.39,20.39,0,0,1,14.13-10.21l33.24-6.28a20.48,20.48,0,0,0,16.71-20.53l-.59-30.76a20.49,20.49,0,0,0-17.45-19.9l-33.58-5.06A20.41,20.41,0,0,1,694,453.38l-47.22-78.54A20.51,20.51,0,0,1,645,357.35l11.5-32.1a20.51,20.51,0,0,0-9.32-24.81l-26.88-15.05a20.46,20.46,0,0,0-26,5l-21.12,26.11a20.5,20.5,0,0,1-15.6,7.62l-91.78,1.59a20.62,20.62,0,0,1-16.09-7.32l-22.18-26.44a20.5,20.5,0,0,0-26.07-4.52L374.9,303a20.48,20.48,0,0,0-8.84,25l11.72,30.95a20.49,20.49,0,0,1-1.22,17.24L329.9,460.19a20.58,20.58,0,0,1-14.13,10.2l-33.24,6.25a20.52,20.52,0,0,0-16.72,20.53ZM513.09,423.54c45.19,0,82.64,36.28,84.27,81.39a84.51,84.51,0,0,1-84.57,87.56c-45.15-.07-82.64-36.27-84.27-81.42A84.49,84.49,0,0,1,513.09,423.54Z"></path><path class="cls-5" d="M832.21,220.66,775,272.19q-10.65-11.85-22.27-22.56a352.25,352.25,0,0,0-239-93.8c-138.79,0-262.41,79.88-319.64,205a18.29,18.29,0,0,1-23.43,9.42l-37.54-15a18.29,18.29,0,0,1-9.92-24.49A428.43,428.43,0,0,1,817.86,205.48v0l0,0Q825.21,212.87,832.21,220.66Z"></path><path class="cls-5" d="M728.74,283.81l128,62.14a9.91,9.91,0,0,0,14.2-9.62L860.77,194.4a9.9,9.9,0,0,0-15.42-7.49l-117.84,79.8A9.9,9.9,0,0,0,728.74,283.81Z"></path><path class="cls-5" d="M513.7,935.88a428.19,428.19,0,0,1-325.65-150l58.49-50.08a351.62,351.62,0,0,0,583-73.88,18.32,18.32,0,0,1,23.69-8.82l37.14,16a18.29,18.29,0,0,1,9.28,24.74A428.25,428.25,0,0,1,513.7,935.88Z"></path><g class="cls-6"><path class="cls-7" d="M899.62,693.84a4.37,4.37,0,0,1-.22.43,18.22,18.22,0,0,0-9.07-8.45l-37.12-16a18.32,18.32,0,0,0-23.7,8.82,351.64,351.64,0,0,1-583,73.88l-50.06,42.87q-4.29-4.71-8.41-9.53l58.47-50.06a351.64,351.64,0,0,0,583-73.88,18.33,18.33,0,0,1,23.7-8.83l37.12,16A18.29,18.29,0,0,1,899.62,693.84Z"></path></g><path class="cls-5" d="M293.07,725.41,166.68,660.05a9.9,9.9,0,0,0-14.44,9.25l6.57,142.14A9.9,9.9,0,0,0,174,819.32l119.82-76.78A9.9,9.9,0,0,0,293.07,725.41Z"></path><polygon class="cls-8" points="817.88 205.51 723.16 234.39 746.86 253.6 817.88 205.51"></polygon><polygon class="cls-8" points="268.44 759.14 203.41 801.88 221.99 820.46 268.44 759.14"></polygon><path class="cls-9" d="M817.86,205.48v0c-2.3-2.14-185-170.52-449.08-89.29,0,0-177.79,63.63-235.69,239a18.29,18.29,0,0,1-9.92-24.49A428.43,428.43,0,0,1,817.86,205.48Z"></path><g class="cls-6"><path class="cls-7" d="M857.8,345.25,855.33,344a9.7,9.7,0,0,0,3.66-8.4L848.83,193.72a9.74,9.74,0,0,0-3.44-6.8l1-.69a9.91,9.91,0,0,1,15.43,7.49L872,335.64A9.9,9.9,0,0,1,857.8,345.25Z"></path></g><g class="cls-6"><path class="cls-7" d="M294.54,742.72l-2.32,1.47a9.71,9.71,0,0,0-5.25-7.51l-126.3-65.52a9.79,9.79,0,0,0-7.6-.63l0-1.23a9.9,9.9,0,0,1,14.45-9.23l126.3,65.52A9.9,9.9,0,0,1,294.54,742.72Z"></path></g></g></g></svg>