<svg xmlns="http://www.w3.org/2000/svg" viewBox="0 0 1024 1024"><defs><style>.cls-1{isolation:isolate;}.cls-2{fill:#24313e;stroke:#031439;}.cls-2,.cls-3,.cls-4{stroke-miterlimit:10;stroke-width:2px;}.cls-3{fill:#0062ff;}.cls-3,.cls-4{stroke:#24313e;}.cls-4,.cls-7{fill:#ebf0f5;}.cls-5{fill:#455666;}.cls-5,.cls-6{opacity:0.57;mix-blend-mode:multiply;}.cls-6{fill:#606060;}.cls-7{opacity:0.2;mix-blend-mode:overlay;}</style></defs><g class="cls-1"><g id="Layer_1" data-name="Layer 1"><polyline class="cls-2" points="686.86 330.1 875.66 141.3 875.66 246.93 719.93 402.66"></polyline><path class="cls-2" d="M927.42,308.4v-164a11,11,0,0,0-11-11h-164a11,11,0,0,0-7.81,18.85l164,164A11,11,0,0,0,927.42,308.4Z"></path><polygon class="cls-3" points="867.49 133.13 867.49 238.76 711.76 394.48 683.31 332.06 678.69 321.92 867.49 133.13"></polygon><path class="cls-2" d="M822.31,467.46a28.1,28.1,0,0,0-23.92-27.27l-46-6.93a28,28,0,0,1-19.92-13.33l-9.34-15.53-47.52-79-7.85-13.05a28.09,28.09,0,0,1-2.38-24l15.76-44a28.11,28.11,0,0,0-12.77-34l-36.84-20.62c-7.14-4-61.65-2.12-61.65-2.12V243l-150.64,1.47a28.18,28.18,0,0,1-22.07-10.09L366.72,198a28,28,0,0,0-27.52-9.43H296.1v81.73h-5.31l7.61,20.08A28.23,28.23,0,0,1,296.74,314l-64,115.27a28.24,28.24,0,0,1-19.38,14l-45.59,8.56A28.15,28.15,0,0,0,144.83,480l.76,42.2a28.13,28.13,0,0,0,23.94,27.29l46.11,6.95a28.1,28.1,0,0,1,19.87,13.33l64.82,107.73a28.06,28.06,0,0,1,2.39,24l-6.09,17h3.55v81s63.92,4.47,72.52-6.23l28.91-35.73A28.15,28.15,0,0,1,423,747H569.87v54.72l49.8-1a27.93,27.93,0,0,0,17.48-3.65l36.49-21.33a28.13,28.13,0,0,0,12.1-34.25l-16.11-42.42a28.18,28.18,0,0,1,1.73-23.62L735.3,560.34a28,28,0,0,1,19.37-14l45.54-8.61a28.06,28.06,0,0,0,22.91-28.12ZM470.5,667.28c-95.84-.15-175.41-77-178.87-172.82C288,392.83,369.4,308.53,471.12,308.7c95.91.07,175.41,77,178.86,172.74A179.38,179.38,0,0,1,470.5,667.28Z"></path><path class="cls-4" d="M96.58,522.3a28.08,28.08,0,0,0,23.92,27.26l46.05,6.94a28.13,28.13,0,0,1,19.87,13.33l64.76,107.62a28.13,28.13,0,0,1,2.38,24l-15.76,44a28.13,28.13,0,0,0,12.72,34l36.84,20.68a28.11,28.11,0,0,0,35.62-6.9l28.93-35.77A28.19,28.19,0,0,1,373.29,747l125.77-2.18a28.1,28.1,0,0,1,22,10.09l30.4,36.18a28.11,28.11,0,0,0,35.72,6.23L623.65,776a28.15,28.15,0,0,0,12.11-34.26l-16.11-42.41a28.15,28.15,0,0,1,1.72-23.61l64-115.12a27.9,27.9,0,0,1,19.36-14L750.23,538a28.07,28.07,0,0,0,22.9-28.13l-.81-42.15a28.08,28.08,0,0,0-23.92-27.26l-46-6.95a28,28,0,0,1-19.91-13.32L617.77,312.52a28.14,28.14,0,0,1-2.38-24l15.76-44a28.08,28.08,0,0,0-12.77-34L581.54,190A28,28,0,0,0,546,196.79L517,232.57A28.14,28.14,0,0,1,495.66,243L369.9,245.18a28.19,28.19,0,0,1-22-10l-30.4-36.23a28.07,28.07,0,0,0-35.72-6.18l-36.44,21.33a28.07,28.07,0,0,0-12.1,34.21l16.06,42.41a28.13,28.13,0,0,1-1.67,23.61l-64,115.17a28.19,28.19,0,0,1-19.35,14L118.72,452a28.11,28.11,0,0,0-22.9,28.12ZM440.26,288.44c108.93.09,199.22,87.44,203.14,196.18,4.1,115.52-88.33,211.16-203.85,211.07-108.83-.17-199.21-87.44-203.13-196.27C232.31,384,324.75,288.26,440.26,288.44Z"></path><path class="cls-2" d="M639.24,478.74l-16,16-177,177a10.78,10.78,0,0,1-15.29,0l-7.28-7.37-57.49-58.19a9.55,9.55,0,0,0-.9-.8,10.77,10.77,0,0,0-14.4.74L112.61,844.35a10.79,10.79,0,0,1-15.17.08L66.2,813.85a8.8,8.8,0,0,1-1-1.18,10.78,10.78,0,0,1,1-14.16L352.49,512.15a10.79,10.79,0,0,1,15.25,0l59.43,59.43a10.79,10.79,0,0,0,15.25,0L608.23,405.77a10.73,10.73,0,0,1,10.25-2.84,10.57,10.57,0,0,1,7.21,6,201.8,201.8,0,0,1,16.65,61A10.87,10.87,0,0,1,639.24,478.74Z"></path><path class="cls-3" d="M641.38,458.89c.36,3.27-8,9.36-10.31,11.68L617.68,484,438,663.63a10.78,10.78,0,0,1-14.4.75,11.34,11.34,0,0,1-.9-.81l-57.49-58.18L358,598a10.78,10.78,0,0,0-15.3-.06L104.44,836.18a10.81,10.81,0,0,1-15.18.08L65.17,812.67l-6.55-6.42-.59-.57A10.79,10.79,0,0,1,58,790.34L344.31,504a10.8,10.8,0,0,1,15.26,0L419,563.41a10.79,10.79,0,0,0,15.25,0L600.06,397.6c.76-.76,10.47-9.06,11.36-9.53,4.83-2.66,6.57,3.71,8.86,9.31.22.53.44,1.07.67,1.58C621.28,399.68,639.12,438.22,641.38,458.89Z"></path><path class="cls-5" d="M639.24,478.74l-16,16c-1.71-3-3.56-6.53-5.54-10.8q-2.32-5-4.9-11.44c-9.59-24-12.06-44.27-11.83-59.47a111.45,111.45,0,0,1,1.59-17.3c5.29-2.92,11-12.87,13.64-7,.33.72,3.78,12.88,4.09,13.62,3,.73,4,3.35,5.42,6.54a201.8,201.8,0,0,1,16.65,61A10.87,10.87,0,0,1,639.24,478.74Z"></path><path class="cls-5" d="M724.66,402.9a12.7,12.7,0,0,0-1.54,1.5l-47.52-79L687,309c2.2,2.62,4.66,5.81,7.34,9.68q3.18,4.53,6.84,10.4c13.62,21.95,19.58,41.49,22,56.49A114,114,0,0,1,724.66,402.9Z"></path><path class="cls-3" d="M908.2,125.19a11,11,0,0,1,11,11v164a11,11,0,0,1-18.85,7.8L753.66,161.29,736.4,144a11,11,0,0,1,7.8-18.84Z"></path><polygon class="cls-6" points="794.62 203.5 845.98 276.37 858.76 266.4 795.1 204.03 794.62 203.5"></polygon><path class="cls-7" d="M918.56,135.55V164s0-35.43-16.34-32.71-152.55-4.08-158-1.36,39.29,35.43,8.76,30.66l-17.26-17.25a11,11,0,0,1,7.8-18.86h164A11,11,0,0,1,918.56,135.55Z"></path><path class="cls-7" d="M615.45,402.41,437.3,587.75a10.48,10.48,0,0,1-15.27-.16l-62.14-67.4a10.49,10.49,0,0,0-15.13-.31L58.62,806.25l-.59-.57A10.79,10.79,0,0,1,58,790.34L344.31,504a10.8,10.8,0,0,1,15.26,0L419,563.41a10.79,10.79,0,0,0,15.25,0L600.06,397.6c.76-.76,10.47-9.06,11.36-9.53,2.41-1.33,4.06-.4,5.38,1.56A10.27,10.27,0,0,1,615.45,402.41Z"></path><path class="cls-7" d="M804.19,203.57,802,208.12a2.65,2.65,0,0,1-.49.71L685.81,329.21a2.67,2.67,0,0,1-4.37-.75l-2.21-4.84a2.67,2.67,0,0,1,.54-3l120.1-120.09a2.67,2.67,0,0,1,2.7-.67h0A2.69,2.69,0,0,1,804.19,203.57Z"></path></g></g></svg>