<svg xmlns="http://www.w3.org/2000/svg" width="419" height="423" viewBox="0 0 419 423"><defs><style>.a,.c,.d,.e{fill:#6b7e8f;}.a{font-size:16px;font-family:Rubik-Bold, Rubik;font-weight:700;}.b{fill:#01c7d4;}.c,.e,.g{font-size:14px;}.c{font-family:Rubik-Regular, Rubik;}.d{opacity:0.05;}.e,.g{font-family:Consolas;}.f{fill:#ff4451;}.g{fill:#fff;}</style></defs><g transform="translate(-1037 -1588)"><text class="a" transform="translate(1063 1606)"><tspan x="0" y="0">OpenAPI/Swagger</tspan></text><text class="a" transform="translate(1063 1767)"><tspan x="0" y="0">RAML</tspan></text><text class="a" transform="translate(1316 1681.101)"><tspan x="0" y="0">WSDL - W3C</tspan></text><text class="a" transform="translate(1063 1873)"><tspan x="0" y="0">Postman Collection</tspan></text><text class="a" transform="translate(1063 1979)"><tspan x="0" y="0">Insomnia Export Format</tspan></text><text class="a" transform="translate(1313 1603)"><tspan x="0" y="0">API Blueprint</tspan></text><circle class="b" cx="8.586" cy="8.586" r="8.586" transform="translate(1037 1592)"></circle><circle class="b" cx="8.586" cy="8.586" r="8.586" transform="translate(1037 1753)"></circle><circle class="b" cx="8.586" cy="8.586" r="8.586" transform="translate(1290 1667.101)"></circle><circle class="b" cx="8.586" cy="8.586" r="8.586" transform="translate(1037 1859)"></circle><circle class="b" cx="8.586" cy="8.586" r="8.586" transform="translate(1037 1965)"></circle><circle class="b" cx="8.586" cy="8.586" r="8.586" transform="translate(1287 1589)"></circle><text class="c" transform="translate(1100 1794.101)"><tspan x="0" y="0">(YAML),</tspan></text><text class="c" transform="translate(1100 1822)"><tspan x="0" y="0">(YAML),</tspan></text><text class="c" transform="translate(1353 1708.201)"><tspan x="0" y="0">(XML)</tspan></text><text class="c" transform="translate(1100 1900.101)"><tspan x="0" y="0">(JSON),</tspan></text><text class="c" transform="translate(1342 1630.101)"><tspan x="0" y="0">(Markdown)</tspan></text><text class="c" transform="translate(1085 2006.101)"><tspan x="0" y="0">(JSON/YAML)</tspan></text><g transform="translate(416 1197)"><rect class="d" width="31" height="21" rx="3" transform="translate(647 581)"></rect><text class="e" transform="translate(651 596)"><tspan x="0" y="0">1.0</tspan></text></g><g transform="translate(669 1111.101)"><rect class="d" width="31" height="21" rx="3" transform="translate(647 581)"></rect><text class="e" transform="translate(651 596)"><tspan x="0" y="0">1.1</tspan></text></g><g transform="translate(416 1303)"><rect class="d" width="31" height="21" rx="3" transform="translate(647 581)"></rect><text class="e" transform="translate(651 596)"><tspan x="0" y="0">2.0</tspan></text></g><g transform="translate(666 1033)"><rect class="d" width="23" height="21" rx="3" transform="translate(647 581)"></rect><text class="e" transform="translate(651 596)"><tspan x="0" y="0">1A</tspan></text></g><g transform="translate(416 1409)"><rect class="d" width="16" height="21" rx="3" transform="translate(647 581)"></rect><text class="e" transform="translate(651 596)"><tspan x="0" y="0">3</tspan></text></g><g transform="translate(0 192)"><text class="c" transform="translate(1100 1734.201)"><tspan x="0" y="0">(JSON)</tspan></text><g transform="translate(414 1138)"><rect class="d" width="31" height="21" rx="3" transform="translate(647 581)"></rect><text class="e" transform="translate(651 596)"><tspan x="0" y="0">1.0</tspan></text></g></g><g transform="translate(417 1224)"><rect class="d" width="31" height="21" rx="3" transform="translate(647 581)"></rect><text class="e" transform="translate(651 596)"><tspan x="0" y="0">0.8</tspan></text></g><text class="a" transform="translate(1316 1759.201)"><tspan x="0" y="0">WADL - W3C</tspan></text><text class="a" transform="translate(1316 1837.302)"><tspan x="0" y="0">GraphQL Schema</tspan></text><text class="a" transform="translate(1316 1915.402)"><tspan x="0" y="0">APIMATIC Format</tspan></text><circle class="b" cx="8.586" cy="8.586" r="8.586" transform="translate(1290 1745.201)"></circle><circle class="b" cx="8.586" cy="8.586" r="8.586" transform="translate(1290 1823.302)"></circle><circle class="b" cx="8.586" cy="8.586" r="8.586" transform="translate(1290 1901.402)"></circle><text class="c" transform="translate(1361 1786.302)"><tspan x="0" y="0">(XML)</tspan></text><text class="c" transform="translate(1316 1864.402)"><tspan x="0" y="0">(GraphQL)</tspan></text><text class="c" transform="translate(1316 1942.503)"><tspan x="0" y="0">(JSON)</tspan></text><g transform="translate(669 1189.201)"><rect class="d" width="39" height="21" rx="3" transform="translate(647 581)"></rect><text class="e" transform="translate(651 596)"><tspan x="0" y="0">2009</tspan></text></g><text class="c" transform="translate(1061 1622)"><tspan x="0" y="13" xml:space="preserve">          (JSON/YAML),</tspan></text><text class="c" transform="translate(1061 1649)"><tspan x="0" y="13" xml:space="preserve">          (JSON/YAML),</tspan></text><text class="c" transform="translate(1061 1676)"><tspan x="0" y="13" xml:space="preserve">          (JSON/YAML),</tspan></text><text class="c" transform="translate(1061 1703)"><tspan x="0" y="13" xml:space="preserve">          (JSON)</tspan></text><g transform="translate(414 1039)"><rect class="d" width="31" height="21" rx="3" transform="translate(647 581)"></rect><text class="e" transform="translate(651 596)"><tspan x="0" y="0">3.1</tspan></text></g><g transform="translate(546.608 1039)"><path class="f" d="M3.065,0H28.611a3.033,3.033,0,0,1,3.065,3V18a3.033,3.033,0,0,1-3.065,3H3.065A3.033,3.033,0,0,1,0,18V3A3.033,3.033,0,0,1,3.065,0Z" transform="translate(647 581)"></path><text class="g" transform="translate(651.392 596)"><tspan x="0" y="0">New</tspan></text></g><g transform="translate(414 1066)"><rect class="d" width="31" height="21" rx="3" transform="translate(647 581)"></rect><text class="e" transform="translate(651 596)"><tspan x="0" y="0">3.0</tspan></text></g><g transform="translate(414 1093)"><rect class="d" width="31" height="21" rx="3" transform="translate(647 581)"></rect><text class="e" transform="translate(651 596)"><tspan x="0" y="0">2.0</tspan></text></g><g transform="translate(414 1120)"><rect class="d" width="31" height="21" rx="3" transform="translate(647 581)"></rect><text class="e" transform="translate(651 596)"><tspan x="0" y="0">1.x</tspan></text></g></g></svg>