<svg xmlns="http://www.w3.org/2000/svg" xmlns:xlink="http://www.w3.org/1999/xlink" id="Layer_1" x="0px" y="0px" viewBox="0 0 1024 1024" style="enable-background:new 0 0 1024 1024;" xml:space="preserve"><style type="text/css">	.st0{fill:#24313E;stroke:#031439;stroke-width:2;stroke-miterlimit:10;}	.st1{fill:#0062FF;stroke:#24313E;stroke-width:2;stroke-miterlimit:10;}	.st2{fill:#EBF0F5;stroke:#24313E;stroke-width:2;stroke-miterlimit:10;}	.st3{opacity:0.57;fill:#455666;enable-background:new    ;}	.st4{opacity:0.57;fill:#606060;enable-background:new    ;}	.st5{opacity:0.2;fill:#EBF0F5;enable-background:new    ;}</style><g>	<g id="Layer_1_1_">		<polyline class="st0" points="603.5,396.5 712,288 712,348.7 622.5,438.1   "></polyline>		<path class="st0" d="M741.7,384v-94.2c0-3.5-2.8-6.3-6.3-6.3h-94.2c-3.5,0-6.3,2.8-6.4,6.3c0,1.7,0.7,3.4,1.9,4.6l94.2,94.2   c2.5,2.5,6.5,2.5,8.9,0C741.1,387.3,741.7,385.7,741.7,384z"></path>		<polygon class="st1" points="707.3,283.3 707.3,344 617.8,433.4 601.5,397.6 598.9,391.8   "></polygon>		<path class="st0" d="M681.3,475.3c-0.1-7.9-6-14.5-13.7-15.7l-26.4-4c-4.8-0.7-9-3.5-11.4-7.7l-5.4-8.9l-27.3-45.4l-4.5-7.5   c-2.5-4.2-3-9.2-1.4-13.8l9.1-25.3c2.7-7.4-0.4-15.7-7.3-19.5l-21.2-11.8c-4.1-2.3-35.4-1.2-35.4-1.2v31.8l-86.5,0.8   c-4.9,0.1-9.5-2-12.7-5.8l-17.5-20.9c-3.8-4.6-9.9-6.7-15.8-5.4h-24.8v46.9h-3l4.4,11.5c1.7,4.4,1.3,9.4-1,13.6l-36.8,66.2   c-2.3,4.2-6.4,7.1-11.1,8l-26.2,4.9c-7.8,1.5-13.3,8.3-13.2,16.2l0.4,24.2c0.1,7.9,6,14.5,13.8,15.7l26.5,4   c4.8,0.7,8.9,3.5,11.4,7.7l37.2,61.9c2.5,4.2,3,9.2,1.4,13.8l-3.5,9.8h2v46.5c0,0,36.7,2.6,41.7-3.6l16.6-20.5   c3-3.7,7.5-6,12.3-6.1h84.4v31.4l28.6-0.6c3.5,0.4,7-0.3,10-2.1l21-12.3c6.8-4,9.7-12.3,6.9-19.7l-9.3-24.4   c-1.7-4.4-1.3-9.4,1-13.6l36.7-66.1c2.3-4.2,6.4-7.2,11.1-8l26.2-4.9c7.7-1.4,13.3-8.3,13.2-16.2L681.3,475.3z M479.3,590.1   c-55-0.1-100.8-44.2-102.7-99.3c-2.1-58.4,44.7-106.8,103.1-106.7c55.1,0,100.8,44.2,102.7,99.2c2,56.9-42.4,104.6-99.3,106.7   C481.8,590.1,480.6,590.1,479.3,590.1z"></path>		<path class="st2" d="M264.5,506.8c0.1,7.9,6,14.5,13.7,15.7l26.4,4c4.8,0.7,8.9,3.5,11.4,7.7l37.2,61.8c2.5,4.2,3,9.2,1.4,13.8   l-9.1,25.3c-2.7,7.4,0.4,15.7,7.3,19.5l21.2,11.9c6.9,3.8,15.5,2.2,20.5-4l16.6-20.5c3-3.7,7.5-5.9,12.3-6l72.2-1.3   c4.9-0.1,9.5,2.1,12.6,5.8l17.5,20.8c5.1,6,13.7,7.5,20.5,3.6l20.9-12.2c6.8-4,9.7-12.3,7-19.7l-9.3-24.4c-1.7-4.4-1.3-9.4,1-13.6   l36.8-66.1c2.3-4.2,6.4-7.2,11.1-8l26.1-4.9c7.7-1.4,13.3-8.3,13.2-16.2l-0.5-24.2c-0.1-7.9-6-14.5-13.7-15.7l-26.4-4   c-4.8-0.7-9-3.5-11.4-7.7l-37.2-61.8c-2.5-4.2-3-9.2-1.4-13.8l9.1-25.3c2.7-7.4-0.4-15.7-7.3-19.5L543.1,316   c-6.8-3.9-15.5-2.2-20.4,3.9L506,340.4c-3,3.7-7.5,5.9-12.3,6l-72.2,1.3c-4.9,0.1-9.5-2-12.6-5.7l-17.5-20.8   c-5.1-6-13.7-7.5-20.5-3.5l-20.9,12.3c-6.8,4-9.7,12.3-6.9,19.6l9.2,24.4c1.7,4.4,1.3,9.4-1,13.6l-36.8,66.2   c-2.3,4.2-6.4,7.1-11.1,8l-26.2,4.9c-7.7,1.5-13.3,8.3-13.2,16.2L264.5,506.8z M461.9,372.5c62.6,0.1,114.4,50.2,116.7,112.7   c2.4,66.4-50.7,121.3-117.1,121.2c-62.5-0.1-114.4-50.2-116.7-112.7C342.5,427.4,395.6,372.4,461.9,372.5z"></path>		<path class="st0" d="M576.2,481.8L567,491L465.3,592.7c-2.4,2.4-6.3,2.4-8.8,0c0,0,0,0,0,0l-4.2-4.2l-33-33.4   c-0.2-0.2-0.3-0.3-0.5-0.5c-2.5-2-6-1.8-8.3,0.4L273.7,691.8c-2.4,2.4-6.3,2.4-8.7,0l-17.9-17.6c-0.2-0.2-0.4-0.4-0.6-0.7   c-1.9-2.5-1.6-5.9,0.6-8.1L411.5,501c2.4-2.4,6.3-2.4,8.8,0l34.1,34.1c2.4,2.4,6.3,2.4,8.8,0l95.2-95.2c1.5-1.5,3.8-2.2,5.9-1.6   c1.8,0.4,3.4,1.7,4.1,3.4c5,11.1,8.2,22.9,9.6,35C578.2,478.6,577.5,480.5,576.2,481.8z"></path>		<path class="st1" d="M577.4,470.4c0.2,1.9-4.6,5.4-5.9,6.7l-7.7,7.7L460.6,588c-2.2,2.2-5.8,2.4-8.3,0.4c-0.2-0.1-0.4-0.3-0.5-0.5   l-33-33.4l-4.1-4.2c-2.4-2.4-6.3-2.5-8.8-0.1c0,0,0,0,0,0L269,687.1c-2.4,2.4-6.3,2.4-8.7,0l-13.8-13.5l-3.8-3.7l-0.3-0.3   c-2.4-2.4-2.5-6.3-0.1-8.8c0,0,0,0,0,0l164.4-164.5c2.4-2.4,6.3-2.4,8.8,0l34.1,34.1c2.4,2.4,6.3,2.4,8.8,0l95.2-95.2   c0.4-0.4,6-5.2,6.5-5.5c2.8-1.5,3.8,2.1,5.1,5.3c0.1,0.3,0.3,0.6,0.4,0.9C565.9,436.4,576.1,458.6,577.4,470.4z"></path>		<path class="st3" d="M576.2,481.8L567,491c-1-1.7-2-3.8-3.2-6.2c-0.9-1.9-1.8-4.1-2.8-6.6c-5.5-13.8-6.9-25.4-6.8-34.2   c0-3.3,0.4-6.7,0.9-9.9c3-1.7,6.3-7.4,7.8-4c0.2,0.4,2.2,7.4,2.3,7.8c1.7,0.4,2.3,1.9,3.1,3.8c5,11.1,8.2,22.9,9.6,35   C578.2,478.6,577.5,480.5,576.2,481.8z"></path>		<path class="st3" d="M625.3,438.3c-0.3,0.3-0.6,0.5-0.9,0.9l-27.3-45.4l6.5-9.4c1.3,1.5,2.7,3.3,4.2,5.6c1.2,1.7,2.5,3.7,3.9,6   c7.8,12.6,11.2,23.8,12.6,32.4C624.9,431.6,625.2,434.9,625.3,438.3z"></path>		<path class="st1" d="M730.7,278.8c3.5,0,6.3,2.8,6.3,6.3v94.2c0,3.5-2.8,6.3-6.3,6.4c-1.7,0-3.4-0.7-4.6-1.9l-84.3-84.3l-9.9-9.9   c-2.5-2.4-2.5-6.4-0.1-8.9c1.2-1.2,2.8-1.9,4.6-1.9L730.7,278.8z"></path>		<polygon class="st4" points="665.4,323.7 694.9,365.6 702.3,359.9 665.7,324   "></polygon>		<path class="st5" d="M736.6,284.7V301c0,0,0-20.3-9.4-18.8s-87.6-2.3-90.8-0.8c-3.1,1.6,22.6,20.3,5,17.6l-9.9-9.9   c-2.5-2.4-2.5-6.4-0.1-8.9c1.2-1.2,2.9-1.9,4.6-1.9h94.2C733.8,278.3,736.6,281.2,736.6,284.7   C736.6,284.7,736.6,284.7,736.6,284.7z"></path>		<path class="st5" d="M562.5,438L460.2,544.4c-2.3,2.4-6.1,2.5-8.5,0.2c-0.1-0.1-0.2-0.2-0.3-0.3l-35.7-38.7   c-2.3-2.4-6.1-2.6-8.5-0.3c-0.1,0.1-0.1,0.1-0.2,0.2L242.7,669.9l-0.3-0.3c-2.4-2.4-2.5-6.3-0.1-8.8c0,0,0,0,0,0l164.4-164.5   c2.4-2.4,6.3-2.4,8.8,0l34.1,34.1c2.4,2.4,6.3,2.4,8.8,0l95.2-95.2c0.4-0.4,6-5.2,6.5-5.5c1.4-0.8,2.3-0.2,3.1,0.9   C564.8,433,564.5,436,562.5,438z"></path>		<path class="st5" d="M670.9,323.8l-1.3,2.6c-0.1,0.2-0.2,0.3-0.3,0.4l-66.5,69.1c-0.6,0.6-1.6,0.6-2.2,0.1   c-0.1-0.1-0.3-0.3-0.3-0.5l-1.3-2.8c-0.3-0.6-0.1-1.3,0.3-1.7l69-69c0.4-0.4,1-0.6,1.6-0.4l0,0c0.8,0.3,1.3,1.1,1,1.9   C671,323.7,671,323.7,670.9,323.8z"></path>	</g></g></svg>