<svg xmlns="http://www.w3.org/2000/svg" xmlns:xlink="http://www.w3.org/1999/xlink" id="Layer_1" x="0px" y="0px" viewBox="0 0 1024 1024" style="enable-background:new 0 0 1024 1024;" xml:space="preserve"><style type="text/css">	.st0{fill:#EBF0F5;stroke:#24313E;stroke-width:1.14;stroke-miterlimit:10;}	.st1{fill:#24313E;stroke:#031439;stroke-width:1.14;stroke-miterlimit:10;}	.st2{fill:#E7E9F2;stroke:#031439;stroke-width:1.14;stroke-miterlimit:10;}	.st3{fill:#0C7FF2;stroke:#031439;stroke-width:1.14;stroke-miterlimit:10;}	.st4{fill:#FFFFFF;stroke:#031439;stroke-width:1.14;stroke-linecap:round;stroke-linejoin:round;}	.st5{fill:#3392F2;stroke:#24313E;stroke-width:1.14;stroke-miterlimit:10;}	.st6{opacity:0.47;fill:#24313E;enable-background:new    ;}	.st7{opacity:0.5;fill:#EBF0F5;enable-background:new    ;}	.st8{opacity:0.3;fill:#EBF0F5;enable-background:new    ;}	.st9{opacity:0.98;fill:#EBF0F5;enable-background:new    ;}	.st10{fill:#0C7FF2;stroke:#031439;stroke-width:1.91;stroke-miterlimit:10;}	.st11{fill:#3392F2;stroke:#24313E;stroke-width:1.91;stroke-miterlimit:10;}</style><g>	<g id="Layer_1_1_">		<path class="st0" d="M536.3,390.2l0.3,9c-6.9-1.4-14.3-1.3-21.5-1.3c-5.2,0-10.5,0.4-15.7,1.2v-8.9H536.3z"></path>		<path class="st0" d="M532,390.2v9.8c-6.1-1.4-12.4-2.1-18.7-2c-4.6,0-9.2,0.4-13.8,1.2v-8.9H532z"></path>		<path class="st1" d="M359.1,554.5c1.2-82.2,66.8-151.2,148.8-156.3c92.5-5.8,169.3,67.5,169.3,158.7   c0,81.6-61.3,148.8-140.4,157.9c-6.2,0.8-12.5,1.2-18.7,1.1c-8.5,0-17-0.7-25.4-2C416.2,701.8,357.9,634.9,359.1,554.5z"></path>		<circle class="st2" cx="518.2" cy="557" r="125.2"></circle>		<path class="st3" d="M539.8,477.5l-13.6,67.3l-22.1,0.1l13-70.1c0.5-2.7-2-5.5,1-5.5l15.7,1.6   C537.6,470.9,540.5,474.1,539.8,477.5z"></path>		<path class="st4" d="M590.7,557.5l-55.9,96.7c-1.5,2.7-4.4,4.3-7.5,4.3h-11.7c-1.7,0-3.1-1.4-3.1-3.1c0-0.5,0.1-1.1,0.4-1.6   L576,544.6l7.1,0c4.8,0,8.7,3.8,8.7,8.6C591.8,554.7,591.4,556.2,590.7,557.5z"></path>		<path class="st4" d="M576.1,544.4l-0.1,0.1l-63.2,109.5c-0.2,0.4-0.8,0.6-1.2,0.4c-0.4-0.2-0.5-0.6-0.5-1l14.1-76l-50,0.3   l-22.2,0.2l15-25.9l47.3-81.8c0.4-0.6,1.1-0.8,1.8-0.5c0.5,0.3,0.7,0.8,0.6,1.3L504,544.9l22.1-0.1L576.1,544.4z"></path>		<path class="st3" d="M576.1,544.4l-0.1,0.1l-62.4,108c-0.1,0.3-0.4,0.5-0.7,0.5c-0.3,0.1-0.7,0-0.9-0.1c-0.4-0.2-0.7-0.7-0.5-1.2   l0.8-4.1l13-70.2l-50,0.3l-22.2,0.2l15-25.9l46.5-80.5l1-1.7c0.3-0.6,1-0.8,1.6-0.4c0.4,0.2,0.7,0.7,0.6,1.2L504,544.9l22.1-0.1   L576.1,544.4z"></path>		<path class="st5" d="M591.2,556.6l-56.6,97.9c-1.4,2.5-4.1,4-7,4h-11.5c-1.9,0-3.4-1.5-3.5-3.4c0-0.6,0.2-1.2,0.5-1.7L576,544.6   l8.2,0c4.4,0,8.1,3.6,8.1,8C592.3,554,591.9,555.4,591.2,556.6z"></path>		<path class="st1" d="M587.9,390.2H449.5c-0.6,0-1.1-0.5-1.1-1.1v-21.3c0-0.6,0.5-1.1,1.1-1.1h138.4c0.6,0,1.1,0.5,1.1,1.1v21.3   C588.9,389.7,588.4,390.2,587.9,390.2z"></path>		<path class="st4" d="M461.5,368.5h5.2c0.2,0,0.3,0.1,0.3,0.3v19.4c0,0.2-0.1,0.3-0.3,0.3h-5.2c-0.2,0-0.3-0.1-0.3-0.3v-19.4   C461.2,368.6,461.3,368.5,461.5,368.5z"></path>		<path class="st4" d="M462.4,368.5h4.6c0.1,0,0.3,0.1,0.3,0.3v19.5c0,0.1-0.1,0.3-0.3,0.3h-4.6c-0.1,0-0.3-0.1-0.3-0.3v-19.5   C462.2,368.6,462.3,368.5,462.4,368.5z"></path>		<path class="st4" d="M475.4,368.5h5.2c0.2,0,0.3,0.1,0.3,0.3v19.4c0,0.2-0.1,0.3-0.3,0.3h-5.2c-0.2,0-0.3-0.1-0.3-0.3v-19.4   C475.1,368.6,475.2,368.5,475.4,368.5z"></path>		<path class="st4" d="M476.3,368.5h4.6c0.1,0,0.3,0.1,0.3,0.3v19.5c0,0.1-0.1,0.3-0.3,0.3h-4.6c-0.1,0-0.3-0.1-0.3-0.3v-19.5   C476.1,368.6,476.2,368.5,476.3,368.5z"></path>		<path class="st4" d="M489.2,368.5h5.2c0.2,0,0.3,0.1,0.3,0.3v19.4c0,0.2-0.1,0.3-0.3,0.3h-5.2c-0.2,0-0.3-0.1-0.3-0.3v-19.4   C489,368.6,489.1,368.5,489.2,368.5z"></path>		<path class="st4" d="M490.2,368.5h4.6c0.1,0,0.3,0.1,0.3,0.3v19.5c0,0.1-0.1,0.3-0.3,0.3h-4.6c-0.1,0-0.3-0.1-0.3-0.3v-19.5   C489.9,368.6,490.1,368.5,490.2,368.5z"></path>		<path class="st4" d="M503.1,368.5h5.2c0.2,0,0.3,0.1,0.3,0.3v19.4c0,0.2-0.1,0.3-0.3,0.3h-5.2c-0.2,0-0.3-0.1-0.3-0.3v-19.4   C502.8,368.6,503,368.5,503.1,368.5z"></path>		<path class="st4" d="M504.1,368.5h4.6c0.1,0,0.3,0.1,0.3,0.3v19.5c0,0.1-0.1,0.3-0.3,0.3h-4.6c-0.1,0-0.3-0.1-0.3-0.3v-19.5   C503.8,368.6,503.9,368.5,504.1,368.5z"></path>		<path class="st4" d="M517,368.5h5.2c0.2,0,0.3,0.1,0.3,0.3v19.4c0,0.2-0.1,0.3-0.3,0.3H517c-0.2,0-0.3-0.1-0.3-0.3v-19.4   C516.7,368.6,516.8,368.5,517,368.5z"></path>		<path class="st4" d="M518,368.5h4.6c0.1,0,0.3,0.1,0.3,0.3v19.5c0,0.1-0.1,0.3-0.3,0.3H518c-0.1,0-0.3-0.1-0.3-0.3v-19.5   C517.7,368.6,517.8,368.5,518,368.5z"></path>		<path class="st4" d="M530.9,368.5h5.2c0.2,0,0.3,0.1,0.3,0.3v19.4c0,0.2-0.1,0.3-0.3,0.3h-5.2c-0.2,0-0.3-0.1-0.3-0.3v-19.4   C530.6,368.6,530.7,368.5,530.9,368.5z"></path>		<path class="st4" d="M531.8,368.5h4.6c0.1,0,0.3,0.1,0.3,0.3v19.5c0,0.1-0.1,0.3-0.3,0.3h-4.6c-0.1,0-0.3-0.1-0.3-0.3v-19.5   C531.6,368.6,531.7,368.5,531.8,368.5z"></path>		<path class="st4" d="M544.8,368.5h5.2c0.2,0,0.3,0.1,0.3,0.3v19.4c0,0.2-0.1,0.3-0.3,0.3h-5.2c-0.2,0-0.3-0.1-0.3-0.3v-19.4   C544.5,368.6,544.6,368.5,544.8,368.5z"></path>		<path class="st4" d="M545.7,368.5h4.6c0.1,0,0.3,0.1,0.3,0.3v19.5c0,0.1-0.1,0.3-0.3,0.3h-4.6c-0.1,0-0.3-0.1-0.3-0.3v-19.5   C545.5,368.6,545.6,368.5,545.7,368.5z"></path>		<path class="st4" d="M558.6,368.5h5.2c0.2,0,0.3,0.1,0.3,0.3v19.4c0,0.2-0.1,0.3-0.3,0.3h-5.2c-0.2,0-0.3-0.1-0.3-0.3v-19.4   C558.3,368.6,558.5,368.5,558.6,368.5z"></path>		<path class="st4" d="M559.6,368.5h4.6c0.1,0,0.3,0.1,0.3,0.3v19.5c0,0.1-0.1,0.3-0.3,0.3h-4.6c-0.1,0-0.3-0.1-0.3-0.3v-19.5   C559.3,368.6,559.4,368.5,559.6,368.5z"></path>		<path class="st4" d="M572.5,368.5h5.2c0.2,0,0.3,0.1,0.3,0.3v19.4c0,0.2-0.1,0.3-0.3,0.3h-5.2c-0.2,0-0.3-0.1-0.3-0.3v-19.4   C572.2,368.6,572.4,368.5,572.5,368.5z"></path>		<path class="st4" d="M573.5,368.5h4.6c0.1,0,0.3,0.1,0.3,0.3v19.5c0,0.1-0.1,0.3-0.3,0.3h-4.6c-0.1,0-0.3-0.1-0.3-0.3v-19.5   C573.2,368.6,573.3,368.5,573.5,368.5z"></path>		<rect x="447.8" y="386.7" class="st6" width="141" height="2.8"></rect>		<rect x="448" y="366.7" class="st7" width="141" height="2.8"></rect>		<polygon class="st8" points="530.1,573.7 513,653.1 511.8,658.5 512,653 512.2,647.7 525.3,577.5 475.3,577.9 453.1,578    468.1,552.1 514.6,471.6 514.6,475.2 461.9,571.5   "></polygon>		<polygon class="st8" points="571.9,544.9 511.1,657 576,544.6   "></polygon>		<path class="st9" d="M677.2,557c0,0.9,0,1.7,0,2.5c-1.5-89.9-77.7-161.7-169.3-156c-82,5.1-147.5,73.9-148.9,156.1   c0-1.7,0-3.4,0-5.1c1.2-82.2,66.8-151.2,148.8-156.3C600.4,392.5,677.2,465.8,677.2,557z"></path>		<path class="st10" d="M790.7,448l-3.6,5.5L752,506.7l-3-2l0,0l-55.5-36.6l-0.2-0.2l25.7-5.3l10.5-2.2   C697.6,363,604.9,299.9,501.3,306.3c-13.1,0.8-26.1,2.8-38.8,6c-0.1,0.1-0.3,0.1-0.4,0.1c-86.4,21.5-154.6,93.8-168.7,184.3   c-1.5,10.2-2.4,20.5-2.6,30.8c-0.2,8.6,0.2,17.2,1,25.7c9.9,101.6,87.3,183.9,188.1,200c20.6,3.4,41.6,3.8,62.3,1.3   c5.5-0.7,11.1-1.5,16.5-2.6c42.8-8.3,82.2-28.8,113.5-59.1c2.1-2.1,4.2-4.1,6.3-6.3l17.9,17.1c-35.3,36.9-81.2,62.2-131.3,72.3   c-6.6,1.3-13.3,2.4-20,3.1c-9.8,1.2-19.6,1.8-29.4,1.8c-13.4,0-26.7-1-39.9-3.2c-111.8-17.9-197.7-109.2-208.7-222   c-2-20.9-1.5-42,1.7-62.8c10.7-68.8,49.6-128.1,103.9-166.3c16.2-11.4,33.8-20.9,52.2-28.2c10.5-4.2,21.3-7.6,32.4-10.2   c13.9-3.4,28.1-5.6,42.4-6.5c115.9-7.2,219.7,64.1,254.3,174L790.7,448z"></path>		<path class="st11" d="M729.5,460.5l-10.5,2.2c-31.9-97.5-124.6-160.5-228.2-154c-9.5,0.6-19,1.8-28.4,3.6   c12.8-3.1,25.8-5.1,38.9-6C604.9,299.9,697.6,363,729.5,460.5z"></path>		<polygon class="st11" points="752,506.7 748.4,512.2 682.9,470.3 693.5,468.1   "></polygon>		<path class="st11" d="M565.1,775.8c-10,2.5-20.2,4.3-30.4,5.5c-9.8,1.2-19.6,1.8-29.4,1.8c-13.4,0-26.7-1-39.9-3.2   c-111.9-17.9-197.7-109.2-208.7-222c-2-20.9-1.5-42,1.7-62.8C274.7,390.7,355.9,308,457.3,288c-96.5,23.4-172.8,104-188.5,204.8   c-3.2,20.8-3.8,41.8-1.7,62.8c11,112.8,96.9,204.2,208.7,222c13.2,2.2,26.5,3.3,39.9,3.2c9.8,0,19.7-0.6,29.4-1.8   C551.8,778.2,558.5,777.2,565.1,775.8z"></path>		<path class="st8" d="M696.4,703.6c-35.3,36.9-81.2,62.2-131.3,72.3c-6.6,1.3-13.3,2.4-20,3.1c-9.8,1.2-19.6,1.8-29.4,1.8   c-13.4,0-26.7-1-39.9-3.2c-111.8-17.9-197.7-109.2-208.7-222c-2-20.9-1.5-42,1.7-62.8c10.7-68.8,49.6-128.1,103.9-166.3   c-105.3,76.8-133.3,239.2-51.6,349C442.3,838.5,641.9,759.2,696.4,703.6z"></path>		<path class="st8" d="M790.7,448l-3.6,5.5L752,506.7l-3-2l0,0l28.2-49.6l-30.8,7.5c0,0-34-141.7-170.7-172   c-57.5-12.8-108.2-8.5-150.8,7.5c10.5-4.2,21.3-7.6,32.4-10.3c13.9-3.4,28.1-5.6,42.4-6.5c115.9-7.2,219.7,64.1,254.3,174   L790.7,448z"></path>	</g></g></svg>