<svg xmlns="http://www.w3.org/2000/svg" viewBox="0 0 1623.21 1340"><defs><style>.cls-1{isolation:isolate;}.cls-2{fill:none;}.cls-3{fill:#003994;}.cls-3,.cls-4{stroke:#24313e;}.cls-3,.cls-4,.cls-7,.cls-8,.cls-9{stroke-miterlimit:10;}.cls-3,.cls-4,.cls-7{stroke-width:2px;}.cls-4{fill:#0062ff;}.cls-5{mix-blend-mode:overlay;opacity:0.21;}.cls-6,.cls-8,.cls-9{fill:#ebf0f5;}.cls-7{fill:#d9d9d9;stroke:#000;}.cls-8,.cls-9{stroke:#031439;}.cls-8{stroke-width:2.63px;}.cls-9{stroke-width:3.7px;}.cls-10{mix-blend-mode:multiply;opacity:0.17;}</style></defs><g class="cls-1"><g id="Layer_2" data-name="Layer 2"><g id="Layer_1-2" data-name="Layer 1"><rect class="cls-2" width="1623.21" height="1340" transform="translate(1623.21 1340) rotate(-180)"></rect><path class="cls-3" d="M657.4,675.3c4.92-34.16-10.16-67.14-34.85-89.56s-59-34.27-92.46-26.16a51.17,51.17,0,0,1-30.8-2.27,57.65,57.65,0,0,1-24.84-19c-48.69-64.54-132.06-78.83-203.13-56S141.48,565.34,142,649.5a55,55,0,0,1-6.33,25.88,57.69,57.69,0,0,1-17.6,20.12C62.23,735.39,48,806.92,66.73,867.85S137,979.11,212.72,976.6H599.29v-.22c69.65,4.41,115.51-40.62,131.54-95.23S733,762.34,683.28,728.39a63,63,0,0,1-20.68-23.14A49.9,49.9,0,0,1,657.4,675.3Z"></path><path class="cls-4" d="M709.46,885.91a149.46,149.46,0,0,1-6.26,17.36c-12.58,29.28-34.39,54.13-64.37,67.52-17.56,7.89-37.93,11.81-60.92,10.37v.2H191.33c-47,1.57-84.64-17.23-110.94-46.24-.56-.63-1.13-1.27-1.7-1.94s-1.27-1.44-1.87-2.17q-4.06-4.77-7.67-9.91c-.83-1.13-1.63-2.3-2.4-3.48-1.78-2.57-3.42-5.18-5-7.82-.77-1.31-1.51-2.61-2.24-3.92-.2-.37-.44-.73-.64-1.14-.5-.93-1-1.87-1.5-2.84-.7-1.34-1.41-2.68-2-4-.57-1.17-1.14-2.35-1.68-3.52a172.24,172.24,0,0,1-8.29-21.74c-18.7-60.93-4.52-132.49,51.32-172.37a57.53,57.53,0,0,0,17.6-20.1,55.13,55.13,0,0,0,6.32-25.9c-.5-84.14,58.28-144.19,129.34-167.07s154.43-8.6,203.14,55.93a57.6,57.6,0,0,0,24.82,19,51.22,51.22,0,0,0,30.82,2.25c33.48-8.1,67.78,3.74,92.43,26.16,1.17,1.07,2.31,2.14,3.42,3.24.83.81,1.63,1.64,2.44,2.48.37.37.7.73,1.07,1.14.87.93,1.74,1.9,2.61,2.87a3,3,0,0,0,.33.4c1,1.18,2,2.35,3,3.55s2,2.54,2.91,3.81,1.8,2.58,2.67,3.85,1.74,2.64,2.55,4,1.6,2.68,2.34,4c9.93,18.1,14.65,38.91,11.57,60.19a49.79,49.79,0,0,0,5.19,30,62.55,62.55,0,0,0,20.71,23.12c33,22.55,50.18,58.41,53.33,95.92A156.3,156.3,0,0,1,709.46,885.91Z"></path><g class="cls-5"><path class="cls-6" d="M624.45,619.87c-1.67-1.74-3.45-3.44-5.25-5.08-24.69-22.42-59-34.26-92.48-26.17a50.91,50.91,0,0,1-30.81-2.27,57.48,57.48,0,0,1-24.82-18.94c-48.68-64.53-132-78.85-203.14-56S138.11,594.38,138.64,678.55a55.61,55.61,0,0,1-6.32,25.9,58,58,0,0,1-17.63,20.1C58.85,764.43,44.66,836,63.37,896.92a172.13,172.13,0,0,0,17,38.2,165.38,165.38,0,0,1-35-62.49c-18.7-60.93-4.52-132.49,51.32-172.37a57.53,57.53,0,0,0,17.6-20.1,55.13,55.13,0,0,0,6.32-25.9c-.5-84.14,58.28-144.19,129.34-167.07s154.43-8.6,203.14,55.93a57.6,57.6,0,0,0,24.82,19,51.22,51.22,0,0,0,30.82,2.25c33.48-8.1,67.78,3.74,92.43,26.16A114.7,114.7,0,0,1,624.45,619.87Z"></path></g><circle class="cls-7" cx="324.99" cy="824.45" r="60.29" transform="translate(-386.28 295.84) rotate(-31.87)"></circle><circle class="cls-8" cx="317.64" cy="824" r="60.29" transform="translate(-387.15 291.88) rotate(-31.87)"></circle><path class="cls-7" d="M465.38,813.48a10.82,10.82,0,0,1-10.89-12.1c2.87-22.87,13.71-44.08.6-63.75-23.1-34.69-85.06-62.86-119-123.5A10.76,10.76,0,0,1,336,604h0a10.87,10.87,0,0,1,11.45-5.79c88.8,14.46,126.71,56.2,159.28,105.07A212.55,212.55,0,0,1,541.45,801a10.85,10.85,0,0,1-10.71,11.86Z"></path><path class="cls-7" d="M577.41,819.65a6.71,6.71,0,0,1-4.27-11.8c7.42-6.39,17.25-12.65,16.38-19.47-14.64-115.93-135.44-244.3-237.66-289.16a6.7,6.7,0,0,1-.73-11.89h0a6.6,6.6,0,0,1,3.9-.94c102.62,7.22,177.43,75.37,203,100.27a326.1,326.1,0,0,1,96.38,193.52A330.22,330.22,0,0,1,657,814a6.7,6.7,0,0,1-6.82,6.84Z"></path><path class="cls-7" d="M742.88,829.2a13.69,13.69,0,0,1-13.43-13.47c-2.64-202.12-159.11-373.28-361.67-392.57h-.14a13.73,13.73,0,0,1-12.44-14.5l2.57-41.36a13.71,13.71,0,0,1,14.93-12.81l1.61.15a468.74,468.74,0,0,1,424,461.61,13.69,13.69,0,0,1-14,13.79Z"></path><path class="cls-9" d="M464.36,813.19a10.85,10.85,0,0,1-11.21-9.68A150.86,150.86,0,0,0,334.61,672.2,10.88,10.88,0,0,1,326.07,660l5.73-39.95A10.87,10.87,0,0,1,344.66,611a212.87,212.87,0,0,1,170.43,188.8,10.87,10.87,0,0,1-10.4,11.86Z"></path><path class="cls-9" d="M571.84,819.44a6.7,6.7,0,0,1-6.71-6.55c-.24-8.67-.91-17.4-2-26.06C548.17,668.4,456.42,576,338.9,560a6.71,6.71,0,0,1-5.78-7.39L338.86,501a6.7,6.7,0,0,1,7.53-5.92A324.79,324.79,0,0,1,444,524,326.86,326.86,0,0,1,628,778.63a332.57,332.57,0,0,1,2.52,33.89,6.71,6.71,0,0,1-6.71,6.85Z"></path><path class="cls-9" d="M716.49,827.64a13.68,13.68,0,0,1-13.44-13.46C700.41,612.06,543.94,440.9,341.38,421.61h-.13a13.73,13.73,0,0,1-12.44-14.51l2.56-41.35a13.71,13.71,0,0,1,14.93-12.81c.54,0,1.08.09,1.61.15a468.76,468.76,0,0,1,424,461.6,13.71,13.71,0,0,1-14,13.8Z"></path><path class="cls-10" d="M657.26,974.22H122.79a7,7,0,0,0-6.68,7.23h0a7,7,0,0,0,6.68,7.23H657.26a6.5,6.5,0,0,0,1.57-.2h0C666.5,986.46,665.16,974.22,657.26,974.22Z"></path></g></g></g></svg>