<svg xmlns="http://www.w3.org/2000/svg" viewBox="0 0 753.74 753.74"><defs><style>.cls-1{isolation:isolate;}.cls-2{fill:#f1f4f8;}.cls-3{fill:#fff;}.cls-4,.cls-7{fill:#9dc7f2;}.cls-5{fill:#2e2e76;}.cls-6{fill:#0c7ff2;}.cls-10,.cls-7{mix-blend-mode:soft-light;opacity:0.59;}.cls-8,.cls-9{fill:#9caab8;mix-blend-mode:multiply;}.cls-8{opacity:0.48;}.cls-9{opacity:0.22;}</style></defs><g class="cls-1"><g id="Layer_2" data-name="Layer 2"><g id="Layer_1-2" data-name="Layer 1"><circle class="cls-2" cx="376.87" cy="376.87" r="376.87"></circle><path class="cls-3" d="M589,220.32v291A35.94,35.94,0,0,1,553,547.22H134.54A35.94,35.94,0,0,1,98.6,511.28v-291Z"></path><rect class="cls-4" x="254.45" y="255.26" width="244.84" height="12.36" rx="1.6"></rect><rect class="cls-4" x="254.45" y="297.78" width="224.15" height="12.36" rx="1.6"></rect><rect class="cls-4" x="254.45" y="340.3" width="255.68" height="12.36" rx="1.6"></rect><path class="cls-5" d="M97.33,205.89H218.26a0,0,0,0,1,0,0v342a0,0,0,0,1,0,0h-89a31.94,31.94,0,0,1-31.94-31.94v-310A0,0,0,0,1,97.33,205.89Z"></path><path class="cls-6" d="M124.49,176.14H561.81a27.4,27.4,0,0,1,27.4,27.4v21.71a0,0,0,0,1,0,0H97.09a0,0,0,0,1,0,0V203.54a27.4,27.4,0,0,1,27.4-27.4Z"></path><rect class="cls-7" x="119.04" y="176.14" width="446.14" height="5.84" rx="2.92"></rect><rect class="cls-8" x="97.09" y="224.06" width="492.12" height="5.84" rx="2.92"></rect><path class="cls-9" d="M638,527.1a51.73,51.73,0,0,1-2.15,6c-4.33,10.07-11.83,18.62-22.14,23.22a42.58,42.58,0,0,1-16.06,3.64c-1.59.06-3.22,0-4.9-.07v.07h-133A48,48,0,0,1,421.66,544c-.2-.21-.4-.43-.59-.66l-.65-.75c-.93-1.09-1.8-2.23-2.63-3.41-.29-.39-.56-.79-.83-1.2-.61-.88-1.17-1.78-1.71-2.69-.27-.44-.52-.9-.77-1.34a3.84,3.84,0,0,1-.22-.39l-.52-1c-.24-.46-.48-.92-.7-1.38l-.58-1.21a58.74,58.74,0,0,1-2.85-7.48c-6.44-21-1.55-45.57,17.65-59.29a19.66,19.66,0,0,0,6.05-6.92,18.9,18.9,0,0,0,2.18-8.9c-.17-28.94,20.05-49.6,44.48-57.47s53.12-3,69.88,19.24a19.86,19.86,0,0,0,8.54,6.53,17.71,17.71,0,0,0,10.6.77c11.52-2.79,23.31,1.29,31.79,9,.4.36.8.73,1.18,1.11s.56.56.83.85c.13.13.25.26.37.4l.9,1a.81.81,0,0,0,.12.14c.34.4.67.81,1,1.22s.68.87,1,1.31.62.89.92,1.33.6.9.87,1.36.56.93.81,1.4a33,33,0,0,1,4,20.7,16,16,0,0,0-.16,2.66,17.36,17.36,0,0,0,1.95,7.65,21.42,21.42,0,0,0,7.12,7.95c11.35,7.76,17.26,20.1,18.34,33A53.86,53.86,0,0,1,638,527.1Z"></path><path class="cls-6" d="M651.73,538.62a53.67,53.67,0,0,1-2.15,6c-4.33,10.07-11.84,18.62-22.15,23.22a42.53,42.53,0,0,1-16,3.64c-1.6.06-3.23,0-4.9-.07v.07h-133a48,48,0,0,1-38.16-15.91l-.59-.66-.64-.75q-1.39-1.64-2.63-3.41c-.29-.39-.57-.79-.83-1.2-.61-.88-1.18-1.78-1.72-2.69-.26-.44-.51-.9-.77-1.34l-.22-.39-.52-1c-.24-.46-.48-.92-.7-1.38s-.39-.81-.57-1.21a60.34,60.34,0,0,1-2.86-7.48c-6.43-21-1.55-45.57,17.66-59.29a19.76,19.76,0,0,0,6.05-6.92,18.89,18.89,0,0,0,2.17-8.9c-.17-28.94,20.05-49.6,44.49-57.47s53.12-3,69.88,19.24a19.86,19.86,0,0,0,8.54,6.53,17.69,17.69,0,0,0,10.59.77c11.52-2.79,23.32,1.29,31.8,9q.6.54,1.17,1.11c.29.28.56.56.84.85.13.13.24.26.37.4l.9,1a.49.49,0,0,0,.11.14c.35.4.68.81,1,1.22s.68.87,1,1.31.63.89.92,1.33.6.9.88,1.36.55.93.81,1.4a33.08,33.08,0,0,1,4,20.7,16,16,0,0,0-.17,2.66,17.49,17.49,0,0,0,2,7.65,21.59,21.59,0,0,0,7.12,7.95c11.35,7.76,17.27,20.1,18.35,33A53.86,53.86,0,0,1,651.73,538.62Z"></path><g class="cls-10"><path class="cls-4" d="M622.49,447.11a34.6,34.6,0,0,1,4,12.08,34.51,34.51,0,0,0-2.32-5.15c-.26-.47-.53-.93-.81-1.4s-.57-.92-.88-1.36-.59-.89-.92-1.33-.65-.87-1-1.31-.66-.82-1-1.22a.49.49,0,0,1-.11-.14l-.9-1c-.13-.14-.24-.27-.37-.4-.28-.29-.55-.57-.84-.85s-.77-.75-1.17-1.11c-8.48-7.71-20.28-11.79-31.8-9a17.61,17.61,0,0,1-10.59-.77,19.86,19.86,0,0,1-8.54-6.53c-16.76-22.2-45.44-27.11-69.88-19.24s-44.66,28.53-44.49,57.47a18.89,18.89,0,0,1-2.17,8.9,19.76,19.76,0,0,1-6,6.92c-17.15,12.25-22.88,33.19-19.33,52.45l0-.09c-6.43-21-1.55-45.57,17.66-59.29a19.76,19.76,0,0,0,6.05-6.92,18.89,18.89,0,0,0,2.17-8.9c-.17-28.94,20.05-49.6,44.49-57.47s53.12-3,69.88,19.24a19.86,19.86,0,0,0,8.54,6.53,17.69,17.69,0,0,0,10.59.77c11.52-2.79,23.32,1.29,31.8,9q.6.54,1.17,1.11c.29.28.56.56.84.85.13.13.24.26.37.4l.9,1a.49.49,0,0,0,.11.14c.35.4.68.81,1,1.22s.68.87,1,1.31.63.89.92,1.33.6.9.88,1.36S622.23,446.64,622.49,447.11Z"></path><path class="cls-4" d="M653.18,514.84A41.62,41.62,0,0,0,637.07,493a21.59,21.59,0,0,1-7.12-7.95,17.56,17.56,0,0,1-1.94-7.43l.24.5a21.59,21.59,0,0,0,7.12,7.95C645.47,493,651.27,503.51,653.18,514.84Z"></path></g><g class="cls-10"><path class="cls-4" d="M628.17,474.74a16,16,0,0,0-.17,2.66c0,.08,0,.15,0,.22a17.24,17.24,0,0,1-1.71-7.15,16,16,0,0,1,.17-2.66,31.13,31.13,0,0,0,0-8.62A32.12,32.12,0,0,1,628.17,474.74Z"></path></g><path class="cls-3" d="M627.68,517.83a15.53,15.53,0,0,0-13.52-4.33l-6.55-17-6.5-16.88a15.49,15.49,0,1,0-17.92-24.79,15.38,15.38,0,0,0-3.62,5.69l-28.29-4.47-22.53-3.56c.07-.72.11-1.46.11-2.2a21.17,21.17,0,1,0-36.13,15,22.26,22.26,0,0,0,2.57,2.18l-9.09,18-9.57,19a20,20,0,1,0,11.69,24.11q8.66.68,17.34,1.19,18.51,1.09,37,1.48,9.27.2,18.53.21c6.17,0,12.35-.11,18.52-.38l18.5-.56,3-.09a15.49,15.49,0,1,0,26.37-12.53ZM490.61,487.78l9.82-17.6a21.33,21.33,0,0,0,7.27,1.28,21.17,21.17,0,0,0,20.5-15.92L550.56,460l28.09,5.63v.13a15.54,15.54,0,0,0,.93,5.3q-23,13.55-47.19,24.93-22,10.37-45,18.85a20.08,20.08,0,0,0-7.16-8.54Zm107.61,39.75-18.46-.14c-6.14,0-12.29-.09-18.43-.32s-12.29-.54-18.42-.89q-18.4-1.08-36.75-2.86-8.36-.81-16.69-1.77a.16.16,0,0,1-.14-.13l-.78-3.22q23.24-8,45.74-18Q558.94,489.22,582.5,476c.22.26.45.5.69.74a15.44,15.44,0,0,0,10.95,4.54h3.36a.26.26,0,0,1,.24.18l5.51,16.62L609,515.36a15.23,15.23,0,0,0-3.22,2.47,15.42,15.42,0,0,0-4.49,9.72Z"></path></g></g></g></svg>