<svg xmlns="http://www.w3.org/2000/svg" viewBox="0 0 568.51 468.87"><defs><style>.cls-1{fill:none;}.cls-2,.cls-9{fill:#cee0f2;}.cls-3,.cls-8{fill:#9caab8;}.cls-3,.cls-8,.cls-9{isolation:isolate;}.cls-3{opacity:0.17;}.cls-4{fill:#0c7ff2;}.cls-5{fill:#9dc7f2;}.cls-6{fill:#fff;}.cls-7{fill:#2e2e76;}.cls-8{opacity:0.48;}.cls-9{opacity:0.18;}</style></defs><g id="Layer_2" data-name="Layer 2"><g id="Layer_1-2" data-name="Layer 1"><rect id="rect201" class="cls-1" width="568.51" height="468.87"></rect><path class="cls-2" d="M453.26,137.53V320.16c0,5.2-4.51,9.42-10.05,9.42H305.59a9.74,9.74,0,0,1-1.62-.13,9.63,9.63,0,0,1-8.43-9.29V175.58a9.1,9.1,0,0,1,2.43-6.14l34.89-38a10.36,10.36,0,0,1,7.63-3.28H443.21C448.75,128.11,453.26,132.29,453.26,137.53Z"></path><path class="cls-3" d="M453.26,145.21V320.13a9.43,9.43,0,0,1-9.44,9.41H314.71a9.64,9.64,0,0,1-1.52-.12V192.51a9.4,9.4,0,0,1,2.28-6.13l32.74-38a9.41,9.41,0,0,1,7.14-3.28h96.38A8.78,8.78,0,0,1,453.26,145.21Z"></path><path class="cls-4" d="M466.54,349.66H328.89c-5.55,0-10.05-4.22-10.05-9.42V195.66a9.07,9.07,0,0,1,2.43-6.14l34.9-38a10.32,10.32,0,0,1,7.62-3.28H466.54c5.55,0,10,4.21,10,9.42V340.23A9.8,9.8,0,0,1,466.54,349.66Z"></path><path class="cls-5" d="M358.88,150v41.26a.89.89,0,0,1-.89.89l-36.92-.66a.9.9,0,0,1-.79-1,1,1,0,0,1,.17-.43l36.91-40.64a.89.89,0,0,1,1.26,0A1,1,0,0,1,358.88,150Z"></path><rect class="cls-6" x="325.68" y="276.1" width="124.3" height="66.81" rx="9.31"></rect><path class="cls-7" d="M333.13,313.58a.55.55,0,0,1-.52-.52.81.81,0,0,1,0-.22L338.44,297a1.14,1.14,0,0,1,.31-.49,1.06,1.06,0,0,1,.67-.2h3.67a.9.9,0,0,1,1,.69l5.81,15.85a.54.54,0,0,1,.05.22.52.52,0,0,1-.16.36.55.55,0,0,1-.39.16h-3.05a.83.83,0,0,1-.56-.19.86.86,0,0,1-.23-.33l-1-2.52h-6.64l-.94,2.52a1.06,1.06,0,0,1-.22.33.83.83,0,0,1-.6.19ZM339,307h4.62l-2.31-6.51Z"></path><path class="cls-7" d="M352.53,313.58a.61.61,0,0,1-.44-.19.58.58,0,0,1-.18-.43V296.9a.63.63,0,0,1,.18-.45.57.57,0,0,1,.44-.17h7a9.47,9.47,0,0,1,3.57.63,5.13,5.13,0,0,1,2.38,1.89,5.52,5.52,0,0,1,.89,3.18,5.39,5.39,0,0,1-.89,3.14,5.14,5.14,0,0,1-2.38,1.83,9.91,9.91,0,0,1-3.57.58h-3v5.41a.57.57,0,0,1-.18.43.66.66,0,0,1-.46.19Zm3.93-9.44h2.9a2.52,2.52,0,0,0,1.71-.54,2,2,0,0,0,.63-1.65,2.37,2.37,0,0,0-.54-1.58,2.22,2.22,0,0,0-1.79-.64h-2.9Z"></path><path class="cls-7" d="M369.33,313.58a.64.64,0,0,1-.45-.19.57.57,0,0,1-.17-.43V296.9a.62.62,0,0,1,.17-.45.58.58,0,0,1,.45-.17h3.33a.66.66,0,0,1,.45.17.55.55,0,0,1,.19.45V313a.59.59,0,0,1-.19.43.62.62,0,0,1-.45.19Z"></path><path class="cls-7" d="M340.14,335.69a8.65,8.65,0,0,1-3.63-.67,5.59,5.59,0,0,1-2.25-1.71,3.88,3.88,0,0,1-.83-2.21.5.5,0,0,1,.16-.36.55.55,0,0,1,.38-.16h1.27a.56.56,0,0,1,.44.15.61.61,0,0,1,.21.35,3.07,3.07,0,0,0,.62,1.17,3.52,3.52,0,0,0,1.35,1,5.73,5.73,0,0,0,2.28.38,5.17,5.17,0,0,0,3.14-.75,2.39,2.39,0,0,0,1-2,1.84,1.84,0,0,0-.54-1.39,4.72,4.72,0,0,0-1.63-1,28.06,28.06,0,0,0-2.83-.89,16.34,16.34,0,0,1-3-1.14,4.46,4.46,0,0,1-1.78-1.53,4.29,4.29,0,0,1-.58-2.32,4.12,4.12,0,0,1,.72-2.38,4.91,4.91,0,0,1,2.08-1.67,7.88,7.88,0,0,1,3.28-.62,8.38,8.38,0,0,1,2.68.41,6,6,0,0,1,1.93,1.09,5,5,0,0,1,1.17,1.46,3.63,3.63,0,0,1,.42,1.51.57.57,0,0,1-.13.33.44.44,0,0,1-.4.16h-1.31a.78.78,0,0,1-.37-.09.74.74,0,0,1-.28-.37,2.49,2.49,0,0,0-1.14-1.71A4.44,4.44,0,0,0,340,320a4.92,4.92,0,0,0-2.63.62,2.32,2.32,0,0,0-.6,3.23l.07.09a3.84,3.84,0,0,0,1.49,1c.68.27,1.57.57,2.67.89a18.8,18.8,0,0,1,3.26,1.14,4.55,4.55,0,0,1,1.88,1.51,4,4,0,0,1,.6,2.31,4.24,4.24,0,0,1-.82,2.68,5.12,5.12,0,0,1-2.29,1.68A9.6,9.6,0,0,1,340.14,335.69Z"></path><path class="cls-7" d="M350.57,335.44a.53.53,0,0,1-.57-.56V318.75a.57.57,0,0,1,.15-.43.54.54,0,0,1,.42-.16h6.31a8.18,8.18,0,0,1,3.2.59,4.67,4.67,0,0,1,2.09,1.79,5.26,5.26,0,0,1,.74,2.92,5.11,5.11,0,0,1-.74,2.91,4.61,4.61,0,0,1-2.09,1.79,8.18,8.18,0,0,1-3.2.59h-4.4v6.13a.55.55,0,0,1-.16.4.6.6,0,0,1-.44.16Zm1.89-8.81h4.3a4.13,4.13,0,0,0,2.76-.81,3,3,0,0,0,.89-2.37,3.09,3.09,0,0,0-.89-2.38,4,4,0,0,0-2.78-.84h-4.3Z"></path><path class="cls-7" d="M366.52,335.44a.53.53,0,0,1-.57-.56V318.75a.63.63,0,0,1,.15-.43.54.54,0,0,1,.42-.16h10.26a.54.54,0,0,1,.42.16.58.58,0,0,1,.15.43v1a.53.53,0,0,1-.15.41.53.53,0,0,1-.42.15h-8.41v5.41h7.9a.54.54,0,0,1,.42.16.57.57,0,0,1,.15.43v.89a.53.53,0,0,1-.57.56h-7.9v5.61H377a.53.53,0,0,1,.42.15.54.54,0,0,1,.16.42v1a.55.55,0,0,1-.16.4.54.54,0,0,1-.42.16Z"></path><path class="cls-7" d="M387.11,335.69a7.68,7.68,0,0,1-3.79-.84,5.45,5.45,0,0,1-2.27-2.34,8.25,8.25,0,0,1-.85-3.51v-4.39a8.21,8.21,0,0,1,.85-3.51,5.48,5.48,0,0,1,2.27-2.35,7.78,7.78,0,0,1,3.79-.83,8.59,8.59,0,0,1,3,.48,6.45,6.45,0,0,1,2.15,1.25,5.61,5.61,0,0,1,1.8,3.8.46.46,0,0,1-.14.37.52.52,0,0,1-.39.14h-1.36a.55.55,0,0,1-.39-.12.8.8,0,0,1-.24-.44,3.88,3.88,0,0,0-1.57-2.68,5.45,5.45,0,0,0-2.87-.72,4.38,4.38,0,0,0-3.18,1.13,5,5,0,0,0-1.24,3.57c-.05,1.34-.05,2.72,0,4.15a5,5,0,0,0,1.24,3.57,4.42,4.42,0,0,0,3.18,1.12,5.44,5.44,0,0,0,2.87-.71,3.92,3.92,0,0,0,1.57-2.68.86.86,0,0,1,.24-.45.67.67,0,0,1,.39-.12h1.36a.56.56,0,0,1,.39.13.43.43,0,0,1,.14.36,5.49,5.49,0,0,1-1.79,3.8,6.31,6.31,0,0,1-2.15,1.27A8.68,8.68,0,0,1,387.11,335.69Z"></path><rect class="cls-7" x="403" y="159.25" width="140.88" height="17.49" transform="matrix(0.35, -0.94, 0.94, 0.35, 150.07, 552.45)"></rect><polygon class="cls-2" points="456.9 237.07 446.2 248.76 441.09 254.34 440.91 246.78 440.53 230.93 456.9 237.07"></polygon><path class="cls-4" d="M506.91,78.59h0A8.75,8.75,0,0,1,512,89.85h0L505.63,107h0l-16.38-6.13h0l6.41-17.1A8.74,8.74,0,0,1,506.91,78.59Z"></path><polygon class="cls-7" points="446.2 248.76 441.09 254.34 440.91 246.78 446.2 248.76"></polygon><rect class="cls-8" x="325.53" y="346.44" width="144.34" height="2.65" rx="1.32"></rect><rect class="cls-9" x="363.79" y="149.15" width="106.08" height="2.65" rx="1.32"></rect></g></g></svg>