<svg xmlns="http://www.w3.org/2000/svg" xmlns:xlink="http://www.w3.org/1999/xlink" viewBox="0 0 957.73 665"><defs><style>.cls-1{fill:none;}.cls-2{isolation:isolate;}.cls-3{fill:#f8fafc;}.cls-4{fill:url(#linear-gradient);}.cls-5{fill:#28c397;}.cls-13,.cls-6{fill:#cee0f2;}.cls-7{fill:#fff;}.cls-8{fill:#3ab2d0;}.cls-9{fill:#ff603d;}.cls-10{fill:#ff6c37;}.cls-11{fill:#b6c6d6;}.cls-12{fill:url(#linear-gradient-2);}.cls-13,.cls-19,.cls-23{mix-blend-mode:multiply;}.cls-14{fill:url(#linear-gradient-3);}.cls-15{fill:#455666;}.cls-16,.cls-25{fill:#9dc7f2;}.cls-17{fill:#2e2e76;}.cls-18{fill:#0c7ff2;}.cls-19{opacity:0.15;}.cls-20{fill:#0062ff;}.cls-21{fill:#f5f5f5;}.cls-22{clip-path:url(#clip-path);}.cls-23{opacity:0.66;fill:url(#linear-gradient-4);}.cls-24{fill:#f0f7ff;}.cls-25{mix-blend-mode:soft-light;opacity:0.59;}</style><linearGradient id="linear-gradient" y1="492.17" x2="957.73" y2="492.17" gradientUnits="userSpaceOnUse"><stop offset="0" stop-color="#6b7e8f"></stop><stop offset="1" stop-color="#b6c6d6"></stop></linearGradient><linearGradient id="linear-gradient-2" x1="25.16" y1="322.32" x2="241.72" y2="322.32" xlink:href="#linear-gradient"></linearGradient><linearGradient id="linear-gradient-3" x1="399.97" y1="453.68" x2="456.98" y2="197.64" xlink:href="#linear-gradient"></linearGradient><clipPath id="clip-path"><rect class="cls-1" x="399.81" y="179.96" width="192.9" height="227.24" rx="17.58"></rect></clipPath><linearGradient id="linear-gradient-4" x1="403.07" y1="404.25" x2="589.44" y2="404.25" xlink:href="#linear-gradient"></linearGradient></defs><g class="cls-2"><g id="Layer_2" data-name="Layer 2"><g id="Layer_1-2" data-name="Layer 1"><circle class="cls-3" cx="471.17" cy="332.5" r="332.5"></circle><path class="cls-4" d="M914.64,441.46v5.11h-9.31v-5.79H883.91v5.79H874.6v-5.79H853.18v5.79h-9.32v-5.79H822.44v5.79h-9.31v-5.79H791.71v5.79H782.4v-5.79H761v5.79h-9.31v-5.79H730.25v5.79h-9.31v-5.79H699.52v5.79H690.2v-5.79H668.78v5.79h-9.31v-5.79H638.05v5.79h-9.31v-5.79H607.32v5.79H598v-5.79H576.59v5.79h-9.31v-5.79H545.86v5.79h-9.32v-5.79H515.12v5.79h-9.31v-5.79H484.39v5.79h-9.31v-5.79H453.66v5.79h-9.31v-5.79H422.93v5.79h-9.31v-5.79H392.2v5.79h-9.31v-5.79H361.46v5.79h-9.31v-5.79H330.73v5.79h-9.31v-5.79H300v5.79h-9.31v-5.79H269.27v5.79H260v-5.79H238.54v5.79h-9.31v-5.79H207.8v5.79h-9.31v-5.79H177.07v5.79h-9.31v-5.79H146.34v5.79H137v-5.79H115.61v5.79H106.3v-5.79H84.88v5.79H75.57v-5.79H54.14v5.79H44.83v-5.36A51.39,51.39,0,0,0,0,492.17H0a51.39,51.39,0,0,0,51.39,51.4H906.33a51.4,51.4,0,0,0,51.4-51.4h0A51.4,51.4,0,0,0,914.64,441.46Z"></path><path class="cls-5" d="M710,441.48H640.46a5,5,0,0,1-5.07-5V359.4a4.94,4.94,0,0,1,1.23-3.27l17.62-20.26a5.09,5.09,0,0,1,3.85-1.75H710a5,5,0,0,1,5.07,5v97.32A5,5,0,0,1,710,441.48Z"></path><path class="cls-6" d="M656.45,335.35l.22,20.7a.62.62,0,0,1-.63.64l-19.68.33a1.55,1.55,0,0,1-1.12-2.51l18.43-20.15A1.64,1.64,0,0,1,656.45,335.35Z"></path><path class="cls-7" d="M664.25,398.33h-13v.19c0,.12,0,.24,0,.36a.92.92,0,0,1,0,.16c0,.14,0,.28,0,.42s0,.07,0,.1,0,.31,0,.46v.05c0,.17.05.33.07.5h0a21.72,21.72,0,0,0,.67,3.06h0l.15.47v.06c0,.14.09.28.14.42a.49.49,0,0,0,0,.11l.13.36.06.17.12.3a2.29,2.29,0,0,0,.1.23l.09.24a2.55,2.55,0,0,1,.13.29c0,.05.05.11.08.17s.1.23.16.34a1.17,1.17,0,0,0,.05.11l.2.39,0,.06c.07.15.15.29.22.43v0a.41.41,0,0,1,.05.09L665,401.25l0,0a8.74,8.74,0,0,1-.81-2.89Z"></path><path class="cls-7" d="M667.43,404.28l0,0-9.12,9.12.14.13.26.23.13.12.31.26.09.07c.13.11.26.22.4.32l.39.31h0c.56.41,1.12.79,1.71,1.15l.06,0,.34.2.2.11.2.11.36.2,0,0c.33.18.67.34,1,.49l.32-.78,4.59-11.15,0,0a8.54,8.54,0,0,1-1.44-1Z"></path><path class="cls-7" d="M666.48,403.37c-.1-.11-.19-.22-.28-.34l-.24-.3-.25-.36-.24-.37-11.08,6.67c.18.28.35.56.53.83l0,0h0l0,0h0l0,.06h0l.59.84h0l0,0c.08.12.17.24.26.35l0,.05c.09.12.19.24.29.35l.07.09.26.31.12.13c.07.09.15.17.23.26l.13.14.06.07.17.18.07.07.3.31,9.14-9.13-.3-.32Z"></path><path class="cls-7" d="M678.59,404.27l-.3.24,0,0L685,415.6c.31-.2.62-.41.91-.62a21,21,0,0,0,1.87-1.55l-9.12-9.12Z"></path><path class="cls-7" d="M684,415.69l-.22-.37L677.56,405l-.38.21-.4.2a8.73,8.73,0,0,1-3.78.85,8.91,8.91,0,0,1-2.51-.36c-.14,0-.28-.1-.42-.15l-.41-.14-4.59,11.13-.18.44-.15.37h0l0,0h.05l.33.13.41.16.2.08h0A22.34,22.34,0,0,0,670.2,419l.18,0,.18,0,.35,0H671l.43,0h.14l.38,0H673a21.8,21.8,0,0,0,3.61-.3h.06l.38-.07.22,0,.22,0,.37-.08h.06a22,22,0,0,0,5.22-1.95h0l.32-.18.38-.21.26-.15h0v0h0l.09-.05Zm-16.56-25.05.3-.24,0,0-6.66-11.06-.92.63a22.46,22.46,0,0,0-1.86,1.55l9.12,9.12Z"></path><path class="cls-7" d="M657.64,382.08l-.3.32-.3.32a20.35,20.35,0,0,0-1.85,2.29,1,1,0,0,0-.08.11l-.18.27-.19.29-.07.11a21.62,21.62,0,0,0-3.37,10.79c0,.14,0,.29,0,.44v.43H664.2c0-.14,0-.29,0-.43s0-.3,0-.44a8.8,8.8,0,0,1,2-4.71l.3-.32.29-.33Zm26.67-3.2-.06,0-.34-.21-.2-.11-.2-.11-.35-.19-.06,0a20.25,20.25,0,0,0-2.33-1.05l-.06,0-.52-.19a21.64,21.64,0,0,0-4.36-1l-.18,0-.18,0-.35,0H675l-.42,0h-.16l-.36,0h-.19v12.95a8.8,8.8,0,0,1,2,.43l9.54-9.53c-.36-.25-.71-.49-1.08-.71Z"></path><path class="cls-7" d="M672.58,375.73h-.44a20.87,20.87,0,0,0-2.73.28h-.06l-.38.07-.22,0-.22,0-.37.09h-.06a22,22,0,0,0-5.22,1.94c-.11.06-.21.13-.32.18l-.38.22-.28.16h0l-.07,0h0l.23.37,6.44,10.7.38-.21.4-.2a8.6,8.6,0,0,1,2.89-.81l.44,0H673V375.72Z"></path><path class="cls-7" d="M694.73,396.39c0-.12,0-.24,0-.35s0-.12,0-.18,0-.27,0-.41a.34.34,0,0,0,0-.1c0-.15,0-.31,0-.46v0h0c0-.17-.05-.33-.07-.5h0a21.72,21.72,0,0,0-.67-3.06v0l-.15-.46,0-.06c0-.14-.09-.28-.14-.42l0-.11-.13-.36a1.34,1.34,0,0,0-.07-.18c0-.1-.07-.19-.11-.29a2.44,2.44,0,0,0-.1-.24l-.09-.23c0-.1-.09-.19-.13-.29l-.08-.17c0-.11-.11-.23-.16-.35l0-.1c-.07-.13-.13-.27-.2-.4l0,0-.22-.44h0a23.09,23.09,0,0,0-1.24-2l-9.54,9.54a8.8,8.8,0,0,1,.43,2h13a1.28,1.28,0,0,1,0-.19Z"></path><path class="cls-7" d="M681.83,397.45c0,.15,0,.3,0,.44s0,.3,0,.44a8.83,8.83,0,0,1-1.95,4.71c-.09.11-.2.21-.3.32l-.29.33,9.14,9.13.3-.31.3-.32a20.83,20.83,0,0,0,1.85-2.29l.07-.1.2-.29c.06-.09.12-.18.17-.27l.09-.13a21.71,21.71,0,0,0,3.36-10.78c0-.15,0-.29,0-.44s0-.29,0-.44Z"></path><path class="cls-7" d="M698.59,371.88a6.05,6.05,0,0,0-9.7,7L675.7,392a6.05,6.05,0,1,0,2.74,2.74l13.18-13.19a6.05,6.05,0,0,0,7-9.7Z"></path><path class="cls-8" d="M809.17,441.48h-69.5a5,5,0,0,1-5.08-5V359.4a5,5,0,0,1,1.23-3.27l17.62-20.26a5.11,5.11,0,0,1,3.85-1.75h51.88a5,5,0,0,1,5.08,5v97.32A5,5,0,0,1,809.17,441.48Z"></path><path class="cls-6" d="M755.65,335.35l.22,20.7a.61.61,0,0,1-.62.64l-19.68.33a1.55,1.55,0,0,1-1.12-2.51l18.42-20.15A1.64,1.64,0,0,1,755.65,335.35Z"></path><path class="cls-7" d="M757.51,390.67h-8.2l.82,1.31h7.34a3.26,3.26,0,0,1,2.37,1,3.41,3.41,0,0,1,1,2.41,3.2,3.2,0,0,1-1,2.32,4.08,4.08,0,0,1-2.36,1.11h-.9l-2.48,0,.72,1.24h1.09l.05.09h0l3.22,5.43,0,0a.72.72,0,0,0,1.22-.51.4.4,0,0,0-.11-.3s-.05-.06-.1-.14l-2.64-4.5a4.63,4.63,0,0,0,3.24-1.38,4.76,4.76,0,0,0-3.33-8.1Zm11,.13a.64.64,0,0,0-.59-.32.68.68,0,0,0-.59.32l-.08.12a.59.59,0,0,0,.06.56l1.12,1.94,4.3,7.48h-5.71l.79,1.39h5.73l1.73,3h0a.8.8,0,0,0,.66.46.69.69,0,0,0,.69-.7.62.62,0,0,0-.1-.35l-8-13.91Zm33.65,13.57h-7.38v-13.2a.7.7,0,0,0-1.39,0v13.89a.69.69,0,0,0,.69.7H803Zm-14.49-13.22a.69.69,0,0,0-.69-.67h-.11a.63.63,0,0,0-.59.33l-4.59,8.05-4.58-8.05a.64.64,0,0,0-.6-.33.7.7,0,0,0-.59.32l-.07.12a.62.62,0,0,0,.05.56l5.11,9h0a.76.76,0,0,0,.66.45h0a.76.76,0,0,0,.66-.45l3.91-6.87v11.47a.7.7,0,0,0,.7.7.69.69,0,0,0,.69-.7V391.17h0Z"></path><path class="cls-9" d="M906.22,441.48h-69.5a5,5,0,0,1-5.08-5V359.4a4.94,4.94,0,0,1,1.23-3.27l17.62-20.26a5.11,5.11,0,0,1,3.85-1.75h51.88a5.06,5.06,0,0,1,5.08,5v97.32A5.06,5.06,0,0,1,906.22,441.48Z"></path><path class="cls-6" d="M852.7,335.35l.22,20.7a.62.62,0,0,1-.63.64l-19.67.33a1.55,1.55,0,0,1-1.13-2.51l18.43-20.15A1.64,1.64,0,0,1,852.7,335.35Z"></path><path class="cls-7" d="M838.86,415.67l3.84-3.84,5.71,5.71-9.1-.62a.73.73,0,0,1-.63-.81A.52.52,0,0,1,838.86,415.67Z"></path><path class="cls-10" d="M848.41,417.94l-9.15-.62a1.19,1.19,0,0,1-1.07-1.3,1.16,1.16,0,0,1,.36-.71l3.84-3.84a.42.42,0,0,1,.62,0l5.71,5.71a.4.4,0,0,1,.09.49.43.43,0,0,1-.4.27Zm-5.71-5.49L839.18,416a.24.24,0,0,0,0,.4.22.22,0,0,0,.17.09l7.9.53Z"></path><path class="cls-7" d="M883.64,373.91l-18.83,18.83-5.31-5.31C878,368.92,879.85,370.52,883.64,373.91Z"></path><path class="cls-10" d="M864.81,393.19a.41.41,0,0,1-.31-.14l-5.35-5.31a.42.42,0,0,1,0-.62c18.82-18.83,20.79-17,24.76-13.47a.37.37,0,0,1,.13.31.4.4,0,0,1-.13.31l-18.83,18.78a.32.32,0,0,1-.27.14Zm-4.68-5.76,4.68,4.69L883,374C879.67,371,877.44,370.12,860.13,387.43Z"></path><path class="cls-7" d="M870.21,398.14,865.08,393l18.83-18.83C889,379.27,881.41,387.52,870.21,398.14Z"></path><path class="cls-10" d="M870.21,398.59a.41.41,0,0,1-.31-.14l-5.13-5.13a.37.37,0,0,1-.09-.31.39.39,0,0,1,.13-.31l18.83-18.83a.43.43,0,0,1,.63,0A5.45,5.45,0,0,1,886,378c-.09,5-5.72,11.24-15.44,20.43a.75.75,0,0,1-.36.14ZM865.7,393c2.86,2.9,4.06,4.06,4.51,4.5C877.71,390.38,885,383.06,885,378a4.71,4.71,0,0,0-1.16-3.21Z"></path><path class="cls-7" d="M859.59,387.57l3.79,3.79a.17.17,0,0,1,0,.27s0,0-.08,0l-7.86,1.7a.78.78,0,0,1-.84-.63.65.65,0,0,1,.17-.58l4.55-4.55c.09-.09.23-.13.27,0Z"></path><path class="cls-10" d="M855.31,393.81a1.16,1.16,0,0,1-1.16-1.2,1.18,1.18,0,0,1,.36-.85l4.55-4.55a.68.68,0,0,1,.89,0l3.79,3.79a.59.59,0,0,1,0,.89.69.69,0,0,1-.31.18l-7.85,1.7c-.09,0-.18,0-.27,0Zm4.15-5.75-4.37,4.37a.27.27,0,0,0-.05.36.24.24,0,0,0,.31.13l7.37-1.61Z"></path><path class="cls-7" d="M893.59,363.47a7.22,7.22,0,1,0-1.25,11.42l-5.09-5.08Z"></path><path class="cls-10" d="M888.59,376.37a7.68,7.68,0,1,1,5.31-13.21.41.41,0,0,1,.14.31.38.38,0,0,1-.14.31l-6,6,4.73,4.73a.42.42,0,0,1,0,.62l-.09.09A7.51,7.51,0,0,1,888.59,376.37Zm0-14.41a6.76,6.76,0,0,0,0,13.51,6.45,6.45,0,0,0,3-.71l-4.69-4.64a.4.4,0,0,1-.13-.31.39.39,0,0,1,.13-.31l6-6a6.58,6.58,0,0,0-4.33-1.56Z"></path><path class="cls-7" d="M893.72,363.61l-.09-.09-6.38,6.29,5,5a8.07,8.07,0,0,0,1.38-1.07,7.15,7.15,0,0,0,0-10.17Z"></path><path class="cls-10" d="M892.34,375.34a.4.4,0,0,1-.31-.13l-5.09-5.09a.4.4,0,0,1-.13-.31.39.39,0,0,1,.13-.31l6.34-6.34a.42.42,0,0,1,.62,0l.14.09a7.71,7.71,0,0,1,0,10.84,7.36,7.36,0,0,1-1.47,1.16A1.33,1.33,0,0,1,892.34,375.34Zm-4.46-5.53,4.51,4.5a6,6,0,0,0,1-.8,6.8,6.8,0,0,0,.22-9.37Z"></path><path class="cls-7" d="M884.4,374.72a2.75,2.75,0,0,0-3.88,0L863.7,391.54l2.81,2.81,17.8-15.62a2.75,2.75,0,0,0,.27-3.88.56.56,0,0,1-.18-.13Z"></path><path class="cls-10" d="M866.46,394.79a.4.4,0,0,1-.31-.13l-2.81-2.81a.43.43,0,0,1,0-.63l16.82-16.82a3.19,3.19,0,1,1,4.51,4.51l-.14.13-17.8,15.62c0,.09-.13.13-.27.13Zm-2.14-3.25,2.19,2.18L884,378.37a2.31,2.31,0,1,0-3-3.52.7.7,0,0,1-.18.13Z"></path><path class="cls-7" d="M850.8,410.68a.38.38,0,0,0-.22.44l.76,3.22a.85.85,0,0,1-.58,1.11.89.89,0,0,1-1-.27l-4.91-4.86,16-16,5.53.09,3.75,3.75c-.9.76-6.29,6-19.37,12.54Z"></path><path class="cls-10" d="M850.45,415.9a1.24,1.24,0,0,1-.94-.4l-4.86-4.87a.41.41,0,0,1,0-.62l16-16a.49.49,0,0,1,.32-.13l5.53.09a.4.4,0,0,1,.31.13l3.75,3.75a.49.49,0,0,1,.13.35.33.33,0,0,1-.18.32l-.31.26A89.84,89.84,0,0,1,851.07,411l.76,3.17a1.41,1.41,0,0,1-.67,1.52A1.58,1.58,0,0,1,850.45,415.9Zm-4.91-5.58,4.59,4.55a.47.47,0,0,0,.63.18.46.46,0,0,0,.18-.63l-.76-3.21a.82.82,0,0,1,.44-.94,93.23,93.23,0,0,0,19-12.13l-3.31-3.3-5.13-.09Z"></path><path class="cls-10" d="M859.32,396.35a.44.44,0,0,1-.44-.44.39.39,0,0,1,.13-.31l4.33-4.33a.42.42,0,0,1,.62,0l2.82,2.81a.45.45,0,0,1,.13.45.54.54,0,0,1-.36.31l-7.14,1.51Zm4.33-4.14-2.94,2.94,4.82-1Z"></path><path class="cls-7" d="M866.42,394.39l-4.91,1.07a.66.66,0,0,1-.8-.49.64.64,0,0,1,.18-.62l2.72-2.72Z"></path><path class="cls-10" d="M861.42,395.91a1.1,1.1,0,0,1-1.11-1.12,1.26,1.26,0,0,1,.31-.8l2.72-2.72a.42.42,0,0,1,.62,0l2.82,2.81a.45.45,0,0,1,.13.45.54.54,0,0,1-.36.31l-4.91,1.07Zm2.23-3.7-2.41,2.4a.2.2,0,0,0,0,.27.27.27,0,0,0,.27.14l4.1-.9Z"></path><path class="cls-10" d="M893.77,367.89a.52.52,0,1,0-1,.36s0,.09,0,.13a1.66,1.66,0,0,1-.18,1.7.53.53,0,0,0,.05.71.5.5,0,0,0,.71-.09,2.62,2.62,0,0,0,.36-2.81Z"></path><rect class="cls-11" x="44.83" y="304.48" width="174.82" height="136.17" rx="15.51"></rect><path class="cls-12" d="M43.88,305.1,25.62,336.2a3.29,3.29,0,0,0,2.84,5h210a3.3,3.3,0,0,0,2.75-5.11L220.63,305a3.28,3.28,0,0,0-2.75-1.48H46.72A3.3,3.3,0,0,0,43.88,305.1Z"></path><path class="cls-13" d="M160.24,301.16a3.91,3.91,0,0,0-.5,2.08.63.63,0,0,0,0,.24h-52a4,4,0,0,0-.58-2.07l-.79-1.3h54.45Z"></path><rect class="cls-13" x="53.34" y="440.45" width="156.2" height="2.27" rx="0.98"></rect><rect class="cls-13" x="270.58" y="439.64" width="333.37" height="2.27" rx="0.98"></rect><path class="cls-13" d="M911.92,440.78H636.36c-.54,0-.76.64-.49,1.43l.16.46c.27.79.92,1.43,1.46,1.43H913c.54,0,.76-.64.5-1.43l-.16-.46C913.11,441.42,912.46,440.78,911.92,440.78Z"></path><rect class="cls-14" x="265.67" y="144.99" width="340.19" height="295.85" rx="5.88"></rect><path class="cls-15" d="M592.71,195.37V391.81c0,.33,0,.67,0,1a15.38,15.38,0,0,1-15.36,14.39H415.21a15.36,15.36,0,0,1-15.36-14.39c0-.33,0-.67,0-1V195.37A15.4,15.4,0,0,1,415.21,180h162.1A15.4,15.4,0,0,1,592.71,195.37Z"></path><circle class="cls-3" cx="333.12" cy="282.85" r="50.09"></circle><path class="cls-16" d="M355.72,274.41a17.37,17.37,0,0,1-.23,2.81c-1.56,9.88-11.23,17.52-22.92,17.52s-21.39-7.59-22.95-17.52a17.37,17.37,0,0,1-.23-2.81Z"></path><path id="Path_9329" data-name="Path 9329" class="cls-17" d="M312.18,284.49l19.39,19.14a2,2,0,0,0,2.74,0l18.93-19.14a1.94,1.94,0,0,0,0-2.74h0a2,2,0,0,0-1.38-.55H313.55a1.94,1.94,0,0,0-1.93,2A1.89,1.89,0,0,0,312.18,284.49Z"></path><path class="cls-18" d="M363.39,292.79l-17.45,17.47-6.53,6.53-9.4-9.4,3-3,5.48-5.47L354,283.43a1.84,1.84,0,0,1,2.54,0l6.82,6.82A1.84,1.84,0,0,1,363.39,292.79Z"></path><path class="cls-18" d="M335.86,307.12l-3,3.11-6.22,6.44-6.53-6.31-17.87-17.29a1.84,1.84,0,0,1,0-2.54l6.71-6.94a1.8,1.8,0,0,1,2.54,0L327.42,299l5.6,5.42Z"></path><path class="cls-19" d="M345.94,310.26l-6.53,6.53-6.56-6.56-6.22,6.44-6.53-6.31A12.92,12.92,0,0,1,327.42,299l5.6,5.42,5.48-5.47A12.9,12.9,0,0,1,345.94,310.26Z"></path><path id="Path_9331" data-name="Path 9331" class="cls-20" d="M308.45,272.51h0c0-9.77,8-23.28,17.78-23.28h12.5c9.78,0,17.79,13.51,17.79,23.28h0"></path><circle id="Ellipse_703" data-name="Ellipse 703" class="cls-21" cx="322.93" cy="278.34" r="8.97" transform="translate(-91.72 179.24) rotate(-27.32)"></circle><circle id="Ellipse_704" data-name="Ellipse 704" class="cls-20" cx="322.93" cy="278.34" r="4.58" transform="translate(-88.34 166.03) rotate(-25.48)"></circle><circle id="Ellipse_703-2" data-name="Ellipse 703" class="cls-21" cx="342.6" cy="278.34" r="8.97" transform="translate(-89.53 188.27) rotate(-27.32)"></circle><circle id="Ellipse_704-2" data-name="Ellipse 704" class="cls-20" cx="342.6" cy="278.34" r="4.58" transform="translate(-86.43 174.49) rotate(-25.48)"></circle><path class="cls-19" d="M355.72,274.41a17.37,17.37,0,0,1-.23,2.81H309.62a17.37,17.37,0,0,1-.23-2.81Z"></path><path id="Rectangle_1314" data-name="Rectangle 1314" class="cls-17" d="M310.07,268.15h44.84a3.59,3.59,0,0,1,3.6,3.57v0h0a3.6,3.6,0,0,1-3.6,3.6H310.07a3.6,3.6,0,0,1-3.6-3.59h0a3.59,3.59,0,0,1,3.59-3.59h0Z"></path><path id="Rectangle_1317" data-name="Rectangle 1317" class="cls-16" d="M311.6,244.06h0a3.42,3.42,0,0,1,4.5,1.74l4.9,11.09a3.39,3.39,0,0,1-1.73,4.49h0a3.41,3.41,0,0,1-4.49-1.74l-4.91-11.09A3.4,3.4,0,0,1,311.6,244.06Z"></path><path id="Rectangle_1318" data-name="Rectangle 1318" class="cls-16" d="M343.25,256.9l4.91-11.09a3.41,3.41,0,0,1,4.48-1.74h0a3.39,3.39,0,0,1,1.73,4.48h0l-4.9,11.1a3.41,3.41,0,0,1-4.5,1.74h0a3.42,3.42,0,0,1-1.74-4.49Z"></path><circle id="Ellipse_700" data-name="Ellipse 700" class="cls-16" cx="333.02" cy="310.62" r="11.7" transform="translate(-101.25 173.51) rotate(-25.48)"></circle><g class="cls-22"><path class="cls-11" d="M581,214.74a2.59,2.59,0,0,0-2.21-2.52l-4.25-.64a2.59,2.59,0,0,1-1.84-1.23l-6-9.95a2.61,2.61,0,0,1-.22-2.21l1.46-4.07a2.59,2.59,0,0,0-1.19-3.14l-3.4-1.91a2.6,2.6,0,0,0-3.29.63L557.37,193a2.56,2.56,0,0,1-2,1l-11.62.21a2.61,2.61,0,0,1-2-.93l-2.82-3.35a2.59,2.59,0,0,0-3.3-.57l-3.36,2a2.59,2.59,0,0,0-1.12,3.16l1.49,3.92a2.64,2.64,0,0,1-.16,2.18l-5.91,10.65a2.62,2.62,0,0,1-1.79,1.29l-4.21.79a2.62,2.62,0,0,0-2.12,2.6l.08,3.9a2.58,2.58,0,0,0,2.2,2.51L525,223a2.54,2.54,0,0,1,1.83,1.23l2.28,3.78,1.9,3.16,1.31,2.17.5.84a2.53,2.53,0,0,1,.38,1.33,2.48,2.48,0,0,1-.16.88l-1.45,4.07a2.57,2.57,0,0,0,1.17,3.13l3.4,1.92a2.6,2.6,0,0,0,3.3-.64l2.67-3.31a2.64,2.64,0,0,1,2-1l11.62-.2a2.6,2.6,0,0,1,2,.93l2.81,3.35a2.6,2.6,0,0,0,3.3.57l3.37-2a2.59,2.59,0,0,0,1.12-3.17l-1.48-3.92a2.32,2.32,0,0,1-.16-.68.76.76,0,0,1,0-.15A2.48,2.48,0,0,1,567,234l.37-.67,1.2-2.17,1.76-3.16,2.57-4.64a2.61,2.61,0,0,1,1.79-1.29l4.21-.8a2.58,2.58,0,0,0,2.12-2.6Zm-31.2-8.17a10.7,10.7,0,0,1,0,21.39h0a10.7,10.7,0,1,1,0-21.39Z"></path><path class="cls-11" d="M564.41,269.22a2.59,2.59,0,0,0-2.2-2.52l-4.26-.64a2.56,2.56,0,0,1-1.84-1.23l-6-9.94a2.63,2.63,0,0,1-.22-2.22l1.46-4.06a2.6,2.6,0,0,0-1.18-3.15l-3.4-1.9a2.59,2.59,0,0,0-3.29.63l-2.68,3.31a2.56,2.56,0,0,1-2,1l-11.62.2a2.6,2.6,0,0,1-2-.92l-2.81-3.36a2.61,2.61,0,0,0-3.31-.56l-3.36,2a2.59,2.59,0,0,0-1.12,3.16l1.49,3.92a2.6,2.6,0,0,1-.16,2.18L510,265.69a2.56,2.56,0,0,1-1.79,1.29l-4.21.8a2.6,2.6,0,0,0-2.12,2.59l.08,3.9a2.59,2.59,0,0,0,2.21,2.52l4.25.64a2.6,2.6,0,0,1,1.84,1.24l2.27,3.78,1.9,3.16,1.31,2.16.5.84a2.53,2.53,0,0,1,.38,1.33,2.41,2.41,0,0,1-.16.88L515,294.89a2.6,2.6,0,0,0,1.17,3.14l3.4,1.91a2.61,2.61,0,0,0,3.3-.63l2.67-3.31a2.67,2.67,0,0,1,2-1l11.62-.19a2.57,2.57,0,0,1,2,.93l2.8,3.34a2.62,2.62,0,0,0,3.31.58l3.37-2a2.59,2.59,0,0,0,1.12-3.16l-1.49-3.92a2.39,2.39,0,0,1-.16-.69.71.71,0,0,1,0-.15,2.64,2.64,0,0,1,.33-1.34l.37-.68,1.21-2.16,1.75-3.16,2.58-4.64a2.56,2.56,0,0,1,1.78-1.3l4.22-.79a2.58,2.58,0,0,0,2.11-2.6Zm-31.2-8.17a10.7,10.7,0,0,1,0,21.4h0a10.7,10.7,0,0,1,0-21.4Z"></path><path class="cls-11" d="M521.6,312.82a2.12,2.12,0,0,0-1.8-2.05l-3.45-.52a2.09,2.09,0,0,1-1.49-1L510,301.18a2.08,2.08,0,0,1-.18-1.8l1.18-3.3a2.11,2.11,0,0,0-1-2.55L507.29,292a2.09,2.09,0,0,0-2.67.51l-2.17,2.69a2.11,2.11,0,0,1-1.6.77l-9.43.17a2.11,2.11,0,0,1-1.66-.75l-2.28-2.72a2.1,2.1,0,0,0-2.68-.46l-2.73,1.6a2.09,2.09,0,0,0-.91,2.56l1.21,3.18a2.15,2.15,0,0,1-.13,1.77l-4.8,8.64A2.09,2.09,0,0,1,476,311l-3.42.65a2.1,2.1,0,0,0-1.72,2.1l.06,3.17a2.1,2.1,0,0,0,1.8,2l3.45.52a2.09,2.09,0,0,1,1.49,1l1.85,3.07,1.54,2.57,1.06,1.75.41.68a2.11,2.11,0,0,1,.3,1.09,2.21,2.21,0,0,1-.12.71l-1.18,3.3a2.1,2.1,0,0,0,.95,2.55l2.76,1.55a2.13,2.13,0,0,0,2.68-.51l2.17-2.69a2.1,2.1,0,0,1,1.6-.78l9.43-.16a2.08,2.08,0,0,1,1.65.75l2.28,2.72a2.1,2.1,0,0,0,2.68.46l2.74-1.6a2.11,2.11,0,0,0,.91-2.57l-1.21-3.18a2.2,2.2,0,0,1-.13-.55v-.13a2,2,0,0,1,.26-1.09l.3-.55,1-1.75,1.42-2.57,2.09-3.76a2.15,2.15,0,0,1,1.45-1.06l3.42-.64a2.11,2.11,0,0,0,1.72-2.11Zm-25.33-6.63a8.68,8.68,0,0,1,0,17.36h0a8.68,8.68,0,1,1,0-17.36Z"></path><path class="cls-11" d="M623.93,256.26a2.59,2.59,0,0,0-2.21-2.52l-4.25-.64a2.57,2.57,0,0,1-1.84-1.23l-6-10a2.54,2.54,0,0,1-.22-2.21l1.45-4.07a2.59,2.59,0,0,0-1.18-3.14l-3.4-1.9a2.57,2.57,0,0,0-3.29.63l-2.67,3.3a2.59,2.59,0,0,1-2,1l-11.62.21a2.64,2.64,0,0,1-2-.93l-2.81-3.35a2.59,2.59,0,0,0-3.3-.57l-3.37,2A2.6,2.6,0,0,0,574.1,236l1.49,3.92a2.6,2.6,0,0,1-.16,2.18l-5.91,10.65a2.6,2.6,0,0,1-1.78,1.29l-4.22.8a2.58,2.58,0,0,0-2.11,2.59l.07,3.9a2.59,2.59,0,0,0,2.21,2.51l4.26.65a2.59,2.59,0,0,1,1.83,1.23l2.28,3.78,1.9,3.16,1.3,2.17.51.84a2.62,2.62,0,0,1,.37,1.33,2.71,2.71,0,0,1-.15.88l-1.46,4.07a2.59,2.59,0,0,0,1.18,3.14l3.4,1.91a2.59,2.59,0,0,0,3.29-.64l2.68-3.31a2.62,2.62,0,0,1,2-1l11.62-.2a2.61,2.61,0,0,1,2,.93l2.81,3.35a2.59,2.59,0,0,0,3.3.57l3.37-2a2.6,2.6,0,0,0,1.12-3.16l-1.49-3.93a2.69,2.69,0,0,1-.16-.68v-.15a2.57,2.57,0,0,1,.32-1.35l.37-.67,1.21-2.17,1.75-3.16,2.58-4.63a2.57,2.57,0,0,1,1.79-1.3l4.21-.8a2.59,2.59,0,0,0,2.12-2.6Zm-31.21-8.17a10.7,10.7,0,0,1,0,21.39h0a10.7,10.7,0,1,1,0-21.39Z"></path><path class="cls-11" d="M613.71,348.07a4.45,4.45,0,0,0-3.79-4.32l-7.29-1.11a4.38,4.38,0,0,1-3.16-2.1l-10.26-17.06a4.42,4.42,0,0,1-.37-3.8l2.49-7a4.45,4.45,0,0,0-2-5.4l-5.83-3.26a4.45,4.45,0,0,0-5.65,1.08l-4.58,5.68a4.42,4.42,0,0,1-3.39,1.64l-19.93.35a4.49,4.49,0,0,1-3.49-1.58l-4.83-5.75a4.45,4.45,0,0,0-5.66-1l-5.77,3.38a4.44,4.44,0,0,0-1.92,5.42l2.55,6.73a4.43,4.43,0,0,1-.28,3.73L520.4,342a4.45,4.45,0,0,1-3.06,2.22l-7.23,1.36a4.46,4.46,0,0,0-3.63,4.45l.13,6.69a4.43,4.43,0,0,0,3.78,4.31l7.3,1.1a4.46,4.46,0,0,1,3.15,2.12l3.9,6.49,3.27,5.42,2.23,3.71.87,1.44a4.45,4.45,0,0,1,.38,3.8l-2.5,7a4.44,4.44,0,0,0,2,5.38l5.83,3.29a4.46,4.46,0,0,0,5.65-1.09l4.59-5.68a4.5,4.5,0,0,1,3.38-1.66l19.93-.33a4.44,4.44,0,0,1,3.5,1.59l4.81,5.74a4.47,4.47,0,0,0,5.67,1l5.78-3.39a4.46,4.46,0,0,0,1.92-5.42l-2.55-6.73a4.43,4.43,0,0,1-.28-1.17,2.44,2.44,0,0,1,0-.27,4.36,4.36,0,0,1,.56-2.3l.64-1.16,2.07-3.71,3-5.42,4.41-8a4.44,4.44,0,0,1,3.07-2.22l7.22-1.36a4.45,4.45,0,0,0,3.63-4.46Zm-53.52-14a18.35,18.35,0,0,1,0,36.7h0a18.35,18.35,0,0,1,.07-36.7Z"></path></g><path class="cls-23" d="M589.44,401.29a15.36,15.36,0,0,1-12.13,5.91H415.21a15.38,15.38,0,0,1-12.14-5.91Z"></path><circle class="cls-24" cx="44.83" cy="492.17" r="26.13"></circle><circle class="cls-24" cx="901.5" cy="492.17" r="26.13"></circle><rect class="cls-24" x="44.83" y="483.64" width="856.67" height="17.07" rx="8.54"></rect><rect class="cls-25" x="48.95" y="304.25" width="173.59" height="3.6" rx="1.8"></rect><rect class="cls-25" x="48.95" y="437.84" width="173.59" height="3.6" rx="1.8"></rect><rect class="cls-25" x="280.87" y="143.75" width="304.15" height="6.43" rx="1.8"></rect></g></g></g></svg>