<svg xmlns="http://www.w3.org/2000/svg" viewBox="0 0 783.37 468.87"><defs><style>.cls-1{isolation:isolate;}.cls-2{fill:#f8fafc;}.cls-3{fill:#0c7ff2;}.cls-4{fill:#9dc7f2;}.cls-5{fill:#fff;}.cls-6{fill:#2e2e76;}.cls-7,.cls-9{fill:#cee0f2;}.cls-8{fill:#9caab8;mix-blend-mode:multiply;opacity:0.48;}.cls-9{mix-blend-mode:overlay;opacity:0.18;}</style></defs><g class="cls-1"><g id="Layer_2" data-name="Layer 2"><g id="Layer_1-2" data-name="Layer 1"><rect id="rect201" class="cls-2" width="783.37" height="468.87"></rect><path class="cls-3" d="M491.52,451.67H303.17c-7.59,0-13.75-5.77-13.75-12.88V240.86a12.44,12.44,0,0,1,3.32-8.4l47.77-52a14.15,14.15,0,0,1,10.43-4.49H491.52c7.6,0,13.76,5.77,13.76,12.89v250C505.28,445.9,499.12,451.67,491.52,451.67Z"></path><path class="cls-4" d="M344.22,178.41v56.47A1.16,1.16,0,0,1,343,236l-50.52-.85a1.16,1.16,0,0,1-.84-1.94l50.52-55.63A1.16,1.16,0,0,1,344.22,178.41Z"></path><rect class="cls-5" x="298.78" y="346.67" width="170.14" height="95.77" rx="10.43"></rect><path class="cls-6" d="M311.7,388.63a.91.91,0,0,1-.65-.29.87.87,0,0,1-.29-.65,1.64,1.64,0,0,1,0-.4l10.57-28.7a1.89,1.89,0,0,1,.56-.87,1.75,1.75,0,0,1,1.19-.38h6.66a1.73,1.73,0,0,1,1.19.38,1.81,1.81,0,0,1,.56.87l10.53,28.7a.87.87,0,0,1,.09.4.91.91,0,0,1-.29.65,1,1,0,0,1-.7.29h-5.53a1.34,1.34,0,0,1-1-.34,1.58,1.58,0,0,1-.43-.6l-1.76-4.56h-12l-1.71,4.56a1.73,1.73,0,0,1-.41.6,1.41,1.41,0,0,1-1.08.34Zm10.57-11.94h8.37l-4.19-11.79Z"></path><path class="cls-6" d="M346.83,388.63a1,1,0,0,1-.81-.34,1.1,1.1,0,0,1-.32-.78V358.46a1.1,1.1,0,0,1,.32-.81,1.13,1.13,0,0,1,.81-.31h12.59a17,17,0,0,1,6.5,1.14,9.46,9.46,0,0,1,4.32,3.42,10.06,10.06,0,0,1,1.55,5.77,9.75,9.75,0,0,1-1.55,5.67,9.13,9.13,0,0,1-4.32,3.31,17.82,17.82,0,0,1-6.5,1.07h-5.35v9.79a1,1,0,0,1-.34.78,1.1,1.1,0,0,1-.83.34Zm7.1-17.07h5.27a4.58,4.58,0,0,0,3.08-1,3.72,3.72,0,0,0,1.14-3,4.24,4.24,0,0,0-1-2.86,4,4,0,0,0-3.23-1.17h-5.27Z"></path><path class="cls-6" d="M377.23,388.63a1,1,0,0,1-.81-.34,1.09,1.09,0,0,1-.31-.78V358.46a1.09,1.09,0,0,1,.31-.81,1.13,1.13,0,0,1,.81-.31h6a1.2,1.2,0,0,1,.83.31,1,1,0,0,1,.34.81v29.05a1,1,0,0,1-.34.78,1.1,1.1,0,0,1-.83.34Z"></path><path class="cls-6" d="M324.38,428.67a15.88,15.88,0,0,1-6.56-1.21,10.19,10.19,0,0,1-4.07-3.11,7.07,7.07,0,0,1-1.51-4,.92.92,0,0,1,.29-.65,1,1,0,0,1,.7-.29h2.29a1.1,1.1,0,0,1,.81.27,1.34,1.34,0,0,1,.36.63,5.56,5.56,0,0,0,1.13,2.12,6.27,6.27,0,0,0,2.45,1.74,10.23,10.23,0,0,0,4.11.7q3.87,0,5.69-1.37a4.3,4.3,0,0,0,1.82-3.64,3.45,3.45,0,0,0-1-2.53,8.62,8.62,0,0,0-2.95-1.72q-2-.75-5.13-1.65a29.71,29.71,0,0,1-5.44-2.06,8,8,0,0,1-3.21-2.77,7.61,7.61,0,0,1-1.06-4.2,7.41,7.41,0,0,1,1.3-4.31,8.89,8.89,0,0,1,3.78-3,14.44,14.44,0,0,1,5.94-1.12,14.73,14.73,0,0,1,4.88.74,10.45,10.45,0,0,1,3.48,2,9.13,9.13,0,0,1,2.12,2.63,6.52,6.52,0,0,1,.76,2.75,1,1,0,0,1-.22.61.86.86,0,0,1-.72.29h-2.39a1.39,1.39,0,0,1-.65-.18,1.18,1.18,0,0,1-.52-.67,4.53,4.53,0,0,0-2.06-3.09,8.06,8.06,0,0,0-4.68-1.25,9,9,0,0,0-4.75,1.12,3.81,3.81,0,0,0-1.82,3.49,3.76,3.76,0,0,0,.86,2.52,7,7,0,0,0,2.7,1.77,48.49,48.49,0,0,0,4.81,1.61,36.38,36.38,0,0,1,5.89,2.07,8.36,8.36,0,0,1,3.4,2.73,7.36,7.36,0,0,1,1.1,4.18,7.82,7.82,0,0,1-1.49,4.81,9.18,9.18,0,0,1-4.16,3A17,17,0,0,1,324.38,428.67Z"></path><path class="cls-6" d="M343.27,428.22a1,1,0,0,1-.76-.29,1.05,1.05,0,0,1-.27-.74V398a1.1,1.1,0,0,1,.27-.78,1,1,0,0,1,.76-.29H354.7a14.44,14.44,0,0,1,5.78,1.07,8.37,8.37,0,0,1,3.8,3.2,9.68,9.68,0,0,1,1.35,5.3,9.57,9.57,0,0,1-1.35,5.27,8.37,8.37,0,0,1-3.8,3.17A14.26,14.26,0,0,1,354.7,416h-8v11.17a1,1,0,0,1-.3.74,1.06,1.06,0,0,1-.78.29Zm3.42-16h7.78a7.37,7.37,0,0,0,5-1.47,5.48,5.48,0,0,0,1.66-4.29,5.62,5.62,0,0,0-1.62-4.3q-1.62-1.51-5-1.51h-7.78Z"></path><path class="cls-6" d="M372.15,428.22a1,1,0,0,1-.77-.29,1.05,1.05,0,0,1-.27-.74V398a1.1,1.1,0,0,1,.27-.78,1,1,0,0,1,.77-.29h18.58a1,1,0,0,1,.76.29,1.1,1.1,0,0,1,.27.78v1.7a.94.94,0,0,1-1,1h-15.3v9.79h14.31a1,1,0,0,1,.76.29,1.09,1.09,0,0,1,.27.78v1.65a1,1,0,0,1-.27.74,1,1,0,0,1-.76.29H375.43v10.15h15.65a1,1,0,0,1,.77.27,1,1,0,0,1,.27.76v1.74a1.05,1.05,0,0,1-.27.74,1,1,0,0,1-.77.29Z"></path><path class="cls-6" d="M409.39,428.67a14,14,0,0,1-6.86-1.52,10,10,0,0,1-4.11-4.25,15,15,0,0,1-1.53-6.35c0-1.22-.05-2.53-.05-3.93s0-2.74.05-4a15,15,0,0,1,1.53-6.35,10,10,0,0,1,4.11-4.25,14,14,0,0,1,6.86-1.52,16.06,16.06,0,0,1,5.44.85,11.46,11.46,0,0,1,3.89,2.28,9.89,9.89,0,0,1,3.26,6.84.76.76,0,0,1-.24.67,1,1,0,0,1-.7.27h-2.47a1.1,1.1,0,0,1-.7-.22,1.35,1.35,0,0,1-.43-.81c-.51-2.32-1.46-3.92-2.85-4.78a9.67,9.67,0,0,0-5.2-1.3,8,8,0,0,0-5.76,2q-2.11,2-2.25,6.5c-.09,2.44-.09,4.95,0,7.51q.14,4.47,2.25,6.5a8,8,0,0,0,5.76,2,9.76,9.76,0,0,0,5.2-1.3c1.39-.86,2.34-2.46,2.85-4.78a1.35,1.35,0,0,1,.43-.81,1.1,1.1,0,0,1,.7-.22H421a1,1,0,0,1,.7.25.69.69,0,0,1,.24.64,10,10,0,0,1-.9,3.67,9.8,9.8,0,0,1-2.36,3.22,11.46,11.46,0,0,1-3.89,2.28A16.06,16.06,0,0,1,409.39,428.67Z"></path><path class="cls-7" d="M258,235.94H129.59c-5.18,0-9.38-3.93-9.38-8.78V92.2a8.46,8.46,0,0,1,2.27-5.73L155.05,51a9.66,9.66,0,0,1,7.11-3.06H258c5.18,0,9.38,3.94,9.38,8.79V227.16C267.4,232,263.2,235.94,258,235.94Z"></path><rect class="cls-6" x="142.73" y="94.07" width="74.84" height="8.7"></rect><rect class="cls-6" x="142.73" y="114.23" width="102.11" height="8.7"></rect><rect class="cls-6" x="142.73" y="134.38" width="79.48" height="8.7"></rect><rect class="cls-6" x="142.73" y="154.54" width="96.89" height="8.7"></rect><path class="cls-7" d="M277.94,327.89v11.34H203.49a18,18,0,0,1-18-18V246.79h11.35V319a8.9,8.9,0,0,0,8.89,8.9Z"></path><path class="cls-7" d="M670.07,235.94H541.64c-5.18,0-9.38-3.93-9.38-8.78V92.2a8.46,8.46,0,0,1,2.27-5.73L567.1,51a9.66,9.66,0,0,1,7.11-3.06h95.86c5.18,0,9.38,3.94,9.38,8.79V227.16C679.45,232,675.25,235.94,670.07,235.94Z"></path><rect class="cls-6" x="554.78" y="94.07" width="74.84" height="8.7"></rect><rect class="cls-6" x="554.78" y="114.23" width="102.11" height="8.7"></rect><rect class="cls-6" x="554.78" y="134.38" width="79.48" height="8.7"></rect><rect class="cls-6" x="554.78" y="154.54" width="96.89" height="8.7"></rect><path class="cls-7" d="M513.42,327.89v11.34h70.93a21.51,21.51,0,0,0,21.51-21.51V246.79H594.51v70a11.09,11.09,0,0,1-11.08,11.09Z"></path><rect class="cls-8" x="301.58" y="446.95" width="193.86" height="4.72" rx="2.36"></rect><rect class="cls-9" x="344.22" y="177.24" width="151.22" height="4.72" rx="2.36"></rect></g></g></g></svg>