<svg xmlns="http://www.w3.org/2000/svg" viewBox="0 0 783.37 468.87"><defs><style>.cls-1{isolation:isolate;}.cls-2{fill:#f8fafc;}.cls-3{fill:#cee0f2;}.cls-4,.cls-9{fill:#9caab8;mix-blend-mode:multiply;opacity:0.48;}.cls-4{fill-rule:evenodd;}.cls-5,.cls-8{fill:#9dc7f2;}.cls-6{fill:#2e2e76;}.cls-7{fill:#0c7ff2;}.cls-8{mix-blend-mode:soft-light;opacity:0.59;}</style></defs><g class="cls-1"><g id="Layer_2" data-name="Layer 2"><g id="Layer_1-2" data-name="Layer 1"><rect id="rect201" class="cls-2" width="783.37" height="468.87"></rect><path class="cls-3" d="M148.66,105.35H574.41a0,0,0,0,1,0,0v261.9a35.93,35.93,0,0,1-35.93,35.93H184.6a35.93,35.93,0,0,1-35.93-35.93V105.35A0,0,0,0,1,148.66,105.35Z"></path><polygon class="cls-4" points="508.1 392.08 541.9 365.48 575.42 280.4 574.41 234.44 508.1 392.08"></polygon><rect class="cls-5" x="290.65" y="137.19" width="202.07" height="11.26" rx="1.6"></rect><rect class="cls-5" x="290.65" y="175.93" width="183.22" height="11.26" rx="1.6"></rect><rect class="cls-5" x="290.65" y="214.67" width="211.94" height="11.26" rx="1.6"></rect><path class="cls-6" d="M147.5,92.22H257.67a0,0,0,0,1,0,0V403.76a0,0,0,0,1,0,0H179.44a31.94,31.94,0,0,1-31.94-31.94V92.22A0,0,0,0,1,147.5,92.22Z"></path><path class="cls-7" d="M174.68,65.11H547.24a27.4,27.4,0,0,1,27.4,27.4v17.34a0,0,0,0,1,0,0H147.29a0,0,0,0,1,0,0V92.51A27.4,27.4,0,0,1,174.68,65.11Z"></path><rect class="cls-6" x="550.17" y="112.43" width="31.2" height="251.33" transform="translate(119.47 -183.33) rotate(20.53)"></rect><polygon class="cls-2" points="536.3 361.25 517.21 382.12 508.1 392.08 507.78 378.59 507.09 350.31 536.3 361.25"></polygon><path class="cls-7" d="M612.36,77.08h9.37A10.92,10.92,0,0,1,632.65,88v37.27a0,0,0,0,1,0,0h-31.2a0,0,0,0,1,0,0V88a10.92,10.92,0,0,1,10.92-10.92Z" transform="translate(74.69 -210.01) rotate(20.53)"></path><polygon class="cls-6" points="517.21 382.12 508.1 392.08 507.78 378.59 517.21 382.12"></polygon><rect class="cls-8" x="167.35" y="65.73" width="393.06" height="5.23" rx="2.61"></rect><rect class="cls-9" x="148.66" y="108.58" width="425.75" height="5.23" rx="2.61"></rect></g></g></g></svg>