<svg xmlns:inkscape="http://www.inkscape.org/namespaces/inkscape" xmlns:sodipodi="http://sodipodi.sourceforge.net/DTD/sodipodi-0.dtd" xmlns="http://www.w3.org/2000/svg" xmlns:svg="http://www.w3.org/2000/svg" viewBox="0 0 783.37 468.87" id="svg59" sodipodi:docname="APIDesigner-Merging.svg" inkscape:version="1.1.1 (3bf5ae0d25, 2021-09-20)"><defs id="defs4"><style id="style2">.cls-1{isolation:isolate;}.cls-2{fill:#f8fafc;}.cls-3{fill:#0c7ff2;}.cls-4{fill:#9dc7f2;}.cls-5{fill:#fff;}.cls-6{fill:#2e2e76;}.cls-7,.cls-9{fill:#cee0f2;}.cls-8{fill:#9caab8;mix-blend-mode:multiply;opacity:0.48;}.cls-9{mix-blend-mode:overlay;opacity:0.18;}</style></defs><g class="cls-1" id="g57" transform="translate(-106)"><g id="Layer_2" data-name="Layer 2"><g id="Layer_1-2" data-name="Layer 1"><rect id="rect201" class="cls-2" width="783.37" height="468.87" x="0" y="0"></rect><path class="cls-3" d="M 491.52,451.67 H 303.17 c -7.59,0 -13.75,-5.77 -13.75,-12.88 V 240.86 a 12.44,12.44 0 0 1 3.32,-8.4 l 47.77,-52 a 14.15,14.15 0 0 1 10.43,-4.49 h 140.58 c 7.6,0 13.76,5.77 13.76,12.89 v 250 c 0,7.04 -6.16,12.81 -13.76,12.81 z" id="path7"></path><path class="cls-4" d="m 344.22,178.41 v 56.47 A 1.16,1.16 0 0 1 343,236 l -50.52,-0.85 a 1.16,1.16 0 0 1 -0.84,-1.94 l 50.52,-55.63 a 1.16,1.16 0 0 1 2.06,0.83 z" id="path9"></path><rect class="cls-5" x="298.78" y="346.67001" width="170.14" height="95.769997" rx="10.43" id="rect11"></rect><path class="cls-6" d="m 311.7,388.63 a 0.91,0.91 0 0 1 -0.65,-0.29 0.87,0.87 0 0 1 -0.29,-0.65 1.64,1.64 0 0 1 0,-0.4 l 10.57,-28.7 a 1.89,1.89 0 0 1 0.56,-0.87 1.75,1.75 0 0 1 1.19,-0.38 h 6.66 a 1.73,1.73 0 0 1 1.19,0.38 1.81,1.81 0 0 1 0.56,0.87 l 10.53,28.7 a 0.87,0.87 0 0 1 0.09,0.4 0.91,0.91 0 0 1 -0.29,0.65 1,1 0 0 1 -0.7,0.29 h -5.53 a 1.34,1.34 0 0 1 -1,-0.34 1.58,1.58 0 0 1 -0.43,-0.6 l -1.76,-4.56 h -12 l -1.71,4.56 a 1.73,1.73 0 0 1 -0.41,0.6 1.41,1.41 0 0 1 -1.08,0.34 z m 10.57,-11.94 h 8.37 l -4.19,-11.79 z" id="path13"></path><path class="cls-6" d="m 346.83,388.63 a 1,1 0 0 1 -0.81,-0.34 1.1,1.1 0 0 1 -0.32,-0.78 v -29.05 a 1.1,1.1 0 0 1 0.32,-0.81 1.13,1.13 0 0 1 0.81,-0.31 h 12.59 a 17,17 0 0 1 6.5,1.14 9.46,9.46 0 0 1 4.32,3.42 10.06,10.06 0 0 1 1.55,5.77 9.75,9.75 0 0 1 -1.55,5.67 9.13,9.13 0 0 1 -4.32,3.31 17.82,17.82 0 0 1 -6.5,1.07 h -5.35 v 9.79 a 1,1 0 0 1 -0.34,0.78 1.1,1.1 0 0 1 -0.83,0.34 z m 7.1,-17.07 h 5.27 a 4.58,4.58 0 0 0 3.08,-1 3.72,3.72 0 0 0 1.14,-3 4.24,4.24 0 0 0 -1,-2.86 4,4 0 0 0 -3.23,-1.17 h -5.27 z" id="path15"></path><path class="cls-6" d="m 377.23,388.63 a 1,1 0 0 1 -0.81,-0.34 1.09,1.09 0 0 1 -0.31,-0.78 v -29.05 a 1.09,1.09 0 0 1 0.31,-0.81 1.13,1.13 0 0 1 0.81,-0.31 h 6 a 1.2,1.2 0 0 1 0.83,0.31 1,1 0 0 1 0.34,0.81 v 29.05 a 1,1 0 0 1 -0.34,0.78 1.1,1.1 0 0 1 -0.83,0.34 z" id="path17"></path><path class="cls-6" d="m 324.38,428.67 a 15.88,15.88 0 0 1 -6.56,-1.21 10.19,10.19 0 0 1 -4.07,-3.11 7.07,7.07 0 0 1 -1.51,-4 0.92,0.92 0 0 1 0.29,-0.65 1,1 0 0 1 0.7,-0.29 h 2.29 a 1.1,1.1 0 0 1 0.81,0.27 1.34,1.34 0 0 1 0.36,0.63 5.56,5.56 0 0 0 1.13,2.12 6.27,6.27 0 0 0 2.45,1.74 10.23,10.23 0 0 0 4.11,0.7 q 3.87,0 5.69,-1.37 a 4.3,4.3 0 0 0 1.82,-3.64 3.45,3.45 0 0 0 -1,-2.53 8.62,8.62 0 0 0 -2.95,-1.72 q -2,-0.75 -5.13,-1.65 a 29.71,29.71 0 0 1 -5.44,-2.06 8,8 0 0 1 -3.21,-2.77 7.61,7.61 0 0 1 -1.06,-4.2 7.41,7.41 0 0 1 1.3,-4.31 8.89,8.89 0 0 1 3.78,-3 14.44,14.44 0 0 1 5.94,-1.12 14.73,14.73 0 0 1 4.88,0.74 10.45,10.45 0 0 1 3.48,2 9.13,9.13 0 0 1 2.12,2.63 6.52,6.52 0 0 1 0.76,2.75 1,1 0 0 1 -0.22,0.61 0.86,0.86 0 0 1 -0.72,0.29 h -2.39 a 1.39,1.39 0 0 1 -0.65,-0.18 1.18,1.18 0 0 1 -0.52,-0.67 4.53,4.53 0 0 0 -2.06,-3.09 8.06,8.06 0 0 0 -4.68,-1.25 9,9 0 0 0 -4.75,1.12 3.81,3.81 0 0 0 -1.82,3.49 3.76,3.76 0 0 0 0.86,2.52 7,7 0 0 0 2.7,1.77 48.49,48.49 0 0 0 4.81,1.61 36.38,36.38 0 0 1 5.89,2.07 8.36,8.36 0 0 1 3.4,2.73 7.36,7.36 0 0 1 1.1,4.18 7.82,7.82 0 0 1 -1.49,4.81 9.18,9.18 0 0 1 -4.16,3 17,17 0 0 1 -6.28,1.04 z" id="path19"></path><path class="cls-6" d="m 343.27,428.22 a 1,1 0 0 1 -0.76,-0.29 1.05,1.05 0 0 1 -0.27,-0.74 V 398 a 1.1,1.1 0 0 1 0.27,-0.78 1,1 0 0 1 0.76,-0.29 h 11.43 a 14.44,14.44 0 0 1 5.78,1.07 8.37,8.37 0 0 1 3.8,3.2 9.68,9.68 0 0 1 1.35,5.3 9.57,9.57 0 0 1 -1.35,5.27 8.37,8.37 0 0 1 -3.8,3.17 14.26,14.26 0 0 1 -5.78,1.06 h -8 v 11.17 a 1,1 0 0 1 -0.3,0.74 1.06,1.06 0 0 1 -0.78,0.29 z m 3.42,-16 h 7.78 a 7.37,7.37 0 0 0 5,-1.47 5.48,5.48 0 0 0 1.66,-4.29 5.62,5.62 0 0 0 -1.62,-4.3 q -1.62,-1.51 -5,-1.51 h -7.78 z" id="path21"></path><path class="cls-6" d="m 372.15,428.22 a 1,1 0 0 1 -0.77,-0.29 1.05,1.05 0 0 1 -0.27,-0.74 V 398 a 1.1,1.1 0 0 1 0.27,-0.78 1,1 0 0 1 0.77,-0.29 h 18.58 a 1,1 0 0 1 0.76,0.29 1.1,1.1 0 0 1 0.27,0.78 v 1.7 a 0.94,0.94 0 0 1 -1,1 h -15.3 v 9.79 h 14.31 a 1,1 0 0 1 0.76,0.29 1.09,1.09 0 0 1 0.27,0.78 v 1.65 a 1,1 0 0 1 -0.27,0.74 1,1 0 0 1 -0.76,0.29 h -14.34 v 10.15 h 15.65 a 1,1 0 0 1 0.77,0.27 1,1 0 0 1 0.27,0.76 v 1.74 a 1.05,1.05 0 0 1 -0.27,0.74 1,1 0 0 1 -0.77,0.29 z" id="path23"></path><path class="cls-6" d="m 409.39,428.67 a 14,14 0 0 1 -6.86,-1.52 10,10 0 0 1 -4.11,-4.25 15,15 0 0 1 -1.53,-6.35 c 0,-1.22 -0.05,-2.53 -0.05,-3.93 0,-1.4 0,-2.74 0.05,-4 a 15,15 0 0 1 1.53,-6.35 10,10 0 0 1 4.11,-4.25 14,14 0 0 1 6.86,-1.52 16.06,16.06 0 0 1 5.44,0.85 11.46,11.46 0 0 1 3.89,2.28 9.89,9.89 0 0 1 3.26,6.84 0.76,0.76 0 0 1 -0.24,0.67 1,1 0 0 1 -0.7,0.27 h -2.47 a 1.1,1.1 0 0 1 -0.7,-0.22 1.35,1.35 0 0 1 -0.43,-0.81 c -0.51,-2.32 -1.46,-3.92 -2.85,-4.78 a 9.67,9.67 0 0 0 -5.2,-1.3 8,8 0 0 0 -5.76,2 q -2.11,2 -2.25,6.5 c -0.09,2.44 -0.09,4.95 0,7.51 q 0.14,4.47 2.25,6.5 a 8,8 0 0 0 5.76,2 9.76,9.76 0 0 0 5.2,-1.3 c 1.39,-0.86 2.34,-2.46 2.85,-4.78 a 1.35,1.35 0 0 1 0.43,-0.81 1.1,1.1 0 0 1 0.7,-0.22 H 421 a 1,1 0 0 1 0.7,0.25 0.69,0.69 0 0 1 0.24,0.64 10,10 0 0 1 -0.9,3.67 9.8,9.8 0 0 1 -2.36,3.22 11.46,11.46 0 0 1 -3.89,2.28 16.06,16.06 0 0 1 -5.4,0.91 z" id="path25"></path><path class="cls-7" d="M 258,235.94 H 129.59 c -5.18,0 -9.38,-3.93 -9.38,-8.78 V 92.2 a 8.46,8.46 0 0 1 2.27,-5.73 L 155.05,51 a 9.66,9.66 0 0 1 7.11,-3.06 H 258 c 5.18,0 9.38,3.94 9.38,8.79 v 170.43 c 0.02,4.84 -4.18,8.78 -9.38,8.78 z" id="path27"></path><rect class="cls-6" x="142.73" y="94.07" width="74.839996" height="8.6999998" id="rect29"></rect><rect class="cls-6" x="142.73" y="114.23" width="102.11" height="8.6999998" id="rect31"></rect><rect class="cls-6" x="142.73" y="134.38" width="79.480003" height="8.6999998" id="rect33"></rect><rect class="cls-6" x="142.73" y="154.53999" width="96.889999" height="8.6999998" id="rect35"></rect><path class="cls-7" d="m 277.94,327.89 v 11.34 h -74.45 a 18,18 0 0 1 -18,-18 v -74.44 h 11.35 V 319 a 8.9,8.9 0 0 0 8.89,8.9 z" id="path37"></path><path class="cls-7" d="M 670.07,235.94 H 541.64 c -5.18,0 -9.38,-3.93 -9.38,-8.78 V 92.2 a 8.46,8.46 0 0 1 2.27,-5.73 L 567.1,51 a 9.66,9.66 0 0 1 7.11,-3.06 h 95.86 c 5.18,0 9.38,3.94 9.38,8.79 v 170.43 c 0,4.84 -4.2,8.78 -9.38,8.78 z" id="path39"></path><rect class="cls-6" x="554.78003" y="94.07" width="74.839996" height="8.6999998" id="rect41"></rect><rect class="cls-6" x="554.78003" y="114.23" width="102.11" height="8.6999998" id="rect43"></rect><rect class="cls-6" x="554.78003" y="134.38" width="79.480003" height="8.6999998" id="rect45"></rect><rect class="cls-6" x="554.78003" y="154.53999" width="96.889999" height="8.6999998" id="rect47"></rect><path class="cls-7" d="m 513.42,327.89 v 11.34 h 70.93 a 21.51,21.51 0 0 0 21.51,-21.51 v -70.93 h -11.35 v 70 a 11.09,11.09 0 0 1 -11.08,11.09 z" id="path49"></path><rect class="cls-8" x="301.57999" y="446.95001" width="193.86" height="4.7199998" rx="2.3599999" id="rect51"></rect><rect class="cls-9" x="344.22" y="177.24001" width="151.22" height="4.7199998" rx="2.3599999" id="rect53"></rect></g></g></g></svg>