<svg xmlns="http://www.w3.org/2000/svg" viewBox="0 0 783.37 470.82"><defs><style>.cls-1{isolation:isolate;}.cls-2{fill:#f8fafc;fill-rule:evenodd;}.cls-3{fill:#cee0f2;}.cls-4{fill:#0c7ff2;}.cls-5{fill:#2e2e76;}.cls-6{font-size:73.16px;font-family:Rubik-Medium, Rubik;font-weight:500;}.cls-6,.cls-8{fill:#fff;}.cls-10,.cls-7{fill:#9dc7f2;}.cls-11,.cls-9{mix-blend-mode:multiply;}.cls-9{opacity:0.18;}.cls-10{mix-blend-mode:soft-light;opacity:0.59;}.cls-11{fill:#9caab8;opacity:0.48;}</style></defs><g class="cls-1"><g id="Layer_2" data-name="Layer 2"><g id="Layer_1-2" data-name="Layer 1"><polygon id="rect201" class="cls-2" points="0 1.95 783.37 0 783.37 468.87 0 470.82 0 1.95"></polygon><path class="cls-3" d="M632.65,98.53v282A32.48,32.48,0,0,1,600.17,413H227.84a57,57,0,0,1-57-57V98.53Z"></path><path class="cls-4" d="M196.65,50h410.2a25.79,25.79,0,0,1,25.79,25.79V98.52a0,0,0,0,1,0,0H170.85a0,0,0,0,1,0,0V75.79A25.79,25.79,0,0,1,196.65,50Z"></path><path class="cls-5" d="M235.18,134.84H566.53a4.49,4.49,0,0,1,4.49,4.49V413a0,0,0,0,1,0,0H230.69a0,0,0,0,1,0,0V139.33A4.49,4.49,0,0,1,235.18,134.84Z"></path><text class="cls-6" transform="translate(252.64 223.4) scale(1.01 1)"><tspan xml:space="preserve">&lt;             &gt;</tspan></text><rect class="cls-7" x="295.2" y="264.21" width="213.55" height="12.03" rx="1.34"></rect><rect class="cls-7" x="295.2" y="303" width="213.55" height="12.03" rx="1.34"></rect><rect class="cls-7" x="295.2" y="340.3" width="213.55" height="12.03" rx="1.34"></rect><rect class="cls-7" x="313.76" y="194.75" width="171.79" height="12.03" rx="1.34"></rect><circle class="cls-8" cx="156.82" cy="359.09" r="43.09"></circle><g class="cls-9"><path d="M263,346.49a7,7,0,0,0-5.94-6.8L245.59,338a7.09,7.09,0,0,1-5-3.33l-16.17-26.9a7,7,0,0,1-.59-6l4-11a7.08,7.08,0,0,0-3.2-8.47l-9.19-5.18a7.07,7.07,0,0,0-8.92,1.72l-7.2,9a6.92,6.92,0,0,1-5.36,2.57l-23.07.45V325.5a28.22,28.22,0,0,1,7.84-1.08,28.92,28.92,0,0,1-.09,57.84,12.18,12.18,0,0,1-1.35-.05A56.88,56.88,0,0,0,227.84,413h.32l-3.24-8.61a7.12,7.12,0,0,1,.4-5.9l16-28.78a7,7,0,0,1,4.82-3.47l11.4-2.16a7,7,0,0,0,5.72-7Z"></path></g><path class="cls-5" d="M77.86,362.84a7,7,0,0,0,6,6.81l11.5,1.73a7,7,0,0,1,5,3.33l16.18,26.88a7,7,0,0,1,.59,6l-3.93,11a7,7,0,0,0,3.17,8.49l9.2,5.16a7,7,0,0,0,8.9-1.72l7.23-8.93A7,7,0,0,1,147,419l31.41-.54a7,7,0,0,1,5.49,2.51l7.6,9a7,7,0,0,0,8.92,1.56l9.11-5.33a7,7,0,0,0,3-8.56l-4-10.59a7,7,0,0,1,.43-5.9l16-28.75a7,7,0,0,1,4.83-3.5l11.38-2.15a7,7,0,0,0,5.72-7l-.2-10.53a7,7,0,0,0-6-6.81l-11.49-1.74a7,7,0,0,1-5-3.32l-16.16-26.89a7,7,0,0,1-.6-6l3.94-11A7,7,0,0,0,208.2,285l-9.2-5.15a7,7,0,0,0-8.89,1.71l-7.23,8.93a7,7,0,0,1-5.34,2.61l-31.41.54a7,7,0,0,1-5.5-2.5l-7.6-9.05a7,7,0,0,0-8.92-1.55l-9.1,5.33a7,7,0,0,0-3,8.54l4,10.6a7,7,0,0,1-.42,5.9l-16,28.76a7.08,7.08,0,0,1-4.84,3.5l-11.38,2.14a7,7,0,0,0-5.72,7Zm84.45-35.73a28.92,28.92,0,1,1-28.95,30A29,29,0,0,1,162.31,327.11Z"></path><rect class="cls-10" x="191.12" y="50.6" width="426.35" height="5.84" rx="2.92"></rect><rect class="cls-11" x="170.85" y="98.52" width="461.8" height="5.84" rx="2.92"></rect></g></g></g></svg>