<svg xmlns="http://www.w3.org/2000/svg" viewBox="0 0 783.37 468.87"><defs><style>.cls-1{fill:#f8fafc;}.cls-2{fill:#2e2e76;}.cls-3{fill:#0c7ff2;}.cls-4{fill:#e7e9f2;}</style></defs><g id="Layer_2" data-name="Layer 2"><g id="Layer_1-2" data-name="Layer 1"><rect id="rect201" class="cls-1" width="783.37" height="468.87"></rect><path class="cls-2" d="M517.35,159a147.33,147.33,0,0,0-104.91-69.7,3.7,3.7,0,0,1-3.14-4.1l4.11-35A3.71,3.71,0,0,1,417.62,47,189.41,189.41,0,0,1,554.28,137.7a3.72,3.72,0,0,1-1.34,5.14l-30.59,17.41A3.7,3.7,0,0,1,517.35,159Z"></path><path class="cls-2" d="M489.52,159.18,554,214.41a3.71,3.71,0,0,0,6.06-2.13l15.62-83.42a3.71,3.71,0,0,0-4.88-4.18L490.7,152.87A3.7,3.7,0,0,0,489.52,159.18Z"></path><path class="cls-2" d="M242,218.28l-35-3.76a3.7,3.7,0,0,1-3.29-4.14A189.46,189.46,0,0,1,301.09,68.12a3.71,3.71,0,0,1,5.05,1.55l16.21,31.25a3.71,3.71,0,0,1-1.52,5A146.36,146.36,0,0,0,246,215.06,3.72,3.72,0,0,1,242,218.28Z"></path><path class="cls-2" d="M320,133.66l57.73-62.22a3.7,3.7,0,0,0-1.9-6.13l-82.74-18.9a3.71,3.71,0,0,0-4.37,4.71l25,81.11A3.71,3.71,0,0,0,320,133.66Z"></path><path class="cls-2" d="M368.48,422.53a189.22,189.22,0,0,1-141.61-94.36,3.71,3.71,0,0,1,1.46-5.08l30.92-16.81a3.71,3.71,0,0,1,5,1.43,146.64,146.64,0,0,0,108.66,72.44,3.7,3.7,0,0,1,3.24,4l-3.55,35A3.7,3.7,0,0,1,368.48,422.53Z"></path><path class="cls-2" d="M292,308l-63.33-56.5a3.71,3.71,0,0,0-6.1,2l-17.28,83.09a3.71,3.71,0,0,0,4.79,4.28l80.61-26.59A3.71,3.71,0,0,0,292,308Z"></path><path class="cls-2" d="M480.73,397.36l-16.94-30.85a3.71,3.71,0,0,1,1.41-5,146.54,146.54,0,0,0,72.08-109.74,3.73,3.73,0,0,1,4-3.29l35.05,3.22a3.69,3.69,0,0,1,3.34,4.09,189.42,189.42,0,0,1-93.89,143A3.69,3.69,0,0,1,480.73,397.36Z"></path><path class="cls-2" d="M465.39,333.72l-56.25,63.56a3.71,3.71,0,0,0,2,6.09l83.16,16.94a3.71,3.71,0,0,0,4.26-4.81L471.68,335A3.71,3.71,0,0,0,465.39,333.72Z"></path><path class="cls-3" d="M477.53,270.55a41.33,41.33,0,0,1-1.66,4.6,32.72,32.72,0,0,1-33.2,20.63v.05H340.25a37,37,0,0,1-29.39-12.25q-.23-.24-.45-.51c-.17-.19-.34-.38-.5-.58-.72-.84-1.39-1.72-2-2.62-.22-.3-.43-.61-.64-.92-.47-.68-.9-1.38-1.32-2.08l-.59-1c-.06-.1-.12-.2-.17-.3-.13-.25-.27-.5-.4-.76s-.37-.71-.54-1.06-.3-.62-.44-.93a45.54,45.54,0,0,1-2.2-5.76c-5-16.14-1.2-35.1,13.6-45.67a15.26,15.26,0,0,0,4.66-5.33,14.55,14.55,0,0,0,1.67-6.86c-.13-22.29,15.44-38.2,34.27-44.26s40.92-2.28,53.82,14.82a15.33,15.33,0,0,0,6.58,5,13.59,13.59,0,0,0,8.16.6c8.88-2.15,18,1,24.49,6.93.31.28.61.57.91.86s.43.43.64.65l.29.31c.23.24.46.5.69.76a.81.81,0,0,0,.09.1l.78.94.77,1c.25.34.48.69.71,1s.46.7.67,1.06.43.71.62,1.07A25.46,25.46,0,0,1,458.07,216a13.19,13.19,0,0,0,1.37,7.94,16.59,16.59,0,0,0,5.49,6.12c8.74,6,13.3,15.48,14.13,25.42A41.68,41.68,0,0,1,477.53,270.55Z"></path><path class="cls-4" d="M459,254.53a11.89,11.89,0,0,0-8.44-3.49,12.77,12.77,0,0,0-2,.16l-5-13.09-5-13a12.34,12.34,0,0,0,3.08-2.22,11.94,11.94,0,1,0-19.67-12.5L400.15,207l-17.35-2.74a16,16,0,0,0,.09-1.7A16.31,16.31,0,1,0,355.06,214a16.64,16.64,0,0,0,2,1.68l-7,13.87-7.37,14.6a15.41,15.41,0,1,0,9,18.57q6.68.51,13.36.92,14.26.84,28.53,1.14c4.76.09,9.52.16,14.28.16s9.51-.09,14.26-.29l14.25-.43,2.35-.07A11.94,11.94,0,1,0,459,254.53ZM353.43,231.39,361,217.83a16.32,16.32,0,0,0,21.39-11.27L399.6,210l21.64,4.34v.1a12,12,0,0,0,.71,4.08q-17.7,10.44-36.34,19.2-17,8-34.64,14.53a15.38,15.38,0,0,0-5.51-6.58ZM436.31,262l-14.21-.11c-4.74,0-9.47-.07-14.21-.24s-9.46-.42-14.18-.7q-14.18-.82-28.31-2.2-6.58-.63-13.17-1.4a15.27,15.27,0,0,0-.39-2.54q17.9-6.18,35.23-13.89,19-8.43,37.13-18.61l.53.57a12,12,0,0,0,11.07,3.2l4.39,13.22,4.42,13.32a12.16,12.16,0,0,0-2.49,1.9,11.91,11.91,0,0,0-3.45,7.49Z"></path><rect class="cls-3" x="584.79" y="73.68" width="94.96" height="38.49" rx="17.04"></rect><path class="cls-1" d="M606.79,100.16a.4.4,0,0,1-.31-.13.42.42,0,0,1-.12-.3V88.42a.41.41,0,0,1,.12-.31.4.4,0,0,1,.31-.13h5.35a6.18,6.18,0,0,1,2.46.42A3,3,0,0,1,616,89.59a3.52,3.52,0,0,1,.47,1.84,2.41,2.41,0,0,1-.24,1.1,2.7,2.7,0,0,1-.58.8,2.8,2.8,0,0,1-.64.45,3.14,3.14,0,0,1,1.18,1,2.77,2.77,0,0,1,.52,1.68,3.6,3.6,0,0,1-.52,2,3.31,3.31,0,0,1-1.5,1.27,5.87,5.87,0,0,1-2.43.44Zm2.72-7.34h2.27a1.43,1.43,0,0,0,1.08-.37,1.29,1.29,0,0,0,.36-.93,1.24,1.24,0,0,0-.36-.92,1.46,1.46,0,0,0-1.08-.35h-2.27Zm0,5.08h2.43a1.45,1.45,0,0,0,1.13-2.45,1.47,1.47,0,0,0-1.13-.42h-2.43Z"></path><path class="cls-1" d="M623.83,100.34a6.75,6.75,0,0,1-2.77-.52,3.88,3.88,0,0,1-1.83-1.58,5.19,5.19,0,0,1-.65-2.72v-7.1a.41.41,0,0,1,.12-.31A.41.41,0,0,1,619,88h2.26a.44.44,0,0,1,.32.13.39.39,0,0,1,.13.31V95.5a2.39,2.39,0,0,0,.54,1.7,2.4,2.4,0,0,0,3.08,0,2.39,2.39,0,0,0,.55-1.7V88.42a.39.39,0,0,1,.13-.31.42.42,0,0,1,.31-.13h2.27a.42.42,0,0,1,.31.13.39.39,0,0,1,.13.31v7.1a5.19,5.19,0,0,1-.65,2.72,3.9,3.9,0,0,1-1.82,1.58A6.68,6.68,0,0,1,623.83,100.34Z"></path><path class="cls-1" d="M631.82,100.16a.41.41,0,0,1-.32-.13.42.42,0,0,1-.12-.3V88.42a.41.41,0,0,1,.12-.31.41.41,0,0,1,.32-.13h2.34a.44.44,0,0,1,.33.13.42.42,0,0,1,.13.31V99.73a.43.43,0,0,1-.13.3.44.44,0,0,1-.33.13Z"></path><path class="cls-1" d="M637.49,100.16a.43.43,0,0,1-.44-.43V88.42a.41.41,0,0,1,.12-.31.42.42,0,0,1,.32-.13h2.31a.42.42,0,0,1,.32.13.41.41,0,0,1,.12.31v9.12h5.3a.41.41,0,0,1,.32.13A.44.44,0,0,1,646,98v1.74a.42.42,0,0,1-.12.3.41.41,0,0,1-.32.13Z"></path><path class="cls-1" d="M647.94,100.16a.39.39,0,0,1-.31-.13.43.43,0,0,1-.13-.3V88.42a.42.42,0,0,1,.13-.31.39.39,0,0,1,.31-.13h4.55a7.16,7.16,0,0,1,2.93.55,4.15,4.15,0,0,1,1.85,1.6,5.09,5.09,0,0,1,.7,2.6c0,.51,0,1,0,1.34s0,.83,0,1.33a5.61,5.61,0,0,1-.69,2.68,3.75,3.75,0,0,1-1.8,1.57,7.31,7.31,0,0,1-2.9.51Zm2.72-2.5h1.83a2.92,2.92,0,0,0,1.26-.24,1.54,1.54,0,0,0,.75-.74,3,3,0,0,0,.27-1.32c0-.34,0-.64,0-.9s0-.54,0-.8,0-.57,0-.89a2.35,2.35,0,0,0-.62-1.73,2.44,2.44,0,0,0-1.74-.55h-1.75Z"></path><rect class="cls-3" x="584.79" y="344.95" width="84.94" height="38.49" rx="17.04"></rect><path class="cls-1" d="M609.49,371.43a.39.39,0,0,1-.31-.13.39.39,0,0,1-.13-.3v-9h-3.11a.43.43,0,0,1-.44-.43v-1.86a.45.45,0,0,1,.12-.32.44.44,0,0,1,.32-.12h9.42a.43.43,0,0,1,.31.12.45.45,0,0,1,.12.32v1.86a.41.41,0,0,1-.12.3.4.4,0,0,1-.31.13h-3.12v9a.42.42,0,0,1-.12.3.41.41,0,0,1-.32.13Z"></path><path class="cls-1" d="M617.83,371.43a.41.41,0,0,1-.32-.13.42.42,0,0,1-.12-.3V359.69a.45.45,0,0,1,.12-.32.44.44,0,0,1,.32-.12H626a.44.44,0,0,1,.32.12.45.45,0,0,1,.12.32v1.63a.41.41,0,0,1-.44.44h-5.58v2.35h5.2a.39.39,0,0,1,.31.13.44.44,0,0,1,.13.32v1.51a.46.46,0,0,1-.13.31.39.39,0,0,1-.31.13h-5.2v2.42h5.72a.44.44,0,0,1,.32.12.41.41,0,0,1,.12.31V371a.42.42,0,0,1-.12.3.41.41,0,0,1-.32.13Z"></path><path class="cls-1" d="M633.15,371.61a7.42,7.42,0,0,1-2.91-.5,4.2,4.2,0,0,1-1.75-1.29,3,3,0,0,1-.63-1.71.36.36,0,0,1,.11-.25.37.37,0,0,1,.27-.12h2.21a.69.69,0,0,1,.38.09,1,1,0,0,1,.23.23,2.25,2.25,0,0,0,.4.5,1.63,1.63,0,0,0,.67.39,3,3,0,0,0,1,.15,3,3,0,0,0,1.53-.31,1,1,0,0,0,.52-.85.84.84,0,0,0-.28-.65,2.65,2.65,0,0,0-.91-.44,16.43,16.43,0,0,0-1.65-.41,10.85,10.85,0,0,1-2.27-.72,3.58,3.58,0,0,1-1.43-1.17,3.4,3.4,0,0,1,.12-3.7,3.94,3.94,0,0,1,1.69-1.3,6.48,6.48,0,0,1,2.57-.47,6.55,6.55,0,0,1,2.13.31,4.88,4.88,0,0,1,1.55.84,3.83,3.83,0,0,1,.95,1.1,2.44,2.44,0,0,1,.34,1.14.37.37,0,0,1-.09.25.34.34,0,0,1-.27.12h-2.31a.89.89,0,0,1-.34-.07.65.65,0,0,1-.24-.23,1.24,1.24,0,0,0-.55-.67,2.16,2.16,0,0,0-1.17-.29,2.27,2.27,0,0,0-1.2.27.93.93,0,0,0-.43.83.87.87,0,0,0,.24.61,2,2,0,0,0,.79.45,13.47,13.47,0,0,0,1.51.4,12.12,12.12,0,0,1,2.58.74A3.33,3.33,0,0,1,638,366a3.15,3.15,0,0,1,.46,1.77,3.11,3.11,0,0,1-.68,2,4.31,4.31,0,0,1-1.86,1.32A7.67,7.67,0,0,1,633.15,371.61Z"></path><path class="cls-1" d="M643.2,371.43a.41.41,0,0,1-.32-.13.42.42,0,0,1-.12-.3v-9h-3.12a.39.39,0,0,1-.31-.13.41.41,0,0,1-.12-.3v-1.86a.45.45,0,0,1,.12-.32.41.41,0,0,1,.31-.12h9.42a.44.44,0,0,1,.32.12.45.45,0,0,1,.12.32v1.86a.43.43,0,0,1-.44.43H646v9a.39.39,0,0,1-.13.3.39.39,0,0,1-.31.13Z"></path><rect class="cls-3" x="20.48" y="73.68" width="157.8" height="59.37" rx="17.04"></rect><path class="cls-1" d="M38,98.23a.42.42,0,0,1-.32-.13.44.44,0,0,1-.12-.3V86.48a.43.43,0,0,1,.12-.31.45.45,0,0,1,.32-.12h4.9a6.73,6.73,0,0,1,2.53.44,3.67,3.67,0,0,1,1.68,1.33,3.87,3.87,0,0,1,.61,2.25,3.74,3.74,0,0,1-.61,2.21,3.53,3.53,0,0,1-1.68,1.29,7,7,0,0,1-2.53.41H40.83V97.8a.45.45,0,0,1-.13.3.44.44,0,0,1-.33.13Zm2.77-6.65h2A1.73,1.73,0,0,0,44,91.2,1.45,1.45,0,0,0,44.47,90a1.68,1.68,0,0,0-.38-1.11,1.59,1.59,0,0,0-1.27-.45h-2Z"></path><path class="cls-1" d="M49.85,98.23a.41.41,0,0,1-.32-.13.44.44,0,0,1-.12-.3V86.48a.43.43,0,0,1,.12-.31.44.44,0,0,1,.32-.12h4.76a5.56,5.56,0,0,1,3.57,1,3.95,3.95,0,0,1,.7,5,3.79,3.79,0,0,1-1.57,1.28l2.39,4.28a.41.41,0,0,1,.06.19.35.35,0,0,1-.12.26.36.36,0,0,1-.25.11H57.06a.66.66,0,0,1-.49-.16,2.21,2.21,0,0,1-.23-.31l-2-3.83H52.56V97.8a.41.41,0,0,1-.13.3.44.44,0,0,1-.33.13Zm2.71-6.77h2a1.71,1.71,0,0,0,1.24-.4A1.45,1.45,0,0,0,56.22,90a1.52,1.52,0,0,0-.39-1.09,1.67,1.67,0,0,0-1.26-.42h-2Z"></path><path class="cls-1" d="M66.46,98.4a6.89,6.89,0,0,1-2.8-.52,4.07,4.07,0,0,1-1.85-1.57,5.26,5.26,0,0,1-.74-2.64c0-.5,0-1,0-1.5s0-1,0-1.51A5.39,5.39,0,0,1,61.81,88a4.15,4.15,0,0,1,1.88-1.6,7.43,7.43,0,0,1,5.56,0A4.23,4.23,0,0,1,71.12,88a5.08,5.08,0,0,1,.73,2.64c0,.5,0,1,0,1.51s0,1,0,1.5a5.07,5.07,0,0,1-.72,2.64,4.12,4.12,0,0,1-1.87,1.57A6.86,6.86,0,0,1,66.46,98.4Zm0-2.5A2.13,2.13,0,0,0,68,95.34a2.48,2.48,0,0,0,.62-1.77c0-.51,0-1,0-1.45s0-.92,0-1.41a3.26,3.26,0,0,0-.31-1.33,1.81,1.81,0,0,0-.74-.76,2.39,2.39,0,0,0-1.09-.24,2.37,2.37,0,0,0-1.07.24,1.89,1.89,0,0,0-.75.76,3,3,0,0,0-.31,1.33c0,.49,0,1,0,1.41s0,.94,0,1.45A2.44,2.44,0,0,0,65,95.34,2.07,2.07,0,0,0,66.46,95.9Z"></path><path class="cls-1" d="M74.36,98.23A.42.42,0,0,1,74,98.1a.44.44,0,0,1-.12-.3V86.48a.43.43,0,0,1,.12-.31.45.45,0,0,1,.32-.12h4.9a6.73,6.73,0,0,1,2.53.44,3.67,3.67,0,0,1,1.68,1.33,3.87,3.87,0,0,1,.61,2.25,3.74,3.74,0,0,1-.61,2.21,3.53,3.53,0,0,1-1.68,1.29,7,7,0,0,1-2.53.41H77.18V97.8a.45.45,0,0,1-.13.3.44.44,0,0,1-.33.13Zm2.77-6.65h2a1.73,1.73,0,0,0,1.2-.38A1.45,1.45,0,0,0,80.82,90a1.64,1.64,0,0,0-.39-1.11,1.56,1.56,0,0,0-1.26-.45h-2Z"></path><path class="cls-1" d="M90.77,98.4A6.94,6.94,0,0,1,88,97.88a4.07,4.07,0,0,1-1.85-1.57,5.26,5.26,0,0,1-.74-2.64c0-.5,0-1,0-1.5s0-1,0-1.51A5.39,5.39,0,0,1,86.12,88,4.12,4.12,0,0,1,88,86.42a7.43,7.43,0,0,1,5.56,0A4.17,4.17,0,0,1,95.42,88a5.18,5.18,0,0,1,.74,2.64c0,.5,0,1,0,1.51s0,1,0,1.5a5.16,5.16,0,0,1-.73,2.64,4.15,4.15,0,0,1-1.86,1.57A6.93,6.93,0,0,1,90.77,98.4Zm0-2.5a2.12,2.12,0,0,0,1.51-.56,2.43,2.43,0,0,0,.62-1.77c0-.51,0-1,0-1.45s0-.92,0-1.41a3.11,3.11,0,0,0-.3-1.33,1.83,1.83,0,0,0-.75-.76,2.35,2.35,0,0,0-1.08-.24,2.31,2.31,0,0,0-1.07.24,1.85,1.85,0,0,0-.76.76,3.1,3.1,0,0,0-.31,1.33c0,.49,0,1,0,1.41s0,.94,0,1.45a2.48,2.48,0,0,0,.64,1.77A2.09,2.09,0,0,0,90.77,95.9Z"></path><path class="cls-1" d="M103.29,98.4a7,7,0,0,1-2.87-.54,4.15,4.15,0,0,1-1.85-1.6,5.28,5.28,0,0,1-.73-2.57c0-.5,0-1,0-1.59s0-1.1,0-1.61A5,5,0,0,1,98.58,88a4.12,4.12,0,0,1,1.87-1.56,6.89,6.89,0,0,1,2.84-.54,7.48,7.48,0,0,1,2.32.32,5.28,5.28,0,0,1,1.71.86,4,4,0,0,1,1.06,1.18,2.78,2.78,0,0,1,.39,1.27.32.32,0,0,1-.12.26.37.37,0,0,1-.27.11h-2.56a.53.53,0,0,1-.28-.06.46.46,0,0,1-.17-.19,2.53,2.53,0,0,0-.36-.54,2,2,0,0,0-.65-.5,2.34,2.34,0,0,0-1.07-.21,2,2,0,0,0-2.19,2.19q-.06,1.5,0,3a2.44,2.44,0,0,0,.64,1.76,2.3,2.3,0,0,0,1.6.54,2.86,2.86,0,0,0,1.16-.23,1.75,1.75,0,0,0,.82-.7,2.38,2.38,0,0,0,.29-1.23v-.33H104a.41.41,0,0,1-.32-.13.45.45,0,0,1-.12-.32V91.67a.45.45,0,0,1,.12-.32.41.41,0,0,1,.32-.13h4.41a.42.42,0,0,1,.32.13.45.45,0,0,1,.12.32v2a4.68,4.68,0,0,1-.68,2.56,4.4,4.4,0,0,1-1.94,1.63A7,7,0,0,1,103.29,98.4Z"></path><path class="cls-1" d="M109.87,98.23a.38.38,0,0,1-.37-.37.68.68,0,0,1,0-.15l4.11-11.17a.74.74,0,0,1,.22-.34.68.68,0,0,1,.47-.15h2.59a.65.65,0,0,1,.46.15.67.67,0,0,1,.22.34l4.1,11.17a.37.37,0,0,1,0,.15.38.38,0,0,1-.11.26.4.4,0,0,1-.27.11h-2.16a.53.53,0,0,1-.39-.13.77.77,0,0,1-.17-.24l-.68-1.77h-4.68l-.66,1.77a.71.71,0,0,1-.16.24.54.54,0,0,1-.42.13ZM114,93.58h3.26L115.61,89Z"></path><path class="cls-1" d="M125,98.23a.41.41,0,0,1-.32-.13.44.44,0,0,1-.12-.3v-9h-3.12a.39.39,0,0,1-.31-.13.44.44,0,0,1-.12-.3V86.48a.43.43,0,0,1,.12-.31.41.41,0,0,1,.31-.12h9.42a.44.44,0,0,1,.32.12.43.43,0,0,1,.12.31v1.87a.44.44,0,0,1-.12.3.41.41,0,0,1-.32.13h-3.11v9a.41.41,0,0,1-.13.3.39.39,0,0,1-.31.13Z"></path><path class="cls-1" d="M133.33,98.23a.39.39,0,0,1-.31-.13.41.41,0,0,1-.13-.3V86.48a.4.4,0,0,1,.13-.31.41.41,0,0,1,.31-.12h2.35a.45.45,0,0,1,.32.12.4.4,0,0,1,.13.31V97.8a.41.41,0,0,1-.13.3.42.42,0,0,1-.32.13Z"></path><path class="cls-1" d="M139,98.23a.4.4,0,0,1-.31-.13.44.44,0,0,1-.12-.3V86.48a.41.41,0,0,1,.43-.43h1.86a.58.58,0,0,1,.43.13,1.12,1.12,0,0,1,.17.2l4.27,6.68V86.48a.43.43,0,0,1,.12-.31.44.44,0,0,1,.32-.12h2.1a.41.41,0,0,1,.43.43v11.3a.45.45,0,0,1-.12.32.4.4,0,0,1-.31.13h-1.88a.56.56,0,0,1-.41-.14c-.09-.09-.14-.16-.17-.19l-4.27-6.44V97.8a.44.44,0,0,1-.12.3.41.41,0,0,1-.32.13Z"></path><path class="cls-1" d="M156.22,98.4a7,7,0,0,1-2.87-.54,4.15,4.15,0,0,1-1.85-1.6,5.28,5.28,0,0,1-.73-2.57c0-.5,0-1,0-1.59s0-1.1,0-1.61a5,5,0,0,1,.74-2.51,4.12,4.12,0,0,1,1.87-1.56,6.89,6.89,0,0,1,2.84-.54,7.59,7.59,0,0,1,2.33.32,5.32,5.32,0,0,1,1.7.86,4,4,0,0,1,1.06,1.18,2.78,2.78,0,0,1,.39,1.27.32.32,0,0,1-.12.26.37.37,0,0,1-.27.11h-2.55a.55.55,0,0,1-.29-.06.46.46,0,0,1-.17-.19,2.53,2.53,0,0,0-.36-.54,2,2,0,0,0-.65-.5,2.34,2.34,0,0,0-1.07-.21A2,2,0,0,0,154,90.57q-.06,1.5,0,3a2.4,2.4,0,0,0,.65,1.76,2.25,2.25,0,0,0,1.59.54,2.86,2.86,0,0,0,1.16-.23,1.75,1.75,0,0,0,.82-.7,2.29,2.29,0,0,0,.3-1.23v-.33H156.9a.42.42,0,0,1-.32-.13.45.45,0,0,1-.12-.32V91.67a.45.45,0,0,1,.12-.32.42.42,0,0,1,.32-.13h4.41a.42.42,0,0,1,.32.13.45.45,0,0,1,.12.32v2a4.68,4.68,0,0,1-.68,2.56,4.4,4.4,0,0,1-1.94,1.63A7,7,0,0,1,156.22,98.4Z"></path><path class="cls-1" d="M42.6,119.28a6.82,6.82,0,0,1-2.84-.53,4.17,4.17,0,0,1-1.85-1.59,5.13,5.13,0,0,1-.72-2.59c0-.48,0-1,0-1.53s0-1.07,0-1.57a5.17,5.17,0,0,1,.73-2.57,4.16,4.16,0,0,1,1.86-1.6,6.76,6.76,0,0,1,2.82-.54,7.57,7.57,0,0,1,2.13.28,5.21,5.21,0,0,1,1.72.84,4,4,0,0,1,1.15,1.32A3.86,3.86,0,0,1,48,111a.28.28,0,0,1-.09.26.4.4,0,0,1-.27.11H45.29a.58.58,0,0,1-.35-.1.74.74,0,0,1-.21-.36,2,2,0,0,0-.79-1.26,2.61,2.61,0,0,0-1.36-.34,2.13,2.13,0,0,0-1.52.53,2.53,2.53,0,0,0-.62,1.77c0,1,0,1.92,0,2.92a2.49,2.49,0,0,0,.62,1.77,2.13,2.13,0,0,0,1.52.53,2.58,2.58,0,0,0,1.37-.35,2,2,0,0,0,.78-1.25.71.71,0,0,1,.2-.36.64.64,0,0,1,.36-.09h2.37a.39.39,0,0,1,.27.1.28.28,0,0,1,.09.26,3.86,3.86,0,0,1-.42,1.75,3.93,3.93,0,0,1-1.15,1.32,5.21,5.21,0,0,1-1.72.84A7.57,7.57,0,0,1,42.6,119.28Z"></path><path class="cls-1" d="M50.3,119.11A.41.41,0,0,1,50,119a.4.4,0,0,1-.13-.31V107.37a.41.41,0,0,1,.13-.32.41.41,0,0,1,.31-.12h2.26a.44.44,0,0,1,.32.12.41.41,0,0,1,.13.32v4.19h4.31v-4.19a.41.41,0,0,1,.13-.32.41.41,0,0,1,.31-.12H60a.41.41,0,0,1,.31.12.41.41,0,0,1,.13.32v11.31a.41.41,0,0,1-.13.3.39.39,0,0,1-.31.13H57.76a.39.39,0,0,1-.31-.13.41.41,0,0,1-.13-.3v-4.34H53v4.34a.44.44,0,0,1-.45.43Z"></path><path class="cls-1" d="M62.21,119.11A.38.38,0,0,1,62,119a.38.38,0,0,1-.11-.25.78.78,0,0,1,0-.16L66,107.42a.74.74,0,0,1,.22-.34.67.67,0,0,1,.46-.15h2.6a.67.67,0,0,1,.46.15.74.74,0,0,1,.22.34L74,118.59a.41.41,0,0,1,0,.16A.38.38,0,0,1,74,119a.4.4,0,0,1-.27.11H71.52a.53.53,0,0,1-.39-.13.74.74,0,0,1-.17-.23L70.28,117H65.6l-.66,1.78a.69.69,0,0,1-.16.23.54.54,0,0,1-.42.13Zm4.11-4.64h3.26L68,109.87Z"></path><path class="cls-1" d="M75.88,119.11a.39.39,0,0,1-.31-.13.45.45,0,0,1-.13-.3V107.37a.44.44,0,0,1,.13-.32.41.41,0,0,1,.31-.12h1.86a.58.58,0,0,1,.43.13.88.88,0,0,1,.16.2l4.28,6.68v-6.57a.44.44,0,0,1,.12-.32.43.43,0,0,1,.31-.12h2.1a.41.41,0,0,1,.44.44v11.29a.45.45,0,0,1-.12.32.41.41,0,0,1-.32.13H83.27a.51.51,0,0,1-.41-.14,1.81,1.81,0,0,1-.17-.19l-4.27-6.44v6.34a.44.44,0,0,1-.12.3.41.41,0,0,1-.32.13Z"></path><path class="cls-1" d="M93.1,119.28a7,7,0,0,1-2.87-.54,4.15,4.15,0,0,1-1.85-1.6,5.28,5.28,0,0,1-.73-2.57c0-.5,0-1,0-1.59s0-1.1,0-1.61a5,5,0,0,1,.74-2.51,4.18,4.18,0,0,1,1.87-1.56,6.89,6.89,0,0,1,2.84-.54,7.48,7.48,0,0,1,2.32.32,5.28,5.28,0,0,1,1.71.86,4.16,4.16,0,0,1,1.06,1.18,2.91,2.91,0,0,1,.39,1.27.32.32,0,0,1-.12.26.37.37,0,0,1-.27.11H95.63a.53.53,0,0,1-.28-.06.42.42,0,0,1-.17-.18,2.35,2.35,0,0,0-.36-.55,2,2,0,0,0-.65-.5,2.34,2.34,0,0,0-1.07-.21,2,2,0,0,0-2.19,2.19q-.06,1.5,0,3a2.44,2.44,0,0,0,.64,1.76,2.3,2.3,0,0,0,1.6.54,2.86,2.86,0,0,0,1.16-.23,1.75,1.75,0,0,0,.82-.7,2.38,2.38,0,0,0,.29-1.23v-.33H93.78a.41.41,0,0,1-.32-.13.45.45,0,0,1-.12-.32v-1.29a.45.45,0,0,1,.12-.32.41.41,0,0,1,.32-.13h4.41a.42.42,0,0,1,.32.13.45.45,0,0,1,.12.32v2a4.58,4.58,0,0,1-.69,2.56A4.31,4.31,0,0,1,96,118.72,7,7,0,0,1,93.1,119.28Z"></path><path class="cls-1" d="M101.08,119.11a.42.42,0,0,1-.32-.13.44.44,0,0,1-.12-.3V107.37a.44.44,0,0,1,.12-.32.45.45,0,0,1,.32-.12h8.18a.43.43,0,0,1,.31.12.44.44,0,0,1,.12.32V109a.41.41,0,0,1-.12.31.4.4,0,0,1-.31.13h-5.59v2.35h5.2a.42.42,0,0,1,.32.13.44.44,0,0,1,.12.32v1.51a.45.45,0,0,1-.12.31.46.46,0,0,1-.32.13h-5.2v2.42h5.73a.43.43,0,0,1,.31.12.41.41,0,0,1,.12.31v1.64a.44.44,0,0,1-.12.3.4.4,0,0,1-.31.13Z"></path><rect class="cls-3" x="70.21" y="344.95" width="108.08" height="38.49" rx="17.04"></rect><path class="cls-1" d="M88.88,371.43a.4.4,0,0,1-.31-.13.42.42,0,0,1-.12-.3V359.69a.45.45,0,0,1,.12-.32.43.43,0,0,1,.31-.12h4.56a7.11,7.11,0,0,1,2.92.55,4.12,4.12,0,0,1,1.86,1.6,5.29,5.29,0,0,1,.7,2.6c0,.51,0,1,0,1.34s0,.83,0,1.33a5.88,5.88,0,0,1-.69,2.68,3.82,3.82,0,0,1-1.81,1.57,7.31,7.31,0,0,1-2.9.51Zm2.72-2.5h1.84a2.87,2.87,0,0,0,1.25-.24,1.54,1.54,0,0,0,.75-.74,3,3,0,0,0,.27-1.32c0-.34,0-.64.05-.9v-.8c0-.27,0-.57-.05-.89a2.35,2.35,0,0,0-.62-1.73,2.44,2.44,0,0,0-1.74-.55H91.6Z"></path><path class="cls-1" d="M101.42,371.43a.39.39,0,0,1-.31-.13.39.39,0,0,1-.13-.3V359.69a.42.42,0,0,1,.13-.32.41.41,0,0,1,.31-.12h8.18a.41.41,0,0,1,.31.12.42.42,0,0,1,.13.32v1.63a.41.41,0,0,1-.13.32.41.41,0,0,1-.31.12H104v2.35h5.2a.41.41,0,0,1,.32.13.44.44,0,0,1,.12.32v1.51a.45.45,0,0,1-.12.31.41.41,0,0,1-.32.13H104v2.42h5.73a.41.41,0,0,1,.31.12.39.39,0,0,1,.13.31V371a.39.39,0,0,1-.13.3.39.39,0,0,1-.31.13Z"></path><path class="cls-1" d="M112.61,371.43a.39.39,0,0,1-.31-.13.39.39,0,0,1-.13-.3V359.69a.42.42,0,0,1,.13-.32.41.41,0,0,1,.31-.12h4.9a6.53,6.53,0,0,1,2.53.45,3.61,3.61,0,0,1,1.68,1.33,3.84,3.84,0,0,1,.61,2.24,3.72,3.72,0,0,1-.61,2.21,3.53,3.53,0,0,1-1.68,1.29,7,7,0,0,1-2.53.42h-2.08V371a.39.39,0,0,1-.13.3.44.44,0,0,1-.33.13Zm2.77-6.64h2.05a1.72,1.72,0,0,0,1.19-.39,1.43,1.43,0,0,0,.45-1.16,1.73,1.73,0,0,0-.38-1.12,1.59,1.59,0,0,0-1.26-.45h-2.05Z"></path><path class="cls-1" d="M124.45,371.43a.41.41,0,0,1-.32-.13.42.42,0,0,1-.12-.3V359.69a.45.45,0,0,1,.12-.32.44.44,0,0,1,.32-.12h2.31a.41.41,0,0,1,.31.12.45.45,0,0,1,.12.32v9.12h5.31a.42.42,0,0,1,.32.13.44.44,0,0,1,.12.32V371a.43.43,0,0,1-.44.43Z"></path><path class="cls-1" d="M139.33,371.61a7.07,7.07,0,0,1-2.8-.52,4.12,4.12,0,0,1-1.86-1.58,5.26,5.26,0,0,1-.73-2.64c0-.49,0-1,0-1.5s0-1,0-1.51a5.22,5.22,0,0,1,.74-2.63,4.14,4.14,0,0,1,1.87-1.61,7.43,7.43,0,0,1,5.56,0,4.22,4.22,0,0,1,1.88,1.61,5.11,5.11,0,0,1,.73,2.63c0,.5,0,1,0,1.51s0,1,0,1.5a5.16,5.16,0,0,1-.72,2.64,4.14,4.14,0,0,1-1.87,1.58A7.07,7.07,0,0,1,139.33,371.61Zm0-2.51a2.06,2.06,0,0,0,1.51-.56,2.48,2.48,0,0,0,.63-1.77q0-.76,0-1.44t0-1.41a3.22,3.22,0,0,0-.31-1.33,1.7,1.7,0,0,0-.74-.76,2.4,2.4,0,0,0-1.09-.25,2.34,2.34,0,0,0-1.07.25,1.72,1.72,0,0,0-.75.76,3.06,3.06,0,0,0-.32,1.33c0,.48,0,.95,0,1.41s0,.93,0,1.44a2.52,2.52,0,0,0,.64,1.77A2.05,2.05,0,0,0,139.33,369.1Z"></path><path class="cls-1" d="M149.82,371.43a.42.42,0,0,1-.31-.13.39.39,0,0,1-.13-.3v-3.74l-4.06-7.45a1,1,0,0,0,0-.1.24.24,0,0,1,0-.09.33.33,0,0,1,.12-.25.36.36,0,0,1,.27-.12h2.19a.65.65,0,0,1,.41.13.79.79,0,0,1,.2.24l2.51,4.49,2.52-4.49a.79.79,0,0,1,.2-.24.63.63,0,0,1,.41-.13h2.19a.34.34,0,0,1,.26.12.36.36,0,0,1,.11.25s0,.07,0,.09l0,.1-4.06,7.45V371a.39.39,0,0,1-.13.3.44.44,0,0,1-.33.13Z"></path></g></g></svg>