<svg xmlns="http://www.w3.org/2000/svg" xmlns:xlink="http://www.w3.org/1999/xlink" viewBox="0 0 962.17 676.36"><defs><style>.cls-1,.cls-2,.cls-3{opacity:0.1;}.cls-1{fill:url(#linear-gradient);}.cls-2{fill:url(#linear-gradient-2);}.cls-3{fill:url(#linear-gradient-3);}.cls-4{fill:#ebf0f5;}.cls-5{fill:#ffff3a;opacity:0.37;}.cls-10,.cls-17,.cls-19,.cls-21,.cls-5{isolation:isolate;}.cls-6{fill:url(#linear-gradient-4);}.cls-10,.cls-7{fill:#fb9c3a;}.cls-8{fill:#fb3a3a;}.cls-17,.cls-9{fill:#24313e;}.cls-10{opacity:0.21;}.cls-11{fill:#0062ff;}.cls-12{fill:url(#linear-gradient-5);}.cls-13{opacity:0.19;}.cls-14{fill:url(#linear-gradient-6);}.cls-15,.cls-19{opacity:0.15;}.cls-16,.cls-19{fill:none;}.cls-17{opacity:0.18;}.cls-18{fill:url(#linear-gradient-7);}.cls-20{fill:#031439;}.cls-21{fill:#fff;opacity:0.32;}</style><linearGradient id="linear-gradient" y1="211" x2="572.71" y2="211" gradientUnits="userSpaceOnUse"><stop offset="0" stop-color="#6b7e8f"></stop><stop offset="1" stop-color="#b6c6d6"></stop></linearGradient><linearGradient id="linear-gradient-2" x1="937.54" y1="400.38" x2="962.17" y2="400.38" xlink:href="#linear-gradient"></linearGradient><linearGradient id="linear-gradient-3" x1="719.22" y1="606.86" x2="541.4" y2="459.82" xlink:href="#linear-gradient"></linearGradient><linearGradient id="linear-gradient-4" x1="754.1" y1="382.75" x2="923.63" y2="446.36" xlink:href="#linear-gradient"></linearGradient><linearGradient id="linear-gradient-5" x1="766.2" y1="213.09" x2="603.41" y2="379.1" xlink:href="#linear-gradient"></linearGradient><linearGradient id="linear-gradient-6" x1="781.93" y1="465.64" x2="696.28" y2="573.7" xlink:href="#linear-gradient"></linearGradient><linearGradient id="linear-gradient-7" x1="778.41" y1="417.29" x2="906.98" y2="486.56" xlink:href="#linear-gradient"></linearGradient></defs><g id="Layer_2" data-name="Layer 2"><g id="Layer_1-2" data-name="Layer 1"><g id="Layer_1-3" data-name="Layer 1"><path class="cls-1" d="M569.84,282.24c-5.2-23.32-17.78-45.41-40.19-60.7a62.7,62.7,0,0,1-21.27-24.36,52,52,0,0,1-4.8-30,70.87,70.87,0,0,0,.71-10A75,75,0,0,0,499,129.78,90.73,90.73,0,0,0,441,77.06a73.76,73.76,0,0,0-37.83-1A53,53,0,0,1,372,73.94a58.23,58.23,0,0,1-25.88-19.56A133.65,133.65,0,0,0,296.35,14,148.54,148.54,0,0,0,232.5,0a169.16,169.16,0,0,0-27.89,2.35,182.61,182.61,0,0,0-28.32,7.14C151,18.06,124.86,33.56,105.07,56.21S71.93,108.7,72.14,145.92a56.2,56.2,0,0,1-6.37,26.29,58.64,58.64,0,0,1-18,20.62C23,210.54,9,235.12,3.2,261a143.79,143.79,0,0,0,4.41,76.34c7.18,21.17,20.36,42.87,39.81,59s45.2,26.71,77.52,25.6l3.42-.11,3.43-.13v.23H452.92v-.56l4.48.2,4.5.18c28.7,1.81,51.53-6.79,68.78-20.47s28.91-32.41,35.22-50.83A128.17,128.17,0,0,0,569.84,282.24Z"></path><circle class="cls-2" cx="949.85" cy="400.38" r="12.32"></circle><circle class="cls-3" cx="580.83" cy="492.43" r="79.73"></circle><path class="cls-4" d="M769.8,370.74l64.9,11.11,69.62,85.27L898,473.28s-42.65-60.65-90.48-30.73l-15.6-9S802.33,429.91,769.8,370.74Z"></path><path class="cls-5" d="M874.77,430.55l1.51,2.2,25.4,36.87-3.75,3.63s-41.31-58.75-88.21-32.08L808,438.29l28.42-16.79,38,9Z"></path><path class="cls-6" d="M838,378.81l69.5,85.24-6.35,6.15s-42.53-60.54-90.22-30.84l-.09.06-15.59-9s10.44-3.62-22-62.79Z"></path><path class="cls-5" d="M902,467.24s.36.47.92,1.23l-1.79,1.73s-42.53-60.54-90.22-30.84a36.84,36.84,0,0,1,7-9.05C859.72,389.56,902,467.24,902,467.24Z"></path><path class="cls-7" d="M789.18,500.73s-5.81,36.76,52.68,90.49c56.69,52.11,115,85.14,115,85.14S924.16,544.17,874.26,507.5c-51.33-37.68-53.93-36.28-53.93-36.28"></path><path class="cls-8" d="M793.8,495.42s-3.28,20.64,29.77,51.23a416.57,416.57,0,0,0,66.27,49.57S870.79,520.3,842,499.33C812.82,478,811.35,478.8,811.35,478.8"></path><path class="cls-9" d="M798.27,491.45l-12,9.53a5.66,5.66,0,0,1-7.92-.7l-9.23-10.86,20.16-18.95,10,11.87a6.46,6.46,0,0,1-1,9.08Z"></path><path class="cls-9" d="M812.46,484.1,823.14,474a9.53,9.53,0,0,0,.85-12.85L815.6,451l-23.84,22.43,8.53,10.09a8.26,8.26,0,0,0,11.64,1C812.11,484.43,812.29,484.27,812.46,484.1Z"></path><path class="cls-4" d="M826,442.16a18.25,18.25,0,0,1-1,4.5,13.9,13.9,0,0,1-3.16,5.18c-29.9,44.65-60.47,48.93-60.47,48.93s-1.8-1.91-4.35-4.7c-6.21-6.76-16.92-18.67-17.28-20.58,0,0,9-16,11.34-19.53s50.15-37.61,50.15-37.61S826.58,435.69,826,442.16Z"></path><path class="cls-10" d="M824.94,446.69a13.9,13.9,0,0,1-3.16,5.18c-29.9,44.65-60.47,48.93-60.47,48.93s-1.8-1.91-4.35-4.7l14.73-6L785,481.34a55.34,55.34,0,0,0,14.27-13.66l15.2-20.86,10-.28Z"></path><path class="cls-11" d="M591.72,150.43a147.74,147.74,0,0,0-22,11.51,242,242,0,0,0-24,17.21,234.64,234.64,0,0,0-27.23,25.6q-3.71-10.08-6.19-19l-22.77-68.83-.49-1a11.84,11.84,0,0,1,.32-11.26c3.3-5.57,11.11-8.17,18.08-3.53l59.46,35.37h0A187,187,0,0,1,591.72,150.43Z"></path><path class="cls-12" d="M723.3,277.65c42.5,51.68,74.36,101.9,90.82,141.12h0s-5.87,15.15-27.3,33.88q-3.62,3.18-7.86,6.47C750.66,481.1,748,480.4,748,480.4c-37.52-21-84.17-60.08-129.09-112.18a629.84,629.84,0,0,1-69.3-97.78c-6.28-11-11.89-21.67-16.82-31.94-5.74-11.91-10.52-23.23-14.38-33.72a235,235,0,0,1,27.23-25.64,243.57,243.57,0,0,1,24-17.2,148.52,148.52,0,0,1,22-11.5c7.18,4.71,14.62,10.13,22.26,16.14C648.28,193.6,686.45,232.85,723.3,277.65Z"></path><g class="cls-13"><path class="cls-4" d="M639.56,336.19C708,411.49,779.18,462.64,774.2,468.6S690,433.08,621.48,357.81,521.21,202,526.19,196,571.06,261,639.56,336.19Z"></path></g><path class="cls-14" d="M756.33,475.05l13.91,16.37c-20.82,28.43-13.66,58.79-4.28,78.79A111,111,0,0,0,780,593l-6.81,6.61-73.28-84-.75-70.47C751.47,485.66,756.33,475.05,756.33,475.05Z"></path><g class="cls-15"><path class="cls-16" d="M543.12,254.5c10.69-10.05,22.53-20.49,35.15-30.92a669.82,669.82,0,0,1,53.61-40.22"></path><path class="cls-16" d="M529.08,238.13c10.77-10,22.69-20.47,35.4-30.88a670.31,670.31,0,0,1,54-40.15"></path><path class="cls-16" d="M572.71,307.55c13.18-13.34,28.74-27.72,45.75-42.11a647.88,647.88,0,0,1,56.17-42.81"></path><path class="cls-16" d="M590.28,332.44c14-14.18,28.25-27.25,46.27-42.64a737,737,0,0,1,59.19-46"></path><path class="cls-16" d="M630.19,381a687.59,687.59,0,0,1,50.19-48.48,653.57,653.57,0,0,1,53.11-42.21"></path><path class="cls-16" d="M650.07,404a685.2,685.2,0,0,1,49.69-48.52,649.65,649.65,0,0,1,52.58-42.33"></path><path class="cls-16" d="M694.57,443c12.4-13.4,27-27.9,43.08-42.45,16.37-14.87,32.23-28,46.43-38.73"></path></g><path class="cls-17" d="M723.3,277.65c42.5,51.68,74.36,101.9,90.82,141.12h0l-13.3,19.89S818.5,403,671.1,243.81c-63.8-68.85-63-61.93-94.33-81.29C523.51,129.6,500.42,96.4,507.36,101l59.49,35.38h0a186.89,186.89,0,0,1,24.86,14c7.18,4.72,14.62,10.13,22.26,16.15C648.28,193.6,686.45,232.85,723.3,277.65Z"></path><polygon class="cls-4" points="824.47 412.36 899.32 506.13 896.04 509.33 821.54 416.15 775.18 382.83 779.54 378.85 824.47 412.36"></polygon><path class="cls-18" d="M821.54,416.13h0l74.35,93a.13.13,0,0,1,0,.18l-.07,0-3.33.15-3.05.14h-.09c-1-1.1-26.59-29.07-44.08-47.8-17.18-18.44-29.5-13.71-30.58-13.26a.12.12,0,0,1-.13,0l-10.42-13a.1.1,0,0,1,0-.16,31.55,31.55,0,0,0,2-5.37c2.47-7.66-25.47-40.7-30.3-46.33-.09-.11,0-.28.16-.19Z"></path><path class="cls-19" d="M531.77,191.23s86,160.28,235.09,277.16"></path><path class="cls-20" d="M604.25,245.8c10,12.77,9.34,30.46-1.5,39.67s-28.1,6.51-38.3-6.27-9.58-30.83,1.57-40S594.2,233,604.25,245.8Z"></path><path class="cls-20" d="M659.74,318c9.77,12.38,9.08,29.85-1.5,39.13S630.93,364,621,351.6s-9.3-30.21,1.5-39.51S650,305.52,659.74,318Z"></path><path class="cls-20" d="M717.84,386.83c9.45,12,8.8,29.24-1.45,38.57s-26.49,7.29-36.13-4.76-9-29.59,1.51-38.93S708.35,374.76,717.84,386.83Z"></path><path class="cls-4" d="M601.39,242.38c10,12.77,9.35,30.48-1.54,39.7s-28.16,6.49-38.4-6.31-9.58-30.86,1.58-40.09S591.3,229.54,601.39,242.38Z"></path><path class="cls-4" d="M656.94,314.64c9.77,12.39,9.09,29.88-1.5,39.16s-27.35,6.9-37.31-5.53-9.31-30.24,1.51-39.54S647.14,302.19,656.94,314.64Z"></path><path class="cls-4" d="M715.12,383.61c9.47,12,8.82,29.29-1.45,38.59s-26.53,7.28-36.18-4.78-9-29.63,1.51-39S705.65,371.5,715.12,383.61Z"></path><path class="cls-9" d="M594.84,247.86c7,8.94,6.57,21.37-1.09,27.79s-19.7,4.51-26.85-4.45-6.69-21.55,1.09-28S587.73,238.89,594.84,247.86Z"></path><path class="cls-9" d="M650.56,320.12c6.85,8.68,6.38,20.94-1,27.44s-19.16,4.79-26.1-3.91-6.5-21.12,1.06-27.62S643.69,311.41,650.56,320.12Z"></path><path class="cls-9" d="M709,389.15c6.65,8.44,6.19,20.52-1,27s-18.58,5.06-25.31-3.38-6.3-20.69,1-27.23S702.28,380.7,709,389.15Z"></path><path class="cls-21" d="M507.06,154.36c6,17.44,12.52,30.86,14.57,30s-1.14-15.61-7.12-33.05-12.56-31-14.66-30.19S501,136.86,507.06,154.36Z"></path><path class="cls-5" d="M762.61,482.42l7.66,9c-20.82,28.43-13.66,58.78-4.28,78.79C729.06,502.79,762.61,482.42,762.61,482.42Z"></path><path class="cls-5" d="M814.56,448.52a.12.12,0,0,0,.13,0c1.08-.47,13.38-5.18,30.57,13.25,17.49,18.73,43.08,46.7,44.08,47.8h.09l3.05-.14C830.05,421.4,814.56,448.52,814.56,448.52Z"></path></g></g></g></svg>