<svg xmlns="http://www.w3.org/2000/svg" xmlns:xlink="http://www.w3.org/1999/xlink" viewBox="0 0 1138.35 651.67"><defs><style>.cls-1{isolation:isolate;}.cls-11,.cls-2{fill:#cee0f2;}.cls-2{opacity:0.18;}.cls-3,.cls-8{fill:#9caab8;}.cls-10,.cls-3,.cls-6,.cls-8{mix-blend-mode:multiply;}.cls-3{opacity:0.48;}.cls-4{fill:#0c7ff2;}.cls-5{fill:#2e2e76;}.cls-6{fill:url(#linear-gradient);}.cls-7,.cls-9{fill:#9dc7f2;}.cls-9{mix-blend-mode:overlay;opacity:0.47;}.cls-10{fill:url(#linear-gradient-2);}.cls-12{fill:#fff;}</style><linearGradient id="linear-gradient" x1="927.34" y1="146.89" x2="1138.35" y2="146.89" gradientUnits="userSpaceOnUse"><stop offset="0" stop-color="#6b7e8f"></stop><stop offset="1" stop-color="#b6c6d6"></stop></linearGradient><linearGradient id="linear-gradient-2" x1="203.06" y1="486.53" x2="387.18" y2="486.53" xlink:href="#linear-gradient"></linearGradient></defs><g class="cls-1"><g id="Layer_2" data-name="Layer 2"><g id="Layer_1-2" data-name="Layer 1"><rect class="cls-2" width="835.22" height="553.95" rx="13.92"></rect><path class="cls-3" d="M1022.71,311.36a17.3,17.3,0,0,1,.46-7.82A17.58,17.58,0,0,0,1022.71,311.36Z"></path><path class="cls-3" d="M1023,312.78a19.85,19.85,0,0,0,.92,2.76A16.25,16.25,0,0,1,1023,312.78Z"></path><path class="cls-4" d="M1078.79,87.22V516.83a6.09,6.09,0,0,1-6.1,6.11H393.27a6.09,6.09,0,0,1-6.09-6.11V87.22a6.08,6.08,0,0,1,6.09-6.1h679.42A6.09,6.09,0,0,1,1078.79,87.22Z"></path><rect class="cls-5" x="668.87" y="522.33" width="128.23" height="96.85"></rect><rect class="cls-5" x="618.46" y="619.18" width="229.04" height="32.33" rx="0.87"></rect><rect class="cls-5" x="393.9" y="89.25" width="678.16" height="361.48" rx="2.53"></rect><rect class="cls-6" x="927.34" y="16.81" width="211.01" height="260.16" rx="13.92"></rect><circle class="cls-5" cx="732.98" cy="486.53" r="12.77"></circle><path class="cls-7" d="M985.94,432a2.07,2.07,0,0,1-1.09-.34l-1-.56-22.28-15.31a5.48,5.48,0,0,1-1.7-1.65,3.49,3.49,0,0,1-.49-1.81v-.9a3.4,3.4,0,0,1,.49-1.84,5.77,5.77,0,0,1,1.7-1.61l22.28-15.31,1-.57a2.14,2.14,0,0,1,1.09-.33,1.61,1.61,0,0,1,1.06.37,1.39,1.39,0,0,1,.45,1.13v1.27a2.09,2.09,0,0,1-.34,1.24,4.67,4.67,0,0,1-1.24,1.09l-21.84,15,21.84,15a4.86,4.86,0,0,1,1.24,1.08,2.11,2.11,0,0,1,.34,1.24v1.28a1.39,1.39,0,0,1-.45,1.13A1.61,1.61,0,0,1,985.94,432Z"></path><path class="cls-7" d="M996.36,440.78a1.44,1.44,0,0,1-1.05-.45,1.41,1.41,0,0,1-.46-1.05,2.38,2.38,0,0,1,.23-.9l26-61.78a3.57,3.57,0,0,1,.53-.71,1.47,1.47,0,0,1,1.13-.41H1024a1.48,1.48,0,0,1,1.06.45,1.44,1.44,0,0,1,.45,1.05,2.65,2.65,0,0,1-.23.9l-26,61.78a1.74,1.74,0,0,1-.49.71,1.58,1.58,0,0,1-1.17.41Z"></path><path class="cls-7" d="M1034.36,431.93a1.62,1.62,0,0,1-1.06-.38,1.38,1.38,0,0,1-.45-1.13v-1.27a2.11,2.11,0,0,1,.34-1.24,4.86,4.86,0,0,1,1.24-1.09l21.83-15-21.83-15a4.86,4.86,0,0,1-1.24-1.09,2.11,2.11,0,0,1-.34-1.24v-1.28a1.37,1.37,0,0,1,.45-1.12,1.62,1.62,0,0,1,1.06-.38,2.28,2.28,0,0,1,1.13.34,7.38,7.38,0,0,1,.91.56l22.28,15.31a5.92,5.92,0,0,1,1.7,1.62,3.4,3.4,0,0,1,.49,1.84v.9a3.43,3.43,0,0,1-.49,1.8,5.59,5.59,0,0,1-1.7,1.65L1036.4,431a7.21,7.21,0,0,1-.91.57A2.39,2.39,0,0,1,1034.36,431.93Z"></path><rect class="cls-8" x="668.87" y="522.33" width="128.23" height="16.33"></rect><rect class="cls-8" x="618.46" y="643.51" width="229.04" height="8.16" rx="0.77"></rect><rect class="cls-9" x="618.46" y="618.92" width="229.04" height="5.03" rx="0.47"></rect><rect class="cls-9" x="410.5" y="81.3" width="650.37" height="5.03" rx="0.47"></rect><rect class="cls-10" x="203.06" y="373.02" width="184.12" height="227.02" rx="13.92"></rect><path class="cls-8" d="M788.73,183.71V522.94H394.49a6,6,0,0,1-6-6V166.84H772A16.82,16.82,0,0,1,788.73,183.71Z"></path><rect class="cls-11" x="304.22" y="191.23" width="466.32" height="367.79" rx="17.09"></rect><rect class="cls-12" x="405.91" y="238.27" width="353.85" height="312.46" rx="8.96"></rect><path class="cls-4" d="M319.75,189.33H755a15.53,15.53,0,0,1,15.53,15.53v27.21a0,0,0,0,1,0,0H304.22a0,0,0,0,1,0,0V204.86A15.53,15.53,0,0,1,319.75,189.33Z"></path></g></g></g></svg>