<svg xmlns="http://www.w3.org/2000/svg" viewBox="0 0 783.37 468.87"><defs><style>.cls-1{fill:#f8fafc;}.cls-2{fill:#9dc7f2;}.cls-3{fill:#2e2e76;}.cls-4{fill:#0c7ff2;}.cls-5{fill:#0062ff;}.cls-6{fill:#f5f5f5;}</style></defs><g id="Layer_2" data-name="Layer 2"><g id="Layer_1-2" data-name="Layer 1"><rect id="rect201" class="cls-1" width="783.37" height="468.87"></rect><path id="Path_9328" data-name="Path 9328" class="cls-2" d="M508.16,190.52c0,57-52.7,103.35-117.68,103.35S272.62,247.78,272.62,190.52"></path><path id="Path_9329" data-name="Path 9329" class="cls-3" d="M286.79,241.77l98.58,97.33a10,10,0,0,0,13.94,0l96.24-97.33a9.85,9.85,0,0,0,0-13.93l0,0a10.05,10.05,0,0,0-7-2.81H293.74a9.92,9.92,0,0,0-9.82,10A9.7,9.7,0,0,0,286.79,241.77Z"></path><path id="Path_9330" data-name="Path 9330" class="cls-4" d="M425.22,406l-47.79-47.79L499.59,236.38a9.28,9.28,0,0,1,12.89,0h0l34.68,34.69a9.29,9.29,0,0,1,0,12.93h0Z"></path><path id="Path_9345" data-name="Path 9345" class="cls-4" d="M407.21,356.88l-47,48.55-124.06-120a9.35,9.35,0,0,1,0-12.93h0l34.12-35.28a9.2,9.2,0,0,1,12.93,0h0Z"></path><path id="Path_9331" data-name="Path 9331" class="cls-5" d="M267.82,180.86h0c0-49.65,40.7-118.37,90.43-118.37h63.53c49.74,0,90.44,68.72,90.44,118.37h0"></path><circle id="Ellipse_703" data-name="Ellipse 703" class="cls-6" cx="341.45" cy="210.51" r="45.62" transform="translate(-59.2 230.06) rotate(-34.45)"></circle><circle id="Ellipse_704" data-name="Ellipse 704" class="cls-5" cx="341.45" cy="210.51" r="23.3" transform="translate(-59.52 221.48) rotate(-33.22)"></circle><circle id="Ellipse_703-2" data-name="Ellipse 703" class="cls-6" cx="441.44" cy="210.51" r="45.62" transform="matrix(0.82, -0.57, 0.57, 0.82, -41.66, 286.62)"></circle><circle id="Ellipse_704-2" data-name="Ellipse 704" class="cls-5" cx="441.44" cy="210.51" r="23.3" transform="translate(-43.18 276.26) rotate(-33.22)"></circle><path id="Rectangle_1314" data-name="Rectangle 1314" class="cls-3" d="M276,158.72h228a18.23,18.23,0,0,1,18.29,18.15V177h0a18.29,18.29,0,0,1-18.29,18.26H276a18.27,18.27,0,0,1-18.29-18.24v0h0A18.26,18.26,0,0,1,276,158.75H276Z"></path><path id="Rectangle_1317" data-name="Rectangle 1317" class="cls-2" d="M283.87,36.22h0a17.32,17.32,0,0,1,22.84,8.83l25,56.38a17.31,17.31,0,0,1-8.83,22.84h0A17.31,17.31,0,0,1,300,115.45L275,59.07A17.32,17.32,0,0,1,283.87,36.22Z"></path><path id="Rectangle_1318" data-name="Rectangle 1318" class="cls-2" d="M444.76,101.52l25-56.4a17.29,17.29,0,0,1,22.8-8.83h0a17.29,17.29,0,0,1,8.82,22.8h0l-24.95,56.43a17.31,17.31,0,0,1-22.83,8.85h0a17.35,17.35,0,0,1-8.83-22.85Z"></path><circle id="Ellipse_700" data-name="Ellipse 700" class="cls-2" cx="392.76" cy="374.63" r="59.5" transform="translate(-141.06 276.41) rotate(-33.22)"></circle></g></g></svg>