<svg xmlns="http://www.w3.org/2000/svg" viewBox="0 0 783.37 468.87"><defs><style>.cls-1{isolation:isolate;}.cls-2{fill:#0c7ff2;}.cls-11,.cls-3,.cls-9{fill:#9caab8;}.cls-11,.cls-3,.cls-8{mix-blend-mode:multiply;}.cls-4{fill:#f8fafc;}.cls-10,.cls-5{fill:#9dc7f2;}.cls-6{fill:#2e2e76;}.cls-7{fill:#00b3e0;}.cls-8{opacity:0.4;}.cls-10{mix-blend-mode:soft-light;opacity:0.59;}.cls-11{opacity:0.48;}</style></defs><g class="cls-1"><g id="Layer_2" data-name="Layer 2"><g id="Layer_1-2" data-name="Layer 1"><rect class="cls-2" width="783.37" height="468.87"></rect><path class="cls-3" d="M584.19,97.81v15.9H584V366a31.69,31.69,0,0,1-31.68,31.69H257.05v.56h-74.7a31.94,31.94,0,0,1-31.94-31.95V113.71h-.2V97.81a27.4,27.4,0,0,1,27.4-27.4H556.79A27.4,27.4,0,0,1,584.19,97.81Z"></path><path class="cls-4" d="M599.43,109.37V366a31.69,31.69,0,0,1-31.69,31.7h-369A31.69,31.69,0,0,1,167,366V109.37Z"></path><rect class="cls-5" x="304.44" y="140.18" width="215.91" height="10.9" rx="1.6"></rect><rect class="cls-5" x="304.44" y="177.68" width="197.67" height="10.9" rx="1.6"></rect><rect class="cls-5" x="304.44" y="215.17" width="225.47" height="10.9" rx="1.6"></rect><path class="cls-6" d="M165.88,96.65H272.52a0,0,0,0,1,0,0V398.21a0,0,0,0,1,0,0h-74.7a31.94,31.94,0,0,1-31.94-31.94V96.65A0,0,0,0,1,165.88,96.65Z"></path><path class="cls-7" d="M193.07,70.41H572.25a27.4,27.4,0,0,1,27.4,27.4v15.91a0,0,0,0,1,0,0h-434a0,0,0,0,1,0,0V97.81a27.4,27.4,0,0,1,27.4-27.4Z"></path><g class="cls-8"><path class="cls-9" d="M599.43,292.34V366a31.69,31.69,0,0,1-31.69,31.7H486.36c-.45-.46-.89-.92-1.33-1.4l-.48-.54c-.18-.2-.35-.41-.52-.61-.76-.89-1.47-1.83-2.15-2.78-.24-.32-.46-.65-.68-1-.5-.72-1-1.45-1.4-2.19-.22-.37-.42-.74-.63-1.11-.05-.1-.12-.2-.18-.31l-.42-.81c-.19-.37-.4-.75-.57-1.12l-.47-1a49,49,0,0,1-2.33-6.11c-5.25-17.1-1.27-37.18,14.4-48.37a16.2,16.2,0,0,0,4.94-5.65,15.42,15.42,0,0,0,1.78-7.27c-.14-23.62,16.36-40.47,36.3-46.9s43.35-2.41,57,15.7a16.21,16.21,0,0,0,7,5.33A14.59,14.59,0,0,0,599.43,292.34Z"></path></g><path class="cls-4" d="M669.94,383.36a41.26,41.26,0,0,1-1.69,4.71,33.45,33.45,0,0,1-34,21.11v.05H529.5a37.83,37.83,0,0,1-30.07-12.53c-.16-.17-.31-.35-.47-.53s-.34-.39-.5-.59c-.74-.86-1.43-1.76-2.08-2.68-.23-.31-.45-.63-.65-.94-.48-.7-.93-1.41-1.36-2.13l-.6-1.06-.18-.31c-.13-.25-.27-.5-.4-.77s-.38-.72-.56-1.08l-.45-1a47,47,0,0,1-2.25-5.89c-5.07-16.52-1.22-35.91,13.91-46.72a15.56,15.56,0,0,0,4.77-5.45,15,15,0,0,0,1.72-7c-.14-22.81,15.79-39.09,35.06-45.29s41.86-2.33,55.06,15.16a15.6,15.6,0,0,0,6.73,5.14,13.82,13.82,0,0,0,8.35.61c9.08-2.19,18.37,1,25.06,7.09.32.29.62.58.92.88s.45.45.67.67l.29.31.7.78.09.11c.28.32.54.64.8,1s.54.69.79,1,.49.69.73,1,.47.72.69,1.08.43.72.63,1.1A26.07,26.07,0,0,1,650,327.56a13.5,13.5,0,0,0,1.4,8.13,16.92,16.92,0,0,0,5.62,6.26c8.94,6.11,13.6,15.84,14.45,26A42.26,42.26,0,0,1,669.94,383.36Z"></path><path class="cls-2" d="M651,367a12.17,12.17,0,0,0-10.65-3.41l-5.16-13.4-5.13-13.3a12.46,12.46,0,0,0,3.15-2.27,12.21,12.21,0,1,0-17.27-17.27,12,12,0,0,0-2.85,4.48l-22.3-3.52L573,315.49a16.68,16.68,0,1,0-28.39,10.06,17.57,17.57,0,0,0,2,1.72l-7.16,14.19L532,356.4a15.76,15.76,0,1,0,9.21,19q6.84.53,13.67.93,14.58.87,29.19,1.17c4.87.1,9.74.17,14.6.16s9.74-.08,14.6-.29l14.58-.44,2.4-.08A12.21,12.21,0,1,0,651,367ZM543,343.3l7.73-13.88a16.69,16.69,0,0,0,21.89-11.53l17.62,3.54,22.14,4.44a.28.28,0,0,0,0,.09,12.05,12.05,0,0,0,.74,4.18Q595,340.82,575.9,349.79q-17.39,8.18-35.44,14.86a15.68,15.68,0,0,0-3.27-4.79,16.79,16.79,0,0,0-2.36-1.94Zm84.8,31.32-14.55-.1c-4.84,0-9.69-.08-14.53-.26s-9.68-.43-14.51-.7q-14.51-.85-29-2.26-6.75-.65-13.47-1.43a15.84,15.84,0,0,0-.41-2.6q18.31-6.33,36-14.21,19.41-8.62,38-19c.17.19.35.39.54.58a12.16,12.16,0,0,0,8.63,3.57,11.86,11.86,0,0,0,2.69-.3l4.49,13.53L636.26,365a12.35,12.35,0,0,0-2.54,2,12.16,12.16,0,0,0-3.53,7.66Z"></path><rect class="cls-10" x="185.03" y="70.41" width="393.43" height="5.15" rx="2.58"></rect><rect class="cls-11" x="165.67" y="112.67" width="433.98" height="5.15" rx="2.58"></rect></g></g></g></svg>