<svg xmlns="http://www.w3.org/2000/svg" xmlns:xlink="http://www.w3.org/1999/xlink" viewBox="0 0 784.56 756.44"><defs><style>.cls-1,.cls-14,.cls-20,.cls-27,.cls-29,.cls-31{isolation:isolate;}.cls-11,.cls-2{opacity:0.1;}.cls-2{fill:url(#linear-gradient);}.cls-3{fill:#cee0f2;}.cls-4{fill:#0c7ff2;}.cls-5{fill:#2e2e76;}.cls-6{font-size:28.69px;font-family:Rubik-Medium, Rubik;font-weight:500;}.cls-10,.cls-31,.cls-6{fill:#fff;}.cls-7,.cls-8{fill:#9dc7f2;}.cls-8{mix-blend-mode:soft-light;opacity:0.59;}.cls-9{fill:#9caab8;}.cls-13,.cls-9{mix-blend-mode:multiply;opacity:0.48;}.cls-11{fill:url(#linear-gradient-2);}.cls-12{fill:#fffff2;}.cls-13{fill:url(#linear-gradient-3);}.cls-14{fill:#ffff3a;opacity:0.37;}.cls-15{fill:#ebf0f5;}.cls-16{fill:url(#linear-gradient-4);}.cls-17,.cls-20{fill:#fb9c3a;}.cls-18{fill:#fb3a3a;}.cls-19,.cls-27{fill:#24313e;}.cls-20{opacity:0.21;}.cls-21{fill:#0062ff;}.cls-22{fill:url(#linear-gradient-5);}.cls-23{opacity:0.19;}.cls-24{fill:url(#linear-gradient-6);}.cls-25,.cls-29{opacity:0.15;}.cls-26,.cls-29{fill:none;}.cls-27{opacity:0.18;}.cls-28{fill:url(#linear-gradient-7);}.cls-30{fill:#031439;}.cls-31{opacity:0.32;}</style><linearGradient id="linear-gradient" x1="79.1" y1="358.53" x2="743.1" y2="358.53" gradientUnits="userSpaceOnUse"><stop offset="0" stop-color="#6b7e8f"></stop><stop offset="1" stop-color="#b6c6d6"></stop></linearGradient><linearGradient id="linear-gradient-2" x1="227.78" y1="360.53" x2="594.43" y2="360.53" xlink:href="#linear-gradient"></linearGradient><linearGradient id="linear-gradient-3" x1="231.79" y1="124.75" x2="384.23" y2="124.75" xlink:href="#linear-gradient"></linearGradient><linearGradient id="linear-gradient-4" x1="610" y1="248.76" x2="650.68" y2="264.02" gradientTransform="matrix(0.91, 0.41, -0.41, 0.91, 173.11, -292.69)" xlink:href="#linear-gradient"></linearGradient><linearGradient id="linear-gradient-5" x1="612.91" y1="208.05" x2="573.85" y2="247.88" gradientTransform="matrix(0.91, 0.41, -0.41, 0.91, 173.11, -292.69)" xlink:href="#linear-gradient"></linearGradient><linearGradient id="linear-gradient-6" x1="616.68" y1="268.65" x2="596.13" y2="294.58" gradientTransform="matrix(0.91, 0.41, -0.41, 0.91, 173.11, -292.69)" xlink:href="#linear-gradient"></linearGradient><linearGradient id="linear-gradient-7" x1="615.84" y1="257.05" x2="646.68" y2="273.67" gradientTransform="matrix(0.91, 0.41, -0.41, 0.91, 173.11, -292.69)" xlink:href="#linear-gradient"></linearGradient></defs><g class="cls-1"><g id="Layer_2" data-name="Layer 2"><g id="Layer_1-2" data-name="Layer 1"><circle class="cls-2" cx="411.1" cy="358.53" r="332"></circle><path class="cls-3" d="M0,367.13H181.1V481.3a9.15,9.15,0,0,1-9.15,9.15l-159.82.07a12,12,0,0,1-12-12Z"></path><path class="cls-4" d="M19,348.1h143a19,19,0,0,1,19,19v0a0,0,0,0,1,0,0H0a0,0,0,0,1,0,0v0A19,19,0,0,1,19,348.1Z"></path><path class="cls-5" d="M28,381.37H152.44a4.49,4.49,0,0,1,4.49,4.49V490.45a0,0,0,0,1,0,0H23.46a0,0,0,0,1,0,0V385.86A4.49,4.49,0,0,1,28,381.37Z"></path><text class="cls-6" transform="translate(49.07 416.1) scale(1.01 1)">&lt; / &gt;</text><rect class="cls-7" x="48.76" y="432.1" width="83.75" height="4.72" rx="1.34"></rect><rect class="cls-7" x="48.76" y="447.32" width="83.75" height="4.72" rx="1.34"></rect><rect class="cls-7" x="48.76" y="461.95" width="83.75" height="4.72" rx="1.34"></rect><rect class="cls-8" x="17.58" y="348.33" width="147.94" height="2.29" rx="1.15"></rect><rect class="cls-9" y="367.13" width="181.1" height="2.29" rx="1.15"></rect><rect class="cls-9" x="9.44" y="487.99" width="164.87" height="2.64" rx="1.15"></rect><path class="cls-4" d="M459.08,756.39H350.38a7.7,7.7,0,0,1-7.94-7.44V634.72a7.16,7.16,0,0,1,1.92-4.85l27.57-30a8.16,8.16,0,0,1,6-2.59h81.13a7.7,7.7,0,0,1,7.94,7.44V749A7.7,7.7,0,0,1,459.08,756.39Z"></path><path class="cls-9" d="M374.1,603.86V634a1.56,1.56,0,0,1-1.58,1.56l-27.07-.46a2.62,2.62,0,0,1-1.89-4.38l26-28.6A2.62,2.62,0,0,1,374.1,603.86Z"></path><path class="cls-7" d="M374.07,598.67v32.6a.68.68,0,0,1-.68.67l-29.16-.5a.67.67,0,0,1-.48-1.12l29.15-32.1A.67.67,0,0,1,374.07,598.67Z"></path><rect class="cls-10" x="359.9" y="650.03" width="92.55" height="7.32" rx="1.74"></rect><rect class="cls-10" x="359.9" y="665.4" width="92.55" height="7.32" rx="1.74"></rect><rect class="cls-10" x="359.9" y="680.76" width="92.55" height="7.32" rx="1.74"></rect><rect class="cls-10" x="359.9" y="696.12" width="92.55" height="7.32" rx="1.74"></rect><rect class="cls-10" x="359.9" y="711.49" width="92.55" height="7.32" rx="1.74"></rect><rect class="cls-8" x="375.66" y="597.24" width="84.97" height="3.45" rx="1.72"></rect><rect class="cls-9" x="346.43" y="752.57" width="116.88" height="3.45" rx="1.72" transform="matrix(1, -0.01, 0.01, 1, -5.55, 3)"></rect><circle class="cls-11" cx="411.1" cy="360.53" r="183.32"></circle><path class="cls-10" d="M776.09,505.11l-74.16,42.82a3.15,3.15,0,0,1-3.17,0L624.1,504.82a3.17,3.17,0,0,1,0-5.5h0c31.78-18.35,31.78-64.22,0-82.57h0a3.17,3.17,0,0,1,0-5.5l74.15-42.81a3.17,3.17,0,0,1,3.18,0l74.66,43.11a3.16,3.16,0,0,1,0,5.49h0c-31.78,18.35-31.77,64.22,0,82.57h0A3.16,3.16,0,0,1,776.09,505.11Z"></path><path class="cls-4" d="M783,506.06l-74.68,43.12a3.17,3.17,0,0,1-4.76-2.75V460.78a3.17,3.17,0,0,1,1.58-2.75l74.69-43.12a3.18,3.18,0,0,1,4.76,2.75v85.65A3.18,3.18,0,0,1,783,506.06Z"></path><path class="cls-4" d="M692.92,549.18l-74.69-43.12a3.18,3.18,0,0,1-1.59-2.75V417.66a3.18,3.18,0,0,1,4.76-2.75L696.09,458a3.18,3.18,0,0,1,1.59,2.75v85.65A3.18,3.18,0,0,1,692.92,549.18Z"></path><path class="cls-7" d="M698.6,452.91l-74.68-43.12a3.16,3.16,0,0,1,0-5.49l74.17-42.83a3.17,3.17,0,0,1,3.18,0L776,404.59a3.17,3.17,0,0,1,0,5.5l-74.18,42.82A3.15,3.15,0,0,1,698.6,452.91Z"></path><path class="cls-9" d="M784.56,499.31v4a3.18,3.18,0,0,1-1.59,2.75l-74.68,43.12a3.17,3.17,0,0,1-4.76-2.75v-4a3.17,3.17,0,0,0,4.76,2.75L783,502.06A3.18,3.18,0,0,0,784.56,499.31Z"></path><path class="cls-9" d="M697.67,542.43v4a3.17,3.17,0,0,1-4.76,2.75l-74.68-43.12a3.18,3.18,0,0,1-1.59-2.75v-4a3.18,3.18,0,0,0,1.59,2.75l74.68,43.12A3.17,3.17,0,0,0,697.67,542.43Z"></path><path class="cls-3" d="M392.33,15.1V115.58a10.74,10.74,0,0,1-10.74,10.74H235.75a10.25,10.25,0,0,1-10.25-10.25V15.1Z"></path><rect class="cls-7" x="278.53" y="26.99" width="83.3" height="4.21"></rect><rect class="cls-7" x="278.53" y="41.45" width="76.26" height="4.21"></rect><rect class="cls-7" x="278.53" y="55.92" width="86.98" height="4.21"></rect><path class="cls-5" d="M225.07,10.19h41.14a0,0,0,0,1,0,0V126.53a0,0,0,0,1,0,0h-33a8.19,8.19,0,0,1-8.19-8.19V10.19A0,0,0,0,1,225.07,10.19Z"></path><path class="cls-4" d="M233.74.07H383.66a8.75,8.75,0,0,1,8.75,8.75v8a0,0,0,0,1,0,0H225a0,0,0,0,1,0,0v-8A8.75,8.75,0,0,1,233.74.07Z"></path><circle class="cls-12" cx="234.19" cy="8.36" r="2.66"></circle><circle class="cls-12" cx="243.52" cy="8.36" r="2.66"></circle><circle class="cls-12" cx="253.02" cy="8.38" r="2.66"></circle><rect class="cls-13" x="231.79" y="123.04" width="152.44" height="3.42" rx="1.71"></rect><rect class="cls-9" x="224.99" y="16.65" width="167.34" height="2.91" rx="1.15"></rect><rect class="cls-8" x="235.12" width="147.08" height="2.91" rx="1.15"></rect><path class="cls-4" d="M747.26,230.07H638.55a7.7,7.7,0,0,1-7.94-7.44V108.4a7.16,7.16,0,0,1,1.92-4.85l27.57-30a8.2,8.2,0,0,1,6-2.59h81.14a7.7,7.7,0,0,1,7.94,7.44V222.63A7.7,7.7,0,0,1,747.26,230.07Z"></path><path class="cls-9" d="M662.27,77.54v30.12a1.56,1.56,0,0,1-1.58,1.56l-27.06-.46a2.62,2.62,0,0,1-1.9-4.38l26-28.61A2.62,2.62,0,0,1,662.27,77.54Z"></path><path class="cls-7" d="M662.24,72.35v32.59a.66.66,0,0,1-.68.67l-29.16-.49a.67.67,0,0,1-.48-1.12l29.16-32.1A.67.67,0,0,1,662.24,72.35Z"></path><rect class="cls-10" x="648.07" y="123.71" width="92.55" height="7.32" rx="1.74"></rect><rect class="cls-10" x="648.07" y="139.07" width="92.55" height="7.32" rx="1.74"></rect><rect class="cls-10" x="648.07" y="154.44" width="92.55" height="7.32" rx="1.74"></rect><rect class="cls-10" x="648.07" y="169.8" width="92.55" height="7.32" rx="1.74"></rect><rect class="cls-10" x="648.07" y="185.17" width="92.55" height="7.32" rx="1.74"></rect><rect class="cls-8" x="663.83" y="70.92" width="84.97" height="3.45" rx="1.72"></rect><rect class="cls-9" x="634.61" y="226.25" width="116.88" height="3.45" rx="1.72" transform="translate(-1.66 5.11) rotate(-0.42)"></rect><path class="cls-14" d="M651.1,230.53H638a7.7,7.7,0,0,1-7.94-7.44V190.53C648.1,194.53,649.61,215.56,651.1,230.53Z"></path><path class="cls-15" d="M629.51,185.72l13.06,8.88,6.71,25.55-2,.71s-3.28-17.48-16.69-15.71l-2.51-3.52S630.72,201.87,629.51,185.72Z"></path><path class="cls-14" d="M646.47,209.23l.11.63,1.88,10.57-1.19.42s-3.16-16.93-16.06-15.78l-.08-.8,7.87-.84,7.4,5.74Z"></path><path class="cls-16" d="M643.58,194.26l6.69,25.53-2,.71s-3.26-17.45-16.62-15.71h0l-2.51-3.51s2.64.25,1.44-15.9Z"></path><path class="cls-14" d="M648.75,219.94s0,.14.08.36l-.56.2s-3.26-17.45-16.62-15.71a8.89,8.89,0,0,1,2.44-1.28C647.27,198.78,648.75,219.94,648.75,219.94Z"></path><path class="cls-17" d="M620.8,216s-4.93,7.45,2.49,25a169.33,169.33,0,0,0,16.63,30s6-32.11-1.22-45.09c-7.46-13.33-8.16-13.29-8.16-13.29"></path><path class="cls-18" d="M622.34,215.33s-2.77,4.17,1.39,14.14a100.16,100.16,0,0,0,9.54,17.42s3.4-18.47-.79-25.91-4.66-7.54-4.66-7.54"></path><path class="cls-19" d="M623.71,214.9l-3.58.89a1.36,1.36,0,0,1-1.65-.94l-.94-3.3,6.29-2.12,1,3.58a1.54,1.54,0,0,1-1.11,1.89Z"></path><path class="cls-19" d="M627.54,214.71l3.34-1.15a2.29,2.29,0,0,0,1.46-2.72l-.83-3-7.43,2.52.85,3a2,2,0,0,0,2.44,1.39Z"></path><path class="cls-15" d="M634.66,206.9a4.45,4.45,0,0,1-.67.88,3.33,3.33,0,0,1-1.21.82c-11,6.77-18.07,4.66-18.07,4.66l-.48-1.46c-.68-2.09-1.83-5.76-1.72-6.21,0,0,3.55-2.59,4.41-3.14s14.7-3.22,14.7-3.22S635.44,205.55,634.66,206.9Z"></path><path class="cls-20" d="M634,207.79a3.31,3.31,0,0,1-1.2.81c-11,6.77-18.07,4.66-18.07,4.66s-.2-.59-.48-1.45L618,212l3.77-.59a13.21,13.21,0,0,0,4.48-1.56l5.39-3,2.2.93Z"></path><path class="cls-21" d="M612.57,119.89a34.82,34.82,0,0,0-6,.33,56.67,56.67,0,0,0-7,1.36,55.58,55.58,0,0,0-8.5,2.88c.14-1.72.32-3.31.55-4.78l1.88-17.29v-.28a2.83,2.83,0,0,1,1.19-2.42,3,3,0,0,1,4.3,1l9.46,13.64h0A45.42,45.42,0,0,1,612.57,119.89Z"></path><path class="cls-22" d="M628.63,160.77c4.13,15.51,6.08,29.64,5.77,39.84h0s-2.79,2.73-9.33,4.68c-.74.23-1.52.44-2.36.63-8.37,2-8.87,1.57-8.87,1.57-6.1-8.33-12.39-21.5-17-37.34a150.85,150.85,0,0,1-5.39-28.25c-.28-3-.44-5.91-.5-8.64-.06-3.18,0-6.12.22-8.8a60.12,60.12,0,0,1,15.46-4.24,34.82,34.82,0,0,1,6-.33q1.65,2.63,3.25,5.75C620.62,135,625.05,147.32,628.63,160.77Z"></path><g class="cls-23"><path class="cls-15" d="M604.52,165.21c7.45,23.25,17.89,41.5,16.21,42.31s-14.85-16.14-22.31-39.39-6.38-44-4.69-44.8S597.06,142,604.52,165.21Z"></path></g><path class="cls-24" d="M616.19,207.15l1.4,5c-7.38,4.13-8.83,11.47-8.78,16.77a26.29,26.29,0,0,0,.81,6.37l-2.15.76-7.63-25.63,6.85-15.46C614.07,209,616.19,207.15,616.19,207.15Z"></path><g class="cls-25"><path class="cls-26" d="M591.6,137.77c3.33-1.13,7-2.23,10.75-3.25,5.72-1.53,11.09-2.69,15.71-3.44"></path><path class="cls-26" d="M590.17,132.8c3.35-1.12,7-2.21,10.8-3.21a157.08,157.08,0,0,1,15.78-3.39"></path><path class="cls-26" d="M592.78,152.3c4.2-1.6,9-3.19,14.18-4.64a155.38,155.38,0,0,1,16.52-3.75"></path><path class="cls-26" d="M594.13,159.48c4.48-1.7,8.88-3.13,14.35-4.7A174.66,174.66,0,0,1,626,150.63"></path><path class="cls-26" d="M598,174.05a166,166,0,0,1,15.78-5.59,155.76,155.76,0,0,1,15.8-3.92"></path><path class="cls-26" d="M600.06,181.06a164.5,164.5,0,0,1,15.68-5.64,156.81,156.81,0,0,1,15.69-4"></path><path class="cls-26" d="M605.9,194c4-1.69,8.68-3.4,13.63-5s9.82-2.91,14-3.83"></path></g><path class="cls-27" d="M628.63,160.77c4.13,15.51,6.08,29.64,5.77,39.84h0l-4.88,3s7.41-6-8.92-55.45c-7.07-21.38-7.59-19.79-12.5-27.13-8.34-12.49-10.08-22-9-20.34l9.47,13.65h0a45.42,45.42,0,0,1,4,5.53c1.1,1.75,2.18,3.67,3.25,5.74C620.62,135,625.05,147.32,628.63,160.77Z"></path><polygon class="cls-15" points="637.3 200.25 644.3 228.17 643.27 228.54 636.28 200.78 629.48 188.89 630.83 188.46 637.3 200.25"></polygon><path class="cls-28" d="M636.28,200.78h0l7,27.7a.05.05,0,0,1,0,0h0l-.74-.3-.68-.27h0c-.11-.34-2.91-9-4.87-14.83s-5.07-5.93-5.35-5.94l0,0-1-3.88a0,0,0,0,1,0,0,7.34,7.34,0,0,0,1-1c1.31-1.43-1.5-11.42-2-13.13,0,0,0-.06.06,0Z"></path><path class="cls-29" d="M595.42,122.83s2.83,43.56,23.73,83.91"></path><path class="cls-30" d="M605.81,142c.92,3.79-1,7.58-4.28,8.51s-6.78-1.38-7.73-5.18,1-7.68,4.33-8.59S604.89,138.17,605.81,142Z"></path><path class="cls-30" d="M610.74,163.24c.9,3.67-1,7.42-4.22,8.39s-6.65-1.21-7.59-4.91,1-7.52,4.26-8.47S609.84,159.55,610.74,163.24Z"></path><path class="cls-30" d="M616.57,184.06c.86,3.56-1,7.26-4.16,8.27s-6.51-1-7.41-4.63,1-7.36,4.2-8.35S615.7,180.48,616.57,184.06Z"></path><path class="cls-15" d="M605.53,140.93c.92,3.79-1,7.58-4.29,8.51s-6.79-1.38-7.76-5.2,1-7.69,4.34-8.59S604.6,137.12,605.53,140.93Z"></path><path class="cls-15" d="M610.46,162.23c.9,3.68-1,7.43-4.23,8.4s-6.66-1.21-7.59-4.92,1-7.53,4.26-8.48S609.56,158.54,610.46,162.23Z"></path><path class="cls-15" d="M616.29,183.08c.87,3.57-1,7.28-4.16,8.28s-6.51-1.05-7.42-4.64,1-7.37,4.21-8.36S615.43,179.5,616.29,183.08Z"></path><path class="cls-19" d="M603.55,141.47c.65,2.66-.69,5.32-3,6s-4.75-1-5.42-3.64.68-5.37,3-6S602.89,138.81,603.55,141.47Z"></path><path class="cls-19" d="M608.52,162.8a4.84,4.84,0,0,1-3,5.88,4.36,4.36,0,0,1-5.31-3.45,4.83,4.83,0,0,1,3-5.92A4.35,4.35,0,0,1,608.52,162.8Z"></path><path class="cls-19" d="M614.39,183.68a4.83,4.83,0,0,1-2.91,5.8,4.17,4.17,0,0,1-5.19-3.26,4.84,4.84,0,0,1,2.94-5.84A4.15,4.15,0,0,1,614.39,183.68Z"></path><path class="cls-31" d="M593.7,112.32c-.43,4.41-.34,8,.19,8s1.3-3.52,1.73-7.92.35-8-.19-8S594.13,107.9,593.7,112.32Z"></path><path class="cls-14" d="M616.82,209.38l.78,2.73c-7.38,4.14-8.84,11.48-8.78,16.78C607.47,210.49,616.82,209.38,616.82,209.38Z"></path><path class="cls-14" d="M631.54,207.15l0,0c.28,0,3.44.21,5.35,5.94s4.76,14.48,4.87,14.83h0l.68.28C637.62,202.77,631.54,207.15,631.54,207.15Z"></path></g></g></g></svg>