<svg xmlns="http://www.w3.org/2000/svg" viewBox="0 0 783.37 468.87"><defs><style>.cls-1{isolation:isolate;}.cls-2{fill:#f8fafc;}.cls-3{fill:#2e2e76;}.cls-4{fill:#0c7ff2;}.cls-5,.cls-6{fill:#9dc7f2;}.cls-5{mix-blend-mode:soft-light;opacity:0.59;}.cls-7{fill:#fff;}</style></defs><g class="cls-1"><g id="Layer_2" data-name="Layer 2"><g id="Layer_1-2" data-name="Layer 1"><rect id="rect201" class="cls-2" width="783.37" height="468.87"></rect><path class="cls-3" d="M456,257.88h0c8.66,2.91,12.73,14.05,9.09,24.87l-59,154.71c-3.63,10.83-10.79,18.19-16,16.44h0c-5.2-1.74-6.46-11.94-2.82-22.76l46.41-158.93C437.41,261.39,447.38,255,456,257.88Z"></path><path class="cls-4" d="M499.38,277.13c-.14-.12-.29-.25-.43-.39-13.77-12.12-12-34.27,3.59-43.88,13.17-8.11,27.71-21.15,23.24-37.71-6.24-23.12-30.92-91.79-128.45-84.35-60.8,4.63-115.31,40.3-142.07,95.08C234.48,248.42,230.94,299.66,302.6,332c41,18.5,87.24,21.51,130.76,10.08,25.26-6.64,52-17.8,68.21-36.55A20.18,20.18,0,0,0,499.38,277.13ZM439.22,297a24.81,24.81,0,1,1,31.43-15.62A24.81,24.81,0,0,1,439.22,297Z"></path><path class="cls-5" d="M397.32,110.8c-60.79,4.63-115.3,40.3-142.06,95.08-13.11,26.84-19.36,57.15-4.19,84-4.64-21.58,1.38-44.25,11.46-64.88,26.76-54.79,81.27-90.46,142.07-95.09,74.57-5.68,106.55,33.12,120.27,62C517.29,166.27,490.67,103.68,397.32,110.8Z"></path><polyline class="cls-3" points="434.33 270.8 486.05 129.57 507.84 136.89 465.88 279.85"></polyline><path class="cls-6" d="M507.84,136.89l-21.79-7.32L502.5,84.64a43.66,43.66,0,0,1,1.85-4.6l18.28,6.14A41.73,41.73,0,0,1,521.32,91Z"></path><path class="cls-3" d="M512.23,85c-7.49-2.53-12.9-7.37-15.06-14.37-1.86-6-1.3-13.63,2.4-22.75,5.59-13.8,27.63-26.84,39.48-33a1.43,1.43,0,0,1,1.72,2.24c-16.87,18.59-9.54,26.11-4,35.13,2.37,3.85,4.43,8,4.16,13.34C540.36,77.2,529.2,90.79,512.23,85Z"></path><path class="cls-4" d="M536.79,52.26c-5.21,5.15-11.14,8.17-16.47,4.11-10.08-7.69-19.2,6.62-23.15,14.3-1.86-6-1.3-13.63,2.4-22.75,5.59-13.8,27.63-26.84,39.48-33a1.43,1.43,0,0,1,1.72,2.24C523.9,35.72,531.23,43.24,536.79,52.26Z"></path><ellipse class="cls-7" cx="398.82" cy="155.54" rx="16.76" ry="22.3" transform="translate(194.58 531.76) rotate(-82.81)"></ellipse><ellipse class="cls-7" cx="338.35" cy="181.69" rx="16.76" ry="22.3" transform="matrix(0.13, -0.99, 0.99, 0.13, 115.74, 494.64)"></ellipse><ellipse class="cls-7" cx="301.28" cy="227.36" rx="16.76" ry="22.3" transform="matrix(0.13, -0.99, 0.99, 0.13, 38.01, 497.82)"></ellipse><ellipse class="cls-7" cx="316.05" cy="288.43" rx="16.76" ry="22.3" transform="translate(-9.67 565.9) rotate(-82.81)"></ellipse></g></g></g></svg>