<svg xmlns="http://www.w3.org/2000/svg" viewBox="0 0 783.37 468.87"><defs><style>.cls-1{isolation:isolate;}.cls-2{fill:#0c7ff2;fill-rule:evenodd;}.cls-3{fill:#9caab8;mix-blend-mode:multiply;}.cls-4,.cls-9{fill:#9dc7f2;}.cls-5{fill:#2e2e76;}.cls-6{fill:#00b3e0;}.cls-7{fill:#f5f5f5;}.cls-8{fill:#0062ff;}.cls-9{mix-blend-mode:soft-light;opacity:0.59;}</style></defs><g class="cls-1"><g id="Layer_2" data-name="Layer 2"><g id="Layer_1-2" data-name="Layer 1"><path class="cls-2" d="M0,0V468.87H783.37V0ZM392.76,307.77a66.71,66.71,0,0,1,28.76,6.48l-28.76,28.69-29.39-28.37A66.45,66.45,0,0,1,392.76,307.77Z"></path><path class="cls-3" d="M529.45,271.07l-34.68-34.69a9.28,9.28,0,0,0-12.89,0l-1.73,1.73a9.9,9.9,0,0,0,.25-5.8,92.52,92.52,0,0,0,9.94-37.46A18.27,18.27,0,0,0,504.65,177v-.17a18.23,18.23,0,0,0-12.34-17.16,153,153,0,0,0-24.15-56.33h0l0,0c-.82-1.17-1.66-2.32-2.51-3.46l18-40.77h0a17.28,17.28,0,0,0-8.83-22.8h0A17.29,17.29,0,0,0,452,45.12L439.21,74c-10.81-7.24-22.69-11.55-35.14-11.55H340.54c-13.51,0-26.34,5.07-37.87,13.45L289,45.05a17.32,17.32,0,1,0-31.67,14L276.76,103c-1.2,1.7-2.37,3.42-3.49,5.18a152.77,152.77,0,0,0-21,51.61A18.26,18.26,0,0,0,240,177v0A18.26,18.26,0,0,0,255,195a92.72,92.72,0,0,0,11.2,39.79c0,.06,0,.12,0,.18a9.73,9.73,0,0,0,.74,3.63l-1.42-1.37a9.2,9.2,0,0,0-12.93,0L218.48,272.5a9.35,9.35,0,0,0,0,12.93l89.75,86.81,7.53,7.29a59.49,59.49,0,0,0,118.6-.37l7.48-7.49L529.45,284A9.29,9.29,0,0,0,529.45,271.07Z"></path><path id="Path_9328" data-name="Path 9328" class="cls-4" d="M508.16,190.52c0,57-52.7,103.35-117.68,103.35S272.62,247.78,272.62,190.52"></path><path id="Path_9329" data-name="Path 9329" class="cls-5" d="M286.79,241.77l98.58,97.33a10,10,0,0,0,13.94,0l96.24-97.33a9.85,9.85,0,0,0,0-13.93l0,0a10.05,10.05,0,0,0-7-2.81H293.74a9.92,9.92,0,0,0-9.82,10A9.7,9.7,0,0,0,286.79,241.77Z"></path><path class="cls-6" d="M547.16,284l-87.61,87.67L425.22,406,391.9,372.7l-14.47-14.47,15.33-15.29,28.76-28.69,78.07-77.87a9.28,9.28,0,0,1,12.89,0l34.68,34.69A9.29,9.29,0,0,1,547.16,284Z"></path><path class="cls-6" d="M407.21,356.88,391.9,372.7l-31.65,32.73-34.31-33.19-89.75-86.81a9.35,9.35,0,0,1,0-12.93l34.12-35.28a9.2,9.2,0,0,1,12.93,0l80.13,77.35,29.39,28.37Z"></path><path class="cls-6" d="M512.22,180.86H267.82c0-23.06,8.78-50.23,23.16-72.71a122.8,122.8,0,0,1,25.09-28.9c12.61-10.35,27-16.77,42.18-16.77h63.53c13.65,0,26.62,5.17,38.25,13.71a115.48,115.48,0,0,1,25.82,27.14l0,0h0C502.13,126.71,512.22,156.15,512.22,180.86Z"></path><circle id="Ellipse_703" data-name="Ellipse 703" class="cls-7" cx="341.45" cy="210.51" r="45.62" transform="translate(-59.2 230.06) rotate(-34.45)"></circle><circle id="Ellipse_704" data-name="Ellipse 704" class="cls-8" cx="341.45" cy="210.51" r="23.3" transform="translate(-59.52 221.48) rotate(-33.22)"></circle><circle id="Ellipse_703-2" data-name="Ellipse 703" class="cls-7" cx="441.44" cy="210.51" r="45.62" transform="matrix(0.82, -0.57, 0.57, 0.82, -41.66, 286.62)"></circle><circle id="Ellipse_704-2" data-name="Ellipse 704" class="cls-8" cx="441.44" cy="210.51" r="23.3" transform="translate(-43.18 276.26) rotate(-33.22)"></circle><path id="Rectangle_1314" data-name="Rectangle 1314" class="cls-5" d="M276,158.72h228a18.23,18.23,0,0,1,18.29,18.15V177h0a18.29,18.29,0,0,1-18.29,18.26H276a18.27,18.27,0,0,1-18.29-18.24v0h0A18.26,18.26,0,0,1,276,158.75H276Z"></path><path class="cls-3" d="M317.09,124.37a17.32,17.32,0,0,1-22.84-8.83L291,108.16a122.8,122.8,0,0,1,25.09-28.9l9.85,22.26A17.32,17.32,0,0,1,317.09,124.37Z"></path><path class="cls-3" d="M485.87,103.37l-5.38,12.17a17.32,17.32,0,0,1-22.84,8.85h0a17.33,17.33,0,0,1-8.82-22.85h0L460,76.2Z"></path><rect class="cls-9" x="275.99" y="158.75" width="226.87" height="6.14" rx="3.07"></rect><rect class="cls-9" x="342.42" y="62.49" width="93.99" height="6.14" rx="3.07"></rect><rect class="cls-3" x="270.68" y="195.3" width="237.48" height="6.14" rx="3.07"></rect><path id="Rectangle_1317" data-name="Rectangle 1317" class="cls-4" d="M283.87,36.22h0a17.32,17.32,0,0,1,22.84,8.83l25,56.38a17.31,17.31,0,0,1-8.83,22.84h0A17.3,17.3,0,0,1,300,115.45L275,59.07A17.32,17.32,0,0,1,283.87,36.22Z"></path><path id="Rectangle_1318" data-name="Rectangle 1318" class="cls-4" d="M444.76,101.52l25-56.4a17.29,17.29,0,0,1,22.8-8.83h0a17.29,17.29,0,0,1,8.82,22.8h0l-24.95,56.43a17.31,17.31,0,0,1-22.83,8.85h0a17.35,17.35,0,0,1-8.83-22.85Z"></path><path class="cls-3" d="M459.55,371.67,425.22,406,391.9,372.7l-31.65,32.73-34.31-33.19a66.81,66.81,0,0,1,37.43-57.67l29.39,28.37,28.76-28.69A66.87,66.87,0,0,1,459.55,371.67Z"></path><circle id="Ellipse_700" data-name="Ellipse 700" class="cls-4" cx="392.76" cy="374.63" r="59.5" transform="translate(-141.06 276.41) rotate(-33.22)"></circle></g></g></g></svg>