<svg xmlns="http://www.w3.org/2000/svg" viewBox="0 0 720 720"><defs><style>.cls-1{isolation:isolate;}.cls-2{fill:none;}.cls-3{fill:#0062ff;}.cls-4{fill:#24313e;opacity:0.11;}.cls-12,.cls-4,.cls-9{mix-blend-mode:multiply;}.cls-5{fill:#fa6285;stroke:#24313e;stroke-miterlimit:10;stroke-width:2.35px;}.cls-6{fill:#ebf0f5;}.cls-7{fill:#cee0f2;}.cls-8{fill:#2e2e76;}.cls-12,.cls-9{opacity:0.4;}.cls-10,.cls-12{fill:#9caab8;}.cls-11{fill:#0c7ff2;}.cls-13{mix-blend-mode:overlay;opacity:0.47;}.cls-14{fill:#9dc7f2;}</style></defs><g class="cls-1"><g id="Layer_2" data-name="Layer 2"><g id="Layer_1-2" data-name="Layer 1"><rect class="cls-2" width="720" height="720"></rect><path class="cls-3" d="M611.05,431.15c-13.06,44.54-50.47,81.26-107.28,77.66V509H188.49C126.75,511,84.68,470,69.43,420.3s-3.68-108,41.86-140.57a47,47,0,0,0,14.36-16.41,44.8,44.8,0,0,0,5.15-21.11c-.41-68.63,47.52-117.62,105.49-136.28s126-7,165.67,45.63A47,47,0,0,0,422.21,167a41.72,41.72,0,0,0,25.13,1.84c27.31-6.61,55.27,3.06,75.41,21.34,13,11.84,22.79,27.3,27,44.3a75.25,75.25,0,0,1,1.47,28.75,40.56,40.56,0,0,0,4.24,24.42,51.42,51.42,0,0,0,16.87,18.88C612.84,334.24,624.12,386.6,611.05,431.15Z"></path><path class="cls-4" d="M611.05,431.15c-13.06,44.54-50.47,81.26-107.28,77.66V509H362.23V241.31a6.79,6.79,0,0,1,6.8-6.8H549.7a75.25,75.25,0,0,1,1.47,28.75,40.56,40.56,0,0,0,4.24,24.42,51.42,51.42,0,0,0,16.87,18.88C612.84,334.24,624.12,386.6,611.05,431.15Z"></path><circle class="cls-5" cx="481.08" cy="410.51" r="45.28"></circle><rect class="cls-6" x="374.91" y="244.86" width="264.69" height="367.12" rx="6.8"></rect><rect class="cls-7" x="395.65" y="280.22" width="214.98" height="20.7"></rect><rect class="cls-7" x="395.65" y="322.72" width="214.98" height="20.7"></rect><rect class="cls-7" x="395.65" y="365.22" width="214.98" height="20.7"></rect><rect class="cls-7" x="395.65" y="407.72" width="214.98" height="20.7"></rect><rect class="cls-7" x="395.65" y="450.22" width="214.98" height="20.7"></rect><path class="cls-8" d="M359.15,556.39l-8.22-8.26a9.2,9.2,0,0,1,0-13.07l9.19-9.19,46.08-46.08,14.28-14.28a9.2,9.2,0,0,1,13.08,0l8.22,8.25a9.05,9.05,0,0,1,2.43,8.75,9.17,9.17,0,0,1-2.43,4.33l-16.09,16.09L381.45,547.2l-9.19,9.19A9.33,9.33,0,0,1,359.15,556.39Z"></path><g class="cls-9"><path class="cls-10" d="M441.78,486.84a9.17,9.17,0,0,0,2.43-4.33,82.84,82.84,0,0,1-16.33-19.69,9.19,9.19,0,0,0-7.4,2.69L406.2,479.79a102.56,102.56,0,0,0,19.49,23.14Z"></path></g><path class="cls-11" d="M393.78,441.15c-34-91.46,51.5-177,143-142.95a102.9,102.9,0,0,1,60.39,60.4c34,91.47-51.49,177-143,143A103,103,0,0,1,393.78,441.15Zm177-5.7c30.76-72.33-38.59-141.67-110.91-110.9a75.47,75.47,0,0,0-39.76,39.75C389.37,436.63,458.72,506,531,475.21A75.49,75.49,0,0,0,570.8,435.45Z"></path><path class="cls-12" d="M359.15,556.39l-8.22-8.26a9.2,9.2,0,0,1,0-13.07l9.19-9.19,21.33,21.33-9.19,9.19A9.33,9.33,0,0,1,359.15,556.39Z"></path><rect class="cls-11" x="298.58" y="524.79" width="51" height="116.85" rx="16.52" transform="translate(507.32 -58.34) rotate(45)"></rect><g class="cls-13"><path class="cls-14" d="M597.13,358.59a102.85,102.85,0,0,0-60.38-60.4,117,117,0,0,0-45.32-7.53,118.61,118.61,0,0,1,37.25,7.53,103,103,0,0,1,60.41,60.4c28.24,76-26,147.88-97.63,150.52C567,511.82,626.46,437.43,597.13,358.59Z"></path></g><circle class="cls-8" cx="495.46" cy="394.84" r="33.58"></circle></g></g></g></svg>