<svg xmlns="http://www.w3.org/2000/svg" viewBox="0 0 720 720"><defs><style>.cls-1{isolation:isolate;}.cls-2{fill:none;}.cls-3{fill:#2e2e76;}.cls-4{fill:#24313e;}.cls-4,.cls-8{mix-blend-mode:multiply;opacity:0.11;}.cls-5{fill:#ebf0f5;}.cls-6{fill:#cee0f2;}.cls-7{fill:#0062ff;}.cls-8{fill:#606060;}</style></defs><g class="cls-1"><g id="Layer_2" data-name="Layer 2"><g id="Layer_1-2" data-name="Layer 1"><rect class="cls-2" width="720" height="720"></rect><rect class="cls-3" x="168.85" y="135.32" width="377.96" height="478.53" rx="13.3"></rect><rect class="cls-4" x="192.39" y="153.03" width="347.15" height="445.55" rx="13.3"></rect><rect class="cls-5" x="184.75" y="153.03" width="347.15" height="445.55" rx="13.3"></rect><rect class="cls-6" x="219.14" y="212.28" width="51.61" height="36.53"></rect><rect class="cls-6" x="219.14" y="279.37" width="51.61" height="36.53"></rect><rect class="cls-6" x="219.14" y="356.32" width="51.61" height="36.53"></rect><polygon class="cls-7" points="273.2 211.52 239.09 245.69 225.2 231.73 231.15 225.77 238.47 233.08 266.6 204.91 273.2 211.52"></polygon><polygon class="cls-7" points="277.54 277.74 243.44 311.91 229.54 297.95 235.5 291.99 242.81 299.3 270.94 271.13 277.54 277.74"></polygon><polygon class="cls-7" points="277.54 354.84 243.44 389.01 229.54 375.05 235.5 369.09 242.81 376.4 270.94 348.23 277.54 354.84"></polygon><rect class="cls-6" x="308.08" y="212.28" width="191.98" height="33.41"></rect><rect class="cls-6" x="308.08" y="280.93" width="191.98" height="33.41"></rect><rect class="cls-6" x="308.08" y="357.88" width="191.98" height="33.41"></rect><rect class="cls-6" x="219.14" y="429.43" width="51.61" height="36.53"></rect><rect class="cls-6" x="308.08" y="430.99" width="191.98" height="33.41"></rect><rect class="cls-8" x="283.25" y="145.05" width="165.43" height="19.13" rx="9.56"></rect><path class="cls-7" d="M319.1,107.07h93.73a30.49,30.49,0,0,1,30.49,30.49V154.2a0,0,0,0,1,0,0H288.62a0,0,0,0,1,0,0V137.55A30.49,30.49,0,0,1,319.1,107.07Z"></path></g></g></g></svg>