<svg xmlns="http://www.w3.org/2000/svg" viewBox="0 0 753.74 753.74"><defs><style>.cls-1{isolation:isolate;}.cls-2{fill:#f1f4f8;}.cls-3{fill:#9caab8;mix-blend-mode:multiply;opacity:0.22;}.cls-4{fill:#2e2e76;}.cls-5{fill:#fff;}.cls-6{fill:#0c7ff2;}</style></defs><g class="cls-1"><g id="Layer_2" data-name="Layer 2"><g id="Layer_1-2" data-name="Layer 1"><circle class="cls-2" cx="376.87" cy="376.87" r="376.87"></circle><path class="cls-3" d="M468.71,414a28.63,28.63,0,1,1-46.87,0,4.53,4.53,0,0,0-3.71-7.12H371.85v-69a4.51,4.51,0,0,1,6.64-1.06A28.61,28.61,0,0,0,425.18,314a28.63,28.63,0,0,0-46.7-21.49,4.51,4.51,0,0,1-6.63-1.05V241.5h47.7a4.52,4.52,0,0,0,3.53-7.36,28.62,28.62,0,1,1,46.68-32.88l0,0a28.64,28.64,0,0,1-2.33,32.85,4.47,4.47,0,0,0,.17,5.87A4.41,4.41,0,0,0,471,241.5h66.25V406.87H472.36A4.51,4.51,0,0,0,468.71,414Z"></path><path class="cls-3" d="M423.93,312.82a28,28,0,0,1-27.8,29,27.45,27.45,0,0,1-17.57-6.36,4.34,4.34,0,0,0-6.44,1,4.48,4.48,0,0,0-.71,2.44v61.91a3.52,3.52,0,0,1-3.52,3.53h-41.6a3.49,3.49,0,0,1-3-5.34l0-.05a28.5,28.5,0,0,0,5-17c-.38-14.64-11.89-26.68-26.27-27.46a28,28,0,0,0-29.33,28.23,28.44,28.44,0,0,0,5,16.22l0,.05a3.51,3.51,0,0,1-3,5.37H214.28a3.53,3.53,0,0,1-3.53-3.53V340.27a4.38,4.38,0,0,0-6.94-3.6,27.34,27.34,0,0,1-15.95,5.11c-15.87,0-28.62-13.5-27.77-29.82a28.11,28.11,0,0,1,27-26.71,27.36,27.36,0,0,1,16.74,5.12,4.39,4.39,0,0,0,6.91-3.66V244.52a3.53,3.53,0,0,1,3.53-3.52H367.89a3.52,3.52,0,0,1,3.52,3.52v43.6a4.48,4.48,0,0,0,.71,2.44,4.34,4.34,0,0,0,6.44,1,27.4,27.4,0,0,1,17.67-6.36C411.2,285.3,423.57,297.61,423.93,312.82Z"></path><path class="cls-3" d="M316.41,565.2a26.35,26.35,0,0,1,6,16.85A26.52,26.52,0,1,1,275.3,565.2a4.19,4.19,0,0,0-1-6.15,4.12,4.12,0,0,0-2.29-.67H218.38a7.75,7.75,0,0,1-7.74-7.74V412.89a7.74,7.74,0,0,1,7.74-7.74h56.37a4.11,4.11,0,0,0,3.23-1.54,4.22,4.22,0,0,0,.15-5.09,26.52,26.52,0,1,1,43.43,0,4.2,4.2,0,0,0,3.43,6.6h40.15a7.74,7.74,0,0,1,7.74,7.74V550.64a7.75,7.75,0,0,1-7.74,7.74H319.68a4.14,4.14,0,0,0-2.29.67A4.19,4.19,0,0,0,316.41,565.2Z"></path><path class="cls-4" d="M479.65,414a28.63,28.63,0,1,1-46.87,0,4.53,4.53,0,0,0-3.71-7.12H382.79v-69a4.5,4.5,0,0,1,6.63-1.06,28.62,28.62,0,1,0,0-44.37,4.51,4.51,0,0,1-6.63-1.05V241.5h47.7a4.52,4.52,0,0,0,3.53-7.36,28.62,28.62,0,1,1,46.68-32.88l0,0a28.64,28.64,0,0,1-2.33,32.85,4.47,4.47,0,0,0,.17,5.87,4.41,4.41,0,0,0,3.35,1.49h66.25V406.87H483.3A4.51,4.51,0,0,0,479.65,414Z"></path><path class="cls-5" d="M434.87,312.82a28.05,28.05,0,0,1-27.8,29,27.45,27.45,0,0,1-17.57-6.36,4.34,4.34,0,0,0-6.44,1,4.48,4.48,0,0,0-.71,2.44v61.91a3.52,3.52,0,0,1-3.52,3.53h-41.6a3.49,3.49,0,0,1-3-5.34l0-.05a28.5,28.5,0,0,0,5-17c-.39-14.64-11.89-26.68-26.27-27.46a28,28,0,0,0-29.33,28.23,28.44,28.44,0,0,0,5,16.22l0,.05a3.51,3.51,0,0,1-3,5.37H225.21a3.53,3.53,0,0,1-3.52-3.53V340.27a4.38,4.38,0,0,0-6.94-3.6,27.34,27.34,0,0,1-15.95,5.11c-15.87,0-28.62-13.5-27.77-29.82a28.11,28.11,0,0,1,27-26.71,27.38,27.38,0,0,1,16.74,5.12,4.39,4.39,0,0,0,6.91-3.66V244.52a3.53,3.53,0,0,1,3.52-3.52H378.83a3.52,3.52,0,0,1,3.52,3.52v43.6a4.48,4.48,0,0,0,.71,2.44,4.34,4.34,0,0,0,6.44,1,27.4,27.4,0,0,1,17.67-6.36C422.14,285.3,434.51,297.61,434.87,312.82Z"></path><path class="cls-6" d="M327.35,565.2a26.35,26.35,0,0,1,6,16.85,26.52,26.52,0,1,1-47.07-16.85,4.19,4.19,0,0,0-1-6.15,4.12,4.12,0,0,0-2.29-.67H229.32a7.75,7.75,0,0,1-7.74-7.74V412.89a7.74,7.74,0,0,1,7.74-7.74h56.37a4.11,4.11,0,0,0,3.23-1.54,4.22,4.22,0,0,0,.15-5.09,26.52,26.52,0,1,1,43.43,0,4.2,4.2,0,0,0,3.43,6.6h40.15a7.74,7.74,0,0,1,7.74,7.74V550.64a7.75,7.75,0,0,1-7.74,7.74H330.62a4.14,4.14,0,0,0-2.29.67A4.19,4.19,0,0,0,327.35,565.2Z"></path></g></g></g></svg>