<svg xmlns="http://www.w3.org/2000/svg" xmlns:xlink="http://www.w3.org/1999/xlink" viewBox="0 0 466.81 334.41"><defs><style>.cls-1{isolation:isolate;}.cls-2{fill:#cee0f2;}.cls-3,.cls-6{fill:#9caab8;mix-blend-mode:multiply;}.cls-3{opacity:0.11;}.cls-4{fill:#0c7ff2;}.cls-5{fill:#2e2e76;}.cls-6{opacity:0.44;}.cls-7{fill:none;stroke-miterlimit:10;stroke-width:8px;stroke:url(#linear-gradient);}</style><linearGradient id="linear-gradient" x1="41.18" y1="294.93" x2="110.97" y2="174.05" gradientUnits="userSpaceOnUse"><stop offset="0" stop-color="#fff" stop-opacity="0"></stop><stop offset="1" stop-color="#0c7ff2"></stop></linearGradient></defs><g class="cls-1"><g id="Layer_2" data-name="Layer 2"><g id="Layer_1-2" data-name="Layer 1"><path class="cls-2" d="M283.73,204.1a6,6,0,0,0,3.4,6.91l9.05,4a6,6,0,0,1,3.33,3.83l7.32,25.61a6,6,0,0,1-.84,5l-5.66,8.14a6,6,0,0,0,.73,7.67l6.4,6.27a6,6,0,0,0,7.68.55l7.9-5.73a6,6,0,0,1,4.95-1l25.88,6.5a6,6,0,0,1,3.95,3.27l4.22,9.09a6,6,0,0,0,7,3.25l8.65-2.35a6,6,0,0,0,4.38-6.35l-1-9.57a6,6,0,0,1,1.66-4.74l19.45-20.05a5.91,5.91,0,0,1,4.73-1.79l9.81.75a6,6,0,0,0,6.24-4.5l2.16-8.67a6,6,0,0,0-3.39-6.91l-9-4a6,6,0,0,1-3.34-3.83l-7.31-25.61a6,6,0,0,1,.84-5l5.66-8.14a6,6,0,0,0-.74-7.67l-6.41-6.26a6,6,0,0,0-7.66-.56l-7.9,5.73a6,6,0,0,1-4.95,1L355,162.45a6,6,0,0,1-4-3.28l-4.22-9.09a6,6,0,0,0-7-3.24l-8.64,2.35a6,6,0,0,0-4.37,6.34l1,9.57a6,6,0,0,1-1.65,4.75L306.69,189.9a6,6,0,0,1-4.74,1.8l-9.8-.77a6,6,0,0,0-6.24,4.5Zm77.14-10.62a24.55,24.55,0,1,1-30.36,18.16A24.64,24.64,0,0,1,360.87,193.48Z"></path><path class="cls-3" d="M330.51,211.65A24.64,24.64,0,0,0,348,240.87a24.32,24.32,0,0,0,12.12.19v30.25a51.82,51.82,0,0,1-.55,7.63l-1.76-3.76a5.92,5.92,0,0,0-3.95-3.28L328,265.4a6,6,0,0,0-5,1l-7.9,5.73a6,6,0,0,1-7.68-.55l-6.41-6.28a6,6,0,0,1-.72-7.65l5.66-8.14a6,6,0,0,0,.84-5.05l-7.32-25.61a6,6,0,0,0-3.33-3.83l-9.06-4a6,6,0,0,1-3.39-6.9l2.18-8.69a6,6,0,0,1,6.25-4.49l9.79.77a6,6,0,0,0,4.74-1.8l19.46-20.06a6,6,0,0,0,1.64-4.74l-.94-9.57a5.94,5.94,0,0,1,4.36-6.33l8.64-2.37a6,6,0,0,1,7,3.24l4.23,9.11a6,6,0,0,0,3.95,3.27l5.12,1.28v29.58A24.52,24.52,0,0,0,330.51,211.65Z"></path><path class="cls-2" d="M365.58,111.19a4.24,4.24,0,0,0,2.42,4.93l6.47,2.84a4.28,4.28,0,0,1,2.39,2.73L382.09,140a4.26,4.26,0,0,1-.6,3.6l-4,5.82a4.26,4.26,0,0,0,.52,5.48l4.57,4.48a4.25,4.25,0,0,0,5.49.4l5.65-4.09a4.25,4.25,0,0,1,3.54-.69l18.5,4.65a4.27,4.27,0,0,1,2.83,2.34l3,6.5a4.26,4.26,0,0,0,5,2.33l6.19-1.69a4.26,4.26,0,0,0,3.12-4.53l-.68-6.85a4.29,4.29,0,0,1,1.18-3.39L450.27,140a4.25,4.25,0,0,1,3.39-1.29l7,.54a4.25,4.25,0,0,0,4.46-3.21l1.55-6.21a4.26,4.26,0,0,0-2.43-4.93l-6.46-2.84a4.23,4.23,0,0,1-2.39-2.73l-5.22-18.32a4.26,4.26,0,0,1,.6-3.6l4-5.82a4.26,4.26,0,0,0-.53-5.48l-4.58-4.48a4.25,4.25,0,0,0-5.48-.4l-5.64,4.1a4.28,4.28,0,0,1-3.55.68l-18.5-4.65a4.28,4.28,0,0,1-2.83-2.34l-3-6.5a4.26,4.26,0,0,0-5-2.32l-6.17,1.69a4.26,4.26,0,0,0-3.13,4.53l.68,6.84a4.27,4.27,0,0,1-1.18,3.39L382,101a4.29,4.29,0,0,1-3.39,1.29l-7-.55a4.26,4.26,0,0,0-4.47,3.21Zm55.15-7.6a17.56,17.56,0,1,1-21.71,13A17.61,17.61,0,0,1,420.73,103.59Z"></path><rect class="cls-4" x="160.39" y="183.09" width="98.25" height="13.63"></rect><path class="cls-2" d="M342.64,95.17a3.51,3.51,0,0,1-2.38.88l-46.63-.46A3.54,3.54,0,0,1,290.12,92l0-3a2.45,2.45,0,0,1,0-.27l-5.77-2.09a4,4,0,0,1-.84.37L252,96.21l-.09.72a3.57,3.57,0,0,1-4,3.08l-6.23-.8-2.88.84a3.54,3.54,0,0,1-4.11-1.73l-33-4.21a3.59,3.59,0,0,1-2.71-1.92l-25.2,9.32a3.55,3.55,0,0,1-4.56-2.1L168.29,97l-27.58,10.2a3.55,3.55,0,0,1-4.56-2.1l-.09-.24q.66-3.66,1.52-7.27a133.75,133.75,0,0,1,9.88-27.47L155.4,54l10.72-21.88h148.6L325.44,54l7.94,16.19A133.65,133.65,0,0,1,339.9,86C340.93,89,341.84,92.07,342.64,95.17Z"></path><path class="cls-5" d="M346.89,128.47V271.31a52,52,0,0,1-51.94,52h-109a51.95,51.95,0,0,1-52-52V128.47a131.81,131.81,0,0,1,2.13-23.58c.43-2.44.94-4.86,1.51-7.27l43.37-16a3.55,3.55,0,0,1,4.56,2.1l.87,2.38L214,75.86A3.57,3.57,0,0,1,218.55,78l1,2.81a3.53,3.53,0,0,1-2.09,4.55l-1.23.45,24.6,3.15,27.65-8.05-6.34-2.31A3.52,3.52,0,0,1,260,74l1-2.83a3.55,3.55,0,0,1,4.55-2.12L309.44,85a3.89,3.89,0,0,1,1.11.66L339.9,86c1,3,1.94,6.12,2.74,9.21A131.88,131.88,0,0,1,346.89,128.47Z"></path><rect class="cls-4" x="133.94" y="144.99" width="212.95" height="72.98"></rect><path class="cls-2" d="M199.36,183.09a7.45,7.45,0,0,0-.69-1.35,8.69,8.69,0,0,0-3.82-3.06,30.41,30.41,0,0,0-6.83-2,33.23,33.23,0,0,1-4-1.07,5.06,5.06,0,0,1-2.1-1.19,2.59,2.59,0,0,1,.51-3.84,6,6,0,0,1,3.18-.71,5.76,5.76,0,0,1,3.1.75,3.22,3.22,0,0,1,1.45,1.8,1.79,1.79,0,0,0,.66.6,1.83,1.83,0,0,0,.87.18h6.13a.89.89,0,0,0,.72-.3,1,1,0,0,0,.26-.67,6.92,6.92,0,0,0-.91-3.05,10.43,10.43,0,0,0-2.53-2.93,12.67,12.67,0,0,0-4.1-2.24,17.37,17.37,0,0,0-5.65-.83,16.86,16.86,0,0,0-6.83,1.26,10.48,10.48,0,0,0-4.47,3.47,9.15,9.15,0,0,0-.3,9.87,9.22,9.22,0,0,0,3.78,3.11,27.8,27.8,0,0,0,6,1.92l1.23.26c1.27.28,2.32.57,3.16.83a6.7,6.7,0,0,1,2.38,1.18,2.18,2.18,0,0,1,.75,1.73,2.6,2.6,0,0,1-1.37,2.28,8,8,0,0,1-4,.82,7.69,7.69,0,0,1-2.7-.4,4.53,4.53,0,0,1-1.79-1,5.06,5.06,0,0,1-1-1.34,2.79,2.79,0,0,0-.63-.61,1.92,1.92,0,0,0-1-.23h-5.85a1,1,0,0,0-.72.3,1,1,0,0,0-.3.69,8.16,8.16,0,0,0,1.68,4.54,11,11,0,0,0,4.63,3.45,15.63,15.63,0,0,0,2.31.76,23.15,23.15,0,0,0,5.41.57,19.7,19.7,0,0,0,7.25-1.23,11.56,11.56,0,0,0,4.95-3.5,8.53,8.53,0,0,0,1.81-5.44A9.51,9.51,0,0,0,199.36,183.09Z"></path><path class="cls-2" d="M233.52,194.77l-4.27-11.68L222.65,165a1.76,1.76,0,0,0-1.81-1.31H214a1.8,1.8,0,0,0-1.23.4,1.92,1.92,0,0,0-.58.91l-6.63,18.12-4.28,11.68a1.62,1.62,0,0,0,0,.41,1,1,0,0,0,1,1h5.72a1.49,1.49,0,0,0,1.11-.34,1.81,1.81,0,0,0,.41-.63l1.77-4.73h12.39l1.81,4.73a1.69,1.69,0,0,0,.44.63,1.43,1.43,0,0,0,1,.34h5.72a1,1,0,0,0,.71-.3.94.94,0,0,0,.3-.67A1,1,0,0,0,233.52,194.77Zm-20.43-11,.24-.67,4.08-11.58,4.07,11.58.25.67Z"></path><path class="cls-2" d="M262.27,164a.9.9,0,0,0-.67-.31h-5.8a1.48,1.48,0,0,0-1.14.42,2.59,2.59,0,0,0-.54.79l-5.56,18.22-1,3.22-1-3.22L241,164.87a1.76,1.76,0,0,0-.52-.79,1.52,1.52,0,0,0-1.15-.42h-5.76a1,1,0,0,0-.71.31.91.91,0,0,0-.3.67,1.4,1.4,0,0,0,.08.41l5.75,18,3.72,11.68a2.19,2.19,0,0,0,.66,1,1.75,1.75,0,0,0,1.25.41h7.1a1.88,1.88,0,0,0,1.3-.41,1.85,1.85,0,0,0,.6-1l3.72-11.68,5.74-18a1,1,0,0,0,.1-.41A.91.91,0,0,0,262.27,164Z"></path><path class="cls-2" d="M275.13,164a1.22,1.22,0,0,0-.87-.33h-6.21a1.15,1.15,0,0,0-.84.33,1.1,1.1,0,0,0-.32.84V195a1.13,1.13,0,0,0,1.16,1.16h6.21a1.19,1.19,0,0,0,.87-.34,1.12,1.12,0,0,0,.35-.82V164.83A1.09,1.09,0,0,0,275.13,164Z"></path><path class="cls-2" d="M294.37,164a.88.88,0,0,0-.67-.31H268.5a.86.86,0,0,0-.69.31,1.07,1.07,0,0,0-.28.76v5.53a1,1,0,0,0,.28.74.94.94,0,0,0,.69.28h25.2a1,1,0,0,0,.67-.28,1,1,0,0,0,.3-.74v-5.53A1,1,0,0,0,294.37,164Z"></path><path class="cls-2" d="M291.2,177a.79.79,0,0,0-.6-.29H268.39a.74.74,0,0,0-.61.29,1.12,1.12,0,0,0-.25.72v5.19a1,1,0,0,0,.25.7.72.72,0,0,0,.61.27H290.6a.77.77,0,0,0,.6-.27,1,1,0,0,0,.26-.7v-5.19A1.08,1.08,0,0,0,291.2,177Z"></path><path class="cls-2" d="M294.37,189a.91.91,0,0,0-.67-.3H268.5a.89.89,0,0,0-.69.3,1,1,0,0,0-.28.74v5.41a.94.94,0,0,0,.28.72.85.85,0,0,0,.45.26l.24,0h25.2a.93.93,0,0,0,.67-.29.92.92,0,0,0,.3-.72v-5.41A1,1,0,0,0,294.37,189Z"></path><polygon class="cls-6" points="320.61 45.92 160.23 45.92 166.47 32.08 314.8 32.08 320.61 45.92"></polygon><rect class="cls-4" x="158.03" width="164.78" height="39.1" rx="9.52"></rect><path class="cls-6" d="M192.3,241A91,91,0,0,1,156,313.79a51.88,51.88,0,0,1-22-42.48V155.86a91.28,91.28,0,0,1,37.66,27.23c.85,1,1.71,2.12,2.51,3.22a88.66,88.66,0,0,1,6.38,9.74c.13.23.26.44.37.67A89.2,89.2,0,0,1,189.38,218,90.94,90.94,0,0,1,192.3,241Z"></path><circle class="cls-4" cx="91.19" cy="243.21" r="91.19"></circle><circle class="cls-2" cx="91.19" cy="243.21" r="82.18" transform="translate(-145.27 135.72) rotate(-45)"></circle><path class="cls-7" d="M138.14,197.14A65.78,65.78,0,1,0,91.19,309"></path><circle class="cls-5" cx="91.19" cy="243.21" r="11.64"></circle><rect class="cls-5" x="111.35" y="181.87" width="11.22" height="71.92" rx="2.68" transform="translate(193.95 -17.12) rotate(46.38)"></rect></g></g></g></svg>