<svg xmlns="http://www.w3.org/2000/svg" viewBox="0 0 439.51 419.46"><defs><style>.cls-1{isolation:isolate;}.cls-2{fill:#2e2e76;}.cls-3{fill:#0c7ff2;}.cls-4{fill:#cee0f2;}.cls-5,.cls-8{fill:#9caab8;mix-blend-mode:multiply;}.cls-6,.cls-7{fill:#9dc7f2;mix-blend-mode:overlay;}.cls-6{opacity:0.47;}.cls-7{opacity:0.24;}.cls-8{opacity:0.18;}</style></defs><g class="cls-1"><g id="Layer_2" data-name="Layer 2"><g id="Layer_1-2" data-name="Layer 1"><path class="cls-2" d="M429.11,230.1H394.87a10.37,10.37,0,0,0-10.37,10.37V409.09a10.37,10.37,0,0,1-10.37,10.37H65.38A10.37,10.37,0,0,1,55,409.09V240.47A10.37,10.37,0,0,0,44.63,230.1H10.39a10.37,10.37,0,0,1-7.33-17.71L212.42,3a10.38,10.38,0,0,1,14.67,0L436.45,212.39A10.38,10.38,0,0,1,429.11,230.1Z"></path><rect class="cls-3" x="114.69" y="337.22" width="210.13" height="64.65" rx="8.69"></rect><rect class="cls-2" x="201.5" y="365.87" width="106.36" height="7.35" rx="3.48"></rect><rect class="cls-2" x="201.5" y="380.87" width="106.36" height="7.35" rx="3.48"></rect><ellipse class="cls-4" cx="138.2" cy="381.02" rx="7.78" ry="7.73"></ellipse><ellipse class="cls-4" cx="156.57" cy="381.02" rx="7.78" ry="7.73"></ellipse><ellipse class="cls-4" cx="173.74" cy="381.02" rx="7.78" ry="7.73"></ellipse><rect class="cls-5" x="119.15" y="399.67" width="199.56" height="2.2" rx="1.1"></rect><rect class="cls-6" x="119.15" y="337.22" width="199.56" height="2.2" rx="1.1"></rect><rect class="cls-3" x="114.69" y="266.09" width="210.13" height="64.65" rx="8.69"></rect><rect class="cls-2" x="201.5" y="294.75" width="106.36" height="7.35" rx="3.48"></rect><rect class="cls-2" x="201.5" y="309.75" width="106.36" height="7.35" rx="3.48"></rect><ellipse class="cls-4" cx="138.2" cy="309.89" rx="7.78" ry="7.73"></ellipse><ellipse class="cls-4" cx="156.57" cy="309.89" rx="7.78" ry="7.73"></ellipse><ellipse class="cls-4" cx="173.74" cy="309.89" rx="7.78" ry="7.73"></ellipse><rect class="cls-5" x="119.15" y="328.55" width="199.56" height="2.2" rx="1.1"></rect><rect class="cls-6" x="119.15" y="266.09" width="199.56" height="2.2" rx="1.1"></rect><rect class="cls-3" x="114.69" y="194.97" width="210.13" height="64.65" rx="8.69"></rect><rect class="cls-2" x="201.5" y="223.62" width="106.36" height="7.35" rx="3.48"></rect><rect class="cls-2" x="201.5" y="238.62" width="106.36" height="7.35" rx="3.48"></rect><ellipse class="cls-4" cx="138.2" cy="238.77" rx="7.78" ry="7.73"></ellipse><ellipse class="cls-4" cx="156.57" cy="238.77" rx="7.78" ry="7.73"></ellipse><ellipse class="cls-4" cx="173.74" cy="238.77" rx="7.78" ry="7.73"></ellipse><rect class="cls-5" x="119.15" y="257.42" width="199.56" height="2.2" rx="1.1"></rect><rect class="cls-6" x="119.15" y="194.97" width="199.56" height="2.2" rx="1.1"></rect><path class="cls-7" d="M437.11,227.17c-.21-.25-.43-.5-.67-.74L227.09,17.08a10.38,10.38,0,0,0-14.67,0L3.06,226.43c-.24.24-.46.49-.67.74a10.33,10.33,0,0,1,.67-14L212.42,3.86a10.38,10.38,0,0,1,14.67,0L436.44,213.21A10.33,10.33,0,0,1,437.11,227.17Z"></path><path class="cls-8" d="M384.49,395.87v13.22a10.37,10.37,0,0,1-10.37,10.37H65.37A10.37,10.37,0,0,1,55,409.09V395.87a10.37,10.37,0,0,0,10.37,10.37H374.12A10.37,10.37,0,0,0,384.49,395.87Z"></path></g></g></g></svg>