<svg xmlns="http://www.w3.org/2000/svg" viewBox="0 0 753.74 753.74"><defs><style>.cls-1{isolation:isolate;}.cls-2{fill:#f1f4f8;}.cls-3{fill:#9caab8;mix-blend-mode:multiply;opacity:0.22;}.cls-4{fill:#0c7ff2;}.cls-5{mix-blend-mode:soft-light;opacity:0.59;}.cls-6{fill:#9dc7f2;}.cls-7{fill:#fff;}.cls-8{fill:#2e2e76;fill-rule:evenodd;}</style></defs><g class="cls-1"><g id="Layer_2" data-name="Layer 2"><g id="Layer_1-2" data-name="Layer 1"><circle class="cls-2" cx="376.87" cy="376.87" r="376.87"></circle><path class="cls-3" d="M588.21,464.66a110.25,110.25,0,0,1-4.61,12.77c-9.26,21.55-25.31,39.84-47.37,49.68a90.58,90.58,0,0,1-34.35,7.78c-3.4.12-6.89.08-10.47-.15v.15H206.94c-34.56,1.16-62.28-12.68-81.63-34-.42-.47-.84-.94-1.26-1.43s-.93-1.06-1.38-1.6c-2-2.34-3.87-4.78-5.63-7.28-.62-.84-1.21-1.7-1.78-2.57-1.3-1.89-2.5-3.81-3.66-5.76-.57-1-1.11-1.92-1.65-2.87-.16-.28-.33-.55-.47-.84-.37-.7-.74-1.38-1.11-2.1-.51-1-1-2-1.5-2.95s-.84-1.72-1.23-2.58a127.81,127.81,0,0,1-6.11-16c-13.76-44.83-3.32-97.49,37.77-126.83a42.36,42.36,0,0,0,12.94-14.8,40.51,40.51,0,0,0,4.66-19.05c-.37-61.92,42.89-106.11,95.17-122.94s113.64-6.33,149.49,41.16a42.39,42.39,0,0,0,18.27,14A37.71,37.71,0,0,0,440.49,228c24.65-6,49.88,2.75,68,19.25.86.78,1.7,1.57,2.51,2.38.61.59,1.2,1.21,1.79,1.82.27.27.52.54.79.84.64.69,1.28,1.4,1.92,2.12.08.09.15.2.25.3.74.85,1.45,1.71,2.16,2.6s1.46,1.87,2.14,2.81,1.34,1.9,2,2.83,1.29,1.94,1.87,2.93,1.19,2,1.73,3c7.31,13.32,10.78,28.63,8.52,44.29a34.19,34.19,0,0,0-.36,5.69A37.27,37.27,0,0,0,538,335.23a46,46,0,0,0,15.23,17c24.28,16.59,36.93,43,39.25,70.58A115.1,115.1,0,0,1,588.21,464.66Z"></path><path class="cls-4" d="M603.91,464.66a110.25,110.25,0,0,1-4.61,12.77C590,499,574,517.27,551.93,527.11a90.58,90.58,0,0,1-34.35,7.78c-3.4.12-6.89.08-10.47-.15v.15H222.64c-34.56,1.16-62.28-12.68-81.63-34-.42-.47-.84-.94-1.26-1.43s-.93-1.06-1.38-1.6c-2-2.34-3.87-4.78-5.63-7.28-.62-.84-1.21-1.7-1.78-2.57-1.3-1.89-2.5-3.81-3.66-5.76-.57-1-1.11-1.92-1.65-2.87-.16-.28-.33-.55-.47-.84-.37-.7-.74-1.38-1.11-2.1-.51-1-1-2-1.5-2.95s-.84-1.72-1.23-2.58a127.81,127.81,0,0,1-6.11-16c-13.76-44.83-3.32-97.49,37.77-126.83a42.36,42.36,0,0,0,12.94-14.8,40.51,40.51,0,0,0,4.66-19.05c-.37-61.92,42.89-106.11,95.17-122.94s113.64-6.33,149.49,41.16a42.39,42.39,0,0,0,18.27,14A37.71,37.71,0,0,0,456.19,228c24.65-6,49.88,2.75,68,19.25.86.78,1.7,1.57,2.51,2.38.61.59,1.2,1.21,1.79,1.82.27.27.52.54.79.84.64.69,1.28,1.4,1.92,2.12.08.09.15.2.25.3.74.85,1.45,1.71,2.16,2.6s1.46,1.87,2.14,2.81,1.34,1.9,2,2.83,1.29,1.94,1.87,2.93,1.19,2,1.73,3c7.31,13.32,10.78,28.63,8.52,44.29a34.19,34.19,0,0,0-.36,5.69,37.27,37.27,0,0,0,4.18,16.36,46,46,0,0,0,15.23,17c24.28,16.59,36.93,43,39.25,70.58A115.1,115.1,0,0,1,603.91,464.66Z"></path><g class="cls-5"><path class="cls-6" d="M541.35,268.89A73.83,73.83,0,0,1,550,294.74a75.79,75.79,0,0,0-5-11c-.54-1-1.13-2-1.73-3s-1.22-2-1.87-2.92-1.27-1.9-2-2.84-1.4-1.87-2.14-2.8-1.43-1.75-2.16-2.61a1.73,1.73,0,0,1-.25-.3c-.64-.71-1.28-1.43-1.92-2.11-.27-.3-.52-.57-.79-.84-.59-.62-1.18-1.23-1.8-1.82-.81-.81-1.65-1.6-2.5-2.38-18.15-16.5-43.38-25.22-68-19.26a37.66,37.66,0,0,1-22.67-1.65,42.45,42.45,0,0,1-18.27-14c-35.84-47.48-97.19-58-149.48-41.16s-95.54,61-95.17,122.94a40.52,40.52,0,0,1-4.66,19.06,42.26,42.26,0,0,1-13,14.79c-36.68,26.2-48.94,71-41.34,112.21l-.06-.2c-13.76-44.83-3.32-97.49,37.77-126.83a42.36,42.36,0,0,0,12.94-14.8,40.51,40.51,0,0,0,4.66-19.05c-.37-61.92,42.89-106.11,95.17-122.94s113.64-6.33,149.49,41.16a42.39,42.39,0,0,0,18.27,14A37.71,37.71,0,0,0,456.19,228c24.65-6,49.88,2.75,68,19.25.86.78,1.7,1.57,2.51,2.38.61.59,1.2,1.21,1.79,1.82.27.27.52.54.79.84.64.69,1.28,1.4,1.92,2.12.08.09.15.2.25.3.74.85,1.45,1.71,2.16,2.6s1.46,1.87,2.14,2.81,1.34,1.9,2,2.83,1.29,1.94,1.87,2.93S540.81,267.88,541.35,268.89Z"></path><path class="cls-6" d="M607,413.78c-6-18.43-17.34-35-34.46-46.71a46,46,0,0,1-15.24-17,37.33,37.33,0,0,1-4.15-15.89c.16.36.33.72.52,1.06a46,46,0,0,0,15.23,17C590.53,367,602.93,389.55,607,413.78Z"></path></g><g class="cls-5"><path class="cls-6" d="M553.5,328a34.17,34.17,0,0,0-.35,5.69c0,.15,0,.32,0,.47a37,37,0,0,1-3.66-15.3,34.19,34.19,0,0,1,.36-5.69,66.64,66.64,0,0,0,.09-18.44A68.63,68.63,0,0,1,553.5,328Z"></path></g><path class="cls-7" d="M552.45,420.18a33.06,33.06,0,0,0-28.9-9.25l-14-36.37-13.92-36.11a33.14,33.14,0,1,0-46.08-40.87L389,288l-48.2-7.62a45.28,45.28,0,1,0-77.05,27.32,46.22,46.22,0,0,0,5.49,4.67L249.81,350.9l-20.48,40.56a42.77,42.77,0,1,0,25,51.58q18.54,1.43,37.09,2.53,39.61,2.35,79.26,3.18c13.21.26,26.42.46,39.63.44s26.42-.24,39.62-.8l39.58-1.2L496,447a33.15,33.15,0,1,0,56.41-26.82ZM259.23,355.9l21-37.66a45.31,45.31,0,0,0,59.41-31.31l47.83,9.6,60.09,12.05v.26a33.07,33.07,0,0,0,2,11.35q-49.17,29-100.95,53.33-47.19,22.19-96.2,40.34a42.78,42.78,0,0,0-8.9-13,41.61,41.61,0,0,0-6.41-5.27Zm230.21,85L450,440.65c-13.15.06-26.3-.21-39.44-.69s-26.28-1.16-39.4-1.92q-39.37-2.31-78.61-6.11-17.88-1.74-35.72-3.79a.36.36,0,0,1-.3-.27L254.83,421q49.68-17.21,97.84-38.58Q405.38,359,455.81,330.7c.47.54,1,1.07,1.46,1.58A33.05,33.05,0,0,0,480.71,342h7.18a.54.54,0,0,1,.51.37l11.8,35.55,12.28,37A33.05,33.05,0,0,0,496,441Z"></path><path class="cls-3" d="M603.91,464.66a110.25,110.25,0,0,1-4.61,12.77C590,499,574,517.27,551.93,527.11a90.58,90.58,0,0,1-34.35,7.78,110.56,110.56,0,0,1,31.93-216,37.27,37.27,0,0,0,4.18,16.36,46,46,0,0,0,15.23,17c24.28,16.59,36.93,43,39.25,70.58A115.1,115.1,0,0,1,603.91,464.66Z"></path><circle class="cls-7" cx="578.18" cy="431.02" r="110.55"></circle><path class="cls-8" d="M678.58,431.89A100.42,100.42,0,0,1,612,526.44l-2,.71c-5.1,1-6.9-2.15-6.9-4.83,0-3.29.12-14.12.12-27.54a34.29,34.29,0,0,0-.75-7.36c-1.15-5.32-3.51-9-6.07-11.24,22.37-2.48,45.85-11,45.85-49.55a38.73,38.73,0,0,0-10.33-26.94c1-2.54,4.49-12.75-1-26.57,0,0-8.42-2.7-27.59,10.29a95.15,95.15,0,0,0-50.27,0c-19.19-13-27.61-10.29-27.61-10.29-5.46,13.82-2,24-1,26.57a38.82,38.82,0,0,0-10.34,26.94c0,38.48,23.44,47.09,45.74,49.63-2.87,2.51-5.46,6.93-6.37,13.42-5.72,2.57-20.27,7-29.22-8.34,0,0-5.31-9.64-15.38-10.35,0,0-9.81-.12-.69,6.11,0,0,6.58,3.08,11.15,14.68,0,0,5.89,19.53,33.82,13.46,0,.72,0,1.42,0,2.11.05,7.33.13,12.79.13,15,0,2.66-1.84,5.76-6.86,4.84a100,100,0,0,1-19.78-9.09q-4-2.4-7.76-5.15a100.4,100.4,0,1,1,159.68-81Z"></path></g></g></g></svg>