<svg xmlns="http://www.w3.org/2000/svg" viewBox="0 0 753.74 753.74"><defs><style>.cls-1{isolation:isolate;}.cls-2{fill:#f1f4f8;}.cls-3{fill:#0c7ff2;}.cls-4{fill:#fff;}.cls-5{fill:#2e2e76;}.cls-6{fill:#9caab8;mix-blend-mode:multiply;opacity:0.18;}.cls-7,.cls-8{fill:#9dc7f2;mix-blend-mode:overlay;}.cls-7{opacity:0.47;}.cls-8{opacity:0.24;}</style></defs><g class="cls-1"><g id="Layer_2" data-name="Layer 2"><g id="Layer_1-2" data-name="Layer 1"><circle class="cls-2" cx="376.87" cy="376.87" r="376.87"></circle><path class="cls-3" d="M600.12,395.74H565.88a10.37,10.37,0,0,0-10.38,10.37V574.73a10.37,10.37,0,0,1-10.37,10.37H236.38A10.37,10.37,0,0,1,226,574.73V406.11a10.37,10.37,0,0,0-10.37-10.37H181.4A10.38,10.38,0,0,1,174.06,378L383.43,168.68a10.38,10.38,0,0,1,14.67,0L607.45,378A10.37,10.37,0,0,1,600.12,395.74Z"></path><rect class="cls-4" x="285.69" y="502.86" width="210.13" height="64.65" rx="8.69"></rect><rect class="cls-5" x="372.51" y="531.51" width="106.36" height="7.35" rx="3.48"></rect><rect class="cls-5" x="372.51" y="546.51" width="106.36" height="7.35" rx="3.48"></rect><ellipse class="cls-3" cx="309.21" cy="546.66" rx="7.78" ry="7.73"></ellipse><ellipse class="cls-3" cx="327.57" cy="546.66" rx="7.78" ry="7.73"></ellipse><ellipse class="cls-3" cx="344.75" cy="546.66" rx="7.78" ry="7.73"></ellipse><rect class="cls-6" x="290.16" y="565.32" width="199.56" height="2.2" rx="1.1"></rect><rect class="cls-7" x="290.16" y="502.86" width="199.56" height="2.2" rx="1.1"></rect><rect class="cls-4" x="285.69" y="431.74" width="210.13" height="64.65" rx="8.69"></rect><rect class="cls-5" x="372.51" y="460.39" width="106.36" height="7.35" rx="3.48"></rect><rect class="cls-5" x="372.51" y="475.39" width="106.36" height="7.35" rx="3.48"></rect><ellipse class="cls-3" cx="309.21" cy="475.54" rx="7.78" ry="7.73"></ellipse><ellipse class="cls-3" cx="327.57" cy="475.54" rx="7.78" ry="7.73"></ellipse><ellipse class="cls-3" cx="344.75" cy="475.54" rx="7.78" ry="7.73"></ellipse><rect class="cls-6" x="290.16" y="494.19" width="199.56" height="2.2" rx="1.1"></rect><rect class="cls-7" x="290.16" y="431.74" width="199.56" height="2.2" rx="1.1"></rect><rect class="cls-4" x="285.69" y="360.61" width="210.13" height="64.65" rx="8.69"></rect><rect class="cls-5" x="372.51" y="389.27" width="106.36" height="7.35" rx="3.48"></rect><rect class="cls-5" x="372.51" y="404.27" width="106.36" height="7.35" rx="3.48"></rect><ellipse class="cls-3" cx="309.21" cy="404.41" rx="7.78" ry="7.73"></ellipse><ellipse class="cls-3" cx="327.57" cy="404.41" rx="7.78" ry="7.73"></ellipse><ellipse class="cls-3" cx="344.75" cy="404.41" rx="7.78" ry="7.73"></ellipse><rect class="cls-6" x="290.16" y="423.07" width="199.56" height="2.2" rx="1.1"></rect><rect class="cls-7" x="290.16" y="360.61" width="199.56" height="2.2" rx="1.1"></rect><path class="cls-8" d="M608.12,392.81c-.21-.25-.43-.5-.67-.74L398.1,182.72a10.38,10.38,0,0,0-14.67,0L174.07,392.07c-.24.24-.46.49-.67.74a10.33,10.33,0,0,1,.67-14L383.43,169.5a10.38,10.38,0,0,1,14.67,0L607.45,378.85A10.33,10.33,0,0,1,608.12,392.81Z"></path><path class="cls-6" d="M555.5,561.51v13.22a10.37,10.37,0,0,1-10.37,10.37H236.38A10.37,10.37,0,0,1,226,574.73V561.51a10.37,10.37,0,0,0,10.37,10.37H545.13A10.37,10.37,0,0,0,555.5,561.51Z"></path></g></g></g></svg>