<svg xmlns="http://www.w3.org/2000/svg" viewBox="0 0 783.37 468.87"><defs><style>.cls-1{fill:#f8fafc;}.cls-2{fill:#2e2e76;}.cls-3{fill:#9dc7f2;}.cls-4{fill:#0c7ff2;}</style></defs><g id="Layer_2" data-name="Layer 2"><g id="Layer_1-2" data-name="Layer 1"><rect class="cls-1" width="783.37" height="468.87"></rect><path class="cls-2" d="M529.13,250.49a28.62,28.62,0,1,1-46.86,0,4.53,4.53,0,0,0-3.71-7.12H432.27v-69a4.52,4.52,0,0,1,6.64-1.06,28.62,28.62,0,1,0,0-44.37,4.52,4.52,0,0,1-6.64-1.05V78H480a4.52,4.52,0,0,0,3.53-7.36,28.62,28.62,0,1,1,46.68-32.88l0,0a28.64,28.64,0,0,1-2.33,32.85,4.46,4.46,0,0,0,.17,5.87A4.4,4.4,0,0,0,531.4,78h66.25V243.34H532.79A4.52,4.52,0,0,0,529.13,250.49Z"></path><path class="cls-3" d="M484.36,149.3a28.06,28.06,0,0,1-27.8,28.95A27.42,27.42,0,0,1,439,171.9a4.34,4.34,0,0,0-6.45,1,4.45,4.45,0,0,0-.7,2.44v61.91a3.52,3.52,0,0,1-3.52,3.52h-41.6a3.48,3.48,0,0,1-3-5.33l0-.06a28.42,28.42,0,0,0,5-17c-.39-14.63-11.89-26.67-26.28-27.45a28,28,0,0,0-29.32,28.23,28.51,28.51,0,0,0,5,16.22l0,0a3.5,3.5,0,0,1-3,5.36H274.7a3.52,3.52,0,0,1-3.52-3.52V176.75a4.38,4.38,0,0,0-6.94-3.61,27.32,27.32,0,0,1-16,5.11,28.28,28.28,0,0,1-.77-56.52,27.36,27.36,0,0,1,16.74,5.12,4.39,4.39,0,0,0,6.92-3.66V81a3.52,3.52,0,0,1,3.52-3.52H428.32A3.52,3.52,0,0,1,431.84,81v43.59a4.45,4.45,0,0,0,.7,2.44,4.34,4.34,0,0,0,6.45,1,27.4,27.4,0,0,1,17.67-6.35C471.63,121.77,484,134.08,484.36,149.3Z"></path><path class="cls-4" d="M376.84,401.68a26.52,26.52,0,1,1-41.12,0,4.18,4.18,0,0,0-3.26-6.82H278.81a7.74,7.74,0,0,1-7.74-7.75V249.37a7.74,7.74,0,0,1,7.74-7.75h56.36a4.06,4.06,0,0,0,3.23-1.54,4.19,4.19,0,0,0,.15-5.08A26.53,26.53,0,1,1,382,235a4.19,4.19,0,0,0,3.43,6.6h40.14a7.75,7.75,0,0,1,7.75,7.75V387.11a7.75,7.75,0,0,1-7.75,7.75H380.1a4.13,4.13,0,0,0-2.28.67A4.18,4.18,0,0,0,376.84,401.68Z"></path></g></g></svg>