<svg xmlns="http://www.w3.org/2000/svg" width="72.497" height="22.709" viewBox="0 0 116.497 22.709"><defs><style>.a{fill:#fff;fill-rule:evenodd;}</style></defs><g transform="translate(0 0)"><path class="a" d="M17.009,10.1a4.125,4.125,0,0,0,2.7-4.019A5.872,5.872,0,0,0,13.923,0H0V22.174H13.86a6.671,6.671,0,0,0,6.991-6.447c.157-2.91-1.23-4.621-3.842-5.63ZM8.6,5.939h1.608a1.154,1.154,0,0,1,0,2.308H8.6Zm2.14,10.137H8.6V13.3h2.14a1.4,1.4,0,1,1,0,2.772Z" transform="translate(0 0)"></path><path class="a" d="M34.466,22.171h7.622V.048H34.466Z" transform="translate(-11.856 -0.017)"></path><path class="a" d="M67.926,15.9c0-5.939-4.757-8.926-9.545-8.957-5.388,0-9.639,3.227-9.639,8.957,0,5.472,3.878,9.083,9.355,9.083,4.536,0,8-1.837,9.458-6.236H60.588c-1.293,1.52-4.189,1.235-4.536-.887H67.736a9.83,9.83,0,0,0,.189-1.96ZM56.059,14.479c.394-2.277,4.221-2.309,4.631,0Z" transform="translate(-16.766 -2.39)"></path><path class="a" d="M93.621,13.293l.158-5.939c-1.951-.6-4.785-.444-5.825,1.611V7.457H80.648V24.6h7.559V17.9c0-3.29,2.538-5.274,5.415-4.6" transform="translate(-27.741 -2.424)"></path><path class="a" d="M113.645,16.061V10.914h2.928V4.974h-2.928V.048h-7.559V4.966h-2.759v5.94h2.759v5.147c0,6.521,5.482,7.594,10.708,6.046l-.252-4.621c-1.132.4-2.9.127-2.9-1.425" transform="translate(-35.543 -0.017)"></path><path class="a" d="M144.844,15.9c0-5.939-4.757-8.926-9.545-8.957-5.387,0-9.64,3.227-9.64,8.957,0,5.472,3.874,9.083,9.355,9.083,4.536,0,8-1.837,9.458-6.236h-6.956c-1.292,1.52-4.193,1.235-4.536-.887h11.685a9.872,9.872,0,0,0,.177-1.96ZM132.97,14.479c.394-2.277,4.221-2.309,4.63,0Z" transform="translate(-43.224 -2.39)"></path><path class="a" d="M170.695,7.365c-1.95-.6-4.788-.443-5.824,1.612V7.461H157.56V24.6h7.563V17.9c0-3.29,2.538-5.274,5.415-4.6Z" transform="translate(-54.198 -2.428)"></path></g></svg>