<svg xmlns="http://www.w3.org/2000/svg" viewBox="0 0 776 437"><defs><style>.cls-1{fill:#fff;}.cls-2{fill:#0c7ff2;}.cls-3{fill:#cee0f2;}.cls-4{fill:none;stroke:#cee0f2;stroke-miterlimit:10;stroke-width:1.58px;}.cls-5{fill:#2e2e76;}</style></defs><g id="Layer_2" data-name="Layer 2"><g id="Layer_1-2" data-name="Layer 1"><rect class="cls-1" width="776" height="437"></rect><path class="cls-2" d="M572.11,78.32a54.31,54.31,0,0,1-21,44.72,32.49,32.49,0,0,0-12.46,25.64v16.55H496.75V148.68a32.19,32.19,0,0,0-12.3-25.51,54.42,54.42,0,1,1,87.66-44.85Z"></path><rect class="cls-3" x="485.01" y="165.23" width="65.82" height="17.15" rx="4.12"></rect><path class="cls-3" d="M495.85,175.06h45.58a0,0,0,0,1,0,0v26.68a7.66,7.66,0,0,1-7.66,7.66H503.51a7.66,7.66,0,0,1-7.66-7.66V175.06A0,0,0,0,1,495.85,175.06Z"></path><path class="cls-4" d="M523.16,165.23h-9c-.4,0-.72-1.21-.72-2.69L498.9,108.65a2.69,2.69,0,0,1,4.63-1.86l2.7,2.8a2.69,2.69,0,0,0,3.78.09l6.27-5.88a2.68,2.68,0,0,1,3.75.07l6.2,6.29a2.69,2.69,0,0,0,3.8,0l3.77-3.71a2.69,2.69,0,0,1,4.57,1.92l-14.49,54.13C523.88,164,523.56,165.23,523.16,165.23Z"></path><path class="cls-2" d="M193.77,333l99.54-99.53a3,3,0,0,1,4.27,0l29.6,29.6a3,3,0,0,0,4.28,0L450.65,143.91a3,3,0,0,0,0-4.28L432,121a3,3,0,0,0-4.28,0L328.94,219.7a3,3,0,0,1-4.28,0l-28.48-28.47a3,3,0,0,0-4.27,0L191.59,291.54a2.19,2.19,0,0,0-.64,1.51l-1,38.36A2.21,2.21,0,0,0,193.77,333Z"></path><path class="cls-2" d="M457.59,175.07l-63.7-63.69a3,3,0,0,1,2.14-5.17h63.7a3,3,0,0,1,3,3v63.69A3,3,0,0,1,457.59,175.07Z"></path><rect class="cls-5" x="409.51" y="255.77" width="216.43" height="91.15" rx="7.28" transform="translate(216.38 819.06) rotate(-90)"></rect><rect class="cls-5" x="323.6" y="289.81" width="148.35" height="91.15" rx="7.28" transform="translate(62.39 733.16) rotate(-90)"></rect><rect class="cls-5" x="235.62" y="321.77" width="84.43" height="91.15" rx="7.28" transform="translate(-89.51 645.17) rotate(-90)"></rect></g></g></svg>