<svg xmlns="http://www.w3.org/2000/svg" width="72" height="57.576" viewBox="0 0 72 57.576"><g transform="translate(-10 -17.424)"><path d="M69,49,81,59V73H69Z" fill="#01c7d4" fill-rule="evenodd"></path><path d="M23,49,11,59V73H23Z" fill="#01c7d4" fill-rule="evenodd"></path><path d="M49,63H43V73h6Z" fill="#01c7d4" fill-rule="evenodd"></path><path d="M49,37H43V47h6Z" transform="translate(0 -1)" fill="#01c7d4" fill-rule="evenodd"></path><path d="M81.4,56.837l-11.417-8.7V44.643a1.532,1.532,0,0,0-.6-1.218H22.618a1.532,1.532,0,0,0-.6,1.218v3.494L10.6,56.837a1.532,1.532,0,0,0-.6,1.218V73.474A1.518,1.518,0,0,0,11.509,75H80.491A1.518,1.518,0,0,0,82,73.474V58.055a1.532,1.532,0,0,0-.6-1.218ZM47.633,71.948H44.367V64.255h3.266Zm3.02,0V62.729a1.518,1.518,0,0,0-1.51-1.526H42.857a1.518,1.518,0,0,0-1.51,1.526v9.219H25.038V46.4H66.962V71.948H50.654ZM13.02,58.816l9-6.856V71.948h-9ZM78.98,71.948h-9V51.96l9,6.856Z" fill="#11244c" fill-rule="evenodd"></path><path d="M69.983,18.643a1.532,1.532,0,0,0-.6-1.219H22.618a1.532,1.532,0,0,0-.6,1.219L22,45.474A1.518,1.518,0,0,0,23.509,47H68.491A1.518,1.518,0,0,0,70,45.474Zm-22.35,25.3H44.367V36.255h3.266v7.693Zm3.02,0V34.729a1.518,1.518,0,0,0-1.51-1.526H42.857a1.518,1.518,0,0,0-1.51,1.526v9.219H25.038V20.4H66.962V43.948H50.654Zm-28.636,0Z" fill="#11244c" fill-rule="evenodd"></path></g></svg>