<svg xmlns="http://www.w3.org/2000/svg" viewBox="0 0 261 252"><defs><style>.cls-1{isolation:isolate;}.cls-2{fill:#0c7ff2;}.cls-3,.cls-7,.cls-8{fill:#cee0f2;}.cls-4,.cls-5{fill:#9caab8;opacity:0.15;}.cls-4,.cls-7{mix-blend-mode:multiply;}.cls-5,.cls-8{mix-blend-mode:overlay;}.cls-6{fill:#2e2e76;}.cls-9{fill:none;}</style></defs><g class="cls-1"><g id="Layer_2" data-name="Layer 2"><g id="Layer_1-2" data-name="Layer 1"><path class="cls-2" d="M204.07,82.66H165.79V68.31A14.3,14.3,0,0,0,151.48,54H108A14.3,14.3,0,0,0,93.7,68.31V82.66H53.88A18.91,18.91,0,0,0,35,101.57V215a18.93,18.93,0,0,0,18.91,18.91H204.07A18.91,18.91,0,0,0,223,215V101.57A18.9,18.9,0,0,0,204.07,82.66ZM104.39,71.8a8.41,8.41,0,0,1,8.42-8.42h33.87a8.41,8.41,0,0,1,8.42,8.42V82.66H104.39Z"></path><rect class="cls-3" x="35.12" y="125.04" width="187.79" height="9.89"></rect><path class="cls-4" d="M219,226.62a18.86,18.86,0,0,1-14.94,7.32H53.88A18.84,18.84,0,0,1,39,226.62Z"></path><path class="cls-5" d="M39,90.51A18.84,18.84,0,0,1,53.88,83.2H204.07A18.86,18.86,0,0,1,219,90.51Z"></path><path class="cls-6" d="M165.79,82.66V68.31A14.3,14.3,0,0,0,151.48,54H108A14.3,14.3,0,0,0,93.7,68.31V82.66Zm-10.69,0H104.39V71.8a8.41,8.41,0,0,1,8.42-8.42h33.87a8.41,8.41,0,0,1,8.42,8.42Z"></path><rect class="cls-7" x="35.06" y="133.14" width="187.79" height="4.01"></rect><rect class="cls-8" x="36.03" y="124.85" width="186.78" height="2.54"></rect><circle class="cls-3" cx="127.98" cy="115.4" r="4.95"></circle><rect class="cls-9" width="261" height="252"></rect></g></g></g></svg>