<svg xmlns="http://www.w3.org/2000/svg" viewBox="0 0 364.41 442.6"><defs><style>.cls-1{isolation:isolate;}.cls-2,.cls-5{fill:none;}.cls-3{fill:#0c7ff2;}.cls-4{fill:#2e2e76;}.cls-5{stroke:#fff;stroke-linecap:round;stroke-miterlimit:10;stroke-width:27.56px;}.cls-6{fill:#9caab8;mix-blend-mode:multiply;opacity:0.48;}.cls-7{fill:#9dc7f2;mix-blend-mode:soft-light;opacity:0.59;}</style></defs><g class="cls-1"><g id="Layer_2" data-name="Layer 2"><g id="Layer_1-2" data-name="Layer 1"><rect id="rect201" class="cls-2" width="364.41" height="442.6"></rect><path class="cls-3" d="M336.68,294a70.25,70.25,0,0,1-2.9,8.06c-5.84,13.59-16,25.13-29.88,31.34a59.25,59.25,0,0,1-28.28,4.81v.1H96.17c-21.81.73-39.29-8-51.5-21.47-.27-.29-.53-.59-.79-.9s-.59-.66-.87-1c-1.26-1.47-2.44-3-3.56-4.59-.39-.53-.76-1.07-1.12-1.62-.82-1.19-1.58-2.4-2.31-3.63-.36-.61-.7-1.21-1-1.82-.1-.17-.2-.34-.3-.53l-.7-1.32c-.32-.62-.65-1.24-.94-1.86s-.53-1.09-.78-1.63a78.37,78.37,0,0,1-3.85-10.1c-8.68-28.28-2.1-61.49,23.82-80a26.64,26.64,0,0,0,8.17-9.33,25.62,25.62,0,0,0,2.94-12c-.24-39.06,27.05-66.94,60-77.56s71.68-4,94.29,26a26.78,26.78,0,0,0,11.53,8.8,23.71,23.71,0,0,0,14.3,1c15.55-3.75,31.46,1.74,42.91,12.15.54.5,1.07,1,1.58,1.51s.77.76,1.14,1.14l.49.53c.41.44.81.89,1.22,1.34a1.19,1.19,0,0,0,.15.18c.47.55.92,1.09,1.37,1.65s.91,1.18,1.35,1.77.84,1.2,1.24,1.79.81,1.22,1.18,1.85.75,1.24,1.09,1.87a44.63,44.63,0,0,1,5.37,27.94A23.16,23.16,0,0,0,305,212.4a29,29,0,0,0,9.61,10.73c15.32,10.47,23.3,27.12,24.76,44.52A72.68,72.68,0,0,1,336.68,294Z"></path><circle class="cls-4" cx="139.97" cy="275.87" r="18.02" transform="translate(-169.38 276.91) rotate(-63.29)"></circle><path class="cls-5" d="M150.39,168.3a98,98,0,0,1,98,98"></path><path class="cls-5" d="M150.39,202.29a64,64,0,0,1,64,64"></path><path class="cls-5" d="M143.06,234.28a39.31,39.31,0,0,1,39.32,39.32"></path><rect class="cls-6" x="86.51" y="334.97" width="204.3" height="3.42" rx="1.71"></rect><path class="cls-7" d="M302.84,196.41a46.34,46.34,0,0,0-5.62-18c-.34-.64-.72-1.26-1.09-1.89s-.78-1.24-1.18-1.84-.8-1.2-1.24-1.79-.88-1.18-1.35-1.77-.9-1.1-1.37-1.64l-.15-.19c-.41-.45-.81-.9-1.22-1.33-.16-.19-.32-.36-.49-.54-.37-.38-.75-.77-1.13-1.14-.52-.52-1.05-1-1.59-1.51-11.45-10.4-27.36-15.9-42.91-12.14a23.71,23.71,0,0,1-14.3-1,26.7,26.7,0,0,1-11.53-8.8c-22.61-30-61.31-36.59-94.29-26s-60.28,38.49-60,77.55a25.56,25.56,0,0,1-2.94,12,26.64,26.64,0,0,1-8.17,9.33c-17.65,12.61-26.33,32-27.33,52.07-1.12-22.73,7.37-45.7,27.33-60a26.55,26.55,0,0,0,8.17-9.33,25.59,25.59,0,0,0,2.94-12c-.24-39.06,27.05-66.94,60-77.56s71.68-4,94.29,26a26.88,26.88,0,0,0,11.53,8.81,23.79,23.79,0,0,0,14.3,1c15.55-3.77,31.46,1.73,42.91,12.14.54.49,1.07,1,1.59,1.51s.76.76,1.13,1.15c.17.16.33.34.49.52.41.44.81.89,1.22,1.34a1.19,1.19,0,0,0,.15.18c.47.55.92,1.09,1.37,1.65s.91,1.18,1.35,1.77.84,1.19,1.24,1.79.81,1.23,1.18,1.85.75,1.24,1.09,1.88A44.9,44.9,0,0,1,302.84,196.41Z"></path><path class="cls-7" d="M339.51,277.58c0-.67-.09-1.36-.14-2-1.46-17.41-9.45-34.06-24.76-44.53A29,29,0,0,1,305,220.29a23.16,23.16,0,0,1-2.41-13.92c0-.26.07-.53.11-.8a24,24,0,0,0,2.3,6.83,29,29,0,0,0,9.61,10.73c15.31,10.47,23.3,27.11,24.76,44.52A71.54,71.54,0,0,1,339.51,277.58Z"></path><path class="cls-7" d="M302.7,205.57a22.43,22.43,0,0,1-.11-7.09c.1-.69.19-1.38.25-2.07A42,42,0,0,1,302.7,205.57Z"></path></g></g></g></svg>