<svg xmlns="http://www.w3.org/2000/svg" viewBox="0 0 300.84 442.6"><defs><style>.cls-1{isolation:isolate;}.cls-2,.cls-6{fill:#9caab8;mix-blend-mode:multiply;}.cls-2{opacity:0.13;}.cls-3{fill:none;}.cls-10,.cls-11,.cls-4{fill:#2e2e76;}.cls-5{fill:#cee0f2;}.cls-6{opacity:0.48;}.cls-7{fill:#0c7ff2;}.cls-14,.cls-8{fill:#9dc7f2;}.cls-9{fill:#fff;}.cls-10{font-size:16.02px;}.cls-10,.cls-11{font-family:Rubik-Bold, Rubik;font-weight:700;}.cls-11{font-size:17.64px;}.cls-12{font-family:Rubik-Regular, Rubik;font-weight:400;}.cls-13{letter-spacing:-0.01em;}.cls-14{mix-blend-mode:soft-light;opacity:0.59;}</style></defs><g class="cls-1"><g id="Layer_2" data-name="Layer 2"><g id="Layer_1-2" data-name="Layer 1"><rect class="cls-2" x="26.56" y="290.99" width="156.32" height="131.14" rx="13.35" transform="translate(209.45 713.13) rotate(-180)"></rect><rect class="cls-2" x="92.03" y="346.38" width="88.77" height="46.09" rx="13.35" transform="translate(272.83 738.86) rotate(-180)"></rect><rect class="cls-2" x="92.03" y="297.63" width="88.77" height="46.09" rx="13.35" transform="translate(272.83 641.36) rotate(-180)"></rect><rect class="cls-2" x="33.71" y="297.63" width="54.99" height="113.82" rx="13.35" transform="translate(122.41 709.08) rotate(-180)"></rect><rect class="cls-2" x="47.73" y="34" width="109.97" height="23.17" rx="11.58"></rect><rect class="cls-2" x="30.35" y="120.15" width="109.97" height="23.17" rx="11.58"></rect><rect class="cls-2" x="90.81" y="67.69" width="99.02" height="46.13" rx="13.35"></rect><rect id="rect201" class="cls-3" width="300.84" height="442.6"></rect><path class="cls-4" d="M178,217.27l15.92,0a2,2,0,0,0,2-2l-.81-74.81a2,2,0,0,1,2-2l23.39.06a2,2,0,0,1,2,2l.8,74.81a2,2,0,0,0,2,2l15.92,0a2,2,0,0,1,1.39,3.39l-31.66,31.5a2,2,0,0,1-2.8,0l-31.5-31.66A2,2,0,0,1,178,217.27Z"></path><path class="cls-5" d="M244.11,259.89v118.5a6.31,6.31,0,0,1-6.51,6.1H148.31a6.32,6.32,0,0,1-6.52-6.1V284.56a5.88,5.88,0,0,1,1.58-4L166,255.91a6.69,6.69,0,0,1,4.94-2.13H237.6A6.32,6.32,0,0,1,244.11,259.89Z"></path><path class="cls-6" d="M244.11,262.81V378.39a6.31,6.31,0,0,1-6.51,6.1H153.08v-90.9a5.88,5.88,0,0,1,1.58-4l22.64-24.67a6.71,6.71,0,0,1,4.95-2.13Z"></path><path class="cls-7" d="M252.71,397.52H163.43a6.33,6.33,0,0,1-6.52-6.11V297.59a5.89,5.89,0,0,1,1.57-4l22.64-24.67a6.73,6.73,0,0,1,4.95-2.13h66.64a6.32,6.32,0,0,1,6.52,6.11V391.41A6.33,6.33,0,0,1,252.71,397.52Z"></path><path class="cls-8" d="M182.89,268v26.77a.55.55,0,0,1-.56.55l-24-.4a.55.55,0,0,1-.4-.92l24-26.37A.55.55,0,0,1,182.89,268Z"></path><rect class="cls-9" x="161.34" y="349.8" width="80.65" height="43.34" rx="10.43"></rect><text class="cls-10" transform="translate(165.7 374.11) scale(1.01 1)">DOCS</text><path class="cls-7" d="M256.42,173.71H158.09a7,7,0,0,1-7.18-6.72V63.66a6.5,6.5,0,0,1,1.74-4.39L177.58,32.1A7.42,7.42,0,0,1,183,29.76h73.39a7,7,0,0,1,7.18,6.73V167A7,7,0,0,1,256.42,173.71Z"></path><path class="cls-8" d="M179.52,31.05V60.54a.61.61,0,0,1-.62.6l-26.37-.44a.61.61,0,0,1-.44-1l26.38-29A.6.6,0,0,1,179.52,31.05Z"></path><rect class="cls-9" x="155.8" y="121.16" width="88.82" height="47.73" rx="10.43"></rect><text class="cls-11" transform="translate(160.59 144.08) scale(1.01 1)">API<tspan class="cls-12"><tspan x="0" y="15.63">SP</tspan><tspan class="cls-13" x="22.3" y="15.63">E</tspan><tspan x="32.87" y="15.63">C</tspan></tspan></text><rect class="cls-14" x="180.63" y="29.66" width="82.49" height="3.58" rx="1.79"></rect><rect class="cls-14" x="187.57" y="266.81" width="67.84" height="3.33" rx="1.66"></rect><path class="cls-6" d="M155.55,171.06h105a0,0,0,0,1,0,0v0a2.81,2.81,0,0,1-2.81,2.81H158.36a2.81,2.81,0,0,1-2.81-2.81v0a0,0,0,0,1,0,0Z"></path><rect class="cls-6" x="195.56" y="173.85" width="27.97" height="2.81" rx="1.41"></rect><rect class="cls-6" x="161.34" y="394.41" width="94.07" height="2.83" rx="1.42"></rect></g></g></g></svg>