<svg xmlns="http://www.w3.org/2000/svg" viewBox="0 0 407.49 442.6"><defs><style>.cls-1{isolation:isolate;}.cls-10,.cls-11,.cls-2{fill:#9caab8;mix-blend-mode:multiply;}.cls-2{opacity:0.13;}.cls-3{fill:none;}.cls-4{fill:#cee0f2;}.cls-5{font-size:37.76px;font-family:Rubik-Medium, Rubik;font-weight:500;}.cls-5,.cls-7{fill:#2e2e76;}.cls-6{fill:#0c7ff2;}.cls-8{fill:#f8fafc;}.cls-9{fill:#9dc7f2;mix-blend-mode:soft-light;opacity:0.59;}.cls-10{opacity:0.48;}.cls-11{opacity:0.4;}</style></defs><g class="cls-1"><g id="Layer_2" data-name="Layer 2"><g id="Layer_1-2" data-name="Layer 1"><rect class="cls-2" x="108.88" y="91.02" width="232.41" height="194.97" rx="13.35" transform="translate(450.17 377.02) rotate(-180)"></rect><rect class="cls-2" x="206.21" y="173.37" width="131.98" height="68.53" rx="13.35" transform="translate(544.41 415.27) rotate(-180)"></rect><rect class="cls-2" x="206.21" y="100.89" width="131.98" height="68.53" rx="13.35" transform="translate(544.41 270.31) rotate(-180)"></rect><rect class="cls-2" x="119.51" y="100.89" width="81.75" height="169.21" rx="13.35" transform="translate(320.77 371) rotate(-180)"></rect><rect id="rect201" class="cls-3" width="407.49" height="442.6"></rect><path class="cls-4" d="M25.79,179.84H241.58a0,0,0,0,1,0,0V308.6a18.17,18.17,0,0,1-18.17,18.17H44A18.17,18.17,0,0,1,25.79,308.6V179.84a0,0,0,0,1,0,0Z"></path><text class="cls-5" transform="translate(43.83 228.4) scale(1.01 1)">&lt;/&gt;</text><path class="cls-6" d="M48.47,157.16H218.9a22.68,22.68,0,0,1,22.68,22.68v0a0,0,0,0,1,0,0H25.79a0,0,0,0,1,0,0v0a22.68,22.68,0,0,1,22.68-22.68Z"></path><rect class="cls-7" x="39.53" y="245.84" width="188.45" height="67.94" rx="5.15"></rect><rect class="cls-8" x="49.98" y="258.27" width="94.41" height="7.88" rx="3.94"></rect><rect class="cls-8" x="49.98" y="273.7" width="109.61" height="7.88" rx="3.94"></rect><rect class="cls-9" x="45.4" y="157.16" width="178.95" height="2.8" rx="1.4"></rect><rect class="cls-10" x="25.79" y="180.13" width="215.78" height="2.8" rx="1.4"></rect><rect class="cls-11" x="39.4" y="323.21" width="188.57" height="3.56" rx="1.78"></rect></g></g></g></svg>