<svg xmlns="http://www.w3.org/2000/svg" viewBox="0 0 1436.27 663.02"><defs><style>.cls-1{isolation:isolate;}.cls-2{fill:#9caab8;mix-blend-mode:multiply;opacity:0.13;}.cls-3{fill:#2e2e76;}.cls-4{fill:#cee0f2;}.cls-5,.cls-7{fill:#f8fafc;}.cls-6{fill:#0c7ff2;}.cls-7{font-size:67.96px;font-family:Rubik-Bold, Rubik;font-weight:700;}.cls-8{letter-spacing:-0.02em;}.cls-9{fill:none;}</style></defs><g class="cls-1"><g id="Layer_2" data-name="Layer 2"><g id="Layer_1-2" data-name="Layer 1"><rect class="cls-2" x="83.4" y="77.38" width="354.57" height="297.45" rx="13.35" transform="translate(521.37 452.22) rotate(-180)"></rect><rect class="cls-2" x="102.75" y="210.71" width="104.55" height="104.55" rx="13.35" transform="translate(310.04 525.97) rotate(-180)"></rect><rect class="cls-2" x="102.75" y="324.16" width="104.55" height="104.55" rx="13.35" transform="translate(310.04 752.87) rotate(-180)"></rect><rect class="cls-2" x="218.56" y="324.16" width="104.55" height="104.55" rx="13.35" transform="translate(541.67 752.87) rotate(-180)"></rect><rect class="cls-2" x="217.22" y="210.71" width="104.55" height="104.55" rx="13.35" transform="translate(538.98 525.97) rotate(-180)"></rect><rect class="cls-2" x="102.75" y="100.14" width="316.47" height="104.55" rx="13.35" transform="translate(521.97 304.82) rotate(-180)"></rect><rect class="cls-3" x="297.27" y="226.11" width="272.72" height="348.74" rx="13.02"></rect><rect class="cls-4" x="308.39" y="238.1" width="250.49" height="324.16" rx="10.16"></rect><rect class="cls-5" x="487.23" y="290.92" width="44.53" height="38.15" rx="8.09"></rect><rect class="cls-3" x="501.66" y="309.7" width="4.8" height="10.99" transform="translate(-75.24 448.74) rotate(-45)"></rect><rect class="cls-3" x="510.75" y="298.63" width="4.67" height="24.01" transform="translate(369.94 -271.82) rotate(45)"></rect><rect class="cls-5" x="487.23" y="425.13" width="44.53" height="38.15" rx="8.09"></rect><rect class="cls-3" x="501.66" y="443.91" width="4.8" height="10.99" transform="translate(-170.14 488.05) rotate(-45)"></rect><rect class="cls-3" x="510.75" y="432.84" width="4.67" height="24.01" transform="translate(464.84 -232.51) rotate(45)"></rect><rect class="cls-5" x="487.23" y="492.24" width="44.53" height="38.15" rx="8.09"></rect><rect class="cls-3" x="501.66" y="511.01" width="4.8" height="10.99" transform="translate(-217.59 507.71) rotate(-45)"></rect><rect class="cls-3" x="510.75" y="499.95" width="4.67" height="24.01" transform="translate(512.29 -212.86) rotate(45)"></rect><rect class="cls-5" x="334.37" y="295.06" width="129.76" height="29.86" rx="7.39"></rect><rect class="cls-5" x="487.23" y="353.88" width="44.53" height="38.15" rx="8.09"></rect><rect class="cls-3" x="501.66" y="372.66" width="4.8" height="10.99" transform="translate(-119.76 467.18) rotate(-45)"></rect><rect class="cls-3" x="510.75" y="361.59" width="4.67" height="24.01" transform="translate(414.46 -253.38) rotate(45)"></rect><rect class="cls-5" x="334.37" y="358.02" width="129.76" height="29.86" rx="7.39"></rect><rect class="cls-5" x="334.37" y="429.27" width="129.76" height="29.86" rx="7.39"></rect><rect class="cls-5" x="334.37" y="496.38" width="129.76" height="29.86" rx="7.39"></rect><rect class="cls-6" x="22.31" y="353.88" width="400.69" height="107.41" rx="14.57"></rect><text class="cls-7" transform="translate(51.9 434.25) scale(1.01 1)">INPU<tspan class="cls-8" x="166.09" y="0">T</tspan></text><rect class="cls-4" x="294.81" y="376.43" width="9.32" height="64.9"></rect><rect class="cls-3" x="380.47" y="195.62" width="106.33" height="50.51" rx="8.42"></rect><rect id="rect201" class="cls-9" width="1436.27" height="663.02"></rect></g></g></g></svg>