<svg xmlns="http://www.w3.org/2000/svg" viewBox="0 0 1260.05 985.88"><defs><style>.cls-1{isolation:isolate;}.cls-2{fill:#fafcff;}.cls-3{fill:#f0f7ff;}.cls-17,.cls-22,.cls-4{mix-blend-mode:multiply;}.cls-4{opacity:0.4;}.cls-5{fill:#9caab8;}.cls-6{fill:#0c7ff2;}.cls-7{fill:#f8fafc;}.cls-8{mix-blend-mode:overlay;opacity:0.47;}.cls-9{fill:#9dc7f2;}.cls-10{fill:#fff;}.cls-11{fill:#2e2e76;}.cls-12{fill:#28c397;}.cls-13{fill:#ff603d;}.cls-14{opacity:0.38;}.cls-15{fill:#f5c822;}.cls-16{fill:#24313e;}.cls-18{fill:#cb3837;}.cls-19{fill:#646464;}.cls-20{fill:#ff4451;}.cls-21{fill-rule:evenodd;}.cls-22{opacity:0.14;}</style></defs><g class="cls-1"><g id="Layer_2" data-name="Layer 2"><g id="Layer_1-2" data-name="Layer 1"><circle class="cls-2" cx="723.93" cy="421.7" r="421.7"></circle><circle class="cls-3" cx="361.48" cy="178.18" r="90.33"></circle><g class="cls-4"><ellipse class="cls-5" cx="361.48" cy="220.88" rx="44.34" ry="3.01"></ellipse></g><path class="cls-6" d="M542.09,587.48a7.57,7.57,0,0,1-5.71-2.61A248.68,248.68,0,0,1,516.12,285.7,7.56,7.56,0,1,1,528.76,294a233.32,233.32,0,0,0,19,281,7.57,7.57,0,0,1-5.71,12.52Z"></path><polygon class="cls-6" points="537.01 308.84 542.09 263.88 500.61 281.95 537.01 308.84"></polygon><path class="cls-6" d="M724.17,670.54a247.42,247.42,0,0,1-138.35-42A7.56,7.56,0,1,1,594.24,616,233.58,233.58,0,0,0,879,596.67a7.56,7.56,0,1,1,10,11.31A248.23,248.23,0,0,1,724.17,670.54Z"></path><polygon class="cls-6" points="609.17 607.87 564.27 602.33 581.92 643.99 609.17 607.87"></polygon><path class="cls-6" d="M557.2,255.56a7.56,7.56,0,0,1-5.24-13A248.67,248.67,0,0,1,870.66,221a7.56,7.56,0,0,1-8.92,12.21,233.53,233.53,0,0,0-299.3,20.27A7.55,7.55,0,0,1,557.2,255.56Z"></path><polygon class="cls-6" points="846.5 240.67 891.14 248 875.17 205.67 846.5 240.67"></polygon><path class="cls-6" d="M928,558.21a7.57,7.57,0,0,1-6.38-11.61A233.62,233.62,0,0,0,903,271.73,7.56,7.56,0,1,1,914.59,262a248.76,248.76,0,0,1,19.83,292.69A7.58,7.58,0,0,1,928,558.21Z"></path><polygon class="cls-6" points="913.16 531.89 908.8 576.92 949.98 558.19 913.16 531.89"></polygon><rect class="cls-6" x="911.87" y="10.56" width="348.18" height="52.24" rx="19.21"></rect><rect class="cls-6" x="276.89" y="19.31" width="156.29" height="49.7" rx="18.28"></rect><path class="cls-7" d="M294.73,50.64a.45.45,0,0,1-.41-.41.5.5,0,0,1,0-.18L299,37.43a.75.75,0,0,1,.77-.56h2.93a.75.75,0,0,1,.77.56l4.63,12.62a.34.34,0,0,1,0,.18.37.37,0,0,1-.13.28.38.38,0,0,1-.3.13h-2.44a.63.63,0,0,1-.44-.14.79.79,0,0,1-.19-.27l-.77-2h-5.29l-.75,2a.74.74,0,0,1-.18.27.66.66,0,0,1-.47.14Zm4.65-5.25h3.69l-1.84-5.19Z"></path><path class="cls-7" d="M310.19,50.64a.52.52,0,0,1-.36-.14.51.51,0,0,1-.13-.35V37.37a.48.48,0,0,1,.13-.36.52.52,0,0,1,.36-.14h5.54a7.34,7.34,0,0,1,2.86.51,4.08,4.08,0,0,1,1.9,1.5,4.39,4.39,0,0,1,.68,2.54,4.26,4.26,0,0,1-.68,2.5,4,4,0,0,1-1.9,1.45,7.76,7.76,0,0,1-2.86.47h-2.35v4.31a.49.49,0,0,1-.15.35.53.53,0,0,1-.37.14Zm3.13-7.51h2.31A2,2,0,0,0,317,42.7a1.63,1.63,0,0,0,.5-1.32,1.87,1.87,0,0,0-.43-1.26,1.79,1.79,0,0,0-1.43-.51h-2.31Z"></path><path class="cls-7" d="M323.57,50.64a.51.51,0,0,1-.36-.14.52.52,0,0,1-.14-.35V37.37a.49.49,0,0,1,.14-.36.51.51,0,0,1,.36-.14h2.65a.53.53,0,0,1,.37.14.46.46,0,0,1,.15.36V50.15a.49.49,0,0,1-.15.35.53.53,0,0,1-.37.14Z"></path><path class="cls-7" d="M339.38,50.84a7.61,7.61,0,0,1-3.2-.61,4.65,4.65,0,0,1-2.09-1.79,5.84,5.84,0,0,1-.82-2.93c0-.54,0-1.11,0-1.73s0-1.21,0-1.77a5.89,5.89,0,0,1,.83-2.91,4.65,4.65,0,0,1,2.1-1.81,7.58,7.58,0,0,1,3.18-.61,8.85,8.85,0,0,1,2.42.32,6.05,6.05,0,0,1,1.94,1A4.48,4.48,0,0,1,345,39.44a4.42,4.42,0,0,1,.49,2,.34.34,0,0,1-.11.29.45.45,0,0,1-.31.12h-2.67a.61.61,0,0,1-.4-.11.78.78,0,0,1-.23-.4,2.31,2.31,0,0,0-.9-1.43,3,3,0,0,0-1.54-.38,2.4,2.4,0,0,0-1.72.6,2.86,2.86,0,0,0-.69,2q-.06,1.61,0,3.3a2.86,2.86,0,0,0,.69,2,2.4,2.4,0,0,0,1.72.6,2.84,2.84,0,0,0,1.55-.4,2.19,2.19,0,0,0,.89-1.41.79.79,0,0,1,.22-.41.71.71,0,0,1,.41-.1h2.67a.49.49,0,0,1,.31.11.36.36,0,0,1,.11.3,4.3,4.3,0,0,1-1.78,3.47,6,6,0,0,1-1.94.94A8.48,8.48,0,0,1,339.38,50.84Z"></path><path class="cls-7" d="M348.09,50.64a.48.48,0,0,1-.36-.14.46.46,0,0,1-.13-.35V37.37a.48.48,0,0,1,.13-.36.52.52,0,0,1,.36-.14h2.55A.53.53,0,0,1,351,37a.46.46,0,0,1,.15.36v4.74H356V37.37a.45.45,0,0,1,.14-.36.48.48,0,0,1,.35-.14h2.55a.48.48,0,0,1,.5.5V50.15a.52.52,0,0,1-.14.35.49.49,0,0,1-.36.14h-2.55a.48.48,0,0,1-.35-.14.47.47,0,0,1-.14-.35v-4.9h-4.87v4.9a.49.49,0,0,1-.15.35.53.53,0,0,1-.37.14Z"></path><path class="cls-7" d="M361.55,50.64a.39.39,0,0,1-.29-.13.41.41,0,0,1-.13-.28.9.9,0,0,1,0-.18l4.65-12.62a.82.82,0,0,1,.25-.39.78.78,0,0,1,.53-.17h2.92A.78.78,0,0,1,370,37a.82.82,0,0,1,.25.39l4.63,12.62a.48.48,0,0,1,0,.18.41.41,0,0,1-.13.28.42.42,0,0,1-.31.13h-2.43a.65.65,0,0,1-.45-.14.79.79,0,0,1-.19-.27l-.77-2h-5.28l-.75,2a.9.9,0,0,1-.18.27.67.67,0,0,1-.48.14Zm4.65-5.25h3.68L368,40.2Z"></path><path class="cls-7" d="M377,50.64a.49.49,0,0,1-.36-.14.52.52,0,0,1-.14-.35V37.37a.48.48,0,0,1,.5-.5h2.09a.67.67,0,0,1,.49.15,1.29,1.29,0,0,1,.19.23l4.83,7.55V37.37a.48.48,0,0,1,.13-.36.51.51,0,0,1,.36-.14h2.37a.48.48,0,0,1,.5.5V50.13a.53.53,0,0,1-.14.37.49.49,0,0,1-.36.14h-2.11a.65.65,0,0,1-.47-.15l-.19-.22L379.88,43v7.16a.52.52,0,0,1-.14.35.51.51,0,0,1-.36.14Z"></path><path class="cls-7" d="M396.46,50.84a7.84,7.84,0,0,1-3.24-.62,4.69,4.69,0,0,1-2.09-1.81,5.81,5.81,0,0,1-.82-2.9c0-.56,0-1.16,0-1.8s0-1.24,0-1.82a5.49,5.49,0,0,1,.83-2.83,4.66,4.66,0,0,1,2.11-1.77,7.76,7.76,0,0,1,3.21-.61,8.76,8.76,0,0,1,2.63.36A6.14,6.14,0,0,1,401,38a4.65,4.65,0,0,1,1.2,1.33,3.15,3.15,0,0,1,.44,1.44.38.38,0,0,1-.13.29.45.45,0,0,1-.31.12h-2.89a.6.6,0,0,1-.33-.07.51.51,0,0,1-.18-.2,3,3,0,0,0-.41-.62,2.12,2.12,0,0,0-.73-.56,2.67,2.67,0,0,0-1.22-.24,2.53,2.53,0,0,0-1.76.59A2.57,2.57,0,0,0,394,42q-.06,1.69,0,3.42a2.74,2.74,0,0,0,.73,2,2.61,2.61,0,0,0,1.8.61,3.27,3.27,0,0,0,1.32-.26,2.07,2.07,0,0,0,.92-.79,2.67,2.67,0,0,0,.33-1.39v-.38h-1.86a.45.45,0,0,1-.35-.14.49.49,0,0,1-.14-.37V43.23a.49.49,0,0,1,.14-.37.48.48,0,0,1,.35-.14h5a.47.47,0,0,1,.49.51v2.24a5.18,5.18,0,0,1-.77,2.89,5,5,0,0,1-2.18,1.84A7.93,7.93,0,0,1,396.46,50.84Z"></path><path class="cls-7" d="M405.49,50.64a.49.49,0,0,1-.36-.14.52.52,0,0,1-.14-.35V37.37a.48.48,0,0,1,.5-.5h9.24a.48.48,0,0,1,.35.14.45.45,0,0,1,.14.36v1.85a.45.45,0,0,1-.14.35.48.48,0,0,1-.35.14h-6.32v2.65h5.88a.46.46,0,0,1,.36.15.52.52,0,0,1,.14.36v1.71a.5.5,0,0,1-.14.35.46.46,0,0,1-.36.15h-5.88v2.73h6.48a.48.48,0,0,1,.49.49v1.85a.52.52,0,0,1-.14.35.48.48,0,0,1-.35.14Z"></path><rect class="cls-6" x="652.53" y="350.44" width="143.27" height="142.9" rx="71.45"></rect><path class="cls-7" d="M676.48,419.26a.59.59,0,0,1-.44-.18.61.61,0,0,1-.17-.42V403a.58.58,0,0,1,.17-.43.62.62,0,0,1,.44-.17h6.31a9.73,9.73,0,0,1,4.05.76,5.65,5.65,0,0,1,2.57,2.22,7.22,7.22,0,0,1,1,3.6c0,.71,0,1.32,0,1.85s0,1.15,0,1.84a8.08,8.08,0,0,1-1,3.71,5.19,5.19,0,0,1-2.5,2.18,10.13,10.13,0,0,1-4,.71Zm3.76-3.47h2.55a4,4,0,0,0,1.73-.33,2.11,2.11,0,0,0,1-1,4.29,4.29,0,0,0,.38-1.83q0-.71.06-1.26c0-.36,0-.73,0-1.1s0-.78-.06-1.23a3.26,3.26,0,0,0-.86-2.4,3.4,3.4,0,0,0-2.41-.76h-2.43Z"></path><path class="cls-7" d="M693.85,419.26a.57.57,0,0,1-.44-.18.61.61,0,0,1-.17-.42V403a.58.58,0,0,1,.17-.43.6.6,0,0,1,.44-.17h11.32a.6.6,0,0,1,.44.17.58.58,0,0,1,.17.43v2.27a.6.6,0,0,1-.17.43.6.6,0,0,1-.44.17h-7.73v3.25h7.2a.59.59,0,0,1,.44.18.64.64,0,0,1,.17.45v2.1a.61.61,0,0,1-.17.42.59.59,0,0,1-.44.18h-7.2v3.35h7.93a.6.6,0,0,1,.43.17.56.56,0,0,1,.17.43v2.27a.6.6,0,0,1-.6.6Z"></path><path class="cls-7" d="M713.49,419.26a.92.92,0,0,1-.65-.22,1.12,1.12,0,0,1-.34-.5l-5-15.43a.63.63,0,0,1,0-.21.46.46,0,0,1,.16-.35.49.49,0,0,1,.37-.16h3a.82.82,0,0,1,.61.22,1,1,0,0,1,.27.41l3.44,11.13L718.78,403a1.2,1.2,0,0,1,.28-.41.76.76,0,0,1,.59-.22h3a.5.5,0,0,1,.36.16.49.49,0,0,1,.15.35.46.46,0,0,1-.05.21l-4.94,15.43a1,1,0,0,1-.32.5,1,1,0,0,1-.68.22Z"></path><path class="cls-7" d="M731.88,419.5a9.6,9.6,0,0,1-3.88-.72,5.69,5.69,0,0,1-2.58-2.18,7.36,7.36,0,0,1-1-3.65c0-.7,0-1.39,0-2.09s0-1.39,0-2.08a7.26,7.26,0,0,1,1-3.66A5.74,5.74,0,0,1,728,402.9a10.26,10.26,0,0,1,7.7,0,5.87,5.87,0,0,1,2.6,2.22,7.16,7.16,0,0,1,1,3.66c0,.69,0,1.38,0,2.08s0,1.39,0,2.09a7.16,7.16,0,0,1-1,3.65,5.69,5.69,0,0,1-2.58,2.18A9.66,9.66,0,0,1,731.88,419.5Zm0-3.47a2.93,2.93,0,0,0,2.09-.77,3.39,3.39,0,0,0,.87-2.46c0-.71,0-1.37,0-2s0-1.28,0-1.95a4.5,4.5,0,0,0-.43-1.85,2.35,2.35,0,0,0-1-1,3.19,3.19,0,0,0-1.5-.34,3.11,3.11,0,0,0-1.48.34,2.45,2.45,0,0,0-1,1,4.21,4.21,0,0,0-.43,1.85q0,1,0,1.95c0,.63,0,1.29,0,2a3.48,3.48,0,0,0,.88,2.46A2.92,2.92,0,0,0,731.88,416Z"></path><path class="cls-7" d="M742.81,419.26a.6.6,0,0,1-.6-.6V403a.54.54,0,0,1,.17-.43.6.6,0,0,1,.43-.17h6.8a9.12,9.12,0,0,1,3.5.61,5.12,5.12,0,0,1,2.33,1.85,5.38,5.38,0,0,1,.83,3.11,5.26,5.26,0,0,1-.83,3.06,4.93,4.93,0,0,1-2.33,1.78,9.54,9.54,0,0,1-3.5.58h-2.89v5.28a.58.58,0,0,1-.18.42.61.61,0,0,1-.45.18Zm3.84-9.21h2.83a2.46,2.46,0,0,0,1.67-.53,2,2,0,0,0,.61-1.61,2.25,2.25,0,0,0-.53-1.54,2.18,2.18,0,0,0-1.75-.63h-2.83Z"></path><path class="cls-7" d="M764.93,419.5a10.18,10.18,0,0,1-4-.69,5.68,5.68,0,0,1-2.43-1.79,4.16,4.16,0,0,1-.87-2.36.46.46,0,0,1,.16-.35.49.49,0,0,1,.37-.16h3.06a1,1,0,0,1,.52.12,1.6,1.6,0,0,1,.33.31,2.69,2.69,0,0,0,.54.7,2.6,2.6,0,0,0,.94.55,4.37,4.37,0,0,0,1.4.2,4.19,4.19,0,0,0,2.13-.43,1.34,1.34,0,0,0,.71-1.18,1.14,1.14,0,0,0-.39-.9,3.61,3.61,0,0,0-1.25-.61,21.66,21.66,0,0,0-2.29-.57,13.82,13.82,0,0,1-3.14-1,4.86,4.86,0,0,1-2-1.61,4.38,4.38,0,0,1-.67-2.5,4.33,4.33,0,0,1,.83-2.62,5.44,5.44,0,0,1,2.34-1.81,8.82,8.82,0,0,1,3.57-.65,9.06,9.06,0,0,1,2.94.43,6.78,6.78,0,0,1,2.15,1.16,5.45,5.45,0,0,1,1.32,1.53,3.51,3.51,0,0,1,.48,1.58.54.54,0,0,1-.14.35.47.47,0,0,1-.37.15H768a1.13,1.13,0,0,1-.47-.09.93.93,0,0,1-.34-.32,1.61,1.61,0,0,0-.76-.92,2.89,2.89,0,0,0-1.61-.4,3.09,3.09,0,0,0-1.66.37,1.26,1.26,0,0,0-.6,1.15,1.2,1.2,0,0,0,.33.84,2.67,2.67,0,0,0,1.09.63,20.1,20.1,0,0,0,2.1.55,16,16,0,0,1,3.56,1,4.58,4.58,0,0,1,2,1.59,4.4,4.4,0,0,1,.64,2.44,4.35,4.35,0,0,1-1,2.82,6,6,0,0,1-2.58,1.82A10.33,10.33,0,0,1,764.93,419.5Z"></path><path class="cls-7" d="M692.6,443a9.44,9.44,0,0,1-3.93-.75,5.79,5.79,0,0,1-2.56-2.19,7.29,7.29,0,0,1-1-3.59c0-.66,0-1.37,0-2.12s0-1.48,0-2.17a7.34,7.34,0,0,1,1-3.57,5.8,5.8,0,0,1,2.57-2.22,9.38,9.38,0,0,1,3.91-.74,10.76,10.76,0,0,1,3,.39,7.49,7.49,0,0,1,2.37,1.16,5.54,5.54,0,0,1,1.59,1.83,5.35,5.35,0,0,1,.6,2.42.43.43,0,0,1-.14.37.55.55,0,0,1-.37.14h-3.28a.74.74,0,0,1-.48-.13,1,1,0,0,1-.29-.5,2.76,2.76,0,0,0-1.11-1.74,3.45,3.45,0,0,0-1.88-.47,2.94,2.94,0,0,0-2.11.73,3.52,3.52,0,0,0-.85,2.45q-.06,2,0,4.05a3.5,3.5,0,0,0,.85,2.44,3,3,0,0,0,2.11.74,3.49,3.49,0,0,0,1.89-.48,2.72,2.72,0,0,0,1.1-1.74.71.71,0,0,1,.77-.63h3.28a.51.51,0,0,1,.37.15.42.42,0,0,1,.14.36,5.25,5.25,0,0,1-2.19,4.25,7.28,7.28,0,0,1-2.37,1.16A10.38,10.38,0,0,1,692.6,443Z"></path><path class="cls-7" d="M707.15,442.73a.61.61,0,0,1-.43-.18.58.58,0,0,1-.18-.42v-5.19l-5.62-10.31a1.12,1.12,0,0,1,0-.13.32.32,0,0,1,0-.14A.51.51,0,0,1,701,426a.54.54,0,0,1,.38-.15h3a.85.85,0,0,1,.57.18,1.24,1.24,0,0,1,.28.32l3.47,6.22,3.49-6.22a1.24,1.24,0,0,1,.28-.32.81.81,0,0,1,.57-.18h3a.48.48,0,0,1,.36.15.5.5,0,0,1,.15.35c0,.05,0,.1,0,.14a.93.93,0,0,1,0,.13l-5.63,10.31v5.19a.58.58,0,0,1-.18.42.61.61,0,0,1-.45.18Z"></path><path class="cls-7" d="M724.88,443a9.44,9.44,0,0,1-3.93-.75,5.79,5.79,0,0,1-2.56-2.19,7.29,7.29,0,0,1-1-3.59c0-.66,0-1.37,0-2.12s0-1.48,0-2.17a7.34,7.34,0,0,1,1-3.57,5.8,5.8,0,0,1,2.57-2.22,9.41,9.41,0,0,1,3.91-.74,10.7,10.7,0,0,1,3,.39,7.38,7.38,0,0,1,2.37,1.16A5.54,5.54,0,0,1,731.8,429a5.35,5.35,0,0,1,.6,2.42.43.43,0,0,1-.14.37.55.55,0,0,1-.37.14h-3.28a.74.74,0,0,1-.48-.13,1.1,1.1,0,0,1-.29-.5,2.76,2.76,0,0,0-1.11-1.74,3.45,3.45,0,0,0-1.88-.47,3,3,0,0,0-2.11.73,3.48,3.48,0,0,0-.84,2.45q-.07,2,0,4.05a3.45,3.45,0,0,0,.84,2.44,3,3,0,0,0,2.11.74,3.55,3.55,0,0,0,1.9-.48,2.75,2.75,0,0,0,1.09-1.74.85.85,0,0,1,.28-.49.79.79,0,0,1,.49-.14h3.28a.51.51,0,0,1,.37.15.42.42,0,0,1,.14.36,5.25,5.25,0,0,1-2.19,4.25,7.18,7.18,0,0,1-2.37,1.16A10.33,10.33,0,0,1,724.88,443Z"></path><path class="cls-7" d="M735.55,442.73a.59.59,0,0,1-.44-.18.61.61,0,0,1-.17-.42V426.46a.58.58,0,0,1,.61-.6h3.2a.58.58,0,0,1,.61.6v12.63h7.35a.57.57,0,0,1,.43.18.6.6,0,0,1,.17.45v2.41a.6.6,0,0,1-.6.6Z"></path><path class="cls-7" d="M750,442.73a.59.59,0,0,1-.44-.18.61.61,0,0,1-.17-.42V426.46a.58.58,0,0,1,.61-.6h11.33a.56.56,0,0,1,.43.17.54.54,0,0,1,.17.43v2.26a.57.57,0,0,1-.17.44.6.6,0,0,1-.43.17h-7.74v3.25h7.2a.57.57,0,0,1,.44.18.64.64,0,0,1,.17.45v2.09a.61.61,0,0,1-.17.43.57.57,0,0,1-.44.18h-7.2v3.35h7.93a.58.58,0,0,1,.61.6v2.27a.61.61,0,0,1-.17.42.59.59,0,0,1-.44.18Z"></path><path class="cls-7" d="M955.89,43.49a8.24,8.24,0,0,1-3.37-.64,5,5,0,0,1-2.2-1.88,6.3,6.3,0,0,1-.86-3.08c0-.57,0-1.18,0-1.82s0-1.27,0-1.86a6.32,6.32,0,0,1,.87-3.06,4.94,4.94,0,0,1,2.21-1.9,8,8,0,0,1,3.35-.65,9,9,0,0,1,2.54.35,6.25,6.25,0,0,1,2,1,4.74,4.74,0,0,1,1.36,1.57,4.66,4.66,0,0,1,.51,2.08.37.37,0,0,1-.12.31.45.45,0,0,1-.32.12h-2.81a.67.67,0,0,1-.41-.11.9.9,0,0,1-.25-.43,2.4,2.4,0,0,0-.95-1.5,3.1,3.1,0,0,0-1.61-.4,2.51,2.51,0,0,0-1.81.63,2.94,2.94,0,0,0-.73,2.1c0,1.13,0,2.29,0,3.47a2.94,2.94,0,0,0,.73,2.1,2.51,2.51,0,0,0,1.81.63,3,3,0,0,0,1.62-.41,2.34,2.34,0,0,0,.94-1.49.61.61,0,0,1,.66-.54h2.81a.42.42,0,0,1,.32.13.35.35,0,0,1,.12.31,4.65,4.65,0,0,1-.51,2.07,4.78,4.78,0,0,1-1.36,1.58,6.67,6.67,0,0,1-2,1A9.34,9.34,0,0,1,955.89,43.49Z"></path><path class="cls-7" d="M965,43.28a.48.48,0,0,1-.37-.15.53.53,0,0,1-.15-.36V29.33a.51.51,0,0,1,.52-.52h2.75a.5.5,0,0,1,.37.15.48.48,0,0,1,.15.37V40.16h6.3a.49.49,0,0,1,.38.16.56.56,0,0,1,.14.38v2.07a.56.56,0,0,1-.14.36.52.52,0,0,1-.38.15Z"></path><path class="cls-7" d="M977.46,43.28a.48.48,0,0,1-.37-.15.53.53,0,0,1-.15-.36V29.33a.51.51,0,0,1,.52-.52h2.79a.52.52,0,0,1,.38.15.46.46,0,0,1,.16.37V42.77a.5.5,0,0,1-.16.36.52.52,0,0,1-.38.15Z"></path><path class="cls-7" d="M984.2,43.28a.48.48,0,0,1-.37-.15.53.53,0,0,1-.15-.36V29.33a.51.51,0,0,1,.52-.52h9.72a.5.5,0,0,1,.37.15.48.48,0,0,1,.14.37v1.94a.48.48,0,0,1-.14.37.5.5,0,0,1-.37.15h-6.64v2.79h6.18a.5.5,0,0,1,.37.15.54.54,0,0,1,.15.39v1.79a.53.53,0,0,1-.15.37.5.5,0,0,1-.37.15h-6.18V40.3h6.8a.52.52,0,0,1,.38.15.53.53,0,0,1,.14.37v2a.56.56,0,0,1-.14.36.52.52,0,0,1-.38.15Z"></path><path class="cls-7" d="M997.49,43.28a.5.5,0,0,1-.37-.15.53.53,0,0,1-.15-.36V29.33a.48.48,0,0,1,.15-.37.5.5,0,0,1,.37-.15h2.21a.69.69,0,0,1,.51.16,1.49,1.49,0,0,1,.2.23l5.07,7.94V29.33a.51.51,0,0,1,.52-.52h2.5a.5.5,0,0,1,.37.15.48.48,0,0,1,.15.37V42.74a.54.54,0,0,1-.15.39.5.5,0,0,1-.37.15h-2.23a.66.66,0,0,1-.49-.16,1.62,1.62,0,0,1-.19-.23l-5.08-7.65v7.53a.53.53,0,0,1-.15.36.48.48,0,0,1-.37.15Z"></path><path class="cls-7" d="M1015.65,43.28a.5.5,0,0,1-.37-.15.53.53,0,0,1-.15-.36V32.06h-3.7a.53.53,0,0,1-.52-.52V29.33a.51.51,0,0,1,.52-.52h11.19a.52.52,0,0,1,.38.15.51.51,0,0,1,.14.37v2.21a.51.51,0,0,1-.52.52h-3.7V42.77a.53.53,0,0,1-.15.36.48.48,0,0,1-.37.15Z"></path><path class="cls-7" d="M1035,43.49a8.2,8.2,0,0,1-3.37-.64,5,5,0,0,1-2.2-1.88,6.3,6.3,0,0,1-.86-3.08c0-.57,0-1.18,0-1.82s0-1.27,0-1.86a6.32,6.32,0,0,1,.87-3.06,4.94,4.94,0,0,1,2.21-1.9,8,8,0,0,1,3.35-.65,9,9,0,0,1,2.54.35,6.1,6.1,0,0,1,2,1,4.47,4.47,0,0,1,1.88,3.65.37.37,0,0,1-.12.31.47.47,0,0,1-.32.12h-2.81a.67.67,0,0,1-.41-.11.83.83,0,0,1-.25-.43,2.4,2.4,0,0,0-1-1.5,3.12,3.12,0,0,0-1.61-.4,2.51,2.51,0,0,0-1.81.63,2.94,2.94,0,0,0-.73,2.1c0,1.13,0,2.29,0,3.47a2.94,2.94,0,0,0,.73,2.1,2.51,2.51,0,0,0,1.81.63,3.07,3.07,0,0,0,1.62-.41,2.34,2.34,0,0,0,.94-1.49.69.69,0,0,1,.23-.42.71.71,0,0,1,.43-.12H1041a.44.44,0,0,1,.32.13.35.35,0,0,1,.12.31,4.51,4.51,0,0,1-1.88,3.65,6.51,6.51,0,0,1-2,1A9.34,9.34,0,0,1,1035,43.49Z"></path><path class="cls-7" d="M1049.54,43.49a8.31,8.31,0,0,1-3.33-.62A4.8,4.8,0,0,1,1044,41a6.34,6.34,0,0,1-.88-3.13c0-.6,0-1.19,0-1.79s0-1.2,0-1.79a6.27,6.27,0,0,1,.89-3.13,4.88,4.88,0,0,1,2.22-1.91,8.73,8.73,0,0,1,6.61,0,5,5,0,0,1,2.22,1.91,6.07,6.07,0,0,1,.88,3.13c0,.59,0,1.19,0,1.79s0,1.19,0,1.79a6,6,0,0,1-.87,3.13,4.88,4.88,0,0,1-2.21,1.87A8.28,8.28,0,0,1,1049.54,43.49Zm0-3a2.5,2.5,0,0,0,1.8-.66,2.94,2.94,0,0,0,.74-2.11c0-.6,0-1.18,0-1.71s0-1.1,0-1.68a3.68,3.68,0,0,0-.37-1.58,2,2,0,0,0-.88-.9,3,3,0,0,0-2.56,0,2.09,2.09,0,0,0-.89.9,3.67,3.67,0,0,0-.38,1.58c0,.58,0,1.14,0,1.68s0,1.11,0,1.71a3,3,0,0,0,.76,2.11A2.5,2.5,0,0,0,1049.54,40.51Z"></path><path class="cls-7" d="M1058.92,43.28a.48.48,0,0,1-.37-.15.53.53,0,0,1-.15-.36V29.33a.51.51,0,0,1,.52-.52h5.41a8.39,8.39,0,0,1,3.47.65,4.91,4.91,0,0,1,2.21,1.9,6.26,6.26,0,0,1,.83,3.09c0,.61,0,1.14,0,1.6s0,1,0,1.57a6.77,6.77,0,0,1-.82,3.18,4.45,4.45,0,0,1-2.14,1.87,8.61,8.61,0,0,1-3.44.61Zm3.23-3h2.18a3.61,3.61,0,0,0,1.49-.27,1.9,1.9,0,0,0,.89-.88,3.81,3.81,0,0,0,.33-1.57c0-.4,0-.76,0-1.08v-1c0-.32,0-.67,0-1a2.84,2.84,0,0,0-.74-2.06,2.92,2.92,0,0,0-2.07-.65h-2.08Z"></path><path class="cls-7" d="M1073.82,43.28a.5.5,0,0,1-.38-.15.56.56,0,0,1-.14-.36V29.33a.51.51,0,0,1,.14-.37.5.5,0,0,1,.38-.15h9.71a.52.52,0,0,1,.38.15.51.51,0,0,1,.14.37v1.94a.51.51,0,0,1-.14.37.52.52,0,0,1-.38.15h-6.63v2.79h6.17a.5.5,0,0,1,.38.15.54.54,0,0,1,.14.39v1.79a.52.52,0,0,1-.14.37.5.5,0,0,1-.38.15h-6.17V40.3h6.8a.48.48,0,0,1,.37.15.5.5,0,0,1,.15.37v2a.53.53,0,0,1-.15.36.48.48,0,0,1-.37.15Z"></path><path class="cls-7" d="M1089.67,43.28a.41.41,0,0,1-.3-.13.42.42,0,0,1-.14-.3,1.11,1.11,0,0,1,0-.19l4.89-13.27a.79.79,0,0,1,.81-.58H1098a.78.78,0,0,1,.55.18.74.74,0,0,1,.26.4l4.87,13.27a.41.41,0,0,1,0,.19.41.41,0,0,1-.13.3.44.44,0,0,1-.32.13h-2.56a.65.65,0,0,1-.47-.15.82.82,0,0,1-.2-.28l-.81-2.11h-5.55l-.8,2.11a.86.86,0,0,1-.18.28.7.7,0,0,1-.5.15Zm4.89-5.52h3.87l-1.94-5.46Z"></path><path class="cls-7" d="M1111.18,43.49a8.2,8.2,0,0,1-3.3-.61,4.64,4.64,0,0,1-2.17-1.88,6.12,6.12,0,0,1-.77-3.24V29.33a.51.51,0,0,1,.14-.37.5.5,0,0,1,.38-.15h2.68a.56.56,0,0,1,.39.15.48.48,0,0,1,.15.37v8.41a2.82,2.82,0,0,0,.65,2,2.82,2.82,0,0,0,3.65,0,2.77,2.77,0,0,0,.65-2V29.33a.53.53,0,0,1,.52-.52h2.71a.49.49,0,0,1,.36.15.46.46,0,0,1,.16.37v8.43a6.22,6.22,0,0,1-.77,3.24,4.68,4.68,0,0,1-2.17,1.88A8,8,0,0,1,1111.18,43.49Z"></path><path class="cls-7" d="M1123.87,43.28a.52.52,0,0,1-.38-.15.56.56,0,0,1-.14-.36V32.06h-3.71a.51.51,0,0,1-.37-.16.49.49,0,0,1-.15-.36V29.33a.48.48,0,0,1,.15-.37.5.5,0,0,1,.37-.15h11.2a.5.5,0,0,1,.37.15.48.48,0,0,1,.15.37v2.21a.49.49,0,0,1-.15.36.51.51,0,0,1-.37.16h-3.71V42.77a.51.51,0,0,1-.14.36.5.5,0,0,1-.38.15Z"></path><path class="cls-7" d="M1139,43.49a8.31,8.31,0,0,1-3.33-.62,4.8,4.8,0,0,1-2.2-1.87,6.34,6.34,0,0,1-.88-3.13c0-.6,0-1.19,0-1.79s0-1.2,0-1.79a6.27,6.27,0,0,1,.89-3.13,4.88,4.88,0,0,1,2.22-1.91,8.73,8.73,0,0,1,6.61,0,5,5,0,0,1,2.22,1.91,6.07,6.07,0,0,1,.88,3.13c0,.59,0,1.19,0,1.79s0,1.19,0,1.79a6,6,0,0,1-.87,3.13,4.88,4.88,0,0,1-2.21,1.87A8.28,8.28,0,0,1,1139,43.49Zm0-3a2.51,2.51,0,0,0,1.8-.66,2.94,2.94,0,0,0,.74-2.11c0-.6,0-1.18,0-1.71s0-1.1,0-1.68a3.68,3.68,0,0,0-.37-1.58,2,2,0,0,0-.88-.9,3,3,0,0,0-2.56,0,2.09,2.09,0,0,0-.89.9,3.67,3.67,0,0,0-.38,1.58c0,.58,0,1.14,0,1.68s0,1.11,0,1.71a3,3,0,0,0,.76,2.11A2.5,2.5,0,0,0,1139,40.51Z"></path><path class="cls-7" d="M1148.35,43.28a.53.53,0,0,1-.52-.51V29.33A.46.46,0,0,1,1148,29a.49.49,0,0,1,.36-.15h2.25a.67.67,0,0,1,.52.18,1,1,0,0,1,.21.28l3.66,6.51,3.66-6.51a1.37,1.37,0,0,1,.22-.28.63.63,0,0,1,.51-.18h2.22a.54.54,0,0,1,.39.15.48.48,0,0,1,.15.37V42.77a.53.53,0,0,1-.15.36.54.54,0,0,1-.39.15h-2.47a.54.54,0,0,1-.39-.15.53.53,0,0,1-.15-.36V35l-2.33,4.32a1.09,1.09,0,0,1-.27.33.67.67,0,0,1-.46.15h-1.08a.65.65,0,0,1-.46-.15,1.09,1.09,0,0,1-.27-.33L1151.37,35v7.76a.53.53,0,0,1-.15.36.48.48,0,0,1-.37.15Z"></path><path class="cls-7" d="M1164.22,43.28a.44.44,0,0,1-.43-.43.58.58,0,0,1,0-.19l4.89-13.27a.74.74,0,0,1,.26-.4.78.78,0,0,1,.55-.18h3.08a.79.79,0,0,1,.81.58l4.87,13.27a.58.58,0,0,1,0,.19.42.42,0,0,1-.14.3.44.44,0,0,1-.32.13h-2.56a.66.66,0,0,1-.47-.15.76.76,0,0,1-.19-.28l-.82-2.11h-5.55l-.79,2.11a.92.92,0,0,1-.19.28.68.68,0,0,1-.5.15Zm4.89-5.52H1173l-1.93-5.46Z"></path><path class="cls-7" d="M1182.2,43.28a.52.52,0,0,1-.38-.15.56.56,0,0,1-.14-.36V32.06H1178a.51.51,0,0,1-.37-.16.49.49,0,0,1-.15-.36V29.33a.48.48,0,0,1,.15-.37.5.5,0,0,1,.37-.15h11.2a.5.5,0,0,1,.37.15.48.48,0,0,1,.15.37v2.21a.49.49,0,0,1-.15.36.51.51,0,0,1-.37.16h-3.71V42.77a.51.51,0,0,1-.14.36.5.5,0,0,1-.38.15Z"></path><path class="cls-7" d="M1192.1,43.28a.52.52,0,0,1-.38-.15.56.56,0,0,1-.14-.36V29.33a.51.51,0,0,1,.14-.37.52.52,0,0,1,.38-.15h2.79a.52.52,0,0,1,.38.15.46.46,0,0,1,.16.37V42.77a.5.5,0,0,1-.16.36.52.52,0,0,1-.38.15Z"></path><path class="cls-7" d="M1204.27,43.49a8.28,8.28,0,0,1-3.33-.62,4.8,4.8,0,0,1-2.2-1.87,6.34,6.34,0,0,1-.88-3.13c0-.6,0-1.19,0-1.79s0-1.2,0-1.79a6.27,6.27,0,0,1,.89-3.13,4.88,4.88,0,0,1,2.22-1.91,8.73,8.73,0,0,1,6.61,0,5,5,0,0,1,2.22,1.91,6.16,6.16,0,0,1,.88,3.13c0,.59,0,1.19,0,1.79s0,1.19,0,1.79a6.13,6.13,0,0,1-.87,3.13,4.88,4.88,0,0,1-2.21,1.87A8.31,8.31,0,0,1,1204.27,43.49Zm0-3a2.53,2.53,0,0,0,1.8-.66,2.94,2.94,0,0,0,.74-2.11c0-.6,0-1.18,0-1.71s0-1.1,0-1.68a3.68,3.68,0,0,0-.37-1.58,2,2,0,0,0-.88-.9,2.85,2.85,0,0,0-1.29-.29,2.76,2.76,0,0,0-1.27.29,2.09,2.09,0,0,0-.89.9,3.53,3.53,0,0,0-.38,1.58c0,.58,0,1.14,0,1.68s0,1.11,0,1.71a3,3,0,0,0,.76,2.11A2.5,2.5,0,0,0,1204.27,40.51Z"></path><path class="cls-7" d="M1213.65,43.28a.48.48,0,0,1-.37-.15.53.53,0,0,1-.15-.36V29.33a.51.51,0,0,1,.52-.52h2.21a.69.69,0,0,1,.51.16,1,1,0,0,1,.19.23l5.08,7.94V29.33a.51.51,0,0,1,.52-.52h2.5a.5.5,0,0,1,.37.15.48.48,0,0,1,.15.37V42.74a.54.54,0,0,1-.15.39.5.5,0,0,1-.37.15h-2.23a.66.66,0,0,1-.49-.16l-.2-.23-5.07-7.65v7.53a.53.53,0,0,1-.15.36.48.48,0,0,1-.37.15Z"></path><rect class="cls-6" x="1091.81" y="628.43" width="140.83" height="52.24" rx="19.21"></rect><path class="cls-7" d="M1133.9,661.15a.5.5,0,0,1-.38-.15.57.57,0,0,1-.14-.37V647.2a.51.51,0,0,1,.14-.37.5.5,0,0,1,.38-.15h6.34a7.51,7.51,0,0,1,2.94.5,3.56,3.56,0,0,1,1.69,1.41,4.15,4.15,0,0,1,.55,2.18,2.91,2.91,0,0,1-.28,1.32,3.23,3.23,0,0,1-.69.94,3.07,3.07,0,0,1-.75.53,3.81,3.81,0,0,1,1.4,1.22,3.31,3.31,0,0,1,.61,2,4.35,4.35,0,0,1-.61,2.35,4,4,0,0,1-1.79,1.5,6.86,6.86,0,0,1-2.88.53Zm3.22-8.72h2.71a1.71,1.71,0,0,0,1.28-.45,1.52,1.52,0,0,0,.42-1.1,1.49,1.49,0,0,0-.42-1.09,1.78,1.78,0,0,0-1.28-.42h-2.71Zm0,6H1140a1.65,1.65,0,0,0,1.81-1.69,1.68,1.68,0,0,0-.47-1.22,1.74,1.74,0,0,0-1.34-.5h-2.89Z"></path><path class="cls-7" d="M1154.14,661.36a8.38,8.38,0,0,1-3.3-.61,4.64,4.64,0,0,1-2.17-1.88,6.12,6.12,0,0,1-.77-3.24V647.2a.51.51,0,0,1,.14-.37.5.5,0,0,1,.38-.15h2.68a.56.56,0,0,1,.39.15.48.48,0,0,1,.15.37v8.41a2.82,2.82,0,0,0,.65,2,2.82,2.82,0,0,0,3.65,0,2.82,2.82,0,0,0,.65-2V647.2a.46.46,0,0,1,.16-.37.49.49,0,0,1,.36-.15h2.71a.53.53,0,0,1,.52.52v8.43a6.22,6.22,0,0,1-.77,3.24,4.74,4.74,0,0,1-2.17,1.88A8.17,8.17,0,0,1,1154.14,661.36Z"></path><path class="cls-7" d="M1163.62,661.15a.48.48,0,0,1-.37-.15.53.53,0,0,1-.15-.37V647.2a.51.51,0,0,1,.52-.52h2.79a.56.56,0,0,1,.39.15.48.48,0,0,1,.15.37v13.43a.53.53,0,0,1-.15.37.56.56,0,0,1-.39.15Z"></path><path class="cls-7" d="M1170.36,661.15a.48.48,0,0,1-.37-.15.53.53,0,0,1-.15-.37V647.2a.51.51,0,0,1,.52-.52h2.75a.5.5,0,0,1,.37.15.48.48,0,0,1,.15.37V658h6.3a.52.52,0,0,1,.38.15.6.6,0,0,1,.14.39v2.06a.57.57,0,0,1-.14.37.52.52,0,0,1-.38.15Z"></path><path class="cls-7" d="M1182.78,661.15a.48.48,0,0,1-.37-.15.53.53,0,0,1-.15-.37V647.2a.51.51,0,0,1,.52-.52h5.41a8.39,8.39,0,0,1,3.47.65,4.91,4.91,0,0,1,2.21,1.9,6.26,6.26,0,0,1,.83,3.09c0,.61,0,1.14,0,1.6s0,1,0,1.57a6.77,6.77,0,0,1-.82,3.18,4.5,4.5,0,0,1-2.14,1.87,8.62,8.62,0,0,1-3.45.61Zm3.23-3h2.18a3.61,3.61,0,0,0,1.49-.27,1.9,1.9,0,0,0,.89-.88,3.67,3.67,0,0,0,.32-1.57q0-.6.06-1.08v-1q0-.48-.06-1a2.8,2.8,0,0,0-.73-2.06,2.92,2.92,0,0,0-2.07-.65H1186Z"></path><rect class="cls-6" x="188.55" y="675.63" width="157.24" height="53.5" rx="19.21"></rect><path class="cls-7" d="M229.65,709.14a.5.5,0,0,1-.37-.15.53.53,0,0,1-.15-.36V695.19a.48.48,0,0,1,.15-.37.5.5,0,0,1,.37-.15h5.41a8.48,8.48,0,0,1,3.48.65,4.94,4.94,0,0,1,2.2,1.9,6.27,6.27,0,0,1,.83,3.1c0,.6,0,1.13,0,1.59s0,1,0,1.57a6.77,6.77,0,0,1-.82,3.18,4.45,4.45,0,0,1-2.14,1.87,8.61,8.61,0,0,1-3.44.61Zm3.23-3h2.18a3.6,3.6,0,0,0,1.49-.28,1.9,1.9,0,0,0,.89-.88,3.81,3.81,0,0,0,.33-1.57c0-.4,0-.76,0-1.08v-1c0-.32,0-.67,0-1a2.84,2.84,0,0,0-.74-2.06,3,3,0,0,0-2.07-.65h-2.08Z"></path><path class="cls-7" d="M244.55,709.14a.5.5,0,0,1-.38-.15.51.51,0,0,1-.14-.36V695.19a.48.48,0,0,1,.14-.37.5.5,0,0,1,.38-.15h9.71a.52.52,0,0,1,.38.15.51.51,0,0,1,.14.37v1.94a.51.51,0,0,1-.14.37.52.52,0,0,1-.38.15h-6.63v2.79h6.17a.5.5,0,0,1,.38.15.55.55,0,0,1,.14.39v1.8a.51.51,0,0,1-.14.36.5.5,0,0,1-.38.15h-6.17v2.88h6.8a.48.48,0,0,1,.37.14.5.5,0,0,1,.15.37v2a.53.53,0,0,1-.15.36.48.48,0,0,1-.37.15Z"></path><path class="cls-7" d="M257.84,709.14a.52.52,0,0,1-.38-.15.56.56,0,0,1-.14-.36V695.19a.51.51,0,0,1,.14-.37.52.52,0,0,1,.38-.15h5.82a7.9,7.9,0,0,1,3,.53,4.39,4.39,0,0,1,2,1.58,4.62,4.62,0,0,1,.71,2.67,4.47,4.47,0,0,1-.71,2.62,4.23,4.23,0,0,1-2,1.53,8.32,8.32,0,0,1-3,.5h-2.47v4.53a.5.5,0,0,1-.16.36.52.52,0,0,1-.38.15Zm3.29-7.89h2.43a2.15,2.15,0,0,0,1.43-.46,1.72,1.72,0,0,0,.53-1.38,2,2,0,0,0-.46-1.33,1.88,1.88,0,0,0-1.5-.54h-2.43Z"></path><path class="cls-7" d="M271.9,709.14a.48.48,0,0,1-.37-.15.53.53,0,0,1-.15-.36V695.19a.51.51,0,0,1,.52-.52h2.75a.51.51,0,0,1,.52.52V706h6.3a.49.49,0,0,1,.38.16.56.56,0,0,1,.14.38v2.07a.56.56,0,0,1-.14.36.52.52,0,0,1-.38.15Z"></path><path class="cls-7" d="M289.58,709.35a8.26,8.26,0,0,1-3.32-.62,4.83,4.83,0,0,1-2.21-1.87,6.23,6.23,0,0,1-.87-3.13c0-.6,0-1.19,0-1.79s0-1.2,0-1.79a6.29,6.29,0,0,1,.88-3.13,4.9,4.9,0,0,1,2.23-1.91,8.7,8.7,0,0,1,6.6,0,5,5,0,0,1,2.23,1.91,6.09,6.09,0,0,1,.87,3.13c0,.59,0,1.19,0,1.79s0,1.19,0,1.79a6.13,6.13,0,0,1-.86,3.13,5,5,0,0,1-2.22,1.87A8.28,8.28,0,0,1,289.58,709.35Zm0-3a2.5,2.5,0,0,0,1.8-.66,2.9,2.9,0,0,0,.74-2.11c0-.6,0-1.18,0-1.71s0-1.1,0-1.68a3.84,3.84,0,0,0-.36-1.58,2,2,0,0,0-.89-.9,3,3,0,0,0-2.56,0,2.09,2.09,0,0,0-.89.9,3.54,3.54,0,0,0-.37,1.58c0,.58,0,1.14,0,1.68s0,1.11,0,1.71a3,3,0,0,0,.75,2.11A2.5,2.5,0,0,0,289.58,706.37Z"></path><path class="cls-7" d="M302,709.14a.51.51,0,0,1-.36-.15.54.54,0,0,1-.16-.36v-4.45l-4.82-8.85a.76.76,0,0,1,0-.11.2.2,0,0,1,0-.11.41.41,0,0,1,.13-.3.45.45,0,0,1,.32-.14h2.6a.69.69,0,0,1,.49.16.83.83,0,0,1,.24.28l3,5.33,3-5.33a.83.83,0,0,1,.24-.28.69.69,0,0,1,.49-.16h2.6a.46.46,0,0,1,.44.44s0,.08,0,.11l0,.11-4.83,8.85v4.45a.5.5,0,0,1-.16.36.52.52,0,0,1-.38.15Z"></path><rect class="cls-6" x="671.8" y="933.64" width="149.13" height="52.24" rx="19.21"></rect><path class="cls-7" d="M726.79,966.36a.5.5,0,0,1-.37-.15.53.53,0,0,1-.15-.37v-10.7h-3.7a.53.53,0,0,1-.52-.52v-2.21a.51.51,0,0,1,.52-.52h11.19a.5.5,0,0,1,.38.15.48.48,0,0,1,.14.37v2.21a.48.48,0,0,1-.14.36.51.51,0,0,1-.38.16h-3.7v10.7a.57.57,0,0,1-.14.37.52.52,0,0,1-.38.15Z"></path><path class="cls-7" d="M736.7,966.36a.5.5,0,0,1-.38-.15.52.52,0,0,1-.14-.37V952.41a.48.48,0,0,1,.14-.37.5.5,0,0,1,.38-.15h9.71a.52.52,0,0,1,.38.15.51.51,0,0,1,.14.37v1.94a.51.51,0,0,1-.14.37.52.52,0,0,1-.38.15h-6.63v2.79H746a.5.5,0,0,1,.38.15.54.54,0,0,1,.14.39V960a.52.52,0,0,1-.14.37.5.5,0,0,1-.38.15h-6.17v2.87h6.8a.48.48,0,0,1,.37.15.5.5,0,0,1,.15.37v1.94a.53.53,0,0,1-.15.37.48.48,0,0,1-.37.15Z"></path><path class="cls-7" d="M754.9,966.57a8.8,8.8,0,0,1-3.45-.59,5,5,0,0,1-2.09-1.54,3.54,3.54,0,0,1-.74-2,.41.41,0,0,1,.13-.3.44.44,0,0,1,.32-.13h2.63a.78.78,0,0,1,.44.1,1,1,0,0,1,.28.27,2.34,2.34,0,0,0,.47.6,2.29,2.29,0,0,0,.8.47,3.88,3.88,0,0,0,1.21.17,3.56,3.56,0,0,0,1.82-.37,1.14,1.14,0,0,0,.61-1,1,1,0,0,0-.33-.77,3.2,3.2,0,0,0-1.07-.53,19.76,19.76,0,0,0-2-.48,12.17,12.17,0,0,1-2.69-.86,4.15,4.15,0,0,1-1.7-1.38,4.06,4.06,0,0,1,.14-4.4,4.73,4.73,0,0,1,2-1.55,7.65,7.65,0,0,1,3-.56,7.78,7.78,0,0,1,2.53.38,5.48,5.48,0,0,1,1.84,1,4.73,4.73,0,0,1,1.14,1.31,3,3,0,0,1,.4,1.35.46.46,0,0,1-.11.3.42.42,0,0,1-.33.14H757.5a1,1,0,0,1-.4-.08.92.92,0,0,1-.29-.27,1.43,1.43,0,0,0-.65-.8,2.53,2.53,0,0,0-1.39-.34,2.69,2.69,0,0,0-1.42.32,1.08,1.08,0,0,0-.51,1,1,1,0,0,0,.28.73,2.32,2.32,0,0,0,.94.53,14.59,14.59,0,0,0,1.8.48,13.28,13.28,0,0,1,3,.88,3.89,3.89,0,0,1,1.72,1.36,4.14,4.14,0,0,1-.26,4.52,5.16,5.16,0,0,1-2.22,1.56A9,9,0,0,1,754.9,966.57Z"></path><path class="cls-7" d="M766.84,966.36a.52.52,0,0,1-.38-.15.57.57,0,0,1-.14-.37v-10.7h-3.7a.51.51,0,0,1-.38-.16.48.48,0,0,1-.14-.36v-2.21a.48.48,0,0,1,.14-.37.5.5,0,0,1,.38-.15h11.19a.51.51,0,0,1,.52.52v2.21a.53.53,0,0,1-.52.52h-3.7v10.7a.53.53,0,0,1-.15.37.5.5,0,0,1-.37.15Z"></path><circle class="cls-3" cx="1162.23" cy="493.34" r="91.44"></circle><circle class="cls-3" cx="1082.09" cy="176.88" r="90.6"></circle><path class="cls-6" d="M1132.14,190.79A27.55,27.55,0,0,1,1131,194a23.42,23.42,0,0,1-11.86,12.43,21.89,21.89,0,0,1-5.69,1.69,25.06,25.06,0,0,1-5.53.23s-4.47,0-11.17,0h-60a25.74,25.74,0,0,1-20.44-8.52c-.1-.13-.21-.24-.3-.36s-.25-.27-.36-.4c-.49-.58-1-1.2-1.4-1.82-.16-.21-.31-.43-.45-.64-.33-.48-.63-1-.92-1.44-.15-.25-.28-.49-.42-.73,0-.07-.07-.13-.11-.21l-.28-.53c-.12-.24-.26-.49-.37-.73s-.21-.43-.31-.66a31.55,31.55,0,0,1-1.53-4c-3.45-11.23-.83-24.41,9.45-31.76a10.48,10.48,0,0,0,3.25-3.7,10.17,10.17,0,0,0,1.17-4.77c-.1-15.51,10.73-26.56,23.82-30.78s28.45-1.59,37.42,10.3a10.73,10.73,0,0,0,4.58,3.5,9.4,9.4,0,0,0,5.68.41c6.16-1.5,12.48.69,17,4.82l.63.59.44.46.2.21.48.53s0,0,.06.07l.55.66.53.7.44.63.52.81c.15.25.29.5.43.75a17.75,17.75,0,0,1,2.14,11.08,9.23,9.23,0,0,0,1,5.54,11.47,11.47,0,0,0,3.81,4.25,21.75,21.75,0,0,1,7,7.93,25.53,25.53,0,0,1,2.78,9.74A28.62,28.62,0,0,1,1132.14,190.79Z"></path><g class="cls-8"><path class="cls-9" d="M1116.48,141.77c.2.36.38.73.55,1.1l-.11-.16c-.17-.24-.36-.47-.54-.7s-.36-.45-.54-.65a.42.42,0,0,1-.06-.08c-.16-.18-.32-.37-.48-.54a1.31,1.31,0,0,1-.2-.21c-.15-.15-.29-.31-.45-.45s-.41-.4-.63-.59c-4.54-4.14-10.86-6.32-17-4.82a9.44,9.44,0,0,1-5.67-.42,10.56,10.56,0,0,1-4.57-3.49c-9-11.89-24.34-14.53-37.43-10.31s-23.92,15.27-23.83,30.78a10.17,10.17,0,0,1-1.17,4.77,10.42,10.42,0,0,1-3.23,3.7c-10.3,7.35-12.9,20.54-9.46,31.76a33.39,33.39,0,0,0,1.52,4l.31.64c.08.14.14.28.21.42-.29-.44-.59-.9-.85-1.34-.15-.25-.28-.49-.42-.73,0-.07-.07-.13-.11-.21l-.28-.53c-.12-.24-.26-.49-.37-.73s-.21-.43-.31-.66a31.55,31.55,0,0,1-1.53-4c-3.45-11.23-.83-24.41,9.45-31.76a10.48,10.48,0,0,0,3.25-3.7,10.17,10.17,0,0,0,1.17-4.77c-.1-15.51,10.73-26.56,23.82-30.78s28.45-1.59,37.42,10.3a10.73,10.73,0,0,0,4.58,3.5,9.4,9.4,0,0,0,5.68.41c6.16-1.5,12.48.69,17,4.82l.63.59.44.46.2.21.48.53s0,0,.06.07l.55.66.53.7.49.71.47.73C1116.2,141.27,1116.34,141.52,1116.48,141.77Z"></path><path class="cls-9" d="M1130.8,171.33a21.46,21.46,0,0,0-5.59-5.57,11.65,11.65,0,0,1-3.81-4.25,7,7,0,0,1-.47-1.1,11.42,11.42,0,0,0,2.46,2.23A21.81,21.81,0,0,1,1130.8,171.33Z"></path></g><g class="cls-8"><path class="cls-9" d="M1120.93,160.41a10.32,10.32,0,0,1-1.35-2,9.23,9.23,0,0,1-1-5.54,17.45,17.45,0,0,0-1.59-10,6.58,6.58,0,0,1,.38.54c.16.24.32.49.47.74s.3.49.43.75a17.62,17.62,0,0,1,2.13,11.09A8.81,8.81,0,0,0,1120.93,160.41Z"></path></g><path class="cls-10" d="M1119.26,179.65a8.22,8.22,0,0,0-5.86-2.43,8.74,8.74,0,0,0-1.37.11l-3.51-9.1-3.49-9A8.3,8.3,0,1,0,1093.5,149l-15.16-2.39-12.06-1.91a11.34,11.34,0,1,0-19.29,6.84,10.2,10.2,0,0,0,1.37,1.17l-4.87,9.64-5.12,10.16a10.55,10.55,0,0,0-4-.79,10.71,10.71,0,1,0,10.28,13.7c3.09.24,6.19.45,9.28.63q9.93.6,19.85.8,5,.1,9.92.11c3.31,0,6.61-.06,9.92-.2l9.91-.3,1.63,0a8.3,8.3,0,1,0,14.12-6.71Zm-73.41-16.1,5.26-9.42a11.36,11.36,0,0,0,14.88-7.84l12,2.4,15,3s0,0,0,.06a8.31,8.31,0,0,0,.5,2.84q-12.3,7.26-25.27,13.36-11.82,5.55-24.09,10.09a10.55,10.55,0,0,0-2.22-3.25,10.78,10.78,0,0,0-1.61-1.32Zm57.64,21.29-9.89-.07c-3.29,0-6.58-.05-9.87-.17s-6.58-.29-9.87-.48q-9.85-.59-19.68-1.53-4.47-.43-8.94-1a.1.1,0,0,1-.08-.07l-.41-1.72q12.43-4.31,24.5-9.66,13.18-5.87,25.82-12.94l.36.39a8.3,8.3,0,0,0,5.87,2.43h1.8a.14.14,0,0,1,.13.09l3,8.9,3.07,9.26a8.35,8.35,0,0,0-4.12,6.54Z"></path><circle class="cls-10" cx="1134.61" cy="193.81" r="13.23"></circle><path class="cls-11" d="M1105.29,196.18a2.44,2.44,0,0,0,2.07,2.37l4,.6a2.42,2.42,0,0,1,1.72,1.15l5.62,9.34a2.42,2.42,0,0,1,.21,2.08l-1.37,3.82a2.44,2.44,0,0,0,1.11,3l3.19,1.79a2.44,2.44,0,0,0,3.09-.59l2.51-3.11a2.44,2.44,0,0,1,1.86-.9l10.91-.19a2.42,2.42,0,0,1,1.91.87l2.64,3.14a2.43,2.43,0,0,0,3.1.54l3.16-1.85a2.43,2.43,0,0,0,1-3l-1.39-3.68a2.42,2.42,0,0,1,.15-2l5.54-10a2.43,2.43,0,0,1,1.68-1.21l4-.75a2.42,2.42,0,0,0,2-2.44l-.07-3.66a2.42,2.42,0,0,0-2.07-2.36l-4-.61a2.39,2.39,0,0,1-1.73-1.15l-5.62-9.34a2.42,2.42,0,0,1-.2-2.08l1.36-3.82a2.44,2.44,0,0,0-1.1-3l-3.2-1.79a2.44,2.44,0,0,0-3.09.6l-2.51,3.1a2.46,2.46,0,0,1-1.85.91l-10.92.19a2.45,2.45,0,0,1-1.91-.88l-2.64-3.14a2.44,2.44,0,0,0-3.1-.54l-3.16,1.86a2.42,2.42,0,0,0-1,3l1.4,3.68a2.45,2.45,0,0,1-.15,2l-5.55,10a2.46,2.46,0,0,1-1.68,1.21l-4,.74a2.45,2.45,0,0,0-2,2.44Zm29.33-12.41a10,10,0,1,1-10,10.41A10.06,10.06,0,0,1,1134.62,183.77Z"></path><g class="cls-4"><path class="cls-5" d="M1125.26,184.47a13.21,13.21,0,0,0-.44,18.24,21.29,21.29,0,0,1-5.69,3.7,20.56,20.56,0,0,1-2.79,1,2.91,2.91,0,0,1-3.62-2l-.66-2.4a2.87,2.87,0,0,0-2.54-2.13l-4.91-.44a2.88,2.88,0,0,1-2.63-2.78l-.22-6a2.9,2.9,0,0,1,2.4-3l5.85-1a2.92,2.92,0,0,0,2-1.49l4.37-8.19a2.94,2.94,0,0,0,.17-2.34l-1.6-4.51a2.9,2.9,0,0,1,1.23-3.44l4.32-2.63a2.9,2.9,0,0,1,3.86.78l2.45,3.38a2.78,2.78,0,0,0,2,1.18,3,3,0,0,1,2.33,1.77,26,26,0,0,1,2,8.17c0,.12,0,.23,0,.36A13.06,13.06,0,0,0,1125.26,184.47Z"></path></g><circle class="cls-3" cx="271.16" cy="545.78" r="90.33"></circle><circle class="cls-3" cx="746.78" cy="811.46" r="90.33"></circle><path class="cls-6" d="M283.57,539.15a31.34,31.34,0,0,1-21.24,29.67h0c-.53.18-1.06.35-1.61.5a31.27,31.27,0,0,1-8.5,1.18,31.52,31.52,0,0,1-18.66-6.17,31.35,31.35,0,0,1,18.66-56.55c1,0,2,0,3,.14a31.35,31.35,0,0,1,28.38,31.22Z"></path><path class="cls-12" d="M283.57,539.14a31.29,31.29,0,0,1-9.72,22.71c-2-2.44-4.94-6.07-6.23-8.13-2.09-3.3,2.26-3.16,5.14-7.63s2.3-8.79-2-12.07l-.07,0c-4.4-3.29-5.77-.41-14.8,4s-1.87-11,8.45-18.21c3.17-2.2,4.4-4.73,4.56-7.15a31.34,31.34,0,0,1,14.7,26.56Z"></path><g class="cls-4"><path class="cls-5" d="M283.57,539.15a31.34,31.34,0,0,1-21.24,29.67c-2-32.39,16.25-46.65,16.25-46.65A31.15,31.15,0,0,1,283.57,539.15Z"></path></g><path class="cls-12" d="M237.64,560.3a39.86,39.86,0,0,1-4.08,4,31.35,31.35,0,0,1-2.32-48.5c3.56,4.39,6.73,9.57,6.37,13.81-.8,9.27-9.48,4.46-3.75,15S243.45,553.6,237.64,560.3Z"></path><path class="cls-13" d="M268,590.12l0,.06-.17.29h0a12,12,0,0,1-6.47,4.79,9.57,9.57,0,0,1,0-8.33l0-.09a3.71,3.71,0,0,1,6.65,3.27Z"></path><path class="cls-13" d="M283.73,597.85l0,0-.17.3h0a12,12,0,0,1-6.46,4.79,9.57,9.57,0,0,1,0-8.33l0-.09a3.71,3.71,0,0,1,6.65,3.27Z"></path><path class="cls-11" d="M267.17,552.7a84.11,84.11,0,0,0-1.84,11.87c-.18,2.11-.28,4.1-.33,5.93h0a14.86,14.86,0,0,0-16-1.58l-2.91,1.48a.79.79,0,0,1-.73,0,.8.8,0,0,1-.36-1.11C255.06,550.86,267.07,552.69,267.17,552.7Z"></path><path class="cls-6" d="M308,572.81a90.13,90.13,0,0,1-12.78,12.58c-2.75,2.23-5.16,3.93-6.87,5.07a5.39,5.39,0,0,1-5.39.36l-5-2.45-9.83-4.84a5.4,5.4,0,0,1-3-4.48c-.14-2.06-.26-5-.17-8.55.07-2.52.23-5.34.57-8.34a84.87,84.87,0,0,1,1.6-9.45c2.78-12.09,8.85-25.15,21.62-33.41,6.28-4.06,14.17-7,24.08-8H313l0,.05c5.2,8.5,7.71,16.52,8.32,24C322.55,550.47,315.9,563.24,308,572.81Z"></path><g class="cls-8"><path class="cls-9" d="M319.61,551.68a44.58,44.58,0,0,0,.94-13.43c-.61-7.44-3.13-15.46-8.33-24l0-.07h-.08c-9.91,1.07-17.8,4-24.07,8-11.55,7.47-17.61,18.86-20.72,29.89,2.83-11.93,8.9-24.71,21.48-32.85,6.28-4,14.16-6.95,24.08-8h.07s0,0,0,.06c5.21,8.51,7.72,16.53,8.33,24A45,45,0,0,1,319.61,551.68Z"></path></g><path class="cls-11" d="M308.38,600.49a.81.81,0,0,1-1.13.38.76.76,0,0,1-.41-.56l-.6-3.22a14.87,14.87,0,0,0-11-11.71c1-.81,2-1.67,3.08-2.61a87.16,87.16,0,0,0,9.7-10C308.09,572.87,316.86,581.28,308.38,600.49Z"></path><path class="cls-13" d="M277.84,597.57l0,.1-.31.53h0c-1,1.66-4.31,6.1-11.53,8.56a17.06,17.06,0,0,1,0-14.88l.07-.16a6.61,6.61,0,0,1,11.87,5.84Z"></path><g class="cls-14"><path class="cls-15" d="M276.57,593.69l0,0c0,.06-.08.16-.16.29h0a11.57,11.57,0,0,1-6.24,4.63,9.26,9.26,0,0,1,0-8l0-.09a3.58,3.58,0,1,1,6.42,3.16Z"></path></g><circle class="cls-3" cx="295.97" cy="545.65" r="7.83" transform="translate(-81.58 52.91) rotate(-8.98)"></circle><circle class="cls-16" cx="295.97" cy="545.65" r="4.8" transform="translate(-63.38 39.49) rotate(-6.9)"></circle><rect class="cls-6" x="1098.97" y="445.17" width="130.12" height="83.12" rx="3.92"></rect><rect class="cls-11" x="1151.96" y="528.18" width="24.12" height="18.22"></rect><rect class="cls-11" x="1142.48" y="546.4" width="43.09" height="6.08" rx="0.87"></rect><rect class="cls-11" x="1100.23" y="446.7" width="127.59" height="68.01" rx="2.53"></rect><circle class="cls-11" cx="1164.03" cy="521.45" r="2.4"></circle><path class="cls-9" d="M1154.91,486.83a.7.7,0,0,1-.33-.1l-.29-.17-6.73-4.63a1.79,1.79,0,0,1-.52-.5,1,1,0,0,1-.14-.55v-.27a1,1,0,0,1,.14-.55,1.65,1.65,0,0,1,.52-.49l6.73-4.63.29-.17a.6.6,0,0,1,.33-.1.52.52,0,0,1,.32.11.42.42,0,0,1,.13.34v.39a.62.62,0,0,1-.1.37,1.39,1.39,0,0,1-.37.33l-6.6,4.54,6.6,4.53a1.85,1.85,0,0,1,.37.33.65.65,0,0,1,.1.38v.38a.41.41,0,0,1-.13.34A.47.47,0,0,1,1154.91,486.83Z"></path><path class="cls-9" d="M1158.06,489.48a.44.44,0,0,1-.32-.13.47.47,0,0,1-.14-.32.6.6,0,0,1,.07-.27l7.85-18.68a1.17,1.17,0,0,1,.16-.21.47.47,0,0,1,.35-.13h.38a.43.43,0,0,1,.32.14.41.41,0,0,1,.14.32.76.76,0,0,1-.07.27L1159,489.14a.71.71,0,0,1-.15.22.48.48,0,0,1-.35.12Z"></path><path class="cls-9" d="M1169.54,486.8a.46.46,0,0,1-.32-.11.41.41,0,0,1-.13-.34V486a.63.63,0,0,1,.1-.38,1.39,1.39,0,0,1,.37-.33l6.6-4.54-6.6-4.53a1.39,1.39,0,0,1-.37-.33.63.63,0,0,1-.1-.38v-.38a.41.41,0,0,1,.13-.34.47.47,0,0,1,.32-.12.68.68,0,0,1,.34.11,1.26,1.26,0,0,1,.28.17l6.73,4.62a1.77,1.77,0,0,1,.52.49,1,1,0,0,1,.15.56v.27a1.06,1.06,0,0,1-.15.55,1.65,1.65,0,0,1-.52.49l-6.73,4.63a1.82,1.82,0,0,1-.28.17A.66.66,0,0,1,1169.54,486.8Z"></path><g class="cls-17"><rect class="cls-5" x="1151.96" y="528.18" width="24.12" height="3.07"></rect></g><g class="cls-17"><rect class="cls-5" x="1142.48" y="550.98" width="43.09" height="1.54" rx="0.77"></rect></g><g class="cls-8"><rect class="cls-9" x="1142.48" y="546.35" width="43.09" height="0.95" rx="0.47"></rect></g><g class="cls-8"><rect class="cls-9" x="1103.36" y="445.21" width="122.36" height="0.95" rx="0.47"></rect></g><circle class="cls-10" cx="1109.56" cy="525.61" r="10.62"></circle><path class="cls-9" d="M1086,527.52a2,2,0,0,0,1.67,1.89l3.21.49a2,2,0,0,1,1.38.93l4.52,7.5A2,2,0,0,1,1097,540l-1.1,3.06a2,2,0,0,0,.89,2.37l2.57,1.44a2,2,0,0,0,2.48-.48l2-2.49a2,2,0,0,1,1.49-.73l8.77-.15a2,2,0,0,1,1.53.7l2.12,2.52a2,2,0,0,0,2.49.44l2.54-1.49a2,2,0,0,0,.84-2.39l-1.12-2.95a2,2,0,0,1,.12-1.65l4.46-8a1.91,1.91,0,0,1,1.35-1l3.17-.6a2,2,0,0,0,1.6-2l-.06-2.94a2,2,0,0,0-1.67-1.9l-3.2-.48a2,2,0,0,1-1.39-.93l-4.51-7.5a2,2,0,0,1-.16-1.67l1.09-3.07a2,2,0,0,0-.89-2.37l-2.56-1.43a2,2,0,0,0-2.48.47l-2,2.5a2,2,0,0,1-1.49.72l-8.76.16a2,2,0,0,1-1.54-.7L1101.4,505a2,2,0,0,0-2.49-.43l-2.53,1.49a2,2,0,0,0-.85,2.38l1.12,3a1.93,1.93,0,0,1-.12,1.64l-4.45,8a2,2,0,0,1-1.35,1l-3.17.6a2,2,0,0,0-1.6,2Zm23.56-10a8.07,8.07,0,1,1-8.07,8.36A8.09,8.09,0,0,1,1109.57,517.55Z"></path><path class="cls-11" d="M708.53,852.57a2.24,2.24,0,0,0,1.9,2.17l3.68.55a2.23,2.23,0,0,1,1.58,1.07l5.16,8.57a2.22,2.22,0,0,1,.19,1.91l-1.26,3.51a2.24,2.24,0,0,0,1,2.71l2.93,1.65a2.24,2.24,0,0,0,2.84-.55l2.31-2.85a2.22,2.22,0,0,1,1.7-.83l10-.18a2.21,2.21,0,0,1,1.75.81l2.43,2.88a2.23,2.23,0,0,0,2.84.5l2.91-1.7a2.25,2.25,0,0,0,1-2.73l-1.29-3.38a2.27,2.27,0,0,1,.14-1.89l5.1-9.17A2.21,2.21,0,0,1,757,854.5l3.63-.68a2.25,2.25,0,0,0,1.83-2.25l-.07-3.36a2.23,2.23,0,0,0-1.9-2.17l-3.67-.55a2.23,2.23,0,0,1-1.59-1.07l-5.16-8.57a2.29,2.29,0,0,1-.19-1.91l1.26-3.51a2.23,2.23,0,0,0-1-2.71l-2.93-1.64a2.23,2.23,0,0,0-2.84.54L742,829.47a2.21,2.21,0,0,1-1.7.83l-10,.18a2.23,2.23,0,0,1-1.75-.8l-2.43-2.89a2.22,2.22,0,0,0-2.84-.49l-2.91,1.7a2.23,2.23,0,0,0-1,2.72l1.28,3.38a2.27,2.27,0,0,1-.14,1.89l-5.09,9.18a2.25,2.25,0,0,1-1.55,1.11l-3.63.68a2.26,2.26,0,0,0-1.82,2.25Zm27-11.4a9.23,9.23,0,1,1-9.24,9.56A9.25,9.25,0,0,1,735.48,841.17Z"></path><g class="cls-8"><path class="cls-9" d="M308.38,600.48a.81.81,0,0,1-.94.47c7.4-17.8-.29-25.93-.84-26.47.48-.55.95-1.11,1.42-1.67C308.09,572.88,316.86,581.28,308.38,600.48Z"></path></g><g class="cls-8"><path class="cls-9" d="M306.6,574.48l-1,1.12c.32-.38.65-.76,1-1.15Z"></path></g><path class="cls-11" d="M267.16,552.7a85.49,85.49,0,0,0-1.83,11.87c-.18,2.1-.28,4.1-.33,5.93a14.62,14.62,0,0,0-2.55-1.62c.06-1.29.15-2.64.26-4A85.91,85.91,0,0,1,264.56,553a7.19,7.19,0,0,0-1-.06A11.75,11.75,0,0,1,267.16,552.7Z"></path><g class="cls-4"><path class="cls-5" d="M267.16,552.7a85.49,85.49,0,0,0-1.83,11.87c-.18,2.1-.28,4.1-.33,5.93a14.62,14.62,0,0,0-2.55-1.62c.06-1.29.15-2.64.26-4A85.91,85.91,0,0,1,264.56,553a7.19,7.19,0,0,0-1-.06A11.75,11.75,0,0,1,267.16,552.7Z"></path></g><path class="cls-11" d="M778.32,836.8l-2.79,2.79a3.13,3.13,0,0,1-4.44,0L768,836.48l-15.61-15.62L747.53,816a3.12,3.12,0,0,1,0-4.43l2.8-2.78a3.06,3.06,0,0,1,3-.83,3.11,3.11,0,0,1,1.47.83l5.45,5.45,15,15,3.11,3.11A3.15,3.15,0,0,1,778.32,836.8Z"></path><g class="cls-4"><path class="cls-5" d="M754.76,808.81a3.11,3.11,0,0,0-1.47-.83,27.82,27.82,0,0,1-6.67,5.54,3.11,3.11,0,0,0,.91,2.5l4.84,4.84a34.71,34.71,0,0,0,7.84-6.6Z"></path></g><path class="cls-6" d="M744.36,820.62c-31,11.52-60-17.45-48.44-48.44a34.87,34.87,0,0,1,20.47-20.46c31-11.52,60,17.45,48.44,48.44A34.87,34.87,0,0,1,744.36,820.62Zm-1.93-60c-24.51-10.42-48,13.08-37.58,37.58a25.53,25.53,0,0,0,13.47,13.47c24.51,10.43,48-13.07,37.58-37.58A25.6,25.6,0,0,0,742.43,760.64Z"></path><rect class="cls-6" x="721.5" y="769.09" width="17.48" height="28.05" rx="7.12"></rect><path class="cls-6" d="M741,777.91h-5.53a1,1,0,0,1,0-2.06H741a2.38,2.38,0,0,0,1.83-1l5.24-6.39a1,1,0,0,1,1.45-.14,1,1,0,0,1,.15,1.46l-5.25,6.38A4.44,4.44,0,0,1,741,777.91Z"></path><path class="cls-6" d="M748.41,797.42a1.05,1.05,0,0,1-.8-.38l-3.9-4.76a2.4,2.4,0,0,0-1.83-.95h-7.41a1,1,0,1,1,0-2.07h7.41a4.46,4.46,0,0,1,3.42,1.7l3.91,4.77a1,1,0,0,1-.14,1.45A1,1,0,0,1,748.41,797.42Z"></path><path class="cls-6" d="M748,783.68H731.63a1,1,0,1,1,0-2.07H748a1,1,0,0,1,0,2.07Z"></path><path class="cls-6" d="M728.14,783.68H711.8a1,1,0,0,1,0-2.07h16.34a1,1,0,0,1,0,2.07Z"></path><path class="cls-6" d="M725.2,777.91h-5.53a4.48,4.48,0,0,1-3.43-1.7L711,769.83a1,1,0,0,1,1.6-1.32l5.24,6.39a2.38,2.38,0,0,0,1.83,1h5.53a1,1,0,0,1,0,2.06Z"></path><path class="cls-6" d="M711.25,797.42a1,1,0,0,1-.8-1.69l3.91-4.77a4.46,4.46,0,0,1,3.42-1.7h7.42a1,1,0,0,1,0,2.07h-7.42a2.36,2.36,0,0,0-1.82.95L712.05,797A1,1,0,0,1,711.25,797.42Z"></path><g class="cls-4"><path class="cls-5" d="M778.32,836.8l-2.79,2.79a3.13,3.13,0,0,1-4.44,0L768,836.48l7.23-7.23,3.11,3.11A3.15,3.15,0,0,1,778.32,836.8Z"></path></g><rect class="cls-6" x="778.77" y="828.89" width="17.28" height="39.59" rx="5.04" transform="translate(-369.48 805.36) rotate(-45)"></rect><g class="cls-8"><path class="cls-9" d="M716.39,751.72a34.87,34.87,0,0,0-20.47,20.46,39.73,39.73,0,0,0-2.55,15.36,40.45,40.45,0,0,1,2.55-12.63,34.89,34.89,0,0,1,20.47-20.46c25.75-9.57,50.1,8.8,51,33.08C768.31,761.93,743.1,741.78,716.39,751.72Z"></path></g><path class="cls-6" d="M396.57,221.94H326.4a5,5,0,0,1-5.13-4.8V143.4a4.64,4.64,0,0,1,1.24-3.13l17.8-19.38a5.24,5.24,0,0,1,3.88-1.68h52.38a5,5,0,0,1,5.12,4.81v93.12A5,5,0,0,1,396.57,221.94Z"></path><path class="cls-9" d="M341.84,121v19.29l-16.93.29a1.27,1.27,0,0,1-.76-2.11l16.47-18A.7.7,0,0,1,341.84,121Z"></path><rect class="cls-10" x="332.54" y="153.29" width="45" height="4.72" rx="1.71"></rect><rect class="cls-10" x="332.54" y="173.5" width="49.16" height="4.72" rx="1.71"></rect><rect class="cls-10" x="332.54" y="163.18" width="55.11" height="4.72" rx="1.71"></rect><path class="cls-10" d="M332.92,200.75a.25.25,0,0,1-.19-.08.29.29,0,0,1-.08-.19.37.37,0,0,1,0-.11l3-8.29a.56.56,0,0,1,.17-.25.5.5,0,0,1,.34-.11h1.92a.54.54,0,0,1,.35.11.63.63,0,0,1,.16.25l3,8.29a.36.36,0,0,1,0,.11.29.29,0,0,1-.08.19.27.27,0,0,1-.2.08h-1.6a.4.4,0,0,1-.29-.09.47.47,0,0,1-.13-.18l-.5-1.31h-3.47l-.49,1.31a.56.56,0,0,1-.12.18.43.43,0,0,1-.31.09Zm3.05-3.44h2.42l-1.21-3.41Z"></path><path class="cls-10" d="M343.06,200.75a.32.32,0,0,1-.23-.09.33.33,0,0,1-.09-.23v-8.38a.32.32,0,0,1,.09-.24.32.32,0,0,1,.23-.09h3.64a4.84,4.84,0,0,1,1.87.33,2.7,2.7,0,0,1,1.25,1,2.87,2.87,0,0,1,.45,1.66,2.79,2.79,0,0,1-.45,1.64,2.64,2.64,0,0,1-1.25,1,5.27,5.27,0,0,1-1.87.31h-1.55v2.82a.33.33,0,0,1-.09.23.36.36,0,0,1-.24.09Zm2.05-4.92h1.52a1.32,1.32,0,0,0,.89-.29,1.08,1.08,0,0,0,.33-.86,1.25,1.25,0,0,0-.28-.83,1.18,1.18,0,0,0-.94-.33h-1.52Z"></path><path class="cls-10" d="M351.84,200.75a.32.32,0,0,1-.33-.32v-8.38a.3.3,0,0,1,.1-.24.3.3,0,0,1,.23-.09h1.74a.36.36,0,0,1,.24.09.33.33,0,0,1,.1.24v8.38a.34.34,0,0,1-.1.23.36.36,0,0,1-.24.09Z"></path><path class="cls-10" d="M361.88,200.88a5.6,5.6,0,0,1-2.16-.36,3.16,3.16,0,0,1-1.3-1,2.25,2.25,0,0,1-.47-1.26.26.26,0,0,1,.09-.19.28.28,0,0,1,.2-.08h1.64a.55.55,0,0,1,.28.06.91.91,0,0,1,.17.17,1.67,1.67,0,0,0,.29.38,1.5,1.5,0,0,0,.5.29,2.39,2.39,0,0,0,.76.11,2.13,2.13,0,0,0,1.13-.24.69.69,0,0,0,.38-.63.63.63,0,0,0-.2-.48,2,2,0,0,0-.67-.33c-.31-.09-.72-.2-1.23-.3a7.57,7.57,0,0,1-1.68-.53,2.57,2.57,0,0,1-1.06-.87,2.53,2.53,0,0,1,.09-2.74,2.87,2.87,0,0,1,1.25-1,4.82,4.82,0,0,1,1.91-.35,4.71,4.71,0,0,1,1.57.24,3.41,3.41,0,0,1,1.15.62,2.78,2.78,0,0,1,.71.81,1.76,1.76,0,0,1,.25.85.28.28,0,0,1-.07.19.25.25,0,0,1-.2.08H363.5a.62.62,0,0,1-.25,0,.48.48,0,0,1-.18-.17.91.91,0,0,0-.41-.5,1.59,1.59,0,0,0-.86-.21,1.7,1.7,0,0,0-.89.2.69.69,0,0,0-.32.61.65.65,0,0,0,.18.46,1.3,1.3,0,0,0,.58.33,8.53,8.53,0,0,0,1.12.3,8,8,0,0,1,1.91.55,2.4,2.4,0,0,1,1.07.85,2.55,2.55,0,0,1-.16,2.82,3.28,3.28,0,0,1-1.38,1A5.54,5.54,0,0,1,361.88,200.88Z"></path><path class="cls-10" d="M367.42,200.75a.32.32,0,0,1-.33-.32v-8.38a.3.3,0,0,1,.1-.24.3.3,0,0,1,.23-.09h3.63a4.9,4.9,0,0,1,1.88.33,2.75,2.75,0,0,1,1.25,1,2.87,2.87,0,0,1,.45,1.66,2.79,2.79,0,0,1-.45,1.64,2.69,2.69,0,0,1-1.25,1,5.33,5.33,0,0,1-1.88.31h-1.54v2.82a.3.3,0,0,1-.1.23.32.32,0,0,1-.24.09Zm2.05-4.92H371a1.32,1.32,0,0,0,.89-.29,1.08,1.08,0,0,0,.33-.86,1.25,1.25,0,0,0-.29-.83,1.17,1.17,0,0,0-.93-.33h-1.52Z"></path><path class="cls-10" d="M376.2,200.75a.32.32,0,0,1-.24-.09.33.33,0,0,1-.09-.23v-8.38a.31.31,0,0,1,.33-.33h6.06a.32.32,0,0,1,.23.09.32.32,0,0,1,.09.24v1.21a.31.31,0,0,1-.32.32h-4.14v1.74H382a.3.3,0,0,1,.24.1.32.32,0,0,1,.09.24v1.12a.33.33,0,0,1-.09.23.32.32,0,0,1-.24.09h-3.85v1.8h4.24a.32.32,0,0,1,.24.09.3.3,0,0,1,.09.23v1.21a.33.33,0,0,1-.09.23.32.32,0,0,1-.24.09Z"></path><path class="cls-10" d="M387.82,200.88a5,5,0,0,1-2.11-.4,3,3,0,0,1-1.37-1.17,4,4,0,0,1-.54-1.92c0-.36,0-.73,0-1.14s0-.79,0-1.16a3.93,3.93,0,0,1,.55-1.91,3.15,3.15,0,0,1,1.38-1.19,5.09,5.09,0,0,1,2.09-.4,5.29,5.29,0,0,1,1.58.22,3.76,3.76,0,0,1,1.27.62,2.81,2.81,0,0,1,1.17,2.27.21.21,0,0,1-.07.2.29.29,0,0,1-.2.07h-1.75a.38.38,0,0,1-.26-.07.48.48,0,0,1-.16-.26,1.5,1.5,0,0,0-.59-.94,2,2,0,0,0-1-.25,1.56,1.56,0,0,0-1.13.4,1.88,1.88,0,0,0-.45,1.3c0,.71,0,1.43,0,2.17a1.91,1.91,0,0,0,.45,1.31,1.61,1.61,0,0,0,1.13.4,1.93,1.93,0,0,0,1-.26,1.45,1.45,0,0,0,.58-.93.44.44,0,0,1,.15-.27.48.48,0,0,1,.27-.07h1.75a.3.3,0,0,1,.2.08.2.2,0,0,1,.07.19,2.75,2.75,0,0,1-.32,1.3,2.83,2.83,0,0,1-.85,1,4,4,0,0,1-1.27.62A5.64,5.64,0,0,1,387.82,200.88Z"></path><rect class="cls-3" y="381.93" width="157.05" height="341.43" rx="30.33"></rect><path class="cls-18" d="M43.11,482.92h66.53v22.17H76.38v3.7H61.59v-3.7H43.11V482.92Zm3.7,18.48H54.2V490.31h3.7V501.4h3.69V486.61H46.81V501.4Zm18.48-14.79v18.48h7.39V501.4h7.39V486.61H65.29Zm7.39,3.7h3.7v7.39h-3.7v-7.39Zm11.09-3.7V501.4h7.39V490.31h3.7V501.4h3.69V490.31h3.7V501.4H106V486.61H83.77Z"></path><polygon class="cls-10" points="46.81 501.4 50.51 501.4 54.2 501.4 54.2 495.85 54.2 490.31 56.05 490.31 57.9 490.31 57.9 495.85 57.9 501.4 59.75 501.4 61.59 501.4 61.59 494.01 61.59 486.61 54.2 486.61 46.81 486.61 46.81 494.01 46.81 501.4"></polygon><path class="cls-10" d="M65.29,486.61v18.48h7.39V501.4h7.39V486.61H65.29ZM76.38,497.7h-3.7v-7.39h3.7v7.39Z"></path><polygon class="cls-10" points="83.77 486.61 83.77 494.01 83.77 501.4 87.47 501.4 91.16 501.4 91.16 495.85 91.16 490.31 93.01 490.31 94.86 490.31 94.86 495.85 94.86 501.4 96.71 501.4 98.55 501.4 98.55 495.85 98.55 490.31 100.4 490.31 102.25 490.31 102.25 495.85 102.25 501.4 104.1 501.4 105.95 501.4 105.95 494.01 105.95 486.61 94.86 486.61 83.77 486.61"></polygon><path class="cls-19" d="M50.88,555.51v12.68l-1.67-.61-1.6-.6a.28.28,0,0,1-.1-.13.84.84,0,0,1,0-.2c0-.11,0-.21,0-.32s0-.21,0-.32V552.77q0-6.63,0-13.25a2,2,0,0,1,.14-.75,1.66,1.66,0,0,1,.45-.6,11.06,11.06,0,0,1,3-1.89,13.77,13.77,0,0,1,3.38-.94,14.1,14.1,0,0,1,1.72-.16c.58,0,1.16,0,1.74,0a6.74,6.74,0,0,1,3.91,1.15,8.53,8.53,0,0,1,2.64,3.13,13.26,13.26,0,0,1,1.31,4,20.23,20.23,0,0,1,.22,4.2,14,14,0,0,1-.36,2.66,11.18,11.18,0,0,1-.93,2.51,8.66,8.66,0,0,1-4.27,4.11,8.54,8.54,0,0,1-5.92.16,13.57,13.57,0,0,1-1.49-.59c-.49-.23-1-.47-1.47-.68l-.24-.12Zm0-9.43v3.24c0,1.08,0,2.16,0,3.24a1.06,1.06,0,0,0,.12.56.87.87,0,0,0,.42.35c.39.18.78.39,1.17.58a11.14,11.14,0,0,0,1.18.52,6.42,6.42,0,0,0,4.66.08A5.23,5.23,0,0,0,61.35,551a11.85,11.85,0,0,0,.34-1.57c.09-.53.15-1.07.19-1.61a20.61,20.61,0,0,0,0-3.6,14,14,0,0,0-.77-3.53,5.68,5.68,0,0,0-1.33-2.17,4,4,0,0,0-2.29-1.11,8.1,8.1,0,0,0-3.19.15,11.65,11.65,0,0,0-3,1.18.81.81,0,0,0-.35.36,1.12,1.12,0,0,0-.1.5c0,1.08,0,2.16,0,3.24Z"></path><path class="cls-19" d="M88.9,555.3V568l-1-.34-.92-.32c-.77-.29-1.16-.43-1.36-.71s-.19-.68-.19-1.5V552.33q0-6.41,0-12.79a2.18,2.18,0,0,1,.22-1,2.36,2.36,0,0,1,.65-.78,11,11,0,0,1,1.78-1.19,12.13,12.13,0,0,1,2-.83,16.09,16.09,0,0,1,3.24-.72,14.74,14.74,0,0,1,3.32,0,6.83,6.83,0,0,1,3.51,1.37,7.9,7.9,0,0,1,2.29,2.95,16.11,16.11,0,0,1,1.6,6.24,15.34,15.34,0,0,1-1.07,6.33,8.64,8.64,0,0,1-2.46,3.6,7.66,7.66,0,0,1-4,1.72A9.53,9.53,0,0,1,93,557a12.36,12.36,0,0,1-3.2-1.25l-.39-.21Zm0-9.4v3.24c0,1.08,0,2.16,0,3.24a1.07,1.07,0,0,0,.09.49.84.84,0,0,0,.35.35,17.8,17.8,0,0,0,2.1,1,7.87,7.87,0,0,0,2.27.56,5.8,5.8,0,0,0,2.85-.39,4.31,4.31,0,0,0,2.06-2,10.23,10.23,0,0,0,.7-1.58,7.5,7.5,0,0,0,.39-1.67,26.8,26.8,0,0,0,.17-2.7c0-.9,0-1.81-.06-2.71a11.23,11.23,0,0,0-.27-1.79,17.4,17.4,0,0,0-.52-1.74,4.89,4.89,0,0,0-1.24-2,3.94,3.94,0,0,0-2.12-1,8.37,8.37,0,0,0-3.24.09,11.36,11.36,0,0,0-3,1.19.83.83,0,0,0-.38.36,1.07,1.07,0,0,0-.11.53c0,1.08,0,2.16,0,3.24Z"></path><path class="cls-19" d="M72.37,565l1.55-.27c.5-.09,1-.18,1.48-.29a6.09,6.09,0,0,0,.81-.22A8.21,8.21,0,0,0,77,564a5,5,0,0,0,2-1.39,3.93,3.93,0,0,0,.88-2.23c.06-.64.11-1.28.16-1.94s.09-1.33.14-2l-.42.12-.28.09a15.65,15.65,0,0,1-3,.87,16.65,16.65,0,0,1-3.08.29,6.61,6.61,0,0,1-2.19-.34,6.3,6.3,0,0,1-1.93-1.09,5,5,0,0,1-1.35-1.61,4.37,4.37,0,0,1-.48-2c0-2,0-4,0-6s0-4,0-6a.64.64,0,0,1,.12-.32.55.55,0,0,1,.24-.22c.4-.16.81-.3,1.23-.44l1.34-.45v11.72A5.07,5.07,0,0,0,72.06,555a5,5,0,0,0,4.43.67,8.37,8.37,0,0,0,1.43-.5c.47-.21.94-.43,1.41-.62a.82.82,0,0,0,.46-.39,1.46,1.46,0,0,0,.11-.62q0-3.3,0-6.6v-6.59c0-.39,0-.58.1-.67s.28-.1.65-.1h.81c.27,0,.54,0,.81,0s.4,0,.49.13a.75.75,0,0,1,.12.5c0,1.91,0,3.82,0,5.73s0,3.82,0,5.73c0,1.35,0,2.71-.1,4.07s-.1,2.71-.17,4.07a6.2,6.2,0,0,1-1.3,3.67,7.34,7.34,0,0,1-3.23,2.23,16.2,16.2,0,0,1-2.32.69,17.55,17.55,0,0,1-2.4.34.72.72,0,0,1-.41-.07.51.51,0,0,1-.2-.36c0-.21-.1-.41-.16-.62S72.43,565.27,72.37,565Z"></path><path class="cls-19" d="M109.68,557.5h-.87c-.28,0-.57,0-.86,0a.28.28,0,0,1-.17-.1.81.81,0,0,1-.14-.2.27.27,0,0,1,0-.16c0-.06,0-.12,0-.18v-5.93c0-2,0-3.95,0-5.92a1.08,1.08,0,0,1,.13-.58,1,1,0,0,1,.46-.34l.72-.33.76-.37V557.5Z"></path><path class="cls-19" d="M107.65,539.4h2.09v1.43c0,.48,0,.94,0,1.41a.33.33,0,0,1-.09.19,1,1,0,0,1-.17.14l-.88.44-.94.45V539.4Z"></path><path class="cls-20" d="M54.55,429.86v-6.07c0-2,0-4.05,0-6.07a.58.58,0,0,1,.07-.32.67.67,0,0,1,.25-.22l10.62-6.08L76.09,405a.68.68,0,0,1,.36-.11.85.85,0,0,1,.36.12l10.58,6.07,10.58,6a.73.73,0,0,1,.29.25.78.78,0,0,1,.08.37q0,6.08,0,12.15t0,12.14a.59.59,0,0,1-.08.34.66.66,0,0,1-.26.23l-10.6,6.06-10.6,6.08a.74.74,0,0,1-.35.11.6.6,0,0,1-.36-.11l-10.6-6.07-10.6-6.06a.72.72,0,0,1-.27-.24.64.64,0,0,1-.08-.36c0-2,0-4.06,0-6.09Zm39.64,0V425c0-1.64,0-3.27,0-4.91a.65.65,0,0,0-.07-.33.63.63,0,0,0-.25-.23l-8.57-4.92-8.57-4.94a.63.63,0,0,0-.3-.1.56.56,0,0,0-.3.1l-8.57,4.93L59,419.51a.63.63,0,0,0-.25.23.61.61,0,0,0-.07.32v19.67a.67.67,0,0,0,.07.33.65.65,0,0,0,.24.22l8.58,4.93,8.57,4.94a.61.61,0,0,0,.3.09.56.56,0,0,0,.3-.09l8.55-4.93,8.56-4.92a.65.65,0,0,0,.27-.24.66.66,0,0,0,.08-.36c0-1.63,0-3.27,0-4.9Z"></path><path class="cls-20" d="M91.45,427.48,84,435l-7.46,7.47L69,435l-7.49-7.5.08-.09.11-.11,2.83-2.84,2.84-2.84a.82.82,0,0,1,.28-.19.81.81,0,0,1,.33-.06H85a.73.73,0,0,1,.3.05.66.66,0,0,1,.25.17l2.85,2.86,2.85,2.84.11.12Z"></path><path class="cls-21" d="M78.52,614.58A43.82,43.82,0,0,0,64.68,700a3.4,3.4,0,0,0,1.39,0,2,2,0,0,0,.92-.47,2,2,0,0,0,.52-.77,2.39,2.39,0,0,0,.16-.87c0-.26,0-.63,0-1.09s0-1,0-1.66,0-1.35,0-2.14,0-1.65,0-2.56a17.61,17.61,0,0,1-7.45.2,10.45,10.45,0,0,1-4.5-2.15,9.69,9.69,0,0,1-2.22-2.64,6.75,6.75,0,0,1-.59-1.29,17.42,17.42,0,0,0-1.6-3.13,12.27,12.27,0,0,0-1.58-2,8.17,8.17,0,0,0-1.2-1,3.25,3.25,0,0,0-.48-.29,4.31,4.31,0,0,1-1.63-1.57.57.57,0,0,1,.29-.79,2.71,2.71,0,0,1,1-.27,5.82,5.82,0,0,1,.61,0,7.29,7.29,0,0,1,2.9.84,8.92,8.92,0,0,1,2.1,1.54,10.51,10.51,0,0,1,1.28,1.48A7.55,7.55,0,0,1,55,680a10,10,0,0,0,3.29,3.55,8.13,8.13,0,0,0,3.61,1.2,10.37,10.37,0,0,0,3.35-.27,13.67,13.67,0,0,0,2.5-.84,13.23,13.23,0,0,1,.42-2,10.51,10.51,0,0,1,.65-1.62,7.76,7.76,0,0,1,.8-1.3,6.67,6.67,0,0,1,.91-1,36.17,36.17,0,0,1-7.22-1.49,19.34,19.34,0,0,1-6.41-3.45,16.22,16.22,0,0,1-4.58-6.4,27.23,27.23,0,0,1-1.75-10.31,18.94,18.94,0,0,1,.31-3.43,17,17,0,0,1,.9-3.09,16.16,16.16,0,0,1,1.42-2.78,17.8,17.8,0,0,1,1.88-2.46,10,10,0,0,1-.45-1.43,13.53,13.53,0,0,1-.39-2.52,15.89,15.89,0,0,1,.14-3.44,18.76,18.76,0,0,1,1.13-4.2,2.74,2.74,0,0,1,.71-.1,8.75,8.75,0,0,1,2.18.22,17.86,17.86,0,0,1,3.75,1.28,35.64,35.64,0,0,1,5.41,3.09c.87-.24,1.76-.46,2.66-.64s1.82-.33,2.74-.46,1.84-.21,2.77-.27,1.87-.1,2.8-.11,1.86,0,2.79.11,1.86.15,2.78.27,1.83.28,2.73.46,1.79.4,2.67.64a35.64,35.64,0,0,1,5.41-3.09,17.8,17.8,0,0,1,3.74-1.28,8.71,8.71,0,0,1,2.18-.22,2.71,2.71,0,0,1,.7.1,18.82,18.82,0,0,1,1.14,4.2,16.61,16.61,0,0,1,.15,3.44,15.44,15.44,0,0,1-.39,2.52,11.06,11.06,0,0,1-.46,1.43,18.69,18.69,0,0,1,1.89,2.46,16.78,16.78,0,0,1,2.3,5.87,18.08,18.08,0,0,1,.31,3.43,27.25,27.25,0,0,1-1.75,10.32,16,16,0,0,1-4.59,6.39,19.18,19.18,0,0,1-6.42,3.44,36.33,36.33,0,0,1-7.24,1.47A7,7,0,0,1,87.6,679a9.17,9.17,0,0,1,1,1.77A12.08,12.08,0,0,1,89.2,683a15.06,15.06,0,0,1,.24,2.8c0,1.46,0,2.86,0,4.15s0,2.47,0,3.52,0,2,0,2.69,0,1.3,0,1.66a2.44,2.44,0,0,0,.16.88,2,2,0,0,0,.51.77A2,2,0,0,0,91,700a3.37,3.37,0,0,0,1.41,0,43.81,43.81,0,0,0-13.88-85.37Z"></path><path d="M91.62,700.38a3.52,3.52,0,0,1-.58,0,2.91,2.91,0,0,1-.47-.13,1.82,1.82,0,0,1-.37-.18,1.64,1.64,0,0,1-.29-.2,2.28,2.28,0,0,1-.64-.86,2.43,2.43,0,0,1-.17-.54,2.72,2.72,0,0,1-.06-.58v-1c0-.2,0-.43,0-.67v-.79c0-.56,0-1.2,0-1.89s0-1.46,0-2.28,0-1.67,0-2.58v-2.83a14.78,14.78,0,0,0-.32-3.18,10.72,10.72,0,0,0-.78-2.29,8,8,0,0,0-.94-1.53,6.89,6.89,0,0,0-.81-.85l-.15-.13-.15-.13-.16-.13-.15-.13.2,0,.2,0,.2,0,.2,0A36.76,36.76,0,0,0,93.37,676a18.84,18.84,0,0,0,6.34-3.3,15.66,15.66,0,0,0,4.62-6.28,26.57,26.57,0,0,0,1.79-10.31,18,18,0,0,0-.28-3.23,15.83,15.83,0,0,0-.83-3,15.23,15.23,0,0,0-1.38-2.77,17.49,17.49,0,0,0-1.92-2.52l0,0,0,0,0,0,0,0,0-.06,0-.05,0,0,0,0a10.11,10.11,0,0,0,.46-1.43,13.74,13.74,0,0,0,.37-2.44,15.81,15.81,0,0,0-.14-3.29,17.81,17.81,0,0,0-1.06-4,4.94,4.94,0,0,0-1.12,0,11,11,0,0,0-2.27.4,21.67,21.67,0,0,0-3.47,1.35,37.16,37.16,0,0,0-4.72,2.76l0,0,0,0,0,0,0,0H89.4c-.84-.24-1.71-.45-2.6-.63s-1.79-.33-2.7-.45-1.84-.22-2.78-.28-1.86-.1-2.79-.11-1.89,0-2.82.11-1.85.15-2.75.27-1.81.28-2.69.46-1.76.39-2.62.63H67.5l0,0,0,0,0,0,0,0a35.82,35.82,0,0,0-4.72-2.76,20,20,0,0,0-3.47-1.34A10.36,10.36,0,0,0,56.9,633a5,5,0,0,0-1.13,0,18.29,18.29,0,0,0-1.05,4,15.81,15.81,0,0,0-.14,3.29,14.72,14.72,0,0,0,.37,2.44,10.11,10.11,0,0,0,.46,1.43l0,0,0,0,0,.05,0,.06,0,0,0,0,0,0,0,0a17.82,17.82,0,0,0-1.93,2.53A16.17,16.17,0,0,0,52,649.87a17,17,0,0,0-.83,3,18.73,18.73,0,0,0-.28,3.22,26.64,26.64,0,0,0,1.79,10.31,15.66,15.66,0,0,0,4.61,6.29A18.87,18.87,0,0,0,63.64,676a35.92,35.92,0,0,0,6.93,1.39l.2,0,.19,0,.2,0,.2,0-.15.13-.15.13-.15.13-.15.13a6.11,6.11,0,0,0-.69.72,7.73,7.73,0,0,0-.77,1.14,9.56,9.56,0,0,0-.71,1.62,11.83,11.83,0,0,0-.49,2.17v.19l0,0,0,0,0,0,0,0c-.29.13-.65.28-1.07.43s-.91.29-1.43.42a13.37,13.37,0,0,1-1.68.28,11.28,11.28,0,0,1-1.84,0,8.76,8.76,0,0,1-2.14-.46,8.28,8.28,0,0,1-1.92-1,9.36,9.36,0,0,1-1.68-1.49,11.73,11.73,0,0,1-1.43-2s-.16-.27-.44-.65A10.46,10.46,0,0,0,53,678.07a9.08,9.08,0,0,0-2-1.47,7,7,0,0,0-2.75-.8,5,5,0,0,0-.54,0,3.44,3.44,0,0,0-.5.09,1.46,1.46,0,0,0-.39.14.23.23,0,0,0-.19.28,1,1,0,0,0,.15.29,3.5,3.5,0,0,0,.45.48,9.34,9.34,0,0,0,.91.7,4.36,4.36,0,0,1,.65.41,8.77,8.77,0,0,1,1.26,1.1,12.92,12.92,0,0,1,1.55,2,17.71,17.71,0,0,1,1.56,3.09h0a2.94,2.94,0,0,0,.13.36,9.28,9.28,0,0,0,.45.9,9,9,0,0,0,.84,1.22,9.41,9.41,0,0,0,1.3,1.31,9.72,9.72,0,0,0,2.3,1.39,11.6,11.6,0,0,0,2.72.78,15.92,15.92,0,0,0,3.13.15,20.18,20.18,0,0,0,3.47-.48l.11,0,.11,0,.1,0,.11,0v.43c0,.5,0,1,0,1.43s0,.9,0,1.32,0,.82,0,1.2,0,.73,0,1.06,0,.55,0,.8v.67c0,.21,0,.39,0,.55v.43a2.78,2.78,0,0,1-.06.58,2.52,2.52,0,0,1-.17.53,2.2,2.2,0,0,1-.27.47,2.72,2.72,0,0,1-.37.39,2.19,2.19,0,0,1-.39.26,2.26,2.26,0,0,1-.54.2,3,3,0,0,1-.71.1,4.28,4.28,0,0,1-.9-.08h0a44.06,44.06,0,0,1-12.07-6.21,44.84,44.84,0,0,1-13.3-15.56,43,43,0,0,1-2.66-6.4,44,44,0,0,1-1.63-6.73,45.17,45.17,0,0,1-.54-7,44.66,44.66,0,0,1,.84-8.68,44,44,0,0,1,6.55-15.81A44.85,44.85,0,0,1,54,621.62a43.78,43.78,0,0,1,15.8-6.54,44.8,44.8,0,0,1,17.37,0,43.78,43.78,0,0,1,15.8,6.54,44.91,44.91,0,0,1,6.74,5.54,43.75,43.75,0,0,1,12.09,22.55,44.66,44.66,0,0,1,.85,8.68,44.1,44.1,0,0,1-30.18,41.9h0l-.23,0-.22,0-.2,0ZM87.24,678a7.78,7.78,0,0,1,1.09,1.51,11,11,0,0,1,.8,1.84,12.64,12.64,0,0,1,.49,2.14,15,15,0,0,1,.17,2.36v2.83c0,.91,0,1.77,0,2.59s0,1.57,0,2.27,0,1.33,0,1.9v.78c0,.25,0,.47,0,.67v1a2,2,0,0,0,0,.43,2.22,2.22,0,0,0,.12.39,1.86,1.86,0,0,0,.19.34,1.76,1.76,0,0,0,.26.28,1.83,1.83,0,0,0,.38.23,1.64,1.64,0,0,0,.46.13,2.21,2.21,0,0,0,.52,0,4.35,4.35,0,0,0,.6-.06A43.41,43.41,0,0,0,122,658.39a43.27,43.27,0,0,0-3.42-16.9,43.72,43.72,0,0,0-23.15-23.14,43.46,43.46,0,1,0-30.66,81.27,3.21,3.21,0,0,0,.6.06,2.91,2.91,0,0,0,.52,0,2.15,2.15,0,0,0,.45-.14,1.83,1.83,0,0,0,.38-.23A2.33,2.33,0,0,0,67,699a1.86,1.86,0,0,0,.19-.34,2.22,2.22,0,0,0,.12-.39,2.85,2.85,0,0,0,0-.42v-.43c0-.16,0-.35,0-.55v-.67c0-.25,0-.51,0-.79s0-.64,0-1,0-.71,0-1.1,0-.78,0-1.2,0-.85,0-1.3a20.29,20.29,0,0,1-4.17.42,14.81,14.81,0,0,1-3.31-.39,11.34,11.34,0,0,1-2.52-.94,9.41,9.41,0,0,1-1.82-1.2,9.69,9.69,0,0,1-1.36-1.36,8.91,8.91,0,0,1-.88-1.27,8.32,8.32,0,0,1-.5-1c-.11-.26-.16-.43-.18-.48a17.46,17.46,0,0,0-1.53-3,11.85,11.85,0,0,0-1.52-1.9,7.58,7.58,0,0,0-1.16-1c-.29-.21-.47-.29-.47-.3h-.05a10,10,0,0,1-.92-.69,4.84,4.84,0,0,1-.6-.62,1.58,1.58,0,0,1-.29-.56.89.89,0,0,1,0-.51,1,1,0,0,1,.44-.52,2.28,2.28,0,0,1,.7-.28,3.9,3.9,0,0,1,.71-.1c.21,0,.38,0,.46,0h0a7.68,7.68,0,0,1,3,.85,9.42,9.42,0,0,1,2.17,1.55A11.54,11.54,0,0,1,54.81,679a7.34,7.34,0,0,1,.49.77,9.82,9.82,0,0,0,3.09,3.37,7.77,7.77,0,0,0,3.4,1.19,10.09,10.09,0,0,0,3.19-.2,13.87,13.87,0,0,0,2.45-.79,15.4,15.4,0,0,1,.34-1.59,14.11,14.11,0,0,1,.51-1.43,9.53,9.53,0,0,1,.67-1.27,7.38,7.38,0,0,1,.82-1.07,36.59,36.59,0,0,1-4.06-.72,28.36,28.36,0,0,1-3.5-1,20.63,20.63,0,0,1-3-1.41,16.43,16.43,0,0,1-2.54-1.77,15.77,15.77,0,0,1-2.84-3.1,18,18,0,0,1-2-3.84,24,24,0,0,1-1.2-4.62,35.14,35.14,0,0,1-.4-5.41,19.67,19.67,0,0,1,.28-3.3,17.48,17.48,0,0,1,.84-3.08,16.37,16.37,0,0,1,1.4-2.85,17.06,17.06,0,0,1,1.94-2.6,12.5,12.5,0,0,1-.48-1.64,14.41,14.41,0,0,1-.33-2.58,16.23,16.23,0,0,1,.2-3.38,18.66,18.66,0,0,1,1.12-4v0l0,0v0l0,0,0,0h.08l0,0a3.39,3.39,0,0,1,.8-.11,9.1,9.1,0,0,1,2.24.22,18.42,18.42,0,0,1,3.78,1.28,36.31,36.31,0,0,1,5.39,3.06c.86-.24,1.74-.44,2.62-.62s1.79-.33,2.7-.45,1.83-.21,2.77-.28,1.87-.09,2.82-.1,1.89,0,2.82.1,1.85.16,2.76.28,1.81.27,2.7.45,1.76.38,2.62.62a36.34,36.34,0,0,1,5.4-3.06,18.17,18.17,0,0,1,3.77-1.28,9.06,9.06,0,0,1,2.24-.22,3.39,3.39,0,0,1,.8.11l0,0h.08l0,0v0l0,0v0l0,0a19.24,19.24,0,0,1,1.12,4,16.23,16.23,0,0,1,.2,3.38,14.41,14.41,0,0,1-.33,2.58,12.5,12.5,0,0,1-.48,1.64,17.06,17.06,0,0,1,1.94,2.6,15.89,15.89,0,0,1,1.39,2.84,16.11,16.11,0,0,1,.84,3.08,18.87,18.87,0,0,1,.28,3.31,34.06,34.06,0,0,1-.4,5.42,22.45,22.45,0,0,1-1.2,4.62,17.49,17.49,0,0,1-2,3.84,15.82,15.82,0,0,1-2.85,3.1,17,17,0,0,1-3.19,2.11,21.72,21.72,0,0,1-3.41,1.41,28.75,28.75,0,0,1-3.39.88C89.26,677.7,88.21,677.86,87.24,678Z"></path><polygon class="cls-3" points="227.01 473.48 212.42 458.88 157.05 458.88 157.05 450.88 215.74 450.88 232.67 467.82 227.01 473.48"></polygon><polygon class="cls-3" points="215.74 649.41 157.05 649.41 157.05 641.41 212.42 641.41 231.72 622.11 237.38 627.77 215.74 649.41"></polygon><rect class="cls-3" x="153.42" y="541.5" width="37.25" height="8"></rect><g class="cls-8"><rect class="cls-9" x="341.46" y="119.21" width="57" height="1.64" rx="0.67"></rect></g><g class="cls-4"><rect class="cls-5" x="324.98" y="220.12" width="73.48" height="1.82" rx="0.53"></rect></g><g class="cls-4"><rect class="cls-5" x="1034.18" y="206.19" width="79.26" height="2.2" rx="1.1"></rect></g><g class="cls-22"><path class="cls-5" d="M308,572.81a90.13,90.13,0,0,1-12.78,12.58c-2.75,2.23-5.16,3.93-6.87,5.07a5.39,5.39,0,0,1-5.39.36l-5-2.45-1.91-1.47,36.78-75.62H313l0,.05c5.2,8.5,7.71,16.52,8.32,24C322.55,550.47,315.9,563.24,308,572.81Z"></path></g></g></g></g></svg>