<svg xmlns:inkscape="http://www.inkscape.org/namespaces/inkscape" xmlns:sodipodi="http://sodipodi.sourceforge.net/DTD/sodipodi-0.dtd" xmlns="http://www.w3.org/2000/svg" xmlns:svg="http://www.w3.org/2000/svg" id="Layer_1" data-name="Layer 1" viewBox="0 0 1920 696.8" sodipodi:docname="CGaaS-_From API Update to API Portal and SDK Publishing.svg" inkscape:version="1.1.1 (3bf5ae0d25, 2021-09-20)"><defs id="defs4"><style id="style2">.cls-1{fill:#0c7ff2;}.cls-2{fill:#ebf0f5;}.cls-3{fill:#f8fafc;}.cls-4{fill:#455666;}</style></defs><polygon class="cls-1" points="323.92 334.13 188.63 334.13 188.63 345.57 323.92 345.57 323.92 358.09 355.51 339.85 323.92 321.61 323.92 334.13" id="polygon6"></polygon><path class="cls-1" d="M707.33,338.61l-29.44-17v12.53H542.59v11.43h135.3v12.52l29.44-17A1.44,1.44,0,0,0,707.33,338.61Z" id="path8"></path><polygon class="cls-1" points="1607.15 519.81 1575.56 501.57 1575.56 514.1 1440.26 514.1 1440.26 525.53 1575.56 525.53 1575.56 538.05 1607.15 519.81" id="polygon10"></polygon><path class="cls-1" d="M1215.55,500.29v14.54H1073.61a13.24,13.24,0,0,1-13.23-13.22V366.39a26.43,26.43,0,0,0-8.9-19.79,26.43,26.43,0,0,0,8.9-19.79V191.59a13.24,13.24,0,0,1,13.23-13.22h141.94v14.54L1250,173a1.51,1.51,0,0,0,0-2.62l-34.42-19.87v14.54H1073.61a26.53,26.53,0,0,0-26.5,26.5V326.81a13.25,13.25,0,0,1-11.69,13.13c-.51,0-1-.05-1.54-.05H918.45v13.42h115.43c.52,0,1,0,1.54-.05a13.25,13.25,0,0,1,11.69,13.13V501.61a26.53,26.53,0,0,0,26.5,26.5h141.94v14.54l35.34-20.4a.9.9,0,0,0,0-1.56Z" id="path12"></path><rect class="cls-1" x="17.4" y="282.81" width="261.26" height="108.83" rx="32.47" id="rect14"></rect><rect class="cls-2" x="368.55" y="279.16" width="265.02" height="110.4" rx="32.47" id="rect16" style="stroke:#0c7ff2;stroke-opacity:1"></rect><path class="cls-3" d="M119.4,335a.62.62,0,0,1-.57-.57.88.88,0,0,1,0-.24l6.38-17.34a1.1,1.1,0,0,1,.34-.52,1,1,0,0,1,.72-.23h4a1,1,0,0,1,.72.23,1,1,0,0,1,.34.52l6.36,17.34a.48.48,0,0,1,.06.24.54.54,0,0,1-.18.39.58.58,0,0,1-.42.18h-3.34a.83.83,0,0,1-.62-.21.9.9,0,0,1-.25-.36l-1.06-2.75h-7.26l-1,2.75a1.12,1.12,0,0,1-.24.36.87.87,0,0,1-.66.21Zm6.39-7.21h5l-2.53-7.13Z" id="path18"></path><path class="cls-3" d="M140.62,335a.64.64,0,0,1-.49-.21.68.68,0,0,1-.19-.47V316.76a.65.65,0,0,1,.68-.67h7.61a10.41,10.41,0,0,1,3.92.68,5.63,5.63,0,0,1,2.61,2.07,6,6,0,0,1,.94,3.48,5.84,5.84,0,0,1-.94,3.43,5.45,5.45,0,0,1-2.61,2,10.84,10.84,0,0,1-3.92.65H145v5.91a.62.62,0,0,1-.21.47.66.66,0,0,1-.5.21Zm4.29-10.32h3.18a2.78,2.78,0,0,0,1.86-.59,2.24,2.24,0,0,0,.7-1.81,2.58,2.58,0,0,0-.6-1.73,2.44,2.44,0,0,0-2-.7h-3.18Z" id="path20"></path><path class="cls-3" d="M159,335a.62.62,0,0,1-.49-.21.64.64,0,0,1-.19-.47V316.76a.62.62,0,0,1,.19-.48.64.64,0,0,1,.49-.19h3.64a.69.69,0,0,1,.5.19.59.59,0,0,1,.2.48v17.55a.61.61,0,0,1-.2.47.67.67,0,0,1-.5.21Z" id="path22"></path><path class="cls-3" d="M66.71,362a.68.68,0,0,1-.68-.68V343.76a.62.62,0,0,1,.19-.48.66.66,0,0,1,.49-.19h7.06a10.89,10.89,0,0,1,4.54.85,6.32,6.32,0,0,1,2.88,2.48,8.19,8.19,0,0,1,1.09,4c0,.79,0,1.48,0,2.08s0,1.27,0,2a9,9,0,0,1-1.08,4.16,5.83,5.83,0,0,1-2.8,2.44,11.27,11.27,0,0,1-4.49.8Zm4.21-3.89h2.85a4.42,4.42,0,0,0,1.94-.37,2.4,2.4,0,0,0,1.17-1.14,4.79,4.79,0,0,0,.42-2.06c0-.52.06-1,.07-1.4s0-.83,0-1.24,0-.87-.07-1.38a3.62,3.62,0,0,0-1-2.68,3.82,3.82,0,0,0-2.7-.86H70.92Z" id="path24"></path><path class="cls-3" d="M86.16,362a.68.68,0,0,1-.68-.68V343.76a.62.62,0,0,1,.19-.48.66.66,0,0,1,.49-.19H98.85a.65.65,0,0,1,.68.67v2.54a.7.7,0,0,1-.19.49.69.69,0,0,1-.49.18H90.18v3.65h8.07a.66.66,0,0,1,.49.2.69.69,0,0,1,.19.5v2.35a.68.68,0,0,1-.68.68H90.18v3.75h8.89a.63.63,0,0,1,.48.19.64.64,0,0,1,.2.48v2.54a.65.65,0,0,1-.2.47.61.61,0,0,1-.48.21Z" id="path26"></path><path class="cls-3" d="M103.52,362a.64.64,0,0,1-.49-.21.68.68,0,0,1-.19-.47V343.76a.65.65,0,0,1,.68-.67H116a.66.66,0,0,1,.49.19.62.62,0,0,1,.19.48v2.73a.62.62,0,0,1-.19.48.66.66,0,0,1-.49.19h-8.4v4h7.86a.64.64,0,0,1,.49.21.71.71,0,0,1,.19.49v2.7a.73.73,0,0,1-.19.48.66.66,0,0,1-.49.2h-7.86v6.1a.64.64,0,0,1-.19.47.61.61,0,0,1-.48.21Z" id="path28"></path><path class="cls-3" d="M120.31,362a.64.64,0,0,1-.49-.21.68.68,0,0,1-.19-.47V343.76a.65.65,0,0,1,.68-.67H124a.72.72,0,0,1,.51.19.63.63,0,0,1,.2.48v17.55a.65.65,0,0,1-.2.47.69.69,0,0,1-.51.21Z" id="path30"></path><path class="cls-3" d="M129.12,362a.62.62,0,0,1-.49-.21.64.64,0,0,1-.19-.47V343.76a.62.62,0,0,1,.19-.48.64.64,0,0,1,.49-.19H132a.91.91,0,0,1,.67.2,1.38,1.38,0,0,1,.26.31L139.55,354V343.76a.62.62,0,0,1,.19-.48.66.66,0,0,1,.49-.19h3.26a.65.65,0,0,1,.68.67v17.52a.72.72,0,0,1-.19.5.64.64,0,0,1-.49.21h-2.91a.83.83,0,0,1-.64-.22,3.2,3.2,0,0,1-.26-.3l-6.63-10v9.83a.64.64,0,0,1-.19.47.61.61,0,0,1-.48.21Z" id="path32"></path><path class="cls-3" d="M148.65,362a.68.68,0,0,1-.68-.68V343.76a.62.62,0,0,1,.19-.48.66.66,0,0,1,.49-.19h3.64a.68.68,0,0,1,.5.19.6.6,0,0,1,.21.48v17.55a.62.62,0,0,1-.21.47.66.66,0,0,1-.5.21Z" id="path34"></path><path class="cls-3" d="M161.64,362a.62.62,0,0,1-.49-.21.64.64,0,0,1-.19-.47v-14h-4.84a.64.64,0,0,1-.49-.21.68.68,0,0,1-.19-.47v-2.89a.65.65,0,0,1,.68-.67h14.62a.65.65,0,0,1,.68.67v2.89a.68.68,0,0,1-.19.47.64.64,0,0,1-.49.21H165.9v14a.64.64,0,0,1-.19.47.62.62,0,0,1-.49.21Z" id="path36"></path><path class="cls-3" d="M174.57,362a.68.68,0,0,1-.68-.68V343.76a.62.62,0,0,1,.19-.48.66.66,0,0,1,.49-.19h3.64a.68.68,0,0,1,.5.19.6.6,0,0,1,.21.48v17.55a.62.62,0,0,1-.21.47.66.66,0,0,1-.5.21Z" id="path38"></path><path class="cls-3" d="M190.46,362.26a10.74,10.74,0,0,1-4.34-.81,6.24,6.24,0,0,1-2.88-2.45,8.28,8.28,0,0,1-1.15-4.09c0-.77,0-1.55,0-2.33s0-1.56,0-2.34a8.3,8.3,0,0,1,1.16-4.09,6.52,6.52,0,0,1,2.91-2.5,11.61,11.61,0,0,1,8.62,0,6.63,6.63,0,0,1,2.91,2.5,7.9,7.9,0,0,1,1.14,4.09c0,.78.06,1.55.06,2.34s0,1.56-.06,2.33A7.88,7.88,0,0,1,197.7,359a6.37,6.37,0,0,1-2.89,2.45A10.76,10.76,0,0,1,190.46,362.26Zm0-3.89a3.25,3.25,0,0,0,2.35-.87,3.79,3.79,0,0,0,1-2.75c0-.79.05-1.54.05-2.24s0-1.43-.05-2.19a4.92,4.92,0,0,0-.48-2.06,2.73,2.73,0,0,0-1.15-1.18,3.66,3.66,0,0,0-1.69-.38,3.55,3.55,0,0,0-1.65.38,2.83,2.83,0,0,0-1.17,1.18,4.63,4.63,0,0,0-.49,2.06q0,1.14,0,2.19c0,.7,0,1.45,0,2.24a3.84,3.84,0,0,0,1,2.75A3.23,3.23,0,0,0,190.46,358.37Z" id="path40"></path><path class="cls-3" d="M202.72,362a.62.62,0,0,1-.49-.21.64.64,0,0,1-.19-.47V343.76a.62.62,0,0,1,.19-.48.64.64,0,0,1,.49-.19h2.88a.89.89,0,0,1,.66.2,1.38,1.38,0,0,1,.26.31L213.15,354V343.76a.62.62,0,0,1,.19-.48.66.66,0,0,1,.49-.19h3.26a.65.65,0,0,1,.68.67v17.52a.72.72,0,0,1-.19.5.64.64,0,0,1-.49.21h-2.91a.83.83,0,0,1-.64-.22,3.2,3.2,0,0,1-.26-.3l-6.62-10v9.83a.68.68,0,0,1-.19.47.64.64,0,0,1-.49.21Z" id="path42"></path><path class="cls-4" d="M451.71,348.88a.63.63,0,0,1-.49-.2.66.66,0,0,1-.19-.47V330.66a.66.66,0,0,1,.19-.49.7.7,0,0,1,.49-.19h3.64a.72.72,0,0,1,.5.19.63.63,0,0,1,.2.49v17.55a.63.63,0,0,1-.2.47.65.65,0,0,1-.5.2Z" id="path44"></path><path class="cls-4" d="M460.51,348.88a.65.65,0,0,1-.48-.2.67.67,0,0,1-.2-.47V330.66a.66.66,0,0,1,.2-.49.73.73,0,0,1,.48-.19h2.94a.89.89,0,0,1,.67.23,1.53,1.53,0,0,1,.28.37l4.78,8.5,4.78-8.5a3.24,3.24,0,0,1,.28-.37.87.87,0,0,1,.67-.23h2.91a.74.74,0,0,1,.5.19.63.63,0,0,1,.2.49v17.55a.63.63,0,0,1-.2.47.66.66,0,0,1-.5.2h-3.24a.68.68,0,0,1-.5-.2.67.67,0,0,1-.2-.47V338.08l-3,5.65a1.83,1.83,0,0,1-.36.43.9.9,0,0,1-.6.19h-1.41a.94.94,0,0,1-.6-.19,1.79,1.79,0,0,1-.35-.43l-3.07-5.65v10.13a.66.66,0,0,1-.19.47.63.63,0,0,1-.49.2Z" id="path46"></path><path class="cls-4" d="M483,348.88a.61.61,0,0,1-.49-.2.66.66,0,0,1-.19-.47V330.66a.66.66,0,0,1,.19-.49A.68.68,0,0,1,483,330h7.6a10.23,10.23,0,0,1,3.93.69,5.74,5.74,0,0,1,2.61,2.07,6.1,6.1,0,0,1,.94,3.48,5.91,5.91,0,0,1-.94,3.43,5.61,5.61,0,0,1-2.61,2,10.87,10.87,0,0,1-3.93.64h-3.23v5.92a.67.67,0,0,1-.2.47.69.69,0,0,1-.51.2Zm4.29-10.31h3.18a2.74,2.74,0,0,0,1.86-.6,2.23,2.23,0,0,0,.69-1.8,2.57,2.57,0,0,0-.6-1.73,2.41,2.41,0,0,0-1.95-.7H487.3Z" id="path48"></path><path class="cls-4" d="M508.46,349.15a10.74,10.74,0,0,1-4.34-.81,6.32,6.32,0,0,1-2.88-2.44,8.17,8.17,0,0,1-1.14-4.09q0-1.15,0-2.34c0-.78,0-1.56,0-2.33a8.17,8.17,0,0,1,1.15-4.09,6.52,6.52,0,0,1,2.91-2.5,11.48,11.48,0,0,1,8.62,0,6.58,6.58,0,0,1,2.91,2.5,7.87,7.87,0,0,1,1.14,4.09c0,.77.06,1.55.06,2.33s0,1.57-.06,2.34a7.88,7.88,0,0,1-1.13,4.09,6.35,6.35,0,0,1-2.89,2.44A10.76,10.76,0,0,1,508.46,349.15Zm0-3.89a3.24,3.24,0,0,0,2.35-.86,3.79,3.79,0,0,0,1-2.75c0-.8.05-1.54.05-2.24s0-1.44-.05-2.19a4.94,4.94,0,0,0-.48-2.07,2.66,2.66,0,0,0-1.15-1.17,3.66,3.66,0,0,0-1.69-.38,3.58,3.58,0,0,0-1.65.38,2.75,2.75,0,0,0-1.17,1.17,4.78,4.78,0,0,0-.49,2.07q0,1.13,0,2.19c0,.7,0,1.44,0,2.24a3.84,3.84,0,0,0,1,2.75A3.22,3.22,0,0,0,508.46,345.26Z" id="path50"></path><path class="cls-4" d="M520.72,348.88a.63.63,0,0,1-.49-.2.66.66,0,0,1-.19-.47V330.66a.66.66,0,0,1,.19-.49.7.7,0,0,1,.49-.19h7.39a8.66,8.66,0,0,1,5.54,1.61,5.49,5.49,0,0,1,2,4.55,5.55,5.55,0,0,1-.92,3.24,5.8,5.8,0,0,1-2.45,2L536,348a.64.64,0,0,1,.09.3.54.54,0,0,1-.18.39.57.57,0,0,1-.39.17h-3.62a1,1,0,0,1-.76-.25,1.93,1.93,0,0,1-.35-.48l-3.1-5.94h-2.77v6a.64.64,0,0,1-.21.47.65.65,0,0,1-.5.2Zm4.21-10.5h3.12a2.69,2.69,0,0,0,1.92-.62,2.25,2.25,0,0,0,.64-1.67,2.43,2.43,0,0,0-.61-1.71,2.59,2.59,0,0,0-2-.64h-3.12Z" id="path52"></path><path class="cls-4" d="M543.49,348.88a.61.61,0,0,1-.49-.2.66.66,0,0,1-.19-.47v-14H538a.67.67,0,0,1-.68-.67v-2.89a.66.66,0,0,1,.19-.49A.7.7,0,0,1,538,330h14.62a.65.65,0,0,1,.68.68v2.89a.7.7,0,0,1-.19.47.66.66,0,0,1-.49.2h-4.84v14a.66.66,0,0,1-.19.47.63.63,0,0,1-.49.2Z" id="path54"></path><rect class="cls-1" x="1264.05" y="471.47" width="254.94" height="106.2" rx="32.47" id="rect56"></rect><path class="cls-3" d="M1340,519.84a.68.68,0,0,1-.68-.68V501.61a.62.62,0,0,1,.19-.48.66.66,0,0,1,.49-.19h7.61a10.21,10.21,0,0,1,3.92.69,5.6,5.6,0,0,1,2.61,2.06,6.1,6.1,0,0,1,.94,3.48,5.91,5.91,0,0,1-.94,3.43,5.49,5.49,0,0,1-2.61,2,10.84,10.84,0,0,1-3.92.65h-3.24v5.91a.65.65,0,0,1-.2.47.67.67,0,0,1-.5.21Zm4.29-10.32h3.18a2.73,2.73,0,0,0,1.86-.59,2.27,2.27,0,0,0,.69-1.81,2.63,2.63,0,0,0-.59-1.73,2.45,2.45,0,0,0-2-.7h-3.18Z" id="path58"></path><path class="cls-3" d="M1365.44,520.11a10.76,10.76,0,0,1-4.35-.81,6.34,6.34,0,0,1-2.88-2.45,8.17,8.17,0,0,1-1.14-4.09c0-.77,0-1.55,0-2.33s0-1.56,0-2.34a8.2,8.2,0,0,1,1.15-4.09,6.52,6.52,0,0,1,2.91-2.5,11.63,11.63,0,0,1,8.63,0,6.55,6.55,0,0,1,2.9,2.5,7.9,7.9,0,0,1,1.14,4.09c0,.78.06,1.55.06,2.34s0,1.56-.06,2.33a8,8,0,0,1-1.12,4.09,6.45,6.45,0,0,1-2.9,2.45A10.74,10.74,0,0,1,1365.44,520.11Zm0-3.89a3.28,3.28,0,0,0,2.35-.87,3.83,3.83,0,0,0,1-2.75c0-.79,0-1.54,0-2.24s0-1.43,0-2.19a4.92,4.92,0,0,0-.48-2.06,2.73,2.73,0,0,0-1.15-1.18,3.65,3.65,0,0,0-1.68-.38,3.59,3.59,0,0,0-1.66.38,2.83,2.83,0,0,0-1.17,1.18,4.77,4.77,0,0,0-.49,2.06q0,1.14,0,2.19c0,.7,0,1.45,0,2.24a3.93,3.93,0,0,0,1,2.75A3.23,3.23,0,0,0,1365.44,516.22Z" id="path60"></path><path class="cls-3" d="M1377.69,519.84a.68.68,0,0,1-.68-.68V501.61a.62.62,0,0,1,.19-.48.66.66,0,0,1,.49-.19h7.39a8.66,8.66,0,0,1,5.54,1.6,5.49,5.49,0,0,1,2,4.55,5.55,5.55,0,0,1-.92,3.24,5.8,5.8,0,0,1-2.45,2L1393,519a.75.75,0,0,1,.08.3.62.62,0,0,1-.57.57h-3.62a1,1,0,0,1-.76-.26,2.1,2.1,0,0,1-.35-.47l-3.1-5.94h-2.77v6a.65.65,0,0,1-.2.47.69.69,0,0,1-.51.21Zm4.21-10.51H1385a2.63,2.63,0,0,0,1.92-.62,2.2,2.2,0,0,0,.64-1.67,2.41,2.41,0,0,0-.61-1.7,2.59,2.59,0,0,0-2-.65h-3.12Z" id="path62"></path><path class="cls-3" d="M1400.46,519.84a.62.62,0,0,1-.49-.21.64.64,0,0,1-.19-.47v-14h-4.84a.64.64,0,0,1-.49-.21.68.68,0,0,1-.19-.47v-2.89a.65.65,0,0,1,.68-.67h14.62a.65.65,0,0,1,.68.67v2.89a.68.68,0,0,1-.19.47.64.64,0,0,1-.49.21h-4.84v14a.64.64,0,0,1-.19.47.62.62,0,0,1-.49.21Z" id="path64"></path><path class="cls-3" d="M1409.69,519.84a.62.62,0,0,1-.57-.57.88.88,0,0,1,0-.24l6.39-17.34a1,1,0,0,1,1.06-.75h4a1,1,0,0,1,.72.23,1.15,1.15,0,0,1,.34.52L1428,519a.48.48,0,0,1,.06.24.54.54,0,0,1-.18.39.58.58,0,0,1-.42.18h-3.34a.81.81,0,0,1-.61-.21.85.85,0,0,1-.26-.36l-1.06-2.75H1415l-1,2.75a1,1,0,0,1-.24.36.86.86,0,0,1-.65.21Zm6.39-7.21h5.05l-2.52-7.13Z" id="path66"></path><path class="cls-3" d="M1430.91,519.84a.64.64,0,0,1-.49-.21.68.68,0,0,1-.19-.47V501.61a.65.65,0,0,1,.68-.67h3.59a.66.66,0,0,1,.49.19.62.62,0,0,1,.19.48v14.15h8.23a.66.66,0,0,1,.49.2.69.69,0,0,1,.19.5v2.7a.68.68,0,0,1-.68.68Z" id="path68"></path><path class="cls-3" d="M1313,547.11a10.72,10.72,0,0,1-4.44-.85,6.45,6.45,0,0,1-2.88-2.49,8.06,8.06,0,0,1-1.13-4c0-.77,0-1.6,0-2.47s0-1.71,0-2.5a7.68,7.68,0,0,1,1.14-3.89,6.59,6.59,0,0,1,2.91-2.43,10.83,10.83,0,0,1,4.4-.83,11.71,11.71,0,0,1,3.61.5,8.44,8.44,0,0,1,2.65,1.33,6.24,6.24,0,0,1,1.64,1.84,4.09,4.09,0,0,1,.6,2,.53.53,0,0,1-.17.4.61.61,0,0,1-.43.17h-4a.79.79,0,0,1-.45-.1.71.71,0,0,1-.26-.28,4.12,4.12,0,0,0-.56-.85,3,3,0,0,0-1-.77,3.65,3.65,0,0,0-1.67-.33,3.48,3.48,0,0,0-2.42.82,3.57,3.57,0,0,0-1,2.59c0,1.54,0,3.11,0,4.7a3.75,3.75,0,0,0,1,2.72,3.52,3.52,0,0,0,2.47.84,4.56,4.56,0,0,0,1.81-.35,2.8,2.8,0,0,0,1.26-1.1,3.5,3.5,0,0,0,.46-1.9v-.51H1314a.66.66,0,0,1-.49-.2.71.71,0,0,1-.19-.5v-2a.68.68,0,0,1,.19-.5.63.63,0,0,1,.49-.2h6.84a.61.61,0,0,1,.49.2.68.68,0,0,1,.19.5v3.08a7.18,7.18,0,0,1-1.06,4,6.8,6.8,0,0,1-3,2.52A10.94,10.94,0,0,1,1313,547.11Z" id="path70"></path><path class="cls-3" d="M1325.35,546.84a.62.62,0,0,1-.49-.21.64.64,0,0,1-.19-.47V528.61a.62.62,0,0,1,.19-.48.64.64,0,0,1,.49-.19H1338a.63.63,0,0,1,.48.19.62.62,0,0,1,.19.48v2.54a.66.66,0,0,1-.19.49.67.67,0,0,1-.48.19h-8.67v3.64h8.07a.66.66,0,0,1,.49.2.74.74,0,0,1,.19.5v2.35a.68.68,0,0,1-.19.47.64.64,0,0,1-.49.21h-8.07V543h8.88a.66.66,0,0,1,.49.19.63.63,0,0,1,.19.48v2.54a.68.68,0,0,1-.68.68Z" id="path72"></path><path class="cls-3" d="M1342.71,546.84a.68.68,0,0,1-.68-.68V528.61a.62.62,0,0,1,.19-.48.66.66,0,0,1,.49-.19h2.88a.87.87,0,0,1,.66.2,1.15,1.15,0,0,1,.26.31l6.63,10.37V528.61a.62.62,0,0,1,.19-.48.66.66,0,0,1,.49-.19h3.26a.66.66,0,0,1,.49.19.62.62,0,0,1,.19.48v17.52a.68.68,0,0,1-.19.5.64.64,0,0,1-.49.21h-2.91a.79.79,0,0,1-.63-.22,1.61,1.61,0,0,1-.26-.3l-6.63-10v9.83a.68.68,0,0,1-.19.47.64.64,0,0,1-.49.21Z" id="path74"></path><path class="cls-3" d="M1362.24,546.84a.64.64,0,0,1-.49-.21.68.68,0,0,1-.19-.47V528.61a.65.65,0,0,1,.68-.67h12.69a.66.66,0,0,1,.49.19.62.62,0,0,1,.19.48v2.54a.66.66,0,0,1-.19.49.7.7,0,0,1-.49.19h-8.67v3.64h8.07a.65.65,0,0,1,.49.2.69.69,0,0,1,.19.5v2.35a.64.64,0,0,1-.19.47.62.62,0,0,1-.49.21h-8.07V543h8.89a.66.66,0,0,1,.49.19.67.67,0,0,1,.19.48v2.54a.68.68,0,0,1-.19.47.64.64,0,0,1-.49.21Z" id="path76"></path><path class="cls-3" d="M1379.6,546.84a.64.64,0,0,1-.49-.21.67.67,0,0,1-.18-.47V528.61a.65.65,0,0,1,.18-.48.66.66,0,0,1,.49-.19H1387a8.67,8.67,0,0,1,5.55,1.6,6.14,6.14,0,0,1,1.08,7.79,5.77,5.77,0,0,1-2.44,2l3.72,6.64a.75.75,0,0,1,.08.3.54.54,0,0,1-.18.39.51.51,0,0,1-.39.18h-3.61a1,1,0,0,1-.76-.26,2.18,2.18,0,0,1-.36-.47l-3.09-5.94h-2.78v6a.61.61,0,0,1-.2.47.66.66,0,0,1-.5.21Zm4.21-10.51h3.13a2.6,2.6,0,0,0,1.91-.62,2.2,2.2,0,0,0,.64-1.67,2.36,2.36,0,0,0-.61-1.7,2.56,2.56,0,0,0-1.94-.65h-3.13Z" id="path78"></path><path class="cls-3" d="M1396.61,546.84a.62.62,0,0,1-.57-.57.88.88,0,0,1,0-.24l6.38-17.34a1.15,1.15,0,0,1,.34-.52,1,1,0,0,1,.72-.23h4a1,1,0,0,1,1.06.75L1415,546a.48.48,0,0,1,.06.24.54.54,0,0,1-.18.39.58.58,0,0,1-.42.18h-3.34a.81.81,0,0,1-.61-.21.85.85,0,0,1-.26-.36l-1.06-2.75h-7.26l-1,2.75a1.12,1.12,0,0,1-.24.36.87.87,0,0,1-.66.21Zm6.39-7.21h5l-2.53-7.13Z" id="path80"></path><path class="cls-3" d="M1420.09,546.84a.62.62,0,0,1-.49-.21.64.64,0,0,1-.19-.47v-14h-4.84a.64.64,0,0,1-.49-.21.68.68,0,0,1-.19-.47v-2.89a.65.65,0,0,1,.68-.67h14.62a.65.65,0,0,1,.68.67v2.89a.68.68,0,0,1-.19.47.64.64,0,0,1-.49.21h-4.84v14a.64.64,0,0,1-.19.47.62.62,0,0,1-.49.21Z" id="path82"></path><path class="cls-3" d="M1433,546.84a.68.68,0,0,1-.68-.68V528.61a.62.62,0,0,1,.19-.48.66.66,0,0,1,.49-.19h3.64a.68.68,0,0,1,.5.19.6.6,0,0,1,.21.48v17.55a.62.62,0,0,1-.21.47.66.66,0,0,1-.5.21Z" id="path84"></path><path class="cls-3" d="M1448.91,547.11a10.74,10.74,0,0,1-4.34-.81,6.24,6.24,0,0,1-2.88-2.45,8.28,8.28,0,0,1-1.15-4.09c0-.77,0-1.55,0-2.33s0-1.56,0-2.34a8.3,8.3,0,0,1,1.16-4.09,6.52,6.52,0,0,1,2.91-2.5,11.61,11.61,0,0,1,8.62,0,6.63,6.63,0,0,1,2.91,2.5,7.9,7.9,0,0,1,1.14,4.09c0,.78.06,1.55.06,2.34s0,1.56-.06,2.33a7.88,7.88,0,0,1-1.13,4.09,6.37,6.37,0,0,1-2.89,2.45A10.76,10.76,0,0,1,1448.91,547.11Zm0-3.89a3.25,3.25,0,0,0,2.35-.87,3.79,3.79,0,0,0,1-2.75c0-.79,0-1.54,0-2.24s0-1.43,0-2.19a4.92,4.92,0,0,0-.48-2.06,2.73,2.73,0,0,0-1.15-1.18,3.66,3.66,0,0,0-1.69-.38,3.55,3.55,0,0,0-1.65.38,2.83,2.83,0,0,0-1.17,1.18,4.63,4.63,0,0,0-.49,2.06q0,1.14,0,2.19c0,.7,0,1.45,0,2.24a3.84,3.84,0,0,0,1,2.75A3.23,3.23,0,0,0,1448.91,543.22Z" id="path86"></path><path class="cls-3" d="M1461.17,546.84a.62.62,0,0,1-.49-.21.64.64,0,0,1-.19-.47V528.61a.62.62,0,0,1,.19-.48.64.64,0,0,1,.49-.19h2.88a.89.89,0,0,1,.66.2,1.38,1.38,0,0,1,.26.31l6.63,10.37V528.61a.62.62,0,0,1,.19-.48.66.66,0,0,1,.49-.19h3.26a.65.65,0,0,1,.68.67v17.52a.72.72,0,0,1-.19.5.64.64,0,0,1-.49.21h-2.91a.83.83,0,0,1-.64-.22,1.88,1.88,0,0,1-.25-.3l-6.63-10v9.83a.68.68,0,0,1-.19.47.64.64,0,0,1-.49.21Z" id="path88"></path><rect class="cls-2" x="1618.76" y="466.51" width="272.26" height="113.41" rx="32.47" id="rect90" style="stroke:#0c7ff2;stroke-opacity:1"></rect><path class="cls-4" d="M1696.33,518.17a.68.68,0,0,1-.68-.68V499.94a.62.62,0,0,1,.19-.48.66.66,0,0,1,.49-.19h7.61a10.21,10.21,0,0,1,3.92.69,5.55,5.55,0,0,1,2.61,2.06,6,6,0,0,1,.94,3.48,5.84,5.84,0,0,1-.94,3.43,5.45,5.45,0,0,1-2.61,2,10.84,10.84,0,0,1-3.92.65h-3.24v5.91a.61.61,0,0,1-.2.47.66.66,0,0,1-.5.21Zm4.29-10.32h3.18a2.73,2.73,0,0,0,1.86-.59,2.24,2.24,0,0,0,.7-1.81,2.58,2.58,0,0,0-.6-1.73,2.44,2.44,0,0,0-2-.7h-3.18Z" id="path92"></path><path class="cls-4" d="M1722,518.44a10.76,10.76,0,0,1-4.31-.8,6,6,0,0,1-2.84-2.46,8,8,0,0,1-1-4.22v-11a.65.65,0,0,1,.68-.67H1718a.68.68,0,0,1,.5.19.59.59,0,0,1,.2.48v11a3.66,3.66,0,0,0,.85,2.63,3.14,3.14,0,0,0,2.39.88,3.18,3.18,0,0,0,2.38-.88,3.62,3.62,0,0,0,.85-2.63v-11a.6.6,0,0,1,.21-.48.64.64,0,0,1,.47-.19h3.53a.68.68,0,0,1,.48.19.63.63,0,0,1,.2.48v11a8,8,0,0,1-1,4.22,6.07,6.07,0,0,1-2.83,2.46A10.55,10.55,0,0,1,1722,518.44Z" id="path94"></path><path class="cls-4" d="M1734.39,518.17a.61.61,0,0,1-.48-.21.64.64,0,0,1-.19-.47V499.94a.62.62,0,0,1,.19-.48.63.63,0,0,1,.48-.19h8.29a9.52,9.52,0,0,1,3.83.65,4.6,4.6,0,0,1,2.22,1.84,5.49,5.49,0,0,1,.72,2.85,3.92,3.92,0,0,1-.37,1.72,4.08,4.08,0,0,1-.9,1.23,4.23,4.23,0,0,1-1,.7,4.81,4.81,0,0,1,1.84,1.59,4.33,4.33,0,0,1,.8,2.59,5.73,5.73,0,0,1-.8,3.07,5.24,5.24,0,0,1-2.34,2,9.15,9.15,0,0,1-3.76.69Zm4.22-11.4h3.53a2.2,2.2,0,0,0,1.67-.58,2,2,0,0,0,.56-1.44,1.92,1.92,0,0,0-.56-1.42,2.27,2.27,0,0,0-1.67-.55h-3.53Zm0,7.89h3.77a2.27,2.27,0,0,0,1.76-3.81,2.32,2.32,0,0,0-1.76-.65h-3.77Z" id="path96"></path><path class="cls-4" d="M1753.52,518.17a.64.64,0,0,1-.49-.21.68.68,0,0,1-.19-.47V499.94a.65.65,0,0,1,.68-.67h3.59a.65.65,0,0,1,.68.67v14.15H1766a.66.66,0,0,1,.49.2.69.69,0,0,1,.19.5v2.7a.68.68,0,0,1-.68.68Z" id="path98"></path><path class="cls-4" d="M1769.74,518.17a.64.64,0,0,1-.49-.21.68.68,0,0,1-.19-.47V499.94a.65.65,0,0,1,.68-.67h3.64a.72.72,0,0,1,.51.19.63.63,0,0,1,.2.48v17.55a.65.65,0,0,1-.2.47.69.69,0,0,1-.51.21Z" id="path100"></path><path class="cls-4" d="M1785,518.44a11.49,11.49,0,0,1-4.51-.77,6.59,6.59,0,0,1-2.72-2,4.68,4.68,0,0,1-1-2.65.54.54,0,0,1,.18-.39.58.58,0,0,1,.42-.18h3.42a1.07,1.07,0,0,1,.59.14,1.7,1.7,0,0,1,.36.35,3.32,3.32,0,0,0,.61.78,3,3,0,0,0,1.05.61,4.84,4.84,0,0,0,1.58.23,4.55,4.55,0,0,0,2.37-.49,1.47,1.47,0,0,0,.81-1.32,1.27,1.27,0,0,0-.44-1,4.21,4.21,0,0,0-1.4-.69,24.85,24.85,0,0,0-2.57-.63,15.77,15.77,0,0,1-3.51-1.12,5.39,5.39,0,0,1-2.22-1.81,5.28,5.28,0,0,1,.18-5.74,6.12,6.12,0,0,1,2.62-2,9.91,9.91,0,0,1,4-.73,10.34,10.34,0,0,1,3.3.48,7.57,7.57,0,0,1,2.41,1.3,6.26,6.26,0,0,1,1.48,1.71,4,4,0,0,1,.53,1.77.56.56,0,0,1-.15.39.52.52,0,0,1-.42.18h-3.59a1.13,1.13,0,0,1-.51-.11.91.91,0,0,1-.38-.35,1.87,1.87,0,0,0-.86-1,3.26,3.26,0,0,0-1.81-.45,3.51,3.51,0,0,0-1.86.42,1.42,1.42,0,0,0-.66,1.29,1.37,1.37,0,0,0,.36.94,2.93,2.93,0,0,0,1.23.7,19.38,19.38,0,0,0,2.35.62,17.91,17.91,0,0,1,4,1.15,5.12,5.12,0,0,1,2.24,1.78,5.39,5.39,0,0,1-.34,5.9,6.6,6.6,0,0,1-2.89,2A11.57,11.57,0,0,1,1785,518.44Z" id="path102"></path><path class="cls-4" d="M1796.56,518.17a.7.7,0,0,1-.49-.19.66.66,0,0,1-.19-.49V499.94a.62.62,0,0,1,.19-.48.66.66,0,0,1,.49-.19h3.5a.72.72,0,0,1,.51.19.63.63,0,0,1,.2.48v6.51h6.68v-6.51a.65.65,0,0,1,.68-.67h3.51a.65.65,0,0,1,.68.67v17.55a.68.68,0,0,1-.19.47.64.64,0,0,1-.49.21h-3.51a.64.64,0,0,1-.49-.21.68.68,0,0,1-.19-.47v-6.72h-6.68v6.72a.65.65,0,0,1-.2.47.69.69,0,0,1-.51.21Z" id="path104"></path><path class="cls-4" d="M1703.3,545.17a.68.68,0,0,1-.68-.68V526.94a.62.62,0,0,1,.19-.48.66.66,0,0,1,.49-.19h7.61a10.21,10.21,0,0,1,3.92.69,5.55,5.55,0,0,1,2.61,2.06,6,6,0,0,1,.94,3.48,5.84,5.84,0,0,1-.94,3.43,5.45,5.45,0,0,1-2.61,2,10.84,10.84,0,0,1-3.92.65h-3.24v5.91a.61.61,0,0,1-.2.47.67.67,0,0,1-.5.21Zm4.29-10.32h3.18a2.73,2.73,0,0,0,1.86-.59,2.27,2.27,0,0,0,.69-1.81,2.58,2.58,0,0,0-.59-1.73,2.44,2.44,0,0,0-2-.7h-3.18Z" id="path106"></path><path class="cls-4" d="M1728.76,545.44a10.76,10.76,0,0,1-4.35-.81,6.34,6.34,0,0,1-2.88-2.45,8.17,8.17,0,0,1-1.14-4.09c0-.77,0-1.55,0-2.33s0-1.56,0-2.34a8.3,8.3,0,0,1,1.15-4.09,6.52,6.52,0,0,1,2.91-2.5,11.63,11.63,0,0,1,8.63,0,6.55,6.55,0,0,1,2.9,2.5,8,8,0,0,1,1.15,4.09c0,.78,0,1.55,0,2.34s0,1.56,0,2.33a8.07,8.07,0,0,1-1.13,4.09,6.39,6.39,0,0,1-2.9,2.45A10.74,10.74,0,0,1,1728.76,545.44Zm0-3.89a3.27,3.27,0,0,0,2.35-.87,3.83,3.83,0,0,0,1-2.75c0-.79.06-1.54.06-2.24s0-1.43-.06-2.19a4.93,4.93,0,0,0-.47-2.06,2.81,2.81,0,0,0-1.16-1.18,3.65,3.65,0,0,0-1.68-.38,3.59,3.59,0,0,0-1.66.38,2.83,2.83,0,0,0-1.17,1.18,4.77,4.77,0,0,0-.49,2.06q0,1.14,0,2.19c0,.7,0,1.45,0,2.24a3.93,3.93,0,0,0,1,2.75A3.23,3.23,0,0,0,1728.76,541.55Z" id="path108"></path><path class="cls-4" d="M1741,545.17a.68.68,0,0,1-.68-.68V526.94a.62.62,0,0,1,.19-.48.66.66,0,0,1,.49-.19h7.39a8.66,8.66,0,0,1,5.54,1.6,5.49,5.49,0,0,1,2,4.55,5.55,5.55,0,0,1-.92,3.24,5.8,5.8,0,0,1-2.45,2l3.73,6.64a.75.75,0,0,1,.08.3.53.53,0,0,1-.18.39.54.54,0,0,1-.39.18h-3.62a1,1,0,0,1-.76-.26,2.1,2.1,0,0,1-.35-.47l-3.1-5.94h-2.77v6a.65.65,0,0,1-.2.47.69.69,0,0,1-.51.21Zm4.21-10.51h3.13a2.6,2.6,0,0,0,1.91-.62,2.2,2.2,0,0,0,.64-1.67,2.36,2.36,0,0,0-.61-1.7,2.58,2.58,0,0,0-1.94-.65h-3.13Z" id="path110"></path><path class="cls-4" d="M1763.78,545.17a.68.68,0,0,1-.68-.68v-14h-4.84a.64.64,0,0,1-.49-.21.68.68,0,0,1-.19-.47v-2.89a.65.65,0,0,1,.68-.67h14.62a.66.66,0,0,1,.49.19.62.62,0,0,1,.19.48v2.89a.68.68,0,0,1-.68.68H1768v14a.64.64,0,0,1-.19.47.62.62,0,0,1-.49.21Z" id="path112"></path><path class="cls-4" d="M1773,545.17a.55.55,0,0,1-.4-.18.53.53,0,0,1-.18-.39.88.88,0,0,1,0-.24l6.39-17.34a1,1,0,0,1,1.06-.75h4a1,1,0,0,1,.72.23,1.15,1.15,0,0,1,.34.52l6.35,17.34a.48.48,0,0,1,.06.24.53.53,0,0,1-.18.39.58.58,0,0,1-.42.18h-3.34a.81.81,0,0,1-.61-.21,1,1,0,0,1-.26-.36l-1.06-2.75h-7.25l-1,2.75a.87.87,0,0,1-.24.36.85.85,0,0,1-.65.21Zm6.38-7.21h5l-2.52-7.13Z" id="path114"></path><path class="cls-4" d="M1794.23,545.17a.61.61,0,0,1-.48-.21.64.64,0,0,1-.19-.47V526.94a.62.62,0,0,1,.19-.48.63.63,0,0,1,.48-.19h3.59a.66.66,0,0,1,.49.19.62.62,0,0,1,.19.48v14.15h8.23a.65.65,0,0,1,.49.2.69.69,0,0,1,.19.5v2.7a.64.64,0,0,1-.19.47.62.62,0,0,1-.49.21Z" id="path116"></path><rect class="cls-1" x="728.53" y="280.7" width="262.88" height="109.51" rx="32.47" id="rect118"></rect><path class="cls-3" d="M834.23,331.83a10.56,10.56,0,0,1-4.4-.84,6.33,6.33,0,0,1-2.87-2.45,8.21,8.21,0,0,1-1.13-4c0-.73,0-1.53,0-2.37s0-1.66,0-2.43a8.28,8.28,0,0,1,1.14-4,6.53,6.53,0,0,1,2.88-2.48,10.53,10.53,0,0,1,4.38-.84,11.62,11.62,0,0,1,3.31.45,8.39,8.39,0,0,1,2.67,1.29,6.22,6.22,0,0,1,1.78,2.05,6.07,6.07,0,0,1,.66,2.72.43.43,0,0,1-.15.4.61.61,0,0,1-.42.17h-3.67a.87.87,0,0,1-.54-.15,1.17,1.17,0,0,1-.33-.56,3.08,3.08,0,0,0-1.23-1.95,4,4,0,0,0-2.11-.53,3.28,3.28,0,0,0-2.36.82,3.88,3.88,0,0,0-1,2.74c-.06,1.48-.06,3,0,4.54a3.86,3.86,0,0,0,1,2.74,3.28,3.28,0,0,0,2.36.82,4,4,0,0,0,2.12-.54,3,3,0,0,0,1.22-1.94,1,1,0,0,1,.32-.55.9.9,0,0,1,.55-.15h3.67a.6.6,0,0,1,.42.16.44.44,0,0,1,.15.4A6,6,0,0,1,842,328a6.22,6.22,0,0,1-1.78,2,8.41,8.41,0,0,1-2.67,1.3A12,12,0,0,1,834.23,331.83Z" id="path120"></path><path class="cls-3" d="M853.27,331.83a10.74,10.74,0,0,1-4.34-.81,6.22,6.22,0,0,1-2.88-2.44,8.17,8.17,0,0,1-1.14-4.09q0-1.17,0-2.34c0-.78,0-1.56,0-2.33a8.17,8.17,0,0,1,1.15-4.09,6.52,6.52,0,0,1,2.91-2.5,11.48,11.48,0,0,1,8.62,0,6.63,6.63,0,0,1,2.91,2.5,7.87,7.87,0,0,1,1.14,4.09c0,.77.06,1.55.06,2.33s0,1.56-.06,2.34a7.88,7.88,0,0,1-1.13,4.09,6.35,6.35,0,0,1-2.89,2.44A10.76,10.76,0,0,1,853.27,331.83Zm0-3.89a3.24,3.24,0,0,0,2.35-.86,3.81,3.81,0,0,0,1-2.75c0-.8,0-1.54,0-2.24s0-1.44,0-2.19a4.94,4.94,0,0,0-.48-2.07,2.66,2.66,0,0,0-1.15-1.17,3.66,3.66,0,0,0-1.69-.38,3.58,3.58,0,0,0-1.65.38,2.75,2.75,0,0,0-1.17,1.17,4.64,4.64,0,0,0-.49,2.07q0,1.13,0,2.19c0,.7,0,1.44,0,2.24a3.86,3.86,0,0,0,1,2.75A3.22,3.22,0,0,0,853.27,327.94Z" id="path122"></path><path class="cls-3" d="M865.53,331.56a.65.65,0,0,1-.49-.2.66.66,0,0,1-.19-.47V313.34a.66.66,0,0,1,.19-.49.64.64,0,0,1,.49-.19h7.06a11,11,0,0,1,4.54.85A6.4,6.4,0,0,1,880,316a8.15,8.15,0,0,1,1.09,4c0,.8,0,1.49,0,2.08s0,1.28,0,2.05a9,9,0,0,1-1.08,4.16,5.78,5.78,0,0,1-2.8,2.44,11.1,11.1,0,0,1-4.49.8Zm4.21-3.89h2.85a4.57,4.57,0,0,0,1.94-.36,2.42,2.42,0,0,0,1.17-1.15,4.71,4.71,0,0,0,.42-2.05c0-.52.06-1,.07-1.4s0-.83,0-1.25,0-.87-.07-1.37a3.64,3.64,0,0,0-1-2.69,3.82,3.82,0,0,0-2.7-.85h-2.72Z" id="path124"></path><path class="cls-3" d="M885,331.56a.67.67,0,0,1-.68-.67V313.34a.65.65,0,0,1,.68-.68h12.69a.66.66,0,0,1,.49.19.7.7,0,0,1,.19.49v2.54a.69.69,0,0,1-.19.48.66.66,0,0,1-.49.19H889v3.64h8.07a.64.64,0,0,1,.49.21.68.68,0,0,1,.19.5v2.35a.67.67,0,0,1-.68.67H889v3.75h8.89a.67.67,0,0,1,.48.19.66.66,0,0,1,.2.49v2.54a.67.67,0,0,1-.2.47.64.64,0,0,1-.48.2Z" id="path126"></path><path class="cls-3" d="M787.33,358.83a10.56,10.56,0,0,1-4.44-.85A6.48,6.48,0,0,1,780,355.5a8.21,8.21,0,0,1-1.13-4c0-.77,0-1.59,0-2.47s0-1.7,0-2.49a7.75,7.75,0,0,1,1.15-3.89,6.51,6.51,0,0,1,2.9-2.43,10.69,10.69,0,0,1,4.4-.84,12.09,12.09,0,0,1,3.62.5,8.35,8.35,0,0,1,2.65,1.34,6.49,6.49,0,0,1,1.64,1.83,4.27,4.27,0,0,1,.6,2,.52.52,0,0,1-.18.41.6.6,0,0,1-.42.16h-4a.85.85,0,0,1-.44-.09.82.82,0,0,1-.26-.29,4.12,4.12,0,0,0-.56-.85,3.23,3.23,0,0,0-1-.77,3.84,3.84,0,0,0-1.68-.32,3.44,3.44,0,0,0-2.41.81,3.53,3.53,0,0,0-1,2.59c-.06,1.55-.06,3.12,0,4.7a3.77,3.77,0,0,0,1,2.73,3.54,3.54,0,0,0,2.48.83,4.32,4.32,0,0,0,1.8-.35,2.76,2.76,0,0,0,1.27-1.09,3.64,3.64,0,0,0,.46-1.9v-.52h-2.56a.66.66,0,0,1-.49-.2.72.72,0,0,1-.19-.5v-2a.74.74,0,0,1,.19-.5.66.66,0,0,1,.49-.2h6.85a.66.66,0,0,1,.49.2.69.69,0,0,1,.19.5v3.08a7.15,7.15,0,0,1-1.06,4,6.78,6.78,0,0,1-3,2.52A10.87,10.87,0,0,1,787.33,358.83Z" id="path128"></path><path class="cls-3" d="M799.72,358.56a.66.66,0,0,1-.49-.2.7.7,0,0,1-.19-.47V340.34a.7.7,0,0,1,.19-.49.66.66,0,0,1,.49-.19h12.69a.65.65,0,0,1,.68.68v2.54a.65.65,0,0,1-.19.48.66.66,0,0,1-.49.19h-8.67v3.64h8.07a.62.62,0,0,1,.49.21.68.68,0,0,1,.19.5v2.35a.66.66,0,0,1-.19.47.65.65,0,0,1-.49.2h-8.07v3.75h8.89a.65.65,0,0,1,.68.68v2.54a.7.7,0,0,1-.19.47.66.66,0,0,1-.49.2Z" id="path130"></path><path class="cls-3" d="M817.08,358.56a.63.63,0,0,1-.48-.2.66.66,0,0,1-.19-.47V340.34a.66.66,0,0,1,.19-.49.62.62,0,0,1,.48-.19H820a1,1,0,0,1,.67.2,1.65,1.65,0,0,1,.26.31l6.63,10.37v-10.2a.66.66,0,0,1,.19-.49.64.64,0,0,1,.49-.19h3.26a.66.66,0,0,1,.49.19.7.7,0,0,1,.19.49v17.52a.74.74,0,0,1-.19.5.66.66,0,0,1-.49.2h-2.91a.87.87,0,0,1-.64-.21l-.26-.3-6.63-10v9.83a.66.66,0,0,1-.19.47.65.65,0,0,1-.49.2Z" id="path132"></path><path class="cls-3" d="M836.62,358.56a.67.67,0,0,1-.68-.67V340.34a.65.65,0,0,1,.68-.68h12.69a.66.66,0,0,1,.49.19.7.7,0,0,1,.19.49v2.54a.69.69,0,0,1-.19.48.66.66,0,0,1-.49.19h-8.67v3.64h8.07a.64.64,0,0,1,.49.21.72.72,0,0,1,.19.5v2.35a.7.7,0,0,1-.19.47.66.66,0,0,1-.49.2h-8.07v3.75h8.88a.68.68,0,0,1,.49.19.66.66,0,0,1,.19.49v2.54a.66.66,0,0,1-.19.47.65.65,0,0,1-.49.2Z" id="path134"></path><path class="cls-3" d="M854,358.56a.67.67,0,0,1-.68-.67V340.34a.65.65,0,0,1,.68-.68h7.39a8.66,8.66,0,0,1,5.54,1.61,6.16,6.16,0,0,1,1.09,7.79,5.8,5.8,0,0,1-2.45,2l3.73,6.64a.71.71,0,0,1,.08.29.55.55,0,0,1-.18.4.57.57,0,0,1-.39.17h-3.62a1,1,0,0,1-.76-.26,1.9,1.9,0,0,1-.35-.47l-3.1-5.94h-2.77v6a.67.67,0,0,1-.2.47.72.72,0,0,1-.5.2Zm4.21-10.5h3.13a2.64,2.64,0,0,0,1.91-.62,2.22,2.22,0,0,0,.64-1.68,2.36,2.36,0,0,0-.61-1.7,2.58,2.58,0,0,0-1.94-.65h-3.13Z" id="path136"></path><path class="cls-3" d="M871,358.56a.58.58,0,0,1-.57-.57,1.66,1.66,0,0,1,0-.24l6.39-17.33a1,1,0,0,1,1.06-.76h4a1,1,0,0,1,1.06.76l6.36,17.33a.6.6,0,0,1,0,.24.58.58,0,0,1-.17.4.61.61,0,0,1-.43.17h-3.34a.86.86,0,0,1-.61-.2,1.2,1.2,0,0,1-.26-.37l-1.06-2.75h-7.25l-1,2.75a1.14,1.14,0,0,1-.25.37.87.87,0,0,1-.65.2Zm6.38-7.21h5.06l-2.53-7.13Z" id="path138"></path><path class="cls-3" d="M894.46,358.56a.66.66,0,0,1-.49-.2.7.7,0,0,1-.19-.47v-14H889a.65.65,0,0,1-.49-.2.66.66,0,0,1-.19-.47v-2.89a.66.66,0,0,1,.19-.49.64.64,0,0,1,.49-.19h14.61a.64.64,0,0,1,.49.19.66.66,0,0,1,.19.49v2.89a.66.66,0,0,1-.19.47.65.65,0,0,1-.49.2h-4.83v14a.7.7,0,0,1-.19.47.66.66,0,0,1-.49.2Z" id="path140"></path><path class="cls-3" d="M907.39,358.56a.64.64,0,0,1-.48-.2.66.66,0,0,1-.19-.47V340.34a.66.66,0,0,1,.19-.49.63.63,0,0,1,.48-.19H911a.71.71,0,0,1,.5.19.66.66,0,0,1,.2.49v17.55a.67.67,0,0,1-.2.47.72.72,0,0,1-.5.2Z" id="path142"></path><path class="cls-3" d="M923.29,358.83a10.76,10.76,0,0,1-4.35-.81,6.32,6.32,0,0,1-2.88-2.44,8.17,8.17,0,0,1-1.14-4.09q0-1.17,0-2.34c0-.78,0-1.56,0-2.33a8.17,8.17,0,0,1,1.16-4.09,6.44,6.44,0,0,1,2.9-2.5,11.5,11.5,0,0,1,8.63,0,6.63,6.63,0,0,1,2.91,2.5,8.06,8.06,0,0,1,1.14,4.09c0,.77.05,1.55.05,2.33s0,1.56-.05,2.34a8,8,0,0,1-1.13,4.09,6.4,6.4,0,0,1-2.89,2.44A10.79,10.79,0,0,1,923.29,358.83Zm0-3.89a3.26,3.26,0,0,0,2.35-.86,3.76,3.76,0,0,0,1-2.75c0-.8.06-1.54.06-2.24s0-1.44-.06-2.19a4.79,4.79,0,0,0-.47-2.07,2.68,2.68,0,0,0-1.16-1.17,3.65,3.65,0,0,0-1.68-.38,3.59,3.59,0,0,0-1.66.38,2.75,2.75,0,0,0-1.17,1.17,4.78,4.78,0,0,0-.49,2.07c0,.75,0,1.48,0,2.19s0,1.44,0,2.24a3.9,3.9,0,0,0,1,2.75A3.2,3.2,0,0,0,923.29,354.94Z" id="path144"></path><path class="cls-3" d="M935.54,358.56a.66.66,0,0,1-.49-.2.7.7,0,0,1-.19-.47V340.34a.7.7,0,0,1,.19-.49.66.66,0,0,1,.49-.19h2.88a1,1,0,0,1,.67.2,2.18,2.18,0,0,1,.26.31L946,350.54v-10.2a.66.66,0,0,1,.2-.49.62.62,0,0,1,.48-.19h3.26a.64.64,0,0,1,.49.19.66.66,0,0,1,.19.49v17.52a.69.69,0,0,1-.19.5.65.65,0,0,1-.49.2H947a.85.85,0,0,1-.64-.21c-.14-.15-.22-.25-.26-.3l-6.63-10v9.83a.67.67,0,0,1-.68.67Z" id="path146"></path><rect class="cls-2" x="1259.58" y="116.87" width="255.7" height="106.52" rx="32.47" id="rect148" style="stroke:#0c7ff2;stroke-opacity:1"></rect><path class="cls-4" d="M1324.57,165.38a.66.66,0,0,1-.49-.2.7.7,0,0,1-.19-.47V147.16a.7.7,0,0,1,.19-.49.66.66,0,0,1,.49-.19h7.61a10.3,10.3,0,0,1,3.93.69,5.74,5.74,0,0,1,2.61,2.07,6.05,6.05,0,0,1,.93,3.48,5.91,5.91,0,0,1-.93,3.43,5.61,5.61,0,0,1-2.61,2,10.94,10.94,0,0,1-3.93.64H1329v5.92a.64.64,0,0,1-.21.47.69.69,0,0,1-.5.2Zm4.3-10.31h3.18a2.77,2.77,0,0,0,1.86-.6,2.24,2.24,0,0,0,.69-1.8,2.57,2.57,0,0,0-.6-1.73,2.43,2.43,0,0,0-2-.71h-3.18Z" id="path150"></path><path class="cls-4" d="M1339.87,165.38a.54.54,0,0,1-.39-.17.55.55,0,0,1-.18-.4.88.88,0,0,1,0-.24l6.38-17.33a1.13,1.13,0,0,1,.34-.53,1.05,1.05,0,0,1,.72-.23h4a1,1,0,0,1,1.06.76l6.36,17.33a.47.47,0,0,1,0,.24.58.58,0,0,1-.17.4.61.61,0,0,1-.42.17h-3.35a.86.86,0,0,1-.61-.2,1.2,1.2,0,0,1-.26-.37l-1.06-2.75h-7.25l-1,2.75a1.14,1.14,0,0,1-.25.37.87.87,0,0,1-.65.2Zm6.39-7.21h5l-2.53-7.13Z" id="path152"></path><path class="cls-4" d="M1367.8,165.65a10.56,10.56,0,0,1-4.4-.84,6.39,6.39,0,0,1-2.87-2.45,8.2,8.2,0,0,1-1.13-4c0-.74,0-1.54,0-2.38s0-1.66,0-2.43a8.18,8.18,0,0,1,1.15-4,6.42,6.42,0,0,1,2.88-2.48,10.48,10.48,0,0,1,4.37-.84,11.69,11.69,0,0,1,3.32.45,8.34,8.34,0,0,1,2.66,1.29,6.32,6.32,0,0,1,1.78,2.05,6.07,6.07,0,0,1,.66,2.72.43.43,0,0,1-.15.4.57.57,0,0,1-.42.17H1372a.87.87,0,0,1-.54-.15,1.16,1.16,0,0,1-.32-.56,3.13,3.13,0,0,0-1.24-2,4,4,0,0,0-2.11-.53,3.29,3.29,0,0,0-2.36.82,3.88,3.88,0,0,0-1,2.74c-.06,1.48-.06,3,0,4.54a3.86,3.86,0,0,0,1,2.74,3.29,3.29,0,0,0,2.36.82,3.93,3.93,0,0,0,2.12-.54,3,3,0,0,0,1.23-1.94.93.93,0,0,1,.31-.55.9.9,0,0,1,.55-.15h3.67a.57.57,0,0,1,.42.16.44.44,0,0,1,.15.4,6,6,0,0,1-.66,2.72,6.22,6.22,0,0,1-1.78,2,8.35,8.35,0,0,1-2.66,1.3A12.06,12.06,0,0,1,1367.8,165.65Z" id="path154"></path><path class="cls-4" d="M1379.75,165.38a.66.66,0,0,1-.49-.2.69.69,0,0,1-.18-.47V147.16a.69.69,0,0,1,.18-.49.66.66,0,0,1,.49-.19h3.43a.66.66,0,0,1,.49.19.7.7,0,0,1,.19.49v6l5-6.15a1.38,1.38,0,0,1,.37-.34,1.18,1.18,0,0,1,.69-.18h3.91a.52.52,0,0,1,.41.18.56.56,0,0,1,.17.39.57.57,0,0,1-.09.32l-6.52,8.16,7,9a.4.4,0,0,1,.11.32.56.56,0,0,1-.57.57h-4a1.14,1.14,0,0,1-.74-.21,2.14,2.14,0,0,1-.34-.33l-5.38-6.67v6.54a.7.7,0,0,1-.19.47.66.66,0,0,1-.49.2Z" id="path156"></path><path class="cls-4" d="M1396,165.38a.57.57,0,0,1-.39-.17.55.55,0,0,1-.18-.4.88.88,0,0,1,0-.24l6.38-17.33a1.13,1.13,0,0,1,.34-.53,1.07,1.07,0,0,1,.72-.23h4a1.05,1.05,0,0,1,.72.23,1,1,0,0,1,.34.53l6.36,17.33a.48.48,0,0,1,.06.24.55.55,0,0,1-.18.4.61.61,0,0,1-.42.17h-3.34a.83.83,0,0,1-.61-.2.93.93,0,0,1-.26-.37l-1.06-2.75h-7.26l-1,2.75a1.27,1.27,0,0,1-.24.37.91.91,0,0,1-.66.2Zm6.39-7.21h5l-2.53-7.13Z" id="path158"></path><path class="cls-4" d="M1424,165.65a10.61,10.61,0,0,1-4.45-.85,6.48,6.48,0,0,1-2.88-2.48,8.09,8.09,0,0,1-1.12-4c0-.78,0-1.6,0-2.48s0-1.7,0-2.49a7.65,7.65,0,0,1,1.14-3.89,6.59,6.59,0,0,1,2.91-2.43,10.66,10.66,0,0,1,4.4-.84,12,12,0,0,1,3.61.5,8.35,8.35,0,0,1,2.65,1.34,6.49,6.49,0,0,1,1.64,1.83,4.27,4.27,0,0,1,.6,2,.52.52,0,0,1-.18.41.57.57,0,0,1-.42.16h-4a.89.89,0,0,1-.45-.09.82.82,0,0,1-.26-.29,4.12,4.12,0,0,0-.56-.85,3.23,3.23,0,0,0-1-.77,3.79,3.79,0,0,0-1.67-.32,3.47,3.47,0,0,0-2.42.81,3.53,3.53,0,0,0-1,2.59c0,1.55,0,3.12,0,4.7a3.73,3.73,0,0,0,1,2.73,3.52,3.52,0,0,0,2.47.83,4.4,4.4,0,0,0,1.81-.35,2.78,2.78,0,0,0,1.26-1.09,3.54,3.54,0,0,0,.46-1.9v-.52h-2.55a.61.61,0,0,1-.49-.2.68.68,0,0,1-.19-.5v-2a.69.69,0,0,1,.19-.5.65.65,0,0,1,.49-.2h6.84a.65.65,0,0,1,.49.2.69.69,0,0,1,.19.5v3.08a7.15,7.15,0,0,1-1.06,4,6.72,6.72,0,0,1-3,2.52A10.79,10.79,0,0,1,1424,165.65Z" id="path160"></path><path class="cls-4" d="M1436.38,165.38a.65.65,0,0,1-.49-.2.66.66,0,0,1-.19-.47V147.16a.66.66,0,0,1,.19-.49.64.64,0,0,1,.49-.19h12.68a.64.64,0,0,1,.49.19.66.66,0,0,1,.19.49v2.54a.65.65,0,0,1-.19.48.64.64,0,0,1-.49.19h-8.66V154h8.07a.6.6,0,0,1,.48.21.68.68,0,0,1,.19.5v2.35a.66.66,0,0,1-.19.47.63.63,0,0,1-.48.2h-8.07v3.75h8.88a.7.7,0,0,1,.49.19.66.66,0,0,1,.19.49v2.54a.67.67,0,0,1-.68.67Z" id="path162"></path><path class="cls-4" d="M1305,192.38a.67.67,0,0,1-.68-.67V174.16a.65.65,0,0,1,.68-.68h7.61a10.21,10.21,0,0,1,3.92.69,5.63,5.63,0,0,1,2.61,2.07,6,6,0,0,1,.94,3.48,5.84,5.84,0,0,1-.94,3.43,5.51,5.51,0,0,1-2.61,2,10.85,10.85,0,0,1-3.92.64h-3.23v5.92a.64.64,0,0,1-.21.47.69.69,0,0,1-.5.2Zm4.29-10.31h3.18a2.74,2.74,0,0,0,1.86-.6,2.22,2.22,0,0,0,.7-1.8,2.57,2.57,0,0,0-.6-1.73,2.44,2.44,0,0,0-2-.71h-3.18Z" id="path164"></path><path class="cls-4" d="M1330.65,192.65a10.77,10.77,0,0,1-4.31-.79,6.15,6.15,0,0,1-2.84-2.46,8.08,8.08,0,0,1-1-4.23v-11a.69.69,0,0,1,.18-.49.66.66,0,0,1,.49-.19h3.51a.68.68,0,0,1,.5.19.64.64,0,0,1,.21.49v11a3.68,3.68,0,0,0,.84,2.63,3.67,3.67,0,0,0,4.77,0,3.63,3.63,0,0,0,.85-2.63v-11a.68.68,0,0,1,.68-.68h3.53a.68.68,0,0,1,.48.19.66.66,0,0,1,.2.49v11a8.08,8.08,0,0,1-1,4.23,6.18,6.18,0,0,1-2.83,2.46A10.55,10.55,0,0,1,1330.65,192.65Z" id="path166"></path><path class="cls-4" d="M1343,192.38a.65.65,0,0,1-.49-.2.66.66,0,0,1-.19-.47V174.16a.66.66,0,0,1,.19-.49.64.64,0,0,1,.49-.19h8.28a9.7,9.7,0,0,1,3.83.65,4.62,4.62,0,0,1,2.22,1.85,5.44,5.44,0,0,1,.72,2.85,3.71,3.71,0,0,1-.37,1.71,3.84,3.84,0,0,1-.9,1.23,4,4,0,0,1-1,.7,4.93,4.93,0,0,1,1.84,1.6,4.31,4.31,0,0,1,.8,2.59,5.67,5.67,0,0,1-.8,3.06,5.18,5.18,0,0,1-2.34,2,9.15,9.15,0,0,1-3.76.69Zm4.21-11.39h3.53a2.24,2.24,0,0,0,1.67-.58A2,2,0,0,0,1353,179a1.94,1.94,0,0,0-.56-1.42,2.32,2.32,0,0,0-1.67-.55h-3.53Zm0,7.88H1351a2.24,2.24,0,0,0,1.77-.67,2.26,2.26,0,0,0,.6-1.54,2.3,2.3,0,0,0-.61-1.6,2.32,2.32,0,0,0-1.76-.64h-3.77Z" id="path168"></path><path class="cls-4" d="M1362.16,192.38a.66.66,0,0,1-.49-.2.7.7,0,0,1-.19-.47V174.16a.7.7,0,0,1,.19-.49.66.66,0,0,1,.49-.19h3.59a.66.66,0,0,1,.49.19.7.7,0,0,1,.19.49V188.3h8.23a.64.64,0,0,1,.49.21.68.68,0,0,1,.19.5v2.7a.67.67,0,0,1-.68.67Z" id="path170"></path><path class="cls-4" d="M1378.38,192.38a.66.66,0,0,1-.49-.2.7.7,0,0,1-.19-.47V174.16a.7.7,0,0,1,.19-.49.66.66,0,0,1,.49-.19H1382a.72.72,0,0,1,.51.19.66.66,0,0,1,.2.49v17.55a.67.67,0,0,1-.2.47.73.73,0,0,1-.51.2Z" id="path172"></path><path class="cls-4" d="M1393.6,192.65a11.34,11.34,0,0,1-4.51-.77,6.42,6.42,0,0,1-2.72-2,4.68,4.68,0,0,1-1-2.65.54.54,0,0,1,.18-.39.61.61,0,0,1,.42-.17h3.42a1.08,1.08,0,0,1,.59.13,1.49,1.49,0,0,1,.36.35,3.57,3.57,0,0,0,.61.79,3,3,0,0,0,1,.6,5.86,5.86,0,0,0,4-.25,1.5,1.5,0,0,0,.81-1.32,1.25,1.25,0,0,0-.44-1,3.86,3.86,0,0,0-1.4-.69,24.49,24.49,0,0,0-2.57-.64,15.77,15.77,0,0,1-3.51-1.12,5.39,5.39,0,0,1-2.22-1.81,5.27,5.27,0,0,1,.18-5.73,6.14,6.14,0,0,1,2.62-2,11.31,11.31,0,0,1,7.29-.24,7.37,7.37,0,0,1,2.41,1.29,6.3,6.3,0,0,1,1.48,1.72,3.83,3.83,0,0,1,.53,1.77.6.6,0,0,1-.15.39.51.51,0,0,1-.42.17H1397a1.13,1.13,0,0,1-.51-.1,1.05,1.05,0,0,1-.38-.35,1.89,1.89,0,0,0-.86-1.05,3.34,3.34,0,0,0-1.81-.44,3.51,3.51,0,0,0-1.86.42,1.41,1.41,0,0,0-.66,1.28,1.39,1.39,0,0,0,.36.95,3,3,0,0,0,1.23.7,21.44,21.44,0,0,0,2.35.62,17.91,17.91,0,0,1,4,1.15,5.12,5.12,0,0,1,2.24,1.78,5.39,5.39,0,0,1-.34,5.9,6.76,6.76,0,0,1-2.89,2A11.79,11.79,0,0,1,1393.6,192.65Z" id="path174"></path><path class="cls-4" d="M1405.2,192.38a.66.66,0,0,1-.49-.19.62.62,0,0,1-.19-.48V174.16a.65.65,0,0,1,.68-.68h3.5a.72.72,0,0,1,.51.19.66.66,0,0,1,.2.49v6.5h6.68v-6.5a.7.7,0,0,1,.19-.49.66.66,0,0,1,.49-.19h3.51a.66.66,0,0,1,.49.19.7.7,0,0,1,.19.49v17.55a.7.7,0,0,1-.19.47.66.66,0,0,1-.49.2h-3.51a.66.66,0,0,1-.49-.2.7.7,0,0,1-.19-.47V185h-6.68v6.73a.67.67,0,0,1-.2.47.73.73,0,0,1-.51.2Z" id="path176"></path><path class="cls-4" d="M1425.44,192.38a.67.67,0,0,1-.68-.67V174.16a.65.65,0,0,1,.68-.68h3.64a.68.68,0,0,1,.5.19.64.64,0,0,1,.21.49v17.55a.64.64,0,0,1-.21.47.69.69,0,0,1-.5.2Z" id="path178"></path><path class="cls-4" d="M1434.24,192.38a.66.66,0,0,1-.49-.2.7.7,0,0,1-.19-.47V174.16a.7.7,0,0,1,.19-.49.66.66,0,0,1,.49-.19h2.88a1,1,0,0,1,.67.2,1.71,1.71,0,0,1,.26.32l6.63,10.36v-10.2a.69.69,0,0,1,.18-.49.66.66,0,0,1,.49-.19h3.26a.64.64,0,0,1,.49.19.66.66,0,0,1,.19.49v17.52a.69.69,0,0,1-.19.5.65.65,0,0,1-.49.2h-2.9a.85.85,0,0,1-.64-.21c-.14-.15-.22-.25-.26-.3l-6.63-10v9.83a.67.67,0,0,1-.68.67Z" id="path180"></path><path class="cls-4" d="M1461,192.65a10.56,10.56,0,0,1-4.44-.85,6.48,6.48,0,0,1-2.88-2.48,8.09,8.09,0,0,1-1.13-4c0-.78,0-1.6,0-2.48s0-1.7,0-2.49a7.65,7.65,0,0,1,1.14-3.89,6.59,6.59,0,0,1,2.91-2.43,10.66,10.66,0,0,1,4.4-.84,12,12,0,0,1,3.61.5,8.24,8.24,0,0,1,2.65,1.34,6.38,6.38,0,0,1,1.65,1.83,4.25,4.25,0,0,1,.59,2,.55.55,0,0,1-.17.41.6.6,0,0,1-.42.16h-4a.89.89,0,0,1-.45-.09.93.93,0,0,1-.26-.29,4,4,0,0,0-.55-.85,3.28,3.28,0,0,0-1-.77,3.79,3.79,0,0,0-1.67-.32,3.47,3.47,0,0,0-2.42.81,3.57,3.57,0,0,0-1,2.59c0,1.55,0,3.12,0,4.7a3.77,3.77,0,0,0,1,2.73,3.52,3.52,0,0,0,2.47.83,4.4,4.4,0,0,0,1.81-.35,2.78,2.78,0,0,0,1.26-1.09,3.54,3.54,0,0,0,.46-1.9v-.52H1462a.63.63,0,0,1-.49-.2.68.68,0,0,1-.19-.5v-2a.69.69,0,0,1,.19-.5.66.66,0,0,1,.49-.2h6.85a.68.68,0,0,1,.49.2.74.74,0,0,1,.19.5v3.08a7.24,7.24,0,0,1-1.06,4,6.75,6.75,0,0,1-3,2.52A10.79,10.79,0,0,1,1461,192.65Z" id="path182"></path></svg>