<svg xmlns="http://www.w3.org/2000/svg" id="Layer_1" data-name="Layer 1" viewBox="0 0 783.37 468.87"><defs><style>.cls-1{fill:#2e2e76;}.cls-2{fill:#0c7ff2;}.cls-3{fill:#cee0f2;}</style></defs><path class="cls-1" d="M600.24,241.58H566A10.37,10.37,0,0,0,555.63,252V420.57a10.37,10.37,0,0,1-10.38,10.37H236.51a10.37,10.37,0,0,1-10.38-10.37V252a10.37,10.37,0,0,0-10.37-10.37H181.52a10.37,10.37,0,0,1-7.33-17.71L383.55,14.52a10.38,10.38,0,0,1,14.67,0L607.57,223.87A10.37,10.37,0,0,1,600.24,241.58Z"></path><rect class="cls-2" x="284.07" y="167.43" width="227.29" height="69.93" rx="8.69"></rect><rect class="cls-2" x="284.07" y="244.92" width="227.29" height="69.93" rx="8.69"></rect><rect class="cls-2" x="284.07" y="322.4" width="227.29" height="69.93" rx="8.69"></rect><rect class="cls-1" x="377.97" y="198.42" width="115.05" height="7.94" rx="3.48"></rect><rect class="cls-1" x="377.97" y="214.64" width="115.05" height="7.94" rx="3.48"></rect><rect class="cls-1" x="377.97" y="275.91" width="115.05" height="7.94" rx="3.48"></rect><rect class="cls-1" x="377.97" y="292.13" width="115.05" height="7.94" rx="3.48"></rect><rect class="cls-1" x="377.97" y="353.39" width="115.05" height="7.94" rx="3.48"></rect><rect class="cls-1" x="377.97" y="369.62" width="115.05" height="7.94" rx="3.48"></rect><ellipse class="cls-3" cx="309.5" cy="214.64" rx="8.41" ry="8.36"></ellipse><ellipse class="cls-3" cx="329.37" cy="214.64" rx="8.41" ry="8.36"></ellipse><ellipse class="cls-3" cx="347.94" cy="214.64" rx="8.41" ry="8.36"></ellipse><ellipse class="cls-3" cx="309.5" cy="292.21" rx="8.41" ry="8.36"></ellipse><ellipse class="cls-3" cx="329.37" cy="292.21" rx="8.41" ry="8.36"></ellipse><ellipse class="cls-3" cx="347.94" cy="292.21" rx="8.41" ry="8.36"></ellipse><ellipse class="cls-3" cx="309.5" cy="369.78" rx="8.41" ry="8.36"></ellipse><ellipse class="cls-3" cx="329.37" cy="369.78" rx="8.41" ry="8.36"></ellipse><ellipse class="cls-3" cx="347.94" cy="369.78" rx="8.41" ry="8.36"></ellipse></svg>