<svg xmlns:inkscape="http://www.inkscape.org/namespaces/inkscape" xmlns:sodipodi="http://sodipodi.sourceforge.net/DTD/sodipodi-0.dtd" xmlns="http://www.w3.org/2000/svg" xmlns:svg="http://www.w3.org/2000/svg" viewBox="0 0 1001.93 911.70996" id="svg249" sodipodi:docname="CGaaS-_CI-CD Integration.svg" width="1001.93" height="911.70996" inkscape:version="1.1.1 (3bf5ae0d25, 2021-09-20)"><defs id="defs4"><style id="style2">.cls-1{isolation:isolate;}.cls-2{fill:#ebf0f5;}.cls-3{fill:#d9dee5;}.cls-4{fill:#403e42;}.cls-5{fill:#00b3e0;}.cls-10,.cls-11,.cls-12,.cls-13,.cls-14,.cls-16,.cls-17,.cls-20,.cls-21,.cls-22,.cls-23,.cls-5,.cls-7{fill-rule:evenodd;}.cls-6{fill:#343434;}.cls-19,.cls-7{fill:#d33833;}.cls-20,.cls-8{fill:#ef3d3a;}.cls-21,.cls-9{fill:#231f20;}.cls-10{fill:#f0d6b7;}.cls-11{fill:#335061;}.cls-12{fill:#6d6b6d;}.cls-13{fill:#dcd9d8;}.cls-14,.cls-15{fill:#f7e4cd;}.cls-16{fill:#49728b;}.cls-17,.cls-18{fill:#fff;}.cls-22{fill:#81b0c4;}.cls-23{fill:#1d1919;}.cls-24{fill:#2e2e76;}.cls-25{mix-blend-mode:multiply;}.cls-26{fill:#9caab8;}.cls-27{fill:#0c7ff2;}</style></defs><g class="cls-1" id="g247" transform="translate(-33.23999,-87.270004)"><g id="Layer_1" data-name="Layer 1"><circle class="cls-2" cx="534.79999" cy="551.71002" r="374.98999" id="circle6"></circle><rect class="cls-3" x="288.39999" y="822.46997" width="524.34003" height="176.50999" rx="79.639999" id="rect8"></rect><circle class="cls-3" cx="551.96997" cy="201.08" r="113.81" id="circle10"></circle><circle class="cls-3" cx="164.62" cy="543.34998" r="131.38" id="circle12"></circle><path class="cls-4" d="m 181.9,564.15 c 0.25,6.77 3.87,6.72 8.17,6.56 5.8,-0.1 9,-1.88 11.9,-0.48 -0.05,-0.16 -1,-2.88 -5,-2.41 a 8.6,8.6 0 0 0 0.52,-4.23 c -0.53,-6.76 -4.46,-12.14 -8.78,-12 -4.32,0.14 -7.07,5.76 -6.84,12.54 z m 6.43,-8.25 a 2.19,2.19 0 0 1 2.24,2.15 v 0 a 2.2,2.2 0 1 1 -2.24,-2.16 z m -65.54,16 c 0.45,0 0.92,0 1.39,0 h 1.27 c 4.32,0 7.9,0.36 7.85,-6.41 -0.05,-6.77 -3.08,-12.26 -7.4,-12.21 -4.32,0.05 -8.48,5.59 -8.24,12.36 a 10.73,10.73 0 0 0 0.76,4 c -3.76,0.95 -4.8,3.28 -4.86,3.42 2.36,-1.27 5,-1.09 9.23,-1.08 z m 3.71,-14.39 a 2.2,2.2 0 1 1 -2.14,2.27 v 0 a 2.19,2.19 0 0 1 2.13,-2.26 z m 10.14,-72.18 h 12.12 v -5 h 2.73 v 23.09 h -4.12 v 12.91 h 21.21 v -12.88 h -4.13 v -23.09 h 2.74 v 5 h 12.12 v -17.11 h -42.67 v 17.11 z" id="path14"></path><path class="cls-4" d="m 250.28,518.34 c -0.08,-1.46 -0.22,-2.92 -0.42,-4.37 -0.1,-0.73 -0.21,-1.46 -0.36,-2.18 a 21.44,21.44 0 0 0 -0.52,-2.23 l -0.15,-0.57 -0.4,-0.32 a 39.44,39.44 0 0 0 -7.32,-4.39 c -2.09,-1 -4.21,-1.84 -6.34,-2.63 -6,-16.57 -16.24,-31.26 -29.74,-41.49 a 77.58,77.58 0 0 0 -94.87,0 87.81,87.81 0 0 0 -25.34,31.2 v 0 a 98.21,98.21 0 0 0 -4.4,10.29 c -2.14,0.79 -4.26,1.65 -6.35,2.63 a 39,39 0 0 0 -7.31,4.39 l -0.41,0.32 -0.15,0.57 c -0.21,0.73 -0.39,1.48 -0.53,2.23 -0.14,0.75 -0.26,1.45 -0.35,2.18 -0.15,1 -0.25,2.1 -0.33,3.15 v 0 l -0.09,1.23 a 56.57,56.57 0 0 0 1.88,17.42 c 0.41,1.43 0.88,2.83 1.42,4.21 0.27,0.7 0.56,1.39 0.89,2.08 l 0.52,1 0.29,0.51 a 6.27,6.27 0 0 0 0.36,0.58 l 0.29,0.46 0.46,0.24 1.35,0.65 1.3,0.59 0.72,0.3 a 108.39,108.39 0 0 0 -17.93,21.38 l -7,11.09 9.87,-8.67 a 163.92,163.92 0 0 1 22.26,-15.44 l 0.2,1.59 0.5,4 2.53,20.55 a 1.42,1.42 0 0 0 0.58,1 l 5.19,3.64 c 0.09,0.29 0.17,0.58 0.26,0.88 0.09,0.3 0.23,0.81 0.36,1.23 l 1.18,3.56 A 81.11,81.11 0 0 0 103.1,613 l -0.65,0.19 c -2.69,-1.25 -12.11,-5.62 -15.28,-7 l -6.61,-3 3.91,6.11 c 0.29,0.44 7,11 12.55,18.07 5.16,6.62 12.23,13.39 25.55,13.39 a 49.33,49.33 0 0 0 5,-0.29 c 4,-0.46 7,-0.82 9.23,-1.11 a 62.51,62.51 0 0 0 44.05,-0.09 63.29,63.29 0 0 0 11,-5.44 h 0.2 c 5.44,-1.31 11.62,-2.79 14.67,-3.64 l 1.74,-0.43 c 4.25,-1 11.35,-2.63 15.13,-10.2 3.78,-7.57 10,-19.36 10.1,-19.48 l 2.92,-5.44 L 231,597 c -0.31,0.13 -7.49,3.26 -11.22,5.22 -0.12,0.07 -0.29,0.14 -0.43,0.21 a 80.64,80.64 0 0 0 5.09,-13 l 2,-8.45 5.89,-13.18 c 0,0 1.67,-14.43 1.67,-14.42 l 0.58,-5.51 c 0.52,-0.22 3.67,-0.44 4.28,-0.68 0.88,-0.35 1.76,-0.69 2.64,-1.07 l 1.29,-0.59 c 0.46,-0.21 0.86,-0.4 1.36,-0.65 l 0.46,-0.24 0.3,-0.46 c 0.16,-0.25 0.25,-0.39 0.35,-0.58 l 0.28,-0.51 a 11.06,11.06 0 0 0 0.52,-1 c 0.33,-0.69 0.63,-1.38 0.91,-2.09 0.53,-1.38 1,-2.79 1.41,-4.21 a 53.76,53.76 0 0 0 1.62,-8.65 54.6,54.6 0 0 0 0.25,-8.77 z m -134.52,35.58 a 136.29,136.29 0 0 1 14.07,-7.79 q 14.13,-1.07 28.32,-1.07 c 2.48,0 4.91,0 7.31,0.08 a 47,47 0 0 1 -5.28,3.72 l -6.11,3.7 a 53.21,53.21 0 0 0 -7.38,1.48 1.27,1.27 0 0 0 -0.32,0.13 1.4,1.4 0 0 0 -0.63,0.8 l -6.24,20.57 -33.33,7.4 -10.51,-7.35 -3.06,-24.75 c 6,-1.1 14,-2.36 23.52,-3.43 a 48.28,48.28 0 0 0 -3,3.87 l -5.71,8.18 z m 45,86.08 a 49.93,49.93 0 0 1 -16.55,-1.77 c 0.46,-0.09 0.79,-0.14 1.19,-0.19 0.4,-0.05 10.26,-1.35 14.68,-7.91 h 1.51 c 0.73,0 1.39,-0.06 2.09,-0.09 a 41.46,41.46 0 0 0 4.91,-0.71 l 0.51,0.52 a 18.71,18.71 0 0 0 12,5.5 65.7,65.7 0 0 1 -20.3,4.65 z m 0.5,-12 c 0.83,-1.84 1.45,-3.28 1.92,-4.36 q 1.77,2 3.6,3.87 c -1.08,0.16 -2.15,0.3 -3.2,0.38 -0.69,0 -1.41,0.11 -2.07,0.11 z m -16.35,-42.46 3,-0.67 a 1.38,1.38 0 0 0 1,-1 l 6.23,-20.48 a 18.31,18.31 0 0 1 5.66,0 l 6.41,21.09 a 1.38,1.38 0 0 0 1.17,1 l 2.37,0.27 0.61,0.06 40.94,4.66 a 1.4,1.4 0 0 0 0.95,-0.25 l 4.12,-2.87 3.8,-2.66 1.41,-1 c -0.23,1 -0.49,1.95 -0.75,2.91 -0.39,1.23 -0.8,2.46 -1.22,3.69 a 100.17,100.17 0 0 1 -5.62,13 q -0.9,0.06 -1.8,0.06 c -2,0 -4,-0.16 -6.25,-0.37 -3.89,-0.36 -10,-1.07 -12,-1.28 -1.69,-1.35 -7.43,-5.9 -12.2,-9.67 l -0.51,-0.42 a 5.15,5.15 0 0 0 -3.73,-1.52 c -1.76,0 -4.33,0.64 -10.54,2.52 a 7.59,7.59 0 0 0 3.26,-5.53 23.34,23.34 0 0 1 -12,5.23 c -7.4,1 -13.22,-3.6 -13.22,-3.6 a 7.9,7.9 0 0 0 2.27,4.1 55,55 0 0 0 -6.35,-0.39 c -0.8,0 -1.63,0 -2.41,0.06 -4.56,0.24 -11,7.13 -15.48,14.08 -2.22,0.7 -9.14,2.9 -17.14,5.25 a 91,91 0 0 1 -9.74,-17.45 c -1.06,-2.48 -1.65,-4.17 -1.78,-4.58 v 0 c -0.15,-0.4 -0.31,-0.83 -0.44,-1.27 l 1.92,1.35 v 0 l 4.74,3.34 1.59,1.1 a 1.4,1.4 0 0 0 0.8,0.25 h 0.31 l 40.64,-9.06 z M 170.14,555 a 1.4,1.4 0 0 0 -0.95,-0.94 50.69,50.69 0 0 0 -8.7,-1.61 l 0.8,-0.06 a 131.81,131.81 0 0 0 25.89,-6.18 351.86,351.86 0 0 1 36.06,4.57 l -3,21 -10.59,7.41 -33.3,-3.79 z m 73.09,-28.36 c -0.37,2.71 -1.6,8 -1.6,8 l -1,0.16 c -0.5,-0.14 -5.18,-1.35 -13.25,-2.84 l 0.76,-0.17 a 36.94,36.94 0 0 0 4.91,-1.58 23.78,23.78 0 0 0 2.33,-1.12 8.19,8.19 0 0 0 2,-1.56 c -8.08,2.64 -24.76,1.44 -39.59,-0.09 a 405.8,405.8 0 0 0 -40.82,-2.33 c -13.67,0 -27.25,0.94 -40.82,2.33 -14.83,1.53 -31.51,2.73 -39.59,0.09 a 8.3,8.3 0 0 0 2,1.56 23.61,23.61 0 0 0 2.44,1.08 37.07,37.07 0 0 0 4.92,1.58 c 0.59,0.13 1.19,0.27 1.79,0.37 -7.36,1.4 -11.62,2.51 -12.1,2.64 0,0 -1.69,0.27 -2.06,-1 a 46.17,46.17 0 0 1 -1.6,-7.12 58.34,58.34 0 0 1 -0.51,-8.14 c 0,-0.45 0,-1.35 0,-1.35 0,-0.91 0.07,-1.82 0.16,-2.74 0.05,-0.67 2.53,-2.84 4.66,-4.06 2.31,-1.35 4.73,-2.55 7.2,-3.68 2.47,-1.13 10.36,-2.83 15.13,-3.7 4.77,-0.87 21.84,-3.13 23.12,-3.61 1.28,-0.48 8.65,-6.18 9.94,-6.65 -2.71,0.45 -40.17,6.17 -41.86,6.7 12.17,-31.8 36,-47.28 67.8,-47.28 31.8,0 55.64,14.62 67.81,46.43 -16.07,-4.27 -38.32,-6.27 -41,-6.72 1.29,0.48 8.59,5.61 9.94,5.78 a 303.35,303.35 0 0 1 29.9,5.83 c 2.52,1 5,2.07 7.49,3.22 2.49,1.15 4.89,2.33 7.2,3.68 2.13,1.23 4.61,3.39 4.67,4.06 0.11,1.36 0.16,2.72 0.18,4.08 a 60.07,60.07 0 0 1 -0.52,8.15 z" id="path16"></path><path class="cls-5" d="m 552.81,109.45 c 50.72,0 91.42,40.7 91.42,90.84 a 91.13,91.13 0 0 1 -91.42,91.42 c -50.14,0 -90.84,-40.7 -90.84,-91.42 a 90.88,90.88 0 0 1 90.84,-90.84 z M 575.22,218 c -10,13 -28.31,15.34 -40.7,5.31 -12.39,-9.44 -14.16,-27.72 -4.13,-40.7 10.62,-12.38 28.9,-14.74 41.29,-5.31 a 28.39,28.39 0 0 1 3.54,40.7 z m -48.37,59.57 34.8,-33.62 c -13,2.95 -26.54,0.59 -37.16,-8.25 -12.38,-9.44 -17.69,-25.37 -15.92,-40.11 l -31.26,34.21 c 0,0 -4.13,-7.69 -5.31,-21.8 l 54.85,-43.06 c 16.52,-11.8 38.93,-12.39 54.86,0 17.69,14.11 21.23,40.06 8.29,59.53 l -40.1,57.21 c -5.9,0 -17.7,-1.77 -23,-4.13 z" id="path18"></path><circle class="cls-3" cx="921.35999" cy="543.71997" r="113.81" id="circle20"></circle><g id="path7"><path class="cls-6" d="m 902.43,543.67 a 17.7,17.7 0 1 1 17.7,17.69 17.71,17.71 0 0 1 -17.7,-17.69 z m 17.7,-74.45 a 74.43,74.43 0 0 0 -72.19,56 c 0,0.28 -0.14,0.42 -0.14,0.7 a 3.5,3.5 0 0 0 3.54,3.54 h 30 a 3.59,3.59 0 0 0 3.26,-2.12 v 0 a 39.07,39.07 0 1 1 0,32.55 v 0 a 3.59,3.59 0 0 0 -3.26,-2.12 h -30 a 3.51,3.51 0 0 0 -3.54,3.54 1.31,1.31 0 0 0 0.14,0.71 74.53,74.53 0 1 0 72.19,-92.85 z" id="path22"></path></g><g id="g10"><g id="g3393"><g id="g27"><path class="cls-7" d="m 421.93,911 c 0,26.32 -20.87,47.66 -46.6,47.66 -25.73,0 -46.6,-21.34 -46.6,-47.66 0,-26.32 20.86,-47.67 46.6,-47.67 25.74,0 46.6,21.34 46.6,47.67" id="path25"></path></g><g id="path24"><path class="cls-8" d="m 330.63,922.81 c 0,0 -3.37,-49.7 42.43,-51.12 l -3.2,-5.33 -24.86,8.35 -7.1,8.16 -6.21,11.9 -3.56,13.84 1.07,9.23" id="path29"></path></g><g id="path26"><path class="cls-9" d="m 343.41,878.49 a 46.66,46.66 0 0 0 -13.23,32.7 v 0 a 46.61,46.61 0 0 0 13.23,32.68 v 0 a 44.48,44.48 0 0 0 31.92,13.53 v 0 a 44.46,44.46 0 0 0 31.91,-13.53 v 0 a 46.58,46.58 0 0 0 13.24,-32.68 v 0 a 46.62,46.62 0 0 0 -13.24,-32.7 v 0 A 44.49,44.49 0 0 0 375.33,865 v 0 a 44.51,44.51 0 0 0 -31.92,13.52 z m -2.07,67.41 a 49.56,49.56 0 0 1 -14.06,-34.71 v 0 a 49.57,49.57 0 0 1 14.06,-34.72 v 0 a 47.36,47.36 0 0 1 34,-14.39 v 0 a 47.32,47.32 0 0 1 34,14.39 v 0 a 49.53,49.53 0 0 1 14.06,34.72 v 0 a 49.52,49.52 0 0 1 -14.06,34.71 v 0 a 47.36,47.36 0 0 1 -34,14.39 v 0 a 47.4,47.4 0 0 1 -34,-14.39 v 0" id="path32"></path></g><g id="path28"><path class="cls-10" d="m 394.94,911.27 -7.1,1.07 -9.58,1.06 -6.22,0.18 -6,-0.18 -4.65,-1.4 -4.08,-4.44 -3.2,-9 -0.71,-2 -4.26,-1.42 -2.48,-4.14 -1.78,-5.86 2,-5.15 4.61,-1.6 3.73,1.78 1.78,3.9 2.13,-0.35 0.71,-0.89 -0.71,-4.08 -0.18,-5.15 1.06,-7.1 v -4.06 l 3.24,-5.17 5.68,-4.09 9.94,-4.26 11,1.6 9.59,6.93 4.44,7.1 2.84,5.14 0.71,12.78 -2.13,11 -3.91,9.76 -3.72,5.15" id="path35"></path></g><g id="path30"><path class="cls-11" d="m 388.91,942 -25.39,1.07 v 4.26 l 2.13,14.91 -1.06,1.24 -17.75,-6 -1.25,-2.13 -1.77,-20 -4.08,-12.08 -0.89,-2.84 14.2,-9.76 4.44,-1.77 3.9,4.79 3.38,3 3.9,1.24 1.78,0.53 2.13,9.23 1.59,2 4.09,-1.42 -2.84,5.5 15.44,7.28 -1.95,0.95" id="path38"></path></g><g id="g43"><path class="cls-12" d="m 346.84,880 4.61,-1.6 3.73,1.78 1.78,3.9 2.13,-0.35 0.53,-2.13 -1.07,-4.09 1.07,-9.76 -0.89,-5.32 3.2,-3.73 6.92,-5.51 -2,-2.66 -9.77,4.8 -4.08,3.19 -2.31,5 -3.55,4.79 -1.01,5.69 0.71,6" id="path41"></path></g><g id="path34"><path class="cls-13" d="m 354.11,863.34 c 0,0 2.67,-6.56 13.32,-9.76 10.65,-3.2 0.53,-2.31 0.53,-2.31 l -11.54,4.44 -4.42,4.44 -2,3.55 4.08,-0.36" id="path45"></path></g><g id="path36"><path class="cls-13" d="m 348.79,878.79 c 0,0 -3.73,-12.43 10.47,-14.2 l -0.53,-2.13 -9.76,2.3 -2.84,9.24 0.71,6 2,-1.24" id="path48"></path></g><g id="g53"><path class="cls-14" d="m 354.47,895.3 2.32,-2.26 a 1.51,1.51 0 0 1 1.23,1.37 c 0.18,1.24 0.71,12.42 8.34,18.46 0.7,0.55 -5.68,-0.89 -5.68,-0.89 L 355,903.11" id="path51"></path></g><g id="path40"><path class="cls-14" d="m 387.13,891.92 c 0,0 0.42,-5.38 1.87,-5 a 2,2 0 0 1 1.44,1.86 c 0,0 -3.51,2.28 -3.31,3.1" id="path55"></path></g><g id="path42"><path class="cls-15" d="m 401.87,872.22 c 0,0 -2.93,0.62 -3.2,3.19 -0.27,2.57 3.2,0.54 3.73,0.36" id="path58"></path></g><g id="path44"><path class="cls-15" d="m 380.39,872.4 c 0,0 -3.91,0.53 -3.91,3 0,2.47 4.44,2.31 5.68,1.25" id="path61"></path></g><g id="path46"><path class="cls-14" d="m 356.24,883.93 c 0,0 -6.74,-4.08 -7.45,-0.17 -0.71,3.91 -2.31,6.74 1.06,10.83 l -2.3,-0.71 -2.13,-5.51 -0.71,-5.32 4.08,-4.26 4.61,0.35 2.67,2.13 0.17,2.66" id="path64"></path></g><g id="g69"><path class="cls-14" d="m 359.44,872.75 c 0,0 3,-15.62 18.28,-18.64 12.57,-2.48 19.18,0.54 21.66,3.38 0,0 -11.18,-13.32 -21.83,-9.24 -10.65,4.08 -18.46,11.54 -18.29,16.34 0.3,8.16 0.18,8.16 0.18,8.16" id="path67"></path></g><g id="path50"><path class="cls-14" d="m 400.62,859.26 c 0,0 -5.14,-0.18 -5.32,4.44 a 3.58,3.58 0 0 0 0.35,1.42 c 0,0 4.09,-4.62 6.57,-2.13" id="path71"></path></g><g id="path52"><path class="cls-14" d="m 378.08,865.6 c 0,0 -0.88,-7.09 -6.92,-3 -3.91,2.67 -3.55,6.39 -2.84,7.1 0.71,0.71 0.51,2.14 1.05,1.16 0.54,-0.98 0.37,-4.17 2.32,-5.06 1.95,-0.89 5.15,-1.88 6.39,-0.23" id="path74"></path></g><g id="path54"><path class="cls-16" d="M 361.39,913.58 344.71,921 c 0,0 6.92,27.52 3.37,36 l -2.49,-0.89 -0.17,-10.47 -4.62,-19.88 -1.95,-5.51 17.39,-11.71 5.15,5" id="path77"></path></g><g id="path56"><path class="cls-16" d="m 363.11,928.8 2.37,2.89 v 10.65 h -2.84 c 0,0 -0.36,-7.46 -0.36,-8.35 0,-0.89 0.36,-4.08 0.36,-4.08" id="path80"></path></g><g id="g85"><path class="cls-16" d="m 363.17,943.93 -8,0.36 2.31,1.6 5.68,0.88" id="path83"></path></g><g id="path60"><path class="cls-11" d="m 390.51,942.16 6.56,-0.18 1.6,16.33 -6.75,0.89 -1.41,-17" id="path87"></path></g><g id="path62"><path class="cls-11" d="m 392.28,942.16 9.94,-0.53 c 0,0 4.08,-10.3 4.08,-10.83 0,-0.53 3.55,-14.91 3.55,-14.91 l -8,-8.35 -1.6,-1.42 -4.25,4.26 v 16.51 l -3.73,15.27" id="path90"></path></g><g id="g95"><path class="cls-16" d="m 396.72,940.92 -6.21,1.24 0.88,5 c 2.31,1.06 6.22,-1.78 6.22,-1.78" id="path93"></path></g><g id="path66"><path class="cls-16" d="m 396.9,909.85 12.42,9.23 0.36,-4.26 -9.41,-8.7 -3.37,3.73" id="path97"></path></g><g id="path68"><path class="cls-17" d="m 369.33,977.13 -3.68,-14.91 -1.82,-11 -0.31,-8.16 16.64,-0.89 h 10.35 l -0.95,18.64 1.6,14.38 -0.18,2.66 -13.49,1.07 -8.16,-1.78" id="path100"></path></g><g id="path70"><path class="cls-13" d="m 388.2,942 c 0,0 -0.89,18.46 1.77,31.6 a 33.92,33.92 0 0 1 -13.13,4.26 l 14.91,-0.53 1.77,-1.07 -2.13,-29.11 -0.53,-6.21" id="path103"></path></g><g id="path72"><path class="cls-17" d="m 399,956.89 6.93,-1.95 13.13,-0.71 2,-6 -3.55,-10.48 -4.08,-0.53 -5.76,1.78 -5.45,2.66 -2.89,-0.53 -2.26,0.88" id="path106"></path></g><g id="g111"><path class="cls-13" d="m 398.85,953.34 c 0,0 4.61,-2.13 5.32,-2 l -1.95,-9.76 2.31,-0.89 c 0,0 1.6,9.23 1.6,10.29 0,0 9.94,0.54 10.82,0.54 a 16.18,16.18 0 0 0 1.6,-8.35 l 1.95,5.68 0.18,3.2 -2.84,4.26 -3.19,0.71 -5.33,-0.18 -1.77,-2.3 -6.22,0.88 -1.95,0.71" id="path109"></path></g><g id="path76"><path class="cls-18" d="m 391.87,940.74 -3.87,-9.94 -4.09,-5.86 c 0,0 0.89,-2.48 2.13,-2.48 h 4.09 l 3.9,1.42 -0.35,6.56 -1.78,10.3" id="path113"></path></g><g id="path78"><path class="cls-13" d="m 392.64,937.37 c 0,0 -5,-9.59 -5,-11 0,0 0.89,-2.13 2.13,-1.6 1.24,0.53 3.91,2 3.91,2 v -3.38 l -6,-1.24 -4.08,0.53 6.91,16.32 1.41,0.18" id="path116"></path></g><g id="g121"><path class="cls-18" d="M 370.93,913.94 366,913.4 361.39,912 v 1.6 l 2.26,2.49 7.1,3.19" id="path119"></path></g><g id="path82"><path class="cls-13" d="m 363,914.47 c 0,0 5.5,2.31 7.28,1.77 l 0.18,2.13 -5,-1.06 -3,-2.13 0.53,-0.71" id="path123"></path></g><g id="path84"><path class="cls-7" d="m 399,923.06 a 33.85,33.85 0 0 1 -8.11,-1.12 c 0.16,-1 -0.14,-1.93 0.1,-2.64 a 6.42,6.42 0 0 1 2.78,-0.58 4.86,4.86 0 0 0 -3.09,-0.35 5,5 0 0 0 -0.51,-1.63 c 1.69,-0.6 5.69,-4.56 7.94,-3.25 1.07,0.62 1.53,4.19 1.61,5.92 a 6,6 0 0 1 -0.72,3.65" id="path126"></path></g><g id="path86"><path class="cls-19" d="m 399.32,923.82 h -0.39 a 34.94,34.94 0 0 1 -8.3,-1.14 l -0.64,-0.19 0.11,-0.66 a 5.08,5.08 0 0 0 0,-1.17 5,5 0 0 1 0.06,-1.39 l -0.26,0.06 v -0.92 a 2.31,2.31 0 0 0 -0.26,-0.9 c -0.07,-0.16 -0.15,-0.33 -0.21,-0.51 l -0.24,-0.7 0.7,-0.25 a 12.39,12.39 0 0 0 1.9,-1.16 c 2.09,-1.42 4.7,-3.19 6.67,-2 1.63,0.95 1.94,5.61 2,6.53 0.06,0.92 0,3 -0.87,4.15 z m -7.68,-2.44 a 33.52,33.52 0 0 0 6.9,0.92 6.54,6.54 0 0 0 0.38,-2.85 c -0.13,-2.7 -0.76,-5 -1.24,-5.31 -1.15,-0.67 -3.41,0.86 -5.06,2 -0.56,0.38 -1.08,0.73 -1.53,1 0.05,0.13 0.1,0.26 0.15,0.41 a 5.59,5.59 0 0 1 2.81,0.53 l 2.31,1.13 -2.56,0.29 -0.62,0.06 a 6.2,6.2 0 0 0 -1.58,0.26 6.94,6.94 0 0 0 0,0.78 q 0.04,0.35 0.04,0.78 z" id="path129"></path></g><g id="path88"><path class="cls-7" d="m 384.55,918.14 v 0.68 c -0.94,0.62 -2.46,0.61 -3.49,1.13 a 9.27,9.27 0 0 1 3.76,0.95 c 0,0.58 -0.05,1.15 -0.07,1.73 -1.72,1.18 -3.3,2.93 -5.33,4 -1,0.52 -4.32,1.87 -5.35,1.63 -0.57,-0.13 -0.63,-0.85 -0.86,-1.53 -0.49,-1.44 -1.62,-3.75 -1.72,-5.92 -0.13,-2.75 -0.4,-7.37 2.56,-6.8 a 26.71,26.71 0 0 1 7,2.57 c 1.13,0.62 1.78,1.39 3.5,1.52" id="path132"></path></g><g id="g137"><path class="cls-19" d="m 374.31,929.08 a 2,2 0 0 1 -0.44,-0.05 c -0.88,-0.2 -1.11,-1 -1.28,-1.61 a 3,3 0 0 0 -0.12,-0.4 c -0.11,-0.34 -0.26,-0.72 -0.42,-1.14 a 16.2,16.2 0 0 1 -1.34,-5 v -0.18 c -0.11,-2.34 -0.25,-5.56 1.26,-6.87 a 2.51,2.51 0 0 1 2.2,-0.52 27.72,27.72 0 0 1 7.25,2.65 c 0.31,0.17 0.58,0.35 0.85,0.52 a 4.38,4.38 0 0 0 2.35,0.91 l 0.72,0.05 -0.07,1.77 -0.32,0.24 a 3.27,3.27 0 0 1 -0.75,0.37 c 0.31,0.12 0.63,0.26 0.93,0.41 l 0.44,0.22 -0.1,2.58 -0.31,0.21 a 24.81,24.81 0 0 0 -2,1.59 20.16,20.16 0 0 1 -3.4,2.5 c -0.64,0.34 -3.76,1.75 -5.45,1.75 z m -0.76,-14.33 a 0.85,0.85 0 0 0 -0.6,0.21 c -1,0.84 -0.83,3.86 -0.75,5.67 v 0.18 a 15.11,15.11 0 0 0 1.24,4.53 c 0.17,0.44 0.32,0.84 0.44,1.19 0.06,0.16 0.1,0.32 0.15,0.48 a 2.32,2.32 0 0 0 0.21,0.58 15.82,15.82 0 0 0 4.76,-1.59 19.82,19.82 0 0 0 3.15,-2.32 c 0.58,-0.5 1.19,-1 1.81,-1.46 v -0.86 a 8.54,8.54 0 0 0 -3,-0.67 l -2.88,-0.12 2.58,-1.3 a 7.29,7.29 0 0 1 1.79,-0.55 l 0.57,-0.13 a 7.47,7.47 0 0 1 -1.62,-0.86 c -0.24,-0.15 -0.48,-0.31 -0.75,-0.46 a 25.32,25.32 0 0 0 -6.81,-2.49 1.47,1.47 0 0 0 -0.29,-0.03 z" id="path135"></path></g><g id="path92"><path class="cls-7" d="m 386.26,921.42 a 10.49,10.49 0 0 1 -0.45,-3.23 c 4,-2.67 4.75,4.57 0.45,3.23" id="path139"></path></g><g id="path94"><path class="cls-19" d="m 387.26,922.34 a 4.25,4.25 0 0 1 -1.22,-0.2 l -0.44,-0.14 -0.08,-0.45 c -0.08,-0.46 -0.16,-0.82 -0.24,-1.13 a 6,6 0 0 1 -0.21,-2.3 v -0.36 l 0.3,-0.2 c 2,-1.32 3.22,-0.51 3.66,-0.09 a 3,3 0 0 1 0.46,3.63 2.5,2.5 0 0 1 -2.23,1.24 z m -0.35,-1.53 a 1.19,1.19 0 0 0 1.32,-0.47 1.58,1.58 0 0 0 -0.2,-1.78 c -0.41,-0.38 -1,-0.19 -1.49,0.06 a 5.13,5.13 0 0 0 0.2,1.45 c 0.06,0.22 0.11,0.46 0.17,0.74 z" id="path142"></path></g><g id="path96"><path class="cls-20" d="m 392.05,922.63 c 0,0 -1.24,-1.77 -0.36,-2.3 0.88,-0.53 1.78,0 2.31,-0.89 0.53,-0.89 0,-1.42 0.18,-2.49 0.18,-1.07 1.07,-1.24 1.95,-1.42 0.88,-0.18 3.38,-0.53 3.73,0.36 l -1.06,-3.2 -2.14,-0.71 -6.74,3.91 -0.36,2 v 3.91" id="path145"></path></g><g id="path98"><path class="cls-20" d="m 373.41,928.49 c -0.21,-2.77 -0.44,-5.53 -0.69,-8.3 -0.37,-4.13 1,-3.41 4.58,-3.41 0.54,0 3.36,0.65 3.57,1.06 1,2 -1.62,1.54 1.11,3 2.31,1.26 6.39,-0.76 5.45,-3.56 -0.52,-0.62 -2.72,-0.19 -3.5,-0.6 l -4.16,-2.16 c -1.77,-0.92 -5.85,-2.25 -7.73,-1 -4.76,3.24 0.3,11.34 2,14.72" id="path148"></path></g><g id="g153"><path class="cls-21" d="m 378.08,865.6 c -4.84,-1.13 -7.24,2 -8.71,5.29 -1.31,-0.31 -0.79,-2.1 -0.45,-3 0.86,-2.38 4.35,-5.55 7.2,-5.13 1.23,0.19 2.89,1.31 2,2.84" id="path151"></path></g><g id="path102"><path class="cls-21" d="m 401.66,871.11 h 0.22 a 51.12,51.12 0 0 0 3.42,6.68 c -0.92,2.15 -7,4.06 -6.9,0.19 1.31,-0.57 3.58,-0.11 4.75,-0.85 -0.68,-1.85 -1.65,-3.42 -1.49,-6" id="path155"></path></g><g id="path104"><path class="cls-21" d="m 380.56,871.17 c 1,1.9 1.37,3.9 2.85,5.33 0.66,0.65 1.95,1.44 1.31,3.24 a 4.16,4.16 0 0 1 -1.87,1.56 c -2.31,0.68 -7.68,0.14 -5.86,-2.74 1.91,0.09 4.47,1.24 5.9,-0.14 -1.1,-1.75 -3.05,-5.21 -2.33,-7.25" id="path158"></path></g><g id="g163"><path class="cls-21" d="m 400.79,890.5 c -3.47,2.23 -7.34,4.65 -13,4.09 a 3.86,3.86 0 0 1 -0.5,-5 c 0.62,1 0.23,3 1.94,3.29 3.23,0.55 7,-2 9.31,-2.86 1.44,-2.42 -0.13,-3.32 -1.42,-4.88 -2.66,-3.2 -6.22,-7.17 -6.09,-12 1.07,-0.77 1.17,1.19 1.32,1.55 1.39,3.24 4.88,7.39 7.42,10.17 0.63,0.68 1.66,1.34 1.77,1.79 0.33,1.32 -0.86,2.89 -0.72,3.77" id="path161"></path></g><g id="path108"><path class="cls-21" d="m 355,888.15 c -1.09,-0.62 -1.35,-3.36 -2.62,-3.44 -1.83,-0.11 -1.5,3.55 -1.49,5.69 -1.26,-1.14 -1.48,-4.65 -0.55,-6.45 -1.06,-0.52 -1.53,0.57 -2.11,0.95 0.75,-5.45 8,-2.53 6.77,3.25" id="path165"></path></g><g id="path110"><path class="cls-21" d="m 403,892.76 c -1.62,3.08 -3.9,6.47 -8.64,6.57 a 11.88,11.88 0 0 1 0,-3.11 c 3.63,-0.35 5.87,-2.19 8.64,-3.46" id="path168"></path></g><g id="path112"><path class="cls-21" d="m 380.29,894.76 c 3,1.59 8.58,1.76 12.69,1.64 a 14.51,14.51 0 0 1 0.22,3.11 c -5.28,0.26 -11.53,-1 -12.91,-4.75" id="path171"></path></g><g id="path114"><path class="cls-21" d="m 379.71,897.72 c 2.09,5.25 9.28,4.65 15.34,4.5 a 3.25,3.25 0 0 1 -1.56,1.78 c -1.95,0.79 -7.3,1.39 -10,0 -1.71,-0.91 -2.81,-3 -3.74,-4.17 -0.46,-0.58 -2.71,-2.06 0,-2.07" id="path174"></path></g><g id="g179"><path class="cls-22" d="m 400.54,926.68 a 106.42,106.42 0 0 1 -7.72,12.23 c 1.22,-3.59 1.75,-9.59 1.93,-14.17 a 4.47,4.47 0 0 1 5.79,1.94" id="path177"></path></g><g id="path118"><path class="cls-21" d="m 413.74,941.79 c -2.74,0.55 -4.68,3.22 -7.36,3.05 1.48,-2.08 4.06,-3 7.36,-3.05" id="path181"></path></g><g id="path120"><path class="cls-21" d="m 415,946.09 a 39.58,39.58 0 0 1 -7.14,0.41 c 1.08,-1.64 5.22,-1.07 7.14,-0.41" id="path184"></path></g><g id="path122"><path class="cls-21" d="m 415.73,949.8 c -2.52,0.05 -5.64,0 -8,-0.2 1.42,-1.52 6.41,-0.56 8,0.2" id="path187"></path></g><g id="path124"><path class="cls-13" d="m 395.8,959.94 c 0.36,3.16 1.62,6.36 1.46,9.83 a 10.32,10.32 0 0 1 -4.06,0.87 c -0.13,-2.94 -0.52,-7.44 -0.4,-10.24 0.91,0.06 2.27,-0.66 3,-0.46" id="path190"></path></g><g id="g195"><path class="cls-10" d="m 391.74,913.36 c -1.26,0.82 -2.34,1.85 -3.55,2.73 -2.69,0.14 -4.16,-0.18 -6.14,-1.73 0,-0.12 0.23,-0.07 0.24,-0.22 2.88,1.29 6.55,-0.52 9.45,-0.78" id="path193"></path></g><g id="path128"><path class="cls-22" d="m 376.62,933 c 0.79,-3.43 3.89,-5.21 6.71,-7.1 2.91,3.69 4.68,8.44 6.62,13 A 68.07,68.07 0 0 1 376.62,933" id="path197"></path></g><g id="path130"><path class="cls-21" d="m 392.8,960.4 c -0.12,2.8 0.27,7.3 0.4,10.24 a 10.32,10.32 0 0 0 4.06,-0.87 c 0.16,-3.47 -1.1,-6.67 -1.46,-9.83 -0.73,-0.2 -2.09,0.52 -3,0.46 z m -29,-15.95 a 147,147 0 0 0 6.2,30.81 c 7.25,2.2 16,2.39 22.4,0.41 -1.18,-5.65 -0.67,-12.53 -1.35,-18.56 -0.52,-4.53 -0.26,-9.08 -1,-13.71 -7.69,-1.61 -18.67,-0.4 -26.28,1.05 z m 28.19,-1 c -0.07,4.86 0.21,9.65 0.58,14.51 1.87,-0.28 3.13,-0.47 4.87,-0.85 -0.57,-4.68 -0.5,-9.94 -1.64,-14.08 a 11.51,11.51 0 0 0 -3.8,0.44 z m 9.45,-0.78 a 11.58,11.58 0 0 0 -2.76,0 c 0.4,4 1.36,8.32 1.7,12.48 1.33,0 2,-0.59 3.14,-0.8 0.06,-3.65 -0.32,-8.67 -2.08,-11.69 z m 14.32,13.08 c 2.77,-0.67 4.51,-4.07 3.74,-7.55 -0.5,-2.33 -1.5,-6.74 -2.5,-8.2 -0.73,-1.11 -2.72,-2.56 -4.31,-1.54 -2.58,1.65 -7.12,2.13 -9,4.13 1,3.14 1.24,7.46 1.63,11.44 3.22,0.2 7.19,-0.89 9.87,0.27 -1.87,0.6 -4.3,0.61 -5.92,1.49 1.33,0.64 4.42,0.51 6.44,0 z M 390,938.92 c -1.94,-4.58 -3.71,-9.33 -6.62,-13 -2.82,1.89 -5.92,3.67 -6.71,7.1 a 68.07,68.07 0 0 0 13.33,5.9 z m 4.8,-14.18 c -0.18,4.58 -0.71,10.58 -1.93,14.17 a 106.42,106.42 0 0 0 7.72,-12.23 4.47,4.47 0 0 0 -5.84,-1.94 z m -5.44,-1.94 c -1.1,-0.12 -2,1.27 -3.47,0.67 -0.33,0.36 -0.63,0.76 -1,1.11 3.16,3.82 4.6,9.24 7.05,13.72 1.31,-4.31 1.16,-9 1.45,-13.73 -1.81,0.11 -2.81,-1.63 -4.08,-1.77 z m -3.5,-4.61 a 10.49,10.49 0 0 0 0.45,3.23 c 4.25,1.34 3.5,-5.9 -0.5,-3.23 z m -4.76,-1.57 a 26.71,26.71 0 0 0 -7,-2.57 c -3,-0.57 -2.69,4.05 -2.56,6.8 0.1,2.17 1.23,4.48 1.72,5.92 0.23,0.68 0.29,1.4 0.86,1.53 1,0.24 4.39,-1.11 5.35,-1.63 2,-1.11 3.61,-2.86 5.33,-4 0,-0.58 0,-1.15 0.07,-1.73 A 9.27,9.27 0 0 0 381,920 c 1,-0.52 2.55,-0.51 3.49,-1.13 v -0.68 c -1.66,-0.19 -2.31,-0.95 -3.44,-1.57 z m -17.69,-3.21 c -1.54,1.56 4.31,3.69 6.17,3.8 0,-1 0.56,-1.92 0.45,-2.63 -2.26,-0.38 -5.17,-0.13 -6.67,-1.17 z m 18.93,0.73 c 0,0.15 -0.2,0.1 -0.24,0.22 2,1.55 3.45,1.87 6.14,1.73 1.21,-0.88 2.29,-1.91 3.55,-2.73 -2.95,0.26 -6.62,2.07 -9.5,0.78 z m 17.38,5.27 c -0.08,-1.73 -0.54,-5.3 -1.61,-5.92 -2.25,-1.31 -6.25,2.65 -7.94,3.25 a 5,5 0 0 1 0.51,1.63 4.86,4.86 0 0 1 3.09,0.35 6.42,6.42 0 0 0 -2.78,0.58 c -0.24,0.71 0.06,1.67 -0.1,2.64 a 33.85,33.85 0 0 0 8.11,1.12 6,6 0 0 0 0.67,-3.65 z m -38.9,-4.49 c -0.48,-0.35 -3.75,-4.59 -4.19,-4.42 -5.91,2.33 -11.43,6.36 -16.37,10.17 4.71,10.1 6.61,22.47 6.94,34.4 5.39,2.52 10.13,6.16 17.44,6.54 -0.84,-6 -1.61,-11.34 -2.1,-17 -1.83,-0.77 -4.47,0 -6.19,-0.24 0,-2.07 2.63,-0.91 2.85,-2.3 0.16,-1.06 -1.46,-1.14 -0.93,-2.8 1.34,0.49 2,1.57 3.49,2 1.31,-2.87 0,-7.94 0.17,-10.34 0,-0.45 0.22,-2.49 1.23,-2.13 1.01,0.36 -0.05,5.43 0.05,7.7 0.08,2.09 -0.26,4.11 0.59,5.42 a 202.59,202.59 0 0 1 21.9,-1.79 53.67,53.67 0 0 1 -5.87,-2.64 c -1.19,-0.67 -4.94,-2.07 -5.28,-3.2 -0.55,-1.79 1.44,-2.75 1.78,-4.29 -3.57,1.94 -4.27,-1.87 -5.11,-4.57 a 35.33,35.33 0 0 1 -1.39,-5.68 62.33,62.33 0 0 1 -9,-4.83 z m 35.78,-3.9 c 4.92,-2.39 5.81,8.92 3.88,12.56 0.3,1.09 1.32,1.5 1.74,2.48 -2.75,4.92 -5.8,9.51 -8.6,14.37 2.08,-1.29 5.06,-0.23 7.52,-1.2 0.89,-0.35 1.54,-2.41 2.22,-4.05 a 87.47,87.47 0 0 0 4.7,-14.53 18.2,18.2 0 0 0 0.62,-4 c -0.22,-1.57 -2.34,-2.73 -3.42,-3.7 -2,-1.79 -3.25,-3.36 -5.32,-5 -0.85,1.24 -2.65,2.08 -3.34,3.09 z m -47,-43.66 c -2.35,2.59 -1.86,7.42 -1.58,10.86 4.24,-2.67 9.87,0.21 9.82,4.75 2,-0.06 0.75,-2.53 0.39,-4.12 -1.2,-5.21 2,-10.87 0.14,-15.63 a 12.87,12.87 0 0 0 -8.77,4.14 z m 16.78,-15 c -5.31,1.5 -12.12,5.36 -14.3,10.13 1.69,-0.25 2.86,-1.1 4.53,-1.2 a 11.06,11.06 0 0 0 2.18,0.08 c 1.44,-0.36 2.66,-3.59 3.75,-4.8 1.09,-1.21 2.33,-1.67 3.21,-2.74 0.56,-0.27 1.39,-0.26 1.42,-1.1 -0.33,-0.23 -0.58,-0.43 -0.87,-0.34 z m 27.64,1.41 c -5.51,-3.11 -14.84,-5.45 -20.7,-2.52 -4.73,2.35 -11.13,6.26 -13.31,11.2 2,4.77 -0.6,9.15 -0.77,14 -0.09,2.58 1.21,4.83 1.31,7.64 -0.69,1.15 -2.82,1.29 -4.3,1.21 -0.49,-2.48 -1.36,-5.27 -3.92,-5.55 a 5.93,5.93 0 0 0 -6.43,5.72 c -0.19,3.68 2.83,9.78 7.11,9.36 1.66,-0.17 2.06,-1.82 3.86,-1.81 1,2 -1.5,2.56 -1.76,4 a 11.52,11.52 0 0 0 0.37,2.42 32.94,32.94 0 0 0 4.21,9.82 c 2.17,3.1 6.42,3.57 11,3.88 0.82,-1.77 3.83,-1.62 5.79,-1.16 -2.35,-0.93 -4.54,-3.19 -6.35,-5.19 -2.08,-2.29 -4.19,-4.75 -4.29,-7.75 3.93,5.46 7.18,10.22 14.33,12.62 5.41,1.82 11.73,-0.83 15.89,-3.75 1.73,-1.21 2.76,-3.14 4,-4.9 4.59,-6.6 6.73,-16 6.26,-25.15 -0.19,-3.77 -0.18,-7.52 -1.45,-10.06 -1.27,-2.54 -5.79,-5 -8.4,-2.62 -0.48,-2.58 2.17,-4.17 5.3,-3.24 -2.23,-2.88 -4.57,-6.33 -7.73,-8.12 z m 10.27,85 c 4.3,-2.14 12.35,-5.76 15.05,0 a 48.82,48.82 0 0 1 2.68,7.91 c 0.73,3.1 -0.79,9.61 -4,10.65 a 18.92,18.92 0 0 1 -9.49,0.18 5.3,5.3 0 0 1 -1.15,-1.51 13,13 0 0 0 -6.59,1.13 c 0.18,1.78 -1,2.07 -2.17,2.44 -0.84,3.33 1.69,7.69 1.08,10.73 -0.43,2.16 -3.09,2.5 -5,2.9 a 15.72,15.72 0 0 0 0.22,3.23 c -0.45,1.65 -2.46,2.59 -4.36,2.82 -6.26,0.75 -15.77,1.09 -21.8,-1.07 -1.68,-4.13 -3,-9.14 -4.4,-13.85 -5.88,0.63 -10.63,-2.53 -15.11,-4.61 -1.55,-0.71 -3.69,-1.11 -4.27,-2.35 -0.58,-1.24 -0.33,-3.48 -0.47,-5.64 -0.36,-5.53 -0.66,-10.86 -2.12,-16.52 -0.66,-2.54 -1.8,-4.78 -2.59,-7.22 -0.74,-2.27 -2,-5.07 -2.36,-7.34 -0.5,-3.35 2.65,-3.53 4.67,-5 3.12,-2.24 5.57,-3.48 8.95,-5.51 1,-0.6 4,-2.12 4.36,-2.82 0.68,-1.39 -1.17,-3.34 -1.67,-4.43 a 13.35,13.35 0 0 1 -1.3,-4.88 9.41,9.41 0 0 1 -6.28,-4 c -2.15,-3.15 -3.64,-9 -1.78,-13.4 0.15,-0.35 0.87,-1 1,-1.57 0.21,-1.06 -0.4,-2.46 -0.44,-3.58 -0.19,-5.76 1,-10.72 4.85,-12.46 1.58,-6.26 7.21,-8.35 12.51,-11.46 a 39,39 0 0 1 6.43,-2.74 c 8.1,-3 20.53,-2.42 27.25,2.66 2.85,2.16 7.4,6.71 9,10 4.31,8.7 4,23.24 1,33.82 a 33.66,33.66 0 0 1 -1.81,5.22 c -0.57,1.19 -2.35,3.57 -2.13,4.62 0.22,1.05 4.05,4 4.87,4.79 1.48,1.43 4.28,3.32 4.51,5.12 0.23,1.8 -0.84,4.53 -1.39,6.38 -1.85,6.16 -3.65,11.86 -5.73,17.36" id="path200"></path></g><g id="g205"><path class="cls-14" d="m 375.47,896.1 c 0.24,-0.31 1.52,-0.78 3.32,0.08 0,0 -2.13,0.36 -2,3.91 l -0.89,-0.18 c 0,0 -0.92,-3.22 -0.48,-3.81" id="path203"></path></g><g id="path134"><path class="cls-23" d="m 391,926.63 a 1,1 0 1 1 -1,-1 1,1 0 0 1 1,1" id="path207"></path></g><g id="path136"><path class="cls-23" d="m 392,931.15 a 1,1 0 1 1 -1,-1 1,1 0 0 1 1,1" id="path210"></path></g></g><g id="text5675" class="cls-1"><g class="cls-1" id="g228"><path d="m 494.34,891.44 c -1,0.13 -1.85,0.25 -2.55,0.38 -0.7,0.13 -1.49,0.3 -2.36,0.52 a 2.72,2.72 0 0 0 -2,1.46 6.42,6.42 0 0 0 -0.43,2.4 v 29.3 a 16.78,16.78 0 0 1 -1.63,7.42 16,16 0 0 1 -4.47,5.66 20.59,20.59 0 0 1 -6.44,3.39 24.78,24.78 0 0 1 -7.6,1.14 q -7,0 -11.29,-3.37 a 11.1,11.1 0 0 1 -4.29,-9.24 8.52,8.52 0 0 1 2,-5.77 6.76,6.76 0 0 1 5.41,-2.28 7,7 0 0 1 5.18,1.91 6.34,6.34 0 0 1 1.93,4.71 6.87,6.87 0 0 1 -1.66,4.44 26,26 0 0 1 -3.8,3.76 v 0.49 a 2.76,2.76 0 0 0 1.46,1.24 5.36,5.36 0 0 0 2.29,0.53 8.58,8.58 0 0 0 7.08,-3.23 q 2.56,-3.21 2.57,-9.74 v -30 a 5.47,5.47 0 0 0 -0.41,-2.24 3.64,3.64 0 0 0 -2,-1.58 14.49,14.49 0 0 0 -2.72,-0.82 c -1.07,-0.23 -2,-0.39 -2.66,-0.49 v -2.92 h 28.39 z" id="path214"></path><path d="m 538.74,932.7 a 22.14,22.14 0 0 1 -3.16,4 19.42,19.42 0 0 1 -4.21,3.24 22.89,22.89 0 0 1 -5.08,2.15 21.42,21.42 0 0 1 -5.89,0.73 26.22,26.22 0 0 1 -9.57,-1.57 18.89,18.89 0 0 1 -6.65,-4.23 17,17 0 0 1 -3.91,-6.27 23.21,23.21 0 0 1 -1.29,-7.85 19.63,19.63 0 0 1 5.39,-13.55 19.21,19.21 0 0 1 6.42,-4.31 21.93,21.93 0 0 1 8.67,-1.65 24.62,24.62 0 0 1 8.61,1.28 15.18,15.18 0 0 1 5.58,3.52 12.8,12.8 0 0 1 3.11,5 19,19 0 0 1 1,6.09 v 2.43 h -25.34 q 0,7.68 3,11.68 3,4 9.4,4 a 10.87,10.87 0 0 0 6.32,-1.93 18,18 0 0 0 4.8,-4.88 z m -14.3,-14.22 c 0,-1.5 -0.08,-3 -0.22,-4.61 a 15.6,15.6 0 0 0 -0.79,-3.86 6,6 0 0 0 -1.74,-2.65 4.29,4.29 0 0 0 -2.79,-0.9 5.19,5.19 0 0 0 -4.61,2.92 c -1.15,1.94 -1.77,5 -1.87,9.25 z" id="path216"></path><path d="m 591.76,941.65 h -22.5 v -2.73 l 1.72,-0.19 a 4.74,4.74 0 0 0 1.54,-0.37 2.38,2.38 0 0 0 1.12,-1.2 6,6 0 0 0 0.34,-2.32 v -17.52 a 9.69,9.69 0 0 0 -1.41,-5.75 4.8,4.8 0 0 0 -4.15,-1.93 8.52,8.52 0 0 0 -2.8,0.45 10.35,10.35 0 0 0 -2.53,1.31 8.75,8.75 0 0 0 -1.75,1.53 c -0.43,0.53 -0.8,1 -1.1,1.39 v 20.11 a 5.63,5.63 0 0 0 0.37,2.19 2.63,2.63 0 0 0 1.24,1.33 7.66,7.66 0 0 0 1.49,0.6 11.77,11.77 0 0 0 1.76,0.37 v 2.73 h -22.76 v -2.73 q 0.93,-0.07 1.89,-0.21 a 8.52,8.52 0 0 0 1.63,-0.35 2.79,2.79 0 0 0 1.65,-1.27 5,5 0 0 0 0.44,-2.25 v -21.79 a 4.91,4.91 0 0 0 -0.59,-2.29 5.3,5.3 0 0 0 -1.58,-1.83 6.11,6.11 0 0 0 -1.7,-0.75 11.62,11.62 0 0 0 -2.27,-0.41 V 905 l 17.86,-1 0.57,0.56 v 5.43 h 0.15 l 2.54,-2.25 a 25,25 0 0 1 2.77,-2.13 13.47,13.47 0 0 1 3.63,-1.53 17.34,17.34 0 0 1 4.8,-0.64 q 6.11,0 9.15,3.46 3.04,3.46 3.05,9.2 v 18.4 a 4.89,4.89 0 0 0 0.42,2.21 2.85,2.85 0 0 0 1.53,1.31 12.78,12.78 0 0 0 1.48,0.53 10.82,10.82 0 0 0 2,0.37 z" id="path218"></path><path d="m 643.29,941.65 h -17.65 q -3.25,-5.71 -5.95,-9.69 -2.7,-3.98 -5.09,-7.37 l -2.21,1.86 v 8.17 a 5.34,5.34 0 0 0 0.4,2.2 2.51,2.51 0 0 0 1.51,1.28 9.76,9.76 0 0 0 1.58,0.52 11.34,11.34 0 0 0 1.79,0.3 v 2.73 h -23.25 v -2.73 q 0.95,-0.07 1.89,-0.21 a 9.84,9.84 0 0 0 1.66,-0.35 2.73,2.73 0 0 0 1.64,-1.27 5.18,5.18 0 0 0 0.43,-2.25 v -41.75 a 6.86,6.86 0 0 0 -0.54,-2.57 4.25,4.25 0 0 0 -1.6,-2 6.62,6.62 0 0 0 -2.13,-0.75 18.38,18.38 0 0 0 -2.58,-0.37 v -2.74 l 18.64,-1 0.56,0.6 v 38.64 c 1.85,-1.65 3.92,-3.56 6.23,-5.73 2.31,-2.17 4.16,-4 5.55,-5.39 a 4.88,4.88 0 0 0 1.37,-1.93 5.5,5.5 0 0 0 0.13,-0.8 c 0,-0.45 -0.39,-0.83 -1.18,-1.13 a 18.07,18.07 0 0 0 -3.56,-0.78 v -2.66 h 19 v 2.58 a 39.6,39.6 0 0 0 -5.7,2 34.18,34.18 0 0 0 -4.28,2.45 c -1,0.68 -2,1.38 -3,2.12 -1,0.74 -2.06,1.66 -3.3,2.76 q 3.66,5.31 6.76,9.84 3.1,4.53 6.51,9.58 a 5.62,5.62 0 0 0 2.88,2.36 14,14 0 0 0 3.44,0.75 z" id="path220"></path><path d="M 667.36,941.65 H 643.7 v -2.73 c 0.65,0 1.28,-0.11 1.91,-0.19 a 6.71,6.71 0 0 0 1.61,-0.37 3.08,3.08 0 0 0 1.68,-1.29 4.39,4.39 0 0 0 0.49,-2.23 v -21.79 a 4.39,4.39 0 0 0 -0.6,-2.31 5,5 0 0 0 -1.5,-1.59 8.16,8.16 0 0 0 -2,-0.86 13.21,13.21 0 0 0 -2.49,-0.52 V 905 l 18.35,-1 0.56,0.56 v 29.73 a 4.22,4.22 0 0 0 0.56,2.23 3.44,3.44 0 0 0 1.61,1.37 14.31,14.31 0 0 0 1.65,0.6 11.25,11.25 0 0 0 1.87,0.37 z m -5.46,-51.07 a 6.34,6.34 0 0 1 -2.19,4.85 7.77,7.77 0 0 1 -10.41,0 6.49,6.49 0 0 1 0,-9.72 7.47,7.47 0 0 1 5.22,-2 7.38,7.38 0 0 1 5.2,2 6.42,6.42 0 0 1 2.18,4.87 z" id="path222"></path><path d="m 720.23,941.65 h -22.5 v -2.73 l 1.72,-0.19 a 4.74,4.74 0 0 0 1.54,-0.37 2.38,2.38 0 0 0 1.12,-1.2 6.23,6.23 0 0 0 0.34,-2.32 v -17.52 a 9.69,9.69 0 0 0 -1.41,-5.75 4.8,4.8 0 0 0 -4.15,-1.93 8.52,8.52 0 0 0 -2.8,0.45 10.18,10.18 0 0 0 -2.53,1.31 8.75,8.75 0 0 0 -1.75,1.53 c -0.44,0.53 -0.8,1 -1.1,1.39 v 20.11 a 5.63,5.63 0 0 0 0.37,2.19 2.63,2.63 0 0 0 1.24,1.33 7.41,7.41 0 0 0 1.49,0.6 11.77,11.77 0 0 0 1.76,0.37 v 2.73 h -22.76 v -2.73 q 0.93,-0.07 1.89,-0.21 a 8.7,8.7 0 0 0 1.63,-0.35 2.76,2.76 0 0 0 1.64,-1.27 4.89,4.89 0 0 0 0.45,-2.25 v -21.79 a 4.81,4.81 0 0 0 -0.6,-2.29 5.28,5.28 0 0 0 -1.57,-1.83 6.25,6.25 0 0 0 -1.7,-0.75 11.62,11.62 0 0 0 -2.27,-0.41 V 905 l 17.86,-1 0.57,0.56 v 5.43 h 0.15 l 2.54,-2.25 a 25,25 0 0 1 2.77,-2.13 13.47,13.47 0 0 1 3.63,-1.53 17.34,17.34 0 0 1 4.8,-0.64 q 6.1,0 9.15,3.46 3.05,3.46 3,9.2 v 18.4 a 4.89,4.89 0 0 0 0.42,2.21 2.85,2.85 0 0 0 1.53,1.31 12.78,12.78 0 0 0 1.48,0.53 10.82,10.82 0 0 0 2,0.37 z" id="path224"></path><path d="m 741.05,942.93 a 23.94,23.94 0 0 1 -7.09,-1.07 23.28,23.28 0 0 1 -5.38,-2.27 l -1.12,2.55 h -2.92 l -0.49,-14 h 2.74 a 17.61,17.61 0 0 0 1.87,3.8 20.88,20.88 0 0 0 3,3.81 17.1,17.1 0 0 0 4,2.84 10.42,10.42 0 0 0 4.85,1.16 8,8 0 0 0 5.07,-1.33 4.92,4.92 0 0 0 1.67,-4.1 3.93,3.93 0 0 0 -0.75,-2.47 6.36,6.36 0 0 0 -2.06,-1.68 18.9,18.9 0 0 0 -3.2,-1.28 L 737,927.65 a 39.26,39.26 0 0 1 -4.36,-1.52 14.68,14.68 0 0 1 -3.76,-2.41 10.56,10.56 0 0 1 -3.71,-8.43 10.1,10.1 0 0 1 4.44,-8.53 q 4.42,-3.27 11.62,-3.26 a 26.76,26.76 0 0 1 6.27,0.69 30.94,30.94 0 0 1 4.81,1.52 l 0.79,-2.21 h 2.85 l 0.6,12.77 h -2.65 a 15.5,15.5 0 0 0 -4.5,-6.72 10.11,10.11 0 0 0 -6.85,-2.83 7.57,7.57 0 0 0 -4.53,1.2 3.89,3.89 0 0 0 -1.65,3.33 4.31,4.31 0 0 0 2.41,4.12 31.81,31.81 0 0 0 6.75,2.39 q 6.69,1.72 9.79,4.7 a 10.08,10.08 0 0 1 3.11,7.59 11,11 0 0 1 -4.82,9.51 q -4.8,3.36 -12.56,3.37 z" id="path226"></path></g></g></g><path class="cls-24" d="m 704.91,452.6 -8.41,-2.78 a 5.3,5.3 0 0 1 -3.31,-3.13 l -8.7,-22.26 a 5.29,5.29 0 0 1 0.32,-4.56 l 4.36,-7.75 a 5.34,5.34 0 0 0 -1.31,-6.79 l -6.25,-5.05 a 5.33,5.33 0 0 0 -6.89,0.15 l -6.57,5.79 a 5.35,5.35 0 0 1 -4.35,1.27 l -23.66,-3.61 a 5.36,5.36 0 0 1 -3.82,-2.58 l -4.54,-7.77 a 5.35,5.35 0 0 0 -6.51,-2.3 l -7.52,2.84 a 5.34,5.34 0 0 0 -3.36,6 l 1.66,8.47 A 5.38,5.38 0 0 1 615,413 l -15.67,19.56 a 5.39,5.39 0 0 1 -4.08,2 l -8.82,0.15 a 5.34,5.34 0 0 0 -5.19,4.54 l -1.2,8 a 5.32,5.32 0 0 0 3.61,5.86 l 8.42,2.78 a 5.33,5.33 0 0 1 3.3,3.13 l 3.66,9.36 5,12.9 a 5.35,5.35 0 0 1 -0.31,4.57 l -4.36,7.75 a 5.36,5.36 0 0 0 1.3,6.79 l 6.25,5.05 a 5.33,5.33 0 0 0 6.9,-0.16 l 6.57,-5.78 a 5.35,5.35 0 0 1 4.34,-1.28 l 22.09,3.37 1.58,0.24 a 5.33,5.33 0 0 1 3.8,2.59 l 4.55,7.76 a 5.36,5.36 0 0 0 6.5,2.32 l 7.53,-2.85 a 5.35,5.35 0 0 0 3.36,-6 l -1.67,-8.47 a 5.37,5.37 0 0 1 1.08,-4.37 l 15.67,-19.56 a 5.3,5.3 0 0 1 4.08,-2 l 8.82,-0.17 a 5.34,5.34 0 0 0 5.2,-4.54 l 1.19,-7.94 a 5.34,5.34 0 0 0 -3.59,-6 z m -38.8,3.11 A 22,22 0 1 1 648,431.1 a 22,22 0 0 1 18.11,24.61 z" id="path232"></path><path class="cls-24" d="m 596.47,417.41 -6.34,-2.64 a 4.14,4.14 0 0 1 -2.38,-2.61 l -5.43,-17.74 a 4.11,4.11 0 0 1 0.52,-3.51 l 3.82,-5.75 a 4.14,4.14 0 0 0 -0.61,-5.33 l -4.54,-4.27 a 4.16,4.16 0 0 0 -5.35,-0.29 l -5.42,4.1 a 4.13,4.13 0 0 1 -3.43,0.73 l -18.1,-4.18 a 4.16,4.16 0 0 1 -2.8,-2.22 l -3.06,-6.28 a 4.15,4.15 0 0 0 -4.9,-2.16 l -6,1.75 a 4.15,4.15 0 0 0 -3,4.47 l 0.79,6.65 a 4.18,4.18 0 0 1 -1.08,3.33 l -13.28,14.22 a 4.15,4.15 0 0 1 -3.27,1.31 l -6.83,-0.4 a 4.15,4.15 0 0 0 -4.29,3.21 l -1.39,6.07 a 4.13,4.13 0 0 0 2.45,4.76 l 6.35,2.64 a 4.12,4.12 0 0 1 2.37,2.62 l 4.61,15 0.83,2.71 a 4.18,4.18 0 0 1 -0.52,3.52 l -3.82,5.74 a 4.14,4.14 0 0 0 0.6,5.32 l 4.54,4.28 a 4.14,4.14 0 0 0 5.35,0.28 l 5.43,-4.09 a 4.15,4.15 0 0 1 3.43,-0.73 l 18.1,4.18 a 4.14,4.14 0 0 1 2.79,2.23 l 3.07,6.27 a 4.13,4.13 0 0 0 4.89,2.16 l 6,-1.75 a 3.66,3.66 0 0 0 0.79,-0.33 4.14,4.14 0 0 0 2.17,-4.15 l -0.8,-6.64 a 4.2,4.2 0 0 1 1.09,-3.33 l 13.28,-14.21 a 4.09,4.09 0 0 1 3.27,-1.31 l 6.83,0.39 a 4.16,4.16 0 0 0 4.29,-3.21 l 1.39,-6.07 a 4.14,4.14 0 0 0 -2.41,-4.74 z m -63.65,-6.92 a 17.09,17.09 0 1 1 12.56,20.11 17.09,17.09 0 0 1 -12.56,-20.11 z" id="path234"></path><g class="cls-25" id="g240"><path class="cls-26" d="m 566.73,459.85 c 0.22,0.29 0.44,0.58 0.68,0.85 a 3.66,3.66 0 0 1 -0.79,0.33 l -6,1.75 a 4.13,4.13 0 0 1 -4.89,-2.16 l -3.07,-6.27 a 4.14,4.14 0 0 0 -2.79,-2.23 l -18.1,-4.18 a 4.15,4.15 0 0 0 -3.43,0.73 l -5.43,4.09 a 4.14,4.14 0 0 1 -5.35,-0.28 L 513,448.2 a 4.14,4.14 0 0 1 -0.6,-5.32 l 3.82,-5.74 a 4.18,4.18 0 0 0 0.52,-3.52 l -0.83,-2.71 c 19.5,2.56 37.89,11.8 50.82,28.94 z" id="path236"></path><path class="cls-26" d="m 646.84,501.5 -22.09,-3.37 a 5.35,5.35 0 0 0 -4.34,1.28 l -6.57,5.78 a 5.33,5.33 0 0 1 -6.9,0.16 l -6.25,-5.05 a 5.36,5.36 0 0 1 -1.3,-6.79 l 4.36,-7.75 a 5.35,5.35 0 0 0 0.31,-4.57 l -5,-12.9 c 12.59,-0.71 24.89,4.39 34.16,12.81 0.53,0.48 1,1 1.53,1.46 0.53,0.46 0.73,0.73 1.1,1.11 0.16,0.17 0.32,0.33 0.48,0.51 l 1.17,1.29 a 1.73,1.73 0 0 0 0.15,0.19 c 0.45,0.51 0.89,1 1.32,1.58 0.43,0.58 0.88,1.14 1.3,1.71 0.42,0.57 0.82,1.17 1.21,1.73 0.39,0.56 0.78,1.19 1.13,1.78 0.35,0.59 0.73,1.21 1.06,1.82 a 48,48 0 0 1 3.17,7.22 z" id="path238"></path></g><path class="cls-27" d="m 679.92,618.28 a 65.66,65.66 0 0 1 -2.81,7.79 c -5.64,13.13 -15.43,24.29 -28.88,30.3 a 52.72,52.72 0 0 1 -7.39,2.68 57.93,57.93 0 0 1 -13.55,2.06 c -1.48,0 -3,0 -4.52,0 L 620.9,661 v 0.09 H 447.44 c -21.07,0.7 -38,-7.73 -49.78,-20.75 -0.25,-0.28 -0.51,-0.57 -0.76,-0.87 -0.25,-0.3 -0.57,-0.65 -0.84,-1 -1.22,-1.42 -2.36,-2.91 -3.43,-4.43 -0.38,-0.52 -0.74,-1 -1.09,-1.57 -0.79,-1.15 -1.53,-2.33 -2.23,-3.51 -0.35,-0.59 -0.68,-1.17 -1,-1.76 -0.09,-0.17 -0.2,-0.33 -0.29,-0.51 -0.22,-0.43 -0.45,-0.84 -0.68,-1.27 -0.31,-0.6 -0.62,-1.2 -0.9,-1.81 -0.28,-0.61 -0.52,-1 -0.76,-1.57 a 76.61,76.61 0 0 1 -3.72,-9.76 c -8.4,-27.34 -2,-59.44 23,-77.34 a 25.76,25.76 0 0 0 7.9,-9 24.79,24.79 0 0 0 2.84,-11.61 c -0.22,-37.76 26.15,-64.71 58,-75 31.85,-10.29 69.3,-3.86 91.15,25.1 A 25.85,25.85 0 0 0 576,473 a 22.85,22.85 0 0 0 13.82,1 c 15,-3.63 30.42,1.68 41.48,11.74 0.53,0.48 1,1 1.53,1.46 0.53,0.46 0.73,0.73 1.09,1.11 0.17,0.17 0.33,0.33 0.49,0.51 l 1.17,1.28 a 0.83,0.83 0 0 0 0.15,0.19 c 0.45,0.52 0.89,1.05 1.31,1.58 0.42,0.53 0.89,1.15 1.31,1.72 0.42,0.57 0.82,1.16 1.21,1.73 0.39,0.57 0.78,1.18 1.13,1.78 0.35,0.6 0.73,1.2 1,1.82 a 43,43 0 0 1 5.2,27 20.22,20.22 0 0 0 -0.21,3.46 22.72,22.72 0 0 0 2.54,10 27.35,27.35 0 0 0 6.91,8.58 27.86,27.86 0 0 0 2.37,1.8 c 14.81,10.12 22.53,26.21 23.94,43 a 70,70 0 0 1 -2.52,25.52 z" id="path242"></path><path class="cls-18" d="m 648.55,591.16 a 20.14,20.14 0 0 0 -14.29,-5.92 20.43,20.43 0 0 0 -3.34,0.28 l -8.55,-22.18 -8.48,-22 a 20.21,20.21 0 1 0 -28.1,-24.93 l -36.91,-5.83 -29.38,-4.64 c 0.09,-0.94 0.15,-1.9 0.15,-2.87 a 27.62,27.62 0 1 0 -43.79,22.37 L 464,548.92 451.51,573.65 a 26.08,26.08 0 1 0 15.25,31.45 q 11.31,0.87 22.62,1.54 24.15,1.44 48.32,1.94 c 8.06,0.16 16.12,0.28 24.17,0.27 8.05,-0.01 16.11,-0.14 24.16,-0.49 l 24.14,-0.73 4,-0.12 a 20.21,20.21 0 1 0 34.4,-16.35 z M 469.75,552 482.56,529 a 27.62,27.62 0 0 0 36.23,-19.09 l 29.21,5.85 36.65,7.35 a 0.92,0.92 0 0 0 0,0.16 20.1,20.1 0 0 0 1.22,6.92 q -30,17.67 -61.56,32.52 -28.77,13.53 -58.66,24.6 a 26,26 0 0 0 -5.42,-7.93 26.37,26.37 0 0 0 -3.91,-3.22 z m 140.38,51.85 -24.08,-0.18 c -8,0 -16,-0.12 -24,-0.42 -8,-0.3 -16,-0.71 -24,-1.17 q -24,-1.41 -47.93,-3.73 -10.91,-1.05 -21.78,-2.31 a 0.2,0.2 0 0 1 -0.18,-0.16 l -1,-4.2 q 30.3,-10.49 59.66,-23.52 32.14,-14.28 62.89,-31.53 c 0.29,0.33 0.58,0.65 0.89,1 a 20.14,20.14 0 0 0 14.29,5.92 h 4.38 a 0.32,0.32 0 0 1 0.31,0.22 l 7.19,21.68 7.49,22.56 a 20.29,20.29 0 0 0 -4.2,3.22 20.07,20.07 0 0 0 -5.85,12.69 z" id="path244"></path></g></g></svg>