<svg xmlns="http://www.w3.org/2000/svg" viewBox="0 0 931.39 747.16"><defs><style>.cls-1{isolation:isolate;}.cls-2,.cls-5{fill:#9caab8;mix-blend-mode:multiply;}.cls-2{opacity:0.13;}.cls-3{fill:none;}.cls-4{fill:#cee0f2;}.cls-5{opacity:0.48;}.cls-6{fill:#2e2e76;}.cls-7{fill:#0c7ff2;}.cls-8{fill:#f8fafc;}</style></defs><g class="cls-1"><g id="Layer_2" data-name="Layer 2"><g id="Layer_1-2" data-name="Layer 1"><rect class="cls-2" x="38.63" y="101.47" width="324.35" height="272.1" rx="13.35" transform="translate(401.62 475.05) rotate(-180)"></rect><rect class="cls-2" x="615.26" y="207.26" width="199.26" height="167.15" rx="13.35" transform="translate(1429.77 581.67) rotate(-180)"></rect><rect class="cls-2" x="699.65" y="114.49" width="199.26" height="167.15" rx="13.35" transform="translate(1598.55 396.13) rotate(-180)"></rect><rect class="cls-2" x="146.26" y="150.25" width="202.18" height="95.64" rx="13.35" transform="translate(494.7 396.13) rotate(-180)"></rect><rect class="cls-2" x="49.95" y="149.23" width="87.38" height="208.34" rx="13.35" transform="translate(187.27 506.79) rotate(-180)"></rect><path class="cls-2" d="M38.63,101.47H363a0,0,0,0,1,0,0v18.07a13.35,13.35,0,0,1-13.35,13.35H52a13.35,13.35,0,0,1-13.35-13.35V101.47a0,0,0,0,1,0,0Z" transform="translate(401.62 234.36) rotate(-180)"></path><rect id="rect201" class="cls-3" width="931.39" height="747.16"></rect><path class="cls-4" d="M714.89,302.55v85.92a16,16,0,0,1-16,16H170.59a16,16,0,0,1-16-16V302.55a16,16,0,0,1,16-16H698.88A16,16,0,0,1,714.89,302.55Z"></path><path class="cls-5" d="M383.35,286.56a75.46,75.46,0,0,0-13,42.52v75.38H342.62V325.18a103,103,0,0,1,7.46-38.62Z"></path><path class="cls-5" d="M549.58,325.18v79.28H521.89V329.08a75.46,75.46,0,0,0-13-42.52h33.27A103.06,103.06,0,0,1,549.58,325.18Z"></path><path class="cls-6" d="M196.32,368.7a3.2,3.2,0,0,1-1.43-2.86,3.42,3.42,0,0,1,.63-1.9,4.42,4.42,0,0,1,.95-1.11l11.43-10.47-15.55-1.74-1.27-.32a2.81,2.81,0,0,1-1.9-1.75,3.28,3.28,0,0,1-.48-1.74,2.83,2.83,0,0,1,.16-.95l2.86-8.41a2.8,2.8,0,0,1,1.74-1.9,3.31,3.31,0,0,1,1.75-.48,2.5,2.5,0,0,1,.79.16l1.27.63,13.64,7.78-3.17-15.39-.16-1.27a3.45,3.45,0,0,1,1-2.38,3.25,3.25,0,0,1,2.46-1.11h8.72a3.25,3.25,0,0,1,2.46,1.11,3.45,3.45,0,0,1,1,2.38l-.16,1.27L220,343.64l13.8-7.78,1.27-.63a1.71,1.71,0,0,1,.79-.16,4.3,4.3,0,0,1,2.3.63,2.38,2.38,0,0,1,1.19,1.75l2.86,8.41.16.95a3.69,3.69,0,0,1-.72,2.14,3.23,3.23,0,0,1-1.82,1.35l-1.11.32L223,352.36l11.58,10.47a4.42,4.42,0,0,1,.95,1.11,3.42,3.42,0,0,1,.63,1.9,3.2,3.2,0,0,1-1.43,2.86l-7,5.23a4.49,4.49,0,0,1-2.06.48,3.08,3.08,0,0,1-2.85-1.27.51.51,0,0,0-.16-.32,3.3,3.3,0,0,1-.48-.79l-6.66-14.44L208.85,372a3.3,3.3,0,0,1-.48.79.51.51,0,0,0-.16.32,3.09,3.09,0,0,1-2.85,1.27,4.49,4.49,0,0,1-2.06-.48Z"></path><path class="cls-6" d="M267.06,368.7a3.21,3.21,0,0,1-1.42-2.86,3.42,3.42,0,0,1,.63-1.9,4.42,4.42,0,0,1,1-1.11l11.42-10.47-15.54-1.74-1.27-.32a2.81,2.81,0,0,1-1.9-1.75,3.28,3.28,0,0,1-.48-1.74,2.83,2.83,0,0,1,.16-.95l2.85-8.41a2.81,2.81,0,0,1,1.75-1.9,3.3,3.3,0,0,1,1.74-.48,2.55,2.55,0,0,1,.8.16l1.26.63,13.65,7.78-3.18-15.39-.15-1.27a3.45,3.45,0,0,1,1-2.38,3.22,3.22,0,0,1,2.45-1.11h8.73A3.25,3.25,0,0,1,293,324.6a3.45,3.45,0,0,1,1,2.38l-.16,1.27-3.17,15.39,13.8-7.78,1.27-.63a1.68,1.68,0,0,1,.79-.16,4.32,4.32,0,0,1,2.3.63,2.4,2.4,0,0,1,1.19,1.75l2.86,8.41.16.95a3.69,3.69,0,0,1-.72,2.14,3.23,3.23,0,0,1-1.82,1.35l-1.11.32-15.71,1.74,11.58,10.47a4.17,4.17,0,0,1,.95,1.11,3.36,3.36,0,0,1,.64,1.9,3.22,3.22,0,0,1-1.43,2.86l-7,5.23a4.49,4.49,0,0,1-2.06.48,3.09,3.09,0,0,1-2.86-1.27.47.47,0,0,0-.16-.32,3.79,3.79,0,0,1-.47-.79l-6.66-14.44L279.59,372a3.79,3.79,0,0,1-.47.79.47.47,0,0,0-.16.32,3.09,3.09,0,0,1-2.85,1.27,4.53,4.53,0,0,1-2.07-.48Z"></path><path class="cls-6" d="M369.58,368.7a3.22,3.22,0,0,1-1.43-2.86,3.36,3.36,0,0,1,.64-1.9,4.17,4.17,0,0,1,.95-1.11l11.42-10.47-15.55-1.74-1.26-.32a2.83,2.83,0,0,1-1.91-1.75,3.27,3.27,0,0,1-.47-1.74,3.09,3.09,0,0,1,.15-.95l2.86-8.41a2.79,2.79,0,0,1,1.75-1.9,3.28,3.28,0,0,1,1.74-.48,2.45,2.45,0,0,1,.79.16l1.27.63,13.64,7.78L381,328.25l-.16-1.27a3.45,3.45,0,0,1,1-2.38,3.25,3.25,0,0,1,2.46-1.11h8.73a3.25,3.25,0,0,1,2.46,1.11,3.49,3.49,0,0,1,1,2.38l-.16,1.27-3.17,15.39,13.8-7.78,1.26-.63a1.76,1.76,0,0,1,.8-.16,4.35,4.35,0,0,1,2.3.63,2.43,2.43,0,0,1,1.19,1.75l2.85,8.41.16.95a3.75,3.75,0,0,1-.71,2.14A3.29,3.29,0,0,1,413,350.3l-1.11.32-15.7,1.74,11.58,10.47a4.42,4.42,0,0,1,.95,1.11,3.43,3.43,0,0,1,.64,1.9A3.22,3.22,0,0,1,408,368.7l-7,5.23a4.55,4.55,0,0,1-2.06.48,3.09,3.09,0,0,1-2.86-1.27.47.47,0,0,0-.16-.32,3.79,3.79,0,0,1-.47-.79l-6.67-14.44L382.11,372a3.79,3.79,0,0,1-.47.79.47.47,0,0,0-.16.32,3.1,3.1,0,0,1-2.86,1.27,4.49,4.49,0,0,1-2.06-.48Z"></path><path class="cls-6" d="M448.08,368.7a3.21,3.21,0,0,1-1.42-2.86,3.42,3.42,0,0,1,.63-1.9,4.42,4.42,0,0,1,.95-1.11l11.42-10.47-15.54-1.74-1.27-.32a2.81,2.81,0,0,1-1.9-1.75,3.28,3.28,0,0,1-.48-1.74,2.83,2.83,0,0,1,.16-.95l2.85-8.41a2.81,2.81,0,0,1,1.75-1.9,3.3,3.3,0,0,1,1.74-.48,2.55,2.55,0,0,1,.8.16l1.27.63,13.64,7.78-3.17-15.39-.16-1.27a3.45,3.45,0,0,1,1-2.38,3.22,3.22,0,0,1,2.46-1.11h8.72A3.25,3.25,0,0,1,474,324.6a3.45,3.45,0,0,1,1,2.38l-.16,1.27-3.17,15.39,13.8-7.78,1.27-.63a1.68,1.68,0,0,1,.79-.16,4.32,4.32,0,0,1,2.3.63,2.38,2.38,0,0,1,1.19,1.75l2.86,8.41.16.95a3.69,3.69,0,0,1-.72,2.14,3.23,3.23,0,0,1-1.82,1.35l-1.11.32-15.71,1.74,11.58,10.47a4.17,4.17,0,0,1,.95,1.11,3.36,3.36,0,0,1,.64,1.9,3.22,3.22,0,0,1-1.43,2.86l-7,5.23a4.49,4.49,0,0,1-2.06.48,3.09,3.09,0,0,1-2.86-1.27.49.49,0,0,0-.15-.32,3.3,3.3,0,0,1-.48-.79l-6.66-14.44L460.62,372a4.16,4.16,0,0,1-.48.79.47.47,0,0,0-.16.32,3.09,3.09,0,0,1-2.85,1.27,4.53,4.53,0,0,1-2.07-.48Z"></path><path class="cls-6" d="M550.05,368.7a3.22,3.22,0,0,1-1.43-2.86,3.36,3.36,0,0,1,.64-1.9,4.42,4.42,0,0,1,1-1.11l11.42-10.47-15.54-1.74-1.27-.32a2.85,2.85,0,0,1-1.91-1.75,3.36,3.36,0,0,1-.47-1.74,2.83,2.83,0,0,1,.16-.95l2.85-8.41a2.79,2.79,0,0,1,1.75-1.9,3.28,3.28,0,0,1,1.74-.48,2.45,2.45,0,0,1,.79.16l1.27.63,13.65,7.78-3.18-15.39-.16-1.27a3.46,3.46,0,0,1,1-2.38,3.22,3.22,0,0,1,2.45-1.11h8.73A3.25,3.25,0,0,1,576,324.6a3.49,3.49,0,0,1,1,2.38l-.16,1.27-3.17,15.39,13.8-7.78,1.27-.63a1.68,1.68,0,0,1,.79-.16,4.35,4.35,0,0,1,2.3.63,2.4,2.4,0,0,1,1.19,1.75l2.85,8.41.16.95a3.68,3.68,0,0,1-.71,2.14,3.3,3.3,0,0,1-1.82,1.35l-1.11.32-15.71,1.74,11.58,10.47a4.17,4.17,0,0,1,1,1.11,3.43,3.43,0,0,1,.64,1.9,3.22,3.22,0,0,1-1.43,2.86l-7,5.23a4.49,4.49,0,0,1-2.06.48,3.09,3.09,0,0,1-2.86-1.27.47.47,0,0,0-.16-.32,3.79,3.79,0,0,1-.47-.79l-6.66-14.44L562.58,372a3.79,3.79,0,0,1-.47.79.47.47,0,0,0-.16.32,3.09,3.09,0,0,1-2.86,1.27,4.52,4.52,0,0,1-2.06-.48Z"></path><path class="cls-6" d="M620.8,368.7a3.22,3.22,0,0,1-1.43-2.86,3.36,3.36,0,0,1,.64-1.9,4.17,4.17,0,0,1,1-1.11l11.42-10.47-15.55-1.74-1.26-.32a2.83,2.83,0,0,1-1.91-1.75,3.27,3.27,0,0,1-.47-1.74,3.09,3.09,0,0,1,.15-.95l2.86-8.41a2.8,2.8,0,0,1,1.74-1.9,3.31,3.31,0,0,1,1.75-.48,2.45,2.45,0,0,1,.79.16l1.27.63,13.64,7.78-3.17-15.39-.16-1.27a3.45,3.45,0,0,1,1-2.38,3.25,3.25,0,0,1,2.46-1.11h8.73a3.22,3.22,0,0,1,2.45,1.11,3.46,3.46,0,0,1,1,2.38l-.16,1.27-3.17,15.39,13.8-7.78,1.26-.63a1.76,1.76,0,0,1,.8-.16,4.35,4.35,0,0,1,2.3.63,2.43,2.43,0,0,1,1.19,1.75l2.85,8.41.16.95a3.75,3.75,0,0,1-.71,2.14,3.29,3.29,0,0,1-1.83,1.35l-1.11.32-15.7,1.74L659,362.83a4.42,4.42,0,0,1,1,1.11,3.42,3.42,0,0,1,.63,1.9,3.21,3.21,0,0,1-1.42,2.86l-7,5.23a4.55,4.55,0,0,1-2.06.48,3.09,3.09,0,0,1-2.86-1.27.47.47,0,0,0-.16-.32,3.79,3.79,0,0,1-.47-.79L640,357.59,633.33,372a3.79,3.79,0,0,1-.47.79.47.47,0,0,0-.16.32,3.1,3.1,0,0,1-2.86,1.27,4.49,4.49,0,0,1-2.06-.48Z"></path><path class="cls-7" d="M536.87,325.18V445.72H509.19V329.08a75.8,75.8,0,1,0-151.59,0V445.72H329.91V325.18a103.48,103.48,0,1,1,207,0Z"></path><rect class="cls-7" x="290.2" y="429.17" width="286.39" height="244.28" rx="15.46"></rect><path class="cls-8" d="M510.14,473.5a5.36,5.36,0,0,0-3.35-4.27l-.29-.11a5.25,5.25,0,0,0-2.06-.27c-42.95,2.69-61.23-5.7-68.66-11.67l-.47-.38a3,3,0,0,0-3.83,0l-.47.39c-7.72,6.2-27.08,15-73.58,11.32,0,0-25,129.67,73.58,177.68.79.39,1.58.76,2.38,1.13.81-.37,1.6-.74,2.39-1.13C522.8,603.79,513.52,497.77,510.14,473.5Z"></path><circle class="cls-6" cx="433.39" cy="531.19" r="20.13"></circle><rect class="cls-6" x="423.32" y="530.71" width="20.5" height="72.85" rx="5.26"></rect></g></g></g></svg>