<svg xmlns="http://www.w3.org/2000/svg" viewBox="0 0 1424.11 696.8"><defs><style>.cls-1{isolation:isolate;}.cls-2{fill:#0c7ff2;}.cls-3{fill:#fff;}.cls-12,.cls-4{fill:#2e2e76;}.cls-4{fill-rule:evenodd;}.cls-5{opacity:0.4;mix-blend-mode:multiply;}.cls-6{fill:#9caab8;}.cls-7{fill:#ff603d;}.cls-8{opacity:0.38;}.cls-9{fill:#f5c822;}.cls-10{fill:#f0f7ff;}.cls-11{fill:#24313e;}</style></defs><g class="cls-1"><g id="Layer_1" data-name="Layer 1"><path class="cls-2" d="M467.5,430.89a88.33,88.33,0,0,1-3.69,10.23c-7.42,17.27-20.28,31.92-38,39.82a70.32,70.32,0,0,1-9.71,3.53,76.36,76.36,0,0,1-17.8,2.7q-2.93.09-5.94,0l-2.46-.12v.12H162c-27.7.92-49.91-10.16-65.41-27.27-.34-.37-.67-.75-1-1.13s-.75-.86-1.1-1.29c-1.6-1.87-3.11-3.83-4.51-5.83-.5-.68-1-1.37-1.43-2.06-1-1.51-2-3.06-2.93-4.62-.46-.76-.89-1.53-1.33-2.3-.12-.23-.26-.44-.38-.67-.29-.56-.58-1.1-.89-1.68-.41-.79-.82-1.58-1.19-2.37s-.68-1.38-1-2.06A100.27,100.27,0,0,1,76,423.06c-11-35.92-2.66-78.11,30.25-101.62a34,34,0,0,0,10.38-11.86,32.52,32.52,0,0,0,3.73-15.26c-.3-49.62,34.36-85,76.25-98.51s91.06-5.07,119.78,33A33.87,33.87,0,0,0,331,240a30.14,30.14,0,0,0,18.16,1.32c19.75-4.78,40,2.2,54.51,15.42q1,.94,2,1.92c.5.46,1,1,1.44,1.46l.64.67,1.53,1.68a1.11,1.11,0,0,0,.2.24c.59.69,1.16,1.39,1.73,2.09s1.17,1.5,1.72,2.25,1.07,1.53,1.58,2.27,1,1.56,1.49,2.35.95,1.58,1.38,2.39a56.52,56.52,0,0,1,6.83,35.49,26.87,26.87,0,0,0-.28,4.55,29.77,29.77,0,0,0,3.34,13.11,36.22,36.22,0,0,0,9.07,11.27,35.72,35.72,0,0,0,3.13,2.37c19.46,13.3,29.59,34.44,31.46,56.55A92.17,92.17,0,0,1,467.5,430.89Z"></path><path class="cls-3" d="M426.27,395.26a26.44,26.44,0,0,0-18.78-7.78,27.54,27.54,0,0,0-4.38.36L391.88,358.7l-11.15-28.93A26.56,26.56,0,1,0,343.81,297l-48.5-7.67-38.61-6.1A36.28,36.28,0,1,0,195,305.15a36.53,36.53,0,0,0,4.4,3.74l-15.57,30.86-16.41,32.5a34.28,34.28,0,1,0,20,41.32q14.86,1.14,29.72,2,31.74,1.89,63.5,2.55c10.59.21,21.18.36,31.76.35s21.17-.19,31.75-.64l31.71-1,5.22-.16a26.56,26.56,0,1,0,45.2-21.48Zm-234.93-51.5,16.82-30.18a36.31,36.31,0,0,0,47.61-25.08l38.32,7.68,48.15,9.66c0,.07,0,.14,0,.21a26.52,26.52,0,0,0,1.6,9.09q-39.4,23.22-80.88,42.73-37.81,17.78-77.08,32.32a34.26,34.26,0,0,0-7.13-10.41,34.64,34.64,0,0,0-5.13-4.23Zm184.45,68.13-31.64-.23c-10.54,0-21.08-.17-31.61-.55s-21.05-.94-31.57-1.54q-31.55-1.85-63-4.9-14.33-1.4-28.62-3a.28.28,0,0,1-.24-.21l-1.33-5.52q39.82-13.77,78.4-30.91,42.24-18.76,82.64-41.42c.38.43.76.85,1.17,1.26a26.47,26.47,0,0,0,18.78,7.78h5.75a.43.43,0,0,1,.41.3l9.45,28.48L394.24,391a26.12,26.12,0,0,0-5.52,4.23A26.47,26.47,0,0,0,381,411.93Z"></path><circle class="cls-3" cx="1147.56" cy="307.35" r="112.96"></circle><path class="cls-4" d="M1250.15,308.24a102.6,102.6,0,0,1-68,96.6l-2.1.73c-5.2,1-7-2.19-7-4.94,0-3.36.12-14.43.12-28.14a35,35,0,0,0-.76-7.51c-1.18-5.44-3.59-9.24-6.2-11.49C1189,351,1213,342.28,1213,302.87a39.57,39.57,0,0,0-10.55-27.53c1.06-2.6,4.58-13-1-27.15,0,0-8.6-2.76-28.19,10.51a97.3,97.3,0,0,0-51.36,0c-19.6-13.27-28.22-10.51-28.22-10.51-5.58,14.12-2.06,24.55-1,27.15a39.62,39.62,0,0,0-10.56,27.53c0,39.31,24,48.11,46.73,50.7-2.93,2.57-5.58,7.09-6.51,13.72-5.85,2.62-20.71,7.15-29.86-8.53,0,0-5.42-9.85-15.71-10.57,0,0-10-.13-.71,6.24,0,0,6.72,3.15,11.39,15,0,0,6,19.95,34.56,13.75,0,.73,0,1.46,0,2.16,0,7.48.13,13.07.13,15.29,0,2.72-1.87,5.89-7,4.95a101.83,101.83,0,0,1-20.21-9.29q-4.1-2.44-7.93-5.26a102.59,102.59,0,1,1,163.15-82.79Z"></path><g class="cls-5"><path class="cls-6" d="M1249.71,310.59a88.64,88.64,0,0,1-60.07,83.92c-5.65-91.6,46-131.94,46-131.94A88.27,88.27,0,0,1,1249.71,310.59Z"></path></g><path class="cls-2" d="M1319.87,484a2.28,2.28,0,0,1-3.18,1.08,2.12,2.12,0,0,1-1.18-1.59l-1.7-9.08a42.1,42.1,0,0,0-31.11-33.12c2.8-2.28,5.72-4.74,8.73-7.39a247.13,247.13,0,0,0,27.41-28.17,25.93,25.93,0,0,1,3.19,4s0,0,0,0C1327.93,418.65,1338.29,442.35,1319.87,484Z"></path><path class="cls-7" d="M1205.76,454.73a1.78,1.78,0,0,0-.08.16c-.09.16-.25.45-.48.83l0,0c-1.61,2.62-6.83,9.66-18.27,13.56a27.09,27.09,0,0,1-.07-23.57c0-.09.09-.17.13-.26a10.47,10.47,0,0,1,18.79,9.25Z"></path><path class="cls-7" d="M1250.15,476.58a1.78,1.78,0,0,0-.08.16c-.09.16-.25.45-.48.83a0,0,0,0,0,0,0c-1.62,2.62-6.84,9.66-18.28,13.56a27.09,27.09,0,0,1-.07-23.57c0-.09.09-.17.13-.26a10.47,10.47,0,0,1,18.79,9.25Z"></path><path class="cls-2" d="M1203.32,348.91a242.64,242.64,0,0,0-5.2,33.55c-.5,6-.79,11.61-.91,16.79h0a40.89,40.89,0,0,0-4.74-3.23,42,42,0,0,0-40.47-1.25l-8.24,4.21a2.17,2.17,0,0,1-2,0,2.27,2.27,0,0,1-1-3.15c22-40.45,47.43-46.4,57.82-47A24.65,24.65,0,0,1,1203.32,348.91Z"></path><path class="cls-2" d="M1318.84,405.78a255.89,255.89,0,0,1-36.14,35.55h0c-7.78,6.3-14.6,11.13-19.43,14.36a15.29,15.29,0,0,1-15.24,1l-41.86-20.6a15.27,15.27,0,0,1-8.5-12.69c-.39-5.8-.73-14.15-.48-24.15h0a255.43,255.43,0,0,1,6.14-50.33c7.86-34.17,25-71.1,61.14-94.48,17.74-11.47,40-19.67,68.08-22.68l.21,0,.1.18c14.72,24.05,21.82,46.73,23.55,67.79C1359.93,342.59,1341.12,378.71,1318.84,405.78Z"></path><g class="cls-5"><path class="cls-6" d="M1322,409.8s0,0,0,0a253,253,0,0,1-33.62,33.4,41.94,41.94,0,0,0-5.71-1.88c2.8-2.28,5.72-4.74,8.73-7.39a247.13,247.13,0,0,0,27.41-28.17A25.93,25.93,0,0,1,1322,409.8Z"></path></g><g class="cls-5"><path class="cls-6" d="M1203.32,348.91a242.64,242.64,0,0,0-5.2,33.55c-.5,6-.79,11.61-.91,16.79h0a40.89,40.89,0,0,0-4.74-3.23,253.72,253.72,0,0,1,6-47.1s0-.06,0-.09A24.65,24.65,0,0,1,1203.32,348.91Z"></path></g><path class="cls-7" d="M1233.5,475.79l-.15.28c-.15.3-.43.81-.85,1.49l0,.05c-2.88,4.68-12.2,17.26-32.62,24.21a48.34,48.34,0,0,1-.12-42.08c.07-.15.14-.31.22-.46a18.7,18.7,0,1,1,33.55,16.51Z"></path><g class="cls-8"><path class="cls-9" d="M1229.91,464.82l-.08.16c-.08.16-.24.43-.46.8l0,0c-1.56,2.53-6.6,9.34-17.66,13.1a26.16,26.16,0,0,1-.06-22.77l.12-.26a10.12,10.12,0,1,1,18.16,8.94Z"></path></g><circle class="cls-10" cx="1284.76" cy="328.98" r="22.15" transform="translate(-35.63 204.81) rotate(-8.99)"></circle><circle class="cls-11" cx="1284.76" cy="328.98" r="13.57" transform="translate(-30.22 156.76) rotate(-6.9)"></circle><path class="cls-2" d="M850.48,420.22V381a7,7,0,0,0-7-7H585a7,7,0,0,1-7-7V303.11a7,7,0,0,1,7-7H843.5a7,7,0,0,0,7-7V249.92A7,7,0,0,1,862.4,245l85.15,85.15a7,7,0,0,1,0,9.87L862.4,425.15A7,7,0,0,1,850.48,420.22Z"></path><g class="cls-5"><path class="cls-6" d="M470.92,397.38c-1.87-22.11-12-43.25-31.46-56.55a35.72,35.72,0,0,1-3.13-2.37,8.19,8.19,0,0,1-2.95.62l-36.35.63a8.17,8.17,0,0,1-6.37-2.9l-8.8-10.48a8.12,8.12,0,0,0-10.32-1.79L361,330.71a8.11,8.11,0,0,0-3.51,9.88l4.64,12.27a8.07,8.07,0,0,1-.47,6.82L343.18,393a8.14,8.14,0,0,1-5.6,4l-13.16,2.48a8.15,8.15,0,0,0-6.64,8.13l.23,12.18a8.13,8.13,0,0,0,6.91,7.89l13.32,2a8.14,8.14,0,0,1,5.74,3.85l18.73,31.11a8.16,8.16,0,0,1,.68,6.93l-4.56,12.72a8.39,8.39,0,0,0-.47,2.85h31.58v-.12l2.46.12a8.14,8.14,0,0,1,5.61-2.39l18.13-.31a70.32,70.32,0,0,0,9.71-3.53c17.68-7.9,30.54-22.55,38-39.82a88.33,88.33,0,0,0,3.69-10.23A92.17,92.17,0,0,0,470.92,397.38Zm-55.29,48a33.47,33.47,0,1,1,33.5-34.69A33.6,33.6,0,0,1,415.63,445.4Z"></path></g><circle class="cls-3" cx="434.05" cy="414.03" r="52.47"></circle><path class="cls-12" d="M336.36,419.82a8.13,8.13,0,0,0,6.92,7.88l13.31,2a8.12,8.12,0,0,1,5.75,3.85l18.72,31.12a8.1,8.1,0,0,1,.69,6.92l-4.56,12.72a8.13,8.13,0,0,0,3.68,9.83l10.65,6a8.12,8.12,0,0,0,10.3-2l8.36-10.34a8.14,8.14,0,0,1,6.18-3l36.36-.63a8.12,8.12,0,0,1,6.36,2.91l8.79,10.46a8.12,8.12,0,0,0,10.33,1.8l10.54-6.16a8.16,8.16,0,0,0,3.51-9.91L487.59,471a8.15,8.15,0,0,1,.49-6.82l18.49-33.29a8.09,8.09,0,0,1,5.6-4l13.17-2.49a8.12,8.12,0,0,0,6.62-8.13L531.72,404a8.11,8.11,0,0,0-6.91-7.88l-13.3-2a8.09,8.09,0,0,1-5.76-3.85l-18.7-31.11a8.13,8.13,0,0,1-.69-6.93l4.55-12.72a8.12,8.12,0,0,0-3.69-9.83l-10.65-6a8.09,8.09,0,0,0-10.28,2l-8.37,10.34a8.16,8.16,0,0,1-6.18,3l-36.36.63A8.15,8.15,0,0,1,409,336.8l-8.79-10.47a8.13,8.13,0,0,0-10.33-1.79l-10.53,6.17a8.11,8.11,0,0,0-3.5,9.89l4.64,12.26a8.13,8.13,0,0,1-.48,6.83L361.53,393a8.17,8.17,0,0,1-5.59,4l-13.17,2.47a8.14,8.14,0,0,0-6.63,8.13Zm97.74-41.35a33.47,33.47,0,1,1-33.5,34.67A33.58,33.58,0,0,1,434.1,378.47Z"></path></g></g></svg>