<svg xmlns="http://www.w3.org/2000/svg" viewBox="0 0 1001.93 911.71"><defs><style>.cls-1{isolation:isolate;}.cls-2{fill:#ebf0f5;}.cls-27,.cls-3{fill:#9caab8;}.cls-26,.cls-3{mix-blend-mode:multiply;}.cls-4{fill:#f0f7ff;}.cls-5{fill:#403e42;}.cls-6{fill:#00b3e0;}.cls-11,.cls-12,.cls-13,.cls-14,.cls-15,.cls-17,.cls-18,.cls-21,.cls-22,.cls-23,.cls-24,.cls-6,.cls-8{fill-rule:evenodd;}.cls-7{fill:#343434;}.cls-8{fill:#d33833;}.cls-21,.cls-9{fill:#ef3d3a;}.cls-10,.cls-22{fill:#231f20;}.cls-11{fill:#f0d6b7;}.cls-12{fill:#335061;}.cls-13{fill:#6d6b6d;}.cls-14{fill:#dcd9d8;}.cls-15,.cls-16{fill:#f7e4cd;}.cls-17{fill:#49728b;}.cls-18,.cls-19{fill:#fff;}.cls-20{fill:none;stroke:#d33833;stroke-miterlimit:5;stroke-width:1.5px;}.cls-23{fill:#81b0c4;}.cls-24{fill:#1d1919;}.cls-25{fill:#2e2e76;}.cls-28{fill:#0c7ff2;}</style></defs><g class="cls-1"><g id="Layer_2" data-name="Layer 2"><g id="Layer_1-2" data-name="Layer 1"><circle class="cls-2" cx="501.55" cy="464.44" r="374.99"></circle><rect class="cls-3" x="255.16" y="727.49" width="524.34" height="176.51" rx="79.64"></rect><circle class="cls-3" cx="518.72" cy="125.06" r="113.81"></circle><circle class="cls-3" cx="151.52" cy="461.88" r="131.38"></circle><circle class="cls-3" cx="876.54" cy="456.45" r="113.81"></circle><rect class="cls-4" x="255.16" y="735.2" width="524.34" height="176.51" rx="79.64"></rect><circle class="cls-4" cx="518.72" cy="113.81" r="113.81"></circle><circle class="cls-4" cx="131.38" cy="456.08" r="131.38"></circle><path class="cls-5" d="M148.66,476.88c.25,6.77,3.87,6.72,8.17,6.56,5.8-.11,9-1.88,11.89-.48,0-.16-.95-2.88-5-2.41a8.47,8.47,0,0,0,.53-4.23c-.53-6.77-4.47-12.14-8.78-12s-7.08,5.77-6.84,12.55Zm6.43-8.25a2.2,2.2,0,0,1,2.24,2.15h0a2.2,2.2,0,1,1-2.24-2.16Zm-65.54,16c.45,0,.91,0,1.39,0l1.27,0c4.32,0,7.9.37,7.85-6.4S97,466,92.66,466s-8.49,5.59-8.24,12.36a11,11,0,0,0,.75,3.95c-3.75.95-4.79,3.27-4.86,3.42,2.37-1.27,5-1.09,9.24-1.08Zm3.71-14.39a2.2,2.2,0,1,1-2.14,2.27v0a2.18,2.18,0,0,1,2.13-2.25h0Zm10.14-72.18h12.12v-5h2.72v23.08h-4.11v12.92h21.2V416.17h-4.12V393.09h2.73v5h12.13V381H103.4v17.11Z"></path><path class="cls-5" d="M217,431.07c-.08-1.46-.22-2.92-.42-4.37-.1-.73-.21-1.46-.36-2.18s-.29-1.43-.52-2.23l-.16-.57-.4-.32a39,39,0,0,0-7.31-4.39c-2.09-1-4.21-1.84-6.35-2.63-6-16.57-16.23-31.27-29.73-41.5a77.64,77.64,0,0,0-94.88,0,88,88,0,0,0-25.33,31.21h0a98.21,98.21,0,0,0-4.4,10.29C45,415.17,42.89,416,40.8,417a39.12,39.12,0,0,0-7.32,4.39l-.4.32-.15.57a21.25,21.25,0,0,0-.53,2.23c-.14.72-.26,1.45-.36,2.18-.14,1-.24,2.1-.33,3.15h0q-.06.61-.09,1.23a54.67,54.67,0,0,0,.26,8.77,55.38,55.38,0,0,0,1.62,8.65c.41,1.42.88,2.83,1.42,4.21.27.7.56,1.39.89,2.08.16.35.34.69.52,1l.29.51c.11.2.19.33.35.58l.29.46.47.24c.49.25.9.44,1.35.65l1.3.59.72.3a108.1,108.1,0,0,0-17.93,21.38l-7,11.09L26.05,483a163.11,163.11,0,0,1,22.26-15.44l.19,1.59.51,4,2.53,20.55a1.38,1.38,0,0,0,.58,1l5.18,3.64.27.88c.12.41.23.81.36,1.22l1.18,3.57a81.38,81.38,0,0,0,10.74,21.74l-.64.19c-2.7-1.25-12.12-5.62-15.28-7l-6.61-3,3.91,6.1c.28.45,7,11,12.55,18.08,5.16,6.62,12.22,13.38,25.55,13.38a46.73,46.73,0,0,0,5-.28c4-.46,7-.82,9.23-1.11a62.51,62.51,0,0,0,44.05-.09,63.56,63.56,0,0,0,11-5.44l.2,0c5.45-1.31,11.62-2.79,14.68-3.64.48-.13,1.1-.28,1.73-.43,4.25-1,11.36-2.63,15.14-10.2s10-19.36,10.1-19.48l2.91-5.45-5.66,2.47c-.31.13-7.49,3.26-11.22,5.22l-.44.21a81,81,0,0,0,5.1-13l2-8.45,5.9-13.18s1.65-14.42,1.69-14.41l.58-5.51c.51-.22,3.66-.44,4.28-.68.88-.35,1.75-.69,2.63-1.07l1.3-.59c.45-.21.86-.4,1.35-.65l.47-.24.29-.46a4,4,0,0,0,.35-.58l.29-.51c.2-.35.36-.69.52-1,.32-.68.63-1.38.91-2.08.53-1.38,1-2.79,1.4-4.21a54.91,54.91,0,0,0,1.63-8.65,55.78,55.78,0,0,0,.25-8.77ZM82.51,466.65a139,139,0,0,1,14.07-7.79q14.15-1.07,28.33-1.07c2.47,0,4.9,0,7.31.08a47.88,47.88,0,0,1-5.28,3.72l-6.11,3.7a52.46,52.46,0,0,0-7.38,1.48,1.27,1.27,0,0,0-.32.13,1.4,1.4,0,0,0-.63.8l-6.24,20.57-33.34,7.4-10.5-7.35-3.06-24.75c6-1.1,13.94-2.36,23.52-3.43q-1.57,1.86-3,3.86l-5.7,8.19Zm45,86.08A50.19,50.19,0,0,1,111,551a11.24,11.24,0,0,1,1.19-.19c.45-.06,10.26-1.35,14.67-7.91h1.52c.72,0,1.38-.06,2.09-.09a41.59,41.59,0,0,0,4.9-.71l.52.52a18.7,18.7,0,0,0,11.95,5.5,65.65,65.65,0,0,1-20.29,4.65Zm.5-12c.82-1.84,1.45-3.28,1.92-4.36q1.77,2,3.6,3.87c-1.09.16-2.15.3-3.2.38-.69,0-1.41.11-2.07.11Zm-16.36-42.46,3-.67a1.4,1.4,0,0,0,1-.95l6.22-20.48a22.54,22.54,0,0,1,2.84-.22,22.81,22.81,0,0,1,2.83.22l6.4,21.09a1.42,1.42,0,0,0,1.18,1l2.37.27.61.06L179,503.21a1.4,1.4,0,0,0,1-.25l4.11-2.88,3.81-2.66,1.4-1c-.23,1-.48,2-.74,2.92-.39,1.23-.8,2.46-1.23,3.68a98.41,98.41,0,0,1-5.61,13.05q-.9.06-1.8.06c-2,0-4-.16-6.25-.37-3.89-.36-10.05-1.07-12-1.28-1.69-1.35-7.43-5.91-12.2-9.67l-.51-.42a5.13,5.13,0,0,0-3.73-1.52c-1.77,0-4.34.64-10.55,2.52a7.55,7.55,0,0,0,3.26-5.53,23.33,23.33,0,0,1-12,5.23c-7.4.95-13.23-3.6-13.23-3.6a8,8,0,0,0,2.27,4.1,54.64,54.64,0,0,0-6.34-.39c-.81,0-1.63,0-2.42.06-4.56.24-11,7.13-15.48,14.08-2.21.7-9.13,2.9-17.13,5.25a91.7,91.7,0,0,1-9.75-17.45c-1-2.48-1.64-4.18-1.77-4.58h0c-.15-.4-.31-.83-.45-1.27l1.92,1.34h0L68.31,506l1.59,1.11a1.43,1.43,0,0,0,.8.25l.31,0,40.63-9.06ZM136.9,467.7a1.4,1.4,0,0,0-1-.94,50.46,50.46,0,0,0-8.69-1.61l.8-.06a131.63,131.63,0,0,0,25.88-6.18A351.74,351.74,0,0,1,190,463.48l-3,21-10.59,7.41-33.3-3.79ZM210,439.34c-.37,2.71-1.6,8-1.6,8l-1,.16c-.5-.14-5.19-1.35-13.25-2.85l.75-.16a36.61,36.61,0,0,0,4.92-1.58,22.73,22.73,0,0,0,2.33-1.13,7.71,7.71,0,0,0,2-1.55c-8.07,2.64-24.75,1.44-39.58-.09-13.56-1.4-27.16-2.3-40.83-2.34A408.75,408.75,0,0,0,83,440.13c-14.84,1.53-31.52,2.73-39.59.09a8.3,8.3,0,0,0,2.05,1.56,23.61,23.61,0,0,0,2.32,1.12,36.61,36.61,0,0,0,4.92,1.58c.59.13,1.19.27,1.79.37-7.36,1.4-11.62,2.51-12.1,2.64,0,0-1.7.27-2.07-1a47.64,47.64,0,0,1-1.6-7.12,60,60,0,0,1-.5-8.15c0-.44,0-1.34,0-1.34,0-.91.07-1.82.15-2.74,0-.67,2.54-2.84,4.67-4.07,2.31-1.34,4.73-2.54,7.19-3.67s10.36-2.84,15.14-3.7,21.84-3.14,23.12-3.61,8.65-6.18,9.94-6.65c-2.71.45-40.17,6.17-41.86,6.7,12.16-31.8,36-47.28,67.8-47.28s55.64,14.62,67.81,46.42c-16.07-4.27-38.32-6.26-41-6.71,1.29.47,8.59,5.61,9.94,5.78a303.35,303.35,0,0,1,29.9,5.83c2.52,1,5,2.07,7.49,3.22s4.89,2.33,7.19,3.67c2.13,1.24,4.61,3.4,4.67,4.07.12,1.36.17,2.72.19,4.08a60.07,60.07,0,0,1-.52,8.15Z"></path><path class="cls-6" d="M519.56,22.18C570.29,22.18,611,62.88,611,113a91.12,91.12,0,0,1-91.42,91.42c-50.13,0-90.83-40.7-90.83-91.42a90.88,90.88,0,0,1,90.83-90.84ZM542,130.71c-10,13-28.32,15.34-40.7,5.31-12.39-9.44-14.16-27.72-4.13-40.7,10.62-12.38,28.9-14.74,41.29-5.31a28.41,28.41,0,0,1,3.54,40.7Zm-48.37,59.57,34.8-33.62c-13,3-26.54.59-37.16-8.25C478.86,139,473.56,123,475.33,108.3l-31.27,34.21s-4.12-7.67-5.3-21.83l54.85-43.05c16.51-11.8,38.93-12.39,54.85,0,17.7,14.15,21.24,40.11,8.26,59.57l-40.11,57.21c-5.9,0-17.69-1.77-23-4.13Z"></path><circle class="cls-4" cx="888.12" cy="456.45" r="113.81"></circle><path id="path7" class="cls-7" d="M869.19,456.4a17.7,17.7,0,1,1,17.69,17.69A17.7,17.7,0,0,1,869.19,456.4ZM886.88,382A74.41,74.41,0,0,0,814.7,438c0,.28-.14.42-.14.7a3.5,3.5,0,0,0,3.54,3.54h30a3.59,3.59,0,0,0,3.26-2.12h0a39.07,39.07,0,1,1,0,32.55h0a3.59,3.59,0,0,0-3.26-2.12h-30a3.5,3.5,0,0,0-3.54,3.54,1.31,1.31,0,0,0,.14.71A74.53,74.53,0,1,0,886.88,382Z"></path><g id="g10"><g id="g3393"><path id="path22" class="cls-8" d="M388.68,823.74c0,26.32-20.86,47.66-46.59,47.66s-46.6-21.34-46.6-47.66,20.86-47.67,46.6-47.67,46.59,21.34,46.59,47.67"></path><path id="path24" class="cls-9" d="M297.39,835.54s-3.38-49.7,42.42-51.12l-3.19-5.33-24.85,8.34-7.1,8.17-6.22,11.89-3.55,13.85,1.07,9.23"></path><path id="path26" class="cls-10" d="M310.17,791.22a46.61,46.61,0,0,0-13.23,32.69h0a46.57,46.57,0,0,0,13.23,32.69h0a44.46,44.46,0,0,0,31.91,13.53h0A44.46,44.46,0,0,0,374,856.6h0a46.62,46.62,0,0,0,13.23-32.69h0A46.65,46.65,0,0,0,374,791.22h0a44.49,44.49,0,0,0-31.92-13.52h0a44.49,44.49,0,0,0-31.91,13.52Zm-2.07,67.41A49.53,49.53,0,0,1,294,823.91h0A49.52,49.52,0,0,1,308.1,789.2h0a47.39,47.39,0,0,1,34-14.4h0a47.39,47.39,0,0,1,34,14.4h0a49.52,49.52,0,0,1,14.06,34.71h0a49.53,49.53,0,0,1-14.06,34.72h0a47.42,47.42,0,0,1-34,14.39h0a47.42,47.42,0,0,1-34-14.39h0"></path><path id="path28" class="cls-11" d="M361.7,824l-7.1,1.07L345,826.13l-6.21.18-6-.18-4.62-1.42-4.08-4.44-3.2-9-.71-2-4.26-1.42-2.48-4.09-1.78-5.85,1.95-5.15,4.62-1.6,3.73,1.78,1.77,3.9,2.13-.35.71-.89-.71-4.08-.18-5.15,1.07-7.1,0-4.06,3.23-5.17,5.69-4.09,9.94-4.26,11,1.6,9.59,6.92,4.44,7.1,2.84,5.15.71,12.78-2.13,11L368.09,816l-3.73,5.15"></path><path id="path30" class="cls-12" d="M355.66,854.71l-25.38,1.07V860L332.41,875l-1.07,1.24-17.75-6L312.35,868,310.58,848l-4.09-12.07-.88-2.84,14.2-9.76,4.43-1.77,3.91,4.79,3.37,3,3.91,1.24,1.77.53,2.13,9.23,1.6,1.95,4.08-1.42-2.84,5.51,15.45,7.28-2,1.06"></path><path id="path32" class="cls-13" d="M313.59,792.76l4.62-1.6,3.73,1.78,1.77,3.9,2.13-.35.53-2.13-1.06-4.09,1.06-9.76-.88-5.33,3.19-3.72,6.93-5.51-2-2.66-9.76,4.79-4.08,3.2-2.31,5L314,781l-1.07,5.68.71,6"></path><path id="path34" class="cls-14" d="M320.87,776.07s2.66-6.57,13.31-9.76.54-2.31.54-2.31l-11.54,4.44-4.44,4.44-1.95,3.55,4.08-.36"></path><path id="path36" class="cls-14" d="M315.55,791.52s-3.73-12.43,10.47-14.21l-.53-2.13-9.77,2.31-2.84,9.23.71,6,2-1.24"></path><path id="path38" class="cls-15" d="M321.23,808l2.32-2.25a1.5,1.5,0,0,1,1.23,1.37c.17,1.24.71,12.42,8.34,18.46.7.55-5.68-.89-5.68-.89l-5.68-8.87"></path><path id="path40" class="cls-15" d="M353.89,804.65s.41-5.38,1.86-5a2,2,0,0,1,1.45,1.87s-3.52,2.27-3.31,3.1"></path><path id="path42" class="cls-16" d="M368.62,785s-2.92.62-3.19,3.19,3.19.54,3.73.36"></path><path id="path44" class="cls-16" d="M347.14,785.13s-3.9.53-3.9,3,4.44,2.31,5.68,1.25"></path><path id="path46" class="cls-15" d="M323,796.66s-6.74-4.08-7.45-.17-2.31,6.74,1.06,10.82l-2.31-.71-2.13-5.5-.71-5.32,4.09-4.26,4.61.35,2.66,2.13.18,2.66"></path><path id="path48" class="cls-15" d="M326.2,785.48s3-15.62,18.28-18.64c12.57-2.48,19.17.53,21.66,3.37,0,0-11.19-13.31-21.84-9.23S325.84,772.52,326,777.31c.3,8.17.18,8.17.18,8.17"></path><path id="path50" class="cls-15" d="M367.38,772s-5.15-.18-5.33,4.44a3.5,3.5,0,0,0,.36,1.42s4.08-4.62,6.57-2.13"></path><path id="path52" class="cls-15" d="M344.84,778.33s-.89-7.09-6.93-3c-3.9,2.67-3.55,6.39-2.84,7.1s.52,2.14,1.06,1.16.36-4.18,2.32-5.06,5.15-1.88,6.39-.23"></path><path id="path54" class="cls-17" d="M328.15,826.31l-16.69,7.45s6.93,27.52,3.38,36l-2.49-.89-.18-10.47-4.61-19.88-1.95-5.51L323,821.34l5.15,5"></path><path id="path56" class="cls-17" d="M329.87,841.53l2.36,2.89v10.65h-2.84s-.35-7.46-.35-8.35.35-4.08.35-4.08"></path><path id="path58" class="cls-17" d="M329.92,856.66l-8,.36,2.3,1.6,5.68.88"></path><path id="path60" class="cls-12" d="M357.26,854.89l6.57-.18,1.6,16.33-6.75.89-1.42-17"></path><path id="path62" class="cls-12" d="M359,854.89l9.94-.53s4.08-10.3,4.08-10.83,3.55-14.91,3.55-14.91l-8-8.35L367,818.85l-4.27,4.26v16.51L359,854.89"></path><path id="path64" class="cls-17" d="M363.47,853.65l-6.21,1.24.89,5c2.31,1.06,6.21-1.78,6.21-1.78"></path><path id="path66" class="cls-17" d="M363.65,822.58l12.43,9.23.35-4.26-9.4-8.7-3.38,3.73"></path><path id="path68" class="cls-18" d="M336.09,889.86,332.41,875l-1.83-11-.3-8.16,16.63-.89h10.35l-.94,18.64,1.6,14.38-.18,2.66-13.49,1.06-8.16-1.77"></path><path id="path70" class="cls-14" d="M355,854.71s-.88,18.46,1.78,31.6a34,34,0,0,1-13.14,4.26L358.5,890l1.78-1.07-2.13-29.11-.53-6.21"></path><path id="path72" class="cls-18" d="M365.73,869.62l6.92-2,13.14-.71,1.95-6-3.55-10.48-4.08-.53-5.68,1.77L369,854.36l-2.9-.54-2.25.89"></path><path id="path74" class="cls-14" d="M365.6,866.07s4.62-2.13,5.33-2L369,854.36l2.31-.89s1.59,9.23,1.59,10.29c0,0,9.94.54,10.83.54a16.18,16.18,0,0,0,1.6-8.35l1.95,5.68.18,3.2-2.84,4.26-3.2.71-5.32-.18-1.78-2.31-6.21.89-1.95.71"></path><path id="path76" class="cls-19" d="M358.63,853.47l-3.91-9.94-4.08-5.86s.89-2.48,2.13-2.48h4.08l3.91,1.42-.36,6.56-1.77,10.3"></path><path id="path78" class="cls-14" d="M359.39,850.1s-5-9.59-5-11c0,0,.89-2.13,2.13-1.6s3.91,2,3.91,2v-3.37l-6-1.24-4.08.53,6.92,16.33,1.42.18"></path><path id="path80" class="cls-19" d="M337.68,826.67l-4.91-.54-4.62-1.42v1.6l2.25,2.49,7.11,3.19"></path><path id="path82" class="cls-14" d="M329.75,827.2s5.5,2.31,7.28,1.77l.17,2.13-5-1.06-3-2.13.53-.71"></path><path id="path84" class="cls-8" d="M365.71,835.79a34,34,0,0,1-8.12-1.12c.17-1-.14-1.93.11-2.64a6.25,6.25,0,0,1,2.78-.58,4.8,4.8,0,0,0-3.09-.35,5,5,0,0,0-.51-1.63c1.69-.6,5.69-4.56,7.94-3.25,1.07.62,1.52,4.19,1.61,5.92a6,6,0,0,1-.72,3.65"></path><path id="path86" class="cls-20" d="M365.71,835.79a34,34,0,0,1-8.12-1.12c.17-1-.14-1.93.11-2.64a6.25,6.25,0,0,1,2.78-.58,4.8,4.8,0,0,0-3.09-.35,5,5,0,0,0-.51-1.63c1.69-.6,5.69-4.56,7.94-3.25,1.07.62,1.52,4.19,1.61,5.92A6,6,0,0,1,365.71,835.79Z"></path><path id="path88" class="cls-8" d="M351.31,830.87l0,.68c-.94.62-2.46.61-3.49,1.13a9.27,9.27,0,0,1,3.76,1c0,.58-.05,1.15-.07,1.72-1.73,1.18-3.3,2.94-5.33,4-1,.52-4.33,1.87-5.35,1.63-.58-.13-.63-.85-.86-1.53-.49-1.44-1.62-3.75-1.72-5.92-.13-2.76-.41-7.37,2.56-6.8a26.64,26.64,0,0,1,7,2.57c1.14.62,1.79,1.38,3.51,1.52"></path><path id="path90" class="cls-20" d="M351.31,830.87l0,.68c-.94.62-2.46.61-3.49,1.13a9.27,9.27,0,0,1,3.76,1c0,.58-.05,1.15-.07,1.72-1.73,1.18-3.3,2.94-5.33,4-1,.52-4.33,1.87-5.35,1.63-.58-.13-.63-.85-.86-1.53-.49-1.44-1.62-3.75-1.72-5.92-.13-2.76-.41-7.37,2.56-6.8a26.64,26.64,0,0,1,7,2.57C348.94,830,349.59,830.73,351.31,830.87Z"></path><path id="path92" class="cls-8" d="M353,834.15a10.2,10.2,0,0,1-.45-3.23c4-2.67,4.75,4.57.45,3.23"></path><path id="path94" class="cls-20" d="M353,834.15a10.2,10.2,0,0,1-.45-3.23C356.57,828.25,357.32,835.49,353,834.15Z"></path><path id="path96" class="cls-21" d="M358.81,835.36s-1.25-1.77-.36-2.3,1.78,0,2.31-.89,0-1.42.18-2.49,1.06-1.24,1.95-1.42,3.37-.53,3.73.36l-1.07-3.2-2.13-.71-6.74,3.91-.36,2v3.91"></path><path id="path98" class="cls-21" d="M340.17,841.22c-.22-2.77-.44-5.54-.69-8.3-.38-4.14,1-3.41,4.57-3.41.55,0,3.37.65,3.57,1.06,1,2-1.62,1.54,1.12,3,2.31,1.26,6.38-.76,5.45-3.56-.52-.62-2.72-.2-3.51-.6l-4.16-2.16c-1.76-.92-5.84-2.25-7.72-1-4.77,3.24.3,11.34,2,14.72"></path><path id="path100" class="cls-22" d="M344.84,778.33c-4.84-1.13-7.24,2-8.71,5.29-1.31-.32-.79-2.1-.46-3,.87-2.39,4.36-5.56,7.21-5.13,1.23.19,2.89,1.31,2,2.84"></path><path id="path102" class="cls-22" d="M368.41,783.84h.23a51.12,51.12,0,0,0,3.42,6.68c-.92,2.15-7,4.06-6.9.19,1.31-.57,3.58-.12,4.74-.85-.67-1.85-1.64-3.42-1.49-6"></path><path id="path104" class="cls-22" d="M347.32,783.9c1,1.9,1.37,3.9,2.85,5.33.66.65,1.95,1.44,1.31,3.24a4.16,4.16,0,0,1-1.87,1.56c-2.31.68-7.68.14-5.86-2.74,1.91.09,4.47,1.24,5.89-.14-1.09-1.75-3-5.21-2.32-7.25"></path><path id="path106" class="cls-22" d="M367.55,803.22c-3.47,2.23-7.34,4.66-13,4.1a3.85,3.85,0,0,1-.5-5c.61,1,.23,3,1.94,3.29,3.23.55,7-2,9.31-2.86,1.44-2.43-.13-3.32-1.43-4.88-2.65-3.2-6.21-7.17-6.08-12,1.07-.78,1.16,1.19,1.32,1.55,1.38,3.24,4.87,7.39,7.42,10.17.62.68,1.65,1.34,1.77,1.79.33,1.32-.86,2.89-.72,3.76"></path><path id="path108" class="cls-22" d="M321.79,800.88c-1.09-.62-1.35-3.36-2.63-3.44-1.82-.11-1.49,3.55-1.48,5.69-1.26-1.14-1.48-4.65-.56-6.45-1.05-.52-1.52.56-2.1,1,.75-5.45,8-2.53,6.77,3.25"></path><path id="path110" class="cls-22" d="M369.76,805.49c-1.62,3.08-3.9,6.47-8.65,6.56a11.76,11.76,0,0,1,0-3.1c3.62-.35,5.86-2.19,8.64-3.46"></path><path id="path112" class="cls-22" d="M347,807.49c3,1.59,8.58,1.76,12.69,1.64a14.47,14.47,0,0,1,.23,3.11c-5.29.26-11.53-1-12.92-4.75"></path><path id="path114" class="cls-22" d="M346.47,810.45c2.09,5.25,9.28,4.65,15.34,4.5a3.23,3.23,0,0,1-1.57,1.78c-1.94.79-7.3,1.39-10,0-1.71-.91-2.81-3-3.75-4.17-.45-.58-2.7-2.06,0-2.07"></path><path id="path116" class="cls-23" d="M367.29,839.41a106.36,106.36,0,0,1-7.71,12.23c1.22-3.59,1.74-9.6,1.93-14.17a4.45,4.45,0,0,1,5.78,1.94"></path><path id="path118" class="cls-22" d="M380.5,854.52c-2.75.55-4.68,3.22-7.36,3.05,1.47-2.08,4.06-3,7.36-3.05"></path><path id="path120" class="cls-22" d="M381.71,858.82a39.64,39.64,0,0,1-7.14.41c1.08-1.64,5.22-1.07,7.14-.41"></path><path id="path122" class="cls-22" d="M382.49,862.53c-2.52.05-5.65,0-8-.2,1.42-1.52,6.41-.56,8,.2"></path><path id="path124" class="cls-14" d="M362.56,872.67c.36,3.16,1.61,6.36,1.46,9.82a10.36,10.36,0,0,1-4.06.88c-.13-2.94-.52-7.44-.41-10.24.92.06,2.27-.66,3-.46"></path><path id="path126" class="cls-11" d="M358.5,826.09c-1.26.82-2.34,1.85-3.55,2.73-2.69.14-4.16-.18-6.14-1.73,0-.12.23-.07.24-.22,2.88,1.28,6.54-.52,9.45-.78"></path><path id="path128" class="cls-23" d="M343.38,845.73c.79-3.43,3.89-5.21,6.71-7.1,2.9,3.69,4.67,8.44,6.62,13a67.45,67.45,0,0,1-13.33-5.91"></path><path id="path130" class="cls-22" d="M359.55,873.13c-.11,2.8.28,7.3.41,10.24a10.36,10.36,0,0,0,4.06-.88c.15-3.46-1.1-6.66-1.46-9.82C361.82,872.47,360.47,873.19,359.55,873.13Zm-29-16A146.41,146.41,0,0,0,336.8,888c7.25,2.2,16,2.39,22.39.41-1.17-5.65-.66-12.53-1.35-18.56-.52-4.53-.25-9.09-1-13.71C349.11,854.52,338.14,855.75,330.52,857.18Zm28.19-1c-.06,4.86.22,9.64.59,14.51,1.87-.28,3.13-.47,4.86-.85-.56-4.68-.49-9.94-1.64-14.08A11.54,11.54,0,0,0,358.71,856.2Zm9.46-.78a11.57,11.57,0,0,0-2.76,0c.4,4,1.36,8.32,1.7,12.48,1.33,0,2-.59,3.13-.8.06-3.65-.31-8.67-2.07-11.69Zm14.32,13.08c2.77-.67,4.51-4.07,3.74-7.55-.53-2.35-1.45-6.76-2.44-8.26-.74-1.11-2.72-2.56-4.31-1.54-2.58,1.65-7.13,2.13-9,4.13.95,3.14,1.24,7.46,1.63,11.44,3.22.2,7.19-.89,9.87.27-1.87.6-4.3.61-5.92,1.49,1.32.64,4.42.51,6.44,0Zm-25.78-16.86c-1.95-4.57-3.72-9.32-6.62-13-2.82,1.89-5.92,3.67-6.71,7.1A67.45,67.45,0,0,0,356.71,851.64Zm4.8-14.17c-.19,4.57-.71,10.58-1.93,14.17a106.36,106.36,0,0,0,7.71-12.23A4.45,4.45,0,0,0,361.51,837.47Zm-5.44-1.94c-1.1-.12-2,1.27-3.48.67-.32.36-.62.76-1,1.11,3.17,3.82,4.61,9.24,7.06,13.72,1.31-4.31,1.16-9,1.45-13.73C358.33,837.41,357.33,835.67,356.07,835.53Zm-3.5-4.61a10.2,10.2,0,0,0,.45,3.23C357.32,835.49,356.57,828.25,352.57,830.92Zm-4.77-1.57a26.64,26.64,0,0,0-7-2.57c-3-.57-2.69,4-2.56,6.8.1,2.17,1.23,4.48,1.72,5.92.23.68.28,1.4.86,1.53,1,.24,4.39-1.11,5.35-1.63,2-1.11,3.6-2.87,5.33-4,0-.57,0-1.14.07-1.72a9.27,9.27,0,0,0-3.76-1c1-.52,2.55-.51,3.49-1.13l0-.68C349.59,830.73,348.94,830,347.8,829.35Zm-17.68-3.21c-1.54,1.56,4.31,3.69,6.17,3.8,0-1,.56-1.92.45-2.63C334.53,826.92,331.62,827.18,330.12,826.14Zm18.93.73c0,.15-.21.1-.24.22,2,1.55,3.45,1.87,6.14,1.73,1.21-.88,2.29-1.91,3.55-2.73C355.59,826.35,351.93,828.15,349.05,826.87Zm17.38,5.27c-.09-1.73-.54-5.3-1.61-5.92-2.25-1.32-6.25,2.65-7.94,3.25a5,5,0,0,1,.51,1.63,4.8,4.8,0,0,1,3.09.35,6.25,6.25,0,0,0-2.78.58c-.25.71.06,1.67-.11,2.64a34,34,0,0,0,8.12,1.12A6,6,0,0,0,366.43,832.14Zm-38.9-4.49c-.48-.35-3.75-4.6-4.2-4.42-5.9,2.33-11.43,6.36-16.36,10.17,4.7,10.1,6.6,22.47,6.94,34.4,5.39,2.52,10.13,6.15,17.44,6.53-.84-6-1.62-11.33-2.1-17-1.84-.77-4.47,0-6.19-.24,0-2.07,2.62-.91,2.84-2.3.17-1.06-1.45-1.14-.92-2.8,1.34.49,2,1.57,3.48,2,1.31-2.87,0-7.94.17-10.34,0-.45.23-2.49,1.24-2.13s-.06,5.43,0,7.7c.09,2.09-.25,4.11.6,5.42a202.59,202.59,0,0,1,21.9-1.79,55.65,55.65,0,0,1-5.87-2.64c-1.19-.67-4.94-2.07-5.28-3.2-.55-1.79,1.43-2.75,1.77-4.29-3.57,1.94-4.26-1.87-5.11-4.57a35.09,35.09,0,0,1-1.38-5.68,61.8,61.8,0,0,1-9-4.83Zm35.77-3.9c4.93-2.39,5.81,8.92,3.88,12.56.3,1.08,1.33,1.5,1.75,2.48-2.75,4.92-5.8,9.51-8.6,14.37,2.08-1.29,5.06-.23,7.51-1.2.9-.35,1.55-2.41,2.23-4.05a87.77,87.77,0,0,0,4.7-14.53,18.16,18.16,0,0,0,.61-4c-.21-1.57-2.34-2.73-3.42-3.7-2-1.79-3.24-3.36-5.32-5-.84,1.24-2.65,2.07-3.34,3.09Zm-47-43.66c-2.34,2.58-1.85,7.42-1.57,10.86,4.24-2.67,9.87.21,9.82,4.75,2-.06.75-2.53.39-4.12-1.2-5.21,2-10.87.14-15.63a12.91,12.91,0,0,0-8.78,4.14Zm16.78-15c-5.31,1.5-12.11,5.36-14.29,10.13,1.69-.25,2.86-1.1,4.53-1.2a11.89,11.89,0,0,0,2.18.08c1.44-.36,2.66-3.59,3.74-4.8s2.34-1.67,3.21-2.74c.56-.28,1.39-.26,1.42-1.1C333.6,765.23,333.35,765,333.05,765.12Zm27.64,1.41c-5.51-3.11-14.83-5.45-20.7-2.52-4.73,2.35-11.12,6.26-13.3,11.2,2,4.77-.61,9.15-.77,14-.09,2.58,1.21,4.83,1.31,7.64-.7,1.15-2.83,1.29-4.3,1.21-.5-2.48-1.36-5.27-3.92-5.55a5.93,5.93,0,0,0-6.43,5.72c-.19,3.68,2.83,9.78,7.11,9.36,1.65-.17,2.06-1.82,3.86-1.81,1,2-1.51,2.56-1.76,4a10.81,10.81,0,0,0,.36,2.42,33.07,33.07,0,0,0,4.22,9.82c2.17,3.1,6.42,3.57,11,3.87.82-1.76,3.83-1.61,5.79-1.15-2.35-.93-4.54-3.19-6.35-5.19-2.08-2.29-4.19-4.75-4.3-7.75,3.94,5.46,7.19,10.22,14.34,12.62,5.41,1.82,11.73-.83,15.89-3.75,1.72-1.21,2.75-3.14,4-4.9,4.59-6.6,6.73-16,6.26-25.16-.2-3.76-.19-7.52-1.45-10s-5.79-5-8.4-2.62c-.49-2.58,2.17-4.17,5.29-3.24-2.22-2.88-4.56-6.33-7.73-8.12Zm10.27,85c4.31-2.14,12.36-5.77,15.06,0a50.26,50.26,0,0,1,2.68,7.92c.73,3.1-.79,9.61-4,10.65a18.87,18.87,0,0,1-9.48.18,5.13,5.13,0,0,1-1.15-1.51,13.19,13.19,0,0,0-6.6,1.12c.18,1.79-1,2.08-2.16,2.45-.84,3.33,1.68,7.69,1.08,10.73-.43,2.16-3.1,2.5-5.06,2.9a17.26,17.26,0,0,0,.22,3.23c-.44,1.65-2.45,2.59-4.36,2.82-6.26.75-15.77,1.09-21.79-1.08-1.68-4.12-3-9.13-4.4-13.84-5.88.63-10.63-2.53-15.11-4.61-1.55-.72-3.7-1.11-4.27-2.35s-.34-3.48-.48-5.65c-.35-5.52-.65-10.85-2.11-16.51-.66-2.54-1.8-4.78-2.6-7.23-.73-2.26-2-5.07-2.36-7.33-.49-3.35,2.66-3.53,4.68-5,3.12-2.24,5.57-3.48,9-5.51,1-.6,4-2.12,4.36-2.82.68-1.39-1.17-3.34-1.67-4.43a13.35,13.35,0,0,1-1.3-4.88,9.38,9.38,0,0,1-6.28-4c-2.15-3.15-3.64-9-1.78-13.4.14-.35.87-1,1-1.57.21-1.06-.4-2.46-.44-3.58-.19-5.76,1-10.72,4.85-12.46,1.57-6.26,7.2-8.35,12.51-11.46a38.61,38.61,0,0,1,6.43-2.74c8.1-3,20.52-2.42,27.24,2.66,2.85,2.16,7.41,6.71,9,10,4.3,8.7,4,23.24,1,33.82a34.28,34.28,0,0,1-1.81,5.21c-.58,1.2-2.35,3.58-2.14,4.63s4.05,4,4.87,4.79c1.48,1.42,4.29,3.32,4.52,5.12s-.85,4.53-1.4,6.38c-1.84,6.16-3.64,11.86-5.73,17.36"></path><path id="path132" class="cls-15" d="M342.23,808.83c.23-.31,1.52-.78,3.32.08,0,0-2.13.36-2,3.91l-.88-.18s-.92-3.22-.48-3.81"></path><path id="path134" class="cls-24" d="M357.79,839.36a1,1,0,0,1-2,0,1,1,0,1,1,2,0"></path><path id="path136" class="cls-24" d="M358.77,843.88a1,1,0,1,1-1.95,0,1,1,0,0,1,1.95,0"></path></g><g id="text5675" class="cls-1"><g class="cls-1"><path d="M461.09,804.17c-1,.13-1.85.25-2.54.38s-1.49.3-2.36.52a2.7,2.7,0,0,0-2,1.46,6.23,6.23,0,0,0-.43,2.4v29.3a16.78,16.78,0,0,1-1.63,7.42,16.14,16.14,0,0,1-4.47,5.66,20.7,20.7,0,0,1-6.44,3.39,24.82,24.82,0,0,1-7.6,1.14q-7,0-11.29-3.37a11.11,11.11,0,0,1-4.29-9.25,8.51,8.51,0,0,1,2-5.76,6.8,6.8,0,0,1,5.42-2.29,7,7,0,0,1,5.18,1.91,6.38,6.38,0,0,1,1.93,4.72,6.88,6.88,0,0,1-1.67,4.44,25.51,25.51,0,0,1-3.8,3.76v.49a2.83,2.83,0,0,0,1.47,1.27,5.36,5.36,0,0,0,2.29.53,8.58,8.58,0,0,0,7.08-3.23q2.56-3.21,2.57-9.74v-30a5.3,5.3,0,0,0-.42-2.24,3.61,3.61,0,0,0-2-1.58,14.38,14.38,0,0,0-2.73-.82c-1.06-.23-1.95-.39-2.65-.49v-2.92h28.38Z"></path><path d="M505.5,845.43a22.59,22.59,0,0,1-3.16,4,19.25,19.25,0,0,1-4.22,3.24,23.1,23.1,0,0,1-5.07,2.15,21.5,21.5,0,0,1-5.9.73,26.2,26.2,0,0,1-9.56-1.57,18.8,18.8,0,0,1-6.65-4.23,16.84,16.84,0,0,1-3.91-6.27,23.21,23.21,0,0,1-1.29-7.85,19.63,19.63,0,0,1,5.39-13.55,18.87,18.87,0,0,1,6.42-4.31,21.9,21.9,0,0,1,8.67-1.65,24.66,24.66,0,0,1,8.61,1.28,15.14,15.14,0,0,1,5.58,3.52,12.8,12.8,0,0,1,3.11,5,19.27,19.27,0,0,1,1,6.09v2.43H479.18q0,7.68,3,11.68t9.39,4a10.88,10.88,0,0,0,6.33-1.93,17.86,17.86,0,0,0,4.79-4.89Zm-14.3-14.22c0-1.5-.08-3-.23-4.61a15.65,15.65,0,0,0-.78-3.86,6,6,0,0,0-1.75-2.66,4.29,4.29,0,0,0-2.78-.89,5.18,5.18,0,0,0-4.61,2.92c-1.15,1.94-1.77,5-1.87,9.24Z"></path><path d="M558.52,854.38H536v-2.73l1.72-.19a4.73,4.73,0,0,0,1.53-.37,2.44,2.44,0,0,0,1.13-1.2,6.27,6.27,0,0,0,.33-2.32V830a9.76,9.76,0,0,0-1.4-5.74,4.8,4.8,0,0,0-4.15-1.93,8.47,8.47,0,0,0-2.8.45,10.18,10.18,0,0,0-2.53,1.31,8.75,8.75,0,0,0-1.75,1.53c-.44.53-.81,1-1.11,1.39v20.11a5.62,5.62,0,0,0,.38,2.19,2.65,2.65,0,0,0,1.23,1.33,7.78,7.78,0,0,0,1.5.6,13.17,13.17,0,0,0,1.76.37v2.73H509.1v-2.73q.93-.07,1.89-.21a8.41,8.41,0,0,0,1.62-.35,2.76,2.76,0,0,0,1.65-1.28,4.82,4.82,0,0,0,.45-2.24V825.78a4.81,4.81,0,0,0-.6-2.29,5.28,5.28,0,0,0-1.57-1.83,6.25,6.25,0,0,0-1.7-.75,11.76,11.76,0,0,0-2.27-.41v-2.74l17.86-1,.56.56v5.43h.15l2.55-2.25a25,25,0,0,1,2.77-2.13,13.5,13.5,0,0,1,3.63-1.54,17.71,17.71,0,0,1,4.79-.63q6.11,0,9.16,3.46a13.41,13.41,0,0,1,3.05,9.19v18.35a5,5,0,0,0,.41,2.21,2.91,2.91,0,0,0,1.54,1.31,12.78,12.78,0,0,0,1.48.53,11.53,11.53,0,0,0,2,.37Z"></path><path d="M610,854.38H592.39q-3.25-5.71-5.94-9.69t-5.09-7.38l-2.21,1.87v8.16a5.2,5.2,0,0,0,.4,2.21,2.49,2.49,0,0,0,1.51,1.28,9.62,9.62,0,0,0,1.57.52,11.27,11.27,0,0,0,1.8.3v2.73H561.18v-2.73c.63,0,1.25-.12,1.88-.21a9.63,9.63,0,0,0,1.66-.35,2.68,2.68,0,0,0,1.64-1.28,5,5,0,0,0,.44-2.24V805.82a6.84,6.84,0,0,0-.55-2.57,4.17,4.17,0,0,0-1.59-2,6.62,6.62,0,0,0-2.13-.75,18.3,18.3,0,0,0-2.59-.37v-2.74l18.65-1,.56.6v38.64c1.85-1.65,3.92-3.56,6.23-5.73s4.16-4,5.55-5.39a4.88,4.88,0,0,0,1.37-1.93,5.5,5.5,0,0,0,.13-.8c0-.45-.39-.83-1.18-1.13a17.52,17.52,0,0,0-3.56-.78v-2.66h19v2.58a39.6,39.6,0,0,0-5.7,2,33.48,33.48,0,0,0-4.28,2.45c-1,.67-2,1.38-3,2.12s-2.06,1.66-3.31,2.76q3.67,5.31,6.77,9.84t6.5,9.58a5.7,5.7,0,0,0,2.88,2.36,14.25,14.25,0,0,0,3.44.75Z"></path><path d="M634.12,854.38H610.46v-2.73c.64,0,1.28-.11,1.91-.19a6.51,6.51,0,0,0,1.6-.37,3.1,3.1,0,0,0,1.69-1.29,4.52,4.52,0,0,0,.49-2.23V825.78a4.39,4.39,0,0,0-.6-2.31,5,5,0,0,0-1.5-1.59,8.16,8.16,0,0,0-2-.86,13.21,13.21,0,0,0-2.49-.52v-2.74l18.35-1,.56.56v29.73a4.22,4.22,0,0,0,.56,2.23,3.39,3.39,0,0,0,1.61,1.37,14.31,14.31,0,0,0,1.65.6,12.38,12.38,0,0,0,1.87.37Zm-5.47-51.07a6.34,6.34,0,0,1-2.19,4.85,7.77,7.77,0,0,1-10.41,0,6.49,6.49,0,0,1,0-9.72,7.74,7.74,0,0,1,10.43,0A6.41,6.41,0,0,1,628.65,803.31Z"></path><path d="M687,854.38h-22.5v-2.73l1.72-.19a4.73,4.73,0,0,0,1.53-.37,2.44,2.44,0,0,0,1.13-1.2,6.27,6.27,0,0,0,.33-2.32V830a9.76,9.76,0,0,0-1.4-5.74,4.81,4.81,0,0,0-4.15-1.93,8.47,8.47,0,0,0-2.8.45,10.18,10.18,0,0,0-2.53,1.31,8.75,8.75,0,0,0-1.75,1.53c-.44.53-.81,1-1.11,1.39v20.11a5.62,5.62,0,0,0,.38,2.19,2.65,2.65,0,0,0,1.23,1.33,7.78,7.78,0,0,0,1.5.6,13.17,13.17,0,0,0,1.76.37v2.73H637.56v-2.73q.95-.07,1.89-.21a8.52,8.52,0,0,0,1.63-.35,2.76,2.76,0,0,0,1.65-1.28,4.82,4.82,0,0,0,.45-2.24V825.78a4.81,4.81,0,0,0-.6-2.29,5.28,5.28,0,0,0-1.57-1.83,6.25,6.25,0,0,0-1.7-.75,11.76,11.76,0,0,0-2.27-.41v-2.74l17.86-1,.56.56v5.43h.15l2.55-2.25a25,25,0,0,1,2.77-2.13,13.5,13.5,0,0,1,3.63-1.54,17.71,17.71,0,0,1,4.79-.63q6.1,0,9.16,3.46a13.41,13.41,0,0,1,3,9.19v18.35a5,5,0,0,0,.41,2.21,2.91,2.91,0,0,0,1.54,1.31,12.78,12.78,0,0,0,1.48.53,11.53,11.53,0,0,0,2,.37Z"></path><path d="M707.81,855.66a24.05,24.05,0,0,1-7.1-1.07,23,23,0,0,1-5.37-2.27l-1.12,2.55H691.3l-.49-14h2.73a18.85,18.85,0,0,0,1.87,3.8,21.29,21.29,0,0,0,3,3.8,16.66,16.66,0,0,0,4,2.85,10.5,10.5,0,0,0,4.84,1.16,8,8,0,0,0,5.08-1.33,4.92,4.92,0,0,0,1.66-4.1,4,4,0,0,0-.74-2.47,6.36,6.36,0,0,0-2.06-1.68,19,19,0,0,0-3.21-1.28l-4.28-1.27a41.42,41.42,0,0,1-4.36-1.52,14.72,14.72,0,0,1-3.77-2.41,11.12,11.12,0,0,1-2.69-3.52,11,11,0,0,1-1-4.91,10.09,10.09,0,0,1,4.43-8.53q4.44-3.27,11.63-3.26a26.76,26.76,0,0,1,6.27.69,31.3,31.3,0,0,1,4.81,1.52l.79-2.21h2.84l.6,12.77h-2.62a15.48,15.48,0,0,0-4.49-6.73,10.17,10.17,0,0,0-6.85-2.82,7.52,7.52,0,0,0-4.53,1.2,3.89,3.89,0,0,0-1.65,3.33,4.31,4.31,0,0,0,2.41,4.12,32.38,32.38,0,0,0,6.75,2.39q6.69,1.72,9.79,4.7a10.07,10.07,0,0,1,3.1,7.59,10.94,10.94,0,0,1-4.81,9.51Q715.56,855.65,707.81,855.66Z"></path></g></g></g><path class="cls-25" d="M671.67,365.33l-8.41-2.78a5.3,5.3,0,0,1-3.31-3.13l-8.7-22.26a5.32,5.32,0,0,1,.32-4.57l4.36-7.75a5.33,5.33,0,0,0-1.31-6.78L648.37,313a5.33,5.33,0,0,0-6.89.15L634.91,319a5.35,5.35,0,0,1-4.35,1.27l-23.66-3.61a5.36,5.36,0,0,1-3.82-2.58l-4.54-7.77A5.35,5.35,0,0,0,592,304l-7.52,2.84a5.34,5.34,0,0,0-3.36,6l1.66,8.47a5.38,5.38,0,0,1-1.07,4.38l-15.67,19.56a5.39,5.39,0,0,1-4.08,2l-8.82.15a5.34,5.34,0,0,0-5.19,4.54l-1.2,7.94a5.33,5.33,0,0,0,3.61,5.87l8.42,2.78a5.33,5.33,0,0,1,3.3,3.13l3.66,9.36,5.05,12.9a5.35,5.35,0,0,1-.31,4.57l-4.36,7.75a5.36,5.36,0,0,0,1.3,6.79l6.25,5.05a5.33,5.33,0,0,0,6.9-.16l6.57-5.78a5.35,5.35,0,0,1,4.34-1.28l22.09,3.37,1.58.24a5.33,5.33,0,0,1,3.8,2.59l4.55,7.76a5.34,5.34,0,0,0,6.5,2.31l7.53-2.84a5.35,5.35,0,0,0,3.36-6l-1.67-8.47a5.37,5.37,0,0,1,1.08-4.37L656,385.85a5.3,5.3,0,0,1,4.08-2l8.82-.17a5.34,5.34,0,0,0,5.2-4.54l1.19-7.94A5.33,5.33,0,0,0,671.67,365.33Zm-38.8,3.11a22,22,0,1,1-18.1-24.61A22,22,0,0,1,632.87,368.44Z"></path><path class="cls-25" d="M563.23,330.14l-6.34-2.64a4.13,4.13,0,0,1-2.38-2.62l-5.43-17.73a4.14,4.14,0,0,1,.52-3.52l3.82-5.74a4.14,4.14,0,0,0-.61-5.33l-4.54-4.27a4.16,4.16,0,0,0-5.35-.29l-5.42,4.1a4.17,4.17,0,0,1-3.43.73L516,288.65a4.16,4.16,0,0,1-2.8-2.22l-3.06-6.28a4.15,4.15,0,0,0-4.9-2.16l-6,1.75a4.15,4.15,0,0,0-3,4.47l.79,6.65a4.18,4.18,0,0,1-1.08,3.33L482.7,308.41a4.15,4.15,0,0,1-3.27,1.31l-6.83-.4a4.15,4.15,0,0,0-4.29,3.21l-1.39,6.07a4.13,4.13,0,0,0,2.45,4.76l6.35,2.64a4.12,4.12,0,0,1,2.37,2.62l4.61,15,.83,2.71a4.18,4.18,0,0,1-.52,3.52l-3.82,5.74a4.14,4.14,0,0,0,.6,5.32l4.54,4.28a4.15,4.15,0,0,0,5.35.28l5.43-4.09a4.15,4.15,0,0,1,3.43-.73l18.1,4.18a4.11,4.11,0,0,1,2.79,2.23l3.07,6.26a4.13,4.13,0,0,0,4.89,2.17l6-1.75a3.66,3.66,0,0,0,.79-.33,4.14,4.14,0,0,0,2.17-4.15l-.8-6.65a4.19,4.19,0,0,1,1.09-3.32l13.28-14.21a4.09,4.09,0,0,1,3.27-1.31l6.83.39A4.16,4.16,0,0,0,564.3,341l1.39-6.07A4.14,4.14,0,0,0,563.23,330.14Zm-63.65-6.92a17.09,17.09,0,1,1,12.56,20.11A17.09,17.09,0,0,1,499.58,323.22Z"></path><g class="cls-26"><path class="cls-27" d="M533.49,372.58c.22.29.44.58.68.85a3.66,3.66,0,0,1-.79.33l-6,1.75a4.13,4.13,0,0,1-4.89-2.17l-3.07-6.26a4.11,4.11,0,0,0-2.79-2.23l-18.1-4.18a4.15,4.15,0,0,0-3.43.73l-5.43,4.09a4.15,4.15,0,0,1-5.35-.28l-4.54-4.28a4.14,4.14,0,0,1-.6-5.32l3.82-5.74a4.18,4.18,0,0,0,.52-3.52l-.83-2.71C502.17,346.2,520.56,355.44,533.49,372.58Z"></path><path class="cls-27" d="M613.6,414.23l-22.09-3.37a5.35,5.35,0,0,0-4.34,1.28l-6.57,5.78a5.33,5.33,0,0,1-6.9.16L567.45,413a5.36,5.36,0,0,1-1.3-6.79l4.36-7.75a5.35,5.35,0,0,0,.31-4.57L565.77,381c12.59-.71,24.89,4.39,34.16,12.81.53.48,1,1,1.53,1.46s.73.73,1.1,1.11c.16.17.32.33.48.51q.59.63,1.17,1.29a1.09,1.09,0,0,0,.15.18q.67.78,1.32,1.59c.45.57.88,1.14,1.3,1.71s.82,1.16,1.21,1.73.78,1.18,1.13,1.78.73,1.21,1.06,1.82A48,48,0,0,1,613.6,414.23Z"></path></g><path class="cls-28" d="M646.68,531a65.66,65.66,0,0,1-2.81,7.79c-5.65,13.13-15.43,24.29-28.88,30.3a53.67,53.67,0,0,1-7.4,2.68A57.76,57.76,0,0,1,594,573.84c-1.48,0-3,0-4.52,0l-1.86-.09v.09H414.2c-21.07.7-38-7.73-49.78-20.75-.25-.28-.51-.57-.76-.87s-.57-.65-.84-1c-1.22-1.42-2.37-2.91-3.44-4.44q-.57-.76-1.08-1.56c-.79-1.15-1.53-2.33-2.23-3.51-.35-.59-.68-1.17-1-1.76l-.28-.51-.68-1.27c-.31-.61-.63-1.21-.91-1.81s-.51-1-.75-1.57a76.61,76.61,0,0,1-3.72-9.76c-8.4-27.34-2-59.44,23-77.34a25.85,25.85,0,0,0,7.9-9,24.8,24.8,0,0,0,2.84-11.62c-.23-37.75,26.15-64.7,58-75s69.29-3.86,91.15,25.1a25.85,25.85,0,0,0,11.14,8.51,22.92,22.92,0,0,0,13.82,1c15-3.64,30.41,1.68,41.48,11.74.52.48,1,1,1.53,1.46.38.35.73.73,1.09,1.11.17.16.32.33.49.51l1.17,1.28a1.15,1.15,0,0,0,.14.19c.46.52.89,1.05,1.32,1.58s.89,1.15,1.31,1.72.82,1.16,1.2,1.72.78,1.19,1.14,1.79.72,1.2,1,1.82a43.11,43.11,0,0,1,5.2,27,21.31,21.31,0,0,0-.22,3.46,22.73,22.73,0,0,0,2.55,10,27.46,27.46,0,0,0,6.9,8.58,29.7,29.7,0,0,0,2.38,1.8c14.81,10.12,22.52,26.21,23.94,43A70.26,70.26,0,0,1,646.68,531Z"></path><path class="cls-19" d="M615.3,503.89A20.11,20.11,0,0,0,601,498a20.31,20.31,0,0,0-3.33.28l-8.55-22.18-8.49-22a20.21,20.21,0,1,0-23.37-32.34,20.28,20.28,0,0,0-4.72,7.42l-36.91-5.83-29.39-4.64a27.16,27.16,0,0,0,.15-2.87,27.62,27.62,0,1,0-43.78,22.37l-11.85,23.49-12.49,24.73a26.08,26.08,0,1,0,15.25,31.45q11.3.87,22.62,1.54,24.15,1.44,48.32,1.94c8.06.16,16.11.28,24.17.27s16.11-.15,24.16-.49l24.13-.73,4-.12a20.21,20.21,0,1,0,34.39-16.35ZM436.51,464.7l12.81-23a27.62,27.62,0,0,0,36.22-19.09l29.17,5.85,36.64,7.35V436a20.34,20.34,0,0,0,1.21,6.92q-30,17.67-61.55,32.52Q462.24,489,432.35,500a26.18,26.18,0,0,0-5.42-7.93,26.78,26.78,0,0,0-3.91-3.22Zm140.37,51.85-24.08-.18c-8,0-16-.13-24-.42s-16-.71-24-1.17q-24-1.41-47.93-3.73Q445.9,510,435,508.74a.21.21,0,0,1-.19-.16l-1-4.2q30.3-10.49,59.67-23.52,32.13-14.28,62.88-31.53.43.5.9,1a20.14,20.14,0,0,0,14.29,5.92h4.38a.33.33,0,0,1,.31.22l7.19,21.68,7.49,22.56a20.15,20.15,0,0,0-10.06,15.91Z"></path></g></g></g></svg>