<svg xmlns="http://www.w3.org/2000/svg" xmlns:xlink="http://www.w3.org/1999/xlink" viewBox="0 0 417.86 391.55"><defs><style>.cls-1{fill:none;}.cls-2{isolation:isolate;}.cls-3{fill:#2e2e76;}.cls-4,.cls-8{fill:#cee0f2;}.cls-4{mix-blend-mode:overlay;opacity:0.18;}.cls-5{fill:#0c7ff2;}.cls-6{clip-path:url(#clip-path);}.cls-7{fill:#fff;}.cls-8{fill-rule:evenodd;}.cls-9{fill:#9caab8;mix-blend-mode:multiply;opacity:0.48;}</style><clipPath id="clip-path"><path class="cls-1" d="M373.3,95.58c0,3.13-1.9,6.13-5.76,8.36L224.25,186.66c-8.56,5-23.5,4.32-33.38-1.38L52.39,105.33c-5.08-2.91-7.83-6.62-8.16-10.17v-1.3c.22-3,2.12-5.7,5.76-7.8L193.26,3.33c8.56-4.94,23.5-4.31,33.38,1.39l138.48,80C370.53,87.8,373.3,91.78,373.3,95.58Z"></path></clipPath></defs><g class="cls-2"><g id="Layer_2" data-name="Layer 2"><g id="Layer_1-2" data-name="Layer 1"><path class="cls-3" d="M373.3,95.58c0,3.13-1.9,6.13-5.76,8.36L224.25,186.66c-8.56,5-23.5,4.32-33.38-1.38L52.39,105.33c-5.08-2.91-7.83-6.62-8.16-10.17v-1.3c.22-3,2.12-5.7,5.76-7.8L193.26,3.33c8.56-4.94,23.5-4.31,33.38,1.39l138.48,80C370.53,87.8,373.3,91.78,373.3,95.58Z"></path><path class="cls-4" d="M373.3,95.58a8,8,0,0,1-1.46,4.56A18.49,18.49,0,0,0,365.12,94L226.64,14.08c-9.88-5.71-24.82-6.33-33.38-1.39L50,95.41a12.85,12.85,0,0,0-4.33,3.83,9.56,9.56,0,0,1-1.44-4.08v-1.3c.23-3,2.13-5.7,5.77-7.8L193.26,3.34c8.56-4.94,23.5-4.32,33.38,1.38l138.48,80C370.53,87.8,373.3,91.78,373.3,95.58Z"></path><path class="cls-5" d="M373.3,95.58V297.13c0,3.13-1.89,6.13-5.77,8.37L224.25,388.22c-4.11,2.37-9.7,3.47-15.49,3.32a38.26,38.26,0,0,1-17.9-4.68l-138.47-80c-5.08-2.91-7.83-6.62-8.16-10.17V95.16c.33,3.55,3.08,7.26,8.16,10.17l138.47,80a38.6,38.6,0,0,0,17.9,4.69c5.79.16,11.38-.94,15.49-3.31l143.28-82.72C371.41,101.71,373.3,98.71,373.3,95.58Z"></path><path class="cls-5" d="M208.76,190V391.54a38.26,38.26,0,0,1-17.9-4.68l-138.47-80c-5.08-2.91-7.83-6.62-8.16-10.17V95.16c.33,3.55,3.08,7.26,8.16,10.17l138.47,80A38.6,38.6,0,0,0,208.76,190Z"></path><g class="cls-6"><path class="cls-7" d="M143.22,94.55a5.5,5.5,0,0,0,4.68,5.33l9,1.36a5.48,5.48,0,0,1,3.89,2.6l12.66,21a5.53,5.53,0,0,1,.47,4.69l-3.08,8.6a5.48,5.48,0,0,0,2.48,6.64l7.21,4.05a5.5,5.5,0,0,0,7-1.35l5.66-7a5.54,5.54,0,0,1,4.18-2l24.59-.42a5.48,5.48,0,0,1,4.3,2l5.95,7.07a5.49,5.49,0,0,0,7,1.22l7.14-4.17a5.51,5.51,0,0,0,2.37-6.7l-3.15-8.29a5.5,5.5,0,0,1,.33-4.62L258.35,102a5.42,5.42,0,0,1,3.78-2.73L271,97.61a5.49,5.49,0,0,0,4.48-5.5l-.16-8.24a5.48,5.48,0,0,0-4.68-5.33l-9-1.36a5.46,5.46,0,0,1-3.9-2.61l-12.65-21a5.53,5.53,0,0,1-.47-4.69l3.08-8.6a5.48,5.48,0,0,0-2.49-6.65l-7.21-4a5.47,5.47,0,0,0-7,1.34l-5.66,7a5.49,5.49,0,0,1-4.18,2l-24.59.43a5.5,5.5,0,0,1-4.31-2l-6-7.09a5.49,5.49,0,0,0-7-1.21l-7.13,4.17A5.49,5.49,0,0,0,169.93,41l3.15,8.3a5.51,5.51,0,0,1-.33,4.61L160.24,76.4a5.53,5.53,0,0,1-3.78,2.73l-8.91,1.67a5.51,5.51,0,0,0-4.48,5.5Zm66.11-28A22.64,22.64,0,1,1,186.67,90,22.7,22.7,0,0,1,209.33,66.58Z"></path></g><path class="cls-8" d="M208.76,190,167.1,249.35a15.09,15.09,0,0,1-20.24,4.18L7.18,167.63A15.07,15.07,0,0,1,3,145.76l42.65-57Z"></path><path class="cls-8" d="M211.9,190.09,255,246a15.26,15.26,0,0,0,20.2,3.81l135.92-86.67A14.93,14.93,0,0,0,414.3,141l-43.6-53Z"></path><path class="cls-9" d="M373.3,284.72v12.41c0,3.14-1.9,6.14-5.77,8.37L224.25,388.23c-4.12,2.37-9.7,3.46-15.49,3.31a38.26,38.26,0,0,1-17.9-4.68l-138.47-80c-5.08-2.9-7.83-6.61-8.16-10.17V284.3c.33,3.55,3.08,7.26,8.16,10.17l138.47,80a38.26,38.26,0,0,0,17.9,4.68c5.79.15,11.37-.95,15.49-3.32l143.28-82.72C371.4,290.85,373.3,287.85,373.3,284.72Z"></path><path class="cls-8" d="M208.76,190l-3.54,5L45.65,96,3,153a15,15,0,0,0-2.57,5.39A15,15,0,0,1,3,145.76L45.65,88.81Z"></path><path class="cls-8" d="M417.41,154.4a15.42,15.42,0,0,0-3.11-6.19L370.7,95.16,215.63,194.93l-3.73-4.84L370.7,87.92,414.3,141A15.3,15.3,0,0,1,417.41,154.4Z"></path></g></g></g></svg>