<svg xmlns="http://www.w3.org/2000/svg" viewBox="0 0 1024 1024"><defs><style>.cls-1{isolation:isolate;}.cls-2{fill:#0c7ff2;}.cls-3{mix-blend-mode:overlay;opacity:0.2;}.cls-4{fill:#ebf0f5;}.cls-5{fill:none;}</style></defs><g class="cls-1"><g id="Layer_2" data-name="Layer 2"><g id="Layer_1-2" data-name="Layer 1"><path class="cls-2" d="M241.19,543.52A25.19,25.19,0,0,0,262.64,568L304,574.21a25.23,25.23,0,0,1,17.83,11.95l58.09,96.56a25.22,25.22,0,0,1,2.14,21.5l-14.14,39.46a25.23,25.23,0,0,0,11.41,30.5l33,18.55a25.22,25.22,0,0,0,32-6.18l25.95-32.1a25.3,25.3,0,0,1,19.19-9.36l112.83-2a25.17,25.17,0,0,1,19.72,9l27.28,32.46a25.22,25.22,0,0,0,32.05,5.59l32.73-19.14a25.24,25.24,0,0,0,10.86-30.73l-14.45-38.05A25.26,25.26,0,0,1,712,681.12l57.37-103.28a25,25,0,0,1,17.37-12.54l40.87-7.73a25.18,25.18,0,0,0,20.54-25.23l-.72-37.83A25.2,25.2,0,0,0,826,470.06l-41.28-6.23a25.07,25.07,0,0,1-17.86-11.95l-58.05-96.56a25.19,25.19,0,0,1-2.14-21.5l14.14-39.46a25.22,25.22,0,0,0-11.46-30.5l-33.05-18.5a25.14,25.14,0,0,0-31.91,6.13l-26,32.1A25.18,25.18,0,0,1,599.22,293l-112.83,2a25.36,25.36,0,0,1-19.77-9L439.34,253.4a25.19,25.19,0,0,0-32-5.54L374.61,267a25.17,25.17,0,0,0-10.87,30.68l14.41,38.05a25.21,25.21,0,0,1-1.5,21.18L319.28,460.24a25.28,25.28,0,0,1-17.36,12.55l-40.87,7.68A25.23,25.23,0,0,0,240.5,505.7Zm303.3-128.33c55.55.05,101.6,44.6,103.6,100.06a103.9,103.9,0,0,1-104,107.64c-55.5-.09-101.6-44.59-103.6-100.1A103.86,103.86,0,0,1,544.49,415.19Z"></path><g class="cls-3"><path class="cls-4" d="M847.43,494.51A25.19,25.19,0,0,0,826,470.06l-41.28-6.23a25.1,25.1,0,0,1-17.86-11.95l-58.05-96.55a23.75,23.75,0,0,1-1.42-2.74l-.72,2a25.25,25.25,0,0,0,2.14,21.51l58.05,96.55a25,25,0,0,0,17.86,11.95L826,490.8a25.19,25.19,0,0,1,21.46,24.45l.41,21.5a23.87,23.87,0,0,0,.31-4.41ZM711,703.83a25.24,25.24,0,0,0-.58,19.22l13.89,36.56a25.13,25.13,0,0,0,.57-19.25Zm9-407.46.71-2a25.24,25.24,0,0,0-11.46-30.51l-33-18.49a25.13,25.13,0,0,0-31.92,6.14l-26,32.08A25.19,25.19,0,0,1,599.22,293L486.39,294.9a25.35,25.35,0,0,1-19.78-9L439.33,253.4a25.16,25.16,0,0,0-32-5.54L374.61,267a25.16,25.16,0,0,0-10.87,30.68l.57,1.5a25,25,0,0,1,10.3-11.44L407.3,268.6a25.18,25.18,0,0,1,32,5.54l27.28,32.5a25.33,25.33,0,0,0,19.78,9l112.83-1.95a25.21,25.21,0,0,0,19.18-9.36l26-32.09a25.13,25.13,0,0,1,31.92-6.14l33,18.5A25.07,25.07,0,0,1,720.07,296.37ZM647.63,529.44a103.89,103.89,0,0,1-103.51,93.45c-53.3-.08-97.91-41.13-103.14-93.54a102.54,102.54,0,0,0-.45,14.18c2,55.51,48.09,100,103.59,100.1A103.9,103.9,0,0,0,648.09,536C648,533.79,647.85,531.6,647.63,529.44ZM367.88,743.68a25.27,25.27,0,0,0,.71,18.77L382,725a25.2,25.2,0,0,0-.71-18.76Zm10.27-387.21L377.6,355c-.29.64-.61,1.28-1,1.89L319.29,460.24a25.31,25.31,0,0,1-17.37,12.55l-40.86,7.68A25.24,25.24,0,0,0,240.5,505.7l.3,16.45a25.22,25.22,0,0,1,20.26-20.94l40.86-7.68A25.31,25.31,0,0,0,319.29,481l57.36-103.33A25.21,25.21,0,0,0,378.15,356.47Z"></path></g><g class="cls-3"><path class="cls-4" d="M720.07,296.37l-13.43,37.44a25.2,25.2,0,0,0,.72,18.78l13.42-37.49A25.21,25.21,0,0,0,720.07,296.37ZM377.6,355a25.32,25.32,0,0,0,.55-19.29l-13.84-36.55a25.2,25.2,0,0,0-.57,19.24Z"></path></g><rect class="cls-5" width="1024" height="1024"></rect></g></g></g></svg>