<svg xmlns="http://www.w3.org/2000/svg" viewBox="0 0 783.37 468.87"><defs><style>.cls-1{isolation:isolate;}.cls-2{fill:#0c7ff2;}.cls-13,.cls-3,.cls-4,.cls-6{mix-blend-mode:multiply;}.cls-3{opacity:0.1;}.cls-4{opacity:0.18;}.cls-12,.cls-5{mix-blend-mode:soft-light;opacity:0.59;}.cls-13,.cls-6{opacity:0.48;}.cls-7{fill:#cee0f2;}.cls-8{fill:#00b3e0;}.cls-9{fill:#2e2e76;}.cls-10{fill:#fff;}.cls-11,.cls-12{fill:#9dc7f2;}.cls-13{fill:#9caab8;}</style></defs><g class="cls-1"><g id="Layer_2" data-name="Layer 2"><g id="Layer_1-2" data-name="Layer 1"><rect id="rect201" class="cls-2" width="783.37" height="468.87"></rect><g class="cls-3"><path d="M632.43,98.08v282A32.48,32.48,0,0,1,600,412.53H227.62a57,57,0,0,1-57-57V98.08Z"></path><path d="M606.63,49.55H196.43a25.79,25.79,0,0,0-25.79,25.79V98.07H632.42V75.34A25.79,25.79,0,0,0,606.63,49.55Z"></path><path d="M566.31,134.39H235a4.49,4.49,0,0,0-4.49,4.49V412.52H570.8V138.88A4.49,4.49,0,0,0,566.31,134.39Z"></path><path d="M283.34,221.78a1.71,1.71,0,0,1-.74-.22l-.73-.36L257,204.29a5.9,5.9,0,0,1-1.62-1.46,3,3,0,0,1-.51-1.75v-1.83a3,3,0,0,1,.51-1.76A6.06,6.06,0,0,1,257,196l24.89-16.9.73-.37a1.71,1.71,0,0,1,.74-.22,1.51,1.51,0,0,1,1,.4,1.38,1.38,0,0,1,.44,1.06v5.56a2.36,2.36,0,0,1-.51,1.61,4.86,4.86,0,0,1-1.33,1l-17.89,11.92,17.89,12a7.63,7.63,0,0,1,1.33,1.06,2.24,2.24,0,0,1,.51,1.58v5.56a1.38,1.38,0,0,1-.44,1.06A1.47,1.47,0,0,1,283.34,221.78Z"></path><path d="M514.87,221.78a1.44,1.44,0,0,1-1.47-1.54v-5.48a2.32,2.32,0,0,1,.52-1.65,5.42,5.42,0,0,1,1.32-1l17.89-12L515.24,188.2a6.78,6.78,0,0,1-1.32-1.06,2.2,2.2,0,0,1-.52-1.58V180a1.34,1.34,0,0,1,.44-1.09,1.55,1.55,0,0,1,1-.37,2.13,2.13,0,0,1,.81.18,3.61,3.61,0,0,1,.74.41L541.23,196a6.38,6.38,0,0,1,1.62,1.42,3,3,0,0,1,.51,1.8V201a3.13,3.13,0,0,1-.51,1.83,5.76,5.76,0,0,1-1.62,1.46L516.42,221.2l-.74.36A1.77,1.77,0,0,1,514.87,221.78Z"></path><rect x="294.98" y="263.76" width="213.55" height="12.03" rx="1.34"></rect><rect x="294.98" y="302.55" width="213.55" height="12.03" rx="1.34"></rect><rect x="294.98" y="339.85" width="213.55" height="12.03" rx="1.34"></rect><rect x="313.54" y="194.3" width="171.79" height="12.03" rx="1.34"></rect><circle cx="156.6" cy="358.64" r="43.09"></circle><g class="cls-4"><path d="M262.8,346a7,7,0,0,0-5.94-6.8l-11.49-1.71a7.09,7.09,0,0,1-5-3.33L224.2,307.31a7,7,0,0,1-.58-6l4-11a7.05,7.05,0,0,0-3.2-8.46l-9.19-5.18a7.06,7.06,0,0,0-8.92,1.71l-7.2,9a6.92,6.92,0,0,1-5.36,2.57l-23.07.45v34.68a28.22,28.22,0,0,1,7.84-1.08,28.92,28.92,0,0,1-.09,57.84,12.18,12.18,0,0,1-1.35-.05,56.88,56.88,0,0,0,50.58,30.77h.32l-3.24-8.61a7.12,7.12,0,0,1,.4-5.9l16-28.78a7,7,0,0,1,4.82-3.47l11.4-2.16a7,7,0,0,0,5.72-7Z"></path></g><path d="M77.64,362.39a7,7,0,0,0,6,6.81l11.5,1.73a7,7,0,0,1,5,3.33l16.18,26.89a7,7,0,0,1,.59,6l-3.93,11a7,7,0,0,0,3.17,8.49l9.2,5.16a7,7,0,0,0,8.9-1.72l7.23-8.93a7,7,0,0,1,5.34-2.61l31.41-.54a7,7,0,0,1,5.5,2.51l7.59,9a7,7,0,0,0,8.92,1.56l9.11-5.33a7,7,0,0,0,3-8.56l-4-10.59a7.05,7.05,0,0,1,.44-5.9l16-28.75a7,7,0,0,1,4.83-3.5l11.38-2.15a7,7,0,0,0,5.72-7l-.2-10.53a7,7,0,0,0-6-6.81L229,340.21a7,7,0,0,1-5-3.33L207.83,310a7,7,0,0,1-.6-6l3.94-11a7,7,0,0,0-3.19-8.49l-9.2-5.15a7,7,0,0,0-8.89,1.71L182.67,290a7,7,0,0,1-5.35,2.61l-31.41.54a7,7,0,0,1-5.5-2.5l-7.6-9.05a7,7,0,0,0-8.92-1.55l-9.1,5.33a7,7,0,0,0-3,8.55l4,10.59a7,7,0,0,1-.42,5.9l-16,28.76a7,7,0,0,1-4.84,3.5l-11.38,2.14a7,7,0,0,0-5.72,7Zm84.45-35.73a28.92,28.92,0,1,1-29,30A29,29,0,0,1,162.09,326.66Z"></path><rect class="cls-5" x="190.9" y="50.15" width="426.35" height="5.84" rx="2.92"></rect><rect class="cls-6" x="170.64" y="98.07" width="461.8" height="5.84" rx="2.92"></rect></g><path class="cls-7" d="M617.52,97.08v282A32.48,32.48,0,0,1,585,411.53H212.71a57,57,0,0,1-57-57V97.08Z"></path><path class="cls-8" d="M181.52,48.55h410.2a25.79,25.79,0,0,1,25.79,25.79V97.07a0,0,0,0,1,0,0H155.72a0,0,0,0,1,0,0V74.34A25.79,25.79,0,0,1,181.52,48.55Z"></path><path class="cls-9" d="M220,133.39H551.4a4.49,4.49,0,0,1,4.49,4.49V411.52a0,0,0,0,1,0,0H215.56a0,0,0,0,1,0,0V137.88A4.49,4.49,0,0,1,220,133.39Z"></path><path class="cls-10" d="M268.43,220.78a1.71,1.71,0,0,1-.74-.22l-.74-.36-24.88-16.91a5.76,5.76,0,0,1-1.62-1.46,3,3,0,0,1-.52-1.75v-1.83a3,3,0,0,1,.52-1.76,5.91,5.91,0,0,1,1.62-1.46L267,178.13l.74-.37a1.71,1.71,0,0,1,.74-.22,1.53,1.53,0,0,1,1,.4,1.38,1.38,0,0,1,.44,1.06v5.56a2.31,2.31,0,0,1-.52,1.61,4.66,4.66,0,0,1-1.32,1l-17.89,11.92,17.89,12a7.18,7.18,0,0,1,1.32,1.06,2.2,2.2,0,0,1,.52,1.58v5.56a1.38,1.38,0,0,1-.44,1.06A1.48,1.48,0,0,1,268.43,220.78Z"></path><path class="cls-10" d="M500,220.78a1.47,1.47,0,0,1-1-.4,1.48,1.48,0,0,1-.44-1.14v-5.48a2.36,2.36,0,0,1,.51-1.65,5.69,5.69,0,0,1,1.33-1l17.89-12L500.33,187.2a7.19,7.19,0,0,1-1.33-1.06,2.24,2.24,0,0,1-.51-1.58V179a1.34,1.34,0,0,1,.44-1.09,1.53,1.53,0,0,1,1-.37,2.17,2.17,0,0,1,.81.18,3.9,3.9,0,0,1,.74.41L526.32,195a6.75,6.75,0,0,1,1.62,1.42,3,3,0,0,1,.51,1.8V200a3.13,3.13,0,0,1-.51,1.83,6.05,6.05,0,0,1-1.62,1.46L501.51,220.2l-.74.36A1.8,1.8,0,0,1,500,220.78Z"></path><rect class="cls-11" x="280.07" y="262.76" width="213.55" height="12.03" rx="1.34"></rect><rect class="cls-11" x="280.07" y="301.55" width="213.55" height="12.03" rx="1.34"></rect><rect class="cls-11" x="280.07" y="338.85" width="213.55" height="12.03" rx="1.34"></rect><rect class="cls-11" x="298.63" y="193.3" width="171.79" height="12.03" rx="1.34"></rect><circle class="cls-10" cx="141.69" cy="357.64" r="43.09"></circle><g class="cls-4"><path d="M247.89,345a7,7,0,0,0-5.94-6.8l-11.49-1.71a7.09,7.09,0,0,1-5-3.33l-16.17-26.89a7,7,0,0,1-.59-6l4-11a7.06,7.06,0,0,0-3.2-8.46l-9.19-5.18a7.06,7.06,0,0,0-8.92,1.71l-7.21,9a6.89,6.89,0,0,1-5.36,2.57l-23.06.45v34.68a28.22,28.22,0,0,1,7.84-1.08,28.92,28.92,0,0,1-.09,57.84,12.18,12.18,0,0,1-1.35-.05,56.88,56.88,0,0,0,50.58,30.77H213l-3.25-8.61a7.12,7.12,0,0,1,.41-5.9l16-28.78a7,7,0,0,1,4.82-3.47l11.4-2.16a7,7,0,0,0,5.72-7Z"></path></g><path class="cls-9" d="M62.73,361.39a7,7,0,0,0,6,6.81l11.51,1.73a7,7,0,0,1,5,3.33l16.18,26.89a7,7,0,0,1,.59,6l-3.94,11a7,7,0,0,0,3.18,8.49l9.2,5.16a7,7,0,0,0,8.9-1.72l7.23-8.93a7,7,0,0,1,5.34-2.61l31.41-.54a7,7,0,0,1,5.49,2.51l7.6,9a7,7,0,0,0,8.92,1.56l9.11-5.33a7,7,0,0,0,3-8.56l-4-10.59a7,7,0,0,1,.43-5.9l16-28.75a7,7,0,0,1,4.83-3.5L226,365.3a7,7,0,0,0,5.72-7l-.2-10.53a7,7,0,0,0-6-6.81l-11.49-1.73a7,7,0,0,1-5-3.33L192.91,309a7,7,0,0,1-.59-6l3.94-11a7,7,0,0,0-3.19-8.49l-9.2-5.15a7,7,0,0,0-8.89,1.71L167.75,289a7,7,0,0,1-5.34,2.61l-31.41.54a7.06,7.06,0,0,1-5.51-2.5l-7.59-9.05a7,7,0,0,0-8.92-1.55l-9.1,5.33a7,7,0,0,0-3,8.55l4,10.59a7,7,0,0,1-.41,5.9l-16,28.76a7,7,0,0,1-4.83,3.5l-11.38,2.14a7,7,0,0,0-5.72,7Zm84.44-35.73a28.92,28.92,0,1,1-28.94,30A29,29,0,0,1,147.17,325.66Z"></path><rect class="cls-12" x="175.99" y="49.15" width="426.35" height="5.84" rx="2.92"></rect><rect class="cls-13" x="155.72" y="97.07" width="461.8" height="5.84" rx="2.92"></rect><rect class="cls-13" x="210.44" y="405.68" width="352.36" height="5.84" rx="2.92"></rect></g></g></g></svg>