<svg xmlns="http://www.w3.org/2000/svg" viewBox="0 0 783.37 468.87"><defs><style>.cls-1{isolation:isolate;}.cls-2{fill:#0c7ff2;}.cls-3{opacity:0.1;}.cls-12,.cls-4,.cls-5{mix-blend-mode:multiply;}.cls-4{opacity:0.4;}.cls-12,.cls-5{opacity:0.48;}.cls-13,.cls-6{mix-blend-mode:soft-light;opacity:0.59;}.cls-7{fill:#fff;}.cls-13,.cls-8{fill:#9dc7f2;}.cls-9{fill:#2e2e76;}.cls-10{fill:#00b3e0;}.cls-11,.cls-12{fill:#9caab8;}</style></defs><g class="cls-1"><g id="Layer_2" data-name="Layer 2"><g id="Layer_1-2" data-name="Layer 1"><rect id="rect201" class="cls-2" width="783.37" height="468.87"></rect><g class="cls-3"><path d="M599.45,96.61V378.38a35.94,35.94,0,0,1-30.16,35.47,36.62,36.62,0,0,1-5.77.46H158.83a35.93,35.93,0,0,1-35.93-35.93V96.61Z"></path><rect x="274.36" y="130.57" width="237.95" height="12.01" rx="1.6"></rect><rect x="274.36" y="171.9" width="217.84" height="12.01" rx="1.6"></rect><rect x="274.36" y="213.22" width="248.48" height="12.01" rx="1.6"></rect><path d="M239.18,414.93H153.6A31.94,31.94,0,0,1,121.65,383V82.6H239.18Z"></path><path d="M572.3,53.68H148.83a27.4,27.4,0,0,0-27.4,27.4V101.4H599.7V81.08A27.4,27.4,0,0,0,572.3,53.68Z"></path><g class="cls-4"><path d="M591.63,311.42V271.05H591a7.48,7.48,0,0,1-5.85-2.66l-8.06-9.6a7.44,7.44,0,0,0-9.47-1.64L558,262.81a7.44,7.44,0,0,0-3.21,9.07L559,283.12a7.46,7.46,0,0,1-.44,6.26l-17,30.53a7.49,7.49,0,0,1-5.13,3.71l-12.08,2.27a7.45,7.45,0,0,0-6.07,7.46l.2,11.17a7.46,7.46,0,0,0,6.34,7.23l12.21,1.84a7.43,7.43,0,0,1,5.27,3.53l17.16,28.53a7.46,7.46,0,0,1,.64,6.36L556,403.67a7.46,7.46,0,0,0,3.37,9l2.09,1.17a35.94,35.94,0,0,0,30.16-35.47V363.11a30.64,30.64,0,0,1,0-51.69Z"></path></g><path d="M533.87,344.52a7.44,7.44,0,0,0,6.34,7.23l12.21,1.84a7.41,7.41,0,0,1,5.26,3.53l17.17,28.53a7.49,7.49,0,0,1,.63,6.36l-4.18,11.65a7.47,7.47,0,0,0,3.37,9l9.77,5.48a7.44,7.44,0,0,0,9.44-1.83l7.67-9.48a7.48,7.48,0,0,1,5.67-2.77l33.34-.58a7.49,7.49,0,0,1,5.83,2.68l8.06,9.59a7.45,7.45,0,0,0,9.47,1.65l9.67-5.65a7.46,7.46,0,0,0,3.21-9.08l-4.27-11.25a7.47,7.47,0,0,1,.46-6.26l17-30.52a7.4,7.4,0,0,1,5.13-3.7l12.08-2.29a7.43,7.43,0,0,0,6.07-7.45L713,330a7.43,7.43,0,0,0-6.34-7.22L694.47,321a7.42,7.42,0,0,1-5.28-3.54L672,288.91a7.47,7.47,0,0,1-.63-6.35l4.18-11.66a7.45,7.45,0,0,0-3.38-9l-9.77-5.47a7.43,7.43,0,0,0-9.43,1.81l-7.67,9.48a7.45,7.45,0,0,1-5.67,2.77l-33.34.58a7.48,7.48,0,0,1-5.84-2.66l-8.06-9.61a7.44,7.44,0,0,0-9.47-1.63l-9.66,5.65a7.45,7.45,0,0,0-3.21,9.07l4.26,11.24a7.46,7.46,0,0,1-.44,6.26l-17,30.53a7.45,7.45,0,0,1-5.13,3.71l-12.07,2.27a7.46,7.46,0,0,0-6.08,7.45Zm89.62-37.92a30.69,30.69,0,1,1-30.72,31.8A30.79,30.79,0,0,1,623.49,306.6Z"></path><rect class="cls-5" x="122.04" y="101.04" width="476.58" height="5.84" rx="1.46"></rect><rect class="cls-6" x="141.83" y="53.68" width="437" height="5.84" rx="1.46"></rect></g><path class="cls-7" d="M584.87,96.61V378.38a35.94,35.94,0,0,1-30.16,35.47,36.62,36.62,0,0,1-5.77.46H144.25a35.93,35.93,0,0,1-35.93-35.93V96.61Z"></path><rect class="cls-8" x="259.78" y="130.57" width="237.95" height="12.01" rx="1.6"></rect><rect class="cls-8" x="259.78" y="171.9" width="217.84" height="12.01" rx="1.6"></rect><rect class="cls-8" x="259.78" y="213.22" width="248.48" height="12.01" rx="1.6"></rect><path class="cls-9" d="M107.07,82.6H224.6a0,0,0,0,1,0,0V414.93a0,0,0,0,1,0,0H139A31.94,31.94,0,0,1,107.07,383V82.6A0,0,0,0,1,107.07,82.6Z"></path><path class="cls-10" d="M134.25,53.68H557.72a27.4,27.4,0,0,1,27.4,27.4V101.4a0,0,0,0,1,0,0H106.85a0,0,0,0,1,0,0V81.08A27.4,27.4,0,0,1,134.25,53.68Z"></path><g class="cls-4"><path class="cls-11" d="M577.05,311.42V271.05h-.6a7.48,7.48,0,0,1-5.85-2.66l-8.06-9.6a7.44,7.44,0,0,0-9.47-1.64l-9.65,5.65a7.44,7.44,0,0,0-3.21,9.07l4.25,11.24a7.46,7.46,0,0,1-.44,6.26l-16.95,30.53a7.49,7.49,0,0,1-5.13,3.71l-12.08,2.27a7.45,7.45,0,0,0-6.07,7.46l.2,11.17a7.46,7.46,0,0,0,6.34,7.23l12.21,1.84a7.43,7.43,0,0,1,5.27,3.53L545,385.65a7.46,7.46,0,0,1,.64,6.36l-4.18,11.66a7.46,7.46,0,0,0,3.37,9l2.09,1.17a35.94,35.94,0,0,0,30.16-35.47V363.11a30.64,30.64,0,0,1,0-51.69Z"></path></g><circle class="cls-7" cx="607.34" cy="337.29" r="43.09"></circle><path class="cls-9" d="M519.29,344.52a7.44,7.44,0,0,0,6.34,7.23l12.21,1.84a7.41,7.41,0,0,1,5.26,3.53l17.17,28.53a7.45,7.45,0,0,1,.63,6.36l-4.18,11.65a7.47,7.47,0,0,0,3.38,9l9.76,5.48a7.44,7.44,0,0,0,9.44-1.83l7.67-9.48a7.48,7.48,0,0,1,5.67-2.77L626,403.5a7.46,7.46,0,0,1,5.83,2.68l8.06,9.59a7.45,7.45,0,0,0,9.47,1.65l9.67-5.65a7.46,7.46,0,0,0,3.21-9.08L658,391.44a7.47,7.47,0,0,1,.46-6.26l17-30.52a7.42,7.42,0,0,1,5.13-3.7l12.08-2.29a7.43,7.43,0,0,0,6.07-7.45L698.43,330a7.44,7.44,0,0,0-6.34-7.22L679.89,321a7.44,7.44,0,0,1-5.28-3.54l-17.15-28.53a7.43,7.43,0,0,1-.64-6.35L661,270.9a7.45,7.45,0,0,0-3.38-9l-9.77-5.47a7.43,7.43,0,0,0-9.43,1.81l-7.67,9.48a7.44,7.44,0,0,1-5.67,2.77l-33.34.58a7.48,7.48,0,0,1-5.84-2.66l-8.06-9.61a7.44,7.44,0,0,0-9.47-1.63l-9.66,5.65a7.45,7.45,0,0,0-3.21,9.07l4.26,11.24a7.46,7.46,0,0,1-.44,6.26l-17,30.53a7.45,7.45,0,0,1-5.13,3.71l-12.07,2.27a7.44,7.44,0,0,0-6.07,7.45Zm89.62-37.92a30.69,30.69,0,1,1-30.72,31.8A30.78,30.78,0,0,1,608.91,306.6Z"></path><rect class="cls-12" x="107.46" y="101.04" width="476.58" height="5.84" rx="1.46"></rect><rect class="cls-12" x="151.08" y="408" width="389.34" height="5.84" rx="1.46"></rect><rect class="cls-13" x="127.25" y="53.68" width="437" height="5.84" rx="1.46"></rect></g></g></g></svg>