<svg xmlns="http://www.w3.org/2000/svg" xmlns:xlink="http://www.w3.org/1999/xlink" viewBox="0 0 783.37 468.87"><defs><style>.cls-1{fill:none;}.cls-2{isolation:isolate;}.cls-3{fill:#0c7ff2;}.cls-16,.cls-17,.cls-4,.cls-8,.cls-9{mix-blend-mode:multiply;}.cls-4{opacity:0.08;}.cls-11,.cls-5{mix-blend-mode:overlay;opacity:0.18;}.cls-6{clip-path:url(#clip-path);}.cls-15,.cls-18,.cls-7{fill-rule:evenodd;}.cls-16,.cls-8{opacity:0.48;}.cls-17,.cls-9{opacity:0.4;}.cls-10,.cls-18{fill:#2e2e76;}.cls-11,.cls-15{fill:#cee0f2;}.cls-12{fill:#00b3e0;}.cls-13{clip-path:url(#clip-path-2);}.cls-14{fill:#fff;}.cls-16,.cls-17{fill:#9caab8;}</style><clipPath id="clip-path"><path d="M573,124.24c0,3.13-1.9,6.12-5.77,8.36L423.91,215.32c-8.56,4.94-23.49,4.32-33.38-1.38L252.05,134c-5.07-2.91-7.82-6.62-8.16-10.18v-1.29c.23-3,2.13-5.7,5.77-7.81L392.93,32c8.56-4.94,23.49-4.31,33.38,1.39l138.48,79.95C570.2,116.46,573,120.44,573,124.24Z"></path></clipPath><clipPath id="clip-path-2"><path class="cls-1" d="M556.06,134.24c0,3.13-1.9,6.12-5.77,8.36L407,225.32c-8.56,4.94-23.49,4.32-33.38-1.38L235.14,144c-5.07-2.91-7.82-6.62-8.16-10.18v-1.29c.23-3,2.13-5.7,5.77-7.81L376,42c8.56-4.94,23.49-4.31,33.38,1.39l138.48,79.95C553.29,126.46,556.06,130.44,556.06,134.24Z"></path></clipPath></defs><g class="cls-2"><g id="Layer_2" data-name="Layer 2"><g id="Layer_1-2" data-name="Layer 1"><rect id="rect201" class="cls-3" width="783.37" height="468.87"></rect><g class="cls-4"><path d="M573,124.24c0,3.13-1.9,6.12-5.77,8.36L423.91,215.32c-8.56,4.94-23.49,4.32-33.38-1.38L252.05,134c-5.07-2.91-7.82-6.62-8.16-10.18v-1.29c.23-3,2.13-5.7,5.77-7.81L392.93,32c8.56-4.94,23.49-4.31,33.38,1.39l138.48,79.95C570.2,116.46,573,120.44,573,124.24Z"></path><g class="cls-5"><path d="M573,124.23a8,8,0,0,1-1.46,4.56,18.49,18.49,0,0,0-6.72-6.11l-138.48-80c-9.88-5.71-24.82-6.33-33.38-1.39L249.66,124.06a12.85,12.85,0,0,0-4.33,3.83,9.56,9.56,0,0,1-1.44-4.08v-1.3c.23-3,2.13-5.7,5.77-7.8L392.93,32c8.56-4.94,23.5-4.32,33.38,1.38l138.48,79.95C570.2,116.45,573,120.43,573,124.23Z"></path></g><path d="M573,124.24V325.79c0,3.13-1.89,6.13-5.76,8.37L423.92,416.88c-4.12,2.37-9.7,3.47-15.49,3.32a38.38,38.38,0,0,1-17.9-4.68l-138.47-80c-5.08-2.9-7.83-6.61-8.17-10.16V123.82c.34,3.55,3.09,7.26,8.17,10.16l138.47,80a38.44,38.44,0,0,0,17.9,4.68c5.79.16,11.37-.93,15.49-3.3L567.2,132.59C571.07,130.37,573,127.37,573,124.24Z"></path><path d="M408.43,218.62V420.2a38.38,38.38,0,0,1-17.9-4.68l-138.47-80c-5.08-2.9-7.83-6.61-8.17-10.16V123.82c.34,3.55,3.09,7.26,8.17,10.16l138.47,80A38.44,38.44,0,0,0,408.43,218.62Z"></path><path d="M573,124.24c0,3.13-1.9,6.12-5.77,8.36L423.91,215.32c-8.56,4.94-23.49,4.32-33.38-1.38L252.05,134c-5.07-2.91-7.82-6.62-8.16-10.18v-1.29c.23-3,2.13-5.7,5.77-7.81L392.93,32c8.56-4.94,23.49-4.31,33.38,1.39l138.48,79.95C570.2,116.46,573,120.44,573,124.24Z"></path><g class="cls-6"><path d="M342.89,123.21a5.5,5.5,0,0,0,4.67,5.33l9,1.35a5.48,5.48,0,0,1,3.88,2.61l12.67,21.05a5.47,5.47,0,0,1,.46,4.68l-3.08,8.6a5.5,5.5,0,0,0,2.49,6.65l7.2,4.05a5.51,5.51,0,0,0,7-1.35l5.65-7a5.53,5.53,0,0,1,4.19-2l24.59-.42a5.49,5.49,0,0,1,4.3,2l5.94,7.07a5.5,5.5,0,0,0,7,1.22l7.13-4.17a5.51,5.51,0,0,0,2.37-6.7l-3.15-8.29a5.54,5.54,0,0,1,.34-4.62L458,130.69A5.45,5.45,0,0,1,461.8,128l8.9-1.68a5.49,5.49,0,0,0,4.48-5.5l-.15-8.24a5.49,5.49,0,0,0-4.68-5.33l-9-1.36a5.47,5.47,0,0,1-3.89-2.61l-12.66-21a5.49,5.49,0,0,1-.46-4.69l3.08-8.6a5.5,5.5,0,0,0-2.5-6.65l-7.2-4a5.47,5.47,0,0,0-7,1.34l-5.65,7a5.49,5.49,0,0,1-4.18,2l-24.6.43a5.55,5.55,0,0,1-4.31-2L386.08,60a5.5,5.5,0,0,0-7-1.21L372,62.93a5.49,5.49,0,0,0-2.37,6.69l3.14,8.29a5.46,5.46,0,0,1-.33,4.62l-12.5,22.52a5.51,5.51,0,0,1-3.79,2.74l-8.9,1.67a5.5,5.5,0,0,0-4.48,5.5Zm66.11-28a22.64,22.64,0,1,1-22.67,23.45A22.71,22.71,0,0,1,409,95.24Z"></path></g><path class="cls-7" d="M408.43,218.62,366.76,278a15.06,15.06,0,0,1-20.23,4.18l-139.69-85.9a15.07,15.07,0,0,1-4.17-21.87l42.65-56.95Z"></path><path class="cls-7" d="M411.57,218.75l43.13,55.9a15.27,15.27,0,0,0,20.21,3.81l135.91-86.67A14.93,14.93,0,0,0,614,169.62l-43.6-53Z"></path><path class="cls-8" d="M573,313.38v12.41c0,3.14-1.9,6.14-5.77,8.37L423.92,416.89c-4.12,2.37-9.7,3.46-15.49,3.31a38.26,38.26,0,0,1-17.9-4.68l-138.47-80c-5.08-2.9-7.83-6.61-8.16-10.17V313c.33,3.55,3.08,7.26,8.16,10.17l138.47,80a38.26,38.26,0,0,0,17.9,4.68c5.79.15,11.37-1,15.49-3.32L567.2,321.75C571.07,319.51,573,316.51,573,313.38Z"></path><path class="cls-7" d="M408.43,218.62l-3.54,5-159.57-99-42.64,57a15,15,0,0,0-2.57,5.39,15,15,0,0,1,2.57-12.63l42.64-56.95Z"></path><path class="cls-7" d="M617.08,183.05a15.42,15.42,0,0,0-3.11-6.19l-43.6-53.05L415.3,223.58l-3.73-4.84,158.8-102.17L614,169.62A15.3,15.3,0,0,1,617.08,183.05Z"></path><g class="cls-9"><path d="M584.5,200.28l-25.18,16.06V332.15c0,3.31-2,6.47-6.08,8.83l-64.76,37.39a104.46,104.46,0,0,1,96-178.09Z"></path></g><circle cx="581.19" cy="301.64" r="104.43"></circle><path class="cls-7" d="M676,302.46a94.86,94.86,0,0,1-62.87,89.31c-.64.23-1.29.46-1.93.67-4.81.93-6.52-2-6.52-4.56,0-3.11.11-13.34.11-26a31.89,31.89,0,0,0-.71-6.95c-1.08-5-3.31-8.54-5.73-10.62,21.13-2.35,43.31-10.37,43.31-46.8a36.58,36.58,0,0,0-9.75-25.45c1-2.4,4.23-12.05-.94-25.1,0,0-8-2.55-26.06,9.72a90,90,0,0,0-47.49,0C539.33,244.4,531.37,247,531.37,247c-5.16,13.05-1.91,22.7-.93,25.1a36.64,36.64,0,0,0-9.77,25.45c0,36.35,22.15,44.48,43.21,46.87-2.71,2.38-5.16,6.55-6,12.69-5.41,2.42-19.15,6.6-27.61-7.89,0,0-5-9.1-14.52-9.77,0,0-9.27-.12-.66,5.76,0,0,6.22,2.92,10.54,13.88,0,0,5.56,18.44,31.95,12.71,0,.68,0,1.34,0,2,0,6.92.11,12.08.11,14.14,0,2.52-1.73,5.44-6.47,4.57a94.49,94.49,0,0,1-18.68-8.58q-3.78-2.26-7.33-4.87A94.84,94.84,0,1,1,676,302.46Z"></path></g><path class="cls-10" d="M556.06,134.24c0,3.13-1.9,6.12-5.77,8.36L407,225.32c-8.56,4.94-23.49,4.32-33.38-1.38L235.14,144c-5.07-2.91-7.82-6.62-8.16-10.18v-1.29c.23-3,2.13-5.7,5.77-7.81L376,42c8.56-4.94,23.49-4.31,33.38,1.39l138.48,79.95C553.29,126.46,556.06,130.44,556.06,134.24Z"></path><path class="cls-11" d="M556.06,134.23a8,8,0,0,1-1.46,4.56,18.49,18.49,0,0,0-6.72-6.11l-138.48-80C399.52,47,384.58,46.4,376,51.34L232.75,134.06a12.85,12.85,0,0,0-4.33,3.83,9.56,9.56,0,0,1-1.44-4.08v-1.3c.23-2.95,2.13-5.7,5.77-7.8L376,42c8.56-4.94,23.5-4.32,33.38,1.38l138.48,79.95C553.29,126.45,556.06,130.43,556.06,134.23Z"></path><path class="cls-12" d="M556.05,134.24V335.79c0,3.13-1.89,6.13-5.76,8.37L407,426.88c-4.12,2.37-9.7,3.47-15.49,3.32a38.38,38.38,0,0,1-17.9-4.68l-138.47-80c-5.08-2.9-7.83-6.61-8.17-10.16V133.82c.34,3.55,3.09,7.26,8.17,10.16l138.47,80a38.44,38.44,0,0,0,17.9,4.68c5.79.16,11.37-.93,15.49-3.3l143.28-82.73C554.16,140.37,556.05,137.37,556.05,134.24Z"></path><path class="cls-12" d="M391.52,228.62V430.2a38.38,38.38,0,0,1-17.9-4.68l-138.47-80c-5.08-2.9-7.83-6.61-8.17-10.16V133.82c.34,3.55,3.09,7.26,8.17,10.16l138.47,80A38.44,38.44,0,0,0,391.52,228.62Z"></path><g class="cls-13"><path class="cls-14" d="M326,133.21a5.5,5.5,0,0,0,4.67,5.33l9,1.35a5.48,5.48,0,0,1,3.88,2.61l12.67,21.05a5.47,5.47,0,0,1,.46,4.68l-3.08,8.6a5.5,5.5,0,0,0,2.49,6.65l7.2,4.05a5.51,5.51,0,0,0,7-1.35l5.65-7a5.53,5.53,0,0,1,4.19-2l24.59-.42a5.49,5.49,0,0,1,4.3,2l5.94,7.07a5.5,5.5,0,0,0,7,1.22l7.13-4.17a5.51,5.51,0,0,0,2.37-6.7l-3.15-8.29a5.54,5.54,0,0,1,.34-4.62l12.5-22.51a5.45,5.45,0,0,1,3.79-2.74l8.9-1.68a5.49,5.49,0,0,0,4.48-5.5l-.15-8.24a5.49,5.49,0,0,0-4.68-5.33l-9-1.36a5.47,5.47,0,0,1-3.89-2.61l-12.66-21a5.49,5.49,0,0,1-.46-4.69l3.08-8.6a5.5,5.5,0,0,0-2.5-6.65l-7.2-4a5.47,5.47,0,0,0-7,1.34l-5.65,7a5.49,5.49,0,0,1-4.18,2l-24.6.43a5.55,5.55,0,0,1-4.31-2L369.17,70a5.5,5.5,0,0,0-7-1.21l-7.12,4.17a5.49,5.49,0,0,0-2.37,6.69l3.14,8.29a5.46,5.46,0,0,1-.33,4.62L343,115.05a5.51,5.51,0,0,1-3.79,2.74l-8.9,1.67a5.5,5.5,0,0,0-4.48,5.5Zm66.11-28a22.64,22.64,0,1,1-22.67,23.45A22.71,22.71,0,0,1,392.09,105.24Z"></path></g><path class="cls-15" d="M391.52,228.62,349.85,288a15.06,15.06,0,0,1-20.23,4.18l-139.69-85.9a15.07,15.07,0,0,1-4.17-21.87l42.65-56.95Z"></path><path class="cls-15" d="M394.66,228.75l43.13,55.9A15.27,15.27,0,0,0,458,288.46l135.91-86.67a14.93,14.93,0,0,0,3.15-22.17l-43.6-53Z"></path><path class="cls-16" d="M556.06,323.38v12.41c0,3.14-1.9,6.14-5.77,8.37L407,426.89c-4.12,2.37-9.7,3.46-15.49,3.31a38.26,38.26,0,0,1-17.9-4.68l-138.47-80c-5.08-2.9-7.83-6.61-8.16-10.17V323c.33,3.55,3.08,7.26,8.16,10.17l138.47,80a38.26,38.26,0,0,0,17.9,4.68c5.79.15,11.37-1,15.49-3.32l143.28-82.72C554.16,329.51,556.06,326.51,556.06,323.38Z"></path><path class="cls-15" d="M391.52,228.62l-3.54,5-159.57-99-42.64,57A15,15,0,0,0,183.2,197a15,15,0,0,1,2.57-12.63l42.64-56.95Z"></path><path class="cls-15" d="M600.17,193.05a15.42,15.42,0,0,0-3.11-6.19l-43.6-53.05L398.39,233.58l-3.73-4.84,158.8-102.17,43.6,53.05A15.3,15.3,0,0,1,600.17,193.05Z"></path><path class="cls-17" d="M567.59,210.28l-25.18,16.06V342.15c0,3.31-2,6.47-6.08,8.83l-64.76,37.39a104.46,104.46,0,0,1,96-178.09Z"></path><circle class="cls-14" cx="564.28" cy="311.64" r="104.43"></circle><path class="cls-18" d="M659.12,312.46a94.86,94.86,0,0,1-62.87,89.31c-.64.23-1.29.46-1.93.67-4.81.93-6.52-2-6.52-4.56,0-3.11.11-13.34.11-26a31.89,31.89,0,0,0-.71-6.95c-1.08-5-3.31-8.54-5.73-10.62,21.13-2.35,43.31-10.37,43.31-46.8A36.58,36.58,0,0,0,615,282.05c1-2.4,4.23-12.05-.94-25.1,0,0-8-2.55-26.06,9.72a90,90,0,0,0-47.49,0C522.42,254.4,514.46,257,514.46,257c-5.16,13.05-1.91,22.7-.93,25.1a36.64,36.64,0,0,0-9.77,25.45c0,36.35,22.15,44.48,43.21,46.87-2.71,2.38-5.16,6.55-6,12.69-5.41,2.42-19.15,6.6-27.61-7.89,0,0-5-9.1-14.52-9.77,0,0-9.27-.12-.66,5.76,0,0,6.22,2.92,10.54,13.88,0,0,5.56,18.44,31.95,12.71,0,.68,0,1.34,0,2,.05,6.92.11,12.08.11,14.14,0,2.52-1.73,5.44-6.47,4.57a94.49,94.49,0,0,1-18.68-8.58q-3.78-2.26-7.33-4.87a94.84,94.84,0,1,1,150.83-76.54Z"></path></g></g></g></svg>