<svg xmlns="http://www.w3.org/2000/svg" xmlns:xlink="http://www.w3.org/1999/xlink" width="358.255" height="420.014" viewBox="0 0 358.255 420.014"><defs><style>.a,.g{fill:none;}.b,.c,.d{fill:#e00;}.b{opacity:0.1;}.c{opacity:0.79;}.e{fill:#fff;}.f{fill:#9caab8;}.g{stroke:#9caab8;stroke-miterlimit:10;stroke-width:0.31px;}.h{clip-path:url(#a);}.i{fill:#d10202;}</style><clipPath id="a"><path class="a" d="M14.227,180.48l3.685-1.7s-1.3-11.107,5.19-15.687,13.468-2.6,17.464-.973-6.033-10.38-6.033-10.38L17.38,154l-12.975,6.63-2.6,23.355Z" transform="translate(-1.81 -151.74)"></path></clipPath></defs><g transform="translate(0 0.172)"><path class="b" d="M136.471,127.839,102.45,108.194l33.8-19.514,34.034,19.644Z" transform="translate(30.479 26.383)"></path><path class="b" d="M135.891,310.529,101.87,290.884l33.813-19.514L169.7,291.014Z" transform="translate(30.307 80.734)"></path><path class="c" d="M82.825,89.49l83.71,47.874L83.344,185.207.2,137.2,82.825,89.49" transform="translate(0.06 26.624)"></path><path class="d" d="M147.427,126.38,64.249,174.2l.021,95.593,83.2-47.641-.038-95.772" transform="translate(19.121 37.599)"></path><path class="e" d="M83.144,269.793,0,221.785V126.38l83.144,48.008Z" transform="translate(0 37.599)"></path><path class="c" d="M137.66,76.329,98.25,53.507,137.37,30.93l39.65,22.649Z" transform="translate(29.23 9.202)"></path><path class="d" d="M167.943,48.39,128.59,71.109v45.166l39.353-22.719V48.39" transform="translate(38.256 14.396)"></path><path class="e" d="M137.513,116.275,98.16,93.556V48.39l39.353,22.719Z" transform="translate(29.203 14.396)"></path><path class="f" d="M211.574,185.367,128.43,137.359,211.055,89.65l83.936,47.566Z" transform="translate(38.208 26.671)"></path><path class="g" d="M275.764,126.54v95.418L192.62,269.966V174.548" transform="translate(57.305 37.646)"></path><path class="e" d="M178.5,123.992a1.544,1.544,0,0,0-1.064-.83,3.14,3.14,0,0,0-2.6.285.856.856,0,0,0-.428,1.129.908.908,0,0,0,.428.428,3.309,3.309,0,0,0,2.777.195C178.336,124.94,178.673,124.447,178.5,123.992Zm-1.752,2.063a3.594,3.594,0,0,1-3.348-1.3c-.376-.727.117-1.557,1.207-1.985a5.19,5.19,0,0,1,3.724,0c1.194.48,1.661,1.453,1.064,2.219A3.62,3.62,0,0,1,176.753,126.055Zm35.033,15.7c.117.454.272.9.35,1.3a6.812,6.812,0,0,0-3.1.3c-.324.091-.545.272-.869.376-2.5-1.09-4.9-2.271-7.24-3.477-3.218-1.674-6.332-3.425-9.225-5.294a94.353,94.353,0,0,1-10.743-7.928c.35-.078.74-.078,1.1-.143-.817-.363-1.726-.649-2.6-1,0-.1.247-.182.337-.285a2.5,2.5,0,0,1,.532-.48c3.153.493,6.254,1.09,9.316,1.726a204.2,204.2,0,0,1,20.371,5.307l1.985.649c-.221.143-.493.26-.714.4l3.01.078a1.687,1.687,0,0,0-.078,1.414,3.335,3.335,0,0,0,1.933,1.44c.143,0,0,.13,0,.182-.727,1.051-1.453,2.115-2.141,3.179-.493.714-.921,1.453-1.427,2.18l-.96-.4a1.988,1.988,0,0,0,.1.48Zm4.8-9.809a8.058,8.058,0,0,0-1.207.48,4.2,4.2,0,0,0-.856.662c-.623-.454-1.181-.934-1.778-1.4l-.195.727a3.071,3.071,0,0,1-.467-.117,208.729,208.729,0,0,0-31.27-7.564c-.117,0-.311,0-.247-.143a2.205,2.205,0,0,0,0-.921l14.843-2.6c1.6-.285,3.179-.584,4.775-.856v.649l2.219-1.3a3.4,3.4,0,0,0,1.3,1.051,6.708,6.708,0,0,0,4.061.428c.156.143.259.3.389.441q2.712,3.309,5.32,6.656l1.946,2.517h-1.194c.74.48,1.622.843,2.31,1.3Zm-1.557,14.273a1.583,1.583,0,0,0-.532-2.193h0a5,5,0,0,0-1.972-.869c.636-.467,1.4-.869,2.076-1.3h-1.077a1.751,1.751,0,0,1,.247-.428q1.557-2.465,3.257-4.918c0-.1.272-.078.415,0a6.487,6.487,0,0,0,2.906-.272,3.283,3.283,0,0,0,1.791-1.3,1.609,1.609,0,0,0-.61-2.063,5.19,5.19,0,0,0-2.6-.947,8.148,8.148,0,0,0-2.024.078c0-.61.143-1.207.195-1.8-.324.091-.532.26-.83.363a.636.636,0,0,1-.169-.156q-3.62-4.671-7.409-9.316c-.078-.078-.1-.182,0-.221,1.3-.519,1.959-1.505,1.622-2.387a3.373,3.373,0,0,0-2.452-1.713,6.981,6.981,0,0,0-2.6-.1,3.892,3.892,0,0,0-2.893,1.6,1.609,1.609,0,0,0,0,1.3c-1.064,0-2.115-.169-3.179-.208a4.514,4.514,0,0,1,.675.532q-9.718,1.739-19.463,3.438a.273.273,0,0,1-.324-.117,5.592,5.592,0,0,0-4.4-1.142,4,4,0,0,0-2.984,1.505,1.544,1.544,0,0,0,.337,2,5.073,5.073,0,0,0,3.036,1.142,6.592,6.592,0,0,0,3.075-.519c.156.584.182,1.181.3,1.765.26-.156.48-.337.753-.493a4.4,4.4,0,0,1,.545.428A112.623,112.623,0,0,0,207.1,144a5.89,5.89,0,0,1,.584.272c0,.169-.234.3-.311.467-.571.921,0,2.05,1.414,2.595a6.708,6.708,0,0,0,3.672.376,3.892,3.892,0,0,0,2.517-1.505Zm1.038,4.58a21.863,21.863,0,0,1-6.721,1.064,20.76,20.76,0,0,1-9.9-2.206c-2.842-1.661-5.709-3.3-8.551-4.943L170.253,132.8a9.368,9.368,0,0,1-4.113-4.554,5.67,5.67,0,0,1,.545-4.814,9.745,9.745,0,0,1,2.7-2.8,13.66,13.66,0,0,1,1.674-1.012,21.643,21.643,0,0,1,7.435-2.18,27.351,27.351,0,0,1,8.356.311c.156,0,.363.091.467,0a20.162,20.162,0,0,1,4.528-2.465,29.467,29.467,0,0,1,8.654-1.778,33.852,33.852,0,0,1,8.369.649,23.485,23.485,0,0,1,7.59,2.958,11.2,11.2,0,0,1,4.4,4.788,6.488,6.488,0,0,1,0,5.268c-.143.35-.363.688-.519,1.025a15.57,15.57,0,0,1,4.814,1.3c2.258,1.1,3.763,2.751,3.893,4.463a4.866,4.866,0,0,1-2.595,4.23,12.612,12.612,0,0,1-4.5,1.765,4.049,4.049,0,0,0-.571.117,9.877,9.877,0,0,1,.973,1.427,5.021,5.021,0,0,1-.376,5.268,11.677,11.677,0,0,1-5.994,4.061Z" transform="translate(49.337 33.758)"></path><path class="g" d="M220.427,297.48,178.79,273.437l41.377-23.887L261.8,273.593Z" transform="translate(53.191 74.242)"></path><path class="g" d="M252.52,315.794l-41.65,24.043V292.063l41.65-24.043Z" transform="translate(62.735 79.737)"></path><path class="g" d="M220.327,339.837,178.69,315.794V268.02l41.637,24.043Z" transform="translate(53.161 79.737)"></path><path class="g" d="M63.88,116.114V40.132L147.777,0l82.885,40.132v76.2" transform="translate(19.005)"></path><path class="d" d="M23.878,175.9l-9.5-1.531a47.465,47.465,0,0,0,.753,5.592l9.083,1.466a24.653,24.653,0,0,1-.272-5.527" transform="translate(4.278 51.876)"></path><path class="d" d="M56.707,186.614a62.829,62.829,0,0,0-2.323-5.839L44.9,179.27a43.18,43.18,0,0,1,2.79,5.917Z" transform="translate(13.358 53.334)"></path><path class="d" d="M45.858,178.041a41.2,41.2,0,0,1,5.19,7.149l9.5,1.518c-8.706-19.021-25.652-32.048-37.848-29.1-7.785,1.868-12.028,9.939-11.288,21.253l9.5,1.518c.714-10.7,9.16-14.169,18.853-7.785a33.592,33.592,0,0,1,6.176,5.424" transform="translate(3.37 46.765)"></path><path class="d" d="M17.463,179.074,8.38,177.66a58.388,58.388,0,0,0,4.243,12.975l9.472,1.518a38.925,38.925,0,0,1-4.7-13.079" transform="translate(2.493 52.855)"></path><path class="d" d="M54.841,194.565a14.818,14.818,0,0,1-1.6,6.072c-4.113,7.785-14.6,6.085-23.433-3.724a40.989,40.989,0,0,1-5.19-7.188L15.15,188.22c8.68,19.008,25.613,32.048,37.809,29.129a13.455,13.455,0,0,0,8.875-7.123,26.4,26.4,0,0,0,2.426-14.13Z" transform="translate(4.507 55.996)"></path><path class="d" d="M49.6,184.217l-9-1.427a30.712,30.712,0,0,1,2.206,12.677l9.485,1.518a50.421,50.421,0,0,0-2.673-12.754" transform="translate(12.079 54.381)"></path><path class="d" d="M23.839,178.068a20.122,20.122,0,0,1,0-2.167L14.38,174.37a18.4,18.4,0,0,0,.221,2.206Z" transform="translate(4.278 51.876)"></path><path class="d" d="M55.389,182.945c-.3-.727-.6-1.453-.934-2.18L44.97,179.26q.623,1.09,1.168,2.219Z" transform="translate(13.379 53.331)"></path><path class="d" d="M15.19,188.22c.727,1.609,1.544,3.2,2.413,4.762l10.38,1.635a40.289,40.289,0,0,1-3.335-4.9ZM64.3,196.005,54.829,194.5a16.7,16.7,0,0,1-.791,4.217l10.3,1.635a34.5,34.5,0,0,0,0-4.334" transform="translate(4.519 55.996)"></path><g class="h" transform="translate(2.348 196.883)"><path class="i" d="M23.878,175.9l-9.5-1.531a47.465,47.465,0,0,0,.753,5.592l9.083,1.466a24.653,24.653,0,0,1-.272-5.527" transform="translate(1.93 -145.007)"></path><path class="i" d="M56.707,186.614a62.829,62.829,0,0,0-2.323-5.839L44.9,179.27a43.18,43.18,0,0,1,2.79,5.917Z" transform="translate(11.009 -143.55)"></path><path class="i" d="M45.858,178.041a41.2,41.2,0,0,1,5.19,7.149l9.5,1.518c-8.706-19.021-25.652-32.048-37.848-29.1-7.785,1.868-12.028,9.939-11.288,21.253l9.5,1.518c.714-10.7,9.16-14.169,18.853-7.785a33.592,33.592,0,0,1,6.176,5.424" transform="translate(1.021 -150.119)"></path><path class="i" d="M17.463,179.074,8.38,177.66a58.388,58.388,0,0,0,4.243,12.975l9.472,1.518a38.925,38.925,0,0,1-4.7-13.079" transform="translate(0.145 -144.029)"></path><path class="i" d="M54.841,194.565a14.818,14.818,0,0,1-1.6,6.072c-4.113,7.785-14.6,6.085-23.433-3.724a40.989,40.989,0,0,1-5.19-7.188L15.15,188.22c8.68,19.008,25.613,32.048,37.809,29.129a13.455,13.455,0,0,0,8.875-7.123,26.4,26.4,0,0,0,2.426-14.13Z" transform="translate(2.159 -140.887)"></path><path class="i" d="M49.6,184.217l-9-1.427a30.712,30.712,0,0,1,2.206,12.677l9.485,1.518a50.421,50.421,0,0,0-2.673-12.754" transform="translate(9.73 -142.503)"></path><path class="i" d="M23.839,178.068a20.122,20.122,0,0,1,0-2.167L14.38,174.37a18.4,18.4,0,0,0,.221,2.206Z" transform="translate(1.93 -145.007)"></path><path class="i" d="M55.389,182.945c-.3-.727-.6-1.453-.934-2.18L44.97,179.26q.623,1.09,1.168,2.219Z" transform="translate(11.03 -143.553)"></path><path class="i" d="M15.19,188.22c.727,1.609,1.544,3.2,2.413,4.762l10.38,1.635a40.289,40.289,0,0,1-3.335-4.9ZM64.3,196.005,54.829,194.5a16.7,16.7,0,0,1-.791,4.217l10.3,1.635a34.5,34.5,0,0,0,0-4.334" transform="translate(2.171 -140.887)"></path></g><path class="g" d="M147.648,295.864,64.27,247.843l83.417-47.683L230.545,248Z" transform="translate(19.121 59.548)"></path><path class="g" d="M297.473,62.856,259.91,41.162,297.239,19.61l37.576,21.681Z" transform="translate(23.052 5.834)"></path><path class="g" d="M326.436,79.386,288.86,101.08V57.964L326.436,36.27Z" transform="translate(31.665 10.79)"></path><path class="g" d="M297.383,101.08,259.82,79.386V36.27l37.563,21.694Z" transform="translate(23.025 10.79)"></path><path class="c" d="M137.079,258.978,97.68,236.2l39.107-22.577,39.59,22.671Z" transform="translate(29.06 63.553)"></path><path class="d" d="M167.376,231.08,128.01,253.8v45.166l39.366-22.719V231.08" transform="translate(38.083 68.747)"></path><path class="e" d="M136.946,298.965,97.58,276.246V231.08L136.946,253.8Z" transform="translate(29.03 68.747)"></path></g></svg>