<svg xmlns="http://www.w3.org/2000/svg" width="115.408" height="44.669" viewBox="0 0 115.408 44.669"><defs><style>.a{fill:#ee674a;}.b{fill:#fff;}</style></defs><g transform="translate(-0.002 0.026)"><path class="a" d="M8.738-.008C11.674.1,15.112-.329,18.5.5,27.567,2.74,33.146,8.632,34.945,17.7c1.66,8.257-.509,15.621-6.778,21.471a20.781,20.781,0,0,1-12.72,5.453c-.941.091-1.325-.1-1.29-1.158.07-2.008,0-2.008,2-2.2a18.081,18.081,0,0,0,15.732-15.4c.837-6.137-.321-11.722-4.435-16.492C23.71,5.048,18.878,3.277,13.32,3.235c-3.989,0-7.978-.035-11.966,0C.377,3.263-.153,3.067.043,1.972a2.713,2.713,0,0,0,0-.788C-.09.285.217-.008,1.165-.008,3.529.062,5.9-.008,8.738-.008Z" transform="translate(0 0)"></path><path class="b" d="M2.233,19.865a4.6,4.6,0,0,0,3.808-.927,4.226,4.226,0,0,1,2.845-.83,2.985,2.985,0,0,1,2.385,1.3c.537.607,1.715.537,2.622.363a7.566,7.566,0,0,1,3.64-.07c.286.084.5.126.7-.293.732-1.485,1.98-1.8,3.194-.7a3.375,3.375,0,0,0,2.357.816c1.213.077,2.531.091,3.068,1.534a4.442,4.442,0,0,1-1.2,4.337A1.126,1.126,0,0,0,25.2,26.8,12.252,12.252,0,0,1,19.848,39a11.492,11.492,0,0,1-12.957-.523c-.356-.279-1.213-.418-.586-1.262s1.011-.418,1.6,0a9.847,9.847,0,0,0,15.607-6.75,11.157,11.157,0,0,0,.1-3.536c-.209-1.179-1.053-.76-1.715-.837-.823-.1-.614.5-.642.948a3.856,3.856,0,0,1-2.287,3.438,3.717,3.717,0,0,1-3.968-.4c-.321-.237-.99-.46-.523-1.095.356-.481.76-.858,1.395-.307a2.092,2.092,0,0,0,2.671.132,2.35,2.35,0,0,0,1-2.657,11.855,11.855,0,0,0-2.092-4.5c-.642-.92-1.736-.551-2.678-.418-.837.112-.642.851-.7,1.346-.377,2.713-1.227,3.487-3.933,3.487H6.717c-1.96,0-3.215-.893-3.34-2.789-.119-1.632-.8-1.98-2.211-1.764-.516.07-1.172.223-1.137-.753,0-.7.181-.969.893-.879a9.128,9.128,0,0,0,1.311-.007Zm6.722,1.158a17.273,17.273,0,0,0-3.543.258c-.23.056-.509-.035-.649.3a2.332,2.332,0,0,0,1.855,2.894q2.029.063,4.072,0c1.36-.042,1.715-.579,1.827-2.476.077-1.269-.99-.7-1.485-.83a7.775,7.775,0,0,0-2.078-.146Zm10.279.328c.467.955.907,1.848,1.332,2.748.1.209.216.377.467.377a16.171,16.171,0,0,0,3.138-.1c1.2-.251,1.137-1.437,1.192-2.378s-.844-.7-1.395-.781A12.824,12.824,0,0,0,19.234,21.35Z" transform="translate(-0.008 -5.473)"></path><path class="b" d="M64.768,24.654c-3.068,0-3.068,0-3.068-3.013V14.4c0-.809.223-1.1,1.039-1.046.955.063,1.925,0,2.887,0,4.484,0,6.813,2.971,5.83,7.371a4.507,4.507,0,0,1-4.7,3.905C66.093,24.675,65.431,24.654,64.768,24.654Zm-.216-5.544v2.232c0,.244-.042.5.265.7,1.1.579,3.271-.146,3.689-1.3a4.568,4.568,0,0,0-.042-3.326c-.5-1.248-1.555-1.708-3.3-1.395-1.248.237-.384,1.283-.6,1.932a3.87,3.87,0,0,0-.014,1.158Z" transform="translate(-18.673 -4.049)"></path><path class="b" d="M97.475,23.277c-1.827,1.492-3.821,1.548-5.265.2-1.667-1.569-1.827-4.965-.335-6.925,1.283-1.681,3.117-1.946,5.4-.7a18.829,18.829,0,0,0,0-2.357c-.139-1.109.356-1.276,1.325-1.29s1.332.265,1.3,1.311c-.07,3.117,0,6.234-.042,9.351,0,.46.439,1.255-.516,1.339C98.549,24.316,97.608,24.56,97.475,23.277Zm-.126-3.354c.07-1.395-.7-2.427-1.778-2.483a2.168,2.168,0,0,0-2.092,2.238,1.928,1.928,0,0,0,1.806,2.28A1.9,1.9,0,0,0,97.35,19.922Z" transform="translate(-27.496 -3.703)"></path><path class="b" d="M61.711,42.123c1.123,1,2.231,1.862,3.738,1.82.551,0,1.255.084,1.395-.7s-.558-.795-1.046-.955c-.872-.286-1.778-.474-2.622-.823a3.139,3.139,0,0,1-2.211-3.487,3.256,3.256,0,0,1,3.089-2.845A5.418,5.418,0,0,1,68.7,36.405c1.144,1.074-.2,1.729-.565,2.434-.432.83-.7-.16-1-.363a3.47,3.47,0,0,0-2.531-.886.941.941,0,0,0-.907.844c-.049.5.335.7.7.809,1.039.328,2.092.565,3.131.955a3.04,3.04,0,0,1,2.092,3.382,3.194,3.194,0,0,1-2.671,2.873,7.469,7.469,0,0,1-5.209-.767c-.962-.53-1.395-1.158-.7-2.2A11.472,11.472,0,0,0,61.711,42.123Z" transform="translate(-18.37 -10.611)"></path><path class="b" d="M83.192,24.53a3.257,3.257,0,0,1-4.01.927c-1.45-.6-1.646-1.925-1.653-3.3,0-1.576.049-3.159,0-4.735-.049-1.185.774-.837,1.332-.823s1.395-.425,1.353.781c-.056,1.45-.042,2.9,0,4.351,0,.7,0,1.5,1.011,1.52a1.395,1.395,0,0,0,1.45-1.395,26.5,26.5,0,0,0,.084-4.184c-.084-1.227.635-1.053,1.395-1.074s1.395-.07,1.332,1.109c-.112,2.19,0,4.393-.056,6.583,0,.453.46,1.262-.516,1.325C84.133,25.639,83.233,25.925,83.192,24.53Z" transform="translate(-23.463 -5.012)"></path><path class="b" d="M101.345,46.328a3.291,3.291,0,0,1-4,.962c-1.395-.544-1.667-1.813-1.681-3.138,0-1.632.049-3.257,0-4.881-.049-1.088.628-.955,1.276-.914s1.485-.363,1.43.893c-.063,1.444,0,2.894,0,4.344,0,.7,0,1.395.934,1.485a1.395,1.395,0,0,0,1.471-1.353,25.676,25.676,0,0,0,.1-4.184c-.091-1.255.6-1.151,1.437-1.2s1.332.153,1.29,1.206c-.091,2.2,0,4.393-.049,6.59,0,.474.4,1.262-.579,1.311C102.266,47.464,101.394,47.7,101.345,46.328Z" transform="translate(-28.953 -11.608)"></path><path class="b" d="M142.663,39.45a3.745,3.745,0,0,1,3.3-1.234,3.007,3.007,0,0,1,3.02,3.02c.077,1.792,0,3.6,0,5.4,0,1.192-.872.7-1.395.739s-1.283.314-1.248-.767c.056-1.395,0-2.789,0-4.184,0-.879-.209-1.708-1.311-1.785a1.667,1.667,0,0,0-1.855,1.478,14.31,14.31,0,0,0-.119,3.933c.042,1.06-.188,1.45-1.339,1.395-1.039,0-1.45-.223-1.395-1.395.091-2.148,0-4.3.049-6.45,0-.46-.432-1.255.558-1.3C141.687,38.286,142.587,38.007,142.663,39.45Z" transform="translate(-42.454 -11.564)"></path><path class="b" d="M134.688,42.977a4.518,4.518,0,1,1-9.031.063c0-2.831,1.883-4.881,4.547-4.84A4.47,4.47,0,0,1,134.688,42.977Zm-2.643-.1c0-1.457-.7-2.322-1.918-2.294s-1.827.907-1.841,2.266.739,2.218,1.869,2.225A1.941,1.941,0,0,0,132.045,42.879Z" transform="translate(-38.028 -11.569)"></path><path class="b" d="M79.261,47.516a4.282,4.282,0,0,1-4.5-4.54,4.541,4.541,0,1,1,9.065.07,4.247,4.247,0,0,1-4.561,4.47ZM81.2,42.942c0-1.45-.7-2.343-1.89-2.343s-1.855.893-1.9,2.232A1.959,1.959,0,0,0,79.254,45.1C80.4,45.138,81.158,44.239,81.2,42.942Z" transform="translate(-22.622 -11.569)"></path><path class="b" d="M105.63,21.648c0-3.787,2.357-5.934,5.188-5.314a4.672,4.672,0,0,1,3.291,5.056c-.1.642-.5.481-.858.488h-4.066c-.293,0-.767-.244-.865.286-.077.391.237.662.53.837a2.887,2.887,0,0,0,2.992-.1c.46-.237.92-.516,1.025.272.091.621,1.158,1.325,0,1.869a5.46,5.46,0,0,1-5.16,0A3.933,3.933,0,0,1,105.63,21.648Zm6.032-1.7a1.59,1.59,0,0,0-1.785-1.318,1.464,1.464,0,0,0-1.52,1.318Z" transform="translate(-31.969 -4.919)"></path><path class="b" d="M160.8,41.633a4.3,4.3,0,0,0-2.517-1.241c-.391,0-.851,0-.983.446-.167.579.391.6.7.7.83.272,1.695.439,2.51.746a2.385,2.385,0,0,1,1.632,2.573,2.427,2.427,0,0,1-1.925,2.378,6.423,6.423,0,0,1-5.174-.76c-1.3-.816-.042-1.632.2-2.343.307-.879.767,0,1.074.181a5.056,5.056,0,0,0,2.5.7c.314,0,.642-.1.7-.467s-.272-.432-.509-.509c-.837-.272-1.688-.467-2.5-.774a2.4,2.4,0,0,1-1.869-2.789,2.692,2.692,0,0,1,2.357-2.308,5.7,5.7,0,0,1,2.476.1C161.887,38.892,162.061,39.332,160.8,41.633Z" transform="translate(-46.747 -11.53)"></path><path class="b" d="M112.845,46.6a2.3,2.3,0,0,1-2.622-2.434c-.063-1.137,0-2.28,0-3.424,0-.467,0-.879-.649-.879-.307,0-.781.167-.816-.37s-.2-.99.349-1.3a3.961,3.961,0,0,0,1.869-2.441c.258-.844.879-.551,1.395-.551.649,0,.474.565.425.886-.181,1.185.4,1.464,1.395,1.3s1.13.391,1.1,1.22,0,1.471-1.053,1.262c-1.234-.244-1.52.356-1.395,1.444a7.671,7.671,0,0,1,0,1.444c-.049.92.23,1.395,1.206.92.453-.216.628-.146.809.384C115.5,46.031,115.063,46.617,112.845,46.6Z" transform="translate(-32.901 -10.649)"></path><path class="b" d="M92.231,40.187c0,1.708-.042,3.424,0,5.132,0,1.158-.767.823-1.339.823s-1.395.328-1.353-.83c.042-3.487,0-6.925,0-10.39,0-1.185.872-.7,1.395-.753s1.29-.328,1.262.753C92.2,36.68,92.231,38.43,92.231,40.187Z" transform="translate(-27.098 -10.328)"></path><path class="b" d="M122.644,42.9v3.02a1.569,1.569,0,0,1-2.357,1.478c-.37-.181-.272-.509-.272-.788V39.117c0-1.088.732-.795,1.248-.753s1.395-.488,1.395.7S122.644,41.628,122.644,42.9Z" transform="translate(-36.319 -11.594)"></path><path class="b" d="M21.018,41.167A7.992,7.992,0,0,1,16.136,39.2c-.453-.384-.579-.7-.077-1.151.391-.363.628-.614,1.144-.1a5.635,5.635,0,0,0,3.766,1.576c.614,0,1.395-.063,1.395.781S21.5,41.125,21.018,41.167Z" transform="translate(-4.762 -11.405)"></path><path class="b" d="M122.832,33.826a1.611,1.611,0,1,1-3.215-.119,1.444,1.444,0,0,1,1.66-1.555C122.365,32.18,122.825,32.8,122.832,33.826Z" transform="translate(-36.2 -9.734)"></path><path class="b" d="M14.479,24.31c-.049.551-.286.983-.934,1a.914.914,0,0,1-1.039-.927.9.9,0,0,1,.92-1.039.948.948,0,0,1,1.053.962Z" transform="translate(-3.781 -7.072)"></path><path class="b" d="M32.154,24.338a.976.976,0,0,1-1.946-.112.9.9,0,0,1,1-.969.969.969,0,0,1,.948,1.081Z" transform="translate(-9.141 -7.045)"></path></g></svg>