<svg xmlns="http://www.w3.org/2000/svg" viewBox="0 0 939.96 1012.88"><defs><style>.cls-1{isolation:isolate;}.cls-2{fill:#6b7e8f;}.cls-10,.cls-3{fill:#ebf0f5;}.cls-4{fill:#0c7ff2;}.cls-12,.cls-5,.cls-6{fill:#24313e;}.cls-11,.cls-5{mix-blend-mode:multiply;}.cls-5{opacity:0.11;}.cls-7,.cls-8{fill:#fff;}.cls-10,.cls-7{mix-blend-mode:overlay;}.cls-8{opacity:0.21;}.cls-11,.cls-9{fill:#9caab8;}.cls-10{opacity:0.22;}.cls-12{stroke:#031439;stroke-miterlimit:10;stroke-width:0.78px;}</style></defs><g class="cls-1"><g id="Layer_2" data-name="Layer 2"><g id="Layer_1-2" data-name="Layer 1"><rect class="cls-2" x="0.02" y="213.28" width="408.22" height="796.61" rx="1.83"></rect><rect class="cls-3" x="56.91" y="213.14" width="408.22" height="796.61" rx="1.83"></rect><rect class="cls-4" x="91.64" y="280.12" width="336.84" height="77.47"></rect><rect class="cls-4" x="91.99" y="413.96" width="336.84" height="77.47"></rect><rect class="cls-4" x="92.34" y="547.79" width="336.84" height="77.47"></rect><rect class="cls-4" x="92.68" y="681.63" width="336.84" height="77.47"></rect><rect class="cls-4" x="93.03" y="815.47" width="336.84" height="77.47"></rect><rect class="cls-5" x="114.6" y="336.72" width="354.46" height="672.91" rx="1.83"></rect><rect class="cls-2" x="150.16" y="324.75" width="390.28" height="685.2" rx="1.83"></rect><rect class="cls-3" x="212.41" y="324.59" width="390.28" height="685.2" rx="1.83"></rect><rect class="cls-4" x="259.45" y="399.19" width="305.38" height="63.36"></rect><rect class="cls-4" x="259.45" y="512.28" width="305.38" height="63.36"></rect><rect class="cls-4" x="259.45" y="625.37" width="305.38" height="63.36"></rect><rect class="cls-4" x="259.45" y="738.46" width="305.38" height="63.36"></rect><rect class="cls-6" x="259.45" y="851.55" width="305.38" height="158.07" rx="1.83"></rect><rect class="cls-6" x="87.86" y="8.66" width="6.54" height="202.58" transform="translate(182.26 219.9) rotate(-180)"></rect><rect class="cls-7" x="3.1" y="213.5" width="450.39" height="7.17" transform="translate(456.59 434.17) rotate(-180)"></rect><rect class="cls-7" x="153.82" y="325.61" width="447.48" height="10.31" transform="translate(755.11 661.54) rotate(-180)"></rect><polygon class="cls-8" points="487.47 399.19 550.33 462.36 522.3 462.36 459.44 399.19 487.47 399.19"></polygon><polygon class="cls-8" points="444.79 399.19 507.65 462.36 493.7 462.36 430.84 399.19 444.79 399.19"></polygon><path class="cls-6" d="M808,833.07a23,23,0,0,1-2.76-.17,22.5,22.5,0,0,1-11.49-4.9,3.55,3.55,0,0,0-4.94.45c-.1.12-.19.25-.28.38a3.46,3.46,0,0,0-.57,1.94V883H749.13a3.55,3.55,0,0,1-.16-4.3,22.54,22.54,0,0,0-17.22-35.47,21.93,21.93,0,0,0-4,.13,22.54,22.54,0,0,0-15.72,35.31,3.59,3.59,0,0,1-.13,4.33H657.68v-51.1a3.56,3.56,0,0,0-5.63-2.88c-.25.18-.51.35-.78.52a22.34,22.34,0,0,1-12.15,3.56,23,23,0,0,1-2.76-.17,22.55,22.55,0,0,1,0-44.76c.71-.08,1.42-.14,2.15-.16a22.5,22.5,0,0,1,12.76,3.54c.27.17.55.36.82.55a3.56,3.56,0,0,0,5.6-2.92V752.69h36a3.7,3.7,0,0,1,.27,4.61,23.49,23.49,0,1,0,38.49,0,3.71,3.71,0,0,1,.24-4.63H788v37.58a3.46,3.46,0,0,0,.57,1.94c.09.13.18.26.28.38a3.54,3.54,0,0,0,4.94.45,22.46,22.46,0,0,1,11.48-4.9,24.24,24.24,0,0,1,2.85-.17,22.55,22.55,0,0,1-.08,45.1Z"></path><path class="cls-6" d="M869.54,892.88a23.5,23.5,0,1,1-38.48,0,3.72,3.72,0,0,0-3-5.84H790V830.39a3.71,3.71,0,0,1,5.45-.87,23.5,23.5,0,1,0,0-36.43,3.7,3.7,0,0,1-5.45-.86v-41h39.17a3.71,3.71,0,0,0,2.9-6,23.36,23.36,0,0,1-5.29-14.93,23.5,23.5,0,1,1,41.71,14.93,3.71,3.71,0,0,0,2.9,6h54.39V887H872.54A3.71,3.71,0,0,0,869.54,892.88Z"></path><path class="cls-9" d="M930.91,751.23V887H877.66a3.71,3.71,0,0,0-3,5.87,23.5,23.5,0,1,1-38.48,0,3.71,3.71,0,0,0-3-5.84h-38V830.39a3.7,3.7,0,0,1,5.44-.87,23.5,23.5,0,1,0,0-36.43,3.69,3.69,0,0,1-5.44-.86v-41H834.3a3.71,3.71,0,0,0,2.9-6,23.5,23.5,0,1,1,36.43,0,3.71,3.71,0,0,0,2.89,6Z"></path><path class="cls-2" d="M812.68,833.07a22.73,22.73,0,0,1-2.76-.17,22.46,22.46,0,0,1-11.49-4.9,3.54,3.54,0,0,0-4.94.45,3.46,3.46,0,0,0-.86,2.32V883H753.81a3.53,3.53,0,0,1-.16-4.3,22.55,22.55,0,0,0-17.22-35.47,22,22,0,0,0-4,.13,22.56,22.56,0,0,0-15.72,35.31,3.58,3.58,0,0,1-.13,4.33H662.36v-51.1a3.56,3.56,0,0,0-5.63-2.88l-.79.52a22.31,22.31,0,0,1-12.15,3.56A22.55,22.55,0,0,1,641,788.14c.7-.08,1.42-.14,2.14-.16a22.46,22.46,0,0,1,12.76,3.54c.28.17.55.36.82.55a3.57,3.57,0,0,0,5.61-2.92V752.69h36a3.69,3.69,0,0,1,.28,4.61,23.5,23.5,0,1,0,38.48,0,3.74,3.74,0,0,1,.24-4.63h55.25v37.58a3.46,3.46,0,0,0,.57,1.94c.09.13.18.26.28.38a3.56,3.56,0,0,0,4.95.45,22.43,22.43,0,0,1,11.47-4.9,24.5,24.5,0,0,1,2.85-.17,22.55,22.55,0,0,1-.07,45.1Z"></path><path class="cls-6" d="M789.58,883.13V1009H753.29a3.68,3.68,0,0,0-.89.11H715.05a3.6,3.6,0,0,0-.88-.11H658.1V883.13h55a3.36,3.36,0,0,0,2.66-1.26,3.46,3.46,0,0,0,.12-4.17,21.78,21.78,0,0,1,19-34.24c.53,0,1.06.08,1.58.14h0a21.79,21.79,0,0,1,15,34.12,3.43,3.43,0,0,0,2.82,5.41Z"></path><path class="cls-2" d="M833.7,954.66a21.78,21.78,0,0,1-34.25,16.64,3.44,3.44,0,0,0-5.42,2.82v35.21H668.21v-.13h-5.79V883.38h55a3.32,3.32,0,0,0,2.65-1.27,3.44,3.44,0,0,0,.13-4.17,21.78,21.78,0,0,1,15.06-34.09h0A21.78,21.78,0,0,1,755.87,878a3.44,3.44,0,0,0,2.82,5.42H793.9v.13H794v49.35a3.35,3.35,0,0,0,1.26,2.65,3.46,3.46,0,0,0,4.18.12,21.79,21.79,0,0,1,34.09,15.07h0A22.6,22.6,0,0,1,833.7,954.66Z"></path><path class="cls-6" d="M931,886.92v122.51H794v-.1H794V974.12a3.44,3.44,0,0,1,5.42-2.82,21.78,21.78,0,0,0,34.25-16.64,22.6,22.6,0,0,0-.14-4h0a21.79,21.79,0,0,0-34.09-15.07,3.46,3.46,0,0,1-4.18-.12,3.35,3.35,0,0,1-1.26-2.65V886.92h1.11V887h38a3.71,3.71,0,0,1,3,5.84,23.5,23.5,0,1,0,38.48,0,3.71,3.71,0,0,1,3-5.87h53.25v-.09Z"></path><path class="cls-9" d="M933.93,886.92v122.51h-137v-.1H797V974.12a3.44,3.44,0,0,1,5.42-2.82,21.78,21.78,0,0,0,34.25-16.64,20.82,20.82,0,0,0-.14-4h0a21.79,21.79,0,0,0-34.09-15.07,3.44,3.44,0,0,1-4.17-.12,3.33,3.33,0,0,1-1.27-2.65V886.92h1.11V887h38a3.71,3.71,0,0,1,3,5.84,23.5,23.5,0,1,0,38.49,0,3.7,3.7,0,0,1,3-5.87h53.26v-.09Z"></path><path class="cls-10" d="M699.32,754.9h-34.5v36.46a3.57,3.57,0,0,1-5.61,2.92l-.82-.55a22.37,22.37,0,0,0-12.76-3.53c-.72,0-1.44.07-2.14.16a22.54,22.54,0,0,0-13.5,38,22.55,22.55,0,0,1,11-40.21c.7-.08,1.42-.14,2.14-.16a22.46,22.46,0,0,1,12.76,3.54c.28.17.55.36.82.55a3.57,3.57,0,0,0,5.61-2.92V752.69h36A3.77,3.77,0,0,1,699.32,754.9Z"></path><path class="cls-10" d="M664.82,834.08V883h-2.46v-51.1a3.61,3.61,0,0,0-.21-1.21A3.49,3.49,0,0,1,664.82,834.08Z"></path><path class="cls-10" d="M739.84,754.9a3.75,3.75,0,0,0-.24,4.64,23.49,23.49,0,0,1-36.13,29.8,23.49,23.49,0,0,0,33.67-32,3.74,3.74,0,0,1,.24-4.63h55.25v2.21Z"></path><ellipse class="cls-11" cx="730.23" cy="1009.3" rx="203.7" ry="2.59"></ellipse><path class="cls-10" d="M702.08,954.66c0,.18,0,.36,0,.53,0-.35-.06-.7-.11-1.05h0a21.78,21.78,0,0,0-34.09-15.06,3.46,3.46,0,0,1-4.17-.12,3.34,3.34,0,0,1-1.27-2.66v-3.44a3.33,3.33,0,0,0,1.27,2.65,3.44,3.44,0,0,0,4.17.12,21.79,21.79,0,0,1,34.09,15.07h0A20.82,20.82,0,0,1,702.08,954.66Z"></path><polygon class="cls-10" points="536.6 1009.33 662.41 1009.33 662.41 1012.77 536.6 1012.77 536.6 1012.64 530.8 1012.64 530.8 1009.2 536.6 1009.2 536.6 1009.33"></polygon><path class="cls-10" d="M702.08,958.11a21.83,21.83,0,0,1-21.14,20.57,21.59,21.59,0,0,1-13.11-3.94,3.45,3.45,0,0,0-5.42,2.82v-3.44a3.44,3.44,0,0,1,5.42-2.82,21.78,21.78,0,0,0,34.22-16.1A21.67,21.67,0,0,1,702.08,958.11Z"></path><rect class="cls-10" x="796.9" y="1009.33" width="0.08" height="0.1"></rect><path class="cls-10" d="M836.62,955.2a21.78,21.78,0,0,1-34.22,19.54,3.45,3.45,0,0,0-5.42,2.82v-3.44a3.44,3.44,0,0,1,5.42-2.82,21.78,21.78,0,0,0,34.22-16.1Z"></path><path class="cls-10" d="M798.09,890.36H797v-3.44h1.11V887h38a3.72,3.72,0,0,1,3.29,5.44,3.68,3.68,0,0,0-3.29-2h-38Z"></path><path class="cls-10" d="M881.8,908.07c0,.57.06,1.15.06,1.73a23.5,23.5,0,0,1-47,.65,23,23,0,0,1,.06-2.36,23.5,23.5,0,0,0,46.87,0Z"></path><path class="cls-10" d="M933.93,886.92v3.44h-.06v.09H880.61a3.62,3.62,0,0,0-3.26,2,3.7,3.7,0,0,1,3.26-5.42h53.26v-.09Z"></path><path class="cls-10" d="M797,936.3v-3.44a3.33,3.33,0,0,0,1.27,2.65,3.44,3.44,0,0,0,4.17.12,21.79,21.79,0,0,1,34.09,15.07h0a20.82,20.82,0,0,1,.14,4l0,.53c0-.35-.06-.7-.11-1.05h0a21.78,21.78,0,0,0-34.09-15.06,3.46,3.46,0,0,1-4.17-.12A3.34,3.34,0,0,1,797,936.3Z"></path><path class="cls-10" d="M834.87,907a23.43,23.43,0,0,1,4.26-14.15,4.37,4.37,0,0,0,.25-.4,3.64,3.64,0,0,1-.25,3.85,23.27,23.27,0,0,0-4.2,11.79C834.9,907.73,834.88,907.37,834.87,907Z"></path><path class="cls-10" d="M877.62,896.32a3.7,3.7,0,0,1-.27-3.89,2.68,2.68,0,0,0,.27.45,23.4,23.4,0,0,1,4.24,13.47c0,.58,0,1.15-.06,1.72A23.45,23.45,0,0,0,877.62,896.32Z"></path><polygon class="cls-10" points="933.93 1009.43 933.93 1012.88 796.9 1012.88 796.9 1012.77 796.98 1012.77 796.98 1009.43 933.93 1009.43"></polygon><path class="cls-10" d="M834.3,757.14H795.14v-5.91H834.3a3.65,3.65,0,0,0,2.35-.83c.18.24.36.47.55.7A3.71,3.71,0,0,1,834.3,757.14Z"></path><path class="cls-10" d="M838.92,816.64a23.5,23.5,0,0,1-38.34,18.79,3.7,3.7,0,0,0-5.44.86v-5.9a3.7,3.7,0,0,1,5.44-.87,23.5,23.5,0,0,0,38.17-15.25A20.65,20.65,0,0,1,838.92,816.64Z"></path><path class="cls-10" d="M878.73,733.3a23.5,23.5,0,0,0-46.63,0,23.5,23.5,0,1,1,46.81-3A24.13,24.13,0,0,1,878.73,733.3Z"></path><path class="cls-10" d="M930.91,751.23v5.91H876.52a3.71,3.71,0,0,1-2.89-6l.54-.69a3.65,3.65,0,0,0,2.35.83Z"></path><path class="cls-10" d="M836.65,750.4a23.4,23.4,0,0,1-4.74-14.24,24.5,24.5,0,0,1,.19-2.85,23.27,23.27,0,0,0,5.1,11.88A3.7,3.7,0,0,1,836.65,750.4Z"></path><path class="cls-10" d="M873.63,745.19a23.51,23.51,0,0,0,5.1-11.89,23.85,23.85,0,0,1,.18,3,23.35,23.35,0,0,1-4.74,14.15A3.69,3.69,0,0,1,873.63,745.19Z"></path><path class="cls-6" d="M733,718.7a23.5,23.5,0,1,1-38.48,0,3.71,3.71,0,0,0-3-5.84h-38V656.21a3.7,3.7,0,0,1,5.45-.86,23.5,23.5,0,1,0,0-36.43,3.7,3.7,0,0,1-5.44-.87v-41h39.16a3.71,3.71,0,0,0,2.9-6A23.5,23.5,0,1,1,732,571a3.71,3.71,0,0,0,2.89,6h54.4V712.83H736A3.71,3.71,0,0,0,733,718.7Z"></path><path class="cls-4" d="M794.38,577.06V712.83H741.12a3.7,3.7,0,0,0-3,5.87,23.51,23.51,0,1,1-38.49,0,3.72,3.72,0,0,0-3-5.85h-38V656.21a3.7,3.7,0,0,1,5.45-.86,23.5,23.5,0,1,0,0-36.43,3.7,3.7,0,0,1-5.44-.87v-41h39.16a3.71,3.71,0,0,0,2.9-6,23.5,23.5,0,1,1,36.43,0,3.72,3.72,0,0,0,2.89,6Z"></path><path class="cls-10" d="M736.78,541a23.5,23.5,0,0,0-33.41,32.77,3.71,3.71,0,0,1-2.9,6H661.31v40a3.73,3.73,0,0,1-2.71-1.67v-41h39.16a3.71,3.71,0,0,0,2.9-6A23.5,23.5,0,0,1,736.78,541Z"></path><path class="cls-10" d="M681.6,663.34a23.38,23.38,0,0,1-14.85-5.29,3.7,3.7,0,0,0-5.44.87v53.91H658.6V656.21a3.7,3.7,0,0,1,5.45-.86A23.48,23.48,0,0,0,696.79,622a23.47,23.47,0,0,1-15.19,41.39Z"></path><path class="cls-10" d="M703.68,750.08a23.45,23.45,0,0,1-4-31.4,3.67,3.67,0,0,0,.57-3,3.72,3.72,0,0,1,2.14,5.74,23.45,23.45,0,0,0,1.33,28.7Z"></path><path class="cls-10" d="M756,853.1a21.61,21.61,0,0,0-13.76-6,22.72,22.72,0,0,0-4,.14h0a21.78,21.78,0,0,0-15.06,34.1,3.46,3.46,0,0,1-.12,4.17,3.36,3.36,0,0,1-2.66,1.26h-55V1009.2h-3V883.38h55a3.32,3.32,0,0,0,2.65-1.27,3.44,3.44,0,0,0,.13-4.17,21.78,21.78,0,0,1,15.06-34.09h0A21.77,21.77,0,0,1,756,853.1Z"></path><path class="cls-10" d="M793.54,883.51v3.31H760.47a3.48,3.48,0,0,1-3.52-3.48,2.92,2.92,0,0,0,.51,0H793.4v.13Z"></path><path class="cls-6" d="M658,883.13V1009H621.67a3.68,3.68,0,0,0-.89.11H583.43a3.53,3.53,0,0,0-.88-.11H526.49V883.13h55a3.36,3.36,0,0,0,2.66-1.26,3.46,3.46,0,0,0,.12-4.17,21.79,21.79,0,0,1,19-34.24c.53,0,1.06.08,1.58.14h0a21.78,21.78,0,0,1,15,34.12,3.44,3.44,0,0,0,2.82,5.41Z"></path><path class="cls-9" d="M702.08,954.66a21.78,21.78,0,0,1-34.25,16.64,3.44,3.44,0,0,0-5.42,2.82v35.21H536.6v-.13h-5.79V883.38h55a3.34,3.34,0,0,0,2.66-1.27,3.46,3.46,0,0,0,.12-4.17,21.78,21.78,0,0,1,15.06-34.09h0A21.78,21.78,0,0,1,624.25,878a3.45,3.45,0,0,0,2.82,5.42h35.21v.13h.13v49.35a3.33,3.33,0,0,0,1.27,2.65,3.44,3.44,0,0,0,4.17.12,21.79,21.79,0,0,1,34.09,15.07h0A20.82,20.82,0,0,1,702.08,954.66Z"></path><path class="cls-10" d="M588.77,881.67a3.44,3.44,0,0,1-.3,3.89,3.36,3.36,0,0,1-2.66,1.26h-55v-3.44h55a3.34,3.34,0,0,0,2.66-1.27A3.41,3.41,0,0,0,588.77,881.67Z"></path><path class="cls-10" d="M628.14,867.18a21.85,21.85,0,0,0-20.52-20,22.72,22.72,0,0,0-4,.14h0a21.79,21.79,0,0,0-18.93,19.9c-.05-.58-.07-1.15-.07-1.74a21.78,21.78,0,0,1,19-21.6h0a21.8,21.8,0,0,1,24.54,21A22.53,22.53,0,0,1,628.14,867.18Z"></path><path class="cls-10" d="M662.28,887v-.13H627.07a3.39,3.39,0,0,1-2.66-1.26,3.42,3.42,0,0,1-.32-3.91,2.91,2.91,0,0,0,.32.46,3.36,3.36,0,0,0,2.66,1.27h35.21v.13h.13V887Z"></path><path class="cls-10" d="M588.59,881.39a21.71,21.71,0,0,1-3.94-12.5c0-.57,0-1.14.07-1.7a21.59,21.59,0,0,0,3.87,10.75,3.45,3.45,0,0,1,.18,3.73A2.68,2.68,0,0,0,588.59,881.39Z"></path><path class="cls-10" d="M624.09,881.65a3.4,3.4,0,0,1,.16-3.69,21.65,21.65,0,0,0,3.89-10.78c0,.37,0,.74.05,1.12a21.67,21.67,0,0,1-3.94,13.11Z"></path><circle class="cls-12" cx="91" cy="9.11" r="8.72"></circle><path class="cls-11" d="M940,1008.72c0-1.46-210.41-4.78-470-4.78s-470,3.32-470,4.78,210.42.54,470,.54S940,1010.19,940,1008.72Z"></path></g></g></g></svg>