<svg xmlns="http://www.w3.org/2000/svg" width="71" height="58" viewBox="0 0 71 58"><g transform="translate(-10 -17)"><path d="M38.612,60.236H52.388V75H38.612Z" fill="#01c7d4" fill-rule="evenodd"></path><path d="M65.1,29.655H78.881V75H65.1Z" fill="#01c7d4" fill-rule="evenodd"></path><path d="M79.817,27.823H66.8V18.2A1.193,1.193,0,0,0,65.617,17H25.383A1.193,1.193,0,0,0,24.2,18.2V45.584H11.183A1.193,1.193,0,0,0,10,46.786V74.7h2.367V47.989H24.2V73.8A1.193,1.193,0,0,0,25.383,75H65.617A1.193,1.193,0,0,0,66.8,73.8V30.228H78.633V74.7H81V29.025a1.193,1.193,0,0,0-1.183-1.2ZM44.317,72.6H39.583V61.772h4.733V72.6Zm7.1,0H46.683V61.772h4.733V72.6Zm13.017,0H53.783V60.57a1.193,1.193,0,0,0-1.183-1.2H38.4a1.193,1.193,0,0,0-1.183,1.2V72.6H26.567V19.405H64.433V72.6ZM37.217,21.81h-7.1a1.193,1.193,0,0,0-1.183,1.2v7.215a1.193,1.193,0,0,0,1.183,1.2h7.1a1.193,1.193,0,0,0,1.183-1.2V23.013A1.193,1.193,0,0,0,37.217,21.81Zm-1.183,7.215H31.3v-4.81h4.733v4.81ZM49.05,21.81h-7.1a1.193,1.193,0,0,0-1.183,1.2v7.215a1.193,1.193,0,0,0,1.183,1.2h7.1a1.193,1.193,0,0,0,1.183-1.2V23.013A1.193,1.193,0,0,0,49.05,21.81Zm-1.183,7.215H43.133v-4.81h4.733v4.81ZM60.883,21.81h-7.1a1.193,1.193,0,0,0-1.183,1.2v7.215a1.193,1.193,0,0,0,1.183,1.2h7.1a1.193,1.193,0,0,0,1.183-1.2V23.013a1.193,1.193,0,0,0-1.183-1.2ZM59.7,29.025H54.967v-4.81H59.7Zm-22.483,4.81h-7.1a1.193,1.193,0,0,0-1.183,1.2V42.25a1.193,1.193,0,0,0,1.183,1.2h7.1a1.193,1.193,0,0,0,1.183-1.2V35.038a1.193,1.193,0,0,0-1.183-1.2ZM36.034,41.05H31.3V36.24h4.733v4.81ZM49.05,33.836h-7.1a1.193,1.193,0,0,0-1.183,1.2v7.215a1.193,1.193,0,0,0,1.183,1.2h7.1a1.193,1.193,0,0,0,1.183-1.2V35.038a1.193,1.193,0,0,0-1.183-1.2Zm-1.183,7.215H43.133v-4.81h4.733v4.81Zm13.017-7.215h-7.1a1.193,1.193,0,0,0-1.183,1.2v7.215a1.193,1.193,0,0,0,1.183,1.2h7.1a1.193,1.193,0,0,0,1.183-1.2V35.038a1.193,1.193,0,0,0-1.184-1.2ZM59.7,41.051H54.967v-4.81H59.7Zm-22.483,4.81h-7.1a1.193,1.193,0,0,0-1.183,1.2v7.215a1.193,1.193,0,0,0,1.183,1.2h7.1a1.193,1.193,0,0,0,1.183-1.2V47.064a1.193,1.193,0,0,0-1.183-1.2Zm-1.183,7.215H31.3v-4.81h4.733v4.81ZM49.05,45.861h-7.1a1.193,1.193,0,0,0-1.183,1.2v7.215a1.193,1.193,0,0,0,1.183,1.2h7.1a1.193,1.193,0,0,0,1.183-1.2V47.064A1.193,1.193,0,0,0,49.05,45.861Zm-1.183,7.215H43.133v-4.81h4.733v4.81Zm13.017-7.215h-7.1a1.193,1.193,0,0,0-1.183,1.2v7.215a1.193,1.193,0,0,0,1.183,1.2h7.1a1.193,1.193,0,0,0,1.183-1.2V47.064a1.193,1.193,0,0,0-1.184-1.2ZM59.7,53.076H54.967v-4.81H59.7Z" fill="#11244c" fill-rule="evenodd"></path></g></svg>