<svg xmlns="http://www.w3.org/2000/svg" viewBox="0 0 261 252"><defs><style>.cls-1{isolation:isolate;}.cls-2,.cls-3,.cls-7{fill:#cee0f2;}.cls-3,.cls-8{mix-blend-mode:multiply;}.cls-4{fill:#0c7ff2;}.cls-5{fill:#fff;}.cls-6{fill:#2e2e76;}.cls-7{mix-blend-mode:overlay;opacity:0.22;}.cls-8{fill:#9caab8;opacity:0.15;}.cls-9{fill:none;}</style></defs><g class="cls-1"><g id="Layer_2" data-name="Layer 2"><g id="Layer_1-2" data-name="Layer 1"><rect class="cls-2" x="34.57" y="14.48" width="116.68" height="225.54" rx="3.77"></rect><path class="cls-3" d="M112.28,210.84V240H78.51V210.84A3.82,3.82,0,0,1,82.32,207h26.15A3.82,3.82,0,0,1,112.28,210.84Z"></path><rect class="cls-3" x="50.01" y="32.46" width="36.53" height="27.14" rx="1.22"></rect><rect class="cls-3" x="99.07" y="32.46" width="36.53" height="27.14" rx="1.22"></rect><rect class="cls-3" x="50.01" y="71.77" width="36.53" height="27.14" rx="1.22"></rect><rect class="cls-3" x="99.07" y="71.77" width="36.53" height="27.14" rx="1.22"></rect><rect class="cls-3" x="50.01" y="111.08" width="36.53" height="27.14" rx="1.22"></rect><rect class="cls-3" x="99.07" y="111.08" width="36.53" height="27.14" rx="1.22"></rect><rect class="cls-3" x="50.01" y="150.39" width="36.53" height="27.14" rx="1.22"></rect><rect class="cls-3" x="99.07" y="150.39" width="36.53" height="27.14" rx="1.22"></rect><path class="cls-4" d="M226,63.78V234.27a5.73,5.73,0,0,1-5.47,6H113.67a5.73,5.73,0,0,1-5.47-6V63.78a5.74,5.74,0,0,1,5.47-6H220.48A5.74,5.74,0,0,1,226,63.78Z"></path><rect class="cls-5" x="124.92" y="73.75" width="36.53" height="27.14" rx="1.22"></rect><rect class="cls-5" x="172.99" y="73.75" width="36.53" height="27.14" rx="1.22"></rect><rect class="cls-5" x="124.92" y="110.32" width="36.53" height="27.14" rx="1.22"></rect><rect class="cls-5" x="172.99" y="110.32" width="36.53" height="27.14" rx="1.22"></rect><rect class="cls-5" x="124.92" y="146.65" width="36.53" height="27.14" rx="1.22"></rect><rect class="cls-5" x="172.99" y="146.65" width="36.53" height="27.14" rx="1.22"></rect><path class="cls-6" d="M181.08,210.67v29.18H147.3V210.67a3.82,3.82,0,0,1,3.82-3.81h26.14A3.82,3.82,0,0,1,181.08,210.67Z"></path><rect class="cls-7" x="113.67" y="58.97" width="104.41" height="4.16" rx="1.81"></rect><rect class="cls-7" x="40.03" y="14.58" width="104.41" height="4.16" rx="1.81"></rect><rect class="cls-8" x="113.67" y="235.71" width="104.41" height="4.16" rx="1.81"></rect><rect class="cls-9" width="261" height="252"></rect></g></g></g></svg>