<svg xmlns="http://www.w3.org/2000/svg" width="99.479" height="80.455" viewBox="0 0 99.479 80.455"><g id="Group_188" data-name="Group 188" transform="translate(-61.393 -666.262)"><g id="Group_7207" data-name="Group 7207" transform="translate(61.393 714.203)"><g id="Group_7202" data-name="Group 7202" transform="translate(0 0.344)"><path id="Path_35808" data-name="Path 35808" d="M78.238,699.828A9.821,9.821,0,0,0,76.1,693.07a7.7,7.7,0,0,0-6.02-2.383,8.329,8.329,0,0,0-4.474,1.2,8,8,0,0,0-3.1,3.366,10.267,10.267,0,0,0-1.106,4.891v.516a8.689,8.689,0,0,0,2.53,6.56,9.054,9.054,0,0,0,6.612,2.458,9.88,9.88,0,0,0,4.3-.884,7.824,7.824,0,0,0,3.072-2.557l-2.31-2.112a5.883,5.883,0,0,1-4.816,2.284,4.91,4.91,0,0,1-3.489-1.327A5.333,5.333,0,0,1,65.73,701.5H78.238Zm-4.252-1.351H65.8a6.065,6.065,0,0,1,1.4-3.319,3.7,3.7,0,0,1,2.85-1.179,3.816,3.816,0,0,1,2.8,1.056,4.875,4.875,0,0,1,1.129,3.121Z" transform="translate(-61.393 -690.675)" fill="#fff"></path></g><g id="Group_7203" data-name="Group 7203" transform="translate(19.008 0.335)"><path id="Path_35809" data-name="Path 35809" d="M82.6,704.377a1.841,1.841,0,0,0-.947-1.675,10.375,10.375,0,0,0-3.143-1.017,16.658,16.658,0,0,1-3.667-1.121q-3.207-1.492-3.21-4.323a4.809,4.809,0,0,1,2.091-3.966,8.5,8.5,0,0,1,5.307-1.594,8.806,8.806,0,0,1,5.544,1.628,5.075,5.075,0,0,1,2.11,4.217h-4.3a2.5,2.5,0,0,0-.92-1.974,3.6,3.6,0,0,0-2.437-.787,3.911,3.911,0,0,0-2.306.627,1.954,1.954,0,0,0-.89,1.675,1.663,1.663,0,0,0,.829,1.479,12.1,12.1,0,0,0,3.356,1.062,16.45,16.45,0,0,1,3.969,1.268,5.564,5.564,0,0,1,2.138,1.768,4.365,4.365,0,0,1,.7,2.51,4.711,4.711,0,0,1-2.14,4,9.423,9.423,0,0,1-5.607,1.535,10.315,10.315,0,0,1-4.193-.813,6.842,6.842,0,0,1-2.862-2.237A5.14,5.14,0,0,1,71,703.572h4.173a2.82,2.82,0,0,0,1.149,2.243,4.647,4.647,0,0,0,2.814.787,4.491,4.491,0,0,0,2.583-.621A1.841,1.841,0,0,0,82.6,704.377Z" transform="translate(-71.004 -690.671)" fill="#fff"></path></g><g id="Group_7204" data-name="Group 7204" transform="translate(37.447 0.349)"><path id="Path_35810" data-name="Path 35810" d="M89.027,706.407a3.963,3.963,0,0,0,2.666-.9,3,3,0,0,0,1.129-2.219h4.047a5.887,5.887,0,0,1-1.115,3.2,7.253,7.253,0,0,1-2.826,2.35,8.747,8.747,0,0,1-3.861.862A8.339,8.339,0,0,1,82.7,707.2a9.612,9.612,0,0,1-2.354-6.881V699.9a9.461,9.461,0,0,1,2.332-6.7,8.26,8.26,0,0,1,6.369-2.516,8.063,8.063,0,0,1,5.566,1.907,6.7,6.7,0,0,1,2.257,5.006H92.821a3.654,3.654,0,0,0-3.8-3.605,3.834,3.834,0,0,0-3.218,1.448,7.185,7.185,0,0,0-1.149,4.4v.661a7.319,7.319,0,0,0,1.121,4.452A3.907,3.907,0,0,0,89.027,706.407Z" transform="translate(-80.327 -690.678)" fill="#fff"></path></g><g id="Group_7205" data-name="Group 7205" transform="translate(56.353 0.344)"><path id="Path_35811" data-name="Path 35811" d="M105.6,705.113v-8.257a5.724,5.724,0,0,0-2.063-4.547,8.154,8.154,0,0,0-5.358-1.622,10.172,10.172,0,0,0-4.005.738,6.987,6.987,0,0,0-2.826,2.065,4.285,4.285,0,0,0-1.056,2.824h4.3a2.195,2.195,0,0,1,.934-1.794,3.983,3.983,0,0,1,2.409-.712,3.5,3.5,0,0,1,2.532.86,3.176,3.176,0,0,1,.811,2.286v1.2h-2.63a11.236,11.236,0,0,0-6.487,1.574,5.127,5.127,0,0,0-2.261,4.5,4.973,4.973,0,0,0,1.818,3.908,7.14,7.14,0,0,0,4.693,1.572,6.783,6.783,0,0,0,5.014-2.063,6.85,6.85,0,0,0,.492,1.719h4.4v-.295A8.763,8.763,0,0,1,105.6,705.113Zm-4.324-.91a3.907,3.907,0,0,1-1.671,1.6,5.158,5.158,0,0,1-2.409.589A3.324,3.324,0,0,1,95,705.7a2.383,2.383,0,0,1-.835-1.893,2.565,2.565,0,0,1,1.2-2.261,6.488,6.488,0,0,1,3.588-.787h2.31Z" transform="translate(-89.886 -690.675)" fill="#fff"></path></g><g id="Group_7206" data-name="Group 7206" transform="translate(80.461)"><path id="Path_35812" data-name="Path 35812" d="M117.787,704.962v-8.281a5.712,5.712,0,0,0-2.065-4.547,8.3,8.3,0,0,0-5.358-1.622,10.639,10.639,0,0,0-4.005.761,6.723,6.723,0,0,0-2.826,2.041,4.336,4.336,0,0,0-1.056,2.826h4.3a2.19,2.19,0,0,1,.934-1.794,3.833,3.833,0,0,1,2.409-.688,3.4,3.4,0,0,1,2.532.858,3.189,3.189,0,0,1,.835,2.263v1.2h-2.629a11.528,11.528,0,0,0-6.513,1.574,5.128,5.128,0,0,0-2.261,4.5,4.973,4.973,0,0,0,1.818,3.908,7.493,7.493,0,0,0,9.733-.467,5.832,5.832,0,0,0,.49,1.7H118.5v-.295A9.371,9.371,0,0,1,117.787,704.962Zm-4.3-.933a4.1,4.1,0,0,1-1.7,1.6,5.083,5.083,0,0,1-2.409.589,3.2,3.2,0,0,1-2.187-.688,2.393,2.393,0,0,1-.835-1.893,2.569,2.569,0,0,1,1.2-2.261,6.537,6.537,0,0,1,3.588-.787h2.334Z" transform="translate(-102.075 -690.502)" fill="#fff"></path></g></g><g id="Group_7208" data-name="Group 7208" transform="translate(123.448 734.403)"><path id="Path_35813" data-name="Path 35813" d="M101.517,713.021H93.007v-1.386l4.213-4.4a10.29,10.29,0,0,0,1.3-1.63,2.553,2.553,0,0,0,.386-1.315,1.94,1.94,0,0,0-.508-1.4,1.811,1.811,0,0,0-1.373-.532,2.079,2.079,0,0,0-1.588.6,2.3,2.3,0,0,0-.564,1.642H92.769a3.8,3.8,0,0,1,.53-1.994,3.545,3.545,0,0,1,1.505-1.382,4.98,4.98,0,0,1,2.257-.495,4.383,4.383,0,0,1,2.9.888,3.021,3.021,0,0,1,1.062,2.457,4.043,4.043,0,0,1-.536,1.9,11.162,11.162,0,0,1-1.748,2.263l-3.087,3.17h5.878v1.622Z" transform="translate(-92.769 -700.715)" fill="#fff"></path><path id="Path_35814" data-name="Path 35814" d="M105.324,708.6v-7.789h-2.187L97.68,708.99l.075,1.23h5.455v2.7h2.114v-2.7H106.9V708.6Zm-2.114,0H99.893l3.17-4.79.146-.271Z" transform="translate(-87.966 -700.623)" fill="#fff"></path><path id="Path_35815" data-name="Path 35815" d="M106.825,705.344l1.79-2.959h2.348l-2.876,4.438,2.973,4.571h-2.326l-1.881-3.083-1.867,3.083h-2.352l2.973-4.571-2.87-4.438h2.328Z" transform="translate(-83.122 -699.081)" fill="#fff"></path><path id="Path_35816" data-name="Path 35816" d="M116.027,701.932l-5.057,11H108.75l5.049-10.506h-6.543v-1.618h8.77Z" transform="translate(-78.602 -700.62)" fill="#fff"></path></g><g id="Group_7209" data-name="Group 7209" transform="translate(129.845 670.47)"><path id="Path_9575" data-name="Path 9575" d="M99.051,668.39v43.227A17.685,17.685,0,0,0,96,710.29v-41.9Z" transform="translate(-96.003 -668.39)" fill="#fff"></path></g><g id="Group_7210" data-name="Group 7210" transform="translate(136.687 666.262)"><rect id="Rectangle_2563" data-name="Rectangle 2563" width="4.01" height="66.979" transform="translate(0)" fill="#fff"></rect></g><g id="Group_7211" data-name="Group 7211" transform="translate(123.848 680.842)"><path id="Path_9576" data-name="Path 9576" d="M92.971,673.634h2.975v31.012h-.222a25.682,25.682,0,0,0-2.753.148Z" transform="translate(-92.971 -673.634)" fill="#fff"></path><path id="Path_9577" data-name="Path 9577" d="M95.121,689.4v-.047C95.17,689.376,95.194,689.376,95.121,689.4Z" transform="translate(-90.869 -658.265)" fill="#fff"></path></g><g id="Group_7212" data-name="Group 7212" transform="translate(118.172 688.502)"><path id="Path_9578" data-name="Path 9578" d="M93.222,677.507v24.06c-.172.1-.368.2-.566.295A11.8,11.8,0,0,0,90.1,704V677.507Z" transform="translate(-90.101 -677.507)" fill="#fff"></path></g></g></svg>