<svg xmlns="http://www.w3.org/2000/svg" viewBox="0 0 568.51 468.87"><defs><style>.cls-1{isolation:isolate;}.cls-2{fill:none;}.cls-3{fill:#0c7ff2;}.cls-4{fill:#9dc7f2;}.cls-5{fill:#fff;}.cls-6{font-size:26.35px;font-family:Rubik-Bold, Rubik;font-weight:700;}.cls-10,.cls-6{fill:#2e2e76;}.cls-7{font-family:Rubik-Regular, Rubik;font-weight:400;}.cls-8{letter-spacing:-0.01em;}.cls-12,.cls-9{fill:#cee0f2;}.cls-11{fill:#9caab8;mix-blend-mode:multiply;opacity:0.48;}.cls-12{mix-blend-mode:overlay;opacity:0.18;}</style></defs><g class="cls-1"><g id="Layer_2" data-name="Layer 2"><g id="Layer_1-2" data-name="Layer 1"><rect id="rect201" class="cls-2" width="568.51" height="468.87"></rect><path class="cls-3" d="M295.9,300.76h-111a7.86,7.86,0,0,1-8.1-7.6V176.48a7.31,7.31,0,0,1,2-4.95l28.15-30.68a8.35,8.35,0,0,1,6.15-2.64H295.9a7.87,7.87,0,0,1,8.11,7.6V293.16A7.87,7.87,0,0,1,295.9,300.76Z"></path><path class="cls-4" d="M209.06,139.67V173a.68.68,0,0,1-.69.68l-29.79-.5a.68.68,0,0,1-.49-1.14l29.78-32.79A.68.68,0,0,1,209.06,139.67Z"></path><rect class="cls-5" x="182.27" y="238.86" width="100.3" height="56.45" rx="10.43"></rect><text class="cls-6" transform="translate(189.1 263.6) scale(1.01 1)">API<tspan class="cls-7"><tspan x="0" y="23.34">SP</tspan><tspan class="cls-8" x="33.31" y="23.34">E</tspan><tspan x="49.09" y="23.34">C</tspan></tspan></text><path class="cls-9" d="M128.41,161.58H52.7a5.37,5.37,0,0,1-5.53-5.18V76.84a5,5,0,0,1,1.34-3.38l19.2-20.92a5.7,5.7,0,0,1,4.19-1.8h56.51a5.37,5.37,0,0,1,5.53,5.18V156.4A5.37,5.37,0,0,1,128.41,161.58Z"></path><rect class="cls-10" x="60.45" y="77.95" width="44.12" height="5.13"></rect><rect class="cls-10" x="60.45" y="89.83" width="60.19" height="5.13"></rect><rect class="cls-10" x="60.45" y="101.71" width="46.86" height="5.13"></rect><rect class="cls-10" x="60.45" y="113.59" width="57.12" height="5.13"></rect><path class="cls-9" d="M162.82,221.35V228H118.93a10.6,10.6,0,0,1-10.6-10.6V173.54H115v42.57a5.24,5.24,0,0,0,5.24,5.24Z"></path><path class="cls-9" d="M125.91,418.2H50.2A5.37,5.37,0,0,1,44.67,413V333.46A5,5,0,0,1,46,330.09l19.2-20.92a5.66,5.66,0,0,1,4.19-1.8h56.51a5.35,5.35,0,0,1,5.53,5.18V413A5.36,5.36,0,0,1,125.91,418.2Z"></path><rect class="cls-10" x="57.95" y="334.57" width="44.12" height="5.13"></rect><rect class="cls-10" x="57.95" y="346.45" width="60.19" height="5.13"></rect><rect class="cls-10" x="57.95" y="358.34" width="46.86" height="5.13"></rect><rect class="cls-10" x="57.95" y="370.22" width="57.12" height="5.13"></rect><path class="cls-9" d="M162.82,250v-6.69H121a12.68,12.68,0,0,0-12.68,12.68v41.81H115V256.48a6.53,6.53,0,0,1,6.53-6.53Z"></path><rect class="cls-11" x="183.92" y="297.98" width="114.28" height="2.78" rx="1.25"></rect><rect class="cls-12" x="209.06" y="138.98" width="89.14" height="2.78" rx="1.25"></rect></g></g></g></svg>