<svg xmlns:inkscape="http://www.inkscape.org/namespaces/inkscape" xmlns:sodipodi="http://sodipodi.sourceforge.net/DTD/sodipodi-0.dtd" xmlns="http://www.w3.org/2000/svg" xmlns:svg="http://www.w3.org/2000/svg" id="Layer_1" data-name="Layer 1" viewBox="0 0 783.37 468.87" sodipodi:docname="Feature Page-_DX Portal.svg" inkscape:version="1.1.1 (3bf5ae0d25, 2021-09-20)"><defs id="defs7"><style id="style2">.cls-1{fill:#f0f7ff;}.cls-2{clip-path:url(#clip-path);}.cls-3{fill:#d9dee5;}.cls-4{fill:#b6c6d6;}.cls-5{fill:#f8fafc;}.cls-6{fill:#cee0f2;}.cls-7{fill:#9dc7f2;}.cls-8{fill:#2e2e76;}.cls-9{fill:#0c7ff2;}.cls-10{fill:#e7e9f2;}</style><clipPath id="clip-path"><path class="cls-1" d="M304.63-424.24-433.14-851.15c-7.72-4.49-13.37-3.15-18.77.85q-8.89,5.12-17.66,10.45-47.51,28-94.89,56.18-15.51,9-30.89,18.29c-10.15,5.6-18.19,8.91-18,24.84h0c0,17.38,10.52,37.58,23.49,45.1L148-268.53c11.61,7.15,18.5-1.19,27.6-6.08q49.71-29.26,99.3-58.79,17.72-10.32,35.31-20.9c10.15-5.6,18.19-8.91,18-24.83h0C328.13-396.52,317.61-416.71,304.63-424.24Z" id="path4"></path></clipPath></defs><path class="cls-1" d="M304.63-424.24-433.14-851.15c-7.72-4.49-13.37-3.15-18.77.85q-8.89,5.12-17.66,10.45-47.51,28-94.89,56.18-15.51,9-30.89,18.29c-10.15,5.6-18.19,8.91-18,24.84h0c0,17.38,10.52,37.58,23.49,45.1L148-268.53c11.61,7.15,18.5-1.19,27.6-6.08q49.71-29.26,99.3-58.79,17.72-10.32,35.31-20.9c10.15-5.6,18.19-8.91,18-24.83h0C328.13-396.52,317.61-416.71,304.63-424.24Z" id="path9"></path><g class="cls-2" clip-path="url(#clip-path)" id="g19"><polygon class="cls-3" points="845.63 -453.7 49.49 19.28 24.74 5.26 820.88 -467.71 845.63 -453.7" id="polygon11"></polygon><polygon class="cls-3" points="976.7 -379.47 180.56 93.5 155.81 79.49 951.95 -393.49 976.7 -379.47" id="polygon13"></polygon><polygon class="cls-4" points="850.07 -451.18 53.93 21.8 29.19 7.78 825.32 -465.19 850.07 -451.18" id="polygon15"></polygon><polygon class="cls-4" points="981.14 -376.96 185 96.02 160.26 82 956.39 -390.97 981.14 -376.96" id="polygon17"></polygon></g><g id="rect201" style="fill:#e6e6e6;fill-opacity:1"><rect class="cls-5" width="783.37" height="468.87" id="rect21" style="fill:#e6e6e6;fill-opacity:1"></rect></g><path class="cls-6" d="M569.2,403.18H215.32a35.93,35.93,0,0,1-35.94-35.93V105.35H605.13v261.9A35.93,35.93,0,0,1,569.2,403.18Z" id="path24"></path><rect class="cls-7" x="321.37" y="137.19" width="202.07" height="11.26" rx="1.6" id="rect26"></rect><rect class="cls-7" x="321.37" y="175.93" width="183.22" height="11.26" rx="1.6" id="rect28"></rect><rect class="cls-7" x="321.37" y="214.67" width="211.94" height="11.26" rx="1.6" id="rect30"></rect><path class="cls-8" d="M288.39,403.76H210.16a31.94,31.94,0,0,1-31.94-31.94V92.22H288.39Z" id="path32"></path><path class="cls-9" d="M205.4,65.11H578a27.4,27.4,0,0,1,27.4,27.4v17.34a0,0,0,0,1,0,0H178a0,0,0,0,1,0,0V92.51A27.4,27.4,0,0,1,205.4,65.11Z" id="path34"></path><path class="cls-9" d="M678,388.43a40.23,40.23,0,0,1-1.75,4.86,34.57,34.57,0,0,1-35.09,21.81v.06H532.88a39.1,39.1,0,0,1-31.06-13l-.48-.55c-.18-.19-.36-.4-.53-.61-.75-.89-1.47-1.81-2.14-2.77-.24-.32-.46-.64-.68-1-.49-.72-.95-1.45-1.39-2.2-.22-.36-.42-.73-.63-1.09l-.18-.32c-.14-.26-.28-.52-.42-.8s-.39-.75-.57-1.12l-.47-1a47.12,47.12,0,0,1-2.32-6.09c-5.24-17.07-1.27-37.11,14.37-48.27a16.11,16.11,0,0,0,4.93-5.63,15.49,15.49,0,0,0,1.77-7.26c-.14-23.56,16.32-40.38,36.22-46.79s43.25-2.4,56.89,15.67a16.13,16.13,0,0,0,6.95,5.31,14.34,14.34,0,0,0,8.63.63c9.38-2.27,19,1.05,25.89,7.33.32.3.64.6,1,.91s.46.45.69.69l.3.32.73.8a.47.47,0,0,0,.09.12c.28.32.55.65.82,1s.56.71.82,1.07.51.72.75,1.07.49.74.71,1.12.45.75.66,1.13a27,27,0,0,1,3.24,16.86,14,14,0,0,0,1.45,8.39,17.55,17.55,0,0,0,5.8,6.48c9.24,6.31,14.05,16.35,14.93,26.86A43.74,43.74,0,0,1,678,388.43Z" id="path36"></path><path class="cls-10" d="M658.4,371.5a12.58,12.58,0,0,0-8.92-3.7,13,13,0,0,0-2.08.18l-5.33-13.84-5.3-13.74a12.85,12.85,0,0,0,3.25-2.35,12.61,12.61,0,1,0-20.79-13.21l-23-3.64-18.34-2.9a17.44,17.44,0,0,0,.09-1.79,17.23,17.23,0,1,0-29.42,12.19,17.71,17.71,0,0,0,2.09,1.78l-7.4,14.65-7.79,15.44a16.27,16.27,0,1,0,5.4,26.6,16.39,16.39,0,0,0,4.12-7c4.7.36,9.41.69,14.11,1q15.08.9,30.17,1.21c5,.1,10,.18,15.08.17s10.05-.09,15.08-.3l15.06-.46,2.48-.07A12.62,12.62,0,1,0,658.4,371.5ZM546.81,347l8-14.34a17.24,17.24,0,0,0,22.61-11.91l18.21,3.65L618.49,329s0,.07,0,.1a12.62,12.62,0,0,0,.76,4.32q-18.71,11-38.41,20.29-18,8.44-36.62,15.35a16.38,16.38,0,0,0-3.38-4.94,16.2,16.2,0,0,0-2.44-2Zm87.61,32.36-15-.11c-5,0-10-.08-15-.26s-10-.44-15-.73q-15-.89-29.92-2.33-7-.68-13.92-1.48a16.82,16.82,0,0,0-.42-2.68q18.92-6.56,37.24-14.69,20.05-8.91,39.25-19.67l.56.6a12.58,12.58,0,0,0,8.92,3.69,12.8,12.8,0,0,0,2.78-.31l4.64,14,4.67,14.08a12.57,12.57,0,0,0-6.28,9.93Z" id="path38"></path></svg>