<svg xmlns="http://www.w3.org/2000/svg" viewBox="0 0 1649.58 824.92"><defs><style>.cls-1{isolation:isolate;}.cls-2{fill:none;stroke:#cee0f2;stroke-miterlimit:10;stroke-width:2px;}.cls-3{fill:#f8fafc;}.cls-17,.cls-4{fill:#cee0f2;}.cls-5{fill:#0c7ff2;}.cls-6{fill:#2e2e76;}.cls-7{fill:#9dc7f2;}.cls-12,.cls-14,.cls-15,.cls-17,.cls-8{mix-blend-mode:multiply;}.cls-12,.cls-8{opacity:0.15;}.cls-9{fill:#0062ff;}.cls-10{fill:#f5f5f5;}.cls-11{fill:#fff;}.cls-13{fill:#e7e9f2;}.cls-14{opacity:0.24;}.cls-15{opacity:0.18;}.cls-16{fill:#b6c6d6;}</style></defs><g class="cls-1"><g id="Layer_2" data-name="Layer 2"><g id="Layer_1-2" data-name="Layer 1"><rect class="cls-2" x="441.14" y="1" width="811.62" height="780.47" rx="51.99"></rect><rect class="cls-3" x="445.36" y="5.05" width="803.19" height="772.37" rx="47.61"></rect><path class="cls-4" d="M1055.43,419.05v66.77a14.78,14.78,0,0,1-14.77,14.77H950.45a14.77,14.77,0,0,1-14.78-14.77V419.05Z"></path><path class="cls-5" d="M945.44,406.46h100.22a9.77,9.77,0,0,1,9.77,9.77V419a0,0,0,0,1,0,0H935.67a0,0,0,0,1,0,0v-2.82A9.77,9.77,0,0,1,945.44,406.46Z"></path><path class="cls-6" d="M955.68,428.46H1035a4.49,4.49,0,0,1,4.49,4.49v67.64a0,0,0,0,1,0,0H951.19a0,0,0,0,1,0,0V433A4.49,4.49,0,0,1,955.68,428.46Z"></path><path class="cls-7" d="M722.16,167.45a27.92,27.92,0,0,1-.35,4.41c-2.44,15.44-17.56,27.38-35.84,27.38s-33.45-11.87-35.89-27.38a26.78,26.78,0,0,1-.36-4.41Z"></path><path id="Path_9329" data-name="Path 9329" class="cls-6" d="M654.08,183.21l30.32,29.93a3.06,3.06,0,0,0,4.29,0l29.59-29.93a3,3,0,0,0,0-4.28h0a3,3,0,0,0-2.14-.86H656.22a3,3,0,0,0-2.14,5.15Z"></path><path class="cls-5" d="M734.16,196.2l-27.29,27.31-10.21,10.21L682,219l4.7-4.69,8.58-8.55,24.27-24.23a2.88,2.88,0,0,1,4,0l10.67,10.67A2.89,2.89,0,0,1,734.16,196.2Z"></path><path class="cls-5" d="M691.11,218.6l-4.71,4.86-9.73,10.07-10.19-9.87-28-27a2.88,2.88,0,0,1,0-4L649,181.81a2.84,2.84,0,0,1,4,0l24.91,24.05,8.76,8.47Z"></path><path class="cls-8" d="M706.87,223.51l-10.21,10.21L686.4,223.46l-9.73,10.07-10.19-9.87a20.16,20.16,0,0,1,11.43-17.8l8.76,8.47,8.58-8.55A20.17,20.17,0,0,1,706.87,223.51Z"></path><path id="Path_9331" data-name="Path 9331" class="cls-9" d="M648.25,164.48h0c0-15.27,12.52-36.4,27.81-36.4H695.6c15.29,0,27.81,21.13,27.81,36.4h0"></path><circle id="Ellipse_703" data-name="Ellipse 703" class="cls-10" cx="670.89" cy="173.6" r="14.03" transform="translate(-4.85 327.25) rotate(-27.32)"></circle><circle id="Ellipse_704" data-name="Ellipse 704" class="cls-9" cx="670.89" cy="173.6" r="7.17" transform="translate(-9.41 305.56) rotate(-25.48)"></circle><circle id="Ellipse_703-2" data-name="Ellipse 703" class="cls-10" cx="701.64" cy="173.6" r="14.03" transform="translate(-1.42 341.36) rotate(-27.32)"></circle><circle id="Ellipse_704-2" data-name="Ellipse 704" class="cls-9" cx="701.64" cy="173.6" r="7.17" transform="translate(-6.42 318.79) rotate(-25.48)"></circle><path class="cls-8" d="M722.16,167.45a27.92,27.92,0,0,1-.35,4.41H650.08a26.78,26.78,0,0,1-.36-4.41Z"></path><path id="Rectangle_1314" data-name="Rectangle 1314" class="cls-6" d="M650.78,157.67H720.9a5.61,5.61,0,0,1,5.63,5.58v.05h0a5.63,5.63,0,0,1-5.63,5.62H650.78a5.62,5.62,0,0,1-5.62-5.61h0a5.6,5.6,0,0,1,5.6-5.62h0Z"></path><path id="Rectangle_1317" data-name="Rectangle 1317" class="cls-7" d="M653.19,120h0a5.32,5.32,0,0,1,7,2.71l7.67,17.34a5.33,5.33,0,0,1-2.71,7h0a5.33,5.33,0,0,1-7-2.72L650.47,127A5.32,5.32,0,0,1,653.19,120Z"></path><path id="Rectangle_1318" data-name="Rectangle 1318" class="cls-7" d="M702.66,140.08l7.68-17.34a5.31,5.31,0,0,1,7-2.72h0a5.31,5.31,0,0,1,2.71,7h0l-7.67,17.35a5.32,5.32,0,0,1-7,2.72h0a5.33,5.33,0,0,1-2.71-7Z"></path><circle id="Ellipse_700" data-name="Ellipse 700" class="cls-7" cx="686.67" cy="224.07" r="18.3" transform="matrix(0.9, -0.43, 0.43, 0.9, -29.6, 317.26)"></circle><path class="cls-5" d="M184.36,415.85H92.63a6.5,6.5,0,0,1-6.7-6.27v-96.4a6.07,6.07,0,0,1,1.62-4.09l23.27-25.35a6.9,6.9,0,0,1,5.08-2.18h68.46a6.5,6.5,0,0,1,6.7,6.28V409.58A6.5,6.5,0,0,1,184.36,415.85Z"></path><path class="cls-7" d="M112.82,283.92v25.22l-22.13.38a1.66,1.66,0,0,1-1-2.76l21.54-23.46A.91.91,0,0,1,112.82,283.92Z"></path><rect class="cls-11" x="100.66" y="326.1" width="58.82" height="6.17" rx="1.71"></rect><rect class="cls-11" x="100.66" y="352.53" width="64.27" height="6.17" rx="1.71"></rect><rect class="cls-11" x="100.66" y="339.04" width="72.04" height="6.17" rx="1.71"></rect><path class="cls-11" d="M964.92,451.13a.41.41,0,0,1-.19-.06l-.19-.09-6.46-4.39a1.44,1.44,0,0,1-.42-.38.75.75,0,0,1-.13-.45v-.48a.75.75,0,0,1,.13-.45,1.59,1.59,0,0,1,.42-.38l6.46-4.38.19-.1a.41.41,0,0,1,.19-.06.4.4,0,0,1,.27.11.37.37,0,0,1,.11.27v1.45a.59.59,0,0,1-.13.41,1.41,1.41,0,0,1-.35.27l-4.64,3.09,4.64,3.11a1.72,1.72,0,0,1,.35.28.56.56,0,0,1,.13.41v1.44a.37.37,0,0,1-.11.27A.4.4,0,0,1,964.92,451.13Z"></path><path class="cls-11" d="M1025,451.13a.36.36,0,0,1-.26-.11.36.36,0,0,1-.12-.29v-1.42a.6.6,0,0,1,.14-.43,1.17,1.17,0,0,1,.34-.26l4.64-3.11-4.64-3.09a1.41,1.41,0,0,1-.34-.28.56.56,0,0,1-.14-.4v-1.45a.34.34,0,0,1,.12-.28.4.4,0,0,1,.26-.1.54.54,0,0,1,.21,0,.68.68,0,0,1,.19.11l6.44,4.38a1.77,1.77,0,0,1,.42.37.74.74,0,0,1,.13.46v.46a.77.77,0,0,1-.13.47,1.44,1.44,0,0,1-.42.38l-6.44,4.39-.19.09A.42.42,0,0,1,1025,451.13Z"></path><rect class="cls-7" x="967.92" y="462.01" width="55.38" height="3.12" rx="1.34"></rect><rect class="cls-7" x="967.92" y="472.07" width="55.38" height="3.12" rx="1.34"></rect><rect class="cls-7" x="967.92" y="481.75" width="55.38" height="3.12" rx="1.34"></rect><rect class="cls-7" x="972.73" y="444" width="44.55" height="3.12" rx="1.34"></rect><path class="cls-6" d="M1014,168.58h0c2.79.94,4.1,4.52,2.93,8l-19,49.8c-1.17,3.48-3.47,5.85-5.15,5.29h0c-1.67-.56-2.08-3.84-.9-7.33l14.94-51.15C1008,169.71,1011.21,167.65,1014,168.58Z"></path><path class="cls-5" d="M1029,160.52c4.24-2.6,8.93-6.81,7.49-12.13a41.28,41.28,0,0,0-5-11.42,35.43,35.43,0,0,0-3.8-4.93c-6.09-6.57-16.11-12.06-32.57-10.8a55.37,55.37,0,0,0-45.74,30.6c-6.69,13.7-7.82,30.19,15.24,40.6a63.31,63.31,0,0,0,42.1,3.25c8.13-2.14,16.73-5.74,22-11.77a6.51,6.51,0,0,0-.7-9.14l-.14-.12A8.85,8.85,0,0,1,1029,160.52Zm-10.27,15.61a8,8,0,1,1-5-10.12A8,8,0,0,1,1018.69,176.13Z"></path><ellipse class="cls-11" cx="995.57" cy="135.64" rx="5.39" ry="7.18" transform="translate(736.4 1106.41) rotate(-82.81)"></ellipse><ellipse class="cls-11" cx="976.11" cy="144.06" rx="5.39" ry="7.18" transform="translate(711.02 1094.46) rotate(-82.81)"></ellipse><ellipse class="cls-11" cx="964.18" cy="158.76" rx="5.39" ry="7.18" transform="matrix(0.13, -0.99, 0.99, 0.13, 685.99, 1095.48)"></ellipse><ellipse class="cls-11" cx="968.93" cy="178.42" rx="5.39" ry="7.18" transform="translate(670.65 1117.4) rotate(-82.81)"></ellipse><circle class="cls-6" cx="1515.09" cy="561.89" r="23.81"></circle><path class="cls-5" d="M1574.13,519.45l-15.74,5.71a54.85,54.85,0,0,0-33.46-18.24,1.39,1.39,0,0,1-1.17-1.53l1.54-13a1.38,1.38,0,0,1,1.57-1.2,70.49,70.49,0,0,1,47.26,28.29Z"></path><path class="cls-5" d="M1577.3,526.89l-11.4,6.49a1.39,1.39,0,0,1-1.87-.49,54.84,54.84,0,0,0-3.14-4.65h0c-.79-1.06-1.62-2.09-2.49-3.08l15.74-5.71c.8,1.08,1.56,2.18,2.29,3.31h0c.48.72.94,1.46,1.38,2.2A1.4,1.4,0,0,1,1577.3,526.89Z"></path><path class="cls-5" d="M1553.66,533l24,20.58a1.38,1.38,0,0,0,2.26-.79l5.82-31.09a1.38,1.38,0,0,0-1.81-1.56l-29.84,10.51A1.38,1.38,0,0,0,1553.66,533Z"></path><path class="cls-5" d="M1490.79,513.12a54.75,54.75,0,0,0-4.76,2.94h0a48.91,48.91,0,0,0-4.15,3.17,54.36,54.36,0,0,0-19,34.56,1.38,1.38,0,0,1-1.52,1.2l-13-1.4a1.37,1.37,0,0,1-1.23-1.54,70.51,70.51,0,0,1,28.61-48.14q2.63-1.92,5.43-3.59c.75-.44,1.51-.87,2.27-1.29a1.38,1.38,0,0,1,1.88.58l6,11.65A1.39,1.39,0,0,1,1490.79,513.12Z"></path><path class="cls-5" d="M1512,500.28l-21.51,23.19a1.38,1.38,0,0,1-2.33-.54l-1.11-3.58-1-3.28h0l-4.86-15.73-1.56-5.07-.79-2.55a1.39,1.39,0,0,1,1.63-1.76l30.84,7A1.39,1.39,0,0,1,1512,500.28Z"></path><path class="cls-5" d="M1511.41,616.83l-1.32,13.06a1.38,1.38,0,0,1-1.54,1.23,70.45,70.45,0,0,1-47.29-26.94,66.91,66.91,0,0,1-4.14-6c-.14-.21-.27-.43-.4-.64-.32-.53-.63-1.06-.94-1.6a1.39,1.39,0,0,1,.54-1.9l11.53-6.26a1.39,1.39,0,0,1,1.86.53,54.85,54.85,0,0,0,3,4.71h0a.65.65,0,0,0,.1.15c.49.69,1,1.36,1.54,2a54.61,54.61,0,0,0,35.81,20.12A1.37,1.37,0,0,1,1511.41,616.83Z"></path><path class="cls-5" d="M1479.58,590.79l-6.82,2.25h0l-15.63,5.16-.49.16-7.09,2.34a1.39,1.39,0,0,1-1.79-1.6l6.44-31a1.38,1.38,0,0,1,2.27-.75l23.6,21.05A1.38,1.38,0,0,1,1479.58,590.79Z"></path><path class="cls-5" d="M1550.38,621.74l-6.31-11.49a1.39,1.39,0,0,1,.52-1.87,54.6,54.6,0,0,0,26.87-40.89,1.39,1.39,0,0,1,1.5-1.23l13.06,1.2a1.38,1.38,0,0,1,1.25,1.52,70.6,70.6,0,0,1-35,53.3A1.38,1.38,0,0,1,1550.38,621.74Z"></path><path class="cls-5" d="M1544.67,598l-21,23.68a1.38,1.38,0,0,0,.75,2.27l31,6.32a1.38,1.38,0,0,0,1.58-1.8l-10-30A1.38,1.38,0,0,0,1544.67,598Z"></path><path class="cls-5" d="M1578.32,97.22V103h-142.6V97.22a8.78,8.78,0,0,1,8.79-8.79h125A8.79,8.79,0,0,1,1578.32,97.22Z"></path><path class="cls-4" d="M1578.32,103v90.12a4.69,4.69,0,0,1-4.69,4.69H1440.41a4.69,4.69,0,0,1-4.69-4.7V103Z"></path><rect class="cls-6" x="1483.82" y="113.29" width="88.45" height="72.88" rx="7.48"></rect><g class="cls-12"><path d="M1578.32,137.62v55.52a4.69,4.69,0,0,1-4.69,4.69h-28.27a17.71,17.71,0,0,1-4.5-3.6c-.07-.08-.15-.16-.22-.25l-.23-.27a14.42,14.42,0,0,1-1-1.25l-.31-.44q-.33-.5-.63-1l-.28-.5a1,1,0,0,1-.08-.14c-.07-.12-.13-.24-.19-.36s-.18-.34-.26-.51l-.21-.44a22.25,22.25,0,0,1-1-2.75c-2.37-7.71-.57-16.76,6.49-21.8a7.3,7.3,0,0,0,2.22-2.54,6.94,6.94,0,0,0,.8-3.27c-.06-10.64,7.37-18.24,16.36-21.13A25.3,25.3,0,0,1,1578.32,137.62Z"></path></g><rect class="cls-5" x="1442.66" y="113.29" width="33.11" height="5.24" rx="2.31"></rect><rect class="cls-5" x="1442.66" y="144.05" width="33.11" height="5.24" rx="2.31"></rect><rect class="cls-11" x="1442.66" y="152.85" width="33.11" height="5.47" rx="1.37"></rect><rect class="cls-11" x="1442.66" y="162.72" width="33.11" height="5.47" rx="1.37"></rect><rect class="cls-11" x="1442.66" y="123.03" width="33.11" height="5.47" rx="1.37"></rect><rect class="cls-11" x="1442.66" y="132.9" width="33.11" height="5.47" rx="1.37"></rect><rect class="cls-5" x="1442.95" y="178.42" width="32.8" height="7.75" rx="3.41"></rect><path class="cls-5" d="M1623.55,188a20.52,20.52,0,0,1-.79,2.2,15.6,15.6,0,0,1-15.85,9.85v0H1558a17.66,17.66,0,0,1-14-5.84c-.07-.08-.15-.16-.22-.25l-.24-.27q-.51-.61-1-1.26c-.11-.14-.21-.29-.31-.44q-.33-.48-.63-1c-.1-.16-.19-.33-.28-.49a.71.71,0,0,1-.08-.15,3.9,3.9,0,0,1-.19-.35c-.09-.17-.18-.34-.26-.51l-.21-.45a21.66,21.66,0,0,1-1.05-2.75c-2.37-7.7-.57-16.75,6.49-21.79a7.3,7.3,0,0,0,2.22-2.54,7,7,0,0,0,.8-3.28c-.06-10.63,7.37-18.23,16.36-21.12s19.52-1.09,25.68,7.07a7.29,7.29,0,0,0,3.14,2.4,6.47,6.47,0,0,0,3.9.28,13,13,0,0,1,11.68,3.31l.44.41.3.31.14.15.33.36a.1.1,0,0,0,0,.05l.37.45.37.48c.12.16.23.33.34.49s.22.33.32.5l.3.52a12.17,12.17,0,0,1,1.46,7.61,6.33,6.33,0,0,0,.66,3.79,8,8,0,0,0,2.62,2.92,16,16,0,0,1,6.74,12.13A19.82,19.82,0,0,1,1623.55,188Z"></path><path class="cls-13" d="M1614.71,180.36a5.69,5.69,0,0,0-4-1.67,5.77,5.77,0,0,0-.94.08l-2.41-6.25-2.39-6.2a6.19,6.19,0,0,0,1.47-1.06,5.7,5.7,0,0,0-8.06-8.06,5.83,5.83,0,0,0-1.33,2.1l-10.4-1.65-8.28-1.31a7,7,0,0,0,0-.8,7.78,7.78,0,1,0-13.28,5.5,8,8,0,0,0,.94.8l-3.34,6.62-3.52,7a7.22,7.22,0,0,0-2.76-.54,7.34,7.34,0,1,0,7.06,9.4c2.12.16,4.25.31,6.37.43q6.81.41,13.62.55,3.4.07,6.81.08c2.27,0,4.54,0,6.81-.14l6.8-.21,1.12,0a5.75,5.75,0,0,0,1.64,3.45,5.7,5.7,0,0,0,8.06-8.06Zm-50.39-11,3.61-6.47a7.79,7.79,0,0,0,10.21-5.38l8.22,1.64,10.32,2.08v0a5.48,5.48,0,0,0,.35,2q-8.46,5-17.35,9.16-8.12,3.82-16.53,6.94a7.26,7.26,0,0,0-2.63-3.14Zm39.56,14.61-6.79-.05c-2.26,0-4.52,0-6.77-.12s-4.52-.2-6.77-.33q-6.77-.39-13.51-1.05c-2.1-.2-4.19-.43-6.29-.67a6.93,6.93,0,0,0-.19-1.21q8.55-3,16.82-6.63,9.06-4,17.72-8.88l.25.27a5.69,5.69,0,0,0,5.28,1.53l2.1,6.31,2.11,6.35a5.6,5.6,0,0,0-1.19.91,5.68,5.68,0,0,0-1.65,3.58Z"></path><path class="cls-4" d="M727.82,392.9l-.22,9.89-1.69,79.14a4.85,4.85,0,0,1-5,4.69H652.39a4.71,4.71,0,0,1-1.08-.11,5,5,0,0,1-3.15-2.07,4.48,4.48,0,0,1-.77-2.51l.41-15.05.11-4.22,1.38-50.83a4.51,4.51,0,0,1,1.21-3.05l17.38-18.94a5.1,5.1,0,0,1,3.79-1.63h51.15A4.86,4.86,0,0,1,727.82,392.9Z"></path><path class="cls-5" d="M743.81,407.48l-1.9,89a4.85,4.85,0,0,1-5,4.68H668.39a4.85,4.85,0,0,1-5-4.68l.13-4.88.09-3.34,0-1.67.17-6.33v-.06l.31-11.41.16-5.95,1-36.46a4.48,4.48,0,0,1,1.22-3.05l17.37-18.94a5.14,5.14,0,0,1,3.8-1.63h51.14A4.85,4.85,0,0,1,743.81,407.48Z"></path><path class="cls-7" d="M685.37,403.88v20.55a.43.43,0,0,1-.43.42l-18.38-.31a.43.43,0,0,1-.31-.71l18.38-20.23A.43.43,0,0,1,685.37,403.88Z"></path><rect class="cls-11" x="674.39" y="443.84" width="58.34" height="4.61" rx="1.74"></rect><rect class="cls-11" x="674.39" y="453.53" width="58.34" height="4.61" rx="1.74"></rect><rect class="cls-11" x="674.39" y="463.21" width="58.34" height="4.61" rx="1.74"></rect><rect class="cls-11" x="674.39" y="472.89" width="58.34" height="4.61" rx="1.74"></rect><rect class="cls-5" x="893.07" y="269.24" width="198.32" height="53.83" rx="17.04"></rect><path class="cls-3" d="M935.75,306.28a.57.57,0,0,1-.42-.17.55.55,0,0,1-.16-.4V290.79a.57.57,0,0,1,.16-.42.61.61,0,0,1,.42-.16h6a9.32,9.32,0,0,1,3.85.72,5.42,5.42,0,0,1,2.45,2.12,6.91,6.91,0,0,1,.93,3.43c0,.67,0,1.26,0,1.77s0,1.08,0,1.74a7.54,7.54,0,0,1-.92,3.54,5,5,0,0,1-2.38,2.08,9.61,9.61,0,0,1-3.82.67Zm3.58-3.3h2.43a4,4,0,0,0,1.65-.31,2,2,0,0,0,1-1,4.17,4.17,0,0,0,.36-1.74q0-.68.06-1.2V297.7q0-.54-.06-1.17a3.15,3.15,0,0,0-.82-2.29,3.27,3.27,0,0,0-2.3-.72h-2.31Z"></path><path class="cls-3" d="M952.29,306.28a.57.57,0,0,1-.42-.17.59.59,0,0,1-.16-.4V290.79a.55.55,0,0,1,.58-.58h10.79a.57.57,0,0,1,.41.16.57.57,0,0,1,.17.42v2.15a.57.57,0,0,1-.17.42.57.57,0,0,1-.41.16h-7.37v3.1h6.86a.54.54,0,0,1,.42.17.63.63,0,0,1,.16.42v2a.59.59,0,0,1-.16.4.54.54,0,0,1-.42.18h-6.86V303h7.55a.57.57,0,0,1,.42.16.53.53,0,0,1,.16.41v2.16a.55.55,0,0,1-.16.4.57.57,0,0,1-.42.17Z"></path><path class="cls-3" d="M972.5,306.51a9.87,9.87,0,0,1-3.83-.65,5.51,5.51,0,0,1-2.31-1.71,4,4,0,0,1-.83-2.25.48.48,0,0,1,.15-.34.52.52,0,0,1,.36-.14H969a.85.85,0,0,1,.49.11,1.5,1.5,0,0,1,.32.3,2.4,2.4,0,0,0,.52.66,2.36,2.36,0,0,0,.88.52,4.07,4.07,0,0,0,1.34.2,3.94,3.94,0,0,0,2-.42,1.26,1.26,0,0,0,.68-1.12,1.09,1.09,0,0,0-.37-.85,3.54,3.54,0,0,0-1.19-.59c-.55-.17-1.28-.35-2.18-.54a13.26,13.26,0,0,1-3-.95,4.54,4.54,0,0,1-1.88-1.54,4.11,4.11,0,0,1-.65-2.37,4.2,4.2,0,0,1,.8-2.51A5.29,5.29,0,0,1,969,290.6a9.59,9.59,0,0,1,6.2-.2,6.36,6.36,0,0,1,2.05,1.1,5.28,5.28,0,0,1,1.26,1.46,3.4,3.4,0,0,1,.45,1.5.53.53,0,0,1-.13.33.43.43,0,0,1-.36.15h-3.05a1,1,0,0,1-.44-.09.83.83,0,0,1-.32-.3,1.52,1.52,0,0,0-.73-.88,2.71,2.71,0,0,0-1.53-.38,3.07,3.07,0,0,0-1.59.35,1.21,1.21,0,0,0-.56,1.09,1.16,1.16,0,0,0,.31.81,2.5,2.5,0,0,0,1,.6,19,19,0,0,0,2,.52,15,15,0,0,1,3.39,1,4.31,4.31,0,0,1,1.91,1.51,4.6,4.6,0,0,1-.29,5,5.68,5.68,0,0,1-2.46,1.73A9.81,9.81,0,0,1,972.5,306.51Z"></path><path class="cls-3" d="M982.37,306.28a.57.57,0,0,1-.42-.17.55.55,0,0,1-.16-.4V290.79a.57.57,0,0,1,.16-.42.61.61,0,0,1,.42-.16h3.09a.63.63,0,0,1,.43.16.54.54,0,0,1,.18.42v14.92a.53.53,0,0,1-.18.4.6.6,0,0,1-.43.17Z"></path><path class="cls-3" d="M996,306.51a9,9,0,0,1-3.77-.72,5.46,5.46,0,0,1-2.45-2.11,6.89,6.89,0,0,1-1-3.39c0-.66,0-1.36,0-2.1s0-1.45,0-2.12a6.49,6.49,0,0,1,1-3.31,5.61,5.61,0,0,1,2.47-2.07A9.17,9.17,0,0,1,996,290a10,10,0,0,1,3.08.43,7.19,7.19,0,0,1,2.25,1.13,5.63,5.63,0,0,1,1.4,1.56,3.56,3.56,0,0,1,.5,1.68.43.43,0,0,1-.15.34.47.47,0,0,1-.35.14H999.3a.67.67,0,0,1-.38-.08.65.65,0,0,1-.22-.24,3.39,3.39,0,0,0-.47-.72,2.72,2.72,0,0,0-.86-.66,3.18,3.18,0,0,0-1.42-.27,2.94,2.94,0,0,0-2.05.69,3,3,0,0,0-.83,2.2c-.05,1.32-.05,2.65,0,4a3.15,3.15,0,0,0,.85,2.31,3,3,0,0,0,2.1.72,3.81,3.81,0,0,0,1.54-.3,2.36,2.36,0,0,0,1.07-.93,3,3,0,0,0,.4-1.62v-.44h-2.18a.52.52,0,0,1-.41-.17.58.58,0,0,1-.16-.42v-1.7a.6.6,0,0,1,.16-.43.55.55,0,0,1,.41-.17h5.83a.57.57,0,0,1,.41.17.6.6,0,0,1,.16.43v2.61a6.11,6.11,0,0,1-.9,3.38,5.82,5.82,0,0,1-2.55,2.15A9.38,9.38,0,0,1,996,306.51Z"></path><path class="cls-3" d="M1006.49,306.28a.57.57,0,0,1-.42-.17.55.55,0,0,1-.16-.4V290.79a.57.57,0,0,1,.16-.42.61.61,0,0,1,.42-.16h2.45a.78.78,0,0,1,.56.17,1.21,1.21,0,0,1,.22.27l5.64,8.81v-8.67a.57.57,0,0,1,.16-.42.61.61,0,0,1,.42-.16h2.77a.57.57,0,0,1,.41.16.57.57,0,0,1,.17.42v14.9a.59.59,0,0,1-.17.42.53.53,0,0,1-.41.17h-2.47a.74.74,0,0,1-.55-.18l-.22-.25-5.63-8.5v8.36a.59.59,0,0,1-.16.4.57.57,0,0,1-.42.17Z"></path><path class="cls-3" d="M1023.1,306.28a.57.57,0,0,1-.42-.17.55.55,0,0,1-.16-.4V290.79a.57.57,0,0,1,.16-.42.61.61,0,0,1,.42-.16h10.79a.58.58,0,0,1,.41.16.57.57,0,0,1,.16.42v2.15a.57.57,0,0,1-.16.42.58.58,0,0,1-.41.16h-7.37v3.1h6.86a.5.5,0,0,1,.41.17.59.59,0,0,1,.17.42v2a.56.56,0,0,1-.17.4.51.51,0,0,1-.41.18h-6.86V303h7.55a.55.55,0,0,1,.58.57v2.16a.59.59,0,0,1-.16.4.57.57,0,0,1-.42.17Z"></path><path class="cls-3" d="M1037.86,306.28a.57.57,0,0,1-.42-.17.59.59,0,0,1-.16-.4V290.79a.55.55,0,0,1,.58-.58h6.28a7.37,7.37,0,0,1,4.72,1.37,4.67,4.67,0,0,1,1.71,3.87,4.72,4.72,0,0,1-.79,2.75,4.89,4.89,0,0,1-2.08,1.7l3.17,5.65a.63.63,0,0,1,.07.25.46.46,0,0,1-.15.33.48.48,0,0,1-.34.15h-3.07a.85.85,0,0,1-.65-.22,1.44,1.44,0,0,1-.3-.4l-2.63-5.05h-2.36v5.1a.56.56,0,0,1-.17.4.61.61,0,0,1-.43.17Zm3.58-8.93h2.66a2.24,2.24,0,0,0,1.63-.53,1.88,1.88,0,0,0,.54-1.42,2,2,0,0,0-.52-1.45,2.22,2.22,0,0,0-1.65-.55h-2.66Z"></path><rect class="cls-5" x="1427.32" y="230.97" width="187.09" height="50.78" rx="17.04"></rect><rect class="cls-5" x="1380.6" y="659.21" width="268.99" height="66.59" rx="19.16"></rect><path class="cls-3" d="M1454.85,265.92a.51.51,0,0,1-.49-.49,1.23,1.23,0,0,1,0-.2l5.43-14.74a1,1,0,0,1,.29-.45.9.9,0,0,1,.62-.19h3.41a.84.84,0,0,1,.9.64l5.41,14.74a.46.46,0,0,1,0,.2.46.46,0,0,1-.15.34.49.49,0,0,1-.36.15h-2.84a.72.72,0,0,1-.52-.17.8.8,0,0,1-.22-.32l-.9-2.34h-6.17l-.88,2.34a.87.87,0,0,1-.21.32.75.75,0,0,1-.55.17Zm5.43-6.13h4.29l-2.15-6.06Z"></path><path class="cls-3" d="M1472.89,265.92a.57.57,0,0,1-.42-.17.62.62,0,0,1-.16-.41V250.42a.55.55,0,0,1,.58-.57h6.47a8.75,8.75,0,0,1,3.34.58,4.85,4.85,0,0,1,2.21,1.76,5.09,5.09,0,0,1,.8,3,5,5,0,0,1-.8,2.92,4.66,4.66,0,0,1-2.21,1.69,9.16,9.16,0,0,1-3.34.56h-2.75v5a.58.58,0,0,1-.17.41.61.61,0,0,1-.43.17Zm3.65-8.77h2.7a2.37,2.37,0,0,0,1.59-.51,1.91,1.91,0,0,0,.58-1.54,2.19,2.19,0,0,0-.5-1.46,2.09,2.09,0,0,0-1.67-.6h-2.7Z"></path><path class="cls-3" d="M1488.51,265.92a.56.56,0,0,1-.58-.58V250.42a.53.53,0,0,1,.16-.41.57.57,0,0,1,.42-.16h3.09a.6.6,0,0,1,.43.16.53.53,0,0,1,.17.41v14.92a.58.58,0,0,1-.17.41.61.61,0,0,1-.43.17Z"></path><path class="cls-3" d="M1500.91,265.92a.53.53,0,0,1-.41-.17.58.58,0,0,1-.17-.41V250.42a.53.53,0,0,1,.17-.41.53.53,0,0,1,.41-.16h6.47a8.75,8.75,0,0,1,3.34.58,4.83,4.83,0,0,1,2.22,1.76,5.16,5.16,0,0,1,.79,3,5,5,0,0,1-.79,2.92,4.64,4.64,0,0,1-2.22,1.69,9.16,9.16,0,0,1-3.34.56h-2.75v5a.58.58,0,0,1-.17.41.61.61,0,0,1-.43.17Zm3.65-8.77h2.7a2.35,2.35,0,0,0,1.59-.51,1.92,1.92,0,0,0,.59-1.54,2.15,2.15,0,0,0-.51-1.46,2.09,2.09,0,0,0-1.67-.6h-2.7Z"></path><path class="cls-3" d="M1522.56,266.15a9.15,9.15,0,0,1-3.7-.69,5.37,5.37,0,0,1-2.45-2.08,7,7,0,0,1-1-3.48c0-.66,0-1.32,0-2s0-1.33,0-2a6.92,6.92,0,0,1,1-3.48,5.45,5.45,0,0,1,2.47-2.12,9.81,9.81,0,0,1,7.33,0,5.56,5.56,0,0,1,2.47,2.12,6.72,6.72,0,0,1,1,3.48c0,.66,0,1.32,0,2s0,1.32,0,2a6.73,6.73,0,0,1-1,3.48,5.5,5.5,0,0,1-2.46,2.08A9.15,9.15,0,0,1,1522.56,266.15Zm0-3.31a2.78,2.78,0,0,0,2-.73,3.27,3.27,0,0,0,.82-2.35c0-.67,0-1.3,0-1.9s0-1.22,0-1.86a4.11,4.11,0,0,0-.41-1.76,2.31,2.31,0,0,0-1-1,3.31,3.31,0,0,0-2.84,0,2.33,2.33,0,0,0-1,1,4,4,0,0,0-.42,1.76c0,.64,0,1.26,0,1.86s0,1.23,0,1.9a3.36,3.36,0,0,0,.84,2.35A2.77,2.77,0,0,0,1522.56,262.84Z"></path><path class="cls-3" d="M1533,265.92a.56.56,0,0,1-.58-.58V250.42a.53.53,0,0,1,.16-.41.57.57,0,0,1,.42-.16h6.28a7.34,7.34,0,0,1,4.71,1.36,4.67,4.67,0,0,1,1.71,3.87,4.73,4.73,0,0,1-.78,2.76,4.87,4.87,0,0,1-2.08,1.69l3.16,5.65a.53.53,0,0,1,.07.25.46.46,0,0,1-.15.34.46.46,0,0,1-.33.15h-3.07a.84.84,0,0,1-.65-.22,1.8,1.8,0,0,1-.3-.4l-2.63-5.05h-2.36v5.09a.58.58,0,0,1-.17.41.61.61,0,0,1-.43.17Zm3.58-8.93h2.66a2.24,2.24,0,0,0,1.62-.53,1.87,1.87,0,0,0,.55-1.42,2.06,2.06,0,0,0-.52-1.45,2.18,2.18,0,0,0-1.65-.55h-2.66Z"></path><path class="cls-3" d="M1552.34,265.92a.56.56,0,0,1-.58-.58V253.45h-4.11a.56.56,0,0,1-.58-.57v-2.46a.53.53,0,0,1,.16-.41.57.57,0,0,1,.42-.16h12.43a.54.54,0,0,1,.41.16.53.53,0,0,1,.16.41v2.46a.57.57,0,0,1-.16.4.55.55,0,0,1-.41.17H1556v11.89a.58.58,0,0,1-.17.41.53.53,0,0,1-.41.17Z"></path><path class="cls-3" d="M1560.19,265.92a.46.46,0,0,1-.33-.15.46.46,0,0,1-.15-.34,1.23,1.23,0,0,1,0-.2l5.43-14.74a.92.92,0,0,1,.29-.45.88.88,0,0,1,.61-.19h3.42a.88.88,0,0,1,.61.19.92.92,0,0,1,.29.45l5.41,14.74a.45.45,0,0,1,0,.2.46.46,0,0,1-.15.34.49.49,0,0,1-.36.15h-2.84a.74.74,0,0,1-.52-.17.92.92,0,0,1-.22-.32l-.9-2.34h-6.17l-.87,2.34a1,1,0,0,1-.21.32.76.76,0,0,1-.56.17Zm5.43-6.13h4.3l-2.15-6.06Z"></path><path class="cls-3" d="M1578.23,265.92a.57.57,0,0,1-.41-.17.57.57,0,0,1-.16-.41V250.42a.53.53,0,0,1,.16-.41.56.56,0,0,1,.41-.16h3a.57.57,0,0,1,.42.16.53.53,0,0,1,.16.41v12h7a.57.57,0,0,1,.42.17.6.6,0,0,1,.16.43v2.29a.56.56,0,0,1-.58.58Z"></path><path class="cls-3" d="M1412.34,689.79a8.92,8.92,0,0,1-3.74-.71,5.5,5.5,0,0,1-2.43-2.08,6.84,6.84,0,0,1-1-3.41c0-.63,0-1.3,0-2s0-1.4,0-2.06a6.89,6.89,0,0,1,1-3.39,5.47,5.47,0,0,1,2.45-2.1,8.8,8.8,0,0,1,3.71-.71,10.05,10.05,0,0,1,2.81.37,7.15,7.15,0,0,1,2.25,1.1,5,5,0,0,1,2.08,4,.41.41,0,0,1-.13.35.52.52,0,0,1-.36.13h-3.11a.76.76,0,0,1-.46-.12.9.9,0,0,1-.27-.47,2.67,2.67,0,0,0-1.05-1.66,3.35,3.35,0,0,0-1.79-.45,2.82,2.82,0,0,0-2,.7,3.34,3.34,0,0,0-.81,2.33q-.07,1.88,0,3.84a3.34,3.34,0,0,0,.81,2.33,2.81,2.81,0,0,0,2,.69,3.39,3.39,0,0,0,1.8-.45,2.6,2.6,0,0,0,1-1.65.83.83,0,0,1,.26-.47.75.75,0,0,1,.47-.13H1419a.52.52,0,0,1,.36.14.4.4,0,0,1,.13.34,5.12,5.12,0,0,1-.57,2.31,5.31,5.31,0,0,1-1.51,1.74,6.93,6.93,0,0,1-2.25,1.09A9.69,9.69,0,0,1,1412.34,689.79Z"></path><path class="cls-3" d="M1428.49,689.79a9.24,9.24,0,0,1-3.69-.68,5.35,5.35,0,0,1-2.44-2.08,6.89,6.89,0,0,1-1-3.47c0-.65,0-1.31,0-2s0-1.32,0-2a7,7,0,0,1,1-3.47,5.43,5.43,0,0,1,2.47-2.11,9.76,9.76,0,0,1,7.31,0,5.54,5.54,0,0,1,2.47,2.11,6.71,6.71,0,0,1,1,3.47c0,.66.05,1.32.05,2s0,1.33-.05,2a6.69,6.69,0,0,1-.95,3.47,5.4,5.4,0,0,1-2.46,2.08A9.23,9.23,0,0,1,1428.49,689.79Zm0-3.3a2.76,2.76,0,0,0,2-.73,3.21,3.21,0,0,0,.82-2.33c0-.68,0-1.31,0-1.9s0-1.22,0-1.86a4.22,4.22,0,0,0-.4-1.75,2.37,2.37,0,0,0-1-1,3.17,3.17,0,0,0-1.43-.32,3.11,3.11,0,0,0-1.41.32,2.45,2.45,0,0,0-1,1,3.93,3.93,0,0,0-.41,1.75q0,1,0,1.86c0,.59,0,1.22,0,1.9a3.25,3.25,0,0,0,.84,2.33A2.73,2.73,0,0,0,1428.49,686.49Z"></path><path class="cls-3" d="M1438.88,689.56a.5.5,0,0,1-.41-.17.56.56,0,0,1-.17-.4V674.11a.57.57,0,0,1,.17-.42.57.57,0,0,1,.41-.16h6a9.28,9.28,0,0,1,3.85.73,5.41,5.41,0,0,1,2.44,2.1,6.84,6.84,0,0,1,.92,3.43c0,.67,0,1.25,0,1.76s0,1.08,0,1.74a7.53,7.53,0,0,1-.91,3.53,4.91,4.91,0,0,1-2.37,2.07,9.59,9.59,0,0,1-3.81.67Zm3.57-3.29h2.42a4,4,0,0,0,1.65-.31,2,2,0,0,0,1-1,4.17,4.17,0,0,0,.36-1.74c0-.44.05-.84.05-1.19s0-.7,0-1,0-.74-.05-1.17a3.14,3.14,0,0,0-.82-2.28,3.26,3.26,0,0,0-2.29-.72h-2.31Z"></path><path class="cls-3" d="M1455.38,689.56a.54.54,0,0,1-.42-.17.59.59,0,0,1-.16-.4V674.11a.55.55,0,0,1,.58-.58h10.76a.55.55,0,0,1,.57.58v2.15a.55.55,0,0,1-.57.57h-7.35v3.09h6.84a.57.57,0,0,1,.42.17.65.65,0,0,1,.16.43v2a.59.59,0,0,1-.16.4.54.54,0,0,1-.42.17h-6.84v3.19h7.53a.55.55,0,0,1,.58.57V689a.59.59,0,0,1-.16.4.54.54,0,0,1-.42.17Z"></path><path class="cls-3" d="M1481.09,689.79a9,9,0,0,1-3.76-.72,5.45,5.45,0,0,1-2.45-2.11,6.91,6.91,0,0,1-1-3.37q0-1,0-2.1c0-.74,0-1.44,0-2.12a6.53,6.53,0,0,1,1-3.29,5.58,5.58,0,0,1,2.47-2.06,9,9,0,0,1,3.73-.71,10.22,10.22,0,0,1,3.07.42,7,7,0,0,1,2.24,1.13,5.48,5.48,0,0,1,1.4,1.56,3.49,3.49,0,0,1,.5,1.67.42.42,0,0,1-.14.34.5.5,0,0,1-.36.14h-3.37a.67.67,0,0,1-.38-.08.63.63,0,0,1-.21-.24,3.46,3.46,0,0,0-.48-.72,2.52,2.52,0,0,0-.85-.65,3,3,0,0,0-1.42-.28,2.94,2.94,0,0,0-2,.69,3.08,3.08,0,0,0-.83,2.2c0,1.31,0,2.64,0,4a3.19,3.19,0,0,0,.85,2.31,3,3,0,0,0,2.1.71,3.73,3.73,0,0,0,1.53-.29,2.38,2.38,0,0,0,1.08-.93,3,3,0,0,0,.39-1.61v-.44H1482a.53.53,0,0,1-.41-.17.6.6,0,0,1-.16-.43v-1.69a.57.57,0,0,1,.16-.42.51.51,0,0,1,.41-.18h5.81a.52.52,0,0,1,.41.18.57.57,0,0,1,.16.42v2.61a6.18,6.18,0,0,1-.89,3.37,5.8,5.8,0,0,1-2.55,2.14A9.36,9.36,0,0,1,1481.09,689.79Z"></path><path class="cls-3" d="M1491.6,689.56a.54.54,0,0,1-.42-.17.59.59,0,0,1-.16-.4V674.11a.55.55,0,0,1,.58-.58h10.76a.57.57,0,0,1,.41.16.57.57,0,0,1,.17.42v2.15a.53.53,0,0,1-.17.41.53.53,0,0,1-.41.16H1495v3.09h6.84a.57.57,0,0,1,.42.17.6.6,0,0,1,.16.43v2a.55.55,0,0,1-.16.4.54.54,0,0,1-.42.17H1495v3.19h7.53a.57.57,0,0,1,.42.16.53.53,0,0,1,.16.41V689a.55.55,0,0,1-.16.4.54.54,0,0,1-.42.17Z"></path><path class="cls-3" d="M1506.32,689.56a.52.52,0,0,1-.41-.17.55.55,0,0,1-.16-.4V674.11a.57.57,0,0,1,.16-.42.58.58,0,0,1,.41-.16h2.45a.74.74,0,0,1,.56.18,1,1,0,0,1,.22.26l5.62,8.79v-8.65a.57.57,0,0,1,.16-.42.61.61,0,0,1,.42-.16h2.76a.55.55,0,0,1,.58.58V689a.61.61,0,0,1-.16.42.54.54,0,0,1-.42.17h-2.46a.7.7,0,0,1-.54-.18,2.33,2.33,0,0,1-.22-.25l-5.63-8.47V689a.55.55,0,0,1-.16.4.52.52,0,0,1-.41.17Z"></path><path class="cls-3" d="M1522.89,689.56a.5.5,0,0,1-.41-.17.56.56,0,0,1-.17-.4V674.11a.57.57,0,0,1,.17-.42.57.57,0,0,1,.41-.16h10.76a.55.55,0,0,1,.58.58v2.15a.55.55,0,0,1-.58.57h-7.35v3.09h6.84a.57.57,0,0,1,.42.17.6.6,0,0,1,.16.43v2a.55.55,0,0,1-.16.4.54.54,0,0,1-.42.17h-6.84v3.19h7.54a.56.56,0,0,1,.41.16.53.53,0,0,1,.16.41V689a.55.55,0,0,1-.16.4.53.53,0,0,1-.41.17Z"></path><path class="cls-3" d="M1537.61,689.56a.52.52,0,0,1-.41-.17.55.55,0,0,1-.16-.4V674.11a.57.57,0,0,1,.16-.42.58.58,0,0,1,.41-.16h6.27a7.31,7.31,0,0,1,4.7,1.37,5.19,5.19,0,0,1,.92,6.6,4.86,4.86,0,0,1-2.07,1.7l3.16,5.63a.68.68,0,0,1,.07.25.44.44,0,0,1-.15.33.46.46,0,0,1-.34.15h-3.06a.89.89,0,0,1-.65-.21,1.8,1.8,0,0,1-.3-.4l-2.62-5h-2.35V689a.6.6,0,0,1-.6.57Zm3.58-8.9h2.65a2.24,2.24,0,0,0,1.62-.53,1.9,1.9,0,0,0,.54-1.42,2,2,0,0,0-.52-1.44,2.14,2.14,0,0,0-1.64-.55h-2.65Z"></path><path class="cls-3" d="M1552,689.56a.44.44,0,0,1-.33-.15.42.42,0,0,1-.16-.33.64.64,0,0,1,0-.2l5.41-14.7a.92.92,0,0,1,.29-.45.9.9,0,0,1,.61-.2h3.41a.88.88,0,0,1,.61.2.92.92,0,0,1,.29.45l5.39,14.7a.46.46,0,0,1,.05.2.44.44,0,0,1-.15.33.49.49,0,0,1-.36.15h-2.83a.68.68,0,0,1-.52-.17.78.78,0,0,1-.22-.31l-.9-2.33h-6.15l-.88,2.33a.94.94,0,0,1-.2.31.74.74,0,0,1-.56.17Zm5.41-6.11h4.29l-2.14-6.05Z"></path><path class="cls-3" d="M1572,689.56a.54.54,0,0,1-.42-.17.55.55,0,0,1-.16-.4V677.13h-4.1a.57.57,0,0,1-.42-.17.61.61,0,0,1-.16-.4v-2.45a.55.55,0,0,1,.58-.58h12.4a.58.58,0,0,1,.41.16.57.57,0,0,1,.16.42v2.45a.57.57,0,0,1-.16.4.55.55,0,0,1-.41.17h-4.11V689a.55.55,0,0,1-.16.4.5.5,0,0,1-.41.17Z"></path><path class="cls-3" d="M1582.92,689.56a.54.54,0,0,1-.42-.17.55.55,0,0,1-.16-.4V674.11a.57.57,0,0,1,.16-.42.61.61,0,0,1,.42-.16H1586a.65.65,0,0,1,.43.16.57.57,0,0,1,.17.42V689a.56.56,0,0,1-.17.4.57.57,0,0,1-.43.17Z"></path><path class="cls-3" d="M1596.39,689.79a9.23,9.23,0,0,1-3.68-.68,5.3,5.3,0,0,1-2.44-2.08,6.89,6.89,0,0,1-1-3.47q0-1,0-2t0-2a7,7,0,0,1,1-3.47,5.46,5.46,0,0,1,2.46-2.11,9.79,9.79,0,0,1,7.32,0,5.51,5.51,0,0,1,2.46,2.11,6.71,6.71,0,0,1,1,3.47c0,.66,0,1.32,0,2s0,1.33,0,2a6.69,6.69,0,0,1-1,3.47,5.45,5.45,0,0,1-2.46,2.08A9.24,9.24,0,0,1,1596.39,689.79Zm0-3.3a2.78,2.78,0,0,0,2-.73,3.25,3.25,0,0,0,.82-2.33c0-.68,0-1.31,0-1.9s0-1.22,0-1.86a4.07,4.07,0,0,0-.41-1.75,2.31,2.31,0,0,0-1-1,3.11,3.11,0,0,0-1.43-.32,3,3,0,0,0-1.4.32,2.33,2.33,0,0,0-1,1,3.92,3.92,0,0,0-.42,1.75c0,.64,0,1.26,0,1.86s0,1.22,0,1.9a3.3,3.3,0,0,0,.85,2.33A2.72,2.72,0,0,0,1596.39,686.49Z"></path><path class="cls-3" d="M1606.79,689.56a.54.54,0,0,1-.42-.17.55.55,0,0,1-.16-.4V674.11a.57.57,0,0,1,.16-.42.61.61,0,0,1,.42-.16h2.44a.74.74,0,0,1,.56.18,1,1,0,0,1,.22.26l5.62,8.79v-8.65a.57.57,0,0,1,.17-.42.57.57,0,0,1,.41-.16H1619a.6.6,0,0,1,.41.16.57.57,0,0,1,.16.42V689a.57.57,0,0,1-.16.42.53.53,0,0,1-.41.17h-2.47a.7.7,0,0,1-.54-.18,2.33,2.33,0,0,1-.22-.25l-5.62-8.47V689a.59.59,0,0,1-.16.4.54.54,0,0,1-.42.17Z"></path><path class="cls-3" d="M1437.57,717a.46.46,0,0,1-.34-.15.46.46,0,0,1-.15-.33,1.23,1.23,0,0,1,0-.2l5.42-14.71a.94.94,0,0,1,.29-.44.88.88,0,0,1,.61-.2h3.41a.9.9,0,0,1,.61.2.94.94,0,0,1,.29.44l5.39,14.71a.43.43,0,0,1-.1.53.49.49,0,0,1-.36.15h-2.84a.7.7,0,0,1-.51-.17.78.78,0,0,1-.22-.31l-.9-2.33H1442l-.88,2.33a.85.85,0,0,1-.21.31.75.75,0,0,1-.55.17Zm5.41-6.11h4.29l-2.15-6Z"></path><path class="cls-3" d="M1460.75,717.27a9.84,9.84,0,0,1-3.83-.65,5.46,5.46,0,0,1-2.3-1.71,3.89,3.89,0,0,1-.83-2.24.46.46,0,0,1,.15-.33.49.49,0,0,1,.35-.15h2.91a.94.94,0,0,1,.49.11,1.26,1.26,0,0,1,.31.3,2.84,2.84,0,0,0,.52.66,2.41,2.41,0,0,0,.89.52,4,4,0,0,0,1.34.19,3.87,3.87,0,0,0,2-.41,1.24,1.24,0,0,0,.68-1.12,1.07,1.07,0,0,0-.37-.85,3.39,3.39,0,0,0-1.18-.58,19.18,19.18,0,0,0-2.18-.54,13.07,13.07,0,0,1-3-1,4.54,4.54,0,0,1-1.88-1.53,4.46,4.46,0,0,1,.15-4.87,5.24,5.24,0,0,1,2.22-1.72,9.56,9.56,0,0,1,6.19-.2,6.6,6.6,0,0,1,2,1.09,5.21,5.21,0,0,1,1.25,1.46,3.16,3.16,0,0,1,.45,1.5.52.52,0,0,1-.12.33.46.46,0,0,1-.36.15h-3a1,1,0,0,1-.44-.09.83.83,0,0,1-.32-.3,1.6,1.6,0,0,0-.73-.88,2.8,2.8,0,0,0-1.53-.38,2.93,2.93,0,0,0-1.58.36,1.28,1.28,0,0,0-.25,1.89,2.56,2.56,0,0,0,1,.59,19.27,19.27,0,0,0,2,.53,15.1,15.1,0,0,1,3.38,1,4.28,4.28,0,0,1,1.9,1.51,4.55,4.55,0,0,1-.28,5,5.75,5.75,0,0,1-2.46,1.72A9.73,9.73,0,0,1,1460.75,717.27Z"></path><path class="cls-3" d="M1473.42,717a.44.44,0,0,1-.33-.15.44.44,0,0,1-.16-.33.64.64,0,0,1,0-.2l5.41-14.71a.94.94,0,0,1,.29-.44.9.9,0,0,1,.61-.2h3.41a.88.88,0,0,1,.61.2.94.94,0,0,1,.29.44l5.39,14.71a.43.43,0,0,1-.1.53.49.49,0,0,1-.36.15h-2.83a.72.72,0,0,1-.52-.17.78.78,0,0,1-.22-.31l-.9-2.33h-6.15l-.88,2.33a.94.94,0,0,1-.2.31.78.78,0,0,1-.56.17Zm5.41-6.11h4.29l-2.14-6Z"></path><path class="cls-3" d="M1501.18,717.27a9.82,9.82,0,0,1-3.82-.65,5.46,5.46,0,0,1-2.3-1.71,3.89,3.89,0,0,1-.83-2.24.46.46,0,0,1,.15-.33.47.47,0,0,1,.35-.15h2.91a.94.94,0,0,1,.49.11,1.26,1.26,0,0,1,.31.3,2.84,2.84,0,0,0,.52.66,2.33,2.33,0,0,0,.89.52,4,4,0,0,0,1.33.19,3.89,3.89,0,0,0,2-.41,1.26,1.26,0,0,0,.68-1.12,1.07,1.07,0,0,0-.37-.85,3.39,3.39,0,0,0-1.18-.58,19.74,19.74,0,0,0-2.18-.54,13.33,13.33,0,0,1-3-1,4.57,4.57,0,0,1-1.87-1.53,4.46,4.46,0,0,1,.15-4.87,5.24,5.24,0,0,1,2.22-1.72,9.56,9.56,0,0,1,6.19-.2,6.6,6.6,0,0,1,2,1.09,5.21,5.21,0,0,1,1.25,1.46,3.16,3.16,0,0,1,.45,1.5.48.48,0,0,1-.13.33.43.43,0,0,1-.35.15h-3a1,1,0,0,1-.43-.09.85.85,0,0,1-.33-.3,1.54,1.54,0,0,0-.72-.88,2.8,2.8,0,0,0-1.53-.38,2.91,2.91,0,0,0-1.58.36,1.26,1.26,0,0,0-.25,1.89,2.56,2.56,0,0,0,1,.59,19.68,19.68,0,0,0,2,.53,15,15,0,0,1,3.39,1,4.28,4.28,0,0,1,1.9,1.51,4.14,4.14,0,0,1,.61,2.33,4.22,4.22,0,0,1-.89,2.68,5.75,5.75,0,0,1-2.46,1.72A9.79,9.79,0,0,1,1501.18,717.27Z"></path><path class="cls-3" d="M1511,717a.56.56,0,0,1-.57-.57V701.59a.57.57,0,0,1,.16-.42.58.58,0,0,1,.41-.16h10.77a.6.6,0,0,1,.41.16.57.57,0,0,1,.16.42v2.15a.54.54,0,0,1-.16.41.56.56,0,0,1-.41.16h-7.36v3.09h6.85a.53.53,0,0,1,.41.17.6.6,0,0,1,.16.43v2a.55.55,0,0,1-.16.4.53.53,0,0,1-.41.17h-6.85v3.18H1522a.58.58,0,0,1,.58.58v2.15a.56.56,0,0,1-.17.4.53.53,0,0,1-.41.17Z"></path><path class="cls-3" d="M1525.75,717a.57.57,0,0,1-.42-.17.59.59,0,0,1-.16-.4V701.59a.55.55,0,0,1,.58-.58H1532a7.4,7.4,0,0,1,4.7,1.36,5.23,5.23,0,0,1,.92,6.61,5,5,0,0,1-2.08,1.7l3.16,5.63a.53.53,0,0,1,.07.25.52.52,0,0,1-.48.48h-3.07a.81.81,0,0,1-.64-.22,1.44,1.44,0,0,1-.3-.4l-2.63-5h-2.35v5.08a.56.56,0,0,1-.17.4.61.61,0,0,1-.43.17Zm3.57-8.91H1532a2.24,2.24,0,0,0,1.62-.52,1.9,1.9,0,0,0,.54-1.42,2.05,2.05,0,0,0-.51-1.45,2.21,2.21,0,0,0-1.65-.54h-2.65Z"></path><path class="cls-3" d="M1545.2,717a1,1,0,0,1-.63-.2,1.16,1.16,0,0,1-.32-.48l-4.7-14.66a.59.59,0,0,1,0-.21.45.45,0,0,1,.14-.33.49.49,0,0,1,.36-.15h2.86a.79.79,0,0,1,.58.21,1,1,0,0,1,.25.39l3.27,10.58,3.25-10.58a1.32,1.32,0,0,1,.26-.39.74.74,0,0,1,.57-.21h2.88a.52.52,0,0,1,.48.48.59.59,0,0,1,0,.21l-4.7,14.66a1,1,0,0,1-.3.48,1,1,0,0,1-.65.2Z"></path><path class="cls-3" d="M1557.13,717a.53.53,0,0,1-.41-.17.55.55,0,0,1-.16-.4V701.59a.55.55,0,0,1,.57-.58h3.09a.65.65,0,0,1,.43.16.57.57,0,0,1,.17.42v14.88a.56.56,0,0,1-.17.4.61.61,0,0,1-.43.17Z"></path><path class="cls-3" d="M1570.63,717.27a9.06,9.06,0,0,1-3.73-.71,5.5,5.5,0,0,1-2.43-2.08,7,7,0,0,1-1-3.41c0-.63,0-1.3,0-2s0-1.4,0-2.06a7,7,0,0,1,1-3.39,5.55,5.55,0,0,1,2.45-2.11,9,9,0,0,1,3.7-.71,10.07,10.07,0,0,1,2.82.38,7,7,0,0,1,2.25,1.1,5,5,0,0,1,2.08,4,.42.42,0,0,1-.13.35.52.52,0,0,1-.36.13h-3.11a.76.76,0,0,1-.46-.12.94.94,0,0,1-.27-.47,2.67,2.67,0,0,0-1-1.66,3.35,3.35,0,0,0-1.79-.45,2.77,2.77,0,0,0-2,.7,3.33,3.33,0,0,0-.81,2.32c0,1.26,0,2.54,0,3.85a3.36,3.36,0,0,0,.81,2.33,2.81,2.81,0,0,0,2,.69,3.39,3.39,0,0,0,1.8-.45,2.6,2.6,0,0,0,1-1.65.83.83,0,0,1,.26-.47.75.75,0,0,1,.47-.13h3.11a.52.52,0,0,1,.36.14.4.4,0,0,1,.13.34,5,5,0,0,1-2.08,4,7,7,0,0,1-2.25,1.1A9.71,9.71,0,0,1,1570.63,717.27Z"></path><path class="cls-3" d="M1580.77,717a.56.56,0,0,1-.57-.57V701.59a.57.57,0,0,1,.16-.42.58.58,0,0,1,.41-.16h10.76a.61.61,0,0,1,.42.16.57.57,0,0,1,.16.42v2.15a.54.54,0,0,1-.16.41.57.57,0,0,1-.42.16h-7.35v3.09H1591a.55.55,0,0,1,.41.17.6.6,0,0,1,.16.43v2a.56.56,0,0,1-.57.57h-6.85v3.18h7.54a.53.53,0,0,1,.41.17.53.53,0,0,1,.16.41v2.15a.55.55,0,0,1-.16.4.53.53,0,0,1-.41.17Z"></path><rect class="cls-5" x="567.03" y="534.95" width="240.12" height="54.25" rx="17.04"></rect><path class="cls-3" d="M592.06,572.28a.53.53,0,0,1-.41-.17.58.58,0,0,1-.17-.41v-15a.57.57,0,0,1,.17-.42.57.57,0,0,1,.41-.16h6.06a9.48,9.48,0,0,1,3.89.73,5.55,5.55,0,0,1,2.47,2.13,7,7,0,0,1,.93,3.46c0,.68,0,1.27,0,1.78s0,1.1,0,1.76a7.71,7.71,0,0,1-.92,3.56,5,5,0,0,1-2.4,2.1,9.75,9.75,0,0,1-3.85.68Zm3.61-3.33h2.45a4,4,0,0,0,1.66-.31,2,2,0,0,0,1-1,4.08,4.08,0,0,0,.37-1.76c0-.44.05-.84.05-1.2s0-.71,0-1.06,0-.75-.05-1.18a3.22,3.22,0,0,0-.83-2.31,3.31,3.31,0,0,0-2.32-.73h-2.33Z"></path><path class="cls-3" d="M614.81,572.51a9.25,9.25,0,0,1-3.72-.69,5.35,5.35,0,0,1-2.47-2.1,7,7,0,0,1-1-3.5c0-.66,0-1.33,0-2s0-1.34,0-2a7,7,0,0,1,1-3.51,5.6,5.6,0,0,1,2.49-2.14,9.87,9.87,0,0,1,7.4,0,5.71,5.71,0,0,1,2.49,2.14,6.93,6.93,0,0,1,1,3.51c0,.66,0,1.33,0,2s0,1.34,0,2a6.8,6.8,0,0,1-1,3.5,5.48,5.48,0,0,1-2.48,2.1A9.3,9.3,0,0,1,614.81,572.51Zm0-3.33a2.82,2.82,0,0,0,2-.74,3.25,3.25,0,0,0,.82-2.36c0-.68.05-1.32.05-1.92s0-1.23-.05-1.88a4.21,4.21,0,0,0-.4-1.77,2.28,2.28,0,0,0-1-1,3.07,3.07,0,0,0-1.45-.33,3,3,0,0,0-1.42.33,2.35,2.35,0,0,0-1,1,4,4,0,0,0-.42,1.77c0,.65,0,1.28,0,1.88s0,1.24,0,1.92a3.34,3.34,0,0,0,.85,2.36A2.8,2.8,0,0,0,614.81,569.18Z"></path><path class="cls-3" d="M631.42,572.51a9.11,9.11,0,0,1-3.78-.72,5.42,5.42,0,0,1-2.45-2.1,6.87,6.87,0,0,1-1-3.45c0-.63,0-1.31,0-2s0-1.41,0-2.08a6.91,6.91,0,0,1,1-3.42,5.53,5.53,0,0,1,2.47-2.13,9,9,0,0,1,3.75-.72,10.26,10.26,0,0,1,2.84.38,7.34,7.34,0,0,1,2.28,1.11,5.31,5.31,0,0,1,1.52,1.76,5,5,0,0,1,.57,2.33.38.38,0,0,1-.12.35.56.56,0,0,1-.37.13H635a.74.74,0,0,1-.46-.12,1,1,0,0,1-.28-.48,2.64,2.64,0,0,0-1.06-1.67,3.31,3.31,0,0,0-1.81-.46,2.81,2.81,0,0,0-2,.71,3.33,3.33,0,0,0-.82,2.35c0,1.26,0,2.56,0,3.89a3.32,3.32,0,0,0,.82,2.34,2.77,2.77,0,0,0,2,.71,3.37,3.37,0,0,0,1.82-.46,2.63,2.63,0,0,0,1-1.67.83.83,0,0,1,.26-.47.78.78,0,0,1,.48-.13h3.14a.57.57,0,0,1,.37.14.38.38,0,0,1,.12.35,4.92,4.92,0,0,1-.57,2.32,5.21,5.21,0,0,1-1.52,1.76,6.92,6.92,0,0,1-2.28,1.11A9.9,9.9,0,0,1,631.42,572.51Z"></path><path class="cls-3" d="M652.77,572.51a9,9,0,0,1-3.81-.73,5.52,5.52,0,0,1-2.47-2.12,7,7,0,0,1-1-3.42c0-.66,0-1.37,0-2.12s0-1.46,0-2.14a6.56,6.56,0,0,1,1-3.33,5.65,5.65,0,0,1,2.5-2.08,9.12,9.12,0,0,1,3.77-.72,10.08,10.08,0,0,1,3.09.43,7.28,7.28,0,0,1,2.28,1.15,5.26,5.26,0,0,1,1.4,1.57,3.6,3.6,0,0,1,.52,1.69.41.41,0,0,1-.16.34.48.48,0,0,1-.36.14h-3.4a.67.67,0,0,1-.38-.08.65.65,0,0,1-.22-.24,3.79,3.79,0,0,0-.48-.73,2.84,2.84,0,0,0-.86-.66,3.22,3.22,0,0,0-1.43-.28,2.93,2.93,0,0,0-2.07.7,3,3,0,0,0-.84,2.22c-.05,1.33-.05,2.67,0,4a3.15,3.15,0,0,0,.86,2.33,3,3,0,0,0,2.12.72,3.86,3.86,0,0,0,1.55-.3,2.35,2.35,0,0,0,1.08-.94,3.07,3.07,0,0,0,.39-1.63v-.44h-2.18a.57.57,0,0,1-.42-.17.61.61,0,0,1-.17-.43v-1.71a.6.6,0,0,1,.17-.43.54.54,0,0,1,.42-.17h5.86a.52.52,0,0,1,.42.17.6.6,0,0,1,.17.43v2.64a6.21,6.21,0,0,1-.91,3.4,5.83,5.83,0,0,1-2.57,2.16A9.39,9.39,0,0,1,652.77,572.51Z"></path><path class="cls-3" d="M663.39,572.28a.54.54,0,0,1-.42-.17.58.58,0,0,1-.17-.41v-15a.56.56,0,0,1,.59-.58h10.87a.61.61,0,0,1,.42.16.57.57,0,0,1,.16.42v2.18a.53.53,0,0,1-.16.41.57.57,0,0,1-.42.16h-7.43v3.13h6.92a.57.57,0,0,1,.42.17.6.6,0,0,1,.16.43v2a.56.56,0,0,1-.58.58h-6.92V569h7.62a.57.57,0,0,1,.42.16.61.61,0,0,1,.16.42v2.17a.62.62,0,0,1-.16.41.57.57,0,0,1-.42.17Z"></path><path class="cls-3" d="M678.26,572.28a.53.53,0,0,1-.41-.17.58.58,0,0,1-.17-.41v-15a.57.57,0,0,1,.17-.42.57.57,0,0,1,.41-.16h2.47a.75.75,0,0,1,.57.18,1,1,0,0,1,.22.26l5.69,8.89v-8.75a.57.57,0,0,1,.16-.42.61.61,0,0,1,.42-.16h2.79a.61.61,0,0,1,.42.16.57.57,0,0,1,.16.42v15a.6.6,0,0,1-.16.43.57.57,0,0,1-.42.17h-2.49a.74.74,0,0,1-.55-.18c-.11-.13-.19-.21-.22-.26l-5.68-8.56v8.42a.56.56,0,0,1-.58.58Z"></path><path class="cls-3" d="M695,572.28a.57.57,0,0,1-.42-.17.58.58,0,0,1-.17-.41v-15a.57.57,0,0,1,.17-.42.61.61,0,0,1,.42-.16h10.87a.61.61,0,0,1,.42.16.57.57,0,0,1,.16.42v2.18a.53.53,0,0,1-.16.41.57.57,0,0,1-.42.16h-7.43v3.13h6.92a.57.57,0,0,1,.42.17.6.6,0,0,1,.16.43v2a.56.56,0,0,1-.58.58h-6.92V569h7.62a.57.57,0,0,1,.42.16.61.61,0,0,1,.16.42v2.17a.62.62,0,0,1-.16.41.57.57,0,0,1-.42.17Z"></path><path class="cls-3" d="M709.89,572.28a.54.54,0,0,1-.42-.17.58.58,0,0,1-.17-.41v-15a.56.56,0,0,1,.59-.58h6.33a7.4,7.4,0,0,1,4.75,1.38,5.28,5.28,0,0,1,.93,6.68,5,5,0,0,1-2.1,1.71l3.2,5.69a.68.68,0,0,1,.07.25.47.47,0,0,1-.16.34.46.46,0,0,1-.33.15h-3.1a.84.84,0,0,1-.65-.22,2.29,2.29,0,0,1-.31-.4l-2.65-5.09h-2.38v5.13a.54.54,0,0,1-.17.41.61.61,0,0,1-.43.17Zm3.6-9h2.68a2.28,2.28,0,0,0,1.64-.53,1.91,1.91,0,0,0,.55-1.44,2,2,0,0,0-.52-1.45,2.21,2.21,0,0,0-1.67-.56h-2.68Z"></path><path class="cls-3" d="M724.46,572.28a.5.5,0,0,1-.34-.15.46.46,0,0,1-.15-.34.64.64,0,0,1,0-.2l5.47-14.86a.86.86,0,0,1,.29-.45.91.91,0,0,1,.62-.2h3.44a.91.91,0,0,1,.62.2.92.92,0,0,1,.29.45l5.45,14.86a.46.46,0,0,1,.05.2.44.44,0,0,1-.16.34.49.49,0,0,1-.36.15h-2.86a.72.72,0,0,1-.52-.17,1,1,0,0,1-.23-.32l-.9-2.36H729l-.89,2.36a.87.87,0,0,1-.21.32.74.74,0,0,1-.55.17Zm5.47-6.18h4.33L732.1,560Z"></path><path class="cls-3" d="M744.58,572.28a.56.56,0,0,1-.58-.58v-12h-4.15a.54.54,0,0,1-.42-.18.55.55,0,0,1-.16-.4v-2.48a.57.57,0,0,1,.16-.42.61.61,0,0,1,.42-.16h12.53a.61.61,0,0,1,.42.16.57.57,0,0,1,.16.42v2.48a.55.55,0,0,1-.16.4.54.54,0,0,1-.42.18h-4.14v12a.58.58,0,0,1-.17.41.57.57,0,0,1-.42.17Z"></path><path class="cls-3" d="M761.49,572.51a9.27,9.27,0,0,1-3.73-.69,5.35,5.35,0,0,1-2.47-2.1,7.11,7.11,0,0,1-1-3.5c0-.66,0-1.33,0-2s0-1.34,0-2a7.24,7.24,0,0,1,1-3.51,5.6,5.6,0,0,1,2.49-2.14,9.87,9.87,0,0,1,7.4,0,5.71,5.71,0,0,1,2.49,2.14,6.93,6.93,0,0,1,1,3.51c0,.66,0,1.33,0,2s0,1.34,0,2a6.8,6.8,0,0,1-1,3.5,5.43,5.43,0,0,1-2.48,2.1A9.28,9.28,0,0,1,761.49,572.51Zm0-3.33a2.82,2.82,0,0,0,2-.74,3.3,3.3,0,0,0,.83-2.36c0-.68,0-1.32,0-1.92s0-1.23,0-1.88a4.36,4.36,0,0,0-.41-1.77,2.28,2.28,0,0,0-1-1,3.29,3.29,0,0,0-2.87,0,2.41,2.41,0,0,0-1,1,4.19,4.19,0,0,0-.42,1.77c0,.65,0,1.28,0,1.88s0,1.24,0,1.92a3.34,3.34,0,0,0,.85,2.36A2.81,2.81,0,0,0,761.49,569.18Z"></path><path class="cls-3" d="M772,572.28a.57.57,0,0,1-.42-.17.58.58,0,0,1-.17-.41v-15a.57.57,0,0,1,.17-.42.61.61,0,0,1,.42-.16h6.33a7.4,7.4,0,0,1,4.75,1.38,5.28,5.28,0,0,1,.93,6.68,5,5,0,0,1-2.09,1.71l3.19,5.69a.68.68,0,0,1,.07.25.44.44,0,0,1-.16.34.46.46,0,0,1-.33.15h-3.1a.85.85,0,0,1-.65-.22,1.8,1.8,0,0,1-.3-.4L778,566.57H775.6v5.13a.55.55,0,0,1-.18.41.61.61,0,0,1-.43.17Zm3.61-9h2.67a2.32,2.32,0,0,0,1.65-.53,2,2,0,0,0,.54-1.44,2,2,0,0,0-.52-1.45,2.21,2.21,0,0,0-1.67-.56H775.6Z"></path><rect class="cls-5" x="571.15" y="267.37" width="232.92" height="54.99" rx="17.04"></rect><path class="cls-3" d="M603.42,305.22A.54.54,0,0,1,603,305a.58.58,0,0,1-.17-.41V292.48h-4.2a.58.58,0,0,1-.43-.18.56.56,0,0,1-.16-.41v-2.51a.57.57,0,0,1,.16-.42.6.6,0,0,1,.43-.16h12.7a.57.57,0,0,1,.42.16.57.57,0,0,1,.17.42v2.51a.57.57,0,0,1-.17.41.54.54,0,0,1-.42.18h-4.2v12.15a.58.58,0,0,1-.17.41.54.54,0,0,1-.42.18Z"></path><path class="cls-3" d="M614.66,305.22a.55.55,0,0,1-.43-.18.57.57,0,0,1-.16-.41V289.38a.57.57,0,0,1,.16-.42.57.57,0,0,1,.43-.16h6.42a7.5,7.5,0,0,1,4.81,1.39,5.33,5.33,0,0,1,.94,6.77,5,5,0,0,1-2.12,1.74l3.23,5.77a.53.53,0,0,1,.07.25.46.46,0,0,1-.15.34.45.45,0,0,1-.34.16h-3.14a.87.87,0,0,1-.66-.23,1.52,1.52,0,0,1-.31-.41l-2.69-5.16h-2.41v5.21a.54.54,0,0,1-.17.41.6.6,0,0,1-.44.18Zm3.65-9.13H621a2.29,2.29,0,0,0,1.66-.54,1.93,1.93,0,0,0,.56-1.45,2.1,2.1,0,0,0-.53-1.48,2.26,2.26,0,0,0-1.69-.56h-2.72Z"></path><path class="cls-3" d="M629.43,305.22a.44.44,0,0,1-.34-.16.47.47,0,0,1-.16-.34.76.76,0,0,1,0-.21l5.55-15.06a.86.86,0,0,1,.29-.45.88.88,0,0,1,.63-.2h3.49a.86.86,0,0,1,.62.2.94.94,0,0,1,.3.45l5.52,15.06a.54.54,0,0,1,0,.21.46.46,0,0,1-.15.34.5.5,0,0,1-.37.16H642a.69.69,0,0,1-.53-.18.84.84,0,0,1-.23-.32l-.92-2.39H634l-.9,2.39a.87.87,0,0,1-.21.32.75.75,0,0,1-.57.18ZM635,299h4.39l-2.2-6.19Z"></path><path class="cls-3" d="M647.86,305.22a.54.54,0,0,1-.42-.18.58.58,0,0,1-.17-.41V289.38a.57.57,0,0,1,.17-.42.57.57,0,0,1,.42-.16h2.51a.81.81,0,0,1,.57.17,1.35,1.35,0,0,1,.23.27l5.76,9v-8.87a.57.57,0,0,1,.16-.42.57.57,0,0,1,.43-.16h2.83a.57.57,0,0,1,.42.16.57.57,0,0,1,.17.42v15.23a.61.61,0,0,1-.17.43.54.54,0,0,1-.42.18h-2.53a.75.75,0,0,1-.55-.19,2.12,2.12,0,0,1-.22-.26l-5.76-8.68v8.54a.58.58,0,0,1-.17.41.54.54,0,0,1-.42.18Z"></path><path class="cls-3" d="M670.4,305.45a9.84,9.84,0,0,1-3.91-.67,5.52,5.52,0,0,1-2.36-1.75,4,4,0,0,1-.85-2.29.46.46,0,0,1,.15-.34.47.47,0,0,1,.37-.16h3a.92.92,0,0,1,.51.12,1.55,1.55,0,0,1,.32.31,2.68,2.68,0,0,0,.53.68,2.37,2.37,0,0,0,.9.52,4,4,0,0,0,1.37.2,4.08,4.08,0,0,0,2.07-.42,1.3,1.3,0,0,0,.7-1.15,1.11,1.11,0,0,0-.38-.87,3.54,3.54,0,0,0-1.22-.59,21.62,21.62,0,0,0-2.23-.56,13.7,13.7,0,0,1-3.05-1,4.63,4.63,0,0,1-1.93-1.57,4.57,4.57,0,0,1,.16-5,5.26,5.26,0,0,1,2.27-1.76,8.56,8.56,0,0,1,3.47-.64,8.66,8.66,0,0,1,2.87.43,6.5,6.5,0,0,1,2.09,1.12,5.5,5.5,0,0,1,1.29,1.49,3.44,3.44,0,0,1,.46,1.54.55.55,0,0,1-.13.34.47.47,0,0,1-.37.15h-3.12a1,1,0,0,1-.44-.09.89.89,0,0,1-.33-.31,1.67,1.67,0,0,0-.75-.9,2.83,2.83,0,0,0-1.57-.39,3,3,0,0,0-1.61.36,1.24,1.24,0,0,0-.58,1.12,1.16,1.16,0,0,0,.32.82,2.53,2.53,0,0,0,1.06.61,18.74,18.74,0,0,0,2,.54,15.05,15.05,0,0,1,3.47,1,4.42,4.42,0,0,1,1.95,1.54,4.71,4.71,0,0,1-.3,5.13,5.94,5.94,0,0,1-2.51,1.77A10.24,10.24,0,0,1,670.4,305.45Z"></path><path class="cls-3" d="M680.48,305.22a.54.54,0,0,1-.42-.18.58.58,0,0,1-.17-.41V289.38a.57.57,0,0,1,.17-.42.57.57,0,0,1,.42-.16h10.86a.57.57,0,0,1,.42.16.57.57,0,0,1,.17.42v2.37a.58.58,0,0,1-.17.43.61.61,0,0,1-.42.16h-7.29v3.45h6.82a.57.57,0,0,1,.42.17.62.62,0,0,1,.17.44v2.34a.57.57,0,0,1-.17.41.54.54,0,0,1-.42.18h-6.82v5.3a.58.58,0,0,1-.17.41.54.54,0,0,1-.42.18Z"></path><path class="cls-3" d="M701.11,305.45a9.34,9.34,0,0,1-3.78-.7,5.49,5.49,0,0,1-2.5-2.13,7.07,7.07,0,0,1-1-3.55c0-.67,0-1.35,0-2s0-1.35,0-2a7.19,7.19,0,0,1,1-3.55,5.65,5.65,0,0,1,2.53-2.17,10,10,0,0,1,7.49,0,5.7,5.7,0,0,1,2.53,2.17,7,7,0,0,1,1,3.55c0,.68,0,1.35,0,2s0,1.36,0,2a6.87,6.87,0,0,1-1,3.55,5.52,5.52,0,0,1-2.51,2.13A9.34,9.34,0,0,1,701.11,305.45Zm0-3.38a2.82,2.82,0,0,0,2-.75,3.29,3.29,0,0,0,.84-2.39c0-.69,0-1.34,0-1.95s0-1.24,0-1.9a4.26,4.26,0,0,0-.41-1.79,2.37,2.37,0,0,0-1-1,3.35,3.35,0,0,0-2.9,0,2.42,2.42,0,0,0-1,1,4,4,0,0,0-.43,1.79c0,.66,0,1.29,0,1.9s0,1.26,0,1.95a3.43,3.43,0,0,0,.86,2.39A2.82,2.82,0,0,0,701.11,302.07Z"></path><path class="cls-3" d="M711.76,305.22a.55.55,0,0,1-.43-.18.57.57,0,0,1-.16-.41V289.38a.57.57,0,0,1,.16-.42.57.57,0,0,1,.43-.16h6.42a7.5,7.5,0,0,1,4.81,1.39,5.33,5.33,0,0,1,.94,6.77,5,5,0,0,1-2.12,1.74l3.23,5.77a.53.53,0,0,1,.07.25.46.46,0,0,1-.15.34.45.45,0,0,1-.34.16h-3.14a.87.87,0,0,1-.66-.23,1.52,1.52,0,0,1-.31-.41l-2.69-5.16h-2.41v5.21a.54.54,0,0,1-.17.41.6.6,0,0,1-.44.18Zm3.65-9.13h2.72a2.29,2.29,0,0,0,1.66-.54,1.93,1.93,0,0,0,.56-1.45,2.1,2.1,0,0,0-.53-1.48,2.26,2.26,0,0,0-1.69-.56h-2.72Z"></path><path class="cls-3" d="M728.06,305.22a.57.57,0,0,1-.41-.18.55.55,0,0,1-.18-.41V289.38a.54.54,0,0,1,.18-.42.59.59,0,0,1,.41-.16h2.55a.74.74,0,0,1,.59.2,1.17,1.17,0,0,1,.24.31l4.15,7.39,4.16-7.39A3.05,3.05,0,0,1,740,289a.69.69,0,0,1,.57-.2h2.53a.63.63,0,0,1,.44.16.57.57,0,0,1,.17.42v15.25a.58.58,0,0,1-.17.41.6.6,0,0,1-.44.18h-2.81a.6.6,0,0,1-.44-.18.58.58,0,0,1-.17-.41v-8.8L737,300.74a1.52,1.52,0,0,1-.3.37.77.77,0,0,1-.52.17H735a.77.77,0,0,1-.52-.17,1.36,1.36,0,0,1-.31-.37l-2.66-4.91v8.8a.58.58,0,0,1-.17.41.54.54,0,0,1-.42.18Z"></path><path class="cls-3" d="M747.61,305.22a.55.55,0,0,1-.43-.18.57.57,0,0,1-.16-.41V289.38a.57.57,0,0,1,.16-.42.57.57,0,0,1,.43-.16h11a.57.57,0,0,1,.42.16.57.57,0,0,1,.17.42v2.21a.58.58,0,0,1-.59.59H751.1v3.16h7a.57.57,0,0,1,.43.18.59.59,0,0,1,.16.43v2a.57.57,0,0,1-.16.41.57.57,0,0,1-.43.18h-7v3.26h7.72a.57.57,0,0,1,.42.16.58.58,0,0,1,.17.43v2.2a.58.58,0,0,1-.17.41.54.54,0,0,1-.42.18Z"></path><path class="cls-3" d="M762.69,305.22a.57.57,0,0,1-.43-.18.57.57,0,0,1-.16-.41V289.38a.57.57,0,0,1,.16-.42.59.59,0,0,1,.43-.16h6.42a7.5,7.5,0,0,1,4.81,1.39,4.76,4.76,0,0,1,1.75,4,4.82,4.82,0,0,1-.8,2.81,5.12,5.12,0,0,1-2.13,1.74l3.24,5.77a.68.68,0,0,1,.07.25.55.55,0,0,1-.5.5h-3.14a.87.87,0,0,1-.66-.23,1.47,1.47,0,0,1-.3-.41l-2.7-5.16h-2.4v5.21a.55.55,0,0,1-.18.41.59.59,0,0,1-.44.18Zm3.66-9.13h2.71a2.31,2.31,0,0,0,1.67-.54,2,2,0,0,0,.55-1.45,2.1,2.1,0,0,0-.53-1.48,2.26,2.26,0,0,0-1.69-.56h-2.71Z"></path><rect class="cls-5" x="853.12" y="535.51" width="278.21" height="53.69" rx="17.04"></rect><path class="cls-3" d="M894.13,572.69a9.07,9.07,0,0,1-3.74-.71,5.52,5.52,0,0,1-2.43-2.09,6.91,6.91,0,0,1-1-3.41q0-.93,0-2c0-.72,0-1.41,0-2.06a6.79,6.79,0,0,1,1-3.39,5.41,5.41,0,0,1,2.44-2.11,9,9,0,0,1,3.71-.71,10,10,0,0,1,2.81.38,7.1,7.1,0,0,1,2.26,1.1,5.34,5.34,0,0,1,1.51,1.74,5,5,0,0,1,.56,2.3.36.36,0,0,1-.13.34.5.5,0,0,1-.35.14h-3.11a.68.68,0,0,1-.46-.13,1,1,0,0,1-.28-.46,2.65,2.65,0,0,0-1.05-1.66,3.33,3.33,0,0,0-1.79-.45,2.77,2.77,0,0,0-2,.7,3.31,3.31,0,0,0-.81,2.32c0,1.25,0,2.54,0,3.85a3.31,3.31,0,0,0,.81,2.32,2.77,2.77,0,0,0,2,.7,3.3,3.3,0,0,0,1.8-.46,2.55,2.55,0,0,0,1-1.65.87.87,0,0,1,.26-.47.85.85,0,0,1,.48-.12h3.11a.46.46,0,0,1,.35.14.36.36,0,0,1,.13.34,5,5,0,0,1-.56,2.3,5.34,5.34,0,0,1-1.51,1.74,7.1,7.1,0,0,1-2.26,1.1A10,10,0,0,1,894.13,572.69Z"></path><path class="cls-3" d="M910.28,572.69a9.13,9.13,0,0,1-3.69-.69,5.38,5.38,0,0,1-2.44-2.07,7,7,0,0,1-1-3.47c0-.66,0-1.32,0-2s0-1.33,0-2a7,7,0,0,1,1-3.47,5.5,5.5,0,0,1,2.47-2.12,9.76,9.76,0,0,1,7.31,0,5.56,5.56,0,0,1,2.47,2.12,6.78,6.78,0,0,1,1,3.47c0,.65,0,1.31,0,2s0,1.32,0,2a6.81,6.81,0,0,1-1,3.47A5.46,5.46,0,0,1,914,572,9.13,9.13,0,0,1,910.28,572.69Zm0-3.3a2.76,2.76,0,0,0,2-.73,3.22,3.22,0,0,0,.82-2.34c0-.67,0-1.3,0-1.9s0-1.21,0-1.85a4.07,4.07,0,0,0-.4-1.75,2.31,2.31,0,0,0-1-1,3.14,3.14,0,0,0-1.43-.32,3,3,0,0,0-1.4.32,2.35,2.35,0,0,0-1,1,4.07,4.07,0,0,0-.41,1.75c0,.64,0,1.26,0,1.85s0,1.23,0,1.9a3.35,3.35,0,0,0,.84,2.34A2.73,2.73,0,0,0,910.28,569.39Z"></path><path class="cls-3" d="M920.67,572.46a.55.55,0,0,1-.41-.17.57.57,0,0,1-.16-.4V557a.55.55,0,0,1,.57-.57h6a9.28,9.28,0,0,1,3.85.72,5.32,5.32,0,0,1,2.44,2.11,6.87,6.87,0,0,1,.93,3.42c0,.67,0,1.26,0,1.76s0,1.09,0,1.74a7.74,7.74,0,0,1-.91,3.53,5,5,0,0,1-2.38,2.07,9.55,9.55,0,0,1-3.81.68Zm3.57-3.3h2.42a3.83,3.83,0,0,0,1.65-.31,2,2,0,0,0,1-1,4.17,4.17,0,0,0,.36-1.74c0-.44.05-.84.06-1.19v-1.06c0-.35,0-.74-.06-1.16a3.1,3.1,0,0,0-.82-2.28,3.24,3.24,0,0,0-2.29-.72h-2.31Z"></path><path class="cls-3" d="M937.17,572.46a.53.53,0,0,1-.41-.17.58.58,0,0,1-.17-.4V557a.55.55,0,0,1,.17-.41.53.53,0,0,1,.41-.16h10.76a.57.57,0,0,1,.42.16.58.58,0,0,1,.16.41v2.16a.6.6,0,0,1-.16.41.61.61,0,0,1-.42.16h-7.35v3.09h6.85a.57.57,0,0,1,.41.17.58.58,0,0,1,.16.42v2a.56.56,0,0,1-.57.57h-6.85v3.18h7.54a.55.55,0,0,1,.57.57v2.16a.56.56,0,0,1-.57.57Z"></path><path class="cls-3" d="M962.89,572.69a9,9,0,0,1-3.77-.72,5.48,5.48,0,0,1-2.44-2.11,6.82,6.82,0,0,1-1-3.38c0-.65,0-1.35,0-2.09s0-1.45,0-2.12a6.45,6.45,0,0,1,1-3.3,5.5,5.5,0,0,1,2.46-2.06,9.17,9.17,0,0,1,3.74-.71,10.2,10.2,0,0,1,3.06.42,7.2,7.2,0,0,1,2.25,1.14,5.32,5.32,0,0,1,1.39,1.56,3.63,3.63,0,0,1,.51,1.67.45.45,0,0,1-.15.34.52.52,0,0,1-.36.14h-3.36a.74.74,0,0,1-.38-.08.73.73,0,0,1-.22-.24,3.82,3.82,0,0,0-.47-.72,2.69,2.69,0,0,0-.86-.66,3.16,3.16,0,0,0-1.41-.27,2.92,2.92,0,0,0-2,.69,3,3,0,0,0-.83,2.19c0,1.32,0,2.64,0,4a3.15,3.15,0,0,0,.85,2.31,3,3,0,0,0,2.1.71,3.8,3.8,0,0,0,1.53-.3,2.3,2.3,0,0,0,1.07-.93,3,3,0,0,0,.39-1.61v-.43h-2.17a.54.54,0,0,1-.41-.18.57.57,0,0,1-.16-.42v-1.69a.6.6,0,0,1,.16-.43.57.57,0,0,1,.41-.17h5.81a.57.57,0,0,1,.42.17.65.65,0,0,1,.16.43v2.61a6.06,6.06,0,0,1-.9,3.36,5.73,5.73,0,0,1-2.55,2.14A9.18,9.18,0,0,1,962.89,572.69Z"></path><path class="cls-3" d="M973.39,572.46a.55.55,0,0,1-.41-.17.57.57,0,0,1-.16-.4V557a.55.55,0,0,1,.57-.57h10.76a.57.57,0,0,1,.42.16.54.54,0,0,1,.16.41v2.16a.56.56,0,0,1-.16.41.61.61,0,0,1-.42.16H976.8v3.09h6.85a.57.57,0,0,1,.41.17.58.58,0,0,1,.16.42v2a.56.56,0,0,1-.57.57H976.8v3.18h7.54a.54.54,0,0,1,.41.16.56.56,0,0,1,.16.41v2.16a.57.57,0,0,1-.16.4.55.55,0,0,1-.41.17Z"></path><path class="cls-3" d="M988.12,572.46a.56.56,0,0,1-.58-.57V557a.54.54,0,0,1,.16-.41.57.57,0,0,1,.42-.16h2.44a.78.78,0,0,1,.56.17,1,1,0,0,1,.22.27l5.62,8.79V557a.55.55,0,0,1,.17-.41.53.53,0,0,1,.41-.16h2.77a.56.56,0,0,1,.41.16.54.54,0,0,1,.16.41v14.86a.6.6,0,0,1-.16.43.57.57,0,0,1-.41.17h-2.47a.7.7,0,0,1-.54-.18,2.12,2.12,0,0,1-.22-.26l-5.62-8.47v8.34a.61.61,0,0,1-.16.4.57.57,0,0,1-.42.17Z"></path><path class="cls-3" d="M1004.68,572.46a.55.55,0,0,1-.41-.17.57.57,0,0,1-.16-.4V557a.55.55,0,0,1,.57-.57h10.76a.57.57,0,0,1,.42.16.54.54,0,0,1,.16.41v2.16a.56.56,0,0,1-.16.41.61.61,0,0,1-.42.16h-7.35v3.09h6.85a.55.55,0,0,1,.41.17.58.58,0,0,1,.16.42v2a.57.57,0,0,1-.16.4.55.55,0,0,1-.41.17h-6.85v3.18h7.54a.53.53,0,0,1,.41.16.56.56,0,0,1,.16.41v2.16a.57.57,0,0,1-.16.4.53.53,0,0,1-.41.17Z"></path><path class="cls-3" d="M1019.41,572.46a.56.56,0,0,1-.58-.57V557a.54.54,0,0,1,.16-.41.57.57,0,0,1,.42-.16h6.27a7.34,7.34,0,0,1,4.7,1.36,5.23,5.23,0,0,1,.92,6.61,4.93,4.93,0,0,1-2.08,1.69l3.16,5.64a.5.5,0,0,1,.07.25.52.52,0,0,1-.48.48h-3.07a.81.81,0,0,1-.64-.22,1.6,1.6,0,0,1-.3-.4l-2.63-5H1023v5.09a.58.58,0,0,1-.17.4.61.61,0,0,1-.43.17Zm3.57-8.91h2.65a2.2,2.2,0,0,0,1.62-.53,1.88,1.88,0,0,0,.54-1.41,2.05,2.05,0,0,0-.51-1.45,2.22,2.22,0,0,0-1.65-.55H1023Z"></path><path class="cls-3" d="M1033.83,572.46a.52.52,0,0,1-.48-.48,1.25,1.25,0,0,1,0-.21l5.42-14.7a.9.9,0,0,1,.28-.45.89.89,0,0,1,.61-.19h3.41a.84.84,0,0,1,.9.64l5.4,14.7a.46.46,0,0,1,0,.21.46.46,0,0,1-.15.33.49.49,0,0,1-.35.15h-2.84a.74.74,0,0,1-.52-.17,1,1,0,0,1-.22-.31l-.9-2.34h-6.15l-.87,2.34a.94.94,0,0,1-.21.31.75.75,0,0,1-.55.17Zm5.42-6.12h4.28l-2.14-6Z"></path><path class="cls-3" d="M1053.74,572.46a.53.53,0,0,1-.41-.17.58.58,0,0,1-.17-.4V560h-4.1a.52.52,0,0,1-.41-.18.54.54,0,0,1-.16-.4V557a.55.55,0,0,1,.57-.57h12.4a.53.53,0,0,1,.41.16.55.55,0,0,1,.17.41v2.45a.54.54,0,0,1-.17.4.51.51,0,0,1-.41.18h-4.1v11.86a.61.61,0,0,1-.16.4.57.57,0,0,1-.42.17Z"></path><path class="cls-3" d="M1070.47,572.69a9.13,9.13,0,0,1-3.69-.69,5.38,5.38,0,0,1-2.44-2.07,7,7,0,0,1-1-3.47c0-.66,0-1.32,0-2s0-1.33,0-2a7,7,0,0,1,1-3.47,5.45,5.45,0,0,1,2.47-2.12,9.76,9.76,0,0,1,7.31,0,5.56,5.56,0,0,1,2.47,2.12,6.78,6.78,0,0,1,1,3.47c0,.65,0,1.31,0,2s0,1.32,0,2a6.81,6.81,0,0,1-1,3.47,5.46,5.46,0,0,1-2.45,2.07A9.13,9.13,0,0,1,1070.47,572.69Zm0-3.3a2.76,2.76,0,0,0,2-.73,3.22,3.22,0,0,0,.82-2.34c0-.67,0-1.3,0-1.9s0-1.21,0-1.85a4.22,4.22,0,0,0-.4-1.75,2.31,2.31,0,0,0-1-1,3.31,3.31,0,0,0-2.84,0,2.39,2.39,0,0,0-1,1,4.07,4.07,0,0,0-.41,1.75c0,.64,0,1.26,0,1.85s0,1.23,0,1.9a3.26,3.26,0,0,0,.84,2.34A2.73,2.73,0,0,0,1070.47,569.39Z"></path><path class="cls-3" d="M1080.86,572.46a.53.53,0,0,1-.41-.17.57.57,0,0,1-.16-.4V557a.54.54,0,0,1,.16-.41.53.53,0,0,1,.41-.16h6.27a7.33,7.33,0,0,1,4.7,1.36,5.23,5.23,0,0,1,.92,6.61,4.84,4.84,0,0,1-2.07,1.69l3.15,5.64a.5.5,0,0,1,.07.25.52.52,0,0,1-.48.48h-3.07a.83.83,0,0,1-.64-.22,1.6,1.6,0,0,1-.3-.4l-2.63-5h-2.35v5.09a.54.54,0,0,1-.17.4.61.61,0,0,1-.43.17Zm3.57-8.91h2.65a2.22,2.22,0,0,0,1.63-.53,1.88,1.88,0,0,0,.54-1.41,2,2,0,0,0-.52-1.45,2.2,2.2,0,0,0-1.65-.55h-2.65Z"></path><rect class="cls-5" y="445.67" width="277" height="50.69" rx="17.04"></rect><path class="cls-3" d="M26.6,478.15a.49.49,0,0,1-.34-.16.46.46,0,0,1-.15-.34.71.71,0,0,1,0-.21l5.55-15.06a.86.86,0,0,1,.29-.45.88.88,0,0,1,.63-.2h3.49a.88.88,0,0,1,.63.2.92.92,0,0,1,.29.45l5.52,15.06a.38.38,0,0,1,0,.21.46.46,0,0,1-.15.34.52.52,0,0,1-.37.16h-2.9a.71.71,0,0,1-.53-.18,1,1,0,0,1-.23-.32l-.92-2.39h-6.3l-.9,2.39a.87.87,0,0,1-.21.32.74.74,0,0,1-.56.18Zm5.55-6.27h4.39l-2.2-6.19Z"></path><path class="cls-3" d="M45,478.15a.55.55,0,0,1-.43-.18.57.57,0,0,1-.16-.41V462.31a.57.57,0,0,1,.16-.42.57.57,0,0,1,.43-.16h6.6a8.93,8.93,0,0,1,3.42.6,4.87,4.87,0,0,1,2.26,1.79,5.3,5.3,0,0,1,.82,3,5.1,5.1,0,0,1-.82,3,4.77,4.77,0,0,1-2.26,1.74,9.36,9.36,0,0,1-3.42.56h-2.8v5.14a.55.55,0,0,1-.18.41.59.59,0,0,1-.44.18Zm3.72-9h2.77a2.41,2.41,0,0,0,1.61-.52,2,2,0,0,0,.61-1.57,2.24,2.24,0,0,0-.52-1.5,2.12,2.12,0,0,0-1.7-.61H48.76Z"></path><path class="cls-3" d="M61,478.15a.54.54,0,0,1-.42-.18.58.58,0,0,1-.17-.41V462.31a.57.57,0,0,1,.17-.42.57.57,0,0,1,.42-.16h3.16a.61.61,0,0,1,.44.16.54.54,0,0,1,.18.42v15.25a.55.55,0,0,1-.18.41.59.59,0,0,1-.44.18Z"></path><path class="cls-3" d="M79.24,478.38a9.89,9.89,0,0,1-3.92-.67A5.52,5.52,0,0,1,73,476a4,4,0,0,1-.85-2.29.46.46,0,0,1,.15-.34.49.49,0,0,1,.37-.16h3a.92.92,0,0,1,.51.12,1.34,1.34,0,0,1,.32.31,2.68,2.68,0,0,0,.53.68,2.56,2.56,0,0,0,.91.52,3.92,3.92,0,0,0,1.37.2,4,4,0,0,0,2.06-.42,1.3,1.3,0,0,0,.7-1.15,1.11,1.11,0,0,0-.38-.87,3.71,3.71,0,0,0-1.22-.6c-.56-.17-1.3-.36-2.23-.55a13.7,13.7,0,0,1-3-1,4.7,4.7,0,0,1-1.93-1.57,4.59,4.59,0,0,1,.16-5,5.32,5.32,0,0,1,2.27-1.75,8.6,8.6,0,0,1,3.47-.64,8.9,8.9,0,0,1,2.87.42A6.71,6.71,0,0,1,84.05,463a5.33,5.33,0,0,1,1.29,1.49,3.44,3.44,0,0,1,.46,1.54.58.58,0,0,1-.13.34.47.47,0,0,1-.37.15H82.19a.88.88,0,0,1-.45-.1.78.78,0,0,1-.33-.3,1.67,1.67,0,0,0-.75-.9,2.83,2.83,0,0,0-1.57-.39,3,3,0,0,0-1.61.36,1.24,1.24,0,0,0-.58,1.12,1.21,1.21,0,0,0,.32.82,2.53,2.53,0,0,0,1.06.61,20.09,20.09,0,0,0,2,.54,15.62,15.62,0,0,1,3.47,1,4.51,4.51,0,0,1,1.95,1.55,4.32,4.32,0,0,1,.62,2.38,4.23,4.23,0,0,1-.92,2.75,5.94,5.94,0,0,1-2.51,1.77A10.19,10.19,0,0,1,79.24,478.38Z"></path><path class="cls-3" d="M89.31,478.15a.54.54,0,0,1-.42-.18.58.58,0,0,1-.17-.41V462.31a.57.57,0,0,1,.17-.42.57.57,0,0,1,.42-.16h6.61a8.84,8.84,0,0,1,3.41.6,4.84,4.84,0,0,1,2.27,1.79,5.3,5.3,0,0,1,.81,3,5.1,5.1,0,0,1-.81,3,4.75,4.75,0,0,1-2.27,1.74,9.27,9.27,0,0,1-3.41.56H93.11v5.14a.58.58,0,0,1-.17.41.6.6,0,0,1-.44.18Zm3.73-9H95.8a2.42,2.42,0,0,0,1.62-.52,2,2,0,0,0,.6-1.57,2.19,2.19,0,0,0-.52-1.5,2.1,2.1,0,0,0-1.7-.61H93Z"></path><path class="cls-3" d="M105.27,478.15a.57.57,0,0,1-.43-.18.57.57,0,0,1-.16-.41V462.31a.57.57,0,0,1,.16-.42.59.59,0,0,1,.43-.16h11a.59.59,0,0,1,.43.16.57.57,0,0,1,.16.42v2.21a.57.57,0,0,1-.16.42.59.59,0,0,1-.43.16h-7.53v3.17h7a.55.55,0,0,1,.43.18.59.59,0,0,1,.16.43v2a.57.57,0,0,1-.16.41.55.55,0,0,1-.43.18h-7v3.26h7.72a.57.57,0,0,1,.42.16.57.57,0,0,1,.17.42v2.21a.58.58,0,0,1-.17.41.54.54,0,0,1-.42.18Z"></path><path class="cls-3" d="M126.39,478.38a9.1,9.1,0,0,1-3.82-.73,5.53,5.53,0,0,1-2.49-2.13,7,7,0,0,1-1-3.5c0-.64,0-1.32,0-2.06s0-1.44,0-2.11a7,7,0,0,1,1-3.47,5.55,5.55,0,0,1,2.5-2.16,9.23,9.23,0,0,1,3.8-.73,10.13,10.13,0,0,1,2.88.39,7.27,7.27,0,0,1,2.32,1.13,5.24,5.24,0,0,1,1.54,1.78,5.18,5.18,0,0,1,.58,2.36.39.39,0,0,1-.13.35.53.53,0,0,1-.37.14H130a.77.77,0,0,1-.47-.13,1.07,1.07,0,0,1-.29-.48,2.7,2.7,0,0,0-1.07-1.7,3.41,3.41,0,0,0-1.83-.46,2.83,2.83,0,0,0-2.05.72,3.35,3.35,0,0,0-.83,2.38c0,1.28,0,2.59,0,3.94a3.37,3.37,0,0,0,.83,2.38,2.87,2.87,0,0,0,2.05.71,3.36,3.36,0,0,0,1.84-.47,2.6,2.6,0,0,0,1.06-1.69,1,1,0,0,1,.27-.48.87.87,0,0,1,.49-.12h3.18a.49.49,0,0,1,.37.14.38.38,0,0,1,.13.35,5.17,5.17,0,0,1-.58,2.35,5.37,5.37,0,0,1-1.54,1.79,7.25,7.25,0,0,1-2.32,1.12A10.13,10.13,0,0,1,126.39,478.38Z"></path><path class="cls-3" d="M136.78,478.15a.55.55,0,0,1-.43-.18.57.57,0,0,1-.16-.41V462.31a.57.57,0,0,1,.16-.42.57.57,0,0,1,.43-.16h3.16a.63.63,0,0,1,.44.16.54.54,0,0,1,.17.42v15.25a.54.54,0,0,1-.17.41.6.6,0,0,1-.44.18Z"></path><path class="cls-3" d="M144.43,478.15A.55.55,0,0,1,144,478a.57.57,0,0,1-.16-.41V462.31a.57.57,0,0,1,.16-.42.57.57,0,0,1,.43-.16h10.85a.57.57,0,0,1,.43.16.57.57,0,0,1,.16.42v2.37a.57.57,0,0,1-.16.42.58.58,0,0,1-.43.17H148v3.45h6.82a.61.61,0,0,1,.43.17.66.66,0,0,1,.16.44v2.34a.62.62,0,0,1-.16.41.58.58,0,0,1-.43.18H148v5.3a.58.58,0,0,1-.17.41.54.54,0,0,1-.42.18Z"></path><path class="cls-3" d="M159,478.15a.54.54,0,0,1-.42-.18.58.58,0,0,1-.17-.41V462.31a.57.57,0,0,1,.17-.42.57.57,0,0,1,.42-.16h3.16a.61.61,0,0,1,.44.16.54.54,0,0,1,.18.42v15.25a.55.55,0,0,1-.18.41.59.59,0,0,1-.44.18Z"></path><path class="cls-3" d="M172.84,478.38a9.1,9.1,0,0,1-3.82-.73,5.53,5.53,0,0,1-2.49-2.13,7,7,0,0,1-1-3.5c0-.64,0-1.32,0-2.06s0-1.44,0-2.11a7,7,0,0,1,1-3.47,5.55,5.55,0,0,1,2.5-2.16,9.23,9.23,0,0,1,3.8-.73,10.13,10.13,0,0,1,2.88.39A7.11,7.11,0,0,1,178,463a5.09,5.09,0,0,1,2.13,4.14.42.42,0,0,1-.13.35.55.55,0,0,1-.37.14h-3.18a.81.81,0,0,1-.48-.13,1.06,1.06,0,0,1-.28-.48,2.7,2.7,0,0,0-1.07-1.7,3.41,3.41,0,0,0-1.83-.46,2.87,2.87,0,0,0-2.06.72,3.39,3.39,0,0,0-.82,2.38c-.05,1.28-.05,2.59,0,3.94a3.41,3.41,0,0,0,.82,2.38,2.91,2.91,0,0,0,2.06.71,3.36,3.36,0,0,0,1.84-.47,2.6,2.6,0,0,0,1.06-1.69.85.85,0,0,1,.27-.48.87.87,0,0,1,.49-.12h3.18a.5.5,0,0,1,.37.14.41.41,0,0,1,.13.35,5.17,5.17,0,0,1-.58,2.35,5.29,5.29,0,0,1-1.55,1.79,7.1,7.1,0,0,1-2.31,1.12A10.13,10.13,0,0,1,172.84,478.38Z"></path><path class="cls-3" d="M181.48,478.15a.47.47,0,0,1-.34-.16.46.46,0,0,1-.15-.34.71.71,0,0,1,0-.21l5.55-15.06a.86.86,0,0,1,.29-.45.88.88,0,0,1,.63-.2H191a.86.86,0,0,1,.62.2.94.94,0,0,1,.3.45l5.52,15.06a.5.5,0,0,1,.05.21.46.46,0,0,1-.15.34.54.54,0,0,1-.37.16H194a.69.69,0,0,1-.53-.18.84.84,0,0,1-.23-.32l-.92-2.39h-6.3l-.9,2.39a.87.87,0,0,1-.21.32.75.75,0,0,1-.57.18Zm5.55-6.27h4.39l-2.2-6.19Z"></path><path class="cls-3" d="M201.87,478.15a.54.54,0,0,1-.42-.18.58.58,0,0,1-.17-.41V465.41h-4.2a.54.54,0,0,1-.42-.18.57.57,0,0,1-.17-.41v-2.51a.57.57,0,0,1,.17-.42.57.57,0,0,1,.42-.16h12.7a.57.57,0,0,1,.42.16.57.57,0,0,1,.17.42v2.51a.57.57,0,0,1-.17.41.54.54,0,0,1-.42.18h-4.2v12.15a.58.58,0,0,1-.17.41.54.54,0,0,1-.42.18Z"></path><path class="cls-3" d="M213.11,478.15a.55.55,0,0,1-.43-.18.57.57,0,0,1-.16-.41V462.31a.57.57,0,0,1,.16-.42.57.57,0,0,1,.43-.16h3.16a.63.63,0,0,1,.44.16.57.57,0,0,1,.17.42v15.25a.58.58,0,0,1-.17.41.6.6,0,0,1-.44.18Z"></path><path class="cls-3" d="M226.91,478.38a9.33,9.33,0,0,1-3.77-.7,5.44,5.44,0,0,1-2.5-2.13,7.17,7.17,0,0,1-1-3.55c0-.67,0-1.35,0-2s0-1.35,0-2a7.16,7.16,0,0,1,1-3.55,5.62,5.62,0,0,1,2.52-2.17,10,10,0,0,1,7.5,0,5.68,5.68,0,0,1,2.52,2.17,6.77,6.77,0,0,1,1,3.55c0,.68,0,1.35,0,2s0,1.36,0,2a6.78,6.78,0,0,1-1,3.55,5.52,5.52,0,0,1-2.51,2.13A9.34,9.34,0,0,1,226.91,478.38Zm0-3.38a2.86,2.86,0,0,0,2.05-.75,3.33,3.33,0,0,0,.83-2.39c0-.69.05-1.34.05-1.95s0-1.24-.05-1.9a4.26,4.26,0,0,0-.41-1.79,2.35,2.35,0,0,0-1-1,3.15,3.15,0,0,0-1.47-.33,3.12,3.12,0,0,0-1.44.33,2.42,2.42,0,0,0-1,1A4.25,4.25,0,0,0,224,468c0,.66,0,1.29,0,1.9s0,1.26,0,1.95a3.38,3.38,0,0,0,.87,2.39A2.8,2.8,0,0,0,226.91,475Z"></path><path class="cls-3" d="M237.56,478.15a.57.57,0,0,1-.43-.18.57.57,0,0,1-.16-.41V462.31a.57.57,0,0,1,.16-.42.59.59,0,0,1,.43-.16h2.5a.84.84,0,0,1,.58.17,1.21,1.21,0,0,1,.22.27l5.76,9v-8.87a.57.57,0,0,1,.17-.42.57.57,0,0,1,.42-.16H250a.57.57,0,0,1,.43.16.57.57,0,0,1,.16.42v15.23a.6.6,0,0,1-.16.43.55.55,0,0,1-.43.18h-2.52A.77.77,0,0,1,247,478c-.11-.13-.19-.21-.22-.26L241,469v8.54a.57.57,0,0,1-.16.41.57.57,0,0,1-.43.18Z"></path><path class="cls-11" d="M99.22,387.62a.36.36,0,0,1-.25-.11.34.34,0,0,1-.11-.25.77.77,0,0,1,0-.15l4-10.83a.6.6,0,0,1,.21-.32.64.64,0,0,1,.45-.15H106a.64.64,0,0,1,.45.15.6.6,0,0,1,.21.32l4,10.83a.28.28,0,0,1,0,.15.34.34,0,0,1-.11.25.39.39,0,0,1-.27.11h-2.08a.53.53,0,0,1-.39-.13.74.74,0,0,1-.16-.23l-.66-1.72h-4.53l-.65,1.72a.56.56,0,0,1-.15.23.52.52,0,0,1-.41.13Zm4-4.5h3.15l-1.58-4.46Z"></path><path class="cls-11" d="M112.47,387.62a.38.38,0,0,1-.3-.13.4.4,0,0,1-.12-.29v-11a.41.41,0,0,1,.42-.42h4.76a6.58,6.58,0,0,1,2.45.43,3.62,3.62,0,0,1,1.63,1.29,3.81,3.81,0,0,1,.58,2.18,3.67,3.67,0,0,1-.58,2.14,3.48,3.48,0,0,1-1.63,1.25,6.8,6.8,0,0,1-2.45.4h-2v3.7a.41.41,0,0,1-.13.29.42.42,0,0,1-.32.13Zm2.68-6.44h2a1.71,1.71,0,0,0,1.16-.38,1.39,1.39,0,0,0,.44-1.13,1.59,1.59,0,0,0-.38-1.07,1.49,1.49,0,0,0-1.22-.44h-2Z"></path><path class="cls-11" d="M124,387.62a.39.39,0,0,1-.31-.13.4.4,0,0,1-.12-.29v-11a.41.41,0,0,1,.12-.3.41.41,0,0,1,.31-.12h2.27a.43.43,0,0,1,.31.12.38.38,0,0,1,.13.3v11a.37.37,0,0,1-.13.29.4.4,0,0,1-.31.13Z"></path><path class="cls-11" d="M104,403.38a5.83,5.83,0,0,1-2.47-.46,3.82,3.82,0,0,1-1.54-1.17,2.62,2.62,0,0,1-.57-1.51.34.34,0,0,1,.11-.24.36.36,0,0,1,.26-.11h.87a.41.41,0,0,1,.31.1.56.56,0,0,1,.13.24,2.1,2.1,0,0,0,.43.8,2.45,2.45,0,0,0,.92.66A4,4,0,0,0,104,402a3.54,3.54,0,0,0,2.15-.52,1.62,1.62,0,0,0,.69-1.37,1.28,1.28,0,0,0-.37-1,3.31,3.31,0,0,0-1.11-.65c-.5-.19-1.14-.39-1.93-.62a11.08,11.08,0,0,1-2.06-.77,3.15,3.15,0,0,1-1.21-1.05,2.86,2.86,0,0,1-.4-1.59,2.77,2.77,0,0,1,.49-1.62,3.36,3.36,0,0,1,1.43-1.14,5.43,5.43,0,0,1,2.24-.42,5.7,5.7,0,0,1,1.84.27,4.11,4.11,0,0,1,1.32.75,3.41,3.41,0,0,1,.79,1,2.48,2.48,0,0,1,.29,1,.43.43,0,0,1-.08.23.34.34,0,0,1-.27.11h-.9a.59.59,0,0,1-.25-.07.47.47,0,0,1-.2-.25,1.68,1.68,0,0,0-.78-1.17,3,3,0,0,0-1.76-.47,3.39,3.39,0,0,0-1.79.42,1.59,1.59,0,0,0-.37,2.27,2.73,2.73,0,0,0,1,.67,17.64,17.64,0,0,0,1.82.6,13.56,13.56,0,0,1,2.22.79,3.07,3.07,0,0,1,1.28,1,2.72,2.72,0,0,1,.42,1.57,3,3,0,0,1-.56,1.82,3.51,3.51,0,0,1-1.57,1.14A6.4,6.4,0,0,1,104,403.38Z"></path><path class="cls-11" d="M111.13,403.21a.36.36,0,0,1-.29-.11.41.41,0,0,1-.1-.28v-11a.49.49,0,0,1,.1-.3.39.39,0,0,1,.29-.1h4.31a5.37,5.37,0,0,1,2.18.4,3.12,3.12,0,0,1,1.44,1.21,3.63,3.63,0,0,1,.51,2,3.59,3.59,0,0,1-.51,2,3.16,3.16,0,0,1-1.44,1.2,5.37,5.37,0,0,1-2.18.41h-3v4.21a.38.38,0,0,1-.11.28.39.39,0,0,1-.3.11Zm1.29-6h2.94a2.76,2.76,0,0,0,1.88-.56,2,2,0,0,0,.63-1.62,2.09,2.09,0,0,0-.61-1.61,2.67,2.67,0,0,0-1.9-.58h-2.94Z"></path><path class="cls-11" d="M122,403.21a.35.35,0,0,1-.29-.11.37.37,0,0,1-.1-.28v-11a.44.44,0,0,1,.1-.3.38.38,0,0,1,.29-.1h7a.39.39,0,0,1,.29.1.49.49,0,0,1,.1.3v.64a.42.42,0,0,1-.1.29.39.39,0,0,1-.29.1h-5.77v3.69h5.39a.38.38,0,0,1,.29.11.42.42,0,0,1,.1.3v.62a.36.36,0,0,1-.39.39h-5.39v3.83h5.9a.35.35,0,0,1,.39.39v.65a.37.37,0,0,1-.1.28.35.35,0,0,1-.29.11Z"></path><path class="cls-11" d="M136.08,403.38a5.31,5.31,0,0,1-2.59-.57,3.82,3.82,0,0,1-1.55-1.61,5.73,5.73,0,0,1-.58-2.39c0-.46,0-1,0-1.48s0-1,0-1.52a5.81,5.81,0,0,1,.58-2.4,3.79,3.79,0,0,1,1.55-1.6,5.31,5.31,0,0,1,2.59-.57,5.81,5.81,0,0,1,2,.32,4.23,4.23,0,0,1,1.47.86,3.75,3.75,0,0,1,.89,1.2,3.59,3.59,0,0,1,.34,1.38.29.29,0,0,1-.09.25.35.35,0,0,1-.26.1h-.94a.45.45,0,0,1-.26-.08.53.53,0,0,1-.16-.31,2.66,2.66,0,0,0-1.08-1.8,3.61,3.61,0,0,0-2-.49,3,3,0,0,0-2.17.77,3.42,3.42,0,0,0-.85,2.45c0,.92,0,1.87,0,2.84a3.42,3.42,0,0,0,.85,2.45,3,3,0,0,0,2.17.77,3.7,3.7,0,0,0,2-.49,2.66,2.66,0,0,0,1.08-1.81.54.54,0,0,1,.16-.3.39.39,0,0,1,.26-.09h.94a.4.4,0,0,1,.26.1.26.26,0,0,1,.09.24,3.6,3.6,0,0,1-.34,1.39,3.68,3.68,0,0,1-.89,1.21,4.23,4.23,0,0,1-1.47.86A6,6,0,0,1,136.08,403.38Z"></path><circle class="cls-11" cx="652.39" cy="486.62" r="11.17"></circle><path class="cls-14" d="M1031.47,137l-12.75,33.4,8.5-38.44.45.11A35.43,35.43,0,0,1,1031.47,137Z"></path><g class="cls-15"><path d="M680.67,484.05a1.83,1.83,0,0,0-1.55-1.76l-3-.46a1.79,1.79,0,0,1-1.3-.86l-4.18-7a1.86,1.86,0,0,1-.17-1.56l1-2.85a1.81,1.81,0,0,0-.83-2.2l-2.38-1.34a1.83,1.83,0,0,0-2.31.45l-1.87,2.31a1.84,1.84,0,0,1-1.39.68l-8.14.14a1.81,1.81,0,0,1-1.43-.64l-2-2.35a1.83,1.83,0,0,0-2.32-.41l-1.08.64-.27,10H659v1.46a7.38,7.38,0,0,1,4.81,2,7.47,7.47,0,0,1,2.45,5.26,7.6,7.6,0,0,1,0,1.07,7.51,7.51,0,0,1-2.72,5l-.13,4.88a4.85,4.85,0,0,0,5,4.68h3.19l-.81-2.14a1.83,1.83,0,0,1,.12-1.53l4.14-7.45a1.78,1.78,0,0,1,1.25-.9l3-.56a1.83,1.83,0,0,0,1.49-1.82v-.17Z"></path></g><circle class="cls-11" cx="932.03" cy="486.62" r="11.17"></circle><g class="cls-15"><path d="M959.57,483.35a1.79,1.79,0,0,0-1.54-1.76l-3-.45a1.82,1.82,0,0,1-1.29-.86l-4.2-7a1.82,1.82,0,0,1-.15-1.56l1-2.85a1.83,1.83,0,0,0-.83-2.19l-2.38-1.35a1.85,1.85,0,0,0-2.32.45l-1.86,2.32a1.81,1.81,0,0,1-1.39.67l-6,.11v9a7.28,7.28,0,0,1,2-.28,7.5,7.5,0,0,1,0,15h-.35a14.76,14.76,0,0,0,13.12,8h.08l-.84-2.23a1.86,1.86,0,0,1,.11-1.53l4.14-7.46a1.8,1.8,0,0,1,1.25-.9l3-.56a1.82,1.82,0,0,0,1.48-1.82Z"></path></g><path class="cls-6" d="M911.56,487.59a1.81,1.81,0,0,0,1.55,1.77l3,.45a1.82,1.82,0,0,1,1.29.86l4.19,7a1.8,1.8,0,0,1,.15,1.55l-1,2.85a1.84,1.84,0,0,0,.83,2.21l2.38,1.34a1.83,1.83,0,0,0,2.31-.45l1.88-2.32a1.79,1.79,0,0,1,1.38-.67l8.15-.15a1.83,1.83,0,0,1,1.42.66l2,2.34a1.81,1.81,0,0,0,2.31.4L945.7,504a1.82,1.82,0,0,0,.78-2.22l-1-2.74a1.82,1.82,0,0,1,.11-1.53l4.14-7.46a1.79,1.79,0,0,1,1.26-.91l2.95-.55a1.83,1.83,0,0,0,1.48-1.83l0-2.73a1.82,1.82,0,0,0-1.55-1.76l-3-.45a1.81,1.81,0,0,1-1.29-.87l-4.19-7a1.8,1.8,0,0,1-.16-1.55l1-2.85a1.82,1.82,0,0,0-.82-2.2L943,466.06a1.82,1.82,0,0,0-2.3.45l-1.88,2.31a1.81,1.81,0,0,1-1.38.68l-8.15.14a1.84,1.84,0,0,1-1.43-.65l-2-2.35a1.82,1.82,0,0,0-2.31-.4l-2.36,1.39a1.8,1.8,0,0,0-.78,2.21l1,2.75a1.82,1.82,0,0,1-.11,1.53l-4.15,7.46a1.81,1.81,0,0,1-1.25.9l-3,.56a1.81,1.81,0,0,0-1.48,1.82Zm21.9-9.26A7.5,7.5,0,1,1,926,486.1,7.52,7.52,0,0,1,933.46,478.33Z"></path><path class="cls-6" d="M631.92,487.59a1.81,1.81,0,0,0,1.55,1.77l3,.45a1.8,1.8,0,0,1,1.29.86l4.19,7a1.84,1.84,0,0,1,.16,1.55l-1,2.85a1.84,1.84,0,0,0,.83,2.21l2.38,1.34a1.83,1.83,0,0,0,2.31-.45l1.88-2.32a1.79,1.79,0,0,1,1.38-.67L658,502a1.81,1.81,0,0,1,1.42.66l2,2.34a1.83,1.83,0,0,0,2.32.4l2.36-1.38a1.82,1.82,0,0,0,.78-2.22l-1-2.74a1.82,1.82,0,0,1,.11-1.53l4.14-7.46a1.84,1.84,0,0,1,1.26-.91l3-.55a1.83,1.83,0,0,0,1.48-1.83l0-2.73a1.82,1.82,0,0,0-1.55-1.76l-3-.45a1.81,1.81,0,0,1-1.29-.87l-4.19-7a1.84,1.84,0,0,1-.16-1.55l1-2.85a1.81,1.81,0,0,0-.82-2.2l-2.39-1.34a1.82,1.82,0,0,0-2.3.45l-1.88,2.31a1.8,1.8,0,0,1-1.38.68l-8.15.14a1.84,1.84,0,0,1-1.43-.65l-2-2.35a1.82,1.82,0,0,0-2.31-.4l-2.36,1.39a1.8,1.8,0,0,0-.78,2.21l1,2.75a1.82,1.82,0,0,1-.11,1.53l-4.14,7.46a1.85,1.85,0,0,1-1.26.9l-2.95.56a1.81,1.81,0,0,0-1.48,1.82Zm21.9-9.26a7.5,7.5,0,1,1-7.51,7.77A7.52,7.52,0,0,1,653.82,478.33Z"></path><polyline class="cls-6" points="1007 172.74 1023.65 127.28 1030.67 129.63 1017.16 175.65"></polyline><path class="cls-7" d="M1030.67,129.63l-7-2.35,5.29-14.46a15.73,15.73,0,0,1,.59-1.48l5.89,2c-.11.5-.25,1-.42,1.54Z"></path><path class="cls-6" d="M1032.08,113a7.14,7.14,0,0,1-4.84-4.63c-.6-1.94-.43-4.39.77-7.32,1.8-4.45,8.89-8.64,12.7-10.64a.47.47,0,0,1,.56.73c-5.43,6-3.07,8.4-1.28,11.3a7.3,7.3,0,0,1,1.34,4.3C1041.14,110.42,1037.54,114.8,1032.08,113Z"></path><path class="cls-5" d="M1040,102.39c-1.68,1.66-3.59,2.63-5.31,1.33-3.24-2.48-6.17,2.13-7.44,4.6-.6-1.94-.43-4.39.77-7.32,1.8-4.45,8.89-8.64,12.7-10.64a.47.47,0,0,1,.56.73C1035.84,97.07,1038.2,99.49,1040,102.39Z"></path><path class="cls-8" d="M1486,516.06h0c-1.44,1,.41-.43-.92.7l-9.37-12.85q2.63-1.92,5.43-3.59Z"></path><path class="cls-8" d="M1576.42,522.76h0l-15.53,5.47h0c-.79-1.06.35-.23-.52-1.22l13.44-7.88C1574.6,520.22,1575.69,521.63,1576.42,522.76Z"></path><polygon class="cls-8" points="1554.51 620.93 1554.51 620.92 1549.29 605.32 1550.33 604.55 1560.13 617.03 1556.98 619.32 1554.51 620.93"></polygon><path class="cls-8" d="M1473.33,593.81l-13.52,8.27a28.22,28.22,0,0,1-2.69-3.88l-.49.16.49-.16,15.63-5.16.11.15A4,4,0,0,0,1473.33,593.81Z"></path><rect class="cls-16" x="317.23" y="367.2" width="65.74" height="38.92" rx="5.35"></rect><rect class="cls-17" x="367.24" y="367.51" width="7.42" height="38.6"></rect><path class="cls-16" d="M383.84,426.22l34.79-34.8a5.37,5.37,0,0,0,0-7.6L383.84,349a5.38,5.38,0,0,0-9.18,3.81v69.58A5.38,5.38,0,0,0,383.84,426.22Z"></path><rect class="cls-16" x="1273.69" y="135.16" width="65.74" height="38.92" rx="5.35"></rect><rect class="cls-17" x="1323.71" y="135.48" width="7.42" height="38.6"></rect><path class="cls-16" d="M1340.31,194.18l34.79-34.79a5.38,5.38,0,0,0,0-7.61L1340.31,117a5.38,5.38,0,0,0-9.18,3.8v69.59A5.38,5.38,0,0,0,1340.31,194.18Z"></path><rect class="cls-16" x="1273.69" y="544.29" width="65.74" height="38.92" rx="5.35"></rect><rect class="cls-17" x="1323.71" y="544.61" width="7.42" height="38.6"></rect><path class="cls-16" d="M1340.31,603.31l34.79-34.79a5.38,5.38,0,0,0,0-7.61l-34.79-34.79a5.38,5.38,0,0,0-9.18,3.8v69.59A5.38,5.38,0,0,0,1340.31,603.31Z"></path><path class="cls-5" d="M394,666H590.1a43.4,43.4,0,0,1,43.4,43.4v82.18a33.33,33.33,0,0,1-33.33,33.33H383.9a33.33,33.33,0,0,1-33.33-33.33V709.41A43.4,43.4,0,0,1,394,666Z"></path><path class="cls-11" d="M383.15,792.07a.39.39,0,0,1-.28-.12.36.36,0,0,1-.12-.28.55.55,0,0,1,0-.17l4.6-12.22a.67.67,0,0,1,.22-.33.64.64,0,0,1,.45-.15h2.08a.58.58,0,0,1,.43.15.76.76,0,0,1,.23.33l4.6,12.22a1.11,1.11,0,0,1,0,.17.36.36,0,0,1-.12.28.34.34,0,0,1-.26.12h-1.66a.54.54,0,0,1-.39-.13.59.59,0,0,1-.17-.24l-.89-2.31h-5.66l-.9,2.31a.67.67,0,0,1-.16.24.57.57,0,0,1-.39.13Zm3.77-4.86h4.33l-2.17-5.85Z"></path><path class="cls-11" d="M397.64,792.07a.45.45,0,0,1-.33-.14.42.42,0,0,1-.13-.32V779.28a.44.44,0,0,1,.13-.34.45.45,0,0,1,.33-.14h5.11a6.65,6.65,0,0,1,2.59.47,3.68,3.68,0,0,1,1.72,1.4,4.24,4.24,0,0,1,.61,2.34,4.19,4.19,0,0,1-.61,2.34,3.68,3.68,0,0,1-1.72,1.37,6.66,6.66,0,0,1-2.59.46h-2.84v4.43a.46.46,0,0,1-.13.32.42.42,0,0,1-.33.14Zm2.23-7h2.78a2.49,2.49,0,0,0,1.7-.52,2,2,0,0,0,.59-1.54,2.17,2.17,0,0,0-.55-1.53,2.34,2.34,0,0,0-1.74-.57h-2.78Z"></path><path class="cls-11" d="M410.2,792.07a.42.42,0,0,1-.32-.14.43.43,0,0,1-.14-.32V779.26a.48.48,0,0,1,.46-.46H412a.46.46,0,0,1,.34.14.44.44,0,0,1,.12.32v12.35a.45.45,0,0,1-.12.32.46.46,0,0,1-.34.14Z"></path><path class="cls-11" d="M415.92,792.07a.44.44,0,0,1-.34-.14.43.43,0,0,1-.14-.32V779.28a.48.48,0,0,1,.48-.48h1.51a.52.52,0,0,1,.4.15,1.73,1.73,0,0,1,.17.21l3.68,6.82,3.72-6.82a.8.8,0,0,1,.17-.21.51.51,0,0,1,.4-.15h1.48a.48.48,0,0,1,.35.14.44.44,0,0,1,.13.34v12.33a.42.42,0,0,1-.13.32.48.48,0,0,1-.35.14h-1.6a.42.42,0,0,1-.33-.14.45.45,0,0,1-.12-.32v-8.2l-2.67,5.06a1.16,1.16,0,0,1-.25.29.63.63,0,0,1-.4.12h-.78a.61.61,0,0,1-.41-.12,1,1,0,0,1-.24-.29L418,783.41v8.2a.46.46,0,0,1-.13.32.45.45,0,0,1-.33.14Z"></path><path class="cls-11" d="M430.09,792.07a.38.38,0,0,1-.28-.12.36.36,0,0,1-.12-.28.55.55,0,0,1,0-.17l4.6-12.22a.67.67,0,0,1,.22-.33.64.64,0,0,1,.45-.15h2.07a.6.6,0,0,1,.44.15.86.86,0,0,1,.23.33l4.6,12.22a1.11,1.11,0,0,1,0,.17.36.36,0,0,1-.12.28.36.36,0,0,1-.27.12h-1.65a.58.58,0,0,1-.4-.13.67.67,0,0,1-.16-.24l-.89-2.31h-5.67l-.89,2.31a.67.67,0,0,1-.16.24.58.58,0,0,1-.4.13Zm3.77-4.86h4.33L436,781.36Z"></path><path class="cls-11" d="M446.12,792.07a.42.42,0,0,1-.32-.14.43.43,0,0,1-.14-.32V781.13h-3.52a.44.44,0,0,1-.33-.13.44.44,0,0,1-.13-.32v-1.4a.44.44,0,0,1,.13-.34.45.45,0,0,1,.33-.14h9.72a.46.46,0,0,1,.34.14.44.44,0,0,1,.13.34v1.4a.44.44,0,0,1-.13.32.45.45,0,0,1-.34.13h-3.51v10.48a.42.42,0,0,1-.13.32.48.48,0,0,1-.35.14Z"></path><path class="cls-11" d="M454.72,792.07a.45.45,0,0,1-.33-.14.42.42,0,0,1-.13-.32V779.26a.41.41,0,0,1,.13-.32.45.45,0,0,1,.33-.14h1.79a.42.42,0,0,1,.33.14.41.41,0,0,1,.13.32v12.35a.46.46,0,0,1-.46.46Z"></path><path class="cls-11" d="M465.11,792.25a6.66,6.66,0,0,1-3-.61,4.33,4.33,0,0,1-1.88-1.76,6.19,6.19,0,0,1-.73-2.76c0-.52,0-1.07,0-1.67s0-1.16,0-1.7a6.05,6.05,0,0,1,.74-2.75,4.38,4.38,0,0,1,1.89-1.77,6.6,6.6,0,0,1,3-.62,7.66,7.66,0,0,1,2.33.34,5.42,5.42,0,0,1,1.75.94,4.25,4.25,0,0,1,1.12,1.39,3.94,3.94,0,0,1,.42,1.73.29.29,0,0,1-.1.28.41.41,0,0,1-.3.12h-1.81a.53.53,0,0,1-.34-.11A.59.59,0,0,1,468,783a2.6,2.6,0,0,0-1.05-1.7,3.43,3.43,0,0,0-1.85-.46,2.89,2.89,0,0,0-2,.71,3.27,3.27,0,0,0-.82,2.34c0,1,0,2.1,0,3.19a3.27,3.27,0,0,0,.82,2.34,2.89,2.89,0,0,0,2,.71,3.47,3.47,0,0,0,1.86-.47,2.55,2.55,0,0,0,1-1.69.56.56,0,0,1,.19-.36.53.53,0,0,1,.34-.1h1.81a.41.41,0,0,1,.3.12.29.29,0,0,1,.1.28,3.87,3.87,0,0,1-.42,1.72,4.28,4.28,0,0,1-1.12,1.4,5.4,5.4,0,0,1-1.75.93A7.36,7.36,0,0,1,465.11,792.25Z"></path><path class="cls-11" d="M482.52,792.25a6.67,6.67,0,0,1-3-.61,4.39,4.39,0,0,1-1.88-1.76,6.18,6.18,0,0,1-.72-2.76c0-.52,0-1.07,0-1.67s0-1.16,0-1.7a6.18,6.18,0,0,1,.73-2.75,4.38,4.38,0,0,1,1.89-1.77,6.64,6.64,0,0,1,3-.62,7.59,7.59,0,0,1,2.32.34,5.47,5.47,0,0,1,1.76.94,4.38,4.38,0,0,1,1.12,1.39,3.94,3.94,0,0,1,.42,1.73.3.3,0,0,1-.11.28.4.4,0,0,1-.29.12h-1.81a.56.56,0,0,1-.35-.11.64.64,0,0,1-.19-.35,2.59,2.59,0,0,0-1-1.7,3.46,3.46,0,0,0-1.85-.46,2.86,2.86,0,0,0-2,.71,3.22,3.22,0,0,0-.82,2.34c0,1,0,2.1,0,3.19a3.22,3.22,0,0,0,.82,2.34,2.86,2.86,0,0,0,2,.71,3.52,3.52,0,0,0,1.86-.47,2.54,2.54,0,0,0,1-1.69.61.61,0,0,1,.19-.36.56.56,0,0,1,.35-.1h1.81a.4.4,0,0,1,.29.12.29.29,0,0,1,.11.28,3.87,3.87,0,0,1-.42,1.72,4.42,4.42,0,0,1-1.12,1.4,5.46,5.46,0,0,1-1.76.93A7.3,7.3,0,0,1,482.52,792.25Z"></path><path class="cls-11" d="M495.54,792.25a7,7,0,0,1-2.92-.55,4.27,4.27,0,0,1-1.91-1.73,6.12,6.12,0,0,1-.74-2.91c0-.54,0-1.08,0-1.61s0-1.07,0-1.63a5.84,5.84,0,0,1,.76-2.88,4.48,4.48,0,0,1,1.94-1.74,6.59,6.59,0,0,1,2.87-.59,6.7,6.7,0,0,1,2.88.59,4.48,4.48,0,0,1,1.94,1.74,5.74,5.74,0,0,1,.76,2.88c0,.56,0,1.1,0,1.63s0,1.07,0,1.61a5.9,5.9,0,0,1-.74,2.91,4.24,4.24,0,0,1-1.92,1.73A7,7,0,0,1,495.54,792.25Zm0-2.17a2.88,2.88,0,0,0,2-.73,3.32,3.32,0,0,0,.84-2.38c0-.56,0-1.07,0-1.55s0-1,0-1.52a4.11,4.11,0,0,0-.41-1.79,2.32,2.32,0,0,0-1-1,3.36,3.36,0,0,0-1.45-.31,3.27,3.27,0,0,0-1.43.31,2.27,2.27,0,0,0-1,1,4,4,0,0,0-.41,1.79c0,.54,0,1.05,0,1.52s0,1,0,1.55a3.27,3.27,0,0,0,.84,2.38A2.83,2.83,0,0,0,495.54,790.08Z"></path><path class="cls-11" d="M504.12,792.07a.45.45,0,0,1-.33-.14.42.42,0,0,1-.13-.32V779.28a.44.44,0,0,1,.13-.34.45.45,0,0,1,.33-.14h4.93a5.76,5.76,0,0,1,3.65,1.06,4.24,4.24,0,0,1,.63,5.42,3.89,3.89,0,0,1-1.86,1.35l2.79,4.83a.42.42,0,0,1,.06.21.37.37,0,0,1-.13.28.38.38,0,0,1-.28.12h-1.73a.67.67,0,0,1-.5-.18,1.34,1.34,0,0,1-.26-.34L509,787.06h-2.65v4.55a.45.45,0,0,1-.12.32.46.46,0,0,1-.34.14Zm2.19-7.15H509a2.49,2.49,0,0,0,1.73-.52,1.9,1.9,0,0,0,.57-1.47,2,2,0,0,0-.56-1.48,2.43,2.43,0,0,0-1.74-.54h-2.69Z"></path><path class="cls-11" d="M517,792.07a.45.45,0,0,1-.33-.14.42.42,0,0,1-.13-.32V779.28a.44.44,0,0,1,.13-.34.45.45,0,0,1,.33-.14h8.39a.46.46,0,0,1,.34.14.44.44,0,0,1,.13.34v1.25a.44.44,0,0,1-.13.32.45.45,0,0,1-.34.13h-6.28v3.35h5.86a.49.49,0,0,1,.34.13.42.42,0,0,1,.13.33V786a.45.45,0,0,1-.13.34.49.49,0,0,1-.34.12h-5.86v3.47h6.43a.45.45,0,0,1,.47.47v1.25a.42.42,0,0,1-.13.32.46.46,0,0,1-.34.14Z"></path><path class="cls-11" d="M533.17,792.07a.48.48,0,0,1-.46-.46V779.28a.44.44,0,0,1,.14-.34.43.43,0,0,1,.32-.14h8.39a.46.46,0,0,1,.34.14.44.44,0,0,1,.14.34v1.25a.46.46,0,0,1-.48.45h-6.27v3.35h5.85a.49.49,0,0,1,.34.13.42.42,0,0,1,.14.33V786a.46.46,0,0,1-.14.34.49.49,0,0,1-.34.12h-5.85v3.47h6.42a.48.48,0,0,1,.35.13.49.49,0,0,1,.13.34v1.25a.46.46,0,0,1-.13.32.48.48,0,0,1-.35.14Z"></path><path class="cls-11" d="M545,792.07a.45.45,0,0,1-.33-.14.46.46,0,0,1-.13-.32V779.28a.48.48,0,0,1,.13-.34.45.45,0,0,1,.33-.14h1.47a.5.5,0,0,1,.39.13,1,1,0,0,1,.16.18l5.49,8.48v-8.31a.47.47,0,0,1,.12-.34.46.46,0,0,1,.34-.14h1.6a.46.46,0,0,1,.34.14.44.44,0,0,1,.14.34v12.31a.46.46,0,0,1-.14.34.43.43,0,0,1-.32.14h-1.49a.48.48,0,0,1-.38-.14l-.17-.17-5.47-8.3v8.15a.43.43,0,0,1-.14.32.44.44,0,0,1-.34.14Z"></path><path class="cls-11" d="M563.24,792.25a6.78,6.78,0,0,1-3-.6,4.47,4.47,0,0,1-1.9-1.75,5.77,5.77,0,0,1-.74-2.74c0-.54,0-1.13,0-1.75s0-1.22,0-1.78a5.57,5.57,0,0,1,.74-2.69,4.46,4.46,0,0,1,1.92-1.72,6.81,6.81,0,0,1,3-.61,7.54,7.54,0,0,1,2.44.37,5.54,5.54,0,0,1,1.74.95,4.11,4.11,0,0,1,1.05,1.24,2.73,2.73,0,0,1,.37,1.23.33.33,0,0,1-.09.29.45.45,0,0,1-.31.11h-2a.42.42,0,0,1-.29-.08.67.67,0,0,1-.17-.22,2.66,2.66,0,0,0-.48-.79,2.37,2.37,0,0,0-.87-.65,3.29,3.29,0,0,0-1.43-.27,2.63,2.63,0,0,0-2.9,2.94q-.06,1.65,0,3.33a3.08,3.08,0,0,0,.85,2.31,3,3,0,0,0,2.09.71,3.73,3.73,0,0,0,1.53-.31,2.38,2.38,0,0,0,1.07-.94,3.15,3.15,0,0,0,.39-1.65v-.59h-2.33a.44.44,0,0,1-.32-.13.47.47,0,0,1-.13-.34v-1a.45.45,0,0,1,.13-.34.44.44,0,0,1,.32-.13h4.56a.42.42,0,0,1,.33.13.45.45,0,0,1,.13.34v2a5.28,5.28,0,0,1-.7,2.75,4.58,4.58,0,0,1-2,1.78A6.85,6.85,0,0,1,563.24,792.25Z"></path><path class="cls-11" d="M571.85,792.07a.45.45,0,0,1-.32-.14.42.42,0,0,1-.13-.32V779.26a.41.41,0,0,1,.13-.32.45.45,0,0,1,.32-.14h1.8a.42.42,0,0,1,.33.14.44.44,0,0,1,.12.32v12.35a.45.45,0,0,1-.12.32.42.42,0,0,1-.33.14Z"></path><path class="cls-11" d="M577.55,792.07a.45.45,0,0,1-.32-.14.42.42,0,0,1-.13-.32V779.28a.44.44,0,0,1,.13-.34.45.45,0,0,1,.32-.14H579a.5.5,0,0,1,.39.13,1.21,1.21,0,0,1,.17.18l5.49,8.48v-8.31a.47.47,0,0,1,.12-.34.42.42,0,0,1,.33-.14h1.61a.46.46,0,0,1,.34.14.44.44,0,0,1,.13.34v12.31a.46.46,0,0,1-.45.48h-1.49a.46.46,0,0,1-.38-.14l-.17-.17-5.48-8.3v8.15a.42.42,0,0,1-.13.32.46.46,0,0,1-.34.14Z"></path><path class="cls-11" d="M591,792.07a.45.45,0,0,1-.32-.14.42.42,0,0,1-.13-.32V779.28a.44.44,0,0,1,.13-.34.45.45,0,0,1,.32-.14h8.39a.48.48,0,0,1,.35.14.44.44,0,0,1,.13.34v1.25a.44.44,0,0,1-.13.32.48.48,0,0,1-.35.13h-6.27v3.35H599a.52.52,0,0,1,.35.13.42.42,0,0,1,.13.33V786a.45.45,0,0,1-.13.34.51.51,0,0,1-.35.12h-5.85v3.47h6.43a.45.45,0,0,1,.47.47v1.25a.42.42,0,0,1-.13.32.46.46,0,0,1-.34.14Z"></path><path class="cls-11" d="M535.66,749.76a21.73,21.73,0,0,1-.9,2.49,17.7,17.7,0,0,1-18,11.17v0H461.36a20,20,0,0,1-15.9-6.63l-.25-.27-.27-.32c-.39-.45-.75-.93-1.1-1.42-.12-.16-.23-.33-.34-.5-.26-.36-.49-.74-.72-1.12-.11-.18-.21-.37-.32-.56l-.09-.16-.22-.41c-.1-.19-.2-.38-.29-.58l-.24-.5a26,26,0,0,1-1.19-3.12c-2.68-8.73-.65-19,7.36-24.71a8.3,8.3,0,0,0,2.52-2.89,7.86,7.86,0,0,0,.91-3.71c-.07-12.06,8.36-20.68,18.55-24s22.14-1.23,29.13,8a8.11,8.11,0,0,0,3.56,2.72,7.31,7.31,0,0,0,4.42.33,14.7,14.7,0,0,1,13.25,3.75l.49.46.35.36.15.16c.13.13.25.27.38.41l0,.06.42.51c.14.18.28.36.41.55s.26.37.39.55.25.38.36.57.23.38.34.58a13.81,13.81,0,0,1,1.66,8.63,7.2,7.2,0,0,0,.74,4.3,9.05,9.05,0,0,0,3,3.31,18.18,18.18,0,0,1,7.65,13.76A22.47,22.47,0,0,1,535.66,749.76Z"></path><path class="cls-5" d="M524.93,741.41a6.43,6.43,0,0,0-4.57-1.89,6.15,6.15,0,0,0-1.06.09l-2.74-7.09-2.71-7a6.46,6.46,0,1,0-7.47-10.34,6.54,6.54,0,0,0-1.51,2.37l-11.79-1.86-9.39-1.49a9.1,9.1,0,0,0,0-.91,8.82,8.82,0,1,0-15.06,6.24,9.34,9.34,0,0,0,1.07.91l-3.79,7.5-4,7.91a8.12,8.12,0,0,0-3.13-.61,8.34,8.34,0,1,0,5.9,14.23,8.41,8.41,0,0,0,2.11-3.57c2.4.18,4.81.35,7.22.49q7.72.46,15.45.62c2.57,0,5.15.09,7.72.09s5.15-.05,7.72-.16l7.72-.23,1.27,0a6.46,6.46,0,1,0,11-5.23Zm-57.14-12.52,4.09-7.34a9,9,0,0,0,3,.53,8.82,8.82,0,0,0,8.55-6.63l9.32,1.87,11.71,2.35v.05a6.5,6.5,0,0,0,.39,2.21q-9.58,5.64-19.67,10.39-9.19,4.32-18.75,7.86a8.37,8.37,0,0,0-1.73-2.53,8.77,8.77,0,0,0-1.25-1Zm44.86,16.57-7.7-.06c-2.56,0-5.12,0-7.68-.13s-5.12-.23-7.68-.38q-7.66-.45-15.32-1.19c-2.38-.23-4.75-.48-7.13-.76a7.81,7.81,0,0,0-.21-1.37q9.69-3.35,19.07-7.52,10.28-4.56,20.1-10.07a4,4,0,0,0,.28.3,6.44,6.44,0,0,0,4.57,1.9,6.64,6.64,0,0,0,1.42-.16l2.38,7.15,2.39,7.21a6.79,6.79,0,0,0-1.35,1,6.52,6.52,0,0,0-1.87,4.06Z"></path></g></g></g></svg>