<svg xmlns="http://www.w3.org/2000/svg" xmlns:xlink="http://www.w3.org/1999/xlink" viewBox="0 0 1273.61 930.46"><defs><style>.cls-1{isolation:isolate;}.cls-2,.cls-24,.cls-33,.cls-34,.cls-38,.cls-44,.cls-48,.cls-50,.cls-53{fill:#f8fafc;}.cls-29,.cls-3{fill:#f5f5f5;}.cls-19,.cls-3{mix-blend-mode:multiply;}.cls-18,.cls-4{fill:none;}.cls-4{stroke:#223893;stroke-linecap:round;stroke-linejoin:round;stroke-width:2.33px;}.cls-5{fill:#223893;}.cls-6{fill:url(#linear-gradient);}.cls-7{fill:#6b7e8f;}.cls-8{fill:#455666;}.cls-9{fill:#0c7ff2;}.cls-10{fill:url(#linear-gradient-2);}.cls-11,.cls-30,.cls-58{fill:#fff;}.cls-12{fill:url(#linear-gradient-3);}.cls-13{fill:#9caab8;}.cls-14{fill:#b6c6d6;}.cls-15{fill:url(#linear-gradient-4);}.cls-16{fill:url(#linear-gradient-5);}.cls-17{fill:url(#linear-gradient-6);}.cls-19,.cls-31{fill:#cee0f2;}.cls-20{fill:url(#linear-gradient-7);}.cls-21{fill:url(#linear-gradient-8);}.cls-22{fill:url(#linear-gradient-9);}.cls-23{fill:#2e2e76;}.cls-24{font-size:21.46px;}.cls-24,.cls-33,.cls-34,.cls-38,.cls-44,.cls-48,.cls-50,.cls-53,.cls-58{font-family:Rubik-Bold, Rubik;font-weight:700;}.cls-25{letter-spacing:-0.07em;}.cls-26{fill:url(#linear-gradient-10);}.cls-27{fill:#9dc7f2;}.cls-28{fill:#0062ff;}.cls-30{font-size:16.27px;font-family:Rubik-Medium, Rubik;font-weight:500;}.cls-32{fill:#e7e9f2;}.cls-33{font-size:17.31px;}.cls-34{font-size:19.07px;}.cls-35{letter-spacing:-0.01em;}.cls-36{letter-spacing:-0.07em;}.cls-37{letter-spacing:-0.02em;}.cls-38{font-size:17.82px;}.cls-39{letter-spacing:-0.07em;}.cls-40{letter-spacing:0em;}.cls-41{letter-spacing:-0.01em;}.cls-42{letter-spacing:-0.02em;}.cls-43{letter-spacing:-0.02em;}.cls-44{font-size:17.44px;}.cls-45{letter-spacing:-0.07em;}.cls-46{letter-spacing:-0.01em;}.cls-47{letter-spacing:0em;}.cls-48{font-size:17.68px;}.cls-49{letter-spacing:-0.01em;}.cls-50{font-size:17.26px;}.cls-51{letter-spacing:-0.07em;}.cls-52{letter-spacing:-0.01em;}.cls-53{font-size:19.04px;}.cls-54{letter-spacing:-0.01em;}.cls-55{letter-spacing:-0.01em;}.cls-56{letter-spacing:-0.07em;}.cls-57{letter-spacing:0em;}.cls-58{font-size:9.32px;}.cls-59{letter-spacing:-0.01em;}</style><linearGradient id="linear-gradient" x1="184.9" y1="548.66" x2="978.34" y2="548.66" gradientUnits="userSpaceOnUse"><stop offset="0" stop-color="#9caab8"></stop><stop offset="1" stop-color="#e0e8f7"></stop></linearGradient><linearGradient id="linear-gradient-2" x1="1044.47" y1="749.75" x2="1235.82" y2="749.75" gradientUnits="userSpaceOnUse"><stop offset="0" stop-color="#6b7e8f"></stop><stop offset="1" stop-color="#b6c6d6"></stop></linearGradient><linearGradient id="linear-gradient-3" x1="1031.06" y1="719.84" x2="1249.22" y2="719.84" xlink:href="#linear-gradient"></linearGradient><linearGradient id="linear-gradient-4" x1="856.93" y1="864.12" x2="1048.28" y2="864.12" xlink:href="#linear-gradient-2"></linearGradient><linearGradient id="linear-gradient-5" x1="843.53" y1="834.21" x2="1061.69" y2="834.21" xlink:href="#linear-gradient"></linearGradient><linearGradient id="linear-gradient-6" x1="155.21" y1="218.55" x2="287.48" y2="218.55" xlink:href="#linear-gradient"></linearGradient><linearGradient id="linear-gradient-7" x1="337.12" y1="357.51" x2="495.17" y2="357.51" xlink:href="#linear-gradient"></linearGradient><linearGradient id="linear-gradient-8" x1="439.61" y1="413.05" x2="597.65" y2="413.05" xlink:href="#linear-gradient"></linearGradient><linearGradient id="linear-gradient-9" x1="543.4" y1="475.56" x2="701.45" y2="475.56" xlink:href="#linear-gradient"></linearGradient><linearGradient id="linear-gradient-10" x1="656.34" y1="534.8" x2="814.39" y2="534.8" xlink:href="#linear-gradient"></linearGradient></defs><g class="cls-1"><g id="Layer_2" data-name="Layer 2"><g id="Layer_1-2" data-name="Layer 1"><ellipse class="cls-2" cx="636.81" cy="537.5" rx="367.65" ry="636.81" transform="matrix(0.01, -1, 1, 0.01, 95.86, 1171.38)"></ellipse><path class="cls-3" d="M710.83,788.87,192.3,489.49c-11-6.32-9.58-17.37,3.07-24.67L409.68,342c12.65-7.3,31.78-8.09,42.74-1.77L971,639.56c10.95,6.33,9.58,17.38-3.07,24.68L753.56,787.1C740.92,794.4,721.78,795.19,710.83,788.87Z"></path><line class="cls-4" x1="416.14" y1="128.97" x2="416.14" y2="169.28"></line><circle class="cls-5" cx="416.14" cy="169.28" r="3.58"></circle><line class="cls-4" x1="526.3" y1="183.89" x2="526.3" y2="224.2"></line><circle class="cls-5" cx="526.3" cy="224.2" r="3.58"></circle><line class="cls-4" x1="630.14" y1="247.17" x2="630.14" y2="287.48"></line><circle class="cls-5" cx="630.14" cy="287.48" r="3.58"></circle><line class="cls-4" x1="763.31" y1="303" x2="763.31" y2="343.31"></line><circle class="cls-5" cx="763.31" cy="343.31" r="3.58"></circle><line class="cls-4" x1="205.74" y1="44.64" x2="205.74" y2="84.95"></line><path class="cls-6" d="M978.34,556.33,752,498.8l-299.58-173c-11-6.32-30.09-5.53-42.74,1.78L280.91,398.05,259,392.5,184.9,382.21v79.08h0c0,4.06,2.38,7.93,7.39,10.82L710.83,771.49c10.95,6.32,30.09,5.53,42.73-1.77L967.88,649.88c5.63-3.25,9-7.24,10.09-11.22l.37-.13Z"></path><ellipse class="cls-7" cx="774.89" cy="711.66" rx="27.55" ry="15.91" transform="matrix(0.5, -0.86, 0.86, 0.5, -230.57, 1021.43)"></ellipse><ellipse class="cls-8" cx="771.32" cy="709.95" rx="21.3" ry="12.3" transform="translate(-230.87 1017.5) rotate(-59.69)"></ellipse><ellipse class="cls-7" cx="931.78" cy="623.06" rx="27.55" ry="15.91" transform="translate(-76.38 1113) rotate(-59.69)"></ellipse><ellipse class="cls-8" cx="928.21" cy="621.35" rx="21.3" ry="12.3" transform="translate(-76.67 1109.07) rotate(-59.69)"></ellipse><path class="cls-2" d="M710.83,695.47,192.3,396.09c-11-6.32-9.58-17.37,3.07-24.67L409.68,248.56c12.65-7.3,31.78-8.1,42.74-1.77L971,546.16c10.95,6.33,9.58,17.37-3.07,24.68L753.56,693.69C740.92,701,721.78,701.79,710.83,695.47Z"></path><path class="cls-7" d="M725.36,658.12,260.23,389.57c-9.83-5.67-8.6-15.58,2.75-22.13l167.55-96.73c11.35-6.56,28.51-7.27,38.34-1.59L934,537.66c9.82,5.68,8.59,15.59-2.76,22.14L763.7,656.53C752.35,663.08,735.19,663.8,725.36,658.12Z"></path><path class="cls-8" d="M732.19,659.12,275.6,395.51c-9.64-5.57-9.15-15.1,1.11-21.3l151.48-91.46c10.26-6.2,26.39-6.7,36-1.13l456.6,263.61c9.64,5.57,9.14,15.1-1.11,21.3L768.23,658C758,664.19,741.84,664.69,732.19,659.12Z"></path><path class="cls-3" d="M286.57,240a6,6,0,0,1-3,5.23l-86.48,49.93a18.13,18.13,0,0,1-18.11,0L157.32,282.6a6,6,0,0,1,0-10.46l86.47-49.93a18.15,18.15,0,0,1,18.12,0l21.64,12.54A6,6,0,0,1,286.57,240Z"></path><path class="cls-9" d="M310.59,300.64l-38.92-.07c-3.88,0-5.84-2.72-3.1-4.3L280,289.66l-73-42.13c-1.7-1-1.71-2.58,0-3.56l9.77-5.64a6.79,6.79,0,0,1,6.16,0l73,42.13,11.44-6.6c2.73-1.58,7.43-.45,7.44,1.79l.12,22.47C314.94,299.52,313,300.64,310.59,300.64Z"></path><path class="cls-9" d="M866.16,764.79l-38.92-.07c-3.88,0-5.84-2.72-3.1-4.3l11.44-6.61-73-42.13c-1.71-1-1.72-2.58,0-3.56l9.77-5.64a6.79,6.79,0,0,1,6.16,0l73,42.13,11.44-6.6c2.73-1.58,7.43-.45,7.44,1.79l.12,22.47C870.51,763.67,868.57,764.79,866.16,764.79Z"></path><path class="cls-9" d="M1022.24,678.09,983.32,678c-3.88,0-5.84-2.72-3.1-4.3l11.44-6.6-73-42.14c-1.71-1-1.72-2.58,0-3.56l9.77-5.64a6.79,6.79,0,0,1,6.16,0l73,42.14,11.44-6.61c2.73-1.58,7.43-.45,7.44,1.79l.12,22.47C1026.59,677,1024.65,678.09,1022.24,678.09Z"></path><path class="cls-3" d="M1236.8,759.32a5.19,5.19,0,0,1-2.62,4.54l-24.39,14.08-62.55,36.11a12.19,12.19,0,0,1-12.22,0l-62.55-36.12-24.4-14.08a5.23,5.23,0,0,1,0-9.07l87-50.2a12.23,12.23,0,0,1,12.22,0l86.94,50.2A5.17,5.17,0,0,1,1236.8,759.32Z"></path><path class="cls-10" d="M1235.82,702.94v37.25a5.18,5.18,0,0,1-2.62,4.53l-87,50.2a12.23,12.23,0,0,1-12.22,0l-86.94-50.2a5.18,5.18,0,0,1-2.62-4.53V702.94a5.16,5.16,0,0,0,2.62,4.53l24.39,14.09L1134,757.68a12.23,12.23,0,0,0,12.22,0l62.55-36.11,24.4-14.09A5.17,5.17,0,0,0,1235.82,702.94Z"></path><path class="cls-11" d="M1235.82,702.94a5.17,5.17,0,0,1-2.62,4.54l-24.4,14.09-62.55,36.11a12.23,12.23,0,0,1-12.22,0l-62.55-36.12-24.39-14.09a5.23,5.23,0,0,1,0-9.07L1134,648.21a12.19,12.19,0,0,1,12.22,0l87,50.19A5.19,5.19,0,0,1,1235.82,702.94Z"></path><path class="cls-12" d="M1249.22,667.92V708a6.64,6.64,0,0,1-3.34,5.79l-95.71,55.26a20,20,0,0,1-20.05,0l-95.71-55.26a6.63,6.63,0,0,1-3.35-5.79v-40.1a6.64,6.64,0,0,0,3.35,5.8L1130.12,729a20.06,20.06,0,0,0,20.05,0l95.71-55.24a6.64,6.64,0,0,0,3.33-5.8Z"></path><path class="cls-11" d="M1249.21,667.92a6.64,6.64,0,0,1-3.33,5.8L1150.17,729a20.06,20.06,0,0,1-20.05,0l-95.71-55.24a6.69,6.69,0,0,1,0-11.59l95.71-55.26a20.06,20.06,0,0,1,20.05,0l95.71,55.26A6.63,6.63,0,0,1,1249.21,667.92Z"></path><path class="cls-13" d="M1231.9,667.18a5.54,5.54,0,0,1-2.77,4.83l-79.87,46.1a16.72,16.72,0,0,1-16.73,0L1052.66,672a5.58,5.58,0,0,1,0-9.67l79.87-46.11a16.72,16.72,0,0,1,16.73,0l79.87,46.11A5.55,5.55,0,0,1,1231.9,667.18Z"></path><path class="cls-14" d="M1231.75,667.21A5.54,5.54,0,0,1,1229,672l-1.29.75-77.88-45a16.72,16.72,0,0,0-16.73,0l-78.59,45.37-2-1.15a5.58,5.58,0,0,1,0-9.66l79.87-46.12a16.72,16.72,0,0,1,16.73,0L1229,662.38A5.52,5.52,0,0,1,1231.75,667.21Z"></path><path class="cls-3" d="M1045.43,874.09a5.22,5.22,0,0,1-2.62,4.54l-24.4,14.08-62.55,36.11a12.19,12.19,0,0,1-12.22,0l-62.55-36.11L856.7,878.62a5.23,5.23,0,0,1,0-9.07l86.94-50.2a12.23,12.23,0,0,1,12.22,0l86.95,50.2A5.19,5.19,0,0,1,1045.43,874.09Z"></path><path class="cls-15" d="M1048.28,817.31v37.25a5.18,5.18,0,0,1-2.62,4.53l-86.94,50.2a12.23,12.23,0,0,1-12.22,0l-87-50.2a5.2,5.2,0,0,1-2.62-4.53V817.31a5.18,5.18,0,0,0,2.62,4.53L884,835.93l62.55,36.12a12.23,12.23,0,0,0,12.22,0l62.55-36.11,24.39-14.09A5.17,5.17,0,0,0,1048.28,817.31Z"></path><path class="cls-11" d="M1048.28,817.31a5.17,5.17,0,0,1-2.62,4.54l-24.39,14.09-62.55,36.11a12.23,12.23,0,0,1-12.22,0L884,835.93l-24.4-14.09a5.23,5.23,0,0,1,0-9.07l87-50.2a12.23,12.23,0,0,1,12.22,0l86.94,50.2A5.19,5.19,0,0,1,1048.28,817.31Z"></path><path class="cls-16" d="M1061.69,782.29v40.1a6.64,6.64,0,0,1-3.34,5.79l-95.72,55.26a20,20,0,0,1-20,0l-95.71-55.26a6.64,6.64,0,0,1-3.34-5.79v-40.1a6.63,6.63,0,0,0,3.34,5.79l95.71,55.25a20.06,20.06,0,0,0,20,0l95.72-55.25a6.61,6.61,0,0,0,3.32-5.79Z"></path><path class="cls-11" d="M1061.67,782.29a6.61,6.61,0,0,1-3.32,5.79l-95.72,55.25a20.06,20.06,0,0,1-20,0l-95.71-55.25a6.69,6.69,0,0,1,0-11.58l95.71-55.26a20.06,20.06,0,0,1,20,0l95.72,55.26A6.62,6.62,0,0,1,1061.67,782.29Z"></path><path class="cls-13" d="M1044.37,781.55a5.53,5.53,0,0,1-2.78,4.83l-79.87,46.1a16.72,16.72,0,0,1-16.73,0l-79.87-46.1a5.58,5.58,0,0,1,0-9.67L945,730.6a16.72,16.72,0,0,1,16.73,0l79.87,46.11A5.54,5.54,0,0,1,1044.37,781.55Z"></path><path class="cls-14" d="M1044.21,781.57a5.55,5.55,0,0,1-2.77,4.84l-1.29.74-77.88-45a16.72,16.72,0,0,0-16.73,0L867,787.56l-2-1.15a5.58,5.58,0,0,1,0-9.67l79.87-46.11a16.72,16.72,0,0,1,16.73,0l79.87,46.11A5.54,5.54,0,0,1,1044.21,781.57Z"></path><path class="cls-17" d="M287.48,164.09v51.34a6,6,0,0,1-3,5.23L198,270.58a18.13,18.13,0,0,1-18.11,0l-21.64-12.53a6,6,0,0,1-2.26-2.29,6.1,6.1,0,0,1-.76-2.94V201.48a6,6,0,0,0,3,5.24l21.64,12.54a18.13,18.13,0,0,0,18.11,0l86.48-49.93A6,6,0,0,0,287.48,164.09Z"></path><path class="cls-11" d="M287.48,164.09a6,6,0,0,1-3,5.24L198,219.26a18.13,18.13,0,0,1-18.11,0l-21.64-12.54a6,6,0,0,1,0-10.46l86.47-49.93a18.15,18.15,0,0,1,18.12,0l21.64,12.54A6,6,0,0,1,287.48,164.09Z"></path><path class="cls-7" d="M276.72,168.72S195.9,214.85,195.65,215a14.35,14.35,0,0,1-13.6-.4L166,205a4.77,4.77,0,0,1,0-8.26l80.33-45.84a14.34,14.34,0,0,1,9-1.81,14.11,14.11,0,0,1,5.07,1.68l.25.13,16.08,9.57A4.77,4.77,0,0,1,276.72,168.72Z"></path><path class="cls-8" d="M266.81,174.45l-19.75,11.4-50.67,28.72a14.35,14.35,0,0,1-14.34,0l-7.15-4.27,72.38-39.7a14.3,14.3,0,0,1,14.34,0Z"></path><path class="cls-18" d="M276.72,160.46a4.77,4.77,0,0,1,0,8.26S195.9,214.85,195.65,215a14.35,14.35,0,0,1-13.6-.4L166,205a4.77,4.77,0,0,1,0-8.26"></path><path class="cls-19" d="M439.94,472.28c0,1.5.91,2.94,2.77,4L511.53,516c4.11,2.38,11.28,2.08,16-.66L594.07,477c2.44-1.4,3.76-3.18,3.92-4.89v-.62a4.89,4.89,0,0,0-2.77-3.75L526.41,428c-4.11-2.38-11.28-2.08-16,.66L443.87,467C441.27,468.54,439.94,470.45,439.94,472.28Z"></path><path class="cls-19" d="M708.6,530.46c0,1.51-.92,2.94-2.77,4L637,574.21c-4.11,2.37-11.29,2.07-16-.67l-66.51-38.4c-2.44-1.39-3.76-3.17-3.92-4.88v-.63a4.89,4.89,0,0,1,2.77-3.74l68.81-39.73c4.11-2.37,11.28-2.07,16,.66l66.51,38.4C707.27,526.72,708.6,528.64,708.6,530.46Z"></path><path class="cls-19" d="M814.39,587.37c0,1.5-.91,2.94-2.77,4L742.8,631.11c-4.11,2.38-11.28,2.08-16-.66l-66.51-38.4c-2.44-1.4-3.76-3.18-3.92-4.89v-.62a4.89,4.89,0,0,1,2.77-3.75l68.81-39.73c4.11-2.37,11.28-2.07,16,.67l66.51,38.4C813.06,583.63,814.39,585.54,814.39,587.37Z"></path><path class="cls-11" d="M495.5,286.85c0,1.5-.91,2.94-2.77,4l-68.81,39.73c-4.12,2.37-11.29,2.07-16-.67l-66.5-38.39c-2.44-1.4-3.76-3.18-3.92-4.89V286a4.86,4.86,0,0,1,2.77-3.75L409,242.54c4.12-2.37,11.29-2.07,16,.67l66.5,38.4C494.17,283.11,495.5,285,495.5,286.85Z"></path><path class="cls-19" d="M495.5,415.51c0,1.5-.91,2.94-2.77,4l-68.81,39.73c-4.12,2.37-11.29,2.07-16-.66l-66.5-38.4c-2.44-1.4-3.76-3.18-3.92-4.89v-.62a4.86,4.86,0,0,1,2.77-3.75L409,371.2c4.12-2.37,11.29-2.07,16,.67l66.5,38.4C494.17,411.77,495.5,413.68,495.5,415.51Z"></path><path class="cls-20" d="M495.17,286.53v96.8c0,1.51-.91,2.95-2.77,4l-68.82,39.73c-4.11,2.37-11.28,2.08-16-.66L341,388c-2.44-1.4-3.76-3.18-3.92-4.89v-96.8c.16,1.71,1.48,3.49,3.92,4.89l66.51,38.39c4.75,2.74,11.92,3,16,.67l68.82-39.73C494.26,289.48,495.17,288,495.17,286.53Z"></path><path class="cls-11" d="M439.94,342.07c0,1.51.91,2.95,2.77,4l68.82,39.73c4.11,2.37,11.28,2.07,16-.67l66.51-38.39c2.44-1.4,3.76-3.18,3.92-4.89v-.62a4.89,4.89,0,0,0-2.77-3.75l-68.81-39.73c-4.11-2.37-11.28-2.07-16,.67l-66.51,38.39C441.27,338.34,439.94,340.25,439.94,342.07Z"></path><path class="cls-21" d="M439.61,342.07v96.8c0,1.51.91,2.95,2.77,4l68.81,39.73c4.12,2.37,11.29,2.08,16-.66l66.5-38.41c2.44-1.39,3.76-3.17,3.92-4.88v-96.8c-.16,1.71-1.48,3.49-3.92,4.89l-66.5,38.39c-4.75,2.74-11.92,3-16,.67l-68.81-39.73C440.52,345,439.61,343.58,439.61,342.07Z"></path><path class="cls-11" d="M701.79,404.59c0,1.5-.92,2.94-2.78,4L630.2,448.33c-4.12,2.37-11.29,2.07-16-.67l-66.51-38.39c-2.44-1.4-3.76-3.18-3.92-4.89v-.62a4.89,4.89,0,0,1,2.77-3.75l68.81-39.73c4.11-2.37,11.28-2.07,16,.67l66.5,38.4C700.45,400.85,701.79,402.76,701.79,404.59Z"></path><path class="cls-22" d="M701.45,404.59v96.79c0,1.51-.91,2.95-2.77,4l-68.82,39.73c-4.11,2.37-11.28,2.08-16-.66l-66.51-38.4c-2.44-1.4-3.76-3.18-3.92-4.89v-96.8c.16,1.71,1.48,3.49,3.92,4.89l66.51,38.39c4.75,2.74,11.92,3,16,.67l68.82-39.73C700.54,407.53,701.45,406.09,701.45,404.59Z"></path><path class="cls-7" d="M606.19,471.91v41.8a3.08,3.08,0,0,1-1.4,2.6l-.29.16a3.06,3.06,0,0,1-3-.07L564.37,495a7,7,0,0,1-3.49-6.05V447.11a3.07,3.07,0,0,1,1.32-2.55l.47-.27a3,3,0,0,1,2.86.12l7.65,4.41,1.58.92,27.94,16.12A7,7,0,0,1,606.19,471.91Z"></path><path class="cls-8" d="M606.19,471.91v31l-27.94-16.12a7,7,0,0,1-3.49-6.05v-31l27.94,16.12A7,7,0,0,1,606.19,471.91Z"></path><path class="cls-7" d="M500.66,404.38v41.8a3.09,3.09,0,0,1-1.39,2.6l-.29.16a3.05,3.05,0,0,1-3-.07l-37.16-21.45a7,7,0,0,1-3.49-6.05V379.58a3.07,3.07,0,0,1,1.32-2.55l.46-.27a3.08,3.08,0,0,1,2.87.12l7.64,4.42,1.58.91,27.94,16.13A7,7,0,0,1,500.66,404.38Z"></path><path class="cls-8" d="M500.66,404.38v31L472.72,419.3a7,7,0,0,1-3.49-6.06v-31l27.94,16.13A7,7,0,0,1,500.66,404.38Z"></path><path class="cls-8" d="M163.59,260.42V245.26a1.26,1.26,0,0,1,1.89-1.09l11.59,6.6a1.25,1.25,0,0,1,.63,1.09v15.27a1.26,1.26,0,0,1-1.89,1.1l-11.59-6.72A1.25,1.25,0,0,1,163.59,260.42Z"></path><path class="cls-23" d="M293.75,472.34l3.35,21.39-.83.1c0,8.81,3.25,18.5,8.26,26.2l.84,5.43L540,667.59l11-5.27.26-.13h0c4.84-2,8-7.89,8-16.57l.83-10.31c0-14.63-8.91-31.66-19.89-38L317,468.51c-4.36-2.51-8.35-3-11.64-1.69l-1.33.65Z"></path><path class="cls-9" d="M305.18,537.09,528.31,665.92c11,6.34,19.88-.39,19.88-15l.82-10.31c0-14.64-8.89-31.64-19.87-38L306,473.78c-11-6.33-19.87.39-19.87,15l-.83,10.31C285.3,513.75,294.2,530.76,305.18,537.09Z"></path><text class="cls-24" transform="matrix(0.87, 0.5, 0, 1, 307.27, 514.99)">APIM<tspan class="cls-25" x="54.6" y="0">A</tspan><tspan x="68.44" y="0">TIC CORE ENGINE</tspan></text><path class="cls-11" d="M814.39,463.82c0,1.51-.91,2.95-2.77,4L742.8,507.57c-4.11,2.37-11.28,2.07-16-.67l-66.51-38.4c-2.44-1.39-3.76-3.17-3.92-4.88V463a4.89,4.89,0,0,1,2.77-3.75l68.81-39.73c4.11-2.37,11.28-2.07,16,.67l66.51,38.39C813.06,460.09,814.39,462,814.39,463.82Z"></path><path class="cls-26" d="M814.39,463.82v96.8c0,1.51-.91,2.94-2.77,4L742.8,604.37c-4.11,2.37-11.28,2.08-16-.66L660.26,565.3c-2.44-1.39-3.76-3.17-3.92-4.88v-96.8c.16,1.71,1.48,3.49,3.92,4.88l66.51,38.4c4.75,2.74,11.92,3,16,.67l68.82-39.73C813.48,466.77,814.39,465.33,814.39,463.82Z"></path><path class="cls-7" d="M719.12,531.15V573a3.07,3.07,0,0,1-1.39,2.6l-.29.16a3,3,0,0,1-3-.08l-37.17-21.44a7,7,0,0,1-3.49-6.06V506.34a3.06,3.06,0,0,1,1.32-2.54l.47-.27a3,3,0,0,1,2.86.12l7.65,4.41,1.58.91,27.94,16.13A7,7,0,0,1,719.12,531.15Z"></path><path class="cls-8" d="M719.12,531.15v31l-27.93-16.12a7,7,0,0,1-3.49-6V509l27.94,16.13A7,7,0,0,1,719.12,531.15Z"></path><path class="cls-7" d="M751.61,531.15V573a3.09,3.09,0,0,0,1.39,2.6l.29.16a3.06,3.06,0,0,0,3-.08l37.16-21.44a7,7,0,0,0,3.49-6.06V506.34a3.06,3.06,0,0,0-1.32-2.54l-.46-.27a3.05,3.05,0,0,0-2.87.12l-7.65,4.41L783,509,755.1,525.1A7,7,0,0,0,751.61,531.15Z"></path><path class="cls-8" d="M751.61,531.15v31l27.94-16.12a7,7,0,0,0,3.48-6V509L755.1,525.1A7,7,0,0,0,751.61,531.15Z"></path><path class="cls-23" d="M585.76,339.34h92.95a0,0,0,0,1,0,0v46.26a17,17,0,0,1-17,17H602.79a17,17,0,0,1-17-17V339.34A0,0,0,0,1,585.76,339.34Z"></path><path id="Path_9328" data-name="Path 9328" class="cls-27" d="M547.17,287.79c0,13.21-12.21,24-27.28,24s-27.32-10.69-27.32-24"></path><path id="Path_9329" data-name="Path 9329" class="cls-23" d="M495.85,299.67l22.86,22.56a2.31,2.31,0,0,0,3.23,0l22.31-22.56a2.29,2.29,0,0,0,0-3.23h0a2.34,2.34,0,0,0-1.62-.66H497.47a2.31,2.31,0,0,0-2.28,2.31A2.24,2.24,0,0,0,495.85,299.67Z"></path><path id="Path_9330" data-name="Path 9330" class="cls-9" d="M528,337.75l-11.08-11.08,28.32-28.25a2.13,2.13,0,0,1,3,0h0l8.05,8a2.18,2.18,0,0,1,0,3h0Z"></path><path id="Path_9345" data-name="Path 9345" class="cls-9" d="M523.77,326.35l-10.88,11.26-28.77-27.82a2.18,2.18,0,0,1,0-3h0l7.91-8.18a2.14,2.14,0,0,1,3,0h0Z"></path><path id="Path_9331" data-name="Path 9331" class="cls-28" d="M491.46,285.55h0c0-11.51,9.43-27.44,21-27.44h14.73c11.53,0,21,15.93,21,27.44h0"></path><circle id="Ellipse_703" data-name="Ellipse 703" class="cls-29" cx="508.53" cy="292.42" r="10.58" transform="translate(-76.59 250.68) rotate(-25.82)"></circle><circle id="Ellipse_704" data-name="Ellipse 704" class="cls-28" cx="508.53" cy="292.42" r="5.4" transform="translate(-75.11 233.41) rotate(-24.13)"></circle><circle id="Ellipse_703-2" data-name="Ellipse 703" class="cls-29" cx="531.71" cy="292.42" r="10.58" transform="translate(-74.28 260.77) rotate(-25.82)"></circle><circle id="Ellipse_704-2" data-name="Ellipse 704" class="cls-28" cx="531.71" cy="292.42" r="5.4" transform="translate(-73.08 242.89) rotate(-24.13)"></circle><path id="Rectangle_1314" data-name="Rectangle 1314" class="cls-23" d="M493.36,280.42h52.87a4.22,4.22,0,0,1,4.24,4.2v0h0a4.25,4.25,0,0,1-4.24,4.24H493.36a4.25,4.25,0,0,1-4.24-4.23h0a4.24,4.24,0,0,1,4.23-4.24Z"></path><path id="Rectangle_1317" data-name="Rectangle 1317" class="cls-27" d="M495.18,252h0a4,4,0,0,1,5.29,2l5.79,13.08a4,4,0,0,1-2.05,5.29h0a4,4,0,0,1-5.3-2.05l-5.78-13.07A4,4,0,0,1,495.18,252Z"></path><path id="Rectangle_1318" data-name="Rectangle 1318" class="cls-27" d="M532.48,267.15l5.78-13.07a4,4,0,0,1,5.29-2.05h0a4,4,0,0,1,2.05,5.28h0l-5.78,13.09a4,4,0,0,1-5.3,2h0a4,4,0,0,1-2-5.29Z"></path><circle id="Ellipse_700" data-name="Ellipse 700" class="cls-27" cx="520.42" cy="330.47" r="13.79" transform="translate(-89.62 241.6) rotate(-24.13)"></circle><path class="cls-9" d="M232.08,180.84H181.4a3.59,3.59,0,0,1-3.7-3.46V124.12a3.33,3.33,0,0,1,.9-2.26l12.85-14a3.8,3.8,0,0,1,2.81-1.21h37.82a3.6,3.6,0,0,1,3.7,3.47v67.26A3.59,3.59,0,0,1,232.08,180.84Z"></path><path class="cls-27" d="M192.56,108v13.93l-12.23.21a.92.92,0,0,1-.55-1.53l11.9-13A.51.51,0,0,1,192.56,108Z"></path><rect class="cls-11" x="185.84" y="131.26" width="32.5" height="3.41" rx="1.71"></rect><rect class="cls-11" x="185.84" y="145.86" width="35.51" height="3.41" rx="1.71"></rect><rect class="cls-11" x="185.84" y="138.41" width="39.8" height="3.41" rx="1.71"></rect><text class="cls-30" transform="translate(600.94 364.93) scale(1.01 1)">&lt;/&gt;</text><path class="cls-27" d="M595.53,329.58h73.41a9.77,9.77,0,0,1,9.77,9.77v0a0,0,0,0,1,0,0H585.76a0,0,0,0,1,0,0v0A9.77,9.77,0,0,1,595.53,329.58Z"></path><rect class="cls-11" x="600.94" y="372.42" width="55.75" height="3.21" rx="1.6"></rect><rect class="cls-11" x="600.94" y="380.5" width="55.75" height="3.21" rx="1.6"></rect><rect class="cls-11" x="600.94" y="388.58" width="55.75" height="3.21" rx="1.6"></rect><path class="cls-23" d="M769.27,410.74h0c2.38.8,3.5,3.86,2.5,6.83L755.58,460c-1,3-3,5-4.39,4.51h0c-1.42-.48-1.77-3.28-.77-6.25l12.74-43.62C764.16,411.7,766.89,409.94,769.27,410.74Z"></path><path class="cls-9" d="M781.17,416l-.12-.11a7.53,7.53,0,0,1,1-12.05c3.61-2.22,7.6-5.8,6.38-10.35-1.72-6.35-8.49-25.19-35.27-23.15a47.22,47.22,0,0,0-39,26.1c-5.71,11.67-6.68,25.74,13,34.61a53.88,53.88,0,0,0,35.9,2.77c6.93-1.82,14.27-4.89,18.72-10A5.54,5.54,0,0,0,781.17,416Zm-16.51,5.44a6.81,6.81,0,1,1,8.62-4.29A6.81,6.81,0,0,1,764.66,421.47Z"></path><polyline class="cls-23" points="763.31 414.29 777.51 375.52 783.49 377.53 771.97 416.77"></polyline><path class="cls-27" d="M783.49,377.53l-6-2L782,363.19a13.44,13.44,0,0,1,.5-1.27l5,1.69a11.15,11.15,0,0,1-.36,1.31Z"></path><path class="cls-23" d="M784.7,363.3a6.1,6.1,0,0,1-4.14-3.95,9.31,9.31,0,0,1,.66-6.24c1.54-3.79,7.59-7.37,10.84-9.07a.39.39,0,0,1,.47.61c-4.63,5.11-2.62,7.17-1.09,9.65a6.09,6.09,0,0,1,1.14,3.66A5.87,5.87,0,0,1,784.7,363.3Z"></path><path class="cls-9" d="M791.44,354.3c-1.43,1.41-3.06,2.24-4.52,1.12-2.77-2.11-5.27,1.82-6.36,3.93a9.31,9.31,0,0,1,.66-6.24c1.54-3.79,7.59-7.37,10.84-9.07a.39.39,0,0,1,.47.61C787.9,349.76,789.91,351.82,791.44,354.3Z"></path><ellipse class="cls-11" cx="753.56" cy="382.65" rx="4.6" ry="6.12" transform="translate(279.61 1082.4) rotate(-82.81)"></ellipse><ellipse class="cls-11" cx="736.97" cy="389.83" rx="4.6" ry="6.12" transform="translate(257.97 1072.21) rotate(-82.81)"></ellipse><ellipse class="cls-11" cx="726.79" cy="402.36" rx="4.6" ry="6.12" transform="translate(236.63 1073.08) rotate(-82.81)"></ellipse><ellipse class="cls-11" cx="730.84" cy="419.13" rx="4.6" ry="6.12" transform="translate(223.54 1091.77) rotate(-82.81)"></ellipse><circle class="cls-23" cx="942.67" cy="738.35" r="20.97"></circle><path class="cls-9" d="M985.77,712.82A48.33,48.33,0,0,0,951.34,690a1.22,1.22,0,0,1-1-1.35l1.35-11.47a1.22,1.22,0,0,1,1.38-1.07,62.22,62.22,0,0,1,44.85,29.78,1.23,1.23,0,0,1-.44,1.69l-10,5.71A1.21,1.21,0,0,1,985.77,712.82Z"></path><path class="cls-9" d="M976.64,712.89,997.79,731a1.21,1.21,0,0,0,2-.7l5.13-27.38a1.22,1.22,0,0,0-1.6-1.37L977,710.82A1.21,1.21,0,0,0,976.64,712.89Z"></path><path class="cls-9" d="M895.39,732.29l-11.48-1.24a1.2,1.2,0,0,1-1.08-1.35,62.16,62.16,0,0,1,32-46.69,1.21,1.21,0,0,1,1.66.51l5.32,10.25a1.23,1.23,0,0,1-.5,1.63,48.06,48.06,0,0,0-24.55,35.83A1.22,1.22,0,0,1,895.39,732.29Z"></path><path class="cls-9" d="M921,704.52l18.94-20.42a1.21,1.21,0,0,0-.62-2l-27.15-6.21a1.22,1.22,0,0,0-1.43,1.55L919,704.05A1.22,1.22,0,0,0,921,704.52Z"></path><path class="cls-9" d="M936.92,799.32a62.11,62.11,0,0,1-46.48-31,1.23,1.23,0,0,1,.48-1.67l10.15-5.51a1.22,1.22,0,0,1,1.64.46,48.13,48.13,0,0,0,35.66,23.78,1.21,1.21,0,0,1,1.06,1.32l-1.16,11.5A1.22,1.22,0,0,1,936.92,799.32Z"></path><path class="cls-9" d="M911.83,761.73l-20.78-18.54a1.23,1.23,0,0,0-2,.66l-5.67,27.27a1.22,1.22,0,0,0,1.58,1.4l26.45-8.72A1.22,1.22,0,0,0,911.83,761.73Z"></path><path class="cls-9" d="M973.75,791.06l-5.56-10.13a1.21,1.21,0,0,1,.47-1.64,48.08,48.08,0,0,0,23.65-36,1.22,1.22,0,0,1,1.32-1.08l11.51,1a1.22,1.22,0,0,1,1.09,1.35,62,62,0,0,1-10,27.42,62.59,62.59,0,0,1-20.82,19.51A1.22,1.22,0,0,1,973.75,791.06Z"></path><path class="cls-9" d="M968.72,770.17,950.26,791a1.22,1.22,0,0,0,.67,2l27.29,5.56a1.22,1.22,0,0,0,1.4-1.58l-8.84-26.42A1.21,1.21,0,0,0,968.72,770.17Z"></path><path class="cls-9" d="M1185.4,583.8v5.1H1059.82v-5.1a7.74,7.74,0,0,1,7.75-7.74h110.09A7.74,7.74,0,0,1,1185.4,583.8Z"></path><path class="cls-11" d="M1185.4,588.9v79.36a4.14,4.14,0,0,1-4.14,4.14H1064a4.14,4.14,0,0,1-4.14-4.14V588.9Z"></path><rect class="cls-31" x="1102.18" y="597.95" width="77.89" height="64.18" rx="7.48"></rect><rect class="cls-9" x="1065.94" y="597.95" width="29.16" height="4.62" rx="2.31"></rect><rect class="cls-9" x="1065.94" y="625.04" width="29.16" height="4.62" rx="2.31"></rect><rect class="cls-31" x="1065.94" y="632.79" width="29.16" height="4.82" rx="1.37"></rect><rect class="cls-31" x="1065.94" y="641.48" width="29.16" height="4.82" rx="1.37"></rect><rect class="cls-31" x="1065.94" y="606.53" width="29.16" height="4.82" rx="1.37"></rect><rect class="cls-11" x="1065.94" y="615.23" width="29.16" height="4.82" rx="1.37"></rect><rect class="cls-9" x="1066.19" y="655.3" width="28.89" height="6.83" rx="3.41"></rect><path class="cls-9" d="M1225.23,663.75a19.36,19.36,0,0,1-.7,1.93,13.73,13.73,0,0,1-14,8.67v0h-43a15.55,15.55,0,0,1-12.36-5.15L1155,669l-.2-.24c-.31-.36-.59-.73-.86-1.11l-.27-.38c-.19-.29-.38-.58-.55-.87l-.25-.44s0-.08-.07-.13l-.17-.31c-.08-.15-.16-.3-.23-.45l-.18-.39a20.82,20.82,0,0,1-.93-2.42c-2.08-6.79-.5-14.75,5.72-19.19a6.56,6.56,0,0,0,2-2.24,6.11,6.11,0,0,0,.7-2.89c-.05-9.36,6.49-16.05,14.4-18.6s17.2-1,22.62,6.23a6.39,6.39,0,0,0,2.76,2.11,5.76,5.76,0,0,0,3.44.25,11.47,11.47,0,0,1,10.29,2.91l.38.36.27.28.12.13c.1.1.19.21.29.32l0,0c.11.13.22.26.32.4s.22.28.33.42l.3.43.28.44c.09.15.18.3.26.45a10.72,10.72,0,0,1,1.29,6.71,5.52,5.52,0,0,0,.58,3.33,6.93,6.93,0,0,0,2.3,2.58,14.07,14.07,0,0,1,5.94,10.68A17.38,17.38,0,0,1,1225.23,663.75Z"></path><path class="cls-32" d="M1217.44,657a5,5,0,0,0-3.55-1.47,4.47,4.47,0,0,0-.82.07l-2.12-5.51-2.11-5.46a5.17,5.17,0,0,0,1.29-.93,5,5,0,1,0-8.26-5.25l-9.16-1.45-7.29-1.15q0-.36,0-.72a6.85,6.85,0,1,0-11.69,4.85,7.06,7.06,0,0,0,.83.71l-2.94,5.82-3.1,6.14a6.53,6.53,0,0,0-2.43-.47,6.47,6.47,0,1,0,6.21,8.27q2.81.22,5.62.39c4,.23,8,.4,12,.48,2,0,4,.07,6,.07s4,0,6-.13l6-.18,1,0a5,5,0,1,0,8.54-4.05Zm-44.37-9.73,3.18-5.7a6.83,6.83,0,0,0,7.2-1.59,6.93,6.93,0,0,0,1.79-3.15l7.24,1.46,9.09,1.82v0a5.18,5.18,0,0,0,.3,1.72q-7.44,4.38-15.27,8.07-7.14,3.35-14.56,6.1a6.52,6.52,0,0,0-1.35-2,6.88,6.88,0,0,0-1-.8Zm34.84,12.87-6,0c-2,0-4,0-6-.1s-4-.18-6-.29q-6-.35-11.89-.93c-1.85-.18-3.7-.37-5.54-.59a6.16,6.16,0,0,0-.16-1.06q7.52-2.61,14.8-5.84,8-3.54,15.61-7.82l.22.24a5,5,0,0,0,3.54,1.47,5.11,5.11,0,0,0,1.11-.13l1.84,5.56,1.86,5.6a5.05,5.05,0,0,0-1,.8,5,5,0,0,0-1.45,3.14Z"></path><path class="cls-31" d="M435.74,277.72H384.09a3.66,3.66,0,0,1-3.77-3.53V219.91a3.39,3.39,0,0,1,.91-2.3l13.1-14.27a3.87,3.87,0,0,1,2.86-1.23h38.55a3.66,3.66,0,0,1,3.77,3.53v68.55A3.66,3.66,0,0,1,435.74,277.72Z"></path><path class="cls-9" d="M447.8,288.71H396.15a3.66,3.66,0,0,1-3.78-3.53V230.9a3.4,3.4,0,0,1,.92-2.3l13.09-14.27a3.89,3.89,0,0,1,2.86-1.23H447.8a3.66,3.66,0,0,1,3.77,3.53v68.55A3.66,3.66,0,0,1,447.8,288.71Z"></path><path class="cls-27" d="M407.51,213.92v15.49a.32.32,0,0,1-.32.32l-13.86-.24a.32.32,0,0,1-.23-.53L407,213.71A.31.31,0,0,1,407.51,213.92Z"></path><rect class="cls-11" x="400.67" y="238.18" width="43.98" height="3.48" rx="1.74"></rect><rect class="cls-11" x="400.67" y="245.48" width="43.98" height="3.48" rx="1.74"></rect><rect class="cls-11" x="400.67" y="252.78" width="43.98" height="3.48" rx="1.74"></rect><rect class="cls-11" x="400.67" y="260.08" width="43.98" height="3.48" rx="1.74"></rect><rect class="cls-11" x="400.67" y="267.38" width="43.98" height="3.48" rx="1.74"></rect><path class="cls-23" d="M367.23,279.06a1.37,1.37,0,0,0,1.17,1.33l2.25.34a1.38,1.38,0,0,1,1,.65l3.16,5.25a1.38,1.38,0,0,1,.11,1.17l-.77,2.15a1.37,1.37,0,0,0,.63,1.66l1.79,1a1.36,1.36,0,0,0,1.74-.34l1.42-1.74a1.35,1.35,0,0,1,1-.51l6.14-.11a1.43,1.43,0,0,1,1.08.49l1.48,1.77a1.37,1.37,0,0,0,1.74.31l1.79-1.05a1.37,1.37,0,0,0,.59-1.67l-.79-2.07a1.4,1.4,0,0,1,.08-1.15l3.13-5.62a1.38,1.38,0,0,1,.94-.69l2.23-.42a1.38,1.38,0,0,0,1.12-1.37l0-2.06a1.38,1.38,0,0,0-1.17-1.33l-2.25-.34a1.38,1.38,0,0,1-1-.65l-3.16-5.26a1.38,1.38,0,0,1-.12-1.17l.77-2.14a1.35,1.35,0,0,0-.62-1.66l-1.8-1a1.37,1.37,0,0,0-1.74.33l-1.41,1.75a1.36,1.36,0,0,1-1,.51l-6.14.11a1.43,1.43,0,0,1-1.08-.49L378,263.27a1.37,1.37,0,0,0-1.74-.31L374.49,264a1.36,1.36,0,0,0-.59,1.67l.78,2.07a1.33,1.33,0,0,1-.08,1.15l-3.12,5.62a1.38,1.38,0,0,1-1,.69l-2.22.42a1.37,1.37,0,0,0-1.12,1.37Zm16.51-7a5.66,5.66,0,1,1-5.66,5.86A5.68,5.68,0,0,1,383.74,272.07Z"></path><path class="cls-9" d="M566.18,390.4a1.2,1.2,0,0,0,1,1.17l2,.3a1.26,1.26,0,0,1,.86.58l2.79,4.65a1.17,1.17,0,0,1,.1,1l-.68,1.9a1.22,1.22,0,0,0,.55,1.47l1.59.89a1.22,1.22,0,0,0,1.54-.3l1.25-1.54a1.19,1.19,0,0,1,.92-.45l5.43-.1a1.23,1.23,0,0,1,1,.44l1.32,1.56a1.2,1.2,0,0,0,1.54.27l1.57-.92a1.22,1.22,0,0,0,.53-1.48l-.7-1.83a1.21,1.21,0,0,1,.07-1l2.77-5a1.21,1.21,0,0,1,.83-.61l2-.37a1.21,1.21,0,0,0,1-1.21l0-1.82a1.22,1.22,0,0,0-1-1.18l-2-.3a1.2,1.2,0,0,1-.86-.57l-2.79-4.65a1.17,1.17,0,0,1-.1-1l.68-1.9a1.22,1.22,0,0,0-.55-1.47l-1.6-.89a1.2,1.2,0,0,0-1.53.29l-1.25,1.55a1.22,1.22,0,0,1-.92.45l-5.43.09a1.19,1.19,0,0,1-1-.43l-1.32-1.56a1.2,1.2,0,0,0-1.54-.27l-1.57.92a1.22,1.22,0,0,0-.53,1.48l.7,1.83a1.22,1.22,0,0,1-.07,1l-2.76,5a1.26,1.26,0,0,1-.84.6l-2,.37a1.22,1.22,0,0,0-1,1.22Zm14.59-6.18a5,5,0,1,1-5,5.18A5,5,0,0,1,580.77,384.22Z"></path><rect class="cls-9" x="740.13" y="267.89" width="149.5" height="40.58" rx="17.04"></rect><text class="cls-33" transform="translate(770.65 295.82) scale(1.01 1)">DESIGNER</text><rect class="cls-9" x="1058.75" y="731.72" width="164.75" height="44.72" rx="17.04"></rect><rect class="cls-9" x="845.8" y="846.02" width="220.39" height="46.97" rx="19.16"></rect><text class="cls-34" transform="translate(1082.2 762.49) scale(1.01 1)">API PO<tspan class="cls-35" x="63.26" y="0">R</tspan><tspan class="cls-36" x="76.31" y="0">T</tspan><tspan x="86.97" y="0">A</tspan><tspan class="cls-37" x="100.62" y="0">L</tspan></text><text class="cls-38" transform="translate(869.63 866.91) scale(1.01 1)">CODE GENER<tspan class="cls-39" x="113.87" y="0">A</tspan><tspan class="cls-40" x="125.37" y="0">TION </tspan><tspan class="cls-41" x="25.34" y="17.13">A</tspan><tspan x="37.9" y="17.13">S</tspan><tspan class="cls-42" x="49.72" y="17.13" xml:space="preserve"> A</tspan><tspan class="cls-40" x="65.38" y="17.13" xml:space="preserve"> SE</tspan><tspan class="cls-43" x="92.38" y="17.13">R</tspan><tspan x="104.3" y="17.13">VICE</tspan></text><rect class="cls-9" x="611.63" y="208.58" width="181.01" height="40.9" rx="17.04"></rect><text class="cls-44" transform="translate(628.83 236.72) scale(1.01 1)">DOC GENER<tspan class="cls-45" x="100.32" y="0">A</tspan><tspan class="cls-46" x="111.57" y="0">T</tspan><tspan class="cls-47" x="122.37" y="0">OR</tspan></text><rect class="cls-9" x="503.12" y="149.03" width="175.58" height="41.46" rx="17.04"></rect><text class="cls-48" transform="translate(523.02 177.56) scale(1.01 1)">TRANS<tspan class="cls-49" x="60.45" y="0">F</tspan><tspan x="71.29" y="0">ORMER</tspan></text><rect class="cls-9" x="379.12" y="89.36" width="209.73" height="40.47" rx="17.04"></rect><text class="cls-50" transform="translate(403.83 117.21) scale(1.01 1)">CODE GENER<tspan class="cls-51" x="110.3" y="0">A</tspan><tspan class="cls-52" x="121.44" y="0">T</tspan><tspan x="132.12" y="0">OR</tspan></text><rect class="cls-9" x="117.41" width="231.3" height="44.64" rx="17.04"></rect><text class="cls-53" transform="translate(140.63 28.6) scale(1.01 1)">API SP<tspan class="cls-54" x="62.21" y="0">E</tspan><tspan x="74.27" y="0">CIFI</tspan><tspan class="cls-55" x="111.73" y="0">C</tspan><tspan class="cls-56" x="124.93" y="0">A</tspan><tspan class="cls-57" x="137.2" y="0">TION</tspan></text><text class="cls-58" transform="translate(185.83 165.54) scale(1.01 1)">API SP<tspan class="cls-59" x="30.45" y="0">E</tspan><tspan x="36.35" y="0">C</tspan></text><circle class="cls-5" cx="205.74" cy="84.95" r="3.58"></circle></g></g></g></svg>