<svg xmlns:inkscape="http://www.inkscape.org/namespaces/inkscape" xmlns:sodipodi="http://sodipodi.sourceforge.net/DTD/sodipodi-0.dtd" xmlns="http://www.w3.org/2000/svg" xmlns:svg="http://www.w3.org/2000/svg" id="Layer_1" data-name="Layer 1" viewBox="0 0 783.37 468.87" sodipodi:docname="Feature Page-_Transformer.svg" inkscape:version="1.1.1 (3bf5ae0d25, 2021-09-20)"><defs id="defs7"><style id="style2">.cls-1{fill:#f0f7ff;}.cls-2{clip-path:url(#clip-path);}.cls-3{fill:#d9dee5;}.cls-4{fill:#b6c6d6;}.cls-5{fill:#f8fafc;}.cls-6{fill:#9dc7f2;}.cls-7{fill:#2e2e76;}.cls-8{fill:#0c7ff2;}.cls-9{fill:#0062ff;}.cls-10{fill:#f5f5f5;}</style><clipPath id="clip-path"><path class="cls-1" d="M974.42-432.11,233.13-859c-7.75-4.49-13.43-3.14-18.86.85q-8.93,5.11-17.73,10.46-47.73,28-95.35,56.17-15.57,9-31,18.29c-10.2,5.61-18.27,8.91-18.05,24.84h0c0,17.38,10.57,37.58,23.61,45.11L817-276.4c11.67,7.15,18.59-1.19,27.73-6.07q49.95-29.28,99.78-58.8,17.79-10.32,35.48-20.9c10.2-5.6,18.27-8.91,18-24.83h0C998-404.39,987.46-424.58,974.42-432.11Z" id="path4"></path></clipPath></defs><path class="cls-1" d="M974.42-432.11,233.13-859c-7.75-4.49-13.43-3.14-18.86.85q-8.93,5.11-17.73,10.46-47.73,28-95.35,56.17-15.57,9-31,18.29c-10.2,5.61-18.27,8.91-18.05,24.84h0c0,17.38,10.57,37.58,23.61,45.11L817-276.4c11.67,7.15,18.59-1.19,27.73-6.07q49.95-29.28,99.78-58.8,17.79-10.32,35.48-20.9c10.2-5.6,18.27-8.91,18-24.83h0C998-404.39,987.46-424.58,974.42-432.11Z" id="path9"></path><g class="cls-2" clip-path="url(#clip-path)" id="g15"><polygon class="cls-3" points="1517.99 -461.56 718.06 11.41 693.2 -2.6 1493.13 -475.58 1517.99 -461.56" id="polygon11"></polygon><polygon class="cls-4" points="1522.46 -459.05 722.53 13.93 697.66 -0.09 1497.59 -473.06 1522.46 -459.05" id="polygon13"></polygon></g><g id="rect201" style="fill:#e6e6e6;fill-opacity:1"><rect class="cls-5" width="783.37" height="468.87" id="rect17" style="fill:#e6e6e6;fill-opacity:1"></rect></g><g id="Path_9328" data-name="Path 9328"><path class="cls-6" d="M508.16,190.52c0,57-52.7,103.35-117.68,103.35S272.62,247.78,272.62,190.52" id="path20"></path></g><g id="Path_9329" data-name="Path 9329"><path class="cls-7" d="M286.79,241.77l98.58,97.33a10,10,0,0,0,13.94,0l96.24-97.33a9.85,9.85,0,0,0,0-13.93l0,0a10.05,10.05,0,0,0-7-2.81H293.74a9.92,9.92,0,0,0-9.82,10A9.7,9.7,0,0,0,286.79,241.77Z" id="path23"></path></g><g id="Path_9330" data-name="Path 9330"><path class="cls-8" d="M425.22,406l-47.79-47.79L499.59,236.38a9.28,9.28,0,0,1,12.89,0h0l34.68,34.69a9.29,9.29,0,0,1,0,12.93h0Z" id="path26"></path></g><g id="Path_9345" data-name="Path 9345"><path class="cls-8" d="M407.21,356.88l-47,48.55-124.06-120a9.35,9.35,0,0,1,0-12.93h0l34.12-35.28a9.2,9.2,0,0,1,12.93,0h0Z" id="path29"></path></g><g id="Path_9331" data-name="Path 9331"><path class="cls-9" d="M267.82,180.86h0c0-49.65,40.7-118.37,90.43-118.37h63.53c49.74,0,90.44,68.72,90.44,118.37h0" id="path32"></path></g><g id="Ellipse_703" data-name="Ellipse 703"><circle class="cls-10" cx="341.45" cy="210.51" r="45.62" transform="translate(-59.2 230.06) rotate(-34.45)" id="circle35"></circle></g><g id="Ellipse_704" data-name="Ellipse 704"><circle class="cls-9" cx="341.45" cy="210.51" r="23.3" transform="translate(-59.52 221.48) rotate(-33.22)" id="circle38"></circle></g><g id="Ellipse_703-2" data-name="Ellipse 703"><circle class="cls-10" cx="441.44" cy="210.51" r="45.62" transform="matrix(0.82, -0.57, 0.57, 0.82, -41.66, 286.62)" id="circle41"></circle></g><g id="Ellipse_704-2" data-name="Ellipse 704"><circle class="cls-9" cx="441.44" cy="210.51" r="23.3" transform="translate(-43.18 276.26) rotate(-33.22)" id="circle44"></circle></g><g id="Rectangle_1314" data-name="Rectangle 1314"><path class="cls-7" d="M276,158.72h228a18.23,18.23,0,0,1,18.29,18.15V177h0a18.29,18.29,0,0,1-18.29,18.26H276a18.27,18.27,0,0,1-18.29-18.24v0h0A18.26,18.26,0,0,1,276,158.75H276Z" id="path47"></path></g><g id="Rectangle_1317" data-name="Rectangle 1317"><path class="cls-6" d="M283.87,36.22h0a17.32,17.32,0,0,1,22.84,8.83l25,56.38a17.31,17.31,0,0,1-8.83,22.84h0A17.31,17.31,0,0,1,300,115.45L275,59.07A17.32,17.32,0,0,1,283.87,36.22Z" id="path50"></path></g><g id="Rectangle_1318" data-name="Rectangle 1318"><path class="cls-6" d="M444.76,101.52l25-56.4a17.29,17.29,0,0,1,22.8-8.83h0a17.29,17.29,0,0,1,8.82,22.8h0l-24.95,56.43a17.31,17.31,0,0,1-22.83,8.85h0a17.35,17.35,0,0,1-8.83-22.85Z" id="path53"></path></g><g id="Ellipse_700" data-name="Ellipse 700"><circle class="cls-6" cx="392.76" cy="374.63" r="59.5" transform="translate(-141.06 276.41) rotate(-33.22)" id="circle56"></circle></g></svg>