<svg xmlns="http://www.w3.org/2000/svg" viewBox="0 0 741.76 400.3"><defs><style>.cls-1{fill:#2e2e76;}.cls-2{fill:#0c7ff2;}.cls-3{fill:#cee0f2;}</style></defs><g id="Layer_2" data-name="Layer 2"><g id="Layer_1-2" data-name="Layer 1"><path class="cls-1" d="M355.7,154.07c-72,0-98.1,50.19-104.42,120.57a15.12,15.12,0,0,1,3.58-.43h10.91a15.32,15.32,0,0,1,5.92,1.17c5.9-59.45,23-105.9,84-105.9,60.76,0,77.71,46.06,83.94,105.16a15.29,15.29,0,0,1,3.6-.43h10.92a15.26,15.26,0,0,1,6,1.22C454.24,204.68,428,154.07,355.7,154.07Z"></path><path class="cls-2" d="M741.76,277.7v28c0,11.76-10,21.29-22.37,21.29H534.62c-12.35,0-22.37-9.53-22.37-21.29V302.4l-26.62-10.34,26.62-9.75V277.7c0-11.76,10-21.29,22.37-21.29H719.39C731.75,256.41,741.76,265.94,741.76,277.7Z"></path><polygon class="cls-3" points="556.16 276.43 560.73 285.68 570.93 287.16 563.55 294.36 565.29 304.53 556.16 299.73 547.03 304.53 548.77 294.36 541.39 287.16 551.6 285.68 556.16 276.43"></polygon><polygon class="cls-3" points="590.01 276.43 594.58 285.68 604.79 287.16 597.4 294.36 599.14 304.53 590.01 299.73 580.88 304.53 582.63 294.36 575.24 287.16 585.45 285.68 590.01 276.43"></polygon><polygon class="cls-3" points="623.87 276.43 628.43 285.68 638.64 287.16 631.25 294.36 633 304.53 623.87 299.73 614.73 304.53 616.48 294.36 609.09 287.16 619.3 285.68 623.87 276.43"></polygon><polygon class="cls-3" points="657.72 276.43 662.28 285.68 672.49 287.16 665.1 294.36 666.85 304.53 657.72 299.73 648.59 304.53 650.33 294.36 642.94 287.16 653.15 285.68 657.72 276.43"></polygon><polygon class="cls-3" points="691.57 276.43 696.13 285.68 706.34 287.16 698.96 294.36 700.7 304.53 691.57 299.73 682.44 304.53 684.18 294.36 676.79 287.16 687 285.68 691.57 276.43"></polygon><path class="cls-2" d="M609,14.62v90.3a13,13,0,0,1-13,13H478.82L440,156.81V118h0a13,13,0,0,1-13.05-13V14.62A13.05,13.05,0,0,1,440,1.57H596A13.05,13.05,0,0,1,609,14.62Z"></path><circle class="cls-3" cx="472.5" cy="61.23" r="16.37"></circle><circle class="cls-3" cx="512.97" cy="61.23" r="16.37"></circle><circle class="cls-3" cx="552.68" cy="61.23" r="16.37"></circle><path class="cls-2" d="M229.27,243.56l-12.82,12.81v2.87a28.37,28.37,0,0,1-28.36,28.37H28.36A28.37,28.37,0,0,1,0,259.24V28.36A28.36,28.36,0,0,1,28.36,0H188.09a28.36,28.36,0,0,1,28.36,28.36V230.74Z"></path><circle class="cls-3" cx="48.03" cy="85.9" r="21.27"></circle><circle class="cls-3" cx="174.34" cy="153.93" r="21.27"></circle><circle class="cls-3" cx="45.67" cy="218.4" r="21.27"></circle><rect class="cls-3" x="32.54" y="142.11" width="112.27" height="7.64" rx="2.31"></rect><rect class="cls-3" x="32.54" y="157.25" width="112.27" height="7.64" rx="2.31"></rect><rect class="cls-3" x="80.69" y="75.37" width="112.27" height="7.64" rx="2.31"></rect><rect class="cls-3" x="80.69" y="90.52" width="112.27" height="7.64" rx="2.31"></rect><rect class="cls-3" x="80.69" y="207.01" width="112.27" height="7.64" rx="2.31"></rect><rect class="cls-3" x="80.69" y="222.16" width="112.27" height="7.64" rx="2.31"></rect><path class="cls-2" d="M344,154.07c-66.82,0-89.84,50.19-96.15,120.57,1.14-.28-5.92-.43-4.7-.43h10.91a15.32,15.32,0,0,1,5.92,1.17c5.91-59.45,23-105.9,84-105.9,60.76,0,77.7,46.06,83.94,105.16a15.23,15.23,0,0,1,3.6-.43h10.91a15.27,15.27,0,0,1,6,1.22C442.53,204.68,416.27,154.07,344,154.07Z"></path><path class="cls-2" d="M272.76,286v58.77a15.49,15.49,0,0,1-8.35,13.76,15.32,15.32,0,0,1-7.12,1.73H246.38a15.5,15.5,0,0,1-15.49-15.49V286a15.44,15.44,0,0,1,11.92-15,14.48,14.48,0,0,1,3.57-.43h10.91A15.45,15.45,0,0,1,272.76,286Z"></path><path class="cls-2" d="M457.92,289.69v58.77A15.49,15.49,0,0,1,442.44,364H431.53A15.49,15.49,0,0,1,416,348.46V289.69a15.49,15.49,0,0,1,11.89-15.05,15.23,15.23,0,0,1,3.6-.43h10.91a15.27,15.27,0,0,1,6,1.22A15.47,15.47,0,0,1,457.92,289.69Z"></path><path class="cls-1" d="M472.94,289.69v58.77A15.49,15.49,0,0,1,457.46,364H446.55a15.49,15.49,0,0,1-15.49-15.49V289.69A15.47,15.47,0,0,1,443,274.64a15.23,15.23,0,0,1,3.6-.43h10.91a15.31,15.31,0,0,1,6,1.22A15.49,15.49,0,0,1,472.94,289.69Z"></path><path class="cls-1" d="M283.14,286v58.77a15.49,15.49,0,0,1-15.47,15.49H256.75a15.77,15.77,0,0,1-5.29-.92,15.51,15.51,0,0,1-10.2-14.57V286a15.47,15.47,0,0,1,11.89-15,14.79,14.79,0,0,1,3.6-.43h10.92a15.26,15.26,0,0,1,6,1.22A15.47,15.47,0,0,1,283.14,286Z"></path><path class="cls-1" d="M386,396c-1.28,0-28.71-.72-29.75-.75a4.86,4.86,0,0,1-4.68-5.33v.2l0-.22a4.76,4.76,0,0,1,5-4.39c41.31,3.24,63.43.07,79.23-14.29,7.4-6.72,11.57-15.74,12.43-26.86a4.83,4.83,0,0,1,4.84-4.41h0a4.89,4.89,0,0,1,4.85,5.29c-1.06,13.61-6.29,24.77-15.6,33.21C425.36,393.76,399.41,396,386,396Z"></path><circle class="cls-2" cx="354.75" cy="390.23" r="10.07"></circle></g></g></svg>