<svg xmlns="http://www.w3.org/2000/svg" viewBox="0 0 598.57 404.05"><defs><style>.cls-1{isolation:isolate;}.cls-2{fill:#cee0f2;}.cls-3{fill:#9caab8;mix-blend-mode:multiply;opacity:0.4;}.cls-4{fill:#9dc7f2;}.cls-5{fill:#2e2e76;}.cls-6{fill:#0c7ff2;}</style></defs><g class="cls-1"><g id="Layer_2" data-name="Layer 2"><g id="Layer_1-2" data-name="Layer 1"><path class="cls-2" d="M491.87,44.18v291a35.94,35.94,0,0,1-35.93,35.94H37.45A35.94,35.94,0,0,1,1.51,335.14v-291Z"></path><path class="cls-3" d="M457.92,167.35a14,14,0,1,0,0,27.9h11.53v13.68A98.21,98.21,0,0,0,412,371.08h43.9a35.94,35.94,0,0,0,35.93-35.94V167.35Z"></path><rect class="cls-4" x="157.36" y="79.12" width="244.84" height="12.36" rx="1.6"></rect><rect class="cls-4" x="157.36" y="121.64" width="224.15" height="12.36" rx="1.6"></rect><rect class="cls-4" x="157.36" y="164.16" width="255.68" height="12.36" rx="1.6"></rect><path class="cls-5" d="M.23,29.76H121.16a0,0,0,0,1,0,0v342a0,0,0,0,1,0,0h-89A31.94,31.94,0,0,1,.23,339.77v-310A0,0,0,0,1,.23,29.76Z"></path><path class="cls-6" d="M27.4,0H464.72a27.4,27.4,0,0,1,27.4,27.4V49.11a0,0,0,0,1,0,0H0a0,0,0,0,1,0,0V27.4A27.4,27.4,0,0,1,27.4,0Z"></path><circle class="cls-5" cx="500.36" cy="305.84" r="98.21"></circle><circle class="cls-2" cx="500.41" cy="305.84" r="84"></circle><path class="cls-4" d="M573.28,303.39h-7.22a63.61,63.61,0,1,0-127.21,0h-7.22a70.83,70.83,0,1,1,141.65,0Z"></path><circle class="cls-6" cx="498.97" cy="305.58" r="13.53"></circle><rect class="cls-6" x="534.06" y="266.81" width="9.98" height="77.55" rx="4.34" transform="translate(844.63 -233.47) rotate(90)"></rect><rect class="cls-5" x="484.36" y="179.05" width="29.21" height="33.89"></rect><rect class="cls-5" x="458.88" y="167.35" width="80.17" height="27.9" rx="13.95"></rect></g></g></g></svg>