<svg xmlns="http://www.w3.org/2000/svg" viewBox="0 0 667.64 371.08"><defs><style>.cls-1{isolation:isolate;}.cls-2{fill:#cee0f2;}.cls-3{fill:#9dc7f2;}.cls-4{fill:#0c7ff2;}.cls-5{fill:#9caab8;mix-blend-mode:multiply;}.cls-6{fill:#2e2e76;}.cls-7{fill:none;stroke:#0c7ff2;stroke-miterlimit:10;stroke-width:9px;}</style></defs><g class="cls-1"><g id="Layer_2" data-name="Layer 2"><g id="Layer_1-2" data-name="Layer 1"><path class="cls-2" d="M592.71,44.18v291a36,36,0,0,1-36,35.94H136.89a36,36,0,0,1-36-35.94v-291Z"></path><rect class="cls-3" x="130.23" y="79.12" width="244.84" height="12.36" rx="1.6"></rect><rect class="cls-3" x="130.23" y="121.64" width="224.15" height="12.36" rx="1.6"></rect><rect class="cls-3" x="130.23" y="164.16" width="255.68" height="12.36" rx="1.6"></rect><path class="cls-4" d="M128.11,0H565.44a27.4,27.4,0,0,1,27.4,27.4V49.11a0,0,0,0,1,0,0H100.71a0,0,0,0,1,0,0V27.4A27.4,27.4,0,0,1,128.11,0Z"></path><path class="cls-5" d="M592.71,194.36V335.14a36,36,0,0,1-36,35.94H540.44a92.64,92.64,0,0,1,52.27-176.72Z"></path><circle class="cls-6" cx="91.12" cy="223.85" r="40.54"></circle><path class="cls-6" d="M76.5,273h29.24a76.5,76.5,0,0,1,76.5,76.5v21.57a0,0,0,0,1,0,0H0a0,0,0,0,1,0,0V349.5A76.5,76.5,0,0,1,76.5,273Z"></path><path class="cls-7" d="M199.65,347.81H302.82a37.64,37.64,0,0,0,37.64-37.64V271A37.64,37.64,0,0,1,378.1,233.4H503.83"></path><circle class="cls-4" cx="494.29" cy="233.4" r="14.52"></circle><circle class="cls-4" cx="199.65" cy="345" r="14.52"></circle><circle class="cls-4" cx="340.28" cy="290.6" r="14.52"></circle><polygon class="cls-4" points="490.58 136.85 490.58 139.49 433.53 139.49 453.16 155.94 433.53 172.39 490.58 172.39 490.58 226.11 496.67 226.11 496.67 136.85 490.58 136.85"></polygon><circle class="cls-6" cx="582.98" cy="286.42" r="84.66"></circle><circle class="cls-2" cx="583.03" cy="286.42" r="72.41"></circle><path class="cls-3" d="M645.85,284.31h-6.23a54.83,54.83,0,1,0-109.65,0h-6.23a61.06,61.06,0,0,1,122.11,0Z"></path><circle class="cls-4" cx="581.79" cy="286.2" r="11.66"></circle><rect class="cls-4" x="612.04" y="252.77" width="8.6" height="66.85" rx="3.3" transform="translate(902.53 -330.14) rotate(90)"></rect></g></g></g></svg>