<svg xmlns="http://www.w3.org/2000/svg" viewBox="0 0 395.74 397.52"><defs><style>.cls-1{fill:#0c7ff2;}.cls-2{fill:#cee0f2;}.cls-3{fill:none;stroke:#cee0f2;stroke-miterlimit:10;stroke-width:1.58px;}.cls-4{fill:#2e2e76;}</style></defs><g id="Layer_2" data-name="Layer 2"><g id="Layer_1-2" data-name="Layer 1"><path class="cls-1" d="M395.71,54.5A56.3,56.3,0,0,1,374,100.82a33.64,33.64,0,0,0-12.91,26.54V144.5H317.67V127.37A33.34,33.34,0,0,0,304.94,101,56.35,56.35,0,1,1,395.71,54.5Z"></path><rect class="cls-2" x="305.52" y="144.5" width="68.16" height="17.76" rx="4.12"></rect><path class="cls-2" d="M316.73,154.69h47.2a0,0,0,0,1,0,0v27.9a7.66,7.66,0,0,1-7.66,7.66H324.4a7.66,7.66,0,0,1-7.66-7.66v-27.9A0,0,0,0,1,316.73,154.69Z"></path><path class="cls-3" d="M345,144.5h-9.37c-.41,0-.74-1.25-.74-2.78l-15-55.8A2.79,2.79,0,0,1,324.69,84l2.8,2.9a2.78,2.78,0,0,0,3.91.1l6.49-6.09a2.78,2.78,0,0,1,3.89.07l6.42,6.52a2.78,2.78,0,0,0,3.93,0l3.9-3.83a2.79,2.79,0,0,1,4.74,2l-15,56.05C345.76,143.25,345.43,144.5,345,144.5Z"></path><path class="cls-1" d="M3.92,318.27,107,215.2a3.14,3.14,0,0,1,4.43,0l30.65,30.65a3.12,3.12,0,0,0,4.43,0L269.93,122.43a3.13,3.13,0,0,0,0-4.44L250.59,98.65a3.14,3.14,0,0,0-4.43,0L143.9,200.91a3.13,3.13,0,0,1-4.44,0L110,171.42a3.14,3.14,0,0,0-4.43,0L1.67,275.3A2.33,2.33,0,0,0,1,276.87L0,316.59A2.29,2.29,0,0,0,3.92,318.27Z"></path><path class="cls-1" d="M277.12,154.7l-66-66a3.12,3.12,0,0,1,2.21-5.34h66a3.14,3.14,0,0,1,3.14,3.13v66A3.14,3.14,0,0,1,277.12,154.7Z"></path><rect class="cls-4" x="227.32" y="238.26" width="224.13" height="94.39" rx="7.28" transform="translate(53.93 624.84) rotate(-90)"></rect><rect class="cls-4" x="138.37" y="273.51" width="153.63" height="94.39" rx="7.28" transform="translate(-105.53 535.88) rotate(-90)"></rect><rect class="cls-4" x="47.25" y="306.61" width="87.44" height="94.39" rx="7.28" transform="translate(-262.83 444.77) rotate(-90)"></rect></g></g></svg>