<svg xmlns="http://www.w3.org/2000/svg" viewBox="0 0 661.38 369.6"><defs><style>.cls-1{isolation:isolate;}.cls-2,.cls-6{fill:#cee0f2;}.cls-3{fill:#0c7ff2;}.cls-4{fill:#9caab8;}.cls-4,.cls-6{mix-blend-mode:multiply;}.cls-5{fill:#2e2e76;}</style></defs><g class="cls-1"><g id="Layer_2" data-name="Layer 2"><g id="Layer_1-2" data-name="Layer 1"><rect class="cls-2" x="103.59" y="54.12" width="346.04" height="236.88" rx="31.41"></rect><path class="cls-3" d="M448.67,117.8V320.29a31.89,31.89,0,0,1-31.83,31.89l-240.15.46-37.22.06-65,.14V55.71A19.24,19.24,0,0,1,93.7,36.47l55.92-.14a19.25,19.25,0,0,1,19.3,19.24V86.38l125.36-.24,16.46,0,106-.21A31.9,31.9,0,0,1,448.67,117.8Z"></path><path class="cls-4" d="M191.23,270.12a91.72,91.72,0,0,1-51.76,82.58l-65,.14v-171a91.83,91.83,0,0,1,116.73,88.31Z"></path><path class="cls-4" d="M332.79,180a91.52,91.52,0,0,1-22.05-93.93l-16.46,0A107.31,107.31,0,0,0,448.67,209.63V191.24A91.58,91.58,0,0,1,332.79,180Z"></path><path class="cls-5" d="M545.94,226.61l-53.52-55.34A107.25,107.25,0,1,0,470.3,193.4l53.52,55.32,95.7,99,22.12-22.13ZM471,172a91.47,91.47,0,1,1,10.12-12A91.22,91.22,0,0,1,471,172Z"></path><path class="cls-6" d="M481.16,160A91.56,91.56,0,1,1,471,42.55,91.91,91.91,0,0,1,481.16,160Z"></path><polygon class="cls-4" points="641.64 325.55 619.52 347.69 523.82 248.72 545.94 226.6 641.64 325.55"></polygon><circle class="cls-5" cx="91.75" cy="277.85" r="91.75"></circle><circle class="cls-2" cx="91.75" cy="277.85" r="72.07"></circle><path class="cls-3" d="M84.79,244.1c11.61,8.85,24.74-4.28,15.9-15.9C89.07,219.36,75.94,232.49,84.79,244.1Z"></path><path class="cls-3" d="M126.54,242.24l-25.05,8.57a16,16,0,0,1-5.14.85h-8a15.74,15.74,0,0,1-4.87-.76L59.6,243.23c-4.77-1.53-10.08,3.51-6.14,10.1L78,261.24c-.22.82-10.13,60.39-10.13,60.39-1.66,4.73,3.25,10.17,9.94,6.4l10.48-30a6.52,6.52,0,0,1,5.43-.08l.09,0L101,326.6a5.74,5.74,0,0,0,5.57,4.35,5.64,5.64,0,0,0,1.4-.17,5.75,5.75,0,0,0,4.18-7s-6.09-61.59-6.28-62.35l27-9.23C136.69,245.56,131.28,240.62,126.54,242.24Z"></path><rect class="cls-3" x="563.22" y="224.75" width="58.11" height="147.11" rx="8.33" transform="translate(-37.46 506.17) rotate(-45)"></rect></g></g></g></svg>