<svg xmlns="http://www.w3.org/2000/svg" xmlns:xlink="http://www.w3.org/1999/xlink" viewBox="0 0 1460.86 1080"><defs><style>.cls-1,.cls-26,.cls-27,.cls-28,.cls-31,.cls-44,.cls-45,.cls-46,.cls-47,.cls-48,.cls-49,.cls-50,.cls-51,.cls-52,.cls-53,.cls-54{fill:none;}.cls-2{isolation:isolate;}.cls-3{fill:#f0f7ff;}.cls-11,.cls-15,.cls-16,.cls-17,.cls-19,.cls-20,.cls-23,.cls-24,.cls-37,.cls-38,.cls-39,.cls-4,.cls-40,.cls-41,.cls-44,.cls-45,.cls-46,.cls-47,.cls-48,.cls-49,.cls-5,.cls-50,.cls-51,.cls-52,.cls-53,.cls-54,.cls-55,.cls-6,.cls-7,.cls-9{mix-blend-mode:multiply;}.cls-19,.cls-20,.cls-4,.cls-5,.cls-6,.cls-60,.cls-7{opacity:0.59;}.cls-4{fill:url(#linear-gradient);}.cls-5{fill:url(#linear-gradient-2);}.cls-6{fill:url(#linear-gradient-3);}.cls-7{fill:url(#linear-gradient-4);}.cls-8{fill:#0c7ff2;}.cls-55,.cls-9{fill:#9caab8;}.cls-9{opacity:0.19;}.cls-10,.cls-13,.cls-14{fill:#fff;}.cls-10{mix-blend-mode:screen;opacity:0.09;}.cls-11{fill:url(#linear-gradient-5);}.cls-12{fill:url(#linear-gradient-6);}.cls-14{font-size:48.35px;font-family:Rubik-Bold, Rubik;font-weight:700;}.cls-15{opacity:0.43;fill:url(#linear-gradient-7);}.cls-16{fill:url(#linear-gradient-8);}.cls-17{fill:url(#linear-gradient-9);}.cls-18{fill:url(#linear-gradient-10);}.cls-19{fill:url(#linear-gradient-11);}.cls-20{fill:url(#linear-gradient-12);}.cls-21{fill:#2e2e76;}.cls-22{fill:#cee0f2;}.cls-23{fill:url(#linear-gradient-13);}.cls-24{fill:url(#linear-gradient-14);}.cls-25{fill:#3ab2d0;}.cls-26,.cls-27,.cls-28,.cls-31,.cls-44,.cls-45,.cls-46,.cls-47,.cls-48,.cls-49,.cls-50,.cls-51,.cls-52,.cls-53,.cls-54{stroke-miterlimit:10;}.cls-26,.cls-27,.cls-28,.cls-31{stroke-width:4.59px;opacity:0.3;}.cls-26{stroke:url(#linear-gradient-15);}.cls-27{stroke:url(#linear-gradient-16);}.cls-28{stroke:url(#linear-gradient-17);}.cls-29{fill:url(#linear-gradient-18);}.cls-30{fill:url(#linear-gradient-19);}.cls-31{stroke:url(#linear-gradient-20);}.cls-32{fill:url(#linear-gradient-21);}.cls-33{fill:url(#linear-gradient-22);}.cls-34{fill:url(#linear-gradient-23);}.cls-35{fill:url(#linear-gradient-24);}.cls-36{fill:url(#linear-gradient-25);}.cls-37{fill:url(#linear-gradient-26);}.cls-38{fill:url(#linear-gradient-27);}.cls-39{fill:url(#linear-gradient-28);}.cls-40{fill:url(#linear-gradient-29);}.cls-41{fill:url(#linear-gradient-30);}.cls-42{fill:url(#linear-gradient-31);}.cls-43{fill:url(#linear-gradient-32);}.cls-44,.cls-45,.cls-46,.cls-47,.cls-48,.cls-49,.cls-50,.cls-51,.cls-52,.cls-53,.cls-54{stroke-width:0.57px;}.cls-44{stroke:url(#linear-gradient-33);}.cls-45{stroke:url(#linear-gradient-34);}.cls-46{stroke:url(#linear-gradient-35);}.cls-47{stroke:url(#linear-gradient-36);}.cls-48{stroke:url(#linear-gradient-37);}.cls-49{stroke:url(#linear-gradient-38);}.cls-50{stroke:url(#linear-gradient-39);}.cls-51{stroke:url(#linear-gradient-40);}.cls-52{stroke:url(#linear-gradient-41);}.cls-53{stroke:url(#linear-gradient-42);}.cls-54{stroke:url(#linear-gradient-43);}.cls-56,.cls-59{fill:#9dc7f2;}.cls-56{mix-blend-mode:overlay;opacity:0.47;}.cls-57{opacity:0.32;}.cls-58{clip-path:url(#clip-path);}.cls-60{mix-blend-mode:soft-light;}</style><linearGradient id="linear-gradient" x1="527.64" y1="1004.78" x2="993.67" y2="1004.78" gradientUnits="userSpaceOnUse"><stop offset="0" stop-color="#9caab8"></stop><stop offset="1" stop-color="#e0e8f7"></stop></linearGradient><linearGradient id="linear-gradient-2" x1="165.15" y1="769.87" x2="579.75" y2="769.87" xlink:href="#linear-gradient"></linearGradient><linearGradient id="linear-gradient-3" x1="978.67" y1="735.76" x2="1289.64" y2="735.76" xlink:href="#linear-gradient"></linearGradient><linearGradient id="linear-gradient-4" x1="659.55" y1="439.52" x2="872.49" y2="439.52" xlink:href="#linear-gradient"></linearGradient><linearGradient id="linear-gradient-5" x1="523.74" y1="961.63" x2="615.95" y2="961.63" xlink:href="#linear-gradient"></linearGradient><linearGradient id="linear-gradient-6" x1="520.23" y1="961.63" x2="612.44" y2="961.63" xlink:href="#linear-gradient"></linearGradient><linearGradient id="linear-gradient-7" x1="698.02" y1="962.43" x2="749.54" y2="962.43" xlink:href="#linear-gradient"></linearGradient><linearGradient id="linear-gradient-8" x1="588.39" y1="961.63" x2="680.6" y2="961.63" xlink:href="#linear-gradient"></linearGradient><linearGradient id="linear-gradient-9" x1="582.07" y1="961.63" x2="674.28" y2="961.63" xlink:href="#linear-gradient"></linearGradient><linearGradient id="linear-gradient-10" x1="584.87" y1="961.63" x2="677.08" y2="961.63" xlink:href="#linear-gradient"></linearGradient><linearGradient id="linear-gradient-11" x1="176.47" y1="652.39" x2="560.8" y2="652.39" xlink:href="#linear-gradient"></linearGradient><linearGradient id="linear-gradient-12" x1="176.47" y1="515.74" x2="560.8" y2="515.74" xlink:href="#linear-gradient"></linearGradient><linearGradient id="linear-gradient-13" x1="753.89" y1="185.43" x2="885.47" y2="185.43" gradientUnits="userSpaceOnUse"><stop offset="0" stop-color="#6b7e8f"></stop><stop offset="1" stop-color="#b6c6d6"></stop></linearGradient><linearGradient id="linear-gradient-14" x1="532.08" y1="351.4" x2="637.01" y2="351.4" xlink:href="#linear-gradient-13"></linearGradient><linearGradient id="linear-gradient-15" x1="568.07" y1="635.15" x2="1013.89" y2="635.15" xlink:href="#linear-gradient-13"></linearGradient><linearGradient id="linear-gradient-16" x1="571.79" y1="662.69" x2="801.12" y2="662.69" xlink:href="#linear-gradient-13"></linearGradient><linearGradient id="linear-gradient-17" x1="800.52" y1="633.95" x2="1011.38" y2="633.95" xlink:href="#linear-gradient-13"></linearGradient><linearGradient id="linear-gradient-18" x1="993.43" y1="612.34" x2="1028.26" y2="612.34" xlink:href="#linear-gradient-13"></linearGradient><linearGradient id="linear-gradient-19" x1="559.04" y1="666.4" x2="593.88" y2="666.4" xlink:href="#linear-gradient-13"></linearGradient><linearGradient id="linear-gradient-20" x1="796.61" y1="631.16" x2="861.62" y2="631.16" xlink:href="#linear-gradient-13"></linearGradient><linearGradient id="linear-gradient-21" x1="732.56" y1="658.99" x2="865.28" y2="658.99" xlink:href="#linear-gradient-13"></linearGradient><linearGradient id="linear-gradient-22" x1="841.98" y1="434.56" x2="876.82" y2="434.56" xlink:href="#linear-gradient-13"></linearGradient><linearGradient id="linear-gradient-23" x1="790.93" y1="833.62" x2="825.76" y2="833.62" xlink:href="#linear-gradient-13"></linearGradient><linearGradient id="linear-gradient-24" x1="195.84" y1="599.63" x2="290.54" y2="599.63" xlink:href="#linear-gradient"></linearGradient><linearGradient id="linear-gradient-25" x1="335.37" y1="563.75" x2="430.06" y2="563.75" xlink:href="#linear-gradient"></linearGradient><linearGradient id="linear-gradient-26" x1="323.07" y1="680.78" x2="564.62" y2="680.78" xlink:href="#linear-gradient-13"></linearGradient><linearGradient id="linear-gradient-27" x1="196.74" y1="722.51" x2="227.48" y2="722.51" xlink:href="#linear-gradient"></linearGradient><linearGradient id="linear-gradient-28" x1="232.27" y1="739.16" x2="263.02" y2="739.16" xlink:href="#linear-gradient"></linearGradient><linearGradient id="linear-gradient-29" x1="269" y1="752.98" x2="299.75" y2="752.98" xlink:href="#linear-gradient"></linearGradient><linearGradient id="linear-gradient-30" x1="366.08" y1="710.04" x2="485.76" y2="710.04" xlink:href="#linear-gradient"></linearGradient><linearGradient id="linear-gradient-31" x1="838.21" y1="1018.33" x2="841.37" y2="872.96" xlink:href="#linear-gradient-13"></linearGradient><linearGradient id="linear-gradient-32" x1="2014.46" y1="2369.12" x2="1985.81" y2="2338.85" gradientTransform="matrix(1.28, 0, -0.74, 1.15, -82.24, -1824.63)" xlink:href="#linear-gradient-13"></linearGradient><linearGradient id="linear-gradient-33" x1="1189.48" y1="2353.09" x2="1195.22" y2="2353.09" gradientTransform="matrix(1.28, 0, 0, 1.15, -791.72, -1826.51)" xlink:href="#linear-gradient-13"></linearGradient><linearGradient id="linear-gradient-34" x1="1189.48" y1="2344.75" x2="1195.22" y2="2344.75" gradientTransform="matrix(1.28, 0, 0, 1.15, -791.72, -1826.51)" xlink:href="#linear-gradient-13"></linearGradient><linearGradient id="linear-gradient-35" x1="1181.93" y1="2337.85" x2="1182.5" y2="2337.85" gradientTransform="matrix(1.28, 0, 0, 1.15, -791.72, -1826.51)" xlink:href="#linear-gradient-13"></linearGradient><linearGradient id="linear-gradient-36" x1="1180.06" y1="2361.49" x2="1180.64" y2="2361.49" gradientTransform="matrix(1.28, 0, 0, 1.15, -791.72, -1826.51)" xlink:href="#linear-gradient-13"></linearGradient><linearGradient id="linear-gradient-37" x1="1202.9" y1="2337.85" x2="1203.48" y2="2337.85" gradientTransform="matrix(1.28, 0, 0, 1.15, -791.72, -1826.51)" xlink:href="#linear-gradient-13"></linearGradient><linearGradient id="linear-gradient-38" x1="1201.04" y1="2361.49" x2="1201.61" y2="2361.49" gradientTransform="matrix(1.28, 0, 0, 1.15, -791.72, -1826.51)" xlink:href="#linear-gradient-13"></linearGradient><linearGradient id="linear-gradient-39" x1="1195.22" y1="2348.92" x2="1209.76" y2="2348.92" gradientTransform="matrix(1.28, 0, 0, 1.15, -791.72, -1826.51)" xlink:href="#linear-gradient-13"></linearGradient><linearGradient id="linear-gradient-40" x1="1174.94" y1="2348.92" x2="1189.48" y2="2348.92" gradientTransform="matrix(1.28, 0, 0, 1.15, -791.72, -1826.51)" xlink:href="#linear-gradient-13"></linearGradient><linearGradient id="linear-gradient-41" x1="1174.94" y1="2349.25" x2="1189.77" y2="2349.25" gradientTransform="matrix(1.28, 0, 0, 1.15, -791.72, -1826.51)" xlink:href="#linear-gradient-13"></linearGradient><linearGradient id="linear-gradient-42" x1="1194.93" y1="2349.25" x2="1209.76" y2="2349.25" gradientTransform="matrix(1.28, 0, 0, 1.15, -791.72, -1826.51)" xlink:href="#linear-gradient-13"></linearGradient><linearGradient id="linear-gradient-43" x1="752.28" y1="918.19" x2="740.73" y2="883.09" gradientTransform="matrix(1.48, 0.58, 0, 1, -367.81, -444.07)" xlink:href="#linear-gradient-13"></linearGradient><clipPath id="clip-path"><rect class="cls-1" x="1022.56" y="682.49" width="207.29" height="47.85" rx="4.25"></rect></clipPath></defs><g class="cls-2"><g id="Layer_2" data-name="Layer 2"><g id="Layer_1-2" data-name="Layer 1"><circle class="cls-3" cx="786.67" cy="645.29" r="307.09"></circle><ellipse class="cls-4" cx="760.65" cy="1004.78" rx="233.02" ry="4.92"></ellipse><ellipse class="cls-5" cx="372.45" cy="769.87" rx="207.3" ry="4.92"></ellipse><ellipse class="cls-6" cx="1134.15" cy="735.76" rx="155.49" ry="4.92"></ellipse><ellipse class="cls-7" cx="766.02" cy="439.52" rx="106.47" ry="4.92"></ellipse><rect class="cls-8" x="547.14" y="923.72" width="99.85" height="14.18" rx="4.09"></rect><rect class="cls-8" x="547.14" y="909.54" width="99.85" height="14.18" rx="4.09"></rect><rect class="cls-8" x="547.14" y="895.36" width="99.85" height="14.18" rx="4.09"></rect><rect class="cls-9" x="552.78" y="907.84" width="89.51" height="1.7"></rect><rect class="cls-9" x="552.78" y="922.02" width="89.51" height="1.7"></rect><rect class="cls-9" x="552.78" y="936.21" width="89.51" height="1.7"></rect><rect class="cls-10" x="552.78" y="923.72" width="89.51" height="1.7"></rect><rect class="cls-10" x="552.78" y="909.54" width="89.51" height="1.7"></rect><rect class="cls-10" x="552.78" y="895.93" width="89.51" height="1.7"></rect><rect class="cls-10" x="554.84" y="895.36" width="3.08" height="14.18"></rect><rect class="cls-10" x="564.07" y="895.36" width="3.08" height="14.18"></rect><rect class="cls-10" x="573.3" y="895.36" width="3.08" height="14.18"></rect><rect class="cls-10" x="582.53" y="895.36" width="3.08" height="14.18"></rect><rect class="cls-10" x="591.76" y="895.36" width="3.08" height="14.18"></rect><rect class="cls-10" x="601" y="895.36" width="3.08" height="14.18"></rect><rect class="cls-10" x="610.23" y="895.36" width="3.08" height="14.18"></rect><rect class="cls-10" x="619.46" y="895.36" width="3.08" height="14.18"></rect><rect class="cls-10" x="628.69" y="895.36" width="3.08" height="14.18"></rect><rect class="cls-10" x="637.92" y="895.36" width="3.08" height="14.18"></rect><rect class="cls-10" x="552.78" y="909.54" width="3.08" height="14.18"></rect><rect class="cls-10" x="562.01" y="909.54" width="3.08" height="14.18"></rect><rect class="cls-10" x="571.24" y="909.54" width="3.08" height="14.18"></rect><rect class="cls-10" x="580.47" y="909.54" width="3.08" height="14.18"></rect><rect class="cls-10" x="589.71" y="909.54" width="3.08" height="14.18"></rect><rect class="cls-10" x="598.94" y="909.54" width="3.08" height="14.18"></rect><rect class="cls-10" x="608.17" y="909.54" width="3.08" height="14.18"></rect><rect class="cls-10" x="617.4" y="909.54" width="3.08" height="14.18"></rect><rect class="cls-10" x="626.63" y="909.54" width="3.08" height="14.18"></rect><rect class="cls-10" x="635.86" y="909.54" width="3.08" height="14.18"></rect><rect class="cls-10" x="557.91" y="923.72" width="3.08" height="14.18"></rect><rect class="cls-10" x="567.15" y="923.72" width="3.08" height="14.18"></rect><rect class="cls-10" x="576.38" y="923.72" width="3.08" height="14.18"></rect><rect class="cls-10" x="585.61" y="923.72" width="3.08" height="14.18"></rect><rect class="cls-10" x="594.84" y="923.72" width="3.08" height="14.18"></rect><rect class="cls-10" x="604.07" y="923.72" width="3.08" height="14.18"></rect><rect class="cls-10" x="613.31" y="923.72" width="3.08" height="14.18"></rect><rect class="cls-10" x="622.54" y="923.72" width="3.08" height="14.18"></rect><rect class="cls-10" x="631.77" y="923.72" width="3.08" height="14.18"></rect><rect class="cls-10" x="641" y="923.72" width="3.08" height="14.18"></rect><rect class="cls-8" x="547.14" y="881.17" width="99.85" height="14.18" rx="4.09"></rect><rect class="cls-8" x="547.14" y="866.99" width="99.85" height="14.18" rx="4.09"></rect><rect class="cls-8" x="547.14" y="852.81" width="99.85" height="14.18" rx="4.09"></rect><rect class="cls-9" x="552.78" y="865.29" width="89.51" height="1.7"></rect><rect class="cls-9" x="552.78" y="879.48" width="89.51" height="1.7"></rect><rect class="cls-9" x="552.78" y="893.66" width="89.51" height="1.7"></rect><rect class="cls-10" x="552.78" y="881.17" width="89.51" height="1.7"></rect><rect class="cls-10" x="552.78" y="866.99" width="89.51" height="1.7"></rect><rect class="cls-10" x="552.78" y="853.38" width="89.51" height="1.7"></rect><rect class="cls-10" x="554.84" y="852.81" width="3.08" height="14.18"></rect><rect class="cls-10" x="564.07" y="852.81" width="3.08" height="14.18"></rect><rect class="cls-10" x="573.3" y="852.81" width="3.08" height="14.18"></rect><rect class="cls-10" x="582.53" y="852.81" width="3.08" height="14.18"></rect><rect class="cls-10" x="591.76" y="852.81" width="3.08" height="14.18"></rect><rect class="cls-10" x="601" y="852.81" width="3.08" height="14.18"></rect><rect class="cls-10" x="610.23" y="852.81" width="3.08" height="14.18"></rect><rect class="cls-10" x="619.46" y="852.81" width="3.08" height="14.18"></rect><rect class="cls-10" x="628.69" y="852.81" width="3.08" height="14.18"></rect><rect class="cls-10" x="637.92" y="852.81" width="3.08" height="14.18"></rect><rect class="cls-10" x="552.78" y="866.99" width="3.08" height="14.18"></rect><rect class="cls-10" x="562.01" y="866.99" width="3.08" height="14.18"></rect><rect class="cls-10" x="571.24" y="866.99" width="3.08" height="14.18"></rect><rect class="cls-10" x="580.47" y="866.99" width="3.08" height="14.18"></rect><rect class="cls-10" x="589.71" y="866.99" width="3.08" height="14.18"></rect><rect class="cls-10" x="598.94" y="866.99" width="3.08" height="14.18"></rect><rect class="cls-10" x="608.17" y="866.99" width="3.08" height="14.18"></rect><rect class="cls-10" x="617.4" y="866.99" width="3.08" height="14.18"></rect><rect class="cls-10" x="626.63" y="866.99" width="3.08" height="14.18"></rect><rect class="cls-10" x="635.86" y="866.99" width="3.08" height="14.18"></rect><rect class="cls-10" x="557.91" y="881.17" width="3.08" height="14.18"></rect><rect class="cls-10" x="567.15" y="881.17" width="3.08" height="14.18"></rect><rect class="cls-10" x="576.38" y="881.17" width="3.08" height="14.18"></rect><rect class="cls-10" x="585.61" y="881.17" width="3.08" height="14.18"></rect><rect class="cls-10" x="594.84" y="881.17" width="3.08" height="14.18"></rect><rect class="cls-10" x="604.07" y="881.17" width="3.08" height="14.18"></rect><rect class="cls-10" x="613.31" y="881.17" width="3.08" height="14.18"></rect><rect class="cls-10" x="622.54" y="881.17" width="3.08" height="14.18"></rect><rect class="cls-10" x="631.77" y="881.17" width="3.08" height="14.18"></rect><rect class="cls-10" x="641" y="881.17" width="3.08" height="14.18"></rect><circle class="cls-11" cx="569.85" cy="961.63" r="46.1"></circle><circle class="cls-12" cx="566.34" cy="961.63" r="46.1"></circle><path class="cls-13" d="M566.9,921a40.31,40.31,0,1,0,40.32,40.31A40.31,40.31,0,0,0,566.9,921Zm0,69.89a29.58,29.58,0,1,1,29.59-29.58A29.58,29.58,0,0,1,566.9,990.88Z"></path><text class="cls-14" transform="translate(549.89 980.2)">B</text><rect class="cls-8" x="646.23" y="990.52" width="99.85" height="14.18" rx="4.09"></rect><rect class="cls-8" x="646.23" y="976.33" width="99.85" height="14.18" rx="4.09"></rect><rect class="cls-8" x="646.23" y="962.15" width="99.85" height="14.18" rx="4.09"></rect><rect class="cls-9" x="651.86" y="974.64" width="89.51" height="1.7"></rect><rect class="cls-9" x="651.86" y="988.82" width="89.51" height="1.7"></rect><rect class="cls-9" x="651.86" y="1003" width="89.51" height="1.7"></rect><rect class="cls-10" x="651.86" y="990.52" width="89.51" height="1.7"></rect><rect class="cls-10" x="651.86" y="976.33" width="89.51" height="1.7"></rect><rect class="cls-10" x="651.86" y="962.72" width="89.51" height="1.7"></rect><rect class="cls-10" x="653.92" y="962.15" width="3.08" height="14.18"></rect><rect class="cls-10" x="663.15" y="962.15" width="3.08" height="14.18"></rect><rect class="cls-10" x="672.39" y="962.15" width="3.08" height="14.18"></rect><rect class="cls-10" x="681.62" y="962.15" width="3.08" height="14.18"></rect><rect class="cls-10" x="690.85" y="962.15" width="3.08" height="14.18"></rect><rect class="cls-10" x="700.08" y="962.15" width="3.08" height="14.18"></rect><rect class="cls-10" x="709.31" y="962.15" width="3.08" height="14.18"></rect><rect class="cls-10" x="718.54" y="962.15" width="3.08" height="14.18"></rect><rect class="cls-10" x="727.78" y="962.15" width="3.08" height="14.18"></rect><rect class="cls-10" x="737.01" y="962.15" width="3.08" height="14.18"></rect><rect class="cls-10" x="651.86" y="976.33" width="3.08" height="14.18"></rect><rect class="cls-10" x="661.09" y="976.33" width="3.08" height="14.18"></rect><rect class="cls-10" x="670.33" y="976.33" width="3.08" height="14.18"></rect><rect class="cls-10" x="679.56" y="976.33" width="3.08" height="14.18"></rect><rect class="cls-10" x="688.79" y="976.33" width="3.08" height="14.18"></rect><rect class="cls-10" x="698.02" y="976.33" width="3.08" height="14.18"></rect><rect class="cls-10" x="707.25" y="976.33" width="3.08" height="14.18"></rect><rect class="cls-10" x="716.49" y="976.33" width="3.08" height="14.18"></rect><rect class="cls-10" x="725.72" y="976.33" width="3.08" height="14.18"></rect><rect class="cls-10" x="734.95" y="976.33" width="3.08" height="14.18"></rect><rect class="cls-10" x="657" y="990.52" width="3.08" height="14.18"></rect><rect class="cls-10" x="666.23" y="990.52" width="3.08" height="14.18"></rect><rect class="cls-10" x="675.46" y="990.52" width="3.08" height="14.18"></rect><rect class="cls-10" x="684.69" y="990.52" width="3.08" height="14.18"></rect><rect class="cls-10" x="693.93" y="990.52" width="3.08" height="14.18"></rect><rect class="cls-10" x="703.16" y="990.52" width="3.08" height="14.18"></rect><rect class="cls-10" x="712.39" y="990.52" width="3.08" height="14.18"></rect><rect class="cls-10" x="721.62" y="990.52" width="3.08" height="14.18"></rect><rect class="cls-10" x="730.85" y="990.52" width="3.08" height="14.18"></rect><rect class="cls-10" x="740.08" y="990.52" width="3.08" height="14.18"></rect><rect class="cls-8" x="646.23" y="947.97" width="99.85" height="14.18" rx="4.09"></rect><rect class="cls-8" x="646.23" y="933.78" width="99.85" height="14.18" rx="4.09"></rect><rect class="cls-8" x="646.23" y="919.6" width="99.85" height="14.18" rx="4.09"></rect><rect class="cls-9" x="651.86" y="932.09" width="89.51" height="1.7"></rect><rect class="cls-9" x="651.86" y="946.27" width="89.51" height="1.7"></rect><rect class="cls-9" x="651.86" y="960.45" width="89.51" height="1.7"></rect><rect class="cls-10" x="651.86" y="947.97" width="89.51" height="1.7"></rect><rect class="cls-10" x="651.86" y="933.78" width="89.51" height="1.7"></rect><rect class="cls-10" x="651.86" y="920.17" width="89.51" height="1.7"></rect><rect class="cls-10" x="653.92" y="919.6" width="3.08" height="14.18"></rect><rect class="cls-10" x="663.15" y="919.6" width="3.08" height="14.18"></rect><rect class="cls-10" x="672.39" y="919.6" width="3.08" height="14.18"></rect><rect class="cls-10" x="681.62" y="919.6" width="3.08" height="14.18"></rect><rect class="cls-10" x="690.85" y="919.6" width="3.08" height="14.18"></rect><rect class="cls-10" x="700.08" y="919.6" width="3.08" height="14.18"></rect><rect class="cls-10" x="709.31" y="919.6" width="3.08" height="14.18"></rect><rect class="cls-10" x="718.54" y="919.6" width="3.08" height="14.18"></rect><rect class="cls-10" x="727.78" y="919.6" width="3.08" height="14.18"></rect><rect class="cls-10" x="737.01" y="919.6" width="3.08" height="14.18"></rect><rect class="cls-10" x="651.86" y="933.78" width="3.08" height="14.18"></rect><rect class="cls-10" x="661.09" y="933.78" width="3.08" height="14.18"></rect><rect class="cls-10" x="670.33" y="933.78" width="3.08" height="14.18"></rect><rect class="cls-10" x="679.56" y="933.78" width="3.08" height="14.18"></rect><rect class="cls-10" x="688.79" y="933.78" width="3.08" height="14.18"></rect><rect class="cls-10" x="698.02" y="933.78" width="3.08" height="14.18"></rect><rect class="cls-10" x="707.25" y="933.78" width="3.08" height="14.18"></rect><rect class="cls-10" x="716.49" y="933.78" width="3.08" height="14.18"></rect><rect class="cls-10" x="725.72" y="933.78" width="3.08" height="14.18"></rect><rect class="cls-10" x="734.95" y="933.78" width="3.08" height="14.18"></rect><rect class="cls-10" x="657" y="947.97" width="3.08" height="14.18"></rect><rect class="cls-10" x="666.23" y="947.97" width="3.08" height="14.18"></rect><rect class="cls-10" x="675.46" y="947.97" width="3.08" height="14.18"></rect><rect class="cls-10" x="684.69" y="947.97" width="3.08" height="14.18"></rect><rect class="cls-10" x="693.93" y="947.97" width="3.08" height="14.18"></rect><rect class="cls-10" x="703.16" y="947.97" width="3.08" height="14.18"></rect><rect class="cls-10" x="712.39" y="947.97" width="3.08" height="14.18"></rect><rect class="cls-10" x="721.62" y="947.97" width="3.08" height="14.18"></rect><rect class="cls-10" x="730.85" y="947.97" width="3.08" height="14.18"></rect><rect class="cls-10" x="740.08" y="947.97" width="3.08" height="14.18"></rect><path class="cls-15" d="M698,920.17h51.52a0,0,0,0,1,0,0v84.53a0,0,0,0,1,0,0H705.77A7.75,7.75,0,0,1,698,997V920.17A0,0,0,0,1,698,920.17Z"></path><circle class="cls-16" cx="634.49" cy="961.63" r="46.1"></circle><circle class="cls-17" cx="628.17" cy="961.63" r="46.1"></circle><circle class="cls-18" cx="630.98" cy="961.63" r="46.1"></circle><path class="cls-13" d="M631.55,921a40.31,40.31,0,1,0,40.32,40.31A40.31,40.31,0,0,0,631.55,921Zm0,69.89a29.58,29.58,0,1,1,29.59-29.58A29.58,29.58,0,0,1,631.55,990.88Z"></path><text class="cls-14" transform="translate(615.41 980.2)">$</text><rect class="cls-13" x="559.21" y="940.53" width="9.87" height="6.01" rx="1.06" transform="translate(1507.68 379.4) rotate(90)"></rect><rect class="cls-13" x="559.21" y="979.37" width="9.87" height="6.01" rx="1.06" transform="translate(1546.52 418.24) rotate(90)"></rect><path class="cls-19" d="M560.8,534.91V756.82a13,13,0,0,1-13,13H189.52a13,13,0,0,1-13.05-13V534.91Z"></path><path class="cls-20" d="M560.8,509.62v25.29H176.47V509.62a13,13,0,0,1,13.05-13.05H547.75A13,13,0,0,1,560.8,509.62Z"></path><rect class="cls-21" x="665.87" y="54.79" width="189.56" height="387.35" rx="20.2"></rect><rect class="cls-22" x="674.24" y="63.46" width="172.82" height="370.02" rx="10.18"></rect><circle class="cls-21" cx="687.66" cy="78.26" r="5.26"></circle><path class="cls-9" d="M777.24,169.22V370a19.61,19.61,0,0,1-19.6,19.61H665.87v-240h91.77A19.61,19.61,0,0,1,777.24,169.22Z"></path><rect class="cls-23" x="753.89" y="104.32" width="131.58" height="162.23" rx="13.92"></rect><rect class="cls-24" x="532.08" y="286.72" width="104.92" height="129.37" rx="13.92"></rect><rect class="cls-22" x="609.71" y="151.87" width="161.17" height="229.34" rx="17.09"></rect><path class="cls-25" d="M726.45,193.5a76.28,76.28,0,0,1-36.9,63.55,2.41,2.41,0,0,1-2.46,0,76.26,76.26,0,0,1-36.92-65.38v-.11a2.39,2.39,0,0,1,3.22-2.2,41.35,41.35,0,0,0,37.13-5,2.32,2.32,0,0,1,2.64,0,40.94,40.94,0,0,0,23.46,7.33,41.53,41.53,0,0,0,7-.59Z"></path><rect class="cls-13" x="630.66" y="272.8" width="115.3" height="11.79" rx="4.99"></rect><rect class="cls-13" x="630.66" y="291.91" width="115.3" height="11.79" rx="4.99"></rect><rect class="cls-8" x="652.66" y="318.61" width="71.29" height="22.61" rx="4.6"></rect><path class="cls-13" d="M746.7,413.1a14,14,0,0,0,.45,3.56,3.58,3.58,0,0,1-3.49,4.47H687.13a3.61,3.61,0,0,1-3.61-3.6V411.7a3.61,3.61,0,0,1,3.61-3.6H743.2a3.59,3.59,0,0,1,3.53,3.95Q746.7,412.57,746.7,413.1Z"></path><path class="cls-13" d="M841,411.7v5.83a3.6,3.6,0,0,1-3.6,3.6H777.62a3.59,3.59,0,0,1-3.49-4.47,14,14,0,0,0,.46-3.56c0-.35,0-.7,0-1.05a3.6,3.6,0,0,1,3.54-3.95h59.3A3.6,3.6,0,0,1,841,411.7Z"></path><circle class="cls-21" cx="760.65" cy="413.11" r="10.4"></circle><polygon class="cls-26" points="859.4 434.56 571.87 666.4 810.81 835.84 1010.84 608.92 859.4 434.56"></polygon><line class="cls-27" x1="801.05" y1="658.99" x2="571.87" y2="666.4"></line><line class="cls-28" x1="801.05" y1="658.99" x2="1010.84" y2="608.92"></line><circle class="cls-29" cx="1010.84" cy="612.34" r="17.42"></circle><circle class="cls-30" cx="576.46" cy="666.4" r="17.42"></circle><polyline class="cls-31" points="859.4 429.17 798.92 658.99 808.34 833.62"></polyline><circle class="cls-32" cx="798.92" cy="658.99" r="66.36"></circle><circle class="cls-33" cx="859.4" cy="434.56" r="17.42"></circle><circle class="cls-34" cx="808.34" cy="833.62" r="17.42"></circle><path class="cls-3" d="M564.62,534.91V756.82a13.06,13.06,0,0,1-13.06,13H193.33a13,13,0,0,1-13.05-13V534.91Z"></path><path class="cls-8" d="M564.62,509.62v25.29H180.28V509.62a13,13,0,0,1,13.05-13.05H551.56A13.06,13.06,0,0,1,564.62,509.62Z"></path><rect class="cls-25" x="195.84" y="510" width="48.98" height="14.09" rx="6.14"></rect><rect class="cls-8" x="195.84" y="556.7" width="48.98" height="14.09" rx="4.7"></rect><rect class="cls-35" x="195.84" y="592.58" width="94.69" height="14.09" rx="4.7"></rect><rect class="cls-36" x="335.37" y="556.7" width="94.69" height="14.09" rx="4.7"></rect><rect class="cls-8" x="473.03" y="556.7" width="78.12" height="14.09" rx="4.7"></rect><rect class="cls-8" x="253.89" y="556.7" width="48.98" height="14.09" rx="4.7"></rect><rect class="cls-22" x="473.03" y="510" width="48.98" height="14.09" rx="6.14"></rect><rect class="cls-22" x="526.99" y="510" width="19.7" height="14.09" rx="6.14"></rect><path class="cls-37" d="M323.07,591.69H564.62a0,0,0,0,1,0,0V756.81a13.07,13.07,0,0,1-13.07,13.07H323.07a0,0,0,0,1,0,0V591.69A0,0,0,0,1,323.07,591.69Z"></path><rect class="cls-38" x="196.74" y="672.89" width="30.75" height="99.23" rx="6.43"></rect><rect class="cls-39" x="232.27" y="706.21" width="30.75" height="65.92" rx="6.43"></rect><rect class="cls-40" x="269" y="733.85" width="30.75" height="38.27" rx="6.43"></rect><path class="cls-41" d="M485.76,710a59.84,59.84,0,1,1-.17-4.5C485.7,707,485.76,708.51,485.76,710Z"></path><path class="cls-8" d="M490.79,710a59.68,59.68,0,1,1-.16-4.5C490.74,707,490.79,708.51,490.79,710Z"></path><path class="cls-25" d="M490.63,705.53,431,705.46V650.2l9.68.78A59.86,59.86,0,0,1,490.63,705.53Z"></path><rect class="cls-8" x="199.86" y="672.89" width="30.75" height="99.23" rx="7.14"></rect><rect class="cls-8" x="235.4" y="706.21" width="30.75" height="65.92" rx="7.14"></rect><rect class="cls-8" x="272.12" y="733.85" width="30.75" height="38.27" rx="7.14"></rect><rect class="cls-42" x="703.25" y="837.26" width="274.16" height="167.51" rx="9.86"></rect><path class="cls-13" d="M956.86,850.35c-2,0-3.87,0-5.77-.1a1.07,1.07,0,0,0-1.14.64c-3.23,6.1-6.49,12.18-9.73,18.27-.13.24-.24.48-.4.81,2,0,3.83.07,5.7.07.18,0,.42-.25.52-.45a12.63,12.63,0,0,0,1.18-2.39c.5-1.63,1.52-2.27,3.36-1.94a17.82,17.82,0,0,0,2.54.06c.13,1.51.24,2.89.38,4.26,0,.21.25.57.38.58,1.81.06,3.62.08,5.51.11C958.54,863.6,957.71,857,956.86,850.35ZM950.11,861l2.15-4.29.14,0c.14,1.41.27,2.81.42,4.32Z"></path><path class="cls-13" d="M894.09,849.44l9.49.15,1.28,12.66.47-.87c1.91-3.72,3.82-7.46,5.75-11.18.12-.22.41-.51.63-.51,1.92,0,3.84,0,5.87.06-.16.33-.27.57-.4.8-3.43,6.08-6.88,12.16-10.3,18.25a1.17,1.17,0,0,1-1.23.67c-1.68-.07-3.36-.07-5.16-.1l-2.44-16.08,4.27,2.5.12-.14Z"></path><path class="cls-13" d="M924.87,868.29l1.82-4.08a29.85,29.85,0,0,0,3.75,1.17,7.64,7.64,0,0,0,3-.16,1.22,1.22,0,0,0,.45-2.23,10.84,10.84,0,0,0-1.3-.86,29.84,29.84,0,0,1-3.28-2.14,5.2,5.2,0,0,1-.22-7.77,9.59,9.59,0,0,1,7.16-2.47,10.86,10.86,0,0,1,5.45,1.33l-1.7,4.16c-1.37-.31-2.65-.67-3.95-.86a3.83,3.83,0,0,0-1.79.26c-1.07.37-1.25,1.26-.35,1.93s1.83,1,2.67,1.65a12.88,12.88,0,0,1,2.73,2.27c1.92,2.44,1,6.3-1.74,8s-5.8,1.84-9,1.31A8.47,8.47,0,0,1,924.87,868.29Z"></path><path class="cls-13" d="M926,849.88c-.74,3.61-1.46,7.09-2.18,10.58-.59,2.87-1.2,5.73-1.76,8.6-.11.51-.32.67-.89.65-1.59-.06-3.19-.06-4.89-.09.32-1.6.62-3.09.93-4.57,1-4.84,2-9.67,3-14.51.11-.56.31-.78,1-.75C922.78,849.87,924.36,849.86,926,849.88Z"></path><rect class="cls-22" x="808.52" y="972.15" width="150.87" height="18.57" rx="6.74"></rect><path class="cls-43" d="M754.94,906.79l-33.69-.1a5.29,5.29,0,0,1-5.42-5.13V879.3a5.26,5.26,0,0,1,5.42-5.11l33.69.1a5.29,5.29,0,0,1,5.42,5.13v22.26A5.27,5.27,0,0,1,754.94,906.79Z"></path><line class="cls-44" x1="734.34" y1="894.64" x2="741.7" y2="894.66"></line><line class="cls-45" x1="734.34" y1="885.02" x2="741.7" y2="885.04"></line><line class="cls-46" x1="725.01" y1="879.83" x2="725.01" y2="874.2"></line><line class="cls-47" x1="722.63" y1="907.39" x2="722.63" y2="901.22"></line><line class="cls-48" x1="751.93" y1="879.91" x2="751.93" y2="874.28"></line><line class="cls-49" x1="749.54" y1="907.47" x2="749.54" y2="901.3"></line><line class="cls-50" x1="741.7" y1="889.85" x2="760.36" y2="889.9"></line><line class="cls-51" x1="715.69" y1="889.78" x2="734.34" y2="889.83"></line><path class="cls-52" d="M715.69,879.81l13.79,0c2.69,0,4.86,1.78,4.86,4V896.6c0,2.19-2.17,3.95-4.86,3.94l-13.79,0"></path><path class="cls-53" d="M760.36,879.93l-13.8,0c-2.68,0-4.86,1.76-4.86,3.94v12.79c0,2.19,2.18,4,4.86,4l13.8,0"></path><path class="cls-54" d="M754.94,906.79l-33.69-.1a5.29,5.29,0,0,1-5.42-5.13V879.3a5.26,5.26,0,0,1,5.42-5.11l33.69.1a5.29,5.29,0,0,1,5.42,5.13v22.26A5.27,5.27,0,0,1,754.94,906.79Z"></path><rect class="cls-21" x="1010.84" y="522.54" width="229.38" height="70.57" rx="8.69"></rect><rect class="cls-55" x="1103.85" y="553.82" width="116.1" height="8.02" rx="3.48"></rect><rect class="cls-55" x="1103.85" y="570.19" width="116.1" height="8.02" rx="3.48"></rect><ellipse class="cls-55" cx="1035.61" cy="570.27" rx="4.59" ry="4.56"></ellipse><ellipse class="cls-55" cx="1055.66" cy="570.27" rx="4.23" ry="4.2"></ellipse><ellipse class="cls-55" cx="1074.4" cy="570.27" rx="4.63" ry="4.6"></ellipse><rect class="cls-55" x="1015.72" y="590.92" width="218.54" height="2.4" rx="1.04"></rect><rect class="cls-56" x="1015.72" y="522.75" width="218.54" height="2.4" rx="1.04"></rect><ellipse class="cls-13" cx="1036.51" cy="570.27" rx="4.59" ry="4.56"></ellipse><ellipse class="cls-13" cx="1056.56" cy="570.27" rx="4.23" ry="4.2"></ellipse><ellipse class="cls-13" cx="1075.31" cy="570.27" rx="4.63" ry="4.6"></ellipse><rect class="cls-8" x="1105.61" y="553.82" width="116.1" height="8.02" rx="3.48"></rect><rect class="cls-8" x="1105.61" y="570.19" width="116.1" height="8.02" rx="3.48"></rect><rect class="cls-8" x="1105.61" y="553.82" width="116.1" height="8.02" rx="3.48"></rect><rect class="cls-8" x="1105.61" y="570.19" width="116.1" height="8.02" rx="3.48"></rect><rect class="cls-21" x="1010.84" y="594.36" width="229.38" height="70.57" rx="8.69"></rect><rect class="cls-55" x="1103.85" y="625.64" width="116.1" height="8.02" rx="3.48"></rect><rect class="cls-55" x="1103.85" y="642.01" width="116.1" height="8.02" rx="3.48"></rect><ellipse class="cls-55" cx="1035.61" cy="642.09" rx="4.59" ry="4.56"></ellipse><ellipse class="cls-55" cx="1055.66" cy="642.09" rx="4.23" ry="4.2"></ellipse><ellipse class="cls-55" cx="1074.4" cy="642.09" rx="4.63" ry="4.6"></ellipse><rect class="cls-55" x="1015.72" y="662.74" width="218.54" height="2.4" rx="1.04"></rect><rect class="cls-56" x="1015.72" y="594.57" width="218.54" height="2.4" rx="1.04"></rect><ellipse class="cls-13" cx="1036.51" cy="642.09" rx="4.59" ry="4.56"></ellipse><ellipse class="cls-13" cx="1056.56" cy="642.09" rx="4.23" ry="4.2"></ellipse><ellipse class="cls-13" cx="1075.31" cy="642.09" rx="4.63" ry="4.6"></ellipse><rect class="cls-8" x="1105.61" y="625.64" width="116.1" height="8.02" rx="3.48"></rect><rect class="cls-8" x="1105.61" y="642.01" width="116.1" height="8.02" rx="3.48"></rect><rect class="cls-8" x="1105.61" y="625.64" width="116.1" height="8.02" rx="3.48"></rect><rect class="cls-8" x="1105.61" y="642.01" width="116.1" height="8.02" rx="3.48"></rect><rect class="cls-21" x="1010.84" y="666.19" width="229.38" height="70.57" rx="8.69"></rect><rect class="cls-55" x="1015.72" y="734.57" width="218.54" height="2.4" rx="1.04"></rect><rect class="cls-56" x="1015.72" y="666.39" width="218.54" height="2.4" rx="1.04"></rect><rect class="cls-55" x="1022.56" y="682.49" width="207.29" height="47.85" rx="4.25"></rect><g class="cls-57"><g class="cls-58"><path class="cls-59" d="M1188.4,688.05a1.08,1.08,0,0,0,.92,1.05l1.76.26a1.12,1.12,0,0,1,.77.51l2.48,4.13a1.06,1.06,0,0,1,.09.92l-.6,1.69a1.08,1.08,0,0,0,.48,1.3l1.42.79a1.06,1.06,0,0,0,1.36-.26l1.11-1.37a1.05,1.05,0,0,1,.82-.4l4.83-.09a1.1,1.1,0,0,1,.84.39l1.17,1.39a1.08,1.08,0,0,0,1.37.24l1.39-.82a1.08,1.08,0,0,0,.47-1.32l-.62-1.62a1.08,1.08,0,0,1,.07-.91l2.45-4.41a1.08,1.08,0,0,1,.74-.54l1.75-.33a1.08,1.08,0,0,0,.88-1.08l0-1.61a1.08,1.08,0,0,0-.92-1.05l-1.77-.27a1.06,1.06,0,0,1-.76-.51l-2.48-4.13a1,1,0,0,1-.09-.91l.6-1.69a1.08,1.08,0,0,0-.49-1.31l-1.41-.79a1.08,1.08,0,0,0-1.36.27l-1.11,1.37a1.1,1.1,0,0,1-.82.4l-4.83.08a1.06,1.06,0,0,1-.84-.38l-1.17-1.39a1.07,1.07,0,0,0-1.37-.24l-1.4.82a1.07,1.07,0,0,0-.46,1.31l.62,1.63a1.05,1.05,0,0,1-.07.9l-2.45,4.42a1.1,1.1,0,0,1-.74.54l-1.75.32a1.08,1.08,0,0,0-.88,1.08Zm13-5.49a4.44,4.44,0,1,1-4.45,4.6A4.45,4.45,0,0,1,1201.37,682.56Z"></path><path class="cls-59" d="M1211.33,681a1.08,1.08,0,0,0,.91,1l1.77.26a1.08,1.08,0,0,1,.76.51l2.49,4.13a1.1,1.1,0,0,1,.09.92l-.61,1.69a1.08,1.08,0,0,0,.49,1.3l1.41.8a1.09,1.09,0,0,0,1.37-.27l1.11-1.37a1.05,1.05,0,0,1,.82-.4l4.82-.08a1.06,1.06,0,0,1,.85.38l1.16,1.39a1.09,1.09,0,0,0,1.37.24l1.4-.82a1.08,1.08,0,0,0,.47-1.31l-.62-1.63a1.07,1.07,0,0,1,.06-.91l2.46-4.41a1.06,1.06,0,0,1,.74-.54l1.75-.33a1.07,1.07,0,0,0,.87-1.08l0-1.61a1.07,1.07,0,0,0-.91-1l-1.77-.26a1.06,1.06,0,0,1-.76-.52l-2.48-4.12a1.11,1.11,0,0,1-.1-.92l.61-1.69a1.07,1.07,0,0,0-.49-1.3l-1.41-.79a1.08,1.08,0,0,0-1.37.26l-1.11,1.37a1.08,1.08,0,0,1-.82.4l-4.82.08a1.06,1.06,0,0,1-.85-.38l-1.16-1.39a1.09,1.09,0,0,0-1.37-.24l-1.4.82a1.08,1.08,0,0,0-.46,1.31l.61,1.63a1.09,1.09,0,0,1-.06.9l-2.45,4.42a1.1,1.1,0,0,1-.75.54l-1.74.33a1.07,1.07,0,0,0-.88,1.08Zm13-5.48a4.44,4.44,0,1,1-4.44,4.6A4.44,4.44,0,0,1,1224.29,675.48Z"></path><path class="cls-59" d="M1206.25,704a1.08,1.08,0,0,0,.92,1l1.77.26a1.12,1.12,0,0,1,.76.51l2.48,4.13a1.07,1.07,0,0,1,.09.92l-.6,1.69a1.07,1.07,0,0,0,.49,1.3l1.41.79a1.08,1.08,0,0,0,1.37-.26l1.11-1.37a1,1,0,0,1,.82-.4l4.82-.09a1.1,1.1,0,0,1,.84.39l1.17,1.39a1.09,1.09,0,0,0,1.37.24l1.4-.82a1.08,1.08,0,0,0,.46-1.31l-.62-1.63a1.11,1.11,0,0,1,.07-.91l2.45-4.41a1.1,1.1,0,0,1,.74-.54l1.75-.33a1.07,1.07,0,0,0,.88-1.08l0-1.61a1.08,1.08,0,0,0-.92-1l-1.76-.26a1.1,1.1,0,0,1-.77-.52l-2.48-4.12a1.07,1.07,0,0,1-.09-.92l.6-1.69a1.06,1.06,0,0,0-.48-1.3l-1.42-.79a1.06,1.06,0,0,0-1.36.26l-1.11,1.37a1.08,1.08,0,0,1-.82.4l-4.82.08a1.06,1.06,0,0,1-.85-.38l-1.17-1.39a1.08,1.08,0,0,0-1.37-.24l-1.39.82a1.08,1.08,0,0,0-.47,1.31l.62,1.63a1.05,1.05,0,0,1-.07.9l-2.45,4.42a1.08,1.08,0,0,1-.74.54l-1.75.33a1.07,1.07,0,0,0-.88,1.07Zm13-5.48a4.44,4.44,0,1,1-4.45,4.6A4.45,4.45,0,0,1,1219.22,698.48Z"></path><path class="cls-59" d="M1190.35,734.72a1.08,1.08,0,0,0,.92,1l1.76.27a1.06,1.06,0,0,1,.77.51l2.48,4.12a1.07,1.07,0,0,1,.09.92l-.6,1.69a1.06,1.06,0,0,0,.48,1.3l1.42.8a1.08,1.08,0,0,0,1.36-.27l1.11-1.37a1.08,1.08,0,0,1,.82-.4l4.83-.08a1.06,1.06,0,0,1,.84.38l1.16,1.39a1.07,1.07,0,0,0,1.37.24l1.4-.82a1.08,1.08,0,0,0,.47-1.31l-.62-1.63a1.05,1.05,0,0,1,.07-.9l2.45-4.42a1,1,0,0,1,.74-.53l1.75-.33a1.09,1.09,0,0,0,.88-1.08l0-1.62a1.09,1.09,0,0,0-.92-1l-1.77-.26a1.08,1.08,0,0,1-.76-.51l-2.48-4.13a1.06,1.06,0,0,1-.09-.92l.6-1.69a1.07,1.07,0,0,0-.49-1.3L1209,722a1.08,1.08,0,0,0-1.37.26l-1.1,1.37a1.09,1.09,0,0,1-.83.4l-4.82.09a1.1,1.1,0,0,1-.84-.39l-1.17-1.39a1.07,1.07,0,0,0-1.37-.23l-1.4.81a1.09,1.09,0,0,0-.46,1.32l.61,1.62a1.07,1.07,0,0,1-.06.91l-2.45,4.41a1.1,1.1,0,0,1-.74.54l-1.75.33a1.08,1.08,0,0,0-.88,1.08Zm13-5.48a4.44,4.44,0,1,1-4.45,4.6A4.45,4.45,0,0,1,1203.32,729.24Z"></path><path class="cls-59" d="M1213.28,727.64a1.07,1.07,0,0,0,.91,1l1.77.27a1,1,0,0,1,.76.51l2.49,4.13a1.1,1.1,0,0,1,.09.92l-.61,1.68a1.09,1.09,0,0,0,.49,1.31l1.41.79A1.08,1.08,0,0,0,1222,738l1.11-1.38a1.12,1.12,0,0,1,.82-.4l4.82-.08a1.07,1.07,0,0,1,.84.39l1.17,1.38a1.07,1.07,0,0,0,1.37.24l1.4-.81a1.09,1.09,0,0,0,.46-1.32l-.61-1.63a1.05,1.05,0,0,1,.06-.9l2.46-4.42a1,1,0,0,1,.74-.53l1.74-.33a1.08,1.08,0,0,0,.88-1.08l0-1.62a1.06,1.06,0,0,0-.92-1l-1.76-.27a1,1,0,0,1-.76-.51l-2.49-4.13a1.1,1.1,0,0,1-.09-.92l.61-1.68a1.09,1.09,0,0,0-.49-1.31l-1.41-.79a1.08,1.08,0,0,0-1.37.26l-1.11,1.37a1.09,1.09,0,0,1-.82.41l-4.82.08a1.1,1.1,0,0,1-.85-.39l-1.16-1.39a1.07,1.07,0,0,0-1.37-.23l-1.4.82a1.07,1.07,0,0,0-.46,1.31l.61,1.62a1.11,1.11,0,0,1-.06.91l-2.46,4.42a1,1,0,0,1-.74.53l-1.74.33a1.08,1.08,0,0,0-.88,1.08Zm13-5.49a4.44,4.44,0,1,1-4.44,4.6A4.46,4.46,0,0,1,1226.24,722.15Z"></path><path class="cls-59" d="M1208.2,750.64a1.08,1.08,0,0,0,.92,1l1.77.27a1.09,1.09,0,0,1,.76.51l2.48,4.13a1.06,1.06,0,0,1,.09.92l-.6,1.68a1.08,1.08,0,0,0,.49,1.31l1.41.79a1.06,1.06,0,0,0,1.36-.26l1.11-1.38a1.12,1.12,0,0,1,.82-.4l4.83-.08a1.1,1.1,0,0,1,.84.39l1.17,1.38a1.06,1.06,0,0,0,1.37.24l1.4-.82a1.07,1.07,0,0,0,.46-1.31l-.62-1.63a1.09,1.09,0,0,1,.07-.9l2.45-4.42a1.09,1.09,0,0,1,.74-.53l1.75-.33a1.08,1.08,0,0,0,.88-1.08l0-1.62a1.07,1.07,0,0,0-.92-1l-1.76-.27a1.12,1.12,0,0,1-.77-.51l-2.48-4.13a1.06,1.06,0,0,1-.09-.92l.6-1.69a1.07,1.07,0,0,0-.49-1.3l-1.41-.79a1.06,1.06,0,0,0-1.36.26l-1.11,1.37a1.05,1.05,0,0,1-.82.4l-4.83.09a1.1,1.1,0,0,1-.84-.39l-1.17-1.39a1.07,1.07,0,0,0-1.37-.23l-1.39.81a1.09,1.09,0,0,0-.47,1.32l.62,1.62a1.08,1.08,0,0,1-.07.91l-2.45,4.42a1.07,1.07,0,0,1-.74.53l-1.75.33a1.08,1.08,0,0,0-.88,1.08Zm13-5.49a4.44,4.44,0,1,1-4.45,4.6A4.46,4.46,0,0,1,1221.17,745.15Z"></path><path class="cls-59" d="M1006.28,706.68a1.89,1.89,0,0,0,1.6,1.82l3.07.46a1.91,1.91,0,0,1,1.33.89l4.32,7.18a1.88,1.88,0,0,1,.16,1.6l-1,2.93a1.87,1.87,0,0,0,.85,2.27l2.45,1.38a1.87,1.87,0,0,0,2.38-.46l1.93-2.38a1.89,1.89,0,0,1,1.43-.7l8.39-.15a1.88,1.88,0,0,1,1.46.68l2,2.41a1.89,1.89,0,0,0,2.39.42l2.43-1.43a1.88,1.88,0,0,0,.81-2.28l-1.08-2.83a1.9,1.9,0,0,1,.12-1.58l4.27-7.68a1.85,1.85,0,0,1,1.29-.93l3-.58a1.86,1.86,0,0,0,1.52-1.87l-.05-2.81a1.87,1.87,0,0,0-1.6-1.82l-3.07-.47a1.84,1.84,0,0,1-1.32-.89l-4.32-7.18a1.87,1.87,0,0,1-.16-1.6l1-2.93a1.88,1.88,0,0,0-.85-2.27l-2.46-1.37a1.86,1.86,0,0,0-2.37.45l-1.93,2.39a1.89,1.89,0,0,1-1.43.7l-8.39.14a1.89,1.89,0,0,1-1.47-.67l-2-2.42a1.87,1.87,0,0,0-2.38-.41l-2.43,1.43a1.86,1.86,0,0,0-.81,2.28l1.07,2.83a1.84,1.84,0,0,1-.11,1.57l-4.27,7.69a1.9,1.9,0,0,1-1.29.93l-3,.57a1.88,1.88,0,0,0-1.53,1.88Zm22.56-9.54a7.72,7.72,0,1,1-7.73,8A7.75,7.75,0,0,1,1028.84,697.14Z"></path><path class="cls-59" d="M1046.17,694.35a1.88,1.88,0,0,0,1.6,1.82l3.07.46a1.87,1.87,0,0,1,1.32.89l4.32,7.18a1.84,1.84,0,0,1,.16,1.6l-1.05,2.93a1.87,1.87,0,0,0,.85,2.27l2.46,1.38a1.85,1.85,0,0,0,2.37-.46l1.94-2.38a1.85,1.85,0,0,1,1.42-.7l8.39-.15a1.89,1.89,0,0,1,1.47.68l2,2.41a1.87,1.87,0,0,0,2.38.42l2.44-1.43a1.86,1.86,0,0,0,.8-2.28l-1.07-2.83a1.9,1.9,0,0,1,.11-1.58l4.27-7.68a1.85,1.85,0,0,1,1.29-.93l3-.58a1.86,1.86,0,0,0,1.53-1.87l-.06-2.81a1.85,1.85,0,0,0-1.59-1.82l-3.07-.47a1.88,1.88,0,0,1-1.33-.89l-4.32-7.18a1.91,1.91,0,0,1-.16-1.6l1.06-2.93a1.88,1.88,0,0,0-.86-2.27l-2.45-1.37a1.88,1.88,0,0,0-2.38.45l-1.93,2.39a1.88,1.88,0,0,1-1.42.7l-8.39.14a1.91,1.91,0,0,1-1.48-.67l-2-2.42a1.89,1.89,0,0,0-2.39-.41l-2.43,1.42a1.89,1.89,0,0,0-.81,2.29l1.08,2.83a1.88,1.88,0,0,1-.12,1.57l-4.26,7.69a1.93,1.93,0,0,1-1.29.93l-3,.57a1.87,1.87,0,0,0-1.53,1.88Zm22.56-9.54a7.72,7.72,0,1,1-7.74,8A7.74,7.74,0,0,1,1068.73,684.81Z"></path><path class="cls-59" d="M1037.34,734.36a1.89,1.89,0,0,0,1.6,1.82l3.07.46a1.91,1.91,0,0,1,1.33.89l4.32,7.18a1.88,1.88,0,0,1,.16,1.6l-1.06,2.94a1.88,1.88,0,0,0,.85,2.26l2.46,1.38a1.87,1.87,0,0,0,2.38-.46l1.93-2.38a1.88,1.88,0,0,1,1.42-.7l8.4-.15a1.88,1.88,0,0,1,1.46.68l2,2.41a1.88,1.88,0,0,0,2.38.42l2.44-1.43a1.88,1.88,0,0,0,.81-2.28l-1.08-2.83a1.9,1.9,0,0,1,.12-1.58l4.26-7.68a1.87,1.87,0,0,1,1.29-.93l3-.57a1.87,1.87,0,0,0,1.53-1.88l0-2.81a1.87,1.87,0,0,0-1.6-1.82l-3.07-.47a1.87,1.87,0,0,1-1.33-.88l-4.31-7.19a1.85,1.85,0,0,1-.16-1.59l1-2.94a1.88,1.88,0,0,0-.85-2.27l-2.46-1.37a1.86,1.86,0,0,0-2.37.45L1065.4,715a1.9,1.9,0,0,1-1.43.7l-8.39.14a1.88,1.88,0,0,1-1.47-.67l-2-2.42a1.87,1.87,0,0,0-2.38-.41l-2.43,1.43a1.85,1.85,0,0,0-.81,2.28l1.07,2.83a1.88,1.88,0,0,1-.11,1.57l-4.27,7.69a1.87,1.87,0,0,1-1.29.93l-3,.57a1.88,1.88,0,0,0-1.53,1.88Zm22.56-9.54a7.72,7.72,0,1,1-7.73,8A7.74,7.74,0,0,1,1059.9,724.82Z"></path><path class="cls-55" d="M1245.28,685.69v-6.4h-2.61v-7H1226.4v7H1027.11v-7h-16.27v76.24h16.27v-15H1226.4v15h16.27v-15h2.61v-6.4h-2.61V685.69Zm-23.86,41.45H1030.26a5,5,0,0,1-5-4.94V690.63a5,5,0,0,1,5-4.94h191.16a5,5,0,0,1,5,4.94V722.2A5,5,0,0,1,1221.42,727.14Z"></path></g></g><circle class="cls-13" cx="798.92" cy="658.99" r="56.05"></circle><path class="cls-8" d="M841.24,676.81a19.38,19.38,0,0,1-.79,2.21,16.26,16.26,0,0,1-8.19,8.58,15.6,15.6,0,0,1-5.94,1.35c-.59,0-1.19,0-1.81,0v0H775.35a17.75,17.75,0,0,1-14.11-5.88c-.07-.08-.15-.16-.22-.25l-.24-.28c-.34-.4-.66-.82-1-1.25l-.31-.45c-.22-.32-.43-.66-.63-1l-.28-.5-.09-.15-.19-.36c-.09-.17-.18-.34-.26-.51l-.21-.44a23.17,23.17,0,0,1-1.05-2.77c-2.38-7.75-.58-16.85,6.52-21.92a7.32,7.32,0,0,0,2.24-2.56,7,7,0,0,0,.8-3.29c-.06-10.7,7.42-18.34,16.45-21.25s19.64-1.09,25.84,7.12a7.36,7.36,0,0,0,3.15,2.41,6.47,6.47,0,0,0,3.92.28,13.09,13.09,0,0,1,11.76,3.33l.43.41c.11.1.21.21.31.32l.14.14.33.37,0,0,.38.45c.13.16.25.32.37.49s.23.32.34.49.22.33.32.5.21.34.3.52a12.23,12.23,0,0,1,1.47,7.65,5.43,5.43,0,0,0-.06,1,6.42,6.42,0,0,0,.72,2.83,8,8,0,0,0,2.63,2.94,16.1,16.1,0,0,1,6.79,12.2A19.87,19.87,0,0,1,841.24,676.81Z"></path><g class="cls-60"><path class="cls-59" d="M830.43,643a12.78,12.78,0,0,1,1.49,4.46,14.74,14.74,0,0,0-.86-1.9l-.3-.52c-.1-.17-.21-.34-.32-.5s-.22-.33-.34-.49l-.37-.49-.38-.45a.1.1,0,0,1,0-.05l-.33-.36-.14-.15-.31-.31-.43-.42a13.08,13.08,0,0,0-11.76-3.32,6.55,6.55,0,0,1-3.92-.29,7.28,7.28,0,0,1-3.15-2.41c-6.2-8.21-16.8-10-25.84-7.11S766.92,639.21,767,649.91a7,7,0,0,1-.8,3.29,7.15,7.15,0,0,1-2.24,2.56c-6.34,4.53-8.46,12.27-7.14,19.39v0c-2.38-7.75-.58-16.85,6.52-21.92a7.32,7.32,0,0,0,2.24-2.56,7,7,0,0,0,.8-3.29c-.06-10.7,7.42-18.34,16.45-21.25s19.64-1.09,25.84,7.12a7.36,7.36,0,0,0,3.15,2.41,6.47,6.47,0,0,0,3.92.28,13.09,13.09,0,0,1,11.76,3.33l.43.41c.11.1.21.21.31.32l.14.14.33.37,0,0,.38.45c.13.16.25.32.37.49s.23.32.34.49.22.33.32.5S830.34,642.8,830.43,643Z"></path><path class="cls-59" d="M841.78,668a15.46,15.46,0,0,0-6-8.08,7.89,7.89,0,0,1-2.63-2.94,6.53,6.53,0,0,1-.72-2.74l.09.18a8,8,0,0,0,2.63,2.94A15.82,15.82,0,0,1,841.78,668Z"></path></g><g class="cls-60"><path class="cls-59" d="M832.53,653.19a5.49,5.49,0,0,0-.06,1v.08a6.37,6.37,0,0,1-.63-2.65,5.43,5.43,0,0,1,.06-1,11.37,11.37,0,0,0,0-3.19A11.88,11.88,0,0,1,832.53,653.19Z"></path></g><path class="cls-13" d="M832.35,669.12a5.75,5.75,0,0,0-4.05-1.68,6,6,0,0,0-.95.08l-2.42-6.28L822.52,655a5.83,5.83,0,0,0,1.48-1.07,5.73,5.73,0,1,0-8.1-8.1,5.81,5.81,0,0,0-1.34,2.1l-10.46-1.65L795.77,645a7.38,7.38,0,0,0,0-.82,7.83,7.83,0,1,0-13.35,5.54,8,8,0,0,0,.94.8L780,657.15l-3.53,7A7.39,7.39,0,1,0,779,676.24a7.49,7.49,0,0,0,1.87-3.17c2.13.17,4.27.31,6.41.44q6.84.4,13.69.55,3.44.08,6.85.08c2.29,0,4.57,0,6.85-.14l6.84-.21,1.13,0a5.73,5.73,0,1,0,9.75-4.64ZM781.67,658l3.63-6.51A7.73,7.73,0,0,0,788,652a7.82,7.82,0,0,0,7.58-5.89l8.27,1.66,10.38,2.09v0a5.54,5.54,0,0,0,.35,2q-8.51,5-17.45,9.22-8.16,3.84-16.63,7a7.54,7.54,0,0,0-1.53-2.25,8.15,8.15,0,0,0-1.11-.91Zm39.79,14.7-6.83-.05c-2.27,0-4.54,0-6.81-.12s-4.54-.2-6.81-.33q-6.81-.4-13.59-1.06-3.09-.3-6.17-.65s0,0,0,0l-.29-1.19q8.6-3,16.91-6.67,9.1-4,17.83-8.93l.25.27a5.71,5.71,0,0,0,4.05,1.68h1.24a.09.09,0,0,1,.09.06l2,6.15,2.12,6.39a5.6,5.6,0,0,0-1.19.91,5.71,5.71,0,0,0-1.66,3.6Z"></path><rect class="cls-1" width="1460.86" height="1080"></rect></g></g></g></svg>