<svg xmlns="http://www.w3.org/2000/svg" viewBox="0 0 1024 1024"><defs><style>.cls-1{isolation:isolate;}.cls-2{fill:#0c7ff2;}.cls-3{fill:#455666;}.cls-3,.cls-5{mix-blend-mode:multiply;opacity:0.57;}.cls-4{fill:#2e2e76;}.cls-5{fill:#606060;}.cls-6{fill:#ebf0f5;mix-blend-mode:overlay;opacity:0.2;}.cls-7{fill:none;}</style></defs><g class="cls-1"><g id="Layer_2" data-name="Layer 2"><g id="Layer_1-2" data-name="Layer 1"><polygon class="cls-2" points="874.36 222.84 874.36 316.22 748.03 442.56 736.68 453.89 711.53 398.71 707.45 389.74 719.73 377.46 874.36 222.84"></polygon><polygon class="cls-3" points="748.03 442.56 736.68 453.89 711.53 398.71 707.45 389.74 719.73 377.46 748.03 442.56"></polygon><path class="cls-4" d="M843.62,558.18a29.17,29.17,0,0,1-23.81,29.23l-47.36,9a29,29,0,0,0-20.12,14.54L685.85,730.6a29.24,29.24,0,0,0-1.79,24.54l16.75,44.09a29.25,29.25,0,0,1-12.59,35.61L650.29,857a29.21,29.21,0,0,1-37.14-6.48l-31.6-37.6a29.19,29.19,0,0,0-22.86-10.49l-130.75,2.26a29.35,29.35,0,0,0-22.24,10.86l-30.07,37.18a29.22,29.22,0,0,1-37,7.17l-38.3-21.49a29.24,29.24,0,0,1-13.21-35.34l5.86-16.36,97.81-96.36a21,21,0,0,1,28.36-1.06l41,34.81A21,21,0,0,0,488.63,723l36.59-36.59A149.26,149.26,0,0,0,646.49,540c0-1.91,0-3.84-.09-5.77a148.05,148.05,0,0,0-12.68-54.81c-.42-.95-.85-1.9-1.29-2.84q-2.29-4.86-4.91-9.54C601.89,421.41,553,390.45,497.45,390.4A149.33,149.33,0,0,0,348,545.1a147.74,147.74,0,0,0,13.29,56.16l-86.92,86.92-40.69-67.62A29.19,29.19,0,0,0,213,606.7l-47.88-7.22a29.19,29.19,0,0,1-24.87-28.33l-.79-43.84a29.21,29.21,0,0,1,23.81-29.23l47.36-8.91a29.28,29.28,0,0,0,20.12-14.54L297.23,354.9A29.2,29.2,0,0,0,299,330.35l-16.7-44.09a29.17,29.17,0,0,1,12.59-35.56l37.88-22.18A29.2,29.2,0,0,1,369.88,235l31.61,37.67A29.36,29.36,0,0,0,424.4,283l130.75-2.26a29.2,29.2,0,0,0,22.23-10.85l30.08-37.19a29.15,29.15,0,0,1,37-7.12l38.3,21.45A29.21,29.21,0,0,1,696,282.41l-16.38,45.73a29.24,29.24,0,0,0,2.47,24.91l67.27,111.89a29.12,29.12,0,0,0,20.71,13.86L817.91,486a29.21,29.21,0,0,1,24.87,28.34Z"></path><path class="cls-2" d="M645,537.19l-8.3,8.46L484.72,700.43l-2.83,2.83a9.51,9.51,0,0,1-12.73.66,10.55,10.55,0,0,1-.79-.71l-50.83-51.44-6.43-6.52a9.53,9.53,0,0,0-13.52,0L291.4,751.4,187,855.81a9.56,9.56,0,0,1-13.42.07L152.27,835l-5.79-5.68-.52-.5a9.52,9.52,0,0,1-.07-13.56L399.05,562.11a9.55,9.55,0,0,1,13.49,0l52.55,52.54a9.52,9.52,0,0,0,13.48,0l136.1-138.87L626,464.24q2.61,4.67,4.91,9.53a147.93,147.93,0,0,1,14,57.66C644.94,533.35,645,535.28,645,537.19Z"></path><path class="cls-2" d="M910.35,215.81a9.76,9.76,0,0,1,9.77,9.77v145a9.76,9.76,0,0,1-16.67,6.9L773.73,247.74l-15.26-15.26a9.76,9.76,0,0,1,6.9-16.67Z"></path><polygon class="cls-5" points="809.94 285.05 849.92 341.78 858.2 332.38 810.36 285.52 809.94 285.05"></polygon><path class="cls-6" d="M919.52,225v25.16s0-31.32-14.45-28.91S770.2,217.62,765.38,220s34.74,31.32,7.74,27.1l-15.25-15.25a9.76,9.76,0,0,1,6.9-16.67h145A9.76,9.76,0,0,1,919.52,225Z"></path><path class="cls-6" d="M632.23,478.48l-151,157.7a9.28,9.28,0,0,1-13.5-.14l-54.93-59.59a9.28,9.28,0,0,0-13.38-.28l-253,253.18-.52-.5a9.54,9.54,0,0,1-.07-13.57L399.05,562.12a9.53,9.53,0,0,1,13.49,0l52.55,52.54a9.54,9.54,0,0,0,13.48,0L626,466.11q2.63,4.67,4.91,9.53C631.38,476.58,631.82,477.53,632.23,478.48Z"></path><path class="cls-6" d="M811.55,292.63l-1.79,3.76a2.35,2.35,0,0,1-.41.58l-96,99.27a2.24,2.24,0,0,1-3.63-.62l-1.83-4a2.24,2.24,0,0,1,.45-2.49l99.61-99a2.22,2.22,0,0,1,2.24-.55h0A2.21,2.21,0,0,1,811.55,292.63Z"></path><path class="cls-3" d="M645,537.19l-8.3,8.46c-1.53-27.88-14.39-55.68-22-69.87L626,464.24q2.61,4.67,4.91,9.53a147.93,147.93,0,0,1,14,57.66C644.94,533.35,645,535.28,645,537.19Z"></path><rect class="cls-7" width="1024" height="1024"></rect></g></g></g></svg>