<svg xmlns="http://www.w3.org/2000/svg" viewBox="0 0 500.44 341.64"><defs><style>.cls-1{isolation:isolate;}.cls-2,.cls-9{fill:#cee0f2;}.cls-3{fill:#9caab8;mix-blend-mode:multiply;opacity:0.48;}.cls-10,.cls-11,.cls-4{fill:#9dc7f2;}.cls-5,.cls-8{fill:#2e2e76;}.cls-6{fill:#0c7ff2;}.cls-7{fill:#fff;}.cls-10,.cls-8,.cls-9{fill-rule:evenodd;}.cls-11{mix-blend-mode:soft-light;opacity:0.59;}</style></defs><g class="cls-1"><g id="Layer_2" data-name="Layer 2"><g id="Layer_1-2" data-name="Layer 1"><path class="cls-2" d="M1.38,40.25H427.13a0,0,0,0,1,0,0v261.9a35.93,35.93,0,0,1-35.93,35.93H37.31A35.93,35.93,0,0,1,1.38,302.14V40.25A0,0,0,0,1,1.38,40.25Z"></path><circle class="cls-3" cx="388.33" cy="238.96" r="102.68"></circle><rect class="cls-4" x="143.37" y="72.08" width="202.07" height="11.26" rx="1.6"></rect><rect class="cls-4" x="143.37" y="110.82" width="183.22" height="11.26" rx="1.6"></rect><rect class="cls-4" x="143.37" y="149.56" width="211.94" height="11.26" rx="1.6"></rect><path class="cls-5" d="M.21,27.11H110.39a0,0,0,0,1,0,0V338.66a0,0,0,0,1,0,0H32.16A31.94,31.94,0,0,1,.21,306.71V27.11a0,0,0,0,1,0,0Z"></path><path class="cls-6" d="M27.4,0H400a27.4,27.4,0,0,1,27.4,27.4V44.74a0,0,0,0,1,0,0H0a0,0,0,0,1,0,0V27.4A27.4,27.4,0,0,1,27.4,0Z"></path><circle class="cls-7" cx="397.76" cy="236.75" r="102.68"></circle><path class="cls-8" d="M491,237.56a93.28,93.28,0,0,1-61.82,87.82c-.64.23-1.27.45-1.91.66-4.73.91-6.41-2-6.41-4.49,0-3.06.12-13.12.12-25.58a32.17,32.17,0,0,0-.7-6.83c-1.07-4.94-3.26-8.4-5.63-10.44,20.77-2.31,42.58-10.2,42.58-46a36,36,0,0,0-9.59-25c1-2.36,4.16-11.84-.93-24.68,0,0-7.81-2.51-25.62,9.56a88.35,88.35,0,0,0-46.69,0C356.6,180.46,348.77,183,348.77,183c-5.07,12.84-1.87,22.32-.91,24.68a36,36,0,0,0-9.61,25c0,35.74,21.78,43.74,42.49,46.09-2.67,2.33-5.08,6.44-5.92,12.47-5.32,2.38-18.83,6.5-27.15-7.75,0,0-4.92-9-14.28-9.61,0,0-9.11-.12-.64,5.67,0,0,6.11,2.86,10.35,13.64,0,0,5.48,18.14,31.42,12.5,0,.66,0,1.32,0,2,.05,6.8.12,11.88.12,13.9,0,2.47-1.71,5.35-6.37,4.5a93.34,93.34,0,0,1-18.37-8.44c-2.48-1.49-4.89-3.09-7.21-4.79A93.26,93.26,0,1,1,491,237.56Z"></path><polygon class="cls-7" points="212.26 193.92 72.89 284 8.51 256.88 212.26 193.92"></polygon><polygon class="cls-9" points="72.89 284 80.92 324.31 87.49 291.96 212.26 193.92 72.89 284"></polygon><polyline class="cls-10" points="80.92 324.31 212.26 193.92 87.49 291.96 81.29 321.99"></polyline><polygon class="cls-7" points="212.26 193.92 87.49 291.96 173.11 319.83 212.26 193.92"></polygon><rect class="cls-11" x="18.07" width="393.06" height="5.53" rx="2.76"></rect><rect class="cls-3" x="1.38" y="44.38" width="425.75" height="6.47" rx="2.76"></rect></g></g></g></svg>