<svg xmlns="http://www.w3.org/2000/svg" xmlns:xlink="http://www.w3.org/1999/xlink" viewBox="0 0 1859.75 1059.51"><defs><style>.cls-1{isolation:isolate;}.cls-2{fill:none;}.cls-3,.cls-4,.cls-8{fill:#0c7ff2;}.cls-3,.cls-4{opacity:0.04;}.cls-11,.cls-16,.cls-19,.cls-4,.cls-5,.cls-6{mix-blend-mode:multiply;}.cls-5{opacity:0.18;}.cls-6{fill:url(#linear-gradient);}.cls-7{fill:#ebf0f5;}.cls-9{fill:#fff;}.cls-10,.cls-18{fill:#2e2e76;}.cls-10{fill-rule:evenodd;}.cls-11,.cls-17{fill:#9caab8;}.cls-11,.cls-16{opacity:0.4;}.cls-12{fill:#ff603d;}.cls-13{fill:#f5c822;opacity:0.38;}.cls-14{fill:#f0f7ff;}.cls-15{fill:#24313e;}.cls-19{opacity:0.1;fill:url(#linear-gradient-2);}</style><linearGradient id="linear-gradient" x1="104.15" y1="429.78" x2="419.22" y2="429.78" gradientUnits="userSpaceOnUse"><stop offset="0" stop-color="#6b7e8f"></stop><stop offset="1" stop-color="#b6c6d6"></stop></linearGradient><linearGradient id="linear-gradient-2" x1="7.47" y1="268.29" x2="419.22" y2="268.29" xlink:href="#linear-gradient"></linearGradient></defs><g class="cls-1"><g id="Layer_2" data-name="Layer 2"><g id="Layer_1-2" data-name="Layer 1"><rect class="cls-2" x="7.47" width="1811.34" height="1059.51"></rect><path class="cls-3" d="M1836.48,434.57c-4.78-21.46-16.36-41.8-37-55.88a57.68,57.68,0,0,1-19.58-22.42,47.81,47.81,0,0,1-4.42-27.6,63,63,0,0,0,.65-9.2,68.91,68.91,0,0,0-4.89-25.25,83.53,83.53,0,0,0-53.34-48.54,67.85,67.85,0,0,0-34.82-1,48.84,48.84,0,0,1-28.77-1.92,53.48,53.48,0,0,1-23.82-18,123.13,123.13,0,0,0-45.78-37.21,136.75,136.75,0,0,0-58.79-12.85,156.57,156.57,0,0,0-25.67,2.15,169.53,169.53,0,0,0-26.07,6.58c-23.31,7.89-47.35,22.16-65.56,43s-30.52,48.32-30.32,82.59a51.76,51.76,0,0,1-5.87,24.2,53.93,53.93,0,0,1-16.56,19c-22.82,16.31-35.7,38.93-41,62.74a132.35,132.35,0,0,0,4.07,70.28c6.6,19.48,18.74,39.46,36.64,54.32s41.62,24.59,71.36,23.57l3.16-.11,3.16-.11v.21h295.63v-.52l4.12.19,4.14.16c26.42,1.67,47.44-6.25,63.32-18.84s26.62-29.83,32.43-46.79A118,118,0,0,0,1836.48,434.57Z"></path><circle class="cls-3" cx="1786.35" cy="684.62" r="73.4"></circle><rect class="cls-4" x="153.5" y="696" width="253.99" height="200.79" rx="34.62"></rect><rect class="cls-4" y="610.74" width="147.64" height="114.62" rx="18.93"></rect><rect class="cls-3" x="7.47" y="243.81" width="411.75" height="325.52" rx="34.62"></rect><g class="cls-5"><path class="cls-6" d="M104.15,292.78H419.22a0,0,0,0,1,0,0V532.16a34.62,34.62,0,0,1-34.62,34.62H104.15a0,0,0,0,1,0,0v-274A0,0,0,0,1,104.15,292.78Z"></path></g><rect class="cls-7" x="216.8" y="313.39" width="515.56" height="501.65" rx="229.45" transform="translate(-7.9 6.74) rotate(-0.81)"></rect><rect class="cls-7" x="1117.69" y="307.23" width="515.56" height="501.65" rx="229.45" transform="translate(-7.72 19.43) rotate(-0.81)"></rect><path class="cls-8" d="M608,621.53a72.63,72.63,0,0,1-3.05,8.45c-6.14,14.28-16.77,26.39-31.38,32.92a58,58,0,0,1-8,2.92,63.22,63.22,0,0,1-14.72,2.23c-1.61.05-3.24.05-4.91,0l-2-.1v.1H355.43c-22.89.76-41.26-8.4-54.07-22.54l-.84-.94-.91-1.06c-1.32-1.55-2.56-3.17-3.73-4.82-.41-.57-.8-1.13-1.18-1.7q-1.27-1.89-2.42-3.82c-.38-.64-.73-1.27-1.1-1.91-.1-.18-.21-.36-.31-.55-.24-.47-.49-.91-.74-1.39-.34-.65-.68-1.3-1-2s-.56-1.15-.82-1.71a84.86,84.86,0,0,1-4-10.61c-9.12-29.69-2.2-64.57,25-84a27.84,27.84,0,0,0,8.57-9.8A26.8,26.8,0,0,0,321,508.62c-.24-41,28.41-70.28,63-81.43s75.27-4.19,99,27.26a28.08,28.08,0,0,0,12.1,9.25,24.93,24.93,0,0,0,15,1.09c16.33-4,33,1.83,45.06,12.75.57.52,1.13,1,1.67,1.59.41.38.79.79,1.19,1.2l.52.56c.42.45.85.92,1.27,1.39a1.4,1.4,0,0,0,.16.2c.5.57,1,1.14,1.43,1.72s1,1.25,1.43,1.86.88,1.27,1.3,1.88.85,1.29,1.24,1.94.78,1.31,1.14,2a46.79,46.79,0,0,1,5.64,29.34,22.74,22.74,0,0,0-.23,3.76,24.81,24.81,0,0,0,2.76,10.84,30,30,0,0,0,7.51,9.32c.82.69,1.69,1.35,2.58,2,16.09,11,24.46,28.47,26,46.74A76.13,76.13,0,0,1,608,621.53Z"></path><path class="cls-9" d="M573.89,592.07a22,22,0,0,0-19.15-6.13l-9.29-24.09-9.21-23.92a22.2,22.2,0,0,0,5.65-4.08,22,22,0,1,0-36.17-23l-40.1-6.33-31.92-5a29,29,0,0,0,.16-3.11,30,30,0,1,0-51.19,21.21,30.68,30.68,0,0,0,3.63,3.09l-12.87,25.51-13.57,26.87a28.31,28.31,0,1,0,16.57,34.16q12.27.94,24.57,1.68,26.22,1.54,52.49,2.1c8.75.18,17.5.3,26.25.29s17.5-.15,26.25-.53L532.2,610l4.32-.13a22,22,0,1,0,37.37-17.76ZM379.67,549.49l13.91-24.94a30,30,0,0,0,39.35-20.74l31.68,6.36,39.81,8c0,.06,0,.12,0,.17a22.06,22.06,0,0,0,1.32,7.52Q473.17,545,438.87,561.16q-31.26,14.7-63.72,26.72a28.32,28.32,0,0,0-5.9-8.61,27.33,27.33,0,0,0-4.24-3.49Zm152.48,56.33-26.16-.2c-8.71,0-17.42-.13-26.12-.45s-17.41-.77-26.1-1.27q-26.08-1.53-52.07-4-11.83-1.15-23.66-2.51a.25.25,0,0,1-.2-.18l-1.09-4.56q32.91-11.39,64.81-25.55,34.9-15.51,68.31-34.25c.32.36.64.71,1,1.05a21.91,21.91,0,0,0,15.53,6.43h4.75a.36.36,0,0,1,.34.24l7.82,23.55,8.13,24.51a21.94,21.94,0,0,0-10.93,17.28Z"></path><circle class="cls-9" cx="1325.64" cy="528.45" r="102.87"></circle><path class="cls-10" d="M1419.07,529.26a93.46,93.46,0,0,1-61.93,88c-.64.23-1.27.45-1.91.66-4.74.91-6.42-2-6.42-4.5,0-3.06.11-13.14.11-25.62a31.49,31.49,0,0,0-.7-6.84c-1.07-5-3.27-8.42-5.64-10.47,20.81-2.31,42.66-10.21,42.66-46.1a36,36,0,0,0-9.61-25.07c1-2.37,4.17-11.87-.93-24.73,0,0-7.83-2.51-25.66,9.58a88.45,88.45,0,0,0-46.79,0c-17.85-12.09-25.69-9.58-25.69-9.58-5.08,12.86-1.88,22.36-.91,24.73a36.1,36.1,0,0,0-9.62,25.07c0,35.8,21.81,43.82,42.56,46.18-2.67,2.33-5.09,6.45-5.94,12.49-5.32,2.39-18.85,6.51-27.19-7.77,0,0-4.93-9-14.31-9.63,0,0-9.12-.11-.64,5.68,0,0,6.12,2.87,10.38,13.67,0,0,5.48,18.17,31.47,12.52,0,.67,0,1.33,0,2,.05,6.81.11,11.9.11,13.92,0,2.48-1.7,5.37-6.37,4.51a93.18,93.18,0,0,1-18.41-8.46c-2.48-1.48-4.89-3.09-7.22-4.79a93.43,93.43,0,1,1,148.59-75.4Z"></path><path class="cls-11" d="M1418.67,531.4A80.75,80.75,0,0,1,1364,607.83c-5.15-83.42,41.86-120.16,41.86-120.16A80.39,80.39,0,0,1,1418.67,531.4Z"></path><path class="cls-8" d="M1482.56,689.37a2.07,2.07,0,0,1-2.9,1,1.93,1.93,0,0,1-1.07-1.44l-1.55-8.28a38.3,38.3,0,0,0-23.13-28.45,37.23,37.23,0,0,0-5.2-1.71c2.55-2.08,5.21-4.32,8-6.73a224.4,224.4,0,0,0,25-25.65,23.05,23.05,0,0,1,2.91,3.66s0,0,0,0C1489.9,629.81,1499.34,651.39,1482.56,689.37Z"></path><path class="cls-12" d="M1378.64,662.67l-.08.14a8.42,8.42,0,0,1-.43.77s0,0,0,0c-1.47,2.39-6.23,8.8-16.65,12.35a24.67,24.67,0,0,1-.06-21.46l.12-.24a9.53,9.53,0,1,1,17.11,8.42Z"></path><path class="cls-12" d="M1419.07,682.57l-.08.14c-.08.16-.22.42-.43.77l0,0c-1.47,2.39-6.22,8.8-16.64,12.35a24.67,24.67,0,0,1-.06-21.46l.12-.24a9.53,9.53,0,1,1,17.11,8.42Z"></path><path class="cls-8" d="M1376.42,566.3a222.13,222.13,0,0,0-4.74,30.56c-.46,5.44-.72,10.57-.83,15.29h0a37,37,0,0,0-4.31-2.95,38.24,38.24,0,0,0-36.86-1.13l-7.5,3.83a2,2,0,0,1-1.86,0,2.06,2.06,0,0,1-.93-2.87c20.08-36.84,43.2-42.26,52.66-42.82A22.22,22.22,0,0,1,1376.42,566.3Z"></path><path class="cls-8" d="M1481.62,618.09a232.71,232.71,0,0,1-32.91,32.38h0c-7.08,5.74-13.29,10.14-17.7,13.08a13.91,13.91,0,0,1-13.87.91L1379,645.69a13.89,13.89,0,0,1-7.74-11.55c-.36-5.28-.66-12.89-.43-22h0a232.08,232.08,0,0,1,5.58-45.83c7.16-31.12,22.78-64.76,55.69-86,16.16-10.45,36.47-17.92,62-20.66l.19,0,.1.16c13.4,21.9,19.87,42.55,21.44,61.73C1519,560.54,1501.91,593.43,1481.62,618.09Z"></path><path class="cls-11" d="M1484.53,621.75s0,0,0,0a230.38,230.38,0,0,1-30.62,30.42,37.23,37.23,0,0,0-5.2-1.71c2.55-2.08,5.21-4.32,8-6.73a224.4,224.4,0,0,0,25-25.65A23.05,23.05,0,0,1,1484.53,621.75Z"></path><path class="cls-11" d="M1376.42,566.3a222.13,222.13,0,0,0-4.74,30.56c-.46,5.44-.72,10.57-.83,15.29h0a37,37,0,0,0-4.31-2.95,230.61,230.61,0,0,1,5.49-42.89s0-.06,0-.09A22.22,22.22,0,0,1,1376.42,566.3Z"></path><path class="cls-12" d="M1403.9,681.85l-.13.26c-.14.27-.4.73-.78,1.36a.05.05,0,0,0,0,0c-2.62,4.26-11.12,15.72-29.72,22a44.05,44.05,0,0,1-.1-38.32c.06-.14.13-.28.2-.43a17,17,0,0,1,30.55,15Z"></path><path class="cls-13" d="M1400.63,671.86l-.07.14c-.08.15-.22.4-.42.74,0,0,0,0,0,0-1.42,2.31-6,8.51-16.09,11.93A23.85,23.85,0,0,1,1384,664l.12-.23a9.21,9.21,0,0,1,16.53,8.14Z"></path><circle class="cls-14" cx="1450.59" cy="548.15" r="20.17" transform="translate(-67.72 232.84) rotate(-8.97)"></circle><circle class="cls-15" cx="1450.59" cy="548.15" r="12.36" transform="translate(-55.24 177.81) rotate(-6.88)"></circle><path class="cls-8" d="M1011.88,619V583.26a6.36,6.36,0,0,0-6.36-6.36H770.13a6.36,6.36,0,0,1-6.36-6.36V512.33a6.36,6.36,0,0,1,6.36-6.36h235.39a6.36,6.36,0,0,0,6.36-6.36V463.89a6.36,6.36,0,0,1,10.85-4.5l77.55,77.55a6.36,6.36,0,0,1,0,9l-77.55,77.55A6.36,6.36,0,0,1,1011.88,619Z"></path><g class="cls-16"><path class="cls-17" d="M610.79,593.82c-1.54-18.27-9.91-35.76-26-46.74-.89-.61-1.76-1.27-2.58-2a7,7,0,0,1-2.45.51l-30,.52a6.78,6.78,0,0,1-5.27-2.4l-7.27-8.67a6.7,6.7,0,0,0-8.53-1.47l-8.71,5.1a6.69,6.69,0,0,0-2.89,8.17L520.87,557a6.67,6.67,0,0,1-.39,5.64L505.2,590.18a6.78,6.78,0,0,1-4.63,3.35l-10.89,2.05a6.72,6.72,0,0,0-5.48,6.72l.19,10.07a6.71,6.71,0,0,0,5.71,6.52l11,1.66a6.75,6.75,0,0,1,4.75,3.18l15.48,25.72a6.76,6.76,0,0,1,.56,5.73l-3.76,10.52a6.68,6.68,0,0,0-.4,2.35h26.11V668l2,.1a6.8,6.8,0,0,1,4.64-2l15-.25a58,58,0,0,0,8-2.92c14.61-6.53,25.24-18.64,31.38-32.92a72.63,72.63,0,0,0,3.05-8.45A76.13,76.13,0,0,0,610.79,593.82Zm-45.7,39.7a27.67,27.67,0,1,1,27.69-28.68A27.77,27.77,0,0,1,565.09,633.52Z"></path></g><circle class="cls-9" cx="580.32" cy="607.59" r="43.38"></circle><path class="cls-18" d="M499.56,612.37a6.71,6.71,0,0,0,5.72,6.52l11,1.66a6.7,6.7,0,0,1,4.75,3.18l15.48,25.73a6.7,6.7,0,0,1,.57,5.72l-3.77,10.52a6.72,6.72,0,0,0,3,8.12l8.81,4.94a6.72,6.72,0,0,0,8.51-1.64l6.91-8.55a6.76,6.76,0,0,1,5.11-2.5l30.06-.52A6.75,6.75,0,0,1,601,668l7.26,8.65a6.73,6.73,0,0,0,8.54,1.49l8.72-5.1a6.73,6.73,0,0,0,2.9-8.19l-3.86-10.13A6.74,6.74,0,0,1,625,649l15.28-27.51a6.64,6.64,0,0,1,4.63-3.34l10.88-2.06a6.72,6.72,0,0,0,5.48-6.72l-.2-10.08a6.7,6.7,0,0,0-5.71-6.51l-11-1.66a6.68,6.68,0,0,1-4.76-3.19l-15.46-25.72a6.72,6.72,0,0,1-.57-5.73L627.32,546a6.71,6.71,0,0,0-3.05-8.13l-8.8-4.92a6.69,6.69,0,0,0-8.5,1.63l-6.92,8.55a6.69,6.69,0,0,1-5.11,2.49l-30.06.52a6.7,6.7,0,0,1-5.26-2.39l-7.27-8.66a6.71,6.71,0,0,0-8.54-1.48l-8.71,5.1a6.71,6.71,0,0,0-2.89,8.17L536.05,557a6.71,6.71,0,0,1-.4,5.64l-15.28,27.53a6.74,6.74,0,0,1-4.63,3.34l-10.89,2.05a6.71,6.71,0,0,0-5.47,6.72Zm80.8-34.18a27.67,27.67,0,1,1-27.7,28.66A27.75,27.75,0,0,1,580.36,578.19Z"></path><path class="cls-19" d="M40.8,243.81H385.9a33.32,33.32,0,0,1,33.32,33.32v15.64a0,0,0,0,1,0,0H7.47a0,0,0,0,1,0,0V277.14A33.32,33.32,0,0,1,40.8,243.81Z"></path><rect class="cls-13" x="1374.34" y="647.06" width="48.52" height="7.61" rx="1.33" transform="translate(451.75 -567) rotate(27.18)"></rect></g></g></g></svg>