<svg xmlns="http://www.w3.org/2000/svg" viewBox="0 0 1873.62 463.06"><defs><style>.cls-1{fill:#0c7ff2;}.cls-2{fill:#fff;}.cls-3{fill:#f8fafc;}.cls-4{fill:#2e2e76;}</style></defs><g id="Layer_2" data-name="Layer 2"><g id="Layer_1-2" data-name="Layer 1"><polygon class="cls-1" points="306.52 217.26 171.23 217.26 171.23 228.69 306.52 228.69 306.52 241.22 338.11 222.98 306.52 204.74 306.52 217.26"></polygon><path class="cls-1" d="M689.93,221.74l-29.44-17v12.52H525.19v11.43h135.3v12.53l29.44-17A1.44,1.44,0,0,0,689.93,221.74Z"></path><polygon class="cls-1" points="1589.75 402.94 1558.16 384.7 1558.16 397.22 1422.86 397.22 1422.86 408.66 1558.16 408.66 1558.16 421.18 1589.75 402.94"></polygon><path class="cls-1" d="M1198.15,383.42V398H1056.21A13.25,13.25,0,0,1,1043,384.73V249.52a26.43,26.43,0,0,0-8.9-19.79,26.43,26.43,0,0,0,8.9-19.79V74.72a13.25,13.25,0,0,1,13.23-13.23h141.94V76l34.42-19.87a1.51,1.51,0,0,0,0-2.62l-34.42-19.88V48.22H1056.21a26.53,26.53,0,0,0-26.5,26.5V209.94A13.25,13.25,0,0,1,1018,223.07c-.51,0-1,0-1.54,0H901.05v13.42h115.43c.52,0,1,0,1.54-.05a13.25,13.25,0,0,1,11.69,13.13V384.73a26.53,26.53,0,0,0,26.5,26.51h141.94v14.54l35.34-20.4a.9.9,0,0,0,0-1.56Z"></path><rect class="cls-1" y="165.94" width="261.26" height="108.83" rx="32.47"></rect><rect class="cls-2" x="351.15" y="162.29" width="265.02" height="110.4" rx="32.47"></rect><path class="cls-3" d="M102,218.11a.53.53,0,0,1-.39-.17.54.54,0,0,1-.18-.39,1,1,0,0,1,0-.25L107.84,200a1.18,1.18,0,0,1,.34-.53,1.07,1.07,0,0,1,.72-.23h4a1.05,1.05,0,0,1,.72.23,1,1,0,0,1,.34.53l6.36,17.33a.53.53,0,0,1-.12.64.57.57,0,0,1-.42.17h-3.34a.79.79,0,0,1-.61-.2.85.85,0,0,1-.26-.36l-1.06-2.76h-7.26l-1,2.76a1.12,1.12,0,0,1-.24.36.87.87,0,0,1-.66.2Zm6.39-7.2h5l-2.53-7.13Z"></path><path class="cls-3" d="M123.22,218.11a.63.63,0,0,1-.49-.2.68.68,0,0,1-.19-.47V199.89a.65.65,0,0,1,.68-.68h7.61a10.3,10.3,0,0,1,3.93.69,5.66,5.66,0,0,1,2.6,2.07,6,6,0,0,1,.94,3.48,5.84,5.84,0,0,1-.94,3.43,5.47,5.47,0,0,1-2.6,2,10.93,10.93,0,0,1-3.93.65H127.6v5.91a.62.62,0,0,1-.21.47.65.65,0,0,1-.5.2Zm4.29-10.31h3.18a2.78,2.78,0,0,0,1.86-.59,2.24,2.24,0,0,0,.7-1.81,2.57,2.57,0,0,0-.6-1.73,2.44,2.44,0,0,0-2-.7h-3.18Z"></path><path class="cls-3" d="M141.59,218.11a.63.63,0,0,1-.49-.2.64.64,0,0,1-.19-.47V199.89a.66.66,0,0,1,.19-.49.7.7,0,0,1,.49-.19h3.64a.74.74,0,0,1,.5.19.63.63,0,0,1,.2.49v17.55a.61.61,0,0,1-.2.47.66.66,0,0,1-.5.2Z"></path><path class="cls-3" d="M49.31,245.11a.63.63,0,0,1-.49-.2.64.64,0,0,1-.19-.47V226.89a.66.66,0,0,1,.19-.49.7.7,0,0,1,.49-.19h7.06a11,11,0,0,1,4.54.85,6.4,6.4,0,0,1,2.88,2.49,8.15,8.15,0,0,1,1.09,4c0,.8,0,1.49,0,2.08s0,1.28,0,2.06a8.87,8.87,0,0,1-1.08,4.15,5.8,5.8,0,0,1-2.8,2.45,11.28,11.28,0,0,1-4.49.79Zm4.21-3.88h2.85a4.56,4.56,0,0,0,1.94-.37,2.38,2.38,0,0,0,1.17-1.15,4.57,4.57,0,0,0,.42-2.05c0-.52.06-1,.07-1.4s0-.83,0-1.24,0-.88-.07-1.38a3.64,3.64,0,0,0-1-2.69,3.87,3.87,0,0,0-2.7-.85H53.52Z"></path><path class="cls-3" d="M68.76,245.11a.63.63,0,0,1-.49-.2.68.68,0,0,1-.19-.47V226.89a.65.65,0,0,1,.68-.68H81.45a.65.65,0,0,1,.68.68v2.54a.65.65,0,0,1-.68.67H72.78v3.65h8.07a.63.63,0,0,1,.49.2.68.68,0,0,1,.19.5v2.35a.64.64,0,0,1-.19.47.63.63,0,0,1-.49.2H72.78v3.76h8.89a.69.69,0,0,1,.49.18.7.7,0,0,1,.19.49v2.54a.68.68,0,0,1-.19.47.63.63,0,0,1-.49.2Z"></path><path class="cls-3" d="M86.12,245.11a.63.63,0,0,1-.49-.2.68.68,0,0,1-.19-.47V226.89a.65.65,0,0,1,.68-.68h12.5a.7.7,0,0,1,.49.19.66.66,0,0,1,.19.49v2.73a.63.63,0,0,1-.19.48.66.66,0,0,1-.49.19h-8.4v4h7.86a.66.66,0,0,1,.49.2.74.74,0,0,1,.19.5v2.7a.68.68,0,0,1-.19.47.64.64,0,0,1-.49.21H90.22v6.1a.64.64,0,0,1-.19.47.61.61,0,0,1-.48.2Z"></path><path class="cls-3" d="M102.91,245.11a.63.63,0,0,1-.49-.2.68.68,0,0,1-.19-.47V226.89a.65.65,0,0,1,.68-.68h3.64a.76.76,0,0,1,.51.19.66.66,0,0,1,.2.49v17.55a.65.65,0,0,1-.2.47.69.69,0,0,1-.51.2Z"></path><path class="cls-3" d="M111.72,245.11a.61.61,0,0,1-.49-.2.64.64,0,0,1-.19-.47V226.89a.66.66,0,0,1,.19-.49.68.68,0,0,1,.49-.19h2.88a.89.89,0,0,1,.66.21,1.38,1.38,0,0,1,.26.31l6.63,10.37V226.89a.66.66,0,0,1,.19-.49.7.7,0,0,1,.49-.19h3.26a.65.65,0,0,1,.68.68v17.52a.72.72,0,0,1-.19.5.63.63,0,0,1-.49.2h-2.91a.87.87,0,0,1-.64-.21c-.13-.15-.22-.24-.26-.3l-6.63-10v9.83a.64.64,0,0,1-.19.47.61.61,0,0,1-.48.2Z"></path><path class="cls-3" d="M131.25,245.11a.63.63,0,0,1-.49-.2.64.64,0,0,1-.19-.47V226.89a.66.66,0,0,1,.19-.49.7.7,0,0,1,.49-.19h3.64a.72.72,0,0,1,.5.19.64.64,0,0,1,.21.49v17.55a.62.62,0,0,1-.21.47.65.65,0,0,1-.5.2Z"></path><path class="cls-3" d="M144.24,245.11a.61.61,0,0,1-.49-.2.64.64,0,0,1-.19-.47v-14h-4.84a.63.63,0,0,1-.49-.2.68.68,0,0,1-.19-.47v-2.89a.65.65,0,0,1,.68-.68h14.62a.65.65,0,0,1,.68.68v2.89a.68.68,0,0,1-.19.47.63.63,0,0,1-.49.2H148.5v14a.64.64,0,0,1-.19.47.61.61,0,0,1-.49.2Z"></path><path class="cls-3" d="M157.17,245.11a.63.63,0,0,1-.49-.2.64.64,0,0,1-.19-.47V226.89a.66.66,0,0,1,.19-.49.7.7,0,0,1,.49-.19h3.64a.72.72,0,0,1,.5.19.64.64,0,0,1,.21.49v17.55a.62.62,0,0,1-.21.47.65.65,0,0,1-.5.2Z"></path><path class="cls-3" d="M173.06,245.38a10.74,10.74,0,0,1-4.34-.81,6.22,6.22,0,0,1-2.88-2.44,8.28,8.28,0,0,1-1.15-4.09c0-.77,0-1.55,0-2.33s0-1.57,0-2.34a8.3,8.3,0,0,1,1.16-4.09,6.52,6.52,0,0,1,2.91-2.5,11.48,11.48,0,0,1,8.62,0,6.63,6.63,0,0,1,2.91,2.5,7.9,7.9,0,0,1,1.14,4.09q.06,1.15.06,2.34c0,.78,0,1.56-.06,2.33a7.88,7.88,0,0,1-1.13,4.09,6.35,6.35,0,0,1-2.89,2.44A10.76,10.76,0,0,1,173.06,245.38Zm0-3.88a3.25,3.25,0,0,0,2.35-.87,3.79,3.79,0,0,0,1-2.75c0-.79.05-1.54.05-2.24s0-1.43-.05-2.19a5,5,0,0,0-.48-2.07,2.66,2.66,0,0,0-1.15-1.17,3.66,3.66,0,0,0-1.69-.38,3.55,3.55,0,0,0-1.65.38,2.75,2.75,0,0,0-1.17,1.17,4.68,4.68,0,0,0-.49,2.07q0,1.14,0,2.19c0,.7,0,1.45,0,2.24a3.84,3.84,0,0,0,1,2.75A3.23,3.23,0,0,0,173.06,241.5Z"></path><path class="cls-3" d="M185.32,245.11a.61.61,0,0,1-.49-.2.64.64,0,0,1-.19-.47V226.89a.66.66,0,0,1,.19-.49.68.68,0,0,1,.49-.19h2.88a.89.89,0,0,1,.66.21,1.38,1.38,0,0,1,.26.31l6.63,10.37V226.89a.66.66,0,0,1,.19-.49.7.7,0,0,1,.49-.19h3.26a.65.65,0,0,1,.68.68v17.52a.72.72,0,0,1-.19.5.63.63,0,0,1-.49.2h-2.91a.87.87,0,0,1-.64-.21,2.48,2.48,0,0,1-.25-.3l-6.63-10v9.83a.68.68,0,0,1-.19.47.63.63,0,0,1-.49.2Z"></path><path class="cls-4" d="M434.31,232a.67.67,0,0,1-.68-.67V213.79a.65.65,0,0,1,.68-.68H438a.68.68,0,0,1,.5.19.64.64,0,0,1,.21.49v17.55a.64.64,0,0,1-.21.47.69.69,0,0,1-.5.2Z"></path><path class="cls-4" d="M443.11,232a.65.65,0,0,1-.47-.2.64.64,0,0,1-.21-.47V213.79a.68.68,0,0,1,.68-.68h2.94a.89.89,0,0,1,.67.23,1.36,1.36,0,0,1,.28.37l4.78,8.5,4.78-8.5a2.13,2.13,0,0,1,.29-.37.84.84,0,0,1,.66-.23h2.91a.69.69,0,0,1,.5.19.63.63,0,0,1,.2.49v17.55a.63.63,0,0,1-.2.47.7.7,0,0,1-.5.2h-3.24a.72.72,0,0,1-.5-.2.67.67,0,0,1-.2-.47V221.21l-3,5.64a1.69,1.69,0,0,1-.36.44.9.9,0,0,1-.6.18h-1.41a.93.93,0,0,1-.6-.18,1.66,1.66,0,0,1-.35-.44l-3.07-5.64v10.13a.67.67,0,0,1-.68.67Z"></path><path class="cls-4" d="M465.61,232a.65.65,0,0,1-.49-.2.66.66,0,0,1-.19-.47V213.79a.66.66,0,0,1,.19-.49.64.64,0,0,1,.49-.19h7.6a10.23,10.23,0,0,1,3.93.69,5.78,5.78,0,0,1,2.61,2.06,6.11,6.11,0,0,1,.94,3.49,5.93,5.93,0,0,1-.94,3.43,5.52,5.52,0,0,1-2.61,2,10.65,10.65,0,0,1-3.93.65H470v5.92a.67.67,0,0,1-.2.47.72.72,0,0,1-.5.2Zm4.29-10.31h3.18a2.74,2.74,0,0,0,1.86-.6,2.25,2.25,0,0,0,.69-1.81,2.54,2.54,0,0,0-.6-1.72,2.42,2.42,0,0,0-1.95-.71H469.9Z"></path><path class="cls-4" d="M491.06,232.28a10.74,10.74,0,0,1-4.34-.81,6.32,6.32,0,0,1-2.88-2.44,8.17,8.17,0,0,1-1.14-4.09q0-1.17,0-2.34c0-.78,0-1.56,0-2.33a8.23,8.23,0,0,1,1.15-4.1,6.56,6.56,0,0,1,2.91-2.49,11.48,11.48,0,0,1,8.62,0,6.56,6.56,0,0,1,2.91,2.49,7.94,7.94,0,0,1,1.14,4.1c0,.77.06,1.55.06,2.33s0,1.56-.06,2.34a8,8,0,0,1-1.12,4.09,6.42,6.42,0,0,1-2.9,2.44A10.76,10.76,0,0,1,491.06,232.28Zm0-3.89a3.24,3.24,0,0,0,2.35-.86,3.82,3.82,0,0,0,1-2.76c0-.79.05-1.53.05-2.24s0-1.43-.05-2.18a4.94,4.94,0,0,0-.48-2.07,2.66,2.66,0,0,0-1.15-1.17,3.54,3.54,0,0,0-1.69-.38,3.46,3.46,0,0,0-1.65.38,2.75,2.75,0,0,0-1.17,1.17,4.78,4.78,0,0,0-.49,2.07c0,.75,0,1.48,0,2.18s0,1.45,0,2.24a3.86,3.86,0,0,0,1,2.76A3.22,3.22,0,0,0,491.06,228.39Z"></path><path class="cls-4" d="M503.32,232a.67.67,0,0,1-.68-.67V213.79a.65.65,0,0,1,.68-.68h7.39a8.66,8.66,0,0,1,5.54,1.61,5.48,5.48,0,0,1,2,4.55,5.59,5.59,0,0,1-.92,3.24,5.78,5.78,0,0,1-2.45,2l3.72,6.65a.57.57,0,0,1,.09.29.51.51,0,0,1-.18.39.54.54,0,0,1-.39.18h-3.62a1,1,0,0,1-.76-.26,1.9,1.9,0,0,1-.35-.47l-3.1-5.94h-2.77v6a.67.67,0,0,1-.2.47.73.73,0,0,1-.51.2Zm4.21-10.5h3.12a2.67,2.67,0,0,0,1.92-.62,2.28,2.28,0,0,0,.64-1.68,2.41,2.41,0,0,0-.61-1.7,2.59,2.59,0,0,0-2-.65h-3.12Z"></path><path class="cls-4" d="M526.09,232a.65.65,0,0,1-.49-.2.66.66,0,0,1-.19-.47v-14h-4.84a.66.66,0,0,1-.49-.2.68.68,0,0,1-.19-.48v-2.88a.65.65,0,0,1,.68-.68h14.62a.66.66,0,0,1,.49.19.7.7,0,0,1,.19.49v2.88a.73.73,0,0,1-.19.48.66.66,0,0,1-.49.2h-4.84v14a.67.67,0,0,1-.68.67Z"></path><rect class="cls-1" x="1246.65" y="354.6" width="254.94" height="106.2" rx="32.47"></rect><path class="cls-3" d="M1322.58,403a.63.63,0,0,1-.49-.2.64.64,0,0,1-.19-.47V384.74a.66.66,0,0,1,.19-.49.7.7,0,0,1,.49-.19h7.61a10.21,10.21,0,0,1,3.92.69,5.69,5.69,0,0,1,2.61,2.07,6.1,6.1,0,0,1,.94,3.48,5.91,5.91,0,0,1-.94,3.43,5.49,5.49,0,0,1-2.61,2,10.84,10.84,0,0,1-3.92.65H1327v5.91a.65.65,0,0,1-.2.47.66.66,0,0,1-.5.2Zm4.29-10.31h3.18a2.78,2.78,0,0,0,1.86-.59,2.27,2.27,0,0,0,.69-1.81,2.61,2.61,0,0,0-.59-1.73,2.44,2.44,0,0,0-2-.7h-3.18Z"></path><path class="cls-3" d="M1348,403.23a10.76,10.76,0,0,1-4.35-.81,6.32,6.32,0,0,1-2.88-2.44,8.17,8.17,0,0,1-1.14-4.09c0-.77,0-1.55,0-2.33s0-1.57,0-2.34a8.3,8.3,0,0,1,1.15-4.09,6.52,6.52,0,0,1,2.91-2.5,11.5,11.5,0,0,1,8.63,0,6.55,6.55,0,0,1,2.9,2.5,7.9,7.9,0,0,1,1.14,4.09q.06,1.15.06,2.34c0,.78,0,1.56-.06,2.33a8,8,0,0,1-1.12,4.09,6.42,6.42,0,0,1-2.9,2.44A10.74,10.74,0,0,1,1348,403.23Zm0-3.88a3.27,3.27,0,0,0,2.35-.87,3.83,3.83,0,0,0,1-2.75c0-.79.05-1.54.05-2.24s0-1.43-.05-2.19a4.93,4.93,0,0,0-.47-2.06,2.75,2.75,0,0,0-1.16-1.18,3.65,3.65,0,0,0-1.68-.38,3.59,3.59,0,0,0-1.66.38,2.78,2.78,0,0,0-1.17,1.18,4.77,4.77,0,0,0-.49,2.06q0,1.14,0,2.19c0,.7,0,1.45,0,2.24a3.93,3.93,0,0,0,1,2.75A3.23,3.23,0,0,0,1348,399.35Z"></path><path class="cls-3" d="M1360.29,403a.63.63,0,0,1-.49-.2.64.64,0,0,1-.19-.47V384.74a.66.66,0,0,1,.19-.49.7.7,0,0,1,.49-.19h7.39a8.66,8.66,0,0,1,5.54,1.61,5.49,5.49,0,0,1,2,4.55,5.55,5.55,0,0,1-.92,3.24,5.8,5.8,0,0,1-2.45,2l3.73,6.64a.75.75,0,0,1,.08.3.54.54,0,0,1-.18.39.53.53,0,0,1-.39.17h-3.62a1,1,0,0,1-.76-.25,2.1,2.1,0,0,1-.35-.47l-3.1-5.94h-2.77v6a.65.65,0,0,1-.2.47.69.69,0,0,1-.51.2Zm4.21-10.5h3.13a2.66,2.66,0,0,0,1.91-.62,2.2,2.2,0,0,0,.64-1.67,2.39,2.39,0,0,0-.61-1.7,2.54,2.54,0,0,0-1.94-.65h-3.13Z"></path><path class="cls-3" d="M1383.06,403a.61.61,0,0,1-.49-.2.64.64,0,0,1-.19-.47v-14h-4.84a.63.63,0,0,1-.49-.2.68.68,0,0,1-.19-.47v-2.89a.65.65,0,0,1,.68-.68h14.62a.65.65,0,0,1,.68.68v2.89a.68.68,0,0,1-.19.47.63.63,0,0,1-.49.2h-4.84v14a.64.64,0,0,1-.19.47.61.61,0,0,1-.49.2Z"></path><path class="cls-3" d="M1392.3,403a.54.54,0,0,1-.4-.17.54.54,0,0,1-.18-.39.88.88,0,0,1,0-.24l6.39-17.34a1,1,0,0,1,.34-.53,1.05,1.05,0,0,1,.72-.23h4a1.09,1.09,0,0,1,.72.23,1.18,1.18,0,0,1,.34.53l6.35,17.34a.48.48,0,0,1,.06.24.54.54,0,0,1-.18.39.57.57,0,0,1-.42.17h-3.34a.8.8,0,0,1-.61-.2,1,1,0,0,1-.26-.36l-1.06-2.76h-7.25l-1,2.76a.83.83,0,0,1-.89.56Zm6.38-7.2h5l-2.52-7.13Z"></path><path class="cls-3" d="M1413.51,403a.63.63,0,0,1-.49-.2.67.67,0,0,1-.18-.47V384.74a.69.69,0,0,1,.18-.49.7.7,0,0,1,.49-.19h3.59a.7.7,0,0,1,.49.19.66.66,0,0,1,.19.49v14.15H1426a.66.66,0,0,1,.49.2.69.69,0,0,1,.19.5v2.7a.64.64,0,0,1-.19.47.63.63,0,0,1-.49.2Z"></path><path class="cls-3" d="M1295.56,430.23a10.56,10.56,0,0,1-4.44-.85,6.42,6.42,0,0,1-2.88-2.48,8.09,8.09,0,0,1-1.13-4c0-.78,0-1.6,0-2.47s0-1.71,0-2.5a7.65,7.65,0,0,1,1.14-3.89,6.59,6.59,0,0,1,2.91-2.43,10.66,10.66,0,0,1,4.4-.84,12,12,0,0,1,3.61.5,8.45,8.45,0,0,1,2.65,1.34,6.1,6.1,0,0,1,1.64,1.84,4.09,4.09,0,0,1,.6,2,.54.54,0,0,1-.17.4.6.6,0,0,1-.43.16h-4a.89.89,0,0,1-.45-.09.78.78,0,0,1-.26-.28,3.54,3.54,0,0,0-.56-.85,2.86,2.86,0,0,0-1-.77,3.65,3.65,0,0,0-1.67-.33,3.47,3.47,0,0,0-2.42.81,3.59,3.59,0,0,0-1,2.59c-.05,1.55-.05,3.12,0,4.7a3.77,3.77,0,0,0,1,2.73,3.52,3.52,0,0,0,2.47.84,4.56,4.56,0,0,0,1.81-.35,2.8,2.8,0,0,0,1.26-1.1,3.52,3.52,0,0,0,.46-1.9v-.51h-2.55a.64.64,0,0,1-.49-.21.68.68,0,0,1-.19-.5v-2a.68.68,0,0,1,.19-.5.64.64,0,0,1,.49-.21h6.84a.62.62,0,0,1,.49.21.68.68,0,0,1,.19.5v3.07a7.21,7.21,0,0,1-1.05,4,6.83,6.83,0,0,1-3,2.53A11,11,0,0,1,1295.56,430.23Z"></path><path class="cls-3" d="M1308,430a.63.63,0,0,1-.49-.2.64.64,0,0,1-.19-.47V411.74a.66.66,0,0,1,.19-.49.7.7,0,0,1,.49-.19h12.69a.7.7,0,0,1,.49.19.69.69,0,0,1,.18.49v2.54a.65.65,0,0,1-.18.48.66.66,0,0,1-.49.19H1312v3.65H1320a.63.63,0,0,1,.49.2.74.74,0,0,1,.19.5v2.35a.68.68,0,0,1-.19.47.63.63,0,0,1-.49.2H1312v3.76h8.88a.66.66,0,0,1,.49.19.62.62,0,0,1,.19.48v2.54a.64.64,0,0,1-.19.47.63.63,0,0,1-.49.2Z"></path><path class="cls-3" d="M1325.31,430a.63.63,0,0,1-.49-.2.64.64,0,0,1-.19-.47V411.74a.66.66,0,0,1,.19-.49.7.7,0,0,1,.49-.19h2.88a.87.87,0,0,1,.66.21,1.15,1.15,0,0,1,.26.31l6.63,10.37V411.74a.66.66,0,0,1,.19-.49.7.7,0,0,1,.49-.19h3.26a.7.7,0,0,1,.49.19.66.66,0,0,1,.19.49v17.52a.68.68,0,0,1-.19.5.63.63,0,0,1-.49.2h-2.91a.83.83,0,0,1-.63-.21,1.61,1.61,0,0,1-.26-.3l-6.63-10v9.83a.68.68,0,0,1-.19.47.63.63,0,0,1-.49.2Z"></path><path class="cls-3" d="M1344.84,430a.63.63,0,0,1-.49-.2.67.67,0,0,1-.18-.47V411.74a.69.69,0,0,1,.18-.49.7.7,0,0,1,.49-.19h12.69a.7.7,0,0,1,.49.19.66.66,0,0,1,.19.49v2.54a.62.62,0,0,1-.19.48.66.66,0,0,1-.49.19h-8.66v3.65h8.06a.61.61,0,0,1,.49.2.69.69,0,0,1,.19.5v2.35a.64.64,0,0,1-.19.47.61.61,0,0,1-.49.2h-8.06v3.76h8.88a.66.66,0,0,1,.49.19.62.62,0,0,1,.19.48v2.54a.64.64,0,0,1-.19.47.63.63,0,0,1-.49.2Z"></path><path class="cls-3" d="M1362.2,430a.64.64,0,0,1-.49-.2.67.67,0,0,1-.18-.47V411.74a.69.69,0,0,1,.18-.49.71.71,0,0,1,.49-.19h7.39a8.67,8.67,0,0,1,5.55,1.61,6.14,6.14,0,0,1,1.08,7.79,5.77,5.77,0,0,1-2.44,2l3.72,6.64a.75.75,0,0,1,.08.3.57.57,0,0,1-.17.39.54.54,0,0,1-.4.17h-3.61a1,1,0,0,1-.76-.25,2.18,2.18,0,0,1-.36-.47l-3.09-5.94h-2.77v6a.62.62,0,0,1-.21.47.65.65,0,0,1-.5.2Zm4.22-10.5h3.12a2.69,2.69,0,0,0,1.92-.62,2.23,2.23,0,0,0,.63-1.67,2.35,2.35,0,0,0-.61-1.7,2.51,2.51,0,0,0-1.94-.65h-3.12Z"></path><path class="cls-3" d="M1379.21,430a.53.53,0,0,1-.39-.17.54.54,0,0,1-.18-.39.88.88,0,0,1,0-.24l6.38-17.34a1.18,1.18,0,0,1,.34-.53,1.09,1.09,0,0,1,.72-.23h4a1.05,1.05,0,0,1,.72.23,1,1,0,0,1,.34.53l6.36,17.34a.48.48,0,0,1,.06.24.54.54,0,0,1-.18.39.57.57,0,0,1-.42.17h-3.34a.8.8,0,0,1-.61-.2.85.85,0,0,1-.26-.36l-1.06-2.76h-7.26l-1,2.76a1.12,1.12,0,0,1-.24.36.87.87,0,0,1-.66.2Zm6.39-7.2h5.05l-2.53-7.13Z"></path><path class="cls-3" d="M1402.69,430a.61.61,0,0,1-.49-.2.64.64,0,0,1-.19-.47v-14h-4.84a.63.63,0,0,1-.49-.2.68.68,0,0,1-.19-.47v-2.89a.65.65,0,0,1,.68-.68h14.62a.65.65,0,0,1,.68.68v2.89a.68.68,0,0,1-.19.47.63.63,0,0,1-.49.2H1407v14a.64.64,0,0,1-.19.47.61.61,0,0,1-.49.2Z"></path><path class="cls-3" d="M1415.62,430a.63.63,0,0,1-.49-.2.64.64,0,0,1-.19-.47V411.74a.66.66,0,0,1,.19-.49.7.7,0,0,1,.49-.19h3.64a.72.72,0,0,1,.5.19.64.64,0,0,1,.21.49v17.55a.62.62,0,0,1-.21.47.65.65,0,0,1-.5.2Z"></path><path class="cls-3" d="M1431.51,430.23a10.74,10.74,0,0,1-4.34-.81,6.22,6.22,0,0,1-2.88-2.44,8.28,8.28,0,0,1-1.15-4.09c0-.77,0-1.55,0-2.33s0-1.57,0-2.34a8.3,8.3,0,0,1,1.16-4.09,6.52,6.52,0,0,1,2.91-2.5,11.48,11.48,0,0,1,8.62,0,6.63,6.63,0,0,1,2.91,2.5,7.9,7.9,0,0,1,1.14,4.09q.06,1.15.06,2.34c0,.78,0,1.56-.06,2.33a7.88,7.88,0,0,1-1.13,4.09,6.35,6.35,0,0,1-2.89,2.44A10.76,10.76,0,0,1,1431.51,430.23Zm0-3.88a3.25,3.25,0,0,0,2.35-.87,3.79,3.79,0,0,0,1-2.75c0-.79.05-1.54.05-2.24s0-1.43-.05-2.19a4.92,4.92,0,0,0-.48-2.06,2.68,2.68,0,0,0-1.15-1.18,3.66,3.66,0,0,0-1.69-.38,3.55,3.55,0,0,0-1.65.38,2.78,2.78,0,0,0-1.17,1.18,4.63,4.63,0,0,0-.49,2.06q0,1.14,0,2.19c0,.7,0,1.45,0,2.24a3.84,3.84,0,0,0,1,2.75A3.23,3.23,0,0,0,1431.51,426.35Z"></path><path class="cls-3" d="M1443.77,430a.61.61,0,0,1-.49-.2.64.64,0,0,1-.19-.47V411.74a.66.66,0,0,1,.19-.49.68.68,0,0,1,.49-.19h2.88a.89.89,0,0,1,.66.21,1.38,1.38,0,0,1,.26.31L1454.2,422V411.74a.66.66,0,0,1,.19-.49.7.7,0,0,1,.49-.19h3.26a.7.7,0,0,1,.49.19.66.66,0,0,1,.19.49v17.52a.68.68,0,0,1-.19.5.63.63,0,0,1-.49.2h-2.91a.87.87,0,0,1-.64-.21,1.88,1.88,0,0,1-.25-.3l-6.63-10v9.83a.68.68,0,0,1-.19.47.63.63,0,0,1-.49.2Z"></path><rect class="cls-2" x="1601.36" y="349.64" width="272.26" height="113.41" rx="32.47"></rect><path class="cls-4" d="M1678.93,401.29a.63.63,0,0,1-.49-.2.64.64,0,0,1-.19-.47V383.07a.66.66,0,0,1,.19-.49.7.7,0,0,1,.49-.19h7.61a10.21,10.21,0,0,1,3.92.69,5.63,5.63,0,0,1,2.61,2.07,6,6,0,0,1,.94,3.48,5.84,5.84,0,0,1-.94,3.43,5.45,5.45,0,0,1-2.61,2,10.84,10.84,0,0,1-3.92.65h-3.24v5.91a.61.61,0,0,1-.2.47.65.65,0,0,1-.5.2Zm4.29-10.31h3.18a2.78,2.78,0,0,0,1.86-.59,2.24,2.24,0,0,0,.7-1.81,2.57,2.57,0,0,0-.6-1.73,2.44,2.44,0,0,0-2-.7h-3.18Z"></path><path class="cls-4" d="M1704.61,401.56a10.77,10.77,0,0,1-4.31-.79,6,6,0,0,1-2.84-2.46,8,8,0,0,1-1-4.22v-11a.69.69,0,0,1,.18-.49.7.7,0,0,1,.49-.19h3.51a.72.72,0,0,1,.5.19.63.63,0,0,1,.2.49v11a3.66,3.66,0,0,0,.85,2.63,3.14,3.14,0,0,0,2.39.88,3.18,3.18,0,0,0,2.38-.88,3.62,3.62,0,0,0,.85-2.63v-11a.64.64,0,0,1,.21-.49.68.68,0,0,1,.47-.19H1712a.73.73,0,0,1,.48.19.66.66,0,0,1,.2.49v11a8,8,0,0,1-1,4.22,6.07,6.07,0,0,1-2.83,2.46A10.55,10.55,0,0,1,1704.61,401.56Z"></path><path class="cls-4" d="M1717,401.29a.61.61,0,0,1-.49-.2.64.64,0,0,1-.19-.47V383.07a.66.66,0,0,1,.19-.49.68.68,0,0,1,.49-.19h8.28a9.7,9.7,0,0,1,3.83.65,4.62,4.62,0,0,1,2.22,1.85,5.44,5.44,0,0,1,.72,2.85,3.89,3.89,0,0,1-1.27,2.94,4,4,0,0,1-1,.71,4.81,4.81,0,0,1,1.84,1.59,4.33,4.33,0,0,1,.8,2.59,5.73,5.73,0,0,1-.8,3.07,5.24,5.24,0,0,1-2.34,2,9.16,9.16,0,0,1-3.76.68Zm4.21-11.39h3.53a2.2,2.2,0,0,0,1.67-.58,2,2,0,0,0,.56-1.44,1.92,1.92,0,0,0-.56-1.42,2.27,2.27,0,0,0-1.67-.55h-3.53Zm0,7.89H1725a2.27,2.27,0,0,0,1.76-3.81,2.32,2.32,0,0,0-1.76-.65h-3.77Z"></path><path class="cls-4" d="M1736.12,401.29a.63.63,0,0,1-.49-.2.68.68,0,0,1-.19-.47V383.07a.65.65,0,0,1,.68-.68h3.59a.65.65,0,0,1,.68.68v14.15h8.23a.66.66,0,0,1,.49.2.69.69,0,0,1,.19.5v2.7a.64.64,0,0,1-.19.47.63.63,0,0,1-.49.2Z"></path><path class="cls-4" d="M1752.34,401.29a.63.63,0,0,1-.49-.2.68.68,0,0,1-.19-.47V383.07a.65.65,0,0,1,.68-.68H1756a.76.76,0,0,1,.51.19.66.66,0,0,1,.2.49v17.55a.65.65,0,0,1-.2.47.69.69,0,0,1-.51.2Z"></path><path class="cls-4" d="M1767.56,401.56a11.54,11.54,0,0,1-4.51-.76,6.52,6.52,0,0,1-2.72-2,4.65,4.65,0,0,1-1-2.64.51.51,0,0,1,.18-.39.58.58,0,0,1,.42-.18h3.42a1.07,1.07,0,0,1,.59.14,1.48,1.48,0,0,1,.36.35,3.32,3.32,0,0,0,.61.78,3.13,3.13,0,0,0,1,.61,4.88,4.88,0,0,0,1.58.23,4.66,4.66,0,0,0,2.37-.49,1.47,1.47,0,0,0,.81-1.32,1.25,1.25,0,0,0-.44-1,4.21,4.21,0,0,0-1.4-.69,22.5,22.5,0,0,0-2.57-.63,16.3,16.3,0,0,1-3.51-1.12,5.47,5.47,0,0,1-2.22-1.81,5.28,5.28,0,0,1,.18-5.74,6.14,6.14,0,0,1,2.62-2,10.08,10.08,0,0,1,4-.73,10.32,10.32,0,0,1,3.3.49,7.38,7.38,0,0,1,2.41,1.3,6.26,6.26,0,0,1,1.48,1.71,3.83,3.83,0,0,1,.53,1.77.6.6,0,0,1-.15.39.52.52,0,0,1-.42.18H1771a1.13,1.13,0,0,1-.51-.11,1,1,0,0,1-.38-.35,1.87,1.87,0,0,0-.86-1,3.26,3.26,0,0,0-1.81-.45,3.51,3.51,0,0,0-1.86.42,1.42,1.42,0,0,0-.66,1.28,1.39,1.39,0,0,0,.36,1,3,3,0,0,0,1.23.7,19.38,19.38,0,0,0,2.35.62,17.91,17.91,0,0,1,4,1.15,5.12,5.12,0,0,1,2.24,1.78,5.39,5.39,0,0,1-.34,5.9,6.76,6.76,0,0,1-2.89,2A11.58,11.58,0,0,1,1767.56,401.56Z"></path><path class="cls-4" d="M1779.16,401.29a.69.69,0,0,1-.49-.18.66.66,0,0,1-.19-.49V383.07a.66.66,0,0,1,.19-.49.7.7,0,0,1,.49-.19h3.5a.76.76,0,0,1,.51.19.66.66,0,0,1,.2.49v6.51h6.68v-6.51a.65.65,0,0,1,.68-.68h3.51a.65.65,0,0,1,.68.68v17.55a.68.68,0,0,1-.19.47.63.63,0,0,1-.49.2h-3.51a.63.63,0,0,1-.49-.2.68.68,0,0,1-.19-.47V393.9h-6.68v6.72a.65.65,0,0,1-.2.47.69.69,0,0,1-.51.2Z"></path><path class="cls-4" d="M1685.9,428.29a.63.63,0,0,1-.49-.2.64.64,0,0,1-.19-.47V410.07a.66.66,0,0,1,.19-.49.7.7,0,0,1,.49-.19h7.61a10.21,10.21,0,0,1,3.92.69,5.63,5.63,0,0,1,2.61,2.07,6,6,0,0,1,.94,3.48,5.84,5.84,0,0,1-.94,3.43,5.45,5.45,0,0,1-2.61,2,10.84,10.84,0,0,1-3.92.65h-3.24v5.91a.61.61,0,0,1-.2.47.66.66,0,0,1-.5.2Zm4.29-10.31h3.18a2.78,2.78,0,0,0,1.86-.59,2.27,2.27,0,0,0,.69-1.81,2.56,2.56,0,0,0-.59-1.73,2.44,2.44,0,0,0-2-.7h-3.18Z"></path><path class="cls-4" d="M1711.36,428.56a10.76,10.76,0,0,1-4.35-.81,6.32,6.32,0,0,1-2.88-2.44,8.17,8.17,0,0,1-1.14-4.09c0-.77,0-1.55,0-2.33s0-1.57,0-2.34a8.3,8.3,0,0,1,1.15-4.09,6.52,6.52,0,0,1,2.91-2.5,11.5,11.5,0,0,1,8.63,0,6.55,6.55,0,0,1,2.9,2.5,8,8,0,0,1,1.15,4.09c0,.77,0,1.55,0,2.34s0,1.56,0,2.33a8,8,0,0,1-1.13,4.09,6.37,6.37,0,0,1-2.9,2.44A10.74,10.74,0,0,1,1711.36,428.56Zm0-3.88a3.27,3.27,0,0,0,2.35-.87,3.83,3.83,0,0,0,1-2.75c0-.79.06-1.54.06-2.24s0-1.43-.06-2.19a4.93,4.93,0,0,0-.47-2.06,2.7,2.7,0,0,0-1.16-1.18,3.65,3.65,0,0,0-1.68-.38,3.59,3.59,0,0,0-1.66.38,2.78,2.78,0,0,0-1.17,1.18,4.77,4.77,0,0,0-.49,2.06q0,1.14,0,2.19c0,.7,0,1.45,0,2.24a3.93,3.93,0,0,0,1,2.75A3.25,3.25,0,0,0,1711.36,424.68Z"></path><path class="cls-4" d="M1723.61,428.29a.63.63,0,0,1-.49-.2.64.64,0,0,1-.19-.47V410.07a.66.66,0,0,1,.19-.49.7.7,0,0,1,.49-.19H1731a8.66,8.66,0,0,1,5.54,1.61,6.16,6.16,0,0,1,1.09,7.79,5.8,5.8,0,0,1-2.45,2l3.73,6.64a.75.75,0,0,1,.08.3.54.54,0,0,1-.18.39.53.53,0,0,1-.39.17h-3.62a1,1,0,0,1-.76-.25,2.1,2.1,0,0,1-.35-.47l-3.1-5.94h-2.77v6a.65.65,0,0,1-.2.47.68.68,0,0,1-.5.2Zm4.21-10.5H1731a2.64,2.64,0,0,0,1.91-.62,2.2,2.2,0,0,0,.64-1.67,2.35,2.35,0,0,0-.61-1.7,2.54,2.54,0,0,0-1.94-.65h-3.13Z"></path><path class="cls-4" d="M1746.38,428.29a.63.63,0,0,1-.49-.2.64.64,0,0,1-.19-.47v-14h-4.84a.63.63,0,0,1-.49-.2.68.68,0,0,1-.19-.47v-2.89a.65.65,0,0,1,.68-.68h14.62a.7.7,0,0,1,.49.19.66.66,0,0,1,.19.49V413a.64.64,0,0,1-.19.47.63.63,0,0,1-.49.2h-4.84v14a.64.64,0,0,1-.19.47.61.61,0,0,1-.49.2Z"></path><path class="cls-4" d="M1755.62,428.29a.54.54,0,0,1-.4-.17.53.53,0,0,1-.17-.39.9.9,0,0,1,0-.24l6.39-17.34a1.1,1.1,0,0,1,.34-.53,1.05,1.05,0,0,1,.72-.23h4a1.05,1.05,0,0,1,.72.23,1.18,1.18,0,0,1,.34.53l6.36,17.34a.6.6,0,0,1,0,.24.54.54,0,0,1-.18.39.55.55,0,0,1-.42.17h-3.34a.8.8,0,0,1-.61-.2,1,1,0,0,1-.26-.36l-1.06-2.76h-7.25l-1,2.76a.87.87,0,0,1-.24.36.84.84,0,0,1-.65.2Zm6.38-7.2h5l-2.52-7.13Z"></path><path class="cls-4" d="M1776.84,428.29a.61.61,0,0,1-.49-.2.64.64,0,0,1-.19-.47V410.07a.66.66,0,0,1,.19-.49.68.68,0,0,1,.49-.19h3.58a.7.7,0,0,1,.49.19.66.66,0,0,1,.19.49v14.15h8.23a.65.65,0,0,1,.49.2.69.69,0,0,1,.19.5v2.7a.64.64,0,0,1-.19.47.61.61,0,0,1-.49.2Z"></path><rect class="cls-1" x="711.13" y="163.83" width="262.88" height="109.51" rx="32.47"></rect><path class="cls-3" d="M816.83,215a10.56,10.56,0,0,1-4.4-.84,6.35,6.35,0,0,1-2.87-2.46,8.13,8.13,0,0,1-1.13-4c0-.74,0-1.53,0-2.37s0-1.66,0-2.43a8.28,8.28,0,0,1,1.14-4,6.4,6.4,0,0,1,2.88-2.48,10.53,10.53,0,0,1,4.38-.84,12,12,0,0,1,3.31.44,8.3,8.3,0,0,1,2.67,1.3,6.22,6.22,0,0,1,1.78,2.05,6,6,0,0,1,.66,2.72.44.44,0,0,1-.15.4.6.6,0,0,1-.42.16H821a.94.94,0,0,1-.54-.14,1.17,1.17,0,0,1-.33-.56,3.13,3.13,0,0,0-1.23-2,4,4,0,0,0-2.11-.52,3.28,3.28,0,0,0-2.36.82,3.86,3.86,0,0,0-1,2.74c-.06,1.48-.06,3,0,4.54a3.86,3.86,0,0,0,1,2.74,3.28,3.28,0,0,0,2.36.82,4,4,0,0,0,2.12-.54,3,3,0,0,0,1.22-1.94,1,1,0,0,1,.32-.56,1,1,0,0,1,.55-.14h3.67a.6.6,0,0,1,.42.16.44.44,0,0,1,.15.4,6,6,0,0,1-.66,2.72,6.22,6.22,0,0,1-1.78,2.05,8.09,8.09,0,0,1-2.67,1.29A11.62,11.62,0,0,1,816.83,215Z"></path><path class="cls-3" d="M835.87,215a10.74,10.74,0,0,1-4.34-.81,6.38,6.38,0,0,1-2.88-2.44,8.2,8.2,0,0,1-1.14-4.09q0-1.17,0-2.34t0-2.34a8.2,8.2,0,0,1,1.15-4.09,6.5,6.5,0,0,1,2.91-2.49,11.48,11.48,0,0,1,8.62,0,6.56,6.56,0,0,1,2.91,2.49,7.9,7.9,0,0,1,1.14,4.09q.06,1.17.06,2.34t-.06,2.34a7.91,7.91,0,0,1-1.13,4.09,6.41,6.41,0,0,1-2.89,2.44A10.76,10.76,0,0,1,835.87,215Zm0-3.89a3.29,3.29,0,0,0,2.35-.86,3.83,3.83,0,0,0,1-2.76c0-.79,0-1.54,0-2.24s0-1.43,0-2.18a4.94,4.94,0,0,0-.48-2.07,2.66,2.66,0,0,0-1.15-1.17,3.54,3.54,0,0,0-1.69-.38,3.46,3.46,0,0,0-1.65.38,2.75,2.75,0,0,0-1.17,1.17,4.78,4.78,0,0,0-.49,2.07c0,.75,0,1.48,0,2.18s0,1.45,0,2.24a3.88,3.88,0,0,0,1,2.76A3.26,3.26,0,0,0,835.87,211.07Z"></path><path class="cls-3" d="M848.13,214.69a.66.66,0,0,1-.49-.2.68.68,0,0,1-.19-.48V196.46a.63.63,0,0,1,.19-.48.66.66,0,0,1,.49-.19h7.06a10.89,10.89,0,0,1,4.54.85,6.44,6.44,0,0,1,2.88,2.48,8.19,8.19,0,0,1,1.09,4c0,.79,0,1.49,0,2.08s0,1.28,0,2a8.91,8.91,0,0,1-1.08,4.16,5.78,5.78,0,0,1-2.8,2.44,11.27,11.27,0,0,1-4.49.8Zm4.21-3.89h2.85a4.57,4.57,0,0,0,1.94-.36,2.46,2.46,0,0,0,1.17-1.15,4.6,4.6,0,0,0,.42-2c0-.52.06-1,.07-1.41s0-.82,0-1.24,0-.87-.07-1.38a3.62,3.62,0,0,0-1-2.68,3.82,3.82,0,0,0-2.7-.85h-2.72Z"></path><path class="cls-3" d="M867.58,214.69a.66.66,0,0,1-.49-.2.68.68,0,0,1-.19-.48V196.46a.63.63,0,0,1,.19-.48.66.66,0,0,1,.49-.19h12.69a.66.66,0,0,1,.49.19.67.67,0,0,1,.19.48V199a.65.65,0,0,1-.68.68H871.6v3.64h8.07a.64.64,0,0,1,.49.21.67.67,0,0,1,.19.49v2.35a.68.68,0,0,1-.19.48.66.66,0,0,1-.49.2H871.6v3.75h8.89a.66.66,0,0,1,.49.19.7.7,0,0,1,.19.49V214a.73.73,0,0,1-.19.48.66.66,0,0,1-.49.2Z"></path><path class="cls-3" d="M769.93,242a10.56,10.56,0,0,1-4.44-.85,6.5,6.5,0,0,1-2.88-2.49,8.13,8.13,0,0,1-1.13-4c0-.77,0-1.6,0-2.47s0-1.7,0-2.5a7.71,7.71,0,0,1,1.15-3.88,6.38,6.38,0,0,1,2.9-2.43,10.69,10.69,0,0,1,4.4-.84,12.09,12.09,0,0,1,3.62.5,8.35,8.35,0,0,1,2.65,1.34,6.36,6.36,0,0,1,1.64,1.83,4.23,4.23,0,0,1,.6,2,.54.54,0,0,1-.18.41.6.6,0,0,1-.42.16h-4a.75.75,0,0,1-.44-.1.71.71,0,0,1-.26-.28,4.12,4.12,0,0,0-.56-.85,3.09,3.09,0,0,0-1-.77,3.84,3.84,0,0,0-1.68-.32,3.44,3.44,0,0,0-2.41.81,3.53,3.53,0,0,0-1,2.59c-.06,1.55-.06,3.11,0,4.7a3.73,3.73,0,0,0,1,2.72,3.55,3.55,0,0,0,2.48.84,4.32,4.32,0,0,0,1.8-.35,2.76,2.76,0,0,0,1.27-1.09,3.65,3.65,0,0,0,.46-1.91v-.51H771a.63.63,0,0,1-.48-.2.69.69,0,0,1-.19-.5v-2a.69.69,0,0,1,.19-.5.63.63,0,0,1,.48-.2h6.85a.66.66,0,0,1,.49.2.69.69,0,0,1,.19.5v3.08a7.15,7.15,0,0,1-1.06,4,6.78,6.78,0,0,1-3,2.52A10.83,10.83,0,0,1,769.93,242Z"></path><path class="cls-3" d="M782.32,241.69a.66.66,0,0,1-.49-.2.73.73,0,0,1-.19-.48V223.46a.67.67,0,0,1,.19-.48.66.66,0,0,1,.49-.19H795a.66.66,0,0,1,.49.19.63.63,0,0,1,.19.48V226a.66.66,0,0,1-.19.49.7.7,0,0,1-.49.19h-8.67v3.64h8.07a.62.62,0,0,1,.49.21.67.67,0,0,1,.19.49v2.35a.68.68,0,0,1-.19.48.65.65,0,0,1-.49.2h-8.07v3.75h8.89a.66.66,0,0,1,.49.19.7.7,0,0,1,.19.49V241a.73.73,0,0,1-.19.48.66.66,0,0,1-.49.2Z"></path><path class="cls-3" d="M799.68,241.69a.63.63,0,0,1-.48-.2A.68.68,0,0,1,799,241V223.46a.63.63,0,0,1,.19-.48.62.62,0,0,1,.48-.19h2.88a1,1,0,0,1,.67.2,1.65,1.65,0,0,1,.26.31l6.63,10.37V223.46a.63.63,0,0,1,.19-.48.64.64,0,0,1,.49-.19h3.26a.66.66,0,0,1,.49.19.67.67,0,0,1,.19.48V241a.74.74,0,0,1-.19.5.66.66,0,0,1-.49.2h-2.91a.83.83,0,0,1-.64-.22l-.26-.29-6.63-10V241a.68.68,0,0,1-.19.48.65.65,0,0,1-.49.2Z"></path><path class="cls-3" d="M819.22,241.69a.66.66,0,0,1-.49-.2.68.68,0,0,1-.19-.48V223.46a.63.63,0,0,1,.19-.48.66.66,0,0,1,.49-.19h12.69a.66.66,0,0,1,.49.19.67.67,0,0,1,.19.48V226a.65.65,0,0,1-.68.68h-8.67v3.64h8.07a.64.64,0,0,1,.49.21.67.67,0,0,1,.19.49v2.35a.68.68,0,0,1-.19.48.66.66,0,0,1-.49.2h-8.07v3.75h8.89a.63.63,0,0,1,.48.19.66.66,0,0,1,.19.49V241a.68.68,0,0,1-.19.48.64.64,0,0,1-.48.2Z"></path><path class="cls-3" d="M836.58,241.69a.66.66,0,0,1-.49-.2.68.68,0,0,1-.19-.48V223.46a.63.63,0,0,1,.19-.48.66.66,0,0,1,.49-.19H844a8.64,8.64,0,0,1,5.54,1.61,6.16,6.16,0,0,1,1.09,7.79,5.78,5.78,0,0,1-2.45,2l3.73,6.65a.67.67,0,0,1,.08.29.51.51,0,0,1-.18.39.54.54,0,0,1-.39.18h-3.62a1,1,0,0,1-.76-.26,2.1,2.1,0,0,1-.35-.47l-3.1-5.94h-2.77v6a.69.69,0,0,1-.2.48.72.72,0,0,1-.5.2Zm4.21-10.5h3.13a2.64,2.64,0,0,0,1.91-.62,2.24,2.24,0,0,0,.64-1.68,2.36,2.36,0,0,0-.61-1.7,2.58,2.58,0,0,0-1.94-.65h-3.13Z"></path><path class="cls-3" d="M853.59,241.69a.55.55,0,0,1-.4-.18.54.54,0,0,1-.17-.39.88.88,0,0,1,0-.24l6.38-17.33a1,1,0,0,1,1.06-.76h4a1,1,0,0,1,1.06.76l6.36,17.33a.6.6,0,0,1,.05.24.54.54,0,0,1-.17.39.58.58,0,0,1-.43.18H868a.86.86,0,0,1-.61-.2,1.2,1.2,0,0,1-.26-.37l-1.06-2.75h-7.25l-1,2.75a1.14,1.14,0,0,1-.25.37.87.87,0,0,1-.65.2Zm6.38-7.21H865l-2.53-7.13Z"></path><path class="cls-3" d="M877.06,241.69a.66.66,0,0,1-.49-.2.73.73,0,0,1-.19-.48V227h-4.83a.65.65,0,0,1-.49-.2.68.68,0,0,1-.19-.48v-2.89a.63.63,0,0,1,.19-.48.64.64,0,0,1,.49-.19h14.61a.64.64,0,0,1,.49.19.63.63,0,0,1,.19.48v2.89a.68.68,0,0,1-.19.48.65.65,0,0,1-.49.2h-4.83v14a.73.73,0,0,1-.19.48.66.66,0,0,1-.49.2Z"></path><path class="cls-3" d="M890,241.69a.65.65,0,0,1-.49-.2.68.68,0,0,1-.19-.48V223.46a.63.63,0,0,1,.19-.48.64.64,0,0,1,.49-.19h3.64a.69.69,0,0,1,.5.19.64.64,0,0,1,.2.48V241a.69.69,0,0,1-.2.48.7.7,0,0,1-.5.2Z"></path><path class="cls-3" d="M905.89,242a10.76,10.76,0,0,1-4.35-.81,6.38,6.38,0,0,1-2.88-2.44,8.2,8.2,0,0,1-1.14-4.09q0-1.17,0-2.34t0-2.34a8.2,8.2,0,0,1,1.16-4.09,6.42,6.42,0,0,1,2.9-2.49,11.5,11.5,0,0,1,8.63,0,6.61,6.61,0,0,1,2.91,2.49,8.09,8.09,0,0,1,1.14,4.09c0,.78,0,1.56,0,2.34s0,1.56,0,2.34a8,8,0,0,1-1.13,4.09,6.46,6.46,0,0,1-2.89,2.44A10.79,10.79,0,0,1,905.89,242Zm0-3.89a3.3,3.3,0,0,0,2.35-.86,3.79,3.79,0,0,0,1-2.76c0-.79.06-1.54.06-2.24s0-1.43-.06-2.18a4.79,4.79,0,0,0-.47-2.07,2.68,2.68,0,0,0-1.16-1.17,3.53,3.53,0,0,0-1.68-.38,3.47,3.47,0,0,0-1.66.38,2.75,2.75,0,0,0-1.17,1.17,4.78,4.78,0,0,0-.49,2.07c0,.75,0,1.48,0,2.18s0,1.45,0,2.24a3.93,3.93,0,0,0,1,2.76A3.25,3.25,0,0,0,905.89,238.07Z"></path><path class="cls-3" d="M918.14,241.69a.66.66,0,0,1-.49-.2.73.73,0,0,1-.19-.48V223.46a.67.67,0,0,1,.19-.48.66.66,0,0,1,.49-.19H921a1,1,0,0,1,.67.2,2.18,2.18,0,0,1,.26.31l6.63,10.37V223.46a.65.65,0,0,1,.67-.67h3.26a.64.64,0,0,1,.49.19.63.63,0,0,1,.19.48V241a.69.69,0,0,1-.19.5.65.65,0,0,1-.49.2h-2.9a.83.83,0,0,1-.64-.22,3.29,3.29,0,0,1-.26-.29l-6.63-10V241a.68.68,0,0,1-.19.48.66.66,0,0,1-.49.2Z"></path><rect class="cls-2" x="1242.18" width="255.7" height="106.52" rx="32.47"></rect><path class="cls-4" d="M1307.17,48.51a.66.66,0,0,1-.49-.2.72.72,0,0,1-.18-.48V30.29a.67.67,0,0,1,.18-.49.66.66,0,0,1,.49-.19h7.61a10.3,10.3,0,0,1,3.93.69,5.78,5.78,0,0,1,2.61,2.06,6.11,6.11,0,0,1,.93,3.49,5.93,5.93,0,0,1-.93,3.43,5.52,5.52,0,0,1-2.61,2,10.72,10.72,0,0,1-3.93.65h-3.23v5.91a.66.66,0,0,1-.21.48.69.69,0,0,1-.5.2Zm4.3-10.31h3.18a2.75,2.75,0,0,0,1.86-.6,2.25,2.25,0,0,0,.69-1.81,2.58,2.58,0,0,0-.6-1.73,2.46,2.46,0,0,0-1.95-.7h-3.18Z"></path><path class="cls-4" d="M1322.47,48.51a.53.53,0,0,1-.39-.18.51.51,0,0,1-.18-.39.88.88,0,0,1,0-.24l6.38-17.33a1.13,1.13,0,0,1,.34-.53,1.05,1.05,0,0,1,.72-.23h4a1,1,0,0,1,1.06.76l6.36,17.33a.47.47,0,0,1,0,.24.54.54,0,0,1-.17.39.58.58,0,0,1-.42.18h-3.35a.86.86,0,0,1-.61-.2,1.2,1.2,0,0,1-.26-.37l-1-2.75h-7.26l-1,2.75a1.14,1.14,0,0,1-.25.37.87.87,0,0,1-.65.2Zm6.39-7.21h5.05l-2.53-7.13Z"></path><path class="cls-4" d="M1350.4,48.78a10.56,10.56,0,0,1-4.4-.84,6.45,6.45,0,0,1-2.87-2.45,8.1,8.1,0,0,1-1.12-4q0-1.11,0-2.37t0-2.43a8.07,8.07,0,0,1,1.14-4,6.46,6.46,0,0,1,2.88-2.48,10.48,10.48,0,0,1,4.37-.84,11.69,11.69,0,0,1,3.32.45,8.13,8.13,0,0,1,2.66,1.29,6.22,6.22,0,0,1,1.78,2.05,6,6,0,0,1,.66,2.72.44.44,0,0,1-.15.4.57.57,0,0,1-.42.16h-3.66a1,1,0,0,1-.55-.14,1.16,1.16,0,0,1-.32-.56,3.18,3.18,0,0,0-1.24-2,4,4,0,0,0-2.11-.52,3.29,3.29,0,0,0-2.36.82,3.86,3.86,0,0,0-1,2.74c0,1.48,0,3,0,4.54a3.86,3.86,0,0,0,1,2.74,3.29,3.29,0,0,0,2.36.82,3.93,3.93,0,0,0,2.12-.54,3.05,3.05,0,0,0,1.23-1.94,1,1,0,0,1,.31-.56,1,1,0,0,1,.56-.14h3.66a.57.57,0,0,1,.42.16.44.44,0,0,1,.15.4,6,6,0,0,1-.66,2.72,6.22,6.22,0,0,1-1.78,2,8.13,8.13,0,0,1-2.66,1.29A11.69,11.69,0,0,1,1350.4,48.78Z"></path><path class="cls-4" d="M1362.35,48.51a.64.64,0,0,1-.48-.2.68.68,0,0,1-.19-.48V30.29a.64.64,0,0,1,.19-.49.63.63,0,0,1,.48-.19h3.43a.66.66,0,0,1,.49.19.68.68,0,0,1,.19.49v6l5-6.16a1.37,1.37,0,0,1,.37-.33,1.18,1.18,0,0,1,.69-.18h3.92a.5.5,0,0,1,.4.18.54.54,0,0,1,.17.39.57.57,0,0,1-.09.32l-6.52,8.15,7,9a.4.4,0,0,1,.11.32.53.53,0,0,1-.16.39.54.54,0,0,1-.41.18h-4a1.09,1.09,0,0,1-.74-.22,1.81,1.81,0,0,1-.34-.32l-5.38-6.67v6.53a.73.73,0,0,1-.19.48.66.66,0,0,1-.49.2Z"></path><path class="cls-4" d="M1378.6,48.51a.54.54,0,0,1-.39-.18.51.51,0,0,1-.18-.39.88.88,0,0,1,0-.24l6.38-17.33a1.13,1.13,0,0,1,.34-.53,1.09,1.09,0,0,1,.72-.23h4a1.05,1.05,0,0,1,.72.23,1,1,0,0,1,.34.53l6.36,17.33a.48.48,0,0,1,.06.24.51.51,0,0,1-.18.39.58.58,0,0,1-.42.18h-3.34a.84.84,0,0,1-.61-.2.93.93,0,0,1-.26-.37l-1.06-2.75h-7.26l-1,2.75a1.27,1.27,0,0,1-.24.37.91.91,0,0,1-.66.2ZM1385,41.3h5l-2.53-7.13Z"></path><path class="cls-4" d="M1406.59,48.78a10.61,10.61,0,0,1-4.45-.85,6.54,6.54,0,0,1-2.88-2.48,8.2,8.2,0,0,1-1.12-4c0-.77,0-1.59,0-2.47s0-1.7,0-2.49a7.62,7.62,0,0,1,1.14-3.89,6.52,6.52,0,0,1,2.91-2.43,10.66,10.66,0,0,1,4.4-.84,12,12,0,0,1,3.61.5,8.35,8.35,0,0,1,2.65,1.34,6.36,6.36,0,0,1,1.64,1.83,4.23,4.23,0,0,1,.6,2,.54.54,0,0,1-.18.41.57.57,0,0,1-.42.16h-4a.89.89,0,0,1-.45-.09.82.82,0,0,1-.26-.29,4.12,4.12,0,0,0-.56-.85,3.09,3.09,0,0,0-1-.77,3.79,3.79,0,0,0-1.67-.32,3.47,3.47,0,0,0-2.42.81,3.57,3.57,0,0,0-1,2.59c0,1.55,0,3.11,0,4.7a3.73,3.73,0,0,0,1,2.72,3.52,3.52,0,0,0,2.47.84,4.4,4.4,0,0,0,1.81-.35,2.78,2.78,0,0,0,1.26-1.09,3.56,3.56,0,0,0,.46-1.91V41h-2.55a.65.65,0,0,1-.49-.2.69.69,0,0,1-.19-.5v-2a.69.69,0,0,1,.19-.5.65.65,0,0,1,.49-.2h6.84a.65.65,0,0,1,.49.2.69.69,0,0,1,.19.5v3.08a7.15,7.15,0,0,1-1.06,4,6.67,6.67,0,0,1-3,2.52A10.79,10.79,0,0,1,1406.59,48.78Z"></path><path class="cls-4" d="M1419,48.51a.65.65,0,0,1-.49-.2.68.68,0,0,1-.19-.48V30.29a.65.65,0,0,1,.68-.68h12.68a.65.65,0,0,1,.68.68v2.53a.66.66,0,0,1-.19.49.68.68,0,0,1-.49.19H1423v3.64h8.07a.6.6,0,0,1,.48.21.68.68,0,0,1,.2.49v2.35a.69.69,0,0,1-.2.48.63.63,0,0,1-.48.2H1423v3.75h8.88a.65.65,0,0,1,.68.68v2.53a.68.68,0,0,1-.19.48.66.66,0,0,1-.49.2Z"></path><path class="cls-4" d="M1287.57,75.51a.66.66,0,0,1-.49-.2.73.73,0,0,1-.19-.48V57.29a.68.68,0,0,1,.19-.49.66.66,0,0,1,.49-.19h7.61a10.21,10.21,0,0,1,3.92.69,5.68,5.68,0,0,1,2.61,2.06,6,6,0,0,1,.94,3.49,5.86,5.86,0,0,1-.94,3.43,5.43,5.43,0,0,1-2.61,2,10.63,10.63,0,0,1-3.92.65H1292v5.91a.66.66,0,0,1-.21.48.69.69,0,0,1-.5.2Zm4.29-10.31H1295a2.74,2.74,0,0,0,1.86-.6,2.22,2.22,0,0,0,.7-1.81,2.58,2.58,0,0,0-.6-1.73,2.47,2.47,0,0,0-2-.7h-3.18Z"></path><path class="cls-4" d="M1313.25,75.78a10.76,10.76,0,0,1-4.31-.8,6.08,6.08,0,0,1-2.84-2.45,8.08,8.08,0,0,1-1-4.23v-11a.64.64,0,0,1,.19-.49.63.63,0,0,1,.48-.19h3.51a.68.68,0,0,1,.5.19.62.62,0,0,1,.21.49v11a3.7,3.7,0,0,0,.84,2.64,3.7,3.7,0,0,0,4.77,0,3.66,3.66,0,0,0,.85-2.64v-11a.62.62,0,0,1,.21-.49.64.64,0,0,1,.47-.19h3.53a.68.68,0,0,1,.48.19.65.65,0,0,1,.2.49v11a8.08,8.08,0,0,1-1,4.23,6.1,6.1,0,0,1-2.83,2.45A10.55,10.55,0,0,1,1313.25,75.78Z"></path><path class="cls-4" d="M1325.64,75.51a.65.65,0,0,1-.49-.2.68.68,0,0,1-.19-.48V57.29a.65.65,0,0,1,.68-.68h8.28a9.7,9.7,0,0,1,3.83.65,4.62,4.62,0,0,1,2.22,1.85,5.44,5.44,0,0,1,.72,2.85,3.74,3.74,0,0,1-.37,1.71,3.84,3.84,0,0,1-.9,1.23,4,4,0,0,1-1,.7,4.89,4.89,0,0,1,1.84,1.59,4.36,4.36,0,0,1,.8,2.6,5.69,5.69,0,0,1-.8,3.06,5.18,5.18,0,0,1-2.34,2,9.15,9.15,0,0,1-3.76.69Zm4.21-11.39h3.53a2.24,2.24,0,0,0,1.67-.58,2,2,0,0,0,.56-1.45,1.92,1.92,0,0,0-.56-1.42,2.27,2.27,0,0,0-1.67-.55h-3.53Zm0,7.88h3.77a2.24,2.24,0,0,0,1.77-.67,2.34,2.34,0,0,0,0-3.14,2.32,2.32,0,0,0-1.76-.65h-3.77Z"></path><path class="cls-4" d="M1344.76,75.51a.66.66,0,0,1-.49-.2.73.73,0,0,1-.19-.48V57.29a.68.68,0,0,1,.19-.49.66.66,0,0,1,.49-.19h3.59a.66.66,0,0,1,.49.19.68.68,0,0,1,.19.49V71.43h8.23a.64.64,0,0,1,.49.21.67.67,0,0,1,.19.49v2.7a.68.68,0,0,1-.19.48.66.66,0,0,1-.49.2Z"></path><path class="cls-4" d="M1361,75.51a.66.66,0,0,1-.49-.2.73.73,0,0,1-.19-.48V57.29a.68.68,0,0,1,.19-.49.66.66,0,0,1,.49-.19h3.64a.72.72,0,0,1,.51.19.65.65,0,0,1,.2.49V74.83a.69.69,0,0,1-.2.48.73.73,0,0,1-.51.2Z"></path><path class="cls-4" d="M1376.2,75.78a11.52,11.52,0,0,1-4.51-.77,6.42,6.42,0,0,1-2.72-2,4.68,4.68,0,0,1-1-2.65.54.54,0,0,1,.18-.39.57.57,0,0,1,.42-.17H1372a1.08,1.08,0,0,1,.59.13,1.49,1.49,0,0,1,.36.35,3.12,3.12,0,0,0,.62.78,2.7,2.7,0,0,0,1,.61,5.86,5.86,0,0,0,4-.25,1.5,1.5,0,0,0,.81-1.33,1.28,1.28,0,0,0-.44-1,4,4,0,0,0-1.4-.68,24.49,24.49,0,0,0-2.57-.64,15.77,15.77,0,0,1-3.51-1.12,5.39,5.39,0,0,1-2.22-1.81,5.28,5.28,0,0,1,.18-5.74,6.12,6.12,0,0,1,2.62-2,9.91,9.91,0,0,1,4-.73,10.16,10.16,0,0,1,3.31.49,7.42,7.42,0,0,1,2.4,1.29,6.15,6.15,0,0,1,1.48,1.72,3.83,3.83,0,0,1,.53,1.76.6.6,0,0,1-.15.4.54.54,0,0,1-.42.17h-3.59a1,1,0,0,1-.51-.11,1,1,0,0,1-.38-.35,1.9,1.9,0,0,0-.86-1,3.34,3.34,0,0,0-1.81-.44,3.51,3.51,0,0,0-1.86.42,1.41,1.41,0,0,0-.66,1.28,1.37,1.37,0,0,0,.36.94,3,3,0,0,0,1.23.71,24,24,0,0,0,2.35.62,18,18,0,0,1,4,1.14,5.08,5.08,0,0,1,2.24,1.79,5.39,5.39,0,0,1-.34,5.9,6.66,6.66,0,0,1-2.89,2A11.57,11.57,0,0,1,1376.2,75.78Z"></path><path class="cls-4" d="M1387.8,75.51a.66.66,0,0,1-.49-.19.64.64,0,0,1-.19-.49V57.29a.64.64,0,0,1,.19-.49.66.66,0,0,1,.49-.19h3.5a.72.72,0,0,1,.51.19.65.65,0,0,1,.2.49v6.5h6.68v-6.5a.68.68,0,0,1,.19-.49.66.66,0,0,1,.49-.19h3.51a.66.66,0,0,1,.49.19.68.68,0,0,1,.19.49V74.83a.73.73,0,0,1-.19.48.66.66,0,0,1-.49.2h-3.51a.66.66,0,0,1-.49-.2.73.73,0,0,1-.19-.48V68.11H1392v6.72a.69.69,0,0,1-.2.48.73.73,0,0,1-.51.2Z"></path><path class="cls-4" d="M1408,75.51a.66.66,0,0,1-.49-.2.68.68,0,0,1-.19-.48V57.29a.64.64,0,0,1,.19-.49.66.66,0,0,1,.49-.19h3.64a.68.68,0,0,1,.5.19.62.62,0,0,1,.21.49V74.83a.66.66,0,0,1-.21.48.69.69,0,0,1-.5.2Z"></path><path class="cls-4" d="M1416.84,75.51a.66.66,0,0,1-.49-.2.73.73,0,0,1-.19-.48V57.29a.68.68,0,0,1,.19-.49.66.66,0,0,1,.49-.19h2.88a1,1,0,0,1,.67.2,2.18,2.18,0,0,1,.26.31l6.63,10.37V57.29a.64.64,0,0,1,.67-.68h3.26a.65.65,0,0,1,.68.68V74.81a.69.69,0,0,1-.19.5.65.65,0,0,1-.49.2h-2.9a.81.81,0,0,1-.64-.22,3.29,3.29,0,0,1-.26-.29l-6.63-10v9.82a.68.68,0,0,1-.19.48.66.66,0,0,1-.49.2Z"></path><path class="cls-4" d="M1443.55,75.78a10.56,10.56,0,0,1-4.44-.85,6.54,6.54,0,0,1-2.88-2.48,8.1,8.1,0,0,1-1.13-4c0-.77,0-1.59,0-2.47s0-1.7,0-2.49a7.62,7.62,0,0,1,1.14-3.89,6.52,6.52,0,0,1,2.91-2.43,10.69,10.69,0,0,1,4.4-.84,12,12,0,0,1,3.61.5,8.24,8.24,0,0,1,2.65,1.34,6.25,6.25,0,0,1,1.65,1.83,4.1,4.1,0,0,1,.59,2,.53.53,0,0,1-.17.41.6.6,0,0,1-.42.16h-4a.89.89,0,0,1-.45-.09.93.93,0,0,1-.26-.29,4,4,0,0,0-.55-.85,3.14,3.14,0,0,0-1-.77,3.76,3.76,0,0,0-1.67-.32,3.49,3.49,0,0,0-2.42.81,3.57,3.57,0,0,0-1,2.59c-.05,1.55-.05,3.11,0,4.7a3.73,3.73,0,0,0,1,2.72,3.52,3.52,0,0,0,2.47.84,4.4,4.4,0,0,0,1.81-.35,2.78,2.78,0,0,0,1.26-1.09,3.56,3.56,0,0,0,.46-1.91V68h-2.55a.66.66,0,0,1-.49-.2.69.69,0,0,1-.19-.5v-2a.69.69,0,0,1,.19-.5.66.66,0,0,1,.49-.2h6.85a.66.66,0,0,1,.49.2.74.74,0,0,1,.19.5v3.08a7.24,7.24,0,0,1-1.06,4,6.75,6.75,0,0,1-3,2.52A10.79,10.79,0,0,1,1443.55,75.78Z"></path></g></g></svg>