<svg xmlns="http://www.w3.org/2000/svg" width="250" height="158.474" viewBox="0 0 250 158.474"><g transform="translate(-2803.897 -2016.887)"><rect width="250" height="150" transform="translate(2803.897 2025.361)" fill="none" opacity="0.24"></rect><g transform="translate(2858.902 2019.964)"><g transform="translate(0 -3.077)"><g transform="translate(0 0)"><rect width="4.284" height="34.057" rx="2.142" transform="translate(96.334 12.482) rotate(39.5)" fill="#0c7ff2"></rect><rect width="4.284" height="25.883" rx="2.142" transform="translate(47.059 4.559) rotate(-22.72)" fill="#0c7ff2"></rect><rect width="4.284" height="24.499" rx="2.142" transform="translate(79.125 0) rotate(22.39)" fill="#0c7ff2"></rect><rect width="4.284" height="34.054" rx="2.142" transform="translate(29.835 17.941) rotate(-43.11)" fill="#0c7ff2"></rect><path d="M202.722,539.467h0a7.057,7.057,0,0,1-.982-.838c-.252-.257-.5-.54-.747-.846-6.2-6.019-27.152-26.18-31.914-28.479a7.041,7.041,0,0,0-4.509-.752,5.918,5.918,0,0,0-3.711,2.589c-5.292,6.671-10.1,7.868-13.3,7.458a5.764,5.764,0,0,1-3.912-1.856c-.773-1.355.773-6.767,3.093-8.505a5.278,5.278,0,0,0,1.757-3.787,10.052,10.052,0,0,1,2.875-6.112q.5-.5,1.1-1.033l-2.01-.238-24.124-2.849s-2.241,22.861-12.085,37.223l-.473.677a41.76,41.76,0,0,1,10.994,4.895l.928.569,4.369,2.666q1.206.735,2.456,1.489l6.659,3.994,1.915,1.135,7.67,4.475q1.276.733,2.5,1.426l7.233,3.945.773.394a22.582,22.582,0,0,0,4.87,1.984,42.546,42.546,0,0,0,6.767,1.16c.632.07,3.9-.832,4.271-2.081.165-.56.2-1.016-.017-1.206l-11.2-8.691h0l.031.02c4.786,3.155,14.5,11.218,16.194,10.6a8.642,8.642,0,0,0,2.027-1.013h0c4.12-2.867-.193-7.319-.193-7.319L162.7,534.245,186.02,553.5a5.913,5.913,0,0,0,4.381,1.359,5.154,5.154,0,0,0,3.62-2.047c2.654-3.413,1.74-4.9,0-6.606-.968-.951-7.423-6.456-13.123-11.4,1.661,1.434,3.445,2.946,5.244,4.427l.1.079c2.4,1.973,4.813,3.886,6.988,5.47l.182.133A27.574,27.574,0,0,0,199.6,548.6l.028.011a2.3,2.3,0,0,0,1.164.136,5.949,5.949,0,0,0,1.584-.619C205.442,546.388,206.563,542.14,202.722,539.467ZM174.8,529.457l.206.181C174.934,529.575,174.866,529.514,174.8,529.457Zm.5.441c.1.085.2.178.309.272C175.5,530.077,175.4,529.984,175.3,529.9Zm.319.28,2.606,2.276C177.317,531.667,176.358,530.837,175.619,530.178Z" transform="translate(-96.185 -417.316)" fill="#cee0f2"></path><path d="M186.943,501.109a26.677,26.677,0,0,1,8.218,1.693c5.027,1.74,9.743-.289,13.285.532a25.764,25.764,0,0,0,4.7.821s-.667,2.912-2.938,3.1-7.242,0-7.242,0a62.877,62.877,0,0,1-8.184-1.546,18.786,18.786,0,0,0-7.154-.773c-.387.195-2.165-.705-2.165-.705Z" transform="translate(-156.78 -423.14)" fill="#ebf0f5" opacity="0.22"></path><path d="M380.582,509.1l-5.221,3.473-8.242,5.343-2.2,1.426h0c-.062-.06-.687-.671-1.729-1.684-6.2-6.013-27.152-26.175-31.914-28.473-5.607-2.708-8.218,1.836-8.218,1.836-7.135,9-13.4,8.042-16,6.609a3.266,3.266,0,0,1-1.212-1c-.773-1.353.773-6.767,3.093-8.505a5.288,5.288,0,0,0,1.754-3.786,10.085,10.085,0,0,1,2.878-6.116c.331-.334.7-.679,1.1-1.03a29.226,29.226,0,0,1,11.492-5.9c12.392-3.492,22.991,4.649,22.991,4.649l12.181-.773,6.968,12.293.023.037h0Z" transform="translate(-258.382 -397.197)" fill="#cee0f2"></path><path d="M479.374,616.371l-1.3.844h0c-.062-.06-.687-.671-1.727-1.684-6.206-6.019-27.154-26.18-31.915-28.479a8.782,8.782,0,0,0-2.219-.752,7.041,7.041,0,0,1,4.509.752c4.761,2.3,25.71,22.46,31.908,28.473C478.873,615.832,479.122,616.115,479.374,616.371Z" transform="translate(-373.825 -495.064)" fill="#cee0f2"></path><path d="M225.616,770.1v.008a.274.274,0,0,1-.377.354l-.155-.083-7.234-3.943c-.815-.464-1.653-.939-2.5-1.426l-7.67-4.475-1.914-1.135L199.1,755.4l-2.456-1.489-3.984-2.432a.274.274,0,0,1,0-.464c1.642-1,3.28-1.927,4.028-2.426,1.373-.916,4.485-.967,5.989-1.6a.275.275,0,0,1,.359.363c-.849,1.921-2.669,6.074-1.7,7.036,2.714,2.716,8.779-2.641,9.124-3.06a7.163,7.163,0,0,1,1.494-.967.274.274,0,0,1,.37.376c-1.052,1.856-2.811,4.9-1.9,7.326.97,2.584,7.851-1.307,10.281-3.166a.274.274,0,0,1,.424.309c-.745,2.064-1.837,5.567-1.229,7.687s6.894-1.97,9.7-4.4a.274.274,0,0,1,.421.339C228.271,762.043,224.793,768.317,225.616,770.1Z" transform="translate(-162.756 -630.982)" fill="#455666" opacity="0.6"></path><path d="M308.29,761.774l-6.464,8.113-1.638,2.227a3.6,3.6,0,0,1-5.037.773l-.773-.568a3.6,3.6,0,0,1-.773-5.038l.983-1.339,8.284-8.147a2.966,2.966,0,0,1,4.144-.636l.636.464a2.963,2.963,0,0,1,.637,4.151Z" transform="translate(-247.61 -639.108)" fill="#cee0f2"></path><path d="M253.941,734.275l-5.884,7.732-1.639,2.221a3.6,3.6,0,0,1-5.037.773l-.773-.566a3.6,3.6,0,0,1-.773-5.04l.985-1.339,7.7-7.76a2.966,2.966,0,0,1,4.146-.634l.634.464a2.964,2.964,0,0,1,.639,4.149Z" transform="translate(-202.154 -615.862)" fill="#cee0f2"></path><path d="M198.243,718.036l-3.953,5.02-1.639,2.232a3.609,3.609,0,0,1-5.037.773l-.773-.568a3.6,3.6,0,0,1-.773-5.038l.985-1.341,5.771-5.054a2.968,2.968,0,0,1,4.146-.634l.634.464a2.971,2.971,0,0,1,.634,4.148Z" transform="translate(-156.702 -602.137)" fill="#cee0f2"></path><path d="M30.163,456.747s-.252,2.564-.957,6.512a99.046,99.046,0,0,1-6.875,23.079c-.246.535-.5,1.065-.758,1.59a49.352,49.352,0,0,1-3.5,6.04l-.473.676-2.515,3.866L0,493.291l5.5-15.166,8.643-23.815,1.6-4.42Z" transform="translate(0 -379.841)" fill="#0c7ff2"></path><path d="M361.76,783.018l-7.431,9.466-1.641,2.225a3.6,3.6,0,0,1-5.037.773l-.773-.568a3.6,3.6,0,0,1-.773-5.038l.984-1.341,9.251-9.5a2.966,2.966,0,0,1,4.146-.634l.634.464a2.966,2.966,0,0,1,.64,4.152Z" transform="translate(-291.991 -657.065)" fill="#cee0f2"></path><path d="M536.559,740.074a5.978,5.978,0,0,1-1.583.619,2.3,2.3,0,0,1-1.164-.138l-.026-.009a30.773,30.773,0,0,1-6.186-3.685c-.06-.043-.122-.087-.184-.133-2.235-1.613-4.658-3.537-6.988-5.47l-.1-.08c-5.849-4.861-11.082-9.755-11.23-9.9l20.483,15.464a18.961,18.961,0,0,0,6.135,3.074Z" transform="translate(-430.371 -609.262)" fill="#455666" opacity="0.6"></path><path d="M464.164,775.817a9.194,9.194,0,0,1-2.03.484,2.252,2.252,0,0,1-1.256.1,13.806,13.806,0,0,1-2.128-.773c-1.356-1.03-2.55-2.01-4.961-3.735-.06-.043-.122-.087-.184-.133-2.235-1.613-4.658-3.537-6.987-5.471-.031-.025-.065-.051-.1-.079-5.849-4.861-11.082-9.755-11.23-9.9l20.483,15.464a25.568,25.568,0,0,0,7.1,3.656Z" transform="translate(-367.975 -638.875)" fill="#455666" opacity="0.6"></path><path d="M449.512,852.491c.213.189.182.645.019,1.206-4.308-3.8-10.921-9.633-11.221-9.9Z" transform="translate(-370.528 -712.836)" fill="#455666" opacity="0.6"></path><path d="M456.772,853.481a8.685,8.685,0,0,1-2.029,1.013c-1.692.619-11.408-7.448-16.193-10.6.8.506,11.079,6.99,13.68,8.478A6.844,6.844,0,0,0,456.772,853.481Z" transform="translate(-370.731 -712.912)" fill="#455666" opacity="0.6"></path><path d="M407.169,596.7l-.736.354-9.786,6.359-2.205,1.433h0a.049.049,0,0,0-.016-.015c-.124-.121-.735-.717-1.71-1.667-6.2-6.014-27.151-26.177-31.912-28.475-5.607-2.708-8.218,1.836-8.218,1.836-7.135,9-13.241,7.227-11.795,6.769,6.371-2.01,6.381-2.128,10.442-8.122a7.376,7.376,0,0,1,9.86-2.706s14.881,10.825,25.188,19.743c8.2,4.117,19.145,3.592,19.145,3.592Z" transform="translate(-287.909 -482.697)" fill="#24313e" opacity="0.36"></path><path d="M691.129,777.5v.014l-2.2,1.426h0Z" transform="translate(-582.391 -656.789)" fill="#455666" opacity="0.36"></path><path d="M599.2,501.11l6.968,12.293a26.533,26.533,0,0,0-6.582-7.072c-4.253-3.093-12.568-4.448-12.568-4.448Z" transform="translate(-496.241 -423.141)" fill="#ebf0f5" opacity="0.4"></path><path d="M710.873,580.612h0a.341.341,0,0,0-.023-.042Z" transform="translate(-600.921 -490.313)" fill="#455666"></path><path d="M212.677,745.12l-2.406,3.278-1.639,2.232a3.59,3.59,0,0,1-2.595,1.454c-.849-.135-1.546-.247-1.74-.81s.773-3.286,2.513-4.253,1.74,0,3.557-.708,2.284-3.093,2.284-3.093a4.927,4.927,0,0,1,.555-.39A2.955,2.955,0,0,1,212.677,745.12Z" transform="translate(-172.683 -627.48)" fill="#455666" opacity="0.21"></path><path d="M267.966,748.383l-3.732,5.334-2.346,3.365a4.729,4.729,0,0,1-3.056,2.191c-.806-.2-1.474-.373-1.483-1.222-.009-.874,1.174-1.007,3.22-2.465s1.6-.81,3.809-3.155c1.718-1.825,4.161-6.914,4.161-6.914a7.445,7.445,0,0,1,.679-.588A7.268,7.268,0,0,1,267.966,748.383Z" transform="translate(-217.552 -629.255)" fill="#455666" opacity="0.21"></path><path d="M320.963,778.262l-3.866,5.193-2.434,3.274a4.9,4.9,0,0,1-3.111,2.134c-.8-.2-1.466-.363-1.452-1.189.012-.851,1.2-.98,3.285-2.4a14.468,14.468,0,0,0,3.889-3.071c1.766-1.775,4.341-6.73,4.341-6.73a7.759,7.759,0,0,1,.694-.572A7.162,7.162,0,0,1,320.963,778.262Z" transform="translate(-262.144 -654.59)" fill="#455666" opacity="0.21"></path><path d="M372.787,800.126l-4.879,7.608-1.806,1.744a5.032,5.032,0,0,1-3.166,2.293c-.8-.213-1.455-.391-1.423-1.277.034-.916,1.225-1.055,3.345-2.58A17.341,17.341,0,0,0,369,804.358c1.809-1.908,4.508-7.23,4.508-7.23a8.094,8.094,0,0,1,.708-.619A8.2,8.2,0,0,1,372.787,800.126Z" transform="translate(-305.607 -672.859)" fill="#455666" opacity="0.21"></path><path d="M21.573,642.273a49.339,49.339,0,0,1-3.5,6.04l-.473.676-2.515,3.866L0,647.636,5.5,632.47s-4.025,13.946,4.7,15.715C16.623,649.484,20.15,644.84,21.573,642.273Z" transform="translate(0 -534.186)" fill="#455666" opacity="0.21"></path><path d="M107.488,456.713s-.252,2.564-.957,6.512a13.069,13.069,0,0,0-2.62-3.515c-5.994-5.8-5.994,0-10.442-4.254a4.975,4.975,0,0,0-2-1.186l1.6-4.42Z" transform="translate(-77.325 -379.808)" fill="#ebf0f5" opacity="0.22"></path><path d="M699.065,489.327,683.4,496.286a32.754,32.754,0,0,1-6.249-8.275h0c-6.94-12.225-11.343-30.194-11.343-30.194l11.408-7.927c2.055,5.972,7.632,16.007,12.636,24.463C694.728,482.589,699.065,489.327,699.065,489.327Z" transform="translate(-562.846 -379.841)" fill="#2e2e76"></path><path d="M761.071,622.987l-15.662,6.959a32.754,32.754,0,0,1-6.249-8.275c.107.155,2.609,3.662,8.473.445,5.994-3.291,4.225-14.116,4.225-14.116C756.735,616.249,761.071,622.987,761.071,622.987Z" transform="translate(-624.853 -513.501)" fill="#24313e" opacity="0.36"></path><path d="M679.694,455.765c-.967.045-4.959,1.652-9.249,2.579s-4.675-.234-4.675-.234l11.408-8.3Z" transform="translate(-562.813 -379.774)" fill="#ebf0f5" opacity="0.22"></path><path d="M509.05,82.72a1.912,1.912,0,0,0-.648.507l-19.2,23.3a1.931,1.931,0,0,0,.261,2.722l.323.264a1.916,1.916,0,0,0,1.3.441,1.925,1.925,0,0,1-2.075-.247l-.322-.264a1.932,1.932,0,0,1-.261-2.722l19.2-23.3a1.924,1.924,0,0,1,1.421-.7Z" transform="translate(-412.523 -69.452)" fill="#ebf0f5" opacity="0.59"></path><path d="M319.439,43.69l-.107.045A1.933,1.933,0,0,1,316.8,42.7L308.3,22.391a1.936,1.936,0,0,1,1.036-2.532l.385-.155a1.925,1.925,0,0,1,.667-.155l-.278.116a1.936,1.936,0,0,0-1.036,2.532l8.505,20.308A1.933,1.933,0,0,0,319.439,43.69Z" transform="translate(-260.495 -16.051)" fill="#ebf0f5" opacity="0.59"></path><path d="M464.838.79a1.919,1.919,0,0,0-.942,1l-7.862,19.074a1.933,1.933,0,0,0,1.05,2.525l.387.155a1.856,1.856,0,0,0,.809.142,1.919,1.919,0,0,1-1.584.051l-.387-.155a1.935,1.935,0,0,1-1.05-2.525l7.862-19.074A1.932,1.932,0,0,1,464.838.79Z" transform="translate(-384.732 -0.192)" fill="#ebf0f5" opacity="0.59"></path><path d="M221.5,125.173a1.935,1.935,0,0,1-2.259-.416L198.61,102.718a1.932,1.932,0,0,1,.091-2.731l.309-.286a1.93,1.93,0,0,1,1.248-.521,1.938,1.938,0,0,0-.482.328l-.309.286a1.932,1.932,0,0,0-.091,2.731l20.639,22.038A1.924,1.924,0,0,0,221.5,125.173Z" transform="translate(-167.455 -83.367)" fill="#ebf0f5" opacity="0.59"></path><path d="M300.117,512.65l2.01.238q-.6.529-1.1,1.033a10.052,10.052,0,0,0-2.875,6.112,5.281,5.281,0,0,1-1.757,3.787c-2.32,1.741-3.866,7.154-3.093,8.505a5.792,5.792,0,0,0,3.913,1.856,8.33,8.33,0,0,1-4.99-.85,3.264,3.264,0,0,1-1.212-1c-.773-1.355.773-6.767,3.093-8.505a5.274,5.274,0,0,0,1.754-3.786,10.087,10.087,0,0,1,2.879-6.116q.5-.5,1.1-1.03Z" transform="translate(-245.837 -432.896)" fill="#24313e" opacity="0.36"></path></g></g></g></g></svg>