<svg xmlns="http://www.w3.org/2000/svg" width="250" height="150" viewBox="0 0 250 150"><g transform="translate(-1080.135 -1488.6)"><rect width="250" height="150" transform="translate(1080.135 1488.6)" fill="none" opacity="0.24"></rect><g transform="translate(1150.64 1503.629)"><g transform="translate(0.013 -0.145)"><g transform="translate(0 0)"><path d="M144.353,238.167a2.864,2.864,0,0,0,2.438,2.78l4.7.707a2.866,2.866,0,0,1,2.025,1.359l6.6,10.974a2.866,2.866,0,0,1,.243,2.444l-1.607,4.485a2.868,2.868,0,0,0,1.3,3.466l3.757,2.108a2.866,2.866,0,0,0,3.633-.7l2.95-3.648a2.884,2.884,0,0,1,2.181-1.065l12.824-.222a2.868,2.868,0,0,1,2.236,1.028l3.1,3.69a2.867,2.867,0,0,0,3.644.634l3.719-2.174a2.871,2.871,0,0,0,1.235-3.493l-1.643-4.331a2.862,2.862,0,0,1,.182-2.41l6.519-11.737a2.849,2.849,0,0,1,1.974-1.427l4.644-.877a2.86,2.86,0,0,0,2.335-2.866l-.077-4.3a2.863,2.863,0,0,0-2.438-2.78l-4.692-.707a2.852,2.852,0,0,1-2.03-1.359l-6.6-10.975a2.866,2.866,0,0,1-.243-2.444l1.607-4.485a2.863,2.863,0,0,0-1.3-3.466l-3.756-2.1a2.859,2.859,0,0,0-3.633.7l-2.95,3.648a2.867,2.867,0,0,1-2.181,1.065l-12.824.222a2.881,2.881,0,0,1-2.248-1.023l-3.095-3.694a2.861,2.861,0,0,0-3.643-.63l-3.715,2.175a2.862,2.862,0,0,0-1.235,3.493l1.639,4.324a2.871,2.871,0,0,1-.172,2.4L153.226,228.7a2.881,2.881,0,0,1-1.974,1.427l-4.639.873a2.864,2.864,0,0,0-2.336,2.867Zm34.472-14.586a11.805,11.805,0,1,1-8.509,3.6A11.836,11.836,0,0,1,178.825,223.581Z" transform="translate(-124.12 -175.398)" fill="#2e2e76"></path><path d="M144.353,238.167a2.864,2.864,0,0,0,2.438,2.78l4.7.707a2.866,2.866,0,0,1,2.025,1.359l6.6,10.974a2.866,2.866,0,0,1,.243,2.444l-1.607,4.485a2.868,2.868,0,0,0,1.3,3.466l3.757,2.108a2.866,2.866,0,0,0,3.633-.7l2.95-3.648a2.884,2.884,0,0,1,2.181-1.065l12.824-.222a2.868,2.868,0,0,1,2.236,1.028l3.1,3.69a2.867,2.867,0,0,0,3.644.634l3.719-2.174a2.871,2.871,0,0,0,1.235-3.493l-1.643-4.331a2.862,2.862,0,0,1,.182-2.41l6.519-11.737a2.849,2.849,0,0,1,1.974-1.427l4.644-.877a2.86,2.86,0,0,0,2.335-2.866l-.077-4.3a2.863,2.863,0,0,0-2.438-2.78l-4.692-.707a2.852,2.852,0,0,1-2.03-1.359l-6.6-10.975a2.866,2.866,0,0,1-.243-2.444l1.607-4.485a2.863,2.863,0,0,0-1.3-3.466l-3.756-2.1a2.859,2.859,0,0,0-3.633.7l-2.95,3.648a2.867,2.867,0,0,1-2.181,1.065l-12.824.222a2.881,2.881,0,0,1-2.248-1.023l-3.095-3.694a2.861,2.861,0,0,0-3.643-.63l-3.715,2.175a2.862,2.862,0,0,0-1.235,3.493l1.639,4.324a2.871,2.871,0,0,1-.172,2.4L153.226,228.7a2.881,2.881,0,0,1-1.974,1.427l-4.639.873a2.864,2.864,0,0,0-2.336,2.867Zm34.472-14.586a11.805,11.805,0,1,1-8.509,3.6A11.836,11.836,0,0,1,178.825,223.581Z" transform="translate(-124.12 -175.398)" fill="none" stroke="#24313e" stroke-miterlimit="10" stroke-width="2"></path><path d="M99.306,19.706l-7.993,7.2q-1.488-1.656-3.11-3.152A49.128,49.128,0,0,0,10.143,39.29a2.556,2.556,0,0,1-3.274,1.316l-5.245-2.1A2.555,2.555,0,0,1,.238,35.089,59.864,59.864,0,0,1,97.3,17.585h0Q98.329,18.62,99.306,19.706Z" transform="translate(-0.013 0.131)" fill="#0c7ff2"></path><path d="M602.4,120.162l17.884,8.682a1.385,1.385,0,0,0,1.984-1.344l-1.421-19.832a1.382,1.382,0,0,0-2.154-1.047L602.233,117.77a1.383,1.383,0,0,0,.166,2.392Z" transform="translate(-517.564 -91.499)" fill="#0c7ff2"></path><path d="M112,612.522a59.828,59.828,0,0,1-45.5-20.958l8.174-6.993a49.13,49.13,0,0,0,81.458-10.324,2.561,2.561,0,0,1,3.31-1.232l5.189,2.235a2.556,2.556,0,0,1,1.291,3.453A59.836,59.836,0,0,1,112,612.522Z" transform="translate(-57.21 -492.754)" fill="#0c7ff2"></path><g transform="translate(9.291 80.053)" opacity="0.25"><path d="M165.93,578.7c-.01.02-.018.038-.031.059a2.552,2.552,0,0,0-1.267-1.181l-5.186-2.235a2.557,2.557,0,0,0-3.306,1.241,49.133,49.133,0,0,1-81.457,10.323l-7,5.99q-.6-.658-1.175-1.332l8.172-7a49.133,49.133,0,0,0,81.457-10.323,2.56,2.56,0,0,1,3.31-1.234l5.186,2.236a2.554,2.554,0,0,1,1.294,3.453Z" transform="translate(-66.51 -572.806)" fill="#ebf0f5"></path></g><path d="M50.358,589.4,32.7,580.267a1.383,1.383,0,0,0-2.018,1.292l.918,19.86a1.383,1.383,0,0,0,2.128,1.1l16.741-10.728a1.383,1.383,0,0,0-.11-2.393Z" transform="translate(-26.395 -499.038)" fill="#0c7ff2"></path><path d="M624.437,126.68l-11.677,4.035,2.922,2.685Z" transform="translate(-527.146 -108.96)" fill="#455666"></path><path d="M90.946,680.31l-9.086,5.972,2.6,2.6Z" transform="translate(-70.424 -585.236)" fill="#455666"></path><path d="M97.3,17.571h0A66.781,66.781,0,0,0,34.555,5.1S9.714,13.986,1.624,38.49A2.555,2.555,0,0,1,.238,35.069,59.864,59.864,0,0,1,97.3,17.571Z" transform="translate(-0.013 0.145)" fill="#ebf0f5" opacity="0.25"></path><g transform="translate(101.134 14.789)" opacity="0.25"><path d="M725.574,128.158l-.345-.169a1.355,1.355,0,0,0,.511-1.174l-1.42-19.829a1.364,1.364,0,0,0-.481-.95l.14-.1a1.385,1.385,0,0,1,2.156,1.047l1.42,19.829a1.383,1.383,0,0,1-1.981,1.343Z" transform="translate(-723.84 -105.703)" fill="#ebf0f5"></path></g><g transform="translate(4.394 81.077)" opacity="0.25"><path d="M51.236,591.836l-.324.205a1.358,1.358,0,0,0-.734-1.049l-17.648-9.155a1.368,1.368,0,0,0-1.062-.087l-.007-.172a1.385,1.385,0,0,1,2.019-1.291l17.647,9.155a1.383,1.383,0,0,1,.109,2.393Z" transform="translate(-31.46 -580.134)" fill="#ebf0f5"></path></g></g></g></g></g></svg>