<svg xmlns="http://www.w3.org/2000/svg" width="250" height="150" viewBox="0 0 250 150"><g transform="translate(-3742.381 -1103.704)"><rect width="250" height="150" transform="translate(3742.381 1103.704)" fill="none" opacity="0.24"></rect><g transform="translate(3801.369 1127.297)"><g transform="translate(-0.001 0)"><g transform="translate(0 0)"><g transform="translate(113.913 49.936)"><path d="M638.56,290.851h0a1.236,1.236,0,0,1-1.582-.747l-3.941-10.978a1.236,1.236,0,0,1,.747-1.582h0a1.233,1.233,0,0,1,1.58.741l3.941,10.978a1.236,1.236,0,0,1-.745,1.587Z" transform="translate(-632.964 -277.47)" fill="#0062ff"></path></g><g transform="translate(113.963 49.902)" opacity="0.59"><path d="M639.3,290.406a1.107,1.107,0,0,0,.016-.794L635.3,278.406a1.123,1.123,0,0,0-1.427-.675l-.227.083a1.055,1.055,0,0,0-.4.252,1.107,1.107,0,0,1,.659-.633l.227-.083a1.116,1.116,0,0,1,1.427.673h0l4.02,11.207A1.114,1.114,0,0,1,639.3,290.406Z" transform="translate(-633.24 -277.284)" fill="#ebf0f5"></path></g><g transform="translate(119.808 43.448)"><path d="M665.72,243.085h0a1.44,1.44,0,0,0,1.44,1.429h0l10.989-.227a1.44,1.44,0,0,0,1.427-1.44h0a1.44,1.44,0,0,0-1.44-1.427h0l-10.987.227a1.44,1.44,0,0,0-1.427,1.44Z" transform="translate(-665.72 -241.42)" fill="#0062ff"></path></g><g transform="translate(119.808 43.435)" opacity="0.59"><path d="M679.448,242.1a1.272,1.272,0,0,0-.864-.32l-11.259.229a1.3,1.3,0,0,0-1.285,1.308v.281a1.247,1.247,0,0,0,.124.54,1.287,1.287,0,0,1-.444-.965v-.283a1.3,1.3,0,0,1,1.283-1.31h0l11.266-.229A1.294,1.294,0,0,1,679.448,242.1Z" transform="translate(-665.72 -241.35)" fill="#ebf0f5"></path></g><g transform="translate(117.604 47.796)"><path d="M653.61,266.395h0a1.44,1.44,0,0,0,.675,1.917l8.005,4.944a1.44,1.44,0,0,0,1.915-.675h0a1.44,1.44,0,0,0-.677-1.915l-8-4.944A1.44,1.44,0,0,0,653.61,266.395Z" transform="translate(-653.47 -265.582)" fill="#0062ff"></path></g><g transform="translate(117.549 47.744)" opacity="0.59"><path d="M664.141,271.679a1.277,1.277,0,0,0-.635-.668l-8.259-5.066a1.3,1.3,0,0,0-1.731.606h0l-.121.254a1.26,1.26,0,0,0-.126.54,1.287,1.287,0,0,1,.023-1.062l.122-.254a1.294,1.294,0,0,1,1.726-.614h0l8.259,5.064A1.292,1.292,0,0,1,664.141,271.679Z" transform="translate(-653.166 -265.291)" fill="#ebf0f5"></path></g><g transform="translate(0.034 0.011)"><g transform="translate(60.398 8.485)"><path d="M388.6,84.888l-51.64,3.448a1.091,1.091,0,0,1-.9-1.8l34.082-38.954a1.092,1.092,0,0,1,1.541-.1l.014.014a55.3,55.3,0,0,1,17.918,36.211,1.092,1.092,0,0,1-1,1.177Z" transform="translate(-335.792 -47.21)" fill="#ebf0f5"></path></g><path d="M102.768,56.17a51.4,51.4,0,1,1-17-43.092.47.47,0,0,1,.036.662l-.014.014L46.98,53.486a.466.466,0,0,0,.322.792l55.011,1.384a.47.47,0,0,1,.457.479C102.77,56.148,102.768,56.159,102.768,56.17Z" transform="translate(-0.188 -0.064)" fill="#0c7ff2"></path></g><g opacity="0.2"><path d="M35.4,100.318A51.436,51.436,0,1,1,72.323,4.44,51.456,51.456,0,0,0,35.4,100.318Z" transform="translate(0.001 0)" fill="#ebf0f5"></path></g><g transform="translate(46.837 54.208)" opacity="0.2"><path d="M313.571,305.491l-50.431-1.341a2.816,2.816,0,0,1-2.741-2.815l-.149-.126,55.475,1.476.151.563a2.242,2.242,0,0,1-2.242,2.242Z" transform="translate(-260.25 -301.21)" fill="#ebf0f5"></path></g><g transform="translate(60.549 42.292)" opacity="0.43"><path d="M389.9,235l-53.463,6.275v.959l52.358-3.151a1.44,1.44,0,0,0,1.337-1.29A7.514,7.514,0,0,0,389.9,235Z" transform="translate(-336.44 -235)" fill="#455666"></path></g></g></g></g></g></svg>