<svg xmlns="http://www.w3.org/2000/svg" width="264" height="136" viewBox="0 0 264 136"><g transform="translate(-1150 -853)"><rect width="264" height="136" transform="translate(1150 853)" fill="#fff"></rect><g transform="translate(74.31 45.493)"><path d="M85.735.074c2.767-.158,5.533-.079,8.3-.079h9.96c-.949,5.138-1.9,10.355-2.846,15.493a7.1,7.1,0,0,1-3.32,4.743,7.945,7.945,0,0,1-4.269.79H76.328c-1.66,9.486-3.241,19.051-4.9,28.536-1.344,7.826-2.688,15.572-3.952,23.4a21.909,21.909,0,0,1-1.028,4.506,6.178,6.178,0,0,1-3,3.162,8.834,8.834,0,0,1-4.031.632H38.78c3.162-15.731,6.4-31.54,9.565-47.271.87-4.348,1.739-8.616,2.609-12.964H25.5c1.028-5.138,1.976-10.276,3-15.414a7.339,7.339,0,0,1,2.609-4.19A7.027,7.027,0,0,1,35.46.153H70.874C75.854.074,80.755.074,85.735.074Z" transform="translate(1153.315 819.532)" fill="#0058a9"></path><path d="M15.818,35.352a37.116,37.116,0,0,1,4.19-.158,58,58,0,0,1,22.924,6.245c-3.241,15.731-6.4,31.54-9.565,47.271H54a8.833,8.833,0,0,0,4.031-.632,6.163,6.163,0,0,0,3-3.162,17.745,17.745,0,0,0,1.028-4.506c1.344-7.826,2.688-15.572,3.952-23.4,8.932,7.984,17,17.153,22.45,27.9a51.5,51.5,0,0,1,4.269,11.146,28.06,28.06,0,0,1,.79,9.249,18.077,18.077,0,0,1-2.925,8.221,11.489,11.489,0,0,1-3.32,3.162,22.512,22.512,0,0,1-14.7,3.557,57.918,57.918,0,0,1-15.414-3.794A97.378,97.378,0,0,1,25.146,96.377C16.925,88.868,9.652,80.094,4.751,70.054,2.538,65.312.641,60.332.167,55.114a22.428,22.428,0,0,1,.4-7.272,15.347,15.347,0,0,1,4.19-7.589A18.2,18.2,0,0,1,15.818,35.352Z" transform="translate(1158.649 812.158)" fill="#00baf2"></path></g></g></svg>