<svg xmlns="http://www.w3.org/2000/svg" width="250" height="150" viewBox="0 0 250 150"><g transform="translate(-1670.41 -203.871)"><rect width="250" height="150" transform="translate(1670.41 203.871)" fill="none" opacity="0.24"></rect><g transform="translate(1731.339 219.9)"><g transform="translate(1.059 -9.007)"><path d="M123.268,75a25.288,25.288,0,0,1-8.374,12.791A22.5,22.5,0,0,1,99.149,92.46v.04H28.259c-.781.027-1.548.021-2.3-.013a25.418,25.418,0,0,1-15.007-5.6A29.424,29.424,0,0,1,1.486,72.556,31.484,31.484,0,0,1,1.067,55.3,25.5,25.5,0,0,1,10.9,40.949a10.821,10.821,0,0,0,1.836-1.67,10.468,10.468,0,0,0,1.384-2.02,10.139,10.139,0,0,0,.868-2.283,10.051,10.051,0,0,0,.3-2.463,29.837,29.837,0,0,1,6.941-19.536A36.174,36.174,0,0,1,39,1.867,37.357,37.357,0,0,1,59.17.981,30.047,30.047,0,0,1,76.258,12.128,10.8,10.8,0,0,0,78.316,14.2a10.372,10.372,0,0,0,2.5,1.407,9.668,9.668,0,0,0,2.771.644,9.205,9.205,0,0,0,2.88-.227,17.293,17.293,0,0,1,9.083.3,20.938,20.938,0,0,1,13.106,11.9,17.279,17.279,0,0,1,1.158,9.021,8.892,8.892,0,0,0,.052,2.843,9.6,9.6,0,0,0,.9,2.65,10.875,10.875,0,0,0,1.611,2.336,12.1,12.1,0,0,0,2.181,1.907,22.355,22.355,0,0,1,8.883,12.587A28.145,28.145,0,0,1,123.268,75Z" transform="translate(-0.059 0.007)" fill="#cee0f2"></path><path d="M240.594,197.546h-3.742V171.625a25.8,25.8,0,1,0-51.59,0v25.921h-3.742a6.159,6.159,0,0,0-6.159,6.159v13.078c.753.034,1.52.04,2.3.013h69.091V203.707A6.159,6.159,0,0,0,240.594,197.546ZM192.162,172.6a18.894,18.894,0,0,1,37.787,0v24.949H192.162Z" transform="translate(-149.47 -124.292)" fill="#9caab8"></path><path d="M302.76,171.625v30.056h-6.9V172.6a18.894,18.894,0,1,0-37.787,0v29.084h-6.9V171.625a25.8,25.8,0,1,1,51.59,0Z" transform="translate(-214.084 -124.292)" fill="#0c7ff2"></path><rect width="71.392" height="60.893" rx="7" transform="translate(27.185 73.257)" fill="#0c7ff2"></rect><path d="M331.615,545.808a1.329,1.329,0,0,0-.836-1.065l-.072-.028a1.351,1.351,0,0,0-.514-.066c-10.706.671-15.262-1.419-17.116-2.909l-.117-.094a.738.738,0,0,0-.953,0c-.038.031-.078.065-.12.1-1.92,1.546-6.749,3.738-18.34,2.822,0,0-6.231,32.323,18.34,44.292.2.1.4.189.591.284.2-.095.4-.188.591-.284C334.771,578.285,332.456,551.858,331.615,545.808Z" transform="translate(-249.602 -461.501)" fill="#f8fafc"></path><circle cx="5.017" cy="5.017" r="5.017" transform="translate(57.864 93.669)" fill="#0c7ff2"></circle><rect width="5.11" height="18.158" rx="2.555" transform="translate(60.369 98.567)" fill="#0c7ff2"></rect><path d="M302.76,171.624v3.054a25.8,25.8,0,0,0-51.59,0v-3.053a25.8,25.8,0,1,1,51.59,0Z" transform="translate(-214.084 -124.292)" fill="#9dc7f2" opacity="0.59"></path><rect width="6.901" height="1.796" transform="translate(37.086 71.414)" fill="#9caab8" opacity="0.48"></rect><rect width="6.901" height="1.796" transform="translate(81.775 71.414)" fill="#9caab8" opacity="0.48"></rect><path d="M255.539,502.16v1.459a6.159,6.159,0,0,0-6.157-6.159H190.307a6.158,6.158,0,0,0-6.157,6.157V502.16a6.157,6.157,0,0,1,6.156-6.16h59.075A6.159,6.159,0,0,1,255.539,502.16Z" transform="translate(-156.962 -422.746)" fill="#9dc7f2" opacity="0.59"></path><path d="M184.13,859.009V857.55a6.159,6.159,0,0,0,6.157,6.159h59.075a6.158,6.158,0,0,0,6.157-6.157v1.458a6.158,6.158,0,0,1-6.156,6.157H190.287a6.158,6.158,0,0,1-6.157-6.156Z" transform="translate(-156.945 -730.899)" fill="#9caab8" opacity="0.48"></path></g></g></g></svg>