<svg xmlns="http://www.w3.org/2000/svg" width="130" height="60" viewBox="0 0 130 60"><g transform="translate(-836 -844.001)"><g transform="translate(835.507 843.787)"><g transform="translate(0.493 0.213)"><g transform="translate(0 0)"><rect width="130" height="60" fill="none"></rect></g></g></g><g transform="translate(848 848)"><path d="M3725.193,349.413c-.208.012-.307-.07-.289-.293s0-.427,0-.641l-.079-.02c-.076.107-.159.21-.223.323-.113.2-.213.242-.34.01a.964.964,0,0,0-.322-.356c0,.246,0,.493,0,.739,0,.1.018.228-.147.217-.141-.009-.12-.124-.121-.213q0-.566,0-1.131c0-.077-.024-.181.1-.2a.251.251,0,0,1,.276.1c.132.182.2.509.4.509.167,0,.255-.323.375-.505.1-.149.239-.095.368-.108Z" transform="translate(-3618.702 -315.581)" fill="#8f9fad"></path><path d="M2661.741-151.328a13.028,13.028,0,0,1,3.714-7.891,13.329,13.329,0,0,1,7.858-3.677c.548.025,1.093-.04,1.641-.041a10.653,10.653,0,0,1,4.24.919,12.589,12.589,0,0,1,6.453,6.076,12.152,12.152,0,0,1,1.271,6.461,13.08,13.08,0,0,1-1.593,5.609,10.888,10.888,0,0,1-2.681,3.175,13.235,13.235,0,0,1-7.016,2.917,12.342,12.342,0,0,1-9.67-3.041,12.167,12.167,0,0,1-4.121-7.158,9.763,9.763,0,0,1-.1-2.944A1.116,1.116,0,0,0,2661.741-151.328Z" transform="translate(-2623.589 163.028)" fill="#cdd5db"></path><path d="M2660.66-152.678a.607.607,0,0,1,.047.338,12.139,12.139,0,0,0,1.164,5.976,12.068,12.068,0,0,0,1.813,2.783,12.248,12.248,0,0,0,4.8,3.455,12.3,12.3,0,0,0,4.187.907,13.1,13.1,0,0,0,6.375-1.414,11.774,11.774,0,0,0,3.405-2.435,11.645,11.645,0,0,0,2.977-5.925,12.455,12.455,0,0,0-1.093-8.4,12.305,12.305,0,0,0-7.512-6.272,12.513,12.513,0,0,0-4.1-.53.942.942,0,0,1-.495-.052,13.359,13.359,0,0,1,11.238,3.542,12.966,12.966,0,0,1,4.209,8.28,13.241,13.241,0,0,1-3.688,11.064,13.146,13.146,0,0,1-8.459,4.128,13.614,13.614,0,0,1-14.692-10.607A13.316,13.316,0,0,1,2660.66-152.678Z" transform="translate(-2622.508 164.377)" fill="#9ba6af"></path><path d="M3078.483,344.873a5.561,5.561,0,1,0,5.423,5.5A5.363,5.363,0,0,0,3078.483,344.873Zm1.316,10.188a4.571,4.571,0,0,1-5.827-3.967,4.827,4.827,0,0,1,1.438-4.27,4.515,4.515,0,0,1,7.494,2.349,4.468,4.468,0,0,1,.141,1.217A4.666,4.666,0,0,1,3079.8,355.062Z" transform="translate(-3009.083 -312.8)" fill="#869ab8"></path><path d="M3337,356.684v-.4q0-4.229,0-8.458c0-.113-.067-.289.094-.324a1.043,1.043,0,0,1,.617.017c.1.041.049.191.05.292q0,2.578,0,5.157c0,1.625,0,3.249,0,4.874,0,.128.094.339-.112.368s-.428.1-.6-.129c-.651-.835-1.314-1.66-1.972-2.489q-2.63-3.313-5.259-6.626c-.044-.055-.075-.128-.162-.147-.076.115-.037.243-.037.364q-.005,4.323-.005,8.647c0,.129.065.316-.086.37a1.272,1.272,0,0,1-.622.008c-.058-.009-.068-.073-.069-.127,0-.094,0-.189,0-.283q0-4.937,0-9.873c0-.142-.09-.327.086-.426a.949.949,0,0,1,.812.153q1.37,1.722,2.739,3.446,2.142,2.7,4.284,5.393C3336.811,356.559,3336.849,356.654,3337,356.684Z" transform="translate(-3248.711 -315.222)" fill="#869ab8"></path><path d="M3562.841,353.111c0-1.687,0-3.375-.005-5.062,0-.246.066-.318.315-.317q3.508.014,7.017,0c.322,0,.319.158.321.386s0,.385-.324.383c-2.055-.014-4.111,0-6.167-.014-.284,0-.349.082-.345.353.015,1.163.019,2.327,0,3.49-.005.319.1.376.393.374,1.8-.012,3.608,0,5.412-.013.292,0,.369.086.371.371s-.094.373-.378.371c-1.8-.011-3.608,0-5.412-.012-.3,0-.391.074-.386.382.019,1.205.015,2.41,0,3.616,0,.255.082.315.324.315q3.13-.012,6.261,0c.112,0,.286-.07.318.107a.934.934,0,0,1-.024.585c-.055.11-.211.057-.323.057q-2.643,0-5.286,0c-.566,0-1.133-.016-1.7.007-.3.012-.393-.064-.39-.377C3562.849,356.444,3562.841,354.777,3562.841,353.111Z" transform="translate(-3467.993 -315.476)" fill="#869ab8"></path><path d="M2259.95,356.934c-1.553-3.354-3.112-6.707-4.65-10.068-.135-.3-.313-.32-.582-.328a.473.473,0,0,0-.518.329q-1.912,4.169-3.847,8.327c-.3.637-.592,1.272-.882,1.911-.034.073-.137.164-.021.243a.789.789,0,0,0,.878-.272c.373-.82.75-1.638,1.115-2.461a.371.371,0,0,1,.4-.265q2.878.014,5.757,0a.391.391,0,0,1,.419.278c.344.787.718,1.561,1.055,2.35.122.287.263.47.549.385C2260.148,357.363,2260.149,357.362,2259.95,356.934Zm-2.774-3.324q-2.482,0-4.964,0c-.2,0-.3-.016-.187-.253q1.319-2.863,2.627-5.733a.71.71,0,0,1,.072-.1.546.546,0,0,1,.165.266q1.25,2.741,2.5,5.483C2257.538,353.608,2257.537,353.609,2257.177,353.61Z" transform="translate(-2237.278 -314.359)" fill="#869ab8"></path><path d="M2503.836,348.575a4.37,4.37,0,0,0-2.717-.832c-1.216-.013-2.433.006-3.648-.01-.3,0-.393.076-.391.382.015,1.666.008,3.332.008,5v5a.192.192,0,0,1,0,.031c-.054.325.138.349.392.347s.435.006.427-.35c-.021-1.11,0-2.221-.013-3.331,0-.265.085-.338.343-.334.965.01,1.93.021,2.893-.011a4.389,4.389,0,0,0,2.859-1.061A3.241,3.241,0,0,0,2503.836,348.575Zm-1.388,4.878a4.315,4.315,0,0,1-1.538.271c-.891,0-1.781-.009-2.672.006-.265,0-.342-.084-.337-.341.014-.764.005-1.529.005-2.293s.007-1.508-.005-2.262c0-.248.053-.355.328-.345,1.182.043,2.37-.086,3.548.074a2.55,2.55,0,0,1,2.189,1.473A2.5,2.5,0,0,1,2502.448,353.453Z" transform="translate(-2469.36 -315.48)" fill="#869ab8"></path><path d="M2695.561,345.459a5.124,5.124,0,0,1,3.06,1.106c.184.139.247.23.069.433-.336.386-.322.394-.729.1a4.426,4.426,0,0,0-3.752-.784,2.022,2.022,0,0,0-1.672,1.773,1.693,1.693,0,0,0,.859,1.723,7.447,7.447,0,0,0,2.314.771,9.122,9.122,0,0,1,2,.647,2.653,2.653,0,0,1,.313,4.582,4.568,4.568,0,0,1-3.07.661,6.143,6.143,0,0,1-3.438-1.483c-.21-.174-.219-.3-.021-.459a.226.226,0,0,0,.02-.024c.291-.337.292-.339.635-.047a5.026,5.026,0,0,0,4.354,1.209,2.472,2.472,0,0,0,1.424-.805,1.881,1.881,0,0,0-.5-2.861,9.622,9.622,0,0,0-2.365-.726,8.082,8.082,0,0,1-1.76-.57,2.465,2.465,0,0,1-1.582-2.356,2.638,2.638,0,0,1,1.478-2.417A4.44,4.44,0,0,1,2695.561,345.459Z" transform="translate(-2651.397 -313.348)" fill="#869ab8"></path><path d="M2067.01,347.629l-.971,1.368q-1.74,2.446-3.484,4.89a.791.791,0,0,0-.155.493c.006,1.226,0,2.452.008,3.678,0,.247-.069.351-.318.315a.7.7,0,0,0-.188,0c-.241.032-.325-.057-.323-.311.013-1.215,0-2.431.01-3.647a.883.883,0,0,0-.179-.549q-2.109-2.956-4.207-5.919c-.059-.084-.115-.17-.212-.316.343,0,.628,0,.914,0,.153,0,.2.145.266.243q1.811,2.589,3.615,5.182c.223.319.222.32.442,0,1.178-1.682,2.365-3.359,3.527-5.052a.717.717,0,0,1,.766-.386A3.758,3.758,0,0,0,2067.01,347.629Z" transform="translate(-2056.991 -315.369)" fill="#869ab8"></path><path d="M2887.09,353.484c0,1.551-.011,3.1.008,4.652,0,.335-.151.351-.4.339-.228-.011-.438.051-.436-.332.016-3.081.009-6.162.009-9.242,0-.417,0-.418-.429-.418-1.007,0-2.014-.014-3.02.008-.335.007-.3-.173-.31-.391-.005-.233,0-.381.322-.379q3.838.021,7.676,0c.326,0,.317.158.316.384s.016.393-.313.387c-1.038-.022-2.076,0-3.114-.014-.256,0-.316.083-.314.322C2887.095,350.361,2887.09,351.922,2887.09,353.484Z" transform="translate(-2830.52 -315.468)" fill="#869ab8"></path><path d="M2402.384,598.235c-.124.079-.125.193-.157.287-.23.663-.456,1.328-.685,1.992-.043.127-.074.273-.255.274-.165,0-.2-.13-.241-.248-.328-.918-.657-1.835-.978-2.755-.036-.1-.149-.251.056-.308.162-.045.251.05.3.2q.35,1.027.706,2.051c.041.117.083.234.129.362.145-.047.138-.167.169-.255.225-.665.44-1.334.668-2,.05-.145.038-.37.277-.359s.22.227.271.374c.253.742.5,1.487.746,2.235.159-.04.146-.165.177-.253.239-.682.471-1.367.708-2.05a.9.9,0,0,1,.119-.253.216.216,0,0,1,.262-.047c.116.047.057.141.031.215q-.5,1.424-1,2.846c-.043.12-.089.241-.25.244-.184,0-.212-.144-.255-.271q-.343-1-.683-1.992C2402.464,598.43,2402.424,598.337,2402.384,598.235Z" transform="translate(-2378.402 -549.479)" fill="#869ab8"></path><path d="M3125.809,598.264c-.292.426-.574.835-.854,1.245-.294.431-.291.43-.577.011s-.569-.823-.865-1.252c-.118.116-.079.235-.08.34,0,.639,0,1.278,0,1.916,0,.126.039.309-.173.3-.181-.008-.15-.175-.15-.293q0-1.351,0-2.7c0-.111-.02-.244.128-.288s.256.038.338.162c.3.454.612.9.906,1.36.141.22.24.215.378,0,.276-.432.569-.854.852-1.283.1-.156.212-.307.425-.235.192.064.122.247.124.381.006.838,0,1.676,0,2.513,0,.052,0,.1,0,.157,0,.121-.016.238-.177.244-.18.006-.2-.12-.2-.255,0-.649,0-1.3,0-1.948A.5.5,0,0,0,3125.809,598.264Z" transform="translate(-3055.957 -549.538)" fill="#869ab8"></path><path d="M2700.763,598.248c0,.709.008,1.418-.006,2.127,0,.161.118.443-.177.447s-.182-.281-.184-.441c-.013-.817-.009-1.633,0-2.45,0-.136-.065-.318.115-.389s.3.062.413.2q.8,1.028,1.614,2.048a.8.8,0,0,0,.261.27c.082-.1.042-.223.043-.331,0-.649,0-1.3,0-1.948,0-.134.017-.261.2-.252.162.009.17.132.17.25q0,1.4,0,2.8c0,.1.008.221-.13.252s-.215-.05-.29-.145q-.816-1.036-1.634-2.071c-.1-.13-.208-.259-.312-.388Z" transform="translate(-2659.854 -549.535)" fill="#869ab8"></path><path d="M3284.612,600.078v-1.153c0-.335-.007-.67,0-1.005,0-.141-.067-.357.182-.356s.183.216.184.357c.006.869,0,1.738,0,2.607,0,.118.044.271-.117.324s-.246-.068-.332-.178q-.806-1.024-1.615-2.047c-.1-.128-.2-.254-.315-.391a.491.491,0,0,0-.066.363c0,.66,0,1.319,0,1.979,0,.138.007.293-.2.284-.183-.009-.171-.156-.171-.28,0-.89,0-1.78,0-2.67,0-.126-.051-.291.13-.347.165-.05.272.046.37.171q.812,1.04,1.632,2.073c.077.1.159.192.239.287Z" transform="translate(-3204.995 -549.564)" fill="#869ab8"></path><path d="M2583.163,600.445c-.189-.264-.379-.528-.586-.779-.15-.182-.172-.29.093-.375a.821.821,0,0,0,.526-.505c.266-.68-.169-1.293-.983-1.349-.407-.028-.818,0-1.226-.013-.256-.01-.36.079-.352.343.014.44,0,.88,0,1.321,0,.461,0,.922,0,1.383,0,.127,0,.267.181.272s.191-.128.193-.261c0-.262,0-.524,0-.786,0-.169.077-.236.246-.253a.936.936,0,0,1,1.059.47,4.791,4.791,0,0,0,.567.751.254.254,0,0,0,.367.045C2583.355,600.618,2583.219,600.522,2583.163,600.445Zm-1.464-1.32c-.76-.008-.682.088-.682-.691,0-.718-.075-.682.67-.685a2.867,2.867,0,0,1,.684.069.622.622,0,0,1,.521.586.675.675,0,0,1-.479.659A2.275,2.275,0,0,1,2581.7,599.125Z" transform="translate(-2547.654 -549.444)" fill="#869ab8"></path><path d="M2319.572,596.595a1.7,1.7,0,0,0-1.692,1.712,1.66,1.66,0,0,0,1.68,1.708,1.71,1.71,0,0,0,.012-3.42Zm.023,3.075a1.356,1.356,0,1,1,1.289-1.353A1.316,1.316,0,0,1,2319.6,599.67Z" transform="translate(-2301.45 -548.668)" fill="#869ab8"></path><path d="M2781.942,598.211c.687,0,.7,0,.682.537-.01.283.132.618-.106.842a1.711,1.711,0,0,1-1.251.419,1.561,1.561,0,0,1-1.565-1.128,1.82,1.82,0,0,1,.5-1.893,1.793,1.793,0,0,1,2.006-.164c.11.065.315.113.2.315s-.243.075-.373,0a1.318,1.318,0,0,0-1.858.457,1.442,1.442,0,0,0,.465,1.91,1.459,1.459,0,0,0,1.471-.052.742.742,0,0,0,.176-.772c-.077-.232-.277-.128-.428-.15-.082-.012-.169.006-.251,0-.131-.017-.344.064-.334-.165s.217-.141.351-.154C2781.732,598.2,2781.837,598.211,2781.942,598.211Z" transform="translate(-2734.104 -548.665)" fill="#869ab8"></path><path d="M2508.56,599.086c0-.44.006-.88,0-1.32-.005-.227.081-.321.313-.317.6.009,1.2,0,1.793,0,.111,0,.258-.02.264.146.007.187-.15.172-.273.173-.461,0-.923.009-1.384,0-.238,0-.342.078-.338.328.02.991-.121.835.818.85.22,0,.44,0,.661,0,.122,0,.28-.014.274.172,0,.165-.153.146-.264.147-.387,0-.776.009-1.163,0-.222-.005-.327.068-.324.306.013.985-.1.817.8.833.314.005.629,0,.944,0,.128,0,.269,0,.264.187s-.151.175-.275.176c-.6,0-1.2-.006-1.793.005-.256,0-.325-.112-.32-.345C2508.567,599.987,2508.56,599.537,2508.56,599.086Z" transform="translate(-2480.116 -549.468)" fill="#869ab8"></path><path d="M3210.09,599.119c0-.451.007-.9,0-1.352,0-.226.078-.323.311-.319.6.009,1.2,0,1.793,0,.11,0,.258-.021.265.145.009.188-.149.174-.271.175-.462,0-.923.009-1.385,0-.236,0-.344.074-.338.326.019.993-.122.837.815.852.2,0,.4-.007.6,0,.134.007.34-.054.337.17,0,.2-.2.146-.322.148-.367.008-.734.01-1.1,0-.22-.005-.329.065-.326.3.013.988-.1.819.8.835.325.005.65,0,.975,0,.122,0,.238.024.235.185s-.124.177-.243.177c-.629,0-1.259,0-1.888,0-.218,0-.258-.127-.256-.307C3210.093,600.02,3210.091,599.57,3210.09,599.119Z" transform="translate(-3137.464 -549.468)" fill="#869ab8"></path><path d="M2909.814,598.323a.952.952,0,0,0-.791-.824,7.65,7.65,0,0,0-1.347-.062c-.255-.015-.325.1-.32.339.011.44,0,.879,0,1.319v1.35c0,.021,0,.042,0,.063,0,.12.013.239.174.246.178.007.2-.116.2-.252a5.325,5.325,0,0,0,0-.533c-.031-.306.1-.406.4-.393a2.164,2.164,0,0,0,1.109-.144A.985.985,0,0,0,2909.814,598.323Zm-.9.863a2.222,2.222,0,0,1-.339.062c-.835.09-.841.084-.841-.741.008-.775-.091-.7.706-.7a3.234,3.234,0,0,1,.375.013.625.625,0,0,1,.62.588A.671.671,0,0,1,2908.917,599.186Z" transform="translate(-2853.799 -549.456)" fill="#869ab8"></path><path d="M2973.9,600.62c-.011-.026-.03-.075-.051-.123q-.636-1.4-1.271-2.807c-.055-.123-.121-.214-.274-.215a.286.286,0,0,0-.277.211c-.426.945-.856,1.889-1.283,2.835-.036.081-.112.185,0,.249a.2.2,0,0,0,.293-.1,3.531,3.531,0,0,0,.21-.457.4.4,0,0,1,.453-.3q.6.021,1.2,0a.383.383,0,0,1,.426.283,4.226,4.226,0,0,0,.223.485.217.217,0,0,0,.273.1C2973.9,600.769,2973.925,600.717,2973.9,600.62Zm-1.074-1.021q-.533.006-1.068,0c-.106,0-.2-.037-.145-.169.21-.484.428-.966.682-1.536.256.571.478,1.051.687,1.537C2973.041,599.56,2972.932,599.6,2972.83,599.6Z" transform="translate(-2913.144 -549.492)" fill="#869ab8"></path><path d="M2249.278,597.449c-.354-.028-.711,0-1.067-.014-.24-.01-.342.077-.335.325.012.438,0,.878,0,1.317h0c0,.481,0,.962,0,1.443,0,.125.028.234.188.232s.183-.113.184-.237c0-.22.009-.439,0-.659-.005-.2.087-.282.285-.278.24,0,.481.007.722-.01a1.112,1.112,0,0,0,1.053-.753A1.035,1.035,0,0,0,2249.278,597.449Zm.7,1.1c-.027.445-.379.707-.982.709-.853,0-.731.09-.743-.731,0-.01,0-.021,0-.031.02-.749-.18-.77.817-.718C2249.715,597.807,2250.009,598.083,2249.981,598.546Z" transform="translate(-2235.854 -549.454)" fill="#869ab8"></path><path d="M3431.82,600.221a1.68,1.68,0,0,1-1.053-.347c-.095-.065-.206-.129-.1-.273.092-.126.188-.1.294-.019a1.507,1.507,0,0,0,1.09.314.609.609,0,0,0,.6-.494c.038-.284-.117-.482-.483-.6-.219-.068-.447-.113-.666-.182-.632-.2-.846-.469-.795-.99.044-.448.4-.747.985-.79a1.679,1.679,0,0,1,1.047.264c.092.059.181.118.1.249a.174.174,0,0,1-.287.059,1.319,1.319,0,0,0-.865-.224c-.356.022-.57.172-.607.432-.044.314.1.514.477.632a6.008,6.008,0,0,1,.96.289.809.809,0,0,1,.511.763.874.874,0,0,1-.539.817A1.475,1.475,0,0,1,3431.82,600.221Z" transform="translate(-3344.11 -548.897)" fill="#869ab8"></path><path d="M3361.291,599.393c0-.367-.011-.734,0-1.1.01-.266-.083-.392-.362-.372a4.556,4.556,0,0,1-.534-.006.164.164,0,0,1-.179-.176.16.16,0,0,1,.177-.177q1.1,0,2.2,0a.161.161,0,0,1,.182.171c0,.139-.085.182-.2.185-.178.005-.357.013-.535,0-.244-.013-.336.094-.333.335.008.692,0,1.383,0,2.075,0,.094,0,.189,0,.283,0,.136-.034.257-.206.258s-.208-.116-.209-.254c0-.409,0-.817,0-1.226Z" transform="translate(-3278.141 -549.572)" fill="#869ab8"></path><path d="M3043.3,597.31c.182-.006.249.1.32.209.271.4.551.791.81,1.2.138.215.224.19.352-.007.257-.4.527-.781.8-1.167a.657.657,0,0,1,.188-.2.245.245,0,0,1,.295.007c.067.073-.031.152-.075.216-.3.442-.586.894-.911,1.316a1.3,1.3,0,0,0-.3.955,5.381,5.381,0,0,1,0,.565c0,.13-.043.229-.2.223-.139-.005-.171-.1-.172-.215,0-.251-.014-.5,0-.753a1.009,1.009,0,0,0-.212-.67c-.336-.468-.66-.944-.985-1.418-.04-.058-.107-.118-.071-.2S3043.258,597.314,3043.3,597.31Z" transform="translate(-2981.014 -549.32)" fill="#869ab8"></path><path d="M2657.573,599.329c0-.46,0-.92,0-1.38,0-.125-.009-.268.175-.275.205-.007.2.146.2.283q0,1.365,0,2.729c0,.135.013.294-.191.29s-.182-.167-.183-.3C2657.571,600.228,2657.573,599.779,2657.573,599.329Z" transform="translate(-2619.747 -549.679)" fill="#869ab8"></path><path d="M3702.423,347.973c0,.142-.106.142-.2.132-.228-.024-.288.085-.278.293.013.26,0,.522,0,.783,0,.107,0,.217-.15.222s-.153-.106-.153-.213c0-.251-.01-.5,0-.752.01-.218-.02-.373-.3-.335-.093.013-.2,0-.19-.14.005-.123.1-.117.181-.117.3,0,.605,0,.909,0C3702.34,347.846,3702.423,347.853,3702.423,347.973Z" transform="translate(-3597.609 -315.585)" fill="#8f9fad"></path><path d="M2757.148-78.115a12.681,12.681,0,0,1-2.2,2.927,9.384,9.384,0,0,1-5.677,2.488,9.147,9.147,0,0,1-6.633-2.007,9.135,9.135,0,0,1-3.558-6.771,9.267,9.267,0,0,1,1.721-6.1c.148-.214.275-.443.413-.665.12-.038.18-.147.244-.236a7.345,7.345,0,0,1,3.5-2.529,9.347,9.347,0,0,1,8.024.433A9.322,9.322,0,0,1,2758-83.465a9.289,9.289,0,0,1-.188,3.734,6.94,6.94,0,0,1-.548,1.334C2757.223-78.306,2757.135-78.231,2757.148-78.115Z" transform="translate(-2696.101 96.286)" fill="#8f9fad"></path><path d="M2707.782-138.146a11.183,11.183,0,0,0-9.159-3.554,10.875,10.875,0,0,0-6.591,2.807,11.223,11.223,0,0,0-1,15.724,10.89,10.89,0,0,1-2.858-4.116,11.362,11.362,0,0,1-.75-4.992,11.282,11.282,0,0,1,8.773-10.18A11.174,11.174,0,0,1,2707.782-138.146Z" transform="translate(-2647.684 144.101)" fill="#eee"></path><path d="M2789.27-95.645c-.066-.113.015-.2.055-.293a9.041,9.041,0,0,0,.752-3.8,9.389,9.389,0,0,0-8.245-9.243,9.25,9.25,0,0,0-7.606,2.407c-.227.2-.429.428-.639.647-.066.069-.11.194-.249.149a9.451,9.451,0,0,1,13.277-3.129A9.436,9.436,0,0,1,2789.27-95.645Z" transform="translate(-2728.221 113.816)" fill="#dedede"></path><path d="M2820.334-20.033a5.759,5.759,0,0,1,.1-1.193,4.069,4.069,0,0,1,2.961-3.2,6.882,6.882,0,0,1,2.214-.429,3.988,3.988,0,0,1,3.542,1.912,6.45,6.45,0,0,1,.976,4.148,3.643,3.643,0,0,1-1.218,2.39,5.519,5.519,0,0,1-4.608,1.559,4.142,4.142,0,0,1-3.071-2.031A5.6,5.6,0,0,1,2820.334-20.033Z" transform="translate(-2772.255 33.642)" fill="#fefefe"></path><path d="M2826.059-11.629c-.113-1.448.779-2.486,1.939-3.407,1.434-1.138,2.87-.893,4.341-.114a4.356,4.356,0,0,1,2.171,3.451,4.237,4.237,0,0,1-.1,1.806,3.649,3.649,0,0,1-3.839,2.789,6.588,6.588,0,0,1-2.556-.589,3.031,3.031,0,0,1-1.539-1.672A5.249,5.249,0,0,1,2826.059-11.629Z" transform="translate(-2777.613 25.169)" fill="#8f9fad"></path><path d="M2909.944-11.4a4.45,4.45,0,0,0,1.005-3.066,5.477,5.477,0,0,0-1-3.065,5.263,5.263,0,0,0-2.717-1.77,3.4,3.4,0,0,1,2.338.89,5.146,5.146,0,0,1,1.6,3.289,4.063,4.063,0,0,1-.184,2.375,4.4,4.4,0,0,1-.981,1.406C2909.952-11.326,2909.925-11.34,2909.944-11.4Z" transform="translate(-2853.683 28.44)" fill="#8f9fad"></path><path d="M2866.944,122.162a3.553,3.553,0,0,1-2.852-.357A7.525,7.525,0,0,0,2866.944,122.162Z" transform="translate(-2813.26 -103.781)" fill="#9d9d9d"></path><path d="M2945.035,106.141l.063.06a1.023,1.023,0,0,1-.417.319Z" transform="translate(-2888.773 -89.103)" fill="#bdbdbd"></path><path d="M2836.307.191a3.817,3.817,0,0,1-1.718,3.107,3.326,3.326,0,0,1-5.01-.826,3.326,3.326,0,0,1-.544-3.4,4.05,4.05,0,0,1,3.1-2.656,3.056,3.056,0,0,1,2.6.829,5.375,5.375,0,0,1,1.484,2.4A1.522,1.522,0,0,1,2836.307.191Z" transform="translate(-2780.166 13.752)" fill="#fefefe"></path><path d="M2837.721,8.624a3.347,3.347,0,0,1-2.847-1.869c-1.484-2.413.927-5.167,2.929-5.181a3.01,3.01,0,0,1,2.25,1.023,5.146,5.146,0,0,1,1.078,1.828,2.544,2.544,0,0,1-.3,2.228,4.187,4.187,0,0,1-2.152,1.8A2.207,2.207,0,0,1,2837.721,8.624Z" transform="translate(-2785.451 8.879)" fill="#8f9fad"></path></g></g></svg>