<svg xmlns="http://www.w3.org/2000/svg" width="264" height="136" viewBox="0 0 264 136"><g transform="translate(-657 -642)"><rect width="264" height="136" transform="translate(657 642)" fill="#fff"></rect><g transform="translate(662.271 685.689)"><g transform="translate(0 0)"><g transform="translate(0 0)"><g transform="translate(0 0)"><g transform="translate(46.373 11.802)"><path d="M167.585,1.153a1.751,1.751,0,0,1,1.13.368,1.459,1.459,0,0,1,.547.986l-.761.047A.85.85,0,0,0,168.192,2a.973.973,0,0,0-.618-.2.928.928,0,0,0-.735.326,1.27,1.27,0,0,0-.287.873,1.242,1.242,0,0,0,.3.878,1.03,1.03,0,0,0,1.343.132.809.809,0,0,0,.309-.523l.772.048a1.527,1.527,0,0,1-.564.968,1.73,1.73,0,0,1-1.11.362,1.757,1.757,0,0,1-1.3-.51,1.832,1.832,0,0,1-.512-1.354,1.818,1.818,0,0,1,.5-1.354,1.76,1.76,0,0,1,1.29-.5m-.011-.677a2.578,2.578,0,0,0-1.877.719,2.436,2.436,0,0,0-.738,1.823,2.434,2.434,0,0,0,.738,1.823,2.8,2.8,0,0,0,3.748,0,2.421,2.421,0,0,0,.744-1.823,2.429,2.429,0,0,0-.744-1.817,2.568,2.568,0,0,0-1.871-.724M167.585,0a3.1,3.1,0,0,1,2.235.868,2.855,2.855,0,0,1,.9,2.149,2.858,2.858,0,0,1-.9,2.15,3.1,3.1,0,0,1-2.235.867,3.129,3.129,0,0,1-2.258-.867,2.865,2.865,0,0,1-.9-2.15,2.861,2.861,0,0,1,.9-2.149A3.131,3.131,0,0,1,167.585,0" transform="translate(36.361)" fill="#003d4c" fill-rule="evenodd"></path><path d="M165.423,9.005,163.8,12.593h-.219a6.5,6.5,0,0,0-4.522-2.164c-1.18,0-1.618.522-1.618,1.014,0,.657.248.767,3.536,1.563,3.043.738,5.043,1.916,5.043,4.847,0,3.07-2.165,4.766-5.921,4.766-3.727,0-6.385-1.4-7.427-2.491l1.7-3.836h.222a8.169,8.169,0,0,0,5.345,2.191c1.4,0,1.642-.383,1.642-.875,0-.52-.3-.795-3.589-1.618-3.564-.877-4.935-2.3-4.935-4.63,0-2.879,2.329-4.74,5.783-4.74a9.516,9.516,0,0,1,6.579,2.385" transform="translate(33.763 1.464)" fill="#003d4c" fill-rule="evenodd"></path><path d="M153.763,12.019V22.292h-4.549V13.36c0-1.806-1.042-2.712-2.412-2.712-1.59,0-3.208,1.316-3.208,4v7.642h-4.551V6.95h3.621l.245,2.025h.083a5.453,5.453,0,0,1,4.66-2.355c4.138,0,6.111,2.465,6.111,5.4" transform="translate(30.748 1.464)" fill="#003d4c" fill-rule="evenodd"></path><path d="M128.967,14.729c0,2.055,1.125,3.7,3.291,3.7s3.289-1.643,3.289-3.7c0-2.191-1.068-4.082-3.289-4.082s-3.291,1.892-3.291,4.082m11.1.138c0,4.493-2.959,7.752-7.81,7.752s-7.813-3.259-7.813-7.752c0-4.768,3.315-8.247,7.813-8.247s7.81,3.48,7.81,8.247" transform="translate(27.519 1.464)" fill="#003d4c" fill-rule="evenodd"></path><path d="M119.041,23.587h4.524V8.245h-4.524Zm5.153-20.028a2.85,2.85,0,1,1-5.7,0,2.851,2.851,0,0,1,5.7,0Z" transform="translate(26.203 0.169)" fill="#003d4c" fill-rule="evenodd"></path><path d="M119.058,7.585v4.109H114.92v5.837c0,.794.22,1.069.877,1.069a3.987,3.987,0,0,0,2.11-.769h.221l1.068,4.328a8.743,8.743,0,0,1-4.223,1.1c-2.6,0-4.577-1.288-4.577-4.655V11.694h-2.55V9.31a7.677,7.677,0,0,0,4.193-5.561h2.771V7.585Z" transform="translate(23.849 0.829)" fill="#003d4c" fill-rule="evenodd"></path><path d="M105.146,22.232l-.385-2.027h-.082c-.575,1.4-1.972,2.355-4.25,2.355-3.426,0-5.317-2.081-5.317-5.341V6.891h4.522v8.546c0,2.193.44,2.931,1.864,2.931,1.78,0,2.713-1.753,2.713-3.808V6.891h4.522V22.232Z" transform="translate(21.033 1.524)" fill="#003d4c" fill-rule="evenodd"></path><path d="M89.16,23.136h4.525V2.805H89.16Z" transform="translate(19.717 0.62)" fill="#003d4c" fill-rule="evenodd"></path><path d="M79.084,14.729c0,2.055,1.125,3.7,3.29,3.7s3.29-1.643,3.29-3.7c0-2.191-1.069-4.082-3.29-4.082s-3.29,1.892-3.29,4.082m11.1.138c0,4.493-2.96,7.752-7.812,7.752s-7.812-3.259-7.812-7.752c0-4.768,3.316-8.247,7.812-8.247s7.812,3.48,7.812,8.247" transform="translate(16.489 1.464)" fill="#003d4c" fill-rule="evenodd"></path><path d="M75.489,6.987,73.3,10.821h-.219a6.4,6.4,0,0,0-4.99-2.932c-1.424,0-2.165.685-2.165,1.508,0,1.04.6,1.314,4.415,2.246,4.082,1.014,5.92,2.632,5.92,5.972s-2.494,5.7-7.209,5.7c-4.8,0-7.593-2.33-8.387-3.315L62.5,15.562h.219a8.45,8.45,0,0,0,6.249,3.177c1.892,0,2.439-.656,2.439-1.4,0-.878-.437-1.234-3.919-2.056-3.617-.849-6.385-2.52-6.385-5.971S63.676,3.48,67.952,3.48a9.434,9.434,0,0,1,7.537,3.506" transform="translate(13.414 0.77)" fill="#003d4c" fill-rule="evenodd"></path><path d="M47.615,12.867h5.866a2.8,2.8,0,0,0-2.933-2.383,2.843,2.843,0,0,0-2.933,2.383m10.033,1.919c0,.465-.027,1.369-.027,1.369H47.452c.08,1.479,1.315,2.494,3.235,2.494a6.646,6.646,0,0,0,4.221-1.481h.218l1.454,3.782a9.8,9.8,0,0,1-5.81,1.671c-4.5,0-7.759-2.875-7.759-7.917,0-4.959,3.235-8.083,7.457-8.083,4.33,0,7.181,3.288,7.181,8.165" transform="translate(9.511 1.464)" fill="#003d4c" fill-rule="evenodd"></path><path d="M33.069,15.493c0,2.327,1.344,3.778,3.346,3.778s3.37-1.313,3.37-3.807c0-2.33-1.342-3.974-3.316-3.974s-3.4,1.673-3.4,4Zm7.347,7.642-.383-2.028h-.082a4.974,4.974,0,0,1-4.661,2.356c-4.138,0-6.742-3.316-6.742-7.78,0-4.6,2.741-8.219,6.853-8.219a4.952,4.952,0,0,1,4.166,1.918h.055V2.806h4.386v20.33Z" transform="translate(6.313 0.62)" fill="#003d4c" fill-rule="evenodd"></path><path d="M25.621,22.233l-.384-2.027h-.082c-.576,1.4-1.973,2.355-4.25,2.355-3.426,0-5.317-2.081-5.317-5.341V6.889h4.522v8.549c0,2.193.44,2.931,1.864,2.931,1.781,0,2.713-1.753,2.713-3.808V6.889H29.21V22.233Z" transform="translate(3.447 1.523)" fill="#003d4c" fill-rule="evenodd"></path><path d="M4.852,18.554H8.718c1.837,0,3.4-1.671,3.4-5.095,0-3.067-1.453-5.178-3.455-5.178H4.852ZM7.976,3.815c5.127,0,8.99,3.123,8.99,9.809,0,6.492-3.589,9.368-8.852,9.368H0V3.815Z" transform="translate(0 0.844)" fill="#003d4c" fill-rule="evenodd"></path></g><g transform="translate(0 0)"><path d="M16.917,25.7a.86.86,0,0,0-.7-.224,6.451,6.451,0,0,1-5.164-2.08.2.2,0,0,0-.295-.01l-.921.919a.249.249,0,0,0-.009.342,8.45,8.45,0,0,0,5.889,2.611,5.8,5.8,0,0,0,.688-.04.9.9,0,0,0,.8-.822.88.88,0,0,0-.282-.7" transform="translate(2.159 5.158)" fill="#003d4c" fill-rule="evenodd"></path><path d="M8.893,14.442a1.13,1.13,0,1,0,1.131,1.13,1.132,1.132,0,0,0-1.131-1.13" transform="translate(1.716 3.194)" fill="#003d4c" fill-rule="evenodd"></path><path d="M19.984,14.418a1.13,1.13,0,1,0,1.131,1.131,1.133,1.133,0,0,0-1.131-1.131" transform="translate(4.169 3.188)" fill="#003d4c" fill-rule="evenodd"></path><path d="M27.645,16.873a1.52,1.52,0,0,1-1.5,1.312H22.79l-.027-.065a26.153,26.153,0,0,0-1.673-3.313l-.079-.136.155-.023a23.116,23.116,0,0,1,6.194.07.571.571,0,0,1,.489.638Zm-14.1,0a1.519,1.519,0,0,1-1.5,1.312H6.872a1.52,1.52,0,0,1-1.5-1.312L5.091,14.8l.1-.017a25.469,25.469,0,0,1,8.528,0l.1.017ZM15.669,35.89a12.916,12.916,0,0,0,2-.244c6.007-1.273,10.11-6.451,10.128-13a8.021,8.021,0,0,0-.38-2.866l-.029-.091.086-.038a3.3,3.3,0,0,0,1.906-2.542l.2-1.518A2.325,2.325,0,0,0,27.6,12.983a28.826,28.826,0,0,0-3.221-.262h-.055l-.031-.045a3.209,3.209,0,0,0-2.72-1.48c-1.383,0-1.629,1.145-1.652,1.829l0,.058-.123.076-.07-.011a7.935,7.935,0,0,0-4.968.031l-.026.009-.027-.006c-.823-.16-1.631-.283-2.4-.364l-.079-.008-.014-.079a1.815,1.815,0,0,0-1.7-1.461,5.594,5.594,0,0,0-4.941,1.657l-.025.029-.038,0c-.423.064-.867.139-1.317.228l-.017,0-.04,0L0,13.185,0,14.93l3.338.007.292,2.17a3.266,3.266,0,0,0,3.238,2.831h5.17a3.269,3.269,0,0,0,3.239-2.831l.316-2.352.07-.018a6.266,6.266,0,0,1,3.308,0l.034.013.019.031a26.31,26.31,0,0,1,2.322,4.55,5.5,5.5,0,0,1,.226,1.463,2.6,2.6,0,0,1-2.994,2.535,2.565,2.565,0,0,1-1.516-.812.4.4,0,0,0-.58-.014l-.775.775a.242.242,0,0,0-.017.325,4.354,4.354,0,0,0,3.155,1.524c.041,0,.144,0,.157,0a4.355,4.355,0,0,0,4.32-3.995,10.562,10.562,0,0,0-.047-1.067l-.015-.119h2.357l.026.069a6.333,6.333,0,0,1,.405,2.5,12.521,12.521,0,0,1-2.688,7.788A11.033,11.033,0,0,1,16.321,34.1a10.853,10.853,0,0,1-8.5-2.592.265.265,0,0,0-.359.011l-.878.878a.258.258,0,0,0,.013.373,12.7,12.7,0,0,0,6.6,3.052,13.125,13.125,0,0,0,2.472.07Z" transform="translate(0 2.476)" fill="#003d4c" fill-rule="evenodd"></path><path d="M32.04,7.027A23.284,23.284,0,0,0,15.154,0H0V3.541H15.154c11.476,0,20.132,8.93,20.133,20.772,0,11.731-8.5,20.6-19.816,20.767v3.543A23.264,23.264,0,0,0,32.04,41.6a24.615,24.615,0,0,0,6.79-17.289A24.605,24.605,0,0,0,32.04,7.027" transform="translate(0)" fill="#ff5c39" fill-rule="evenodd"></path></g></g></g></g></g></g></svg>