<svg xmlns="http://www.w3.org/2000/svg" xmlns:xlink="http://www.w3.org/1999/xlink" width="1191" height="169" viewBox="0 0 1191 169"><defs><style>.a{fill:#0062ff;}.b{clip-path:url(#a);}.c{fill:#3ab2d0;}.d{fill:#24313e;}.e{fill:#28c397;}.f{fill:#9caab8;}.g{fill:#6b7e8f;}.h{fill:#455666;}.i{fill:#f5f7f9;}.j{fill:#e7e9f2;}.k{fill:#282d44;}.l,.m{fill:#fff;}.l{stroke:#000;stroke-miterlimit:10;stroke-width:4px;}.n{fill:#6cbcd0;}.o{fill:#d9dee5;}</style><clipPath id="a"><rect class="a" width="1191" height="169" rx="17" transform="translate(366 141)"></rect></clipPath></defs><g class="b" transform="translate(-366 -141)"><g transform="translate(3041.961 -287.596) rotate(-7)"><g transform="translate(-2060.062 287.114)"><rect class="c" width="84.774" height="3.925" transform="translate(0.772 54.032) rotate(-38.922)"></rect><path class="d" d="M-2038.816,361.491l-3.156-3.908,66.809-53.95,3.156,3.908Zm-1.612-3.744,1.776,2.2,65.1-52.57-1.776-2.2Z" transform="translate(2041.972 -303.633)"></path></g><g transform="translate(-1906.501 302.776)"><rect class="c" width="54.794" height="3.925" transform="translate(4.911 55.524) rotate(-94.522)"></rect><path class="d" d="M-1478.172,416.8l-4.407-55.718,5.008-.4,4.407,55.718Zm-3.226-54.71,4.234,53.529,2.818-.224-4.234-53.529Z" transform="translate(1482.579 -360.686)"></path></g><g transform="translate(-1991.065 292.686)"><path class="c" d="M-1785.142,326.6l87.859,59.656-2.53,3-87.859-59.656Z" transform="translate(1788.484 -325.866)"></path><path class="d" d="M-1701.858,388.053l-88.773-60.276,3.241-3.845.409.278,88.364,60Zm-87.148-60.5,86.946,59.036,1.818-2.157-86.946-59.036Z" transform="translate(1790.631 -323.931)"></path></g><g transform="translate(-1995.862 289.831)"><rect class="c" width="54.794" height="3.925" transform="translate(4.911 55.524) rotate(-94.522)"></rect><path class="d" d="M-1803.7,369.645l-4.407-55.718,5.008-.4,4.407,55.718Zm-3.226-54.71,4.234,53.529,2.818-.223-4.234-53.529Z" transform="translate(1808.104 -313.53)"></path></g><g transform="translate(-2005.232 280.864)"><circle class="c" cx="10.76" cy="10.76" r="10.76" transform="translate(0.549 0.549)"></circle><path class="d" d="M-1830.927,303.483a11.323,11.323,0,0,1-11.309-11.309,11.322,11.322,0,0,1,11.309-11.309,11.322,11.322,0,0,1,11.31,11.309A11.323,11.323,0,0,1-1830.927,303.483Zm0-21.521a10.223,10.223,0,0,0-10.211,10.211,10.223,10.223,0,0,0,10.211,10.211,10.223,10.223,0,0,0,10.212-10.211A10.223,10.223,0,0,0-1830.927,281.962Z" transform="translate(1842.236 -280.864)"></path></g><g transform="translate(-1914.835 292.819)"><circle class="c" cx="10.76" cy="10.76" r="10.76" transform="translate(0.549 0.549)"></circle><path class="d" d="M-1501.63,347.031a11.322,11.322,0,0,1-11.309-11.31,11.322,11.322,0,0,1,11.309-11.309,11.322,11.322,0,0,1,11.309,11.309A11.323,11.323,0,0,1-1501.63,347.031Zm0-21.521a10.223,10.223,0,0,0-10.211,10.211,10.223,10.223,0,0,0,10.211,10.212,10.223,10.223,0,0,0,10.211-10.212A10.223,10.223,0,0,0-1501.63,325.51Z" transform="translate(1512.939 -324.412)"></path></g><g transform="translate(-1903.23 306.356)"><rect class="c" width="84.774" height="3.925" transform="translate(69.193 3.826) rotate(141.078)"></rect><path class="d" d="M-1467.508,431.586l-3.156-3.908.427-.345,66.382-53.605,3.156,3.908Zm-1.612-3.744,1.776,2.2,65.1-52.57-1.776-2.2Z" transform="translate(1470.664 -373.728)"></path></g><g transform="translate(-1987.431 345.847)"><rect class="c" width="84.774" height="3.925" transform="matrix(-0.994, -0.106, 0.106, -0.994, 84.902, 13.484)"></rect><path class="d" d="M-1692,531.672l-85.39-9.093.532-4.995,85.39,9.093Zm-84.181-10.068,83.206,8.86.3-2.811-83.206-8.861Z" transform="translate(1777.393 -517.584)"></path></g><g transform="translate(-1910.714 347.846)"><circle class="c" cx="10.76" cy="10.76" r="10.76" transform="translate(0.549 0.549)"></circle><path class="d" d="M-1486.618,547.485a11.322,11.322,0,0,1-11.309-11.31,11.322,11.322,0,0,1,11.309-11.309,11.323,11.323,0,0,1,11.31,11.309A11.323,11.323,0,0,1-1486.618,547.485Zm0-21.521a10.223,10.223,0,0,0-10.211,10.211,10.223,10.223,0,0,0,10.211,10.212,10.223,10.223,0,0,0,10.212-10.212A10.223,10.223,0,0,0-1486.618,525.964Z" transform="translate(1497.927 -524.866)"></path></g><g transform="translate(-1843.993 296.763)"><circle class="c" cx="10.76" cy="10.76" r="10.76" transform="translate(0.549 0.549)"></circle><path class="d" d="M-1243.566,361.4a11.323,11.323,0,0,1-11.309-11.309,11.322,11.322,0,0,1,11.309-11.309,11.322,11.322,0,0,1,11.309,11.309A11.322,11.322,0,0,1-1243.566,361.4Zm0-21.521a10.223,10.223,0,0,0-10.211,10.211,10.223,10.223,0,0,0,10.211,10.211,10.223,10.223,0,0,0,10.211-10.211A10.223,10.223,0,0,0-1243.566,339.878Z" transform="translate(1254.875 -338.78)"></path></g><g transform="translate(-2001.11 335.892)"><circle class="c" cx="10.76" cy="10.76" r="10.76" transform="translate(0.549 0.549)"></circle><path class="d" d="M-1815.914,503.938a11.322,11.322,0,0,1-11.309-11.309,11.322,11.322,0,0,1,11.309-11.309,11.322,11.322,0,0,1,11.309,11.309A11.322,11.322,0,0,1-1815.914,503.938Zm0-21.521a10.223,10.223,0,0,0-10.211,10.211,10.223,10.223,0,0,0,10.211,10.211,10.223,10.223,0,0,0,10.211-10.211A10.223,10.223,0,0,0-1815.914,482.417Z" transform="translate(1827.223 -481.319)"></path></g><g transform="translate(-2066.907 328.367)"><circle class="c" cx="10.76" cy="10.76" r="10.76" transform="translate(0.549 0.549)"></circle><path class="d" d="M-2055.6,476.528a11.322,11.322,0,0,1-11.309-11.309,11.322,11.322,0,0,1,11.309-11.309,11.323,11.323,0,0,1,11.31,11.309A11.322,11.322,0,0,1-2055.6,476.528Zm0-21.521a10.223,10.223,0,0,0-10.211,10.211A10.223,10.223,0,0,0-2055.6,475.43a10.223,10.223,0,0,0,10.211-10.211A10.223,10.223,0,0,0-2055.6,455.007Z" transform="translate(2066.907 -453.909)"></path></g></g><g transform="translate(242.79 58.29)"><g transform="translate(1074.989 131.969)"><g transform="translate(0.651 0.651)"><path class="e" d="M1193.417,246.681a25.61,25.61,0,1,1-7.5-18.11A25.531,25.531,0,0,1,1193.417,246.681Z" transform="translate(-1142.195 -221.07)"></path></g><g transform="translate(0 0)"><path class="d" d="M1166.457,271.594a26.291,26.291,0,1,1,18.562-7.7A26.178,26.178,0,0,1,1166.457,271.594Zm0-51.222a24.988,24.988,0,1,0,17.641,7.319A24.882,24.882,0,0,0,1166.457,220.372Z" transform="translate(-1140.195 -219.07)"></path></g></g><g transform="translate(1217.609 282.972)"><g transform="translate(0.651 0.651)"><path class="f" d="M1636.8,689.778h-56.452v-4.8H1636.8v4.8Z" transform="translate(-1580.351 -684.977)"></path></g><g transform="translate(0 0)"><path class="d" d="M1636.1,689.08h-57.754v-6.1H1636.1v6.1Zm-56.452-1.3h55.15v-3.5h-55.15v3.5Z" transform="translate(-1578.351 -682.978)"></path></g></g><g transform="translate(1080.827 96.504)"><g transform="translate(0 0)"><g transform="translate(0.927 0.921)"><path class="e" d="M1160.981,218.359l27.233-27.233,27.233-27.233,13.089,13.089,13.089,13.089,16.515-16.515,16.515-16.515,10.278,10.278,10.278,10.278,32.328-32.328,32.328-32.328,7.2,7.2,7.2,7.2-38.741,38.741-38.741,38.741-10.63-10.63-10.63-10.63-17.306,17.306-17.306,17.306-13.616-13.616-13.616-13.616-20.644,19.256L1172.4,229.463l-5.71-5.552Z" transform="translate(-1160.981 -112.942)"></path></g><path class="d" d="M1170.47,228.454l-6.169-6-6.169-6,27.7-27.7,27.7-27.7,13.089,13.089,13.089,13.089,16.515-16.516,16.515-16.515,10.278,10.278,10.278,10.278,32.328-32.328,32.328-32.328,7.664,7.664,7.664,7.664-.23.23-.23.23-38.971,38.971-38.971,38.971-10.63-10.63-10.63-10.63-17.306,17.306L1239,217.2l-13.624-13.624-13.624-13.625L1191.111,209.2Zm-10.484-12.009,5.251,5.105,5.251,5.105,20.648-19.259,20.647-19.259,13.609,13.609L1239,215.355l17.306-17.306,17.306-17.306,10.63,10.63,10.63,10.63,38.281-38.28,38.28-38.281-6.743-6.743-6.743-6.743-32.328,32.328-32.328,32.328-10.278-10.278-10.278-10.278-16.515,16.516L1239.7,189.085,1226.614,176l-13.089-13.089-26.769,26.769Z" transform="translate(-1158.132 -110.114)"></path></g><g transform="translate(0 0)"><path class="d" d="M1170.47,228.454l-6.169-6-6.169-6,27.7-27.7,27.7-27.7,13.089,13.089,13.089,13.089,16.515-16.516,16.515-16.515,10.278,10.278,10.278,10.278,32.328-32.328,32.328-32.328,7.664,7.664,7.664,7.664-.23.23-.23.23-38.971,38.971-38.971,38.971-10.63-10.63-10.63-10.63-17.306,17.306L1239,217.2l-13.624-13.624-13.624-13.625L1191.111,209.2Zm-10.484-12.009,5.251,5.105,5.251,5.105,20.648-19.259,20.647-19.259,13.609,13.609L1239,215.355l17.306-17.306,17.306-17.306,10.63,10.63,10.63,10.63,38.281-38.28,38.28-38.281-6.743-6.743-6.743-6.743-32.328,32.328-32.328,32.328-10.278-10.278-10.278-10.278-16.515,16.516L1239.7,189.085,1226.614,176l-13.089-13.089-26.769,26.769Z" transform="translate(-1158.132 -110.114)"></path></g></g><g transform="translate(1211.899 236.411)"><g transform="translate(0.651 0.651)"><path class="g" d="M1562.809,556.333h52.321a9.84,9.84,0,0,0,9.84-9.84v-4.56h-62.162v14.4Z" transform="translate(-1562.809 -541.933)"></path></g><path class="d" d="M1613.781,555.635h-52.972v-15.7h63.464v5.211a10.5,10.5,0,0,1-10.492,10.491Zm-51.67-1.3h51.67a9.2,9.2,0,0,0,9.19-9.189v-3.909h-60.86v13.1Z" transform="translate(-1560.809 -539.933)"></path></g><g transform="translate(1216.357 144.859)"><g transform="translate(0.651 0.651)"><path class="g" d="M1576.5,336.221V271.81a12.6,12.6,0,0,1,2.621-7.876,8.148,8.148,0,0,1,6.327-3.262h39.12a8.148,8.148,0,0,1,6.327,3.262,12.6,12.6,0,0,1,2.62,7.876v79.719h-30.137" transform="translate(-1576.505 -260.671)"></path></g><g transform="translate(0)"><path class="d" d="M1632.822,350.831h-30.789v-1.3h29.487V270.461a11.983,11.983,0,0,0-2.432-7.412,7.521,7.521,0,0,0-5.864-3.075H1584.1a7.521,7.521,0,0,0-5.864,3.075,11.983,11.983,0,0,0-2.433,7.412v64.411h-1.3V270.461a13.22,13.22,0,0,1,2.815-8.332,8.78,8.78,0,0,1,6.784-3.457h39.12a8.781,8.781,0,0,1,6.784,3.457,13.223,13.223,0,0,1,2.814,8.332v80.37Z" transform="translate(-1574.505 -258.671)"></path></g></g><g transform="translate(1216.455 144.859)"><g transform="translate(0.651 0.651)"><path class="f" d="M1576.807,336.221V271.81a13.066,13.066,0,0,1,2.482-7.876,7.6,7.6,0,0,1,5.993-3.262h37.054a7.6,7.6,0,0,1,5.992,3.262,13.066,13.066,0,0,1,2.482,7.876v79.719h-52.831" transform="translate(-1576.807 -260.671)"></path></g><g transform="translate(0)"><path class="d" d="M1630.112,350.831h-53.482v-1.3h52.18V270.461a12.466,12.466,0,0,0-2.294-7.412,6.98,6.98,0,0,0-5.53-3.075h-37.054a6.979,6.979,0,0,0-5.529,3.075,12.466,12.466,0,0,0-2.294,7.412v64.411h-1.3V270.461a13.665,13.665,0,0,1,2.676-8.332,8.221,8.221,0,0,1,6.449-3.457h37.054a8.222,8.222,0,0,1,6.45,3.457,13.668,13.668,0,0,1,2.676,8.332v80.37Z" transform="translate(-1574.807 -258.671)"></path></g></g><g transform="translate(1228.69 119.206)"><g transform="translate(0.651 0.651)"><path class="g" d="M1645.058,201.147h-27.512a3.152,3.152,0,0,1-3.152-3.153V185.012a3.153,3.153,0,0,1,3.153-3.153h27.512a3.153,3.153,0,0,1,3.153,3.153v12.982a3.153,3.153,0,0,1-3.153,3.153Z" transform="translate(-1614.393 -181.859)"></path></g><g transform="translate(0)"><path class="d" d="M1643.709,200.449H1616.2a3.808,3.808,0,0,1-3.8-3.8V183.662a3.808,3.808,0,0,1,3.8-3.8h27.512a3.808,3.808,0,0,1,3.8,3.8v12.983a3.808,3.808,0,0,1-3.8,3.8ZM1616.2,181.161a2.5,2.5,0,0,0-2.5,2.5v12.983a2.5,2.5,0,0,0,2.5,2.5h27.512a2.5,2.5,0,0,0,2.5-2.5V183.662a2.5,2.5,0,0,0-2.5-2.5H1616.2Z" transform="translate(-1612.393 -179.859)"></path></g></g><g transform="translate(1241.269 138.957)"><g transform="translate(0.651 0.651)"><path class="g" d="M1662.892,247.709h-9.854v-5.17h9.854v5.17Z" transform="translate(-1653.039 -242.539)"></path></g><g transform="translate(0 0)"><path class="d" d="M1662.194,247.011h-11.156v-6.472h11.156v6.472Zm-9.854-1.3h8.552v-3.868h-8.552v3.868Z" transform="translate(-1651.038 -240.539)"></path></g></g><g transform="translate(1226.358 119.206)"><g transform="translate(0.651 0.651)"><path class="f" d="M1637.9,201.147h-27.512a3.152,3.152,0,0,1-3.153-3.153V185.012a3.153,3.153,0,0,1,3.153-3.153H1637.9a3.152,3.152,0,0,1,3.152,3.153v12.982a3.153,3.153,0,0,1-3.153,3.153Z" transform="translate(-1607.231 -181.859)"></path></g><g transform="translate(0)"><path class="d" d="M1636.547,200.449h-27.512a3.808,3.808,0,0,1-3.8-3.8V183.662a3.808,3.808,0,0,1,3.8-3.8h27.512a3.807,3.807,0,0,1,3.8,3.8v12.983a3.807,3.807,0,0,1-3.8,3.8Zm-27.512-19.288a2.5,2.5,0,0,0-2.5,2.5v12.983a2.5,2.5,0,0,0,2.5,2.5h27.512a2.5,2.5,0,0,0,2.5-2.5V183.662a2.5,2.5,0,0,0-2.5-2.5h-27.512Z" transform="translate(-1605.231 -179.859)"></path></g></g><g transform="translate(1179.581 220.476)"><g transform="translate(0.651 0.651)"><path class="h" d="M1514.728,500.209v3.037a7.227,7.227,0,0,1-7.229,7.229H1480.27v53.112a7.23,7.23,0,0,1-7.229,7.229h-2.288a7.228,7.228,0,0,1-7.229-7.229V503.8q0-.115,0-.229c0-.076.007-.152.013-.227,0-.016,0-.034,0-.05s0-.034,0-.05v-3.037a7.228,7.228,0,0,1,7.229-7.229H1507.5a7.227,7.227,0,0,1,7.229,7.229Z" transform="translate(-1463.523 -492.98)"></path></g><g transform="translate(0)"><path class="d" d="M1471.692,570.119H1469.4a7.889,7.889,0,0,1-7.88-7.88V502.454c0-.091,0-.172,0-.248s.006-.146.011-.214c0-.016,0-.032,0-.048s0-.032,0-.047V498.86a7.889,7.889,0,0,1,7.88-7.88h36.733a7.889,7.889,0,0,1,7.88,7.88V501.9a7.889,7.889,0,0,1-7.88,7.88h-26.577v52.461a7.889,7.889,0,0,1-7.88,7.88Zm-2.276-77.837a6.586,6.586,0,0,0-6.578,6.578v3.194c-.006.066-.009.132-.011.2s0,.134,0,.2v59.785a6.586,6.586,0,0,0,6.578,6.578h2.289a6.586,6.586,0,0,0,6.578-6.578V508.476h27.879a6.586,6.586,0,0,0,6.578-6.578V498.86a6.586,6.586,0,0,0-6.578-6.578h-36.733Z" transform="translate(-1461.523 -490.98)"></path></g></g><g transform="translate(1163.63 290.718)"><g transform="translate(0.651 0.651)"><path class="d" d="M1419.749,718.288h21.358a6.489,6.489,0,0,0,6.489-6.489v-3.024h-28.8a4.281,4.281,0,0,0-4.282,4.282h0a5.231,5.231,0,0,0,5.231,5.231Z" transform="translate(-1414.518 -708.775)"></path></g><path class="d" d="M1439.758,717.59H1418.4a5.889,5.889,0,0,1-5.882-5.882,4.939,4.939,0,0,1,4.933-4.933H1446.9v3.675a7.149,7.149,0,0,1-7.14,7.14Zm-22.308-9.513a3.635,3.635,0,0,0-3.631,3.631,4.586,4.586,0,0,0,4.58,4.58h21.358a5.845,5.845,0,0,0,5.838-5.838v-2.373H1417.45Z" transform="translate(-1412.517 -706.775)"></path></g><g transform="translate(1201.432 220.476)"><g transform="translate(0.651 0.651)"><path class="h" d="M1581.858,492.98V497.6a12.877,12.877,0,0,1-12.877,12.877H1547.4v53.112a7.23,7.23,0,0,1-7.229,7.229h-9.518V503.8q0-.115,0-.229c0-.076.006-.152.013-.227,0-.016,0-.034,0-.05s0-.034,0-.05V492.98h51.192Z" transform="translate(-1530.653 -492.98)"></path></g><g transform="translate(0)"><path class="d" d="M1538.822,570.119h-10.169V502.454c0-.063,0-.136,0-.214s.006-.162.012-.248c0-.016,0-.032,0-.048s0-.031,0-.047V490.98h52.494v5.269a13.543,13.543,0,0,1-13.528,13.528H1546.7v52.461a7.889,7.889,0,0,1-7.88,7.88Zm-8.867-1.3h8.867a6.586,6.586,0,0,0,6.578-6.578V508.476h22.231a12.24,12.24,0,0,0,12.226-12.226v-3.967h-49.89v9.772c-.006.066-.01.132-.011.2s0,.134,0,.2v66.363Z" transform="translate(-1528.653 -490.98)"></path></g></g><g transform="translate(1171.878 157.521)"><g transform="translate(0.651 0.648)"><path class="a" d="M1490.878,308.538s-4.213,7.968-8.786,15.975-9.507,16.052-10.949,16.207l-12.694,1.362-12.695,1.362a5.262,5.262,0,0,1-5.791-4.664l-.037-.35-.037-.35a5.259,5.259,0,0,1,4.668-5.787l9.536-1.024,9.536-1.024,8.149-14.034,8.149-14.034a5.258,5.258,0,0,1,7.187-1.9l.929.539.929.539a5.261,5.261,0,0,1,1.907,7.187Z" transform="translate(-1439.858 -299.561)"></path></g><g transform="translate(0)"><path class="d" d="M1443.84,342.783a5.922,5.922,0,0,1-5.874-5.275l-.037-.351-.038-.35a5.9,5.9,0,0,1,5.246-6.5l9.372-1.006,9.372-1.006,8.066-13.891,8.066-13.891a5.917,5.917,0,0,1,8.077-2.14l.929.538.929.539a5.922,5.922,0,0,1,2.151,8.065c-.089.17-1.175,2.218-2.794,5.2s-3.772,6.891-6,10.786c-4.656,8.152-7.344,12.266-8.954,14.352s-2.144,2.143-2.49,2.18l-12.695,1.362-12.694,1.362c-.106.011-.212.02-.318.025S1443.944,342.783,1443.84,342.783Zm39.289-43.911a4.643,4.643,0,0,0-2.271.594,4.576,4.576,0,0,0-1.719,1.7l-8.232,14.177-8.232,14.177-9.7,1.041-9.7,1.041a4.6,4.6,0,0,0-4.09,5.071l.037.35.037.35a4.616,4.616,0,0,0,5.074,4.087l12.695-1.362,12.694-1.362c.925-.287,3.749-4.495,7.334-10.507s7.929-13.829,11.9-21.332l.006-.011.006-.011a4.618,4.618,0,0,0-1.671-6.3l-.929-.538-.929-.539a4.585,4.585,0,0,0-2.307-.622Z" transform="translate(-1437.857 -297.57)"></path></g></g><g transform="translate(1162.711 194.512)"><g transform="translate(0.652 0.651)"><path class="i" d="M1412.272,420.571h9.887a5.718,5.718,0,0,0,5.718-5.718h0a1.639,1.639,0,0,0-1.639-1.639h-6.688a4.965,4.965,0,0,0-3.793,1.763l-1.961,2.325-1.962,2.325a.574.574,0,0,0,.439.945Z" transform="translate(-1411.697 -413.214)"></path></g><g transform="translate(0)"><path class="d" d="M1420.808,419.873h-9.887a1.223,1.223,0,0,1-.936-2.016l1.962-2.325,1.962-2.325a5.6,5.6,0,0,1,4.291-1.994h6.688a2.293,2.293,0,0,1,2.29,2.29,6.377,6.377,0,0,1-6.369,6.369Zm-9.722-1.3h9.722a5.073,5.073,0,0,0,5.067-5.067.989.989,0,0,0-.988-.988H1418.2a4.3,4.3,0,0,0-3.3,1.531l-1.908,2.262Z" transform="translate(-1409.694 -411.214)"></path></g></g><g transform="translate(1121.119 165.288)"><g transform="translate(0.651 0.651)"><path class="j" d="M1342.856,364.553h-41.121l-8.852-19.658-8.852-19.657a1.28,1.28,0,0,1,1.167-1.806h38.313a1.281,1.281,0,0,1,1.168.755l9.089,20.183Z" transform="translate(-1283.916 -323.432)"></path></g><g transform="translate(0 0)"><path class="d" d="M1342.516,363.855h-42.549l-8.939-19.849-8.939-19.849a1.93,1.93,0,0,1,1.761-2.724h38.313a1.934,1.934,0,0,1,1.761,1.138l9.3,20.643Zm-41.708-1.3H1340.5l-8.883-19.724-8.882-19.724a.63.63,0,0,0-.574-.371H1283.85a.626.626,0,0,0-.574.888l8.766,19.466Z" transform="translate(-1281.917 -321.432)"></path></g></g><g transform="translate(1142.596 183.757)"><g transform="translate(0 1.299)"><path class="k" d="M1353.876,388.226l-2.578-1.189-2.577-1.189c-.071-.032-.135-.064-.192-.1a1.5,1.5,0,0,1-.15-.094.783.783,0,0,1-.118-.1.821.821,0,0,1-.1-.127l-.095-.153-.095-.153a.591.591,0,0,1-.062-.128.27.27,0,0,1-.014-.109.276.276,0,0,1,.03-.1.468.468,0,0,1,.071-.1l1.08-1.23,1.08-1.23a.488.488,0,0,1,.077-.046.158.158,0,0,1,.06-.016.322.322,0,0,1,.092.013.448.448,0,0,1,.178.1.4.4,0,0,1,.065.08l.33.533.33.533a.5.5,0,0,1,.058.125.181.181,0,0,1,0,.1.312.312,0,0,1-.039.084.471.471,0,0,1-.068.081l-.67.718-.67.718,1.547.7,1.547.7c.063.026.121.052.173.078a1.409,1.409,0,0,1,.138.078.614.614,0,0,1,.111.093.763.763,0,0,1,.094.123l.33.533.33.533a.255.255,0,0,1,.035.082.116.116,0,0,1,0,.067.089.089,0,0,1-.041.045.163.163,0,0,1-.075.016.284.284,0,0,1-.084-.017A1.2,1.2,0,0,1,1353.876,388.226Z" transform="translate(-1347.898 -382.161)"></path></g><g transform="translate(6.299 0)"><path class="k" d="M1368.985,386.75a.565.565,0,0,1-.092-.067.359.359,0,0,1-.063-.075.162.162,0,0,1-.014-.035c-.005-.017-.011-.038-.017-.064l-.774-4.043-.774-4.043a.221.221,0,0,1,.042-.179.233.233,0,0,1,.177-.062l.457-.005.457-.005a.294.294,0,0,1,.094.015.443.443,0,0,1,.1.048.562.562,0,0,1,.088.067.359.359,0,0,1,.062.075.321.321,0,0,1,.026.049.259.259,0,0,1,.015.05l.764,4.043.764,4.043a.2.2,0,0,1-.032.179.25.25,0,0,1-.187.062l-.447,0-.447,0a.3.3,0,0,1-.1-.015A.465.465,0,0,1,1368.985,386.75Z" transform="translate(-1367.25 -378.171)"></path></g><g transform="translate(9.341 1.22)"><path class="k" d="M1380.329,387.995a.487.487,0,0,1-.087-.066.437.437,0,0,1-.066-.081l-.33-.533-.33-.533a.519.519,0,0,1-.059-.124.174.174,0,0,1,0-.094.252.252,0,0,1,.04-.08.473.473,0,0,1,.076-.08l.662-.723.662-.723-1.539-.694-1.539-.694q-.09-.039-.168-.079c-.052-.027-.1-.054-.141-.082a.653.653,0,0,1-.117-.1.743.743,0,0,1-.1-.125l-.33-.533-.33-.533a.251.251,0,0,1-.034-.081.1.1,0,0,1,.007-.063.091.091,0,0,1,.041-.041.149.149,0,0,1,.068-.015.334.334,0,0,1,.088.014.946.946,0,0,1,.121.043l2.583,1.189,2.583,1.189q.107.048.193.1a1.531,1.531,0,0,1,.153.1.867.867,0,0,1,.12.108.837.837,0,0,1,.1.128l.095.153.095.153a.572.572,0,0,1,.061.127.248.248,0,0,1,.012.106.291.291,0,0,1-.032.1.494.494,0,0,1-.072.1l-1.085,1.23-1.085,1.23a.171.171,0,0,1-.057.053.151.151,0,0,1-.073.018.274.274,0,0,1-.086-.014A.474.474,0,0,1,1380.329,387.995Z" transform="translate(-1376.595 -381.92)"></path></g></g><g transform="translate(1195.024 205.001)"><path class="l" d="M1508.967,443.438" transform="translate(-1508.967 -443.438)"></path></g><g transform="translate(1206.384 154.587)"><g transform="translate(0.656 0.651)"><path class="a" d="M1593.809,306.2l-.535,8.583-.535,8.583q-.383,6.15-.33,12.31t.541,12.3l.429,5.406.43,5.406a.413.413,0,0,1-.12.295.386.386,0,0,1-.291.112l-21.979-1-21.979-1a.427.427,0,0,1-.288-.138.449.449,0,0,1-.119-.3l-1.576-6.953-1.576-6.953.939-13.681.939-13.681.636-5.661.636-5.661a13.845,13.845,0,0,1,3.471-9.289,12.884,12.884,0,0,1,8.556-4.277q.425-.039.857-.047t.871.011l8.631.392,8.631.392q.415.02.825.063t.812.112a14.37,14.37,0,0,1,8.621,5.036A15.07,15.07,0,0,1,1593.809,306.2Z" transform="translate(-1545.881 -290.557)"></path></g><g transform="translate(0 0)"><path class="d" d="M1592.057,358.505h-.046l-21.98-1-21.98-1a1.091,1.091,0,0,1-1.025-1l-1.58-6.972-1.58-6.972,0-.048,0-.048.939-13.681.939-13.681.635-5.657.636-5.657a14.527,14.527,0,0,1,3.624-9.669,13.5,13.5,0,0,1,9-4.51c.286-.027.582-.043.885-.049s.613,0,.927.012l8.631.392,8.631.392c.289.014.578.036.865.067s.571.07.852.117a14.986,14.986,0,0,1,9.039,5.292,15.753,15.753,0,0,1,3.625,10.023v.04l-.535,8.583-.534,8.583c-.254,4.07-.363,8.168-.328,12.264s.214,8.192.537,12.257l.431,5.432.431,5.432a1.077,1.077,0,0,1-.085.42,1.05,1.05,0,0,1-.24.35,1.027,1.027,0,0,1-.718.288Zm-43.762-3.289,21.74.987,21.74.987-.417-5.252-.417-5.252c-.326-4.1-.506-8.222-.541-12.349s.074-8.256.33-12.356l.534-8.573.534-8.573a14.454,14.454,0,0,0-3.32-9.172,13.688,13.688,0,0,0-8.258-4.84c-.255-.043-.514-.079-.774-.107s-.523-.048-.786-.061l-8.63-.392-8.63-.392c-.284-.012-.565-.016-.839-.01s-.541.02-.8.044a12.212,12.212,0,0,0-8.164,4.108,13.233,13.233,0,0,0-3.272,8.81l0,.036,0,.036-.637,5.661-.636,5.661-.935,13.62-.934,13.619,1.559,6.879Z" transform="translate(-1543.866 -288.557)"></path></g></g><g transform="translate(1185.897 198.375)"><g transform="translate(0.652 0.651)"><path class="i" d="M1483.5,432.437h9.887a5.718,5.718,0,0,0,5.718-5.718h0a1.639,1.639,0,0,0-1.639-1.639h-6.688a4.964,4.964,0,0,0-3.793,1.763l-1.962,2.325-1.962,2.325a.574.574,0,0,0,.439.945Z" transform="translate(-1482.928 -425.08)"></path></g><g transform="translate(0)"><path class="d" d="M1492.04,431.739h-9.887a1.223,1.223,0,0,1-.937-2.016l1.962-2.325,1.961-2.325a5.6,5.6,0,0,1,4.291-1.994h6.688a2.293,2.293,0,0,1,2.29,2.29,6.376,6.376,0,0,1-6.369,6.369Zm-9.722-1.3h9.722a5.073,5.073,0,0,0,5.067-5.067.99.99,0,0,0-.988-.988h-6.688a4.3,4.3,0,0,0-3.3,1.531l-1.908,2.262Z" transform="translate(-1480.925 -423.08)"></path></g></g><g transform="translate(1196.819 172.605)"><g transform="translate(0.653 0.424)"><path class="a" d="M1570.729,345.982l-10.8,13.677-10.8,13.677a10.177,10.177,0,0,1-2.97,1.9,13.183,13.183,0,0,1-3.129,1.163l-9.467.85-9.467.85a5.255,5.255,0,0,1-5.706-4.765l-.031-.35-.031-.35c-.13-1.445-1.647-1.863-1.821-2.216s1-.643,6.24-1.833l6.655-1.41,6.655-1.41a7.829,7.829,0,0,0,5.2-2.655l3.508-4.026,3.508-4.026,4.226-4.924,4.226-4.924" transform="translate(-1516.486 -345.211)"></path></g><g transform="translate(0 0)"><path class="d" d="M1522.257,377.9a5.893,5.893,0,0,1-5.873-5.381l-.031-.35-.031-.35a1.367,1.367,0,0,0-.4-.838,3.812,3.812,0,0,0-.694-.535,2.484,2.484,0,0,1-.545-.433.77.77,0,0,1-.191-.668c.067-.375.218-.593,1.121-.892s2.557-.678,5.631-1.376l6.7-1.417,6.7-1.417a7.144,7.144,0,0,0,4.769-2.434l3.508-4.026,3.508-4.027,4.225-4.922,4.224-4.922.494.424.494.424-4.226,4.924-4.226,4.924-3.509,4.028-3.509,4.028a8.44,8.44,0,0,1-5.6,2.872l-6.636,1.406-6.637,1.406c-1.105.251-2.156.489-3.057.7s-1.655.4-2.165.549a3.635,3.635,0,0,1,.826.8,2.576,2.576,0,0,1,.49,1.306l.031.351.031.35a4.595,4.595,0,0,0,5,4.174l9.467-.85,9.467-.85a12.788,12.788,0,0,0,2.917-1.11,9.953,9.953,0,0,0,2.729-1.709l10.8-13.678,10.8-13.678.511.4.511.4-10.8,13.677-10.8,13.677a10.624,10.624,0,0,1-3.219,2.09,13.878,13.878,0,0,1-3.332,1.221l-9.468.85-9.468.85q-.136.012-.271.018T1522.257,377.9Z" transform="translate(-1514.481 -343.909)"></path></g></g><g transform="translate(1221.219 154.587)"><g transform="translate(0.652 0.651)"><path class="i" d="M1612.42,291.531a13.218,13.218,0,0,1-4.94,6.372,13.684,13.684,0,0,1-7.787,2.605,8.365,8.365,0,0,1-6.658-2.851,7.627,7.627,0,0,1-1.29-6.884c.007-.028.014-.055.022-.083s.017-.055.027-.083q.425-.039.857-.047t.871.011l8.631.392,8.631.392q.415.02.825.063T1612.42,291.531Z" transform="translate(-1591.446 -290.557)"></path></g><path class="d" d="M1598.342,299.811a10.264,10.264,0,0,1-4.187-.837,7.978,7.978,0,0,1-3.095-2.4,7.645,7.645,0,0,1-1.489-3.375,9.269,9.269,0,0,1,.191-3.934c.008-.032.017-.068.028-.105s.023-.076.037-.115l.07-.2.069-.2.208-.019.208-.019c.288-.026.585-.043.889-.049s.614,0,.928.012l8.631.392,8.631.392c.289.014.578.036.865.067s.571.07.851.118l.376.064.376.064-.122.362-.123.362a13.872,13.872,0,0,1-5.209,6.69A14.364,14.364,0,0,1,1598.342,299.811Zm-7.387-9.937a7.849,7.849,0,0,0-.08,3.19,6.338,6.338,0,0,0,1.215,2.709,6.7,6.7,0,0,0,2.64,2.029,8.987,8.987,0,0,0,3.612.706,13.5,13.5,0,0,0,11.826-7.793q-.191-.021-.383-.035t-.385-.024l-8.63-.392-8.63-.392q-.3-.013-.6-.013C1591.341,289.86,1591.146,289.865,1590.955,289.874Z" transform="translate(-1589.443 -288.557)"></path></g><g transform="translate(1225.562 148.766)"><g transform="translate(0.642 0.651)"><path class="i" d="M1604.756,281.589l.766-4.458.766-4.458h9.253l.766,4.458.766,4.458" transform="translate(-1604.756 -272.673)"></path></g><g transform="translate(0 0)"><path class="d" d="M1604.068,280.35l-.642-.11-.642-.11.813-4.728.813-4.728h10.35l.813,4.728.812,4.728-.642.11-.642.11-.719-4.187-.719-4.187h-8.155l-.719,4.187Z" transform="translate(-1602.785 -270.673)"></path></g></g><g transform="translate(1219.213 117.968)"><g transform="translate(0.651 0.651)"><path class="i" d="M1597.614,212.263l-1.55-.024-1.55-.025a9.319,9.319,0,0,1-9.167-9.391c0-.325,0-.639-.007-.938s-.027-.584-.06-.85v-15.82a7.161,7.161,0,0,1,7.162-7.161h6.961a7.162,7.162,0,0,1,7.162,7.161l-.325,9.375-.326,9.374a8.3,8.3,0,0,1-8.3,8.3Z" transform="translate(-1585.279 -178.054)"></path></g><g transform="translate(0 0)"><path class="d" d="M1596.265,211.565h-.01l-1.55-.025-1.551-.024a10,10,0,0,1-9.807-10.047c0-.289,0-.586-.005-.875s-.025-.57-.057-.828l0-.04,0-.041v-15.82a7.821,7.821,0,0,1,7.813-7.812h6.961a7.822,7.822,0,0,1,7.812,7.812l-.326,9.386-.326,9.386a8.954,8.954,0,0,1-8.949,8.927Zm-11.684-11.919c.034.292.052.6.061.907s.008.621.006.925a8.7,8.7,0,0,0,8.526,8.736l1.548.024,1.548.024a7.656,7.656,0,0,0,7.642-7.648l.326-9.386.325-9.386a6.513,6.513,0,0,0-6.511-6.488h-6.961a6.518,6.518,0,0,0-6.511,6.51v15.78Z" transform="translate(-1583.279 -176.054)"></path></g></g><g transform="translate(1213.342 112.892)"><g transform="translate(0)"><g transform="translate(0.651 0.661)"><path class="d" d="M1569.819,178.627c-2.325-1.364-2.932-3.946-2.4-6.56a11.047,11.047,0,0,1,4.463-6.749,8.686,8.686,0,0,1,4.18-1.452,28.8,28.8,0,0,1,4.47.115l.39-.187.39-.187a11.242,11.242,0,0,1,5.306-1.105,10.564,10.564,0,0,1,5.161,1.569,13.623,13.623,0,0,1,6.451,11.589h0a30.821,30.821,0,0,1-1.058,8.007l-1.224,4.555-1.225,4.555a.213.213,0,0,1-.418-.055V182.309a4.989,4.989,0,0,0-4.988-4.989l-4.371-1.418-4.371-1.417c-1.531-.5-1.954.064-2.319.987a6.01,6.01,0,0,1-1.973,3.155h-6.469Z" transform="translate(-1567.242 -162.492)"></path></g><path class="d" d="M1593.177,192.215l-.059,0-.059-.006a.856.856,0,0,1-.75-.856V180.939a4.343,4.343,0,0,0-4.337-4.338h-.1l-4.42-1.433-4.42-1.434c-.579-.188-.887-.229-1.1-.075s-.345.5-.561,1.09a8.964,8.964,0,0,1-.666,1.5,4.951,4.951,0,0,1-1.375,1.531l-.086.063-.086.063h-6.858l-.076-.045-.076-.045a5.659,5.659,0,0,1-2.1-2.13,6.552,6.552,0,0,1-.795-3.043,10.586,10.586,0,0,1,1.325-5.16,11.3,11.3,0,0,1,3.608-4.08,9.241,9.241,0,0,1,4.171-1.528,23.2,23.2,0,0,1,4.316.044l.2.014.2.014.312-.15.313-.15a11.854,11.854,0,0,1,5.666-1.176,11.21,11.21,0,0,1,5.426,1.674,14.208,14.208,0,0,1,6.758,12.142,31.49,31.49,0,0,1-1.08,8.177l-1.225,4.555-1.225,4.555a.863.863,0,0,1-.308.464A.854.854,0,0,1,1593.177,192.215Zm-5.1-16.915a5.646,5.646,0,0,1,5.533,5.639v7.094l.794-2.953.794-2.953a30.188,30.188,0,0,0,1.035-7.838,12.913,12.913,0,0,0-6.144-11.036,9.915,9.915,0,0,0-4.809-1.479,10.553,10.553,0,0,0-5.032,1.049l-.468.225-.468.225-.37-.026-.37-.026a22.468,22.468,0,0,0-4-.056,8,8,0,0,0-3.673,1.326,9.983,9.983,0,0,0-3.182,3.59,9.269,9.269,0,0,0-1.169,4.53,5.522,5.522,0,0,0,.438,2.067,4.3,4.3,0,0,0,1.668,1.929h6.064a3.738,3.738,0,0,0,.918-1.119,8.37,8.37,0,0,0,.506-1.185,3.728,3.728,0,0,1,.921-1.618,2.326,2.326,0,0,1,2.369-.188l4.323,1.4Z" transform="translate(-1565.242 -160.461)"></path></g></g><g transform="translate(1239.916 132.294)"><g transform="translate(0 0.651)"><path class="m" d="M1646.883,222.068a2.727,2.727,0,0,1,2.083,1.021,3.956,3.956,0,0,1,0,4.933,2.728,2.728,0,0,1-2.083,1.022" transform="translate(-1646.883 -222.068)"></path></g><g transform="translate(0 0)"><path d="M1646.883,228.346v-1.3a2.094,2.094,0,0,0,1.622-.832,3.324,3.324,0,0,0,0-4.01,2.1,2.1,0,0,0-1.622-.832v-1.3a3.369,3.369,0,0,1,2.542,1.213,4.585,4.585,0,0,1,0,5.851A3.369,3.369,0,0,1,1646.883,228.346Z" transform="translate(-1646.883 -220.068)"></path></g></g><g transform="translate(1218.271 131.005)"><g transform="translate(0.055 0.644)"><path class="m" d="M1603.665,218.086l-5.416.809-5.416.809-6.139-.522-6.139-.523" transform="translate(-1580.554 -218.086)"></path></g><path d="M1592.74,219.025l-6.177-.526-6.177-.526.055-.649.055-.649,6.1.519,6.1.519,5.378-.8,5.378-.8.1.644.1.644-5.454.815Z" transform="translate(-1580.385 -216.108)"></path></g><g transform="translate(1224.1 132.237)"><g transform="translate(0.651 0.651)"><path class="i" d="M1600.293,225.089a3.2,3.2,0,1,0,.936-2.26A3.185,3.185,0,0,0,1600.293,225.089Z" transform="translate(-1600.293 -221.894)"></path></g><path class="d" d="M1602.139,227.587a3.85,3.85,0,1,1,2.719-1.128A3.834,3.834,0,0,1,1602.139,227.587Zm0-6.391a2.547,2.547,0,1,0,1.8.746A2.535,2.535,0,0,0,1602.139,221.2Z" transform="translate(-1598.292 -219.894)"></path></g><g transform="translate(1215.312 131.394)"><g transform="translate(0.651 0.651)"><path class="i" d="M1573.3,222.5a3.2,3.2,0,1,0,.936-2.26A3.186,3.186,0,0,0,1573.3,222.5Z" transform="translate(-1573.295 -219.303)"></path></g><g transform="translate(0 0)"><path class="d" d="M1575.142,225a3.852,3.852,0,1,1,2.719-1.128A3.835,3.835,0,0,1,1575.142,225Zm0-6.391a2.548,2.548,0,1,0,1.8.746A2.536,2.536,0,0,0,1575.142,218.6Z" transform="translate(-1571.295 -217.303)"></path></g></g><g transform="translate(1170.743 208.758)"><g transform="translate(0.651 0.651)"><path class="n" d="M1482.6,471.236h-46.227V456.981H1482.6v14.256Z" transform="translate(-1436.371 -456.981)"></path></g><g transform="translate(0)"><path class="d" d="M1481.9,470.538h-47.53V454.98h47.53v15.558Zm-46.228-1.3H1480.6V456.282h-44.926v12.954Z" transform="translate(-1434.371 -454.98)"></path></g></g><g transform="translate(1106.924 208.758)"><g transform="translate(0.651 0.651)"><path class="c" d="M1304.224,471.236h-63.918V456.981h63.918v14.256Z" transform="translate(-1240.306 -456.981)"></path></g><g transform="translate(0)"><path class="d" d="M1303.526,470.538h-65.22V454.98h65.22v15.558Zm-63.918-1.3h62.616V456.282h-62.616v12.954Z" transform="translate(-1238.306 -454.98)"></path></g></g><g transform="translate(1162.456 223.09)"><g transform="translate(0.651 0.651)"><path class="c" d="M1419.317,579.108h-8.406v-78.1h8.406v78.1Z" transform="translate(-1410.911 -501.009)"></path></g><path class="d" d="M1418.619,578.409h-9.708v-79.4h9.708v79.4Zm-8.406-1.3h7.1v-76.8h-7.1v76.8Z" transform="translate(-1408.911 -499.009)"></path></g><g transform="translate(1171.108 223.09)"><g transform="translate(0.651 0.651)"><path class="n" d="M1445.9,579.108h-8.406v-78.1h8.406v78.1Z" transform="translate(-1437.491 -501.009)"></path></g><g transform="translate(0)"><path class="d" d="M1445.2,578.409h-9.708v-79.4h9.708v79.4Zm-8.406-1.3h7.1v-76.8h-7.1v76.8Z" transform="translate(-1435.491 -499.009)"></path></g></g><g transform="translate(1107.299 223.09)"><g transform="translate(0.651 0.651)"><path class="c" d="M1249.866,579.108h-8.406v-78.1h8.406v78.1Z" transform="translate(-1241.459 -501.009)"></path></g><g transform="translate(0)"><path class="d" d="M1249.168,578.409h-9.709v-79.4h9.709v79.4Zm-8.407-1.3h7.1v-76.8h-7.1v76.8Z" transform="translate(-1239.459 -499.009)"></path></g></g><g transform="translate(1115.951 223.09)"><g transform="translate(0.651 0.651)"><path class="n" d="M1276.446,579.108h-8.406v-78.1h8.406v78.1Z" transform="translate(-1268.04 -501.009)"></path></g><g transform="translate(0)"><path class="d" d="M1275.748,578.409h-9.708v-79.4h9.708v79.4Zm-8.406-1.3h7.1v-76.8h-7.1v76.8Z" transform="translate(-1266.04 -499.009)"></path></g></g><g transform="translate(1187.622 288.333)"><g transform="translate(0.651 0.651)"><path class="d" d="M1491.72,713.346h20.629a6.489,6.489,0,0,0,6.489-6.489v-5.409H1496.07a7.843,7.843,0,0,0-7.843,7.843v.562a3.493,3.493,0,0,0,3.493,3.493Z" transform="translate(-1488.227 -701.448)"></path></g><g transform="translate(0 0)"><path class="d" d="M1511,712.648h-20.629a4.149,4.149,0,0,1-4.144-4.144v-.562a8.5,8.5,0,0,1,8.494-8.494h23.419v6.06a7.148,7.148,0,0,1-7.14,7.14Zm-16.279-11.9a7.2,7.2,0,0,0-7.192,7.192v.562a2.845,2.845,0,0,0,2.842,2.842H1511a5.844,5.844,0,0,0,5.838-5.838V700.75h-22.117Z" transform="translate(-1486.227 -699.448)"></path></g></g><g transform="translate(1199.659 223.09)"><g transform="translate(0.651 0.651)"><path class="c" d="M1533.614,579.108h-8.406v-78.1h8.406v78.1Z" transform="translate(-1525.207 -501.009)"></path></g><g transform="translate(0)"><path class="d" d="M1532.915,578.409h-9.708v-79.4h9.708v79.4Zm-8.406-1.3h7.1v-76.8h-7.1v76.8Z" transform="translate(-1523.207 -499.009)"></path></g></g><g transform="translate(1208.367 223.028)"><g transform="translate(0.651 0.651)"><path class="n" d="M1560.363,578.917h-8.406v-78.1h8.406v78.1Z" transform="translate(-1551.957 -500.819)"></path></g><g transform="translate(0)"><path class="d" d="M1559.666,578.219h-9.708v-79.4h9.708v79.4Zm-8.406-1.3h7.1v-76.8h-7.1v76.8Z" transform="translate(-1549.957 -498.819)"></path></g></g><g transform="translate(1219.365 205.973)"><g transform="translate(0.651 0.651)"><path class="g" d="M1639.961,456.8h-54.216v-2.523a5.851,5.851,0,0,1,5.851-5.851h39.992a8.374,8.374,0,0,1,8.374,8.374Z" transform="translate(-1585.745 -448.422)"></path></g><g transform="translate(0)"><path class="d" d="M1639.263,456.1h-55.518v-3.174a6.509,6.509,0,0,1,6.5-6.5h39.992a9.035,9.035,0,0,1,9.025,9.025v.651Zm-54.216-1.3h52.887a7.734,7.734,0,0,0-7.7-7.072h-39.992a5.206,5.206,0,0,0-5.2,5.2V454.8Z" transform="translate(-1583.745 -446.422)"></path></g></g><g transform="translate(1236.86 251.051)"><g transform="translate(0.651 0.651)"><path class="o" d="M1646.693,618.831h-7.2V586.911h7.2v31.921Z" transform="translate(-1639.493 -586.911)"></path></g><g transform="translate(0)"><path class="d" d="M1646,618.133h-8.5V584.91h8.5v33.223Zm-7.2-1.3h5.9V586.212h-5.9v30.619Z" transform="translate(-1637.493 -584.91)"></path></g></g><g transform="translate(1274.742 282.911)"><g transform="translate(0.651 0.651)"><path class="g" d="M1761.838,693.183h-5.963v-8.392h2.043a3.92,3.92,0,0,1,3.92,3.92v4.472Z" transform="translate(-1755.875 -684.791)"></path></g><path class="d" d="M1761.14,692.485h-7.265v-9.694h2.694a4.577,4.577,0,0,1,4.571,4.571v5.123Zm-5.963-1.3h4.661v-3.821a3.273,3.273,0,0,0-3.269-3.269h-1.392v7.09Z" transform="translate(-1753.875 -682.791)"></path></g><g transform="translate(1272.546 288.95)"><g transform="translate(0.651 0.651)"><path class="g" d="M1759.243,707.947a5.068,5.068,0,1,1-1.807-3.432A5.052,5.052,0,0,1,1759.243,707.947Z" transform="translate(-1749.128 -703.342)"></path></g><path class="d" d="M1752.837,712.781a5.782,5.782,0,1,1,.534-.025c-.089.008-.179.015-.268.019S1752.925,712.781,1752.837,712.781Zm.018-10.136c-.069,0-.137,0-.206,0s-.138.008-.207.014a4.445,4.445,0,1,0,.413-.019Z" transform="translate(-1747.127 -701.342)"></path></g><g transform="translate(1228.426 282.911)"><g transform="translate(0.651 0.651)"><path class="g" d="M1619.545,693.183h-5.963v-8.392h2.043a3.92,3.92,0,0,1,3.92,3.92v4.472Z" transform="translate(-1613.582 -684.791)"></path></g><g transform="translate(0)"><path class="d" d="M1618.847,692.485h-7.265v-9.694h2.694a4.577,4.577,0,0,1,4.571,4.571v5.123Zm-5.963-1.3h4.661v-3.821a3.273,3.273,0,0,0-3.269-3.269h-1.392v7.09Z" transform="translate(-1611.582 -682.791)"></path></g></g><g transform="translate(1226.229 288.949)"><g transform="translate(0.651 0.651)"><path class="g" d="M1616.949,707.947a5.068,5.068,0,1,1-1.807-3.432A5.052,5.052,0,0,1,1616.949,707.947Z" transform="translate(-1606.834 -703.342)"></path></g><g transform="translate(0 0)"><path class="d" d="M1610.543,712.781a5.726,5.726,0,1,1,5.705-6.243h0a5.708,5.708,0,0,1-5.171,6.219q-.134.013-.268.019C1610.721,712.779,1610.632,712.781,1610.543,712.781Zm.018-10.136c-.068,0-.137,0-.206,0s-.138.008-.207.014a4.423,4.423,0,1,0,4.8,3.994h0a4.408,4.408,0,0,0-4.39-4.012Z" transform="translate(-1604.834 -701.342)"></path></g></g><g transform="translate(1254.773 89.936)"><g transform="translate(1.572 0.651)"><path class="e" d="M1743.811,138.39l-23.227-23.227-23.227-23.227h46.455V138.39Z" transform="translate(-1697.356 -91.936)"></path></g><path class="d" d="M1741.2,138.613l-24.339-24.339-24.339-24.338H1741.2v48.677ZM1695.67,91.238l22.116,22.116L1739.9,135.47V91.238H1695.67Z" transform="translate(-1692.527 -89.936)"></path><path class="d" d="M1741.2,138.613l-24.339-24.339-24.339-24.338H1741.2v48.677ZM1695.67,91.238l22.116,22.116L1739.9,135.47V91.238H1695.67Z" transform="translate(-1692.527 -89.936)"></path></g><g transform="translate(1139.066 206.324)"><g transform="translate(0.651 0.651)"><path class="j" d="M1413.407,451.25H1340.8a1.749,1.749,0,0,1-1.749-1.749h74.354a.874.874,0,0,1,.874.874h0a.874.874,0,0,1-.874.875Z" transform="translate(-1339.053 -449.501)"></path></g><g transform="translate(0)"><path class="d" d="M1412.058,450.552h-72.605a2.4,2.4,0,0,1-2.4-2.4V447.5h75.005a1.525,1.525,0,0,1,0,3.051Zm-73.489-1.749a1.1,1.1,0,0,0,.381.325,1.09,1.09,0,0,0,.5.122h72.605a.223.223,0,0,0,0-.447h-73.489Z" transform="translate(-1337.053 -447.501)"></path></g></g><g transform="translate(1257.293 214.48)"><g transform="translate(0.651 0.651)"><path class="g" d="M1702.267,495.828h6.774v-21.27h-6.774v21.27Z" transform="translate(-1702.267 -474.559)"></path></g><g transform="translate(0)"><path class="d" d="M1708.343,495.13h-8.076V472.559h8.076V495.13Zm-6.774-1.3h5.472V473.861h-5.472v19.968Z" transform="translate(-1700.267 -472.559)"></path></g></g><g transform="translate(1049.046 137.668)"><g transform="translate(0 0)"><g transform="translate(0.646 0.669)"><path class="a" d="M1102.667,252.271a7.238,7.238,0,0,0-8.548-7.771,3.437,3.437,0,0,1-2.069-.152,3.87,3.87,0,0,1-1.667-1.273c-3.27-4.334-8.868-5.293-13.641-3.757s-8.719,5.569-8.685,11.221a3.69,3.69,0,0,1-.425,1.738,3.881,3.881,0,0,1-1.182,1.351c-3.749,2.678-4.7,7.481-3.446,11.573s4.719,7.471,9.8,7.3h25.958v-.015a8.436,8.436,0,0,0,8.833-6.395c1.076-3.667.147-7.978-3.193-10.258a4.229,4.229,0,0,1-1.389-1.554A3.351,3.351,0,0,1,1102.667,252.271Z" transform="translate(-1062.481 -238.632)"></path></g><path class="d" d="M1071.091,271.774a9.874,9.874,0,0,1-6.557-2.353,11.588,11.588,0,0,1-3.381-5.071,12.433,12.433,0,0,1-.364-6.663,9.931,9.931,0,0,1,3.943-5.976,3.225,3.225,0,0,0,.985-1.129,3.043,3.043,0,0,0,.349-1.427,11.457,11.457,0,0,1,2.821-7.753,14.569,14.569,0,0,1,14.288-4.383,11.742,11.742,0,0,1,6.387,4.276,3.2,3.2,0,0,0,1.394,1.064,2.8,2.8,0,0,0,1.669.12,7,7,0,0,1,3.549.085,8.3,8.3,0,0,1,5.379,4.892,6.994,6.994,0,0,1,.418,3.519h0a2.719,2.719,0,0,0,.275,1.6,3.538,3.538,0,0,0,1.186,1.33,8.939,8.939,0,0,1,3.509,4.966,10.816,10.816,0,0,1-.211,6.492,9.958,9.958,0,0,1-3.1,4.5,8.756,8.756,0,0,1-6.022,1.9l-.093,0-.092,0h-25.8c-.045,0-.091,0-.135-.006v.006l-.2,0Zm8.66-33.893a13.049,13.049,0,0,0-2.153.181,14.125,14.125,0,0,0-2.186.552,12.8,12.8,0,0,0-5.5,3.607,10.2,10.2,0,0,0-2.542,6.927,4.344,4.344,0,0,1-.492,2.027,4.519,4.519,0,0,1-1.387,1.6,8.668,8.668,0,0,0-3.443,5.262,11.106,11.106,0,0,0,.34,5.9,10.216,10.216,0,0,0,3.074,4.557,8.668,8.668,0,0,0,5.985,1.977l.267-.009.267-.009,0,.008,0,.009h24.792v-.042l.346.014.346.014a7.548,7.548,0,0,0,5.311-1.581,8.593,8.593,0,0,0,2.722-3.925,9.917,9.917,0,0,0,.3-5.271,7.529,7.529,0,0,0-3.1-4.689,4.829,4.829,0,0,1-1.645-1.88,4.011,4.011,0,0,1-.37-2.315h0a5.7,5.7,0,0,0-.355-2.893,7.006,7.006,0,0,0-4.476-4.071,5.7,5.7,0,0,0-2.92-.081,4.1,4.1,0,0,1-2.414-.16,4.5,4.5,0,0,1-1.995-1.506,10.322,10.322,0,0,0-3.841-3.122A11.494,11.494,0,0,0,1079.751,237.881Z" transform="translate(-1060.496 -236.577)"></path></g><g transform="translate(30.431 11.418)"><path class="m" d="M1159.6,274.464a2.808,2.808,0,1,1-.822-1.986A2.8,2.8,0,0,1,1159.6,274.464Z" transform="translate(-1153.986 -271.656)"></path></g><g transform="translate(34.523 22.835)"><path class="m" d="M1172.174,309.54a2.808,2.808,0,1,1-.823-1.986A2.8,2.8,0,0,1,1172.174,309.54Z" transform="translate(-1166.558 -306.732)"></path></g><g transform="translate(6.959 20.96)"><path class="m" d="M1089.122,304.593a3.623,3.623,0,1,1-1.061-2.562A3.611,3.611,0,0,1,1089.122,304.593Z" transform="translate(-1081.875 -300.97)"></path></g><g transform="translate(13.737 7.582)"><path class="m" d="M1110.368,263.708a3.836,3.836,0,1,1-1.124-2.712A3.823,3.823,0,0,1,1110.368,263.708Z" transform="translate(-1102.697 -259.872)"></path></g><g transform="translate(10.501 23.882)"><path class="m" d="M1092.919,309.948q3.306.448,6.63.771t6.66.518c1.112.064,2.224.122,3.338.163s2.227.064,3.341.058l3.345.025,3.345.025.007.2.008.2-3.353.1-3.353.1c-1.119.048-2.238.067-3.357.068s-2.239-.015-3.358-.037q-3.358-.07-6.714-.269t-6.7-.525l.082-.7Z" transform="translate(-1092.756 -309.948)"></path></g><g transform="translate(10.497 13.759)"><path class="m" d="M1092.745,289.4a104.21,104.21,0,0,0,22.456-10.558l.286.467.285.467a104.985,104.985,0,0,1-22.857,10.157l-.085-.267Z" transform="translate(-1092.745 -278.847)"></path></g><g transform="translate(10.319 11.134)"><path class="m" d="M1092.2,284.093l3.359-6.654,3.359-6.654.535.284.535.284-3.63,6.511-3.63,6.511-.264-.14Z" transform="translate(-1092.197 -270.784)"></path></g><g transform="translate(17.536 11.219)"><path class="m" d="M1129.98,274.574l-7.8-1.566-7.8-1.566.036-.2.036-.2,7.862,1.242,7.862,1.242-.094.522Z" transform="translate(-1114.371 -271.045)"></path></g><g transform="translate(32.979 14.133)"><path class="m" d="M1162.334,280l2.182,5.66,2.182,5.66-.531.19-.531.19-1.911-5.757-1.911-5.757.26-.093Z" transform="translate(-1161.814 -279.997)"></path></g></g><g transform="translate(1043.521 181.381)"><g transform="translate(0.651 0.651)"><path class="c" d="M1072.786,386.5a13.633,13.633,0,1,1-3.993-9.639A13.591,13.591,0,0,1,1072.786,386.5Z" transform="translate(-1045.521 -372.87)"></path></g><path class="d" d="M1057.8,399.437a14.3,14.3,0,1,1,10.1-4.188A14.239,14.239,0,0,1,1057.8,399.437Zm0-27.264a13,13,0,1,0,9.175,3.806A12.94,12.94,0,0,0,1057.8,372.173Z" transform="translate(-1043.521 -370.871)"></path></g></g></g></svg>