<svg xmlns="http://www.w3.org/2000/svg" viewBox="0 0 910.44 936.53"><defs><style>.cls-1{fill:#cee0f2;}.cls-2{fill:none;}.cls-3{fill:#0c7ff2;}.cls-14,.cls-4{fill:#2e2e76;}.cls-5,.cls-6{fill:#fff;}.cls-14,.cls-6{font-size:41px;font-family:Montserrat-Bold, Montserrat;font-weight:700;}.cls-7{letter-spacing:0.01em;}.cls-15,.cls-8{font-size:27px;font-family:Montserrat-Medium, Montserrat;font-weight:500;}.cls-8{fill:#8080a6;}.cls-9{letter-spacing:-0.01em;}.cls-10{letter-spacing:-0.02em;}.cls-11{letter-spacing:-0.01em;}.cls-12{letter-spacing:0em;}.cls-13{letter-spacing:0em;}.cls-16{letter-spacing:-0.02em;}.cls-17{letter-spacing:0em;}.cls-18{letter-spacing:-0.02em;}.cls-19{letter-spacing:0em;}.cls-20{letter-spacing:-0.02em;}.cls-21{letter-spacing:-0.02em;}.cls-22{letter-spacing:-0.01em;}</style></defs><g id="Layer_2" data-name="Layer 2"><g id="Layer_1-2" data-name="Layer 1"><path class="cls-1" d="M556.61,440.47c0,.5,0,1,0,1.53v-1.53ZM503.2,442c0-.51,0-1,0-1.53h0Z"></path><path class="cls-1" d="M276.31,602a229,229,0,0,1-23.73-43.55,234.88,234.88,0,0,1-6.92-158.21,25.37,25.37,0,0,0-11.55-29.52l-163-94.09A25.36,25.36,0,0,0,34.94,289,484.72,484.72,0,0,0,46.86,677.59a468.8,468.8,0,0,0,23.73,43.55c71.71,116.63,191.87,198.41,331.27,215.2a25.44,25.44,0,0,0,28.57-25.2V717a25.3,25.3,0,0,0-19.93-24.79C355.47,680.45,307.94,647.51,276.31,602ZM839.08,276.14,676.21,370.45A25.36,25.36,0,0,0,664.69,400,234.91,234.91,0,0,1,658,558.21a228.64,228.64,0,0,1-23.67,43.57c-31.64,45.62-79.24,78.64-134.37,90.39A25.3,25.3,0,0,0,480,717V911.14a25.44,25.44,0,0,0,28.57,25.2c139.59-16.81,259.9-98.8,331.58-215.7a471.17,471.17,0,0,0,23.67-43.58,484.7,484.7,0,0,0,11.45-388.63A25.35,25.35,0,0,0,839.08,276.14ZM653.41,326.36l163.21-94.51a25.44,25.44,0,0,0,8-36.63C746.5,83.44,621.88,8.54,480,.69Q467.7,0,455.22,0T430.43.69c-142.07,7.87-266.84,83-345,195a25.43,25.43,0,0,0,8.06,36.62l163.32,94.3A25.38,25.38,0,0,0,289,321c35.25-41.91,85.14-70.36,141.46-76.87a215.59,215.59,0,0,1,49.58,0c56.21,6.5,106,34.86,141.27,76.65A25.38,25.38,0,0,0,653.41,326.36Z"></path><line class="cls-2" x1="644.28" y1="477.2" x2="629.66" y2="477.2"></line><path class="cls-3" d="M556.65,477.2V442c0-.51,0-1,0-1.53a26.73,26.73,0,0,0-53.37,0c0,.5,0,1,0,1.53v35.2H280.78c3.77,96.06,80.42,172.74,174.44,172.74S625.89,573.26,629.66,477.2Z"></path><path class="cls-4" d="M629.81,469.77q0,3.74-.15,7.43h-73l0-36.73a26.73,26.73,0,0,0-53.37,0l0,36.73H393.58v36.63a26.73,26.73,0,1,1-53.45,0V477.2H280.78q-.15-3.69-.15-7.43c0-99.5,78.16-180.17,174.59-180.17S629.81,370.27,629.81,469.77Z"></path><path class="cls-5" d="M518.15,587.73a22.27,22.27,0,0,1-7,10.13,19.51,19.51,0,0,1-13.7,4.08l-.9,0-.89,0V602h-64v0l-.68,0-.69,0a22.32,22.32,0,0,1-15.45-5.1,26.3,26.3,0,0,1-7.93-11.76A28.58,28.58,0,0,1,406,569.9a22.34,22.34,0,0,1,8.89-13.58,11.68,11.68,0,0,0,3.58-4.12,11.22,11.22,0,0,0,1.26-5.23,26.35,26.35,0,0,1,6.56-17.87,33,33,0,0,1,14.2-9.3,36.72,36.72,0,0,1,5.64-1.43,34,34,0,0,1,5.55-.46,29.48,29.48,0,0,1,12.72,2.78,26.5,26.5,0,0,1,9.91,8,11.67,11.67,0,0,0,5.15,3.89,10.67,10.67,0,0,0,6.23.41,14.59,14.59,0,0,1,7.53.21,18.13,18.13,0,0,1,11.55,10.5,15.08,15.08,0,0,1,1.06,5.48,14.53,14.53,0,0,1-.14,2,10.36,10.36,0,0,0,.95,6,12.45,12.45,0,0,0,4.25,4.86,19.48,19.48,0,0,1,8,12.09A25.79,25.79,0,0,1,518.15,587.73Z"></path><path class="cls-3" d="M492.74,551.7a7.24,7.24,0,1,1-2.12-5.12A7.22,7.22,0,0,1,492.74,551.7Z"></path><path class="cls-3" d="M503.3,581.16a7.24,7.24,0,1,1-2.12-5.13A7.22,7.22,0,0,1,503.3,581.16Z"></path><path class="cls-3" d="M436.39,578.42a9.34,9.34,0,1,1-2.73-6.61A9.32,9.32,0,0,1,436.39,578.42Z"></path><path class="cls-3" d="M455,544.46a9.9,9.9,0,1,1-2.9-7A9.86,9.86,0,0,1,455,544.46Z"></path><path class="cls-3" d="M427.26,576.61q8.52,1.15,17.1,2t17.18,1.34c2.87.16,5.74.31,8.62.42s5.74.16,8.62.15l8.63.06,8.63.07,0,.52,0,.52-8.65.26-8.66.26c-2.88.12-5.77.17-8.66.18s-5.77,0-8.66-.1q-8.65-.18-17.32-.69t-17.3-1.36l.21-1.81Z"></path><path class="cls-3" d="M426.82,577.73a267.41,267.41,0,0,0,57.94-27.24l.74,1.21.74,1.21a273,273,0,0,1-28.73,14.87,269.66,269.66,0,0,1-30.25,11.33l-.22-.69Z"></path><polygon class="cls-3" points="426.37 578.06 435.03 560.89 443.7 543.72 445.08 544.46 446.46 545.19 437.09 561.99 427.73 578.78 427.05 578.42 426.37 578.06"></polygon><polygon class="cls-3" points="485.26 553.05 465.12 549.01 444.99 544.97 445.08 544.46 445.17 543.94 465.46 547.15 485.74 550.35 485.5 551.7 485.26 553.05"></polygon><polygon class="cls-3" points="486.17 551.46 491.8 566.06 497.43 580.67 496.06 581.16 494.69 581.65 489.76 566.79 484.83 551.94 485.5 551.7 486.17 551.46"></polygon><text class="cls-6" transform="translate(376.93 368.11)">E<tspan class="cls-7" x="27.51" y="0">n</tspan><tspan x="56.09" y="0">g</tspan><tspan class="cls-7" x="84.79" y="0">a</tspan><tspan x="110.33" y="0">ge</tspan><tspan class="cls-8"><tspan class="cls-9" x="14.67" y="35">E</tspan><tspan class="cls-10" x="32.43" y="35">x</tspan><tspan class="cls-11" x="46.85" y="35">c</tspan><tspan class="cls-12" x="62.08" y="35">ha</tspan><tspan class="cls-13" x="96.61" y="35">n</tspan><tspan x="115.08" y="35">ge</tspan></tspan></text><text class="cls-14" transform="translate(383.94 111.51)">Design<tspan class="cls-15"><tspan x="-22.7" y="35">Design </tspan><tspan class="cls-16" x="81.46" y="35">C</tspan><tspan class="cls-17" x="100.39" y="35">en</tspan><tspan class="cls-18" x="135.3" y="35">t</tspan><tspan x="145.99" y="35">er</tspan></tspan></text><text class="cls-14" transform="translate(670.44 610.64)">Man<tspan class="cls-7" x="92.78" y="0">a</tspan><tspan x="118.32" y="0">ge</tspan><tspan class="cls-15"><tspan x="1.51" y="35">Man</tspan><tspan class="cls-19" x="61.82" y="35">a</tspan><tspan x="78.05" y="35">g</tspan><tspan class="cls-13" x="96.68" y="35">m</tspan><tspan class="cls-17" x="125.3" y="35">ent</tspan><tspan class="cls-20" x="40.39" y="70">C</tspan><tspan class="cls-17" x="59.31" y="70">en</tspan><tspan class="cls-21" x="94.22" y="70">t</tspan><tspan x="104.92" y="70">er</tspan></tspan></text><text class="cls-14" transform="translate(73.22 610.64)">Depl<tspan class="cls-22" x="100.37" y="0">o</tspan><tspan x="126.61" y="0">y</tspan><tspan class="cls-15"><tspan x="-22.2" y="35">Mule Runti</tspan><tspan class="cls-19" x="128.18" y="35">m</tspan><tspan x="156.8" y="35">e</tspan><tspan x="26.71" y="70">E</tspan><tspan class="cls-13" x="44.8" y="70">n</tspan><tspan class="cls-17" x="63.26" y="70">gi</tspan><tspan class="cls-13" x="89.43" y="70">n</tspan><tspan class="cls-17" x="107.89" y="70">e</tspan></tspan></text></g></g></svg>