<svg xmlns="http://www.w3.org/2000/svg" width="103.938" height="52.983" viewBox="0 0 103.938 52.983"><g id="Group_154" data-name="Group 154" transform="translate(-593.079 -295.152)"><path id="Path_9482" data-name="Path 9482" d="M674.3,295.152c-1.7,6.474-3.388,12.954-5.12,19.421q-4.367,16.3-8.774,32.6a4.117,4.117,0,0,0-.028.966h-8.949l.753-2.842c-2.221,1.585-4.532,2.053-6.72,2.842h-1.326c-4.743-4.768-9.419-9.606-14.269-14.264a6.079,6.079,0,0,1-2.041-5.192c.4-7.729,5.676-15.61,12.6-17.971,6.863-2.339,13.734-.932,18.374,6.55.143.23.289.459.626.992l6.252-23.1Zm-27.828,22.133a8.28,8.28,0,0,0-3.976.935,12.923,12.923,0,0,0-6.119,15.8c2.606,6.777,9.687,8.787,15.328,3.69a12.717,12.717,0,0,0,3.984-12.474A9.428,9.428,0,0,0,646.474,317.285Z" transform="translate(-23.216)" fill="#fff"></path><path id="Path_9483" data-name="Path 9483" d="M783.718,348.135a9.81,9.81,0,0,0-2.111-2.291c-.583-.576-.682-1.081-.164-1.707a1.534,1.534,0,0,1,.092-.137c2.818-2.761,2.507-5.868,1.479-9.365-1.845-6.276-3.338-12.657-4.907-19.011-.288-1.165-.738-1.625-1.99-1.569-2.424.107-4.86.106-7.285,0-1.2-.053-1.647.432-1.918,1.492-.925,3.623-1.934,7.224-2.867,10.845-.281,1.091-.462,1.32-1.509.469-2.15-1.746-2.786-3.483-1.82-6.315,1.7-4.987,2.916-10.146,4.2-15.267,1.269-5.049,3.821-8.835,9.185-10.128h4.309c.929.288,1.846.622,2.789.852,1.137.277,1.432.878.946,1.926a2.941,2.941,0,0,0-.272.95c-.139,1.552-.789,1.661-2.187,1.134-4.871-1.837-8.384-.047-9.881,4.891-.383,1.263-.623,2.57-1.031,3.825-.329,1.01-.138,1.33.986,1.306,3.257-.07,6.518.025,9.776-.052a1.586,1.586,0,0,1,1.895,1.464c1.822,7.428,3.726,14.837,5.607,22.25.108.425.243.843.446,1.541,2.024-3.123,3.934-6.057,5.83-9,3.256-5.053,6.523-10.1,9.735-15.179A1.991,1.991,0,0,1,805.066,310c1.208.065,2.422.016,3.684.016.118.836-.454,1.278-.791,1.788q-11.709,17.743-23.444,35.47c-.18.273-.313.576-.468.866Z" transform="translate(-111.75)" fill="#fff"></path><path id="Path_9484" data-name="Path 9484" d="M593.079,350.114a79.424,79.424,0,0,0,2.4-8.526,1.508,1.508,0,0,1,1.807-1.357c2.036.095,4.08.053,6.12.015.828-.016,1.227.093.948,1.087q-2.045,7.3-3.986,14.627c-.329,1.245-.787.917-1.421.287q-2.926-2.909-5.868-5.8Z" transform="translate(0 -30.126)" fill="#fff"></path><path id="Path_9485" data-name="Path 9485" d="M612.7,295.152c2.811,1.091,3.838,2.4,3.769,4.788a5.348,5.348,0,0,1-3.966,4.921,4.5,4.5,0,0,1-5.6-2.535,5.318,5.318,0,0,1,2.822-6.631c.434-.21,1.011-.055,1.316-.543Z" transform="translate(-9.018)" fill="#fff"></path><path id="Path_9486" data-name="Path 9486" d="M681.034,449.186c2.188-.789,4.5-1.257,6.72-2.842L687,449.186Z" transform="translate(-58.786 -101.051)" fill="#fff"></path></g></svg>