<svg xmlns="http://www.w3.org/2000/svg" width="39.193" height="45.066" viewBox="0 0 39.193 45.066"><defs><style>.a,.b{fill:#fff;}.a{opacity:0.5;}.c{fill:#95bbe3;}.d{fill:#90d1f2;}.e{fill:#a9c6e7;}.f{fill:#a7c5e7;}.g{fill:#a4c2e5;}.h{fill:#adc7e8;}.i{fill:#9ec1e6;}.j{fill:#9fbce2;}.k{fill:#93b6e0;}.l,.m{stroke:none;}.m{fill:#66798a;}</style></defs><g transform="translate(-3.084 0.871)"><path class="a" d="M28.668,24.392A42.17,42.17,0,0,1,31.937,27.6a36.981,36.981,0,0,1,2.7,3.262A28.794,28.794,0,0,1,38.275,37.3a15.9,15.9,0,0,1,.986,3.641,8.276,8.276,0,0,1-.538,4.5,5.173,5.173,0,0,1-2.159,2.428,8.345,8.345,0,0,1-3.745,1.2,14.607,14.607,0,0,1-5.173-.69,34.194,34.194,0,0,1-8.8-4,39.456,39.456,0,0,1-5.779-4.421,40.512,40.512,0,0,1-5.159-5.607A26.739,26.739,0,0,1,3.661,26.31a11.786,11.786,0,0,1-.572-3.945,6.476,6.476,0,0,1,1.545-4.221,6.317,6.317,0,0,1,3.1-1.9,10.959,10.959,0,0,1,4.076-.276A22.759,22.759,0,0,1,19.654,18.3h0c0,.31-.152.6-.138.917h0c-.076.062-.034.145-.041.221h0c-.076.055-.034.138-.041.214l-.248,1.221a1.614,1.614,0,0,0-.145.69,4.235,4.235,0,0,1-.152.766h0c-.179.883-.352,1.766-.531,2.648a4.924,4.924,0,0,0-.159.814c-.034,0-.034.055-.041.09-.117.572-.241,1.152-.345,1.724a4.579,4.579,0,0,0-.166,1.007V28.7a6.055,6.055,0,0,0-.283,1.317h0a.048.048,0,0,1,0,.041,1.138,1.138,0,0,0-.159.69V30.9c-.2.979-.393,1.959-.593,2.938a.945.945,0,0,0-.117.566h0a.69.69,0,0,0-.09.434.611.611,0,0,1-.041.269c-.11.476-.166.959-.3,1.421-.124.214,0,.221.166.221H24.62c.186-.055.379-.076.572-.131a2.331,2.331,0,0,0,1.669-1.759c.241-.855.317-1.752.476-2.628.186-1.062.352-2.124.531-3.186s.359-2.159.552-3.235a12.027,12.027,0,0,1,.248-1.414Z" transform="translate(0 -4.89)"></path><g class="b" transform="translate(-3.521 0)"><path class="l" d="M 28.23390197753906 32.32691955566406 L 28.16139221191406 32.32691955566406 L 27.96829223632813 32.32691955566406 L 19.76122093200684 32.32691955566406 C 19.63970184326172 32.32691955566406 19.38682174682617 32.32691955566406 19.20412063598633 32.11124038696289 C 19.12106132507324 32.01319885253906 19.03122138977051 31.84129905700684 19.07491111755371 31.57918930053711 L 19.0800609588623 31.54834938049316 L 19.0890007019043 31.51839065551758 C 19.16484069824219 31.26432991027832 19.21425247192383 30.99728965759277 19.26658248901367 30.71458053588867 C 19.29861450195313 30.54148292541504 19.33163833618164 30.3630485534668 19.37188720703125 30.18305969238281 C 19.37364387512207 30.07234573364258 19.3848876953125 29.92514610290527 19.45678901672363 29.76693534851074 C 19.48807525634766 29.69587135314941 19.50350379943848 29.62047958374023 19.50263214111328 29.54279899597168 L 19.50166130065918 29.45553970336914 L 19.53030204772949 29.37310981750488 C 19.57949066162109 29.23153877258301 19.61008071899414 29.08398056030273 19.6212215423584 28.93453025817871 L 19.62359237670898 28.90280914306641 L 19.62995147705078 28.87163925170898 C 19.72990226745605 28.38224029541016 19.8281307220459 27.89284896850586 19.92635154724121 27.40345001220703 C 20.0213680267334 26.93001556396484 20.11639213562012 26.45660972595215 20.21296119689941 25.98318672180176 L 20.21296119689941 25.8819694519043 L 20.21296119689941 25.80875015258789 L 20.23395156860352 25.73859977722168 C 20.2835750579834 25.57280540466309 20.32479858398438 25.40310096740723 20.35691070556641 25.23258018493652 L 20.34760093688965 25.21295928955078 L 20.38228225708008 25.04804039001465 L 20.65435218811035 23.75406837463379 L 20.65435218811035 23.72329902648926 L 20.65435218811035 23.64670944213867 L 20.67728233337402 23.57362937927246 C 20.74483108520508 23.35832023620605 20.7875919342041 23.12529945373535 20.83286094665527 22.87861061096191 C 20.85357093811035 22.76574897766113 20.87498092651367 22.64904022216797 20.89927101135254 22.5319995880127 C 20.93242073059082 22.36404991149902 20.9693717956543 22.1901798248291 21.00510215759277 22.02202987670898 C 21.08839225769043 21.63003921508789 21.16706085205078 21.25979042053223 21.21742248535156 20.88435935974121 L 21.22235107421875 20.84755897521973 L 21.2326717376709 20.8118896484375 C 21.3034610748291 20.56718063354492 21.35354232788086 20.31468963623047 21.38152122497559 20.06142044067383 L 21.38425064086914 20.03670883178711 L 21.3894214630127 20.01239967346191 C 21.41526222229004 19.89081001281738 21.44143104553223 19.76889038085938 21.46764183044434 19.64678001403809 C 21.5584716796875 19.22366905212402 21.65239143371582 18.7861499786377 21.73190116882324 18.36207962036133 L 21.73731231689453 18.3332691192627 L 21.74604225158691 18.30527877807617 C 21.83666229248047 18.01486015319824 21.89199066162109 17.71364974975586 21.91047096252441 17.41001892089844 L 21.91435241699219 17.34642028808594 L 21.93404197692871 17.28582954406738 C 22.00533103942871 17.06653022766113 22.0565013885498 16.83938026428223 22.08611106872559 16.61067962646484 L 22.09257125854492 16.56074905395508 L 22.10886192321777 16.51310920715332 C 22.17187118530273 16.3288402557373 22.2121524810791 16.13703918457031 22.22857093811035 15.94302940368652 L 22.23103141784668 15.91405010223389 L 22.2368221282959 15.88554954528809 L 22.48511123657227 14.66482925415039 L 22.50358200073242 14.574049949646 L 22.51022911071777 14.5636100769043 L 22.48888206481934 14.44930934906006 L 22.55212211608887 14.34940242767334 L 22.54325103759766 14.30416011810303 L 22.57929229736328 14.18513011932373 C 22.66192245483398 13.91216945648193 22.72085189819336 13.63016986846924 22.75443077087402 13.34696006774902 L 22.75674247741699 13.3274393081665 L 22.76058197021484 13.3081693649292 L 23.65534400939941 8.816080093383789 L 14.65076160430908 8.816080093383789 C 14.49087142944336 8.816080093383789 14.24925136566162 8.816080093383789 14.06933116912842 8.602699279785156 C 13.88378143310547 8.38262939453125 13.92921161651611 8.117589950561523 13.95105171203613 7.990209579467773 L 13.95222187042236 7.983399868011475 L 13.95357131958008 7.976629734039307 C 14.18345165252686 6.827219486236572 14.40966129302979 5.652279853820801 14.62843132019043 4.516019821166992 C 14.7697057723999 3.782248258590698 14.91577339172363 3.023572444915771 15.06165885925293 2.277790784835815 C 15.17523574829102 1.55199921131134 15.5446081161499 0.8895249962806702 16.10256195068359 0.4114497303962708 C 16.66163063049316 -0.06758028268814087 17.37434196472168 -0.3314002752304077 18.1093807220459 -0.3314002752304077 C 18.15071487426758 -0.3314002752304077 18.19204902648926 -0.3305756747722626 18.23366737365723 -0.3289202749729156 L 34.23049163818359 -0.3289202749729156 C 35.8380126953125 -0.3289202749729156 37.47332000732422 -0.3396002650260925 39.05478286743164 -0.3499402701854706 C 40.63785171508789 -0.3602802753448486 42.27482223510742 -0.3709702789783478 43.88560104370117 -0.3709702789783478 C 44.11598205566406 -0.3709702789783478 44.34616088867188 -0.3707602918148041 44.57654190063477 -0.37030029296875 C 44.68423080444336 -0.37030029296875 44.97296142578125 -0.37030029296875 45.16246032714844 -0.1391602754592896 C 45.3492546081543 0.08869426697492599 45.2972526550293 0.3602184653282166 45.27343368530273 0.4794106781482697 C 45.0946044921875 1.435495376586914 44.91961669921875 2.408421993255615 44.75039291381836 3.349309682846069 C 44.58112716674805 4.290436267852783 44.40612411499023 5.2634596824646 44.22695159912109 6.221538543701172 C 44.11263275146484 6.945806980133057 43.74297714233398 7.606439113616943 43.18544006347656 8.082619667053223 C 42.62815093994141 8.558599472045898 41.91847229003906 8.820749282836914 41.18714141845703 8.820779800415039 C 41.13054275512695 8.820779800415039 41.07315826416016 8.819202423095703 41.01632690429688 8.816080093383789 L 34.54022598266602 8.816080093383789 C 34.44684600830078 9.377094268798828 34.35413360595703 9.944831848144531 34.2641716003418 10.49569988250732 C 34.01915740966797 11.99599838256836 33.76578521728516 13.54742622375488 33.48127365112305 15.07331562042236 C 33.22480773925781 16.57997131347656 32.96275329589844 18.10129928588867 32.70232009887695 19.59527969360352 L 32.69958114624023 19.61100006103516 L 32.69585037231445 19.62651062011719 C 32.59130096435547 20.0605297088623 32.51125335693359 20.50531959533691 32.45790100097656 20.94852066040039 L 32.45617294311523 20.96286964416504 L 32.45362091064453 20.97708892822266 C 32.26206970214844 22.04429054260254 32.08386993408203 23.11291885375977 31.90302085876465 24.20499992370605 C 31.85137176513672 24.51688003540039 31.80087089538574 24.82534027099609 31.75068092346191 25.13183975219727 C 31.62392234802246 25.90603065490723 31.50419235229492 26.63728904724121 31.37118148803711 27.39593887329102 C 31.3192310333252 27.68281936645508 31.27542114257813 27.97798919677734 31.23304176330566 28.26345062255859 C 31.14555740356445 28.85285568237305 31.05510902404785 29.46217727661133 30.88813400268555 30.05842399597168 C 30.65984535217285 31.08932495117188 29.88710594177246 31.90027236938477 28.86747741699219 32.17770004272461 C 28.75422668457031 32.2098503112793 28.64462089538574 32.2315788269043 28.54779243469238 32.25075912475586 C 28.45953178405762 32.26824951171875 28.37617111206055 32.28477096557617 28.30343246459961 32.30632019042969 L 28.23390197753906 32.32691955566406 Z"></path><path class="m" d="M 28.16139221191406 31.82691955566406 C 28.34760093688965 31.77174949645996 28.54071235656738 31.75106048583984 28.73382186889648 31.69589042663574 C 29.57523155212402 31.46785926818848 30.21910095214844 30.78940963745117 30.40282249450684 29.93722915649414 C 30.64420127868652 29.08203887939453 30.72007179260254 28.18547058105469 30.87869071960449 27.30958938598633 C 31.06490135192871 26.24749946594238 31.23043060302734 25.20608901977539 31.40974235534668 24.12331008911133 C 31.58905220031738 23.04052925109863 31.76837158203125 21.96464920043945 31.96148109436035 20.88875961303711 C 32.01736068725586 20.42453956604004 32.10026168823242 19.96397972106934 32.20975112915039 19.50942039489746 C 32.47183227539063 18.00593948364258 32.73160171508789 16.49785995483398 32.98908233642578 14.98518943786621 C 33.38909149169922 12.84031009674072 33.72013092041016 10.68853950500488 34.07876205444336 8.543669700622559 C 34.11325073242188 8.357460021972656 34.17531967163086 8.316080093383789 34.35463333129883 8.316080093383789 C 36.57537078857422 8.316080093383789 38.80300140380859 8.316080093383789 41.0306396484375 8.316080093383789 C 41.08310317993164 8.319230079650879 41.13519287109375 8.320784568786621 41.18711471557617 8.320781707763672 C 42.44994354248047 8.320722579956055 43.5382080078125 7.399906158447266 43.7341423034668 6.136719703674316 C 44.0927734375 4.219439506530762 44.42381286621094 2.302159786224365 44.78244018554688 0.3848797082901001 C 44.82382202148438 0.1779697239398956 44.79623031616211 0.1296997219324112 44.57554244995117 0.1296997219324112 C 44.34549713134766 0.129239410161972 44.11565017700195 0.1290248334407806 43.88560485839844 0.1290248334407806 C 40.66729736328125 0.1290248334407806 37.44879531860352 0.1710797250270844 34.23049163818359 0.1710797250270844 C 28.89934158325195 0.1710797250270844 23.56130218505859 0.1710797250270844 18.22325134277344 0.1710797250270844 C 18.18509101867676 0.1694190949201584 18.14723777770996 0.1686002612113953 18.10937881469727 0.1686002612113953 C 16.83858489990234 0.1686002612113953 15.74790191650391 1.096828818321228 15.55423164367676 2.364229679107666 C 15.18181133270264 4.267719745635986 14.82318115234375 6.178099632263184 14.44386196136475 8.074689865112305 C 14.40248107910156 8.316080093383789 14.45076179504395 8.316080093383789 14.65076160430908 8.316080093383789 L 24.0026912689209 8.316080093383789 C 24.04560089111328 8.304510116577148 24.08966445922852 8.298725128173828 24.13372611999512 8.298725128173828 C 24.17778968811035 8.298725128173828 24.22185134887695 8.304510116577148 24.26476097106934 8.316080093383789 L 23.25095176696777 13.40583992004395 C 23.21382141113281 13.71895980834961 23.14920234680176 14.0282096862793 23.05784225463867 14.32999992370605 C 23.0727710723877 14.40614986419678 23.05796241760254 14.48512935638428 23.0164623260498 14.55068969726563 C 23.03027153015137 14.62462997436523 23.01548194885254 14.7010498046875 22.97508239746094 14.76449012756348 L 22.72679138183594 15.98520946502686 C 22.70690155029297 16.22015953063965 22.65826225280762 16.45176887512207 22.58197212219238 16.67487907409668 C 22.54831123352051 16.93483924865723 22.49059104919434 17.19112014770508 22.4095516204834 17.44041061401367 C 22.38859176635742 17.78462028503418 22.3260612487793 18.12503051757813 22.22334098815918 18.45421981811523 C 22.11989212036133 19.00596046447754 21.99575233459473 19.56459045410156 21.87850189208984 20.11632919311523 C 21.8473014831543 20.39871978759766 21.79193115234375 20.67790985107422 21.71298217773438 20.95083045959473 C 21.63712120056152 21.51635932922363 21.49918174743652 22.07498931884766 21.38884162902832 22.63361930847168 C 21.3129711151123 22.99914932250977 21.26470184326172 23.3715705871582 21.15435218811035 23.72329902648926 L 21.15435218811035 23.80605888366699 L 20.87158203125 25.15091896057129 C 20.87779235839844 25.16400909423828 20.87779235839844 25.17919921875 20.87158203125 25.19229888916016 C 20.83366203308105 25.42536926269531 20.78067207336426 25.65573883056641 20.71296119689941 25.8819694519043 L 20.71296119689941 26.03369903564453 C 20.51296234130859 27.01301956176758 20.31985092163086 27.99235916137695 20.11984062194824 28.97168922424316 C 20.10547065734863 29.16448974609375 20.06606101989746 29.35458946228027 20.00260162353516 29.5372200012207 C 20.0042724609375 29.68680953979492 19.97369194030762 29.83499908447266 19.91294097900391 29.97171020507813 C 19.87156105041504 30.06136894226074 19.87156105041504 30.15102005004883 19.87156105041504 30.24067878723145 C 19.76122093200684 30.71654891967773 19.70604133605957 31.19931983947754 19.56811141967773 31.66139984130859 C 19.5405216217041 31.82691955566406 19.63708114624023 31.82691955566406 19.76122093200684 31.82691955566406 L 27.96829223632813 31.82691955566406 L 28.16139221191406 31.82691955566406 M 28.30641174316406 32.82691955566406 L 28.16139221191406 32.82691955566406 L 27.96829223632813 32.82691955566406 L 19.76122093200684 32.82691955566406 C 19.61130142211914 32.82691955566406 19.15509223937988 32.82691955566406 18.82261085510254 32.43442916870117 C 18.69867134094238 32.28812026977539 18.5025806427002 31.9717903137207 18.58172225952148 31.49698066711426 L 18.59200096130371 31.43529891967773 L 18.60989189147949 31.37537002563477 C 18.67806243896484 31.1469898223877 18.72511100769043 30.89275932312012 18.77492141723633 30.62359046936035 C 18.80502319335938 30.4609546661377 18.83597755432129 30.29372024536133 18.87336349487305 30.12187767028809 C 18.87902450561523 29.97856140136719 18.90247535705566 29.78005790710449 18.99966621398926 29.56429481506348 C 19.00171661376953 29.55921936035156 19.00272560119629 29.55387496948242 19.00266075134277 29.54837989807129 L 19.00071144104004 29.37385940551758 L 19.05800247192383 29.2089900970459 C 19.09296226501465 29.10840034484863 19.11469078063965 29.00354957580566 19.12261199951172 28.89735984802246 L 19.1273307800293 28.83391952514648 L 19.14006233215332 28.7715892791748 C 19.23990249633789 28.28274917602539 19.33801078796387 27.79389953613281 19.43613243103027 27.3050594329834 C 19.52793884277344 26.84762001037598 19.61975860595703 26.39016914367676 19.71296119689941 25.9327392578125 L 19.71296119689941 25.8819694519043 L 19.71296119689941 25.73552894592285 L 19.75495147705078 25.59523963928223 C 19.78446769714355 25.49662590026855 19.81067276000977 25.39648628234863 19.83339309692383 25.29560470581055 L 19.82362174987793 25.27500915527344 L 19.89298248291016 24.94515991210938 L 20.15435218811035 23.70207786560059 L 20.15435218811035 23.57011032104492 L 20.2002124786377 23.4239501953125 C 20.25857162475586 23.2379093170166 20.29864120483398 23.01955032348633 20.34107208251953 22.78836059570313 C 20.36197853088379 22.67440032958984 20.38359832763672 22.55661010742188 20.40859222412109 22.4357967376709 C 20.44317436218262 22.26094818115234 20.48019790649414 22.08669281005859 20.51602172851563 21.91810989379883 C 20.59727096557617 21.53569030761719 20.67402076721191 21.17446899414063 20.72186088562012 20.81788063049316 L 20.73173141479492 20.7442798614502 L 20.75237083435059 20.67293930053711 C 20.81523132324219 20.45563888549805 20.85970115661621 20.23142051696777 20.88455200195313 20.00650978088379 L 20.89001083374023 19.95709037780762 L 20.90034103393555 19.90846061706543 C 20.9262523651123 19.78653907775879 20.95250129699707 19.66427993774414 20.97878074645996 19.54183959960938 C 21.06893157958984 19.12186050415039 21.16216087341309 18.68758964538574 21.24047088623047 18.26992988586426 L 21.25127220153809 18.21230888366699 L 21.26873207092285 18.15634918212891 C 21.34736061096191 17.90437889099121 21.39536094665527 17.6430492401123 21.41140174865723 17.37962913513184 L 21.41914176940918 17.25243949890137 L 21.45854187011719 17.13125038146973 C 21.52029228210449 16.94130897521973 21.56460189819336 16.74456024169922 21.59025192260742 16.54647064208984 L 21.60318183898926 16.44660949707031 L 21.63576126098633 16.3513298034668 C 21.68555068969727 16.20571899414063 21.71738243103027 16.05414962768555 21.7303524017334 15.90085983276367 L 21.73526191711426 15.84289932250977 L 21.74685096740723 15.78588962554932 L 21.99514198303223 14.56516933441162 L 21.9986515045166 14.54791164398193 L 21.96130180358887 14.34792995452881 L 22.05003547668457 14.20774936676025 L 22.10074234008789 14.04025936126709 C 22.17489242553711 13.7952995300293 22.2277717590332 13.54224014282227 22.25791168212891 13.28807926177979 L 22.26254081726074 13.24905014038086 L 22.27022171020508 13.21048927307129 L 23.04593467712402 9.316080093383789 L 14.65076160430908 9.316080093383789 C 14.46106147766113 9.316080093383789 14.01682186126709 9.316080093383789 13.68707180023193 8.925000190734863 C 13.3517017364502 8.527239799499512 13.43189144134521 8.059450149536133 13.45824146270752 7.9057297706604 L 13.4605712890625 7.892119884490967 L 13.46328163146973 7.878569602966309 C 13.69281196594238 6.730929851531982 13.91885185241699 5.55687952041626 14.13744163513184 4.421499729156494 C 14.27819633483887 3.690419912338257 14.42370700836182 2.934672594070435 14.56913375854492 2.19117546081543 C 14.70280933380127 1.351434826850891 15.13124942779541 0.5852606892585754 15.77723121643066 0.03176971897482872 C 16.42685127258301 -0.5248503088951111 17.25510215759277 -0.8314002752304077 18.1093807220459 -0.8314002752304077 C 18.15376472473145 -0.8314002752304077 18.19870376586914 -0.8305670619010925 18.24330139160156 -0.828920304775238 L 34.23049163818359 -0.828920304775238 C 35.83638000488281 -0.828920304775238 37.47086334228516 -0.8396002650260925 39.05152130126953 -0.8499202728271484 C 40.63539123535156 -0.8602702617645264 42.2731819152832 -0.8709703087806702 43.88560104370117 -0.8709703087806702 C 44.1163215637207 -0.8709703087806702 44.34683227539063 -0.8707602620124817 44.57754135131836 -0.87030029296875 C 44.99627304077148 -0.87030029296875 45.32382965087891 -0.7309602499008179 45.54912185668945 -0.4561502933502197 C 45.88343811035156 -0.04836595430970192 45.7962532043457 0.4144968688488007 45.76425170898438 0.5748331546783447 C 45.58597946166992 1.528087973594666 45.41136932373047 2.498919725418091 45.24250030517578 3.437819719314575 C 45.07347869873047 4.377536773681641 44.89874649047852 5.349099636077881 44.71969604492188 6.306657791137695 C 44.58549118041992 7.145689487457275 44.15639495849609 7.910892009735107 43.51016235351563 8.46282958984375 C 42.86243057250977 9.016049385070801 42.03744125366211 9.32073974609375 41.18716049194336 9.320779800415039 C 41.12612533569336 9.320779800415039 41.06438827514648 9.319198608398438 41.00315856933594 9.316080093383789 L 34.96418380737305 9.316080093383789 C 34.89438629150391 9.738897323608398 34.82523345947266 10.16235733032227 34.75763320922852 10.57629013061523 C 34.51239013671875 12.0779390335083 34.25881195068359 13.63065814971924 33.97358703613281 15.16070652008057 C 33.71720886230469 16.66684913635254 33.45522689819336 18.18770599365234 33.19489288330078 19.68115043640137 L 33.18942260742188 19.71257972717285 L 33.18194198608398 19.74358940124512 C 33.08193969726563 20.15879058837891 33.00535202026367 20.58428955078125 32.95431137084961 21.00827026367188 L 32.95086288452148 21.0369701385498 L 32.94575119018555 21.0654296875 C 32.75475311279297 22.12956047058105 32.57686233520508 23.19635963439941 32.39630126953125 24.28668975830078 C 32.34469985961914 24.59827041625977 32.29425048828125 24.90641975402832 32.24411010742188 25.2126293182373 C 32.11712265014648 25.98824882507324 31.99716186523438 26.72085952758789 31.86367225646973 27.48227882385254 L 31.86318206787109 27.48504066467285 L 31.8626823425293 27.48778915405273 C 31.81265068054199 27.76408958435059 31.7713508605957 28.04230880737305 31.72763061523438 28.33686065673828 C 31.63847541809082 28.93744659423828 31.54633903503418 29.55814743041992 31.37323379516602 30.18027496337891 C 31.10112953186035 31.38556480407715 30.19576454162598 32.33307647705078 29.0023021697998 32.65918731689453 C 28.87032508850098 32.69657516479492 28.75070381164551 32.72027969360352 28.64497184753418 32.74123001098633 C 28.56838226318359 32.75640106201172 28.49604225158691 32.7707405090332 28.44546127319336 32.78572082519531 L 28.30641174316406 32.82691955566406 Z"></path></g><path class="c" d="M27.133,19.35a5.372,5.372,0,0,1-.193.924c0-.317.131-.607.138-.917Z" transform="translate(-7.403 -5.965)"></path><path class="d" d="M21.858,45.83c0,.159.069.166.193.166H30.41c-.076.062-.172,0-.255,0H22.023C21.865,46.051,21.734,46.044,21.858,45.83Z" transform="translate(-5.811 -14.182)"></path><path class="e" d="M24.749,30.3c-.076.566-.214,1.124-.324,1.683-.076.366-.124.738-.234,1.09a4.579,4.579,0,0,1,.166-1.007c.1-.572.228-1.152.345-1.724,0-.034,0-.069.041-.09Z" transform="translate(-6.55 -9.347)"></path><path class="f" d="M25.749,25.23a4.276,4.276,0,0,1-.172,1.014c-.1.552-.228,1.11-.345,1.662H25.19c.179-.883.352-1.766.531-2.648C25.749,25.244,25.749,25.237,25.749,25.23Z" transform="translate(-6.86 -7.79)"></path><path class="g" d="M24.065,34.46,23.81,35.8h0A6.055,6.055,0,0,1,24.065,34.46Z" transform="translate(-6.432 -10.654)"></path><path class="h" d="M25.131,29.11h.041a4.966,4.966,0,0,1-.172.834V29.9a4.925,4.925,0,0,1,.131-.786Z" transform="translate(-6.801 -8.994)"></path><path class="i" d="M26.395,23.08a2.883,2.883,0,0,1-.145.69,1.614,1.614,0,0,1,.145-.69Z" transform="translate(-7.189 -7.122)"></path><path class="j" d="M23.727,36.47a5.469,5.469,0,0,1-.159.69A1.138,1.138,0,0,1,23.727,36.47Z" transform="translate(-6.355 -11.278)"></path><path class="k" d="M22.625,41.94a2.228,2.228,0,0,1-.117.566.945.945,0,0,1,.117-.566Z" transform="translate(-6.026 -12.975)"></path><path class="k" d="M22.467,42.75a1.041,1.041,0,0,1-.09.434A.69.69,0,0,1,22.467,42.75Z" transform="translate(-5.986 -13.227)"></path><path class="c" d="M26.919,20.68a.3.3,0,0,1-.041.221C26.885,20.825,26.843,20.742,26.919,20.68Z" transform="translate(-7.382 -6.378)"></path><path class="c" d="M26.859,21a.3.3,0,0,1-.041.214C26.825,21.138,26.783,21.055,26.859,21Z" transform="translate(-7.364 -6.477)"></path></g></svg>