<svg xmlns="http://www.w3.org/2000/svg" xmlns:xlink="http://www.w3.org/1999/xlink" viewBox="0 0 776 437"><defs><style>.cls-1{fill:#fff;}.cls-2{opacity:0.1;fill:url(#linear-gradient);}.cls-3{fill:#0c7ff2;}.cls-4{font-size:47.34px;fill:#cee0f2;font-family:Rubik-Bold, Rubik;font-weight:700;}</style><linearGradient id="linear-gradient" x1="211.61" y1="224" x2="558.39" y2="224" gradientUnits="userSpaceOnUse"><stop offset="0" stop-color="#6b7e8f"></stop><stop offset="1" stop-color="#b6c6d6"></stop></linearGradient></defs><g id="Layer_2" data-name="Layer 2"><g id="Layer_1-2" data-name="Layer 1"><rect class="cls-1" width="776" height="437"></rect><circle class="cls-2" cx="385" cy="224" r="173.39"></circle><circle class="cls-3" cx="385" cy="224" r="97.5"></circle><text class="cls-4" transform="translate(342.08 242.52)">API</text><circle class="cls-3" cx="496.5" cy="91.5" r="26.5"></circle><circle class="cls-3" cx="488.5" cy="355.5" r="26.5"></circle><circle class="cls-3" cx="560.5" cy="223.5" r="26.5"></circle><circle class="cls-3" cx="216.5" cy="223.5" r="26.5"></circle><circle class="cls-3" cx="278.5" cy="91.5" r="26.5"></circle><circle class="cls-3" cx="283.5" cy="364.5" r="26.5"></circle><rect class="cls-3" x="474" y="220" width="85" height="11"></rect><rect class="cls-3" x="415" y="126" width="85" height="11" transform="translate(41.01 362.02) rotate(-45)"></rect><rect class="cls-3" x="272" y="123" width="85" height="11" transform="translate(446.02 441.75) rotate(-135)"></rect><rect class="cls-3" x="216.99" y="217.01" width="85.01" height="11" transform="translate(519.05 444.97) rotate(179.99)"></rect><rect class="cls-3" x="266.99" y="327.02" width="85.02" height="11" transform="translate(763.75 336.75) rotate(133.48)"></rect><rect class="cls-3" x="415.99" y="321.02" width="85.02" height="11" transform="translate(566.49 878.93) rotate(-136.52)"></rect></g></g></svg>