<svg xmlns="http://www.w3.org/2000/svg" viewBox="0 0 1024 1024"><defs><style>.cls-1{isolation:isolate;}.cls-2{fill:#cee0f2;}.cls-3{fill:#2e2e76;}.cls-4{fill:#e7e9f2;stroke-miterlimit:10;}.cls-4,.cls-5{stroke:#031439;stroke-width:1.14px;}.cls-5{fill:#fff;stroke-linecap:round;stroke-linejoin:round;}.cls-6{fill:#0c7ff2;}.cls-7{fill:#24313e;mix-blend-mode:multiply;opacity:0.47;}.cls-10,.cls-8,.cls-9{fill:#ebf0f5;mix-blend-mode:overlay;}.cls-8{opacity:0.5;}.cls-9{opacity:0.3;}.cls-10{opacity:0.98;}.cls-11{fill:none;}</style></defs><g class="cls-1"><g id="Layer_2" data-name="Layer 2"><g id="Layer_1-2" data-name="Layer 1"><path class="cls-2" d="M553.1,224.71l.67,19.27c-14.82-3-30.7-2.73-46.21-2.73a224.63,224.63,0,0,0-33.6,2.5v-19Z"></path><path class="cls-2" d="M543.74,224.71v20.94a180.63,180.63,0,0,0-40.15-4.4,175.13,175.13,0,0,0-29.63,2.5v-19Z"></path><path class="cls-3" d="M172.71,577.32C175.37,400.85,316,252.92,492.12,241.94c198.54-12.37,363.35,144.92,363.35,340.65,0,175.07-131.57,319.23-301.29,339A321.88,321.88,0,0,1,514,924a328.9,328.9,0,0,1-54.43-4.39C295.2,893.35,170.12,749.75,172.71,577.32Z"></path><circle class="cls-4" cx="514.1" cy="582.66" r="268.75" transform="translate(-261.43 534.18) rotate(-45)"></circle><path class="cls-5" d="M638.47,555.67l-.18.28L502.55,791a1.88,1.88,0,0,1-3.48-1.28l30.28-163-107.3.73-47.55.36,32.1-55.56L508,396.77a2.75,2.75,0,0,1,5.09,1.88l-29.35,158,47.46-.27Z"></path><path class="cls-6" d="M638.47,555.67l-.18.28L504.42,787.73a2.46,2.46,0,0,1-1.47,1.18,2.64,2.64,0,0,1-2-.28,2.44,2.44,0,0,1-1.18-2.62l1.63-8.74,28-150.58-107.3.73-47.55.36,32.09-55.56,99.89-172.87,2.16-3.73a2.53,2.53,0,0,1,4.67,1.72l-29.6,159.34,47.46-.28Z"></path><rect class="cls-3" x="364.41" y="174.37" width="301.52" height="50.34" rx="1.93" transform="translate(1030.33 399.08) rotate(-180)"></rect><rect class="cls-2" x="391.85" y="178.08" width="12.33" height="42.92" rx="0.52"></rect><rect class="cls-2" x="421.64" y="178.08" width="12.33" height="42.92" rx="0.52"></rect><rect class="cls-2" x="451.42" y="178.08" width="12.33" height="42.92" rx="0.52"></rect><rect class="cls-2" x="481.2" y="178.08" width="12.33" height="42.92" rx="0.52"></rect><rect class="cls-2" x="510.98" y="178.08" width="12.33" height="42.92" rx="0.52"></rect><rect class="cls-2" x="540.77" y="178.08" width="12.33" height="42.92" rx="0.52"></rect><rect class="cls-2" x="570.55" y="178.08" width="12.33" height="42.92" rx="0.52"></rect><rect class="cls-2" x="600.33" y="178.08" width="12.33" height="42.92" rx="0.52"></rect><rect class="cls-2" x="630.11" y="178.08" width="12.33" height="42.92" rx="0.52"></rect><rect class="cls-7" x="363.16" y="217.16" width="302.55" height="5.98"></rect><rect class="cls-8" x="363.49" y="174.27" width="302.55" height="5.98"></rect><polygon class="cls-9" points="539.7 618.46 502.95 788.91 500.46 800.46 500.93 788.63 501.38 777.27 529.35 626.69 422.06 627.42 374.5 627.78 406.6 572.22 506.48 399.35 506.48 407.18 393.42 613.8 539.7 618.46"></polygon><polygon class="cls-9" points="629.47 556.62 498.95 797.22 638.29 555.95 629.47 556.62"></polygon><path class="cls-10" d="M855.47,582.59c0,1.82,0,3.64-.05,5.45-3.25-193-166.75-347-363.3-334.79-176,11-316.5,158.65-319.4,334.92-.06-3.6-.06-7.21,0-10.85C175.37,400.85,316,252.92,492.12,241.94,690.66,229.57,855.47,386.86,855.47,582.59Z"></path><rect class="cls-11" width="1024" height="1024"></rect></g></g></g></svg>