<svg xmlns="http://www.w3.org/2000/svg" width="301.32" height="109.5" viewBox="0 0 301.32 109.5"><g transform="translate(-1497.056 -755)"><g transform="translate(1363.796 225.429)"><circle cx="23.5" cy="23.5" r="23.5" transform="translate(324 592.071)" fill="#455666"></circle><g transform="translate(331.862 599.625)"><rect width="30" height="30" transform="translate(0.138 0.447)" fill="#ff1e1e" opacity="0"></rect><path d="M17.422,20.389h6.816a3.438,3.438,0,0,0,3.391-3.471V10.5a3.775,3.775,0,0,0-3.4-3.506,21.616,21.616,0,0,0-3.55-.276,19.4,19.4,0,0,0-3.227.276c-2.887.5-3.377,1.56-3.377,3.506V13H20.85v.924h-9.4a4.25,4.25,0,0,0-4.263,3.421,12.349,12.349,0,0,0,0,6.823c.485,2,1.643,3.388,3.626,3.388h2.325V24.536a4.294,4.294,0,0,1,4.284-4.147Zm-.429-9.037a1.285,1.285,0,1,1,1.28-1.281A1.281,1.281,0,0,1,16.993,11.353Zm17.48,5.988c-.491-1.951-1.427-3.421-3.412-3.421h-2.5v3a4.309,4.309,0,0,1-4.325,4.163H17.422a3.507,3.507,0,0,0-3.348,3.541v6.423c0,1.828,1.577,2.9,3.38,3.427a11.444,11.444,0,0,0,6.789,0c1.717-.491,3.386-1.481,3.386-3.427v-2.57H20.85v-.924h10.21c1.982,0,2.723-1.334,3.412-3.388a11.351,11.351,0,0,0,0-6.823ZM24.667,30.189a1.285,1.285,0,1,1-1.28,1.281,1.281,1.281,0,0,1,1.28-1.281Z" transform="translate(-5.644 -5.751)" fill="#fff"></path></g></g><g transform="translate(1109.34 225.429)"><circle cx="23.5" cy="23.5" r="23.5" transform="translate(642 592.071)" fill="#455666"></circle><g transform="translate(652.12 601.85)"><rect width="25.169" height="25.169" transform="translate(-0.233 0.447)" fill="#ff1e1e" opacity="0"></rect><path d="M13.459,28.849,30,31.077,24.4,21.891,13.459,28.849Zm18.1-17.2q-.732,1.087-1.465,2.172-2.515,3.73-5.025,7.461c-.094.139-.215.248-.083.461q2.427,3.954,4.832,7.919a10.611,10.611,0,0,0,.838,1.233q.489-9.612.976-19.226l-.072-.02ZM9.479,19.87a.4.4,0,0,0,.353.07c1.552-.753,3.114-1.488,4.631-2.3a7.281,7.281,0,0,0,1.3-1.128Q17.883,14.594,20,12.672a1.008,1.008,0,0,0,.239-.254c.507-.976,1-1.957,1.518-2.966-.613-.228-1.2-.45-1.785-.652a.433.433,0,0,0-.292.075c-1.364.751-2.755,1.463-4.076,2.283A13.487,13.487,0,0,0,13.817,12.7c-.943.85-1.886,1.7-2.815,2.565a4.744,4.744,0,0,0-.664.767c-.635.913-1.252,1.838-1.9,2.791.36.368.688.719,1.038,1.047Zm5.671-1.248c-.771,3.216-1.539,6.415-2.331,9.718l10.957-6.965-8.626-2.753Zm15.464-6.937L21.3,13.22c1.058,2.537,2.095,5.025,3.161,7.583l6.153-9.117ZM15.281,17.963l8.452,2.708-3.126-7.512-5.326,4.8ZM9.6,21.746c-1,2.365-1.972,4.651-2.958,6.976l5.635-.163ZM12.34,26.94l.07-.015c.676-2.775,1.363-5.531,2.053-8.415L9.942,20.828c.771,1.976,1.593,4.061,2.4,6.112ZM29.477,11.235q-1.348-.353-2.7-.7c-1.293-.336-2.589-.668-3.882-1.006-.162-.043-.278-.07-.373.121-.458.924-.928,1.841-1.393,2.761a.676.676,0,0,0-.021.137l8.368-1.25v-.058Zm-5.22-2.1,7.334,2c-.42-1.182-.81-2.278-1.211-3.407L24.268,9.066Zm-11.3,20.248a21.641,21.641,0,0,0-2.761.008c-.757.014-1.515.042-2.271.064a.3.3,0,0,0-.234.1l18.768,1.712.013-.082-6.016-.81c-2.5-.336-4.994-.707-7.5-.992Zm-6.2-2.789q1.21-2.769,2.418-5.536A.346.346,0,0,0,9.1,20.6c-.339-.319-.654-.661-1.023-1.04L6.6,26.746l.054.025A1.188,1.188,0,0,0,6.761,26.593ZM22.651,8.646c1.359-.345,2.738-.616,4.11-.918.088-.019.174-.048.263-.073l-.014-.066-5.891.781a2.226,2.226,0,0,0,1.532.276Z" transform="translate(-6.634 -6.664)" fill="#fff"></path></g></g><g transform="translate(1310.796 162.929)"><circle cx="23.5" cy="23.5" r="23.5" transform="translate(377 592.071)" fill="#455666"></circle><g transform="translate(386.183 599.625)"><rect width="30" height="30" transform="translate(-0.183 0.447)" fill="#ff1e1e" opacity="0"></rect><path d="M67.011,15.207A6.475,6.475,0,0,1,70.1,9.758a6.683,6.683,0,0,0-5.233-2.836c-2.229-.226-4.349,1.312-5.48,1.312s-2.874-1.279-4.722-1.245a7,7,0,0,0-5.92,3.588C46.222,14.956,48.1,21.444,50.56,25c1.2,1.739,2.635,3.691,4.517,3.622,1.812-.072,2.5-1.173,4.689-1.173s2.807,1.173,4.725,1.137c1.95-.036,3.186-1.772,4.379-3.516A15.775,15.775,0,0,0,70.851,21a6.321,6.321,0,0,1-3.84-5.789ZM63.408,4.57A6.307,6.307,0,0,0,64.9,0a6.416,6.416,0,0,0-4.215,2.167A6,6,0,0,0,59.162,6.6,5.308,5.308,0,0,0,63.408,4.57Z" transform="translate(-44.471 0.797)" fill="#fff"></path></g></g><g transform="translate(1332.056 225.429)"><circle cx="23.5" cy="23.5" r="23.5" transform="translate(165 592.071)" fill="#455666"></circle><g transform="translate(172.936 599.625)"><rect width="30" height="30" transform="translate(0.064 0.447)" fill="#ff1e1e" opacity="0"></rect><path d="M0,3.517,10.121,2.139l0,9.763L.009,11.959Zm10.116,9.509.008,9.771L.008,21.407V12.961ZM11.343,1.959,24.763,0V11.777l-13.42.107Zm13.423,11.16,0,11.724-13.42-1.894L11.324,13.1Z" transform="translate(2.81 2.808)" fill="#fff"></path></g></g><g transform="translate(1024.636 162.929)"><circle cx="23.5" cy="23.5" r="23.5" transform="translate(536 592.071)" fill="#455666"></circle><g transform="translate(544.699 599.815)"><rect width="30" height="30" transform="translate(-0.109 0.447)" fill="#ff1e1e" opacity="0"></rect><path d="M16.117,16.1H21.69L18.728,9.906Zm2.62-15.074L4.553,6.018,6.794,24.6l11.958,6.572,12.02-6.661L33.013,5.93ZM14.963,18.733l-1.739,4.351L9.974,23.1,18.736,3.689l-.017-.037H18.7V3.621l.015.032h.034l.029-.066v.066h-.03l-.017.037,9.141,19.489-3.13-.069-1.925-4.448-4.111.02" transform="translate(-3.676 -0.961)" fill="#fff"></path></g></g><g transform="translate(1067.056 162.929)"><circle cx="23.5" cy="23.5" r="23.5" transform="translate(430 592.071)" fill="#455666"></circle><g transform="translate(438.986 599.625)"><rect width="30" height="30" transform="translate(0.014 0.447)" fill="#ff1e1e" opacity="0"></rect><path d="M15.432,13.792a1.767,1.767,0,0,0-1.766,1.767v7.4a1.766,1.766,0,1,0,3.533,0v-7.4a1.768,1.768,0,0,0-1.768-1.766M29.676,7.15,30.909,4.9a.245.245,0,1,0-.429-.236L29.235,6.937a8.607,8.607,0,0,0-6.914,0L21.074,4.665a.244.244,0,1,0-.429.234l1.233,2.25a7.213,7.213,0,0,0-4.059,6.362l15.911,0A7.217,7.217,0,0,0,29.676,7.15m-7.521,3.479a.667.667,0,1,1,.669-.667.667.667,0,0,1-.669.667m7.245,0a.666.666,0,1,1,.471-.2.667.667,0,0,1-.471.2m-11.515,3.5,0,11.463a1.882,1.882,0,0,0,1.885,1.884h1.283v3.914a1.766,1.766,0,1,0,3.532,0V27.473h2.385v3.914a1.766,1.766,0,1,0,3.533,0V27.472h1.288a1.885,1.885,0,0,0,1.886-1.885l0-11.463-15.792,0Zm20.005,1.43a1.766,1.766,0,1,0-3.532,0v7.4a1.766,1.766,0,1,0,3.532,0Z" transform="translate(-10.672 -3.737)" fill="#fff"></path></g></g><g transform="translate(1502.6 225.429)"><circle cx="23.5" cy="23.5" r="23.5" transform="translate(59 592.071)" fill="#455666"></circle><g transform="translate(67.553 599.625)"><rect width="30" height="30" transform="translate(0.447 0.447)" fill="#ff1e1e" opacity="0"></rect><path d="M34.03,9.806,23.719,3.819a2.223,2.223,0,0,0-2.152,0L11.146,9.806A2.24,2.24,0,0,0,10,11.693V23.651a2.259,2.259,0,0,0,1.158,1.89l2.753,1.564a4.416,4.416,0,0,0,2.38.648c1.948,0,3.061-1.178,3.061-3.233V12.714c0-.167-.087-.415-.25-.415H17.788c-.166,0-.539.248-.539.415V24.52c0,.911-.824,1.817-2.364,1.048l-2.845-1.64a.323.323,0,0,1-.169-.276V11.693c0-.113.13-.226.23-.284L22.487,5.433a.364.364,0,0,1,.336,0l10.26,5.975c.1.059.064.169.064.285V23.651c0,.114.043.225-.054.28l-10.308,5.98a.293.293,0,0,1-.295,0l-2.644-1.578a.255.255,0,0,0-.251-.02,6.881,6.881,0,0,1-1.561.712c-.17.059-.42.162.1.451l3.46,2.047a2.181,2.181,0,0,0,2.178,0L34.03,25.541a2.107,2.107,0,0,0,.989-1.89V11.693a2.1,2.1,0,0,0-.989-1.888ZM25.879,21.756c-2.742,0-3.346-.756-3.547-2.12-.023-.147-.148-.322-.3-.322h-1.34c-.166,0-.3.2-.3.366,0,1.746.949,3.861,5.484,3.861,3.283,0,5.165-1.275,5.165-3.533,0-2.238-1.512-2.825-4.7-3.247-3.218-.425-3.545-.64-3.545-1.394,0-.621.277-1.45,2.659-1.45,2.129,0,2.914.457,3.237,1.892a.3.3,0,0,0,.29.232h1.345a.308.308,0,0,0,.22-.093.3.3,0,0,0,.078-.229c-.208-2.471-1.85-3.623-5.17-3.623-2.953,0-4.715,1.247-4.715,3.338,0,2.268,1.753,2.894,4.588,3.175,3.392.332,3.655.828,3.655,1.5,0,1.159-.93,1.652-3.112,1.652Z" transform="translate(-6.777 -2.398)" fill="#fff" stroke="#fff" stroke-width="0.3"></path></g></g><g transform="translate(1533.376 162.929)"><circle cx="23.5" cy="23.5" r="23.5" transform="translate(218 592.071)" fill="#455666"></circle><g transform="translate(225.739 599.625)"><rect width="30" height="30" transform="translate(0.261 0.447)" fill="#ff1e1e" opacity="0"></rect><path d="M48.094,61.5s-1.08.628.77.841a16.187,16.187,0,0,0,5.854-.248,10.274,10.274,0,0,0,1.557.759C50.739,65.221,43.747,62.712,48.094,61.5Zm-.677-3.1s-1.211.9.639,1.089a22.841,22.841,0,0,0,7.555-.363,3.334,3.334,0,0,0,1.163.709C50.083,61.795,42.63,59.991,47.417,58.4Z" transform="translate(-36.698 -38.669)" fill="#fff" stroke="#fff" stroke-width="0.3"></path><path d="M65.312,26.622a2.071,2.071,0,0,1-.358,2.983s3.463-1.788,1.873-4.027c-1.486-2.087-2.624-3.124,3.541-6.7C70.368,18.879,60.69,21.3,65.312,26.622Z" transform="translate(-48.891 -12.141)" fill="#fff" stroke="#fff" stroke-width="0.3"></path><path d="M51.217,56.682s.8.659-.88,1.169c-3.194.968-13.3,1.26-16.1.038-1.008-.439.883-1.048,1.478-1.176a3.853,3.853,0,0,1,.975-.11c-1.122-.79-7.251,1.551-3.113,2.223C44.859,60.656,54.144,58,51.217,56.682ZM39.391,48.09s-5.138,1.221-1.819,1.665a38.62,38.62,0,0,0,6.8-.074c2.127-.179,4.261-.56,4.261-.56a9.079,9.079,0,0,0-1.292.692c-5.219,1.373-15.3.733-12.4-.67A9.71,9.71,0,0,1,39.391,48.09Zm9.218,5.152c5.3-2.756,2.852-5.4,1.14-5.048a4.03,4.03,0,0,0-.607.163.965.965,0,0,1,.453-.349c3.387-1.19,5.991,3.512-1.092,5.374A.468.468,0,0,0,48.61,53.242Z" transform="translate(-27.476 -31.565)" fill="#fff" stroke="#fff" stroke-width="0.3"></path><path d="M59.13,1.313s2.938,2.939-2.787,7.457c-4.59,3.625-1.047,5.692,0,8.054-2.68-2.418-4.645-4.546-3.327-6.527,1.936-2.907,7.3-4.317,6.115-8.985Z" transform="translate(-41.195 -0.35)" fill="#fff" stroke="#fff" stroke-width="0.3"></path><path d="M47.588,81.751c5.091.325,12.911-.181,13.1-2.59,0,0-.356.913-4.208,1.638a41.84,41.84,0,0,1-12.885.2S44.242,81.536,47.588,81.751Z" transform="translate(-35.151 -52.604)" fill="#fff" stroke="#fff" stroke-width="0.3"></path></g></g><g transform="translate(1355.145 225.429)"><circle cx="23.5" cy="23.5" r="23.5" transform="translate(271 592.071)" fill="#455666"></circle><g transform="translate(279.393 600.124)"><rect width="30" height="30" transform="translate(0.199 0.447)" fill="#ff1e1e" opacity="0"></rect><path d="M18.013,33.039c-8.343,0-15.107,3.428-15.107,7.656S9.67,48.35,18.013,48.35s15.107-3.428,15.107-7.656S26.356,33.039,18.013,33.039Zm-3.931,9.147a2.953,2.953,0,0,1-1.2.62,5.918,5.918,0,0,1-1.684.114H9.65l-.429,2.473H7.416l1.611-8.407H12.5a2.893,2.893,0,0,1,2.285.849,2.608,2.608,0,0,1,.432,2.309,3.636,3.636,0,0,1-1.134,2.043Zm5.27.734.712-3.566a1.057,1.057,0,0,0-.089-.879,1.243,1.243,0,0,0-.9-.253H17.644l-.923,4.7H14.93l1.611-8.16h1.791L17.9,36.986h1.6a3.091,3.091,0,0,1,2.078.552,1.572,1.572,0,0,1,.343,1.614l-.749,3.769Zm9.955-2.764a3.6,3.6,0,0,1-1.133,2.03,2.955,2.955,0,0,1-1.2.62,5.919,5.919,0,0,1-1.684.114H23.741l-.428,2.473H21.507l1.611-8.407H26.59a2.892,2.892,0,0,1,2.285.849A2.638,2.638,0,0,1,29.306,40.156Zm-3.4-1.934H24.669l-.674,3.462h1.1a2.681,2.681,0,0,0,1.626-.346A2.093,2.093,0,0,0,27.44,40a1.611,1.611,0,0,0-.163-1.35A1.833,1.833,0,0,0,25.905,38.222Zm-14.091,0H10.578L9.9,41.684H11a2.682,2.682,0,0,0,1.626-.346A2.093,2.093,0,0,0,13.349,40a1.611,1.611,0,0,0-.163-1.35A1.832,1.832,0,0,0,11.815,38.222Z" transform="translate(-2.906 -25.162)" fill="#fff"></path></g></g><g transform="translate(1141.216 162.929)"><circle cx="23.5" cy="23.5" r="23.5" transform="translate(483 592.071)" fill="#455666"></circle><g transform="translate(492.048 599.625)"><rect width="30" height="30" transform="translate(-0.048 0.447)" fill="#ff1e1e" opacity="0"></rect><path d="M1.479,172.18c.042.864.906.461,1.291.193.369-.26.478-.042.511-.545a7.945,7.945,0,0,0,.042-1,2.434,2.434,0,0,0-1.627.419c-.243.168-.679.721-.218.931M18.694,182.8c.662.411,1.878,1.652.88,2.256-.956.872-1.493-.964-2.331-1.216A2.266,2.266,0,0,1,18.694,182.8ZM6.837,184.2c-.78.117-1.216.822-1.87,1.182-.612.361-.847-.117-.9-.218-.092-.042-.084.042-.235-.109-.57-.9.587-1.551,1.191-2C5.864,182.889,6.393,183.618,6.837,184.2Zm15.538-12.125c-.042.864-.906.461-1.291.193-.369-.26-.478-.042-.511-.545a7.914,7.914,0,0,1-.042-1,2.434,2.434,0,0,1,1.627.419c.235.168.679.721.218.931" transform="translate(3.176 -155.373)" fill="#fff"></path><path d="M26.624,6.476c2.994-1.057.654-5.157-1.954-3.346C22.959,1.662,20.6,1.394,18.129,1.394c-2.423.193-4.729.637-6.339,2.046-2.6-1.677-5,2.348-1.946,3.363-.855,3.321.117,6.708-.017,10.088-.126,3.036-.922,7.1.763,9.828,1.434,2.331,4.52,3.161,7.061,3.254,3.245.117,7.178-.679,8.754-3.824,1.509-2.994,1.09-6.725.9-9.954-.193-3.262.168-6.574-.679-9.719Z" transform="translate(-3.362 -0.309)" fill="#fff"></path><path d="M21.807,15.4a1.4,1.4,0,0,0-.394-.486,2.542,2.542,0,0,0-1.392-.444c-.017-.52-.034-1.09-.034-1.811v-.654a38.126,38.126,0,0,0-.151-4.1A16.6,16.6,0,0,0,19.4,5.424a2.02,2.02,0,0,0,1.3-1.241,2.016,2.016,0,0,0-.2-1.6,2.11,2.11,0,0,0-3.145-.663A6.4,6.4,0,0,0,15.476.837,13.325,13.325,0,0,0,10.805.2V.284L10.8.2A13.648,13.648,0,0,0,5.841,1.324a6.161,6.161,0,0,0-1.384.906A2.217,2.217,0,0,0,2.6,1.936,2.288,2.288,0,0,0,1.279,3.009a1.907,1.907,0,0,0-.159,1.6,2.057,2.057,0,0,0,1.3,1.14,12.137,12.137,0,0,0-.335,2.734,30.694,30.694,0,0,0,.176,3.48c.109,1.3.151,1.9.168,2.616a2.51,2.51,0,0,0-1.568.436,1.25,1.25,0,0,0-.394.486.4.4,0,0,0,.151.57c.034.4.26.587.6.553a1.833,1.833,0,0,0,.813-.344.944.944,0,0,1,.176-.1c.025-.008.042-.017.067-.025,0,0,.05-.017.067-.025a.169.169,0,0,0,.067-.034c-.017.394-.05.805-.126,1.744C2.2,18.9,2.16,19.478,2.143,20.124A9.644,9.644,0,0,0,3.208,25.65a5.453,5.453,0,0,0,.981,1.174c-.076.05-.394.285-.495.361a2.668,2.668,0,0,0-.738.746.918.918,0,0,0,.025,1l.008.008L3,28.945c.092.092.143.117.21.117h.025c.008.017.017.025.025.042a1.217,1.217,0,0,0,.075.109.636.636,0,0,0,.9.067,3.689,3.689,0,0,0,.679-.5l.017-.017a2.2,2.2,0,0,1,1.14-.654l.134-.025c.05.025.1.042.159.067a11.972,11.972,0,0,0,3.975.788,13.455,13.455,0,0,0,5.031-.7,8.978,8.978,0,0,0,1.115-.495,2.1,2.1,0,0,1,.755.671.089.089,0,0,1,.025.034c.017.017.017.025.025.034.017.025.042.042.059.067a1.923,1.923,0,0,0,.671.579.726.726,0,0,0,.822-.193c.486-.3.52-.771.2-1.308a3.59,3.59,0,0,0-.989-1.023,5.8,5.8,0,0,0,1.107-1.518,12.683,12.683,0,0,0,1.1-5.9c-.008-.855-.042-1.6-.134-3.027v-.042a.5.5,0,0,1,.126.075,1.934,1.934,0,0,0,.813.344c.344.034.57-.151.6-.553a.417.417,0,0,0,.143-.579ZM19.14,1.726a2.011,2.011,0,0,1,1.208.956,1.833,1.833,0,0,1,.193,1.467A1.834,1.834,0,0,1,19.35,5.273a13.641,13.641,0,0,0-.444-1.325.616.616,0,0,0,.168-.838.66.66,0,0,0-.872-.3,6.266,6.266,0,0,0-.713-.771,2.041,2.041,0,0,1,1.652-.31ZM1.263,4.56A1.71,1.71,0,0,1,1.414,3.1a2.11,2.11,0,0,1,1.224-.989,2.085,2.085,0,0,1,1.685.252,5.517,5.517,0,0,0-.872,1c-.436-.226-.88-.268-1.132.193-.26.495.042.805.47,1.04-.059.143-.117.294-.168.444-.059.184-.117.377-.168.57A1.929,1.929,0,0,1,1.263,4.56ZM2.277,15.99c-.008,0-.059.017-.059.025a.3.3,0,0,0-.075.034.836.836,0,0,0-.2.117,1.628,1.628,0,0,1-.738.31C.952,16.5.81,16.392.785,16.09a.514.514,0,0,0,.319-.2l-.134-.1c-.05.067-.1.092-.252.143-.008,0-.008,0-.017.008-.134-.076-.159-.193-.084-.361a1.2,1.2,0,0,1,.344-.419,2.288,2.288,0,0,1,1.476-.4c0,.21.008.419,0,.62a.184.184,0,0,1-.008.067c-.008.117-.008.168-.017.226-.025.243-.042.277-.134.319ZM4.81,28.643l-.017.017a3.727,3.727,0,0,1-.654.486c-.319.193-.537.151-.688-.034a.511.511,0,0,1-.059-.084C3.384,29.021,3.376,29,3.367,29v-.008a1.114,1.114,0,0,1,.226-.495c.008-.008.008-.008.008-.017a1.8,1.8,0,0,0,.176-.3l-.151-.067a2.279,2.279,0,0,1-.159.277c-.008.008-.008.008-.008.017a1.39,1.39,0,0,0-.252.5H3.174a.3.3,0,0,1-.075-.059c-.327-.52-.067-.964.671-1.518.092-.067.4-.285.486-.352a.119.119,0,0,0,.05-.017,7.043,7.043,0,0,0,1.568,1c0,.008.008.017.017.025a2.574,2.574,0,0,0-1.082.662Zm14.079-.914c.26.436.252.788-.076,1.031-.025-.05-.042-.109-.075-.193,0-.008,0-.008-.008-.017a1.523,1.523,0,0,0-.335-.6l-.117.117a1.324,1.324,0,0,1,.3.537c0,.008,0,.008.008.017.042.109.067.176.092.235a.534.534,0,0,1-.612.126,1.961,1.961,0,0,1-.612-.537.468.468,0,0,1-.05-.067.117.117,0,0,1-.025-.034.089.089,0,0,1-.025-.034,2.787,2.787,0,0,0-.7-.663,6.716,6.716,0,0,0,1.266-.922,3.92,3.92,0,0,1,.964,1.006Zm.117-2.717A6.343,6.343,0,0,1,15.3,28.107a13.34,13.34,0,0,1-4.973.679C7.25,28.677,4.583,27.6,3.334,25.574a9.465,9.465,0,0,1-1.04-5.434c.025-.646.059-1.224.143-2.281.092-1.191.117-1.535.143-2.071.017-.386.017-.78.008-1.2-.017-.738-.059-1.325-.168-2.641a30.546,30.546,0,0,1-.176-3.463,11.24,11.24,0,0,1,.545-3.413,5.917,5.917,0,0,1,3.128-3.6A13.415,13.415,0,0,1,10.805.368,13.183,13.183,0,0,1,15.417,1a5.894,5.894,0,0,1,3.329,2.969,14.059,14.059,0,0,1,.922,3.949A37.768,37.768,0,0,1,19.82,12v.654c.008,1.015.025,1.727.067,2.44.017.277.025.394.067,1.057.092,1.426.126,2.163.134,3.019a12.5,12.5,0,0,1-1.082,5.845Zm2.566-9.182c-.008,0-.017-.008-.025-.008a.479.479,0,0,1-.252-.143l-.134.1a.568.568,0,0,0,.319.2c-.034.3-.176.411-.419.386a1.727,1.727,0,0,1-.738-.31,1.252,1.252,0,0,0-.2-.117c-.008,0-.017-.008-.025-.008-.034-.461-.034-.579-.05-.822l-.025-.453a2.247,2.247,0,0,1,1.283.411,1.2,1.2,0,0,1,.344.419c.084.143.067.268-.076.344Z" transform="translate(3.971 0.785)"></path><path d="M112.507,100.785a7.227,7.227,0,0,1,.017,1.35c-.117.218-.335.243-.528.327a.79.79,0,0,1-.6-.47,8.259,8.259,0,0,1,.042-1.509,1.923,1.923,0,0,1,.6.092A2.026,2.026,0,0,1,112.507,100.785Zm-2.373.034c-.235.889.31,2.34,1.208,1.149a7.973,7.973,0,0,1,.034-1.484A5.954,5.954,0,0,0,110.134,100.819Z" transform="translate(-96.469 -91.053)" fill="#f5f7f9"></path><path d="M111.584,98.587c-.017-.252-.025-.352-.025-.478v-.059l-.059-.017-1.057-.327v-.059l-.109.025h-.008v.008l-1.191.3-.042.008-.017.042a1.932,1.932,0,0,0,.092,1.526c.268.47.7.478,1.149-.059a.858.858,0,0,0,.629.453h.025l.025-.008c.034-.017.067-.025.126-.05.008,0,.008,0,.017-.008a.623.623,0,0,0,.428-.31l.008-.008v-.017a2.962,2.962,0,0,0,.033-.486C111.609,98.939,111.6,98.822,111.584,98.587Zm-1.342-.31c-.008.151-.017.21-.025.293a4.71,4.71,0,0,0,.008.78c-.394.5-.7.5-.914.126a1.767,1.767,0,0,1-.092-1.342l1.057-.268C110.268,97.975,110.259,98.084,110.243,98.277Zm1.174,1.241c-.059.1-.134.151-.335.218-.008,0-.008,0-.017.008-.05.017-.084.034-.109.042a.7.7,0,0,1-.511-.4,4.609,4.609,0,0,1-.008-.771c.008-.084.008-.143.025-.294.017-.193.025-.31.025-.419l.914.277c0,.109.008.21.025.428s.025.344.025.478A2.368,2.368,0,0,1,111.417,99.518Z" transform="translate(-95.445 -88.461)"></path><path d="M1.6,4.442c.771,3,5.576,2.23,5.392-.78C6.771.056.859.752,1.6,4.442" transform="translate(7.02 1.637)" fill="#f5f7f9"></path><path d="M6.251,2.735A2.455,2.455,0,0,0,5.178.756,3.059,3.059,0,0,0,3.107.311a3.005,3.005,0,0,0-1.887.964A2.562,2.562,0,0,0,.7,3.523l.075-.017L.7,3.523C1.488,6.609,6.436,5.862,6.251,2.735Zm-5.4.772a2.4,2.4,0,0,1,.486-2.113A2.838,2.838,0,0,1,3.124.479,2.841,2.841,0,0,1,5.086.9,2.311,2.311,0,0,1,6.092,2.76C6.268,5.686,1.6,6.391.851,3.506Z" transform="translate(7.842 2.557)"></path><ellipse cx="0.813" cy="0.88" rx="0.813" ry="0.88" transform="translate(9.129 4.704)"></ellipse><ellipse cx="0.193" cy="0.226" rx="0.193" ry="0.226" transform="translate(10.119 5.559)" fill="#fff"></ellipse><path d="M1.129,4.573c.6,3.446,6.23,2.532,5.417-.939C5.817.514.928,1.378,1.129,4.573" transform="translate(14.227 0.945)" fill="#f5f7f9"></path><path d="M5.712,2.776C4.966-.436-.065.445.136,3.74v.008A2.722,2.722,0,0,0,3.465,5.937a2.994,2.994,0,0,0,1.811-1,2.42,2.42,0,0,0,.436-2.163ZM5.151,4.838a2.817,2.817,0,0,1-1.711.939A2.573,2.573,0,0,1,.3,3.723C.111.621,4.857-.21,5.561,2.809A2.26,2.26,0,0,1,5.151,4.838Z" transform="translate(15.136 1.786)"></path><ellipse cx="0.797" cy="0.88" rx="0.797" ry="0.88" transform="translate(15.943 4.487)"></ellipse><ellipse cx="0.184" cy="0.226" rx="0.184" ry="0.226" transform="translate(16.925 5.342)" fill="#fff"></ellipse><path d="M102.314,82a1.043,1.043,0,0,0-.855,1.459c.453.822,1.467-.075,2.1.008.73.017,1.325.771,1.9.134.646-.7-.277-1.392-1.006-1.694Z" transform="translate(-88.475 -74.044)" fill="#f5f7f9"></path><path d="M104.727,81.739a2.675,2.675,0,0,0-1.048-.721l-.017-.008h-.017l-2.147.084a1.13,1.13,0,0,0-.922,1.585.7.7,0,0,0,.6.394,1.854,1.854,0,0,0,.7-.143c.025-.008.059-.017.1-.034a1.661,1.661,0,0,1,.755-.159h.008a1.83,1.83,0,0,1,.688.184,2.117,2.117,0,0,0,.637.2.763.763,0,0,0,.646-.277A.775.775,0,0,0,104.727,81.739Zm-.143.989a.6.6,0,0,1-.511.226,1.834,1.834,0,0,1-.587-.185,1.956,1.956,0,0,0-.738-.2,1.817,1.817,0,0,0-.83.168c-.042.017-.075.025-.1.033-.612.21-.906.193-1.107-.176a.966.966,0,0,1,.788-1.342l2.121-.084a2.533,2.533,0,0,1,.973.671A.6.6,0,0,1,104.584,82.728Z" transform="translate(-87.659 -73.222)" fill="#231f20"></path><path d="M114.169,71.838c-.26-.956-2.44-.813-2.39.327C111.888,73.012,114.42,72.786,114.169,71.838Z" transform="translate(-98.023 -64.244)"></path></g></g></g></svg>