<svg xmlns="http://www.w3.org/2000/svg" width="164.686" height="53.642" viewBox="0 0 164.686 53.642"><defs><style>.a{fill:#fff;}</style></defs><g transform="translate(-0.078 0.106)"><path class="a" d="M27.665-.093a26.429,26.429,0,0,1,16.273,6,8.849,8.849,0,0,1,2.748,3.352,4.357,4.357,0,0,1-1.776,5.7,4.55,4.55,0,0,1-5.162-7.433c.327-.268.712-.461,1.064-.7s.436-.327.654-.494a2.413,2.413,0,0,0-.838-.377,5.371,5.371,0,0,0-2.321.059,2.623,2.623,0,0,1-2.371-.159,22.692,22.692,0,0,0-31.39,17,21.787,21.787,0,0,0,.6,10.307,4.416,4.416,0,0,1-1.056,4.533c-.922,1.006-1.223.947-1.76-.285A25.465,25.465,0,0,1,.088,26.228a26.389,26.389,0,0,1,12.3-22.055A26.5,26.5,0,0,1,27.665-.093Z" transform="translate(0)"></path><path class="a" d="M28.874,56.455a26.654,26.654,0,0,1-17.723-6.142A10.7,10.7,0,0,1,8.7,47.421a4.332,4.332,0,0,1,1.542-6.033,4.558,4.558,0,0,1,6.151,1.735,4.491,4.491,0,0,1-1.676,6.167,8.379,8.379,0,0,1-.838.385c-.4.176-.209.394,0,.427A7.3,7.3,0,0,0,16.7,50.3a3.461,3.461,0,0,1,2.581.209,22.558,22.558,0,0,0,26.077-6.05A22,22,0,0,0,50.384,24.7c-.134-.654-.36-1.29-.478-1.944a4.533,4.533,0,0,1,1.609-4.575c.511-.419.838-.4,1.081.251a48.36,48.36,0,0,1,1.944,6.05A26.756,26.756,0,0,1,32.116,56.161C30.935,56.362,29.712,56.388,28.874,56.455Z" transform="translate(-1.292 -2.918)"></path><path class="a" d="M74.589,23.2V19.911c0-.469-.1-1.047.62-1.1s1.223-.151,1.55.6c.57,1.341,1.173,2.673,1.785,4,.218.478.486.939.737,1.4a13.665,13.665,0,0,0,.771-1.324q.838-1.911,1.676-3.829a1.19,1.19,0,0,1,1.215-.838c.645,0,1.047.142,1.039.9v7.123c0,.469-.134.838-.712.838s-.687-.377-.687-.838V22.274a2.832,2.832,0,0,0-.142-.628,4.5,4.5,0,0,0-.36.612c-.469,1.056-.888,2.137-1.4,3.167-.293.6-.318,1.483-1.332,1.517s-1.089-.838-1.383-1.433c-.511-1.106-.955-2.237-1.45-3.352a2.573,2.573,0,0,0-.411-.5,3.754,3.754,0,0,0-.075.536V26.2a2.112,2.112,0,0,1-.05.9c-.134.26-.469.578-.721.578a.88.88,0,0,1-.645-.612c-.067-1.274,0-2.514,0-3.829Z" transform="translate(-12.073 -3.06)"></path><path class="a" d="M144.513,27.675c-.67.084-.938-.352-1.1-.93-.436-1.575-.838-3.159-1.316-4.734-.042-.151-.209-.268-.31-.411a1.784,1.784,0,0,0-.243.394c-.427,1.517-.838,3.042-1.257,4.558-.168.595-.335,1.131-1.173,1.123s-.98-.57-1.148-1.156c-.62-2.221-1.24-4.441-1.844-6.7-.1-.385-.352-.838.31-1.014.511-.117.964-.042,1.131.587.436,1.676.888,3.4,1.341,5.1.059.226.151.444.226.662a2.364,2.364,0,0,0,.394-.595c.411-1.4.788-2.8,1.182-4.19a3.352,3.352,0,0,1,.327-1.031,1.215,1.215,0,0,1,.838-.52,1.056,1.056,0,0,1,.779.545,24,24,0,0,1,.721,2.438c.277,1,.52,1.994.8,2.991.042.142.2.243.3.369.092-.134.235-.243.277-.385.394-1.525.771-3.059,1.165-4.592.092-.344.109-.8.344-1.006a1.533,1.533,0,0,1,1.1-.335c.536.075.31.536.218.838-.654,2.4-1.341,4.785-1.978,7.19C145.409,27.507,145.133,27.759,144.513,27.675Z" transform="translate(-22.025 -3.056)"></path><path class="a" d="M150.92,22.993V19.348c0-.587.226-.93.838-.888s.595.494.6.922,0,.612,0,.913c0,.98,0,.98,1.064.679a2.072,2.072,0,0,1,2.857,1.466,29.405,29.405,0,0,1,.184,4.709c0,.159-.52.419-.838.444-.151,0-.486-.352-.5-.57-.067-.779,0-1.575,0-2.363v-.729c-.084-1.165-.612-1.835-1.4-1.793s-1.29.7-1.341,1.852v2.556c0,.469.067,1.022-.67,1.039s-.788-.57-.788-1.131V22.993Z" transform="translate(-24.443 -3.008)"></path><path class="a" d="M190.728,25.407v.913a3.637,3.637,0,0,1-.243,1.55c-.151.218-.838,0-1.332.084s-.687.243-1.039.293a2.371,2.371,0,0,1-2.924-2c-.1-1.416.955-2.38,2.6-2.355.243,0,.478.067.721.059a7.257,7.257,0,0,0,.729-.1,2.339,2.339,0,0,0-.293-.838,1.76,1.76,0,0,0-2.187-.218c-.461.209-.838.209-1.031-.3s.26-.779.662-.838a7.717,7.717,0,0,1,2.128-.293,2.179,2.179,0,0,1,2.2,2.212c.05.6,0,1.215,0,1.818Zm-2.363,1.676c.2-.243.712-.6.838-1.073s-.5-1.089-1.324-1.056-1.215.411-1.223,1.022.662,1.19,1.726,1.14Z" transform="translate(-29.995 -3.478)"></path><path class="a" d="M93.137,25.476V26.75c0,1.249,0,1.232-1.265,1.249-.344,0-.7.184-1.039.176A6.754,6.754,0,0,1,88.9,27.99a1.894,1.894,0,0,1-1.3-1.978,1.936,1.936,0,0,1,1.408-1.919,8.9,8.9,0,0,1,1.785-.168c.285,0,.754.469.838-.176a1.223,1.223,0,0,0-.469-.888,1.818,1.818,0,0,0-2.053,0,.6.6,0,0,1-.938-.444,1.019,1.019,0,0,1,.587-.7,7.7,7.7,0,0,1,2.3-.344,2.086,2.086,0,0,1,2.078,2.112c.059.662,0,1.332,0,1.994Zm-2.782-.494c-.746,0-1.24.4-1.274.989a1.274,1.274,0,0,0,1.366,1.165A1.19,1.19,0,0,0,91.7,25.912C91.554,25.166,91.009,24.99,90.355,24.982Z" transform="translate(-14.181 -3.48)"></path><path class="a" d="M120.88,23.043V19.583c0-.561,0-1.156.838-1.123s.654.587.654,1.064V22.44a6.735,6.735,0,0,0,.1.838,7.4,7.4,0,0,0,.838-.6,13.81,13.81,0,0,1,1.022-1.19,4.19,4.19,0,0,1,1.282-.5.756.756,0,0,1,.411.2c.109.1,0,.235-.1.318-.553.645-1.089,1.307-1.676,1.911a.771.771,0,0,0-.059,1.232c.67.779,1.282,1.609,1.9,2.43.251.335.142.536-.285.57a1.391,1.391,0,0,1-1.425-.587c-.469-.7-.989-1.374-1.508-2.045-.092-.126-.293-.176-.444-.251a3.061,3.061,0,0,0-.109.461,10.592,10.592,0,0,1,0,1.634,1.022,1.022,0,0,1-.6.7.64.64,0,0,1-.838-.7Z" transform="translate(-19.575 -3.008)"></path><path class="a" d="M159.14,24.885a3.266,3.266,0,0,1,4.533-3.3,2.908,2.908,0,0,1,1.341,1.148,8.555,8.555,0,0,1,.528,2.061,15.369,15.369,0,0,1-1.718.3c-.838.059-1.676,0-2.514,0-.645,0-.679.369-.411.838a2.086,2.086,0,0,0,2.69.838c.277-.109.494-.427.763-.469a.9.9,0,0,1,.754.277.771.771,0,0,1-.117.737,3.352,3.352,0,0,1-3.721.679A3.234,3.234,0,0,1,159.14,24.885Zm3.109-.721a2.891,2.891,0,0,0,.712,0,8.865,8.865,0,0,0,.939-.327c-.193-.344-.3-.838-.595-1a1.676,1.676,0,0,0-1.332-.218,4.3,4.3,0,0,0-1.182,1.215l1.274.344a.7.7,0,0,0,.184-.017Z" transform="translate(-25.775 -3.467)"></path><path class="a" d="M117.934,25.489a6.628,6.628,0,0,1-.05,2.162c-.335.922-1.282.142-1.952.369a3.754,3.754,0,0,1-2.087,0,1.869,1.869,0,0,1-1.408-2.061,1.994,1.994,0,0,1,1.6-1.952,7,7,0,0,1,1.961,0c.654.05.536-.377.4-.67-.318-.737-.939-.93-2-.7-.528.126-1.232.712-1.433-.268-.142-.729.654-.763,1.123-.9a4.7,4.7,0,0,1,1.609-.159,2.179,2.179,0,0,1,2.237,2.187,19.773,19.773,0,0,1,0,1.994Zm-1.433.528c0-.6-.461-1.014-1.207-1.047s-1.4.4-1.391,1.047a1.24,1.24,0,0,0,1.215,1.1,1.265,1.265,0,0,0,1.349-1.1Z" transform="translate(-18.205 -3.468)"></path><path class="a" d="M109.769,25.323v.913c0,1.533,0,1.517-1.55,1.676-.36.05-.7.243-1.047.293a2.455,2.455,0,0,1-2.933-2.053,2.306,2.306,0,0,1,2.514-2.313,4.236,4.236,0,0,0,.729,0c.243-.042.52-.059.779-.084-.117-.318-.151-.838-.369-.922a4.114,4.114,0,0,0-1.542-.251c-.352,0-.7.226-1.056.218-.159,0-.369-.277-.469-.469a.478.478,0,0,1,.134-.461,3.754,3.754,0,0,1,3.478-.419,2.053,2.053,0,0,1,1.341,2.17V25.3Zm-2.631-.36c-.838-.042-1.416.394-1.408,1.039a1.265,1.265,0,0,0,1.232,1.106A1.316,1.316,0,0,0,108.37,26C108.378,25.424,107.867,24.988,107.138,24.963Z" transform="translate(-16.878 -3.453)"></path><path class="a" d="M182.525,24.78v2.371c0,.788-.293,1.156-.955.838a1.8,1.8,0,0,0-1.492.1,2.1,2.1,0,0,1-2.992-1.676,29.2,29.2,0,0,1-.067-4.366c0-.2.486-.553.729-.536a.905.905,0,0,1,.645.628c.075,1.089,0,2.187.05,3.276s.411,1.483,1.182,1.525,1.366-.461,1.425-1.508c.05-.9,0-1.818,0-2.732,0-.511-.184-1.2.67-1.232.989,0,.746.746.771,1.307s0,1.341,0,2Z" transform="translate(-28.664 -3.496)"></path><path class="a" d="M168.322,24.627V22.264c0-.788.411-1.047,1.039-.771.436.193.654.369,1.207.117,1.751-.838,3.142.1,3.276,2.028.075,1.148,0,2.3,0,3.461,0,.511-.042.989-.754.955s-.6-.452-.595-.9V25.163a8.305,8.305,0,0,0,0-.913c-.109-1.073-.595-1.676-1.341-1.676s-1.324.679-1.374,1.818V27.3c0,.536-.318.838-.838.7a1,1,0,0,1-.628-.67c-.075-.9,0-1.818,0-2.723Z" transform="translate(-27.257 -3.469)"></path><path class="a" d="M96.2,24.866V22.134c0-.679.57-.93.972-.6s.779.218,1.249.042c1.676-.645,2.933,0,3.193,1.793a30.085,30.085,0,0,1,.117,3.989.62.62,0,0,1-.838.67,1.006,1.006,0,0,1-.57-.721c-.075-1.022,0-2.061-.05-3.092S99.805,22.7,99.11,22.62a1.447,1.447,0,0,0-1.5,1.492c-.084,1.014-.042,2.179-.042,3.276,0,.4-.075.712-.57.729s-.838-.134-.838-.7V24.9Z" transform="translate(-15.57 -3.473)"></path><path class="a" d="M85.734,41.507a.62.62,0,0,1,0,.176l-.126,2.17a20.547,20.547,0,0,1-3.109.209,2.087,2.087,0,0,1-1.81-2.179A2.154,2.154,0,0,1,82.625,40a4.592,4.592,0,0,1,1.785.184c.6.193.612-.1.587-.494-.092-1.047-.587-1.567-1.626-1.567a12.074,12.074,0,0,0-1.584.277,1.852,1.852,0,0,1-.587-.109c.142-.168.26-.411.444-.494,2.363-1.14,4.089,0,4.114,2.614C85.742,40.769,85.734,41.138,85.734,41.507Zm-2.589,2.045A1.735,1.735,0,0,0,85,42.152a1.567,1.567,0,0,0-1.626-1.6,1.535,1.535,0,1,0-.226,3Z" transform="translate(-13.062 -6.07)"></path><path class="a" d="M102.676,39.261v3.813c0,.142-.26.277-.394.411-.31-1.257-.838-.268-1.182-.075a3.05,3.05,0,0,1-4.416-2.036c-.612-2.514,1.031-4.667,3.352-4.324a4.19,4.19,0,0,1,1.466.645c.419.251.62.318.612-.285,0-.779,0-1.567.05-2.346,0-.1.126-.193.193-.293.109.109.3.218.3.318v4.19Zm-3.042-1.567a2.514,2.514,0,0,0-2.43,2.665,2.581,2.581,0,0,0,2.514,2.757,2.656,2.656,0,0,0,2.338-2.79,2.514,2.514,0,0,0-2.422-2.631Z" transform="translate(-15.634 -5.652)"></path><path class="a" d="M175.027,41.606v.184c-.067.7-.142,1.416-.21,2.12a20.655,20.655,0,0,1-3.293.092A1.944,1.944,0,0,1,170,41.992a2.036,2.036,0,0,1,1.676-1.936,4.073,4.073,0,0,1,1.961.1c.7.243.763,0,.687-.536a1.5,1.5,0,0,0-1.676-1.508,6.5,6.5,0,0,0-.9.092l-1.173.168c0-.788.746-.729,1.181-.838,1.978-.5,3.193.411,3.352,2.438C175.077,40.517,175.027,41.062,175.027,41.606Zm-.7.461a1.829,1.829,0,0,0-3.578-.126,1.592,1.592,0,0,0,1.793,1.609,1.726,1.726,0,0,0,1.81-1.458Z" transform="translate(-27.535 -6.077)"></path><path class="a" d="M190.63,39.081V35.251c0-.176.26-.344.394-.511.1.184.277.369.285.57a16.462,16.462,0,0,1,0,1.818c0,.62.226.494.637.31,2.2-.964,3.595-.126,3.679,2.237.042,1.156,0,2.313,0,3.469,0,.126-.193.243-.293.369-.117-.109-.318-.209-.327-.327-.042-.838-.042-1.676-.05-2.514V39.391a1.6,1.6,0,0,0-1.567-1.676,1.676,1.676,0,0,0-1.927,1.533c-.126.838,0,1.676-.092,2.556-.059.578.344,1.29-.385,1.726a11.577,11.577,0,0,1-.318-1.676c-.059-.9,0-1.827,0-2.74Z" transform="translate(-30.878 -5.647)"></path><path class="a" d="M140.736,34.911A2.874,2.874,0,0,1,143.5,35.95a2.229,2.229,0,0,1-.394,3.1.98.98,0,0,0-.218,1.5c.494.838.947,1.676,1.391,2.564a.781.781,0,0,1-.042.469c-.159-.042-.411,0-.469-.142-.452-.721-.838-1.466-1.274-2.2-.209-.377-.385-.754-.6-1.123-.352-.612-.955-.461-1.466-.385s-.452.62-.469,1.022c0,.788,0,1.584-.042,2.371,0,.142-.176.285-.268.427-.084-.151-.251-.3-.251-.452,0-2.514-.05-4.977,0-7.466C139.421,34.517,140.393,35.087,140.736,34.911Zm.52.7c-1.173,0-1.257,0-1.3,1.148-.084,2.011,0,2.187.955,2.237,1.408.075,2.162-.436,2.246-1.525s-.553-1.81-1.885-1.86Z" transform="translate(-22.572 -5.667)"></path><path class="a" d="M164.691,44.378a3.477,3.477,0,0,1-3.352-3.586,3.151,3.151,0,0,1,3.268-3.352A2.966,2.966,0,0,1,167.473,40c.109.637-.126.913-.754.913h-3.645c-.98,0-1.173.36-.771,1.215a2.422,2.422,0,0,0,2.883,1.332,10.054,10.054,0,0,0,1.29-.612,2.137,2.137,0,0,1,.62-.059c-.067.159-.092.4-.21.469C166.165,43.657,165.428,44.009,164.691,44.378Zm-.243-4.005h1.274a1.356,1.356,0,0,0,.184,0c.838-.059,1.022-.385.578-1.148a2.355,2.355,0,0,0-4.056,0c-.461.838-.318,1.073.57,1.114a8.363,8.363,0,0,0,1.45.034Z" transform="translate(-26.131 -6.084)"></path><path class="a" d="M129.279,44.377a3.41,3.41,0,0,1-3.352-3.729,3.075,3.075,0,0,1,3.352-3.2,2.514,2.514,0,0,1,2.221,1.374,2.807,2.807,0,0,1,.31,1.676c0,.218-.913.344-1.416.369-1.031.067-2.061,0-3.1,0-.587,0-.687.369-.578.838a2.413,2.413,0,0,0,3.167,1.626,8.755,8.755,0,0,0,1.257-.687c.126-.067.318,0,.478,0-.059.159-.059.4-.168.461A16.624,16.624,0,0,1,129.279,44.377Zm-.494-4.005h1.676c.712,0,.913-.427.595-1.073a2.112,2.112,0,0,0-2.087-1.182,2.212,2.212,0,0,0-2.07,1.249c-.335.628-.117.972.645,1.014a12.307,12.307,0,0,0,1.24-.008Z" transform="translate(-20.391 -6.083)"></path><path class="a" d="M118.621,41.46V42c-.059.654-.126,1.307-.193,1.952-1.207-.335-2.438.771-3.653-.1a2.1,2.1,0,0,1-1.056-1.978,1.944,1.944,0,0,1,1.575-1.776,5.765,5.765,0,0,1,2.137.142c.612.142.612-.151.561-.545a1.489,1.489,0,0,0-1.676-1.542c-.419,0-.838.117-1.257.134-.285,0-.645.587-.838,0a1.064,1.064,0,0,1,.62-.511,7.726,7.726,0,0,1,2.137-.193,1.743,1.743,0,0,1,1.584,1.726c.067.729,0,1.458,0,2.187Zm-.6.57a1.676,1.676,0,0,0-1.793-1.458,1.533,1.533,0,1,0,.075,3.017,1.726,1.726,0,0,0,1.718-1.558Z" transform="translate(-18.414 -6.107)"></path><path class="a" d="M149.777,44.16a3.193,3.193,0,0,1-3.427-3.746,3.067,3.067,0,0,1,3.553-2.991,2.891,2.891,0,0,1,2.514,2.514c.05.578-.142.922-.788.922h-3.637c-.93,0-1.081.285-.746,1.106a2.514,2.514,0,0,0,3.352,1.349c.385-.151.7-.452,1.081-.645a.641.641,0,0,1,.452.059.788.788,0,0,1-.092.318,2.648,2.648,0,0,1-2.262,1.114Zm-.511-3.8h1.676c.578,0,.838-.344.62-.922a1.986,1.986,0,0,0-1.81-1.316,2.246,2.246,0,0,0-2.321,1.1c-.436.746-.26,1.1.595,1.148a12.306,12.306,0,0,0,1.24-.008Z" transform="translate(-23.695 -6.075)"></path><path class="a" d="M88.918,40.76V38.389c0-.478,0-1.114.771-.436.1.092.486-.109.729-.209,1.885-.771,3.352,0,3.486,2.053a33.061,33.061,0,0,1,0,3.645c0,.176-.243.344-.369.511a1.726,1.726,0,0,1-.26-.587c0-1.148,0-2.313-.05-3.461a1.7,1.7,0,0,0-1.86-1.785,1.676,1.676,0,0,0-1.676,1.785c-.075,1.148,0,2.3-.05,3.461,0,.2-.193.394-.293.587-.142-.209-.394-.419-.4-.637C88.885,42.469,88.918,41.615,88.918,40.76Z" transform="translate(-14.395 -6.086)"></path><path class="a" d="M108.871,43.779c.712-.335,1.249-.6,1.793-.838a1.3,1.3,0,0,1,.478,0,.713.713,0,0,1-.1.469,3.285,3.285,0,0,1-3.561.52,3.469,3.469,0,0,1-1.458-4.693,3.243,3.243,0,0,1,4.533-1.324c.243.142.352.511.528.771a4.785,4.785,0,0,1-.779-.176c-1.5-.62-2.656-.4-3.419.67a2.74,2.74,0,0,0,.209,3.519,8.639,8.639,0,0,0,1.776,1.081Z" transform="translate(-17.103 -6.088)"></path><path class="a" d="M130.147,24.775v2.514c0,.5-.235.838-.763.729-.26-.067-.645-.411-.654-.645q-.092-2.631,0-5.262c0-.226.4-.57.67-.645.528-.126.746.243.746.746Z" transform="translate(-20.84 -3.492)"></path><path class="a" d="M185.909,38.135a2.42,2.42,0,0,0-2.648,1.416,2.79,2.79,0,0,0,.377,3.084,2.3,2.3,0,0,0,2.623.779,5.3,5.3,0,0,0,.511-.184l.9-.327c-.226.31-.377.729-.67.9a3.209,3.209,0,0,1-4.089-.871,3.519,3.519,0,0,1,.3-4.525,3.218,3.218,0,0,1,4.19-.369c.159.117.218.385.318.587a2.229,2.229,0,0,1-.578,0C186.622,38.428,186.127,38.219,185.909,38.135Z" transform="translate(-29.518 -6.083)"></path><path class="a" d="M157.029,44.163a1.969,1.969,0,0,1-1.9-1.148.327.327,0,0,1,.05-.3.3.3,0,0,1,.31-.05,8.422,8.422,0,0,0,1.006.746,1.366,1.366,0,0,0,1.869-.57c.285-.612,0-1.156-.771-1.609-.369-.209-.788-.318-1.156-.52-1.131-.595-1.517-1.475-1.056-2.346a2.086,2.086,0,0,1,2.707-.729,1.433,1.433,0,0,1,.561.452,1.6,1.6,0,0,1,.126.62,2.724,2.724,0,0,1-.452-.1c-.427-.176-.838-.553-1.274-.52a1.483,1.483,0,0,0-1.047.771c-.109.235.168.838.444,1.039a12,12,0,0,0,1.6.838c.964.545,1.324,1.249,1.089,2.053a2.028,2.028,0,0,1-2.1,1.374Z" transform="translate(-25.122 -6.079)"></path><path class="a" d="M74.862,39.121V35.492c0-.151.168-.3.251-.452.1.142.277.285.285.427,0,.838,0,1.676.05,2.514s0,1.818,0,2.723c0,2.2,0,2.2,2.187,2.246a8.069,8.069,0,0,1,.9.059c.092,0,.251.168.243.209s-.159.369-.243.377c-1.031,0-2.061.042-3.092,0-.595,0-.628-.461-.628-.9V39.062Z" transform="translate(-12.112 -5.695)"></path><path class="a" d="M178.638,37.645c.628.947,1.031,0,1.525-.075a2.313,2.313,0,0,1,.662.126c-.151.168-.277.411-.461.478a2.045,2.045,0,0,0-1.349,2.145c0,1.089,0,2.187-.075,3.276,0,.126-.2.243-.31.369-.109-.109-.31-.209-.31-.318V38.006C178.32,37.93,178.521,37.771,178.638,37.645Z" transform="translate(-28.883 -6.105)"></path><path class="a" d="M122,40.753V38.2c0-.461.134-.57.662-.277.293.168.913-.285,1.4-.411.126,0,.293.134.436.209-.059.1-.092.268-.176.293-1.676.536-1.592,1.894-1.676,3.268-.042.9.469,1.919-.436,2.681-.075-.888-.159-1.776-.226-2.656v-.553Z" transform="translate(-19.754 -6.096)"></path><path class="a" d="M129.233,20.344c-.184-.251-.536-.528-.595-.838a.729.729,0,0,1,.838-.838,1.2,1.2,0,0,1,.838.779C130.389,19.933,129.937,20.21,129.233,20.344Z" transform="translate(-20.831 -3.041)"></path></g></svg>