<svg xmlns="http://www.w3.org/2000/svg" width="145.384" height="54.479" viewBox="0 0 145.384 54.479"><g id="Layer_2" data-name="Layer 2" transform="translate(-209.74 -211.115)"><g id="Layer_1-2" data-name="Layer 1-2" transform="translate(209.74 211.115)"><g id="Group_172" data-name="Group 172" transform="translate(0 33.093)"><path id="Path_9547" data-name="Path 9547" d="M211.967,278.24v.13a1.319,1.319,0,0,1-1.234,1.128,1.019,1.019,0,0,1-.992-1.046h0l.113-1.152Z" transform="translate(-209.74 -277.301)" fill="#fff"></path></g><g id="Group_173" data-name="Group 173" transform="translate(0.054)"><path id="Path_9548" data-name="Path 9548" d="M263.223,252.073V253.8a3.432,3.432,0,0,0-.624-.061q-1.254-.062-2.508-.143c-1.22-.079-2.439-.169-3.658-.252-.989-.067-1.978-.135-2.967-.195-.224-.013-.3-.082-.275-.325.105-1.141.26-2.283.262-3.424,0-1.311.123-2.618.039-3.934-.064-1.01-.053-2.028-.092-3.042q-.039-.99-.144-1.977c-.168-1.577-.329-3.154-.572-4.723q-.43-2.781-1.107-5.51a34.151,34.151,0,0,0-2.1-6.094,13.009,13.009,0,0,0-3.252-4.691,3.852,3.852,0,0,0-2.455-1.011,4.831,4.831,0,0,0-3.439,1.463,9.583,9.583,0,0,0-1.6,2.055,18.9,18.9,0,0,0-1.454,3,.353.353,0,0,0,.082.469,15.909,15.909,0,0,1,2.488,2.688,24.832,24.832,0,0,1,3.565,7.056,44.258,44.258,0,0,1,1.658,6.466c.282,1.663.482,3.333.616,5.016.1,1.3.112,2.6.123,3.9a37.144,37.144,0,0,1-.394,5.5,17.689,17.689,0,0,1-1.883,6.2,6.42,6.42,0,0,1-3.288,3.031,7.248,7.248,0,0,1-1.479.331h-.6a1.474,1.474,0,0,0-.223-.052,5.689,5.689,0,0,1-3.472-1.6,11.865,11.865,0,0,1-2.556-3.711,25.38,25.38,0,0,1-1.892-5.532,65.367,65.367,0,0,1-1.3-7.722c-.2-1.842-.3-3.689-.365-5.536q-.068-1.915.031-3.839c.064-1.265.111-2.53.206-3.794.083-1.111.26-2.208.387-3.313a16.933,16.933,0,0,1,.41-2.376c.065-.249-.011-.386-.293-.347-.163.022-.327.041-.491.061a7.579,7.579,0,0,0-4.337,2.078,13.5,13.5,0,0,0-2.5,3.431.3.3,0,0,0,.1.444,6.272,6.272,0,0,1,1.33,1.372,12.744,12.744,0,0,1,1.729,3.585A24.973,24.973,0,0,1,226,245.731c.018.774-.095,1.541-.072,2.314a10.689,10.689,0,0,1-.155,1.841,15.563,15.563,0,0,1-1.264,4.5,5.444,5.444,0,0,1-2.185,2.5,3.435,3.435,0,0,1-1.8.5,3.691,3.691,0,0,1-2.544-1.108,7.65,7.65,0,0,1-1.778-3.1,25.413,25.413,0,0,1-1.234-7.266,35.53,35.53,0,0,1,.108-4.893,34.092,34.092,0,0,1,.526-3.689,2.745,2.745,0,0,0,.134-.884,2.608,2.608,0,0,0-.761.608,8.484,8.484,0,0,0-1.7,2.66,18.029,18.029,0,0,0-1.26,5.513c-.022.249-.12.321-.348.317-.486-.008-.972-.012-1.458,0-.271.007-.384-.092-.363-.366.052-.691.061-1.387.148-2.074a18.738,18.738,0,0,1,1.243-4.947,10.015,10.015,0,0,1,2.08-3.229,7.017,7.017,0,0,1,3.074-1.867.888.888,0,0,0,.63-.592,21.546,21.546,0,0,1,1.149-2.49,14.912,14.912,0,0,1,4.91-5.4,12.3,12.3,0,0,1,4.854-1.819,10.592,10.592,0,0,1,2.527-.128.364.364,0,0,0,.44-.251c.175-.487.371-.968.567-1.447a17.331,17.331,0,0,1,5.155-7.249,11.193,11.193,0,0,1,3.9-2.055,11.833,11.833,0,0,1,4.277-.473,11.289,11.289,0,0,1,4.319,1.244,14.111,14.111,0,0,1,3.974,3.189,21.033,21.033,0,0,1,2.107,2.8,31.946,31.946,0,0,1,2.3,4.391,57.412,57.412,0,0,1,2.519,7.106,75.607,75.607,0,0,1,1.921,8.685c.428,2.653.8,5.315.969,8,.108,1.727.294,3.449.253,5.183A1.7,1.7,0,0,0,263.223,252.073Zm-23.2-2.577c-.038-.676-.01-1.4-.053-2.132-.085-1.431-.213-2.855-.412-4.274a36.912,36.912,0,0,0-1.427-6.314,21.907,21.907,0,0,0-2.285-5.014c-.062-.1-.1-.267-.226-.254s-.082.183-.1.283c-.2,1.251-.346,2.507-.469,3.768-.143,1.46-.191,2.924-.24,4.387-.051,1.51.038,3.019.113,4.529q.126,2.494.468,4.965a34.881,34.881,0,0,0,1.646,7.109,11.153,11.153,0,0,0,1.12,2.355c.15.227.244.242.376-.018a9.247,9.247,0,0,0,.689-1.928A29.477,29.477,0,0,0,240.022,249.5ZM222.5,244.977c-.026-.43.008-1.066-.045-1.708a19.774,19.774,0,0,0-.482-3.125,9.585,9.585,0,0,0-1.3-3.195c-.048-.07-.077-.182-.183-.161s-.105.132-.126.214c-.131.512-.268,1.022-.385,1.537a31.935,31.935,0,0,0-.745,6.149,26.346,26.346,0,0,0,.34,5.1,10.777,10.777,0,0,0,.939,3.188c.118.23.194.292.372.033a6.789,6.789,0,0,0,.885-1.984A19.721,19.721,0,0,0,222.5,244.977Z" transform="translate(-209.847 -211.115)" fill="#fff"></path></g><g id="Group_174" data-name="Group 174" transform="translate(43.299 41.773)"><path id="Path_9549" data-name="Path 9549" d="M306.468,295.534v.1a4.934,4.934,0,0,1-5.077,4.844,5,5,0,0,1-5.053-4.956c0-.069,0-.138,0-.207a5.224,5.224,0,0,1,.092-.551v-.1Z" transform="translate(-296.338 -294.66)" fill="#fff"></path></g><path id="Path_9550" data-name="Path 9550" d="M345.146,247.471a.354.354,0,0,1-.352-.329v-10.02l-3.2,7.758a.4.4,0,0,1-.332.277h-1.407a.378.378,0,0,1-.332-.255l-3.183-7.741v9.953a.356.356,0,0,1-.34.351h-1.922a.348.348,0,0,1-.349-.334V231.424a.354.354,0,0,1,.335-.346h1.936a.39.39,0,0,1,.332.258l4.217,10.23,4.233-10.213a.406.406,0,0,1,.334-.277h1.936a.353.353,0,0,1,.348.34v15.7a.353.353,0,0,1-.337.351Z" transform="translate(-271.738 -221.095)" fill="#fff"></path><path id="Path_9551" data-name="Path 9551" d="M392.672,250.756c-3.091,0-5.052-1.784-5.116-4.659a.352.352,0,0,1,.343-.335h1.8a.354.354,0,0,1,.351.34,2.362,2.362,0,0,0,2.619,2.441c1.432,0,2.4-.708,2.4-1.761s-1.266-1.427-2.734-1.841c-1.969-.553-4.424-1.255-4.424-4.087,0-2.38,1.745-3.8,4.667-3.8,3.13,0,4.814,1.557,4.866,4.5a.36.36,0,0,1-.34.335h-1.684a.36.36,0,0,1-.349-.354c-.047-1.618-.766-2.281-2.488-2.281-1,0-2.193.276-2.193,1.556,0,1.242,1.346,1.623,2.909,2.066,2.012.572,4.291,1.219,4.291,3.929,0,2.541-1.747,3.94-4.916,3.94" transform="translate(-298.648 -224.084)" fill="#fff"></path><path id="Path_9552" data-name="Path 9552" d="M415.484,250.756c-3.091,0-5.051-1.784-5.112-4.659a.349.349,0,0,1,.343-.335h1.8a.358.358,0,0,1,.352.34,2.361,2.361,0,0,0,2.615,2.441c1.435,0,2.4-.708,2.4-1.761s-1.266-1.427-2.734-1.841c-1.969-.553-4.424-1.255-4.424-4.087,0-2.38,1.745-3.8,4.667-3.8,3.13,0,4.814,1.557,4.866,4.5a.359.359,0,0,1-.34.335h-1.695a.359.359,0,0,1-.335-.343c-.047-1.617-.766-2.281-2.489-2.281-1,0-2.195.276-2.195,1.557,0,1.241,1.349,1.623,2.911,2.065,2.01.573,4.288,1.22,4.288,3.929,0,2.541-1.745,3.94-4.916,3.94" transform="translate(-310.056 -224.084)" fill="#fff"></path><path id="Path_9553" data-name="Path 9553" d="M437.667,250.742c-2.707,0-4.324-1.936-4.324-5.187v-3.18c0-3.234,1.618-5.167,4.324-5.167a4.334,4.334,0,0,1,3.285,1.122v-.589a.354.354,0,0,1,.332-.351h1.7a.357.357,0,0,1,.348.351v12.442a.351.351,0,0,1-.335.351h-1.7a.354.354,0,0,1-.345-.34v-.553a4.4,4.4,0,0,1-3.285,1.106m.682-11.377c-2.057,0-2.488,1.786-2.488,3.281v2.613q0,3.318,2.488,3.318c2.057,0,2.489-1.811,2.489-3.318v-2.71c0-2.057-.885-3.191-2.489-3.191" transform="translate(-321.542 -224.161)" fill="#fff"></path><path id="Path_9554" data-name="Path 9554" d="M462.059,255.366c-3.945,0-4.825-2.1-4.866-3.87a.351.351,0,0,1,.335-.329h1.764a.351.351,0,0,1,.349.34c.074,1.139.953,1.794,2.413,1.794,1.706,0,2.467-.746,2.467-2.419v-1.137a4.378,4.378,0,0,1-3.166.988h0a4.808,4.808,0,0,1-1.383-.191c-1.9-.575-2.944-2.35-2.944-5V241.78a2.73,2.73,0,0,1,.03-.312s.02-.2.025-.243c.016-.133.042-.276.066-.39l.025-.127c.027-.133.061-.257.1-.379l.03-.113c.036-.119.077-.232.119-.345l.042-.111c.044-.108.091-.208.138-.307l.058-.119c.049-.094.1-.182.158-.277l.072-.122c.055-.083.116-.16.174-.24l.086-.1c.066-.081.138-.158.21-.233l.069-.069a3.431,3.431,0,0,1,.276-.249,4.132,4.132,0,0,1,2.624-.848,4.333,4.333,0,0,1,3.282,1.122v-.581a.354.354,0,0,1,.334-.351h1.7a.357.357,0,0,1,.346.351v12.719c0,3.492-1.438,4.915-4.963,4.915M462,239.355c-2.057,0-2.488,1.786-2.488,3.282v2.624q0,3.318,2.488,3.318c2.057,0,2.488-1.811,2.488-3.318v-2.715c0-1.659-.553-2.71-1.625-3.061-.067-.019-.135-.041-.208-.055l-.177-.036a3.059,3.059,0,0,0-.478-.039" transform="translate(-333.384 -224.152)" fill="#fff"></path><path id="Path_9555" data-name="Path 9555" d="M345.232,287.786a.351.351,0,0,1-.351-.329v-10.02l-3.2,7.758a.4.4,0,0,1-.332.276h-1.4a.38.38,0,0,1-.332-.254l-3.186-7.741v9.953a.354.354,0,0,1-.337.352h-1.922a.36.36,0,0,1-.351-.338v-15.7a.352.352,0,0,1,.338-.346h1.935a.379.379,0,0,1,.334.258l4.217,10.23,4.228-10.2a.4.4,0,0,1,.334-.277h1.936a.359.359,0,0,1,.348.34v15.7a.356.356,0,0,1-.337.351h-1.922Z" transform="translate(-271.779 -241.254)" fill="#fff"></path><path id="Path_9556" data-name="Path 9556" d="M425.8,291.055c-2.71,0-4.327-1.936-4.327-5.19v-3.18c0-3.232,1.617-5.165,4.327-5.165a4.328,4.328,0,0,1,3.281,1.123v-.592a.352.352,0,0,1,.335-.348h1.7a.357.357,0,0,1,.349.352V290.5a.356.356,0,0,1-.338.351h-1.7a.354.354,0,0,1-.346-.34v-.553a4.4,4.4,0,0,1-3.281,1.106m.68-11.383c-2.054,0-2.488,1.783-2.488,3.282v2.612q0,3.318,2.488,3.318c2.057,0,2.488-1.809,2.488-3.318v-2.7c0-2.057-.885-3.19-2.488-3.19" transform="translate(-315.606 -244.317)" fill="#fff"></path><path id="Path_9557" data-name="Path 9557" d="M392.174,286.9c-2.707,0-4.324-1.935-4.324-5.187v-3.18c0-3.235,1.617-5.168,4.324-5.168a5.009,5.009,0,0,1,.669.031l.124.016h.064c.144.017.276.039.415.064a1.483,1.483,0,0,1,.161.036c.154.035.276.066.378.1l.177.058c.108.039.21.083.307.127l.141.063c.105.056.2.114.3.172l.088.055a2.546,2.546,0,0,1,.235.177v-4.7a.35.35,0,0,1,.332-.351H397.5a.359.359,0,0,1,.348.351V286.68H395.81a.35.35,0,0,1-.345-.34v-.553a4.393,4.393,0,0,1-3.282,1.106Zm.683-11.377c-2.057,0-2.488,1.786-2.488,3.282v2.612q0,3.318,2.488,3.318c2.055,0,2.489-1.811,2.489-3.318v-2.7c0-2.057-.882-3.19-2.489-3.19" transform="translate(-298.795 -240.165)" fill="#fff"></path><path id="Path_9558" data-name="Path 9558" d="M412.825,291.033a.352.352,0,0,1-.346-.34V278.231a.352.352,0,0,1,.327-.346h1.824a.357.357,0,0,1,.343.352v12.442a.349.349,0,0,1-.332.351h-1.816Z" transform="translate(-311.11 -244.5)" fill="#fff"></path><path id="Path_9559" data-name="Path 9559" d="M369.685,250.756c-3.089,0-5-2-5-5.209v-3.086c0-3.24,1.916-5.253,5-5.253s4.977,1.935,4.977,5.14v2.044a.353.353,0,0,1-.337.348h-7.15v1.236a2.407,2.407,0,0,0,2.51,2.624,2.23,2.23,0,0,0,2.488-2.192v-.047a.355.355,0,0,1,.332-.348h1.8a.357.357,0,0,1,.345.323C374.628,248.945,372.582,250.756,369.685,250.756Zm2.488-7.943v-.6c0-1.875-.829-2.826-2.488-2.826a2.349,2.349,0,0,0-2.51,2.646v.783Z" transform="translate(-287.21 -224.161)" fill="#fff"></path><path id="Path_9560" data-name="Path 9560" d="M485.552,250.756c-3.086,0-5-2-5-5.209v-3.086c0-3.24,1.916-5.253,5-5.253s4.977,1.935,4.977,5.14v2.044a.354.354,0,0,1-.337.348h-7.148v1.236a2.407,2.407,0,0,0,2.508,2.624,2.211,2.211,0,0,0,2.489-2.192v-.047a.353.353,0,0,1,.326-.345h1.814a.356.356,0,0,1,.345.324C490.5,248.945,488.453,250.756,485.552,250.756Zm2.489-7.943v-.6c0-1.875-.83-2.826-2.489-2.826a2.349,2.349,0,0,0-2.508,2.646v.783Z" transform="translate(-345.146 -224.161)" fill="#fff"></path><path id="Path_9561" data-name="Path 9561" d="M369.7,291.041c-3.085,0-5-2-5-5.209v-3.086c0-3.24,1.919-5.253,5-5.253s4.977,1.921,4.977,5.14v2.043a.356.356,0,0,1-.337.351h-7.15v1.236a2.407,2.407,0,0,0,2.51,2.624,2.211,2.211,0,0,0,2.489-2.193v-.047a.354.354,0,0,1,.332-.349h1.814a.354.354,0,0,1,.345.326C374.644,289.232,372.6,291.041,369.7,291.041Zm2.489-7.941v-.6c0-1.878-.83-2.828-2.489-2.828a2.35,2.35,0,0,0-2.51,2.646v.785Z" transform="translate(-287.218 -244.304)" fill="#fff"></path><circle id="Ellipse_708" data-name="Ellipse 708" cx="1.532" cy="1.532" r="1.532" transform="translate(101.074 28.804)" fill="#fff"></circle></g></g></svg>