<svg xmlns="http://www.w3.org/2000/svg" width="176.795" height="52.154" viewBox="0 0 176.795 52.154"><g id="mulesoft-vector-logo" transform="translate(-20.3 -233.8)"><g id="Group_170" data-name="Group 170" transform="translate(20.3 233.8)"><g id="Group_169" data-name="Group 169" transform="translate(0)"><path id="Path_9535" data-name="Path 9535" d="M46.525,283.951a23.911,23.911,0,1,1,23.9-23.926,23.893,23.893,0,0,1-23.9,23.926ZM46.5,233.8a26.077,26.077,0,1,0,26.2,26.077A26.169,26.169,0,0,0,46.5,233.8Z" transform="translate(-20.3 -233.8)" fill="#fff"></path></g></g><path id="Path_9536" data-name="Path 9536" d="M55.594,294.105a11.963,11.963,0,0,1-6.689-10.9,12.254,12.254,0,0,1,2.063-6.866l8.6,12.847h5.215l8.6-12.847a12.4,12.4,0,0,1,2.063,6.866,12.06,12.06,0,0,1-5.893,10.49l1.65,6.365a19.606,19.606,0,0,0,1.031-34.3L62.224,281.2l-9.9-15.5a19.591,19.591,0,0,0,1.591,34.681l1.68-6.276Z" transform="translate(-15.729 -22.5)" fill="#fff"></path><path id="Path_9537" data-name="Path 9537" d="M241.783,298.731,235.359,285H232v22.04h3.359V292.307l5.186,10.755h2.5l5.039-10.755V307.04h3.359V285h-3.359Z" transform="translate(-149.321 -36.114)" fill="#fff"></path><path id="Path_9538" data-name="Path 9538" d="M317.747,316.076c0,2.416-1.473,3.506-3.241,3.506s-3.153-1.061-3.153-3.506V306.5H308.2v10.048A5.819,5.819,0,0,0,309.791,321a5.532,5.532,0,0,0,3.86,1.414,5.61,5.61,0,0,0,4.184-1.768v1.591h3.094V306.529h-3.153v9.547Z" transform="translate(-203.068 -51.278)" fill="#fff"></path><path id="Path_9539" data-name="Path 9539" d="M364.753,302.532V285H361.6v17.709a3.993,3.993,0,0,0,4.3,4.331h1.945v-2.681h-1.385c-1.267,0-1.709-.619-1.709-1.827Z" transform="translate(-240.733 -36.114)" fill="#fff"></path><path id="Path_9540" data-name="Path 9540" d="M389.153,312.648a4.7,4.7,0,0,1,.413-2.122,3.283,3.283,0,0,1,3.123-1.974,3.241,3.241,0,0,1,3.094,1.974,5.127,5.127,0,0,1,.442,2.122Zm3.506-6.748c-4.007,0-6.659,2.947-6.659,8.015,0,5.982,3.123,8.044,7.072,8.044a7.249,7.249,0,0,0,5.864-2.446l-2.033-1.886a4.709,4.709,0,0,1-3.8,1.621c-2.564,0-4.007-1.68-4.007-4.39h10.2v-1.385c.029-4.449-2.416-7.573-6.63-7.573Z" transform="translate(-257.944 -50.855)" fill="#fff"></path><path id="Path_9541" data-name="Path 9541" d="M450.808,295.662a7.586,7.586,0,0,0-4.125-1.65l-2.5-.383a5.152,5.152,0,0,1-2.475-1,2.628,2.628,0,0,1-.825-2.063c0-1.945,1.414-3.448,4.007-3.448a6.594,6.594,0,0,1,4.8,1.68l2.122-2.092a9.252,9.252,0,0,0-6.836-2.5c-4.6,0-7.366,2.622-7.366,6.482a5.484,5.484,0,0,0,1.621,4.214,7.517,7.517,0,0,0,4.184,1.768l2.593.383a3.775,3.775,0,0,1,2.416.943,2.975,2.975,0,0,1,.884,2.3c0,2.122-1.68,3.359-4.538,3.359a7.319,7.319,0,0,1-5.628-2.092l-2.239,2.18c2.092,2.122,4.479,2.917,7.808,2.917,4.626,0,7.926-2.416,7.926-6.482a5.965,5.965,0,0,0-1.827-4.508Z" transform="translate(-293.846 -35.549)" fill="#fff"></path><path id="Path_9542" data-name="Path 9542" d="M505.169,318.246a3.2,3.2,0,0,1-2.328.913,3.13,3.13,0,0,1-2.3-.913c-.972-.943-1.09-2.593-1.09-4.3s.118-3.33,1.09-4.3a3.385,3.385,0,0,1,4.626,0c.943.943,1.09,2.593,1.09,4.3,0,1.68-.147,3.33-1.09,4.3ZM502.841,305.9a6.312,6.312,0,0,0-4.685,1.856c-1.473,1.562-1.856,3.536-1.856,6.158,0,2.652.383,4.656,1.856,6.188a6.214,6.214,0,0,0,4.685,1.856,6.384,6.384,0,0,0,4.715-1.856c1.473-1.562,1.856-3.536,1.856-6.188,0-2.622-.383-4.626-1.856-6.158a6.5,6.5,0,0,0-4.715-1.856Z" transform="translate(-335.743 -50.855)" fill="#fff"></path><path id="Path_9543" data-name="Path 9543" d="M547.3,288.79v2.416h-1.8v2.416h1.8v12.994h3.153V293.623h3.123v-2.416H550.45v-2.269a1.6,1.6,0,0,1,1.738-1.827h1.385V284.4H551.6a4.126,4.126,0,0,0-4.3,4.39Z" transform="translate(-370.446 -35.69)" fill="#fff"></path><path id="Path_9544" data-name="Path 9544" d="M584.55,291.3H581.4v4.773h-1.8v2.416h1.8v8.633a4.074,4.074,0,0,0,4.3,4.361h1.886V308.8h-1.3a1.6,1.6,0,0,1-1.738-1.827V298.49h3.035v-2.416H584.55V291.3Z" transform="translate(-394.498 -40.557)" fill="#fff"></path><path id="Path_9545" data-name="Path 9545" d="M611.806,298.439a.905.905,0,0,1-.295.442,1.45,1.45,0,0,1-.442.295,1.122,1.122,0,0,1-.56.118,1.2,1.2,0,0,1-.56-.118,1.651,1.651,0,0,1-.442-.295,1.45,1.45,0,0,1-.295-.442,1.9,1.9,0,0,1-.118-.589,1.2,1.2,0,0,1,.118-.56.905.905,0,0,1,.295-.442,1.451,1.451,0,0,1,.442-.295,1.389,1.389,0,0,1,1.12,0,2.31,2.31,0,0,1,.442.295,1.166,1.166,0,0,1,.295.442,1.9,1.9,0,0,1,.118.56,2.97,2.97,0,0,1-.118.589Zm.265-1.238a1.363,1.363,0,0,0-.383-.53,1.672,1.672,0,0,0-.53-.354,1.586,1.586,0,0,0-.648-.118,2.3,2.3,0,0,0-.648.118,2.242,2.242,0,0,0-.56.354,2.452,2.452,0,0,0-.383.53,1.586,1.586,0,0,0-.118.648,2.511,2.511,0,0,0,.118.678,1.364,1.364,0,0,0,.383.53,1.521,1.521,0,0,0,.56.354,1.585,1.585,0,0,0,.648.118,2.3,2.3,0,0,0,.648-.118,1.671,1.671,0,0,0,.53-.354,2.448,2.448,0,0,0,.383-.53,1.728,1.728,0,0,0,.118-.678,1.586,1.586,0,0,0-.118-.648Z" transform="translate(-415.094 -44.013)" fill="#fff"></path><path id="Path_9546" data-name="Path 9546" d="M612.948,299.455h-.324v-.619h.413a.265.265,0,0,1,.147.029c.059,0,.088.029.147.059s.088.059.088.088a.221.221,0,0,1,.029.147.249.249,0,0,1-.059.177c-.029.059-.059.088-.118.088a.265.265,0,0,1-.147.029Zm.678.088a.509.509,0,0,0,.147-.383.459.459,0,0,0-.177-.413.875.875,0,0,0-.53-.147H612.3v1.974h.295v-.854h.324l.53.854h.324l-.56-.884a.674.674,0,0,0,.412-.147Z" transform="translate(-417.563 -45.706)" fill="#fff"></path></g></svg>