<svg xmlns="http://www.w3.org/2000/svg" width="63.49" height="62.87" viewBox="0 0 63.49 62.87"><defs><style>.a{fill:none;stroke:#fff;stroke-miterlimit:10;stroke-width:2.79px;}</style></defs><g transform="translate(-0.465 -0.55)"><path class="a" d="M25.11,61.83H56.95V49.81h5.61v6.01"></path><path class="a" d="M25.11,55.82H50.14V44H62.56V25.58H50.74V19.77H62.56V12.96"></path><line class="a" x2="11.62" transform="translate(49.34 32.03)"></line><line class="a" x2="13.22" transform="translate(49.34 37.99)"></line><path class="a" d="M38.09,31.05V43.37H32.4V26.18h5.69"></path><path class="a" d="M25.11,13.72H32.4V8H8.16V1.98"></path><path class="a" d="M1.86,25.04V49.81H15.32"></path><path class="a" d="M1.86,20.03h6.3V43.94h5.87V14.3H1.86"></path><line class="a" x2="25.92" transform="translate(13.31 1.98)"></line><line class="a" y2="8.31" transform="translate(50.4 0.55)"></line><path class="a" d="M56.56,1.98V13.72H49.34"></path><path class="a" d="M1,55.82H8.59v7.02"></path><line class="a" y2="8.31" transform="translate(14.03 55.11)"></line><path class="a" d="M38.09,6.42V19.6H26.27V49.81H39.23"></path></g></svg>