<svg xmlns="http://www.w3.org/2000/svg" xmlns:xlink="http://www.w3.org/1999/xlink" viewBox="0 0 1864.36 1059.51"><defs><style>.cls-1{isolation:isolate;}.cls-10,.cls-11,.cls-2,.cls-4{mix-blend-mode:multiply;}.cls-2{opacity:0.11;fill:url(#linear-gradient);}.cls-3,.cls-5{fill:none;}.cls-10,.cls-11,.cls-4{fill:#9caab8;}.cls-4{opacity:0.17;}.cls-5{stroke:#9dc7f2;stroke-miterlimit:10;stroke-width:11.63px;}.cls-6{fill:#0c7ff2;}.cls-12,.cls-7{fill:#9dc7f2;}.cls-7{mix-blend-mode:overlay;opacity:0.47;}.cls-8{fill:#fff;}.cls-9{fill:#2e2e76;}.cls-11{opacity:0.48;}</style><linearGradient id="linear-gradient" x1="580.89" y1="278.57" x2="1253.61" y2="278.57" gradientUnits="userSpaceOnUse"><stop offset="0" stop-color="#6b7e8f"></stop><stop offset="1" stop-color="#b6c6d6"></stop></linearGradient></defs><g class="cls-1"><g id="Layer_2" data-name="Layer 2"><g id="Layer_1-2" data-name="Layer 1"><path class="cls-2" d="M1250.23,362.24c-6.11-27.38-20.87-53.34-47.2-71.3a73.68,73.68,0,0,1-25-28.61,60.94,60.94,0,0,1-5.63-35.21,83.83,83.83,0,0,0,.83-11.74,88.27,88.27,0,0,0-6.24-32.22,106.6,106.6,0,0,0-68.06-61.93A86.75,86.75,0,0,0,1054.5,120a62.28,62.28,0,0,1-36.7-2.44,68.53,68.53,0,0,1-30.4-23A157,157,0,0,0,929,47.12a174.6,174.6,0,0,0-75-16.4,198.58,198.58,0,0,0-32.75,2.75A216.36,216.36,0,0,0,788,41.86c-29.74,10.07-60.42,28.27-83.65,54.88s-38.94,61.65-38.68,105.38A66.12,66.12,0,0,1,658.14,233,68.84,68.84,0,0,1,637,257.22c-29.12,20.81-45.55,49.67-52.35,80a168.86,168.86,0,0,0,5.18,89.67c8.43,24.86,23.91,50.36,46.76,69.31s53.09,31.38,91,30.08l4-.14,4-.14v.26H1112.9v-.65l5.27.24,5.27.2c33.71,2.13,60.54-8,80.8-24.05s34-38.06,41.37-59.7A150.5,150.5,0,0,0,1250.23,362.24Z"></path><rect class="cls-3" width="1864.36" height="1059.51"></rect><ellipse class="cls-4" cx="974.22" cy="954.64" rx="697.79" ry="16.15"></ellipse><path class="cls-5" d="M1072.58,902.68c-2-.66-190.92-.29-274.82-.1a39.31,39.31,0,0,1-39.4-39.33V741.72"></path><path class="cls-5" d="M1109.25,870.49c-2.25-.72-227.2-.22-295.06,0A19.12,19.12,0,0,1,795,851.31V709.53"></path><path class="cls-6" d="M1735.21,593.6h-65.32a19.78,19.78,0,0,0-19.78,19.79V935a19.79,19.79,0,0,1-19.79,19.79h-589A19.78,19.78,0,0,1,1021.57,935V613.39a19.78,19.78,0,0,0-12.51-18.4,19.49,19.49,0,0,0-7.28-1.39H936.46c-17.62,0-26.44-21.32-14-33.77l399.36-399.37a19.79,19.79,0,0,1,28,0L1749.2,559.83C1761.66,572.28,1752.84,593.6,1735.21,593.6Z"></path><path class="cls-7" d="M1747,589.78a20.54,20.54,0,0,0-1.71-1.93L1345.91,188.48a19.78,19.78,0,0,0-28,0L1009.06,497.34V473.25l312.79-312.79a19.79,19.79,0,0,1,28,0L1749.2,559.83C1758.4,569,1756,583.07,1747,589.78Z"></path><rect class="cls-8" x="1132.08" y="599.96" width="433.57" height="133.39" rx="8.69"></rect><rect class="cls-8" x="1132.08" y="747.77" width="433.57" height="133.39" rx="8.69"></rect><rect class="cls-6" x="1311.22" y="659.08" width="219.46" height="15.16" rx="3.48"></rect><rect class="cls-6" x="1311.22" y="690.02" width="219.46" height="15.16" rx="3.48"></rect><rect class="cls-6" x="1311.22" y="806.89" width="219.46" height="15.16" rx="3.48"></rect><rect class="cls-6" x="1311.22" y="837.84" width="219.46" height="15.16" rx="3.48"></rect><ellipse class="cls-9" cx="1180.6" cy="690.18" rx="16.05" ry="15.94"></ellipse><ellipse class="cls-9" cx="1218.5" cy="690.18" rx="16.05" ry="15.94"></ellipse><ellipse class="cls-9" cx="1253.93" cy="690.18" rx="16.05" ry="15.94"></ellipse><ellipse class="cls-9" cx="1180.6" cy="838.14" rx="16.05" ry="15.94"></ellipse><ellipse class="cls-9" cx="1218.5" cy="838.14" rx="16.05" ry="15.94"></ellipse><ellipse class="cls-9" cx="1253.93" cy="838.14" rx="16.05" ry="15.94"></ellipse><path class="cls-10" d="M1009.06,473.25V595a19.49,19.49,0,0,0-7.28-1.39H936.46a19.37,19.37,0,0,1-15.81-7.85l-.12-.17c-.27-.36-.52-.74-.76-1.12,0,0,0,0,0,0-.24-.38-.46-.78-.67-1.18-.09-.15-.17-.29-.24-.43q-.32-.62-.57-1.26a20.34,20.34,0,0,1-1-3.06c-.12-.52-.25-1-.33-1.57a19.42,19.42,0,0,1,.52-8.69,17.08,17.08,0,0,1,.62-1.78,14.45,14.45,0,0,1,.81-1.75c.3-.57.64-1.14,1-1.69a21,21,0,0,1,2.62-3.18Z"></path><path class="cls-11" d="M916.92,576.92a19.14,19.14,0,0,1,.52-8.69A19.42,19.42,0,0,0,916.92,576.92Z"></path><path class="cls-11" d="M917.25,578.49a20.34,20.34,0,0,0,1,3.06A16.91,16.91,0,0,1,917.25,578.49Z"></path><path class="cls-6" d="M979.2,328V805.08a6.77,6.77,0,0,1-6.78,6.78H217.94a6.76,6.76,0,0,1-6.76-6.78V328a6.77,6.77,0,0,1,6.76-6.78H972.42A6.77,6.77,0,0,1,979.2,328Z"></path><rect class="cls-9" x="523.99" y="811.19" width="142.39" height="107.55"></rect><rect class="cls-9" x="468.01" y="918.74" width="254.35" height="35.91" rx="0.87"></rect><rect class="cls-9" x="218.64" y="330.27" width="753.08" height="401.41" rx="2.53"></rect><circle class="cls-9" cx="595.18" cy="771.44" r="14.18"></circle><path class="cls-10" d="M416.63,767.05a8.21,8.21,0,0,1,5.34,7.69v36.45l-1.42.67H226.15a15,15,0,0,1-15-15V656.75a8.21,8.21,0,0,1,3.57-6.77h0a8.22,8.22,0,0,1,10.79,1.34l21.84,24.75a8.2,8.2,0,0,0,6.16,2.78h43.91a8.2,8.2,0,0,0,6.24-2.88l16.05-18.77a8.21,8.21,0,0,1,10.11-1.91l37.44,20a8.21,8.21,0,0,1,3.67,10.5l-10.86,25.1a8.24,8.24,0,0,0,.48,7.45l19.66,33.18a8.22,8.22,0,0,0,4.19,3.5Z"></path><path class="cls-12" d="M541.36,567.1a3.83,3.83,0,0,1-2-.6l-1.68-1L498,538.17a10.15,10.15,0,0,1-3-2.94,6.25,6.25,0,0,1-.87-3.22v-1.6a6.15,6.15,0,0,1,.87-3.29,10.69,10.69,0,0,1,3-2.87l39.76-27.32,1.68-1a3.75,3.75,0,0,1,2-.61,2.91,2.91,0,0,1,1.89.67,2.47,2.47,0,0,1,.81,2v2.28a3.74,3.74,0,0,1-.61,2.21,8.34,8.34,0,0,1-2.22,1.94l-38.94,26.78L541.23,558a8.34,8.34,0,0,1,2.22,1.94,3.74,3.74,0,0,1,.61,2.21v2.28a2.47,2.47,0,0,1-.81,2A2.91,2.91,0,0,1,541.36,567.1Z"></path><path class="cls-12" d="M560,582.77a2.59,2.59,0,0,1-1.89-.81,2.55,2.55,0,0,1-.81-1.87,4.18,4.18,0,0,1,.41-1.61L604,468.27a6.25,6.25,0,0,1,1-1.27,2.58,2.58,0,0,1,2-.74h2.3a2.58,2.58,0,0,1,1.88.81,2.55,2.55,0,0,1,.81,1.87,5.09,5.09,0,0,1-.4,1.61L565.21,580.76a3.11,3.11,0,0,1-.87,1.27,2.85,2.85,0,0,1-2.09.74Z"></path><path class="cls-12" d="M627.74,567a2.86,2.86,0,0,1-1.89-.67,2.43,2.43,0,0,1-.81-2V562a3.82,3.82,0,0,1,.61-2.21,8.49,8.49,0,0,1,2.22-1.94l39-26.78-39-26.79a8.49,8.49,0,0,1-2.22-1.94,3.79,3.79,0,0,1-.61-2.21v-2.27a2.44,2.44,0,0,1,.81-2,2.86,2.86,0,0,1,1.89-.67,4.18,4.18,0,0,1,2,.6,14.85,14.85,0,0,1,1.62,1l39.75,27.31a10.7,10.7,0,0,1,3,2.88,6.12,6.12,0,0,1,.88,3.28v1.61a6.2,6.2,0,0,1-.88,3.21,10.05,10.05,0,0,1-3,2.95l-39.75,27.32a15.08,15.08,0,0,1-1.62,1A4.18,4.18,0,0,1,627.74,567Z"></path><rect class="cls-10" x="523.99" y="811.19" width="142.39" height="18.13"></rect><rect class="cls-10" x="468.01" y="945.76" width="254.35" height="9.06" rx="0.77"></rect><rect class="cls-10" x="1037.38" y="945.76" width="589.07" height="9.06" rx="2.62"></rect><rect class="cls-10" x="1141.3" y="729.21" width="413.08" height="4.53" rx="1.31"></rect><rect class="cls-10" x="1141.3" y="876.63" width="411.75" height="4.53" rx="1.31"></rect><rect class="cls-7" x="1141.3" y="600.35" width="413.08" height="4.53" rx="1.31"></rect><rect class="cls-7" x="1141.3" y="747.77" width="411.75" height="4.53" rx="1.31"></rect><rect class="cls-7" x="468.01" y="918.45" width="254.35" height="5.59" rx="0.47"></rect><rect class="cls-7" x="237.08" y="321.44" width="722.22" height="5.59" rx="0.47"></rect><circle class="cls-8" cx="273.68" cy="796.03" r="62.69"></circle><path class="cls-12" d="M134.71,807.25a11.56,11.56,0,0,0,9.84,11.22l18.94,2.85a11.54,11.54,0,0,1,8.17,5.48l26.63,44.27a11.53,11.53,0,0,1,1,9.86L192.79,899A11.57,11.57,0,0,0,198,913l15.16,8.5a11.56,11.56,0,0,0,14.65-2.83L239.73,904a11.59,11.59,0,0,1,8.79-4.3l51.73-.89a11.55,11.55,0,0,1,9,4.15L321.8,917.8a11.56,11.56,0,0,0,14.69,2.56l15-8.77a11.59,11.59,0,0,0,5-14.09l-6.63-17.45a11.56,11.56,0,0,1,.71-9.71L376.86,823a11.51,11.51,0,0,1,8-5.75l18.74-3.54A11.55,11.55,0,0,0,413,802.13l-.34-17.34a11.54,11.54,0,0,0-9.83-11.21l-18.93-2.86a11.5,11.5,0,0,1-8.19-5.48L349.08,721a11.56,11.56,0,0,1-1-9.86L354.58,693a11.55,11.55,0,0,0-5.25-14l-15.15-8.49a11.53,11.53,0,0,0-14.63,2.82l-11.9,14.71a11.55,11.55,0,0,1-8.8,4.29l-51.72.9a11.6,11.6,0,0,1-9.07-4.13l-12.5-14.9a11.56,11.56,0,0,0-14.7-2.54l-15,8.77a11.54,11.54,0,0,0-5,14.07L197.5,712a11.58,11.58,0,0,1-.68,9.71l-26.31,47.38a11.58,11.58,0,0,1-8,5.75l-18.73,3.52a11.55,11.55,0,0,0-9.42,11.57Zm139-58.83a47.61,47.61,0,1,1-47.66,49.33A47.77,47.77,0,0,1,273.76,748.42Z"></path></g></g></g></svg>