<svg xmlns="http://www.w3.org/2000/svg" viewBox="0 0 720 720"><defs><style>.cls-1{isolation:isolate;}.cls-2{fill:#2e2e76;}.cls-3{fill:#0c7ff2;}.cls-4{fill:#cee0f2;}.cls-5,.cls-8{fill:#9caab8;mix-blend-mode:multiply;}.cls-6,.cls-7{fill:#9dc7f2;mix-blend-mode:overlay;}.cls-6{opacity:0.47;}.cls-7{opacity:0.24;}.cls-8{opacity:0.18;}.cls-9{fill:none;}</style></defs><g class="cls-1"><g id="Layer_2" data-name="Layer 2"><g id="Layer_1-2" data-name="Layer 1"><path class="cls-2" d="M653.86,397.76H607.79a14,14,0,0,0-14,13.95V638.6a14,14,0,0,1-14,13.95H164.44a14,14,0,0,1-13.95-13.95V411.71a14,14,0,0,0-14-13.95H90.46a14,14,0,0,1-9.87-23.83L362.3,92.24a14,14,0,0,1,19.74,0L663.73,373.93A14,14,0,0,1,653.86,397.76Z"></path><rect class="cls-3" x="230.79" y="541.89" width="282.74" height="86.99" rx="8.69"></rect><rect class="cls-2" x="347.61" y="580.45" width="143.12" height="9.88" rx="3.48"></rect><rect class="cls-2" x="347.61" y="600.63" width="143.12" height="9.88" rx="3.48"></rect><ellipse class="cls-4" cx="262.43" cy="600.83" rx="10.46" ry="10.4"></ellipse><ellipse class="cls-4" cx="287.14" cy="600.83" rx="10.46" ry="10.4"></ellipse><ellipse class="cls-4" cx="310.25" cy="600.83" rx="10.46" ry="10.4"></ellipse><rect class="cls-5" x="236.8" y="625.93" width="268.52" height="2.96" rx="1.1"></rect><rect class="cls-6" x="236.8" y="541.89" width="268.52" height="2.96" rx="1.1"></rect><rect class="cls-3" x="230.79" y="446.19" width="282.74" height="86.99" rx="8.69"></rect><rect class="cls-2" x="347.61" y="484.75" width="143.12" height="9.88" rx="3.48"></rect><rect class="cls-2" x="347.61" y="504.93" width="143.12" height="9.88" rx="3.48"></rect><ellipse class="cls-4" cx="262.43" cy="505.13" rx="10.46" ry="10.4"></ellipse><ellipse class="cls-4" cx="287.14" cy="505.13" rx="10.46" ry="10.4"></ellipse><ellipse class="cls-4" cx="310.25" cy="505.13" rx="10.46" ry="10.4"></ellipse><rect class="cls-5" x="236.8" y="530.23" width="268.52" height="2.96" rx="1.1"></rect><rect class="cls-6" x="236.8" y="446.19" width="268.52" height="2.96" rx="1.1"></rect><rect class="cls-3" x="230.79" y="350.49" width="282.74" height="86.99" rx="8.69"></rect><rect class="cls-2" x="347.61" y="389.05" width="143.12" height="9.88" rx="3.48"></rect><rect class="cls-2" x="347.61" y="409.23" width="143.12" height="9.88" rx="3.48"></rect><ellipse class="cls-4" cx="262.43" cy="409.43" rx="10.46" ry="10.4"></ellipse><ellipse class="cls-4" cx="287.14" cy="409.43" rx="10.46" ry="10.4"></ellipse><ellipse class="cls-4" cx="310.25" cy="409.43" rx="10.46" ry="10.4"></ellipse><rect class="cls-5" x="236.8" y="434.53" width="268.52" height="2.96" rx="1.1"></rect><rect class="cls-6" x="236.8" y="350.49" width="268.52" height="2.96" rx="1.1"></rect><path class="cls-7" d="M664.63,393.81c-.28-.33-.58-.67-.9-1L382,111.13a14,14,0,0,0-19.74,0L80.6,392.82c-.33.32-.62.66-.91,1A13.9,13.9,0,0,1,80.6,375L362.3,93.34a14,14,0,0,1,19.74,0L663.73,375A13.91,13.91,0,0,1,664.63,393.81Z"></path><path class="cls-8" d="M593.83,620.81V638.6a14,14,0,0,1-14,13.95H164.44a14,14,0,0,1-14-13.95V620.81a14,14,0,0,0,14,14H579.87A14,14,0,0,0,593.83,620.81Z"></path><rect class="cls-9" width="720" height="720"></rect></g></g></g></svg>