<svg xmlns="http://www.w3.org/2000/svg" width="156.159" height="47.386" viewBox="0 0 156.159 47.386"><defs><style>.a{fill:#ff6c37;}.b{fill:#fff;}</style></defs><g transform="translate(-42.482 -37.982)"><g transform="translate(97.562 54.118)"><path class="a" d="M275,120.493V106.778a.593.593,0,0,1,.19-.426.64.64,0,0,1,.5-.166h3.861a4.63,4.63,0,0,1,3.151,1.066,4.308,4.308,0,0,1,1.184,3.34v.19a4.287,4.287,0,0,1-1.208,3.364,4.633,4.633,0,0,1-3.2,1.066h-2.748v5.283a.508.508,0,0,1-.261.45,1.221,1.221,0,0,1-1.208,0A.508.508,0,0,1,275,120.493Zm1.706-6.7h2.772a2.584,2.584,0,0,0,1.99-.734,2.9,2.9,0,0,0,.711-2.179v-.237a2.966,2.966,0,0,0-.711-2.179,2.688,2.688,0,0,0-1.99-.711h-2.748Z" transform="translate(-275 -106.162)"></path><path class="a" d="M337.7,116.865V110.73a4.33,4.33,0,0,1,1.184-3.364,5.33,5.33,0,0,1,6.4,0,4.287,4.287,0,0,1,1.208,3.364v6.135a4.254,4.254,0,0,1-1.208,3.364,5.26,5.26,0,0,1-6.4,0A4.33,4.33,0,0,1,337.7,116.865Zm1.729,0c0,1.919.876,2.89,2.677,2.89a2.688,2.688,0,0,0,1.99-.711,3,3,0,0,0,.711-2.179v-6.159a2.966,2.966,0,0,0-.711-2.179,2.688,2.688,0,0,0-1.99-.711c-1.777,0-2.653.948-2.653,2.89Z" transform="translate(-322.847 -106.253)"></path><path class="a" d="M400.4,118.939a1.064,1.064,0,0,1,.237-.64.7.7,0,0,1,.5-.308.732.732,0,0,1,.474.261c.19.166.379.355.592.569a2.693,2.693,0,0,0,.971.569,4.046,4.046,0,0,0,1.492.261,3.122,3.122,0,0,0,2.085-.64,2.371,2.371,0,0,0,.758-1.9,2.479,2.479,0,0,0-.687-1.824,4.629,4.629,0,0,0-1.682-1.066c-.663-.237-1.3-.5-1.99-.782a4.255,4.255,0,0,1-1.682-1.279,3.412,3.412,0,0,1-.687-2.227,3.985,3.985,0,0,1,.4-1.871,2.77,2.77,0,0,1,1.09-1.184,6.22,6.22,0,0,1,1.421-.592,7.054,7.054,0,0,1,1.563-.19,8.286,8.286,0,0,1,2.416.355c.758.261,1.161.592,1.161.995a1.022,1.022,0,0,1-.213.616.611.611,0,0,1-.521.332,7.4,7.4,0,0,1-.924-.355,4.308,4.308,0,0,0-1.9-.379,3.663,3.663,0,0,0-1.99.5,1.782,1.782,0,0,0-.758,1.611,1.9,1.9,0,0,0,.663,1.54,5.078,5.078,0,0,0,1.682.924c.663.237,1.327.5,1.99.805a4.428,4.428,0,0,1,1.658,1.445,4.54,4.54,0,0,1,.687,2.535,3.955,3.955,0,0,1-1.232,3.174,4.6,4.6,0,0,1-3.245,1.066,5.974,5.974,0,0,1-3.056-.758C400.826,119.934,400.4,119.437,400.4,118.939Z" transform="translate(-370.695 -106.1)"></path><path class="a" d="M459.1,106.958a.807.807,0,0,1,.166-.521.488.488,0,0,1,.45-.237h8.291a.488.488,0,0,1,.45.237.807.807,0,0,1,.166.521.994.994,0,0,1-.166.569.488.488,0,0,1-.45.237h-3.245v12.744a.508.508,0,0,1-.261.45,1.221,1.221,0,0,1-1.208,0,.508.508,0,0,1-.261-.45V107.763H459.74a.488.488,0,0,1-.45-.237A.964.964,0,0,1,459.1,106.958Z" transform="translate(-415.49 -106.176)"></path><path class="a" d="M523.865,120.527V107.1a.746.746,0,0,1,.616-.853.484.484,0,0,1,.261,0c.545,0,.995.355,1.374,1.09l3.2,6.135,3.222-6.135c.4-.711.853-1.09,1.374-1.09a.746.746,0,0,1,.853.616h0a.329.329,0,0,1,0,.213V120.5a.508.508,0,0,1-.261.45,1.221,1.221,0,0,1-1.208,0,.508.508,0,0,1-.261-.45V109.82l-3.079,5.78a.712.712,0,0,1-.663.5.74.74,0,0,1-.64-.5l-3.079-5.9v10.8a.508.508,0,0,1-.261.45,1.036,1.036,0,0,1-1.161.024A.434.434,0,0,1,523.865,120.527Z" transform="translate(-464.904 -106.195)"></path><path class="a" d="M594.6,120.489a.439.439,0,0,1,.047-.166l4.169-13.431c.118-.4.474-.592,1.042-.592s.924.19,1.042.592l4.193,13.5v.118a.575.575,0,0,1-.332.5,1.175,1.175,0,0,1-.758.189.591.591,0,0,1-.616-.379l-.9-2.985h-5.354l-.9,2.985a.592.592,0,0,1-.616.4,1.234,1.234,0,0,1-.687-.213A.544.544,0,0,1,594.6,120.489Zm2.961-4.074h4.572l-2.274-7.628Z" transform="translate(-518.891 -106.253)"></path><path class="a" d="M663.8,120.508V106.792c0-.4.284-.592.853-.592a1.208,1.208,0,0,1,.734.261,2.47,2.47,0,0,1,.569.829l5.093,9.949V106.792a.447.447,0,0,1,.261-.426,1.221,1.221,0,0,1,1.208,0,.5.5,0,0,1,.261.426v13.716a.508.508,0,0,1-.261.45,1.069,1.069,0,0,1-.592.166,1.206,1.206,0,0,1-1.066-.782l-5.354-10.257v10.423a.539.539,0,0,1-.237.45,1.221,1.221,0,0,1-1.208,0A.508.508,0,0,1,663.8,120.508Z" transform="translate(-571.699 -106.176)"></path></g><path class="a" d="M89.674,64.683A23.692,23.692,0,1,0,63.143,85.174h0A23.723,23.723,0,0,0,89.674,64.683Z" transform="translate(0)"></path><path class="b" d="M137.315,98.575l-10,10-2.819-2.819C134.331,95.922,135.3,96.775,137.315,98.575Z" transform="translate(-62.589 -45.381)"></path><path class="a" d="M126.48,108.068h0a.215.215,0,0,1-.166-.071l-2.843-2.819a.229.229,0,0,1,0-.332h0c10-10,11.039-9.049,13.147-7.154a.229.229,0,0,1,0,.332l-10,9.973A.169.169,0,0,1,126.48,108.068Zm-2.487-3.056,2.487,2.487,9.641-9.641C134.368,96.295,133.183,95.821,123.992,105.012Z" transform="translate(-61.75 -44.64)"></path><path class="b" d="M139.724,115.521,137,112.8l10-10C149.673,105.5,145.67,109.883,139.724,115.521Z" transform="translate(-72.128 -49.464)"></path><path class="a" d="M139.037,114.995h0a.215.215,0,0,1-.166-.071l-2.724-2.724a.2.2,0,0,1-.047-.166.215.215,0,0,1,.071-.166l10-10a.229.229,0,0,1,.332,0,2.884,2.884,0,0,1,.924,2.2c-.047,2.629-3.032,5.97-8.2,10.849A.378.378,0,0,1,139.037,114.995Zm-2.393-2.961c1.516,1.54,2.156,2.156,2.393,2.393,3.98-3.79,7.841-7.675,7.865-10.352a2.524,2.524,0,0,0-.616-1.706Z" transform="translate(-71.441 -48.7)"></path><path class="b" d="M116.133,132.717l2.014,2.014a.089.089,0,0,1,0,.142c-.024.024-.024.024-.047.024l-4.169.9a.415.415,0,0,1-.45-.332.35.35,0,0,1,.095-.308l2.416-2.416C116.039,132.693,116.11,132.669,116.133,132.717Z" transform="translate(-54.175 -72.274)"></path><path class="a" d="M113.116,135.22a.617.617,0,0,1-.616-.64.647.647,0,0,1,.19-.45l2.416-2.416a.36.36,0,0,1,.474,0l2.014,2.014a.316.316,0,0,1,0,.474.382.382,0,0,1-.166.095l-4.169.9C113.211,135.2,113.163,135.22,113.116,135.22Zm2.2-3.056L113,134.485a.143.143,0,0,0-.024.19.122.122,0,0,0,.166.071l3.909-.853Z" transform="translate(-53.432 -71.46)"></path><path class="b" d="M179.978,75.354a3.837,3.837,0,1,0-.663,6.064l-2.7-2.7Z" transform="translate(-99.97 -27.703)"></path><path class="a" d="M176.574,81.449a4.074,4.074,0,1,1,2.819-7.012.229.229,0,0,1,0,.332l-3.2,3.2,2.511,2.511a.229.229,0,0,1,0,.332l-.047.047A4.018,4.018,0,0,1,176.574,81.449Zm0-7.651a3.589,3.589,0,1,0,.024,7.178,3.406,3.406,0,0,0,1.587-.379L175.7,78.132a.229.229,0,0,1,0-.332l3.174-3.174a3.511,3.511,0,0,0-2.3-.829Z" transform="translate(-99.219 -26.952)"></path><path class="b" d="M190.135,78.947l-.047-.047L186.7,82.24l2.677,2.677a4.338,4.338,0,0,0,.734-.569A3.8,3.8,0,0,0,190.135,78.947Z" transform="translate(-110.055 -31.225)"></path><path class="a" d="M188.637,84.338a.215.215,0,0,1-.166-.071l-2.7-2.7a.229.229,0,0,1,0-.332l3.364-3.364a.229.229,0,0,1,.332,0l.071.047a4.1,4.1,0,0,1,.024,5.756,3.894,3.894,0,0,1-.782.616A.932.932,0,0,1,188.637,84.338ZM186.269,81.4l2.393,2.393a3.133,3.133,0,0,0,.521-.426,3.607,3.607,0,0,0,.118-4.975Z" transform="translate(-109.292 -30.386)"></path><path class="b" d="M144.891,102.626h0a1.458,1.458,0,0,0-2.061,0l-8.931,8.931,1.492,1.492,9.452-8.291a1.461,1.461,0,0,0,.142-2.061A.327.327,0,0,1,144.891,102.626Z" transform="translate(-69.762 -49.006)"></path><path class="a" d="M134.529,112.523a.215.215,0,0,1-.166-.071l-1.492-1.492a.229.229,0,0,1,0-.332h0L141.8,101.7a1.687,1.687,0,0,1,2.393,0h0a1.687,1.687,0,0,1,0,2.393l-.071.071-9.452,8.291A.143.143,0,0,1,134.529,112.523Zm-1.137-1.729,1.161,1.161,9.286-8.149a1.227,1.227,0,0,0-1.587-1.871.327.327,0,0,1-.095.071Z" transform="translate(-68.923 -48.243)"></path><path class="b" d="M94.851,156.594a.208.208,0,0,0-.118.237l.4,1.706a.452.452,0,0,1-.308.592.475.475,0,0,1-.521-.142L91.7,156.4l8.5-8.5,2.937.047,1.99,1.99C104.658,150.34,101.791,153.111,94.851,156.594Z" transform="translate(-37.559 -83.88)"></path><path class="a" d="M94.051,158.6a.645.645,0,0,1-.5-.213l-2.582-2.582a.229.229,0,0,1,0-.332l8.5-8.5a.256.256,0,0,1,.166-.071l2.937.047a.215.215,0,0,1,.166.071l1.99,1.99a.269.269,0,0,1,.071.189.179.179,0,0,1-.095.166l-.166.142a47.776,47.776,0,0,1-10.162,6.514l.4,1.682a.747.747,0,0,1-.355.805A.812.812,0,0,1,94.051,158.6Zm-2.606-2.961,2.44,2.416a.244.244,0,0,0,.426-.237l-.4-1.706a.432.432,0,0,1,.237-.5h0a49.439,49.439,0,0,0,10.068-6.443l-1.753-1.753-2.724-.047Z" transform="translate(-36.949 -83.117)"></path><path class="b" d="M82.886,185.837l2.037-2.037,3.032,3.032-4.832-.332a.378.378,0,0,1-.332-.426A.275.275,0,0,1,82.886,185.837Z" transform="translate(-30.759 -111.276)"></path><path class="a" d="M87.119,186.206h0l-4.856-.332a.621.621,0,0,1-.569-.687.585.585,0,0,1,.19-.379l2.037-2.037a.229.229,0,0,1,.332,0h0l3.032,3.032a.216.216,0,0,1,.047.261A.228.228,0,0,1,87.119,186.206Zm-3.032-2.914-1.871,1.871a.133.133,0,0,0,0,.213.123.123,0,0,0,.095.047l4.193.284Z" transform="translate(-29.923 -110.436)"></path><path class="a" d="M123.337,143.572a.237.237,0,0,1-.237-.237.215.215,0,0,1,.071-.166l2.3-2.3a.229.229,0,0,1,.332,0l1.492,1.492a.227.227,0,0,1,.071.237.271.271,0,0,1-.189.166l-3.79.805Zm2.3-2.2-1.563,1.563,2.558-.545Z" transform="translate(-61.521 -78.462)"></path><path class="b" d="M130.2,143.369l-2.606.569a.352.352,0,0,1-.332-.592l1.445-1.445Z" transform="translate(-64.622 -79.301)"></path><path class="a" d="M126.892,143.335a.586.586,0,0,1-.592-.592.681.681,0,0,1,.166-.426l1.445-1.445a.229.229,0,0,1,.332,0l1.492,1.492a.227.227,0,0,1,.071.237.271.271,0,0,1-.19.166l-2.606.569Zm1.184-1.966-1.279,1.279a.112.112,0,0,0-.024.142.143.143,0,0,0,.142.071l2.179-.474Z" transform="translate(-63.963 -78.462)"></path><path class="a" d="M199.2,88.119a.277.277,0,1,0-.521.19c0,.024.024.047.024.071a.884.884,0,0,1-.095.9.288.288,0,0,0,.024.379.267.267,0,0,0,.379-.047A1.388,1.388,0,0,0,199.2,88.119Z" transform="translate(-119.094 -38.122)"></path></g></svg>