<svg xmlns="http://www.w3.org/2000/svg" xmlns:xlink="http://www.w3.org/1999/xlink" viewBox="0 0 741.61 862.25"><defs><style>.cls-1{fill:none;}.cls-2,.cls-5,.cls-8{isolation:isolate;}.cls-3{fill:#cee0f2;opacity:0.4;}.cls-4{mix-blend-mode:multiply;opacity:0.04;}.cls-5,.cls-6{fill:#e00;}.cls-5,.cls-8{opacity:0.79;}.cls-7{fill:#fff;}.cls-8{fill:#ee5151;}.cls-9{fill:#0c7ff2;}.cls-10{fill:#0b74de;}.cls-11{fill:#00b3e0;}.cls-12{clip-path:url(#clip-path);}.cls-13{fill:#d10202;}</style><clipPath id="clip-path"><path class="cls-1" d="M30.58,485.32l7.63-3.52s-2.69-23,10.75-32.49,27.89-5.38,36.16-2-12.49-21.5-12.49-21.5l-35.52,4.68L10.24,444.21,4.85,492.58Z"></path></clipPath></defs><g class="cls-2"><g id="Layer_2" data-name="Layer 2"><g id="Layer_1-2" data-name="Layer 1"><path class="cls-3" d="M171.65,258.53V101.18L345.4,0,517.05,101.18V259L344.6,358.69Z"></path><path class="cls-4" d="M346.36,357.15,173.69,257.7,346.44,159,518,258Z"></path><path class="cls-4" d="M345.74,337.45l-70.45-40.68,70-40.41L415.77,297Z"></path><path class="cls-4" d="M344.19,828.35l-70.46-40.68,70-40.41,70.44,40.68Z"></path><path class="cls-5" d="M171.65,258.53,345,357.68,172.73,456.76.54,357.34l171.11-98.81"></path><path class="cls-6" d="M344.91,357.66l-172.26,99,0,198L345,556l-.08-198.34"></path><path class="cls-7" d="M172.19,654.66,0,555.24V357.66l172.19,99.42Z"></path><path class="cls-5" d="M345.62,195.2,264,147.93l81-46.75,82.11,46.9Z"></path><path class="cls-6" d="M427,148.09l-81.5,47v93.54L427,241.63V148.09"></path><path class="cls-8" d="M345.26,288.68l-81.5-47.05V148.09l81.5,47Z"></path><path class="cls-9" d="M517.28,457.19,345.1,357.76,516.21,259,690,357.47Z"></path><path class="cls-10" d="M689.77,358.09v197.6L517.58,655.12V457.51Z"></path><path class="cls-7" d="M471.84,344.76a3.22,3.22,0,0,0-2.21-1.72,6.48,6.48,0,0,0-5.38.59,1.78,1.78,0,0,0-.89,2.34,1.92,1.92,0,0,0,.89.89,6.85,6.85,0,0,0,5.75.4C471.5,346.72,472.2,345.7,471.84,344.76ZM468.21,349a7.42,7.42,0,0,1-6.93-2.69c-.78-1.51.24-3.23,2.5-4.11a10.68,10.68,0,0,1,7.71,0c2.47,1,3.44,3,2.2,4.59a7.47,7.47,0,0,1-5.47,2.21Zm72.55,32.52c.24.94.56,1.86.73,2.69a14.12,14.12,0,0,0-6.42.62c-.67.19-1.13.56-1.8.78-5.18-2.26-10.15-4.71-15-7.2-6.66-3.47-13.11-7.1-19.1-11a195,195,0,0,1-22.25-16.41c.73-.17,1.53-.17,2.28-.3-1.69-.75-3.58-1.35-5.39-2.07,0-.21.52-.38.7-.59a5.5,5.5,0,0,1,1.1-1c6.53,1,13,2.26,19.3,3.58a420.07,420.07,0,0,1,42.18,11L541.2,363c-.45.3-1,.54-1.47.83L546,364a3.5,3.5,0,0,0-.16,2.93,6.87,6.87,0,0,0,4,3c.3,0,0,.27,0,.38-1.5,2.18-3,4.38-4.43,6.58-1,1.48-1.91,3-3,4.52l-2-.83a4.16,4.16,0,0,0,.21,1Zm9.94-20.32a17.38,17.38,0,0,0-2.5,1,8.39,8.39,0,0,0-1.77,1.37c-1.29-.94-2.45-1.94-3.68-2.9l-.41,1.5a5.39,5.39,0,0,1-1-.24,431.48,431.48,0,0,0-64.76-15.66c-.24,0-.65,0-.51-.3a4.73,4.73,0,0,0,0-1.91l30.74-5.38c3.31-.59,6.58-1.21,9.88-1.77v1.34l4.6-2.69a7,7,0,0,0,2.69,2.17,13.8,13.8,0,0,0,8.41.89c.32.3.54.62.81.91q5.61,6.85,11,13.79l4,5.21h-2.48c1.53,1,3.36,1.75,4.79,2.69Zm-3.22,29.56a3.28,3.28,0,0,0-1.06-4.51l0,0h0a10.3,10.3,0,0,0-4.09-1.8c1.32-1,2.9-1.8,4.3-2.69h-2.23a3.74,3.74,0,0,1,.51-.89q3.23-5.1,6.75-10.18c0-.21.56-.17.86,0a13.46,13.46,0,0,0,6-.57,6.73,6.73,0,0,0,3.71-2.69,3.32,3.32,0,0,0-1.26-4.27,10.66,10.66,0,0,0-5.38-2,16.88,16.88,0,0,0-4.2.16c0-1.27.3-2.5.41-3.73-.67.19-1.1.54-1.72.75a1.19,1.19,0,0,1-.35-.32q-7.5-9.68-15.34-19.29c-.17-.17-.21-.38,0-.46,2.69-1.08,4-3.12,3.35-4.95a7,7,0,0,0-5.07-3.54,14.38,14.38,0,0,0-5.39-.21,8.06,8.06,0,0,0-6,3.31,3.34,3.34,0,0,0,0,2.7c-2.2,0-4.38-.35-6.58-.43a9.29,9.29,0,0,1,1.4,1.1q-20.13,3.6-40.31,7.12a.57.57,0,0,1-.67-.25A11.58,11.58,0,0,0,466,340.8a8.28,8.28,0,0,0-6.18,3.12,3.19,3.19,0,0,0,.69,4.14,10.54,10.54,0,0,0,6.29,2.36,13.64,13.64,0,0,0,6.37-1.07c.32,1.21.38,2.44.62,3.65.54-.32,1-.69,1.56-1a8.85,8.85,0,0,1,1.13.89,232.87,232.87,0,0,0,54.6,33.32c.41.17.81.36,1.21.57,0,.35-.49.62-.65,1-1.18,1.9,0,4.24,2.93,5.37a14,14,0,0,0,7.61.78,8.09,8.09,0,0,0,5.21-3.12Zm2.15,9.49a45.42,45.42,0,0,1-13.92,2.2,43.09,43.09,0,0,1-20.5-4.57c-5.89-3.44-11.83-6.83-17.71-10.24L454.76,363a19.4,19.4,0,0,1-8.52-9.43,11.75,11.75,0,0,1,1.13-10,20.32,20.32,0,0,1,5.59-5.8,27.77,27.77,0,0,1,3.47-2.09,44.85,44.85,0,0,1,15.4-4.52,56.74,56.74,0,0,1,17.3.64c.32,0,.75.19,1,0a41.72,41.72,0,0,1,9.37-5.1,61.12,61.12,0,0,1,17.93-3.68,70,70,0,0,1,17.33,1.34,48.8,48.8,0,0,1,15.72,6.13,23.2,23.2,0,0,1,9.11,9.91,13.46,13.46,0,0,1,0,10.91c-.3.73-.75,1.43-1.08,2.13a31.92,31.92,0,0,1,10,2.69c4.68,2.28,7.8,5.69,8.07,9.24a10.09,10.09,0,0,1-5.38,8.76,26.1,26.1,0,0,1-9.32,3.66,8,8,0,0,0-1.18.24,20.52,20.52,0,0,1,2,2.95,10.43,10.43,0,0,1-.78,10.91,24.15,24.15,0,0,1-12.42,8.41Z"></path><path class="cls-11" d="M584.87,763.15l-86.23-49.79,85.69-49.47,86.22,49.79Z"></path><path class="cls-10" d="M671.1,812.46l-86.26,49.79V763.31l86.26-49.79Z"></path><path class="cls-9" d="M584.6,862.25l-86.23-49.79V713.52l86.23,49.79Z"></path><path class="cls-6" d="M58.31,489.78l-19.67-3.17a100.31,100.31,0,0,0,1.55,11.58l18.82,3a51.08,51.08,0,0,1-.57-11.45"></path><path class="cls-6" d="M145.1,515q-2.1-6.17-4.81-12.1l-19.64-3.11A90.67,90.67,0,0,1,126.43,512Z"></path><path class="cls-6" d="M102,483.63a85.9,85.9,0,0,1,10.75,14.8l19.67,3.15c-18-39.39-53.12-66.37-78.38-60.27-16.12,3.87-24.91,20.59-23.38,44l19.68,3.14c1.48-22.16,19-29.34,39-16.12a69.43,69.43,0,0,1,12.79,11.23"></path><path class="cls-6" d="M41.33,498.38l-18.81-2.93a120.92,120.92,0,0,0,8.78,26.87l19.62,3.15a80.68,80.68,0,0,1-9.73-27.09"></path><path class="cls-6" d="M122.91,537a30.79,30.79,0,0,1-3.32,12.57c-8.51,16.12-30.23,12.6-48.53-7.71a84.59,84.59,0,0,1-10.74-14.89l-19.61-3.11c18,39.36,53,66.37,78.3,60.32a27.87,27.87,0,0,0,18.38-14.75,54.66,54.66,0,0,0,5-29.26Z"></path><path class="cls-6" d="M127.73,512.19l-18.63-3a63.69,63.69,0,0,1,4.56,26.25l19.65,3.14a104.7,104.7,0,0,0-5.54-26.41"></path><path class="cls-6" d="M58.23,494.27a42,42,0,0,1,0-4.49l-19.59-3.17a36.84,36.84,0,0,0,.46,4.57Z"></path><path class="cls-6" d="M142.41,507.38c-.62-1.5-1.24-3-1.93-4.51l-19.64-3.12c.86,1.51,1.66,3,2.42,4.6Z"></path><path class="cls-6" d="M40.82,523.83c1.5,3.33,3.19,6.62,5,9.86l21.5,3.38a83.12,83.12,0,0,1-6.91-10.14ZM142.52,540l-19.61-3.12a34.53,34.53,0,0,1-1.64,8.73L142.6,549a70.81,70.81,0,0,0,0-9"></path><g class="cls-12"><path class="cls-13" d="M58.31,489.78l-19.67-3.17a100.31,100.31,0,0,0,1.55,11.58l18.82,3a51.08,51.08,0,0,1-.57-11.45"></path><path class="cls-13" d="M145.1,515c-1.4-4.1-3-8.14-4.81-12.09l-19.64-3.11A90.11,90.11,0,0,1,126.43,512Z"></path><path class="cls-13" d="M102,483.63a85.32,85.32,0,0,1,10.74,14.8l19.68,3.15c-18-39.4-53.13-66.37-78.38-60.27-16.12,3.87-24.91,20.58-23.38,44l19.67,3.15c1.48-22.16,19-29.34,39.05-16.12a69.43,69.43,0,0,1,12.79,11.23"></path><path class="cls-13" d="M41.33,498.38l-18.81-2.93a120.92,120.92,0,0,0,8.78,26.87l19.62,3.14a80.55,80.55,0,0,1-9.73-27.08"></path><path class="cls-13" d="M122.91,537a30.79,30.79,0,0,1-3.32,12.57c-8.51,16.12-30.23,12.6-48.53-7.71a84.59,84.59,0,0,1-10.74-14.89l-19.61-3.11c18,39.36,53,66.37,78.3,60.32a27.87,27.87,0,0,0,18.38-14.75,54.66,54.66,0,0,0,5-29.26Z"></path><path class="cls-13" d="M127.73,512.19l-18.64-3a63.58,63.58,0,0,1,4.57,26.26l19.64,3.14a104.16,104.16,0,0,0-5.53-26.41"></path><path class="cls-13" d="M58.23,494.27a42,42,0,0,1,0-4.49l-19.59-3.17a36.84,36.84,0,0,0,.46,4.57Z"></path><path class="cls-13" d="M142.41,507.38c-.62-1.51-1.24-3-1.93-4.51l-19.64-3.12c.86,1.5,1.66,3,2.41,4.59Z"></path><path class="cls-13" d="M40.82,523.83c1.5,3.33,3.19,6.62,5,9.86l21.5,3.38a83.12,83.12,0,0,1-6.91-10.14ZM142.52,540l-19.61-3.12a34.53,34.53,0,0,1-1.64,8.73L142.6,549a70.81,70.81,0,0,0,0-9"></path></g><path class="cls-4" d="M345.37,754.11,172.7,654.66l172.75-98.75L517,655Z"></path><path class="cls-11" d="M663.79,160.32,586,115.39l77.31-44.63,77.81,44.9Z"></path><path class="cls-9" d="M741.61,204.82l-77.82,44.92V160.45l77.82-44.92Z"></path><path class="cls-10" d="M663.55,249.74l-77.79-44.92V115.53l77.79,44.92Z"></path><path class="cls-5" d="M344.06,686l-81.59-47.17,81-46.76,82,46.95Z"></path><path class="cls-6" d="M425.49,639,344,686.05v93.53l81.52-47.05V639"></path><path class="cls-8" d="M343.73,779.58,262.2,732.53V639l81.53,47.06Z"></path><polygon class="cls-11" points="517.58 457.51 517.58 654.98 345.45 555.91 345.1 357.76 517.58 457.51"></polygon></g></g></g></svg>