<svg xmlns="http://www.w3.org/2000/svg" viewBox="0 0 776 437"><defs><style>.cls-1{isolation:isolate;}.cls-2{fill:#fff;}.cls-3{fill:#0c7ff2;}.cls-4{fill:#cee0f2;}.cls-5{fill:#2e2e76;}.cls-6{fill:#9caab8;mix-blend-mode:multiply;}</style></defs><g class="cls-1"><g id="Layer_2" data-name="Layer 2"><g id="Layer_1-2" data-name="Layer 1"><rect class="cls-2" width="776" height="437"></rect><rect class="cls-3" x="302.68" y="241.15" width="104.79" height="14.54"></rect><path class="cls-4" d="M497.06,147.38a3.85,3.85,0,0,1-2.54,1l-49.73-.5A3.77,3.77,0,0,1,441,144l0-3.19a2.64,2.64,0,0,1,0-.29l-6.15-2.24a3.78,3.78,0,0,1-.89.4l-33.71,9.8-.1.77a3.79,3.79,0,0,1-4.24,3.28l-6.65-.85-3.06.89a3.77,3.77,0,0,1-4.39-1.84l-35.23-4.49a3.81,3.81,0,0,1-2.89-2l-26.88,9.93A3.79,3.79,0,0,1,312,151.9l-.93-2.53-29.41,10.87a3.77,3.77,0,0,1-4.86-2.23l-.1-.27q.7-3.88,1.62-7.74a142,142,0,0,1,10.54-29.3l8.47-17.27,11.43-23.34H467.28l11.43,23.34,8.47,17.27a141.54,141.54,0,0,1,6.95,16.85C495.23,140.79,496.2,144.08,497.06,147.38Z"></path><path class="cls-5" d="M501.6,182.9V335.25a55.41,55.41,0,0,1-55.41,55.41H329.88a55.41,55.41,0,0,1-55.41-55.41V182.9a142.08,142.08,0,0,1,2.26-25.16q.7-3.88,1.62-7.74l46.26-17.1a3.79,3.79,0,0,1,4.86,2.24l.94,2.53,29.43-10.88A3.79,3.79,0,0,1,364.7,129l1.1,3a3.78,3.78,0,0,1-2.23,4.86l-1.32.48,26.25,3.36,29.5-8.59-6.78-2.46a3.78,3.78,0,0,1-2.27-4.84l1.1-3a3.78,3.78,0,0,1,4.84-2.27l46.76,17a3.88,3.88,0,0,1,1.18.7l31.3.31c1.1,3.24,2.07,6.53,2.93,9.83A141.44,141.44,0,0,1,501.6,182.9Z"></path><rect class="cls-3" x="274.47" y="200.52" width="227.13" height="77.84"></rect><path class="cls-4" d="M329.88,255.58a20.84,20.84,0,0,1-8.22-1.41,11.73,11.73,0,0,1-5-3.69,8.56,8.56,0,0,1-1.78-4.85,1,1,0,0,1,.32-.72,1.06,1.06,0,0,1,.77-.32h6.23a1.88,1.88,0,0,1,1.07.25,2.7,2.7,0,0,1,.67.64,5.57,5.57,0,0,0,1.11,1.44A5.18,5.18,0,0,0,327,248a8.65,8.65,0,0,0,2.87.42,8.38,8.38,0,0,0,4.33-.89,2.72,2.72,0,0,0,1.46-2.42,2.33,2.33,0,0,0-.79-1.84,7.51,7.51,0,0,0-2.55-1.26,43,43,0,0,0-4.68-1.16,28.26,28.26,0,0,1-6.41-2.06,9.81,9.81,0,0,1-4-3.31,9.75,9.75,0,0,1,.33-10.52,11.17,11.17,0,0,1,4.77-3.72,18.2,18.2,0,0,1,7.28-1.33,18.43,18.43,0,0,1,6,.89A13.67,13.67,0,0,1,340,223.2a11.44,11.44,0,0,1,2.7,3.15,7.08,7.08,0,0,1,1,3.24,1.09,1.09,0,0,1-.27.72,1,1,0,0,1-.77.32h-6.53a2,2,0,0,1-.94-.2,1.76,1.76,0,0,1-.7-.64,3.42,3.42,0,0,0-1.56-1.91,6,6,0,0,0-3.29-.81,6.35,6.35,0,0,0-3.39.76,2.6,2.6,0,0,0-1.21,2.35,2.54,2.54,0,0,0,.66,1.74,5.41,5.41,0,0,0,2.23,1.28,35.73,35.73,0,0,0,4.29,1.14,32.18,32.18,0,0,1,7.27,2.11,9.38,9.38,0,0,1,4.09,3.26,9.94,9.94,0,0,1-.62,10.82,12.3,12.3,0,0,1-5.27,3.74A21.26,21.26,0,0,1,329.88,255.58Z"></path><path class="cls-4" d="M347.26,255.09a1,1,0,0,1-.72-.33,1,1,0,0,1-.32-.71,1.55,1.55,0,0,1,0-.45l11.63-31.78a2,2,0,0,1,.62-1,1.89,1.89,0,0,1,1.31-.42h7.33a1.91,1.91,0,0,1,1.31.42,2,2,0,0,1,.62,1l11.58,31.78a.93.93,0,0,1,.1.45,1,1,0,0,1-.32.71,1,1,0,0,1-.77.33h-6.09a1.51,1.51,0,0,1-1.11-.38,1.66,1.66,0,0,1-.47-.66L370.08,249H356.86L355,254.05a1.93,1.93,0,0,1-.45.66,1.57,1.57,0,0,1-1.19.38Zm11.63-13.22h9.21l-4.61-13.07Z"></path><path class="cls-4" d="M391.86,255.09a1.92,1.92,0,0,1-1.34-.45,2.38,2.38,0,0,1-.69-1l-10.1-31.68a1.19,1.19,0,0,1-.1-.45,1,1,0,0,1,.32-.72,1.07,1.07,0,0,1,.77-.32h6.14a1.67,1.67,0,0,1,1.24.45,2,2,0,0,1,.54.84l7,22.87,7-22.87a2.71,2.71,0,0,1,.57-.84,1.58,1.58,0,0,1,1.21-.45h6.19a1,1,0,0,1,.72.32,1,1,0,0,1,.32.72,1.19,1.19,0,0,1-.1.45l-10.1,31.68a2,2,0,0,1-.64,1,2,2,0,0,1-1.39.45Z"></path><path class="cls-4" d="M417.5,255.09a1.16,1.16,0,0,1-.89-.38,1.2,1.2,0,0,1-.34-.86V221.67a1.18,1.18,0,0,1,1.23-1.24h6.64a1.29,1.29,0,0,1,.91.35,1.16,1.16,0,0,1,.37.89v32.18a1.15,1.15,0,0,1-.37.86,1.24,1.24,0,0,1-.91.38Z"></path><path class="cls-4" d="M445.89,227.46a1.07,1.07,0,0,1-.31.79,1,1,0,0,1-.73.31H418a1,1,0,0,1-.75-.31,1.09,1.09,0,0,1-.28-.79v-5.89a1.19,1.19,0,0,1,.28-.81,1,1,0,0,1,.75-.33h26.86a1,1,0,0,1,.73.33,1.17,1.17,0,0,1,.31.81Z"></path><path class="cls-4" d="M442.47,241a1,1,0,0,1-.27.74.87.87,0,0,1-.64.29H417.87a.85.85,0,0,1-.66-.29A1.07,1.07,0,0,1,417,241v-5.54a1.17,1.17,0,0,1,.25-.77.83.83,0,0,1,.66-.31h23.69a.86.86,0,0,1,.64.31,1.13,1.13,0,0,1,.27.77Z"></path><path class="cls-4" d="M445.89,254a1,1,0,0,1-.31.77,1,1,0,0,1-.73.3H418a1,1,0,0,1-.75-.3A1.06,1.06,0,0,1,417,254v-5.76a1.17,1.17,0,0,1,.28-.8,1,1,0,0,1,.75-.32h26.86a1,1,0,0,1,.73.32,1.14,1.14,0,0,1,.31.8Z"></path><polygon class="cls-6" points="478.71 103.43 297.36 103.43 308.79 80.09 467.28 80.09 478.71 103.43"></polygon><rect class="cls-3" x="300.16" y="45.88" width="175.74" height="41.7" rx="9.52"></rect></g></g></g></svg>