<svg xmlns="http://www.w3.org/2000/svg" xmlns:xlink="http://www.w3.org/1999/xlink" viewBox="0 0 561.23 401.55"><defs><style>.cls-1{fill:none;}.cls-2{isolation:isolate;}.cls-15,.cls-16,.cls-3,.cls-7,.cls-8{mix-blend-mode:multiply;}.cls-3{opacity:0.08;}.cls-10,.cls-4{mix-blend-mode:overlay;opacity:0.18;}.cls-5{clip-path:url(#clip-path);}.cls-14,.cls-6{fill-rule:evenodd;}.cls-15,.cls-7{opacity:0.48;}.cls-8{opacity:0.4;}.cls-9{fill:#2e2e76;}.cls-10,.cls-14,.cls-17{fill:#cee0f2;}.cls-11{fill:#0c7ff2;}.cls-12{clip-path:url(#clip-path-2);}.cls-13,.cls-18{fill:#fff;}.cls-15{fill:#9caab8;}.cls-16{opacity:0.1;}.cls-18{font-size:37.46px;font-family:Rubik-Medium, Rubik;font-weight:500;}.cls-19,.cls-20{fill:#9dc7f2;}.cls-20{mix-blend-mode:soft-light;opacity:0.59;}</style><clipPath id="clip-path"><path d="M390.21,95.58c0,3.13-1.9,6.13-5.76,8.36L241.16,186.66c-8.56,5-23.5,4.32-33.38-1.38L69.3,105.33c-5.08-2.91-7.83-6.62-8.16-10.17v-1.3c.22-3,2.12-5.7,5.76-7.8L210.17,3.33c8.56-4.94,23.5-4.31,33.38,1.39L382,84.67C387.44,87.8,390.21,91.78,390.21,95.58Z"></path></clipPath><clipPath id="clip-path-2"><path class="cls-1" d="M373.3,105.58c0,3.13-1.9,6.13-5.76,8.36L224.25,196.66c-8.56,5-23.5,4.32-33.38-1.38L52.39,115.33c-5.08-2.91-7.83-6.62-8.16-10.17v-1.3c.22-3,2.12-5.7,5.76-7.8L193.26,13.33c8.56-4.94,23.5-4.31,33.38,1.39l138.48,80C370.53,97.8,373.3,101.78,373.3,105.58Z"></path></clipPath></defs><g class="cls-2"><g id="Layer_2" data-name="Layer 2"><g id="Layer_1-2" data-name="Layer 1"><g class="cls-3"><path d="M390.21,95.58c0,3.13-1.9,6.13-5.76,8.36L241.16,186.66c-8.56,5-23.5,4.32-33.38-1.38L69.3,105.33c-5.08-2.91-7.83-6.62-8.16-10.17v-1.3c.22-3,2.12-5.7,5.76-7.8L210.17,3.33c8.56-4.94,23.5-4.31,33.38,1.39L382,84.67C387.44,87.8,390.21,91.78,390.21,95.58Z"></path><g class="cls-4"><path d="M390.21,95.58a8,8,0,0,1-1.46,4.56A18.49,18.49,0,0,0,382,94L243.55,14.08c-9.88-5.71-24.82-6.33-33.38-1.39L66.9,95.41a12.85,12.85,0,0,0-4.33,3.83,9.56,9.56,0,0,1-1.44-4.08v-1.3c.23-3,2.13-5.7,5.77-7.8L210.17,3.34c8.56-4.94,23.5-4.32,33.38,1.38L382,84.67C387.44,87.8,390.21,91.78,390.21,95.58Z"></path></g><path d="M390.21,95.58v91.69L376.57,196l-51.76,33v98.55l51.76-29.89,7.87-4.54c3.87-2.24,5.77-5.24,5.77-8.37v12.41a7.8,7.8,0,0,1-.63,3.06,8.77,8.77,0,0,1-.46.92A10.46,10.46,0,0,1,388,302.7c-.15.17-.31.34-.48.5a9.22,9.22,0,0,1-1,.92,14.88,14.88,0,0,1-2,1.38l-59.63,34.43-83.65,48.3a21.4,21.4,0,0,1-3.13,1.46,29.75,29.75,0,0,1-4.44,1.23c-.62.12-1.26.22-1.9.31a38.35,38.35,0,0,1-6,.31h0a38.26,38.26,0,0,1-17.9-4.68l-138.47-80A23.29,23.29,0,0,1,65.23,304h0c-.45-.42-.86-.83-1.24-1.26-.19-.22-.37-.43-.54-.65a13.43,13.43,0,0,1-.91-1.31,9.49,9.49,0,0,1-1.39-4V95.16q0,.33.09.66h0a8.44,8.44,0,0,0,.35,1.33s0,0,0,0a.32.32,0,0,1,0,.09h0q.09.27.21.54h0c.09.2.18.4.29.6s.28.53.44.8a14,14,0,0,0,.87,1.24c.17.22.35.43.54.65s.39.43.6.64c.41.42.87.83,1.35,1.24a23.38,23.38,0,0,0,3.37,2.31l119.1,68.77,0,0,19.35,11.17,1,.57c.56.29,1.13.57,1.71.82.79.35,1.6.68,2.43,1l1.1.37,1.12.35c.76.21,1.52.41,2.29.59a41.3,41.3,0,0,0,8.19,1h0c1.14,0,2.27,0,3.39-.05h0a34.77,34.77,0,0,0,4.54-.56l.92-.2c.69-.15,1.35-.33,2-.53q.33-.09.66-.21a21.88,21.88,0,0,0,4-1.75l41.14-23.75.06,0,102.08-58.93a14.4,14.4,0,0,0,3.05-2.3c.17-.16.33-.33.48-.5a10.26,10.26,0,0,0,.77-1l.07-.11a9.6,9.6,0,0,0,.54-.92.16.16,0,0,0,0-.07c.08-.18.17-.37.24-.55a0,0,0,0,0,0,0,4.3,4.3,0,0,0,.2-.57c.06-.18.11-.36.16-.55A8.05,8.05,0,0,0,390.21,95.58Z"></path><path d="M225.67,190V391.54a38.26,38.26,0,0,1-17.9-4.68l-138.47-80c-5.08-2.91-7.83-6.62-8.16-10.17V95.16c.33,3.55,3.08,7.26,8.16,10.17l138.47,80A38.6,38.6,0,0,0,225.67,190Z"></path><path d="M390.21,95.58c0,3.13-1.9,6.13-5.76,8.36L241.16,186.66c-8.56,5-23.5,4.32-33.38-1.38L69.3,105.33c-5.08-2.91-7.83-6.62-8.16-10.17v-1.3c.22-3,2.12-5.7,5.76-7.8L210.17,3.33c8.56-4.94,23.5-4.31,33.38,1.39L382,84.67C387.44,87.8,390.21,91.78,390.21,95.58Z"></path><g class="cls-5"><path d="M160.13,94.55a5.5,5.5,0,0,0,4.68,5.33l9,1.36a5.48,5.48,0,0,1,3.89,2.6l12.66,21a5.53,5.53,0,0,1,.47,4.69l-3.08,8.6a5.48,5.48,0,0,0,2.48,6.64l7.21,4.05a5.5,5.5,0,0,0,7-1.35l5.66-7a5.54,5.54,0,0,1,4.18-2l24.59-.42a5.48,5.48,0,0,1,4.3,2l6,7.07a5.49,5.49,0,0,0,7,1.22l7.14-4.17a5.51,5.51,0,0,0,2.37-6.7l-3.15-8.29a5.5,5.5,0,0,1,.33-4.62L275.26,102A5.42,5.42,0,0,1,279,99.3L288,97.61a5.49,5.49,0,0,0,4.48-5.5l-.16-8.24a5.48,5.48,0,0,0-4.68-5.33l-9-1.36a5.46,5.46,0,0,1-3.9-2.61l-12.65-21a5.53,5.53,0,0,1-.47-4.69l3.08-8.6a5.48,5.48,0,0,0-2.49-6.65l-7.21-4a5.47,5.47,0,0,0-7,1.34l-5.66,7a5.49,5.49,0,0,1-4.18,2l-24.59.43a5.5,5.5,0,0,1-4.31-2l-6-7.09a5.49,5.49,0,0,0-7-1.21l-7.13,4.17A5.49,5.49,0,0,0,186.84,41l3.15,8.3a5.51,5.51,0,0,1-.33,4.61L177.15,76.4a5.53,5.53,0,0,1-3.78,2.73l-8.91,1.67A5.51,5.51,0,0,0,160,86.3Zm66.11-28A22.64,22.64,0,1,1,203.58,90,22.7,22.7,0,0,1,226.24,66.58Z"></path></g><path class="cls-6" d="M225.67,190,184,249.35a15.08,15.08,0,0,1-20.23,4.18L24.09,167.63a15.07,15.07,0,0,1-4.17-21.87l42.65-57Z"></path><path class="cls-6" d="M561.23,211.78V356.14a16.63,16.63,0,0,1-16.63,16.62H354a29.19,29.19,0,0,1-29.18-29.17v-3.66l59.63-34.43a14.88,14.88,0,0,0,2-1.38,9.22,9.22,0,0,0,1-.92c.17-.16.33-.33.48-.5a10.46,10.46,0,0,0,1.15-1.59,8.77,8.77,0,0,0,.46-.92,7.8,7.8,0,0,0,.63-3.06V284.72c0,3.13-1.9,6.13-5.77,8.37l-7.87,4.54-51.76,29.89V229l51.76-33,13.64-8.7.52-.33H536.38a24.84,24.84,0,0,1,24.84,24.84Z"></path><path class="cls-6" d="M434.54,153.33h0a14.44,14.44,0,0,1-6.47,9.8l-37.34,23.81-.52.33L376.57,196l-51.76,33L292.15,249.8a15.08,15.08,0,0,1-17.21-.86,15.45,15.45,0,0,1-3-2.95l-39.41-51.06-1.5-2-2.23-2.89h0l.25-.17h0L380,92.84l6.92-4.46h0l.71-.46,43.61,53c.15.18.29.37.43.55,0,0,0,0,0,0a14.23,14.23,0,0,1,1.13,1.73c.22.4.42.8.61,1.2s.35.82.5,1.23.24.75.35,1.13l.12.54c.05.2.1.4.13.6s.08.44.11.66,0,.31.06.47,0,.49.06.74l0,.38q0,.41,0,.81v.29c0,.29,0,.59-.06.88a.88.88,0,0,1,0,.17C434.64,152.68,434.6,153,434.54,153.33Z"></path><path class="cls-7" d="M390.21,284.72v12.41a7.8,7.8,0,0,1-.63,3.06,8.77,8.77,0,0,1-.46.92A10.46,10.46,0,0,1,388,302.7c-.15.17-.31.34-.48.5a10.21,10.21,0,0,1-1,.92,14.88,14.88,0,0,1-2,1.38l-59.63,34.43-83.65,48.3a21.4,21.4,0,0,1-3.13,1.46,27.53,27.53,0,0,1-4.44,1.23c-.62.12-1.26.22-1.9.31a38.35,38.35,0,0,1-6,.31h0a38.26,38.26,0,0,1-17.9-4.68l-138.47-80A22.3,22.3,0,0,1,65.23,304h0A16.31,16.31,0,0,1,64,302.69c-.19-.22-.37-.43-.54-.65a11.89,11.89,0,0,1-.91-1.31,9.49,9.49,0,0,1-1.39-4V284.3c.33,3.55,3.08,7.26,8.16,10.17l138.47,80a38.26,38.26,0,0,0,17.9,4.68h0c5.79.15,11.36-.95,15.48-3.32l57.56-33.23,26.09-15.06,51.76-29.89,7.87-4.54C388.31,290.85,390.21,287.85,390.21,284.72Z"></path><path class="cls-6" d="M225.67,190l-3.54,5L62.56,96,19.92,153a15,15,0,0,0-2.57,5.39,15,15,0,0,1,2.57-12.63L62.56,88.81Z"></path><path class="cls-6" d="M434.32,154.4a15.42,15.42,0,0,0-3.11-6.19l-43.6-53.05L232.54,194.93l-3.73-4.84L387.61,87.92,431.21,141A15.3,15.3,0,0,1,434.32,154.4Z"></path><g class="cls-8"><path d="M401.75,171.62,390.21,179l-12.48,8-1.16.74V196l-51.76,33v98.55l51.76-29.89v5.86c0,3.31-2,6.47-6.08,8.83l-45.68,26.37-19.08,11q-3.68-3.39-7-7.13a104.5,104.5,0,0,1-24.67-89.52c.27-1.38.56-2.76.89-4.12a104.59,104.59,0,0,1,126.81-77.32Z"></path></g></g><path class="cls-9" d="M373.3,105.58c0,3.13-1.9,6.13-5.76,8.36L224.25,196.66c-8.56,5-23.5,4.32-33.38-1.38L52.39,115.33c-5.08-2.91-7.83-6.62-8.16-10.17v-1.3c.22-3,2.12-5.7,5.76-7.8L193.26,13.33c8.56-4.94,23.5-4.31,33.38,1.39l138.48,80C370.53,97.8,373.3,101.78,373.3,105.58Z"></path><path class="cls-10" d="M373.3,105.58a8,8,0,0,1-1.46,4.56,18.49,18.49,0,0,0-6.72-6.11L226.64,24.08c-9.88-5.71-24.82-6.33-33.38-1.39L50,105.41a12.85,12.85,0,0,0-4.33,3.83,9.56,9.56,0,0,1-1.44-4.08v-1.3c.23-3,2.13-5.7,5.77-7.8L193.26,13.34c8.56-4.94,23.5-4.32,33.38,1.38l138.48,80C370.53,97.8,373.3,101.78,373.3,105.58Z"></path><path class="cls-11" d="M373.3,105.58V307.13c0,3.13-1.89,6.13-5.77,8.37L224.25,398.22c-4.11,2.37-9.7,3.47-15.49,3.32a38.26,38.26,0,0,1-17.9-4.68l-138.47-80c-5.08-2.91-7.83-6.62-8.16-10.17V105.16c.33,3.55,3.08,7.26,8.16,10.17l138.47,80a38.6,38.6,0,0,0,17.9,4.69c5.79.16,11.38-.94,15.49-3.31l143.28-82.72C371.41,111.71,373.3,108.71,373.3,105.58Z"></path><path class="cls-11" d="M208.76,200V401.54a38.26,38.26,0,0,1-17.9-4.68l-138.47-80c-5.08-2.91-7.83-6.62-8.16-10.17V105.16c.33,3.55,3.08,7.26,8.16,10.17l138.47,80A38.6,38.6,0,0,0,208.76,200Z"></path><g class="cls-12"><path class="cls-13" d="M143.22,104.55a5.5,5.5,0,0,0,4.68,5.33l9,1.36a5.48,5.48,0,0,1,3.89,2.6l12.66,21a5.53,5.53,0,0,1,.47,4.69l-3.08,8.6a5.48,5.48,0,0,0,2.48,6.64l7.21,4.05a5.5,5.5,0,0,0,7-1.35l5.66-7a5.54,5.54,0,0,1,4.18-2l24.59-.42a5.48,5.48,0,0,1,4.3,2l5.95,7.07a5.49,5.49,0,0,0,7,1.22l7.14-4.17a5.51,5.51,0,0,0,2.37-6.7l-3.15-8.29a5.5,5.5,0,0,1,.33-4.62L258.35,112a5.42,5.42,0,0,1,3.78-2.73l8.91-1.69a5.49,5.49,0,0,0,4.48-5.5l-.16-8.24a5.48,5.48,0,0,0-4.68-5.33l-9-1.36a5.46,5.46,0,0,1-3.9-2.61l-12.65-21a5.53,5.53,0,0,1-.47-4.69l3.08-8.6a5.48,5.48,0,0,0-2.49-6.65l-7.21-4a5.47,5.47,0,0,0-7,1.34l-5.66,7a5.49,5.49,0,0,1-4.18,2l-24.59.43a5.5,5.5,0,0,1-4.31-2l-6-7.09a5.49,5.49,0,0,0-7-1.21l-7.13,4.17A5.49,5.49,0,0,0,169.93,51l3.15,8.3a5.51,5.51,0,0,1-.33,4.61L160.24,86.4a5.53,5.53,0,0,1-3.78,2.73l-8.91,1.67a5.51,5.51,0,0,0-4.48,5.5Zm66.11-28A22.64,22.64,0,1,1,186.67,100,22.7,22.7,0,0,1,209.33,76.58Z"></path></g><path class="cls-14" d="M208.76,200,167.1,259.35a15.09,15.09,0,0,1-20.24,4.18L7.18,177.63A15.07,15.07,0,0,1,3,155.76l42.65-57Z"></path><path class="cls-14" d="M211.9,200.09,255,256a15.26,15.26,0,0,0,20.2,3.81l135.92-86.67A14.93,14.93,0,0,0,414.3,151l-43.6-53Z"></path><path class="cls-15" d="M373.3,294.72v12.41c0,3.14-1.9,6.14-5.77,8.37L224.25,398.23c-4.12,2.37-9.7,3.46-15.49,3.31a38.26,38.26,0,0,1-17.9-4.68l-138.47-80c-5.08-2.9-7.83-6.61-8.16-10.17V294.3c.33,3.55,3.08,7.26,8.16,10.17l138.47,80a38.26,38.26,0,0,0,17.9,4.68c5.79.15,11.37-.95,15.49-3.32l143.28-82.72C371.4,300.85,373.3,297.85,373.3,294.72Z"></path><path class="cls-14" d="M208.76,200l-3.54,5L45.65,106,3,163a15,15,0,0,0-2.57,5.39A15,15,0,0,1,3,155.76L45.65,98.81Z"></path><path class="cls-14" d="M417.41,164.4a15.42,15.42,0,0,0-3.11-6.19l-43.6-53.05L215.63,204.93l-3.73-4.84L370.7,97.92,414.3,151A15.3,15.3,0,0,1,417.41,164.4Z"></path><path class="cls-16" d="M390.21,284.72v12.41a7.8,7.8,0,0,1-.63,3.06,8.77,8.77,0,0,1-.46.92A10.46,10.46,0,0,1,388,302.7c-.15.17-.31.34-.48.5a9.22,9.22,0,0,1-1,.92,14.88,14.88,0,0,1-2,1.38l-59.63,34.43V327.52l51.76-29.89,7.87-4.54C388.31,290.85,390.21,287.85,390.21,284.72Z"></path><path class="cls-16" d="M390.73,186.94l-.52.33L376.57,196l-51.76,33V211.78a24.84,24.84,0,0,1,24.84-24.84Z"></path><path class="cls-17" d="M547.58,223.11V367.47A16.63,16.63,0,0,1,531,384.1H340.34a29.17,29.17,0,0,1-29.17-29.17V223.11Z"></path><path class="cls-11" d="M336,198.27H522.73a24.84,24.84,0,0,1,24.84,24.84v0a0,0,0,0,1,0,0H311.16a0,0,0,0,1,0,0v0A24.84,24.84,0,0,1,336,198.27Z"></path><path class="cls-9" d="M346.28,241.71H511.54A4.49,4.49,0,0,1,516,246.2v137.9a0,0,0,0,1,0,0H341.79a0,0,0,0,1,0,0V246.2A4.49,4.49,0,0,1,346.28,241.71Z"></path><text class="cls-18" transform="translate(353.03 287.04) scale(1.01 1)"><tspan xml:space="preserve">&lt;             &gt;</tspan></text><rect class="cls-19" x="374.82" y="307.93" width="109.33" height="6.16" rx="1.34"></rect><rect class="cls-19" x="374.82" y="327.79" width="109.33" height="6.16" rx="1.34"></rect><rect class="cls-19" x="374.82" y="346.89" width="109.33" height="6.16" rx="1.34"></rect><rect class="cls-19" x="384.32" y="272.37" width="87.95" height="6.16" rx="1.34"></rect><rect class="cls-20" x="332.75" y="198.58" width="195.84" height="2.99" rx="1.5"></rect><rect class="cls-15" x="311.16" y="223.11" width="236.42" height="2.99" rx="1.5"></rect><rect class="cls-15" x="339.18" y="381.1" width="180.39" height="2.99" rx="1.5"></rect></g></g></g></svg>