<svg xmlns="http://www.w3.org/2000/svg" xmlns:xlink="http://www.w3.org/1999/xlink" viewBox="0 0 720 720"><defs><style>.cls-1{isolation:isolate;}.cls-2{fill:none;}.cls-3{fill:#24313e;}.cls-3,.cls-9{mix-blend-mode:multiply;opacity:0.11;}.cls-4{fill:#2e2e76;}.cls-5{fill:#9dc7f2;mix-blend-mode:overlay;opacity:0.47;}.cls-6{fill:url(#linear-gradient);}.cls-7{fill:#0062ff;}.cls-8{fill:#ebf0f5;}.cls-9{fill:#606060;}</style><linearGradient id="linear-gradient" x1="147.02" y1="494.45" x2="590.7" y2="494.45" gradientUnits="userSpaceOnUse"><stop offset="0" stop-color="#6b7e8f"></stop><stop offset="1" stop-color="#b6c6d6"></stop></linearGradient></defs><g class="cls-1"><g id="Layer_2" data-name="Layer 2"><g id="Layer_1-2" data-name="Layer 1"><rect class="cls-2" width="720" height="720"></rect><path class="cls-3" d="M563.42,581c-83.56,7.93-276.14,13.09-398.58-30.94a5.93,5.93,0,0,1,.66-11.35l12.89-3a5.3,5.3,0,0,0,1.1-.38c149.74-68.38,254.57-115,318-111.51l35.59,3.26.32,0v47.56a5.94,5.94,0,0,0,1.31,3.72L582,537C595.53,553.86,584.92,579,563.42,581Z"></path><path class="cls-4" d="M552.64,403.22a38.55,38.55,0,0,0-7.18,4.89l-9.39,8.23-.31,0c-2.11-.33-14.76-2.11-35.6-3.26-62.91-3.42-200.59-1-349.07,65.75a37.22,37.22,0,0,1-10.48,3c-10.72,1.38-32.66,1.86-48.67-13.5-15.22-14.59-14.72-39.15.55-53.68,40.3-38.34,144.73-128.35,272-159,165-39.79,209.18,74.12,208.58,73.94C573,329.51,599,378.42,552.64,403.22Z"></path><path class="cls-5" d="M579.7,367.66A72.5,72.5,0,0,0,573,345.81c.6.17-43.59-113.74-208.58-73.94-127.24,30.69-231.66,120.69-272,159a37.58,37.58,0,0,0-10.82,19.15,37.67,37.67,0,0,1,10.82-35.44c40.3-38.34,144.72-128.34,272-159,165-39.79,209.18,74.12,208.58,73.95C573,329.52,582.74,347.79,579.7,367.66Z"></path><path class="cls-6" d="M566.11,570.26c-87.73,8.32-272.78,17.73-393.5-33.8L147,480.64c150-68.52,289.66-71.06,353.14-67.6l35.6,3.26.31,0V466l48.59,60.29C598.22,543.09,587.61,568.22,566.11,570.26Z"></path><path class="cls-7" d="M529.26,289.1a3.06,3.06,0,0,0-3.22-2.63c-24.2,1.52-34.5-3.21-38.69-6.57l-.54-.46a2,2,0,0,0-1.7-.47,11.27,11.27,0,0,0-2.74.63c-4.35,3.5-13,8.75-39.17,6.68,0,0-15.91,73.7,39.64,100.77a9,9,0,0,0,3.17,0l1.34-.64C536.39,362.52,531.16,302.77,529.26,289.1Z"></path><path class="cls-8" d="M157,503.61S310.13,432.4,536.07,447.4c0,0,11.61,18.42,0,18.58-154.79,2.14-267.76,27.15-369.93,58.59Z"></path><path class="cls-9" d="M536.07,427.88l-.32,0-35.59-3.26c-62.86-3.42-200.4-1-348.76,65.62L147,480.64c150-68.52,289.66-71.05,353.14-67.6l35.59,3.26.32,0Z"></path></g></g></g></svg>