<svg xmlns="http://www.w3.org/2000/svg" viewBox="0 0 720 720"><defs><style>.cls-1{isolation:isolate;}.cls-10,.cls-2,.cls-9{fill:none;}.cls-3{fill:#9caab8;}.cls-4{fill:#f5f7f9;}.cls-11,.cls-5{fill:#cee0f2;}.cls-6{fill:#d9dee5;}.cls-7{fill:#2e2e76;}.cls-8{fill:#0062ff;}.cls-9{stroke:#ebf0f5;}.cls-10,.cls-9{stroke-miterlimit:10;stroke-width:0.93px;}.cls-10{stroke:#2e2e76;}.cls-11,.cls-12{mix-blend-mode:multiply;}.cls-12{fill:#24313e;opacity:0.08;}</style></defs><g class="cls-1"><g id="Layer_2" data-name="Layer 2"><g id="Layer_1-2" data-name="Layer 1"><rect class="cls-2" width="720" height="720"></rect><path class="cls-3" d="M456.27,527,193.82,576.41c-6,1.13-12.8-2.44-15.12-8L35.94,225.87c-2.32-5.55.7-11,6.74-12.11l262.45-49.43c6-1.14,12.81,2.44,15.12,8L463,514.87C465.33,520.42,462.31,525.84,456.27,527Z"></path><path class="cls-4" d="M462.29,526.6l-10.21,1.94L199.83,576.4a14.14,14.14,0,0,1-15.11-8L42,223.21c-2.31-5.59.7-11.05,6.74-12.2l262.46-49.8a14.14,14.14,0,0,1,15.11,8L465,504.63l4,9.77C471.34,520,468.32,525.45,462.29,526.6Z"></path><path class="cls-5" d="M262,240.13,97,271.21a9.13,9.13,0,0,1-10.12-5.46L82.56,255.4a9.13,9.13,0,0,1,6.74-12.49l165-31.08a9.13,9.13,0,0,1,10.12,5.46l4.31,10.35A9.13,9.13,0,0,1,262,240.13Z"></path><path class="cls-5" d="M285.73,291.5l-165,31.08a9.13,9.13,0,0,1-10.12-5.46l-4.31-10.35A9.13,9.13,0,0,1,113,294.28L278,263.2a9.13,9.13,0,0,1,10.12,5.46L292.47,279A9.14,9.14,0,0,1,285.73,291.5Z"></path><path class="cls-5" d="M307.17,350.91,142.86,381.86a9.13,9.13,0,0,1-10.12-5.46l-4.31-10.35a9.13,9.13,0,0,1,6.74-12.49l164.31-30.95a9.14,9.14,0,0,1,10.12,5.47l4.31,10.35A9.12,9.12,0,0,1,307.17,350.91Z"></path><path class="cls-5" d="M293.62,422.34,171.85,445.28a9.13,9.13,0,0,1-10.12-5.46l-4.32-10.35A9.14,9.14,0,0,1,164.15,417L285.92,394A9.13,9.13,0,0,1,296,399.5l4.32,10.35A9.14,9.14,0,0,1,293.62,422.34Z"></path><path class="cls-6" d="M436.9,503.94l-85.32,15.27a4,4,0,0,1-4.33-2.36L340,499.5a4,4,0,0,1,2.94-5.39l85.32-15.26a3.93,3.93,0,0,1,4.33,2.36l7.23,17.34A3.93,3.93,0,0,1,436.9,503.94Z"></path><polygon class="cls-7" points="430.14 466.6 458.43 453.92 470.13 478.69 441.7 492.11 427.89 491.3 413.3 490.45 421.8 478.41 430.14 466.6"></polygon><path class="cls-8" d="M663.08,388.54a18.35,18.35,0,0,1-8.48,8.16L472.83,482.53a18.42,18.42,0,0,1-14.08.69,18,18,0,0,1-5.17-2.85,18.51,18.51,0,0,1-7-16.11,18.43,18.43,0,0,1,10.49-15L638.87,363.4a18.42,18.42,0,0,1,24.21,25.14Z"></path><path class="cls-8" d="M536.29,411.76l99.43-46.82a18.41,18.41,0,1,1,15.73,33.3L552,445.06a18.41,18.41,0,1,1-15.72-33.3Z"></path><rect class="cls-7" x="646.65" y="336.54" width="36.83" height="69.63" rx="18.41" transform="translate(613.27 1131.31) rotate(-115.28)"></rect><ellipse class="cls-8" cx="679.83" cy="364.5" rx="18.89" ry="18.51" transform="translate(-90.55 325.24) rotate(-25.28)"></ellipse><line class="cls-9" x1="413.3" y1="490.45" x2="438.98" y2="477.6"></line><path class="cls-7" d="M648.86,365.7l-92,41.39c-2.56,1.15-5.4-2.39-4.09-5.11l2.34-4.89a2.62,2.62,0,0,1,1.24-1.24l92-41.39c2.56-1.15,5.4,2.39,4.09,5.11l-2.34,4.89A2.62,2.62,0,0,1,648.86,365.7Z"></path><path class="cls-8" d="M645.93,363.53,554,404.92c-2.56,1.15-5.4-2.38-4.09-5.11l2.34-4.88a2.57,2.57,0,0,1,1.24-1.24l91.95-41.39c2.56-1.16,5.4,2.38,4.09,5.1l-2.34,4.89A2.57,2.57,0,0,1,645.93,363.53Z"></path><path class="cls-10" d="M413.05,490.8c-4.74-2.11-9.48,3.16-13.9,10.86s-11.9,6.51-23,0-13.66,6.51-13.66,6.51"></path><path class="cls-11" d="M663.08,388.54a18.35,18.35,0,0,1-8.48,8.16L472.83,482.53a18.42,18.42,0,0,1-14.08.69Z"></path><path class="cls-12" d="M462.29,526.6l-10.21,1.94-21.67-9.28-15.82-26.11,37.58,6.1L465,504.63l4,9.77C471.34,520,468.32,525.45,462.29,526.6Z"></path></g></g></g></svg>