<svg xmlns:inkscape="http://www.inkscape.org/namespaces/inkscape" xmlns:sodipodi="http://sodipodi.sourceforge.net/DTD/sodipodi-0.dtd" xmlns="http://www.w3.org/2000/svg" xmlns:svg="http://www.w3.org/2000/svg" viewBox="0 0 720 661" id="svg48" sodipodi:docname="SLAs.svg" width="720" height="661" inkscape:version="1.1.1 (3bf5ae0d25, 2021-09-20)"><defs id="defs4"><style id="style2">.cls-1{isolation:isolate;}.cls-10,.cls-2,.cls-9{fill:none;}.cls-3{fill:#9caab8;}.cls-4{fill:#f5f7f9;}.cls-11,.cls-5{fill:#cee0f2;}.cls-6{fill:#d9dee5;}.cls-7{fill:#2e2e76;}.cls-8{fill:#0062ff;}.cls-9{stroke:#ebf0f5;}.cls-10,.cls-9{stroke-miterlimit:10;stroke-width:0.93px;}.cls-10{stroke:#2e2e76;}.cls-11,.cls-12{mix-blend-mode:multiply;}.cls-12{fill:#24313e;opacity:0.08;}</style></defs><g class="cls-1" id="g46" transform="translate(0,-59.210526)"><g id="Layer_2" data-name="Layer 2"><g id="Layer_1-2" data-name="Layer 1"><rect class="cls-2" width="720" height="720" id="rect6" x="0" y="0"></rect><path class="cls-3" d="m 456.27,527 -262.45,49.41 c -6,1.13 -12.8,-2.44 -15.12,-8 L 35.94,225.87 c -2.32,-5.55 0.7,-11 6.74,-12.11 l 262.45,-49.43 c 6,-1.14 12.81,2.44 15.12,8 L 463,514.87 c 2.33,5.55 -0.69,10.97 -6.73,12.13 z" id="path8"></path><path class="cls-4" d="m 462.29,526.6 -10.21,1.94 -252.25,47.86 a 14.14,14.14 0 0 1 -15.11,-8 L 42,223.21 c -2.31,-5.59 0.7,-11.05 6.74,-12.2 l 262.46,-49.8 a 14.14,14.14 0 0 1 15.11,8 L 465,504.63 l 4,9.77 c 2.34,5.6 -0.68,11.05 -6.71,12.2 z" id="path10"></path><path class="cls-5" d="M 262,240.13 97,271.21 A 9.13,9.13 0 0 1 86.88,265.75 L 82.56,255.4 a 9.13,9.13 0 0 1 6.74,-12.49 l 165,-31.08 a 9.13,9.13 0 0 1 10.12,5.46 l 4.31,10.35 A 9.13,9.13 0 0 1 262,240.13 Z" id="path12"></path><path class="cls-5" d="m 285.73,291.5 -165,31.08 a 9.13,9.13 0 0 1 -10.12,-5.46 L 106.3,306.77 A 9.13,9.13 0 0 1 113,294.28 L 278,263.2 a 9.13,9.13 0 0 1 10.12,5.46 l 4.35,10.34 a 9.14,9.14 0 0 1 -6.74,12.5 z" id="path14"></path><path class="cls-5" d="m 307.17,350.91 -164.31,30.95 a 9.13,9.13 0 0 1 -10.12,-5.46 l -4.31,-10.35 a 9.13,9.13 0 0 1 6.74,-12.49 l 164.31,-30.95 a 9.14,9.14 0 0 1 10.12,5.47 l 4.31,10.35 a 9.12,9.12 0 0 1 -6.74,12.48 z" id="path16"></path><path class="cls-5" d="m 293.62,422.34 -121.77,22.94 a 9.13,9.13 0 0 1 -10.12,-5.46 l -4.32,-10.35 A 9.14,9.14 0 0 1 164.15,417 l 121.77,-23 a 9.13,9.13 0 0 1 10.08,5.5 l 4.32,10.35 a 9.14,9.14 0 0 1 -6.7,12.49 z" id="path18"></path><path class="cls-6" d="m 436.9,503.94 -85.32,15.27 a 4,4 0 0 1 -4.33,-2.36 L 340,499.5 a 4,4 0 0 1 2.94,-5.39 l 85.32,-15.26 a 3.93,3.93 0 0 1 4.33,2.36 l 7.23,17.34 a 3.93,3.93 0 0 1 -2.92,5.39 z" id="path20"></path><polygon class="cls-7" points="427.89,491.3 413.3,490.45 421.8,478.41 430.14,466.6 458.43,453.92 470.13,478.69 441.7,492.11 " id="polygon22"></polygon><path class="cls-8" d="m 663.08,388.54 a 18.35,18.35 0 0 1 -8.48,8.16 l -181.77,85.83 a 18.42,18.42 0 0 1 -14.08,0.69 18,18 0 0 1 -5.17,-2.85 18.51,18.51 0 0 1 -7,-16.11 18.43,18.43 0 0 1 10.49,-15 l 181.8,-85.86 a 18.42,18.42 0 0 1 24.21,25.14 z" id="path24"></path><path class="cls-8" d="m 536.29,411.76 99.43,-46.82 a 18.414145,18.414145 0 1 1 15.73,33.3 L 552,445.06 a 18.41201,18.41201 0 1 1 -15.72,-33.3 z" id="path26"></path><rect class="cls-7" x="646.65002" y="336.54001" width="36.830002" height="69.629997" rx="18.41" transform="rotate(-115.28,665.05688,371.35867)" id="rect28"></rect><ellipse class="cls-8" cx="679.83002" cy="364.5" rx="18.889999" ry="18.51" transform="rotate(-25.28,679.86672,364.50655)" id="ellipse30"></ellipse><line class="cls-9" x1="413.29999" y1="490.45001" x2="438.98001" y2="477.60001" id="line32"></line><path class="cls-7" d="m 648.86,365.7 -92,41.39 c -2.56,1.15 -5.4,-2.39 -4.09,-5.11 l 2.34,-4.89 a 2.62,2.62 0 0 1 1.24,-1.24 l 92,-41.39 c 2.56,-1.15 5.4,2.39 4.09,5.11 l -2.34,4.89 a 2.62,2.62 0 0 1 -1.24,1.24 z" id="path34"></path><path class="cls-8" d="M 645.93,363.53 554,404.92 c -2.56,1.15 -5.4,-2.38 -4.09,-5.11 l 2.34,-4.88 a 2.57,2.57 0 0 1 1.24,-1.24 l 91.95,-41.39 c 2.56,-1.16 5.4,2.38 4.09,5.1 l -2.34,4.89 a 2.57,2.57 0 0 1 -1.26,1.24 z" id="path36"></path><path class="cls-10" d="m 413.05,490.8 c -4.74,-2.11 -9.48,3.16 -13.9,10.86 -4.42,7.7 -11.9,6.51 -23,0 -11.1,-6.51 -13.66,6.51 -13.66,6.51" id="path38"></path><path class="cls-11" d="m 663.08,388.54 a 18.35,18.35 0 0 1 -8.48,8.16 l -181.77,85.83 a 18.42,18.42 0 0 1 -14.08,0.69 z" id="path40"></path><path class="cls-12" d="m 462.29,526.6 -10.21,1.94 -21.67,-9.28 -15.82,-26.11 37.58,6.1 12.83,5.38 4,9.77 c 2.34,5.6 -0.68,11.05 -6.71,12.2 z" id="path42"></path></g></g></g></svg>