<svg xmlns="http://www.w3.org/2000/svg" width="56.375" height="64.894" viewBox="0 0 56.375 64.894"><defs><style>.a,.b{fill:#fff;}.a{opacity:0.5;}.b{stroke:#283121;stroke-width:2px;}.c{fill:#95bbe3;}.d{fill:#90d1f2;}.e{fill:#a9c6e7;}.f{fill:#a7c5e7;}.g{fill:#a4c2e5;}.h{fill:#adc7e8;}.i{fill:#9ec1e6;}.j{fill:#9fbce2;}.k{fill:#93b6e0;}</style></defs><g transform="translate(-3.084 0.871)"><path class="a" d="M40.18,28.22a61.144,61.144,0,0,1,4.74,4.65,53.621,53.621,0,0,1,3.91,4.73,41.75,41.75,0,0,1,5.28,9.34,23.06,23.06,0,0,1,1.43,5.28,12,12,0,0,1-.78,6.52,7.5,7.5,0,0,1-3.13,3.52A12.1,12.1,0,0,1,46.2,64a21.18,21.18,0,0,1-7.5-1,49.58,49.58,0,0,1-12.76-5.8,57.21,57.21,0,0,1-8.38-6.41,58.741,58.741,0,0,1-7.48-8.13A38.77,38.77,0,0,1,3.92,31a17.09,17.09,0,0,1-.83-5.72,9.39,9.39,0,0,1,2.24-6.12A9.16,9.16,0,0,1,9.82,16.4a15.89,15.89,0,0,1,5.91-.4,33,33,0,0,1,11.38,3.39h0c0,.45-.22.87-.2,1.33h0c-.11.09-.05.21-.06.32h0c-.11.08-.05.2-.06.31l-.36,1.77a2.34,2.34,0,0,0-.21,1A6.14,6.14,0,0,1,26,25.23h0c-.26,1.28-.51,2.56-.77,3.84A7.14,7.14,0,0,0,25,30.25c-.05,0-.05.08-.06.13-.17.83-.35,1.67-.5,2.5a6.64,6.64,0,0,0-.24,1.46v.12a8.78,8.78,0,0,0-.41,1.91h0a.07.07,0,0,1,0,.06,1.65,1.65,0,0,0-.23,1v.22c-.29,1.42-.57,2.84-.86,4.26a1.37,1.37,0,0,0-.17.82h0a1,1,0,0,0-.13.63.886.886,0,0,1-.06.39c-.16.69-.24,1.39-.44,2.06-.18.31,0,.32.24.32H34.31c.27-.08.55-.11.83-.19a3.38,3.38,0,0,0,2.42-2.55c.35-1.24.46-2.54.69-3.81.27-1.54.51-3.08.77-4.62s.52-3.13.8-4.69a17.438,17.438,0,0,1,.36-2.05Z"></path><path class="b" d="M24.18,34.46v-.12c.16-.51.23-1.05.34-1.58.16-.81.36-1.62.47-2.44a7.2,7.2,0,0,0,.24-1.21c.17-.8.35-1.61.5-2.41A6.2,6.2,0,0,0,26,25.23a6.14,6.14,0,0,0,.25-1.11,4.18,4.18,0,0,0,.21-1l.36-1.77a.43.43,0,0,0,.06-.31h0a.44.44,0,0,0,.06-.32h0a7.79,7.79,0,0,0,.28-1.34L28.69,12a.73.73,0,0,0-.38,0H14.75c-.29,0-.36,0-.3-.35C15,8.9,15.52,6.13,16.06,3.37A3.75,3.75,0,0,1,19.93.19H43.14c5,0,10-.07,15-.06.32,0,.36.07.3.37-.52,2.78-1,5.56-1.52,8.34A3.74,3.74,0,0,1,53,12H43.32c-.26,0-.35.06-.4.33-.52,3.11-1,6.23-1.58,9.34q-.56,3.29-1.13,6.56a17.44,17.44,0,0,0-.36,2c-.28,1.56-.54,3.12-.8,4.69s-.5,3.08-.77,4.62c-.23,1.27-.34,2.57-.69,3.81a3.38,3.38,0,0,1-2.42,2.55c-.28.08-.56.11-.83.19H22.16c-.18,0-.32,0-.28-.24.2-.67.28-1.37.44-2.06a.886.886,0,0,1,.06-.39,1.51,1.51,0,0,0,.13-.63h0a3.23,3.23,0,0,0,.17-.82c.29-1.42.57-2.84.86-4.26v-.22a7.93,7.93,0,0,0,.23-1,.07.07,0,0,0,0-.06Z"></path><path class="c" d="M27.22,19.35a7.79,7.79,0,0,1-.28,1.34c0-.46.19-.88.2-1.33Z"></path><path class="d" d="M21.88,45.83c0,.23.1.24.28.24H34.28c-.11.09-.25,0-.37,0H22.12C21.89,46.15,21.7,46.14,21.88,45.83Z"></path><path class="e" d="M25,30.32c-.11.82-.31,1.63-.47,2.44-.11.53-.18,1.07-.34,1.58a6.64,6.64,0,0,1,.24-1.46c.15-.83.33-1.67.5-2.5,0-.05,0-.1.06-.13Z"></path><path class="f" d="M26,25.23a6.2,6.2,0,0,1-.25,1.47c-.15.8-.33,1.61-.5,2.41h-.06c.26-1.28.51-2.56.77-3.84C26,25.25,26,25.24,26,25.23Z"></path><path class="g" d="M24.18,34.46l-.37,1.95h0A8.78,8.78,0,0,1,24.18,34.46Z"></path><path class="h" d="M25.19,29.11h.06A7.2,7.2,0,0,1,25,30.32v-.07a7.141,7.141,0,0,1,.19-1.14Z"></path><path class="i" d="M26.46,23.08a4.18,4.18,0,0,1-.21,1,2.34,2.34,0,0,1,.21-1Z"></path><path class="j" d="M23.8,36.47a7.931,7.931,0,0,1-.23,1A1.65,1.65,0,0,1,23.8,36.47Z"></path><path class="k" d="M22.68,41.94a3.23,3.23,0,0,1-.17.82,1.37,1.37,0,0,1,.17-.82Z"></path><path class="k" d="M22.51,42.75a1.51,1.51,0,0,1-.13.63A1,1,0,0,1,22.51,42.75Z"></path><path class="c" d="M26.94,20.68a.44.44,0,0,1-.06.32C26.89,20.89,26.83,20.77,26.94,20.68Z"></path><path class="c" d="M26.88,21a.43.43,0,0,1-.06.31C26.83,21.2,26.77,21.08,26.88,21Z"></path></g></svg>