<svg xmlns="http://www.w3.org/2000/svg" xmlns:xlink="http://www.w3.org/1999/xlink" viewBox="0 0 720 720"><defs><style>.cls-1{isolation:isolate;}.cls-2{fill:none;}.cls-3{fill:url(#linear-gradient);}.cls-4{fill:#ebf0f5;}.cls-5{fill:#cee0f2;}.cls-6{fill:#2e2e76;}.cls-7{fill:#0062ff;}.cls-8{mix-blend-mode:multiply;opacity:0.11;}.cls-9{fill:#24313e;}.cls-10{fill:#0c7ff2;}</style><linearGradient id="linear-gradient" x1="416.56" y1="448.08" x2="387.25" y2="42.38" gradientUnits="userSpaceOnUse"><stop offset="0" stop-color="#6b7e8f"></stop><stop offset="1" stop-color="#b6c6d6"></stop></linearGradient></defs><g class="cls-1"><g id="Layer_2" data-name="Layer 2"><g id="Layer_1-2" data-name="Layer 1"><rect class="cls-2" width="720" height="720"></rect><path class="cls-3" d="M677.11,158V461.94a20.31,20.31,0,0,1-20.32,20.31H156.37a20.32,20.32,0,0,1-19.75-15.55,19.7,19.7,0,0,1-.57-4.76V158a20.31,20.31,0,0,1,20.32-20.31H656.79A20.31,20.31,0,0,1,677.11,158Z"></path><rect class="cls-4" x="150.7" y="154.48" width="511.77" height="311" rx="8.02"></rect><path class="cls-5" d="M565.93,443.75h59.39a2.6,2.6,0,0,1,2.6,2.6v19.12a0,0,0,0,1,0,0H563.33a0,0,0,0,1,0,0V446.35A2.6,2.6,0,0,1,565.93,443.75Z"></path><rect class="cls-6" x="563.33" y="457.62" width="64.59" height="7.86"></rect><rect class="cls-7" x="171.87" y="186.35" width="275.69" height="33.89" rx="5.76"></rect><rect class="cls-5" x="171.87" y="237.6" width="336.33" height="33.89" rx="5.76"></rect><rect class="cls-5" x="171.87" y="285.88" width="336.33" height="33.89" rx="5.76"></rect><rect class="cls-5" x="171.87" y="334.15" width="336.33" height="33.89" rx="5.76"></rect><rect class="cls-5" x="171.87" y="382.43" width="336.33" height="33.89" rx="5.76"></rect><g class="cls-8"><circle class="cls-9" cx="176.08" cy="400.97" r="55.36"></circle><path class="cls-9" d="M246.13,482.25H156.37a20.32,20.32,0,0,1-19.75-15.55,122.36,122.36,0,0,1,109.51,15.55Z"></path></g><circle class="cls-10" cx="165.07" cy="400.97" r="55.36"></circle><path class="cls-10" d="M287.26,582.36q0,5-.39,9.84c-21.05,8.06-67.62,13.67-121.69,13.67-54.25,0-101-5.65-121.91-13.76-.25-3.21-.38-6.47-.38-9.75s.12-6.31.36-9.42a122.19,122.19,0,0,1,243.64-.09Q287.27,577.56,287.26,582.36Z"></path></g></g></g></svg>