<svg xmlns:inkscape="http://www.inkscape.org/namespaces/inkscape" xmlns:sodipodi="http://sodipodi.sourceforge.net/DTD/sodipodi-0.dtd" xmlns="http://www.w3.org/2000/svg" xmlns:svg="http://www.w3.org/2000/svg" viewBox="0 0 720 661" id="svg45" sodipodi:docname="Trainings.svg" width="720" height="661" inkscape:version="1.1.1 (3bf5ae0d25, 2021-09-20)"><defs id="defs9"><style id="style2">.cls-1{isolation:isolate;}.cls-2{fill:none;}.cls-3{fill:url(#linear-gradient);}.cls-4{fill:#ebf0f5;}.cls-5{fill:#cee0f2;}.cls-6{fill:#2e2e76;}.cls-7{fill:#0062ff;}.cls-8{mix-blend-mode:multiply;opacity:0.11;}.cls-9{fill:#24313e;}.cls-10{fill:#0c7ff2;}</style><linearGradient id="linear-gradient" x1="416.56" y1="448.07999" x2="387.25" y2="42.380001" gradientUnits="userSpaceOnUse"><stop offset="0" stop-color="#6b7e8f" id="stop4"></stop><stop offset="1" stop-color="#b6c6d6" id="stop6"></stop></linearGradient></defs><g class="cls-1" id="g43"><g id="Layer_2" data-name="Layer 2"><g id="Layer_1-2" data-name="Layer 1"><rect class="cls-2" width="720" height="720" id="rect11" x="0" y="0"></rect><path class="cls-3" d="m 677.11,158 v 303.94 a 20.31,20.31 0 0 1 -20.32,20.31 H 156.37 a 20.32,20.32 0 0 1 -19.75,-15.55 19.7,19.7 0 0 1 -0.57,-4.76 V 158 a 20.31,20.31 0 0 1 20.32,-20.31 H 656.79 A 20.31,20.31 0 0 1 677.11,158 Z" id="path13"></path><rect class="cls-4" x="150.7" y="154.48" width="511.76999" height="311" rx="8.0200005" id="rect15"></rect><path class="cls-5" d="m 565.93,443.75 h 59.39 a 2.6,2.6 0 0 1 2.6,2.6 v 19.12 h -64.59 v -19.12 a 2.6,2.6 0 0 1 2.6,-2.6 z" id="path17"></path><rect class="cls-6" x="563.33002" y="457.62" width="64.589996" height="7.8600001" id="rect19"></rect><rect class="cls-7" x="171.87" y="186.35001" width="275.69" height="33.889999" rx="5.7600002" id="rect21"></rect><rect class="cls-5" x="171.87" y="237.60001" width="336.32999" height="33.889999" rx="5.7600002" id="rect23"></rect><rect class="cls-5" x="171.87" y="285.88" width="336.32999" height="33.889999" rx="5.7600002" id="rect25"></rect><rect class="cls-5" x="171.87" y="334.14999" width="336.32999" height="33.889999" rx="5.7600002" id="rect27"></rect><rect class="cls-5" x="171.87" y="382.42999" width="336.32999" height="33.889999" rx="5.7600002" id="rect29"></rect><g class="cls-8" id="g35"><circle class="cls-9" cx="176.08" cy="400.97" r="55.360001" id="circle31"></circle><path class="cls-9" d="M 246.13,482.25 H 156.37 A 20.32,20.32 0 0 1 136.62,466.7 122.36,122.36 0 0 1 246.13,482.25 Z" id="path33"></path></g><circle class="cls-10" cx="165.07001" cy="400.97" r="55.360001" id="circle37"></circle><path class="cls-10" d="m 287.26,582.36 q 0,5 -0.39,9.84 c -21.05,8.06 -67.62,13.67 -121.69,13.67 -54.25,0 -101,-5.65 -121.91,-13.76 -0.25,-3.21 -0.38,-6.47 -0.38,-9.75 0,-3.28 0.12,-6.31 0.36,-9.42 a 122.19,122.19 0 0 1 243.64,-0.09 q 0.38,4.71 0.37,9.51 z" id="path39"></path></g></g></g></svg>