<svg xmlns="http://www.w3.org/2000/svg" viewBox="0 0 2153.85 1801.71"><defs><style>.cls-1,.cls-19{isolation:isolate;}.cls-2{fill:#ebf0f5;}.cls-3{fill:#d9dee5;}.cls-4{fill:#ff4451;}.cls-5{fill:#ff603d;}.cls-19,.cls-6{fill:#0c7ff2;}.cls-7{fill:#2e2141;}.cls-8{fill:#787184;}.cls-12,.cls-14,.cls-24,.cls-9{fill:#fff;}.cls-10{fill:#031439;}.cls-11{fill:#22416d;}.cls-12,.cls-14,.cls-15,.cls-22,.cls-23,.cls-25{opacity:0.37;}.cls-13,.cls-16,.cls-17{fill:#24313e;}.cls-13,.cls-16{mix-blend-mode:multiply;}.cls-13{opacity:0.33;}.cls-14,.cls-22,.cls-24{mix-blend-mode:overlay;}.cls-16{opacity:0.27;}.cls-18{fill:#10244c;}.cls-19{opacity:0.67;}.cls-20{fill:#3ab2d0;}.cls-21{fill:#6b7e8f;}.cls-23{mix-blend-mode:screen;}.cls-25{fill:none;}.cls-26{fill:#fbb03b;opacity:0.21;}</style></defs><g class="cls-1"><g id="Layer_2" data-name="Layer 2"><g id="Layer_1-2" data-name="Layer 1"><path class="cls-2" d="M194.29,1420.84c-3.14.57-6.32,1-9.56,1.31a105.62,105.62,0,1,1,82-157.82c3.14-.57,6.35-1,9.59-1.31a105.61,105.61,0,1,1-82,157.82Z"></path><path class="cls-3" d="M581.33,1705.42s-437.19,7.74-507.12-21.81c-67.95-28.71-93.14-112.27-59.15-157.33,11.28-14.94,24.22-25.88,37.76-33a91.9,91.9,0,1,1,112.15,51c8.38,43.28-37.49,65.22,42.64,74,90.63,9.91,153.56-1.41,200.14,21.24S581.33,1705.42,581.33,1705.42Z"></path><path class="cls-3" d="M1658.86,1710.53s110.53-53.8,204-85.75c137.82-47.12,180-49.83,231.18-47,86.87,4.74,70.41,124.38,6.26,129.88s-61.47-54.23-121.76-33.49-40,49.17-84.6,59.48C1835.57,1747.12,1830.79,1680.06,1658.86,1710.53Z"></path><path class="cls-2" d="M2070,1348a118.51,118.51,0,0,1-99.64,80.06q-1.24,5.22-3,10.41a118.47,118.47,0,1,1-127.89-155.19c1-.14,2-.25,3-.36.83-3.48,1.82-7,3-10.43A118.46,118.46,0,1,1,2070,1348Z"></path><path class="cls-4" d="M1586.37,1540.29a60.07,60.07,0,0,1-.32,6.34,2.37,2.37,0,0,1-.07.61,296,296,0,0,0-33.28,49.94c-11.61,22.16-21.42,48.9-20,74.44,3.2,58.22-59.31,85-61.2,85.78,1.74-1.63,48.21-44.62,14.39-100.74-2.81-4.66-5.37-9.32-7.74-13.93-.81,1.28-1.65,2.52-2.49,3.75-27.83,40-56.89,40.13-56.89,40.13,30.39-27.39,25-39.61,27.07-85.83s-24.58-55.93,8.57-106.18c20.63-31.31,33.06-27.31,40.9-13.66a64.88,64.88,0,0,1,91.07,59.35Z"></path><path class="cls-5" d="M1545.34,1694.76s27.71-8.82,42.18-55.39.63-115.79-12.58-138.45-36.88-57.89-53.37,0,11.8,59.16,23.77,103.84S1566.09,1659.51,1545.34,1694.76Z"></path><path class="cls-4" d="M784.31,1702.33c-1.33-.54-44.59-19.08-42.37-59.38a1.71,1.71,0,0,1,0-.39c-6.54,16.76-10.82,34.78-9.86,52.25,3.2,58.22-59.31,85-61.2,85.78,1.75-1.63,48.21-44.61,14.39-100.74-34.46-57.21-33.65-112.69-28-129.06a64.87,64.87,0,0,1,96-43.5,44.93,44.93,0,0,1,40.4,36c3.89,11.34,4.46,49.74-19.4,89.35C750.94,1671.45,783.1,1701.2,784.31,1702.33Z"></path><path class="cls-5" d="M629.65,1536.22a41.83,41.83,0,0,0-1,4.28,1.29,1.29,0,0,0-.07.43,204.5,204.5,0,0,1,12.72,39.54c3.55,17,5,36.61-.74,53.35-13.13,38.17,23.44,67.81,24.55,68.69-.86-1.41-23.68-38.82,9.45-69.8,33.76-31.59,43.7-68.69,43-80.66a44.91,44.91,0,0,0-88-15.83Z"></path><path class="cls-6" d="M778.39,1567.52l-.4.44a2.37,2.37,0,0,0,.08-.61A2.21,2.21,0,0,1,778.39,1567.52Z"></path><path id="Path_34261" data-name="Path 34261" class="cls-7" d="M1272,550.35v23.19h22.32Z"></path><path id="Rectangle_2164" data-name="Rectangle 2164" class="cls-8" d="M1395.07,245.73h44a9.27,9.27,0,0,1,9.27,9.27h0a9.27,9.27,0,0,1-9.27,9.26h-44a9.26,9.26,0,0,1-9.26-9.26h0A9.26,9.26,0,0,1,1395.07,245.73Z"></path><path id="Rectangle_2165" data-name="Rectangle 2165" class="cls-8" d="M1393.11,277.61h58.14a9.27,9.27,0,0,1,9.26,9.26h0a9.27,9.27,0,0,1-9.26,9.27h-58.14a9.27,9.27,0,0,1-9.27-9.27h0A9.27,9.27,0,0,1,1393.11,277.61Z"></path><path id="Path_34262" data-name="Path 34262" class="cls-9" d="M1562.69,216.13h75.14a11.7,11.7,0,0,1,11.7,11.68h0a11.69,11.69,0,0,1-11.7,11.67h-75.14A11.67,11.67,0,0,1,1551,227.83v0h0A11.68,11.68,0,0,1,1562.69,216.13Z"></path><path id="Path_34263" data-name="Path 34263" class="cls-9" d="M1579.43,251.56h75.12a11.67,11.67,0,0,1,11.69,11.66h0a11.68,11.68,0,0,1-11.68,11.68h-75.13a11.67,11.67,0,0,1-11.7-11.66v0h0a11.67,11.67,0,0,1,11.69-11.66Z"></path><path id="Path_9303" data-name="Path 9303" class="cls-10" d="M1132.08,770.86l-200.19,280.2a82.56,82.56,0,0,1-102.38,45.78c-38-13.35-62.85-53.88-11.82-165.12,0,0,97.43-268.17,150.66-278.09S1179,663.19,1132.08,770.86Z"></path><path id="Path_9304" data-name="Path 9304" class="cls-10" d="M1086,767.37l200,283.68a82.64,82.64,0,0,0,102.42,45.78c38-13.34,64.73-54.1,13.7-165.6,0,0-99.35-267.74-152.53-277.74S1038.94,659.73,1086,767.37Z"></path><path id="Path_9307" data-name="Path 9307" class="cls-10" d="M780.55,1037.29l-98.15,348a74.27,74.27,0,0,0,45.8,90.38c35.45,12.5,81.23-1.91,119.7-114l87.79-325.28a115.35,115.35,0,0,0-18.32-99.23c-26.08-34.88-69.52-49.93-128.32,76.76a152.5,152.5,0,0,0-8.33,23.09Z"></path><path id="Path_9308" data-name="Path 9308" class="cls-10" d="M1446.74,1037.29l98.13,348a74.26,74.26,0,0,1-45.78,90.38c-35.45,12.5-81.23-1.91-119.7-114l-87.76-325.28A115.29,115.29,0,0,1,1310,937.24c26.09-34.88,69.52-49.93,128.3,76.76a149.1,149.1,0,0,1,8.34,23.1Z"></path><path id="Rectangle_1251" data-name="Rectangle 1251" class="cls-11" d="M841.45,978.23h0a18.21,18.21,0,0,1,13.91,21.67h0l-45.17,207.45a18.3,18.3,0,0,1-21.74,13.9h0a18.31,18.31,0,0,1-13.91-21.74L819.73,992A18.27,18.27,0,0,1,841.45,978.23Z"></path><path id="Rectangle_1252" data-name="Rectangle 1252" class="cls-11" d="M926.55,1008.11h0a18.27,18.27,0,0,1,13.9,21.74l-45.19,207.43a18.23,18.23,0,0,1-21.67,13.9h0a18.28,18.28,0,0,1-13.9-21.74L904.88,1022A18.28,18.28,0,0,1,926.55,1008.11Z"></path><path id="Rectangle_1253" data-name="Rectangle 1253" class="cls-11" d="M1440.09,1218.75h0a18.24,18.24,0,0,1-22.83-12h0l-63.09-202.69a18.25,18.25,0,0,1,11.77-23l.19-.06h0a18.27,18.27,0,0,1,22.85,12l0,.12h0l63.12,202.63A18.32,18.32,0,0,1,1440.09,1218.75Z"></path><path id="Path_9336" data-name="Path 9336" class="cls-11" d="M1348.71,1250.31a18.34,18.34,0,0,1-22.17-13.21h0l-52.41-205.77a18.28,18.28,0,1,1,35-10.67,14.77,14.77,0,0,1,.44,1.74l52.6,205.61a18.27,18.27,0,0,1-13.16,22.21h0Z"></path><path id="Rectangle_1256" data-name="Rectangle 1256" class="cls-6" d="M831.24,951.52h0a33.72,33.72,0,0,1,20.29,43.15h0v.12l-43.3,119.58a33.7,33.7,0,0,1-43.11,20.18h0a33.69,33.69,0,0,1-20.23-43.12h0L788.2,971.93a33.67,33.67,0,0,1,43-20.42Z"></path><path id="Rectangle_1257" data-name="Rectangle 1257" class="cls-6" d="M939.87,991h0a33.7,33.7,0,0,1,20.3,43.12v0h0L916.7,1153.76a33.67,33.67,0,0,1-43,20.07h0a33.72,33.72,0,0,1-20.26-43.16h0l43.24-119.61A33.66,33.66,0,0,1,939.81,991l.06,0Z"></path><path id="Rectangle_1280" data-name="Rectangle 1280" class="cls-10" d="M908.51,1079.74h0a9.94,9.94,0,0,1,6,12.74l-21.57,59.28a10,10,0,0,1-12.74,5.94h0A9.92,9.92,0,0,1,874.2,1145h0l21.58-59.24A10,10,0,0,1,908.51,1079.74Z"></path><rect class="cls-12" x="771.54" y="959.92" width="11.01" height="140.35" rx="2.23" transform="translate(391.58 -201.29) rotate(19.65)"></rect><rect class="cls-12" x="878.52" y="998.3" width="11.01" height="146.45" rx="2.23" transform="translate(411.76 -234.86) rotate(19.65)"></rect><path id="Rectangle_1255" data-name="Rectangle 1255" class="cls-13" d="M928.1,871.12h0c45.25,15.19,32.34,140.79,32.34,140.79-16.37,42.07-54.62,71.69-99.84,56.5l-4.82.42c-45.25-15.18-65.3-49.67-55.43-98.44l10.1-22.15c16.21-42.18,72.16-92.25,117.47-77.17Z"></path><path id="Rectangle_1255-2" data-name="Rectangle 1255" class="cls-6" d="M927.39,860.77h0a81.1,81.1,0,0,1,48.78,103.8v.24l-15.35,42.32A81.1,81.1,0,0,1,857,1055.8h0A81.08,81.08,0,0,1,808.24,952h0l15.28-42.23a81.13,81.13,0,0,1,103.7-49.07Z"></path><path id="Path_9312" data-name="Path 9312" class="cls-11" d="M668.36,1397.49c-10.06-6.34-24.58-26.16,27.73-82.62a92,92,0,0,0,15.5-22.67c7.08-15,25.06-40.42,65.34-40.49a96.92,96.92,0,0,1,88.13,58.82c14,31.75,21.09,79.18-8,140.55-.88,1.83-1.71,3.73-2.52,5.6-3.8,8.87-22.06,43.91-73.11,38.85l-95.48-85a126.06,126.06,0,0,0-17.61-13Z"></path><path class="cls-14" d="M664.84,1379.92h0c3.28,2.39,9.45-14.67,14.62-21.64l45.22-50.35,14.68-30.2c5.17-7,17.07-14.42,13.79-16.81h0c-3.28-2.4-17,6.9-22.18,13.87l-15.16,27.59L670,1354.23C664.85,1361.2,661.56,1377.52,664.84,1379.92Z"></path><path class="cls-13" d="M785.19,1413.23c25.22,41,34.22,81.76,9.46,94.34s-65.28-10.51-90.5-51.55-11.21-91.23,14.43-102.21C757.39,1337.18,760,1372.18,785.19,1413.23Z"></path><path id="Path_9341" data-name="Path 9341" class="cls-11" d="M885.06,915.78a52.87,52.87,0,1,1-52.87,52.87h0A52.89,52.89,0,0,1,885.06,915.78Z"></path><path id="Path_9342" data-name="Path 9342" class="cls-10" d="M862.67,948.42l52.83,15.26a10.55,10.55,0,0,1-5.1,20.48c-.24-.06-.49-.13-.73-.21l-52.85-15.19a10.57,10.57,0,0,1,5.85-20.27Z"></path><circle id="Ellipse_686" data-name="Ellipse 686" class="cls-10" cx="915.06" cy="881.21" r="11.1"></circle><circle id="Ellipse_687" data-name="Ellipse 687" class="cls-10" cx="777.04" cy="1102.47" r="23.31"></circle><path id="Path_9305" data-name="Path 9305" class="cls-10" d="M967,527.84l25,85.07,249,19.6,22.83-104.67S1133.21,378.45,967,527.84Z"></path><path id="Rectangle_1243" data-name="Rectangle 1243" class="cls-10" d="M955.4,91.17h0a47.49,47.49,0,0,1,53.26,40.88l22.39,170.64A47.49,47.49,0,0,1,990.15,356h0a47.49,47.49,0,0,1-53.26-40.9h0L914.51,144.41A47.47,47.47,0,0,1,955.4,91.17Z"></path><rect class="cls-12" x="991.58" y="111.91" width="12.83" height="100.64" rx="2.6" transform="translate(-12.61 193.81) rotate(-11.02)"></rect><path id="Rectangle_1244" data-name="Rectangle 1244" class="cls-10" d="M1237.5,304.31l22.31-170.74a47.57,47.57,0,0,1,53.26-41h0a47.57,47.57,0,0,1,41,53.34l-22.33,170.74a47.54,47.54,0,0,1-53.3,41h0a47.55,47.55,0,0,1-41-53.32Z"></path><rect class="cls-12" x="1260.63" y="122.17" width="12.83" height="100.64" rx="2.6" transform="matrix(-0.99, -0.15, 0.15, -0.99, 2493.36, 534.88)"></rect><path id="Path_9309" data-name="Path 9309" class="cls-10" d="M920,116.94s-99.31,20.53-91.82-63.66c0,0-82.21-7.91-73.77,97.14l-.57,40.16h176.4v-57H920.07Z"></path><g class="cls-15"><path class="cls-9" d="M756.88,147.56c-1.44-2.75-.57-2.2-.71-3.45-.08-.68-9.19-71.7,51.1-87.25,2.57-.67,15.15-2.48,17.14-.72a7.87,7.87,0,0,1,2.6,6.93c-1.19,9.09,0,27,12.7,40.42,14.8,15.62,42.52,22,82.38,19a2.47,2.47,0,0,1,.38,4.92c-41.42,3.17-70.46-3.72-86.34-20.48C822,92,820.81,72.39,822.12,62.43a2.94,2.94,0,0,0-1-2.6c-.78-.68-11.67,1.48-12.65,1.8-58,19.24-48.15,83.45-47.85,86.05.15,1.35-2.14-.29-3.49-.14Z"></path></g><path id="Path_9310" data-name="Path 9310" class="cls-10" d="M1348.92,116.94s99.32,20.44,91.91-63.66c0,0,82.16-7.91,73.71,97.14l.63,40.16H1338.68v-57h10.24Z"></path><g class="cls-15"><path class="cls-9" d="M1512.3,151.67c1.43-2.74.56-2.19.71-3.45.08-.68,10.2-75.81-50.08-91.36-2.58-.67-15.16-2.48-17.15-.72a7.89,7.89,0,0,0-2.59,6.93c1.19,9.09-2.48,27-15.17,40.42-14.8,15.62-42.52,22-82.38,19a2.47,2.47,0,0,0-.37,4.92c41.41,3.17,70.45-3.72,86.33-20.48,14.1-14.88,17.78-34.49,16.48-44.45a2.92,2.92,0,0,1,1-2.6c.77-.68,11.67,1.48,12.65,1.8,58,19.24,47.13,87.56,46.83,90.17-.16,1.35,2.13-.3,3.48-.15A1.46,1.46,0,0,0,1512.3,151.67Z"></path></g><path class="cls-6" d="M1414.74,227.52a496.48,496.48,0,0,1-4.56,65.62c-15.63,117-69.88,240.61-137.17,307.53a47.63,47.63,0,0,1-18.07,10h0a21,21,0,0,1-5.2.73H1245a5.72,5.72,0,0,1-1.6-.22.12.12,0,0,1-.08,0,5.22,5.22,0,0,1-3.5-6.48l19.72-73.48a.18.18,0,0,0,0-.08,5.23,5.23,0,0,0-1.31-5c-16.88-17.6-136.16-131.57-285,0a5.25,5.25,0,0,0-1.58,5.47l21.37,73a4.3,4.3,0,0,1,.05.79,4.41,4.41,0,0,1-.05.81v.1a5.2,5.2,0,0,1-5.23,5.1h-.1a30.27,30.27,0,0,1-5.42-.49c-9.56-1.7-17.7-7.79-24.33-15.33-38.79-46.34-70.56-109-92.6-174.81S830.92,286.11,830.92,227.5v0a35.94,35.94,0,0,1,23.81-33.82,36.5,36.5,0,0,1,12.12-2.07h511.93l0,0a35.93,35.93,0,0,1,35.92,35.91Z"></path><polygon class="cls-16" points="1197.85 191.58 1159.8 229.66 1142.99 246.48 1122.13 225.63 1113.07 216.57 1122.67 206.99 1137.18 192.52 1138.12 191.58 1197.85 191.58"></polygon><polygon class="cls-16" points="1131.71 215.72 1122.13 225.63 1102.32 246.11 1085.54 229.88 1045.93 191.58 1106.7 191.58 1107.82 192.66 1122.67 206.99 1131.71 215.72"></polygon><circle id="Ellipse_700" data-name="Ellipse 700" class="cls-16" cx="1122.66" cy="226.83" r="37.25"></circle><path class="cls-13" d="M993.08,605.36a4.41,4.41,0,0,1-.05.81v.1a5.2,5.2,0,0,1-5.23,5.1h-.09a30.3,30.3,0,0,1-5.43-.49c-9.56-1.7-17.69-7.79-24.32-15.33-38.8-46.34-70.57-109-92.61-174.81S830.92,286.11,830.92,227.5v0c0-15.58,15.88-74.81,29.76-79.79L973.24,526.11a5.25,5.25,0,0,0-1.58,5.47l21.37,73A4.3,4.3,0,0,1,993.08,605.36Z"></path><path class="cls-13" d="M1239.14,608.83a4.41,4.41,0,0,0,0,.81v.1c0,2.86-.55,2,2.59,2h.1a36.68,36.68,0,0,0,6-.49c10.57-1.7,19.23-3.91,26.56-11.45,42.85-46.34,77.94-109,102.28-174.81s38-134.63,38-193.24v0c0-15.57-11-28.83-26.3-33.81L1258.27,526.11a3.62,3.62,0,0,1,1.4,4.61L1239.19,608A4.3,4.3,0,0,0,1239.14,608.83Z"></path><rect class="cls-12" x="860.68" y="193.74" width="525.13" height="7.62" rx="1.55"></rect><path id="Rectangle_1258" data-name="Rectangle 1258" class="cls-17" d="M924.71,271.32h154a9.9,9.9,0,0,1,9.9,9.87h0a9.94,9.94,0,0,1-9.9,9.9h-154a9.92,9.92,0,0,1-9.87-9.9h0A9.87,9.87,0,0,1,924.71,271.32Z"></path><path id="Rectangle_1259" data-name="Rectangle 1259" class="cls-17" d="M924.71,303.21h154a9.94,9.94,0,0,1,9.9,9.91h0a9.9,9.9,0,0,1-9.9,9.85h-154a9.85,9.85,0,0,1-9.87-9.84h0A9.91,9.91,0,0,1,924.71,303.21Z"></path><path class="cls-17" d="M1088.59,345a9.92,9.92,0,0,1-9.91,9.9h-154a10,10,0,0,1-2.48-.32l-4.84-16.19a10,10,0,0,1,7.3-3.28h154A9.92,9.92,0,0,1,1088.59,345Z"></path><path class="cls-17" d="M1088.59,376.91a9.92,9.92,0,0,1-9.91,9.86H931.78L925.91,367h152.77A9.94,9.94,0,0,1,1088.59,376.91Z"></path><path class="cls-17" d="M1088.59,408.81a9.85,9.85,0,0,1-2.91,7,10,10,0,0,1-7,2.88H941.29l-5.89-19.76h143.28A9.89,9.89,0,0,1,1088.59,408.81Z"></path><path id="Rectangle_1263" data-name="Rectangle 1263" class="cls-17" d="M1169.33,303.21h154a10,10,0,0,1,9.91,9.91h0a9.92,9.92,0,0,1-9.91,9.85h-154a9.86,9.86,0,0,1-9.86-9.85h0A9.9,9.9,0,0,1,1169.33,303.21Z"></path><path class="cls-17" d="M1333.25,345a9.86,9.86,0,0,1-2.91,7,10,10,0,0,1-3.84,2.39,9.69,9.69,0,0,1-3.16.51h-154a9.85,9.85,0,0,1-9.84-9.86V345a9.88,9.88,0,0,1,9.79-9.86h154.07a10,10,0,0,1,8.65,5.13l.08.12c.07.17.25.52.47,1A9.14,9.14,0,0,1,1333.25,345Z"></path><path class="cls-17" d="M1333.25,376.91a9.92,9.92,0,0,1-9.91,9.86h-154a9.85,9.85,0,0,1-9.84-9.86v0a9.88,9.88,0,0,1,9.84-9.86h154A10,10,0,0,1,1333.25,376.91Z"></path><path class="cls-17" d="M1333.25,408.81a9.85,9.85,0,0,1-2.91,7,10,10,0,0,1-7,2.88h-154a9.84,9.84,0,0,1-9.84-9.83v-.07a9.85,9.85,0,0,1,9.79-9.86h154.07A9.91,9.91,0,0,1,1333.25,408.81Z"></path><path id="Rectangle_1267" data-name="Rectangle 1267" class="cls-17" d="M1170.42,271.32h154a9.89,9.89,0,0,1,9.91,9.81h0a9.91,9.91,0,0,1-9.9,9.91h-154a9.91,9.91,0,0,1-9.91-9.91h0a9.85,9.85,0,0,1,9.84-9.87h0Z"></path><path id="Rectangle_1269" data-name="Rectangle 1269" class="cls-10" d="M636.26,353l28.52-44.18a65.33,65.33,0,0,1,90.29-19.59l.09.05h0a65.36,65.36,0,0,1,19.51,90.34l0,.05-28.5,44.16a65.33,65.33,0,0,1-90.31,19.53l-.07,0h0A65.33,65.33,0,0,1,636.26,353Z"></path><path id="Rectangle_1270" data-name="Rectangle 1270" class="cls-6" d="M709,395.52l10.77-22.27A51.15,51.15,0,0,1,788,349.62h0a51.15,51.15,0,0,1,23.64,68.3l-10.83,22.23a51,51,0,0,1-68.15,23.67h0A51.05,51.05,0,0,1,709,395.62Z"></path><rect class="cls-12" x="718.53" y="357.44" width="18.09" height="68.96" rx="3.67" transform="translate(209.4 -251.86) rotate(22.86)"></rect><path id="Path_9315" data-name="Path 9315" class="cls-11" d="M1577.09,1420.89c10-6.28,24.49-26.07-27.61-82.34a90.24,90.24,0,0,1-15.55-22.6c-7-15-25-40.28-65.07-40.35a96.6,96.6,0,0,0-87.84,58.62c-14,31.64-21,78.9,7.93,140.08.87,1.87,1.7,3.71,2.51,5.58,3.78,8.84,22,43.79,72.88,38.75l95.16-84.79a126.37,126.37,0,0,1,17.59-12.94Z"></path><path class="cls-13" d="M1454.69,1414.73c-29.74,47.51-43.15,94.72-19.61,109.45s66.74-11.83,96.48-59.34,21-105.84-3.57-118.73C1490.77,1326.6,1484.43,1367.22,1454.69,1414.73Z"></path><path id="Path_9316" data-name="Path 9316" class="cls-6" d="M1567.69,1383l46.29,95.4a49,49,0,0,1-44.08,70.43h-92.6a49.05,49.05,0,0,1-44.13-70.34l46.28-95.37a49,49,0,0,1,88.24,0Z"></path><path class="cls-12" d="M1540.35,1366.47h0c-3.54,1.79-3.28,9.55.59,17.33l52,104.64c3.86,7.78,9.86,12.63,13.4,10.84h0c3.54-1.8,3.28-9.55-.59-17.33l-52-104.65C1549.89,1369.53,1543.89,1364.68,1540.35,1366.47Z"></path><path id="Path_9317" data-name="Path 9317" class="cls-10" d="M1556.09,1454.66l29.54,61a31.28,31.28,0,0,1-27.81,45h-59.51a31.28,31.28,0,0,1-28-45l29.54-61a31.29,31.29,0,0,1,56.32,0Z"></path><path id="Rectangle_1271" data-name="Rectangle 1271" class="cls-10" d="M804.42,208.52h0a67.3,67.3,0,0,1,67.29,67.3h0v26.63a67.3,67.3,0,0,1-67.24,67.35h-.05a67.3,67.3,0,0,1-67.3-67.3h0V275.82a67.28,67.28,0,0,1,67.26-67.3Z"></path><path class="cls-13" d="M748.38,172.76h180a5.65,5.65,0,0,1,5.65,5.65v59a5.65,5.65,0,0,1-5.65,5.65H752.67a9.95,9.95,0,0,1-9.95-9.95V178.41A5.65,5.65,0,0,1,748.38,172.76Z"></path><path id="Path_9319" data-name="Path 9319" class="cls-6" d="M916.8,239.41h-180A14.79,14.79,0,0,1,722,224.62h0V158.57a14.79,14.79,0,0,1,14.78-14.74l180,24.4A14.81,14.81,0,0,1,931.58,183v41.62A14.84,14.84,0,0,1,916.8,239.41Z"></path><g class="cls-15"><path class="cls-9" d="M734.36,155,917.18,178.9a7.17,7.17,0,0,1,6.11,7.07V222.5a7.16,7.16,0,0,1-.56,2.81l7.22,1.75a14,14,0,0,0,.74-4.56V186a14.62,14.62,0,0,0-12.5-14.4L735.32,147.72a3.69,3.69,0,1,0-1,7.32Z"></path></g><path class="cls-13" d="M1331.7,190.58h181.23a1.38,1.38,0,0,1,1.38,1.38v49.84a1.38,1.38,0,0,1-1.38,1.38H1336a5.67,5.67,0,0,1-5.67-5.67V192A1.38,1.38,0,0,1,1331.7,190.58Z"></path><path id="Path_9320" data-name="Path 9320" class="cls-6" d="M621.33,414.71h0c-31.46-1.45-52.74-28.38-51.19-59.86l3.48-145.67a43.68,43.68,0,0,1,45.52-41.54L642,168.73A48.12,48.12,0,0,1,687.77,219L671.11,360.47C669.75,391.61,652.77,416.33,621.33,414.71Z"></path><path id="Path_9334" data-name="Path 9334" class="cls-10" d="M631.63,493.5h19.26a33.83,33.83,0,0,1,33.87,33.8h0V670.85A33.82,33.82,0,0,1,651,704.71H631.63a33.84,33.84,0,0,1-33.82-33.84V527.42a33.84,33.84,0,0,1,33.82-33.84Z"></path><path id="Rectangle_1273" data-name="Rectangle 1273" class="cls-11" d="M640.83,421.49l63.22,13.82a50.75,50.75,0,0,1,38.76,60.38h0a50.78,50.78,0,0,1-60.4,38.69l-63.18-13.77a50.79,50.79,0,0,1-38.79-60.4h0A50.78,50.78,0,0,1,640.83,421.49Z"></path><circle id="Ellipse_679" data-name="Ellipse 679" class="cls-10" cx="654.19" cy="726.48" r="90.24"></circle><circle id="Ellipse_680" data-name="Ellipse 680" class="cls-11" cx="653.73" cy="733.41" r="90.28"></circle><ellipse class="cls-13" cx="717.86" cy="687.05" rx="25.88" ry="34.01" transform="translate(-245.16 442.19) rotate(-29.48)"></ellipse><circle id="Ellipse_681" data-name="Ellipse 681" class="cls-6" cx="732.55" cy="676.68" r="31.93"></circle><path class="cls-13" d="M625.55,800.39l8.74-2.86a39.36,39.36,0,0,0,25.16-49.65l-40.7-101.81a39.36,39.36,0,0,0-49.65-25.16l-8.74,2.87C539.7,630.54,536.2,654,543,674.65L575.9,775.24A39.35,39.35,0,0,0,625.55,800.39Z"></path><path id="Path_9321" data-name="Path 9321" class="cls-6" d="M456.21,475.73,527.47,454s38.55-13.66,56,72l66.22,211.51a41.87,41.87,0,0,1-26.09,52h0a41.85,41.85,0,0,1-50.66-19.43l-128-235.52S424,499.61,456.21,475.73Z"></path><rect class="cls-12" x="373.71" y="637.99" width="285.42" height="10.27" rx="1.17" transform="translate(833.6 -118.25) rotate(61.38)"></rect><path id="Rectangle_1274" data-name="Rectangle 1274" class="cls-10" d="M1509.75,289.46h0a65.31,65.31,0,0,1,90.31,19.39l.07.1,28.5,44.16a65.34,65.34,0,0,1-19.44,90.35l0,0h0a65.32,65.32,0,0,1-90.32-19.38l-.06-.1-28.5-44.17a65.34,65.34,0,0,1,19.44-90.35Z"></path><path id="Rectangle_1275" data-name="Rectangle 1275" class="cls-6" d="M1463.9,440.22l-10.78-22.3a51.09,51.09,0,0,1,23.6-68.24h0a51.09,51.09,0,0,1,68.22,23.64l10.83,22.26a51.12,51.12,0,0,1-23.69,68.29h0a51.07,51.07,0,0,1-68.25-23.61h0Z"></path><rect class="cls-12" x="1524.24" y="356.24" width="18.09" height="68.96" rx="3.67" transform="translate(-18.97 697.51) rotate(-25.48)"></rect><path id="Rectangle_1276" data-name="Rectangle 1276" class="cls-10" d="M1460.6,369.8h0a67.3,67.3,0,0,1-67.34-67.26h0V275.82a67.28,67.28,0,0,1,67.26-67.3h0a67.28,67.28,0,0,1,67.32,67.24v.08h0v26.68a67.3,67.3,0,0,1-67.32,67.28Z"></path><path class="cls-13" d="M1331.7,190.58h181.23a1.38,1.38,0,0,1,1.38,1.38v49.84a1.38,1.38,0,0,1-1.38,1.38H1336a5.67,5.67,0,0,1-5.67-5.67V192A1.38,1.38,0,0,1,1331.7,190.58Z"></path><path id="Path_9322" data-name="Path 9322" class="cls-6" d="M1348.09,239.41h180a14.85,14.85,0,0,0,14.79-14.79V158.57a14.84,14.84,0,0,0-14.79-14.74l-180,24.4A14.82,14.82,0,0,0,1333.3,183v41.62A14.8,14.8,0,0,0,1348.09,239.41Z"></path><g class="cls-15"><path class="cls-9" d="M1532.26,153.26l-182.81,23.85a7.19,7.19,0,0,0-6.12,7.08v36.53a7.16,7.16,0,0,0,.57,2.81l-7.22,1.75a14,14,0,0,1-.74-4.56V184.19a14.61,14.61,0,0,1,12.5-14.4l182.86-23.86a3.7,3.7,0,0,1,1,7.33Z"></path></g><path id="Path_9323" data-name="Path 9323" class="cls-6" d="M1643.53,414.71h0c31.46-1.45,52.73-28.38,51.19-59.86l-3.48-145.67a43.72,43.72,0,0,0-45.59-41.54l-22.89,1.09A48.18,48.18,0,0,0,1577,219l16.67,141.51C1595.21,391.59,1612,416.33,1643.53,414.71Z"></path><g class="cls-15"><path class="cls-9" d="M1643.92,411.35a2.28,2.28,0,0,0,.45,0c50.21-9.27,45.91-56.6,45.57-59.67l-3.8-142.94a39.55,39.55,0,0,0-3.39-15.63c-5.72-12.37-24.69-22.34-36.59-22.34l-33.05,1.57a2.47,2.47,0,0,0-2.35,2.58,2.44,2.44,0,0,0,2.58,2.34l32.94-1.56c10.07,0,27.23,9.17,32,19.48a34.71,34.71,0,0,1,3,13.69L1685,352.14c.24,1.85,5.41,45.65-41.56,54.32a2.47,2.47,0,0,0,.44,4.89Z"></path></g><path id="Rectangle_1277" data-name="Rectangle 1277" class="cls-10" d="M1623.56,493.5h0A43.47,43.47,0,0,1,1667,537V661.22a43.47,43.47,0,0,1-43.47,43.47h0a43.47,43.47,0,0,1-43.47-43.47V537A43.47,43.47,0,0,1,1623.56,493.5Z"></path><path id="Rectangle_1278" data-name="Rectangle 1278" class="cls-11" d="M1645.56,520.68l-63.18,13.7A50.74,50.74,0,0,1,1522,495.65v0h0a50.74,50.74,0,0,1,38.77-60.32L1624,421.54a50.72,50.72,0,0,1,60.39,38.71v0h0a50.7,50.7,0,0,1-38.72,60.35Z"></path><circle id="Ellipse_682" data-name="Ellipse 682" class="cls-10" cx="1610.67" cy="726.36" r="90.24"></circle><path id="Path_9344" data-name="Path 9344" class="cls-11" d="M1623.3,648.23a90.28,90.28,0,1,1-104.6,73.2h0a90.22,90.22,0,0,1,104.46-73.18Z"></path><ellipse class="cls-13" cx="1550.13" cy="689.66" rx="34.01" ry="25.88" transform="translate(116.77 1597.4) rotate(-56.33)"></ellipse><circle id="Ellipse_684" data-name="Ellipse 684" class="cls-6" cx="1532.31" cy="676.68" r="31.93"></circle><path id="Path_9324" data-name="Path 9324" class="cls-6" d="M1806.14,481.26l-71.26-21.64s-38.53-13.67-55.94,72l-66.21,211.49a41.61,41.61,0,0,0,26.08,52h0a41.72,41.72,0,0,0,50.62-19.51l128-235.5S1838.35,505.19,1806.14,481.26Z"></path><rect class="cls-12" x="1601.26" y="645.83" width="285.42" height="10.27" rx="1.17" transform="translate(3136.55 -584.3) rotate(117.96)"></rect><circle id="Ellipse_694" data-name="Ellipse 694" class="cls-10" cx="476.37" cy="508.65" r="23.31"></circle><circle id="Ellipse_695" data-name="Ellipse 695" class="cls-10" cx="1782.92" cy="511.94" r="23.31"></circle><circle id="Ellipse_696" data-name="Ellipse 696" class="cls-10" cx="498.98" cy="557.48" r="14.56"></circle><circle id="Ellipse_697" data-name="Ellipse 697" class="cls-10" cx="1750.96" cy="559.12" r="14.56"></circle><path id="Rectangle_1290" data-name="Rectangle 1290" class="cls-18" d="M508.22,607.2h0A10.92,10.92,0,0,1,514.31,593h0l49.24-19.64a11,11,0,0,1,14.23,6.09h0a11,11,0,0,1-6.09,14.23h0l-49.24,19.64a10.93,10.93,0,0,1-14.2-6Z"></path><path id="Rectangle_1291" data-name="Rectangle 1291" class="cls-18" d="M1679.82,584.49h0a11,11,0,0,1,14.21-6.14h0L1743.28,598a11,11,0,0,1,6.12,14.22h0a11,11,0,0,1-14.22,6.13h0l-49.24-19.69a10.91,10.91,0,0,1-6.16-14.15Z"></path><path id="Rectangle_1292" data-name="Rectangle 1292" class="cls-10" d="M1617.42,340.2h0a10.94,10.94,0,0,1-12.27-9.41h0L1592,230.47a11,11,0,0,1,9.19-12.46h.25a11,11,0,0,1,12.29,9.42h0l13.11,100.3a11,11,0,0,1-9.18,12.45h0Z"></path><path id="Rectangle_1293" data-name="Rectangle 1293" class="cls-10" d="M662.14,211.39h0a11,11,0,0,1,9.42,12.27L658.42,324.07a11,11,0,0,1-12.17,9.48H646a10.93,10.93,0,0,1-9.47-12.17,1,1,0,0,1,0-.24l13.1-100.31a11,11,0,0,1,12.45-9.25h0Z"></path><path id="Path_9327" data-name="Path 9327" class="cls-11" d="M1126.14,563.92h-22.59a24.42,24.42,0,0,1-24.34-21.34L1075.42,513a24.5,24.5,0,0,1,21.16-27.4c1-.05,2.07-.05,3.11,0h30.19A24.5,24.5,0,0,1,1154.4,510v0c0,1,0,2.07,0,3.1l-3.79,29.71A24.48,24.48,0,0,1,1126.14,563.92Z"></path><path id="Rectangle_1297" data-name="Rectangle 1297" class="cls-11" d="M1188.48,499.62h0a11,11,0,0,1,7.49,13.54l-14.65,50.94a11,11,0,0,1-13.58,7.54h0a11,11,0,0,1-7.48-13.56l14.56-51a11,11,0,0,1,13.53-7.52h0Z"></path><path id="Path_9346" data-name="Path 9346" class="cls-11" d="M1060.61,577.36A10.93,10.93,0,0,1,1047,570v0h0l-14.85-50.9a11,11,0,0,1,21.06-6.16l14.79,50.9a11,11,0,0,1-7.46,13.56Z"></path><path id="Rectangle_1299" data-name="Rectangle 1299" class="cls-10" d="M618.63,446.17h0a11,11,0,0,1,13.07-8.33l66,14.4a11,11,0,0,1,8.34,13h0A11,11,0,0,1,693,473.6l-66-14.36A11,11,0,0,1,618.63,446.17Z"></path><path id="Rectangle_1300" data-name="Rectangle 1300" class="cls-10" d="M608,486.59h0a10.94,10.94,0,0,1,13-8.33l66.05,14.39a11,11,0,0,1,8.31,13.05h0a10.94,10.94,0,0,1-13,8.33l-66-14.45A10.93,10.93,0,0,1,608,486.59Z"></path><path id="Rectangle_1301" data-name="Rectangle 1301" class="cls-10" d="M1558.41,461.37h0a10.93,10.93,0,0,1,8.34-13L1632.68,434a10.93,10.93,0,0,1,13,8.33h0a10.94,10.94,0,0,1-8.29,13.07h0l-66.05,14.36A10.93,10.93,0,0,1,1558.41,461.37Z"></path><path id="Rectangle_1302" data-name="Rectangle 1302" class="cls-10" d="M1577.1,499.11h0a10.93,10.93,0,0,1,8.33-13l66.22-14.19a11,11,0,0,1,13.07,8.33h0a11,11,0,0,1-8.33,13l-66.25,14.19a10.94,10.94,0,0,1-13-8.32Z"></path><path class="cls-13" d="M646.64,549.39h38.12a0,0,0,0,1,0,0v23.17a0,0,0,0,1,0,0H646.64a4.7,4.7,0,0,1-4.7-4.7V554.09A4.7,4.7,0,0,1,646.64,549.39Z"></path><path id="Rectangle_1303" data-name="Rectangle 1303" class="cls-6" d="M645.66,558.38h0a10.93,10.93,0,0,1,10.93-10.93h33.22a10.91,10.91,0,0,1,11,10.84v.06h0a11,11,0,0,1-11,10.94H656.5a10.94,10.94,0,0,1-10.93-10.94Z"></path><path class="cls-13" d="M646.64,576.05h38.12a0,0,0,0,1,0,0v23.17a0,0,0,0,1,0,0H646.64a4.7,4.7,0,0,1-4.7-4.7V580.75A4.7,4.7,0,0,1,646.64,576.05Z"></path><path id="Rectangle_1304" data-name="Rectangle 1304" class="cls-6" d="M645.66,586h0a10.93,10.93,0,0,1,10.93-10.94h33.22a11,11,0,0,1,11,10.94h0a11,11,0,0,1-11,11h-33.3a11,11,0,0,1-10.93-10.95Z"></path><path class="cls-13" d="M646.64,603.23h38.12a0,0,0,0,1,0,0V626.4a0,0,0,0,1,0,0H646.64a4.7,4.7,0,0,1-4.7-4.7V607.93a4.7,4.7,0,0,1,4.7-4.7Z"></path><path id="Rectangle_1305" data-name="Rectangle 1305" class="cls-6" d="M645.66,613.65h0a10.93,10.93,0,0,1,10.93-10.93h33.22a11,11,0,0,1,11,10.93h0a11,11,0,0,1-11,11H656.5a11,11,0,0,1-10.93-10.95Z"></path><path id="Rectangle_1306" data-name="Rectangle 1306" class="cls-6" d="M1561.91,554.38h0a11,11,0,0,1,10.95-10.93h33.28a11,11,0,0,1,10.95,10.93h0a11,11,0,0,1-10.89,11h-33.34a11,11,0,0,1-10.95-11Z"></path><path id="Rectangle_1307" data-name="Rectangle 1307" class="cls-6" d="M1561.91,582.07h0a11,11,0,0,1,10.95-11h33.28A11,11,0,0,1,1617.09,582h0a11,11,0,0,1-10.95,11h-33.28a11,11,0,0,1-10.95-11Z"></path><path id="Rectangle_1308" data-name="Rectangle 1308" class="cls-6" d="M1561.91,609.7h0a11,11,0,0,1,10.95-11h33.28a11,11,0,0,1,10.95,11h0a11,11,0,0,1-10.95,10.95h-33.28A11,11,0,0,1,1561.91,609.7Z"></path><path id="Rectangle_1309" data-name="Rectangle 1309" class="cls-11" d="M841.86,248.72h0a8.7,8.7,0,0,1,8.69,8.7v79.86a8.68,8.68,0,0,1-8.69,8.33h0a8.7,8.7,0,0,1-8.34-8.33v-79.9A8.71,8.71,0,0,1,841.86,248.72Z"></path><path id="Rectangle_1310" data-name="Rectangle 1310" class="cls-11" d="M1418.85,345.57h0a8.7,8.7,0,0,1-8.7-8.61V257.38a8.71,8.71,0,0,1,8.7-8.7h0a8.7,8.7,0,0,1,8.69,8.7h0v79.86a8.56,8.56,0,0,1-8.69,8.33Z"></path><circle id="Ellipse_711" data-name="Ellipse 711" class="cls-10" cx="1644.57" cy="378.3" r="14.56"></circle><circle id="Ellipse_712" data-name="Ellipse 712" class="cls-10" cx="623.47" cy="376.92" r="14.56"></circle><circle id="Ellipse_713" data-name="Ellipse 713" class="cls-11" cx="764.44" cy="263.74" r="14.56"></circle><circle id="Ellipse_715" data-name="Ellipse 715" class="cls-11" cx="1496.4" cy="263.74" r="14.56"></circle><circle id="Ellipse_717" data-name="Ellipse 717" class="cls-11" cx="792.7" cy="98.83" r="14.56"></circle><circle id="Ellipse_718" data-name="Ellipse 718" class="cls-11" cx="1478.32" cy="94.59" r="14.56"></circle><path id="Rectangle_1283" data-name="Rectangle 1283" class="cls-6" d="M1343.31,1173.85h0a33.73,33.73,0,0,1-43.16-20.27h0L1256.91,1034a33.7,33.7,0,0,1,20.23-43.15h0a33.74,33.74,0,0,1,43.25,20.18h0a.6.6,0,0,0,0,.19l43.19,119.67A33.75,33.75,0,0,1,1343.31,1173.85Z"></path><rect class="cls-12" x="1324.79" y="996.21" width="11.01" height="146.46" rx="2.23" transform="translate(-290.54 534.39) rotate(-20.53)"></rect><path id="Rectangle_1282" data-name="Rectangle 1282" class="cls-6" d="M1451,1135.13h0a33.71,33.71,0,0,1-43-20.23l-43.19-119.66a33.71,33.71,0,0,1,20.21-43.15h0a33.72,33.72,0,0,1,43.16,20.28h0L1471.35,1092a33.72,33.72,0,0,1-20.31,43.14Z"></path><rect class="cls-12" x="1432.06" y="957.75" width="11.01" height="146.46" rx="2.23" transform="translate(-270.24 569.57) rotate(-20.53)"></rect><path id="Path_9306" data-name="Path 9306" class="cls-11" d="M1010.84,618a274.56,274.56,0,0,1,206.36-2.35c50.62,19.06,83.84,80.15,83,134.23-.8,31.63-13.91,63.68-55.5,81.92H998.32s-82.18-20.27-67.18-104.47c8.22-43.84,38.29-92.77,79.71-109.34Z"></path><path id="Rectangle_1255-3" data-name="Rectangle 1255" class="cls-13" d="M1350,863.75h0c47.69,2,70.21,126.23,70.21,126.23-4,45-31.94,86-79.59,84l-5.11-.23c-47.68-2-76.54-29.55-80.62-79.15l3.54-24.08c3.84-45,43.67-108.67,91.38-106.79Z"></path><path id="Rectangle_1281" data-name="Rectangle 1281" class="cls-6" d="M1362.11,1055.23h0a80.76,80.76,0,0,1-103.34-48.49l-15.52-43a80.72,80.72,0,0,1,48.45-103.35h0A80.68,80.68,0,0,1,1395,908.84l0,0h0l15.52,43a80.69,80.69,0,0,1-48.45,103.33h0Z"></path><circle id="Ellipse_688" data-name="Ellipse 688" class="cls-11" cx="1332.2" cy="968.74" r="52.85"></circle><path id="Rectangle_1285" data-name="Rectangle 1285" class="cls-10" d="M1336.86,1157.69h0a9.89,9.89,0,0,1-12.68-5.92h0l-24.61-69.38a9.92,9.92,0,0,1,6-12.68h0a9.89,9.89,0,0,1,12.5,6l24.62,69.36A9.93,9.93,0,0,1,1336.86,1157.69Z"></path><path id="Rectangle_1284" data-name="Rectangle 1284" class="cls-10" d="M1301.84,963.51l52.8-15.17a10.55,10.55,0,0,1,13.07,7.2h0a10.55,10.55,0,0,1-7.25,13h0l-52.8,15.19a10.57,10.57,0,0,1-13.09-7.21h0A10.57,10.57,0,0,1,1301.84,963.51Z"></path><circle id="Ellipse_689" data-name="Ellipse 689" class="cls-10" cx="1302.15" cy="881.21" r="11.1"></circle><circle id="Ellipse_690" data-name="Ellipse 690" class="cls-10" cx="1440.21" cy="1102.47" r="23.31"></circle><path id="Rectangle_1286" data-name="Rectangle 1286" class="cls-19" d="M760.31,1340.37h0a11.87,11.87,0,0,1,16.22,4.35l56,97a11.89,11.89,0,0,1-4.35,16.23h0a11.89,11.89,0,0,1-16.23-4.35l-56-97A11.88,11.88,0,0,1,760.31,1340.37Z"></path><path id="Path_9335" data-name="Path 9335" class="cls-19" d="M786.56,1293.32a11.91,11.91,0,0,1,16.24,4.17h0l56,97a11.89,11.89,0,1,1-20.13,12.65c-.15-.24-.3-.49-.43-.75h0l-56-97a11.85,11.85,0,0,1,4.17-16.22Z"></path><circle id="Ellipse_693" data-name="Ellipse 693" class="cls-10" cx="1523.62" cy="1390.78" r="23.31"></circle><circle id="Ellipse_698" data-name="Ellipse 698" class="cls-10" cx="1109.61" cy="742.62" r="77.46"></circle><circle id="Ellipse_699" data-name="Ellipse 699" class="cls-11" cx="1110.78" cy="743.78" r="49.48"></circle><path id="Path_9343" data-name="Path 9343" class="cls-10" d="M1084.68,733h55a10.59,10.59,0,0,1,0,21.16h-55a10.59,10.59,0,0,1-1-21.16Z"></path><path id="Path_9339" data-name="Path 9339" class="cls-13" d="M942.53,647.6a41,41,0,0,1,28.09,50.69v0h0L934.17,821.6a41,41,0,0,1-79.25-21.09c.14-.52.3-1,.46-1.54l36.45-123.14a41,41,0,0,1,50.7-28.14h0Z"></path><path id="Path_9338" data-name="Path 9338" class="cls-6" d="M889.43,654.91l78.84,22.59-39,135.07L850.43,790Z"></path><path id="Path_9333" data-name="Path 9333" class="cls-13" d="M876.49,676.82c3.51,14.91,6,25.25,14.83,31l.11.06c26.63,15.82,54,12.25,71.84-13.05L967,674.6"></path><path id="Path_9339-2" data-name="Path 9339" class="cls-10" d="M910.91,728.49A41,41,0,0,1,939,779.18v0h0l-10,34.9A41,41,0,0,1,849.72,793c.14-.53.3-1,.46-1.55l10-34.76a41,41,0,0,1,50.7-28.14h0Z"></path><path id="Path_9332" data-name="Path 9332" class="cls-6" d="M952.36,699.65h0a59.36,59.36,0,0,1-78.87-16.86l-55.76-79.24c-8.53-12.08-1.37-30.8,15.65-41L865,543.78c17.07-10.15,36.91-7.55,43.45,5.79l58.38,118.64C971.34,678.25,965.17,692,952.36,699.65Z"></path><g class="cls-15"><path class="cls-9" d="M959.86,676.88a2.38,2.38,0,0,1-2.12-3.46c.07-.18,1.23-3.19-2-8.9-1.33-2.33-7.53-15-16.12-32.44C928,608.49,912.11,576.17,901.66,556a19,19,0,0,0-11.86-9.12,21.26,21.26,0,0,0-16.43,1.69l-35.11,21.76a26,26,0,0,0-7.93,37.53,2.39,2.39,0,1,1-3.88,2.78,30.78,30.78,0,0,1,9.34-44.39l35.11-21.76a25.78,25.78,0,0,1,20.21-2.2c6.6,1.9,12,6.09,14.79,11.51,10.47,20.28,26.36,52.61,38,76.23,8.23,16.75,14.73,30,16,32.17,4.71,8.24,2.4,13,2.12,13.49A2.39,2.39,0,0,1,959.86,676.88Z"></path></g><path id="Path_9339-3" data-name="Path 9339" class="cls-13" d="M1296,642.16a41,41,0,0,1,50.8,27.9v0h0l34.91,123.72a41,41,0,0,1-78.28,24.43c-.16-.52-.3-1-.44-1.55l-34.83-123.61A41,41,0,0,1,1296,642.24h0Z"></path><polygon id="Rectangle_1321" data-name="Rectangle 1321" class="cls-6" points="1273.39 677.45 1352.24 654.78 1363.84 695.14 1391.07 789.86 1312.23 812.53 1273.39 677.45"></polygon><path id="Path_9333-2" data-name="Path 9333" class="cls-13" d="M1274.25,678.33c3.52,14.91,6,25.25,14.83,31l.12.06c26.62,15.82,57.13,11.67,75-13.63l-5.59-18.83"></path><path id="Rectangle_1322" data-name="Rectangle 1322" class="cls-10" d="M1363.37,842.16h0a41,41,0,0,1-50.72-27.93v0h0l-10-35a41,41,0,0,1,28.07-50.73h0a41,41,0,0,1,50.73,28h0l10,34.88a41,41,0,0,1-28,50.79h-.12Z"></path><path id="Path_9333-3" data-name="Path 9333" class="cls-6" d="M1289.08,699.64l.12.07a59.35,59.35,0,0,0,78.8-16.8l56-79.28c8.54-12.06,1.34-30.8-15.64-40.94l-31.63-18.84c-17.11-10.17-36.92-7.54-43.54,5.77l-58.31,118.71C1270.05,678.27,1276.31,692,1289.08,699.64Z"></path><g class="cls-15"><path class="cls-9" d="M1282.28,677.57a2.33,2.33,0,0,0,1.14-.29,2.38,2.38,0,0,0,1-3.17c-.08-.17-1.23-3.18,2-8.9,1.33-2.32,7.53-15,16.12-32.44,11.6-23.59,27.47-55.9,37.92-76.13a19.05,19.05,0,0,1,11.87-9.12,21.24,21.24,0,0,1,16.42,1.69L1403.88,571a26,26,0,0,1,7.93,37.53,2.38,2.38,0,0,0,3.88,2.77,30.77,30.77,0,0,0-9.34-44.38l-35.11-21.77a25.78,25.78,0,0,0-20.21-2.19,23.8,23.8,0,0,0-14.79,11.51c-10.47,20.27-26.36,52.61-38,76.22-8.23,16.75-14.73,30-16,32.17-4.71,8.25-2.4,13-2.12,13.49A2.41,2.41,0,0,0,1282.28,677.57Z"></path></g><circle id="Ellipse_707" data-name="Ellipse 707" class="cls-10" cx="1387.56" cy="589.65" r="23.31"></circle><circle id="Ellipse_708" data-name="Ellipse 708" class="cls-10" cx="853.68" cy="589.65" r="23.31"></circle><circle id="Ellipse_709" data-name="Ellipse 709" class="cls-10" cx="937.87" cy="673.13" r="14.56"></circle><circle id="Ellipse_710" data-name="Ellipse 710" class="cls-10" cx="1302.15" cy="673.13" r="14.56"></circle><path id="Rectangle_1288" data-name="Rectangle 1288" class="cls-19" d="M1399.39,1442.4l56-97a11.89,11.89,0,0,1,16.23-4.35h0a11.89,11.89,0,0,1,4.35,16.23l-56,97a11.87,11.87,0,0,1-16.22,4.34h0A11.86,11.86,0,0,1,1399.39,1442.4Z"></path><path id="Rectangle_1289" data-name="Rectangle 1289" class="cls-19" d="M1381,1396.91l56-97a11.89,11.89,0,0,1,16.23-4.35h0a11.89,11.89,0,0,1,4.35,16.23l-56,97a11.87,11.87,0,0,1-16.23,4.34h0A11.87,11.87,0,0,1,1381,1396.91Z"></path><path id="Path_9328" data-name="Path 9328" class="cls-11" d="M1194.91,97.53c0,35.68-33,64.7-73.67,64.7s-73.79-28.86-73.79-64.7"></path><path id="Path_9329" data-name="Path 9329" class="cls-17" d="M1056.32,129.61,1118,190.55a6.23,6.23,0,0,0,8.73,0L1187,129.61a6.17,6.17,0,0,0,0-8.72h0a6.31,6.31,0,0,0-4.37-1.76h-122a6.21,6.21,0,0,0-6.14,6.23A6.09,6.09,0,0,0,1056.32,129.61Z"></path><path id="Path_9330" data-name="Path 9330" class="cls-10" d="M1143,232.44l-29.92-29.92,76.47-76.28a5.81,5.81,0,0,1,8.08,0h0L1219.33,148a5.83,5.83,0,0,1,0,8.1h0Z"></path><path id="Path_9345" data-name="Path 9345" class="cls-10" d="M1131.71,201.67l-29.39,30.4-77.67-75.13a5.84,5.84,0,0,1,0-8.09h0L1046,126.76a5.75,5.75,0,0,1,8.09,0h0Z"></path><path id="Path_9331" data-name="Path 9331" class="cls-6" d="M1044.45,91.48h0c0-31.09,25.48-74.11,56.61-74.11h39.78c31.13,0,56.61,43,56.61,74.11h0"></path><circle id="Ellipse_703" data-name="Ellipse 703" class="cls-6" cx="1090.55" cy="110.04" r="28.56"></circle><circle id="Ellipse_704" data-name="Ellipse 704" class="cls-20" cx="1090.55" cy="110.04" r="14.59"></circle><circle id="Ellipse_703-2" data-name="Ellipse 703" class="cls-6" cx="1153.14" cy="110.04" r="28.56"></circle><circle id="Ellipse_704-2" data-name="Ellipse 704" class="cls-20" cx="1153.14" cy="110.04" r="14.59"></circle><rect class="cls-13" x="1048.04" y="95.45" width="146.26" height="10.21" rx="0.67"></rect><path id="Rectangle_1314" data-name="Rectangle 1314" class="cls-6" d="M1049.6,77.62h142.75A11.4,11.4,0,0,1,1203.8,89v.1h0a11.45,11.45,0,0,1-11.45,11.44H1049.6a11.43,11.43,0,0,1-11.45-11.42v0h0a11.43,11.43,0,0,1,11.41-11.45h0Z"></path><path id="Rectangle_1315" data-name="Rectangle 1315" class="cls-21" d="M1068.28,44.42,1070,41.8a13.57,13.57,0,0,1,18.73-4.13h0a13.57,13.57,0,0,1,4.14,18.74L1091.15,59a13.57,13.57,0,0,1-18.74,4.14h0A13.56,13.56,0,0,1,1068.28,44.42Z"></path><path id="Rectangle_1316" data-name="Rectangle 1316" class="cls-21" d="M1154.05,37.64h0a13.51,13.51,0,0,1,18.67,4,.41.41,0,0,1,.07.11l1.69,2.58a13.5,13.5,0,0,1-4,18.68l-.13.08h0A13.59,13.59,0,0,1,1151.62,59l-1.69-2.58a13.51,13.51,0,0,1,4-18.69Z"></path><path id="Rectangle_1317" data-name="Rectangle 1317" class="cls-10" d="M1054.5.93h0a10.84,10.84,0,0,1,14.3,5.53l15.62,35.29a10.85,10.85,0,0,1-5.53,14.3h0a10.83,10.83,0,0,1-14.3-5.52L1049,15.23A10.84,10.84,0,0,1,1054.5.93Z"></path><circle id="Ellipse_705" data-name="Ellipse 705" class="cls-21" cx="1074.98" cy="42.07" r="13.34"></circle><path id="Rectangle_1318" data-name="Rectangle 1318" class="cls-10" d="M1155.22,41.81,1170.85,6.5A10.84,10.84,0,0,1,1185.13,1h0a10.81,10.81,0,0,1,5.52,14.27h0L1175,50.58a10.84,10.84,0,0,1-14.29,5.55h0a10.85,10.85,0,0,1-5.52-14.3Z"></path><circle id="Ellipse_706" data-name="Ellipse 706" class="cls-21" cx="1164.67" cy="45.64" r="13.34"></circle><path id="Path_9340" data-name="Path 9340" class="cls-6" d="M1198.68,146a7.69,7.69,0,0,1,0,10.84l-73.55,73.5a7.69,7.69,0,0,1-11.43-10.28l.35-.36h.2l73.52-73.51a7.74,7.74,0,0,1,10.91-.21Z"></path><path id="Rectangle_1325" data-name="Rectangle 1325" class="cls-6" d="M1130.49,232.85h0a7.73,7.73,0,0,1-10.87,0l-73.47-73.5a7.66,7.66,0,0,1,0-10.82h0a7.71,7.71,0,0,1,10.84,0l73.5,73.52a7.66,7.66,0,0,1,0,10.84l0,.05S1130.55,232.88,1130.49,232.85Z"></path><circle id="Ellipse_700-2" data-name="Ellipse 700" class="cls-6" cx="1122.66" cy="212.79" r="37.25"></circle><circle id="Ellipse_700-3" data-name="Ellipse 700" class="cls-17" cx="1122.66" cy="212.79" r="19.04"></circle><ellipse class="cls-12" cx="1121.35" cy="21.64" rx="26.4" ry="1.49"></ellipse><ellipse class="cls-12" cx="1123.82" cy="81.72" rx="69.29" ry="1.74"></ellipse><ellipse class="cls-12" cx="1081.66" cy="107.25" rx="5.38" ry="2.57" transform="translate(611.19 1087.12) rotate(-70.02)"></ellipse><ellipse class="cls-12" cx="1144.72" cy="107.25" rx="5.38" ry="2.57" transform="translate(652.7 1146.39) rotate(-70.02)"></ellipse><ellipse class="cls-12" cx="1169.37" cy="17.37" rx="13.29" ry="1.28" transform="translate(670.04 1074.92) rotate(-65.58)"></ellipse><ellipse class="cls-12" cx="1066.69" cy="14.39" rx="1.28" ry="13.3" transform="translate(144.16 550.1) rotate(-30.92)"></ellipse><rect class="cls-12" x="1166.66" y="116.77" width="2.52" height="73.6" rx="0.46" transform="translate(454.85 -784.07) rotate(45.26)"></rect><rect class="cls-12" x="1170.96" y="138.29" width="2.52" height="56.57" rx="0.46" transform="translate(465.35 -783.26) rotate(45.26)"></rect><rect class="cls-12" x="1074.7" y="118.25" width="2.52" height="73.6" rx="0.46" transform="translate(1943.49 -500.01) rotate(134.74)"></rect><rect class="cls-12" x="1070.4" y="139.78" width="2.52" height="56.57" rx="0.46" transform="translate(1945.42 -474.78) rotate(134.74)"></rect><ellipse class="cls-12" cx="1122.66" cy="199.58" rx="7.76" ry="2.22"></ellipse><path class="cls-12" d="M1156.41,211.21c0,.51,0,1-.05,1.49a33.73,33.73,0,0,0-67.39,0c0-.49,0-1,0-1.49a33.74,33.74,0,1,1,67.48,0Z"></path><path class="cls-12" d="M1168,271.26c0,1.73,32.58.45,77.69.45s81.67,1.28,81.67-.45-36.84-3.26-81.95-3.26S1168,269.53,1168,271.26Z"></path><path class="cls-12" d="M922,270.67c0,.87,32.59.23,77.69.23s81.68.64,81.68-.23-36.85-1.63-82-1.63S922,269.81,922,270.67Z"></path><path class="cls-12" d="M922,302.76c0,.87,32.59.22,77.69.22s81.68.65,81.68-.22-36.85-1.63-82-1.63S922,301.89,922,302.76Z"></path><path class="cls-12" d="M922,334.52c0,1.15,32.59.3,77.69.3s81.68.85,81.68-.3-36.85-2.15-82-2.15S922,333.38,922,334.52Z"></path><path class="cls-12" d="M926.14,366.56c0,.87,31.74.23,75.69.23s79.57.64,79.57-.23-35.9-1.63-79.85-1.63S926.14,365.7,926.14,366.56Z"></path><path class="cls-12" d="M935.39,398.47c0,.87,25,0,67.46,0s76.92.64,76.92-.22-34.16-1-76.64-1S935.39,397.6,935.39,398.47Z"></path><path class="cls-12" d="M1169,302.6c0,1.17,31.48.31,75,.31s78.89.86,78.89-.31-35.6-2.18-79.17-2.18S1169,301.44,1169,302.6Z"></path><path class="cls-12" d="M1169,334.67c0,.86,31.63.22,75.41.22s79.27.64,79.27-.22-35.76-1.63-79.54-1.63S1169,333.8,1169,334.67Z"></path><path class="cls-12" d="M1168,366.56c0,.87,31.37.23,74.8.23s78.63.64,78.63-.23-35.47-1.63-78.9-1.63S1168,365.7,1168,366.56Z"></path><path class="cls-12" d="M1168,398.47c0,.87,28.73.23,68.51.23s72,.64,72-.23-32.49-1.63-72.27-1.63S1168,397.61,1168,398.47Z"></path><path class="cls-12" d="M1256.27,515.78c-39.63-34.39-140.86-117.22-277.08-4.94a2.32,2.32,0,0,1-3.59-.82l-33.83-89.7,30.33,102.6a2.31,2.31,0,0,0,3.7,1c147.68-128,265.68-15.26,282.47,2.24,1.31,1.33,1.91-4.32,1.41-2.52l43.13-108.23Z"></path><rect class="cls-13" x="985.41" y="608.14" width="70.82" height="128.14" rx="12.73" transform="translate(-186.48 862.94) rotate(-42.34)"></rect><path id="Path_9325" data-name="Path 9325" class="cls-6" d="M980.12,670.88,1025,711.35a30.81,30.81,0,0,0,41.61,0h0a30.8,30.8,0,0,0,4.17-40.83l-49.95-68a29.71,29.71,0,0,0-41.45-6.86h0l-.21.15a30.26,30.26,0,0,0-7.82,8.33l-1,1.74s-.51.82-1.31,2.28A51.39,51.39,0,0,0,980.12,670.88Z"></path><rect class="cls-13" x="1174.27" y="609.06" width="70.82" height="128.14" rx="12.73" transform="translate(758.42 -635.61) rotate(41.88)"></rect><path id="Path_9326" data-name="Path 9326" class="cls-6" d="M1249.75,671.69,1205,712.14a30.83,30.83,0,0,1-41.71,0h0a30.84,30.84,0,0,1-4.15-40.79l49.65-67.79a29.55,29.55,0,0,1,41.25-6.7l.06,0h0a29.48,29.48,0,0,1,7.87,8.33c.33.54.66,1.11,1,1.74.5.95.5.78,1.28,2.24a51.48,51.48,0,0,1-10.55,62.47Z"></path><path class="cls-10" d="M1333.25,408.81a9.85,9.85,0,0,1-2.91,7,10,10,0,0,1-7,2.88h-21.86l7.69-19.76h14.17A9.91,9.91,0,0,1,1333.25,408.81Z"></path><path class="cls-10" d="M1333.25,376.91a9.92,9.92,0,0,1-9.91,9.86h-9.44l7.67-19.76h1.77A10,10,0,0,1,1333.25,376.91Z"></path><path class="cls-10" d="M1330.34,352a10,10,0,0,1-3.84,2.39l5.49-14.15.08.12c.07.17.25.52.47,1a9.14,9.14,0,0,1,.71,3.6A9.86,9.86,0,0,1,1330.34,352Z"></path><path class="cls-10" d="M941.29,418.69H924.7a9.85,9.85,0,0,1-9.85-9.86v0a9.87,9.87,0,0,1,9.83-9.86H935.4Z"></path><path class="cls-10" d="M931.78,386.77H924.7a9.83,9.83,0,0,1-9.85-9.83v0a9.87,9.87,0,0,1,9.85-9.9h1.21Z"></path><path class="cls-10" d="M922.22,354.58a9.87,9.87,0,0,1-7.37-9.56v0a9.8,9.8,0,0,1,2.53-6.58Z"></path><g class="cls-15"><path class="cls-9" d="M1158.8,690.86a2.47,2.47,0,0,1-2.46-2.33c-.38-6.85,2.67-10.73,8.74-18.46,2-2.6,4.36-5.55,7.11-9.29,7.45-10.13,13.91-19.47,19.62-27.71,16.76-24.23,26.87-38.85,38-38.85,10.09,0,18.09,3.3,23.77,9.81,12.32,14.12,9.19,38.17,9.06,39.18a2.47,2.47,0,0,1-4.89-.66c0-.23,3-22.87-7.89-35.29-4.71-5.38-11.45-8.11-20-8.11s-18.61,14.61-33.91,36.72c-5.72,8.27-12.21,17.65-19.7,27.83-2.8,3.81-5.24,6.91-7.2,9.41-5.8,7.39-8,10.15-7.7,15.15a2.45,2.45,0,0,1-2.32,2.59Z"></path></g><g class="cls-15"><path class="cls-9" d="M1072.69,690.86a2.49,2.49,0,0,0,2.5-2.33c.39-6.85-2.71-10.73-8.91-18.46-2.08-2.6-4.43-5.55-7.24-9.29-7.6-10.12-14.18-19.47-20-27.71-17.08-24.23-27.39-38.85-38.7-38.85-10.29,0-18.44,3.3-24.23,9.81-12.56,14.12-9.37,38.17-9.23,39.18a2.52,2.52,0,0,0,2.83,2.11,2.48,2.48,0,0,0,2.15-2.77c0-.23-3-22.87,8-35.29,4.8-5.38,11.67-8.11,20.44-8.11s19,14.61,34.57,36.72c5.83,8.27,12.44,17.65,20.08,27.83,2.85,3.81,5.34,6.91,7.34,9.41,5.92,7.39,8.13,10.15,7.85,15.15a2.47,2.47,0,0,0,2.36,2.59Z"></path></g><g class="cls-15"><path class="cls-9" d="M618.38,410.91a2.28,2.28,0,0,1-.45,0c-50.2-9.27-45.9-56.6-45.57-59.67l3.8-142.94a39.73,39.73,0,0,1,3.4-15.63c5.72-12.37,24.69-22.34,36.58-22.34l33.06,1.57a2.46,2.46,0,1,1-.23,4.92L616,175.22c-10.07,0-27.23,9.17-32,19.48a34.92,34.92,0,0,0-2.94,13.69L577.27,351.7c-.24,1.86-5.41,45.65,41.56,54.32a2.47,2.47,0,0,1-.45,4.89Z"></path></g><g id="Path_9339-4" data-name="Path 9339" class="cls-22"><path class="cls-9" d="M881.12,838.4a3.49,3.49,0,0,1-1-.12A38.69,38.69,0,0,1,852.76,791c.14-.51.29-1,.44-1.48L861.72,760a38.63,38.63,0,0,1,47.21-26.67,3.66,3.66,0,0,1,3.25,3.63v4.9l-4.72-1.26A31.25,31.25,0,0,0,868.82,762l-8.54,29.63c-.15.48-.27.87-.38,1.26a31.27,31.27,0,0,0,22.17,38.21,3.7,3.7,0,0,1-1,7.27Z"></path></g><g id="Path_9339-5" data-name="Path 9339" class="cls-23"><path class="cls-24" d="M1334.35,733.11a3.47,3.47,0,0,1,.91-.3,38.69,38.69,0,0,1,45,31q.13.78.24,1.53l4.93,30.33A38.65,38.65,0,0,1,1354.17,840a3.67,3.67,0,0,1-4.49-1.9l-2.09-4.43,4.8-.87a31.26,31.26,0,0,0,25.75-35.92l-5-30.43c-.06-.5-.12-.91-.2-1.31a31.27,31.27,0,0,0-36.38-25,3.69,3.69,0,0,1-2.25-7Z"></path></g><rect class="cls-12" x="1568.51" y="545.6" width="42.25" height="5.78" rx="1.17"></rect><rect class="cls-12" x="1568.51" y="573.69" width="42.25" height="5.78" rx="1.17"></rect><rect class="cls-12" x="1568.51" y="600.98" width="42.25" height="5.78" rx="1.17"></rect><rect class="cls-12" x="652.06" y="547.85" width="42.25" height="5.78" rx="1.17"></rect><rect class="cls-12" x="652.06" y="575.94" width="42.25" height="5.78" rx="1.17"></rect><rect class="cls-12" x="652.06" y="603.23" width="42.25" height="5.78" rx="1.17"></rect><g id="Ellipse_694-2" data-name="Ellipse 694" class="cls-22"><path class="cls-9" d="M476.37,527.57a18.92,18.92,0,0,1,0-37.84,2.47,2.47,0,1,1,0,4.93,14,14,0,1,0,0,28,2.47,2.47,0,1,1,0,4.93Z"></path></g><g id="Ellipse_694-3" data-name="Ellipse 694" class="cls-15"><path class="cls-24" d="M502,570.06a12.44,12.44,0,1,1-7.13-23.83,1.62,1.62,0,1,1,.93,3.1A9.2,9.2,0,0,0,501.06,567a1.62,1.62,0,0,1,.93,3.11Z"></path></g><g id="Ellipse_694-4" data-name="Ellipse 694" class="cls-15"><path class="cls-24" d="M623.27,389.78a12.86,12.86,0,1,1,0-25.71,1.68,1.68,0,0,1,0,3.35,9.51,9.51,0,1,0,0,19,1.68,1.68,0,0,1,0,3.35Z"></path></g><g id="Ellipse_694-5" data-name="Ellipse 694" class="cls-22"><path class="cls-9" d="M853.19,609.73a20.09,20.09,0,0,1,0-40.17,2.62,2.62,0,1,1,0,5.23,14.86,14.86,0,0,0,0,29.71,2.62,2.62,0,1,1,0,5.23Z"></path></g><g id="Ellipse_694-6" data-name="Ellipse 694" class="cls-22"><path class="cls-9" d="M938,686.33a13.2,13.2,0,0,1,0-26.4,1.72,1.72,0,0,1,0,3.44,9.76,9.76,0,0,0,0,19.52,1.72,1.72,0,0,1,0,3.44Z"></path></g><g id="Ellipse_694-7" data-name="Ellipse 694" class="cls-22"><path class="cls-9" d="M1386.71,567.88a20.93,20.93,0,1,1,0,41.85c-1.5,0-4.22-2.87-2.72-2.72,15.29,1.48,21.48-10.14,21.48-18.67s-7.25-18.41-21.48-17.74C1382.48,570.67,1385.21,567.88,1386.71,567.88Z"></path></g><g id="Ellipse_694-8" data-name="Ellipse 694" class="cls-22"><path class="cls-9" d="M1302.32,659.81a13.4,13.4,0,1,1,0,26.8,1.74,1.74,0,0,1-1.74-1.74c0-1,11.65-.44,11.65-11.66,0-11.78-11.65-10.69-11.65-11.66A1.74,1.74,0,0,1,1302.32,659.81Z"></path></g><g id="Ellipse_694-9" data-name="Ellipse 694" class="cls-22"><path class="cls-9" d="M1782.68,491a20.93,20.93,0,0,1,0,41.86,2.73,2.73,0,0,1,0-5.46,15.48,15.48,0,1,0,0-30.95,2.73,2.73,0,0,1,0-5.45Z"></path></g><g id="Ellipse_694-10" data-name="Ellipse 694" class="cls-22"><path class="cls-9" d="M1751.08,546.46c7.89,0,14.3,5.76,14.3,12.85s-6.41,12.84-14.3,12.84a1.68,1.68,0,1,1,0-3.34c5.83,0,10.58-4.27,10.58-9.5s-4.75-9.5-10.58-9.5a1.68,1.68,0,1,1,0-3.35Z"></path></g><g id="Ellipse_694-11" data-name="Ellipse 694" class="cls-15"><path class="cls-9" d="M1642.82,364.81c7.86,0,14.27,5.81,14.27,12.95s-6.41,12.95-14.27,12.95a1.69,1.69,0,1,1,0-3.37c5.81,0,10.55-4.3,10.55-9.58s-4.74-9.57-10.55-9.57a1.7,1.7,0,1,1,0-3.38Z"></path></g><g id="Ellipse_694-12" data-name="Ellipse 694" class="cls-15"><path class="cls-9" d="M1440.29,1081.54a20.93,20.93,0,1,1,0,41.86,2.73,2.73,0,0,1,0-5.46,15.48,15.48,0,0,0,0-31,2.73,2.73,0,1,1,0-5.45Z"></path></g><g id="Ellipse_694-13" data-name="Ellipse 694" class="cls-15"><path class="cls-9" d="M777,1123.4a20.93,20.93,0,0,1,0-41.86,2.73,2.73,0,1,1,0,5.45,15.48,15.48,0,0,0,0,31,2.73,2.73,0,0,1,0,5.46Z"></path></g><ellipse class="cls-12" cx="1393.12" cy="927.78" rx="6.01" ry="44.48" transform="translate(-247.87 598.07) rotate(-22.3)"></ellipse><ellipse class="cls-12" cx="824.35" cy="930.62" rx="44.48" ry="6.01" transform="translate(-326.07 1401.96) rotate(-70.74)"></ellipse><ellipse class="cls-14" cx="1330.29" cy="959.91" rx="31.88" ry="2.38" transform="translate(-208.1 390.31) rotate(-15.5)"></ellipse><ellipse class="cls-14" cx="889.27" cy="959.84" rx="1.69" ry="31.87" transform="translate(-279.5 1548.11) rotate(-73.9)"></ellipse><ellipse class="cls-14" cx="888.28" cy="1115.48" rx="31.86" ry="1.68" transform="translate(-470.56 1547.79) rotate(-69.12)"></ellipse><ellipse class="cls-14" cx="1325.72" cy="1109.09" rx="1.68" ry="31.82" transform="translate(-300.92 524.58) rotate(-20.15)"></ellipse><ellipse class="cls-12" cx="713.14" cy="676.06" rx="8.49" ry="16.13"></ellipse><ellipse class="cls-12" cx="1548.9" cy="679.37" rx="16.13" ry="8.49" transform="translate(508.94 2013.21) rotate(-75.74)"></ellipse><rect class="cls-14" x="624.15" y="447.19" width="77.52" height="6.34" rx="1.29" transform="translate(105.56 -125.52) rotate(11.75)"></rect><rect class="cls-14" x="615.33" y="486.58" width="75.81" height="6.34" rx="1.29" transform="translate(119.62 -128.17) rotate(12.33)"></rect><path id="Rectangle_1273-2" data-name="Rectangle 1273" class="cls-25" d="M623.15,519.18a48.33,48.33,0,0,1-36.92-57.48h0a48.34,48.34,0,0,1,57.48-36.86"></path><path id="Rectangle_1273-3" data-name="Rectangle 1273" class="cls-25" d="M1626.58,423.25c28.61-1.64,52.37,18.71,53.1,45.47h0c.66,26.75-21.94,49.74-50.52,51.41"></path><rect class="cls-14" x="1564.24" y="443.91" width="74.86" height="6.94" rx="1.41" transform="translate(-57.38 333.2) rotate(-11.67)"></rect><rect class="cls-14" x="1584.61" y="480.73" width="74.86" height="6.94" rx="1.41" transform="translate(-64.41 338.08) rotate(-11.67)"></rect><path class="cls-14" d="M1486.88,1285h0c-3.14,2.58,11.84,12.84,17.28,19.6l37.39,56.43,25.57,21.81c5.44,6.76,9.67,20.15,12.81,17.57h0c3.14-2.57-2.41-18.19-7.86-25l-22.91-21.62-38.7-57.36C1505,1289.69,1490,1282.4,1486.88,1285Z"></path><path id="Path_9313" data-name="Path 9313" class="cls-6" d="M672.91,1389l-46.25,95.4a49,49,0,0,0,44.13,70.43h92.57a49,49,0,0,0,44.12-70.44L761.19,1389a49.06,49.06,0,0,0-88.27,0Z"></path><path class="cls-12" d="M629.86,1509.41h0c3.58,1.71,9.57-3.23,13.37-11l51.19-104.94c3.81-7.8,4-15.51.41-17.22h0c-3.58-1.71-9.57,3.23-13.37,11l-51.19,104.94C626.46,1500,626.28,1507.7,629.86,1509.41Z"></path><path id="Path_9314" data-name="Path 9314" class="cls-10" d="M684.56,1460.56,655,1521.5a31.28,31.28,0,0,0,28.14,45h59.07a31.37,31.37,0,0,0,28.14-45l-29.43-60.94a31.29,31.29,0,0,0-56.4,0Z"></path><path id="Path_9337" data-name="Path 9337" class="cls-10" d="M716.92,1373.87a23.31,23.31,0,1,1-23.3,23.31h0A23.3,23.3,0,0,1,716.92,1373.87Z"></path><path class="cls-2" d="M2100.19,1521.9c0,39.49-21,66.86-61.56,97.35-40.28,28.53-96.5-35.53-169.5,31-108.64,99.07-215.65,62.93-215.65,62.93s160.27-76.09,194.63-206.86c.75-2.85,2.27-5.3,3.53-7.74a118.91,118.91,0,1,1,186-61.45A88.66,88.66,0,0,1,2100.19,1521.9Z"></path><path class="cls-2" d="M1793.07,1610.47A99.7,99.7,0,1,1,1923.9,1460"></path><path class="cls-2" d="M1896.55,1545a68.44,68.44,0,1,0,89.81-103.3"></path><path class="cls-2" d="M581.3,1705.42c-2.84-.51-184.62-33.58-257-37.75-55.48-3.18-86.51-9.37-110.21-19.25a145.77,145.77,0,0,1-75.12-72c-13.3-27.94-11-33.61-11-62.52,0-39.86,33-73.38,69.28-84.52a119.07,119.07,0,0,1,119.07-152.31,117.32,117.32,0,0,1,52.22,14.61h0c35.6,19.64,60.26,57,61.8,99.87a118.76,118.76,0,0,1-47.1,99.27,38.12,38.12,0,0,1,3.52,7.74C420.8,1628.33,578.83,1704.24,581.3,1705.42Z"></path><path class="cls-2" d="M289.15,1462A99.71,99.71,0,0,1,420,1612.51"></path><path class="cls-2" d="M256.26,1452.65a42.65,42.65,0,0,1,14.05,84.14"></path><path class="cls-3" d="M47.65,1494.94a54.82,54.82,0,0,1,48.7,98.24"></path><ellipse class="cls-12" cx="1956.71" cy="1512.13" rx="41.1" ry="23.44" transform="translate(-516.16 1524.62) rotate(-37.99)"></ellipse><ellipse class="cls-12" cx="1902.85" cy="1323.94" rx="57.3" ry="23.44" transform="translate(-241.86 444.23) rotate(-12.53)"></ellipse><ellipse class="cls-12" cx="1963.5" cy="1225.67" rx="23.44" ry="57.3" transform="translate(589.46 3088.36) rotate(-85.56)"></ellipse><ellipse class="cls-12" cx="150.34" cy="1251.71" rx="57.3" ry="23.44" transform="translate(-373.85 105.15) rotate(-17.72)"></ellipse><ellipse class="cls-12" cx="2110.98" cy="1656.21" rx="41.05" ry="30.81" transform="translate(-525.49 2154.47) rotate(-48.82)"></ellipse><ellipse class="cls-12" cx="46.14" cy="1536.79" rx="47.38" ry="22.96" transform="matrix(0.66, -0.75, 0.75, 0.66, -1141.07, 559.86)"></ellipse><path class="cls-12" d="M70.15,1404.49c-17.23,19.7-20.73,49.46-15,54.5s18.62-16.54,35.84-36.24,39.57-34.9,33.81-39.94S87.37,1384.79,70.15,1404.49Z"></path><ellipse class="cls-12" cx="403.15" cy="1503.56" rx="30.81" ry="56.03" transform="translate(-809.01 526.89) rotate(-36.13)"></ellipse><ellipse class="cls-12" cx="371.71" cy="1346.73" rx="30.81" ry="56.03" transform="translate(-722.59 478.19) rotate(-36.13)"></ellipse><path class="cls-26" d="M1658.86,1714.73c96.27-6.41,150.13-104.26,150.13-104.26s-10.61-24.78-25.29-67.21,16-88.58,16-88.58-56.78,47.52-35.59,109.75c13.42,39.43,28.5,43.77,28.5,43.77s-31.44,34.24-52,51c-30.82,25.16-87.12,54-87.12,54Z"></path><path class="cls-26" d="M1758.77,1407.44c0,36.6,4.67,59.76,9.29,73.7a118.47,118.47,0,0,1,71.38-197.89C1838.19,1284.05,1758.77,1335.55,1758.77,1407.44Z"></path><path class="cls-26" d="M418.92,1446.89c17-73.93-49.52-154.08-50.44-155.19,35.6,19.64,60.26,57,61.8,99.87A118.87,118.87,0,0,1,418.91,1447,.17.17,0,0,1,418.92,1446.89Z"></path><path class="cls-26" d="M584.47,1705.42s-110-51.84-147.32-112.24c0,0,46.82-65.28-10.44-124.72,0,0,19.63,55.36,9.48,80.35S409.77,1603,409.77,1603,453,1681.42,581.3,1705.42"></path><rect class="cls-26" x="1447.83" y="1528.25" width="151.55" height="38.28" rx="19.14"></rect><rect class="cls-26" x="1463.29" y="1535.61" width="109.24" height="25.02" rx="12.51"></rect><rect class="cls-26" x="641.15" y="1528.07" width="151.55" height="38.28" rx="19.14"></rect><rect class="cls-26" x="661.57" y="1541.69" width="109.24" height="25.02" rx="12.51"></rect><ellipse class="cls-26" cx="694.31" cy="1780.59" rx="151.62" ry="21.12"></ellipse><ellipse class="cls-26" cx="1502.57" cy="1780.59" rx="151.62" ry="21.12"></ellipse></g></g></g></svg>