<svg xmlns="http://www.w3.org/2000/svg" width="136.658" height="37.982" viewBox="0 0 136.658 37.982"><defs><style>.a{fill:#fff;}</style></defs><path class="a" d="M26.255,0,19.282,9.294,11.561,4.386,0,18.991,36.9,10.16Z"></path><path class="a" d="M18.985,50.991l17.97-10.16L0,32Z" transform="translate(0 -13.009)"></path><path class="a" d="M76.061,30.372l-3.2-9.092H69.23l4.89,12.7h3.84L82.8,21.28H79.289Z" transform="translate(-28.144 -8.651)"></path><path class="a" d="M98.809,30.882a3.274,3.274,0,0,1-3.276-3.5,3.291,3.291,0,1,1,6.57,0,3.288,3.288,0,0,1-3.294,3.5m0-10.184A6.528,6.528,0,0,0,92.138,27.4a6.688,6.688,0,0,0,13.371,0,6.528,6.528,0,0,0-6.7-6.706" transform="translate(-37.456 -8.414)"></path><path class="a" d="M127.2,21.28h-3.852L120.7,25.227l-2.671-3.947h-3.952l4.427,6.249-4.54,6.451h3.852l2.73-4.036,2.783,4.036h3.952l-4.5-6.463Z" transform="translate(-46.328 -8.651)"></path><path class="a" d="M169.325,30.882a3.278,3.278,0,0,1-3.282-3.5,3.292,3.292,0,1,1,6.57,0,3.282,3.282,0,0,1-3.288,3.5m0-10.184a6.528,6.528,0,0,0-6.677,6.706,6.688,6.688,0,0,0,13.377,0,6.528,6.528,0,0,0-6.7-6.706" transform="translate(-66.121 -8.414)"></path><path class="a" d="M213.052,26.714a2.723,2.723,0,0,1,2.783-2.54c1.43,0,2.374.914,2.694,2.54Zm8.819,1.187c0-3.958-2.451-6.671-6.006-6.671-3.7,0-6.255,2.724-6.255,6.724s2.605,6.635,6.421,6.635a7.371,7.371,0,0,0,5.264-1.923l-1.958-2.2a4.95,4.95,0,0,1-3.128,1.217,3.009,3.009,0,0,1-3.181-2.635h8.766a9.3,9.3,0,0,0,.065-1.151" transform="translate(-85.213 -8.631)"></path><path class="a" d="M199.206,26.242v8.041h-3.312V27.34c0-1.828-.884-2.831-2.374-2.831a2.557,2.557,0,0,0-2.6,2.855v6.92H187.61V21.655h3.2v1.484a4.083,4.083,0,0,1,3.614-1.822,4.641,4.641,0,0,1,4.783,4.926" transform="translate(-76.27 -8.664)"></path><path class="a" d="M145.132,26.477a3.226,3.226,0,0,1-3.181-3.5,3.226,3.226,0,0,1,3.181-3.5,3.267,3.267,0,0,1,3.187,3.5,3.225,3.225,0,0,1-3.187,3.5m.593-10.19a4.421,4.421,0,0,0-3.626,1.668V9.86l-3.3,1.863V29.332h3.252v-1.4a4.487,4.487,0,0,0,3.7,1.727c3.407,0,5.982-2.866,5.982-6.682s-2.576-6.688-5.994-6.688" transform="translate(-56.427 -4.008)"></path></svg>