<svg xmlns="http://www.w3.org/2000/svg" id="MKTG-EN" width="139" height="29.718" viewBox="0 0 139 29.718"><g id="Mktg-EN-2" data-name="Mktg-EN"><g id="nav" transform="translate(0 0)"><g id="wework-copy" transform="translate(0 0)"><path id="Fill-1" d="M32.208,314.068a11.361,11.361,0,0,1,2.27.162,2.6,2.6,0,0,1,1.737,2.131,4.379,4.379,0,0,1-.139,1.228,37.487,37.487,0,0,1-2.5,4.841c-.811-1.3-2.687-4.957-3.335-6.393a3.9,3.9,0,0,1-.417-1.343C29.823,314.207,30.7,314.068,32.208,314.068Zm-10.678,0a2.533,2.533,0,0,1,1.922,1.529c2.316,4.239,4.633,8.918,6.879,13.5a1.6,1.6,0,0,0,1.089.3,1.522,1.522,0,0,0,1.089-.3c1.065-2.015,3.891-7.458,5.119-9.566,1.413,2.617,3.868,7.366,4.864,9.566a1.6,1.6,0,0,0,1.089.3,1.49,1.49,0,0,0,1.089-.3c1.992-4.308,4.146-8.779,6.323-12.948.764-1.506,1.089-1.9,2.641-2.2l.649-.116a1.014,1.014,0,0,0-.139-1.436c-1.042.093-2.27.116-3.637.116-1.181,0-2.293-.046-3.868-.116-.463.162-.463,1.135-.185,1.436l.788.162c.811.162,1.181.371,1.181.579a4.953,4.953,0,0,1-.44,1.575c-.741,1.876-1.482,3.891-2.617,6.231-1.042-1.969-2.339-4.609-3.2-6.555a3.449,3.449,0,0,1-.371-1.251c0-.208.649-.417,1.737-.625l.695-.116c.347-.162.371-1.39-.139-1.436-3.011.093-5.374.116-8.339.116h-9.52c-1.969,0-3.474-.046-5.42-.116-.486.208-.486,1.112-.162,1.436l.88.232Z" transform="translate(-20.424 -299.684)" fill="#fff"></path><path id="Fill-4" d="M162.344,312.176a2.189,2.189,0,0,1,2.5,2.224c0,.417-.093.811-.324.927a4.424,4.424,0,0,1-1.946.371h-1.737c-1.506,0-2.154-.023-2.154-.6C158.684,313.8,160.375,312.176,162.344,312.176Zm-.046,15.565a9.249,9.249,0,0,0,8.246-4.633,1.047,1.047,0,0,0-1.228-.95,4.864,4.864,0,0,1-4.378,2.108c-4.378,0-6.648-2.965-6.648-6.022,0-.648.093-.741,1.181-.741h9.033c1.482,0,1.691-.579,1.691-1.343,0-3.15-2.641-5.86-7.528-5.86-5.883,0-10.168,3.984-10.168,9.126,0,4.447,3.451,8.315,9.8,8.315Z" transform="translate(-121.908 -298.07)" fill="#fff"></path><path id="Fill-5" d="M242.032,314.068a11.361,11.361,0,0,1,2.27.162,2.6,2.6,0,0,1,1.737,2.131,4.38,4.38,0,0,1-.139,1.228,37.486,37.486,0,0,1-2.5,4.841c-.811-1.3-2.687-4.957-3.335-6.393a3.9,3.9,0,0,1-.417-1.343C239.623,314.207,240.526,314.068,242.032,314.068Zm-10.678,0a2.5,2.5,0,0,1,1.923,1.529c2.293,4.239,4.632,8.918,6.879,13.5a1.6,1.6,0,0,0,1.089.3,1.522,1.522,0,0,0,1.089-.3c1.089-2.015,3.914-7.458,5.142-9.566,1.413,2.617,3.845,7.366,4.841,9.566a1.566,1.566,0,0,0,1.089.3,1.458,1.458,0,0,0,1.089-.3c1.992-4.308,4.146-8.779,6.323-12.948.764-1.506,1.089-1.9,2.641-2.2l.672-.116a1.014,1.014,0,0,0-.139-1.436c-1.042.093-2.247.116-3.636.116-1.181,0-2.293-.046-3.868-.116-.486.162-.486,1.135-.185,1.436l.811.162c.811.162,1.181.371,1.181.579a5.406,5.406,0,0,1-.417,1.575c-.764,1.876-1.506,3.891-2.641,6.231-1.042-1.969-2.339-4.609-3.2-6.555a3.448,3.448,0,0,1-.371-1.251c0-.208.649-.417,1.737-.625l.695-.116c.324-.162.371-1.39-.139-1.436-3.011.093-5.374.116-8.339.116H236.1c-1.969,0-3.474-.046-5.42-.116-.463.208-.463,1.112-.139,1.436l.811.232Z" transform="translate(-181.699 -299.684)" fill="#fff"></path><path id="Fill-6" d="M373.761,312.253c2.664,0,3.984,3.4,4.053,7.366.046,3.66-.857,6.3-3.544,6.3-2.71,0-4.285-3.15-4.285-7.412C369.986,314.106,371.677,312.253,373.761,312.253Zm0,15.565c5.791,0,10.817-2.8,10.817-8.755,0-5.744-5-8.663-10.539-8.663-5.559,0-10.886,3.22-10.84,9.033.046,5.605,4.957,8.385,10.562,8.385Z" transform="translate(-283.804 -298.147)" fill="#fff"></path><path id="Fill-7" d="M457.255,311.677c.278,0,.718.046,1.784.811a2.855,2.855,0,0,0,1.83.741c1.506,0,3.011-.764,3.011-2.641a2.474,2.474,0,0,0-2.594-2.409c-1.969,0-3.335,1.343-4.609,2.038-.371-.069-.463-.208-.463-.486,0-.371.093-.927.185-1.76a1.018,1.018,0,0,0-.834-.371,33.858,33.858,0,0,1-6.879,2.455.9.9,0,0,0,0,1.228l.672.371c.88.486.88.973.88,2.617v6.138c0,2.849-.185,3.22-1.737,3.335l-.9.069a1.022,1.022,0,0,0,.046,1.436c1.552-.093,3.636-.116,5.559-.116,2.2,0,4.1.046,6.37.116a1.022,1.022,0,0,0,.046-1.436l-1.506-.116c-1.552-.139-1.737-.463-1.737-3.312v-6.277c-.023-1.529.208-2.432.88-2.432" transform="translate(-348.443 -295.996)" fill="#fff"></path><path id="Fill-8" d="M522.356,285.179l-.6.139a.94.94,0,0,0,.185,1.413c1.32-.069,3.011-.116,5.791-.116,2.733,0,4.47.046,5.93.116a.945.945,0,0,0,.185-1.413l-.695-.139a6.213,6.213,0,0,1-2.78-.927c-1.181-.926-5.327-6.485-6.161-7.783a1.317,1.317,0,0,1-.347-.695.814.814,0,0,1,.278-.533,30.339,30.339,0,0,1,3.173-2.363,8.329,8.329,0,0,1,3.15-1.413l1.506-.278c.347-.324.3-1.228-.185-1.413a79.23,79.23,0,0,1-8.894.579h-1.135c-.463.162-.533,1.065-.093,1.413l1.181.162c.417.023.88.185.88.394,0,.255-.232.695-1.135,1.621l-1.969,2.015a3.739,3.739,0,0,1-2.733,1.135c-.51,0-.672-.116-.672-.579V263.731c0-2.571.07-4.285.162-5.953a1.12,1.12,0,0,0-.811-.278,59.669,59.669,0,0,1-7.2,2.27.9.9,0,0,0,0,1.228l.788.417c.95.486.95.927.95,2.571v17.9c0,2.849-.185,3.173-1.9,3.335l-.9.07a.994.994,0,0,0,.046,1.413c1.645-.07,3.59-.116,5.744-.116,2.177,0,4.146.046,5.652.116a.994.994,0,0,0,.046-1.413l-.741-.07c-1.645-.162-1.853-.486-1.853-3.335v-2.363c0-.788.232-.973.556-.973a1.371,1.371,0,0,1,1.181.6l3.335,4.4a4.608,4.608,0,0,1,.788,1.32c.069.139-.208.208-.695.3" transform="translate(-395.084 -257.5)" fill="#fff"></path></g></g></g></svg>