<svg xmlns="http://www.w3.org/2000/svg" xmlns:xlink="http://www.w3.org/1999/xlink" width="753" height="471" viewBox="0 0 753 471"><defs><clipPath id="clip-Earthport"><rect width="753" height="471"></rect></clipPath></defs><g id="Earthport" clip-path="url(#clip-Earthport)"><rect width="753" height="471" fill="#fff"></rect><g id="Group_1161" data-name="Group 1161"><path id="Rounded_Rectangle_16_copy_17" data-name="Rounded Rectangle 16 copy 17" d="M0,0H259a0,0,0,0,1,0,0V427a6,6,0,0,1-6,6H0a0,0,0,0,1,0,0V0A0,0,0,0,1,0,0Z" transform="translate(494 38)" fill="#173653"></path><path id="Rounded_Rectangle_7_copy" data-name="Rounded Rectangle 7 copy" d="M-1.991,129.967l146.109.013V562.959H.025a1.878,1.878,0,0,1-2.014-1.706Z" transform="translate(1.991 -91.967)" fill="#f5f7f9"></path><rect id="Rectangle_1" data-name="Rectangle 1" width="753" height="38" fill="#fff"></rect><rect id="Rectangle_1-2" data-name="Rectangle 1" width="753" height="2" transform="translate(0 38)" fill="#00415a"></rect><rect id="Rounded_Rectangle_16_copy_16" data-name="Rounded Rectangle 16 copy 16" width="187.542" height="6" rx="3" transform="translate(190 92)" fill="#d9dee5"></rect><rect id="Rounded_Rectangle_16_copy_16-2" data-name="Rounded Rectangle 16 copy 16" width="39.483" height="6" rx="3" transform="translate(11 302)" fill="#d9dee5"></rect><rect id="Rounded_Rectangle_16_copy_16-3" data-name="Rounded Rectangle 16 copy 16" width="55" height="15" rx="3" transform="translate(679 440)" fill="#fff" opacity="0.2"></rect><rect id="Rounded_Rectangle_16_copy_16-4" data-name="Rounded Rectangle 16 copy 16" width="15" height="15" rx="3" transform="translate(654 440)" fill="#fff" opacity="0.2"></rect><rect id="Rounded_Rectangle_16_copy_16-5" data-name="Rounded Rectangle 16 copy 16" width="20" height="20" rx="10" transform="translate(714 9)" fill="#d9dee5"></rect><rect id="Rounded_Rectangle_16_copy_17-2" data-name="Rounded Rectangle 16 copy 17" width="31" height="4" rx="2" transform="translate(512 64)" fill="#a969e8"></rect><rect id="Rounded_Rectangle_16_copy_17-3" data-name="Rounded Rectangle 16 copy 17" width="61" height="4" rx="2" transform="translate(512 73)" fill="#a969e8"></rect><rect id="Rounded_Rectangle_16_copy_17-4" data-name="Rounded Rectangle 16 copy 17" width="47" height="4" rx="2" transform="translate(512 82)" fill="#a969e8"></rect><rect id="Rounded_Rectangle_16_copy_17-5" data-name="Rounded Rectangle 16 copy 17" width="47" height="4" rx="2" transform="translate(512 202)" fill="#a969e8"></rect><rect id="Rounded_Rectangle_16_copy_17-6" data-name="Rounded Rectangle 16 copy 17" width="47" height="4" rx="2" transform="translate(512 131)" fill="#7c88a2"></rect><rect id="Rounded_Rectangle_16_copy_17-7" data-name="Rounded Rectangle 16 copy 17" width="47" height="4" rx="2" transform="translate(512 235)" fill="#7c88a2"></rect><rect id="Rounded_Rectangle_16_copy_17-8" data-name="Rounded Rectangle 16 copy 17" width="47" height="4" rx="2" transform="translate(512 253)" fill="#7c88a2"></rect><rect id="Rounded_Rectangle_16_copy_17-9" data-name="Rounded Rectangle 16 copy 17" width="31" height="4" rx="2" transform="translate(512 140)" fill="#7c88a2"></rect><rect id="Rounded_Rectangle_16_copy_17-10" data-name="Rounded Rectangle 16 copy 17" width="17" height="4" rx="2" transform="translate(512 91)" fill="#a969e8"></rect><rect id="Rounded_Rectangle_16_copy_17-11" data-name="Rounded Rectangle 16 copy 17" width="17" height="4" rx="2" transform="translate(512 211)" fill="#a969e8"></rect><rect id="Rounded_Rectangle_16_copy_17-12" data-name="Rounded Rectangle 16 copy 17" width="17" height="4" rx="2" transform="translate(512 183)" fill="#a969e8"></rect><rect id="Rounded_Rectangle_16_copy_17-13" data-name="Rounded Rectangle 16 copy 17" width="17" height="4" rx="2" transform="translate(512 192)" fill="#a969e8"></rect><rect id="Rounded_Rectangle_16_copy_17-14" data-name="Rounded Rectangle 16 copy 17" width="17" height="4" rx="2" transform="translate(512 164)" fill="#a969e8"></rect><rect id="Rounded_Rectangle_16_copy_17-15" data-name="Rounded Rectangle 16 copy 17" width="17" height="4" rx="2" transform="translate(512 112)" fill="#a969e8"></rect><rect id="Rounded_Rectangle_16_copy_17-16" data-name="Rounded Rectangle 16 copy 17" width="40" height="4" rx="2" transform="translate(651 91)" fill="#a969e8"></rect><rect id="Rounded_Rectangle_16_copy_17-17" data-name="Rounded Rectangle 16 copy 17" width="93" height="4" rx="2" transform="translate(587 73)" fill="#7c88a2"></rect><rect id="Rounded_Rectangle_16_copy_17-18" data-name="Rounded Rectangle 16 copy 17" width="102" height="4" rx="2" transform="translate(570 82)" fill="#7c88a2"></rect><rect id="Rounded_Rectangle_16_copy_17-19" data-name="Rounded Rectangle 16 copy 17" width="102" height="4" rx="2" transform="translate(570 202)" fill="#7c88a2"></rect><rect id="Rounded_Rectangle_16_copy_17-20" data-name="Rounded Rectangle 16 copy 17" width="102" height="4" rx="2" transform="translate(570 131)" fill="#73c178"></rect><rect id="Rounded_Rectangle_16_copy_17-21" data-name="Rounded Rectangle 16 copy 17" width="102" height="4" rx="2" transform="translate(570 235)" fill="#73c178"></rect><rect id="Rounded_Rectangle_16_copy_17-22" data-name="Rounded Rectangle 16 copy 17" width="48" height="4" rx="2" transform="translate(570 253)" fill="#73c178"></rect><rect id="Rounded_Rectangle_16_copy_17-23" data-name="Rounded Rectangle 16 copy 17" width="80" height="4" rx="2" transform="translate(553 140)" fill="#73c178"></rect><rect id="Rounded_Rectangle_16_copy_17-24" data-name="Rounded Rectangle 16 copy 17" width="80" height="4" rx="2" transform="translate(512 244)" fill="#73c178"></rect><rect id="Rounded_Rectangle_16_copy_17-25" data-name="Rounded Rectangle 16 copy 17" width="102" height="4" rx="2" transform="translate(539 91)" fill="#7c88a2"></rect><rect id="Rounded_Rectangle_16_copy_17-26" data-name="Rounded Rectangle 16 copy 17" width="102" height="4" rx="2" transform="translate(539 211)" fill="#7c88a2"></rect><rect id="Rounded_Rectangle_16_copy_17-27" data-name="Rounded Rectangle 16 copy 17" width="54" height="4" rx="2" transform="translate(539 183)" fill="#7c88a2"></rect><rect id="Rounded_Rectangle_16_copy_17-28" data-name="Rounded Rectangle 16 copy 17" width="43" height="4" rx="2" transform="translate(539 192)" fill="#7c88a2"></rect><rect id="Rounded_Rectangle_16_copy_17-29" data-name="Rounded Rectangle 16 copy 17" width="19" height="4" rx="2" transform="translate(645 192)" fill="#7c88a2"></rect><rect id="Rounded_Rectangle_16_copy_17-30" data-name="Rounded Rectangle 16 copy 17" width="43" height="4" rx="2" transform="translate(592 192)" fill="#7c88a2"></rect><rect id="Rounded_Rectangle_16_copy_17-31" data-name="Rounded Rectangle 16 copy 17" width="102" height="4" rx="2" transform="translate(539 174)" fill="#7c88a2"></rect><rect id="Rounded_Rectangle_16_copy_17-32" data-name="Rounded Rectangle 16 copy 17" width="262.737" height="6" rx="3" transform="translate(190 103)" fill="#d9dee5"></rect><rect id="Rounded_Rectangle_16_copy_17-33" data-name="Rounded Rectangle 16 copy 17" width="265" height="206" rx="3" transform="translate(190 150)" fill="#f5f7f9"></rect><rect id="Rounded_Rectangle_16_copy_17-34" data-name="Rounded Rectangle 16 copy 17" width="37.678" height="6" rx="3" transform="translate(11 319)" fill="#d9dee5"></rect><rect id="Rounded_Rectangle_16_copy_19" data-name="Rounded Rectangle 16 copy 19" width="37.678" height="6" rx="3" transform="translate(11 165)" fill="#d9dee5"></rect><rect id="Rounded_Rectangle_16_copy_19-2" data-name="Rounded Rectangle 16 copy 19" width="37.678" height="6" rx="3" transform="translate(11 353)" fill="#d9dee5"></rect><rect id="Rounded_Rectangle_16_copy_19-3" data-name="Rounded Rectangle 16 copy 19" width="37.678" height="6" rx="3" transform="translate(11 422)" fill="#d9dee5"></rect><rect id="Rounded_Rectangle_16_copy_20" data-name="Rounded Rectangle 16 copy 20" width="37.678" height="6" rx="3" transform="translate(11 183)" fill="#d9dee5"></rect><rect id="Rounded_Rectangle_16_copy_20-2" data-name="Rounded Rectangle 16 copy 20" width="37.678" height="6" rx="3" transform="translate(11 371)" fill="#d9dee5"></rect><rect id="Rounded_Rectangle_16_copy_20-3" data-name="Rounded Rectangle 16 copy 20" width="37.678" height="6" rx="3" transform="translate(11 440)" fill="#d9dee5"></rect><rect id="Rounded_Rectangle_16_copy_21" data-name="Rounded Rectangle 16 copy 21" width="44.358" height="6" rx="3" transform="translate(11 200)" fill="#d9dee5"></rect><rect id="Rounded_Rectangle_16_copy_21-2" data-name="Rounded Rectangle 16 copy 21" width="44.358" height="6" rx="3" transform="translate(11 388)" fill="#00415a"></rect><rect id="Rounded_Rectangle_16_copy_22" data-name="Rounded Rectangle 16 copy 22" width="44.358" height="6" rx="3" transform="translate(11 217)" fill="#d9dee5"></rect><rect id="Rounded_Rectangle_16_copy_22-2" data-name="Rounded Rectangle 16 copy 22" width="44.358" height="6" rx="3" transform="translate(11 405)" fill="#d9dee5"></rect><rect id="Rounded_Rectangle_16_copy_23" data-name="Rounded Rectangle 16 copy 23" width="44.358" height="6" rx="3" transform="translate(11 234)" fill="#d9dee5"></rect><rect id="Rounded_Rectangle_16_copy_24" data-name="Rounded Rectangle 16 copy 24" width="44.358" height="6" rx="3" transform="translate(11 251)" fill="#d9dee5"></rect><rect id="Rounded_Rectangle_16_copy_18" data-name="Rounded Rectangle 16 copy 18" width="46.487" height="6" rx="3" transform="translate(11 336)" fill="#d9dee5"></rect><g id="Rounded_Rectangle_3_copy_5" data-name="Rounded Rectangle 3 copy 5" transform="translate(76.5 82)" fill="#fff" stroke="#d9dee5" stroke-width="1"><rect width="58.741" height="18" rx="3" stroke="none"></rect><rect x="0.5" y="0.5" width="57.741" height="17" rx="2.5" fill="none"></rect></g><rect id="Rounded_Rectangle_3_copy_5-2" data-name="Rounded Rectangle 3 copy 5" width="58.741" height="18" rx="3" transform="translate(11 82)" fill="#00415a"></rect><rect id="Rounded_Rectangle_1" data-name="Rounded Rectangle 1" width="124.284" height="18" rx="3" transform="translate(11.061 108)" fill="#fff"></rect><g id="Rounded_Rectangle_1-2" data-name="Rounded Rectangle 1" transform="translate(11.061 54)" fill="#fff" stroke="#d9dee5" stroke-width="1"><rect width="124.284" height="20" rx="3" stroke="none"></rect><rect x="0.5" y="0.5" width="123.284" height="19" rx="2.5" fill="none"></rect></g><path id="Search" d="M4.047-1.551A1.437,1.437,0,0,1,3.5-.355a2.4,2.4,0,0,1-1.52.434,3.626,3.626,0,0,1-1.586-.3v-.883a4.311,4.311,0,0,0,.83.289,3.52,3.52,0,0,0,.818.105,1.3,1.3,0,0,0,.818-.211.688.688,0,0,0,.264-.566.71.71,0,0,0-.242-.543,3.646,3.646,0,0,0-1-.527,2.645,2.645,0,0,1-1.1-.723,1.529,1.529,0,0,1-.32-.977A1.368,1.368,0,0,1,.965-5.383a2.106,2.106,0,0,1,1.363-.41,4.006,4.006,0,0,1,1.633.359l-.3.762A3.567,3.567,0,0,0,2.3-4.992a1.043,1.043,0,0,0-.687.2.648.648,0,0,0-.234.521.734.734,0,0,0,.094.381.958.958,0,0,0,.309.3,5.22,5.22,0,0,0,.773.371,4.232,4.232,0,0,1,.922.488,1.436,1.436,0,0,1,.43.512A1.539,1.539,0,0,1,4.047-1.551ZM6.941.078A2.09,2.09,0,0,1,5.365-.51,2.232,2.232,0,0,1,4.8-2.129a2.449,2.449,0,0,1,.527-1.664A1.821,1.821,0,0,1,6.773-4.4a1.78,1.78,0,0,1,1.352.52,1.985,1.985,0,0,1,.5,1.43v.5H5.742a1.419,1.419,0,0,0,.34.967,1.184,1.184,0,0,0,.9.338A3.331,3.331,0,0,0,7.7-.721a3.737,3.737,0,0,0,.709-.24v.746a2.818,2.818,0,0,1-.68.227A4.168,4.168,0,0,1,6.941.078ZM6.773-3.7a.922.922,0,0,0-.7.277,1.322,1.322,0,0,0-.314.809H7.719a1.2,1.2,0,0,0-.258-.811A.882.882,0,0,0,6.773-3.7ZM12.367,0l-.184-.6h-.031a1.77,1.77,0,0,1-.629.537,1.989,1.989,0,0,1-.812.143,1.375,1.375,0,0,1-.994-.344,1.286,1.286,0,0,1-.357-.973,1.142,1.142,0,0,1,.5-1.008,2.86,2.86,0,0,1,1.512-.371l.746-.023v-.23a.874.874,0,0,0-.193-.619.789.789,0,0,0-.6-.205,2.073,2.073,0,0,0-.637.1,4.8,4.8,0,0,0-.586.23l-.3-.656a3.2,3.2,0,0,1,.77-.279,3.541,3.541,0,0,1,.789-.1,1.869,1.869,0,0,1,1.244.359,1.407,1.407,0,0,1,.42,1.129V0ZM11-.625A1.137,1.137,0,0,0,11.8-.9a1.012,1.012,0,0,0,.3-.783v-.375l-.555.023a1.9,1.9,0,0,0-.943.217.659.659,0,0,0-.295.592.577.577,0,0,0,.172.447A.738.738,0,0,0,11-.625ZM16.5-4.4a2.21,2.21,0,0,1,.457.039l-.09.855a1.735,1.735,0,0,0-.406-.047,1.176,1.176,0,0,0-.893.359,1.3,1.3,0,0,0-.342.934V0H14.3V-4.32h.719l.121.762h.047a1.712,1.712,0,0,1,.561-.613A1.332,1.332,0,0,1,16.5-4.4ZM19.336.078a1.892,1.892,0,0,1-1.49-.572,2.391,2.391,0,0,1-.51-1.643,2.4,2.4,0,0,1,.533-1.676A1.978,1.978,0,0,1,19.41-4.4a2.888,2.888,0,0,1,1.23.254l-.277.738a2.78,2.78,0,0,0-.961-.227q-1.121,0-1.121,1.488a1.782,1.782,0,0,0,.279,1.092.967.967,0,0,0,.818.365,2.348,2.348,0,0,0,1.16-.3v.8a1.813,1.813,0,0,1-.525.207A3.153,3.153,0,0,1,19.336.078ZM25.355,0h-.922V-2.656a1.163,1.163,0,0,0-.2-.746.778.778,0,0,0-.639-.246,1.014,1.014,0,0,0-.85.346,1.9,1.9,0,0,0-.271,1.158V0h-.918V-6.078h.918v1.543a7.2,7.2,0,0,1-.047.793h.059a1.275,1.275,0,0,1,.521-.484,1.681,1.681,0,0,1,.779-.172,1.393,1.393,0,0,1,1.57,1.582Z" transform="translate(18.003 120)" fill="#b0b5c9"></path><path id="Search-2" data-name="Search" d="M.714-.671a.827.827,0,0,1,.2-.6.788.788,0,0,1,.591-.209.778.778,0,0,1,.6.218.833.833,0,0,1,.2.594.853.853,0,0,1-.207.6.77.77,0,0,1-.594.223.766.766,0,0,1-.591-.22A.858.858,0,0,1,.714-.671ZM10.6,0H9.029L5.167-6.257H5.124l.027.349q.075,1,.075,1.826V0H4.061V-7.853H5.618L9.469-1.627H9.5q-.011-.124-.043-.9T9.426-3.738V-7.853H10.6Zm4.533.107A2.874,2.874,0,0,1,12.969-.7a3.069,3.069,0,0,1-.781-2.226,3.367,3.367,0,0,1,.725-2.288A2.5,2.5,0,0,1,14.9-6.048a2.448,2.448,0,0,1,1.858.714,2.73,2.73,0,0,1,.682,1.966v.682H13.487a1.951,1.951,0,0,0,.467,1.329,1.628,1.628,0,0,0,1.241.465,4.58,4.58,0,0,0,.98-.1,5.138,5.138,0,0,0,.975-.33V-.3a3.875,3.875,0,0,1-.935.312A5.731,5.731,0,0,1,15.136.107Zm-.231-5.2a1.268,1.268,0,0,0-.964.381A1.817,1.817,0,0,0,13.508-3.6h2.7a1.644,1.644,0,0,0-.354-1.115A1.212,1.212,0,0,0,14.9-5.092ZM21.092-.913a3.069,3.069,0,0,0,.924-.145v.951a2.548,2.548,0,0,1-.54.153,3.719,3.719,0,0,1-.685.062Q19,.107,19-1.783v-3.2h-.811v-.559L19.057-6l.43-1.257h.779V-5.94h1.692v.956H20.265V-1.8a.892.892,0,0,0,.228.674A.832.832,0,0,0,21.092-.913Z" transform="translate(16.003 68)" fill="#282b2f"></path><path id="Get_SDK" data-name="Get SDK" d="M3.862-3.872H6.489V-.288a7.6,7.6,0,0,1-1.238.3A8.762,8.762,0,0,1,3.97.1a3.22,3.22,0,0,1-2.5-.959A3.864,3.864,0,0,1,.591-3.569a3.61,3.61,0,0,1,.991-2.7,3.726,3.726,0,0,1,2.729-.974,5.316,5.316,0,0,1,2.119.43l-.41.972a4.124,4.124,0,0,0-1.738-.4,2.341,2.341,0,0,0-1.807.718A2.778,2.778,0,0,0,1.812-3.56a2.93,2.93,0,0,0,.6,1.99,2.168,2.168,0,0,0,1.721.681A5.657,5.657,0,0,0,5.342-1.03V-2.871H3.862ZM10.439.1a2.612,2.612,0,0,1-1.97-.735,2.79,2.79,0,0,1-.71-2.024,3.061,3.061,0,0,1,.659-2.08A2.277,2.277,0,0,1,10.229-5.5a2.225,2.225,0,0,1,1.689.649,2.482,2.482,0,0,1,.62,1.787v.62H8.94a1.774,1.774,0,0,0,.425,1.208,1.48,1.48,0,0,0,1.128.422,4.164,4.164,0,0,0,.891-.09,4.671,4.671,0,0,0,.886-.3v.933a3.523,3.523,0,0,1-.85.283A5.21,5.21,0,0,1,10.439.1Zm-.21-4.727a1.153,1.153,0,0,0-.876.347A1.652,1.652,0,0,0,8.96-3.271h2.451a1.5,1.5,0,0,0-.322-1.013A1.1,1.1,0,0,0,10.229-4.629Zm5.625,3.8a2.79,2.79,0,0,0,.84-.132V-.1A2.316,2.316,0,0,1,16.2.042,3.381,3.381,0,0,1,15.581.1Q13.95.1,13.95-1.621v-2.91h-.737v-.508L14-5.459,14.395-6.6H15.1v1.2h1.538v.869H15.1v2.891a.811.811,0,0,0,.208.613A.757.757,0,0,0,15.854-.83Zm8.755-1.108a1.8,1.8,0,0,1-.688,1.494,3,3,0,0,1-1.9.542,4.532,4.532,0,0,1-1.982-.376v-1.1a5.388,5.388,0,0,0,1.038.361A4.4,4.4,0,0,0,22.1-.889a1.627,1.627,0,0,0,1.023-.264.86.86,0,0,0,.33-.708.887.887,0,0,0-.3-.679A4.558,4.558,0,0,0,21.9-3.2a3.307,3.307,0,0,1-1.377-.9,1.911,1.911,0,0,1-.4-1.221,1.71,1.71,0,0,1,.635-1.406,2.633,2.633,0,0,1,1.7-.513,5.007,5.007,0,0,1,2.041.449l-.371.952a4.459,4.459,0,0,0-1.7-.4,1.3,1.3,0,0,0-.859.247.81.81,0,0,0-.293.652.918.918,0,0,0,.117.476,1.2,1.2,0,0,0,.386.374,6.525,6.525,0,0,0,.967.464,5.29,5.29,0,0,1,1.152.61,1.8,1.8,0,0,1,.537.64A1.924,1.924,0,0,1,24.609-1.938Zm7.188-1.7a3.558,3.558,0,0,1-.981,2.7A3.942,3.942,0,0,1,27.988,0h-2V-7.139H28.2a3.652,3.652,0,0,1,2.651.918A3.43,3.43,0,0,1,31.8-3.638Zm-1.23.039q0-2.563-2.4-2.563H27.158V-.981h.83A2.3,2.3,0,0,0,30.566-3.6ZM38.779,0H37.427L35.186-3.232l-.688.562V0H33.33V-7.139H34.5V-3.73q.479-.586.952-1.128l1.929-2.28h1.328q-1.87,2.2-2.681,3.13Z" transform="translate(21 94.241)" fill="#fff"></path><g id="Group_1073" data-name="Group 1073" transform="translate(-1.008 -14)"><path id="API_Spec" data-name="API Spec" d="M4.3,0l-.57-1.586H1.543L.984,0H0L2.137-5.734H3.152L5.289,0ZM3.48-2.391,2.945-3.945q-.059-.156-.162-.492T2.641-4.93a8.754,8.754,0,0,1-.309,1.051L1.816-2.391ZM9.824-3.984a1.665,1.665,0,0,1-.586,1.371,2.581,2.581,0,0,1-1.668.477H6.977V0H6.043V-5.711H7.688a2.488,2.488,0,0,1,1.6.438A1.571,1.571,0,0,1,9.824-3.984ZM6.977-2.922h.5a1.778,1.778,0,0,0,1.055-.25.91.91,0,0,0,.336-.781.887.887,0,0,0-.3-.734,1.486,1.486,0,0,0-.937-.242H6.977ZM10.965,0V-5.711H11.9V0Zm7.813-1.551a1.437,1.437,0,0,1-.551,1.2,2.4,2.4,0,0,1-1.52.434,3.626,3.626,0,0,1-1.586-.3v-.883a4.311,4.311,0,0,0,.83.289,3.52,3.52,0,0,0,.818.105,1.3,1.3,0,0,0,.818-.211.688.688,0,0,0,.264-.566.71.71,0,0,0-.242-.543,3.646,3.646,0,0,0-1-.527,2.645,2.645,0,0,1-1.1-.723,1.529,1.529,0,0,1-.32-.977A1.368,1.368,0,0,1,15.7-5.383a2.106,2.106,0,0,1,1.363-.41,4.006,4.006,0,0,1,1.633.359l-.3.762a3.567,3.567,0,0,0-1.359-.32,1.043,1.043,0,0,0-.687.2.648.648,0,0,0-.234.521.734.734,0,0,0,.094.381.958.958,0,0,0,.309.3,5.22,5.22,0,0,0,.773.371,4.232,4.232,0,0,1,.922.488,1.436,1.436,0,0,1,.43.512A1.539,1.539,0,0,1,18.777-1.551Zm3.2,1.629A1.513,1.513,0,0,1,20.7-.512h-.055q.055.547.055.664v1.77h-.918V-4.32h.742q.031.121.129.578H20.7A1.438,1.438,0,0,1,21.992-4.4a1.5,1.5,0,0,1,1.26.586A2.642,2.642,0,0,1,23.7-2.168a2.644,2.644,0,0,1-.459,1.652A1.513,1.513,0,0,1,21.977.078Zm-.223-3.727a.954.954,0,0,0-.8.32A1.66,1.66,0,0,0,20.7-2.3v.137a2.021,2.021,0,0,0,.25,1.143.93.93,0,0,0,.816.354.829.829,0,0,0,.734-.391,2.017,2.017,0,0,0,.258-1.113,1.947,1.947,0,0,0-.256-1.1A.853.853,0,0,0,21.754-3.648Zm4.9,3.727A2.09,2.09,0,0,1,25.08-.51a2.232,2.232,0,0,1-.568-1.619,2.449,2.449,0,0,1,.527-1.664A1.821,1.821,0,0,1,26.488-4.4a1.78,1.78,0,0,1,1.352.52,1.985,1.985,0,0,1,.5,1.43v.5H25.457a1.419,1.419,0,0,0,.34.967,1.184,1.184,0,0,0,.9.338,3.331,3.331,0,0,0,.713-.072,3.737,3.737,0,0,0,.709-.24v.746a2.818,2.818,0,0,1-.68.227A4.168,4.168,0,0,1,26.656.078ZM26.488-3.7a.922.922,0,0,0-.7.277,1.322,1.322,0,0,0-.314.809h1.961a1.2,1.2,0,0,0-.258-.811A.882.882,0,0,0,26.488-3.7ZM31.121.078a1.892,1.892,0,0,1-1.49-.572,2.391,2.391,0,0,1-.51-1.643,2.4,2.4,0,0,1,.533-1.676A1.978,1.978,0,0,1,31.2-4.4a2.888,2.888,0,0,1,1.23.254l-.277.738a2.78,2.78,0,0,0-.961-.227q-1.121,0-1.121,1.488a1.782,1.782,0,0,0,.279,1.092.967.967,0,0,0,.818.365,2.348,2.348,0,0,0,1.16-.3v.8A1.813,1.813,0,0,1,31.8.016,3.153,3.153,0,0,1,31.121.078Z" transform="translate(96.836 108)" fill="#282d44"></path><g id="download" transform="translate(86.008 101)"><path id="Path_34488" data-name="Path 34488" d="M9.991,15v1.554a.777.777,0,0,1-.777.777H3.777A.777.777,0,0,1,3,16.554V15" transform="translate(-3 -10.104)" fill="none" stroke="#282d44" stroke-linecap="round" stroke-linejoin="round" stroke-width="1"></path><path id="Path_34489" data-name="Path 34489" d="M7,10l1.944,1.944L10.888,10" transform="translate(-5.446 -7.046)" fill="none" stroke="#282d44" stroke-linecap="round" stroke-linejoin="round" stroke-width="1"></path><line id="Line_205" data-name="Line 205" y1="4.86" transform="translate(3.511 0)" fill="none" stroke="#282d44" stroke-linecap="round" stroke-linejoin="round" stroke-width="1"></line></g></g><path id="Forma_1_copy_8" data-name="Forma 1 copy 8" d="M240.462,615.928l-2.348-2.291a.367.367,0,0,1,0-.528.389.389,0,0,1,.541,0l2.077,2.029,2.077-2.029a.389.389,0,0,1,.541,0,.367.367,0,0,1,0,.528L241,615.928a.389.389,0,0,1-.541,0Z" transform="translate(-114.649 -550.999)" fill="#282d44"></path><g id="Rounded_Rectangle_16_copy_16-6" data-name="Rounded Rectangle 16 copy 16" transform="translate(210 183)" fill="#fff" stroke="#d9dee5" stroke-width="1"><rect width="96.483" height="14" rx="3" stroke="none"></rect><rect x="0.5" y="0.5" width="95.483" height="13" rx="2.5" fill="none"></rect></g><rect id="Rounded_Rectangle_16_copy_16-7" data-name="Rounded Rectangle 16 copy 16" width="96.483" height="14" rx="3" transform="translate(210 248)" fill="#fff" stroke="#d9dee5" stroke-width="1"></rect><g id="Rounded_Rectangle_16_copy_16-8" data-name="Rounded Rectangle 16 copy 16" transform="translate(210 313)" fill="#fff" stroke="#d9dee5" stroke-width="1"><rect width="96.483" height="14" rx="3" stroke="none"></rect><rect x="0.5" y="0.5" width="95.483" height="13" rx="2.5" fill="none"></rect></g><rect id="Rounded_Rectangle_16_copy_17-35" data-name="Rounded Rectangle 16 copy 17" width="39" height="6" rx="3" transform="translate(210 172)" fill="#d9dee5"></rect><rect id="Rounded_Rectangle_16_copy_17-36" data-name="Rounded Rectangle 16 copy 17" width="39" height="6" rx="3" transform="translate(210 237)" fill="#d9dee5"></rect><rect id="Rounded_Rectangle_16_copy_17-37" data-name="Rounded Rectangle 16 copy 17" width="39" height="6" rx="3" transform="translate(210 302)" fill="#d9dee5"></rect><path id="Path_9593" data-name="Path 9593" d="M1886.458,36.275l-2.336-2.353V30.392h-1.557v1.961L1880.229,30,1874,36.275v.392h1.557V40.59h3.893V38.236h1.557V40.59h3.893V36.665h1.557Z" transform="translate(-1156.654 -17)" fill="#7c8395"></path><path id="Path_35079" data-name="Path 35079" d="M3.476-3.485H5.84V-.259A6.842,6.842,0,0,1,4.726.009,7.886,7.886,0,0,1,3.573.088a2.9,2.9,0,0,1-2.25-.864A3.477,3.477,0,0,1,.532-3.212,3.249,3.249,0,0,1,1.424-5.64,3.353,3.353,0,0,1,3.88-6.517a4.784,4.784,0,0,1,1.907.387l-.369.875a3.711,3.711,0,0,0-1.564-.36,2.107,2.107,0,0,0-1.626.646A2.5,2.5,0,0,0,1.63-3.2a2.637,2.637,0,0,0,.538,1.791A1.952,1.952,0,0,0,3.718-.8a5.091,5.091,0,0,0,1.09-.127V-2.584H3.476ZM11.017,0H7.383V-6.425h3.634v.888H8.433v1.749h2.421v.879H8.433V-.892h2.584Zm3.608,0h-1.05V-5.524h-1.89v-.9h4.83v.9h-1.89ZM19.9,0h-1.05V-5.524h-1.89v-.9h4.83v.9H19.9Zm2.874,0V-6.425h1.05V0Zm8.1,0H29.584l-3.16-5.12h-.035l.022.286q.062.817.062,1.494V0h-.954V-6.425h1.274l3.151,5.093h.026q-.009-.1-.035-.736t-.026-.991V-6.425h.962ZM35.2-3.485H37.56V-.259a6.842,6.842,0,0,1-1.114.268,7.886,7.886,0,0,1-1.154.079,2.9,2.9,0,0,1-2.25-.864,3.477,3.477,0,0,1-.791-2.437,3.249,3.249,0,0,1,.892-2.428A3.353,3.353,0,0,1,35.6-6.517a4.784,4.784,0,0,1,1.907.387l-.369.875a3.711,3.711,0,0,0-1.564-.36,2.107,2.107,0,0,0-1.626.646,2.5,2.5,0,0,0-.6,1.767,2.637,2.637,0,0,0,.538,1.791A1.952,1.952,0,0,0,35.438-.8a5.091,5.091,0,0,0,1.09-.127V-2.584H35.2Zm9.949,1.74A1.617,1.617,0,0,1,44.525-.4a2.7,2.7,0,0,1-1.709.488A4.079,4.079,0,0,1,41.032-.25v-.993a4.849,4.849,0,0,0,.934.325,3.959,3.959,0,0,0,.921.119,1.465,1.465,0,0,0,.921-.237.774.774,0,0,0,.3-.637.8.8,0,0,0-.272-.611,4.1,4.1,0,0,0-1.125-.593,2.976,2.976,0,0,1-1.239-.813,1.72,1.72,0,0,1-.36-1.1,1.539,1.539,0,0,1,.571-1.266,2.37,2.37,0,0,1,1.534-.461,4.506,4.506,0,0,1,1.837.4l-.334.857a4.013,4.013,0,0,0-1.529-.36,1.174,1.174,0,0,0-.773.222.729.729,0,0,0-.264.587.826.826,0,0,0,.105.428,1.077,1.077,0,0,0,.347.336,5.872,5.872,0,0,0,.87.417,4.761,4.761,0,0,1,1.037.549,1.616,1.616,0,0,1,.483.576A1.732,1.732,0,0,1,45.145-1.745ZM48.608,0h-1.05V-5.524h-1.89v-.9H50.5v.9h-1.89Zm6.231,0L54.2-1.784H51.741L51.113,0H50.005l2.4-6.451h1.143L55.956,0Zm-.918-2.689-.6-1.749q-.066-.176-.182-.554t-.16-.554a9.849,9.849,0,0,1-.347,1.182l-.58,1.674Zm3.933-.747h.729a1.666,1.666,0,0,0,1.063-.272.989.989,0,0,0,.33-.809.87.87,0,0,0-.356-.782,1.952,1.952,0,0,0-1.072-.237h-.694Zm0,.87V0H56.8V-6.425h1.815a2.982,2.982,0,0,1,1.841.466,1.673,1.673,0,0,1,.6,1.406A1.758,1.758,0,0,1,59.81-2.843L61.625,0h-1.2L58.891-2.566ZM64.775,0h-1.05V-5.524h-1.89v-.9h4.83v.9h-1.89Zm6.508,0H67.649V-6.425h3.634v.888H68.7v1.749h2.421v.879H68.7V-.892h2.584ZM77.9-3.274a3.2,3.2,0,0,1-.883,2.432A3.548,3.548,0,0,1,74.47,0h-1.8V-6.425h1.986a3.286,3.286,0,0,1,2.386.826A3.087,3.087,0,0,1,77.9-3.274Zm-1.107.035q0-2.307-2.158-2.307h-.91V-.883h.747A2.067,2.067,0,0,0,76.79-3.239Z" transform="translate(11 153)" fill="#6b7e8f"></path><text id="Parameters" transform="translate(257 144)" fill="#6b7e8f" font-size="9" font-family="OpenSans-Bold, Open Sans" font-weight="700"><tspan x="0" y="0">PARAMETERS</tspan></text><path id="Path_35080" data-name="Path 35080" d="M2.922,0H1.711V-4.7H.16V-5.711H4.473V-4.7H2.922ZM6.563-3.176h.391A1.494,1.494,0,0,0,7.8-3.367a.683.683,0,0,0,.273-.6.625.625,0,0,0-.279-.578,1.7,1.7,0,0,0-.865-.172H6.563Zm0,.984V0H5.352V-5.711H7.016a2.848,2.848,0,0,1,1.723.424A1.513,1.513,0,0,1,9.3-4a1.515,1.515,0,0,1-.277.9,1.835,1.835,0,0,1-.785.615Q9.523-.562,9.914,0H8.57L7.207-2.191ZM12.41-3.359,13.6-5.711h1.3L13.012-2.223V0h-1.2V-2.184L9.914-5.711h1.313ZM17.7,0V-5.711h1.211V0Zm4.852,0H21.344V-4.7H19.793V-5.711h4.313V-4.7H22.555Zm9.691-2.863a3.1,3.1,0,0,1-.7,2.18,2.607,2.607,0,0,1-2.016.762,2.607,2.607,0,0,1-2.016-.762,3.111,3.111,0,0,1-.7-2.187,3.069,3.069,0,0,1,.705-2.178A2.637,2.637,0,0,1,29.535-5.8a2.6,2.6,0,0,1,2.014.758A3.107,3.107,0,0,1,32.246-2.863Zm-4.168,0a2.386,2.386,0,0,0,.363,1.441,1.271,1.271,0,0,0,1.086.484q1.449,0,1.449-1.926t-1.441-1.93a1.28,1.28,0,0,0-1.09.486A2.376,2.376,0,0,0,28.078-2.863Zm10-2.848v3.7a2.13,2.13,0,0,1-.283,1.109,1.843,1.843,0,0,1-.818.73,2.927,2.927,0,0,1-1.266.254A2.423,2.423,0,0,1,34-.486a2,2,0,0,1-.609-1.545v-3.68H34.6v3.5a1.464,1.464,0,0,0,.266.969,1.1,1.1,0,0,0,.879.309,1.08,1.08,0,0,0,.861-.311,1.472,1.472,0,0,0,.268-.975V-5.711ZM41.68,0H40.469V-4.7H38.918V-5.711H43.23V-4.7H41.68Z" transform="translate(685 451)" fill="#fff"></path><path id="Path_35075" data-name="Path 35075" d="M5.479,0H1.037V-7.853H5.479v1.085H2.32V-4.63H5.28v1.074H2.32V-1.09H5.479Zm5.28,0-.252-.827h-.043A2.434,2.434,0,0,1,9.6-.089a2.735,2.735,0,0,1-1.117.2A1.891,1.891,0,0,1,7.114-.365,1.769,1.769,0,0,1,6.623-1.7,1.57,1.57,0,0,1,7.3-3.088,3.933,3.933,0,0,1,9.383-3.6l1.026-.032v-.317a1.2,1.2,0,0,0-.266-.851,1.084,1.084,0,0,0-.824-.282,2.851,2.851,0,0,0-.875.134,6.607,6.607,0,0,0-.806.317l-.408-.9a4.393,4.393,0,0,1,1.058-.384,4.869,4.869,0,0,1,1.085-.132,2.57,2.57,0,0,1,1.711.494A1.935,1.935,0,0,1,11.661-4V0ZM8.878-.859a1.563,1.563,0,0,0,1.1-.384A1.392,1.392,0,0,0,10.4-2.32v-.516L9.636-2.8a2.61,2.61,0,0,0-1.3.3.906.906,0,0,0-.406.814.794.794,0,0,0,.236.615A1.015,1.015,0,0,0,8.878-.859Zm7.557-5.188a3.038,3.038,0,0,1,.628.054L16.94-4.818a2.386,2.386,0,0,0-.559-.064,1.616,1.616,0,0,0-1.227.494,1.786,1.786,0,0,0-.47,1.284V0H13.422V-5.94h.988l.167,1.047h.064a2.354,2.354,0,0,1,.771-.843A1.832,1.832,0,0,1,16.436-6.048ZM20.378-.913a3.069,3.069,0,0,0,.924-.145v.951a2.548,2.548,0,0,1-.54.153,3.719,3.719,0,0,1-.685.062q-1.794,0-1.794-1.891v-3.2h-.811v-.559L18.342-6l.43-1.257h.779V-5.94h1.692v.956H19.551V-1.8a.892.892,0,0,0,.228.674A.832.832,0,0,0,20.378-.913ZM27.715,0H26.447V-3.652a1.6,1.6,0,0,0-.277-1.026,1.069,1.069,0,0,0-.878-.338,1.394,1.394,0,0,0-1.168.475,2.619,2.619,0,0,0-.373,1.593V0H22.489V-8.357h1.262v2.122a9.9,9.9,0,0,1-.064,1.09h.081a1.753,1.753,0,0,1,.717-.666,2.311,2.311,0,0,1,1.072-.236,1.916,1.916,0,0,1,2.159,2.175Zm4.77.107A2.081,2.081,0,0,1,30.733-.7h-.075q.075.752.075.913V2.643H29.471V-5.94h1.021q.043.167.177.795h.064a1.977,1.977,0,0,1,1.772-.9,2.062,2.062,0,0,1,1.732.806,3.633,3.633,0,0,1,.62,2.261,3.635,3.635,0,0,1-.631,2.272A2.081,2.081,0,0,1,32.484.107Zm-.306-5.124a1.312,1.312,0,0,0-1.1.44,2.283,2.283,0,0,0-.346,1.407v.188a2.779,2.779,0,0,0,.344,1.571A1.279,1.279,0,0,0,32.2-.924a1.14,1.14,0,0,0,1.01-.537,2.774,2.774,0,0,0,.354-1.531A2.677,2.677,0,0,0,33.212-4.5,1.174,1.174,0,0,0,32.178-5.017Zm9.416,2.036a3.242,3.242,0,0,1-.747,2.272,2.675,2.675,0,0,1-2.079.816A2.848,2.848,0,0,1,37.3-.269a2.482,2.482,0,0,1-.983-1.08,3.677,3.677,0,0,1-.344-1.633,3.22,3.22,0,0,1,.741-2.256A2.687,2.687,0,0,1,38.8-6.048a2.617,2.617,0,0,1,2.041.83A3.205,3.205,0,0,1,41.594-2.981Zm-4.324,0q0,2.057,1.52,2.057,1.5,0,1.5-2.057,0-2.036-1.515-2.036a1.291,1.291,0,0,0-1.152.526A2.679,2.679,0,0,0,37.27-2.981Zm8.787-3.067a3.038,3.038,0,0,1,.628.054l-.124,1.176A2.386,2.386,0,0,0,46-4.882a1.616,1.616,0,0,0-1.227.494,1.786,1.786,0,0,0-.47,1.284V0H43.044V-5.94h.988L44.2-4.893h.064a2.354,2.354,0,0,1,.771-.843A1.832,1.832,0,0,1,46.057-6.048ZM50-.913a3.069,3.069,0,0,0,.924-.145v.951a2.548,2.548,0,0,1-.54.153A3.719,3.719,0,0,1,49.7.107Q47.9.107,47.9-1.783v-3.2h-.811v-.559L47.964-6l.43-1.257h.779V-5.94h1.692v.956H49.172V-1.8a.892.892,0,0,0,.228.674A.832.832,0,0,0,50-.913ZM59.974,0l-.784-2.181h-3L55.419,0H54.065L57-7.885h1.4L61.338,0ZM58.851-3.287l-.736-2.138q-.081-.215-.223-.677t-.2-.677a12.037,12.037,0,0,1-.424,1.445l-.709,2.046Zm8.723-2.191a2.29,2.29,0,0,1-.806,1.885,3.549,3.549,0,0,1-2.293.655h-.816V0H62.375V-7.853h2.261a3.421,3.421,0,0,1,2.2.6A2.159,2.159,0,0,1,67.574-5.479ZM63.658-4.018h.682a2.444,2.444,0,0,0,1.45-.344,1.251,1.251,0,0,0,.462-1.074,1.219,1.219,0,0,0-.414-1.01,2.043,2.043,0,0,0-1.289-.333h-.892ZM69.142,0V-7.853h1.284V0Z" transform="translate(75 24)" fill="#282b2f"></path><path id="Path_35078" data-name="Path 35078" d="M4.834,0,4.192-1.784H1.736L1.107,0H0L2.4-6.451H3.546L5.95,0ZM3.916-2.689l-.6-1.749q-.066-.176-.182-.554t-.16-.554a9.849,9.849,0,0,1-.347,1.182l-.58,1.674Zm7.137-1.793a1.873,1.873,0,0,1-.659,1.542A2.9,2.9,0,0,1,8.517-2.4H7.849V0H6.8V-6.425h1.85a2.8,2.8,0,0,1,1.8.492A1.767,1.767,0,0,1,11.052-4.482Zm-3.2,1.2h.558a2,2,0,0,0,1.187-.281,1.024,1.024,0,0,0,.378-.879,1,1,0,0,0-.338-.826,1.671,1.671,0,0,0-1.055-.272H7.849ZM12.335,0V-6.425h1.05V0Zm8.719,0H17.42V-6.425h3.634v.888H18.47v1.749h2.421v.879H18.47V-.892h2.584ZM27.8,0H26.508l-3.16-5.12h-.035l.022.286q.062.817.062,1.494V0h-.954V-6.425h1.274l3.151,5.093h.026q-.009-.1-.035-.736t-.026-.991V-6.425H27.8Zm6.921-3.274a3.2,3.2,0,0,1-.883,2.432A3.548,3.548,0,0,1,31.289,0h-1.8V-6.425h1.986a3.286,3.286,0,0,1,2.386.826A3.087,3.087,0,0,1,34.717-3.274Zm-1.107.035q0-2.307-2.158-2.307h-.91V-.883h.747A2.067,2.067,0,0,0,33.609-3.239Zm6.741-1.244a1.873,1.873,0,0,1-.659,1.542,2.9,2.9,0,0,1-1.876.536h-.668V0H36.1V-6.425h1.85a2.8,2.8,0,0,1,1.8.492A1.767,1.767,0,0,1,40.351-4.482Zm-3.2,1.2h.558a2,2,0,0,0,1.187-.281,1.024,1.024,0,0,0,.378-.879,1,1,0,0,0-.338-.826,1.671,1.671,0,0,0-1.055-.272h-.729Zm10.191.066a3.514,3.514,0,0,1-.784,2.439,2.837,2.837,0,0,1-2.221.87A2.857,2.857,0,0,1,42.1-.776a3.536,3.536,0,0,1-.78-2.454A3.482,3.482,0,0,1,42.1-5.673a2.89,2.89,0,0,1,2.239-.853,2.832,2.832,0,0,1,2.215.866A3.511,3.511,0,0,1,47.338-3.221Zm-4.9,0a2.881,2.881,0,0,0,.479,1.8,1.691,1.691,0,0,0,1.419.613,1.688,1.688,0,0,0,1.413-.606,2.886,2.886,0,0,0,.477-1.806,2.892,2.892,0,0,0-.472-1.793,1.67,1.67,0,0,0-1.408-.611,1.705,1.705,0,0,0-1.426.611A2.853,2.853,0,0,0,42.434-3.221ZM48.718,0V-6.425h1.05V0Zm8.1,0H55.529L52.37-5.12h-.035l.022.286q.062.817.062,1.494V0h-.954V-6.425h1.274L55.89-1.332h.026q-.009-.1-.035-.736t-.026-.991V-6.425h.962Zm3.916,0h-1.05V-5.524h-1.89v-.9h4.83v.9h-1.89Zm6.579-1.745A1.617,1.617,0,0,1,66.691-.4a2.7,2.7,0,0,1-1.709.488A4.079,4.079,0,0,1,63.2-.25v-.993a4.849,4.849,0,0,0,.934.325,3.959,3.959,0,0,0,.921.119,1.465,1.465,0,0,0,.921-.237.774.774,0,0,0,.3-.637A.8.8,0,0,0,66-2.285a4.1,4.1,0,0,0-1.125-.593,2.976,2.976,0,0,1-1.239-.813,1.72,1.72,0,0,1-.36-1.1,1.539,1.539,0,0,1,.571-1.266,2.37,2.37,0,0,1,1.534-.461,4.506,4.506,0,0,1,1.837.4l-.334.857a4.013,4.013,0,0,0-1.529-.36,1.174,1.174,0,0,0-.773.222.729.729,0,0,0-.264.587.826.826,0,0,0,.105.428,1.077,1.077,0,0,0,.347.336,5.872,5.872,0,0,0,.87.417,4.761,4.761,0,0,1,1.037.549,1.616,1.616,0,0,1,.483.576A1.732,1.732,0,0,1,67.311-1.745Z" transform="translate(11 290)" fill="#6b7e8f"></path><rect id="Rectangle_2305" data-name="Rectangle 2305" width="59" height="25" rx="3" transform="translate(190 131)" fill="#f5f7f9"></rect><text id="Console" transform="translate(199 144)" fill="#455666" font-size="9" font-family="OpenSans-Bold, Open Sans" font-weight="700"><tspan x="0" y="0">CONSOLE</tspan></text><path id="Path_35074" data-name="Path 35074" d="M5.5-8.374a2.159,2.159,0,0,0-1.853.9A4.182,4.182,0,0,0,2.994-4.97q0,3.343,2.509,3.343a7.931,7.931,0,0,0,2.55-.526V-.376A7.081,7.081,0,0,1,5.3.137,4.191,4.191,0,0,1,1.969-1.186a5.6,5.6,0,0,1-1.155-3.8,6.2,6.2,0,0,1,.567-2.731,4.1,4.1,0,0,1,1.63-1.8A4.823,4.823,0,0,1,5.5-10.138a6.725,6.725,0,0,1,2.926.7L7.745-7.711a11.315,11.315,0,0,0-1.128-.465A3.365,3.365,0,0,0,5.5-8.374Zm8.777.588a3.362,3.362,0,0,1,.7.062L14.827-5.77a2.388,2.388,0,0,0-.615-.068,2.211,2.211,0,0,0-1.555.513A1.853,1.853,0,0,0,12.1-3.89V0H10.015V-7.643h1.579L11.9-6.357H12a2.873,2.873,0,0,1,.96-1.036A2.368,2.368,0,0,1,14.28-7.786ZM19.257-6.3a1.322,1.322,0,0,0-1.039.42,1.946,1.946,0,0,0-.431,1.193h2.926a1.738,1.738,0,0,0-.4-1.193A1.366,1.366,0,0,0,19.257-6.3ZM19.551.137A3.945,3.945,0,0,1,16.666-.882a3.857,3.857,0,0,1-1.039-2.885,4.242,4.242,0,0,1,.96-2.97,3.42,3.42,0,0,1,2.656-1.049,3.366,3.366,0,0,1,2.522.923,3.491,3.491,0,0,1,.9,2.55V-3.3H17.739a2.007,2.007,0,0,0,.526,1.388,1.852,1.852,0,0,0,1.381.5,5.732,5.732,0,0,0,1.306-.144,6.533,6.533,0,0,0,1.285-.458V-.4A4.9,4.9,0,0,1,21.068,0,7.37,7.37,0,0,1,19.551.137ZM29.217,0l-.4-1.039h-.055a3.079,3.079,0,0,1-1.083.919,3.5,3.5,0,0,1-1.453.256A2.349,2.349,0,0,1,24.49-.492a2.415,2.415,0,0,1-.632-1.791,2.017,2.017,0,0,1,.851-1.794,4.932,4.932,0,0,1,2.567-.639L28.6-4.758v-.335a1.039,1.039,0,0,0-1.189-1.162,5.42,5.42,0,0,0-2.153.554l-.69-1.408a6.213,6.213,0,0,1,2.926-.69,3.644,3.644,0,0,1,2.358.67,2.476,2.476,0,0,1,.82,2.037V0ZM28.6-3.541l-.807.027a2.583,2.583,0,0,0-1.354.328A1.031,1.031,0,0,0,26-2.27q0,.882,1.012.882A1.6,1.6,0,0,0,28.167-1.8,1.465,1.465,0,0,0,28.6-2.912Zm7.438,2.017a4.52,4.52,0,0,0,1.313-.239V-.212a4.68,4.68,0,0,1-1.914.349A2.343,2.343,0,0,1,33.616-.5a2.752,2.752,0,0,1-.571-1.9V-6.077h-1v-.882l1.148-.7.6-1.613H35.13v1.627h2.14v1.565H35.13v3.685a.814.814,0,0,0,.25.656A.984.984,0,0,0,36.039-1.524ZM42.062-6.3a1.322,1.322,0,0,0-1.039.42,1.946,1.946,0,0,0-.431,1.193h2.926a1.738,1.738,0,0,0-.4-1.193A1.366,1.366,0,0,0,42.062-6.3ZM42.355.137A3.945,3.945,0,0,1,39.471-.882a3.857,3.857,0,0,1-1.039-2.885,4.242,4.242,0,0,1,.96-2.97,3.42,3.42,0,0,1,2.656-1.049,3.366,3.366,0,0,1,2.522.923,3.491,3.491,0,0,1,.9,2.55V-3.3H40.544a2.007,2.007,0,0,0,.526,1.388,1.852,1.852,0,0,0,1.381.5,5.732,5.732,0,0,0,1.306-.144,6.533,6.533,0,0,0,1.285-.458V-.4A4.9,4.9,0,0,1,43.873,0,7.37,7.37,0,0,1,42.355.137ZM50.969-9.994h3.11a5.994,5.994,0,0,1,3.086.6,2.106,2.106,0,0,1,.96,1.924A2.425,2.425,0,0,1,57.706-6a1.679,1.679,0,0,1-1.118.69v.068a2.2,2.2,0,0,1,1.371.793,2.58,2.58,0,0,1,.42,1.545,2.546,2.546,0,0,1-.988,2.133A4.272,4.272,0,0,1,54.708,0H50.969Zm2.119,3.958h1.23A2.25,2.25,0,0,0,55.566-6.3a.994.994,0,0,0,.386-.882.882.882,0,0,0-.42-.824,2.7,2.7,0,0,0-1.33-.25H53.088Zm0,1.682v2.6h1.381a2.048,2.048,0,0,0,1.292-.335,1.236,1.236,0,0,0,.417-1.025q0-1.244-1.777-1.244ZM63.376-6.3a1.322,1.322,0,0,0-1.039.42,1.946,1.946,0,0,0-.431,1.193h2.926a1.738,1.738,0,0,0-.4-1.193A1.366,1.366,0,0,0,63.376-6.3ZM63.67.137A3.945,3.945,0,0,1,60.785-.882a3.857,3.857,0,0,1-1.039-2.885,4.242,4.242,0,0,1,.96-2.97,3.42,3.42,0,0,1,2.656-1.049,3.366,3.366,0,0,1,2.522.923,3.491,3.491,0,0,1,.9,2.55V-3.3H61.858a2.007,2.007,0,0,0,.526,1.388,1.852,1.852,0,0,0,1.381.5,5.732,5.732,0,0,0,1.306-.144,6.533,6.533,0,0,0,1.285-.458V-.4A4.9,4.9,0,0,1,65.188,0,7.37,7.37,0,0,1,63.67.137ZM75.537,0H73.452V-4.464A2.144,2.144,0,0,0,73.158-5.7a1.069,1.069,0,0,0-.937-.414,1.408,1.408,0,0,0-1.265.584,3.625,3.625,0,0,0-.39,1.938V0H68.482V-7.643h1.593l.28.978h.116a2.2,2.2,0,0,1,.96-.837,3.271,3.271,0,0,1,1.391-.284,2.673,2.673,0,0,1,2.023.721,2.894,2.894,0,0,1,.69,2.082Zm5.312-6.3a1.322,1.322,0,0,0-1.039.42,1.946,1.946,0,0,0-.431,1.193H82.3a1.738,1.738,0,0,0-.4-1.193A1.366,1.366,0,0,0,80.849-6.3ZM81.143.137A3.945,3.945,0,0,1,78.258-.882a3.857,3.857,0,0,1-1.039-2.885,4.242,4.242,0,0,1,.96-2.97,3.42,3.42,0,0,1,2.656-1.049,3.366,3.366,0,0,1,2.522.923,3.491,3.491,0,0,1,.9,2.55V-3.3H79.331a2.007,2.007,0,0,0,.526,1.388,1.852,1.852,0,0,0,1.381.5,5.732,5.732,0,0,0,1.306-.144,6.533,6.533,0,0,0,1.285-.458V-.4A4.9,4.9,0,0,1,82.66,0,7.37,7.37,0,0,1,81.143.137ZM90.18-6.077h-1.8V0H86.29V-6.077H85.142v-1l1.148-.561V-8.2a2.5,2.5,0,0,1,.643-1.907,2.945,2.945,0,0,1,2.058-.6,5.355,5.355,0,0,1,1.921.321l-.533,1.531a3.886,3.886,0,0,0-1.162-.2.752.752,0,0,0-.643.263,1.089,1.089,0,0,0-.2.673v.479h1.8Zm1.107-3.541q0-1.019,1.135-1.019t1.135,1.019a.993.993,0,0,1-.284.755,1.192,1.192,0,0,1-.851.27Q91.287-8.593,91.287-9.618ZM93.461,0H91.376V-7.643h2.085Zm5.284.137q-3.568,0-3.568-3.917a4.178,4.178,0,0,1,.971-2.977A3.641,3.641,0,0,1,98.93-7.786a5.3,5.3,0,0,1,2.379.52l-.615,1.613q-.492-.2-.916-.325A2.951,2.951,0,0,0,98.93-6.1Q97.3-6.1,97.3-3.794q0,2.242,1.627,2.242a3.709,3.709,0,0,0,1.114-.161,4.023,4.023,0,0,0,1.025-.5V-.431a3.36,3.36,0,0,1-1.022.444A5.747,5.747,0,0,1,98.745.137Zm4.006-9.755q0-1.019,1.135-1.019t1.135,1.019a.993.993,0,0,1-.284.755,1.192,1.192,0,0,1-.851.27Q102.751-8.593,102.751-9.618ZM104.925,0H102.84V-7.643h2.085Zm7.041,0-.4-1.039h-.055a3.079,3.079,0,0,1-1.083.919,3.5,3.5,0,0,1-1.453.256,2.349,2.349,0,0,1-1.733-.629,2.415,2.415,0,0,1-.632-1.791,2.017,2.017,0,0,1,.851-1.794,4.931,4.931,0,0,1,2.567-.639l1.326-.041v-.335a1.039,1.039,0,0,0-1.189-1.162,5.42,5.42,0,0,0-2.153.554l-.69-1.408a6.213,6.213,0,0,1,2.926-.69,3.644,3.644,0,0,1,2.358.67,2.476,2.476,0,0,1,.82,2.037V0Zm-.615-3.541-.807.027a2.583,2.583,0,0,0-1.354.328,1.031,1.031,0,0,0-.444.916q0,.882,1.012.882a1.6,1.6,0,0,0,1.159-.417,1.465,1.465,0,0,0,.434-1.107Zm8.483-4.245a3.362,3.362,0,0,1,.7.062l-.157,1.955a2.388,2.388,0,0,0-.615-.068,2.211,2.211,0,0,0-1.555.513,1.853,1.853,0,0,0-.557,1.436V0h-2.085V-7.643h1.579l.308,1.285h.1a2.873,2.873,0,0,1,.96-1.036A2.368,2.368,0,0,1,119.834-7.786Zm1,.144h2.283l1.442,4.3a5.966,5.966,0,0,1,.253,1.326h.041a5.86,5.86,0,0,1,.294-1.326l1.415-4.3H128.8L125.563.978a3.732,3.732,0,0,1-1.268,1.791,3.2,3.2,0,0,1-1.924.595,4.839,4.839,0,0,1-1.06-.116V1.593a3.564,3.564,0,0,0,.82.089,1.481,1.481,0,0,0,.967-.338,2.194,2.194,0,0,0,.646-1.022l.123-.376ZM133.69-9.994h3.11a5.994,5.994,0,0,1,3.086.6,2.106,2.106,0,0,1,.96,1.924,2.425,2.425,0,0,1-.42,1.47,1.679,1.679,0,0,1-1.118.69v.068a2.2,2.2,0,0,1,1.371.793A2.58,2.58,0,0,1,141.1-2.9a2.546,2.546,0,0,1-.988,2.133A4.272,4.272,0,0,1,137.43,0H133.69Zm2.119,3.958h1.23a2.25,2.25,0,0,0,1.248-.267.994.994,0,0,0,.386-.882.882.882,0,0,0-.42-.824,2.7,2.7,0,0,0-1.33-.25H135.81Zm0,1.682v2.6h1.381a2.048,2.048,0,0,0,1.292-.335A1.236,1.236,0,0,0,138.9-3.11q0-1.244-1.777-1.244ZM147.786,0l-.4-1.039h-.055a3.079,3.079,0,0,1-1.083.919,3.5,3.5,0,0,1-1.453.256,2.349,2.349,0,0,1-1.733-.629,2.415,2.415,0,0,1-.632-1.791,2.017,2.017,0,0,1,.851-1.794,4.932,4.932,0,0,1,2.567-.639l1.326-.041v-.335a1.039,1.039,0,0,0-1.189-1.162,5.42,5.42,0,0,0-2.153.554l-.69-1.408a6.213,6.213,0,0,1,2.926-.69,3.644,3.644,0,0,1,2.358.67,2.476,2.476,0,0,1,.82,2.037V0Zm-.615-3.541-.807.027a2.583,2.583,0,0,0-1.354.328,1.031,1.031,0,0,0-.444.916q0,.882,1.012.882a1.6,1.6,0,0,0,1.159-.417,1.465,1.465,0,0,0,.434-1.107ZM158.443,0h-2.085V-4.464a2.144,2.144,0,0,0-.294-1.241,1.069,1.069,0,0,0-.937-.414,1.408,1.408,0,0,0-1.265.584,3.625,3.625,0,0,0-.39,1.938V0h-2.085V-7.643h1.593l.28.978h.116a2.2,2.2,0,0,1,.96-.837,3.271,3.271,0,0,1,1.391-.284,2.673,2.673,0,0,1,2.023.721,2.894,2.894,0,0,1,.69,2.082Zm4.149-4.156.909-1.162,2.14-2.324h2.352l-3.035,3.315L168.178,0h-2.406l-2.2-3.1-.9.718V0H160.59V-10.637h2.085v4.744l-.109,1.736ZM179.19,0l-.725-2.379h-3.644L174.1,0h-2.283l3.527-10.035h2.591L181.474,0Zm-1.23-4.156q-1-3.233-1.131-3.657t-.181-.67q-.226.875-1.292,4.327ZM185.671.137Q182.1.137,182.1-3.78a4.178,4.178,0,0,1,.971-2.977,3.641,3.641,0,0,1,2.782-1.029,5.3,5.3,0,0,1,2.379.52l-.615,1.613q-.492-.2-.916-.325a2.951,2.951,0,0,0-.848-.126q-1.627,0-1.627,2.311,0,2.242,1.627,2.242a3.709,3.709,0,0,0,1.114-.161,4.023,4.023,0,0,0,1.025-.5V-.431a3.36,3.36,0,0,1-1.022.444A5.747,5.747,0,0,1,185.671.137Zm7.2,0Q189.3.137,189.3-3.78a4.178,4.178,0,0,1,.971-2.977,3.641,3.641,0,0,1,2.782-1.029,5.3,5.3,0,0,1,2.379.52l-.615,1.613q-.492-.2-.916-.325a2.951,2.951,0,0,0-.848-.126q-1.627,0-1.627,2.311,0,2.242,1.627,2.242a3.709,3.709,0,0,0,1.114-.161,4.023,4.023,0,0,0,1.025-.5V-.431a3.36,3.36,0,0,1-1.022.444A5.747,5.747,0,0,1,192.869.137Zm5.756-3.972A3.208,3.208,0,0,0,199-2.119a1.332,1.332,0,0,0,1.213.581,1.311,1.311,0,0,0,1.2-.578,3.254,3.254,0,0,0,.366-1.719,3.157,3.157,0,0,0-.369-1.7A1.335,1.335,0,0,0,200.2-6.1a1.33,1.33,0,0,0-1.2.564A3.154,3.154,0,0,0,198.625-3.835Zm5.284,0a4.107,4.107,0,0,1-.984,2.919A3.569,3.569,0,0,1,200.184.137a3.835,3.835,0,0,1-1.941-.482,3.207,3.207,0,0,1-1.292-1.384,4.652,4.652,0,0,1-.451-2.105,4.084,4.084,0,0,1,.978-2.912,3.59,3.59,0,0,1,2.748-1.039,3.856,3.856,0,0,1,1.941.479,3.194,3.194,0,0,1,1.292,1.374A4.608,4.608,0,0,1,203.909-3.835ZM211.046,0l-.28-.978h-.109a2.2,2.2,0,0,1-.95.824,3.244,3.244,0,0,1-1.4.291,2.669,2.669,0,0,1-2.03-.721,2.9,2.9,0,0,1-.684-2.075V-7.643h2.085v4.464a2.144,2.144,0,0,0,.294,1.241,1.069,1.069,0,0,0,.937.414,1.408,1.408,0,0,0,1.265-.584,3.625,3.625,0,0,0,.39-1.938v-3.6h2.085V0Zm10.842,0H219.8V-4.464a2.144,2.144,0,0,0-.294-1.241,1.069,1.069,0,0,0-.937-.414,1.408,1.408,0,0,0-1.265.584,3.625,3.625,0,0,0-.39,1.938V0h-2.085V-7.643h1.593l.28.978h.116a2.2,2.2,0,0,1,.96-.837,3.271,3.271,0,0,1,1.391-.284,2.673,2.673,0,0,1,2.023.721,2.894,2.894,0,0,1,.69,2.082Zm5.366-1.524a4.52,4.52,0,0,0,1.313-.239V-.212a4.68,4.68,0,0,1-1.914.349A2.343,2.343,0,0,1,224.831-.5a2.752,2.752,0,0,1-.571-1.9V-6.077h-1v-.882l1.148-.7.6-1.613h1.333v1.627h2.14v1.565h-2.14v3.685a.814.814,0,0,0,.25.656A.984.984,0,0,0,227.254-1.524Z" transform="translate(190 78)" fill="#455666"></path><rect id="Rounded_Rectangle_16_copy_17-38" data-name="Rounded Rectangle 16 copy 17" width="150" height="6" rx="3" transform="translate(190 394)" fill="#d9dee5"></rect><path id="Rounded_Rectangle_16_copy_17-39" data-name="Rounded Rectangle 16 copy 17" d="M3,0H262a3,3,0,0,1,3,3V36a0,0,0,0,1,0,0H0a0,0,0,0,1,0,0V3A3,3,0,0,1,3,0Z" transform="translate(190 435)" fill="#f5f7f9"></path><path id="Path_35076" data-name="Path 35076" d="M2.109-3.818H2.92a1.851,1.851,0,0,0,1.182-.3,1.1,1.1,0,0,0,.366-.9.967.967,0,0,0-.4-.869,2.169,2.169,0,0,0-1.191-.264H2.109Zm0,.967V0H.942V-7.139H2.959A3.313,3.313,0,0,1,5-6.621a1.858,1.858,0,0,1,.664,1.563,1.953,1.953,0,0,1-1.387,1.9L6.3,0H4.971L3.262-2.852ZM9.57.1A2.612,2.612,0,0,1,7.6-.637a2.79,2.79,0,0,1-.71-2.024,3.061,3.061,0,0,1,.659-2.08A2.277,2.277,0,0,1,9.36-5.5a2.225,2.225,0,0,1,1.689.649,2.482,2.482,0,0,1,.62,1.787v.62h-3.6A1.774,1.774,0,0,0,8.5-1.233a1.48,1.48,0,0,0,1.128.422,4.164,4.164,0,0,0,.891-.09,4.671,4.671,0,0,0,.886-.3v.933a3.523,3.523,0,0,1-.85.283A5.21,5.21,0,0,1,9.57.1ZM9.36-4.629a1.153,1.153,0,0,0-.876.347,1.652,1.652,0,0,0-.393,1.011h2.451a1.5,1.5,0,0,0-.322-1.013A1.1,1.1,0,0,0,9.36-4.629ZM16.6-1.538a1.413,1.413,0,0,1-.576,1.213A2.759,2.759,0,0,1,14.375.1a3.9,3.9,0,0,1-1.733-.327v-.991a4.256,4.256,0,0,0,1.772.439q1.06,0,1.06-.64a.507.507,0,0,0-.117-.342,1.387,1.387,0,0,0-.386-.283,6.638,6.638,0,0,0-.747-.332A3.456,3.456,0,0,1,12.961-3.1a1.337,1.337,0,0,1-.33-.937,1.231,1.231,0,0,1,.559-1.077A2.653,2.653,0,0,1,14.712-5.5a4.308,4.308,0,0,1,1.8.386l-.371.864a4.007,4.007,0,0,0-1.47-.361q-.908,0-.908.518a.521.521,0,0,0,.237.43,5.208,5.208,0,0,0,1.033.483,4.721,4.721,0,0,1,.972.474,1.415,1.415,0,0,1,.449.5A1.434,1.434,0,0,1,16.6-1.538ZM20.581.1A1.891,1.891,0,0,1,18.989-.64h-.068q.068.684.068.83V2.4H17.842V-5.4h.928q.039.151.161.723h.059A1.8,1.8,0,0,1,20.6-5.5a1.874,1.874,0,0,1,1.575.732,3.3,3.3,0,0,1,.564,2.056,3.3,3.3,0,0,1-.574,2.065A1.891,1.891,0,0,1,20.581.1ZM20.3-4.561a1.193,1.193,0,0,0-1,.4,2.075,2.075,0,0,0-.315,1.279v.171A2.526,2.526,0,0,0,19.3-1.282a1.162,1.162,0,0,0,1.021.442,1.036,1.036,0,0,0,.918-.488,2.522,2.522,0,0,0,.322-1.392,2.433,2.433,0,0,0-.32-1.375A1.067,1.067,0,0,0,20.3-4.561Zm8.56,1.851a2.948,2.948,0,0,1-.679,2.065A2.432,2.432,0,0,1,26.294.1a2.589,2.589,0,0,1-1.338-.342,2.256,2.256,0,0,1-.894-.981A3.343,3.343,0,0,1,23.75-2.71a2.928,2.928,0,0,1,.674-2.051,2.443,2.443,0,0,1,1.9-.737,2.379,2.379,0,0,1,1.855.754A2.914,2.914,0,0,1,28.862-2.71Zm-3.931,0q0,1.87,1.382,1.87t1.367-1.87q0-1.851-1.377-1.851a1.174,1.174,0,0,0-1.047.479A2.435,2.435,0,0,0,24.932-2.71Zm10,2.71H33.779V-3.32a1.453,1.453,0,0,0-.251-.933.972.972,0,0,0-.8-.308,1.269,1.269,0,0,0-1.064.43,2.372,2.372,0,0,0-.337,1.44V0H30.181V-5.4h.9l.161.708H31.3a1.6,1.6,0,0,1,.693-.6,2.324,2.324,0,0,1,1-.21,1.733,1.733,0,0,1,1.943,1.978Zm5.225-1.538A1.413,1.413,0,0,1,39.58-.325,2.759,2.759,0,0,1,37.93.1,3.9,3.9,0,0,1,36.2-.229v-.991a4.256,4.256,0,0,0,1.772.439q1.06,0,1.06-.64a.507.507,0,0,0-.117-.342,1.387,1.387,0,0,0-.386-.283,6.638,6.638,0,0,0-.747-.332A3.456,3.456,0,0,1,36.516-3.1a1.337,1.337,0,0,1-.33-.937,1.231,1.231,0,0,1,.559-1.077A2.653,2.653,0,0,1,38.267-5.5a4.308,4.308,0,0,1,1.8.386l-.371.864a4.007,4.007,0,0,0-1.47-.361q-.908,0-.908.518a.521.521,0,0,0,.237.43,5.208,5.208,0,0,0,1.033.483,4.721,4.721,0,0,1,.972.474,1.415,1.415,0,0,1,.449.5A1.434,1.434,0,0,1,40.156-1.538ZM43.755.1a2.612,2.612,0,0,1-1.97-.735,2.79,2.79,0,0,1-.71-2.024,3.061,3.061,0,0,1,.659-2.08A2.277,2.277,0,0,1,43.545-5.5a2.225,2.225,0,0,1,1.689.649,2.482,2.482,0,0,1,.62,1.787v.62h-3.6a1.774,1.774,0,0,0,.425,1.208,1.48,1.48,0,0,0,1.128.422A4.164,4.164,0,0,0,44.7-.9a4.671,4.671,0,0,0,.886-.3v.933a3.523,3.523,0,0,1-.85.283A5.21,5.21,0,0,1,43.755.1Zm-.21-4.727a1.153,1.153,0,0,0-.876.347,1.652,1.652,0,0,0-.393,1.011h2.451A1.5,1.5,0,0,0,44.4-4.285,1.1,1.1,0,0,0,43.545-4.629ZM52.344,0H51.177V-6.138h-2.1v-1h5.366v1h-2.1Zm2.051-5.4h1.25l1.1,3.062a5.809,5.809,0,0,1,.332,1.23h.039a5.132,5.132,0,0,1,.161-.652q.117-.383,1.24-3.64h1.24L57.446.718a2.191,2.191,0,0,1-2.1,1.685,3.3,3.3,0,0,1-.742-.083V1.411a2.689,2.689,0,0,0,.591.059A1.21,1.21,0,0,0,56.362.508l.2-.508ZM63.315.1A1.891,1.891,0,0,1,61.724-.64h-.068q.068.684.068.83V2.4H60.576V-5.4H61.5q.039.151.161.723h.059a1.8,1.8,0,0,1,1.611-.82,1.874,1.874,0,0,1,1.575.732,3.3,3.3,0,0,1,.564,2.056A3.3,3.3,0,0,1,64.9-.645,1.891,1.891,0,0,1,63.315.1Zm-.278-4.658a1.193,1.193,0,0,0-1,.4,2.075,2.075,0,0,0-.315,1.279v.171a2.526,2.526,0,0,0,.313,1.428,1.162,1.162,0,0,0,1.021.442,1.036,1.036,0,0,0,.918-.488A2.522,2.522,0,0,0,64.3-2.72a2.433,2.433,0,0,0-.32-1.375A1.067,1.067,0,0,0,63.037-4.561ZM69.165.1a2.612,2.612,0,0,1-1.97-.735,2.79,2.79,0,0,1-.71-2.024,3.061,3.061,0,0,1,.659-2.08A2.277,2.277,0,0,1,68.955-5.5a2.225,2.225,0,0,1,1.689.649,2.482,2.482,0,0,1,.62,1.787v.62h-3.6a1.774,1.774,0,0,0,.425,1.208,1.48,1.48,0,0,0,1.128.422A4.164,4.164,0,0,0,70.11-.9,4.671,4.671,0,0,0,71-1.2v.933a3.523,3.523,0,0,1-.85.283A5.21,5.21,0,0,1,69.165.1Zm-.21-4.727a1.153,1.153,0,0,0-.876.347,1.652,1.652,0,0,0-.393,1.011h2.451a1.5,1.5,0,0,0-.322-1.013A1.1,1.1,0,0,0,68.955-4.629Z" transform="translate(190 385)" fill="#455666"></path><path id="Path_35077" data-name="Path 35077" d="M4.98,0H.942V-7.139H4.98v.986H2.109v1.943H4.8v.977H2.109V-.991H4.98ZM7.6-2.759,5.791-5.4H7.1l1.23,1.89L9.57-5.4h1.3L9.053-2.759,10.962,0h-1.3L8.33-2.021,7,0H5.7ZM15.288,0l-.229-.752H15.02a2.212,2.212,0,0,1-.786.671A2.486,2.486,0,0,1,13.218.1a1.719,1.719,0,0,1-1.243-.43,1.608,1.608,0,0,1-.447-1.216,1.428,1.428,0,0,1,.62-1.26,3.576,3.576,0,0,1,1.89-.464l.933-.029v-.288a1.092,1.092,0,0,0-.242-.774.986.986,0,0,0-.75-.256,2.592,2.592,0,0,0-.8.122,6.006,6.006,0,0,0-.732.288l-.371-.82a3.994,3.994,0,0,1,.962-.349,4.427,4.427,0,0,1,.986-.12,2.336,2.336,0,0,1,1.555.449,1.759,1.759,0,0,1,.525,1.411V0ZM13.579-.781a1.421,1.421,0,0,0,1-.349,1.266,1.266,0,0,0,.378-.979v-.469l-.693.029a2.372,2.372,0,0,0-1.179.271.823.823,0,0,0-.369.74.722.722,0,0,0,.215.559A.923.923,0,0,0,13.579-.781ZM22.261,0H21.108V-3.33a1.51,1.51,0,0,0-.234-.925.865.865,0,0,0-.732-.305,1.117,1.117,0,0,0-.974.432,2.535,2.535,0,0,0-.31,1.438V0H17.71V-5.4h.9l.161.708h.059a1.5,1.5,0,0,1,.652-.6,2.1,2.1,0,0,1,.94-.21,1.642,1.642,0,0,1,1.65.85h.078a1.646,1.646,0,0,1,.674-.625,2.138,2.138,0,0,1,1-.225,1.814,1.814,0,0,1,1.409.488,2.162,2.162,0,0,1,.442,1.489V0H24.521V-3.33a1.5,1.5,0,0,0-.237-.925.872.872,0,0,0-.735-.305,1.139,1.139,0,0,0-.979.417,2.152,2.152,0,0,0-.31,1.282ZM30.01.1A1.891,1.891,0,0,1,28.418-.64H28.35q.068.684.068.83V2.4H27.271V-5.4H28.2q.039.151.161.723h.059a1.8,1.8,0,0,1,1.611-.82,1.874,1.874,0,0,1,1.575.732,3.3,3.3,0,0,1,.564,2.056,3.3,3.3,0,0,1-.574,2.065A1.891,1.891,0,0,1,30.01.1Zm-.278-4.658a1.193,1.193,0,0,0-1,.4,2.075,2.075,0,0,0-.315,1.279v.171a2.526,2.526,0,0,0,.313,1.428,1.162,1.162,0,0,0,1.021.442,1.036,1.036,0,0,0,.918-.488,2.522,2.522,0,0,0,.322-1.392,2.433,2.433,0,0,0-.32-1.375A1.067,1.067,0,0,0,29.731-4.561ZM34.648,0H33.5V-7.6h1.147Zm4,.1a2.612,2.612,0,0,1-1.97-.735,2.79,2.79,0,0,1-.71-2.024,3.061,3.061,0,0,1,.659-2.08A2.277,2.277,0,0,1,38.438-5.5a2.225,2.225,0,0,1,1.689.649,2.482,2.482,0,0,1,.62,1.787v.62h-3.6a1.774,1.774,0,0,0,.425,1.208A1.48,1.48,0,0,0,38.7-.811a4.164,4.164,0,0,0,.891-.09,4.671,4.671,0,0,0,.886-.3v.933a3.523,3.523,0,0,1-.85.283A5.21,5.21,0,0,1,38.647.1Zm-.21-4.727a1.153,1.153,0,0,0-.876.347,1.652,1.652,0,0,0-.393,1.011h2.451A1.5,1.5,0,0,0,39.3-4.285,1.1,1.1,0,0,0,38.438-4.629Zm7.5.811h.811a1.851,1.851,0,0,0,1.182-.3,1.1,1.1,0,0,0,.366-.9.967.967,0,0,0-.4-.869,2.169,2.169,0,0,0-1.191-.264h-.771Zm0,.967V0H44.771V-7.139h2.017a3.313,3.313,0,0,1,2.046.518A1.858,1.858,0,0,1,49.5-5.059a1.953,1.953,0,0,1-1.387,1.9L50.127,0H48.8L47.09-2.852ZM53.4.1a2.612,2.612,0,0,1-1.97-.735,2.79,2.79,0,0,1-.71-2.024,3.061,3.061,0,0,1,.659-2.08A2.277,2.277,0,0,1,53.188-5.5a2.225,2.225,0,0,1,1.689.649,2.482,2.482,0,0,1,.62,1.787v.62H51.9a1.774,1.774,0,0,0,.425,1.208,1.48,1.48,0,0,0,1.128.422,4.164,4.164,0,0,0,.891-.09,4.671,4.671,0,0,0,.886-.3v.933a3.523,3.523,0,0,1-.85.283A5.21,5.21,0,0,1,53.4.1Zm-.21-4.727a1.153,1.153,0,0,0-.876.347,1.652,1.652,0,0,0-.393,1.011H54.37a1.5,1.5,0,0,0-.322-1.013A1.1,1.1,0,0,0,53.188-4.629ZM60.43-1.538a1.413,1.413,0,0,1-.576,1.213A2.759,2.759,0,0,1,58.2.1,3.9,3.9,0,0,1,56.47-.229v-.991a4.256,4.256,0,0,0,1.772.439q1.06,0,1.06-.64a.507.507,0,0,0-.117-.342,1.387,1.387,0,0,0-.386-.283,6.638,6.638,0,0,0-.747-.332A3.456,3.456,0,0,1,56.79-3.1a1.337,1.337,0,0,1-.33-.937,1.231,1.231,0,0,1,.559-1.077A2.653,2.653,0,0,1,58.54-5.5a4.308,4.308,0,0,1,1.8.386l-.371.864a4.007,4.007,0,0,0-1.47-.361q-.908,0-.908.518a.521.521,0,0,0,.237.43,5.208,5.208,0,0,0,1.033.483,4.721,4.721,0,0,1,.972.474,1.415,1.415,0,0,1,.449.5A1.434,1.434,0,0,1,60.43-1.538ZM64.409.1A1.891,1.891,0,0,1,62.817-.64h-.068q.068.684.068.83V2.4H61.67V-5.4H62.6q.039.151.161.723h.059a1.8,1.8,0,0,1,1.611-.82A1.874,1.874,0,0,1,66-4.766a3.3,3.3,0,0,1,.564,2.056,3.3,3.3,0,0,1-.574,2.065A1.891,1.891,0,0,1,64.409.1Zm-.278-4.658a1.193,1.193,0,0,0-1,.4,2.075,2.075,0,0,0-.315,1.279v.171a2.526,2.526,0,0,0,.313,1.428A1.162,1.162,0,0,0,64.15-.84a1.036,1.036,0,0,0,.918-.488,2.522,2.522,0,0,0,.322-1.392,2.433,2.433,0,0,0-.32-1.375A1.067,1.067,0,0,0,64.131-4.561ZM72.69-2.71a2.948,2.948,0,0,1-.679,2.065A2.432,2.432,0,0,1,70.122.1a2.589,2.589,0,0,1-1.338-.342,2.257,2.257,0,0,1-.894-.981,3.343,3.343,0,0,1-.312-1.484,2.928,2.928,0,0,1,.674-2.051,2.443,2.443,0,0,1,1.9-.737,2.379,2.379,0,0,1,1.855.754A2.914,2.914,0,0,1,72.69-2.71Zm-3.931,0q0,1.87,1.382,1.87t1.367-1.87q0-1.851-1.377-1.851a1.174,1.174,0,0,0-1.047.479A2.435,2.435,0,0,0,68.76-2.71ZM78.76,0H77.607V-3.32a1.453,1.453,0,0,0-.251-.933.972.972,0,0,0-.8-.308,1.269,1.269,0,0,0-1.064.43,2.372,2.372,0,0,0-.337,1.44V0H74.009V-5.4h.9l.161.708h.059a1.6,1.6,0,0,1,.693-.6,2.324,2.324,0,0,1,1-.21A1.733,1.733,0,0,1,78.76-3.521Zm5.225-1.538a1.413,1.413,0,0,1-.576,1.213A2.759,2.759,0,0,1,81.758.1a3.9,3.9,0,0,1-1.733-.327v-.991A4.256,4.256,0,0,0,81.8-.781q1.06,0,1.06-.64a.507.507,0,0,0-.117-.342,1.387,1.387,0,0,0-.386-.283,6.639,6.639,0,0,0-.747-.332A3.456,3.456,0,0,1,80.344-3.1a1.337,1.337,0,0,1-.33-.937,1.231,1.231,0,0,1,.559-1.077A2.653,2.653,0,0,1,82.095-5.5a4.308,4.308,0,0,1,1.8.386l-.371.864a4.007,4.007,0,0,0-1.47-.361q-.908,0-.908.518a.521.521,0,0,0,.237.43,5.208,5.208,0,0,0,1.033.483,4.721,4.721,0,0,1,.972.474,1.415,1.415,0,0,1,.449.5A1.434,1.434,0,0,1,83.984-1.538ZM87.583.1a2.612,2.612,0,0,1-1.97-.735,2.79,2.79,0,0,1-.71-2.024,3.061,3.061,0,0,1,.659-2.08A2.277,2.277,0,0,1,87.373-5.5a2.225,2.225,0,0,1,1.689.649,2.482,2.482,0,0,1,.62,1.787v.62h-3.6a1.774,1.774,0,0,0,.425,1.208,1.48,1.48,0,0,0,1.128.422,4.164,4.164,0,0,0,.891-.09,4.671,4.671,0,0,0,.886-.3v.933a3.523,3.523,0,0,1-.85.283A5.21,5.21,0,0,1,87.583.1Zm-.21-4.727a1.153,1.153,0,0,0-.876.347A1.652,1.652,0,0,0,86.1-3.271h2.451a1.5,1.5,0,0,0-.322-1.013A1.1,1.1,0,0,0,87.373-4.629Z" transform="translate(190 429)" fill="#455666"></path><g id="Group_1153" data-name="Group 1153" transform="translate(10.92 9)"><path id="Path_35024" data-name="Path 35024" d="M491.457,250.368c.011,0,.021,0,.021-.011v-.34h0c0-.021,0-.032-.011-.043s-.011-.032-.032-.043a.055.055,0,0,0-.042-.021.08.08,0,0,0-.053-.011h-.021a.08.08,0,0,0-.053.011c-.011.011-.032.021-.042.032l-.021.043h-.021a.106.106,0,0,0-.043-.053.154.154,0,0,0-.074-.021h-.011a.1.1,0,0,0-.053.011c-.011.011-.032.021-.043.032l-.021.032h-.011l.011-.032v-.043c0-.011-.011-.011-.021-.011h-.032c-.011,0-.011,0-.011.011v.447c0,.011,0,.011.011.011h.032c.011,0,.021,0,.021-.011v-.3c.011-.021.021-.032.032-.053l.032-.032c.011-.011.021-.011.032-.021h.032c.021,0,.032,0,.042.021a.055.055,0,0,1,.021.043v.351h0v.011h.053v-.308c.011-.021.021-.032.032-.053l.032-.032c.011-.011.021-.011.032-.021h.042c.021,0,.032,0,.043.021a.055.055,0,0,1,.021.043v.351c0,.011.011.011.021.011h.053Zm-.638-.415a.037.037,0,0,0,.021-.011v-.032c0-.011-.011-.011-.021-.011h-.3c-.011,0-.021,0-.021.011v.021c0,.011,0,.011.021.011h.106v.4c0,.011.011.011.021.011h.032c.011,0,.021,0,.021-.011v-.4h.117Z" transform="translate(-449.65 -245.987)" fill="#004e6d"></path><path id="Path_35025" data-name="Path 35025" d="M269.277,245.556c-.138,0-.2-.053-.2-.17v-5.912a.646.646,0,0,0-.213-.478.717.717,0,0,0-.5-.191h-.415a1.148,1.148,0,0,0-.266.053,1.089,1.089,0,0,0-.362.191,2.08,2.08,0,0,0-.383.372,2.466,2.466,0,0,0-.33.574v5.391c0,.117-.064.17-.2.17H266c-.138,0-.2-.053-.2-.17V234.87c0-.117.064-.17.2-.17h.4c.138,0,.2.053.2.17v3.711l-.106.436.138.032.213-.4a1.727,1.727,0,0,1,.489-.351,1.392,1.392,0,0,1,.6-.128h.415a1.543,1.543,0,0,1,.585.106,1.461,1.461,0,0,1,.819.744,1.331,1.331,0,0,1,.117.532v5.837c0,.117-.064.17-.2.17Zm5.72-1.382v-4.625a1.293,1.293,0,0,0-.117-.532,1.355,1.355,0,0,0-.33-.447,1.63,1.63,0,0,0-.489-.3,1.581,1.581,0,0,0-.585-.106h-.425a1.392,1.392,0,0,0-.6.128,1.727,1.727,0,0,0-.489.351l-.223.4-.138-.043.106-.436v-.234c0-.117-.064-.17-.2-.17h-.4c-.138,0-.2.053-.2.17v10.516c0,.117.064.17.2.17h.4c.138,0,.2-.053.2-.17v-3.711l-.106-.436.138-.032.223.383a2.01,2.01,0,0,0,.489.362,1.259,1.259,0,0,0,.6.138h.425a1.543,1.543,0,0,0,.585-.106,1.462,1.462,0,0,0,.819-.744,1.173,1.173,0,0,0,.117-.532m-.808.064a.646.646,0,0,1-.213.478.682.682,0,0,1-.5.2h-.425a1.149,1.149,0,0,1-.266-.053,1.329,1.329,0,0,1-.361-.191,2.075,2.075,0,0,1-.383-.372,2.339,2.339,0,0,1-.33-.585v-3.711a2.464,2.464,0,0,1,.33-.574,2.076,2.076,0,0,1,.383-.372,1.2,1.2,0,0,1,.361-.191,1.147,1.147,0,0,1,.266-.053h.425a.717.717,0,0,1,.5.191.629.629,0,0,1,.213.478Z" transform="translate(-248.841 -232.403)" fill="#004e6d"></path><path id="Path_35026" data-name="Path 35026" d="M471.108,252.309v5.433a.645.645,0,0,0,.213.478.732.732,0,0,0,.521.191c.138,0,.2.064.2.181v.276c0,.117-.064.17-.2.17a1.654,1.654,0,0,1-.606-.106,1.461,1.461,0,0,1-.819-.744,1.332,1.332,0,0,1-.117-.532V249.97c0-.117.064-.17.2-.17h.415c.128,0,.191.053.191.17v1.691h1.148c.138,0,.2.053.2.17v.276c0,.128-.064.191-.2.191h-1.148Z" transform="translate(-431.597 -245.898)" fill="#004e6d"></path><path id="Path_35027" data-name="Path 35027" d="M239.608,252.309v5.433a.646.646,0,0,0,.213.478.733.733,0,0,0,.521.191c.138,0,.2.064.2.181v.276c0,.117-.064.17-.2.17a1.653,1.653,0,0,1-.606-.106,1.631,1.631,0,0,1-.489-.3,1.522,1.522,0,0,1-.33-.447,1.332,1.332,0,0,1-.117-.532V249.97c0-.117.064-.17.2-.17h.415c.128,0,.191.053.191.17v1.691h1.148c.138,0,.2.053.2.17v.276c0,.128-.064.191-.2.191h-1.148Z" transform="translate(-224.712 -245.898)" fill="#004e6d"></path><path id="Path_35028" data-name="Path 35028" d="M115.359,274.52v-5.837a1.331,1.331,0,0,0-.117-.532,1.355,1.355,0,0,0-.33-.447,1.51,1.51,0,0,0-.489-.3,1.616,1.616,0,0,0-.606-.106h-.766a1.654,1.654,0,0,0-.606.106,1.632,1.632,0,0,0-.489.3,1.522,1.522,0,0,0-.33.447,1.331,1.331,0,0,0-.117.532c0,.117.064.17.2.17h.4c.138,0,.2-.053.2-.17v-.074a.646.646,0,0,1,.213-.478.732.732,0,0,1,.521-.191h.766a.75.75,0,0,1,.521.191.629.629,0,0,1,.213.478v1.244a7.145,7.145,0,0,0-1.18.362,6.937,6.937,0,0,0-1.053.532,3.245,3.245,0,0,0-.755.627,1.031,1.031,0,0,0-.287.659v1.276a1.293,1.293,0,0,0,.117.532,1.354,1.354,0,0,0,.33.447,1.63,1.63,0,0,0,.489.3,1.6,1.6,0,0,0,.6.106h.415a1.393,1.393,0,0,0,.6-.128,1.728,1.728,0,0,0,.489-.351l.213-.4.138.043-.106.425v.245c0,.117.064.17.2.17h.4c.138,0,.2-.064.2-.17m-.808-1.669a2.263,2.263,0,0,1-.33.574,2.078,2.078,0,0,1-.383.372,1.2,1.2,0,0,1-.362.191,1.147,1.147,0,0,1-.266.053H112.8a.7.7,0,0,1-.5-.191.623.623,0,0,1-.213-.468v-1.35a.639.639,0,0,1,.191-.351,3.381,3.381,0,0,1,.521-.478,4.531,4.531,0,0,1,.787-.478,5.333,5.333,0,0,1,.978-.372v2.5Zm3.987-4.9a1.15,1.15,0,0,0-.266.053,1.089,1.089,0,0,0-.362.191,2.077,2.077,0,0,0-.383.372,2.466,2.466,0,0,0-.33.574v5.369c0,.117-.064.17-.2.17h-.4c-.138,0-.2-.053-.2-.17v-7.028c0-.117.064-.17.2-.17h.4c.138,0,.2.053.2.17v.234l-.106.436.138.043.213-.4a1.728,1.728,0,0,1,.489-.351,1.392,1.392,0,0,1,.6-.128h.883c.138,0,.2.053.2.17v.276a.152.152,0,0,1-.064.128.224.224,0,0,1-.138.053h-.872Zm-8.145,2.733v-2a1.331,1.331,0,0,0-.117-.532,1.222,1.222,0,0,0-.33-.447,1.51,1.51,0,0,0-.489-.3,1.6,1.6,0,0,0-.6-.106h-1.021a1.616,1.616,0,0,0-.606.106,1.462,1.462,0,0,0-.819.744,1.331,1.331,0,0,0-.117.532v4.625a1.293,1.293,0,0,0,.117.532,1.221,1.221,0,0,0,.33.447,1.508,1.508,0,0,0,.489.3,1.615,1.615,0,0,0,.606.106h1.021a1.6,1.6,0,0,0,.6-.106,1.629,1.629,0,0,0,.489-.3,1.521,1.521,0,0,0,.33-.447,1.331,1.331,0,0,0,.117-.532c0-.117-.064-.17-.2-.17h-.4c-.138,0-.2.053-.2.17v.074a.623.623,0,0,1-.213.468.724.724,0,0,1-.51.191h-1.021a.751.751,0,0,1-.521-.191.623.623,0,0,1-.213-.468V271.3h2.467c.5,0,.819-.191.819-.617m-.808-.021h-2.467V268.6a.646.646,0,0,1,.213-.478.733.733,0,0,1,.521-.191h1.021a.743.743,0,0,1,.51.191.629.629,0,0,1,.213.478v2.063Z" transform="translate(-106.3 -261.537)" fill="#004e6d"></path><path id="Path_35029" data-name="Path 35029" d="M435.82,268.038a.224.224,0,0,0,.138-.053.166.166,0,0,0,.064-.128v-.287c0-.117-.064-.17-.2-.17h-.883a1.392,1.392,0,0,0-.6.128,1.728,1.728,0,0,0-.489.351l-.213.4-.138-.043.106-.436v-.234c0-.117-.064-.17-.2-.17H433c-.138,0-.2.053-.2.17v7.039c0,.117.064.17.2.17h.4c.138,0,.2-.053.2-.17v-5.369a2.463,2.463,0,0,1,.33-.574,2.074,2.074,0,0,1,.383-.372,1.2,1.2,0,0,1,.362-.191,1.148,1.148,0,0,1,.266-.053h.872Z" transform="translate(-398.085 -261.627)" fill="#004e6d"></path><path id="Path_35030" data-name="Path 35030" d="M277.432,232.111H277.4A15.27,15.27,0,0,0,301.3,213.1h-.021a15.271,15.271,0,0,1-23.849,19.011" transform="translate(-259.208 -213.1)" fill="#ffde00"></path><path id="Path_35031" data-name="Path 35031" d="M360.989,273.892a2.9,2.9,0,1,1,2.9-2.9,2.9,2.9,0,0,1-2.9,2.9m0-6.592a3.689,3.689,0,1,0,3.69,3.69,3.685,3.685,0,0,0-3.69-3.69" transform="translate(-330.612 -261.537)" fill="#ffde00"></path></g><rect id="Shape_26_copy_2" data-name="Shape 26 copy 2" width="1" height="20" transform="translate(65.492 9)" fill="#d9dee5"></rect></g></g></svg>