<svg xmlns="http://www.w3.org/2000/svg" xmlns:xlink="http://www.w3.org/1999/xlink" viewBox="0 0 1659.47 871.22"><defs><style>.cls-1,.cls-2,.cls-3,.cls-4,.cls-5,.cls-6{fill:none;}.cls-10,.cls-14,.cls-17,.cls-2,.cls-21,.cls-3,.cls-31,.cls-36,.cls-37,.cls-38,.cls-39,.cls-4,.cls-5,.cls-6,.cls-69,.cls-70,.cls-72{stroke:#031439;}.cls-10,.cls-12,.cls-13,.cls-14,.cls-15,.cls-16,.cls-17,.cls-18,.cls-19,.cls-2,.cls-20,.cls-21,.cls-3,.cls-31,.cls-36,.cls-37,.cls-38,.cls-39,.cls-4,.cls-5,.cls-6,.cls-69,.cls-70,.cls-72,.cls-8{stroke-miterlimit:10;stroke-width:2px;}.cls-3{clip-path:url(#clip-path);}.cls-4{clip-path:url(#clip-path-2);}.cls-5{clip-path:url(#clip-path-3);}.cls-6{clip-path:url(#clip-path-4);}.cls-7{isolation:isolate;}.cls-8{fill:#455666;}.cls-12,.cls-13,.cls-15,.cls-16,.cls-18,.cls-19,.cls-20,.cls-8{stroke:#24313e;}.cls-13,.cls-39,.cls-9{fill:#ebf0f5;}.cls-10{fill:#f5f7f9;}.cls-11{opacity:0.28;fill:url(#radial-gradient);}.cls-12,.cls-34{fill:#6b7e8f;}.cls-14{fill:#5c97ff;}.cls-15,.cls-37{fill:#9caab8;}.cls-16,.cls-38{fill:#d9dee5;}.cls-106,.cls-17{fill:#0c7ff2;}.cls-18{fill:#ff4451;}.cls-19,.cls-70{fill:#f4e969;}.cls-20{font-size:16.76px;fill:#3e445d;}.cls-20,.cls-32{font-family:Rubik-SemiBold, Rubik;font-weight:600;}.cls-21{fill:#1d2236;}.cls-108,.cls-109,.cls-110,.cls-111,.cls-112,.cls-22,.cls-23,.cls-24,.cls-25,.cls-27,.cls-30{mix-blend-mode:overlay;}.cls-22{fill:url(#radial-gradient-2);}.cls-23{fill:url(#radial-gradient-3);}.cls-24{fill:url(#radial-gradient-4);}.cls-25{fill:url(#radial-gradient-5);}.cls-26{fill:#0062ff;}.cls-28{fill:url(#radial-gradient-6);}.cls-29{fill:url(#radial-gradient-7);}.cls-30{fill:url(#radial-gradient-8);}.cls-31{fill:#fff;}.cls-32{font-size:31.46px;}.cls-33{opacity:0.21;}.cls-35{clip-path:url(#clip-path-5);}.cls-36{fill:#5c6ac3;}.cls-40{fill:#020a1e;}.cls-41{clip-path:url(#clip-path-6);}.cls-42{clip-path:url(#clip-path-7);}.cls-43{fill:#020b20;}.cls-44{fill:#020b1f;}.cls-45{fill:#020a1d;}.cls-46{fill:#020c21;}.cls-47{fill:#8d873d;}.cls-48{fill:#7a7535;}.cls-49{clip-path:url(#clip-path-8);}.cls-50{clip-path:url(#clip-path-9);}.cls-51{clip-path:url(#clip-path-10);}.cls-52{clip-path:url(#clip-path-11);}.cls-53{fill:#7f7937;}.cls-54{clip-path:url(#clip-path-12);}.cls-55{clip-path:url(#clip-path-13);}.cls-56{fill:#807a37;}.cls-57{clip-path:url(#clip-path-14);}.cls-58{fill:#847e39;}.cls-59{fill:#89823b;}.cls-60{clip-path:url(#clip-path-15);}.cls-61{clip-path:url(#clip-path-16);}.cls-62{fill:#e6db63;}.cls-63{clip-path:url(#clip-path-17);}.cls-64{clip-path:url(#clip-path-18);}.cls-65{clip-path:url(#clip-path-19);}.cls-66{fill:#031336;}.cls-67{clip-path:url(#clip-path-20);}.cls-68{clip-path:url(#clip-path-21);}.cls-69{fill:#24313e;}.cls-71{clip-path:url(#clip-path-22);}.cls-72{fill:#3ab2d0;}.cls-73{clip-path:url(#clip-path-23);}.cls-74{clip-path:url(#clip-path-24);}.cls-75{clip-path:url(#clip-path-25);}.cls-76{clip-path:url(#clip-path-26);}.cls-77{clip-path:url(#clip-path-27);}.cls-78{clip-path:url(#clip-path-28);}.cls-79{clip-path:url(#clip-path-29);}.cls-80{clip-path:url(#clip-path-30);}.cls-81{clip-path:url(#clip-path-31);}.cls-82{clip-path:url(#clip-path-32);}.cls-83{clip-path:url(#clip-path-33);}.cls-84{clip-path:url(#clip-path-34);}.cls-85{clip-path:url(#clip-path-35);}.cls-86{clip-path:url(#clip-path-36);}.cls-87{clip-path:url(#clip-path-37);}.cls-88{clip-path:url(#clip-path-38);}.cls-89{clip-path:url(#clip-path-39);}.cls-90{clip-path:url(#clip-path-40);}.cls-91{clip-path:url(#clip-path-41);}.cls-92{clip-path:url(#clip-path-42);}.cls-93{clip-path:url(#clip-path-43);}.cls-94{clip-path:url(#clip-path-44);}.cls-95{clip-path:url(#clip-path-45);}.cls-96{clip-path:url(#clip-path-46);}.cls-97{clip-path:url(#clip-path-47);}.cls-98{clip-path:url(#clip-path-48);}.cls-99{clip-path:url(#clip-path-49);}.cls-100{clip-path:url(#clip-path-50);}.cls-101{clip-path:url(#clip-path-51);}.cls-102{clip-path:url(#clip-path-52);}.cls-103{clip-path:url(#clip-path-53);}.cls-104{clip-path:url(#clip-path-54);}.cls-105{clip-path:url(#clip-path-55);}.cls-107{mix-blend-mode:multiply;fill:url(#radial-gradient-9);}.cls-108{fill:url(#radial-gradient-10);}.cls-109{fill:url(#radial-gradient-11);}.cls-110{fill:url(#radial-gradient-12);}.cls-111{fill:url(#radial-gradient-13);}.cls-112{fill:url(#radial-gradient-14);}</style><clipPath id="clip-path"><path class="cls-2" d="M839.4,395.93a13.69,13.69,0,0,1,2.09,1.74,3.69,3.69,0,0,1,.8,2.66"></path></clipPath><clipPath id="clip-path-2"><path class="cls-2" d="M858.94,355.82h0a3.65,3.65,0,0,0,.82-2.61"></path></clipPath><clipPath id="clip-path-3"><path class="cls-2" d="M840.11,394.64a15.48,15.48,0,0,1,2.27,1.89,5.22,5.22,0,0,1,1.25,3.8"></path></clipPath><clipPath id="clip-path-4"><path class="cls-2" d="M843.63,353.21a5.27,5.27,0,0,1-1.23,3.71,14,14,0,0,1-2.26,2"></path></clipPath><radialGradient id="radial-gradient" cx="960.53" cy="695.69" r="460.54" gradientUnits="userSpaceOnUse"><stop offset="0"></stop><stop offset="1" stop-color="#fff" stop-opacity="0"></stop></radialGradient><radialGradient id="radial-gradient-2" cx="1114.19" cy="518.7" r="123.76" gradientTransform="translate(85.85) scale(0.91 1)" gradientUnits="userSpaceOnUse"><stop offset="0" stop-color="#fff"></stop><stop offset="1" stop-color="#fff" stop-opacity="0"></stop></radialGradient><radialGradient id="radial-gradient-3" cx="1136.25" cy="79.7" r="170.48" gradientTransform="translate(216.02 62.88) scale(0.79 0.21)" gradientUnits="userSpaceOnUse"><stop offset="0" stop-color="#fff"></stop><stop offset="0.01" stop-color="#fff" stop-opacity="0.98"></stop><stop offset="0.3" stop-color="#fff" stop-opacity="0.64"></stop><stop offset="0.55" stop-color="#fff" stop-opacity="0.36"></stop><stop offset="0.76" stop-color="#fff" stop-opacity="0.17"></stop><stop offset="0.91" stop-color="#fff" stop-opacity="0.05"></stop><stop offset="1" stop-color="#fff" stop-opacity="0"></stop></radialGradient><radialGradient id="radial-gradient-4" cx="1134.88" cy="90.7" r="170.48" gradientTransform="translate(216.02 71.55) scale(0.79 0.21)" xlink:href="#radial-gradient"></radialGradient><radialGradient id="radial-gradient-5" cx="1132.36" cy="531.7" r="170.48" gradientTransform="translate(216.02 419.48) scale(0.79 0.21)" xlink:href="#radial-gradient"></radialGradient><radialGradient id="radial-gradient-6" cx="512.27" cy="477.13" r="241.84" gradientTransform="translate(1049.8 641.07) rotate(172.68) scale(1 0.48)" gradientUnits="userSpaceOnUse"><stop offset="0" stop-color="#fff"></stop><stop offset="0.37" stop-color="#fff" stop-opacity="0.99"></stop><stop offset="0.51" stop-color="#fff" stop-opacity="0.97"></stop><stop offset="0.6" stop-color="#fff" stop-opacity="0.92"></stop><stop offset="0.68" stop-color="#fff" stop-opacity="0.85"></stop><stop offset="0.75" stop-color="#fff" stop-opacity="0.77"></stop><stop offset="0.8" stop-color="#fff" stop-opacity="0.66"></stop><stop offset="0.86" stop-color="#fff" stop-opacity="0.53"></stop><stop offset="0.91" stop-color="#fff" stop-opacity="0.39"></stop><stop offset="0.95" stop-color="#fff" stop-opacity="0.22"></stop><stop offset="0.99" stop-color="#fff" stop-opacity="0.04"></stop><stop offset="1" stop-color="#fff" stop-opacity="0"></stop></radialGradient><radialGradient id="radial-gradient-7" cx="450.17" cy="372.86" r="252.32" gradientTransform="translate(-1.75 320.28) rotate(-1.69) scale(1 0.18)" xlink:href="#radial-gradient-2"></radialGradient><radialGradient id="radial-gradient-8" cx="463.95" cy="213.28" r="286.46" gradientTransform="matrix(0.95, 0.32, -0.13, 0.4, 53.12, -20.03)" xlink:href="#radial-gradient-2"></radialGradient><clipPath id="clip-path-5"><rect class="cls-1" x="887.14" y="170.93" width="391.07" height="570.51" transform="translate(2165.35 912.36) rotate(-180)"></rect></clipPath><clipPath id="clip-path-6"><path class="cls-1" d="M795,374.77h17.47a4.92,4.92,0,0,1,.67-2.72,10,10,0,0,1,2.33-2.33H798a9.87,9.87,0,0,0-2.34,2.33A4.92,4.92,0,0,0,795,374.77Z"></path></clipPath><clipPath id="clip-path-7"><path class="cls-1" d="M798,383.69h17.47a9.89,9.89,0,0,1-2.34-2.34,4.58,4.58,0,0,1-.67-2.58H795a4.58,4.58,0,0,0,.67,2.58A9.89,9.89,0,0,0,798,383.69Z"></path></clipPath><clipPath id="clip-path-8"><path class="cls-1" d="M839.08,338.12h17.47c.28-.16.59-.33.91-.48H840C839.67,337.79,839.37,338,839.08,338.12Z"></path></clipPath><clipPath id="clip-path-9"><path class="cls-1" d="M840,337.64h17.47a1.47,1.47,0,0,1,.69-.19H840.68A1.5,1.5,0,0,0,840,337.64Z"></path></clipPath><clipPath id="clip-path-10"><path class="cls-1" d="M840.73,416.1H858.2a1.62,1.62,0,0,1-.74-.2,4.62,4.62,0,0,1-.85-.56H839.14a4.62,4.62,0,0,0,.85.56A1.62,1.62,0,0,0,840.73,416.1Z"></path></clipPath><clipPath id="clip-path-11"><path class="cls-1" d="M856.9,355.82H841.47a12,12,0,0,1-2.05,1.77h17.47a12,12,0,0,0,2.05-1.77h-2Z"></path></clipPath><clipPath id="clip-path-12"><path class="cls-1" d="M841.47,355.82a8.15,8.15,0,0,0,1.78,0h-1.78Z"></path></clipPath><clipPath id="clip-path-13"><path class="cls-1" d="M859.69,414.72H842.22a1.84,1.84,0,0,1-.42.82,1.41,1.41,0,0,1-1.07.56H858.2a1.41,1.41,0,0,0,1.07-.56A1.84,1.84,0,0,0,859.69,414.72Z"></path></clipPath><clipPath id="clip-path-14"><path class="cls-1" d="M842.29,400.33h17.47a3.69,3.69,0,0,0-.8-2.66,13.69,13.69,0,0,0-2.09-1.74H839.4a13.69,13.69,0,0,1,2.09,1.74A3.69,3.69,0,0,1,842.29,400.33Z"></path></clipPath><clipPath id="clip-path-15"><path class="cls-1" d="M858.94,355.82a3.65,3.65,0,0,0,.82-2.61H842.29a3.65,3.65,0,0,1-.82,2.61Z"></path></clipPath><clipPath id="clip-path-16"><path class="cls-1" d="M859.29,338a1.51,1.51,0,0,0-1.14-.51H840.68a1.49,1.49,0,0,1,1.14.51,1.75,1.75,0,0,1,.47,1.3h17.47A1.75,1.75,0,0,0,859.29,338Z"></path></clipPath><clipPath id="clip-path-17"><path class="cls-1" d="M840.68,417.61h17.47a2.69,2.69,0,0,0,2.07-1,3.63,3.63,0,0,0,.88-2.47H843.63a3.63,3.63,0,0,1-.88,2.47A2.66,2.66,0,0,1,840.68,417.61Z"></path></clipPath><clipPath id="clip-path-18"><path class="cls-1" d="M843.63,400.33H861.1a5.22,5.22,0,0,0-1.25-3.8,16.61,16.61,0,0,0-2.27-1.89H840.11a15.48,15.48,0,0,1,2.27,1.89A5.22,5.22,0,0,1,843.63,400.33Z"></path></clipPath><clipPath id="clip-path-19"><path class="cls-1" d="M840.14,358.88h17.47a13.5,13.5,0,0,0,2.25-2,5.23,5.23,0,0,0,1.24-3.71H843.63a5.27,5.27,0,0,1-1.23,3.71A14,14,0,0,1,840.14,358.88Z"></path></clipPath><clipPath id="clip-path-20"><path class="cls-1" d="M843.63,339.26H861.1a3.38,3.38,0,0,0-.9-2.42,2.74,2.74,0,0,0-2-.93H840.75a2.74,2.74,0,0,1,2,.93A3.38,3.38,0,0,1,843.63,339.26Z"></path></clipPath><clipPath id="clip-path-21"><path class="cls-1" d="M853.26,324.26h17.47a3.93,3.93,0,0,1-.17-1,2,2,0,0,1,.55-1.34,1.53,1.53,0,0,1,1.17-.61H854.81a1.55,1.55,0,0,0-1.17.61,2,2,0,0,0-.55,1.34A3.93,3.93,0,0,0,853.26,324.26Z"></path></clipPath><clipPath id="clip-path-22"><rect class="cls-1" x="569.72" y="170.93" width="317.41" height="570.51"></rect></clipPath><clipPath id="clip-path-23"><path class="cls-2" d="M839.08,338.12h17.47c.28-.16.59-.33.91-.48H840C839.67,337.79,839.37,338,839.08,338.12Z"></path></clipPath><clipPath id="clip-path-24"><path class="cls-2" d="M840,337.64h17.47a1.47,1.47,0,0,1,.69-.19H840.68A1.5,1.5,0,0,0,840,337.64Z"></path></clipPath><clipPath id="clip-path-25"><path class="cls-2" d="M840.73,416.1H858.2a1.62,1.62,0,0,1-.74-.2,4.62,4.62,0,0,1-.85-.56H839.14a4.62,4.62,0,0,0,.85.56A1.62,1.62,0,0,0,840.73,416.1Z"></path></clipPath><clipPath id="clip-path-26"><path class="cls-2" d="M859.69,414.72H842.22a1.84,1.84,0,0,1-.42.82,1.41,1.41,0,0,1-1.07.56H858.2a1.41,1.41,0,0,0,1.07-.56A1.84,1.84,0,0,0,859.69,414.72Z"></path></clipPath><clipPath id="clip-path-27"><path class="cls-3" d="M859.76,400.33a3.69,3.69,0,0,0-.8-2.66,13.69,13.69,0,0,0-2.09-1.74"></path></clipPath><clipPath id="clip-path-28"><path class="cls-4" d="M842.29,353.21a3.65,3.65,0,0,1-.82,2.61"></path></clipPath><clipPath id="clip-path-29"><path class="cls-2" d="M859.29,338a1.51,1.51,0,0,0-1.14-.51H840.68a1.49,1.49,0,0,1,1.14.51,1.75,1.75,0,0,1,.47,1.3h17.47A1.75,1.75,0,0,0,859.29,338Z"></path></clipPath><clipPath id="clip-path-30"><path class="cls-2" d="M840.68,417.61h17.47a2.69,2.69,0,0,0,2.07-1,3.63,3.63,0,0,0,.88-2.47H843.63a3.63,3.63,0,0,1-.88,2.47A2.66,2.66,0,0,1,840.68,417.61Z"></path></clipPath><clipPath id="clip-path-31"><path class="cls-5" d="M861.1,400.33a5.22,5.22,0,0,0-1.25-3.8,16.61,16.61,0,0,0-2.27-1.89"></path></clipPath><clipPath id="clip-path-32"><path class="cls-6" d="M857.61,358.88a13.5,13.5,0,0,0,2.25-2,5.23,5.23,0,0,0,1.24-3.71"></path></clipPath><clipPath id="clip-path-33"><path class="cls-2" d="M843.63,339.26H861.1a3.38,3.38,0,0,0-.9-2.42,2.74,2.74,0,0,0-2-.93H840.75a2.74,2.74,0,0,1,2,.93A3.38,3.38,0,0,1,843.63,339.26Z"></path></clipPath><clipPath id="clip-path-34"><path class="cls-2" d="M853.26,324.26h17.47a3.93,3.93,0,0,1-.17-1,2,2,0,0,1,.55-1.34,1.53,1.53,0,0,1,1.17-.61H854.81a1.55,1.55,0,0,0-1.17.61,2,2,0,0,0-.55,1.34A3.93,3.93,0,0,0,853.26,324.26Z"></path></clipPath><clipPath id="clip-path-35"><path class="cls-2" d="M886,324a7,7,0,0,0-1.24-1.87,2.86,2.86,0,0,0-2.26-.81H865.07a2.89,2.89,0,0,1,2.27.81,7.16,7.16,0,0,1,1.23,1.87"></path></clipPath><clipPath id="clip-path-36"><path class="cls-2" d="M887.26,323.35a9.16,9.16,0,0,0-1.51-2.31,4.06,4.06,0,0,0-3.21-1.25H865.07a4.06,4.06,0,0,1,3.21,1.25,9.16,9.16,0,0,1,1.51,2.31"></path></clipPath><clipPath id="clip-path-37"><path class="cls-2" d="M895.5,432.1H913a2.93,2.93,0,0,1-2.31-.87,4.23,4.23,0,0,1-1-1.68H892.16a4.36,4.36,0,0,0,1,1.68A2.93,2.93,0,0,0,895.5,432.1Z"></path></clipPath><clipPath id="clip-path-38"><path class="cls-2" d="M924.84,430.15a1.9,1.9,0,0,0-.25-.91H907.13a2,2,0,0,1,.24.9h0a2,2,0,0,1-.54,1.33,1.66,1.66,0,0,1-1.3.62H923a1.66,1.66,0,0,0,1.3-.62A2,2,0,0,0,924.84,430.15Z"></path></clipPath><clipPath id="clip-path-39"><path class="cls-2" d="M905.53,433.62H923a2.94,2.94,0,0,0,2.25-1.06,3.58,3.58,0,0,0,.93-2.41,3.65,3.65,0,0,0-.41-1.64H908.3a3.65,3.65,0,0,1,.41,1.64,3.58,3.58,0,0,1-.93,2.41A2.92,2.92,0,0,1,905.53,433.62Z"></path></clipPath><clipPath id="clip-path-40"><path class="cls-2" d="M919.89,416.09h17.47a1.56,1.56,0,0,1-1.23-.55,2,2,0,0,1-.49-1.4H918.17a2,2,0,0,0,.49,1.4A1.56,1.56,0,0,0,919.89,416.09Z"></path></clipPath><clipPath id="clip-path-41"><path class="cls-2" d="M918.17,339.26h17.47a1.79,1.79,0,0,1,.47-1.31,1.65,1.65,0,0,1,1.25-.5H919.89a1.65,1.65,0,0,0-1.25.5A1.79,1.79,0,0,0,918.17,339.26Z"></path></clipPath><clipPath id="clip-path-42"><path class="cls-2" d="M938.14,415.79H920.68l-.2.11a1.34,1.34,0,0,1-.59.19h17.47a1.34,1.34,0,0,0,.59-.19Z"></path></clipPath><clipPath id="clip-path-43"><path class="cls-2" d="M919.89,417.61h17.47a2.53,2.53,0,0,0,1.13-.33H921A2.5,2.5,0,0,1,919.89,417.61Z"></path></clipPath><clipPath id="clip-path-44"><path class="cls-2" d="M918.17,400.33h17.47a3.69,3.69,0,0,1,.8-2.66,13.87,13.87,0,0,1,2.07-1.73H921a13.87,13.87,0,0,0-2.07,1.73A3.69,3.69,0,0,0,918.17,400.33Z"></path></clipPath><clipPath id="clip-path-45"><path class="cls-2" d="M921.06,357.61h17.47a12.42,12.42,0,0,1-2.07-1.79,3.65,3.65,0,0,1-.82-2.61H918.17a3.65,3.65,0,0,0,.82,2.61A12.42,12.42,0,0,0,921.06,357.61Z"></path></clipPath><clipPath id="clip-path-46"><path class="cls-2" d="M938.14,415.79c.26-.14.53-.3.79-.47H921.46c-.26.17-.53.33-.78.47h17.46Z"></path></clipPath><clipPath id="clip-path-47"><path class="cls-2" d="M938,337.64a1.37,1.37,0,0,0-.59-.19H919.89a1.37,1.37,0,0,1,.59.19l1,.5H939Z"></path></clipPath><clipPath id="clip-path-48"><path class="cls-2" d="M922.15,336.78h17.47c-.44-.2-.79-.36-1.13-.53a2.53,2.53,0,0,0-1.13-.33H919.89a2.53,2.53,0,0,1,1.13.33C921.36,336.42,921.71,336.58,922.15,336.78Z"></path></clipPath><clipPath id="clip-path-49"><path class="cls-2" d="M921,417.28h17.47a8.47,8.47,0,0,0,1.16-.68H922.18A8.47,8.47,0,0,1,921,417.28Z"></path></clipPath><clipPath id="clip-path-50"><path class="cls-2" d="M980.2,383.49H962.73l-.25.21H980Z"></path></clipPath><clipPath id="clip-path-51"><path class="cls-2" d="M982.65,380.6H965.19a4,4,0,0,1-.4.73,11.65,11.65,0,0,1-2.06,2.16H980.2a11.65,11.65,0,0,0,2.06-2.16A3.42,3.42,0,0,0,982.65,380.6Z"></path></clipPath><clipPath id="clip-path-52"><path class="cls-2" d="M982.65,380.6a4.74,4.74,0,0,0,.32-1.83H965.5a4.94,4.94,0,0,1-.31,1.83Z"></path></clipPath><clipPath id="clip-path-53"><path class="cls-2" d="M965.5,374.77H983a4.59,4.59,0,0,0-.71-2.7,12.24,12.24,0,0,0-2.3-2.35H962.49a12,12,0,0,1,2.3,2.35A4.59,4.59,0,0,1,965.5,374.77Z"></path></clipPath><clipPath id="clip-path-54"><path class="cls-2" d="M963.24,385h17.47a13.18,13.18,0,0,0,2.6-2.68,6,6,0,0,0,1-3.5H966.84a6,6,0,0,1-1,3.5A13.26,13.26,0,0,1,963.24,385Z"></path></clipPath><clipPath id="clip-path-55"><path class="cls-2" d="M966.84,374.77h17.47a6.23,6.23,0,0,0-1-3.64,13.53,13.53,0,0,0-2.58-2.66H963.26a13.61,13.61,0,0,1,2.59,2.66A6.3,6.3,0,0,1,966.84,374.77Z"></path></clipPath><radialGradient id="radial-gradient-9" cx="893.9" cy="414.68" r="441.89" gradientTransform="translate(1211.19 866.6) rotate(-180)" gradientUnits="userSpaceOnUse"><stop offset="0" stop-color="#0c7ff2"></stop><stop offset="1" stop-color="#fff" stop-opacity="0"></stop></radialGradient><radialGradient id="radial-gradient-10" cx="882.19" cy="266.7" r="205.66" gradientTransform="translate(1.28 331.31) rotate(-7.04) scale(1 0.16)" xlink:href="#radial-gradient-2"></radialGradient><radialGradient id="radial-gradient-11" cx="882.19" cy="487.7" r="195" gradientTransform="translate(0 398.84) scale(1 0.18)" xlink:href="#radial-gradient-2"></radialGradient><radialGradient id="radial-gradient-12" cx="885.3" cy="609.7" r="193.19" gradientTransform="translate(-467.34 330.42) scale(1.53 0.46)" xlink:href="#radial-gradient-2"></radialGradient><radialGradient id="radial-gradient-13" cx="894.46" cy="565.03" r="196.22" gradientTransform="matrix(1.53, 0, 0, -0.17, -467.34, 715.32)" xlink:href="#radial-gradient"></radialGradient><radialGradient id="radial-gradient-14" cx="893.15" cy="765.03" r="123.76" gradientTransform="matrix(1.53, 0, 0, -0.6, -467.34, 958.71)" xlink:href="#radial-gradient"></radialGradient></defs><g class="cls-7"><g id="Layer_1" data-name="Layer 1"><polygon class="cls-8" points="374.36 451.27 352.77 451.27 327.34 476.7 352.77 502.13 374.36 502.13 356.42 484.2 756.21 484.2 756.21 469.2 356.42 469.2 374.36 451.27"></polygon><path class="cls-8" d="M521.83,566.75v45.89a25.59,25.59,0,0,1-25.56,25.56H356.36l17.94-17.93H352.71L327.28,645.7l25.43,25.43H374.3L356.36,653.2H496.27a40.61,40.61,0,0,0,40.56-40.56V566.75a25.58,25.58,0,0,1,25.55-25.55H707.69v-15H562.38A40.6,40.6,0,0,0,521.83,566.75Z"></path><polygon class="cls-8" points="359.42 374.2 377.36 356.27 355.77 356.27 330.34 381.7 355.77 407.13 377.36 407.13 359.42 389.2 759.21 389.2 759.21 374.2 359.42 374.2"></polygon><path class="cls-8" d="M374.3,224.13,356.36,206.2H484.27a25.59,25.59,0,0,1,25.56,25.55v45.89a40.6,40.6,0,0,0,40.55,40.56h151v-15h-151a25.59,25.59,0,0,1-25.55-25.56V231.75a40.6,40.6,0,0,0-40.56-40.55H356.36l17.94-17.93H352.71L327.28,198.7l25.43,25.43Z"></path><circle class="cls-9" cx="1131.02" cy="448.94" r="145.46"></circle><rect class="cls-10" x="772.19" y="0.2" width="887" height="871"></rect><polygon class="cls-11" points="701.33 509.45 576.19 635.2 1166.67 635.2 1182.89 622.2 1120.19 549.2 1271.19 543.2 1267.19 529.2 701.33 509.45"></polygon><circle class="cls-9" cx="890.63" cy="342.15" r="241.86"></circle><rect class="cls-8" x="890.96" y="165.65" width="456.58" height="279.04" rx="8.83" transform="translate(1424.42 -814.07) rotate(90)"></rect><rect class="cls-12" x="899.05" y="165.65" width="456.58" height="279.04" rx="8.83" transform="translate(1432.51 -822.17) rotate(90)"></rect><rect class="cls-8" x="1008.78" y="89.05" width="248.41" height="427.43" rx="8.83"></rect><rect class="cls-13" x="1002.13" y="89.05" width="248.41" height="427.43" rx="8.83"></rect><rect class="cls-13" x="1056.99" y="133.01" width="185.81" height="362.28" rx="8.83"></rect><rect class="cls-14" x="1066.36" y="148.51" width="75.87" height="5.85" rx="2.92"></rect><rect class="cls-14" x="1066.36" y="225.79" width="75.87" height="5.85" rx="2.92"></rect><rect class="cls-15" x="1066.36" y="159.55" width="136.39" height="5.85" rx="2.92"></rect><rect class="cls-16" x="1120.96" y="170.59" width="61.94" height="5.85" rx="2.92"></rect><rect class="cls-17" x="1066.05" y="170.59" width="52.65" height="5.85" rx="2.92"></rect><rect class="cls-16" x="1066.36" y="181.63" width="81.29" height="5.85" rx="2.92"></rect><rect class="cls-16" x="1066.36" y="192.68" width="50.3" height="5.85" rx="2.92"></rect><rect class="cls-16" x="1150.17" y="192.68" width="50.3" height="5.85" rx="2.92"></rect><rect class="cls-14" x="1120.3" y="192.68" width="25.94" height="5.85" rx="2.92"></rect><rect class="cls-16" x="1066.36" y="203.72" width="127.77" height="5.85" rx="2.92"></rect><rect class="cls-16" x="1066.36" y="238.17" width="81.29" height="5.85" rx="2.92"></rect><rect class="cls-15" x="1066.36" y="274.66" width="81.29" height="5.85" rx="2.92"></rect><rect class="cls-16" x="1066.36" y="251.05" width="127.77" height="5.85" rx="2.92"></rect><rect class="cls-16" x="1066.36" y="263.51" width="103.35" height="5.85" rx="2.92"></rect><rect class="cls-14" x="1066.36" y="298.87" width="75.87" height="5.85" rx="2.92"></rect><rect class="cls-14" x="1066.36" y="376.16" width="75.87" height="5.85" rx="2.92"></rect><rect class="cls-15" x="1066.36" y="309.92" width="136.39" height="5.85" rx="2.92"></rect><rect class="cls-16" x="1120.96" y="320.96" width="61.94" height="5.85" rx="2.92"></rect><rect class="cls-14" x="1066.05" y="320.96" width="52.65" height="5.85" rx="2.92"></rect><rect class="cls-16" x="1066.36" y="332" width="153.92" height="5.85" rx="2.92"></rect><rect class="cls-16" x="1066.36" y="343.04" width="50.3" height="5.85" rx="2.92"></rect><rect class="cls-14" x="1120.3" y="343.04" width="85" height="5.85" rx="2.92"></rect><rect class="cls-16" x="1066.36" y="354.09" width="127.77" height="5.85" rx="2.92"></rect><rect class="cls-16" x="1066.36" y="388.54" width="81.29" height="5.85" rx="2.92"></rect><rect class="cls-15" x="1066.36" y="425.03" width="81.29" height="5.85" rx="2.92"></rect><rect class="cls-16" x="1066.36" y="401.42" width="127.77" height="5.85" rx="2.92"></rect><rect class="cls-16" x="1066.36" y="413.88" width="103.35" height="5.85" rx="2.92"></rect><circle class="cls-18" cx="1237.84" cy="106.07" r="4.88"></circle><circle class="cls-19" cx="1222.82" cy="106.07" r="4.88"></circle><circle class="cls-14" cx="1207.8" cy="106.07" r="4.88"></circle><rect class="cls-16" x="1017.4" y="97.57" width="172.75" height="22.12" rx="10.23"></rect><text class="cls-20" transform="translate(1023.73 114.38) scale(0.92 1)">&lt;/&gt;</text><rect class="cls-15" x="1024.15" y="130.87" width="25.46" height="183.36" rx="12.16"></rect><rect class="cls-21" x="0.19" y="0.2" width="887.1" height="871"></rect><rect class="cls-22" x="939.19" y="516.2" width="318.01" height="5"></rect><rect class="cls-23" x="979.28" y="77.2" width="277.91" height="5"></rect><rect class="cls-24" x="978.19" y="88.2" width="277.91" height="5"></rect><rect class="cls-25" x="976.19" y="529.2" width="277.91" height="5"></rect><polygon class="cls-26" points="374.36 446.27 352.77 446.27 327.34 471.7 352.77 497.13 374.36 497.13 356.42 479.2 756.21 479.2 756.21 464.2 356.42 464.2 374.36 446.27"></polygon><path class="cls-26" d="M521.83,561.75v45.89a25.59,25.59,0,0,1-25.56,25.56H356.36l17.94-17.93H352.71L327.28,640.7l25.43,25.43H374.3L356.36,648.2H496.27a40.61,40.61,0,0,0,40.56-40.56V561.75a25.58,25.58,0,0,1,25.55-25.55H707.69v-15H562.38A40.6,40.6,0,0,0,521.83,561.75Z"></path><polygon class="cls-26" points="359.42 369.2 377.36 351.27 355.77 351.27 330.34 376.7 355.77 402.13 377.36 402.13 359.42 384.2 759.21 384.2 759.21 369.2 359.42 369.2"></polygon><path class="cls-26" d="M374.3,219.13,356.36,201.2H484.27a25.59,25.59,0,0,1,25.56,25.55v45.89a40.6,40.6,0,0,0,40.55,40.56h151v-15h-151a25.59,25.59,0,0,1-25.55-25.56V226.75a40.6,40.6,0,0,0-40.56-40.55H356.36l17.94-17.93H352.71L327.28,193.7l25.43,25.43Z"></path><g class="cls-27"><polygon class="cls-28" points="329.46 471.82 325.22 467.58 351.52 441.27 381.6 441.27 363.66 459.2 756.21 459.2 756.21 465.2 349.17 465.2 367.11 447.27 354.01 447.27 329.46 471.82"></polygon></g><g class="cls-27"><polygon class="cls-29" points="333.17 377.52 327.51 371.87 354.11 345.27 387.02 345.27 369.08 363.2 759.21 363.2 759.21 371.2 349.76 371.2 367.7 353.27 357.42 353.27 333.17 377.52"></polygon></g><path class="cls-30" d="M701.33,304.7h-151a29.09,29.09,0,0,1-29-29.06V224.75a37.1,37.1,0,0,0-37.06-37.05H347.91l17.94-17.93H354.16l-24.4,24.4-4.95-4.95,26.45-26.45h31.5L364.82,180.7H484.27a44.11,44.11,0,0,1,44.06,44.05v50.89a22.08,22.08,0,0,0,22,22.06h151Z"></path><rect class="cls-31" x="248.12" y="176.84" width="66.78" height="53.71" rx="10.17"></rect><rect class="cls-31" x="244.12" y="176.84" width="66.78" height="53.71" rx="10.17"></rect><text class="cls-32" transform="translate(249.63 218.18)">&gt;_</text><path class="cls-31" d="M309.86,336.43c-.41-.37-.82-.73-1.25-1.06a22.06,22.06,0,0,0-35,23.15c-8.57,8.93-28.38,31.5-28.38,31.5l.27,6.25.1,2.35,7.9-.33-.23-5.47,7.74-.33-.33-7.82,7.83-.33-.33-7.82,2.25-2.45,2.44,2.25,2.45,2.25,7.08-7.7a22.07,22.07,0,0,0,27.42-34.44ZM294.47,339a5,5,0,0,1-6.75,7.33,5.06,5.06,0,0,1-1-1.34,5,5,0,0,1,6.36-6.9A4.91,4.91,0,0,1,294.47,339Z"></path><path class="cls-31" d="M308.61,335.37a16.7,16.7,0,0,0-1.19-1.19,22.07,22.07,0,0,0-36.22,22.09c-8.56,8.93-28.37,31.5-28.37,31.5l.36,8.6,2.35-.1,5.55-.23-.23-5.47,7.75-.33-.33-7.82,7.82-.33-.33-7.82,2.25-2.45,2.45,2.25,2.44,2.25,7.09-7.7a22.06,22.06,0,0,0,28.61-33.25Zm-23.33,8.69a5,5,0,1,1,6.74-7.33,4.86,4.86,0,0,1,1,1.34,5,5,0,0,1-7.77,6Z"></path><circle class="cls-31" cx="272.33" cy="471.7" r="33.32"></circle><ellipse class="cls-31" cx="272.33" cy="471.7" rx="16.18" ry="33.32"></ellipse><ellipse class="cls-2" cx="272.33" cy="471.7" rx="33.32" ry="16.18"></ellipse><line class="cls-2" x1="239.01" y1="471.7" x2="305.53" y2="471.7"></line><line class="cls-2" x1="272.33" y1="505.01" x2="272.33" y2="438.38"></line><path class="cls-31" d="M308,639.59l0-2.08a2.79,2.79,0,0,0-2.36-2.69l-2.26-.34-2.27-.34a2.78,2.78,0,0,1-2-1.31l-3.19-5.31-3.19-5.3a2.71,2.71,0,0,1-.39-1.16,2.9,2.9,0,0,1,.15-1.2l.78-2.17.78-2.17a2.79,2.79,0,0,0-1.26-3.35l-1.82-1-1.81-1a11.28,11.28,0,0,0-3.14-.25c-.59,0-1.16,0-1.62,0s-1,0-1,0v5.51l-7.56.07-7.55.07a2.81,2.81,0,0,1-.65-.06h0a3.13,3.13,0,0,1-.54-.19,2.79,2.79,0,0,1-1-.74l-1.5-1.78-1.5-1.79a2.8,2.8,0,0,0-1.24-.84,2.72,2.72,0,0,0-1.47-.08l-1.73.68-1.73.68-3.47,1.36v8l1.09-1.36,1.08-1.36.37,1,.38,1a2.8,2.8,0,0,1,.17,1.18,2.7,2.7,0,0,1-.34,1.14l-3.15,5.68-3.15,5.67a2.8,2.8,0,0,1-.8.91,2.75,2.75,0,0,1-1.11.47l-2.24.43-2.25.42a2.76,2.76,0,0,0-2.25,2.77l0,2.08,0,2.07a2.77,2.77,0,0,0,2.36,2.69l2.27.34,2.27.34a3,3,0,0,1,1.12.44,2.83,2.83,0,0,1,.84.88l3.19,5.3,3.19,5.31a2.77,2.77,0,0,1,.23,2.36l-.3.83-.3.84h2.06v8l.42,0c.43,0,1.17.06,1.95,0,1.24,0,2.59-.17,3-.7l2.86-3.52a2.72,2.72,0,0,1,2.1-1l7.73-.07h1.39l6.35-.06v5.55l1.94-.05,1.95,0a2.6,2.6,0,0,0,.88,0,3,3,0,0,0,.84-.32l1.8-1.06,1.8-1.05a2.78,2.78,0,0,0,1.19-3.37l-.79-2.09-.8-2.09a2.85,2.85,0,0,1-.17-1.19A2.94,2.94,0,0,1,293,658l3.15-5.67,3.16-5.68a2.67,2.67,0,0,1,.8-.9,2.58,2.58,0,0,1,1.1-.47l2.25-.43,2.24-.42a2.78,2.78,0,0,0,2.26-2.77Zm-25.14,8.54a11.32,11.32,0,0,1-8.22,3.48,11.83,11.83,0,0,1-2.08-.19,11.41,11.41,0,0,1,0-22.43,11.4,11.4,0,0,1,10.29,19.14Z"></path><path class="cls-31" d="M303.76,639.59l0-2.08a2.72,2.72,0,0,0-.68-1.77,2.76,2.76,0,0,0-1.67-.92l-2.27-.34-2.27-.34a2.7,2.7,0,0,1-1.13-.44,2.76,2.76,0,0,1-.83-.87l-3.19-5.31-3.19-5.3a2.84,2.84,0,0,1-.38-1.16,2.74,2.74,0,0,1,.15-1.2l.77-2.17.78-2.17a2.76,2.76,0,0,0,0-1.9,2.8,2.8,0,0,0-1.25-1.45l-1.81-1-1.82-1a2.45,2.45,0,0,0-.56-.23,2.69,2.69,0,0,0-1.32-.08,2.76,2.76,0,0,0-1.62,1L280,612.58l-1.43,1.76a2.74,2.74,0,0,1-.94.75,2.87,2.87,0,0,1-1.16.28l-6.2.1-2.65,0h0l-3.54.06a2.68,2.68,0,0,1-1.19-.25,2.74,2.74,0,0,1-1-.74l-1.5-1.78-1.5-1.79a1.36,1.36,0,0,0-.24-.24,2.72,2.72,0,0,0-1.4-.71,2.85,2.85,0,0,0-1.88.34l-1.79,1.05-1.8,1.06a2.77,2.77,0,0,0-1.19,3.37l.79,2.09.79,2.09a2.81,2.81,0,0,1,.18,1.18,2.85,2.85,0,0,1-.34,1.14l-3.15,5.68-3.16,5.68a2.87,2.87,0,0,1-.8.9,2.7,2.7,0,0,1-1.1.47l-2.25.43-2.24.42a2.74,2.74,0,0,0-1.64,1,2.77,2.77,0,0,0-.62,1.8l0,2.08,0,2.07a2.81,2.81,0,0,0,.69,1.78,2.77,2.77,0,0,0,1.67.91l2.27.34,2.27.34a3,3,0,0,1,1.13.44,2.8,2.8,0,0,1,.83.88l3.19,5.3,3.19,5.31a2.66,2.66,0,0,1,.38,1.15,2.78,2.78,0,0,1-.14,1.21l-.78,2.16-.78,2.17a2.78,2.78,0,0,0,1.26,3.35l1.81,1,1.82,1a2.76,2.76,0,0,0,1.88.3,2.71,2.71,0,0,0,.86-.32,3,3,0,0,0,.77-.66l1.42-1.76,1.43-1.76a2.72,2.72,0,0,1,.94-.75,2.59,2.59,0,0,1,1.17-.28l6.19-.11,6.2-.11a2.79,2.79,0,0,1,.91.14h0l.28.11a2.7,2.7,0,0,1,1,.75l1.5,1.78,1.5,1.78a2.74,2.74,0,0,0,1.65,1,2.28,2.28,0,0,0,.45,0,2.72,2.72,0,0,0,1.42-.37l1.79-1.06,1.8-1.05a2.78,2.78,0,0,0,1.22-1.47,2.82,2.82,0,0,0,0-1.9l-.8-2.09-.79-2.09a2.69,2.69,0,0,1-.17-1.19,2.64,2.64,0,0,1,.34-1.14l3.15-5.67,3.15-5.68a2.67,2.67,0,0,1,.8-.9,2.61,2.61,0,0,1,1.11-.47l2.24-.43,2.25-.42a2.76,2.76,0,0,0,1.63-1,2.71,2.71,0,0,0,.62-1.79Zm-33.36,12a11.41,11.41,0,0,1,0-22.81,12,12,0,0,1,2.09.19,11.41,11.41,0,0,1-2.13,22.62Z"></path><g class="cls-33"><path class="cls-34" d="M505.55,123.76c.13,4.44.22,8.87.3,13.31s.2,8.86.24,13.3l.31,26.6.11,26.6,0,13.31-.06,13.3v.94h-.94l-19-.08c-6.35,0-12.69-.12-19-.18s-12.69-.12-19-.27-12.69-.22-19-.41c6.34-.19,12.69-.29,19-.42s12.69-.17,19-.26,12.68-.19,19-.19l19-.07-.94.94-.05-13.3,0-13.31.1-26.6.31-26.6c0-4.44.16-8.87.24-13.3S505.42,128.2,505.55,123.76Z"></path><polygon class="cls-34" points="581.68 123.76 582.05 150.37 582.3 176.97 582.51 203.57 582.59 230.18 582.59 231.08 581.68 231.08 543.62 231.18 505.55 231.08 504.64 231.08 504.65 230.18 504.73 203.57 504.93 176.97 505.18 150.37 505.55 123.76 505.92 150.37 506.18 176.97 506.38 203.57 506.46 230.18 505.55 229.27 543.62 229.18 581.68 229.27 580.78 230.18 580.86 203.57 581.06 176.97 581.31 150.37 581.68 123.76"></polygon><polygon class="cls-34" points="657.82 123.76 658.18 150.37 658.44 176.97 658.64 203.57 658.72 230.18 658.72 231.08 657.82 231.08 619.75 231.18 581.68 231.08 580.78 231.08 580.78 230.18 580.86 203.57 581.06 176.97 581.31 150.37 581.68 123.76 582.05 150.37 582.31 176.97 582.51 203.57 582.59 230.18 581.68 229.27 619.75 229.18 657.82 229.27 656.91 230.18 656.99 203.57 657.19 176.97 657.45 150.37 657.82 123.76"></polygon><polygon class="cls-34" points="733.95 123.76 734.32 150.37 734.57 176.97 734.77 203.57 734.85 230.18 734.85 231.08 733.95 231.08 695.88 231.18 657.82 231.08 656.91 231.08 656.91 230.18 656.99 203.57 657.19 176.97 657.44 150.37 657.82 123.76 658.19 150.37 658.44 176.97 658.64 203.57 658.72 230.18 657.82 229.27 695.88 229.18 733.95 229.27 733.04 230.18 733.12 203.57 733.33 176.97 733.58 150.37 733.95 123.76"></polygon><polygon class="cls-34" points="810.08 123.76 810.45 150.37 810.7 176.97 810.9 203.57 810.98 230.18 810.98 231.08 810.08 231.08 772.01 231.18 733.95 231.08 733.04 231.08 733.04 230.18 733.12 203.57 733.32 176.97 733.58 150.37 733.95 123.76 734.32 150.37 734.57 176.97 734.77 203.57 734.85 230.18 733.95 229.27 772.01 229.18 810.08 229.27 809.17 230.18 809.25 203.57 809.46 176.97 809.71 150.37 810.08 123.76"></polygon><polygon class="cls-34" points="886.21 123.76 886.58 150.37 886.83 176.97 887.03 203.57 887.11 230.18 887.12 231.08 886.21 231.08 848.14 231.18 810.08 231.08 809.17 231.08 809.17 230.18 809.25 203.57 809.45 176.97 809.71 150.37 810.08 123.76 810.45 150.37 810.7 176.97 810.9 203.57 810.98 230.18 810.08 229.27 848.14 229.18 886.21 229.27 885.31 230.18 885.39 203.57 885.59 176.97 885.84 150.37 886.21 123.76"></polygon><path class="cls-34" d="M429.42,230.18l19-.31c6.35-.07,12.69-.2,19-.23l38.06-.31h.85v.86l.15,53.2-.15,53.21v.86h-.85l-38.06-.31c-6.35,0-12.69-.16-19-.23l-19-.31,19-.3c6.35-.08,12.69-.2,19-.24l38.06-.31-.85.85-.15-53.21.15-53.2.85.85-38.06-.31c-6.35,0-12.69-.16-19-.24Z"></path><path class="cls-34" d="M505.55,230.18l37.91-.38c12.69-.16,25.46-.21,38.22-.3h.67v.68l.16,26.6.06,26.6.1,53.21v1h-1l-76.13-.15h-.85v-.85l.35-53.41Zm0,0,.5,53.41.35,53-.85-.85,76.13-.15-1,1,.11-53.21.06-26.6.16-26.6.67.67c-12.61-.09-25.22-.13-37.9-.29Z"></path><path class="cls-34" d="M581.68,230.18l37.91-.38c12.69-.16,25.46-.21,38.22-.3h.68v.68l.16,26.6.06,26.6.1,53.21v1h-1l-76.13-.15h-.85v-.85l.35-53.41Zm0,0,.5,53.41.35,53-.85-.85,76.13-.15-1,1,.1-53.21.06-26.6.16-26.6.67.67c-12.61-.09-25.22-.13-37.9-.29Z"></path><path class="cls-34" d="M657.82,230.18l37.9-.38c12.69-.16,25.46-.21,38.23-.3h.67v.68l.16,26.6.06,26.6.11,53.21v1h-1l-76.13-.15H657v-.85l.35-53.41Zm0,0,.49,53.41.35,53-.84-.85,76.13-.15-1,1,.1-53.21.06-26.6.16-26.6.68.67c-12.62-.09-25.22-.13-37.91-.29Z"></path><path class="cls-34" d="M734,230.18l37.9-.38c12.69-.16,25.47-.21,38.23-.3h.67v.68l.16,26.6.06,26.6.11,53.21v1h-1L734,337.44h-.86v-.85l.35-53.41Zm0,0,.5,53.41.35,53-.85-.85,76.13-.15-1,1,.1-53.21.06-26.6.16-26.6.68.67c-12.62-.09-25.22-.13-37.91-.29Z"></path><path class="cls-34" d="M810.08,230.18,848,229.8c12.69-.16,25.46-.21,38.22-.3h.67v.68l.16,26.6.06,26.6.11,53.21v1h-1l-76.13-.15h-.86v-.85l.35-53.41Zm0,0,.5,53.41.35,53-.85-.85,76.13-.15-1,1,.11-53.21.06-26.6.15-26.6.68.67c-12.62-.09-25.22-.13-37.91-.29Z"></path><path class="cls-34" d="M429.42,336.59l19-.3c6.35-.08,12.69-.2,19-.24l38.06-.31h.85v.86l.15,53.21L506.4,443v.85h-.85l-38.06-.31c-6.35,0-12.69-.16-19-.24l-19-.3,19-.31c6.35-.08,12.69-.2,19-.24l38.06-.31-.85.86-.15-53.21.15-53.21.85.85-38.06-.31c-6.35,0-12.69-.16-19-.23Z"></path><path class="cls-34" d="M505.55,336.59l37.91-.38c12.69-.16,25.46-.2,38.22-.29h.67v.68l.16,26.61.06,26.6.1,53.21v1h-1l-76.13-.14h-.85V443l.35-53.42Zm0,0,.5,53.42.35,53-.85-.85,76.13-.15-1,1,.11-53.21.06-26.6.16-26.61.67.68c-12.61-.09-25.22-.14-37.9-.3Z"></path><path class="cls-34" d="M581.68,336.59l37.91-.38c12.69-.16,25.46-.2,38.22-.29h.68v.68l.16,26.61.06,26.6.1,53.21v1h-1l-76.13-.14h-.85V443l.35-53.42Zm0,0,.5,53.42.35,53-.85-.85,76.13-.15-1,1,.1-53.21.06-26.6.16-26.61.67.68c-12.61-.09-25.22-.14-37.9-.3Z"></path><path class="cls-34" d="M657.82,336.59l37.9-.38c12.69-.16,25.46-.2,38.23-.29h.67v.68l.16,26.61.06,26.6L735,443v1h-1l-76.13-.14H657V443l.35-53.42Zm0,0,.49,53.42.35,53-.84-.85L734,442l-1,1,.1-53.21.06-26.6.16-26.61.68.68c-12.62-.09-25.22-.14-37.91-.3Z"></path><path class="cls-34" d="M734,336.59l37.9-.38c12.69-.16,25.47-.2,38.23-.29h.67v.68l.16,26.61.06,26.6.11,53.21v1h-1L734,443.86h-.86V443l.35-53.42Zm0,0,.5,53.42.35,53-.85-.85,76.13-.15-1,1,.1-53.21.06-26.6.16-26.61.68.68c-12.62-.09-25.22-.14-37.91-.3Z"></path><path class="cls-34" d="M810.08,336.59l37.91-.38c12.69-.16,25.46-.2,38.22-.29h.67v.68L887,363.2l.06,26.6.11,53.21v1h-1l-76.13-.14h-.86V443l.35-53.42Zm0,0,.5,53.42.35,53-.85-.85,76.13-.15-1,1,.11-53.21.06-26.6.15-26.61.68.68c-12.62-.09-25.22-.14-37.91-.3Z"></path><path class="cls-34" d="M429.42,443l19-.31c6.35-.07,12.69-.2,19-.23l38.06-.31h.85V443l.15,53.2-.15,53.21v.86h-.85L467.49,550c-6.35,0-12.69-.16-19-.24l-19-.3,19-.3c6.35-.08,12.69-.21,19-.24l38.06-.31-.85.85-.15-53.21.15-53.2.85.85-38.06-.31c-6.35,0-12.69-.16-19-.24Z"></path><path class="cls-34" d="M505.55,443l37.91-.39c12.69-.15,25.46-.2,38.22-.29h.67V443l.16,26.6.06,26.6.1,53.21v1h-1l-76.13-.15h-.85v-.85l.35-53.41Zm0,0,.5,53.41.35,53-.85-.85,76.13-.15-1,1,.11-53.21.06-26.6L581,443l.67.67c-12.61-.09-25.22-.14-37.9-.29Z"></path><path class="cls-34" d="M581.68,443l37.91-.39c12.69-.15,25.46-.2,38.22-.29h.68V443l.16,26.6.06,26.6.1,53.21v1h-1l-76.13-.15h-.85v-.85l.35-53.41Zm0,0,.5,53.41.35,53-.85-.85,76.13-.15-1,1,.1-53.21.06-26.6.16-26.6.67.67c-12.61-.09-25.22-.14-37.9-.29Z"></path><path class="cls-34" d="M657.82,443l37.9-.39c12.69-.15,25.46-.2,38.23-.29h.67V443l.16,26.6.06,26.6.11,53.21v1h-1l-76.13-.15H657v-.85l.35-53.41Zm0,0,.49,53.41.35,53-.84-.85,76.13-.15-1,1,.1-53.21.06-26.6.16-26.6.68.67c-12.62-.09-25.22-.14-37.91-.29Z"></path><path class="cls-34" d="M734,443l37.9-.39c12.69-.15,25.47-.2,38.23-.29h.67V443l.16,26.6.06,26.6.11,53.21v1h-1L734,550.27h-.86v-.85l.35-53.41Zm0,0,.5,53.41.35,53-.85-.85,76.13-.15-1,1,.1-53.21.06-26.6.16-26.6.68.67c-12.62-.09-25.22-.14-37.91-.29Z"></path><path class="cls-34" d="M810.08,443l37.91-.39c12.69-.15,25.46-.2,38.22-.29h.67V443l.16,26.6.06,26.6.11,53.21v1h-1l-76.13-.15h-.86v-.85l.35-53.41Zm0,0,.5,53.41.35,53-.85-.85,76.13-.15-1,1,.11-53.21.06-26.6.15-26.6.68.67c-12.62-.09-25.22-.14-37.91-.29Z"></path><path class="cls-34" d="M429.42,549.42l19-.3c6.35-.08,12.69-.2,19-.24l38.06-.31h.85v.86l.15,53.21-.15,53.2v.86h-.85l-38.06-.31c-6.35,0-12.69-.16-19-.24l-19-.31,19-.3c6.35-.08,12.69-.2,19-.24l38.06-.31-.85.85-.15-53.2.15-53.21.85.85L467.49,550c-6.35,0-12.69-.16-19-.24Z"></path><path class="cls-34" d="M505.55,549.42l37.91-.38c12.69-.16,25.46-.21,38.22-.29h.67v.68l.16,26.6.06,26.61.1,53.2v1h-1l-76.13-.15h-.85v-.85l.35-53.41Zm0,0,.5,53.41.35,53-.85-.85,76.13-.14-1,1,.11-53.2.06-26.61.16-26.6.67.68c-12.61-.09-25.22-.14-37.9-.3Z"></path><path class="cls-34" d="M581.68,549.42l37.91-.38c12.69-.16,25.46-.21,38.22-.29h.68v.68l.16,26.6.06,26.61.1,53.2v1h-1l-76.13-.15h-.85v-.85l.35-53.41Zm0,0,.5,53.41.35,53-.85-.85,76.13-.14-1,1,.1-53.2L657,576l.16-26.6.67.68c-12.61-.09-25.22-.14-37.9-.3Z"></path><path class="cls-34" d="M657.82,549.42l37.9-.38c12.69-.16,25.46-.21,38.23-.29h.67v.68l.16,26.6.06,26.61.11,53.2v1h-1l-76.13-.15H657v-.85l.35-53.41Zm0,0,.49,53.41.35,53-.84-.85,76.13-.14-1,1,.1-53.2.06-26.61.16-26.6.68.68c-12.62-.09-25.22-.14-37.91-.3Z"></path><path class="cls-34" d="M734,549.42l37.9-.38c12.69-.16,25.47-.21,38.23-.29h.67v.68l.16,26.6.06,26.61.11,53.2v1h-1L734,656.68h-.86v-.85l.35-53.41Zm0,0,.5,53.41.35,53L734,655l76.13-.14-1,1,.1-53.2.06-26.61.16-26.6.68.68c-12.62-.09-25.22-.14-37.91-.3Z"></path><path class="cls-34" d="M810.08,549.42,848,549c12.69-.16,25.46-.21,38.22-.29h.67v.68L887,576l.06,26.61.11,53.2v1h-1l-76.13-.15h-.86v-.85l.35-53.41Zm0,0,.5,53.41.35,53-.85-.85,76.13-.14-1,1,.11-53.2.06-26.61.15-26.6.68.68c-12.62-.09-25.22-.14-37.91-.3Z"></path><path class="cls-34" d="M429.42,655.83c6.34-.18,12.69-.28,19-.41s12.69-.17,19-.26,12.68-.19,19-.19l19-.07h.94v.94c0,8.87.08,17.74,0,26.61L506.4,709l-.31,26.6c0,4.44-.16,8.87-.24,13.31s-.17,8.86-.3,13.3c-.13-4.44-.22-8.87-.3-13.3s-.2-8.87-.24-13.31L504.7,709l-.1-26.6c-.07-8.87,0-17.74,0-26.61l.94.94-19-.07c-6.35,0-12.69-.13-19-.19s-12.69-.12-19-.26S435.76,656,429.42,655.83Z"></path><polygon class="cls-34" points="505.55 762.25 505.18 735.64 504.93 709.04 504.73 682.44 504.65 655.83 504.65 654.93 505.55 654.93 543.62 654.84 581.68 654.93 582.59 654.93 582.59 655.83 582.51 682.44 582.31 709.04 582.05 735.64 581.68 762.25 581.31 735.64 581.06 709.04 580.86 682.44 580.78 655.83 581.68 656.74 543.62 656.83 505.55 656.74 506.45 655.83 506.38 682.44 506.17 709.04 505.92 735.64 505.55 762.25"></polygon><polygon class="cls-34" points="581.68 762.25 581.31 735.64 581.06 709.04 580.86 682.44 580.78 655.83 580.78 654.93 581.68 654.93 619.75 654.84 657.82 654.93 658.72 654.93 658.72 655.83 658.64 682.44 658.44 709.04 658.19 735.64 657.82 762.25 657.44 735.64 657.19 709.04 656.99 682.44 656.91 655.83 657.82 656.74 619.75 656.83 581.68 656.74 582.59 655.83 582.51 682.44 582.3 709.04 582.05 735.64 581.68 762.25"></polygon><polygon class="cls-34" points="657.82 762.25 657.45 735.64 657.19 709.04 656.99 682.44 656.91 655.83 656.91 654.93 657.82 654.93 695.88 654.84 733.95 654.93 734.85 654.93 734.85 655.83 734.77 682.44 734.57 709.04 734.32 735.64 733.95 762.25 733.58 735.64 733.32 709.04 733.12 682.44 733.04 655.83 733.95 656.74 695.88 656.83 657.82 656.74 658.72 655.83 658.64 682.44 658.44 709.04 658.18 735.64 657.82 762.25"></polygon><polygon class="cls-34" points="733.95 762.25 733.58 735.64 733.33 709.04 733.12 682.44 733.04 655.83 733.04 654.93 733.95 654.93 772.01 654.84 810.08 654.93 810.99 654.93 810.98 655.83 810.9 682.44 810.7 709.04 810.45 735.64 810.08 762.25 809.71 735.64 809.45 709.04 809.25 682.44 809.17 655.83 810.08 656.74 772.01 656.83 733.95 656.74 734.85 655.83 734.77 682.44 734.57 709.04 734.32 735.64 733.95 762.25"></polygon><polygon class="cls-34" points="810.08 762.25 809.71 735.64 809.46 709.04 809.25 682.44 809.17 655.83 809.17 654.93 810.08 654.93 848.14 654.84 886.21 654.93 887.12 654.93 887.12 655.83 887.04 682.44 886.83 709.04 886.58 735.64 886.21 762.25 885.84 735.64 885.59 709.04 885.38 682.44 885.3 655.83 886.21 656.74 848.14 656.83 810.08 656.74 810.98 655.83 810.9 682.44 810.7 709.04 810.45 735.64 810.08 762.25"></polygon></g><g class="cls-35"><path class="cls-36" d="M614.67,607.4v12.69c0,1.38,1.05,2.34,3,2.5a4.29,4.29,0,0,0,.63,0h526.2a4.5,4.5,0,0,0,.64,0,3.21,3.21,0,0,0,2.8-1.46V607.4Z"></path><path class="cls-37" d="M618.35,609.72h526.18c3.82,0,4.82-2.57,2.28-5.68l-81.73-100.3c-1.19-1.47-4.23-2.65-6.79-2.65H704.6c-2.57,0-5.6,1.18-6.8,2.65L616.07,604C613.53,607.15,614.53,609.72,618.35,609.72Z"></path><path class="cls-38" d="M650.17,582.6H818.09l5.1-17A4,4,0,0,1,827,562.7H935.49a4,4,0,0,1,3.83,2.86l5.1,17h169l-58.81-72.17H709Z"></path><path class="cls-38" d="M650.17,582.6H818.09l5.1-17A4,4,0,0,1,827,562.7H935.49a4,4,0,0,1,3.83,2.86l5.1,17h169l-58.81-72.17H709Z"></path><rect class="cls-36" x="699.95" y="261.89" width="362.98" height="240.72" rx="6.12" transform="translate(1762.88 764.51) rotate(-180)"></rect><rect class="cls-10" x="718.18" y="280.12" width="326.53" height="204.27"></rect><rect class="cls-10" x="718.18" y="280.12" width="326.53" height="204.27"></rect><path class="cls-39" d="M817.3,605.51H945.21a4,4,0,0,0,3.84-5.14l-4.63-15.49-5.1-17a4,4,0,0,0-3.83-2.85H827a4,4,0,0,0-3.84,2.85l-5.1,17-4.63,15.49A4,4,0,0,0,817.3,605.51Z"></path><g class="cls-7"><rect class="cls-40" x="794.96" y="374.77" width="17.47" height="4"></rect><g class="cls-7"><g class="cls-41"><g class="cls-7"><path class="cls-40" d="M795,374.77h17.47a4.92,4.92,0,0,1,.67-2.72,10,10,0,0,1,2.33-2.33H798a9.87,9.87,0,0,0-2.34,2.33,4.92,4.92,0,0,0-.67,2.72"></path></g></g></g><g class="cls-7"><g class="cls-42"><g class="cls-7"><path class="cls-43" d="M798,383.69h17.47a11.91,11.91,0,0,1-1.5-1.31H796.47a11.91,11.91,0,0,0,1.5,1.31"></path><path class="cls-44" d="M796.47,382.38h17.47a6.79,6.79,0,0,1-.84-1,3.15,3.15,0,0,1-.28-.51H795.35a3.15,3.15,0,0,0,.28.51,6.79,6.79,0,0,0,.84,1"></path><path class="cls-40" d="M795.35,380.84h17.47a5.06,5.06,0,0,1-.39-2.07H795a5.06,5.06,0,0,0,.39,2.07"></path></g></g></g><polygon class="cls-45" points="797.97 369.72 815.43 369.72 856.55 338.12 839.08 338.12 797.97 369.72"></polygon><polygon class="cls-46" points="839.14 415.34 856.61 415.34 815.44 383.69 797.97 383.69 839.14 415.34"></polygon><polygon class="cls-47" points="839.4 395.93 856.87 395.93 831.29 376.7 813.82 376.7 839.4 395.93"></polygon><polygon class="cls-48" points="813.82 376.7 831.29 376.7 856.89 357.59 839.42 357.59 813.82 376.7"></polygon><g class="cls-7"><g class="cls-49"><g class="cls-7"><path class="cls-40" d="M839.08,338.12h17.47c.28-.16.59-.33.91-.48H840c-.32.15-.62.32-.91.48"></path></g></g></g><polygon class="cls-46" points="840.12 394.64 857.58 394.64 833.72 376.7 816.25 376.7 840.12 394.64"></polygon><polygon class="cls-45" points="816.25 376.7 833.72 376.7 857.61 358.88 840.14 358.88 816.25 376.7"></polygon><g class="cls-7"><g class="cls-50"><g class="cls-7"><path class="cls-40" d="M840,337.64h17.47a1.47,1.47,0,0,1,.69-.19H840.68a1.5,1.5,0,0,0-.69.19"></path></g></g></g><g class="cls-7"><g class="cls-51"><g class="cls-7"><path class="cls-43" d="M840.73,416.1H858.2a1.62,1.62,0,0,1-.74-.2,4.62,4.62,0,0,1-.85-.56H839.14a4.62,4.62,0,0,0,.85.56,1.62,1.62,0,0,0,.74.2"></path></g></g></g><g class="cls-7"><g class="cls-52"><g class="cls-7"><path class="cls-53" d="M839.42,357.59h17.47a12,12,0,0,0,2.05-1.77,3.65,3.65,0,0,0,.82-2.61H842.29a3.65,3.65,0,0,1-.82,2.61,12,12,0,0,1-2.05,1.77"></path></g></g></g><g class="cls-7"><g class="cls-54"><g class="cls-7"><path class="cls-53" d="M839.42,357.59h17.47a12,12,0,0,0,2.05-1.77,3.65,3.65,0,0,0,.82-2.61H842.29a3.65,3.65,0,0,1-.82,2.61,12,12,0,0,1-2.05,1.77"></path></g></g></g><g class="cls-7"><g class="cls-55"><g class="cls-7"><path class="cls-53" d="M840.73,416.1H858.2a1.41,1.41,0,0,0,1.07-.56,2,2,0,0,0,.49-1.4H842.29a2,2,0,0,1-.49,1.4,1.41,1.41,0,0,1-1.07.56"></path></g></g></g><rect class="cls-56" x="842.29" y="400.33" width="17.47" height="13.81"></rect><g class="cls-7"><g class="cls-57"><g class="cls-7"><path class="cls-53" d="M842.29,400.33h17.47a4.9,4.9,0,0,0-.35-2H841.94a4.9,4.9,0,0,1,.35,2"></path><path class="cls-58" d="M841.94,398.34h17.47a2.3,2.3,0,0,0-.43-.65H841.51a2.3,2.3,0,0,1,.43.65"></path><path class="cls-59" d="M841.51,397.69H859l0,0a13.69,13.69,0,0,0-2.09-1.74H839.4a13.69,13.69,0,0,1,2.09,1.74l0,0"></path></g></g></g><g class="cls-7"><g class="cls-60"><g class="cls-7"><path class="cls-53" d="M839.42,357.59h17.47a12,12,0,0,0,2.05-1.77,3.65,3.65,0,0,0,.82-2.61H842.29a3.65,3.65,0,0,1-.82,2.61,12,12,0,0,1-2.05,1.77"></path></g></g></g><rect class="cls-56" x="842.29" y="339.26" width="17.47" height="13.94"></rect><g class="cls-7"><g class="cls-61"><g class="cls-7"><path class="cls-53" d="M842.29,339.26h17.47a2.09,2.09,0,0,0-.17-.86H842.13a2.1,2.1,0,0,1,.16.86"></path><path class="cls-58" d="M842.13,338.4h17.46a1.43,1.43,0,0,0-.3-.44H841.82a1.67,1.67,0,0,1,.31.44"></path><path class="cls-59" d="M841.81,338h17.47a1.51,1.51,0,0,0-1.13-.5H840.68a1.51,1.51,0,0,1,1.13.5"></path></g></g></g><path class="cls-62" d="M840.68,337.45a1.5,1.5,0,0,0-.69.19c-.32.15-.62.32-.91.48L798,369.72a10,10,0,0,0-2.33,2.33,4.92,4.92,0,0,0-.67,2.72v4a4.58,4.58,0,0,0,.67,2.58,9.89,9.89,0,0,0,2.34,2.34l41.17,31.65a4.62,4.62,0,0,0,.85.56,1.62,1.62,0,0,0,.74.2,1.41,1.41,0,0,0,1.07-.56,2,2,0,0,0,.49-1.4V400.33a3.69,3.69,0,0,0-.8-2.66,13.69,13.69,0,0,0-2.09-1.74L813.82,376.7l25.6-19.11a12,12,0,0,0,2.05-1.77,3.65,3.65,0,0,0,.82-2.61V339.26a1.75,1.75,0,0,0-.47-1.3A1.49,1.49,0,0,0,840.68,337.45Z"></path><g class="cls-7"><g class="cls-63"><g class="cls-7"><path class="cls-40" d="M840.68,417.61h17.47a2.69,2.69,0,0,0,2.07-1,3.63,3.63,0,0,0,.88-2.47H843.63a3.63,3.63,0,0,1-.88,2.47,2.66,2.66,0,0,1-2.07,1"></path></g></g></g><rect class="cls-40" x="843.63" y="400.33" width="17.47" height="13.81"></rect><g class="cls-7"><g class="cls-64"><g class="cls-7"><path class="cls-40" d="M843.63,400.33H861.1a6.6,6.6,0,0,0-.49-2.67H843.14a6.6,6.6,0,0,1,.49,2.67"></path><path class="cls-44" d="M843.14,397.66h17.47a3.65,3.65,0,0,0-.73-1.09H842.41a3.65,3.65,0,0,1,.73,1.09"></path><path class="cls-43" d="M842.41,396.57h17.47l0,0a16.61,16.61,0,0,0-2.27-1.89H840.11a15.48,15.48,0,0,1,2.27,1.89l0,0"></path></g></g></g><g class="cls-7"><g class="cls-65"><g class="cls-7"><path class="cls-40" d="M840.14,358.88h17.47a13.5,13.5,0,0,0,2.25-2,5.23,5.23,0,0,0,1.24-3.71H843.63a5.27,5.27,0,0,1-1.23,3.71,14,14,0,0,1-2.26,2"></path></g></g></g><rect class="cls-40" x="843.63" y="339.26" width="17.47" height="13.94"></rect><path class="cls-66" d="M797.22,368.46l41.22-31.68c.32-.18.65-.35,1-.53a2.9,2.9,0,0,1,1.31-.34,2.74,2.74,0,0,1,2,.93,3.38,3.38,0,0,1,.9,2.42v13.95a5.27,5.27,0,0,1-1.23,3.71,14,14,0,0,1-2.26,2L816.25,376.7l23.86,17.94a15.48,15.48,0,0,1,2.27,1.89,5.22,5.22,0,0,1,1.25,3.8v13.81a3.63,3.63,0,0,1-.88,2.47,2.59,2.59,0,0,1-3.31.67,4.92,4.92,0,0,1-1.08-.71L797.22,385a10.9,10.9,0,0,1-2.67-2.7,6.25,6.25,0,0,1-.93-3.48v-4a6.53,6.53,0,0,1,.93-3.62A11,11,0,0,1,797.22,368.46ZM795,378.77a4.58,4.58,0,0,0,.67,2.58,9.89,9.89,0,0,0,2.34,2.34l41.17,31.65a4.62,4.62,0,0,0,.85.56,1.62,1.62,0,0,0,.74.2,1.41,1.41,0,0,0,1.07-.56,2,2,0,0,0,.49-1.4V400.33a3.69,3.69,0,0,0-.8-2.66,13.69,13.69,0,0,0-2.09-1.74L813.82,376.7l25.6-19.11a12,12,0,0,0,2.05-1.77,3.65,3.65,0,0,0,.82-2.61V339.26a1.75,1.75,0,0,0-.47-1.3,1.46,1.46,0,0,0-1.83-.32c-.32.15-.62.32-.91.48L798,369.72a9.87,9.87,0,0,0-2.34,2.33,4.92,4.92,0,0,0-.67,2.72v4Z"></path><g class="cls-7"><g class="cls-67"><g class="cls-7"><path class="cls-40" d="M843.63,339.26H861.1a3.86,3.86,0,0,0-.31-1.55H843.32a3.86,3.86,0,0,1,.31,1.55"></path><path class="cls-44" d="M843.32,337.71h17.47a3.19,3.19,0,0,0-.59-.87H842.73a3.19,3.19,0,0,1,.59.87"></path><path class="cls-43" d="M842.72,336.83h17.47a2.73,2.73,0,0,0-2-.92H840.75a2.73,2.73,0,0,1,2,.92"></path></g></g></g></g><g class="cls-7"><g class="cls-7"><g class="cls-68"><g class="cls-7"><path class="cls-40" d="M853.26,324.26h17.47a3.93,3.93,0,0,1-.17-1,2,2,0,0,1,.55-1.34,1.53,1.53,0,0,1,1.17-.61H854.81a1.55,1.55,0,0,0-1.17.61,2,2,0,0,0-.55,1.34,3.93,3.93,0,0,0,.17,1"></path></g></g></g><path class="cls-69" d="M851.75,323.26a5.37,5.37,0,0,0,.26,1.53L890.88,430a5.9,5.9,0,0,0,1.36,2.28,4.15,4.15,0,0,0,3.26,1.32H923a2.94,2.94,0,0,0,2.25-1.06,3.58,3.58,0,0,0,.93-2.41,3.71,3.71,0,0,0-.07-.67s0-.06,0-.09a3.33,3.33,0,0,0-.21-.63s0-.05,0-.07l-.09-.18L887.26,323.35l0-.08c0-.1-.1-.2-.15-.3s-.07-.16-.12-.24a4.05,4.05,0,0,0-.21-.35c0-.08-.09-.15-.13-.22l-.27-.38-.14-.18c-.14-.19-.29-.37-.45-.56l-.1-.11a3.5,3.5,0,0,0-.3-.24,1.86,1.86,0,0,0-.27-.22,2.93,2.93,0,0,0-.43-.23,2.8,2.8,0,0,0-.3-.15,3.29,3.29,0,0,0-.56-.15,2.45,2.45,0,0,0-.29-.08,5.86,5.86,0,0,0-1-.07H854.81a2.83,2.83,0,0,0-2.13,1.06A3.58,3.58,0,0,0,851.75,323.26Zm1.34,0a2,2,0,0,1,.55-1.34,1.55,1.55,0,0,1,1.17-.61h10.26a5.27,5.27,0,0,1,.71.05l.2.05a2.73,2.73,0,0,1,.41.1,1.76,1.76,0,0,1,.2.09,2.23,2.23,0,0,1,.31.15l.18.14c.08.08.18.14.26.23s.26.3.38.46l.11.16.22.3.11.19c.06.09.12.18.17.27l.1.2a2.59,2.59,0,0,1,.14.29l.1.27H853.26A3.93,3.93,0,0,1,853.09,323.26Z"></path><path class="cls-70" d="M854.81,321.31a1.55,1.55,0,0,0-1.17.61,2,2,0,0,0-.55,1.34,3.93,3.93,0,0,0,.17,1l38.88,105.21a4.32,4.32,0,0,0,1.05,1.76,2.93,2.93,0,0,0,2.31.87h10a1.66,1.66,0,0,0,1.3-.62,2,2,0,0,0,.54-1.33,2,2,0,0,0-.24-.91L868.57,324a7.16,7.16,0,0,0-1.23-1.87,2.89,2.89,0,0,0-2.27-.81Z"></path></g><path class="cls-69" d="M920.35,358.89l24,17.81-24,18a16.57,16.57,0,0,0-2.24,1.87,5.22,5.22,0,0,0-1.25,3.8v13.81a3.63,3.63,0,0,0,.88,2.47,2.79,2.79,0,0,0,2.18,1h17.47a2.07,2.07,0,0,0,.53-.08,3.66,3.66,0,0,0,.6-.25,8.47,8.47,0,0,0,1.16-.68L980.71,385a13.18,13.18,0,0,0,2.6-2.68,6,6,0,0,0,1-3.5v-4a7.07,7.07,0,0,0-.06-.94l0-.26a6.23,6.23,0,0,0-.13-.65,1.55,1.55,0,0,0-.06-.23,6.18,6.18,0,0,0-.26-.76h0a5.56,5.56,0,0,0-.45-.79c-.15-.21-.31-.43-.5-.65s-.14-.15-.2-.23-.24-.27-.38-.41v0l-.47-.45-.23-.22c-.25-.23-.51-.46-.79-.68l-41.11-31.69c-.44-.2-.79-.36-1.13-.53a2.53,2.53,0,0,0-1.13-.33H919.89a2.88,2.88,0,0,0-2.16.92,3.38,3.38,0,0,0-.9,2.42v13.95a5.23,5.23,0,0,0,1.24,3.71A13.09,13.09,0,0,0,920.35,358.89Zm18.18-1.28a12.65,12.65,0,0,1-1-.79l-.32-.3c-.25-.23-.5-.45-.73-.7a2.36,2.36,0,0,1-.32-.44l-.08-.13a5.11,5.11,0,0,1-.2-.47.14.14,0,0,0,0-.06,3.77,3.77,0,0,1-.13-.62,1,1,0,0,1,0-.16,5.58,5.58,0,0,1-.05-.73V349l26.85,20.7c.25.2.49.4.72.61l.2.19c.15.14.29.27.42.41s.24.25.35.38l.18.2c.16.19.3.38.43.56a3.86,3.86,0,0,1,.32.56,4.77,4.77,0,0,1,.2.57,1.36,1.36,0,0,0,0,.17l.09.48a1.36,1.36,0,0,1,0,.2,5.48,5.48,0,0,1,0,.72v4a5.9,5.9,0,0,1-.07.87,1.69,1.69,0,0,1,0,.24,5.47,5.47,0,0,1-.15.58l-.08.21a4.22,4.22,0,0,1-.36.66h0c-.1.14-.22.29-.34.44a.48.48,0,0,1-.09.11c-.05.07-.11.13-.16.19l-.34.38-.23.22c-.12.12-.24.24-.37.35l-.27.25-.51.43-26.84,20.68v-4.05a3.69,3.69,0,0,1,.8-2.66,13.87,13.87,0,0,1,2.07-1.73l25.72-19.24Z"></path><path class="cls-70" d="M919.89,337.45a1.65,1.65,0,0,0-1.25.5,1.79,1.79,0,0,0-.47,1.31v13.95a3.65,3.65,0,0,0,.82,2.61,12.42,12.42,0,0,0,2.07,1.79l25.7,19.09L921,395.94a13.87,13.87,0,0,0-2.07,1.73,3.69,3.69,0,0,0-.8,2.66v13.81a2,2,0,0,0,.49,1.4,1.56,1.56,0,0,0,1.23.55,1.34,1.34,0,0,0,.59-.19c.31-.16.65-.37,1-.58l41-31.62a11.8,11.8,0,0,0,2.31-2.37,4.34,4.34,0,0,0,.71-2.56v-4a4.59,4.59,0,0,0-.71-2.7,12,12,0,0,0-2.3-2.35l-41-31.58-1-.5A1.37,1.37,0,0,0,919.89,337.45Z"></path></g><g class="cls-71"><path class="cls-17" d="M614.67,607.4v12.69c0,1.38,1.05,2.34,3,2.5a4.29,4.29,0,0,0,.63,0h526.2a4.5,4.5,0,0,0,.64,0,3.21,3.21,0,0,0,2.8-1.46V607.4Z"></path><path class="cls-17" d="M618.35,609.72h526.18c3.82,0,4.82-2.57,2.28-5.68l-81.73-100.3c-1.19-1.47-4.23-2.65-6.79-2.65H704.6c-2.57,0-5.6,1.18-6.8,2.65L616.07,604C613.53,607.15,614.53,609.72,618.35,609.72Z"></path><path class="cls-17" d="M650.17,582.6H818.09l5.1-17A4,4,0,0,1,827,562.7H935.49a4,4,0,0,1,3.83,2.86l5.1,17h169l-58.81-72.17H709Z"></path><path class="cls-17" d="M650.17,582.6H818.09l5.1-17A4,4,0,0,1,827,562.7H935.49a4,4,0,0,1,3.83,2.86l5.1,17h169l-58.81-72.17H709Z"></path><rect class="cls-17" x="699.95" y="261.89" width="362.98" height="240.72" rx="6.12" transform="translate(1762.88 764.51) rotate(-180)"></rect><path class="cls-17" d="M817.3,605.51H945.21a4,4,0,0,0,3.84-5.14l-4.63-15.49-5.1-17a4,4,0,0,0-3.83-2.85H827a4,4,0,0,0-3.84,2.85l-5.1,17-4.63,15.49A4,4,0,0,0,817.3,605.51Z"></path><path class="cls-72" d="M614.67,607.4v12.69c0,1.38,1.05,2.34,3,2.5a4.29,4.29,0,0,0,.63,0h526.2a4.5,4.5,0,0,0,.64,0,3.21,3.21,0,0,0,2.8-1.46V607.4Z"></path><path class="cls-2" d="M618.35,609.72h526.18c3.82,0,4.82-2.57,2.28-5.68l-81.73-100.3c-1.19-1.47-4.23-2.65-6.79-2.65H704.6c-2.57,0-5.6,1.18-6.8,2.65L616.07,604C613.53,607.15,614.53,609.72,618.35,609.72Z"></path><path class="cls-2" d="M650.17,582.6H818.09l5.1-17A4,4,0,0,1,827,562.7H935.49a4,4,0,0,1,3.83,2.86l5.1,17h169l-58.81-72.17H709Z"></path><path class="cls-2" d="M650.17,582.6H818.09l5.1-17A4,4,0,0,1,827,562.7H935.49a4,4,0,0,1,3.83,2.86l5.1,17h169l-58.81-72.17H709Z"></path><rect class="cls-2" x="699.95" y="261.89" width="362.98" height="240.72" rx="6.12" transform="translate(1762.88 764.51) rotate(-180)"></rect><rect class="cls-2" x="718.18" y="280.12" width="326.53" height="204.27"></rect><rect class="cls-2" x="718.18" y="280.12" width="326.53" height="204.27"></rect><path class="cls-2" d="M817.3,605.51H945.21a4,4,0,0,0,3.84-5.14l-4.63-15.49-5.1-17a4,4,0,0,0-3.83-2.85H827a4,4,0,0,0-3.84,2.85l-5.1,17-4.63,15.49A4,4,0,0,0,817.3,605.51Z"></path><g class="cls-7"><path class="cls-2" d="M856.87,395.93,831.29,376.7h-15.8a.56.56,0,0,0-.34,1l24.25,18.23"></path><path class="cls-2" d="M839.42,357.59,815.16,375.7a.56.56,0,0,0,.33,1h15.8l25.6-19.11s2.43-.38,2.87-4.38"></path><g class="cls-7"><g class="cls-73"><g class="cls-7"><path class="cls-2" d="M839.08,338.12h17.47c.28-.16.59-.33.91-.48H840c-.32.15-.62.32-.91.48"></path></g></g><path class="cls-2" d="M839.08,338.12h17.47c.28-.16.59-.33.91-.48H840C839.67,337.79,839.37,338,839.08,338.12Z"></path></g><polyline class="cls-2" points="857.58 394.64 833.72 376.7 816.25 376.7 840.12 394.64"></polyline><polyline class="cls-2" points="840.14 358.88 816.25 376.7 833.72 376.7 857.61 358.88"></polyline><g class="cls-7"><g class="cls-74"><g class="cls-7"><path class="cls-2" d="M840,337.64h17.47a1.47,1.47,0,0,1,.69-.19H840.68a1.5,1.5,0,0,0-.69.19"></path></g></g><path class="cls-2" d="M840,337.64h17.47a1.47,1.47,0,0,1,.69-.19H840.68A1.5,1.5,0,0,0,840,337.64Z"></path></g><g class="cls-7"><g class="cls-75"><g class="cls-7"><path class="cls-2" d="M840.73,416.1H858.2a1.62,1.62,0,0,1-.74-.2,4.62,4.62,0,0,1-.85-.56H839.14a4.62,4.62,0,0,0,.85.56,1.62,1.62,0,0,0,.74.2"></path></g></g><path class="cls-2" d="M840.73,416.1H858.2a1.62,1.62,0,0,1-.74-.2,4.62,4.62,0,0,1-.85-.56H839.14a4.62,4.62,0,0,0,.85.56A1.62,1.62,0,0,0,840.73,416.1Z"></path></g><g class="cls-7"><g class="cls-7"><path class="cls-2" d="M842.29,353.21a3.65,3.65,0,0,1-.82,2.61,12,12,0,0,1-2.05,1.77"></path><path class="cls-2" d="M856.89,357.59a12,12,0,0,0,2.05-1.77,3.65,3.65,0,0,0,.82-2.61"></path></g></g><g class="cls-7"><g class="cls-7"><path class="cls-2" d="M842.29,353.21a3.65,3.65,0,0,1-.82,2.61,12,12,0,0,1-2.05,1.77"></path><path class="cls-2" d="M856.89,357.59a12,12,0,0,0,2.05-1.77,3.65,3.65,0,0,0,.82-2.61"></path></g></g><g class="cls-7"><g class="cls-76"><g class="cls-7"><path class="cls-2" d="M840.73,416.1H858.2a1.41,1.41,0,0,0,1.07-.56,2,2,0,0,0,.49-1.4H842.29a2,2,0,0,1-.49,1.4,1.41,1.41,0,0,1-1.07.56"></path></g></g><path class="cls-2" d="M859.69,414.72H842.22a1.84,1.84,0,0,1-.42.82,1.41,1.41,0,0,1-1.07.56H858.2a1.41,1.41,0,0,0,1.07-.56A1.84,1.84,0,0,0,859.69,414.72Z"></path></g><polyline class="cls-2" points="842.29 400.33 842.29 414.14 859.76 414.14 859.76 400.33"></polyline><g class="cls-7"><g class="cls-77"><g class="cls-7"><path class="cls-2" d="M841.94,398.34a4.9,4.9,0,0,1,.35,2"></path><path class="cls-2" d="M859.76,400.33a4.9,4.9,0,0,0-.35-2"></path><path class="cls-2" d="M841.51,397.69a2.3,2.3,0,0,1,.43.65"></path><path class="cls-2" d="M859.41,398.34a2.3,2.3,0,0,0-.43-.65"></path><path class="cls-2" d="M839.4,395.93a13.69,13.69,0,0,1,2.09,1.74l0,0"></path><path class="cls-2" d="M859,397.69l0,0a13.69,13.69,0,0,0-2.09-1.74"></path></g></g><path class="cls-2" d="M839.4,395.93a13.69,13.69,0,0,1,2.09,1.74,3.69,3.69,0,0,1,.8,2.66"></path><path class="cls-2" d="M859.76,400.33a3.69,3.69,0,0,0-.8-2.66,13.69,13.69,0,0,0-2.09-1.74"></path></g><g class="cls-7"><g class="cls-78"><g class="cls-7"><path class="cls-2" d="M842.29,353.21a3.65,3.65,0,0,1-.82,2.61,12,12,0,0,1-2.05,1.77"></path><path class="cls-2" d="M856.89,357.59a12,12,0,0,0,2.05-1.77,3.65,3.65,0,0,0,.82-2.61"></path></g></g><path class="cls-2" d="M858.94,355.82h0a3.65,3.65,0,0,0,.82-2.61"></path><path class="cls-2" d="M842.29,353.21a3.65,3.65,0,0,1-.82,2.61"></path></g><polyline class="cls-2" points="859.76 353.2 859.76 339.26 842.29 339.26 842.29 353.2"></polyline><g class="cls-7"><g class="cls-79"><g class="cls-7"><path class="cls-2" d="M842.29,339.26h17.47a2.09,2.09,0,0,0-.17-.86H842.13a2.1,2.1,0,0,1,.16.86"></path><path class="cls-2" d="M842.13,338.4h17.46a1.43,1.43,0,0,0-.3-.44H841.82a1.67,1.67,0,0,1,.31.44"></path><path class="cls-2" d="M841.81,338h17.47a1.51,1.51,0,0,0-1.13-.5H840.68a1.51,1.51,0,0,1,1.13.5"></path></g></g><path class="cls-2" d="M859.29,338a1.51,1.51,0,0,0-1.14-.51H840.68a1.49,1.49,0,0,1,1.14.51,1.75,1.75,0,0,1,.47,1.3h17.47A1.75,1.75,0,0,0,859.29,338Z"></path></g><path class="cls-2" d="M840.68,337.45a1.5,1.5,0,0,0-.69.19c-.32.15-.62.32-.91.48L798,369.72a10,10,0,0,0-2.33,2.33,4.92,4.92,0,0,0-.67,2.72v4a4.58,4.58,0,0,0,.67,2.58,9.89,9.89,0,0,0,2.34,2.34l41.17,31.65a4.62,4.62,0,0,0,.85.56,1.62,1.62,0,0,0,.74.2,1.41,1.41,0,0,0,1.07-.56,2,2,0,0,0,.49-1.4V400.33a3.69,3.69,0,0,0-.8-2.66,13.69,13.69,0,0,0-2.09-1.74l-25-18.78a.56.56,0,0,1,0-.89l25-18.67a12,12,0,0,0,2.05-1.77,3.65,3.65,0,0,0,.82-2.61V339.26a1.75,1.75,0,0,0-.47-1.3A1.49,1.49,0,0,0,840.68,337.45Z"></path><g class="cls-7"><g class="cls-80"><g class="cls-7"><path class="cls-2" d="M840.68,417.61h17.47a2.69,2.69,0,0,0,2.07-1,3.63,3.63,0,0,0,.88-2.47H843.63a3.63,3.63,0,0,1-.88,2.47,2.66,2.66,0,0,1-2.07,1"></path></g></g><path class="cls-2" d="M840.68,417.61h17.47a2.69,2.69,0,0,0,2.07-1,3.63,3.63,0,0,0,.88-2.47H843.63a3.63,3.63,0,0,1-.88,2.47A2.66,2.66,0,0,1,840.68,417.61Z"></path></g><polyline class="cls-2" points="843.63 400.33 843.63 414.14 861.1 414.14 861.1 400.33"></polyline><g class="cls-7"><g class="cls-81"><g class="cls-7"><path class="cls-2" d="M843.14,397.66a6.6,6.6,0,0,1,.49,2.67"></path><path class="cls-2" d="M861.1,400.33a6.6,6.6,0,0,0-.49-2.67"></path><path class="cls-2" d="M842.41,396.57a3.65,3.65,0,0,1,.73,1.09"></path><path class="cls-2" d="M860.61,397.66a3.65,3.65,0,0,0-.73-1.09"></path><path class="cls-2" d="M840.11,394.64a15.48,15.48,0,0,1,2.27,1.89l0,0"></path><path class="cls-2" d="M859.88,396.57l0,0a16.61,16.61,0,0,0-2.27-1.89"></path></g></g><path class="cls-2" d="M840.11,394.64a15.48,15.48,0,0,1,2.27,1.89,5.22,5.22,0,0,1,1.25,3.8"></path><path class="cls-2" d="M861.1,400.33a5.22,5.22,0,0,0-1.25-3.8,16.61,16.61,0,0,0-2.27-1.89"></path></g><g class="cls-7"><g class="cls-82"><g class="cls-7"><path class="cls-2" d="M843.63,353.21a5.27,5.27,0,0,1-1.23,3.71,14,14,0,0,1-2.26,2"></path><path class="cls-2" d="M857.61,358.88a13.5,13.5,0,0,0,2.25-2,5.23,5.23,0,0,0,1.24-3.71"></path></g></g><path class="cls-2" d="M843.63,353.21a5.27,5.27,0,0,1-1.23,3.71,14,14,0,0,1-2.26,2"></path><path class="cls-2" d="M857.61,358.88a13.5,13.5,0,0,0,2.25-2,5.23,5.23,0,0,0,1.24-3.71"></path></g><polyline class="cls-2" points="861.1 353.2 861.1 339.26 843.63 339.26 843.63 353.2"></polyline><path class="cls-2" d="M797.22,368.46l41.22-31.68c.32-.18.65-.35,1-.53a2.9,2.9,0,0,1,1.31-.34,2.74,2.74,0,0,1,2,.93,3.38,3.38,0,0,1,.9,2.42v13.95a5.27,5.27,0,0,1-1.23,3.71,14,14,0,0,1-2.26,2L816.25,376.7l23.86,17.94a15.48,15.48,0,0,1,2.27,1.89,5.22,5.22,0,0,1,1.25,3.8v13.81a3.63,3.63,0,0,1-.88,2.47,2.59,2.59,0,0,1-3.31.67,4.92,4.92,0,0,1-1.08-.71L797.22,385a10.9,10.9,0,0,1-2.67-2.7,6.25,6.25,0,0,1-.93-3.48v-4a6.53,6.53,0,0,1,.93-3.62A11,11,0,0,1,797.22,368.46ZM795,378.77a4.58,4.58,0,0,0,.67,2.58,9.89,9.89,0,0,0,2.34,2.34l41.17,31.65a4.62,4.62,0,0,0,.85.56,1.62,1.62,0,0,0,.74.2,1.41,1.41,0,0,0,1.07-.56,2,2,0,0,0,.49-1.4V400.33a3.69,3.69,0,0,0-.8-2.66,13.69,13.69,0,0,0-2.09-1.74l-25-18.78a.56.56,0,0,1,0-.89l25-18.67a12,12,0,0,0,2.05-1.77,3.65,3.65,0,0,0,.82-2.61V339.26a1.75,1.75,0,0,0-.47-1.3,1.46,1.46,0,0,0-1.83-.32c-.32.15-.62.32-.91.48L798,369.72a9.87,9.87,0,0,0-2.34,2.33,4.92,4.92,0,0,0-.67,2.72v4Z"></path><g class="cls-7"><g class="cls-83"><g class="cls-7"><path class="cls-2" d="M843.63,339.26H861.1a3.86,3.86,0,0,0-.31-1.55H843.32a3.86,3.86,0,0,1,.31,1.55"></path><path class="cls-2" d="M843.32,337.71h17.47a3.19,3.19,0,0,0-.59-.87H842.73a3.19,3.19,0,0,1,.59.87"></path><path class="cls-2" d="M842.72,336.83h17.47a2.73,2.73,0,0,0-2-.92H840.75a2.73,2.73,0,0,1,2,.92"></path></g></g><path class="cls-2" d="M843.63,339.26H861.1a3.38,3.38,0,0,0-.9-2.42,2.74,2.74,0,0,0-2-.93H840.75a2.74,2.74,0,0,1,2,.93A3.38,3.38,0,0,1,843.63,339.26Z"></path></g></g><g class="cls-7"><g class="cls-7"><g class="cls-84"><g class="cls-7"><path class="cls-2" d="M853.26,324.26h17.47a3.93,3.93,0,0,1-.17-1,2,2,0,0,1,.55-1.34,1.53,1.53,0,0,1,1.17-.61H854.81a1.55,1.55,0,0,0-1.17.61,2,2,0,0,0-.55,1.34,3.93,3.93,0,0,0,.17,1"></path></g></g><path class="cls-2" d="M853.26,324.26h17.47a3.93,3.93,0,0,1-.17-1,2,2,0,0,1,.55-1.34,1.53,1.53,0,0,1,1.17-.61H854.81a1.55,1.55,0,0,0-1.17.61,2,2,0,0,0-.55,1.34A3.93,3.93,0,0,0,853.26,324.26Z"></path></g><polygon class="cls-2" points="865.07 321.31 882.54 321.31 872.28 321.31 854.81 321.31 865.07 321.31"></polygon><polygon class="cls-2" points="865.07 319.79 882.54 319.79 872.28 319.79 854.81 319.79 865.07 319.79"></polygon><g class="cls-7"><g class="cls-85"><g class="cls-7"><path class="cls-2" d="M868.54,323.92l0,.07"></path><path class="cls-2" d="M886,324l0-.07"></path><path class="cls-2" d="M886,323.92a7.2,7.2,0,0,0-1.21-1.8l0-.06H867.28l.06.06a7.14,7.14,0,0,1,1.2,1.8"></path><path class="cls-2" d="M867.28,322.06h17.47a2.94,2.94,0,0,0-2.21-.75H865.07a2.94,2.94,0,0,1,2.21.75"></path></g></g><path class="cls-2" d="M886,324a7,7,0,0,0-1.24-1.87,2.86,2.86,0,0,0-2.26-.81H865.07a2.89,2.89,0,0,1,2.27.81,7.16,7.16,0,0,1,1.23,1.87"></path></g><g class="cls-7"><g class="cls-86"><g class="cls-7"><path class="cls-2" d="M869.76,323.27l0,.08"></path><path class="cls-2" d="M887.26,323.35l0-.08"></path><path class="cls-2" d="M887.22,323.27a8.69,8.69,0,0,0-1.47-2.23l-.1-.11H868.18l.1.11a9,9,0,0,1,1.48,2.23"></path><path class="cls-2" d="M868.18,320.93h17.47a4.15,4.15,0,0,0-3.11-1.14H865.07a4.15,4.15,0,0,1,3.11,1.14"></path></g></g><path class="cls-2" d="M887.26,323.35a9.16,9.16,0,0,0-1.51-2.31,4.06,4.06,0,0,0-3.21-1.25H865.07a4.06,4.06,0,0,1,3.21,1.25,9.16,9.16,0,0,1,1.51,2.31"></path></g><g class="cls-7"><g class="cls-87"><g class="cls-7"><path class="cls-2" d="M895.5,432.1H913a3,3,0,0,1-2.24-.8H893.26a3,3,0,0,0,2.24.8"></path><path class="cls-2" d="M893.26,431.3h17.47l-.07-.07a5.17,5.17,0,0,1-.9-1.31H892.29a5.46,5.46,0,0,0,.9,1.31l.07.07"></path><path class="cls-2" d="M892.29,429.92h17.47a1.66,1.66,0,0,1-.13-.37H892.16c0,.1.07.22.13.37"></path></g></g><path class="cls-2" d="M895.5,432.1H913a2.93,2.93,0,0,1-2.31-.87,4.23,4.23,0,0,1-1-1.68H892.16a4.36,4.36,0,0,0,1,1.68A2.93,2.93,0,0,0,895.5,432.1Z"></path></g><polygon class="cls-2" points="905.53 432.1 923 432.1 912.97 432.1 895.5 432.1 905.53 432.1"></polygon><polyline class="cls-2" points="868.57 323.99 907.13 429.24 924.59 429.24 886.04 323.99"></polyline><g class="cls-7"><g class="cls-88"><g class="cls-7"><path class="cls-2" d="M905.53,432.1H923a1.66,1.66,0,0,0,1.3-.62,2,2,0,0,0,.54-1.33,1.8,1.8,0,0,0-.18-.76H907.2a1.94,1.94,0,0,1,.17.76,2,2,0,0,1-.54,1.33,1.66,1.66,0,0,1-1.3.62"></path><path class="cls-2" d="M907.2,429.39h17.46a1,1,0,0,0-.07-.15H907.13a1,1,0,0,0,.07.15"></path></g></g><path class="cls-2" d="M924.84,430.15a1.9,1.9,0,0,0-.25-.91H907.13a2,2,0,0,1,.24.9h0a2,2,0,0,1-.54,1.33,1.66,1.66,0,0,1-1.3.62H923a1.66,1.66,0,0,0,1.3-.62A2,2,0,0,0,924.84,430.15Z"></path></g><path class="cls-2" d="M854.81,319.79h10.26a4.06,4.06,0,0,1,3.21,1.25,9.16,9.16,0,0,1,1.51,2.31L908.3,428.51a3.65,3.65,0,0,1,.41,1.64,3.58,3.58,0,0,1-.93,2.41,2.92,2.92,0,0,1-2.25,1.06h-10a4.15,4.15,0,0,1-3.26-1.32,5.9,5.9,0,0,1-1.36-2.28L852,324.79a5.37,5.37,0,0,1-.26-1.53,3.58,3.58,0,0,1,.93-2.41A2.83,2.83,0,0,1,854.81,319.79Zm-1.55,4.47,38.9,105.29a4.36,4.36,0,0,0,1,1.68,2.93,2.93,0,0,0,2.31.87h10a1.66,1.66,0,0,0,1.3-.62,1.87,1.87,0,0,0,.27-2.28L868.57,324a7.16,7.16,0,0,0-1.23-1.87,2.89,2.89,0,0,0-2.27-.81H854.81a1.55,1.55,0,0,0-1.17.61,2,2,0,0,0-.55,1.34,3.93,3.93,0,0,0,.17,1Z"></path><path class="cls-2" d="M854.81,321.31a1.55,1.55,0,0,0-1.17.61,2,2,0,0,0-.55,1.34,3.93,3.93,0,0,0,.17,1l38.88,105.21a4.32,4.32,0,0,0,1.05,1.76,2.93,2.93,0,0,0,2.31.87h10a1.66,1.66,0,0,0,1.3-.62,2,2,0,0,0,.54-1.33,2,2,0,0,0-.24-.91L868.57,324a7.16,7.16,0,0,0-1.23-1.87,2.89,2.89,0,0,0-2.27-.81Z"></path><polyline class="cls-2" points="869.79 323.35 908.3 428.51 925.77 428.51 887.26 323.35"></polyline><g class="cls-7"><g class="cls-89"><g class="cls-7"><path class="cls-2" d="M905.53,433.62H923a2.94,2.94,0,0,0,2.25-1.06,3.58,3.58,0,0,0,.93-2.41,3.63,3.63,0,0,0-.32-1.46H908.39a3.63,3.63,0,0,1,.32,1.46,3.58,3.58,0,0,1-.93,2.41,2.92,2.92,0,0,1-2.25,1.06"></path><path class="cls-2" d="M908.39,428.69h17.47l-.09-.18H908.3l.09.18"></path></g></g><path class="cls-2" d="M905.53,433.62H923a2.94,2.94,0,0,0,2.25-1.06,3.58,3.58,0,0,0,.93-2.41,3.65,3.65,0,0,0-.41-1.64H908.3a3.65,3.65,0,0,1,.41,1.64,3.58,3.58,0,0,1-.93,2.41A2.92,2.92,0,0,1,905.53,433.62Z"></path></g></g><g class="cls-7"><rect class="cls-2" x="918.17" y="400.33" width="17.47" height="13.81"></rect><rect class="cls-2" x="918.17" y="339.26" width="17.47" height="13.94"></rect><g class="cls-7"><g class="cls-90"><g class="cls-7"><path class="cls-2" d="M919.89,416.09h17.47a1.55,1.55,0,0,1-1.17-.49H918.72a1.55,1.55,0,0,0,1.17.49"></path><path class="cls-2" d="M918.72,415.6h17.47l-.06-.06a1.82,1.82,0,0,1-.31-.47H918.36a1.57,1.57,0,0,0,.3.47l.06.06"></path><path class="cls-2" d="M918.36,415.07h17.46a2.3,2.3,0,0,1-.18-.93H918.17a2.15,2.15,0,0,0,.19.93"></path></g></g><path class="cls-2" d="M919.89,416.09h17.47a1.56,1.56,0,0,1-1.23-.55,2,2,0,0,1-.49-1.4H918.17a2,2,0,0,0,.49,1.4A1.56,1.56,0,0,0,919.89,416.09Z"></path></g><g class="cls-7"><g class="cls-91"><g class="cls-7"><path class="cls-2" d="M918.17,339.26h17.47a1.79,1.79,0,0,1,.47-1.31,1.65,1.65,0,0,1,1.25-.5H919.89a1.65,1.65,0,0,0-1.25.5,1.79,1.79,0,0,0-.47,1.31"></path></g></g><path class="cls-2" d="M918.17,339.26h17.47a1.79,1.79,0,0,1,.47-1.31,1.65,1.65,0,0,1,1.25-.5H919.89a1.65,1.65,0,0,0-1.25.5A1.79,1.79,0,0,0,918.17,339.26Z"></path></g><g class="cls-7"><g class="cls-92"><g class="cls-7"><path class="cls-2" d="M919.89,416.09h17.47a1.34,1.34,0,0,0,.59-.19c.31-.16.65-.37,1-.58H921.46c-.33.21-.67.42-1,.58a1.34,1.34,0,0,1-.59.19"></path></g></g><path class="cls-2" d="M938.14,415.79H920.68l-.2.11a1.34,1.34,0,0,1-.59.19h17.47a1.34,1.34,0,0,0,.59-.19Z"></path></g><g class="cls-7"><g class="cls-93"><g class="cls-7"><path class="cls-2" d="M919.89,417.61h17.47a2.53,2.53,0,0,0,1.13-.33H921a2.5,2.5,0,0,1-1.13.33"></path></g></g><path class="cls-2" d="M919.89,417.61h17.47a2.53,2.53,0,0,0,1.13-.33H921A2.5,2.5,0,0,1,919.89,417.61Z"></path></g><g class="cls-7"><g class="cls-94"><g class="cls-7"><path class="cls-2" d="M918.17,400.33h17.47a3.69,3.69,0,0,1,.8-2.66,13.87,13.87,0,0,1,2.07-1.73H921a13.87,13.87,0,0,0-2.07,1.73,3.69,3.69,0,0,0-.8,2.66"></path></g></g><path class="cls-2" d="M918.17,400.33h17.47a3.69,3.69,0,0,1,.8-2.66,13.87,13.87,0,0,1,2.07-1.73H921a13.87,13.87,0,0,0-2.07,1.73A3.69,3.69,0,0,0,918.17,400.33Z"></path></g><g class="cls-7"><g class="cls-95"><g class="cls-7"><path class="cls-2" d="M921.06,357.61h17.47a12.33,12.33,0,0,1-1.89-1.6H919.17a12.33,12.33,0,0,0,1.89,1.6"></path><path class="cls-2" d="M919.17,356h17.47l-.18-.19a2.44,2.44,0,0,1-.48-.73H918.51a2.64,2.64,0,0,0,.48.73l.18.19"></path><path class="cls-2" d="M918.51,355.09H936a4.51,4.51,0,0,1-.34-1.88H918.17a4.68,4.68,0,0,0,.34,1.88"></path></g></g><path class="cls-2" d="M921.06,357.61h17.47a12.42,12.42,0,0,1-2.07-1.79,3.65,3.65,0,0,1-.82-2.61H918.17a3.65,3.65,0,0,0,.82,2.61A12.42,12.42,0,0,0,921.06,357.61Z"></path></g><g class="cls-7"><g class="cls-96"><g class="cls-7"><path class="cls-2" d="M919.89,416.09h17.47a1.34,1.34,0,0,0,.59-.19c.31-.16.65-.37,1-.58H921.46c-.33.21-.67.42-1,.58a1.34,1.34,0,0,1-.59.19"></path></g></g><path class="cls-2" d="M938.14,415.79c.26-.14.53-.3.79-.47H921.46c-.26.17-.53.33-.78.47h17.46Z"></path></g><g class="cls-7"><g class="cls-97"><g class="cls-7"><path class="cls-2" d="M921.52,338.14H939l-1-.5a1.37,1.37,0,0,0-.59-.19H919.89a1.37,1.37,0,0,1,.59.19l1,.5"></path></g></g><path class="cls-2" d="M938,337.64a1.37,1.37,0,0,0-.59-.19H919.89a1.37,1.37,0,0,1,.59.19l1,.5H939Z"></path></g><g class="cls-7"><g class="cls-98"><g class="cls-7"><path class="cls-2" d="M922.15,336.78h17.47c-.44-.2-.79-.36-1.13-.53a2.53,2.53,0,0,0-1.13-.33H919.89a2.53,2.53,0,0,1,1.13.33c.34.17.69.33,1.13.53"></path></g></g><path class="cls-2" d="M922.15,336.78h17.47c-.44-.2-.79-.36-1.13-.53a2.53,2.53,0,0,0-1.13-.33H919.89a2.53,2.53,0,0,1,1.13.33C921.36,336.42,921.71,336.58,922.15,336.78Z"></path></g><g class="cls-7"><g class="cls-99"><g class="cls-7"><path class="cls-2" d="M921,417.28h17.47a8.47,8.47,0,0,0,1.16-.68H922.18a8.47,8.47,0,0,1-1.16.68"></path></g></g><path class="cls-2" d="M921,417.28h17.47a8.47,8.47,0,0,0,1.16-.68H922.18A8.47,8.47,0,0,1,921,417.28Z"></path></g><polygon class="cls-2" points="946.76 376.7 964.23 376.7 938.53 357.61 921.07 357.61 946.76 376.7"></polygon><polygon class="cls-2" points="921.04 395.94 938.51 395.94 964.23 376.7 946.76 376.7 921.04 395.94"></polygon><polygon class="cls-2" points="921.46 415.31 938.93 415.31 979.95 383.7 962.48 383.7 921.46 415.31"></polygon><polygon class="cls-2" points="962.49 369.72 979.96 369.72 938.99 338.14 921.52 338.14 962.49 369.72"></polygon><g class="cls-7"><g class="cls-100"><g class="cls-7"><path class="cls-2" d="M962.48,383.7H980a12.08,12.08,0,0,0,2.31-2.37,4.34,4.34,0,0,0,.71-2.56H965.5a4.34,4.34,0,0,1-.71,2.56,11.8,11.8,0,0,1-2.31,2.37"></path></g></g><path class="cls-2" d="M980.2,383.49H962.73l-.25.21H980Z"></path></g><polygon class="cls-2" points="922.18 416.6 939.65 416.6 980.71 384.95 963.25 384.95 922.18 416.6"></polygon><polygon class="cls-2" points="963.26 368.47 980.73 368.47 939.62 336.78 922.15 336.78 963.26 368.47"></polygon><g class="cls-7"><g class="cls-101"><g class="cls-7"><path class="cls-2" d="M962.48,383.7H980a12.08,12.08,0,0,0,2.31-2.37,4.34,4.34,0,0,0,.71-2.56H965.5a4.34,4.34,0,0,1-.71,2.56,11.8,11.8,0,0,1-2.31,2.37"></path></g></g><path class="cls-2" d="M982.65,380.6H965.19a4,4,0,0,1-.4.73,11.65,11.65,0,0,1-2.06,2.16H980.2a11.65,11.65,0,0,0,2.06-2.16A3.42,3.42,0,0,0,982.65,380.6Z"></path></g><g class="cls-7"><g class="cls-102"><g class="cls-7"><path class="cls-2" d="M962.48,383.7H980a12.08,12.08,0,0,0,2.31-2.37,4.34,4.34,0,0,0,.71-2.56H965.5a4.34,4.34,0,0,1-.71,2.56,11.8,11.8,0,0,1-2.31,2.37"></path></g></g><path class="cls-2" d="M982.65,380.6a4.74,4.74,0,0,0,.32-1.83H965.5a4.94,4.94,0,0,1-.31,1.83Z"></path></g><rect class="cls-2" x="965.5" y="374.77" width="17.47" height="4"></rect><g class="cls-7"><g class="cls-103"><g class="cls-7"><path class="cls-2" d="M965.5,374.77H983a5.23,5.23,0,0,0-.39-2.13H965.11a5.07,5.07,0,0,1,.39,2.13"></path><path class="cls-2" d="M965.11,372.64h17.47a4,4,0,0,0-.32-.57,10,10,0,0,0-.94-1.12H963.85a9,9,0,0,1,.94,1.12,4,4,0,0,1,.32.57"></path><path class="cls-2" d="M963.85,371h17.47a13.92,13.92,0,0,0-1.36-1.23H962.49a13.92,13.92,0,0,1,1.36,1.23"></path></g></g><path class="cls-2" d="M965.5,374.77H983a4.59,4.59,0,0,0-.71-2.7,12.24,12.24,0,0,0-2.3-2.35H962.49a12,12,0,0,1,2.3,2.35A4.59,4.59,0,0,1,965.5,374.77Z"></path></g><path class="cls-2" d="M919.89,337.45a1.65,1.65,0,0,0-1.25.5,1.79,1.79,0,0,0-.47,1.31v13.95a3.65,3.65,0,0,0,.82,2.61,12.42,12.42,0,0,0,2.07,1.79l25.7,19.09L921,395.94a13.87,13.87,0,0,0-2.07,1.73,3.69,3.69,0,0,0-.8,2.66v13.81a2,2,0,0,0,.49,1.4,1.56,1.56,0,0,0,1.23.55,1.34,1.34,0,0,0,.59-.19c.31-.16.65-.37,1-.58l41-31.62a11.8,11.8,0,0,0,2.31-2.37,4.34,4.34,0,0,0,.71-2.56v-4a4.59,4.59,0,0,0-.71-2.7,12,12,0,0,0-2.3-2.35l-41-31.58-1-.5A1.37,1.37,0,0,0,919.89,337.45Z"></path><g class="cls-7"><g class="cls-104"><g class="cls-7"><path class="cls-2" d="M963.24,385h17.47a13.18,13.18,0,0,0,2.6-2.68,6,6,0,0,0,1-3.5H966.84a6,6,0,0,1-1,3.5,13.26,13.26,0,0,1-2.61,2.68"></path></g></g><path class="cls-2" d="M963.24,385h17.47a13.18,13.18,0,0,0,2.6-2.68,6,6,0,0,0,1-3.5H966.84a6,6,0,0,1-1,3.5A13.26,13.26,0,0,1,963.24,385Z"></path></g><rect class="cls-2" x="966.84" y="374.77" width="17.47" height="4"></rect><g class="cls-7"><g class="cls-105"><g class="cls-7"><path class="cls-2" d="M966.84,374.77h17.47a7,7,0,0,0-.54-2.84H966.3a7,7,0,0,1,.54,2.84"></path><path class="cls-2" d="M966.3,371.93h17.47a4.88,4.88,0,0,0-.46-.8,10.12,10.12,0,0,0-1.08-1.29H964.76a11.16,11.16,0,0,1,1.09,1.29,5.67,5.67,0,0,1,.45.8"></path><path class="cls-2" d="M964.76,369.84h17.47a17,17,0,0,0-1.5-1.37H963.26a15.69,15.69,0,0,1,1.5,1.37"></path></g></g><path class="cls-2" d="M966.84,374.77h17.47a6.23,6.23,0,0,0-1-3.64,13.53,13.53,0,0,0-2.58-2.66H963.26a13.61,13.61,0,0,1,2.59,2.66A6.3,6.3,0,0,1,966.84,374.77Z"></path></g><path class="cls-2" d="M916.83,353.21V339.26a3.38,3.38,0,0,1,.9-2.42,2.88,2.88,0,0,1,2.16-.92,2.53,2.53,0,0,1,1.13.33c.34.17.69.33,1.13.53l41.11,31.69a13.61,13.61,0,0,1,2.59,2.66,6.3,6.3,0,0,1,1,3.64v4a6,6,0,0,1-1,3.5,13.26,13.26,0,0,1-2.61,2.68L922.18,416.6a8.47,8.47,0,0,1-1.16.68,2.5,2.5,0,0,1-1.13.33,2.79,2.79,0,0,1-2.18-1,3.63,3.63,0,0,1-.88-2.47V400.33a5.22,5.22,0,0,1,1.25-3.8,16.57,16.57,0,0,1,2.24-1.87l24-18-24-17.81a13.09,13.09,0,0,1-2.28-2A5.23,5.23,0,0,1,916.83,353.21Zm29.93,23.49L921,395.94a13.87,13.87,0,0,0-2.07,1.73,3.69,3.69,0,0,0-.8,2.66v13.81a2,2,0,0,0,.49,1.4,1.56,1.56,0,0,0,1.23.55,1.34,1.34,0,0,0,.59-.19c.31-.16.65-.37,1-.58l41-31.62a11.8,11.8,0,0,0,2.31-2.37,4.34,4.34,0,0,0,.71-2.56v-4a4.59,4.59,0,0,0-.71-2.7,12,12,0,0,0-2.3-2.35l-41-31.58-1-.5a1.37,1.37,0,0,0-.59-.19,1.65,1.65,0,0,0-1.25.5,1.79,1.79,0,0,0-.47,1.31v13.95a3.65,3.65,0,0,0,.82,2.61,12.42,12.42,0,0,0,2.07,1.79l25.7,19.09Z"></path></g></g><polygon class="cls-106" points="887.54 184.01 888.03 252.1 888.31 320.19 888.54 456.36 888.31 592.53 888.03 660.61 887.54 728.7 887.05 660.61 886.77 592.53 886.54 456.36 886.77 320.19 887.05 252.1 887.54 184.01"></polygon><rect class="cls-107" x="323.65" y="4.88" width="563.89" height="856.84" transform="translate(1211.19 866.6) rotate(180)"></rect><rect class="cls-108" x="707.19" y="264.2" width="350" height="5"></rect><rect class="cls-109" x="707.19" y="485.2" width="350" height="5"></rect><rect class="cls-110" x="619.25" y="607.2" width="535.41" height="5"></rect><rect class="cls-111" x="633.26" y="618.2" width="535.41" height="3"></rect><rect class="cls-112" x="631.26" y="498.2" width="535.41" height="3"></rect></g></g></svg>