<svg xmlns="http://www.w3.org/2000/svg" id="bc363895-97cf-482b-8705-a5fc7593bc3c" data-name="Layer 2" viewBox="0 0 64 64"><title>aBcdeArtboard 1</title><path d="M1.9,12.08a6.58,6.58,0,0,1,.74-3.49,3.24,3.24,0,0,1,3.78-2A5.54,5.54,0,0,1,10.22,9c.11.17.17.33.43.22s.45-.21.43-.52a4.43,4.43,0,0,0-3.15-3.6L6.35,4.81a4.34,4.34,0,0,0-3.72,1A6.71,6.71,0,0,0,.75,8.37,10.85,10.85,0,0,0,.1,13.62a14.66,14.66,0,0,0,2.77,7.31,53.06,53.06,0,0,0,3.87,4.85A18.57,18.57,0,0,1,8.5,28.07,2.82,2.82,0,0,1,9,29.22,4.85,4.85,0,0,1,7.34,33.7l-.56.5a.66.66,0,0,0,.07,1.16l.74.5A3,3,0,0,1,8.82,39a42.47,42.47,0,0,1-1.33,4.24,33.68,33.68,0,0,0-2.06,6,11.15,11.15,0,0,0-.18,5,5.77,5.77,0,0,0,9.44,3.14A16.38,16.38,0,0,0,17,54.67a.43.43,0,0,0-.08-.61c-.19-.18-.38-.13-.58,0-.74.53-1.5,1-2.22,1.61a4.43,4.43,0,0,1-3.19,1,3.64,3.64,0,0,1-3.5-2.34,5.37,5.37,0,0,1-.34-2.38,18,18,0,0,1,1.49-5.77,29.23,29.23,0,0,0,2.37-8,2,2,0,0,0,0-.85,5.13,5.13,0,0,0-1.32-2.44c-.13-.13-.14-.21,0-.35a5.4,5.4,0,0,0,.93-1.59A6.35,6.35,0,0,0,9.7,26.1c-.34-.44-.69-.88-1-1.3-1.46-1.71-3-3.37-4.28-5.21A12.68,12.68,0,0,1,1.9,12.08Z" fill="#fefefe"></path><path d="M64,12.17a12.49,12.49,0,0,0-.25-2.66,9,9,0,0,0-.47-1.9,5.91,5.91,0,0,0-3.18-3,1.22,1.22,0,0,0-.63-.11A6.74,6.74,0,0,0,55.54,6,1.87,1.87,0,0,0,55,6.7c-.1.22-.22.43,0,.64a.47.47,0,0,0,.67,0A6.3,6.3,0,0,1,58.9,6.2a1.16,1.16,0,0,1,.76.09A3.83,3.83,0,0,1,61.78,8.8c.76,3.57.52,7-1.64,10.1a20.8,20.8,0,0,0-2.2,3.94c-.41,1-.86,1.93-1.33,2.87a8.5,8.5,0,0,0-1,3.47c-.06,1.42-.16,2.87.87,4.07.13.15,0,.27-.05.4a3.61,3.61,0,0,0-.69,1.16c-.21.68-.43,1.36-.6,2a5.91,5.91,0,0,0,.37,4c.69,1.54,1.4,3.06,2.14,4.58a9.85,9.85,0,0,1,1.06,6.05,7.25,7.25,0,0,1-4.55,5.79,4.67,4.67,0,0,1-5-.65c-1.1-.88-2.16-1.79-3.18-2.75-.15-.14-.3-.26-.5-.11a.46.46,0,0,0-.18.57,2.3,2.3,0,0,0,.15.32A13,13,0,0,0,48,58.05a6,6,0,0,0,5.83,1.65,9.61,9.61,0,0,0,7-7.86,12.26,12.26,0,0,0-1.12-6.9c-.74-1.62-1.53-3.21-2.34-4.8-.91-1.79-.24-3.44.39-5.1l0,0A10.6,10.6,0,0,1,59,33.67a.65.65,0,0,0,.24-.56c0-.43-.29-.6-.62-.74s-.83-.42-.91-.92a7.1,7.1,0,0,1,.31-4.13c.81-1.83,1.63-3.66,2.55-5.45a28,28,0,0,1,1.58-2.7A12.49,12.49,0,0,0,64,12.17Z" fill="#fefefe"></path><path d="M28,35.65a26.39,26.39,0,0,0-.23-3c0-.15-.11-.22-.2-.32s-.41,0-.59,0a3.27,3.27,0,0,0-1.28-.2A7.26,7.26,0,0,1,24.34,32c-.53,0-1.06.11-1.6.07A8,8,0,0,0,20,32.3c-.34.09-.69.17-.86.62A4.28,4.28,0,0,0,18.93,35a7.84,7.84,0,0,1-.06,2.37,1.9,1.9,0,0,0,0,.71,5.74,5.74,0,0,1,0,1.55c-.05.56.24,1,.68,1,.88,0,1.75.06,2.63.06.64,0,1.27-.08,1.91,0s1.49-.06,2.23,0a3.57,3.57,0,0,1,1.26.07.47.47,0,0,0,.6-.44c0-.5,0-1,0-1.52s-.28-.74-.21-1.14C28.06,36.92,27.83,36.19,28,35.65Z" fill="#fefefe"></path><path d="M36,39.73a3.17,3.17,0,0,1,0,.42,1.3,1.3,0,0,0,.1.83c.22.3.53.1.82.1.61,0,1.22,0,1.83,0,1.31,0,2.61,0,3.91,0,.67,0,1.32-.07,2,0a.56.56,0,0,0,.52-.32,1.21,1.21,0,0,0,.14-.79,20,20,0,0,1-.17-2.44,11.46,11.46,0,0,1,.07-2.11,4.07,4.07,0,0,0-.1-1.7c-.09-.31-.17-.69-.49-.83a5.54,5.54,0,0,0-1.22-.36,23,23,0,0,0-4.54-.13,3,3,0,0,0-1.41.2.62.62,0,0,1-.33.07c-.44,0-.61.06-.63.47-.12,1.66-.35,3.32-.32,5a.52.52,0,0,1,0,.18A3.77,3.77,0,0,0,36,39.73Z" fill="#fefefe"></path><path d="M31.79,27.58h0c0-.16,0-.33,0-.49A41.07,41.07,0,0,0,30,19.25a19.84,19.84,0,0,0-2.91-5.95.37.37,0,0,1-.07-.12c-.12-.62-.68-.79-1.09-1.11a.3.3,0,0,0-.47,0c-.12.18-.47.27-.32.57a1.62,1.62,0,0,0,1.16,1,1.07,1.07,0,0,1,.76.53A24.42,24.42,0,0,1,29.92,21a43.23,43.23,0,0,1,1.27,5.74A2.54,2.54,0,0,1,31,28.46a3.36,3.36,0,0,0-.41,2c0,2.77.18,5.54.26,8.3,0,1.49-.06,3,.08,4.46a15.31,15.31,0,0,1,0,3.45,1,1,0,0,0,.92,1.25,1.16,1.16,0,0,0,1.38-.83A3.76,3.76,0,0,0,33.36,46c0-3,.19-6,.16-8.95a29.47,29.47,0,0,0-.17-4.41,14,14,0,0,1,0-3.82.48.48,0,0,0-.19-.48c-.22-.15-.21-.33-.16-.56a26.28,26.28,0,0,1,2.12-6,26.69,26.69,0,0,1,2.63-4.23A21.64,21.64,0,0,1,40,14.63c.3-.28.34-.73.51-1.09.05-.13.22-.28,0-.39s-.47-.3-.68-.1A2.24,2.24,0,0,0,39,14.28a2.91,2.91,0,0,1-.64,1.4c-.28.4-.56.8-.85,1.19a28.43,28.43,0,0,0-4.43,8.4c-.27.88-.47,1.77-.71,2.65-.07.27-.23.3-.45.27s-.18-.2-.17-.36A2,2,0,0,0,31.79,27.58Z" fill="#fefefe"></path><path d="M27,45.72a2.87,2.87,0,0,0-1.07-1.88c-.24-.26-.67-.21-.86-.46-.5-.65-1.27-.66-1.93-.91a.59.59,0,0,0-.32,0,8,8,0,0,1-2.13.29.23.23,0,0,0-.19.07c-.32.36-.84.49-1,1a2.37,2.37,0,0,1-.36.49c-.07.1-.19.19-.2.33a11.83,11.83,0,0,0-.27,1.88,2.87,2.87,0,0,0,.15,1.22,9.74,9.74,0,0,0,.95,1.81,3,3,0,0,0,2.53,1.37A2.64,2.64,0,0,1,23,51a1.23,1.23,0,0,0,1.35-.44.72.72,0,0,1,.4-.27.83.83,0,0,0,.37-.2c.45-.43.88-.88,1.36-1.26a1.92,1.92,0,0,0,.63-1.37A8.3,8.3,0,0,0,27,45.72Z" fill="#fefefe"></path><path d="M37.47,47.21a2.49,2.49,0,0,0,.41,1.51.9.9,0,0,1,.17.3,3.41,3.41,0,0,0,1.81,2.12A1.62,1.62,0,0,0,41,51.4a2,2,0,0,1,.74.09A1.33,1.33,0,0,0,43.2,51a.58.58,0,0,1,.31-.22,1.14,1.14,0,0,0,.54-.33c.36-.35.72-.72,1.12-1a2.27,2.27,0,0,0,.77-2.2,3.37,3.37,0,0,1-.12-.79c.12-.75-.34-1.22-.72-1.74-.27-.36-.73-.49-1.07-.74a4.57,4.57,0,0,0-1.48-.82,2.32,2.32,0,0,0-1.2-.15,5.54,5.54,0,0,1-1.5.25c-.64,0-1,.41-1.33.75a8.82,8.82,0,0,0-.64.89,1.2,1.2,0,0,0-.17.42A5.15,5.15,0,0,0,37.47,47.21Z" fill="#fefefe"></path><path d="M48.56,51.56a3.76,3.76,0,0,0,1,2.51,3.3,3.3,0,0,0,2.72,1c.63,0,.94-.49,1.39-.75a5.65,5.65,0,0,0,1.23-1.12,1.67,1.67,0,0,0,.49-1.11c0-.38-.19-.72-.2-1.07a2.33,2.33,0,0,0-.93-1.67c-.19-.18-.47-.12-.62-.32A2.57,2.57,0,0,0,52,48.28c-.32-.09-.65.11-1,.14a2.81,2.81,0,0,0-1.06.23c-.5.27-.75.77-1.11,1.17a1,1,0,0,0-.13.29A3.26,3.26,0,0,0,48.56,51.56Z" fill="#fefefe"></path><path d="M9.62,50A3.15,3.15,0,0,0,10,51.64a3.66,3.66,0,0,0,1.62,1.72.86.86,0,0,0,.62.14,2,2,0,0,1,.77,0,1,1,0,0,0,1.11-.32.36.36,0,0,1,.16-.14,5.23,5.23,0,0,0,1.57-1.27,1.7,1.7,0,0,0,.54-1.24c0-.35-.19-.67-.19-1a2.35,2.35,0,0,0-1-1.76c-.15-.14-.4-.07-.5-.23-.32-.47-.85-.52-1.31-.71s-1,.1-1.47.1a1.86,1.86,0,0,0-.79.15,2.91,2.91,0,0,0-1.3,1.45A2.26,2.26,0,0,0,9.62,50Z" fill="#fefefe"></path><path d="M55.42,12.46v1c0,.67.14.84.82.79a22.57,22.57,0,0,0,3.07-.17c.59-.11.91-.41.88-1s-.1-1-.1-1.52A7.24,7.24,0,0,1,60,10.08c.09-.48-.12-.7-.62-.71a24.6,24.6,0,0,0-3.54.13c-.16,0-.29.07-.34.22a1.54,1.54,0,0,0-.17.93A9.18,9.18,0,0,1,55.42,12.46Z" fill="#fefefe"></path><path d="M6.7,9.64a11.13,11.13,0,0,0-2.23.12c-.15,0-.29.06-.34.21A1.9,1.9,0,0,0,4,11.12a2,2,0,0,1,.08.42c0,.81,0,1.63,0,2.45,0,.36.18.49.55.5.94,0,1.87-.07,2.81-.08a3.73,3.73,0,0,0,.67-.09c.32,0,.46-.21.48-.55a8.18,8.18,0,0,0,0-1.31,8.93,8.93,0,0,1,0-2.13c.07-.48-.13-.68-.63-.69Z" fill="#fefefe"></path><path d="M42.3,27.28a1.29,1.29,0,0,0-.45-1,3.39,3.39,0,0,0-2.18-.58c-1.19.12-1.8.59-1.93,1.76-.1.8-.1,1.62.8,2.06.06,0,.1.1.16.14a2,2,0,0,0,1.72.32A3.56,3.56,0,0,0,41.78,29C42.28,28.58,42.15,27.88,42.3,27.28Z" fill="#fefefe"></path><path d="M51.16,9.35A2.84,2.84,0,0,0,49.4,10c-.77.66-.59,2.07-.27,2.78a.55.55,0,0,0,.19.21c.26.17.51.34.78.5a1.87,1.87,0,0,0,2.15-.16c.16-.15.37-.26.54-.4a1.41,1.41,0,0,0,.57-1,1.72,1.72,0,0,1,.08-.59A1.46,1.46,0,0,0,53,10,3.63,3.63,0,0,0,51.16,9.35Z" fill="#fefefe"></path><path d="M17.49,14.77a2.53,2.53,0,0,0-2.07,1.1,1.82,1.82,0,0,0-.12.72,2,2,0,0,0,.81,2.11,2.06,2.06,0,0,0,2.72-.13c.09-.09.23-.13.32-.22a1.5,1.5,0,0,0,.59-1.1,1.49,1.49,0,0,1,.08-.52,1.43,1.43,0,0,0-.38-1.34A3.75,3.75,0,0,0,17.49,14.77Z" fill="#fefefe"></path><path d="M46.6,18.5a2.91,2.91,0,0,0,2.27-1.24,2.45,2.45,0,0,0,.28-1,1.64,1.64,0,0,0,0-1,1.17,1.17,0,0,0-.67-.64,5.24,5.24,0,0,0-1.2-.44,2.51,2.51,0,0,0-2.46,1,1.72,1.72,0,0,0-.18,1,2,2,0,0,0,.31,1.39A2.83,2.83,0,0,0,46.6,18.5Z" fill="#fefefe"></path><path d="M21.21,19.89a2.6,2.6,0,0,0-2,.86,1.64,1.64,0,0,0-.29.91A2,2,0,0,0,20.12,24a2.1,2.1,0,0,0,1.34.22,3.12,3.12,0,0,0,1.15-.66,1.44,1.44,0,0,0,.76-1.36.47.47,0,0,1,0-.17,1.2,1.2,0,0,0,0-1,1.4,1.4,0,0,0-.68-.7A4.26,4.26,0,0,0,21.21,19.89Z" fill="#fefefe"></path><path d="M43.17,19.71A3.56,3.56,0,0,0,42,20a1.36,1.36,0,0,0-.9,1.47,1.07,1.07,0,0,1,0,.25A1.92,1.92,0,0,0,42.47,24a2.07,2.07,0,0,0,.87.13c.7,0,1.13-.57,1.64-.93a1.1,1.1,0,0,0,.44-.77,5.91,5.91,0,0,1,.13-.94.91.91,0,0,0-.06-.49,1.3,1.3,0,0,0-.83-.8A4.13,4.13,0,0,0,43.17,19.71Z" fill="#fefefe"></path><path d="M23.93,25.76a8,8,0,0,0-1.08.26,1.34,1.34,0,0,0-1,1.48,1.49,1.49,0,0,1,0,.21A2,2,0,0,0,23.27,30a2,2,0,0,0,.95.11,2.86,2.86,0,0,0,1.14-.61A1.66,1.66,0,0,0,26.23,28a.38.38,0,0,1,0-.18,1.35,1.35,0,0,0-.1-1.09c-.15-.35-.48-.35-.72-.52A3.7,3.7,0,0,0,23.93,25.76Z" fill="#fefefe"></path><path d="M13.65,9.91a2.46,2.46,0,0,0-2,1,1.45,1.45,0,0,0-.18.89,1.89,1.89,0,0,0,.94,2.14,2.24,2.24,0,0,0,1.56.31,3.22,3.22,0,0,0,1.48-1,1.15,1.15,0,0,0,.39-1.09c0-.1,0-.22.08-.33a1.35,1.35,0,0,0-.34-1.24A4.06,4.06,0,0,0,13.65,9.91Z" fill="#fefefe"></path><path d="M54.38,16.07l-.5,0c-.19,0-.37,0-.56,0-.68,0-.94.26-.82.93s0,1.61.12,2.41c.05.5.15.62.66.6L55.76,20c.36,0,.47-.17.53-.53a21.46,21.46,0,0,0,0-2.27,2,2,0,0,0,0-.68.43.43,0,0,0-.44-.37Z" fill="#fefefe"></path><path d="M49.51,37.19v-.08h2c.3,0,.43-.19.46-.48a5.06,5.06,0,0,0,0-1.23c0-.53,0-1.07-.07-1.6s-.16-.53-.56-.53-.57-.05-.85,0a13.2,13.2,0,0,0-1.88.08.44.44,0,0,0-.37.35,3.17,3.17,0,0,0,0,1.23c0,.63,0,1.26.05,1.89a.39.39,0,0,0,.46.41Z" fill="#fefefe"></path><path d="M13.23,25.56a12.93,12.93,0,0,0,1.7-.08c.57-.09.72-.26.74-.84,0-.34-.16-.63-.15-1a8.25,8.25,0,0,0,0-1.57.42.42,0,0,0-.48-.41,5.43,5.43,0,0,1-.57,0,8.76,8.76,0,0,0-2.23,0,.48.48,0,0,0-.39.37,3.24,3.24,0,0,0,0,1.12c0,.65,0,1.31.06,2,0,.28.13.41.42.4Z" fill="#fefefe"></path><path d="M45.3,29.38c0,.33,0,.67,0,1,0,.48.17.61.64.6l2.56-.08a.45.45,0,0,0,.5-.48,7.49,7.49,0,0,0,0-1.16c-.08-.55-.06-1.12-.09-1.67s-.13-.52-.55-.54A19.38,19.38,0,0,0,46,27c-.6.05-.9.37-.77,1A8,8,0,0,1,45.3,29.38Z" fill="#fefefe"></path><path d="M48.43,24v.78c0,.51.13.63.64.62l2.56-.08A.43.43,0,0,0,52.1,25a2.36,2.36,0,0,0,.1-.87A12.76,12.76,0,0,1,52.07,22c0-.49-.09-.59-.58-.61a21.53,21.53,0,0,0-2.41,0c-.59,0-.87.36-.76.93A8.55,8.55,0,0,1,48.43,24Z" fill="#fefefe"></path><path d="M48.07,41.16V42c0,.45.15.6.61.59.85,0,1.71-.05,2.56-.08.19,0,.39-.06.44-.25a2.19,2.19,0,0,0,.13-1,8.07,8.07,0,0,1-.1-1.19,8.78,8.78,0,0,0,0-1c-.06-.28-.2-.42-.49-.4a2.72,2.72,0,0,1-.57,0,8,8,0,0,0-2,0,.74.74,0,0,0-.71,1A7,7,0,0,1,48.07,41.16Z" fill="#fefefe"></path><path d="M7.93,18.57c0,.38,0,.76,0,1.14s.14.37.41.36c.91,0,1.83,0,2.74,0a.48.48,0,0,0,.51-.51,5.23,5.23,0,0,0,0-1.12c-.08-.55-.06-1.11-.09-1.67,0-.29-.09-.54-.46-.54a16.5,16.5,0,0,0-2.63,0c-.45.07-.56.13-.61.58a1.19,1.19,0,0,0,0,.46A11.91,11.91,0,0,1,7.93,18.57Z" fill="#fefefe"></path><path d="M13.1,40.23c0,.3,0,.59,0,.89s.16.57.56.56l2.63-.08a.43.43,0,0,0,.46-.44,4.29,4.29,0,0,0,0-1.29,12.25,12.25,0,0,1,0-1.49c0-.45-.15-.61-.51-.62a17.77,17.77,0,0,0-2.42,0c-.69.07-.93.31-.8,1A8.29,8.29,0,0,1,13.1,40.23Z" fill="#fefefe"></path><path d="M15.81,29.3V30c0,.5.13.62.62.61L19,30.55a.42.42,0,0,0,.45-.42,3.92,3.92,0,0,0,.05-1.19,9.84,9.84,0,0,1-.08-1.63c0-.47-.15-.6-.56-.61-.79,0-1.59-.05-2.38,0-.63,0-1,.39-.81,1A8,8,0,0,1,15.81,29.3Z" fill="#fefefe"></path><path d="M12.6,35c0,.29,0,.57,0,.86s.17.6.59.56c.88-.09,1.76,0,2.63-.12.28,0,.39-.15.44-.44a20.19,20.19,0,0,0,0-2.2,5.51,5.51,0,0,0-.05-.81.34.34,0,0,0-.33-.35,19.93,19.93,0,0,0-2.56,0c-.7.06-.94.37-.8,1.07A8.2,8.2,0,0,1,12.6,35Z" fill="#fefefe"></path><path d="M12.21,30.1h0v.68c0,.11,0,.21.17.21l1.81,0c.16,0,.26-.07.26-.23a11.84,11.84,0,0,0,0-1.46.37.37,0,0,0-.36-.37,5.82,5.82,0,0,0-1.56,0c-.15,0-.21.09-.22.23C12.27,29.48,12.24,29.79,12.21,30.1Z" fill="#fefefe"></path><path d="M52.06,31v0h.85c.19,0,.29-.07.29-.27,0-.45,0-.9,0-1.35a.4.4,0,0,0-.37-.44,7.5,7.5,0,0,0-1.57,0c-.15,0-.18.1-.21.24-.07.49,0,1-.08,1.49,0,.28.08.35.34.33A6.26,6.26,0,0,1,52.06,31Z" fill="#fefefe"></path><path d="M51.91,44.93h0c0,.25,0,.5,0,.75s0,.29.23.29a10.14,10.14,0,0,0,1.46,0,.39.39,0,0,0,.37-.47c0-.44-.06-.87-.08-1.31,0-.21-.13-.25-.31-.25H52.4c-.46,0-.5.06-.49.53Z" fill="#fefefe"></path><path d="M13.09,45.45h.75a.4.4,0,0,0,.44-.44c0-.45-.06-.9-.09-1.34a.2.2,0,0,0-.23-.21,7.17,7.17,0,0,0-1.39,0c-.34,0-.4.22-.36.51s.06.47.1.7-.13.6.09.78S12.93,45.42,13.09,45.45Z" fill="#fefefe"></path><path d="M1.9,12.08a12.68,12.68,0,0,0,2.47,7.51c1.3,1.84,2.82,3.5,4.28,5.21.36.42.71.86,1,1.3a6.35,6.35,0,0,1,.79,6.81,5.4,5.4,0,0,1-.93,1.59c-.13.14-.12.22,0,.35a5.13,5.13,0,0,1,1.32,2.44,2,2,0,0,1,0,.85,29.23,29.23,0,0,1-2.37,8,18,18,0,0,0-1.49,5.77,5.37,5.37,0,0,0,.34,2.38,3.64,3.64,0,0,0,3.5,2.34,4.43,4.43,0,0,0,3.19-1c.72-.57,1.48-1.08,2.22-1.61.2-.14.39-.19.58,0a.43.43,0,0,1,.08.61,16.38,16.38,0,0,1-2.29,2.76,5.77,5.77,0,0,1-9.44-3.14,11.15,11.15,0,0,1,.18-5,33.68,33.68,0,0,1,2.06-6A42.47,42.47,0,0,0,8.82,39a3,3,0,0,0-1.23-3.16l-.74-.5a.66.66,0,0,1-.07-1.16l.56-.5A4.85,4.85,0,0,0,9,29.22a2.82,2.82,0,0,0-.46-1.15,18.57,18.57,0,0,0-1.76-2.29,53.06,53.06,0,0,1-3.87-4.85A14.66,14.66,0,0,1,.1,13.62,10.85,10.85,0,0,1,.75,8.37,6.71,6.71,0,0,1,2.63,5.81a4.34,4.34,0,0,1,3.72-1l1.58.28a4.43,4.43,0,0,1,3.15,3.6c0,.31-.19.42-.43.52s-.32-.05-.43-.22a5.54,5.54,0,0,0-3.8-2.42,3.24,3.24,0,0,0-3.78,2A6.58,6.58,0,0,0,1.9,12.08Z" fill="#1c1c1c"></path><path d="M64,12.17a12.49,12.49,0,0,1-1.82,7,28,28,0,0,0-1.58,2.7c-.92,1.79-1.74,3.62-2.55,5.45a7.1,7.1,0,0,0-.31,4.13c.08.5.48.74.91.92s.62.31.62.74a.65.65,0,0,1-.24.56A10.6,10.6,0,0,0,57.86,35l0,0c-.63,1.66-1.3,3.31-.39,5.1.81,1.59,1.6,3.18,2.34,4.8a12.26,12.26,0,0,1,1.12,6.9,9.61,9.61,0,0,1-7,7.86A6,6,0,0,1,48,58.05a13,13,0,0,1-2.56-3.36,2.3,2.3,0,0,1-.15-.32.46.46,0,0,1,.18-.57c.2-.15.35,0,.5.11,1,1,2.08,1.87,3.18,2.75a4.67,4.67,0,0,0,5,.65,7.25,7.25,0,0,0,4.55-5.79,9.85,9.85,0,0,0-1.06-6.05c-.74-1.52-1.45-3-2.14-4.58a5.91,5.91,0,0,1-.37-4c.17-.69.39-1.37.6-2a3.61,3.61,0,0,1,.69-1.16c.1-.13.18-.25.05-.4-1-1.2-.93-2.65-.87-4.07a8.5,8.5,0,0,1,1-3.47c.47-.94.92-1.9,1.33-2.87a20.8,20.8,0,0,1,2.2-3.94c2.16-3.11,2.4-6.53,1.64-10.1a3.83,3.83,0,0,0-2.12-2.51,1.16,1.16,0,0,0-.76-.09,6.3,6.3,0,0,0-3.16,1.11.47.47,0,0,1-.67,0c-.26-.21-.14-.42,0-.64A1.87,1.87,0,0,1,55.54,6a6.74,6.74,0,0,1,3.93-1.49,1.22,1.22,0,0,1,.63.11,5.91,5.91,0,0,1,3.18,3,9,9,0,0,1,.47,1.9A12.49,12.49,0,0,1,64,12.17Z" fill="#1c1c1c"></path><path d="M28,35.65c-.12.54.11,1.27,0,2-.07.4.24.73.21,1.14s0,1,0,1.52a.47.47,0,0,1-.6.44,3.57,3.57,0,0,0-1.26-.07c-.74,0-1.49.06-2.23,0s-1.27,0-1.91,0c-.88,0-1.75,0-2.63-.06-.44,0-.73-.48-.68-1a5.74,5.74,0,0,0,0-1.55,1.9,1.9,0,0,1,0-.71A7.84,7.84,0,0,0,18.93,35a4.28,4.28,0,0,1,.24-2.09c.17-.45.52-.53.86-.62a8,8,0,0,1,2.71-.24c.54,0,1.07-.11,1.6-.07a7.26,7.26,0,0,0,1.31.08,3.27,3.27,0,0,1,1.28.2c.18,0,.4-.15.59,0s.19.17.2.32A26.39,26.39,0,0,1,28,35.65Z" fill="#e41f3b"></path><path d="M36,39.73a3.77,3.77,0,0,1,.17-1.4.52.52,0,0,0,0-.18c0-1.67.2-3.33.32-5,0-.41.19-.51.63-.47a.62.62,0,0,0,.33-.07,3,3,0,0,1,1.41-.2,23,23,0,0,1,4.54.13,5.54,5.54,0,0,1,1.22.36c.32.14.4.52.49.83a4.07,4.07,0,0,1,.1,1.7,11.46,11.46,0,0,0-.07,2.11A20,20,0,0,0,45.35,40a1.21,1.21,0,0,1-.14.79.56.56,0,0,1-.52.32c-.67,0-1.32.06-2,0-1.3,0-2.6,0-3.91,0-.61,0-1.22,0-1.83,0-.29,0-.6.2-.82-.1a1.3,1.3,0,0,1-.1-.83A3.17,3.17,0,0,0,36,39.73Z" fill="#e41f3b"></path><path d="M31.79,27.58a2,2,0,0,1,0,.25c0,.16-.06.33.17.36s.38,0,.45-.27c.24-.88.44-1.77.71-2.65a28.43,28.43,0,0,1,4.43-8.4c.29-.39.57-.79.85-1.19a2.91,2.91,0,0,0,.64-1.4,2.24,2.24,0,0,1,.75-1.23c.21-.2.47,0,.68.1s.06.26,0,.39c-.17.36-.21.81-.51,1.09a21.64,21.64,0,0,0-2.21,2.91,26.69,26.69,0,0,0-2.63,4.23,26.28,26.28,0,0,0-2.12,6c0,.23-.06.41.16.56a.48.48,0,0,1,.19.48,14,14,0,0,0,0,3.82,29.47,29.47,0,0,1,.17,4.41c0,3-.15,6-.16,8.95a3.76,3.76,0,0,1-.13,1.06,1.16,1.16,0,0,1-1.38.83,1,1,0,0,1-.92-1.25,15.31,15.31,0,0,0,0-3.45c-.14-1.48,0-3-.08-4.46-.08-2.76-.24-5.53-.26-8.3a3.36,3.36,0,0,1,.41-2,2.54,2.54,0,0,0,.17-1.74A43.23,43.23,0,0,0,29.92,21,24.42,24.42,0,0,0,27,14.23a1.07,1.07,0,0,0-.76-.53,1.62,1.62,0,0,1-1.16-1c-.15-.3.2-.39.32-.57a.3.3,0,0,1,.47,0c.41.32,1,.49,1.09,1.11a.37.37,0,0,0,.07.12A19.84,19.84,0,0,1,30,19.25a41.07,41.07,0,0,1,1.79,7.84c0,.16,0,.33,0,.49Z" fill="#1e1e1e"></path><path d="M27,45.72a8.3,8.3,0,0,1,.12,1.72,1.92,1.92,0,0,1-.63,1.37c-.48.38-.91.83-1.36,1.26a.83.83,0,0,1-.37.2.72.72,0,0,0-.4.27A1.23,1.23,0,0,1,23,51a2.64,2.64,0,0,0-.74-.1,3,3,0,0,1-2.53-1.37,9.74,9.74,0,0,1-.95-1.81,2.87,2.87,0,0,1-.15-1.22,11.83,11.83,0,0,1,.27-1.88c0-.14.13-.23.2-.33a2.37,2.37,0,0,0,.36-.49c.19-.5.71-.63,1-1a.23.23,0,0,1,.19-.07,8,8,0,0,0,2.13-.29.59.59,0,0,1,.32,0c.66.25,1.43.26,1.93.91.19.25.62.2.86.46A2.87,2.87,0,0,1,27,45.72Z" fill="#389ed8"></path><path d="M37.47,47.21a5.15,5.15,0,0,1,.24-1.91,1.2,1.2,0,0,1,.17-.42,8.82,8.82,0,0,1,.64-.89c.36-.34.69-.78,1.33-.75a5.54,5.54,0,0,0,1.5-.25,2.32,2.32,0,0,1,1.2.15A4.57,4.57,0,0,1,44,44c.34.25.8.38,1.07.74.38.52.84,1,.72,1.74a3.37,3.37,0,0,0,.12.79,2.27,2.27,0,0,1-.77,2.2c-.4.32-.76.69-1.12,1a1.14,1.14,0,0,1-.54.33.58.58,0,0,0-.31.22,1.33,1.33,0,0,1-1.45.47A2,2,0,0,0,41,51.4a1.62,1.62,0,0,1-1.15-.26A3.41,3.41,0,0,1,38.05,49a.9.9,0,0,0-.17-.3A2.49,2.49,0,0,1,37.47,47.21Z" fill="#389ed8"></path><path d="M48.56,51.56a3.26,3.26,0,0,1,.18-1.45,1,1,0,0,1,.13-.29c.36-.4.61-.9,1.11-1.17A2.81,2.81,0,0,1,51,48.42c.33,0,.66-.23,1-.14a2.57,2.57,0,0,1,1.59.74c.15.2.43.14.62.32A2.33,2.33,0,0,1,55.16,51c0,.35.21.69.2,1.07a1.67,1.67,0,0,1-.49,1.11,5.65,5.65,0,0,1-1.23,1.12c-.45.26-.76.78-1.39.75a3.3,3.3,0,0,1-2.72-1A3.76,3.76,0,0,1,48.56,51.56Z" fill="#389ed8"></path><path d="M9.62,50a2.26,2.26,0,0,1,.22-1.4,2.91,2.91,0,0,1,1.3-1.45,1.86,1.86,0,0,1,.79-.15c.49,0,1-.31,1.47-.1s1,.24,1.31.71c.1.16.35.09.5.23a2.35,2.35,0,0,1,1,1.76c0,.32.19.64.19,1a1.7,1.7,0,0,1-.54,1.24,5.23,5.23,0,0,1-1.57,1.27.36.36,0,0,0-.16.14,1,1,0,0,1-1.11.32,2,2,0,0,0-.77,0,.86.86,0,0,1-.62-.14A3.66,3.66,0,0,1,10,51.64,3.15,3.15,0,0,1,9.62,50Z" fill="#389ed8"></path><path d="M55.42,12.46a9.18,9.18,0,0,0-.12-1.81,1.54,1.54,0,0,1,.17-.93c.05-.15.18-.2.34-.22a24.6,24.6,0,0,1,3.54-.13c.5,0,.71.23.62.71a7.24,7.24,0,0,0,.12,1.47c0,.5.08,1,.1,1.52s-.29.9-.88,1a22.57,22.57,0,0,1-3.07.17c-.68.05-.81-.12-.82-.79Z" fill="#aaa69c"></path><path d="M6.7,9.64H8c.5,0,.7.21.63.69a8.93,8.93,0,0,0,0,2.13,8.18,8.18,0,0,1,0,1.31c0,.34-.16.51-.48.55a3.73,3.73,0,0,1-.67.09c-.94,0-1.87.11-2.81.08-.37,0-.54-.14-.55-.5,0-.82,0-1.64,0-2.45A2,2,0,0,0,4,11.12,1.9,1.9,0,0,1,4.13,10c0-.15.19-.18.34-.21A11.13,11.13,0,0,1,6.7,9.64Z" fill="#aaa69c"></path><path d="M42.3,27.28c-.15.6,0,1.3-.52,1.74a3.56,3.56,0,0,1-1.36.93,2,2,0,0,1-1.72-.32c-.06,0-.1-.1-.16-.14-.9-.44-.9-1.26-.8-2.06.13-1.17.74-1.64,1.93-1.76a3.39,3.39,0,0,1,2.18.58A1.29,1.29,0,0,1,42.3,27.28Z" fill="#f4b74f"></path><path d="M51.16,9.35A3.63,3.63,0,0,1,53,10a1.46,1.46,0,0,1,.41,1.32,1.72,1.72,0,0,0-.08.59,1.41,1.41,0,0,1-.57,1c-.17.14-.38.25-.54.4a1.87,1.87,0,0,1-2.15.16c-.27-.16-.52-.33-.78-.5a.55.55,0,0,1-.19-.21c-.32-.71-.5-2.12.27-2.78A2.84,2.84,0,0,1,51.16,9.35Z" fill="#f4b74f"></path><path d="M17.49,14.77a3.75,3.75,0,0,1,2,.62,1.43,1.43,0,0,1,.38,1.34,1.49,1.49,0,0,0-.08.52,1.5,1.5,0,0,1-.59,1.1c-.09.09-.23.13-.32.22a2.06,2.06,0,0,1-2.72.13,2,2,0,0,1-.81-2.11,1.82,1.82,0,0,1,.12-.72A2.53,2.53,0,0,1,17.49,14.77Z" fill="#f4b74f"></path><path d="M46.6,18.5a2.83,2.83,0,0,1-1.66-.94,2,2,0,0,1-.31-1.39,1.72,1.72,0,0,1,.18-1,2.51,2.51,0,0,1,2.46-1,5.24,5.24,0,0,1,1.2.44,1.17,1.17,0,0,1,.67.64,1.64,1.64,0,0,1,0,1,2.45,2.45,0,0,1-.28,1A2.91,2.91,0,0,1,46.6,18.5Z" fill="#f4b74f"></path><path d="M21.21,19.89a4.26,4.26,0,0,1,1.5.45,1.4,1.4,0,0,1,.68.7,1.2,1.2,0,0,1,0,1,.47.47,0,0,0,0,.17,1.44,1.44,0,0,1-.76,1.36,3.12,3.12,0,0,1-1.15.66A2.1,2.1,0,0,1,20.12,24a2,2,0,0,1-1.19-2.35,1.64,1.64,0,0,1,.29-.91A2.6,2.6,0,0,1,21.21,19.89Z" fill="#f4b74f"></path><path d="M43.17,19.71a4.13,4.13,0,0,1,1.49.44,1.3,1.3,0,0,1,.83.8.91.91,0,0,1,.06.49,5.91,5.91,0,0,0-.13.94,1.1,1.1,0,0,1-.44.77c-.51.36-.94.88-1.64.93a2.07,2.07,0,0,1-.87-.13,1.92,1.92,0,0,1-1.41-2.24,1.07,1.07,0,0,0,0-.25A1.36,1.36,0,0,1,42,20,3.56,3.56,0,0,1,43.17,19.71Z" fill="#f4b74f"></path><path d="M23.93,25.76a3.7,3.7,0,0,1,1.51.45c.24.17.57.17.72.52a1.35,1.35,0,0,1,.1,1.09.38.38,0,0,0,0,.18,1.66,1.66,0,0,1-.87,1.52,2.86,2.86,0,0,1-1.14.61,2,2,0,0,1-.95-.11,2,2,0,0,1-1.42-2.31,1.49,1.49,0,0,0,0-.21,1.34,1.34,0,0,1,1-1.48A8,8,0,0,1,23.93,25.76Z" fill="#f4b74f"></path><path d="M13.65,9.91a4.06,4.06,0,0,1,2,.66A1.35,1.35,0,0,1,16,11.81c0,.11-.11.23-.08.33a1.15,1.15,0,0,1-.39,1.09,3.22,3.22,0,0,1-1.48,1,2.24,2.24,0,0,1-1.56-.31,1.89,1.89,0,0,1-.94-2.14,1.45,1.45,0,0,1,.18-.89A2.46,2.46,0,0,1,13.65,9.91Z" fill="#f4b74f"></path><path d="M54.38,16.07l1.39.06a.43.43,0,0,1,.44.37,2,2,0,0,1,0,.68,21.46,21.46,0,0,1,0,2.27c-.06.36-.17.52-.53.53l-2.48.08c-.51,0-.61-.1-.66-.6-.08-.8,0-1.6-.12-2.41s.14-.91.82-.93c.19,0,.37,0,.56,0Z" fill="#aaa69d"></path><path d="M49.51,37.19H48.8a.39.39,0,0,1-.46-.41c-.08-.63,0-1.26-.05-1.89a3.17,3.17,0,0,1,0-1.23.44.44,0,0,1,.37-.35,13.2,13.2,0,0,1,1.88-.08c.28,0,.57,0,.85,0s.54.13.56.53,0,1.07.07,1.6a5.06,5.06,0,0,1,0,1.23c0,.29-.16.47-.46.48h-2Z" fill="#aaa69d"></path><path d="M13.23,25.56H12.3c-.29,0-.42-.12-.42-.4,0-.65,0-1.31-.06-2a3.24,3.24,0,0,1,0-1.12.48.48,0,0,1,.39-.37,8.76,8.76,0,0,1,2.23,0,5.43,5.43,0,0,0,.57,0,.42.42,0,0,1,.48.41,8.25,8.25,0,0,1,0,1.57c0,.34.17.63.15,1,0,.58-.17.75-.74.84A12.93,12.93,0,0,1,13.23,25.56Z" fill="#aaa69d"></path><path d="M45.3,29.38A8,8,0,0,0,45.2,28c-.13-.59.17-.91.77-1a19.38,19.38,0,0,1,2.41,0c.42,0,.53.12.55.54s0,1.12.09,1.67a7.49,7.49,0,0,1,0,1.16.45.45,0,0,1-.5.48L45.94,31c-.47,0-.61-.12-.64-.6C45.29,30.05,45.3,29.71,45.3,29.38Z" fill="#aaa69d"></path><path d="M48.43,24a8.55,8.55,0,0,0-.11-1.6c-.11-.57.17-.9.76-.93a21.53,21.53,0,0,1,2.41,0c.49,0,.56.12.58.61a12.76,12.76,0,0,0,.13,2.05,2.36,2.36,0,0,1-.1.87.43.43,0,0,1-.47.31l-2.56.08c-.51,0-.63-.11-.64-.62Z" fill="#aaa69c"></path><path d="M48.07,41.16a7,7,0,0,0-.13-1.52.74.74,0,0,1,.71-1,8,8,0,0,1,2,0,2.72,2.72,0,0,0,.57,0c.29,0,.43.12.49.4a8.78,8.78,0,0,1,0,1,8.07,8.07,0,0,0,.1,1.19,2.19,2.19,0,0,1-.13,1c0,.19-.25.25-.44.25-.85,0-1.71.07-2.56.08-.46,0-.6-.14-.61-.59Z" fill="#aaa69c"></path><path d="M7.93,18.57a11.91,11.91,0,0,0-.11-1.34,1.19,1.19,0,0,1,0-.46c0-.45.16-.51.61-.58a16.5,16.5,0,0,1,2.63,0c.37,0,.45.25.46.54,0,.56,0,1.12.09,1.67a5.23,5.23,0,0,1,0,1.12.48.48,0,0,1-.51.51c-.91,0-1.83,0-2.74,0-.27,0-.4-.11-.41-.36S7.93,19,7.93,18.57Z" fill="#aaa69d"></path><path d="M13.1,40.23a8.29,8.29,0,0,0-.1-1.49c-.13-.69.11-.93.8-1a17.77,17.77,0,0,1,2.42,0c.36,0,.49.17.51.62a12.25,12.25,0,0,0,0,1.49,4.29,4.29,0,0,1,0,1.29.43.43,0,0,1-.46.44l-2.63.08c-.4,0-.55-.15-.56-.56S13.1,40.53,13.1,40.23Z" fill="#aaa69d"></path><path d="M15.81,29.3a8,8,0,0,0-.12-1.62c-.15-.6.18-1,.81-1,.79,0,1.59,0,2.38,0,.41,0,.54.14.56.61a9.84,9.84,0,0,0,.08,1.63,3.92,3.92,0,0,1-.05,1.19.42.42,0,0,1-.45.42l-2.59.08c-.49,0-.61-.11-.62-.61Z" fill="#aaa69c"></path><path d="M12.6,35a8.2,8.2,0,0,0-.11-1.48c-.14-.7.1-1,.8-1.07a19.93,19.93,0,0,1,2.56,0,.34.34,0,0,1,.33.35,5.51,5.51,0,0,1,.05.81,20.19,20.19,0,0,1,0,2.2c-.05.29-.16.41-.44.44-.87.1-1.75,0-2.63.12-.42,0-.58-.14-.59-.56S12.6,35.26,12.6,35Z" fill="#aaa69c"></path><path d="M12.21,30.1c0-.31.06-.62.08-.92,0-.14.07-.2.22-.23a5.82,5.82,0,0,1,1.56,0,.37.37,0,0,1,.36.37,11.84,11.84,0,0,1,0,1.46c0,.16-.1.23-.26.23l-1.81,0c-.16,0-.17-.1-.17-.21V30.1Z" fill="#e5223d"></path><path d="M52.06,31a6.26,6.26,0,0,0-.75,0c-.26,0-.36,0-.34-.33,0-.5,0-1,.08-1.49,0-.14.06-.23.21-.24a7.5,7.5,0,0,1,1.57,0,.4.4,0,0,1,.37.44c0,.45,0,.9,0,1.35,0,.2-.1.27-.29.27h-.85Z" fill="#e41f3b"></path><path d="M51.91,44.93v-.5c0-.47,0-.52.49-.53h1.21c.18,0,.3,0,.31.25,0,.44,0,.87.08,1.31a.39.39,0,0,1-.37.47,10.14,10.14,0,0,1-1.46,0c-.19,0-.23-.15-.23-.29s0-.5,0-.75Z" fill="#aaa69d"></path><path d="M13.09,45.45c-.16,0-.48.16-.69,0s-.05-.51-.09-.78-.06-.47-.1-.7,0-.46.36-.51a7.17,7.17,0,0,1,1.39,0,.2.2,0,0,1,.23.21c0,.44.07.89.09,1.34a.4.4,0,0,1-.44.44Z" fill="#aaa69d"></path></svg>