<svg xmlns="http://www.w3.org/2000/svg" xmlns:xlink="http://www.w3.org/1999/xlink" width="620.417" height="555.554" viewBox="0 0 620.417 555.554"><defs><clipPath id="a"><path d="M615.491,393.265c-17.38,81.011-82.316,143.62-163.8,158.626-45.752,8.429-89.464,1.919-127.128-15.524A127.944,127.944,0,0,0,243.6,527.9a203.037,203.037,0,0,1-61.491,3.761C85.8,523,9.117,446,.789,349.615A200.732,200.732,0,0,1,128.2,144.772a74.046,74.046,0,0,0,42.1-41.631A163.648,163.648,0,0,1,453.059,65.172a53.821,53.821,0,0,0,19.689,16.074,56.569,56.569,0,0,0,26.706,5.5c1.482-.058,2.979-.086,4.481-.082q4.02,0,7.968.345a102.634,102.634,0,0,1,90.572,129.377q-.178.676-.374,1.338a76.056,76.056,0,0,0-1.857,33.394,82.255,82.255,0,0,0,4.941,17.64,207.521,207.521,0,0,1,15.131,71.575,218.753,218.753,0,0,1-4.826,52.933Z" transform="translate(-0.004 0)" fill="none"></path></clipPath><clipPath id="b"><path d="M615.492,393.265A205.721,205.721,0,0,1,451.689,551.9c-41.381,7.618-81.074,3.017-116.151-10.827q-5.565-2.192-10.962-4.7a127.929,127.929,0,0,0-80.954-8.467,203.063,203.063,0,0,1-61.5,3.761A199.5,199.5,0,0,1,54.255,469.2h0A200.761,200.761,0,0,1,128.2,144.757a74.046,74.046,0,0,0,42.106-41.616A163.6,163.6,0,0,1,322.35,0q6.16,0,12.252.48h0a163.51,163.51,0,0,1,118.43,64.667,53.82,53.82,0,0,0,19.717,16.1,56.5,56.5,0,0,0,26.706,5.5q2.226-.086,4.481-.077,4.02,0,7.968.345l.926.082a102.652,102.652,0,0,1,89.646,129.291c-.12.456-.249.9-.374,1.343a75.889,75.889,0,0,0-1.857,33.389,81.906,81.906,0,0,0,4.941,17.64,207.561,207.561,0,0,1,15.126,71.58A218.7,218.7,0,0,1,615.492,393.265Z" transform="translate(-0.006)" fill="none"></path></clipPath></defs><g transform="translate(-0.004)"><g transform="translate(0.004 0)"><g clip-path="url(#a)"><path d="M-52.4,105.174v46.212H190.989V42.81" transform="translate(27.261 -22.273)" fill="none" stroke="#031439" stroke-miterlimit="10" stroke-width="1.96" opacity="0.16"></path><rect width="5.363" height="5.363" transform="translate(123.95 94.036)" fill="#01c7d4" opacity="0.21"></rect><rect width="5.363" height="5.363" transform="translate(142.789 94.036)" fill="#01c7d4" opacity="0.21"></rect><rect width="5.363" height="5.363" transform="translate(162.05 94.036)" fill="#4a4a64"></rect><rect width="5.363" height="5.363" transform="translate(180.845 94.036)" fill="#e8e6e6"></rect><rect width="5.363" height="5.363" transform="translate(199.636 94.036)" fill="#01c7d4" opacity="0.21"></rect><rect width="5.363" height="5.363" transform="translate(123.95 112.827)" fill="#01c7d4" opacity="0.21"></rect><rect width="5.363" height="5.363" transform="translate(142.789 112.827)" fill="#e8e6e6"></rect><rect width="5.363" height="5.363" transform="translate(162.05 112.827)" fill="#01c7d4" opacity="0.21"></rect><rect width="5.363" height="5.363" transform="translate(180.845 112.827)" fill="#01c7d4" opacity="0.21"></rect><rect width="5.363" height="5.363" transform="translate(199.636 112.827)" fill="#e8e6e6"></rect><line y2="495.13" transform="translate(231.461 -10.271)" fill="none" stroke="#031439" stroke-miterlimit="10" stroke-width="1.96" opacity="0.16"></line><line x2="268.133" transform="translate(-36.672 283.883)" fill="none" stroke="#031439" stroke-miterlimit="10" stroke-width="1.96" opacity="0.16"></line><rect width="239.513" height="73.993" transform="translate(-25.139 302.535)" fill="#01c7d4" opacity="0.21"></rect><rect width="239.513" height="73.993" transform="translate(-25.139 387.106)" fill="#01c7d4" opacity="0.21"></rect><rect width="239.513" height="13.994" transform="translate(-25.139 471.677)" fill="#01c7d4" opacity="0.21"></rect><line y2="509.522" transform="translate(411.244 -24.663)" fill="none" stroke="#031439" stroke-miterlimit="10" stroke-width="1.96" opacity="0.16"></line><line x1="265.298" transform="translate(411.244 147.737)" fill="none" stroke="#031439" stroke-miterlimit="10" stroke-width="1.96" opacity="0.16"></line><line x1="265.298" transform="translate(411.244 292.182)" fill="none" stroke="#031439" stroke-miterlimit="10" stroke-width="1.96" opacity="0.16"></line><rect width="239.513" height="73.993" transform="translate(425.429 302.535)" fill="#01c7d4" opacity="0.21"></rect><rect width="239.513" height="73.993" transform="translate(425.429 387.106)" fill="#01c7d4" opacity="0.21"></rect><rect width="239.513" height="13.994" transform="translate(425.429 471.677)" fill="#01c7d4" opacity="0.21"></rect><rect width="157.844" height="118.588" rx="16.01" transform="translate(425.429 162.469)" fill="#fff"></rect><rect width="130.582" height="98.104" rx="5.23" transform="translate(439.063 172.706)" fill="#01c7d4" opacity="0.06"></rect><rect width="23.79" height="30.419" transform="translate(439.063 108.447)" fill="#fff"></rect><rect width="23.79" height="30.419" transform="translate(467.722 108.447)" fill="#fff"></rect><rect width="23.79" height="30.419" transform="translate(499.201 108.447)" fill="#fff"></rect><rect width="23.79" height="18.378" transform="translate(439.063 82.902)" fill="#fff"></rect><rect width="52.017" height="21.473" rx="7.82" transform="translate(150.301 232.164)" fill="#031439" opacity="0.38"></rect><rect width="23.79" height="18.378" transform="translate(467.252 82.902)" fill="#fff"></rect><rect width="23.79" height="18.378" transform="translate(499.201 82.902)" fill="#fff"></rect><path d="M1115.93,172.81v10.357a8.026,8.026,0,0,0,8.021,8.021h133.182" transform="translate(-580.591 -89.908)" fill="none" stroke="#031439" stroke-miterlimit="10" stroke-width="1.96" opacity="0.16"></path><line x1="48.836" transform="translate(598.917 176.626)" fill="none" stroke="#031439" stroke-miterlimit="10" stroke-width="1.96" opacity="0.16"></line><circle cx="3.526" cy="3.526" r="3.526" transform="translate(605.941 172.711)" fill="#01c7d4" opacity="0.21"></circle><line x1="48.836" transform="translate(598.917 193.066)" fill="none" stroke="#031439" stroke-miterlimit="10" stroke-width="1.96" opacity="0.16"></line><line x1="48.836" transform="translate(598.917 209.981)" fill="none" stroke="#031439" stroke-miterlimit="10" stroke-width="1.96" opacity="0.16"></line><line x1="48.836" transform="translate(598.917 228.307)" fill="none" stroke="#031439" stroke-miterlimit="10" stroke-width="1.96" opacity="0.16"></line><circle cx="3.526" cy="3.526" r="3.526" transform="translate(605.941 224.392)" fill="#01c7d4" opacity="0.21"></circle><line x1="48.836" transform="translate(598.917 244.747)" fill="none" stroke="#031439" stroke-miterlimit="10" stroke-width="1.96" opacity="0.16"></line><line x1="48.836" transform="translate(598.917 261.662)" fill="none" stroke="#031439" stroke-miterlimit="10" stroke-width="1.96" opacity="0.16"></line><rect width="73.676" height="79.126" rx="16.16" transform="translate(-25.139 138.866)" fill="none" stroke="#031439" stroke-miterlimit="10" stroke-width="1.96" opacity="0.16"></rect><line x2="57.26" transform="translate(-18.236 186.877)" fill="none" stroke="#031439" stroke-miterlimit="10" stroke-width="1.96" opacity="0.16"></line><line x1="59.246" transform="translate(-18.236 203.975)" fill="none" stroke="#031439" stroke-miterlimit="10" stroke-width="1.96" opacity="0.16"></line><circle cx="4.471" cy="4.471" r="4.471" transform="translate(2.963 182.406)" fill="#01c7d4" opacity="0.21"></circle><circle cx="4.471" cy="4.471" r="4.471" transform="translate(29.506 199.504)" fill="#01c7d4" opacity="0.21"></circle><rect width="59.246" height="12.324" rx="4.32" transform="translate(-18.236 145.127)" fill="#031439" opacity="0.38"></rect><rect width="57.26" height="13.816" transform="translate(-18.236 164.609)" fill="#01c7d4" opacity="0.21"></rect><rect width="155.849" height="47.982" rx="12.86" transform="translate(51.694 226.474)" fill="none" stroke="#031439" stroke-miterlimit="10" stroke-width="1.96" opacity="0.16"></rect><rect width="39.227" height="39.227" transform="translate(106.238 230.983)" fill="#01c7d4" opacity="0.21"></rect><ellipse cx="157" cy="18" rx="157" ry="18" transform="translate(160 507)" fill="#d9dee5" opacity="0.2"></ellipse></g><path d="M748.37,501.49v6.539l10.5,10.751h6.5Z" transform="translate(-389.359 -260.912)" fill="#2e2141"></path><path d="M754.14,497.086l16.186,15.946v-7.306l-8.88-9.216Z" transform="translate(-392.361 -258.321)" fill="#2e2141"></path><path d="M777.13,497.2l5.157,5.162V497.2Z" transform="translate(-404.322 -258.68)" fill="#2e2141"></path><path d="M748.37,524.19v6.4h6.16Z" transform="translate(-389.359 -272.722)" fill="#2e2141"></path><rect width="17.265" height="5.114" rx="2.557" transform="translate(390.419 167.391)" fill="#787184"></rect><rect width="21.161" height="5.114" rx="2.557" transform="translate(389.877 176.189)" fill="#787184"></rect><path d="M912.114,331.9h20.739a3.229,3.229,0,0,1,3.229,3.224h0a3.224,3.224,0,0,1-3.229,3.219H912.114a3.219,3.219,0,0,1-3.224-3.219h0A3.224,3.224,0,0,1,912.114,331.9Z" transform="translate(-472.873 -172.679)" fill="#fff"></path><path d="M921.738,352.28h20.734A3.224,3.224,0,0,1,945.7,355.5h0a3.224,3.224,0,0,1-3.229,3.224H921.738a3.224,3.224,0,0,1-3.229-3.224h0A3.224,3.224,0,0,1,921.738,352.28Z" transform="translate(-477.878 -183.282)" fill="#fff"></path><path d="M565.114,615.284l-55.255,77.337A22.787,22.787,0,0,1,481.6,705.257c-10.5-3.684-17.347-14.872-3.262-45.574,0,0,26.893-74.017,41.583-76.756S578.061,585.565,565.114,615.284Z" transform="translate(-244.725 -302.953)" fill="#031439"></path><path d="M638.756,614.209l55.212,78.3a22.811,22.811,0,0,0,28.27,12.636c10.492-3.684,17.865-14.934,3.78-45.708,0,0-27.421-73.9-42.1-76.66S625.765,584.5,638.756,614.209Z" transform="translate(-331.085 -302.842)" fill="#031439"></path><path d="M435.35,767.057l-27.09,96.06A20.5,20.5,0,0,0,420.9,888.063c9.786,3.449,22.422-.528,33.039-31.451l24.231-89.781a31.834,31.834,0,0,0-5.056-27.388c-7.2-9.628-19.189-13.783-35.418,21.185a42.267,42.267,0,0,0-2.3,6.375Z" transform="translate(-211.987 -381.189)" fill="#031439"></path><path d="M801.212,767.057l27.085,96.06a20.5,20.5,0,0,1-12.636,24.946c-9.786,3.449-22.422-.528-33.039-31.451L758.4,766.831a31.82,31.82,0,0,1,5.056-27.388c7.2-9.628,19.189-13.783,35.413,21.185a41.241,41.241,0,0,1,2.3,6.376Z" transform="translate(-393.974 -381.189)" fill="#031439"></path><path d="M480.5,770.242h0a5.028,5.028,0,0,1,3.838,5.982h0L471.87,833.48a5.051,5.051,0,0,1-6,3.838h0a5.052,5.052,0,0,1-3.838-6l12.473-57.265A5.042,5.042,0,0,1,480.5,770.242Z" transform="translate(-240.327 -400.675)" fill="#22416d"></path><path d="M529.469,787.438h0a5.047,5.047,0,0,1,3.838,6L520.834,850.69a5.032,5.032,0,0,1-5.982,3.838h0a5.047,5.047,0,0,1-3.838-6l12.473-57.255A5.047,5.047,0,0,1,529.469,787.438Z" transform="translate(-265.809 -409.624)" fill="#22416d"></path><path d="M819.084,837.358h0a5.032,5.032,0,0,1-6.3-3.3h0l-17.414-55.946a5.037,5.037,0,0,1,3.3-6.356h0a5.042,5.042,0,0,1,6.318,3.358h0l17.424,55.927A5.056,5.056,0,0,1,819.084,837.358Z" transform="translate(-413.683 -401.406)" fill="#22416d"></path><path d="M769.935,854.292a5.061,5.061,0,0,1-6.121-3.646h0L749.35,793.852A5.043,5.043,0,0,1,759,790.906a4.388,4.388,0,0,1,.12.48l14.517,56.752A5.037,5.037,0,0,1,770,854.268h0Z" transform="translate(-389.754 -409.629)" fill="#22416d"></path><path d="M512.985,701.351h0a22.384,22.384,0,0,1,13.461,28.659v.058l-4.236,11.681a22.384,22.384,0,0,1-28.644,13.432h0A22.379,22.379,0,0,1,480.1,726.537h0l4.217-11.657a22.394,22.394,0,0,1,28.621-13.543Z" transform="translate(-249.094 -364.204)" fill="#0c7ff2"></path><path d="M468.317,754.418h0a9.307,9.307,0,0,1,5.6,11.912v.034l-11.95,33.005a9.3,9.3,0,0,1-11.9,5.57h0a9.3,9.3,0,0,1-5.584-11.9h0l11.955-32.986a9.292,9.292,0,0,1,11.859-5.637Z" transform="translate(-230.964 -392.224)" fill="#0c7ff2"></path><path d="M530.785,777.1h0a9.3,9.3,0,0,1,5.6,11.907h0L524.39,822.024a9.292,9.292,0,0,1-11.878,5.541h0a9.307,9.307,0,0,1-5.594-11.912h0l11.936-33.015a9.292,9.292,0,0,1,11.931-5.536Z" transform="translate(-263.449 -404.01)" fill="#0c7ff2"></path><path d="M374.361,977.609c-3.444-2.173-8.419-8.961,9.5-28.3a31.588,31.588,0,0,0,5.311-7.767c2.423-5.147,8.582-13.845,22.379-13.869a33.2,33.2,0,0,1,30.189,20.148c4.8,10.875,7.225,27.124-2.734,48.145-.3.628-.585,1.276-.863,1.919-1.3,3.037-7.556,15.039-25.042,13.308l-32.708-29.115a43.182,43.182,0,0,0-6.03-4.466Z" transform="translate(-193.026 -482.642)" fill="#22416d"></path><path d="M388.358,998.4l-12.766,26.332a13.523,13.523,0,0,0,12.18,19.438h25.55A13.533,13.533,0,0,0,425.5,1024.73L412.724,998.4a13.543,13.543,0,0,0-24.365,0Z" transform="translate(-194.704 -515.471)" fill="#0c7ff2"></path><path d="M400.583,1042.57l-8.155,16.819a8.635,8.635,0,0,0,7.767,12.43H416.5a8.659,8.659,0,0,0,7.767-12.43l-8.122-16.819a8.635,8.635,0,0,0-15.567,0Z" transform="translate(-203.714 -539.875)" fill="#031439"></path><path d="M509.913,734.44a14.593,14.593,0,1,1-14.593,14.593h0a14.6,14.6,0,0,1,14.593-14.593Z" transform="translate(-257.704 -382.11)" fill="#22416d"></path><path d="M509,753.164l14.579,4.212a2.912,2.912,0,1,1-1.607,5.594l-14.588-4.193A2.917,2.917,0,0,1,509,753.183Z" transform="translate(-262.97 -391.824)" fill="#031439"></path><circle cx="3.065" cy="3.065" r="3.065" transform="translate(257.424 339.723)" fill="#031439"></circle><circle cx="6.433" cy="6.433" r="6.433" transform="translate(215.961 397.425)" fill="#031439"></circle><path d="M532.475,807h0a2.744,2.744,0,0,1,1.641,3.516l-9.647,26.721a2.754,2.754,0,0,1-3.516,1.641h0a2.739,2.739,0,0,1-1.641-3.512l9.647-26.711A2.758,2.758,0,0,1,532.475,807Z" transform="translate(-270.1 -419.775)" fill="#031439"></path><path d="M572.89,491.366l6.894,23.478,68.721,5.411,6.3-28.889S618.761,450.133,572.89,491.366Z" transform="translate(-298.061 -246.11)" fill="#031439"></path><path d="M553.846,259.878h0a13.111,13.111,0,0,1,14.7,11.283l6.179,47.1a13.106,13.106,0,0,1-11.288,14.7h0a13.106,13.106,0,0,1-14.7-11.288h0l-6.179-47.1A13.106,13.106,0,0,1,553.846,259.878Z" transform="translate(-282.222 -135.149)" fill="#031439"></path><path d="M728.387,319.126,734.547,272a13.13,13.13,0,0,1,14.7-11.322h0A13.13,13.13,0,0,1,760.562,275.4L754.4,322.527a13.125,13.125,0,0,1-14.713,11.317h0a13.12,13.12,0,0,1-11.3-14.718Z" transform="translate(-378.903 -135.568)" fill="#031439"></path><path d="M496.081,255.732s-27.412,5.666-25.344-17.572c0,0-22.691-2.183-20.36,26.812l-.158,11.086h48.687v-15.74h-2.8Z" transform="translate(-234.234 -123.889)" fill="#031439"></path><path d="M789.556,255.732s27.412,5.642,25.368-17.572c0,0,22.677-2.183,20.345,26.812l.173,11.086H786.73v-15.74h2.826Z" transform="translate(-409.317 -123.889)" fill="#031439"></path><path d="M645.795,317.77H504.5a9.911,9.911,0,0,0-9.916,9.916h0c0,32.358,13.648,76,35.063,101.587,2.168,2.456,4.917,4.365,8.213,4.365h0a1.439,1.439,0,0,0,1.468-1.439h0a1.664,1.664,0,0,0,0-.437l-5.9-20.149a1.439,1.439,0,0,1,.437-1.506c41.089-36.315,74.012-4.86,78.675,0a1.439,1.439,0,0,1,.355,1.391l-5.445,20.3a1.439,1.439,0,0,0,.988,1.8,1.709,1.709,0,0,0,.437.058h1.3c2.48,0,5.584-2.125,6.433-2.974,22.1-21.976,39.117-66.149,39.117-102.988h0a9.916,9.916,0,0,0-9.916-9.916Z" transform="translate(-257.319 -165.327)" fill="#0c7ff2"></path><path d="M545.6,363.65h42.5a2.735,2.735,0,0,1,2.734,2.725h0a2.749,2.749,0,0,1-2.734,2.734H545.6a2.739,2.739,0,0,1-2.725-2.734h0A2.725,2.725,0,0,1,545.6,363.65Z" transform="translate(-282.448 -189.198)" fill="#031439"></path><path d="M545.6,382h42.5a2.744,2.744,0,0,1,2.734,2.734h0a2.735,2.735,0,0,1-2.734,2.72H545.6a2.72,2.72,0,0,1-2.725-2.72h0A2.734,2.734,0,0,1,545.6,382Z" transform="translate(-282.448 -198.745)" fill="#031439"></path><path d="M545.6,400.36h42.5a2.734,2.734,0,0,1,2.734,2.725h0a2.735,2.735,0,0,1-2.734,2.734H545.6a2.725,2.725,0,0,1-2.725-2.725h0a2.725,2.725,0,0,1,2.725-2.734Z" transform="translate(-282.448 -208.297)" fill="#031439"></path><path d="M545.6,418.71h42.5a2.744,2.744,0,0,1,2.734,2.734h0a2.735,2.735,0,0,1-2.734,2.72H545.6a2.72,2.72,0,0,1-2.725-2.72h0A2.734,2.734,0,0,1,545.6,418.71Z" transform="translate(-282.448 -217.844)" fill="#031439"></path><path d="M545.6,437.07h42.5a2.734,2.734,0,0,1,2.734,2.725h0a2.735,2.735,0,0,1-2.734,2.734H545.6a2.725,2.725,0,0,1-2.725-2.725h0a2.725,2.725,0,0,1,2.725-2.734Z" transform="translate(-282.448 -227.396)" fill="#031439"></path><path d="M686.34,382h42.509a2.744,2.744,0,0,1,2.734,2.734h0a2.739,2.739,0,0,1-2.734,2.72H686.34a2.72,2.72,0,0,1-2.72-2.72h0A2.73,2.73,0,0,1,686.34,382Z" transform="translate(-355.671 -198.744)" fill="#031439"></path><path d="M686.34,400.36h42.509a2.739,2.739,0,0,1,2.734,2.725h0a2.734,2.734,0,0,1-2.734,2.734H686.34a2.72,2.72,0,0,1-2.72-2.725h0a2.72,2.72,0,0,1,2.72-2.734Z" transform="translate(-355.671 -208.297)" fill="#031439"></path><path d="M686.34,418.71h42.509a2.744,2.744,0,0,1,2.734,2.734h0a2.739,2.739,0,0,1-2.734,2.72H686.34a2.72,2.72,0,0,1-2.72-2.72h0a2.73,2.73,0,0,1,2.72-2.734Z" transform="translate(-355.671 -217.844)" fill="#031439"></path><path d="M686.34,437.07h42.509a2.739,2.739,0,0,1,2.734,2.725h0a2.734,2.734,0,0,1-2.734,2.734H686.34a2.72,2.72,0,0,1-2.72-2.725h0a2.72,2.72,0,0,1,2.72-2.734Z" transform="translate(-355.671 -227.396)" fill="#031439"></path><path d="M686.954,363.634h42.5a2.73,2.73,0,0,1,2.735,2.71h0a2.734,2.734,0,0,1-2.734,2.734h-42.5a2.734,2.734,0,0,1-2.734-2.734h0a2.72,2.72,0,0,1,2.72-2.725Z" transform="translate(-355.983 -189.182)" fill="#031439"></path><path d="M379.467,388.46l7.872-12.195a18.033,18.033,0,0,1,24.946-5.392h0a18.038,18.038,0,0,1,5.378,24.946l-7.867,12.19a18.033,18.033,0,0,1-24.946,5.378h0A18.033,18.033,0,0,1,379.467,388.46Z" transform="translate(-195.931 -191.456)" fill="#031439"></path><path d="M422.918,419.836l2.974-6.145a14.118,14.118,0,0,1,18.844-6.524h0a14.118,14.118,0,0,1,6.524,18.853l-2.989,6.136a14.08,14.08,0,0,1-18.815,6.529h0a14.089,14.089,0,0,1-6.529-18.82Z" transform="translate(-219.305 -211.103)" fill="#0c7ff2"></path><path d="M866.6,974.21c3.444-2.159,8.419-8.961-9.489-28.3a30.938,30.938,0,0,1-5.344-7.767c-2.4-5.147-8.582-13.845-22.365-13.869a33.2,33.2,0,0,0-30.194,20.149c-4.8,10.875-7.225,27.119,2.725,48.145.3.643.585,1.276.863,1.919,1.3,3.037,7.57,15.049,25.051,13.317l32.708-29.143a43.457,43.457,0,0,1,6.045-4.447Z" transform="translate(-413.641 -480.873)" fill="#22416d"></path><path d="M876.765,995.018l12.775,26.332a13.528,13.528,0,0,1-12.166,19.439h-25.56a13.538,13.538,0,0,1-12.18-19.414l12.775-26.323a13.523,13.523,0,0,1,24.356,0Z" transform="translate(-436.143 -513.723)" fill="#0c7ff2"></path><path d="M885.2,1039.2l8.155,16.834a8.635,8.635,0,0,1-7.676,12.415H869.254a8.635,8.635,0,0,1-7.719-12.415l8.155-16.834a8.635,8.635,0,0,1,15.543,0Z" transform="translate(-447.782 -538.133)" fill="#031439"></path><path d="M459.2,327.52h0a18.575,18.575,0,0,1,18.575,18.575v7.349A18.575,18.575,0,0,1,459.2,372.034h0a18.575,18.575,0,0,1-18.575-18.575v-7.364A18.57,18.57,0,0,1,459.2,327.52Z" transform="translate(-229.25 -170.4)" fill="#031439"></path><path d="M485.683,316.68H435.988a4.082,4.082,0,0,1-4.078-4.082h0v-18.23a4.082,4.082,0,0,1,4.078-4.068l49.695,6.735a4.087,4.087,0,0,1,4.078,4.078V312.6A4.092,4.092,0,0,1,485.683,316.68Z" transform="translate(-224.713 -151.035)" fill="#0c7ff2"></path><path d="M358.654,372.181h0c-8.683-.4-14.555-7.834-14.128-16.522l.959-40.206a12.056,12.056,0,0,1,12.564-11.465l6.308.3a13.284,13.284,0,0,1,12.636,13.864l-4.6,39.059C372.019,365.805,367.333,372.627,358.654,372.181Z" transform="translate(-179.238 -158.151)" fill="#0c7ff2"></path><path d="M369.8,491.48h5.315a9.34,9.34,0,0,1,9.35,9.331v39.621a9.335,9.335,0,0,1-9.321,9.345H369.8a9.34,9.34,0,0,1-9.335-9.34V500.844a9.34,9.34,0,0,1,9.335-9.34Z" transform="translate(-187.54 -255.704)" fill="#031439"></path><path d="M366.791,449.7l17.448,3.814a14.008,14.008,0,0,1,10.7,16.666h0a14.013,14.013,0,0,1-16.671,10.679l-17.438-3.8a14.018,14.018,0,0,1-10.708-16.671h0A14.018,14.018,0,0,1,366.791,449.7Z" transform="translate(-181.992 -233.799)" fill="#22416d"></path><circle cx="24.907" cy="24.907" r="24.907" transform="translate(161.875 323.158) rotate(-85.93)" fill="#031439"></circle><circle cx="24.917" cy="24.917" r="24.917" transform="translate(163.441 277.076)" fill="#22416d"></circle><circle cx="8.813" cy="8.813" r="8.813" transform="translate(201.301 277.522)" fill="#0c7ff2"></circle><path d="M273.621,474.528l19.669-5.987s10.64-3.771,15.452,19.875l18.278,58.378a11.557,11.557,0,0,1-7.2,14.349h0a11.557,11.557,0,0,1-13.984-5.363l-35.327-65.008S264.722,481.119,273.621,474.528Z" transform="translate(-139.779 -243.655)" fill="#0c7ff2"></path><path d="M876.186,370.957h0a18.028,18.028,0,0,1,24.946,5.378L909,388.524a18.038,18.038,0,0,1-5.378,24.946h0a18.028,18.028,0,0,1-24.946-5.378l-7.867-12.19A18.038,18.038,0,0,1,876.186,370.957Z" transform="translate(-451.558 -191.496)" fill="#031439"></path><path d="M854,432.191l-2.974-6.155A14.1,14.1,0,0,1,857.54,407.2h0a14.1,14.1,0,0,1,18.829,6.524l2.989,6.145a14.109,14.109,0,0,1-6.539,18.848h0a14.094,14.094,0,0,1-18.839-6.519Z" transform="translate(-442.027 -211.119)" fill="#0c7ff2"></path><path d="M836.715,372.034h0a18.575,18.575,0,0,1-18.585-18.565v-7.373A18.57,18.57,0,0,1,836.7,327.52h0A18.57,18.57,0,0,1,855.28,346.1h0v7.364A18.575,18.575,0,0,1,836.7,372.034Z" transform="translate(-425.653 -170.4)" fill="#031439"></path><path d="M787.718,316.68H837.4a4.1,4.1,0,0,0,4.083-4.082v-18.23A4.1,4.1,0,0,0,837.4,290.3l-49.685,6.735a4.087,4.087,0,0,0-4.078,4.078V312.6A4.082,4.082,0,0,0,787.718,316.68Z" transform="translate(-407.709 -151.035)" fill="#0c7ff2"></path><path d="M942.185,372.18h0c8.683-.4,14.555-7.834,14.128-16.522l-.959-40.206a12.065,12.065,0,0,0-12.583-11.465l-6.318.3a13.3,13.3,0,0,0-12.636,13.864l4.6,39.059C928.848,365.8,933.492,372.626,942.185,372.18Z" transform="translate(-480.632 -158.15)" fill="#0c7ff2"></path><rect width="23.996" height="58.292" rx="11.998" transform="translate(444.043 235.776)" fill="#031439"></rect><path d="M925.956,477.09l-17.438,3.78a14,14,0,0,1-16.666-10.693h0a14.008,14.008,0,0,1,10.7-16.651l17.438-3.8a14,14,0,0,1,16.67,10.693h0a13.994,13.994,0,0,1-10.688,16.656Z" transform="translate(-463.842 -233.811)" fill="#22416d"></path><circle cx="24.907" cy="24.907" r="24.907" transform="translate(427.578 275.142)" fill="#031439"></circle><path d="M918.754,580.1a24.917,24.917,0,1,1-28.87,20.206h0a24.9,24.9,0,0,1,28.831-20.2Z" transform="translate(-462.785 -301.617)" fill="#22416d"></path><circle cx="8.813" cy="8.813" r="8.813" transform="translate(422.042 277.522)" fill="#0c7ff2"></circle><path d="M997.194,477.723l-19.669-5.973s-10.635-3.771-15.438,19.875L943.81,550a11.485,11.485,0,0,0,7.2,14.339h0a11.513,11.513,0,0,0,13.97-5.387l35.322-65S1006.084,484.329,997.194,477.723Z" transform="translate(-490.759 -245.325)" fill="#0c7ff2"></path><circle cx="6.433" cy="6.433" r="6.433" transform="translate(132.974 233.526)" fill="#031439"></circle><circle cx="6.433" cy="6.433" r="6.433" transform="translate(493.594 234.433)" fill="#031439"></circle><circle cx="4.02" cy="4.02" r="4.02" transform="translate(141.628 249.415)" fill="#031439"></circle><circle cx="4.02" cy="4.02" r="4.02" transform="translate(487.184 249.87)" fill="#031439"></circle><path d="M308.686,546.53h0a3.018,3.018,0,0,1,1.684-3.924h0l13.591-5.421a3.022,3.022,0,0,1,3.929,1.684h0a3.022,3.022,0,0,1-1.684,3.929h0l-13.591,5.421a3.013,3.013,0,0,1-3.919-1.66Z" transform="translate(-160.49 -279.37)" fill="#10244c"></path><path d="M982.762,541.763h0a3.027,3.027,0,0,1,3.924-1.693h0l13.591,5.431a3.022,3.022,0,0,1,1.689,3.924h0a3.022,3.022,0,0,1-3.924,1.693h0l-13.591-5.435a3.013,3.013,0,0,1-1.7-3.905Z" transform="translate(-511.193 -280.873)" fill="#0b71b7"></path><path d="M939.467,366.677h0a3.017,3.017,0,0,1-3.387-2.6h0l-3.617-27.685a3.022,3.022,0,0,1,2.538-3.44h.067a3.027,3.027,0,0,1,3.392,2.6h0l3.617,27.685a3.017,3.017,0,0,1-2.538,3.435Z" transform="translate(-485.12 -173.213)" fill="#0b71b7"></path><path d="M389.792,329.17h0a3.032,3.032,0,0,1,2.6,3.387l-3.627,27.714a3.018,3.018,0,0,1-3.358,2.615h-.072a3.017,3.017,0,0,1-2.615-3.358.284.284,0,0,1,0-.067l3.617-27.685a3.027,3.027,0,0,1,3.444-2.552Z" transform="translate(-199.112 -171.258)" fill="#0b71b7"></path><path d="M649.2,508.529h-6.236a6.74,6.74,0,0,1-6.716-5.891l-1.046-8.179a6.759,6.759,0,0,1,5.838-7.56,8.518,8.518,0,0,1,.859,0h8.333A6.759,6.759,0,0,1,657,493.658a8.442,8.442,0,0,1,0,.854l-1.046,8.2A6.759,6.759,0,0,1,649.2,508.529Z" transform="translate(-330.451 -253.315)" fill="#22416d"></path><path d="M691.734,494.863h0A3.032,3.032,0,0,1,693.8,498.6l-4.044,14.061a3.037,3.037,0,0,1-3.747,2.082h0A3.037,3.037,0,0,1,683.943,511l4.02-14.07a3.022,3.022,0,0,1,3.737-2.077Z" transform="translate(-355.778 -257.398)" fill="#22416d"></path><path d="M618.13,518.212a3.018,3.018,0,0,1-3.751-2.044h0l-4.1-14.051a3.032,3.032,0,0,1,5.814-1.7l4.082,14.051a3.032,3.032,0,0,1-2.058,3.742Z" transform="translate(-317.468 -259.289)" fill="#22416d"></path><path d="M372.374,461.682h0a3.037,3.037,0,0,1,3.608-2.3l18.23,3.977a3.032,3.032,0,0,1,2.3,3.593h0a3.027,3.027,0,0,1-3.608,2.3l-18.23-3.963A3.037,3.037,0,0,1,372.374,461.682Z" transform="translate(-193.702 -238.969)" fill="#031439"></path><path d="M366.275,484.941h0a3.018,3.018,0,0,1,3.593-2.3l18.23,3.972a3.022,3.022,0,0,1,2.293,3.6h0a3.017,3.017,0,0,1-3.593,2.3l-18.23-3.987A3.018,3.018,0,0,1,366.275,484.941Z" transform="translate(-190.529 -251.07)" fill="#031439"></path><path d="M913.073,464.713h0a3.018,3.018,0,0,1,2.3-3.593l18.2-3.977a3.017,3.017,0,0,1,3.593,2.3h0a3.022,3.022,0,0,1-2.288,3.608h0l-18.23,3.963A3.017,3.017,0,0,1,913.073,464.713Z" transform="translate(-475.013 -237.803)" fill="#031439"></path><path d="M923.823,486.487h0a3.017,3.017,0,0,1,2.3-3.593l18.278-3.919a3.037,3.037,0,0,1,3.608,2.3h0a3.051,3.051,0,0,1-2.3,3.6l-18.287,3.915A3.017,3.017,0,0,1,923.823,486.487Z" transform="translate(-480.606 -249.161)" fill="#031439"></path><path d="M387.974,525.537h0a3.017,3.017,0,0,1,3.017-3.017h9.168a3.013,3.013,0,0,1,3.032,3.008h0a3.032,3.032,0,0,1-3.032,3.022h-9.192a3.022,3.022,0,0,1-3.017-3.022Z" transform="translate(-201.842 -271.853)" fill="#0c7ff2"></path><path d="M387.974,541.438h0a3.018,3.018,0,0,1,3.017-3.018h9.168a3.022,3.022,0,0,1,3.022,3.018h0a3.037,3.037,0,0,1-3.022,3.037h-9.191a3.022,3.022,0,0,1-3.017-3.022Z" transform="translate(-201.842 -280.126)" fill="#0c7ff2"></path><path d="M387.974,557.337h0a3.017,3.017,0,0,1,3.017-3.017h9.168a3.022,3.022,0,0,1,3.022,3.017h0a3.037,3.037,0,0,1-3.022,3.037h-9.192a3.022,3.022,0,0,1-3.017-3.022Z" transform="translate(-201.842 -288.398)" fill="#0c7ff2"></path><path d="M915.16,523.238h0a3.022,3.022,0,0,1,3.022-3.017h9.187a3.022,3.022,0,0,1,3.022,3.017h0a3.022,3.022,0,0,1-3.008,3.037h-9.2a3.037,3.037,0,0,1-3.022-3.037Z" transform="translate(-476.135 -270.657)" fill="#0c7ff2"></path><path d="M915.16,539.152h0a3.032,3.032,0,0,1,3.022-3.032h9.187a3.022,3.022,0,0,1,3.022,3.022h0a3.022,3.022,0,0,1-3.022,3.022h-9.187a3.022,3.022,0,0,1-3.022-3.022Z" transform="translate(-476.135 -278.929)" fill="#0c7ff2"></path><path d="M915.16,555.062h0a3.022,3.022,0,0,1,3.022-3.022h9.187a3.022,3.022,0,0,1,3.022,3.022h0a3.022,3.022,0,0,1-3.022,3.022h-9.187A3.022,3.022,0,0,1,915.16,555.062Z" transform="translate(-476.135 -287.212)" fill="#0c7ff2"></path><path d="M498.388,350.65h0a2.4,2.4,0,0,1,2.4,2.4v22.043a2.4,2.4,0,0,1-2.4,2.3h0a2.4,2.4,0,0,1-2.3-2.3V353.039a2.4,2.4,0,0,1,2.3-2.389Z" transform="translate(-258.104 -182.434)" fill="#22416d"></path><path d="M830.249,377.37h0a2.4,2.4,0,0,1-2.4-2.375V353.029a2.4,2.4,0,0,1,2.4-2.4h0a2.4,2.4,0,0,1,2.4,2.4v22.043a2.37,2.37,0,0,1-2.4,2.3Z" transform="translate(-430.71 -182.424)" fill="#22416d"></path><path d="M662.894,269c0,10.137-9.374,18.383-20.93,18.383S621,279.185,621,269" transform="translate(-323.092 -139.954)" fill="#22416d"></path><path d="M625.7,284.764l17.534,17.313a1.77,1.77,0,0,0,2.48,0l17.117-17.313a1.751,1.751,0,0,0,0-2.48,1.784,1.784,0,0,0-1.242-.5H626.936a1.765,1.765,0,0,0-1.746,1.77A1.727,1.727,0,0,0,625.7,284.764Z" transform="translate(-325.272 -146.603)" fill="#031439"></path><path d="M668.361,315.672l-8.5-8.5L681.587,285.5a1.65,1.65,0,0,1,2.293,0h0l6.169,6.169a1.655,1.655,0,0,1,0,2.3h0Z" transform="translate(-343.31 -148.296)" fill="#22416d"></path><path d="M637.411,307.089l-8.352,8.635-22.067-21.343a1.665,1.665,0,0,1,0-2.3h0l6.069-6.275a1.636,1.636,0,0,1,2.3,0h0Z" transform="translate(-315.564 -148.454)" fill="#22416d"></path><circle cx="10.583" cy="10.583" r="10.583" transform="translate(308.693 151.21)" fill="#031439"></circle><path d="M619.22,242.585h0c0-8.832,7.239-21.055,16.085-21.055h11.3c8.846,0,16.085,12.223,16.085,21.055h0" transform="translate(-322.166 -115.256)" fill="#0c7ff2"></path><circle cx="6.937" cy="6.937" r="6.937" transform="translate(318.412 136.355) rotate(-67.5)" fill="#0c7ff2"></circle><circle cx="4.157" cy="4.157" r="4.157" transform="matrix(0.16, -0.987, 0.987, 0.16, 323.033, 135.064)" fill="#1bbcc7"></circle><circle cx="6.937" cy="6.937" r="6.937" transform="translate(303.214 125.664)" fill="#0c7ff2"></circle><circle cx="4.145" cy="4.145" r="4.145" transform="translate(306.006 128.456)" fill="#1bbcc7"></circle><path d="M618.742,257.21H659.3a3.243,3.243,0,0,1,3.253,3.229v.029h0a3.252,3.252,0,0,1-3.253,3.248H618.742a3.248,3.248,0,0,1-3.253-3.248h0a3.248,3.248,0,0,1,3.253-3.253Z" transform="translate(-320.225 -133.82)" fill="#031439"></path><rect width="8.592" height="7.709" rx="3.855" transform="translate(301.749 117.208) rotate(-57.44)" fill="#383237"></rect><path d="M682.192,232.867h0a3.838,3.838,0,0,1,5.325,1.18l.48.734a3.838,3.838,0,0,1-1.171,5.33h0a3.862,3.862,0,0,1-5.325-1.18l-.48-.734a3.838,3.838,0,0,1,1.171-5.33Z" transform="translate(-353.999 -120.836)" fill="#383237"></path><rect width="6.16" height="17.126" rx="3.08" transform="translate(297.092 102.849) rotate(-23.87)" fill="#303038"></rect><circle cx="3.79" cy="3.79" r="3.79" transform="translate(301.938 109.502)" fill="#786c77"></circle><path d="M684.535,223.134l4.442-10.031a3.075,3.075,0,0,1,4.058-1.569h0a3.075,3.075,0,0,1,1.569,4.058l-4.437,10.036A3.08,3.08,0,0,1,686.1,227.2h0a3.085,3.085,0,0,1-1.569-4.063Z" transform="translate(-356.01 -109.918)" fill="#303038"></path><circle cx="3.79" cy="3.79" r="3.79" transform="translate(327.421 110.515)" fill="#786c77"></circle><circle cx="4.02" cy="4.02" r="4.02" transform="translate(457.82 199.96)" fill="#031439"></circle><circle cx="4.02" cy="4.02" r="4.02" transform="translate(175.986 199.581)" fill="#031439"></circle><circle cx="4.02" cy="4.02" r="4.02" transform="translate(214.896 168.341)" fill="#22416d"></circle><circle cx="4.02" cy="4.02" r="4.02" transform="translate(416.924 168.341)" fill="#22416d"></circle><circle cx="4.02" cy="4.02" r="4.02" transform="translate(221.867 120.426)" fill="#22416d"></circle><circle cx="4.02" cy="4.02" r="4.02" transform="translate(411.934 121.654)" fill="#22416d"></circle><path d="M683.767,297.037a2.188,2.188,0,0,1,0,3.08L662.87,321a2.184,2.184,0,1,1-3.248-2.922l.1-.1h.058l20.887-20.887a2.2,2.2,0,0,1,3.1-.058Z" transform="translate(-342.894 -154.223)" fill="#031439"></path><path d="M643.5,322.47h0a2.192,2.192,0,0,1-3.089,0l-20.873-20.882a2.173,2.173,0,0,1,0-3.075h0a2.188,2.188,0,0,1,3.08,0L643.5,319.4a2.178,2.178,0,0,1,0,3.094S643.515,322.48,643.5,322.47Z" transform="translate(-322 -154.978)" fill="#031439"></path><path d="M763.183,754.914h0a22.293,22.293,0,0,1-28.525-13.384l-4.284-11.854a22.278,22.278,0,0,1,13.375-28.524h0a22.269,22.269,0,0,1,28.525,13.37h0l4.284,11.868a22.274,22.274,0,0,1-13.375,28.52Z" transform="translate(-379.303 -364.095)" fill="#0c7ff2"></path><path d="M824.9,805.249h0a9.3,9.3,0,0,1-11.878-5.584L801.1,766.64a9.3,9.3,0,0,1,5.584-11.912h0a9.307,9.307,0,0,1,11.912,5.6h0l11.936,33.015a9.307,9.307,0,0,1-5.608,11.907Z" transform="translate(-416.501 -392.377)" fill="#0c7ff2"></path><path d="M573.7,556.73a75.8,75.8,0,0,1,56.958-.648,35.4,35.4,0,0,1,22.921,33.648c-.221,8.731-3.838,17.577-15.318,22.609H570.244s-22.682-5.594-18.542-28.832a35.979,35.979,0,0,1,22-26.778Z" transform="translate(-286.775 -286.591)" fill="#22416d"></path><path d="M762.923,827.519h0a9.312,9.312,0,0,1-11.912-5.594h0L739.076,788.91A9.3,9.3,0,0,1,744.665,777h0a9.316,9.316,0,0,1,11.94,5.574.381.381,0,0,0,0,.053l11.921,33.029A9.316,9.316,0,0,1,762.923,827.519Z" transform="translate(-384.234 -403.959)" fill="#0c7ff2"></path><circle cx="14.588" cy="14.588" r="14.588" transform="translate(361.036 352.359)" fill="#22416d"></circle><path d="M763.237,757.234l14.574-4.188a2.912,2.912,0,0,1,3.607,1.991h0a2.912,2.912,0,0,1-2,3.6l-14.574,4.193a2.917,2.917,0,0,1-3.612-1.991h0A2.917,2.917,0,0,1,763.237,757.234Z" transform="translate(-395.994 -391.73)" fill="#031439"></path><circle cx="3.065" cy="3.065" r="3.065" transform="translate(364.264 339.723)" fill="#031439"></circle><circle cx="6.433" cy="6.433" r="6.433" transform="translate(399.001 397.425)" fill="#031439"></circle><path d="M771.236,838.906h0a2.73,2.73,0,0,1-3.5-1.636h0l-9.652-26.721a2.734,2.734,0,0,1,1.641-3.5h0a2.725,2.725,0,0,1,3.449,1.641l9.657,26.716A2.739,2.739,0,0,1,771.236,838.906Z" transform="translate(-394.327 -419.807)" fill="#031439"></path><rect width="6.558" height="37.462" rx="3.279" transform="translate(217.678 471.282) rotate(-30)" fill="#0c7ff2" opacity="0.67"></rect><path d="M476.843,960.732a3.286,3.286,0,0,1,4.481,1.151h0l15.452,26.764a3.281,3.281,0,1,1-5.675,3.286h0l-15.452-26.769a3.272,3.272,0,0,1,1.151-4.476Z" transform="translate(-247.233 -499.609)" fill="#0c7ff2" opacity="0.67"></path><path d="M422.023,998a6.433,6.433,0,1,1-6.433,6.433h0A6.433,6.433,0,0,1,422.023,998Z" transform="translate(-216.222 -519.233)" fill="#031439"></path><circle cx="6.433" cy="6.433" r="6.433" transform="translate(422.023 477.002)" fill="#031439"></circle><circle cx="21.381" cy="21.381" r="21.381" transform="translate(289.657 322.215) rotate(-80.78)" fill="#031439"></circle><circle cx="13.658" cy="13.658" r="13.658" transform="translate(298.839 316.149) rotate(-80.78)" fill="#22416d"></circle><path d="M637.293,629.267h15.174a2.922,2.922,0,0,1,0,5.838H637.293a2.922,2.922,0,1,1,0-5.838Z" transform="translate(-329.987 -327.39)" fill="#031439"></path><path d="M575.281,569.824l12.387,11.168a8.5,8.5,0,0,0,11.485,0h0a8.5,8.5,0,0,0,1.151-11.269l-13.787-18.762a8.2,8.2,0,0,0-11.441-1.895l-.058.043a8.348,8.348,0,0,0-2.159,2.3l-.273.48s-.139.225-.36.628A14.185,14.185,0,0,0,575.281,569.824Z" transform="translate(-296.835 -284.867)" fill="#0c7ff2"></path><path d="M706.7,569.935,694.362,581.1a8.51,8.51,0,0,1-11.513,0h0a8.515,8.515,0,0,1-1.147-11.259l13.706-18.709a8.155,8.155,0,0,1,11.4-1.837h0a8.154,8.154,0,0,1,2.173,2.3c.091.149.182.307.273.48.139.264.139.216.355.619a14.209,14.209,0,0,1-2.912,17.241Z" transform="translate(-353.835 -284.977)" fill="#0c7ff2"></path><path d="M516.575,584.35l21.76,6.236-10.765,37.28-21.76-6.236Z" transform="translate(-263.161 -304.022)" fill="#0c7ff2"></path><path d="M521.88,626.229a11.312,11.312,0,0,1,7.752,14h0l-2.768,9.633a11.316,11.316,0,1,1-21.872-5.819c.039-.144.082-.288.126-.427l2.768-9.594a11.317,11.317,0,0,1,13.994-7.767Z" transform="translate(-262.537 -325.594)" fill="#0b71b7"></path><path d="M523.08,561.578l-13.039,7.752L485.92,535.054c-2.355-3.334-.379-8.5,4.318-11.307l8.731-5.191c4.711-2.8,10.189-2.082,11.993,1.6L527.076,552.9C528.318,555.673,526.615,559.463,523.08,561.578Z" transform="translate(-252.295 -268.902)" fill="#0c7ff2"></path><rect width="22.643" height="38.795" transform="translate(359.392 286.548) rotate(-16.04)" fill="#0c7ff2"></rect><path d="M782.276,657.575h0a11.3,11.3,0,0,1-14-7.714h0l-2.758-9.652a11.317,11.317,0,0,1,7.748-14h0a11.307,11.307,0,0,1,14,7.724h0l2.768,9.628a11.317,11.317,0,0,1-7.724,14.018Z" transform="translate(-398.05 -325.566)" fill="#0b71b7"></path><path d="M753.447,561.6l13.049,7.752L790.678,535.1c2.356-3.329.369-8.5-4.318-11.3L777.63,518.6c-4.721-2.806-10.189-2.082-12.017,1.593l-16.095,32.765C748.194,555.7,749.921,559.486,753.447,561.6Z" transform="translate(-389.725 -268.926)" fill="#0c7ff2"></path><circle cx="6.433" cy="6.433" r="6.433" transform="translate(384.47 255.881)" fill="#031439"></circle><circle cx="6.433" cy="6.433" r="6.433" transform="translate(237.113 255.881)" fill="#031439"></circle><circle cx="4.02" cy="4.02" r="4.02" transform="translate(262.764 281.336)" fill="#031439"></circle><circle cx="4.02" cy="4.02" r="4.02" transform="translate(363.309 281.336)" fill="#031439"></circle><path d="M615.492,393.265A205.721,205.721,0,0,1,451.689,551.9c-41.381,7.618-81.074,3.017-116.151-10.827q-5.565-2.192-10.962-4.7a127.929,127.929,0,0,0-80.954-8.467,203.063,203.063,0,0,1-61.5,3.761A199.5,199.5,0,0,1,54.255,469.2h0A200.761,200.761,0,0,1,128.2,144.757a74.046,74.046,0,0,0,42.106-41.616A163.6,163.6,0,0,1,322.35,0q6.16,0,12.252.48h0a163.51,163.51,0,0,1,118.43,64.667,53.82,53.82,0,0,0,19.717,16.1,56.5,56.5,0,0,0,26.706,5.5q2.226-.086,4.481-.077,4.02,0,7.968.345l.926.082a102.652,102.652,0,0,1,89.646,129.291c-.12.456-.249.9-.374,1.343a75.889,75.889,0,0,0-1.857,33.389,81.906,81.906,0,0,0,4.941,17.64,207.561,207.561,0,0,1,15.126,71.58A218.7,218.7,0,0,1,615.492,393.265Z" transform="translate(-0.005 0)" fill="none"></path><rect width="37.462" height="6.558" rx="3.279" transform="translate(392.619 500.43) rotate(-60)" fill="#0c7ff2" opacity="0.67"></rect><rect width="37.462" height="6.558" rx="3.279" transform="translate(383.511 491.913) rotate(-60)" fill="#0c7ff2" opacity="0.67"></rect></g></g></svg>