<svg xmlns="http://www.w3.org/2000/svg" xmlns:xlink="http://www.w3.org/1999/xlink" viewBox="0 0 4081.13 2287.02"><defs><style>.cls-1{fill:none;}.cls-2{isolation:isolate;}.cls-128,.cls-129,.cls-131,.cls-3,.cls-30,.cls-69{fill:#ebf0f5;}.cls-129,.cls-130,.cls-4,.cls-62{fill-rule:evenodd;}.cls-127,.cls-128,.cls-129,.cls-32,.cls-4{opacity:0.21;}.cls-32,.cls-4,.cls-59{mix-blend-mode:multiply;}.cls-5,.cls-56{fill:#24313e;}.cls-33,.cls-5,.cls-69{stroke:#031439;}.cls-121,.cls-27,.cls-28,.cls-29,.cls-30,.cls-31,.cls-33,.cls-5,.cls-63,.cls-64,.cls-69,.cls-93{stroke-miterlimit:10;stroke-width:2px;}.cls-16,.cls-6,.cls-94{font-size:48.11px;}.cls-16,.cls-55,.cls-59,.cls-6,.cls-70,.cls-77,.cls-88,.cls-94{fill:#031439;}.cls-104,.cls-16,.cls-34,.cls-41,.cls-6,.cls-65,.cls-70,.cls-77,.cls-88,.cls-94{font-family:Montserrat-Bold, Montserrat;font-weight:700;}.cls-20,.cls-6{letter-spacing:0em;}.cls-7{letter-spacing:0em;}.cls-8{letter-spacing:0.01em;}.cls-9{letter-spacing:-0.01em;}.cls-10{letter-spacing:0.01em;}.cls-11{letter-spacing:0.01em;}.cls-12{letter-spacing:0.01em;}.cls-13{letter-spacing:0em;}.cls-14{letter-spacing:0em;}.cls-15{letter-spacing:0em;}.cls-16{letter-spacing:0em;}.cls-17{letter-spacing:-0.01em;}.cls-18{letter-spacing:0.01em;}.cls-19{letter-spacing:-0.01em;}.cls-21{letter-spacing:0em;}.cls-22{letter-spacing:-0.01em;}.cls-23{letter-spacing:0em;}.cls-24{letter-spacing:-0.03em;}.cls-25{letter-spacing:0.03em;}.cls-26{letter-spacing:0em;}.cls-27{fill:#003994;}.cls-121,.cls-27,.cls-28,.cls-29,.cls-30,.cls-31,.cls-63,.cls-64,.cls-93{stroke:#24313e;}.cls-28,.cls-33,.cls-60{fill:#9caab8;}.cls-29{fill:#0c7ff2;}.cls-31{fill:#d9dee5;}.cls-34,.cls-41{font-size:40.61px;}.cls-124,.cls-34,.cls-41,.cls-61,.cls-62,.cls-65{fill:#fff;}.cls-34,.cls-53{letter-spacing:0em;}.cls-35{letter-spacing:-0.01em;}.cls-36{letter-spacing:0.01em;}.cls-37{letter-spacing:0em;}.cls-38{letter-spacing:0em;}.cls-39{letter-spacing:0em;}.cls-40{letter-spacing:-0.07em;}.cls-41{letter-spacing:-0.02em;}.cls-42{letter-spacing:0em;}.cls-43{letter-spacing:0.01em;}.cls-44{letter-spacing:0em;}.cls-45{letter-spacing:0.03em;}.cls-46{letter-spacing:-0.07em;}.cls-47{letter-spacing:0em;}.cls-48{letter-spacing:0em;}.cls-49{letter-spacing:0.01em;}.cls-50{letter-spacing:0.02em;}.cls-51{letter-spacing:0.01em;}.cls-52{letter-spacing:-0.02em;}.cls-54{letter-spacing:-0.01em;}.cls-57{fill:#6b7e8f;}.cls-58{fill:#e7e9f2;}.cls-59{opacity:0.32;}.cls-63{fill:#f5f7f9;}.cls-64{fill:#0062ff;}.cls-65{font-size:42.11px;}.cls-66{letter-spacing:-0.03em;}.cls-67{letter-spacing:-0.01em;}.cls-68{letter-spacing:0em;}.cls-70,.cls-77,.cls-88{font-size:48.11px;}.cls-70,.cls-78{letter-spacing:0em;}.cls-71{letter-spacing:0.01em;}.cls-72{letter-spacing:0.01em;}.cls-73{letter-spacing:0em;}.cls-74{letter-spacing:0em;}.cls-75{letter-spacing:0.01em;}.cls-76{letter-spacing:0.01em;}.cls-77{letter-spacing:-0.02em;}.cls-79{letter-spacing:0.01em;}.cls-80{letter-spacing:0em;}.cls-81{letter-spacing:0.01em;}.cls-82{letter-spacing:0em;}.cls-83{letter-spacing:0.03em;}.cls-84{letter-spacing:-0.07em;}.cls-85{letter-spacing:-0.02em;}.cls-86{letter-spacing:0em;}.cls-87{letter-spacing:0.01em;}.cls-89{letter-spacing:0em;}.cls-90{letter-spacing:0em;}.cls-91{letter-spacing:0em;}.cls-92{letter-spacing:-0.02em;}.cls-93{fill:#053361;}.cls-94{letter-spacing:-0.01em;}.cls-95{letter-spacing:0.03em;}.cls-96{letter-spacing:0em;}.cls-97{letter-spacing:0.01em;}.cls-98{letter-spacing:0.01em;}.cls-99{letter-spacing:-0.01em;}.cls-100{letter-spacing:0em;}.cls-101{letter-spacing:0em;}.cls-102{letter-spacing:0.01em;}.cls-103{letter-spacing:0.01em;}.cls-104{font-size:77.44px;fill:#1d2236;letter-spacing:0em;}.cls-105{letter-spacing:-0.02em;}.cls-106{letter-spacing:-0.01em;}.cls-107{letter-spacing:-0.01em;}.cls-108{letter-spacing:-0.02em;}.cls-109{letter-spacing:-0.02em;}.cls-110{letter-spacing:-0.02em;}.cls-111{letter-spacing:0.01em;}.cls-112{letter-spacing:-0.03em;}.cls-113{letter-spacing:-0.01em;}.cls-114{letter-spacing:-0.01em;}.cls-115{letter-spacing:0.01em;}.cls-116{letter-spacing:0em;}.cls-117{letter-spacing:-0.01em;}.cls-118{letter-spacing:-0.01em;}.cls-119{letter-spacing:-0.01em;}.cls-120{letter-spacing:0.01em;}.cls-121{fill:#455666;}.cls-122{clip-path:url(#clip-path);}.cls-123{clip-path:url(#clip-path-2);}.cls-124,.cls-125{opacity:0.23;}.cls-124,.cls-125,.cls-127,.cls-128,.cls-129,.cls-130,.cls-131{mix-blend-mode:overlay;}.cls-126{opacity:0.17;filter:url(#AI_GaussianBlur_7);}.cls-130{opacity:0.09;}.cls-131{opacity:0.46;}</style><clipPath id="clip-path"><path class="cls-1" d="M3345.93,1324.84c0,33.45-18,153.35-27.15,186a364.24,364.24,0,0,1-36.17,86.38c-15.64,27-60.25,83.2-82.45,105.52-27.92,28.49-34.47,20.85-69.25,38.88l-579.72-33.48v-3.94a372.66,372.66,0,0,0,91.35-68.28,364.65,364.65,0,0,0,93.13-160.72,371.5,371.5,0,0,0,13.68-97.48Z"></path></clipPath><clipPath id="clip-path-2"><path class="cls-1" d="M3282.22,942.23A1329.34,1329.34,0,0,1,3258.37,1104c-1.26,5.52,2.05,17-3.68,16.68-130.12-7.44-99.05,42.25-99.89,46.55l-675.56-145.77-1.07-.41c1.06-2.43,2.19-4.85,3.37-7.24s2.42-4.76,3.68-7.11a279,279,0,0,0,29-141.87,283,283,0,0,0-21.26-90.65l709.39-57.23c12.47,68.44,82.92-20.91,85,54.64A1516.74,1516.74,0,0,1,3282.22,942.23Z"></path></clipPath><filter id="AI_GaussianBlur_7"><feGaussianBlur stdDeviation="7"></feGaussianBlur></filter></defs><g class="cls-2"><g id="Layer_2" data-name="Layer 2"><g id="Layer_1-2" data-name="Layer 1"><rect class="cls-3" x="288.26" y="161.54" width="3504.6" height="1963.94" rx="183.51"></rect><rect class="cls-1" width="4081.13" height="2287.02"></rect><path class="cls-4" d="M3280.59,1101.19c0-2.22,124.07-4.27,285.41-4.27s284.63,3.49,284.63,5.71-123.67,6.64-285,6.64S3280.59,1103.41,3280.59,1101.19Z"></path><rect class="cls-5" x="3354.31" y="602.09" width="436.04" height="115.32" rx="23.14"></rect><text class="cls-6" transform="translate(2590.15 676.84) scale(0.95 1)">H<tspan class="cls-7" x="38.92" y="0">O</tspan><tspan class="cls-8" x="79.48" y="0">S</tspan><tspan class="cls-9" x="110.55" y="0">T</tspan><tspan class="cls-10" x="140.03" y="0">E</tspan><tspan class="cls-11" x="172.63" y="0">D </tspan><tspan x="226.94" y="0">O</tspan><tspan class="cls-11" x="267.59" y="0">R </tspan><tspan class="cls-12" x="317.53" y="0">E</tspan><tspan class="cls-13" x="350.12" y="0">M</tspan><tspan class="cls-14" x="396.11" y="0">B</tspan><tspan class="cls-10" x="433.04" y="0">E</tspan><tspan class="cls-15" x="465.63" y="0">DD</tspan><tspan class="cls-12" x="545.2" y="0">E</tspan><tspan class="cls-11" x="577.79" y="0">D</tspan></text><text class="cls-16" transform="translate(2500.49 1881.42) scale(0.95 1)">A<tspan class="cls-17" x="36.98" y="0">P</tspan><tspan class="cls-18" x="71.64" y="0">I , </tspan><tspan class="cls-19" x="129.18" y="0">CL</tspan><tspan class="cls-18" x="192.79" y="0">I </tspan><tspan class="cls-20" x="223.15" y="0">O</tspan><tspan class="cls-18" x="263.79" y="0">R </tspan><tspan class="cls-21" x="313.73" y="0">G</tspan><tspan class="cls-22" x="350.85" y="0">I</tspan><tspan class="cls-9" x="366.3" y="0">T</tspan><tspan class="cls-23" x="395.78" y="0">HU</tspan><tspan class="cls-11" x="472.64" y="0">B </tspan><tspan class="cls-24" x="524.02" y="0">A</tspan><tspan class="cls-25" x="559.29" y="0">C</tspan><tspan class="cls-9" x="595.77" y="0">T</tspan><tspan class="cls-26" x="625.25" y="0">I</tspan><tspan class="cls-20" x="641.05" y="0">O</tspan><tspan class="cls-11" x="681.7" y="0">N</tspan></text><path class="cls-27" d="M3853.28,789.87v17.9H3324v-17.9a27.14,27.14,0,0,1,27.14-27.14h475A27.14,27.14,0,0,1,3853.28,789.87Z"></path><path class="cls-28" d="M3853.28,807.77v265.56a27.15,27.15,0,0,1-27.14,27.14h-475a27.15,27.15,0,0,1-27.14-27.14V807.77Z"></path><path class="cls-29" d="M3842.5,789.87v17.9H3313.17v-17.9a27.14,27.14,0,0,1,27.14-27.14h475.05A27.14,27.14,0,0,1,3842.5,789.87Z"></path><path class="cls-30" d="M3842.5,807.77V1086a14.5,14.5,0,0,1-14.49,14.5H3327.67a14.5,14.5,0,0,1-14.5-14.5V807.77Z"></path><rect class="cls-31" x="3459.76" y="840.36" width="362.17" height="244.25" rx="7.48"></rect><path class="cls-32" d="M3318.62,1095h534.66a0,0,0,0,1,0,0v5.45a0,0,0,0,1,0,0h-529.2a5.45,5.45,0,0,1-5.45-5.45v0A0,0,0,0,1,3318.62,1095Z"></path><rect class="cls-5" x="3332.69" y="840.36" width="102.22" height="16.18" rx="2.66"></rect><rect class="cls-5" x="3332.69" y="935.34" width="102.22" height="16.18" rx="2.58"></rect><rect class="cls-33" x="3332.69" y="964.88" width="102.22" height="9.15" rx="1.37"></rect><rect class="cls-33" x="3332.69" y="985.96" width="102.22" height="9.15" rx="1.37"></rect><rect class="cls-33" x="3332.69" y="866.73" width="102.22" height="9.15" rx="1.37"></rect><rect class="cls-33" x="3332.69" y="887.81" width="102.22" height="9.15" rx="1.37"></rect><rect class="cls-33" x="3332.69" y="1007.96" width="102.22" height="9.15" rx="1.37"></rect><rect class="cls-29" x="3333.59" y="1060.27" width="101.26" height="23.94" rx="6.16"></rect><rect class="cls-29" x="3345.3" y="602.09" width="436.04" height="115.32" rx="23.14"></rect><text class="cls-34" transform="translate(3449.84 676.84) scale(0.95 1)">A<tspan class="cls-35" x="31.29" y="0">P</tspan><tspan class="cls-36" x="60.64" y="0">I </tspan><tspan class="cls-37" x="86.27" y="0">P</tspan><tspan class="cls-38" x="115.9" y="0">O</tspan><tspan class="cls-39" x="150.3" y="0">R</tspan><tspan class="cls-40" x="180.33" y="0">T</tspan><tspan x="202.47" y="0">A</tspan><tspan class="cls-36" x="233.77" y="0">L</tspan></text><rect class="cls-5" x="3315.16" y="1791.63" width="531.58" height="140.58" rx="23.14"></rect><rect class="cls-29" x="3304.17" y="1791.63" width="531.58" height="140.58" rx="23.14"></rect><text class="cls-41" transform="translate(3370.09 1860.04) scale(0.95 1)">C<tspan class="cls-38" x="29.13" y="0">OD</tspan><tspan class="cls-36" x="97.19" y="0">E </tspan><tspan class="cls-42" x="136.74" y="0">G</tspan><tspan class="cls-43" x="168.17" y="0">E</tspan><tspan class="cls-44" x="195.76" y="0">N</tspan><tspan class="cls-43" x="228.69" y="0">E</tspan><tspan class="cls-45" x="256.28" y="0">R</tspan><tspan class="cls-46" x="287.37" y="0">A</tspan><tspan class="cls-47" x="315.57" y="0">T</tspan><tspan class="cls-48" x="340.53" y="0">I</tspan><tspan class="cls-38" x="353.95" y="0">O</tspan><tspan class="cls-49" x="388.35" y="0">N</tspan><tspan class="cls-50"><tspan x="61.92" y="41.82">A</tspan><tspan class="cls-49" x="93.91" y="41.82">S A </tspan><tspan class="cls-51" x="175.53" y="41.82">S</tspan><tspan class="cls-43" x="201.77" y="41.82">E</tspan><tspan class="cls-52" x="229.36" y="41.82">R</tspan><tspan class="cls-53" x="258.54" y="41.82">V</tspan><tspan class="cls-48" x="289.02" y="41.82">I</tspan><tspan class="cls-54" x="302.44" y="41.82">C</tspan><tspan class="cls-36" x="331.99" y="41.82">E</tspan></tspan></text><path class="cls-55" d="M3602,1682.45l4.43,18.67,4.43,18.68a28.66,28.66,0,0,1-25.34,34.52l-50.6,3.43-50.61,3.44.52,1.27.51,1.28,58.27,2.46,58.27,2.45,37.13-3.32,37.13-3.33a29.58,29.58,0,0,0,21.72-13.07,29,29,0,0,0,4-24.93l-6.21-21.44-6.22-21.43Z"></path><path class="cls-56" d="M3703.62,1736.77a30.94,30.94,0,0,1-4.9,12.47,31.49,31.49,0,0,1-8,8.24c-.61.44-1.23.85-1.86,1.24a29.47,29.47,0,0,1-12.68,4.18l-37.15,3.34-37.17,3.32h-.06l-58.57-2.48-58.56-2.46-.84-2.12-.3-.75-.37-.93,0-.09-.14-.36,14-.94,34.58-2.35,2.67-.19,51.21-3.48a27.52,27.52,0,0,0,11.07-3.48,28,28,0,0,0,8.69-7.72,27.55,27.55,0,0,0,4.75-10.6,28,28,0,0,0,0-11.63l-4.43-18.66-.41-1.75-1.7-7.17-.17-.69v0l0-.1-2.11-8.92.87-.2.87-.21.05.2,2.17,9.1,0,.13.58,2.41,1.62,6.83,4.43,18.68a29.58,29.58,0,0,1-14.34,31.92,29.63,29.63,0,0,1-11.79,3.71l-50,3.39-32,2.17-8.16.57-8.22.55-1.57.11.17.42.17.44,58,2.44,58,2.43,37.09-3.31,37.11-3.32a27.61,27.61,0,0,0,11.91-3.95c.42-.25.85-.54,1.27-.82a29.36,29.36,0,0,0,8-8.1,29,29,0,0,0,4.62-11.73,26.6,26.6,0,0,0-.89-12.24l-6.21-21.44L3691,1690l-2.5-8.6.88-.25.86-.26,2.63,9.06,3.58,12.38,6.22,21.43A28.76,28.76,0,0,1,3703.62,1736.77Z"></path><path class="cls-28" d="M3502.51,1391.67l-11.6,139.6-11.6,139.6a23.33,23.33,0,0,0,4,15.49c2.9,4,7.1,6.57,11.8,6.5l126.75-1.83,126.74-1.84a14.15,14.15,0,0,0,10.6-5.42,22.27,22.27,0,0,0,4.91-13.08l10.44-186.25L3785,1298.19c.39-7-5.73-13.2-13.27-17.19s-16.48-5.72-21.76-3.69l-118.2,48.7-118.21,48.7a16.12,16.12,0,0,0-7.54,6.37A22.92,22.92,0,0,0,3502.51,1391.67Z"></path><path class="cls-56" d="M3494.94,1693.77a13.77,13.77,0,0,1-5.76-1.28,16.27,16.27,0,0,1-5-3.7,21.44,21.44,0,0,1-4.64-8.11,25.67,25.67,0,0,1-1.09-9.89L3490,1531.2l11.6-139.6a23.9,23.9,0,0,1,3.68-11.06,16.94,16.94,0,0,1,7.95-6.67l118.19-48.7,118.2-48.69c3.32-1.28,8-1.2,12.86,0a41.74,41.74,0,0,1,14.35,6.63,25.1,25.1,0,0,1,6.94,7.26,13.69,13.69,0,0,1,2.12,7.87l-10.44,186.25L3765,1670.74a23.25,23.25,0,0,1-5.15,13.72,15,15,0,0,1-11.24,5.63l-126.75,1.84-126.75,1.84h-.19Zm7.57-302.1.45,0,.45,0-11.6,139.6-11.6,139.59a23.65,23.65,0,0,0,1,9.15,19.57,19.57,0,0,0,4.25,7.47,14.46,14.46,0,0,0,4.52,3.3,11.91,11.91,0,0,0,5.13,1.1l126.74-1.84,126.75-1.83a13.32,13.32,0,0,0,10-5.2,21.41,21.41,0,0,0,4.64-12.45l10.45-186.25,10.44-186.25a12.13,12.13,0,0,0-1.95-7,23.82,23.82,0,0,0-6.37-6.58,40.32,40.32,0,0,0-13.51-6.27c-4.61-1.16-9-1.3-12-.14l-118.2,48.69-118.19,48.7a15.19,15.19,0,0,0-7.17,6.07,22.16,22.16,0,0,0-3.33,10.13l-.45,0Z"></path><path class="cls-57" d="M3602.51,1691.72l2.69,12.57,2.69,12.56a28.65,28.65,0,0,1-25.34,34.52l-50.09,4.71-50.09,4.72,58.27,2.45,58.27,2.46,37.13-3.33,37.13-3.32A28.65,28.65,0,0,0,3698,1722l-5.66-18.07-5.65-18.06Z"></path><path class="cls-56" d="M3598.93,1766.61h0l-58.28-2.46-58.27-2.45,0-.9,0-.9,50.09-4.72,50.09-4.71a27.72,27.72,0,0,0,24.53-21.81,27.92,27.92,0,0,0,0-11.62l-2.69-12.56-2.69-12.57.88-.19.89-.19,2.69,12.57,2.68,12.56a29.55,29.55,0,0,1-26.13,35.61l-43.48,4.09-43.49,4.09,51.61,2.18,51.61,2.17,37.1-3.32,37.1-3.32a27.72,27.72,0,0,0,24-35.93l-5.66-18.07-5.65-18.06.86-.27.86-.27,5.66,18.06,5.65,18.07a29.53,29.53,0,0,1-25.57,38.27l-37.16,3.32Z"></path><path class="cls-58" d="M3778.32,1297.54,3765.1,1484l-13.22,186.46a19.87,19.87,0,0,1-6.22,13.09,19.63,19.63,0,0,1-9.93,5.08h0a18.88,18.88,0,0,1-3.46.35l-160.52,1.83-11.61.13-148.88,1.72a19.81,19.81,0,0,1-14.94-6.51c-.13-.14-.26-.3-.4-.44l0-.07a19.68,19.68,0,0,1-4.21-8.26,19.91,19.91,0,0,1-.44-6.75l14.7-139.75,6.27-59.65.16-1.52,8.26-78.58a19.91,19.91,0,0,1,14-17l159-48.55,159-48.54a18.7,18.7,0,0,1,3.75-.74.16.16,0,0,1,.1,0,19.69,19.69,0,0,1,14.38,4.25,20.26,20.26,0,0,1,3.6,3.74l.05,0A19.75,19.75,0,0,1,3778.32,1297.54Z"></path><path class="cls-56" d="M3779.19,1288.42A21,21,0,0,0,3764,1276.3a20.34,20.34,0,0,0-7.54,0,.16.16,0,0,0-.1,0,19.55,19.55,0,0,0-2.32.56l-159,48.54L3436,1374a20.82,20.82,0,0,0-14.63,17.76l-8.13,77.43-6.55,62.32L3392,1671.22a20.81,20.81,0,0,0,.93,8.68,20.32,20.32,0,0,0,2.94,5.75l0,.07c.44.59.91,1.17,1.41,1.72a21,21,0,0,0,7,5,20.76,20.76,0,0,0,8.4,1.78h.24l145.94-1.68,14.56-.17,160.51-1.83a21,21,0,0,0,20.52-19.37l13.22-186.45,13.22-186.46A20.68,20.68,0,0,0,3779.19,1288.42Zm-.1,9.73-13.22,186.47-13.22,186.46a19.1,19.1,0,0,1-16.92,17.56h0a15.39,15.39,0,0,1-1.8.11l-160.5,1.85-13.13.15-147.37,1.68h-.22a19,19,0,0,1-14-6.2,19.11,19.11,0,0,1-4.86-14.81l14.69-139.77,6.69-63.7,8-76a19,19,0,0,1,13.37-16.21l159-48.55,159-48.54a18.79,18.79,0,0,1,17.38,3.31,21,21,0,0,1,2.5,2.38l.05,0a18.79,18.79,0,0,1,4.56,13.81Z"></path><path class="cls-59" d="M3414.79,1693.83l331.07-4.57c7.15-.1,12.59-3.4,11.62-7h0l-360.17,4.71h0C3399.22,1691.07,3406.49,1694,3414.79,1693.83Z"></path><path class="cls-57" d="M3441.66,1403.23l-13,110.19-13,110.2a17.57,17.57,0,0,0,17.67,19.42l140.81-7.93,140.82-7.92a17.57,17.57,0,0,0,17.31-16.34l12.39-145.08,12.4-145.07a17.57,17.57,0,0,0-22.64-18.07l-140.25,42.81L3454,1388.25a17.59,17.59,0,0,0-12.34,15Z"></path><path class="cls-56" d="M3433.24,1643.94a18.47,18.47,0,0,1-13.68-6,18.54,18.54,0,0,1-4.71-14.39l13-110.2,13-110.2a18.46,18.46,0,0,1,13-15.73L3594,1344.58l140.25-42.81a18.47,18.47,0,0,1,23.8,19l-12.39,145.09-12.4,145.08a18.56,18.56,0,0,1-18.2,17.16l-140.8,7.93-140.79,7.92h-.22Zm306.46-341.19a17.23,17.23,0,0,0-2.47.19,16.76,16.76,0,0,0-2.46.56l-140.25,42.81-140.25,42.81a16.62,16.62,0,0,0-11.71,14.2h0l-13,110.2-13,110.19a16.69,16.69,0,0,0,16.57,18.42h.19l140.79-7.92,140.8-7.92a16.78,16.78,0,0,0,16.46-15.5l12.39-145.09,12.4-145.08a16.77,16.77,0,0,0-11.14-16.94A16.22,16.22,0,0,0,3739.7,1302.75Z"></path><path class="cls-60" d="M3539,1454.62a28.44,28.44,0,1,1-8.33-20.1A28.33,28.33,0,0,1,3539,1454.62Z"></path><path class="cls-56" d="M3510.58,1484a29.36,29.36,0,1,1,20.73-8.6A29.27,29.27,0,0,1,3510.58,1484Zm0-56.85a27.55,27.55,0,1,0,19.46,8.07A27.43,27.43,0,0,0,3510.58,1427.1Z"></path><path class="cls-60" d="M3534.7,1454.62a28.44,28.44,0,1,1-8.33-20.1A28.37,28.37,0,0,1,3534.7,1454.62Z"></path><path class="cls-56" d="M3506.27,1484a29.36,29.36,0,1,1,20.73-8.6A29.23,29.23,0,0,1,3506.27,1484Zm0-56.85a27.55,27.55,0,1,0,19.45,8.07A27.39,27.39,0,0,0,3506.27,1427.1Z"></path><path class="cls-60" d="M3584.31,1498.59a28.42,28.42,0,1,1-8.32-20.1A28.36,28.36,0,0,1,3584.31,1498.59Z"></path><path class="cls-56" d="M3555.89,1527.92a29.36,29.36,0,1,1,20.72-8.6A29.23,29.23,0,0,1,3555.89,1527.92Zm0-56.85a27.55,27.55,0,1,0,19.45,8.07A27.44,27.44,0,0,0,3555.89,1471.07Z"></path><path class="cls-60" d="M3588,1562.74a28.44,28.44,0,1,1-8.33-20.1A28.35,28.35,0,0,1,3588,1562.74Z"></path><path class="cls-56" d="M3559.53,1592.07a29.36,29.36,0,1,1,20.73-8.6A29.23,29.23,0,0,1,3559.53,1592.07Zm0-56.85a27.55,27.55,0,1,0,19.45,8.07A27.39,27.39,0,0,0,3559.53,1535.22Z"></path><path class="cls-60" d="M3558.94,1624.86a28.42,28.42,0,1,1-8.33-20.1A28.35,28.35,0,0,1,3558.94,1624.86Z"></path><path class="cls-56" d="M3530.51,1654.19a29.36,29.36,0,1,1,20.73-8.6A29.23,29.23,0,0,1,3530.51,1654.19Zm0-56.85a27.55,27.55,0,1,0,19.45,8.07A27.44,27.44,0,0,0,3530.51,1597.34Z"></path><path class="cls-60" d="M3505.29,1661a28.42,28.42,0,1,1-8.32-20.1A28.34,28.34,0,0,1,3505.29,1661Z"></path><path class="cls-56" d="M3476.87,1690.37a29.36,29.36,0,1,1,20.73-8.6A29.23,29.23,0,0,1,3476.87,1690.37Zm0-56.85a27.55,27.55,0,1,0,19.45,8.07A27.39,27.39,0,0,0,3476.87,1633.52Z"></path><g id="g4"><g id="g6"><g id="path8"><path class="cls-61" d="M3488.58,1449l2.76-.12,2.77-.12a5.7,5.7,0,0,1,2.11.27,3.45,3.45,0,0,1,1.48,1,3.84,3.84,0,0,1,.8,1.6,6.42,6.42,0,0,1,.08,2.13,6.7,6.7,0,0,1-.18,1.09,9.19,9.19,0,0,1-.37,1.08,6,6,0,0,1-1.24,1.94,5.45,5.45,0,0,1-1,.92,4,4,0,0,1-1.12.53,9.34,9.34,0,0,1-1.19.27,9.85,9.85,0,0,1-1.23.12l-1.24.06-1.24,0-.31,2-.31,2-1.43.06-1.43.06,1.16-7.43,1.16-7.42m2.51,2.23-.49,3.11-.48,3.11h.53a13.76,13.76,0,0,0,1.82-.17,7.88,7.88,0,0,0,1.47-.37,2,2,0,0,0,1.06-1,6.1,6.1,0,0,0,.59-2.06,3.78,3.78,0,0,0-.08-1.7,1.06,1.06,0,0,0-.77-.75,6.44,6.44,0,0,0-1.25-.19,12.65,12.65,0,0,0-1.51,0l-.24,0-.23,0h-.44v0h0"></path></g><g id="path10"><path class="cls-61" d="M3501.46,1444.46l1.43-.06,1.42-.06-.32,2-.32,2,1.28-.06,1.28,0a7.41,7.41,0,0,1,1.85.16,3.59,3.59,0,0,1,1.33.57,1.94,1.94,0,0,1,.73,1.16,5.12,5.12,0,0,1,0,1.93l-.54,3.45-.55,3.45-1.44.07-1.45.06.52-3.3.52-3.29a3,3,0,0,0,0-.88,1.07,1.07,0,0,0-.22-.57,1.09,1.09,0,0,0-.54-.31,3.46,3.46,0,0,0-.91-.07l-1.14,0-1.15,0-.66,4.26-.67,4.26-1.42.06-1.43.06,1.17-7.44,1.17-7.44"></path></g><g id="path12"><path class="cls-61" d="M3513.05,1447.9l2.77-.12,2.76-.12a5.78,5.78,0,0,1,2.12.27,3.36,3.36,0,0,1,1.47,1,3.72,3.72,0,0,1,.8,1.6,6.15,6.15,0,0,1,.09,2.13,8,8,0,0,1-.19,1.09,7.6,7.6,0,0,1-.36,1.08,7.06,7.06,0,0,1-.53,1,6.12,6.12,0,0,1-.71.92,5.78,5.78,0,0,1-1,.92,4.08,4.08,0,0,1-1.12.53,8.18,8.18,0,0,1-1.19.27,10.22,10.22,0,0,1-1.24.13l-1.24.05-1.23,0-.31,2-.31,2-1.44.06-1.43.06,1.16-7.43,1.16-7.42m2.52,2.23-.49,3.11-.49,3.11h.54a13.76,13.76,0,0,0,1.81-.17,8.79,8.79,0,0,0,1.47-.36,2.06,2.06,0,0,0,1.07-1,6.12,6.12,0,0,0,.58-2.06,4,4,0,0,0-.07-1.7,1.06,1.06,0,0,0-.78-.75,6.34,6.34,0,0,0-1.24-.19,12.82,12.82,0,0,0-1.52,0l-.24,0-.23,0h-.42v0"></path></g></g></g><path class="cls-60" d="M3580,1498.59a28.44,28.44,0,1,1-8.33-20.1A28.33,28.33,0,0,1,3580,1498.59Z"></path><path class="cls-56" d="M3551.57,1527.92a29.36,29.36,0,1,1,20.73-8.6A29.25,29.25,0,0,1,3551.57,1527.92Zm0-56.85a27.55,27.55,0,1,0,19.45,8.07A27.39,27.39,0,0,0,3551.57,1471.07Z"></path><path class="cls-60" d="M3583.64,1562.74a28.42,28.42,0,1,1-8.32-20.1A28.34,28.34,0,0,1,3583.64,1562.74Z"></path><path class="cls-56" d="M3555.22,1592.07a29.36,29.36,0,1,1,20.73-8.6A29.23,29.23,0,0,1,3555.22,1592.07Zm0-56.85a27.55,27.55,0,1,0,19.45,8.07A27.44,27.44,0,0,0,3555.22,1535.22Z"></path><path class="cls-60" d="M3554.62,1624.86a28.41,28.41,0,1,1-8.32-20.1A28.34,28.34,0,0,1,3554.62,1624.86Z"></path><path class="cls-56" d="M3526.2,1654.19a29.36,29.36,0,1,1,20.72-8.6A29.23,29.23,0,0,1,3526.2,1654.19Zm0-56.85a27.55,27.55,0,1,0,19.45,8.07A27.48,27.48,0,0,0,3526.2,1597.34Z"></path><path class="cls-60" d="M3501,1661a28.44,28.44,0,1,1-8.33-20.1A28.31,28.31,0,0,1,3501,1661Z"></path><path class="cls-56" d="M3472.55,1690.37a29.36,29.36,0,1,1,20.73-8.6A29.25,29.25,0,0,1,3472.55,1690.37Zm0-56.85a27.55,27.55,0,1,0,19.46,8.07A27.41,27.41,0,0,0,3472.55,1633.52Z"></path><path class="cls-62" d="M3548.13,1497.85s-.25.16-.29.34.16.38,1.06.46a18,18,0,0,0,2.77.09,18.72,18.72,0,0,0,2.92-.45s.16.1.43.24a10.93,10.93,0,0,0,1.1.47,12.69,12.69,0,0,1-7.57.81C3546.69,1499.37,3546,1498.48,3548.13,1497.85Zm-.72-3a1.12,1.12,0,0,0-.35.47c-.06.24.1.5,1,.58a23.49,23.49,0,0,0,3.35.07,26.24,26.24,0,0,0,4-.57,2.07,2.07,0,0,0,.31.24,3,3,0,0,0,.83.42,20.28,20.28,0,0,1-8.72.78C3545.77,1496.48,3545.1,1495.67,3547.41,1494.85Z"></path><path class="cls-62" d="M3552.86,1489.63a1.77,1.77,0,0,1,.36,2,2.78,2.78,0,0,1-.65.89,6,6,0,0,0,1.46-1.17,2.05,2.05,0,0,0,.28-2.78c-.75-1-1.4-1.75-1.13-2.7s1.48-2.09,4.44-3.89a14.85,14.85,0,0,0-4.11,1.91C3551.75,1485.18,3550.55,1487.09,3552.86,1489.63Z"></path><path class="cls-62" d="M3560.19,1499.83a.56.56,0,0,1,.19.38c0,.22-.22.51-1,.77a34.55,34.55,0,0,1-7.95,1c-3.19.11-6.33,0-7.71-.62-.49-.2-.28-.46.12-.69a6.42,6.42,0,0,1,1.3-.48,6,6,0,0,1,.7-.12h.24c-.55-.37-2.3,0-3.42.62s-1.58,1.32.44,1.61a43.19,43.19,0,0,0,13.76-.18c3.27-.65,4.79-1.65,3.36-2.26Zm-11.68-8.12a16.68,16.68,0,0,0-2.08.69c-.84.37-1.27.78.35,1a20.78,20.78,0,0,0,2.87.06c1.16,0,2.47-.13,3.74-.26,1-.11,2.06-.27,2.84-.4l1.29-.23-.43.21a7.29,7.29,0,0,0-.81.49,32.59,32.59,0,0,1-9,.87c-2.73-.11-4.49-.57-3.09-1.28a10.59,10.59,0,0,1,3-1,7.21,7.21,0,0,1,1.26-.1Zm9.07,4.83c2.55-1.4,3.22-2.72,3-3.66a1.72,1.72,0,0,0-2-1.27,2.74,2.74,0,0,0-.45.12l-.14,0,.11-.14a.85.85,0,0,1,.33-.21c1.63-.61,3.11.21,3.31,1.43s-.84,2.84-4.27,3.81l0,0A.47.47,0,0,0,3557.58,1496.54Z"></path><path class="cls-62" d="M3554.06,1476.46a3,3,0,0,1,.77,2c.05,1.26-.59,3.09-3.33,5.34-2.2,1.81-2.42,3.2-2,4.42s1.6,2.28,2.13,3.42a17.46,17.46,0,0,1-3.15-3.27,2.64,2.64,0,0,1-.22-3c.91-1.43,2.67-2.51,4-3.81s2.35-2.79,1.73-5Z"></path><path class="cls-62" d="M3549.27,1504a42.24,42.24,0,0,0,8.15-.42c2.54-.43,4.47-1.18,4.54-2.35,0,0-.09.22-.63.54a11.86,11.86,0,0,1-3.43,1.13,37.73,37.73,0,0,1-6.68.72,36.61,36.61,0,0,1-5.85-.27,2.1,2.1,0,0,0,.73.27A15.58,15.58,0,0,0,3549.27,1504Z"></path><path class="cls-62" d="M3561.86,1507.92h-.15v-.08h.41v.09H3562v.42h-.11v-.42Zm.82,0h0l-.07.2-.07.2h-.07l-.07-.2-.08-.2h0v.4h-.1v-.51h.15l.07.17.07.18.07-.18.07-.18h.14v.5h-.1v-.4Zm-14,5a2.74,2.74,0,0,1-.7.48,1.48,1.48,0,0,1-.69.18,1,1,0,0,1-.73-.25,1,1,0,0,1-.26-.71.94.94,0,0,1,.35-.83,2.61,2.61,0,0,1,1.46-.35h.54l0,.75v.74Zm1.32,1.43,0-2.25-.05-2.25a1.8,1.8,0,0,0-.55-1.38,2.47,2.47,0,0,0-1.73-.48,5.29,5.29,0,0,0-1.29.17,6.21,6.21,0,0,0-1.08.39l.1.4.1.4a7.43,7.43,0,0,1,.87-.28,5.15,5.15,0,0,1,1-.13,1.5,1.5,0,0,1,1,.26,1.09,1.09,0,0,1,.33.84v.57h-.46a4.15,4.15,0,0,0-2.42.64,1.83,1.83,0,0,0-.75,1.57,1.73,1.73,0,0,0,.51,1.28,2.06,2.06,0,0,0,1.43.43,2.62,2.62,0,0,0,1.06-.25,3.76,3.76,0,0,0,.87-.6l0,.34.06.34h1Zm4.3-.09-.8,0h-.8l-1-3.12-1-3.13.71,0h.7l.64,1.92.64,1.92.14.58.15.58c.28-.85.53-1.7.72-2.54a22.9,22.9,0,0,0,.43-2.52h1.36a26.09,26.09,0,0,1-.7,3.21A22.15,22.15,0,0,1,3554.26,1514.28Zm6.14-1.58a3.31,3.31,0,0,1-.7.49,1.67,1.67,0,0,1-.69.17.89.89,0,0,1-1-1,.92.92,0,0,1,.35-.83,2.58,2.58,0,0,1,1.46-.35h.54l0,.75Zm1.32,1.43,0-2.25,0-2.25a1.81,1.81,0,0,0-.56-1.38,2.46,2.46,0,0,0-1.72-.48,5.83,5.83,0,0,0-1.29.17,6.33,6.33,0,0,0-1.09.39l.1.4.11.4a7.25,7.25,0,0,1,.86-.28,5.37,5.37,0,0,1,1-.13,1.45,1.45,0,0,1,1,.26,1.05,1.05,0,0,1,.33.84v.57h-.45a4.16,4.16,0,0,0-2.43.64,1.85,1.85,0,0,0-.74,1.57,1.7,1.7,0,0,0,.51,1.28,2,2,0,0,0,1.42.43,2.55,2.55,0,0,0,1.06-.25,3.38,3.38,0,0,0,.87-.6l.06.34.06.34h1Zm-18.1,1.44a3.17,3.17,0,0,1-.69.73,3.77,3.77,0,0,1-.9.5l-.33-.36-.32-.37a3.23,3.23,0,0,0,.66-.49,2.17,2.17,0,0,0,.43-.58,2,2,0,0,0,.17-.65,7.83,7.83,0,0,0,0-1.18l-.08-3.59-.07-3.6h1.37l.07,3.54.07,3.54a7.85,7.85,0,0,1-.07,1.58A2.44,2.44,0,0,1,3543.62,1515.57Z"></path><g id="layer1"><g id="g1894"><g id="path8615"><path class="cls-61" d="M3555.18,1548.29c-4-.06-5.86.78-6.74,1.63a2.16,2.16,0,0,0-.78,1.71l0,1.79,0,1.79,3.8.06,3.8.06v1.07l-5.3-.08-5.31-.09a4.16,4.16,0,0,0-2.56.68c-1.28.84-2.59,2.68-2.65,6.7s1,6,2.12,6.92a3.41,3.41,0,0,0,2.2.9l1.33,0,1.33,0,0-1.87,0-1.86a5.43,5.43,0,0,1,.52-2.22,3.94,3.94,0,0,1,3.92-2.16l5.46.09,2.07,0a5.43,5.43,0,0,0,2.13-.45,3.68,3.68,0,0,0,2.17-3.58l.08-5,0-1.88a2.85,2.85,0,0,0-.69-2.1C3561.24,1549.43,3559.34,1548.36,3555.18,1548.29Zm-4.23,2.34a1.38,1.38,0,0,1,1,.42,1.35,1.35,0,0,1,.39,1,1.38,1.38,0,0,1-.42,1,1.35,1.35,0,0,1-1,.39,1.38,1.38,0,0,1-1-.42,1.39,1.39,0,0,1-.39-1,1.38,1.38,0,0,1,.42-1A1.39,1.39,0,0,1,3551,1550.63Z"></path></g><g id="path8620"><path class="cls-61" d="M3554.91,1579.49c4,.07,5.86-.77,6.74-1.62a2.17,2.17,0,0,0,.78-1.71l0-1.79,0-1.79-3.8-.06-3.8-.06v-1.07l5.3.08,5.31.08a4.11,4.11,0,0,0,2.56-.67c1.28-.84,2.59-2.68,2.65-6.7s-1-6-2.12-6.92a3.41,3.41,0,0,0-2.2-.9l-1.33,0-1.33,0,0,1.86,0,1.87a5.37,5.37,0,0,1-.52,2.21,3.93,3.93,0,0,1-3.92,2.17l-5.46-.09-2.07,0a5.23,5.23,0,0,0-2.13.45,3.67,3.67,0,0,0-2.17,3.57l-.08,5,0,1.88a2.83,2.83,0,0,0,.69,2.09C3548.85,1578.36,3550.75,1579.43,3554.91,1579.49Zm4.23-2.34a1.33,1.33,0,0,1-1-.41,1.35,1.35,0,0,1,0-1.93,1.31,1.31,0,0,1,1-.39,1.34,1.34,0,0,1,1,.42,1.39,1.39,0,0,1,.39,1,1.38,1.38,0,0,1-.42,1A1.34,1.34,0,0,1,3559.14,1577.15Z"></path></g></g></g><path class="cls-61" d="M3539.89,1618.71a2.52,2.52,0,0,0-.39-.59,2.83,2.83,0,0,0-.58-.5l-5.5-3.76-5.5-3.75a3.05,3.05,0,0,0-1.5-.56,3.17,3.17,0,0,0-1.57.35l-5.68,2.73-6.27,3a2.78,2.78,0,0,0-1.13.94,2.87,2.87,0,0,0-.45,1.4l-.51,6.67-.51,6.67a3.16,3.16,0,0,0,0,.76,2.55,2.55,0,0,0,.2.68,2.63,2.63,0,0,0,.39.61,3.33,3.33,0,0,0,.59.52l5.74,3.91,5.2,3.55a3.11,3.11,0,0,0,1.5.59,3,3,0,0,0,1.56-.32l6-2.88,6-2.87a2.78,2.78,0,0,0,.66-.43,2.45,2.45,0,0,0,.48-.54,2.22,2.22,0,0,0,.3-.64,2.94,2.94,0,0,0,.14-.75s.17-2.22.38-5,.47-6.11.64-8.33a3.33,3.33,0,0,0,0-.78A2.75,2.75,0,0,0,3539.89,1618.71Zm-15.3,17.76h-.12a10.76,10.76,0,0,1-5.33-1.89,11,11,0,0,1-3.55-4.19v0h0a10.6,10.6,0,0,1-1-5.41,10.75,10.75,0,0,1,20.38-3.87l-2.43,1.16-2.44,1.17a5.34,5.34,0,0,0-1.74-2,5.27,5.27,0,0,0-2.59-.94h-.06a5.36,5.36,0,0,0-5.74,4.93,5.34,5.34,0,0,0,.07,1.39,6.37,6.37,0,0,0,.41,1.28v0h0a5.33,5.33,0,0,0,7.19,2.5,5.23,5.23,0,0,0,2.06-1.79h0l2.22,1.53,2.23,1.52h0a11,11,0,0,1-4.1,3.56A10.75,10.75,0,0,1,3524.59,1636.47Zm12.84-10.6-.76-.06-.76,0-.06.76,0,.75.75.06.76.06,0,.38,0,.38-.77-.06-.76,0-.05.76-.06.75-.38,0-.38,0,.06-.76.06-.77-.76,0-.76-.06-.06.76-.06.76-.38,0-.38,0,.06-.76.06-.75-.76-.06-.76-.06,0-.38,0-.38.76.06.76.06.06-.76,0-.77-.76,0-.76-.06,0-.38,0-.38.76.06.76.06.06-.76.06-.77.38,0,.37,0-.05.76-.06.76.76.06.76.06.05-.76.06-.76.38,0,.39,0-.06.76-.06.76.76.06.76,0,0,.38Zm-3.91,1.23.75.06.76.06.06-.76.06-.76-.76-.06-.76-.06-.06.76Z"></path><path class="cls-61" d="M3520.46,1628.05h0v0l2.41-1.15,2.41-1.16,2.23,1.53,2.22,1.52a5.23,5.23,0,0,1-2.06,1.79,5.34,5.34,0,0,1-7.19-2.5Z"></path><path class="cls-61" d="M3538.67,1634.9a2.45,2.45,0,0,1-.48.54,2.78,2.78,0,0,1-.66.43l-6,2.87-6,2.88a3,3,0,0,1-1.56.32,3.11,3.11,0,0,1-1.5-.59l-5.2-3.55-5.74-3.91a3.33,3.33,0,0,1-.59-.52,2.63,2.63,0,0,1-.39-.61l2.52-1.2,2.53-1.21h0v0a11,11,0,0,0,3.55,4.19,10.76,10.76,0,0,0,5.33,1.89h.12a10.75,10.75,0,0,0,5.48-1.09,11,11,0,0,0,4.1-3.56l2.25,1.54Z"></path><polygon class="cls-61" points="3533.63 1625.58 3534.39 1625.64 3535.15 1625.7 3535.09 1626.46 3535.03 1627.22 3534.27 1627.16 3533.52 1627.1 3533.57 1626.34 3533.63 1625.58"></polygon><path class="cls-61" d="M3539.89,1618.71l-2.47,1.18-2.46,1.18-2.43,1.16-2.44,1.17-2.41,1.15-2.42,1.16,2.23,1.53,2.22,1.52h0l2.22,1.53,2.23,1.52h0l2.25,1.54,2.25,1.54a2.22,2.22,0,0,0,.3-.64,2.94,2.94,0,0,0,.14-.75s.17-2.22.38-5,.47-6.11.64-8.33a3.33,3.33,0,0,0,0-.78A2.75,2.75,0,0,0,3539.89,1618.71Zm-2.46,7.16-.76-.06-.76,0-.06.76,0,.75.75.06.76.06,0,.38,0,.38-.77-.06-.76,0-.05.76-.06.75-.38,0-.38,0,.06-.76.06-.77-.76,0-.76-.06-.06.76-.06.76-.38,0-.38,0,.06-.76.06-.75-.76-.06-.76-.06,0-.38,0-.38.76.06.76.06.06-.76,0-.77-.76,0-.76-.06,0-.38,0-.38.76.06.76.06.06-.76.06-.77.38,0,.37,0-.05.76-.06.76.76.06.76.06.05-.76.06-.76.38,0,.39,0-.06.76-.06.76.76.06.76,0,0,.38Z"></path><path class="cls-61" d="M3474.94,1658.9l-4.34,2.94-4.37,3,6.7.75,6.71.76-2.36-3.73Zm5.58-8.53-.57.9-.57.91c-.66,1-1.31,2.07-2,3.1l-2,3.11a.7.7,0,0,0-.09.17.24.24,0,0,0,0,.21l2,3.2,2,3.19q.15.25.33.51a5.25,5.25,0,0,0,.37.49l.2-7.89.21-7.88h-.06Zm-17.69,7.17a.45.45,0,0,0,.14.06.34.34,0,0,0,.15,0l1.86-1c.62-.33,1.23-.66,1.84-1a2.75,2.75,0,0,0,.53-.44c.17-.17.33-.35.5-.51l1.67-1.61,1.67-1.62.11-.1a.44.44,0,0,0,.08-.11c.19-.41.39-.81.58-1.22s.39-.82.59-1.24l-.74-.26-.72-.24a.14.14,0,0,0-.11,0,.34.34,0,0,0-.12.06l-1.64,1c-.55.32-1.09.65-1.61,1a4.22,4.22,0,0,0-.73.61c-.23.23-.45.46-.69.68l-1.11,1.08-1.11,1.08a4.12,4.12,0,0,0-.28.31c-.08.11-.17.22-.24.33l-.74,1.15-.74,1.18c.15.14.29.29.43.43Zm4.56-1.14-.84,4c-.28,1.33-.56,2.67-.85,4l4.39-3,4.33-2.94-3.51-1Zm4.87-4.55,1.35,3.08L3475,1658c.8-1.28,1.6-2.54,2.4-3.8l2.39-3.8-3.76.73Zm-4.78,4,3.44,1,3.45,1-1.34-3.06-1.34-3-2.1,2Zm-4.52,3.21-1.12,2.89-1.13,2.88,2.27-.12,2.28-.12-1.14-2.75Zm2.32,4.2h.06c.25-1.14.49-2.28.74-3.44s.5-2.31.75-3.5l-1.81,1-1.8,1c.34.8.68,1.63,1,2.46S3464.94,1662.44,3465.28,1663.27Zm13.55-13.2-1.1-.27-1.1-.26-1.58-.37-1.58-.37a.35.35,0,0,0-.17,0c-.05,0-.09,0-.13.12-.17.39-.35.77-.53,1.15l-.54,1.14a.43.43,0,0,0,0,0v.06l3.37-.59,3.37-.59v0Zm-4.26-1.62,2.95.74,3,.75-.52-1.38-.52-1.38-2.47.61-2.45.6v.06Zm2.23,18-2.44-.27-2.44-.27-3-.35c-1-.12-2-.23-3.05-.32a10.25,10.25,0,0,0-1.11,0c-.37,0-.75.06-1.12.07l-.92,0-.91.05a.18.18,0,0,0-.1,0,.18.18,0,0,0-.09.07l7.6.51,7.61.52v-.07Zm-16-3.37c.3-.77.61-1.53.92-2.29l.92-2.3a.38.38,0,0,0,0-.2.33.33,0,0,0-.11-.17l-.42-.4-.43-.43-.53,3-.52,3h0l.05-.08Zm12.49-15,1.65-.43,1.65-.4.11,0,.1,0v0l-2.37.38-2.38.37a3.17,3.17,0,0,0,.63.22A1.31,1.31,0,0,0,3473.26,1648.08Zm-9.76,23.57,0,1,0,1h-1.08l-.06-2.53-.06-2.54.74,0h.74a3.58,3.58,0,0,1,.9.07,1.63,1.63,0,0,1,.64.27,1.14,1.14,0,0,1,.38.46,1.7,1.7,0,0,1,.14.67,1.42,1.42,0,0,1,0,.42,1.46,1.46,0,0,1-.47.7,1.84,1.84,0,0,1-.39.24l.77,1.09.77,1.09h-1.19l-.63-1-.63-1h-.57Zm0-.87h.35a1.9,1.9,0,0,0,.44,0,1.11,1.11,0,0,0,.31-.14.52.52,0,0,0,.17-.22.79.79,0,0,0,.06-.32.94.94,0,0,0-.07-.31.61.61,0,0,0-.19-.2,1.21,1.21,0,0,0-.32-.1,2.13,2.13,0,0,0-.46,0h-.32v.68l0,.69Zm6.35,2.67-.08-.25-.08-.25h-.05a1,1,0,0,1-.2.25,1.27,1.27,0,0,1-.27.18,1.06,1.06,0,0,1-.34.12,1.44,1.44,0,0,1-.37,0,1.82,1.82,0,0,1-.6-.08,1,1,0,0,1-.44-.26,1.16,1.16,0,0,1-.27-.44,1.9,1.9,0,0,1-.1-.61l0-1.26,0-1.27H3468l0,1.13,0,1.13a1.9,1.9,0,0,0,0,.37.89.89,0,0,0,.12.26.43.43,0,0,0,.2.15.61.61,0,0,0,.28,0,1,1,0,0,0,.38-.08.72.72,0,0,0,.26-.23,1.24,1.24,0,0,0,.14-.4,2.7,2.7,0,0,0,0-.59l0-.91,0-.92h1.06l0,1.94,0,1.94h-.81Zm4-4a1.37,1.37,0,0,1,.62.11,1.28,1.28,0,0,1,.47.4,1.9,1.9,0,0,1,.31.62,3.05,3.05,0,0,1,.11.84,2.83,2.83,0,0,1-.08.85,1.78,1.78,0,0,1-.28.64,1.28,1.28,0,0,1-.46.41,1.53,1.53,0,0,1-.62.15,1.48,1.48,0,0,1-.61-.11,1.26,1.26,0,0,1-.47-.36h-.08l-.08.21-.08.22h-.81l-.07-2.7-.06-2.7h1.06v.62l0,.63c0,.08,0,.19,0,.31s0,.28,0,.46h.05a1.29,1.29,0,0,1,.45-.45,1.28,1.28,0,0,1,.63-.15Zm-.32.85a.89.89,0,0,0-.34.07.45.45,0,0,0-.22.19.67.67,0,0,0-.13.32,2.21,2.21,0,0,0,0,.48v.11a3.69,3.69,0,0,0,.06.54.86.86,0,0,0,.15.35.52.52,0,0,0,.24.2,1,1,0,0,0,.35.06.66.66,0,0,0,.29-.08.64.64,0,0,0,.22-.24,1,1,0,0,0,.14-.37,2.47,2.47,0,0,0,0-.5,2.32,2.32,0,0,0-.07-.5,1,1,0,0,0-.15-.36.9.9,0,0,0-.23-.21A.78.78,0,0,0,3473.49,1670.25Zm2-.82.58,0h.58l.39,1.08.39,1.08.09.31.06.36h0c0-.12,0-.23,0-.35a3,3,0,0,1,.09-.32l.33-1.1.33-1.1.57,0h.57l-.77,2.21-.77,2.2a1.94,1.94,0,0,1-.26.54,1.67,1.67,0,0,1-.36.39,1.37,1.37,0,0,1-.45.23,1.46,1.46,0,0,1-.52.09h-.27l-.27,0v-.84l.2,0h.22a.82.82,0,0,0,.49-.18.79.79,0,0,0,.18-.22,1.26,1.26,0,0,0,.13-.31l0-.09,0-.1-.82-1.91Z"></path><path class="cls-28" d="M764.79,1047.36l141,174L765.14,1394.91a2.19,2.19,0,0,1-1.62.81l-9.59.35a2.19,2.19,0,0,1-2.25-2.48l12.84-93.88H543.14a76.43,76.43,0,0,1-76.44-76.43h0a76.43,76.43,0,0,1,76.44-76.43H764.52l-13-99.47a1,1,0,0,1,1-1.11l11.57.74A1,1,0,0,1,764.79,1047.36Z"></path><path class="cls-63" d="M752.77,1049.18l139.52,172.17L754.91,1390.89a2.19,2.19,0,0,1-3.89-1.38v-89.8H529.64a76.44,76.44,0,0,1-76.44-76.43h0a76.44,76.44,0,0,1,76.44-76.43H751v-97A1,1,0,0,1,752.77,1049.18Z"></path><circle class="cls-5" cx="355.99" cy="1234.91" r="232.22"></circle><circle class="cls-33" cx="340.84" cy="1234.81" r="232.22"></circle><path class="cls-30" d="M462.88,1167.72v177.57c0,15.7-13.08,28.42-29.2,28.42H262.9c-16.13,0-29.2-12.72-29.2-28.42V1110.88c0-15.71,13.08-28.44,29.22-28.44H380.23a13.4,13.4,0,0,1,9.61,4L423.25,1121l36.12,38A12.62,12.62,0,0,1,462.88,1167.72Z"></path><path class="cls-30" d="M455.31,1167.72v177.57c0,15.7-13.07,28.42-29.2,28.42H255.33c-16.12,0-29.2-12.72-29.2-28.42V1110.88c0-15.71,13.09-28.44,29.23-28.44h117.3a13.39,13.39,0,0,1,9.61,4L415.68,1121l36.13,38A12.65,12.65,0,0,1,455.31,1167.72Z"></path><path class="cls-30" d="M456.89,1167.11H384.25a4.45,4.45,0,0,1-4.51-4.38V1087c0-4,5-5.89,7.78-3.89l34.63,35.78,38,40.91A4.36,4.36,0,0,1,456.89,1167.11Z"></path><rect class="cls-64" x="215.61" y="1212.63" width="210.96" height="115.79" rx="6.31"></rect><text class="cls-65" transform="translate(244.2 1269.3)"><tspan class="cls-66">Y</tspan><tspan x="27.2" y="0">OUR</tspan><tspan x="0" y="39.95">A</tspan><tspan class="cls-67" x="32.26" y="39.95">P</tspan><tspan class="cls-68" x="62.66" y="39.95">I</tspan></text><path class="cls-64" d="M2813.11,1230.83A376.46,376.46,0,0,0,2650.55,1050q-15.63-8.27-31.74-15.52T2586.15,1021c1.06-2.44,2.19-4.85,3.37-7.24s2.42-4.76,3.68-7.11a279,279,0,0,0,29-141.87,283.09,283.09,0,0,0-87.8-187.08,285.94,285.94,0,0,0-100.64-60.49c-37-12.85-76.48-14.06-116.46-14.94-27.48-.6-87.16-4.66-109.53,3.2S2204,635.88,2184,649.06c-4.13-7.1-7.82-14.44-11.56-21.77s-7.51-14.64-11.81-21.66A505.86,505.86,0,0,0,1877,378.78c-115.64-36.82-156-24-284.63-23.89-38,0-145.12,80.41-175.23,103.25a521.24,521.24,0,0,0-82.34,78,505.59,505.59,0,0,0-106.81,220,520.54,520.54,0,0,0-7,165.37c.57,2.7-.72,4.42-2.59,5.72s-4.34,2.18-6.1,3.21a423.26,423.26,0,0,0-239.79,356q-.72,16.23-.45,32.46t1.55,32.43A417.44,417.44,0,0,0,1012.56,1494a424.5,424.5,0,0,0,369,242.14l444.7,4.64,444.7,4.65q51.35.27,102.69.87t102.68,1.53A373,373,0,0,0,2735.41,1636a364.69,364.69,0,0,0,93.13-160.71,372.41,372.41,0,0,0-15.43-244.41Z"></path><path class="cls-29" d="M2691.37,1230.83A376.46,376.46,0,0,0,2528.81,1050q-15.63-8.27-31.74-15.52T2464.41,1021c1.06-2.44,2.19-4.85,3.37-7.24s2.42-4.76,3.68-7.11a278.68,278.68,0,0,0,29-141.87,283.09,283.09,0,0,0-87.8-187.08,285.92,285.92,0,0,0-217.1-75.43,289.28,289.28,0,0,0-133.24,46.79c-4.14-7.1-7.83-14.44-11.56-21.77s-7.52-14.64-11.82-21.66a507,507,0,0,0-646.26-205.77A520.44,520.44,0,0,0,1213.06,536.1a505.46,505.46,0,0,0-106.82,220,520.54,520.54,0,0,0-7,165.37c.57,2.7-.72,4.42-2.59,5.72s-4.34,2.18-6.1,3.21a423.26,423.26,0,0,0-239.79,356q-.72,16.23-.45,32.46t1.55,32.43A417.44,417.44,0,0,0,890.82,1494a424.5,424.5,0,0,0,369,242.14l444.7,4.64,444.7,4.65q51.35.27,102.69.87t102.68,1.53A373,373,0,0,0,2613.67,1636a364.69,364.69,0,0,0,93.13-160.71,372.41,372.41,0,0,0-15.43-244.41Z"></path><path class="cls-69" d="M1715.41,446.09v721.09H957.63a347.33,347.33,0,0,1,165.71-168.32l2.78-1.32.6-.35a97,97,0,0,0,13.19-7.61,82.63,82.63,0,0,0,21.65-22,80.81,80.81,0,0,0,12.91-56.3,445.27,445.27,0,0,1,6-139.73A429.57,429.57,0,0,1,1271.07,585a444.74,444.74,0,0,1,153-116.08,427.68,427.68,0,0,1,177.06-38.23q14.49,0,28.91,1A432.14,432.14,0,0,1,1715.41,446.09Z"></path><path class="cls-69" d="M2628.32,1452.7l-.08.32a289.13,289.13,0,0,1-73.76,127.28l-.39.39a297.16,297.16,0,0,1-199.48,88.88c-1.85.09-3.7.14-5.57.18-29.5-.53-59.37-1-89-1.35l-3,0-9.72-.12c-23.27-.27-46.79-.5-70.23-.67,0,.7.06,1.42.1,2.12q-13.76-.1-27.43-.17l-80.5-.85L1715.41,1665V1167.18h840.12q3.94,4.08,7.75,8.31a300,300,0,0,1,52.84,82.75,296.57,296.57,0,0,1,12.2,194.46Z"></path><path class="cls-69" d="M1715.41,1167.18V1665l-321.06-3.36-85.3-.88-47.51-.5a348.59,348.59,0,0,1-302.19-198.84A341.61,341.61,0,0,1,927.51,1345c-.7-9.06-1.14-18.27-1.3-27.4s0-18.15.36-27.15a347.79,347.79,0,0,1,31.06-123.28Z"></path><path class="cls-69" d="M2555.53,1167.18H1715.41V446.09q8.44,2.32,16.82,5A430.46,430.46,0,0,1,1973.45,644l.39.66.39.64c.37.59.72,1.19,1.09,1.82,2.48,4.22,5,9.16,7.82,14.63l.89,1.77c3.68,7.2,7.82,15.38,12.69,23.74l40.43,69.41,34.63-22.92,32.36-21.4A213.6,213.6,0,0,1,2202,677.86c5.37-.41,10.81-.62,16.19-.62A211.55,211.55,0,0,1,2245,679,210.33,210.33,0,0,1,2360.74,733a207.3,207.3,0,0,1,64,136.52,203.16,203.16,0,0,1-20.67,102.27c-1.54,2.91-3,5.64-4.29,8.35-1.77,3.56-3.42,7.14-4.92,10.57L2363,1063.92l60.11,22.6.27,0,8.9,3.35c9.47,3.56,19,7.48,28.22,11.65,9,4,17.91,8.4,26.62,13A300.28,300.28,0,0,1,2555.53,1167.18Z"></path><rect class="cls-63" x="1785.46" y="900.6" width="449.47" height="98.01" rx="20.88"></rect><rect class="cls-63" x="1773.59" y="900.6" width="449.47" height="98.01" rx="20.88"></rect><text class="cls-70" transform="matrix(0.95, 0.01, -0.01, 1, 1877.33, 967.91)">D<tspan class="cls-71" x="39.78" y="0">E</tspan><tspan class="cls-72" x="72.43" y="0">S</tspan><tspan class="cls-73" x="103.5" y="0">I</tspan><tspan class="cls-74" x="119.31" y="0">GN</tspan><tspan class="cls-75" x="195.38" y="0">E</tspan><tspan class="cls-76" x="227.97" y="0">R</tspan></text><rect class="cls-63" x="1837.19" y="1300.48" width="386.46" height="183.13" rx="20.88"></rect><rect class="cls-63" x="1826.98" y="1300.48" width="386.46" height="183.13" rx="20.88"></rect><rect class="cls-63" x="1245.45" y="1286.44" width="386.46" height="183.13" rx="20.88"></rect><rect class="cls-63" x="1235.24" y="1286.44" width="386.46" height="183.13" rx="20.88"></rect><text class="cls-77" transform="matrix(0.95, 0.01, -0.01, 1, 1363.37, 1377.74)">C<tspan class="cls-78" x="34.4" y="0">OD</tspan><tspan class="cls-79" x="114.83" y="0">E</tspan><tspan class="cls-80"><tspan x="-84.58" y="49.54">G</tspan><tspan class="cls-81" x="-47.44" y="49.54">E</tspan><tspan class="cls-82" x="-14.84" y="49.54">N</tspan><tspan class="cls-81" x="24.08" y="49.54">E</tspan><tspan class="cls-83" x="56.67" y="49.54">R</tspan><tspan class="cls-84" x="93.43" y="49.54">A</tspan><tspan class="cls-85" x="126.69" y="49.54">T</tspan><tspan class="cls-86" x="155.68" y="49.54">O</tspan><tspan class="cls-87" x="196.33" y="49.54">R</tspan></tspan></text><text class="cls-88" transform="matrix(0.95, 0.01, -0.01, 1, 1965.35, 1383.29)">D<tspan class="cls-89" x="39.74" y="0">O</tspan><tspan class="cls-87" x="80.49" y="0">C</tspan><tspan class="cls-90"><tspan x="-100.26" y="49.54">G</tspan><tspan class="cls-75" x="-63.12" y="49.54">E</tspan><tspan class="cls-91" x="-30.52" y="49.54">N</tspan><tspan class="cls-81" x="8.4" y="49.54">E</tspan><tspan class="cls-83" x="40.99" y="49.54">R</tspan><tspan class="cls-84" x="77.75" y="49.54">A</tspan><tspan class="cls-92" x="111.02" y="49.54">T</tspan><tspan class="cls-78" x="140.01" y="49.54">O</tspan><tspan class="cls-87" x="180.66" y="49.54">R</tspan></tspan></text><path class="cls-64" d="M2060.64,764.31l-22-7.26a.75.75,0,0,1-.18-1.34l33.33-22,32.36-21.4A213.6,213.6,0,0,1,2202,677.86c5.37-.41,10.81-.62,16.19-.62q8.73,0,17.39.72a.75.75,0,0,1,.05,1.49,213.65,213.65,0,0,0-38,9.54c-16.57,5.82-36.69,13.67-51.32,23.34l-38.88,22.5-46.15,29.43A.72.72,0,0,1,2060.64,764.31Z"></path><path class="cls-93" d="M2367.07,1671.34c-2.35.16-4.71.29-7.06.39-1.85.08-3.7.14-5.57.18-29.5-.53-59.38-1-89-1.35l-3,0-9.72-.12c-25-.29-50.34-.53-75.53-.71q-13.76-.1-27.43-.17l-80.5-.85-675-7-85.3-.88-47.51-.5a348.59,348.59,0,0,1-302.19-198.84A341.61,341.61,0,0,1,927.51,1345c-.7-9.06-1.14-18.27-1.3-27.4s0-18.15.36-27.15a347.43,347.43,0,0,1,196.77-291.6l2.78-1.32.6-.35a97,97,0,0,0,13.19-7.61,82.63,82.63,0,0,0,21.65-22,80.81,80.81,0,0,0,12.91-56.3,445.27,445.27,0,0,1,6-139.73A429.57,429.57,0,0,1,1271.07,585a444.74,444.74,0,0,1,153-116.08,427.68,427.68,0,0,1,177.06-38.23q11.64,0,23.23.63a427.6,427.6,0,0,0-153.85,37.6,444.49,444.49,0,0,0-153,116.08A429.74,429.74,0,0,0,1227,771.54a444.86,444.86,0,0,0-6,139.73,80.87,80.87,0,0,1-12.92,56.3,82.48,82.48,0,0,1-21.65,22,97.61,97.61,0,0,1-13.18,7.61l-.61.35-2.77,1.32A347.41,347.41,0,0,0,973,1290.46c-.39,9-.51,18.14-.36,27.15s.6,18.34,1.3,27.4a341.61,341.61,0,0,0,31.84,116.4A348.59,348.59,0,0,0,1308,1660.25l47.51.5,85.3.88,675,7,80.5.85q13.66.08,27.43.17c25.19.18,50.5.42,75.53.71l9.72.12,3,0C2330.22,1670.79,2348.68,1671.05,2367.07,1671.34Z"></path><rect class="cls-63" x="1256.82" y="896.28" width="426.32" height="98.01" rx="20.88"></rect><rect class="cls-63" x="1245.56" y="896.28" width="426.32" height="98.01" rx="20.88"></rect><text class="cls-94" transform="matrix(0.95, 0.01, -0.01, 1, 1272.37, 961.17)">T<tspan class="cls-95" x="29.48" y="0">R</tspan><tspan class="cls-96" x="66.23" y="0">A</tspan><tspan class="cls-97" x="103.21" y="0">N</tspan><tspan class="cls-98" x="142.4" y="0">S</tspan><tspan class="cls-99" x="173.4" y="0">F</tspan><tspan class="cls-20" x="203.59" y="0">O</tspan><tspan class="cls-100" x="244.24" y="0">R</tspan><tspan class="cls-101" x="279.69" y="0">M</tspan><tspan class="cls-102" x="325.68" y="0">E</tspan><tspan class="cls-103" x="358.27" y="0">R</tspan></text><text class="cls-104" transform="matrix(1, 0.01, -0.01, 1, 1605.84, 1891.92)">A<tspan class="cls-105" x="58.96" y="0">P</tspan><tspan class="cls-106" x="114.15" y="0">I</tspan><tspan class="cls-107" x="138.87" y="0">M</tspan><tspan class="cls-108" x="212.15" y="0">a</tspan><tspan class="cls-109" x="258.48" y="0">t</tspan><tspan class="cls-110" x="290.95" y="0">i</tspan><tspan class="cls-111" x="312.93" y="0">c</tspan><tspan class="cls-112"><tspan x="-102.37" y="79.74">C</tspan><tspan class="cls-113" x="-47.62" y="79.74">O</tspan><tspan class="cls-114" x="17.24" y="79.74">R</tspan><tspan class="cls-115" x="73.73" y="79.74">E </tspan><tspan class="cls-116" x="149.15" y="79.74">E</tspan><tspan class="cls-113" x="201.06" y="79.74">N</tspan><tspan class="cls-117" x="263.14" y="79.74">G</tspan><tspan class="cls-118" x="322.31" y="79.74">I</tspan><tspan class="cls-119" x="347.03" y="79.74">N</tspan><tspan class="cls-120" x="409.11" y="79.74">E</tspan></tspan></text><path class="cls-121" d="M2583.58,939.78a278.8,278.8,0,0,1-23.85,69c-1.26,2.35-2.51,4.72-3.68,7.11-.9,1.82-1.76,3.65-2.6,5.49H2490L2489,1021c1.06-2.43,2.19-4.85,3.37-7.24s2.42-4.76,3.68-7.11a279,279,0,0,0,29-141.87,283,283,0,0,0-21.26-90.65h62.8a283.55,283.55,0,0,1,22.17,92.81A278.87,278.87,0,0,1,2583.58,939.78Z"></path><path class="cls-5" d="M2572.78,939.78a278.8,278.8,0,0,1-23.85,69c-1.26,2.35-2.51,4.72-3.68,7.11q-1.35,2.73-2.59,5.49h-63.42l-1.07-.41c1.06-2.43,2.19-4.85,3.37-7.24s2.42-4.76,3.68-7.11a279,279,0,0,0,29-141.87,283,283,0,0,0-21.26-90.65h62.8a283.3,283.3,0,0,1,22.17,92.81A278.87,278.87,0,0,1,2572.78,939.78Z"></path><path class="cls-121" d="M2808.76,1377.75a372.18,372.18,0,0,1-13.7,99.64,364.65,364.65,0,0,1-93.13,160.72,372.44,372.44,0,0,1-94.73,70.06h-60.33v-3.94a372.66,372.66,0,0,0,91.35-68.28,364.65,364.65,0,0,0,93.13-160.72,371.93,371.93,0,0,0,13.69-97.48Z"></path><path class="cls-5" d="M2801.2,1377.75a372.18,372.18,0,0,1-13.7,99.64,364.65,364.65,0,0,1-93.13,160.72,372.44,372.44,0,0,1-94.73,70.06h-60.33v-3.94a372.66,372.66,0,0,0,91.35-68.28,364.8,364.8,0,0,0,93.14-160.72,372.33,372.33,0,0,0,13.68-97.48Z"></path><g class="cls-122"><path class="cls-28" d="M3120.84,1391.75l129.62,160-129.3,159.56a2,2,0,0,1-1.49.74l-8.82.32a2,2,0,0,1-2.06-2.28l11.8-86.3H2745.88a70.27,70.27,0,0,1-70.27-70.27h0a70.27,70.27,0,0,1,70.27-70.27h374.71l-12-91.45a.91.91,0,0,1,1-1l10.63.69A.9.9,0,0,1,3120.84,1391.75Z"></path><path class="cls-63" d="M3109.79,1393.42l128.26,158.28-126.3,155.86a2,2,0,0,1-3.57-1.27v-82.55H2516.43c-38.81,0,47.43-31.46,47.43-70.27h0c0-38.81-86.24-70.27-47.43-70.27h591.75V1394A.91.91,0,0,1,3109.79,1393.42Z"></path></g><g class="cls-123"><path class="cls-28" d="M3111.12,770.86l129.62,159.95-129.3,159.55a2,2,0,0,1-1.48.74l-8.83.33a2,2,0,0,1-2.06-2.28l11.8-86.3H2526.68a70.28,70.28,0,0,1-70.27-70.27h0a70.28,70.28,0,0,1,70.27-70.28h584.19l-12-91.44a.89.89,0,0,1,1-1l10.64.68A.91.91,0,0,1,3111.12,770.86Z"></path><path class="cls-63" d="M3100.07,772.53l128.27,158.28L3102,1086.66a2,2,0,0,1-3.57-1.26v-82.55H2297.23c-38.81,0,47.43-31.47,47.43-70.27h0c0-38.81-86.24-70.28-47.43-70.28h801.23V773.1A.91.91,0,0,1,3100.07,772.53Z"></path></g><path class="cls-124" d="M378.67,1005.81a232.25,232.25,0,0,0-217.84,111.47c-66.29,109.8-31,252.53,78.77,318.82a231.68,231.68,0,0,0,82.92,30.5,231.46,231.46,0,0,1-101-32.69c-109.79-66.29-145.06-209-78.77-318.82C193.21,1031.55,287.91,991.16,378.67,1005.81Z"></path><g class="cls-125"><path class="cls-61" d="M2363.29,1747.52c-2.91.12-5.8.22-8.71.27q-51.35-.91-102.69-1.53t-102.68-.88l-444.7-4.64-444.7-4.64a424.54,424.54,0,0,1-369-242.14,418.07,418.07,0,0,1-38.91-142.62q-1.26-16.2-1.54-32.44t.44-32.46a423.29,423.29,0,0,1,239.79-356c1.76-1,4.23-1.91,6.09-3.2s3.18-3,2.61-5.71a519.42,519.42,0,0,1,6.94-165.38,505.36,505.36,0,0,1,106.82-220,520.3,520.3,0,0,1,179.59-136.25A505.18,505.18,0,0,1,1613.42,355a505.51,505.51,0,0,0-196.13,44.9A520.3,520.3,0,0,0,1237.7,536.11a505.36,505.36,0,0,0-106.82,220,520.2,520.2,0,0,0-6.94,165.38c.57,2.69-.73,4.41-2.6,5.71s-4.33,2.18-6.09,3.2a423.27,423.27,0,0,0-239.8,356q-.71,16.23-.44,32.46t1.54,32.44A418.07,418.07,0,0,0,915.46,1494a424.54,424.54,0,0,0,369,242.14l444.7,4.64,444.71,4.64q51.34.28,102.68.88Q2319.9,1746.77,2363.29,1747.52Z"></path></g><path class="cls-59" d="M3703.62,1736.77a30.94,30.94,0,0,1-4.9,12.47,31.49,31.49,0,0,1-8,8.24l-.76-.56-.76-.58-1.92-1.42-.76-.56-.77-.58-80.1-59.7-1.14-.85-.92-.69-.19-.14-.91-.68h1.65l.93,0,81.93-1.61.94,0h.95l2.1,0,.94,0,.93,0,3.58,12.38,6.22,21.43A28.76,28.76,0,0,1,3703.62,1736.77Z"></path><path class="cls-27" d="M3924.84,1032.65c2-13.86-4.12-27.24-14.14-36.33s-23.92-13.91-37.5-10.62a20.72,20.72,0,0,1-12.5-.92,23.3,23.3,0,0,1-10.07-7.69c-19.76-26.18-53.57-32-82.4-22.69s-52.67,33.64-52.47,67.78a22.36,22.36,0,0,1-2.56,10.5,23.48,23.48,0,0,1-7.15,8.16c-22.64,16.18-28.4,45.2-20.81,69.91s28.5,45.14,59.21,44.12h156.81v-.09c28.26,1.79,46.86-16.48,53.36-38.63s.89-48.2-19.28-62a25.53,25.53,0,0,1-8.39-9.38A20.2,20.2,0,0,1,3924.84,1032.65Z"></path><path class="cls-64" d="M3946,1118.08a61.45,61.45,0,0,1-2.54,7c-5.1,11.88-14,22-26.11,27.39a51.84,51.84,0,0,1-24.72,4.21v.08H3735.78c-19.05.64-34.34-7-45-18.76l-.69-.78c-.26-.29-.52-.59-.76-.89q-1.65-1.93-3.11-4c-.34-.47-.67-.94-1-1.42-.72-1-1.38-2.1-2-3.17-.31-.53-.61-1.06-.91-1.59-.08-.15-.18-.3-.26-.46-.2-.38-.41-.76-.61-1.15-.28-.55-.57-1.09-.83-1.63s-.46-1-.68-1.43a70.54,70.54,0,0,1-3.36-8.82c-7.59-24.71-1.83-53.74,20.82-69.92a23.33,23.33,0,0,0,7.14-8.15,22.46,22.46,0,0,0,2.56-10.51c-.2-34.13,23.64-58.49,52.47-67.77s62.64-3.49,82.4,22.69a23.32,23.32,0,0,0,10.07,7.69,20.72,20.72,0,0,0,12.5.91c13.58-3.28,27.49,1.52,37.5,10.62.47.43.93.86,1.38,1.31s.66.67,1,1c.15.15.29.3.43.46.36.38.71.77,1.06,1.17l.14.16c.41.47.8.95,1.19,1.44s.8,1,1.18,1.54.74,1,1.09,1.56.71,1.08,1,1.62.65,1.09.95,1.64a39,39,0,0,1,4.7,24.42,20.15,20.15,0,0,0,2.1,12.16,25.46,25.46,0,0,0,8.4,9.37c13.38,9.15,20.36,23.7,21.63,38.91A63.53,63.53,0,0,1,3946,1118.08Z"></path><g class="cls-126"><path class="cls-61" d="M3903.31,1024.57c0,19-15,34.42-33.59,34.42a33.27,33.27,0,0,1-26.22-12.9,6,6,0,0,0-10,.69,53.59,53.59,0,0,1-53.1,27.14,6,6,0,0,0-6.59,7.28,48.08,48.08,0,0,1,1.07,10.1c0,25.82-20.42,46.74-45.61,46.74s-45.62-20.92-45.62-46.74,20.42-46.74,45.62-46.74h.1a6.06,6.06,0,0,0,5.89-7.91,56.8,56.8,0,0,1-2.91-18c0-30.73,24.31-55.64,54.29-55.64,22.67,0,42.09,14.23,50.21,34.46a6,6,0,0,0,9.72,2.14,33,33,0,0,1,23.12-9.46C3888.27,990.16,3903.31,1005.57,3903.31,1024.57Z"></path></g><g class="cls-127"><path class="cls-3" d="M3911.47,1010.16c-.68-.7-1.4-1.4-2.13-2.06-10-9.09-23.93-13.9-37.51-10.61a20.66,20.66,0,0,1-12.5-.93,23.28,23.28,0,0,1-10.07-7.68c-19.74-26.18-53.56-32-82.4-22.7s-52.67,33.64-52.46,67.79a22.42,22.42,0,0,1-2.56,10.5,23.58,23.58,0,0,1-7.15,8.16c-22.65,16.17-28.41,45.19-20.82,69.91a69.73,69.73,0,0,0,6.91,15.5,67,67,0,0,1-14.21-25.35c-7.59-24.71-1.83-53.74,20.82-69.92a23.33,23.33,0,0,0,7.14-8.15,22.46,22.46,0,0,0,2.56-10.51c-.2-34.13,23.64-58.49,52.47-67.77s62.64-3.49,82.4,22.69a23.32,23.32,0,0,0,10.07,7.69,20.72,20.72,0,0,0,12.5.91c13.58-3.28,27.49,1.52,37.5,10.62A46.42,46.42,0,0,1,3911.47,1010.16Z"></path></g><path class="cls-58" d="M3915.6,1094.47a18.24,18.24,0,0,0-12.92-5.35,17.55,17.55,0,0,0-3,.26l-7.73-20.05-7.67-19.91a18.39,18.39,0,0,0,4.7-3.4,18.27,18.27,0,1,0-30.11-19.13l-33.36-5.27-26.57-4.2a25,25,0,1,0-39.45,17.63l-10.71,21.23-11.29,22.36a23.59,23.59,0,1,0,13.78,28.43q10.22.79,20.45,1.4,21.84,1.3,43.69,1.75c7.28.15,14.57.26,21.85.25s14.56-.13,21.84-.44l21.82-.66,3.59-.11a18.27,18.27,0,1,0,31.1-14.79ZM3754,1059l11.58-20.76a25,25,0,0,0,32.75-17.26l26.37,5.29,33.12,6.65v.14a18.21,18.21,0,0,0,1.1,6.25q-27.11,16-55.65,29.4-26,12.24-53,22.24a23.7,23.7,0,0,0-4.91-7.17,23.38,23.38,0,0,0-3.53-2.9Zm126.9,46.88-21.76-.16c-7.25,0-14.5-.12-21.75-.38s-14.48-.64-21.72-1.06q-21.71-1.27-43.33-3.37-10.1-1-20.17-2.14a22.68,22.68,0,0,0-.6-3.89q27.39-9.48,53.94-21.27,29.06-12.9,56.85-28.5.39.45.81.87a18.26,18.26,0,0,0,16.94,4.9l6.72,20.25,6.77,20.39a19,19,0,0,0-3.8,2.91,18.21,18.21,0,0,0-5.29,11.48Z"></path><circle class="cls-27" cx="3422.72" cy="1548.57" r="88.01"></circle><circle class="cls-29" cx="3416.48" cy="1548.57" r="88.01"></circle><path class="cls-128" d="M3337.35,1550.63a88,88,0,0,0,63.61,84.59A88,88,0,1,1,3440.88,1464a89.14,89.14,0,0,0-15.52-1.36A88,88,0,0,0,3337.35,1550.63Z"></path><circle class="cls-63" cx="3414.67" cy="1547.55" r="10.69"></circle><path class="cls-63" d="M3455.71,1592.83l3.11,5.73a1.38,1.38,0,0,1-1.25,2l-27.35-.72a1.38,1.38,0,0,1-1.14-2.1l14.29-23.33a1.39,1.39,0,0,1,2.4.06l2.36,4.36a1.38,1.38,0,0,0,2.23.28,47.68,47.68,0,0,0-14.89-74.52,1.38,1.38,0,0,1-.68-1.81l4-8.78a1.38,1.38,0,0,1,1.85-.69,60.08,60.08,0,0,1,15.38,97.83A1.38,1.38,0,0,0,3455.71,1592.83Z"></path><path class="cls-63" d="M3406,1595.82l-1.7,9.49a1.39,1.39,0,0,1-1.64,1.12,60.1,60.1,0,0,1-34.59-96.8,1.37,1.37,0,0,0,.07-1.65l-4.46-6.4a1.38,1.38,0,0,1,1-2.17l29.73-2.51a1.38,1.38,0,0,1,1.37,2l-12.68,27a1.39,1.39,0,0,1-2.39.21l-3.46-5a1.38,1.38,0,0,0-2.27,0,47.73,47.73,0,0,0,29.91,73.14A1.37,1.37,0,0,1,3406,1595.82Z"></path><path class="cls-129" d="M3819.64,763.07c0,4.44-99.66,14.66-238.72,14.66s-245.31-7-245.31-11.42,106.25-4.66,245.31-4.66S3819.64,758.63,3819.64,763.07Z"></path><path class="cls-129" d="M3764,603.64c0,4.44-83.39,14.66-199.75,14.66s-205.25-7-205.25-11.41,88.9-4.66,205.25-4.66S3764,599.21,3764,603.64Z"></path><path class="cls-130" d="M3359,715c0-4.43,83.38-14.65,199.74-14.65s205.25,7,205.25,11.41-88.9,4.66-205.25,4.66S3359,719.42,3359,715Z"></path><path class="cls-131" d="M3428.87,1378.43c0,5.74,71.41-19.1,163.51-46.15s170-46.07,170-51.81-74.74,19.62-166.84,46.67S3428.87,1372.68,3428.87,1378.43Z"></path><path class="cls-131" d="M3442.15,1392.54c0,5.75,64.3-17.11,147.23-41.61s153.1-41.35,153.1-47.09-67.3,17.55-150.23,42S3442.15,1386.8,3442.15,1392.54Z"></path></g></g></g></svg>