<svg xmlns:inkscape="http://www.inkscape.org/namespaces/inkscape" xmlns:sodipodi="http://sodipodi.sourceforge.net/DTD/sodipodi-0.dtd" xmlns="http://www.w3.org/2000/svg" xmlns:svg="http://www.w3.org/2000/svg" viewBox="0 0 1044.4912 625" id="svg346" sodipodi:docname="CGaaS_CodeGeneration.svg" width="1044.4912" height="625" inkscape:version="1.1.1 (3bf5ae0d25, 2021-09-20)"><defs id="defs7"><style id="style2">.cls-1,.cls-15,.cls-16,.cls-17,.cls-18{fill:none;}.cls-2{isolation:isolate;}.cls-3{fill:#6b7e8f;}.cls-10,.cls-11,.cls-12,.cls-15,.cls-16,.cls-17,.cls-18,.cls-19,.cls-3,.cls-7{stroke:#24313e;}.cls-10,.cls-11,.cls-12,.cls-14,.cls-15,.cls-16,.cls-17,.cls-18,.cls-19,.cls-3,.cls-4,.cls-6,.cls-7,.cls-9{stroke-miterlimit:10;}.cls-10,.cls-11,.cls-12,.cls-14,.cls-15,.cls-16,.cls-17,.cls-18,.cls-19,.cls-29,.cls-3,.cls-30,.cls-4,.cls-6,.cls-7,.cls-9{stroke-width:2px;}.cls-32,.cls-34,.cls-4{fill:#9caab8;}.cls-14,.cls-29,.cls-30,.cls-4,.cls-6,.cls-9{stroke:#031439;}.cls-5{opacity:0.14;}.cls-13,.cls-20,.cls-21,.cls-23,.cls-24,.cls-25,.cls-5,.cls-8{mix-blend-mode:overlay;}.cls-6{fill:#cccfd4;}.cls-21,.cls-23,.cls-24,.cls-25,.cls-7,.cls-9{fill:#ebf0f5;}.cls-8{opacity:0.38;}.cls-10{fill:#3ab2d0;}.cls-11{fill:#455666;}.cls-12{fill:#0c7ff2;}.cls-14,.cls-19{fill:#0062ff;}.cls-16{stroke-dasharray:6.36 6.36;}.cls-17{stroke-dasharray:6.41 6.41;}.cls-18{stroke-dasharray:6.43;}.cls-20,.cls-21{opacity:0.21;}.cls-22{opacity:0.34;}.cls-22,.cls-33{mix-blend-mode:multiply;}.cls-24{opacity:0.18;}.cls-25{opacity:0.49;}.cls-26{font-size:34.86px;fill:#fff;font-family:Rubik-Regular, Rubik;}.cls-27{letter-spacing:-0.01em;}.cls-28{clip-path:url(#clip-path);}.cls-29{fill:#b8af50;}.cls-29,.cls-30{stroke-linecap:round;stroke-linejoin:round;}.cls-30{fill:#f4e969;}.cls-31{fill:#24313e;opacity:0.41;}.cls-33{opacity:0.1;}.cls-34{fill-rule:evenodd;}</style><clipPath id="clip-path"><rect class="cls-1" x="650.76001" y="502.20999" width="312.67999" height="263.23999" id="rect4"></rect></clipPath></defs><g inkscape:groupmode="layer" id="layer3" inkscape:label="Layer 2" transform="translate(-3.1636701,-2.6751976)"><rect style="fill:#e6e6e6;fill-rule:evenodd;stroke-width:1.06736" id="rect201" width="1044.4912" height="625.16064" x="3.1636701" y="2.6751976"></rect></g><g inkscape:groupmode="layer" id="layer2" inkscape:label="Layer 1" transform="translate(-3.1636701,-2.6751976)"><g class="cls-2" id="g344" transform="translate(19.572515,-235.59835)"><g id="Layer_1" data-name="Layer 1"><rect class="cls-3" x="48.189999" y="765.07001" width="953.84998" height="28.799999" rx="13.54" transform="rotate(180,525.115,779.475)" id="rect9"></rect><rect class="cls-4" x="19.26" y="765.07001" width="805.69" height="28.799999" rx="13.54" transform="rotate(180,422.105,779.475)" id="rect11"></rect><rect class="cls-5" x="54.41" y="761.96002" width="675.64001" height="5.4699998" rx="1.5599999" transform="rotate(180,392.23,764.69)" id="rect13"></rect><rect class="cls-6" x="486.17001" y="288.73001" width="98.480003" height="54.790001" rx="17.42" transform="rotate(180,535.41,316.13)" id="rect15"></rect><line class="cls-7" x1="578.03003" y1="343.60999" x2="507.84" y2="343.60999" id="line17"></line><rect class="cls-8" x="153.16" y="457.76001" width="557.09998" height="306.32999" transform="rotate(180,431.705,610.925)" id="rect19"></rect><rect class="cls-9" x="57.48" y="457.76001" width="579.04999" height="306.32999" transform="rotate(180,347.005,610.925)" id="rect21"></rect><path class="cls-10" d="M 109.78,392.38 A 32.87,32.87 0 0 0 122.46,419.44 19.66,19.66 0 0 1 130,435 v 10 h 25.37 v -10 a 19.47,19.47 0 0 1 7.44,-15.44 32.92,32.92 0 1 0 -53,-27.13 z" id="path23"></path><path class="cls-10" d="m 139.78,444.47 h 5.47 c 0.24,0 0.44,-0.73 0.44,-1.63 l 8.76,-32.59 a 1.62,1.62 0 0 0 -2.79,-1.14 l -1.64,1.7 a 1.63,1.63 0 0 1 -2.28,0.06 l -3.8,-3.56 a 1.62,1.62 0 0 0 -2.27,0 l -3.75,3.81 a 1.63,1.63 0 0 1 -2.3,0 l -2.28,-2.24 a 1.62,1.62 0 0 0 -2.76,1.16 l 8.76,32.74 c 0,0.96 0.2,1.69 0.44,1.69 z" id="path25"></path><rect class="cls-3" x="129.56" y="446.32999" width="44.720001" height="10.76" transform="rotate(180,151.92,451.705)" id="rect27"></rect><rect class="cls-3" x="116.39" y="446.32999" width="44.720001" height="10.76" transform="rotate(180,138.75,451.705)" id="rect29"></rect><rect class="cls-11" x="93.720001" y="491.42999" width="296.22" height="213.48" rx="18.469999" transform="rotate(180,241.83,598.17)" id="rect31"></rect><rect class="cls-12" x="99.809998" y="491.42999" width="296.22" height="213.48" rx="18.469999" transform="rotate(180,247.92,598.17)" id="rect33"></rect><rect class="cls-13" x="447.91" y="559.65997" width="123.85" height="87.599998" rx="12.35" transform="rotate(180,509.835,603.465)" id="rect35"></rect><rect class="cls-11" x="453.37" y="555.69" width="114.13" height="87.599998" rx="12.35" transform="rotate(180,510.435,599.49)" id="rect37"></rect><rect class="cls-9" x="447.91" y="555.69" width="114.13" height="87.599998" rx="12.35" transform="rotate(180,504.975,599.49)" id="rect39"></rect><path class="cls-11" d="m 652,747.47 h 85.3 v 17 H 636.54 V 762.9 A 15.43,15.43 0 0 1 652,747.47 Z" transform="rotate(180,686.915,755.995)" id="path41"></path><path class="cls-9" d="m 50.31,747.69 h 570.88 a 15.43,15.43 0 0 1 15.43,15.43 v 1 H 50.31 v -16.4 z" transform="rotate(180,343.465,755.89)" id="path43"></path><path class="cls-6" d="m 636.54,456.41 h 81.84 v 16.4 H 652 a 15.43,15.43 0 0 1 -15.43,-15.43 v -1 z" transform="rotate(180,677.455,464.605)" id="path45"></path><path class="cls-9" d="m 50.31,456.41 h 586.31 v 1 a 15.43,15.43 0 0 1 -15.43,15.43 H 50.31 v -16.4 z" transform="rotate(180,343.465,464.605)" id="path47"></path><rect class="cls-12" x="455.75" y="561.65997" width="59.77" height="30.41" rx="4.7199998" transform="rotate(180,485.635,576.865)" id="rect49"></rect><rect class="cls-14" x="538.89001" y="599.57001" width="17.99" height="13.45" rx="6.3299999" transform="rotate(180,547.885,606.295)" id="rect51"></rect><rect class="cls-14" x="516.40997" y="599.57001" width="17.99" height="13.45" rx="6.3299999" transform="rotate(180,525.405,606.295)" id="rect53"></rect><rect class="cls-14" x="494.26999" y="599.57001" width="17.99" height="13.45" rx="6.3299999" transform="rotate(180,503.265,606.295)" id="rect55"></rect><rect class="cls-14" x="538.89001" y="618.03998" width="17.99" height="13.45" rx="6.3299999" transform="rotate(180,547.885,624.77)" id="rect57"></rect><rect class="cls-14" x="516.40997" y="618.03998" width="17.99" height="13.45" rx="6.3299999" transform="rotate(180,525.405,624.77)" id="rect59"></rect><rect class="cls-14" x="494.26999" y="618.03998" width="17.99" height="13.45" rx="6.3299999" transform="rotate(180,503.265,624.77)" id="rect61"></rect><rect class="cls-14" x="456.28" y="599.57001" width="31.58" height="34.709999" rx="6.7800002" transform="rotate(180,472.07,616.925)" id="rect63"></rect><polyline class="cls-15" points="65.67 735.69 65.67 738.9 68.88 738.9" id="polyline65"></polyline><line class="cls-16" x1="75.239998" y1="738.90002" x2="619.28003" y2="738.90002" id="line67"></line><polyline class="cls-15" points="622.46 738.9 625.67 738.9 625.67 735.69" id="polyline69"></polyline><line class="cls-17" x1="625.66998" y1="729.28003" x2="625.66998" y2="488.89001" id="line71"></line><polyline class="cls-15" points="625.67 485.68 625.67 482.47 622.46 482.47" id="polyline73"></polyline><line class="cls-16" x1="616.09998" y1="482.47" x2="72.059998" y2="482.47" id="line75"></line><polyline class="cls-15" points="68.88 482.47 65.67 482.47 65.67 485.68" id="polyline77"></polyline><line class="cls-17" x1="65.660004" y1="492.09" x2="65.660004" y2="732.47998" id="line79"></line><polyline class="cls-18" points="704.05 698.31 704.05 480.31 643.04 480.31 643.04 739.18 704.05 739.18 704.05 727.5" id="polyline81"></polyline><path class="cls-6" d="m 576.58,343.58 c 17.14,0 27.08,-12.64 27.08,-29.78 a 31,31 0 0 0 -59.54,-12.3" id="path83"></path><path class="cls-7" d="m 410.76,314.1 c 0,0.13 0,0.27 0,0.4 v 142.3 h 131.9 V 314.21 l 0.06,-0.06 c 0,-0.11 0,-0.23 0,-0.35 a 31,31 0 0 1 31,-31 H 441.91 v 0.29 h -0.11 a 31,31 0 0 0 -31.04,31.01 z" id="path85"></path><path class="cls-6" d="m 577.71,301.26 a 21.15,21.15 0 0 0 -21.15,21.16 v 0.24 a 21.16,21.16 0 0 0 21.15,20.92" id="path87"></path><path class="cls-15" d="m 558.05,328.75 h 19.15 a 13.75,13.75 0 0 0 0,-27.49 h -32.3" id="path89"></path><rect class="cls-11" x="395.70001" y="443.09" width="176.38" height="13.68" transform="rotate(180,483.89,449.93)" id="rect91"></rect><rect class="cls-3" x="372.79001" y="443.09" width="176.38" height="13.68" transform="rotate(180,460.975,449.93)" id="rect93"></rect><rect class="cls-3" x="426.51999" y="355.23001" width="70.739998" height="8.7799997" rx="4.1300001" transform="rotate(180,461.89,359.625)" id="rect95"></rect><path class="cls-7" d="m 119.1,565.3 h 71.14 a 9.15,9.15 0 0 0 9.15,-9.15 v -39 a 9.16,9.16 0 0 0 -9.15,-9.16 H 119.1 a 9.15,9.15 0 0 0 -9.15,9.16 v 39 a 9.15,9.15 0 0 0 9.15,9.15 z" id="path97"></path><rect class="cls-3" x="426.51999" y="371.12" width="102.45" height="8.7799997" rx="4.1300001" transform="rotate(180,477.745,375.505)" id="rect99"></rect><rect class="cls-3" x="426.51999" y="389.06" width="70.739998" height="8.7799997" rx="4.1300001" transform="rotate(180,461.89,393.445)" id="rect101"></rect><rect class="cls-3" x="426.51999" y="404.94" width="102.45" height="8.7799997" rx="4.1300001" transform="rotate(180,477.745,409.33)" id="rect103"></rect><rect class="cls-3" x="426.51999" y="419.64999" width="102.45" height="8.7799997" rx="4.1300001" transform="rotate(180,477.745,424.04)" id="rect105"></rect><path class="cls-3" d="m 466.78,340.38 a 0.63,0.63 0 0 1 -0.21,-0.5 v -3.71 a 1,1 0 0 1 0.31,-0.82 6.73,6.73 0 0 1 0.65,-0.52 l 7.49,-4.91 -7.49,-4.92 a 4.78,4.78 0 0 1 -0.65,-0.54 1.07,1.07 0 0 1 -0.31,-0.84 V 320 a 0.7,0.7 0 0 1 0.21,-0.54 0.73,0.73 0 0 1 0.51,-0.19 0.78,0.78 0 0 1 0.26,0.07 l 0.32,0.17 12.37,8.42 a 3.56,3.56 0 0 1 0.74,0.66 1.19,1.19 0 0 1 0.26,0.82 v 1.07 a 1.28,1.28 0 0 1 -0.26,0.84 3.57,3.57 0 0 1 -0.74,0.67 l -12.37,8.41 -0.32,0.14 a 0.6,0.6 0 0 1 -0.26,0.07 0.69,0.69 0 0 1 -0.51,-0.23 z" id="path107"></path><path class="cls-3" d="m 459.94,343.7 a 1.14,1.14 0 0 1 -0.84,-0.29 1.85,1.85 0 0 1 -0.4,-0.54 l -11.68,-28 a 1,1 0 0 1 -0.07,-0.34 0.7,0.7 0 0 1 0.21,-0.5 0.65,0.65 0 0 1 0.51,-0.23 h 3.09 a 1.14,1.14 0 0 1 0.83,0.28 2.18,2.18 0 0 1 0.41,0.55 l 11.61,28 a 0.68,0.68 0 0 1 0.11,0.35 0.67,0.67 0 0 1 -0.23,0.49 0.7,0.7 0 0 1 -0.53,0.23 z" id="path109"></path><path class="cls-3" d="m 443.12,340.5 -0.29,-0.14 -12.41,-8.36 a 3.19,3.19 0 0 1 -0.75,-0.67 1.39,1.39 0 0 1 -0.24,-0.84 v -1 a 1.34,1.34 0 0 1 0.24,-0.85 3.18,3.18 0 0 1 0.75,-0.66 l 12.41,-8.42 0.29,-0.17 a 0.82,0.82 0 0 1 0.29,-0.07 0.66,0.66 0 0 1 0.48,0.21 0.7,0.7 0 0 1 0.21,0.52 v 3.71 a 1.1,1.1 0 0 1 -0.31,0.82 3.45,3.45 0 0 1 -0.65,0.52 l -7.46,4.91 7.46,4.95 a 4.19,4.19 0 0 1 0.65,0.48 1,1 0 0 1 0.31,0.82 v 3.71 a 0.63,0.63 0 0 1 -0.21,0.5 0.68,0.68 0 0 1 -0.48,0.19 0.65,0.65 0 0 1 -0.29,-0.16 z" id="path111"></path><rect class="cls-3" x="122.8" y="520.84998" width="68.019997" height="6.4299998" rx="3.02" transform="rotate(180,156.81,524.06)" id="rect113"></rect><rect class="cls-3" x="122.8" y="533.16998" width="68.019997" height="6.4299998" rx="3.02" transform="rotate(180,156.81,536.38)" id="rect115"></rect><rect class="cls-3" x="154.45" y="545.47998" width="36.369999" height="6.4299998" rx="3.02" transform="rotate(180,172.635,548.7)" id="rect117"></rect><path class="cls-7" d="m 119.1,683.67 h 71.14 a 9.15,9.15 0 0 0 9.15,-9.15 v -59.36 a 9.15,9.15 0 0 0 -9.15,-9.15 H 119.1 a 9.15,9.15 0 0 0 -9.15,9.15 v 59.36 a 9.15,9.15 0 0 0 9.15,9.15 z" id="path119"></path><rect class="cls-3" x="121.46" y="615.38" width="68.019997" height="6.4299998" rx="3.02" transform="rotate(180,155.47,618.595)" id="rect121"></rect><rect class="cls-3" x="121.46" y="627.70001" width="68.019997" height="6.4299998" rx="3.02" transform="rotate(180,155.47,630.91)" id="rect123"></rect><rect class="cls-3" x="121.46" y="640.02002" width="68.019997" height="6.4299998" rx="3.02" transform="rotate(180,155.47,643.23)" id="rect125"></rect><rect class="cls-3" x="121.46" y="652.34003" width="68.019997" height="6.4299998" rx="3.02" transform="rotate(180,155.47,655.55)" id="rect127"></rect><rect class="cls-3" x="147.53999" y="664.65997" width="41.950001" height="6.4299998" rx="3.02" transform="rotate(180,168.51,667.87)" id="rect129"></rect><path class="cls-15" d="m 155.47,683.67 v 7.58 a 5,5 0 0 0 5.05,5 h 80 a 5,5 0 0 0 5.05,-5" id="path131"></path><polyline class="cls-15" points="314.15 518.05 314.15 498.75 175.6 498.75 175.6 507.99" id="polyline133"></polyline><path class="cls-7" d="m 355.85,567.11 v 105.16 a 17.06,17.06 0 0 1 -17.29,16.82 H 237.43 a 17.06,17.06 0 0 1 -17.3,-16.82 V 533.45 a 17.08,17.08 0 0 1 17.31,-16.84 h 69.47 a 7.92,7.92 0 0 1 5.69,2.39 l 19.78,20.44 21.39,22.5 a 7.49,7.49 0 0 1 2.08,5.17 z" id="path135"></path><path class="cls-7" d="m 351.37,567.11 v 105.16 a 17.06,17.06 0 0 1 -17.29,16.82 H 233 A 17.06,17.06 0 0 1 215.7,672.27 V 533.45 A 17.08,17.08 0 0 1 233,516.61 h 69.47 a 7.92,7.92 0 0 1 5.69,2.39 l 19.78,20.44 21.39,22.5 a 7.49,7.49 0 0 1 2.04,5.17 z" id="path137"></path><path class="cls-7" d="m 354.78,568.38 h -45.59 a 2.79,2.79 0 0 1 -2.83,-2.75 v -47.56 a 2.83,2.83 0 0 1 4.88,-1.88 l 21.76,22.46 23.87,25.11 a 2.74,2.74 0 0 1 -2.09,4.62 z" id="path139"></path><rect class="cls-19" x="209.42" y="593.71002" width="124.92" height="68.57" rx="6.3099999" id="rect141"></rect><ellipse class="cls-20" cx="278.48001" cy="662.15002" rx="58.349998" ry="5.6199999" id="ellipse143"></ellipse><ellipse class="cls-20" cx="285.79001" cy="689.31" rx="80.139999" ry="2.8099999" id="ellipse145"></ellipse><ellipse class="cls-21" cx="276.06" cy="598.65997" rx="55.93" ry="2.8099999" id="ellipse147"></ellipse><rect class="cls-21" x="54.66" y="456.79999" width="653.77002" height="2.99" transform="rotate(180,381.55,458.3)" id="rect149"></rect><rect class="cls-21" x="64.610001" y="747.69" width="653.77002" height="2.99" transform="rotate(180,391.495,749.18)" id="rect151"></rect><rect class="cls-22" x="56.48" y="755.82001" width="653.77002" height="7.6300001" transform="rotate(180,383.37,759.635)" id="rect153"></rect><rect class="cls-8" x="54.66" y="470.04999" width="663.71997" height="2.99" transform="rotate(180,386.52,471.545)" id="rect155"></rect><rect class="cls-21" x="542.88" y="600.31" width="10.33" height="3.77" rx="1.78" transform="rotate(180,548.04,602.195)" id="rect157"></rect><rect class="cls-8" x="108.3" y="491.42999" width="275.07001" height="3.77" rx="1.78" transform="rotate(180,245.835,493.315)" id="rect159"></rect><rect class="cls-8" x="108.3" y="701.31" width="275.07001" height="3.77" rx="1.78" transform="rotate(180,245.835,703.2)" id="rect161"></rect><rect class="cls-21" x="542.88" y="618.03998" width="10.33" height="3.77" rx="1.78" transform="rotate(180,548.04,619.93)" id="rect163"></rect><rect class="cls-21" x="520.23999" y="600.31" width="10.33" height="3.77" rx="1.78" transform="rotate(180,525.405,602.195)" id="rect165"></rect><rect class="cls-21" x="520.23999" y="618.03998" width="10.33" height="3.77" rx="1.78" transform="rotate(180,525.405,619.93)" id="rect167"></rect><rect class="cls-21" x="498.10001" y="600.31" width="10.33" height="3.77" rx="1.78" transform="rotate(180,503.265,602.195)" id="rect169"></rect><rect class="cls-21" x="463.64001" y="600.31" width="18.08" height="3.77" rx="1.78" transform="rotate(180,472.68,602.195)" id="rect171"></rect><rect class="cls-21" x="498.10001" y="618.03998" width="10.33" height="3.77" rx="1.78" transform="rotate(180,503.265,619.93)" id="rect173"></rect><rect class="cls-8" x="542.88" y="609.17999" width="10.33" height="3.77" rx="1.78" transform="rotate(180,548.04,611.06)" id="rect175"></rect><rect class="cls-8" x="542.88" y="626.90997" width="10.33" height="3.77" rx="1.78" transform="rotate(180,548.04,628.8)" id="rect177"></rect><rect class="cls-8" x="520.23999" y="609.17999" width="10.33" height="3.77" rx="1.78" transform="rotate(180,525.405,611.06)" id="rect179"></rect><rect class="cls-8" x="520.23999" y="626.90997" width="10.33" height="3.77" rx="1.78" transform="rotate(180,525.405,628.8)" id="rect181"></rect><rect class="cls-8" x="498.10001" y="609.17999" width="10.33" height="3.77" rx="1.78" transform="rotate(180,503.265,611.06)" id="rect183"></rect><rect class="cls-8" x="459.73999" y="630.69" width="24.67" height="3.77" rx="1.78" transform="rotate(180,472.08,632.575)" id="rect185"></rect><rect class="cls-8" x="498.10001" y="626.90997" width="10.33" height="3.77" rx="1.78" transform="rotate(180,503.265,628.8)" id="rect187"></rect><rect class="cls-8" x="116.39" y="450.35001" width="57.889999" height="6.4499998" transform="rotate(180,145.335,453.58)" id="rect189"></rect><rect class="cls-8" x="373.82001" y="452.23999" width="198.25999" height="4.1500001" transform="rotate(180,472.945,454.31)" id="rect191"></rect><polygon class="cls-23" points="436.41,283.67 423.93,288.73 553.5,288.73 562.67,283.67 " id="polygon193"></polygon><rect class="cls-24" x="372.79001" y="443.09" width="199.28999" height="3.2" transform="rotate(180,472.43,444.69)" id="rect195"></rect><rect class="cls-21" x="454.47" y="556.26001" width="106.55" height="2.8699999" rx="1.35" transform="rotate(180,507.74,557.7)" id="rect197"></rect><ellipse class="cls-25" cx="158.64999" cy="386.5" rx="9.6000004" ry="17.18" transform="rotate(-16.24,158.64388,386.53915)" id="ellipse199"></ellipse><text class="cls-26" transform="translate(232.21,642.31)" id="text203">SD<tspan class="cls-27" x="45.700001" y="0" id="tspan201">K</tspan></text><rect class="cls-21" x="28.459999" y="765.38" width="968.17999" height="7.3200002" rx="3.4400001" id="rect205"></rect><rect class="cls-8" x="28.459999" y="787.40997" width="968.17999" height="7.3200002" rx="3.4400001" id="rect207"></rect><rect class="cls-11" x="648.16998" y="487.06" width="50.5" height="277.17999" rx="6.3699999" id="rect209"></rect><g class="cls-28" clip-path="url(#clip-path)" id="g295"><rect class="cls-11" x="651.91998" y="651.45001" width="119.35" height="112.15" id="rect211"></rect><rect class="cls-29" x="765.04999" y="651.45001" width="12.43" height="112.15" id="rect213"></rect><rect class="cls-30" x="765.17999" y="651.45001" width="5.3800001" height="112.15" id="rect215"></rect><rect class="cls-11" x="653.95001" y="651.45001" width="124.98" height="14.28" id="rect217"></rect><rect class="cls-9" x="629.27002" y="651.45001" width="119.35" height="112.15" id="rect219"></rect><rect class="cls-11" x="631.75" y="651.45001" width="12.43" height="112.15" id="rect221"></rect><rect class="cls-9" x="625.53998" y="651.45001" width="12.43" height="112.15" id="rect223"></rect><rect class="cls-11" x="736.19" y="651.45001" width="12.43" height="112.15" id="rect225"></rect><rect class="cls-6" x="730.48999" y="651.45001" width="12.43" height="112.15" id="rect227"></rect><rect class="cls-6" x="623.64001" y="651.45001" width="124.98" height="14.28" id="rect229"></rect><rect class="cls-11" x="653.95001" y="751.17999" width="124.98" height="14.28" id="rect231"></rect><rect class="cls-6" x="623.64001" y="751.17999" width="124.98" height="14.28" id="rect233"></rect><circle class="cls-3" cx="685.97998" cy="707.38" r="29.26" id="circle235"></circle><circle class="cls-7" cx="680.01001" cy="707.52002" r="29.26" id="circle237"></circle><rect class="cls-11" x="788.88" y="651.26001" width="119.35" height="112.15" id="rect239"></rect><rect class="cls-11" x="902.01001" y="651.26001" width="12.43" height="112.15" id="rect241"></rect><rect class="cls-9" x="902.15002" y="651.26001" width="5.3800001" height="112.15" id="rect243"></rect><rect class="cls-11" x="790.90997" y="651.26001" width="124.98" height="14.28" id="rect245"></rect><rect class="cls-9" x="766.23999" y="651.26001" width="119.35" height="112.15" id="rect247"></rect><rect class="cls-11" x="768.71997" y="651.26001" width="12.43" height="112.15" id="rect249"></rect><rect class="cls-6" x="762.51001" y="651.26001" width="12.43" height="112.15" id="rect251"></rect><rect class="cls-11" x="873.15997" y="651.26001" width="12.43" height="112.15" id="rect253"></rect><rect class="cls-6" x="867.46002" y="651.26001" width="12.43" height="112.15" id="rect255"></rect><rect class="cls-6" x="760.60999" y="651.26001" width="124.98" height="14.28" id="rect257"></rect><rect class="cls-11" x="790.90997" y="751" width="124.98" height="14.28" id="rect259"></rect><rect class="cls-6" x="760.60999" y="751" width="124.98" height="14.28" id="rect261"></rect><circle class="cls-3" cx="822.95001" cy="707.19" r="29.26" id="circle263"></circle><circle class="cls-7" cx="816.97998" cy="707.34003" r="29.26" id="circle265"></circle><rect class="cls-11" x="703.04999" y="535.98999" width="119.35" height="112.15" id="rect267"></rect><rect class="cls-11" x="816.17999" y="535.98999" width="12.43" height="112.15" id="rect269"></rect><rect class="cls-9" x="816.32001" y="535.98999" width="5.3800001" height="112.15" id="rect271"></rect><rect class="cls-11" x="705.08002" y="535.98999" width="124.98" height="14.28" id="rect273"></rect><rect class="cls-9" x="680.40997" y="535.98999" width="119.35" height="112.15" id="rect275"></rect><rect class="cls-11" x="682.89001" y="535.98999" width="12.43" height="112.15" id="rect277"></rect><rect class="cls-6" x="676.67999" y="535.98999" width="12.43" height="112.15" id="rect279"></rect><rect class="cls-11" x="787.33002" y="535.98999" width="12.43" height="112.15" id="rect281"></rect><rect class="cls-6" x="781.63" y="535.98999" width="12.43" height="112.15" id="rect283"></rect><rect class="cls-6" x="674.77002" y="535.98999" width="124.98" height="14.28" id="rect285"></rect><rect class="cls-11" x="705.08002" y="635.72998" width="124.98" height="14.28" id="rect287"></rect><rect class="cls-6" x="674.77002" y="635.72998" width="124.98" height="14.28" id="rect289"></rect><circle class="cls-3" cx="741.65997" cy="591.91998" r="29.26" id="circle291"></circle><circle class="cls-9" cx="735.69" cy="592.07001" r="29.26" id="circle293"></circle></g><rect class="cls-31" x="648.09003" y="650.84003" width="4.0900002" height="114.55" id="rect297"></rect><rect class="cls-8" x="653.95001" y="759.56" width="264.41" height="4.9499998" id="rect299"></rect><rect class="cls-8" x="676.67999" y="645.03003" width="153.39" height="4.9499998" id="rect301"></rect><rect class="cls-21" x="676.67999" y="634.84998" width="153.39" height="4.9499998" id="rect303"></rect><rect class="cls-8" x="676.67999" y="546.37" width="153.39" height="4.9499998" id="rect305"></rect><rect class="cls-8" x="676.67999" y="551.33002" width="153.39" height="4.9499998" id="rect307"></rect><rect class="cls-21" x="676.67999" y="536.19" width="153.39" height="4.9499998" id="rect309"></rect><rect class="cls-21" x="650.51001" y="652.60999" width="265.38" height="4.3000002" id="rect311"></rect><rect class="cls-21" x="650.51001" y="751.53003" width="265.38" height="4.3000002" id="rect313"></rect><rect class="cls-8" x="650.51001" y="660.16998" width="265.38" height="9.25" id="rect315"></rect><rect class="cls-32" x="801.19" y="693.71997" width="13.1" height="13.1" id="rect317" style="fill:#455666;fill-opacity:1"></rect><rect class="cls-32" x="816.78998" y="693.71997" width="13.1" height="13.1" id="rect319" style="fill:#455666;fill-opacity:1"></rect><rect class="cls-32" x="801.19" y="708.75" width="13.1" height="13.1" id="rect321" style="fill:#455666;fill-opacity:1"></rect><rect class="cls-32" x="816.78998" y="708.75" width="13.1" height="13.1" id="rect323" style="fill:#455666;fill-opacity:1"></rect><rect class="cls-33" x="57.48" y="473.04001" width="652.77002" height="7.27" id="rect325"></rect><g id="layer1"><g id="g1894" style="fill:#455666;fill-opacity:1"><path id="path8615" class="cls-32" d="m 679.86,685.94 c -11,0 -10.33,4.78 -10.33,4.78 v 4.95 h 10.51 v 1.48 h -14.67 c 0,0 -7,-0.8 -7,10.32 0,11.12 6.15,10.71 6.15,10.71 h 3.67 V 713 c 0,0 -0.2,-6.15 6.06,-6.15 h 10.42 c 0,0 5.86,0.09 5.86,-5.66 v -9.49 c 0,0 0.84,-5.76 -10.67,-5.76 z m -5.8,3.33 a 1.89,1.89 0 1 1 -1.89,1.89 1.89,1.89 0 0 1 1.89,-1.89 z" style="fill:#455666;fill-opacity:1"></path><path id="path8620" class="cls-32" d="m 680.17,729.1 c 11,0 10.32,-4.78 10.32,-4.78 v -4.94 H 680 v -1.49 h 14.69 c 0,0 7,0.8 7,-10.31 0,-11.11 -6.15,-10.72 -6.15,-10.72 h -3.67 V 702 c 0,0 0.2,6.15 -6,6.15 H 675.4 c 0,0 -5.85,-0.1 -5.85,5.66 v 9.51 c 0,0 -0.89,5.78 10.62,5.78 z m 5.79,-3.33 a 1.89,1.89 0 1 1 1.89,-1.89 1.89,1.89 0 0 1 -1.85,1.89 z" style="fill:#455666;fill-opacity:1"></path></g></g><g transform="matrix(2,0,0,2,-153.06354,365.66715)" id="g1653"><rect width="17" height="17" transform="translate(435,104)" fill="#ff1e1e" opacity="0" id="rect1649" x="0" y="0"></rect><path d="m 11.257,22.025 11.23,1.513 -3.8,-6.237 -7.432,4.725 z m 12.291,-11.676 -0.995,1.475 q -1.707,2.533 -3.412,5.066 c -0.064,0.094 -0.146,0.168 -0.057,0.313 q 1.648,2.685 3.281,5.377 a 7.2,7.2 0 0 0 0.569,0.837 Q 23.266,16.89 23.597,10.362 L 23.548,10.348 Z M 8.554,15.928 a 0.271,0.271 0 0 0 0.24,0.047 c 1.054,-0.512 2.114,-1.01 3.144,-1.563 a 4.944,4.944 0 0 0 0.884,-0.766 q 1.438,-1.3 2.873,-2.605 a 0.685,0.685 0 0 0 0.162,-0.173 C 16.201,10.205 16.539,9.539 16.888,8.854 16.472,8.699 16.076,8.548 15.676,8.411 a 0.294,0.294 0 0 0 -0.2,0.051 c -0.926,0.51 -1.871,0.993 -2.768,1.55 A 9.158,9.158 0 0 0 11.5,11.059 c -0.64,0.577 -1.281,1.155 -1.912,1.742 a 3.221,3.221 0 0 0 -0.451,0.521 c -0.431,0.62 -0.85,1.248 -1.288,1.9 0.245,0.25 0.467,0.488 0.7,0.711 z m 3.851,-0.847 -1.583,6.6 7.44,-4.729 -5.857,-1.87 z m 10.5,-4.71 -6.324,1.042 2.146,5.149 z m -10.412,4.262 5.739,1.839 -2.123,-5.1 -3.617,3.262 z M 8.634,17.2 c -0.682,1.606 -1.339,3.158 -2.009,4.737 l 3.826,-0.111 z m 1.866,3.529 0.047,-0.01 c 0.459,-1.884 0.925,-3.756 1.394,-5.714 l -3.07,1.573 c 0.524,1.342 1.082,2.757 1.628,4.15 z M 22.133,10.065 Q 21.217,9.826 20.3,9.587 C 19.422,9.359 18.542,9.134 17.664,8.904 17.554,8.875 17.475,8.857 17.411,8.986 c -0.311,0.628 -0.63,1.25 -0.946,1.875 a 0.459,0.459 0 0 0 -0.015,0.093 l 5.682,-0.849 V 10.066 Z M 18.588,8.638 23.568,10 C 23.283,9.2 23.018,8.453 22.746,7.687 l -4.15,0.908 z m -7.67,13.748 A 14.7,14.7 0 0 0 9.043,22.391 C 8.529,22.4 8.015,22.419 7.501,22.435 a 0.206,0.206 0 0 0 -0.159,0.069 l 12.744,1.162 0.009,-0.056 -4.085,-0.55 c -1.7,-0.228 -3.391,-0.48 -5.092,-0.674 z M 6.708,20.492 Q 7.53,18.612 8.35,16.733 A 0.235,0.235 0 0 0 8.293,16.421 C 8.063,16.205 7.849,15.972 7.599,15.715 L 6.6,20.6 6.637,20.617 A 0.806,0.806 0 0 0 6.709,20.493 Z M 17.5,8.307 c 0.923,-0.234 1.859,-0.418 2.791,-0.623 0.06,-0.013 0.118,-0.033 0.179,-0.05 l -0.009,-0.045 -4,0.531 a 1.512,1.512 0 0 0 1.04,0.187 z" transform="translate(428.403,96.872)" fill="#455666" id="path1651" style="fill:#455666;fill-opacity:1"></path></g></g></g></g></svg>