<svg xmlns="http://www.w3.org/2000/svg" viewBox="0 0 1024 1024"><defs><style>.cls-1{isolation:isolate;}.cls-2{fill:#0f84a2;}.cls-2,.cls-7{stroke:#000310;}.cls-2,.cls-3,.cls-4,.cls-6,.cls-7,.cls-8{stroke-miterlimit:10;}.cls-2,.cls-4,.cls-7,.cls-8{stroke-width:2px;}.cls-3{fill:#9caab8;}.cls-3,.cls-4,.cls-6,.cls-8{stroke:#24313e;}.cls-3,.cls-6{stroke-width:2.31px;}.cls-4{fill:#3ab2d0;}.cls-5{fill:#ebf0f5;opacity:0.21;mix-blend-mode:overlay;}.cls-6{fill:#f5f7f9;}.cls-7{fill:#0034d1;}.cls-8{fill:#0c7ff2;}</style></defs><g class="cls-1"><g id="Layer_1" data-name="Layer 1"><path class="cls-2" d="M713.09,530.84a52.09,52.09,0,1,1-85.3-.05A8.23,8.23,0,0,0,621,517.84H536.81V392.34a8.21,8.21,0,0,1,12.08-1.92,52.09,52.09,0,1,0,0-80.75,8.21,8.21,0,0,1-12.07-1.92V216.87h86.82a8.22,8.22,0,0,0,6.42-13.38,52.09,52.09,0,1,1,80.75,0,8.22,8.22,0,0,0,6.41,13.39H837.78v301h-118A8.21,8.21,0,0,0,713.09,530.84Z"></path><path class="cls-3" d="M624.77,347.08A50,50,0,0,1,543.22,387a7.87,7.87,0,0,0-11.58,1.85,7.68,7.68,0,0,0-1.27,4.31V508.87H444.31a7.84,7.84,0,0,1-.35-9.53,50,50,0,1,0-81.85,0,7.91,7.91,0,0,1-.28,9.57H241.6V395.61a7.88,7.88,0,0,0-12.48-6.37,50,50,0,1,1,0-81.85,7.9,7.9,0,0,0,12.43-6.47V220.1H530.37v83.3a7.73,7.73,0,0,0,1.27,4.31,7.87,7.87,0,0,0,11.58,1.84,50,50,0,0,1,81.55,37.53Z"></path><path class="cls-4" d="M724.44,530.84a52.09,52.09,0,1,1-85.3-.05,8.23,8.23,0,0,0-6.75-13H548.16V392.34a8.21,8.21,0,0,1,12.08-1.93,52.08,52.08,0,1,0,0-80.75,8.21,8.21,0,0,1-12.07-1.92V216.87H635a8.23,8.23,0,0,0,6.42-13.39,52.09,52.09,0,1,1,85-59.84.1.1,0,0,0,0,.05,52.13,52.13,0,0,1-4.25,59.79,8.15,8.15,0,0,0,.31,10.69,8,8,0,0,0,6.1,2.7H849.13v301h-118A8.22,8.22,0,0,0,724.44,530.84Z"></path><path class="cls-5" d="M560.24,390.41c.22.18.44.36.67.53a50.12,50.12,0,0,1-6.49-2.34A7.94,7.94,0,0,1,560.24,390.41Z"></path><path class="cls-5" d="M622.8,517.83H548.16v-9.14H614.6A8.25,8.25,0,0,1,622.8,517.83Z"></path><path class="cls-5" d="M722.46,214.17a8.17,8.17,0,0,0-.79,2.7H710.6c-8,0-12.44-8.77-7.39-14.62a54.81,54.81,0,0,0,13.5-35.93c0-18.12-8.94-34.25-22.87-44.67a60.16,60.16,0,0,1,32.52,22,.1.1,0,0,0,0,.05,52.13,52.13,0,0,1-4.25,59.79A8.15,8.15,0,0,0,722.46,214.17Z"></path><path class="cls-5" d="M724.44,530.84a52.06,52.06,0,0,1-74.81,70.82,51.3,51.3,0,0,0,11.5,1.93,52.11,52.11,0,0,0,45.52-81.9,8.21,8.21,0,0,1,6.64-13H831.34V216.87h17.79v301h-118A8.22,8.22,0,0,0,724.44,530.84Z"></path><path class="cls-5" d="M649.63,601.66a52.11,52.11,0,0,1-28.29-80,8.07,8.07,0,0,0,1.46-3.81h9.59a8.23,8.23,0,0,1,6.75,13,52,52,0,0,0,10.49,70.87Z"></path><path class="cls-6" d="M637,347.08A50,50,0,0,1,555.47,387a7.88,7.88,0,0,0-11.59,1.85,7.68,7.68,0,0,0-1.27,4.31V508.87H456.55a7.84,7.84,0,0,1-.35-9.53,50,50,0,1,0-81.85,0,7.91,7.91,0,0,1-.28,9.57H253.85V395.61a7.88,7.88,0,0,0-12.48-6.37,50,50,0,1,1,0-81.85,7.9,7.9,0,0,0,12.43-6.47V220.1H542.61v83.3a7.73,7.73,0,0,0,1.27,4.31,7.87,7.87,0,0,0,11.58,1.84A50,50,0,0,1,637,347.08Z"></path><path class="cls-5" d="M241.6,386.84v2.24l-.23.15a50,50,0,0,1-63.55-5.14,50,50,0,0,0,51.3-3.63A7.89,7.89,0,0,1,241.6,386.84Z"></path><path class="cls-5" d="M405.78,412A49.71,49.71,0,0,1,437.83,426a50,50,0,0,0-63.48,73.26,7.93,7.93,0,0,1-.28,9.58H253.84V500.1h108a7.93,7.93,0,0,0,.28-9.58A50,50,0,0,1,405.78,412Z"></path><path class="cls-5" d="M531.64,298.94a7.73,7.73,0,0,1-1.27-4.31V220.1h12.24v81.14A7.89,7.89,0,0,1,531.64,298.94Z"></path><path class="cls-5" d="M639.29,347.07a50,50,0,0,1-81.54,40,7.88,7.88,0,0,0-11.59,1.84,7.73,7.73,0,0,0-1.27,4.31V508.87H458.83a7.84,7.84,0,0,1-.82-8.77h74.64V384.41a7.73,7.73,0,0,1,1.27-4.31,7.87,7.87,0,0,1,11.58-1.84,49.94,49.94,0,0,0,66.34-74.54A50.18,50.18,0,0,1,639.29,347.07Z"></path><path class="cls-5" d="M465.25,469.25a49.75,49.75,0,0,1-9.05,30.09,6.78,6.78,0,0,0-.47.76H444.31a7.84,7.84,0,0,1-.35-9.53A49.89,49.89,0,0,0,437.83,426,50.16,50.16,0,0,1,465.25,469.25Z"></path><path class="cls-7" d="M454.91,806a48.27,48.27,0,1,1-74.83,0,7.6,7.6,0,0,0-1.78-11.19,7.44,7.44,0,0,0-4.16-1.22H262.41V514.7H371.8a7.43,7.43,0,0,0,5.89-2.8,7.67,7.67,0,0,0,.27-9.25,48.27,48.27,0,1,1,79,.05,7.63,7.63,0,0,0,6.25,12h78V793.59H460.85a7.49,7.49,0,0,0-4.16,1.22A7.6,7.6,0,0,0,454.91,806Z"></path><path class="cls-8" d="M467.21,806a48.27,48.27,0,1,1-74.83,0,7.6,7.6,0,0,0-1.78-11.19,7.52,7.52,0,0,0-4.16-1.22H274.71V514.7H384.1a7.41,7.41,0,0,0,5.88-2.8,7.66,7.66,0,0,0,.27-9.26,48.28,48.28,0,1,1,79.05.05,7.63,7.63,0,0,0,6.25,12H553.6V793.58H473.15A7.61,7.61,0,0,0,467.21,806Z"></path><path class="cls-5" d="M482.62,514.7q-1,2.1-2.16,4.12H455.69a12.15,12.15,0,0,1-9-3.7,9,9,0,0,1-.52-12.18,57.84,57.84,0,0,0,13.31-38.44,57.2,57.2,0,0,0-10-30.42,73.29,73.29,0,0,1,20.61,14.34,48.13,48.13,0,0,1-.77,54.27,7.63,7.63,0,0,0,6.25,12Z"></path><path class="cls-5" d="M467.21,806a48.27,48.27,0,1,1-79.12,54.82,48.27,48.27,0,0,0,60.29-73,7.61,7.61,0,0,1,1.78-11.19,7.46,7.46,0,0,1,4.16-1.22h80.45V514.7H553.6V793.58H473.15A7.61,7.61,0,0,0,467.21,806Z"></path></g></g></svg>