<svg xmlns:inkscape="http://www.inkscape.org/namespaces/inkscape" xmlns:sodipodi="http://sodipodi.sourceforge.net/DTD/sodipodi-0.dtd" xmlns="http://www.w3.org/2000/svg" xmlns:svg="http://www.w3.org/2000/svg" viewBox="0 0 1044.4912 625.16064" id="svg77" sodipodi:docname="CGaaS_Publish-09.svg" inkscape:version="1.1.1 (3bf5ae0d25, 2021-09-20)" width="1044.4912" height="625.16064"><defs id="defs4"><style id="style2">.cls-1{isolation:isolate;}.cls-2{fill:#455666;}.cls-10,.cls-13,.cls-14,.cls-16,.cls-2,.cls-3,.cls-4,.cls-6,.cls-7{stroke:#24313e;}.cls-10,.cls-13,.cls-14,.cls-16,.cls-2,.cls-3,.cls-4,.cls-6,.cls-7,.cls-8{stroke-miterlimit:10;stroke-width:1.92px;}.cls-3{fill:#3ab2d0;}.cls-16,.cls-4{fill:#f5f7f9;}.cls-5{fill:#24313e;opacity:0.24;}.cls-12,.cls-5,.cls-9{mix-blend-mode:multiply;}.cls-6{fill:#0c7ff2;}.cls-11,.cls-7{fill:#ebf0f5;}.cls-10,.cls-8{fill:#9caab8;}.cls-8{stroke:#031439;}.cls-12,.cls-9{opacity:0.1;}.cls-10,.cls-11,.cls-12,.cls-13,.cls-14,.cls-15,.cls-16{fill-rule:evenodd;}.cls-11{opacity:0.21;}.cls-11,.cls-15{mix-blend-mode:overlay;}.cls-13{fill:#6b7e8f;}.cls-14{fill:#d9dee5;}.cls-15{opacity:0.38;}</style></defs><g inkscape:groupmode="layer" id="layer2" inkscape:label="Layer 2" transform="translate(12.767782,-186.80885)"></g><g inkscape:groupmode="layer" id="layer1" inkscape:label="Layer 1" transform="translate(12.767782,-186.80885)"><g id="g1264"><rect style="fill:#e6e6e6;fill-rule:evenodd;stroke-width:1.06736" id="rect201" width="1044.4912" height="625.16064" x="-12.767782" y="186.80885"></rect><g class="cls-1" id="g75" transform="matrix(0.78781939,0,0,0.78781939,115.4342,66.05523)" style="isolation:isolate"><g id="Layer_1" data-name="Layer 1"><path class="cls-2" d="m 938.64,298 -0.43,92.27 -1.41,308.26 a 36,36 0 0 1 -36.18,35.85 l -247.74,-1.14 -430.54,-2 a 51.18,51.18 0 0 1 -51,-51.43 L 173.14,298 Z" id="path6"></path><path class="cls-3" d="m 939,229.17 -0.32,72 H 173.14 l 0.34,-75.5 a 24.28,24.28 0 0 1 24.58,-24 L 914.61,205 A 24.27,24.27 0 0 1 939,229.17 Z" id="path8"></path><path class="cls-4" d="M 929.46,267.73 929.32,298 v 3.38 l -1.82,393.93 a 39.35,39.35 0 0 1 -36,39 v 0 c -0.58,0 -1.17,0.09 -1.76,0.12 -0.59,0.03 -1.19,0 -1.79,0 l -58.47,-0.27 -389.4,-1.79 h -4 L 333.81,731.9 226.44,731.41 201.2,731.3 A 39.36,39.36 0 0 1 162,691.79 l 1.82,-393 v -1 l 0.12,-26.46 v -7.18 a 64.11,64.11 0 0 1 50.64,-62.39 c 1.8,-0.39 3.63,-0.7 5.47,-0.92 v 0 a 62.79,62.79 0 0 1 8.27,-0.5 l 637.28,2.93 0.53,0.54 0.9,0.9 z" id="path10"></path><path class="cls-5" d="m 929.46,298.83 c 0,1.54 -171.4,4.5 -382.82,4.5 -211.42,0 -382.83,-3 -382.83,-4.5 0,-1.5 171.4,-1.09 382.83,-1.09 211.43,0 382.82,-0.46 382.82,1.09 z" id="path12"></path><path class="cls-6" d="m 929.62,233.67 -0.16,34.06 -0.14,30.27 v 3.38 L 894.21,301.22 858,301 439.57,299.08 195.73,298 h -3.83 l -18.74,-0.09 h -9.34 l 0.12,-26.46 v -7.18 l 0.15,-34 a 29.51,29.51 0 0 1 29.66,-29.38 l 26.3,0.12 v 0 l 646.08,3 34.06,0.16 a 29.48,29.48 0 0 1 29.38,29.64 z" id="path14"></path><rect class="cls-6" x="194.42" y="321.29999" width="87.470001" height="31.860001" rx="4.54" transform="rotate(0.26,240.97613,341.02541)" id="rect16"></rect><rect class="cls-3" x="194.82001" y="229.56" width="112.92" height="39.689999" rx="17.17" transform="rotate(0.26,253.99821,252.84821)" id="rect18"></rect><rect class="cls-7" x="705.81" y="231.89999" width="112.92" height="39.689999" rx="17.17" transform="rotate(0.26,771.86802,253.87689)" id="rect20"></rect><rect class="cls-7" x="846.01001" y="232.38" width="39.98" height="39.689999" rx="17.17" transform="rotate(0.26,877.64966,255.84057)" id="rect22"></rect><rect class="cls-8" x="194.13" y="385.07999" width="181.91" height="30.620001" rx="4.3600001" transform="rotate(0.26,289.60209,404.82213)" id="rect24"></rect><rect class="cls-7" x="193.92" y="433.91" width="181.91" height="22.440001" rx="4.3600001" transform="translate(2.05,-1.3)" id="rect26"></rect><rect class="cls-7" x="193.75" y="472.22" width="118.54" height="19.49" rx="3.79" transform="rotate(0.26,256.73689,488.63697)" id="rect28"></rect><rect class="cls-7" x="193.61" y="504.26999" width="191.32001" height="19.49" rx="3.79" transform="rotate(0.26,292.07077,521.61217)" id="rect30"></rect><rect class="cls-7" x="193.45" y="538.56" width="118.54" height="19.49" rx="3.79" transform="rotate(0.26,256.88689,554.74737)" id="rect32"></rect><rect class="cls-7" x="193.3" y="570.60999" width="191.32001" height="19.49" rx="3.79" transform="rotate(0.26,292.22077,587.72257)" id="rect34"></rect><rect class="cls-6" x="303.42001" y="321.79999" width="87.470001" height="31.860001" rx="4.54" transform="rotate(0.26,351.16513,342.97909)" id="rect36"></rect><rect class="cls-7" x="439.32999" y="322.56" width="145.28999" height="31.860001" rx="4.54" transform="rotate(0.26,518.64481,342.59909)" id="rect38"></rect><rect class="cls-6" x="777.16998" y="321.07999" width="120.98" height="31.860001" rx="4.54" transform="rotate(0.26,849.19682,341.84909)" id="rect40"></rect><path class="cls-8" d="m 896.67,387.06 -1.56,338.76 a 9.69,9.69 0 0 1 -5.12,8.51 l -0.24,0.13 a 9.75,9.75 0 0 1 -4.39,1 l -56,-0.26 -385,-1.76 a 9.75,9.75 0 0 1 -4.28,-1 2.16,2.16 0 0 1 -0.34,-0.17 9.72,9.72 0 0 1 -5.05,-8.56 L 434.9,677.62 436.26,385 a 9.69,9.69 0 0 1 9.75,-9.66 l 441,2 a 9.71,9.71 0 0 1 9.66,9.72 z" id="path42"></path><rect class="cls-7" x="461.13" y="408.32999" width="145.28999" height="31.860001" rx="4.54" transform="rotate(0.26,540.88161,430.69629)" id="rect44"></rect><rect class="cls-7" x="460.64999" y="465" width="410.98001" height="127.8" rx="5.3499999" transform="rotate(0.26,675.54609,536.16793)" id="rect46"></rect><path class="cls-9" d="M 500,492.32 A 228.49,228.49 0 0 1 320.79,715.4 l -0.71,0.15 a 230.49,230.49 0 0 1 -98.95,-0.45 l -0.72,-0.17 a 227.58,227.58 0 0 1 -55,-20.39 36,36 0 0 1 -3.63,-16 l 1.67,-362.17 v -0.9 l 0.11,-24.39 q 4.26,-2.29 8.63,-4.42 a 227.59,227.59 0 0 1 99.45,-22.73 231.53,231.53 0 0 1 23.83,1.23 227.27,227.27 0 0 1 120.53,50.19 l 0.31,0.25 1.27,1 2.28,1.92 c 0.68,0.58 1.36,1.16 2,1.76 a 229,229 0 0 1 41,47.19 227.44,227.44 0 0 1 32.51,79.1 q 2.24,11 3.39,22.32 a 228.89,228.89 0 0 1 1.24,23.43 z" id="path48"></path><circle class="cls-4" cx="274.37" cy="491.81" r="213.03" id="circle50"></circle><path class="cls-10" d="M 474.21,493.86 A 199.88,199.88 0 0 1 341.74,682 c -1.36,0.49 -2.71,1 -4.08,1.41 -10.14,2 -13.74,-4.26 -13.74,-9.61 0,-6.55 0.25,-28.11 0.25,-54.81 a 67.72,67.72 0 0 0 -1.5,-14.63 c -2.29,-10.6 -7,-18 -12.07,-22.38 44.52,-5 91.25,-21.85 91.25,-98.62 0,-21.82 -7.74,-39.65 -20.55,-53.62 2.06,-5.06 8.92,-25.38 -2,-52.88 0,0 -16.75,-5.37 -54.9,20.48 a 189.32,189.32 0 0 0 -100.06,0 c -38.19,-25.85 -55,-20.48 -55,-20.48 -10.87,27.5 -4,47.82 -2,52.88 -12.79,14 -20.57,31.8 -20.57,53.62 0,76.59 46.65,93.73 91,98.77 -5.71,5 -10.88,13.8 -12.69,26.72 -11.38,5.11 -40.33,13.93 -58.16,-16.61 0,0 -10.56,-19.18 -30.61,-20.59 0,0 -19.52,-0.25 -1.37,12.15 0,0 13.1,6.14 22.19,29.23 0,0 11.72,38.86 67.32,26.78 q 0,2.14 0,4.2 c 0.09,14.58 0.24,25.46 0.24,29.79 0,5.3 -3.65,11.47 -13.64,9.63 a 198.58,198.58 0 0 1 -39.37,-18.08 q -8,-4.77 -15.44,-10.25 A 199.81,199.81 0 0 1 274.36,294 c 110.36,0 199.85,89.47 199.85,199.86 z" id="path52"></path><path class="cls-11" d="M 383.17,326.2 A 199.85,199.85 0 0 0 167.85,662.05 c 3,2.16 6,4.25 9.06,6.25 -1.71,-0.95 -3.39,-1.92 -5.07,-2.92 q -8,-4.77 -15.44,-10.25 A 199.84,199.84 0 0 1 383.17,326.2 Z" id="path54"></path><path class="cls-11" d="m 322.06,588.93 c 5.08,4.38 9.78,11.78 12.07,22.38 a 68.39,68.39 0 0 1 1.49,14.63 c 0,26.7 -0.24,48.26 -0.24,54.81 a 11.64,11.64 0 0 0 0.38,3 c -8.69,0.87 -11.84,-4.89 -11.84,-9.89 0,-6.55 0.25,-28.11 0.25,-54.81 a 67.72,67.72 0 0 0 -1.5,-14.63 c -2.29,-10.6 -7,-18 -12.07,-22.38 44.52,-5 91.25,-21.85 91.25,-98.62 0,-21.82 -7.74,-39.65 -20.55,-53.62 1.88,-4.64 4,-29.13 -3.45,-53.17 3.56,-2.81 13.13,4.78 12.92,7.21 10.9,27.5 4,47.82 2,52.88 12.81,14 20.55,31.8 20.55,53.62 -0.02,76.74 -46.75,93.66 -91.26,98.59 z" id="path56"></path><path class="cls-12" d="m 929.86,548.44 a 6.66,6.66 0 0 1 8.76,6.84 l -3.49,43.9 -35.4,131.09 0.89,4.11 -361.77,4.62 a 9.53,9.53 0 0 1 -3.35,-0.61 6.65,6.65 0 0 0 -2.25,-0.42 h -2.7 l -0.18,-0.17 -35.2,-32.74 a 6.66,6.66 0 0 1 2.41,-11.19 l 31.82,-10.71 251.76,-84.72 z" id="path58"></path><path class="cls-13" d="m 673.92,804.73 -1.39,89.21 a 2.59,2.59 0 0 0 4.69,1.57 L 898.48,592.87 a 2.6,2.6 0 0 0 -3.91,-3.39 L 674.7,802.91 a 2.59,2.59 0 0 0 -0.78,1.82 z" id="path60"></path><path class="cls-14" d="M 918.46,577.46 767,777.1 l -59.37,78.27 -30.45,40.15 a 2.6,2.6 0 0 1 -4.69,-1.58 l 22,-68.63 a 1.41,1.41 0 0 1 0,-0.21 2.61,2.61 0 0 1 0.77,-1.6 l 25.77,-29.32 193.5,-220.12 a 2.6,2.6 0 0 1 3.93,3.4 z" id="path62"></path><path class="cls-15" d="m 767,777.1 -59.37,78.27 -13.12,-30.27 -0.72,-1.65 c 0,0 13.05,-13.93 27.26,-29.27 17,-18.3 35.63,-38.61 35.8,-39.66 0.17,-1.05 5.72,10.26 10.15,22.58 z" id="path64"></path><path class="cls-16" d="M 924.71,556.7 677.23,804.18 a 1.57,1.57 0 0 1 -1.88,0.26 L 525.14,721.23 a 1.57,1.57 0 0 1 0.16,-2.83 L 923,554.13 a 1.58,1.58 0 0 1 1.71,2.57 z" id="path66"></path><path class="cls-14" d="M 924.79,554.94 694.08,820 a 1.1,1.1 0 0 0 0.36,1.74 l 168.48,77.91 a 1.11,1.11 0 0 0 1.55,-0.79 l 62.23,-343 a 1.11,1.11 0 0 0 -1.91,-0.92 z" id="path68"></path><path class="cls-11" d="m 924.71,556.7 -6.16,6.15 c 0.09,-0.58 0.12,-0.88 0.12,-0.88 l -370.9,160.24 133.09,74.72 1.64,2 -5.27,5.26 a 1.57,1.57 0 0 1 -1.88,0.26 L 525.14,721.23 a 1.57,1.57 0 0 1 0.16,-2.83 L 923,554.13 a 1.58,1.58 0 0 1 1.71,2.57 z" id="path70"></path><path class="cls-11" d="m 926.69,555.9 -0.11,0.59 C 894.85,595.82 709.85,816.07 709.85,816.07 l 156.44,72.72 -1.82,10.06 a 1.11,1.11 0 0 1 -1.55,0.8 L 694.44,821.73 A 1.09,1.09 0 0 1 694.08,820 L 924.79,555 a 1.1,1.1 0 0 1 1.9,0.9 z" id="path72"></path></g></g></g></g></svg>