<svg xmlns="http://www.w3.org/2000/svg" width="490.503" height="292.499" viewBox="0 0 490.503 292.499"><defs><style>.a{fill:#eff1f4;}.b{fill:#0c7ff2;}.c{fill:#fff;}.d,.e,.h{fill:none;stroke-linecap:round;stroke-miterlimit:10;stroke-width:4px;}.d{stroke:#a3cfe8;}.e{stroke:#eff1f4;}.f{fill:#a3cfe8;}.g{fill:#031439;}.h{stroke:#0c7ff2;}</style></defs><g transform="translate(-1022.211 -598.266)"><g transform="translate(1022.211 598.265)"><rect class="a" width="463.961" height="268.609" rx="12" transform="translate(0 0.001)"></rect><path class="b" d="M12,0H452.331a12,12,0,0,1,12,12V28.828a0,0,0,0,1,0,0H0a0,0,0,0,1,0,0V12A12,12,0,0,1,12,0Z"></path><rect class="c" width="79.313" height="196.196" rx="6" transform="translate(24.306 47.729)"></rect><line class="d" x2="38.821" transform="translate(44.552 69.178)"></line><line class="e" x2="19.2" transform="translate(44.552 89.632)"></line><line class="e" x2="19.2" transform="translate(44.552 110.087)"></line><line class="e" x2="19.2" transform="translate(44.552 130.541)"></line></g><g transform="translate(1162.094 664.779)"><rect class="f" width="350.62" height="225.987" rx="9"></rect><rect class="g" width="117.718" height="196.196" rx="6" transform="translate(217.68 14.895)"></rect><rect class="c" width="183.673" height="196.196" rx="6" transform="translate(15.222 14.895)"></rect><line class="h" x2="24.204" transform="translate(150.549 36.343)"></line><g transform="translate(39.365 56.798)"><line class="e" x2="109.228" transform="translate(0 20.454)"></line><line class="e" x2="27.474" transform="translate(0 40.909)"></line><line class="e" x2="26.496" transform="translate(16.351 61.363)"></line><line class="d" x2="56.905"></line><line class="d" x2="59.197" transform="translate(16.351 81.818)"></line><line class="e" x2="26.496" transform="translate(16.351 102.272)"></line><line class="d" x2="59.197" transform="translate(16.351 122.727)"></line></g><line class="d" x2="34.126" transform="translate(277.462 35.366)"></line><line class="h" x2="19.41" transform="translate(241.49 35.366)"></line><line class="d" x2="45.571" transform="translate(241.49 55.82)"></line><line class="d" x2="21.045" transform="translate(290.542 76.274)"></line><line class="h" x2="32.491" transform="translate(241.49 76.274)"></line><line class="h" x2="7.965" transform="translate(303.623 55.82)"></line><line class="d" x1="45.571" transform="translate(266.016 96.729)"></line><line class="h" x1="7.965" transform="translate(241.49 96.729)"></line></g></g></svg>