<svg xmlns="http://www.w3.org/2000/svg" width="250" height="150" viewBox="0 0 250 150"><g transform="translate(-2803.897 -2025.361)"><rect width="250" height="150" transform="translate(2803.897 2025.361)" fill="none" opacity="0.24"></rect><g transform="translate(8.041 -0.649)"><g transform="translate(2927.094 2053.724)"><rect width="4.366" height="34.711" rx="2.183" transform="translate(22.077 0) rotate(39.496)" fill="#0062ff"></rect><path d="M3243.6,2137.184a2.083,2.083,0,0,1-1.328-.476l-.328-.271a2.093,2.093,0,0,1-.283-2.943l19.571-23.744a2.091,2.091,0,0,1,2.943-.283l.328.27a2.094,2.094,0,0,1,.283,2.943l-19.571,23.744A2.087,2.087,0,0,1,3243.6,2137.184Zm-1.5-.932.328.27a1.85,1.85,0,0,0,2.605-.251l19.57-23.744a1.852,1.852,0,0,0-.251-2.6l-.327-.27a1.85,1.85,0,0,0-2.6.251l-19.571,23.744a1.851,1.851,0,0,0,.251,2.605Z" transform="translate(-3240.505 -2108.306)" fill="#24313e"></path></g><g transform="translate(2898.944 2043.965)"><rect width="4.366" height="26.38" rx="2.183" transform="translate(0 1.687) rotate(-22.723)" fill="#0062ff"></rect><path d="M3108.176,2083.565a2.081,2.081,0,0,1-1.915-1.275l-8.666-20.7a2.078,2.078,0,0,1,1.113-2.716l.392-.165a2.078,2.078,0,0,1,2.716,1.113l8.665,20.7a2.078,2.078,0,0,1-1.113,2.716l-.392.164A2.069,2.069,0,0,1,3108.176,2083.565Zm-8.276-24.8a1.852,1.852,0,0,0-.718.145l-.392.164a1.868,1.868,0,0,0-1,2.441l8.666,20.7a1.866,1.866,0,0,0,2.442,1l.392-.164a1.868,1.868,0,0,0,1-2.441l-8.665-20.7A1.869,1.869,0,0,0,3099.9,2058.761Z" transform="translate(-3096.93 -2058.048)" fill="#24313e"></path></g><g transform="translate(2922.115 2041.011)"><rect width="4.367" height="24.97" rx="2.183" transform="translate(9.513 0) rotate(22.393)" fill="#0062ff"></rect><path d="M3217.44,2067.294a2.061,2.061,0,0,1-.787-.156l-.393-.162a2.073,2.073,0,0,1-1.127-2.707l8.013-19.442a2.073,2.073,0,0,1,2.707-1.127l.393.162a2.073,2.073,0,0,1,1.127,2.707l-8.012,19.442A2.077,2.077,0,0,1,3217.44,2067.294Zm7.622-23.546a1.873,1.873,0,0,0-1.727,1.157l-8.013,19.442a1.868,1.868,0,0,0,1.016,2.439l.393.162a1.87,1.87,0,0,0,2.439-1.015l8.012-19.442a1.868,1.868,0,0,0-1.015-2.439l-.393-.162A1.864,1.864,0,0,0,3225.062,2043.747Z" transform="translate(-3214.478 -2043.043)" fill="#24313e"></path></g><g transform="translate(2881.39 2056.309)"><rect width="4.367" height="34.708" rx="2.183" transform="translate(0 2.984) rotate(-43.111)" fill="#0062ff"></rect><path d="M3032.438,2149.1a2.085,2.085,0,0,1-1.527-.661l-21.026-22.461a2.09,2.09,0,0,1,.1-2.955l.31-.291a2.093,2.093,0,0,1,2.955.1l21.026,22.461a2.093,2.093,0,0,1-.1,2.955l-.311.291A2.083,2.083,0,0,1,3032.438,2149.1Zm-20.717-26.691a1.843,1.843,0,0,0-1.264.5l-.311.291a1.853,1.853,0,0,0-.086,2.615l21.026,22.461a1.853,1.853,0,0,0,2.616.086l.311-.291a1.853,1.853,0,0,0,.086-2.615l-21.026-22.461A1.845,1.845,0,0,0,3011.721,2122.407Z" transform="translate(-3008.626 -2121.471)" fill="#24313e"></path></g><g transform="translate(2868.916 2093.18)"><path d="M3033.151,2351.854s0,0-.006-.006a8.7,8.7,0,0,1-1.762-1.717c-6.318-6.131-27.668-26.677-32.522-29.02-5.715-2.759-8.375,1.872-8.375,1.872-9.065,11.43-16.751,7.094-17.54,5.715s.789-6.9,3.153-8.671a5.386,5.386,0,0,0,1.79-3.861,10.256,10.256,0,0,1,2.93-6.229c.339-.341.713-.694,1.124-1.052l-26.634-3.145s-2.292,23.3-12.327,37.935l-.483.69a42.541,42.541,0,0,1,11.205,4.99l.95.58,4.452,2.718q1.229.748,2.5,1.518l6.787,4.071q.976.579,1.951,1.157l7.818,4.562c.867.5,1.72.983,2.552,1.452l7.372,4.02c.266.138.528.272.782.4a22.924,22.924,0,0,0,4.964,2.022,43.3,43.3,0,0,0,6.9,1.182c.645.072,3.975-.847,4.353-2.12.167-.572.2-1.036-.017-1.23l-11.418-8.858s0,0,0,0l.01.006.032.019c4.877,3.217,14.78,11.434,16.5,10.807a8.841,8.841,0,0,0,2.067-1.032h0c4.2-2.923-.2-7.461-.2-7.461l-19.707-16.633,23.77,19.62a6.031,6.031,0,0,0,4.466,1.385,5.247,5.247,0,0,0,3.689-2.087c2.706-3.478,1.774-5,0-6.734-1-.988-7.829-6.8-13.712-11.905,1.787,1.545,3.727,3.193,5.681,4.8l.1.08c2.442,2.012,4.905,3.961,7.122,5.575.063.047.126.092.187.136a28.061,28.061,0,0,0,6.306,3.756l.028.01a2.342,2.342,0,0,0,1.186.14,6.084,6.084,0,0,0,1.614-.632C3035.924,2358.907,3037.067,2354.577,3033.151,2351.854Zm-28.518-10.258.272.241C3004.8,2341.75,3004.714,2341.669,3004.633,2341.6Zm.57.5c.1.087.207.181.317.278C3005.41,2342.284,3005.3,2342.19,3005.2,2342.1Zm.325.286,2.655,2.319C3007.258,2343.9,3006.281,2343.051,3005.528,2342.387Zm2.661,2.325c.278.24.55.479.81.705Z" transform="translate(-2942.5 -2305.74)" fill="#9caab8" stroke="#24313e" stroke-miterlimit="10" stroke-width="0.5"></path></g><g transform="translate(2880.203 2094.264)" opacity="0.22" style="mix-blend-mode:overlay;isolation:isolate"><path d="M3001.3,2311.24a27.179,27.179,0,0,1,8.375,1.726c5.124,1.773,9.936-.295,13.54.542a26.16,26.16,0,0,0,4.787.837s-.678,2.968-3,3.159-7.381,0-7.381,0a63.461,63.461,0,0,1-8.341-1.583,19.028,19.028,0,0,0-7.291-.789c-.394.2-2.212-.719-2.212-.719Z" transform="translate(-2999.775 -2311.24)" fill="#ebf0f5"></path></g><g transform="translate(2898.972 2089.239)"><path d="M3172.331,2326.115l-5.321,3.547-8.4,5.445-2.241,1.453s0,0-.006-.006c-.063-.061-.7-.684-1.762-1.716-6.318-6.131-27.668-26.677-32.522-29.02-5.715-2.759-8.375,1.872-8.375,1.872-7.271,9.169-13.657,8.192-16.3,6.736a3.323,3.323,0,0,1-1.236-1.021c-.788-1.379.789-6.9,3.153-8.671a5.384,5.384,0,0,0,1.787-3.858,10.28,10.28,0,0,1,2.935-6.233q.505-.512,1.121-1.051a29.817,29.817,0,0,1,11.712-6.012c12.628-3.557,23.436,4.74,23.436,4.74l12.415-.789,7.1,12.53.023.037s0,0,0,0l0,.006Z" transform="translate(-3095.774 -2286.505)" fill="#ebf0f5"></path><path d="M3155.586,2336.047l-.26-.257c-.252-.246-.812-.793-1.616-1.575-6.4-6.213-27.668-26.666-32.472-28.984-5.479-2.646-8.017,1.612-8.123,1.794l-.016.024c-8.35,10.53-15.25,7.5-16.549,6.785a3.513,3.513,0,0,1-1.311-1.094c-.819-1.432.709-7.051,3.2-8.923a5.254,5.254,0,0,0,1.711-3.723,10.493,10.493,0,0,1,2.99-6.35c.339-.343.72-.7,1.131-1.06a30.146,30.146,0,0,1,11.787-6.054,26.57,26.57,0,0,1,16.575,1.041,31.048,31.048,0,0,1,6.972,3.687l12.465-.792.06.106,7.121,12.559.078.129,0,0,12.5,22.051-5.471,3.647Zm-37.7-32.057a8.088,8.088,0,0,1,3.523.891c4.856,2.344,26.159,22.832,32.573,29.056.8.782,1.365,1.329,1.617,1.575l.04.039,10.512-6.813,5.168-3.446-19.458-34.323-12.367.785-.058-.044c-.107-.083-10.879-8.2-23.264-4.707a29.77,29.77,0,0,0-11.637,5.972c-.4.354-.778.7-1.111,1.041a10.107,10.107,0,0,0-2.879,6.115,5.478,5.478,0,0,1-1.864,4c-2.32,1.74-3.846,7.115-3.1,8.419a3.149,3.149,0,0,0,1.16.947c1.25.688,7.9,3.6,16.051-6.676A6.189,6.189,0,0,1,3117.884,2303.99Z" transform="translate(-3095.018 -2285.744)" fill="#24313e"></path></g><g transform="translate(2881.328 2133.01)" opacity="0.6" style="mix-blend-mode:multiply;isolation:isolate"><path d="M3039.2,2531.431l0,.007a.28.28,0,0,1-.384.361l-.163-.084-7.372-4.02c-.832-.469-1.685-.956-2.552-1.452l-7.818-4.562q-.975-.576-1.951-1.157l-6.787-4.071q-1.271-.769-2.5-1.518l-4.061-2.479a.28.28,0,0,1,0-.478c1.674-1.02,3.344-1.964,4.106-2.472,1.4-.933,4.579-.985,6.105-1.63a.279.279,0,0,1,.365.37c-.865,1.958-2.721,6.192-1.74,7.172,2.767,2.767,8.949-2.692,9.3-3.12a7.349,7.349,0,0,1,1.522-.985.28.28,0,0,1,.376.384c-1.072,1.9-2.865,4.992-1.938,7.466.988,2.634,8-1.331,10.479-3.226a.279.279,0,0,1,.432.318c-.76,2.1-1.873,5.668-1.254,7.835.626,2.189,7.027-2.007,9.889-4.485a.28.28,0,0,1,.429.344C3041.911,2523.22,3038.365,2529.607,3039.2,2531.431Z" transform="translate(-3005.482 -2507.853)" fill="#455666"></path></g><g transform="translate(2896.957 2134.34)"><path d="M3101.457,2520.865l-6.588,8.268-1.672,2.274a3.673,3.673,0,0,1-5.134.784l-.786-.578a3.671,3.671,0,0,1-.784-5.135l1-1.366,8.443-8.3a3.023,3.023,0,0,1,4.225-.647l.647.475A3.023,3.023,0,0,1,3101.457,2520.865Z" transform="translate(-3085.584 -2515.384)" fill="#ebf0f5"></path><path d="M3089.441,2532.311a3.851,3.851,0,0,1-2.286-.749l-.786-.578a3.866,3.866,0,0,1-.826-5.407l1.023-1.389L3095,2515.9a3.221,3.221,0,0,1,4.487-.676l.647.475a3.216,3.216,0,0,1,.687,4.5l0,.006-6.588,8.269-1.667,2.268A3.861,3.861,0,0,1,3089.441,2532.311Zm-2.591-7.856-.994,1.353a3.478,3.478,0,0,0,.743,4.865l.786.577a3.484,3.484,0,0,0,4.862-.743l1.671-2.274,6.59-8.271a2.828,2.828,0,0,0-.606-3.952l-.647-.475a2.833,2.833,0,0,0-3.954.606l-.021.023Z" transform="translate(-3084.791 -2514.598)" fill="#24313e"></path></g><g transform="translate(2888.483 2130.004)"><path d="M3057.866,2498.865l-6,7.874-1.672,2.274a3.673,3.673,0,0,1-5.134.784l-.786-.577a3.672,3.672,0,0,1-.784-5.135l1-1.366,7.852-7.909a3.024,3.024,0,0,1,4.225-.647l.647.475A3.022,3.022,0,0,1,3057.866,2498.865Z" transform="translate(-3042.584 -2493.384)" fill="#ebf0f5"></path><path d="M3046.441,2509.917a3.849,3.849,0,0,1-2.285-.749l-.786-.577a3.867,3.867,0,0,1-.826-5.407l1.022-1.387,7.842-7.9a3.221,3.221,0,0,1,4.488-.677l.647.475a3.217,3.217,0,0,1,.687,4.5l0,0-6,7.874-1.669,2.271A3.862,3.862,0,0,1,3046.441,2509.917Zm-2.59-7.857-.995,1.354a3.478,3.478,0,0,0,.743,4.864l.786.578a3.484,3.484,0,0,0,4.863-.743l1.671-2.274,6-7.875a2.828,2.828,0,0,0-.6-3.954l-.647-.476a2.833,2.833,0,0,0-3.954.606l-.019.022Z" transform="translate(-3041.791 -2492.598)" fill="#24313e"></path></g><g transform="translate(2880.009 2127.441)"><path d="M3012.893,2485.864l-4.028,5.116-1.671,2.274a3.677,3.677,0,0,1-5.134.784l-.786-.578a3.672,3.672,0,0,1-.784-5.135l1-1.366,5.882-5.151a3.025,3.025,0,0,1,4.226-.646l.646.475a3.027,3.027,0,0,1,.646,4.227Z" transform="translate(-2999.581 -2480.383)" fill="#ebf0f5"></path><path d="M3003.436,2494.158a3.86,3.86,0,0,1-2.284-.749l-.786-.577a3.866,3.866,0,0,1-.826-5.407l1.032-1.4,5.867-5.137a3.222,3.222,0,0,1,4.484-.671l.646.475a3.222,3.222,0,0,1,.688,4.5l0,.005-4.028,5.116-1.667,2.269a3.863,3.863,0,0,1-2.785,1.56C3003.66,2494.153,3003.547,2494.158,3003.436,2494.158Zm-2.593-7.852-.991,1.349a3.477,3.477,0,0,0,.743,4.864l.786.577a3.483,3.483,0,0,0,4.862-.743l1.671-2.274,4.03-5.119a2.833,2.833,0,0,0-.607-3.953l-.646-.475a2.834,2.834,0,0,0-3.954.6l-.028.031Z" transform="translate(-2998.787 -2479.597)" fill="#24313e"></path></g><g transform="translate(2850.856 2086.049)"><path d="M2882.242,2277.236s-.256,2.613-.975,6.637a100.993,100.993,0,0,1-7.008,23.522c-.25.546-.507,1.086-.773,1.62a50.247,50.247,0,0,1-3.571,6.156l-.483.69-2.562,3.941-15.371-5.321,5.608-15.458,8.809-24.279,1.634-4.5Z" transform="translate(-2851.373 -2270.105)" fill="#24313e"></path><path d="M2866.395,2319.369l-15.539-5.379.034-.094,16.088-44.344.1.047,14.754,7.026-.007.069c0,.026-.265,2.663-.977,6.645a100.832,100.832,0,0,1-7.015,23.546c-.27.587-.522,1.118-.774,1.622a50.512,50.512,0,0,1-3.578,6.168l-.483.69Zm-15.285-5.5,15.2,5.263,2.52-3.877.485-.693a50.312,50.312,0,0,0,3.563-6.143c.25-.5.5-1.032.771-1.617a100.627,100.627,0,0,0,7-23.5c.646-3.618.921-6.122.967-6.561l-14.531-6.919Z" transform="translate(-2850.856 -2269.552)" fill="#031439"></path></g><g transform="translate(2905.234 2137.689)"><path d="M3144.443,2537.865l-7.574,9.648-1.671,2.274a3.673,3.673,0,0,1-5.134.784l-.787-.578a3.672,3.672,0,0,1-.784-5.135l1-1.366,9.429-9.682a3.023,3.023,0,0,1,4.225-.647l.647.475A3.022,3.022,0,0,1,3144.443,2537.865Z" transform="translate(-3127.584 -2532.384)" fill="#ebf0f5"></path><path d="M3131.441,2550.69a3.852,3.852,0,0,1-2.285-.749l-.786-.577a3.867,3.867,0,0,1-.826-5.407l1.021-1.386,9.419-9.673a3.22,3.22,0,0,1,4.488-.678l.647.475a3.216,3.216,0,0,1,.687,4.5l0,0-7.573,9.648-1.667,2.269A3.861,3.861,0,0,1,3131.441,2550.69Zm-2.589-7.858-1,1.354a3.478,3.478,0,0,0,.743,4.865l.786.578a3.484,3.484,0,0,0,4.862-.743l1.671-2.274,7.576-9.65a2.827,2.827,0,0,0-.606-3.953l-.647-.475a2.832,2.832,0,0,0-3.953.605l-.018.021Z" transform="translate(-3126.791 -2531.597)" fill="#24313e"></path></g><g transform="translate(2931.223 2128.972)" opacity="0.6" style="mix-blend-mode:multiply;isolation:isolate"><path d="M3286.657,2506.509a6.078,6.078,0,0,1-1.614.633,2.345,2.345,0,0,1-1.186-.14l-.028-.01a31.445,31.445,0,0,1-6.306-3.756c-.061-.043-.124-.089-.187-.136-2.278-1.644-4.747-3.6-7.122-5.575l-.1-.081c-5.961-4.954-11.294-9.942-11.446-10.084l20.876,15.767a19.3,19.3,0,0,0,6.252,3.134Z" transform="translate(-3258.67 -2487.36)" fill="#455666"></path></g><g transform="translate(2919.596 2134.489)" opacity="0.6" style="mix-blend-mode:multiply;isolation:isolate"><path d="M3229.1,2535.24a9.442,9.442,0,0,1-2.069.492,2.306,2.306,0,0,1-1.281.1,14.43,14.43,0,0,1-2.167-.788c-1.384-1.05-2.6-2.045-5.057-3.807-.061-.043-.124-.089-.187-.136-2.278-1.643-4.747-3.6-7.122-5.575l-.1-.081c-5.961-4.954-11.294-9.942-11.446-10.084l20.876,15.767a26.072,26.072,0,0,0,7.238,3.725Z" transform="translate(-3199.67 -2515.36)" fill="#455666"></path></g><g transform="translate(2920.067 2148.271)" opacity="0.6" style="mix-blend-mode:multiply;isolation:isolate"><path d="M3213.478,2594.148c.217.193.185.658.017,1.23-4.39-3.876-11.13-9.818-11.436-10.088Z" transform="translate(-3202.06 -2585.29)" fill="#455666"></path></g><g transform="translate(2920.104 2148.292)" opacity="0.6" style="mix-blend-mode:multiply;isolation:isolate"><path d="M3220.822,2595.175a8.842,8.842,0,0,1-2.067,1.032c-1.724.627-11.627-7.591-16.5-10.807.816.514,11.292,7.124,13.943,8.639A6.95,6.95,0,0,0,3220.822,2595.175Z" transform="translate(-3202.25 -2585.4)" fill="#455666"></path></g><g transform="translate(2904.663 2105.368)" opacity="0.36" style="mix-blend-mode:multiply;isolation:isolate"><path d="M3191.766,2393.206l-.751.361-9.973,6.481-2.249,1.46,0,0a.1.1,0,0,0-.016-.016c-.126-.122-.749-.731-1.743-1.7-6.318-6.131-27.669-26.677-32.522-29.02-5.715-2.759-8.375,1.872-8.375,1.872-7.272,9.17-13.5,7.364-12.021,6.9,6.494-2.056,6.5-2.168,10.642-8.277a7.52,7.52,0,0,1,10.051-2.759s15.166,11.034,25.672,20.123c8.348,4.2,19.512,3.661,19.512,3.661Z" transform="translate(-3123.894 -2367.588)" fill="#24313e"></path></g><g transform="translate(2959.562 2137.828)" opacity="0.36" style="mix-blend-mode:multiply;isolation:isolate"><path d="M3404.718,2532.3s0,.01,0,.014l-2.241,1.452s0,0-.005-.006Z" transform="translate(-3402.47 -2532.3)" fill="#455666"></path></g><g transform="translate(2943.506 2094.264)" opacity="0.4" style="mix-blend-mode:overlay;isolation:isolate"><path d="M3333.415,2311.24l7.1,12.53a27.053,27.053,0,0,0-6.708-7.209c-4.335-3.153-12.809-4.533-12.809-4.533Z" transform="translate(-3321 -2311.24)" fill="#ebf0f5"></path></g><g transform="translate(2963.024 2106.793)"><path d="M3420.063,2374.858s0,0,0,0l-.023-.041Z" transform="translate(-3420.04 -2374.82)" fill="#455666"></path></g><g transform="translate(2883.178 2132.361)" opacity="0.21" style="mix-blend-mode:multiply;isolation:isolate"><path d="M3023.929,2507.787l-2.941,3.835-1.671,2.828a3.558,3.558,0,0,1-2.645,1.844c-.865-.171-1.582-.314-1.774-1.027-.2-.735.452-2.419,2.226-3.645a24.05,24.05,0,0,1,3.958-2.645,7.087,7.087,0,0,0,2.846-3.093,5.315,5.315,0,0,1,.566-.5A3.149,3.149,0,0,1,3023.929,2507.787Z" transform="translate(-3014.873 -2506.86)" fill="#455666"></path></g><g transform="translate(2891.545 2132.693)" opacity="0.21" style="mix-blend-mode:multiply;isolation:isolate"><path d="M3068.147,2509.766l-3.8,5.436-2.392,3.428a4.819,4.819,0,0,1-3.114,2.234c-.821-.208-1.5-.381-1.512-1.245-.01-.891,1.2-1.027,3.282-2.512s1.632-.826,3.882-3.216c1.75-1.86,4.241-7.046,4.241-7.046a7.889,7.889,0,0,1,.691-.6A7.412,7.412,0,0,1,3068.147,2509.766Z" transform="translate(-3057.326 -2506.246)" fill="#455666"></path></g><g transform="translate(2899.854 2137.417)" opacity="0.21" style="mix-blend-mode:multiply;isolation:isolate"><path d="M3110.567,2533.643l-3.945,5.292-2.48,3.337a5,5,0,0,1-3.172,2.175c-.816-.2-1.493-.371-1.479-1.212.013-.867,1.224-1,3.348-2.446s1.653-.8,3.965-3.13c1.8-1.81,4.424-6.859,4.424-6.859a8.032,8.032,0,0,1,.707-.584A7.288,7.288,0,0,1,3110.567,2533.643Z" transform="translate(-3099.49 -2530.216)" fill="#455666"></path></g><g transform="translate(2907.963 2140.826)" opacity="0.21" style="mix-blend-mode:multiply;isolation:isolate"><path d="M3152.129,2551.2l-4.973,7.756-1.842,1.778a5.149,5.149,0,0,1-3.226,2.337c-.811-.218-1.484-.4-1.45-1.3.035-.932,1.248-1.074,3.408-2.628a17.655,17.655,0,0,0,4.218-3.625c1.844-1.945,4.595-7.37,4.595-7.37a8.482,8.482,0,0,1,.722-.627A8.36,8.36,0,0,1,3152.129,2551.2Z" transform="translate(-3140.638 -2547.513)" fill="#455666"></path></g><g transform="translate(2850.983 2114.968)" opacity="0.21" style="mix-blend-mode:multiply;isolation:isolate"><path d="M2873.487,2426.292a50.314,50.314,0,0,1-3.571,6.156l-.483.69-2.562,3.942-15.371-5.321,5.608-15.458s-4.1,14.215,4.8,16.018C2868.442,2433.642,2872.036,2428.908,2873.487,2426.292Z" transform="translate(-2851.5 -2416.3)" fill="#455666"></path></g><g transform="translate(2865.4 2086.185)" opacity="0.22" style="mix-blend-mode:overlay;isolation:isolate"><path d="M2940.985,2277.236s-.256,2.613-.976,6.637a13.277,13.277,0,0,0-2.67-3.583c-6.109-5.912-6.109,0-10.642-4.336a5.082,5.082,0,0,0-2.038-1.21l1.634-4.5Z" transform="translate(-2924.66 -2270.24)" fill="#ebf0f5"></path></g><g transform="translate(2955.81 2086.029)"><path d="M3417.9,2310.442l-15.962,7.094a33.511,33.511,0,0,1-6.369-8.437.018.018,0,0,0,0-.006c-7.073-12.459-11.56-30.774-11.56-30.774l11.627-8.08c2.095,6.087,7.779,16.315,12.878,24.933C3413.477,2303.574,3417.9,2310.442,3417.9,2310.442Z" transform="translate(-3383.888 -2270.085)" fill="#24313e"></path><path d="M3401.459,2317.019l-.047-.042a33.434,33.434,0,0,1-6.39-8.462c-7-12.334-11.529-30.622-11.573-30.805l-.016-.065.056-.039,11.734-8.154.042.123c1.7,4.952,6.155,13.568,12.87,24.915,4.914,8.3,9.344,15.2,9.388,15.266l.062.1Zm-6.276-8.618.013.022a33.406,33.406,0,0,0,6.3,8.365l15.8-7.022c-.554-.866-4.73-7.4-9.33-15.175-4.657-7.869-10.649-18.539-12.844-24.828l-11.464,7.967C3383.961,2278.947,3388.414,2296.469,3395.184,2308.4Z" transform="translate(-3383.433 -2269.452)" fill="#031439"></path></g><g transform="translate(2967.485 2111.117)" opacity="0.36" style="mix-blend-mode:multiply;isolation:isolate"><path d="M3465.011,2412.029l-15.962,7.094a33.528,33.528,0,0,1-6.369-8.437c.109.156,2.659,3.732,8.636.455,6.109-3.35,4.306-14.382,4.306-14.382C3460.593,2405.161,3465.011,2412.029,3465.011,2412.029Z" transform="translate(-3442.679 -2396.76)" fill="#24313e"></path></g><g transform="translate(2955.922 2086.185)" opacity="0.22" style="mix-blend-mode:overlay;isolation:isolate"><path d="M3398.188,2276.3c-.985.045-5.054,1.679-9.424,2.636s-4.764-.239-4.764-.239l11.627-8.461Z" transform="translate(-3384 -2270.24)" fill="#ebf0f5"></path></g><g transform="translate(2927.897 2054.529)" opacity="0.59" style="mix-blend-mode:overlay;isolation:isolate"><path d="M3263.259,2109.61a1.946,1.946,0,0,0-.658.518l-19.571,23.745a1.968,1.968,0,0,0,.266,2.773l.329.27a1.954,1.954,0,0,0,1.326.449,1.963,1.963,0,0,1-2.115-.252l-.329-.27a1.968,1.968,0,0,1-.266-2.773l19.571-23.745A1.965,1.965,0,0,1,3263.259,2109.61Z" transform="translate(-3241.791 -2109.61)" fill="#ebf0f5"></path></g><g transform="translate(2899.553 2044.573)" opacity="0.59" style="mix-blend-mode:overlay;isolation:isolate"><path d="M3109.469,2083.694l-.109.045a1.97,1.97,0,0,1-2.578-1.056l-8.667-20.7a1.972,1.972,0,0,1,1.056-2.58l.392-.164a1.98,1.98,0,0,1,.68-.152l-.284.118a1.973,1.973,0,0,0-1.056,2.58l8.667,20.7A1.973,1.973,0,0,0,3109.469,2083.694Z" transform="translate(-3097.963 -2059.09)" fill="#ebf0f5"></path></g><g transform="translate(2922.716 2041.617)" opacity="0.59" style="mix-blend-mode:overlay;isolation:isolate"><path d="M3225.411,2044.09a1.942,1.942,0,0,0-.959,1.019l-8.013,19.441a1.971,1.971,0,0,0,1.071,2.574l.394.161a1.9,1.9,0,0,0,.826.146,1.956,1.956,0,0,1-1.614.051l-.394-.162a1.97,1.97,0,0,1-1.07-2.573l8.012-19.441A1.966,1.966,0,0,1,3225.411,2044.09Z" transform="translate(-3215.501 -2044.09)" fill="#ebf0f5"></path></g><g transform="translate(2882.204 2057.125)" opacity="0.59" style="mix-blend-mode:overlay;isolation:isolate"><path d="M3033.792,2149.271a1.969,1.969,0,0,1-2.3-.424l-21.027-22.462a1.969,1.969,0,0,1,.093-2.784l.309-.292a1.967,1.967,0,0,1,1.271-.53,2.025,2.025,0,0,0-.483.333l-.309.292a1.968,1.968,0,0,0-.093,2.784l21.027,22.462A1.96,1.96,0,0,0,3033.792,2149.271Z" transform="translate(-3009.931 -2122.78)" fill="#ebf0f5"></path></g></g></g></svg>