<svg xmlns="http://www.w3.org/2000/svg" width="130" height="60" viewBox="0 0 130 60"><g transform="translate(-985 -192)"><g transform="translate(985 192)" fill="#fff" stroke="#707070" stroke-width="1" opacity="0"><rect width="130" height="60" stroke="none"></rect><rect x="0.5" y="0.5" width="129" height="59" fill="none"></rect></g><g transform="translate(986 208)"><path d="M286.217,498.128l-7.877,17.3H267.75l3.14,4.087h5.618l-2.973,6.522h4.734l3.028-6.522h10.961l3.028,6.522H300.4l-12.763-27.9Zm94.972,0-12.781,27.9h5.109l3.028-6.522h10.98l3.028,6.522h4.72l-12.671-27.9Zm-54.913.521v4.44h16.034v-4.44Zm-29,.038,11.649,27.9h1.412l11.909-27.9h-4.718l-7.765,18.355-7.374-18.356Zm48.917,0,11.63,27.9h1.412l11.928-27.9h-4.734l-7.748,18.355L351.3,498.685Zm-59.414,8.994,3.6,7.748h-7.208Zm95.251,0,3.6,7.748h-7.188Zm-55.753,2.507v4.44h16.034v-4.44Zm0,11.445v4.441h16.034v-4.441Z" transform="translate(-267.75 -498.128)" fill="#869ab8"></path></g></g></svg>