<svg xmlns="http://www.w3.org/2000/svg" width="130" height="60" viewBox="0 0 130 60"><g transform="translate(-835 -192)"><g transform="translate(835 192)" fill="#fff" stroke="#707070" stroke-width="1" opacity="0"><rect width="130" height="60" stroke="none"></rect><rect x="0.5" y="0.5" width="129" height="59" fill="none"></rect></g><g transform="translate(836 198)"><path d="M1350.183,2938.542a.311.311,0,0,1-.309-.289v-8.8l-2.806,6.811a.353.353,0,0,1-.292.243h-1.236a.331.331,0,0,1-.291-.223l-2.794-6.8v8.738a.313.313,0,0,1-.3.308h-1.687a.306.306,0,0,1-.306-.3v-13.788a.311.311,0,0,1,.3-.3h1.7a.342.342,0,0,1,.291.226l3.7,8.981,3.718-8.967a.357.357,0,0,1,.3-.243h1.7a.311.311,0,0,1,.306.3v13.786a.311.311,0,0,1-.3.308Z" transform="translate(-1285.688 -2915.188)" fill="#869ab8"></path><path d="M1435.022,2946.21c-2.714,0-4.436-1.566-4.491-4.09a.308.308,0,0,1,.3-.3h1.583a.311.311,0,0,1,.308.3,2.073,2.073,0,0,0,2.3,2.143c1.257,0,2.1-.621,2.1-1.546s-1.112-1.252-2.4-1.617c-1.728-.485-3.883-1.1-3.883-3.587,0-2.09,1.532-3.337,4.1-3.337,2.746,0,4.224,1.366,4.272,3.951a.316.316,0,0,1-.3.3h-1.479a.316.316,0,0,1-.306-.31c-.043-1.42-.673-2-2.185-2-.878,0-1.925.243-1.925,1.367,0,1.09,1.183,1.425,2.553,1.813,1.767.5,3.767,1.071,3.767,3.449,0,2.231-1.534,3.459-4.315,3.459" transform="translate(-1352.429 -2922.597)" fill="#869ab8"></path><path d="M1473.327,2946.21c-2.714,0-4.436-1.566-4.488-4.09a.305.305,0,0,1,.3-.3h1.583a.313.313,0,0,1,.308.3,2.072,2.072,0,0,0,2.3,2.143c1.26,0,2.1-.621,2.1-1.546s-1.112-1.252-2.4-1.617c-1.728-.485-3.884-1.1-3.884-3.587,0-2.09,1.532-3.337,4.1-3.337,2.746,0,4.224,1.366,4.272,3.951a.316.316,0,0,1-.3.3h-1.488a.316.316,0,0,1-.3-.3c-.042-1.419-.672-2-2.184-2-.879,0-1.927.243-1.927,1.367,0,1.09,1.183,1.425,2.556,1.813,1.764.5,3.765,1.071,3.765,3.449,0,2.23-1.532,3.459-4.316,3.459" transform="translate(-1380.721 -2922.597)" fill="#869ab8"></path><path d="M1511.2,2946.327c-2.376,0-3.8-1.7-3.8-4.554v-2.792c0-2.84,1.42-4.537,3.8-4.537a3.808,3.808,0,0,1,2.884.986v-.517a.311.311,0,0,1,.291-.309h1.5a.313.313,0,0,1,.306.309v10.923a.309.309,0,0,1-.3.309h-1.492a.311.311,0,0,1-.3-.3v-.486a3.858,3.858,0,0,1-2.884.972m.6-9.989c-1.806,0-2.185,1.568-2.185,2.881v2.294q0,2.913,2.185,2.913c1.806,0,2.184-1.59,2.184-2.913v-2.38c0-1.806-.777-2.8-2.184-2.8" transform="translate(-1409.205 -2922.792)" fill="#869ab8"></path><path d="M1551.589,2950.37c-3.464,0-4.235-1.845-4.272-3.4a.308.308,0,0,1,.3-.289h1.548a.309.309,0,0,1,.306.3c.064,1,.835,1.576,2.117,1.576,1.5,0,2.165-.656,2.165-2.125v-1a3.843,3.843,0,0,1-2.78.866h0a4.219,4.219,0,0,1-1.214-.169c-1.667-.508-2.585-2.063-2.585-4.387v-3.3a2.285,2.285,0,0,1,.026-.274s.017-.18.022-.214c.015-.117.036-.243.058-.342l.022-.112c.024-.116.053-.225.085-.332l.026-.1c.032-.1.068-.2.1-.3l.036-.1c.039-.094.08-.182.121-.27l.051-.1c.042-.085.09-.16.138-.243l.063-.107c.049-.073.1-.14.153-.211l.075-.092c.058-.071.121-.139.185-.2l.061-.06a2.91,2.91,0,0,1,.243-.219,3.63,3.63,0,0,1,2.3-.745,3.8,3.8,0,0,1,2.881.986v-.51a.311.311,0,0,1,.3-.308h1.493a.313.313,0,0,1,.3.308v11.166c0,3.065-1.262,4.316-4.357,4.316m-.019-14.057c-1.806,0-2.185,1.568-2.185,2.881v2.3q0,2.913,2.185,2.913c1.806,0,2.184-1.59,2.184-2.913v-2.384c0-1.456-.485-2.379-1.427-2.687-.058-.017-.119-.036-.182-.049l-.156-.032a2.659,2.659,0,0,0-.42-.034" transform="translate(-1438.574 -2922.768)" fill="#869ab8"></path><path d="M1350.329,3006.232a.309.309,0,0,1-.309-.289v-8.8l-2.808,6.811a.349.349,0,0,1-.291.243h-1.233a.334.334,0,0,1-.292-.223l-2.8-6.8v8.74a.311.311,0,0,1-.3.309h-1.685a.316.316,0,0,1-.308-.3v-13.791a.308.308,0,0,1,.3-.3h1.7a.333.333,0,0,1,.3.226l3.7,8.981,3.711-8.956a.352.352,0,0,1,.3-.243h1.7a.316.316,0,0,1,.306.3v13.787a.313.313,0,0,1-.3.309h-1.687Z" transform="translate(-1285.794 -2965.182)" fill="#869ab8"></path><path d="M1491.271,3014.008c-2.379,0-3.8-1.7-3.8-4.556v-2.792c0-2.837,1.42-4.534,3.8-4.534a3.8,3.8,0,0,1,2.881.985v-.52a.309.309,0,0,1,.3-.306h1.493a.314.314,0,0,1,.306.309v10.923a.313.313,0,0,1-.3.308h-1.493a.31.31,0,0,1-.3-.3v-.485a3.863,3.863,0,0,1-2.881.971m.6-9.993c-1.8,0-2.184,1.565-2.184,2.881v2.294q0,2.913,2.184,2.913c1.806,0,2.185-1.587,2.185-2.913v-2.374c0-1.806-.777-2.8-2.185-2.8" transform="translate(-1394.482 -2972.779)" fill="#869ab8"></path><path d="M1434.819,3003.709c-2.376,0-3.8-1.7-3.8-4.554v-2.791c0-2.84,1.42-4.537,3.8-4.537a4.455,4.455,0,0,1,.588.027l.109.014h.056c.127.015.243.034.364.056a1.38,1.38,0,0,1,.141.031c.136.032.243.058.332.088l.156.051c.094.034.185.073.269.112l.124.056c.092.049.179.1.26.15l.077.049a2.259,2.259,0,0,1,.206.155v-4.126a.309.309,0,0,1,.291-.309h1.7a.315.315,0,0,1,.306.309v15.025h-1.786a.308.308,0,0,1-.3-.3v-.486a3.856,3.856,0,0,1-2.881.972Zm.6-9.988c-1.806,0-2.184,1.568-2.184,2.881v2.294q0,2.913,2.184,2.913c1.8,0,2.185-1.59,2.185-2.913v-2.374c0-1.806-.774-2.8-2.185-2.8" transform="translate(-1352.792 -2962.48)" fill="#869ab8"></path><path d="M1472.68,3014.278a.308.308,0,0,1-.3-.3v-10.942a.309.309,0,0,1,.286-.3h1.6a.314.314,0,0,1,.3.309v10.927a.305.305,0,0,1-.292.308h-1.595Z" transform="translate(-1383.334 -2973.228)" fill="#869ab8"></path><path d="M1396.517,2946.337c-2.712,0-4.394-1.752-4.394-4.573v-2.707c0-2.845,1.682-4.612,4.394-4.612s4.369,1.7,4.369,4.512v1.794a.311.311,0,0,1-.3.306h-6.277v1.085a2.114,2.114,0,0,0,2.2,2.3,1.958,1.958,0,0,0,2.184-1.925v-.042a.311.311,0,0,1,.291-.306h1.58a.313.313,0,0,1,.3.284C1400.856,2944.749,1399.06,2946.337,1396.517,2946.337Zm2.184-6.971v-.531c0-1.647-.728-2.48-2.184-2.48a2.062,2.062,0,0,0-2.2,2.323v.688Z" transform="translate(-1324.062 -2922.792)" fill="#869ab8"></path><path d="M1591.059,2946.337c-2.709,0-4.391-1.752-4.391-4.573v-2.707c0-2.845,1.682-4.612,4.391-4.612s4.369,1.7,4.369,4.512v1.794a.311.311,0,0,1-.3.306h-6.275v1.085a2.113,2.113,0,0,0,2.2,2.3,1.941,1.941,0,0,0,2.184-1.925v-.042a.31.31,0,0,1,.286-.3h1.592a.313.313,0,0,1,.3.283C1595.4,2944.749,1593.605,2946.337,1591.059,2946.337Zm2.187-6.971v-.531c0-1.647-.728-2.48-2.184-2.48a2.061,2.061,0,0,0-2.2,2.323v.688Z" transform="translate(-1467.744 -2922.792)" fill="#869ab8"></path><path d="M1396.544,3013.974c-2.709,0-4.394-1.752-4.394-4.573v-2.709c0-2.845,1.685-4.612,4.394-4.612s4.369,1.687,4.369,4.512v1.794a.313.313,0,0,1-.3.309h-6.279v1.085a2.114,2.114,0,0,0,2.2,2.3,1.94,1.94,0,0,0,2.185-1.925v-.042a.311.311,0,0,1,.291-.306h1.592a.311.311,0,0,1,.3.286C1400.884,3012.388,1399.088,3013.974,1396.544,3013.974Zm2.185-6.97v-.53c0-1.647-.729-2.483-2.185-2.483a2.063,2.063,0,0,0-2.2,2.323V3007Z" transform="translate(-1324.082 -2972.745)" fill="#869ab8"></path><circle cx="1.345" cy="1.345" r="1.345" transform="translate(88.783 25.485)" fill="#869ab8"></circle><path d="M1131.8,2919.791s.252-9.617,6.112-10.613c1.735-3.955,3.984-8.963,12.321-9.048,1.167-3.044,11.4-19.18,20.875-3.5,6.247,13.854,7.6,29.38,7.6,29.38s.721,4.664-3.7,5.674-5.194-3.9-5.194-4.761,1.01-8.031-.385-15.243-2.067-8.9-4.279-12.839-6.539-2.756-8.416,1.291a10.632,10.632,0,0,0-.917,2.239,19.406,19.406,0,0,1,5.906,10.263c1.627,6.88,2.294,10.616,1,18.643s-7.767,7.361-9.691,5.031-3.958-7.805-4.513-13.688-.591-12.761.518-18.088c-2.331.3-4.808,1.11-6.844,5.216,2.035,1.886,4.661,6.029,3.589,14.315s-5.957,6.252-5.957,6.252-3.144-.666-3.513-11.171c-.075-6.177.7-6.954.7-6.954s-2.33.777-3.182,6.954c-.095.88-.095.945-.095.945s-.1,1.1-1.01,1.009S1131.8,2919.791,1131.8,2919.791Z" transform="translate(-1131.799 -2889.878)" fill="#869ab8"></path><path d="M1164.354,2976s1.948,2.539,1.883,7.551-1.664,7.224-1.664,7.224a17.991,17.991,0,0,1-1.267-7.224,30.162,30.162,0,0,1,.81-6.588C1164.091,2976.958,1164.354,2976,1164.354,2976Z" transform="translate(-1155.062 -2953.481)" fill="#fff"></path><path d="M1216.566,2958.063c.073-.244,2.776,3.477,3.737,12.318s-1.295,12.207-1.295,12.207a25.617,25.617,0,0,1-3-12.207c-.111-7.546.1-8.576.1-8.576S1216.495,2958.307,1216.566,2958.063Z" transform="translate(-1193.971 -2940.228)" fill="#fff"></path></g></g></svg>