<svg xmlns="http://www.w3.org/2000/svg" width="130" height="60" viewBox="0 0 130 60"><g transform="translate(-3835 -112)"><g transform="translate(3835 112)" fill="#fff" stroke="#707070" stroke-width="1" opacity="0"><rect width="130" height="60" stroke="none"></rect><rect x="0.5" y="0.5" width="129" height="59" fill="none"></rect></g><g transform="translate(3836.248 131.225)"><path d="M3111.334-826.536h3.453v6.084h6.46v-6.094h3.465v15.45h-3.444v-6.138h-6.4v6.131h-3.531Z" transform="translate(-3047.753 827.402)" fill="#869ab8"></path><path d="M3542.483-781.853c.063-.4.107-.683.155-1h3.293c.018.345.048.657.049.969,0,2.946.01,5.893,0,8.839-.012,3.932-2.129,6.233-6.088,6.442a18.978,18.978,0,0,1-3.843-.381c-.236-.037-.543-.491-.577-.781a19.768,19.768,0,0,1-.027-2.223c4.971,1.558,7.153.617,7.05-2.982-.053-.015-.142-.058-.158-.039a4.23,4.23,0,0,1-4.76,1.289,4,4,0,0,1-2.962-3.611,12.985,12.985,0,0,1,.281-4.484A4.558,4.558,0,0,1,3542.483-781.853Zm.193,4.432-.1-.031c-.032-.385-.032-.775-.1-1.153a2.223,2.223,0,0,0-1.923-1.9,1.961,1.961,0,0,0-2.186,1.384,10.05,10.05,0,0,0-.173,3.382,1.863,1.863,0,0,0,1.843,1.581,2.026,2.026,0,0,0,2.119-1.236A10.894,10.894,0,0,0,3542.676-777.421Z" transform="translate(-3430.75 788.14)" fill="#869ab8"></path><path d="M3405.412-819.081h-3.268c-.043-.384-.082-.73-.1-.913a13.979,13.979,0,0,1-2.9,1.158,4.135,4.135,0,0,1-4.794-3.026,8.094,8.094,0,0,1,.206-5.6,4.645,4.645,0,0,1,7.519-1.659v-6.28h3.341Zm-3.151-5.629-.1-.032a8.594,8.594,0,0,0-.071-1.061,2.3,2.3,0,0,0-2.084-1.976,2.09,2.09,0,0,0-2.219,1.654,9.374,9.374,0,0,0-.042,3.131,1.891,1.891,0,0,0,1.871,1.563,1.99,1.99,0,0,0,2.1-1.252A13.744,13.744,0,0,0,3402.261-824.71Z" transform="translate(-3303.51 835.411)" fill="#869ab8"></path><path d="M3284.046-776.555h-7.073c-.147,2.27,2.359,2.918,6.12,1.557a17.181,17.181,0,0,1-.027,2.015.98.98,0,0,1-.561.647,8.782,8.782,0,0,1-5.9.169c-2.3-.794-3.421-2.936-3.227-5.907a5.6,5.6,0,0,1,7.19-5.174,4.678,4.678,0,0,1,3.473,4.513C3284.092-778.062,3284.046-777.381,3284.046-776.555Zm-3.366-2.255c.18-1.331-.371-2.129-1.511-2.233a2.081,2.081,0,0,0-2.23,2.233Z" transform="translate(-3194.378 788.411)" fill="#869ab8"></path><path d="M3682.536-776.657h-7.075c.166,2.319,1.768,2.738,6.127,1.642a14.04,14.04,0,0,1-.025,1.843,1.06,1.06,0,0,1-.529.752,8.906,8.906,0,0,1-5.99.115,4.483,4.483,0,0,1-1.326-.777c-2-1.661-2.417-5.469-.906-7.937a5.721,5.721,0,0,1,6.856-2.146,4.482,4.482,0,0,1,2.853,3.947A24.834,24.834,0,0,1,3682.536-776.657Zm-3.194-2.2c-.121-1.632-.595-2.227-1.706-2.288-1.164-.064-1.96.725-2.2,2.229.219.02.436.056.653.057C3677.149-778.85,3678.211-778.853,3679.343-778.853Z" transform="translate(-3555.061 788.503)" fill="#869ab8"></path><path d="M2813.053-782.826h1.645c.028.531.054,1.031.086,1.654a2.9,2.9,0,0,0,.4-.331,4.36,4.36,0,0,1,4.722-1.472,4.154,4.154,0,0,1,3.127,3.478,8.134,8.134,0,0,1-.381,5.041,4.556,4.556,0,0,1-7.548,1.592,2.773,2.773,0,0,0-.355-.214v6.394h-1.693Zm1.651,5.476c.047.646.042,1.1.12,1.546a3.108,3.108,0,0,0,2.808,2.769,2.937,2.937,0,0,0,3.3-2.257,9.9,9.9,0,0,0,.219-3.7,2.807,2.807,0,0,0-2.907-2.584,3.28,3.28,0,0,0-3.261,2.409A13.388,13.388,0,0,0,2814.7-777.349Z" transform="translate(-2777.811 788.115)" fill="#869ab8"></path><path d="M2442.139-827.12c1.708,0,3.332-.06,4.95.013a4.337,4.337,0,0,1,4.567,4.31,4.737,4.737,0,0,1-3.877,5.155,35.021,35.021,0,0,1-3.79.317v5.695h-1.85Zm1.9,7.927a23.609,23.609,0,0,0,2.927-.022,2.879,2.879,0,0,0,2.7-3.091c.014-1.773-.748-2.8-2.444-3.025a24.956,24.956,0,0,0-3.183-.025Z" transform="translate(-2442.139 827.941)" fill="#869ab8"></path><path d="M2565.882-776.9h-7.745a3.422,3.422,0,0,0,1.321,3.1c1.888,1.272,3.752.71,5.54-.369.338,1.492.216,1.911-1.162,2.2a13.4,13.4,0,0,1-3.927.239,3.848,3.848,0,0,1-2.9-2.08,7.328,7.328,0,0,1,.469-7.533,4.988,4.988,0,0,1,5.33-1.677,4.332,4.332,0,0,1,3.062,3.968C2565.939-778.381,2565.882-777.7,2565.882-776.9Zm-7.69-1.594h5.76a2.621,2.621,0,0,0-2.282-3.136C2559.884-781.835,2558.515-780.617,2558.192-778.491Z" transform="translate(-2545.35 788.19)" fill="#869ab8"></path><path d="M2995.6-776.992h-7.782a3.361,3.361,0,0,0,1.483,3.215c1.872,1.1,3.666.564,5.373-.508.369,1.473.272,1.875-1.108,2.182a13.6,13.6,0,0,1-4.011.273,3.555,3.555,0,0,1-2.823-2.015,7.038,7.038,0,0,1,0-6.959,4.871,4.871,0,0,1,5.668-2.337c1.858.482,3.077,2.187,3.2,4.492C2995.621-778.138,2995.6-777.624,2995.6-776.992Zm-7.76-1.6h5.844c-.031-1.963-.875-3.022-2.473-3.15C2989.531-781.873,2988.235-780.694,2987.838-778.588Z" transform="translate(-2934.155 788.286)" fill="#869ab8"></path><path d="M2683.6-778.209c.318,4.884-3.316,7.74-7.478,6.391-2.71-.878-4.075-3.879-3.261-7.307a4.774,4.774,0,0,1,3.8-3.846c2.112-.453,4.143-.315,5.7,1.477A5.3,5.3,0,0,1,2683.6-778.209Zm-9.036.889c0,2.2.99,3.758,2.627,4.135a3.383,3.383,0,0,0,4.281-2.191c.834-2.44.023-5.2-1.759-5.962a3.128,3.128,0,0,0-.645-.2C2676.366-782.048,2674.57-780.364,2674.568-777.32Z" transform="translate(-2650.731 788.165)" fill="#869ab8"></path><path d="M2946.035-819.211h-1.657v-16.333h1.657Z" transform="translate(-2896.659 835.544)" fill="#869ab8"></path></g></g></svg>