<svg xmlns="http://www.w3.org/2000/svg" width="130" height="60" viewBox="0 0 130 60"><g transform="translate(-985 -112)"><g transform="translate(985 112)" fill="#fff" stroke="#707070" stroke-width="1" opacity="0"><rect width="130" height="60" stroke="none"></rect><rect x="0.5" y="0.5" width="129" height="59" fill="none"></rect></g><g transform="translate(987.216 117.404)"><path d="M975.365,19.737h-5.359V11.959h2.053v5.954h3.306Z" transform="translate(-849.797 9.509)" fill="#869ab8"></path><path d="M788.3,82.911c-.468-.175-.522-.263-.468-.757.163,0,.173,0,.2.231s.176.267.344.261c.218-.008.517.115.61-.177a.7.7,0,0,0-.075-.586c-.106-.118-.373-.1-.572-.124-.367-.041-.493-.15-.5-.511-.008-.248-.067-.592.216-.667a2.222,2.222,0,0,1,1,.023c.108.023.161.308.239.473l-.117.086c-.05-.056-.121-.1-.147-.17a.609.609,0,0,0-.776-.244.471.471,0,0,0-.144.612.385.385,0,0,0,.207.149,1.565,1.565,0,0,0,.33.049.681.681,0,0,1,.532,1.087c-.085.131-.3.179-.45.265Z" transform="translate(-734.946 -33.72)" fill="#869ab8"></path><path d="M717.349,67.762c-.36.545-.681,1.007-.979,1.483q-1.157,1.857-2.3,3.725a3.556,3.556,0,0,1-3.254,1.813q-17.382-.011-34.764-.009h-.337c.205-.362.381-.686.571-1,.42-.7.857-1.393,1.27-2.1q1.068-1.822,2.11-3.659a.511.511,0,0,1,.525-.291q10.265.015,20.53.013,4.562,0,9.124.009,3.543,0,7.086.016Z" transform="translate(-664.28 -25.645)" fill="#869ab8"></path><path d="M675.934-15.218l1.9,3.305c.668,1.158,1.331,2.319,2.006,3.473a.422.422,0,0,1,0,.491q-3.126,5.406-6.24,10.819Q669.55,9.89,665.475,16.9c-1.052,1.81-2.118,3.611-3.179,5.417-.03.052-.066.1-.118.179-.06-.09-.112-.159-.155-.233q-1.893-3.275-3.788-6.55a.431.431,0,0,1-.01-.5q3.464-5.982,6.918-11.971,4.027-6.949,8.073-13.889c.86-1.477,1.738-2.943,2.607-4.414C675.848-15.1,675.878-15.137,675.934-15.218Z" transform="translate(-653.205 26.641)" fill="#869ab8"></path><path d="M695.008-46.119h6.111c.608,0,1.216.008,1.824,0a.394.394,0,0,1,.409.228c.36.646.736,1.282,1.108,1.921l7.95,13.641q4.151,7.122,8.3,14.245c.109.187.245.359.408.6h-.5c-2.463,0-4.926,0-7.389,0a.571.571,0,0,1-.557-.321q-3.851-6.653-7.708-13.3-3.168-5.445-6.362-10.876c-.608-1.04-1.2-2.088-1.815-3.126-.529-.9-1.073-1.783-1.609-2.674C695.13-45.88,695.083-45.978,695.008-46.119Z" transform="translate(-676.439 46.124)" fill="#869ab8"></path><path d="M648.3-2.663c-.272-.469-.531-.913-.788-1.357q-1.109-1.921-2.215-3.843a3.466,3.466,0,0,1,0-3.666q1.67-2.912,3.356-5.815,4.04-6.959,8.086-13.914,2.588-4.446,5.187-8.886c.04-.069.086-.135.156-.245l.234.4c.829,1.439,1.654,2.881,2.49,4.316.386.662.78,1.321,1.2,1.962a.578.578,0,0,1-.009.706q-2.14,3.635-4.26,7.283c-1.559,2.69-3.1,5.39-4.658,8.081q-4.07,7.029-8.151,14.05C648.743-3.279,648.523-2.994,648.3-2.663Z" transform="translate(-644.769 42.509)" fill="#869ab8"></path><path d="M750.427-15.49H749.9c-2.443,0-4.887,0-7.33.007a.491.491,0,0,1-.495-.289q-1.182-2.072-2.388-4.129-4.087-7-8.179-14-3.494-5.977-6.992-11.952c-.04-.068-.072-.141-.123-.242.113-.006.2-.015.283-.015,1.9,0,3.792.009,5.688,0a3.577,3.577,0,0,1,3.343,1.923q2.761,4.791,5.538,9.573,4.06,6.983,8.134,13.958c.943,1.616,1.9,3.222,2.855,4.833C750.29-15.738,750.341-15.642,750.427-15.49Z" transform="translate(-694.964 46.121)" fill="#869ab8"></path><path d="M892.564,11.894c.106-.006.2-.016.284-.017,1,0,2.007.005,3.01-.006a.33.33,0,0,1,.37.26c.651,1.766,1.313,3.529,1.972,5.292.049.13.1.26.151.391l.08-.01c-.041-1.96-.081-3.919-.122-5.9h2.064v7.772h-.583c-.882,0-1.764-.009-2.645.006a.364.364,0,0,1-.408-.293c-.656-1.808-1.323-3.611-1.989-5.416a.439.439,0,0,0-.17-.231c.038,1.964.075,3.929.113,5.914h-2.127Z" transform="translate(-800.978 9.563)" fill="#869ab8"></path><path d="M848.15,19.656h-2.06V11.875h.343c.963,0,1.926.008,2.888-.006a.381.381,0,0,1,.438.295c.65,1.778,1.319,3.549,1.982,5.322a.644.644,0,0,0,.2.307c-.038-1.955-.077-3.91-.116-5.891h2.058v7.771h-.668c-.851,0-1.7-.008-2.554.006a.362.362,0,0,1-.411-.286q-.792-2.2-1.613-4.389a7.726,7.726,0,0,0-.612-1.257C848.068,15.707,848.108,17.668,848.15,19.656Z" transform="translate(-771.681 9.566)" fill="#869ab8"></path><path d="M751.747,49.6a13.809,13.809,0,0,1-1.5-.215,1.111,1.111,0,0,1-.9-1.509,3.155,3.155,0,0,1,.252-.744c.563-1.076,1.106-2.164,1.729-3.206a4.455,4.455,0,0,1,3.646-2.26c.823-.061,1.656-.012,2.484,0a1.876,1.876,0,0,1,.56.129,1.083,1.083,0,0,1,.8,1.419,5.722,5.722,0,0,1-.449,1.186q-.6,1.194-1.26,2.355a8.1,8.1,0,0,1-.767,1.127,4.708,4.708,0,0,1-3.255,1.62C752.7,49.554,752.313,49.563,751.747,49.6Zm3.475-6.2a2.044,2.044,0,0,0-2.2,1.334c-.291.578-.612,1.142-.911,1.718a3.817,3.817,0,0,0-.261.613c-.127.4-.021.587.395.63a8.8,8.8,0,0,0,1.152.027,1.628,1.628,0,0,0,1.426-.891c.428-.742.854-1.486,1.27-2.235a2.81,2.81,0,0,0,.247-.618.353.353,0,0,0-.3-.494C755.767,43.442,755.493,43.428,755.223,43.4Z" transform="translate(-710.658 -9.2)" fill="#869ab8"></path><path d="M867.928,49.295h-2.076V41.551a1.05,1.05,0,0,1,.176-.03c1.429,0,2.859,0,4.288.016a4.679,4.679,0,0,1,.842.11,1.548,1.548,0,0,1,1.358,1.433,11.149,11.149,0,0,1,.007,1.936,1.291,1.291,0,0,1-.968,1.133c-.131.048-.264.089-.48.161.175.038.265.06.356.077a1.175,1.175,0,0,1,1.064,1.115c.045.591.01,1.187.01,1.791h-2.079c0-.371,0-.722,0-1.074.008-.687-.261-.97-.94-.975-.506,0-1.013,0-1.559,0Zm.006-3.878c.66,0,1.286.011,1.911-.005.282-.007.533-.132.555-.452a8.85,8.85,0,0,0,0-1.147.445.445,0,0,0-.429-.442c-.673-.022-1.348-.007-2.036-.007Z" transform="translate(-784.139 -9.127)" fill="#869ab8"></path><path d="M721.551,41.4c.522.06,1.051.084,1.564.188a1.163,1.163,0,0,1,1,1.631,5.789,5.789,0,0,1-.432,1.066c-.381.749-.8,1.478-1.183,2.227a4.961,4.961,0,0,1-4.633,2.9c-.676.011-1.354-.052-2.029-.1a1.7,1.7,0,0,1-.549-.167.991.991,0,0,1-.645-1.173,5.025,5.025,0,0,1,.409-1.231c.44-.889.9-1.769,1.4-2.626a5.01,5.01,0,0,1,4.3-2.64c.263-.013.527,0,.79,0ZM718.2,47.761a1.908,1.908,0,0,0,1.971-.994c.479-.879.975-1.75,1.432-2.64.374-.729.219-.926-.594-1.01a2.3,2.3,0,0,0-2.578,1.456c-.392.863-.861,1.692-1.293,2.537-.131.257-.06.463.226.537A6.677,6.677,0,0,0,718.2,47.761Z" transform="translate(-688.802 -9.05)" fill="#869ab8"></path><path d="M963.091,43.9c-.207-.764-.236-.793-1.026-.793a5.586,5.586,0,0,0-.937.067c-.36.062-.454.227-.442.641.012.375.132.545.481.582.655.071,1.314.1,1.968.178a7.248,7.248,0,0,1,1.127.23,1.224,1.224,0,0,1,.934,1.118,10.8,10.8,0,0,1,.041,1.606,1.571,1.571,0,0,1-1.293,1.531,8.8,8.8,0,0,1-4.184.044,1.389,1.389,0,0,1-.947-.8,3.6,3.6,0,0,1-.293-1.586h2.036c.128.729.23.833.964.866a7.588,7.588,0,0,0,1.122-.04c.414-.044.56-.271.542-.761-.016-.432-.117-.535-.568-.58-.906-.091-1.815-.165-2.718-.281a1.372,1.372,0,0,1-1.272-1.271,6.247,6.247,0,0,1-.009-1.688,1.6,1.6,0,0,1,1.7-1.477,18.493,18.493,0,0,1,3.032-.011,1.826,1.826,0,0,1,1.662,2.4.507.507,0,0,1-.109.024C964.3,43.906,963.7,43.9,963.091,43.9Z" transform="translate(-842.557 -9.068)" fill="#869ab8"></path><path d="M824.595,46.759h1.975c.017.027.034.043.037.061.1.649.169.738.847.789a7.993,7.993,0,0,0,1.272-.02c.427-.037.557-.255.538-.786-.015-.414-.114-.516-.552-.556-.867-.079-1.739-.123-2.6-.243a1.486,1.486,0,0,1-1.428-1.48,6.4,6.4,0,0,1,.011-1.48,1.524,1.524,0,0,1,1.4-1.461c1.053-.1,2.119-.082,3.179-.1a2.132,2.132,0,0,1,.537.093,1.574,1.574,0,0,1,1.268,1.383c.047.307.055.62.083.959h-1.995c-.139-.7-.209-.779-.951-.765a8.007,8.007,0,0,0-1.249.162c-.239.042-.26.258-.257.455s-.025.455.23.541a3.808,3.808,0,0,0,.759.172c.743.09,1.5.123,2.232.247a1.446,1.446,0,0,1,1.4,1.577,8.919,8.919,0,0,1,0,1.183,1.58,1.58,0,0,1-1.281,1.6,9.1,9.1,0,0,1-4.007.108,1.627,1.627,0,0,1-1.337-1.438C824.643,47.443,824.632,47.11,824.595,46.759Z" transform="translate(-758.13 -9.103)" fill="#869ab8"></path><path d="M946.651,19.669c.259-.865.5-1.687.75-2.508.5-1.657,1-3.312,1.487-4.972a.372.372,0,0,1,.438-.32c.75.017,1.5.006,2.249.006.627,0,.634,0,.824.606.26.83.507,1.664.76,2.5q.66,2.163,1.319,4.325c.032.1.055.212.095.369h-1.438c-.742,0-.742,0-.954-.716-.187-.631-.187-.631-.838-.631-.6,0-1.2.018-1.793-.008a.366.366,0,0,0-.447.349,6.988,6.988,0,0,1-.233.816c-.024.072-.1.177-.157.178C948.039,19.673,947.364,19.669,946.651,19.669Zm4.918-2.879-.93-3.238-.077.013-.9,3.226Z" transform="translate(-835.074 9.566)" fill="#869ab8"></path><path d="M877.051,19.681c-.662,0-1.3.007-1.936-.009-.073,0-.177-.115-.207-.2-.107-.294-.2-.6-.276-.9a.269.269,0,0,0-.309-.245q-1.155.018-2.31,0a.266.266,0,0,0-.309.241c-.075.3-.16.607-.259.9-.027.079-.118.193-.181.195-.686.014-1.372.009-2.1.009.189-.639.364-1.239.544-1.838.44-1.463.877-2.927,1.325-4.388.144-.47.309-.934.482-1.393a.314.314,0,0,1,.228-.17q1.4-.017,2.8,0a.308.308,0,0,1,.231.164q1.151,3.743,2.282,7.492A.633.633,0,0,1,877.051,19.681ZM873.2,13.549l-.069,0-.908,3.241h1.9Z" transform="translate(-786.224 9.556)" fill="#869ab8"></path><path d="M770.855,49.53c.46-.863.886-1.665,1.315-2.466.917-1.713,1.837-3.424,2.747-5.141a.407.407,0,0,1,.419-.257c1.347.013,2.694,0,4.041.022a2.991,2.991,0,0,1,.888.168.766.766,0,0,1,.568.835,3.229,3.229,0,0,1-.166.856,10.141,10.141,0,0,1-1.431,2.561,3.68,3.68,0,0,1-3.144,1.41c-.587,0-1.175.012-1.762-.005a.413.413,0,0,0-.441.27c-.257.516-.545,1.017-.806,1.531a.359.359,0,0,1-.377.221C772.11,49.522,771.514,49.53,770.855,49.53Zm4.085-3.719c.644,0,1.231.009,1.816,0a.89.89,0,0,0,.772-.416c.3-.482.582-.971.832-1.477.169-.344.058-.517-.335-.542-.534-.033-1.072-.024-1.608-.022a.262.262,0,0,0-.192.111C775.8,44.228,775.381,45,774.94,45.811Z" transform="translate(-724.253 -9.219)" fill="#869ab8"></path><path d="M922.351,46.225h2.084c.247,1.683-.371,2.711-1.836,2.939a10.147,10.147,0,0,1-3.12-.042,2.114,2.114,0,0,1-1.839-1.968,33.878,33.878,0,0,1,0-3.7,2.2,2.2,0,0,1,1.878-1.986,10.487,10.487,0,0,1,3.33-.045,1.629,1.629,0,0,1,1.531,1.489c.065.336.07.683.1,1.026.017.174-.039.258-.235.255-.567-.01-1.135-.007-1.7,0-.149,0-.211-.044-.224-.205-.05-.609-.239-.792-.857-.826a5.829,5.829,0,0,0-.88.014c-.467.045-.742.274-.757.723-.032.92-.028,1.842,0,2.762a.679.679,0,0,0,.668.706,5.1,5.1,0,0,0,1.148.027c.474-.044.647-.262.686-.736C922.339,46.514,922.343,46.375,922.351,46.225Z" transform="translate(-816.753 -8.995)" fill="#869ab8"></path><path d="M923.926,14.609h-2.1c-.02-.034-.038-.05-.039-.068-.065-.739-.234-.913-.973-.954a4.765,4.765,0,0,0-.818.03c-.455.055-.705.264-.722.719-.033.919-.032,1.84,0,2.759a.678.678,0,0,0,.691.714,5.286,5.286,0,0,0,1.118.017c.485-.048.656-.269.689-.764.008-.12.013-.241.021-.384h2.092c.221,1.679-.381,2.846-2.158,2.955a18.368,18.368,0,0,1-2.667-.061,2.075,2.075,0,0,1-1.984-2.013c-.053-1.172-.075-2.349-.021-3.52a2.173,2.173,0,0,1,2.106-2.157,15.219,15.219,0,0,1,2.907-.036c1.189.1,1.614.58,1.8,1.765C923.917,13.928,923.907,14.255,923.926,14.609Z" transform="translate(-816.398 9.613)" fill="#869ab8"></path><path d="M699.646,46.481a4.366,4.366,0,0,1-4.03,3.026c-.737.033-1.477-.024-2.216-.04l-.03,0c-1.174-.113-1.6-.7-1.181-1.789a26.056,26.056,0,0,1,1.176-2.427c.214-.424.439-.845.688-1.25a4.752,4.752,0,0,1,4.033-2.422,18.386,18.386,0,0,1,2.426.053c.862.079,1.146.547.884,1.372a10.8,10.8,0,0,1-.536,1.253.312.312,0,0,1-.217.162c-.655.013-1.311.007-2.017.007.1-.21.2-.373.267-.547.145-.368.032-.587-.359-.615a6.175,6.175,0,0,0-1.209.024,1.49,1.49,0,0,0-1.095.838c-.439.774-.866,1.557-1.3,2.337a5.543,5.543,0,0,0-.376.714c-.133.353-.036.548.326.586a6.7,6.7,0,0,0,1.356.013,1.3,1.3,0,0,0,1.02-.866.666.666,0,0,1,.747-.436C698.541,46.508,699.078,46.481,699.646,46.481Z" transform="translate(-674.563 -9.151)" fill="#869ab8"></path><path d="M939.584,49.325V41.571h5.639v1.685h-3.5v1.4h3.287v1.45h-3.28v1.508h3.558v1.708Z" transform="translate(-830.619 -9.159)" fill="#869ab8"></path><path d="M852.01,47.636v1.7h-5.721V41.59h5.667v1.519c0,.217-.164.165-.285.165q-1.46,0-2.919,0h-.382v1.385h3.346v1.453h-3.342v1.522Z" transform="translate(-771.806 -9.171)" fill="#869ab8"></path><path d="M893.55,41.507c-.3,1.028-.58,2-.864,2.969-.44,1.506-.885,3.01-1.314,4.518a.354.354,0,0,1-.415.314c-.912-.017-1.824-.011-2.736,0-.177,0-.271-.041-.322-.225q-1.031-3.683-2.074-7.363c-.017-.057-.024-.116-.043-.206.674,0,1.331-.007,1.987.012.066,0,.157.158.185.257q.743,2.613,1.472,5.23c.041.146.085.29.153.521a4.8,4.8,0,0,0,.248-.555c.5-1.721.992-3.442,1.47-5.168a.346.346,0,0,1,.416-.306C892.308,41.518,892.905,41.507,893.55,41.507Z" transform="translate(-796.702 -9.114)" fill="#869ab8"></path><path d="M823.764,11.951v1.683h-3.456v1.51h3.2v1.712h-3.2V19.7h-2.09V11.951Z" transform="translate(-754.106 9.514)" fill="#869ab8"></path><path d="M938.964,11.929h2.1v7.76h-2.1Z" transform="translate(-830.228 9.527)" fill="#869ab8"></path><path d="M838.481,19.7h-2.049V11.943h2.049Z" transform="translate(-765.592 9.519)" fill="#869ab8"></path><path d="M910.731,49.333h-2.038V41.581h2.038Z" transform="translate(-811.146 -9.165)" fill="#869ab8"></path><path d="M743.877,49.961c-.311.581-.587,1.108-.875,1.627a.259.259,0,0,1-.192.108c-.9.007-1.8,0-2.732,0a1.158,1.158,0,0,1,.061-.207c.24-.456.479-.914.733-1.362a.352.352,0,0,1,.244-.164C742.015,49.956,742.915,49.961,743.877,49.961Z" transform="translate(-704.852 -14.447)" fill="#869ab8"></path><path d="M792.631,80.508c.285-.1.407-.021.484.231a13.685,13.685,0,0,0,.639,1.69c.195-.566.4-1.129.579-1.7.08-.258.212-.316.46-.228v2.294l-.1.036a.8.8,0,0,1-.111-.265c-.011-.536-.005-1.071-.07-1.622q-.21.589-.419,1.178a5.186,5.186,0,0,1-.187.513.323.323,0,0,1-.2.166c-.047.008-.143-.094-.169-.164-.186-.5-.36-1.011-.539-1.516a.344.344,0,0,0-.13-.181v1.853l-.084.043c-.051-.057-.145-.114-.146-.172C792.627,81.947,792.631,81.228,792.631,80.508Z" transform="translate(-737.98 -33.676)" fill="#869ab8"></path></g></g></svg>