<svg xmlns="http://www.w3.org/2000/svg" width="130" height="60" viewBox="0 0 130 60"><g transform="translate(-2035 -112)"><g transform="translate(2035 112)" fill="#fff" stroke="#707070" stroke-width="1" opacity="0"><rect width="130" height="60" stroke="none"></rect><rect x="0.5" y="0.5" width="129" height="59" fill="none"></rect></g><g transform="translate(2036 129)"><path d="M-4707.373,6264.624c0-.352.18-.779-.255-1.037h0c-.987-.026-2.024-.555-2.92.3h0q-.028,7.56-.057,15.12c0,.639.172,1.328-.917,1.318-1.057-.01-.937-.671-.94-1.326-.013-2.355-.008-4.711-.041-7.066a3.465,3.465,0,0,0-1.915-3.212,6.475,6.475,0,0,0-8.076,1.74q-.308,1.014-.614,2.028c1.4.924,2.657.726,3.414-.536a2.574,2.574,0,0,1,3.63-.476,1.285,1.285,0,0,1-.627,2.268c-1.058.28-2.158.4-3.232.628a4.111,4.111,0,0,0-3.51,3.624,4.249,4.249,0,0,0,1.786,4.448,4.451,4.451,0,0,0,5.192-.664c.246-.206.481-.422.854-.75.066,1.412.8,1.695,1.958,1.623a42.88,42.88,0,0,1,4.78,0c1.089.053,1.541-.2,1.527-1.416C-4707.4,6275.7-4707.361,6270.161-4707.373,6264.624Zm-10.159,15.525c-.992.358-1.978.408-2.539-.71a1.952,1.952,0,0,1,1.222-2.748c.964-.335,1.978-.534,3.1-.831C-4715.506,6278.5-4715.948,6279.577-4717.532,6280.149Zm9.575,1.452v.027l-.049-.008A.211.211,0,0,0-4707.957,6281.6Z" transform="translate(4834.97 -6263.125)" fill="#869ab8"></path><path d="M-6241.382,6277.519c-.19-1.19-1.153-1.838-1.989-2.544a5.022,5.022,0,0,0,1.424-5.865c-.732-1.863-2.092-2.732-4.324-2.765h0l-7.9.014h0c-.5.084-.33.485-.33.765q-.016,8.58,0,17.159c0,.285-.161.679.326.778h0l7.253.023h0c3.178.042,4.507-.832,5.542-3.644h0a5.308,5.308,0,0,0,0-3.921Zm-3.289-6.5q.006.4.011.8a2.39,2.39,0,0,1-2.7,1.856c-.548-.015-1.1.005-1.645.005-2.265,0-2.163-.006-2.3-2.215-.095-1.52.244-2.24,1.908-1.965a9.743,9.743,0,0,0,2.134,0A2.342,2.342,0,0,1-6244.671,6271.021Zm-3.021,10.981c-3.587-.069-3.515-.026-3.609-3.581-.036-1.346.4-1.712,1.644-1.568a10.524,10.524,0,0,0,2.3,0,2.727,2.727,0,0,1,3.044,1.688q-.007.756-.017,1.513C-6244.88,6281.688-6246.11,6282.032-6247.692,6282Z" transform="translate(6270.319 -6265.886)" fill="#869ab8"></path><path d="M-4911.458,6270.744c-1.161-3.626-2.433-4.564-6.187-4.564-1.757,0-3.518.064-5.272-.024-1.131-.057-1.505.259-1.491,1.441.063,5.477.08,10.955-.009,16.429-.023,1.4.6,1.506,1.668,1.434.956-.064,1.984.273,1.916-1.39a27.647,27.647,0,0,1,.1-5.722l4.283-.037c2.553.082,3.837-1.476,4.683-3.6A14.462,14.462,0,0,0-4911.458,6270.744Zm-3.387,1.712c-.08,2.28-1.113,2.857-4.746,2.788-2.536-.049-.749-2.007-1.35-2.738.08-3.13.08-3.13,2.963-3.064C-4915.652,6269.494-4914.772,6270.342-4914.845,6272.456Z" transform="translate(5023.335 -6265.702)" fill="#869ab8"></path><path d="M-5814.27,6339.627a2.159,2.159,0,0,0-1.424-.276h0l-1.637,0h0a4.741,4.741,0,0,0-3.926,2.29,9.058,9.058,0,0,0-.883,8.142,5.216,5.216,0,0,0,4.478,3.984h0a4.091,4.091,0,0,0,2.3,0h0c2.852-.512,4.673-2.668,4.968-5.877C-5810.018,6343.753-5811.435,6340.712-5814.27,6339.627Zm.438,9.209a2.515,2.515,0,0,1-2.6,2.052,2.619,2.619,0,0,1-2.68-1.959,7.828,7.828,0,0,1-.276-2.2,6.212,6.212,0,0,1,.454-2.922,2.546,2.546,0,0,1,2.487-1.526,2.459,2.459,0,0,1,2.431,1.591A7.678,7.678,0,0,1-5813.833,6348.836Z" transform="translate(5865.481 -6334.285)" fill="#869ab8"></path><path d="M-6013.018,6344.43h0l-.1-.869h0c-.668-2.936-2.216-4.485-4.911-4.913h0a4.718,4.718,0,0,0-1.963.007h0c-3.365.642-5.325,3.481-5.152,7.462.169,3.872,1.749,6.142,4.821,6.927h0a4.965,4.965,0,0,0,2.622.011h0c2.744-.506,4.078-2.324,4.59-4.906h0c.031-.289.063-.577.095-.866h0A3.723,3.723,0,0,0-6013.018,6344.43Zm-3.023,2.119c-.114,2.487-1.267,3.762-3.229,3.614-1.911-.144-2.2-1.674-2.685-3.05q0-1.263,0-2.522c.52-1.5.947-3.08,3.05-3.02C-6016.854,6341.628-6015.89,6343.281-6016.042,6346.549Zm2.9.1h0c.025-.095.055-.194.09-.3a.969.969,0,0,1-.056.358h0A.32.32,0,0,0-6013.139,6346.647Z" transform="translate(6055.274 -6333.576)" fill="#869ab8"></path><path d="M-5420.765,6343.636a1.239,1.239,0,0,1-.306.094l.306-.094c-.326-.023-.656-.02-.976-.073-1.456-.242-1.945.268-1.876,1.807.137,3.151.041,6.313.041,9.471,0,2.785,0,2.785,2.813,2.554h0c.48-.109.312-.5.313-.784q.015-6.1,0-12.2C-5420.453,6344.132-5420.272,6343.734-5420.765,6343.636Z" transform="translate(5491.34 -6338.224)" fill="#869ab8"></path><path d="M-6364.5,6401.474a1.578,1.578,0,0,0-1.588,1.693,1.53,1.53,0,0,0,1.722,1.7,1.562,1.562,0,0,0,1.621-1.67A1.635,1.635,0,0,0-6364.5,6401.474Z" transform="translate(6374.899 -6392.569)" fill="#869ab8"></path><path d="M-6364.77,6332.122a1.588,1.588,0,0,0-1.663,1.655,1.605,1.605,0,0,0,1.694,1.752,1.6,1.6,0,0,0,1.671-1.647A1.581,1.581,0,0,0-6364.77,6332.122Z" transform="translate(6375.224 -6327.551)" fill="#869ab8"></path><path d="M-6504.334,6335.792a1.752,1.752,0,0,0,1.771-1.645c-.164-.918-.622-1.672-1.637-1.729a1.592,1.592,0,0,0-1.792,1.537A1.613,1.613,0,0,0-6504.334,6335.792Z" transform="translate(6506.064 -6327.827)" fill="#869ab8"></path><path d="M-6364.917,6471.177c-1.037.021-1.552.7-1.61,1.846a1.553,1.553,0,0,0,1.675,1.517,1.54,1.54,0,0,0,1.694-1.62A1.6,1.6,0,0,0-6364.917,6471.177Z" transform="translate(6375.312 -6457.916)" fill="#869ab8"></path><path d="M-6433.373,6335.7a1.6,1.6,0,0,0,1.651-1.825,1.545,1.545,0,0,0-1.747-1.547,1.572,1.572,0,0,0-1.547,1.771A1.51,1.51,0,0,0-6433.373,6335.7Z" transform="translate(6439.52 -6327.738)" fill="#869ab8"></path><path d="M-6434.1,6470.663a1.623,1.623,0,0,0-1.743,1.631,1.528,1.528,0,0,0,1.538,1.76,1.581,1.581,0,0,0,1.823-1.664A1.682,1.682,0,0,0-6434.1,6470.663Z" transform="translate(6440.3 -6457.434)" fill="#869ab8"></path><path d="M-6504.374,6404.792a1.6,1.6,0,0,0,1.664-1.663,1.665,1.665,0,0,0-1.715-1.75,1.67,1.67,0,0,0-1.706,1.684A1.613,1.613,0,0,0-6504.374,6404.792Z" transform="translate(6506.19 -6392.48)" fill="#869ab8"></path><path d="M-6434.134,6401.675a1.556,1.556,0,0,0-1.69,1.593,1.564,1.564,0,0,0,1.643,1.8c1.038.028,1.509-.687,1.821-1.754C-6432.779,6402.669-6432.941,6401.665-6434.134,6401.675Z" transform="translate(6440.281 -6392.758)" fill="#869ab8"></path><path d="M-5334.585,6341.271h0a3.475,3.475,0,0,0-2.75-3.231,3.67,3.67,0,0,0-4.324,1.44c-.183.281-.337.572-.75.371.468-1.2.108-1.746-1.216-1.577-.486.062-.977.074-1.466.108h0c-.509.435-.229,1.011-.232,1.512q-.043,5.078,0,10.158c.007.666-.271,1.387.228,2,.985.063,2.01.548,2.917-.263h0c.021-2.292.034-4.586.065-6.879a6.3,6.3,0,0,1,.2-2.265,2.354,2.354,0,0,1,2.818-1.675c1.266.21,1.583,1.175,1.577,2.322-.011,2.514-.017,5.026.021,7.541.005.421-.311.983.313,1.274.652.025,1.3.037,1.954.081.614.042.889-.175.864-.83C-5334.5,6348-5334.139,6344.627-5334.585,6341.271Zm-9.933-2.775a1.535,1.535,0,0,1-.574-.114C-5344.9,6338.425-5344.71,6338.459-5344.518,6338.5Z" transform="translate(5418.003 -6332.934)" fill="#869ab8"></path><path d="M-5423.247,6259.426a5.121,5.121,0,0,0,.035,2.891,6.232,6.232,0,0,0,2.622.064h0a2.763,2.763,0,0,0,.12-2.949C-5420.962,6258.78-5422.3,6258.935-5423.247,6259.426Z" transform="translate(5491.166 -6258.999)" fill="#869ab8"></path><path d="M-5138.771,6341.356c.035-2.689.007-2.689-2.72-2.443h0c-.615.343-.032,1.02-.471,1.5a3.707,3.707,0,0,0-3.129-1.969c-2.574-.04-4.167,1.435-4.942,4.688h0q-.055.595-.111,1.191h0a3.88,3.88,0,0,0,.024,2.816h0c.026.3.051.6.077.907h0c.411,2.139,1.235,3.952,3.594,4.567h0a3.081,3.081,0,0,0,2.615-.022h0c.886-.1,1.174-1,1.849-1.479.37,3.31.039,4.009-2.221,4.813h0l-.516-.014h0a2.941,2.941,0,0,1-2.055-1.306h0c-.669-.534-1.445-.139-2.164-.246-1.207-.182-1.31.35-.778,1.256h0c1,2.247,3.225,3.292,6.12,2.884,2.987-.421,4.336-1.722,4.7-4.528h0C-5138.6,6349.769-5138.826,6345.561-5138.771,6341.356Zm-11.2,3.365.013.011a.3.3,0,0,1-.1.1A.463.463,0,0,0-5149.975,6344.722Zm7.926,2.967a2.469,2.469,0,0,1-2.372,2.09c-1.385.049-2.023-.773-2.437-1.972a6.712,6.712,0,0,1-.224-2.253,8.725,8.725,0,0,1,0-.979c.2-1.771,1.183-3,2.428-3.067,1.307-.075,2.533,1.159,2.745,2.944A7.837,7.837,0,0,1-5142.049,6347.688Z" transform="translate(5235.19 -6333.477)" fill="#869ab8"></path><path d="M-5596.167,6282.646c-1.119-2.271-2.187-4.57-3.384-6.8a1.515,1.515,0,0,1,.209-1.981c1-1.2,1.918-2.479,2.87-3.726.295-.234.8-.581-.019-.658a25.037,25.037,0,0,0-2.951.043h0c-1.634,1.361-2.472,3.409-4.282,5.108v-9.757a2.9,2.9,0,0,0-3.008,0h0q-.209,9.048,0,18.1a2.6,2.6,0,0,0,3.011,0h0a19.353,19.353,0,0,0,.064-2.435,2.806,2.806,0,0,1,1.388-3.006q1.406,2.741,2.806,5.475c1.1.745,2.323.259,3.485.275.2,0-.028-.434-.189-.633Z" transform="translate(5663.104 -6264.115)" fill="#869ab8"></path><path d="M-6503.852,6471.265a1.485,1.485,0,0,0-2.493-.613,1.453,1.453,0,0,0-.333,2.262c.771.918,1.674,1.143,2.569.092a1.176,1.176,0,0,0,.257-1.741Z" transform="translate(6507.081 -6457.005)" fill="#869ab8"></path></g></g></svg>