<svg xmlns="http://www.w3.org/2000/svg" width="130" height="60" viewBox="0 0 130 60"><g transform="translate(-2785 -112)"><g transform="translate(2785 112)" fill="#fff" stroke="#707070" stroke-width="1" opacity="0"><rect width="130" height="60" stroke="none"></rect><rect x="0.5" y="0.5" width="129" height="59" fill="none"></rect></g><g transform="translate(2786.936 125.031)"><path d="M1010.2,4754.963c-.545-1.75-.954-3.364-1.363-5.18h-.182c-.363,1.85-.817,3.532-1.317,5.213l-1.908,6.356h6.723Zm0,0c-.545-1.75-.954-3.364-1.363-5.18h-.182c-.363,1.85-.817,3.532-1.317,5.213l-1.908,6.356h6.723Zm-98.667-12.585-8.372,8.372v26.089H1029.3v-34.461Zm81.924,28.021v-4.068l3.577,1.939Zm-7.322,3.864H905.567v-21.708l1.076-1.076h5.623v-5.818l.929-.93h84.972Zm28.925-3.864-2.453-7.8h-7.586l-2.453,7.8h-1.908l7.223-22.667h1.863l7.314,22.667Zm7.45,0h-1.953v-16.143h1.953Zm-1.044-19.035a1.26,1.26,0,0,1-1.409-1.245,1.294,1.294,0,0,1,1.454-1.245c1,0,1.5.5,1.5,1.245C1023.015,4750.893,1022.515,4751.364,1021.471,4751.364Zm-12.81-1.581c-.363,1.85-.817,3.532-1.317,5.213l-1.908,6.356h6.723l-1.953-6.389c-.545-1.75-.954-3.364-1.363-5.18Zm1.544,5.18c-.545-1.75-.954-3.364-1.363-5.18h-.182c-.363,1.85-.817,3.532-1.317,5.213l-1.908,6.356h6.723Zm0,0c-.545-1.75-.954-3.364-1.363-5.18h-.182c-.363,1.85-.817,3.532-1.317,5.213l-1.908,6.356h6.723Z" transform="translate(-903.166 -4742.377)" fill="#869ab8"></path><path d="M1018.694,4825.167h-5.274l-7.274,22.667h4.281l1.934-6.406h7.2l2.051,6.406h4.446Zm-5.657,13.131,1.751-5.6c.4-1.348.748-2.918,1.077-4.247h.074c.342,1.315.717,2.857,1.152,4.262l1.786,5.585Z" transform="translate(-999.486 -4819.813)" fill="#869ab8"></path><path d="M1366.631,4923.794v9.726h-4.143v-9.237c0-2.35-.862-4.139-3.123-4.139a3.436,3.436,0,0,0-3.221,2.429,4.065,4.065,0,0,0-.191,1.314v9.633h-4.143v-11.5c0-1.892-.06-3.45-.135-4.869h3.617l.2,2.459h.1a5.959,5.959,0,0,1,5.218-2.828C1363.666,4916.778,1366.631,4918.615,1366.631,4923.794Z" transform="translate(-1322.668 -4905.499)" fill="#869ab8"></path><path d="M1659.911,4923.794v9.726h-4.143v-9.237c0-2.35-.862-4.139-3.124-4.139a3.438,3.438,0,0,0-3.221,2.429,4.062,4.062,0,0,0-.19,1.314v9.633h-4.143v-11.5c0-1.892-.06-3.45-.134-4.869h3.617l.2,2.459h.1a5.959,5.959,0,0,1,5.218-2.828C1656.945,4916.778,1659.911,4918.615,1659.911,4923.794Z" transform="translate(-1596.981 -4905.499)" fill="#869ab8"></path><path d="M1932.548,4916.778c-4.934,0-8.472,3.307-8.472,8.677,0,5.247,3.575,8.436,8.193,8.436,4.187,0,8.411-2.7,8.411-8.718C1940.68,4920.209,1937.42,4916.778,1932.548,4916.778Zm-.145,14.1c-2.5,0-4.071-2.381-4.071-5.531,0-2.73,1.192-5.566,4.1-5.566,2.857,0,4,2.939,4,5.511C1936.425,4928.59,1934.776,4930.882,1932.4,4930.882Z" transform="translate(-1858.049 -4905.499)" fill="#869ab8"></path><path d="M1018.694,4825.167h-5.274l-7.274,22.667h4.281l1.934-6.406h7.2l2.051,6.406h4.446Zm-5.657,13.131,1.751-5.6c.4-1.348.748-2.918,1.077-4.247h.074c.342,1.315.717,2.857,1.152,4.262l1.786,5.585Z" transform="translate(-999.486 -4819.813)" fill="#869ab8"></path><path d="M1366.631,4923.794v9.726h-4.143v-9.237c0-2.35-.862-4.139-3.123-4.139a3.436,3.436,0,0,0-3.221,2.429,4.065,4.065,0,0,0-.191,1.314v9.633h-4.143v-11.5c0-1.892-.06-3.45-.135-4.869h3.617l.2,2.459h.1a5.959,5.959,0,0,1,5.218-2.828C1363.666,4916.778,1366.631,4918.615,1366.631,4923.794Z" transform="translate(-1322.668 -4905.499)" fill="#869ab8"></path><path d="M1659.911,4923.794v9.726h-4.143v-9.237c0-2.35-.862-4.139-3.124-4.139a3.438,3.438,0,0,0-3.221,2.429,4.062,4.062,0,0,0-.19,1.314v9.633h-4.143v-11.5c0-1.892-.06-3.45-.134-4.869h3.617l.2,2.459h.1a5.959,5.959,0,0,1,5.218-2.828C1656.945,4916.778,1659.911,4918.615,1659.911,4923.794Z" transform="translate(-1596.981 -4905.499)" fill="#869ab8"></path><path d="M1932.548,4916.778c-4.934,0-8.472,3.307-8.472,8.677,0,5.247,3.575,8.436,8.193,8.436,4.187,0,8.411-2.7,8.411-8.718C1940.68,4920.209,1937.42,4916.778,1932.548,4916.778Zm-.145,14.1c-2.5,0-4.071-2.381-4.071-5.531,0-2.73,1.192-5.566,4.1-5.566,2.857,0,4,2.939,4,5.511C1936.425,4928.59,1934.776,4930.882,1932.4,4930.882Z" transform="translate(-1858.049 -4905.499)" fill="#869ab8"></path><g transform="translate(6.66 5.354)"><path d="M1018.694,4825.167h-5.274l-7.274,22.667h4.281l1.934-6.406h7.2l2.051,6.406h4.446Zm-5.657,13.131,1.751-5.6c.4-1.348.748-2.918,1.077-4.247h.074c.342,1.315.717,2.857,1.152,4.262l1.786,5.585Z" transform="translate(-1006.146 -4825.167)" fill="#869ab8"></path><path d="M1360.811,4916.778a5.959,5.959,0,0,0-5.218,2.828h-.1l-.2-2.459h-3.617c.074,1.419.135,2.978.135,4.869v11.5h4.143v-9.633a4.065,4.065,0,0,1,.191-1.314,3.436,3.436,0,0,1,3.221-2.429c2.261,0,3.123,1.79,3.123,4.139v9.237h4.143v-9.726C1366.631,4918.615,1363.666,4916.778,1360.811,4916.778Z" transform="translate(-1329.329 -4910.854)" fill="#869ab8"></path><path d="M1654.091,4916.778a5.959,5.959,0,0,0-5.218,2.828h-.1l-.2-2.459h-3.617c.074,1.419.134,2.978.134,4.869v11.5h4.143v-9.633a4.062,4.062,0,0,1,.19-1.314,3.438,3.438,0,0,1,3.221-2.429c2.262,0,3.124,1.79,3.124,4.139v9.237h4.143v-9.726C1659.911,4918.615,1656.945,4916.778,1654.091,4916.778Z" transform="translate(-1603.641 -4910.854)" fill="#869ab8"></path><path d="M1932.548,4916.778c-4.934,0-8.472,3.307-8.472,8.677,0,5.247,3.575,8.436,8.193,8.436,4.187,0,8.411-2.7,8.411-8.718C1940.68,4920.209,1937.42,4916.778,1932.548,4916.778Zm-.145,14.1c-2.5,0-4.071-2.381-4.071-5.531,0-2.73,1.192-5.566,4.1-5.566,2.857,0,4,2.939,4,5.511C1936.425,4928.59,1934.776,4930.882,1932.4,4930.882Z" transform="translate(-1864.709 -4910.854)" fill="#869ab8"></path></g></g></g></svg>