<svg xmlns="http://www.w3.org/2000/svg" width="130" height="60" viewBox="0 0 130 60"><g transform="translate(-2485 -192)"><g transform="translate(2485 192)" fill="#fff" stroke="#707070" stroke-width="1" opacity="0"><rect width="130" height="60" stroke="none"></rect><rect x="0.5" y="0.5" width="129" height="59" fill="none"></rect></g><g transform="translate(2486 211)"><path d="M4859.49,265.181c-2.08,1.724-4.267,1.73-5.8.09a4.325,4.325,0,0,1,.033-5.663c1.512-1.6,3.755-1.606,5.705.025.3-.3-.231-1.115.717-1.065,1.768.093,1.4-.107,1.422,1.384.024,1.723.018,3.447,0,5.17-.026,3.122-1.3,4.486-4.4,4.657a7.844,7.844,0,0,1-3.488-.671c-.638-.268-.569-.6-.284-1.073.242-.4.282-.989,1.033-.513a4.374,4.374,0,0,0,2.727.566C4858.862,267.955,4859.625,267.013,4859.49,265.181ZM4857.1,260.1a2.348,2.348,0,1,0-.061,4.7,2.352,2.352,0,1,0,.061-4.7Z" transform="translate(-4786.73 -253.917)" fill="#869ab8"></path><path d="M5444.339,265.278c-2.426,1.6-4.462,1.55-5.865-.148a4.355,4.355,0,0,1,.189-5.6c1.5-1.53,3.638-1.525,5.6.015.233-.9.851-1.21,1.857-.975a.392.392,0,0,1,.353.453c-.02,2.38.128,4.776-.1,7.138-.293,3.094-2.41,3.59-4.714,3.6a7.313,7.313,0,0,1-3.108-.692c-.555-.256-.582-.544-.276-.993.247-.359.226-1.038,1.017-.583a4.553,4.553,0,0,0,2.911.556A2.189,2.189,0,0,0,5444.339,265.278Zm.071-2.827a2.373,2.373,0,0,0-2.4-2.372,2.348,2.348,0,0,0-.048,4.7A2.382,2.382,0,0,0,5444.411,262.451Z" transform="translate(-5332.55 -253.893)" fill="#869ab8"></path><path d="M4317.47,221.88a5.687,5.687,0,0,1,3.235-5.417,5.993,5.993,0,0,1,6.417.592c.284.2.983.456.359.959-.432.348-.494,1.542-1.586.679a3.716,3.716,0,0,0-4.927-.035,4.3,4.3,0,0,0-.729,5.253,3.772,3.772,0,0,0,5.59.944c.265-.188.5-.671.83-.488a3.673,3.673,0,0,1,1.067,1.045c.238.322-.173.481-.35.653a5.948,5.948,0,0,1-6.412,1.064A5.66,5.66,0,0,1,4317.47,221.88Z" transform="translate(-4287.301 -214.154)" fill="#869ab8"></path><path d="M4494.966,216.375a3.556,3.556,0,0,1,2.766-1.285,2.794,2.794,0,0,1,2.815,2.416,38.042,38.042,0,0,1,.124,5.821c0,.987-.84.443-1.3.553-.481.114-.745-.062-.727-.64.04-1.253.013-2.509.013-3.763a4.12,4.12,0,0,0-.139-1.208,1.583,1.583,0,0,0-1.8-1.3,1.625,1.625,0,0,0-1.659,1.488c-.092,1.5-.122,3.009-.067,4.511.032.872-.36.952-1.068.941-.66-.011-1.016-.056-1-.894q.083-5.079,0-10.16c-.017-.881.4-.869,1.021-.857.594.011,1.122-.077,1.049.838C4494.9,213.926,4494.966,215.026,4494.966,216.375Z" transform="translate(-4451.025 -210.606)" fill="#869ab8"></path><path d="M5011.968,263.589c-.852,0-1.7.015-2.556,0-.526-.012-.567.165-.379.614.622,1.484,2.458,1.891,3.993.831.335-.232.547-.42.953-.068.833.721.854.814-.05,1.486a4.484,4.484,0,0,1-6.854-5.3,4.18,4.18,0,0,1,4.246-2.8,4.324,4.324,0,0,1,3.816,4.836c-.085.4-.32.4-.613.4Zm-1.059-1.445c.534,0,1.069-.013,1.6,0,.465.015.625-.114.446-.6a2.05,2.05,0,0,0-3.82-.368c-.434.786-.331.956.547.965C5010.093,262.147,5010.5,262.144,5010.909,262.144Z" transform="translate(-4930.568 -253.855)" fill="#869ab8"></path><path d="M4632.416,266.781a4.032,4.032,0,0,1-3.37.8,2.631,2.631,0,0,1-2.215-2.25,2.558,2.558,0,0,1,1.788-2.858,5.818,5.818,0,0,1,3.44-.093c.621.142.556-.127.478-.513-.184-.9-.871-1.166-1.665-1.25a4.541,4.541,0,0,0-2.219.338c-.7.286-.709-.288-.843-.659s-.437-.79.271-1.029a7.062,7.062,0,0,1,4.262-.306,3.055,3.055,0,0,1,2.251,3.017c.021,1.506.027,3.012-.012,4.517-.008.355.335.92-.416,1.031C4633.151,267.677,4632.737,267.524,4632.416,266.781Zm-1.517-3.193a3.253,3.253,0,0,0-1.35.2,1.131,1.131,0,0,0-.674,1.123,1.05,1.05,0,0,0,.675,1.019,2.628,2.628,0,0,0,2.631-.438,1.418,1.418,0,0,0,.455-1.444c-.166-.439-.717-.393-1.144-.431C4631.3,263.6,4631.117,263.6,4630.9,263.588Z" transform="translate(-4575.979 -254.239)" fill="#869ab8"></path><path d="M5289.8,258.377a4.542,4.542,0,0,1,4.622,4.474,4.633,4.633,0,0,1-4.619,4.52,4.5,4.5,0,1,1,0-8.995Zm.091,7.158a2.53,2.53,0,0,0,2.483-2.638,2.562,2.562,0,0,0-2.647-2.683,2.459,2.459,0,0,0-2.465,2.707A2.62,2.62,0,0,0,5289.892,265.535Z" transform="translate(-5190.376 -253.887)" fill="#869ab8"></path><path d="M5155.095,224.487c0-1.629.044-3.26-.019-4.887-.032-.883.509-.772,1.037-.748.509.023,1.159-.257,1.142.732-.048,2.6.01,5.2-.033,7.8-.012.746.212.981.961.952,1.417-.054,2.839.027,4.256-.031.9-.037.713.536.738,1.046.027.545.027.957-.754.94-2.174-.046-4.351-.034-6.527,0-.628.009-.822-.213-.811-.819C5155.115,227.808,5155.095,226.147,5155.095,224.487Z" transform="translate(-5068.95 -216.983)" fill="#869ab8"></path><path d="M5658.184,258.324a4.4,4.4,0,0,1,2.863,1.026c.426.348.464.678.038.98-.368.259-.487,1.2-1.276.464a2.347,2.347,0,0,0-2.8-.379,2.517,2.517,0,0,0-1.312,2.7,2.41,2.41,0,0,0,1.6,2.227,2.38,2.38,0,0,0,2.551-.468c.845-.761,1.079.167,1.457.5.526.469-.1.7-.357.918a4.485,4.485,0,0,1-7.123-4.861A4.437,4.437,0,0,1,5658.184,258.324Z" transform="translate(-5534.182 -253.837)" fill="#869ab8"></path><path d="M4771.876,260.114a3.418,3.418,0,0,1,2.23-1.736c.5-.109.792-.008.727.588a6.99,6.99,0,0,0,0,1.031c.013.326-.062.531-.447.559-1.94.138-2.478,1.629-2.563,3.229a27.032,27.032,0,0,0,0,2.72c.027.6-.289.722-.749.622s-1.275.421-1.285-.573c-.027-2.5,0-5-.013-7.507,0-.417.187-.506.573-.53C4771.745,258.43,4771.744,258.415,4771.876,260.114Z" transform="translate(-4709.387 -253.852)" fill="#869ab8"></path><path d="M5601.856,265.249c0,1.188-.033,2.377.01,3.563.035.951-.644.627-1.1.66-.489.035-1,.141-.989-.691q.063-3.609,0-7.22c-.018-1.022.687-.635,1.164-.691.525-.062.981-.077.936.723C5601.807,262.808,5601.856,264.03,5601.856,265.249Z" transform="translate(-5483.941 -256.188)" fill="#869ab8"></path><path d="M4048.188,305.425c-.039.061-.067.157-.132.2-.755.5-1.515.994-2.273,1.49-.212.138-.341.039-.455-.142s-.244-.362-.366-.543c-1.441-2.156-1.44-2.154.876-3.408.234-.127.431-.261.638.026.533.732,1.072,1.459,1.605,2.189A1.73,1.73,0,0,1,4048.188,305.425Z" transform="translate(-4032.073 -295.415)" fill="#869ab8"></path><path d="M4093.388,269.9c-.309.023-2.18-2.494-1.985-2.673.644-.6,1.332-1.145,2.017-1.695.16-.128.282.056.385.159.154.156.295.326.438.493,1.583,1.85,1.5,2.3-.631,3.568C4093.531,269.8,4093.454,269.856,4093.388,269.9Z" transform="translate(-4076.322 -260.524)" fill="#869ab8"></path><path d="M3991.9,337.97c-.083-.024-.216-.023-.249-.079-.5-.861-.985-1.73-1.473-2.6-.014-.024-.026-.074-.015-.084a9.073,9.073,0,0,1,2.3-1.18c.432-.2.477.372.671.615a3.377,3.377,0,0,1,.4.632c.25.517,1.056,1.108.763,1.462A6.031,6.031,0,0,1,3991.9,337.97Z" transform="translate(-3981.859 -324.45)" fill="#869ab8"></path><path d="M4081.92,357.6a2.156,2.156,0,0,1-.226.237c-.172.136-.353.259-.534.384-2,1.39-2.138,1.349-3.4-.782-.193-.326-.173-.484.149-.655.275-.147.521-.349.8-.491.548-.279,1.123-1.121,1.544-.859a7.308,7.308,0,0,1,1.568,1.949A1.418,1.418,0,0,1,4081.92,357.6Z" transform="translate(-4063.488 -344.413)" fill="#869ab8"></path><path d="M4030.6,390.907c-.01.073,0,.116-.02.133a8.041,8.041,0,0,1-2.231,1.153c-.471.23-.614-.159-.819-.4-1.527-1.8-1.514-1.777.633-2.786.6-.282.95-.263,1.3.327C4029.8,389.9,4030.231,390.4,4030.6,390.907Z" transform="translate(-4015.73 -375.625)" fill="#869ab8"></path><path d="M3947.349,360.374c-.469.078-.645,0-.758-.235-.136-.28-.292-.551-.432-.83-.854-1.7-.848-1.685.986-2.232.507-.151.756-.027.938.428.114.288.295.551.414.838.207.5.916,1.063.634,1.426C3948.711,360.306,3947.815,360.217,3947.349,360.374Z" transform="translate(-3940.282 -345.937)" fill="#869ab8"></path><path d="M4176.66,269.973a11.155,11.155,0,0,1,1.414,1.858.5.5,0,0,1-.03.672c-.492.629-.865,1.759-1.529,1.718-.526-.032-.979-1.155-1.475-1.785-.212-.27-.056-.436.116-.638C4175.658,271.207,4176.144,270.6,4176.66,269.973Z" transform="translate(-4154.291 -264.709)" fill="#869ab8"></path><path d="M3970.38,414.7c.308-.068.457-.1.6-.134,2.2-.518,2.195-.512,3.445,1.375.232.349.2.474-.2.552a6.909,6.909,0,0,0-1,.254,1.385,1.385,0,0,1-1.829-.644C3971.12,415.659,3970.784,415.252,3970.38,414.7Z" transform="translate(-3963.398 -399.37)" fill="#869ab8"></path><path d="M4115.309,398.85a5.8,5.8,0,0,1,1.15,1.443c.268.424-.242.5-.449.664-.391.313-.845.549-1.245.851a.709.709,0,0,1-1.118-.112c-1.014-1.079-1.036-1.056.208-1.868C4114.329,399.519,4114.794,399.2,4115.309,398.85Z" transform="translate(-4096.4 -384.976)" fill="#869ab8"></path><path d="M4165.326,361.11c-.011.279-.2.412-.349.567a6.417,6.417,0,0,1-.666.657c-.355.277-.683.953-1.071.741-.47-.257-.746-.886-1.07-1.377-.172-.26.118-.374.265-.513.341-.321.673-.655,1.041-.944.3-.237.546-.857.893-.657C4164.9,359.89,4165.044,360.593,4165.326,361.11Z" transform="translate(-4142.326 -348.297)" fill="#869ab8"></path><path d="M4170.953,194.921c-.121-.112-.235-.21-.342-.317-.265-.266-.522-.54-.79-.8-1.055-1.046-1.053-1.255-.125-2.421.223-.282.383-.263.6-.056.5.472,1.01.936,1.5,1.421.443.44.018.811-.153,1.176A1.982,1.982,0,0,1,4170.953,194.921Z" transform="translate(-4148.763 -191.166)" fill="#869ab8"></path><path d="M4057.19,436.319c.395-.165.711-.295,1.025-.43,1.75-.754,1.75-.755,3.064.758C4059.255,438.078,4058.544,438.033,4057.19,436.319Z" transform="translate(-4044.408 -419.079)" fill="#869ab8"></path><path d="M3908.721,370.832c-1.978.379-2.843-.28-3.06-2.306-.012-.112-.036-.27.024-.335a2.257,2.257,0,0,1,1.948.271C3908,369.246,3908.357,370.038,3908.721,370.832Z" transform="translate(-3902.988 -356.252)" fill="#869ab8"></path><path d="M5502.522,476.838c.354-.522.655-.961.951-1.4.126-.191.259-.371.525-.294.248.072.188.294.189.468q.01,1.27,0,2.54c0,.181.031.417-.237.426-.316.01-.312-.245-.313-.467,0-.563,0-1.127,0-1.695-.092.006-.176-.012-.2.017-.948,1.2-.947,1.205-2.094-.209,0,.764,0,1.366,0,1.967,0,.2-.053.389-.311.362-.186-.019-.256-.168-.257-.336q0-1.364,0-2.728c0-.165.048-.311.237-.353a.445.445,0,0,1,.486.212C5501.821,475.805,5502.135,476.272,5502.522,476.838Z" transform="translate(-5391.556 -456.151)" fill="#869ab8"></path><path d="M5665.913,476.037c0,.872,0,1.495,0,2.117,0,.182.021.4-.241.429-.241.024-.324-.141-.324-.353q0-1.359,0-2.718c0-.162.038-.317.222-.365.26-.068.406.1.547.277l1.583,2a5.8,5.8,0,0,0,.153-1.861c.02-.186.018-.409.274-.41s.247.232.248.41q.007,1.312,0,2.625c0,.147.039.33-.162.392-.219.067-.348-.077-.468-.228Z" transform="translate(-5545.131 -456.161)" fill="#869ab8"></path><path d="M5044.369,476.525a1.816,1.816,0,0,1-1.849,1.839,1.88,1.88,0,0,1-1.8-1.816,1.773,1.773,0,0,1,1.875-1.781A1.682,1.682,0,0,1,5044.369,476.525Zm-.561.161c0-.924-.572-1.53-1.289-1.455a1.19,1.19,0,0,0-1.209,1.273,1.159,1.159,0,0,0,1.284,1.265C5043.337,477.706,5043.823,477.339,5043.809,476.686Z" transform="translate(-4962.235 -455.822)" fill="#869ab8"></path><path d="M5440.294,476.532a1.792,1.792,0,1,1-3.582-.014,1.7,1.7,0,0,1,1.807-1.741A1.67,1.67,0,0,1,5440.294,476.532Zm-1.789,1.256a1.316,1.316,0,0,0,1.3-1.241,1.3,1.3,0,1,0-2.59-.015A1.33,1.33,0,0,0,5438.506,477.788Z" transform="translate(-5331.773 -455.831)" fill="#869ab8"></path><path d="M4007.982,456.43c1.448-.532,2.889-.916,3.866.779A2.657,2.657,0,0,1,4007.982,456.43Z" transform="translate(-3998.488 -438.288)" fill="#869ab8"></path><path d="M3930.859,422.089l-.515-.97c1.994-.8,2.651.746,3.589,2.019-1,.1-1.922.292-2.6-.628-.073-.1-.176-.177-.3-.055l.012.016c.185-.252,0-.324-.194-.393Z" transform="translate(-3926.037 -405.552)" fill="#869ab8"></path><path d="M3868.911,357.9c-1.532-.149-2.578-1.326-3.045-3.522.364.747,1.076.743,1.714.889a.555.555,0,0,1,.462.391C3868.313,356.409,3868.615,357.145,3868.911,357.9Z" transform="translate(-3865.866 -343.479)" fill="#869ab8"></path><path d="M5248.8,477.7c.045.255,0,.367-.141.4-.186.044-.279-.093-.38-.216a1.362,1.362,0,0,0-2.334,0c-.125.16-.26.3-.459.184-.183-.11-.056-.267.008-.407.416-.909.817-1.823,1.242-2.727.139-.3.491-.487.66-.174C5247.935,475.748,5248.373,476.786,5248.8,477.7Zm-2.323-1c.494-.046.859.1,1.22-.159-.191-.395-.352-.732-.579-1.2C5246.877,475.85,5246.71,476.207,5246.478,476.7Z" transform="translate(-5153.234 -455.667)" fill="#869ab8"></path><path d="M5148.07,477.552c.186-.339-.339-1.129.3-1.155.464-.019.182.784.235,1.215.088.705-.2,1.678.965,1.654,1.1-.023.926-.939.979-1.681.03-.422-.249-1.193.231-1.194.56,0,.224.754.281,1.171a3.371,3.371,0,0,1-.062,1.021,1.376,1.376,0,0,1-1.547,1.289,1.45,1.45,0,0,1-1.378-1.494C5148.059,478.129,5148.07,477.878,5148.07,477.552Z" transform="translate(-5062.386 -457.337)" fill="#869ab8"></path><path d="M4917.163,477.655c.064.278.019.409-.124.413-.1,0-.274-.077-.3-.155-.235-.775-.863-.638-1.451-.68a.817.817,0,0,0-.974.637.293.293,0,0,1-.452.177c-.2-.115-.046-.272.013-.4.413-.91.821-1.821,1.246-2.725.14-.3.488-.49.656-.181C4916.313,475.725,4916.749,476.763,4917.163,477.655Zm-1.031-1c-.214-.464-.389-.844-.585-1.268a3.259,3.259,0,0,0-.617,1.268Z" transform="translate(-4843.763 -455.649)" fill="#869ab8"></path><path d="M5608.137,477.873c-.056.08-.094.2-.155.213-.2.042-.326-.061-.452-.237a1.366,1.366,0,0,0-2.293-.043c-.11.147-.206.371-.431.265s-.124-.328-.049-.491c.405-.88.826-1.753,1.229-2.633.147-.321.454-.51.627-.2C5607.169,475.757,5607.63,476.818,5608.137,477.873Zm-1.165-1.221a3.2,3.2,0,0,0-.647-1.22,3.319,3.319,0,0,0-.494,1.22Z" transform="translate(-5488.505 -455.656)" fill="#869ab8"></path><path d="M4996.287,474.88a1.313,1.313,0,0,1,.729.152c.157.1.381.157.306.394-.114.364-.342.113-.526.064a3.271,3.271,0,0,0-.631-.164.5.5,0,0,0-.568.388c-.065.307.121.458.4.534s.546.139.81.236a.925.925,0,0,1,.722.972,1.013,1.013,0,0,1-.873.964,1.343,1.343,0,0,1-.924-.078c-.321-.14-.894-.21-.725-.658s.5.1.785.11c.217.006.431.087.647.09a.494.494,0,0,0,.533-.438c.025-.229-.149-.4-.4-.455-.213-.052-.423-.119-.632-.184-.543-.17-1.037-.421-.925-1.1C4995.129,475.018,4995.666,474.86,4996.287,474.88Z" transform="translate(-4919.542 -455.926)" fill="#869ab8"></path><path d="M5600.15,216.352c.8-.176,1.077.093,1.1.958.019.926-.336,1.035-1.135,1.06-.855.026-1.038-.243-1.045-1.052C5599.058,216.459,5599.333,216.169,5600.15,216.352Z" transform="translate(-5483.28 -214.62)" fill="#869ab8"></path><path d="M5385.708,474.825c-.079-.006.09-.027.233.024.312.111.828.212.693.6-.165.477-.53.017-.77-.074a1.146,1.146,0,0,0-1.426.391,1.261,1.261,0,0,0-.017,1.578,1.129,1.129,0,0,0,1.43.378,2.32,2.32,0,0,0,.259-.115c.191-.1.41-.282.561,0,.134.249-.087.405-.279.517a1.823,1.823,0,0,1-2.734-1.984,1.612,1.612,0,0,1,1.435-1.308C5385.217,474.812,5385.345,474.825,5385.708,474.825Z" transform="translate(-5282.206 -455.867)" fill="#869ab8"></path><path d="M3944.848,284.059c.169.01,1.275,1.26,1.192,1.382a4.853,4.853,0,0,1-1.131,1.353c-.13.091-1.243-1.124-1.238-1.332A3.91,3.91,0,0,1,3944.848,284.059Z" transform="translate(-3938.473 -277.854)" fill="#869ab8"></path><path d="M4239.772,273.226a2.97,2.97,0,0,1-.12,3.734A2.77,2.77,0,0,1,4239.772,273.226Z" transform="translate(-4214.059 -267.744)" fill="#869ab8"></path><path d="M3921.208,259.368c.056-.474-.364-.69-.587-1-.271-.372-.3-.648.048-.959.314-.281.547-.921.935-.778s.679.693.956,1.1c.289.424-.287.446-.4.7a1.437,1.437,0,0,1-.959.926Z" transform="translate(-3916.77 -252.243)" fill="#869ab8"></path><path d="M3927.817,315.385c-.4.265-.33,1.183-.833,1.1a1.528,1.528,0,0,1-1.271-1.218,1.581,1.581,0,0,1,.83-1.254A3.918,3.918,0,0,1,3927.817,315.385Z" transform="translate(-3921.714 -305.808)" fill="#869ab8"></path><path d="M3903.842,283.912c-.171.334-.1.758-.492,1.019-.262.176-.126.92-.721.625a1.414,1.414,0,0,1-.708-1.747c.2-.31.434-.6.642-.887.573.189.509,1.115,1.284,1Z" transform="translate(-3899.41 -276.793)" fill="#869ab8"></path><path d="M5205.18,475.491v-.281c0-1.522.121-1.631,1.633-1.4a1.092,1.092,0,0,1,1.061,1.106,1.052,1.052,0,0,1-1.084,1.164c-.7.03-1.356-.043-1.168.982a.2.2,0,0,1-.251.2c-.154-.028-.184-.155-.186-.278,0-.5,0-1,0-1.5Zm.473-.545c-.052.438-.04.812.595.744.485-.052,1.006-.067,1.029-.7.026-.724-.574-.679-1.065-.743C5205.639,474.177,5205.6,474.523,5205.652,474.946Z" transform="translate(-5115.708 -454.844)" fill="#869ab8"></path><path d="M5564.961,475.529v-.281c0-1.464.105-1.557,1.609-1.343a1.11,1.11,0,0,1,1.106,1.166,1.069,1.069,0,0,1-1.063,1.1c-.637.068-1.4-.137-1.208.949.026.141-.106.213-.251.187s-.177-.162-.178-.282c-.006-.5,0-1,0-1.5Zm.483-.5c-.058.454-.036.819.592.75.49-.053,1-.086,1.026-.7.031-.656-.517-.664-.983-.733C5565.512,474.261,5565.348,474.532,5565.445,475.032Z" transform="translate(-5451.455 -454.936)" fill="#869ab8"></path><path d="M4227.252,197.38c.817.989,1.7,1.936,1.036,3.481C4227.579,199.759,4226.343,198.927,4227.252,197.38Z" transform="translate(-4202.809 -196.965)" fill="#869ab8"></path><path d="M5292.76,474.246c1.1.139,1.111,1.139,1.774,1.547.3-.423.6-.847.893-1.28a.378.378,0,0,1,.478-.188c.266.133.056.307-.034.449-.531.852-1.385,1.567-1.157,2.74a.213.213,0,0,1-.217.249c-.186.01-.341-.1-.312-.26C5294.419,476.194,5293.367,475.423,5292.76,474.246Z" transform="translate(-5197.438 -455.336)" fill="#869ab8"></path><path d="M5718.914,474.869c.542.079.542.079,1.689,1.48l.755-1.068c.159-.225.328-.6.625-.415.394.248-.071.462-.185.652-.455.76-1.18,1.4-.976,2.428a.261.261,0,0,1-.221.346c-.18.021-.351-.075-.32-.244C5720.514,476.736,5719.452,475.969,5718.914,474.869Z" transform="translate(-5595.123 -455.866)" fill="#869ab8"></path><path d="M3884.313,253.424c1.03,1.667.976,1.127-.289,2.637C3883.068,254.88,3883.081,254.739,3884.313,253.424Z" transform="translate(-3882.176 -249.265)" fill="#869ab8"></path><path d="M3906,229.992c-.386.48-.7,1.194-1.213,1.229-.476.032-.732-.755-.729-1.233a1.326,1.326,0,0,1,1.03-1.184C3905.586,228.76,3905.65,229.571,3906,229.992Z" transform="translate(-3901.51 -226.288)" fill="#869ab8"></path><path d="M3964.283,462.945a3.2,3.2,0,0,1,3.547,1.082A3.86,3.86,0,0,1,3964.283,462.945Z" transform="translate(-3957.708 -444.629)" fill="#869ab8"></path><path d="M3899.849,415.722c.055.354-.053.42-.4.287a4.25,4.25,0,0,1-1.726-1.387c-.237-.287-.48-.569-.795-.939.844.175,1.563.314,2.007,1.071.152.257.238.72.741.6l-.013-.01c-.2.259-.014.332.194.393Z" transform="translate(-3894.856 -398.818)" fill="#869ab8"></path><path d="M5105.954,477.348c0-.436-.005-.872,0-1.307,0-.147-.009-.342.193-.36.273-.025.267.2.27.383a12.429,12.429,0,0,1-.008,1.679c-.093.773.234.97.945.907.3-.026.884-.176.878.186-.006.5-.59.259-.911.268C5105.951,479.141,5105.949,479.124,5105.954,477.348Z" transform="translate(-5023.11 -456.673)" fill="#869ab8"></path><path d="M3936.889,438.965c-.208-.061-.392-.134-.194-.393C3936.888,438.64,3937.074,438.712,3936.889,438.965Z" transform="translate(-3931.885 -422.045)" fill="#869ab8"></path></g></g></svg>