<svg xmlns="http://www.w3.org/2000/svg" width="130" height="60" viewBox="0 0 130 60"><g transform="translate(-2935 -112)"><g transform="translate(2935 112)" fill="#fff" stroke="#707070" stroke-width="1" opacity="0"><rect width="130" height="60" stroke="none"></rect><rect x="0.5" y="0.5" width="129" height="59" fill="none"></rect></g><g transform="translate(2936.687 120.479)"><path d="M-3675.563,4352.785c12.271,1.934,18.741,10.933,17.923,19.113-.967,10.857-14.576,18.294-30.565,16.955a8.147,8.147,0,0,0,1.413.149c16.435,1.785,30.937-5.726,31.979-16.808C-3654.07,4363.866-3661.284,4354.422-3675.563,4352.785Z" transform="translate(3781.388 -4346.222)" fill="#869ab8" fill-rule="evenodd"></path><path d="M-5051.1,4456.869s.446-2.826.967-5.5c.222-1.413.445-2.826.594-3.644a3.935,3.935,0,0,1,.15-.744h5.651c3.793,0,8.255-2.38,9-6.693s-2.9-6.694-6.768-6.694h-10.857l-2.38,14.13-.6,3.644-.967,5.5-.148.966h5.2C-5051.174,4457.538-5051.174,4457.166-5051.1,4456.869Zm3.346-19.559h5.13a2.442,2.442,0,0,1,2.679,2.975,3.621,3.621,0,0,1-3.645,3.049h-5.131C-5048.646,4442.515-5047.9,4438.127-5047.753,4437.31Z" transform="translate(5056.454 -4421.525)" fill="#869ab8"></path><path d="M-3841.654,4452.532l1.636-9.594c.893-5.354-2.528-8.254-8.106-8.254a16.049,16.049,0,0,0-7.734,1.784,7.307,7.307,0,0,1,.967,1.636,5.354,5.354,0,0,1,.371,1.563,14.091,14.091,0,0,1,5.355-1.189c3.2,0,4.313,1.636,3.941,3.941l-.3,1.636-4.908.446c-4.611.373-8.775,2.974-9.593,7.585a5.912,5.912,0,0,0,.222,3.049,3.586,3.586,0,0,0,.6,1.19c1.115,1.71,3.124,2.752,5.949,2.752a9.246,9.246,0,0,0,6.99-2.752,4.079,4.079,0,0,0,3.346,2.752l3.57-2.9A2.827,2.827,0,0,1-3841.654,4452.532Zm-5.057-1.86c-.447,2.6-3.346,4.611-5.727,4.611a2.654,2.654,0,0,1-2.677-3.272,4.955,4.955,0,0,1,4.685-4.091l4.165-.3Z" transform="translate(3941.604 -4422.542)" fill="#869ab8"></path><path d="M-4709.323,4452.532l1.637-9.594c.744-4.537-1.562-7.288-5.652-8.032a12.567,12.567,0,0,0-2.454-.222,16.352,16.352,0,0,0-7.809,1.784h0a7.965,7.965,0,0,1,1.115,1.636,3.746,3.746,0,0,1,.224.521,4.149,4.149,0,0,1,.3.892,12.821,12.821,0,0,1,5.057-1.04h.6c2.751.148,3.719,1.71,3.346,3.941l-.3,1.636-4.909.446c-4.61.373-8.775,2.974-9.593,7.585a4.952,4.952,0,0,0-.074,1.042,14.079,14.079,0,0,1-2.083,1.264c-.148.075-.372.223-.52.3s-.372.074-.521.148a15.6,15.6,0,0,1-3.792.521h-.6a6.339,6.339,0,0,1-6.321-7.289h.074V4448h12.939a9.612,9.612,0,0,1,4.09-3.2c.075-.446.148-.817.224-1.189a7.336,7.336,0,0,0-.372-4.017,8.58,8.58,0,0,0-1.562-2.453,9.287,9.287,0,0,0-6.841-2.455,14.627,14.627,0,0,0-13.237,9.667h-1.488l1.636-9.667h-5.206s-1.487,8.776-1.636,9.667h-8.4c.148-.892,1.636-9.667,1.636-9.667h-5.279l-3.57,20.823-.595,3.421h5.279q.113-.669.224-1.339s1.487-8.626,1.636-9.593h8.4c-.074.595-.817,4.833-1.264,7.511,0,0-.3,1.563-.6,3.421h5.206l.223-1.339,1.636-9.519h1.339c-.6,6.768,4.164,11.157,10.857,11.157a16.217,16.217,0,0,0,7.14-1.34h.149c.446-.223.817-.447,1.19-.669a11.2,11.2,0,0,0,.966-.594.744.744,0,0,0,.3.371,5.867,5.867,0,0,0,1.637,1.339,7.925,7.925,0,0,0,3.941.894,9.858,9.858,0,0,0,5.8-1.711,5.227,5.227,0,0,0,1.189-1.042,3.191,3.191,0,0,0,1.189,1.785,5.214,5.214,0,0,0,2.158.968l3.57-2.9A3.011,3.011,0,0,1-4709.323,4452.532Zm-25.508-14.055a4.1,4.1,0,0,1,1.339-.149,3.631,3.631,0,0,1,2.827,1.264,4.943,4.943,0,0,1,1.041,3.941,1.69,1.69,0,0,1-.223.818h-11.082A9.363,9.363,0,0,1-4734.831,4438.477Zm20.452,12.27a6.241,6.241,0,0,1-5.727,4.685,2.464,2.464,0,0,1-1.933-.818,2.592,2.592,0,0,1-.67-2.454,4.955,4.955,0,0,1,4.686-4.09l1.636-.149,2.529-.223Z" transform="translate(4788.821 -4422.542)" fill="#869ab8"></path><path d="M-3277.969,4394.651c0-.148-.074-.3-.223-.3a.272.272,0,0,0-.3.3c0,.446.818.223.818.818a.5.5,0,0,1-.521.521.47.47,0,0,1-.521-.521h.223c0,.223,0,.372.3.372a.319.319,0,0,0,.3-.3c0-.446-.818-.223-.818-.818,0-.148.074-.446.521-.446a.394.394,0,0,1,.446.446h-.223Z" transform="translate(3399.784 -4384.891)" fill="#869ab8"></path><path d="M-3262.333,4394.28h.372l.3,1.338h0l.3-1.338h.372v1.636h-.148v-1.487h0l-.372,1.487h-.224l-.372-1.487h0v1.487h-.223Z" transform="translate(3384.52 -4384.891)" fill="#869ab8"></path><path d="M-3776.516,4268.931c.149-.075,2.825-1.042,6.991-2.455a32.719,32.719,0,0,0-7.363-3.5,30.516,30.516,0,0,1,9.816,2.752c3.57-1.189,6.916-2.3,7.289-2.454.892-.3.892-.669,0-.893-4.239-1.413-16.658-5.578-17.328-5.8a2.456,2.456,0,0,0-1.785,0c-.819.3-16.808,5.65-17.4,5.875-.744.223-.744.52,0,.818.594.223,15.692,5.28,16.956,5.727A4.119,4.119,0,0,0-3776.516,4268.931Z" transform="translate(3882.64 -4256.418)" fill="#869ab8"></path><path d="M-3738.912,4408.476a15.311,15.311,0,0,1,5.206,16.138c-2.9,10.337-15.1,16.063-30.937,13.684l1.338.223c16.361,2.826,30.788-3.719,32.574-14.5C-3729.616,4417.251-3734.822,4410.558-3738.912,4408.476Z" transform="translate(3852.621 -4398.12)" fill="#869ab8" fill-rule="evenodd"></path></g></g></svg>