<svg xmlns="http://www.w3.org/2000/svg" width="130" height="60" viewBox="0 0 130 60"><g transform="translate(-2335 -192)"><g transform="translate(2335 192)" fill="#fff" stroke="#707070" stroke-width="1" opacity="0"><rect width="130" height="60" stroke="none"></rect><rect x="0.5" y="0.5" width="129" height="59" fill="none"></rect></g><g transform="translate(2336 208)"><path d="M1094.324-1372.324c0,.912,0,1.824,0,2.736a1.362,1.362,0,0,1-1.4,1.528,1.358,1.358,0,0,1-1.427-1.508c-.028-1.641,0-3.283-.019-4.924-.018-1.83-1.066-3.036-2.618-3.042-1.57-.005-2.6,1.177-2.62,3.03-.013,1.5-.006,3.009,0,4.514,0,1.011-.269,1.932-1.447,1.92-1.136-.01-1.478-.845-1.448-1.908.044-1.549.029-3.1.007-4.65a2.653,2.653,0,0,0-2.614-2.9,2.686,2.686,0,0,0-2.658,2.876c-.027,1.55-.035,3.1,0,4.65.027,1.048-.274,1.927-1.42,1.93-1.2,0-1.563-.888-1.54-1.993.031-1.458-.031-2.919.018-4.377a5.45,5.45,0,0,1,3.039-5,5.2,5.2,0,0,1,5.821.487c.665.5,1,.405,1.6-.034a5.211,5.211,0,0,1,5.7-.492,5.168,5.168,0,0,1,3.02,4.836C1094.338-1373.875,1094.324-1373.1,1094.324-1372.324Z" transform="translate(-1075.12 1391.98)" fill="#869ab8"></path><path d="M1896.7-1368.3a7.975,7.975,0,0,1-4.676.636,6.032,6.032,0,0,1-4.781-6.682c.391-3.212,3.252-5.383,6.811-5.166a5.861,5.861,0,0,1,5.547,5.727c.029,1.823-.068,3.651.022,5.47.155,3.118-2.222,5.134-5.34,5.423-.86.08-1.823.337-2.645-.329-.449-.364-.857-.72-.694-1.357a1.232,1.232,0,0,1,1.322-.968c.78,0,1.562.034,2.338-.016C1896.115-1365.661,1896.893-1366.674,1896.7-1368.3Zm.189-5.262a3.531,3.531,0,0,0-3.461-3.663,3.441,3.441,0,0,0-3.48,3.61,3.514,3.514,0,0,0,3.533,3.719A3.428,3.428,0,0,0,1896.887-1373.564Z" transform="translate(-1783.725 1391.469)" fill="#869ab8"></path><path d="M1790.84-1368.327a7.465,7.465,0,0,1-4.674.664,6.008,6.008,0,0,1-4.764-6.688c.433-3.2,3.179-5.321,6.678-5.161a5.863,5.863,0,0,1,5.673,5.607c.062,1.867-.025,3.739.026,5.607.09,3.3-2.3,5-5.217,5.431a7.232,7.232,0,0,1-1.922,0c-.907-.112-1.595-.64-1.545-1.587.047-.9.794-1.118,1.614-1.093a20.563,20.563,0,0,0,2.062-.006C1790.289-1365.665,1791.063-1366.689,1790.84-1368.327Zm.2-5.174a3.533,3.533,0,0,0-3.544-3.719,3.476,3.476,0,0,0-3.417,3.552,3.566,3.566,0,0,0,3.491,3.778A3.434,3.434,0,0,0,1791.041-1373.5Z" transform="translate(-1691.364 1391.463)" fill="#869ab8"></path><path d="M1432.8-1409.014c0-1.081,0-2.167,0-3.253,0-.972.273-1.779,1.414-1.774,1.06,0,1.364.761,1.357,1.685-.026,3.186.075,6.38-.129,9.555a5.7,5.7,0,0,1-4.86,5.053,6.219,6.219,0,0,1-6.693-2.938,5.873,5.873,0,0,1,.722-6.867,6.284,6.284,0,0,1,6.5-1.874C1431.639-1409.309,1432.09-1408.92,1432.8-1409.014Zm-3.4,9.026a3.474,3.474,0,0,0,3.437-3.662,3.612,3.612,0,0,0-3.492-3.668,3.528,3.528,0,0,0-3.51,3.616A3.582,3.582,0,0,0,1429.4-1399.988Z" transform="translate(-1378.766 1421.585)" fill="#869ab8"></path><path d="M1572.218-1366.139c0,.565,0,1.021,0,1.477a1.462,1.462,0,0,1-1.373,1.585,1.5,1.5,0,0,1-1.348-1.623c.01-3.148-.1-6.3.043-9.442.162-3.525,3.425-5.893,7.209-5.429a6,6,0,0,1,5.089,7.058,6.277,6.277,0,0,1-7.5,4.764c-.673-.133-1.436-.87-1.9-.486C1571.867-1367.761,1572.317-1366.782,1572.218-1366.139Zm6.963-7.387a3.545,3.545,0,0,0-3.475-3.789,3.474,3.474,0,0,0-3.48,3.625,3.544,3.544,0,0,0,3.421,3.7A3.415,3.415,0,0,0,1579.181-1373.526Z" transform="translate(-1506.481 1391.556)" fill="#869ab8"></path><path d="M1687.985-1371.82c0,.864,0,1.728,0,2.593a1.393,1.393,0,0,1-.811,1.316,1.031,1.031,0,0,1-1.37-.239c-.5-.729-.916-.389-1.478-.151a6.373,6.373,0,0,1-7.452-1.766,5.973,5.973,0,0,1-.232-7.119,6.352,6.352,0,0,1,7.052-2.351,5.8,5.8,0,0,1,4.29,5.671C1688-1373.184,1687.987-1372.5,1687.985-1371.82Zm-9.679-2.065a3.544,3.544,0,0,0,3.53,3.734,3.411,3.411,0,0,0,3.421-3.648,3.537,3.537,0,0,0-3.442-3.68A3.473,3.473,0,0,0,1678.306-1373.885Z" transform="translate(-1599.072 1391.721)" fill="#869ab8"></path><path d="M1242.381-1375.4c0-.912-.035-1.826.011-2.736a1.345,1.345,0,0,1,1.479-1.444,1.314,1.314,0,0,1,1.384,1.4,48.219,48.219,0,0,1-.075,5.875,5.4,5.4,0,0,1-5.761,4.751,5.438,5.438,0,0,1-5.136-5.416c-.038-1.641,0-3.284-.012-4.925-.01-.952.34-1.667,1.361-1.693,1.1-.028,1.485.69,1.471,1.714q-.033,2.394,0,4.788a2.674,2.674,0,0,0,2.71,2.95c1.534-.027,2.523-1.152,2.565-2.941C1242.4-1373.844,1242.38-1374.62,1242.381-1375.4Z" transform="translate(-1213.99 1391.516)" fill="#869ab8"></path><path d="M1339.6-1371.962c0,.912-.006,1.825,0,2.737.008.928-.454,1.538-1.366,1.547a1.364,1.364,0,0,1-1.445-1.5c-.022-1.688,0-3.376-.013-5.064a2.654,2.654,0,0,0-2.6-2.909,2.663,2.663,0,0,0-2.654,2.874q-.038,2.395,0,4.79c.019,1.017-.365,1.777-1.424,1.8-1.093.023-1.445-.782-1.441-1.772.007-1.642-.053-3.287.02-4.927a5.36,5.36,0,0,1,5.655-5.29,5.328,5.328,0,0,1,5.266,5.519C1339.6-1373.422,1339.6-1372.692,1339.6-1371.962Z" transform="translate(-1296.335 1391.595)" fill="#869ab8"></path><path d="M2030.7-1467.168c0,1.593.009,3.185-.006,4.778,0,.385.171.888-.342,1.074-.419.153-.65-.247-.9-.493-1.5-1.472-2.975-2.962-4.478-4.428a1.2,1.2,0,0,1,0-1.983c1.533-1.5,3.046-3.021,4.57-4.529.222-.22.443-.537.8-.411.447.157.346.59.347.942C2030.7-1470.536,2030.7-1468.852,2030.7-1467.168Z" transform="translate(-1903.495 1473.197)" fill="#869ab8"></path><path d="M1985.121-1467.334q0-2.4,0-4.791c0-.4-.1-.9.365-1.082s.721.3,1,.568c1.05,1.02,2.074,2.067,3.126,3.085.377.365.545.642.111,1.124a1.569,1.569,0,0,0-.109,2.138c.547.648.332.976-.162,1.442-1.063,1.006-2.085,2.056-3.129,3.082-.223.219-.435.544-.8.419-.427-.147-.4-.556-.4-.921Q1985.12-1464.8,1985.121-1467.334Z" transform="translate(-1869.168 1473.249)" fill="#869ab8"></path><path d="M1536.936-1373.436c0,1.41-.016,2.821.006,4.23.015.965-.385,1.648-1.372,1.688-1,.041-1.469-.643-1.474-1.593-.015-2.956-.021-5.912,0-8.869.007-.95.484-1.592,1.516-1.535.947.052,1.328.675,1.324,1.577C1536.932-1376.437,1536.936-1374.937,1536.936-1373.436Z" transform="translate(-1475.605 1391.46)" fill="#869ab8"></path><path d="M1534.494-1414.4a1.558,1.558,0,0,1,1.578,1.6,1.511,1.511,0,0,1-1.67,1.609,1.472,1.472,0,0,1-1.547-1.577C1532.846-1413.808,1533.493-1414.313,1534.494-1414.4Z" transform="translate(-1474.533 1421.893)" fill="#869ab8"></path></g></g></svg>