<svg xmlns="http://www.w3.org/2000/svg" width="130" height="60" viewBox="0 0 130 60"><g transform="translate(-2335 -112)"><g transform="translate(2335 112)" fill="#fff" stroke="#707070" stroke-width="1" opacity="0"><rect width="130" height="60" stroke="none"></rect><rect x="0.5" y="0.5" width="129" height="59" fill="none"></rect></g><g transform="translate(2336 123)"><path d="M572.675,2209.407a10.077,10.077,0,1,0-5,9.088v3.44a4.463,4.463,0,0,1-3.358,2.178l-2.393,4.761h1.949a9.206,9.206,0,0,0,8.8-6.759v-12.709Zm-10.043,5.287a4.861,4.861,0,1,1,.024,0Zm-19.005-5.287a10.053,10.053,0,1,0-9.995,10.458,9.951,9.951,0,0,0,5.024-1.369v3.44a4.463,4.463,0,0,1-3.358,2.178l-2.393,4.761h1.949a9.206,9.206,0,0,0,8.8-6.759v-12.6Zm-9.995,5.287a4.873,4.873,0,1,1,4.839-4.907v.01A4.873,4.873,0,0,1,533.632,2214.694Zm50.929-15a10.19,10.19,0,1,0,10.185,10.194v-.01A10.19,10.19,0,0,0,584.561,2199.695Zm0,15.774a5.589,5.589,0,1,1,5.585-5.595v.005a5.585,5.585,0,0,1-5.58,5.59Zm-92.33-22.957-5.131-1.579v10.019a10.233,10.233,0,1,0,5.185,9.19v-.112ZM482.08,2214.8a4.961,4.961,0,1,1,4.922-5v0A4.966,4.966,0,0,1,482.08,2214.8Zm39.759-22.29-5.146-1.579v10.019a10.234,10.234,0,1,0,5.185,9.19v-.112Zm-10.146,22.29a4.961,4.961,0,1,1,4.917-5s0,.006,0,.009A4.961,4.961,0,0,1,511.694,2214.8Zm36.431-21.788a2.622,2.622,0,1,0,.01,0Zm-2.773,8.353v18.157h5.555v-19.746Zm-48.375-8.353a2.622,2.622,0,1,0,.01,0Zm-2.778,8.353v18.157h5.57v-19.746Z" transform="translate(-471.82 -2190.933)" fill="#869ab8"></path><path d="M2757.117,2322.626h-.38v-.2h1.009v.2h-.385v1.135h-.244Z" transform="translate(-2632.762 -2315.287)" fill="#869ab8"></path><path d="M2779.164,2322.876v-.561h0c-.044.161-.1.341-.161.512l-.195.58h-.185l-.18-.571c-.053-.175-.1-.355-.137-.521h0a4.574,4.574,0,0,1-.024.57l-.029.536h-.229l.092-1.34h.322l.175.541c.044.156.088.317.122.463h0l.131-.488.185-.536h.322l.073,1.34h-.234Z" transform="translate(-2652.895 -2314.947)" fill="#869ab8"></path><ellipse cx="1.866" cy="1.866" rx="1.866" ry="1.866" transform="translate(123.12 9.316) rotate(-79.363)" fill="#869ab8"></ellipse></g></g></svg>