<svg xmlns="http://www.w3.org/2000/svg" width="130" height="60" viewBox="0 0 130 60"><g transform="translate(-235 -112)"><g transform="translate(235 112)" fill="#fff" stroke="#707070" stroke-width="1" opacity="0"><rect width="130" height="60" stroke="none"></rect><rect x="0.5" y="0.5" width="129" height="59" fill="none"></rect></g><g transform="translate(236 130)"><path d="M-3657.9,1030.864a11.9,11.9,0,0,1-8.256-3.406,11.719,11.719,0,0,1-3.406-8.256,11.9,11.9,0,0,1,3.406-8.256,11.2,11.2,0,0,1,8.256-3.3,11.9,11.9,0,0,1,8.255,3.406l-3.3,3.3a6.976,6.976,0,0,0-9.8,0,6.977,6.977,0,0,0,0,9.8,6.976,6.976,0,0,0,9.8,0l3.3,3.3A11.539,11.539,0,0,1-3657.9,1030.864Z" transform="translate(3669.563 -1007.645)" fill="#869ab8"></path><path d="M-3467.677,1168.439h9.288v4.644h-9.288Z" transform="translate(3479.338 -1159.151)" fill="#869ab8"></path><g transform="translate(29.205 5.727)"><path d="M-2373.267,1107.69v7.946l-5.573-7.946h-2.58v11.661h2.271v-7.946l5.572,7.946h2.58V1107.69Zm17.44,0h-2.89l5.16,7.327v4.334h2.271V1114.3Z" transform="translate(2426.619 -1107.639)" fill="#869ab8"></path><path d="M-2120.57,1229.18v2.27h.1v-2.27Z" transform="translate(2180.836 -1222.111)" fill="#869ab8"></path><path d="M-3096.667,1113.041a4.513,4.513,0,0,0-.619-.723,2.077,2.077,0,0,0,.413-.825,4.388,4.388,0,0,0,.206-1.135,3.479,3.479,0,0,0-3.509-3.509h-5.779v11.558h6.4a3.428,3.428,0,0,0,2.889-1.547,3.175,3.175,0,0,0,.619-1.961A3.974,3.974,0,0,0-3096.667,1113.041Zm-7.017-3.818h3.509a1.145,1.145,0,0,1,1.135,1.135,1.145,1.145,0,0,1-1.135,1.135h-3.509Zm4.128,6.914h-4.025v-2.271h4.025a1.056,1.056,0,0,1,.169.013,1.147,1.147,0,0,1,.966,1.122A1.145,1.145,0,0,1-3099.556,1116.137Zm34.261-6.914v-2.374h-8.152v11.661h8.152v-2.373h-5.882v-2.271h4.643v-2.374h-4.643v-2.27Zm-55.725,0v-2.374h-8.153v11.661h8.153v-2.373h-5.882v-2.271h4.644v-2.374h-4.644v-2.27Zm-10.526,0v-2.374h-8.049v11.661h8.049v-2.373h-5.779v-2.271h4.644v-2.374h-4.644v-2.27Zm-26.624,2.27v2.271h2.27v1.444a3.5,3.5,0,0,1-4.746-.1,3.6,3.6,0,0,1-1.032-2.477,3.806,3.806,0,0,1,1.032-2.476,3.2,3.2,0,0,1,2.477-1.032,3.807,3.807,0,0,1,2.477,1.032l1.651-1.652a5.855,5.855,0,0,0-8.256,0,5.684,5.684,0,0,0-1.651,4.128,6.141,6.141,0,0,0,1.651,4.128,5.687,5.687,0,0,0,4.129,1.651,6.135,6.135,0,0,0,4.127-1.651,2.744,2.744,0,0,0,.516-.619v-4.644Zm74.713-4.644-1.652,2.374h3.509v9.287h2.271v-9.287h3.508v-2.374Zm-61.2,7.946a4.441,4.441,0,0,0,2.271-2.064,4.863,4.863,0,0,0,.413-1.754,4.029,4.029,0,0,0-4.024-4.025h-5.263v11.558h2.27v-9.287h2.89a1.808,1.808,0,0,1,1.754,1.754,1.808,1.808,0,0,1-1.754,1.754h-2.787l4.025,5.779h2.786l-2.476-3.508Z" transform="translate(3163.95 -1106.798)" fill="#869ab8"></path></g></g></g></svg>