<svg xmlns="http://www.w3.org/2000/svg" width="130" height="60" viewBox="0 0 130 60"><g transform="translate(-1735 -112)"><g transform="translate(1735 112)" fill="#fff" stroke="#707070" stroke-width="1" opacity="0"><rect width="130" height="60" stroke="none"></rect><rect x="0.5" y="0.5" width="129" height="59" fill="none"></rect></g><g transform="translate(1737 124)"><path d="M-1852.038,5452.5c0-2.187-.795-3.8-3.243-4.138-.024-.18-.044-.362-.06-.543h-10.582c-.014.114-.028.23-.041.344-7.06.221-11.294,4.45-11.479,11.55-.091,3.472.048,6.947-.066,10.419-.034,1.044.033,2.382-1.532,2.432-1.539.05-1.579-1.241-1.723-2.308a20.022,20.022,0,0,1-.07-2.6c-.018-4.993.055-9.986-.039-14.978-.039-2.034-.347-3.971-2.867-4.5h-.051a1.534,1.534,0,0,1,.011-.355h-4.629c0,.114-.011.23-.024.343h0c-3.112.145-3.4,2.5-3.468,4.776-.173,5.745-.024,11.5-.082,17.243-.011,1.156.211,2.6-1.477,2.829-2.5.334-4.993.948-7.54.455a8.209,8.209,0,0,1-5.981-11.556c1.765-3.811,4.9-5.262,8.991-5.458,3.01-.146,4.764-1.82,5.025-4.223.274-2.515-1.1-3.8-3.38-4.408h-5.952c-8.206,1.472-13.187,6.122-14.55,14.341v6.519c.4.984.812,1.965,1.2,2.954,2.891,7.33,11.437,12.369,18.969,11.125,3.02-.5,5.992-2.389,9.059-.019.413.32,1.286.071,1.945.072q4.95,0,9.9,0c8.1,0,8.313-.137,8.316-8.164,0-2.664.729-4.012,3.716-4.009,3.115,0,3.7,1.673,3.614,4.164-.042,1.19.065,2.39-.02,3.577-.2,2.838,1.236,4.434,3.965,4.468,2.7.033,4.181-1.479,4.165-4.33C-1852.065,5469.849-1852.03,5461.175-1852.038,5452.5Zm-12.361,11.209c-1.272-.435-3.551.952-3.5-1.948.047-2.5,2.156-5.108,4.2-4.94,2.79.229,3,2.5,3.2,4.5C-1860.188,5464.5-1862.747,5463.395-1864.4,5463.713Z" transform="translate(1916.846 -5447.823)" fill="#869ab8"></path><path d="M-961.662,5483.348a54.5,54.5,0,0,0-5.932.012c-2.494.185-3.5-.563-3.418-3.257.2-6.383.094-12.778.05-19.169-.023-3.238-1.313-4.394-4.659-4.391s-4.608,1.154-4.646,4.413c-.049,4.223-.012,8.449-.011,12.673,0,4.549-.008,9.1.005,13.647.007,2.492,1.232,3.82,3.829,3.815,4.945-.008,9.891.013,14.836-.012,2.456-.013,3.96-1.116,4.011-3.692C-957.542,5484.674-959.07,5483.44-961.662,5483.348Z" transform="translate(1050.34 -5455.891)" fill="#869ab8"></path><path d="M-380.882,5604.756a2.379,2.379,0,0,1-1.647-2.354,2.356,2.356,0,0,0-2.749-2.19,2.188,2.188,0,0,0-2.328,2.251c0,1.266-.519,1.746-1.7,2.292-2.313,1.07-2.266,3.168.11,4.208a2.155,2.155,0,0,1,1.54,2.429c-.053,1.513-.013,3.032-.012,4.547,0,1.624.014,3.249,0,4.873-.017,1.69.425,3.076,2.445,3.159,2.219.092,2.774-1.395,2.8-3.195.043-3.032.027-6.064.034-9.1,0-1.192-.018-2.1,1.549-2.749C-378.471,5607.953-378.5,5605.741-380.882,5604.756Z" transform="translate(505.13 -5588.808)" fill="#869ab8"></path><path d="M-480.819,5702.279c-.088-1.564-.83-2.659-2.655-2.644a2.31,2.31,0,0,0-2.6,2.611c0,3.672.008,7.343,0,11.015a2.394,2.394,0,0,0,2.578,2.7,2.49,2.49,0,0,0,2.678-2.666c.107-1.83.025-3.67.025-5.506S-480.716,5704.109-480.819,5702.279Z" transform="translate(593.088 -5680.802)" fill="#869ab8"></path><path d="M-588.416,5848.962a2.382,2.382,0,0,0-2.649,2.629,2.335,2.335,0,0,0,2.49,2.464c1.659.027,2.527-1.068,2.776-2.625C-586.1,5849.977-586.86,5848.967-588.416,5848.962Z" transform="translate(690.224 -5818.96)" fill="#869ab8"></path><path d="M-483.328,5605.865a2.371,2.371,0,0,0,2.652-2.28,2.422,2.422,0,0,0-2.59-2.7,2.318,2.318,0,0,0-2.584,2.624C-485.815,5605.109-484.823,5605.76-483.328,5605.865Z" transform="translate(592.878 -5589.436)" fill="#869ab8"></path></g></g></svg>