<svg xmlns="http://www.w3.org/2000/svg" width="130" height="60" viewBox="0 0 130 60"><g transform="translate(-2485 -112)"><g transform="translate(2485 112)" fill="#fff" stroke="#707070" stroke-width="1" opacity="0"><rect width="130" height="60" stroke="none"></rect><rect x="0.5" y="0.5" width="129" height="59" fill="none"></rect></g><g transform="translate(2486.338 116.176)"><path d="M-2281.849,4433.043v-7.767a2.206,2.206,0,0,1,2.207-2.208,2.206,2.206,0,0,1,2.207,2.208v7.767a3.32,3.32,0,0,0,3.4,3.248,3.318,3.318,0,0,0,3.246-3.248v-7.767a2.207,2.207,0,0,1,2.208-2.208,2.206,2.206,0,0,1,2.207,2.208v7.767a7.761,7.761,0,0,1-7.725,7.767h-.021a7.619,7.619,0,0,1-5.539-2.312,7.6,7.6,0,0,1-5.538,2.313,7.743,7.743,0,0,1-7.724-7.745v-7.789a2.206,2.206,0,0,1,2.207-2.208,2.206,2.206,0,0,1,2.207,2.208v7.767a3.32,3.32,0,0,0,3.4,3.248,3.322,3.322,0,0,0,3.268-3.248m105.173-2.207v7.768a2.2,2.2,0,0,1-2.207,2.207,2.205,2.205,0,0,1-2.208-2.207v-7.768a3.337,3.337,0,0,0-3.331-3.331,3.324,3.324,0,0,0-3.332,3.331v7.768a2.2,2.2,0,0,1-2.207,2.207,2.2,2.2,0,0,1-2.207-2.207v-7.768a7.764,7.764,0,0,1,7.724-7.767h.022a7.618,7.618,0,0,1,5.539,2.314,7.606,7.606,0,0,1,5.538-2.314,7.731,7.731,0,0,1,7.746,7.725v7.789a2.205,2.205,0,0,1-2.207,2.207,2.2,2.2,0,0,1-2.207-2.207v-7.747a3.337,3.337,0,0,0-3.332-3.331,3.323,3.323,0,0,0-3.331,3.331m-61.181-10.185a7.643,7.643,0,0,0-7.512,7.788v13.348a2.211,2.211,0,0,0,2.143,2.228,2.211,2.211,0,0,0,2.143-2.228v-13.348a3.275,3.275,0,0,1,3.225-3.332,2.229,2.229,0,0,0,2.165-2.228,2.244,2.244,0,0,0-2.165-2.228m-18.8,18.95a4.419,4.419,0,0,0,4.435-4.434,4.42,4.42,0,0,0-4.435-4.436,4.42,4.42,0,0,0-4.435,4.436A4.42,4.42,0,0,0-2256.659,4439.6Zm0-13.3a8.893,8.893,0,0,1,8.87,8.871,8.893,8.893,0,0,1-8.87,8.87,8.893,8.893,0,0,1-8.87-8.87A8.893,8.893,0,0,1-2256.659,4426.3Z" transform="translate(2292.926 -4398.899)" fill="#869ab8"></path><g transform="translate(57.403 11.311)"><path d="M-1322.062,4265.807l5.029,5.009a2.057,2.057,0,0,1,.658,1.528,2.21,2.21,0,0,1-2.185,2.186,2.2,2.2,0,0,1-1.549-.638l-5.029-5.007-5.029,4.965a2.083,2.083,0,0,1-1.549.637,2.2,2.2,0,0,1-2.186-2.186v-23.895a2.211,2.211,0,0,1,2.186-2.186,2.2,2.2,0,0,1,2.186,2.186v18.674l9.4-9.358a2.188,2.188,0,0,1,1.549-.636,2.2,2.2,0,0,1,2.186,2.186,2.1,2.1,0,0,1-.658,1.528l-5.008,5.008" transform="translate(1333.903 -4246.22)" fill="#869ab8"></path></g><g transform="translate(71.685 27.63)"><path d="M-1090.928,4536.28v-15.236a2.211,2.211,0,0,1,2.186-2.186,2.2,2.2,0,0,1,2.185,2.186v15.236a6.557,6.557,0,0,1-6.557,6.537,2.2,2.2,0,0,1-2.186-2.186,2.21,2.21,0,0,1,2.186-2.185,2.192,2.192,0,0,0,2.186-2.166" transform="translate(1095.299 -4518.858)" fill="#869ab8"></path></g><path d="M-998.267,4420.651a2,2,0,0,1,2.016,2.017,2.011,2.011,0,0,1-1.995,2.016h-.021a2.011,2.011,0,0,1-2.016-2v-.021a2,2,0,0,1,2.016-2.017" transform="translate(1077.656 -4398.899)" fill="#869ab8"></path><path d="M-1099.6,4326.344a2,2,0,0,1,2.016,2.017,2.011,2.011,0,0,1-1.995,2.016h-.021a2.012,2.012,0,0,1-2.016-2v-.021a2.016,2.016,0,0,1,2.016-2.017h0m-6.452,0a2,2,0,0,1,2.016,2.017,2,2,0,0,1-2.016,2.016,2.011,2.011,0,0,1-2.016-2v-.021a2.03,2.03,0,0,1,2.016-2.017h0m11.269,5.645a2.011,2.011,0,0,1,2.016,2V4334a2.011,2.011,0,0,1-1.995,2.017h-.021a2.011,2.011,0,0,1-2.016-1.994V4334a2.015,2.015,0,0,1,2.016-2.016h0m5.645,0a2,2,0,0,1,2.016,2.016,2.011,2.011,0,0,1-1.995,2.017h-.021a2.01,2.01,0,0,1-2.016-1.994V4334a2,2,0,0,1,2.016-2.016m-5.645-5.645a2,2,0,0,1,2.016,2.017,2.011,2.011,0,0,1-1.995,2.016h-.021a2.012,2.012,0,0,1-2.016-2v-.021a2.03,2.03,0,0,1,2.016-2.017h0m5.645,0a2,2,0,0,1,2.016,2.017,2,2,0,0,1-2.016,2.016,2.011,2.011,0,0,1-2.016-2v-.021a2.029,2.029,0,0,1,2.016-2.017h0" transform="translate(1178.984 -4310.237)" fill="#869ab8"></path><path d="M-998.273,4245.51a2,2,0,0,1,2.016,2.016,2.011,2.011,0,0,1-1.995,2.016h-.021a2.011,2.011,0,0,1-2.016-1.995v-.021a2.014,2.014,0,0,1,2.016-2.016h0m4.817,0a2,2,0,0,1,2.016,2.016,2.011,2.011,0,0,1-1.995,2.016h-.021a2.011,2.011,0,0,1-2.016-1.995v-.021a2.028,2.028,0,0,1,2.016-2.016h0m5.645,0a2,2,0,0,1,2.016,2.016,2,2,0,0,1-2.016,2.016,2.011,2.011,0,0,1-2.016-1.995v-.021a2.028,2.028,0,0,1,2.016-2.016h0" transform="translate(1077.661 -4234.241)" fill="#869ab8"></path><path d="M-917.788,4151.558a2.01,2.01,0,0,1,2.016,1.994v.022a2.011,2.011,0,0,1-1.995,2.016h-.021a2.011,2.011,0,0,1-2.016-2v-.021a2,2,0,0,1,2.016-2.016h0" transform="translate(1001.994 -4145.913)" fill="#869ab8"></path><path d="M-917.788,4057.251a2.011,2.011,0,0,1,2.016,2v.021a2.011,2.011,0,0,1-1.995,2.016h-.021a2.011,2.011,0,0,1-2.016-2v-.021a2.015,2.015,0,0,1,2.016-2.016h0" transform="translate(1001.994 -4057.251)" fill="#869ab8"></path><path d="M-823.481,4151.558a2,2,0,0,1,2.016,2.016,2.011,2.011,0,0,1-1.995,2.016h-.021a2.011,2.011,0,0,1-2.016-2v-.021a2,2,0,0,1,2.016-2.016" transform="translate(913.332 -4145.913)" fill="#869ab8"></path><path d="M-911.173,4528.378a4.412,4.412,0,0,1-4.244-4.711,4.358,4.358,0,0,1,4.244-4.181,4.358,4.358,0,0,1,4.244,4.181,4.412,4.412,0,0,1-4.244,4.711Zm8.488-4.436c0-6.494-6.812-10.886-12.351-7.916-5.327,2.844-6.175,10.675-1.613,14.707a8.24,8.24,0,0,0,9.91.764,2.1,2.1,0,0,0,2.716,1.146,2.212,2.212,0,0,0,1.061-.955,2.73,2.73,0,0,0,.276-1.083Z" transform="translate(1001.808 -4487.676)" fill="#869ab8"></path></g></g></svg>