<svg xmlns="http://www.w3.org/2000/svg" width="84" height="60" viewBox="0 0 84 60"><g transform="translate(-22.523)"><g transform="translate(22.523)" fill="#fff" stroke="#707070" stroke-width="1" opacity="0"><rect width="84" height="60" stroke="none"></rect><rect x="0.5" y="0.5" width="83" height="59" fill="none"></rect></g><g transform="translate(32.888 1.977)"><g transform="translate(0 34.149)"><g transform="translate(0 0.229)"><path d="M5.913,777.307a5.746,5.746,0,0,1-4.277-1.659A6.028,6.028,0,0,1,0,771.223v-.342a7.4,7.4,0,0,1,.715-3.305,5.41,5.41,0,0,1,2.006-2.266A5.306,5.306,0,0,1,5.6,764.5a4.844,4.844,0,0,1,3.9,1.61,6.806,6.806,0,0,1,1.376,4.555v1.12H2.8A3.709,3.709,0,0,0,3.818,774.2a3.067,3.067,0,0,0,2.253.89,3.755,3.755,0,0,0,3.107-1.542l1.5,1.425A4.974,4.974,0,0,1,8.692,776.7,6.153,6.153,0,0,1,5.913,777.307Zm-.328-10.586a2.33,2.33,0,0,0-1.844.8,4.134,4.134,0,0,0-.895,2.226H8.135v-.207a3.389,3.389,0,0,0-.742-2.1A2.334,2.334,0,0,0,5.585,766.722Z" transform="translate(0 -764.5)" fill="#869ab8"></path></g><g transform="translate(12.272 0.225)"><path d="M280.387,773.627a1.249,1.249,0,0,0-.612-1.129,6.471,6.471,0,0,0-2.028-.684,10.392,10.392,0,0,1-2.365-.756,3.158,3.158,0,0,1-2.073-2.914,3.285,3.285,0,0,1,1.349-2.671,5.337,5.337,0,0,1,3.427-1.075,5.53,5.53,0,0,1,3.579,1.1,3.475,3.475,0,0,1,1.363,2.842h-2.775a1.717,1.717,0,0,0-.594-1.331,2.268,2.268,0,0,0-1.574-.531,2.442,2.442,0,0,0-1.488.423,1.335,1.335,0,0,0-.576,1.129,1.131,1.131,0,0,0,.535.994,7.543,7.543,0,0,0,2.167.715,10.35,10.35,0,0,1,2.563.854,3.652,3.652,0,0,1,1.381,1.192,3.04,3.04,0,0,1,.45,1.691,3.211,3.211,0,0,1-1.381,2.7,5.9,5.9,0,0,1-3.62,1.034,6.413,6.413,0,0,1-2.707-.549,4.441,4.441,0,0,1-1.848-1.506,3.567,3.567,0,0,1-.661-2.069h2.694a1.93,1.93,0,0,0,.742,1.511,2.908,2.908,0,0,0,1.817.531,2.811,2.811,0,0,0,1.668-.418A1.257,1.257,0,0,0,280.387,773.627Z" transform="translate(-272.9 -764.4)" fill="#869ab8"></path></g><g transform="translate(24.189 0.229)"><path d="M543.5,775.095a2.494,2.494,0,0,0,1.722-.607,2.051,2.051,0,0,0,.729-1.5h2.613a4.085,4.085,0,0,1-.72,2.154,4.75,4.75,0,0,1-1.826,1.583,5.458,5.458,0,0,1-2.491.58,5.264,5.264,0,0,1-4.11-1.677,6.659,6.659,0,0,1-1.52-4.636v-.283a6.552,6.552,0,0,1,1.507-4.515,5.221,5.221,0,0,1,4.11-1.7,5.071,5.071,0,0,1,3.593,1.286,4.6,4.6,0,0,1,1.457,3.373h-2.613a2.552,2.552,0,0,0-.724-1.745,2.328,2.328,0,0,0-1.731-.684,2.434,2.434,0,0,0-2.077.976,5,5,0,0,0-.742,2.964v.445a5.094,5.094,0,0,0,.724,3A2.48,2.48,0,0,0,543.5,775.095Z" transform="translate(-537.9 -764.5)" fill="#869ab8"></path></g><g transform="translate(36.375 0.225)"><path d="M816.675,776.982a4.22,4.22,0,0,1-.319-1.151,4.315,4.315,0,0,1-3.242,1.38,4.359,4.359,0,0,1-3.035-1.061,3.4,3.4,0,0,1-1.178-2.626,3.507,3.507,0,0,1,1.466-3.031,7.094,7.094,0,0,1,4.2-1.057h1.7v-.81a2.185,2.185,0,0,0-.535-1.538,2.14,2.14,0,0,0-1.632-.576,2.435,2.435,0,0,0-1.552.472,1.466,1.466,0,0,0-.607,1.205h-2.774a3.075,3.075,0,0,1,.674-1.9,4.477,4.477,0,0,1,1.835-1.385,6.469,6.469,0,0,1,2.586-.5,5.188,5.188,0,0,1,3.458,1.088,3.911,3.911,0,0,1,1.327,3.067v5.572a6.369,6.369,0,0,0,.467,2.662v.193Zm-3.049-2a3.161,3.161,0,0,0,1.547-.4,2.665,2.665,0,0,0,1.088-1.075v-2.329h-1.5a4.1,4.1,0,0,0-2.316.535,1.743,1.743,0,0,0-.778,1.52,1.611,1.611,0,0,0,.531,1.273A2.063,2.063,0,0,0,813.626,774.985Z" transform="translate(-808.9 -764.4)" fill="#869ab8"></path></g><g transform="translate(51.943)"><path d="M1162.875,771.982a4.235,4.235,0,0,1-.319-1.151,4.314,4.314,0,0,1-3.242,1.381,4.36,4.36,0,0,1-3.035-1.061,3.4,3.4,0,0,1-1.178-2.626,3.507,3.507,0,0,1,1.466-3.031,7.093,7.093,0,0,1,4.2-1.057h1.7v-.809a2.185,2.185,0,0,0-.535-1.538,2.14,2.14,0,0,0-1.632-.576,2.435,2.435,0,0,0-1.552.472,1.466,1.466,0,0,0-.607,1.205h-2.775a3.074,3.074,0,0,1,.675-1.9,4.48,4.48,0,0,1,1.834-1.385,6.47,6.47,0,0,1,2.586-.5,5.188,5.188,0,0,1,3.458,1.088,3.911,3.911,0,0,1,1.327,3.067v5.572a6.366,6.366,0,0,0,.468,2.662v.193Zm-3.049-2a3.16,3.16,0,0,0,1.547-.4,2.667,2.667,0,0,0,1.088-1.075v-2.329h-1.5a4.1,4.1,0,0,0-2.316.535,1.743,1.743,0,0,0-.778,1.52,1.611,1.611,0,0,0,.531,1.273A2.054,2.054,0,0,0,1159.826,769.981Z" transform="translate(-1155.1 -759.4)" fill="#869ab8"></path></g></g><g transform="translate(40.062 47.756)"><path d="M896.548,1070.288h-5.5v-.936l2.721-2.968a6.882,6.882,0,0,0,.841-1.1,1.78,1.78,0,0,0,.252-.886,1.342,1.342,0,0,0-.328-.944,1.145,1.145,0,0,0-.886-.36,1.308,1.308,0,0,0-1.025.4,1.593,1.593,0,0,0-.364,1.106H890.9a2.644,2.644,0,0,1,.342-1.344,2.336,2.336,0,0,1,.971-.931,3.105,3.105,0,0,1,1.457-.333,2.746,2.746,0,0,1,1.875.6,2.078,2.078,0,0,1,.688,1.655,2.8,2.8,0,0,1-.346,1.281,7.441,7.441,0,0,1-1.129,1.524l-2,2.136h3.8v1.093Z" transform="translate(-890.9 -1062)" fill="#869ab8"></path><path d="M1035.333,1069.761h1.016v1.093h-1.016v1.817h-1.363v-1.817h-3.53l-.04-.832,3.526-5.522h1.408Zm-3.5,0h2.136v-3.413l-.1.18Z" transform="translate(-1024.127 -1064.388)" fill="#869ab8"></path><path d="M1173.707,1113.3l1.156-2h1.515l-1.857,2.99,1.92,3.08h-1.5l-1.214-2.078-1.205,2.078H1171l1.92-3.08-1.852-2.99h1.5Z" transform="translate(-1158.404 -1109.083)" fill="#869ab8"></path><path d="M1307.961,1065.456l-3.265,7.415h-1.43l3.26-7.078H1302.3V1064.7h5.661Z" transform="translate(-1283.8 -1064.578)" fill="#869ab8"></path></g><g transform="translate(44.186 6.147)"><path d="M985.307,136.7v29.625c-.068-.054-.139-.108-.211-.157a10.258,10.258,0,0,0-2.5-1.228V136.7Z" transform="translate(-982.6 -136.7)" fill="#869ab8"></path></g><g transform="translate(47.995)"><rect width="3.427" height="47.271" fill="#869ab8"></rect></g><g transform="translate(40.314 13.135)"><path d="M899.252,292.1v20.978c.162-.049-.387-.076-.962-.076a16.291,16.291,0,0,0-1.79.094v-21Z" transform="translate(-896.5 -292.1)" fill="#869ab8"></path></g><g transform="translate(36.663 18.307)"><path d="M818.093,407.1v15.865c.009.063-.6.207-1.151.544a7.739,7.739,0,0,0-1.641,1.43V407.1Z" transform="translate(-815.3 -407.1)" fill="#869ab8"></path></g></g></g></svg>