<svg xmlns="http://www.w3.org/2000/svg" width="130" height="60" viewBox="0 0 130 60"><g transform="translate(-535 -112)"><g transform="translate(535 112)" fill="#fff" stroke="#707070" stroke-width="1" opacity="0"><rect width="130" height="60" stroke="none"></rect><rect x="0.5" y="0.5" width="129" height="59" fill="none"></rect></g><g transform="translate(536.454 124.18)"><path d="M-2973.4,243.3a5.4,5.4,0,0,0,5.233-5.363,5.389,5.389,0,0,0-5.156-5.388,5.459,5.459,0,0,0-5.646,5.388,5.435,5.435,0,0,0,5.57,5.363Zm5.285.13a7.005,7.005,0,0,1-5.39,2.357,7.857,7.857,0,0,1-7.9-7.876,7.848,7.848,0,0,1,7.821-7.824,7.731,7.731,0,0,1,7.9,8.109v8.781a7.122,7.122,0,0,1-7.021,6.995,7.358,7.358,0,0,1-7.41-7.408h2.487a4.842,4.842,0,0,0,4.794,4.922,4.717,4.717,0,0,0,4.715-4.637Z" transform="translate(2981.406 -222.108)" fill="#869ab8"></path><rect width="2.514" height="23.317" transform="translate(19.306 0)" fill="#869ab8"></rect><path d="M-2666.369,241.764a5.39,5.39,0,0,0,5.157-5.388,5.389,5.389,0,0,0-5.287-5.337,5.4,5.4,0,0,0-5.493,5.285,5.465,5.465,0,0,0,5.623,5.44Zm-.234-13.264a7.957,7.957,0,0,1,7.928,7.823,7.972,7.972,0,0,1-7.876,8.031,8.029,8.029,0,0,1-7.925-8.109,7.926,7.926,0,0,1,7.873-7.746Z" transform="translate(2699.515 -220.651)" fill="#869ab8"></path><path d="M-2440.561,142.459a5.358,5.358,0,0,0-5.23,5.336,5.348,5.348,0,0,0,5.128,5.389,5.451,5.451,0,0,0,5.674-5.389,5.431,5.431,0,0,0-5.572-5.336Zm8.006,5.389a7.867,7.867,0,0,1-7.824,7.823,7.731,7.731,0,0,1-7.9-8.108V132.278h2.436V142.33a6.994,6.994,0,0,1,5.387-2.358,7.86,7.86,0,0,1,7.9,7.876Z" transform="translate(2491.77 -132.278)" fill="#869ab8"></path><path d="M-2219.449,237.057h10.492a5.283,5.283,0,0,0-5.26-4.171,5.235,5.235,0,0,0-5.232,4.171Zm12.772,3.42a7.747,7.747,0,0,1-7.851,5.6,7.78,7.78,0,0,1-7.563-7.978,7.879,7.879,0,0,1,7.927-7.695,7.688,7.688,0,0,1,7.643,6.762,2.192,2.192,0,0,1-.415,1.683,2.749,2.749,0,0,1-1.891.649h-10.594a5.27,5.27,0,0,0,5.205,4.067,5.329,5.329,0,0,0,4.923-3.083Z" transform="translate(2284.034 -222.395)" fill="#869ab8"></path><path d="M-1990.72,164.031h-2.951v8.627a1.485,1.485,0,0,0,.776,1.269,1.936,1.936,0,0,0,1.322.284h.881v2.332a5.381,5.381,0,0,1-3.652-.518c-1.452-.959-1.866-2.41-1.866-4.172V155.145h2.487v6.372h3Z" transform="translate(2076.579 -153.28)" fill="#869ab8"></path><path d="M-1887.69,241.764a5.389,5.389,0,0,0,5.155-5.388,5.387,5.387,0,0,0-5.285-5.337,5.4,5.4,0,0,0-5.494,5.285,5.463,5.463,0,0,0,5.623,5.44Zm-.234-13.264a7.959,7.959,0,0,1,7.929,7.823,7.975,7.975,0,0,1-7.877,8.031,8.032,8.032,0,0,1-7.927-8.109,7.93,7.93,0,0,1,7.876-7.746Z" transform="translate(1984.36 -220.651)" fill="#869ab8"></path><path d="M-1666.962,244.2h-2.306v-9.845a5.523,5.523,0,0,1,5.439-5.518,5.142,5.142,0,0,1,4.587,2.2,5.121,5.121,0,0,1,4.584-2.254,5.462,5.462,0,0,1,5.44,5.389V244.2h-2.384v-9.74a3.268,3.268,0,0,0-3.056-3.29,3.339,3.339,0,0,0-3.368,3.42V244.2h-2.486v-9.611a3.31,3.31,0,0,0-3.083-3.369,3.45,3.45,0,0,0-3.368,3.6Z" transform="translate(1776.308 -220.914)" fill="#869ab8"></path><path d="M-2747.606,489.939h.671v.939h.62v.589h-.62v2.386a.292.292,0,0,0,.068.22.392.392,0,0,0,.261.063h.306v.618c-.05,0-.112.008-.184.008h-.226a.983.983,0,0,1-.706-.194.9.9,0,0,1-.19-.642v-2.46h-.536v-.589h.536Z" transform="translate(2767.171 -460.762)" fill="#869ab8"></path><path d="M-2715.448,502.093a1.2,1.2,0,0,0-.406-.8,1.279,1.279,0,0,0-.875-.313,1.187,1.187,0,0,0-.874.306,1.377,1.377,0,0,0-.388.67.681.681,0,0,0-.01.072.43.43,0,0,1-.012.063Zm.588,1.484a2.581,2.581,0,0,1-.817.633,2.161,2.161,0,0,1-.935.2,1.972,1.972,0,0,1-1.576-.627,2.089,2.089,0,0,1-.541-1.4,2.044,2.044,0,0,1,.55-1.428,1.873,1.873,0,0,1,1.457-.6,1.88,1.88,0,0,1,1.467.63,2.39,2.39,0,0,1,.567,1.659h-3.325a1.354,1.354,0,0,0,.455.823,1.385,1.385,0,0,0,.939.324,1.436,1.436,0,0,0,.674-.164,1.875,1.875,0,0,0,.572-.462Z" transform="translate(2740.158 -470.329)" fill="#869ab8"></path><path d="M-2658.249,501.368a1.414,1.414,0,0,0-.424-.29,1.178,1.178,0,0,0-.477-.1,1.276,1.276,0,0,0-.891.362,1.394,1.394,0,0,0-.392,1.077,1.342,1.342,0,0,0,.385.981,1.293,1.293,0,0,0,.964.391,1.008,1.008,0,0,0,.467-.115,1.651,1.651,0,0,0,.4-.28l.4.492a1.585,1.585,0,0,1-.615.4,2.135,2.135,0,0,1-.726.127,1.843,1.843,0,0,1-1.438-.6,2.034,2.034,0,0,1-.544-1.409,2.01,2.01,0,0,1,.578-1.438,1.876,1.876,0,0,1,1.411-.6,1.985,1.985,0,0,1,.779.146,2.375,2.375,0,0,1,.564.317l.011.011a.072.072,0,0,0,.012.011Z" transform="translate(2687.274 -470.328)" fill="#869ab8"></path><path d="M-2608.945,483.022a1.417,1.417,0,0,0-.2-.764.757.757,0,0,0-.7-.324.926.926,0,0,0-.737.306,1.256,1.256,0,0,0-.27.857v2.185h-.669v-5.666h.669v2.237h.016a.97.97,0,0,1,.447-.4,1.425,1.425,0,0,1,.619-.142,1.725,1.725,0,0,1,1.032.336,1.294,1.294,0,0,1,.464,1.125v2.512h-.669Z" transform="translate(2641.698 -451.28)" fill="#869ab8"></path><path d="M-2556.5,502.069a1.424,1.424,0,0,0-.2-.764.759.759,0,0,0-.7-.324.937.937,0,0,0-.74.306,1.259,1.259,0,0,0-.268.857v2.185h-.671v-3.884h.671v.455h.015a.986.986,0,0,1,.448-.4,1.427,1.427,0,0,1,.619-.142,1.723,1.723,0,0,1,1.032.336,1.292,1.292,0,0,1,.466,1.125v2.512h-.672Z" transform="translate(2593.534 -470.328)" fill="#869ab8"></path><path d="M-2506.316,501.386a1.344,1.344,0,0,0-.413,1.006,1.352,1.352,0,0,0,.413.98,1.319,1.319,0,0,0,.974.422,1.32,1.32,0,0,0,.972-.422,1.354,1.354,0,0,0,.413-.98,1.346,1.346,0,0,0-.413-1.006,1.348,1.348,0,0,0-.972-.4,1.347,1.347,0,0,0-.974.4Zm-.537-.422a2.023,2.023,0,0,1,1.511-.607,2.021,2.021,0,0,1,1.51.607,1.983,1.983,0,0,1,.593,1.427,1.977,1.977,0,0,1-.576,1.428,2.025,2.025,0,0,1-1.527.593,2.031,2.031,0,0,1-1.524-.593,1.97,1.97,0,0,1-.578-1.428,1.98,1.98,0,0,1,.592-1.427Z" transform="translate(2546.109 -470.33)" fill="#869ab8"></path><path d="M-2443.993,479.615v4.45a.622.622,0,0,0,.135.459.42.42,0,0,0,.3.13h.2v.626h-.276a1.026,1.026,0,0,1-.746-.276,1.2,1.2,0,0,1-.282-.887v-4.5Z" transform="translate(2488.45 -451.28)" fill="#869ab8"></path><path d="M-2421.881,501.386a1.338,1.338,0,0,0-.416,1.006,1.346,1.346,0,0,0,.416.98,1.315,1.315,0,0,0,.973.422,1.32,1.32,0,0,0,.973-.422,1.36,1.36,0,0,0,.412-.98,1.351,1.351,0,0,0-.412-1.006,1.348,1.348,0,0,0-.973-.4,1.343,1.343,0,0,0-.973.4Zm-.539-.422a2.024,2.024,0,0,1,1.511-.607,2.023,2.023,0,0,1,1.51.607,1.981,1.981,0,0,1,.592,1.427,1.975,1.975,0,0,1-.575,1.428,2.026,2.026,0,0,1-1.527.593,2.03,2.03,0,0,1-1.525-.593,1.976,1.976,0,0,1-.579-1.428,1.985,1.985,0,0,1,.592-1.427Z" transform="translate(2468.564 -470.33)" fill="#869ab8"></path><path d="M-2359.144,501.392a1.318,1.318,0,0,0-.963-.41,1.316,1.316,0,0,0-.984.373,1.438,1.438,0,0,0-.425.813c-.005.035-.007.067-.01.1s0,.06,0,.089a1.315,1.315,0,0,0,.44,1.051,1.439,1.439,0,0,0,.963.38,1.347,1.347,0,0,0,.983-.407,1.337,1.337,0,0,0,.409-.987,1.361,1.361,0,0,0-.409-1Zm.409-.947h.672v3.347a2.256,2.256,0,0,1-.529,1.618,2.216,2.216,0,0,1-1.663.552,2.377,2.377,0,0,1-.966-.2,2.5,2.5,0,0,1-.847-.638l.537-.417a2.321,2.321,0,0,0,.3.3,2.02,2.02,0,0,0,.309.2,1.7,1.7,0,0,0,.352.12,1.547,1.547,0,0,0,.327.037,1.549,1.549,0,0,0,1.145-.369,1.382,1.382,0,0,0,.36-1.009v-.277h-.014a1.86,1.86,0,0,1-.6.489,2.059,2.059,0,0,1-.894.161,1.786,1.786,0,0,1-1.312-.488,2.255,2.255,0,0,1-.633-1.078c-.015-.074-.029-.149-.038-.223a1.531,1.531,0,0,1-.015-.224,1.9,1.9,0,0,1,.6-1.42,1.982,1.982,0,0,1,1.42-.578h.045a2,2,0,0,1,.813.187,1.5,1.5,0,0,1,.618.514h.014v-.611Z" transform="translate(2412.755 -470.328)" fill="#869ab8"></path><path d="M-2300.4,501.455l-1.26,3-1.245-3h-.76l1.618,3.824-.725,1.7h.7l2.385-5.524Z" transform="translate(2358.949 -471.338)" fill="#869ab8"></path><path d="M-2225.874,480.3a1.088,1.088,0,0,1,.376-.91,1.637,1.637,0,0,1,.959-.328v.671h-.135a.466.466,0,0,0-.392.179.705.705,0,0,0-.138.44v.537h.633v.588h-.633v3.3h-.67v-3.3h-.59v-.588h.59Z" transform="translate(2288.05 -450.777)" fill="#869ab8"></path><path d="M-2194.531,501.386a1.345,1.345,0,0,0-.413,1.006,1.354,1.354,0,0,0,.413.98,1.323,1.323,0,0,0,.974.422,1.318,1.318,0,0,0,.973-.422,1.353,1.353,0,0,0,.413-.98,1.345,1.345,0,0,0-.413-1.006,1.347,1.347,0,0,0-.973-.4,1.351,1.351,0,0,0-.974.4Zm-.536-.422a2.023,2.023,0,0,1,1.51-.607,2.02,2.02,0,0,1,1.51.607,1.98,1.98,0,0,1,.593,1.427,1.973,1.973,0,0,1-.574,1.428,2.029,2.029,0,0,1-1.528.593,2.037,2.037,0,0,1-1.525-.593,1.974,1.974,0,0,1-.578-1.428,1.981,1.981,0,0,1,.593-1.427Z" transform="translate(2259.759 -470.33)" fill="#869ab8"></path><path d="M-2131.771,500.445h.671V501h.014c.011-.015.02-.031.031-.049s.019-.033.028-.048a.97.97,0,0,1,.5-.463,2.282,2.282,0,0,1,.667-.082v.708c-.051-.01-.1-.019-.15-.026a1.036,1.036,0,0,0-.157-.011.87.87,0,0,0-.675.283,1.17,1.17,0,0,0-.257.812v2.207h-.671Z" transform="translate(2201.081 -470.328)" fill="#869ab8"></path><path d="M-2072.389,483.216c0-.03-.007-.062-.011-.1a1.43,1.43,0,0,0-.424-.813,1.317,1.317,0,0,0-.984-.373,1.32,1.32,0,0,0-.958.41,1.356,1.356,0,0,0-.414,1,1.352,1.352,0,0,0,.41.992,1.342,1.342,0,0,0,.984.41,1.426,1.426,0,0,0,.965-.383,1.332,1.332,0,0,0,.437-1.055.779.779,0,0,0,0-.089Zm-3.463-3.6h.671v2.393h.015a1.492,1.492,0,0,1,.619-.514,2,2,0,0,1,.812-.187h.045a1.985,1.985,0,0,1,1.42.574,1.885,1.885,0,0,1,.6,1.417,1.944,1.944,0,0,1-.619,1.491,2.045,2.045,0,0,1-1.431.574,1.832,1.832,0,0,1-.864-.19,1.648,1.648,0,0,1-.582-.487h-.015v.6h-.671Z" transform="translate(2149.724 -451.28)" fill="#869ab8"></path><path d="M-2011.318,504.881h-.014a.963.963,0,0,1-.444.4,1.449,1.449,0,0,1-.623.138,1.739,1.739,0,0,1-1.033-.332,1.282,1.282,0,0,1-.466-1.122v-2.513h.671v2.259a1.428,1.428,0,0,0,.2.761.757.757,0,0,0,.7.328.928.928,0,0,0,.737-.306,1.253,1.253,0,0,0,.268-.858v-2.184h.671v3.884h-.671Z" transform="translate(2092.824 -471.336)" fill="#869ab8"></path><path d="M-1963.564,503.2a.641.641,0,0,0,.268.473.924.924,0,0,0,.537.161.877.877,0,0,0,.518-.124.6.6,0,0,0,.22-.264.477.477,0,0,0,.022-.09.5.5,0,0,0,.009-.083.407.407,0,0,0-.146-.319,1.422,1.422,0,0,0-.541-.231l-.678-.187a1.016,1.016,0,0,1-.612-.388,1.073,1.073,0,0,1-.178-.611,1.12,1.12,0,0,1,.353-.831,1.416,1.416,0,0,1,1.033-.347,1.269,1.269,0,0,1,.994.339,1.248,1.248,0,0,1,.334.749.389.389,0,0,1,.006.06v.06h-.626a.766.766,0,0,0-.213-.492.719.719,0,0,0-.51-.165.757.757,0,0,0-.511.165.5.5,0,0,0-.189.4.426.426,0,0,0,.1.283.668.668,0,0,0,.332.186l.909.26a1.127,1.127,0,0,1,.638.389,1.075,1.075,0,0,1,.175.627,1.025,1.025,0,0,1-.435.894,1.66,1.66,0,0,1-.974.306,1.57,1.57,0,0,1-1.062-.332,1.153,1.153,0,0,1-.4-.883Z" transform="translate(2047.172 -470.328)" fill="#869ab8"></path><path d="M-1920.1,482.319h.671V486.2h-.671Zm0-1.562a.447.447,0,0,1,.332-.138.451.451,0,0,1,.331.138.452.452,0,0,1,.137.332.45.45,0,0,1-.137.332.452.452,0,0,1-.331.138.449.449,0,0,1-.332-.138.452.452,0,0,1-.138-.332.453.453,0,0,1,.138-.332Z" transform="translate(2006.797 -452.203)" fill="#869ab8"></path><path d="M-1894.615,502.069a1.417,1.417,0,0,0-.2-.764.758.758,0,0,0-.7-.324.932.932,0,0,0-.738.306,1.255,1.255,0,0,0-.269.857v2.185h-.67v-3.884h.67v.455h.016a.979.979,0,0,1,.447-.4,1.426,1.426,0,0,1,.619-.142,1.721,1.721,0,0,1,1.031.336,1.289,1.289,0,0,1,.466,1.125v2.512h-.671Z" transform="translate(1985.641 -470.328)" fill="#869ab8"></path><path d="M-1843.657,502.093a1.2,1.2,0,0,0-.405-.8,1.279,1.279,0,0,0-.877-.313,1.182,1.182,0,0,0-.873.306,1.379,1.379,0,0,0-.387.67c0,.025-.009.049-.011.072a.387.387,0,0,1-.011.063Zm.589,1.484a2.579,2.579,0,0,1-.816.633,2.167,2.167,0,0,1-.935.2,1.969,1.969,0,0,1-1.577-.627,2.093,2.093,0,0,1-.54-1.4,2.043,2.043,0,0,1,.548-1.428,1.876,1.876,0,0,1,1.457-.6,1.884,1.884,0,0,1,1.469.63,2.392,2.392,0,0,1,.567,1.659h-3.325a1.347,1.347,0,0,0,.454.823,1.381,1.381,0,0,0,.94.324,1.443,1.443,0,0,0,.675-.164,1.886,1.886,0,0,0,.569-.462Z" transform="translate(1939.483 -470.329)" fill="#869ab8"></path><path d="M-1789.307,503.2a.64.64,0,0,0,.267.473.928.928,0,0,0,.538.161.874.874,0,0,0,.517-.124.6.6,0,0,0,.221-.264.594.594,0,0,0,.022-.09.567.567,0,0,0,.007-.083.405.405,0,0,0-.144-.319,1.434,1.434,0,0,0-.541-.231l-.678-.187a1.027,1.027,0,0,1-.613-.388,1.089,1.089,0,0,1-.177-.611,1.121,1.121,0,0,1,.354-.831,1.416,1.416,0,0,1,1.033-.347,1.272,1.272,0,0,1,.994.339,1.232,1.232,0,0,1,.331.749.2.2,0,0,1,.009.06v.06h-.626a.771.771,0,0,0-.212-.492.725.725,0,0,0-.511-.165.75.75,0,0,0-.51.165.5.5,0,0,0-.191.4.427.427,0,0,0,.1.283.67.67,0,0,0,.333.186l.909.26a1.128,1.128,0,0,1,.638.389,1.077,1.077,0,0,1,.175.627,1.026,1.026,0,0,1-.435.894,1.66,1.66,0,0,1-.974.306,1.567,1.567,0,0,1-1.062-.332,1.155,1.155,0,0,1-.4-.883Z" transform="translate(1887.131 -470.328)" fill="#869ab8"></path><path d="M-1746.983,503.2a.641.641,0,0,0,.268.473.927.927,0,0,0,.538.161.879.879,0,0,0,.518-.124.6.6,0,0,0,.22-.264.578.578,0,0,0,.022-.09.537.537,0,0,0,.009-.083.407.407,0,0,0-.146-.319,1.413,1.413,0,0,0-.541-.231l-.678-.187a1.019,1.019,0,0,1-.611-.388,1.069,1.069,0,0,1-.179-.611,1.116,1.116,0,0,1,.354-.831,1.415,1.415,0,0,1,1.032-.347,1.273,1.273,0,0,1,.995.339,1.243,1.243,0,0,1,.332.749.247.247,0,0,1,.007.06v.06h-.625a.768.768,0,0,0-.213-.492.721.721,0,0,0-.51-.165.756.756,0,0,0-.512.165.5.5,0,0,0-.19.4.429.429,0,0,0,.1.283.67.67,0,0,0,.331.186l.911.26a1.127,1.127,0,0,1,.637.389,1.074,1.074,0,0,1,.176.627,1.024,1.024,0,0,1-.436.894,1.656,1.656,0,0,1-.973.306,1.57,1.57,0,0,1-1.062-.332,1.149,1.149,0,0,1-.4-.883Z" transform="translate(1848.258 -470.328)" fill="#869ab8"></path><path d="M-1679.271,503.036v-.026a.742.742,0,0,0-.257-.5,1.2,1.2,0,0,0-.839-.231,1.206,1.206,0,0,0-.834.231.74.74,0,0,0-.261.5v.089a.743.743,0,0,0,.261.5,1.211,1.211,0,0,0,.834.231,1.207,1.207,0,0,0,.839-.231.745.745,0,0,0,.257-.5v-.063Zm-.022-1.308a.607.607,0,0,0-.283-.57,1.451,1.451,0,0,0-.626-.2c-.045,0-.088-.009-.131-.011s-.083,0-.122,0a2.52,2.52,0,0,0-.269.015,1.735,1.735,0,0,0-.268.052,1.831,1.831,0,0,0-.269.082c-.09.035-.178.075-.268.119l-.291-.559a3.415,3.415,0,0,1,.79-.242,3.905,3.905,0,0,1,.611-.056,2.471,2.471,0,0,1,1.25.314,1.073,1.073,0,0,1,.548,1.006v2.654h-.626v-.417a1.506,1.506,0,0,1-.552.383,1.874,1.874,0,0,1-.686.116,1.942,1.942,0,0,1-1.2-.369,1.2,1.2,0,0,1-.492-1.018,1.232,1.232,0,0,1,.436-.931,1.771,1.771,0,0,1,1.248-.4c.05,0,.1,0,.145,0a.849.849,0,0,1,.138.019,1.722,1.722,0,0,1,.478.13,1.652,1.652,0,0,1,.439.288Z" transform="translate(1788.165 -470.329)" fill="#869ab8"></path><path d="M-1625.809,501.392a1.316,1.316,0,0,0-.962-.41,1.315,1.315,0,0,0-.984.373,1.43,1.43,0,0,0-.425.813c-.005.035-.008.067-.011.1s0,.06,0,.089a1.315,1.315,0,0,0,.439,1.051,1.439,1.439,0,0,0,.962.38,1.346,1.346,0,0,0,.984-.407,1.337,1.337,0,0,0,.41-.987,1.359,1.359,0,0,0-.41-1Zm.411-.947h.671v3.347a2.246,2.246,0,0,1-.529,1.618,2.213,2.213,0,0,1-1.662.552,2.379,2.379,0,0,1-.966-.2,2.5,2.5,0,0,1-.846-.638l.537-.417a2.179,2.179,0,0,0,.3.3,1.9,1.9,0,0,0,.308.2,1.692,1.692,0,0,0,.35.12,1.574,1.574,0,0,0,.329.037,1.543,1.543,0,0,0,1.144-.369,1.379,1.379,0,0,0,.362-1.009v-.277h-.016a1.847,1.847,0,0,1-.6.489,2.061,2.061,0,0,1-.894.161,1.787,1.787,0,0,1-1.312-.488,2.266,2.266,0,0,1-.634-1.078c-.015-.074-.027-.149-.038-.223a1.6,1.6,0,0,1-.014-.224,1.894,1.894,0,0,1,.6-1.42,1.979,1.979,0,0,1,1.419-.578h.045a2,2,0,0,1,.812.187,1.491,1.491,0,0,1,.619.514h.016Z" transform="translate(1739.242 -470.328)" fill="#869ab8"></path><path d="M-1564.81,482.319h.671V486.2h-.671Zm0-1.562a.45.45,0,0,1,.331-.138.449.449,0,0,1,.332.138.451.451,0,0,1,.139.332.449.449,0,0,1-.139.332.451.451,0,0,1-.332.138.452.452,0,0,1-.331-.138.453.453,0,0,1-.138-.332.455.455,0,0,1,.138-.332Z" transform="translate(1680.494 -452.203)" fill="#869ab8"></path><path d="M-1541.791,479.615v4.45a.631.631,0,0,0,.134.459.422.422,0,0,0,.3.13h.2v.626h-.275a1.027,1.027,0,0,1-.746-.276,1.194,1.194,0,0,1-.283-.887v-4.5Z" transform="translate(1659.847 -451.28)" fill="#869ab8"></path><path d="M-1520.942,482.319h.671V486.2h-.671Zm0-1.562a.447.447,0,0,1,.331-.138.451.451,0,0,1,.332.138.452.452,0,0,1,.137.332.45.45,0,0,1-.137.332.453.453,0,0,1-.332.138.449.449,0,0,1-.331-.138.452.452,0,0,1-.138-.332.454.454,0,0,1,.138-.332Z" transform="translate(1640.204 -452.203)" fill="#869ab8"></path><path d="M-1502.084,489.939h.67v.939h.62v.589h-.62v2.386a.294.294,0,0,0,.068.22.391.391,0,0,0,.261.063h.305v.618c-.05,0-.111.008-.182.008h-.228a.981.981,0,0,1-.7-.194.9.9,0,0,1-.19-.642v-2.46h-.537v-.589h.537Z" transform="translate(1623.255 -460.762)" fill="#869ab8"></path><path d="M-1473.307,501.455l-1.258,3-1.246-3h-.759l1.617,3.824-.723,1.7h.7l2.385-5.524Z" transform="translate(1599.33 -471.338)" fill="#869ab8"></path></g></g></svg>