<svg xmlns="http://www.w3.org/2000/svg" width="130" height="60" viewBox="0 0 130 60"><g transform="translate(-1585 -192)"><g transform="translate(1585 192)" fill="#fff" stroke="#707070" stroke-width="1" opacity="0"><rect width="130" height="60" stroke="none"></rect><rect x="0.5" y="0.5" width="129" height="59" fill="none"></rect></g><g transform="translate(1587 210)"><path d="M98.643,38.471H96.066c-.286,0-.409,0-.382-.382a8.1,8.1,0,0,0,0-.818h-.123a5.223,5.223,0,0,1-6.818.423,6.491,6.491,0,0,1-1.091-8.972,5.454,5.454,0,0,1,6.641-1.582,10.91,10.91,0,0,1,1.364.941c0-.069.068-.082.068-.109,0-1.05,0-1.05,1.077-1.05H98.7ZM92.5,35.953a3.272,3.272,0,1,0-3.062-3.266A3.272,3.272,0,0,0,92.5,35.953Z" transform="translate(27.501 -21.123)" fill="#869ab8"></path><path d="M23.889,22.59V33.4a1.623,1.623,0,0,1-.532,1.281c-1.108,1.05-2.168,2.141-3.259,3.245a.764.764,0,0,1-.082-.559v-10.4c0-.423-.109-.518-.518-.518H8.59c0-.232.136-.3.246-.409l3.04-3.055c.109-.123.286-.2.313-.4Z" transform="translate(-0.763 -22.586)" fill="#869ab8"></path><path d="M23.869,22.59a3.022,3.022,0,0,1,1.187.887,1.841,1.841,0,1,1-2.5-.6c.15-.1.368-.1.463-.286Z" transform="translate(3.988 -22.586)" fill="#869ab8"></path><path d="M68.229,29.3V23.912c0-.382.082-.518.491-.491h2.045c.341,0,.45.082.45.436V39.089c0,.423-.082.586-.545.559a12.381,12.381,0,0,0-1.882,0c-.5,0-.6-.163-.545-.586v-.6h-.19c-2.359,2.508-6.518,1.527-8.181-1.108a6.477,6.477,0,0,1,1.909-8.891,5.168,5.168,0,0,1,6.286.705A1.434,1.434,0,0,0,68.229,29.3Zm-6.448,4.459a3.191,3.191,0,1,0,3.191-3.232,3.095,3.095,0,0,0-3.191,3.232Z" transform="translate(17.512 -22.285)" fill="#869ab8"></path><path d="M78.9,28.12c0-1.173,0-1.173,1.159-1.173h1.364c.423,0,.423,0,.423.4V38.17c0,.259,0,.368-.355.355H79.332c-.327,0-.478-.069-.436-.436a6.16,6.16,0,0,0,0-.705c-.259,0-.341.163-.45.273a4.54,4.54,0,0,1-3.425,1.227,5.454,5.454,0,0,1-3.491-1.364,6.381,6.381,0,0,1,1.2-10.336,4.882,4.882,0,0,1,5.7.545,2.794,2.794,0,0,0,.466.392Zm-3.149,7.868a3.272,3.272,0,1,0-3.218-3.259,3.123,3.123,0,0,0,3.218,3.259Z" transform="translate(21.353 -21.162)" fill="#869ab8"></path><path d="M6.708,28.27V39.287c0,.409.109.5.491.491H18.113c0,.219-.163.3-.259.4-1.05,1.064-2.116,2.1-3.15,3.163a.941.941,0,0,1-.736.313H3.313c-.409,0-.463-.136-.463-.5V32.483a.655.655,0,0,1,.2-.491Z" transform="translate(-2.85 -20.521)" fill="#869ab8"></path><path d="M29.076,28.18A4.254,4.254,0,0,1,32.9,26.6a4.091,4.091,0,0,1,3.954,3.9c.15,2.537,0,5.072.1,7.609,0,.313-.1.4-.4.382H34.353c-.341,0-.436-.1-.436-.436V32.12a5.63,5.63,0,0,0,0-.682,2.1,2.1,0,0,0-1.991-2.072A2.427,2.427,0,0,0,29.294,31a4.882,4.882,0,0,0-.19,1.364v5.577c0,.382,0,.559-.5.532H26.553c-.3,0-.423,0-.423-.409V27.293c0-.3,0-.423.4-.409h2.045c.423,0,.572.109.5.518C29.062,27.621,29.076,27.809,29.076,28.18Z" transform="translate(5.614 -21.14)" fill="#869ab8"></path><path d="M51.422,37.172A4.4,4.4,0,0,1,43.758,35.4a14.608,14.608,0,0,1-.177-2.727V27.313c0-.45.136-.559.559-.532a15.5,15.5,0,0,0,1.95,0c.463,0,.532.136.532.559v6.3a2.086,2.086,0,0,0,1.895,2.25,2.387,2.387,0,0,0,2.727-1.65,4.008,4.008,0,0,0,.15-1.145c0-1.922,0-3.845,0-5.782,0-.45.136-.559.559-.532H54c.3,0,.382.1.382.4V38c0,.259,0,.368-.341.355H51.776c-.327,0-.4-.109-.368-.4A7.238,7.238,0,0,0,51.422,37.172Z" transform="translate(11.957 -21.064)" fill="#869ab8"></path><path d="M12.862,26.82H14.43c.286,0,.355.1.355.368v3.037c0,.368.109.478.478.463h2.946c.368,0,.478.123.463.478V34.1c0,.341-.082.463-.436.45H15.289c-.382,0-.518.082-.5.491v3c0,.286-.069.382-.368.382h-3.11c-.341,0-.4-.136-.382-.436V35c0-.341-.1-.463-.436-.45h-3c-.327,0-.409-.1-.409-.423V31.143c0-.341.082-.45.436-.45h2.946c.368,0,.478-.109.463-.478V27.229c0-.327.109-.423.423-.409S12.425,26.82,12.862,26.82Z" transform="translate(-1.312 -21.048)" fill="#869ab8"></path><path d="M40.31,26.583A4.936,4.936,0,0,1,44.4,28.669c.2.286.177.423-.15.586A13.159,13.159,0,0,0,42.7,30.1c-.409.259-.655.273-.982-.15a1.841,1.841,0,0,0-2.127-.6.832.832,0,0,0-.682.764.722.722,0,0,0,.6.806c1.037.355,2.072.655,3.082,1.05a3.355,3.355,0,0,1,1.813,4.909,3.764,3.764,0,0,1-2.264,1.677,6.409,6.409,0,0,1-4.363-.177,4.486,4.486,0,0,1-2.291-1.991c-.136-.232-.123-.355.136-.491.668-.368,1.364-.736,2-1.131.219-.136.313-.082.436.136a2.5,2.5,0,0,0,3.04,1.064.9.9,0,0,0,.668-.736.841.841,0,0,0-.532-.806,15.7,15.7,0,0,0-2.072-.764c-.45-.15-.9-.286-1.364-.463a2.946,2.946,0,0,1-1.991-2.646,3.218,3.218,0,0,1,1.364-3.068,4.827,4.827,0,0,1,3.136-.9Z" transform="translate(8.983 -21.138)" fill="#869ab8"></path><path d="M81.871,33.688V30.961c0-.368-.123-.463-.45-.436s-.845,0-1.254,0-.313-.069-.313-.3V27.974c0-.273.109-.327.34-.327H81.4c.409,0,.5-.123.45-.463h0c0-.614-.246-1.364.1-1.786s1.108-.423,1.69-.6c.382-.109.927-.4,1.118-.246s.082.764.1,1.187a15.007,15.007,0,0,1,0,1.569c0,.3.109.4.4.382h1.845c.286,0,.368.082.355.355v2.155c0,.327-.123.368-.4.355H85.266c-.3,0-.4.082-.4.382v4.513c0,.75.327,1.05,1.108,1.108a9.951,9.951,0,0,0,1.108,0c.259,0,.368.082.368.368v2.045c0,.2,0,.327-.286.341a7.282,7.282,0,0,1-3.425-.273,2.727,2.727,0,0,1-1.786-2.537V33.768Z" transform="translate(25.142 -21.889)" fill="#869ab8"></path><path d="M56.51,28.48a4.091,4.091,0,0,1,2.933-1.8c.423,0,.655,0,.614.518v2.317c0,.313-.1.423-.409.436a6.549,6.549,0,0,0-1.241.2,2.468,2.468,0,0,0-1.813,2.317c-.1,1.827,0,3.668,0,5.454,0,.4-.109.5-.491.478H54.057c-.3,0-.436,0-.436-.382V27.2c0-.3.109-.382.4-.368h2.155c.3,0,.45,0,.423.4A11.738,11.738,0,0,0,56.51,28.48Z" transform="translate(15.609 -21.099)" fill="#869ab8"></path><path d="M21.93,32.616v-5.36c0-.341.1-.45.436-.436h2.153c.273,0,.368.069.368.355V38.083c0,.273-.1.368-.368.355h-2.1c-.382,0-.5-.082-.491-.478C21.944,36.147,21.93,34.375,21.93,32.616Z" transform="translate(4.087 -21.048)" fill="#869ab8"></path></g></g></svg>