<svg xmlns="http://www.w3.org/2000/svg" width="130" height="60" viewBox="0 0 130 60"><g transform="translate(-1285 -112)"><g transform="translate(1285 112)" fill="#fff" stroke="#707070" stroke-width="1" opacity="0"><rect width="130" height="60" stroke="none"></rect><rect x="0.5" y="0.5" width="129" height="59" fill="none"></rect></g><g transform="translate(1287.007 120.18)"><path d="M15.146,46.347l13.527-3.614a2.582,2.582,0,0,1,1.514-.068,2.286,2.286,0,0,1,.861.86l4.165,5.714a2.293,2.293,0,0,0,.86.86,2.572,2.572,0,0,0,1.514-.07l13.492-3.613V21.291L37.553,24.9a2.576,2.576,0,0,1-1.514.069,2.3,2.3,0,0,1-.86-.861L31.012,18.4a2.285,2.285,0,0,0-.86-.86,2.577,2.577,0,0,0-1.514.068L15.146,21.222V46.347Z" transform="translate(-15.146 -17.449)" fill="#869ab8" fill-rule="evenodd"></path><path d="M199.334,39.719V33.531l2.174-1.058V43.052h-2.174l-4.26-7.362v7.362H192.9V33.531l2.159-1.058Z" transform="translate(-148.084 -28.685)" fill="#869ab8" fill-rule="evenodd"></path><path d="M267.426,42.752h-2.174V33.868h-3.218l1.044-1.8h7.449l-1.058,1.8h-2.043Z" transform="translate(-199.789 -28.384)" fill="#869ab8" fill-rule="evenodd"></path><path d="M300.046,43.052h-2.174V33.531l2.174-1.058Z" transform="translate(-226.591 -28.685)" fill="#869ab8" fill-rule="evenodd"></path><path d="M361.085,39.719V33.531l2.174-1.058V43.052h-2.174l-4.26-7.362v7.362h-2.174V33.531l2.16-1.058Z" transform="translate(-269.055 -28.685)" fill="#869ab8" fill-rule="evenodd"></path><path d="M433.514,43.052V33.531l2.174-1.058v8.782h5.057l-1.057,1.8Z" transform="translate(-328.034 -28.685)" fill="#869ab8" fill-rule="evenodd"></path><path d="M197.654,89.738c1.623,0,3.377.927,3.406,2.84a2.6,2.6,0,0,1-.986,2.13,3.246,3.246,0,0,1,1.29,2.6,3.116,3.116,0,0,1-3.188,3.014H192.9V90.8l2.174-1.057Zm.2,4.245a1.212,1.212,0,0,0,1.16-1.217,1.227,1.227,0,0,0-1.16-1.232h-2.782v2.448Zm.319,4.536a1.365,1.365,0,0,0,0-2.724h-3.1v2.724Z" transform="translate(-148.084 -71.512)" fill="#869ab8" fill-rule="evenodd"></path><path d="M226.32,100.274l3.13-9.116,3-1.478,3.623,10.594h-2.217l-.7-2.1h-3.87l-.754,2.1Zm4.884-7.855L229.885,96.4h2.652L231.2,92.419Z" transform="translate(-173.079 -71.469)" fill="#869ab8" fill-rule="evenodd"></path><path d="M274.747,96.983V90.8l2.174-1.057v10.579h-2.174l-4.261-7.363v7.363h-2.174V90.8l2.16-1.057Z" transform="translate(-204.483 -71.512)" fill="#869ab8" fill-rule="evenodd"></path><path d="M309.543,97v3.319h-2.174V90.8l2.174-1.057v4.681l3.652-4.131,3.086-.536-4.188,4.608,4.652,5.97h-2.681l-3.39-4.593Z" transform="translate(-233.693 -71.512)" fill="#869ab8" fill-rule="evenodd"></path><path d="M198,157.712c-3.42,0-4.986-2.623-5.1-5.535a6.365,6.365,0,0,1,1.348-3.987l3.189-1.55H198c3.42,0,5.1,2.623,5.1,5.536s-1.681,5.535-5.1,5.535Zm3.044-5.535c0-1.842-.884-3.652-3.043-3.652s-3.029,1.825-3.029,3.652.884,3.651,3.029,3.651,3.043-1.811,3.043-3.651Z" transform="translate(-148.083 -114.069)" fill="#869ab8" fill-rule="evenodd"></path><path d="M236.158,157.794v-9.521l2.174-1.057h5.217L242.506,149h-4.174v2.464H242.9l-1.043,1.782h-3.522v4.551Z" transform="translate(-180.436 -114.498)" fill="#869ab8" fill-rule="evenodd"></path><path d="M293.785,153.724h2.087v.058c0,2.839-2.811,3.882-4.595,3.869-3.173-.016-4.7-2.711-4.7-5.492a5.934,5.934,0,0,1,1.232-4.029l3.16-1.552h.507c3.927.016,4.392,3.146,4.392,3.652v.1h-2.058v-.014a2.226,2.226,0,0,0-2.406-1.956c-1.841.014-2.725,1.825-2.7,3.8.014,1.753.768,3.651,2.681,3.651a2.148,2.148,0,0,0,2.392-2.057v-.029Z" transform="translate(-218.147 -114.022)" fill="#869ab8" fill-rule="evenodd"></path><path d="M323.166,157.751l3.13-9.115,3-1.478,3.623,10.593H330.7l-.7-2.1h-3.869l-.753,2.1h-2.218Zm4.884-7.855-1.319,3.986h2.652L328.05,149.9Z" transform="translate(-245.507 -114.456)" fill="#869ab8" fill-rule="evenodd"></path><path d="M370.784,154.461v-6.189l2.174-1.057v10.579h-2.174l-4.259-7.362v7.362H364.35v-9.521l2.16-1.057Z" transform="translate(-276.308 -114.498)" fill="#869ab8" fill-rule="evenodd"></path><path d="M401.281,157.751l3.131-9.115,3-1.478,3.624,10.593h-2.218l-.7-2.1h-3.87l-.754,2.1h-2.217Zm4.884-7.855-1.319,3.986H407.5l-1.334-3.986Z" transform="translate(-303.928 -114.456)" fill="#869ab8" fill-rule="evenodd"></path><path d="M442.291,157.794v-9.521l2.189-1.057h2.957c1.1,0,3.681,1.1,3.681,5.115,0,4.159-2.652,5.464-3.666,5.464Zm3.957-1.782c1.232,0,2.666-.566,2.652-3.682-.015-2.463-1-3.333-2.652-3.333h-1.783v7.014h1.783Z" transform="translate(-334.599 -114.498)" fill="#869ab8" fill-rule="evenodd"></path><path d="M476.172,157.751l3.13-9.115,3-1.478,3.623,10.593h-2.217l-.7-2.1h-3.869l-.753,2.1h-2.217Zm4.884-7.855-1.319,3.986h2.653l-1.333-3.986Z" transform="translate(-359.937 -114.456)" fill="#869ab8" fill-rule="evenodd"></path><path d="M315.516,42.972c-3.42,0-4.985-2.623-5.1-5.536a6.356,6.356,0,0,1,1.348-3.985l3.188-1.55h.565c3.42,0,5.1,2.623,5.1,5.536s-1.682,5.535-5.1,5.535Zm3.044-5.536c0-1.84-.885-3.652-3.043-3.652s-3.029,1.826-3.029,3.652.884,3.652,3.029,3.652,3.043-1.811,3.043-3.652Z" transform="translate(-235.969 -28.257)" fill="#869ab8" fill-rule="evenodd"></path><path d="M230.636,43.009l3.131-9.115,3-1.478,3.623,10.594h-2.217l-.7-2.1h-3.869l-.754,2.1Zm4.884-7.855L234.2,39.139h2.652l-1.334-3.985Z" transform="translate(-176.306 -28.642)" fill="#869ab8" fill-rule="evenodd"></path><path d="M391.582,43.009l3.13-9.115,3-1.478,3.622,10.594h-2.217l-.7-2.1h-3.87l-.754,2.1Zm4.883-7.855-1.318,3.985H397.8l-1.334-3.985Z" transform="translate(-296.674 -28.642)" fill="#869ab8" fill-rule="evenodd"></path></g></g></svg>