<svg xmlns="http://www.w3.org/2000/svg" width="130" height="60" viewBox="0 0 130 60"><g transform="translate(-3535 -112)"><g transform="translate(3535 112)" fill="#fff" stroke="#707070" stroke-width="1" opacity="0"><rect width="130" height="60" stroke="none"></rect><rect x="0.5" y="0.5" width="129" height="59" fill="none"></rect></g><g transform="translate(3537 132)"><g transform="translate(0 0)"><g transform="translate(0)"><path d="M3909.312,3557.211a5.258,5.258,0,0,0-.124-1.087,2.944,2.944,0,0,0-.468-1.087,2.828,2.828,0,0,0-.95-.84,3.1,3.1,0,0,0-1.541-.344h-9.939a3.085,3.085,0,0,0-1.555.344,2.888,2.888,0,0,0-.936.84,2.947,2.947,0,0,0-.468,1.087,5.326,5.326,0,0,0-.124,1.087v4.679a1.321,1.321,0,0,1-2.643,0v-4.679a6.757,6.757,0,0,1,.345-2.106,6.416,6.416,0,0,1,1-1.927,5.5,5.5,0,0,1,1.6-1.417,4.1,4.1,0,0,1,2.12-.551h11.534a4.012,4.012,0,0,1,2.01.62,5.515,5.515,0,0,1,1.5,1.418,6.607,6.607,0,0,1,.95,1.9,6.811,6.811,0,0,1,.331,2.064v4.679a1.322,1.322,0,0,1-2.643,0h0Z" transform="translate(-3793.526 -3543.865)" fill="#869ab8"></path><path d="M3168.1,3545.53a1.313,1.313,0,0,1-2.34-.826,1.137,1.137,0,0,1,.275-.8l6.689-9a3.652,3.652,0,0,1,2.89-1.431,3.577,3.577,0,0,1,1.569.358,3.207,3.207,0,0,1,1.211.99l6.689,8.948a1.863,1.863,0,0,1,.276.426,1.182,1.182,0,0,1,.11.509,1.316,1.316,0,0,1-1.31,1.322h-.011a1.236,1.236,0,0,1-1.047-.524l-6.414-8.561a6.321,6.321,0,0,0-.481-.482.8.8,0,0,0-1.131-.052.71.71,0,0,0-.052.052,3.553,3.553,0,0,0-.454.482Z" transform="translate(-3091.186 -3526.679)" fill="#869ab8"></path><path d="M2367.626,3553.852a3.077,3.077,0,0,0-1.555.345,2.869,2.869,0,0,0-.936.839,2.96,2.96,0,0,0-.469,1.088,4.853,4.853,0,0,0,0,2.174,2.951,2.951,0,0,0,.469,1.088,2.884,2.884,0,0,0,.936.84,3.078,3.078,0,0,0,1.555.344h15.169a1.321,1.321,0,0,1,0,2.643h-16.05a3.714,3.714,0,0,1-2.009-.551,5.238,5.238,0,0,1-1.5-1.417,6.72,6.72,0,0,1-.95-1.941,7.117,7.117,0,0,1-.33-2.093,6.8,6.8,0,0,1,.344-2.106,6.417,6.417,0,0,1,1-1.927,5.492,5.492,0,0,1,1.6-1.418,4.113,4.113,0,0,1,2.119-.551h15.774a1.317,1.317,0,0,1,1.321,1.311v.011a1.314,1.314,0,0,1-1.308,1.321h-15.181Z" transform="translate(-2312.293 -3543.865)" fill="#869ab8"></path><path d="M2527.092,3702.229a1.316,1.316,0,0,1,1.322,1.31v.012a1.316,1.316,0,0,1-1.31,1.321h-13.721a1.315,1.315,0,0,1-1.321-1.309v-.011a1.316,1.316,0,0,1,1.31-1.322h13.721Z" transform="translate(-2457.747 -3690.206)" fill="#869ab8"></path><path d="M1571.456,3557.212a6.8,6.8,0,0,1,.344-2.107,6.442,6.442,0,0,1,1-1.927,5.5,5.5,0,0,1,1.6-1.418,4.114,4.114,0,0,1,2.12-.551h16.05a1.316,1.316,0,0,1,1.321,1.311.082.082,0,0,1,0,.011,1.314,1.314,0,0,1-1.309,1.321H1577.1a3.078,3.078,0,0,0-1.555.345,2.868,2.868,0,0,0-.936.839,2.936,2.936,0,0,0-.468,1.088,4.825,4.825,0,0,0,0,2.174,2.932,2.932,0,0,0,.468,1.088,2.869,2.869,0,0,0,.936.84,3.078,3.078,0,0,0,1.556.344h15.472a1.321,1.321,0,1,1,0,2.643h-16.325a3.714,3.714,0,0,1-2.01-.551,5.238,5.238,0,0,1-1.5-1.417,6.7,6.7,0,0,1-.95-1.94A7.113,7.113,0,0,1,1571.456,3557.212Z" transform="translate(-1546.295 -3543.865)" fill="#869ab8"></path><path d="M782.046,3557.212a6.775,6.775,0,0,1-.344,2.105,6.449,6.449,0,0,1-1,1.927,5.475,5.475,0,0,1-1.6,1.417,4.1,4.1,0,0,1-2.12.552H764.428a4.031,4.031,0,0,1-2.01-.619,5.513,5.513,0,0,1-1.5-1.418,6.821,6.821,0,0,1-.936-6.07,6.436,6.436,0,0,1,1-1.927,5.5,5.5,0,0,1,1.6-1.418,4.113,4.113,0,0,1,2.12-.551h12.553a4.024,4.024,0,0,1,2.01.62,5.516,5.516,0,0,1,1.5,1.418,6.583,6.583,0,0,1,.949,1.9,6.811,6.811,0,0,1,.331,2.065Zm-5.643,3.358a3.092,3.092,0,0,0,1.542-.344,2.842,2.842,0,0,0,.95-.84,2.94,2.94,0,0,0,.468-1.088,4.829,4.829,0,0,0,0-2.174,2.949,2.949,0,0,0-.468-1.088,2.838,2.838,0,0,0-.95-.839,3.088,3.088,0,0,0-1.542-.344H765.281a3.08,3.08,0,0,0-1.556.344,2.869,2.869,0,0,0-.936.839,2.956,2.956,0,0,0-.469,1.088,4.834,4.834,0,0,0,0,2.174,2.947,2.947,0,0,0,.469,1.088,2.866,2.866,0,0,0,.935.84,3.079,3.079,0,0,0,1.556.344Z" transform="translate(-759.638 -3543.865)" fill="#869ab8"></path><path d="M3301.064,3681.841l4.986-6.813a.683.683,0,0,1,.953-.146.71.71,0,0,1,.146.146l4.986,6.813a.681.681,0,0,1-.549,1.082h-9.972a.681.681,0,0,1-.55-1.083Z" transform="translate(-3222.169 -3663.577)" fill="#869ab8" fill-rule="evenodd"></path><path d="M3351.107,3679.9l3.562-4.869a.682.682,0,0,1,.952-.146.712.712,0,0,1,.147.146l2.362,3.228C3354.917,3677.885,3354.6,3681.025,3351.107,3679.9Z" transform="translate(-3270.788 -3663.577)" fill="#869ab8" fill-rule="evenodd"></path><path d="M4573.058,3314.28h1.71l-3.529,3.672,3.529,3.673h-1.71l-2.666-2.781-2.667,2.781H4566l3.529-3.673L4566,3314.28h1.708l2.682,2.78,2.666-2.78Z" transform="translate(-4448.029 -3314.28)" fill="#869ab8"></path></g></g></g></g></svg>