<svg xmlns="http://www.w3.org/2000/svg" width="130" height="60" viewBox="0 0 130 60"><g transform="translate(-1585 -112)"><g transform="translate(1585 112)" fill="#fff" stroke="#707070" stroke-width="1" opacity="0"><rect width="130" height="60" stroke="none"></rect><rect x="0.5" y="0.5" width="129" height="59" fill="none"></rect></g><g transform="translate(1586 128)"><path d="M-2979.421,5580.25c-.189.612-.371,1.224-.57,1.833a8.259,8.259,0,0,1-9.55,5.537,8.2,8.2,0,0,1-6.673-8.621c.51-4.645,3.805-7.723,8.271-7.728a8.137,8.137,0,0,1,8.237,6.818,4.5,4.5,0,0,0,.285.754Zm-3.912-.745a4.6,4.6,0,0,0-4.545-4.613,4.624,4.624,0,0,0-4.613,4.556,4.633,4.633,0,0,0,4.626,4.685A4.6,4.6,0,0,0-2983.333,5579.5Z" transform="translate(3107.118 -5565.586)" fill="#869ab8"></path><path d="M-4216.669,5535.889a13.836,13.836,0,0,1-14.081-13.8,13.815,13.815,0,0,1,13.9-14.118,13.911,13.911,0,0,1,14.2,14.007A13.918,13.918,0,0,1-4216.669,5535.889Zm-9.333-12.8a7.69,7.69,0,0,0,.039,1.955c.143.526.559,1.3.959,1.369.893.155,1.12-.6,1.114-1.393-.011-1.216-.048-2.437.027-3.649a1.511,1.511,0,0,1,1.668-1.529,1.467,1.467,0,0,1,1.615,1.552c.036.465-.007.937.015,1.4a3.713,3.713,0,0,0,5.688,3.123,1.482,1.482,0,0,1,1.838.054,3.693,3.693,0,0,0,5.594-2.957,25,25,0,0,0-.01-4.065c-.042-.424-.683-.792-1.05-1.185-.342.415-.925.8-.978,1.248-.141,1.2-.005,2.432-.071,3.645a1.548,1.548,0,0,1-1.7,1.656,1.519,1.519,0,0,1-1.594-1.735c0-.889.025-1.779-.01-2.667s.289-2.141-1.146-2.1c-1.415.036-1.037,1.3-1.084,2.174s0,1.778-.023,2.667a1.5,1.5,0,0,1-1.527,1.665,1.578,1.578,0,0,1-1.771-1.59c-.054-.415-.009-.842-.025-1.263a3.506,3.506,0,0,0-3.836-3.719c-2.333.006-3.691,1.389-3.728,3.8C-4226.009,5522.063-4226,5522.578-4226,5523.093Z" transform="translate(4230.75 -5507.967)" fill="#869ab8"></path><path d="M-3290.8,5590.579a7.112,7.112,0,0,1-8.295,1.869,6.627,6.627,0,0,1-4.332-6.345c-.111-2.338-.042-4.685-.016-7.027.016-1.413.681-2.114,1.9-2.109,1.19.006,1.862.719,1.884,2.137.036,2.2-.011,4.4.019,6.606a3.4,3.4,0,0,0,3.564,3.675,3.438,3.438,0,0,0,3.383-3.726c.016-2.155-.01-4.311.009-6.466.013-1.494.679-2.237,1.932-2.228s1.9.758,1.917,2.263c.022,2.2-.011,4.405.012,6.607a3.4,3.4,0,0,0,3.261,3.548,3.406,3.406,0,0,0,3.628-3.329c.1-2.244.043-4.5.065-6.744.016-1.595.573-2.309,1.8-2.345,1.3-.04,1.975.718,1.988,2.32.019,2.2.071,4.408-.013,6.606-.114,3-1.39,5.373-4.287,6.532a6.943,6.943,0,0,1-7.957-1.464C-3290.436,5590.864-3290.55,5590.783-3290.8,5590.579Z" transform="translate(3386.757 -5570.768)" fill="#869ab8"></path><path d="M-3656.936,5576.674a4.66,4.66,0,0,0-6.641-.873,4.772,4.772,0,0,0-.712,6.769,4.821,4.821,0,0,0,6.713.642c.217-.18.405-.392.608-.587.984-.948,1.928-1.045,2.716-.279s.725,1.7-.189,2.722a8.363,8.363,0,0,1-11.792.538,8.2,8.2,0,0,1-2.129-9,8.215,8.215,0,0,1,7.458-5.315,8.294,8.294,0,0,1,7.9,4.9c.883,2.043.481,2.872-1.681,3.481-2.126.6-4.248,1.21-6.377,1.8-1.4.383-2.3-.011-2.624-1.1-.309-1.044.293-1.861,1.712-2.272C-3660.326,5577.615-3658.666,5577.16-3656.936,5576.674Z" transform="translate(3719.358 -5565.602)" fill="#869ab8"></path><path d="M-3833.236,5581.832c0,1.217.007,2.433,0,3.65-.01,1.56-.588,2.3-1.806,2.334-1.255.036-1.964-.767-1.982-2.35-.027-2.386.015-4.772-.017-7.158a3.115,3.115,0,0,0-2.6-3.341,3.569,3.569,0,0,0-3.983,1.961,4.6,4.6,0,0,0-.345,1.764c-.039,2.292,0,4.585-.021,6.878-.012,1.472-.709,2.257-1.925,2.245s-1.854-.775-1.863-2.293c-.015-2.386-.033-4.772,0-7.159.064-4.31,3.01-7.116,7.4-7.093a6.851,6.851,0,0,1,7.147,7.193C-3833.231,5579.586-3833.236,5580.709-3833.236,5581.832Z" transform="translate(3882.193 -5565.585)" fill="#869ab8"></path><path d="M-3481.155,5586.213c0-1.543-.063-3.091.021-4.629.06-1.086-.36-1.411-1.385-1.321a19.469,19.469,0,0,1-2.4,0,1.526,1.526,0,0,1-1.645-1.691,1.518,1.518,0,0,1,1.662-1.677q5.579-.026,11.157,0a1.5,1.5,0,0,1,1.649,1.678,1.532,1.532,0,0,1-1.647,1.689c-.47.02-.941,0-1.412.009-2.524.039-2.287-.375-2.3,2.354-.011,2.479,0,4.958,0,7.438,0,.374.011.75-.026,1.122a1.7,1.7,0,0,1-1.87,1.688,1.656,1.656,0,0,1-1.788-1.757c-.037-1.636-.01-3.273-.01-4.911Z" transform="translate(3553.394 -5570.697)" fill="#869ab8"></path></g></g></svg>