<svg xmlns="http://www.w3.org/2000/svg" width="250" height="150" viewBox="0 0 250 150"><g transform="translate(-3742.381 -1103.704)"><rect width="250" height="150" transform="translate(3742.381 1103.704)" fill="none" opacity="0.24"></rect><g transform="translate(3.987 -3.311)"><g transform="translate(3857.657 1140.434)"><path d="M4257.029,1231.744l-51.387,3.235a1.068,1.068,0,0,1-.875-1.77l33.419-38.2a1.07,1.07,0,0,1,1.525-.087c9.779,8.9,17.086,21.513,18.312,35.666A1.07,1.07,0,0,1,4257.029,1231.744Z" transform="translate(-4204.5 -1194.639)" fill="#24313e"></path></g><g transform="translate(3797.394 1133.011)"><path d="M3897.992,1199.522a50.408,50.408,0,1,1-16.675-42.261.459.459,0,0,1,.021.662l-38.061,38.967a.458.458,0,0,0,.316.778l53.953,1.356A.458.458,0,0,1,3897.992,1199.522Z" transform="translate(-3797.394 -1144.5)" fill="#24313e"></path></g><g transform="translate(3910.587 1179.781)"><g transform="translate(0 0)"><rect width="2.425" height="13.868" rx="1.213" transform="translate(6.967 13.053) rotate(160.259)" fill="#0062ff"></rect></g><g transform="translate(0.249 0.248)"><path d="M4564.132,1462.506a1.138,1.138,0,0,1,.383-.229l.222-.08a1.152,1.152,0,0,1,1.474.695l3.943,10.993a1.152,1.152,0,0,1-.7,1.473l-.223.08a1.153,1.153,0,0,1-1.473-.7l-3.943-10.993A1.153,1.153,0,0,1,4564.132,1462.506Zm5.634,12.537a1.039,1.039,0,0,0,.28-1.12l-3.943-10.993a1.038,1.038,0,0,0-1.327-.626l-.223.08a1.038,1.038,0,0,0-.626,1.327l3.943,10.993a1.038,1.038,0,0,0,1.327.626l.223-.08A1.036,1.036,0,0,0,4569.766,1475.044Z" transform="translate(-4563.751 -1462.129)" fill="#24313e"></path></g></g><g transform="translate(3910.972 1180.087)" opacity="0.59" style="mix-blend-mode:overlay;isolation:isolate"><g transform="translate(0 0)"><path d="M4570.616,1475.386a1.078,1.078,0,0,0,.016-.777l-3.943-10.992a1.1,1.1,0,0,0-1.4-.661l-.222.08a1.056,1.056,0,0,0-.394.248,1.088,1.088,0,0,1,.646-.622l.223-.08a1.094,1.094,0,0,1,1.4.661l3.943,10.992A1.089,1.089,0,0,1,4570.616,1475.386Z" transform="translate(-4564.672 -1462.516)" fill="#ebf0f5"></path></g></g><g transform="translate(3916.638 1173.679)"><g transform="translate(0.068 0.067)"><path d="M4603.409,1421.333h0a1.409,1.409,0,0,0,1.422,1.4l10.777-.222a1.409,1.409,0,0,0,1.4-1.422h0a1.41,1.41,0,0,0-1.423-1.4l-10.776.223A1.409,1.409,0,0,0,4603.409,1421.333Z" transform="translate(-4603.409 -1419.688)" fill="#0062ff"></path></g><g transform="translate(0 0)"><path d="M4603.06,1421.59a1.311,1.311,0,0,1-.105-.507l0-.274a1.339,1.339,0,0,1,1.326-1.351l11.051-.225a1.339,1.339,0,0,1,1.351,1.325l0,.275a1.339,1.339,0,0,1-1.325,1.351l-11.052.225A1.34,1.34,0,0,1,4603.06,1421.59Zm13.392-1.49a1.214,1.214,0,0,0-.267-.39,1.2,1.2,0,0,0-.856-.345l-11.051.225a1.205,1.205,0,0,0-1.194,1.217l0,.274a1.207,1.207,0,0,0,1.217,1.194l11.051-.225a1.206,1.206,0,0,0,1.194-1.217l0-.275A1.224,1.224,0,0,0,4616.452,1420.1Z" transform="translate(-4602.952 -1419.233)" fill="#24313e"></path></g></g><g transform="translate(3916.704 1173.746)" opacity="0.59" style="mix-blend-mode:overlay;isolation:isolate"><g transform="translate(0 0)"><path d="M4616.871,1420.417a1.253,1.253,0,0,0-.847-.314l-11.05.225a1.272,1.272,0,0,0-1.26,1.283l0,.275a1.236,1.236,0,0,0,.121.527,1.265,1.265,0,0,1-.436-.946l0-.275a1.272,1.272,0,0,1,1.261-1.284l11.05-.224A1.268,1.268,0,0,1,4616.871,1420.417Z" transform="translate(-4603.398 -1419.684)" fill="#ebf0f5"></path></g></g><g transform="translate(3914.431 1177.907)"><g transform="translate(0.112 0.112)"><path d="M4588.93,1449.358h0a1.409,1.409,0,0,0,.663,1.879l7.85,4.849a1.408,1.408,0,0,0,1.878-.663h0a1.409,1.409,0,0,0-.663-1.879l-7.849-4.849A1.409,1.409,0,0,0,4588.93,1449.358Z" transform="translate(-4588.792 -1448.557)" fill="#0062ff"></path></g><g transform="translate(0 0)"><path d="M4588.04,1449.308a1.328,1.328,0,0,1,.129-.5l.118-.247a1.338,1.338,0,0,1,1.785-.63l8.1,4.968a1.338,1.338,0,0,1,.63,1.785l-.119.247a1.337,1.337,0,0,1-1.784.63l-8.1-4.968A1.34,1.34,0,0,1,4588.04,1449.308Zm10.755,4.862a1.2,1.2,0,0,0-.684-1.154l-8.1-4.968a1.205,1.205,0,0,0-1.608.567l-.119.248a1.207,1.207,0,0,0,.567,1.608l8.1,4.968a1.2,1.2,0,0,0,1.607-.567l.119-.248A1.2,1.2,0,0,0,4598.8,1454.171Z" transform="translate(-4588.038 -1447.798)" fill="#24313e"></path></g></g><g transform="translate(3914.497 1177.975)" opacity="0.59" style="mix-blend-mode:overlay;isolation:isolate"><g transform="translate(0 0)"><path d="M4599.241,1454.511a1.259,1.259,0,0,0-.623-.655l-8.1-4.968a1.272,1.272,0,0,0-1.7.6l-.118.248a1.22,1.22,0,0,0-.124.527,1.265,1.265,0,0,1,.024-1.042l.119-.248a1.271,1.271,0,0,1,1.7-.6l8.1,4.968A1.269,1.269,0,0,1,4599.241,1454.511Z" transform="translate(-4588.483 -1448.249)" fill="#ebf0f5"></path></g></g><g transform="translate(3858.324 1139.325)"><path d="M4261.79,1225.1l-50.647,3.383a1.069,1.069,0,0,1-.875-1.77l33.42-38.2a1.07,1.07,0,0,1,1.525-.087,54.232,54.232,0,0,1,17.572,35.518A1.07,1.07,0,0,1,4261.79,1225.1Z" transform="translate(-4209.853 -1187.994)" fill="#ebf0f5"></path><path d="M4210.221,1227.789a1.214,1.214,0,0,1-.908-2.014l33.42-38.205a1.215,1.215,0,0,1,1.732-.1,54.376,54.376,0,0,1,17.619,35.613,1.216,1.216,0,0,1-1.13,1.319l-50.646,3.383Zm33.428-40.343-.054,0a.916.916,0,0,0-.644.314l-33.42,38.205a.923.923,0,0,0,.756,1.528l50.646-3.383a.924.924,0,0,0,.859-1,54.09,54.09,0,0,0-17.525-35.423A.913.913,0,0,0,4243.649,1187.446Z" transform="translate(-4209.008 -1187.154)" fill="#24313e"></path></g><g transform="translate(3799.098 1131.015)"><path d="M3910.492,1187.022a50.408,50.408,0,1,1-16.675-42.261.459.459,0,0,1,.021.662l-38.061,38.967a.458.458,0,0,0,.316.778l53.953,1.356A.458.458,0,0,1,3910.492,1187.022Z" transform="translate(-3809.747 -1131.854)" fill="#9caab8"></path><path d="M3859.371,1232.115a50.783,50.783,0,0,1-18.851-3.579,50.052,50.052,0,0,1-27.983-27.906,50.971,50.971,0,0,1-3.6-20.812,50.549,50.549,0,0,1,84.135-36,.6.6,0,0,1,.2.428.61.61,0,0,1-.172.445l-38.061,38.967a.312.312,0,0,0,.216.53l53.953,1.356a.6.6,0,0,1,.587.658,50.556,50.556,0,0,1-48.452,45.882Q3860.354,1232.115,3859.371,1232.115Zm.086-100.808a50.258,50.258,0,1,0-.09,100.516q.98,0,1.966-.036a50.314,50.314,0,0,0,48.173-45.617h0a.313.313,0,0,0-.3-.339l-53.953-1.356a.6.6,0,0,1-.417-1.026l38.061-38.967a.312.312,0,0,0,.089-.231.308.308,0,0,0-.1-.221A50.172,50.172,0,0,0,3859.456,1131.307Z" transform="translate(-3808.906 -1131.015)" fill="#24313e"></path></g><g transform="translate(3799.245 1131.161)" opacity="0.2" style="mix-blend-mode:overlay;isolation:isolate"><path d="M3844.57,1230.373a50.447,50.447,0,1,1,36.215-94.034,50.467,50.467,0,0,0-36.215,94.034Z" transform="translate(-3809.894 -1132)" fill="#ebf0f5"></path></g><g transform="translate(3845.134 1184.303)" opacity="0.2" style="mix-blend-mode:overlay;isolation:isolate"><path d="M4172.2,1495.2l-49.46-1.315a2.762,2.762,0,0,1-2.688-2.76l-.147-.124,54.408,1.447.149.552A2.2,2.2,0,0,1,4172.2,1495.2Z" transform="translate(-4119.901 -1491)" fill="#ebf0f5"></path></g><g transform="translate(3858.471 1173.258)" opacity="0.43" style="mix-blend-mode:multiply;isolation:isolate"><path d="M4262.434,1416.387,4210,1422.535v.941l52.434-3.157A7.365,7.365,0,0,0,4262.434,1416.387Z" transform="translate(-4210 -1416.387)" fill="#455666"></path></g></g></g></svg>