<svg xmlns="http://www.w3.org/2000/svg" width="130" height="60" viewBox="0 0 130 60"><g transform="translate(-2635 -192)"><g transform="translate(2635 192)" fill="#fff" stroke="#707070" stroke-width="1" opacity="0"><rect width="130" height="60" stroke="none"></rect><rect x="0.5" y="0.5" width="129" height="59" fill="none"></rect></g><g transform="translate(2636.569 206.727)"><path d="M554.671,1068.689a2.173,2.173,0,0,0-2.291-2.215,4.684,4.684,0,0,0-1.342.1,2.339,2.339,0,0,0-1.705,1.705c-.375,1.093-.741,2.186-1.113,3.282q-1.322,3.92-2.637,7.844c-.023.073-.056.144-.111.293v-.029a.233.233,0,0,0,0,.029c-.056-.149-.085-.22-.111-.293q-1.324-3.926-2.637-7.844c-.369-1.1-.736-2.189-1.114-3.282a2.343,2.343,0,0,0-1.705-1.705,4.685,4.685,0,0,0-1.342-.1,2.176,2.176,0,0,0-2.291,2.215v14.4c0,.232.091.276.293.273h2.3c.381,0,.381,0,.381-.384v-12.983h.073c.032.079,2.737,7.8,4.067,11.571a5.575,5.575,0,0,0,.475,1.093,2.08,2.08,0,0,0,3.179,0,5.585,5.585,0,0,0,.533-1.108c1.33-3.765,4.035-11.492,4.067-11.562h.073v12.98c0,.384,0,.384.381.384h2.3c.205,0,.293-.041.293-.272C554.677,1078.288,554.683,1073.489,554.671,1068.689Z" transform="translate(-451.048 -1058.301)" fill="#869ab8"></path><path d="M989.607,1081.858a6.882,6.882,0,0,1-.167,1.512,2.879,2.879,0,0,1-2.312,2.206,6.445,6.445,0,0,1-1.465.2c-2.118,0-4.237,0-6.355-.035a4.859,4.859,0,0,1-1.512-.331,2.923,2.923,0,0,1-1.919-2.637,6.315,6.315,0,0,1-.038-.7c0-3.173,0-6.346.02-9.52a5,5,0,0,1,.208-1.327,2.637,2.637,0,0,1,2.051-1.9,9.227,9.227,0,0,1,1.919-.234c1.776-.029,3.551-.023,5.327,0a9.75,9.75,0,0,1,1.723.173,2.813,2.813,0,0,1,2.444,2.661,11.761,11.761,0,0,1,.068,1.2C989.618,1074.551,989.627,1080.382,989.607,1081.858Zm-10.519-.486a6.529,6.529,0,0,0,.023.677,1.1,1.1,0,0,0,1.037,1.152,4.827,4.827,0,0,0,.85.053h3.446c.264,0,.53,0,.794-.026a1.023,1.023,0,0,0,1.067-1,3.916,3.916,0,0,0,.041-.615v-8.2a5.884,5.884,0,0,0-.024-.644,1.078,1.078,0,0,0-1.172-1.119c-.079,0-3.162-.029-4.624,0-1.1.017-1.407.334-1.418,1.444C979.084,1074.516,979.088,1080.042,979.088,1081.372Z" transform="translate(-862.757 -1060.742)" fill="#869ab8"></path><path d="M275.89,1069.064h3.241v12.28a5.158,5.158,0,0,0,.029.674,1.185,1.185,0,0,0,1.263,1.2c.4.029,3.223.024,4.237,0a2.594,2.594,0,0,0,.5-.047,1.023,1.023,0,0,0,.914-1,6.843,6.843,0,0,0,.044-.849v-12.266h3.241v12.8a6.3,6.3,0,0,1-.185,1.538,2.856,2.856,0,0,1-2.3,2.151,6.521,6.521,0,0,1-1.483.2c-2.01,0-4.02,0-6.03-.035a4.918,4.918,0,0,1-1.512-.328,2.834,2.834,0,0,1-1.89-2.511,8,8,0,0,1-.062-1.026C275.887,1077.714,275.89,1069.2,275.89,1069.064Z" transform="translate(-207.171 -1060.732)" fill="#869ab8"></path><path d="M-152.651,1068.9v2.148c0,.419,0,.419-.407.419h-6.593a5.191,5.191,0,0,0-.879.053,1.083,1.083,0,0,0-1.028,1.122c-.02.205-.026.41-.026.615v8.049a4.086,4.086,0,0,0,.021.5,1.2,1.2,0,0,0,1.213,1.254,8.352,8.352,0,0,0,.853.029h6.851v1.887c0,.656,0,.656-.642.656-2.344,0-4.709.021-7.062,0a9.1,9.1,0,0,1-2.151-.264,2.916,2.916,0,0,1-2.283-2.769c-.029-.293-.044-.6-.044-.908v-8.79a8.148,8.148,0,0,1,.138-1.486,2.69,2.69,0,0,1,2.148-2.268,8.573,8.573,0,0,1,1.89-.234C-158.084,1068.887-152.651,1068.9-152.651,1068.9Z" transform="translate(205.616 -1060.579)" fill="#869ab8"></path><path d="M66.742,1069.2h3.244v12.166a5.135,5.135,0,0,0,.047.85,1.214,1.214,0,0,0,1.219,1.137,10.4,10.4,0,0,0,1.087.053h5.807v2.25c0,.182-.041.266-.246.266-2.549-.02-5.1-.023-7.65-.055a4.8,4.8,0,0,1-1.239-.228,2.95,2.95,0,0,1-2.206-2.678,8.778,8.778,0,0,1-.064-1.143C66.739,1077.733,66.742,1069.335,66.742,1069.2Z" transform="translate(-11.275 -1060.862)" fill="#869ab8"></path><path d="M876.394,1069.2h3.194v16.7h-3.194Z" transform="translate(-769.616 -1060.862)" fill="#869ab8"></path><path d="M-341.071,1084.254c-.029-.073-.056-.147-.085-.217C-341.127,1084.107-341.1,1084.175-341.071,1084.254Z" transform="translate(370.767 -1074.762)" fill="#869ab8"></path><g transform="translate(7.395 0)"><path d="M-672.851,958.871a12.129,12.129,0,0,1-3.946,2.135,10.589,10.589,0,0,1-6.329-.057l.008,0a10.631,10.631,0,0,0,3.519-2.394,11.578,11.578,0,0,0,2.656-4.519,11.584,11.584,0,0,0,.46-4.6c-.017-.164-.037-.327-.061-.49l-.023-.14c-.014-.087-.03-.175-.046-.261l-.021-.109s0,0,0-.007h0a12.071,12.071,0,0,0-.374-1.375.112.112,0,0,0,0-.016l-.006-.017,0-.008c-.008-.022-.016-.046-.022-.068l0-.005,0-.009c-.006-.02-.013-.036-.019-.052l0,0c0-.008-.006-.015-.009-.024l0-.011q-.086-.245-.184-.486l-.067-.16c-.013-.031-.027-.062-.041-.093s-.02-.049-.032-.073a10.857,10.857,0,0,0-2.75-3.729,15.041,15.041,0,0,0-2.763-1.976,7.987,7.987,0,0,0-2.588-.913q-.4-.06-.8-.1l-.034,0c-.212-.019-.423-.034-.633-.042-.05,0-.1-.005-.149-.006q-.155-.006-.309-.007a11.575,11.575,0,0,0-4.262.716,15.237,15.237,0,0,1,18.17,1.593l.222.208.223.217a14.194,14.194,0,0,1,3.63,5.844q.048.149.093.3A10.911,10.911,0,0,1-672.851,958.871Z" transform="translate(691.69 -937.688)" fill="#869ab8"></path></g><g transform="translate(0 2.064)"><path d="M-786.476,978.732a10.185,10.185,0,0,0-3.915-1.865,11.552,11.552,0,0,0-5.183.051,11.451,11.451,0,0,0-4,1.837q-.275.2-.536.411c-.064.052-.127.105-.19.159l-.139.121-.1.093q-.1.092-.2.188l-.1.1q-.354.344-.679.716-.242.279-.467.571c-.065.086-.13.172-.193.259s-.114.158-.169.239c-.037.053-.072.105-.107.158l-.075.113h0l-.073.113h0q-.136.216-.264.437t-.235.431l-.068.133-.022.044-.01.02-.034.07-.04.082-.053.112-.024.051c-.015.033-.03.065-.044.1l-.026.058h0l-.015.034-.012.028-.023.054c-.007.015-.013.03-.02.046l-.008.02-.015.034c-.018.042-.036.084-.052.126l-.01.023c-.02.048-.039.1-.058.145l-.017.045c-.016.042-.032.085-.048.129-.009.023-.018.047-.026.071s-.024.066-.036.1c-.019.051-.037.1-.054.156l-.036.107c-.009.027-.017.054-.025.081s-.01.029-.014.043-.008.023-.011.035c-.015.044-.028.089-.04.133s-.022.075-.033.112-.017.06-.025.09a.206.206,0,0,1-.006.022c-.013.046-.025.091-.037.138-.007.026-.014.053-.02.08-.016.059-.03.118-.044.177s-.03.131-.045.2q-.108.5-.179.977h0l-.019.137c-.016.123-.03.245-.043.366-.007.069-.014.138-.02.207-.018.214-.031.427-.037.636a8.956,8.956,0,0,0,.528,3.422,12.373,12.373,0,0,0,3.369,5.025l-.108-.063a15.269,15.269,0,0,1-7.414-16.029l.061-.289.069-.287a13.653,13.653,0,0,1,3.97-6.963,10.541,10.541,0,0,1,7.867-2.618c.162.009.324.022.487.037.258.023.518.055.781.094a10.568,10.568,0,0,1,5.091,2.767,10.361,10.361,0,0,1,2.46,3.237c.053.107.1.216.151.325.021.046.041.093.061.139q.126.293.234.595c0,.005,0,.01,0,.015l0,.011c.006.02.013.039.021.058l.008.02h0l0,.009h0c0,.008,0,.016.007.023h0l.01.025v.011l.013.04C-786.66,978.028-786.559,978.379-786.476,978.732Z" transform="translate(808.363 -970.255)" fill="#869ab8"></path></g><path d="M-760.565,1027.774l-.141.179Z" transform="translate(763.725 -1022.065)" fill="#869ab8"></path><path d="M-760.565,1027.774l-.141.179Z" transform="translate(763.725 -1022.065)" fill="#869ab8"></path><path d="M-596.26,1418.706c.076,0,.149.021.226.026A.844.844,0,0,1-596.26,1418.706Z" transform="translate(609.703 -1388.219)" fill="#869ab8"></path><path d="M-596.26,1418.706c.076,0,.149.021.226.026A.844.844,0,0,1-596.26,1418.706Z" transform="translate(609.703 -1388.219)" fill="#869ab8"></path><g transform="translate(4.41 11.82)"><path d="M-714.384,1134.509a14.541,14.541,0,0,1-8.694,7.684l-.288.089-.288.084a13.543,13.543,0,0,1-8.628-.312h0a10.76,10.76,0,0,1-5.991-6.54,8.5,8.5,0,0,1-.491-3.358c0-.059,0-.119.008-.178.005-.093.012-.186.02-.279.006-.064.011-.129.018-.194q.016-.157.036-.317a.071.071,0,0,0,0-.011q.071-.56.2-1.145a11.172,11.172,0,0,1,.945-2.639h0c.028-.056.057-.111.086-.166h0c.031-.059.063-.117.094-.176q.11-.2.228-.4c.065-.108.132-.215.2-.321.01-.017.021-.033.032-.049q.061-.094.125-.187l.1-.137q.122-.175.253-.344c.077-.1.158-.2.24-.3l.1-.123c.032-.039.065-.077.1-.115l.074-.084.046-.052c.037-.041.074-.082.112-.123l.038-.041c.039-.043.079-.085.119-.126l.125-.128.15-.149.006-.006c.056-.055.112-.108.17-.161l.013-.013h0a10.676,10.676,0,0,0,.337,4.278,11.591,11.591,0,0,0,2.525,4.469,11.594,11.594,0,0,0,3.618,2.667c.2.093.4.18.6.262a11.1,11.1,0,0,0,7.306.3,12.652,12.652,0,0,0,4.106-2.216,11.023,11.023,0,0,0,3.4-5.06,11.675,11.675,0,0,0,.486-2.1c0,.016,0,.032,0,.049A16.347,16.347,0,0,1-714.384,1134.509Z" transform="translate(738.778 -1124.19)" fill="#869ab8"></path></g></g></g></svg>