<svg xmlns="http://www.w3.org/2000/svg" width="130" height="60" viewBox="0 0 130 60"><g transform="translate(-1885 -112)"><g transform="translate(1885 112)" fill="#fff" stroke="#707070" stroke-width="1" opacity="0"><rect width="130" height="60" stroke="none"></rect><rect x="0.5" y="0.5" width="129" height="59" fill="none"></rect></g><g transform="translate(1395.08 -272.492)"><path d="M508.572,406.415c0-.273-.022-.539,0-.8a6.549,6.549,0,0,1,4.8-5.626.71.71,0,0,1,.553.057,15.69,15.69,0,0,1-3.923,29.434,15.683,15.683,0,0,1-17.053-8.235,14.867,14.867,0,0,1-1.609-5.278,15.4,15.4,0,0,1,4.238-12.7,15.141,15.141,0,0,1,8.581-4.613,15.522,15.522,0,0,1,9,1.039c.057.025.114.049.169.077.014.007.021.027.031.04a15.315,15.315,0,0,0-12.038,5.244,13.248,13.248,0,0,0-2.907,6.093,10.218,10.218,0,0,0,1.184,7.305,8.687,8.687,0,0,0,5.695,4.2,8.431,8.431,0,0,0,10.186-9.146,7.726,7.726,0,0,0-1.06-3.308,7.471,7.471,0,0,0-2.826-2.633,11.974,11.974,0,0,0-2.739-1.073C508.77,406.472,508.677,406.445,508.572,406.415Z" transform="translate(0)" fill="#869ab8"></path><path d="M935.427,447.913v-4.375a23.8,23.8,0,0,1,2.921-.019V459.3h-2.678l-.127-.806a1.451,1.451,0,0,0-.153.109,3.6,3.6,0,0,1-3.115.944,4.44,4.44,0,0,1-3.413-2.507,6.991,6.991,0,0,1-.766-2.688,7.309,7.309,0,0,1,.392-3.267,5.161,5.161,0,0,1,2.66-3,5.375,5.375,0,0,1,2.56-.472,6.486,6.486,0,0,1,1.464.243C935.238,447.869,935.305,447.884,935.427,447.913Zm0,5.325c0-.876,0-1.753,0-2.629,0-.158-.046-.25-.2-.286a9.073,9.073,0,0,0-1.058-.243,2.629,2.629,0,0,0-2.8,1.459,3.8,3.8,0,0,0-.245.586,5,5,0,0,0-.07,2.648,3.369,3.369,0,0,0,.65,1.437,2.321,2.321,0,0,0,3.513.124.668.668,0,0,0,.211-.52C935.425,454.955,935.432,454.1,935.432,453.238Z" transform="translate(-375.301 -38.731)" fill="#869ab8"></path><path d="M1332.268,479.479h-7.427c.016.147.026.258.04.368a2.45,2.45,0,0,0,2.273,2.323,5.109,5.109,0,0,0,3.787-.882.634.634,0,0,1,.1-.041l.77,2.351a4.806,4.806,0,0,1-1.014.545,8.993,8.993,0,0,1-3.939.567,5.4,5.4,0,0,1-2.136-.6,5.092,5.092,0,0,1-2.525-3.176,8.009,8.009,0,0,1-.239-3.1,5.935,5.935,0,0,1,.637-2.26,4.987,4.987,0,0,1,4.832-2.813,5.312,5.312,0,0,1,1.439.226,4.2,4.2,0,0,1,2.5,1.972,6.605,6.605,0,0,1,.8,2.375,11.506,11.506,0,0,1,.112,1.933C1332.281,479.327,1332.275,479.387,1332.268,479.479Zm-3-2.109a2.153,2.153,0,0,0-2.188-2.271,2.288,2.288,0,0,0-2.119,2.271Z" transform="translate(-713.689 -63.885)" fill="#869ab8"></path><path d="M1150.57,472.721a5.18,5.18,0,0,1,4.781,2.505,5.857,5.857,0,0,1,.741,1.866,6.91,6.91,0,0,1-.569,4.751,4.855,4.855,0,0,1-3.364,2.7,5.415,5.415,0,0,1-4.425-.741,5.187,5.187,0,0,1-1.864-2.334,6.939,6.939,0,0,1-.05-5.453A5.013,5.013,0,0,1,1150.57,472.721Zm2.827,5.946c-.028-.3-.041-.6-.087-.9a3.448,3.448,0,0,0-.812-1.843,2.325,2.325,0,0,0-3.406-.018,3.025,3.025,0,0,0-.625,1.04,5.313,5.313,0,0,0-.247,2.331,4.262,4.262,0,0,0,.554,1.758,2.328,2.328,0,0,0,3.893.168,3.9,3.9,0,0,0,.385-.694A4.891,4.891,0,0,0,1153.4,478.667Z" transform="translate(-561.943 -63.851)" fill="#869ab8"></path><path d="M1020.5,476.984a2.213,2.213,0,0,0-.23-1.214,1.476,1.476,0,0,0-1.12-.679,3.636,3.636,0,0,0-2.219.363c-.38.185-.736.419-1.132.647l-.953-2.016c.1-.079.2-.158.3-.225a7.058,7.058,0,0,1,2.937-1.1,6.29,6.29,0,0,1,2.662.131,3.468,3.468,0,0,1,2.53,2.68,5.542,5.542,0,0,1,.16,1.287c.015,2.435.007,4.871.007,7.307,0,.061-.006.123-.009.181a20.613,20.613,0,0,1-2.663.02l-.131-.792c-.067.053-.1.078-.133.107a3.7,3.7,0,0,1-2.359.973,4.251,4.251,0,0,1-1.627-.186,3.533,3.533,0,0,1-2.5-3.63,3.177,3.177,0,0,1,1.291-2.453,5.814,5.814,0,0,1,2.215-.993,12.667,12.667,0,0,1,2.124-.328C1019.92,477.047,1020.191,477.014,1020.5,476.984Zm.007,2.07a1.535,1.535,0,0,0-.167,0c-.527.062-1.056.107-1.578.195a4.626,4.626,0,0,0-.939.271,1.48,1.48,0,0,0-.9,1.05,1.209,1.209,0,0,0,.871,1.55,1.949,1.949,0,0,0,.232.053,2.946,2.946,0,0,0,2.351-.67.355.355,0,0,0,.147-.317c-.006-.645,0-1.291,0-1.936C1020.523,479.191,1020.513,479.132,1020.505,479.054Z" transform="translate(-449.153 -63.819)" fill="#869ab8"></path><path d="M839.553,478.712a6.571,6.571,0,0,1,.553-2.779,5.046,5.046,0,0,1,4.773-3.208,5.131,5.131,0,0,1,3.7,1.271,5.487,5.487,0,0,1,1.635,2.624,6.9,6.9,0,0,1-.51,5.353,4.8,4.8,0,0,1-3.307,2.577,5.363,5.363,0,0,1-4.637-.91,5.586,5.586,0,0,1-1.916-2.928A6.717,6.717,0,0,1,839.553,478.712Zm8.1-.016c-.035-.343-.052-.689-.109-1.028a3.346,3.346,0,0,0-.83-1.778,2.326,2.326,0,0,0-3.332-.02A2.989,2.989,0,0,0,842.7,477a5.375,5.375,0,0,0-.125,2.908,3.426,3.426,0,0,0,.714,1.494,2.346,2.346,0,0,0,3.213.257,3.06,3.06,0,0,0,.84-1.24A5.484,5.484,0,0,0,847.65,478.7Z" transform="translate(-299.261 -63.853)" fill="#869ab8"></path><path d="M1246.807,484.413h-2.932c0-.108,0-.211,0-.313q0-3.121,0-6.242a3.712,3.712,0,0,0-.266-1.479,1.83,1.83,0,0,0-1.56-1.2,2.178,2.178,0,0,0-1.407.289c-.345.213-.661.473-.99.712a.324.324,0,0,0-.141.322,1.625,1.625,0,0,1,0,.186v7.691a26.829,26.829,0,0,1-2.88.031l-.019-.019c-.006-.006-.015-.013-.016-.02a.666.666,0,0,1-.013-.105q0-5.564,0-11.129a.927.927,0,0,1,.018-.121h2.645l.155.865c.107-.078.181-.135.257-.187a5.175,5.175,0,0,1,4.4-.807,3.247,3.247,0,0,1,2.214,1.872,5.978,5.978,0,0,1,.517,2.236c.022.406.017.814.018,1.221q0,2.922,0,5.843Z" transform="translate(-640.383 -63.842)" fill="#869ab8"></path><path d="M1100.012,441.788l-.329,2.415c-.2-.066-.365-.127-.534-.174a3.221,3.221,0,0,0-1.471-.1,1.246,1.246,0,0,0-1.084,1.172c-.028.289,0,.582,0,.913.8.013,1.6,0,2.436.008.03.779,0,1.544.015,2.34a6.069,6.069,0,0,1-.8.019c-.275,0-.549,0-.824,0h-.82v9.009a22.3,22.3,0,0,1-2.933.025V448.4c-.516-.05-1.01,0-1.516-.035v-2.345h1.51c0-.182,0-.33,0-.478a6.422,6.422,0,0,1,.135-1.557,3.23,3.23,0,0,1,2.955-2.634,6.59,6.59,0,0,1,3.086.358C1099.883,441.728,1099.93,441.752,1100.012,441.788Z" transform="translate(-516.287 -36.86)" fill="#869ab8"></path><path d="M761.226,474.831h2.937c-.02.191-4.429,11.077-4.62,11.407h-2.553l-4.783-11.4h3.127l2.962,7.512.058.005Z" transform="translate(-224.216 -65.665)" fill="#869ab8"></path></g></g></svg>