<svg xmlns="http://www.w3.org/2000/svg" width="130" height="60" viewBox="0 0 130 60"><g transform="translate(-1135 -112)"><g transform="translate(1135 112)" fill="#fff" stroke="#707070" stroke-width="1" opacity="0"><rect width="130" height="60" stroke="none"></rect><rect x="0.5" y="0.5" width="129" height="59" fill="none"></rect></g><g transform="translate(1136.824 126.377)"><path d="M-5584.67,4488.8c-.759-.089-.977.233-.918.944.055.648.012,1.3.012,1.949-.378.086-.539-.233-.8-.3-2.137-.541-3.652-.262-3.678,1.995a23.4,23.4,0,0,0-.007,2.5c.191,1.979.666,2.368,2.676,2.283a2.383,2.383,0,0,0,1.257-.45c.231-.155.531-.525.569.147.021.376.338.272.561.28.454.016.909.012,1.363.017v-9.43A5.521,5.521,0,0,1-5584.67,4488.8Zm-.9,5c0,.278,0,.555,0,.833,0,.173,0,.346,0,.52,0,1.247-.8,1.792-2.027,1.371a.814.814,0,0,1-.346-.208,6.925,6.925,0,0,1,.046-3.349,2.211,2.211,0,0,1,1.807-.132C-5585.517,4492.935-5585.567,4493.377-5585.574,4493.8Z" transform="translate(5709.985 -4479.538)" fill="#869ab8"></path><path d="M-7207.854,4364.909c0,3.311-.008,6.445.008,9.58a1.547,1.547,0,0,1-.583,1.06q-6.153,6.955-12.306,13.911c.2.364.516.194.755.194,3.722.013,7.443.035,11.163-.011.809-.01,1.012.224.981,1-.061,1.533-.036,3.071-.008,4.606.01.526-.123.733-.7.731q-8.687-.026-17.376,0a.869.869,0,0,1-.9-.528c-.925-1.759-1.879-3.5-2.843-5.244a.737.737,0,0,1,.1-1q10.664-12,21.3-24.03A2.638,2.638,0,0,1-7207.854,4364.909Z" transform="translate(7229.808 -4364.768)" fill="#869ab8"></path><path d="M-6852.7,4387.863a2.075,2.075,0,0,0-.652-.956q-5.8-6.569-11.625-13.124a2.044,2.044,0,0,1-.576-1.487c.03-3.021.014-6.042.014-9.329,1,1.12,1.837,2.04,2.658,2.968q9.328,10.531,18.668,21.052a1.346,1.346,0,0,1,.206,1.89c-.884,1.461-1.667,2.985-2.443,4.508a1.226,1.226,0,0,1-1.27.8q-8.48-.051-16.961,0c-.68,0-.9-.165-.874-.86.054-1.534.053-3.072,0-4.607-.023-.688.184-.872.872-.866C-6860.718,4387.88-6856.755,4387.863-6852.7,4387.863Z" transform="translate(6892.188 -4362.967)" fill="#869ab8"></path><path d="M-6133.589,4524.832c0-.837-.023-1.675.011-2.512.013-.3-.241-.8.266-.869.529-.071,1.359-.309,1.566.135.346.737.549.294.867.113a2.669,2.669,0,0,1,3.084.329c.373.38.485.053.635-.082a2.966,2.966,0,0,1,2.591-.487,1.172,1.172,0,0,1,1.059,1.242c.038,1.708.024,3.419.023,5.128,0,.888-.689.461-1.083.512-.412.053-.952.185-.936-.579.026-1.256-.007-2.513.011-3.769.009-.637-.091-1.108-.9-1.058-.7.044-1.194.175-1.142,1.072.07,1.182-.036,2.375.036,3.557.049.806-.374.834-.957.8-.525-.034-1.15.2-1.094-.762.071-1.217.005-2.441.022-3.663.009-.6-.1-1.06-.851-.992-.624.057-1.289.012-1.25.981.051,1.219-.044,2.446.031,3.662.056.947-.551.734-1.083.777-.616.049-.984-.044-.921-.813C-6133.534,4526.65-6133.589,4525.739-6133.589,4524.832Z" transform="translate(6213.779 -4509.746)" fill="#869ab8"></path><path d="M-5970.077,4525c0-.907-.014-1.814.008-2.721.007-.274-.173-.753.3-.749.543,0,1.311-.406,1.595.249.241.558.353.292.615.134a2.621,2.621,0,0,1,3.253.183c.347.311.463.107.657-.072a2.915,2.915,0,0,1,2.588-.485,1.1,1.1,0,0,1,1.015,1.151c.042,1.742.085,3.486.062,5.228-.012.916-.78.413-1.208.5s-.826.074-.8-.594c.043-1.29-.012-2.582.021-3.872.016-.667-.231-.995-.915-.933-.595.053-1.213.031-1.18.936.044,1.22-.048,2.445.03,3.662.057.884-.433.828-1.031.827-.569,0-1,.03-.951-.79.078-1.216.008-2.441.025-3.662.008-.625-.18-1.039-.894-.971-.614.058-1.292-.01-1.245.973.058,1.184-.037,2.375.032,3.558.044.779-.267.9-.961.9-.721,0-1.114-.094-1.031-.95C-5970.014,4526.678-5970.077,4525.834-5970.077,4525Z" transform="translate(6062.21 -4509.82)" fill="#869ab8"></path><path d="M-6368.865,4668.446a.751.751,0,0,0-.891-.551c-.729.091-1.544-.329-2.175.347a.509.509,0,0,0-.093.186c-.91,2.741-1.82,5.482-2.771,8.352.935-.232,2.159.618,2.391-.981.141-.979.638-1.38,1.622-1.191a1.822,1.822,0,0,0,.63,0c.879-.146,1.4.173,1.477,1.087.08.957.662,1.179,1.511,1.066a9.37,9.37,0,0,1,1.07-.006C-6367.042,4673.919-6367.96,4671.186-6368.865,4668.446Zm-1.106,4.527c-.476-.206-1.45.625-1.4-.467a12.908,12.908,0,0,1,.855-2.9c.351,1.125.621,2.008.9,2.887C-6369.5,4672.844-6369.627,4673.122-6369.972,4672.974Z" transform="translate(6437.311 -4645.557)" fill="#869ab8"></path><path d="M-6363.917,4496.483c.352,0,.7.021,1.053,0,2.125-.155,2.477.934,2.547,2.6.014.349-.013.687-.47.583-.506-.115-1.2.41-1.507-.4-.139-.364.06-.949-.473-1.049a5.548,5.548,0,0,0-2.5.038c-.294.08-.314.453-.318.722-.021,1.256-.018,2.512-.013,3.768,0,.707.37,1,1.076.921a4.568,4.568,0,0,1,1.052,0c.753.1,1.14-.2,1.145-.958.008-1.211.925-.618,1.456-.7.81-.121.549.519.529.913-.091,1.863-.66,2.393-2.528,2.4-.913,0-1.826,0-2.739,0a1.758,1.758,0,0,1-1.9-1.471,14.011,14.011,0,0,1,0-5.917,1.681,1.681,0,0,1,1.8-1.438c.6,0,1.194,0,1.792,0Z" transform="translate(6430.85 -4486.704)" fill="#869ab8"></path><path d="M-6178.976,4671.621c-1.5.339-2.634.124-3.266-1.325a5.906,5.906,0,0,0-.655-.945c-.12-.173-.238-.383-.482-.329-.284.063-.187.329-.194.519a5.783,5.783,0,0,0,.006,1.148c.152.919-.268,1.083-1.1,1.062-.7-.018-.871-.216-.86-.886.037-2.543.056-5.088-.006-7.63-.022-.9.467-.8,1.042-.813.6-.018.983.03.935.814-.073,1.18-.027,2.369-.012,3.553,0,.222-.144.537.145.654.355.144.465-.225.63-.422.224-.266.412-.562.616-.845,1.052-1.447,1.053-1.447,3.091-1.343-.668.894-1.241,1.733-1.892,2.507-.443.529-.552.916-.048,1.5C-6180.3,4669.688-6179.7,4670.631-6178.976,4671.621Z" transform="translate(6261.89 -4640.525)" fill="#869ab8"></path><path d="M-5805.046,4527.668c.052-.588.014-1.185.014-1.778h-.03c0-.871.02-1.744-.006-2.614a1.136,1.136,0,0,0-.941-1.227,15.23,15.23,0,0,0-4.089,0,1.116,1.116,0,0,0-.894,1.252c0,.279-.275.708.163.81.5.115,1.308.282,1.494-.079.416-.805,1.031-.53,1.607-.591.751-.08.723.441.764.945.061.733-.429.54-.827.52a13.352,13.352,0,0,0-1.572-.062,2.233,2.233,0,0,0-1.722,3.493,1.049,1.049,0,0,0,.857.537c.932.02,1.9.254,2.75-.37.13-.095.348-.376.482-.042.38.948,1.175.425,1.692.368C-5804.759,4528.771-5805.082,4528.078-5805.046,4527.668Zm-1.915-1.028c-.079,1.029-.894.776-1.5.851-.506.062-1.028.041-.99-.7.051-.993.822-.731,1.415-.8C-5807.613,4526.1-5806.889,4525.684-5806.961,4526.64Z" transform="translate(5915.173 -4510.292)" fill="#869ab8"></path><path d="M-6077.454,4696.147a1.506,1.506,0,0,0-1.632-1.321c-.351,0-.7-.009-1.052-.009-3.317,0-3.631.314-3.6,3.63.025,2.944.384,3.3,3.3,3.3.457,0,.913,0,1.368,0a1.523,1.523,0,0,0,1.619-1.341A10.576,10.576,0,0,0-6077.454,4696.147Zm-1.806,2.74c-.031,1.225-1,1.9-2.055,1.245-.894-.555-.322-1.657-.4-2.509-.036-.415-.236-1.023.428-1.25,1.444-.493,2.022.049,2.022,1.887C-6079.259,4698.469-6079.255,4698.678-6079.26,4698.888Z" transform="translate(6167.539 -4670.554)" fill="#869ab8"></path><path d="M-6237.611,4524.169c-.152-1.274-.661-1.654-1.961-1.689-.316-.009-.632,0-.948,0-3.15,0-3.4.249-3.434,3.36.038.66.034,1.327.122,1.981a1.64,1.64,0,0,0,1.835,1.6c.843.018,1.685,0,2.526.005a1.642,1.642,0,0,0,1.82-1.507A12.909,12.909,0,0,0-6237.611,4524.169Zm-1.853,2.159c-.032,1.5-.552,1.871-2.018,1.505a.539.539,0,0,1-.474-.581c0-.453,0-.905,0-1.358h-.016c0-.139,0-.278,0-.418.006-1.383.721-1.885,2.032-1.454.39.128.426.436.446.741C-6239.46,4525.284-6239.453,4525.808-6239.464,4526.329Z" transform="translate(6316.036 -4510.813)" fill="#869ab8"></path><path d="M-5970.582,4695.1a2.685,2.685,0,0,1,2.364-.863c1.419.049,1.837.372,1.882,1.771.046,1.5-.021,3,.024,4.5.031,1.021-.7.6-1.16.674-.571.092-.908-.028-.871-.75.062-1.252-.011-2.509.026-3.764.023-.744-.391-.929-.985-.846-.555.078-1.372-.179-1.368.839,0,1.186-.045,2.373.018,3.556.04.752-.132,1.038-.958,1-.708-.033-1.065-.085-1.025-.946.078-1.7.011-3.415.033-5.123,0-.349-.25-.964.49-.878C-5971.54,4694.333-5970.648,4693.775-5970.582,4695.1Z" transform="translate(6064.56 -4669.986)" fill="#869ab8"></path><path d="M-5698.861,4524.783c0-.836-.027-1.675.014-2.509.016-.327-.257-.937.311-.921.533.017,1.334-.557,1.624.446.118.409.3.111.428.016a2.353,2.353,0,0,1,1.02-.5c2.226-.359,2.889.188,2.893,2.426,0,1.22-.05,2.443.019,3.66.046.828-.361.885-1.009.864-.592-.019-1.095.063-1.033-.828.081-1.145-.014-2.3.031-3.45.031-.764-.145-1.2-1.031-1.136-.795.06-1.435.112-1.346,1.211.1,1.178-.018,2.371.035,3.555.038.858-.545.624-.981.626s-1.029.214-.986-.633C-5698.823,4526.668-5698.86,4525.725-5698.861,4524.783Z" transform="translate(5810.833 -4509.636)" fill="#869ab8"></path><path d="M-6235.178,4667.126c0,1.288-.058,2.579.02,3.863.053.87-.46.765-.985.744-.477-.02-1.042.217-1.022-.7.056-2.609.061-5.222,0-7.831-.021-.854.434-.757.972-.77.6-.013,1.089-.057,1.038.826C-6235.234,4664.547-6235.178,4665.838-6235.178,4667.126Z" transform="translate(6309.747 -4640.538)" fill="#869ab8"></path></g></g></svg>