<svg xmlns="http://www.w3.org/2000/svg" width="130" height="60" viewBox="0 0 130 60"><g transform="translate(-2785 -192)"><g transform="translate(2785 192)" fill="#fff" stroke="#707070" stroke-width="1" opacity="0"><rect width="130" height="60" stroke="none"></rect><rect x="0.5" y="0.5" width="129" height="59" fill="none"></rect></g><g transform="translate(2787 200)"><g transform="translate(0 0)"><path d="M3075.8,412.81h3.942c3.559,0,5.9,2.118,5.9,5.784s-2.327,5.784-5.9,5.784H3075.8Zm3.831,9.752c2.345,0,3.84-1.384,3.84-4s-1.531-3.959-3.84-3.959H3077.9v7.963Z" transform="translate(-3025.198 -405.554)" fill="#869ab8"></path><path d="M3249.957,457.025a4.354,4.354,0,1,1-4.56,4.347A4.371,4.371,0,0,1,3249.957,457.025Zm0,6.936a2.469,2.469,0,0,0,2.5-2.436c0-.045,0-.091,0-.136a2.469,2.469,0,0,0-4.934-.21c0,.07,0,.14,0,.21a2.469,2.469,0,0,0,2.365,2.569l.087,0Z" transform="translate(-3183.054 -446.708)" fill="#869ab8"></path><path d="M3410.818,457.221h1.983v.961a5.412,5.412,0,0,1-.031.569h.031a3.146,3.146,0,0,1,2.705-1.726,2.294,2.294,0,0,1,2.425,1.708h.031a3.251,3.251,0,0,1,2.833-1.708c1.727,0,2.719.979,2.719,3.159v5.339h-2.064v-4.947c0-.943-.182-1.659-1.143-1.659a2.162,2.162,0,0,0-2,1.886,4.555,4.555,0,0,0-.1,1.077v3.648h-2.068v-4.952c0-.89-.146-1.659-1.122-1.659a2.193,2.193,0,0,0-2.038,1.9,4.358,4.358,0,0,0-.1,1.059v3.648h-2.064Z" transform="translate(-3337.025 -446.708)" fill="#869ab8"></path><path d="M3631.114,457.025c2.394,0,3.679,1.744,3.679,3.942,0,.245-.048.8-.048.8h-5.731a2.362,2.362,0,0,0,2.491,2.2,4.1,4.1,0,0,0,2.394-.912l.814,1.481a5.174,5.174,0,0,1-3.336,1.192,4.258,4.258,0,0,1-4.446-4.061c0-.1-.006-.193,0-.29A4.066,4.066,0,0,1,3631.114,457.025Zm1.6,3.323a1.6,1.6,0,0,0-1.646-1.726,1.935,1.935,0,0,0-1.988,1.726Z" transform="translate(-3538.173 -446.708)" fill="#869ab8"></path><path d="M3765.466,462.976a3.474,3.474,0,0,0,2.261.912c.587,0,1.094-.258,1.094-.747,0-1.237-4.039-1.077-4.039-3.746,0-1.548,1.384-2.442,3.176-2.442a3.964,3.964,0,0,1,2.781.943l-.766,1.535a3.141,3.141,0,0,0-2.033-.721c-.538,0-1.059.231-1.059.752,0,1.17,4.04,1.023,4.04,3.7,0,1.384-1.206,2.491-3.177,2.491a4.643,4.643,0,0,1-3.207-1.219Z" transform="translate(-3666.256 -446.635)" fill="#869ab8"></path><path d="M3881.1,431.181h-1.077v-1.646h1.126v-2.393h2.042v2.393h1.886v1.646h-1.886v3.226a1.474,1.474,0,0,0,1.646,1.562,1.975,1.975,0,0,0,.374-.031v1.806a3.558,3.558,0,0,1-.636.049c-1.157,0-3.453-.342-3.453-3.114Z" transform="translate(-3773.747 -418.894)" fill="#869ab8"></path><path d="M3988.5,412.81h2.051v1.842H3988.5Zm0,3.257h2.069v8.306H3988.5Z" transform="translate(-3874.718 -405.554)" fill="#869ab8"></path><path d="M4056.808,456.956a4.221,4.221,0,0,1,3.212,1.25l-.912,1.419a3.252,3.252,0,0,0-2.167-.89,2.469,2.469,0,0,0-2.524,2.413q0,.082,0,.163a2.527,2.527,0,0,0,2.45,2.6c.046,0,.093,0,.139,0a3.817,3.817,0,0,0,2.443-1.059l.8,1.468a4.722,4.722,0,0,1-3.417,1.335,4.353,4.353,0,1,1-.022-8.7Z" transform="translate(-3934.117 -446.639)" fill="#869ab8"></path><path d="M3455.765,679.064c2.394,0,3.679,1.74,3.679,3.937,0,.245-.049.8-.049.8h-5.73a2.363,2.363,0,0,0,2.492,2.2,4.1,4.1,0,0,0,2.394-.89l.8,1.482a5.181,5.181,0,0,1-3.336,1.188,4.245,4.245,0,0,1-4.449-4.347A4.093,4.093,0,0,1,3455.765,679.064Zm1.6,3.319a1.6,1.6,0,0,0-1.646-1.726,1.936,1.936,0,0,0-1.984,1.726Z" transform="translate(-3374.947 -653.376)" fill="#869ab8"></path><path d="M3597.188,679.233h1.988v.961a5.685,5.685,0,0,1-.031.569h.031a3.216,3.216,0,0,1,2.963-1.726c1.842,0,2.883.961,2.883,3.159v5.338h-2.051v-4.894c0-1.01-.258-1.7-1.334-1.7a2.3,2.3,0,0,0-2.225,1.7,3.588,3.588,0,0,0-.147,1.108v3.808H3597.2Z" transform="translate(-3510.493 -653.35)" fill="#869ab8"></path><path d="M3744.383,679.064c2.394,0,3.679,1.74,3.679,3.937,0,.245-.049.8-.049.8h-5.73a2.362,2.362,0,0,0,2.492,2.2,4.1,4.1,0,0,0,2.393-.89l.8,1.482a5.183,5.183,0,0,1-3.337,1.188,4.242,4.242,0,0,1-4.448-4.347A4.09,4.09,0,0,1,3744.383,679.064Zm1.6,3.319a1.606,1.606,0,0,0-1.646-1.726,1.935,1.935,0,0,0-1.984,1.726Z" transform="translate(-3643.585 -653.376)" fill="#869ab8"></path><path d="M3885.687,680.336h1.988v1.433c0,.307-.03.583-.03.583h.03a2.857,2.857,0,0,1,2.638-2.131,2.454,2.454,0,0,1,.366.036v2.037a3.307,3.307,0,0,0-.49-.036,2.35,2.35,0,0,0-2.26,1.744,4.363,4.363,0,0,0-.183,1.335v3.288h-2.068Z" transform="translate(-3779.012 -654.452)" fill="#869ab8"></path><path d="M3980,682.111h.276V682c0-1.09-.686-1.464-1.6-1.464a4.452,4.452,0,0,0-2.278.8l-.783-1.5a5.608,5.608,0,0,1,3.257-1.023c2.18,0,3.452,1.2,3.452,3.306v5.209h-1.9v-.685a5.283,5.283,0,0,1,.031-.583h-.031a2.7,2.7,0,0,1-2.537,1.464,2.61,2.61,0,0,1-2.816-2.589C3975.081,682.289,3978.648,682.111,3980,682.111Zm-1.579,3.795a2.133,2.133,0,0,0,1.869-2.184v-.2h-.356c-1.058,0-2.767.147-2.767,1.3A1.107,1.107,0,0,0,3978.421,685.906Z" transform="translate(-3862.217 -653.136)" fill="#869ab8"></path><path d="M4116.328,634.849h2.052v8.662c0,.89.312,1.139.849,1.139a2.92,2.92,0,0,0,.307,0v1.806a4.631,4.631,0,0,1-.649.049c-1.138,0-2.558-.289-2.558-2.669Z" transform="translate(-3993.694 -612.222)" fill="#869ab8"></path><path d="M2366.35,351.014a21.51,21.51,0,1,1,21.51-21.51h0A21.537,21.537,0,0,1,2366.35,351.014Zm0-40.907a19.4,19.4,0,1,0,19.419,19.4A19.4,19.4,0,0,0,2366.35,310.106Z" transform="translate(-2344.84 -307.993)" fill="#869ab8"></path><path d="M2727.522,599.189a.333.333,0,0,0-.334-.329h-1.931a.334.334,0,0,0-.334.329v6.139h-.827a4.909,4.909,0,0,1-4.369-2.153h-2.981a7.817,7.817,0,0,0,7.35,4.587h3.038a.394.394,0,0,0,.231-.071.329.329,0,0,0,.156-.28Z" transform="translate(-2691.002 -578.724)" fill="#869ab8"></path><path d="M2438.731,518.5a.338.338,0,0,0,.333.334h1.926a.338.338,0,0,0,.333-.334v-5.961h.832a4.937,4.937,0,0,1,4.449,2.269h2.954a7.772,7.772,0,0,0-7.394-4.7h-3.052a.369.369,0,0,0-.382.356V518.5Z" transform="translate(-2432.232 -496.114)" fill="#869ab8"></path><path d="M2446.594,661.069a5.369,5.369,0,0,1-4.449,2.158h-3.078a.334.334,0,0,0-.333.329v.89h0v.89a.338.338,0,0,0,.333.334h3.114c3.582,0,6.4-1.828,7.479-4.587Z" transform="translate(-2432.233 -636.627)" fill="#869ab8"></path><path d="M2717.252,514.5a5.34,5.34,0,0,1,4.512-2.274h3.114a.333.333,0,0,0,.333-.329v-1.78a.338.338,0,0,0-.333-.334h-3.114c-3.635,0-6.478,1.882-7.524,4.7h3.012Z" transform="translate(-2688.667 -495.817)" fill="#869ab8"></path><path d="M3293.32,641.14V644.6h-1.49a3.583,3.583,0,0,1-3.844-3.955c0-2.571,1.5-4,3.844-4h3.07v-1.793h-3.186c-3.559,0-5.895,2.149-5.895,5.783s2.331,5.784,5.895,5.784h3.706V641.14Z" transform="translate(-3220.679 -612.222)" fill="#869ab8"></path><path d="M2576.333,532.3h-4.827v-4.823a.338.338,0,0,0-.334-.333h-1.695a.339.339,0,0,0-.334.333V532.3h-4.822a.337.337,0,0,0-.333.334v1.7a.338.338,0,0,0,.333.334h4.822v4.823a.338.338,0,0,0,.334.334h1.7a.337.337,0,0,0,.333-.334v-4.827h4.823a.338.338,0,0,0,.334-.334v-1.7A.338.338,0,0,0,2576.333,532.3Z" transform="translate(-2548.816 -511.968)" fill="#869ab8"></path><path d="M3073.626,637.919v-.031a2.572,2.572,0,0,1-1.442-2.487c0-2.02,1.62-2.994,3.59-2.994a7.18,7.18,0,0,1,1.49.191l-.5,1.633a3.655,3.655,0,0,0-.752-.093,1.554,1.554,0,0,0-1.748,1.521c0,.658.369,1.508,1.73,1.508h1.814V635.69h2.034v1.477h1.477v1.779h-1.477v1.335c0,2.322-1.521,3.861-4.089,3.861-2.465,0-4.07-1.49-4.07-3.412A2.98,2.98,0,0,1,3073.626,637.919Zm2.13,4.36a1.87,1.87,0,0,0,2.055-2.087V638.96h-1.926c-1.264,0-2.082.561-2.082,1.668A1.768,1.768,0,0,0,3075.756,642.279Z" transform="translate(-3021.37 -609.949)" fill="#869ab8"></path></g></g></g></svg>