<svg xmlns="http://www.w3.org/2000/svg" width="130" height="60" viewBox="0 0 130 60"><g transform="translate(-685 -192)"><g transform="translate(685 192)" fill="#fff" stroke="#707070" stroke-width="1" opacity="0"><rect width="130" height="60" stroke="none"></rect><rect x="0.5" y="0.5" width="129" height="59" fill="none"></rect></g><g transform="translate(707.175 198.728)"><path d="M440.846,2812.219c-1.467.848-2.743,1.635-4.068,2.328a1.236,1.236,0,0,0-.727,1.314c.033,2.71.014,5.422.014,8.133,0,4.671.016,9.342-.017,14.013-.005.725.165.976.917.927a25.889,25.889,0,0,1,3.136,0c.678.038.8-.226.8-.838-.029-2.809-.012-5.618-.013-8.427a7.05,7.05,0,0,1,.194-1.845,3.843,3.843,0,0,1,3.9-3.073,3.914,3.914,0,0,1,4.052,3.022,7.471,7.471,0,0,1,.225,2.037c0,2.777.011,5.553-.012,8.329,0,.561.092.827.741.794,1.109-.055,2.223-.044,3.333,0,.573.021.712-.187.708-.73-.023-3.233.041-6.469-.029-9.7a8.841,8.841,0,0,0-7.961-8.411,7.881,7.881,0,0,0-5.187,1.272Zm-27.832,21.12c0-1.469.017-2.939,0-4.408a8.663,8.663,0,0,0-4.528-7.738,8.877,8.877,0,0,0-13.285,6.554c-.4,3.538-.067,7.111-.145,10.667-.011.484.259.509.622.506,1.143-.01,2.289-.047,3.43.013.7.037.807-.256.786-.852-.038-1.109-.017-2.22-.01-3.331.013-2.09-.057-4.185.074-6.267a3.832,3.832,0,0,1,3.713-3.727,3.962,3.962,0,0,1,4.386,3.209,6.725,6.725,0,0,1,.154,1.652c0,2.841.015,5.683-.012,8.523-.005.576.115.82.751.79,1.109-.051,2.223-.052,3.332,0,.638.03.76-.217.748-.792C412.994,2836.539,413.016,2834.939,413.014,2833.339Zm-36.952,5.962H377.7a7.187,7.187,0,0,0,5.2-2.176,5.048,5.048,0,0,0-1.331-8.33,10.607,10.607,0,0,0-1.929-.7c-1.511-.416-3.038-.773-4.551-1.18-.725-.2-1.407-.519-1.355-1.423a1.64,1.64,0,0,1,1.422-1.538,4.042,4.042,0,0,1,4.351,1.269c.387.469.641.462,1.1.17a26.975,26.975,0,0,1,2.63-1.513c.686-.333.541-.587.125-1.033a9.77,9.77,0,0,0-11.207-1.832,6.881,6.881,0,0,0-1.846,1.439,4.844,4.844,0,0,0,1.206,7.671,6.976,6.976,0,0,0,1.805.744c1.646.412,3.3.784,4.936,1.238.7.193,1.4.533,1.388,1.427a1.786,1.786,0,0,1-1.362,1.732,4.992,4.992,0,0,1-4.808-.821c-.492-.378-.527-1.358-1.286-1.219a6.127,6.127,0,0,0-1.7.935c-.283.163-.568.323-.851.486-1.607.926-1.617.937-.3,2.254A8.275,8.275,0,0,0,376.062,2839.3Zm49.124,0a8.857,8.857,0,0,0,7.971-3.936c.373-.5.4-.8-.227-1.1a19.231,19.231,0,0,1-2.3-1.3c-.723-.484-1.326-.79-1.812.262a1.769,1.769,0,0,1-.564.535,5.073,5.073,0,0,1-6.877-.823,5.269,5.269,0,0,1,.823-7.214,4.923,4.923,0,0,1,6.888.938c.294.4.474.5.9.212.65-.435,1.344-.8,2.019-1.2,1.706-1,1.706-1,.393-2.5a9.7,9.7,0,0,0-16.54,9.146C416.711,2835.849,420.415,2839.718,425.187,2839.3Zm-33.58-32.73c-.945,1.308-1.908,1.185-3.1.416a5.758,5.758,0,0,0-4.318-.8,5.021,5.021,0,0,0-4.09,5.4,5.072,5.072,0,0,0,4.71,4.572,7.7,7.7,0,0,0,4.448-1.273q4.982-2.929,9.976-5.839a5.6,5.6,0,0,1,3.133-.972,3.1,3.1,0,0,1,3.049,2.658,3.032,3.032,0,0,1-2.176,3.306,4.6,4.6,0,0,1-3.818-.71c-.574-.318-1.281-.521-1.085-1.562-1.807,1.058-3.463,2.03-5.121,3-1.552.906-1.579.964-1.224,3.018,1.623-.989,3.236-1.9,4.758-2.941a.933.933,0,0,1,1.256-.067,9.161,9.161,0,0,0,2.952,1.277,5.343,5.343,0,0,0,5.949-2.741,5.021,5.021,0,0,0-1.4-6.1,5.859,5.859,0,0,0-6.709-.169c-3.478,2.007-6.938,4.045-10.4,6.074a7.154,7.154,0,0,1-2.512,1.055,3.279,3.279,0,0,1-3.289-1.293,2.793,2.793,0,0,1-.265-3.058,3.056,3.056,0,0,1,2.945-1.745,6.016,6.016,0,0,1,3.03,1c.51.284,1.164.461.588,1.486,3.093-1.781,5.92-3.4,8.74-5.039a.945.945,0,0,0,.47-1.4.956.956,0,0,0-1.445-.3c-.769.43-1.539.862-2.282,1.334a1.054,1.054,0,0,1-1.261.021c-.747-.467-1.516-.9-2.287-1.327-.57-.315-1.167-.391-1.538.258s-.038,1.11.555,1.441S391.018,2806.229,391.607,2806.571Zm.258,13.45c-1.571.911-3,1.748-4.435,2.563-.327.186-.314.457-.314.752q0,7.488-.007,14.976c0,.459.129.627.607.615,1.175-.031,2.351-.037,3.525,0,.555.018.633-.22.632-.694C391.86,2832.231,391.865,2826.228,391.865,2820.021Z" transform="translate(-368.378 -2803.613)" fill="#869ab8"></path><path d="M885.036,2868.707v9.14a7.881,7.881,0,0,1,5.187-1.272,8.841,8.841,0,0,1,7.961,8.411c.069,3.232.005,6.467.029,9.7,0,.543-.134.751-.708.73-1.11-.041-2.224-.052-3.332,0-.649.032-.746-.233-.741-.794.023-2.776.008-5.553.012-8.329a7.481,7.481,0,0,0-.225-2.038,3.914,3.914,0,0,0-4.052-3.022,3.843,3.843,0,0,0-3.9,3.073,7.048,7.048,0,0,0-.194,1.845c0,2.809-.016,5.618.013,8.427.006.612-.119.875-.8.838a25.94,25.94,0,0,0-3.136,0c-.752.05-.922-.2-.917-.927.033-4.671.017-9.342.017-14.013,0-2.711.019-5.422-.014-8.133a1.235,1.235,0,0,1,.727-1.314C882.293,2870.343,883.569,2869.555,885.036,2868.707Z" transform="translate(-812.568 -2860.102)" fill="#869ab8"></path><path d="M587.735,2940.711c0,1.6-.021,3.2.013,4.8.012.575-.11.822-.748.792-1.109-.051-2.223-.051-3.332,0-.635.029-.756-.214-.751-.79.026-2.841.012-5.682.012-8.523a6.722,6.722,0,0,0-.154-1.652,3.962,3.962,0,0,0-4.386-3.209,3.831,3.831,0,0,0-3.713,3.727c-.132,2.082-.062,4.177-.074,6.266-.007,1.11-.028,2.222.01,3.331.021.6-.089.888-.786.852-1.141-.06-2.286-.022-3.43-.013-.363,0-.633-.022-.622-.506.078-3.556-.255-7.129.145-10.667a8.877,8.877,0,0,1,13.285-6.554,8.663,8.663,0,0,1,4.528,7.738C587.751,2937.772,587.734,2939.242,587.735,2940.711Z" transform="translate(-543.098 -2910.986)" fill="#869ab8"></path><path d="M376.062,2946.88a8.275,8.275,0,0,1-6.736-2.4c-1.315-1.317-1.3-1.328.3-2.253.283-.163.568-.323.851-.486a6.121,6.121,0,0,1,1.7-.935c.758-.139.794.84,1.286,1.219a4.992,4.992,0,0,0,4.808.821,1.786,1.786,0,0,0,1.362-1.732c.01-.895-.693-1.234-1.388-1.427-1.634-.453-3.29-.826-4.936-1.238a6.968,6.968,0,0,1-1.805-.744,4.844,4.844,0,0,1-1.206-7.672,6.885,6.885,0,0,1,1.846-1.439,9.77,9.77,0,0,1,11.207,1.832c.416.445.56.7-.125,1.033a26.923,26.923,0,0,0-2.63,1.513c-.461.292-.715.3-1.1-.17a4.042,4.042,0,0,0-4.351-1.27,1.64,1.64,0,0,0-1.422,1.538c-.053.9.629,1.228,1.355,1.423,1.513.407,3.04.765,4.551,1.18a10.645,10.645,0,0,1,1.929.7,5.048,5.048,0,0,1,1.331,8.33,7.185,7.185,0,0,1-5.2,2.176Z" transform="translate(-368.378 -2911.193)" fill="#869ab8"></path><path d="M734.9,2946.965c-4.771.417-8.475-3.452-9.323-6.983a9.7,9.7,0,0,1,16.54-9.147c1.313,1.492,1.313,1.492-.393,2.5-.675.4-1.369.766-2.019,1.2-.427.286-.607.188-.9-.212a4.923,4.923,0,0,0-6.888-.937,5.269,5.269,0,0,0-.823,7.214,5.073,5.073,0,0,0,6.877.823,1.773,1.773,0,0,0,.564-.535c.486-1.052,1.089-.747,1.812-.262a19.237,19.237,0,0,0,2.3,1.3c.624.3.6.6.227,1.1A8.856,8.856,0,0,1,734.9,2946.965Z" transform="translate(-678.089 -2911.277)" fill="#869ab8"></path><path d="M468.447,2806.571c-.589-.341-1.174-.691-1.769-1.023s-.922-.8-.555-1.441.968-.573,1.538-.258c.771.427,1.54.86,2.287,1.327a1.054,1.054,0,0,0,1.261-.021c.743-.473,1.513-.9,2.282-1.334a.956.956,0,0,1,1.445.3.945.945,0,0,1-.47,1.4c-2.82,1.635-5.647,3.258-8.74,5.039.577-1.025-.078-1.2-.587-1.486a6.015,6.015,0,0,0-3.03-1,3.055,3.055,0,0,0-2.945,1.745,2.793,2.793,0,0,0,.264,3.058,3.279,3.279,0,0,0,3.289,1.293,7.153,7.153,0,0,0,2.512-1.055c3.465-2.029,6.925-4.067,10.4-6.074a5.859,5.859,0,0,1,6.709.169,5.021,5.021,0,0,1,1.4,6.1,5.343,5.343,0,0,1-5.949,2.741,9.16,9.16,0,0,1-2.952-1.277.933.933,0,0,0-1.256.067c-1.522,1.042-3.135,1.952-4.758,2.941-.355-2.055-.328-2.112,1.224-3.018,1.658-.968,3.314-1.94,5.121-3-.2,1.041.511,1.243,1.085,1.562a4.6,4.6,0,0,0,3.818.71,3.032,3.032,0,0,0,2.176-3.306,3.1,3.1,0,0,0-3.049-2.658,5.6,5.6,0,0,0-3.133.972q-4.99,2.917-9.976,5.839a7.7,7.7,0,0,1-4.448,1.273,5.072,5.072,0,0,1-4.71-4.572,5.022,5.022,0,0,1,4.09-5.4,5.758,5.758,0,0,1,4.318.8C466.539,2807.756,467.5,2807.878,468.447,2806.571Z" transform="translate(-445.218 -2803.613)" fill="#869ab8"></path><path d="M514.814,2927.72c0,6.207,0,12.21.008,18.213,0,.474-.077.712-.632.694-1.174-.04-2.351-.032-3.525,0-.478.013-.608-.156-.607-.614q.019-7.488.007-14.976c0-.3-.013-.567.314-.752C511.817,2929.468,513.243,2928.631,514.814,2927.72Z" transform="translate(-491.327 -2911.313)" fill="#869ab8"></path></g></g></svg>