<svg xmlns="http://www.w3.org/2000/svg" width="130" height="60" viewBox="0 0 130 60"><g transform="translate(-2935 -192)"><g transform="translate(2935 192)" fill="#fff" stroke="#707070" stroke-width="1" opacity="0"><rect width="130" height="60" stroke="none"></rect><rect x="0.5" y="0.5" width="129" height="59" fill="none"></rect></g><g transform="translate(2937 212)"><path d="M-6248.217,1224.756c.287.048.576.1.864.137a12.053,12.053,0,0,1,5.386,2.189.369.369,0,0,1,.07.075l-1.078.975c-3.884-2.388-7.843-2.649-11.775-.268a10.541,10.541,0,0,0-5.174,8.522h3.067a7.664,7.664,0,0,1,5.3-6.574,7.493,7.493,0,0,1,6.478.741c-.392.371-.769.728-1.153,1.077a.247.247,0,0,1-.22.014,6.025,6.025,0,0,0-2.436-.617,5.864,5.864,0,0,0-3.836,1.166,5.993,5.993,0,0,0-2.518,5.366,6.163,6.163,0,0,0,5.146,5.626,6.153,6.153,0,0,0,6.389-3.246.306.306,0,0,1,.274-.192c.528-.055,1.063-.11,1.6-.172a7.7,7.7,0,0,1-6.711,5.263,7.461,7.461,0,0,1-2.959-.35,7.754,7.754,0,0,1-4.473-3.774,7.782,7.782,0,0,1-.844-2.848h-3.143v7.713h-1.483c-.006-.082-.014-.158-.014-.233q0-2.12-.006-4.241c0-.6-.041-1.208-.035-1.818a30.937,30.937,0,0,1,.31-4.426,11.022,11.022,0,0,1,3.492-6.587,12.631,12.631,0,0,1,4.55-2.861,13.132,13.132,0,0,1,2.9-.618,1.557,1.557,0,0,0,.172-.048h1.866Z" transform="translate(6261.502 -1224.749)" fill="#869ab8"></path><path d="M-4550.605,1293.649h1.558v11.123c.006.426.082.542.494.686v1.29a1.35,1.35,0,0,1-1.62-.378,1.655,1.655,0,0,1-.178-.631,5.281,5.281,0,0,1-.007-.659h-.062c-.186.227-.357.46-.562.666a4.079,4.079,0,0,1-5.5.288,4.92,4.92,0,0,1-1.8-4.44,4.934,4.934,0,0,1,1.317-3.088,3.862,3.862,0,0,1,2.683-1.276,3.964,3.964,0,0,1,3.5,1.77.5.5,0,0,0,.193.172Zm.008,8.509a6.976,6.976,0,0,1,.006-.858,1.7,1.7,0,0,0-.474-1.338,5.621,5.621,0,0,0-1-.9,2.758,2.758,0,0,0-3.368.158,3.845,3.845,0,0,0-.935,4.474,3.136,3.136,0,0,0,2.643,1.9,3.086,3.086,0,0,0,2.546-1.064,1.908,1.908,0,0,0,.583-1.557,8.121,8.121,0,0,1-.006-.817Z" transform="translate(4675.182 -1288.921)" fill="#869ab8"></path><path d="M-5114.722,1300.236l-1.2.775c-.274-.35-.508-.714-.8-1.029a3.662,3.662,0,0,0-2.525-1.084,4.29,4.29,0,0,0-4.4,3.2,5.573,5.573,0,0,0,.584,4.8,4.164,4.164,0,0,0,3.089,2.058,4.024,4.024,0,0,0,4.074-2.031c.028-.055.062-.11.1-.178l1.31.714a3.863,3.863,0,0,1-1.371,1.716,5.886,5.886,0,0,1-5.153,1.029,5.638,5.638,0,0,1-2.7-1.716,6.743,6.743,0,0,1-1.8-4.028,6.532,6.532,0,0,1,1.523-4.934,5.967,5.967,0,0,1,6.808-1.647A4.89,4.89,0,0,1-5114.722,1300.236Z" transform="translate(5203.488 -1292.455)" fill="#869ab8"></path><path d="M-5378.991,1350.444a4.82,4.82,0,0,1,3.183-4.618,4.685,4.685,0,0,1,6.19,3.445,4.784,4.784,0,0,1-1.325,4.721,4.585,4.585,0,0,1-3.67,1.311,4.689,4.689,0,0,1-4.31-4.069C-5378.964,1350.972-5378.971,1350.7-5378.991,1350.444Zm1.633.028a3.643,3.643,0,0,0,.528,1.969,2.966,2.966,0,0,0,4.715.6,3.827,3.827,0,0,0,.362-4.762,2.9,2.9,0,0,0-4.268-.72A3.519,3.519,0,0,0-5377.358,1350.472Z" transform="translate(5439.547 -1337.269)" fill="#869ab8"></path><path d="M-4869.138,1345.826a4.738,4.738,0,0,1,4.734,4.858,4.772,4.772,0,0,1-4.756,4.872,4.734,4.734,0,0,1-4.733-4.865A4.738,4.738,0,0,1-4869.138,1345.826Zm3.135,4.961a3.7,3.7,0,0,0-1.192-2.868,2.922,2.922,0,0,0-3.83-.069,3.887,3.887,0,0,0-.521,5.146,2.946,2.946,0,0,0,4.062.679,3.449,3.449,0,0,0,1.482-2.889Z" transform="translate(4969.108 -1337.516)" fill="#869ab8"></path><path d="M-5869.19,1298.549h8.419v1.427h-6.813v4.289h5.736v1.352h-5.744v5.716h-1.591v-12.783Z" transform="translate(5896.11 -1293.484)" fill="#869ab8"></path><path d="M-5651.092,1349.853a5.316,5.316,0,0,0-.151-1.695,2.09,2.09,0,0,0-1.825-1.476,4.692,4.692,0,0,0-3.245.878l-.274.171c-.171-.336-.344-.666-.515-1.009a6.933,6.933,0,0,1,2.251-1.043,5.131,5.131,0,0,1,3.389.206,3.081,3.081,0,0,1,1.875,2.635c.082.762.054,1.537.061,2.305.008.714,0,1.427,0,2.141,0,.508.041.576.5.775v1.318a1.793,1.793,0,0,1-1.406-.137c-.528-.309-.371-.857-.46-1.317l-.075-.082a.7.7,0,0,1-.089.206,4.374,4.374,0,0,1-3.466,1.516,3.091,3.091,0,0,1-2.82-1.544,2.641,2.641,0,0,1,.9-3.589,4.465,4.465,0,0,1,2.2-.679,7.492,7.492,0,0,1,3.06.412A.224.224,0,0,0-5651.092,1349.853Zm0,1.681c0-.192.008-.392-.007-.583a.237.237,0,0,0-.109-.171,5.8,5.8,0,0,0-3.527-.254,1.861,1.861,0,0,0-1.365,1.118,1.776,1.776,0,0,0,1.255,2.305,3.391,3.391,0,0,0,2.965-.618,1.584,1.584,0,0,0,.789-1.571v-.226Z" transform="translate(5699.139 -1337.207)" fill="#869ab8"></path><path d="M-6083.8,1338.979c-.062-.041-.165-.165-.282-.178-.1-.007-.205.11-.315.178a1.329,1.329,0,0,0-.082-.37c-.247-.405-.755-.343-1.03.082a.823.823,0,0,1-.356.3.31.31,0,0,1-.295-.076c-.082-.1-.185-.295-.145-.377.063-.117.241-.178.378-.247.048-.028.124-.007.179-.007.014-.028.027-.041.02-.055-.157-.377-.15-.371.228-.549a.587.587,0,0,0,.254-.261c.075-.151.158-.206.308-.131a1.247,1.247,0,0,0,.818.1c.144-.021.246-.062.205-.254a2.089,2.089,0,0,1,.021-.453l-.055-.042a.848.848,0,0,0-.206.178.471.471,0,0,1-.624.268c-.116-.034-.233-.082-.385-.137a2.561,2.561,0,0,1,1.119-.672.78.78,0,0,1,.425.116c.138.062.22.178.344.233a.415.415,0,0,0,.563-.1.83.83,0,0,1,.226-.137.833.833,0,0,0,.076.219.251.251,0,0,0,.165.11,5.093,5.093,0,0,0,.789-.062.549.549,0,0,1,.617.26c.261.4.494.8.755,1.2a4.893,4.893,0,0,1,.508,1.983.472.472,0,0,1-.151.521,1.023,1.023,0,0,0-.206.542,3.547,3.547,0,0,0-.041.542l-.068.014c-.1-.254-.212-.508-.315-.762-.028-.068-.034-.151-.062-.227-.117-.4-.213-.453-.74-.473.2.439.186.459-.179.81a5.1,5.1,0,0,0-.4.48l-.1-.034-.8-1.523-.068.014a.936.936,0,0,0,.013.233c.082.281.158.57.261.844a.6.6,0,0,0,.6.459.6.6,0,0,1,.158.034c.157.034.22.11.1.261s-.267.323-.4.487a1.09,1.09,0,0,0-.255,1.057.547.547,0,0,1-.158.57,3.352,3.352,0,0,0-.487.7,2.048,2.048,0,0,1-1.1.913.212.212,0,0,1-.3-.13,1.735,1.735,0,0,1-.227-1.461,1.144,1.144,0,0,0,.027-.59,6.3,6.3,0,0,0-.233-.872c-.1-.288-.212-.357-.521-.364-.192,0-.391.014-.583,0-.83-.069-1.126-.405-1.181-1.228a1.612,1.612,0,0,1,.384-1.208,1.57,1.57,0,0,1,1.022-.659,2.208,2.208,0,0,0,.515-.213.209.209,0,0,1,.315.13.806.806,0,0,0,.846.528c.3-.007.6.027.9.014.1,0,.186-.082.275-.13a1.24,1.24,0,0,0-.213-.24,2.625,2.625,0,0,0-.563-.3C-6083.557,1338.8-6083.667,1338.9-6083.8,1338.979Zm1.921-.734c-.076.055-.2.11-.233.192-.027.055.076.165.116.247a2.719,2.719,0,0,0,.165.3,1.015,1.015,0,0,0,.171.172,1.1,1.1,0,0,0,.11-.247.34.34,0,0,0-.062-.171C-6081.69,1338.594-6081.773,1338.45-6081.883,1338.245Zm-3.815,2.841a5,5,0,0,0-.378.357.2.2,0,0,0,.014.165.2.2,0,0,0,.166.021c.082-.014.157-.068.239-.076.131-.021.247-.069.214-.206-.008-.082-.131-.144-.255-.261Zm3.163-2.491.035-.11a3.36,3.36,0,0,0-.372-.233c-.081-.041-.219-.069-.267-.027a1.114,1.114,0,0,0-.157.329Zm.934,1.235-.1.1.309.288.062-.062Z" transform="translate(6098.97 -1328.618)" fill="#869ab8"></path><path d="M-4709.469,1348.149h1.56v.281c0,1.743-.015,3.479.013,5.222a5.351,5.351,0,0,0,.239,1.5,1.691,1.691,0,0,0,1.963,1.208,3.35,3.35,0,0,0,2.854-2.189.82.82,0,0,0,.062-.364v-5.661h1.545v7.363c0,.316.048.6.425.679a.146.146,0,0,1,.083.117c.007.4.007.8.007,1.262a6.952,6.952,0,0,1-1-.007.928.928,0,0,1-.795-.954c-.014-.171-.007-.343-.014-.515s-.027-.336-.041-.549c-.186.24-.337.46-.508.659a4.39,4.39,0,0,1-3.027,1.5,3.578,3.578,0,0,1-1.427-.137,2.436,2.436,0,0,1-1.641-1.736,6.78,6.78,0,0,1-.287-1.736c-.035-1.928-.014-3.85-.014-5.778A.8.8,0,0,1-4709.469,1348.149Z" transform="translate(4815.978 -1339.682)" fill="#869ab8"></path><path d="M-5516.679,1357.264c-1.235-3.129-2.471-6.251-3.712-9.415.542,0,1.049-.007,1.557.007.049,0,.117.11.139.179.425,1.132.844,2.258,1.263,3.389q.771,2.1,1.557,4.2c.021.062.055.124.1.24.172-.446.33-.851.479-1.263q1.225-3.273,2.437-6.546a.265.265,0,0,1,.295-.213c.418.013.837.007,1.29.007-.227.583-.446,1.139-.665,1.7q-1.484,3.756-2.965,7.513a.265.265,0,0,1-.295.206C-5515.7,1357.25-5516.185,1357.264-5516.679,1357.264Z" transform="translate(5571.244 -1339.396)" fill="#869ab8"></path><path d="M-5716.668,1305.1c.074.377.15.741.212,1.112a.2.2,0,0,1-.082.178,4.331,4.331,0,0,1-2.464.247,1.692,1.692,0,0,1-1.269-1.551c-.014-.179-.021-.357-.021-.535v-11.1h1.579v10.636a2,2,0,0,0,.041.46,1.012,1.012,0,0,0,1.229.734C-5717.183,1305.238-5716.942,1305.169-5716.668,1305.1Z" transform="translate(5757.429 -1288.735)" fill="#869ab8"></path><path d="M-4934.39,1305.387c.075.385.151.748.22,1.112a.186.186,0,0,1-.082.158,4.309,4.309,0,0,1-2.422.254,1.7,1.7,0,0,1-1.3-1.62c-.006-.144-.014-.295-.014-.439v-11.1h1.558v10.663a1.076,1.076,0,0,0,.5,1.036,1.405,1.405,0,0,0,1.043.075C-4934.739,1305.483-4934.581,1305.435-4934.39,1305.387Z" transform="translate(5028.809 -1289.015)" fill="#869ab8"></path><path d="M-5212.791,1347.012h1.434v2.065c.838-1.269,1.784-2.305,3.5-2.12v1.386c-.4.082-.81.13-1.194.247a3.191,3.191,0,0,0-2.092,1.812,1.009,1.009,0,0,0-.076.377q-.01,2.666,0,5.339v.288h-1.564Z" transform="translate(5284.752 -1338.551)" fill="#869ab8"></path><path d="M-6154.241,1327.587a2.288,2.288,0,0,1-1.454.926,2.3,2.3,0,0,0-.522.192,1.4,1.4,0,0,1-.335.083c-.139.014-.2-.069-.193-.2,0-.041.014-.076.014-.117.015-.137.124-.295-.068-.391a.505.505,0,0,0-.528.206c-.027.083.027.192.048.295.014.076.083.192.055.22a.481.481,0,0,1-.254.117.355.355,0,0,1-.22-.055.464.464,0,0,0-.542.034,2.361,2.361,0,0,0-.4.274.44.44,0,0,0-.151.288,1.082,1.082,0,0,0,.158.357,1.143,1.143,0,0,0,.24-.24,4.2,4.2,0,0,0,.171-.4c.076-.158.213-.206.344-.089a3.794,3.794,0,0,1,.528.521c.049.062.007.206-.021.3-.007.021-.144.007-.22-.007s-.164-.034-.261-.055a.534.534,0,0,0-.027.144c.035.186-.062.233-.22.309a2.5,2.5,0,0,0-1.069.892,1.14,1.14,0,0,0-.228.94l-.083-.007c-.034-.117-.062-.233-.095-.35a.543.543,0,0,0-.192.885,2.071,2.071,0,0,1,.281.446c.075.144.164.281.351.254a1.047,1.047,0,0,1,.994.522,2.476,2.476,0,0,0,.967.775c.357.158.405.3.323.679a4.039,4.039,0,0,0-.062.714c-.015.206-.021.4-.316.364a.156.156,0,0,0-.13.069,5.832,5.832,0,0,0-.2.755c-.056.343.192.577.37.823a2.2,2.2,0,0,1,.151.213,1.907,1.907,0,0,1-.692-.652,7.637,7.637,0,0,1-.975-2.072c-.083-.227-.2-.439-.295-.652a.652.652,0,0,1-.069-.192c0-.178-.021-.316-.26-.316a.392.392,0,0,1-.1-.3.9.9,0,0,0-.322-1.016,1.635,1.635,0,0,1-.418-1,2.648,2.648,0,0,1,.418-1.812c.205-.35.411-.693.617-1.043a1.275,1.275,0,0,1,.631-.521c.343-.151.673-.343,1.009-.521a1.623,1.623,0,0,1,.384-.206c.824-.158,1.648-.295,2.472-.432A3.561,3.561,0,0,1-6154.241,1327.587Z" transform="translate(6167.149 -1320.485)" fill="#869ab8"></path><path d="M-6076.275,1347.227l-.315.178a.921.921,0,0,1,.378-.569c.027-.021.109,0,.144.028a.3.3,0,0,1,.123.158,2.216,2.216,0,0,1,.015.377l-.357-.1A.205.205,0,0,0-6076.275,1347.227Z" transform="translate(6089.279 -1338.451)" fill="#869ab8"></path><path d="M-6017.277,1444.149a1.812,1.812,0,0,1-.521.94A.8.8,0,0,1-6017.277,1444.149Z" transform="translate(6034.542 -1429.094)" fill="#869ab8"></path><path d="M-6147.939,1397.4l-.487-.055-.165-.494.693.439Z" transform="translate(6156.339 -1385.04)" fill="#869ab8"></path><path d="M-6084.395,1340.668l-.59.041-.009-.075c.193-.089.372-.206.592-.075A.628.628,0,0,0-6084.395,1340.668Z" transform="translate(6097.105 -1332.557)" fill="#869ab8"></path><path d="M-6015.813,1365.049c.109.206.186.35.261.494a.352.352,0,0,1,.063.172,1.01,1.01,0,0,1-.111.247,2.311,2.311,0,0,1-.171-.171,2.577,2.577,0,0,1-.164-.3c-.041-.083-.144-.192-.116-.247C-6016.006,1365.159-6015.889,1365.1-6015.813,1365.049Z" transform="translate(6032.899 -1355.422)" fill="#869ab8"></path><path d="M-6073.251,1406.449c.124.116.24.178.261.261.034.137-.09.185-.213.206-.082.014-.158.062-.24.076a.227.227,0,0,1-.164-.021.157.157,0,0,1-.015-.165A3.831,3.831,0,0,1-6073.251,1406.449Z" transform="translate(6086.529 -1393.981)" fill="#869ab8"></path><path d="M-6032.23,1364.864l-.763-.042a.982.982,0,0,1,.159-.329c.047-.041.186-.007.269.027a2.77,2.77,0,0,1,.37.233Z" transform="translate(6048.674 -1354.887)" fill="#869ab8"></path><path d="M-6009.789,1388.049l.274.329-.062.062-.315-.288Z" transform="translate(6027.157 -1376.844)" fill="#869ab8"></path></g></g></svg>