<svg xmlns="http://www.w3.org/2000/svg" width="130" height="60" viewBox="0 0 130 60"><g transform="translate(-3235 -112)"><g transform="translate(3235 112)" fill="#fff" stroke="#707070" stroke-width="1" opacity="0"><rect width="130" height="60" stroke="none"></rect><rect x="0.5" y="0.5" width="129" height="59" fill="none"></rect></g><g transform="translate(3236.23 114.732)"><path d="M-1910.995,2153.883v-.076a13.374,13.374,0,0,1,13.721-13.605,13.908,13.908,0,0,1,8.793,2.671,2.886,2.886,0,0,1,1.129,2.292,2.822,2.822,0,0,1-2.823,2.819h-.031a3.049,3.049,0,0,1-1.714-.563,8.647,8.647,0,0,0-5.374-1.88c-4.434,0-7.627,3.692-7.627,8.193v.074c0,4.511,3.116,8.266,7.627,8.266a8.454,8.454,0,0,0,5.713-2.064,2.692,2.692,0,0,1,3.794.311,2.694,2.694,0,0,1,.639,1.717,2.733,2.733,0,0,1-.979,2.068,13.21,13.21,0,0,1-9.355,3.307,13.287,13.287,0,0,1-13.513-13.527Zm26.086-10.325a2.873,2.873,0,0,1,2.852-2.895h7.409c8.266,0,13.979,5.673,13.979,13.078v.074c0,7.4-5.714,13.152-13.98,13.152h-7.365a2.87,2.87,0,0,1-2.895-2.846c0-.016,0-.031,0-.046Zm10.261,18.186c4.734,0,7.927-3.194,7.927-7.852v-.076a7.555,7.555,0,0,0-7.928-7.928h-4.473v15.856Zm16.084-7.86v-.076a13.6,13.6,0,0,1,14.023-13.605c8.122,0,13.942,6.052,13.942,13.537v.074a13.494,13.494,0,0,1-2.329,7.553l1.126.941a2.831,2.831,0,0,1,1.052,2.179,2.707,2.707,0,0,1-2.676,2.739,2.707,2.707,0,0,1-1.939-.786l-1.428-1.277a14.338,14.338,0,0,1-7.817,2.256c-8.129-.007-13.955-6.058-13.955-13.534Zm13.681,2.965a2.723,2.723,0,0,1,2.7-2.741,2.676,2.676,0,0,1,1.917.788l2.892,2.593a9.181,9.181,0,0,0,.717-3.6v-.076a7.992,7.992,0,0,0-7.969-8.268,7.872,7.872,0,0,0-7.891,8.193v.074a7.99,7.99,0,0,0,7.965,8.266,7.888,7.888,0,0,0,3.458-.713l-2.745-2.329a2.843,2.843,0,0,1-1.049-2.181Zm-112.983,24.139a.5.5,0,0,1-.2-.4.486.486,0,0,1,.486-.486h.01a.511.511,0,0,1,.308.093,2.586,2.586,0,0,0,1.674.615c.649,0,1.058-.308,1.058-.751v-.018c0-.427-.24-.656-1.351-.923-1.27-.307-1.986-.683-1.986-1.784v-.015a1.827,1.827,0,0,1,2.039-1.735,3.283,3.283,0,0,1,1.9.556.47.47,0,0,1,.23.419.489.489,0,0,1-.492.486h0a.535.535,0,0,1-.273-.076,2.486,2.486,0,0,0-1.375-.452c-.615,0-.972.308-.972.707v.019c0,.458.274.664,1.427.938,1.262.307,1.911.76,1.911,1.751v.015c0,1.12-.88,1.787-2.135,1.787a3.734,3.734,0,0,1-2.246-.744Zm5.618-4.818a.527.527,0,0,1,.527-.526.526.526,0,0,1,.526.526v2.009h2.852v-2.009a.527.527,0,0,1,.581-.465.527.527,0,0,1,.465.465v5.021a.527.527,0,0,1-.566.483.526.526,0,0,1-.483-.483v-2.04h-2.849v2.04a.526.526,0,0,1-.527.526.527.527,0,0,1-.526-.526Zm6.148,4.8,2.22-4.952a.668.668,0,0,1,.615-.428h.052a.658.658,0,0,1,.615.428l2.219,4.952a.451.451,0,0,1,.061.221.492.492,0,0,1-.469.514h0a.541.541,0,0,1-.514-.369l-.486-1.116h-2.9l-.5,1.15a.507.507,0,0,1-.489.335.483.483,0,0,1-.486-.48v-.009a.552.552,0,0,1,.067-.247Zm3.913-1.692-1.052-2.416-1.049,2.416Zm3.03-3.073a.519.519,0,0,1,.51-.529h2.151a2.4,2.4,0,0,1,1.726.6,1.807,1.807,0,0,1,.495,1.29v.019a1.769,1.769,0,0,1-1.357,1.784l1.145,1.442a.617.617,0,0,1,.169.4.5.5,0,0,1-.493.5h-.009a.616.616,0,0,1-.514-.274l-1.452-1.845h-1.323v1.6a.526.526,0,0,1-.566.483.527.527,0,0,1-.484-.483Zm2.587,2.425c.751,0,1.23-.395,1.23-1v-.015c0-.64-.461-.991-1.23-.991h-1.538v2.006Zm3.643-2.462a.526.526,0,0,1,.526-.526.526.526,0,0,1,.526.526v5.021a.526.526,0,0,1-.526.526.526.526,0,0,1-.526-.526Zm2.648,0a.526.526,0,0,1,.516-.526h.111a.652.652,0,0,1,.545.308l2.99,3.867v-3.671a.517.517,0,0,1,.517-.516.516.516,0,0,1,.516.516v5.02a.511.511,0,0,1-.5.521h-.055a.662.662,0,0,1-.544-.307l-3.064-3.981v3.784a.515.515,0,0,1-.547.484.516.516,0,0,1-.484-.484Zm6.479,2.514v-.019a3.042,3.042,0,0,1,3.008-3.076h.068a3.232,3.232,0,0,1,2.04.615.536.536,0,0,1,.215.425.523.523,0,0,1-.523.523.564.564,0,0,1-.323-.12,2.27,2.27,0,0,0-1.452-.471,2.024,2.024,0,0,0-1.939,2.105v.02a2,2,0,0,0,2.03,2.135,2.446,2.446,0,0,0,1.446-.452v-1.123h-1.182a.462.462,0,0,1-.462-.461.462.462,0,0,1,.461-.463h1.669a.519.519,0,0,1,.529.51v1.616a.723.723,0,0,1-.369.665,3.8,3.8,0,0,1-2.126.649,2.962,2.962,0,0,1-3.091-2.829c0-.083,0-.168,0-.251Zm9.519-2.476a.52.52,0,0,1,.51-.529h1.7a2.98,2.98,0,0,1,3.178,2.971v.016a2.994,2.994,0,0,1-3.178,2.99h-1.7a.52.52,0,0,1-.529-.51v-.02Zm2.228,4.492a1.95,1.95,0,0,0,2.076-2.015v-.019a1.963,1.963,0,0,0-1.891-2.031c-.062,0-.124,0-.185,0h-1.178v4.064Zm3.809.273,2.222-4.953a.664.664,0,0,1,.63-.428h.052a.655.655,0,0,1,.615.428l2.222,4.952a.458.458,0,0,1,.058.221.492.492,0,0,1-.47.513h-.019a.538.538,0,0,1-.51-.369l-.475-1.126h-2.9l-.5,1.151a.5.5,0,0,1-.5.344.483.483,0,0,1-.486-.48v-.009a.516.516,0,0,1,.068-.247Zm3.91-1.692-1.049-2.416-1.052,2.416Zm3.815-2.63h-1.449a.487.487,0,0,1-.486-.486.486.486,0,0,1,.486-.486H-1898a.486.486,0,0,1,.486.486.487.487,0,0,1-.486.486h-1.459v4.525a.532.532,0,0,1-.572.49.533.533,0,0,1-.49-.49Zm3.04,4.322,2.221-4.952a.668.668,0,0,1,.616-.428h.052a.658.658,0,0,1,.616.428l2.218,4.952a.464.464,0,0,1,.062.221.492.492,0,0,1-.47.514h0a.542.542,0,0,1-.514-.369l-.47-1.126h-2.9l-.5,1.151a.508.508,0,0,1-.489.335.483.483,0,0,1-.486-.479v-.01A.558.558,0,0,1-1897.479,2180.971Zm3.913-1.692-1.052-2.416-1.049,2.416Zm5.59,1.846V2176.2a.521.521,0,0,1,.51-.53h3.5a.471.471,0,0,1,.468.472.464.464,0,0,1-.461.468h-2.963v1.553h2.572a.477.477,0,0,1,.468.48.468.468,0,0,1-.468.461h-2.572v1.606h3.006a.471.471,0,0,1,.43.508.471.471,0,0,1-.43.43h-3.525a.519.519,0,0,1-.529-.51Zm5.565-.307,1.779-2.2-1.674-2.077a.665.665,0,0,1-.163-.391.505.505,0,0,1,.5-.514h.024a.548.548,0,0,1,.48.255l1.51,1.991,1.495-1.958a.587.587,0,0,1,.511-.289.483.483,0,0,1,.481.477.616.616,0,0,1-.163.4l-1.671,2.084,1.761,2.193a.672.672,0,0,1,.159.394.5.5,0,0,1-.494.514h-.025a.536.536,0,0,1-.476-.259l-1.606-2.091-1.584,2.052a.615.615,0,0,1-.5.307.48.48,0,0,1-.479-.48v-.008A.651.651,0,0,1-1882.411,2180.818Zm5.7-2.135v-.019a3.024,3.024,0,0,1,2.971-3.076h.105a3.112,3.112,0,0,1,2.049.674.526.526,0,0,1,.207.418.51.51,0,0,1-.51.51h-.01a.5.5,0,0,1-.307-.1,2.174,2.174,0,0,0-1.428-.539,2.012,2.012,0,0,0-1.974,2.05c0,.02,0,.041,0,.061v.015a2.014,2.014,0,0,0,1.972,2.12,2.155,2.155,0,0,0,1.5-.572.489.489,0,0,1,.308-.12.49.49,0,0,1,.494.484.491.491,0,0,1-.171.378,3.052,3.052,0,0,1-2.169.8,3.007,3.007,0,0,1-3.035-2.978c0-.036,0-.073,0-.109Zm6.565,2.443V2176.2a.52.52,0,0,1,.51-.53h3.5a.471.471,0,0,1,.468.472.465.465,0,0,1-.461.468h-2.964v1.553h2.573a.48.48,0,0,1,.471.48.468.468,0,0,1-.471.461h-2.573v1.606h3.015a.47.47,0,0,1,.43.508.471.471,0,0,1-.43.43h-3.535a.519.519,0,0,1-.529-.51Zm5.719-4.956a.525.525,0,0,1,.528-.524.526.526,0,0,1,.524.524v4.544h2.707a.48.48,0,0,1,.436.521.481.481,0,0,1-.436.436h-3.226a.522.522,0,0,1-.532-.513.115.115,0,0,1,0-.016Zm5.285,0a.525.525,0,0,1,.527-.524.527.527,0,0,1,.525.524v4.544h2.7a.48.48,0,0,1,.521.435.481.481,0,0,1-.435.521.453.453,0,0,1-.085,0h-3.227a.52.52,0,0,1-.529-.51v-4.99Zm5.286,4.956V2176.2a.521.521,0,0,1,.51-.53h3.5a.471.471,0,0,1,.469.472.465.465,0,0,1-.461.468h-2.963v1.553h2.572a.477.477,0,0,1,.468.48.467.467,0,0,1-.468.461h-2.572v1.606h3a.471.471,0,0,1,.43.508.471.471,0,0,1-.43.43h-3.521a.52.52,0,0,1-.529-.51v-.016Zm5.719-4.956a.525.525,0,0,1,.523-.529h.117a.654.654,0,0,1,.548.308l2.987,3.867v-3.667a.517.517,0,0,1,.517-.517.517.517,0,0,1,.517.517h0v5.021a.51.51,0,0,1-.5.52h-.053a.663.663,0,0,1-.548-.308l-3.076-3.978v3.781a.517.517,0,0,1-.517.517.517.517,0,0,1-.517-.517Zm6.479,2.514v-.019a3.024,3.024,0,0,1,2.971-3.076h.106a3.113,3.113,0,0,1,2.049.674.52.52,0,0,1,.207.418.526.526,0,0,1-.538.513.522.522,0,0,1-.3-.1,2.152,2.152,0,0,0-1.424-.538,2.015,2.015,0,0,0-1.978,2.052c0,.019,0,.039,0,.059v.015a2.016,2.016,0,0,0,1.975,2.12,2.15,2.15,0,0,0,1.492-.572.485.485,0,0,1,.308-.121.49.49,0,0,1,.5.483.491.491,0,0,1-.172.379,3.05,3.05,0,0,1-2.154.8,3.007,3.007,0,0,1-3.04-2.972c0-.039,0-.078,0-.117Zm6.566,2.443V2176.2a.521.521,0,0,1,.51-.53h3.5a.474.474,0,0,1,.471.472.468.468,0,0,1-.467.468h-2.957v1.553h2.569a.481.481,0,0,1,.471.48.468.468,0,0,1-.471.461h-2.569v1.606h3a.47.47,0,0,1,.508.43.47.47,0,0,1-.43.508.457.457,0,0,1-.078,0h-3.52a.519.519,0,0,1-.529-.51v-.016Z" transform="translate(1958.069 -2127.525)" fill="#869ab8"></path><ellipse cx="6.07" cy="6.07" rx="6.07" ry="6.07" transform="translate(16.05)" fill="#869ab8"></ellipse><ellipse cx="9.817" cy="9.817" rx="9.817" ry="9.817" transform="translate(0.061 21.646)" fill="#869ab8"></ellipse><path d="M-1855.619,2061.5a1.971,1.971,0,0,1-.871-.2,1.985,1.985,0,0,1-.925-2.65l0-.005,12.167-24.852a1.987,1.987,0,0,1,2.691-.811,1.988,1.988,0,0,1,.878,2.556l-12.159,24.852A1.983,1.983,0,0,1-1855.619,2061.5Z" transform="translate(1865.581 -2028.588)" fill="#869ab8"></path><path d="M-1690.214,2060.742a1.986,1.986,0,0,1-1.785-1.114l-12.159-24.853a1.985,1.985,0,0,1,.911-2.655,1.984,1.984,0,0,1,2.655.911h0l12.158,24.852a1.984,1.984,0,0,1-.918,2.652l0,0A1.959,1.959,0,0,1-1690.214,2060.742Z" transform="translate(1724.484 -2027.832)" fill="#869ab8"></path><path d="M-1788.1,1983.483c.154-5.713-10.094-3.295-12.613,6.387,0,0,4.815,1.538,8.494.191C-1790,1989.242-1788.2,1987.371-1788.1,1983.483Z" transform="translate(1813.193 -1980.43)" fill="#869ab8"></path><ellipse cx="7.971" cy="7.971" rx="7.971" ry="7.971" transform="translate(25.046 21.096)" fill="#869ab8"></ellipse></g></g></svg>