<svg xmlns="http://www.w3.org/2000/svg" width="80" height="60" viewBox="0 0 80 60"><g transform="translate(-25.046)"><g transform="translate(25.046)" fill="#fff" stroke="#707070" stroke-width="1" opacity="0"><rect width="80" height="60" stroke="none"></rect><rect x="0.5" y="0.5" width="79" height="59" fill="none"></rect></g><g transform="translate(29.439 5.949)"><g transform="translate(0 0)"><path d="M-57.425-1282.146q0,8.549,0,17.1a3.875,3.875,0,0,1-.2,1.478,4.783,4.783,0,0,0-.264.758,8.428,8.428,0,0,1-.632,1.255,2.127,2.127,0,0,1-.763,1.047c-.1.066-.127.187-.175.291a.677.677,0,0,1-.45.427c-.311.057-.482.291-.712.453a4.663,4.663,0,0,1-1.326.7,7.441,7.441,0,0,0-1.279.4,1.265,1.265,0,0,1-.567.1c-1.122,0-2.245,0-3.367,0-.229,0-.458.034-.686.034q-25.106,0-50.212-.008-2.059,0-4.119-.028a3.168,3.168,0,0,1-1.1-.266,5.9,5.9,0,0,0-.614-.185,4.781,4.781,0,0,1-.979-.469,3.2,3.2,0,0,1-.646-.4c-.254-.228-.606-.277-.838-.526a.506.506,0,0,1-.145-.252.863.863,0,0,0-.36-.444,1.7,1.7,0,0,1-.433-.588,6.65,6.65,0,0,0-.368-.711,3.307,3.307,0,0,1-.479-1.018,7.257,7.257,0,0,1-.286-1.045c-.037-.377-.121-.748-.121-1.131q.005-16.817.006-33.633a8.9,8.9,0,0,1,.1-1.479,1.923,1.923,0,0,1,.25-.854,1.708,1.708,0,0,0,.2-.541,2.652,2.652,0,0,1,.4-.818c.144-.2.245-.444.4-.644.194-.253.241-.6.5-.8.185-.15.336-.334.518-.484s.413-.205.6-.355c.264-.21.572-.364.857-.548a2.935,2.935,0,0,1,.5-.239c.33-.132.648-.3.981-.411a4.408,4.408,0,0,1,1.373-.212c.775,0,1.55,0,2.324,0q1.876,0,3.752,0l36.612,0q6.044,0,12.089,0c.58,0,1.162,0,1.742.015.428.009.86-.006,1.291-.016a2.631,2.631,0,0,1,.952.137c.382.134.779.225,1.17.334a.45.45,0,0,1,.257.144.374.374,0,0,0,.221.12,1.523,1.523,0,0,1,.737.421,2.168,2.168,0,0,0,.673.457,2.906,2.906,0,0,1,1.026,1.047,3.273,3.273,0,0,0,.308.49c.04.059.12.1.141.16.146.431.541.737.605,1.2a1.575,1.575,0,0,0,.2.493,4.915,4.915,0,0,1,.334,2.291Q-57.422-1290.522-57.425-1282.146Zm-38.151,22.724c5.9.031,13.249-.036,20.6.027,2.873.024,5.747.031,8.62-.027.747-.016,1.5-.036,2.241-.018a6.279,6.279,0,0,0,1.415-.29c.356-.071.635-.407,1.028-.451a.035.035,0,0,0,.018-.011c.342-.36.854-.494,1.173-.885.131-.16.275-.31.409-.469a4.74,4.74,0,0,0,.394-.58,10,10,0,0,1,.431-.926,1.426,1.426,0,0,0,.307-.734,14.123,14.123,0,0,0,.208-1.731c-.015-2.481-.04-4.962.014-7.444.028-1.3.009-2.6-.02-3.9-.029-1.279.009-2.559.016-3.838.015-2.719.018-5.437-.016-8.156-.041-3.31-.007-6.62-.013-9.93a5.53,5.53,0,0,0-.115-1.5,2.36,2.36,0,0,0-.5-1.148c-.124-.124-.062-.328-.154-.458a5.914,5.914,0,0,0-.794-1.159,9.022,9.022,0,0,0-1.07-.873c-.271-.176-.612-.161-.855-.369a1.644,1.644,0,0,0-.833-.379,8.98,8.98,0,0,0-1.566-.193c-1.242,0-2.485,0-3.727,0q-20.638,0-41.276,0c-1.747,0-3.494.02-5.242-.024-1.235-.03-2.472-.037-3.709.02-.783.036-1.568.006-2.353.007a5.263,5.263,0,0,0-1.72.133c-.219.074-.483.025-.665.14a6.349,6.349,0,0,1-.928.505,3.641,3.641,0,0,0-1.211.878,5.984,5.984,0,0,0-.774.972c-.212.346-.3.754-.529,1.088a1.767,1.767,0,0,0-.228.562,7.321,7.321,0,0,0-.2,2q0,16.579,0,33.159a2.209,2.209,0,0,0-.015.467,7.126,7.126,0,0,0,.146.841c.086.242.017.536.173.742a6.831,6.831,0,0,1,.616,1.22,5.255,5.255,0,0,0,.791,1.052,1.652,1.652,0,0,0,.462.414,6.413,6.413,0,0,0,1.17.656,8.157,8.157,0,0,0,.977.392,6.421,6.421,0,0,0,1.236.189c1.009-.02,2.019.025,3.029.026C-111.425-1259.421-104.229-1259.422-95.576-1259.422Z" transform="translate(128.543 1306.202)" fill="#869ab8"></path><path d="M-71.431-1223.288l-.006.075c-.09.051-.053.139-.053.211,0,.406,0,.811,0,1.216a.573.573,0,0,0,.056.267q0,.189-.006.378c-.085.057-.046.145-.046.217,0,.559.043,1.116.065,1.673.028.694.074,1.391.063,2.087,0,.091.068.175.011.271a.815.815,0,0,1-.732.509c-.144,0-.289-.049-.424-.036a5.236,5.236,0,0,1-1.6,0,.72.72,0,0,1-.625-.707c.006-.356,0-.714.013-1.07a2.782,2.782,0,0,0,.027-.706,1.024,1.024,0,0,1,.023-.484c.038-.145.09-.285.134-.428.1-.338.043-.431-.243-.642a1.243,1.243,0,0,0-.764-.15,16.02,16.02,0,0,0-2.192-.019c-.444.044-.692.225-.72.6-.007.091.011.184.008.276a20.093,20.093,0,0,0,.156,2.181c.048.612.02.828-.595,1.151a.968.968,0,0,1-.522.036c-.545-.007-1.091,0-1.636-.005-.112,0-.265.04-.309-.088a1.788,1.788,0,0,1-.2-.6c0-.748.078-1.491.094-2.238a6.7,6.7,0,0,1,0-1.18,5.959,5.959,0,0,0,.04-1.054c.02-1.021-.063-2.04-.053-3.061a9.458,9.458,0,0,0-.046-.945,3.307,3.307,0,0,1,.054-1.281.317.317,0,0,1,.338-.261c.681-.018,1.362.022,2.045-.023.524-.034.762.235.762.771,0,.5-.123.993-.091,1.5a2.9,2.9,0,0,1-.076.96c-.067.243.033.42.238.453a2.861,2.861,0,0,0,.487.072c.616-.009,1.232,0,1.848-.011a4.186,4.186,0,0,0,1.072-.04.383.383,0,0,0,.312-.412,3.019,3.019,0,0,1-.027-.708,7.693,7.693,0,0,0-.1-1.557,1.106,1.106,0,0,1,.082-.662c.172-.376.169-.389.587-.381a9.976,9.976,0,0,0,1.869-.02,1.1,1.1,0,0,1,.407.026.277.277,0,0,1,.221.233,2.658,2.658,0,0,1,.087.877c-.035.537,0,1.079-.02,1.617A8.911,8.911,0,0,0-71.431-1223.288Z" transform="translate(87.584 1237.323)" fill="#869ab8"></path><path d="M274.9-1055.507q0-1.845,0-3.69a.52.52,0,0,1,.6-.593c1.448.059,2.9-.01,4.343.006,1.313.015,2.628-.022,3.94.013.667.018,1.333-.01,2,.016a5.592,5.592,0,0,0,.794-.05.643.643,0,0,1,.757.676c-.033.508-.018,1.016-.037,1.524-.012.338.053.679.025,1.01-.066.8-.048,1.591-.047,2.386,0,.635.028,1.271.04,1.906a2.412,2.412,0,0,1-.14,1.009,1.761,1.761,0,0,1-.384.748c-.122.1-.139.287-.257.415a1.873,1.873,0,0,1-.709.371c-.078.035-.183.037-.237.093a.884.884,0,0,1-.705.2c-.266-.009-.528.015-.791.015-2.323,0-4.646-.005-6.97,0-.22,0-.453.08-.617-.117a1.521,1.521,0,0,0-.646-.381.627.627,0,0,1-.352-.412.529.529,0,0,0-.2-.268c-.213-.165-.236-.433-.328-.659a1.5,1.5,0,0,1-.084-.571Q274.9-1053.684,274.9-1055.507Zm4.92-.484a1.063,1.063,0,0,0,0,1.087c0,.3,0,.3.31.3.746,0,1.493-.007,2.24,0,.139,0,.182-.035.179-.177q-.014-.668,0-1.335c0-.145-.047-.179-.184-.178-.747,0-1.493,0-2.24,0C279.827-1056.293,279.827-1056.29,279.823-1055.991Zm2.726-1.7h0c0-.223-.006-.446,0-.668,0-.123-.02-.177-.163-.177-.8.007-1.594.006-2.392,0-.136,0-.172.05-.171.177q.005.678-.006,1.357c0,.118.032.162.157.16.39-.006.78,0,1.17,0,.416,0,.833-.009,1.249,0,.122,0,.16-.036.155-.158C282.543-1057.234,282.549-1057.464,282.549-1057.693Zm1.9-.8c-.4,0-.806,0-1.208,0-.13,0-.177.04-.175.172.005.453,0,.906,0,1.359,0,.116.029.161.155.16q1.214-.009,2.429,0c.114,0,.146-.033.145-.146-.006-.46-.008-.921,0-1.38,0-.143-.055-.164-.177-.162C285.225-1058.488,284.836-1058.491,284.448-1058.491Zm-6.649,6.131c.41,0,.819,0,1.228,0,.1,0,.158,0,.156-.133-.007-.467-.006-.934,0-1.4,0-.126-.046-.156-.164-.156q-1.2.007-2.391,0c-.134,0-.173.047-.172.176.006.452.007.9,0,1.357,0,.123.033.158.156.156C277.009-1052.365,277.4-1052.361,277.8-1052.361Zm3.383,0c.4,0,.8,0,1.207,0,.113,0,.165-.017.163-.149-.008-.46-.006-.92,0-1.38,0-.12-.032-.161-.157-.161q-1.2.005-2.392,0c-.126,0-.177.039-.181.172-.013.46-.006.919,0,1.379,0,.119.043.142.15.14C280.377-1052.364,280.78-1052.36,281.182-1052.36Zm3.235.043c.4,0,.8-.006,1.207,0,.136,0,.168-.037.166-.169-.008-.452-.006-.9,0-1.357,0-.116-.024-.162-.153-.165-.8-.018-1.595-.01-2.392,0-.144,0-.186.054-.184.191q.011.679,0,1.358c0,.114.032.146.145.144C283.612-1052.322,284.014-1052.317,284.417-1052.317Zm-6.6-4.534v0c.4,0,.8,0,1.207,0,.116,0,.165-.025.163-.152-.007-.467-.007-.934,0-1.4,0-.1-.031-.138-.135-.137q-1.218,0-2.436,0c-.111,0-.153.038-.152.15,0,.46.008.92,0,1.379,0,.147.057.16.176.158C277.027-1056.854,277.422-1056.851,277.817-1056.851Zm.008,2.245v0c.388,0,.776-.006,1.164,0,.142,0,.2-.024.2-.184-.011-.438-.009-.876,0-1.314,0-.148-.037-.2-.191-.2-.783.007-1.566.007-2.349,0-.137,0-.191.035-.189.181q.012.679,0,1.357c0,.129.045.152.161.151C277.021-1054.609,277.423-1054.606,277.825-1054.606Zm6.594.045v0c.4,0,.8,0,1.207,0,.112,0,.166-.014.164-.148-.008-.46-.007-.919,0-1.379,0-.118-.028-.163-.155-.162q-1.185.007-2.371,0c-.145,0-.206.037-.2.193.008.452.008.905,0,1.358,0,.117.041.144.15.143C283.614-1054.564,284.017-1054.561,284.419-1054.561Z" transform="translate(-223.06 1091.471)" fill="#869ab8"></path><path d="M211.936-1259.479a.751.751,0,0,1-.7.769q-.661.046-1.323.068a2.329,2.329,0,0,0-.379.066c-.7.136-1.426.176-2.119.374-.254.073-.449.267-.71.335a10.2,10.2,0,0,0-1.151.5,4.227,4.227,0,0,0-1.084.584c-.323.258-.7.4-1.016.644a4.822,4.822,0,0,0-1.092,1.066.2.2,0,0,1-.061.06,3,3,0,0,0-.749.724c-.244.295-.5.582-.722.9a.8.8,0,0,1-.083.124.839.839,0,0,0-.3.545.5.5,0,0,1-.153.278,1.358,1.358,0,0,0-.387.66.266.266,0,0,1-.076.127,1.9,1.9,0,0,0-.363.831,1.707,1.707,0,0,1-.2.471,2.676,2.676,0,0,0-.324.949,9.407,9.407,0,0,0-.25,1.238,10.533,10.533,0,0,0-.174,1.853.956.956,0,0,1-.167.653.765.765,0,0,1-1.128.108.961.961,0,0,1-.355-.884c-.007-.587.19-1.146.229-1.721a6.331,6.331,0,0,1,.153-1.138c.056-.222.158-.424.205-.651a5.885,5.885,0,0,1,.417-1.393,3.318,3.318,0,0,1,.618-1.184.2.2,0,0,0,.067-.13.865.865,0,0,1,.288-.579c.255-.29.326-.7.638-.955a1.1,1.1,0,0,0,.217-.428c.132-.315.418-.492.6-.761a4.052,4.052,0,0,1,.691-.744,5.137,5.137,0,0,0,.755-.716,2.28,2.28,0,0,1,.649-.514c.467-.28.877-.637,1.328-.939.1-.065.209-.1.306-.155a7.371,7.371,0,0,1,1.173-.6,11.327,11.327,0,0,1,1.684-.619,6.1,6.1,0,0,0,.648-.217,5.535,5.535,0,0,1,1.494-.247,6.787,6.787,0,0,0,.875-.1,3.78,3.78,0,0,1,1.36-.023A.787.787,0,0,1,211.936-1259.479Z" transform="translate(-155.048 1266.203)" fill="#869ab8"></path><path d="M76.821-1195.382c0-.913,0-1.825,0-2.738a2.583,2.583,0,0,1,0-.79c.07-.232.165-.3.394-.222a3.134,3.134,0,0,0,1.717.044c.357-.082.776.129.7.556a23.726,23.726,0,0,0-.089,3.245c-.009.293-.059.583-.046.879.024.58.036,1.161.045,1.742a.577.577,0,0,1-.608.6c-.457-.017-.912-.022-1.368,0a1.075,1.075,0,0,1-.477-.109.41.41,0,0,1-.256-.41c.008-.934,0-1.869,0-2.8Z" transform="translate(-50.396 1212.917)" fill="#869ab8"></path><path d="M77.109-1223.125c0-.065,0-.129,0-.194a.8.8,0,0,1,.265-.571,1.343,1.343,0,0,1,.776-.4,1.583,1.583,0,0,1,1.107.14,1.116,1.116,0,0,1,.54,1.523c-.066.14-.033.307-.16.435a1.129,1.129,0,0,1-.9.257,7.479,7.479,0,0,1-.873-.036,1.023,1.023,0,0,1-.646-.464,1.708,1.708,0,0,1-.1-.328,2.581,2.581,0,0,1,0-.365Z" transform="translate(-50.683 1234.846)" fill="#869ab8"></path><path d="M158.143-1194.781c0-.654.02-1.309-.006-1.962s-.1-1.285-.145-1.927a1.582,1.582,0,0,1-.009-.172c.016-.536.1-.61.665-.522a3.414,3.414,0,0,0,1.448.018,1.066,1.066,0,0,1,.277-.023.528.528,0,0,1,.53.719,2.682,2.682,0,0,0-.086.764c-.046,1.241-.095,2.483-.058,3.726a4.263,4.263,0,0,0,.072.529,4.023,4.023,0,0,1-.035.922c-.012.161-.445.487-.613.481a7.08,7.08,0,0,1-1.074-.035.874.874,0,0,0-.36.048.517.517,0,0,1-.625-.5c0-.69,0-1.38,0-2.069Z" transform="translate(-121.164 1213.12)" fill="#869ab8"></path><path d="M159.507-1224.916a1.352,1.352,0,0,1,1.414.821,1.046,1.046,0,0,1,.076.913,1.28,1.28,0,0,1-1.487.869,2.159,2.159,0,0,1-1.009-.266.334.334,0,0,1-.2-.309.278.278,0,0,0-.059-.181,1.212,1.212,0,0,1,.6-1.7c.114-.038.217-.116.333-.142A1.46,1.46,0,0,1,159.507-1224.916Z" transform="translate(-121.243 1235.372)" fill="#869ab8"></path><path d="M108.064-1211.856c-.027-.522.023-.975-.041-1.427-.034-.243.072-.481.043-.728a.641.641,0,0,0-.389-.549.455.455,0,0,1-.34-.416,6.2,6.2,0,0,1,.017-1.394c.03-.2.155-.258.32-.29a.4.4,0,0,0,.381-.45c0-.439.012-.878,0-1.317a2.015,2.015,0,0,1,.108-.676.355.355,0,0,1,.409-.243,10.435,10.435,0,0,0,1.647.174c.214-.009.512.411.494.627-.036.442-.078.884-.082,1.329s.151.476.536.46a4.639,4.639,0,0,0,.745-.093.617.617,0,0,1,.7.7,5.807,5.807,0,0,0-.036,1.031.611.611,0,0,1-.564.557c-.28,0-.562-.019-.841,0-.353.03-.473.1-.474.431a7.223,7.223,0,0,0,.032,1.644.929.929,0,0,0,.927.706.751.751,0,0,0,.339-.126c.294-.149.511,0,.632.3a1.794,1.794,0,0,1,.029.973c-.043.3-.317.475-.549.655a2.1,2.1,0,0,1-1.279.327,7.984,7.984,0,0,1-1.584-.047.751.751,0,0,1-.442-.2c-.163-.161-.372-.266-.53-.439a.737.737,0,0,1-.208-.5C108.059-1211.192,108.064-1211.558,108.064-1211.856Z" transform="translate(-77 1230.508)" fill="#869ab8"></path><path d="M275.223-1170.58a4.3,4.3,0,0,1,.115-1.133.673.673,0,0,1,.268-.476c.147-.1.169-.279.28-.4a3.047,3.047,0,0,1,.7-.493,6.011,6.011,0,0,0,.539-.46c.12-.1.054-.281.05-.431a7.293,7.293,0,0,1-.037-1.281.915.915,0,0,1,.342-.571.786.786,0,0,1,1.039-.035.948.948,0,0,1,.387,1.153,1.793,1.793,0,0,0,.022.957.575.575,0,0,0,.733.384,4.723,4.723,0,0,1,.915-.044c1.315,0,2.63.009,3.945,0,.3,0,.6.014.9.016a.981.981,0,0,1,.579.248c.239.179.551.259.745.489a5.165,5.165,0,0,1,.7,1.062,1.3,1.3,0,0,1,.105.543c0,.379.071.756.04,1.135a.935.935,0,0,1-.424.69.128.128,0,0,1-.1.026,4.046,4.046,0,0,0-1.192-.06,3.62,3.62,0,0,0-1.072-.015,6.978,6.978,0,0,1-1.476.078c-.334.009-.666,0-1,.031-.279.029-.57-.071-.852-.056-.637.034-1.271-.084-1.9-.035-.525.039-1.048.016-1.572.027a7.854,7.854,0,0,0-1.522.034c-.279.06-.56-.056-.849,0-.151.027-.258-.109-.311-.275A4.448,4.448,0,0,1,275.223-1170.58Z" transform="translate(-223.327 1192.764)" fill="#869ab8"></path><path d="M127.4-1111.631a12.693,12.693,0,0,1,0,1.473,1.242,1.242,0,0,0,.041.405,1.968,1.968,0,0,1-.292,1.168,6.422,6.422,0,0,1-.715,1.079,1.575,1.575,0,0,0-.192.358c-.207.522-.647.893-.888,1.4a1.308,1.308,0,0,1-.487.589.4.4,0,0,0-.2.27.4.4,0,0,1-.239.312.215.215,0,0,0-.123.143,1.387,1.387,0,0,1-.47.631c-.177.152-.268.374-.449.517a1.68,1.68,0,0,1-1.153.334c-.4-.019-.787.01-1.18,0a.747.747,0,0,1-.643-.326,3.977,3.977,0,0,1-.207-.511,1.047,1.047,0,0,0-.185-.313.492.492,0,0,1-.075-.616.558.558,0,0,1,.544-.3,2.317,2.317,0,0,0,1.012-.172.691.691,0,0,0,.319-1.028c-.273-.4-.534-.81-.808-1.21a2.137,2.137,0,0,0-.557-.646.245.245,0,0,1-.115-.151,4.876,4.876,0,0,0-.414-.87,2.333,2.333,0,0,1-.143-.776,8.81,8.81,0,0,1,.034-.967c.018-.485.007-.972.012-1.458a.264.264,0,0,1,.134-.233.96.96,0,0,1,.487-.154c.423,0,.845.033,1.269.011.762-.039.836.365.789.94a5.985,5.985,0,0,0,.059,2.014,3.459,3.459,0,0,0,.814,1.442.328.328,0,0,0,.537-.026,1.213,1.213,0,0,0,.29-.545.536.536,0,0,1,.108-.232,1.4,1.4,0,0,0,.306-.811,3.687,3.687,0,0,1,.078-.64,2.97,2.97,0,0,0-.047-1.238,1.475,1.475,0,0,1-.006-.446.314.314,0,0,1,.307-.323,11.9,11.9,0,0,1,1.952-.137.487.487,0,0,1,.45.414A3.913,3.913,0,0,1,127.4-1111.631Z" transform="translate(-87.862 1137.55)" fill="#869ab8"></path><path d="M8.864-1202.382c.158,0,.316,0,.474,0a1.447,1.447,0,0,1,.694.3,1.229,1.229,0,0,0,1.12.022.833.833,0,0,1,.833-.054,3.018,3.018,0,0,0,.741.1.773.773,0,0,1,.619.838,4.541,4.541,0,0,0-.131,1.126c.029.582-.09,1.161-.044,1.74.064.8.011,1.614.152,2.416a.932.932,0,0,1-.352.955.614.614,0,0,1-.382.11,3.126,3.126,0,0,1-.643-.034.753.753,0,0,0-.319.016.69.69,0,0,1-.773-.225.616.616,0,0,0-.784-.215,1.9,1.9,0,0,0-.441.356.355.355,0,0,1-.269.106,1.733,1.733,0,0,0-.512.057,2.968,2.968,0,0,1-1.185-.1,2.767,2.767,0,0,1-1.5-.88,2.134,2.134,0,0,1-.665-1.3,12.946,12.946,0,0,1-.207-1.679c.005-.421.169-.816.189-1.225a2,2,0,0,1,.409-1.031,2.162,2.162,0,0,1,1.16-1c.348-.094.677-.252,1.031-.342A5.58,5.58,0,0,1,8.864-1202.382Zm1.788,3.944a2.693,2.693,0,0,0-.147-.819,1.042,1.042,0,0,0-.837-.789,1.506,1.506,0,0,0-.95.042,1.264,1.264,0,0,0-.86.955,1.555,1.555,0,0,0,.4,1.437,2.363,2.363,0,0,0,1.061.511.433.433,0,0,0,.443-.1c.2-.2.4-.411.609-.6A.72.72,0,0,0,10.652-1198.438Z" transform="translate(11.912 1215.723)" fill="#869ab8"></path><path d="M234.821-1233.825a.829.829,0,0,1-.745.817,10.638,10.638,0,0,0-1.995.23,5.152,5.152,0,0,0-1.676.583c-.17.1-.368.1-.544.191a7.447,7.447,0,0,0-1.525,1.009,2.606,2.606,0,0,1-.408.274,9.051,9.051,0,0,0-.685.613,2.658,2.658,0,0,0-.5.61,10.57,10.57,0,0,0-1.142,1.782,10.842,10.842,0,0,0-.639,1.81,12.455,12.455,0,0,0-.262,1.41c-.048.34-.037.685-.1,1.025s-.308.46-.58.568a.536.536,0,0,1-.583-.143,1.114,1.114,0,0,1-.359-1.017,13.2,13.2,0,0,1,.229-1.94c.026-.162.092-.316.126-.477a8.917,8.917,0,0,1,.776-2.082,7.494,7.494,0,0,1,.508-.965,2.5,2.5,0,0,1,.541-.722c.189-.135.261-.416.43-.6a5.939,5.939,0,0,1,1.091-1.077c.173-.111.32-.263.482-.393a9.84,9.84,0,0,1,1.584-.994c.16-.084.3-.2.472-.285a13.661,13.661,0,0,1,1.782-.6,12.915,12.915,0,0,1,2.591-.418.964.964,0,0,1,1.074.558A.47.47,0,0,1,234.821-1233.825Z" transform="translate(-177.891 1243.825)" fill="#869ab8"></path><path d="M256.68-1208.842a.676.676,0,0,1-.235.536,1.411,1.411,0,0,1-1.035.364,4.383,4.383,0,0,0-1.862.366,7.754,7.754,0,0,0-1.268.7,4.947,4.947,0,0,0-.679.61c-.36.429-.9.753-1.043,1.312-.113.431-.442.724-.543,1.163-.155.678-.233,1.365-.356,2.046a.792.792,0,0,1-.491.556.646.646,0,0,1-.685-.12,1.045,1.045,0,0,1-.329-.935c0-.53.158-1.045.2-1.574a1.111,1.111,0,0,1,.235-.66.925.925,0,0,0,.131-.381c.111-.354.35-.648.435-1.019.045-.2.258-.333.38-.5.232-.323.534-.581.779-.894a6.437,6.437,0,0,1,.694-.736,1.135,1.135,0,0,1,.3-.163c.517-.24.958-.614,1.486-.832a5.215,5.215,0,0,1,1.846-.512,1.815,1.815,0,0,0,.445-.073,2.123,2.123,0,0,1,.916,0A.857.857,0,0,1,256.68-1208.842Z" transform="translate(-199.75 1222.046)" fill="#869ab8"></path><path d="M55.918-1106.83a2.037,2.037,0,0,0-.617.061,2.4,2.4,0,0,1-.79.022c-.225-.023-.331-.221-.463-.362-.269-.287-.4-.307-.719-.078a2.6,2.6,0,0,1-.954.463,2.619,2.619,0,0,1-1.368-.082,3.265,3.265,0,0,1-1.454-1.006c-.2-.224-.373-.466-.564-.7a1.485,1.485,0,0,1-.194-.58,3.688,3.688,0,0,1-.152-1.212c.008-.141-.043-.286-.033-.427a3.934,3.934,0,0,1,.458-1.675.947.947,0,0,0,.09-.283.639.639,0,0,1,.405-.466c.032-.014.079-.021.094-.046.174-.292.5-.411.731-.642a1.543,1.543,0,0,1,.719-.339,4.785,4.785,0,0,1,1.9.011,2.011,2.011,0,0,1,.639.337c.318.169.425.176.7-.047a.739.739,0,0,1,.431-.177,4.334,4.334,0,0,1,1.57.183c.275.087.347.2.357.487a6.048,6.048,0,0,1-.1.915c-.086.744-.067,1.485-.083,2.229s.136,1.481.126,2.224a3.356,3.356,0,0,1-.085.875c-.061.214-.283.266-.482.308A.508.508,0,0,1,55.918-1106.83Zm-4.658-3.8a1.128,1.128,0,0,0,.219.941c.082.08.156.169.242.244a1.336,1.336,0,0,0,2.019-.135,1.533,1.533,0,0,0,.292-.578,1.675,1.675,0,0,0-.126-1.135.578.578,0,0,0-.132-.214c-.577-.565-.577-.565-1.388-.55l-.151,0a1.653,1.653,0,0,0-.971.8.382.382,0,0,0-.005.086Q51.26-1110.9,51.261-1110.63Z" transform="translate(-25.844 1138.934)" fill="#869ab8"></path><path d="M284.022-1109.76c-.037.388.065.719.046,1.058-.016.294-.084.356-.376.423a4.168,4.168,0,0,1-.921.025c-.343,0-.549-.322-.438-.728a3.277,3.277,0,0,0,.077-.953c-.016-.913-.009-1.827,0-2.741a3.1,3.1,0,0,0-.089-.788.524.524,0,0,1,.4-.613,2.661,2.661,0,0,1,1,.047.422.422,0,0,1,.348.472,6.216,6.216,0,0,1-.058.837c-.092.575.348.806.771.778.287-.019.573-.026.86-.031a.688.688,0,0,0,.676-.851,3.861,3.861,0,0,0-.141-.475c-.169-.471.062-.655.533-.778a2.212,2.212,0,0,1,.666-.009.61.61,0,0,1,.486.528c-.05.531.028,1.061,0,1.59a4.11,4.11,0,0,0-.079.832c.107.725.033,1.461.151,2.186.06.369-.055.572-.414.657a1.938,1.938,0,0,1-1.082,0,.373.373,0,0,1-.28-.4,9.078,9.078,0,0,1,.086-1.329.523.523,0,0,0-.372-.536,1.52,1.52,0,0,0-.577-.029,1.13,1.13,0,0,1-.492,0,.451.451,0,0,0-.213,0c-.48.111-.561.212-.563.705C284.022-1109.826,284.022-1109.768,284.022-1109.76Z" transform="translate(-229.509 1138.791)" fill="#869ab8"></path><path d="M-21.866-1108.5c0-.972.006-1.943,0-2.915a8.869,8.869,0,0,0-.158-1.748.7.7,0,0,1,.7-.853,5.936,5.936,0,0,0,.764-.1,1.1,1.1,0,0,1,1.015.188.812.812,0,0,0,.912.1c.247-.112.5-.2.753-.309a2.271,2.271,0,0,1,1.144-.017c.3.024.562.17.856.2a.111.111,0,0,1,.058.026c.389.353.9.548,1.223.992a3.071,3.071,0,0,1,.7,2.339,2.948,2.948,0,0,0,.008.923,2.041,2.041,0,0,1-.058.6,1.739,1.739,0,0,1-.662,1.131.358.358,0,0,0-.1.141.52.52,0,0,1-.348.324c-.165.052-.262.2-.383.309a2.944,2.944,0,0,1-1,.416,2.275,2.275,0,0,1-1.371.056.865.865,0,0,1-.4-.153.305.305,0,0,0-.091-.056c-.277-.094-.568-.255-.84-.041-.253.2-.161.494-.119.763a3.814,3.814,0,0,1,.038,1.215c-.068.4-.244.53-.657.508-.4-.02-.789-.04-1.185-.028h-.065c-.18,0-.383.11-.527-.072a1.054,1.054,0,0,1-.214-.662C-21.869-1106.315-21.866-1107.409-21.866-1108.5Zm5.267-1.829c0-.048,0-.063,0-.077a1.774,1.774,0,0,0-.641-1.386.217.217,0,0,0-.092-.055,1.424,1.424,0,0,0-.981-.086,1.618,1.618,0,0,0-.8.831,1.393,1.393,0,0,0-.1.927,1.413,1.413,0,0,0,.8,1.092,1.372,1.372,0,0,0,1.025.017.918.918,0,0,0,.654-.561A1.484,1.484,0,0,0-16.6-1110.332Z" transform="translate(35.729 1138.89)" fill="#869ab8"></path><path d="M335.794-1110.873a13.9,13.9,0,0,0,.066,1.726.584.584,0,0,1-.647.717,2.993,2.993,0,0,1-.855-.074.3.3,0,0,1-.263-.314c.009-.474.01-.949.054-1.42a16.168,16.168,0,0,0,.062-2.13c-.017-.437-.34-.643-.838-.582-.328.04-.407-.04-.458-.37a.878.878,0,0,1,.18-.824.365.365,0,0,1,.3-.133c.537.024,1.074.065,1.611.062.444,0,.888-.058,1.331-.092.2-.015.431-.052.577.086a.778.778,0,0,1,.252.66c-.012.107-.027.214-.034.32-.014.2-.1.283-.3.275-.179-.007-.357-.032-.536-.039-.292-.011-.4.081-.457.372a2.125,2.125,0,0,0-.044.449C335.8-1111.781,335.794-1111.379,335.794-1110.873Z" transform="translate(-273.596 1138.979)" fill="#869ab8"></path><path d="M181.472-1080.536a2.127,2.127,0,0,1,.629-1.264,1.642,1.642,0,0,1,1.418-.32,1.825,1.825,0,0,1,.548.163.636.636,0,0,1,.317.277c.123.236.351.389.472.633a1.316,1.316,0,0,1,0,1c-.18.222-.28.489-.486.7a1.54,1.54,0,0,1-1.521.533,1.8,1.8,0,0,1-.928-.554A1.992,1.992,0,0,1,181.472-1080.536Z" transform="translate(-141.636 1110.943)" fill="#869ab8"></path></g></g></g></svg>