<svg xmlns="http://www.w3.org/2000/svg" width="130" height="60" viewBox="0 0 130 60"><g transform="translate(-2635 -112)"><g transform="translate(2635 112)" fill="#fff" stroke="#707070" stroke-width="1" opacity="0"><rect width="130" height="60" stroke="none"></rect><rect x="0.5" y="0.5" width="129" height="59" fill="none"></rect></g><g transform="translate(2637 130)"><g transform="translate(0 0)"><g transform="translate(0 0)"><g transform="translate(0 1.022)"><path d="M-5260.5,3507.13l-4.106-6.808c-.322.031-.674.031-1.029.031h-5.334v6.777h-3.789v-22.481h9.12c5.746,0,9.057,2.795,9.057,7.676,0,3.6-1.671,6.13-4.657,7.291l5.042,7.514Zm-5.139-10.181c3.47,0,5.461-1.477,5.461-4.528,0-2.954-1.992-4.368-5.461-4.368h-5.331v8.9Z" transform="translate(5274.757 -3484.649)" fill="#869ab8"></path><path d="M-4667.986,3484.649l5.459,18.274,5.427-18.274h3.726l5.459,18.274,5.427-18.274h3.919l-7.515,22.481h-3.886l-5.332-17.534-5.4,17.534h-3.911l-7.458-22.481Z" transform="translate(4717.479 -3484.649)" fill="#869ab8"></path><path d="M-4201.587,3484.649l12.047,16.154v-16.154h3.725v22.481h-3.725l-11.982-16.121v16.121h-3.789v-22.481Z" transform="translate(4285.893 -3484.649)" fill="#869ab8"></path><path d="M-3846.884,3495.889c0,6.488-4.916,11.24-11.724,11.24h-9.12v-22.481h9.215C-3851.767,3484.649-3846.884,3489.376-3846.884,3495.889Zm-3.832.033a7.662,7.662,0,0,0-7.867-7.869h-5.364v15.673h5.525a7.534,7.534,0,0,0,7.713-7.8Z" transform="translate(3973.745 -3484.649)" fill="#869ab8"></path></g><g transform="translate(20.708)"><path d="M-4820.692,3600.552a13.246,13.246,0,0,1-4.6,4.6.35.35,0,0,0,.044.025l.174.092.077.04.161.083q.164.086.328.167l.1.048.23.111.127.058.207.094.139.058.191.086.146.058.191.078.151.057.191.073.154.053.192.067c.051.02.1.035.156.052l.192.063.161.05.192.058.164.046.192.053.166.044.191.048.171.043.191.044.172.036.191.04.177.035.191.036.176.031.192.031.181.029.109.016a12.237,12.237,0,0,0,5.393-10.153,12.4,12.4,0,0,0-.1-1.58c-1.331-.328-2.672-.709-3.99-1.135l-.886-.29c0,.243-.017.487-.037.726A13.363,13.363,0,0,1-4820.692,3600.552Z" transform="translate(4838.448 -3584.73)" fill="#869ab8"></path><path d="M-4902.1,3480.78a12.275,12.275,0,0,0-14.584-9.413q-.589.126-1.163.311a16.973,16.973,0,0,0-1.456,2.837,15.858,15.858,0,0,0-1.062,4.871v.086c1.046-.395,2.079-.837,3.081-1.324a37.224,37.224,0,0,0,3.448-1.9l.233-.146.232.152a28.632,28.632,0,0,0,4.146,2.25c.55.242,1.052.439,1.533.619.677.249,1.324.46,2.026.688,1.183.383,2.379.73,3.572,1.033A.2.2,0,0,0-4902.1,3480.78Z" transform="translate(4926.363 -3471.088)" fill="#869ab8"></path><path d="M-4993.021,3500.439a12.965,12.965,0,0,1-1.741-5.837,14.847,14.847,0,0,1-.033-1.793c0-.1.015-.331.04-.609a15.793,15.793,0,0,1,1.075-4.486l.023-.059a16.565,16.565,0,0,1,.927-1.964,12.34,12.34,0,0,0-6.065,6.03,12.26,12.26,0,0,0,6,16.266,12.26,12.26,0,0,0,10.855-.292h-.019c-.182-.036-.361-.075-.541-.117l-.111-.027c-.179-.042-.36-.088-.538-.136l-.1-.027c-.172-.048-.341-.1-.511-.149l-.052-.016c-.178-.055-.355-.114-.531-.176l-.091-.042c-.176-.063-.351-.126-.524-.192l-.061-.023c-.163-.063-.325-.13-.485-.192l-.087-.036c-.168-.075-.337-.151-.5-.23l-.1-.048c-.172-.082-.341-.166-.51-.252-.32-.167-.716-.383-1.149-.619l-.664-.383.02-.009A12.979,12.979,0,0,1-4993.021,3500.439Z" transform="translate(4999.924 -3484.591)" fill="#869ab8"></path></g></g></g></g></g></svg>