<svg xmlns="http://www.w3.org/2000/svg" width="130" height="60" viewBox="0 0 130 60"><g transform="translate(-1435 -192)"><g transform="translate(1435 192)" fill="#fff" stroke="#707070" stroke-width="1" opacity="0"><rect width="130" height="60" stroke="none"></rect><rect x="0.5" y="0.5" width="129" height="59" fill="none"></rect></g><g transform="translate(1436.342 208.406)"><path d="M101.083,60.127a5.057,5.057,0,0,1,5.125,3.66h3.927a8.81,8.81,0,0,0-9.051-7.088A9.6,9.6,0,0,0,91.4,66.616a9.491,9.491,0,0,0,9.684,9.783,9.012,9.012,0,0,0,9.051-7.088h-3.927a5.237,5.237,0,0,1-5.125,3.66c-3.627,0-5.89-2.6-5.89-6.323C95.227,62.889,97.456,60.127,101.083,60.127Z" transform="translate(-63.747 -49.512)" fill="#869ab8"></path><path d="M161.86,58.429h-.166l-.2-1.863H158.2v19.5h3.66V63.72c0-2.6,2-4.026,4.625-4.026a3.85,3.85,0,0,1,.7.033V56.167a2.82,2.82,0,0,0-.7-.067A6,6,0,0,0,161.86,58.429Z" transform="translate(-108.318 -49.112)" fill="#869ab8"></path><path d="M267.683,56.1a8.262,8.262,0,0,0-6.123,2.329h-.166l-.2-1.863H257.9v19.5h3.66V63.787c0-2.729,2.462-4.16,5.491-4.16,2.6,0,4.459,1.3,4.459,3.993V76.066h3.66V63.388C275.137,58,271.344,56.1,267.683,56.1Z" transform="translate(-174.842 -49.112)" fill="#869ab8"></path><rect width="3.66" height="19.5" transform="translate(105.021 7.454)" fill="#869ab8"></rect><path d="M197.983,56.7a9.85,9.85,0,1,0,9.783,9.85A9.608,9.608,0,0,0,197.983,56.7Zm0,16.172c-3.627,0-5.957-2.662-5.957-6.323s2.329-6.389,5.957-6.389,5.957,2.729,5.957,6.389S201.611,72.872,197.983,72.872Z" transform="translate(-128.335 -49.512)" fill="#869ab8"></path><path d="M354.7,64.687c-3.627-.8-3.461-1.7-3.461-2.5a2.594,2.594,0,0,1,2.828-2.163c1.464,0,3.028.732,3.028,3.195h3.527c.133-3.993-2.5-6.422-6.556-6.422-3.594,0-6.489,2.5-6.489,5.557,0,3.86,3.061,5.058,6.389,5.79,3.527.765,3.827,1.864,3.827,2.629,0,1.464-1.5,2.729-3.594,2.729a3.643,3.643,0,0,1-3.794-3.76h-3.527c-.233,4.459,2.995,7.021,7.321,7.021,4.093,0,7.321-2.629,7.321-6.123C361.485,66.65,357.991,65.385,354.7,64.687Z" transform="translate(-234.202 -49.579)" fill="#869ab8"></path><path d="M20.446,35.1,8.3,62.054h3.893l2.363-5.424H29.664l2.363,5.424h3.86L23.807,35.1Zm1.6,4.592h.166l.2.5,3.427,7.853H18.416l3.427-7.853ZM15.92,53.569l1.131-2.529H27.168L28.3,53.569Z" transform="translate(-8.3 -35.1)" fill="#869ab8"></path></g></g></svg>