<svg xmlns="http://www.w3.org/2000/svg" width="130" height="60" viewBox="0 0 130 60"><g transform="translate(-3385 -112)"><g transform="translate(3385 112)" fill="#fff" stroke="#707070" stroke-width="1" opacity="0"><rect width="130" height="60" stroke="none"></rect><rect x="0.5" y="0.5" width="129" height="59" fill="none"></rect></g><g transform="translate(3386.57 126.459)"><path d="M29.236,22.055a7.915,7.915,0,0,0-.406,2.612c0,3.2,2.4,5.964,6.4,5.964a8.922,8.922,0,0,0,6.722-2.557h.128l-.187,1.949H51.1l2.269-10.591c.093-.458.167-.9.214-1.314L29.236,22.055m11.3-6.18a2.644,2.644,0,0,1,2.449-2.264,1.6,1.6,0,0,1,1.533,2.131l-.158.773,9.188-.962c-.7-4.693-5.082-6.731-10.177-6.731-7.59,0-11.216,3.773-11.932,7.111l-.1.472h9.091Zm2.483,6.977a3.04,3.04,0,0,1-2.813,2.759,1.8,1.8,0,0,1-1.753-2.38c.224-1.044,1.312-2.089,3.332-2.089h1.6Zm24.557-7.006A10.182,10.182,0,0,0,66.018,19.8c-.873,4.026.077,5.078,1.267,5.078,1.588,0,2.932-1.509,3.593-5.019.423-2.237.359-3.845-.248-4.506l9.83-1.592a12.019,12.019,0,0,1,.1,5.848c-1.44,7.231-5.865,11.024-10.805,11.024-2.237,0-4.679-.583-5.695-2.964H63.85l-.8,2.355h-8.9L56.8,17.59l10.78-1.745m.532-4.684a8.718,8.718,0,0,1,5.6-2.089,6.572,6.572,0,0,1,6.375,3.719l-22.769,2.37,3.06-14.4h9.806l-2.208,10.4h.138ZM10.342,25.119l.861-4.135H.072c-.771,7,4.726,9.808,11.779,9.808,6.768,0,13.925-2.259,15.518-8.434L10.342,25.119m-.369-6.992c-3.946-1.248-6.924-3.573-6.924-7.975C3.049,3.709,9.48.02,18.085,0,25.375-.027,30.2,3.012,29.35,9.072H18.976c.366-1.656-.586-2.6-2.361-2.6A2.517,2.517,0,0,0,14,8.028c-.241,1.2.527,1.956,2.387,2.459,1.568.428,2.639.712,4.181,1.152,4.388,1.257,6.486,3.876,7.029,6.618L14.556,19.6,9.973,18.127Zm89.216-8.7a6.332,6.332,0,0,0-5.072,2.855h-.179l.3-2.609H85.148l-.554,2.648,5.019-.524-.111.5-5.094.827L80.822,30.023h9.806s1.012-4.854,1.629-7.7c.989-4.536,3.477-5.562,5.134-5.562a4.006,4.006,0,0,1,2.491.808l1.605-7.563a4.593,4.593,0,0,0-2.3-.578m16.4,7.907.1-.473c.3-1.573-.456-2.764-2.105-2.764-1.519,0-2.815,1.09-3.271,3.237h5.275m7.285,6.156c-1.518,4.309-5.691,7.137-12.538,7.137-5.7,0-11.194-3.315-9.838-10.908,1.135-6.392,7.007-10.65,13.723-10.65,7.521,0,10.805,5.164,9.586,11.184l-.293,1.379H109.384a5.947,5.947,0,0,0-.224,1.536c0,1.806.958,2.437,2.178,2.437a3.13,3.13,0,0,0,2.939-2.116Z" transform="translate(0 0)" fill="#869ab8"></path><path d="M92.8,21.489h.261c.3,0,.554-.109.554-.389,0-.2-.148-.4-.554-.4a1.486,1.486,0,0,0-.261.02Zm0,1.257h-.362V20.477a3.881,3.881,0,0,1,.642-.054,1.194,1.194,0,0,1,.707.172.544.544,0,0,1,.205.468.566.566,0,0,1-.443.552v.019c.2.035.335.216.381.551a1.876,1.876,0,0,0,.145.561H93.69a1.621,1.621,0,0,1-.153-.579.425.425,0,0,0-.488-.4H92.8v.977Zm.379-2.9a1.634,1.634,0,1,0,.008,0h-.008Zm.008-.317a2.02,2.02,0,1,1-.008,0h.008Z" transform="translate(31.677 6.785)" fill="#869ab8"></path></g></g></svg>