<svg xmlns="http://www.w3.org/2000/svg" width="130" height="60" viewBox="0 0 130 60"><g transform="translate(-2035 -192)"><g transform="translate(2035 192)" fill="#fff" stroke="#707070" stroke-width="1" opacity="0"><rect width="130" height="60" stroke="none"></rect><rect x="0.5" y="0.5" width="129" height="59" fill="none"></rect></g><g transform="translate(2036 216)"><path d="M1020.449,237.572h-9.755l1.4,2.442h7.195a.569.569,0,0,1,.583.631V245.7a.569.569,0,0,1-.583.631l-8.259.02,0-2.072h6.8v-2.325l-6.946.011-2.623-4.413h-2.823l3.165,5.51,0,5.694h2.36v0h9.647c1.086,0,1.718-.948,1.718-2.842v-5.894c0-1.627-.632-2.452-1.87-2.452Z" transform="translate(-1005.432 -237.548)" fill="#869ab8" fill-rule="evenodd"></path><path d="M1443.676,244.183h-7.745v4.5H1433.5v-8.948a2.045,2.045,0,0,1,2.33-2.283h8.215c1.384,0,2.064.826,2.064,2.452v8.778h-2.428l-.009-4.5Zm-.017-2.425v-1.21a.641.641,0,0,0-.594-.657h-6.551a.57.57,0,0,0-.583.632v1.235Zm18.606,2.426v4.48h-2.429v-11.2h2.429v4.3h4.244l2.553-4.306h2.824l-3.166,5.51,3.166,5.708h-2.8l-2.6-4.491Zm50.415,4.5v-11.23h11.9v2.455h-9.487v1.858h9.487v2.423h-9.487v2.053h9.487v2.441Zm-3.892-2.461a.569.569,0,0,0,.582-.631V244.8a.569.569,0,0,0-.582-.632h-7.726c-1.141,0-1.64-.837-1.64-2.537V239.91c0-1.627.585-2.452,1.724-2.452h10.844l-1.436,2.443-8.124-.005a.571.571,0,0,0-.583.631v.61a.571.571,0,0,0,.583.631l7.526,0c1.262,0,1.9.742,1.9,2.516v1.532c0,1.918-.633,2.863-1.9,2.863h-10.995l1.482-2.45,8.344,0Zm-59.107-1.85V245.6a.567.567,0,0,0,.582.631l8.594,0v2.431H1449.1c-1.239,0-1.871-.948-1.871-2.842v-5.894c0-1.627.632-2.452,1.871-2.452h9.754v2.442h-8.594a.567.567,0,0,0-.582.631v3.821Zm-17.173-4.68c0-1.627-.656-2.233-1.87-2.218h-10.473v11.2h10.473c1.214,0,1.87-.543,1.87-2.17v-1.942a2.655,2.655,0,0,0-.35-1.465,2.648,2.648,0,0,0,.35-1.463v-1.943Zm-2.487,5.892a.641.641,0,0,1-.595.657l-6.821,0v-2.054l6.821,0a.642.642,0,0,1,.595.657Zm0-4.484a.641.641,0,0,1-.595.656l-6.821,0v-1.844h6.821a.641.641,0,0,1,.595.656Zm54.86-1.408c0-1.627-.656-2.233-1.871-2.218h-10.471v11.2h10.471c1.214,0,1.871-.543,1.871-2.17v-1.942a2.652,2.652,0,0,0-.35-1.465,2.645,2.645,0,0,0,.35-1.463v-1.943Zm-2.485,5.892a.644.644,0,0,1-.6.657l-6.822,0v-2.054l6.822,0a.644.644,0,0,1,.6.657Zm0-4.484a.644.644,0,0,1-.6.656l-6.822,0v-1.844h6.822a.643.643,0,0,1,.6.656Zm13.653,3.084h-7.745v4.5h-2.429v-8.948a2.046,2.046,0,0,1,2.332-2.283h8.214c1.383,0,2.063.826,2.063,2.452v8.778h-2.428l-.007-4.5Zm-.016-2.425v-1.21a.64.64,0,0,0-.594-.657h-6.55a.57.57,0,0,0-.583.632v1.235Z" transform="translate(-1396.943 -237.451)" fill="#869ab8" fill-rule="evenodd"></path></g></g></svg>