<svg xmlns="http://www.w3.org/2000/svg" width="130" height="60" viewBox="0 0 130 60"><g transform="translate(-0.092)"><g transform="translate(0.092)" fill="#fff" stroke="#707070" stroke-width="1" opacity="0"><rect width="130" height="60" stroke="none"></rect><rect x="0.5" y="0.5" width="129" height="59" fill="none"></rect></g><g transform="translate(10 1)"><g transform="translate(7.042 0)"><g transform="translate(0 0)"><path d="M-5287.709,2185.227l-.143.047h-.016c-1.728.619-3.583,1.427-4.962,2.093-1.792.872-3.52,1.839-5.2,2.87.189.063.38.111.57.158,1.316.349,2.837.634,4.264,1.094,9.338-5.375,19.769-8.545,34.8-3.948l-2.377-2.219c-11.05-3.281-19.578-2.632-26.934-.095Z" transform="translate(5361.218 -2167.251)" fill="#869ab8"></path><path d="M-5831.94,1925.575c15.425-7.53,26.2-21.021,52.093-12.27l-2.775-2.537c-25.38-9.321-35.685,3.868-51.3,11.018h3Z" transform="translate(5866.309 -1907.551)" fill="#869ab8"></path><path d="M-6397.4,2190.241l2.046,4.232c9.749,2.7,17.375,2.458,23.906.746l1.221-4.93c-7.213,2.346-15.741,3.043-27.172-.047Z" transform="translate(6397.396 -2173.993)" fill="#869ab8"></path><path d="M-5836.413,2233.661l.586-2.3h3.314c.522-.316,1.046-.65,1.569-.982-.174.015-.35.031-.523.031-1.743,0-3.186-.92-3.474-2.108a66.354,66.354,0,0,1-9.526,4.692l-1.315,4.93a56.4,56.4,0,0,0,9.369-4.264Z" transform="translate(5877.488 -2209.867)" fill="#869ab8"></path><path d="M-5537.886,2014.529a2.46,2.46,0,0,1-.1.333c11.683-7.451,23.129-14.616,42.834-7.879l-2.726-2.442c-18.612-6.737-29.233-.871-40.108,5.866h1.109Z" transform="translate(5587.378 -1996.155)" fill="#869ab8"></path><path d="M-6327.064,2335.867l2.029,3.931a46.954,46.954,0,0,0,17.724,1.348l1.11-4.471A51.866,51.866,0,0,1-6327.064,2335.867Z" transform="translate(6331.107 -2311.248)" fill="#869ab8"></path><path d="M-5579.506,2277.948c-1.506.983-3.012,1.981-4.55,2.949l-1.364,5.358c2.283-1.411,4.472-2.916,6.659-4.406a5.651,5.651,0,0,1-.745-3.9Z" transform="translate(5632.089 -2256.658)" fill="#869ab8"></path><path d="M-5350.11,2220.425a2.748,2.748,0,0,0-.047.491c1.554-.967,3.139-1.87,4.773-2.711a5.394,5.394,0,0,0-1.19-.111c-1.633-.016-3.265,1.046-3.536,2.33Z" transform="translate(5410.351 -2200.246)" fill="#869ab8"></path><path d="M-5219.7,2095.234a8.915,8.915,0,0,1,4.946,1.871c6.769-1.95,14.711-2.2,25.015.761l-2.536-2.3C-5203.579,2091.652-5212.187,2092.413-5219.7,2095.234Z" transform="translate(5287.393 -2082.22)" fill="#869ab8"></path><path d="M-6259.214,2471.287l1.823,3.757a56.68,56.68,0,0,0,12.175,1.284l.9-3.662A49.421,49.421,0,0,1-6259.214,2471.287Z" transform="translate(6267.157 -2438.885)" fill="#869ab8"></path><path d="M-5866.08,2412.541a47.865,47.865,0,0,1-9.226,3.5l-.539,2.013h7.022c.952-.364,1.872-.76,2.775-1.173h-1.141Z" transform="translate(5905.822 -2383.515)" fill="#869ab8"></path></g><g transform="translate(21.195 12.872)"><path d="M-5715.14,2281.533h-7.086l-.588,2.3-1.33,5.231-1.111,4.344h7.087l.95-3.757,1.363-5.359Z" transform="translate(5742.692 -2272.909)" fill="#77879e"></path><path d="M-5654.437,2161.263c.175,0,.348-.015.523-.032a3.365,3.365,0,0,0,2.868-1.823,1.215,1.215,0,0,0,.1-.333l1.015-4.137h-7.086l-.825,3.17a1.331,1.331,0,0,0-.063.27l-.016.031a1.971,1.971,0,0,0-.032.3,1.725,1.725,0,0,0,.048.412c.27,1.221,1.727,2.14,3.472,2.14Z" transform="translate(5679.262 -2153.59)" fill="#77879e"></path><path d="M-6019.336,2173.248l1.189-4.487,1.315-4.929,1.364-5.105,1.016-3.789h-7.72l-.508,2.061-1.221,4.93-1.031,4.2-1.109,4.471-.967,3.9-.9,3.662-.729,2.917h9.686a48.05,48.05,0,0,0,14.633-5.8h-15.552Z" transform="translate(6028.641 -2153.59)" fill="#77879e"></path><path d="M-5640.88,2131.495c-5.342,0-11.018,1.665-12.588,7.72-.047.238-.094.476-.126.7a5.63,5.63,0,0,0,.746,3.916,4.779,4.779,0,0,0,1.918,1.633c.412.206.823.38,1.236.539a39.4,39.4,0,0,0,4.518,1.332c2.6.65,4.375,1.205,3.931,3.3-.348,1.68-2.567,2.521-4.184,2.552h-8.323a73.95,73.95,0,0,1-10.272,5.8h17.533l.018-.048c5.848-.063,11.635-3.392,12.76-8.735,1-4.677-1.491-6.373-4.47-7.34-1.427-.46-2.949-.745-4.264-1.094-.191-.048-.381-.111-.571-.159-1.46-.428-2.965-1-3-2.33a2.664,2.664,0,0,1,.048-.491c.268-1.268,1.917-2.33,3.536-2.33a5.376,5.376,0,0,1,1.187.111,2.48,2.48,0,0,1,1.364.7s1.078,1.268.6,2.2c.554-.285.792-.412,1.458-.729,1.38-.65,3.234-1.474,4.962-2.093h.016l.143-.048c.206-.079.429-.143.633-.222a4.557,4.557,0,0,0-1.49-2.885,9.073,9.073,0,0,0-4.946-1.871,23.186,23.186,0,0,0-2.378-.127Z" transform="translate(5684.982 -2131.495)" fill="#77879e"></path></g><path d="M-6147.909,2384.914a35.05,35.05,0,0,1-4.52-1.332c-3.6,2.457-7.165,4.978-10.97,7.181a47.811,47.811,0,0,1-14.633,5.8,45.6,45.6,0,0,1-19.4-.523l1.681,3.471c11.969,2.441,21.114.618,29.011-2.964a76.521,76.521,0,0,0,10.271-5.8c2.9-1.886,5.708-3.9,8.563-5.834Z" transform="translate(6208.928 -2356.221)" fill="#869ab8"></path></g><g transform="translate(0 51.111)"><g transform="translate(0 0)"><path d="M-6516.781,2801.8v-.583h-2.477v-4.307h-.662v4.89Zm1.931.13a1.52,1.52,0,0,0,1.3-.562,2.322,2.322,0,0,0,.418-1.425,1.8,1.8,0,0,0-.475-1.351,1.615,1.615,0,0,0-1.166-.459,1.529,1.529,0,0,0-1.225.533,2.122,2.122,0,0,0-.457,1.431,1.97,1.97,0,0,0,.433,1.336A1.47,1.47,0,0,0-6514.85,2801.929Zm.056-.516a.881.881,0,0,1-.792-.38,1.7,1.7,0,0,1-.25-.949,1.955,1.955,0,0,1,.25-1.011.859.859,0,0,1,.8-.42.9.9,0,0,1,.874.493,1.775,1.775,0,0,1,.16.812,2.259,2.259,0,0,1-.222,1A.825.825,0,0,1-6514.794,2801.413Zm3.658,1.894a1.43,1.43,0,0,0,1.406-.726,2.365,2.365,0,0,0,.2-1.072v-3.241h-.553v.449a1.63,1.63,0,0,0-.347-.339,1.3,1.3,0,0,0-.731-.206,1.351,1.351,0,0,0-1.057.5,2.06,2.06,0,0,0-.438,1.4,1.807,1.807,0,0,0,.434,1.36,1.434,1.434,0,0,0,1.014.411,1.451,1.451,0,0,0,.67-.133,1.174,1.174,0,0,0,.431-.406,2.67,2.67,0,0,1-.117,1.022.877.877,0,0,1-.9.486.878.878,0,0,1-.639-.2.677.677,0,0,1-.173-.37h-.608a1,1,0,0,0,.439.807A1.726,1.726,0,0,0-6511.136,2803.307Zm0-1.954a.792.792,0,0,1-.658-.315,1.469,1.469,0,0,1-.244-.917,2.334,2.334,0,0,1,.122-.829.86.86,0,0,1,.865-.592.871.871,0,0,1,.7.32,1.482,1.482,0,0,1,.274.981,1.87,1.87,0,0,1-.147.769A.922.922,0,0,1-6511.136,2801.353Zm3.119-3.764v-.68h-.609v.68Zm0,4.21v-3.548h-.609v3.548Zm2.168.136a1.53,1.53,0,0,0,1.1-.347,1.1,1.1,0,0,0,.362-.822.8.8,0,0,0-.349-.722,3.062,3.062,0,0,0-.866-.3l-.4-.1a1.406,1.406,0,0,1-.394-.147.422.422,0,0,1-.229-.373.409.409,0,0,1,.175-.343.857.857,0,0,1,.513-.13.915.915,0,0,1,.716.236.7.7,0,0,1,.144.37h.565a1.025,1.025,0,0,0-.216-.645,1.358,1.358,0,0,0-1.162-.473,1.453,1.453,0,0,0-.979.313,1.028,1.028,0,0,0-.365.819.753.753,0,0,0,.386.672,2.3,2.3,0,0,0,.671.253l.475.12a2.4,2.4,0,0,1,.514.17.382.382,0,0,1,.2.349.481.481,0,0,1-.253.448,1.158,1.158,0,0,1-.587.145.941.941,0,0,1-.785-.289.882.882,0,0,1-.15-.459h-.575a1.361,1.361,0,0,0,.354.894A1.478,1.478,0,0,0-6505.849,2801.935Zm2.984-.08a2.107,2.107,0,0,0,.241-.013,1.436,1.436,0,0,0,.214-.043v-.472c-.043,0-.083.007-.116.008l-.093,0a.528.528,0,0,1-.233-.037.251.251,0,0,1-.126-.249v-2.327h.569v-.489h-.569v-1h-.606v1h-.482v.489h.482v2.361a.959.959,0,0,0,.149.557A.653.653,0,0,0-6502.865,2801.855Zm1.665-4.267v-.68h-.61v.68Zm0,4.21v-3.548h-.61v3.548Zm2.166.136a1.535,1.535,0,0,0,1.1-.347,1.1,1.1,0,0,0,.361-.822.8.8,0,0,0-.35-.722,3.046,3.046,0,0,0-.865-.3l-.4-.1a1.384,1.384,0,0,1-.393-.147.421.421,0,0,1-.229-.373.406.406,0,0,1,.175-.343.853.853,0,0,1,.514-.13.912.912,0,0,1,.715.236.683.683,0,0,1,.143.37h.567a1.024,1.024,0,0,0-.218-.645,1.356,1.356,0,0,0-1.161-.473,1.459,1.459,0,0,0-.981.313,1.028,1.028,0,0,0-.362.819.754.754,0,0,0,.386.672,2.276,2.276,0,0,0,.671.253l.477.12a2.457,2.457,0,0,1,.512.17.384.384,0,0,1,.2.349.481.481,0,0,1-.253.448,1.157,1.157,0,0,1-.585.145.943.943,0,0,1-.787-.289.891.891,0,0,1-.149-.459h-.577a1.37,1.37,0,0,0,.355.894A1.475,1.475,0,0,0-6499.034,2801.935Zm3.436-.033a1.557,1.557,0,0,0,1.022-.328,1.57,1.57,0,0,0,.5-1.037h-.584a1.245,1.245,0,0,1-.3.624.779.779,0,0,1-.593.228.772.772,0,0,1-.71-.365,1.673,1.673,0,0,1-.228-.9,2.205,2.205,0,0,1,.16-.9.841.841,0,0,1,.819-.559.769.769,0,0,1,.609.218,1.063,1.063,0,0,1,.243.547h.584a1.41,1.41,0,0,0-.455-1.008,1.56,1.56,0,0,0-.981-.293,1.474,1.474,0,0,0-1.162.523,2.152,2.152,0,0,0-.457,1.461,1.957,1.957,0,0,0,.417,1.277A1.366,1.366,0,0,0-6495.6,2801.9Zm2.719-.1v-1.891a1.235,1.235,0,0,1,.3-.969,1.026,1.026,0,0,1,.677-.256.64.64,0,0,1,.612.293,1.269,1.269,0,0,1,.1.576v2.247h.615v-2.287a1.861,1.861,0,0,0-.149-.822,1.069,1.069,0,0,0-1.052-.543,1.294,1.294,0,0,0-.723.19,1.769,1.769,0,0,0-.382.379v-1.823h-.6v4.906Zm4.583.126a2.083,2.083,0,0,0,.489-.053,1.4,1.4,0,0,0,.676-.36,1.524,1.524,0,0,0,.294-.395,1.244,1.244,0,0,0,.155-.437h-.589a1.048,1.048,0,0,1-.226.416.96.96,0,0,1-.749.31.855.855,0,0,1-.741-.328,1.509,1.509,0,0,1-.256-.87h2.612a4.244,4.244,0,0,0-.052-.785,1.6,1.6,0,0,0-.242-.63,1.345,1.345,0,0,0-.542-.461,1.622,1.622,0,0,0-.735-.178,1.534,1.534,0,0,0-1.218.536,2.046,2.046,0,0,0-.467,1.394,1.882,1.882,0,0,0,.463,1.356A1.5,1.5,0,0,0-6488.3,2801.925Zm1.048-2.194h-1.98a1.122,1.122,0,0,1,.3-.757.914.914,0,0,1,.692-.3.868.868,0,0,1,.822.433A1.518,1.518,0,0,1-6487.248,2799.731Zm4.144,2.067v-4.89h-.669v4.89Zm1.594,0v-1.868a2.515,2.515,0,0,1,.045-.537.9.9,0,0,1,.194-.365.915.915,0,0,1,.433-.292,1.17,1.17,0,0,1,.35-.044.583.583,0,0,1,.579.333,1.193,1.193,0,0,1,.1.526v2.247h.608v-2.287a1.879,1.879,0,0,0-.146-.829,1.038,1.038,0,0,0-1.025-.529,1.435,1.435,0,0,0-.629.136,1.6,1.6,0,0,0-.537.45v-.506h-.569v3.565Zm3.936,0v-3.076h.6v-.472h-.592a2.749,2.749,0,0,1,.054-.721c.035-.094.144-.141.326-.141l.079,0,.134.008v-.546l-.136-.01c-.041,0-.078,0-.117,0a.918.918,0,0,0-.809.306,1.079,1.079,0,0,0-.129.547v.559h-.5v.472h.5v3.076Zm2.509.13a1.517,1.517,0,0,0,1.3-.562,2.313,2.313,0,0,0,.419-1.425,1.792,1.792,0,0,0-.476-1.351,1.61,1.61,0,0,0-1.165-.459,1.529,1.529,0,0,0-1.224.533,2.125,2.125,0,0,0-.457,1.431,1.965,1.965,0,0,0,.433,1.336A1.47,1.47,0,0,0-6475.065,2801.929Zm.056-.516a.88.88,0,0,1-.792-.38,1.694,1.694,0,0,1-.249-.949,1.945,1.945,0,0,1,.249-1.011.861.861,0,0,1,.8-.42.9.9,0,0,1,.871.493,1.782,1.782,0,0,1,.159.812,2.252,2.252,0,0,1-.221,1A.827.827,0,0,1-6475.01,2801.413Zm2.994.386v-2.051a1.018,1.018,0,0,1,.241-.671.857.857,0,0,1,.7-.291c.036,0,.068,0,.1,0s.062.007.1.013v-.632l-.137-.013-.057,0a.893.893,0,0,0-.629.258,1.391,1.391,0,0,0-.343.438v-.615h-.569v3.565Zm2.252,0v-1.891a1.288,1.288,0,0,1,.277-.952.881.881,0,0,1,.617-.263.527.527,0,0,1,.51.25,1.208,1.208,0,0,1,.086.529v2.327h.609v-2.074a1.038,1.038,0,0,1,.256-.789.859.859,0,0,1,.606-.236.7.7,0,0,1,.434.133.575.575,0,0,1,.178.49v2.476h.623v-2.373a1.69,1.69,0,0,0-.139-.752.993.993,0,0,0-.979-.519,1.294,1.294,0,0,0-.6.138,1.269,1.269,0,0,0-.469.424,1.107,1.107,0,0,0-.268-.352,1.058,1.058,0,0,0-.686-.21,1.159,1.159,0,0,0-.672.2,1.96,1.96,0,0,0-.386.383v-.506h-.592v3.565Zm6.037.119a1.635,1.635,0,0,0,.757-.176,1.543,1.543,0,0,0,.525-.416.858.858,0,0,0,.1.329.494.494,0,0,0,.45.22,1.51,1.51,0,0,0,.2-.01,1.73,1.73,0,0,0,.213-.05v-.443c-.037.007-.072.011-.106.015a.827.827,0,0,1-.089.005.188.188,0,0,1-.163-.057.265.265,0,0,1-.038-.15v-2.053a.815.815,0,0,0-.389-.746,1.943,1.943,0,0,0-1.022-.24,1.755,1.755,0,0,0-.953.258,1.025,1.025,0,0,0-.427.917h.559a.827.827,0,0,1,.144-.417.792.792,0,0,1,.665-.253,1.173,1.173,0,0,1,.624.138.487.487,0,0,1,.219.445.531.531,0,0,1-.039.229.327.327,0,0,1-.277.173l-.956.12a1.473,1.473,0,0,0-.812.336.965.965,0,0,0-.31.769,1,1,0,0,0,.314.754A1.124,1.124,0,0,0-6463.727,2801.918Zm.141-.509a.7.7,0,0,1-.449-.15.493.493,0,0,1-.19-.41.531.531,0,0,1,.276-.5,1.4,1.4,0,0,1,.49-.136l.362-.046a2.477,2.477,0,0,0,.339-.067,1.039,1.039,0,0,0,.284-.116v.482a.825.825,0,0,1-.5.8A1.368,1.368,0,0,1-6463.586,2801.409Zm3.531.446a2.147,2.147,0,0,0,.243-.013,1.462,1.462,0,0,0,.214-.043v-.472c-.044,0-.084.007-.117.008l-.094,0a.527.527,0,0,1-.232-.037.251.251,0,0,1-.126-.249v-2.327h.569v-.489h-.569v-1h-.607v1h-.482v.489h.482v2.361a.959.959,0,0,0,.149.557A.652.652,0,0,0-6460.055,2801.855Zm1.665-4.267v-.68H-6459v.68Zm0,4.21v-3.548H-6459v3.548Zm2.264.13a1.517,1.517,0,0,0,1.3-.562,2.32,2.32,0,0,0,.42-1.425,1.8,1.8,0,0,0-.477-1.351,1.613,1.613,0,0,0-1.165-.459,1.53,1.53,0,0,0-1.225.533,2.127,2.127,0,0,0-.456,1.431,1.972,1.972,0,0,0,.431,1.336A1.471,1.471,0,0,0-6456.126,2801.929Zm.057-.516a.88.88,0,0,1-.792-.38,1.694,1.694,0,0,1-.25-.949,1.945,1.945,0,0,1,.25-1.011.86.86,0,0,1,.8-.42.9.9,0,0,1,.872.493,1.8,1.8,0,0,1,.16.812,2.245,2.245,0,0,1-.222,1A.824.824,0,0,1-6456.07,2801.413Zm2.975.386v-1.868a2.56,2.56,0,0,1,.044-.537.9.9,0,0,1,.2-.365.9.9,0,0,1,.433-.292,1.162,1.162,0,0,1,.349-.044.584.584,0,0,1,.579.333,1.207,1.207,0,0,1,.1.526v2.247h.609v-2.287a1.877,1.877,0,0,0-.147-.829,1.037,1.037,0,0,0-1.025-.529,1.428,1.428,0,0,0-.629.136,1.612,1.612,0,0,0-.537.45v-.506h-.568v3.565Zm4.454.136a1.53,1.53,0,0,0,1.1-.347,1.1,1.1,0,0,0,.362-.822.8.8,0,0,0-.349-.722,3.062,3.062,0,0,0-.866-.3l-.4-.1a1.366,1.366,0,0,1-.393-.147.422.422,0,0,1-.23-.373.409.409,0,0,1,.174-.343.86.86,0,0,1,.515-.13.917.917,0,0,1,.716.236.7.7,0,0,1,.142.37h.566a1.019,1.019,0,0,0-.216-.645,1.358,1.358,0,0,0-1.162-.473,1.453,1.453,0,0,0-.979.313,1.029,1.029,0,0,0-.366.819.756.756,0,0,0,.386.672,2.318,2.318,0,0,0,.672.253l.477.12a2.426,2.426,0,0,1,.512.17.383.383,0,0,1,.2.349.481.481,0,0,1-.253.448,1.163,1.163,0,0,1-.587.145.942.942,0,0,1-.786-.289.9.9,0,0,1-.151-.459h-.575a1.367,1.367,0,0,0,.355.894A1.473,1.473,0,0,0-6448.641,2801.935Zm3.409,0a1.538,1.538,0,0,0,1.1-.347,1.1,1.1,0,0,0,.362-.822.8.8,0,0,0-.351-.722,3.052,3.052,0,0,0-.865-.3l-.4-.1a1.406,1.406,0,0,1-.392-.147.424.424,0,0,1-.23-.373.407.407,0,0,1,.176-.343.855.855,0,0,1,.514-.13.913.913,0,0,1,.715.236.7.7,0,0,1,.144.37h.566a1.034,1.034,0,0,0-.216-.645,1.362,1.362,0,0,0-1.163-.473,1.456,1.456,0,0,0-.98.313,1.026,1.026,0,0,0-.364.819.757.757,0,0,0,.386.672,2.314,2.314,0,0,0,.673.253l.476.12a2.377,2.377,0,0,1,.512.17.382.382,0,0,1,.2.349.48.48,0,0,1-.254.448,1.149,1.149,0,0,1-.585.145.939.939,0,0,1-.785-.289.882.882,0,0,1-.15-.459h-.576a1.36,1.36,0,0,0,.355.894A1.473,1.473,0,0,0-6445.232,2801.935Zm2.462,1.325a.839.839,0,0,0,.733-.3,10.181,10.181,0,0,0,.731-1.665c.148-.386.329-.885.548-1.5.228-.641.393-1.1.493-1.379l.023-.061c.018-.048.032-.089.045-.124h-.662l-.962,2.9-.955-2.9h-.679l1.318,3.668c-.03.079-.081.2-.149.365s-.11.256-.121.273a.487.487,0,0,1-.131.135.426.426,0,0,1-.245.055.858.858,0,0,1-.124-.01,1.906,1.906,0,0,1-.225-.053v.546a1.625,1.625,0,0,0,.167.037A1.475,1.475,0,0,0-6442.77,2803.26Zm4.355-1.325a1.53,1.53,0,0,0,1.1-.347,1.1,1.1,0,0,0,.361-.822.8.8,0,0,0-.35-.722,3.051,3.051,0,0,0-.866-.3l-.4-.1a1.378,1.378,0,0,1-.393-.147.423.423,0,0,1-.229-.373.407.407,0,0,1,.176-.343.85.85,0,0,1,.513-.13.915.915,0,0,1,.716.236.707.707,0,0,1,.143.37h.565a1.031,1.031,0,0,0-.216-.645,1.361,1.361,0,0,0-1.162-.473,1.458,1.458,0,0,0-.98.313,1.027,1.027,0,0,0-.363.819.754.754,0,0,0,.386.672,2.293,2.293,0,0,0,.671.253l.477.12a2.418,2.418,0,0,1,.512.17.382.382,0,0,1,.2.349.483.483,0,0,1-.254.448,1.153,1.153,0,0,1-.585.145.946.946,0,0,1-.787-.289.891.891,0,0,1-.149-.459h-.576a1.365,1.365,0,0,0,.355.894A1.474,1.474,0,0,0-6438.415,2801.935Zm2.985-.08a2.135,2.135,0,0,0,.242-.013,1.411,1.411,0,0,0,.213-.043v-.472c-.044,0-.082.007-.115.008l-.094,0a.522.522,0,0,1-.232-.037.251.251,0,0,1-.126-.249v-2.327h.567v-.489h-.567v-1h-.606v1h-.483v.489h.483v2.361a.948.948,0,0,0,.149.557A.652.652,0,0,0-6435.43,2801.855Zm2.447.07a2.069,2.069,0,0,0,.488-.053,1.407,1.407,0,0,0,.676-.36,1.535,1.535,0,0,0,.294-.395,1.215,1.215,0,0,0,.155-.437h-.588a1.049,1.049,0,0,1-.227.416.962.962,0,0,1-.75.31.861.861,0,0,1-.743-.328,1.531,1.531,0,0,1-.256-.87h2.614a4.009,4.009,0,0,0-.054-.785,1.577,1.577,0,0,0-.24-.63,1.356,1.356,0,0,0-.542-.461,1.628,1.628,0,0,0-.736-.178,1.534,1.534,0,0,0-1.217.536,2.037,2.037,0,0,0-.468,1.394,1.88,1.88,0,0,0,.464,1.356A1.5,1.5,0,0,0-6432.983,2801.925Zm1.048-2.194h-1.979a1.122,1.122,0,0,1,.3-.757.911.911,0,0,1,.692-.3.869.869,0,0,1,.822.433A1.557,1.557,0,0,1-6431.935,2799.731Zm1.951,2.067v-1.891a1.3,1.3,0,0,1,.277-.952.883.883,0,0,1,.619-.263.529.529,0,0,1,.509.25,1.211,1.211,0,0,1,.085.529v2.327h.608v-2.074a1.038,1.038,0,0,1,.257-.789.859.859,0,0,1,.606-.236.7.7,0,0,1,.435.133.578.578,0,0,1,.178.49v2.476h.623v-2.373a1.7,1.7,0,0,0-.139-.752.992.992,0,0,0-.979-.519,1.3,1.3,0,0,0-.6.138,1.3,1.3,0,0,0-.47.424,1.077,1.077,0,0,0-.266-.352,1.058,1.058,0,0,0-.686-.21,1.162,1.162,0,0,0-.672.2,1.987,1.987,0,0,0-.386.383v-.506h-.593v3.565Zm6.47.126a2.06,2.06,0,0,0,.489-.053,1.4,1.4,0,0,0,.676-.36,1.5,1.5,0,0,0,.294-.395,1.28,1.28,0,0,0,.156-.437h-.59a1.042,1.042,0,0,1-.226.416.96.96,0,0,1-.748.31.859.859,0,0,1-.744-.328,1.527,1.527,0,0,1-.256-.87h2.613a4.139,4.139,0,0,0-.053-.785,1.612,1.612,0,0,0-.239-.63,1.373,1.373,0,0,0-.542-.461,1.633,1.633,0,0,0-.737-.178,1.536,1.536,0,0,0-1.218.536,2.048,2.048,0,0,0-.466,1.394,1.884,1.884,0,0,0,.462,1.356A1.5,1.5,0,0,0-6423.515,2801.925Zm1.049-2.194h-1.982a1.137,1.137,0,0,1,.3-.757.913.913,0,0,1,.693-.3.866.866,0,0,1,.821.433A1.548,1.548,0,0,1-6422.465,2799.731Zm3.212,2.067.528-1.465h1.935l.5,1.465h.726l-1.774-4.89h-.75l-1.839,4.89Zm2.25-2h-1.532l.789-2.161Zm4.022,2.134a2.236,2.236,0,0,0,1.109-.247,2.492,2.492,0,0,0,.6-.513l.16.63h.426v-2.616h-2.147v.549h1.53a1.6,1.6,0,0,1-.444,1.243,1.593,1.593,0,0,1-1.1.384,1.412,1.412,0,0,1-1.249-.547,2.417,2.417,0,0,1-.383-1.419,2.187,2.187,0,0,1,.464-1.518,1.486,1.486,0,0,1,1.144-.509,1.71,1.71,0,0,1,.948.244,1.186,1.186,0,0,1,.5.781h.656a1.739,1.739,0,0,0-.892-1.342,2.514,2.514,0,0,0-1.191-.266,2.114,2.114,0,0,0-1.637.692,2.775,2.775,0,0,0-.667,1.954,2.672,2.672,0,0,0,.682,1.937A2.158,2.158,0,0,0-6412.98,2801.929Z" transform="translate(6519.92 -2796.782)" fill="#869ab8"></path></g><g transform="translate(0 0)"><path d="M-6516.781,2801.8v-.583h-2.477v-4.307h-.662v4.89Zm1.931.13a1.52,1.52,0,0,0,1.3-.562,2.322,2.322,0,0,0,.418-1.425,1.8,1.8,0,0,0-.475-1.351,1.615,1.615,0,0,0-1.166-.459,1.529,1.529,0,0,0-1.225.533,2.122,2.122,0,0,0-.457,1.431,1.97,1.97,0,0,0,.433,1.336A1.47,1.47,0,0,0-6514.85,2801.929Zm.056-.516a.881.881,0,0,1-.792-.38,1.7,1.7,0,0,1-.25-.949,1.955,1.955,0,0,1,.25-1.011.859.859,0,0,1,.8-.42.9.9,0,0,1,.874.493,1.775,1.775,0,0,1,.16.812,2.259,2.259,0,0,1-.222,1A.825.825,0,0,1-6514.794,2801.413Zm3.658,1.894a1.43,1.43,0,0,0,1.406-.726,2.365,2.365,0,0,0,.2-1.072v-3.241h-.553v.449a1.63,1.63,0,0,0-.347-.339,1.3,1.3,0,0,0-.731-.206,1.351,1.351,0,0,0-1.057.5,2.06,2.06,0,0,0-.438,1.4,1.807,1.807,0,0,0,.434,1.36,1.434,1.434,0,0,0,1.014.411,1.451,1.451,0,0,0,.67-.133,1.174,1.174,0,0,0,.431-.406,2.67,2.67,0,0,1-.117,1.022.877.877,0,0,1-.9.486.878.878,0,0,1-.639-.2.677.677,0,0,1-.173-.37h-.608a1,1,0,0,0,.439.807A1.726,1.726,0,0,0-6511.136,2803.307Zm0-1.954a.792.792,0,0,1-.658-.315,1.469,1.469,0,0,1-.244-.917,2.334,2.334,0,0,1,.122-.829.86.86,0,0,1,.865-.592.871.871,0,0,1,.7.32,1.482,1.482,0,0,1,.274.981,1.87,1.87,0,0,1-.147.769A.922.922,0,0,1-6511.136,2801.353Zm3.119-3.764v-.68h-.609v.68Zm0,4.21v-3.548h-.609v3.548Zm2.168.136a1.53,1.53,0,0,0,1.1-.347,1.1,1.1,0,0,0,.362-.822.8.8,0,0,0-.349-.722,3.062,3.062,0,0,0-.866-.3l-.4-.1a1.406,1.406,0,0,1-.394-.147.422.422,0,0,1-.229-.373.409.409,0,0,1,.175-.343.857.857,0,0,1,.513-.13.915.915,0,0,1,.716.236.7.7,0,0,1,.144.37h.565a1.025,1.025,0,0,0-.216-.645,1.358,1.358,0,0,0-1.162-.473,1.453,1.453,0,0,0-.979.313,1.028,1.028,0,0,0-.365.819.753.753,0,0,0,.386.672,2.3,2.3,0,0,0,.671.253l.475.12a2.4,2.4,0,0,1,.514.17.382.382,0,0,1,.2.349.481.481,0,0,1-.253.448,1.158,1.158,0,0,1-.587.145.941.941,0,0,1-.785-.289.882.882,0,0,1-.15-.459h-.575a1.361,1.361,0,0,0,.354.894A1.478,1.478,0,0,0-6505.849,2801.935Zm2.984-.08a2.107,2.107,0,0,0,.241-.013,1.436,1.436,0,0,0,.214-.043v-.472c-.043,0-.083.007-.116.008l-.093,0a.528.528,0,0,1-.233-.037.251.251,0,0,1-.126-.249v-2.327h.569v-.489h-.569v-1h-.606v1h-.482v.489h.482v2.361a.959.959,0,0,0,.149.557A.653.653,0,0,0-6502.865,2801.855Zm1.665-4.267v-.68h-.61v.68Zm0,4.21v-3.548h-.61v3.548Zm2.166.136a1.535,1.535,0,0,0,1.1-.347,1.1,1.1,0,0,0,.361-.822.8.8,0,0,0-.35-.722,3.046,3.046,0,0,0-.865-.3l-.4-.1a1.384,1.384,0,0,1-.393-.147.421.421,0,0,1-.229-.373.406.406,0,0,1,.175-.343.853.853,0,0,1,.514-.13.912.912,0,0,1,.715.236.683.683,0,0,1,.143.37h.567a1.024,1.024,0,0,0-.218-.645,1.356,1.356,0,0,0-1.161-.473,1.459,1.459,0,0,0-.981.313,1.028,1.028,0,0,0-.362.819.754.754,0,0,0,.386.672,2.276,2.276,0,0,0,.671.253l.477.12a2.457,2.457,0,0,1,.512.17.384.384,0,0,1,.2.349.481.481,0,0,1-.253.448,1.157,1.157,0,0,1-.585.145.943.943,0,0,1-.787-.289.891.891,0,0,1-.149-.459h-.577a1.37,1.37,0,0,0,.355.894A1.475,1.475,0,0,0-6499.034,2801.935Zm3.436-.033a1.557,1.557,0,0,0,1.022-.328,1.57,1.57,0,0,0,.5-1.037h-.584a1.245,1.245,0,0,1-.3.624.779.779,0,0,1-.593.228.772.772,0,0,1-.71-.365,1.673,1.673,0,0,1-.228-.9,2.205,2.205,0,0,1,.16-.9.841.841,0,0,1,.819-.559.769.769,0,0,1,.609.218,1.063,1.063,0,0,1,.243.547h.584a1.41,1.41,0,0,0-.455-1.008,1.56,1.56,0,0,0-.981-.293,1.474,1.474,0,0,0-1.162.523,2.152,2.152,0,0,0-.457,1.461,1.957,1.957,0,0,0,.417,1.277A1.366,1.366,0,0,0-6495.6,2801.9Zm2.719-.1v-1.891a1.235,1.235,0,0,1,.3-.969,1.026,1.026,0,0,1,.677-.256.64.64,0,0,1,.612.293,1.269,1.269,0,0,1,.1.576v2.247h.615v-2.287a1.861,1.861,0,0,0-.149-.822,1.069,1.069,0,0,0-1.052-.543,1.294,1.294,0,0,0-.723.19,1.769,1.769,0,0,0-.382.379v-1.823h-.6v4.906Zm4.583.126a2.083,2.083,0,0,0,.489-.053,1.4,1.4,0,0,0,.676-.36,1.524,1.524,0,0,0,.294-.395,1.244,1.244,0,0,0,.155-.437h-.589a1.048,1.048,0,0,1-.226.416.96.96,0,0,1-.749.31.855.855,0,0,1-.741-.328,1.509,1.509,0,0,1-.256-.87h2.612a4.244,4.244,0,0,0-.052-.785,1.6,1.6,0,0,0-.242-.63,1.345,1.345,0,0,0-.542-.461,1.622,1.622,0,0,0-.735-.178,1.534,1.534,0,0,0-1.218.536,2.046,2.046,0,0,0-.467,1.394,1.882,1.882,0,0,0,.463,1.356A1.5,1.5,0,0,0-6488.3,2801.925Zm1.048-2.194h-1.98a1.122,1.122,0,0,1,.3-.757.914.914,0,0,1,.692-.3.868.868,0,0,1,.822.433A1.518,1.518,0,0,1-6487.248,2799.731Zm4.144,2.067v-4.89h-.669v4.89Zm1.594,0v-1.868a2.515,2.515,0,0,1,.045-.537.9.9,0,0,1,.194-.365.915.915,0,0,1,.433-.292,1.17,1.17,0,0,1,.35-.044.583.583,0,0,1,.579.333,1.193,1.193,0,0,1,.1.526v2.247h.608v-2.287a1.879,1.879,0,0,0-.146-.829,1.038,1.038,0,0,0-1.025-.529,1.435,1.435,0,0,0-.629.136,1.6,1.6,0,0,0-.537.45v-.506h-.569v3.565Zm3.936,0v-3.076h.6v-.472h-.592a2.749,2.749,0,0,1,.054-.721c.035-.094.144-.141.326-.141l.079,0,.134.008v-.546l-.136-.01c-.041,0-.078,0-.117,0a.918.918,0,0,0-.809.306,1.079,1.079,0,0,0-.129.547v.559h-.5v.472h.5v3.076Zm2.509.13a1.517,1.517,0,0,0,1.3-.562,2.313,2.313,0,0,0,.419-1.425,1.792,1.792,0,0,0-.476-1.351,1.61,1.61,0,0,0-1.165-.459,1.529,1.529,0,0,0-1.224.533,2.125,2.125,0,0,0-.457,1.431,1.965,1.965,0,0,0,.433,1.336A1.47,1.47,0,0,0-6475.065,2801.929Zm.056-.516a.88.88,0,0,1-.792-.38,1.694,1.694,0,0,1-.249-.949,1.945,1.945,0,0,1,.249-1.011.861.861,0,0,1,.8-.42.9.9,0,0,1,.871.493,1.782,1.782,0,0,1,.159.812,2.252,2.252,0,0,1-.221,1A.827.827,0,0,1-6475.01,2801.413Zm2.994.386v-2.051a1.018,1.018,0,0,1,.241-.671.857.857,0,0,1,.7-.291c.036,0,.068,0,.1,0s.062.007.1.013v-.632l-.137-.013-.057,0a.893.893,0,0,0-.629.258,1.391,1.391,0,0,0-.343.438v-.615h-.569v3.565Zm2.252,0v-1.891a1.288,1.288,0,0,1,.277-.952.881.881,0,0,1,.617-.263.527.527,0,0,1,.51.25,1.208,1.208,0,0,1,.086.529v2.327h.609v-2.074a1.038,1.038,0,0,1,.256-.789.859.859,0,0,1,.606-.236.7.7,0,0,1,.434.133.575.575,0,0,1,.178.49v2.476h.623v-2.373a1.69,1.69,0,0,0-.139-.752.993.993,0,0,0-.979-.519,1.294,1.294,0,0,0-.6.138,1.269,1.269,0,0,0-.469.424,1.107,1.107,0,0,0-.268-.352,1.058,1.058,0,0,0-.686-.21,1.159,1.159,0,0,0-.672.2,1.96,1.96,0,0,0-.386.383v-.506h-.592v3.565Zm6.037.119a1.635,1.635,0,0,0,.757-.176,1.543,1.543,0,0,0,.525-.416.858.858,0,0,0,.1.329.494.494,0,0,0,.45.22,1.51,1.51,0,0,0,.2-.01,1.73,1.73,0,0,0,.213-.05v-.443c-.037.007-.072.011-.106.015a.827.827,0,0,1-.089.005.188.188,0,0,1-.163-.057.265.265,0,0,1-.038-.15v-2.053a.815.815,0,0,0-.389-.746,1.943,1.943,0,0,0-1.022-.24,1.755,1.755,0,0,0-.953.258,1.025,1.025,0,0,0-.427.917h.559a.827.827,0,0,1,.144-.417.792.792,0,0,1,.665-.253,1.173,1.173,0,0,1,.624.138.487.487,0,0,1,.219.445.531.531,0,0,1-.039.229.327.327,0,0,1-.277.173l-.956.12a1.473,1.473,0,0,0-.812.336.965.965,0,0,0-.31.769,1,1,0,0,0,.314.754A1.124,1.124,0,0,0-6463.727,2801.918Zm.141-.509a.7.7,0,0,1-.449-.15.493.493,0,0,1-.19-.41.531.531,0,0,1,.276-.5,1.4,1.4,0,0,1,.49-.136l.362-.046a2.477,2.477,0,0,0,.339-.067,1.039,1.039,0,0,0,.284-.116v.482a.825.825,0,0,1-.5.8A1.368,1.368,0,0,1-6463.586,2801.409Zm3.531.446a2.147,2.147,0,0,0,.243-.013,1.462,1.462,0,0,0,.214-.043v-.472c-.044,0-.084.007-.117.008l-.094,0a.527.527,0,0,1-.232-.037.251.251,0,0,1-.126-.249v-2.327h.569v-.489h-.569v-1h-.607v1h-.482v.489h.482v2.361a.959.959,0,0,0,.149.557A.652.652,0,0,0-6460.055,2801.855Zm1.665-4.267v-.68H-6459v.68Zm0,4.21v-3.548H-6459v3.548Zm2.264.13a1.517,1.517,0,0,0,1.3-.562,2.32,2.32,0,0,0,.42-1.425,1.8,1.8,0,0,0-.477-1.351,1.613,1.613,0,0,0-1.165-.459,1.53,1.53,0,0,0-1.225.533,2.127,2.127,0,0,0-.456,1.431,1.972,1.972,0,0,0,.431,1.336A1.471,1.471,0,0,0-6456.126,2801.929Zm.057-.516a.88.88,0,0,1-.792-.38,1.694,1.694,0,0,1-.25-.949,1.945,1.945,0,0,1,.25-1.011.86.86,0,0,1,.8-.42.9.9,0,0,1,.872.493,1.8,1.8,0,0,1,.16.812,2.245,2.245,0,0,1-.222,1A.824.824,0,0,1-6456.07,2801.413Zm2.975.386v-1.868a2.56,2.56,0,0,1,.044-.537.9.9,0,0,1,.2-.365.9.9,0,0,1,.433-.292,1.162,1.162,0,0,1,.349-.044.584.584,0,0,1,.579.333,1.207,1.207,0,0,1,.1.526v2.247h.609v-2.287a1.877,1.877,0,0,0-.147-.829,1.037,1.037,0,0,0-1.025-.529,1.428,1.428,0,0,0-.629.136,1.612,1.612,0,0,0-.537.45v-.506h-.568v3.565Zm4.454.136a1.53,1.53,0,0,0,1.1-.347,1.1,1.1,0,0,0,.362-.822.8.8,0,0,0-.349-.722,3.062,3.062,0,0,0-.866-.3l-.4-.1a1.366,1.366,0,0,1-.393-.147.422.422,0,0,1-.23-.373.409.409,0,0,1,.174-.343.86.86,0,0,1,.515-.13.917.917,0,0,1,.716.236.7.7,0,0,1,.142.37h.566a1.019,1.019,0,0,0-.216-.645,1.358,1.358,0,0,0-1.162-.473,1.453,1.453,0,0,0-.979.313,1.029,1.029,0,0,0-.366.819.756.756,0,0,0,.386.672,2.318,2.318,0,0,0,.672.253l.477.12a2.426,2.426,0,0,1,.512.17.383.383,0,0,1,.2.349.481.481,0,0,1-.253.448,1.163,1.163,0,0,1-.587.145.942.942,0,0,1-.786-.289.9.9,0,0,1-.151-.459h-.575a1.367,1.367,0,0,0,.355.894A1.473,1.473,0,0,0-6448.641,2801.935Zm3.409,0a1.538,1.538,0,0,0,1.1-.347,1.1,1.1,0,0,0,.362-.822.8.8,0,0,0-.351-.722,3.052,3.052,0,0,0-.865-.3l-.4-.1a1.406,1.406,0,0,1-.392-.147.424.424,0,0,1-.23-.373.407.407,0,0,1,.176-.343.855.855,0,0,1,.514-.13.913.913,0,0,1,.715.236.7.7,0,0,1,.144.37h.566a1.034,1.034,0,0,0-.216-.645,1.362,1.362,0,0,0-1.163-.473,1.456,1.456,0,0,0-.98.313,1.026,1.026,0,0,0-.364.819.757.757,0,0,0,.386.672,2.314,2.314,0,0,0,.673.253l.476.12a2.377,2.377,0,0,1,.512.17.382.382,0,0,1,.2.349.48.48,0,0,1-.254.448,1.149,1.149,0,0,1-.585.145.939.939,0,0,1-.785-.289.882.882,0,0,1-.15-.459h-.576a1.36,1.36,0,0,0,.355.894A1.473,1.473,0,0,0-6445.232,2801.935Zm2.462,1.325a.839.839,0,0,0,.733-.3,10.181,10.181,0,0,0,.731-1.665c.148-.386.329-.885.548-1.5.228-.641.393-1.1.493-1.379l.023-.061c.018-.048.032-.089.045-.124h-.662l-.962,2.9-.955-2.9h-.679l1.318,3.668c-.03.079-.081.2-.149.365s-.11.256-.121.273a.487.487,0,0,1-.131.135.426.426,0,0,1-.245.055.858.858,0,0,1-.124-.01,1.906,1.906,0,0,1-.225-.053v.546a1.625,1.625,0,0,0,.167.037A1.475,1.475,0,0,0-6442.77,2803.26Zm4.355-1.325a1.53,1.53,0,0,0,1.1-.347,1.1,1.1,0,0,0,.361-.822.8.8,0,0,0-.35-.722,3.051,3.051,0,0,0-.866-.3l-.4-.1a1.378,1.378,0,0,1-.393-.147.423.423,0,0,1-.229-.373.407.407,0,0,1,.176-.343.85.85,0,0,1,.513-.13.915.915,0,0,1,.716.236.707.707,0,0,1,.143.37h.565a1.031,1.031,0,0,0-.216-.645,1.361,1.361,0,0,0-1.162-.473,1.458,1.458,0,0,0-.98.313,1.027,1.027,0,0,0-.363.819.754.754,0,0,0,.386.672,2.293,2.293,0,0,0,.671.253l.477.12a2.418,2.418,0,0,1,.512.17.382.382,0,0,1,.2.349.483.483,0,0,1-.254.448,1.153,1.153,0,0,1-.585.145.946.946,0,0,1-.787-.289.891.891,0,0,1-.149-.459h-.576a1.365,1.365,0,0,0,.355.894A1.474,1.474,0,0,0-6438.415,2801.935Zm2.985-.08a2.135,2.135,0,0,0,.242-.013,1.411,1.411,0,0,0,.213-.043v-.472c-.044,0-.082.007-.115.008l-.094,0a.522.522,0,0,1-.232-.037.251.251,0,0,1-.126-.249v-2.327h.567v-.489h-.567v-1h-.606v1h-.483v.489h.483v2.361a.948.948,0,0,0,.149.557A.652.652,0,0,0-6435.43,2801.855Zm2.447.07a2.069,2.069,0,0,0,.488-.053,1.407,1.407,0,0,0,.676-.36,1.535,1.535,0,0,0,.294-.395,1.215,1.215,0,0,0,.155-.437h-.588a1.049,1.049,0,0,1-.227.416.962.962,0,0,1-.75.31.861.861,0,0,1-.743-.328,1.531,1.531,0,0,1-.256-.87h2.614a4.009,4.009,0,0,0-.054-.785,1.577,1.577,0,0,0-.24-.63,1.356,1.356,0,0,0-.542-.461,1.628,1.628,0,0,0-.736-.178,1.534,1.534,0,0,0-1.217.536,2.037,2.037,0,0,0-.468,1.394,1.88,1.88,0,0,0,.464,1.356A1.5,1.5,0,0,0-6432.983,2801.925Zm1.048-2.194h-1.979a1.122,1.122,0,0,1,.3-.757.911.911,0,0,1,.692-.3.869.869,0,0,1,.822.433A1.557,1.557,0,0,1-6431.935,2799.731Zm1.951,2.067v-1.891a1.3,1.3,0,0,1,.277-.952.883.883,0,0,1,.619-.263.529.529,0,0,1,.509.25,1.211,1.211,0,0,1,.085.529v2.327h.608v-2.074a1.038,1.038,0,0,1,.257-.789.859.859,0,0,1,.606-.236.7.7,0,0,1,.435.133.578.578,0,0,1,.178.49v2.476h.623v-2.373a1.7,1.7,0,0,0-.139-.752.992.992,0,0,0-.979-.519,1.3,1.3,0,0,0-.6.138,1.3,1.3,0,0,0-.47.424,1.077,1.077,0,0,0-.266-.352,1.058,1.058,0,0,0-.686-.21,1.162,1.162,0,0,0-.672.2,1.987,1.987,0,0,0-.386.383v-.506h-.593v3.565Zm6.47.126a2.06,2.06,0,0,0,.489-.053,1.4,1.4,0,0,0,.676-.36,1.5,1.5,0,0,0,.294-.395,1.28,1.28,0,0,0,.156-.437h-.59a1.042,1.042,0,0,1-.226.416.96.96,0,0,1-.748.31.859.859,0,0,1-.744-.328,1.527,1.527,0,0,1-.256-.87h2.613a4.139,4.139,0,0,0-.053-.785,1.612,1.612,0,0,0-.239-.63,1.373,1.373,0,0,0-.542-.461,1.633,1.633,0,0,0-.737-.178,1.536,1.536,0,0,0-1.218.536,2.048,2.048,0,0,0-.466,1.394,1.884,1.884,0,0,0,.462,1.356A1.5,1.5,0,0,0-6423.515,2801.925Zm1.049-2.194h-1.982a1.137,1.137,0,0,1,.3-.757.913.913,0,0,1,.693-.3.866.866,0,0,1,.821.433A1.548,1.548,0,0,1-6422.465,2799.731Zm3.212,2.067.528-1.465h1.935l.5,1.465h.726l-1.774-4.89h-.75l-1.839,4.89Zm2.25-2h-1.532l.789-2.161Zm4.022,2.134a2.236,2.236,0,0,0,1.109-.247,2.492,2.492,0,0,0,.6-.513l.16.63h.426v-2.616h-2.147v.549h1.53a1.6,1.6,0,0,1-.444,1.243,1.593,1.593,0,0,1-1.1.384,1.412,1.412,0,0,1-1.249-.547,2.417,2.417,0,0,1-.383-1.419,2.187,2.187,0,0,1,.464-1.518,1.486,1.486,0,0,1,1.144-.509,1.71,1.71,0,0,1,.948.244,1.186,1.186,0,0,1,.5.781h.656a1.739,1.739,0,0,0-.892-1.342,2.514,2.514,0,0,0-1.191-.266,2.114,2.114,0,0,0-1.637.692,2.775,2.775,0,0,0-.667,1.954,2.672,2.672,0,0,0,.682,1.937A2.158,2.158,0,0,0-6412.98,2801.929Z" transform="translate(6519.92 -2796.782)" fill="#869ab8"></path></g></g></g></g></svg>