<svg xmlns="http://www.w3.org/2000/svg" xmlns:xlink="http://www.w3.org/1999/xlink" width="130" height="60" viewBox="0 0 130 60"><defs><clipPath id="a"><path d="M1829.692-497.238c-.027,2.163,1.928,3.37,3.4,4.088,1.513.736,2.022,1.209,2.016,1.867-.011,1.008-1.207,1.453-2.326,1.47a8.116,8.116,0,0,1-3.99-.949l-.7,3.291a11.7,11.7,0,0,0,4.321.8c4.081,0,6.751-2.014,6.765-5.138.016-3.964-5.483-4.183-5.446-5.955.013-.537.526-1.11,1.649-1.256a7.313,7.313,0,0,1,3.831.671l.683-3.184a10.417,10.417,0,0,0-3.636-.667c-3.841,0-6.543,2.042-6.565,4.965m16.764-4.69a1.77,1.77,0,0,0-1.653,1.1l-5.83,13.919h4.078l.812-2.243h4.983l.471,2.243h3.594l-3.137-15.021h-3.318m.571,4.058,1.177,5.64h-3.223l2.046-5.64m-22.279-4.058-3.215,15.021h3.886l3.213-15.021h-3.884m-5.749,0-4.045,10.224-1.636-8.693a1.812,1.812,0,0,0-1.792-1.531h-6.612l-.092.436a16.175,16.175,0,0,1,3.834,1.278,1.643,1.643,0,0,1,.923,1.32l3.1,11.987h4.107l6.3-15.021H1819" transform="translate(-1804.822 502.203)" fill="#869ab8"></path></clipPath></defs><g transform="translate(-385 -112)"><g transform="translate(385 112)" fill="#fff" stroke="#707070" stroke-width="1" opacity="0"><rect width="130" height="60" stroke="none"></rect><rect x="0.5" y="0.5" width="129" height="59" fill="none"></rect></g><g transform="translate(386.22 127.426)"><g transform="translate(0 5.313)"><g transform="translate(0 0)"><g clip-path="url(#a)"><g transform="translate(-5.036 -15.595)"><path d="M0-163.255,47.383-180.7l10.779,29.27L10.78-133.985" transform="translate(0 180.705)" fill="#869ab8"></path></g></g></g></g><g transform="translate(56.303 0)"><path d="M492,250.632c.017,0,.033,0,.033-.017v-.532h0c0-.033,0-.05-.017-.067s-.017-.05-.05-.067a.086.086,0,0,0-.067-.033.125.125,0,0,0-.083-.017h-.033a.125.125,0,0,0-.083.017c-.017.017-.05.033-.067.05l-.033.067h-.033a.166.166,0,0,0-.066-.083.241.241,0,0,0-.117-.033h-.017a.15.15,0,0,0-.083.017c-.017.017-.05.033-.067.05l-.033.05h-.017l.017-.05v-.067c0-.017-.017-.017-.033-.017h-.05c-.017,0-.017,0-.017.017v.7c0,.017,0,.017.017.017h.05c.017,0,.033,0,.033-.017v-.466c.017-.033.033-.05.05-.083l.05-.05c.017-.017.033-.017.05-.033h.05c.033,0,.05,0,.067.033a.087.087,0,0,1,.033.067v.549h0v.017h.083v-.483c.017-.033.033-.05.05-.083l.05-.05c.017-.017.033-.017.05-.033h.067c.033,0,.05,0,.067.033a.087.087,0,0,1,.033.067v.549c0,.017.017.017.033.017H492Zm-1-.649a.058.058,0,0,0,.033-.017v-.05c0-.017-.017-.017-.033-.017h-.466c-.017,0-.033,0-.033.017v.033c0,.017,0,.017.033.017h.166v.632c0,.017.017.017.033.017h.05c.017,0,.033,0,.033-.017v-.632H491Z" transform="translate(-426.567 -243.776)" fill="#869ab8"></path><path d="M271.241,251.69c-.216,0-.316-.083-.316-.266v-9.252a1.01,1.01,0,0,0-.333-.749,1.122,1.122,0,0,0-.782-.3h-.649a1.8,1.8,0,0,0-.416.083,1.705,1.705,0,0,0-.566.3,3.254,3.254,0,0,0-.6.582,3.859,3.859,0,0,0-.516.9v8.437c0,.183-.1.266-.316.266h-.632c-.216,0-.316-.083-.316-.266V234.966c0-.183.1-.266.316-.266h.632c.216,0,.316.083.316.266v5.808l-.166.682.216.05.333-.632a2.7,2.7,0,0,1,.765-.549,2.179,2.179,0,0,1,.932-.2h.649a2.415,2.415,0,0,1,.915.166,2.288,2.288,0,0,1,1.281,1.165,2.084,2.084,0,0,1,.183.832v9.136c0,.183-.1.266-.316.266Zm8.953-2.163v-7.239a2.023,2.023,0,0,0-.183-.832,2.12,2.12,0,0,0-.516-.7,2.553,2.553,0,0,0-.766-.466,2.474,2.474,0,0,0-.915-.166h-.666a2.179,2.179,0,0,0-.932.2,2.7,2.7,0,0,0-.765.549l-.349.632-.216-.067.166-.682v-.366c0-.183-.1-.266-.316-.266H274.1c-.216,0-.316.083-.316.266v16.457c0,.183.1.266.316.266h.632c.216,0,.316-.083.316-.266v-5.807l-.166-.682.216-.05.349.6a3.144,3.144,0,0,0,.765.566,1.97,1.97,0,0,0,.932.216h.666a2.415,2.415,0,0,0,.915-.166,2.287,2.287,0,0,0,1.281-1.165,1.835,1.835,0,0,0,.183-.832m-1.265.1a1.01,1.01,0,0,1-.333.749,1.067,1.067,0,0,1-.782.316h-.666a1.8,1.8,0,0,1-.416-.083,2.083,2.083,0,0,1-.566-.3,3.253,3.253,0,0,1-.6-.582,3.664,3.664,0,0,1-.516-.915V243a3.858,3.858,0,0,1,.516-.9,3.252,3.252,0,0,1,.6-.582,1.881,1.881,0,0,1,.566-.3,1.8,1.8,0,0,1,.416-.083h.666a1.122,1.122,0,0,1,.782.3.984.984,0,0,1,.333.749Z" transform="translate(-239.258 -231.106)" fill="#869ab8"></path><path d="M471.565,253.727v8.5a1.01,1.01,0,0,0,.333.749,1.146,1.146,0,0,0,.815.3c.216,0,.316.1.316.283v.433c0,.183-.1.266-.316.266a2.588,2.588,0,0,1-.949-.166,2.288,2.288,0,0,1-1.281-1.165,2.084,2.084,0,0,1-.183-.832V250.066c0-.183.1-.266.316-.266h.649c.2,0,.3.083.3.266v2.646h1.8c.216,0,.316.083.316.266v.433c0,.2-.1.3-.316.3h-1.8Z" transform="translate(-409.728 -243.693)" fill="#869ab8"></path><path d="M240.065,253.727v8.5a1.01,1.01,0,0,0,.333.749,1.146,1.146,0,0,0,.815.3c.216,0,.316.1.316.283v.433c0,.183-.1.266-.316.266a2.588,2.588,0,0,1-.949-.166,2.552,2.552,0,0,1-.765-.466,2.382,2.382,0,0,1-.516-.7,2.084,2.084,0,0,1-.183-.832V250.066c0-.183.1-.266.316-.266h.649c.2,0,.3.083.3.266v2.646h1.8c.216,0,.316.083.316.266v.433c0,.2-.1.3-.316.3h-1.8Z" transform="translate(-216.751 -243.693)" fill="#869ab8"></path><path d="M120.478,278.6v-9.136a2.084,2.084,0,0,0-.183-.832,2.121,2.121,0,0,0-.516-.7,2.361,2.361,0,0,0-.765-.466,2.528,2.528,0,0,0-.949-.166h-1.2a2.588,2.588,0,0,0-.949.166,2.552,2.552,0,0,0-.765.466,2.382,2.382,0,0,0-.516.7,2.083,2.083,0,0,0-.183.832c0,.183.1.266.316.266h.632c.216,0,.316-.083.316-.266v-.117a1.01,1.01,0,0,1,.333-.749,1.146,1.146,0,0,1,.815-.3h1.2a1.174,1.174,0,0,1,.815.3.984.984,0,0,1,.333.749v1.947a11.2,11.2,0,0,0-1.847.566,10.868,10.868,0,0,0-1.647.832,5.078,5.078,0,0,0-1.181.982,1.613,1.613,0,0,0-.449,1.032v2a2.023,2.023,0,0,0,.183.832,2.121,2.121,0,0,0,.516.7,2.552,2.552,0,0,0,.765.466,2.5,2.5,0,0,0,.932.166h.649a2.179,2.179,0,0,0,.932-.2,2.7,2.7,0,0,0,.765-.549l.333-.632.216.067-.166.666v.383c0,.183.1.266.316.266h.632c.216,0,.316-.1.316-.266m-1.265-2.613a3.541,3.541,0,0,1-.516.9,3.249,3.249,0,0,1-.6.582,1.879,1.879,0,0,1-.566.3,1.8,1.8,0,0,1-.416.083h-.649a1.093,1.093,0,0,1-.782-.3.975.975,0,0,1-.333-.732v-2.113a1,1,0,0,1,.3-.549,5.291,5.291,0,0,1,.815-.749,7.091,7.091,0,0,1,1.231-.749,8.348,8.348,0,0,1,1.531-.582v3.911Zm6.24-7.671a1.8,1.8,0,0,0-.416.083,1.706,1.706,0,0,0-.566.3,3.25,3.25,0,0,0-.6.582,3.86,3.86,0,0,0-.516.9v8.4c0,.183-.1.266-.316.266h-.632c-.216,0-.316-.083-.316-.266v-11c0-.183.1-.266.316-.266h.632c.216,0,.316.083.316.266v.366l-.166.682.216.067.333-.632a2.7,2.7,0,0,1,.765-.549,2.178,2.178,0,0,1,.932-.2h1.381c.216,0,.316.083.316.266v.433a.237.237,0,0,1-.1.2.35.35,0,0,1-.216.083h-1.365Zm-12.747,4.277v-3.128a2.084,2.084,0,0,0-.183-.832,1.912,1.912,0,0,0-.516-.7,2.361,2.361,0,0,0-.765-.466,2.5,2.5,0,0,0-.932-.166h-1.6a2.528,2.528,0,0,0-.949.166,2.287,2.287,0,0,0-1.281,1.165,2.084,2.084,0,0,0-.183.832V276.7a2.024,2.024,0,0,0,.183.832,1.912,1.912,0,0,0,.516.7,2.361,2.361,0,0,0,.765.466,2.528,2.528,0,0,0,.949.166h1.6a2.5,2.5,0,0,0,.932-.166,2.553,2.553,0,0,0,.765-.466,2.383,2.383,0,0,0,.516-.7,2.084,2.084,0,0,0,.183-.832c0-.183-.1-.266-.316-.266h-.632c-.216,0-.316.083-.316.266v.116a.975.975,0,0,1-.333.732,1.134,1.134,0,0,1-.8.3h-1.6a1.175,1.175,0,0,1-.815-.3.975.975,0,0,1-.333-.732v-3.262h3.861c.782,0,1.281-.3,1.281-.965m-1.265-.033h-3.861V269.33a1.01,1.01,0,0,1,.333-.749,1.146,1.146,0,0,1,.815-.3h1.6a1.163,1.163,0,0,1,.8.3.984.984,0,0,1,.333.749v3.228Z" transform="translate(-106.3 -258.281)" fill="#869ab8"></path><path d="M437.526,268.4a.35.35,0,0,0,.216-.083.26.26,0,0,0,.1-.2v-.449c0-.183-.1-.266-.316-.266h-1.381a2.18,2.18,0,0,0-.932.2,2.7,2.7,0,0,0-.765.549l-.333.632-.216-.067.167-.682v-.366c0-.183-.1-.266-.316-.266h-.632c-.216,0-.316.083-.316.266v11.016c0,.183.1.266.316.266h.632c.216,0,.316-.083.316-.266v-8.4a3.855,3.855,0,0,1,.516-.9,3.254,3.254,0,0,1,.6-.582,1.88,1.88,0,0,1,.566-.3,1.8,1.8,0,0,1,.416-.083h1.365Z" transform="translate(-378.469 -258.364)" fill="#869ab8"></path><path d="M277.45,242.853h-.05A23.9,23.9,0,1,0,314.808,213.1h-.033a23.9,23.9,0,0,1-37.325,29.753" transform="translate(-248.928 -213.1)" fill="#869ab8"></path><path d="M363.074,277.617a4.543,4.543,0,1,1,4.543-4.543,4.538,4.538,0,0,1-4.543,4.543m0-10.317a5.774,5.774,0,1,0,5.774,5.774,5.767,5.767,0,0,0-5.774-5.774" transform="translate(-315.532 -258.281)" fill="#869ab8"></path></g></g></g></svg>