<svg xmlns="http://www.w3.org/2000/svg" width="130" height="60" viewBox="0 0 130 60"><g transform="translate(-235 -192)"><g transform="translate(235 192)" fill="#fff" stroke="#707070" stroke-width="1" opacity="0"><rect width="130" height="60" stroke="none"></rect><rect x="0.5" y="0.5" width="129" height="59" fill="none"></rect></g><g transform="translate(245.002 197.863)"><path d="M-657.316-956.205c.748-.648,1.313-1.2,1.936-1.666a7.3,7.3,0,0,1,7.886-.53,5.48,5.48,0,0,1,2.519,5.387c-.317,4.239-.867,8.461-1.3,12.692-.049.477-.294.573-.7.569-1-.011-2-.028-3,.006-.611.021-.76-.232-.694-.8.327-2.827.634-5.656.94-8.485a21.585,21.585,0,0,0,.222-2.541c-.037-3.408-2.563-4.18-4.9-3.537a4.713,4.713,0,0,0-3.5,4.395q-.586,4.941-1.069,9.894c-.076.795-.293,1.158-1.158,1.081a25.65,25.65,0,0,0-2.643-.014c-.521.007-.738-.169-.673-.737.635-5.6,1.248-11.2,1.871-16.8.151-1.361.425-1.6,1.777-1.6.705,0,1.412.027,2.115-.009.535-.027.662.188.587.678C-657.191-957.624-657.233-957.011-657.316-956.205Z" transform="translate(688.294 965.131)" fill="#869ab8"></path><path d="M-980.233-1012.352c1.428.232,1.1,1.178,1,2.069-.285,2.565-.566,5.132-.793,7.7-.069.786-.3,1.164-1.161,1.073a11.048,11.048,0,0,0-2.289,0c-.916.1-1.084-.288-.982-1.1.288-2.3.524-4.6.781-6.9q.757-6.775,1.514-13.55c.072-.641.116-1.286.209-1.923a1.324,1.324,0,0,1,1.424-1.266c5,0,9.991.006,14.986-.013.776,0,.783.417.684.968a3.889,3.889,0,0,1-3.658,3.014c-2.85.02-5.7.026-8.55-.01-.636-.008-.853.154-.9.806-.108,1.4-.291,2.8-.5,4.19-.091.594.121.675.64.671,2.732-.022,5.465-.011,8.2-.009,1.058,0,1.152.113,1.03,1.18-.07.612-.163,1.223-.2,1.837-.048.8-.4,1.1-1.231,1.093-3.055-.041-6.112-.02-9.168-.011A1.411,1.411,0,0,0-980.233-1012.352Z" transform="translate(984.484 1026.898)" fill="#869ab8"></path><path d="M184.932-928.074c1.39-2.527,2.691-4.917,4.023-7.288a1.241,1.241,0,0,0,.118-1.137c-1.955-5.615-3.882-11.24-5.841-16.854-.194-.557-.219-.795.489-.757.966.051,1.939.041,2.907,0a1.427,1.427,0,0,1,1.554,1.127c1.234,3.632,2.49,7.257,3.741,10.884.056.162.135.317.254.6.759-1.6,1.474-3.091,2.183-4.59q1.653-3.493,3.3-6.99a1.529,1.529,0,0,1,1.415-1.012c1.229-.017,2.458,0,3.672,0,.133.311-.067.487-.168.684-4.048,7.9-8.117,15.789-12.128,23.708a2.435,2.435,0,0,1-2.653,1.649C186.9-928.149,185.979-928.074,184.932-928.074Z" transform="translate(-92.791 960.331)" fill="#869ab8"></path><path d="M32.133-1016.121c-.852,0-1.7.021-2.555-.009-.457-.016-.612.169-.653.6-.277,2.892-.611,5.778-.848,8.673-.167,2.042.963,3.182,3.026,3.247a8.328,8.328,0,0,0,3.115-.458c.637-.23.922,0,1.11.584.758,2.334.706,2.479-1.719,3.08a12.084,12.084,0,0,1-6.353-.126,4.993,4.993,0,0,1-3.7-5.087,65.794,65.794,0,0,1,.6-7.009c.357-3.8.791-7.583,1.176-11.376.146-1.44.372-1.676,1.778-1.678.7,0,1.412.035,2.114-.011.608-.04.824.111.731.771-.188,1.335-.265,2.686-.437,4.024-.073.568.042.792.662.766,1.055-.045,2.115.008,3.171-.021.476-.013.746.1.888.6.267.959.6,1.9.934,2.839.149.421.068.578-.4.565-.88-.026-1.762-.007-2.642-.007Z" transform="translate(54.423 1026.376)" fill="#869ab8"></path><path d="M-291.82-957.119a20.6,20.6,0,0,1,3.749.3c.783.118.962.539.864,1.227a13.66,13.66,0,0,0-.161,1.485c-.025.781-.368,1.01-1.13.846a12.862,12.862,0,0,0-4.985-.2,5.624,5.624,0,0,0-4.973,5.338,9.563,9.563,0,0,0,.141,3.666,4.2,4.2,0,0,0,3.494,3.182,13.831,13.831,0,0,0,4.987-.141c1.06-.168,1.154-.079,1.015.949-.024.174-.075.346-.084.521-.113,2.109-.118,1.931-2.32,2.214a16.542,16.542,0,0,1-6.635-.32,6.558,6.558,0,0,1-5.045-5.679,14.975,14.975,0,0,1,.448-6.7c1.128-3.848,3.831-5.9,7.723-6.5A14.233,14.233,0,0,1-291.82-957.119Z" transform="translate(355.807 963.117)" fill="#869ab8"></path><path d="M-757.564-934.763c-.088,0-.176,0-.264,0-2.264-.041-1.93.344-1.7-1.913.528-5.192,1.139-10.377,1.705-15.565.146-1.338.483-1.658,1.855-1.663.382,0,.764,0,1.146,0,1.54,0,1.56,0,1.4,1.494-.592,5.539-1.212,11.076-1.783,16.617-.085.826-.4,1.145-1.215,1.039A8.919,8.919,0,0,0-757.564-934.763Z" transform="translate(777.082 960.137)" fill="#869ab8"></path><path d="M-80.166-934.925h-.088c-2.137,0-2.121,0-1.888-2.09q.868-7.776,1.709-15.556c.122-1.116.51-1.482,1.641-1.494.734-.008,1.47.03,2.2-.012.551-.031.7.127.636.693-.352,3.057-.658,6.12-.991,9.18-.3,2.768-.647,5.531-.911,8.3-.077.808-.4,1.077-1.166.984A9.52,9.52,0,0,0-80.166-934.925Z" transform="translate(152.042 960.3)" fill="#869ab8"></path><path d="M-401.711-934.776c-2.219,0-2.19,0-1.95-2.1q.879-7.734,1.707-15.474c.13-1.189.5-1.552,1.669-1.563.5,0,1,0,1.5,0,1.387,0,1.394,0,1.241,1.413q-.882,8.176-1.771,16.351c-.149,1.377-.148,1.377-1.513,1.377Z" transform="translate(448.693 960.15)" fill="#869ab8"></path><path d="M-370.756-1029.851a2.243,2.243,0,0,1-2.348-2.286,2.25,2.25,0,0,1,2.381-2.338,2.318,2.318,0,0,1,2.34,2.326A2.326,2.326,0,0,1-370.756-1029.851Z" transform="translate(420.4 1034.475)" fill="#869ab8"></path><g transform="translate(13.696 32.427)"><path d="M-375.4-563.568v-3.5a2.077,2.077,0,0,0-2.195-2.218,2.162,2.162,0,0,0-1.961.992,2.049,2.049,0,0,0-1.845-.992,1.845,1.845,0,0,0-1.634.829v-.689h-1.214v5.58h1.226v-3.094a1.3,1.3,0,0,1,1.366-1.482c.805,0,1.214.525,1.214,1.471v3.105h1.226v-3.094a1.316,1.316,0,0,1,1.366-1.482c.829,0,1.226.525,1.226,1.471v3.105Zm18.141-5.58h-1.984v-1.693h-1.226v1.693H-361.6v1.109h1.132v2.545c0,1.3.5,2.066,1.938,2.066a2.851,2.851,0,0,0,1.517-.432l-.35-1.039a2.241,2.241,0,0,1-1.074.315c-.607,0-.805-.374-.805-.934v-2.522h1.984Zm10.355-.14a1.646,1.646,0,0,0-1.471.817v-.677h-1.2v5.58h1.214V-566.7c0-.922.4-1.436,1.191-1.436a1.979,1.979,0,0,1,.759.14l.374-1.144a2.6,2.6,0,0,0-.864-.152Zm-15.655.584a4.175,4.175,0,0,0-2.276-.584c-1.413,0-2.323.677-2.323,1.786,0,.911.677,1.471,1.926,1.646l.572.082c.665.093.981.268.981.584,0,.432-.444.677-1.272.677a2.973,2.973,0,0,1-1.856-.584l-.572.946a4.026,4.026,0,0,0,2.417.724c1.611,0,2.545-.759,2.545-1.821,0-.981-.735-1.494-1.95-1.669l-.572-.082c-.525-.07-.946-.175-.946-.549,0-.409.4-.654,1.062-.654a3.6,3.6,0,0,1,1.739.479Zm32.523-.584a1.646,1.646,0,0,0-1.471.817v-.677h-1.2v5.58h1.214V-566.7c0-.922.4-1.436,1.191-1.436a1.98,1.98,0,0,1,.759.14l.374-1.144a2.6,2.6,0,0,0-.864-.152Zm-15.643,2.93a2.819,2.819,0,0,0,2.977,2.93,2.923,2.923,0,0,0,2.008-.665l-.584-.981a2.453,2.453,0,0,1-1.459.5,1.666,1.666,0,0,1-1.681-1.786,1.666,1.666,0,0,1,1.681-1.786,2.453,2.453,0,0,1,1.459.5l.584-.981a2.924,2.924,0,0,0-2.008-.665,2.819,2.819,0,0,0-2.977,2.93Zm11.37,0v-2.79h-1.214v.677a2.117,2.117,0,0,0-1.763-.817,2.8,2.8,0,0,0-2.79,2.93,2.8,2.8,0,0,0,2.79,2.93,2.117,2.117,0,0,0,1.763-.817v.677h1.214Zm-4.518,0a1.674,1.674,0,0,1,1.693-1.786,1.672,1.672,0,0,1,1.681,1.786,1.672,1.672,0,0,1-1.681,1.786A1.674,1.674,0,0,1-338.826-566.358Zm-14.651-2.93a2.727,2.727,0,0,0-2.778,2.93,2.752,2.752,0,0,0,2.86,2.93,3.391,3.391,0,0,0,2.288-.782l-.6-.9a2.659,2.659,0,0,1-1.623.584,1.55,1.55,0,0,1-1.669-1.366h4.144c.012-.152.023-.3.023-.467a2.676,2.676,0,0,0-2.65-2.93Zm-.023,1.086a1.386,1.386,0,0,1,1.413,1.354h-2.9A1.437,1.437,0,0,1-353.5-568.2Zm30.457,1.844v-5.031h-1.214v2.918a2.117,2.117,0,0,0-1.763-.817,2.8,2.8,0,0,0-2.79,2.93,2.8,2.8,0,0,0,2.79,2.93,2.117,2.117,0,0,0,1.763-.817v.677h1.214Zm-4.518,0a1.674,1.674,0,0,1,1.693-1.786,1.672,1.672,0,0,1,1.681,1.786,1.672,1.672,0,0,1-1.681,1.786A1.674,1.674,0,0,1-327.56-566.358Zm-41,0v-2.79h-1.214v.677a2.117,2.117,0,0,0-1.763-.817,2.8,2.8,0,0,0-2.79,2.93,2.8,2.8,0,0,0,2.79,2.93,2.117,2.117,0,0,0,1.763-.817v.677h1.214Zm-4.518,0a1.674,1.674,0,0,1,1.693-1.786,1.672,1.672,0,0,1,1.681,1.786,1.672,1.672,0,0,1-1.681,1.786,1.674,1.674,0,0,1-1.693-1.786Z" transform="translate(416.986 574.785)" fill="#869ab8"></path><g transform="translate(0 0)"><path d="M-675.727-578.9H-679.4v-13.194h3.671a8.377,8.377,0,0,0-3.2,6.6A8.378,8.378,0,0,0-675.727-578.9Z" transform="translate(689.303 593.887)" fill="#869ab8"></path><path d="M-628.274-592.092V-578.9h-3.671a8.393,8.393,0,0,0,1.41-11.784,8.4,8.4,0,0,0-1.41-1.41Z" transform="translate(645.521 593.887)" fill="#869ab8"></path><path d="M-793.864-600.305a8.391,8.391,0,0,1-10.369,0,8.391,8.391,0,0,1-1.413-11.782,8.388,8.388,0,0,1,11.782-1.413,8.377,8.377,0,0,0-3.2,6.6A8.378,8.378,0,0,0-793.864-600.305Z" transform="translate(807.439 615.295)" fill="#869ab8"></path><path d="M-618.368-606.9a8.391,8.391,0,0,1-8.391,8.391,8.4,8.4,0,0,1-5.186-1.792,8.393,8.393,0,0,0,1.41-11.784,8.4,8.4,0,0,0-1.41-1.41,8.388,8.388,0,0,1,11.782,1.413A8.379,8.379,0,0,1-618.368-606.9Z" transform="translate(645.521 615.295)" fill="#869ab8"></path></g></g></g></g></svg>