<svg xmlns="http://www.w3.org/2000/svg" width="130" height="60" viewBox="0 0 130 60"><g transform="translate(-2185 -112)"><g transform="translate(2185 112)" fill="#fff" stroke="#707070" stroke-width="1" opacity="0"><rect width="130" height="60" stroke="none"></rect><rect x="0.5" y="0.5" width="129" height="59" fill="none"></rect></g><g transform="translate(2233.418 115.389)"><path d="M-6202.84-325.469h-29.833a1.656,1.656,0,0,0-1.665,1.649v49.926a1.657,1.657,0,0,0,1.665,1.649h29.833a1.656,1.656,0,0,0,1.666-1.649V-323.82A1.656,1.656,0,0,0-6202.84-325.469Zm1,51.575a.992.992,0,0,1-1,.988h-29.833a.993.993,0,0,1-1-.988V-323.82a1,1,0,0,1,1-.991h29.833a1,1,0,0,1,1,.991Z" transform="translate(6234.339 325.469)" fill="#869ab8"></path><rect width="31.892" height="2.264" transform="translate(0.647 5.184)" fill="#869ab8"></rect><path d="M-6185.734-250.182v2.265h-.04v-2.2h-31.833v2.2h-.019v-2.265Z" transform="translate(6218.272 253.097)" fill="#869ab8"></path><path d="M-6185.729-308.74v1.446h-31.9v-.06l0-1.212v-.106a1,1,0,0,1,.9-.985h30.067A.98.98,0,0,1-6185.729-308.74Z" transform="translate(6218.271 310.268)" fill="#869ab8"></path><path d="M-6202.84-325.469h-29.833a1.656,1.656,0,0,0-1.665,1.649v49.926a1.657,1.657,0,0,0,1.665,1.649h29.833a1.656,1.656,0,0,0,1.666-1.649V-323.82A1.656,1.656,0,0,0-6202.84-325.469Zm1,51.575a.992.992,0,0,1-1,.988h-29.833a.993.993,0,0,1-1-.988V-323.82a1,1,0,0,1,1-.991h29.833a1,1,0,0,1,1,.991Z" transform="translate(6234.339 325.469)" fill="#869ab8"></path><path d="M-5826.466-62.05a1.548,1.548,0,0,1-.064.3c-.043.1-.155.174-.147.244a.321.321,0,0,0,.193.209,1.119,1.119,0,0,0,.27.132c.1.026.24.1.276.015s-.018-.2-.081-.3c-.113-.183-.17-.228-.335-.48-.034-.054-.062-.112-.111-.12Z" transform="translate(5842.461 72.248)" fill="#869ab8"></path><path d="M-6079.17-49.032c-.12.176-.187.511-.373.8-.25.4-.634.879-.807.885-.1,0-.131-.229-.131-.229a1.274,1.274,0,0,1,.091-.876,3.045,3.045,0,0,1,.439-.7,3.57,3.57,0,0,0,.433-.635,1.875,1.875,0,0,0,.216-.63c.02-.084-.018-.266-.1-.261-.119.006-.423.685-.765,1.066a9.316,9.316,0,0,1-.893.818s-.056.037-.064-.064a2.325,2.325,0,0,1,.026-.664,3.131,3.131,0,0,1,.388-.954,4.388,4.388,0,0,1,.79-.971c.071-.07.283-.2.175-.271s-.393.2-.623.367a2.732,2.732,0,0,0-.676.615,3.149,3.149,0,0,0-.361.49,3.027,3.027,0,0,0-.344.87,4.4,4.4,0,0,0-.075.671s0,.384.036.621a6.138,6.138,0,0,0,.125.61s.135.42.192.677.151,1.015.151,1.015a6.115,6.115,0,0,1,.032,1.057,3.9,3.9,0,0,1-.145.969,2.923,2.923,0,0,1-.472.85c-.248.277-.3.319-.3.319a3.477,3.477,0,0,1-.467.328,4.552,4.552,0,0,1-.672.294,2.3,2.3,0,0,1-.362.049l-.18-.006c-.02,0-.045-.025-.058-.045a.761.761,0,0,1-.021-.116,6.247,6.247,0,0,0-.307-.918,5.853,5.853,0,0,0-.441-.715,12.853,12.853,0,0,0-.91-1.085,12.559,12.559,0,0,0-1.284-1.045,3.853,3.853,0,0,0-.374-.237,8.323,8.323,0,0,1-1.415-1.875,2.9,2.9,0,0,1-.365-1.619,1.169,1.169,0,0,1,.106-.412.92.92,0,0,1,.185.051,1.7,1.7,0,0,0,.337.221,1.576,1.576,0,0,0,.248.058,1.034,1.034,0,0,1,.2.03,2.772,2.772,0,0,1,.288.116c.09.046.219.128.219.128l.244.182c.027.018.255.2.255.2a1.987,1.987,0,0,0,.185.116.549.549,0,0,0,.089.035l.051,0a.091.091,0,0,0,.069-.078c.006-.066-.067-.019-.205-.154a1.1,1.1,0,0,1-.193-.235.668.668,0,0,0-.14-.244,1.938,1.938,0,0,0-.259-.235.738.738,0,0,0-.245-.113c-.146-.038-.187-.043-.2-.1s.179-.031.179-.031a1.227,1.227,0,0,1,.382.113,1.356,1.356,0,0,1,.274.18l.118.1.074.069.076.048s.074.066.091-.028a.3.3,0,0,0-.025-.174c-.005-.022-.073-.076-.073-.076l-.28-.241a1.341,1.341,0,0,0-.229-.2,2.224,2.224,0,0,0-.372-.2c-.138-.058-.232-.045-.366-.11a.544.544,0,0,1-.242-.154c-.012-.018-.085-.068.043-.041s.219.066.359.1a4.873,4.873,0,0,1,.587.136c.084.031.207.089.207.089l.264.112a1.823,1.823,0,0,0,.631.209,1.457,1.457,0,0,0,.557-.085,1.354,1.354,0,0,0,.291-.166.7.7,0,0,0,.069-.081.327.327,0,0,0,.024-.066c0-.023.008-.038,0-.054-.071-.082-.213.142-.449.189s-.234.064-.384.042a.674.674,0,0,1-.4-.194c-.234-.21-.321-.41-.613-.545a2.123,2.123,0,0,0-.359-.112,2.912,2.912,0,0,1-.488-.2c-.132-.075-.4-.109-.311-.226.042-.056.381.145.636.176a2.152,2.152,0,0,0,.462.007,3.593,3.593,0,0,0,.375-.045.756.756,0,0,1,.235.023,1.325,1.325,0,0,1,.252.108c.093.041.22.108.241.108a.556.556,0,0,1,.06.007.09.09,0,0,0,.036-.035c.007-.019.011-.035.011-.035l-.011-.031-.047-.035-.089-.058a1.338,1.338,0,0,1-.235-.184,1.087,1.087,0,0,0-.389-.3,1.866,1.866,0,0,0-.369-.086l-.191-.015L-6087.3-52s-.141-.043-.029-.073.177-.043.2-.051a.806.806,0,0,1,.327.015,2.221,2.221,0,0,1,.313.144,1.33,1.33,0,0,0,.373.185,2.478,2.478,0,0,0,.432.054.746.746,0,0,0,.117-.027c.023-.013.033-.02.051-.02a.046.046,0,0,0,.042-.035.256.256,0,0,0-.006-.076s0-.063-.087-.074a.879.879,0,0,1-.415-.163c-.16-.119-.276-.227-.276-.227a.814.814,0,0,0-.337-.154c-.215-.051-.281-.063-.281-.063l-.074-.023-.163-.073a.479.479,0,0,1-.127-.108c-.055-.071-.142-.2.1-.124a1.516,1.516,0,0,1,.293.111.544.544,0,0,0,.238.141c.065.007.124.025.169-.025.065-.077-.135-.16-.279-.255a1.034,1.034,0,0,1-.225-.25s-.082-.078.047-.042a2.292,2.292,0,0,1,.36.165s.121.055.166.073.162.093.208.11a1.072,1.072,0,0,1,.265.092c.106.066.167.181.229.229s.1.108.164.127.091.043.135.015.054-.05.054-.05.012-.034-.054-.074a.749.749,0,0,1-.154-.154l-.026-.061-.021-.05-.073-.108-.123-.189a1.639,1.639,0,0,0-.378-.368c-.176-.1-.294-.151-.294-.151a.8.8,0,0,1-.134-.073.768.768,0,0,1-.151-.166c-.076-.087-.108-.145-.187-.228-.154-.165-.647-.242-.454-.357a.376.376,0,0,1,.288-.013c.058.019.187.073.31.108.091.025.141.029.232.054a1.008,1.008,0,0,1,.228.073c.039.028.089.081.107.093a1.1,1.1,0,0,0,.333.293,1.181,1.181,0,0,0,.506.182,1.589,1.589,0,0,0,.41-.051s.077-.03.011-.1-.069-.079-.131-.1c-.223-.092-.408-.058-.583-.227a.526.526,0,0,1-.149-.2c-.057-.112-.031-.136-.066-.217a1.575,1.575,0,0,0-.106-.174,1.838,1.838,0,0,0-.447-.383,3.139,3.139,0,0,1-.447-.29,1.152,1.152,0,0,1-.127-.147s-.067-.085-.079-.108a.287.287,0,0,1-.041-.092c-.036-.16.25.048.408.1.262.081.384.194.645.279.143.049.232.049.372.105.248.1.313.34.577.367.148.013.43.075.377-.061s-.34-.136-.486-.307c-.066-.076-.074-.139-.141-.215a1.507,1.507,0,0,0-.385-.275.774.774,0,0,1-.182-.275c-.089-.2-.3-.338-.681-.525-.256-.128-.772-.151-.566-.293a.373.373,0,0,1,.376-.022,1.843,1.843,0,0,1,.334.185c.129.063.181.073.209.089a1.079,1.079,0,0,0,.169.063c.035.007.246.05.3.057s.288.071.288.071l.233.088a.563.563,0,0,0,.188.039,1.027,1.027,0,0,0,.187-.036l.088-.058.018-.025s.039-.067-.066-.083-.151-.015-.166-.019a.686.686,0,0,0-.1-.034.124.124,0,0,1-.045-.02,1.765,1.765,0,0,0-.375-.232l-.22-.089s-.043-.011-.067-.016l-.086-.019a.329.329,0,0,1-.187-.1c-.117-.1-.158-.153-.259-.253-.054-.052-.134-.133-.134-.133s-.117-.083-.11-.159c.009-.111.259.124.259.124l.167.112a.728.728,0,0,0,.4.113,2.267,2.267,0,0,0,.569-.077s.046-.031.191.015a1.043,1.043,0,0,1,.251.124l.115.1a1.453,1.453,0,0,0,.172.191c.018-.007.012,0,.026-.016s.09-.092-.037-.243a2.122,2.122,0,0,0-.347-.3,2.173,2.173,0,0,0-.572-.232,2.368,2.368,0,0,0-.416-.058.474.474,0,0,1-.339-.142c-.125-.148-.22-.279-.22-.279l-.093-.069a.616.616,0,0,0-.207-.147c-.136-.06-.276-.136-.276-.136s-.206-.076-.225-.166c-.038-.188.35,0,.569.045.193.04.291.116.486.157a1.743,1.743,0,0,0,.451.049c.1,0,.159-.017.265-.022a.965.965,0,0,1,.274,0,1.237,1.237,0,0,1,.339.157.823.823,0,0,0,.227.105c.088.014.253.064.228-.021a.165.165,0,0,0-.037-.057c-.071-.093-.152-.1-.247-.173a3,3,0,0,0-.481-.363,1.308,1.308,0,0,0-.387-.128,2.336,2.336,0,0,1-.309-.02,1.24,1.24,0,0,1-.295-.172,3.4,3.4,0,0,0-.527-.3,3.546,3.546,0,0,0-.388-.112l-.1-.017a.263.263,0,0,1-.043-.01c-.2-.067.351-.233.607-.3a.847.847,0,0,1,.318-.048c.116.007.237.165.365.093.183-.1-.218-.371-.34-.416a1.129,1.129,0,0,0-.471-.012l-.662-.011-.181-.025a.27.27,0,0,1-.2-.092,1.551,1.551,0,0,0-.792-.56c-.379-.058-.5.007-.526-.034a3.575,3.575,0,0,0-.934-.876c-.073-.067-.185-.23-.214-.207s-.066.232-.146.414a.362.362,0,0,0,.021.395c.048.081.13.139-.014.227a.552.552,0,0,1-.328.063,1.513,1.513,0,0,1-.29-.093c-.131-.063-.4-.181-.4-.181a1.441,1.441,0,0,0-.433-.058c-.178.015-.188.026-.311.042a1.436,1.436,0,0,0-.17.023c-.052.013-.125-.023-.13.042s.148.077.247.116.335.04.28.093a.494.494,0,0,1-.28.057,1.078,1.078,0,0,0-.268-.026.908.908,0,0,0-.471.146c-.037.019-.035.113.062.089a1.487,1.487,0,0,1,.4-.05,1.885,1.885,0,0,1,.436.1,1.733,1.733,0,0,0,.368.1c.042,0,.133-.03.132.023,0,.035-.065.064-.065.064s-.131.028-.111.074.151,0,.205,0,.146.02.129.076a.07.07,0,0,1-.034.048,2.932,2.932,0,0,0-.391.125c-.355.139-.5.317-.845.485-.326.16-.862.357-.862.357a1.567,1.567,0,0,1-.383.139,2.5,2.5,0,0,1-.4.066.791.791,0,0,0-.361.11.785.785,0,0,0-.2.154l-.2.3-.106.174a1.119,1.119,0,0,0-.078.137.723.723,0,0,0-.062.176.959.959,0,0,0,.022.444.976.976,0,0,0,.024.119c.01.046.074.09.074.09l.061.016a2.964,2.964,0,0,0,.329-.046c.134-.032.308-.07.308-.07s.222-.07.236-.073.154-.055.154-.055.1,0,.121.051-.026.112-.026.112a1.2,1.2,0,0,1-.155.066l-.255.081-.191.05-.125.031a.11.11,0,0,0-.06.055c-.027.046-.019.045-.015.073a.353.353,0,0,0,.069.081.429.429,0,0,0,.151.089.554.554,0,0,0,.254.031.792.792,0,0,0,.363-.084,1.29,1.29,0,0,1,.308-.128,1.009,1.009,0,0,1,.165-.035,2.308,2.308,0,0,1,.7.064c.266.044.4.124.67.168a1.722,1.722,0,0,0,.75.064c.15-.031.231-.092.31.043a.337.337,0,0,1,.061.206,1.265,1.265,0,0,1-.1.355c-.1.266-.416.939-.416.939l-.215.433a4.376,4.376,0,0,1-.568.78c-.394.446-.424.476-.424.476a2.577,2.577,0,0,0-.429.421c-.22.27-.222.374-.414.568a1.422,1.422,0,0,1-.359.293,3.133,3.133,0,0,0-.841.411c-.431.3-.651.536-.683.527s-.177-.131-.22-.16l-.874-.592-.347-.23-.153-.1-.049-.029-.08-.118a2.262,2.262,0,0,0-.284-.288,1.5,1.5,0,0,0-.586-.319.97.97,0,0,0-.639-.031.858.858,0,0,0-.365.224,2.035,2.035,0,0,0-.286.424c-.111.165-.231.333-.287.422s-.175.319-.175.319-.283.456-.447.755c-.18.326-.254.522-.432.847-.272.5-.651,1.019-.754,1.244a1.967,1.967,0,0,0-.107.25,1.485,1.485,0,0,0-.041.209c-.008.081-.012.226-.024.29a.419.419,0,0,1-.067.156,2.861,2.861,0,0,0-.232.556c-.054.217-.186.888-.024.972s1.315-.409,1.464-.905c.093-.313-.312-.468-.2-.75a1.244,1.244,0,0,1,.14-.215c.115-.182.066-.575.289-.934a9.825,9.825,0,0,1,.9-1.077,5.009,5.009,0,0,0,.53-.789s.057-.171.178-.147a1.147,1.147,0,0,0,.239.017s.046.037.062.045a1.362,1.362,0,0,1,.112.115l.176.261s.282.416.382.531a4.186,4.186,0,0,0,.336.316,5.162,5.162,0,0,0,.406.364c.291.227.181.311-.184.113a2.393,2.393,0,0,0-.485-.183c-.166-.043-.821-.217-1.14-.256a2.894,2.894,0,0,0-.366-.035.663.663,0,0,0-.342.1,2.626,2.626,0,0,0-.29.2,3.511,3.511,0,0,0-.227.285c-.018.043-.121.215-.121.215a.76.76,0,0,0-.075.189.732.732,0,0,0-.019.2l.008.209.021.2a8.713,8.713,0,0,0,.15,1c.033.146.057.379.057.379l.07.51s.049.548.085.72.065.186.094.307c.049.218-.05.319.062.569s.191.221.29.38a1.28,1.28,0,0,1,.156.285,6.371,6.371,0,0,0,.461.961c.224.358.534.8.733.755s.343-.35.343-.35a2.364,2.364,0,0,0,.085-1.219c-.146-.618-.805-.322-.878-.773a1.509,1.509,0,0,1-.006-.252,1.384,1.384,0,0,0-.041-.242,4.57,4.57,0,0,1-.348-.835c-.065-.266-.06-1.139-.12-1.386-.155-.629-.178-.569-.083-.681a.2.2,0,0,1,.188-.087l.124.011a.518.518,0,0,1,.1.039s.12.069.183.118l.253.2.482.308s.271.157.393.211a1.01,1.01,0,0,1,.217.131l.126.084.221.154a.354.354,0,0,1,.048.042.247.247,0,0,1,.031.051,1.282,1.282,0,0,0,.525.478c.349.2.647.141.779.3.023.028.266.349.391.557.141.231.31.5.368.588s.418.526.418.526l.463.516.614.566.552.466.353.277a5.5,5.5,0,0,0,.675.548c.337.227.358.261.584.411a6.861,6.861,0,0,1,.622.444c.226.185.481.524.384.641-.066.042-.2-.142-.45-.356-.2-.174-.3-.253-.5-.407a6.691,6.691,0,0,0-.673-.466c-.137-.081-.4-.248-.412-.215a2.546,2.546,0,0,0-.067.96,4.1,4.1,0,0,0,.139.838,5.618,5.618,0,0,0,.258.782c.115.3.333.763.333.763l.33.662.3.5.162.261.052.079a.375.375,0,0,1,0,.28c-.066.115-.163.355-.285.379s-.424.046-.424.046l-1.7-.021-.89-.079a1.432,1.432,0,0,0-.616-.054,5.536,5.536,0,0,0-.714.139,3.888,3.888,0,0,0-1.311.146c-.439.18-.647.227-.8.51-.116.213.555.553,1.109.68.9.206.64-.191.985-.429.042-.028.057-.063.105-.076.234-.07.354.113.587.116a3.78,3.78,0,0,0,.652-.124,10.079,10.079,0,0,1,3.323.437,2.038,2.038,0,0,0,.734.11c.272-.06.219-.153.3-.313.068-.128.043-.158.055-.3a.641.641,0,0,0-.032-.21,3.759,3.759,0,0,0-.206-.575s-.113-.256-.154-.393a3.368,3.368,0,0,1-.138-.495,3.42,3.42,0,0,1-.067-.787,4.343,4.343,0,0,1,.2-1.368,16.471,16.471,0,0,1,.907-1.836c.081-.2.091-.49.195-.51s.1.355.044.572c-.184.748-.647,1.064-.854,1.818a4.1,4.1,0,0,0-.2,1.529,6.489,6.489,0,0,0,.145.846s.168.569.258.781.251.578.251.578l.385.69.2.328a.323.323,0,0,1,.073.344,1.683,1.683,0,0,1-.386.531,15.081,15.081,0,0,1-1.894,1.615c-.4.3-.386.38-.421.477-.166.454-.613.468-1.115,1.016-.11.122-.418.429-.351.694a3.047,3.047,0,0,0,1.977.009c.557-.24.075-.508.223-.781.106-.2.4-.2.528-.367.212-.28.066-.265.263-.5a7.006,7.006,0,0,1,2.111-1.833,2.922,2.922,0,0,1,.28-.141.649.649,0,0,0,.211-.159c.079-.112.054-.209.058-.346a1.865,1.865,0,0,0-.017-.222,1.328,1.328,0,0,0-.011-.253,1.043,1.043,0,0,0-.183-.367,1.268,1.268,0,0,1-.22-.477,1.184,1.184,0,0,1,.046-.8,1.818,1.818,0,0,1,.372-.548l.646-.431s.551-.4.73-.559a5.213,5.213,0,0,0,.806-.861,3.079,3.079,0,0,0,.58-1.168,4.71,4.71,0,0,0,.08-.466s-.005-.2.106-.21.139.033.139.033.1.054.123.346a2.006,2.006,0,0,1-.073.607,4.925,4.925,0,0,0-.11.532,2.6,2.6,0,0,0-.021.337,1.02,1.02,0,0,0,.1.435s.06.045.055-.063a1.657,1.657,0,0,1,.079-.462c.045-.146.068-.113.152-.359.107-.313.008-.279.078-.466.036-.091.1-.165.183-.17s.094.119.094.119a1.831,1.831,0,0,1,.013.718,4.212,4.212,0,0,1-.325.814l-.2.347a3.208,3.208,0,0,0-.195.4.575.575,0,0,0-.045.393c.037.162.171.4.236.361s-.081-.194.087-.536a2.072,2.072,0,0,1,.4-.551,4.615,4.615,0,0,0,.46-.651,4.826,4.826,0,0,0,.25-.675,2.625,2.625,0,0,0,.075-.682,2.219,2.219,0,0,0-.068-.465s-.111-.2-.129-.226a.733.733,0,0,1-.074-.167c0-.03,0-.091.034-.1s.125.054.215.168a1.32,1.32,0,0,1,.219.455,1.523,1.523,0,0,1,.055.39,1.953,1.953,0,0,0,.133.888c.081.14.247.471.257.325.023-.334-.11-.483-.094-.781.019-.337.094-.258.126-.429a1.025,1.025,0,0,0,.039-.466,4.293,4.293,0,0,0-.125-.529s-.084-.208-.1-.232-.039-.082-.039-.082a.143.143,0,0,1,.072-.049c.041-.009.344-.113.344-.113a5.491,5.491,0,0,0,.618-.34,4.029,4.029,0,0,0,.4-.361,4.817,4.817,0,0,0,.421-.611,3.8,3.8,0,0,0,.333-1.824,7.228,7.228,0,0,0-.115-.834,4.738,4.738,0,0,1-.083-.942,5.321,5.321,0,0,1,.056-.548,1.335,1.335,0,0,1,.295-.773,2.264,2.264,0,0,0,.508-.951C-6078.962-48.779-6079.06-49.188-6079.17-49.032Zm-9.458-2.571a.292.292,0,0,1-.1-.051s-.013-.02.026-.045a.148.148,0,0,1,.1-.01.11.11,0,0,1,.037.02.264.264,0,0,1,.071.1C-6088.493-51.555-6088.587-51.594-6088.628-51.6Zm.185-.466a.366.366,0,0,1-.118-.063s-.015-.022.03-.051a.169.169,0,0,1,.111-.012.107.107,0,0,1,.044.022.331.331,0,0,1,.083.119C-6088.288-52.015-6088.4-52.061-6088.444-52.069Zm.149-.49a.423.423,0,0,1-.147-.076s-.017-.028.041-.063a.213.213,0,0,1,.137-.015.128.128,0,0,1,.051.028.354.354,0,0,1,.1.147C-6088.1-52.492-6088.234-52.55-6088.294-52.559Zm.129-.447a.438.438,0,0,1-.147-.075s-.014-.029.04-.063a.209.209,0,0,1,.137-.016.142.142,0,0,1,.055.028.381.381,0,0,1,.1.148C-6087.973-52.939-6088.1-53-6088.165-53.006Zm.125-.528a.5.5,0,0,1-.163-.084s-.017-.031.043-.068a.238.238,0,0,1,.152-.019.16.16,0,0,1,.06.032.455.455,0,0,1,.116.163C-6087.825-53.459-6087.973-53.523-6088.04-53.534Zm.1-.563a.552.552,0,0,1-.194-.1s-.024-.037.052-.083a.274.274,0,0,1,.183-.021.159.159,0,0,1,.069.038.518.518,0,0,1,.14.2C-6087.689-54.008-6087.862-54.084-6087.945-54.1Zm.056-.578a.691.691,0,0,1-.235-.124s-.027-.045.062-.1a.349.349,0,0,1,.225-.028.2.2,0,0,1,.082.047.616.616,0,0,1,.171.24C-6087.575-54.567-6087.788-54.66-6087.889-54.675Zm.083-.652a.824.824,0,0,1-.275-.143s-.03-.052.073-.116a.4.4,0,0,1,.259-.031.26.26,0,0,1,.1.054.74.74,0,0,1,.2.278C-6087.445-55.2-6087.691-55.309-6087.805-55.327Zm-.055-2.653a.668.668,0,0,1-.209-.095s-.021-.035.056-.078a.332.332,0,0,1,.194-.021.193.193,0,0,1,.076.035c.034.028.138.13.145.185S-6087.776-57.969-6087.86-57.98Zm.31.647c.009.064-.187-.016-.279-.031a.632.632,0,0,1-.219-.11s-.026-.04.059-.09a.323.323,0,0,1,.206-.023.18.18,0,0,1,.077.042A.512.512,0,0,1-6087.551-57.334Zm-.412,1.054a.35.35,0,0,1,.223-.028.236.236,0,0,1,.084.048.627.627,0,0,1,.167.24c.009.072-.2-.02-.3-.036a.731.731,0,0,1-.238-.124S-6088.053-56.224-6087.963-56.279Zm.185-.484a.706.706,0,0,1-.235-.124s-.028-.046.062-.1a.344.344,0,0,1,.224-.026.2.2,0,0,1,.084.048.607.607,0,0,1,.169.239C-6087.465-56.656-6087.678-56.747-6087.778-56.763Zm.18-2.145c.12.032.142.095.088.107a.48.48,0,0,1-.131.009c-.123-.006-.12-.051-.288.031a1.235,1.235,0,0,1-.282.133c-.234.086-.175-.148-.175-.148a1.089,1.089,0,0,0,.048-.154c.031-.115.167-.006.274,0A2.06,2.06,0,0,1-6087.6-58.908Zm-.636-.885a.18.18,0,0,1,.069.038.512.512,0,0,1,.139.2c.006.06-.167-.015-.247-.029a.547.547,0,0,1-.194-.1s-.022-.037.051-.082A.276.276,0,0,1-6088.234-59.793Zm-.521-.687a.286.286,0,0,1,.183-.022.156.156,0,0,1,.068.039.5.5,0,0,1,.139.2c0,.058-.167-.017-.247-.029a.6.6,0,0,1-.193-.1S-6088.828-60.434-6088.755-60.48Zm-.141,9.245a.152.152,0,0,1,.1-.012.1.1,0,0,1,.037.019c.016.016.069.071.072.1s-.086-.01-.13-.016a.285.285,0,0,1-.1-.054S-6088.934-51.213-6088.9-51.236Zm-5.72-6.789c-.049.034-.077.049-.125.083-.078.057-.137.2-.192.154s-.023-.2-.023-.2a1.456,1.456,0,0,1,.1-.234.211.211,0,0,1,.158-.119.231.231,0,0,1,.247.193C-6094.442-58.013-6094.55-58.071-6094.616-58.025Zm1.171.446s-.057.016-.077-.086.065-.118.065-.118.165-.086.176.022S-6093.445-57.58-6093.445-57.58Zm1.525-1.948a1.164,1.164,0,0,1-.437.414,2.36,2.36,0,0,1-.911.209c-.072.006-.047-.049-.047-.049a5.246,5.246,0,0,0,.876-.326,3.836,3.836,0,0,0,.431-.281C-6091.817-59.717-6091.92-59.528-6091.92-59.528Zm-9.6,12.361a.358.358,0,0,1-.112.2c-.024,0-.085-.134-.073-.2s.031-.275.138-.244S-6101.519-47.233-6101.522-47.168Zm.376-1.609s-.128.266-.176.163.049-.288.049-.288c.121-.1.153-.238.208-.189S-6101.146-48.776-6101.146-48.776Zm1.774-2.787c-.122.14-.524.891-.62.769-.083-.1.382-.808.483-.963s.188-.125.188-.125c.021,0,.022.034.022.034A.3.3,0,0,1-6099.373-51.564Zm1.075-1.128s-.29.061-.239-.04.258-.139.258-.139c.154.034.181.042.178.116S-6098.3-52.692-6098.3-52.692Zm1.145,2.005c-.12.122-.171-.047-.362-.252a.409.409,0,0,1-.144-.367.02.02,0,0,1,.022,0l.037.015.065.036.049.041s.056.063.137.139S-6097.118-50.72-6097.152-50.687Zm-2.2,4.267c-.051,0-.092-.086-.092-.086a1.788,1.788,0,0,1-.149-.3,1.666,1.666,0,0,1-.056-.3,1.983,1.983,0,0,1-.023-.328,1.92,1.92,0,0,1,.028-.267.053.053,0,0,1,.064-.045.074.074,0,0,1,.083.069l0,.038s0,.255.019.464c0,.064.163.693.163.693S-6099.3-46.425-6099.352-46.419Zm-.03-3c-.1.157-.167.159-.173.151s-.024-.076.058-.246.167-.151.167-.151c.021,0,.028.031.028.031S-6099.28-49.576-6099.382-49.42Zm1.013,5.976c.028-.06.218.09.218.09.078.021.137.143.137.143a.113.113,0,0,1-.055.137.119.119,0,0,1-.144-.048S-6098.4-43.385-6098.369-43.444Zm1.339-4.363a4.667,4.667,0,0,1-.8-.461c-.172-.09-.453-.119-.334-.224.021-.018.027-.035.062-.037a.629.629,0,0,1,.158.049c.006,0,.3.127.315.13a3.01,3.01,0,0,1,.3.146c.119.071.313.206.313.206l.083.07S-6096.828-47.77-6097.03-47.807Zm1.739-2.837s-.249.326-.384.522c-.185.267-.406.689-.453.648s.2-.5.322-.747a1.136,1.136,0,0,1,.436-.489C-6095.181-50.793-6095.291-50.643-6095.291-50.643Zm-.764,14.283s0,.06-.1.13-.141.03-.16.027-.12-.057-.108-.113.169-.093.169-.093C-6095.994-36.432-6096.055-36.361-6096.055-36.361Zm2.214-.085c-.1-.009-.109-.037-.107-.054s.027-.039.141-.045.113.051.113.051C-6093.7-36.446-6093.738-36.439-6093.84-36.445Zm2.535.139a2.051,2.051,0,0,1-.487.04c-.151.009-.235.024-.386.022a1.643,1.643,0,0,1-.692-.107c-.073-.022-.154-.109-.131-.146s.084-.025.084-.025.485.078.8.1a4.088,4.088,0,0,0,.574.012,2.134,2.134,0,0,1,.266-.01C-6091.2-36.422-6091.251-36.32-6091.305-36.307Zm1.351-.4a.523.523,0,0,1-.174.06c-.084.009-.044-.054-.044-.054a.364.364,0,0,1,.132-.131c.086-.042.126.006.126.006C-6089.872-36.776-6089.932-36.72-6089.955-36.708Zm1.068-2.736a1.228,1.228,0,0,0-.146.478c-.03.213.092.821-.1.584a1.5,1.5,0,0,1-.089-.806C-6089.123-39.685-6088.711-39.825-6088.886-39.444Zm-2.894,8.715c-.091.066.082.234-.181.219-.153-.01-.077-.153-.064-.177s.089-.122.1-.139a.468.468,0,0,1,.188-.156c.076-.045.135.063.135.063a.177.177,0,0,1,.033.1C-6091.57-30.766-6091.708-30.78-6091.78-30.729Zm1.509-1.43a1.082,1.082,0,0,1-.128.092c-.014,0-.1.069-.127.024s.011-.1.018-.109a.539.539,0,0,1,.15-.143.109.109,0,0,1,.114,0A.1.1,0,0,1-6090.271-32.16Zm.66-25s-.061.192-.168.222a2.012,2.012,0,0,1-.7.014c-.01-.041.627-.093.876-.348C-6089.545-57.331-6089.611-57.162-6089.611-57.162Zm-.191-.472c.042-.069.015.11.015.11s-.038.185-.136.24c-.127.07-.451.159-.47.121S-6089.988-57.331-6089.8-57.634Zm-.888-2.147a.26.26,0,0,1,.141.049.573.573,0,0,1,.14.233s.014.028-.054.026c-.049,0-.043-.07-.083-.105a.531.531,0,0,0-.166-.092c-.068-.031-.174.015-.182-.061S-6090.69-59.781-6090.69-59.781Zm-.651.476a.314.314,0,0,1,.151-.159.686.686,0,0,1,.271-.07.348.348,0,0,1,.192.067.785.785,0,0,1,.188.319s.025.153-.044.212-.179-.046-.241-.121a.409.409,0,0,0-.21-.147c-.116-.039-.28.081-.316,0A.174.174,0,0,1-6091.341-59.305Zm-.047,1.964c-.093.007-.027-.075-.027-.075s.25-.107.4-.188c.25-.133.741-.646.61-.394a1.182,1.182,0,0,1-.232.261,3.64,3.64,0,0,1-.24.322A.723.723,0,0,1-6091.388-57.341Zm-2.012,5.535.022-.023a1.7,1.7,0,0,1,1.1-.2c.4.054.787.408.733.457s-.15,0-.164-.005-.118-.054-.148-.067-.216-.063-.216-.063a3.266,3.266,0,0,0-.668-.072,1.956,1.956,0,0,0-.543.111s-.117.058-.146-.019A.111.111,0,0,1-6093.4-51.807Zm1.049,8.04c-.981-.756-2.184-2.3-2.033-2.442.124-.113.617.6,1.338,1.378.772.833,1.669,1.611,1.7,1.714C-6091.29-42.943-6091.981-43.481-6092.351-43.766Zm2.237-10.66a6.146,6.146,0,0,1-.986,1.251c-.2.148-.078-.107-.078-.107a10.819,10.819,0,0,0,.813-1.307c.182-.38.3-.893.392-1.005C-6089.762-55.84-6089.868-54.851-6090.113-54.426Zm1.149,7.814a3.466,3.466,0,0,1-.843-1.774c-.022-.159-.026-.383.122-.359.125.02.113.256.118.309a3.038,3.038,0,0,0,.528,1.329,10.31,10.31,0,0,0,1.127,1.28C-6087.995-45.738-6088.7-46.3-6088.964-46.612Zm.757,12.687s-.37.416-.627.657c-.242.225-.652.545-.652.545s-.032.024-.054,0,0-.04,0-.04a.214.214,0,0,0,.01-.024c0-.009.009-.016.009-.024s.03-.037.03-.037a.436.436,0,0,0,.026-.037l.028-.045.079-.092.194-.185.2-.188.315-.307s.123-.125.158-.158a.685.685,0,0,1,.119-.086c.058-.027.129-.068.159-.042A.044.044,0,0,1-6088.207-33.926Zm.252-9.9c-.19.136-.261.114-.377.249-.135.154-.172.679-.293.466a.644.644,0,0,1,.167-.741C-6088.187-44.148-6087.63-44.059-6087.955-43.83Zm.669,9.392a.162.162,0,0,1,.125-.009.162.162,0,0,1,.024.055c0,.018-.108.179-.173.167s-.051-.1-.051-.1A.119.119,0,0,1-6087.286-34.438Zm2.456-5.8c-.131-.084.073-.34.076-.562,0-.174-.035-.3-.033-.444a.209.209,0,0,1,.149-.186c.021,0,.088.03.158.179S-6084.6-40.1-6084.83-40.24Zm4.355-4.08a2.243,2.243,0,0,1-.414,1.486c-.427.553-1.172,1.133-1.007.678.1-.274.761-.612,1.012-1.373a3.972,3.972,0,0,0,.175-.887l-.021-.867s-.013-.076-.019-.171c.04-.107.1-.026.1-.026l.022.049A5.142,5.142,0,0,1-6080.475-44.32Z" transform="translate(6107.082 72.22)" fill="#869ab8"></path><path d="M-5737.09,861.192v-.362c0-.823.415-.983,1.63-.989,1.117.006,1.512.146,1.512.855v2.737h.413v.617h-2.73a.888.888,0,0,1-.951-.881v-.554c0-.479.245-.9,1.1-.9h1.068v-.833c0-.435-.029-.487-.467-.487h0c-.522,0-.558.069-.558.487v.31h-1.012m1.267.982a.35.35,0,0,0-.342.387v.529c0,.213.091.383.342.386h.384c.212,0,.385-.066.385-.386l0-.916h-.771Z" transform="translate(5756.462 -813.95)" fill="#869ab8"></path><path d="M-5838.868,860.874v-.957h-1.524v.569h.407v2.948h-.407v.618h1.909v-.618h-.385v-1.58a4.127,4.127,0,0,1,.9-1.151v1.569h1.054v-1.766c0-.4-.263-.664-.745-.664-.572,0-.957.72-1.207,1.031" transform="translate(5855.644 -813.953)" fill="#869ab8"></path><path d="M-5526.076,865.276v-3.514h-1.555v.569h.436v2.945h-.436v.621h1.963v-.621h-.408" transform="translate(5554.991 -815.797)" fill="#869ab8"></path><path d="M-5940.083,860.874v-.957h-1.522v.569h.406v2.948h-.406v.618h1.906v-.618h-.384v-1.58a4.127,4.127,0,0,1,.9-1.151v1.569h1.054v-1.766c0-.4-.262-.664-.744-.664-.571,0-.958.72-1.208,1.031" transform="translate(5952.939 -813.953)" fill="#869ab8"></path><path d="M-6039.3,862.916h-1.068v.31c0,.42-.071.438-.592.444h-.007c-.6,0-.563-.057-.557-.444v-.735h2.224v-1.6c0-.578-.437-.821-1.588-.825h-.166c-1.244.006-1.574.289-1.574,1v2.337c0,.787.463.92,1.6.951h.125c1.235-.029,1.606-.113,1.606-.848v-.6m-2.212-1.961c0-.218.066-.325.314-.328h.469c.193,0,.3.086.3.241v1.2h-1.085v-1.11Z" transform="translate(6050.049 -814.172)" fill="#869ab8" fill-rule="evenodd"></path><line y1="0.748" transform="translate(28.352 44.367)" fill="#7b8d9c"></line><path d="M-5629.956,860.874v-.957h-1.524v.569h.406v2.948h-.406v.618h1.907v-.618h-.382v-1.58a4.126,4.126,0,0,1,.9-1.151v1.569H-5628v-1.766c0-.4-.266-.664-.749-.664-.569,0-.957.72-1.2,1.031" transform="translate(5654.82 -813.953)" fill="#869ab8"></path><path d="M-6141.142,824.148V823.6h-.593v1.945h1.028v.617h-3.017v-.617h.8v-4.368h-.63v-.751h23.5v.751h-21.683v1.754h.593v-.519h.684v1.739h-.684" transform="translate(6147.231 -776.059)" fill="#869ab8"></path><rect width="1.121" height="0.739" transform="translate(27.779 44.337)" fill="#869ab8"></rect></g></g></svg>