<svg xmlns="http://www.w3.org/2000/svg" width="130" height="60" viewBox="0 0 130 60"><g transform="translate(-1435 -112)"><g transform="translate(1435 112)" fill="#fff" stroke="#707070" stroke-width="1" opacity="0"><rect width="130" height="60" stroke="none"></rect><rect x="0.5" y="0.5" width="129" height="59" fill="none"></rect></g><g transform="translate(1436.342 127.316)"><path d="M-6105.579,5345.746q-2.247-.99-4.509-1.941c-.825-.348-1.149-.056-1.139.83.015,1.259-.083,2.519-.1,3.779-.007.639-.418,1.56.383,1.807.65.2.842-.8,1.3-1.2a2.74,2.74,0,0,1,.473-.25,11.9,11.9,0,0,1,1.162,4.879c.017,2.113.03,2.088-2,1.624a42.271,42.271,0,0,0-13.225-1.294c-2.117.189-2.111.25-2.111-1.84,0-2.949,0-2.949,2.861-2.107a4.651,4.651,0,0,0,5.747-3.124c.13-.455.227-.892-.5-.769a6.177,6.177,0,0,1-3.916-.99,8.052,8.052,0,0,0-4.014-.734c-.976.032-1.393.318-1.354,1.4.085,2.518,0,5.041.032,7.56.01.732-.141,1.1-.976,1.246-1.5.266-2.981.7-4.464,1.084-.634.163-1,.074-1-.7a15.589,15.589,0,0,1,.234-3.758,12.482,12.482,0,0,1,18.365-8.019c.81.435,1.524.855,2.129-.212s-.3-1.38-.967-1.748a14.63,14.63,0,0,0-11.806-1.259c-6.387,1.948-10.865,8.456-10.26,14.815.681,7.187,5.676,12.736,12.207,13.556.5.332,1.137-.092,1.627.292h1.591c.509-.375,1.147.021,1.669-.272,8.836-.915,14.74-10.842,11.5-19.424-.454-1.2-.789-2.054,1-2.085.326-.006.658-.157.687-.516C-6104.93,5346-6105.3,5345.868-6105.579,5345.746Zm-3.451,13.244a12.744,12.744,0,0,1-11.421,7.452,12.727,12.727,0,0,1-11.476-7.361c-.322-.76-.353-1.2.558-1.551a37.946,37.946,0,0,1,4.057-1.324c.545-.142.813-.037.8.548-.02,1.084.455,2.412-1.4,2.541a.8.8,0,0,0-.822.8c.019.437.378.6.741.716a6.536,6.536,0,0,0,4.2,0c.355-.119.735-.255.772-.687.047-.547-.444-.772-.812-.808-2.143-.209-1.418-1.772-1.472-2.961-.026-.582.421-.6.86-.673a20.484,20.484,0,0,1,3.492-.278,30,30,0,0,1,11.177,1.871C-6108.8,5357.642-6108.638,5358.054-6109.03,5358.989Z" transform="translate(6170.095 -5339.309)" fill="#869ab8"></path><path d="M-6657.251,5503.64c.7-.823,1.314-1.535,2.454-.4a1.239,1.239,0,0,0,1.93-.354c.461-.8-.148-1.244-.791-1.6-.371-.2-.745-.4-1.107-.614-1.937-1.152-2.521-2.942-1.458-4.445,1-1.414,3.128-1.54,4.834-.388.973.656.757,1.137.027,1.782-.44.39-.716.218-1.088-.043a2.233,2.233,0,0,0-1.276-.573.935.935,0,0,0-.922.5.722.722,0,0,0,.274.968c.564.385,1.152.735,1.736,1.09,2,1.217,2.556,2.815,1.533,4.425a3.617,3.617,0,0,1-5.056.856,13.3,13.3,0,0,1-1.092-.89Z" transform="translate(6657.251 -5484.677)" fill="#869ab8"></path><path d="M-5296.117,5445.5c.008-.759-.332-1-1.057-1-.757,0-1.035.329-1.015,1.05.03,1.029.008,2.059.008,3.24-.558-.245-.887-.4-1.221-.536a5.132,5.132,0,0,0-5.909,1.355,5.257,5.257,0,0,0-.554,6.15,5.158,5.158,0,0,0,5.554,2.438c2.465-.543,4.019-2.11,4.133-4.521C-5296.048,5450.954-5296.146,5448.224-5296.117,5445.5Zm-5.161,10.814a3.194,3.194,0,0,1-3.213-3.216,3.164,3.164,0,0,1,3.093-3.3,3.177,3.177,0,0,1,3.312,3.261A3.25,3.25,0,0,1-5301.278,5456.313Z" transform="translate(5396.679 -5437.48)" fill="#869ab8"></path><path d="M-6318.249,5494.7c-2.98-.667-6.222,1.037-6.5,3.761-.3,3.011-.134,6.068-.17,9.105-.01.758.537.778,1.085.808.647.036.973-.188.944-.9-.044-1.086-.012-2.176-.012-3.411.836.341,1.4.631,2,.806a5.291,5.291,0,0,0,6.478-3.59A5.29,5.29,0,0,0-6318.249,5494.7Zm1.96,5.166a3.4,3.4,0,0,1-3.381,3.271,3.251,3.251,0,0,1-3.259-3.325,3.235,3.235,0,0,1,3.32-3.256A3.345,3.345,0,0,1-6316.289,5499.864Z" transform="translate(6347.092 -5484.2)" fill="#869ab8"></path><path d="M-5118.575,5445.315c.01-.79-.388-.944-1.077-.979-.85-.043-.949.412-.934,1.071.023,1.025.005,2.052.005,3.229-.648-.278-1.112-.506-1.6-.679a5.134,5.134,0,0,0-6.669,3.608,5.256,5.256,0,0,0,4.1,6.523,5.079,5.079,0,0,0,6.114-4.448C-5118.495,5450.871-5118.606,5448.091-5118.575,5445.315Zm-1.931,7.6a3.211,3.211,0,0,1-3.211,3.225,3.167,3.167,0,0,1-3.2-3.213,3.148,3.148,0,0,1,3.111-3.287A3.17,3.17,0,0,1-5120.506,5452.915Z" transform="translate(5230.944 -5437.33)" fill="#869ab8"></path><path d="M-4900.111,5500.563c1,.068,2.015.014,3.021.014a21.769,21.769,0,0,1,2.7.021c1.446.182,1.6-.521,1.363-1.656a5.071,5.071,0,0,0-5.106-4.1,4.971,4.971,0,0,0-5.066,4.293,5.241,5.241,0,0,0,3.069,5.8,5.424,5.424,0,0,0,6.463-1.958c.583-.9.255-1.6-.8-1.753-.743-.107-.793.578-1.114.933a3.166,3.166,0,0,1-5.228-.388C-4901.176,5501.04-4901.291,5500.482-4900.111,5500.563Zm.05-3.058a2.8,2.8,0,0,1,2.041-.7c1.09.112,2.377.435,2.4,1.564.013.677-1.344.182-2.066.333a2.321,2.321,0,0,1-.474.005c-.475,0-.951.023-1.424-.008-.347-.024-.835.193-1.01-.172C-4900.806,5498.086-4900.385,5497.761-4900.061,5497.5Z" transform="translate(5020.25 -5484.469)" fill="#869ab8"></path><path d="M-5472.318,5503.687c.037-.786.011-1.575.011-2.362h-.02c0-.736.027-1.472-.005-2.207a5.217,5.217,0,0,0-3.763-4.752,5.237,5.237,0,0,0-5.917,2.327,5.293,5.293,0,0,0,.459,6.178,5.058,5.058,0,0,0,5.909,1.357c.5-.2.993-.863,1.4.228.189.51.966.236,1.468.209C-5472.131,5504.632-5472.335,5504.058-5472.318,5503.687Zm-5.447-1.1a3.012,3.012,0,0,1-2.9-3.084,3.2,3.2,0,0,1,3.083-3.311,3.041,3.041,0,0,1,3.021,3.153A3.363,3.363,0,0,1-5477.765,5502.588Z" transform="translate(5561.118 -5483.848)" fill="#869ab8"></path><path d="M-6538.72,5455.012c0-1.837.017-3.674-.008-5.509-.01-.707.039-1.19.985-1.186.857,0,1.154.313,1.062,1.106a2.338,2.338,0,0,0,0,.315c.019.837-.288,1.955.139,2.445.574.658,1.408-.387,2.209-.5,2.4-.344,4.387,1,4.57,3.412.145,1.932.064,3.879.123,5.819.024.763-.291.984-1.031.984s-1.033-.226-1.016-.99c.039-1.574.022-3.149-.02-4.722-.033-1.271-.24-2.464-1.911-2.56a2.672,2.672,0,0,0-2.888,2.342,24.515,24.515,0,0,0-.162,4.712c.011.82-.15,1.233-1.127,1.228-1.015,0-.929-.584-.927-1.228C-6538.716,5458.791-6538.72,5456.9-6538.72,5455.012Z" transform="translate(6546.634 -5441.048)" fill="#869ab8"></path><path d="M-5644.607,5505.169c-2.894.028-5.019-1.5-5.677-3.838a5.182,5.182,0,0,1,2.511-5.909,5.969,5.969,0,0,1,6.775.746c.356.373,1.231.788.447,1.5-.557.507-1.076.779-1.837,0a3.567,3.567,0,0,0-4.513-.456,3.061,3.061,0,0,0-1.346,3.561,3.519,3.519,0,0,0,5.625,1.683c.363-.269.569-.9,1.116-.745a2.288,2.288,0,0,1,1.164.754c.312.424-.188.755-.453,1.04A5.423,5.423,0,0,1-5644.607,5505.169Z" transform="translate(5717.614 -5484.344)" fill="#869ab8"></path><path d="M-6377.181,5505.972c0,1.309-.038,2.62.013,3.927.031.795-.321.973-1.039.958-.664-.014-1.117-.089-1.108-.916q.04-4.083,0-8.167c-.007-.773.349-.969,1.06-.988.828-.021,1.12.286,1.089,1.1C-6377.219,5503.247-6377.181,5504.61-6377.181,5505.972Z" transform="translate(6397.85 -5490.015)" fill="#869ab8"></path><path d="M-4949.88,5505.855c0,1.366-.032,2.732.012,4.1.026.8-.346.953-1.058.957-.735,0-1.061-.22-1.055-.982.022-2.678.027-5.357,0-8.036-.011-.861.4-1.053,1.171-1.053.807,0,.976.388.96,1.078-.03,1.312-.008,2.626-.008,3.939Z" transform="translate(5065.706 -5490.065)" fill="#869ab8"></path><path d="M-6383.129,5447.916c-.853-.094-1.4-.56-1.4-1.391a1.317,1.317,0,0,1,1.528-1.385,1.271,1.271,0,0,1,1.3,1.444A1.349,1.349,0,0,1-6383.129,5447.916Z" transform="translate(6402.713 -5438.078)" fill="#869ab8"></path><path d="M-4955.589,5447.815c-.968-.139-1.486-.648-1.437-1.479a1.309,1.309,0,0,1,1.465-1.32,1.28,1.28,0,0,1,1.313,1.45A1.351,1.351,0,0,1-4955.589,5447.815Z" transform="translate(5070.414 -5437.962)" fill="#869ab8"></path></g></g></svg>