<svg xmlns="http://www.w3.org/2000/svg" width="130" height="60" viewBox="0 0 130 60"><g transform="translate(-85 -112)"><g transform="translate(85 112)" fill="#fff" stroke="#707070" stroke-width="1" opacity="0"><rect width="130" height="60" stroke="none"></rect><rect x="0.5" y="0.5" width="129" height="59" fill="none"></rect></g><g transform="translate(87.929 119.525)"><g transform="translate(0 0)"><path d="M4071.817-888.951H4069.6l-4.589-14.258h-.085l-4.579,14.258h-2.175l-7.923-21.183h4.263l4.708,13.764h.077l4.375-13.764h2.558l4.4,13.764h.077l4.708-13.764h4.265Z" transform="translate(-4050.249 910.746)" fill="#869ab8"></path><path d="M4255.364-900.214a7.187,7.187,0,0,0,6.958,5.773,6.771,6.771,0,0,0,6.047-3.556h3.974a10.8,10.8,0,0,1-10.165,7.189,11.084,11.084,0,0,1-10.789-11.171,10.832,10.832,0,0,1,10.7-10.963,10.83,10.83,0,0,1,10.962,10.7c0,.691-.075,1.757-.109,2.03Zm13.694-3.062a6.882,6.882,0,0,0-7.532-6.163,6.881,6.881,0,0,0-6.162,6.163Z" transform="translate(-4221.704 913.14)" fill="#869ab8"></path><path d="M4418.506-913.448h3.632v3.249h.076a8.949,8.949,0,0,1,7.539-3.821c7.189,0,10.967,5.774,10.967,11.427a10.675,10.675,0,0,1-10.486,10.863l-.232,0c-4.435,0-6.653-2.26-7.455-3.6h-.077v10.14h-3.964Zm10.975,3.079a7.263,7.263,0,0,0-7.07,7.488,7.171,7.171,0,0,0,6.885,7.449,7.17,7.17,0,0,0,7.448-6.883c.007-.163.007-.326,0-.489A7.456,7.456,0,0,0,4429.481-910.369Z" transform="translate(-4364.157 914.061)" fill="#869ab8"></path><path d="M4600.56-892.487v-3.292h-.078a8.1,8.1,0,0,1-7.222,3.829,10.873,10.873,0,0,1-11.236-10.5q-.01-.294,0-.588c0-5.159,3.632-11.24,11.24-11.24a8.373,8.373,0,0,1,7.188,3.556h.077v-2.951h3.984v21.183Zm-7.3-18.1c-4.895,0-7.266,4.264-7.266,7.564a7.308,7.308,0,0,0,7.055,7.553,7.309,7.309,0,0,0,7.554-7.054q.009-.25,0-.5a7.232,7.232,0,0,0-6.891-7.558C4593.562-910.592,4593.41-910.594,4593.26-910.591Z" transform="translate(-4503.536 914.282)" fill="#869ab8"></path><path d="M4757.586-881.873h-4.128l3.1-7.5-8.452-20.765h4.265l6.233,16.442,6.388-16.442h4.263Z" transform="translate(-4645.109 910.746)" fill="#869ab8"></path><path d="M4488.4-685.182a.391.391,0,0,0-.384.392v2.746h7.239l-3.3-3.138Z" transform="translate(-4423.409 718.993)" fill="#869ab8"></path><path d="M4521.029-660.406a.4.4,0,0,0-.39-.392h-2.748v7.215l3.137-3.3Z" transform="translate(-4448.875 698.207)" fill="#869ab8"></path><path d="M4472.635-628.19a.391.391,0,0,0,.383-.392v-2.746h-7.248l3.3,3.138Z" transform="translate(-4404.445 673.087)" fill="#869ab8"></path><path d="M4463.981-676.535a.4.4,0,0,0,.392.392h2.746v-7.249l-3.138,3.3Z" transform="translate(-4402.92 717.466)" fill="#869ab8"></path><path d="M4202.265-676.226v3.352h-4.638v-3.352h-1.706v8.443h1.706v-3.624h4.664v3.624H4204v-8.443Z" transform="translate(-4174.421 711.359)" fill="#869ab8"></path><path d="M4391.981-676.226v8.434h7.454l-.948-1.5h-4.8v-2.132h4.656v-1.416h-4.656v-1.936h4.792l.931-1.45Z" transform="translate(-4341.546 711.359)" fill="#869ab8"></path><path d="M4137.589-676.3a2.421,2.421,0,0,0-2.653,2.165,2.348,2.348,0,0,0,0,.5v3.155a2.429,2.429,0,0,0,2.187,2.651,2.459,2.459,0,0,0,.456,0h5.329l-.988-1.543h-3.967c-.852,0-1.219-.307-1.219-1.262v-2.891c0-.93.307-1.288,1.245-1.288h3.982l.946-1.492Z" transform="translate(-4122.427 711.431)" fill="#869ab8"></path><path d="M4329.165-676.275a1.988,1.988,0,0,0-2.073,1.9,2.193,2.193,0,0,0,.009.294v.4a2,2,0,0,0,1.694,2.257,2,2,0,0,0,.32.02h3.53c.366,0,.664.06.664.682v.716c0,.554-.281.682-.672.682h-4.649l-.954,1.484h5.714a2.055,2.055,0,0,0,2.305-1.77,2.112,2.112,0,0,0,.006-.49v-.588a2.023,2.023,0,0,0-1.766-2.248,2,2,0,0,0-.452,0h-3.411c-.366,0-.631-.1-.631-.657v-.58c0-.478.179-.648.612-.648h4.426l.93-1.458Z" transform="translate(-4286.184 711.408)" fill="#869ab8"></path><path d="M4260.767-676.226l-4,8.443h1.885l.784-1.748h4.35l.776,1.748h1.893l-4.009-8.443Zm.854,1.757,1.517,3.471h-3.069Z" transform="translate(-4226.288 711.359)" fill="#869ab8"></path><path d="M4076.885-658.428l-.146-.776h-.058a2.459,2.459,0,0,1-.811.7,2.563,2.563,0,0,1-1.015.179,1.825,1.825,0,0,1-1.28-.418,1.547,1.547,0,0,1-.46-1.194c0-1.1.853-1.706,2.652-1.706h.921v-.341a1.364,1.364,0,0,0-.273-.946,1.143,1.143,0,0,0-.853-.307,3.566,3.566,0,0,0-1.544.418l-.256-.631a3.818,3.818,0,0,1,1.816-.5,2.131,2.131,0,0,1,1.449.426,1.826,1.826,0,0,1,.469,1.4v3.727Zm-1.851-.58a1.707,1.707,0,0,0,1.211-.427,1.56,1.56,0,0,0,.444-1.185v-.495h-.854a3.068,3.068,0,0,0-1.424.307.92.92,0,0,0-.435.853.857.857,0,0,0,.273.682A1.1,1.1,0,0,0,4075.034-659.008Z" transform="translate(-4069.739 700.903)" fill="#869ab8"></path><path d="M4568.653-658.321a2.345,2.345,0,0,1-1.842-.733,3,3,0,0,1-.649-2.064,3.136,3.136,0,0,1,.657-2.123,2.414,2.414,0,0,1,1.876-.708,4.18,4.18,0,0,1,.793.085,2.578,2.578,0,0,1,.615.2l-.256.7a3.6,3.6,0,0,0-.6-.179,2.455,2.455,0,0,0-.573-.077c-1.107,0-1.7.708-1.7,2.132a2.56,2.56,0,0,0,.4,1.544,1.425,1.425,0,0,0,1.211.537,3.669,3.669,0,0,0,1.4-.29v.733A3.012,3.012,0,0,1,4568.653-658.321Z" transform="translate(-4490.016 700.899)" fill="#869ab8"></path><path d="M4603.352-661.2a3,3,0,0,1-.674,2.089,2.362,2.362,0,0,1-1.86.75,2.556,2.556,0,0,1-1.3-.341,2.306,2.306,0,0,1-.913-1.023,3.485,3.485,0,0,1-.307-1.509,3.015,3.015,0,0,1,.666-2.081,2.34,2.34,0,0,1,1.893-.674,2.32,2.32,0,0,1,1.825.768A3.038,3.038,0,0,1,4603.352-661.2Zm-4.17,0a2.559,2.559,0,0,0,.427,1.595,1.431,1.431,0,0,0,1.228.554,1.483,1.483,0,0,0,1.236-.546,2.6,2.6,0,0,0,.418-1.6,2.561,2.561,0,0,0-.418-1.586,1.493,1.493,0,0,0-1.247-.537,1.466,1.466,0,0,0-1.227.529A2.557,2.557,0,0,0,4599.182-661.2Z" transform="translate(-4517.407 700.936)" fill="#869ab8"></path><path d="M4648.765-658.864v-3.556a1.485,1.485,0,0,0-.281-.981,1.1,1.1,0,0,0-.854-.324,1.4,1.4,0,0,0-1.143.443,2.1,2.1,0,0,0-.365,1.364v3.053h-.855v-3.556a1.479,1.479,0,0,0-.281-.981,1.1,1.1,0,0,0-.854-.324,1.34,1.34,0,0,0-1.143.469,2.563,2.563,0,0,0-.357,1.527v2.865h-.853v-5.466h.716l.127.75h0a1.572,1.572,0,0,1,.667-.622,1.954,1.954,0,0,1,.956-.23,1.629,1.629,0,0,1,1.662.9h0a1.716,1.716,0,0,1,.708-.674,2.133,2.133,0,0,1,1.057-.256,1.871,1.871,0,0,1,1.392.478,2.142,2.142,0,0,1,.46,1.526v3.565Z" transform="translate(-4554.48 701.339)" fill="#869ab8"></path><path d="M4708.09-658.562a2.462,2.462,0,0,1-.98-.2,1.951,1.951,0,0,1-.743-.605h-.059a6.36,6.36,0,0,1,.059.9v2.251h-.852v-7.923h.692l.119.751h0a1.865,1.865,0,0,1,.748-.648,2.214,2.214,0,0,1,.975-.2,2.014,2.014,0,0,1,1.706.75,3.944,3.944,0,0,1,0,4.17A2.009,2.009,0,0,1,4708.09-658.562Zm-.12-4.963a1.489,1.489,0,0,0-1.218.46,2.4,2.4,0,0,0-.386,1.475v.188a2.717,2.717,0,0,0,.386,1.646,1.475,1.475,0,0,0,1.236.5,1.281,1.281,0,0,0,1.109-.58,2.741,2.741,0,0,0,.4-1.578,2.649,2.649,0,0,0-.4-1.569A1.308,1.308,0,0,0,4707.97-663.525Z" transform="translate(-4608.806 701.139)" fill="#869ab8"></path><path d="M4748.563-658.231l-.163-.776h0a2.442,2.442,0,0,1-.853.7,2.563,2.563,0,0,1-1.014.179,1.825,1.825,0,0,1-1.28-.418,1.548,1.548,0,0,1-.461-1.194c0-1.1.854-1.706,2.654-1.706h.92v-.341a1.36,1.36,0,0,0-.274-.947,1.142,1.142,0,0,0-.852-.307,3.562,3.562,0,0,0-1.543.418l-.257-.631a3.825,3.825,0,0,1,1.852-.469,2.129,2.129,0,0,1,1.449.426,1.832,1.832,0,0,1,.47,1.4v3.726Zm-1.869-.58a1.7,1.7,0,0,0,1.212-.427,1.556,1.556,0,0,0,.443-1.185v-.495h-.853a3.071,3.071,0,0,0-1.425.307.923.923,0,0,0-.435.853.858.858,0,0,0,.273.682A1.091,1.091,0,0,0,4746.693-658.81Z" transform="translate(-4642.285 700.706)" fill="#869ab8"></path><path d="M4789.135-658.423v-3.539a1.481,1.481,0,0,0-.3-1,1.268,1.268,0,0,0-.954-.324,1.571,1.571,0,0,0-1.255.461,2.3,2.3,0,0,0-.4,1.535v2.865h-.853v-5.466h.674l.17.793h0a1.715,1.715,0,0,1,.716-.631,2.372,2.372,0,0,1,1.023-.222,2.079,2.079,0,0,1,1.484.478,2.025,2.025,0,0,1,.5,1.526v3.565Z" transform="translate(-4676.878 700.899)" fill="#869ab8"></path><path d="M4821.6-663.513h.854l1.192,3.121a10.783,10.783,0,0,1,.486,1.535h.042a4.425,4.425,0,0,1,.275-.853c.136-.4.588-1.706,1.355-3.786h.854l-2.355,6.225a3.185,3.185,0,0,1-.81,1.313,1.707,1.707,0,0,1-1.143.384,3.186,3.186,0,0,1-.751-.085v-.665a2.662,2.662,0,0,0,.615.06,1.251,1.251,0,0,0,1.209-.955l.309-.776Z" transform="translate(-4707.76 700.522)" fill="#869ab8"></path></g></g></g></svg>