<svg xmlns="http://www.w3.org/2000/svg" width="68" height="60" viewBox="0 0 68 60"><g transform="translate(-1316 -192)"><g transform="translate(1316 192)" fill="#fff" stroke="#707070" stroke-width="1" opacity="0"><rect width="68" height="60" stroke="none"></rect><rect x="0.5" y="0.5" width="67" height="59" fill="none"></rect></g><g transform="translate(1327 199)" style="isolation:isolate"><path d="M54.3,91.6c.2.09.334.156.472.209a38.421,38.421,0,0,0,6.659,1.9,43.166,43.166,0,0,0,7.338.759,40.546,40.546,0,0,0,5.552-.3c.532-.062.558-.085.558-.663q0-17.639,0-35.278a5.346,5.346,0,0,0-.1-1.048,5.739,5.739,0,0,0-5.811-4.734H34.079a9.125,9.125,0,0,0-.932.045,5.7,5.7,0,0,0-5.2,5.753q0,20.182-.01,40.364c0,.419.116.516.524.516q20.272-.016,40.543-.011a5.951,5.951,0,0,0,1.329-.139,5.606,5.606,0,0,0,2.6-1.336c-.692.051-1.321.093-1.95.144a40.435,40.435,0,0,1-7.48-.13,44.386,44.386,0,0,1-7.758-1.5,33.29,33.29,0,0,1-9.466-4.278c-.676-.455-1.309-.973-1.984-1.478a5.022,5.022,0,0,0,.282,1.1c-1.832,0-3.635,0-5.439,0-.179,0-.219-.084-.256-.235a8.176,8.176,0,0,1-.073-1.347,5.744,5.744,0,0,1-1.6,1.254,7.2,7.2,0,0,1-4.626.6,3.937,3.937,0,0,1-3.072-2.2,5.288,5.288,0,0,1-.379-2.936,4.734,4.734,0,0,1,2.034-3.578,10.111,10.111,0,0,1,4.2-1.408c.973-.163,1.959-.25,2.918-.494a1.492,1.492,0,0,0,1.2-1.677c-.023-.64-.45-1.029-1.274-1.187a2.7,2.7,0,0,0-.768-.032,1.844,1.844,0,0,0-1.864,1.5c-.06.218-.187.191-.331.191-1.52,0-3.039-.007-4.559.007-.3,0-.377-.1-.329-.374a5.329,5.329,0,0,1,3.683-4.444,13.589,13.589,0,0,1,4.972-.578,8.374,8.374,0,0,1,4.037.9c.186.106.273-.014.38-.108a14.848,14.848,0,0,1,2.283-1.613,25.72,25.72,0,0,1,8.406-2.99c.151-.028.314-.126.383.169s-.108.321-.285.366a23.851,23.851,0,0,0-4.277,1.509,15.2,15.2,0,0,0-5.275,3.776.549.549,0,0,0-.115.68,3.927,3.927,0,0,1,.233.941,17.687,17.687,0,0,1,.086,1.869c.171-.347.3-.642.458-.927a8.413,8.413,0,0,1,4.366-4,8.864,8.864,0,0,1,5.385-.26,6,6,0,0,1,3.49,2.143,7.829,7.829,0,0,1,1.072,2,.678.678,0,0,0,.08-.134,4.983,4.983,0,0,1,3.115-3.5A10.9,10.9,0,0,1,70.164,75a4.358,4.358,0,0,1,3.523,4.39c0,.293-.062.4-.381.394q-2.048-.027-4.1,0c-.393.005-.593-.032-.736-.506a1.975,1.975,0,0,0-3.083-.829,1,1,0,0,0,.314,1.8,6.093,6.093,0,0,0,.9.256,27.274,27.274,0,0,1,3.961,1.02,4.562,4.562,0,0,1,2.56,2.075,4.734,4.734,0,0,1,.415,2.8,5.48,5.48,0,0,1-3.405,4.679,11.191,11.191,0,0,1-6.759.618,6.036,6.036,0,0,1-3.557-1.961,6.261,6.261,0,0,1-.885-1.574A8.073,8.073,0,0,1,54.3,91.6Zm2.735-6.764H53.823c-1.356,0-2.712,0-4.068.005-.129,0-.363-.109-.349.18A2.885,2.885,0,0,0,50.487,87.4a2.849,2.849,0,0,0,4.076-1.022.782.782,0,0,1,.829-.519c2.752.022,5.5.016,8.257,0,.315,0,.433.049.446.408a1.673,1.673,0,0,0,1.023,1.583,2.566,2.566,0,0,0,2.485-.24,1.105,1.105,0,0,0-.151-1.991,8.934,8.934,0,0,0-3.337-.776C61.756,84.785,59.4,84.831,57.036,84.831ZM74.563,95.16A41.9,41.9,0,0,1,51.7,92.6a.88.88,0,0,0,.442.3,39.085,39.085,0,0,0,8.817,2.977,45.358,45.358,0,0,0,6.462.9,44.063,44.063,0,0,0,6.1,0,.392.392,0,0,0,.341-.172A4.876,4.876,0,0,0,74.563,95.16ZM36.486,88.144A2.4,2.4,0,0,0,38.754,86.6a7.96,7.96,0,0,0,.372-2.349c.029-.268-.166-.131-.271-.08a9.7,9.7,0,0,1-1.953.66,6.579,6.579,0,0,0-1.077.351,1.561,1.561,0,0,0-.963,1.815A1.6,1.6,0,0,0,36.486,88.144ZM52.32,81.308c.8,0,1.6-.009,2.4.005.254,0,.317-.083.319-.327a2.353,2.353,0,0,0-2.928-2.4A3.084,3.084,0,0,0,49.7,81.1c-.078.28.131.208.257.209C50.746,81.311,51.533,81.308,52.32,81.308Z" transform="translate(-27.939 -52.439)" fill="#869ab8"></path><path d="M54.3,91.6a8.073,8.073,0,0,0,4.628-3.435,6.261,6.261,0,0,0,.885,1.574A6.036,6.036,0,0,0,63.371,91.7a11.191,11.191,0,0,0,6.759-.618A5.48,5.48,0,0,0,73.536,86.4a4.734,4.734,0,0,0-.415-2.8,4.562,4.562,0,0,0-2.56-2.075A27.273,27.273,0,0,0,66.6,80.5a6.093,6.093,0,0,1-.9-.256,1,1,0,0,1-.314-1.8,1.975,1.975,0,0,1,3.083.829c.143.474.343.511.736.506q2.048-.028,4.1,0c.319,0,.383-.1.381-.394A4.358,4.358,0,0,0,70.164,75a10.9,10.9,0,0,0-7.319.36,4.983,4.983,0,0,0-3.115,3.5.678.678,0,0,1-.08.134,7.829,7.829,0,0,0-1.072-2,6,6,0,0,0-3.49-2.143,8.864,8.864,0,0,0-5.385.26,8.413,8.413,0,0,0-4.366,4c-.154.285-.287.58-.458.927a17.687,17.687,0,0,0-.086-1.869,3.927,3.927,0,0,0-.233-.941.549.549,0,0,1,.115-.68,15.2,15.2,0,0,1,5.275-3.776,23.851,23.851,0,0,1,4.277-1.509c.178-.044.357-.062.285-.366s-.232-.2-.383-.169a25.721,25.721,0,0,0-8.406,2.99,14.849,14.849,0,0,0-2.283,1.613c-.107.094-.193.213-.38.108a8.374,8.374,0,0,0-4.037-.9,13.589,13.589,0,0,0-4.972.578,5.329,5.329,0,0,0-3.683,4.444c-.047.278.029.377.329.374,1.52-.014,3.039-.006,4.559-.007.144,0,.272.027.331-.191a1.844,1.844,0,0,1,1.864-1.5,2.7,2.7,0,0,1,.768.032c.824.157,1.251.547,1.274,1.187a1.492,1.492,0,0,1-1.2,1.677c-.959.244-1.945.331-2.918.494a10.111,10.111,0,0,0-4.2,1.408,4.734,4.734,0,0,0-2.034,3.578,5.288,5.288,0,0,0,.379,2.936,3.937,3.937,0,0,0,3.072,2.2,7.2,7.2,0,0,0,4.626-.6,5.744,5.744,0,0,0,1.6-1.254,8.176,8.176,0,0,0,.073,1.347c.037.151.077.235.256.235,1.8-.005,3.607,0,5.439,0a5.023,5.023,0,0,1-.282-1.1c.675.505,1.308,1.023,1.984,1.478a33.29,33.29,0,0,0,9.466,4.278,44.386,44.386,0,0,0,7.758,1.5,40.435,40.435,0,0,0,7.48.13c.628-.051,1.258-.093,1.95-.144a5.606,5.606,0,0,1-2.6,1.336,5.951,5.951,0,0,1-1.329.139q-20.272,0-40.543.011c-.408,0-.524-.1-.524-.516q.017-20.182.01-40.364a5.7,5.7,0,0,1,5.2-5.753,9.125,9.125,0,0,1,.932-.045H68.964a5.739,5.739,0,0,1,5.812,4.734,5.345,5.345,0,0,1,.1,1.048q.008,17.639,0,35.278c0,.578-.027.6-.558.663a40.546,40.546,0,0,1-5.552.3,43.166,43.166,0,0,1-7.338-.759,38.421,38.421,0,0,1-6.659-1.9C54.635,91.751,54.5,91.685,54.3,91.6ZM73.362,72.653a1.6,1.6,0,0,0-1.6-1.643,1.664,1.664,0,0,0-1.653,1.62,1.584,1.584,0,0,0,1.629,1.65A1.628,1.628,0,0,0,73.362,72.653Z" transform="translate(-27.939 -52.439)" fill="#869ab8"></path><path d="M299.009,449.793c2.359,0,4.72-.046,7.077.02a8.937,8.937,0,0,1,3.337.776,1.105,1.105,0,0,1,.151,1.991,2.566,2.566,0,0,1-2.485.24,1.673,1.673,0,0,1-1.023-1.583c-.012-.36-.13-.41-.446-.408-2.752.011-5.5.017-8.257,0a.782.782,0,0,0-.829.519,2.849,2.849,0,0,1-4.076,1.022,2.886,2.886,0,0,1-1.081-2.387c-.014-.289.221-.179.349-.18,1.356-.008,2.712-.005,4.068-.005Z" transform="translate(-269.911 -417.401)" fill="#869ab8"></path><path d="M342.437,547.918a4.881,4.881,0,0,1-.694,1.443.392.392,0,0,1-.341.172,44.073,44.073,0,0,1-6.1,0,45.356,45.356,0,0,1-6.462-.9,39.093,39.093,0,0,1-8.817-2.977.88.88,0,0,1-.442-.3A41.894,41.894,0,0,0,342.437,547.918Z" transform="translate(-295.813 -505.197)" fill="#869ab8"></path><path d="M114.055,444.891a1.6,1.6,0,0,1-1.624-1.151,1.561,1.561,0,0,1,.963-1.815,6.577,6.577,0,0,1,1.077-.351,9.691,9.691,0,0,0,1.953-.66c.1-.051.3-.188.271.08a7.958,7.958,0,0,1-.372,2.349A2.4,2.4,0,0,1,114.055,444.891Z" transform="translate(-105.508 -409.187)" fill="#869ab8"></path><path d="M297.444,375.4c-.787,0-1.574,0-2.36,0-.127,0-.336.071-.257-.209a3.084,3.084,0,0,1,2.41-2.509,2.354,2.354,0,0,1,2.928,2.4c0,.244-.065.331-.319.327C299.045,375.394,298.244,375.4,297.444,375.4Z" transform="translate(-273.063 -346.534)" fill="#869ab8"></path><path d="M548.683,281.987a1.628,1.628,0,0,1-1.626,1.627,1.583,1.583,0,0,1-1.629-1.65,1.664,1.664,0,0,1,1.652-1.62A1.6,1.6,0,0,1,548.683,281.987Zm-1.616-1.362a1.347,1.347,0,0,0-.021,2.693,1.353,1.353,0,0,0,1.382-1.347A1.3,1.3,0,0,0,547.068,280.624Z" transform="translate(-503.261 -261.773)" fill="#869ab8"></path><path d="M550.291,283.788a1.3,1.3,0,0,1,1.361,1.346,1.353,1.353,0,0,1-1.382,1.347,1.347,1.347,0,0,1,.021-2.693Zm-.66,1.349h.02c0,.134,0,.267,0,.4s-.016.269-.018.4.05.188.2.183c.133,0,.212-.035.219-.172.007-.122,0-.244.005-.366,0-.084.013-.172.1-.2s.143.05.183.124c.071.13.145.26.215.39.1.194.31.3.47.2.2-.121-.027-.271-.094-.391-.13-.231-.283-.407-.027-.694a.514.514,0,0,0-.3-.779,1.263,1.263,0,0,0-.91.008c-.152.075-.039.4-.043.605C549.645,284.95,549.636,285.043,549.63,285.137Z" transform="translate(-506.484 -264.937)" fill="#869ab8"></path><path d="M557.218,289.359c.006-.094.015-.187.017-.28,0-.21-.109-.53.043-.605a1.262,1.262,0,0,1,.91-.008.514.514,0,0,1,.3.779c-.256.287-.1.463.027.694.067.12.292.269.095.391-.16.1-.365-.009-.47-.2-.071-.131-.144-.26-.215-.39-.04-.073-.087-.15-.183-.124s-.1.113-.1.2c0,.122,0,.244-.005.366s-.086.168-.219.172c-.148,0-.2-.052-.2-.183s.015-.269.018-.4,0-.267,0-.4Zm.617-.683c-.233.036-.119.227-.14.353-.026.15.041.227.205.215a.252.252,0,0,0,.25-.3C558.14,288.764,558.011,288.689,557.835,288.676Z" transform="translate(-514.071 -269.159)" fill="#869ab8"></path><path d="M563.325,291.96c.176.014.3.088.315.264a.252.252,0,0,1-.25.3c-.164.012-.231-.065-.205-.215C563.206,292.187,563.092,292,563.325,291.96Z" transform="translate(-519.561 -272.443)" fill="#869ab8"></path></g></g></svg>