<svg xmlns="http://www.w3.org/2000/svg" width="127.521" height="35.79" viewBox="0 0 127.521 35.79"><g transform="translate(-2186 -204)"><g transform="translate(2186 204)"><path d="M35.8,18.888A17.9,17.9,0,1,1,17.9,1,17.9,17.9,0,0,1,35.8,18.888v0" transform="translate(-0.005 -1)" fill="#869ab8"></path><path d="M48.751,35.462,44.458,32.71A2.872,2.872,0,0,0,43,32.237l1.859-10.565a2.331,2.331,0,0,0-4.507-1.19.215.215,0,0,0-.015.1L38,28.677l-2.325-8.053a2.332,2.332,0,1,0-4.594.809c.016.065.033.127.048.175l1.751,9.975-2.629,1.383h0l-3.147,1.651a.893.893,0,0,0-.365,1.213l2.183,4.11a2.807,2.807,0,0,0,2.464,1.526,2.545,2.545,0,0,0,2.432-1.751,2.813,2.813,0,0,0,.716.1,2.516,2.516,0,0,0,1.2-.315,2.725,2.725,0,0,0,1.056-3.71L34.736,31.9,32.815,21.258a.613.613,0,0,1,.412-.75.631.631,0,0,1,.716.538l3.178,11.04V32.1a.2.2,0,0,1,.032.1.085.085,0,0,0,.032.063c.015.032.032.048.048.08a.193.193,0,0,0,.048.063l.063.065.065.063a.32.32,0,0,0,.08.048c.015.015.048.032.063.048s.048.015.08.032a.25.25,0,0,0,.1.032h.007a.1.1,0,0,1,.065.015.2.2,0,0,0,.1.015h.175c.03,0,.063-.015.1-.015l.048-.015h.022a.215.215,0,0,1,.1-.032l.065-.032c.03-.015.048-.032.08-.048a.193.193,0,0,0,.063-.048l.063-.063.048-.048c.017-.032.032-.048.05-.08a.288.288,0,0,0,.037-.075.12.12,0,0,1,.03-.063.2.2,0,0,0,.032-.1v-.015L42,21.005a.6.6,0,0,1,.7-.5.616.616,0,0,1,.4.793l-2,11.483a3.105,3.105,0,0,0-.778.809,3,3,0,0,0,.874,4.13h0l3.53,2.272-.91,1.4A7.416,7.416,0,0,1,38.5,44.6a8.018,8.018,0,0,1-6.31-1.731.883.883,0,0,0-1.251.063A.9.9,0,0,0,31,44.182a9.557,9.557,0,0,0,6.327,2.269,10.356,10.356,0,0,0,1.415-.1,9.177,9.177,0,0,0,6.579-4l1.351-2.079c.015-.017.03-.048.048-.065l1.8-2.779.475-.731a.876.876,0,0,0-.25-1.251m-16.62,3.629a.828.828,0,0,1-.4.526.75.75,0,0,1-.365.1,1.053,1.053,0,0,1-.891-.573l-1.748-3.32,1.559-.826,1.747,3.32A1.086,1.086,0,0,1,32.124,39.082Zm2.73-1.126a.75.75,0,0,1-.365.1,1.061,1.061,0,0,1-.891-.573l-1.759-3.319,1.556-.826,1.766,3.32a.95.95,0,0,1-.3,1.3Zm12.1-1.369-1.242,1.907L42.18,36.207A1.205,1.205,0,0,1,43.5,34.191l3.52,2.287Z" transform="translate(-19.986 -14.27)" fill="#fff"></path><path d="M169.629,48.76h1.67a5.156,5.156,0,0,1,3.22.88,3.061,3.061,0,0,1,1.135,2.58,2.831,2.831,0,0,1-.481,1.6,2.741,2.741,0,0,1-1.283,1.058,3.321,3.321,0,0,1,.924.467,3.393,3.393,0,0,1,.759.759,3.821,3.821,0,0,1,.506.988,3.538,3.538,0,0,1,.186,1.112,3.421,3.421,0,0,1-1.2,2.817,5.34,5.34,0,0,1-3.462.988h-1.82c-.735,0-1.631-.025-2.66-.053l-.133-.119v-12.9l.133-.108S168.941,48.774,169.629,48.76Zm-.128,1.831v3.5h1.67c1.269,0,1.912-.587,1.912-1.761a1.8,1.8,0,0,0-.278-1.1,1.35,1.35,0,0,0-.773-.492,4.308,4.308,0,0,0-1.164-.122c-.441.014-.894,0-1.37-.025ZM171.384,56H169.5v4.174h1.756a6.347,6.347,0,0,0,.9-.081,1.618,1.618,0,0,0,.773-.32,1.784,1.784,0,0,0,.535-.654,2.265,2.265,0,0,0,.2-1.027,2.181,2.181,0,0,0-.133-.776,1.736,1.736,0,0,0-.4-.7,1.967,1.967,0,0,0-.693-.454A2.9,2.9,0,0,0,171.386,56Z" transform="translate(-125.218 -37.823)" fill="#869ab8"></path><path d="M210.686,66.695H205.4a3.172,3.172,0,0,0,.478,1.67,1.733,1.733,0,0,0,1.5.6,6.181,6.181,0,0,0,2.541-.654,2.7,2.7,0,0,1,.708,1.491,6.3,6.3,0,0,1-3.673,1.112,3.765,3.765,0,0,1-3.076-1.255,5.705,5.705,0,0,1-1.04-3.727,7.22,7.22,0,0,1,.278-2.085,4.751,4.751,0,0,1,.788-1.589,3.417,3.417,0,0,1,1.269-1.029,4,4,0,0,1,1.712-.373,4.731,4.731,0,0,1,1.719.3,3.538,3.538,0,0,1,1.272.835,3.618,3.618,0,0,1,.773,1.294,4.792,4.792,0,0,1,.253,1.631,6.615,6.615,0,0,1-.053.91,7.878,7.878,0,0,1-.148.883m-3.7-4.021c-.988,0-1.523.748-1.6,2.257h3.181v-.225a2.5,2.5,0,0,0-.4-1.478,1.327,1.327,0,0,0-1.18-.562Z" transform="translate(-151.082 -46.553)" fill="#869ab8"></path><path d="M234.76,61.76l1.011-13.008a10.145,10.145,0,0,1,1.7-.133,9.741,9.741,0,0,1,1.67.133l1.476,5.307c.4,1.578.64,2.671.735,3.273h.133c.092-.6.334-1.694.735-3.273l1.456-5.3a11.035,11.035,0,0,1,3.37,0l1.011,13.008a4.664,4.664,0,0,1-1.227.133,7.327,7.327,0,0,1-1.205-.081l-.373-6.131c-.108-1.575-.162-2.964-.148-4.155h-.133l-2.245,8.321a9.6,9.6,0,0,1-2.619,0l-2.246-8.34h-.133c-.025,1.564-.081,2.952-.148,4.155l-.359,6.142a8.733,8.733,0,0,1-1.205.081,4.678,4.678,0,0,1-1.227-.133" transform="translate(-174.128 -37.721)" fill="#869ab8"></path><path d="M291.942,61.624,289.495,70.6a8.769,8.769,0,0,1-1.6,3.365,3.653,3.653,0,0,1-2.9,1.1,6.186,6.186,0,0,1-2.084-.362,2.349,2.349,0,0,1,.119-.963,2.278,2.278,0,0,1,.4-.835,5.344,5.344,0,0,0,1.589.278c.977,0,1.67-.654,2.074-1.948l.081-.253a2.274,2.274,0,0,1-1.15-.278,1.361,1.361,0,0,1-.59-.835l-2.377-8.307a3.336,3.336,0,0,1,1.391-.362,1.45,1.45,0,0,1,.91.242,1.67,1.67,0,0,1,.467.854l1.094,4.032c.081.3.278,1.175.557,2.658a.148.148,0,0,0,.162.133h0l1.887-7.744a5.079,5.079,0,0,1,1.112-.122,3.874,3.874,0,0,1,1.23.189l.067.173" transform="translate(-208.871 -46.798)" fill="#869ab8"></path><path d="M323.253,54.259l2.977-.025c1.175,0,1.764.557,1.764,1.628v5.01a15.247,15.247,0,0,1-5.01.8,5.844,5.844,0,0,1-2.421-.481,4.659,4.659,0,0,1-1.737-1.364A6,6,0,0,1,317.8,57.7a10.1,10.1,0,0,1-.345-2.75,8.486,8.486,0,0,1,.492-3.061,6.368,6.368,0,0,1,1.327-2.134,5.135,5.135,0,0,1,1.9-1.255,6.253,6.253,0,0,1,2.277-.415,7.834,7.834,0,0,1,4.494,1.367,2.413,2.413,0,0,1-.415,1.08,2.783,2.783,0,0,1-.773.8,5.51,5.51,0,0,0-3.22-1.094q-3.448,0-3.448,4.686c0,3.125,1.135,4.689,3.42,4.689a9.431,9.431,0,0,0,2.031-.228v-1.7c0-.278,0-.521.014-.735s0-.387.025-.534h-1.294a1.391,1.391,0,0,1-.949-.278,1.139,1.139,0,0,1-.278-.854,4.333,4.333,0,0,1,.2-1.043" transform="translate(-233.807 -37.338)" fill="#869ab8"></path><path d="M358.53,67.882V63.689a3.382,3.382,0,0,0-.4-1.815,2.209,2.209,0,0,1,1.469-.534,1.388,1.388,0,0,1,1.135.387,1.9,1.9,0,0,1,.309,1.188v4.448a2.337,2.337,0,0,0,.214,1.175.835.835,0,0,0,.788.362,2.649,2.649,0,0,0,1.893-.888V61.487a5.334,5.334,0,0,1,1.23-.1,6.653,6.653,0,0,1,1.269.1v6.8a1.994,1.994,0,0,0,.534,1.589,2.635,2.635,0,0,1-.333.708,1.3,1.3,0,0,1-2.455-.809,4.408,4.408,0,0,1-3.047,1.375,2.277,2.277,0,0,1-1.948-.894,3.985,3.985,0,0,1-.668-2.379" transform="translate(-263.165 -46.901)" fill="#869ab8"></path><path d="M400.419,66.694h-5.291a3.062,3.062,0,0,0,.5,1.671,1.73,1.73,0,0,0,1.5.6,6.167,6.167,0,0,0,2.544-.668,2.685,2.685,0,0,1,.708,1.505,6.3,6.3,0,0,1-3.676,1.112,3.718,3.718,0,0,1-3.061-1.255,5.787,5.787,0,0,1-1.043-3.727,7.316,7.316,0,0,1,.278-2.085,4.807,4.807,0,0,1,.791-1.589,3.509,3.509,0,0,1,1.269-1.029,3.943,3.943,0,0,1,1.709-.373,4.731,4.731,0,0,1,1.726.3,3.528,3.528,0,0,1,1.269.835,3.579,3.579,0,0,1,.777,1.294,4.808,4.808,0,0,1,.254,1.631,7.084,7.084,0,0,1-.053.91c-.053.309-.108.6-.175.883m-3.709-4.03c-1,0-1.536.748-1.6,2.257H398.3V64.7a2.5,2.5,0,0,0-.389-1.469,1.342,1.342,0,0,0-1.188-.557Z" transform="translate(-288.041 -46.553)" fill="#869ab8"></path><path d="M424.3,70a2.865,2.865,0,0,1,.242-.935,2.629,2.629,0,0,1,.506-.8,5.674,5.674,0,0,0,2.66.835,1.871,1.871,0,0,0,1.029-.253.76.76,0,0,0,.387-.668c0-.44-.348-.8-1.03-1.069l-1.069-.4c-1.6-.587-2.4-1.523-2.4-2.817a3,3,0,0,1,.253-1.23,2.627,2.627,0,0,1,.729-.943,3.313,3.313,0,0,1,1.112-.6,4.931,4.931,0,0,1,1.445-.211,8.026,8.026,0,0,1,.816.053c.3.039.615.092.91.159a8.345,8.345,0,0,1,.883.242,5.182,5.182,0,0,1,.735.292,2.711,2.711,0,0,1-.189.988,1.633,1.633,0,0,1-.521.762,6.76,6.76,0,0,0-2.619-.668,1.2,1.2,0,0,0-.788.24.809.809,0,0,0-.3.629c0,.4.319.708.963.935l1.166.426a4.008,4.008,0,0,1,1.873,1.2,2.808,2.808,0,0,1,.632,1.778,2.663,2.663,0,0,1-1.027,2.171,4.483,4.483,0,0,1-2.914.835,6.957,6.957,0,0,1-3.49-.935" transform="translate(-310.921 -46.591)" fill="#869ab8"></path><path d="M458.319,54.22a3.417,3.417,0,0,1,0,1.8l-2.312-.041v5.034c0,.59.278.883.835.883h1.188a3.314,3.314,0,0,1,.189,1.1,2.8,2.8,0,0,1-.056.668,16.615,16.615,0,0,1-2.3.173,2.041,2.041,0,0,1-2.3-2.325V56.023h-1.456a4.1,4.1,0,0,1,0-1.8h1.456V52.831a1.82,1.82,0,0,1,.309-1.188,1.391,1.391,0,0,1,1.054-.348h.963l.133.122v2.852l2.3-.039" transform="translate(-330.919 -39.647)" fill="#869ab8"></path></g></g></svg>