<svg xmlns="http://www.w3.org/2000/svg" width="130" height="60" viewBox="0 0 130 60"><g transform="translate(-85 -192)"><g transform="translate(85 192)" fill="#fff" stroke="#707070" stroke-width="1" opacity="0"><rect width="130" height="60" stroke="none"></rect><rect x="0.5" y="0.5" width="129" height="59" fill="none"></rect></g><g transform="translate(86 209)"><g transform="translate(0 0)"><path d="M172.527-56.572a4.745,4.745,0,0,1-2.746.925,4.12,4.12,0,0,1-3.044-1.223,4.163,4.163,0,0,1-1.217-3.062,4.062,4.062,0,0,1,1.14-2.969,3.889,3.889,0,0,1,2.9-1.162,5.4,5.4,0,0,1,2.966.948Zm0-7.733a6.69,6.69,0,0,0-3.011-.815,4.937,4.937,0,0,0-3.681,1.5,5.152,5.152,0,0,0-1.467,3.757,5.162,5.162,0,0,0,1.489,3.751,4.911,4.911,0,0,0,3.658,1.526,5.094,5.094,0,0,0,3.011-.991v.793h1.1V-70.177h-1.1Zm-33.94,7.733a4.743,4.743,0,0,1-2.745.925A4.12,4.12,0,0,1,132.8-56.87a4.164,4.164,0,0,1-1.218-3.062,4.062,4.062,0,0,1,1.14-2.969,3.89,3.89,0,0,1,2.9-1.162,5.4,5.4,0,0,1,2.966.948Zm0-7.733a6.688,6.688,0,0,0-3.011-.815,4.939,4.939,0,0,0-3.681,1.5,5.153,5.153,0,0,0-1.466,3.757,5.163,5.163,0,0,0,1.489,3.751,4.912,4.912,0,0,0,3.658,1.526,5.093,5.093,0,0,0,3.011-.991v.793h1.1V-70.177h-1.1Zm41.2,8.185a4.883,4.883,0,0,1-.239-1.911v-6.025H182.4v-.881h-2.856V-68.3s-1.085.027-1.085,1.423v1.936h-2.745v.881h2.745v7.292a1.968,1.968,0,0,0,.675,1.586,2.513,2.513,0,0,0,1.683.573,4.818,4.818,0,0,0,2.1-.518v-1.035a4.522,4.522,0,0,1-1.859.5q-1.041,0-1.278-.457Zm-25.2-.313,0,0a1.634,1.634,0,0,1-.4.773,1.621,1.621,0,0,1-.409-.757l-2.359-7.056c-.4-1.2-.964-1.458-1.367-1.458s-.964.255-1.367,1.458l-2.359,7.056a1.619,1.619,0,0,1-.408.757,1.634,1.634,0,0,1-.4-.773l0,0-2.644-8.5h-1.056l2.738,8.8v0c.383,1.227.946,1.49,1.351,1.494h.01c.4,0,.964-.255,1.367-1.458l2.359-7.057a1.623,1.623,0,0,1,.408-.757h0a1.624,1.624,0,0,1,.408.757L152.82-56.1c.4,1.2.964,1.458,1.367,1.458h.007c.408,0,.971-.267,1.354-1.494v0l2.738-8.8-1.054-.007Zm-40.035-.375a4.272,4.272,0,0,1-2.834,1.311,2.158,2.158,0,0,1-1.439-.485,1.5,1.5,0,0,1-.575-1.19,2.373,2.373,0,0,1,1.378-2.065,6.294,6.294,0,0,1,3.47-.732ZM115.89-55.7q-.243,0-.243-.518v-6.277a2.314,2.314,0,0,0-.9-1.966,3.676,3.676,0,0,0-2.28-.678,6.24,6.24,0,0,0-3.288,1.079v1.112a5.23,5.23,0,0,1,3.111-1.289q2.258,0,2.258,2.071v1.289a9.3,9.3,0,0,0-4.394,1.1,2.931,2.931,0,0,0-1.538,2.6,2.4,2.4,0,0,0,.8,1.817,2.739,2.739,0,0,0,1.949.749,5.181,5.181,0,0,0,3.188-1.256,2.794,2.794,0,0,0,.21,1.008.542.542,0,0,0,.5.248h.038a4.85,4.85,0,0,0,2.044-.517v-1.041a5.227,5.227,0,0,1-1.455.466ZM192.9-64.035a3.594,3.594,0,0,0-2.756-1.1,3.85,3.85,0,0,0-3.353,1.961h-.045v-7.017h-1.085V-54.8h1.085v-7.1a3.9,3.9,0,0,1,3.331-2.17q2.767,0,2.767,3.5V-54.8h1.084v-6.2A4.263,4.263,0,0,0,192.9-64.035ZM160.493-68.3h1.1V-70.2h-1.1Zm0,13.494h1.1V-64.938h-1.1ZM124.208-65.136a3.851,3.851,0,0,0-3.354,1.961h-.044v-1.763h-1.085V-54.8h1.085v-7.1a3.836,3.836,0,0,1,3.332-2.17q2.767,0,2.767,3.5V-54.8h1.085v-6.179a4.293,4.293,0,0,0-1.03-3.051A3.592,3.592,0,0,0,124.208-65.136Zm-20.281,8.212a4.471,4.471,0,0,1-3.26,1.261,7.076,7.076,0,0,1-2.5-.474v-6.135a4.831,4.831,0,0,1,3.542-1.961,3.176,3.176,0,0,1,2.513,1.157,4.362,4.362,0,0,1,1,2.952A4.286,4.286,0,0,1,103.928-56.925Zm-2.086-8.212a5.036,5.036,0,0,0-3.675,1.652v-6.708H97.082v14.826a9.8,9.8,0,0,0,3.608.76,5.648,5.648,0,0,0,4.134-1.526,5.429,5.429,0,0,0,1.555-4.059,5.054,5.054,0,0,0-1.273-3.563,4.24,4.24,0,0,0-3.265-1.382" transform="translate(-66.393 74.948)" fill="#869ab8"></path><path d="M18.341-78.394c-.942-.2-1.055.29-.648,1.187,2.139,4.712.237,9.314-1.8,10.457a2.492,2.492,0,0,1-.054-.462c-.242-2.238-1.093-4.18-1.666-4.183-.454,0-.17,1.912-.293,3.607a2.7,2.7,0,0,0-2.024-.621c-1.159.2-2.691,2.643-2.748,2.293-.459-2.828.641-7.175,2.167-7.64.236-.094.648.266,1.578.614.724.271.634-.446.3-.714a3.493,3.493,0,0,0-3.72-.263c-2.3,1.115-3.338,6.211-2.1,8.291a3.253,3.253,0,0,0,2.3,1.585c1.539.176,2.006-.145,3.249-1.662a1.439,1.439,0,0,0,.587.284c-1.011,3.14-4.8,5.785-5.613,5.331-3.968-2.7-2.87-11.306-.068-18.881.455-1.231,1.206-3.409,1.365-4.2.414-2.044-2.165-2.435-3.933-.939C3.932-83.223,2.7-80.686,1.695-77.746-1.51-68.4-.147-60.5,5.59-58.784c6.6,1.969,9.74-2.136,10.229-6.265a8.861,8.861,0,0,0,1.216.062c2.044-.041,4.943-1.094,5.809-5.554.653-3.366-1.51-7.282-4.5-7.853" transform="translate(0 85.213)" fill="#869ab8" fill-rule="evenodd"></path></g></g></g></svg>