<svg xmlns="http://www.w3.org/2000/svg" width="82" height="60" viewBox="0 0 82 60"><g transform="translate(-23.569)"><g transform="translate(23.569)" fill="#fff" stroke="#707070" stroke-width="1" opacity="0"><rect width="82" height="60" stroke="none"></rect><rect x="0.5" y="0.5" width="81" height="59" fill="none"></rect></g><g transform="translate(31.786 2.695)"><path d="M-3547.718,2119.659a7.418,7.418,0,0,1,3.581.627,8.3,8.3,0,0,0,.716.448v-27.126h-5.641v26.052Z" transform="translate(3557.656 -2083.581)" fill="#869ab8" fill-rule="evenodd"></path><path d="M-3665,2063.706h1.164v-30.349h-5.73v31.691c.805-.8,2.238-1.343,4.566-1.343" transform="translate(3669.563 -2027.628)" fill="#869ab8" fill-rule="evenodd"></path><path d="M-3304.117,1989.1h.089a4.379,4.379,0,0,1,2.955.9v-36.973h-5.73V1989.1Z" transform="translate(3332.676 -1953.023)" fill="#869ab8" fill-rule="evenodd"></path><path d="M-3421.575,2042.144h-5.73v21.575h5.73Z" transform="translate(3444.583 -2035.788)" fill="#869ab8" fill-rule="evenodd"></path><path d="M-3055.138,2133.776h-5.64v23.187h5.64Z" transform="translate(3104.197 -2120.885)" fill="#869ab8" fill-rule="evenodd"></path><path d="M-3176.807,2030.847h-5.729v30.527h5.729Z" transform="translate(3217.271 -2025.297)" fill="#869ab8" fill-rule="evenodd"></path><path d="M-2933.47,2111.5h1.344v-26.678h-5.64v28.2c.806-1.074,2.149-1.522,4.3-1.522" transform="translate(2989.959 -2075.422)" fill="#869ab8" fill-rule="evenodd"></path><path d="M-2810.637,2012.416h.179v-34.288h-5.551v34.288Z" transform="translate(2876.885 -1976.337)" fill="#869ab8" fill-rule="evenodd"></path><path d="M-3655.24,2499.835v-1.7h-5.46v1.7h-2.238a.951.951,0,0,1-.805-.9v-5.819a.962.962,0,0,1,.895-.894h2.148v1.7h5.46v-2.417c0-1.075.09-2.508-1.343-3.312a6.6,6.6,0,0,0-2.954-.448h-5.551c-4.3,0-4.476,1.612-4.476,5.729v6.714c0,1.253.089,3.222,2.686,3.85a8.708,8.708,0,0,0,2.149.179h5.281c3.85,0,4.207-1.253,4.207-4.387Z" transform="translate(3669.563 -2449.613)" fill="#869ab8"></path><path d="M-3190.539,2501v-12h-5.729v12h-2.149c-.448-.09-.805-.357-.805-.8V2489h-7.162v4.387h1.432v8.057a4.231,4.231,0,0,0,1.253,3.223,4.931,4.931,0,0,0,3.133.716h11.549V2501Z" transform="translate(3239.418 -2450.778)" fill="#869ab8"></path><path d="M-2859.315,2544.235h-.626v.627a.612.612,0,0,1,.626-.627Z" transform="translate(2917.685 -2502.069)" fill="#869ab8"></path><path d="M-2827.306,2656.577h.627v-.626a.612.612,0,0,1-.627.626Z" transform="translate(2887.377 -2605.817)" fill="#869ab8"></path><path d="M-3438.257,2393.756h-2.059v-7.52h2.148c.448,0,.716.359.805.806v6a1.087,1.087,0,0,1-.895.716Zm6.536.089v-8.683a3.8,3.8,0,0,0-.448-2.417c-.717-.985-1.881-.985-2.865-1.074h-5.192v-8.147h-7.163V2378h1.433v15.757h-1.433v4.387h11.817c1.074,0,2.775,0,3.581-1.612a5.436,5.436,0,0,0,.269-2.687Z" transform="translate(3463.234 -2343.533)" fill="#869ab8"></path><path d="M-2926.042,2494.019V2489h-9.937c-3.133,0-4.3.806-4.3,3.94v3.312a1.535,1.535,0,0,0,1.164,1.522h0l7.52,1.7v1.969h-2.954V2500.2h-5.64v5.1h10.474c2.507,0,3.76-.627,3.67-3.85v-3.581a1.61,1.61,0,0,0-1.163-1.7h0l-7.341-1.791v-1.522h2.954v1.075h5.55Z" transform="translate(2992.29 -2450.778)" fill="#869ab8"></path></g></g></svg>