<svg xmlns="http://www.w3.org/2000/svg" width="130" height="60" viewBox="0 0 130 60"><g transform="translate(-385 -192)"><g transform="translate(385 192)" fill="#fff" stroke="#707070" stroke-width="1" opacity="0"><rect width="130" height="60" stroke="none"></rect><rect x="0.5" y="0.5" width="129" height="59" fill="none"></rect></g><g transform="translate(386.399 210.566)"><g transform="translate(0 0)"><path d="M16602.3,5275.652a3.551,3.551,0,1,1,3.553,3.549,3.552,3.552,0,0,1-3.553-3.549" transform="translate(-16482.197 -5255.396)" fill="#869ab8"></path><path d="M15777.118,5165.508a7.241,7.241,0,0,0-1.3-4.748,4.883,4.883,0,0,0-3.961-1.545h-1.887v13.052h1.445a5.3,5.3,0,0,0,4.331-1.666,7.893,7.893,0,0,0,1.375-5.093m6.729-.222a11.852,11.852,0,0,1-3.308,8.985,12.922,12.922,0,0,1-9.291,3.157h-7.761v-23.3h8.3a12.734,12.734,0,0,1,8.915,2.87,10.647,10.647,0,0,1,3.141,8.288" transform="translate(-15763.487 -5154.016)" fill="#869ab8"></path><path d="M16040.1,5176.844h6.171v-23.4h-6.171Z" transform="translate(-16000.474 -5153.432)" fill="#869ab8"></path><path d="M16103.062,5202.671a8.38,8.38,0,0,0,.616,3.6,2.148,2.148,0,0,0,2.072,1.236,2.082,2.082,0,0,0,2.029-1.237,8.6,8.6,0,0,0,.59-3.6,8.129,8.129,0,0,0-.6-3.54,2.107,2.107,0,0,0-2.05-1.2,2.132,2.132,0,0,0-2.044,1.189,8.081,8.081,0,0,0-.614,3.55m11.587,0a9.837,9.837,0,0,1-2.355,7.006,8.622,8.622,0,0,1-6.608,2.514,8.431,8.431,0,0,1-6.479-2.57,11.335,11.335,0,0,1-.051-13.909,8.708,8.708,0,0,1,6.624-2.48,9.249,9.249,0,0,1,4.659,1.146,7.712,7.712,0,0,1,3.114,3.29,10.757,10.757,0,0,1,1.093,5" transform="translate(-16049.303 -5188.461)" fill="#869ab8"></path><path d="M16231,5213.682h6.177V5195.37H16231Z" transform="translate(-16164.055 -5190.272)" fill="#869ab8"></path><path d="M16231,5157.555h6.177v-4.128H16231Z" transform="translate(-16164.054 -5153.427)" fill="#869ab8"></path><path d="M16298.069,5175.708a9.457,9.457,0,0,0,2.983-.6v4.372a12.43,12.43,0,0,1-2.378.743,13.8,13.8,0,0,1-2.647.224,5.881,5.881,0,0,1-4.48-1.482,6.487,6.487,0,0,1-1.371-4.543v-7.164h-2.161v-4.493h2.161v-4.437l6.218-1.027v5.464h3.938v4.493h-3.938v6.763a1.487,1.487,0,0,0,1.676,1.687" transform="translate(-16213.153 -5156.71)" fill="#869ab8"></path><path d="M16392.572,5175.706a9.38,9.38,0,0,0,2.979-.6l0,4.372a12.31,12.31,0,0,1-2.371.741,13.7,13.7,0,0,1-2.646.225,5.88,5.88,0,0,1-4.484-1.481,6.544,6.544,0,0,1-1.375-4.544v-7.164h-2.162v-4.494h2.162v-4.506l6.225-.953v5.464h3.941v4.493h-3.941v6.763a1.483,1.483,0,0,0,1.672,1.686" transform="translate(-16294.095 -5156.71)" fill="#869ab8"></path><path d="M16484.5,5200.449a3.317,3.317,0,0,1,.859-2.21,2.525,2.525,0,0,1,1.822-.7,2.4,2.4,0,0,1,1.893.793,3.2,3.2,0,0,1,.729,2.119Zm8.7-5.051a8.538,8.538,0,0,0-6.244-2.16,8.451,8.451,0,0,0-6.533,2.48,10.115,10.115,0,0,0-2.295,7.121,9.293,9.293,0,0,0,2.475,6.925,9.472,9.472,0,0,0,6.945,2.434,20.264,20.264,0,0,0,3.689-.292,10.639,10.639,0,0,0,2.982-1.04l-.949-4.126a12.209,12.209,0,0,1-4.982.967,4.2,4.2,0,0,1-2.812-.873,3.161,3.161,0,0,1-1.105-2.409h11.029v-2.812a8.335,8.335,0,0,0-2.2-6.214" transform="translate(-16376.801 -5188.463)" fill="#869ab8"></path><path d="M15916.493,5200.448a3.345,3.345,0,0,1,.857-2.208,2.541,2.541,0,0,1,1.827-.7,2.385,2.385,0,0,1,1.884.793,3.182,3.182,0,0,1,.738,2.12Zm8.7-5.051a9.967,9.967,0,0,0-12.775.321,10.121,10.121,0,0,0-2.293,7.119,9.309,9.309,0,0,0,2.474,6.928,9.471,9.471,0,0,0,6.934,2.434,20.269,20.269,0,0,0,3.7-.292,10.727,10.727,0,0,0,2.98-1.041l-.951-4.126a12.193,12.193,0,0,1-4.985.967,4.231,4.231,0,0,1-2.817-.874,3.168,3.168,0,0,1-1.091-2.411h11.028v-2.812a8.317,8.317,0,0,0-2.2-6.214" transform="translate(-15889.256 -5188.463)" fill="#869ab8"></path></g></g></g></svg>