<svg xmlns="http://www.w3.org/2000/svg" width="74" height="60" viewBox="0 0 74 60"><g transform="translate(-28)"><g transform="translate(28)" fill="#fff" stroke="#707070" stroke-width="1" opacity="0"><rect width="74" height="60" stroke="none"></rect><rect x="0.5" y="0.5" width="73" height="59" fill="none"></rect></g><g transform="translate(38.349 3.348)"><path d="M-3004.119-1071.012v22.551h12.3v-2.05h-10.25v-20.5Z" transform="translate(3004.119 1091.513)" fill="#869ab8"></path><path d="M-3004.119-1218.742v2.05h10.25v23.576h-3.075v-20.5h-7.176v2.05h5.125v20.5h7.176v-27.677h-12.3Z" transform="translate(3004.119 1228.993)" fill="#869ab8"></path><path d="M-2930.255-1366.471v7.175h20.5v3.075h-5.125v2.05h7.175v-7.175h-20.5v-5.125Z" transform="translate(2935.38 1366.471)" fill="#869ab8"></path><path d="M-2698.41-1292.606v10.25h-10.251v27.676h12.3v-2.05h-10.25v-23.576h10.25v-12.3Z" transform="translate(2729.162 1297.731)" fill="#869ab8"></path><rect width="22.551" height="2.05" transform="translate(10.251 0.001)" fill="#869ab8"></rect><path d="M-2634.8-1071.012v17.426h7.175v-12.3h-2.05v10.25h-3.075v-13.326h5.125v-2.05Z" transform="translate(2660.422 1091.513)" fill="#869ab8"></path><rect width="2.05" height="7.175" transform="translate(10.251 46.128)" fill="#869ab8"></rect><path d="M-3004.119-701.689v2.05h5.125v5.125h2.051v-7.175h-7.176Z" transform="translate(3004.119 747.817)" fill="#869ab8"></path><path d="M-2677.909-1263.06v8.2h-10.25v7.175h10.25v3.075h-10.25v2.05h10.25v3.075h-10.25v2.05h10.25v3.075h-10.25v10.251h-20.5v2.05h22.552v-10.25h10.25v-17.426h-10.25v-3.075h10.25v-10.25Z" transform="translate(2729.162 1270.235)" fill="#869ab8"></path><g transform="translate(20.501 0)"><path d="M-2683.035-775.554V-765.3h-25.626v2.05h27.677V-773.5h3.075v5.125h2.05v-7.175h-7.176Z" transform="translate(2708.661 816.556)" fill="#869ab8"></path><path d="M-2408.078-1366.471v10.25h-5.125v2.05h7.175v-12.3Z" transform="translate(2433.704 1366.471)" fill="#869ab8"></path><rect width="2.05" height="7.175" transform="translate(20.502 0.001)" fill="#869ab8"></rect></g></g></g></svg>