<svg xmlns="http://www.w3.org/2000/svg" width="130" height="60" viewBox="0 0 130 60"><g transform="translate(-1735 -192)"><g transform="translate(1735 192)" fill="#fff" stroke="#707070" stroke-width="1" opacity="0"><rect width="130" height="60" stroke="none"></rect><rect x="0.5" y="0.5" width="129" height="59" fill="none"></rect></g><g transform="translate(1736.85 194.213)"><g transform="translate(0.099 6.575)"><path d="M115.156,11.791c2.109-2.708,6.249-3.048,9.114-1.409A1.674,1.674,0,0,1,124.7,13c-.87,1.317-2.57.488-3.827.543a2.278,2.278,0,0,0-2.492,1.852,19.8,19.8,0,0,0-.1,3.771,36.9,36.9,0,0,1,5.752.1,2.137,2.137,0,0,1-.023,3.339,30.547,30.547,0,0,1-5.734.133c-.078,4.688.152,9.39-.083,14.069-.446,2.137-3.942,2.2-4.338.014-.212-4.674-.023-9.367-.069-14.045-1.28-.126-3.017.432-3.79-.921-.718-.783-.111-1.8.377-2.514a12.465,12.465,0,0,1,3.417-.2C113.716,16.635,113.595,13.913,115.156,11.791Z" transform="translate(-61.702 -9.39)" fill="#869ab8"></path><path d="M6.759,30.634c1.131-.391,2.855-.377,3.159,1.077.512,3.237-.143,6.558.29,9.805a5.678,5.678,0,0,0,2.487,3.358c2.561,1.131,6.365.152,7.013-2.891.41-3.279-.111-6.609.207-9.9a2.279,2.279,0,0,1,4.246-.377,24.419,24.419,0,0,1,.185,4.959c-.074,2.307.341,4.72-.557,6.922a9.623,9.623,0,0,1-4.477,5.3A9.989,9.989,0,0,1,8.989,47.716a10.593,10.593,0,0,1-2.866-4.585c-.981-2.5-.429-5.232-.576-7.838C5.607,33.7,5.132,31.623,6.759,30.634Z" transform="translate(-5.522 -20.735)" fill="#869ab8"></path><path d="M57.33,30.7c3.04-.668,6.614-.3,8.9,2.011a10.709,10.709,0,0,1,3.143,8.548c-.083,2.293.126,4.6-.092,6.885-.443,2.151-3.961,2.192-4.352,0-.251-3.04.069-6.1-.1-9.15A4.262,4.262,0,0,0,60.9,34.973c-1.285,0-2.754-.212-3.84.636A4.617,4.617,0,0,0,55.116,39c-.161,3.048.147,6.111-.106,9.155-.368,2.187-3.915,2.151-4.352,0-.194-2.754-.047-5.531-.074-8.284C50.658,35.832,53.282,31.7,57.33,30.7Z" transform="translate(-29.816 -20.729)" fill="#869ab8"></path><path d="M96.789,30.623a2.284,2.284,0,0,1,3.289,1.893q.062,7.605,0,15.225a2.244,2.244,0,0,1-3.85,1.383,3.75,3.75,0,0,1-.645-2.766c.055-4.468,0-8.925.019-13.392a2.522,2.522,0,0,1,1.188-2.343Z" transform="translate(-54.106 -20.739)" fill="#869ab8"></path><path d="M195.31,30.7a9.805,9.805,0,0,1,6.885.737,8.763,8.763,0,0,1,4.7,6.6c.064,3.375.078,6.766,0,10.141.019,2.3-3.8,2.035-4.011-.019-.226-2.749.019-5.517-.064-8.275a5.433,5.433,0,0,0-2.9-4.67,9.46,9.46,0,0,0-4.067-.1,4.777,4.777,0,0,0-2.722,3.067c-.267,3.311.161,6.655-.161,9.961a2.3,2.3,0,0,1-4.241.4,22.344,22.344,0,0,1-.175-4.508c.078-2.58-.354-5.268.645-7.727A8.674,8.674,0,0,1,195.31,30.7Z" transform="translate(-104.247 -20.733)" fill="#869ab8"></path><path d="M234.34,30.718a2.435,2.435,0,0,1,3.693,1.778c.064,5.07.074,10.15,0,15.211-.009,2.427-3.989,2.841-4.4.429-.221-4.591.014-9.2-.1-13.793C233.58,33.121,233.341,31.648,234.34,30.718Z" transform="translate(-128.523 -20.714)" fill="#869ab8"></path><path d="M253.832,30.711c2.478-.465,5.485-.728,7.58.972,1.326,1.05.585,3.2-.825,3.749-2.251-.106-4.9-1.28-6.89.294-1.617,1.131-1.81,3.247-1.69,5.052A4.385,4.385,0,0,0,254.965,45c1.852.742,3.74-.377,5.609-.239a2.2,2.2,0,0,1,.562,3.956,9.159,9.159,0,0,1-11.149-1.911C245.483,41.985,247.2,32.665,253.832,30.711Z" transform="translate(-136.046 -20.707)" fill="#869ab8"></path><g transform="translate(41.402 2.869)"><path d="M97.185,15.89c1.93-.595,4.062,2.04,2.772,3.754-.529,1.285-2.146,1.28-3.268.911C94.8,19.607,95.021,16.346,97.185,15.89Z" transform="translate(-95.407 -15.723)" fill="#869ab8"></path><path d="M234.265,15.789c2.035-.856,4.632,1.847,3.251,3.771A2.5,2.5,0,0,1,233.9,20.7a2.766,2.766,0,0,1,.365-4.914Z" transform="translate(-169.405 -15.626)" fill="#869ab8"></path><path d="M148.954,31.061c1.169-2.284,4.209-1.625,6.176-.944a10.044,10.044,0,0,1,5.443,14.239,9.634,9.634,0,0,1-12.908,3.923,9.835,9.835,0,0,1-4.453-12.462c.225-.6.828-.88,1.312-1.238.474.36,1.115.608,1.326,1.221-.111,1.6-1.027,3.131-.59,4.777a7.016,7.016,0,0,0,7.082,6.042A7.115,7.115,0,0,0,158.23,43a7.255,7.255,0,0,0-2.6-9.629c-1.731-1.312-4.015-.318-5.945-.911C149.426,32,149.184,31.535,148.954,31.061Z" transform="translate(-120.775 -23.097)" fill="#869ab8"></path><path d="M147.991,35.938c.432-.787,1.5-.258,2.2-.313.05.861.429,2.073-.65,2.459C148.323,38.789,146.895,36.892,147.991,35.938Z" transform="translate(-123.565 -26.35)" fill="#869ab8"></path><path d="M152.375,41.334a5.82,5.82,0,0,1,4.812-2.722c.6.332.828,1.036,1.193,1.58-.636,1.423-2.353,1.442-3.486,2.263-1.625,1.617-.571,5.02,1.9,4.928,2.059.332,2.883-1.786,3.674-3.237,1.027-.244,2.251.341,2,1.556a5.605,5.605,0,1,1-10.089-4.371Z" transform="translate(-125.622 -28.023)" fill="#869ab8"></path><path d="M168.66,44.622a1.672,1.672,0,0,1,2.717-.7,1.407,1.407,0,0,1-1.2,2.3C169.245,46.371,169.061,45.206,168.66,44.622Z" transform="translate(-134.927 -30.648)" fill="#869ab8"></path></g><path d="M3-8.488a.561.561,0,0,0,.164.4.561.561,0,0,0,.4.164.563.563,0,0,0,.406-.161.563.563,0,0,0,.168-.4v-2.028l2.212-3.027a.69.69,0,0,0,.157-.407.539.539,0,0,0-.158-.4.539.539,0,0,0-.4-.158.654.654,0,0,0-.546.342L3.577-11.551l-1.8-2.6a.656.656,0,0,0-.556-.342.553.553,0,0,0-.4.152.553.553,0,0,0-.172.394.7.7,0,0,0,.126.4L3-10.487Zm6.082.629a2.556,2.556,0,0,0,1.846-.722,2.556,2.556,0,0,0,.774-1.824v-.019a2.532,2.532,0,0,0-.766-1.816A2.532,2.532,0,0,0,9.1-12.958a2.554,2.554,0,0,0-1.839.729A2.554,2.554,0,0,0,6.5-10.406v.019a2.528,2.528,0,0,0,.761,1.81,2.528,2.528,0,0,0,1.827.719ZM9.1-8.841a1.509,1.509,0,0,1-1.076-.468,1.509,1.509,0,0,1-.415-1.1v-.019a1.467,1.467,0,0,1,.4-1.095,1.467,1.467,0,0,1,1.072-.458,1.509,1.509,0,0,1,1.084.467,1.509,1.509,0,0,1,.416,1.1v.019a1.466,1.466,0,0,1-.4,1.1A1.466,1.466,0,0,1,9.1-8.84Zm8.078-3.506a.567.567,0,0,0-.564-.564.561.561,0,0,0-.4.164.561.561,0,0,0-.164.4V-10.1a1.08,1.08,0,0,1-.276.853,1.08,1.08,0,0,1-.825.35c-.666,0-1.046-.426-1.046-1.185v-2.263a.561.561,0,0,0-.164-.4.561.561,0,0,0-.4-.164.559.559,0,0,0-.395.167.559.559,0,0,0-.161.4v2.6A1.678,1.678,0,0,0,13.223-8.4a1.678,1.678,0,0,0,1.3.535,1.76,1.76,0,0,0,1.524-.861v.251a.559.559,0,0,0,.167.395.559.559,0,0,0,.4.161.559.559,0,0,0,.4-.161.559.559,0,0,0,.167-.395Zm1.4,3.869a.551.551,0,0,0,.161.394.551.551,0,0,0,.394.161.559.559,0,0,0,.4-.161.559.559,0,0,0,.167-.395V-9.922c0-1.157.546-1.767,1.343-1.907a.525.525,0,0,0,.444-.537.52.52,0,0,0-.151-.4.52.52,0,0,0-.4-.151A1.554,1.554,0,0,0,19.7-11.848v-.5a.561.561,0,0,0-.164-.4.561.561,0,0,0-.4-.164.553.553,0,0,0-.4.165.553.553,0,0,0-.159.4Zm9.737.62a3.311,3.311,0,0,0,2.351-.87.547.547,0,0,0,.185-.407.542.542,0,0,0-.537-.528.518.518,0,0,0-.342.126,2.322,2.322,0,0,1-1.62.62,2.184,2.184,0,0,1-1.555-.7,2.184,2.184,0,0,1-.583-1.6v-.019a2.181,2.181,0,0,1,.585-1.6,2.181,2.181,0,0,1,1.552-.691,2.349,2.349,0,0,1,1.546.583.557.557,0,0,0,.342.111.553.553,0,0,0,.4-.159.553.553,0,0,0,.165-.4.569.569,0,0,0-.223-.454,3.394,3.394,0,0,0-2.214-.72,3.278,3.278,0,0,0-2.385.963,3.279,3.279,0,0,0-.956,2.388v.019a3.258,3.258,0,0,0,.941,2.36,3.258,3.258,0,0,0,2.35.966Zm5.925,0a2.556,2.556,0,0,0,1.847-.722,2.556,2.556,0,0,0,.774-1.826v-.019a2.532,2.532,0,0,0-.764-1.818,2.532,2.532,0,0,0-1.837-.718,2.554,2.554,0,0,0-1.843.729,2.554,2.554,0,0,0-.767,1.827v.019a2.528,2.528,0,0,0,.763,1.811,2.528,2.528,0,0,0,1.83.718Zm.019-.982a1.509,1.509,0,0,1-1.076-.468,1.509,1.509,0,0,1-.415-1.1v-.019a1.467,1.467,0,0,1,.4-1.1,1.467,1.467,0,0,1,1.073-.458,1.509,1.509,0,0,1,1.086.467,1.509,1.509,0,0,1,.415,1.106v.019a1.466,1.466,0,0,1-.4,1.1,1.466,1.466,0,0,1-1.076.452ZM38-8.479a.551.551,0,0,0,.161.394.551.551,0,0,0,.394.161.553.553,0,0,0,.4-.159.553.553,0,0,0,.165-.4v-2.249a1.067,1.067,0,0,1,.249-.843,1.067,1.067,0,0,1,.8-.37c.62,0,.991.426.991,1.185v2.277a.553.553,0,0,0,.165.4.553.553,0,0,0,.4.159.551.551,0,0,0,.394-.161.551.551,0,0,0,.161-.394v-2.249c0-.787.435-1.213,1.046-1.213s.991.416.991,1.194v2.263a.553.553,0,0,0,.165.4.553.553,0,0,0,.4.159.546.546,0,0,0,.4-.16.546.546,0,0,0,.16-.4v-2.61a1.643,1.643,0,0,0-.415-1.338,1.643,1.643,0,0,0-1.3-.531,1.966,1.966,0,0,0-1.648.861,1.551,1.551,0,0,0-1.462-.861,1.751,1.751,0,0,0-1.491.842v-.231a.561.561,0,0,0-.164-.4.561.561,0,0,0-.4-.164.553.553,0,0,0-.4.165.553.553,0,0,0-.159.4Zm8.8,0a.551.551,0,0,0,.161.394.551.551,0,0,0,.394.161.553.553,0,0,0,.4-.159.553.553,0,0,0,.165-.4v-2.249a1.067,1.067,0,0,1,.249-.843,1.067,1.067,0,0,1,.8-.37c.62,0,.991.426.991,1.185v2.277a.553.553,0,0,0,.165.4.553.553,0,0,0,.4.159.551.551,0,0,0,.394-.161.551.551,0,0,0,.161-.394v-2.249c0-.787.435-1.213,1.046-1.213s.991.416.991,1.194v2.263a.553.553,0,0,0,.165.4.553.553,0,0,0,.4.159.546.546,0,0,0,.4-.16.546.546,0,0,0,.16-.4v-2.61a1.643,1.643,0,0,0-.415-1.338,1.643,1.643,0,0,0-1.3-.531,1.966,1.966,0,0,0-1.648.861,1.551,1.551,0,0,0-1.462-.861,1.751,1.751,0,0,0-1.491.842v-.231a.561.561,0,0,0-.164-.4.561.561,0,0,0-.4-.164.553.553,0,0,0-.4.165.553.553,0,0,0-.159.4Zm13.135-3.869a.567.567,0,0,0-.564-.564.561.561,0,0,0-.4.164.561.561,0,0,0-.164.4V-10.1a1.08,1.08,0,0,1-.276.853,1.08,1.08,0,0,1-.825.35c-.666,0-1.046-.426-1.046-1.185v-2.263a.561.561,0,0,0-.164-.4.561.561,0,0,0-.4-.164.559.559,0,0,0-.395.167.559.559,0,0,0-.161.4v2.6A1.678,1.678,0,0,0,55.974-8.4a1.678,1.678,0,0,0,1.3.538A1.76,1.76,0,0,0,58.8-8.728v.251a.559.559,0,0,0,.167.395.559.559,0,0,0,.4.161.559.559,0,0,0,.4-.161.559.559,0,0,0,.167-.395Zm1.4,3.869a.551.551,0,0,0,.161.394.551.551,0,0,0,.394.161.553.553,0,0,0,.4-.159.553.553,0,0,0,.165-.4v-2.249a1.087,1.087,0,0,1,.275-.857,1.087,1.087,0,0,1,.826-.356c.666,0,1.046.435,1.046,1.194v2.263a.553.553,0,0,0,.165.4.553.553,0,0,0,.4.159.546.546,0,0,0,.4-.16.546.546,0,0,0,.16-.4v-2.61a1.676,1.676,0,0,0-.438-1.337,1.676,1.676,0,0,0-1.3-.532,1.771,1.771,0,0,0-1.527.851v-.24a.561.561,0,0,0-.164-.4.561.561,0,0,0-.4-.164.553.553,0,0,0-.4.165.553.553,0,0,0-.159.4Zm5.721-5.637a.579.579,0,0,0,.2.416.58.58,0,0,0,.44.139.579.579,0,0,0,.44-.139.58.58,0,0,0,.2-.416v-.055a.573.573,0,0,0-.2-.412.573.573,0,0,0-.438-.134.573.573,0,0,0-.438.134.573.573,0,0,0-.2.412Zm.083,5.637a.551.551,0,0,0,.161.394.551.551,0,0,0,.394.161.553.553,0,0,0,.4-.159.553.553,0,0,0,.165-.4v-3.869a.561.561,0,0,0-.164-.4.561.561,0,0,0-.4-.164.553.553,0,0,0-.4.165.553.553,0,0,0-.159.4Zm4.841.62a2.389,2.389,0,0,0,1.773-.693.436.436,0,0,0,.157-.352.487.487,0,0,0-.481-.49.487.487,0,0,0-.305.126,1.634,1.634,0,0,1-1.092.435,1.48,1.48,0,0,1-1.069-.472,1.48,1.48,0,0,1-.393-1.1v-.019A1.475,1.475,0,0,1,70.95-11.5a1.475,1.475,0,0,1,1.034-.48,1.55,1.55,0,0,1,1.046.416.571.571,0,0,0,.333.111.509.509,0,0,0,.363-.144.509.509,0,0,0,.154-.359.532.532,0,0,0-.176-.388,2.474,2.474,0,0,0-1.713-.613,2.523,2.523,0,0,0-1.808.742,2.523,2.523,0,0,0-.736,1.81v.019a2.5,2.5,0,0,0,.73,1.8,2.5,2.5,0,0,0,1.8.732Zm4.434-.009a1.986,1.986,0,0,0,1.593-.713v.186a.5.5,0,0,0,.173.352.5.5,0,0,0,.373.121.533.533,0,0,0,.386-.153.533.533,0,0,0,.159-.384v-2.406a2.028,2.028,0,0,0-.528-1.509,2.19,2.19,0,0,0-1.624-.547,4.19,4.19,0,0,0-1.574.287.489.489,0,0,0-.305.444.466.466,0,0,0,.14.33.466.466,0,0,0,.333.133.628.628,0,0,0,.176-.028A2.9,2.9,0,0,1,76.8-11.95c.787,0,1.213.371,1.213,1.065v.126a4.083,4.083,0,0,0-1.315-.2c-1.194,0-2.018.518-2.018,1.574v.019a1.561,1.561,0,0,0,.536,1.13,1.561,1.561,0,0,0,1.193.374Zm.314-.815c-.537,0-.953-.269-.953-.74v-.019c0-.5.426-.815,1.148-.815a3.105,3.105,0,0,1,1.111.195v.333a1.168,1.168,0,0,1-1.311,1.047Zm5.3.8a2.227,2.227,0,0,0,.768-.126.481.481,0,0,0,.3-.435.473.473,0,0,0-.473-.463,2.648,2.648,0,0,1-.278.028.533.533,0,0,1-.455-.153.533.533,0,0,1-.147-.457v-2.4h.88a.486.486,0,0,0,.49-.481.486.486,0,0,0-.49-.481h-.88v-.833a.557.557,0,0,0-.556-.556.559.559,0,0,0-.4.161.559.559,0,0,0-.167.395v.833h-.185a.478.478,0,0,0-.342.14.478.478,0,0,0-.14.342.478.478,0,0,0,.14.342.478.478,0,0,0,.342.14h.185v2.573a1.257,1.257,0,0,0,.349,1.061,1.257,1.257,0,0,0,1.055.365Zm2.147-6.23a.58.58,0,0,0,.2.416.58.58,0,0,0,.44.139.579.579,0,0,0,.44-.139.58.58,0,0,0,.2-.416v-.055a.573.573,0,0,0-.2-.412.573.573,0,0,0-.438-.134.573.573,0,0,0-.438.134.573.573,0,0,0-.2.412Zm.083,5.637a.551.551,0,0,0,.161.394.551.551,0,0,0,.394.161.553.553,0,0,0,.4-.159.553.553,0,0,0,.165-.4V-12.35a.561.561,0,0,0-.164-.4.561.561,0,0,0-.4-.164.553.553,0,0,0-.4.165.553.553,0,0,0-.159.4Zm4.9.62a2.556,2.556,0,0,0,1.845-.722,2.556,2.556,0,0,0,.775-1.824v-.019a2.532,2.532,0,0,0-.764-1.818,2.532,2.532,0,0,0-1.837-.718,2.554,2.554,0,0,0-1.842.729,2.554,2.554,0,0,0-.767,1.826v.019a2.528,2.528,0,0,0,.762,1.811,2.528,2.528,0,0,0,1.828.719Zm.019-.982a1.508,1.508,0,0,1-1.075-.467,1.508,1.508,0,0,1-.416-1.1v-.019a1.467,1.467,0,0,1,.4-1.095,1.467,1.467,0,0,1,1.072-.458,1.509,1.509,0,0,1,1.084.467,1.509,1.509,0,0,1,.416,1.1v.019a1.466,1.466,0,0,1-.4,1.1,1.466,1.466,0,0,1-1.076.452Zm3.74.361a.551.551,0,0,0,.161.394.551.551,0,0,0,.394.161.553.553,0,0,0,.4-.159.553.553,0,0,0,.165-.4V-10.73a1.087,1.087,0,0,1,.275-.857,1.087,1.087,0,0,1,.826-.356c.666,0,1.046.435,1.046,1.194v2.263a.553.553,0,0,0,.165.4.553.553,0,0,0,.4.159.546.546,0,0,0,.4-.16.546.546,0,0,0,.16-.4V-11.1a1.676,1.676,0,0,0-.438-1.337,1.676,1.676,0,0,0-1.3-.532,1.771,1.771,0,0,0-1.527.851v-.24a.561.561,0,0,0-.164-.4.561.561,0,0,0-.4-.164.553.553,0,0,0-.4.165.553.553,0,0,0-.159.4Zm11.655.62a3.311,3.311,0,0,0,2.351-.87.547.547,0,0,0,.185-.407.542.542,0,0,0-.537-.528.518.518,0,0,0-.342.126,2.322,2.322,0,0,1-1.62.62,2.184,2.184,0,0,1-1.555-.7,2.184,2.184,0,0,1-.583-1.6v-.019a2.181,2.181,0,0,1,.585-1.6,2.181,2.181,0,0,1,1.552-.691,2.35,2.35,0,0,1,1.546.583.557.557,0,0,0,.342.111.553.553,0,0,0,.4-.159.553.553,0,0,0,.165-.4.569.569,0,0,0-.223-.454,3.394,3.394,0,0,0-2.221-.732,3.278,3.278,0,0,0-2.388.967,3.278,3.278,0,0,0-.952,2.394v.019a3.258,3.258,0,0,0,.94,2.365,3.258,3.258,0,0,0,2.354.968Zm5.925,0a2.556,2.556,0,0,0,1.843-.722,2.556,2.556,0,0,0,.774-1.822v-.019a2.532,2.532,0,0,0-.764-1.818,2.532,2.532,0,0,0-1.837-.718,2.554,2.554,0,0,0-1.843.729,2.555,2.555,0,0,0-.767,1.827v.019a2.528,2.528,0,0,0,.762,1.811,2.528,2.528,0,0,0,1.83.718Zm.019-.982a1.509,1.509,0,0,1-1.076-.467,1.509,1.509,0,0,1-.417-1.1v-.019a1.467,1.467,0,0,1,.4-1.1,1.467,1.467,0,0,1,1.073-.458,1.508,1.508,0,0,1,1.084.468A1.509,1.509,0,0,1,112-10.406v.019a1.466,1.466,0,0,1-.4,1.1,1.466,1.466,0,0,1-1.076.452Zm8.548-5.378a.553.553,0,0,0-.165-.4.553.553,0,0,0-.4-.159.551.551,0,0,0-.394.161.551.551,0,0,0-.161.394V-12.1a2,2,0,0,0-1.666-.861,2.333,2.333,0,0,0-1.68.779,2.333,2.333,0,0,0-.583,1.758v.019a2.343,2.343,0,0,0,.586,1.754,2.343,2.343,0,0,0,1.676.782,1.956,1.956,0,0,0,1.666-.916v.305a.553.553,0,0,0,.165.4.553.553,0,0,0,.4.159.551.551,0,0,0,.394-.161.551.551,0,0,0,.161-.394Zm-2.514,2.231a1.467,1.467,0,0,1,1.04.481,1.467,1.467,0,0,1,.377,1.083v.019a1.472,1.472,0,0,1-.378,1.081,1.472,1.472,0,0,1-1.039.483,1.454,1.454,0,0,1-1.044-.477,1.454,1.454,0,0,1-.373-1.085v-.019a1.433,1.433,0,0,1,.363-1.088,1.433,1.433,0,0,1,1.044-.474Zm4.767,1.231a1.322,1.322,0,0,1,1.258-1.281,1.268,1.268,0,0,1,1.241,1.287Zm3.157,2.249a.489.489,0,0,0,.148-.342.441.441,0,0,0-.126-.321.441.441,0,0,0-.318-.133.417.417,0,0,0-.287.1,1.76,1.76,0,0,1-1.157.426,1.364,1.364,0,0,1-1.407-1.241H124.4a.524.524,0,0,0,.378-.157.524.524,0,0,0,.15-.38,2.312,2.312,0,0,0-.647-1.7,2.312,2.312,0,0,0-1.676-.706,2.426,2.426,0,0,0-1.735.766,2.426,2.426,0,0,0-.654,1.78v.019a2.439,2.439,0,0,0,.7,1.816,2.439,2.439,0,0,0,1.81.721,2.514,2.514,0,0,0,1.741-.645Z" transform="translate(0.577 49.411)" fill="#869ab8"></path></g></g></g></svg>