<svg xmlns="http://www.w3.org/2000/svg" width="130" height="60" viewBox="0 0 130 60"><g transform="translate(-1135 -192)"><g transform="translate(1135 192)" fill="#fff" stroke="#707070" stroke-width="1" opacity="0"><rect width="130" height="60" stroke="none"></rect><rect x="0.5" y="0.5" width="129" height="59" fill="none"></rect></g><g transform="translate(1136.718 213.619)"><g transform="translate(0 0)"><path d="M0-3.841v-.047a8.226,8.226,0,0,1,2.336-5.97,8.226,8.226,0,0,1,5.911-2.481,8.435,8.435,0,0,1,5.827,2.125,1.011,1.011,0,0,1,.375.75.947.947,0,0,1-.937.91,1.1,1.1,0,0,1-.606-.21A6.676,6.676,0,0,0,8.22-10.632,6.4,6.4,0,0,0,3.645-8.62,6.4,6.4,0,0,0,1.911-3.934v.047A6.443,6.443,0,0,0,3.643.822,6.443,6.443,0,0,0,8.227,2.861,6.682,6.682,0,0,0,13.076.877.843.843,0,0,1,13.659.62a.917.917,0,0,1,.886.887.872.872,0,0,1-.3.656,8.349,8.349,0,0,1-6.061,2.4A8.144,8.144,0,0,1,2.3,2.1,8.144,8.144,0,0,1,0-3.841" transform="translate(0.005 12.341)" fill="#869ab8"></path></g><g transform="translate(17.203 0.002)"><path d="M-6.9-3.841v-.047A6.493,6.493,0,0,0-8.685-8.623a6.493,6.493,0,0,0-4.645-2.012,6.415,6.415,0,0,0-4.622,1.989,6.415,6.415,0,0,0-1.765,4.712v.047A6.493,6.493,0,0,0-17.929.849a6.493,6.493,0,0,0,4.645,2.012A6.415,6.415,0,0,0-8.661.872,6.415,6.415,0,0,0-6.9-3.841m-14.731,0v-.047a8.273,8.273,0,0,1,2.383-5.989,8.273,8.273,0,0,1,5.958-2.461A8.2,8.2,0,0,1-7.347-9.9,8.2,8.2,0,0,1-4.985-3.934v.047A8.272,8.272,0,0,1-7.368,2.1a8.272,8.272,0,0,1-5.958,2.461,8.2,8.2,0,0,1-5.937-2.436,8.2,8.2,0,0,1-2.361-5.967" transform="translate(21.63 12.339)" fill="#869ab8"></path></g><g transform="translate(38.2 0.163)"><path d="M0-22.028a.932.932,0,0,1,.909-.937.937.937,0,0,1,.937.937v6.443h9.413v-6.443a.937.937,0,0,1,.937-.937.932.932,0,0,1,.908.937V-7.322a.931.931,0,0,1-.908.937.937.937,0,0,1-.937-.937v-6.536H1.841v6.536A.937.937,0,0,1,.9-6.385a.931.931,0,0,1-.909-.937Z" transform="translate(0.005 22.965)" fill="#869ab8"></path></g><g transform="translate(56.383 0.28)"><path d="M0,14.034V-.438a.931.931,0,0,1,.909-.937h10.14a.836.836,0,0,1,.6.245.836.836,0,0,1,.245.6.836.836,0,0,1-.245.6.836.836,0,0,1-.6.245H1.842V5.888H10a.852.852,0,0,1,.843.843A.837.837,0,0,1,10,7.575H1.842v5.717h9.324a.843.843,0,0,1,0,1.681H.909A.932.932,0,0,1,0,14.036" transform="translate(0 1.375)" fill="#869ab8"></path></g><g transform="translate(90.634 0.163)"><path d="M0-22.028a.932.932,0,0,1,.909-.937.937.937,0,0,1,.937.937V-7.322a.937.937,0,0,1-.937.937A.931.931,0,0,1,0-7.322Z" transform="translate(0 22.965)" fill="#869ab8"></path></g><g transform="translate(96.437 0.281)"><path d="M-2.619-19.955H-7.351a.857.857,0,0,1-.863-.843.876.876,0,0,1,.863-.863H3.982a.876.876,0,0,1,.862.863.857.857,0,0,1-.862.843H-.755V-6.141a.937.937,0,0,1-.932.937.937.937,0,0,1-.932-.937Z" transform="translate(8.214 21.662)" fill="#869ab8"></path></g><g transform="translate(112.03 0.163)"><path d="M-2.935.442-9-8.056a1.2,1.2,0,0,1-.21-.631A.952.952,0,0,1-8.25-9.6a1.076,1.076,0,0,1,.887.562l5.384,7.779L3.451-9.038A1.038,1.038,0,0,1,4.315-9.6a.91.91,0,0,1,.908.91,1.417,1.417,0,0,1-.256.677L-1.07.395V6.044A.937.937,0,0,1-2,6.981a.937.937,0,0,1-.937-.937Z" transform="translate(9.205 9.6)" fill="#869ab8"></path></g><g transform="translate(72.64 5.117)"><path d="M-3.885,11.68H-11.3a.884.884,0,0,1-.883-.885.884.884,0,0,1,.883-.885h7.418A4.073,4.073,0,0,0,.179,5.839a4.073,4.073,0,0,0-4.065-4.07h-3.3a.884.884,0,0,1-.625-.259A.884.884,0,0,1-8.064.885.884.884,0,0,1-7.806.259.884.884,0,0,1-7.181,0h3.3A5.842,5.842,0,0,1,1.946,5.839a5.842,5.842,0,0,1-5.832,5.839" transform="translate(12.186)" fill="#869ab8"></path></g><g transform="translate(71.11 0.221)"><path d="M-4.273,11.68h-3.3A5.842,5.842,0,0,1-13.4,5.839,5.842,5.842,0,0,1-7.568,0H-.15A.885.885,0,0,1,.734.885a.885.885,0,0,1-.885.885H-7.568A4.073,4.073,0,0,0-11.632,5.84,4.073,4.073,0,0,0-7.568,9.911h3.3a.884.884,0,0,1,.625.259.884.884,0,0,1,.259.626.884.884,0,0,1-.259.626.884.884,0,0,1-.625.259" transform="translate(13.4)" fill="#869ab8"></path></g></g></g></svg>