<svg xmlns="http://www.w3.org/2000/svg" width="130" height="60" viewBox="0 0 130 60"><g transform="translate(-535 -192)"><g transform="translate(535 192)" fill="#fff" stroke="#707070" stroke-width="1" opacity="0"><rect width="130" height="60" stroke="none"></rect><rect x="0.5" y="0.5" width="129" height="59" fill="none"></rect></g><g transform="translate(553.376 205.327)"><path d="M51.764,58.13l5.63-15.354a.378.378,0,0,1,.463-.315h2.1a.295.295,0,0,1,.378.253l5.61,15.165v.294c.378-1.093.757-2.1,1.135-3.173l4.412-12.291c0-.21.147-.253.357-.253h2.92c.315,0,.315,0,.189.294L67.838,61.367a1.137,1.137,0,0,1-.357.8c-.189.147-.589,0-.882,0H65a.357.357,0,0,1-.4-.274L60.5,50.923l-1.45-3.866a.419.419,0,0,0-.13-.231c-.274.672-.521,1.345-.782,2.1l-4.916,13.03a.378.378,0,0,1-.421.294H50.44c-.189,0-.253,0-.315-.231L42.77,42.737c0-.21,0-.253.189-.253h2.92c.189,0,.251,0,.315.231Q48.9,50.3,51.636,57.864a.693.693,0,0,0,.13.274Z" transform="translate(-8.621 -33.629)" fill="#869ab8"></path><path d="M36.819,53.584h-8.2c-.253,0-.315,0-.274.294A7.018,7.018,0,0,0,34,59.972a9.182,9.182,0,0,0,8.4-2.27c.315-.294.315-.294.652,0s1.009.84,1.534,1.239c.106.106.13.147,0,.274A11.305,11.305,0,0,1,37.909,62.6a11.515,11.515,0,0,1-9.035-2.1,9.251,9.251,0,0,1-3.635-6.429A10.023,10.023,0,0,1,27.4,45.919a9.728,9.728,0,0,1,6.3-3.492,10.675,10.675,0,0,1,6.308.8A9.077,9.077,0,0,1,44.95,48.9a12.208,12.208,0,0,1,.546,4.35c0,.251,0,.315-.315.315Zm-1.618-2.1h6.7c.189,0,.231,0,.21-.231a9.517,9.517,0,0,0-.274-1.345A6.576,6.576,0,0,0,33.7,45.033a7.06,7.06,0,0,0-5.358,6.157c0,.253,0,.294.253.294Z" transform="translate(-25.086 -33.832)" fill="#869ab8"></path><path d="M66.036,46.131a9.624,9.624,0,0,1,1.156-1.386,7.964,7.964,0,0,1,4.838-2.291,10.212,10.212,0,0,1,5.19.61,6.892,6.892,0,0,1,4.2,5.547,10.066,10.066,0,0,1,.13,1.786V62.016c0,.231,0,.315-.294.315H78.734c-.253,0-.336,0-.336-.336V51.132a7.711,7.711,0,0,0-.378-2.584,4.727,4.727,0,0,0-3.026-3.088,7.145,7.145,0,0,0-5.968.4,5.611,5.611,0,0,0-3,5.082V62.016c0,.231,0,.315-.294.315H63.144c-.231,0-.274,0-.274-.294V42.752c0-.147,0-.189.189-.189h2.816c.168,0,.21,0,.21.21Z" transform="translate(11.148 -33.733)" fill="#869ab8"></path><path d="M39.2,47.675a11.388,11.388,0,0,1,1.955-2.627A8.7,8.7,0,0,1,47.316,42.4c.652,0,.652,0,.652.631v2.227c0,.231,0,.294-.294.294a8.678,8.678,0,0,0-4.561,1.156,7.818,7.818,0,0,0-3.677,5.358A11.241,11.241,0,0,0,39.2,54.44v7.481c0,.231,0,.294-.274.294H36.243c-.21,0-.253,0-.253-.231V42.967c0-.189,0-.253.231-.253h2.736c.189,0,.253,0,.253.274Z" transform="translate(-14.5 -33.679)" fill="#869ab8"></path><path d="M61.61,41.213,69.7,40.078l7.313-1.05,5.421-.757a.861.861,0,0,1,1.05.925v4.1a.882.882,0,0,1-1.071.925L75.375,43.21l-6.515-.925L61.947,41.3a.5.5,0,0,1-.336-.083Z" transform="translate(9.761 -38.249)" fill="#869ab8"></path><path d="M62.516,52.348v9.56c0,.253,0,.315-.336.315H59.573c-.231,0-.294,0-.294-.274V42.725c0-.21,0-.294.274-.274h2.669c.274,0,.315,0,.294.315Z" transform="translate(8.521 -33.625)" fill="#869ab8"></path><path d="M61.03,42.225H59.39c-.147,0-.21,0-.21-.21V39.2c0-.168,0-.21.21-.21h3.278c.147,0,.21,0,.189.189v2.858c0,.168,0,.189-.231.189Z" transform="translate(8.404 -37.433)" fill="#869ab8"></path></g></g></svg>