<svg xmlns="http://www.w3.org/2000/svg" viewBox="0 0 1024 1024"><defs><style>.cls-1{isolation:isolate;}.cls-10,.cls-2,.cls-5{fill:#ebf0f5;}.cls-3,.cls-7{fill:#24313e;}.cls-10,.cls-11,.cls-3,.cls-5,.cls-7,.cls-8,.cls-9{stroke:#031439;}.cls-10,.cls-11,.cls-3,.cls-4,.cls-5,.cls-7,.cls-8,.cls-9{stroke-miterlimit:10;}.cls-3,.cls-5,.cls-7,.cls-8,.cls-9{stroke-width:2px;}.cls-3{opacity:0.18;mix-blend-mode:multiply;}.cls-4{fill:#6b7e8f;stroke:#24313e;stroke-linecap:round;stroke-width:1.57px;}.cls-6{fill:#fff;opacity:0.32;mix-blend-mode:overlay;}.cls-8{fill:#0062ff;}.cls-11,.cls-9{fill:#9caab8;}.cls-10,.cls-11{stroke-width:1.63px;}.cls-12{fill:#031439;}</style></defs><g class="cls-1"><g id="Layer_1" data-name="Layer 1"><circle class="cls-2" cx="530.16" cy="361.06" r="341.05"></circle><ellipse class="cls-3" cx="574.34" cy="928.03" rx="308.2" ry="9.18"></ellipse><path class="cls-4" d="M449,284.09,409.08,764.76c-1.7,20.39,11,38.1,27.23,37.86l436.41-6.32c14.08-.2,25.69-14.06,26.69-31.85l36-641.3c1.35-24-36.54-37.12-54.7-30.1L468.05,254.88C457.66,258.9,450.17,270.4,449,284.09Z"></path><path class="cls-4" d="M792.79,882.54c-5.13,20.3-22.75,37.13-44.88,39.11L620.07,933.1l-200.65-8.45-1.75-4.4,4.91-.33,169.32-11.5A49.32,49.32,0,0,0,635.52,849l-11-46.23-.55-2.31-3.74-15.76,150.48-2.28,21.39,73.81A48.17,48.17,0,0,1,792.79,882.54Z"></path><path class="cls-4" d="M621.19,800.66l9.26,43.26a49.33,49.33,0,0,1-43.62,59.43L414.35,919.58,615,928l127.85-11.45a49.32,49.32,0,0,0,42.67-63.87L766,790.51"></path><path class="cls-3" d="M792.79,882.54c-6,7.89-11.54,13.61-14.38,13.81-7.6.54-118.58-70.78-153.85-93.59l-3.27-2.12,2.72-.19-3.74-15.76,150.48-2.28,21.39,73.81A48.17,48.17,0,0,1,792.79,882.54Z"></path><path class="cls-5" d="M926.76,123.19l-45.53,642a34.29,34.29,0,0,1-33.8,31.88l-552.65,6.33a34.31,34.31,0,0,1-34.48-37.91l50.59-481.21A34.31,34.31,0,0,1,335,255.07L882.57,87.93a34.29,34.29,0,0,1,44.19,35.26Z"></path><path class="cls-6" d="M831.3,693.73,336.91,727.62s-.66-18.6,5.32-19.27"></path><polygon class="cls-3" points="557.12 734.48 548.07 761.1 261.36 770.33 237.46 661.85 360.25 635.21 557.12 734.48"></polygon><path class="cls-7" d="M344.27,304,299.65,683.41a30.25,30.25,0,0,0,30.41,33.43l484.86-27.29a30.24,30.24,0,0,0,29.8-28.12L887.4,161.89a30.24,30.24,0,0,0-39-31.09L365.51,278.2A30.25,30.25,0,0,0,344.27,304Z"></path><path class="cls-8" d="M580,294.1,578.66,321,125.36,429l2.41-25.2a15.15,15.15,0,0,1,11-13.29l420-110.34C570.18,277.07,580.67,283.93,580,294.1Z"></path><path class="cls-5" d="M578.66,321l-.4,8L556.85,739.68c-.5,7.82-7.6,14.45-16.49,15.47l-363.93,8.92L96.8,766a12.94,12.94,0,0,1-14.58-13.76L125.36,429l86.13-23.6Z"></path><path class="cls-9" d="M211.49,405.36l-39,358.81L96.8,766a12.94,12.94,0,0,1-14.58-13.76L125.36,429Z"></path><path class="cls-6" d="M917.27,97l-24.79-3.88L317.08,268s3-3.06,7.53-7.67A34.14,34.14,0,0,1,335,255.07L882.57,87.93A34.11,34.11,0,0,1,917.27,97Z"></path><path class="cls-3" d="M417.57,425.78l-8.64,11.27L379.52,658.6A17.24,17.24,0,0,0,398,678L560.47,665.2l13.87-261Z"></path><path class="cls-10" d="M657.74,374.26l-2,22.71L413.62,442.5l2.92-24a12.92,12.92,0,0,1,10.23-11.72l215.91-45.48A12.47,12.47,0,0,1,657.74,374.26Z"></path><path class="cls-11" d="M655.71,397,643.35,634.84a12.88,12.88,0,0,1-11.74,12.1l-225.42,16a12.46,12.46,0,0,1-13.53-13.3l21-207.1Z"></path><path class="cls-12" d="M434,427.51l-9.45-2.57.22-1.47,10.52-7.28-.28,2.45-7.17,4.77,6.45,1.51Z"></path><path class="cls-12" d="M447.29,411.54l-10.53,17.62-3.29.63L444,412.33Z"></path><path class="cls-12" d="M446,422.49l7.84-4.71L446.47,416l.19-2.51,11,2.76-.06,1.58-11.79,7.28Z"></path><path class="cls-6" d="M580,294.1l-.32,6.25c-1.86-7.94-11-12.72-20.86-10.08l-420,110.34a15.15,15.15,0,0,0-11,13.29l-1.42,14.81-1,.24,2.41-25.19a15.15,15.15,0,0,1,11-13.29l420-110.34C570.18,277.07,580.67,283.93,580,294.1Z"></path></g></g></svg>