<svg xmlns="http://www.w3.org/2000/svg" xmlns:xlink="http://www.w3.org/1999/xlink" viewBox="0 0 1024 1024"><defs><style>.cls-1{isolation:isolate;}.cls-2,.cls-3{fill:#ebf0f5;}.cls-10,.cls-14,.cls-3,.cls-5,.cls-6{stroke:#031439;}.cls-10,.cls-13,.cls-14,.cls-15,.cls-16,.cls-3,.cls-5,.cls-6{stroke-miterlimit:10;}.cls-10,.cls-14,.cls-3,.cls-6{stroke-width:1.97px;}.cls-4{fill:#ffff3a;opacity:0.37;}.cls-17,.cls-4{mix-blend-mode:overlay;}.cls-5{fill:#9caab8;}.cls-16,.cls-5{stroke-width:1.61px;}.cls-6,.cls-9{fill:#fb9c3a;}.cls-7{fill:#fb3a3a;}.cls-14,.cls-8{fill:#24313e;}.cls-9{opacity:0.21;}.cls-10{fill:#0062ff;}.cls-11{filter:url(#AI_GaussianBlur_7);}.cls-12,.cls-15{opacity:0.15;}.cls-13,.cls-15{fill:none;stroke:#24313e;stroke-width:2px;}.cls-14{opacity:0.18;mix-blend-mode:multiply;}.cls-16{fill:#031439;stroke:#9caab8;}.cls-17{fill:#fff;opacity:0.32;}</style><filter id="AI_GaussianBlur_7"><feGaussianBlur stdDeviation="7"></feGaussianBlur></filter></defs><g class="cls-1"><g id="Layer_1" data-name="Layer 1"><path class="cls-2" d="M542.77,273.81c-4.55-20.4-15.55-39.73-35.16-53.11A54.88,54.88,0,0,1,489,199.39a45.43,45.43,0,0,1-4.2-26.23,61.06,61.06,0,0,0,.62-8.74,65.61,65.61,0,0,0-4.65-24,79.38,79.38,0,0,0-50.69-46.13,64.6,64.6,0,0,0-33.1-.91,46.37,46.37,0,0,1-27.34-1.82A50.93,50.93,0,0,1,347,74.45a117,117,0,0,0-43.51-35.36,130,130,0,0,0-55.87-12.22,148.27,148.27,0,0,0-24.4,2.05,161.19,161.19,0,0,0-24.78,6.25c-22.15,7.5-45,21.06-62.31,40.88s-29,45.92-28.81,78.49a49.2,49.2,0,0,1-5.58,23A51.22,51.22,0,0,1,86,195.58c-21.69,15.5-33.93,37-39,59.63A125.81,125.81,0,0,0,50.86,322c6.28,18.52,17.81,37.51,34.83,51.63s39.55,23.37,67.82,22.4l3-.1,3-.11,0,.11,0,.09H440.48v-.49l3.92.18,3.93.15c25.11,1.59,45.09-5.94,60.18-17.91s25.3-28.35,30.82-44.47A112.16,112.16,0,0,0,542.77,273.81Z"></path><circle class="cls-2" cx="670.55" cy="479.52" r="16.4"></circle><circle class="cls-2" cx="366.97" cy="569.88" r="40.18"></circle><path class="cls-3" d="M629.41,553l86.4,14.79,92.7,113.52-8.47,8.2s-56.79-80.74-120.46-40.91L658.8,636.61S672.72,631.77,629.41,553Z"></path><path class="cls-4" d="M769.17,632.63l2,2.93L805,684.64l-5,4.83s-55-78.21-117.44-42.71l-2.28-3.83,37.84-22.35,50.55,11.94Z"></path><path class="cls-5" d="M720.14,563.74l92.54,113.49-8.46,8.19S747.6,604.81,684.1,644.36l-.12.07-20.75-11.94s13.9-4.82-29.33-83.6Z"></path><path class="cls-4" d="M805.38,681.48s.48.62,1.23,1.63l-2.39,2.31S747.6,604.81,684.1,644.36a49,49,0,0,1,9.39-12.05C749.13,578.05,805.38,681.48,805.38,681.48Z"></path><path class="cls-6" d="M655.21,726.06S647.48,775,725.35,846.54C800.82,915.92,878.49,959.9,878.49,959.9s-43.57-176-110-224.82c-68.34-50.17-71.81-48.3-71.81-48.3"></path><path class="cls-7" d="M661.36,719S657,746.47,701,787.2a554.55,554.55,0,0,0,88.23,66s-25.36-101.08-63.64-129c-38.9-28.39-40.86-27.33-40.86-27.33"></path><path class="cls-8" d="M667.31,713.71l-16,12.68a7.54,7.54,0,0,1-10.54-.92L628.47,711l26.85-25.22,13.32,15.8A8.59,8.59,0,0,1,667.31,713.71Z"></path><path class="cls-8" d="M686.21,703.92l14.21-13.49a12.69,12.69,0,0,0,1.14-17.1l-11.18-13.42-31.73,29.86L670,703.2A11,11,0,0,0,686.21,703.92Z"></path><path class="cls-3" d="M704.18,648.08a24.07,24.07,0,0,1-1.36,6,18.58,18.58,0,0,1-4.21,6.89c-39.8,59.45-80.51,65.15-80.51,65.15s-2.39-2.55-5.79-6.26c-8.26-9-22.52-24.86-23-27.4,0,0,12-21.26,15.09-26s66.78-50.08,66.78-50.08S705,639.47,704.18,648.08Z"></path><path class="cls-9" d="M702.82,654.12a18.58,18.58,0,0,1-4.21,6.89c-39.8,59.45-80.51,65.15-80.51,65.15s-2.39-2.55-5.79-6.26l19.62-8,17.69-11.65a74,74,0,0,0,19-18.19l20.24-27.77,13.26-.37Z"></path><path class="cls-10" d="M392.31,259.67A196.75,196.75,0,0,0,363,275a323.06,323.06,0,0,0-32,22.91A312.32,312.32,0,0,0,294.74,332q-4.92-13.43-8.23-25.36L256.19,215l-.66-1.39a15.78,15.78,0,0,1,.43-15c4.39-7.41,14.8-10.87,24.07-4.7L359.2,241h0A249.73,249.73,0,0,1,392.31,259.67Z"></path><path class="cls-5" d="M567.5,429.06c56.58,68.8,99,135.66,120.91,187.88l0,0s-7.81,20.17-36.34,45.11q-4.82,4.23-10.46,8.62C603.93,699.93,600.42,699,600.42,699c-49.95-28-112.06-80-171.87-149.36a839.36,839.36,0,0,1-92.27-130.19c-8.35-14.62-15.82-28.85-22.39-42.52-7.64-15.86-14-30.93-19.15-44.89A312.32,312.32,0,0,1,331,297.9,323.06,323.06,0,0,1,363,275a196.75,196.75,0,0,1,29.3-15.32c9.56,6.28,19.47,13.49,29.64,21.5C467.61,317.15,518.44,369.4,567.5,429.06Z"></path><g class="cls-11"><path class="cls-2" d="M456,507C547.16,607.25,641.9,675.35,635.27,683.29S523.12,636,431.94,535.78,298.44,328.34,305.07,320.4,364.8,406.83,456,507Z"></path></g><path class="cls-5" d="M611.48,691.87,630,713.67c-27.73,37.85-18.19,78.27-5.71,104.9a147.46,147.46,0,0,0,18.74,30.31l-9.07,8.8L536.4,745.81l-1-93.83C605,706,611.48,691.87,611.48,691.87Z"></path><g class="cls-12"><path class="cls-13" d="M327.6,398.23c14.24-13.38,30-27.28,46.8-41.16,25.32-20.92,49.78-39.14,71.38-53.56"></path><path class="cls-13" d="M308.91,376.43c14.34-13.37,30.21-27.25,47.13-41.11a890.78,890.78,0,0,1,71.88-53.45"></path><path class="cls-13" d="M367,468.86c17.55-17.76,38.26-36.9,60.91-56.06a865.21,865.21,0,0,1,74.79-57"></path><path class="cls-13" d="M390.39,502C409.05,483.12,428,465.72,452,445.23a981,981,0,0,1,78.81-61.29"></path><path class="cls-13" d="M443.53,566.6a914.5,914.5,0,0,1,66.83-64.54,869.41,869.41,0,0,1,70.71-56.2"></path><path class="cls-13" d="M470,597.31a913.91,913.91,0,0,1,66.16-64.6,866.61,866.61,0,0,1,70-56.35"></path><path class="cls-13" d="M529.25,649.18c16.51-17.84,36-37.15,57.36-56.53,21.79-19.79,42.9-37.29,61.81-51.56"></path></g><path class="cls-14" d="M567.5,429.06c56.58,68.8,99,135.66,120.91,187.88l0,0-17.7,26.48S694.25,595.88,498,384c-84.94-91.67-83.93-82.46-125.59-108.23C301.5,231.94,270.76,187.73,280,193.9L359.2,241h0a249.73,249.73,0,0,1,33.1,18.67c9.56,6.28,19.47,13.49,29.64,21.5C467.61,317.15,518.44,369.4,567.5,429.06Z"></path><polygon class="cls-3" points="702.19 608.41 801.85 733.26 797.49 737.52 698.3 613.45 636.57 569.09 642.38 563.79 702.19 608.41"></polygon><path class="cls-5" d="M698.29,613.43l0,0,99,123.8a.17.17,0,0,1-.11.28l-4.43.2-4.07.19a.15.15,0,0,1-.11,0c-1.34-1.47-35.41-38.71-58.7-63.64C707,649.71,690.6,656,689.16,656.6a.16.16,0,0,1-.17-.05l-13.88-17.34a.15.15,0,0,1,0-.21c.46-.72,1.27-2.66,2.73-7.15,3.3-10.19-33.91-54.19-40.34-61.68-.12-.15.06-.37.22-.25Z"></path><path class="cls-15" d="M312.49,314s114.56,213.39,313,369"></path><path class="cls-16" d="M409,386.65c13.34,17,12.43,40.55-2,52.82s-37.42,8.66-51-8.35-12.75-41.05,2.09-53.33S395.61,369.61,409,386.65Z"></path><path class="cls-16" d="M482.88,482.72c13,16.48,12.08,39.74-2,52.1s-36.36,9.22-49.59-7.31-12.38-40.22,2-52.6S469.85,466.16,482.88,482.72Z"></path><path class="cls-16" d="M560.23,574.42c12.58,16,11.72,38.93-1.93,51.35s-35.27,9.71-48.1-6.34-12-39.39,2-51.83S547.59,558.34,560.23,574.42Z"></path><path class="cls-3" d="M405.18,382.1c13.37,17,12.45,40.58-2.05,52.85s-37.48,8.64-51.12-8.4-12.76-41.09,2.1-53.37S391.75,365,405.18,382.1Z"></path><path class="cls-3" d="M479.15,478.3c13,16.5,12.1,39.78-2,52.14s-36.42,9.19-49.67-7.36-12.4-40.27,2-52.64S466.1,461.72,479.15,478.3Z"></path><path class="cls-3" d="M556.61,570.13c12.6,16,11.74,39-1.93,51.38s-35.32,9.69-48.17-6.37-12-39.44,2-51.88S544,554,556.61,570.13Z"></path><path class="cls-8" d="M396.46,389.39c9.39,11.9,8.75,28.45-1.44,37s-26.24,6-35.76-5.93-8.9-28.69,1.46-37.28S387,377.45,396.46,389.39Z"></path><path class="cls-8" d="M470.65,485.6c9.12,11.55,8.5,27.88-1.4,36.53s-25.5,6.38-34.75-5.2-8.65-28.12,1.42-36.78S461.5,474,470.65,485.6Z"></path><path class="cls-8" d="M548.39,577.51c8.85,11.23,8.25,27.32-1.36,36s-24.73,6.73-33.7-4.51-8.38-27.54,1.38-36.25S539.51,566.25,548.39,577.51Z"></path><path class="cls-17" d="M279.6,264.9c8,23.23,16.67,41.09,19.4,40s-1.52-20.78-9.49-44S272.79,219.61,270,220.7,271.58,241.6,279.6,264.9Z"></path><path class="cls-4" d="M619.84,701.69l10.2,12c-27.73,37.85-18.19,78.27-5.71,104.9C575.17,728.81,619.84,701.69,619.84,701.69Z"></path><path class="cls-4" d="M689,656.55a.16.16,0,0,0,.17.05c1.44-.62,17.82-6.89,40.7,17.65,23.29,24.93,57.36,62.17,58.7,63.64a.15.15,0,0,0,.11,0l4.07-.19C709.62,620.44,689,656.55,689,656.55Z"></path></g></g></svg>