<svg xmlns="http://www.w3.org/2000/svg" width="462" height="266.395" viewBox="0 0 462 266.395"><defs><style>.a{fill:#eff1f4;}.b{fill:#0c7ff2;}.c{fill:#031439;}.d{fill:#fff;}.e,.f,.g{fill:none;stroke-linecap:round;stroke-miterlimit:10;stroke-width:4px;}.e{stroke:#0c7ff2;}.f{stroke:#a3cfe8;}.g{stroke:#eff1f4;}</style></defs><g transform="translate(-1022.211 -346.336)"><rect class="a" width="462" height="266" rx="12" transform="translate(1022.211 346.73)"></rect><path class="b" d="M12,0H450a12,12,0,0,1,12,12V28.683a0,0,0,0,1,0,0H0a0,0,0,0,1,0,0V12A12,12,0,0,1,12,0Z" transform="translate(1022.211 346.336)"></path><rect class="c" width="117.127" height="195.211" rx="6" transform="translate(1345.442 394.799)"></rect><rect class="d" width="78.915" height="195.211" rx="6" transform="translate(1046.395 394.799)"></rect><rect class="d" width="182.751" height="195.211" rx="6" transform="translate(1144.001 394.799)"></rect><line class="e" x2="24.083" transform="translate(1278.648 416.139)"></line><line class="f" x2="38.626" transform="translate(1066.54 416.139)"></line><g transform="translate(1168.022 436.491)"><line class="g" x2="108.679" transform="translate(0 20.352)"></line><line class="g" x2="27.336" transform="translate(0 40.704)"></line><line class="g" x2="26.363" transform="translate(16.269 61.055)"></line><line class="f" x2="56.62"></line><line class="f" x2="58.9" transform="translate(16.269 81.407)"></line><line class="g" x2="26.363" transform="translate(16.269 101.759)"></line><line class="f" x2="58.9" transform="translate(16.269 122.111)"></line></g><line class="g" x2="19.103" transform="translate(1066.54 436.491)"></line><line class="g" x2="19.103" transform="translate(1066.54 456.843)"></line><line class="g" x2="19.103" transform="translate(1066.54 477.195)"></line><line class="f" x2="33.955" transform="translate(1404.924 416.139)"></line><line class="e" x2="19.313" transform="translate(1369.133 416.139)"></line><line class="f" x2="45.343" transform="translate(1369.133 436.491)"></line><line class="f" x2="20.94" transform="translate(1417.939 456.843)"></line><line class="e" x2="32.328" transform="translate(1369.133 456.843)"></line><line class="e" x2="7.925" transform="translate(1430.953 436.491)"></line><line class="f" x1="45.343" transform="translate(1393.536 477.195)"></line><line class="e" x1="7.925" transform="translate(1369.133 477.195)"></line></g></svg>