<svg xmlns="http://www.w3.org/2000/svg" id="f325c952-15c2-4b35-9f95-8b0dd7ca36f5" data-name="Layer 1" viewBox="0 0 64 64"><title>aBcdeArtboard 1</title><path d="M39.19,3.43a12.06,12.06,0,0,1,1.94.68,5.94,5.94,0,0,1,3.28,5.42V35a6.06,6.06,0,0,1-6,6.1H36.27c-.3,0-.43.1-.42.41s0,.89,0,1.49l-8.71-5,8.71-5v1.72c0,.35.08.48.47.5,2.17.07,2.17.09,2.17-2.05V10.16c0-.74-.22-.89-1-.89H6.8c-.72,0-.92.18-.92.9V34.43c0,.73.21.91,1,.9H17.56c.52,0,.75.07.73.67-.05,1.54,0,3.07,0,4.6,0,.41-.07.65-.55.56s-.66.27-.9.55A30.11,30.11,0,0,1,11,47.2a11.45,11.45,0,0,1-4.15,1.86,16,16,0,0,0,.92-3.4,16.81,16.81,0,0,0,0-4c0-.4-.2-.51-.58-.49A7.09,7.09,0,0,1,3.7,40.6,5.75,5.75,0,0,1,.16,35.15V9.7a6,6,0,0,1,4.8-6c.09,0,.18,0,.22-.14Z" fill="#01457c"></path><path d="M56.54,61.59a9.32,9.32,0,0,1-3.33-1.31,26.28,26.28,0,0,1-6.49-5.81,1.76,1.76,0,0,0-1.55-.74h-19a6.24,6.24,0,0,1-5.62-3,6.14,6.14,0,0,1-.85-3.37V22.41A6.13,6.13,0,0,1,25.63,16h.6c.61,0,1.39.26,1.78-.13s.07-1.12.11-1.7v-.33L36.8,18.8l-8.75,5V22.26c0-.46-.12-.42-.46-.44-2-.12-2-.12-2,1.81V47c0,.62.14.83.82.83H57.25c.69,0,.89-.19.88-.87V22.74c0-.91,0-.91-1-.91H46.56c-.57,0-.72-.17-.7-.71V16.66c0-.47.12-.66.63-.66h11.6A6.09,6.09,0,0,1,64,21.94c0,8.46-.06,16.91,0,25.38a6.26,6.26,0,0,1-6.1,6.41h-.52c-2.23,0-1.69-.41-2,1.84A12.56,12.56,0,0,0,56.54,61.59Z" fill="#7bc144"></path></svg>