<svg xmlns="http://www.w3.org/2000/svg" viewBox="0 0 1080 1080"><defs><style>.cls-1{isolation:isolate;}.cls-2{fill:#455666;}.cls-2,.cls-6,.cls-7{stroke:#24313e;}.cls-11,.cls-2,.cls-5,.cls-6,.cls-7{stroke-miterlimit:10;}.cls-11,.cls-2,.cls-3,.cls-4,.cls-5,.cls-6,.cls-7{stroke-width:2px;}.cls-3{fill:#b8af50;}.cls-11,.cls-3,.cls-4,.cls-5{stroke:#031439;}.cls-3,.cls-4{stroke-linecap:round;stroke-linejoin:round;}.cls-4{fill:#f4e969;}.cls-12,.cls-15,.cls-5,.cls-7,.cls-8{fill:#ebf0f5;}.cls-6{fill:#6b7e8f;}.cls-8{opacity:0.21;}.cls-12,.cls-8{mix-blend-mode:overlay;}.cls-10,.cls-11,.cls-9{fill:#9caab8;}.cls-10{fill-rule:evenodd;}.cls-13{opacity:0.2;}.cls-13,.cls-14{mix-blend-mode:multiply;}.cls-14{opacity:0.17;}.cls-15{opacity:0.28;mix-blend-mode:screen;}.cls-16{fill:none;}</style></defs><g class="cls-1"><g id="Layer_2" data-name="Layer 2"><g id="Layer_1-2" data-name="Layer 1"><rect class="cls-2" x="178.96" y="579.08" width="346.55" height="325.66"></rect><rect class="cls-3" x="507.47" y="579.08" width="36.09" height="325.66"></rect><rect class="cls-4" x="507.85" y="579.08" width="15.62" height="325.66"></rect><rect class="cls-2" x="184.86" y="579.08" width="362.92" height="41.46"></rect><rect class="cls-5" x="113.21" y="579.08" width="346.55" height="325.66"></rect><rect class="cls-2" x="120.41" y="579.08" width="36.09" height="325.66"></rect><rect class="cls-5" x="102.37" y="579.08" width="36.09" height="325.66"></rect><rect class="cls-2" x="423.68" y="579.08" width="36.09" height="325.66"></rect><rect class="cls-5" x="407.13" y="579.08" width="36.09" height="325.66"></rect><rect class="cls-5" x="96.85" y="579.08" width="362.92" height="41.46"></rect><rect class="cls-2" x="184.86" y="868.68" width="362.92" height="41.46"></rect><rect class="cls-5" x="96.85" y="868.68" width="362.92" height="41.46"></rect><circle class="cls-6" cx="277.89" cy="741.48" r="84.95"></circle><circle class="cls-7" cx="260.54" cy="741.9" r="84.95"></circle><rect class="cls-2" x="576.68" y="578.54" width="346.55" height="325.66"></rect><rect class="cls-2" x="905.19" y="578.54" width="36.09" height="325.66"></rect><rect class="cls-5" x="905.57" y="578.54" width="15.62" height="325.66"></rect><rect class="cls-2" x="582.58" y="578.54" width="362.92" height="41.46"></rect><rect class="cls-5" x="510.93" y="578.54" width="346.55" height="325.66"></rect><rect class="cls-2" x="518.14" y="578.54" width="36.09" height="325.66"></rect><rect class="cls-5" x="500.09" y="578.54" width="36.09" height="325.66"></rect><rect class="cls-2" x="821.4" y="578.54" width="36.09" height="325.66"></rect><rect class="cls-5" x="804.85" y="578.54" width="36.09" height="325.66"></rect><rect class="cls-5" x="494.57" y="578.54" width="362.92" height="41.46"></rect><rect class="cls-2" x="582.58" y="868.14" width="362.92" height="41.46"></rect><rect class="cls-5" x="494.57" y="868.14" width="362.92" height="41.46"></rect><circle class="cls-6" cx="675.61" cy="740.95" r="84.95"></circle><circle class="cls-7" cx="658.26" cy="741.37" r="84.95"></circle><rect class="cls-2" x="327.45" y="243.83" width="346.55" height="325.66"></rect><rect class="cls-2" x="655.96" y="243.83" width="36.09" height="325.66"></rect><rect class="cls-5" x="656.34" y="243.83" width="15.62" height="325.66"></rect><rect class="cls-2" x="333.34" y="243.83" width="362.92" height="41.46"></rect><rect class="cls-5" x="261.7" y="243.83" width="346.55" height="325.66"></rect><rect class="cls-2" x="268.9" y="243.83" width="36.09" height="325.66"></rect><rect class="cls-5" x="250.86" y="243.83" width="36.09" height="325.66"></rect><rect class="cls-2" x="572.16" y="243.83" width="36.09" height="325.66"></rect><rect class="cls-5" x="555.62" y="243.83" width="36.09" height="325.66"></rect><rect class="cls-5" x="245.34" y="243.83" width="362.92" height="41.46"></rect><rect class="cls-2" x="333.34" y="533.43" width="362.92" height="41.46"></rect><rect class="cls-5" x="245.34" y="533.43" width="362.92" height="41.46"></rect><circle class="cls-6" cx="439.56" cy="406.24" r="84.95"></circle><circle class="cls-5" cx="422.22" cy="406.66" r="84.95"></circle><rect class="cls-8" x="250.86" y="530.88" width="445.4" height="14.38"></rect><rect class="cls-9" x="612.42" y="701.83" width="38.03" height="38.03"></rect><rect class="cls-9" x="657.73" y="701.83" width="38.03" height="38.03"></rect><rect class="cls-9" x="612.42" y="745.47" width="38.03" height="38.03"></rect><rect class="cls-9" x="657.73" y="745.47" width="38.03" height="38.03"></rect><path class="cls-10" d="M405,405.91s-3.18,1.8,2.21,2.49c6.54.83,9.89.77,17.12-.51a29.07,29.07,0,0,0,4.52,2.28C412.57,416.89,392.22,409.3,405,405.91Zm-1.86-9.07s-3.58,2.57,1.82,3.2a66.5,66.5,0,0,0,22.1-.77,9.73,9.73,0,0,0,3.37,2.12C410.78,406.85,389.06,401.3,403.12,396.84Z"></path><path class="cls-10" d="M420,381.71c3.93,4.64-1.16,8.7-1.16,8.7s10.19-5.09,5.62-11.69c-4.26-6.16-7.55-9.23,10.61-19.45C435.05,359.27,406.67,366,420,381.71Z"></path><path class="cls-10" d="M441,413.07s2.31,2-2.62,3.38c-9.37,2.71-38.91,3.18-47.06-.49-2.93-1.33,2.62-3,4.36-3.39a11.73,11.73,0,0,1,2.86-.28c-3.25-2.35-21.25,4.26-9.19,6.38,32.92,5.77,60.15-1.63,51.65-5.6Zm-34.24-25.56s-15.06,3.37-5.38,4.8c4.09.6,12.26.58,19.87,0,6.22-.44,12.48-1.48,12.48-1.48a27,27,0,0,0-3.81,2c-15.3,3.82-44.74,1.57-36.2-2.42a28.36,28.36,0,0,1,13-2.91Zm26.75,15.41c15.61-7.86,8.54-15.69,3.52-14.71a12.09,12.09,0,0,0-1.78.45,2.82,2.82,0,0,1,1.34-1c9.94-3.35,17.38,10.49-3.39,15.66A1.48,1.48,0,0,0,433.48,402.92Z"></path><path class="cls-10" d="M424.92,342.26s8.47,8.7-8.43,21.68c-13.55,10.43-3.27,16.6-.31,23.54-7.74-7.16-13.4-13.46-9.48-19.2,5.77-8.42,21.5-12.34,18.22-26Z"></path><path class="cls-10" d="M407.78,424.42c14.87,1.14,37.74,0,38.37-7.07,0,0-1.07,2.65-12.36,4.62a122,122,0,0,1-37.66.09S398,423.66,407.78,424.42Z"></path><path class="cls-10" d="M445.2,437.53h-.45v-.26l1.23,0v.25h-.45l0,1.27h-.31Zm2.44.1h0l-.46,1.2H447l-.43-1.21h0l0,1.21h-.3l0-1.52h.44l.4,1.08.43-1.07h.43v1.52h-.3l0-1.2ZM405,451.29a6.77,6.77,0,0,1-4.24,1.85,2.7,2.7,0,0,1-2.89-3c0-2,1.15-3.41,5.56-3.35l1.63,0-.06,4.48Zm3.82,4.42.18-13.52c0-3.46-1.9-5.77-6.65-5.83a17.74,17.74,0,0,0-7.2,1.46l.53,2.41a16.67,16.67,0,0,1,5.56-1c2.74,0,3.91,1.15,3.88,3.43l0,1.71-1.36,0c-6.65-.08-9.69,2.46-9.74,6.34,0,3.34,1.91,5.27,5.63,5.31a8.58,8.58,0,0,0,5.88-2.35l.28,2.05Zm12.93.17-4.83-.06-5.57-19,4.22.06L419,448.55l.76,3.5a72.71,72.71,0,0,0,4-15.07l4.1,0A77.14,77.14,0,0,1,421.74,455.88Zm18.59-4.13a6.77,6.77,0,0,1-4.25,1.84,2.68,2.68,0,0,1-2.88-3c0-2,1.14-3.4,5.55-3.35l1.63,0Zm3.81,4.42.18-13.53c0-3.45-1.9-5.76-6.65-5.82a17.57,17.57,0,0,0-7.2,1.46l.53,2.4a16.93,16.93,0,0,1,5.57-1c2.73,0,3.9,1.16,3.87,3.44l0,1.71-1.37,0c-6.65-.09-9.69,2.46-9.74,6.33,0,3.35,1.91,5.27,5.63,5.32a8.59,8.59,0,0,0,5.89-2.36l.28,2.06Zm-54.51,2.51a10.19,10.19,0,0,1-4.89,3.55L382.86,460a8,8,0,0,0,3.39-3.1c.53-1,.76-2.32.8-5.47l.28-21.6,4.11.05-.27,21.31C391.11,455.34,390.76,457,389.63,458.68Z"></path><g id="layer1"><g id="g1894"><path id="path8615" class="cls-9" d="M260.09,679.24c-32,0-30,13.87-30,13.87l0,14.37h30.52v4.31H218s-20.47-2.32-20.47,30,17.87,31.13,17.87,31.13h10.66v-15S225.5,740,243.65,740h30.27s17,.28,17-16.43V696S293.51,679.24,260.09,679.24Zm-16.83,9.67a5.49,5.49,0,1,1-5.49,5.49A5.48,5.48,0,0,1,243.26,688.91Z"></path><path id="path8620" class="cls-9" d="M261,804.56c32,0,30-13.86,30-13.86l0-14.37H260.43V772h42.64s20.46,2.32,20.46-29.94-17.86-31.13-17.86-31.13H295v15s.57,17.86-17.58,17.86H247.16s-17-.28-17,16.43v27.63S227.58,804.56,261,804.56Zm16.82-9.66a5.49,5.49,0,1,1,5.49-5.49A5.49,5.49,0,0,1,277.82,794.9Z"></path></g></g><rect class="cls-11" x="178.8" y="910.14" width="856.12" height="35.16" rx="8.53"></rect><rect class="cls-5" x="37.43" y="910.14" width="851.38" height="35.16" rx="8.53"></rect><path class="cls-12" d="M884.73,914.19c0,2.24-184,3.45-413.68,3.45s-418-1.21-418-3.45,186.18-4.05,415.84-4.05S884.73,912,884.73,914.19Z"></path><path class="cls-13" d="M53.05,941.25c0-2.24,186.05-1.89,415.84-1.89s416.3,3.7,416.3,5.94-186.28,0-416.07,0S53.05,943.48,53.05,941.25Z"></path><rect class="cls-14" x="247.83" y="563.85" width="445.4" height="7.19"></rect><rect class="cls-14" x="102.58" y="620.62" width="839.95" height="13.42"></rect><rect class="cls-14" x="99.5" y="612.25" width="839.95" height="6.71"></rect><rect class="cls-15" x="99.5" y="582.44" width="848.78" height="6.25"></rect><rect class="cls-14" x="96.85" y="901.22" width="848.64" height="8.91"></rect><rect class="cls-15" x="96.87" y="868.82" width="395.74" height="6.44" transform="translate(7.62 -2.54) rotate(0.5)"></rect><rect class="cls-15" x="492.54" y="868.68" width="452.95" height="6.56"></rect><rect class="cls-16" width="1080" height="1080"></rect></g></g></g></svg>