<svg xmlns="http://www.w3.org/2000/svg" width="540.443" height="494.801" viewBox="0 0 540.443 494.801"><g transform="translate(0.001 0)"><path d="M721.244,671.15l5.193,11.645c-4.221-.672-8.147,2.933-8.235,7.563s3.677,9.447,7.9,10.105c-.807,3.595-4.289,5.179-7.311,6.632s-6.279,3.863-6.055,7.693c.181,3.076,2.724,5.791,5.424,6.883s5.534.924,8.27.741c-4.145,4.336-4.549,12.485-.909,18.332s10.91,8.725,16.353,6.475c-3.846,4.784-3.01,13.545,1.763,18.483,4.812,4.977,11.785,5.459,17.881,4.935a79.2,79.2,0,0,0,42.525-16.853c4.66-3.7,9.013-8.058,11.672-13.739a25.143,25.143,0,0,0,.966-19.338c.668,8.1,8.774,14.495,16.066,14.852s13.658-3.749,19.069-8.433c7.195-6.229,13.857-14.96,12.869-25.732-.489-5.333-2.818-10.462-5.1-15.43l-4.429-9.632c-1.788-3.888-3.617-7.842-6.308-11.106s-6.427-5.789-10.165-5.765c.855-3.9,1.713-7.955,1-12.1s-3.459-8.445-7.189-9.416c-4.747-1.237-8.771,3.144-13.544,2.731-4.594-.4-8.39-5.008-12.851-6.835a10.287,10.287,0,0,0-11.1,1.92c-2.828,2.761-4.007,7.425-2.992,11.838.889,3.866,3.255,7.276,4.691,11s1.659,8.523-1.1,10.559c-3.328,2.457-8.393-.886-10.993-4.932s-4.093-8.943-7.38-12.345c-3.88-4.015-9.954-4.956-13.95-2.161s-5.523,9.055-3.509,14.375c1.647,4.351,5.419,8.752,4.111,12.849-1.383,4.33-7.434,3.782-11.084.721s-6.073-7.669-9.679-10.8a15,15,0,0,0-12.641-3.681,13.014,13.014,0,0,0-9.326,8.333" transform="translate(-374.995 -276.001)" fill="#e6e6e6"></path><path d="M852.956,629.688l-10.775,5.006a8.272,8.272,0,0,1-5.231.705,3.565,3.565,0,0,1-2.9-2.625l-2.507-11.711c-.473-2.209,1.356-4.823,4.35-6.214l5.951-2.765c2.994-1.391,6.171-1.1,7.554.683l7.333,9.469a3.565,3.565,0,0,1,.136,3.909A8.272,8.272,0,0,1,852.956,629.688Z" transform="translate(-422.625 -267.263)" fill="#3f3d56"></path><path d="M300.608,182.882a212,212,0,0,1,46.415-74.3C364.394,90.553,391.43,91.3,391.43,91.3l.154-.192A52.45,52.45,0,0,1,447.013,73.8c2.578.74,4.56,1.068,5.5.738,17.192-6.017,16.384-19.6,31.217-30.539C509.705,24.838,595.851,46.781,608,82.032c9.845,28.57,53.792,42.417,70.211,64.27q3.851,5.126,7.557,10.37,1.738,2.436,3.436,4.91a437.427,437.427,0,0,1,31.23,52.795,307.916,307.916,0,0,1,15.631,36.942c17.123,50.056,11.267,87.35-35.946,78.136q-8.383-1.64-16.364-2.935-11.556-1.886-22.306-3.1-14.476-1.646-27.545-2.157-4.394-.177-8.627-.237c-41.724-.579-72.674,7.274-96.252,19.465q-6,3.092-11.363,6.542a141.371,141.371,0,0,0-15.619,11.57,152.653,152.653,0,0,0-18.818,19.282l-.313.383c-27.578,33.733-36.653,71.077-55.836,77.652-82,28.112-133.866-73.794-139.185-173.48q-.4-7.535-.445-15.027-.025-3.349.033-6.68c.084-5.793.34-11.549.767-17.236q.24-3.261.556-6.488c.232-2.32.485-4.626.777-6.917A214.489,214.489,0,0,1,300.608,182.882Z" transform="translate(-204.405 -36.897)" fill="#0c7ff2"></path><path d="M729.962,371.819c-6.549,3.049-6.657,16.706-4.6,21.131l3.721,8.01L752.8,389.938l-3.721-8.01C747.022,377.505,736.515,368.78,729.962,371.819Z" transform="translate(-379.59 -170.988)" fill="#3f3d56"></path><path d="M625.655,522.659a2.594,2.594,0,0,1-1.094-4.947l122.5-56.917a2.593,2.593,0,1,1,2.186,4.7h0l-122.5,56.917A2.58,2.58,0,0,1,625.655,522.659Z" transform="translate(-339.029 -206.833)" fill="#3f3d56"></path><rect width="38.612" height="130.365" transform="translate(347.437 240.327) rotate(-24.92)" fill="#e6e6e6"></rect><path d="M564.033,162.093c-6.549,3.049-6.657,16.706-4.6,21.131l3.721,8.01,23.721-11.021-3.722-8.01C581.093,167.779,570.586,159.054,564.033,162.093Z" transform="translate(-313.033 -86.863)" fill="#3f3d56"></path><path d="M798.528,652.383l-10.775,5.006a8.272,8.272,0,0,1-5.231.705,3.565,3.565,0,0,1-2.9-2.625l-2.507-11.711c-.473-2.209,1.356-4.823,4.35-6.214l5.951-2.765c2.994-1.391,6.172-1.1,7.554.683l7.333,9.469a3.566,3.566,0,0,1,.136,3.909A8.271,8.271,0,0,1,798.528,652.383Z" transform="translate(-400.793 -276.366)" fill="#3f3d56"></path><path d="M743.209,679.829l-10.776,5.006a8.272,8.272,0,0,1-5.231.705,3.565,3.565,0,0,1-2.9-2.625L721.8,671.2c-.473-2.209,1.356-4.823,4.35-6.214l5.951-2.765c2.994-1.391,6.172-1.1,7.555.683l7.333,9.469a3.566,3.566,0,0,1,.136,3.909,8.272,8.272,0,0,1-3.912,3.543Z" transform="translate(-378.604 -287.375)" fill="#3f3d56"></path><rect width="38.612" height="263.518" transform="translate(257.408 134.836) rotate(-24.92)" fill="#e6e6e6"></rect><path d="M546.319,397.2l-3.929-8.646,2.262-1.043,3.917,8.619L605.292,521.9l-2.26,1.05" transform="translate(-217.563 -155.438)" fill="#3f3d56"></path><path d="M620.319,385.2l-3.929-8.646,2.262-1.043,3.917,8.619L679.292,509.9l-2.26,1.05" transform="translate(-247.245 -150.625)" fill="#3f3d56"></path><path d="M625.111,242.757,577.664,264.8c-3.021-4.7-12.127-28.782-10.082-35.928l-1.535-6.814,32.761-15.221,4.385,5.394C609.7,214.23,622.375,236.85,625.111,242.757Z" transform="translate(-316.16 -105.063)" fill="#e6e6e6"></path><path d="M597.161,196.1l-33.807,15.707c-1.248.58-2.577.367-2.968-.476a1.168,1.168,0,0,1-.1-.385l-1.75-18.666a2.5,2.5,0,0,1,1.654-2.19l22.42-10.417a2.5,2.5,0,0,1,2.74.149L598.484,193.2c.672.684.307,1.855-.815,2.615a3.639,3.639,0,0,1-.508.287Z" transform="translate(-313.144 -94.038)" fill="#e6e6e6"></path><path d="M650.989,407.144a4.568,4.568,0,0,1-1.086-.128,3.356,3.356,0,0,1-2.334-1.812L626.9,360.718c-.855-1.842.293-4.2,2.56-5.25l30.265-14.062c2.267-1.054,4.807-.412,5.663,1.43l20.669,44.487a3.355,3.355,0,0,1-.12,2.952,5.094,5.094,0,0,1-2.44,2.3l-30.265,14.061A5.342,5.342,0,0,1,650.989,407.144Z" transform="translate(-340.456 -158.837)" fill="#3f3d56"></path><rect width="38.612" height="130.365" transform="translate(279.658 271.31) rotate(-24.92)" fill="#e6e6e6"></rect><path d="M590.847,203.584l-10.269,4.771c-1.982.921-4.655-.613-5.959-3.419s-.752-5.839,1.23-6.759l10.269-4.771c1.982-.921,4.655.613,5.959,3.419S592.828,202.664,590.847,203.584Z" transform="translate(-319.315 -99.568)" fill="#3f3d56"></path><path d="M617.927,423.023c-6.549,3.049-6.657,16.706-4.6,21.131l3.721,8.01,23.721-11.021-3.721-8.01C634.987,428.709,624.48,419.984,617.927,423.023Z" transform="translate(-334.651 -191.526)" fill="#3f3d56"></path><path d="M437.943,375.266c-2.313,1.541-4.68-2.127-2.323-3.6C437.933,370.126,440.3,373.793,437.943,375.266Z" transform="translate(-263.452 -171.03)" fill="#e6e6e6"></path><path d="M839.943,287.266c-2.313,1.541-4.68-2.127-2.323-3.6C839.933,282.126,842.3,285.793,839.943,287.266Z" transform="translate(-424.702 -135.732)" fill="#e6e6e6"></path><path d="M565.943,357.266c-2.313,1.541-4.68-2.127-2.323-3.6C565.933,352.126,568.3,355.793,565.943,357.266Z" transform="translate(-314.795 -163.81)" fill="#e6e6e6"></path><path d="M437.943,597.266c-2.313,1.541-4.68-2.127-2.323-3.6C437.933,592.126,440.3,595.793,437.943,597.266Z" transform="translate(-263.452 -260.078)" fill="#e6e6e6"></path><path d="M634.943,96.266c-2.313,1.541-4.68-2.127-2.323-3.6C634.933,91.125,637.3,94.793,634.943,96.266Z" transform="translate(-342.473 -59.118)" fill="#e6e6e6"></path><path d="M444.943,214.266c-2.313,1.541-4.68-2.127-2.323-3.6C444.933,209.126,447.3,212.793,444.943,214.266Z" transform="translate(-266.26 -106.45)" fill="#e6e6e6"></path><path d="M568.866,144.854l-1.471-.323.322-1.472-.981-.215-.323,1.472-1.471-.322-.215.981,1.471.323-.322,1.471.981.215.323-1.472,1.471.323Z" transform="translate(-226.522 -57.297)" fill="#e6e6e6"></path><path d="M168.769,349.632l-1.471-.323.322-1.471-.981-.215-.323,1.471-1.472-.322-.215.981,1.472.323-.322,1.472.981.214.323-1.471,1.471.322Z" transform="translate(-66.036 -139.438)" fill="#e6e6e6"></path><path d="M815.317,477.1a5.1,5.1,0,0,1-6.761-2.472L802.5,461.594a5.09,5.09,0,1,1,9.233-4.29l6.056,13.035A5.1,5.1,0,0,1,815.317,477.1Z" transform="translate(-410.815 -204.347)" fill="#3f3d56"></path><path d="M643.317,557.1a5.1,5.1,0,0,1-6.761-2.472L630.5,541.594a5.091,5.091,0,0,1,9.233-4.29l6.056,13.035A5.1,5.1,0,0,1,643.317,557.1Z" transform="translate(-341.822 -236.437)" fill="#3f3d56"></path><path d="M775.495,424.27l-40.608,18.867c-2.585-4.022-10.379-24.634-8.629-30.749l.859-6.841,24.246-11.9,5.373,4.495C764.306,395.587,775.433,414.345,775.495,424.27Z" transform="translate(-380.322 -179.997)" fill="#e6e6e6"></path><path d="M765,433.443l-10.269,4.771c-1.982.921-5-1.349-6.72-5.059s-1.514-7.478.468-8.4l10.269-4.771c1.982-.921,5,1.349,6.72,5.059S766.983,432.522,765,433.443Z" transform="translate(-388.681 -190.478)" fill="#3f3d56"></path><path d="M480.319,440.2l-3.929-8.646,2.262-1.043,3.917,8.618L539.292,564.9l-2.26,1.05" transform="translate(-191.089 -172.686)" fill="#3f3d56"></path><path d="M662.126,475.473,621.518,494.34c-5.991-3.093-15.146-23.333-8.629-30.749l.859-6.841,24.246-11.9,5.373,4.495C648.938,451.059,659.784,470.419,662.126,475.473Z" transform="translate(-334.049 -200.536)" fill="#e6e6e6"></path><path d="M652.027,482.827,641.758,487.6c-1.982.921-4.809-.945-6.3-4.159s-1.1-6.579.886-7.5l10.269-4.771c1.982-.921,4.809.946,6.3,4.16S654.009,481.906,652.027,482.827Z" transform="translate(-343.638 -210.996)" fill="#3f3d56"></path><circle cx="61.685" cy="61.685" r="61.685" transform="translate(40.898 60.993)" fill="#ff6584"></circle><path d="M739.635,275.693l37.486-109.481-41.162,108.17a2.061,2.061,0,1,0,3.676,1.311Z" transform="translate(-384.136 -88.767)" fill="#f0f0f0" opacity="0.3"></path><path d="M599.844,202.566q-11.007,3.658-24.405,7.187c-46.2,12.164-108.128,21.652-174.374,26.718s-128.9,5.1-176.409.1c-23.145-2.435-41.452-5.937-54.411-10.409-13.72-4.734-20.929-10.44-21.428-16.957-.971-12.7,24.083-23.871,45.271-31.009l.574,1.7c-29.1,9.8-44.741,20.162-44.052,29.169.877,11.472,27.934,20.845,74.234,25.716,47.409,4.987,109.943,4.949,176.084-.109s127.954-14.527,174.053-26.664c45.02-11.852,70.339-25.23,69.462-36.7-.728-9.525-19.5-17.673-52.868-22.945l.28-1.774c24.243,3.83,53.356,11.2,54.379,24.582.5,6.517-5.76,13.252-18.6,20.017A187.691,187.691,0,0,1,599.844,202.566Z" transform="translate(-148.791 -80.898)" fill="#3f3d56"></path><circle cx="6.409" cy="6.409" r="6.409" transform="translate(462.769 218.253)" fill="#ff6584"></circle><circle cx="6.409" cy="6.409" r="6.409" transform="translate(503.493 391.929)" fill="#f2f2f2"></circle><circle cx="12.496" cy="12.496" r="12.496" transform="translate(278.815 418.78)" fill="#f2f2f2"></circle><circle cx="6.409" cy="6.409" r="6.409" transform="translate(189.679 265.564)" fill="#3f3d56"></circle><path d="M687.226,478.768l27.654,7.158,16.961,33.315-28.674,1.125Z" transform="translate(-275.659 -192.042)" fill="#e6e6e6"></path><path d="M580.645,398.574l15.22,15.228,38.656,83.577-7.117,6.149Z" transform="translate(-232.907 -159.875)" fill="#ccc"></path><path d="M525.386,421.624l1.194,21.5,36.486,84.547,9.328-1.2Z" transform="translate(-210.742 -169.121)" fill="#ccc"></path><path d="M513.748,566.637l-14.894,24.376,10.979,35.735,21.388-19.133Z" transform="translate(-200.1 -227.288)" fill="#e6e6e6"></path><path d="M603.931,527.348q-11.6,0-25.426-.877c-47.679-3.028-109.439-13.554-173.9-29.64s-123.927-35.809-167.438-55.537c-21.2-9.61-37.464-18.707-48.351-27.038-11.527-8.82-16.569-16.508-14.986-22.849,3.083-12.354,30.382-15.057,52.74-15.149l.008,1.8c-30.7.126-48.817,5.023-51,13.787-2.786,11.163,19.935,28.591,62.336,47.816,43.416,19.684,102.771,39.37,167.132,55.431s126.005,26.568,173.58,29.59c46.46,2.951,74.706-1.759,77.492-12.923,2.313-9.269-12.935-22.922-42.934-38.447l.826-1.6c21.8,11.28,47.1,27.46,43.851,40.478-1.583,6.341-9.645,10.759-23.965,13.129A187.668,187.668,0,0,1,603.931,527.348Z" transform="translate(-158.72 -173.02)" fill="#3f3d56"></path></g></svg>