<svg xmlns="http://www.w3.org/2000/svg" viewBox="0 0 910.44 936.53"><defs><style>.cls-1{fill:#cee0f2;}.cls-2{fill:none;}.cls-3{fill:#0c7ff2;}.cls-4{fill:#2e2e76;}.cls-5{fill:#fff;}.cls-6{fill:#8080a6;}</style></defs><g id="Layer_2" data-name="Layer 2"><g id="Layer_1-2" data-name="Layer 1"><path class="cls-1" d="M556.61,440.47c0,.5,0,1,0,1.53v-1.53ZM503.2,442c0-.51,0-1,0-1.53h0Z"></path><path class="cls-1" d="M276.31,602a229,229,0,0,1-23.73-43.55,234.88,234.88,0,0,1-6.92-158.21,25.37,25.37,0,0,0-11.55-29.52l-163-94.09A25.36,25.36,0,0,0,34.94,289,484.72,484.72,0,0,0,46.86,677.59a468.8,468.8,0,0,0,23.73,43.55c71.71,116.63,191.87,198.41,331.27,215.2a25.44,25.44,0,0,0,28.57-25.2V717a25.3,25.3,0,0,0-19.93-24.79C355.47,680.45,307.94,647.51,276.31,602ZM839.08,276.14,676.21,370.45A25.36,25.36,0,0,0,664.69,400,234.91,234.91,0,0,1,658,558.21a228.64,228.64,0,0,1-23.67,43.57c-31.64,45.62-79.24,78.64-134.37,90.39A25.3,25.3,0,0,0,480,717V911.14a25.44,25.44,0,0,0,28.57,25.2c139.59-16.81,259.9-98.8,331.58-215.7a471.17,471.17,0,0,0,23.67-43.58,484.7,484.7,0,0,0,11.45-388.63A25.35,25.35,0,0,0,839.08,276.14ZM653.41,326.36l163.21-94.51a25.44,25.44,0,0,0,8-36.63C746.5,83.44,621.88,8.54,480,.69Q467.7,0,455.22,0T430.43.69c-142.07,7.87-266.84,83-345,195a25.43,25.43,0,0,0,8.06,36.62l163.32,94.3A25.38,25.38,0,0,0,289,321c35.25-41.91,85.14-70.36,141.46-76.87a215.59,215.59,0,0,1,49.58,0c56.21,6.5,106,34.86,141.27,76.65A25.38,25.38,0,0,0,653.41,326.36Z"></path><line class="cls-2" x1="644.28" y1="477.2" x2="629.66" y2="477.2"></line><path class="cls-3" d="M556.65,477.2V442c0-.51,0-1,0-1.53a26.73,26.73,0,0,0-53.37,0c0,.5,0,1,0,1.53v35.2H280.78c3.77,96.06,80.42,172.74,174.44,172.74S625.89,573.26,629.66,477.2Z"></path><path class="cls-4" d="M629.81,469.77q0,3.74-.15,7.43h-73l0-36.73a26.73,26.73,0,0,0-53.37,0l0,36.73H393.58v36.63a26.73,26.73,0,1,1-53.45,0V477.2H280.78q-.15-3.69-.15-7.43c0-99.5,78.16-180.17,174.59-180.17S629.81,370.27,629.81,469.77Z"></path><path class="cls-5" d="M518.15,587.73a22.27,22.27,0,0,1-7,10.13,19.51,19.51,0,0,1-13.7,4.08l-.9,0-.89,0V602h-64v0l-.68,0-.69,0a22.32,22.32,0,0,1-15.45-5.1,26.3,26.3,0,0,1-7.93-11.76A28.58,28.58,0,0,1,406,569.9a22.34,22.34,0,0,1,8.89-13.58,11.68,11.68,0,0,0,3.58-4.12,11.22,11.22,0,0,0,1.26-5.23,26.35,26.35,0,0,1,6.56-17.87,33,33,0,0,1,14.2-9.3,36.72,36.72,0,0,1,5.64-1.43,34,34,0,0,1,5.55-.46,29.48,29.48,0,0,1,12.72,2.78,26.5,26.5,0,0,1,9.91,8,11.67,11.67,0,0,0,5.15,3.89,10.67,10.67,0,0,0,6.23.41,14.59,14.59,0,0,1,7.53.21,18.13,18.13,0,0,1,11.55,10.5,15.08,15.08,0,0,1,1.06,5.48,14.53,14.53,0,0,1-.14,2,10.36,10.36,0,0,0,.95,6,12.45,12.45,0,0,0,4.25,4.86,19.48,19.48,0,0,1,8,12.09A25.79,25.79,0,0,1,518.15,587.73Z"></path><path class="cls-3" d="M492.74,551.7a7.24,7.24,0,1,1-2.12-5.12A7.22,7.22,0,0,1,492.74,551.7Z"></path><path class="cls-3" d="M503.3,581.16a7.24,7.24,0,1,1-2.12-5.13A7.22,7.22,0,0,1,503.3,581.16Z"></path><path class="cls-3" d="M436.39,578.42a9.34,9.34,0,1,1-2.73-6.61A9.32,9.32,0,0,1,436.39,578.42Z"></path><path class="cls-3" d="M455,544.46a9.9,9.9,0,1,1-2.9-7A9.86,9.86,0,0,1,455,544.46Z"></path><path class="cls-3" d="M427.26,576.61q8.52,1.15,17.1,2t17.18,1.34c2.87.16,5.74.31,8.62.42s5.74.16,8.62.15l8.63.06,8.63.07,0,.52,0,.52-8.65.26-8.66.26c-2.88.12-5.77.17-8.66.18s-5.77,0-8.66-.1q-8.65-.18-17.32-.69t-17.3-1.36l.21-1.81Z"></path><path class="cls-3" d="M426.82,577.73a267.41,267.41,0,0,0,57.94-27.24l.74,1.21.74,1.21a273,273,0,0,1-28.73,14.87,269.66,269.66,0,0,1-30.25,11.33l-.22-.69Z"></path><polygon class="cls-3" points="426.37 578.06 435.03 560.89 443.7 543.72 445.08 544.46 446.46 545.19 437.09 561.99 427.73 578.78 427.05 578.42 426.37 578.06"></polygon><polygon class="cls-3" points="485.26 553.05 465.12 549.01 444.99 544.97 445.08 544.46 445.17 543.94 465.46 547.15 485.74 550.35 485.5 551.7 485.26 553.05"></polygon><polygon class="cls-3" points="486.17 551.46 491.8 566.06 497.43 580.67 496.06 581.16 494.69 581.65 489.76 566.79 484.83 551.94 485.5 551.7 486.17 551.46"></polygon><path class="cls-5" d="M402.56,362.78v5.33H380.33v-28.7H402v5.33H386.94V351h13.32v5.16H386.94v6.64Z"></path><path class="cls-5" d="M429.94,355.49v12.62h-6.39V356.47c0-3.57-1.64-5.21-4.47-5.21-3.08,0-5.29,1.89-5.29,5.95v10.9h-6.4V346.06h6.11v2.58a9.66,9.66,0,0,1,7.3-2.91C426,345.73,429.94,348.76,429.94,355.49Z"></path><path class="cls-5" d="M458.73,346.06v18.36c0,8.2-4.43,12-12.39,12-4.18,0-8.24-1-10.82-3l2.54-4.59a13.17,13.17,0,0,0,7.79,2.5c4.51,0,6.48-2,6.48-6v-.94a9.06,9.06,0,0,1-7,2.75c-6.11,0-11-4.22-11-10.66s4.92-10.66,11-10.66a8.83,8.83,0,0,1,7.3,3.16v-2.83Zm-6.32,10.33c0-3.24-2.42-5.41-5.78-5.41s-5.82,2.17-5.82,5.41,2.46,5.41,5.82,5.41S452.41,359.63,452.41,356.39Z"></path><path class="cls-5" d="M484.19,355.53v12.58h-6v-2.74c-1.19,2-3.48,3.07-6.72,3.07-5.17,0-8.24-2.87-8.24-6.68s2.74-6.6,9.47-6.6h5.08c0-2.75-1.64-4.35-5.08-4.35a10.62,10.62,0,0,0-6.36,2.05l-2.29-4.47a17,17,0,0,1,9.51-2.66C480.29,345.73,484.19,348.84,484.19,355.53Zm-6.4,5.61v-2.25h-4.38c-3,0-3.94,1.11-3.94,2.58s1.35,2.67,3.61,2.67A4.71,4.71,0,0,0,477.79,361.14Z"></path><path class="cls-5" d="M513,346.06v18.36c0,8.2-4.43,12-12.38,12-4.18,0-8.24-1-10.83-3l2.55-4.59a13.15,13.15,0,0,0,7.79,2.5c4.51,0,6.47-2,6.47-6v-.94a9.06,9.06,0,0,1-7,2.75c-6.1,0-11-4.22-11-10.66s4.93-10.66,11-10.66a8.83,8.83,0,0,1,7.3,3.16v-2.83Zm-6.31,10.33c0-3.24-2.42-5.41-5.78-5.41s-5.83,2.17-5.83,5.41,2.46,5.41,5.83,5.41S506.66,359.63,506.66,356.39Z"></path><path class="cls-5" d="M540.4,358.89H523.71c.62,2.75,2.95,4.43,6.32,4.43a7.5,7.5,0,0,0,5.53-2.13l3.4,3.69c-2.05,2.33-5.12,3.56-9.1,3.56-7.62,0-12.58-4.79-12.58-11.36s5-11.35,11.76-11.35c6.48,0,11.48,4.34,11.48,11.44C540.52,357.66,540.44,358.36,540.4,358.89Zm-16.77-3.73H534.5a5.51,5.51,0,0,0-10.87,0Z"></path><path class="cls-6" d="M408.15,400.77v2.34H394.43V384.22h13.34v2.35H397.13v5.8h9.48v2.3h-9.48v6.1Z"></path><path class="cls-6" d="M421,403.11l-4.13-5.48-4.19,5.48h-2.89l5.64-7.31-5.37-7h2.89l3.94,5.15,3.92-5.15h2.83l-5.4,7,5.7,7.31Z"></path><path class="cls-6" d="M424.92,396c0-4.26,3.15-7.29,7.55-7.29a6.38,6.38,0,0,1,5.83,3.05l-2,1.27a4.45,4.45,0,0,0-3.88-2.05,5,5,0,0,0,0,10.07,4.45,4.45,0,0,0,3.88-2.05l2,1.24a6.39,6.39,0,0,1-5.83,3.08A7.16,7.16,0,0,1,424.92,396Z"></path><path class="cls-6" d="M455.05,394.88v8.23h-2.6v-7.93c0-2.81-1.4-4.19-3.86-4.19-2.75,0-4.53,1.65-4.53,4.76v7.36h-2.59v-20h2.59v7.74a6.22,6.22,0,0,1,5.05-2.16C452.59,388.67,455.05,390.67,455.05,394.88Z"></path><path class="cls-6" d="M471.19,394.48v8.63h-2.46v-1.89c-.86,1.3-2.45,2.06-4.69,2.06-3.24,0-5.29-1.73-5.29-4.21,0-2.3,1.48-4.19,5.75-4.19h4.1v-.51c0-2.19-1.27-3.46-3.83-3.46a7.29,7.29,0,0,0-4.54,1.54l-1.08-1.94a9.53,9.53,0,0,1,5.91-1.84C469,388.67,471.19,390.56,471.19,394.48Zm-2.59,4.26v-2h-4c-2.56,0-3.29,1-3.29,2.22,0,1.43,1.19,2.32,3.16,2.32A4.15,4.15,0,0,0,468.6,398.74Z"></path><path class="cls-6" d="M489.58,394.88v8.23H487v-7.93c0-2.81-1.41-4.19-3.86-4.19-2.76,0-4.54,1.65-4.54,4.76v7.36H476v-14.3h2.48V391a6.14,6.14,0,0,1,5.16-2.3C487.12,388.67,489.58,390.67,489.58,394.88Z"></path><path class="cls-6" d="M508.15,388.81v12.36c0,5.05-2.56,7.34-7.42,7.34a10.62,10.62,0,0,1-6.83-2.13l1.24-2a8.69,8.69,0,0,0,5.51,1.87c3.37,0,4.91-1.57,4.91-4.81v-1.13a6.55,6.55,0,0,1-5.16,2.21c-4.13,0-7.26-2.81-7.26-6.94s3.13-6.91,7.26-6.91a6.56,6.56,0,0,1,5.3,2.35v-2.21Zm-2.54,6.77a4.56,4.56,0,0,0-4.91-4.64c-2.89,0-4.94,1.86-4.94,4.64a4.93,4.93,0,0,0,9.85,0Z"></path><path class="cls-6" d="M526,396.82H514.36c.33,2.52,2.35,4.19,5.19,4.19a5.36,5.36,0,0,0,4.13-1.73l1.43,1.68a7.2,7.2,0,0,1-5.64,2.32c-4.62,0-7.7-3-7.7-7.32a7,7,0,0,1,7.18-7.29c4.13,0,7.08,3,7.08,7.37A7.19,7.19,0,0,1,526,396.82ZM514.36,395h9.18a4.62,4.62,0,0,0-9.18,0Z"></path><path class="cls-4" d="M387.35,82.81h13c9.39,0,15.83,5.66,15.83,14.35s-6.44,14.35-15.83,14.35h-13Zm12.71,23.25c5.69,0,9.43-3.41,9.43-8.9s-3.74-8.9-9.43-8.9H394v17.8Z"></path><path class="cls-4" d="M442.24,102.28H425.56c.61,2.75,2.95,4.43,6.31,4.43a7.51,7.51,0,0,0,5.54-2.13l3.4,3.69c-2.05,2.34-5.13,3.57-9.1,3.57-7.63,0-12.59-4.8-12.59-11.36s5-11.36,11.77-11.36c6.48,0,11.48,4.35,11.48,11.44C442.37,101.05,442.29,101.75,442.24,102.28Zm-16.76-3.73h10.86a5.51,5.51,0,0,0-10.86,0Z"></path><path class="cls-4" d="M444.5,109.46l2.13-4.59A15.11,15.11,0,0,0,454.3,107c2.95,0,4.06-.78,4.06-2,0-3.61-13.33.08-13.33-8.73,0-4.19,3.77-7.14,10.21-7.14a18.16,18.16,0,0,1,8.49,1.93L461.6,95.6A12.7,12.7,0,0,0,455.24,94c-2.87,0-4.1.9-4.1,2.05,0,3.77,13.33.12,13.33,8.82,0,4.1-3.82,7-10.42,7A19,19,0,0,1,444.5,109.46Z"></path><path class="cls-4" d="M467.62,82.81a3.66,3.66,0,0,1,4-3.57c2.38,0,4,1.48,4,3.45a4,4,0,0,1-8,.12Zm.78,6.64h6.4v22.06h-6.4Z"></path><path class="cls-4" d="M503.5,89.45v18.37c0,8.2-4.43,12-12.38,12-4.19,0-8.25-1-10.83-3l2.54-4.59a13.24,13.24,0,0,0,7.79,2.5c4.51,0,6.48-2,6.48-6v-.94a9.09,9.09,0,0,1-7,2.74c-6.11,0-11-4.22-11-10.66s4.92-10.66,11-10.66a8.86,8.86,0,0,1,7.3,3.16V89.45Zm-6.32,10.33c0-3.24-2.42-5.41-5.78-5.41s-5.82,2.17-5.82,5.41,2.46,5.41,5.82,5.41S497.18,103,497.18,99.78Z"></path><path class="cls-4" d="M532,98.88v12.63H525.6V99.86c0-3.56-1.64-5.2-4.47-5.2-3.08,0-5.29,1.88-5.29,5.94v10.91h-6.4V89.45h6.11V92a9.68,9.68,0,0,1,7.3-2.91C528.06,89.12,532,92.16,532,98.88Z"></path><path class="cls-4" d="M364.07,127.61h8c6.07,0,10.2,3.84,10.2,9.45s-4.13,9.45-10.2,9.45h-8Zm7.8,16.55c4.67,0,7.67-2.86,7.67-7.1s-3-7.1-7.67-7.1h-5.1v14.2Z"></path><path class="cls-4" d="M398.87,140.22H387.26c.33,2.51,2.35,4.18,5.19,4.18a5.35,5.35,0,0,0,4.13-1.72l1.43,1.67a7.2,7.2,0,0,1-5.64,2.32c-4.62,0-7.7-3-7.7-7.31a7,7,0,0,1,7.18-7.29c4.13,0,7.08,3,7.08,7.37A7.39,7.39,0,0,1,398.87,140.22Zm-11.61-1.86h9.18a4.62,4.62,0,0,0-9.18,0Z"></path><path class="cls-4" d="M400.71,145l1.08-2.05a9.24,9.24,0,0,0,5,1.48c2.4,0,3.4-.73,3.4-1.94,0-3.22-9-.43-9-6.13,0-2.56,2.29-4.29,6-4.29a10.44,10.44,0,0,1,5.21,1.29l-1.11,2a7.54,7.54,0,0,0-4.13-1.13c-2.27,0-3.38.84-3.38,2,0,3.38,9.07.62,9.07,6.18,0,2.59-2.37,4.24-6.18,4.24A10.38,10.38,0,0,1,400.71,145Z"></path><path class="cls-4" d="M415.59,127.78a1.7,1.7,0,0,1,1.75-1.7,1.68,1.68,0,0,1,1.76,1.64,1.7,1.7,0,0,1-1.76,1.73A1.68,1.68,0,0,1,415.59,127.78Zm.46,4.42h2.59v14.31h-2.59Z"></path><path class="cls-4" d="M437.26,132.2v12.37c0,5-2.56,7.34-7.42,7.34a10.57,10.57,0,0,1-6.83-2.14l1.24-2a8.79,8.79,0,0,0,5.51,1.86c3.38,0,4.91-1.57,4.91-4.8V143.7a6.52,6.52,0,0,1-5.15,2.22c-4.13,0-7.26-2.81-7.26-6.94s3.13-6.91,7.26-6.91a6.53,6.53,0,0,1,5.29,2.35V132.2ZM434.73,139a4.57,4.57,0,0,0-4.92-4.65c-2.88,0-4.93,1.87-4.93,4.65a4.93,4.93,0,0,0,9.85,0Z"></path><path class="cls-4" d="M455.79,138.28v8.23H453.2v-7.94c0-2.8-1.41-4.18-3.86-4.18-2.76,0-4.54,1.65-4.54,4.75v7.37h-2.59V132.2h2.48v2.16a6.14,6.14,0,0,1,5.16-2.29C453.33,132.07,455.79,134.06,455.79,138.28Z"></path><path class="cls-4" d="M466.7,137.06c0-5.59,4.26-9.66,10-9.66a9.33,9.33,0,0,1,7.18,2.94l-1.75,1.7a7,7,0,0,0-5.32-2.24,7.26,7.26,0,1,0,0,14.52,7.06,7.06,0,0,0,5.32-2.26l1.75,1.7a9.36,9.36,0,0,1-7.2,3C471,146.72,466.7,142.65,466.7,137.06Z"></path><path class="cls-4" d="M499.66,140.22H488.05c.33,2.51,2.35,4.18,5.19,4.18a5.35,5.35,0,0,0,4.13-1.72l1.43,1.67a7.2,7.2,0,0,1-5.64,2.32c-4.62,0-7.7-3-7.7-7.31a7,7,0,0,1,7.18-7.29c4.13,0,7.08,3,7.08,7.37A7.39,7.39,0,0,1,499.66,140.22Zm-11.61-1.86h9.18a4.62,4.62,0,0,0-9.18,0Z"></path><path class="cls-4" d="M516.89,138.28v8.23H514.3v-7.94c0-2.8-1.41-4.18-3.86-4.18-2.76,0-4.54,1.65-4.54,4.75v7.37h-2.59V132.2h2.48v2.16a6.14,6.14,0,0,1,5.16-2.29C514.43,132.07,516.89,134.06,516.89,138.28Z"></path><path class="cls-4" d="M529.74,145.67a4.85,4.85,0,0,1-3.13,1c-2.89,0-4.54-1.59-4.54-4.48v-7.86h-2.42V132.2h2.42v-3.13h2.6v3.13h4.1v2.13h-4.1v7.75a2.11,2.11,0,0,0,2.24,2.4,3.27,3.27,0,0,0,2-.67Z"></path><path class="cls-4" d="M545.26,140.22h-11.6c.32,2.51,2.35,4.18,5.18,4.18a5.34,5.34,0,0,0,4.13-1.72l1.43,1.67a7.17,7.17,0,0,1-5.64,2.32c-4.62,0-7.69-3-7.69-7.31a7,7,0,0,1,7.18-7.29c4.13,0,7.07,3,7.07,7.37A7.39,7.39,0,0,1,545.26,140.22Zm-11.6-1.86h9.18a4.62,4.62,0,0,0-9.18,0Z"></path><path class="cls-4" d="M556.61,132.07v2.51a4.23,4.23,0,0,0-.6,0c-2.78,0-4.5,1.7-4.5,4.83v7.13h-2.6V132.2h2.49v2.4C552.31,132.93,554.1,132.07,556.61,132.07Z"></path><path class="cls-4" d="M700,610.64l0-17.22-8.44,14.18h-3l-8.4-13.81v16.85h-6.23v-28.7h5.49l10.74,17.83,10.58-17.83h5.45l.09,28.7Z"></path><path class="cls-4" d="M732.07,598.05v12.59h-6v-2.75c-1.19,2-3.49,3.08-6.72,3.08-5.17,0-8.24-2.87-8.24-6.69s2.74-6.6,9.47-6.6h5.08c0-2.74-1.64-4.34-5.08-4.34a10.62,10.62,0,0,0-6.36,2l-2.3-4.47a17,17,0,0,1,9.52-2.67C728.17,588.25,732.07,591.37,732.07,598.05Zm-6.4,5.62v-2.26h-4.39c-3,0-3.93,1.11-3.93,2.59s1.35,2.66,3.61,2.66A4.71,4.71,0,0,0,725.67,603.67Z"></path><path class="cls-4" d="M760.4,598v12.63H754V599c0-3.57-1.64-5.21-4.47-5.21-3.07,0-5.29,1.88-5.29,5.94v10.91h-6.39V588.58H744v2.58a9.66,9.66,0,0,1,7.29-2.91C756.46,588.25,760.4,591.29,760.4,598Z"></path><path class="cls-4" d="M785.69,598.05v12.59h-6v-2.75c-1.19,2-3.49,3.08-6.73,3.08-5.16,0-8.24-2.87-8.24-6.69s2.75-6.6,9.47-6.6h5.09c0-2.74-1.64-4.34-5.09-4.34a10.62,10.62,0,0,0-6.35,2l-2.3-4.47a17,17,0,0,1,9.51-2.67C781.8,588.25,785.69,591.37,785.69,598.05Zm-6.39,5.62v-2.26h-4.39c-3,0-3.94,1.11-3.94,2.59s1.36,2.66,3.61,2.66A4.71,4.71,0,0,0,779.3,603.67Z"></path><path class="cls-4" d="M814.47,588.58V607c0,8.2-4.42,12-12.38,12-4.18,0-8.24-1-10.82-3l2.54-4.59a13.24,13.24,0,0,0,7.79,2.5c4.51,0,6.48-2,6.48-6v-.94a9.09,9.09,0,0,1-7,2.74c-6.11,0-11-4.22-11-10.66s4.92-10.66,11-10.66a8.87,8.87,0,0,1,7.3,3.16v-2.83Zm-6.31,10.33c0-3.24-2.42-5.41-5.78-5.41s-5.82,2.17-5.82,5.41,2.46,5.42,5.82,5.42S808.16,602.15,808.16,598.91Z"></path><path class="cls-4" d="M841.9,601.41H825.22c.61,2.75,2.95,4.43,6.31,4.43a7.47,7.47,0,0,0,5.54-2.13l3.4,3.69c-2.05,2.34-5.13,3.57-9.1,3.57-7.63,0-12.59-4.8-12.59-11.36s5-11.36,11.77-11.36c6.48,0,11.48,4.35,11.48,11.44C842,600.18,842,600.88,841.9,601.41Zm-16.76-3.73H836a5.51,5.51,0,0,0-10.86,0Z"></path><path class="cls-4" d="M692.3,645.64l0-13.77-6.83,11.48h-1.24L677.38,632v13.69h-2.6v-18.9H677L684.88,640l7.77-13.28h2.22l0,18.9Z"></path><path class="cls-4" d="M711.53,637v8.64h-2.46v-1.89c-.86,1.3-2.45,2-4.69,2-3.24,0-5.3-1.73-5.3-4.21,0-2.29,1.49-4.18,5.75-4.18h4.11v-.52c0-2.18-1.27-3.45-3.84-3.45a7.2,7.2,0,0,0-4.53,1.54l-1.08-2a9.57,9.57,0,0,1,5.91-1.83C709.31,631.2,711.53,633.09,711.53,637Zm-2.59,4.27v-2h-4c-2.56,0-3.29,1-3.29,2.21,0,1.43,1.19,2.32,3.16,2.32A4.16,4.16,0,0,0,708.94,641.27Z"></path><path class="cls-4" d="M729.91,637.41v8.23h-2.59V637.7c0-2.8-1.4-4.18-3.86-4.18-2.75,0-4.53,1.65-4.53,4.75v7.37h-2.59V631.33h2.48v2.16A6.13,6.13,0,0,1,724,631.2C727.46,631.2,729.91,633.2,729.91,637.41Z"></path><path class="cls-4" d="M746.06,637v8.64H743.6v-1.89c-.86,1.3-2.45,2-4.69,2-3.24,0-5.29-1.73-5.29-4.21,0-2.29,1.48-4.18,5.75-4.18h4.1v-.52c0-2.18-1.27-3.45-3.83-3.45A7.23,7.23,0,0,0,735.1,635L734,633a9.59,9.59,0,0,1,5.91-1.83C743.85,631.2,746.06,633.09,746.06,637Zm-2.59,4.27v-2h-4c-2.56,0-3.29,1-3.29,2.21,0,1.43,1.19,2.32,3.16,2.32A4.16,4.16,0,0,0,743.47,641.27Z"></path><path class="cls-4" d="M764.64,631.33V643.7c0,5-2.57,7.34-7.43,7.34a10.62,10.62,0,0,1-6.83-2.13l1.24-2a8.79,8.79,0,0,0,5.51,1.86c3.38,0,4.91-1.57,4.91-4.8v-1.14a6.52,6.52,0,0,1-5.15,2.22c-4.13,0-7.26-2.81-7.26-6.94s3.13-6.91,7.26-6.91a6.53,6.53,0,0,1,5.29,2.35v-2.22Zm-2.54,6.78c0-2.78-2.05-4.64-4.92-4.64s-4.93,1.86-4.93,4.64a4.93,4.93,0,0,0,9.85,0Z"></path><path class="cls-4" d="M793.33,637.41v8.23h-2.59V637.7c0-2.8-1.35-4.18-3.7-4.18-2.59,0-4.29,1.65-4.29,4.75v7.37h-2.59V637.7c0-2.8-1.35-4.18-3.7-4.18-2.59,0-4.29,1.65-4.29,4.75v7.37h-2.59V631.33h2.48v2.14A5.8,5.8,0,0,1,777,631.2a5.3,5.3,0,0,1,5,2.64,6.45,6.45,0,0,1,5.51-2.64C791,631.2,793.33,633.2,793.33,637.41Z"></path><path class="cls-4" d="M811.08,639.35H799.47c.32,2.51,2.35,4.18,5.18,4.18a5.34,5.34,0,0,0,4.13-1.72l1.43,1.67a7.17,7.17,0,0,1-5.64,2.32c-4.62,0-7.69-3-7.69-7.31a7,7,0,0,1,7.18-7.29c4.13,0,7.07,3,7.07,7.37C811.13,638.78,811.1,639.11,811.08,639.35Zm-11.61-1.86h9.18a4.62,4.62,0,0,0-9.18,0Z"></path><path class="cls-4" d="M828.3,637.41v8.23h-2.59V637.7c0-2.8-1.4-4.18-3.86-4.18-2.75,0-4.54,1.65-4.54,4.75v7.37h-2.59V631.33h2.49v2.16a6.11,6.11,0,0,1,5.15-2.29C825.84,631.2,828.3,633.2,828.3,637.41Z"></path><path class="cls-4" d="M841.15,644.8a4.85,4.85,0,0,1-3.13,1c-2.89,0-4.53-1.59-4.53-4.48v-7.85h-2.43v-2.14h2.43V628.2h2.59v3.13h4.1v2.14h-4.1v7.74a2.11,2.11,0,0,0,2.24,2.4,3.25,3.25,0,0,0,2-.67Z"></path><path class="cls-4" d="M712.12,671.19c0-5.59,4.27-9.66,10-9.66a9.36,9.36,0,0,1,7.18,2.94l-1.76,1.7a7,7,0,0,0-5.31-2.24,7.26,7.26,0,1,0,0,14.52,7,7,0,0,0,5.31-2.26l1.76,1.7a9.39,9.39,0,0,1-7.21,3C716.39,680.85,712.12,676.78,712.12,671.19Z"></path><path class="cls-4" d="M745.09,674.35H733.48c.32,2.51,2.35,4.18,5.18,4.18a5.32,5.32,0,0,0,4.13-1.72l1.43,1.67a7.17,7.17,0,0,1-5.64,2.32c-4.61,0-7.69-3-7.69-7.31a7,7,0,0,1,7.18-7.29c4.13,0,7.07,3,7.07,7.37A7.27,7.27,0,0,1,745.09,674.35Zm-11.61-1.86h9.18a4.62,4.62,0,0,0-9.18,0Z"></path><path class="cls-4" d="M762.31,672.41v8.23h-2.59V672.7c0-2.8-1.4-4.18-3.86-4.18-2.75,0-4.53,1.65-4.53,4.75v7.37h-2.59V666.33h2.48v2.16a6.13,6.13,0,0,1,5.16-2.29C759.86,666.2,762.31,668.2,762.31,672.41Z"></path><path class="cls-4" d="M775.17,679.8a4.85,4.85,0,0,1-3.13,1c-2.89,0-4.54-1.59-4.54-4.48v-7.85h-2.43v-2.14h2.43V663.2h2.59v3.13h4.11v2.14h-4.11v7.74a2.11,2.11,0,0,0,2.24,2.4,3.28,3.28,0,0,0,2-.67Z"></path><path class="cls-4" d="M790.69,674.35H779.08c.33,2.51,2.35,4.18,5.19,4.18a5.35,5.35,0,0,0,4.13-1.72l1.43,1.67a7.2,7.2,0,0,1-5.65,2.32c-4.61,0-7.69-3-7.69-7.31a7,7,0,0,1,7.18-7.29c4.13,0,7.07,3,7.07,7.37A7.27,7.27,0,0,1,790.69,674.35Zm-11.61-1.86h9.18a4.62,4.62,0,0,0-9.18,0Z"></path><path class="cls-4" d="M802,666.2v2.51a4,4,0,0,0-.59,0c-2.78,0-4.51,1.7-4.51,4.83v7.13h-2.59V666.33h2.48v2.41C797.74,667.06,799.52,666.2,802,666.2Z"></path><path class="cls-4" d="M76.62,581.94h13c9.39,0,15.82,5.66,15.82,14.35s-6.43,14.35-15.82,14.35h-13Zm12.71,23.25c5.7,0,9.43-3.41,9.43-8.9s-3.73-8.9-9.43-8.9H83.26v17.8Z"></path><path class="cls-4" d="M131.52,601.41H114.83c.62,2.75,3,4.43,6.31,4.43a7.47,7.47,0,0,0,5.54-2.13l3.4,3.69C128,609.74,125,611,121,611c-7.63,0-12.59-4.8-12.59-11.36s5-11.36,11.77-11.36c6.48,0,11.48,4.35,11.48,11.44C131.64,600.18,131.56,600.88,131.52,601.41Zm-16.77-3.73h10.86a5.51,5.51,0,0,0-10.86,0Z"></path><path class="cls-4" d="M159.93,599.61c0,6.93-4.8,11.36-11,11.36a8.55,8.55,0,0,1-6.64-2.67v10.29h-6.4v-30H142v2.54a8.6,8.6,0,0,1,6.93-2.87C155.13,588.25,159.93,592.68,159.93,599.61Zm-6.48,0c0-3.81-2.42-6.11-5.62-6.11s-5.61,2.3-5.61,6.11,2.42,6.11,5.61,6.11S153.45,603.42,153.45,599.61Z"></path><path class="cls-4" d="M164.19,580.22h6.4v30.42h-6.4Z"></path><path class="cls-4" d="M174.89,599.61c0-6.64,5.13-11.36,12.14-11.36s12.09,4.72,12.09,11.36S194,611,187,611,174.89,606.25,174.89,599.61Zm17.76,0c0-3.81-2.42-6.11-5.62-6.11s-5.66,2.3-5.66,6.11,2.46,6.11,5.66,6.11S192.65,603.42,192.65,599.61Z"></path><path class="cls-4" d="M224.67,588.58,214.7,612c-2.13,5.33-5.16,6.93-9.14,6.93a9.82,9.82,0,0,1-6.15-2l2.34-4.55a5.68,5.68,0,0,0,3.61,1.4c1.76,0,2.74-.78,3.61-2.75l.08-.21-9.56-22.22h6.61l6.19,15,6.23-15Z"></path><path class="cls-4" d="M71.36,645.64l0-13.77-6.83,11.48H63.27L56.44,632v13.69H53.85v-18.9h2.21L63.94,640l7.78-13.28h2.21l0,18.9Z"></path><path class="cls-4" d="M92.59,631.33v14.31H90.13v-2.16a5.82,5.82,0,0,1-4.86,2.32c-3.7,0-6.15-2-6.15-6.23v-8.24h2.59v7.94c0,2.81,1.4,4.21,3.86,4.21,2.7,0,4.43-1.67,4.43-4.75v-7.4Z"></path><path class="cls-4" d="M97.53,625.61h2.59v20H97.53Z"></path><path class="cls-4" d="M117.94,639.35H106.33c.33,2.51,2.35,4.18,5.19,4.18a5.35,5.35,0,0,0,4.13-1.72l1.43,1.67a7.2,7.2,0,0,1-5.65,2.32c-4.61,0-7.69-3-7.69-7.31a7,7,0,0,1,7.18-7.29c4.13,0,7.07,3,7.07,7.37A7.27,7.27,0,0,1,117.94,639.35Zm-11.61-1.86h9.18a4.62,4.62,0,0,0-9.18,0Z"></path><path class="cls-4" d="M141.86,645.64l-4.08-5.8c-.37,0-.78,0-1.18,0h-4.67v5.75h-2.7v-18.9h7.37c4.91,0,7.88,2.49,7.88,6.59a6,6,0,0,1-4.16,6l4.48,6.34Zm-.08-12.31c0-2.7-1.81-4.24-5.26-4.24h-4.59v8.51h4.59C140,637.6,141.78,636,141.78,633.33Z"></path><path class="cls-4" d="M161.81,631.33v14.31h-2.45v-2.16a5.85,5.85,0,0,1-4.86,2.32c-3.7,0-6.16-2-6.16-6.23v-8.24h2.6v7.94c0,2.81,1.4,4.21,3.86,4.21,2.69,0,4.42-1.67,4.42-4.75v-7.4Z"></path><path class="cls-4" d="M180.34,637.41v8.23h-2.6V637.7c0-2.8-1.4-4.18-3.86-4.18-2.75,0-4.53,1.65-4.53,4.75v7.37h-2.59V631.33h2.48v2.16a6.13,6.13,0,0,1,5.16-2.29C177.88,631.2,180.34,633.2,180.34,637.41Z"></path><path class="cls-4" d="M193.19,644.8a4.85,4.85,0,0,1-3.13,1c-2.89,0-4.54-1.59-4.54-4.48v-7.85h-2.43v-2.14h2.43V628.2h2.59v3.13h4.11v2.14h-4.11v7.74a2.11,2.11,0,0,0,2.25,2.4,3.27,3.27,0,0,0,2-.67Z"></path><path class="cls-4" d="M195.86,626.91a1.71,1.71,0,0,1,1.76-1.7,1.67,1.67,0,0,1,1.75,1.64,1.76,1.76,0,0,1-3.51.06Zm.46,4.42h2.59v14.31h-2.59Z"></path><path class="cls-4" d="M227.61,637.41v8.23H225V637.7c0-2.8-1.35-4.18-3.7-4.18-2.59,0-4.29,1.65-4.29,4.75v7.37h-2.59V637.7c0-2.8-1.35-4.18-3.7-4.18-2.59,0-4.29,1.65-4.29,4.75v7.37h-2.59V631.33h2.48v2.14a5.79,5.79,0,0,1,4.94-2.27,5.28,5.28,0,0,1,5,2.64,6.45,6.45,0,0,1,5.51-2.64C225.23,631.2,227.61,633.2,227.61,637.41Z"></path><path class="cls-4" d="M245.35,639.35H233.74c.33,2.51,2.35,4.18,5.19,4.18a5.35,5.35,0,0,0,4.13-1.72l1.43,1.67a7.2,7.2,0,0,1-5.65,2.32c-4.61,0-7.69-3-7.69-7.31a7,7,0,0,1,7.18-7.29c4.13,0,7.07,3,7.07,7.37A7.27,7.27,0,0,1,245.35,639.35Zm-11.61-1.86h9.18a4.62,4.62,0,0,0-9.18,0Z"></path><path class="cls-4" d="M116.47,678.29v2.35H102.76v-18.9h13.33v2.35H105.45v5.81h9.48v2.29h-9.48v6.1Z"></path><path class="cls-4" d="M134,672.41v8.23h-2.59V672.7c0-2.8-1.4-4.18-3.86-4.18-2.75,0-4.53,1.65-4.53,4.75v7.37h-2.59V666.33H123v2.16a6.13,6.13,0,0,1,5.16-2.29C131.59,666.2,134,668.2,134,672.41Z"></path><path class="cls-4" d="M152.62,666.33V678.7c0,5-2.56,7.34-7.42,7.34a10.6,10.6,0,0,1-6.83-2.13l1.24-2a8.75,8.75,0,0,0,5.51,1.86c3.37,0,4.91-1.57,4.91-4.8v-1.14a6.53,6.53,0,0,1-5.16,2.22c-4.13,0-7.26-2.81-7.26-6.94s3.13-6.91,7.26-6.91a6.5,6.5,0,0,1,5.29,2.35v-2.22Zm-2.54,6.78a4.56,4.56,0,0,0-4.91-4.64c-2.89,0-4.94,1.86-4.94,4.64a4.93,4.93,0,0,0,9.85,0Z"></path><path class="cls-4" d="M157.11,661.91a1.7,1.7,0,0,1,1.75-1.7,1.67,1.67,0,0,1,1.75,1.64,1.75,1.75,0,0,1-3.5.06Zm.45,4.42h2.6v14.31h-2.6Z"></path><path class="cls-4" d="M178.68,672.41v8.23h-2.6V672.7c0-2.8-1.4-4.18-3.86-4.18-2.75,0-4.53,1.65-4.53,4.75v7.37H165.1V666.33h2.48v2.16a6.13,6.13,0,0,1,5.16-2.29C176.22,666.2,178.68,668.2,178.68,672.41Z"></path><path class="cls-4" d="M196.44,674.35H184.83c.33,2.51,2.35,4.18,5.19,4.18a5.35,5.35,0,0,0,4.13-1.72l1.43,1.67a7.2,7.2,0,0,1-5.64,2.32c-4.62,0-7.7-3-7.7-7.31a7,7,0,0,1,7.18-7.29c4.13,0,7.07,3,7.07,7.37A7.27,7.27,0,0,1,196.44,674.35Zm-11.61-1.86H194a4.62,4.62,0,0,0-9.18,0Z"></path></g></g></svg>